<?xml version="1.0" encoding="UTF-8"?>
<svg width="151px" height="146px" viewBox="0 0 151 146" version="1.1" xmlns="http://www.w3.org/2000/svg" xmlns:xlink="http://www.w3.org/1999/xlink">
    <title>1</title>
    <g id="Page-1" stroke="none" stroke-width="1" fill="none" fill-rule="evenodd">
        <g id="1" transform="translate(0.785000, 0.056000)" fill="currentColor">
            <path d="M16.871,108.401 C-39.965,44.65 74.646,-52.588 129.509,39.021 C134.7655,47.798 140.58575,57.582 143.84,67.125 L143.858417,67.1801258 L144.176866,67.6519684 C166.530633,102.865243 94.3809983,191.591432 19.3456177,111.115641 Z M131.873,71.142 L131.573,72.293 L131.257,73.385 L130.914,74.459 L130.548,75.513 L130.159,76.542 L129.743,77.552 L129.303,78.541 L128.839,79.505 L128.345,80.449 L127.832,81.374 L127.298,82.274 L126.736,83.154 L126.147,84.01 L125.532,84.838 L124.885,85.639 L124.211,86.413 L123.5,87.146 L122.781,87.868 L122.074,88.598 L121.355,89.308 L120.625,90.014 L119.879,90.702 L119.117,91.369 L118.333,92.019 L117.529,92.647 L116.71,93.253 L115.872,93.844 L115.019,94.417 L114.15,94.967 L113.276,95.492 L112.349,96.005 L111.441,96.507 L109.561,97.427 L108.594,97.849 L107.622,98.276 L106.626,98.668 L105.636,99.059 L104.623,99.416 L103.609,99.774 L102.575,100.101 L101.535,100.432 L100.477,100.731 L99.423,101.029 L98.352,101.301 L97.28,101.574 L96.19,101.814 L95.095,102.057 L93.985,102.273 L92.88,102.49 L91.759,102.672 L90.637,102.855 L89.502,103.005 L88.361,103.155 L87.209,103.275 L86.06,103.395 L84.902,103.482 L83.743,103.565 L82.574,103.611 L81.401,103.657 L80.222,103.672 L79.047,103.689 L77.867,103.672 L76.686,103.657 L75.502,103.61 L74.313,103.563 L73.123,103.488 L71.937,103.414 L70.751,103.314 L69.564,103.218 L68.378,103.092 L67.188,102.966 L66.001,102.813 L64.817,102.661 L63.639,102.478 L62.465,102.267 L61.306,101.981 L60.144,101.693 L58.992,101.379 L57.842,101.088 L56.701,100.777 L55.559,100.477 L54.428,100.153 L53.29,99.841 L52.165,99.505 L51.045,99.17 L49.939,98.81 L48.834,98.452 L47.745,98.073 L46.65,97.697 L45.571,97.298 L44.498,96.902 L43.445,96.48 L42.393,96.059 L41.362,95.613 L40.276,95.145 C38.022,94.204 35.432,95.269 34.491,97.523 C33.55,99.777 34.615,102.367 36.87,103.308 L37.966,103.751 L39.118,104.216 L41.462,105.09 L42.652,105.499 L43.837,105.905 L45.038,106.286 L46.244,106.663 L47.467,107.008 L48.69,107.35 L49.927,107.662 L51.159,107.972 L52.401,108.256 L53.651,108.527 L54.912,108.766 L56.173,108.993 L57.445,109.182 L58.715,109.348 L59.991,109.487 L61.268,109.628 L62.543,109.784 L63.814,109.968 L65.089,110.122 L66.36,110.276 L67.634,110.401 L68.912,110.526 L70.192,110.619 L71.473,110.708 L72.753,110.759 L74.029,110.809 L75.303,110.83 L76.582,110.851 L77.858,110.839 L79.133,110.826 L80.403,110.78 L81.67,110.733 L82.93,110.656 L84.194,110.58 L85.451,110.472 L86.709,110.369 L87.957,110.232 L89.201,110.094 L90.435,109.924 L91.674,109.753 L92.901,109.546 L94.128,109.338 L95.34,109.094 L96.549,108.85 L97.741,108.568 L98.939,108.283 L100.119,107.959 L101.299,107.633 L102.456,107.261 L103.609,106.889 L104.742,106.482 L105.88,106.072 L106.992,105.618 L108.105,105.162 L109.191,104.665 L110.271,104.17 L111.327,103.639 L112.388,103.105 L113.42,102.531 L114.452,101.956 L115.456,101.346 L116.441,100.747 L117.437,100.106 L118.406,99.45 L119.357,98.779 L120.293,98.087 L121.213,97.372 L122.113,96.637 L123,95.888 L123.871,95.115 L124.72,94.322 L125.551,93.508 L126.352,92.658 L127.127,91.786 L127.85,90.868 L128.54,89.919 L129.224,88.968 L129.895,88.006 L130.554,87.028 L131.194,86.035 L131.818,85.027 L132.423,83.996 L133.002,82.946 L133.556,81.874 L134.09,80.78 L134.597,79.666 L135.083,78.532 L135.544,77.373 L135.975,76.194 L136.381,74.994 L136.758,73.768 L137.097,72.554 C137.487,71.111 136.633,69.626 135.191,69.236 C133.748,68.846 132.262,69.7 131.873,71.142 Z M136.028,59.757 L142.775,93.783 C147.68235,86.12626 147.119502,77.0394844 144.032151,67.6972808 L143.858417,67.1801258 L143.40557,66.5107732 C141.52543,63.8945985 139.08014,61.60955 136.028,59.757 Z M51.697,52.077 L50.905,52.146 L50.13,52.309 L49.413,52.543 L48.739,52.833 L48.092,53.176 L47.491,53.555 L46.92,53.968 L46.365,54.417 L45.837,54.892 L45.321,55.389 L44.81,55.912 L44.287,56.476 L43.301,57.58 L42.258,58.765 L41.196,60.005 L40.129,61.303 L39.038,62.645 L37.651,63.8 L36.379,65.075 L35.123,66.383 L33.799,67.739 C32.164,69.554 32.31,72.35 34.125,73.985 C35.939,75.62 38.736,75.474 40.371,73.659 L41.657,72.118 L42.883,70.521 L43.972,68.917 L44.844,67.243 L45.91,65.839 L46.904,64.508 L47.824,63.251 L48.685,62.113 L49.533,61.1 L49.905,60.685 L50.274,60.291 L50.626,59.938 L50.955,59.627 L51.245,59.363 L51.509,59.142 L51.734,58.961 L51.906,58.828 L52.043,58.732 L52.132,58.665 L52.158,58.623 L52.163,58.588 L52.147,58.551 L52.112,58.512 L52.124,58.479 L52.18,58.46 L52.275,58.476 L52.439,58.557 L52.652,58.701 L52.898,58.919 L53.191,59.224 L53.505,59.615 L53.837,60.088 L54.227,60.633 L54.75,61.2 L55.206,61.903 L55.622,62.726 L56.031,63.64 L56.425,64.65 L56.834,65.775 C57.384,67.165 58.957,67.845 60.346,67.295 C61.736,66.745 62.416,65.173 61.866,63.784 L61.374,62.632 L60.882,61.534 L60.418,60.504 L59.974,59.531 L59.58,58.593 L59.264,57.672 L58.825,56.866 L58.335,56.134 L57.835,55.461 L57.32,54.829 L56.764,54.243 L56.178,53.715 L55.548,53.237 L54.849,52.819 L54.114,52.485 L53.334,52.242 L52.507,52.104 L51.697,52.077 Z M94.022,45.049 L93.245,45.138 L92.518,45.307 L91.833,45.548 L91.181,45.852 L90.583,46.196 L90.025,46.576 L89.492,46.994 L88.993,47.432 L88.514,47.891 L88.049,48.375 L87.571,48.912 L86.715,49.908 L85.837,51.013 L84.973,52.176 L84.144,53.407 L83.237,54.637 L82.153,55.795 L81.206,57.061 L80.295,58.364 L79.377,59.698 C78.084,61.77 78.714,64.499 80.786,65.793 C82.858,67.086 85.587,66.456 86.881,64.384 L87.694,62.947 L88.466,61.51 L89.159,60.094 L89.681,58.644 L90.345,57.372 L91.06,56.233 L91.716,55.17 L92.339,54.23 L92.966,53.388 L93.226,53.083 L93.497,52.787 L93.753,52.53 L93.987,52.313 L94.187,52.147 L94.361,52.017 L94.496,51.92 L94.578,51.864 L94.63,51.826 L94.641,51.795 L94.604,51.775 L94.571,51.75 L94.543,51.713 L94.524,51.672 L94.566,51.646 L94.66,51.645 L94.797,51.678 L95,51.774 L95.243,51.935 L95.514,52.165 L95.819,52.479 L96.152,52.862 L96.488,53.326 L96.861,53.864 L97.354,54.413 L97.848,55.051 L98.273,55.819 L98.682,56.671 L99.073,57.611 L99.477,58.657 C100.06,60.033 101.649,60.676 103.025,60.093 C104.401,59.51 105.043,57.921 104.46,56.546 L103.969,55.477 L103.478,54.452 L103.017,53.484 L102.584,52.561 L102.23,51.648 L101.889,50.781 L101.435,50.024 L100.956,49.324 L100.482,48.669 L99.99,48.058 L99.471,47.483 L98.933,46.957 L98.36,46.47 L97.729,46.03 L97.061,45.664 L96.346,45.37 L95.574,45.161 L94.799,45.055 L94.022,45.049 Z" id="Combined-Shape"></path>
            <path d="M144.359,94.746 L144.98,93.72 L145.564,92.635 L146.082,91.538 L146.544,90.426 L146.947,89.296 L147.29,88.158 L147.58,87.009 L147.816,85.845 L147.996,84.676 L148.129,83.5 L148.211,82.313 L148.244,81.122 L148.234,79.926 L148.178,78.722 L148.079,77.517 L147.942,76.308 L147.764,75.092 L147.548,73.876 L147.299,72.658 L147.014,71.435 L146.696,70.212 L146.349,68.989 L145.971,67.762 L145.564,66.537 L145.132,65.312 L144.674,64.085 L144.192,62.861 L143.689,61.637 L143.163,60.414 L142.616,59.189 L142.048,57.978 L141.478,56.762 L140.875,55.55 L140.272,54.342 L139.642,53.14 L139.015,51.941 L138.367,50.75 L137.72,49.56 L137.056,48.381 L136.394,47.204 L135.722,46.039 L135.051,44.878 L134.376,43.73 L133.701,42.583 L133.028,41.454 L132.355,40.327 L131.69,39.219 L131.022,38.107 L130.147,36.676 L129.258,35.27 L128.36,33.896 L127.453,32.55 L126.535,31.234 L125.608,29.95 L124.672,28.695 L123.725,27.469 L122.771,26.274 L121.809,25.107 L120.838,23.968 L119.859,22.861 L118.872,21.781 L117.876,20.729 L116.873,19.708 L115.864,18.713 L114.847,17.746 L113.823,16.808 L112.793,15.897 L111.754,15.016 L110.71,14.163 L109.66,13.336 L108.603,12.536 L107.541,11.765 L106.475,11.018 L105.403,10.298 L104.326,9.606 L103.246,8.939 L102.16,8.297 L101.07,7.683 L99.977,7.093 L98.88,6.528 L97.779,5.99 L96.675,5.476 L95.57,4.982 L94.463,4.512 L93.353,4.066 L92.239,3.644 L91.124,3.247 L90.007,2.873 L88.886,2.523 L87.765,2.198 L86.643,1.894 L85.517,1.615 L84.392,1.359 L83.267,1.125 L82.139,0.913 L81.005,0.724 L79.885,0.569 L78.757,0.413 L77.628,0.301 L76.5,0.19 L75.372,0.122 L74.248,0.055 L73.126,0.028 L72.001,0 L70.878,0.015 L69.756,0.031 L68.638,0.088 L67.522,0.145 L66.411,0.239 L65.297,0.334 L64.188,0.468 L63.08,0.603 L61.978,0.777 L60.879,0.951 L59.786,1.16 L58.691,1.369 L57.603,1.616 L56.516,1.864 L55.438,2.149 L54.362,2.433 L53.295,2.75 L52.226,3.067 L51.167,3.42 L50.109,3.773 L49.061,4.16 L48.016,4.547 L46.982,4.964 L45.945,5.382 L44.922,5.832 L43.899,6.283 L42.889,6.766 L41.882,7.247 L40.887,7.757 L39.891,8.269 L38.91,8.81 L37.929,9.352 L36.964,9.923 L36.001,10.493 L35.053,11.089 L34.104,11.686 L33.172,12.312 L32.24,12.937 L31.327,13.59 L30.416,14.241 L29.521,14.917 L28.626,15.594 L27.75,16.296 L26.874,16.999 L26.019,17.726 L25.166,18.452 L24.332,19.2 L23.497,19.949 L22.684,20.722 L21.872,21.495 L21.082,22.29 L20.295,23.084 L19.528,23.898 L18.761,24.713 L18.018,25.549 L17.275,26.385 L16.558,27.242 L15.842,28.097 L15.15,28.969 L14.457,29.844 L13.791,30.737 L13.126,31.63 L12.488,32.541 L11.851,33.45 L11.241,34.375 L10.629,35.302 L10.047,36.245 L9.465,37.188 L8.913,38.146 L8.362,39.103 L7.839,40.074 L7.316,41.046 L6.825,42.033 L6.334,43.02 L5.875,44.019 L5.418,45.018 L4.992,46.027 L4.564,47.039 L4.172,48.063 L3.779,49.087 L3.422,50.122 L3.065,51.155 L2.742,52.197 L2.418,53.241 L2.131,54.295 L1.845,55.35 L1.596,56.412 L1.348,57.473 L1.135,58.541 L0.923,59.611 L0.749,60.689 L0.576,61.767 L0.443,62.85 L0.311,63.932 L0.216,65.019 L0.122,66.108 L0.07,67.202 L0.018,68.296 L0.008,69.394 L0,70.489 L0.031,71.587 L0.062,72.688 L0.138,73.791 L0.215,74.894 L0.337,75.998 L0.459,77.1 L0.623,78.202 L0.788,79.307 L1,80.412 L1.212,81.516 L1.472,82.619 L1.731,83.713 L2.027,84.82 L2.346,85.92 L2.69,87.018 L3.057,88.114 L3.449,89.209 L3.866,90.301 L4.307,91.39 L4.774,92.478 L5.267,93.562 L5.784,94.643 L6.328,95.722 L6.898,96.796 L7.492,97.867 L8.113,98.935 L8.762,99.998 L9.435,101.057 L10.137,102.111 L10.866,103.16 L11.621,104.204 L12.404,105.244 L13.214,106.278 L14.051,107.306 L14.917,108.329 L15.81,109.346 L17.113,110.786 L18.415,112.192 L19.717,113.563 L21.019,114.903 L22.32,116.21 L23.621,117.483 L24.922,118.725 L26.221,119.934 L27.52,121.111 L28.817,122.258 L30.114,123.372 L31.409,124.455 L32.703,125.508 L33.996,126.53 L35.286,127.521 L36.575,128.483 L37.863,129.415 L39.148,130.317 L40.432,131.19 L41.714,132.034 L42.993,132.848 L44.269,133.635 L45.545,134.393 L46.816,135.122 L48.086,135.824 L49.353,136.498 L50.616,137.144 L51.877,137.764 L53.136,138.357 L54.39,138.922 L55.641,139.463 L56.89,139.976 L58.134,140.463 L59.374,140.926 L60.612,141.362 L61.845,141.772 L63.074,142.159 L64.3,142.521 L65.521,142.857 L66.737,143.171 L67.951,143.46 L69.158,143.724 L70.361,143.966 L71.561,144.184 L72.754,144.378 L73.943,144.551 L75.127,144.701 L76.31,144.828 L77.474,144.924 L78.646,145.019 L79.806,145.071 L80.966,145.122 L82.114,145.129 L83.26,145.137 L84.395,145.106 L85.532,145.075 L86.656,145.002 L87.78,144.93 L88.891,144.817 L89.999,144.704 L91.095,144.556 L92.192,144.407 L93.276,144.22 L94.36,144.034 L95.429,143.811 L96.496,143.587 L97.549,143.332 L98.603,143.075 L99.643,142.783 L100.682,142.492 L101.705,142.166 L102.726,141.841 L103.733,141.487 L104.74,141.131 L105.732,140.744 L106.722,140.356 L107.696,139.938 L108.668,139.521 L109.623,139.077 L110.58,138.631 L111.519,138.157 L112.456,137.681 L113.376,137.178 L114.293,136.676 L115.193,136.15 L116.095,135.622 L116.977,135.07 L117.858,134.517 L118.72,133.94 L119.58,133.364 L120.419,132.763 L121.259,132.161 L122.079,131.537 L122.897,130.913 L123.695,130.268 L124.491,129.624 L125.268,128.961 L126.045,128.298 L126.801,127.616 L127.561,126.932 L129.026,125.541 L130.453,124.116 L131.835,122.659 L133.168,121.172 L134.458,119.661 L135.702,118.125 L136.895,116.566 L138.042,114.988 L139.138,113.388 L140.182,111.773 L141.179,110.144 L142.123,108.5 L143.011,106.845 L143.849,105.182 L144.63,103.509 L145.354,101.832 L146.025,100.152 L146.637,98.469 L147.188,96.787 L147.684,95.107 L148.12,93.43 L148.492,91.761 L148.806,90.099 L149.056,88.445 L149.24,86.805 L149.363,85.178 L149.418,83.565 L149.405,81.972 L149.328,80.398 L149.18,78.843 L148.96,77.315 L148.673,75.811 L148.31,74.333 L147.873,72.89 L147.366,71.476 L146.781,70.096 L146.117,68.758 L145.382,67.456 L144.564,66.196 L143.667,64.985 L142.695,63.818 L141.639,62.701 L140.515,61.65 L139.907,61.128 L139.288,60.63 L138.651,60.148 L137.994,59.68 L137.315,59.225 L136.629,58.796 C136.098,58.464 135.399,58.625 135.067,59.156 C134.735,59.687 134.896,60.386 135.427,60.718 L136.085,61.129 L136.708,61.544 L137.312,61.974 L137.898,62.415 L138.463,62.869 L138.998,63.325 L140.049,64.303 L141.009,65.316 L141.896,66.378 L142.716,67.48 L143.46,68.623 L144.134,69.811 L144.743,71.034 L145.28,72.294 L145.748,73.594 L146.154,74.925 L146.49,76.288 L146.759,77.685 L146.967,79.109 L147.107,80.559 L147.182,82.037 L147.197,83.537 L147.146,85.057 L147.031,86.599 L146.858,88.157 L146.622,89.728 L146.323,91.315 L145.969,92.912 L145.553,94.516 L145.076,96.128 L144.546,97.745 L143.957,99.363 L143.309,100.983 L142.61,102.601 L141.856,104.214 L141.045,105.822 L140.185,107.423 L139.272,109.012 L138.305,110.59 L137.29,112.155 L136.223,113.7 L135.106,115.228 L133.944,116.737 L132.734,118.222 L131.475,119.681 L130.171,121.115 L128.823,122.518 L127.43,123.89 L125.992,125.236 L125.257,125.883 L124.517,126.533 L123.756,127.165 L122.994,127.796 L122.214,128.41 L121.434,129.023 L120.635,129.615 L119.836,130.207 L119.016,130.777 L118.196,131.347 L117.361,131.901 L116.528,132.454 L115.675,132.983 L114.823,133.512 L113.952,134.017 L113.08,134.522 L112.191,135.003 L111.304,135.484 L110.4,135.938 L109.496,136.392 L108.575,136.82 L107.652,137.248 L106.714,137.651 L105.778,138.052 L104.826,138.424 L103.873,138.796 L102.905,139.136 L101.935,139.478 L100.95,139.79 L99.968,140.102 L98.97,140.381 L97.973,140.661 L96.96,140.906 L95.946,141.152 L94.918,141.366 L93.893,141.579 L92.854,141.757 L91.815,141.935 L90.761,142.075 L89.706,142.216 L88.639,142.322 L87.575,142.428 L86.497,142.495 L85.419,142.563 L84.329,142.59 L83.237,142.617 L82.134,142.608 L81.033,142.598 L79.92,142.546 L78.808,142.495 L77.684,142.4 L76.552,142.305 L75.425,142.181 L74.288,142.035 L73.144,141.866 L71.996,141.676 L70.844,141.463 L69.686,141.226 L68.524,140.968 L67.357,140.686 L66.185,140.381 L65.009,140.053 L63.829,139.7 L62.643,139.322 L61.454,138.921 L60.261,138.495 L59.064,138.043 L57.862,137.567 L56.658,137.066 L55.448,136.538 L54.236,135.985 L53.021,135.405 L51.801,134.797 L50.578,134.164 L49.353,133.504 L48.123,132.815 L46.891,132.1 L45.656,131.358 L44.418,130.585 L43.177,129.787 L41.934,128.959 L40.687,128.101 L39.439,127.216 L38.188,126.301 L36.935,125.355 L35.679,124.381 L34.423,123.376 L33.163,122.339 L31.902,121.274 L30.639,120.178 L29.374,119.049 L28.108,117.89 L26.84,116.699 L25.571,115.475 L24.3,114.221 L23.029,112.934 L21.756,111.613 L20.481,110.261 L19.207,108.876 L17.932,107.455 L17.075,106.474 L16.248,105.49 L15.448,104.499 L14.674,103.505 L13.928,102.508 L13.209,101.505 L12.515,100.499 L11.849,99.491 L11.207,98.478 L10.59,97.462 L10,96.444 L9.436,95.422 L8.895,94.397 L8.38,93.371 L7.89,92.342 L7.423,91.31 L6.982,90.277 L6.565,89.241 L6.17,88.204 L5.8,87.166 L5.454,86.125 L5.129,85.083 L4.829,84.042 L4.553,83.004 L4.306,81.951 L4.059,80.908 L3.86,79.863 L3.66,78.818 L3.505,77.774 L3.349,76.726 L3.234,75.679 L3.119,74.634 L3.048,73.591 L2.976,72.547 L2.947,71.505 L2.918,70.46 L2.927,69.418 L2.935,68.378 L2.986,67.342 L3.036,66.305 L3.126,65.272 L3.217,64.237 L3.344,63.206 L3.47,62.177 L3.635,61.154 L3.8,60.13 L4.004,59.113 L4.207,58.093 L4.445,57.079 L4.682,56.068 L4.955,55.064 L5.229,54.06 L5.538,53.065 L5.849,52.067 L6.191,51.078 L6.532,50.09 L6.908,49.113 L7.283,48.136 L7.692,47.169 L8.102,46.2 L8.542,45.242 L8.98,44.285 L9.451,43.341 L9.922,42.397 L10.424,41.466 L10.927,40.533 L11.457,39.612 L11.987,38.694 L12.546,37.79 L13.105,36.885 L13.694,35.997 L14.284,35.107 L14.899,34.232 L15.513,33.358 L16.154,32.502 L16.796,31.645 L17.463,30.807 L18.132,29.966 L18.824,29.143 L19.515,28.321 L20.231,27.519 L20.947,26.717 L21.687,25.935 L22.428,25.151 L23.19,24.387 L23.951,23.623 L24.734,22.882 L25.517,22.141 L26.322,21.422 L27.128,20.702 L27.953,20.004 L28.777,19.306 L29.62,18.633 L30.463,17.959 L31.326,17.311 L32.19,16.661 L33.07,16.035 L33.949,15.41 L34.846,14.811 L35.742,14.212 L36.655,13.641 L37.569,13.068 L38.498,12.521 L39.425,11.975 L40.368,11.458 L41.31,10.94 L42.266,10.453 L43.224,9.964 L44.194,9.503 L45.162,9.042 L46.143,8.613 L47.124,8.184 L48.116,7.786 L49.11,7.388 L50.115,7.019 L51.116,6.651 L52.129,6.317 L53.141,5.982 L54.162,5.681 L55.185,5.38 L56.216,5.11 L57.245,4.841 L58.281,4.607 L59.317,4.372 L60.36,4.174 L61.405,3.975 L62.456,3.81 L63.504,3.645 L64.558,3.518 L65.611,3.391 L66.669,3.302 L67.729,3.213 L68.793,3.16 L69.854,3.106 L70.919,3.093 L71.983,3.079 L73.049,3.106 L74.118,3.133 L75.188,3.198 L76.256,3.262 L77.324,3.368 L78.392,3.474 L79.46,3.624 L80.538,3.774 L81.6,3.952 L82.667,4.152 L83.735,4.375 L84.801,4.619 L85.866,4.884 L86.93,5.173 L87.993,5.482 L89.054,5.815 L90.113,6.171 L91.171,6.548 L92.225,6.949 L93.279,7.374 L94.33,7.821 L95.376,8.293 L96.419,8.795 L97.458,9.319 L98.493,9.868 L99.525,10.443 L100.553,11.04 L101.577,11.663 L102.597,12.311 L103.613,12.984 L104.624,13.681 L105.631,14.406 L106.633,15.156 L107.629,15.931 L108.621,16.733 L109.607,17.561 L110.587,18.415 L111.564,19.296 L112.536,20.201 L113.5,21.134 L114.46,22.096 L115.413,23.084 L116.358,24.1 L117.298,25.145 L118.231,26.217 L119.157,27.316 L120.076,28.446 L120.988,29.604 L121.891,30.79 L122.787,32.008 L123.676,33.253 L124.556,34.527 L125.428,35.833 L126.293,37.167 L127.147,38.532 L127.996,39.934 L128.652,41.036 L129.309,42.141 L129.974,43.267 L130.638,44.389 L131.302,45.529 L131.965,46.668 L132.624,47.82 L133.282,48.969 L133.929,50.132 L134.576,51.291 L135.206,52.461 L135.836,53.63 L136.446,54.806 L137.055,55.979 L137.637,57.157 L138.218,58.333 L138.767,59.511 L139.318,60.694 L139.839,61.866 L140.34,63.041 L140.819,64.214 L141.277,65.384 L141.709,66.55 L142.116,67.712 L142.497,68.87 L142.85,70.021 L143.172,71.167 L143.465,72.306 L143.726,73.436 L143.953,74.559 L144.148,75.673 L144.307,76.775 L144.428,77.87 L144.515,78.954 L144.562,80.023 L144.568,81.083 L144.537,82.131 L144.463,83.163 L144.345,84.185 L144.187,85.195 L143.985,86.187 L143.734,87.169 L143.439,88.139 L143.097,89.091 L142.703,90.034 L142.261,90.964 L141.767,91.878 L141.192,92.82 C140.66,93.695 140.938,94.835 141.812,95.367 C142.687,95.898 143.827,95.621 144.359,94.746 Z" id="Fill-616"></path>
        </g>
    </g>
</svg>
