<?xml version="1.0" encoding="UTF-8"?>
<svg width="554px" height="210px" viewBox="0 0 554 210" version="1.1" xmlns="http://www.w3.org/2000/svg" xmlns:xlink="http://www.w3.org/1999/xlink">
    <title>102</title>
    <g id="Page-1" stroke="none" stroke-width="1" fill="none" fill-rule="evenodd">
        <g id="102" transform="translate(0.760750, 0.589000)" fill="currentColor">
            <path d="M309.635,19.304 L310.186,19.24 L310.675,19.177 L311.097,19.115 L311.464,19.052 L311.789,18.985 L312.102,18.897 L312.327,18.808 L312.922,18.381 L312.923,18.381 L312.923,18.38 L312.923,18.38 L312.924,18.379 L312.925,18.378 L312.925,18.377 L312.926,18.376 L312.928,18.375 L312.929,18.373 L312.93,18.372 L312.932,18.37 L312.934,18.368 L312.936,18.366 L312.938,18.363 L312.94,18.361 L312.973,18.323 L313.038,18.239 L313.104,18.142 L313.169,18.03 L313.23,17.902 L313.283,17.758 L313.326,17.598 L313.353,17.427 L313.362,17.247 L313.352,17.066 L313.323,16.889 L313.277,16.723 L313.217,16.571 L313.149,16.435 L313.075,16.316 L313,16.213 L312.961,16.166 L312.959,16.164 L312.957,16.162 L312.956,16.16 L312.954,16.158 L312.953,16.156 L312.951,16.155 L312.95,16.153 L312.949,16.152 L312.948,16.151 L312.947,16.15 L312.947,16.149 L312.946,16.149 L312.946,16.148 L312.946,16.148 L312.945,16.148 L312.266,15.674 L312.012,15.589 L311.681,15.523 L311.367,15.484 L311.023,15.455 L310.627,15.432 L310.177,15.414 L309.674,15.4 L309.11,15.39 L308.487,15.385 L307.809,15.384 L307.072,15.387 L306.276,15.395 L305.426,15.408 L304.518,15.425 L303.554,15.447 L302.539,15.473 L301.467,15.505 L300.341,15.541 L299.166,15.583 L297.937,15.629 L296.657,15.682 L295.33,15.739 L293.951,15.802 L292.523,15.87 L291.05,15.944 L289.529,16.024 L287.961,16.109 L286.351,16.201 L284.694,16.298 L282.993,16.402 L281.252,16.512 L279.468,16.628 L277.641,16.751 L275.777,16.879 L273.872,17.015 L271.928,17.158 L269.949,17.306 L268.939,17.384 L267.93,17.462 L266.903,17.544 L265.875,17.626 L264.831,17.71 L263.787,17.795 L262.725,17.884 L261.663,17.972 L260.584,18.065 L259.505,18.157 L258.41,18.253 L257.316,18.349 L256.205,18.448 L255.094,18.548 L253.966,18.651 L252.84,18.755 L251.698,18.862 L250.557,18.969 L249.401,19.08 L248.244,19.191 L247.073,19.306 L245.902,19.421 L244.718,19.54 L243.533,19.659 L242.335,19.781 L241.137,19.904 L239.925,20.031 L238.714,20.158 L237.49,20.289 L236.266,20.42 L235.03,20.555 L233.794,20.691 L232.545,20.83 L231.297,20.97 L230.038,21.113 L228.779,21.257 L227.508,21.405 L226.237,21.552 L224.956,21.705 L223.674,21.857 L222.377,22.016 L221.084,22.174 L219.79,22.333 L218.492,22.492 L217.175,22.66 L215.862,22.827 L214.549,22.995 L213.232,23.163 L211.897,23.34 L210.567,23.517 L209.236,23.694 L207.902,23.872 L206.553,24.058 L205.208,24.244 L203.863,24.43 L202.514,24.616 L201.15,24.812 L199.791,25.008 L198.432,25.203 L197.068,25.4 L195.692,25.606 L194.32,25.811 L192.949,26.017 L191.573,26.223 L190.187,26.439 L188.806,26.653 L187.425,26.868 L186.038,27.084 L184.643,27.31 L183.253,27.535 L181.862,27.76 L180.466,27.986 L179.064,28.223 L177.666,28.459 L176.268,28.694 L174.866,28.931 L173.458,29.177 L172.056,29.423 L170.653,29.668 L169.244,29.915 L167.832,30.173 L166.425,30.43 L165.019,30.686 L163.606,30.944 L162.191,31.213 L160.783,31.481 L159.374,31.749 L157.959,32.018 L156.545,32.297 L155.135,32.575 L153.726,32.853 L152.31,33.133 L150.896,33.424 L149.488,33.714 L148.08,34.003 L146.665,34.294 L145.253,34.597 L143.848,34.899 L142.443,35.2 L141.031,35.503 L139.624,35.817 L138.223,36.129 L136.822,36.442 L135.414,36.756 L134.012,37.082 L132.617,37.406 L131.223,37.731 L129.821,38.057 L128.426,38.396 L127.04,38.732 L125.653,39.069 L124.259,39.408 L122.874,39.758 L121.497,40.106 L120.119,40.455 L118.733,40.805 L117.358,41.169 L115.992,41.53 L114.626,41.891 L113.251,42.254 L111.889,42.631 L110.536,43.005 L109.183,43.379 L107.821,43.755 L106.473,44.144 L105.134,44.529 L103.794,44.915 L102.445,45.304 L101.112,45.706 L99.789,46.106 L98.466,46.505 L97.133,46.907 L95.817,47.323 L94.513,47.736 L93.208,48.149 L91.896,48.564 L90.598,48.988 L89.301,49.412 L88.015,49.843 L86.728,50.274 L85.452,50.712 L84.177,51.149 L82.912,51.593 L81.646,52.038 L80.392,52.489 L79.138,52.941 L77.896,53.399 L76.654,53.858 L75.424,54.324 L74.193,54.789 L72.975,55.262 L71.757,55.735 L70.552,56.216 L69.348,56.696 L68.156,57.183 L66.964,57.67 L65.785,58.165 L64.607,58.659 L63.443,59.161 L62.28,59.663 L61.13,60.172 L59.98,60.681 L58.845,61.198 L57.71,61.715 L56.59,62.239 L55.472,62.764 L54.368,63.295 L53.263,63.827 L52.175,64.366 L51.087,64.906 L50.016,65.453 L48.945,66 L47.891,66.554 L46.836,67.109 L45.798,67.672 L44.761,68.234 L43.741,68.805 L42.723,69.376 L41.722,69.954 L40.719,70.532 L39.736,71.119 L38.753,71.705 L37.789,72.3 L36.827,72.895 L35.882,73.497 L34.936,74.099 L34.011,74.711 L33.087,75.323 L32.183,75.943 L31.28,76.563 L30.396,77.191 L29.512,77.82 L28.649,78.457 L27.786,79.094 L26.945,79.74 L26.105,80.385 L25.286,81.038 L24.466,81.693 L23.668,82.355 L22.871,83.019 L22.097,83.691 L21.32,84.366 L19.821,85.722 L18.364,87.102 L16.959,88.499 L15.599,89.913 L14.29,91.348 L13.034,92.8 L11.826,94.27 L10.672,95.761 L9.574,97.27 L8.527,98.797 L7.535,100.346 L6.604,101.913 L5.726,103.498 L4.907,105.105 L4.151,106.731 L3.452,108.375 L2.814,110.041 L2.242,111.725 L1.728,113.427 L1.28,115.151 L0.9,116.893 L0.582,118.652 L0.333,120.434 L0.155,122.233 L0.041,124.049 L0,125.886 L0.031,127.74 L0.129,129.611 L0.301,131.503 L0.548,133.411 L0.864,135.335 L1.257,137.28 L1.726,139.24 L2.264,141.209 L2.576,142.217 L2.886,143.215 L3.235,144.224 L3.583,145.229 L3.968,146.243 L4.354,147.259 L4.779,148.285 L5.205,149.31 L5.672,150.345 L6.137,151.378 L6.64,152.419 L7.144,153.462 L7.689,154.514 L8.234,155.566 L8.821,156.628 L9.406,157.688 L10.03,158.757 L10.655,159.828 L11.323,160.908 L11.99,161.988 L12.7,163.078 L13.415,164.175 L14.34,165.499 L15.346,166.812 L16.421,168.098 L17.561,169.362 L18.772,170.606 L20.05,171.824 L21.388,173.021 L22.795,174.197 L24.266,175.349 L25.795,176.481 L27.39,177.593 L29.046,178.681 L30.752,179.747 L31.645,180.275 L32.532,180.799 L33.449,181.313 L34.365,181.826 L35.308,182.329 L36.252,182.833 L37.226,183.327 L38.199,183.821 L39.202,184.305 L40.203,184.788 L41.23,185.261 L42.258,185.735 L43.315,186.2 L44.371,186.663 L45.455,187.117 L46.538,187.571 L47.646,188.015 L48.754,188.459 L49.89,188.894 L51.026,189.328 L52.188,189.752 L53.349,190.176 L54.534,190.591 L55.72,191.007 L56.931,191.412 L58.143,191.817 L59.38,192.213 L60.615,192.608 L61.874,192.995 L63.133,193.381 L64.417,193.758 L65.7,194.135 L67.008,194.502 L68.315,194.869 L69.643,195.227 L70.973,195.585 L72.325,195.933 L73.677,196.282 L75.053,196.621 L76.427,196.959 L77.822,197.289 L79.217,197.619 L80.635,197.94 L82.052,198.26 L83.492,198.571 L84.93,198.881 L86.388,199.183 L87.846,199.485 L89.325,199.778 L90.804,200.07 L92.304,200.353 L93.802,200.636 L95.32,200.91 L96.837,201.183 L98.374,201.448 L99.911,201.712 L101.467,201.967 L103.023,202.221 L104.596,202.467 L106.169,202.714 L107.76,202.95 L109.352,203.187 L110.961,203.414 L112.569,203.641 L114.194,203.86 L115.819,204.079 L117.461,204.288 L119.103,204.497 L120.762,204.697 L122.42,204.896 L124.093,205.088 L125.767,205.279 L127.456,205.461 L129.145,205.643 L130.849,205.815 L132.553,205.988 L134.271,206.152 L135.989,206.316 L137.722,206.47 L139.454,206.625 L141.201,206.77 L142.947,206.916 L144.706,207.052 L146.465,207.189 L148.237,207.317 L150.009,207.444 L151.795,207.562 L153.58,207.68 L155.376,207.79 L157.172,207.9 L158.98,208 L160.789,208.101 L162.609,208.192 L164.429,208.283 L166.258,208.366 L168.089,208.449 L169.929,208.523 L171.77,208.596 L173.622,208.661 L175.472,208.725 L177.332,208.781 L179.192,208.837 L181.062,208.884 L182.932,208.931 L184.81,208.969 L186.689,209.006 L188.575,209.036 L190.462,209.065 L192.357,209.086 L194.251,209.107 L196.154,209.119 L198.056,209.13 L199.965,209.134 L201.874,209.137 L203.791,209.132 L205.707,209.126 L207.63,209.111 L209.554,209.096 L211.486,209.069 L213.414,209.042 L215.341,209.015 L217.275,208.987 L219.22,208.942 L221.158,208.897 L223.097,208.852 L225.041,208.806 L226.995,208.743 L228.942,208.679 L230.889,208.616 L232.842,208.553 L234.802,208.473 L236.756,208.393 L238.709,208.314 L240.669,208.234 L242.635,208.137 L244.594,208.039 L246.553,207.942 L248.519,207.845 L250.488,207.729 L252.451,207.614 L254.414,207.499 L256.383,207.384 L258.354,207.252 L260.319,207.121 L262.284,206.989 L264.255,206.858 L266.227,206.708 L268.193,206.559 L270.158,206.41 L272.13,206.26 L274.1,206.093 L276.064,205.926 L278.029,205.759 L279.998,205.591 L281.966,205.408 L283.927,205.225 L285.889,205.042 L287.857,204.858 L289.82,204.657 L291.777,204.457 L293.734,204.257 L295.697,204.056 L297.654,203.837 L299.605,203.619 L301.555,203.402 L303.512,203.183 L305.461,202.948 L307.404,202.714 L309.348,202.48 L311.297,202.246 L313.238,201.993 L315.171,201.742 L317.105,201.49 L319.045,201.238 L320.974,200.968 L322.896,200.699 L324.818,200.43 L326.747,200.16 L328.663,199.874 L330.573,199.59 L332.484,199.305 L334.401,199.019 L336.303,198.715 L338.199,198.413 L340.094,198.111 L341.997,197.807 L343.883,197.486 L345.762,197.167 L347.641,196.847 L349.525,196.526 L351.397,196.194 L353.267,195.862 L355.128,195.521 L356.989,195.18 L358.84,194.831 L360.691,194.481 L362.532,194.124 L364.374,193.766 L366.205,193.4 L368.036,193.034 L369.855,192.659 L371.675,192.285 L373.484,191.902 L375.293,191.52 L377.091,191.129 L378.888,190.737 L380.673,190.337 L382.457,189.937 L384.23,189.529 L386.003,189.121 L387.763,188.705 L389.523,188.288 L391.269,187.863 L393.015,187.438 L394.748,187.005 L396.482,186.572 L398.201,186.13 L399.92,185.689 L401.624,185.239 L403.327,184.789 L405.017,184.331 L406.707,183.873 L408.381,183.406 L410.056,182.94 L411.714,182.465 L413.371,181.99 L415.014,181.507 L416.657,181.024 L418.283,180.533 L419.909,180.042 L421.518,179.542 L423.125,179.042 L424.717,178.535 L426.31,178.027 L427.883,177.511 L429.457,176.994 L431.013,176.469 L432.567,175.944 L434.105,175.412 L435.643,174.879 L437.161,174.337 L438.679,173.796 L440.177,173.246 L441.675,172.697 L443.154,172.14 L444.634,171.582 L446.093,171.016 L447.552,170.45 L448.99,169.876 L450.427,169.301 L451.845,168.72 L453.263,168.137 L454.659,167.547 L456.056,166.956 L457.429,166.357 L458.802,165.758 L460.154,165.152 L461.508,164.545 L462.837,163.929 L464.167,163.314 L465.473,162.69 L466.778,162.067 L468.061,161.436 L469.345,160.804 L470.604,160.164 L471.864,159.524 L473.098,158.875 L474.332,158.227 L475.543,157.571 L476.754,156.914 L477.939,156.249 L479.125,155.584 L480.284,154.911 L481.443,154.238 L482.577,153.557 L483.712,152.875 L484.821,152.186 L485.929,151.496 L487.009,150.797 L488.089,150.1 L489.143,149.394 L490.199,148.688 L491.226,147.973 L492.253,147.258 L493.251,146.535 L494.248,145.812 L495.219,145.081 L496.191,144.35 L497.133,143.61 L498.076,142.87 L498.988,142.121 L499.899,141.373 L500.782,140.618 L501.667,139.861 L502.521,139.095 L503.375,138.33 L504.197,137.556 L505.018,136.782 L505.811,136.001 L506.604,135.219 L507.366,134.428 L508.127,133.636 L508.856,132.837 L509.583,132.038 L510.28,131.231 L510.979,130.422 L511.644,129.605 L512.309,128.788 L512.94,127.962 L513.569,127.137 L514.167,126.304 L514.771,125.463 L515.895,123.782 L516.952,122.079 L517.942,120.359 L518.861,118.62 L519.704,116.864 L520.479,115.092 L521.178,113.3 L521.8,111.493 L522.35,109.67 L522.821,107.828 L523.211,105.971 L523.526,104.099 L523.76,102.208 L523.911,100.303 L523.984,98.385 L523.973,96.448 L523.876,94.499 L523.7,92.537 L523.437,90.558 L523.086,88.567 L522.657,86.572 L522.394,85.554 L522.133,84.544 L521.828,83.527 L521.524,82.515 L521.18,81.493 L520.836,80.471 L520.46,79.462 L520.083,78.453 L519.675,77.458 L519.268,76.465 L518.831,75.485 L518.394,74.502 L517.926,73.534 L517.457,72.565 L516.958,71.61 L516.46,70.657 L515.934,69.716 L515.407,68.774 L514.85,67.846 L514.293,66.918 L513.707,66.003 L513.121,65.09 L512.509,64.189 L511.896,63.287 L511.254,62.399 L510.612,61.511 L509.942,60.636 L509.273,59.763 L508.578,58.902 L507.882,58.04 L507.159,57.192 L506.435,56.344 L505.684,55.509 L504.935,54.676 L504.161,53.855 L503.385,53.033 L502.584,52.224 L501.782,51.416 L500.955,50.621 L500.128,49.827 L499.278,49.046 L498.427,48.263 L497.55,47.494 L496.674,46.725 L495.773,45.97 L494.873,45.215 L493.95,44.472 L493.027,43.729 L492.079,42.999 L491.132,42.269 L490.16,41.552 L489.19,40.836 L488.198,40.132 L487.205,39.428 L486.189,38.736 L485.173,38.045 L484.134,37.367 L483.096,36.69 L482.038,36.024 L480.979,35.358 L479.898,34.705 L478.817,34.053 L477.714,33.413 L476.612,32.774 L475.491,32.147 L474.369,31.519 L473.226,30.904 L472.082,30.29 L470.919,29.688 L469.756,29.087 L468.574,28.497 L467.393,27.908 L466.19,27.331 L464.988,26.754 L463.767,26.19 L462.546,25.627 L461.308,25.075 L460.069,24.523 L458.811,23.984 L457.553,23.445 L456.277,22.918 L455.001,22.392 L453.709,21.878 L452.417,21.363 L451.106,20.861 L449.796,20.359 L448.468,19.87 L447.141,19.381 L445.798,18.903 L444.455,18.426 L443.094,17.961 L441.734,17.496 L440.358,17.044 L438.982,16.592 L437.592,16.151 L436.201,15.71 L434.794,15.282 L433.387,14.854 L431.965,14.439 L430.544,14.023 L429.109,13.62 L427.674,13.216 L426.223,12.824 L424.773,12.433 L423.309,12.054 L421.845,11.675 L420.368,11.308 L418.891,10.94 L417.401,10.585 L415.91,10.23 L414.406,9.888 L412.903,9.545 L411.388,9.214 L409.873,8.883 L408.344,8.564 L406.817,8.245 L405.277,7.939 L403.737,7.633 L402.187,7.337 L400.636,7.042 L399.074,6.759 L397.511,6.476 L395.938,6.206 L394.365,5.935 L392.783,5.676 L391.2,5.417 L389.606,5.17 L388.013,4.923 L386.41,4.688 L384.807,4.453 L383.195,4.23 L381.583,4.006 L379.961,3.795 L378.34,3.584 L376.709,3.385 L375.079,3.186 L373.441,2.998 L371.803,2.81 L370.156,2.634 L368.51,2.458 L366.855,2.295 L365.201,2.131 L363.54,1.979 L361.879,1.826 L360.211,1.686 L358.542,1.545 L356.867,1.417 L355.192,1.289 L353.511,1.172 L351.83,1.055 L350.143,0.949 L348.455,0.844 L346.762,0.751 L345.069,0.658 L343.372,0.576 L341.674,0.494 L339.97,0.424 L338.267,0.354 L336.56,0.296 L334.852,0.238 L333.141,0.19 L331.429,0.143 L329.713,0.108 L327.997,0.073 L326.278,0.049 L324.559,0.026 L322.837,0.014 L321.114,0 L319.389,0 L317.663,0 L315.935,0.012 L314.208,0.023 L312.478,0.045 L310.748,0.068 L309.016,0.102 L307.284,0.136 L305.551,0.182 L303.818,0.228 L302.084,0.285 L300.349,0.342 L298.614,0.41 L296.879,0.479 L295.143,0.559 L293.408,0.64 L291.672,0.731 L289.936,0.822 L288.201,0.925 L286.465,1.028 L284.73,1.142 L282.996,1.257 L281.262,1.382 L279.528,1.508 L277.795,1.645 L276.062,1.782 L274.331,1.93 L272.6,2.079 L270.871,2.238 L269.142,2.397 L267.415,2.568 L265.688,2.739 L263.964,2.922 L262.24,3.105 L260.519,3.298 L258.798,3.492 L257.08,3.697 L255.362,3.902 L253.648,4.119 L251.935,4.335 L250.225,4.563 L248.514,4.79 L246.808,5.029 L245.102,5.267 L243.402,5.518 L241.701,5.768 L240.005,6.029 L238.309,6.289 L236.618,6.562 L234.928,6.834 L233.243,7.118 L231.559,7.402 L229.88,7.696 L228.201,7.99 L226.529,8.296 L224.856,8.601 L223.191,8.918 L221.526,9.235 L219.868,9.563 L218.209,9.89 L216.558,10.229 L214.907,10.568 L213.264,10.919 L211.622,11.269 L209.987,11.63 L208.352,11.991 L206.725,12.363 L205.099,12.735 L203.481,13.118 L201.864,13.502 L200.256,13.896 L198.647,14.289 L197.049,14.694 L195.449,15.1 L193.861,15.516 L192.272,15.932 L190.694,16.359 L189.114,16.785 L187.546,17.223 L185.978,17.661 L184.421,18.11 L182.864,18.559 L181.318,19.019 L179.772,19.478 L178.237,19.949 L176.703,20.419 L175.18,20.901 L173.658,21.383 L172.148,21.875 L170.637,22.367 L169.14,22.87 L167.642,23.373 L166.158,23.887 L164.674,24.401 L163.202,24.926 L161.73,25.45 L160.273,25.986 L158.815,26.521 L157.371,27.068 L155.928,27.615 L154.499,28.171 L153.069,28.728 L151.654,29.296 L150.239,29.864 L148.84,30.443 L147.441,31.022 L146.057,31.61 L144.672,32.2 L143.303,32.8 L141.934,33.4 L140.582,34.011 L139.23,34.622 L137.894,35.243 L136.557,35.864 L135.238,36.496 L133.918,37.129 L132.616,37.772 L131.315,38.415 L130.03,39.068 L128.744,39.721 L127.477,40.385 L126.21,41.049 L124.961,41.725 L123.713,42.399 L122.482,43.084 L121.25,43.769 L120.039,44.465 L118.826,45.161 L117.634,45.868 L116.442,46.574 L115.269,47.291 L114.095,48.008 L112.941,48.736 L111.788,49.464 L110.655,50.202 L109.523,50.941 L108.41,51.689 L107.296,52.438 L106.204,53.197 L105.112,53.957 L104.042,54.728 L102.972,55.498 L101.923,56.278 L100.873,57.058 L99.846,57.85 L98.818,58.641 L97.814,59.444 L96.81,60.246 L95.828,61.057 L94.844,61.87 L93.885,62.693 L92.925,63.516 L91.99,64.35 L91.055,65.184 L90.143,66.027 L89.229,66.871 L88.341,67.726 L87.452,68.581 L86.589,69.447 L85.726,70.312 L84.887,71.187 L84.047,72.062 L83.232,72.949 L82.418,73.835 L81.63,74.733 L80.842,75.629 L80.079,76.536 L79.315,77.443 L78.578,78.361 L77.841,79.279 L77.132,80.208 L76.423,81.137 L75.739,82.074 L75.055,83.013 L74.399,83.963 L73.743,84.913 L73.115,85.874 L72.488,86.833 L71.887,87.802 L71.286,88.773 L70.714,89.754 L70.142,90.736 L69.6,91.727 L69.058,92.718 L68.544,93.719 L68.029,94.721 L67.544,95.733 L67.06,96.746 L66.606,97.769 L66.153,98.791 L65.728,99.822 L65.303,100.855 L64.91,101.899 L64.516,102.943 L64.154,103.997 L63.793,105.049 L63.462,106.111 L63.13,107.175 L62.831,108.249 L62.531,109.323 L62.265,110.408 L61.999,111.491 L61.764,112.583 L61.528,113.677 L61.326,114.781 L61.125,115.886 L60.957,117 L60.79,118.113 L60.654,119.235 L60.518,120.359 L60.417,121.492 L60.316,122.626 L60.251,123.77 L60.185,124.912 L60.152,126.063 L60.119,127.216 L60.122,128.379 L60.125,129.542 L60.165,130.715 L60.204,131.884 L60.264,132.859 L60.354,133.826 L60.473,134.781 L60.619,135.728 L60.794,136.668 L60.998,137.596 L61.227,138.516 L61.486,139.427 L61.773,140.328 L62.084,141.22 L62.425,142.103 L62.792,142.976 L63.184,143.839 L63.604,144.694 L64.05,145.537 L64.52,146.372 L65.018,147.198 L65.54,148.013 L66.086,148.818 L66.659,149.616 L67.256,150.402 L67.876,151.179 L68.521,151.947 L69.191,152.705 L69.882,153.454 L70.599,154.194 L71.339,154.923 L72.1,155.644 L72.886,156.356 L73.694,157.058 L74.523,157.752 L75.376,158.436 L76.251,159.111 L77.146,159.778 L78.065,160.435 L79.005,161.084 L79.964,161.723 L80.947,162.355 L81.95,162.977 L82.973,163.591 L84.017,164.196 L85.085,164.794 L86.175,165.377 L87.268,165.961 L88.404,166.529 L89.539,167.096 L90.714,167.646 L91.888,168.196 L93.098,168.73 L94.309,169.265 L95.56,169.783 L96.81,170.301 L98.098,170.802 L99.385,171.303 L100.707,171.789 L102.029,172.276 L103.389,172.746 L104.748,173.216 L106.144,173.669 L107.538,174.123 L108.965,174.562 L110.393,175.001 L111.856,175.424 L113.318,175.848 L114.815,176.255 L116.31,176.663 L117.837,177.055 L119.363,177.448 L120.923,177.826 L122.483,178.203 L124.074,178.566 L125.665,178.928 L127.285,179.276 L128.905,179.624 L130.555,179.957 L132.206,180.29 L133.886,180.608 L135.566,180.925 L137.273,181.23 L138.98,181.534 L140.715,181.823 L142.451,182.113 L144.214,182.387 L145.977,182.662 L147.764,182.923 L149.552,183.185 L151.366,183.432 L153.18,183.678 L155.02,183.911 L156.86,184.143 L158.722,184.363 L160.584,184.582 L162.471,184.787 L164.358,184.992 L166.268,185.183 L168.178,185.374 L170.109,185.552 L172.04,185.73 L173.993,185.894 L175.947,186.059 L177.921,186.209 L179.896,186.359 L181.889,186.497 L183.881,186.635 L184.891,186.698 L185.896,186.76 L186.9,186.822 L187.909,186.884 L188.927,186.94 L189.942,186.995 L190.956,187.05 L191.974,187.106 L193.001,187.155 L194.024,187.205 L195.046,187.254 L196.073,187.303 L197.109,187.346 L198.141,187.389 L199.173,187.431 L200.208,187.474 L201.252,187.51 L202.293,187.547 L203.333,187.583 L204.377,187.619 L205.428,187.649 L206.476,187.679 L207.524,187.709 L208.576,187.74 L209.635,187.764 L210.691,187.787 L211.747,187.811 L212.806,187.835 L213.873,187.852 L214.937,187.869 L216,187.886 L217.067,187.903 L218.14,187.915 L219.21,187.926 L220.279,187.937 L221.353,187.949 L222.433,187.954 L223.51,187.959 L224.587,187.964 L225.667,187.969 L226.753,187.968 L227.836,187.967 L228.92,187.965 L230.006,187.964 L231.097,187.957 L232.186,187.951 L233.275,187.944 L234.367,187.937 L235.465,187.924 L236.559,187.911 L237.654,187.898 L238.751,187.885 L239.854,187.865 L240.955,187.846 L242.054,187.827 L243.157,187.808 L244.264,187.783 L245.369,187.758 L246.473,187.734 L247.581,187.709 L248.693,187.678 L249.802,187.647 L250.912,187.617 L252.024,187.586 L253.14,187.549 L254.254,187.513 L255.367,187.476 L256.483,187.439 L257.603,187.397 L258.72,187.355 L259.837,187.313 L260.957,187.271 L262.081,187.223 L263.201,187.175 L264.322,187.127 L265.446,187.079 L266.572,187.025 L267.696,186.971 L268.82,186.917 L269.947,186.863 L271.076,186.804 L272.202,186.745 L273.329,186.686 L274.458,186.627 L275.59,186.562 L276.719,186.497 L277.848,186.433 L278.98,186.368 L280.114,186.297 L281.245,186.227 L282.377,186.156 L283.51,186.086 L284.645,186.01 L285.779,185.935 L286.911,185.859 L288.047,185.784 L289.184,185.702 L290.318,185.621 L291.453,185.54 L292.59,185.459 L293.727,185.372 L294.863,185.286 L295.998,185.199 L297.137,185.112 L298.277,185.018 L299.414,184.924 L300.55,184.83 L301.686,184.736 L302.822,184.642 L303.959,184.548 L305.095,184.454 L306.236,184.359 L307.378,184.254 L308.514,184.149 L309.651,184.044 L310.787,183.94 L311.923,183.835 L313.06,183.73 L314.196,183.625 L315.338,183.52 L316.477,183.404 L317.612,183.289 L318.747,183.174 L319.882,183.058 L321.017,182.943 L322.152,182.828 L323.287,182.713 L324.426,182.597 L325.563,182.472 L326.695,182.347 L327.828,182.222 L328.96,182.098 L330.092,181.973 L331.225,181.848 L332.357,181.723 L333.494,181.598 L334.627,181.463 L335.756,181.328 L336.884,181.193 L338.012,181.058 L339.14,180.924 L340.268,180.789 L341.396,180.654 L342.529,180.518 L343.656,180.373 L344.779,180.228 L345.901,180.084 L347.023,179.939 L348.146,179.794 L349.268,179.649 L350.391,179.505 L351.516,179.359 L352.637,179.208 L353.755,179.056 L354.873,178.905 L355.992,178.753 L357.109,178.597 L358.222,178.441 L359.336,178.285 L360.452,178.129 L361.564,177.967 L362.674,177.807 L363.783,177.646 L364.895,177.485 L366.002,177.32 L367.108,177.155 L368.213,176.99 L369.321,176.824 L370.423,176.654 L371.523,176.484 L372.623,176.315 L373.726,176.145 L374.824,175.97 L375.918,175.796 L377.013,175.621 L378.111,175.447 L379.202,175.268 L380.292,175.089 L381.382,174.911 L382.474,174.732 L383.56,174.549 L384.643,174.366 L385.727,174.183 L386.813,173.999 L387.893,173.812 L388.97,173.624 L390.047,173.437 L391.127,173.249 L392.2,173.057 L393.271,172.866 L394.342,172.674 L395.415,172.482 L396.482,172.286 L397.546,172.09 L398.609,171.894 L399.676,171.698 L400.735,171.497 L401.791,171.297 L402.847,171.097 L403.906,170.897 L404.957,170.692 L406.007,170.488 L407.056,170.284 L408.108,170.08 L409.151,169.871 L410.192,169.663 L411.233,169.455 L412.277,169.247 L413.312,169.034 L414.344,168.821 L415.376,168.609 L416.411,168.396 L417.438,168.18 L418.462,167.964 L419.486,167.748 L420.513,167.531 L421.531,167.31 L422.546,167.09 L423.56,166.87 L424.578,166.65 L425.586,166.425 L426.591,166.201 L427.597,165.977 L428.605,165.752 L429.603,165.524 L430.6,165.296 L431.596,165.068 L432.595,164.84 L433.583,164.608 L434.569,164.376 L435.555,164.144 L436.543,163.912 L437.521,163.676 L438.497,163.44 L439.471,163.205 L440.45,162.968 L442.382,162.49 L444.315,162.011 L446.225,161.525 L448.135,161.039 L450.021,160.545 L451.907,160.051 L453.771,159.551 L455.636,159.051 L457.475,158.543 L459.315,158.036 L461.129,157.521 L462.942,157.006 L464.731,156.485 L466.521,155.964 L468.284,155.436 L470.047,154.907 L471.781,154.372 L473.516,153.837 L475.225,153.296 L476.933,152.755 L478.613,152.207 L480.293,151.659 L481.942,151.104 L483.592,150.549 L485.213,149.989 L486.835,149.428 L488.425,148.861 L490.016,148.294 L491.574,147.721 L493.133,147.148 L494.661,146.569 L496.189,145.989 L497.684,145.402 L499.179,144.816 L500.639,144.223 L502.099,143.631 L503.527,143.033 L504.956,142.435 L506.349,141.832 L507.742,141.228 L509.099,140.618 L510.456,140.008 L511.778,139.394 L513.102,138.779 L514.387,138.158 L515.673,137.538 L516.92,136.912 L518.166,136.286 L519.377,135.655 L520.589,135.024 L521.76,134.387 L522.933,133.751 L524.064,133.109 L525.195,132.467 L526.288,131.821 L527.382,131.174 L528.434,130.522 L529.486,129.869 L530.495,129.212 L531.504,128.555 L532.473,127.894 L533.444,127.231 L534.37,126.564 L535.296,125.896 L536.178,125.224 L537.058,124.552 L537.898,123.875 L538.738,123.197 L539.532,122.515 L540.331,121.828 L541.814,120.462 L542.534,119.765 L543.226,119.071 L543.892,118.374 L544.536,117.675 L545.156,116.973 L545.751,116.268 L546.323,115.562 L546.871,114.851 L547.393,114.139 L547.891,113.424 L548.364,112.705 L548.811,111.985 L549.233,111.262 L549.63,110.534 L549.999,109.806 L550.343,109.075 L550.661,108.339 L550.95,107.603 L551.214,106.863 L551.45,106.12 L551.657,105.376 L551.839,104.629 L551.991,103.879 L552.113,103.128 L552.209,102.376 L552.276,101.619 L552.311,100.863 L552.32,100.105 L552.298,99.345 L552.245,98.585 L552.165,97.824 L552.053,97.06 L551.91,96.298 L551.739,95.536 L551.537,94.771 L551.304,94.008 L551.042,93.245 L550.748,92.48 L550.423,91.717 L550.069,90.955 L549.683,90.191 L549.266,89.429 L548.82,88.667 L548.341,87.904 L547.831,87.142 L547.291,86.381 L546.719,85.62 L546.115,84.859 L545.481,84.099 L544.814,83.338 L544.115,82.578 L543.386,81.818 L542.623,81.058 L541.829,80.298 L541.003,79.538 L540.144,78.778 L539.251,78.018 L538.327,77.259 L537.369,76.499 L536.377,75.739 L535.354,74.98 L534.295,74.22 L533.203,73.46 L532.078,72.701 L530.917,71.941 L529.722,71.182 L528.495,70.422 L527.231,69.662 L525.932,68.903 L524.6,68.143 L523.231,67.384 L521.826,66.624 L520.387,65.865 L518.912,65.106 L517.4,64.346 L515.853,63.587 L514.269,62.828 L512.648,62.069 L510.993,61.31 L509.299,60.551 L507.567,59.792 L505.801,59.034 L503.995,58.275 L502.152,57.518 L501.212,57.138 L500.272,56.759 L499.313,56.38 L498.354,56.001 L497.375,55.622 L496.396,55.243 L495.4,54.864 L494.403,54.485 L493.386,54.107 L492.37,53.728 L491.333,53.349 L490.299,52.972 L489.104,52.538 L487.911,52.105 L486.718,51.672 L485.525,51.239 L484.327,50.801 L483.127,50.363 L481.928,49.925 L480.729,49.487 L479.524,49.046 L478.319,48.604 L477.114,48.162 L475.909,47.72 L474.699,47.276 L473.489,46.831 L472.279,46.386 L471.07,45.942 L469.855,45.495 L468.64,45.047 L467.425,44.6 L466.21,44.153 L464.991,43.704 L463.772,43.255 L462.552,42.806 L461.333,42.357 L460.108,41.907 L458.884,41.458 L457.659,41.008 L456.435,40.558 L455.211,40.108 L453.986,39.658 L452.762,39.208 L451.537,38.758 L450.305,38.308 L449.075,37.859 L447.844,37.41 L446.613,36.961 L445.383,36.512 L444.152,36.063 L442.922,35.614 L441.69,35.165 L440.453,34.72 L439.218,34.275 L437.984,33.83 L436.749,33.385 L435.514,32.941 L434.279,32.496 L433.045,32.051 L431.808,31.606 L430.569,31.167 L429.332,30.728 L428.095,30.29 L426.858,29.852 L425.621,29.414 L424.384,28.976 L423.147,28.537 L421.907,28.098 L420.666,27.669 L419.429,27.24 L418.191,26.812 L416.953,26.384 L415.715,25.956 L414.477,25.527 L413.24,25.099 L411.998,24.67 L410.758,24.253 L409.521,23.838 L408.285,23.423 L407.049,23.008 L405.812,22.593 L404.575,22.178 L403.339,21.763 L402.1,21.347 L400.862,20.941 L399.627,20.537 L398.393,20.133 L397.155,19.727 L395.92,19.331 L394.687,18.935 L393.454,18.54 L392.219,18.143 L390.986,17.757 L389.756,17.371 L388.525,16.985 L387.292,16.598 L386.061,16.22 L384.834,15.844 L383.606,15.467 L382.375,15.089 L381.147,14.723 L379.923,14.357 L378.698,13.992 L377.47,13.625 L376.246,13.271 L375.025,12.917 L373.804,12.563 L372.578,12.208 L370.925,11.747 L369.269,11.285 L367.625,10.851 L365.981,10.416 L364.348,10.009 L362.715,9.602 L361.092,9.22 L359.468,8.837 L357.855,8.482 L356.242,8.127 L354.638,7.799 L353.035,7.471 L351.441,7.168 L349.846,6.864 L348.259,6.588 L346.674,6.311 L345.096,6.061 L343.519,5.812 L341.95,5.587 L340.38,5.361 L338.818,5.163 L337.255,4.964 L335.701,4.792 L334.146,4.62 L332.599,4.472 L331.05,4.324 L329.508,4.203 L327.966,4.081 L326.431,3.986 L324.895,3.891 L323.366,3.82 L321.835,3.749 L320.31,3.704 L318.785,3.659 L317.265,3.64 L315.746,3.621 L314.23,3.625 L312.715,3.63 L311.203,3.661 L309.691,3.691 L308.184,3.748 L306.676,3.804 L305.172,3.884 L303.668,3.964 L302.166,4.069 L300.664,4.174 L299.165,4.305 L297.667,4.436 L296.17,4.59 L294.673,4.745 L293.178,4.924 L291.683,5.104 L290.189,5.308 L288.696,5.513 L287.204,5.74 L285.711,5.968 L284.219,6.221 L282.727,6.474 L281.235,6.751 L279.743,7.029 L278.252,7.329 L276.76,7.629 L275.267,7.955 L273.774,8.28 L272.281,8.629 L270.788,8.979 L269.293,9.351 L267.799,9.723 L266.302,10.12 L264.805,10.517 L263.307,10.938 L261.809,11.359 L260.308,11.802 L258.807,12.245 L257.303,12.712 L255.799,13.18 L254.291,13.671 L252.784,14.162 L251.274,14.676 L249.763,15.189 L248.248,15.726 L246.733,16.263 L245.213,16.825 L243.694,17.385 L242.17,17.968 L240.646,18.551 L239.116,19.157 L237.587,19.763 L236.051,20.393 L234.517,21.023 L232.976,21.674 L231.435,22.325 L229.887,22.999 L228.339,23.674 L226.784,24.371 L225.234,25.067 C224.813,25.256 224.626,25.75 224.814,26.17 C225.003,26.59 225.497,26.778 225.917,26.589 L227.467,25.894 L229.014,25.2 L230.553,24.529 L232.093,23.858 L233.625,23.211 L235.158,22.563 L236.685,21.937 L238.211,21.311 L239.731,20.709 L241.252,20.106 L242.766,19.527 L244.281,18.948 L245.791,18.391 L247.301,17.833 L248.806,17.3 L250.31,16.766 L251.811,16.257 L253.312,15.747 L254.809,15.259 L256.305,14.771 L257.798,14.307 L259.291,13.843 L260.781,13.404 L262.271,12.964 L263.758,12.546 L265.245,12.128 L266.73,11.735 L268.214,11.341 L269.697,10.972 L271.18,10.603 L272.662,10.256 L274.143,9.909 L275.623,9.587 L277.102,9.265 L278.581,8.967 L280.061,8.67 L281.54,8.394 L283.019,8.119 L284.498,7.869 L285.977,7.618 L287.456,7.393 L288.935,7.167 L290.416,6.964 L291.896,6.762 L293.377,6.584 L294.859,6.406 L296.341,6.254 L297.825,6.101 L299.311,5.971 L300.796,5.841 L302.283,5.737 L303.77,5.633 L305.261,5.554 L306.752,5.475 L308.246,5.419 L309.739,5.363 L311.237,5.333 L312.734,5.303 L314.236,5.298 L315.738,5.294 L317.244,5.313 L318.75,5.331 L320.261,5.376 L321.771,5.421 L323.288,5.491 L324.805,5.562 L326.327,5.657 L327.849,5.751 L329.377,5.871 L330.904,5.992 L332.439,6.138 L333.975,6.285 L335.517,6.456 L337.058,6.626 L338.606,6.823 L340.155,7.02 L341.712,7.244 L343.269,7.467 L344.834,7.715 L346.399,7.963 L347.972,8.237 L349.545,8.512 L351.128,8.813 L352.711,9.114 L354.302,9.44 L355.893,9.765 L357.495,10.118 L359.096,10.471 L360.708,10.85 L362.32,11.23 L363.942,11.635 L365.564,12.039 L367.197,12.471 L368.83,12.903 L370.474,13.362 L372.121,13.822 L373.337,14.174 L374.558,14.528 L375.779,14.882 L376.996,15.236 L378.217,15.601 L379.442,15.967 L380.666,16.332 L381.888,16.697 L383.113,17.074 L384.341,17.45 L385.568,17.827 L386.794,18.204 L388.021,18.589 L389.252,18.976 L390.482,19.362 L391.71,19.747 L392.94,20.142 L394.173,20.538 L395.405,20.934 L396.636,21.33 L397.868,21.733 L399.102,22.138 L400.337,22.543 L401.569,22.947 L402.802,23.361 L404.039,23.777 L405.275,24.192 L406.511,24.607 L407.748,25.023 L408.984,25.438 L410.221,25.854 L411.453,26.268 L412.687,26.695 L413.925,27.124 L415.162,27.553 L416.4,27.982 L417.637,28.411 L418.875,28.839 L420.112,29.268 L421.347,29.696 L422.581,30.134 L423.818,30.572 L425.055,31.011 L426.291,31.45 L427.528,31.889 L428.765,32.328 L430.002,32.766 L431.237,33.204 L432.469,33.649 L433.704,34.094 L434.938,34.539 L436.173,34.985 L437.407,35.43 L438.642,35.875 L439.876,36.32 L441.109,36.765 L442.338,37.214 L443.568,37.663 L444.799,38.113 L446.029,38.563 L447.259,39.012 L448.489,39.462 L449.72,39.911 L450.949,40.36 L452.173,40.81 L453.397,41.261 L454.621,41.711 L455.845,42.162 L457.069,42.612 L458.293,43.063 L459.518,43.514 L460.741,43.964 L461.96,44.414 L463.179,44.864 L464.398,45.313 L465.617,45.763 L466.831,46.211 L468.046,46.659 L469.261,47.107 L470.476,47.555 L471.685,48.001 L472.895,48.446 L474.105,48.892 L475.315,49.337 L476.52,49.78 L477.725,50.223 L478.93,50.665 L480.135,51.108 L481.335,51.547 L482.534,51.986 L483.733,52.424 L484.933,52.863 L486.127,53.298 L487.32,53.732 L488.513,54.166 L489.705,54.599 L490.738,54.977 L491.769,55.355 L492.78,55.732 L493.791,56.109 L494.783,56.487 L495.774,56.864 L496.747,57.242 L497.72,57.619 L498.674,57.997 L499.627,58.374 L500.56,58.752 L501.493,59.129 L503.326,59.884 L505.118,60.64 L506.871,61.395 L508.59,62.15 L510.269,62.904 L511.911,63.659 L513.518,64.413 L515.086,65.167 L516.617,65.921 L518.113,66.674 L519.572,67.427 L520.994,68.18 L522.382,68.932 L523.732,69.683 L525.047,70.434 L526.327,71.185 L527.571,71.935 L528.779,72.684 L529.955,73.432 L531.093,74.18 L532.197,74.927 L533.268,75.673 L534.303,76.418 L535.304,77.162 L536.272,77.905 L537.206,78.647 L538.104,79.388 L538.972,80.128 L539.805,80.866 L540.604,81.603 L541.372,82.339 L542.106,83.072 L542.806,83.805 L543.476,84.537 L544.112,85.266 L544.716,85.994 L545.29,86.721 L545.832,87.444 L546.341,88.167 L546.821,88.887 L547.269,89.604 L547.686,90.321 L548.075,91.035 L548.432,91.745 L548.759,92.455 L549.059,93.163 L549.328,93.866 L549.567,94.569 L549.78,95.27 L549.963,95.968 L550.117,96.665 L550.246,97.36 L550.345,98.051 L550.417,98.743 L550.463,99.433 L550.481,100.12 L550.472,100.807 L550.438,101.493 L550.376,102.177 L550.288,102.861 L550.174,103.544 L550.034,104.225 L549.867,104.907 L549.676,105.589 L549.458,106.269 L549.213,106.949 L548.944,107.629 L548.649,108.308 L548.327,108.987 L547.982,109.666 L547.611,110.343 L547.212,111.02 L546.791,111.697 L546.344,112.373 L545.871,113.048 L545.374,113.723 L544.852,114.396 L544.305,115.07 L543.735,115.742 L543.14,116.412 L542.519,117.082 L541.876,117.751 L541.209,118.418 L540.523,119.079 L539.064,120.417 L538.296,121.074 L537.523,121.735 L536.704,122.392 L535.884,123.051 L535.022,123.706 L534.16,124.361 L533.254,125.012 L532.346,125.663 L531.394,126.31 L530.442,126.958 L529.449,127.602 L528.456,128.246 L527.421,128.885 L526.385,129.525 L525.307,130.159 L524.228,130.795 L523.111,131.426 L521.994,132.057 L520.837,132.683 L519.679,133.31 L518.481,133.931 L517.282,134.553 L516.047,135.17 L514.813,135.787 L513.539,136.399 L512.266,137.01 L510.954,137.617 L509.642,138.224 L508.296,138.826 L506.95,139.428 L505.568,140.024 L504.185,140.62 L502.766,141.211 L501.347,141.802 L499.896,142.387 L498.445,142.973 L496.96,143.553 L495.474,144.132 L493.956,144.707 L492.436,145.282 L490.887,145.852 L489.338,146.421 L487.757,146.985 L486.175,147.548 L484.562,148.105 L482.949,148.663 L481.307,149.214 L479.666,149.766 L477.995,150.311 L476.323,150.856 L474.622,151.394 L472.921,151.933 L471.193,152.465 L469.466,152.998 L467.711,153.523 L465.956,154.049 L464.173,154.568 L462.39,155.087 L460.583,155.599 L458.777,156.112 L456.944,156.617 L455.111,157.122 L453.254,157.62 L451.395,158.119 L449.515,158.61 L447.635,159.102 L445.731,159.586 L443.827,160.07 L441.901,160.546 L439.973,161.023 L439.001,161.257 L438.026,161.492 L437.051,161.728 L436.079,161.962 L435.097,162.193 L434.111,162.424 L433.125,162.655 L432.142,162.886 L431.149,163.113 L430.153,163.34 L429.156,163.567 L428.163,163.794 L427.16,164.017 L426.155,164.241 L425.15,164.465 L424.147,164.688 L423.135,164.907 L422.12,165.127 L421.105,165.347 L420.093,165.566 L419.072,165.781 L418.047,165.996 L417.023,166.212 L416.001,166.427 L414.971,166.639 L413.939,166.851 L412.907,167.063 L411.877,167.274 L410.839,167.481 L409.798,167.689 L408.757,167.897 L407.718,168.104 L406.672,168.307 L405.623,168.511 L404.573,168.714 L403.527,168.917 L402.472,169.116 L401.416,169.316 L400.36,169.515 L399.306,169.715 L398.245,169.909 L397.181,170.105 L396.117,170.3 L395.055,170.495 L393.987,170.685 L392.916,170.876 L391.845,171.067 L390.776,171.257 L389.701,171.444 L388.624,171.63 L387.546,171.817 L386.472,172.004 L385.391,172.186 L384.307,172.368 L383.223,172.55 L382.142,172.732 L381.055,172.91 L379.965,173.088 L378.875,173.266 L377.788,173.443 L376.695,173.616 L375.6,173.79 L374.505,173.964 L373.412,174.137 L372.314,174.306 L371.214,174.475 L370.114,174.644 L369.016,174.813 L367.913,174.977 L366.808,175.141 L365.702,175.306 L364.599,175.47 L363.492,175.63 L362.382,175.79 L361.272,175.95 L360.165,176.11 L359.054,176.265 L357.94,176.42 L356.826,176.575 L355.715,176.73 L354.599,176.88 L353.481,177.031 L352.364,177.181 L351.249,177.331 L350.13,177.474 L349.007,177.618 L347.885,177.761 L346.762,177.905 L345.64,178.049 L344.517,178.192 L343.395,178.336 L342.277,178.479 L341.153,178.612 L340.025,178.746 L338.897,178.879 L337.768,179.013 L336.64,179.147 L335.512,179.28 L334.383,179.414 L333.26,179.547 L332.132,179.67 L331,179.794 L329.867,179.917 L328.735,180.041 L327.602,180.164 L326.47,180.288 L325.337,180.412 L324.209,180.535 L323.078,180.648 L321.943,180.762 L320.808,180.877 L319.673,180.991 L318.538,181.105 L317.403,181.219 L316.268,181.333 L315.138,181.447 L314.006,181.55 L312.869,181.654 L311.733,181.757 L310.596,181.861 L309.46,181.965 L308.323,182.068 L307.187,182.172 L306.055,182.275 L304.924,182.367 L303.787,182.46 L302.651,182.553 L301.514,182.646 L300.378,182.739 L299.241,182.832 L298.105,182.925 L296.972,183.017 L295.84,183.102 L294.704,183.188 L293.569,183.273 L292.435,183.359 L291.303,183.438 L290.169,183.518 L289.035,183.598 L287.903,183.678 L286.772,183.752 L285.639,183.827 L284.506,183.901 L283.375,183.975 L282.246,184.044 L281.115,184.113 L279.983,184.183 L278.855,184.252 L277.728,184.315 L276.599,184.379 L275.47,184.442 L274.343,184.506 L273.219,184.564 L272.092,184.621 L270.966,184.679 L269.841,184.737 L268.72,184.79 L267.596,184.842 L266.471,184.895 L265.35,184.947 L264.232,184.994 L263.111,185.041 L261.99,185.088 L260.872,185.134 L259.758,185.175 L258.641,185.216 L257.523,185.257 L256.409,185.298 L255.298,185.334 L254.184,185.369 L253.071,185.405 L251.96,185.44 L250.853,185.47 L249.744,185.5 L248.634,185.529 L247.528,185.559 L246.426,185.582 L245.322,185.606 L244.217,185.63 L243.115,185.653 L242.018,185.671 L240.918,185.689 L239.818,185.707 L238.721,185.725 L237.629,185.737 L236.535,185.749 L235.44,185.761 L234.348,185.773 L233.262,185.779 L232.174,185.785 L231.085,185.791 L229.999,185.797 L228.918,185.797 L227.835,185.797 L226.752,185.797 L225.672,185.797 L224.598,185.791 L223.521,185.785 L222.444,185.779 L221.371,185.773 L220.304,185.761 L219.234,185.748 L218.164,185.736 L217.097,185.724 L216.036,185.705 L214.973,185.687 L213.909,185.669 L212.849,185.651 L211.797,185.626 L210.741,185.602 L209.685,185.578 L208.633,185.553 L207.588,185.522 L206.54,185.491 L205.492,185.46 L204.447,185.429 L203.41,185.393 L202.37,185.356 L201.329,185.319 L200.292,185.282 L199.264,185.239 L198.232,185.196 L197.2,185.152 L196.172,185.109 L195.153,185.059 L194.13,185.009 L193.107,184.959 L192.088,184.909 L191.077,184.853 L190.063,184.797 L189.048,184.741 L188.038,184.685 L187.037,184.622 L186.032,184.56 L185.028,184.497 L184.029,184.434 L182.042,184.295 L180.057,184.156 L178.09,184.005 L176.124,183.854 L174.18,183.689 L172.235,183.524 L170.313,183.345 L168.391,183.167 L166.49,182.975 L164.589,182.784 L162.712,182.579 L160.835,182.374 L158.982,182.155 L157.13,181.936 L155.3,181.704 L153.47,181.472 L151.667,181.226 L149.863,180.98 L148.087,180.719 L146.31,180.459 L144.558,180.185 L142.806,179.912 L141.082,179.623 L139.359,179.335 L137.665,179.032 L135.97,178.73 L134.302,178.413 L132.635,178.097 L130.998,177.766 L129.361,177.436 L127.755,177.09 L126.149,176.744 L124.571,176.384 L122.995,176.025 L121.45,175.651 L119.906,175.276 L118.395,174.887 L116.884,174.497 L115.404,174.093 L113.924,173.69 L112.479,173.272 L111.034,172.854 L109.625,172.42 L108.215,171.986 L106.837,171.538 L105.461,171.09 L104.122,170.627 L102.783,170.163 L101.481,169.685 L100.179,169.206 L98.912,168.712 L97.646,168.219 L96.418,167.711 L95.192,167.202 L94.005,166.678 L92.817,166.153 L91.665,165.614 L90.516,165.076 L89.407,164.521 L88.299,163.967 L87.233,163.397 L86.163,162.825 L85.128,162.246 L84.113,161.657 L83.119,161.06 L82.145,160.456 L81.195,159.845 L80.265,159.225 L79.356,158.598 L78.471,157.964 L77.608,157.321 L76.765,156.671 L75.947,156.014 L75.151,155.348 L74.377,154.676 L73.627,153.996 L72.9,153.307 L72.195,152.612 L71.515,151.91 L70.859,151.198 L70.224,150.48 L69.615,149.755 L69.03,149.021 L68.467,148.28 L67.93,147.532 L67.417,146.775 L66.927,146.011 L66.463,145.24 L66.024,144.46 L65.607,143.672 L65.217,142.878 L64.852,142.074 L64.511,141.263 L64.195,140.444 L63.906,139.616 L63.64,138.78 L63.401,137.936 L63.188,137.083 L62.999,136.221 L62.837,135.351 L62.702,134.471 L62.591,133.583 L62.508,132.686 L62.452,131.78 L62.414,130.639 L62.375,129.501 L62.373,128.373 L62.37,127.246 L62.402,126.128 L62.434,125.009 L62.498,123.899 L62.561,122.79 L62.66,121.692 L62.757,120.594 L62.889,119.506 L63.021,118.416 L63.184,117.335 L63.346,116.255 L63.542,115.186 L63.737,114.117 L63.966,113.058 L64.194,111.997 L64.453,110.945 L64.711,109.895 L65.001,108.854 L65.291,107.814 L65.613,106.783 L65.936,105.751 L66.287,104.728 L66.638,103.707 L67.02,102.695 L67.402,101.683 L67.815,100.682 L68.228,99.678 L68.669,98.684 L69.11,97.691 L69.581,96.708 L70.051,95.725 L70.552,94.752 L71.053,93.777 L71.582,92.811 L72.109,91.847 L72.666,90.892 L73.223,89.938 L73.809,88.993 L74.395,88.047 L75.008,87.111 L75.62,86.175 L76.259,85.249 L76.9,84.323 L77.568,83.407 L78.236,82.49 L78.93,81.582 L79.623,80.675 L80.343,79.779 L81.064,78.881 L81.811,77.995 L82.559,77.107 L83.331,76.228 L84.103,75.35 L84.901,74.482 L85.699,73.614 L86.522,72.757 L87.347,71.898 L88.195,71.049 L89.042,70.2 L89.914,69.362 L90.787,68.523 L91.684,67.695 L92.582,66.866 L93.502,66.047 L94.422,65.228 L95.365,64.419 L96.309,63.611 L97.277,62.812 L98.245,62.013 L99.235,61.224 L100.224,60.434 L101.236,59.656 L102.248,58.877 L103.283,58.109 L104.319,57.34 L105.375,56.58 L106.43,55.821 L107.508,55.073 L108.585,54.324 L109.685,53.586 L110.785,52.848 L111.904,52.119 L113.022,51.39 L114.162,50.672 L115.302,49.954 L116.462,49.247 L117.623,48.539 L118.803,47.84 L119.982,47.142 L121.18,46.455 L122.379,45.768 L123.598,45.091 L124.817,44.414 L126.053,43.747 L127.289,43.08 L128.544,42.423 L129.799,41.767 L131.072,41.122 L132.346,40.476 L133.637,39.84 L134.927,39.204 L136.235,38.579 L137.542,37.954 L138.868,37.34 L140.194,36.726 L141.535,36.121 L142.875,35.517 L144.233,34.923 L145.591,34.33 L146.964,33.747 L148.339,33.164 L149.727,32.591 L151.116,32.018 L152.52,31.456 L153.924,30.894 L155.343,30.343 L156.763,29.792 L158.197,29.251 L159.63,28.71 L161.077,28.179 L162.525,27.649 L163.987,27.13 L165.449,26.611 L166.924,26.101 L168.398,25.592 L169.886,25.094 L171.373,24.596 L172.874,24.109 L174.376,23.621 L175.889,23.144 L177.402,22.667 L178.927,22.201 L180.452,21.735 L181.989,21.28 L183.526,20.825 L185.074,20.38 L186.622,19.935 L188.181,19.502 L189.74,19.068 L191.31,18.646 L192.881,18.223 L194.461,17.811 L196.041,17.398 L197.631,16.997 L199.221,16.596 L200.821,16.206 L202.421,15.816 L204.03,15.436 L205.638,15.057 L207.256,14.688 L208.874,14.32 L210.5,13.962 L212.127,13.605 L213.762,13.258 L215.396,12.911 L217.039,12.576 L218.681,12.24 L220.331,11.915 L221.982,11.591 L223.639,11.277 L225.296,10.963 L226.96,10.66 L228.624,10.357 L230.295,10.066 L231.966,9.774 L233.642,9.493 L235.319,9.212 L237.001,8.943 L238.683,8.673 L240.371,8.415 L242.06,8.157 L243.753,7.909 L245.445,7.661 L247.143,7.425 L248.841,7.189 L250.543,6.964 L252.245,6.739 L253.951,6.525 L255.657,6.311 L257.367,6.108 L259.077,5.905 L260.79,5.714 L262.503,5.523 L264.22,5.342 L265.936,5.161 L267.654,4.991 L269.373,4.822 L271.094,4.664 L272.816,4.506 L274.539,4.359 L276.262,4.211 L277.987,4.076 L279.711,3.94 L281.437,3.816 L283.164,3.692 L284.891,3.578 L286.617,3.465 L288.345,3.363 L290.072,3.262 L291.8,3.172 L293.528,3.082 L295.256,3.002 L296.983,2.923 L298.71,2.855 L300.437,2.788 L302.164,2.732 L303.89,2.676 L305.615,2.631 L307.341,2.585 L309.064,2.552 L310.788,2.519 L312.509,2.497 L314.231,2.475 L315.951,2.464 L317.671,2.454 L319.388,2.454 L321.105,2.455 L322.819,2.468 L324.533,2.481 L326.244,2.504 L327.955,2.528 L329.662,2.563 L331.369,2.599 L333.072,2.646 L334.776,2.694 L336.476,2.752 L338.175,2.81 L339.869,2.88 L341.563,2.95 L343.252,3.032 L344.942,3.115 L346.627,3.208 L348.311,3.301 L349.989,3.406 L351.667,3.511 L353.34,3.628 L355.012,3.745 L356.679,3.873 L358.345,4.001 L360.004,4.14 L361.663,4.28 L363.315,4.432 L364.967,4.584 L366.613,4.747 L368.258,4.91 L369.894,5.085 L371.531,5.26 L373.16,5.448 L374.789,5.635 L376.41,5.833 L378.03,6.031 L379.642,6.242 L381.254,6.452 L382.856,6.674 L384.458,6.897 L386.052,7.13 L387.645,7.364 L389.228,7.61 L390.811,7.855 L392.383,8.113 L393.956,8.371 L395.519,8.64 L397.082,8.909 L398.633,9.19 L400.185,9.472 L401.724,9.765 L403.264,10.059 L404.794,10.363 L406.322,10.668 L407.839,10.985 L409.355,11.302 L410.859,11.631 L412.363,11.961 L413.856,12.301 L415.348,12.642 L416.826,12.995 L418.305,13.348 L419.769,13.713 L421.234,14.078 L422.687,14.454 L424.139,14.831 L425.576,15.219 L427.013,15.608 L428.436,16.009 L429.859,16.41 L431.268,16.823 L432.677,17.235 L434.07,17.66 L435.463,18.084 L436.84,18.521 L438.218,18.958 L439.581,19.407 L440.943,19.855 L442.289,20.316 L443.634,20.777 L444.963,21.25 L446.292,21.723 L447.606,22.208 L448.919,22.692 L450.214,23.189 L451.509,23.686 L452.786,24.195 L454.064,24.705 L455.324,25.226 L456.584,25.747 L457.826,26.28 L459.067,26.813 L460.289,27.359 L461.512,27.905 L462.717,28.462 L463.922,29.019 L465.106,29.588 L466.29,30.158 L467.455,30.74 L468.62,31.322 L469.766,31.916 L470.911,32.509 L472.036,33.115 L473.16,33.72 L474.264,34.339 L475.368,34.957 L476.452,35.587 L477.535,36.217 L478.597,36.859 L479.658,37.501 L480.697,38.155 L481.737,38.81 L482.756,39.476 L483.774,40.142 L484.769,40.82 L485.765,41.499 L486.737,42.189 L487.709,42.881 L488.66,43.583 L489.61,44.285 L490.536,45 L491.462,45.714 L492.364,46.441 L493.266,47.169 L494.146,47.908 L495.025,48.647 L495.878,49.398 L496.732,50.148 L497.56,50.912 L498.389,51.676 L499.194,52.452 L499.998,53.226 L500.777,54.014 L501.555,54.801 L502.307,55.6 L503.06,56.401 L503.788,57.213 L504.515,58.023 L505.216,58.847 L505.916,59.67 L506.589,60.506 L507.262,61.343 L507.911,62.191 L508.558,63.038 L509.177,63.897 L509.797,64.757 L510.388,65.629 L510.979,66.502 L511.545,67.387 L512.11,68.27 L512.645,69.166 L513.181,70.062 L513.687,70.971 L514.195,71.88 L514.675,72.802 L515.154,73.722 L515.603,74.655 L516.053,75.587 L516.472,76.532 L516.892,77.479 L517.284,78.438 L517.675,79.395 L518.035,80.365 L518.395,81.334 L518.724,82.317 L519.054,83.3 L519.344,84.272 L519.634,85.241 L519.88,86.201 L520.125,87.152 L520.534,89.065 L520.863,90.954 L521.109,92.823 L521.272,94.679 L521.361,96.519 L521.368,98.34 L521.296,100.148 L521.152,101.941 L520.929,103.717 L520.629,105.48 L520.258,107.229 L519.812,108.961 L519.29,110.682 L518.701,112.389 L518.037,114.08 L517.3,115.759 L516.496,117.425 L515.621,119.076 L514.674,120.714 L513.662,122.34 L512.576,123.957 L512.005,124.749 L511.429,125.549 L510.821,126.342 L510.215,127.134 L509.574,127.919 L508.933,128.704 L508.259,129.481 L507.584,130.261 L506.878,131.033 L506.174,131.805 L505.436,132.568 L504.698,133.333 L503.929,134.089 L503.157,134.848 L502.357,135.599 L501.558,136.349 L500.727,137.092 L499.896,137.835 L499.034,138.57 L498.17,139.307 L497.279,140.036 L496.388,140.765 L495.467,141.486 L494.546,142.207 L493.595,142.92 L492.643,143.635 L491.664,144.342 L490.686,145.049 L489.679,145.747 L488.672,146.447 L487.636,147.138 L486.599,147.829 L485.536,148.514 L484.474,149.198 L483.384,149.875 L482.294,150.551 L481.176,151.219 L480.058,151.888 L478.915,152.55 L477.773,153.212 L476.604,153.865 L475.435,154.518 L474.24,155.164 L473.044,155.81 L471.825,156.448 L470.606,157.086 L469.362,157.717 L468.119,158.347 L466.85,158.97 L465.58,159.592 L464.288,160.208 L462.997,160.823 L461.682,161.43 L460.367,162.037 L459.028,162.636 L457.688,163.235 L456.327,163.827 L454.967,164.418 L453.584,165.002 L452.201,165.585 L450.796,166.16 L449.39,166.735 L447.964,167.303 L446.539,167.871 L445.092,168.431 L443.645,168.99 L442.177,169.541 L440.709,170.093 L439.221,170.637 L437.735,171.18 L436.228,171.716 L434.721,172.251 L433.194,172.778 L431.667,173.306 L430.122,173.825 L428.577,174.345 L427.014,174.856 L425.451,175.368 L423.869,175.871 L422.287,176.375 L420.688,176.87 L419.09,177.366 L417.474,177.853 L415.858,178.341 L414.225,178.82 L412.591,179.299 L410.942,179.77 L409.294,180.242 L407.629,180.705 L405.964,181.167 L404.284,181.622 L402.602,182.076 L400.907,182.523 L399.212,182.97 L397.502,183.408 L395.792,183.847 L394.068,184.277 L392.342,184.707 L390.604,185.129 L388.867,185.551 L387.115,185.965 L385.364,186.378 L383.599,186.783 L381.834,187.188 L380.057,187.586 L378.28,187.983 L376.491,188.373 L374.702,188.762 L372.901,189.142 L371.099,189.523 L369.287,189.896 L367.475,190.268 L365.652,190.633 L363.829,190.997 L361.995,191.352 L360.16,191.708 L358.316,192.056 L356.473,192.404 L354.619,192.743 L352.766,193.082 L350.903,193.413 L349.041,193.743 L347.167,194.061 L345.288,194.381 L343.409,194.7 L341.538,195.018 L339.649,195.319 L337.754,195.621 L335.858,195.923 L333.97,196.224 L332.067,196.507 L330.156,196.792 L328.246,197.076 L326.342,197.36 L324.426,197.627 L322.504,197.896 L320.582,198.165 L318.667,198.432 L316.74,198.683 L314.806,198.934 L312.873,199.185 L310.946,199.435 L309.009,199.668 L307.066,199.901 L305.123,200.135 L303.185,200.368 L301.241,200.584 L299.29,200.802 L297.34,201.019 L295.396,201.236 L293.445,201.435 L291.488,201.635 L289.531,201.835 L287.581,202.034 L285.626,202.216 L283.664,202.398 L281.703,202.579 L279.747,202.76 L277.789,202.925 L275.824,203.091 L273.86,203.257 L271.903,203.422 L269.943,203.569 L267.978,203.717 L266.012,203.864 L264.053,204.012 L262.094,204.141 L260.13,204.271 L258.164,204.401 L256.205,204.53 L254.248,204.644 L252.285,204.757 L250.322,204.871 L248.365,204.984 L246.413,205.08 L244.453,205.176 L242.494,205.271 L240.541,205.367 L238.594,205.444 L236.64,205.522 L234.686,205.599 L232.739,205.676 L230.798,205.737 L228.85,205.798 L226.903,205.859 L224.963,205.92 L223.031,205.963 L221.093,206.006 L219.154,206.048 L217.223,206.091 L215.302,206.116 L213.374,206.141 L211.447,206.166 L209.524,206.19 L207.609,206.203 L205.693,206.215 L203.784,206.219 L201.874,206.222 L199.972,206.216 L198.07,206.211 L196.174,206.197 L194.278,206.183 L192.391,206.16 L190.503,206.137 L188.623,206.104 L186.744,206.072 L184.872,206.031 L183.001,205.99 L181.139,205.94 L179.277,205.889 L177.424,205.83 L175.571,205.771 L173.727,205.703 L171.884,205.636 L170.051,205.559 L168.218,205.482 L166.396,205.396 L164.573,205.311 L162.761,205.216 L160.949,205.122 L159.149,205.019 L157.349,204.915 L155.561,204.803 L153.773,204.69 L151.996,204.569 L150.219,204.448 L148.456,204.318 L146.692,204.188 L144.942,204.049 L143.192,203.909 L141.454,203.762 L139.716,203.614 L137.993,203.457 L136.27,203.3 L134.562,203.134 L132.853,202.968 L131.158,202.794 L129.463,202.619 L127.784,202.435 L126.105,202.252 L124.442,202.059 L122.779,201.866 L121.13,201.664 L119.482,201.463 L117.851,201.252 L116.219,201.041 L114.605,200.821 L112.991,200.601 L111.393,200.373 L109.795,200.144 L108.216,199.906 L106.636,199.669 L105.075,199.422 L103.513,199.175 L101.969,198.919 L100.425,198.663 L98.901,198.399 L97.377,198.134 L95.873,197.86 L94.368,197.585 L92.881,197.303 L91.395,197.021 L89.93,196.729 L88.465,196.438 L87.02,196.137 L85.576,195.836 L84.151,195.527 L82.727,195.217 L81.324,194.898 L79.922,194.58 L78.542,194.252 L77.162,193.924 L75.802,193.587 L74.443,193.25 L73.108,192.905 L71.772,192.559 L70.46,192.204 L69.148,191.848 L67.857,191.484 L66.568,191.121 L65.302,190.748 L64.038,190.375 L62.798,189.993 L61.557,189.61 L60.339,189.219 L59.123,188.828 L57.932,188.428 L56.741,188.028 L55.577,187.619 L54.412,187.209 L53.271,186.791 L52.132,186.374 L51.019,185.947 L49.907,185.52 L48.822,185.084 L47.737,184.647 L46.676,184.203 L45.618,183.759 L44.587,183.305 L43.557,182.852 L42.555,182.39 L41.553,181.927 L40.577,181.456 L39.603,180.985 L38.659,180.505 L37.715,180.026 L36.8,179.537 L35.885,179.048 L34.998,178.55 L34.112,178.053 L33.258,177.548 L32.409,177.046 L30.756,176.013 L29.168,174.967 L27.646,173.905 L26.189,172.825 L24.792,171.73 L23.465,170.619 L22.204,169.491 L21.006,168.347 L19.88,167.19 L18.821,166.014 L17.828,164.825 L16.907,163.622 L16.05,162.393 L15.366,161.341 L14.677,160.283 L14.031,159.236 L13.384,158.189 L12.78,157.153 L12.176,156.116 L11.609,155.089 L11.043,154.064 L10.519,153.05 L9.995,152.036 L9.512,151.033 L9.027,150.029 L8.58,149.035 L8.133,148.043 L7.727,147.062 L7.32,146.082 L6.953,145.112 L6.585,144.14 L6.253,143.179 L5.921,142.22 L5.628,141.272 L5.337,140.332 L4.823,138.447 L4.38,136.591 L4.011,134.759 L3.715,132.946 L3.484,131.152 L3.323,129.382 L3.233,127.63 L3.205,125.897 L3.245,124.186 L3.352,122.492 L3.519,120.815 L3.751,119.16 L4.049,117.521 L4.404,115.898 L4.821,114.296 L5.302,112.708 L5.839,111.137 L6.437,109.585 L7.096,108.047 L7.81,106.524 L8.581,105.02 L9.411,103.529 L10.294,102.053 L11.233,100.595 L12.229,99.151 L13.275,97.721 L14.375,96.308 L15.53,94.91 L16.734,93.525 L17.989,92.158 L19.297,90.804 L20.651,89.465 L22.055,88.142 L23.513,86.83 L24.258,86.186 L25.007,85.54 L25.779,84.901 L26.552,84.262 L27.348,83.631 L28.145,82.999 L28.963,82.374 L29.78,81.749 L30.62,81.133 L31.459,80.516 L32.321,79.907 L33.184,79.297 L34.067,78.695 L34.948,78.093 L35.852,77.499 L36.754,76.903 L37.678,76.316 L38.602,75.728 L39.545,75.146 L40.487,74.566 L41.45,73.992 L42.412,73.419 L43.394,72.854 L44.377,72.287 L45.377,71.728 L46.377,71.169 L47.395,70.618 L48.413,70.066 L49.45,69.523 L50.487,68.978 L51.541,68.441 L52.594,67.903 L53.665,67.374 L54.736,66.844 L55.823,66.322 L56.912,65.799 L58.015,65.283 L59.118,64.767 L60.237,64.259 L61.356,63.75 L62.49,63.249 L63.626,62.747 L64.775,62.252 L65.924,61.758 L67.088,61.27 L68.251,60.783 L69.429,60.303 L70.608,59.822 L71.8,59.348 L72.991,58.874 L74.195,58.408 L75.4,57.941 L76.617,57.481 L77.836,57.021 L79.065,56.568 L80.295,56.114 L81.536,55.667 L82.777,55.22 L84.031,54.781 L85.285,54.34 L86.549,53.907 L87.812,53.473 L89.087,53.046 L90.362,52.619 L91.647,52.199 L92.931,51.78 L94.227,51.37 L95.532,50.957 L96.836,50.545 L98.13,50.136 L99.442,49.74 L100.765,49.341 L102.088,48.942 L103.401,48.546 L104.73,48.163 L106.069,47.777 L107.409,47.391 L108.739,47.008 L110.083,46.636 L111.436,46.262 L112.789,45.889 L114.133,45.517 L115.489,45.159 L116.856,44.798 L118.222,44.437 L119.579,44.078 L120.948,43.732 L122.325,43.384 L123.703,43.035 L125.073,42.689 L126.452,42.354 L127.838,42.017 L129.224,41.679 L130.602,41.344 L131.989,41.021 L133.383,40.696 L134.778,40.372 L136.165,40.049 L137.558,39.738 L138.958,39.425 L140.359,39.112 L141.753,38.801 L143.152,38.501 L144.557,38.199 L145.961,37.897 L147.359,37.596 L148.76,37.308 L150.168,37.018 L151.576,36.728 L152.977,36.439 L154.38,36.162 L155.789,35.883 L157.198,35.604 L158.601,35.327 L160.004,35.06 L161.413,34.792 L162.821,34.523 L164.224,34.256 L165.624,34 L167.031,33.743 L168.437,33.486 L169.838,33.23 L171.235,32.985 L172.637,32.739 L174.039,32.493 L175.437,32.247 L176.829,32.012 L178.227,31.775 L179.624,31.539 L181.016,31.303 L182.401,31.078 L183.791,30.852 L185.181,30.626 L186.566,30.401 L187.942,30.186 L189.323,29.971 L190.704,29.755 L192.08,29.54 L193.447,29.335 L194.818,29.129 L196.189,28.922 L197.556,28.717 L198.91,28.521 L200.269,28.325 L201.628,28.129 L202.982,27.933 L204.322,27.747 L205.667,27.561 L207.012,27.374 L208.352,27.188 L209.678,27.011 L211.009,26.833 L212.339,26.656 L213.665,26.479 L214.974,26.311 L216.286,26.143 L217.599,25.974 L218.908,25.807 L220.197,25.648 L221.49,25.489 L222.784,25.33 L224.075,25.171 L225.351,25.018 L226.629,24.866 L227.895,24.717 L229.161,24.569 L230.416,24.425 L231.672,24.281 L232.916,24.141 L234.161,24.002 L235.393,23.866 L236.626,23.731 L237.845,23.599 L239.065,23.468 L240.273,23.34 L241.481,23.213 L242.675,23.09 L243.87,22.966 L245.05,22.847 L246.231,22.728 L247.399,22.613 L248.566,22.497 L249.719,22.386 L250.872,22.274 L252.009,22.167 L253.147,22.06 L254.271,21.956 L255.394,21.852 L256.502,21.752 L257.609,21.652 L258.7,21.556 L259.791,21.46 L260.867,21.367 L261.943,21.274 L263.001,21.185 L264.06,21.096 L265.1,21.011 L266.141,20.926 L267.165,20.844 L268.19,20.762 L269.195,20.684 L270.2,20.605 L272.174,20.456 L274.112,20.312 L276.01,20.176 L277.867,20.046 L279.687,19.923 L281.464,19.806 L283.198,19.696 L284.893,19.591 L286.542,19.493 L288.145,19.401 L289.707,19.315 L291.22,19.235 L292.685,19.16 L294.106,19.091 L295.476,19.028 L296.796,18.97 L298.068,18.918 L299.288,18.87 L300.454,18.829 L301.57,18.792 L302.631,18.76 L303.635,18.733 L304.588,18.711 L305.482,18.693 L306.317,18.681 L307.098,18.672 L307.816,18.668 L308.473,18.669 L309.071,18.674 L309.603,18.682 L310.068,18.695 L310.469,18.711 L310.794,18.729 L311.038,18.75 L311.19,18.768 L311.19,18.766 L311.128,18.752 L310.449,18.278 L310.449,18.278 L310.449,18.278 L310.449,18.279 L310.45,18.28 L310.451,18.28 L310.451,18.281 L310.452,18.282 L310.453,18.283 L310.455,18.285 L310.456,18.286 L310.457,18.288 L310.459,18.29 L310.46,18.292 L310.462,18.294 L310.464,18.296 L310.43,18.254 L310.358,18.156 L310.287,18.042 L310.221,17.911 L310.164,17.764 L310.119,17.602 L310.091,17.431 L310.081,17.255 L310.09,17.08 L310.116,16.914 L310.157,16.759 L310.209,16.62 L310.267,16.497 L310.329,16.39 L310.391,16.299 L310.453,16.221 L310.481,16.187 L310.479,16.19 L310.477,16.192 L310.475,16.194 L310.473,16.196 L310.471,16.198 L310.47,16.2 L310.469,16.201 L310.467,16.202 L310.466,16.204 L310.466,16.205 L310.465,16.205 L310.464,16.206 L310.464,16.207 L310.464,16.207 L310.464,16.207 L311.059,15.78 L311.067,15.782 L311.031,15.791 L310.862,15.827 L310.586,15.873 L310.229,15.926 L309.789,15.983 L309.257,16.045 C308.357,16.149 307.713,16.964 307.817,17.863 C307.921,18.763 308.736,19.408 309.635,19.304 Z" id="Fill-55"></path>
        </g>
    </g>
</svg>
