<?xml version="1.0" encoding="UTF-8"?>
<svg width="270px" height="331px" viewBox="0 0 270 331" version="1.1" xmlns="http://www.w3.org/2000/svg" xmlns:xlink="http://www.w3.org/1999/xlink">
    <title>104</title>
    <g id="Page-1" stroke="none" stroke-width="1" fill="none" fill-rule="evenodd">
        <g id="104" transform="translate(0.198750, 0.395000)" fill="currentColor">
            <path d="M13,86.767 L12.337,88.261 L11.667,89.771 L11.038,91.273 L10.409,92.776 L9.821,94.27 L9.233,95.763 L8.682,97.249 L8.13,98.737 L7.618,100.218 L7.105,101.698 L6.631,103.173 L6.158,104.645 L5.719,106.112 L5.28,107.58 L4.877,109.043 L4.476,110.505 L4.11,111.962 L3.745,113.417 L3.413,114.867 L3.08,116.319 L2.783,117.765 L2.485,119.212 L2.223,120.654 L1.96,122.095 L1.728,123.531 L1.497,124.969 L1.298,126.404 L1.1,127.838 L0.934,129.268 L0.768,130.697 L0.631,132.123 L0.495,133.55 L0.389,134.974 L0.283,136.398 L0.208,137.82 L0.133,139.24 L0.085,140.658 L0.037,142.077 L0.018,143.494 L0,144.911 L0.009,146.327 L0.019,147.741 L0.054,149.154 L0.089,150.568 L0.151,151.981 L0.213,153.394 L0.301,154.807 L0.39,156.218 L0.501,157.629 L0.613,159.041 L0.749,160.453 L0.886,161.865 L1.047,163.278 L1.208,164.689 L1.39,166.101 L1.572,167.514 L1.777,168.928 L1.982,170.342 L2.209,171.758 L2.436,173.172 L2.683,174.589 L2.93,176.006 L3.197,177.425 L3.464,178.845 L3.752,180.267 L4.039,181.687 L4.344,183.111 L4.649,184.536 L4.972,185.964 L5.296,187.391 L5.638,188.823 L5.979,190.253 L6.337,191.688 L6.694,193.123 L7.068,194.562 L7.442,196.002 L7.832,197.446 L8.221,198.89 L8.624,200.338 L9.028,201.787 L9.446,203.242 L9.864,204.696 L10.296,206.157 L10.727,207.617 L11.171,209.082 L11.614,210.548 L12.07,212.022 L12.527,213.494 L12.994,214.974 L13.462,216.454 L13.939,217.94 L14.417,219.427 L14.906,220.922 L15.394,222.416 L15.893,223.919 L16.392,225.424 L17.003,227.232 L17.627,229.02 L18.261,230.782 L18.905,232.522 L19.56,234.238 L20.226,235.93 L20.9,237.599 L21.586,239.245 L22.281,240.867 L22.986,242.466 L23.701,244.043 L24.426,245.595 L25.16,247.126 L25.904,248.634 L26.658,250.117 L27.421,251.58 L28.194,253.019 L28.976,254.435 L29.767,255.83 L30.567,257.202 L31.376,258.551 L32.194,259.879 L33.021,261.185 L33.856,262.468 L34.7,263.73 L35.553,264.971 L36.414,266.188 L37.283,267.385 L38.161,268.561 L39.05,269.718 L39.943,270.835 L40.841,271.959 L41.755,273.038 L42.67,274.118 L43.6,275.154 L44.529,276.189 L45.472,277.184 L46.418,278.18 L47.379,279.133 L48.34,280.085 L49.315,280.996 L50.289,281.904 L51.277,282.775 L52.265,283.647 L53.268,284.477 L54.271,285.307 L55.287,286.095 L56.302,286.882 L57.328,287.632 L58.356,288.383 L59.397,289.093 L60.438,289.802 L61.492,290.472 L62.543,291.14 L63.605,291.772 L64.669,292.404 L65.745,292.997 L66.82,293.59 L67.907,294.144 L68.991,294.696 L70.086,295.212 L71.182,295.73 L72.288,296.209 L73.394,296.688 L74.51,297.13 L75.623,297.571 L76.745,297.977 L77.869,298.384 L79.002,298.754 L80.135,299.123 L81.277,299.455 L82.416,299.786 L83.562,300.084 L84.711,300.382 L85.868,300.644 L87.024,300.906 L88.188,301.132 L89.349,301.357 L90.517,301.55 L91.686,301.743 L92.862,301.9 L94.038,302.058 L95.22,302.181 L96.4,302.303 L97.585,302.394 L98.772,302.485 L99.964,302.543 L101.156,302.599 L102.353,302.623 L103.548,302.646 L104.747,302.639 L105.947,302.632 L107.152,302.593 L108.356,302.553 L109.565,302.48 L110.771,302.408 L111.98,302.307 L113.191,302.205 L114.405,302.072 L115.618,301.939 L116.834,301.775 L118.049,301.61 L119.265,301.418 L120.483,301.225 L121.702,301.003 L122.922,300.78 L124.142,300.527 L125.361,300.274 L126.581,299.995 L127.803,299.715 L129.025,299.406 L130.247,299.096 L131.469,298.758 L132.69,298.421 L133.91,298.058 L135.132,297.694 L136.354,297.302 L137.575,296.91 L138.796,296.491 L140.014,296.072 L141.232,295.627 L142.451,295.183 L143.669,294.711 L144.886,294.24 L146.101,293.742 L147.315,293.244 L148.528,292.723 L149.74,292.202 L150.951,291.655 L152.161,291.107 L153.369,290.535 L154.575,289.963 L155.778,289.369 L156.982,288.773 L158.182,288.154 L159.382,287.534 L160.578,286.891 L161.773,286.248 L162.964,285.583 L164.156,284.918 L165.343,284.23 L166.53,283.541 L167.712,282.83 L168.893,282.119 L170.068,281.388 L171.244,280.656 L172.415,279.901 L173.585,279.147 L174.749,278.37 L175.912,277.595 L177.069,276.8 L178.226,276.004 L179.377,275.188 L180.528,274.371 L181.671,273.534 L182.814,272.697 L183.949,271.842 L185.085,270.987 L186.213,270.111 L187.341,269.236 L188.461,268.341 L189.579,267.446 L190.69,266.535 L191.801,265.622 L192.903,264.691 L194.005,263.76 L195.098,262.811 L196.189,261.862 L197.272,260.897 L198.355,259.931 L199.428,258.948 L200.501,257.964 L201.563,256.964 L202.624,255.964 L203.675,254.948 L204.727,253.933 L205.768,252.9 L206.809,251.868 L207.838,250.82 L208.866,249.772 L209.883,248.71 L210.9,247.647 L211.905,246.569 L212.91,245.491 L213.903,244.398 L214.894,243.306 L215.873,242.2 L216.853,241.094 L217.82,239.974 L218.786,238.853 L219.739,237.719 L220.691,236.586 L221.63,235.441 L222.57,234.295 L223.495,233.136 L224.42,231.977 L225.33,230.805 L226.239,229.634 L227.134,228.452 L228.03,227.269 L228.91,226.074 L229.79,224.879 L230.654,223.672 L231.517,222.467 L232.365,221.251 L233.214,220.034 L234.045,218.806 L234.877,217.579 L235.691,216.341 L236.505,215.104 L237.302,213.857 L238.1,212.61 L238.88,211.353 L239.66,210.096 L240.422,208.831 L241.184,207.565 L241.928,206.292 L242.673,205.018 L243.399,203.735 L244.124,202.453 L244.83,201.162 L245.536,199.872 L246.223,198.574 L246.911,197.276 L247.579,195.971 L248.246,194.665 L248.893,193.352 L249.539,192.041 L250.166,190.723 L250.794,189.404 L251.4,188.079 L252.007,186.753 L252.591,185.422 L253.175,184.092 L253.738,182.757 L254.303,181.42 L254.844,180.079 L255.386,178.738 L255.905,177.391 L256.424,176.046 L256.922,174.697 L257.419,173.346 L257.893,171.992 L258.368,170.637 L258.818,169.279 L259.267,167.922 L259.695,166.562 L260.122,165.2 L260.525,163.836 L260.928,162.471 L261.306,161.104 L261.683,159.738 L262.037,158.37 L262.391,157.001 L262.719,155.63 L263.048,154.259 L263.35,152.886 L263.651,151.515 L263.928,150.142 L264.206,148.769 L264.456,147.394 L264.707,146.02 L264.929,144.645 L265.152,143.271 L265.349,141.898 L265.547,140.523 L265.716,139.148 L265.885,137.773 L266.025,136.4 L266.165,135.027 L266.279,133.656 L266.393,132.283 L266.477,130.911 L266.561,129.54 L266.616,128.171 L266.67,126.802 L266.697,125.436 L266.724,124.069 L266.72,122.704 L266.716,121.339 L266.682,119.977 L266.647,118.617 L266.583,117.26 L266.52,115.901 L266.424,114.546 L266.329,113.191 L266.201,111.841 L266.073,110.491 L265.916,109.147 L265.758,107.8 L265.568,106.459 L265.377,105.117 L265.153,103.781 L264.929,102.446 L264.675,101.117 L264.42,99.786 L264.132,98.462 L263.843,97.137 L263.519,95.819 L263.196,94.503 L262.841,93.193 L262.486,91.881 L262.096,90.577 L261.705,89.273 L261.279,87.977 L260.853,86.682 L260.395,85.395 L259.936,84.106 L259.441,82.826 L258.945,81.546 L258.412,80.275 L257.88,79.005 L257.314,77.745 L256.748,76.483 L256.144,75.23 L255.539,73.978 L254.898,72.736 L254.257,71.496 L253.581,70.265 L252.904,69.033 L252.189,67.812 L251.473,66.591 L250.719,65.382 L249.966,64.174 L249.177,62.977 L248.386,61.778 L247.557,60.592 L246.727,59.406 L245.858,58.233 L244.989,57.061 L244.084,55.901 L243.177,54.74 L242.23,53.592 L241.283,52.445 L240.295,51.311 L239.307,50.179 L238.282,49.06 L237.256,47.94 L236.189,46.834 L235.121,45.729 L234.011,44.638 L232.903,43.549 L231.756,42.474 L230.607,41.398 L229.416,40.338 L228.225,39.278 L226.991,38.234 L225.758,37.191 L224.486,36.163 L223.213,35.135 L221.895,34.123 L220.578,33.112 L219.217,32.118 L217.859,31.127 L216.465,30.143 L215.051,29.17 L213.615,28.207 L212.159,27.252 L210.68,26.306 L209.178,25.37 L207.656,24.442 L206.11,23.524 L204.542,22.616 L202.953,21.716 L201.341,20.826 L199.705,19.946 L198.049,19.075 L196.369,18.214 L194.666,17.364 L192.941,16.523 L191.192,15.692 L189.42,14.872 L187.626,14.061 L185.809,13.261 L183.969,12.472 L183.036,12.081 L182.104,11.691 L181.16,11.307 L180.216,10.922 L179.259,10.543 L178.304,10.165 L177.337,9.791 L176.37,9.417 L175.39,9.049 L174.411,8.68 L173.419,8.318 L172.428,7.955 L171.425,7.598 L170.422,7.24 L169.407,6.889 L168.392,6.537 L167.364,6.191 L166.332,5.843 L165.016,5.421 L163.695,4.997 L162.383,4.608 L161.07,4.219 L159.767,3.865 L158.465,3.512 L157.172,3.19 L155.877,2.868 L154.592,2.579 L153.306,2.291 L152.03,2.037 L150.756,1.783 L149.489,1.559 L148.222,1.336 L146.964,1.145 L145.705,0.955 L144.457,0.798 L143.21,0.641 L141.971,0.514 L140.731,0.387 L139.5,0.292 L138.27,0.197 L137.049,0.135 L135.83,0.072 L134.62,0.038 L133.408,0.005 L132.206,0 L131.004,0 L129.811,0.029 L128.621,0.058 L127.439,0.114 L126.256,0.171 L125.083,0.258 L123.91,0.346 L122.746,0.463 L121.585,0.58 L120.432,0.724 L119.278,0.869 L118.135,1.042 L116.991,1.216 L115.858,1.419 L114.726,1.621 L113.603,1.85 L112.479,2.079 L111.366,2.336 L110.252,2.593 L109.149,2.878 L108.048,3.163 L106.956,3.473 L105.862,3.784 L104.779,4.121 L103.697,4.459 L102.624,4.824 L101.554,5.188 L100.493,5.576 L99.43,5.965 L98.379,6.381 L97.327,6.796 L96.286,7.237 L95.247,7.677 L94.217,8.141 L93.187,8.605 L92.167,9.095 L91.147,9.584 L90.138,10.098 L89.131,10.612 L88.133,11.147 L87.134,11.684 L86.146,12.244 L85.159,12.804 L84.182,13.388 L83.207,13.972 L82.241,14.576 L81.275,15.182 L80.32,15.81 L79.365,16.438 L78.421,17.089 L77.478,17.74 L76.545,18.41 L75.612,19.082 L74.689,19.775 L73.767,20.468 L72.856,21.183 L71.946,21.897 L71.047,22.63 L70.147,23.364 L69.257,24.119 L68.369,24.874 L67.491,25.65 L66.615,26.424 L65.748,27.218 L64.882,28.011 L64.026,28.825 L63.171,29.639 L62.327,30.472 L61.484,31.304 L60.652,32.154 L59.818,33.005 L58.997,33.874 L58.175,34.743 L57.366,35.631 L56.557,36.518 L55.758,37.422 L54.959,38.326 L54.172,39.248 L53.384,40.17 L52.609,41.109 L51.834,42.047 L51.07,43.002 L50.305,43.956 L49.552,44.928 L48.799,45.899 L48.058,46.887 L47.318,47.874 L46.588,48.876 L45.858,49.878 L45.14,50.896 L44.422,51.915 L43.716,52.948 L43.01,53.981 L42.315,55.027 L41.62,56.074 L40.937,57.136 L40.254,58.198 L39.583,59.274 L38.913,60.349 L38.253,61.437 L37.593,62.526 L36.946,63.628 L36.298,64.73 L35.663,65.846 L35.028,66.961 L34.404,68.088 L33.779,69.215 L33.167,70.355 L32.555,71.495 L31.956,72.647 L31.356,73.799 L30.768,74.961 L30.18,76.124 L29.604,77.299 L29.028,78.474 L28.464,79.66 L27.901,80.845 L27.349,82.04 L26.797,83.236 L26.257,84.442 L25.717,85.649 L25.19,86.866 L24.664,88.082 L24.148,89.307 L23.633,90.533 L23.13,91.768 L22.627,93.003 L22.137,94.248 L21.647,95.492 L21.169,96.744 L20.69,97.996 L20.224,99.257 L19.758,100.518 L19.305,101.788 L18.852,103.056 L18.411,104.332 L17.97,105.608 L17.541,106.892 L17.112,108.176 L16.697,109.467 L16.281,110.758 L15.877,112.055 L15.473,113.352 L15.082,114.656 L14.691,115.96 L14.313,117.27 L13.936,118.579 L13.57,119.894 L13.204,121.209 L12.851,122.53 L12.498,123.851 L12.159,125.177 L11.819,126.502 L11.491,127.832 L11.164,129.162 L10.849,130.497 L10.534,131.831 L10.233,133.17 L9.932,134.509 L9.643,135.851 L9.353,137.193 L9.078,138.539 L8.802,139.884 L8.539,141.233 L8.277,142.582 L8.026,143.933 L7.776,145.284 L7.539,146.638 L7.302,147.992 L7.079,149.348 L6.855,150.703 L6.644,152.06 L6.433,153.418 L6.236,154.777 L6.038,156.136 L5.854,157.496 L5.67,158.855 L5.499,160.216 L5.327,161.576 L5.169,162.938 L5.011,164.299 L4.867,165.66 L4.723,167.021 L4.591,168.381 L4.46,169.742 L4.342,171.103 L4.224,172.463 L4.12,173.823 L4.017,175.182 L3.925,176.539 L3.834,177.898 L3.757,179.254 L3.679,180.611 L3.616,181.966 L3.552,183.32 L3.501,184.672 L3.45,186.025 L3.413,187.375 L3.376,188.725 L3.353,190.072 L3.331,191.419 L3.321,192.762 L3.311,194.106 L3.315,195.447 L3.319,196.787 L3.338,198.124 L3.356,199.46 L3.388,200.791 L3.419,202.124 L3.465,203.452 L3.511,204.78 L3.571,206.103 L3.631,207.425 L3.704,208.743 L3.778,210.061 L3.865,211.373 L3.953,212.686 L4.055,213.992 L4.157,215.298 L4.273,216.598 L4.388,217.899 L4.518,219.193 L4.647,220.487 L4.792,221.774 L4.936,223.061 L5.094,224.341 L5.251,225.621 L5.424,226.894 L5.596,228.167 L5.784,229.431 L5.971,230.695 L6.171,231.952 L6.372,233.209 L6.588,234.458 L6.803,235.706 L7.034,236.946 L7.264,238.184 L7.508,239.415 L7.752,240.646 L8.011,241.867 L8.27,243.088 L8.544,244.299 L8.819,245.51 L9.106,246.711 L9.394,247.913 L9.697,249.104 L10,250.295 L10.318,251.475 L10.636,252.654 L10.968,253.823 L11.299,254.993 L11.647,256.151 L11.994,257.309 L12.357,258.455 L12.719,259.6 L13.095,260.734 L13.472,261.869 L13.864,262.991 L14.256,264.113 L14.663,265.222 L15.07,266.33 L15.492,267.426 L15.914,268.522 L16.351,269.605 L16.788,270.688 L17.241,271.757 L17.694,272.825 L18.16,273.88 L18.628,274.936 L19.111,275.977 L19.594,277.017 L20.092,278.043 L20.591,279.068 L21.103,280.079 L21.617,281.091 L22.146,282.087 L22.675,283.083 L23.22,284.062 L23.765,285.041 L24.324,286.005 L24.884,286.97 L25.459,287.918 L26.035,288.866 L26.627,289.796 L27.218,290.726 L27.824,291.64 L28.431,292.555 L29.054,293.451 L29.677,294.348 L30.316,295.227 L30.954,296.104 L31.608,296.965 L32.262,297.827 L32.932,298.67 L33.602,299.512 L34.289,300.336 L34.976,301.158 L35.676,301.963 L36.378,302.768 L37.097,303.553 L37.815,304.339 L38.55,305.104 L39.284,305.868 L40.033,306.613 L40.784,307.359 L41.55,308.084 L42.317,308.809 L43.101,309.512 L43.883,310.215 L44.681,310.897 L45.48,311.581 L46.296,312.242 L47.112,312.903 L47.944,313.542 L48.775,314.18 L49.622,314.797 L50.47,315.415 L51.334,316.009 L52.199,316.604 L53.08,317.174 L53.961,317.744 L54.857,318.292 L55.754,318.841 L56.667,319.366 L57.581,319.89 L58.512,320.39 L59.442,320.889 L60.387,321.365 L61.333,321.842 L62.296,322.293 L63.26,322.744 L64.24,323.17 L65.219,323.594 L66.213,323.996 L67.209,324.397 L68.222,324.772 L69.235,325.147 L70.265,325.495 L71.293,325.842 L72.337,326.165 L73.383,326.488 L74.445,326.783 L75.507,327.079 L76.587,327.346 L77.665,327.613 L78.759,327.855 L79.854,328.096 L80.966,328.31 L82.078,328.522 L83.207,328.707 L84.335,328.89 L85.478,329.048 L86.623,329.205 L87.785,329.333 L88.946,329.461 L90.125,329.559 L91.298,329.656 L92.392,329.729 L93.481,329.803 L94.562,329.866 L95.643,329.93 L96.717,329.984 L97.79,330.038 L98.855,330.084 L99.921,330.13 L100.979,330.166 L102.038,330.203 L103.088,330.23 L104.138,330.257 L105.18,330.275 L106.223,330.294 L107.258,330.303 L108.293,330.313 L109.32,330.313 L110.347,330.313 L111.367,330.305 L112.387,330.297 L113.399,330.28 L114.413,330.263 L116.42,330.212 L118.414,330.144 L120.393,330.058 L122.356,329.955 L124.306,329.836 L126.24,329.699 L128.16,329.545 L130.055,329.368 L131.953,329.191 L133.82,328.98 L135.688,328.769 L137.525,328.525 L139.361,328.28 L141.169,328.005 L142.979,327.731 L144.758,327.424 L146.538,327.116 L148.287,326.777 L150.036,326.437 L151.757,326.069 L153.48,325.701 L155.173,325.301 L156.866,324.901 L158.529,324.471 L160.192,324.04 L161.828,323.582 L163.464,323.124 L165.072,322.635 L166.68,322.147 L168.259,321.629 L169.836,321.111 L171.388,320.567 L172.941,320.022 L174.465,319.449 L175.988,318.875 L177.484,318.273 L178.978,317.672 L180.446,317.045 L181.916,316.418 L183.357,315.764 L184.799,315.109 L186.212,314.427 L187.624,313.746 L189.011,313.041 L190.399,312.335 L191.759,311.603 L193.119,310.871 L194.452,310.113 L195.783,309.356 L197.09,308.576 L198.397,307.795 L199.677,306.99 L200.958,306.185 L202.211,305.355 L203.463,304.526 L204.691,303.676 L205.92,302.825 L207.122,301.95 L208.324,301.075 L209.499,300.177 L210.674,299.28 L211.824,298.362 L212.975,297.443 L214.1,296.503 L215.224,295.562 L216.323,294.6 L217.42,293.638 L218.495,292.657 L219.569,291.675 L220.618,290.672 L221.667,289.67 L222.69,288.647 L223.713,287.624 L224.712,286.584 L225.712,285.543 L226.687,284.482 L227.661,283.421 L228.611,282.342 L229.56,281.263 L230.486,280.167 L231.412,279.07 L232.314,277.956 L233.216,276.841 L234.093,275.708 L234.969,274.576 L235.823,273.429 L236.678,272.281 L237.508,271.115 L238.338,269.95 L239.144,268.769 L239.95,267.588 L240.734,266.392 L241.518,265.196 L242.278,263.985 L243.038,262.773 L243.775,261.546 L244.511,260.32 L245.225,259.081 L245.94,257.841 L246.632,256.587 L247.324,255.333 L247.993,254.065 L248.661,252.798 L249.308,251.518 L249.956,250.238 L250.581,248.945 L251.205,247.652 L251.808,246.347 L252.409,245.042 L252.991,243.726 L253.572,242.41 L254.132,241.082 L254.691,239.754 L255.228,238.415 L255.765,237.076 L256.281,235.728 L256.799,234.379 L257.294,233.02 L257.789,231.661 L258.262,230.292 L258.736,228.923 L259.189,227.546 L259.641,226.168 L260.072,224.781 L260.503,223.394 L260.913,221.998 L261.323,220.603 L261.714,219.201 L262.104,217.798 L262.474,216.388 L262.844,214.977 L263.194,213.559 L263.543,212.142 L263.873,210.719 L264.204,209.295 L264.515,207.865 L264.825,206.435 L265.116,204.998 L265.406,203.563 L265.678,202.122 L265.95,200.681 L266.202,199.235 L266.455,197.789 L266.688,196.338 L266.92,194.888 L267.134,193.433 L267.349,191.979 L267.544,190.52 L267.74,189.062 L267.916,187.6 L268.092,186.139 L268.251,184.675 L268.41,183.21 L268.55,181.743 L268.691,180.277 L268.812,178.808 L268.934,177.339 L269.039,175.869 L269.143,174.399 L269.23,172.927 L269.317,171.456 L269.385,169.984 L269.454,168.512 L269.506,167.04 L269.559,165.567 L269.593,164.095 L269.628,162.622 L269.646,161.15 L269.664,159.679 L269.669,158.208 L269.669,156.737 L269.654,155.267 L269.64,153.798 L269.608,152.33 L269.576,150.862 L269.529,149.397 L269.482,147.931 L269.418,146.468 L269.354,145.005 L269.274,143.545 L269.193,142.085 L269.098,140.628 L269.002,139.171 L268.891,137.718 L268.779,136.265 L268.652,134.817 L268.524,133.369 L268.382,131.925 L268.24,130.481 L268.082,129.041 L267.924,127.602 L267.752,126.169 L267.579,124.736 L267.392,123.309 L267.205,121.881 L267.003,120.459 L266.8,119.038 L266.583,117.623 L266.366,116.209 L266.135,114.802 L265.904,113.394 L265.659,111.994 L265.413,110.594 L265.153,109.203 L264.893,107.811 L264.62,106.428 L264.347,105.044 L264.06,103.669 L263.772,102.295 L263.471,100.929 L263.169,99.565 L262.855,98.209 L262.541,96.853 L262.213,95.507 L261.885,94.161 L261.544,92.826 L261.203,91.491 L260.85,90.166 L260.496,88.842 L260.13,87.528 L259.763,86.215 L259.383,84.914 L259.003,83.613 L258.612,82.324 L258.22,81.034 L257.816,79.757 L257.412,78.48 L256.995,77.217 L256.578,75.954 L256.15,74.703 L255.722,73.453 L255.282,72.216 L254.841,70.979 L254.389,69.757 L253.936,68.536 L253.473,67.328 L253.009,66.119 L252.534,64.927 L252.059,63.734 L251.572,62.557 L251.086,61.38 L250.589,60.219 L250.092,59.057 L249.583,57.911 L249.075,56.766 L248.555,55.638 L248.036,54.51 L247.507,53.399 L246.977,52.287 L246.436,51.193 L245.896,50.099 L245.345,49.024 L244.794,47.949 L244.234,46.891 L243.673,45.833 L243.102,44.794 L242.531,43.755 L241.95,42.736 L241.369,41.718 L240.779,40.718 L240.189,39.717 L239.589,38.737 L238.988,37.757 L238.378,36.798 L237.769,35.84 L237.15,34.901 L236.532,33.962 L235.904,33.044 L235.276,32.127 L234.639,31.231 L234.002,30.337 L233.357,29.463 L232.711,28.589 L232.057,27.738 L231.402,26.886 L230.739,26.059 L230.076,25.232 L229.405,24.427 L228.734,23.621 L228.054,22.84 L227.374,22.059 L226.686,21.303 L225.998,20.548 L225.303,19.815 L224.605,19.08 L223.199,17.668 L221.777,16.307 L220.339,14.994 L218.886,13.736 L217.418,12.533 L215.937,11.381 L214.441,10.286 L212.931,9.25 L211.409,8.267 L209.872,7.343 L208.323,6.481 L206.762,5.675 L205.187,4.931 L203.601,4.251 L202.004,3.63 L200.394,3.075 L198.774,2.586 L197.145,2.159 L195.503,1.801 L193.853,1.512 L192.195,1.287 L190.526,1.134 L188.85,1.053 L187.167,1.038 L185.475,1.098 L183.777,1.233 L182.073,1.437 L180.362,1.717 L178.647,2.075 L176.928,2.504 L175.202,3.013 L173.474,3.6 L171.742,4.261 L170.006,5.004 L168.268,5.828 L166.528,6.728 L164.789,7.709 L163.912,8.245 L163.04,8.779 L162.168,9.351 L161.295,9.923 L160.421,10.539 L159.547,11.154 L158.673,11.813 L157.799,12.471 L156.926,13.169 L156.051,13.867 L155.177,14.61 L154.302,15.352 L153.427,16.14 L152.561,16.919 C152.219,17.227 152.191,17.754 152.499,18.097 C152.808,18.439 153.335,18.467 153.677,18.159 L154.543,17.38 L155.4,16.609 L156.257,15.882 L157.112,15.155 L157.967,14.473 L158.823,13.789 L159.677,13.146 L160.53,12.503 L161.382,11.903 L162.234,11.304 L163.083,10.747 L163.934,10.189 L164.783,9.669 L165.626,9.153 L167.322,8.197 L169.009,7.325 L170.692,6.526 L172.369,5.809 L174.041,5.171 L175.707,4.605 L177.366,4.116 L179.02,3.703 L180.668,3.36 L182.308,3.091 L183.942,2.896 L185.57,2.766 L187.189,2.709 L188.803,2.723 L190.409,2.801 L192.006,2.948 L193.597,3.164 L195.181,3.441 L196.754,3.785 L198.321,4.196 L199.88,4.666 L201.428,5.2 L202.968,5.799 L204.5,6.456 L206.02,7.174 L207.532,7.955 L209.034,8.791 L210.524,9.686 L212.004,10.642 L213.473,11.651 L214.929,12.717 L216.374,13.841 L217.808,15.015 L219.227,16.245 L220.633,17.53 L222.028,18.863 L223.409,20.251 L224.089,20.968 L224.772,21.687 L225.448,22.43 L226.123,23.172 L226.791,23.94 L227.459,24.707 L228.119,25.499 L228.779,26.292 L229.432,27.106 L230.085,27.92 L230.729,28.758 L231.373,29.596 L232.009,30.458 L232.645,31.32 L233.274,32.203 L233.902,33.085 L234.521,33.99 L235.141,34.895 L235.751,35.822 L236.362,36.75 L236.964,37.698 L237.565,38.645 L238.158,39.613 L238.75,40.581 L239.333,41.57 L239.917,42.56 L240.491,43.568 L241.065,44.576 L241.63,45.603 L242.194,46.631 L242.748,47.678 L243.303,48.726 L243.848,49.791 L244.393,50.855 L244.927,51.938 L245.462,53.021 L245.986,54.123 L246.51,55.225 L247.025,56.343 L247.539,57.46 L248.042,58.595 L248.546,59.73 L249.038,60.882 L249.53,62.034 L250.012,63.201 L250.495,64.368 L250.965,65.551 L251.435,66.734 L251.894,67.933 L252.353,69.132 L252.801,70.344 L253.25,71.557 L253.686,72.784 L254.122,74.011 L254.546,75.252 L254.97,76.494 L255.383,77.748 L255.796,79.002 L256.196,80.27 L256.597,81.537 L256.985,82.817 L257.373,84.098 L257.749,85.39 L258.125,86.682 L258.488,87.986 L258.852,89.29 L259.202,90.606 L259.552,91.922 L259.89,93.248 L260.228,94.574 L260.553,95.91 L260.877,97.247 L261.188,98.594 L261.499,99.942 L261.797,101.298 L262.095,102.654 L262.379,104.02 L262.663,105.385 L262.933,106.76 L263.204,108.135 L263.461,109.518 L263.718,110.901 L263.96,112.291 L264.203,113.682 L264.431,115.081 L264.659,116.48 L264.873,117.885 L265.088,119.29 L265.287,120.702 L265.487,122.114 L265.671,123.533 L265.856,124.952 L266.026,126.376 L266.197,127.8 L266.352,129.23 L266.506,130.66 L266.645,132.094 L266.784,133.529 L266.909,134.969 L267.033,136.408 L267.142,137.851 L267.251,139.295 L267.343,140.742 L267.436,142.189 L267.513,143.64 L267.591,145.09 L267.652,146.544 L267.714,147.997 L267.758,149.453 L267.803,150.909 L267.832,152.367 L267.862,153.825 L267.874,155.284 L267.886,156.743 L267.882,158.204 L267.877,159.665 L267.856,161.127 L267.836,162.588 L267.797,164.049 L267.757,165.511 L267.701,166.973 L267.644,168.435 L267.571,169.896 L267.498,171.357 L267.407,172.817 L267.316,174.277 L267.207,175.736 L267.098,177.195 L266.973,178.652 L266.847,180.109 L266.703,181.564 L266.559,183.018 L266.396,184.47 L266.234,185.923 L266.054,187.372 L265.875,188.821 L265.676,190.267 L265.478,191.712 L265.26,193.154 L265.042,194.596 L264.808,196.034 L264.573,197.471 L264.319,198.904 L264.065,200.336 L263.792,201.763 L263.518,203.191 L263.227,204.614 L262.935,206.036 L262.624,207.452 L262.313,208.868 L261.982,210.277 L261.65,211.687 L261.3,213.09 L260.951,214.493 L260.581,215.888 L260.211,217.284 L259.821,218.671 L259.43,220.059 L259.02,221.44 L258.611,222.819 L258.181,224.191 L257.751,225.562 L257.3,226.923 L256.85,228.286 L256.381,229.64 L255.912,230.994 L255.422,232.338 L254.932,233.681 L254.421,235.014 L253.909,236.348 L253.378,237.672 L252.846,238.995 L252.293,240.307 L251.741,241.619 L251.166,242.92 L250.591,244.221 L249.995,245.51 L249.4,246.799 L248.783,248.076 L248.166,249.353 L247.526,250.616 L246.886,251.88 L246.225,253.132 L245.565,254.384 L244.882,255.621 L244.199,256.859 L243.493,258.082 L242.787,259.305 L242.059,260.516 L241.332,261.725 L240.582,262.92 L239.832,264.114 L239.058,265.293 L238.284,266.473 L237.488,267.638 L236.693,268.802 L235.874,269.95 L235.056,271.098 L234.213,272.229 L233.37,273.361 L232.504,274.477 L231.64,275.593 L230.751,276.691 L229.862,277.788 L228.949,278.868 L228.035,279.948 L227.099,281.012 L226.164,282.074 L225.204,283.118 L224.243,284.162 L223.258,285.186 L222.272,286.211 L221.264,287.218 L220.256,288.225 L219.222,289.211 L218.189,290.197 L217.131,291.162 L216.071,292.129 L214.988,293.075 L213.907,294.022 L212.799,294.947 L211.692,295.872 L210.558,296.775 L209.424,297.678 L208.266,298.561 L207.109,299.444 L205.925,300.304 L204.742,301.164 L203.532,302.001 L202.321,302.838 L201.086,303.654 L199.852,304.47 L198.591,305.261 L197.33,306.052 L196.042,306.819 L194.753,307.586 L193.439,308.33 L192.127,309.074 L190.787,309.793 L189.446,310.512 L188.079,311.205 L186.71,311.898 L185.317,312.568 L183.924,313.237 L182.503,313.88 L181.083,314.522 L179.634,315.138 L178.185,315.754 L176.709,316.345 L175.235,316.936 L173.732,317.499 L172.23,318.062 L170.698,318.597 L169.166,319.132 L167.608,319.641 L166.05,320.149 L164.464,320.629 L162.878,321.108 L161.262,321.558 L159.646,322.008 L158.003,322.431 L156.361,322.854 L154.689,323.246 L153.018,323.638 L151.316,323.999 L149.614,324.361 L147.884,324.693 L146.156,325.026 L144.398,325.327 L142.639,325.628 L140.851,325.897 L139.061,326.166 L137.244,326.406 L135.428,326.645 L133.581,326.851 L131.734,327.057 L129.857,327.23 L127.976,327.403 L126.08,327.552 L124.165,327.684 L122.236,327.8 L120.291,327.899 L118.332,327.981 L116.357,328.046 L114.365,328.095 L113.364,328.11 L112.362,328.125 L111.351,328.132 L110.341,328.138 L109.322,328.137 L108.305,328.135 L107.279,328.124 L106.254,328.114 L105.22,328.094 L104.186,328.074 L103.145,328.046 L102.105,328.018 L101.056,327.98 L100.007,327.943 L98.95,327.897 L97.893,327.85 L96.829,327.795 L95.765,327.74 L94.692,327.676 L93.62,327.612 L92.54,327.538 L91.464,327.465 L90.308,327.368 L89.159,327.271 L88.027,327.145 L86.894,327.019 L85.779,326.865 L84.664,326.71 L83.563,326.529 L82.464,326.349 L81.383,326.14 L80.301,325.932 L79.237,325.696 L78.171,325.46 L77.12,325.198 L76.071,324.937 L75.04,324.649 L74.008,324.361 L72.993,324.046 L71.977,323.731 L70.976,323.392 L69.977,323.053 L68.994,322.689 L68.011,322.324 L67.045,321.934 L66.078,321.543 L65.126,321.129 L64.175,320.716 L63.241,320.278 L62.307,319.84 L61.389,319.376 L60.47,318.913 L59.567,318.427 L58.664,317.942 L57.778,317.432 L56.891,316.923 L56.021,316.39 L55.15,315.856 L54.294,315.301 L53.439,314.747 L52.6,314.169 L51.761,313.592 L50.938,312.992 L50.114,312.391 L49.305,311.769 L48.497,311.148 L47.705,310.505 L46.913,309.862 L46.136,309.198 L45.359,308.532 L44.597,307.847 L43.835,307.162 L43.09,306.457 L42.343,305.751 L41.614,305.025 L40.883,304.297 L40.166,303.551 L39.45,302.806 L38.751,302.041 L38.051,301.275 L37.367,300.49 L36.682,299.703 L36.011,298.899 L35.341,298.096 L34.687,297.273 L34.033,296.451 L33.394,295.609 L32.755,294.767 L32.13,293.907 L31.506,293.049 L30.897,292.172 L30.288,291.295 L29.695,290.4 L29.101,289.504 L28.521,288.592 L27.942,287.681 L27.378,286.752 L26.815,285.824 L26.267,284.878 L25.718,283.932 L25.183,282.97 L24.649,282.01 L24.13,281.033 L23.611,280.056 L23.107,279.063 L22.603,278.069 L22.113,277.061 L21.624,276.053 L21.15,275.031 L20.675,274.008 L20.216,272.97 L19.757,271.932 L19.311,270.88 L18.866,269.829 L18.436,268.763 L18.006,267.698 L17.591,266.619 L17.176,265.538 L16.775,264.446 L16.374,263.354 L15.988,262.249 L15.602,261.144 L15.231,260.026 L14.86,258.907 L14.503,257.776 L14.145,256.647 L13.803,255.505 L13.461,254.363 L13.134,253.209 L12.806,252.054 L12.493,250.889 L12.179,249.725 L11.88,248.549 L11.581,247.373 L11.298,246.186 L11.014,244.999 L10.744,243.802 L10.474,242.606 L10.218,241.399 L9.963,240.193 L9.722,238.976 L9.481,237.759 L9.254,236.533 L9.027,235.308 L8.814,234.074 L8.601,232.839 L8.404,231.596 L8.206,230.352 L8.021,229.101 L7.836,227.85 L7.666,226.591 L7.496,225.331 L7.341,224.064 L7.185,222.797 L7.043,221.522 L6.901,220.249 L6.773,218.968 L6.645,217.687 L6.531,216.399 L6.418,215.111 L6.318,213.816 L6.218,212.523 L6.133,211.223 L6.047,209.923 L5.976,208.618 L5.904,207.312 L5.846,206 L5.787,204.69 L5.743,203.375 L5.699,202.059 L5.669,200.739 L5.639,199.418 L5.622,198.093 L5.605,196.769 L5.602,195.44 L5.599,194.112 L5.61,192.78 L5.621,191.447 L5.645,190.112 L5.669,188.777 L5.706,187.439 L5.744,186.1 L5.796,184.76 L5.848,183.418 L5.913,182.075 L5.977,180.732 L6.056,179.387 L6.134,178.042 L6.227,176.696 L6.32,175.349 L6.424,174 L6.529,172.653 L6.648,171.304 L6.767,169.955 L6.9,168.606 L7.032,167.256 L7.177,165.906 L7.322,164.557 L7.48,163.207 L7.639,161.858 L7.811,160.509 L7.983,159.159 L8.167,157.81 L8.352,156.462 L8.55,155.115 L8.747,153.768 L8.959,152.422 L9.17,151.076 L9.394,149.731 L9.617,148.387 L9.854,147.045 L10.091,145.703 L10.341,144.363 L10.591,143.023 L10.854,141.686 L11.116,140.349 L11.392,139.015 L11.667,137.681 L11.956,136.351 L12.245,135.02 L12.545,133.692 L12.846,132.366 L13.16,131.043 L13.473,129.72 L13.8,128.402 L14.127,127.084 L14.466,125.769 L14.804,124.456 L15.156,123.147 L15.507,121.839 L15.872,120.536 L16.237,119.233 L16.613,117.935 L16.989,116.637 L17.378,115.346 L17.767,114.054 L18.169,112.77 L18.571,111.484 L18.984,110.205 L19.397,108.927 L19.823,107.656 L20.249,106.385 L20.688,105.121 L21.127,103.857 L21.577,102.6 L22.027,101.344 L22.49,100.096 L22.953,98.848 L23.428,97.608 L23.903,96.368 L24.39,95.137 L24.877,93.905 L25.376,92.684 L25.875,91.462 L26.386,90.249 L26.898,89.037 L27.421,87.833 L27.943,86.63 L28.478,85.437 L29.012,84.244 L29.559,83.062 L30.106,81.879 L30.664,80.706 L31.222,79.534 L31.792,78.373 L32.362,77.212 L32.945,76.063 L33.527,74.914 L34.121,73.775 L34.714,72.637 L35.319,71.511 L35.924,70.385 L36.541,69.272 L37.159,68.159 L37.787,67.057 L38.415,65.956 L39.055,64.868 L39.695,63.78 L40.347,62.706 L40.998,61.632 L41.661,60.57 L42.324,59.509 L42.998,58.462 L43.672,57.416 L44.358,56.384 L45.044,55.351 L45.741,54.332 L46.437,53.314 L47.145,52.311 L47.852,51.308 L48.572,50.322 L49.292,49.334 L50.022,48.361 L50.752,47.389 L51.493,46.433 L52.234,45.477 L52.987,44.538 L53.74,43.598 L54.504,42.674 L55.267,41.751 L56.041,40.845 L56.815,39.939 L57.601,39.051 L58.387,38.162 L59.183,37.29 L59.978,36.418 L60.785,35.565 L61.592,34.712 L62.41,33.877 L63.228,33.042 L64.057,32.225 L64.885,31.408 L65.724,30.61 L66.562,29.813 L67.412,29.035 L68.263,28.257 L69.123,27.497 L69.983,26.738 L70.853,25.999 L71.724,25.26 L72.605,24.542 L73.487,23.823 L74.379,23.124 L75.27,22.425 L76.172,21.747 L77.073,21.07 L77.986,20.414 L78.899,19.758 L79.822,19.122 L80.744,18.486 L81.676,17.873 L82.609,17.26 L83.552,16.67 L84.496,16.079 L85.45,15.509 L86.402,14.939 L87.365,14.393 L88.328,13.847 L89.302,13.325 L90.276,12.802 L91.26,12.301 L92.243,11.801 L93.237,11.325 L94.23,10.849 L95.233,10.398 L96.238,9.946 L97.252,9.517 L98.265,9.089 L99.288,8.686 L100.311,8.283 L101.344,7.905 L102.379,7.527 L103.423,7.173 L104.465,6.819 L105.518,6.491 L106.57,6.164 L107.633,5.863 L108.697,5.561 L109.771,5.285 L110.843,5.008 L111.925,4.759 L113.007,4.51 L114.099,4.288 L115.193,4.066 L116.295,3.87 L117.397,3.673 L118.508,3.505 L119.619,3.337 L120.741,3.198 L121.863,3.058 L122.996,2.945 L124.126,2.832 L125.267,2.749 L126.407,2.665 L127.558,2.611 L128.709,2.557 L129.871,2.53 L131.03,2.503 L132.2,2.507 L133.369,2.51 L134.549,2.544 L135.729,2.578 L136.919,2.641 L138.108,2.703 L139.306,2.797 L140.505,2.89 L141.713,3.016 L142.923,3.141 L144.141,3.296 L145.359,3.45 L146.586,3.637 L147.813,3.824 L149.05,4.044 L150.288,4.263 L151.535,4.513 L152.781,4.763 L154.037,5.046 L155.293,5.329 L156.558,5.647 L157.825,5.965 L159.1,6.314 L160.374,6.662 L161.658,7.045 L162.942,7.428 L164.235,7.846 L165.534,8.266 L166.547,8.61 L167.563,8.954 L168.567,9.304 L169.571,9.654 L170.563,10.01 L171.555,10.365 L172.535,10.726 L173.516,11.087 L174.483,11.453 L175.451,11.819 L176.406,12.191 L177.362,12.562 L178.307,12.939 L179.251,13.315 L180.183,13.697 L181.115,14.079 L182.035,14.466 L182.954,14.852 L184.773,15.637 L186.567,16.431 L188.336,17.235 L190.084,18.049 L191.807,18.873 L193.507,19.706 L195.185,20.549 L196.839,21.401 L198.47,22.264 L200.079,23.135 L201.665,24.015 L203.228,24.904 L204.77,25.802 L206.288,26.709 L207.784,27.626 L209.259,28.55 L210.711,29.483 L212.141,30.425 L213.55,31.375 L214.936,32.334 L216.297,33.299 L217.635,34.28 L218.968,35.257 L220.257,36.252 L221.547,37.246 L222.792,38.257 L224.039,39.268 L225.246,40.293 L226.452,41.318 L227.615,42.357 L228.778,43.397 L229.899,44.452 L231.02,45.507 L232.103,46.576 L233.186,47.644 L234.226,48.726 L235.267,49.807 L236.266,50.903 L237.266,52 L238.229,53.109 L239.191,54.216 L240.112,55.337 L241.034,56.457 L241.915,57.591 L242.798,58.725 L243.645,59.871 L244.49,61.015 L245.296,62.171 L246.102,63.327 L246.87,64.495 L247.638,65.664 L248.371,66.844 L249.103,68.022 L249.797,69.211 L250.491,70.4 L251.148,71.599 L251.805,72.8 L252.428,74.01 L253.051,75.219 L253.636,76.438 L254.222,77.656 L254.771,78.884 L255.32,80.114 L255.837,81.352 L256.353,82.588 L256.834,83.833 L257.315,85.079 L257.76,86.332 L258.206,87.587 L258.62,88.85 L259.033,90.111 L259.412,91.38 L259.791,92.648 L260.136,93.925 L260.481,95.203 L260.795,96.487 L261.109,97.77 L261.389,99.059 L261.669,100.348 L261.916,101.644 L262.163,102.942 L262.381,104.245 L262.598,105.546 L262.782,106.853 L262.967,108.16 L263.119,109.473 L263.272,110.787 L263.396,112.105 L263.52,113.422 L263.612,114.744 L263.705,116.065 L263.766,117.391 L263.828,118.718 L263.862,120.049 L263.895,121.379 L263.898,122.712 L263.902,124.045 L263.875,125.381 L263.849,126.718 L263.795,128.058 L263.741,129.397 L263.659,130.738 L263.576,132.079 L263.464,133.422 L263.352,134.767 L263.215,136.112 L263.077,137.457 L262.911,138.803 L262.745,140.149 L262.551,141.496 L262.358,142.844 L262.139,144.192 L261.92,145.54 L261.674,146.887 L261.428,148.235 L261.156,149.582 L260.883,150.93 L260.586,152.278 L260.29,153.625 L259.967,154.971 L259.644,156.316 L259.296,157.661 L258.948,159.006 L258.576,160.35 L258.205,161.693 L257.809,163.033 L257.412,164.374 L256.991,165.712 L256.57,167.051 L256.127,168.387 L255.684,169.723 L255.217,171.055 L254.751,172.387 L254.261,173.715 L253.77,175.045 L253.258,176.37 L252.747,177.695 L252.214,179.015 L251.679,180.336 L251.122,181.651 L250.565,182.967 L249.988,184.278 L249.411,185.589 L248.813,186.893 L248.214,188.198 L247.594,189.497 L246.974,190.797 L246.335,192.09 L245.696,193.383 L245.037,194.67 L244.378,195.956 L243.698,197.235 L243.018,198.515 L242.32,199.787 L241.623,201.06 L240.906,202.324 L240.189,203.588 L239.454,204.844 L238.717,206.1 L237.964,207.349 L237.211,208.597 L236.439,209.836 L235.668,211.074 L234.878,212.303 L234.088,213.533 L233.282,214.754 L232.477,215.974 L231.654,217.184 L230.832,218.394 L229.992,219.593 L229.152,220.793 L228.298,221.983 L227.443,223.172 L226.573,224.35 L225.702,225.527 L224.816,226.693 L223.93,227.86 L223.029,229.015 L222.129,230.17 L221.214,231.313 L220.299,232.455 L219.37,233.584 L218.44,234.714 L217.497,235.832 L216.554,236.949 L215.598,238.052 L214.641,239.155 L213.671,240.244 L212.701,241.334 L211.718,242.41 L210.737,243.486 L209.742,244.547 L208.748,245.608 L207.741,246.653 L206.734,247.7 L205.716,248.732 L204.698,249.763 L203.669,250.779 L202.64,251.794 L201.6,252.793 L200.559,253.793 L199.508,254.777 L198.459,255.761 L197.398,256.728 L196.338,257.694 L195.268,258.643 L194.197,259.593 L193.117,260.527 L192.039,261.459 L190.95,262.374 L189.862,263.289 L188.765,264.185 L187.668,265.081 L186.562,265.96 L185.458,266.839 L184.345,267.698 L183.233,268.557 L182.112,269.397 L180.991,270.237 L179.863,271.058 L178.736,271.879 L177.602,272.68 L176.468,273.48 L175.328,274.26 L174.187,275.04 L173.039,275.8 L171.894,276.561 L170.742,277.299 L169.59,278.037 L168.433,278.754 L167.275,279.471 L166.112,280.168 L164.951,280.864 L163.785,281.538 L162.619,282.212 L161.449,282.862 L160.277,283.513 L159.102,284.142 L157.929,284.771 L156.751,285.377 L155.574,285.982 L154.394,286.562 L153.213,287.144 L152.028,287.703 L150.846,288.261 L149.661,288.794 L148.476,289.328 L147.289,289.836 L146.101,290.344 L144.911,290.829 L143.723,291.313 L142.533,291.772 L141.344,292.23 L140.153,292.662 L138.962,293.094 L137.77,293.503 L136.58,293.911 L135.389,294.291 L134.199,294.672 L133.009,295.026 L131.818,295.379 L130.627,295.707 L129.438,296.035 L128.249,296.335 L127.061,296.635 L125.875,296.905 L124.687,297.177 L123.5,297.422 L122.316,297.666 L121.133,297.881 L119.95,298.097 L118.77,298.282 L117.589,298.468 L116.41,298.627 L115.233,298.785 L114.059,298.913 L112.886,299.041 L111.716,299.138 L110.544,299.235 L109.376,299.304 L108.21,299.373 L107.048,299.411 L105.886,299.448 L104.73,299.454 L103.571,299.46 L102.417,299.436 L101.265,299.413 L100.118,299.357 L98.972,299.301 L97.831,299.212 L96.689,299.123 L95.552,299.004 L94.417,298.885 L93.289,298.733 L92.16,298.581 L91.039,298.394 L89.915,298.208 L88.798,297.99 L87.684,297.773 L86.576,297.521 L85.469,297.27 L84.369,296.983 L83.268,296.696 L82.174,296.376 L81.081,296.058 L79.998,295.703 L78.914,295.349 L77.84,294.959 L76.763,294.568 L75.694,294.143 L74.628,293.72 L73.571,293.259 L72.515,292.797 L71.468,292.298 L70.42,291.798 L69.38,291.264 L68.343,290.731 L67.316,290.16 L66.289,289.589 L65.273,288.979 L64.255,288.368 L63.246,287.722 L62.24,287.078 L61.246,286.393 L60.251,285.71 L59.268,284.986 L58.283,284.261 L57.309,283.499 L56.337,282.739 L55.377,281.939 L54.417,281.138 L53.47,280.297 L52.521,279.454 L51.584,278.573 L50.649,277.694 L49.727,276.773 L48.806,275.852 L47.898,274.888 L46.987,273.925 L46.089,272.922 L45.193,271.921 L44.31,270.877 L43.428,269.833 L42.561,268.745 L41.689,267.652 L40.834,266.538 L39.985,265.398 L39.143,264.235 L38.308,263.052 L37.481,261.847 L36.662,260.619 L35.851,259.37 L35.048,258.099 L34.253,256.805 L33.466,255.489 L32.688,254.152 L31.918,252.79 L31.157,251.408 L30.404,250.002 L29.66,248.573 L28.924,247.122 L28.197,245.649 L27.479,244.151 L26.77,242.631 L26.07,241.088 L25.38,239.52 L24.698,237.93 L24.026,236.317 L23.364,234.679 L22.711,233.018 L22.069,231.333 L21.436,229.623 L20.812,227.891 L20.2,226.134 L19.596,224.35 L19.101,222.855 L18.605,221.359 L18.119,219.871 L17.633,218.384 L17.158,216.905 L16.682,215.427 L16.216,213.955 L15.751,212.485 L15.298,211.022 L14.844,209.559 L14.403,208.104 L13.962,206.648 L13.533,205.199 L13.104,203.751 L12.689,202.309 L12.274,200.868 L11.874,199.433 L11.474,197.997 L11.087,196.567 L10.701,195.138 L10.33,193.714 L9.96,192.291 L9.606,190.873 L9.252,189.454 L8.914,188.04 L8.576,186.627 L8.256,185.218 L7.936,183.81 L7.634,182.406 L7.332,181.001 L7.048,179.599 L6.764,178.199 L6.499,176.802 L6.235,175.405 L5.991,174.012 L5.747,172.617 L5.523,171.225 L5.299,169.834 L5.096,168.446 L4.894,167.057 L4.714,165.671 L4.534,164.284 L4.375,162.898 L4.216,161.513 L4.081,160.13 L3.946,158.747 L3.836,157.364 L3.725,155.98 L3.638,154.597 L3.55,153.215 L3.488,151.834 L3.426,150.452 L3.391,149.07 L3.356,147.687 L3.345,146.303 L3.334,144.921 L3.351,143.537 L3.368,142.154 L3.414,140.769 L3.459,139.382 L3.532,137.994 L3.603,136.608 L3.705,135.219 L3.807,133.83 L3.939,132.438 L4.071,131.045 L4.232,129.649 L4.393,128.255 L4.585,126.857 L4.777,125.459 L5.002,124.057 L5.226,122.654 L5.482,121.247 L5.736,119.841 L6.025,118.43 L6.313,117.02 L6.637,115.604 L6.96,114.187 L7.316,112.764 L7.671,111.343 L8.061,109.916 L8.452,108.49 L8.88,107.056 L9.308,105.621 L9.77,104.18 L10.231,102.74 L10.731,101.294 L11.23,99.847 L11.768,98.392 L12.306,96.936 L12.881,95.473 L13.455,94.011 L14.069,92.54 L14.683,91.07 L15.337,89.591 L15.999,88.096 C16.366,87.268 15.992,86.299 15.164,85.932 C14.336,85.565 13.367,85.939 13,86.767 Z" id="Fill-53"></path>
        </g>
    </g>
</svg>
