<?xml version="1.0" encoding="UTF-8"?>
<svg width="356px" height="337px" viewBox="0 0 356 337" version="1.1" xmlns="http://www.w3.org/2000/svg" xmlns:xlink="http://www.w3.org/1999/xlink">
    <title>105</title>
    <g id="Page-1" stroke="none" stroke-width="1" fill="none" fill-rule="evenodd">
        <g id="105" transform="translate(0.424750, 0.698000)" fill="currentColor">
            <path d="M44.619,95.105 L44.317,96.253 L44.013,97.407 L43.72,98.553 L43.428,99.699 L43.147,100.837 L42.866,101.975 L42.595,103.106 L42.324,104.238 L42.064,105.362 L41.804,106.486 L41.555,107.602 L41.306,108.718 L41.067,109.827 L40.828,110.937 L40.6,112.039 L40.372,113.141 L40.155,114.235 L39.938,115.329 L39.731,116.417 L39.523,117.504 L39.327,118.585 L39.13,119.665 L38.945,120.738 L38.759,121.81 L38.583,122.876 L38.407,123.942 L38.241,125.001 L38.075,126.06 L37.92,127.111 L37.765,128.161 L37.62,129.205 L37.474,130.25 L37.339,131.287 L37.204,132.324 L37.079,133.354 L36.955,134.383 L36.839,135.406 L36.724,136.429 L36.619,137.445 L36.513,138.46 L36.418,139.469 L36.323,140.479 L36.152,142.48 L36,144.468 L35.869,146.442 L35.756,148.403 L35.662,150.349 L35.589,152.28 L35.532,154.199 L35.496,156.103 L35.479,157.992 L35.479,159.869 L35.498,161.731 L35.537,163.578 L35.592,165.413 L35.667,167.233 L35.76,169.043 L35.877,170.824 L35.996,172.612 L36.151,174.37 L36.306,176.129 L36.497,177.859 L36.688,179.587 L36.911,181.29 L37.134,182.995 L37.393,184.671 L37.652,186.347 L37.946,187.995 L38.239,189.642 L38.563,191.263 L38.888,192.885 L39.247,194.48 L39.606,196.075 L39.998,197.642 L40.39,199.207 L40.811,200.747 L41.233,202.288 L41.688,203.802 L42.143,205.316 L42.629,206.802 L43.115,208.287 L43.63,209.746 L44.146,211.207 L44.692,212.641 L45.239,214.075 L45.815,215.481 L46.392,216.885 L46.996,218.265 L47.6,219.646 L48.234,221.001 L48.868,222.355 L49.532,223.682 L50.194,225.007 L50.883,226.307 L51.572,227.609 L52.29,228.884 L53.007,230.16 L53.753,231.408 L54.497,232.654 L55.266,233.876 L56.036,235.1 L56.833,236.297 L57.63,237.493 L58.453,238.664 L59.275,239.832 L60.12,240.976 L60.966,242.122 L61.838,243.241 L62.71,244.36 L63.606,245.4533 L64.501,246.5444 L65.418,247.6118 L66.337,248.6803 L67.279,249.7229 L68.221,250.765 L69.187,251.7812 L70.151,252.7959 L71.136,253.787 L72.122,254.7791 L73.13,255.7457 L74.138,256.7118 L75.168,257.6522 L76.197,258.5912 L77.245,259.5069 L78.294,260.4237 L79.364,261.3149 L80.434,262.2058 L81.525,263.0714 L82.614,263.9355 L83.72,264.7767 L84.829,265.6187 L85.957,266.4355 L87.084,267.252 L88.23,268.0435 L89.375,268.8338 L90.537,269.6014 L91.7,270.3697 L92.88,271.1131 L94.061,271.8564 L95.259,272.5748 L96.456,273.2922 L97.667,273.9873 L98.88,274.6828 L100.11,275.354 L101.339,276.0249 L102.585,276.6714 L103.829,277.3169 L105.086,277.9403 L106.345,278.5642 L107.62,279.164 L108.894,279.7635 L110.182,280.3391 L111.469,280.9137 L112.769,281.4665 L114.069,282.0199 L115.384,282.5493 L116.698,283.0786 L118.025,283.5841 L119.351,284.0888 L120.688,284.5722 L122.027,285.0559 L123.377,285.5161 L124.728,285.976 L126.09,286.4126 L127.45,286.8486 L128.821,287.2634 L130.193,287.6786 L131.575,288.0704 L132.957,288.4621 L134.35,288.8308 L135.741,289.1989 L137.141,289.5462 L138.542,289.8936 L139.952,290.2181 L141.363,290.5423 L142.781,290.844 L144.199,291.1451 L145.624,291.4258 L147.05,291.7065 L148.484,291.9647 L149.918,292.2227 L151.359,292.4585 L152.799,292.6938 L154.245,292.9089 L155.692,293.1241 L157.146,293.3171 L158.599,293.51 L160.058,293.6808 L161.516,293.8513 L162.979,294.0019 L164.443,294.1526 L165.912,294.2812 L167.381,294.4099 L168.854,294.5168 L170.326,294.6235 L171.802,294.7105 L173.279,294.7976 L174.759,294.863 L176.239,294.9284 L177.723,294.9724 L179.205,295.0162 L180.689,295.0407 L182.174,295.0652 L183.662,295.0683 L185.149,295.0714 L186.638,295.0534 L188.126,295.0354 L189.615,294.9981 L191.105,294.9609 L192.596,294.9028 L194.086,294.8446 L195.577,294.7655 L197.067,294.6865 L198.556,294.5885 L200.047,294.4901 L201.536,294.3712 L203.026,294.2522 L204.514,294.1126 L206.002,293.9732 L207.488,293.8153 L208.974,293.6572 L210.459,293.4787 L211.944,293.3004 L213.426,293.1018 L214.906,292.9032 L216.384,292.6865 L217.863,292.4695 L219.339,292.2326 L220.814,291.9956 L222.286,291.7389 L223.756,291.4821 L225.222,291.2075 L226.689,290.9327 L228.152,290.6382 L229.614,290.3436 L231.071,290.0295 L232.526,289.7157 L233.977,289.384 L235.428,289.0522 L236.873,288.701 L238.318,288.3498 L239.756,287.9793 L241.193,287.6091 L242.623,287.2215 L244.054,286.8336 L245.478,286.4266 L246.901,286.0195 L248.316,285.5936 L249.73,285.1679 L251.136,284.7252 L252.544,284.2821 L253.942,283.8203 L255.34,283.3584 L256.728,282.8779 L258.115,282.3972 L259.492,281.8993 L260.871,281.4007 L262.239,280.8839 L263.607,280.367 L264.964,279.8319 L266.32,279.297 L267.665,278.7457 L269.011,278.1938 L270.345,277.624 L271.679,277.0539 L273.001,276.466 L274.321,275.8784 L275.63,275.2746 L276.94,274.6703 L278.236,274.0482 L279.532,273.426 L280.814,272.7861 L282.096,272.1467 L283.364,271.4913 L284.633,270.8353 L285.887,270.1618 L287.141,269.4884 L288.38,268.7975 L289.618,268.107 L290.841,267.401 L292.066,266.6941 L293.274,265.9702 L294.482,265.2461 L295.673,264.5051 L296.863,263.7645 L298.038,263.0085 L299.213,262.2518 L300.371,261.4782 L301.529,260.7044 L302.668,259.914 L303.807,259.1242 L304.928,258.3193 L306.051,257.5134 L307.154,256.691 L308.258,255.8684 L309.341,255.0295 L310.424,254.1911 L311.489,253.3383 L312.554,252.4851 L313.6,251.6156 L314.646,250.7458 L315.67,249.86 L316.693,248.9747 L317.697,248.075 L318.701,247.1742 L319.684,246.2574 L320.667,245.34 L321.627,244.408 L322.586,243.476 L323.524,242.529 L324.463,241.582 L325.379,240.618 L326.295,239.655 L327.187,238.676 L328.077,237.698 L328.946,236.706 L329.815,235.712 L330.66,234.704 L331.504,233.694 L332.323,232.67 L333.141,231.647 L333.936,230.61 L334.731,229.572 L335.5,228.518 L336.269,227.464 L337.011,226.395 L337.752,225.328 L338.468,224.247 L339.185,223.164 L339.874,222.067 L340.563,220.969 L341.223,219.857 L341.883,218.746 L342.516,217.622 L343.151,216.496 L343.756,215.356 L344.36,214.215 L344.935,213.06 L345.509,211.907 L346.055,210.741 L346.603,209.573 L347.119,208.39 L347.635,207.208 L348.12,206.012 L348.604,204.817 L349.058,203.61 L349.514,202.4 L349.937,201.178 L350.36,199.954 L350.751,198.718 L351.14,197.483 L351.5,196.236 L351.859,194.986 L352.185,193.724 L352.511,192.461 L352.802,191.185 L353.093,189.911 L353.352,188.625 L353.612,187.337 L353.836,186.036 L354.06,184.735 L354.248,183.421 L354.436,182.109 L354.591,180.786 L354.746,179.46 L354.865,178.122 L354.982,176.784 L355.063,175.434 L355.144,174.085 L355.191,172.725 L355.237,171.364 L355.245,169.99 L355.253,168.616 L355.223,167.23 L355.192,165.846 L355.126,164.452 L355.06,163.055 L354.954,161.647 L354.848,160.238 L354.702,158.818 L354.556,157.4 L354.373,155.972 L354.19,154.542 L353.966,153.1 L353.742,151.659 L353.477,150.206 L353.211,148.755 L352.908,147.294 L352.604,145.832 L352.258,144.358 L351.912,142.885 L351.523,141.4 L351.134,139.918 L350.706,138.426 L350.277,136.932 L349.805,135.428 L349.333,133.923 L348.816,132.409 L348.3,130.896 L347.744,129.373 L347.187,127.849 L346.585,126.315 L345.983,124.781 L345.335,123.237 L344.69,121.699 L344.073,120.284 L343.459,118.874 L342.839,117.482 L342.219,116.091 L341.594,114.719 L340.969,113.347 L340.341,111.993 L339.711,110.639 L339.077,109.303 L338.443,107.968 L337.804,106.651 L337.166,105.335 L336.523,104.036 L335.88,102.737 L335.232,101.457 L334.584,100.176 L333.932,98.915 L333.28,97.653 L332.624,96.409 L331.967,95.165 L331.306,93.938 L330.645,92.712 L329.979,91.505 L329.314,90.298 L328.645,89.108 L327.975,87.917 L327.301,86.745 L326.626,85.572 L325.948,84.418 L325.27,83.265 L324.588,82.128 L323.906,80.99 L323.219,79.871 L322.532,78.752 L321.842,77.65 L321.151,76.55 L320.457,75.465 L319.762,74.38 L319.064,73.313 L318.365,72.246 L317.663,71.197 L316.961,70.148 L316.255,69.116 L315.549,68.082 L314.839,67.067 L314.129,66.051 L313.415,65.054 L312.701,64.056 L311.984,63.075 L311.267,62.093 L310.546,61.128 L309.825,60.163 L309.1,59.216 L308.376,58.27 L307.648,57.338 L306.92,56.407 L306.188,55.492 L305.456,54.578 L304.721,53.681 L303.986,52.784 L303.248,51.903 L302.51,51.021 L301.768,50.156 L301.026,49.291 L300.281,48.443 L299.536,47.596 L298.788,46.763 L298.04,45.931 L297.288,45.115 L296.536,44.299 L295.781,43.499 L295.027,42.7 L294.27,41.916 L293.512,41.132 L292.751,40.364 L291.99,39.596 L291.226,38.845 L290.463,38.094 L289.697,37.358 L288.93,36.621 L288.16,35.901 L287.39,35.181 L286.618,34.476 L285.846,33.773 L285.071,33.084 L284.296,32.394 L283.518,31.721 L282.74,31.047 L281.959,30.389 L281.178,29.732 L280.396,29.09 L279.61,28.444 L278.041,27.192 L276.464,25.969 L274.883,24.775 L273.296,23.611 L271.705,22.479 L270.11,21.374 L268.509,20.3 L266.905,19.257 L265.296,18.242 L263.683,17.256 L262.066,16.301 L260.445,15.373 L258.82,14.474 L257.191,13.605 L255.559,12.764 L253.923,11.951 L252.284,11.167 L250.642,10.41 L248.995,9.681 L247.347,8.982 L245.696,8.308 L244.041,7.662 L242.383,7.045 L240.724,6.453 L239.061,5.888 L237.397,5.352 L235.73,4.841 L234.061,4.356 L232.39,3.899 L230.718,3.467 L229.042,3.062 L227.366,2.683 L225.688,2.329 L224.008,2.001 L222.327,1.699 L220.646,1.422 L218.962,1.17 L217.278,0.944 L215.593,0.741 L213.907,0.563 L212.22,0.411 L210.534,0.282 L208.845,0.178 L207.158,0.098 L205.47,0.041 L203.781,0.008 L202.094,0 L200.406,0.014 L198.717,0.051 L197.026,0.113 L195.344,0.206 L193.657,0.299 L191.971,0.439 L190.285,0.579 L188.601,0.765 L186.919,0.951 L185.238,1.178 L183.556,1.405 L181.877,1.676 L180.198,1.947 L178.521,2.263 L176.846,2.577 L175.175,2.931 L173.502,3.286 L171.833,3.682 L170.164,4.079 L168.499,4.518 L166.836,4.956 L165.177,5.432 L163.517,5.908 L161.862,6.424 L160.208,6.941 L158.558,7.497 L156.91,8.053 L155.268,8.644 L153.625,9.236 L151.987,9.866 L150.35,10.497 L148.72,11.165 L147.091,11.832 L145.469,12.534 L143.846,13.236 L142.23,13.974 L140.614,14.712 L139.007,15.486 L137.4,16.26 L135.802,17.065 L134.202,17.871 L132.612,18.712 L131.021,19.552 L129.44,20.427 L127.86,21.3 L126.289,22.204 L124.716,23.109 L123.154,24.045 L121.592,24.982 L120.041,25.95 L118.49,26.918 L116.949,27.914 L115.408,28.911 L113.878,29.938 L112.348,30.965 L110.83,32.023 L109.313,33.079 L107.807,34.162 L106.3,35.246 L104.806,36.358 L103.312,37.47 L101.831,38.611 L100.351,39.75 L98.883,40.914 L97.415,42.079 L95.96,43.271 L94.505,44.462 L93.065,45.68 L91.625,46.897 L90.199,48.137 L88.773,49.377 L87.361,50.642 L85.949,51.908 L84.553,53.197 L83.158,54.485 L81.778,55.795 L80.396,57.105 L79.031,58.438 L77.667,59.772 L76.319,61.127 L74.971,62.481 L73.64,63.855 L72.308,65.23 L70.993,66.625 L69.678,68.021 L68.382,69.436 L67.086,70.851 L65.807,72.283 L64.528,73.717 L63.267,75.169 L62.007,76.621 L60.766,78.091 L59.525,79.561 L58.302,81.046 L57.079,82.532 L55.876,84.035 L54.674,85.538 L53.491,87.058 L52.31,88.576 L51.147,90.109 L49.984,91.643 L48.842,93.191 L47.701,94.739 L46.581,96.302 L45.462,97.864 L44.363,99.439 L43.264,101.014 L42.187,102.602 L41.111,104.19 L40.057,105.791 L39.004,107.391 L37.973,109.001 L36.941,110.613 L35.933,112.235 L34.926,113.858 L33.943,115.491 L32.96,117.123 L32,118.764 L31.039,120.406 L30.104,122.057 L29.168,123.708 L28.259,125.368 L27.35,127.027 L26.464,128.692 L25.578,130.359 L24.719,132.033 L23.86,133.707 L23.028,135.388 L22.196,137.068 L21.389,138.753 L20.582,140.439 L19.802,142.13 L19.022,143.822 L18.271,145.517 L17.521,147.213 L16.796,148.911 L16.071,150.611 L15.375,152.314 L14.679,154.017 L14.012,155.723 L13.346,157.428 L12.707,159.135 L12.068,160.843 L11.459,162.552 L10.851,164.261 L10.274,165.971 L9.697,167.681 L9.148,169.39 L8.599,171.1 L8.081,172.81 L7.564,174.52 L7.079,176.229 L6.594,177.937 L6.138,179.643 L5.683,181.351 L5.26,183.055 L4.837,184.76 L4.448,186.462 L4.059,188.163 L3.701,189.861 L3.343,191.559 L3.019,193.254 L2.695,194.948 L2.406,196.638 L2.116,198.326 L1.859,200.009 L1.602,201.693 L1.38,203.372 L1.159,205.05 L0.973,206.721 L0.788,208.391 L0.636,210.055 L0.483,211.719 L0.368,213.376 L0.253,215.032 L0.175,216.68 L0.097,218.326 L0.053,219.964 L0.01,221.603 L0.005,223.232 L0,224.862 L0.034,226.48 L0.068,228.097 L0.137,229.703 L0.207,231.312 L0.316,232.908 L0.425,234.504 L0.574,236.087 L0.724,237.669 L0.91,239.239 L1.096,240.81 L1.323,242.367 L1.551,243.925 L1.819,245.4673 L2.088,247.0083 L2.394,248.5351 L2.701,250.0639 L3.051,251.5765 L3.4,253.0894 L3.792,254.5853 L4.184,256.0797 L4.615,257.558 L5.047,259.0383 L5.522,260.5003 L5.997,261.9626 L6.517,263.406 L7.034,264.843 L7.585,266.2768 L8.158,267.6971 L8.752,269.1064 L9.367,270.5064 L10.006,271.8969 L10.667,273.2758 L11.348,274.645 L12.053,276.0041 L12.781,277.3512 L13.53,278.688 L14.303,280.0141 L15.099,281.3277 L15.916,282.6306 L16.758,283.9222 L17.623,285.2008 L18.509,286.468 L19.42,287.7236 L20.355,288.9657 L21.312,290.1959 L22.293,291.4139 L23.298,292.6179 L24.326,293.8095 L25.378,294.9885 L26.455,296.1528 L27.554,297.3044 L28.679,298.4426 L29.828,299.5658 L30.999,300.6758 L32.197,301.7718 L33.419,302.8524 L34.664,303.9194 L35.935,304.9718 L37.23,306.0083 L38.549,307.0306 L39.895,308.0379 L41.265,309.0288 L42.659,310.0052 L44.08,310.9659 L45.526,311.9099 L46.995,312.8388 L48.492,313.7516 L50.014,314.6472 L51.56,315.5272 L53.133,316.3907 L54.732,317.2364 L56.356,318.0663 L58.007,318.879 L59.684,319.6736 L61.385,320.4519 L63.115,321.2126 L64.87,321.9548 L66.65,322.6803 L68.459,323.3875 L70.294,324.0759 L72.155,324.747 L74.04,325.3985 L75.001,325.7162 L75.959,326.0326 L76.929,326.3402 L77.9,326.648 L78.885,326.9463 L79.869,327.2444 L80.868,327.5327 L81.866,327.8208 L82.877,328.0999 L83.889,328.3792 L84.915,328.6487 L85.94,328.9181 L86.98,329.1775 L88.02,329.4365 L89.072,329.6865 L90.125,329.9366 L91.192,330.1766 L92.259,330.4166 L93.34,330.6462 L94.421,330.8758 L95.515,331.0959 L96.609,331.3161 L97.719,331.526 L98.827,331.7358 L99.951,331.9352 L101.074,332.1344 L102.21,332.3241 L103.346,332.5138 L104.498,332.6928 L105.649,332.8719 L106.815,333.0403 L107.98,333.2085 L109.159,333.3668 L110.338,333.5254 L111.532,333.6729 L112.726,333.8205 L113.935,333.9571 L115.143,334.0937 L116.365,334.2203 L117.587,334.3468 L118.824,334.4624 L120.062,334.578 L121.314,334.6826 L122.565,334.7871 L123.831,334.8813 L125.096,334.9757 L126.377,335.0586 L127.658,335.1416 L128.954,335.2131 L130.25,335.2845 L131.559,335.3456 L132.869,335.4066 L134.194,335.4561 L135.519,335.5056 L136.86,335.5434 L138.2,335.5811 L139.359,335.6019 L140.511,335.6225 L141.663,335.6432 L142.823,335.6638 L143.97,335.6685 L145.108,335.6732 L146.246,335.6779 L147.392,335.6826 L148.525,335.6715 L149.649,335.6604 L150.773,335.6493 L151.905,335.638 L153.025,335.6126 L154.136,335.5874 L155.248,335.5621 L156.368,335.5366 L157.475,335.4957 L158.573,335.455 L159.67,335.4143 L160.777,335.3733 L161.87,335.317 L162.954,335.2611 L164.038,335.2052 L165.13,335.1488 L166.21,335.0787 L167.282,335.0091 L168.353,334.9395 L169.434,334.8694 L170.501,334.7842 L171.558,334.6997 L172.616,334.6152 L173.683,334.5299 L174.736,334.4299 L175.781,334.3308 L176.824,334.2315 L177.877,334.1316 L178.917,334.0183 L179.948,333.9059 L180.98,333.7935 L182.021,333.6803 L183.049,333.5525 L184.066,333.4259 L185.084,333.2992 L186.112,333.1714 L187.125,333.0293 L188.13,332.8884 L189.134,332.7477 L190.147,332.6056 L191.148,332.4507 L192.14,332.2971 L193.131,332.1436 L194.136,331.988 L196.099,331.6521 L198.065,331.3156 L200.005,330.9518 L201.943,330.588 L203.857,330.1997 L205.771,329.811 L207.659,329.3956 L209.546,328.9802 L211.407,328.5384 L213.267,328.0968 L215.102,327.6314 L216.938,327.1659 L218.747,326.6745 L220.556,326.1832 L222.338,325.6665 L224.12,325.15 L225.877,324.6108 L227.635,324.0713 L229.366,323.5071 L231.097,322.9427 L232.801,322.3541 L234.505,321.7658 L236.184,321.1557 L237.864,320.5453 L239.517,319.9112 L241.171,319.2773 L242.798,318.6201 L244.423,317.9631 L246.025,317.2855 L247.628,316.6073 L249.204,315.9065 L250.78,315.2057 L252.329,314.4826 L253.878,313.76 L255.402,313.0175 L256.928,312.2745 L258.427,311.51 L259.926,310.7453 L261.398,309.9597 L262.87,309.1743 L264.317,308.3701 L265.766,307.5653 L267.188,306.7401 L268.61,305.9148 L270.006,305.0693 L271.401,304.2243 L272.772,303.3615 L274.144,302.498 L275.489,301.6151 L276.835,300.7321 L278.154,299.8302 L279.473,298.9287 L280.768,298.0102 L282.063,297.091 L283.333,296.1537 L284.602,295.216 L285.845,294.2606 L287.088,293.3056 L288.307,292.3347 L289.526,291.363 L290.72,290.3741 L291.914,289.385 L293.081,288.3791 L294.248,287.3738 L295.391,286.3534 L296.535,285.3322 L297.653,284.2949 L298.771,283.2575 L299.863,282.2042 L300.954,281.1517 L302.022,280.0849 L303.091,279.0175 L304.134,277.9349 L305.177,276.8521 L306.193,275.7547 L307.21,274.6579 L308.203,273.5481 L309.196,272.4373 L310.164,271.3126 L311.132,270.1877 L312.074,269.0492 L313.016,267.9113 L313.934,266.7613 L314.853,265.6106 L315.746,264.4466 L316.639,263.2828 L317.507,262.1062 L318.374,260.9304 L319.218,259.7435 L320.063,258.5556 L320.882,257.3558 L321.701,256.156 L322.495,254.9444 L323.288,253.7339 L324.058,252.513 L324.828,251.2914 L325.573,250.0587 L326.319,248.826 L327.039,247.5827 L327.758,246.3404 L328.455,245.089 L329.151,243.836 L329.823,242.574 L330.495,241.311 L331.141,240.04 L331.787,238.769 L332.411,237.489 L333.034,236.209 L333.633,234.92 L334.231,233.631 L334.805,232.333 L335.378,231.037 L335.928,229.733 L336.479,228.428 L337.005,227.116 L337.531,225.803 L338.031,224.483 L338.532,223.164 L339.01,221.839 L339.488,220.512 L339.942,219.18 L340.395,217.847 L340.824,216.507 L341.252,215.169 L341.658,213.825 L342.064,212.481 L342.446,211.13 L342.827,209.78 L343.184,208.424 L343.54,207.07 L343.875,205.711 L344.209,204.351 L344.519,202.986 L344.829,201.622 L345.114,200.253 L345.399,198.885 L345.662,197.514 L345.925,196.142 L346.164,194.766 L346.403,193.39 L346.617,192.012 L346.831,190.634 L347.023,189.254 L347.215,187.872 L347.383,186.488 L347.551,185.105 L347.694,183.719 L347.838,182.334 L347.959,180.947 L348.08,179.56 L348.177,178.171 L348.275,176.782 L348.348,175.393 L348.421,174.004 L348.472,172.614 L348.523,171.224 L348.55,169.833 L348.577,168.443 L348.581,167.052 L348.584,165.662 L348.565,164.273 L348.546,162.883 L348.504,161.493 L348.461,160.104 L348.395,158.715 L348.329,157.328 L348.241,155.942 L348.153,154.555 L348.041,153.169 L347.929,151.784 L347.794,150.401 L347.658,149.019 L347.502,147.639 L347.344,146.258 L347.164,144.88 L346.983,143.502 L346.779,142.127 L346.575,140.753 L346.349,139.383 L346.124,138.011 L345.875,136.644 L345.625,135.276 L345.353,133.912 L345.08,132.55 L344.787,131.192 L344.493,129.833 L344.176,128.478 L343.858,127.124 L343.518,125.775 L343.177,124.427 L342.815,123.084 L342.454,121.741 L342.068,120.403 L341.683,119.065 L341.275,117.734 L340.867,116.404 L340.438,115.079 L340.008,113.754 L339.556,112.436 L339.103,111.118 L338.627,109.807 L338.152,108.497 L337.656,107.195 L337.159,105.891 L336.64,104.596 L336.12,103.3 L335.578,102.013 L335.036,100.727 L334.473,99.449 L333.909,98.17 L333.323,96.9 L332.737,95.631 L332.128,94.37 L331.52,93.111 L330.89,91.861 L330.261,90.61 L329.608,89.369 L328.956,88.128 L328.281,86.897 L327.606,85.668 L326.911,84.448 L326.215,83.228 L325.497,82.019 L324.778,80.81 L324.037,79.612 L323.297,78.416 L322.536,77.23 L321.775,76.044 L320.991,74.87 L320.207,73.696 L319.401,72.534 L318.595,71.374 L317.769,70.225 L316.943,69.076 L316.094,67.94 L315.245,66.803 L314.373,65.681 L313.503,64.56 L312.612,63.451 L311.72,62.342 L310.807,61.247 L309.893,60.152 L308.957,59.072 L308.022,57.993 L307.067,56.927 L306.111,55.861 L305.133,54.811 L304.155,53.76 L303.155,52.725 L302.155,51.691 L301.136,50.672 L300.115,49.652 L299.074,48.649 L298.031,47.646 L296.968,46.659 L295.905,45.674 L294.822,44.704 L293.738,43.733 L292.632,42.781 L291.527,41.828 L290.399,40.893 L289.273,39.959 L288.127,39.041 L286.979,38.123 L285.811,37.224 L284.642,36.325 L283.452,35.445 L282.262,34.565 L281.053,33.703 L279.843,32.841 L278.612,31.998 L277.38,31.156 L276.128,30.333 L274.875,29.511 L273.604,28.708 L272.332,27.904 L271.038,27.121 L269.744,26.338 L268.429,25.576 L267.115,24.815 L265.782,24.073 L264.448,23.331 L263.092,22.611 L261.737,21.89 L260.36,21.192 L258.984,20.495 L257.589,19.818 L256.193,19.141 L254.777,18.486 L253.36,17.832 L251.922,17.201 L250.485,16.57 L249.028,15.961 L247.571,15.352 L246.094,14.766 L244.615,14.181 L243.117,13.62 L241.619,13.059 L240.102,12.521 L238.584,11.983 L237.046,11.469 L235.507,10.956 L233.948,10.468 L232.389,9.98 L230.812,9.516 L229.234,9.052 L227.636,8.613 L226.037,8.175 L224.418,7.763 L222.799,7.352 L221.162,6.965 L219.524,6.577 L217.866,6.217 L216.208,5.857 L214.529,5.524 L212.851,5.192 L211.155,4.884 L209.458,4.577 L207.74,4.298 L206.022,4.019 L204.285,3.768 L202.548,3.518 L200.792,3.293 L199.036,3.069 L197.26,2.874 L195.483,2.679 L193.687,2.514 L191.891,2.349 L190.077,2.211 L188.262,2.073 L186.427,1.965 L184.593,1.857 L182.738,1.78 L180.884,1.703 L179.012,1.654 L177.139,1.606 L175.246,1.588 L173.353,1.571 L171.44,1.585 L169.529,1.599 L167.599,1.642 L165.668,1.686 L163.718,1.762 L161.767,1.837 L159.797,1.946 L157.828,2.055 L155.841,2.193 L153.856,2.332 L152.845,2.418 L151.845,2.504 L150.846,2.589 L149.838,2.676 L148.82,2.779 L147.811,2.881 L146.801,2.984 L145.784,3.087 L144.758,3.206 L143.74,3.324 L142.722,3.442 L141.695,3.561 L140.659,3.697 L139.631,3.832 L138.603,3.967 L137.566,4.103 L136.52,4.257 L135.483,4.409 L134.445,4.562 L133.397,4.716 L131.802,4.974 L130.203,5.233 L128.629,5.516 L127.054,5.8 L125.504,6.108 L123.954,6.415 L122.427,6.745 L120.898,7.074 L119.394,7.427 L117.889,7.781 L116.409,8.157 L114.929,8.534 L113.471,8.931 L112.012,9.329 L110.577,9.749 L109.142,10.17 L107.73,10.613 L106.319,11.056 L104.93,11.519 L103.54,11.982 L102.174,12.468 L100.807,12.953 L99.464,13.46 L98.122,13.967 L96.801,14.493 L95.479,15.02 L94.181,15.567 L92.883,16.115 L91.607,16.683 L90.333,17.252 L89.08,17.838 L87.826,18.426 L86.595,19.033 L85.364,19.641 L84.156,20.268 L82.949,20.895 L81.763,21.54 L80.576,22.186 L79.412,22.85 L78.248,23.515 L77.106,24.199 L75.966,24.883 L74.846,25.583 L73.726,26.285 L72.628,27.004 L71.531,27.724 L70.455,28.462 L69.381,29.199 L68.327,29.953 L67.272,30.707 L66.24,31.479 L65.208,32.251 L64.198,33.04 L63.19,33.828 L62.201,34.633 L61.212,35.437 L60.245,36.259 L59.278,37.081 L58.333,37.919 L57.389,38.756 L56.465,39.608 L55.54,40.461 L54.637,41.33 L53.735,42.198 L52.854,43.082 L51.975,43.966 L51.115,44.863 L50.254,45.762 L49.415,46.675 L48.576,47.588 L47.759,48.516 L46.943,49.443 L46.146,50.383 L45.349,51.324 L44.574,52.28 L43.798,53.235 L43.044,54.204 L42.291,55.172 L41.557,56.152 L40.823,57.134 L40.11,58.128 L39.396,59.123 L38.705,60.13 L38.014,61.137 L37.342,62.155 L36.669,63.174 L36.018,64.205 L35.367,65.236 L34.737,66.279 L34.107,67.322 L33.497,68.375 L32.886,69.429 L32.295,70.494 L31.705,71.559 L31.136,72.636 L30.567,73.712 L30.017,74.797 L29.467,75.883 L28.937,76.98 L28.407,78.077 L27.898,79.184 L27.389,80.291 L26.899,81.406 L26.409,82.522 L25.938,83.648 L25.469,84.774 L25.019,85.909 L24.569,87.044 L24.138,88.186 L23.707,89.33 L23.296,90.482 L22.885,91.634 L22.493,92.795 L22.103,93.955 L21.73,95.123 L21.357,96.291 L21.004,97.467 L20.651,98.643 L20.318,99.827 L19.985,101.01 L19.67,102.2 L19.355,103.39 L19.059,104.588 L18.764,105.786 L18.488,106.99 L18.213,108.193 L17.955,109.403 L17.697,110.613 L17.458,111.829 L17.219,113.046 L17,114.268 L16.781,115.49 L16.579,116.716 L16.377,117.944 L16.195,119.176 L16.012,120.409 L15.848,121.647 L15.685,122.884 L15.538,124.125 L15.392,125.367 L15.265,126.613 L15.137,127.86 L15.028,129.11 L14.92,130.36 L14.828,131.613 L14.737,132.868 L14.664,134.125 L14.591,135.383 L14.536,136.644 L14.482,137.904 L14.444,139.167 L14.407,140.431 L14.387,141.698 L14.368,142.964 L14.367,144.233 L14.366,145.501 L14.382,146.771 L14.398,148.042 L14.432,149.315 L14.466,150.588 L14.517,151.862 L14.569,153.136 L14.637,154.411 L14.706,155.686 L14.792,156.963 L14.878,158.239 L14.982,159.517 L15.086,160.793 L15.206,162.07 L15.326,163.348 L15.464,164.626 L15.602,165.903 L15.757,167.181 L15.912,168.458 L16.084,169.735 L16.255,171.012 L16.444,172.289 L16.632,173.565 L16.838,174.841 L17.044,176.116 L17.266,177.389 L17.488,178.664 L17.726,179.937 L17.965,181.21 L18.221,182.481 L18.477,183.751 L18.748,185.02 L19.02,186.289 L19.308,187.555 L19.596,188.822 L19.902,190.086 L20.207,191.349 L20.527,192.61 L20.847,193.871 L21.184,195.129 L21.521,196.387 L21.875,197.641 L22.229,198.895 L22.597,200.146 L22.966,201.396 L23.351,202.643 L23.736,203.89 L24.137,205.133 L24.539,206.374 L24.955,207.612 L25.371,208.85 L25.803,210.083 L26.236,211.316 L26.684,212.544 L27.133,213.771 L27.596,214.993 L28.059,216.216 L28.538,217.433 L29.017,218.65 L29.512,219.861 L30.007,221.071 L30.516,222.275 L31.025,223.48 L31.55,224.679 L32.075,225.877 L32.616,227.068 L33.157,228.259 L33.711,229.443 L34.266,230.627 L34.836,231.805 L35.407,232.982 L35.992,234.151 L36.578,235.319 L37.177,236.481 L37.777,237.643 L38.392,238.796 L39.007,239.949 L39.637,241.094 L40.266,242.238 L40.91,243.374 L41.554,244.511 L42.212,245.6378 L42.871,246.7651 L43.545,247.8828 L44.218,248.9998 L44.905,250.108 L45.592,251.2166 L46.294,252.3152 L46.996,253.4138 L47.713,254.5019 L48.429,255.5894 L49.159,256.6672 L49.889,257.7456 L50.633,258.813 L51.378,259.8803 L52.136,260.9365 L52.895,261.9919 L53.667,263.037 L54.438,264.0825 L55.225,265.1162 L56.011,266.1499 L56.812,267.1714 L57.612,268.1924 L58.425,269.202 L59.238,270.2121 L60.065,271.2096 L60.893,272.207 L61.734,273.1915 L62.575,274.1754 L63.429,275.1472 L64.283,276.1195 L65.151,277.0782 L66.019,278.037 L66.9,278.9818 L67.781,279.9261 L68.675,280.8575 L69.569,281.7894 L70.477,282.7069 L71.384,283.6244 L72.305,284.5271 L73.226,285.4293 L74.159,286.3177 L75.092,287.2068 L76.039,288.0804 L76.986,288.9542 L77.946,289.8122 L78.905,290.6698 L79.876,291.5128 L80.848,292.3564 L81.834,293.1838 L82.819,294.0111 L83.817,294.822 L84.814,295.6324 L85.823,296.4275 L86.834,297.2231 L87.856,298.0016 L88.879,298.7801 L89.915,299.5412 L90.949,300.3019 L91.996,301.0465 L93.043,301.7916 L94.103,302.5186 L95.163,303.2458 L96.235,303.9547 L97.307,304.6631 L98.39,305.3546 L99.474,306.0466 L100.57,306.7198 L101.666,307.3929 L102.774,308.047 L103.882,308.7005 L105,309.3365 L106.12,309.9729 L107.252,310.5896 L108.384,311.2063 L109.527,311.8029 L110.67,312.3993 L111.824,312.9774 L112.979,313.5558 L114.145,314.1136 L115.311,314.6715 L116.49,315.2085 L117.667,315.7451 L118.855,316.2624 L120.044,316.7801 L121.245,317.2763 L122.445,317.7726 L123.657,318.2472 L124.869,318.7213 L126.09,319.1755 L127.313,319.6299 L128.547,320.062 L129.781,320.4941 L131.026,320.9037 L132.271,321.3128 L133.525,321.7011 L134.781,322.0898 L136.048,322.4553 L137.314,322.8206 L138.592,323.1626 L139.869,323.5042 L141.156,323.8243 L142.443,324.1446 L143.742,324.4409 L145.04,324.737 L146.35,325.0089 L147.658,325.2805 L148.976,325.5298 L150.295,325.7791 L151.625,326.0036 L152.955,326.228 L154.295,326.4272 L155.634,326.6262 L156.983,326.8021 L158.333,326.9781 L159.693,327.1283 L161.053,327.2784 L162.423,327.4024 L163.792,327.5265 L165.171,327.6264 L166.551,327.7264 L167.94,327.7998 L169.33,327.8733 L170.73,327.9198 L172.128,327.9662 L173.536,327.988 L174.945,328.0096 L176.363,328.0039 L177.781,327.998 L179.21,327.9644 L180.637,327.9308 L182.073,327.8717 L183.51,327.8123 L184.957,327.7248 L186.403,327.6372 L187.859,327.521 L189.314,327.4048 L190.778,327.2623 L192.242,327.1196 L193.716,326.9478 L195.19,326.776 L196.673,326.5746 L198.155,326.3733 L199.645,326.145 L201.136,325.9165 L202.636,325.6579 L204.137,325.3993 L205.646,325.1103 L207.151,324.8221 L208.266,324.5952 L209.377,324.3686 L210.479,324.1355 L211.581,323.9022 L212.672,323.6622 L213.764,323.4223 L214.846,323.1764 L215.929,322.9304 L217.002,322.6777 L218.075,322.425 L219.139,322.1659 L220.201,321.9066 L221.255,321.6416 L222.31,321.3763 L223.354,321.1047 L224.399,320.833 L225.434,320.5549 L226.468,320.2768 L227.494,319.993 L228.52,319.709 L229.536,319.4188 L230.552,319.1285 L231.559,318.832 L232.567,318.535 L233.562,318.2295 L234.551,317.9256 L235.541,317.6218 L236.538,317.3155 L237.517,316.9968 L238.487,316.6806 L239.457,316.3646 L240.435,316.0457 L241.394,315.7148 L242.345,315.3867 L243.296,315.0586 L244.257,314.7269 L246.13,314.0472 L248.005,313.3662 L249.843,312.6618 L251.68,311.9572 L253.48,311.2296 L255.279,310.5022 L257.044,309.7541 L258.81,309.0057 L260.538,308.2348 L262.267,307.4638 L263.958,306.6709 L265.648,305.8783 L267.305,305.0659 L268.962,304.2531 L270.583,303.4192 L272.203,302.5849 L273.787,301.73 L275.37,300.8753 L276.919,300.0019 L278.47,299.1281 L279.984,298.2341 L281.498,297.3401 L282.976,296.4262 L284.453,295.5125 L285.897,294.5807 L287.342,293.648 L288.75,292.6965 L290.159,291.7448 L291.532,290.7745 L292.904,289.8048 L294.243,288.8185 L295.584,287.8314 L296.889,286.8265 L298.194,285.8216 L299.464,284.7992 L300.733,283.7772 L301.97,282.7398 L303.209,281.7016 L304.412,280.6467 L305.615,279.5918 L306.783,278.5205 L307.951,277.4497 L309.087,276.3645 L310.224,275.2785 L311.326,274.1769 L312.429,273.0752 L313.497,271.9583 L314.564,270.8421 L315.601,269.7124 L316.638,268.5819 L317.642,267.4369 L318.645,266.2918 L319.615,265.1327 L320.584,263.9743 L321.523,262.8034 L322.462,261.6318 L323.367,260.4467 L324.273,259.2617 L325.146,258.0637 L326.018,256.8664 L326.86,255.6578 L327.702,254.4483 L328.512,253.2265 L329.321,252.0046 L330.098,250.771 L330.874,249.5381 L331.621,248.2949 L332.368,247.0508 L333.083,245.7956 L333.797,244.54 L334.48,243.275 L335.162,242.01 L335.815,240.736 L336.468,239.46 L337.09,238.175 L337.711,236.89 L338.302,235.596 L338.891,234.302 L339.452,233 L340.013,231.697 L340.543,230.386 L341.073,229.074 L341.573,227.754 L342.071,226.436 L342.542,225.109 L343.012,223.782 L343.452,222.447 L343.892,221.113 L344.302,219.771 L344.711,218.43 L345.093,217.083 L345.475,215.735 L345.826,214.38 L346.178,213.026 L346.5,211.665 L346.821,210.305 L347.115,208.941 L347.409,207.575 L347.674,206.204 L347.939,204.833 L348.175,203.457 L348.41,202.082 L348.618,200.703 L348.827,199.323 L349.006,197.939 L349.186,196.555 L349.338,195.167 L349.489,193.78 L349.614,192.39 L349.739,191 L349.836,189.606 L349.932,188.212 L350.001,186.815 L350.069,185.42 L350.112,184.022 L350.154,182.623 L350.169,181.223 L350.183,179.823 L350.17,178.421 L350.157,177.02 L350.119,175.617 L350.08,174.214 L350.014,172.811 L349.949,171.407 L349.856,170.003 L349.762,168.6 L349.645,167.196 L349.527,165.792 L349.383,164.389 L349.238,162.985 L349.067,161.582 L348.895,160.18 L348.7,158.779 L348.505,157.377 L348.283,155.976 L348.061,154.576 L347.813,153.177 L347.565,151.78 L347.293,150.384 L347.022,148.988 L346.724,147.594 L346.427,146.2 L346.104,144.809 L345.781,143.419 L345.435,142.032 L345.089,140.644 L344.717,139.26 L344.346,137.876 L343.949,136.497 L343.553,135.117 L343.134,133.742 L342.715,132.366 L342.271,130.995 L341.828,129.625 L341.359,128.259 L340.891,126.894 L340.401,125.534 L339.911,124.173 L339.396,122.819 L338.882,121.464 L338.343,120.116 L337.805,118.769 L337.245,117.427 L336.684,116.085 L336.101,114.75 L335.517,113.415 L334.909,112.088 L334.302,110.761 L333.674,109.441 L333.045,108.121 L332.394,106.809 L331.742,105.497 L331.067,104.193 L330.393,102.89 L329.698,101.596 L329.003,100.301 L328.285,99.015 L327.567,97.729 L326.827,96.453 L326.087,95.177 L325.327,93.911 L324.567,92.644 L323.784,91.387 L323.002,90.131 L322.198,88.885 L321.394,87.64 L320.57,86.405 L319.746,85.17 L318.901,83.946 L318.055,82.722 L317.189,81.51 L316.323,80.299 L315.437,79.099 L314.551,77.899 L313.644,76.711 L312.737,75.523 L311.81,74.348 L310.883,73.174 L309.937,72.012 L308.99,70.849 L308.023,69.7 L307.057,68.552 L306.07,67.417 L305.083,66.283 L304.078,65.163 L303.073,64.042 L302.048,62.936 L301.023,61.829 L299.978,60.738 L298.933,59.648 L297.871,58.572 L296.809,57.496 L295.727,56.435 L294.645,55.375 L293.543,54.331 L292.443,53.288 L291.325,52.26 L290.206,51.231 L289.069,50.22 L287.932,49.208 L286.776,48.215 L285.621,47.222 L284.448,46.245 L283.276,45.267 L282.085,44.308 L280.894,43.349 L279.685,42.409 L278.476,41.469 L277.251,40.547 L276.026,39.624 L274.783,38.721 L273.54,37.818 L272.279,36.934 L271.019,36.051 L269.743,35.186 L268.467,34.321 L267.173,33.477 L265.879,32.632 L264.568,31.809 L263.258,30.986 L261.933,30.182 L260.607,29.378 L259.264,28.596 L257.921,27.814 L256.562,27.054 L255.203,26.294 L253.83,25.555 L252.456,24.815 L251.065,24.098 L249.675,23.382 L248.269,22.688 L246.863,21.995 L245.444,21.323 L244.023,20.652 L242.587,20.004 L241.151,19.356 L239.699,18.732 L238.248,18.109 L236.783,17.509 L235.318,16.908 L233.837,16.332 L232.357,15.756 L230.862,15.206 L229.367,14.656 L227.859,14.129 L226.35,13.603 L224.827,13.103 L223.303,12.602 L221.766,12.129 L220.229,11.655 L218.679,11.206 L217.129,10.757 L215.564,10.335 L214,9.913 L212.422,9.519 L210.844,9.126 L209.255,8.757 L207.664,8.389 L206.06,8.049 L204.456,7.71 L202.839,7.399 L201.222,7.088 L199.594,6.804 L197.965,6.52 L196.323,6.266 L194.681,6.011 L193.026,5.787 L191.372,5.562 L189.707,5.366 L188.041,5.169 L186.362,5.003 L184.684,4.837 L182.993,4.703 L181.303,4.568 L179.603,4.462 L177.901,4.357 L176.188,4.282 L174.475,4.208 L172.75,4.167 L171.026,4.125 L169.291,4.113 L167.556,4.101 L165.81,4.123 L164.063,4.144 L162.306,4.198 L160.549,4.253 L158.782,4.338 L157.015,4.424 L155.237,4.543 L153.459,4.663 L151.671,4.817 L149.883,4.971 L148.086,5.157 L146.288,5.343 L144.48,5.564 L142.672,5.786 L140.854,6.043 L139.037,6.3 L137.21,6.589 L135.384,6.879 L133.547,7.205 L131.711,7.531 L129.865,7.894 L128.02,8.257 L126.167,8.654 L124.313,9.051 L122.449,9.485 L120.586,9.92 L118.714,10.392 L116.843,10.864 L114.963,11.371 L113.084,11.878 L111.195,12.424 L109.307,12.97 L107.41,13.555 L105.514,14.14 L103.611,14.76 L101.709,15.38 L100.747,15.712 L99.795,16.041 L98.842,16.371 L97.883,16.702 L96.92,17.054 L95.963,17.403 L95.007,17.752 L94.044,18.103 L93.078,18.473 L92.118,18.84 L91.158,19.208 L90.192,19.578 L89.221,19.968 L88.258,20.356 L87.294,20.744 L86.323,21.135 L85.35,21.546 L84.382,21.955 L83.415,22.363 L82.442,22.774 L81.465,23.204 L80.495,23.631 L79.524,24.059 L78.547,24.489 L77.567,24.94 L76.593,25.389 L75.619,25.837 L74.638,26.288 L73.655,26.761 L72.677,27.23 L71.7,27.7 L70.717,28.172 L69.731,28.664 L68.75,29.152 L67.77,29.641 L66.783,30.133 L65.794,30.647 L64.81,31.157 L63.826,31.668 L62.837,32.181 L61.844,32.717 L60.857,33.249 L59.871,33.781 L58.878,34.316 L57.884,34.871 L56.894,35.423 L55.905,35.975 L54.909,36.53 L53.911,37.108 L52.919,37.682 L51.926,38.256 L50.928,38.834 L49.927,39.433 L48.932,40.03 L47.937,40.626 L46.941,41.223 C46.546,41.46 46.417,41.972 46.654,42.367 C46.891,42.762 47.404,42.891 47.799,42.654 L48.794,42.057 L49.789,41.461 L50.785,40.865 L51.775,40.271 L52.762,39.701 L53.754,39.126 L54.747,38.552 L55.734,37.981 L56.718,37.432 L57.707,36.88 L58.697,36.328 L59.681,35.779 L60.663,35.25 L61.649,34.718 L62.636,34.186 L63.617,33.657 L64.595,33.149 L65.579,32.639 L66.563,32.128 L67.54,31.621 L68.515,31.135 L69.495,30.646 L70.476,30.157 L71.451,29.671 L72.423,29.204 L73.4,28.735 L74.378,28.265 L75.349,27.799 L76.317,27.354 L77.291,26.905 L78.265,26.457 L79.233,26.011 L80.197,25.587 L81.168,25.16 L82.138,24.732 L83.103,24.307 L84.065,23.901 L85.032,23.493 L85.999,23.085 L86.96,22.679 L87.917,22.294 L88.881,21.906 L89.845,21.518 L90.802,21.133 L91.755,20.768 L92.715,20.4 L93.675,20.033 L94.629,19.668 L95.579,19.321 L96.536,18.972 L97.492,18.623 L98.442,18.276 L99.388,17.95 L100.34,17.62 L101.293,17.291 L102.236,16.966 L104.129,16.349 L106.019,15.732 L107.903,15.152 L109.785,14.571 L111.659,14.03 L113.533,13.488 L115.399,12.985 L117.265,12.481 L119.123,12.013 L120.98,11.544 L122.829,11.113 L124.677,10.682 L126.516,10.289 L128.356,9.895 L130.188,9.535 L132.018,9.175 L133.84,8.851 L135.661,8.528 L137.472,8.241 L139.285,7.953 L141.088,7.698 L142.89,7.444 L144.683,7.224 L146.475,7.005 L148.258,6.821 L150.041,6.636 L151.814,6.484 L153.587,6.331 L155.349,6.212 L157.112,6.094 L158.863,6.009 L160.615,5.925 L162.358,5.871 L164.099,5.816 L165.83,5.796 L167.561,5.775 L169.28,5.787 L171,5.798 L172.709,5.84 L174.418,5.881 L176.116,5.955 L177.813,6.028 L179.499,6.133 L181.185,6.238 L182.86,6.371 L184.535,6.505 L186.198,6.669 L187.86,6.834 L189.51,7.029 L191.161,7.223 L192.801,7.446 L194.44,7.668 L196.066,7.92 L197.693,8.172 L199.306,8.454 L200.92,8.735 L202.523,9.043 L204.125,9.351 L205.713,9.688 L207.302,10.024 L208.877,10.389 L210.453,10.754 L212.016,11.145 L213.579,11.535 L215.128,11.952 L216.678,12.37 L218.213,12.815 L219.749,13.26 L221.272,13.73 L222.795,14.199 L224.303,14.695 L225.812,15.191 L227.306,15.713 L228.801,16.235 L230.282,16.78 L231.763,17.325 L233.229,17.896 L234.695,18.466 L236.146,19.062 L237.598,19.658 L239.036,20.276 L240.474,20.893 L241.896,21.535 L243.318,22.177 L244.725,22.843 L246.132,23.509 L247.525,24.196 L248.918,24.883 L250.294,25.594 L251.671,26.304 L253.032,27.036 L254.393,27.77 L255.74,28.523 L257.086,29.276 L258.416,30.051 L259.746,30.826 L261.059,31.623 L262.373,32.42 L263.671,33.236 L264.97,34.052 L266.251,34.889 L267.532,35.726 L268.796,36.583 L270.061,37.44 L271.31,38.316 L272.559,39.191 L273.79,40.087 L275.021,40.982 L276.235,41.896 L277.449,42.811 L278.647,43.744 L279.844,44.675 L281.024,45.626 L282.203,46.576 L283.365,47.545 L284.527,48.514 L285.672,49.499 L286.817,50.484 L287.943,51.486 L289.069,52.488 L290.177,53.507 L291.285,54.527 L292.376,55.562 L293.467,56.597 L294.538,57.648 L295.61,58.698 L296.662,59.765 L297.715,60.833 L298.75,61.914 L299.785,62.995 L300.8,64.091 L301.816,65.188 L302.811,66.299 L303.807,67.41 L304.785,68.535 L305.762,69.659 L306.72,70.797 L307.677,71.936 L308.614,73.088 L309.552,74.24 L310.471,75.405 L311.389,76.569 L312.287,77.746 L313.185,78.923 L314.063,80.113 L314.94,81.303 L315.799,82.504 L316.657,83.705 L317.494,84.918 L318.331,86.131 L319.146,87.355 L319.962,88.579 L320.758,89.814 L321.554,91.048 L322.329,92.293 L323.103,93.538 L323.855,94.793 L324.608,96.049 L325.341,97.314 L326.073,98.578 L326.784,99.852 L327.494,101.126 L328.182,102.409 L328.87,103.693 L329.538,104.985 L330.205,106.276 L330.85,107.575 L331.494,108.875 L332.116,110.182 L332.738,111.491 L333.339,112.806 L333.939,114.12 L334.517,115.442 L335.094,116.764 L335.648,118.093 L336.202,119.422 L336.735,120.758 L337.268,122.093 L337.776,123.434 L338.285,124.775 L338.77,126.122 L339.254,127.469 L339.717,128.822 L340.18,130.173 L340.618,131.53 L341.057,132.887 L341.471,134.248 L341.885,135.61 L342.276,136.977 L342.668,138.342 L343.034,139.711 L343.4,141.081 L343.742,142.454 L344.083,143.827 L344.402,145.204 L344.72,146.58 L345.013,147.958 L345.306,149.337 L345.573,150.718 L345.841,152.099 L346.085,153.483 L346.329,154.866 L346.547,156.25 L346.765,157.635 L346.958,159.021 L347.15,160.407 L347.318,161.795 L347.486,163.181 L347.628,164.569 L347.77,165.956 L347.885,167.343 L348,168.731 L348.091,170.119 L348.181,171.506 L348.245,172.893 L348.309,174.279 L348.346,175.665 L348.383,177.051 L348.394,178.437 L348.406,179.821 L348.391,181.204 L348.375,182.586 L348.332,183.967 L348.289,185.348 L348.22,186.728 L348.151,188.106 L348.055,189.481 L347.959,190.857 L347.834,192.229 L347.709,193.603 L347.558,194.973 L347.408,196.342 L347.229,197.707 L347.049,199.072 L346.841,200.433 L346.632,201.794 L346.397,203.151 L346.163,204.508 L345.899,205.859 L345.636,207.211 L345.343,208.557 L345.05,209.904 L344.73,211.245 L344.411,212.586 L344.062,213.92 L343.713,215.255 L343.334,216.583 L342.955,217.911 L342.548,219.234 L342.143,220.556 L341.707,221.87 L341.271,223.184 L340.804,224.491 L340.338,225.799 L339.843,227.099 L339.349,228.398 L338.825,229.689 L338.3,230.981 L337.745,232.263 L337.189,233.546 L336.605,234.821 L336.022,236.095 L335.407,237.359 L334.793,238.624 L334.147,239.879 L333.5,241.134 L332.825,242.381 L332.151,243.626 L331.445,244.861 L330.739,246.0959 L330,247.3198 L329.262,248.5446 L328.494,249.7591 L327.727,250.9729 L326.927,252.1749 L326.128,253.3769 L325.296,254.5671 L324.464,255.758 L323.602,256.9378 L322.741,258.1167 L321.847,259.2829 L320.953,260.4491 L320.026,261.6021 L319.099,262.756 L318.141,263.8976 L317.184,265.0384 L316.193,266.1654 L315.203,267.2923 L314.178,268.4051 L313.154,269.5186 L312.099,270.6187 L311.044,271.7184 L309.955,272.8028 L308.867,273.8875 L307.744,274.9568 L306.621,276.0267 L305.466,277.0822 L304.313,278.1373 L303.124,279.1762 L301.936,280.2152 L300.713,281.2376 L299.489,282.2608 L298.234,283.2686 L296.979,284.276 L295.689,285.266 L294.4,286.2561 L293.075,287.2286 L291.749,288.2016 L290.391,289.1584 L289.034,290.1147 L287.641,291.0526 L286.249,291.9906 L284.82,292.9098 L283.391,293.8296 L281.929,294.7328 L280.469,295.6357 L278.972,296.5193 L277.475,297.4028 L275.942,298.2665 L274.408,299.1307 L272.84,299.9765 L271.274,300.822 L269.671,301.6469 L268.067,302.4719 L266.427,303.2758 L264.786,304.0803 L263.111,304.8653 L261.437,305.65 L259.726,306.4131 L258.015,307.1761 L256.266,307.917 L254.516,308.6583 L252.732,309.3791 L250.949,310.0998 L249.128,310.7976 L247.307,311.4953 L245.448,312.1699 L243.586,312.8457 L242.645,313.1703 L241.694,313.4983 L240.743,313.8263 L239.8,314.1515 L238.838,314.4647 L237.868,314.7806 L236.897,315.0967 L235.936,315.4099 L234.954,315.7112 L233.965,316.0147 L232.975,316.3185 L231.991,316.6205 L230.994,316.9142 L229.995,317.2081 L228.987,317.4959 L227.979,317.7838 L226.96,318.0653 L225.942,318.3469 L224.915,318.6227 L223.888,318.8984 L222.851,319.1678 L221.814,319.4372 L220.767,319.7002 L219.72,319.9632 L218.665,320.2203 L217.609,320.4775 L216.543,320.728 L215.478,320.9786 L214.403,321.2226 L213.327,321.4666 L212.242,321.7048 L211.158,321.9428 L210.064,322.1742 L208.97,322.4055 L207.866,322.6301 L206.764,322.8542 L205.269,323.1401 L203.778,323.4251 L202.296,323.6801 L200.814,323.9353 L199.341,324.1604 L197.868,324.3858 L196.403,324.5843 L194.938,324.7829 L193.483,324.9521 L192.029,325.1214 L190.583,325.2617 L189.137,325.4022 L187.699,325.5166 L186.262,325.631 L184.835,325.717 L183.408,325.8031 L181.99,325.8611 L180.572,325.9192 L179.163,325.9519 L177.754,325.9848 L176.355,325.9901 L174.956,325.9955 L173.567,325.9736 L172.177,325.9519 L170.797,325.9056 L169.417,325.8595 L168.047,325.7866 L166.677,325.7137 L165.318,325.6145 L163.957,325.5152 L162.605,325.3922 L161.255,325.2695 L159.915,325.1208 L158.575,324.9723 L157.245,324.7983 L155.914,324.6242 L154.593,324.4272 L153.272,324.2304 L151.962,324.0086 L150.652,323.7871 L149.353,323.5407 L148.052,323.2943 L146.762,323.0257 L145.472,322.7574 L144.193,322.4651 L142.914,322.1727 L141.646,321.8567 L140.376,321.5404 L139.117,321.2027 L137.858,320.8654 L136.611,320.5049 L135.363,320.1444 L134.126,319.761 L132.889,319.3774 L131.662,318.9731 L130.435,318.5693 L129.219,318.143 L128.004,317.7168 L126.8,317.2685 L125.594,316.82 L124.4,316.3517 L123.206,315.8838 L122.023,315.3943 L120.84,314.9048 L119.669,314.3941 L118.497,313.8831 L117.335,313.3532 L116.175,312.8236 L115.025,312.2734 L113.876,311.7231 L112.739,311.1526 L111.6,310.5816 L110.473,309.9924 L109.346,309.4034 L108.231,308.7946 L107.116,308.1859 L106.013,307.5577 L104.909,306.929 L103.816,306.2829 L102.724,305.6373 L101.644,304.9727 L100.563,304.3081 L99.495,303.6248 L98.427,302.9413 L97.369,302.2409 L96.312,301.541 L95.267,300.8231 L94.223,300.1051 L93.19,299.3694 L92.157,298.6331 L91.136,297.8811 L90.115,297.1294 L89.106,296.3604 L88.098,295.5916 L87.102,294.8058 L86.105,294.0195 L85.121,293.2181 L84.136,292.4172 L83.165,291.5998 L82.193,290.7824 L81.235,289.9491 L80.275,289.1152 L79.328,288.2669 L78.381,287.4192 L77.447,286.5559 L76.513,285.6926 L75.592,284.8141 L74.671,283.935 L73.761,283.0425 L72.852,282.1504 L71.957,281.2436 L71.061,280.3368 L70.179,279.4156 L69.296,278.494 L68.426,277.5595 L67.555,276.6256 L66.699,275.6778 L65.842,274.73 L64.999,273.7686 L64.156,272.8069 L63.325,271.833 L62.494,270.8597 L61.677,269.8734 L60.861,268.8871 L60.058,267.8882 L59.254,266.8886 L58.463,265.8779 L57.673,264.8676 L56.897,263.8454 L56.12,262.8231 L55.358,261.7889 L54.595,260.7542 L53.846,259.7092 L53.096,258.6645 L52.361,257.6087 L51.626,256.5529 L50.905,255.4861 L50.184,254.4188 L49.476,253.3418 L48.768,252.2652 L48.075,251.1784 L47.382,250.0915 L46.703,248.9946 L46.024,247.8972 L45.358,246.7907 L44.693,245.6849 L44.042,244.57 L43.391,243.454 L42.756,242.33 L42.119,241.204 L41.497,240.071 L40.875,238.938 L40.267,237.797 L39.66,236.656 L39.068,235.506 L38.475,234.356 L37.896,233.198 L37.318,232.041 L36.755,230.876 L36.191,229.711 L35.643,228.539 L35.095,227.366 L34.561,226.186 L34.027,225.007 L33.509,223.821 L32.99,222.635 L32.487,221.443 L31.984,220.25 L31.495,219.051 L31.006,217.853 L30.533,216.649 L30.06,215.444 L29.602,214.234 L29.145,213.023 L28.702,211.808 L28.259,210.593 L27.832,209.372 L27.405,208.152 L26.994,206.927 L26.583,205.701 L26.187,204.471 L25.79,203.242 L25.41,202.008 L25.03,200.774 L24.667,199.536 L24.302,198.298 L23.953,197.056 L23.604,195.815 L23.272,194.571 L22.939,193.326 L22.624,192.078 L22.307,190.83 L22.006,189.579 L21.706,188.328 L21.421,187.075 L21.137,185.822 L20.87,184.567 L20.602,183.311 L20.35,182.053 L20.097,180.796 L19.862,179.537 L19.627,178.278 L19.409,177.018 L19.19,175.757 L18.987,174.494 L18.785,173.233 L18.599,171.971 L18.413,170.708 L18.245,169.446 L18.076,168.182 L17.924,166.918 L17.771,165.655 L17.636,164.392 L17.5,163.129 L17.383,161.866 L17.265,160.603 L17.163,159.34 L17.061,158.077 L16.976,156.816 L16.892,155.555 L16.825,154.294 L16.759,153.033 L16.708,151.774 L16.657,150.515 L16.625,149.258 L16.592,148 L16.577,146.745 L16.563,145.489 L16.564,144.235 L16.566,142.982 L16.585,141.732 L16.605,140.481 L16.643,139.233 L16.681,137.985 L16.736,136.74 L16.79,135.495 L16.863,134.254 L16.936,133.012 L17.027,131.775 L17.118,130.536 L17.226,129.302 L17.334,128.068 L17.46,126.838 L17.587,125.609 L17.732,124.384 L17.877,123.158 L18.039,121.937 L18.201,120.717 L18.382,119.501 L18.563,118.286 L18.763,117.076 L18.963,115.865 L19.18,114.66 L19.396,113.455 L19.633,112.257 L19.868,111.058 L20.123,109.866 L20.378,108.673 L20.651,107.486 L20.923,106.3 L21.215,105.12 L21.507,103.941 L21.817,102.769 L22.128,101.596 L22.457,100.43 L22.785,99.264 L23.133,98.107 L23.481,96.949 L23.848,95.799 L24.216,94.649 L24.602,93.506 L24.987,92.364 L25.391,91.23 L25.796,90.097 L26.221,88.972 L26.646,87.847 L27.089,86.73 L27.531,85.614 L27.994,84.507 L28.457,83.4 L28.939,82.303 L29.422,81.205 L29.923,80.116 L30.424,79.028 L30.945,77.95 L31.466,76.873 L32.007,75.806 L32.548,74.738 L33.108,73.68 L33.668,72.622 L34.248,71.576 L34.828,70.53 L35.428,69.495 L36.029,68.46 L36.649,67.435 L37.268,66.411 L37.907,65.398 L38.547,64.386 L39.207,63.386 L39.868,62.386 L40.548,61.396 L41.227,60.408 L41.927,59.432 L42.627,58.456 L43.348,57.494 L44.07,56.53 L44.811,55.579 L45.551,54.628 L46.312,53.691 L47.073,52.754 L47.855,51.832 L48.638,50.908 L49.441,49.997 L50.242,49.087 L51.065,48.191 L51.888,47.295 L52.733,46.414 L53.578,45.532 L54.442,44.664 L55.306,43.797 L56.192,42.945 L57.077,42.093 L57.985,41.256 L58.893,40.419 L59.821,39.596 L60.748,38.774 L61.697,37.968 L62.645,37.162 L63.616,36.372 L64.588,35.582 L65.58,34.807 L66.571,34.033 L67.584,33.275 L68.597,32.518 L69.632,31.777 L70.668,31.037 L71.725,30.312 L72.78,29.587 L73.858,28.881 L74.936,28.174 L76.037,27.486 L77.138,26.797 L78.26,26.125 L79.381,25.453 L80.525,24.8 L81.669,24.147 L82.835,23.513 L84.003,22.878 L85.191,22.261 L86.378,21.644 L87.589,21.047 L88.799,20.45 L90.032,19.872 L91.267,19.295 L92.522,18.735 L93.776,18.176 L95.054,17.637 L96.332,17.098 L97.633,16.58 L98.935,16.062 L100.258,15.562 L101.58,15.063 L102.926,14.585 L104.271,14.108 L105.641,13.651 L107.011,13.195 L108.403,12.758 L109.794,12.321 L111.209,11.907 L112.624,11.493 L114.062,11.101 L115.502,10.708 L116.963,10.337 L118.423,9.965 L119.908,9.617 L121.392,9.269 L122.901,8.943 L124.41,8.618 L125.942,8.314 L127.472,8.011 L129.027,7.731 L130.582,7.451 L132.162,7.195 L133.744,6.939 L134.772,6.788 L135.81,6.636 L136.847,6.484 L137.876,6.332 L138.896,6.199 L139.924,6.064 L140.952,5.929 L141.971,5.795 L142.981,5.678 L143.999,5.56 L145.017,5.442 L146.027,5.326 L147.029,5.224 L148.038,5.122 L149.047,5.019 L150.048,4.918 L151.038,4.833 L152.037,4.748 L153.037,4.662 L154.024,4.578 L155.997,4.44 L157.968,4.303 L159.921,4.196 L161.873,4.089 L163.805,4.014 L165.737,3.94 L167.649,3.897 L169.562,3.855 L171.457,3.841 L173.351,3.828 L175.225,3.845 L177.099,3.863 L178.953,3.912 L180.807,3.961 L182.644,4.038 L184.479,4.114 L186.295,4.221 L188.11,4.328 L189.905,4.465 L191.701,4.602 L193.479,4.767 L195.256,4.93 L197.012,5.124 L198.769,5.317 L200.505,5.539 L202.242,5.761 L203.961,6.01 L205.679,6.258 L207.376,6.534 L209.074,6.81 L210.751,7.115 L212.428,7.419 L214.088,7.748 L215.746,8.077 L217.384,8.434 L219.022,8.791 L220.639,9.174 L222.258,9.557 L223.857,9.965 L225.456,10.373 L227.034,10.806 L228.612,11.239 L230.169,11.699 L231.728,12.158 L233.267,12.641 L234.806,13.123 L236.324,13.63 L237.842,14.138 L239.339,14.67 L240.837,15.202 L242.316,15.757 L243.794,16.311 L245.252,16.889 L246.709,17.467 L248.146,18.069 L249.584,18.671 L251.002,19.295 L252.42,19.917 L253.817,20.563 L255.213,21.209 L256.589,21.878 L257.966,22.547 L259.323,23.236 L260.68,23.925 L262.016,24.635 L263.352,25.346 L264.666,26.078 L265.982,26.811 L267.278,27.562 L268.573,28.314 L269.848,29.086 L271.122,29.858 L272.375,30.651 L273.629,31.445 L274.864,32.257 L276.098,33.068 L277.31,33.899 L278.522,34.73 L279.714,35.581 L280.906,36.432 L282.078,37.301 L283.25,38.168 L284.401,39.055 L285.551,39.942 L286.68,40.847 L287.81,41.753 L288.92,42.675 L290.03,43.597 L291.118,44.536 L292.206,45.475 L293.273,46.432 L294.34,47.389 L295.388,48.362 L296.435,49.334 L297.46,50.323 L298.486,51.312 L299.49,52.317 L300.494,53.323 L301.479,54.343 L302.463,55.363 L303.425,56.399 L304.388,57.434 L305.328,58.485 L306.27,59.536 L307.191,60.601 L308.112,61.666 L309.011,62.745 L309.91,63.824 L310.787,64.917 L311.664,66.011 L312.522,67.117 L313.379,68.223 L314.214,69.343 L315.05,70.462 L315.863,71.595 L316.677,72.728 L317.47,73.874 L318.263,75.018 L319.034,76.175 L319.805,77.332 L320.554,78.501 L321.304,79.671 L322.033,80.852 L322.762,82.031 L323.468,83.223 L324.175,84.414 L324.859,85.617 L325.544,86.82 L326.209,88.033 L326.872,89.246 L327.514,90.468 L328.156,91.691 L328.775,92.924 L329.395,94.158 L329.994,95.401 L330.593,96.643 L331.169,97.894 L331.746,99.145 L332.3,100.405 L332.854,101.666 L333.388,102.935 L333.921,104.204 L334.432,105.48 L334.943,106.757 L335.431,108.041 L335.919,109.327 L336.387,110.619 L336.855,111.911 L337.299,113.21 L337.744,114.509 L338.166,115.814 L338.588,117.121 L338.99,118.434 L339.391,119.746 L339.77,121.064 L340.148,122.382 L340.503,123.706 L340.859,125.031 L341.194,126.361 L341.529,127.69 L341.841,129.025 L342.153,130.359 L342.441,131.698 L342.73,133.038 L342.998,134.383 L343.266,135.726 L343.511,137.073 L343.755,138.421 L343.977,139.772 L344.198,141.125 L344.399,142.48 L344.599,143.835 L344.776,145.192 L344.953,146.55 L345.107,147.91 L345.261,149.272 L345.394,150.635 L345.526,151.998 L345.636,153.363 L345.745,154.727 L345.831,156.094 L345.917,157.461 L345.981,158.83 L346.045,160.198 L346.086,161.566 L346.127,162.935 L346.145,164.305 L346.162,165.675 L346.158,167.046 L346.154,168.415 L346.127,169.785 L346.099,171.155 L346.048,172.524 L345.997,173.895 L345.924,175.264 L345.851,176.633 L345.754,178.001 L345.658,179.369 L345.537,180.735 L345.417,182.102 L345.275,183.468 L345.133,184.832 L344.967,186.195 L344.801,187.557 L344.612,188.918 L344.422,190.279 L344.21,191.637 L343.999,192.995 L343.763,194.349 L343.528,195.704 L343.269,197.055 L343.009,198.407 L342.727,199.755 L342.446,201.103 L342.141,202.446 L341.835,203.789 L341.505,205.128 L341.176,206.467 L340.824,207.803 L340.472,209.137 L340.096,210.466 L339.72,211.795 L339.32,213.119 L338.92,214.443 L338.497,215.762 L338.075,217.08 L337.628,218.392 L337.181,219.704 L336.71,221.009 L336.239,222.315 L335.745,223.615 L335.252,224.914 L334.734,226.205 L334.216,227.497 L333.674,228.781 L333.131,230.066 L332.566,231.343 L332.001,232.62 L331.412,233.888 L330.822,235.156 L330.208,236.416 L329.594,237.676 L328.957,238.929 L328.32,240.18 L327.659,241.422 L326.998,242.664 L326.312,243.896 L325.625,245.129 L324.916,246.3534 L324.208,247.5765 L323.474,248.7892 L322.741,250.0018 L321.982,251.2037 L321.223,252.4066 L320.442,253.5992 L319.661,254.7911 L318.854,255.9714 L318.048,257.1518 L317.217,258.3204 L316.385,259.4898 L315.531,260.6482 L314.677,261.8056 L313.797,262.9508 L312.918,264.0958 L312.014,265.228 L311.109,266.3611 L310.181,267.482 L309.253,268.6023 L308.301,269.709 L307.348,270.8156 L306.37,271.9085 L305.391,273.0022 L304.39,274.0829 L303.389,275.1628 L302.362,276.2281 L301.336,277.2935 L300.283,278.344 L299.231,279.3952 L298.155,280.4326 L297.08,281.4692 L295.979,282.4902 L294.878,283.5112 L293.752,284.5163 L292.625,285.5222 L291.474,286.5132 L290.324,287.5034 L289.148,288.477 L287.973,289.4508 L286.772,290.4074 L285.57,291.3648 L284.344,292.3065 L283.119,293.2474 L281.869,294.1707 L280.618,295.0941 L279.342,295.9994 L278.064,296.9052 L276.763,297.7944 L275.463,298.6831 L274.136,299.5529 L272.81,300.4229 L271.458,301.2738 L270.105,302.1251 L268.728,302.9588 L267.352,303.7921 L265.949,304.6056 L264.547,305.419 L263.119,306.2124 L261.689,307.0063 L260.236,307.7815 L258.784,308.5562 L257.305,309.3103 L255.826,310.0643 L254.321,310.7971 L252.815,311.5304 L251.285,312.244 L249.756,312.9574 L248.2,313.6488 L246.645,314.3402 L245.062,315.0094 L243.479,315.679 L241.872,316.3281 L240.265,316.9769 L238.632,317.6026 L236.999,318.2284 L235.34,318.8308 L233.679,319.4334 L231.994,320.0147 L230.31,320.5957 L228.599,321.1526 L226.888,321.7096 L225.15,322.2422 L223.412,322.7751 L221.649,323.2856 L219.886,323.7959 L218.097,324.281 L216.308,324.7662 L214.492,325.226 L212.675,325.6861 L210.834,326.1227 L208.993,326.5592 L207.125,326.9695 L205.258,327.3799 L203.363,327.7636 L201.467,328.1478 L199.546,328.5074 L197.627,328.867 L195.68,329.1993 L193.73,329.5323 L192.751,329.6834 L191.759,329.8366 L190.767,329.9898 L189.784,330.1417 L188.789,330.2809 L187.784,330.4214 L186.78,330.5617 L185.785,330.7009 L184.777,330.8259 L183.759,330.9522 L182.741,331.0785 L181.733,331.2036 L180.711,331.3144 L179.679,331.4264 L178.647,331.5381 L177.625,331.6489 L176.589,331.7467 L175.545,331.8452 L174.501,331.9438 L173.466,332.0415 L172.418,332.1246 L171.36,332.2085 L170.302,332.2922 L169.254,332.3755 L168.192,332.4437 L167.12,332.5127 L166.049,332.5816 L164.986,332.6501 L163.91,332.7048 L162.826,332.7601 L161.742,332.8154 L160.667,332.8702 L159.578,332.9099 L158.481,332.9498 L157.383,332.9898 L156.294,333.0296 L155.192,333.0539 L154.08,333.0786 L152.969,333.1031 L151.865,333.1275 L150.749,333.1379 L149.625,333.1483 L148.501,333.1588 L147.386,333.1692 L146.257,333.1638 L145.119,333.1584 L143.981,333.1532 L142.852,333.1478 L141.708,333.1267 L140.557,333.1054 L139.405,333.0841 L138.26,333.063 L136.931,333.0248 L135.602,332.9864 L134.289,332.9366 L132.975,332.8868 L131.677,332.8255 L130.379,332.7643 L129.094,332.6926 L127.81,332.6209 L126.542,332.5381 L125.273,332.455 L124.019,332.3609 L122.765,332.2668 L121.525,332.1624 L120.285,332.0582 L119.061,331.9428 L117.836,331.8272 L116.627,331.7007 L115.417,331.5741 L114.221,331.4375 L113.025,331.301 L111.845,331.1538 L110.664,331.0066 L109.499,330.8486 L108.332,330.6905 L107.18,330.5229 L106.028,330.3553 L104.89,330.1771 L103.753,329.999 L102.631,329.8104 L101.508,329.6217 L100.398,329.4236 L99.289,329.2256 L98.195,329.0172 L97.1,328.8089 L96.021,328.5904 L94.94,328.3718 L93.873,328.144 L92.807,327.9164 L91.755,327.6786 L90.703,327.4409 L89.666,327.1932 L88.627,326.9454 L87.602,326.6886 L86.578,326.432 L85.568,326.1655 L84.558,325.8991 L83.563,325.623 L82.566,325.3468 L81.583,325.0617 L80.6,324.7769 L79.632,324.4826 L78.663,324.1883 L77.709,323.8845 L76.754,323.5805 L75.812,323.268 L74.873,322.9568 L73.015,322.3127 L71.188,321.6511 L69.385,320.9729 L67.611,320.2769 L65.865,319.5628 L64.142,318.8326 L62.448,318.0853 L60.781,317.3202 L59.138,316.5394 L57.524,315.7419 L55.935,314.9271 L54.371,314.0973 L52.834,313.2513 L51.323,312.3886 L49.836,311.5112 L48.376,310.6181 L46.941,309.7088 L45.531,308.7852 L44.147,307.8468 L42.788,306.8922 L41.452,305.9239 L40.143,304.9411 L38.859,303.943 L37.597,302.9314 L36.362,301.9057 L35.151,300.8652 L33.962,299.8116 L32.8,298.7447 L31.661,297.6631 L30.545,296.5689 L29.454,295.4619 L28.386,294.3407 L27.341,293.2072 L26.32,292.0615 L25.323,290.9018 L24.348,289.7306 L23.397,288.5473 L22.469,287.3507 L21.563,286.1428 L20.68,284.9234 L19.82,283.691 L18.982,282.4478 L18.167,281.1936 L17.374,279.9267 L16.602,278.6495 L15.854,277.3617 L15.127,276.0617 L14.422,274.7518 L13.739,273.4316 L13.078,272.0998 L12.437,270.7584 L11.818,269.4072 L11.222,268.0448 L10.645,266.6732 L10.09,265.2922 L9.559,263.9051 L9.053,262.4947 L8.549,261.0905 L8.088,259.6676 L7.627,258.2445 L7.209,256.8032 L6.79,255.3598 L6.409,253.9007 L6.029,252.4431 L5.69,250.9685 L5.351,249.4937 L5.054,248.0027 L4.756,246.5097 L4.495,245.003 L4.234,243.497 L4.014,241.976 L3.794,240.455 L3.614,238.92 L3.434,237.382 L3.289,235.833 L3.145,234.284 L3.04,232.723 L2.935,231.161 L2.869,229.587 L2.802,228.011 L2.771,226.424 L2.74,224.839 L2.747,223.242 L2.753,221.645 L2.797,220.038 L2.841,218.429 L2.919,216.811 L2.997,215.194 L3.112,213.568 L3.226,211.941 L3.377,210.307 L3.528,208.67 L3.712,207.026 L3.896,205.384 L4.115,203.734 L4.334,202.084 L4.589,200.427 L4.844,198.769 L5.13,197.105 L5.416,195.443 L5.737,193.775 L6.057,192.106 L6.411,190.434 L6.766,188.759 L7.151,187.082 L7.536,185.405 L7.954,183.724 L8.372,182.044 L8.823,180.361 L9.274,178.676 L9.754,176.99 L10.234,175.305 L10.746,173.618 L11.258,171.931 L11.802,170.243 L12.345,168.554 L12.917,166.865 L13.489,165.177 L14.091,163.49 L14.693,161.802 L15.325,160.115 L15.958,158.427 L16.617,156.741 L17.276,155.056 L17.965,153.373 L18.654,151.69 L19.371,150.011 L20.089,148.33 L20.833,146.653 L21.576,144.976 L22.348,143.304 L23.119,141.632 L23.918,139.965 L24.718,138.297 L25.542,136.634 L26.366,134.972 L27.217,133.316 L28.068,131.66 L28.945,130.012 L29.822,128.362 L30.724,126.719 L31.624,125.078 L32.551,123.444 L33.477,121.811 L34.428,120.186 L35.38,118.561 L36.355,116.944 L37.328,115.328 L38.327,113.723 L39.325,112.117 L40.347,110.522 L41.369,108.927 L42.413,107.342 L43.456,105.757 L44.522,104.185 L45.588,102.613 L46.677,101.053 L47.765,99.493 L48.875,97.946 L49.983,96.399 L51.114,94.866 L52.244,93.333 L53.396,91.815 L54.548,90.296 L55.719,88.792 L56.89,87.288 L58.081,85.8 L59.272,84.312 L60.483,82.841 L61.695,81.369 L62.924,79.913 L64.153,78.458 L65.401,77.021 L66.649,75.584 L67.915,74.166 L69.182,72.747 L70.466,71.345 L71.75,69.945 L73.051,68.564 L74.352,67.183 L75.67,65.823 L76.989,64.462 L78.323,63.121 L79.657,61.781 L81.008,60.462 L82.358,59.144 L83.725,57.848 L85.092,56.551 L86.473,55.276 L87.854,54.001 L89.25,52.75 L90.646,51.499 L92.057,50.273 L93.468,49.047 L94.893,47.843 L96.317,46.639 L97.754,45.462 L99.192,44.285 L100.644,43.134 L102.095,41.983 L103.559,40.856 L105.022,39.73 L106.498,38.632 L107.974,37.533 L109.462,36.464 L110.951,35.393 L112.45,34.349 L113.949,33.306 L115.459,32.293 L116.969,31.279 L118.49,30.296 L120.011,29.312 L121.542,28.357 L123.073,27.402 L124.613,26.479 L126.153,25.556 L127.703,24.665 L129.254,23.774 L130.814,22.913 L132.372,22.053 L133.939,21.226 L135.506,20.399 L137.081,19.606 L138.657,18.813 L140.241,18.052 L141.823,17.291 L143.413,16.566 L145.003,15.84 L146.6,15.151 L148.197,14.461 L149.801,13.805 L151.404,13.149 L153.012,12.531 L154.621,11.913 L156.235,11.332 L157.851,10.752 L159.471,10.206 L161.09,9.661 L162.714,9.155 L164.337,8.65 L165.966,8.184 L167.595,7.718 L169.229,7.288 L170.86,6.859 L172.495,6.472 L174.13,6.084 L175.769,5.738 L177.408,5.391 L179.051,5.084 L180.691,4.776 L182.334,4.512 L183.977,4.248 L185.621,4.028 L187.268,3.807 L188.916,3.627 L190.561,3.447 L192.208,3.311 L193.855,3.176 L195.503,3.087 L197.157,2.997 L198.801,2.938 L200.448,2.903 L202.096,2.892 L203.745,2.901 L205.392,2.935 L207.039,2.992 L208.687,3.071 L210.332,3.175 L211.978,3.302 L213.623,3.452 L215.266,3.627 L216.909,3.826 L218.552,4.048 L220.192,4.295 L221.832,4.568 L223.47,4.863 L225.107,5.184 L226.742,5.531 L228.376,5.902 L230.008,6.298 L231.638,6.721 L233.267,7.168 L234.893,7.642 L236.518,8.142 L238.14,8.667 L239.76,9.218 L241.378,9.797 L242.993,10.402 L244.605,11.034 L246.216,11.693 L247.824,12.378 L249.428,13.091 L251.03,13.833 L252.629,14.6 L254.224,15.395 L255.817,16.22 L257.407,17.071 L258.992,17.951 L260.574,18.86 L262.154,19.796 L263.729,20.761 L265.301,21.757 L266.869,22.78 L268.432,23.832 L269.992,24.915 L271.548,26.026 L273.099,27.167 L274.646,28.34 L276.19,29.54 L277.73,30.774 L278.494,31.403 L279.261,32.035 L280.026,32.681 L280.791,33.326 L281.552,33.988 L282.314,34.649 L283.073,35.326 L283.834,36.004 L284.591,36.697 L285.348,37.389 L286.102,38.097 L286.857,38.805 L287.608,39.529 L288.36,40.254 L289.11,40.993 L289.859,41.732 L290.605,42.488 L291.352,43.243 L292.095,44.014 L292.84,44.787 L293.581,45.574 L294.322,46.361 L295.06,47.164 L295.798,47.968 L296.532,48.788 L297.268,49.608 L298,50.444 L298.732,51.28 L299.461,52.132 L300.19,52.984 L300.916,53.853 L301.643,54.723 L302.366,55.608 L303.089,56.493 L303.808,57.394 L304.528,58.296 L305.244,59.215 L305.96,60.134 L306.674,61.07 L307.387,62.004 L308.097,62.956 L308.807,63.908 L309.513,64.878 L310.219,65.848 L310.923,66.834 L311.625,67.819 L312.325,68.822 L313.024,69.825 L313.719,70.846 L314.416,71.867 L315.108,72.905 L315.8,73.942 L316.489,74.997 L317.177,76.051 L317.862,77.124 L318.547,78.197 L319.228,79.287 L319.909,80.376 L320.586,81.483 L321.263,82.591 L321.936,83.716 L322.61,84.842 L323.279,85.985 L323.949,87.127 L324.614,88.287 L325.279,89.448 L325.94,90.627 L326.602,91.806 L327.26,93.002 L327.917,94.198 L328.57,95.412 L329.223,96.626 L329.872,97.859 L330.521,99.092 L331.167,100.343 L331.811,101.593 L332.452,102.862 L333.092,104.13 L333.728,105.418 L334.364,106.707 L334.996,108.012 L335.628,109.317 L336.255,110.641 L336.882,111.966 L337.505,113.309 L338.127,114.653 L338.746,116.014 L339.364,117.375 L339.978,118.755 L340.591,120.136 L341.199,121.535 L341.806,122.93 L342.441,124.449 L343.073,125.96 L343.661,127.461 L344.248,128.962 L344.791,130.451 L345.334,131.942 L345.837,133.423 L346.34,134.902 L346.799,136.37 L347.259,137.837 L347.675,139.294 L348.092,140.752 L348.47,142.2 L348.848,143.645 L349.184,145.079 L349.52,146.514 L349.814,147.936 L350.109,149.36 L350.367,150.774 L350.625,152.185 L350.841,153.585 L351.058,154.985 L351.235,156.373 L351.412,157.763 L351.553,159.142 L351.695,160.519 L351.797,161.883 L351.899,163.248 L351.962,164.601 L352.026,165.956 L352.055,167.299 L352.084,168.641 L352.076,169.97 L352.068,171.3 L352.022,172.617 L351.977,173.936 L351.897,175.243 L351.819,176.549 L351.704,177.842 L351.589,179.136 L351.439,180.416 L351.288,181.699 L351.105,182.97 L350.923,184.24 L350.706,185.496 L350.489,186.753 L350.238,187.997 L349.986,189.243 L349.704,190.477 L349.422,191.709 L349.107,192.929 L348.792,194.148 L348.444,195.355 L348.095,196.563 L347.717,197.76 L347.34,198.955 L346.93,200.136 L346.521,201.318 L346.08,202.487 L345.638,203.657 L345.168,204.815 L344.699,205.972 L344.199,207.115 L343.699,208.259 L343.17,209.388 L342.639,210.52 L342.081,211.639 L341.524,212.757 L340.938,213.861 L340.352,214.965 L339.737,216.055 L339.121,217.147 L338.479,218.226 L337.838,219.304 L337.17,220.368 L336.501,221.432 L335.805,222.482 L335.107,223.534 L334.386,224.572 L333.665,225.61 L332.918,226.633 L332.17,227.656 L331.397,228.664 L330.622,229.675 L329.824,230.671 L329.028,231.667 L328.205,232.648 L327.383,233.63 L326.536,234.596 L325.688,235.564 L324.819,236.518 L323.95,237.472 L323.057,238.41 L322.164,239.348 L321.248,240.271 L320.33,241.196 L319.392,242.107 L318.455,243.016 L317.496,243.911 L316.536,244.805 L315.554,245.6842 L314.572,246.5644 L313.569,247.4304 L312.568,248.2956 L311.546,249.145 L310.523,249.9947 L309.481,250.8285 L308.436,251.6628 L307.373,252.4821 L306.311,253.301 L305.23,254.1036 L304.148,254.9065 L303.047,255.6931 L301.946,256.4806 L300.827,257.2533 L299.709,258.0252 L298.573,258.7809 L297.437,259.5367 L296.283,260.276 L295.128,261.016 L293.957,261.7409 L292.788,262.4653 L291.601,263.1728 L290.415,263.8806 L289.212,264.5715 L288.008,265.263 L286.79,265.9392 L285.573,266.6148 L284.34,267.2734 L283.107,267.9321 L281.86,268.5736 L280.611,269.2157 L279.349,269.842 L278.088,270.468 L276.813,271.0765 L275.539,271.6853 L274.25,272.2763 L272.961,272.868 L271.66,273.4436 L270.36,274.0189 L269.047,274.5764 L267.734,275.134 L266.409,275.6738 L265.084,276.2141 L263.747,276.738 L262.412,277.2616 L261.065,277.7671 L259.719,278.2728 L258.361,278.7602 L257.003,279.248 L255.636,279.7199 L254.27,280.1919 L252.894,280.6455 L251.518,281.0992 L250.133,281.5344 L248.747,281.9699 L247.353,282.3886 L245.959,282.8071 L244.558,283.2068 L243.157,283.6067 L241.747,283.9876 L240.337,284.369 L238.92,284.733 L237.504,285.097 L236.082,285.4419 L234.659,285.7868 L233.229,286.1126 L231.799,286.4388 L230.364,286.7474 L228.929,287.0559 L227.489,287.3449 L226.049,287.6341 L224.604,287.9039 L223.158,288.1738 L221.709,288.426 L220.26,288.6781 L218.806,288.9105 L217.353,289.1429 L215.897,289.3557 L214.439,289.5686 L212.979,289.7634 L211.52,289.9581 L210.058,290.1329 L208.596,290.3077 L207.132,290.4625 L205.667,290.6174 L204.201,290.7539 L202.735,290.8904 L201.269,291.0066 L199.802,291.1229 L198.335,291.2187 L196.867,291.315 L195.398,291.3928 L193.931,291.4706 L192.464,291.5277 L190.997,291.5848 L189.531,291.6213 L188.064,291.6579 L186.598,291.6756 L185.133,291.6933 L183.669,291.6902 L182.206,291.687 L180.745,291.6628 L179.282,291.6386 L177.823,291.5953 L176.364,291.5521 L174.908,291.4876 L173.453,291.4233 L172.001,291.3375 L170.548,291.2518 L169.099,291.1466 L167.651,291.0416 L166.207,290.915 L164.764,290.7884 L163.325,290.6404 L161.886,290.4922 L160.451,290.3242 L159.018,290.1565 L157.591,289.9668 L156.163,289.7773 L154.742,289.5659 L153.32,289.3543 L151.905,289.1228 L150.49,288.8915 L149.083,288.638 L147.676,288.3846 L146.277,288.1091 L144.877,287.8333 L143.484,287.5373 L142.093,287.2415 L140.71,286.9234 L139.328,286.6054 L137.955,286.2649 L136.58,285.9243 L135.215,285.5631 L133.85,285.2024 L132.496,284.8188 L131.142,284.4355 L129.799,284.0293 L128.455,283.6228 L127.12,283.1954 L125.787,282.7686 L124.466,282.3187 L123.145,281.869 L121.836,281.3961 L120.525,280.9229 L119.227,280.4286 L117.929,279.9349 L116.645,279.4178 L115.36,278.901 L114.089,278.3606 L112.817,277.8199 L111.558,277.2577 L110.3,276.6963 L109.056,276.1112 L107.813,275.5263 L106.584,274.9177 L105.354,274.3086 L104.138,273.6777 L102.924,273.0478 L101.725,272.3939 L100.527,271.7402 L99.344,271.0625 L98.161,270.3841 L96.992,269.6838 L95.825,268.9845 L94.676,268.261 L93.526,267.5377 L92.394,266.7899 L91.261,266.0415 L90.144,265.2708 L89.029,264.5013 L87.932,263.7072 L86.835,262.9135 L85.758,262.0949 L84.679,261.2756 L83.617,260.4338 L82.557,259.5934 L81.517,258.728 L80.478,257.8629 L79.458,256.9727 L78.437,256.0818 L77.435,255.1678 L76.435,254.2553 L75.456,253.3176 L74.476,252.3802 L73.519,251.4175 L72.56,250.4536 L71.622,249.4665 L70.685,248.4812 L69.77,247.4702 L68.855,246.4594 L67.964,245.4229 L67.072,244.385 L66.2,243.324 L65.33,242.265 L64.484,241.179 L63.638,240.094 L62.817,238.983 L61.994,237.871 L61.194,236.734 L60.396,235.6 L59.622,234.439 L58.849,233.278 L58.101,232.091 L57.352,230.903 L56.627,229.69 L55.904,228.479 L55.207,227.242 L54.51,226.005 L53.84,224.741 L53.169,223.475 L52.523,222.185 L51.879,220.897 L51.262,219.582 L50.645,218.267 L50.057,216.925 L49.469,215.581 L48.906,214.212 L48.344,212.845 L47.812,211.451 L47.28,210.057 L46.778,208.635 L46.275,207.212 L45.8,205.763 L45.325,204.317 L44.882,202.842 L44.438,201.368 L44.026,199.866 L43.613,198.362 L43.23,196.832 L42.847,195.304 L42.496,193.749 L42.145,192.193 L41.827,190.609 L41.509,189.023 L41.221,187.411 L40.933,185.801 L40.679,184.163 L40.426,182.524 L40.206,180.857 L39.986,179.188 L39.798,177.493 L39.61,175.8 L39.458,174.078 L39.305,172.356 L39.189,170.605 L39.072,168.848 L38.98,167.08 L38.906,165.294 L38.851,163.493 L38.812,161.679 L38.792,159.85 L38.791,158.006 L38.807,156.149 L38.842,154.278 L38.896,152.391 L38.968,150.491 L39.059,148.577 L39.169,146.647 L39.298,144.703 L39.446,142.745 L39.614,140.769 L39.707,139.778 L39.8,138.785 L39.903,137.784 L40.006,136.783 L40.119,135.775 L40.233,134.766 L40.355,133.75 L40.478,132.735 L40.61,131.713 L40.743,130.69 L40.886,129.66 L41.029,128.629 L41.182,127.591 L41.334,126.554 L41.497,125.509 L41.66,124.465 L41.834,123.412 L42.007,122.359 L42.19,121.3 L42.373,120.24 L42.566,119.173 L42.76,118.107 L42.964,117.032 L43.168,115.957 L43.383,114.875 L43.597,113.793 L43.821,112.704 L44.046,111.615 L44.282,110.518 L44.517,109.421 L44.763,108.316 L45.009,107.213 L45.265,106.101 L45.522,104.99 L45.789,103.87 L46.057,102.751 L46.335,101.624 L46.612,100.497 L46.901,99.363 L47.19,98.229 L47.49,97.088 L47.791,95.94 C48.022,95.064 47.498,94.167 46.622,93.936 C45.746,93.706 44.849,94.229 44.619,95.105 Z" id="Fill-52"></path>
        </g>
    </g>
</svg>
