<?xml version="1.0" encoding="UTF-8"?>
<svg width="363px" height="229px" viewBox="0 0 363 229" version="1.1" xmlns="http://www.w3.org/2000/svg" xmlns:xlink="http://www.w3.org/1999/xlink">
    <title>106</title>
    <g id="Page-1" stroke="none" stroke-width="1" fill="none" fill-rule="evenodd">
        <g id="106" transform="translate(0.564750, 0.227000)" fill="currentColor">
            <path d="M71.033,32.205 L69.342,33.02 L67.673,33.842 L66.033,34.667 L64.419,35.495 L62.832,36.326 L61.273,37.161 L59.74,37.998 L58.233,38.838 L56.755,39.681 L55.301,40.527 L53.874,41.376 L52.475,42.228 L51.1,43.082 L49.751,43.939 L48.429,44.799 L47.132,45.661 L45.861,46.527 L44.616,47.395 L43.396,48.265 L42.2,49.138 L41.032,50.013 L39.887,50.891 L38.767,51.771 L37.673,52.654 L36.602,53.538 L35.556,54.426 L34.536,55.316 L33.539,56.207 L32.566,57.101 L31.619,57.997 L30.694,58.895 L29.794,59.796 L28.918,60.698 L28.065,61.603 L27.236,62.509 L26.432,63.418 L25.649,64.328 L24.89,65.24 L24.155,66.154 L23.443,67.07 L22.753,67.988 L22.084,68.912 L21.455,69.827 L20.821,70.749 L20.234,71.675 L19.646,72.601 L19.105,73.529 L18.566,74.456 L18.068,75.384 L17.569,76.316 L17.116,77.25 L16.658,78.194 L15.848,80.054 L15.115,81.927 L14.469,83.807 L13.913,85.686 L13.437,87.567 L13.047,89.453 L12.743,91.336 L12.516,93.218 L12.373,95.103 L12.313,96.983 L12.327,98.86 L12.422,100.738 L12.597,102.608 L12.843,104.474 L13.167,106.338 L13.567,108.192 L14.034,110.041 L14.577,111.886 L15.19,113.72 L15.869,115.547 L16.618,117.368 L17.436,119.178 L18.315,120.98 L19.257,122.767 L19.767,123.667 L20.272,124.556 L20.807,125.442 L21.342,126.329 L21.909,127.212 L22.476,128.094 L23.074,128.971 L23.67,129.846 L24.295,130.716 L24.921,131.587 L25.576,132.453 L26.232,133.319 L26.917,134.179 L27.601,135.037 L28.311,135.891 L29.022,136.745 L29.762,137.593 L30.502,138.441 L31.27,139.283 L32.036,140.124 L32.828,140.959 L33.62,141.794 L34.44,142.623 L35.259,143.452 L36.105,144.275 L36.95,145.095 L37.818,145.91 L38.688,146.726 L39.582,147.535 L40.477,148.343 L41.397,149.145 L42.315,149.945 L43.256,150.738 L44.198,151.533 L45.163,152.319 L46.129,153.106 L47.118,153.885 L48.106,154.663 L49.115,155.433 L50.125,156.205 L51.157,156.968 L52.189,157.731 L53.243,158.486 L54.296,159.24 L55.369,159.987 L56.443,160.733 L57.537,161.472 L58.631,162.21 L59.746,162.939 L60.86,163.668 L61.993,164.388 L63.126,165.109 L64.278,165.821 L65.431,166.532 L66.602,167.235 L67.773,167.936 L68.96,168.629 L70.148,169.322 L71.355,170.006 L72.561,170.689 L73.785,171.362 L75.008,172.034 L76.247,172.698 L77.486,173.361 L78.742,174.015 L79.998,174.668 L81.27,175.311 L82.541,175.953 L83.826,176.585 L85.112,177.218 L86.413,177.84 L87.714,178.462 L89.03,179.072 L90.344,179.682 L91.672,180.282 L93.001,180.882 L94.343,181.471 L95.684,182.059 L97.04,182.636 L98.394,183.212 L99.76,183.778 L101.126,184.343 L102.505,184.897 L103.884,185.45 L105.274,185.992 L106.664,186.532 L108.063,187.062 L109.464,187.591 L110.875,188.108 L112.286,188.625 L113.707,189.129 L115.128,189.632 L116.558,190.123 L117.988,190.614 L119.427,191.092 L120.867,191.57 L122.315,192.034 L123.762,192.498 L125.217,192.95 L126.672,193.402 L128.136,193.84 L129.599,194.277 L131.069,194.701 L132.539,195.124 L134.015,195.535 L135.491,195.945 L136.974,196.341 L138.457,196.737 L139.945,197.118 L141.433,197.499 L142.926,197.866 L144.419,198.234 L145.917,198.586 L147.415,198.938 L148.918,199.275 L150.419,199.612 L151.924,199.934 L153.43,200.257 L154.939,200.564 L156.448,200.871 L157.961,201.161 L159.472,201.45 L160.985,201.725 L162.5,201.999 L164.016,202.257 L165.532,202.516 L167.049,202.757 L168.566,202.999 L170.083,203.225 L171.601,203.451 L173.12,203.66 L174.639,203.87 L176.157,204.062 L177.674,204.254 L179.191,204.43 L180.709,204.606 L182.226,204.764 L183.742,204.923 L185.257,205.064 L186.771,205.204 L188.284,205.329 L189.797,205.453 L191.307,205.559 L192.818,205.665 L194.325,205.753 L195.831,205.84 L197.335,205.911 L198.839,205.981 L200.339,206.033 L201.839,206.085 L203.334,206.117 L204.829,206.151 L206.319,206.168 L207.81,206.185 L209.295,206.182 L210.781,206.179 L212.26,206.156 L213.739,206.134 L215.211,206.093 L216.685,206.053 L218.151,205.992 L219.618,205.931 L221.077,205.85 L222.535,205.769 L223.986,205.669 L225.438,205.569 L226.881,205.449 L228.325,205.328 L229.76,205.187 L231.193,205.045 L232.618,204.885 L234.044,204.724 L235.46,204.542 L236.877,204.36 L238.282,204.156 L239.687,203.952 L241.081,203.729 L242.477,203.505 L243.862,203.259 L245.247,203.013 L246.619,202.745 L247.991,202.478 L249.351,202.189 L250.712,201.901 L252.061,201.59 L253.41,201.279 L254.745,200.945 L256.079,200.611 L257.4,200.256 L258.723,199.901 L260.031,199.523 L261.34,199.144 L262.633,198.742 L263.926,198.34 L265.204,197.917 L266.484,197.493 L267.747,197.046 L269.011,196.598 L270.259,196.126 L271.505,195.654 L272.735,195.161 L273.968,194.666 L275.183,194.147 L276.398,193.628 L277.595,193.084 L278.79,192.541 L279.969,191.975 L281.149,191.407 L282.311,190.815 L283.472,190.223 L284.614,189.605 L285.755,188.988 L286.877,188.347 L288.001,187.706 L289.104,187.038 L290.208,186.371 L291.29,185.677 L292.371,184.984 L293.433,184.267 L294.496,183.549 L295.536,182.804 L296.577,182.059 L297.595,181.287 L298.611,180.516 L299.607,179.721 L300.604,178.925 L301.577,178.101 L302.551,177.277 L303.5,176.426 L304.447,175.576 L305.372,174.701 L306.299,173.824 L307.2,172.92 L308.102,172.015 L308.977,171.083 L309.851,170.151 L310.701,169.195 L311.553,168.237 L312.377,167.25 L313.202,166.263 L313.999,165.248 L314.794,164.235 L315.565,163.195 L316.336,162.154 L317.079,161.084 L317.822,160.013 L318.536,158.914 L319.249,157.816 L319.934,156.693 L320.621,155.567 L321.278,154.411 L321.935,153.256 L322.561,152.071 L323.186,150.889 L323.783,149.679 L324.381,148.467 L324.946,147.225 L325.512,145.984 L326.046,144.712 L326.579,143.443 L327.081,142.146 L327.585,140.847 L328.056,139.518 L328.527,138.189 L328.964,136.829 L329.4,135.472 L329.805,134.087 L330.211,132.7 L330.582,131.282 L330.953,129.864 L331.289,128.415 L331.625,126.969 L331.928,125.494 L332.232,124.017 L332.5,122.509 L332.767,121.001 L332.999,119.462 L333.229,117.929 L333.435,116.365 L333.622,114.789 L333.791,113.197 L333.942,111.591 L334.075,109.969 L334.188,108.328 L334.261,106.941 L334.335,105.55 L334.373,104.178 L334.411,102.807 L334.415,101.455 L334.419,100.105 L334.392,98.774 L334.365,97.441 L334.305,96.127 L334.244,94.814 L334.15,93.52 L334.056,92.229 L333.933,90.955 L333.808,89.68 L333.652,88.424 L333.495,87.169 L333.307,85.933 L333.118,84.699 L332.901,83.483 L332.683,82.266 L332.434,81.068 L332.185,79.87 L331.905,78.691 L331.625,77.515 L331.318,76.356 L331.009,75.196 L330.671,74.055 L330.332,72.914 L329.964,71.793 L329.596,70.673 L329.202,69.572 L328.807,68.468 L328.382,67.384 L327.958,66.3 L327.505,65.236 L327.053,64.173 L326.575,63.129 L326.096,62.082 L325.589,61.055 L325.082,60.028 L324.548,59.02 L324.015,58.014 L323.458,57.025 L322.899,56.035 L322.314,55.064 L321.729,54.093 L321.117,53.141 L320.507,52.191 L319.873,51.258 L319.238,50.324 L318.578,49.409 L317.918,48.494 L317.233,47.598 L316.548,46.703 L315.842,45.826 L315.134,44.948 L314.402,44.088 L313.671,43.228 L312.915,42.388 L312.161,41.548 L311.386,40.726 L310.609,39.903 L309.809,39.098 L309.01,38.293 L308.188,37.507 L307.368,36.722 L306.527,35.954 L305.685,35.185 L304.821,34.435 L303.958,33.684 L303.073,32.952 L302.189,32.221 L301.287,31.507 L300.383,30.792 L299.459,30.094 L298.535,29.397 L297.591,28.718 L296.648,28.041 L295.687,27.379 L294.726,26.717 L293.745,26.072 L292.764,25.428 L291.764,24.802 L290.766,24.176 L289.75,23.566 L288.734,22.956 L287.7,22.363 L286.666,21.77 L285.614,21.195 L284.563,20.621 L283.497,20.062 L282.429,19.503 L281.345,18.961 L280.261,18.42 L279.16,17.896 L278.061,17.372 L276.946,16.864 L275.831,16.355 L274.7,15.864 L273.57,15.373 L272.423,14.898 L271.279,14.425 L270.12,13.966 L268.961,13.508 L267.787,13.066 L266.612,12.624 L265.424,12.199 L264.237,11.774 L263.038,11.365 L261.837,10.955 L260.623,10.562 L259.41,10.169 L258.183,9.792 L256.957,9.416 L255.72,9.055 L254.482,8.693 L253.232,8.348 L251.981,8.003 L250.719,7.674 L249.458,7.345 L248.187,7.031 L246.914,6.717 L245.631,6.418 L244.348,6.12 L243.054,5.838 L241.761,5.556 L240.458,5.288 L239.155,5.02 L237.842,4.768 L236.529,4.517 L235.206,4.28 L233.885,4.045 L232.555,3.823 L231.224,3.601 L229.884,3.395 L228.545,3.189 L227.197,2.998 L225.85,2.808 L224.495,2.631 L223.14,2.455 L221.777,2.294 L220.414,2.133 L219.045,1.987 L217.675,1.841 L216.3,1.709 L214.924,1.577 L213.541,1.461 L212.159,1.344 L210.77,1.242 L209.382,1.141 L207.989,1.053 L206.596,0.965 L205.196,0.892 L203.798,0.818 L202.393,0.76 L200.99,0.702 L199.583,0.657 L198.175,0.612 L196.763,0.582 L195.35,0.552 L193.934,0.536 L192.519,0.521 L191.101,0.518 L189.682,0.516 L188.26,0.528 L186.838,0.54 L185.413,0.567 L183.989,0.593 L182.563,0.633 L181.137,0.672 L179.708,0.726 L178.28,0.78 L176.85,0.848 L175.42,0.915 L173.99,0.996 L172.559,1.077 L171.127,1.171 L169.696,1.266 L168.264,1.375 L166.832,1.483 L165.401,1.605 L163.969,1.726 L162.538,1.861 L161.106,1.996 L159.676,2.144 L158.246,2.293 L156.817,2.454 L155.387,2.615 L153.959,2.79 L152.531,2.965 L151.105,3.153 L149.68,3.342 L148.257,3.542 L146.833,3.743 L145.412,3.957 L143.991,4.17 L142.573,4.398 L141.155,4.625 L139.741,4.864 L138.327,5.103 L136.916,5.355 L135.505,5.607 L134.098,5.872 L132.692,6.138 L131.29,6.414 L129.888,6.691 L128.491,6.981 L127.093,7.271 L125.702,7.574 L124.31,7.877 L122.924,8.191 L121.537,8.505 L120.157,8.832 L118.777,9.159 L117.403,9.498 L116.029,9.838 L114.662,10.189 L113.295,10.54 L111.935,10.903 L110.575,11.266 L109.222,11.642 L107.87,12.018 L106.526,12.405 L105.181,12.793 L103.844,13.192 L102.508,13.592 L101.18,14.003 L99.853,14.415 L98.534,14.837 L97.215,15.26 L95.905,15.695 L94.596,16.129 L93.296,16.576 L91.997,17.022 L90.707,17.48 L89.417,17.937 L88.138,18.406 L86.858,18.875 L85.59,19.356 L84.323,19.837 L83.066,20.328 L81.808,20.82 L80.562,21.323 L79.316,21.826 L78.082,22.34 L76.85,22.855 L75.628,23.38 L74.406,23.905 L73.197,24.441 L71.988,24.978 L70.793,25.525 L69.598,26.073 L68.416,26.63 L67.233,27.188 L66.065,27.758 L64.896,28.327 L63.742,28.907 L62.589,29.488 L61.449,30.078 L60.309,30.668 L59.184,31.27 L58.059,31.871 L56.95,32.484 L55.842,33.096 L54.748,33.717 L53.653,34.34 L52.575,34.973 L51.497,35.606 L50.436,36.25 L49.376,36.893 L48.331,37.546 L47.286,38.199 L46.258,38.863 L45.231,39.527 L44.221,40.202 L43.213,40.876 L42.22,41.559 L41.228,42.243 L40.254,42.938 L39.28,43.632 L38.325,44.337 L37.371,45.041 L36.435,45.755 L35.498,46.469 L34.581,47.194 L33.664,47.918 L32.768,48.652 L31.872,49.386 L30.995,50.129 L30.118,50.873 L29.261,51.627 L28.404,52.381 L27.57,53.144 L26.736,53.908 L25.922,54.68 L25.107,55.453 L24.314,56.235 L23.522,57.018 L22.752,57.811 L21.983,58.602 L21.235,59.403 L20.487,60.204 L19.762,61.015 L19.037,61.827 L18.335,62.647 L17.635,63.467 L16.957,64.295 L16.278,65.125 L15.624,65.964 L14.97,66.803 L14.341,67.652 L13.713,68.499 L13.108,69.355 L12.502,70.212 L11.922,71.078 L11.342,71.945 L10.789,72.82 L10.237,73.695 L9.709,74.577 L9.18,75.461 L8.678,76.354 L8.177,77.248 L7.703,78.15 L7.227,79.056 L6.334,80.87 L5.495,82.708 L4.714,84.563 L3.986,86.433 L3.318,88.322 L2.711,90.226 L2.159,92.146 L1.669,94.083 L1.243,96.036 L0.874,98.002 L0.57,99.987 L0.332,101.985 L0.154,103.996 L0.043,106.018 L0.021,107.047 L0,108.066 L0.009,109.093 L0.019,110.121 L0.063,111.156 L0.108,112.191 L0.187,113.234 L0.267,114.274 L0.378,115.32 L0.49,116.369 L0.637,117.424 L0.785,118.479 L0.968,119.54 L1.152,120.6 L1.368,121.666 L1.585,122.733 L1.839,123.807 L2.092,124.88 L2.383,125.96 L2.674,127.038 L2.998,128.122 L3.324,129.207 L3.686,130.299 L4.049,131.39 L4.451,132.487 L4.851,133.583 L5.287,134.684 L5.724,135.786 L6.199,136.894 L6.674,138.002 L7.188,139.116 L7.702,140.23 L8.541,141.944 L9.418,143.64 L10.332,145.313 L11.279,146.967 L12.262,148.601 L13.281,150.212 L14.331,151.804 L15.416,153.376 L16.536,154.926 L17.685,156.456 L18.87,157.967 L20.086,159.455 L21.331,160.923 L22.61,162.372 L23.919,163.798 L25.257,165.206 L26.626,166.593 L28.025,167.958 L29.45,169.304 L30.906,170.629 L32.391,171.933 L33.901,173.218 L35.44,174.482 L37.006,175.725 L38.596,176.949 L40.212,178.151 L41.037,178.744 L41.859,179.335 L42.692,179.917 L43.526,180.498 L44.373,181.07 L45.22,181.641 L46.08,182.203 L46.939,182.763 L47.809,183.314 L48.68,183.866 L49.563,184.407 L50.446,184.948 L51.341,185.479 L52.235,186.01 L53.14,186.531 L54.046,187.052 L54.963,187.563 L55.88,188.074 L56.809,188.575 L57.737,189.075 L58.675,189.566 L59.613,190.058 L60.563,190.539 L61.513,191.02 L62.473,191.491 L63.433,191.961 L64.402,192.422 L65.372,192.883 L66.352,193.335 L67.332,193.786 L68.322,194.227 L69.312,194.667 L70.31,195.098 L71.31,195.53 L72.319,195.951 L73.328,196.372 L74.346,196.783 L75.364,197.194 L76.39,197.596 L77.417,197.998 L78.453,198.39 L79.489,198.781 L80.533,199.163 L81.577,199.544 L82.63,199.916 L83.682,200.288 L84.743,200.65 L85.804,201.012 L86.873,201.364 L87.942,201.716 L89.018,202.058 L90.095,202.401 L91.179,202.733 L92.264,203.066 L93.356,203.388 L94.447,203.71 L95.546,204.024 L96.644,204.337 L97.75,204.64 L98.856,204.943 L99.969,205.236 L101.082,205.528 L102.201,205.812 L103.32,206.096 L104.446,206.369 L105.572,206.643 L106.704,206.906 L107.836,207.17 L108.973,207.424 L110.111,207.678 L111.255,207.923 L112.399,208.167 L113.548,208.401 L114.697,208.635 L115.852,208.86 L117.006,209.086 L118.167,209.301 L119.327,209.516 L120.492,209.721 L121.659,209.926 L122.833,210.118 L124,210.308 L125.166,210.499 L126.344,210.691 L127.53,210.863 L128.706,211.033 L129.882,211.204 L131.068,211.376 L132.263,211.528 L133.447,211.678 L134.631,211.829 L135.825,211.981 L137.025,212.115 L138.216,212.247 L139.407,212.38 L140.609,212.513 L141.817,212.627 L143.014,212.74 L144.212,212.852 L145.42,212.966 L146.634,213.06 L147.837,213.153 L149.041,213.246 L150.254,213.339 L151.471,213.415 L152.679,213.489 L153.888,213.564 L155.106,213.64 L156.328,213.695 L157.541,213.751 L158.753,213.806 L159.976,213.861 L161.202,213.897 L162.417,213.932 L163.633,213.968 L164.858,214.003 L166.085,214.021 L167.303,214.038 L168.522,214.055 L169.75,214.073 L170.979,214.07 L172.199,214.068 L173.419,214.066 L174.649,214.063 L175.88,214.041 L177.101,214.019 L178.322,213.997 L179.551,213.975 L180.781,213.935 L182.002,213.895 L183.223,213.855 L184.454,213.814 L185.684,213.754 L186.904,213.695 L188.125,213.635 L189.355,213.575 L190.583,213.496 L191.802,213.416 L193.021,213.337 L194.248,213.258 L195.474,213.16 L196.69,213.063 L197.907,212.966 L199.133,212.868 L200.356,212.751 L201.57,212.634 L202.783,212.518 L204.006,212.4 L205.225,212.263 L206.435,212.127 L207.644,211.991 L208.862,211.854 L210.076,211.699 L211.281,211.545 L212.486,211.392 L213.701,211.236 L214.91,211.061 L216.109,210.888 L217.308,210.714 L218.518,210.539 L219.721,210.345 L220.913,210.152 L222.106,209.959 L223.308,209.764 L224.503,209.552 L225.689,209.341 L226.875,209.131 L228.071,208.918 L229.259,208.686 L230.437,208.456 L231.615,208.226 L232.803,207.994 L233.982,207.742 L235.151,207.493 L236.32,207.244 L237.498,206.992 L238.667,206.723 L239.828,206.456 L240.987,206.189 L242.158,205.919 L243.318,205.63 L244.467,205.344 L245.616,205.058 L246.776,204.768 L247.925,204.46 L249.062,204.154 L250.2,203.849 L251.348,203.54 L252.484,203.214 L253.611,202.891 L254.738,202.568 L255.875,202.241 L257,201.896 L258.113,201.553 L259.227,201.21 L260.351,200.864 L261.462,200.499 L262.562,200.137 L263.661,199.775 L264.768,199.411 L265.866,199.033 L266.961,198.656 L268.048,198.27 L269.136,197.883 L270.216,197.487 L271.295,197.091 L272.367,196.686 L273.44,196.281 L274.505,195.866 L275.569,195.452 L276.625,195.027 L277.681,194.603 L278.729,194.17 L279.777,193.737 L280.817,193.294 L281.856,192.851 L282.887,192.399 L283.917,191.947 L284.938,191.486 L285.961,191.024 L286.973,190.553 L287.986,190.082 L288.989,189.602 L289.992,189.122 L290.986,188.633 L291.98,188.143 L292.964,187.644 L293.948,187.145 L294.923,186.637 L295.896,186.128 L296.86,185.611 L297.824,185.094 L298.778,184.567 L299.732,184.04 L300.675,183.503 L301.618,182.967 L302.55,182.422 L303.483,181.876 L304.405,181.321 L305.327,180.766 L306.237,180.201 L307.147,179.637 L308.046,179.064 L308.945,178.49 L309.833,177.907 L310.721,177.324 L311.597,176.731 L312.472,176.139 L313.336,175.538 L314.2,174.936 L315.052,174.325 L315.904,173.714 L316.744,173.093 L317.582,172.473 L318.409,171.844 L319.237,171.215 L320.051,170.576 L320.866,169.936 L321.667,169.288 L322.467,168.639 L323.255,167.982 L324.044,167.325 L324.819,166.658 L325.594,165.991 L326.355,165.314 L327.115,164.638 L327.862,163.953 L328.61,163.267 L329.344,162.572 L330.08,161.875 L331.515,160.468 L332.926,159.042 L334.307,157.596 L335.656,156.131 L336.978,154.649 L338.269,153.147 L339.528,151.626 L340.757,150.089 L341.955,148.531 L343.119,146.955 L344.252,145.362 L345.352,143.748 L346.416,142.116 L347.45,140.467 L348.448,138.798 L349.41,137.111 L350.339,135.407 L351.233,133.682 L352.088,131.94 L352.91,130.18 L353.694,128.4 L354.44,126.603 L355.15,124.788 L355.821,122.954 L356.452,121.102 L357.047,119.232 L357.602,117.343 L358.116,115.437 L358.592,113.513 L359.027,111.57 L359.418,109.614 L359.704,108.062 L359.969,106.526 L360.215,105.003 L360.442,103.491 L360.65,101.991 L360.838,100.502 L360.999,99.036 L361.161,97.566 L361.283,96.12 L361.406,94.675 L361.491,93.254 L361.575,91.834 L361.625,90.437 L361.675,89.038 L361.688,87.664 L361.7,86.29 L361.676,84.94 L361.651,83.592 L361.593,82.265 L361.535,80.937 L361.441,79.634 L361.347,78.33 L361.217,77.05 L361.087,75.772 L360.925,74.515 L360.763,73.257 L360.565,72.023 L360.368,70.788 L360.136,69.578 L359.904,68.369 L359.641,67.181 L359.378,65.992 L359.081,64.827 L358.783,63.661 L358.453,62.519 L358.123,61.379 L357.763,60.26 L357.402,59.139 L357.009,58.042 L356.616,56.944 L356.191,55.87 L355.766,54.798 L355.312,53.746 L354.858,52.693 L354.373,51.663 L353.887,50.634 L353.371,49.627 L352.855,48.622 L352.312,47.637 L351.768,46.652 L351.194,45.688 L350.62,44.726 L350.016,43.785 L349.413,42.847 L348.785,41.929 L348.155,41.01 L347.496,40.113 L346.838,39.216 L346.151,38.342 L345.466,37.469 L344.755,36.616 L344.043,35.763 L343.304,34.931 L342.566,34.1 L341.8,33.291 L341.036,32.483 L340.247,31.695 L339.458,30.906 L338.643,30.139 L337.828,29.373 L336.987,28.627 L336.148,27.883 L335.286,27.159 L334.423,26.434 L333.536,25.73 L332.648,25.027 L331.737,24.345 L330.827,23.664 L329.895,23.002 L328.963,22.339 L328.007,21.698 L327.051,21.056 L326.073,20.436 L325.096,19.817 L324.099,19.216 L323.101,18.615 L322.081,18.034 L321.061,17.454 L320.02,16.894 L318.98,16.335 L317.921,15.795 L316.86,15.254 L315.78,14.733 L314.7,14.212 L313.6,13.712 L312.5,13.212 L311.383,12.73 L310.265,12.248 L309.128,11.786 L307.991,11.324 L306.836,10.881 L305.681,10.439 L304.51,10.015 L303.338,9.59 L302.148,9.185 L300.958,8.78 L299.75,8.395 L298.544,8.009 L297.322,7.642 L296.1,7.273 L294.86,6.924 L293.621,6.575 L292.366,6.246 L291.112,5.916 L289.843,5.603 L288.574,5.29 L287.289,4.996 L286.004,4.702 L284.705,4.427 L283.406,4.151 L282.094,3.893 L280.782,3.634 L279.455,3.393 L278.129,3.153 L276.789,2.931 L275.45,2.708 L274.098,2.502 L272.746,2.297 L271.382,2.108 L270.017,1.92 L268.64,1.75 L267.264,1.58 L265.877,1.425 L264.489,1.271 L263.09,1.134 L261.691,0.997 L260.28,0.878 L258.871,0.758 L257.452,0.655 L256.032,0.551 L254.602,0.464 L253.172,0.377 L251.732,0.308 L250.293,0.238 L248.845,0.183 L247.397,0.129 L245.94,0.091 L244.483,0.054 L243.017,0.033 L241.552,0.012 L240.079,0.006 L238.606,0 L237.125,0.011 L235.645,0.021 L234.157,0.048 L232.669,0.074 L231.176,0.115 L229.682,0.156 L228.181,0.214 L226.68,0.271 L225.174,0.344 L223.668,0.417 L222.157,0.504 L220.645,0.591 L219.128,0.694 L217.611,0.796 L216.09,0.915 L214.569,1.033 L213.044,1.165 L211.519,1.297 L209.989,1.444 L208.46,1.592 L206.927,1.754 L205.395,1.917 L203.86,2.092 L202.325,2.268 L200.787,2.459 L199.248,2.65 L197.708,2.856 L196.168,3.061 L194.627,3.28 L193.085,3.499 L191.542,3.732 L189.998,3.966 L188.454,4.213 L186.911,4.461 L185.366,4.721 L183.822,4.982 L182.277,5.257 L180.732,5.531 L179.188,5.82 L177.644,6.108 L176.1,6.409 L174.557,6.71 L173.014,7.025 L171.472,7.34 L169.931,7.668 L168.39,7.997 L166.851,8.337 L165.312,8.678 L163.776,9.032 L162.239,9.386 L160.705,9.753 L159.172,10.12 L157.641,10.499 L156.11,10.878 L154.583,11.27 L153.056,11.662 L151.533,12.067 L150.01,12.471 L148.492,12.888 L146.973,13.304 L145.459,13.733 L143.945,14.162 L142.437,14.603 L140.929,15.045 L139.426,15.497 L137.923,15.95 L136.426,16.415 L134.929,16.88 L133.438,17.357 L131.949,17.834 L130.465,18.321 L128.981,18.809 L127.505,19.309 L126.028,19.809 L124.56,20.32 L123.092,20.831 L121.631,21.353 L120.171,21.875 L118.719,22.409 L117.267,22.942 L115.824,23.487 L114.381,24.032 L112.947,24.587 L111.513,25.142 L110.089,25.708 L108.665,26.274 L107.251,26.851 L105.838,27.428 L104.435,28.015 L103.031,28.602 L101.638,29.2 L100.246,29.798 L98.865,30.406 L97.485,31.014 L96.116,31.632 L94.746,32.25 L93.389,32.878 L92.031,33.507 L90.687,34.145 L89.344,34.784 L88.012,35.432 L86.68,36.079 L85.362,36.737 L84.044,37.395 L82.74,38.063 L81.436,38.731 L80.146,39.407 L78.856,40.084 L77.58,40.77 L76.305,41.457 L75.045,42.153 L73.786,42.848 L72.541,43.553 L71.295,44.257 L70.066,44.971 L68.837,45.685 L67.624,46.407 L66.412,47.13 L65.216,47.861 L64.019,48.592 L62.84,49.332 L61.661,50.072 L60.5,50.82 L59.339,51.569 L58.195,52.325 L57.051,53.082 L55.925,53.848 L54.8,54.613 L53.694,55.387 L52.588,56.161 L51.501,56.942 L50.412,57.723 L49.344,58.513 L48.276,59.303 L47.229,60.101 L46.182,60.899 L45.154,61.703 L44.126,62.509 L43.119,63.322 L42.112,64.135 L41.127,64.956 L40.142,65.777 L39.178,66.605 L38.213,67.433 L37.271,68.269 L36.329,69.104 L35.41,69.948 L34.492,70.79 L33.595,71.64 L32.697,72.49 L31.823,73.347 L30.95,74.204 L30.1,75.068 L29.252,75.932 L28.426,76.802 L27.599,77.673 L26.798,78.55 L25.996,79.428 L25.221,80.313 L24.446,81.197 L23.694,82.087 L22.943,82.978 L22.217,83.875 L21.492,84.772 L20.794,85.676 L20.096,86.579 L19.423,87.488 L18.75,88.398 L18.104,89.314 L17.459,90.23 L16.842,91.152 L16.225,92.074 L15.635,93.001 L15.044,93.929 L14.482,94.862 L13.921,95.796 L13.389,96.736 L12.857,97.675 L12.353,98.619 L11.849,99.564 L11.375,100.514 L10.901,101.465 L10.458,102.421 L10.015,103.377 L9.601,104.336 L9.187,105.298 L8.805,106.264 L8.423,107.231 L8.073,108.202 L7.723,109.173 L7.404,110.147 L7.084,111.124 L6.797,112.105 L6.511,113.086 L6.258,114.072 L6.005,115.061 L5.563,117.035 L5.189,119.024 L4.886,121.02 L4.649,123.023 L4.483,125.036 L4.39,127.055 L4.365,129.08 L4.414,131.107 L4.477,132.133 L4.54,133.151 L4.637,134.172 L4.735,135.195 L4.871,136.22 L5.008,137.246 L5.183,138.274 L5.359,139.3 L5.57,140.329 L5.781,141.359 L6.033,142.391 L6.284,143.424 L6.576,144.458 L6.868,145.491 L7.196,146.526 L7.525,147.562 L7.895,148.6 L8.265,149.637 L8.676,150.677 L9.086,151.712 L9.513,152.715 L9.939,153.716 L10.384,154.703 L10.829,155.69 L11.294,156.663 L11.758,157.635 L12.241,158.594 L12.723,159.554 L13.225,160.501 L13.726,161.447 L14.246,162.379 L14.765,163.31 L15.301,164.229 L15.837,165.148 L16.391,166.054 L16.946,166.959 L17.517,167.851 L18.089,168.741 L18.676,169.62 L19.264,170.498 L19.869,171.363 L20.474,172.228 L21.095,173.079 L21.717,173.93 L22.353,174.768 L22.99,175.606 L23.643,176.431 L24.297,177.255 L24.966,178.066 L25.635,178.876 L26.318,179.674 L27.002,180.472 L27.702,181.256 L28.401,182.04 L29.116,182.811 L29.83,183.581 L30.558,184.338 L31.287,185.096 L32.03,185.84 L32.774,186.584 L33.532,187.315 L34.289,188.045 L35.06,188.762 L35.831,189.48 L36.616,190.184 L37.402,190.888 L38.201,191.579 L38.999,192.269 L39.81,192.946 L40.621,193.624 L41.446,194.288 L42.271,194.952 L43.109,195.603 L43.946,196.253 L44.796,196.89 L45.645,197.528 L46.507,198.153 L47.37,198.777 L48.244,199.388 L49.118,199.998 L50.003,200.596 L50.888,201.195 L51.786,201.78 L52.683,202.365 L53.592,202.936 L54.5,203.507 L55.419,204.066 L56.338,204.625 L57.268,205.17 L58.198,205.716 L59.139,206.248 L60.079,206.779 L61.03,207.299 L61.98,207.819 L62.941,208.325 L63.902,208.832 L64.873,209.324 L65.844,209.817 L66.823,210.298 L67.803,210.778 L68.792,211.246 L69.782,211.713 L70.781,212.167 L71.779,212.621 L72.786,213.062 L73.793,213.504 L74.808,213.933 L75.824,214.361 L76.849,214.777 L77.873,215.192 L78.904,215.595 L79.936,215.998 L80.976,216.388 L82.016,216.778 L83.064,217.156 L84.111,217.533 L85.165,217.898 L86.22,218.263 L87.282,218.615 L88.344,218.967 L89.413,219.306 L90.482,219.645 L91.557,219.972 L92.632,220.299 L93.714,220.613 L94.796,220.926 L95.884,221.227 L96.972,221.528 L98.066,221.816 L99.16,222.105 L100.259,222.381 L101.359,222.657 L102.465,222.919 L103.57,223.182 L104.68,223.432 L105.79,223.683 L106.906,223.921 L108.021,224.158 L109.141,224.383 L110.261,224.608 L111.386,224.821 L112.51,225.033 L113.639,225.233 L114.768,225.433 L115.902,225.62 L117.034,225.807 L118.171,225.982 L119.308,226.157 L120.448,226.319 L121.588,226.482 L122.732,226.631 L123.876,226.78 L125.022,226.918 L126.169,227.055 L127.319,227.18 L128.468,227.305 L129.621,227.417 L130.772,227.529 L131.927,227.63 L133.081,227.73 L134.238,227.818 L135.395,227.905 L136.554,227.98 L137.712,228.055 L138.872,228.118 L140.032,228.181 L141.194,228.231 L142.356,228.281 L143.519,228.319 L144.681,228.357 L145.845,228.383 L147.008,228.409 L148.173,228.422 L149.338,228.436 L150.503,228.436 L151.668,228.436 L152.832,228.425 L153.998,228.414 L155.163,228.39 L156.329,228.367 L157.494,228.33 L158.658,228.294 L159.822,228.246 L160.987,228.198 L162.151,228.138 L163.315,228.077 L164.477,228.004 L165.64,227.931 L166.801,227.847 L167.963,227.762 L169.123,227.665 L170.284,227.568 L171.442,227.458 L172.6,227.348 L173.756,227.227 L174.913,227.106 L176.068,226.972 L177.223,226.839 L178.375,226.693 L179.526,226.547 L180.675,226.389 L181.825,226.232 L182.972,226.062 L184.119,225.892 L185.262,225.709 L186.405,225.527 L187.545,225.333 L188.685,225.139 L189.822,224.933 L190.959,224.727 L192.091,224.508 L193.224,224.289 L194.352,224.059 L195.481,223.829 L196.606,223.587 L197.73,223.345 L198.85,223.09 L199.969,222.835 L201.084,222.569 L202.2,222.303 L203.31,222.024 L204.42,221.746 L205.525,221.455 L206.629,221.164 L207.728,220.863 L208.828,220.56 L209.922,220.246 L211.016,219.932 L212.103,219.605 L213.191,219.278 L214.272,218.941 L215.354,218.603 L216.429,218.253 L217.504,217.902 L218.572,217.54 L219.64,217.178 L220.702,216.805 L221.763,216.431 L222.818,216.045 L223.872,215.66 L224.919,215.262 L225.965,214.864 L227.005,214.455 L228.044,214.046 L229.076,213.624 L230.108,213.203 L231.131,212.77 L232.153,212.336 L233.168,211.892 L234.184,211.447 L235.19,210.991 L236.197,210.534 L237.194,210.065 L238.191,209.596 L239.18,209.117 L240.168,208.637 L241.148,208.144 L242.127,207.652 L243.097,207.148 L244.066,206.644 L245.025,206.129 L245.986,205.614 L246.936,205.087 L247.886,204.559 L248.825,204.02 L249.764,203.481 L250.693,202.931 L251.622,202.38 L252.541,201.818 L253.459,201.256 L254.366,200.681 L255.273,200.107 L256.169,199.522 L257.066,198.936 L257.951,198.339 L258.835,197.741 L259.708,197.132 L260.58,196.523 L261.441,195.903 L262.303,195.283 L263.152,194.651 L264.001,194.018 L264.837,193.374 L265.673,192.73 L266.496,192.076 L267.32,191.42 L268.131,190.753 L268.943,190.086 L269.74,189.407 L270.537,188.729 L271.321,188.039 L272.106,187.349 L272.876,186.648 L273.647,185.946 L274.403,185.232 L275.159,184.519 L275.902,183.795 L276.645,183.07 L277.373,182.334 L278.102,181.598 L278.815,180.849 L279.528,180.102 L280.226,179.343 L280.926,178.584 L281.609,177.813 L282.293,177.043 L282.961,176.26 L283.628,175.478 L284.281,174.685 L284.934,173.892 L285.571,173.086 L286.208,172.281 L286.828,171.464 L287.448,170.648 L288.052,169.821 L288.657,168.993 L289.245,168.154 L289.832,167.314 L290.403,166.463 L290.973,165.613 L291.527,164.752 L292.081,163.89 L292.617,163.016 L293.154,162.143 L293.672,161.258 L294.19,160.373 L294.691,159.478 L295.193,158.583 L295.676,157.675 L296.159,156.768 L296.623,155.849 L297.087,154.931 L297.533,154.002 L297.98,153.073 L298.407,152.132 L298.834,151.191 L299.242,150.238 L299.649,149.286 L300.038,148.324 L300.427,147.361 L300.797,146.387 L301.166,145.412 L301.515,144.426 L301.863,143.441 L302.193,142.445 L302.523,141.449 L302.832,140.441 L303.141,139.433 L303.43,138.414 L303.717,137.396 L303.985,136.367 L304.254,135.337 L304.501,134.297 L304.747,133.256 L304.972,132.204 L305.197,131.152 L305.402,130.091 L305.606,129.028 L305.788,127.955 L305.971,126.881 L306.131,125.796 L306.29,124.712 L306.429,123.618 L306.567,122.523 L306.683,121.416 L306.798,120.31 L306.891,119.193 L306.983,118.076 L307.054,116.949 L307.124,115.822 L307.171,114.683 L307.218,113.545 L307.24,112.395 L307.263,111.246 L307.264,110.087 L307.264,108.928 L307.24,107.757 L307.216,106.586 L307.167,105.404 L307.118,104.223 L307.046,103.032 L306.974,101.841 L306.877,100.638 L306.78,99.435 L306.657,98.222 L306.534,97.009 L306.388,95.786 L306.242,94.562 L306.07,93.328 L305.897,92.094 L305.699,90.848 L305.5,89.604 L305.278,88.349 L305.055,87.094 L304.805,85.828 L304.556,84.562 L304.279,83.285 L304.003,82.009 L303.702,80.723 L303.4,79.437 L303.071,78.139 L302.743,76.842 L302.386,75.534 L302.031,74.233 C301.91,73.788 301.452,73.526 301.007,73.647 C300.563,73.769 300.3,74.227 300.422,74.672 L300.776,75.973 L301.129,77.267 L301.454,78.549 L301.779,79.832 L302.077,81.104 L302.375,82.376 L302.648,83.639 L302.922,84.9 L303.168,86.151 L303.414,87.401 L303.634,88.641 L303.854,89.881 L304.05,91.111 L304.246,92.34 L304.416,93.559 L304.587,94.777 L304.731,95.984 L304.875,97.192 L304.996,98.39 L305.117,99.587 L305.213,100.772 L305.308,101.958 L305.379,103.133 L305.45,104.308 L305.498,105.473 L305.547,106.638 L305.57,107.791 L305.594,108.944 L305.593,110.086 L305.593,111.229 L305.57,112.362 L305.548,113.494 L305.502,114.615 L305.456,115.735 L305.386,116.845 L305.317,117.955 L305.226,119.055 L305.135,120.155 L305.021,121.243 L304.908,122.331 L304.771,123.408 L304.634,124.485 L304.477,125.553 L304.32,126.62 L304.141,127.675 L303.962,128.73 L303.761,129.775 L303.559,130.82 L303.338,131.854 L303.117,132.888 L302.874,133.911 L302.632,134.934 L302.368,135.945 L302.104,136.958 L301.821,137.96 L301.538,138.961 L301.234,139.951 L300.931,140.941 L300.606,141.92 L300.282,142.899 L299.939,143.868 L299.596,144.837 L299.233,145.794 L298.871,146.751 L298.488,147.697 L298.105,148.644 L297.704,149.58 L297.304,150.516 L296.884,151.44 L296.464,152.365 L296.026,153.278 L295.586,154.192 L295.13,155.095 L294.674,155.998 L294.199,156.889 L293.725,157.781 L293.232,158.661 L292.739,159.542 L292.229,160.412 L291.719,161.282 L291.192,162.141 L290.665,162.999 L290.12,163.846 L289.574,164.694 L289.013,165.532 L288.452,166.369 L287.874,167.194 L287.296,168.019 L286.701,168.833 L286.106,169.648 L285.495,170.452 L284.885,171.256 L284.258,172.048 L283.631,172.84 L282.989,173.621 L282.345,174.403 L281.687,175.173 L281.03,175.944 L280.357,176.703 L279.684,177.462 L278.995,178.209 L278.306,178.957 L277.603,179.694 L276.901,180.431 L276.183,181.157 L275.465,181.882 L274.733,182.596 L274,183.31 L273.254,184.014 L272.509,184.718 L271.749,185.409 L270.989,186.101 L270.215,186.781 L269.441,187.462 L268.654,188.132 L267.868,188.802 L267.068,189.46 L266.267,190.118 L265.454,190.764 L264.64,191.411 L263.815,192.047 L262.989,192.683 L262.151,193.307 L261.313,193.931 L260.463,194.544 L259.611,195.156 L258.749,195.758 L257.887,196.36 L257.013,196.95 L256.139,197.54 L255.253,198.118 L254.366,198.696 L253.469,199.264 L252.573,199.832 L251.665,200.387 L250.757,200.943 L249.838,201.487 L248.919,202.031 L247.989,202.564 L247.06,203.097 L246.121,203.618 L245.181,204.139 L244.231,204.649 L243.281,205.158 L242.321,205.657 L241.362,206.155 L240.393,206.642 L239.424,207.129 L238.445,207.603 L237.466,208.078 L236.478,208.542 L235.491,209.006 L234.495,209.458 L233.498,209.91 L232.493,210.349 L231.487,210.789 L230.474,211.218 L229.461,211.647 L228.439,212.064 L227.417,212.481 L226.388,212.886 L225.357,213.291 L224.32,213.685 L223.283,214.079 L222.238,214.461 L221.194,214.843 L220.142,215.212 L219.089,215.582 L218.03,215.941 L216.972,216.3 L215.906,216.646 L214.84,216.993 L213.768,217.327 L212.696,217.662 L211.617,217.985 L210.539,218.308 L209.455,218.62 L208.371,218.931 L207.28,219.23 L206.19,219.529 L205.094,219.817 L203.999,220.104 L202.898,220.38 L201.797,220.656 L200.691,220.919 L199.585,221.182 L198.474,221.435 L197.363,221.687 L196.248,221.927 L195.133,222.167 L194.013,222.394 L192.893,222.622 L191.769,222.838 L190.646,223.055 L189.518,223.259 L188.391,223.463 L187.26,223.655 L186.129,223.846 L184.994,224.027 L183.86,224.208 L182.722,224.376 L181.585,224.544 L180.444,224.699 L179.304,224.855 L178.16,225 L177.017,225.144 L175.872,225.276 L174.727,225.408 L173.579,225.528 L172.431,225.647 L171.281,225.755 L170.132,225.864 L168.981,225.959 L167.83,226.055 L166.677,226.138 L165.525,226.221 L164.371,226.293 L163.217,226.365 L162.062,226.424 L160.908,226.483 L159.752,226.53 L158.597,226.577 L157.44,226.612 L156.285,226.647 L155.129,226.67 L153.973,226.693 L152.817,226.703 L151.66,226.713 L150.504,226.712 L149.349,226.71 L148.194,226.696 L147.038,226.682 L145.884,226.656 L144.729,226.629 L143.575,226.591 L142.422,226.553 L141.269,226.502 L140.117,226.452 L138.966,226.388 L137.815,226.325 L136.666,226.25 L135.517,226.175 L134.37,226.087 L133.223,226 L132.078,225.899 L130.932,225.799 L129.789,225.687 L128.647,225.575 L127.507,225.451 L126.367,225.326 L125.23,225.188 L124.093,225.051 L122.959,224.901 L121.825,224.752 L120.695,224.59 L119.565,224.428 L118.438,224.253 L117.311,224.078 L116.188,223.892 L115.065,223.705 L113.946,223.506 L112.828,223.307 L111.713,223.094 L110.599,222.882 L109.488,222.658 L108.379,222.434 L107.274,222.198 L106.169,221.961 L105.069,221.711 L103.969,221.462 L102.874,221.2 L101.78,220.939 L100.691,220.665 L99.602,220.39 L98.519,220.103 L97.436,219.816 L96.358,219.517 L95.281,219.218 L94.21,218.906 L93.139,218.595 L92.075,218.27 L91.011,217.945 L89.953,217.608 L88.895,217.271 L87.845,216.922 L86.794,216.572 L85.751,216.21 L84.708,215.847 L83.671,215.472 L82.635,215.098 L81.607,214.711 L80.58,214.323 L79.56,213.922 L78.54,213.52 L77.528,213.107 L76.516,212.694 L75.513,212.268 L74.51,211.842 L73.516,211.403 L72.521,210.964 L71.535,210.513 L70.549,210.062 L69.573,209.598 L68.597,209.134 L67.63,208.657 L66.663,208.18 L65.705,207.69 L64.748,207.201 L63.8,206.699 L62.853,206.197 L61.916,205.682 L60.979,205.167 L60.051,204.639 L59.124,204.112 L58.208,203.572 L57.292,203.031 L56.387,202.478 L55.481,201.924 L54.586,201.358 L53.692,200.793 L52.808,200.215 L51.926,199.636 L51.055,199.044 L50.183,198.452 L49.322,197.848 L48.463,197.244 L47.615,196.627 L46.767,196.01 L45.933,195.38 L45.097,194.75 L44.273,194.107 L43.45,193.465 L42.64,192.809 L41.83,192.154 L41.033,191.485 L40.235,190.817 L39.45,190.135 L38.666,189.455 L37.895,188.761 L37.124,188.067 L36.368,187.36 L35.61,186.653 L34.866,185.933 L34.122,185.214 L33.393,184.481 L32.664,183.749 L31.95,183.003 L31.235,182.256 L30.534,181.498 L29.833,180.74 L29.148,179.968 L28.463,179.197 L27.793,178.412 L27.122,177.627 L26.466,176.829 L25.811,176.033 L25.172,175.222 L24.532,174.412 L23.909,173.588 L23.285,172.764 L22.676,171.927 L22.068,171.091 L21.476,170.242 L20.884,169.392 L20.31,168.529 L19.735,167.666 L19.175,166.79 L18.616,165.914 L18.074,165.026 L17.533,164.137 L17.009,163.235 L16.484,162.332 L15.976,161.416 L15.468,160.502 L14.978,159.573 L14.489,158.645 L14.018,157.703 L13.546,156.761 L13.091,155.806 L12.636,154.852 L12.199,153.884 L11.763,152.917 L11.346,151.935 L10.929,150.956 L10.529,149.944 L10.13,148.936 L9.772,147.931 L9.413,146.926 L9.096,145.923 L8.777,144.919 L8.495,143.917 L8.213,142.917 L7.97,141.92 L7.727,140.922 L7.523,139.928 L7.319,138.932 L7.15,137.938 L6.98,136.946 L6.849,135.957 L6.717,134.969 L6.624,133.983 L6.529,132.995 L6.469,132.011 L6.409,131.034 L6.361,129.068 L6.386,127.113 L6.476,125.164 L6.636,123.223 L6.866,121.288 L7.159,119.358 L7.521,117.438 L7.951,115.518 L8.194,114.569 L8.439,113.615 L8.717,112.666 L8.994,111.716 L9.305,110.771 L9.615,109.824 L9.955,108.88 L10.295,107.938 L10.666,107.001 L11.037,106.063 L11.44,105.129 L11.843,104.194 L12.275,103.264 L12.706,102.334 L13.168,101.409 L13.629,100.484 L14.121,99.563 L14.614,98.641 L15.133,97.724 L15.653,96.808 L16.201,95.897 L16.75,94.985 L17.328,94.079 L17.906,93.171 L18.51,92.269 L19.114,91.367 L19.746,90.471 L20.378,89.574 L21.038,88.684 L21.698,87.792 L22.384,86.905 L23.069,86.019 L23.781,85.139 L24.493,84.259 L25.231,83.384 L25.971,82.509 L26.734,81.64 L27.496,80.771 L28.284,79.908 L29.073,79.045 L29.886,78.189 L30.701,77.332 L31.537,76.481 L32.374,75.63 L33.235,74.786 L34.096,73.942 L34.981,73.105 L35.867,72.267 L36.774,71.435 L37.681,70.604 L38.611,69.78 L39.541,68.956 L40.494,68.139 L41.447,67.321 L42.421,66.51 L43.395,65.7 L44.39,64.897 L45.386,64.094 L46.402,63.298 L47.42,62.503 L48.457,61.714 L49.493,60.925 L50.55,60.144 L51.607,59.364 L52.684,58.591 L53.762,57.818 L54.858,57.052 L55.954,56.286 L57.068,55.529 L58.183,54.772 L59.317,54.023 L60.452,53.273 L61.603,52.532 L62.754,51.79 L63.923,51.058 L65.092,50.325 L66.279,49.601 L67.466,48.877 L68.669,48.161 L69.871,47.445 L71.091,46.738 L72.311,46.031 L73.547,45.334 L74.784,44.636 L76.035,43.946 L77.285,43.257 L78.552,42.577 L79.818,41.898 L81.1,41.227 L82.382,40.557 L83.677,39.895 L84.972,39.233 L86.281,38.582 L87.591,37.93 L88.914,37.288 L90.237,36.646 L91.573,36.013 L92.909,35.38 L94.257,34.757 L95.606,34.135 L96.967,33.522 L98.329,32.91 L99.701,32.306 L101.074,31.704 L102.458,31.111 L103.842,30.519 L105.237,29.937 L106.633,29.355 L108.039,28.783 L109.444,28.211 L110.86,27.649 L112.276,27.088 L113.702,26.538 L115.128,25.988 L116.563,25.448 L117.997,24.908 L119.441,24.379 L120.885,23.85 L122.338,23.333 L123.791,22.816 L125.251,22.308 L126.712,21.802 L128.18,21.306 L129.648,20.811 L131.124,20.328 L132.6,19.844 L134.082,19.371 L135.564,18.899 L137.053,18.438 L138.542,17.978 L140.037,17.529 L141.532,17.081 L143.033,16.643 L144.533,16.206 L146.038,15.781 L147.544,15.356 L149.054,14.944 L150.565,14.531 L152.08,14.13 L153.595,13.729 L155.114,13.341 L156.632,12.953 L158.155,12.577 L159.677,12.202 L161.203,11.838 L162.728,11.475 L164.256,11.125 L165.785,10.774 L167.315,10.437 L168.846,10.1 L170.378,9.775 L171.911,9.45 L173.444,9.139 L174.978,8.827 L176.513,8.529 L178.048,8.231 L179.584,7.946 L181.119,7.661 L182.655,7.389 L184.191,7.118 L185.726,6.861 L187.262,6.603 L188.797,6.358 L190.332,6.114 L191.866,5.884 L193.4,5.653 L194.932,5.437 L196.465,5.221 L197.996,5.018 L199.526,4.815 L201.055,4.627 L202.583,4.439 L204.108,4.265 L205.634,4.092 L207.157,3.931 L208.68,3.771 L210.199,3.626 L211.718,3.481 L213.233,3.351 L214.748,3.221 L216.259,3.105 L217.77,2.988 L219.276,2.888 L220.782,2.787 L222.283,2.701 L223.784,2.616 L225.279,2.545 L226.775,2.473 L228.264,2.418 L229.753,2.362 L231.236,2.323 L232.719,2.283 L234.195,2.258 L235.671,2.233 L237.14,2.223 L238.609,2.214 L240.069,2.221 L241.531,2.228 L242.984,2.25 L244.437,2.272 L245.882,2.31 L247.326,2.349 L248.761,2.403 L250.197,2.458 L251.624,2.528 L253.05,2.597 L254.467,2.684 L255.883,2.77 L257.289,2.874 L258.695,2.977 L260.092,3.096 L261.488,3.215 L262.873,3.351 L264.257,3.487 L265.63,3.64 L267.003,3.794 L268.366,3.963 L269.727,4.132 L271.077,4.318 L272.426,4.505 L273.762,4.709 L275.098,4.913 L276.423,5.134 L277.746,5.354 L279.056,5.592 L280.366,5.83 L281.662,6.086 L282.958,6.342 L284.24,6.615 L285.522,6.887 L286.789,7.177 L288.056,7.468 L289.307,7.777 L290.559,8.086 L291.796,8.412 L293.033,8.737 L294.253,9.081 L295.473,9.425 L296.676,9.787 L297.88,10.15 L299.068,10.53 L300.256,10.909 L301.425,11.307 L302.595,11.706 L303.746,12.123 L304.898,12.54 L306.034,12.975 L307.168,13.41 L308.284,13.863 L309.399,14.317 L310.495,14.79 L311.592,15.263 L312.671,15.754 L313.748,16.244 L314.806,16.754 L315.863,17.264 L316.9,17.793 L317.938,18.323 L318.957,18.871 L319.974,19.418 L320.97,19.985 L321.966,20.552 L322.941,21.139 L323.916,21.726 L324.871,22.332 L325.824,22.937 L326.755,23.562 L327.686,24.187 L328.594,24.832 L329.503,25.478 L330.391,26.143 L331.277,26.806 L332.14,27.491 L333.002,28.174 L333.84,28.879 L334.68,29.584 L335.496,30.309 L336.312,31.032 L337.103,31.776 L337.893,32.52 L338.658,33.285 L339.424,34.051 L340.167,34.836 L340.909,35.619 L341.624,36.425 L342.339,37.23 L343.028,38.056 L343.718,38.883 L344.383,39.731 L345.047,40.576 L345.683,41.444 L346.32,42.311 L346.929,43.2 L347.539,44.09 L348.123,45.001 L348.706,45.909 L349.261,46.84 L349.816,47.771 L350.342,48.724 L350.869,49.679 L351.368,50.654 L351.868,51.627 L352.337,52.623 L352.807,53.619 L353.246,54.638 L353.686,55.658 L354.098,56.699 L354.509,57.738 L354.89,58.801 L355.27,59.863 L355.62,60.949 L355.969,62.037 L356.29,63.145 L356.61,64.252 L356.898,65.383 L357.186,66.514 L357.442,67.668 L357.697,68.824 L357.923,70.002 L358.148,71.178 L358.339,72.378 L358.531,73.579 L358.688,74.803 L358.846,76.029 L358.973,77.278 L359.099,78.524 L359.19,79.796 L359.282,81.067 L359.338,82.363 L359.394,83.661 L359.417,84.981 L359.441,86.3 L359.428,87.643 L359.416,88.987 L359.366,90.356 L359.317,91.726 L359.233,93.119 L359.15,94.511 L359.029,95.928 L358.908,97.346 L358.749,98.789 L358.59,100.236 L358.405,101.694 L358.201,103.167 L357.977,104.654 L357.735,106.152 L357.473,107.663 L357.193,109.183 L356.808,111.1 L356.384,112.993 L355.919,114.868 L355.416,116.728 L354.875,118.567 L354.294,120.39 L353.677,122.195 L353.021,123.982 L352.328,125.751 L351.6,127.504 L350.834,129.238 L350.031,130.954 L349.195,132.654 L348.323,134.334 L347.415,135.998 L346.475,137.645 L345.499,139.272 L344.489,140.883 L343.447,142.477 L342.372,144.052 L341.263,145.609 L340.123,147.15 L338.952,148.672 L337.747,150.177 L336.514,151.665 L335.249,153.134 L333.953,154.585 L332.628,156.019 L331.273,157.434 L329.888,158.832 L328.474,160.216 L327.756,160.894 L327.036,161.575 L326.301,162.247 L325.566,162.92 L324.818,163.584 L324.07,164.247 L323.308,164.901 L322.547,165.556 L321.771,166.201 L320.995,166.846 L320.207,167.483 L319.419,168.12 L318.618,168.747 L317.817,169.375 L317.003,169.993 L316.187,170.612 L315.361,171.222 L314.535,171.831 L313.696,172.432 L312.857,173.032 L312.005,173.623 L311.153,174.215 L310.29,174.798 L309.427,175.381 L308.552,175.954 L307.677,176.527 L306.79,177.092 L305.902,177.656 L305.004,178.212 L304.107,178.767 L303.198,179.314 L302.288,179.86 L301.368,180.397 L300.447,180.934 L299.516,181.463 L298.585,181.991 L297.643,182.51 L296.702,183.029 L295.749,183.538 L294.797,184.048 L293.834,184.55 L292.872,185.051 L291.9,185.542 L290.928,186.034 L289.945,186.516 L288.962,186.998 L287.971,187.472 L286.979,187.946 L285.978,188.41 L284.977,188.874 L283.966,189.329 L282.955,189.784 L281.936,190.23 L280.917,190.677 L279.889,191.113 L278.861,191.55 L277.824,191.977 L276.786,192.405 L275.741,192.823 L274.696,193.242 L273.643,193.651 L272.589,194.06 L271.528,194.46 L270.466,194.859 L269.397,195.251 L268.328,195.642 L267.251,196.023 L266.174,196.404 L265.09,196.776 L264.008,197.147 L262.915,197.506 L261.816,197.866 L260.716,198.227 L259.627,198.584 L258.524,198.922 L257.41,199.264 L256.296,199.605 L255.193,199.943 L254.077,200.263 L252.95,200.585 L251.824,200.907 L250.706,201.227 L249.578,201.529 L248.44,201.834 L247.302,202.138 L246.174,202.44 L245.036,202.723 L243.886,203.008 L242.736,203.294 L241.597,203.577 L240.448,203.84 L239.287,204.106 L238.127,204.373 L236.977,204.636 L235.817,204.883 L234.648,205.131 L233.479,205.38 L232.32,205.626 L231.152,205.853 L229.974,206.082 L228.796,206.311 L227.628,206.539 L226.452,206.746 L225.266,206.956 L224.08,207.166 L222.903,207.374 L221.719,207.564 L220.527,207.756 L219.334,207.948 L218.151,208.139 L216.962,208.31 L215.762,208.482 L214.563,208.655 L213.373,208.826 L212.179,208.978 L210.974,209.131 L209.769,209.284 L208.573,209.436 L207.372,209.571 L206.163,209.707 L204.954,209.842 L203.754,209.977 L202.551,210.092 L201.337,210.208 L200.124,210.324 L198.92,210.439 L197.714,210.534 L196.497,210.631 L195.28,210.727 L194.073,210.823 L192.863,210.901 L191.644,210.98 L190.425,211.059 L189.216,211.137 L188.006,211.195 L186.786,211.254 L185.566,211.313 L184.355,211.372 L183.144,211.411 L181.923,211.45 L180.702,211.49 L179.49,211.529 L178.278,211.55 L177.057,211.572 L175.836,211.593 L174.625,211.615 L173.415,211.617 L172.195,211.619 L170.975,211.621 L169.765,211.622 L168.557,211.605 L167.339,211.587 L166.121,211.569 L164.912,211.552 L163.705,211.516 L162.489,211.48 L161.273,211.445 L160.067,211.41 L158.865,211.355 L157.652,211.299 L156.44,211.244 L155.238,211.189 L154.04,211.114 L152.831,211.039 L151.623,210.964 L150.424,210.889 L149.23,210.797 L148.027,210.704 L146.823,210.61 L145.63,210.518 L144.443,210.406 L143.245,210.293 L142.047,210.18 L140.86,210.068 L139.679,209.936 L138.488,209.803 L137.298,209.671 L136.116,209.539 L134.942,209.389 L133.758,209.238 L132.574,209.087 L131.4,208.938 L130.235,208.769 L129.059,208.598 L127.884,208.427 L126.719,208.258 L125.563,208.069 L124.397,207.878 L123.23,207.687 L122.071,207.498 L120.919,207.295 L119.765,207.092 L118.616,206.878 L117.467,206.665 L116.323,206.442 L115.179,206.219 L114.041,205.986 L112.902,205.754 L111.77,205.512 L110.637,205.27 L109.511,205.018 L108.384,204.766 L107.263,204.505 L106.142,204.244 L105.028,203.973 L103.914,203.702 L102.807,203.421 L101.699,203.14 L100.598,202.85 L99.496,202.56 L98.403,202.26 L97.309,201.96 L96.222,201.65 L95.135,201.34 L94.055,201.021 L92.975,200.702 L91.903,200.373 L90.831,200.044 L89.767,199.705 L88.703,199.366 L87.646,199.018 L86.589,198.67 L85.541,198.312 L84.493,197.954 L83.454,197.586 L82.413,197.218 L81.381,196.841 L80.35,196.464 L79.327,196.078 L78.305,195.691 L77.291,195.294 L76.277,194.897 L75.272,194.49 L74.267,194.084 L73.273,193.668 L72.277,193.252 L71.292,192.826 L70.307,192.4 L69.33,191.965 L68.354,191.53 L67.388,191.085 L66.422,190.64 L65.467,190.185 L64.511,189.729 L63.565,189.265 L62.619,188.801 L61.684,188.327 L60.75,187.853 L59.826,187.368 L58.902,186.884 L57.987,186.391 L57.074,185.898 L56.172,185.394 L55.27,184.891 L54.38,184.378 L53.489,183.865 L52.609,183.342 L51.73,182.82 L50.862,182.288 L49.995,181.756 L49.14,181.214 L48.285,180.671 L47.44,180.12 L46.597,179.568 L45.766,179.007 L44.935,178.446 L44.117,177.875 L43.298,177.303 L42.492,176.723 L41.688,176.144 L40.1,174.962 L38.541,173.761 L37.007,172.542 L35.502,171.304 L34.024,170.045 L32.572,168.768 L31.151,167.471 L29.757,166.154 L28.391,164.818 L27.056,163.464 L25.751,162.089 L24.474,160.695 L23.229,159.283 L22.016,157.849 L20.831,156.398 L19.68,154.927 L18.561,153.435 L17.472,151.925 L16.418,150.396 L15.397,148.846 L14.408,147.278 L13.454,145.691 L12.535,144.082 L11.648,142.455 L10.798,140.809 L9.983,139.14 L9.484,138.057 L8.985,136.975 L8.526,135.898 L8.066,134.822 L7.644,133.753 L7.222,132.682 L6.835,131.617 L6.447,130.554 L6.098,129.498 L5.748,128.442 L5.436,127.394 L5.123,126.343 L4.843,125.299 L4.564,124.257 L4.321,123.222 L4.078,122.187 L3.871,121.159 L3.663,120.129 L3.487,119.106 L3.312,118.085 L3.172,117.071 L3.031,116.057 L2.926,115.051 L2.82,114.042 L2.745,113.04 L2.67,112.04 L2.629,111.048 L2.588,110.055 L2.58,109.07 L2.572,108.083 L2.594,107.103 L2.616,106.131 L2.725,104.182 L2.899,102.253 L3.13,100.337 L3.424,98.438 L3.78,96.552 L4.192,94.68 L4.664,92.824 L5.196,90.982 L5.783,89.153 L6.427,87.341 L7.13,85.543 L7.885,83.759 L8.695,81.992 L9.564,80.234 L10.021,79.37 L10.479,78.501 L10.964,77.64 L11.449,76.78 L11.961,75.927 L12.474,75.073 L13.011,74.227 L13.547,73.381 L14.109,72.544 L14.671,71.707 L15.259,70.878 L15.848,70.048 L16.46,69.225 L17.071,68.404 L17.707,67.591 L18.343,66.778 L19.004,65.974 L19.665,65.168 L20.349,64.37 L21.032,63.574 L21.739,62.786 L22.446,61.998 L23.176,61.218 L23.907,60.438 L24.66,59.666 L25.411,58.895 L26.185,58.133 L26.96,57.37 L27.756,56.617 L28.554,55.863 L29.372,55.117 L30.189,54.372 L31.027,53.637 L31.866,52.901 L32.726,52.175 L33.587,51.447 L34.466,50.729 L35.345,50.011 L36.245,49.302 L37.144,48.594 L38.064,47.895 L38.984,47.196 L39.923,46.505 L40.86,45.815 L41.818,45.135 L42.775,44.454 L43.751,43.784 L44.728,43.113 L45.722,42.451 L46.715,41.79 L47.726,41.139 L48.738,40.487 L49.767,39.846 L50.797,39.204 L51.843,38.572 L52.888,37.94 L53.95,37.318 L55.013,36.696 L56.092,36.085 L57.172,35.473 L58.266,34.871 L59.36,34.269 L60.47,33.678 L61.579,33.087 L62.705,32.506 L63.831,31.925 L64.971,31.354 L66.11,30.783 L67.264,30.223 L68.418,29.663 L69.586,29.114 L70.755,28.564 L71.936,28.024 L73.117,27.484 L74.312,26.956 L75.506,26.428 L76.714,25.91 L77.923,25.393 L79.142,24.885 L80.362,24.378 L81.594,23.882 L82.826,23.386 L84.069,22.902 L85.314,22.417 L86.569,21.942 L87.824,21.468 L89.089,21.006 L90.355,20.543 L91.632,20.092 L92.909,19.641 L94.196,19.2 L95.482,18.76 L96.779,18.331 L98.075,17.902 L99.381,17.486 L100.688,17.069 L102.003,16.662 L103.317,16.256 L104.641,15.862 L105.964,15.468 L107.296,15.086 L108.629,14.704 L109.969,14.333 L111.308,13.962 L112.655,13.603 L114.003,13.244 L115.357,12.897 L116.712,12.551 L118.073,12.215 L119.434,11.879 L120.802,11.556 L122.169,11.233 L123.543,10.923 L124.917,10.612 L126.297,10.313 L127.675,10.014 L129.06,9.727 L130.444,9.441 L131.833,9.167 L133.224,8.893 L134.618,8.631 L136.011,8.369 L137.409,8.12 L138.807,7.871 L140.209,7.635 L141.611,7.399 L143.017,7.174 L144.422,6.95 L145.83,6.739 L147.238,6.528 L148.649,6.33 L150.06,6.132 L151.473,5.946 L152.886,5.76 L154.301,5.588 L155.716,5.415 L157.132,5.256 L158.549,5.097 L159.967,4.95 L161.384,4.803 L162.802,4.669 L164.22,4.536 L165.639,4.416 L167.058,4.296 L168.477,4.189 L169.895,4.081 L171.313,3.988 L172.732,3.894 L174.149,3.815 L175.567,3.735 L176.983,3.668 L178.4,3.601 L179.814,3.548 L181.229,3.495 L182.641,3.456 L184.054,3.417 L185.465,3.391 L186.876,3.365 L188.284,3.354 L189.692,3.342 L191.096,3.344 L192.501,3.347 L193.903,3.363 L195.305,3.378 L196.702,3.408 L198.1,3.439 L199.493,3.483 L200.886,3.528 L202.276,3.586 L203.665,3.644 L205.048,3.716 L206.432,3.789 L207.811,3.876 L209.19,3.964 L210.563,4.065 L211.936,4.165 L213.303,4.281 L214.67,4.397 L216.029,4.527 L217.39,4.658 L218.745,4.803 L220.098,4.947 L221.444,5.106 L222.79,5.266 L224.129,5.44 L225.468,5.615 L226.8,5.804 L228.131,5.992 L229.453,6.196 L230.775,6.4 L232.088,6.619 L233.402,6.838 L234.708,7.071 L236.013,7.304 L237.308,7.553 L238.603,7.802 L239.887,8.066 L241.173,8.33 L242.449,8.609 L243.724,8.887 L244.988,9.182 L246.253,9.476 L247.506,9.786 L248.759,10.096 L250.002,10.421 L251.245,10.746 L252.475,11.086 L253.704,11.427 L254.922,11.783 L256.14,12.14 L257.347,12.512 L258.553,12.883 L259.745,13.27 L260.938,13.657 L262.117,14.06 L263.296,14.464 L264.463,14.883 L265.629,15.301 L266.781,15.735 L267.932,16.169 L269.069,16.62 L270.206,17.071 L271.33,17.537 L272.453,18.003 L273.56,18.485 L274.668,18.967 L275.759,19.466 L276.851,19.965 L277.929,20.479 L279.005,20.992 L280.065,21.523 L281.124,22.053 L282.166,22.6 L283.21,23.147 L284.238,23.71 L285.264,24.272 L286.273,24.851 L287.281,25.43 L288.272,26.026 L289.263,26.622 L290.237,27.235 L291.211,27.846 L292.165,28.474 L293.119,29.103 L294.054,29.748 L294.99,30.394 L295.908,31.056 L296.824,31.717 L297.721,32.395 L298.618,33.073 L299.494,33.769 L300.371,34.465 L301.23,35.177 L302.087,35.888 L302.923,36.616 L303.759,37.344 L304.573,38.09 L305.389,38.837 L306.184,39.6 L306.979,40.361 L307.751,41.141 L308.523,41.92 L309.272,42.716 L310.023,43.514 L310.753,44.329 L311.481,45.141 L312.187,45.972 L312.892,46.802 L313.573,47.651 L314.256,48.5 L314.917,49.367 L315.576,50.231 L316.212,51.114 L316.847,51.997 L317.457,52.898 L318.069,53.8 L318.658,54.719 L319.246,55.636 L319.808,56.572 L320.37,57.507 L320.906,58.462 L321.444,59.417 L321.957,60.39 L322.47,61.361 L322.955,62.351 L323.441,63.34 L323.9,64.349 L324.36,65.359 L324.795,66.386 L325.229,67.412 L325.636,68.456 L326.042,69.501 L326.421,70.565 L326.8,71.63 L327.154,72.713 L327.507,73.794 L327.831,74.894 L328.155,75.995 L328.45,77.114 L328.746,78.236 L329.014,79.376 L329.282,80.513 L329.521,81.671 L329.759,82.828 L329.967,84.005 L330.175,85.184 L330.356,86.381 L330.536,87.576 L330.685,88.791 L330.834,90.007 L330.952,91.242 L331.07,92.479 L331.159,93.735 L331.247,94.989 L331.304,96.263 L331.36,97.537 L331.384,98.832 L331.408,100.128 L331.401,101.443 L331.395,102.757 L331.355,104.091 L331.315,105.425 L331.242,106.78 L331.168,108.139 L331.054,109.738 L330.922,111.323 L330.771,112.892 L330.603,114.447 L330.418,115.984 L330.215,117.502 L329.986,119.007 L329.758,120.506 L329.495,121.973 L329.232,123.44 L328.934,124.875 L328.636,126.312 L328.307,127.72 L327.978,129.127 L327.615,130.502 L327.252,131.877 L326.856,133.221 L326.46,134.567 L326.034,135.885 L325.608,137.201 L325.15,138.486 L324.693,139.771 L324.203,141.026 L323.713,142.283 L323.194,143.513 L322.677,144.741 L322.128,145.938 L321.58,147.136 L321.002,148.304 L320.423,149.475 L319.816,150.619 L319.211,151.76 L318.576,152.873 L317.942,153.986 L317.279,155.07 L316.614,156.156 L315.924,157.216 L315.235,158.274 L314.518,159.304 L313.802,160.334 L313.057,161.335 L312.312,162.339 L311.542,163.317 L310.773,164.294 L309.978,165.243 L309.183,166.192 L308.362,167.114 L307.539,168.037 L306.693,168.936 L305.849,169.833 L304.979,170.704 L304.11,171.574 L303.216,172.418 L302.32,173.263 L301.402,174.084 L300.486,174.904 L299.546,175.698 L298.606,176.492 L297.642,177.259 L296.677,178.028 L295.692,178.774 L294.707,179.518 L293.701,180.237 L292.694,180.956 L291.665,181.649 L290.635,182.344 L289.586,183.016 L288.538,183.687 L287.469,184.333 L286.399,184.979 L285.31,185.6 L284.218,186.222 L283.109,186.821 L282.001,187.42 L280.873,187.994 L279.745,188.569 L278.598,189.119 L277.45,189.67 L276.284,190.199 L275.12,190.727 L273.938,191.232 L272.755,191.736 L271.555,192.217 L270.354,192.698 L269.136,193.158 L267.921,193.617 L266.688,194.053 L265.455,194.489 L264.206,194.902 L262.956,195.315 L261.691,195.708 L260.428,196.1 L259.149,196.469 L257.87,196.838 L256.577,197.185 L255.281,197.531 L253.974,197.858 L252.667,198.184 L251.346,198.488 L250.026,198.792 L248.692,199.074 L247.356,199.356 L246.009,199.618 L244.664,199.879 L243.306,200.12 L241.948,200.36 L240.578,200.578 L239.206,200.797 L237.825,200.996 L236.445,201.196 L235.054,201.374 L233.662,201.552 L232.261,201.709 L230.858,201.866 L229.447,202.004 L228.036,202.143 L226.616,202.26 L225.196,202.378 L223.767,202.475 L222.338,202.573 L220.9,202.652 L219.464,202.731 L218.02,202.789 L216.575,202.848 L215.124,202.887 L213.671,202.927 L212.212,202.948 L210.754,202.969 L209.29,202.971 L207.826,202.973 L206.356,202.955 L204.885,202.938 L203.409,202.903 L201.934,202.867 L200.454,202.811 L198.975,202.756 L197.491,202.683 L196.006,202.609 L194.517,202.518 L193.03,202.428 L191.539,202.319 L190.048,202.21 L188.555,202.083 L187.06,201.957 L185.564,201.814 L184.068,201.67 L182.57,201.51 L181.073,201.349 L179.574,201.171 L178.074,200.993 L176.574,200.799 L175.074,200.605 L173.575,200.394 L172.075,200.183 L170.575,199.956 L169.075,199.728 L167.575,199.485 L166.076,199.242 L164.578,198.983 L163.08,198.723 L161.584,198.448 L160.088,198.172 L158.593,197.882 L157.098,197.593 L155.607,197.288 L154.115,196.984 L152.627,196.663 L151.137,196.343 L149.652,196.009 L148.166,195.674 L146.685,195.325 L145.204,194.976 L143.728,194.611 L142.251,194.246 L140.779,193.868 L139.307,193.49 L137.841,193.098 L136.376,192.705 L134.916,192.298 L133.455,191.891 L132.001,191.471 L130.548,191.051 L129.101,190.617 L127.655,190.183 L126.216,189.735 L124.777,189.287 L123.345,188.826 L121.913,188.366 L120.491,187.893 L119.069,187.419 L117.655,186.932 L116.241,186.445 L114.836,185.946 L113.431,185.448 L112.037,184.937 L110.642,184.426 L109.258,183.902 L107.874,183.379 L106.499,182.844 L105.126,182.309 L103.764,181.762 L102.402,181.215 L101.052,180.656 L99.702,180.097 L98.363,179.527 L97.025,178.957 L95.7,178.376 L94.375,177.795 L93.063,177.203 L91.751,176.61 L90.452,176.007 L89.154,175.404 L87.87,174.791 L86.587,174.177 L85.318,173.553 L84.049,172.928 L82.794,172.294 L81.54,171.66 L80.302,171.016 L79.064,170.372 L77.843,169.718 L76.621,169.063 L75.414,168.4 L74.209,167.737 L73.021,167.064 L71.833,166.391 L70.663,165.709 L69.493,165.027 L68.339,164.336 L67.186,163.645 L66.053,162.946 L64.919,162.246 L63.806,161.538 L62.691,160.829 L61.595,160.113 L60.499,159.397 L59.425,158.672 L58.35,157.948 L57.297,157.215 L56.242,156.482 L55.208,155.742 L54.174,155.002 L53.162,154.255 L52.151,153.507 L51.162,152.752 L50.173,151.997 L49.204,151.235 L48.237,150.473 L47.293,149.705 L46.349,148.936 L45.429,148.161 L44.509,147.385 L43.61,146.603 L42.714,145.822 L41.841,145.034 L40.97,144.247 L40.123,143.453 L39.276,142.659 L38.453,141.859 L37.631,141.06 L36.835,140.255 L36.039,139.451 L35.27,138.641 L34.501,137.83 L33.756,137.015 L33.013,136.2 L32.297,135.381 L31.582,134.562 L30.895,133.738 L30.207,132.913 L29.546,132.083 L28.886,131.256 L28.255,130.424 L27.624,129.592 L27.024,128.756 L26.422,127.919 L25.848,127.078 L25.275,126.239 L24.733,125.396 L24.191,124.554 L23.68,123.708 L23.168,122.861 L22.685,122.01 L22.208,121.17 L21.304,119.461 L20.47,117.752 L19.695,116.039 L18.988,114.325 L18.348,112.604 L17.77,110.881 L17.263,109.157 L16.824,107.429 L16.45,105.698 L16.149,103.968 L15.919,102.233 L15.755,100.496 L15.666,98.762 L15.652,97.022 L15.706,95.282 L15.837,93.543 L16.046,91.8 L16.326,90.056 L16.686,88.314 L17.127,86.567 L17.643,84.82 L18.241,83.074 L18.924,81.325 L19.69,79.565 L20.109,78.701 L20.532,77.828 L21,76.954 L21.468,76.077 L21.978,75.201 L22.486,74.327 L23.04,73.454 L23.593,72.58 L24.192,71.707 L24.797,70.826 L25.425,69.958 L26.079,69.085 L26.758,68.212 L27.459,67.34 L28.182,66.469 L28.93,65.597 L29.701,64.727 L30.494,63.858 L31.313,62.988 L32.155,62.12 L33.02,61.254 L33.911,60.387 L34.825,59.522 L35.763,58.658 L36.727,57.795 L37.714,56.933 L38.726,56.073 L39.764,55.214 L40.826,54.356 L41.913,53.5 L43.027,52.646 L44.165,51.792 L45.328,50.941 L46.519,50.092 L47.733,49.243 L48.974,48.398 L50.242,47.553 L51.535,46.711 L52.854,45.871 L54.201,45.033 L55.573,44.197 L56.971,43.364 L58.398,42.532 L59.85,41.703 L61.329,40.877 L62.837,40.052 L64.371,39.23 L65.932,38.411 L67.521,37.595 L69.137,36.781 L70.781,35.97 L72.459,35.159 C73.275,34.765 73.617,33.784 73.223,32.969 C72.829,32.153 71.849,31.811 71.033,32.205 Z" id="Fill-51"></path>
        </g>
    </g>
</svg>
