<?xml version="1.0" encoding="UTF-8"?>
<svg width="337px" height="308px" viewBox="0 0 337 308" version="1.1" xmlns="http://www.w3.org/2000/svg" xmlns:xlink="http://www.w3.org/1999/xlink">
    <title>107</title>
    <g id="Page-1" stroke="none" stroke-width="1" fill="none" fill-rule="evenodd">
        <g id="107" transform="translate(0.329750, 0.200000)" fill="currentColor">
            <path d="M90.93,8.182 L89.842,8.385 L88.744,8.59 L87.662,8.804 L86.58,9.018 L85.514,9.241 L84.449,9.464 L83.398,9.696 L82.346,9.928 L81.309,10.17 L80.273,10.411 L79.252,10.661 L78.232,10.912 L77.226,11.17 L76.219,11.429 L75.228,11.697 L74.236,11.965 L73.26,12.242 L72.282,12.519 L70.361,13.088 L68.467,13.676 L66.604,14.281 L64.768,14.902 L62.962,15.541 L61.186,16.197 L59.437,16.868 L57.717,17.556 L56.027,18.261 L54.364,18.981 L52.73,19.718 L51.125,20.471 L49.547,21.239 L47.997,22.023 L46.476,22.823 L44.982,23.637 L43.515,24.467 L42.078,25.312 L40.666,26.172 L39.282,27.047 L37.927,27.937 L36.597,28.84 L35.294,29.759 L34.02,30.692 L32.771,31.638 L31.549,32.599 L30.355,33.574 L29.186,34.561 L28.043,35.564 L26.929,36.579 L25.839,37.606 L24.775,38.648 L23.739,39.702 L22.728,40.769 L21.742,41.849 L20.783,42.941 L19.849,44.045 L18.941,45.162 L18.059,46.29 L17.201,47.429 L16.368,48.581 L15.563,49.744 L14.78,50.918 L14.022,52.104 L13.291,53.3 L12.583,54.506 L11.899,55.724 L11.242,56.951 L10.607,58.188 L9.997,59.437 L9.412,60.694 L8.849,61.961 L8.311,63.238 L7.798,64.524 L7.307,65.819 L6.84,67.124 L6.397,68.437 L5.977,69.758 L5.579,71.089 L5.205,72.427 L4.853,73.772 L4.524,75.127 L4.219,76.489 L3.934,77.858 L3.672,79.236 L3.433,80.62 L3.215,82.01 L3.019,83.41 L2.844,84.821 L2.702,86.227 L2.559,87.643 L2.46,89.071 L2.362,90.499 L2.306,91.94 L2.251,93.379 L2.234,94.828 L2.218,96.279 L2.243,97.742 L2.269,99.204 L2.335,100.677 L2.403,102.148 L2.506,103.628 L2.611,105.109 L2.755,106.601 L2.9,108.092 L3.084,109.592 L3.268,111.09 L3.488,112.595 L3.711,114.102 L3.972,115.616 L4.233,117.13 L4.532,118.652 L4.831,120.171 L5.164,121.696 L5.497,123.223 L5.868,124.755 L6.238,126.287 L6.644,127.825 L7.051,129.361 L7.489,130.901 L7.929,132.442 L8.403,133.988 L8.877,135.533 L9.386,137.083 L9.891,138.631 L10.428,140.182 L10.965,141.735 L11.536,143.29 L12.107,144.844 L12.711,146.401 L13.314,147.956 L13.948,149.513 L14.581,151.07 L15.247,152.629 L15.912,154.187 L16.609,155.745 L17.306,157.302 L18.03,158.859 L18.755,160.417 L19.511,161.973 L20.266,163.53 L21.052,165.085 L21.836,166.639 L22.648,168.191 L23.46,169.744 L24.301,171.294 L25.141,172.844 L26.01,174.39 L26.879,175.936 L27.773,177.478 L28.667,179.02 L29.589,180.559 L30.51,182.097 L31.459,183.629 L32.408,185.161 L33.38,186.687 L34.353,188.214 L35.352,189.734 L36.351,191.255 L37.375,192.768 L38.398,194.281 L39.443,195.787 L40.49,197.293 L41.56,198.792 L42.63,200.29 L43.724,201.78 L44.817,203.269 L45.932,204.748 L47.047,206.229 L48.185,207.699 L49.324,209.17 L50.483,210.63 L51.643,212.089 L52.822,213.538 L54.001,214.987 L55.202,216.425 L56.402,217.863 L57.623,219.289 L58.843,220.714 L60.081,222.127 L61.32,223.541 L62.579,224.941 L63.837,226.341 L65.114,227.727 L66.391,229.112 L67.684,230.484 L68.978,231.856 L70.29,233.214 L71.601,234.571 L72.93,235.912 L74.258,237.253 L75.602,238.578 L76.946,239.905 L78.306,241.214 L79.666,242.523 L81.041,243.816 L82.416,245.107 L83.804,246.382 L85.193,247.658 L86.597,248.915 L88.001,250.171 L89.419,251.409 L90.836,252.645 L92.266,253.864 L93.696,255.083 L95.139,256.281 L96.583,257.479 L98.039,258.656 L99.494,259.833 L100.96,260.991 L102.426,262.148 L103.904,263.284 L105.382,264.419 L106.872,265.531 L108.36,266.643 L109.858,267.733 L111.357,268.824 L112.866,269.89 L114.375,270.957 L115.893,271.998 L117.411,273.039 L118.936,274.058 L120.462,275.077 L121.997,276.07 L123.532,277.063 L125.074,278.029 L126.616,278.995 L128.165,279.936 L129.714,280.878 L131.271,281.792 L132.827,282.706 L134.39,283.591 L135.952,284.476 L137.519,285.334 L139.088,286.193 L140.661,287.022 L142.235,287.851 L143.814,288.65 L145.392,289.448 L146.973,290.219 L148.556,290.989 L150.143,291.729 L151.73,292.468 L153.319,293.175 L154.908,293.882 L156.5,294.559 L158.093,295.236 L159.688,295.88 L161.283,296.524 L162.88,297.134 L164.476,297.743 L166.073,298.32 L167.671,298.898 L169.27,299.441 L170.87,299.984 L172.469,300.491 L174.067,300.998 L175.665,301.471 L177.265,301.945 L178.863,302.382 L180.462,302.819 L182.059,303.218 L183.656,303.617 L185.25,303.981 L186.846,304.345 L188.439,304.67 L190.033,304.994 L191.624,305.28 L193.213,305.564 L194.8,305.813 L196.388,306.061 L197.971,306.269 L199.556,306.476 L201.135,306.643 L202.713,306.809 L204.287,306.936 L205.862,307.064 L207.432,307.15 L209.002,307.235 L210.565,307.277 L212.127,307.321 L213.683,307.321 L215.241,307.321 L216.792,307.277 L218.342,307.234 L219.885,307.145 L221.427,307.057 L222.96,306.926 L224.496,306.796 L226.022,306.619 L227.549,306.442 L229.066,306.218 L230.577,305.995 L232.092,305.738 L233.597,305.457 L235.097,305.152 L236.591,304.825 L238.081,304.474 L239.564,304.097 L241.042,303.699 L242.515,303.275 L243.98,302.826 L245.44,302.354 L246.895,301.856 L248.342,301.334 L249.783,300.788 L251.218,300.215 L252.645,299.617 L254.065,298.996 L255.479,298.347 L256.885,297.673 L258.283,296.974 L259.675,296.248 L261.058,295.496 L262.434,294.72 L263.803,293.916 L265.162,293.085 L266.514,292.229 L267.858,291.346 L269.192,290.435 L270.519,289.498 L271.837,288.533 L273.145,287.541 L274.444,286.523 L275.735,285.476 L277.015,284.401 L278.287,283.3 L279.549,282.17 L280.801,281.011 L282.044,279.827 L283.278,278.612 L284.5,277.369 L285.713,276.1 L286.916,274.8 L288.107,273.471 L289.289,272.114 L290.46,270.727 L291.619,269.311 L292.769,267.867 L293.907,266.392 L295.033,264.887 L296.148,263.354 L297.252,261.789 L298.344,260.195 L299.425,258.572 L300.495,256.917 L301.552,255.232 L302.595,253.52 L303.114,252.644 L303.63,251.771 L304.14,250.881 L304.65,249.993 L305.154,249.09 L305.659,248.186 L306.157,247.266 L306.655,246.346 L307.146,245.41 L307.637,244.475 L308.122,243.524 L308.607,242.574 L309.086,241.607 L309.565,240.64 L310.037,239.656 L310.509,238.673 L310.975,237.676 L311.441,236.677 L311.9,235.663 L312.359,234.648 L312.812,233.616 L313.264,232.586 L313.71,231.54 L314.156,230.493 L314.595,229.43 L315.033,228.367 L315.465,227.287 L315.897,226.207 L316.322,225.112 L316.748,224.017 L317.166,222.904 L317.584,221.792 L317.995,220.663 L318.406,219.534 L318.809,218.389 L319.214,217.244 L319.611,216.082 L320.007,214.92 L320.397,213.741 L320.786,212.562 L321.168,211.367 L321.55,210.172 L321.925,208.959 L322.3,207.747 L322.667,206.516 L323.034,205.287 L323.395,204.041 L323.755,202.795 L324.107,201.532 L324.46,200.268 L324.804,198.987 L325.148,197.706 L325.486,196.409 L325.823,195.111 L326.153,193.796 L326.482,192.48 L326.803,191.147 L327.124,189.814 L327.438,188.465 L327.752,187.115 L328.058,185.747 L328.363,184.379 L328.661,182.993 L328.958,181.608 L329.248,180.205 L329.538,178.803 L329.819,177.382 L330.101,175.961 L330.374,174.522 L330.647,173.083 L330.912,171.627 L331.178,170.171 L331.435,168.696 L331.691,167.222 L331.939,165.729 L332.187,164.236 L332.427,162.726 L332.667,161.215 L332.898,159.686 L333.129,158.157 L333.351,156.609 L333.573,155.062 L333.787,153.497 L334.002,151.932 L334.207,150.348 L334.412,148.764 L334.608,147.161 L334.804,145.558 L334.992,143.938 L335.18,142.317 L335.359,140.677 L335.538,139.037 L335.707,137.378 L335.877,135.716 L336.029,134.013 L336.182,132.306 L336.297,130.622 L336.412,128.937 L336.49,127.276 L336.568,125.616 L336.613,123.976 L336.657,122.336 L336.665,120.718 L336.673,119.101 L336.645,117.506 L336.616,115.912 L336.556,114.34 L336.495,112.766 L336.399,111.215 L336.304,109.664 L336.173,108.135 L336.043,106.608 L335.881,105.102 L335.719,103.595 L335.523,102.11 L335.327,100.625 L335.098,99.163 L334.868,97.703 L334.609,96.263 L334.349,94.822 L334.057,93.403 L333.764,91.985 L333.44,90.589 L333.116,89.194 L332.763,87.82 L332.41,86.445 L332.025,85.093 L331.64,83.74 L331.225,82.41 L330.809,81.082 L330.366,79.774 L329.922,78.465 L329.448,77.178 L328.974,75.891 L328.47,74.627 L327.967,73.365 L327.437,72.123 L326.907,70.879 L326.347,69.659 L325.788,68.438 L325.2,67.24 L324.613,66.043 L324,64.866 L323.387,63.689 L322.746,62.533 L322.106,61.378 L321.438,60.246 L320.77,59.114 L320.079,58.003 L319.386,56.891 L318.668,55.801 L317.949,54.712 L317.204,53.645 L316.46,52.579 L315.693,51.533 L314.926,50.487 L314.133,49.462 L313.34,48.438 L312.522,47.436 L311.706,46.436 L310.868,45.455 L310.028,44.474 L309.166,43.514 L308.303,42.555 L307.417,41.618 L306.531,40.683 L305.626,39.767 L304.719,38.851 L303.789,37.956 L302.86,37.062 L301.909,36.19 L300.959,35.319 L299.989,34.468 L299.018,33.616 L298.026,32.786 L297.034,31.957 L296.022,31.149 L295.011,30.343 L293.981,29.556 L292.95,28.769 L291.899,28.003 L290.849,27.238 L289.779,26.495 L288.71,25.752 L287.624,25.03 L286.537,24.306 L285.431,23.605 L284.326,22.904 L283.203,22.224 L282.08,21.546 L280.941,20.886 L279.802,20.227 L278.646,19.589 L277.489,18.952 L276.315,18.336 L275.143,17.72 L273.956,17.124 L272.768,16.528 L271.564,15.954 L270.36,15.38 L269.14,14.827 L267.922,14.275 L266.689,13.742 L265.456,13.21 L264.208,12.698 L262.961,12.187 L261.699,11.697 L260.438,11.208 L259.164,10.738 L257.89,10.267 L256.602,9.818 L255.315,9.37 L254.014,8.942 L252.715,8.515 L251.404,8.107 L250.092,7.699 L248.768,7.312 L247.444,6.926 L246.108,6.561 L244.774,6.196 L243.429,5.85 L242.083,5.505 L240.727,5.18 L239.37,4.856 L238.004,4.552 L236.638,4.249 L235.263,3.965 L233.887,3.681 L232.502,3.417 L231.116,3.154 L229.722,2.912 L228.329,2.67 L226.927,2.447 L225.525,2.224 L224.115,2.022 L222.705,1.82 L221.286,1.639 L219.869,1.458 L218.445,1.296 L217.02,1.134 L215.588,0.993 L214.156,0.851 L212.718,0.731 L211.28,0.611 L209.837,0.509 L208.393,0.408 L206.944,0.327 L205.494,0.246 L204.039,0.186 L202.585,0.125 L201.126,0.084 L199.667,0.042 L198.204,0.022 L196.74,0 L195.272,0 L193.805,0 L192.335,0.019 L190.864,0.037 L189.39,0.076 L187.916,0.115 L186.439,0.174 L184.963,0.233 L183.484,0.311 L182.005,0.389 L180.524,0.487 L179.044,0.585 L177.561,0.704 L176.08,0.822 L174.597,0.959 L173.114,1.096 L171.629,1.253 L170.146,1.41 L168.661,1.588 L167.178,1.765 L165.694,1.961 L164.21,2.157 L162.727,2.372 L161.243,2.588 L159.761,2.824 L158.279,3.06 L156.799,3.314 L155.317,3.569 L153.838,3.843 L152.359,4.117 L150.882,4.411 L149.406,4.706 L147.932,5.018 L146.457,5.33 L144.986,5.662 L143.514,5.993 L142.046,6.345 L140.579,6.696 L139.115,7.066 L137.651,7.435 L136.191,7.825 L134.731,8.214 L133.275,8.624 L131.821,9.033 L130.371,9.46 L128.92,9.887 L127.476,10.334 L126.031,10.781 L124.592,11.248 L123.154,11.714 L121.721,12.198 L120.288,12.682 L118.862,13.186 L117.436,13.69 L116.017,14.214 L114.599,14.737 L113.188,15.278 L111.776,15.819 L110.373,16.38 L108.969,16.941 L107.574,17.521 L106.179,18.101 L104.793,18.699 L103.406,19.297 L102.029,19.914 L100.651,20.531 L99.284,21.168 L97.917,21.805 L96.559,22.458 L95.2,23.113 L93.853,23.786 L92.505,24.46 L91.168,25.153 L89.832,25.845 L88.507,26.555 L87.181,27.266 L85.867,27.995 L84.553,28.725 L83.251,29.474 L81.949,30.222 L80.66,30.988 L79.37,31.755 L78.093,32.54 L76.816,33.326 L75.554,34.133 L74.293,34.939 L73.044,35.762 L71.795,36.586 L70.56,37.429 L69.325,38.272 L68.106,39.133 L66.887,39.995 L65.682,40.873 L64.476,41.752 L63.286,42.65 L62.096,43.548 L60.923,44.465 L59.75,45.381 L58.592,46.315 L57.433,47.249 L56.292,48.202 L55.151,49.155 L54.028,50.127 L52.905,51.098 L51.799,52.087 L50.691,53.076 L49.603,54.084 L48.514,55.091 L47.444,56.118 L46.375,57.144 L45.324,58.186 L44.271,59.23 L43.239,60.291 L42.206,61.353 L41.193,62.434 L40.181,63.514 L39.188,64.61 L38.194,65.707 L37.219,66.822 L36.245,67.936 L35.292,69.069 L34.34,70.202 L33.407,71.351 L32.474,72.501 L31.563,73.669 L30.652,74.837 L29.764,76.023 L28.876,77.209 L28.009,78.412 L27.142,79.615 L26.298,80.837 L25.454,82.058 L24.634,83.298 L23.815,84.537 L23.017,85.793 L22.219,87.049 L21.446,88.323 L20.672,89.597 L19.924,90.89 L19.176,92.181 L18.451,93.489 L17.726,94.798 L17.027,96.125 L16.328,97.452 L15.655,98.797 L14.983,100.141 L14.335,101.502 L13.688,102.863 L13.067,104.243 L12.446,105.622 L11.853,107.019 L11.26,108.416 L10.693,109.828 L10.125,111.242 L9.586,112.673 L9.047,114.104 L8.537,115.553 L8.027,117.001 L7.544,118.465 L7.061,119.93 L6.608,121.413 L6.154,122.896 L5.731,124.396 L5.308,125.896 L4.914,127.412 L4.519,128.928 L4.155,130.462 L3.791,131.996 L3.458,133.548 L3.126,135.099 L2.822,136.665 L2.519,138.233 L2.248,139.817 L1.977,141.402 L1.739,143.005 L1.501,144.606 L1.293,146.223 L1.085,147.841 L0.91,149.477 L0.736,151.112 L0.596,152.765 L0.456,154.416 L0.347,156.084 L0.238,157.752 L0.164,159.437 L0.09,161.123 L0.051,162.825 L0.012,164.527 L0.006,166.245 L0,167.963 L0.03,169.698 L0.06,171.433 L0.126,173.185 L0.193,174.937 L0.293,176.703 L0.394,178.471 L0.531,180.255 L0.669,182.04 L0.845,183.841 L1.02,185.642 L1.231,187.458 L1.441,189.275 L1.69,191.108 L1.939,192.942 L2.227,194.792 L2.515,196.642 L2.84,198.506 L3.164,200.372 L3.528,202.254 L3.892,204.136 L4.296,206.035 L4.701,207.933 L5.142,209.847 L5.584,211.761 L6.067,213.691 L6.549,215.619 L6.813,216.599 L7.074,217.569 L7.335,218.538 L7.598,219.515 L7.88,220.499 L8.161,221.476 L8.441,222.454 L8.723,223.438 L9.027,224.431 L9.328,225.417 L9.63,226.403 L9.933,227.395 L10.258,228.396 L10.581,229.39 L10.904,230.384 L11.227,231.378 C11.369,231.817 11.84,232.056 12.278,231.914 C12.716,231.772 12.956,231.301 12.814,230.863 L12.491,229.869 L12.168,228.875 L11.845,227.881 L11.525,226.894 L11.226,225.915 L10.924,224.929 L10.623,223.943 L10.324,222.964 L10.045,221.994 L9.765,221.016 L9.485,220.039 L9.207,219.068 L8.947,218.104 L8.686,217.134 L8.425,216.164 L8.166,215.204 L7.687,213.286 L7.208,211.37 L6.77,209.471 L6.332,207.571 L5.931,205.687 L5.53,203.804 L5.168,201.937 L4.808,200.07 L4.486,198.22 L4.165,196.37 L3.879,194.535 L3.594,192.701 L3.347,190.883 L3.1,189.066 L2.892,187.266 L2.683,185.465 L2.51,183.679 L2.336,181.894 L2.199,180.127 L2.063,178.359 L1.964,176.609 L1.865,174.857 L1.799,173.122 L1.733,171.387 L1.704,169.669 L1.674,167.951 L1.681,166.251 L1.687,164.549 L1.726,162.864 L1.764,161.179 L1.838,159.511 L1.911,157.844 L2.02,156.193 L2.128,154.542 L2.267,152.907 L2.407,151.272 L2.58,149.655 L2.753,148.038 L2.96,146.438 L3.166,144.837 L3.403,143.252 L3.639,141.668 L3.908,140.102 L4.177,138.535 L4.477,136.986 L4.778,135.436 L5.108,133.902 L5.438,132.369 L5.798,130.853 L6.159,129.337 L6.551,127.839 L6.943,126.34 L7.362,124.857 L7.782,123.375 L8.231,121.91 L8.68,120.445 L9.158,118.998 L9.637,117.55 L10.143,116.119 L10.647,114.688 L11.181,113.274 L11.715,111.861 L12.277,110.465 L12.839,109.069 L13.427,107.688 L14.014,106.309 L14.629,104.947 L15.244,103.585 L15.886,102.241 L16.528,100.897 L17.195,99.568 L17.861,98.24 L18.553,96.93 L19.245,95.62 L19.963,94.328 L20.681,93.035 L21.422,91.759 L22.163,90.483 L22.929,89.225 L23.695,87.967 L24.485,86.727 L25.276,85.486 L26.089,84.262 L26.902,83.039 L27.738,81.834 L28.574,80.628 L29.434,79.441 L30.294,78.253 L31.175,77.082 L32.055,75.911 L32.958,74.758 L33.86,73.606 L34.785,72.471 L35.71,71.336 L36.655,70.217 L37.599,69.099 L38.564,67.999 L39.53,66.9 L40.516,65.819 L41.504,64.738 L42.511,63.674 L43.516,62.61 L44.542,61.565 L45.567,60.519 L46.613,59.492 L47.658,58.465 L48.721,57.454 L49.783,56.444 L50.864,55.452 L51.945,54.461 L53.044,53.487 L54.144,52.514 L55.26,51.557 L56.375,50.6 L57.507,49.663 L58.64,48.725 L59.789,47.805 L60.938,46.885 L62.103,45.981 L63.267,45.078 L64.447,44.194 L65.627,43.31 L66.823,42.445 L68.02,41.579 L69.23,40.73 L70.439,39.882 L71.664,39.052 L72.889,38.222 L74.127,37.411 L75.367,36.6 L76.619,35.806 L77.871,35.012 L79.136,34.236 L80.4,33.459 L81.677,32.701 L82.955,31.943 L84.244,31.202 L85.533,30.461 L86.834,29.739 L88.136,29.017 L89.449,28.314 L90.763,27.611 L92.087,26.925 L93.411,26.24 L94.745,25.573 L96.08,24.907 L97.426,24.259 L98.772,23.612 L100.127,22.981 L101.482,22.351 L102.847,21.741 L104.212,21.13 L105.586,20.539 L106.96,19.947 L108.344,19.373 L109.726,18.799 L111.117,18.244 L112.508,17.689 L113.907,17.154 L115.306,16.619 L116.713,16.101 L118.119,15.583 L119.532,15.085 L120.946,14.586 L122.366,14.107 L123.787,13.628 L125.213,13.167 L126.64,12.706 L128.072,12.265 L129.504,11.823 L130.942,11.402 L132.38,10.979 L133.823,10.575 L135.266,10.171 L136.713,9.787 L138.16,9.402 L139.612,9.037 L141.064,8.673 L142.52,8.325 L143.975,7.979 L145.433,7.651 L146.892,7.324 L148.353,7.017 L149.816,6.71 L151.281,6.421 L152.744,6.132 L154.211,5.864 L155.677,5.595 L157.145,5.346 L158.614,5.096 L160.084,4.865 L161.553,4.634 L163.023,4.423 L164.493,4.212 L165.964,4.021 L167.435,3.83 L168.907,3.657 L170.377,3.484 L171.848,3.331 L173.318,3.178 L174.787,3.045 L176.258,2.913 L177.727,2.798 L179.195,2.683 L180.662,2.589 L182.129,2.495 L183.593,2.42 L185.059,2.346 L186.522,2.29 L187.984,2.234 L189.444,2.199 L190.903,2.163 L192.36,2.148 L193.816,2.132 L195.27,2.135 L196.723,2.138 L198.171,2.162 L199.62,2.185 L201.064,2.229 L202.508,2.272 L203.948,2.335 L205.388,2.397 L206.822,2.48 L208.255,2.562 L209.684,2.665 L211.112,2.768 L212.535,2.89 L213.957,3.012 L215.373,3.154 L216.788,3.296 L218.197,3.459 L219.606,3.622 L221.008,3.803 L222.409,3.985 L223.803,4.186 L225.197,4.388 L226.582,4.611 L227.967,4.833 L229.345,5.075 L230.722,5.316 L232.09,5.578 L233.457,5.839 L234.815,6.122 L236.174,6.405 L237.524,6.706 L238.872,7.008 L240.211,7.33 L241.549,7.652 L242.876,7.995 L244.204,8.339 L245.522,8.701 L246.839,9.063 L248.144,9.445 L249.449,9.827 L250.742,10.231 L252.036,10.634 L253.318,11.057 L254.6,11.479 L255.868,11.922 L257.137,12.365 L258.391,12.83 L259.647,13.294 L260.89,13.778 L262.132,14.261 L263.36,14.765 L264.588,15.27 L265.801,15.795 L267.015,16.321 L268.216,16.866 L269.415,17.41 L270.599,17.976 L271.783,18.541 L272.95,19.127 L274.119,19.714 L275.273,20.32 L276.426,20.926 L277.563,21.553 L278.699,22.18 L279.818,22.828 L280.937,23.476 L282.041,24.144 L283.144,24.811 L284.229,25.5 L285.314,26.189 L286.38,26.899 L287.447,27.609 L288.497,28.339 L289.546,29.068 L290.576,29.819 L291.606,30.569 L292.616,31.342 L293.627,32.114 L294.62,32.906 L295.612,33.698 L296.584,34.511 L297.555,35.324 L298.505,36.158 L299.457,36.993 L300.389,37.848 L301.32,38.702 L302.229,39.577 L303.138,40.453 L304.025,41.35 L304.914,42.247 L305.781,43.165 L306.648,44.082 L307.491,45.02 L308.335,45.958 L309.156,46.919 L309.977,47.879 L310.776,48.86 L311.575,49.84 L312.349,50.842 L313.124,51.844 L313.873,52.867 L314.624,53.892 L315.352,54.936 L316.079,55.98 L316.781,57.045 L317.482,58.11 L318.158,59.198 L318.835,60.286 L319.488,61.395 L320.14,62.502 L320.766,63.631 L321.391,64.761 L321.99,65.912 L322.589,67.065 L323.163,68.238 L323.737,69.409 L324.282,70.604 L324.828,71.797 L325.345,73.014 L325.863,74.231 L326.354,75.469 L326.845,76.706 L327.308,77.965 L327.77,79.224 L328.202,80.506 L328.636,81.788 L329.041,83.092 L329.447,84.393 L329.822,85.718 L330.197,87.043 L330.541,88.39 L330.886,89.738 L331.202,91.107 L331.518,92.475 L331.802,93.866 L332.086,95.256 L332.337,96.67 L332.589,98.084 L332.812,99.52 L333.034,100.954 L333.224,102.411 L333.413,103.868 L333.569,105.348 L333.725,106.829 L333.851,108.332 L333.976,109.833 L334.067,111.356 L334.159,112.88 L334.215,114.427 L334.272,115.976 L334.296,117.545 L334.321,119.113 L334.31,120.704 L334.3,122.296 L334.253,123.91 L334.206,125.526 L334.126,127.163 L334.046,128.799 L333.929,130.458 L333.813,132.117 L333.659,133.799 L333.505,135.486 L333.333,137.134 L333.162,138.785 L332.981,140.416 L332.8,142.047 L332.61,143.659 L332.421,145.272 L332.223,146.867 L332.025,148.461 L331.819,150.037 L331.612,151.612 L331.397,153.168 L331.182,154.725 L330.958,156.264 L330.735,157.803 L330.503,159.323 L330.271,160.842 L330.03,162.343 L329.789,163.845 L329.541,165.329 L329.293,166.813 L329.036,168.278 L328.78,169.743 L328.515,171.189 L328.25,172.636 L327.978,174.066 L327.706,175.496 L327.425,176.906 L327.144,178.317 L326.855,179.71 L326.566,181.103 L326.27,182.479 L325.974,183.855 L325.669,185.212 L325.365,186.57 L325.053,187.909 L324.74,189.249 L324.42,190.572 L324.101,191.895 L323.773,193.199 L323.446,194.504 L323.111,195.791 L322.775,197.078 L322.433,198.348 L322.091,199.619 L321.741,200.871 L321.391,202.124 L321.034,203.358 L320.676,204.594 L320.312,205.813 L319.947,207.031 L319.575,208.232 L319.203,209.433 L318.824,210.616 L318.445,211.8 L318.059,212.968 L317.673,214.136 L317.279,215.286 L316.886,216.436 L316.486,217.568 L316.085,218.702 L315.678,219.819 L315.272,220.936 L314.857,222.036 L314.444,223.136 L314.023,224.219 L313.602,225.302 L313.174,226.37 L312.747,227.437 L312.313,228.487 L311.879,229.538 L311.438,230.571 L310.997,231.605 L310.55,232.624 L310.103,233.642 L309.649,234.643 L309.195,235.645 L308.735,236.629 L308.275,237.615 L307.808,238.585 L307.342,239.555 L306.869,240.508 L306.396,241.461 L305.917,242.397 L305.437,243.335 L304.952,244.257 L304.467,245.179 L303.976,246.084 L303.485,246.99 L302.988,247.879 L302.49,248.769 L301.987,249.644 L301.484,250.519 L300.975,251.378 L300.467,252.234 L299.436,253.922 L298.395,255.579 L297.343,257.204 L296.279,258.798 L295.204,260.364 L294.119,261.898 L293.022,263.401 L291.915,264.876 L290.797,266.32 L289.668,267.734 L288.53,269.121 L287.382,270.477 L286.223,271.803 L285.055,273.102 L283.877,274.371 L282.689,275.612 L281.492,276.825 L280.286,278.009 L279.07,279.164 L277.845,280.292 L276.611,281.391 L275.367,282.462 L274.115,283.508 L272.855,284.524 L271.585,285.513 L270.308,286.477 L269.023,287.413 L267.729,288.321 L266.428,289.205 L265.119,290.061 L263.801,290.89 L262.476,291.695 L261.144,292.473 L259.804,293.225 L258.457,293.952 L257.103,294.653 L255.741,295.328 L254.373,295.979 L252.998,296.604 L251.615,297.204 L250.227,297.781 L248.832,298.332 L247.43,298.859 L246.022,299.363 L244.609,299.841 L243.188,300.295 L241.762,300.727 L240.331,301.135 L238.893,301.518 L237.45,301.879 L236.002,302.216 L234.547,302.53 L233.088,302.823 L231.624,303.091 L230.159,303.336 L228.676,303.551 L227.2,303.765 L225.715,303.933 L224.229,304.101 L222.734,304.223 L221.237,304.346 L219.733,304.429 L218.23,304.511 L216.719,304.549 L215.208,304.587 L213.689,304.581 L212.168,304.576 L210.641,304.532 L209.116,304.488 L207.584,304.402 L206.051,304.316 L204.513,304.187 L202.972,304.059 L201.427,303.893 L199.883,303.728 L198.335,303.522 L196.785,303.315 L195.232,303.069 L193.677,302.822 L192.118,302.54 L190.56,302.258 L188.999,301.936 L187.438,301.615 L185.873,301.256 L184.307,300.897 L182.739,300.503 L181.172,300.11 L179.603,299.68 L178.034,299.249 L176.464,298.782 L174.892,298.314 L173.319,297.814 L171.748,297.314 L170.176,296.779 L168.604,296.243 L167.032,295.673 L165.459,295.102 L163.886,294.5 L162.314,293.899 L160.744,293.264 L159.174,292.63 L157.605,291.962 L156.035,291.294 L154.467,290.596 L152.9,289.898 L151.336,289.169 L149.772,288.439 L148.211,287.679 L146.649,286.917 L145.091,286.128 L143.533,285.339 L141.98,284.52 L140.427,283.701 L138.879,282.853 L137.329,282.004 L135.785,281.128 L134.242,280.253 L132.705,279.35 L131.167,278.447 L129.637,277.516 L128.105,276.584 L126.58,275.628 L125.055,274.672 L123.538,273.689 L122.021,272.707 L120.512,271.698 L119.003,270.689 L117.502,269.657 L116.001,268.624 L114.51,267.567 L113.019,266.51 L111.537,265.429 L110.055,264.347 L108.582,263.244 L107.11,262.142 L105.648,261.016 L104.187,259.89 L102.737,258.742 L101.286,257.594 L99.846,256.426 L98.407,255.257 L96.981,254.068 L95.554,252.878 L94.141,251.668 L92.727,250.457 L91.325,249.229 L89.924,248 L88.537,246.753 L87.15,245.505 L85.777,244.239 L84.404,242.972 L83.044,241.689 L81.685,240.406 L80.342,239.106 L79,237.804 L77.673,236.486 L76.346,235.168 L75.034,233.834 L73.723,232.502 L72.429,231.153 L71.135,229.805 L69.859,228.441 L68.582,227.077 L67.322,225.7 L66.062,224.323 L64.821,222.932 L63.58,221.542 L62.358,220.138 L61.136,218.734 L59.932,217.318 L58.728,215.903 L57.545,214.476 L56.361,213.049 L55.199,211.61 L54.036,210.171 L52.892,208.722 L51.749,207.274 L50.628,205.815 L49.507,204.357 L48.409,202.889 L47.309,201.42 L46.231,199.944 L45.152,198.468 L44.097,196.984 L43.042,195.5 L42.011,194.008 L40.98,192.516 L39.971,191.016 L38.962,189.518 L37.979,188.013 L36.995,186.509 L36.037,184.998 L35.079,183.486 L34.144,181.97 L33.21,180.455 L32.302,178.935 L31.393,177.415 L30.512,175.892 L29.63,174.367 L28.773,172.839 L27.918,171.312 L27.09,169.782 L26.262,168.253 L25.463,166.721 L24.663,165.188 L23.89,163.653 L23.117,162.12 L22.375,160.585 L21.632,159.051 L20.92,157.516 L20.207,155.98 L19.522,154.444 L18.838,152.91 L18.185,151.376 L17.532,149.842 L16.911,148.31 L16.29,146.776 L15.698,145.244 L15.106,143.714 L14.547,142.186 L13.988,140.659 L13.463,139.134 L12.937,137.609 L12.442,136.087 L11.95,134.565 L11.492,133.048 L11.035,131.531 L10.613,130.02 L10.19,128.507 L9.8,126.999 L9.409,125.493 L9.055,123.993 L8.701,122.494 L8.383,121.002 L8.065,119.508 L7.78,118.021 L7.496,116.536 L7.249,115.06 L7.002,113.583 L6.792,112.116 L6.581,110.647 L6.404,109.187 L6.227,107.729 L6.089,106.28 L5.95,104.833 L5.852,103.395 L5.752,101.956 L5.689,100.527 L5.627,99.101 L5.604,97.686 L5.581,96.271 L5.6,94.869 L5.618,93.465 L5.673,92.072 L5.729,90.683 L5.826,89.306 L5.923,87.93 L6.062,86.568 L6.201,85.198 L6.367,83.851 L6.556,82.507 L6.766,81.169 L6.996,79.839 L7.247,78.518 L7.521,77.203 L7.814,75.896 L8.13,74.599 L8.468,73.309 L8.826,72.027 L9.206,70.755 L9.609,69.49 L10.033,68.234 L10.479,66.988 L10.949,65.75 L11.439,64.521 L11.952,63.303 L12.489,62.092 L13.047,60.891 L13.628,59.701 L14.234,58.519 L14.861,57.347 L15.512,56.186 L16.187,55.034 L16.885,53.892 L17.606,52.761 L18.353,51.64 L19.122,50.529 L19.915,49.43 L20.734,48.341 L21.576,47.262 L22.443,46.196 L23.336,45.14 L24.252,44.094 L25.194,43.062 L26.162,42.04 L27.154,41.028 L28.17,40.03 L29.215,39.043 L30.284,38.068 L31.378,37.106 L32.501,36.155 L33.648,35.217 L34.822,34.292 L36.024,33.38 L37.251,32.479 L38.504,31.593 L39.787,30.72 L41.095,29.859 L42.431,29.012 L43.795,28.18 L45.186,27.36 L46.605,26.554 L48.053,25.763 L49.527,24.985 L51.03,24.223 L52.563,23.475 L54.122,22.741 L55.71,22.023 L57.329,21.32 L58.975,20.631 L60.65,19.958 L62.356,19.301 L64.09,18.658 L65.853,18.033 L67.647,17.423 L69.47,16.829 L71.322,16.251 L73.21,15.69 L74.163,15.418 L75.119,15.146 L76.09,14.882 L77.062,14.618 L78.049,14.363 L79.037,14.108 L80.039,13.861 L81.041,13.614 L82.058,13.376 L83.075,13.137 L84.108,12.908 L85.142,12.679 L86.19,12.458 L87.238,12.237 L88.302,12.025 L89.365,11.814 L90.445,11.611 L91.533,11.407 C92.424,11.24 93.011,10.384 92.844,9.493 C92.678,8.603 91.821,8.016 90.93,8.182 Z" id="Fill-50"></path>
        </g>
    </g>
</svg>
