<?xml version="1.0" encoding="UTF-8"?>
<svg width="266px" height="199px" viewBox="0 0 266 199" version="1.1" xmlns="http://www.w3.org/2000/svg" xmlns:xlink="http://www.w3.org/1999/xlink">
    <title>11</title>
    <g id="Page-1" stroke="none" stroke-width="1" fill="none" fill-rule="evenodd">
        <g id="11" transform="translate(0.525000, 0.410000)" fill="currentColor">
            <path d="M94.077,147.383 C109.044,116.561 186.948,46.796 170.866,12.045 C152.67,-27.271 108.491,57.643 97.058,59.672 C93.638,60.278 17.51,-13.226 2.876,35.101 C-14.045,90.982 66.621,99.329 88.043,137.923" id="Fill-568"></path>
            <path d="M96.112,148.399 L96.586,147.447 L97.09,146.488 L97.636,145.498 L98.218,144.482 L98.839,143.439 L99.499,142.369 L100.193,141.275 L100.921,140.157 L101.684,139.014 L102.478,137.85 L103.304,136.663 L104.161,135.454 L105.045,134.226 L105.958,132.977 L106.898,131.707 L107.863,130.42 L108.853,129.115 L109.867,127.79 L110.902,126.45 L111.959,125.092 L113.037,123.718 L114.133,122.329 L115.247,120.925 L116.378,119.507 L117.532,118.068 L118.686,116.629 L119.868,115.164 L121.05,113.698 L122.254,112.209 L123.459,110.718 L124.681,109.208 L125.904,107.697 L127.141,106.167 L128.379,104.636 L129.627,103.088 L130.874,101.54 L131.502,100.757 L132.128,99.977 L132.754,99.197 L133.382,98.413 L134.011,97.624 L134.637,96.837 L135.263,96.05 L135.893,95.26 L136.52,94.463 L137.145,93.671 L137.77,92.879 L138.398,92.083 L139.022,91.282 L139.643,90.486 L140.264,89.69 L140.89,88.888 L141.51,88.083 L142.125,87.283 L142.74,86.484 L143.36,85.677 L143.972,84.869 L144.579,84.067 L145.186,83.265 L145.798,82.456 L146.4,81.646 L146.996,80.842 L147.593,80.038 L148.198,79.223 L149.37,77.61 L150.546,75.992 L151.691,74.376 L152.836,72.759 L153.95,71.146 L155.066,69.531 L156.143,67.921 L157.221,66.31 L158.256,64.706 L159.287,63.105 L160.292,61.502 L161.27,59.907 L162.223,58.317 L163.151,56.732 L164.051,55.152 L164.92,53.578 L165.762,52.011 L166.574,50.449 L167.353,48.897 L168.102,47.353 L168.818,45.815 L169.497,44.288 L170.142,42.77 L170.751,41.259 L171.32,39.761 L171.853,38.273 L172.346,36.794 L172.799,35.329 L173.212,33.875 L173.581,32.431 L173.904,31.001 L174.183,29.583 L174.414,28.175 L174.594,26.783 L174.729,25.405 L174.813,24.037 L174.842,22.688 L174.82,21.352 L174.74,20.028 L174.601,18.725 L174.407,17.438 L174.149,16.166 L173.828,14.918 L173.444,13.69 L172.992,12.481 L172.478,11.304 L171.864,10.053 L171.23,8.881 L170.575,7.79 L169.901,6.767 L169.201,5.816 L168.48,4.944 L167.737,4.139 L166.967,3.404 L166.178,2.745 L165.367,2.154 L164.531,1.633 L163.679,1.19 L162.811,0.814 L161.921,0.51 L161.024,0.281 L160.118,0.119 L159.198,0.025 L158.279,4.54747351e-13 L157.356,0.034 L156.426,0.132 L155.5,0.289 L154.573,0.498 L153.642,0.762 L152.715,1.078 L151.788,1.439 L150.857,1.849 L149.929,2.303 L149,2.798 L148.068,3.336 L147.137,3.913 L146.206,4.525 L145.272,5.176 L144.338,5.862 L143.404,6.579 L142.468,7.331 L141.532,8.113 L140.596,8.922 L139.659,9.762 L138.722,10.627 L137.786,11.517 L136.85,12.431 L135.912,13.371 L134.982,14.335 L134.049,15.301 L133.117,16.306 L132.187,17.311 L131.261,18.348 L130.336,19.384 L129.416,20.444 L128.497,21.504 L127.583,22.587 L126.671,23.668 L125.767,24.765 L124.863,25.861 L123.968,26.965 L123.074,28.069 L122.19,29.178 L121.308,30.286 L120.438,31.393 L119.569,32.498 L118.713,33.597 L117.857,34.695 L117.017,35.781 L116.178,36.866 L115.357,37.931 L114.536,38.996 L113.733,40.039 L112.931,41.081 L112.149,42.093 L111.368,43.103 L110.609,44.078 L109.851,45.052 L109.11,45.997 L108.381,46.919 L107.666,47.816 L106.964,48.691 L106.276,49.537 L105.602,50.355 L104.943,51.145 L104.299,51.902 L103.672,52.626 L103.059,53.318 L102.465,53.973 L101.889,54.59 L101.33,55.17 L100.792,55.708 L100.273,56.203 L99.775,56.657 L99.302,57.063 L98.852,57.421 L98.428,57.732 L98.036,57.99 L97.677,58.196 L97.353,58.353 L97.08,58.457 L96.859,58.512 L97.138,58.512 L97.166,58.517 L97.043,58.463 L96.838,58.357 L96.568,58.198 L96.239,57.989 L95.863,57.739 L95.44,57.447 L94.972,57.113 L94.464,56.743 L93.915,56.337 L93.325,55.894 L92.7,55.421 L92.037,54.916 L91.338,54.379 L90.606,53.816 L89.84,53.224 L89.04,52.606 L88.211,51.965 L87.35,51.299 L86.458,50.612 L85.54,49.905 L84.593,49.179 L83.619,48.434 L82.621,47.674 L81.597,46.897 L80.548,46.107 L79.478,45.305 L78.385,44.492 L77.269,43.668 L76.127,42.834 L74.984,41.999 L73.803,41.152 L72.621,40.305 L71.406,39.452 L70.191,38.599 L68.948,37.746 L67.705,36.891 L66.435,36.042 L65.164,35.192 L63.872,34.352 L62.579,33.513 L61.269,32.688 L59.958,31.862 L58.632,31.057 L57.305,30.252 L55.968,29.474 L54.63,28.696 L53.285,27.947 L51.94,27.198 L50.59,26.485 L49.239,25.773 L47.888,25.104 L46.541,24.436 L45.189,23.798 L43.842,23.186 L42.498,22.602 L41.159,22.043 L39.823,21.514 L38.494,21.016 L37.171,20.547 L35.855,20.112 L34.548,19.713 L33.25,19.347 L31.961,19.018 L30.684,18.73 L29.418,18.479 L28.164,18.27 L26.925,18.105 L25.698,17.981 L24.486,17.904 L23.292,17.876 L22.113,17.894 L20.951,17.963 L19.81,18.085 L18.687,18.258 L17.584,18.487 L16.506,18.774 L15.449,19.115 L14.416,19.518 L13.412,19.982 L12.433,20.505 L11.482,21.093 L10.564,21.747 L9.676,22.462 L8.819,23.246 L7.999,24.098 L7.212,25.013 L6.46,26.001 L5.747,27.059 L5.07,28.183 L4.431,29.383 L3.833,30.656 L3.272,31.999 L2.753,33.42 L2.276,34.918 L1.78,36.67 L1.348,38.391 L0.98,40.08 L0.669,41.742 L0.42,43.376 L0.231,44.979 L0.096,46.556 L0.019,48.106 L0,49.628 L0.032,51.125 L0.119,52.596 L0.26,54.04 L0.449,55.46 L0.691,56.856 L0.983,58.226 L1.32,59.574 L1.705,60.899 L2.138,62.199 L2.613,63.479 L3.133,64.736 L3.697,65.971 L4.299,67.187 L4.944,68.382 L5.628,69.556 L6.348,70.712 L7.106,71.849 L7.901,72.967 L8.728,74.068 L9.59,75.152 L10.485,76.219 L11.409,77.271 L12.366,78.308 L13.351,79.329 L14.364,80.336 L15.404,81.33 L16.471,82.31 L17.561,83.278 L18.676,84.234 L19.814,85.178 L20.973,86.113 L22.153,87.036 L23.354,87.95 L24.579,88.851 L25.804,89.751 L27.065,90.636 L28.324,91.52 L29.614,92.39 L30.903,93.26 L32.215,94.119 L33.527,94.978 L34.861,95.827 L36.194,96.676 L37.544,97.518 L38.893,98.359 L40.254,99.196 L41.615,100.033 L42.984,100.866 L44.352,101.7 L45.725,102.532 L47.096,103.365 L48.466,104.2 L49.835,105.036 L51.205,105.871 L52.573,106.706 L53.924,107.552 L55.276,108.399 L56.627,109.246 L57.977,110.092 L59.29,110.958 L60.605,111.826 L61.919,112.693 L63.233,113.56 L64.511,114.446 L65.79,115.332 L67.037,116.234 L68.285,117.137 L69.497,118.058 L70.709,118.98 L71.885,119.921 L73.06,120.862 L74.191,121.826 L75.323,122.79 L76.405,123.78 L77.488,124.77 L78.535,125.778 L79.554,126.801 L80.545,127.839 L81.509,128.892 L82.441,129.96 L83.342,131.045 L84.213,132.146 L85.05,133.264 L85.851,134.401 L86.62,135.556 L87.351,136.729 L88.043,137.923 L87.361,136.723 L86.64,135.543 L85.881,134.381 L85.089,133.236 L84.261,132.109 L83.399,130.999 L82.506,129.905 L81.582,128.827 L80.626,127.765 L79.642,126.716 L78.63,125.682 L77.59,124.663 L76.514,123.662 L75.438,122.661 L74.313,121.685 L73.188,120.709 L72.018,119.756 L70.848,118.803 L69.642,117.869 L68.436,116.935 L67.194,116.02 L65.952,115.105 L64.679,114.206 L63.405,113.307 L62.097,112.427 L60.79,111.548 L59.483,110.669 L58.174,109.789 L56.828,108.929 L55.483,108.07 L54.139,107.212 L52.794,106.353 L51.431,105.504 L50.069,104.657 L48.706,103.81 L47.344,102.962 L45.979,102.117 L44.614,101.273 L43.253,100.428 L41.893,99.583 L40.54,98.735 L39.188,97.887 L37.848,97.035 L36.508,96.183 L35.184,95.324 L33.861,94.465 L32.56,93.597 L31.259,92.729 L29.981,91.851 L28.704,90.973 L27.458,90.081 L26.211,89.19 L25,88.283 L23.787,87.376 L22.603,86.458 L21.439,85.531 L20.297,84.593 L19.176,83.647 L18.079,82.689 L17.007,81.721 L15.96,80.741 L14.94,79.75 L13.948,78.746 L12.984,77.729 L12.05,76.699 L11.148,75.655 L10.276,74.597 L9.438,73.524 L8.635,72.435 L7.865,71.331 L7.132,70.211 L6.437,69.073 L5.778,67.919 L5.159,66.747 L4.581,65.555 L4.042,64.346 L3.547,63.117 L3.095,61.867 L2.685,60.598 L2.321,59.308 L2.005,57.994 L1.732,56.66 L1.51,55.303 L1.338,53.92 L1.213,52.515 L1.141,51.085 L1.122,49.628 L1.154,48.147 L1.242,46.639 L1.387,45.102 L1.585,43.539 L1.843,41.947 L2.162,40.325 L2.537,38.675 L2.974,36.995 L3.476,35.283 L3.951,33.835 L4.465,32.471 L5.015,31.186 L5.599,29.973 L6.216,28.84 L6.868,27.78 L7.55,26.788 L8.262,25.871 L9.006,25.022 L9.777,24.236 L10.576,23.519 L11.404,22.866 L12.257,22.271 L13.136,21.738 L14.043,21.265 L14.974,20.845 L15.929,20.483 L16.911,20.176 L17.916,19.919 L18.943,19.716 L19.995,19.564 L21.068,19.46 L22.162,19.405 L23.278,19.399 L24.412,19.436 L25.565,19.52 L26.737,19.65 L27.924,19.819 L29.127,20.031 L30.347,20.285 L31.579,20.576 L32.824,20.906 L34.082,21.273 L35.35,21.674 L36.628,22.11 L37.916,22.58 L39.211,23.079 L40.513,23.61 L41.822,24.17 L43.135,24.756 L44.453,25.369 L45.771,26.007 L47.098,26.68 L48.422,27.352 L49.746,28.066 L51.071,28.781 L52.392,29.534 L53.715,30.287 L55.03,31.069 L56.345,31.85 L57.65,32.659 L58.955,33.468 L60.244,34.298 L61.535,35.128 L62.809,35.972 L64.083,36.816 L65.334,37.671 L66.586,38.525 L67.811,39.384 L69.037,40.244 L70.236,41.102 L71.435,41.961 L72.6,42.813 L73.766,43.666 L74.894,44.506 L76.023,45.348 L77.123,46.177 L78.203,46.996 L79.26,47.804 L80.296,48.601 L81.308,49.384 L82.295,50.151 L83.258,50.903 L84.195,51.637 L85.103,52.352 L85.985,53.047 L86.838,53.721 L87.661,54.37 L88.455,54.998 L89.216,55.598 L89.945,56.172 L90.643,56.719 L91.306,57.236 L91.933,57.721 L92.528,58.177 L93.086,58.599 L93.607,58.986 L94.093,59.341 L94.543,59.659 L94.955,59.94 L95.336,60.186 L95.687,60.397 L96.013,60.571 L96.338,60.715 L96.719,60.825 L97.256,60.831 L97.769,60.71 L98.274,60.527 L98.77,60.293 L99.268,60.015 L99.775,59.689 L100.289,59.32 L100.813,58.912 L101.352,58.46 L101.903,57.969 L102.467,57.441 L103.047,56.874 L103.642,56.27 L104.249,55.633 L104.873,54.96 L105.511,54.254 L106.162,53.518 L106.828,52.75 L107.508,51.953 L108.201,51.13 L108.908,50.279 L109.627,49.402 L110.359,48.504 L111.102,47.582 L111.859,46.638 L112.631,45.668 L113.402,44.698 L114.196,43.692 L114.99,42.687 L115.805,41.652 L116.619,40.618 L117.45,39.562 L118.282,38.507 L119.13,37.433 L119.979,36.36 L120.843,35.275 L121.707,34.19 L122.584,33.099 L123.46,32.009 L124.349,30.917 L125.237,29.827 L126.136,28.741 L127.035,27.656 L127.943,26.581 L128.849,25.507 L129.764,24.449 L130.677,23.392 L131.596,22.358 L132.515,21.324 L133.438,20.315 L134.359,19.309 L135.282,18.335 L136.204,17.363 L137.126,16.431 L138.051,15.496 L138.969,14.598 L139.887,13.723 L140.803,12.873 L141.716,12.049 L142.625,11.255 L143.53,10.49 L144.431,9.756 L145.325,9.055 L146.214,8.389 L147.097,7.757 L147.97,7.164 L148.837,6.609 L149.695,6.091 L150.542,5.617 L151.379,5.186 L152.205,4.795 L153.016,4.45 L153.815,4.152 L154.6,3.896 L155.366,3.689 L156.12,3.53 L156.857,3.415 L157.573,3.35 L158.276,3.333 L158.965,3.361 L159.632,3.438 L160.291,3.567 L160.938,3.741 L161.57,3.967 L162.199,4.25 L162.822,4.585 L163.434,4.978 L164.046,5.439 L164.653,5.96 L165.252,6.548 L165.848,7.213 L166.439,7.946 L167.021,8.753 L167.596,9.643 L168.162,10.609 L168.714,11.655 L169.254,12.785 L169.687,13.802 L170.06,14.832 L170.378,15.888 L170.65,16.964 L170.869,18.058 L171.035,19.18 L171.154,20.323 L171.221,21.485 L171.238,22.674 L171.209,23.883 L171.13,25.111 L171.001,26.363 L170.826,27.634 L170.604,28.922 L170.335,30.232 L170.024,31.56 L169.669,32.903 L169.269,34.266 L168.83,35.644 L168.346,37.035 L167.82,38.443 L167.258,39.865 L166.657,41.298 L166.018,42.747 L165.345,44.207 L164.636,45.678 L163.893,47.162 L163.118,48.656 L162.312,50.158 L161.474,51.672 L160.607,53.193 L159.713,54.723 L158.792,56.263 L157.846,57.809 L156.874,59.362 L155.879,60.918 L154.847,62.488 L153.819,64.056 L152.748,65.632 L151.677,67.209 L150.567,68.792 L149.456,70.377 L148.314,71.965 L147.172,73.554 L146,75.144 L144.826,76.738 L144.232,77.526 L143.63,78.326 L143.028,79.126 L142.432,79.918 L141.827,80.71 L141.216,81.51 L140.605,82.309 L140,83.101 L139.386,83.891 L138.767,84.688 L138.148,85.484 L137.534,86.275 L136.913,87.063 L136.289,87.856 L135.664,88.649 L135.042,89.438 L134.418,90.223 L133.789,91.012 L133.161,91.802 L132.536,92.587 L131.909,93.367 L131.279,94.151 L130.649,94.934 L130.021,95.715 L129.394,96.489 L128.765,97.267 L128.135,98.044 L127.508,98.819 L126.255,100.358 L125.003,101.898 L123.76,103.42 L122.516,104.944 L121.287,106.448 L120.057,107.953 L118.844,109.439 L117.631,110.925 L116.44,112.389 L115.249,113.854 L114.086,115.294 L112.924,116.734 L111.78,118.157 L110.654,119.567 L109.546,120.962 L108.454,122.344 L107.382,123.711 L106.332,125.062 L105.301,126.399 L104.293,127.72 L103.309,129.023 L102.348,130.311 L101.413,131.582 L100.505,132.834 L99.624,134.069 L98.771,135.286 L97.949,136.483 L97.155,137.663 L96.393,138.823 L95.666,139.963 L94.969,141.084 L94.308,142.186 L93.684,143.266 L93.094,144.327 L92.542,145.37 L92.041,146.367 C91.48,147.491 91.937,148.857 93.061,149.419 C94.185,149.98 95.551,149.524 96.112,148.399 Z" id="Fill-569"></path>
            <path d="M181.778,195.852 C200.31,174.707 267.963,141.502 262.445,111.221 C258.182,87.827 201.46,112.297 199.204,126.722 C198.232,132.943 200.656,112.832 195.671,108.134 C186.78,99.755 153.888,91.092 144.696,104.677 C133.434,121.322 170.543,168.839 177.618,185.85" id="Fill-570"></path>
            <path d="M183.474,197.368 L184.051,196.72 L184.646,196.078 L185.275,195.424 L185.933,194.76 L186.622,194.087 L187.342,193.402 L188.089,192.71 L188.864,192.008 L189.667,191.297 L190.494,190.579 L191.346,189.852 L192.223,189.116 L193.122,188.374 L194.044,187.624 L194.988,186.866 L195.951,186.101 L196.934,185.329 L197.934,184.551 L198.963,183.762 L199.991,182.973 L201.05,182.172 L202.111,181.37 L203.2,180.556 L204.29,179.741 L205.404,178.916 L206.517,178.089 L207.652,177.251 L208.788,176.413 L209.942,175.564 L211.097,174.714 L212.265,173.856 L213.434,172.996 L214.615,172.127 L215.796,171.257 L216.986,170.379 L218.177,169.498 L219.373,168.606 L220.565,167.717 L221.757,166.828 L222.958,165.932 L224.155,165.02 L225.342,164.116 L226.53,163.211 L227.731,162.296 L228.912,161.367 L230.079,160.447 L231.246,159.526 L232.424,158.598 L233.581,157.66 L234.737,156.724 L235.873,155.782 L237.01,154.839 L238.124,153.89 L239.238,152.941 L240.327,151.988 L241.418,151.032 L242.479,150.07 L243.541,149.108 L244.569,148.142 L245.597,147.176 L246.59,146.203 L247.584,145.228 L248.539,144.25 L249.495,143.27 L250.408,142.288 L251.315,141.31 L252.2,140.32 L253.058,139.331 L253.89,138.341 L254.699,137.349 L255.483,136.354 L256.242,135.361 L256.976,134.367 L257.682,133.368 L258.357,132.369 L259.004,131.368 L259.62,130.363 L260.205,129.359 L260.761,128.353 L261.284,127.343 L261.77,126.332 L262.222,125.318 L262.638,124.3 L263.015,123.281 L263.35,122.258 L263.644,121.23 L263.895,120.203 L264.107,119.174 L264.274,118.14 L264.395,117.108 L264.472,116.076 L264.501,115.039 L264.478,114.007 L264.41,112.976 L264.289,111.942 L264.118,110.92 L263.942,110.113 L263.727,109.336 L263.473,108.593 L263.183,107.878 L262.852,107.19 L262.486,106.538 L262.087,105.917 L261.65,105.325 L261.182,104.77 L260.685,104.247 L260.155,103.756 L259.599,103.302 L259.019,102.879 L258.41,102.487 L257.782,102.131 L257.133,101.803 L256.46,101.506 L255.771,101.239 L255.065,101 L254.338,100.789 L253.597,100.605 L252.842,100.447 L252.068,100.314 L251.282,100.206 L250.483,100.121 L249.668,100.06 L248.842,100.022 L248.005,100.004 L247.154,100.009 L246.294,100.034 L245.424,100.079 L244.542,100.144 L243.653,100.229 L242.756,100.331 L241.849,100.453 L240.924,100.594 L239.091,100.92 L237.222,101.315 L235.338,101.775 L233.443,102.29 L231.54,102.862 L229.638,103.487 L227.741,104.159 L225.852,104.879 L223.981,105.643 L222.13,106.445 L220.305,107.285 L218.515,108.159 L216.76,109.062 L215.049,109.995 L213.389,110.952 L211.781,111.929 L210.233,112.927 L208.754,113.94 L207.342,114.965 L206.007,116.003 L204.758,117.047 L203.591,118.097 L202.518,119.152 L201.559,120.196 L201.101,120.734 L200.679,121.263 L200.286,121.791 L199.92,122.319 L199.583,122.849 L199.278,123.376 L199.002,123.905 L198.758,124.435 L198.55,124.964 L198.375,125.493 L198.236,126.026 L198.142,126.534 L198.085,126.907 L198.04,127.185 L198.005,127.389 L197.98,127.519 L197.962,127.588 L198.029,127.401 L198.029,127.402 L198.029,127.402 L198.029,127.402 L198.029,127.403 L198.028,127.404 L198.028,127.405 L198.027,127.406 L198.027,127.408 L198.026,127.409 L198.025,127.411 L198.024,127.413 L198.023,127.415 L198.022,127.417 L198.021,127.42 L198.02,127.422 L198.024,127.414 L198.035,127.392 L198.048,127.367 L198.065,127.338 L198.086,127.304 L198.113,127.266 L198.147,127.221 L198.192,127.169 L198.25,127.11 L198.328,127.045 L198.43,126.976 L198.564,126.91 L198.73,126.856 L198.926,126.829 L199.133,126.84 L199.331,126.89 L199.419,126.926 L199.418,126.926 L199.417,126.926 L199.416,126.925 L199.416,126.925 L199.415,126.925 L199.414,126.924 L199.414,126.924 L199.413,126.924 L199.413,126.924 L199.412,126.923 L199.412,126.923 L199.412,126.923 L199.412,126.923 L199.412,126.923 L198.512,128.867 L198.528,128.875 L199.427,126.93 L199.427,126.93 L199.426,126.93 L199.425,126.929 L199.423,126.929 L199.422,126.928 L199.42,126.927 L199.577,127.017 L199.782,127.203 L199.888,127.351 L199.944,127.46 L199.974,127.537 L199.992,127.594 L200.002,127.635 L200.008,127.666 L200.01,127.674 L200.009,127.667 L200.008,127.661 L200.007,127.657 L200.006,127.653 L200.006,127.65 L200.005,127.648 L200.005,127.647 L200.02,127.771 L200.013,127.68 L200.009,127.55 L200.008,127.359 L200.008,127.115 L200.01,126.829 L200.013,126.499 L200.016,126.13 L200.019,125.727 L200.022,125.29 L200.023,124.821 L200.022,124.325 L200.019,123.802 L200.012,123.254 L200.002,122.687 L199.988,122.098 L199.969,121.489 L199.915,120.242 L199.834,118.947 L199.72,117.629 L199.573,116.304 L199.383,114.988 L199.145,113.703 L198.858,112.459 L198.509,111.273 L198.099,110.188 L197.856,109.648 L197.597,109.149 L197.316,108.681 L197.01,108.239 L196.674,107.827 L196.31,107.456 L195.687,106.904 L195.003,106.358 L194.265,105.819 L193.478,105.287 L192.638,104.762 L191.75,104.245 L190.82,103.737 L189.844,103.238 L188.827,102.75 L187.775,102.273 L186.685,101.808 L185.562,101.358 L184.409,100.922 L183.227,100.502 L182.019,100.099 L180.789,99.714 L179.536,99.348 L178.266,99.004 L176.981,98.68 L175.681,98.38 L174.371,98.104 L173.054,97.852 L171.729,97.627 L170.403,97.431 L169.076,97.262 L167.75,97.124 L166.429,97.018 L165.115,96.943 L163.809,96.903 L162.517,96.899 L161.239,96.929 L159.977,96.998 L158.736,97.107 L157.516,97.254 L156.32,97.444 L155.153,97.678 L154.014,97.955 L152.907,98.278 L151.837,98.65 L150.802,99.068 L149.807,99.539 L148.858,100.063 L147.952,100.637 L147.095,101.268 L146.294,101.956 L145.545,102.697 L144.855,103.5 L144.234,104.356 L143.879,104.921 L143.561,105.502 L143.277,106.101 L143.024,106.717 L142.802,107.352 L142.613,108.003 L142.451,108.67 L142.32,109.354 L142.218,110.053 L142.142,110.766 L142.095,111.495 L142.074,112.238 L142.078,112.993 L142.108,113.763 L142.164,114.545 L142.241,115.34 L142.343,116.147 L142.468,116.967 L142.614,117.797 L142.782,118.639 L142.972,119.493 L143.181,120.356 L143.411,121.23 L143.661,122.117 L144.211,123.907 L144.836,125.737 L145.527,127.598 L145.903,128.544 L146.279,129.489 L146.684,130.447 L147.089,131.405 L147.522,132.375 L147.955,133.344 L148.411,134.322 L148.866,135.301 L149.346,136.288 L149.825,137.275 L150.325,138.268 L150.825,139.262 L151.342,140.259 L151.859,141.257 L152.393,142.259 L152.927,143.26 L153.475,144.263 L154.023,145.266 L154.582,146.269 L155.142,147.272 L155.711,148.273 L156.281,149.274 L156.858,150.272 L157.435,151.27 L158.017,152.263 L158.599,153.256 L159.185,154.243 L159.771,155.229 L160.358,156.207 L160.945,157.185 L161.529,158.149 L162.114,159.112 L162.699,160.075 L163.283,161.039 L163.858,161.976 L164.432,162.912 L165.006,163.849 L165.581,164.785 L166.135,165.688 L166.689,166.59 L167.244,167.493 L167.798,168.395 L168.334,169.271 L168.87,170.146 L169.91,171.853 L170.912,173.513 L171.876,175.126 L172.795,176.686 L173.663,178.187 L174.482,179.633 L175.241,181.015 L175.937,182.329 L176.262,182.962 L176.569,183.577 L176.859,184.173 L177.131,184.751 L177.385,185.311 L177.618,185.85 L177.391,185.308 L177.145,184.745 L176.879,184.163 L176.597,183.563 L176.297,182.944 L175.98,182.307 L175.3,180.984 L174.558,179.591 L173.757,178.134 L172.907,176.621 L172.007,175.05 L171.063,173.424 L170.081,171.751 L169.062,170.031 L168.537,169.148 L168.012,168.266 L167.469,167.357 L166.926,166.447 L166.383,165.538 L165.84,164.629 L165.277,163.685 L164.714,162.741 L164.152,161.798 L163.59,160.854 L163.017,159.884 L162.445,158.914 L161.872,157.944 L161.3,156.974 L160.726,155.989 L160.152,155.005 L159.579,154.012 L159.006,153.02 L158.437,152.02 L157.868,151.021 L157.304,150.018 L156.74,149.014 L156.184,148.008 L155.629,147.001 L155.083,145.994 L154.537,144.986 L154.003,143.979 L153.469,142.972 L152.949,141.967 L152.429,140.962 L151.927,139.961 L151.424,138.96 L150.938,137.965 L150.452,136.969 L149.988,135.981 L149.523,134.993 L149.082,134.015 L148.641,133.036 L148.223,132.067 L147.805,131.099 L147.415,130.143 L147.025,129.188 L146.664,128.247 L146.305,127.308 L145.642,125.455 L145.048,123.641 L144.526,121.864 L144.293,120.995 L144.079,120.135 L143.884,119.287 L143.709,118.45 L143.555,117.626 L143.423,116.816 L143.311,116.018 L143.223,115.236 L143.157,114.468 L143.113,113.714 L143.094,112.976 L143.099,112.255 L143.127,111.549 L143.181,110.861 L143.26,110.191 L143.364,109.537 L143.494,108.903 L143.651,108.287 L143.834,107.688 L144.043,107.111 L144.281,106.552 L144.546,106.011 L144.838,105.492 L145.157,104.998 L145.743,104.21 L146.381,103.486 L147.077,102.815 L147.821,102.192 L148.617,101.621 L149.463,101.101 L150.353,100.624 L151.288,100.197 L152.266,99.817 L153.282,99.478 L154.334,99.186 L155.423,98.937 L156.542,98.728 L157.69,98.561 L158.866,98.436 L160.064,98.347 L161.283,98.297 L162.522,98.284 L163.776,98.305 L165.043,98.361 L166.321,98.452 L167.606,98.572 L168.896,98.724 L170.19,98.907 L171.483,99.116 L172.772,99.353 L174.057,99.617 L175.334,99.903 L176.599,100.214 L177.851,100.548 L179.088,100.901 L180.305,101.274 L181.501,101.667 L182.674,102.075 L183.819,102.499 L184.934,102.939 L186.019,103.391 L187.068,103.854 L188.078,104.329 L189.051,104.812 L189.979,105.303 L190.86,105.8 L191.696,106.301 L192.477,106.805 L193.204,107.311 L193.877,107.815 L194.486,108.316 L195.032,108.812 L195.273,109.065 L195.503,109.356 L195.727,109.69 L195.942,110.06 L196.145,110.464 L196.329,110.886 L196.687,111.869 L196.984,112.936 L197.233,114.087 L197.44,115.294 L197.602,116.542 L197.726,117.812 L197.818,119.083 L197.88,120.336 L197.916,121.556 L197.926,122.142 L197.933,122.716 L197.935,123.271 L197.933,123.807 L197.93,124.319 L197.924,124.806 L197.916,125.267 L197.908,125.699 L197.899,126.098 L197.891,126.466 L197.884,126.797 L197.878,127.091 L197.874,127.35 L197.872,127.571 L197.875,127.759 L197.882,127.896 L197.897,128.02 L197.897,128.021 L197.897,128.023 L197.898,128.026 L197.899,128.03 L197.899,128.034 L197.9,128.04 L197.902,128.047 L197.906,128.071 L197.915,128.115 L197.929,128.168 L197.949,128.235 L197.983,128.321 L198.042,128.437 L198.151,128.591 L198.36,128.78 L198.521,128.871 L198.523,128.872 L198.525,128.873 L198.526,128.873 L198.527,128.874 L198.527,128.874 L198.528,128.874 L199.427,126.93 L199.411,126.923 L198.512,128.867 L198.512,128.867 L198.513,128.867 L198.513,128.868 L198.513,128.868 L198.514,128.868 L198.514,128.868 L198.515,128.868 L198.515,128.869 L198.516,128.869 L198.516,128.869 L198.517,128.87 L198.518,128.87 L198.519,128.87 L198.52,128.871 L198.61,128.908 L198.809,128.958 L199.019,128.97 L199.216,128.942 L199.385,128.888 L199.521,128.82 L199.626,128.75 L199.705,128.683 L199.766,128.622 L199.813,128.568 L199.85,128.52 L199.879,128.477 L199.902,128.44 L199.922,128.406 L199.938,128.377 L199.951,128.35 L199.958,128.336 L199.959,128.333 L199.96,128.331 L199.961,128.329 L199.962,128.327 L199.963,128.325 L199.964,128.323 L199.965,128.321 L199.965,128.32 L199.966,128.319 L199.967,128.318 L199.967,128.317 L199.967,128.316 L199.968,128.316 L199.968,128.315 L199.968,128.315 L200.035,128.129 L200.071,127.992 L200.113,127.792 L200.159,127.551 L200.211,127.252 L200.267,126.911 L200.347,126.511 L200.454,126.124 L200.594,125.721 L200.764,125.307 L200.966,124.886 L201.201,124.452 L201.465,124.01 L201.76,123.562 L202.087,123.105 L202.442,122.643 L202.826,122.176 L203.23,121.715 L204.144,120.749 L205.155,119.785 L206.267,118.814 L207.466,117.841 L208.752,116.873 L210.121,115.91 L211.559,114.956 L213.066,114.017 L214.636,113.094 L216.258,112.191 L217.93,111.312 L219.648,110.461 L221.4,109.638 L223.182,108.849 L224.992,108.098 L226.819,107.383 L228.658,106.714 L230.506,106.091 L232.353,105.515 L234.194,104.993 L236.024,104.527 L237.836,104.118 L239.622,103.771 L241.389,103.489 L242.243,103.374 L243.096,103.274 L243.939,103.193 L244.77,103.128 L245.587,103.082 L246.392,103.054 L247.183,103.044 L247.956,103.053 L248.715,103.082 L249.457,103.129 L250.179,103.196 L250.883,103.283 L251.569,103.389 L252.232,103.515 L252.875,103.661 L253.497,103.826 L254.092,104.011 L254.667,104.217 L255.219,104.441 L255.742,104.684 L256.243,104.948 L256.72,105.231 L257.168,105.532 L257.593,105.855 L257.995,106.197 L258.368,106.556 L258.72,106.941 L259.048,107.345 L259.349,107.77 L259.628,108.224 L259.884,108.702 L260.113,109.203 L260.317,109.739 L260.498,110.303 L260.649,110.895 L260.772,111.522 L260.901,112.393 L260.985,113.258 L261.025,114.128 L261.027,115 L260.988,115.872 L260.909,116.75 L260.793,117.631 L260.637,118.513 L260.441,119.401 L260.21,120.294 L259.94,121.187 L259.632,122.087 L259.294,122.993 L258.92,123.9 L258.508,124.813 L258.063,125.729 L257.585,126.646 L257.07,127.569 L256.524,128.493 L255.942,129.416 L255.328,130.342 L254.685,131.271 L254.012,132.199 L253.308,133.131 L252.577,134.062 L251.815,134.991 L251.025,135.921 L250.211,136.852 L249.372,137.782 L248.512,138.708 L247.61,139.643 L246.714,140.574 L245.774,141.501 L244.833,142.431 L243.851,143.357 L242.868,144.286 L241.854,145.214 L240.84,146.142 L239.792,147.066 L238.744,147.992 L237.665,148.913 L236.586,149.837 L235.483,150.757 L234.38,151.677 L233.254,152.592 L232.127,153.508 L230.981,154.419 L229.836,155.328 L228.671,156.229 L227.495,157.138 L226.319,158.047 L225.157,158.948 L223.976,159.835 L222.782,160.732 L221.589,161.629 L220.403,162.519 L219.214,163.394 L218.016,164.275 L216.818,165.157 L215.624,166.035 L214.434,166.902 L213.242,167.77 L212.058,168.629 L210.873,169.49 L209.699,170.34 L208.525,171.192 L207.363,172.034 L206.201,172.877 L205.056,173.71 L203.911,174.544 L202.787,175.367 L201.662,176.192 L200.561,177.006 L199.458,177.822 L198.383,178.627 L197.307,179.432 L196.262,180.226 L195.219,181.019 L194.196,181.806 L193.191,182.588 L192.205,183.363 L191.236,184.133 L190.287,184.898 L189.359,185.657 L188.451,186.411 L187.565,187.16 L186.703,187.902 L185.862,188.639 L185.045,189.371 L184.255,190.097 L183.489,190.819 L182.748,191.535 L182.037,192.246 L181.351,192.952 L180.693,193.656 L180.082,194.336 C179.245,195.273 179.325,196.711 180.262,197.548 C181.199,198.386 182.637,198.305 183.474,197.368 Z" id="Fill-571"></path>
            <path d="M202.567,85.64 C207.594,93.014 251.177,46.731 231.02,41.51 C210.207,36.119 207.825,62.258 209.77,55.015 C213.202,42.23 159.326,22.225 202.567,85.64 Z" id="Fill-572"></path>
            <path d="M200.78,87.049 L201.065,87.397 L201.529,87.823 L202.037,88.158 L202.575,88.41 L203.14,88.58 L203.688,88.67 L204.225,88.7 L204.761,88.677 L205.277,88.61 L205.786,88.508 L206.297,88.371 L206.803,88.205 L207.309,88.014 L207.823,87.794 L208.339,87.551 L208.861,87.285 L209.392,86.994 L209.929,86.681 L210.472,86.347 L211.026,85.99 L211.585,85.613 L212.151,85.216 L212.726,84.798 L213.319,84.353 L214.485,83.436 L215.689,82.436 L216.907,81.368 L218.137,80.243 L219.377,79.057 L220.62,77.821 L221.86,76.54 L223.096,75.215 L224.319,73.853 L225.525,72.461 L226.706,71.035 L227.857,69.588 L228.976,68.124 L230.057,66.644 L231.088,65.156 L232.071,63.663 L232.993,62.165 L233.852,60.676 L234.649,59.197 L235.377,57.73 L236.034,56.291 L236.615,54.871 L237.117,53.475 L237.514,52.136 L237.688,51.437 L237.825,50.767 L237.929,50.107 L238.006,49.453 L238.052,48.804 L238.065,48.168 L238.046,47.539 L237.989,46.915 L237.892,46.307 L237.757,45.71 L237.579,45.122 L237.357,44.556 L237.094,44.008 L236.78,43.478 L236.424,42.98 L236.026,42.509 L235.579,42.067 L235.095,41.664 L234.573,41.295 L234.009,40.961 L233.412,40.666 L232.783,40.405 L232.114,40.179 L231.425,39.992 L230.729,39.833 L230.053,39.697 L229.391,39.583 L228.739,39.488 L228.096,39.412 L227.448,39.355 L226.242,39.299 L225.058,39.315 L223.923,39.403 L222.831,39.552 L221.78,39.766 L220.779,40.038 L219.821,40.362 L218.905,40.739 L218.038,41.163 L217.214,41.625 L216.431,42.129 L215.696,42.666 L215.001,43.23 L214.346,43.823 L213.734,44.435 L213.16,45.064 L212.623,45.709 L212.125,46.362 L211.661,47.021 L211.231,47.685 L210.836,48.345 L210.471,49.002 L210.138,49.652 L209.835,50.29 L209.56,50.913 L209.313,51.519 L209.094,52.102 L208.899,52.662 L208.729,53.195 L208.584,53.695 L208.461,54.163 L208.359,54.594 L208.279,54.985 L208.218,55.338 L208.176,55.653 L208.154,55.933 L208.153,56.21 L208.181,56.421 L208.447,56.977 L208.447,56.977 L208.448,56.977 L208.448,56.978 L208.449,56.978 L208.449,56.979 L208.45,56.98 L208.451,56.981 L208.452,56.982 L208.453,56.983 L208.454,56.984 L208.456,56.986 L208.457,56.988 L208.459,56.989 L208.461,56.991 L208.463,56.993 L208.49,57.023 L208.55,57.079 L208.618,57.135 L208.697,57.189 L208.784,57.238 L208.88,57.28 L208.982,57.314 L209.087,57.338 L209.193,57.351 L209.296,57.354 L209.395,57.347 L209.487,57.333 L209.571,57.313 L209.648,57.289 L209.716,57.262 L209.777,57.233 L209.806,57.217 L209.809,57.216 L209.812,57.215 L209.814,57.213 L209.816,57.212 L209.818,57.211 L209.82,57.21 L209.822,57.209 L209.823,57.208 L209.824,57.207 L209.826,57.207 L209.827,57.206 L209.827,57.206 L209.828,57.205 L209.828,57.205 L209.828,57.205 L210.214,56.849 L210.326,56.664 L210.445,56.396 L210.552,56.095 L210.664,55.728 L210.786,55.272 L210.886,54.794 L210.944,54.294 L210.958,53.798 L210.933,53.304 L210.868,52.81 L210.765,52.324 L210.629,51.844 L210.459,51.367 L210.258,50.899 L210.03,50.437 L209.773,49.98 L209.49,49.533 L209.184,49.092 L208.853,48.656 L208.5,48.23 L208.128,47.81 L207.734,47.398 L207.312,46.986 L206.447,46.213 L205.506,45.468 L204.51,44.766 L203.469,44.105 L202.386,43.494 L201.273,42.937 L200.138,42.435 L198.984,41.995 L197.824,41.625 L196.664,41.322 L195.509,41.097 L194.372,40.957 L193.256,40.899 L192.168,40.938 L191.14,41.078 L190.616,41.19 L190.121,41.328 L189.642,41.496 L189.178,41.691 L188.73,41.919 L188.303,42.178 L187.895,42.467 L187.508,42.791 L187.148,43.147 L186.813,43.534 L186.504,43.956 L186.227,44.409 L185.978,44.892 L185.759,45.41 L185.574,45.959 L185.42,46.538 L185.299,47.151 L185.214,47.797 L185.16,48.473 L185.143,49.185 L185.163,49.932 L185.216,50.711 L185.308,51.528 L185.44,52.382 L185.608,53.271 L185.817,54.199 L186.069,55.167 L186.359,56.172 L186.694,57.219 L187.074,58.307 L187.496,59.435 L187.965,60.606 L188.482,61.822 L189.045,63.078 L189.658,64.38 L190.323,65.729 L191.035,67.12 L191.801,68.56 L192.623,70.047 L193.495,71.579 L194.424,73.161 L195.411,74.794 L196.452,76.472 L197.003,77.338 L197.553,78.203 L198.135,79.095 L198.716,79.986 L199.326,80.902 L199.936,81.817 L200.577,82.759 L201.219,83.702 L201.893,84.671 L202.567,85.641 C202.567,85.641 202.567,85.641 202.567,85.641 C202.567,85.641 202.567,85.64 202.567,85.64 L201.919,84.653 L201.271,83.667 L200.655,82.708 L200.039,81.749 L199.454,80.819 L198.869,79.888 L198.312,78.982 L197.756,78.077 L197.229,77.198 L196.702,76.32 L195.708,74.617 L194.767,72.963 L193.883,71.362 L193.055,69.812 L192.277,68.31 L191.553,66.858 L190.882,65.457 L190.258,64.101 L189.685,62.794 L189.161,61.536 L188.681,60.321 L188.249,59.154 L187.864,58.033 L187.519,56.954 L187.219,55.922 L186.962,54.934 L186.743,53.987 L186.564,53.085 L186.426,52.226 L186.322,51.406 L186.255,50.63 L186.224,49.895 L186.224,49.197 L186.257,48.543 L186.323,47.927 L186.415,47.348 L186.536,46.81 L186.684,46.308 L186.856,45.84 L187.051,45.41 L187.27,45.013 L187.509,44.647 L187.767,44.314 L188.047,44.01 L188.344,43.732 L188.658,43.483 L188.993,43.26 L189.345,43.06 L189.713,42.886 L190.101,42.736 L190.504,42.608 L190.922,42.504 L191.34,42.427 L192.267,42.327 L193.224,42.32 L194.225,42.401 L195.256,42.558 L196.306,42.795 L197.371,43.106 L198.44,43.482 L199.501,43.922 L200.548,44.422 L201.574,44.972 L202.564,45.57 L203.513,46.211 L204.415,46.887 L205.255,47.592 L206.037,48.333 L206.386,48.695 L206.724,49.07 L207.04,49.448 L207.336,49.827 L207.607,50.206 L207.854,50.585 L208.078,50.963 L208.274,51.336 L208.444,51.708 L208.589,52.074 L208.705,52.432 L208.794,52.786 L208.857,53.132 L208.891,53.467 L208.898,53.797 L208.88,54.12 L208.833,54.432 L208.753,54.757 L208.643,55.126 L208.547,55.412 L208.473,55.599 L208.436,55.676 L208.423,55.686 L208.808,55.329 L208.808,55.329 L208.807,55.329 L208.807,55.33 L208.806,55.33 L208.805,55.331 L208.804,55.331 L208.803,55.332 L208.801,55.333 L208.799,55.334 L208.797,55.335 L208.795,55.336 L208.793,55.337 L208.791,55.338 L208.788,55.339 L208.785,55.341 L208.809,55.329 L208.864,55.303 L208.926,55.278 L208.997,55.255 L209.076,55.236 L209.163,55.223 L209.256,55.217 L209.354,55.22 L209.455,55.232 L209.556,55.255 L209.653,55.287 L209.744,55.328 L209.827,55.374 L209.901,55.425 L209.965,55.477 L210.02,55.53 L210.044,55.554 L210.042,55.552 L210.04,55.55 L210.038,55.548 L210.037,55.547 L210.035,55.545 L210.034,55.544 L210.033,55.542 L210.032,55.541 L210.031,55.54 L210.03,55.539 L210.03,55.539 L210.029,55.538 L210.029,55.538 L210.029,55.537 L210.029,55.537 L210.295,56.093 L210.292,56.103 L210.296,56.059 L210.313,55.914 L210.348,55.698 L210.406,55.42 L210.483,55.095 L210.582,54.727 L210.704,54.318 L210.848,53.876 L211.015,53.405 L211.207,52.904 L211.423,52.383 L211.663,51.844 L211.93,51.288 L212.221,50.721 L212.539,50.147 L212.885,49.568 L213.257,48.989 L213.656,48.415 L214.085,47.845 L214.541,47.285 L215.024,46.741 L215.54,46.212 L216.082,45.702 L216.653,45.218 L217.258,44.758 L217.891,44.327 L218.554,43.929 L219.253,43.566 L219.983,43.238 L220.745,42.953 L221.548,42.712 L222.386,42.513 L223.26,42.367 L224.18,42.276 L225.14,42.237 L226.141,42.26 L227.213,42.35 L227.735,42.417 L228.288,42.502 L228.855,42.607 L229.433,42.728 L230.022,42.869 L230.616,43.028 L231.148,43.192 L231.616,43.371 L232.041,43.567 L232.424,43.777 L232.76,43.996 L233.061,44.23 L233.329,44.472 L233.558,44.721 L233.762,44.986 L233.942,45.263 L234.094,45.549 L234.225,45.859 L234.336,46.186 L234.423,46.529 L234.489,46.9 L234.534,47.291 L234.557,47.701 L234.556,48.138 L234.532,48.596 L234.484,49.072 L234.409,49.572 L234.31,50.09 L234.192,50.624 L234.056,51.154 L233.697,52.335 L233.248,53.542 L232.697,54.797 L232.067,56.089 L231.347,57.405 L230.55,58.747 L229.691,60.108 L228.769,61.479 L227.796,62.863 L226.777,64.25 L225.718,65.633 L224.618,67.008 L223.489,68.37 L222.333,69.709 L221.158,71.026 L219.969,72.314 L218.771,73.562 L217.568,74.768 L216.368,75.929 L215.177,77.034 L214.001,78.08 L212.845,79.066 L211.72,79.98 L210.617,80.828 L210.099,81.209 L209.581,81.577 L209.075,81.924 L208.582,82.249 L208.106,82.55 L207.645,82.826 L207.2,83.08 L206.778,83.305 L206.375,83.506 L205.994,83.681 L205.642,83.827 L205.317,83.946 L205.021,84.039 L204.768,84.104 L204.549,84.145 L204.373,84.167 L204.257,84.17 L204.184,84.164 L204.162,84.16 L204.2,84.171 L204.259,84.197 L204.33,84.244 L204.406,84.312 L204.353,84.232 C203.576,83.245 202.145,83.076 201.158,83.854 C200.172,84.632 200.002,86.062 200.78,87.049 Z" id="Fill-573"></path>
        </g>
    </g>
</svg>
