<?xml version="1.0" encoding="UTF-8"?>
<svg width="474px" height="273px" viewBox="0 0 474 273" version="1.1" xmlns="http://www.w3.org/2000/svg" xmlns:xlink="http://www.w3.org/1999/xlink">
    <title>112</title>
    <g id="Page-1" stroke="none" stroke-width="1" fill="none" fill-rule="evenodd">
        <g id="112" transform="translate(0.009350, 0.703000)" fill="currentColor">
            <path d="M414.0259,12.448 L414.7292,11.856 L415.3694,11.309 L415.9431,10.81 L416.4582,10.353 L416.911,9.941 L417.3022,9.572 L417.6418,9.238 L417.9317,8.933 L418.1785,8.645 L418.4105,8.322 L418.5551,8.044 L418.7148,7.237 L418.7148,7.236 L418.7147,7.234 L418.7144,7.23 L418.7142,7.225 L418.7138,7.22 L418.7134,7.212 L418.713,7.204 L418.7056,7.113 L418.6752,6.927 L418.6187,6.728 L418.5317,6.524 L418.4138,6.326 L418.269,6.144 L418.1057,5.987 L417.9342,5.861 L417.8446,5.807 L417.838,5.803 L417.8323,5.8 L417.8275,5.797 L417.8237,5.795 L417.8209,5.794 L417.819,5.793 L417.8181,5.792 L416.8702,5.586 L416.5452,5.626 L416.1563,5.739 L415.8135,5.875 L415.4512,6.043 L415.0543,6.244 L414.6163,6.478 L414.1271,6.751 L413.5867,7.063 L412.9983,7.41 L412.3559,7.797 L411.6606,8.222 L410.9169,8.682 L410.1199,9.182 L409.2706,9.719 L408.3738,10.29 L407.4251,10.899 L406.4254,11.544 L405.3796,12.223 L404.2835,12.938 L403.1379,13.688 L401.9478,14.471 L400.709,15.288 L399.4225,16.14 L398.093,17.022 L396.7166,17.938 L395.2942,18.887 L393.8303,19.866 L392.3214,20.876 L390.7681,21.918 L389.1751,22.989 L387.5389,24.09 L386.6993,24.655 L385.8599,25.221 L385.0014,25.8 L384.1429,26.38 L383.2636,26.973 L382.3844,27.567 L381.4847,28.176 L380.5851,28.784 L379.6672,29.405 L378.7493,30.026 L377.8115,30.662 L376.8738,31.297 L375.9166,31.946 L374.9594,32.595 L373.9846,33.256 L373.0099,33.917 L372.0163,34.592 L371.0227,35.266 L370.0104,35.954 L368.9982,36.641 L367.9694,37.34 L366.9406,38.04 L365.8936,38.751 L364.8467,39.463 L363.7822,40.187 L362.7176,40.911 L361.6372,41.646 L360.5568,42.382 L359.4592,43.129 L358.3618,43.876 L357.2474,44.634 L356.1331,45.393 L355.0038,46.162 L353.8745,46.931 L352.7289,47.711 L351.5834,48.492 L350.422,49.283 L349.2606,50.074 L348.085,50.875 L346.9095,51.676 L345.7186,52.488 L344.5276,53.3 L343.3218,54.121 L342.1159,54.943 L340.8966,55.774 L339.6774,56.605 L338.4437,57.446 L337.21,58.287 L335.9623,59.137 L334.7145,59.987 L333.4542,60.846 L332.1939,61.705 L330.9201,62.573 L329.6463,63.441 L328.3593,64.318 L327.0723,65.195 L325.7736,66.079 L324.4749,66.964 L323.1636,67.857 L321.8523,68.75 L320.5287,69.652 L319.2053,70.553 L317.8709,71.462 L316.5366,72.371 L315.1905,73.287 L313.8444,74.203 L312.487,75.128 L311.1296,76.051 L309.762,76.982 L308.3945,77.913 L307.0162,78.85 L305.6379,79.788 L304.2491,80.732 L302.8603,81.677 L301.4623,82.627 L300.0642,83.577 L298.6563,84.534 L297.2484,85.491 L295.8308,86.453 L294.4134,87.416 L292.9834,88.387 L291.5532,89.358 L290.123,90.329 L288.6932,91.299 L287.246,92.281 L285.7986,93.263 L284.3511,94.245 L282.9041,95.227 L281.4409,96.218 L279.9774,97.21 L278.5139,98.202 L277.0507,99.193 L275.574,100.193 L274.0969,101.193 L272.6198,102.193 L271.1431,103.193 L269.6525,104.201 L268.1616,105.209 L266.6707,106.217 L265.1802,107.225 L263.6772,108.24 L262.1738,109.255 L260.6704,110.27 L259.1674,111.285 L257.6541,112.305 L256.1404,113.326 L254.6267,114.347 L253.1139,115.368 L251.5909,116.395 L250.0674,117.421 L248.5439,118.448 L247.0209,119.474 L245.4891,120.505 L243.9567,121.536 L242.4243,122.567 L240.8925,123.598 L239.3536,124.632 L237.8141,125.666 L236.2748,126.7 L234.736,127.734 L233.1906,128.77 L231.6446,129.807 L230.0986,130.843 L228.5532,131.88 L227.0026,132.917 L225.4514,133.956 L223.9001,134.994 L222.3498,136.031 L220.795,137.07 L219.2397,138.111 L217.6846,139.151 L216.1294,140.192 L214.5742,141.232 L213.019,142.272 L211.4638,143.313 L209.91,144.352 L208.3526,145.389 L206.7938,146.427 L205.235,147.466 L203.6761,148.504 L202.1173,149.542 L200.5585,150.58 L198.9996,151.618 L197.4424,152.655 L195.8868,153.686 L194.3295,154.718 L192.7723,155.749 L191.2151,156.781 L189.6579,157.813 L188.1005,158.845 L186.5421,159.874 L184.9852,160.903 L183.434,161.923 L181.8812,162.944 L180.3284,163.965 L178.7756,164.986 L177.2228,166.007 L175.67,167.028 L174.1172,168.049 L172.5663,169.069 L171.0262,170.075 L169.4843,171.082 L167.9423,172.09 L166.4003,173.097 L164.8583,174.105 L163.3163,175.112 L161.7744,176.12 L160.2346,177.126 L158.7108,178.115 L157.1849,179.105 L155.6591,180.095 L154.1331,181.085 L152.6072,182.075 L151.0812,183.065 L149.5552,184.055 L148.0309,185.043 L146.5201,186.018 L145.0078,186.994 L143.4954,187.97 L141.9843,188.946 L140.4847,189.909 L138.9839,190.874 L137.483,191.839 L135.9835,192.802 L134.4968,193.754 L133.0087,194.706 L131.5206,195.658 L130.0339,196.61 L128.5598,197.549 L127.0844,198.489 L125.609,199.429 L124.1351,200.368 L122.6763,201.293 L121.2161,202.219 L119.7562,203.146 L118.2979,204.071 L116.856,204.982 L115.4124,205.893 L113.9689,206.804 L112.5266,207.715 L111.0961,208.615 L109.6653,209.515 L108.2436,210.406 L106.8219,211.298 L105.4096,212.181 L103.9973,213.064 L102.5937,213.9394 L101.1902,214.8146 L99.7968,215.6808 L98.4034,216.547 L97.0203,217.4039 L95.637,218.261 L94.2635,219.1094 L92.89,219.9577 L91.5275,220.7965 L90.1649,221.6351 L88.8136,222.464 L87.4622,223.2928 L86.1215,224.1128 L84.7809,224.9327 L83.4521,225.7424 L82.1234,226.552 L80.8068,227.3509 L79.4901,228.15 L78.1847,228.9392 L76.8794,229.7284 L75.5868,230.5063 L74.2942,231.2844 L73.0146,232.0511 L71.735,232.818 L70.4675,233.5742 L69.2001,234.3304 L67.9464,235.0748 L66.6926,235.8193 L65.4528,236.5517 L64.2128,237.2842 L62.9858,238.0056 L61.759,238.7268 L60.5467,239.4356 L59.3344,240.1444 L58.137,240.8404 L56.9395,241.5366 L55.7556,242.221 L54.572,242.9052 L53.4038,243.5764 L52.2357,244.2475 L51.0834,244.9052 L49.9309,245.5631 L48.793,246.2086 L47.6553,246.8539 L46.5339,247.4853 L45.4127,248.1168 L44.308,248.7341 L43.2032,249.3515 L42.1139,249.9559 L41.0248,250.5602 L39.9529,251.1498 L38.8811,251.7395 L37.8268,252.3143 L36.7725,252.8893 L35.7343,253.4505 L34.6965,254.0116 L33.6768,254.5575 L32.6572,255.1032 L31.6561,255.6335 L30.6548,256.1639 L29.6705,256.68 L28.6866,257.196 L27.7219,257.6959 L26.7572,258.1958 L25.812,258.6795 L24.8665,259.1633 L23.9389,259.6322 L23.0118,260.1008 L22.1047,260.5528 L21.199,261.0041 L19.4242,261.875 L17.6885,262.7137 L15.9951,263.5169 L14.3443,264.2849 L12.7331,265.0204 L11.1667,265.7192 L9.6447,266.3816 L8.1644,267.01 L6.7311,267.6004 L5.341,268.1543 L4.7375,268.3874 L4.1853,268.5931 L3.686,268.7712 L3.236,268.9239 L2.8421,269.0486 L2.503,269.1465 L2.2181,269.2196 L2.0008,269.2657 L1.8541,269.2879 L1.7947,269.2933 L1.8747,269.3004 L2.1302,269.3763 L2.557,269.6938 L2.8601,270.326 L2.8532,270.7903 L2.7846,270.9925 L2.7599,271.0382 L2.8018,270.9839 L2.8964,270.875 L3.0391,270.7275 L3.2295,270.5459 L3.4586,270.3392 L3.7259,270.1095 L4.0316,269.8569 L4.3698,269.5857 L4.7416,269.2958 L5.1469,268.9872 L5.581,268.6627 L6.0453,268.3216 L6.5396,267.9643 L7.0599,267.5929 L7.6076,267.2068 L8.1823,266.806 L8.7805,266.3927 L9.4034,265.966 L10.0507,265.5263 L10.719,265.0754 L11.4096,264.6128 L12.1218,264.1384 L12.8529,263.6542 L13.6037,263.1594 L14.3724,262.6552 L15.9623,261.619 L17.6177,260.5481 L18.4741,259.9978 L19.3314,259.4469 L20.2126,258.8838 L21.0941,258.3205 L21.9987,257.7455 L22.9034,257.1703 L23.8278,256.5849 L24.7524,255.9995 L25.6921,255.4065 L26.6318,254.8135 L27.585,254.2136 L28.5383,253.6137 L29.5015,253.0093 L30.4647,252.4046 L31.4358,251.7966 L32.4077,251.1881 L33.3795,250.5797 L34.3506,249.9715 L35.3231,249.3641 L36.2961,248.7563 L37.2691,248.1484 L38.2421,247.5406 L39.202,246.9411 L40.1622,246.3417 L41.1223,245.7422 L42.0826,245.1424 L43.027,244.5523 L43.9714,243.9621 L44.9002,243.3812 L45.8291,242.8001 L46.7387,242.2302 L47.6484,241.6603 L48.5378,241.1019 L49.4273,240.5434 L50.2914,239.9995 L51.1561,239.4553 L52.8265,238.4001 L54.4395,237.3777 L55.9828,236.3945 L57.4484,235.4552 L58.1546,235.0002 L58.8386,234.5576 L59.5001,234.1277 L60.1407,233.7092 L60.7576,233.3041 L61.3502,232.9122 L62.6563,232.0437 L63.9614,231.1759 L65.2664,230.3081 L66.5715,229.4402 L67.8765,228.5724 L69.1816,227.7044 L70.4866,226.8366 L71.7928,225.968 L73.0975,225.0968 L74.4009,224.2263 L75.7045,223.3558 L77.0079,222.4852 L78.3114,221.6147 L79.6149,220.7442 L80.9184,219.8738 L82.2223,219.0029 L83.5257,218.1311 L84.8286,217.2596 L86.1315,216.388 L87.4344,215.5165 L88.7374,214.645 L90.0403,213.7734 L91.3433,212.902 L92.6461,212.03 L93.9491,211.16 L95.2523,210.288 L96.5555,209.417 L97.8588,208.546 L99.162,207.675 L100.4652,206.804 L101.7684,205.933 L103.0709,205.062 L104.3745,204.193 L105.6789,203.324 L106.9833,202.454 L108.2878,201.585 L109.5922,200.716 L110.8966,199.846 L112.2011,198.977 L113.5039,198.109 L114.809,197.244 L116.1157,196.378 L117.4223,195.512 L118.7289,194.646 L120.0355,193.78 L121.342,192.914 L122.6485,192.048 L123.9529,191.183 L125.2603,190.323 L126.5695,189.461 L127.8787,188.599 L129.188,187.738 L130.4973,186.876 L131.8065,186.014 L133.1157,185.152 L134.4222,184.292 L135.7326,183.439 L137.0458,182.583 L138.3591,181.728 L139.6723,180.873 L140.9855,180.017 L142.2987,179.162 L143.6119,178.306 L144.9216,177.453 L146.2363,176.608 L147.5545,175.76 L148.8727,174.913 L150.1909,174.065 L151.5091,173.218 L152.8273,172.37 L154.1454,171.523 L155.4596,170.677 L156.7791,169.84 L158.1023,169.001 L159.4255,168.161 L160.7488,167.322 L162.072,166.482 L163.3953,165.643 L164.7185,164.804 L166.037,163.967 L167.3622,163.142 L168.6922,162.313 L170.0222,161.484 L171.3522,160.656 L172.6822,159.827 L174.0121,158.998 L175.3422,158.17 L176.6666,157.344 L177.9989,156.532 L179.3366,155.715 L180.6744,154.899 L182.0121,154.083 L183.3498,153.267 L184.6876,152.45 L186.0253,151.634 L187.3604,150.82 L188.5878,150.078 L189.8179,149.335 L191.0305,148.603 L192.2431,147.871 L193.4385,147.15 L194.634,146.428 L195.8139,145.717 L196.9938,145.005 L198.1568,144.305 L199.3198,143.604 L200.4661,142.913 L201.6124,142.223 L202.7438,141.542 L203.8751,140.861 L204.9901,140.191 L206.105,139.52 L207.2038,138.86 L208.3026,138.199 L209.3869,137.548 L210.4711,136.897 L211.5396,136.256 L212.6081,135.615 L213.661,134.983 L214.7138,134.352 L215.7526,133.73 L216.7914,133.107 L217.815,132.495 L218.8385,131.882 L219.847,131.279 L220.8555,130.676 L221.8505,130.081 L222.8453,129.487 L223.8255,128.902 L224.8056,128.316 L225.7712,127.74 L226.7369,127.165 L227.6895,126.597 L228.642,126.029 L229.5804,125.471 L230.5188,124.912 L231.4432,124.363 L232.3676,123.813 L233.2795,123.271 L234.1913,122.73 L235.0895,122.197 L235.9877,121.664 L236.8724,121.14 L237.7571,120.616 L238.6298,120.1 L239.5024,119.583 L241.2216,118.567 L242.9149,117.568 L244.5851,116.584 L246.2301,115.616 L247.8504,114.664 L249.4485,113.726 L251.0225,112.804 L252.5729,111.897 L254.1022,111.004 L255.6084,110.126 L257.0921,109.263 L258.5557,108.413 L259.9973,107.578 L261.4175,106.757 L262.8185,105.948 L264.1986,105.153 L265.5584,104.372 L266.8998,103.603 L268.2215,102.846 L269.5239,102.103 L270.8091,101.371 L272.0755,100.652 L273.3235,99.945 L274.5478,99.254 L275.7717,98.563 L276.9611,97.895 L278.1506,97.228 L279.3071,96.583 L280.4638,95.937 L281.5919,95.312 L282.7198,94.686 L283.8176,94.081 L284.9154,93.477 L285.9847,92.891 L287.0541,92.306 L288.0988,91.739 L289.1433,91.171 L290.162,90.621 L291.1808,90.072 L292.1755,89.54 L293.1704,89.008 L294.1445,88.491 L295.1185,87.974 L296.071,87.473 L297.0234,86.972 L297.9561,86.486 L298.8889,85.999 L299.8048,85.526 L300.7206,85.052 L301.6193,84.591 L302.5172,84.131 L304.2844,83.234 L306.0251,82.358 L307.7402,81.504 L309.4331,80.669 L311.1082,79.85 L312.7663,79.047 L314.411,78.259 L316.0458,77.482 L317.6725,76.716 L319.2936,75.96 L320.9147,75.213 L322.535,74.466 L324.1617,73.729 L325.789,72.991 L327.4354,72.255 L329.0825,71.519 L330.7571,70.778 L332.4319,70.038 L334.1478,69.287 L335.8644,68.535 L337.6346,67.765 L339.4056,66.994 L341.2194,66.208 L342.1438,65.808 L343.0685,65.407 L344.0123,64.999 L344.9562,64.591 L345.9188,64.175 L346.8815,63.759 L347.8661,63.333 L348.8508,62.907 L349.8589,62.471 L350.8671,62.035 L351.8979,61.588 L352.9288,61.142 L353.986,60.683 L355.0432,60.225 L356.1282,59.753 L357.2133,59.282 L358.3248,58.798 L359.4365,58.314 L360.5787,57.815 L361.7209,57.317 L362.8954,56.803 L364.0698,56.289 L365.2747,55.76 L366.4797,55.232 L367.7197,54.686 L368.9597,54.14 L370.2361,53.577 L371.5125,53.013 L372.8232,52.432 L374.1341,51.851 L375.4842,51.251 L376.8344,50.651 L378.2252,50.03 L379.6159,49.409 L381.0356,48.774 L382.4765,48.128 L383.9393,47.471 L385.4222,46.803 L386.9277,46.124 L388.456,45.434 L390.0054,44.733 L391.5786,44.019 L393.1756,43.293 L394.7948,42.556 L396.4387,41.806 L398.1076,41.043 L399.7996,40.268 L401.5175,39.48 L403.2614,38.678 L405.0294,37.864 L406.824,37.036 L407.7352,36.614 L408.6462,36.193 L409.5698,35.765 L410.4934,35.338 L411.4309,34.902 L412.3685,34.467 L413.3202,34.025 L414.2719,33.582 L415.2365,33.133 L416.2012,32.683 L417.1805,32.226 L418.1597,31.769 L419.1536,31.305 L420.1475,30.84 L421.1549,30.368 L422.1624,29.896 L423.1848,29.416 L424.2073,28.936 L425.2451,28.449 L426.2827,27.961 L427.3344,27.465 L428.3862,26.97 L429.4535,26.467 L430.5208,25.963 L431.6039,25.451 L432.6869,24.939 L433.7845,24.42 L434.8821,23.9 L435.9958,23.372 L437.1095,22.844 L438.2394,22.307 L439.3694,21.77 L440.5143,21.225 L441.6594,20.68 L442.821,20.127 L443.9826,19.573 L445.1611,19.01 L446.3421,18.446 L446.929,18.16 L447.5561,17.844 L448.2172,17.5 L448.9078,17.133 L449.6292,16.742 L450.3779,16.329 L451.1495,15.897 L451.9442,15.447 L452.7585,14.98 L453.5887,14.499 L454.434,14.005 L455.2918,13.499 L456.1599,12.983 L457.0287,12.465 L457.9066,11.936 L458.7839,11.407 L459.6585,10.874 L460.5326,10.341 L461.3947,9.811 L462.2572,9.281 L463.933,8.243 L465.5372,7.242 L466.3099,6.757 L467.0563,6.288 L467.774,5.836 L468.4634,5.4 L469.119,4.984 L469.7377,4.591 L470.3206,4.22 L470.8615,3.875 L471.3575,3.557 L471.8102,3.267 L472.2129,3.007 L472.5626,2.782 L472.8618,2.588 L473.1034,2.431 L473.2849,2.312 L473.4076,2.231 L473.4245,2.219 L473.4247,2.219 L473.4252,2.219 L473.4258,2.218 L473.4266,2.218 L473.4276,2.217 L473.4289,2.216 L473.4304,2.215 L473.432,2.214 L473.4338,2.213 L473.436,2.211 L473.4382,2.21 L473.4407,2.208 L473.4434,2.206 L473.4464,2.204 L473.4495,2.202 L473.454,2.199 L473.4598,2.195 L473.4659,2.191 L473.4725,2.186 L473.4797,2.181 L473.4882,2.175 L473.4984,2.167 L473.5117,2.158 L473.5305,2.143 L473.5602,2.119 L473.6161,2.07 L473.7585,1.91 L473.7518,0.448 L472.5046,0 L472.3165,0.061 L472.2516,0.091 L472.2323,0.1 L472.2313,0.101 L472.2304,0.101 L472.2296,0.102 L472.2288,0.102 L472.2282,0.102 L472.2275,0.103 L472.2269,0.103 L472.2264,0.103 L472.226,0.103 L472.2256,0.104 L472.2253,0.104 L472.225,0.104 L472.2248,0.104 L472.2247,0.104 L472.2246,0.104 L472.1355,0.154 L472.0468,0.209 L471.8843,0.312 L471.6476,0.462 L471.5016,0.556 L471.3359,0.662 L471.1497,0.782 L470.9442,0.914 L470.7174,1.06 L470.4716,1.218 L469.5698,1.796 L468.6672,2.374 L467.7646,2.951 L466.8621,3.529 L465.9595,4.107 L465.0569,4.685 L464.1544,5.263 L463.2555,5.838 L462.3533,6.407 L461.4474,6.978 L460.5416,7.549 L459.6357,8.12 L458.7298,8.691 L457.8239,9.261 L456.918,9.832 L456.0156,10.401 L455.11,10.963 L454.2011,11.528 L453.2921,12.092 L452.3831,12.656 L451.4741,13.221 L450.5651,13.785 L449.6561,14.349 L448.75,14.912 L447.8413,15.468 L446.9296,16.027 L446.0179,16.586 L445.1063,17.145 L444.1946,17.703 L443.2828,18.262 L442.3712,18.82 L441.4626,19.377 L440.5512,19.928 L439.6368,20.481 L438.7224,21.034 L437.8079,21.587 L436.8936,22.14 L435.9791,22.692 L435.0647,23.245 L434.1532,23.797 L433.2391,24.342 L432.3221,24.89 L431.4051,25.437 L430.4881,25.984 L429.5711,26.532 L428.6541,27.079 L427.7371,27.627 L426.8225,28.173 L425.9058,28.714 L424.9866,29.257 L424.0674,29.8 L423.1481,30.342 L422.2289,30.885 L421.3098,31.428 L420.3906,31.971 L419.4738,32.512 L418.5549,33.048 L417.6334,33.586 L416.712,34.124 L415.7905,34.662 L414.8691,35.2 L413.9476,35.738 L413.0261,36.276 L412.107,36.813 L411.1857,37.345 L410.2622,37.879 L409.3387,38.412 L408.4152,38.946 L407.4916,39.48 L406.5681,40.013 L405.6446,40.547 L404.723,41.079 L403.7997,41.608 L402.8745,42.138 L401.9492,42.668 L401.024,43.198 L400.0988,43.728 L399.1735,44.258 L398.2482,44.788 L397.325,45.317 L396.3999,45.842 L395.473,46.368 L394.546,46.894 L393.619,47.421 L392.6921,47.947 L391.7651,48.473 L390.8381,48.999 L389.9129,49.525 L388.9861,50.047 L388.0576,50.57 L387.1291,51.093 L386.2006,51.616 L385.2722,52.139 L384.3436,52.662 L383.4152,53.185 L382.488,53.707 L381.5597,54.227 L380.63,54.747 L379.7003,55.267 L378.7705,55.788 L377.8408,56.308 L376.9111,56.828 L375.9814,57.348 L375.053,57.868 L374.1234,58.385 L373.1925,58.903 L372.2615,59.421 L371.3306,59.938 L370.3997,60.456 L369.4686,60.973 L368.5376,61.491 L367.6077,62.008 L366.6768,62.523 L365.7448,63.038 L364.8127,63.553 L363.8807,64.069 L362.9487,64.584 L362.0167,65.1 L361.0847,65.615 L360.1535,66.13 L359.2216,66.643 L358.2888,67.157 L357.356,67.671 L356.4233,68.184 L355.4905,68.698 L354.5577,69.212 L353.6249,69.725 L352.6929,70.239 L351.7603,70.75 L350.8268,71.263 L349.8934,71.775 L348.96,72.287 L348.0266,72.799 L347.0931,73.311 L346.1597,73.824 L345.2268,74.336 L344.2935,74.847 L343.3596,75.358 L342.4257,75.869 L341.4918,76.38 L340.5579,76.891 L339.624,77.402 L338.6901,77.913 L337.7567,78.424 L336.8229,78.934 L335.8886,79.445 L334.9543,79.955 L334.02,80.465 L333.0857,80.975 L332.1514,81.485 L331.217,81.995 L330.2828,82.505 L329.3485,83.015 L328.4141,83.526 L327.4798,84.036 L326.5455,84.546 L325.6112,85.056 L324.6769,85.566 L323.7426,86.076 L322.8083,86.586 L321.874,87.096 L320.9398,87.606 L320.0056,88.117 L319.0714,88.627 L318.1371,89.137 L317.2029,89.647 L316.2687,90.157 L315.3345,90.667 L314.4003,91.177 L313.4661,91.687 L312.5319,92.197 L311.5977,92.707 L310.6634,93.217 L309.7292,93.727 L308.795,94.237 L307.8599,94.748 L306.9258,95.26 L305.9924,95.771 L305.0591,96.283 L304.1257,96.795 L303.1924,97.306 L302.259,97.818 L301.3257,98.329 L300.3923,98.841 L299.4589,99.353 L298.5255,99.864 L297.592,100.375 L296.6586,100.887 L295.7252,101.398 L294.7918,101.91 L293.8584,102.421 L292.9236,102.934 L291.9902,103.449 L291.0582,103.963 L290.1262,104.477 L289.1942,104.991 L288.2621,105.505 L287.3301,106.019 L286.3981,106.534 L285.4661,107.048 L284.5341,107.562 L283.6021,108.076 L282.6701,108.59 L281.7381,109.104 L280.8061,109.619 L279.8741,110.133 L278.942,110.647 L278.0078,111.162 L277.0757,111.682 L276.146,112.2 L275.2162,112.719 L274.2864,113.237 L273.3566,113.756 L272.4268,114.274 L271.497,114.793 L270.5673,115.311 L269.6375,115.83 L268.7077,116.348 L267.7779,116.867 L266.8481,117.385 L265.9183,117.904 L264.9885,118.422 L264.0588,118.941 L263.1259,119.461 L262.1961,119.987 L261.2693,120.512 L260.3425,121.036 L259.4157,121.561 L258.489,122.085 L257.5621,122.609 L256.6354,123.134 L255.7086,123.658 L254.7818,124.183 L253.855,124.707 L252.9282,125.232 L252.0015,125.756 L251.0746,126.281 L250.1479,126.805 L249.2211,127.329 L248.2919,127.855 L247.365,128.386 L246.4407,128.915 L245.5163,129.445 L244.592,129.974 L243.6676,130.503 L242.7433,131.032 L241.8189,131.562 L240.8925,132.092 L239.9681,132.627 L239.0458,133.16 L238.1234,133.693 L237.2011,134.227 L236.2787,134.76 L235.3564,135.293 L234.4341,135.827 L233.5095,136.361 L232.5871,136.9 L231.6669,137.438 L230.7468,137.976 L229.8268,138.514 L228.9067,139.051 L227.9866,139.589 L227.0666,140.127 L226.1443,140.666 L225.2242,141.21 L224.3063,141.752 L223.3884,142.294 L222.4706,142.836 L221.5527,143.379 L220.6348,143.921 L219.7169,144.463 L218.7964,145.007 L217.8785,145.556 L216.9631,146.103 L216.0477,146.65 L215.1324,147.198 L214.217,147.745 L213.3016,148.292 L212.3863,148.84 L211.4681,149.389 L210.5528,149.943 L209.6401,150.496 L208.7275,151.049 L207.8149,151.602 L206.9023,152.154 L205.9896,152.707 L205.077,153.26 L204.1617,153.814 L203.2491,154.374 L202.3391,154.932 L201.4291,155.491 L200.5192,156.049 L199.6091,156.607 L198.6992,157.165 L197.7892,157.723 L196.8761,158.283 L195.9662,158.85 L195.0594,159.414 L194.1526,159.979 L193.2459,160.543 L192.3391,161.108 L191.4323,161.673 L190.5255,162.237 L189.6154,162.804 L188.7087,163.377 L187.8051,163.948 L186.9016,164.519 L185.998,165.091 L185.0945,165.662 L184.191,166.233 L183.2875,166.804 L182.3809,167.377 L181.4774,167.957 L180.577,168.534 L179.6766,169.112 L178.7762,169.689 L177.8758,170.267 L176.9753,170.844 L176.075,171.422 L175.1711,172.002 L174.2708,172.589 L173.374,173.174 L172.4772,173.758 L171.5804,174.343 L170.6835,174.928 L169.7867,175.513 L168.89,176.098 L167.9895,176.685 L167.0928,177.28 L166.1999,177.872 L165.3069,178.465 L164.4139,179.058 L163.5209,179.65 L162.6279,180.243 L161.7349,180.835 L160.8386,181.43 L159.9459,182.033 L159.0565,182.633 L158.1672,183.233 L157.2779,183.832 L156.3886,184.432 L155.4993,185.033 L154.6099,185.633 L153.7167,186.235 L152.8276,186.846 L151.9425,187.455 L151.0573,188.063 L150.1721,188.671 L149.2869,189.28 L148.4018,189.888 L147.5166,190.497 L146.6274,191.108 L145.7426,191.728 L144.8617,192.345 L143.9808,192.962 L143.1,193.579 L142.2192,194.197 L141.3383,194.814 L140.4575,195.431 L139.5729,196.051 L138.6924,196.679 L137.8156,197.305 L136.9389,197.93 L136.0621,198.556 L135.1854,199.181 L134.3087,199.807 L133.4319,200.432 L132.5509,201.061 L131.6746,201.699 L130.8026,202.334 L129.9305,202.969 L129.0584,203.604 L128.1863,204.239 L127.3143,204.874 L126.4423,205.509 L125.5659,206.148 L124.6943,206.796 L123.8271,207.441 L122.96,208.086 L122.0928,208.731 L121.2256,209.376 L120.3584,210.021 L119.4912,210.666 L118.6245,211.311 L117.9679,211.798 L117.2889,212.289 L116.5833,212.788 L115.8546,213.294 L115.1018,213.806 L114.3282,214.3232 L112.7094,215.3822 L111.8635,215.9204 L111.0149,216.4604 L110.1294,217.011 L109.2429,217.5622 L108.3261,218.1223 L107.4089,218.6826 L106.4617,219.2519 L105.5139,219.8218 L104.5399,220.3998 L103.5651,220.9781 L102.5696,221.5635 L101.5739,222.1489 L100.5587,222.7412 L99.543,223.3337 L98.5117,223.9322 L97.4799,224.531 L96.437,225.1346 L95.3937,225.7384 L94.3416,226.3467 L93.2891,226.9553 L92.2314,227.5676 L91.1735,228.1802 L90.1141,228.7955 L89.0542,229.411 L87.996,230.0289 L86.9374,230.6469 L85.8843,231.2666 L84.83,231.8871 L83.7892,232.5082 L82.7512,233.1277 L81.7132,233.7472 L80.6697,234.37 L79.6573,234.9917 L78.6506,235.61 L77.6439,236.2281 L76.6295,236.8512 L75.6614,237.4699 L74.7014,238.0836 L73.7413,238.6974 L72.7746,239.3153 L71.8472,239.9287 L70.921,240.5416 L70.028,241.1501 L69.1342,241.7593 L68.2775,242.3634 L67.4208,242.9676 L66.6009,243.5666 L65.7765,244.169 L64.2229,245.3558 L62.7655,246.5276 L62.0625,247.1153 L61.3896,247.696 L60.7438,248.273 L60.1228,248.847 L59.5292,249.4184 L58.9653,249.9857 L58.4284,250.5501 L57.9212,251.1125 L57.4464,251.6708 L57.0009,252.2268 L56.5876,252.7817 L56.2095,253.3332 L55.8635,253.8834 L55.5528,254.4344 L55.2811,254.9828 L55.0451,255.5315 L54.8492,256.0835 L54.6978,256.633 L54.5881,257.1836 L54.5262,257.7381 L54.5156,258.287 L54.5541,258.833 L54.6483,259.3774 L54.7979,259.9074 L54.999,260.4258 L55.2574,260.9326 L55.5679,261.4181 L55.9266,261.886 L56.3393,262.338 L56.8002,262.7688 L57.3066,263.1827 L57.8658,263.5814 L58.4735,263.9623 L59.1276,264.3288 L59.8359,264.6816 L60.6002,265.0213 L61.4988,265.3746 L62.4417,265.6893 L63.4191,265.9627 L64.4294,266.1998 L65.4774,266.398 L66.559,266.5576 L67.6721,266.6828 L68.8217,266.7708 L70.004,266.8224 L71.2172,266.841 L72.4655,266.8242 L73.746,266.7724 L75.0566,266.6893 L76.4012,266.572 L77.7775,266.4211 L79.183,266.2402 L80.6213,266.0263 L82.0906,265.7804 L83.5883,265.5051 L85.1177,265.1982 L86.677,264.8601 L88.2639,264.494 L89.8813,264.0971 L91.5278,263.6703 L93.2007,263.2163 L94.9031,262.7328 L96.6335,262.2203 L98.3894,261.6816 L100.1735,261.1145 L101.9844,260.5194 L103.8199,259.8991 L105.6824,259.2513 L107.5694,258.5771 L108.5263,258.2274 L109.4822,257.8779 L110.451,257.5152 L111.4197,257.1526 L112.4009,256.777 L113.3817,256.4015 L114.3738,256.0143 L115.3662,255.6271 L116.3707,255.2271 L117.3751,254.8272 L118.3915,254.415 L119.4076,254.0028 L120.4343,253.5794 L121.4613,253.156 L122.4999,252.7204 L123.5383,252.2849 L124.5882,251.8374 L125.6377,251.39 L126.6974,250.9319 L127.7573,250.4736 L128.8281,250.0038 L129.8988,249.534 L130.9803,249.0527 L132.0615,248.5716 L133.1523,248.0802 L134.2432,247.5887 L135.3445,247.0862 L136.4457,246.5836 L137.5571,246.0702 L138.6682,245.5567 L139.7884,245.0335 L140.9086,244.5104 L142.0386,243.9765 L143.1686,243.4427 L144.308,242.8985 L145.4473,242.3545 L146.595,241.801 L147.7427,241.2475 L148.8997,240.6841 L150.0565,240.1205 L151.2223,239.5471 L152.3879,238.9737 L153.5613,238.3915 L154.7343,237.8081 L155.9157,237.2152 L157.0971,236.6223 L158.2868,236.02 L159.4763,235.4177 L160.6731,234.8071 L161.87,234.1965 L163.0747,233.5769 L164.2794,232.9571 L165.4918,232.3286 L166.7046,231.6998 L167.9274,231.0593 L169.1484,230.4198 L170.3694,229.7801 L171.593,229.1391 L172.8305,228.4815 L174.0656,227.8252 L175.3007,227.1689 L176.5381,226.5113 L177.7888,225.8377 L179.037,225.1654 L180.2852,224.4931 L181.5355,223.8198 L182.797,223.1324 L184.0565,222.4463 L185.316,221.76 L186.5776,221.0726 L187.8507,220.3706 L189.1218,219.6697 L190.3926,218.9685 L191.6655,218.2661 L192.9489,217.5499 L194.2305,216.8347 L195.512,216.1196 L196.7952,215.4035 L198.0873,214.6754 L199.3779,213.9482 L200.6683,213.221 L201.9606,212.493 L203.2619,211.752 L204.5615,211.012 L205.861,210.273 L207.1622,209.532 L208.4716,208.779 L209.7794,208.028 L211.0871,207.276 L212.3962,206.524 L213.7121,205.761 L215.0266,205 L216.3409,204.238 L217.6569,203.475 L218.9794,202.702 L220.3004,201.93 L221.6213,201.158 L222.9438,200.385 L224.2721,199.602 L225.5993,198.821 L226.9266,198.041 L228.2551,197.259 L229.588,196.469 L230.9197,195.68 L232.2513,194.89 L233.5844,194.1 L234.9214,193.302 L236.2571,192.504 L237.593,191.707 L238.9299,190.909 L240.2701,190.103 L241.6091,189.297 L242.948,188.492 L244.288,187.686 L245.6302,186.874 L246.9713,186.062 L248.3124,185.25 L249.6547,184.438 L250.9985,183.62 L252.3412,182.802 L253.6839,181.984 L255.0276,181.165 L256.3721,180.341 L257.7155,179.517 L259.059,178.694 L260.4039,177.87 L261.7484,177.039 L263.0914,176.21 L264.4345,175.38 L265.7776,174.55 L267.1207,173.721 L268.4638,172.891 L269.8069,172.061 L271.1518,171.231 L272.4933,170.393 L273.833,169.556 L275.1727,168.719 L276.5123,167.882 L277.852,167.045 L279.1917,166.208 L280.5314,165.371 L281.8727,164.534 L283.207,163.692 L284.5396,162.85 L285.8723,162.009 L287.2049,161.168 L288.5375,160.327 L289.8701,159.486 L291.2027,158.645 L292.5368,157.803 L293.8616,156.96 L295.1851,156.118 L296.5085,155.276 L297.8319,154.433 L299.1553,153.591 L300.4788,152.749 L301.8022,151.907 L303.1271,151.063 L304.4385,150.221 L305.7485,149.38 L307.0585,148.539 L308.3685,147.698 L309.6785,146.857 L310.9885,146.016 L312.2985,145.174 L313.6099,144.332 L314.9042,143.494 L316.1971,142.657 L317.4901,141.82 L318.783,140.983 L320.0759,140.146 L321.3689,139.309 L322.6619,138.472 L323.9556,137.635 L325.236,136.801 L326.5156,135.969 L327.7951,135.136 L329.0753,134.303 L330.3445,133.474 L331.6132,132.646 L332.8818,131.817 L334.1511,130.988 L335.4085,130.164 L336.6653,129.34 L337.9222,128.517 L339.1795,127.693 L340.4254,126.874 L341.6707,126.055 L342.9161,125.236 L344.162,124.417 L345.3945,123.604 L346.6264,122.791 L347.8583,121.978 L349.0908,121.166 L350.309,120.359 L351.5266,119.554 L352.7442,118.748 L353.9623,117.942 L355.1666,117.142 L356.3705,116.343 L357.5743,115.545 L358.7787,114.745 L359.9672,113.954 L361.1553,113.164 L362.3433,112.373 L363.5319,111.582 L364.7036,110.8 L365.8748,110.019 L367.046,109.237 L368.2177,108.455 L369.3733,107.682 L370.5286,106.909 L371.6838,106.136 L372.8394,105.363 L373.9766,104.6 L375.1135,103.837 L376.2502,103.075 L377.3875,102.312 L378.5053,101.56 L379.6228,100.808 L380.7403,100.056 L381.8581,99.305 L382.9576,98.563 L384.0568,97.822 L385.156,97.081 L386.2556,96.34 L387.3342,95.611 L388.4125,94.882 L389.4907,94.154 L390.5694,93.425 L391.6262,92.709 L392.6826,91.993 L393.739,91.278 L394.7957,90.562 L395.837,89.856 L396.8783,89.149 L397.9081,88.45 L398.9378,87.751 L399.9558,87.059 L400.9738,86.366 L401.981,85.681 L402.9881,84.996 L403.9832,84.318 L404.9782,83.64 L405.9608,82.97 L406.9434,82.3 L407.9146,81.637 L408.8859,80.974 L409.8443,80.319 L410.8028,79.665 L411.7482,79.018 L412.6937,78.372 L413.6271,77.733 L414.5606,77.094 L415.4807,76.464 L416.4008,75.834 L417.3073,75.212 L418.2137,74.591 L419.1076,73.978 L420.0015,73.364 L420.8814,72.76 L421.7613,72.156 L422.6269,71.561 L423.4926,70.966 L424.345,70.38 L425.1976,69.794 L426.0355,69.217 L426.8734,68.64 L428.5193,67.507 L430.1379,66.391 L431.726,65.296 L433.283,64.222 L434.8116,63.167 L436.3084,62.133 L437.7729,61.121 L439.2077,60.129 L440.6095,59.159 L441.9778,58.212 L443.3153,57.286 L444.6185,56.384 L445.887,55.505 L447.1235,54.648 L448.3245,53.816 L449.4894,53.009 L450.6213,52.224 L451.7164,51.465 L452.7742,50.732 L453.7978,50.023 L454.7833,49.34 L455.7303,48.685 L456.6419,48.054 L457.5142,47.45 L458.3468,46.875 C458.7258,46.613 458.8207,46.094 458.5588,45.715 C458.2969,45.336 457.7773,45.241 457.3984,45.503 L456.5654,46.078 L455.6926,46.682 L454.7806,47.313 L453.8333,47.969 L452.8475,48.651 L451.8238,49.361 L450.7658,50.094 L449.6707,50.853 L448.5388,51.637 L447.3738,52.444 L446.1729,53.276 L444.9365,54.133 L443.6681,55.011 L442.3651,55.914 L441.0277,56.839 L439.6596,57.786 L438.258,58.755 L436.8234,59.747 L435.3591,60.759 L433.8627,61.793 L432.3344,62.848 L430.7776,63.921 L429.1899,65.016 L427.5717,66.131 L425.926,67.264 L425.0884,67.841 L424.2507,68.417 L423.3984,69.003 L422.5461,69.589 L421.6807,70.184 L420.8152,70.779 L419.9355,71.382 L419.0559,71.986 L418.1622,72.599 L417.2686,73.212 L416.3623,73.834 L415.4561,74.455 L414.5363,75.085 L413.6164,75.715 L412.6832,76.353 L411.7499,76.992 L410.8047,77.638 L409.8595,78.285 L408.9013,78.939 L407.9431,79.594 L406.9722,80.256 L406.0012,80.919 L405.0189,81.588 L404.0364,82.258 L403.0417,82.936 L402.047,83.613 L401.0402,84.298 L400.0333,84.983 L399.0156,85.675 L397.9979,86.367 L396.9684,87.066 L395.939,87.765 L394.898,88.471 L393.8571,89.177 L392.8009,89.893 L391.7444,90.608 L390.6879,91.324 L389.6318,92.039 L388.5539,92.767 L387.4756,93.496 L386.3973,94.225 L385.3194,94.953 L384.2206,95.694 L383.1213,96.435 L382.0221,97.175 L380.9233,97.916 L379.8061,98.667 L378.6886,99.419 L377.5711,100.171 L376.454,100.922 L375.3176,101.684 L374.1807,102.447 L373.0439,103.209 L371.9075,103.972 L370.7526,104.744 L369.5974,105.517 L368.4421,106.29 L367.2872,107.062 L366.1164,107.844 L364.9451,108.625 L363.7738,109.407 L362.603,110.188 L361.4153,110.978 L360.2272,111.769 L359.0391,112.559 L357.8514,113.35 L356.6478,114.148 L355.4437,114.946 L354.2395,115.745 L353.0358,116.543 L351.8184,117.348 L350.6005,118.154 L349.3826,118.959 L348.1653,119.764 L346.9336,120.576 L345.7014,121.388 L344.4692,122.201 L343.2375,123.013 L341.9924,123.831 L340.7468,124.649 L339.5012,125.467 L338.256,126.285 L336.9994,127.108 L335.7423,127.932 L334.4852,128.755 L333.2287,129.578 L331.9603,130.406 L330.6914,131.234 L329.4225,132.062 L328.1541,132.89 L326.8749,133.722 L325.595,134.554 L324.3152,135.386 L323.0361,136.217 L321.7436,137.053 L320.4502,137.889 L319.1568,138.726 L317.8634,139.562 L316.57,140.399 L315.2767,141.235 L313.9833,142.071 L312.6912,142.907 L311.3821,143.746 L310.0717,144.587 L308.7612,145.427 L307.4508,146.268 L306.1403,147.108 L304.8299,147.949 L303.5195,148.789 L302.2104,149.629 L300.8881,150.469 L299.5642,151.311 L298.2403,152.153 L296.9164,152.994 L295.5926,153.836 L294.2687,154.677 L292.9449,155.519 L291.6224,156.36 L290.2906,157.199 L288.9573,158.039 L287.6241,158.879 L286.2908,159.719 L284.9575,160.559 L283.6242,161.399 L282.291,162.239 L280.9594,163.078 L279.6207,163.912 L278.2804,164.748 L276.9401,165.584 L275.5997,166.42 L274.2594,167.256 L272.9191,168.091 L271.5787,168.927 L270.2403,169.762 L268.8984,170.589 L267.5546,171.418 L266.2109,172.247 L264.8672,173.075 L263.5234,173.904 L262.1797,174.732 L260.8359,175.561 L259.4935,176.389 L258.1507,177.21 L256.8064,178.032 L255.4619,178.854 L254.1185,179.675 L252.7758,180.491 L251.4321,181.307 L250.0883,182.123 L248.7457,182.939 L247.4046,183.748 L246.0624,184.558 L244.7203,185.368 L243.3792,186.177 L242.0402,186.98 L240.7002,187.784 L239.3602,188.588 L238.0214,189.39 L236.6859,190.186 L235.349,190.981 L234.0122,191.777 L232.6767,192.572 L231.3452,193.359 L230.0125,194.147 L228.6798,194.934 L227.3483,195.721 L226.0212,196.5 L224.693,197.279 L223.3647,198.058 L222.0375,198.836 L220.7158,199.604 L219.3926,200.372 L218.0695,201.141 L216.7478,201.908 L215.4327,202.666 L214.1162,203.424 L212.7996,204.182 L211.4845,204.939 L210.1761,205.686 L208.8663,206.434 L207.5565,207.182 L206.2483,207.929 L204.9484,208.664 L203.6467,209.4 L202.3452,210.136 L201.0453,210.871 L199.7545,211.594 L198.462,212.318 L197.1695,213.041 L195.8787,213.7638 L194.5969,214.4745 L193.3134,215.186 L192.0299,215.8976 L190.7484,216.608 L189.4775,217.3047 L188.2048,218.0024 L186.9321,218.7004 L185.6617,219.3973 L184.4028,220.0797 L183.1418,220.7632 L181.8809,221.4465 L180.6219,222.1289 L179.3743,222.7973 L178.1246,223.467 L176.8749,224.1366 L175.6275,224.8048 L174.3934,225.4571 L173.1569,226.1108 L171.9205,226.7644 L170.6865,227.4167 L169.4667,228.0522 L168.2443,228.6892 L167.0219,229.3261 L165.8013,229.9621 L164.5909,230.5863 L163.38,231.2107 L162.1768,231.8263 L160.9735,232.4419 L159.7782,233.0484 L158.5828,233.655 L157.3948,234.2533 L156.2069,234.8514 L155.0273,235.4402 L153.8478,236.0289 L152.6768,236.6081 L151.5062,237.1885 L150.3436,237.7601 L149.1811,238.3315 L148.0275,238.8932 L146.8741,239.4547 L145.7297,240.0062 L144.5853,240.5577 L143.4493,241.1 L142.3135,241.6421 L141.1873,242.1738 L140.0611,242.7055 L138.9447,243.2267 L137.8281,243.7478 L136.7206,244.2593 L135.6134,244.7705 L134.5164,245.2708 L133.4193,245.7712 L132.3327,246.2604 L131.246,246.7496 L130.1688,247.2287 L129.092,247.7076 L128.0259,248.175 L126.9599,248.6426 L125.905,249.0982 L124.8499,249.5542 L123.8049,249.9994 L122.7603,250.4443 L121.7271,250.8774 L120.694,251.3104 L119.6726,251.7313 L118.6509,252.1523 L117.6401,252.562 L116.6296,252.9717 L115.6312,253.3688 L114.6328,253.7657 L113.6467,254.1501 L112.6605,254.5345 L111.6855,254.9073 L110.7111,255.28 L109.7493,255.6396 L108.7875,255.9991 L107.8388,256.3456 L106.8909,256.6916 L105.0162,257.3606 L103.1698,258.0019 L101.3505,258.6159 L99.5565,259.2047 L97.7911,259.7651 L96.0541,260.2972 L94.3436,260.8031 L92.6633,261.2796 L91.0125,261.7268 L89.3896,262.1469 L87.7982,262.5366 L86.2378,262.8961 L84.7065,263.2274 L83.2083,263.5274 L81.7424,263.7962 L80.3069,264.036 L78.9063,264.2436 L77.5392,264.4189 L76.204,264.5644 L74.9053,264.6769 L73.6416,264.7562 L72.4113,264.8052 L71.2193,264.8204 L70.0637,264.8019 L68.943,264.7524 L67.8625,264.6689 L66.8198,264.551 L65.8134,264.402 L64.849,264.2188 L63.9235,264.001 L63.0353,263.7521 L62.1907,263.4696 L61.3809,263.1502 L60.6995,262.8468 L60.0751,262.5353 L59.5077,262.2168 L58.9931,261.8939 L58.5377,261.5689 L58.1354,261.2395 L57.782,260.9093 L57.4829,260.5814 L57.2303,260.2508 L57.0192,259.9212 L56.8533,259.5953 L56.7251,259.2633 L56.6303,258.9276 L56.5721,258.5895 L56.548,258.2365 L56.5551,257.8722 L56.5973,257.4978 L56.6763,257.1042 L56.789,256.6961 L56.9385,256.276 L57.1273,255.8385 L57.3508,255.388 L57.6113,254.9271 L57.9105,254.4522 L58.2435,253.9671 L58.6119,253.4734 L59.0168,252.9687 L59.4534,252.456 L59.923,251.9361 L60.4263,251.4077 L60.9588,250.8727 L61.5217,250.3316 L62.1154,249.7837 L62.7356,249.2302 L63.3835,248.6716 L64.0543,248.1115 L65.4825,246.9658 L67.0059,245.8053 L67.808,245.2208 L68.6145,244.633 L69.4582,244.0396 L70.3019,243.4461 L71.183,242.8471 L72.0649,242.2478 L72.9803,241.6438 L73.8947,241.0404 L74.8488,240.4322 L75.8096,239.8197 L76.7704,239.2071 L77.7232,238.5997 L78.7229,237.9875 L79.7303,237.3705 L80.7378,236.7535 L81.7396,236.1399 L82.7728,235.525 L83.8115,234.9067 L84.8502,234.2884 L85.8862,233.6719 L86.9357,233.056 L87.9866,232.4394 L89.043,231.8243 L90.0998,231.209 L91.1583,230.5959 L92.2173,229.9826 L93.2748,229.3722 L94.3326,228.7613 L95.3853,228.1544 L96.4386,227.5471 L97.4829,226.9443 L98.5276,226.3414 L99.5612,225.7433 L100.5953,225.1448 L101.6138,224.5522 L102.6328,223.9594 L103.6323,223.3734 L104.6321,222.7872 L105.6113,222.2079 L106.5911,221.6279 L107.5448,221.0562 L108.4991,220.4842 L109.4234,219.9211 L110.348,219.3578 L111.2423,218.8032 L112.1376,218.248 L112.9963,217.7031 L113.8577,217.1565 L115.4912,216.0907 L116.2844,215.5617 L117.053,215.0401 L117.798,214.5245 L118.5214,214.0143 L119.2205,213.5096 L119.8891,213.015 L120.7575,212.37 L121.6255,211.727 L122.4934,211.083 L123.3614,210.439 L124.2294,209.795 L125.0974,209.151 L125.9653,208.507 L126.829,207.866 L127.6974,207.235 L128.5703,206.601 L129.4431,205.967 L130.3159,205.333 L131.1888,204.699 L132.0616,204.065 L132.9344,203.431 L133.803,202.8 L134.6762,202.178 L135.5537,201.554 L136.4312,200.929 L137.3086,200.305 L138.1861,199.68 L139.0635,199.056 L139.941,198.431 L140.8148,197.809 L141.6926,197.196 L142.5741,196.58 L143.4556,195.963 L144.3372,195.347 L145.2188,194.731 L146.1003,194.115 L146.9819,193.499 L147.8594,192.885 L148.7413,192.28 L149.6271,191.673 L150.513,191.066 L151.3989,190.458 L152.2847,189.851 L153.1706,189.244 L154.0565,188.636 L154.9385,188.031 L155.8246,187.435 L156.7146,186.836 L157.6046,186.237 L158.4946,185.638 L159.3846,185.039 L160.2747,184.44 L161.1646,183.841 L162.0512,183.245 L162.9414,182.655 L163.835,182.064 L164.7286,181.472 L165.6221,180.88 L166.5156,180.288 L167.4092,179.697 L168.3027,179.105 L169.1926,178.516 L170.0862,177.934 L170.9836,177.35 L171.8809,176.766 L172.7783,176.182 L173.6756,175.598 L174.5729,175.014 L175.4702,174.43 L176.3641,173.848 L177.2615,173.274 L178.1624,172.697 L179.0634,172.12 L179.9643,171.543 L180.8652,170.967 L181.7661,170.39 L182.6671,169.813 L183.5649,169.239 L184.4659,168.67 L185.37,168.1 L186.274,167.529 L187.178,166.959 L188.0821,166.389 L188.9861,165.818 L189.8902,165.248 L190.791,164.68 L191.6951,164.118 L192.6024,163.554 L193.5097,162.99 L194.4171,162.426 L195.3243,161.863 L196.2316,161.299 L197.139,160.735 L198.0432,160.173 L198.9504,159.617 L199.8607,159.06 L200.7709,158.502 L201.6812,157.944 L202.5914,157.386 L203.5016,156.829 L204.4119,156.271 L205.3196,155.715 L206.2298,155.164 L207.1427,154.612 L208.0556,154.059 L208.9685,153.507 L209.8814,152.955 L210.7943,152.402 L211.7072,151.85 L212.6173,151.299 L213.5302,150.754 L214.4459,150.207 L215.3615,149.66 L216.2771,149.113 L217.1927,148.566 L218.1083,148.019 L219.024,147.473 L219.937,146.927 L220.8527,146.387 L221.7708,145.845 L222.689,145.303 L223.6071,144.762 L224.5253,144.22 L225.4435,143.678 L226.3616,143.136 L227.2776,142.596 L228.1957,142.06 L229.116,141.522 L230.0364,140.985 L230.9567,140.447 L231.877,139.91 L232.7972,139.372 L233.7175,138.835 L234.6355,138.299 L235.5557,137.767 L236.4781,137.233 L237.4005,136.7 L238.3229,136.167 L239.2454,135.634 L240.1678,135.101 L241.0903,134.568 L242.0106,134.036 L242.933,133.508 L243.8575,132.979 L244.7819,132.449 L245.7063,131.92 L246.6307,131.391 L247.5552,130.862 L248.4796,130.333 L249.4016,129.805 L250.326,129.282 L251.2529,128.758 L252.1797,128.234 L253.1066,127.709 L254.0334,127.185 L254.9603,126.661 L255.8872,126.137 L256.8141,125.612 L257.7409,125.088 L258.6678,124.564 L259.5947,124.039 L260.5215,123.515 L261.4484,122.991 L262.3753,122.467 L263.3021,121.942 L264.226,121.42 L265.1528,120.903 L266.0826,120.385 L267.0125,119.866 L267.9424,119.348 L268.8722,118.83 L269.8021,118.311 L270.7319,117.793 L271.6618,117.275 L272.5917,116.756 L273.5215,116.238 L274.4514,115.719 L275.3812,115.201 L276.3111,114.683 L277.241,114.164 L278.1708,113.646 L279.0985,113.129 L280.0283,112.616 L280.9603,112.102 L281.8924,111.588 L282.8245,111.074 L283.7566,110.56 L284.6887,110.046 L285.6207,109.532 L286.5528,109.018 L287.4849,108.504 L288.417,107.99 L289.3491,107.476 L290.2811,106.962 L291.2133,106.448 L292.1453,105.934 L293.0774,105.42 L294.0081,104.906 L294.9402,104.396 L295.8737,103.884 L296.8071,103.373 L297.7406,102.862 L298.6741,102.35 L299.6076,101.839 L300.5411,101.328 L301.4745,100.816 L302.4081,100.305 L303.3416,99.794 L304.2752,99.283 L305.2087,98.771 L306.1423,98.26 L307.0758,97.749 L308.0094,97.238 L308.9421,96.727 L309.8757,96.218 L310.8101,95.708 L311.7445,95.198 L312.679,94.689 L313.6133,94.179 L314.5478,93.669 L315.4822,93.159 L316.4166,92.65 L317.351,92.14 L318.2855,91.63 L319.2198,91.121 L320.1543,90.611 L321.0887,90.101 L322.0231,89.592 L322.9575,89.082 L323.892,88.572 L324.8265,88.062 L325.761,87.553 L326.6955,87.043 L327.63,86.533 L328.5645,86.023 L329.499,85.514 L330.4335,85.004 L331.368,84.494 L332.3026,83.984 L333.2371,83.474 L334.1716,82.965 L335.1061,82.455 L336.0406,81.945 L336.9751,81.435 L337.9097,80.926 L338.8447,80.416 L339.7794,79.905 L340.7137,79.395 L341.6479,78.884 L342.5823,78.374 L343.5165,77.864 L344.4508,77.353 L345.3851,76.843 L346.3199,76.332 L347.2543,75.82 L348.1881,75.309 L349.1219,74.797 L350.0557,74.286 L350.9896,73.774 L351.9234,73.263 L352.8572,72.751 L353.7917,72.239 L354.7257,71.726 L355.6589,71.213 L356.592,70.7 L357.5252,70.187 L358.4584,69.674 L359.3915,69.161 L360.3247,68.648 L361.2587,68.134 L362.192,67.619 L363.1244,67.105 L364.0568,66.59 L364.9892,66.075 L365.9216,65.561 L366.8541,65.046 L367.7864,64.531 L368.72,64.016 L369.6525,63.499 L370.584,62.982 L371.5154,62.465 L372.4469,61.948 L373.3784,61.431 L374.3099,60.915 L375.2415,60.398 L376.1744,59.881 L377.106,59.361 L378.0364,58.842 L378.9667,58.323 L379.8971,57.803 L380.8275,57.284 L381.7578,56.765 L382.6882,56.246 L383.6199,55.726 L384.5504,55.203 L385.4796,54.681 L386.4086,54.159 L387.3378,53.637 L388.2669,53.116 L389.196,52.594 L390.1251,52.072 L391.056,51.549 L391.9853,51.023 L392.9128,50.498 L393.8405,49.973 L394.7681,49.447 L395.6957,48.922 L396.6232,48.397 L397.5508,47.872 L398.4803,47.346 L399.4082,46.816 L400.334,46.287 L401.2599,45.758 L402.1858,45.229 L403.1117,44.701 L404.0376,44.172 L404.9634,43.643 L405.8912,43.113 L406.8173,42.579 L407.7415,42.047 L408.6656,41.514 L409.5898,40.982 L410.514,40.449 L411.4382,39.917 L412.3623,39.384 L413.2888,38.851 L414.2132,38.312 L415.1353,37.775 L416.0574,37.239 L416.9796,36.702 L417.9016,36.165 L418.8237,35.628 L419.7459,35.091 L420.6705,34.553 L421.5928,34.01 L422.5127,33.468 L423.4326,32.926 L424.3524,32.385 L425.2723,31.843 L426.1921,31.301 L427.112,30.76 L428.0343,30.217 L428.9545,29.669 L429.8721,29.123 L430.7898,28.576 L431.7075,28.03 L432.6251,27.484 L433.5427,26.937 L434.4604,26.391 L435.381,25.843 L436.299,25.289 L437.214,24.738 L438.1291,24.186 L439.0441,23.634 L439.9592,23.082 L440.8743,22.53 L441.7894,21.979 L442.7075,21.425 L443.6228,20.865 L444.535,20.307 L445.4472,19.75 L446.3594,19.192 L447.2717,18.634 L448.1839,18.076 L449.0961,17.518 L450.0114,16.959 L450.9238,16.394 L451.8334,15.83 L452.7429,15.267 L453.6525,14.703 L454.562,14.14 L455.4716,13.576 L456.3811,13.013 L457.2941,12.447 L458.204,11.875 L459.1104,11.305 L460.0168,10.735 L460.9233,10.165 L461.8297,9.595 L462.7361,9.025 L463.6425,8.455 L464.5526,7.883 L465.4594,7.303 L466.3625,6.726 L467.2656,6.149 L468.1687,5.572 L469.0718,4.995 L469.9749,4.418 L470.8781,3.841 L471.7819,3.264 L472.0323,3.103 L472.2581,2.958 L472.4623,2.827 L472.6473,2.708 L472.8114,2.603 L472.9543,2.512 L473.1866,2.364 L473.3375,2.269 L473.4127,2.223 L473.3235,2.273 L473.3236,2.273 L473.3237,2.272 L473.3239,2.272 L473.3242,2.272 L473.3245,2.272 L473.3249,2.272 L473.3253,2.272 L473.3259,2.271 L473.3264,2.271 L473.3271,2.271 L473.3278,2.27 L473.3286,2.27 L473.3293,2.27 L473.3303,2.269 L473.3312,2.269 L473.314,2.277 L473.2505,2.306 L473.0634,2.366 L471.8166,1.919 L471.8098,0.457 L471.9515,0.298 L472.0062,0.25 L472.0341,0.227 L472.0506,0.215 L472.0611,0.207 L472.0679,0.202 L472.0724,0.199 L472.0753,0.197 L472.0768,0.196 L472.0773,0.195 L472.077,0.195 L472.075,0.197 L472.0718,0.199 L472.0689,0.201 L472.0662,0.203 L472.0637,0.204 L472.0614,0.206 L472.0593,0.207 L472.0574,0.209 L472.0558,0.21 L472.0543,0.211 L472.0531,0.212 L472.0521,0.212 L472.0512,0.213 L472.0506,0.213 L472.0502,0.214 L472.05,0.214 L472.0669,0.202 L471.9501,0.28 L471.7758,0.394 L471.5389,0.547 L471.2429,0.739 L470.8959,0.962 L470.4956,1.219 L470.045,1.508 L469.5512,1.824 L469.0124,2.168 L468.4316,2.537 L467.815,2.929 L467.1617,3.342 L466.4745,3.776 L465.7591,4.227 L465.0152,4.694 L464.2464,5.175 L462.6465,6.173 L460.976,7.207 L460.1181,7.733 L459.2597,8.26 L458.3893,8.79 L457.5193,9.32 L456.6467,9.846 L455.7744,10.371 L454.9114,10.884 L454.0476,11.398 L453.1981,11.898 L452.3607,12.387 L451.5389,12.862 L450.7339,13.324 L449.9505,13.767 L449.191,14.192 L448.4562,14.597 L447.7516,14.978 L447.0798,15.335 L446.441,15.666 L445.8419,15.968 L445.2826,16.241 L444.1071,16.801 L442.929,17.363 L441.7678,17.916 L440.6067,18.469 L439.4622,19.013 L438.3176,19.557 L437.1881,20.093 L436.0587,20.629 L434.9455,21.156 L433.8324,21.684 L432.7354,22.203 L431.6384,22.722 L430.5559,23.233 L429.4734,23.744 L428.4067,24.247 L427.34,24.75 L426.2889,25.244 L425.2379,25.739 L424.2007,26.226 L423.1636,26.714 L422.1418,27.193 L421.12,27.672 L420.1132,28.143 L419.1064,28.614 L418.1131,29.078 L417.1199,29.542 L416.1413,29.999 L415.1628,30.455 L414.1987,30.904 L413.2346,31.353 L412.2836,31.795 L411.3326,32.237 L410.3958,32.671 L409.4589,33.106 L408.536,33.533 L407.6131,33.96 L406.7027,34.381 L405.7925,34.801 L403.9989,35.628 L402.2323,36.441 L400.4897,37.242 L398.7734,38.029 L397.0828,38.803 L395.4153,39.564 L393.7729,40.313 L392.1552,41.049 L390.5596,41.774 L388.988,42.486 L387.44,43.187 L385.9131,43.876 L384.4091,44.554 L382.9277,45.22 L381.4663,45.876 L380.0269,46.521 L378.6089,47.155 L377.2192,47.775 L375.8298,48.395 L374.4811,48.994 L373.1324,49.594 L371.8229,50.174 L370.5134,50.753 L369.2382,51.316 L367.963,51.879 L366.7244,52.424 L365.4857,52.968 L364.2819,53.496 L363.0779,54.024 L361.9044,54.537 L360.7309,55.05 L359.5895,55.547 L358.4481,56.045 L357.3372,56.528 L356.2261,57.011 L355.1417,57.481 L354.0572,57.952 L353.0005,58.409 L351.9437,58.867 L350.9131,59.313 L349.8825,59.758 L348.8745,60.194 L347.8663,60.629 L346.8817,61.055 L345.8969,61.48 L344.9341,61.895 L343.9711,62.311 L343.0268,62.719 L342.0823,63.127 L341.1571,63.527 L340.2316,63.927 L338.4156,64.713 L336.6429,65.483 L334.8694,66.254 L333.1497,67.005 L331.4293,67.758 L329.7501,68.499 L328.0706,69.24 L326.4185,69.978 L324.7655,70.715 L323.1316,71.454 L321.4972,72.193 L319.8693,72.942 L318.2422,73.69 L316.6113,74.449 L314.9759,75.217 L313.3323,75.996 L311.6787,76.787 L310.0111,77.592 L308.3268,78.414 L306.6248,79.252 L304.9001,80.109 L303.1502,80.988 L301.3754,81.886 L300.4713,82.349 L299.5679,82.811 L298.6475,83.285 L297.7272,83.76 L296.7903,84.248 L295.8532,84.736 L294.8962,85.238 L293.9393,85.74 L292.9609,86.258 L291.9828,86.776 L290.9841,87.309 L289.9851,87.842 L288.9618,88.392 L287.9385,88.942 L286.8896,89.509 L285.8408,90.077 L284.7674,90.662 L283.6938,91.247 L282.5918,91.852 L281.4898,92.457 L280.3578,93.082 L279.226,93.708 L278.0655,94.353 L276.905,94.998 L275.7116,95.665 L274.5183,96.332 L273.2906,97.022 L272.0634,97.712 L270.8112,98.419 L269.5411,99.137 L268.2524,99.869 L266.9465,100.611 L265.6213,101.366 L264.2764,102.135 L262.9134,102.915 L261.5298,103.709 L260.1256,104.516 L258.7021,105.336 L257.2572,106.17 L255.7904,107.019 L254.3034,107.88 L252.7937,108.756 L251.2611,109.647 L249.7074,110.552 L248.1299,111.472 L246.5285,112.407 L244.9049,113.357 L243.2565,114.323 L241.5831,115.305 L239.8865,116.302 L238.1642,117.315 L237.2898,117.83 L236.4155,118.345 L235.5292,118.868 L234.6428,119.391 L233.7429,119.922 L232.8431,120.454 L231.9296,120.994 L231.0162,121.534 L230.0902,122.082 L229.1642,122.63 L228.2242,123.187 L227.2841,123.744 L226.33,124.31 L225.3757,124.876 L224.4085,125.451 L223.4413,126.025 L222.4595,126.609 L221.4777,127.192 L220.4812,127.785 L219.4847,128.378 L218.4748,128.98 L217.4648,129.581 L216.4397,130.192 L215.4146,130.804 L214.3743,131.424 L213.3339,132.045 L212.2795,132.675 L211.2252,133.305 L210.1552,133.944 L209.0852,134.584 L207.9994,135.233 L206.9136,135.883 L205.8132,136.541 L204.7129,137.2 L203.5964,137.869 L202.4799,138.538 L201.347,139.217 L200.2142,139.896 L199.0663,140.584 L197.9185,141.273 L196.7539,141.972 L195.5894,142.671 L194.4079,143.381 L193.2264,144.09 L192.0294,144.81 L190.8325,145.529 L189.6182,146.259 L188.404,146.989 L187.1723,147.73 L185.938,148.473 L184.5966,149.289 L183.2578,150.104 L181.9191,150.918 L180.5803,151.733 L179.2415,152.547 L177.9028,153.362 L176.564,154.176 L175.2197,154.994 L173.8832,155.825 L172.5522,156.652 L171.2211,157.479 L169.8901,158.306 L168.5591,159.133 L167.228,159.959 L165.897,160.786 L164.5612,161.616 L163.2321,162.457 L161.9078,163.295 L160.5834,164.133 L159.2592,164.97 L157.9348,165.808 L156.6105,166.646 L155.2862,167.483 L153.9581,168.324 L152.6354,169.172 L151.3165,170.019 L149.9978,170.865 L148.6791,171.712 L147.3604,172.559 L146.0416,173.405 L144.7229,174.252 L143.4006,175.101 L142.0834,175.958 L140.7696,176.813 L139.4558,177.667 L138.1421,178.522 L136.8283,179.376 L135.5145,180.231 L134.2007,181.086 L132.8842,181.942 L131.5716,182.805 L130.2618,183.666 L128.952,184.526 L127.6422,185.387 L126.3324,186.248 L125.0226,187.109 L123.7128,187.97 L122.4011,188.832 L121.0921,189.699 L119.7851,190.564 L118.4781,191.43 L117.1713,192.295 L115.8645,193.161 L114.5577,194.026 L113.2509,194.892 L111.9425,195.759 L110.6364,196.629 L109.3317,197.498 L108.0272,198.367 L106.7225,199.236 L105.4179,200.105 L104.1133,200.974 L102.8087,201.843 L101.5033,202.713 L100.199,203.584 L98.8956,204.455 L97.5922,205.326 L96.2888,206.197 L94.9854,207.068 L93.682,207.939 L92.3786,208.81 L91.075,209.681 L89.7717,210.552 L88.4686,211.423 L87.1655,212.294 L85.8623,213.166 L84.5592,214.0368 L83.256,214.9081 L81.9529,215.7793 L80.6502,216.6502 L79.347,217.5201 L78.0433,218.3902 L76.7396,219.2605 L75.4359,220.1307 L74.1322,221.0008 L72.8285,221.8711 L71.5248,222.7412 L70.2222,223.6107 L68.9182,224.4774 L67.6129,225.3449 L66.3076,226.2125 L65.0024,227.0801 L63.6971,227.9475 L62.3918,228.815 L61.0865,229.6826 L59.7823,230.5494 L59.1976,230.9359 L58.5871,231.3366 L57.9521,231.7511 L57.2956,232.1777 L56.6163,232.6169 L55.916,233.0678 L54.4556,234.0035 L52.9181,234.9823 L51.3094,236.0008 L49.6415,237.0525 L48.7789,237.5943 L47.9158,238.1367 L47.0272,238.6935 L46.1384,239.2503 L45.2293,239.8188 L44.3201,240.3874 L43.3915,240.9671 L42.4629,241.547 L41.5185,242.136 L40.574,242.7251 L39.6135,243.3236 L38.6529,243.9223 L37.6923,244.521 L36.7315,245.1198 L35.7579,245.7269 L34.7843,246.3338 L33.8107,246.9409 L32.8365,247.5483 L31.8636,248.1563 L30.8912,248.7639 L29.9189,249.3716 L28.9459,249.9796 L27.9808,250.5842 L27.0157,251.1888 L26.0606,251.7887 L25.1053,252.3886 L24.1635,252.9819 L23.2215,253.5753 L22.2946,254.1611 L21.3674,254.7469 L20.4599,255.3229 L19.5521,255.8989 L18.6675,256.463 L17.7828,257.0271 L16.9219,257.5786 L16.06,258.1307 L14.3963,259.2035 L12.7985,260.2417 L12.0219,260.7494 L11.2648,261.2467 L10.5273,261.7337 L9.808,262.2113 L9.1095,262.6778 L8.433,263.1328 L7.7768,263.5771 L7.1437,264.0094 L6.5348,264.4288 L5.9484,264.8365 L5.3871,265.2311 L4.8523,265.6117 L4.3418,265.9796 L3.8584,266.3336 L3.4035,266.6726 L2.9745,266.9984 L2.5739,267.3098 L2.2035,267.6059 L1.8596,267.8893 L1.5442,268.1596 L1.2589,268.4164 L0.9986,268.6643 L0.7622,268.9081 L0.551,269.1511 L0.3551,269.4122 L0.1692,269.7326 L0.0175,270.1676 L0,270.8257 L0.3738,271.608 L0.9544,272.0313 L1.4406,272.1717 L1.8374,272.1971 L2.1828,272.1736 L2.5222,272.1233 L2.8819,272.0479 L3.267,271.9498 L3.6835,271.8304 L4.1412,271.6863 L4.6404,271.5177 L5.1805,271.326 L5.7684,271.1079 L6.4075,270.862 L7.8231,270.3004 L9.2873,269.6997 L10.7949,269.0622 L12.3422,268.3915 L13.9333,267.6843 L15.5664,266.9417 L17.2379,266.1671 L18.9514,265.3574 L20.7059,264.5141 L22.4959,263.6408 L23.4132,263.1863 L24.329,262.7325 L25.2646,262.2622 L26.1998,261.7921 L27.1528,261.3071 L28.106,260.822 L29.0784,260.3208 L30.0507,259.8197 L31.0421,259.3027 L32.033,258.7859 L33.0408,258.2549 L34.0489,257.7237 L35.0754,257.1771 L36.1017,256.6306 L37.1462,256.0689 L38.1904,255.5074 L39.2507,254.9323 L40.3111,254.3572 L41.3891,253.7673 L42.467,253.1773 L43.5621,252.573 L44.6569,251.9687 L45.767,251.3515 L46.8773,250.7344 L48.0042,250.103 L49.1311,249.4718 L50.2742,248.8266 L51.4171,248.1817 L52.5746,247.5245 L53.7321,246.8672 L54.9054,246.1964 L56.0786,245.5257 L57.2672,244.8419 L58.4555,244.1582 L59.6577,243.4627 L60.8599,242.7672 L62.0768,242.0591 L63.2938,241.3509 L64.5253,240.6305 L65.7566,239.91 L67.0008,239.1784 L68.2451,238.4469 L69.5033,237.7033 L70.7615,236.9598 L72.0333,236.2047 L73.3049,235.4496 L74.5886,234.6839 L75.8724,233.9183 L77.1691,233.1415 L78.4659,232.3646 L79.7754,231.5766 L81.0847,230.7888 L82.4053,229.9912 L83.726,229.1936 L85.0587,228.3852 L86.3915,227.577 L87.736,226.7584 L89.0804,225.9399 L90.4349,225.1118 L91.7896,224.2837 L93.1555,223.4455 L94.5213,222.6075 L95.898,221.7599 L97.2746,220.9122 L98.6608,220.056 L100.0472,219.1998 L101.4438,218.3344 L102.8403,217.4691 L104.2469,216.5947 L105.6533,215.7204 L107.0686,214.8382 L108.4839,213.956 L109.9086,213.065 L111.3334,212.175 L112.7672,211.276 L114.2012,210.377 L115.6471,209.467 L117.0919,208.557 L118.5366,207.648 L119.983,206.738 L121.4458,205.812 L122.907,204.888 L124.3679,203.963 L125.8302,203.037 L127.3077,202.097 L128.7836,201.157 L130.2596,200.218 L131.7368,199.278 L133.2267,198.326 L134.7154,197.375 L136.204,196.424 L137.694,195.472 L139.1968,194.507 L140.6983,193.543 L142.1998,192.58 L143.7025,191.615 L145.2167,190.639 L146.7297,189.664 L148.2426,188.689 L149.7572,187.713 L151.2853,186.723 L152.812,185.734 L154.3385,184.745 L155.8651,183.756 L157.3917,182.767 L158.9183,181.778 L160.4449,180.79 L161.9738,179.799 L163.5186,178.791 L165.0613,177.785 L166.6041,176.779 L168.1468,175.772 L169.6895,174.766 L171.2322,173.76 L172.775,172.753 L174.3196,171.746 L175.8751,170.725 L177.4287,169.705 L178.9822,168.685 L180.5358,167.666 L182.0894,166.646 L183.6429,165.626 L185.1965,164.606 L186.7516,163.585 L188.3124,162.556 L189.8716,161.527 L191.4319,160.5 L192.9924,159.473 L194.5529,158.446 L196.1133,157.419 L197.6738,156.392 L199.2358,155.364 L200.7996,154.33 L202.3616,153.297 L203.9238,152.264 L205.4858,151.231 L207.048,150.197 L208.61,149.164 L210.1722,148.131 L211.7357,147.097 L213.2956,146.06 L214.8541,145.025 L216.4126,143.989 L217.9711,142.954 L219.5295,141.918 L221.088,140.883 L222.6465,139.847 L224.2053,138.811 L225.7584,137.773 L227.3106,136.736 L228.8628,135.7 L230.4156,134.662 L231.9632,133.627 L233.5101,132.592 L235.057,131.556 L236.6046,130.521 L238.1454,129.487 L239.6858,128.455 L241.2261,127.422 L242.767,126.389 L244.3008,125.359 L245.8342,124.329 L247.3674,123.3 L248.9013,122.27 L250.4263,121.244 L251.9507,120.219 L253.4751,119.193 L255.0001,118.168 L256.5148,117.147 L258.0287,116.127 L259.5425,115.106 L261.0567,114.085 L262.5607,113.07 L264.0641,112.055 L265.5676,111.04 L267.0716,110.024 L268.563,109.016 L270.0541,108.008 L271.545,107 L273.0365,105.992 L274.5141,104.992 L275.9913,103.992 L277.4684,102.992 L278.946,101.992 L280.41,101 L281.8735,100.008 L283.3372,99.016 L284.8011,98.024 L286.249,97.042 L287.6964,96.06 L289.1439,95.079 L290.5916,94.096 L292.0218,93.125 L293.4517,92.154 L294.8815,91.182 L296.3116,90.211 L297.7291,89.247 L299.1465,88.284 L300.5544,87.327 L301.9623,86.369 L303.3603,85.418 L304.7582,84.467 L306.147,83.522 L307.5356,82.577 L308.9139,81.639 L310.2921,80.701 L311.6595,79.77 L313.0269,78.838 L314.3842,77.914 L315.7415,76.989 L317.0875,76.072 L318.4334,75.155 L319.7676,74.246 L321.1017,73.337 L322.425,72.434 L323.7483,71.532 L325.0591,70.638 L326.37,69.744 L327.6682,68.859 L328.9664,67.973 L330.253,67.095 L331.5395,66.218 L332.8128,65.349 L334.0861,64.48 L335.3459,63.62 L336.6057,62.76 L337.8529,61.909 L339.1001,61.058 L340.3333,60.217 L341.5663,59.375 L342.7851,58.543 L344.0038,57.711 L345.2091,56.889 L346.4144,56.066 L347.6047,55.254 L348.795,54.442 L349.97,53.64 L351.145,52.838 L352.3058,52.046 L353.4666,51.254 L354.6115,50.473 L355.7563,49.692 L356.885,48.922 L358.0136,48.152 L359.1272,47.393 L360.2408,46.634 L361.3375,45.886 L362.4343,45.138 L363.5139,44.402 L364.5936,43.666 L365.6573,42.942 L366.7211,42.217 L367.7672,41.505 L368.8132,40.792 L369.8412,40.093 L370.8693,39.393 L371.8806,38.705 L372.892,38.017 L373.8846,37.342 L374.8774,36.667 L375.8511,36.005 L376.8249,35.343 L377.7812,34.694 L378.7374,34.045 L379.6742,33.409 L380.6109,32.774 L381.5278,32.152 L382.4446,31.531 L383.3433,30.922 L384.2418,30.314 L385.1199,29.719 L385.998,29.125 L386.8553,28.546 L387.7126,27.967 L388.5509,27.401 L389.3889,26.835 L391.0227,25.734 L392.613,24.664 L394.1633,23.622 L395.6691,22.612 L397.1297,21.634 L398.5486,20.686 L399.9211,19.771 L401.2467,18.89 L402.5289,18.04 L403.7628,17.224 L404.9478,16.444 L406.0877,15.695 L407.1774,14.983 L408.2163,14.308 L409.2084,13.666 L410.1481,13.062 L411.0352,12.496 L411.8734,11.966 L412.6569,11.474 L413.3856,11.022 L414.063,10.607 L414.6829,10.233 L415.2448,9.901 L415.752,9.608 L416.196,9.36 L416.5759,9.156 L416.8909,8.996 L417.1224,8.888 L417.2546,8.835 L417.2311,8.839 L417.1501,8.858 L416.2023,8.652 L416.2032,8.653 L416.2051,8.654 L416.2079,8.655 L416.2117,8.657 L416.2165,8.66 L416.2222,8.663 L416.2288,8.667 L416.1544,8.622 L415.9963,8.505 L415.8446,8.36 L415.7097,8.19 L415.5999,8.005 L415.5193,7.816 L415.4673,7.634 L415.4398,7.466 L415.4335,7.393 L415.434,7.401 L415.4344,7.408 L415.4348,7.414 L415.4351,7.419 L415.4352,7.422 L415.4354,7.425 L415.4355,7.426 L415.5952,6.619 L415.6234,6.583 L415.6126,6.594 L415.5008,6.724 L415.3035,6.932 L415.0258,7.206 L414.6805,7.531 L414.2645,7.911 L413.7772,8.343 L413.2261,8.823 L412.6056,9.354 L411.911,9.941 C411.2184,10.525 411.1305,11.559 411.7145,12.252 C412.2985,12.944 413.3333,13.032 414.0259,12.448 Z" id="Fill-37"></path>
        </g>
    </g>
</svg>
