<?xml version="1.0" encoding="UTF-8"?>
<svg width="165px" height="155px" viewBox="0 0 165 155" version="1.1" xmlns="http://www.w3.org/2000/svg" xmlns:xlink="http://www.w3.org/1999/xlink">
    <title>114</title>
    <g id="Page-1" stroke="none" stroke-width="1" fill="none" fill-rule="evenodd">
        <g id="114" transform="translate(0.284350, 0.647759)" fill="currentColor">
            <path d="M41.6334,55.2472407 L41.7249,54.1532407 L41.7955,53.1322407 L41.8444,52.1912407 L41.8739,51.3222407 L41.8819,50.5252407 L41.8684,49.8012407 L41.8344,49.1362407 L41.7761,48.5282407 L41.6909,47.9762407 L41.573,47.4582407 L41.4015,46.9552407 L41.1494,46.4672407 L40.7573,45.9822407 L40.1364,45.5612407 L39.3883,45.3772407 L38.6879,45.4432407 L38.1154,45.6662407 L37.6756,45.9502407 L37.3015,46.2672407 L36.956,46.6232407 L36.6291,47.0122407 L36.3069,47.4382407 L35.9809,47.9082407 L35.6511,48.4212407 L35.3148,48.9732407 L34.969,49.5712407 L34.6147,50.2112407 L34.2517,50.8912407 L33.8784,51.6132407 L33.4958,52.3762407 L33.1043,53.1762407 L32.703,54.0152407 L32.2928,54.8912407 L31.8744,55.8002407 L31.4469,56.7442407 L31.0111,57.7212407 L30.5678,58.7282407 L30.1164,59.7652407 L29.6576,60.8322407 L29.1923,61.9232407 L28.7205,63.0422407 L28.2425,64.1852407 L27.7589,65.3492407 L27.2694,66.5352407 L26.7746,67.7412407 L26.275,68.9652407 L25.7707,70.2062407 L25.2629,71.4632407 L24.7503,72.7392407 L24.2376,74.0152407 L23.7181,75.3142407 L23.1989,76.6132407 L22.6744,77.9292407 L22.1512,79.2442407 L21.626,80.5702407 L21.1009,81.8952407 L20.5735,83.2262407 L20.0464,84.5562407 L19.5184,85.8852407 L18.9923,87.2132407 L18.4729,88.5302407 L17.9529,89.8502407 L17.4329,91.1692407 L16.9145,92.4842407 L16.403,93.7612407 L15.8897,95.0432407 L15.3704,96.3212407 L14.8529,97.5932407 L14.349,98.8002407 L13.8422,100.014241 L13.3355,101.228241 L12.8314,102.436241 L12.3397,103.586241 L11.8475,104.736241 L11.3664,105.837241 L10.8857,106.937241 L10.4178,107.980241 L9.9492,109.024241 L9.4922,110.022241 L9.0423,110.988241 L8.6015,111.919241 L8.1693,112.818241 L7.7466,113.677241 L7.3333,114.497241 L6.9294,115.278241 L6.5367,116.015241 L6.1551,116.706241 L5.7848,117.354241 L5.4285,117.952241 L5.0858,118.498241 L4.7578,118.994241 L4.4495,119.432241 L4.1603,119.812241 L3.8939,120.133241 L3.6607,120.383241 L3.445,120.581241 L3.1781,120.802241 L2.9192,121.007241 L2.6842,121.181241 L2.4741,121.328241 L2.2959,121.442241 L2.1474,121.527241 L2.034,121.585241 L1.9701,121.612241 L1.9543,121.618241 L2.001,121.611241 L2.1349,121.610241 L2.3284,121.644241 L2.5594,121.742241 L2.7853,121.910241 L2.9317,122.086241 L3.0083,122.232241 L3.0402,122.330241 L3.045,122.355241 L3.0421,122.326241 L3.0422,122.253241 L3.0505,122.133241 L3.0686,121.980241 L3.0986,121.799241 L3.1372,121.606241 L3.2636,121.091241 L3.4351,120.512241 L3.6552,119.854241 L3.9167,119.132241 L4.2204,118.347241 L4.5644,117.503241 L4.9425,116.611241 L5.3549,115.671241 L5.7996,114.685241 L6.2712,113.662241 L6.7697,112.603241 L7.2942,111.512241 L7.8392,110.395241 L8.4038,109.252241 L8.9855,108.088241 L9.5805,106.908241 L10.1878,105.714241 L10.8043,104.510241 L11.4318,103.297241 L12.0594,102.085241 L12.6917,100.875241 L13.3245,99.6632407 L13.9515,98.4682407 L14.5789,97.2732407 L15.1931,96.1052407 L15.8089,94.9372407 L16.4002,93.8142407 L16.992,92.6892407 L17.5488,91.6252407 L18.1056,90.5602407 L18.6342,89.5432407 L19.1384,88.5652407 L19.6159,87.6302407 L20.0672,86.7382407 L20.4876,85.8952407 L20.8718,85.1102407 L20.6546,85.4322407 L20.6554,85.4312407 L20.6569,85.4292407 L20.6593,85.4262407 L20.6624,85.4232407 L20.6663,85.4182407 L20.671,85.4132407 L20.6764,85.4072407 L20.6388,85.4472407 L20.5465,85.5322407 L20.4404,85.6132407 L20.3224,85.6842407 L20.196,85.7442407 L20.0655,85.7902407 L19.9356,85.8212407 L19.8104,85.8382407 L19.7553,85.8422407 L19.7635,85.8412407 L19.7705,85.8412407 L19.7763,85.8412407 L19.781,85.8402407 L19.7844,85.8402407 L19.7868,85.8402407 L19.7879,85.8402407 L19.1129,85.7002407 L19.065,85.6662407 L19.0144,85.6302407 L19.0712,85.6862407 L19.193,85.8222407 L19.3544,86.0162407 L19.549,86.2652407 L19.7747,86.5642407 L20.0261,86.9072407 L20.3036,87.2942407 L20.607,87.7232407 L20.9332,88.1882407 L21.2838,88.6922407 L21.6589,89.2312407 L22.0561,89.8032407 L22.4771,90.4082407 L22.9215,91.0442407 L23.3871,91.7082407 L23.876,92.4022407 L24.3878,93.1222407 L24.9204,93.8672407 L25.4759,94.6372407 L26.0539,95.4302407 L26.6523,96.2432407 L27.2744,97.0762407 L27.9187,97.9282407 L28.5831,98.7962407 L29.2699,99.6822407 L29.9784,100.582241 L30.7068,101.495241 L31.4572,102.421241 L32.229,103.357241 L33.0213,104.302241 L33.8355,105.256241 L34.6727,106.219241 L35.5342,107.184241 L36.3992,108.152241 L37.3053,109.126241 L38.2126,110.101241 L39.161,111.076241 L40.1093,112.050241 L41.0943,113.020241 L42.0813,113.991241 L43.1082,114.951241 L44.1363,115.913241 L45.2036,116.858241 L46.2705,117.804241 L47.3728,118.730241 L48.4776,119.657241 L49.6212,120.559241 L50.7661,121.461241 L51.9491,122.331241 L53.1262,123.198241 L54.3388,124.048241 L55.5679,124.875241 L56.8156,125.681241 L58.081,126.466241 L59.3667,127.228241 L60.6702,127.965241 L61.9912,128.678241 L63.3325,129.363241 L64.6916,130.018241 L66.0681,130.646241 L67.4646,131.241241 L68.8782,131.804241 L70.3089,132.334241 L71.7595,132.829241 L73.2272,133.286241 L74.7116,133.706241 L76.2157,134.087241 L77.7362,134.424241 L79.273,134.723241 L80.8291,134.977241 L82.4011,135.184241 L83.9888,135.348241 L85.5954,135.462241 L87.217,135.526241 L88.8538,135.543241 L90.5088,135.506241 L92.1782,135.415241 L93.8622,135.273241 L95.5634,135.072241 L97.2783,134.813241 L99.0069,134.499241 L100.7522,134.124241 L102.5106,133.686241 L104.2819,133.190241 L106.0692,132.629241 L107.869,132.002241 L109.6814,131.313241 L111.5091,130.555241 L113.3443,129.730241 L114.2744,129.282241 L115.201,128.836241 L116.1345,128.353241 L117.0678,127.871241 L118.008,127.351241 L118.9463,126.833241 L119.6714,126.405241 L120.4043,125.942241 L121.1421,125.444241 L121.8852,124.916241 L122.6353,124.353241 L123.39,123.760241 L124.1494,123.138241 L124.9148,122.486241 L125.6841,121.805241 L126.4574,121.099241 L127.2357,120.365241 L128.0173,119.606241 L128.8018,118.824241 L129.5896,118.017241 L130.3795,117.187241 L131.171,116.336241 L131.9646,115.464241 L132.7606,114.569241 L133.5541,113.653241 L134.3496,112.735241 L135.1452,111.780241 L135.9403,110.826241 L136.7333,109.841241 L137.5254,108.856241 L138.3139,107.846241 L139.1026,106.836241 L139.8855,105.801241 L140.668,104.767241 L141.4426,103.713241 L142.2165,102.659241 L142.9814,101.591241 L143.7465,100.523241 L144.4993,99.4422407 L145.2517,98.3612407 L145.9901,97.2712407 L146.7281,96.1832407 L147.4516,95.0902407 L148.1754,93.9972407 L148.8814,92.9042407 L149.5863,91.8102407 L150.2712,90.7192407 L150.9558,89.6292407 L151.6205,88.5462407 L152.2855,87.4632407 L152.9268,86.3902407 L153.568,85.3182407 L154.1828,84.2612407 L154.7972,83.2042407 L155.3864,82.1652407 L155.9759,81.1252407 L156.5357,80.1082407 L157.0955,79.0912407 L157.6236,78.1022407 L158.1513,77.1122407 L158.6483,76.1512407 L159.1456,75.1892407 L159.6074,74.2612407 L160.0706,73.3312407 L160.9154,71.5602407 L161.3146,70.6952407 L161.692,69.8562407 L162.0484,69.0402407 L162.3856,68.2462407 L162.7014,67.4752407 L162.9948,66.7312407 L163.2677,66.0102407 L163.5179,65.3152407 L163.7442,64.6482407 L163.9488,64.0072407 L164.1291,63.3932407 L164.2841,62.8092407 L164.4157,62.2502407 L164.5213,61.7192407 L164.5993,61.2182407 L164.6512,60.7402407 L164.6731,60.2832407 L164.6612,59.8522407 L164.6127,59.4362407 L164.5142,59.0272407 L164.3542,58.6392407 L164.1179,58.2722407 L163.7843,57.9482407 L163.3852,57.7192407 L162.9524,57.5902407 L162.5055,57.5552407 L162.0736,57.5992407 L161.6464,57.6992407 L161.2092,57.8532407 L160.7627,58.0562407 L160.2992,58.3032407 L159.8094,58.6002407 L159.294,58.9462407 L158.7514,59.3392407 L158.1755,59.7862407 L157.5661,60.2862407 L156.9202,60.8432407 L156.2825,61.4242407 L155.6555,62.0252407 L155.0377,62.6462407 L154.4289,63.2882407 L153.8237,63.9582407 L152.6597,65.3272407 L151.5247,66.7812407 L150.4267,68.3062407 L149.36,69.8932407 L148.3266,71.5472407 L147.3269,73.2622407 L146.3585,75.0272407 L145.8873,75.9452407 L145.4217,76.8592407 L144.9709,77.8002407 L144.521,78.7402407 L144.0844,79.7022407 L143.6477,80.6642407 L143.2251,81.6502407 L142.8029,82.6362407 L142.3945,83.6432407 L141.9877,84.6492407 L141.5935,85.6742407 L141.1992,86.6982407 L140.8181,87.7412407 L140.4372,88.7842407 L140.0691,89.8432407 L139.7013,90.9022407 L139.3448,91.9732407 L138.9859,93.0452407 L138.6378,94.1292407 L138.2898,95.2132407 L137.9536,96.3082407 L137.6176,97.4032407 L137.2918,98.5072407 L136.9661,99.6112407 L136.6513,100.724241 L136.3356,101.836241 L136.0304,102.954241 L135.7248,104.074241 L135.4332,105.200241 L135.143,106.320241 L134.8528,107.441241 L134.5608,108.568241 L134.288,109.700241 L134.0164,110.824241 L133.7448,111.948241 L133.4718,113.078241 L133.2166,114.205241 L132.9628,115.325241 L132.709,116.446241 L132.4542,117.571241 L132.2142,118.687241 L131.975,119.799241 L131.7358,120.911241 L131.4957,122.026241 L131.2709,123.126241 L131.047,124.221241 L130.8231,125.316241 L130.5985,126.415241 L130.3874,127.490241 L130.1767,128.561241 L129.9661,129.633241 L129.755,130.706241 L129.5528,131.760241 L129.3506,132.813241 L129.1544,133.849241 L128.9583,134.885241 L128.7679,135.903241 L128.5775,136.920241 L128.392,137.919241 L128.2064,138.918241 L127.8455,140.873241 L127.4939,142.780241 L127.1504,144.641241 L126.815,146.448241 L126.4871,148.198241 L126.1655,149.892241 L125.8501,151.522241 L125.5399,153.087241 C125.4502,153.538241 125.7439,153.978241 126.1957,154.067241 C126.6476,154.157241 127.0866,153.863241 127.1763,153.411241 L127.4878,151.843241 L127.8048,150.206241 L128.1278,148.507241 L128.4568,146.754241 L128.7931,144.945241 L129.1373,143.083241 L129.4893,141.176241 L129.8506,139.223241 L130.0362,138.225241 L130.2218,137.227241 L130.4123,136.211241 L130.6027,135.195241 L130.7987,134.161241 L130.9947,133.126241 L131.1967,132.076241 L131.3986,131.026241 L131.6092,129.956241 L131.8202,128.885241 L132.0312,127.813241 L132.2417,126.745241 L132.4666,125.654241 L132.6921,124.559241 L132.9176,123.464241 L133.1422,122.373241 L133.3822,121.266241 L133.6231,120.155241 L133.8639,119.044241 L134.104,117.937241 L134.3593,116.822241 L134.6157,115.702241 L134.8722,114.582241 L135.1272,113.468241 L135.4,112.350241 L135.6742,111.227241 L135.9485,110.103241 L136.2215,108.987241 L136.5138,107.874241 L136.8079,106.755241 L137.1021,105.635241 L137.3949,104.521241 L137.7013,103.414241 L138.0081,102.305241 L138.3256,101.203241 L138.644,100.101241 L138.9733,99.0092407 L139.3026,97.9162407 L139.6421,96.8322407 L139.9812,95.7492407 L140.3319,94.6782407 L140.6823,93.6072407 L141.0457,92.5512407 L141.4116,91.4952407 L141.7885,90.4532407 L142.1649,89.4122407 L142.5537,88.3882407 L142.9422,87.3642407 L143.3434,86.3592407 L143.7446,85.3542407 L144.1573,84.3682407 L144.5683,83.3822407 L144.9926,82.4182407 L145.4166,81.4552407 L145.8542,80.5152407 L146.2917,79.5752407 L146.7419,78.6592407 L147.1912,77.7442407 L147.6546,76.8562407 L148.1125,75.9702407 L149.0617,74.2452407 L150.0347,72.5792407 L151.0359,70.9802407 L152.0673,69.4492407 L153.1261,67.9832407 L154.2138,66.5952407 L155.3397,65.2762407 L155.9029,64.6562407 L156.4797,64.0492407 L157.0649,63.4642407 L157.6571,62.8982407 L158.2563,62.3542407 L158.8653,61.8322407 L159.4355,61.3672407 L159.9642,60.9592407 L160.4522,60.6082407 L160.9008,60.3082407 L161.3032,60.0662407 L161.6609,59.8772407 L161.9719,59.7362407 L162.2232,59.6482407 L162.4165,59.6032407 L162.5443,59.5892407 L162.591,59.5922407 L162.5868,59.5922407 L162.5582,59.5742407 L162.5321,59.5502407 L162.5412,59.5692407 L162.5714,59.6442407 L162.6029,59.7812407 L162.6256,59.9902407 L162.632,60.2562407 L162.6154,60.5732407 L162.5729,60.9432407 L162.5064,61.3552407 L162.4137,61.8092407 L162.294,62.3032407 L162.1504,62.8332407 L161.9812,63.3972407 L161.7863,63.9972407 L161.5688,64.6272407 L161.3271,65.2872407 L161.0613,65.9772407 L160.7743,66.6942407 L160.4646,67.4382407 L160.1325,68.2092407 L159.7806,69.0032407 L159.4077,69.8202407 L159.0158,70.6572407 L158.1704,72.4042407 L157.7124,73.3122407 L157.2531,74.2222407 L156.7578,75.1672407 L156.2621,76.1132407 L155.7356,77.0882407 L155.2093,78.0632407 L154.651,79.0642407 L154.0926,80.0662407 L153.5044,81.0922407 L152.9159,82.1172407 L152.3019,83.1612407 L151.6883,84.2042407 L151.0492,85.2632407 L150.4102,86.3212407 L149.7475,87.3922407 L149.0844,88.4622407 L148.4016,89.5402407 L147.7191,90.6162407 L147.0166,91.6972407 L146.3154,92.7782407 L145.5964,93.8592407 L144.8772,94.9402407 L144.1436,96.0172407 L143.4105,97.0932407 L142.6637,98.1612407 L141.9171,99.2292407 L141.1595,100.286241 L140.4018,101.342241 L139.6352,102.384241 L138.8692,103.425241 L138.0955,104.446241 L137.322,105.466241 L136.5431,106.463241 L135.7641,107.459241 L134.9817,108.430241 L134.2002,109.401241 L133.4171,110.339241 L132.6345,111.277241 L131.8525,112.178241 L131.0684,113.082241 L130.2896,113.954241 L129.5115,114.807241 L128.7357,115.637241 L127.963,116.446241 L127.1945,117.231241 L126.43,117.990241 L125.6701,118.726241 L124.9162,119.434241 L124.1675,120.113241 L123.4251,120.765241 L122.691,121.387241 L121.9644,121.977241 L121.246,122.538241 L120.5382,123.065241 L119.8398,123.558241 L119.1518,124.019241 L118.4773,124.442241 L117.8142,124.829241 L116.8974,125.329241 L115.9823,125.828241 L115.0752,126.291241 L114.1682,126.754241 L113.269,127.181241 L112.3734,127.606241 L110.584,128.399241 L108.817,129.121241 L107.0647,129.776241 L105.3274,130.371241 L103.608,130.901241 L101.9035,131.368241 L100.2141,131.781241 L98.5427,132.132241 L96.8861,132.426241 L95.2443,132.667241 L93.6208,132.852241 L92.0119,132.984241 L90.4177,133.068241 L88.8416,133.099241 L87.2798,133.080241 L85.7328,133.016241 L84.2036,132.904241 L82.6889,132.746241 L81.1889,132.546241 L79.7066,132.302241 L78.239,132.016241 L76.7861,131.691241 L75.351,131.326241 L73.9308,130.922241 L72.5254,130.483241 L71.1379,130.009241 L69.7656,129.498241 L68.4085,128.956241 L67.0697,128.382241 L65.7467,127.775241 L64.4391,127.141241 L63.1499,126.478241 L61.8767,125.787241 L60.6193,125.072241 L59.3811,124.332241 L58.1596,123.567241 L56.9542,122.782241 L55.7677,121.976241 L54.6025,121.153241 L53.4535,120.298241 L52.3103,119.446241 L51.2058,118.563241 L50.0998,117.678241 L49.0326,116.768241 L47.963,115.856241 L46.929,114.926241 L45.8955,113.996241 L44.902,113.050241 L43.9073,112.103241 L42.9527,111.147241 L41.9961,110.189241 L41.0763,109.228241 L40.1566,108.266241 L39.2774,107.306241 L38.3972,106.345241 L37.5584,105.390241 L36.716,104.432241 L35.9062,103.486241 L35.1153,102.544241 L34.3446,101.611241 L33.5918,100.686241 L32.8603,99.7732407 L32.1494,98.8722407 L31.4577,97.9822407 L30.7876,97.1082407 L30.1384,96.2492407 L29.5087,95.4072407 L28.9007,94.5832407 L28.313,93.7802407 L27.745,92.9962407 L27.1991,92.2352407 L26.6748,91.4972407 L26.1706,90.7832407 L25.6886,90.0952407 L25.2285,89.4352407 L24.7887,88.8012407 L24.3711,88.1972407 L23.9756,87.6252407 L23.6,87.0832407 L23.2462,86.5742407 L22.9147,86.1002407 L22.6028,85.6582407 L22.312,85.2522407 L22.0422,84.8832407 L21.7899,84.5472407 L21.5542,84.2462407 L21.333,83.9802407 L21.1159,83.7382407 L20.8819,83.5112407 L20.5892,83.2882407 L20.3434,83.1582407 L19.6683,83.0182407 L19.6671,83.0182407 L19.6648,83.0182407 L19.6613,83.0192407 L19.6566,83.0192407 L19.6508,83.0192407 L19.6438,83.0192407 L19.6357,83.0202407 L19.562,83.0242407 L19.419,83.0442407 L19.2719,83.0792407 L19.1251,83.1302407 L18.9831,83.1972407 L18.8504,83.2782407 L18.7302,83.3692407 L18.6247,83.4672407 L18.5745,83.5202407 L18.5691,83.5262407 L18.5644,83.5322407 L18.5604,83.5362407 L18.5573,83.5402407 L18.555,83.5422407 L18.5534,83.5442407 L18.5526,83.5452407 L18.3354,83.8672407 L17.9552,84.6422407 L17.5422,85.4682407 L17.0963,86.3482407 L16.623,87.2722407 L16.122,88.2412407 L15.5962,89.2512407 L15.0401,90.3112407 L14.4839,91.3722407 L13.8925,92.4922407 L13.3005,93.6142407 L12.684,94.7802407 L12.0659,95.9472407 L11.4335,97.1412407 L10.8006,98.3352407 L10.1618,99.5472407 L9.5224,100.760241 L8.8878,101.974241 L8.2531,103.187241 L7.6247,104.395241 L7.0056,105.594241 L6.3985,106.779241 L5.804,107.949241 L5.2257,109.101241 L4.6667,110.228241 L4.1262,111.332241 L3.6079,112.405241 L3.116,113.444241 L2.6498,114.450241 L2.214,115.418241 L1.8115,116.342241 L1.4411,117.225241 L1.1076,118.062241 L0.8144,118.847241 L0.5591,119.587241 L0.347,120.280241 L0.187,120.902241 L0.1168,121.230241 L0.0641,121.533241 L0.0262,121.826241 L0.0033,122.119241 L0,122.420241 L0.0223,122.724241 L0.0788,123.045241 L0.192,123.397241 L0.3803,123.756241 L0.6665,124.104241 L1.0637,124.401241 L1.4982,124.581241 L1.9251,124.656241 L2.3256,124.648241 L2.6729,124.588241 L2.9893,124.494241 L3.2926,124.373241 L3.5823,124.231241 L3.8701,124.070241 L4.1651,123.886241 L4.4659,123.681241 L4.7766,123.454241 L5.1023,123.202241 L5.4594,122.911241 L5.8262,122.578241 L6.2022,122.183241 L6.571,121.748241 L6.9399,121.274241 L7.3144,120.752241 L7.6928,120.188241 L8.0774,119.583241 L8.4707,118.934241 L8.8715,118.242241 L9.2799,117.513241 L9.6973,116.742241 L10.1227,115.932241 L10.5556,115.087241 L10.997,114.204241 L11.4459,113.286241 L11.9008,112.336241 L12.3625,111.353241 L12.8318,110.335241 L13.3083,109.281241 L13.7856,108.226241 L14.2754,107.114241 L14.7648,106.003241 L15.2652,104.842241 L15.766,103.681241 L16.2794,102.463241 L16.7903,101.251241 L17.3011,100.039241 L17.8148,98.8202407 L18.342,97.5362407 L18.8673,96.2602407 L19.3987,94.9862407 L19.9318,93.7082407 L20.4723,92.3922407 L21.011,91.0802407 L21.5498,89.7682407 L22.0892,88.4552407 L22.625,87.1262407 L23.1589,85.7992407 L23.692,84.4692407 L24.2251,83.1412407 L24.7556,81.8172407 L25.2861,80.4942407 L25.8117,79.1802407 L26.3361,77.8662407 L26.8552,76.5692407 L27.3741,75.2732407 L27.8862,74.0002407 L28.3983,72.7272407 L28.9044,71.4742407 L29.4049,70.2372407 L29.9005,69.0182407 L30.3911,67.8172407 L30.876,66.6372407 L31.3548,65.4792407 L31.8276,64.3432407 L32.2933,63.2342407 L32.7511,62.1512407 L33.2019,61.0952407 L33.6445,60.0692407 L34.0786,59.0752407 L34.5047,58.1122407 L34.9212,57.1852407 L35.328,56.2942407 L35.7254,55.4392407 L36.1116,54.6252407 L36.4867,53.8522407 L36.851,53.1192407 L37.2022,52.4342407 L37.5407,51.7952407 L37.8661,51.2022407 L38.1754,50.6632407 L38.4688,50.1772407 L38.7449,49.7452407 L38.9981,49.3762407 L39.2274,49.0712407 L39.4263,48.8322407 L39.5775,48.6732407 L39.6703,48.5932407 L39.6695,48.5902407 L39.5048,48.6502407 L39.1801,48.6802407 L38.7779,48.5782407 L38.4694,48.3712407 L38.3553,48.2362407 L38.3494,48.2262407 L38.3884,48.3422407 L38.4443,48.5882407 L38.499,48.9352407 L38.5428,49.3772407 L38.572,49.9182407 L38.5858,50.5412407 L38.581,51.2522407 L38.5565,52.0542407 L38.5136,52.9372407 L38.4499,53.9082407 L38.3639,54.9792407 C38.2898,55.8822407 38.9617,56.6742407 39.8646,56.7482407 C40.7674,56.8222407 41.5594,56.1502407 41.6334,55.2472407 Z" id="Fill-30"></path>
            <path d="M106.0701,0.318240744 L104.9551,1.11624074 L103.8637,1.94424074 L102.8173,2.79124074 L101.813,3.65924074 L100.8562,4.55524074 L99.9655,5.49024074 L99.1002,6.42624074 L98.2563,7.36424074 L97.4577,8.32124074 L96.7024,9.29924074 L95.9842,10.2922407 L95.2904,11.2882407 L94.6152,12.2872407 L93.9589,13.2932407 L93.3295,14.3072407 L92.7306,15.3342407 L92.1673,16.3792407 L91.6389,17.4372407 L91.1374,18.5062407 L90.6557,19.5842407 L90.1854,20.6652407 L89.7253,21.7502407 L89.278,22.8432407 L88.8463,23.9482407 L88.4422,25.0582407 L88.0442,26.1742407 L87.6803,27.3122407 L87.3192,28.4472407 L86.975,29.5982407 L86.6242,30.7442407 L86.2841,31.9042407 L85.9435,33.0632407 L85.6215,34.2402407 L85.3085,35.4172407 L85.0102,36.6122407 L84.7145,37.8052407 L84.4232,39.0122407 L84.1209,40.2152407 L83.813,41.4312407 L83.5093,42.6462407 L83.2378,43.8842407 L82.966,45.1212407 L82.6602,46.3642407 L82.3459,47.6032407 L82.0126,48.8522407 L81.6742,50.0992407 L81.3151,51.3572407 L80.9549,52.6192407 C80.828,53.0622407 81.0842,53.5242407 81.5271,53.6512407 C81.97,53.7782407 82.4318,53.5222407 82.5587,53.0792407 L82.9215,51.8172407 L83.2856,50.5512407 L83.6328,49.2972407 L83.9853,48.0452407 L84.329,46.8072407 L84.6814,45.5732407 L85.0506,44.3582407 L85.4201,43.1442407 L85.7474,41.9342407 L86.0704,40.7252407 L86.3988,39.5332407 L86.7382,38.3452407 L87.081,37.1712407 L87.4211,35.9992407 L87.7637,34.8422407 L88.0974,33.6852407 L88.4395,32.5442407 L88.7823,31.4052407 L89.1468,30.2832407 L89.5178,29.1682407 L89.9165,28.0742407 L90.3124,26.9822407 L90.7287,25.9082407 L91.1388,24.8282407 L91.5633,23.7712407 L92.0061,22.7222407 L92.4723,21.6872407 L92.9632,20.6682407 L93.4831,19.6672407 L94.0263,18.6812407 L94.5838,17.7042407 L95.1538,16.7372407 L95.7379,15.7772407 L96.3389,14.8252407 L96.9672,13.8882407 L97.6333,12.9712407 L98.3344,12.0732407 L99.072,11.1992407 L99.836,10.3352407 L100.6165,9.47424074 L101.4196,8.62224074 L102.2716,7.79524074 L103.1641,6.99224074 L104.0651,6.17824074 L104.9959,5.36524074 L105.9568,4.55824074 L106.9541,3.76124074 L108.0118,2.96224074 C108.742,2.42624074 108.8993,1.40024074 108.3631,0.669240744 C107.8269,-0.0607592558 106.8003,-0.217759256 106.0701,0.318240744 Z" id="Fill-31"></path>
            <path d="M139.3669,5.27224074 L138.6527,6.47324074 L137.9382,7.67624074 L137.2465,8.85424074 L136.5621,10.0382407 L135.9105,11.2062407 L135.2949,12.3952407 L134.6735,13.5532407 L134.0398,14.7042407 L133.4397,15.8462407 L132.8524,16.9962407 L132.2866,18.1322407 L131.7063,19.2602407 L131.1344,20.3722407 L130.5523,21.4812407 L129.9933,22.5822407 L129.4425,23.6882407 L128.9251,24.7962407 L128.4155,25.9062407 L127.9284,27.0152407 L127.434,28.1222407 L126.9517,29.2252407 L126.4629,30.3262407 L125.9944,31.4302407 L125.5275,32.5342407 L125.0873,33.6462407 L124.6549,34.7642407 L124.2526,35.8942407 L123.85,37.0232407 L123.466,38.1642407 L123.0758,39.3022407 L122.7057,40.4542407 L122.3355,41.6072407 L121.9991,42.7832407 L121.6709,43.9612407 L121.3761,45.1642407 L121.0833,46.3662407 L120.8168,47.5912407 L120.5391,48.8152407 L120.286,50.0672407 L120.0357,51.3192407 L119.8534,52.6112407 L119.6737,53.8992407 L119.4877,55.2112407 L119.3083,56.5382407 L119.1393,57.8832407 L118.979,59.2462407 L118.8324,60.6302407 L118.7023,62.0312407 C118.6592,62.4902407 118.9962,62.8972407 119.4549,62.9402407 C119.9135,62.9832407 120.3203,62.6462407 120.3633,62.1872407 L120.4951,60.7972407 L120.6421,59.4352407 L120.807,58.0942407 L120.9917,56.7732407 L121.1968,55.4732407 L121.426,54.1972407 L121.7028,52.9442407 L121.977,51.6962407 L122.2428,50.4752407 L122.5057,49.2542407 L122.8025,48.0642407 L123.1104,46.8752407 L123.444,45.7122407 L123.7756,44.5502407 L124.1298,43.4112407 L124.476,42.2692407 L124.8431,41.1462407 L125.2103,40.0212407 L125.606,38.9142407 L126.0082,37.8092407 L126.4442,36.7232407 L126.8806,35.6362407 L127.3382,34.5592407 L127.7879,33.4772407 L128.2565,32.4002407 L128.7235,31.3242407 L129.2193,30.2542407 L129.7216,29.1862407 L130.2594,28.1252407 L130.8048,27.0662407 L131.3698,26.0062407 L131.9273,24.9422407 L132.4967,23.8682407 L133.058,22.7892407 L133.6403,21.7012407 L134.233,20.6162407 L134.8564,19.5272407 L135.4943,18.4462407 L136.1527,17.3512407 L136.7983,16.2482407 L137.451,15.1192407 L138.1161,13.9962407 L138.823,12.8682407 L139.4939,11.7182407 L140.1704,10.5362407 L140.8396,9.34924074 L141.5233,8.13224074 L142.2072,6.91424074 C142.6605,6.12924074 142.3921,5.12624074 141.6078,4.67324074 C140.8234,4.22024074 139.8202,4.48824074 139.3669,5.27224074 Z" id="Fill-32"></path>
        </g>
    </g>
</svg>
