<?xml version="1.0" encoding="UTF-8"?>
<svg width="107px" height="259px" viewBox="0 0 107 259" version="1.1" xmlns="http://www.w3.org/2000/svg" xmlns:xlink="http://www.w3.org/1999/xlink">
    <title>115</title>
    <g id="Page-1" stroke="none" stroke-width="1" fill="none" fill-rule="evenodd">
        <g id="115" transform="translate(0.775750, 0.043000)" fill="currentColor">
            <path d="M29.768,243.754 L30.019,244.975 L30.253,246.129 L30.473,247.218 L30.679,248.249 L30.871,249.216 L31.048,250.12 L31.212,250.967 L31.362,251.751 L31.498,252.474 L31.621,253.142 L31.731,253.748 L31.827,254.294 L31.911,254.785 L31.981,255.216 L32.039,255.586 L32.084,255.899 L32.116,256.147 L32.135,256.324 L32.142,256.421 L32.141,256.473 L32.165,256.182 L32.165,256.183 L32.164,256.185 L32.164,256.188 L32.163,256.192 L32.162,256.197 L32.161,256.203 L32.16,256.21 L32.164,256.188 L32.177,256.126 L32.198,256.048 L32.229,255.952 L32.279,255.832 L32.357,255.683 L32.48,255.503 L32.673,255.298 L32.801,255.195 L32.799,255.196 L32.797,255.198 L32.795,255.199 L32.794,255.2 L32.793,255.201 L32.792,255.201 L34.733,257.879 L34.754,257.863 L32.813,255.186 L32.813,255.186 L32.813,255.186 L32.812,255.186 L32.812,255.187 L32.812,255.187 L32.811,255.187 L32.81,255.188 L32.81,255.189 L32.809,255.189 L32.808,255.19 L32.807,255.191 L32.806,255.191 L32.805,255.192 L32.803,255.193 L32.883,255.139 L33.066,255.038 L33.272,254.957 L33.493,254.904 L33.716,254.882 L33.929,254.889 L34.123,254.92 L34.294,254.968 L34.439,255.026 L34.561,255.087 L34.663,255.148 L34.747,255.207 L34.817,255.263 L34.875,255.314 L34.924,255.362 L34.965,255.404 L34.982,255.423 L34.98,255.421 L34.978,255.419 L34.976,255.417 L34.975,255.415 L34.973,255.414 L34.972,255.412 L34.971,255.411 L34.97,255.41 L34.969,255.409 L34.968,255.408 L34.968,255.407 L34.967,255.407 L34.967,255.406 L34.967,255.406 L34.967,255.406 L35.211,255.769 L35.201,255.752 L35.182,255.705 L35.136,255.57 L35.071,255.366 L34.993,255.106 L34.902,254.793 L34.801,254.427 L34.689,254.016 L34.568,253.556 L34.436,253.048 L34.296,252.497 L34.146,251.9 L33.987,251.258 L33.82,250.576 L33.644,249.85 L33.46,249.08 L33.268,248.273 L33.068,247.423 L32.86,246.532 L32.645,245.605 L32.422,244.637 L32.192,243.631 L31.956,242.589 L31.712,241.509 L31.462,240.392 L31.205,239.242 L30.942,238.055 L30.673,236.833 L30.398,235.58 L30.117,234.292 L29.83,232.97 L29.539,231.618 L29.242,230.234 L28.94,228.818 L28.633,227.374 L28.321,225.899 L28.005,224.395 L27.684,222.863 L27.359,221.303 L27.03,219.715 L26.697,218.102 L26.36,216.462 L26.02,214.795 L25.677,213.106 L25.331,211.391 L24.981,209.651 L24.628,207.891 L24.273,206.107 L23.915,204.301 L23.553,202.464 L23.192,200.627 L22.827,198.749 L22.462,196.871 L22.094,194.954 L21.724,193.038 L21.352,191.087 L20.979,189.137 L20.792,188.146 L20.605,187.153 L20.418,186.16 L20.231,185.169 L20.043,184.162 L19.856,183.153 L19.668,182.144 L19.48,181.137 L19.293,180.116 L19.105,179.094 L18.914,178.072 L18.723,177.052 L18.533,176.019 L18.342,174.983 L18.152,173.948 L17.961,172.915 L17.772,171.869 L17.582,170.822 L17.391,169.774 L17.202,168.729 L17.013,167.673 L16.823,166.615 L16.634,165.558 L16.445,164.502 L16.26,163.436 L16.075,162.368 L15.89,161.3 L15.706,160.234 L15.524,159.16 L15.341,158.083 L15.158,157.007 L14.975,155.932 L14.794,154.851 L14.613,153.768 L14.432,152.684 L14.252,151.603 L14.073,150.516 L13.895,149.426 L13.716,148.337 L13.538,147.25 L13.363,146.158 L13.187,145.063 L13.012,143.969 L12.837,142.877 L12.664,141.781 L12.491,140.683 L12.319,139.585 L12.146,138.49 L11.977,137.392 L11.808,136.292 L11.639,135.191 L11.47,134.093 L11.304,132.995 L11.138,131.893 L10.971,130.792 L10.806,129.694 L10.645,128.597 L10.485,127.496 L10.324,126.395 L10.164,125.293 L10.003,124.192 L9.843,123.091 L9.682,121.99 L9.523,120.895 L9.373,119.805 L9.222,118.708 L9.071,117.611 L8.919,116.515 L8.768,115.418 L8.616,114.322 L8.465,113.225 L8.314,112.135 L8.175,111.056 L8.035,109.969 L7.895,108.882 L7.755,107.795 L7.615,106.709 L7.475,105.622 L7.335,104.535 L7.195,103.453 L7.064,102.381 L6.933,101.304 L6.801,100.226 L6.67,99.153 L6.546,98.088 L6.421,97.019 L6.296,95.95 L6.172,94.885 L6.055,93.83 L5.937,92.771 L5.82,91.711 L5.702,90.656 L5.592,89.611 L5.482,88.561 L5.371,87.512 L5.262,86.467 L5.161,85.434 L5.059,84.397 L4.958,83.359 L4.856,82.327 L4.763,81.307 L4.67,80.283 L4.577,79.259 L4.484,78.24 L4.399,77.234 L4.313,76.223 L4.227,75.212 L4.143,74.208 L3.99,72.222 L3.839,70.237 L3.707,68.287 L3.574,66.336 L3.46,64.419 L3.345,62.502 L3.25,60.624 L3.156,58.747 L3.083,56.911 L3.01,55.073 L2.953,53.269 L2.906,51.486 L2.871,49.727 L2.846,47.989 L2.832,46.276 L2.83,44.588 L2.839,42.924 L2.86,41.287 L2.893,39.676 L2.937,38.091 L2.994,36.536 L3.063,35.008 L3.144,33.508 L3.239,32.039 L3.346,30.601 L3.465,29.191 L3.598,27.815 L3.744,26.471 L3.903,25.158 L4.075,23.88 L4.261,22.637 L4.46,21.426 L4.673,20.253 L4.901,19.117 L5.141,18.015 L5.396,16.953 L5.665,15.929 L5.948,14.943 L6.244,13.999 L6.556,13.095 L6.879,12.23 L7.216,11.41 L7.567,10.633 L7.93,9.896 L8.305,9.207 L8.695,8.561 L9.095,7.958 L9.504,7.405 L9.927,6.895 L10.36,6.429 L10.799,6.011 L11.252,5.637 L11.714,5.304 L12.182,5.017 L12.667,4.771 L13.164,4.564 L13.671,4.399 L14.195,4.277 L15.201,4.111 L16.188,4.015 L17.169,3.984 L18.143,4.012 L19.105,4.103 L20.065,4.256 L21.02,4.465 L21.966,4.733 L22.91,5.062 L23.851,5.444 L24.784,5.883 L25.716,6.38 L26.642,6.928 L27.561,7.53 L28.477,8.187 L29.387,8.891 L30.29,9.645 L31.187,10.451 L32.077,11.3 L32.959,12.196 L33.834,13.138 L34.702,14.121 L35.559,15.145 L36.409,16.212 L37.251,17.315 L38.082,18.454 L38.904,19.632 L39.717,20.841 L40.52,22.083 L41.312,23.357 L42.094,24.66 L42.866,25.99 L43.627,27.348 L44.377,28.73 L45.117,30.135 L45.845,31.563 L46.562,33.011 L47.267,34.477 L47.96,35.963 L48.641,37.463 L49.311,38.978 L49.967,40.504 L50.608,42.05 L51.249,43.594 L51.864,45.155 L52.479,46.716 L53.068,48.288 L53.657,49.861 L54.222,51.439 L54.787,53.016 L55.326,54.592 L55.864,56.168 L56.376,57.736 L56.888,59.306 L57.374,60.863 L57.861,62.42 L58.319,63.958 L58.777,65.496 L59.207,67.008 L59.637,68.52 L60.042,70.004 L60.446,71.487 L60.821,72.933 L61.196,74.379 L61.541,75.781 L61.887,77.185 L62.212,78.551 L62.523,79.893 L62.818,81.207 L63.1,82.494 L63.366,83.749 L63.617,84.972 L63.854,86.164 L64.075,87.32 L64.28,88.439 L64.472,89.522 L64.647,90.564 L64.806,91.564 L64.951,92.524 L65.079,93.439 L65.192,94.306 L65.289,95.129 L65.37,95.9 L65.435,96.619 L65.484,97.288 L65.517,97.898 L65.533,98.449 L65.535,98.942 L65.522,99.364 L65.495,99.715 L65.458,99.989 L65.421,100.16 L65.402,100.217 L65.457,100.135 L65.716,99.921 L66.116,99.807 L65.527,99.805 L64.92,99.785 L64.324,99.744 L63.741,99.687 L63.172,99.61 L62.634,99.519 L61.535,99.277 L60.509,98.969 L59.526,98.592 L58.585,98.154 L57.692,97.653 L56.837,97.086 L56.02,96.46 L55.247,95.775 L54.51,95.026 L53.808,94.222 L53.148,93.361 L52.524,92.439 L51.935,91.466 L51.385,90.439 L50.874,89.358 L50.397,88.229 L49.959,87.052 L49.559,85.826 L49.194,84.558 L48.868,83.248 L48.579,81.895 L48.324,80.506 L48.108,79.081 L47.928,77.62 L47.782,76.128 L47.672,74.606 L47.599,73.054 L47.558,71.478 L47.552,69.877 L47.581,68.253 L47.642,66.611 L47.737,64.95 L47.865,63.272 L48.023,61.581 L48.214,59.878 L48.439,58.164 L48.692,56.443 L48.976,54.715 L49.291,52.983 L49.634,51.249 L50.006,49.515 L50.408,47.783 L50.836,46.054 L51.293,44.331 L51.778,42.616 L52.287,40.91 L52.824,39.216 L53.386,37.536 L53.973,35.87 L54.584,34.223 L55.22,32.595 L55.878,30.987 L56.56,29.404 L57.265,27.847 L57.99,26.315 L58.738,24.814 L59.507,23.344 L60.295,21.905 L61.102,20.503 L61.93,19.139 L62.776,17.811 L63.639,16.527 L64.52,15.285 L65.417,14.086 L66.33,12.936 L67.259,11.835 L68.202,10.781 L69.158,9.783 L70.129,8.839 L71.112,7.949 L72.105,7.119 L73.111,6.349 L74.126,5.637 L75.149,4.991 L76.183,4.409 L77.224,3.89 L78.271,3.441 L79.328,3.061 L80.392,2.747 L81.459,2.507 L82.536,2.341 L83.621,2.243 L84.71,2.224 L85.811,2.284 L86.92,2.418 L88.035,2.634 L89.164,2.937 L90.303,3.321 L91.45,3.795 L92.623,4.371 L93.193,4.681 L93.778,5.023 L94.366,5.39 L94.957,5.779 L95.548,6.194 L96.138,6.631 L96.644,7.036 L97.124,7.469 L97.588,7.936 L98.037,8.433 L98.467,8.962 L98.881,9.525 L99.279,10.118 L99.66,10.742 L100.023,11.4 L100.372,12.088 L100.702,12.806 L101.015,13.556 L101.313,14.335 L101.592,15.144 L101.855,15.983 L102.101,16.85 L102.33,17.745 L102.542,18.669 L102.738,19.619 L102.917,20.596 L103.079,21.601 L103.226,22.63 L103.355,23.685 L103.468,24.766 L103.566,25.87 L103.648,26.998 L103.713,28.151 L103.764,29.325 L103.799,30.522 L103.818,31.742 L103.823,32.983 L103.813,34.244 L103.787,35.528 L103.748,36.83 L103.694,38.152 L103.625,39.495 L103.543,40.855 L103.446,42.234 L103.336,43.632 L103.213,45.046 L103.076,46.477 L102.926,47.924 L102.758,49.397 L102.59,50.868 L102.395,52.371 L102.201,53.873 L101.981,55.405 L101.761,56.938 L101.518,58.495 L101.276,60.052 L101.01,61.635 L100.744,63.219 L100.455,64.826 L100.167,66.434 L99.858,68.062 L99.549,69.69 L99.219,71.338 L98.889,72.986 L98.538,74.653 L98.188,76.321 L97.819,78.004 L97.451,79.686 L97.064,81.384 L96.677,83.082 L96.272,84.794 L95.866,86.505 L95.445,88.227 L95.024,89.949 L94.587,91.681 L94.15,93.413 L93.697,95.153 L93.244,96.893 L92.778,98.639 L92.315,100.386 L91.84,102.138 L91.364,103.89 L90.875,105.644 L90.387,107.399 L89.887,109.155 L89.387,110.911 L88.875,112.666 L88.364,114.421 L87.844,116.174 L87.323,117.926 L86.79,119.672 L86.255,121.421 L85.72,123.17 L85.187,124.915 L84.637,126.644 L84.086,128.378 L83.531,130.111 L82.978,131.839 L82.411,133.545 L81.843,135.255 L81.275,136.965 L80.707,138.672 L80.133,140.359 L79.558,142.047 L78.979,143.719 L78.399,145.391 L77.815,147.044 L77.232,148.697 L76.646,150.332 L76.06,151.967 L75.472,153.58 L74.884,155.193 L74.295,156.782 L73.706,158.372 L73.116,159.938 L72.526,161.504 L71.937,163.043 L71.348,164.582 L70.76,166.092 L70.172,167.602 L69.586,169.084 L69,170.567 L68.417,172.016 L67.834,173.466 L67.254,174.881 L66.675,176.297 L66.1,177.68 L65.524,179.062 L64.954,180.407 L64.384,181.752 L63.821,183.057 L63.257,184.363 L62.699,185.631 L62.142,186.898 L61.592,188.123 L61.042,189.347 L60.501,190.527 L59.959,191.708 L59.424,192.855 L58.895,193.979 L58.37,195.079 L57.85,196.157 L57.336,197.209 L56.827,198.236 L56.324,199.239 L55.827,200.216 L55.337,201.166 L54.852,202.091 L54.375,202.988 L53.905,203.856 L53.441,204.699 L52.985,205.512 L52.536,206.295 L52.095,207.051 L51.662,207.776 L51.238,208.47 L50.821,209.136 L50.414,209.768 L50.016,210.369 L49.627,210.938 L49.248,211.474 L48.88,211.976 L48.521,212.446 L48.174,212.879 L47.838,213.277 L47.514,213.641 L47.205,213.967 L46.909,214.255 L46.628,214.507 L46.366,214.718 L46.122,214.891 L45.9,215.027 L45.708,215.122 L45.543,215.182 L45.41,215.215 L45.317,215.222 L45.245,215.215 L45.187,215.199 L45.135,215.173 L45.065,215.118 L44.98,215.029 L44.887,214.897 L44.785,214.71 L44.683,214.474 L44.586,214.187 L44.496,213.846 L44.414,213.457 L44.345,213.019 L44.288,212.53 L44.243,211.995 L44.212,211.412 L44.196,210.779 L44.193,210.1 L44.206,209.373 L44.234,208.596 L44.277,207.774 L44.336,206.902 L44.412,205.974 C44.45,205.515 44.108,205.112 43.649,205.075 C43.19,205.037 42.787,205.379 42.749,205.838 L42.672,206.777 L42.611,207.673 L42.567,208.522 L42.537,209.328 L42.524,210.088 L42.527,210.803 L42.544,211.477 L42.577,212.108 L42.627,212.696 L42.691,213.246 L42.772,213.757 L42.871,214.228 L42.986,214.666 L43.124,215.071 L43.283,215.439 L43.468,215.778 L43.689,216.088 L43.945,216.356 L44.239,216.582 L44.577,216.754 L44.935,216.856 L45.302,216.892 L45.672,216.864 L46.026,216.781 L46.369,216.656 L46.71,216.488 L47.043,216.285 L47.375,216.049 L47.712,215.778 L48.05,215.474 L48.394,215.14 L48.744,214.771 L49.101,214.37 L49.465,213.939 L49.837,213.474 L50.217,212.978 L50.604,212.451 L51,211.892 L51.403,211.301 L51.814,210.682 L52.233,210.031 L52.659,209.35 L53.093,208.641 L53.535,207.901 L53.984,207.132 L54.439,206.336 L54.902,205.511 L55.372,204.658 L55.849,203.779 L56.332,202.872 L56.821,201.938 L57.316,200.979 L57.817,199.994 L58.325,198.983 L58.837,197.948 L59.355,196.888 L59.879,195.803 L60.407,194.697 L60.94,193.566 L61.479,192.41 L62.023,191.226 L62.567,190.04 L63.12,188.809 L63.673,187.579 L64.233,186.306 L64.794,185.033 L65.361,183.723 L65.928,182.413 L66.501,181.064 L67.075,179.714 L67.653,178.327 L68.232,176.94 L68.814,175.521 L69.397,174.101 L69.983,172.647 L70.57,171.194 L71.16,169.708 L71.749,168.222 L72.341,166.709 L72.933,165.195 L73.526,163.652 L74.118,162.11 L74.712,160.54 L75.305,158.971 L75.899,157.378 L76.493,155.786 L77.085,154.17 L77.678,152.554 L78.269,150.916 L78.86,149.278 L79.448,147.622 L80.037,145.966 L80.622,144.291 L81.207,142.617 L81.789,140.926 L82.371,139.234 L82.946,137.523 L83.52,135.815 L84.094,134.107 L84.669,132.394 L85.232,130.659 L85.793,128.928 L86.357,127.198 L86.922,125.463 L87.471,123.713 L88.019,121.967 L88.566,120.222 L89.115,118.473 L89.65,116.718 L90.185,114.963 L90.708,113.206 L91.231,111.448 L91.743,109.689 L92.254,107.931 L92.755,106.173 L93.255,104.416 L93.742,102.66 L94.23,100.905 L94.702,99.154 L95.171,97.402 L95.626,95.656 L96.082,93.909 L96.522,92.17 L96.962,90.431 L97.386,88.702 L97.809,86.973 L98.217,85.255 L98.626,83.536 L99.017,81.83 L99.407,80.125 L99.779,78.434 L100.151,76.743 L100.505,75.068 L100.859,73.392 L101.193,71.735 L101.527,70.077 L101.84,68.439 L102.154,66.802 L102.447,65.185 L102.74,63.567 L103.011,61.973 L103.281,60.379 L103.528,58.81 L103.775,57.241 L104,55.697 L104.225,54.152 L104.426,52.636 L104.627,51.12 L104.802,49.634 L104.976,48.151 L105.133,46.685 L105.276,45.237 L105.405,43.807 L105.521,42.392 L105.623,40.994 L105.71,39.615 L105.785,38.252 L105.844,36.908 L105.888,35.584 L105.918,34.277 L105.933,32.991 L105.933,31.725 L105.916,30.478 L105.884,29.252 L105.836,28.048 L105.773,26.864 L105.692,25.702 L105.595,24.564 L105.482,23.447 L105.35,22.352 L105.201,21.283 L105.036,20.235 L104.851,19.211 L104.649,18.214 L104.428,17.24 L104.188,16.29 L103.929,15.368 L103.651,14.47 L103.352,13.597 L103.033,12.754 L102.694,11.936 L102.333,11.145 L101.951,10.384 L101.548,9.65 L101.12,8.944 L100.671,8.271 L100.199,7.626 L99.702,7.011 L99.181,6.432 L98.638,5.883 L98.067,5.367 L97.48,4.892 L96.836,4.413 L96.196,3.962 L95.557,3.538 L94.918,3.138 L94.278,2.762 L93.626,2.406 L92.362,1.783 L91.083,1.25 L89.809,0.818 L88.538,0.473 L87.267,0.224 L86.006,0.07 L84.752,0 L83.503,0.021 L82.269,0.13 L81.045,0.317 L79.832,0.589 L78.636,0.94 L77.454,1.363 L76.286,1.862 L75.137,2.433 L74.003,3.068 L72.885,3.773 L71.787,4.542 L70.705,5.369 L69.64,6.258 L68.595,7.204 L67.567,8.203 L66.556,9.257 L65.566,10.362 L64.593,11.514 L63.639,12.715 L62.705,13.962 L61.79,15.25 L60.895,16.581 L60.022,17.952 L59.167,19.359 L58.334,20.803 L57.524,22.282 L56.734,23.79 L55.966,25.331 L55.222,26.9 L54.5,28.494 L53.801,30.114 L53.127,31.757 L52.475,33.419 L51.849,35.101 L51.249,36.801 L50.673,38.514 L50.124,40.243 L49.602,41.982 L49.106,43.731 L48.637,45.488 L48.197,47.251 L47.784,49.017 L47.4,50.786 L47.047,52.555 L46.722,54.322 L46.428,56.087 L46.166,57.846 L45.933,59.598 L45.732,61.341 L45.564,63.073 L45.427,64.792 L45.324,66.498 L45.257,68.186 L45.221,69.857 L45.222,71.508 L45.259,73.136 L45.33,74.742 L45.439,76.323 L45.586,77.874 L45.769,79.399 L45.991,80.893 L46.254,82.352 L46.554,83.779 L46.896,85.171 L47.28,86.521 L47.704,87.834 L48.173,89.107 L48.686,90.332 L49.242,91.515 L49.846,92.651 L50.497,93.733 L51.193,94.766 L51.941,95.745 L52.738,96.663 L53.582,97.525 L54.48,98.325 L55.429,99.054 L56.425,99.719 L57.476,100.313 L58.576,100.828 L59.722,101.27 L60.921,101.632 L62.146,101.906 L62.805,102.019 L63.458,102.107 L64.121,102.174 L64.795,102.22 L65.482,102.244 L66.214,102.246 L66.881,102.065 L67.372,101.647 L67.624,101.226 L67.77,100.824 L67.864,100.408 L67.923,99.969 L67.961,99.496 L67.978,98.975 L67.977,98.408 L67.959,97.796 L67.924,97.132 L67.872,96.421 L67.805,95.664 L67.722,94.858 L67.622,94.006 L67.507,93.112 L67.376,92.172 L67.229,91.19 L67.067,90.168 L66.89,89.106 L66.696,88.004 L66.488,86.868 L66.265,85.695 L66.026,84.487 L65.773,83.248 L65.504,81.977 L65.22,80.675 L64.922,79.347 L64.61,77.99 L64.281,76.605 L63.934,75.191 L63.585,73.775 L63.207,72.315 L62.83,70.854 L62.423,69.356 L62.016,67.859 L61.583,66.333 L61.149,64.806 L60.688,63.253 L60.226,61.699 L59.736,60.127 L59.247,58.554 L58.733,56.97 L58.218,55.384 L57.677,53.79 L57.134,52.196 L56.566,50.601 L55.997,49.006 L55.404,47.415 L54.81,45.823 L54.191,44.241 L53.572,42.658 L52.926,41.092 L52.282,39.529 L51.618,37.975 L50.942,36.435 L50.253,34.91 L49.553,33.399 L48.841,31.904 L48.116,30.427 L47.381,28.969 L46.632,27.531 L45.871,26.116 L45.099,24.724 L44.314,23.356 L43.516,22.017 L42.708,20.703 L41.886,19.419 L41.053,18.167 L40.209,16.945 L39.351,15.756 L38.481,14.605 L37.6,13.488 L36.705,12.408 L35.798,11.37 L34.879,10.37 L33.946,9.413 L33,8.502 L32.043,7.633 L31.069,6.811 L30.084,6.041 L29.085,5.319 L28.07,4.648 L27.043,4.034 L26.002,3.472 L24.943,2.969 L23.873,2.528 L22.79,2.145 L21.689,1.828 L20.578,1.579 L19.455,1.395 L18.316,1.282 L17.171,1.244 L16.017,1.276 L14.85,1.386 L13.686,1.573 L12.938,1.745 L12.213,1.977 L11.516,2.265 L10.841,2.605 L10.188,3.001 L9.565,3.447 L8.967,3.938 L8.392,4.48 L7.847,5.065 L7.324,5.69 L6.823,6.361 L6.348,7.072 L5.894,7.82 L5.46,8.611 L5.048,9.439 L4.655,10.302 L4.28,11.207 L3.925,12.148 L3.588,13.123 L3.268,14.136 L2.965,15.185 L2.679,16.267 L2.408,17.387 L2.154,18.54 L1.915,19.725 L1.691,20.945 L1.483,22.198 L1.289,23.482 L1.109,24.799 L0.944,26.148 L0.793,27.526 L0.656,28.936 L0.533,30.376 L0.423,31.843 L0.326,33.341 L0.243,34.867 L0.171,36.419 L0.113,38 L0.067,39.607 L0.032,41.239 L0.01,42.898 L0,44.582 L0,46.288 L0.014,48.02 L0.038,49.775 L0.073,51.551 L0.119,53.351 L0.176,55.173 L0.247,57.022 L0.318,58.872 L0.409,60.764 L0.5,62.656 L0.611,64.586 L0.722,66.515 L0.851,68.477 L0.98,70.44 L1.127,72.437 L1.274,74.431 L1.356,75.45 L1.438,76.461 L1.519,77.472 L1.602,78.488 L1.691,79.517 L1.781,80.541 L1.871,81.566 L1.961,82.595 L2.059,83.638 L2.157,84.676 L2.254,85.714 L2.353,86.756 L2.459,87.81 L2.564,88.86 L2.669,89.91 L2.774,90.964 L2.886,92.028 L2.997,93.088 L3.108,94.148 L3.22,95.212 L3.339,96.286 L3.458,97.356 L3.576,98.426 L3.696,99.499 L3.821,100.582 L3.947,101.66 L4.072,102.738 L4.198,103.821 L4.333,104.914 L4.467,106.001 L4.601,107.089 L4.735,108.176 L4.869,109.264 L5.004,110.351 L5.138,111.439 L5.273,112.533 L5.419,113.638 L5.565,114.735 L5.711,115.832 L5.856,116.93 L6.002,118.027 L6.148,119.124 L6.294,120.222 L6.441,121.325 L6.599,122.433 L6.755,123.535 L6.912,124.637 L7.068,125.739 L7.225,126.841 L7.381,127.942 L7.538,129.044 L7.695,130.15 L7.858,131.256 L8.02,132.358 L8.182,133.461 L8.346,134.566 L8.514,135.669 L8.681,136.77 L8.848,137.871 L9.016,138.974 L9.188,140.075 L9.359,141.173 L9.53,142.272 L9.701,143.372 L9.875,144.469 L10.049,145.564 L10.223,146.659 L10.397,147.756 L10.574,148.849 L10.751,149.939 L10.927,151.029 L11.104,152.121 L11.284,153.207 L11.462,154.291 L11.641,155.375 L11.821,156.461 L12.002,157.54 L12.183,158.617 L12.363,159.694 L12.545,160.773 L12.728,161.844 L12.91,162.912 L13.093,163.981 L13.274,165.052 L13.455,166.113 L13.636,167.172 L13.816,168.231 L13.997,169.292 L14.179,170.344 L14.36,171.393 L14.542,172.442 L14.724,173.493 L14.906,174.532 L15.089,175.569 L15.271,176.606 L15.453,177.645 L15.636,178.67 L15.819,179.694 L16.004,180.716 L16.19,181.741 L16.375,182.752 L16.561,183.762 L16.746,184.771 L16.932,185.783 L17.117,186.778 L17.302,187.772 L17.487,188.765 L17.673,189.762 L18.041,191.716 L18.41,193.67 L18.777,195.591 L19.145,197.512 L19.511,199.394 L19.876,201.275 L20.237,203.115 L20.599,204.955 L20.957,206.765 L21.313,208.553 L21.667,210.317 L22.018,212.06 L22.367,213.778 L22.712,215.47 L23.055,217.14 L23.393,218.783 L23.728,220.399 L24.06,221.991 L24.387,223.554 L24.71,225.088 L25.029,226.596 L25.344,228.074 L25.654,229.521 L25.96,230.94 L26.26,232.327 L26.554,233.681 L26.844,235.006 L27.128,236.297 L27.406,237.554 L27.678,238.78 L27.944,239.97 L28.204,241.124 L28.457,242.245 L28.704,243.328 L28.944,244.374 L29.177,245.385 L29.402,246.357 L29.621,247.289 L29.832,248.185 L30.035,249.04 L30.23,249.854 L30.417,250.63 L30.597,251.364 L30.767,252.054 L30.929,252.705 L31.083,253.312 L31.228,253.875 L31.364,254.397 L31.491,254.874 L31.609,255.306 L31.718,255.697 L31.819,256.044 L31.911,256.347 L31.997,256.614 L32.08,256.852 L32.17,257.077 L32.248,257.237 L32.493,257.6 L32.493,257.6 L32.493,257.601 L32.493,257.601 L32.494,257.602 L32.494,257.603 L32.495,257.603 L32.496,257.604 L32.497,257.606 L32.498,257.607 L32.5,257.608 L32.501,257.61 L32.503,257.612 L32.504,257.613 L32.506,257.616 L32.508,257.618 L32.529,257.641 L32.574,257.688 L32.626,257.739 L32.689,257.794 L32.762,257.852 L32.85,257.914 L32.955,257.978 L33.081,258.041 L33.23,258.099 L33.403,258.148 L33.601,258.18 L33.817,258.187 L34.043,258.165 L34.267,258.111 L34.476,258.029 L34.661,257.927 L34.744,257.871 L34.745,257.87 L34.747,257.869 L34.748,257.868 L34.749,257.867 L34.75,257.867 L34.75,257.866 L34.751,257.865 L34.752,257.865 L34.752,257.865 L34.753,257.864 L34.753,257.864 L34.754,257.864 L34.754,257.863 L34.754,257.863 L32.813,255.186 L32.792,255.201 L34.733,257.878 L34.734,257.878 L34.735,257.877 L34.736,257.876 L34.738,257.875 L34.74,257.874 L34.742,257.872 L34.876,257.764 L35.074,257.554 L35.202,257.368 L35.284,257.21 L35.338,257.08 L35.373,256.972 L35.397,256.882 L35.413,256.805 L35.42,256.767 L35.421,256.76 L35.422,256.754 L35.423,256.749 L35.423,256.745 L35.424,256.742 L35.424,256.74 L35.424,256.739 L35.448,256.449 L35.445,256.265 L35.427,256.018 L35.398,255.752 L35.358,255.445 L35.306,255.091 L35.243,254.691 L35.168,254.236 L35.079,253.726 L34.979,253.165 L34.866,252.545 L34.739,251.867 L34.6,251.134 L34.447,250.341 L34.28,249.487 L34.1,248.576 L33.905,247.603 L33.696,246.567 L33.473,245.473 L33.235,244.315 L32.982,243.092 C32.799,242.205 31.931,241.634 31.044,241.816 C30.157,241.999 29.586,242.866 29.768,243.754 Z" id="Fill-29"></path>
        </g>
    </g>
</svg>
