<?xml version="1.0" encoding="UTF-8"?>
<svg width="101px" height="229px" viewBox="0 0 101 229" version="1.1" xmlns="http://www.w3.org/2000/svg" xmlns:xlink="http://www.w3.org/1999/xlink">
    <title>116</title>
    <g id="Page-1" stroke="none" stroke-width="1" fill="none" fill-rule="evenodd">
        <g id="116" transform="translate(0.807750, 0.729000)" fill="currentColor">
            <path d="M25.544,225.935 L25.591,225.497 L25.63,225.012 L25.658,224.508 L25.677,223.983 L25.687,223.434 L25.688,222.864 L25.68,222.272 L25.664,221.657 L25.64,221.019 L25.608,220.361 L25.567,219.679 L25.519,218.975 L25.464,218.251 L25.401,217.503 L25.331,216.734 L25.253,215.945 L25.169,215.133 L25.078,214.297 L24.877,212.578 L24.649,210.77 L24.395,208.882 L24.12,206.924 L23.971,205.904 L23.821,204.885 L23.661,203.829 L23.501,202.773 L23.331,201.684 L23.16,200.596 L22.98,199.471 L22.8,198.347 L22.61,197.189 L22.42,196.031 L22.223,194.843 L22.025,193.656 L21.819,192.436 L21.612,191.216 L21.398,189.966 L21.184,188.716 L20.963,187.44 L20.742,186.163 L20.513,184.858 L20.285,183.553 L20.051,182.222 L19.816,180.89 L19.577,179.535 L19.337,178.18 L19.093,176.8 L18.847,175.42 L18.597,174.017 L18.346,172.614 L18.092,171.191 L17.838,169.768 L17.581,168.324 L17.323,166.879 L17.063,165.415 L16.801,163.951 L16.536,162.471 L16.272,160.99 L16.005,159.492 L15.738,157.994 L15.47,156.479 L15.202,154.965 L14.933,153.437 L14.662,151.909 L14.388,150.368 L14.113,148.827 L13.838,147.273 L13.564,145.72 L13.291,144.152 L13.017,142.581 L12.744,141.011 L12.474,139.443 L12.211,137.856 L11.947,136.266 L11.684,134.676 L11.421,133.089 L11.164,131.49 L10.906,129.886 L10.648,128.282 L10.392,126.683 L10.142,125.075 L9.892,123.463 L9.642,121.851 L9.393,120.245 L9.154,118.634 L8.914,117.017 L8.674,115.401 L8.432,113.791 L8.204,112.182 L7.975,110.567 L7.746,108.952 L7.517,107.343 L7.302,105.739 L7.086,104.128 L6.869,102.519 L6.652,100.916 L6.452,99.323 L6.251,97.723 L6.05,96.123 L5.851,94.531 L5.67,92.955 L5.488,91.37 L5.306,89.785 L5.125,88.206 L4.958,86.641 L4.79,85.073 L4.634,83.517 L4.478,81.961 L4.334,80.418 L4.191,78.874 L4.06,77.342 L3.928,75.811 L3.81,74.295 L3.692,72.779 L3.587,71.279 L3.482,69.779 L3.389,68.294 L3.298,66.81 L3.221,65.344 L3.144,63.879 L3.083,62.433 L3.021,60.987 L2.974,59.559 L2.926,58.133 L2.895,56.729 L2.863,55.325 L2.85,53.944 L2.836,52.563 L2.838,51.204 L2.84,49.846 L2.86,48.514 L2.879,47.182 L2.917,45.877 L2.955,44.572 L3.009,43.292 L3.064,42.014 L3.138,40.765 L3.212,39.517 L3.305,38.299 L3.399,37.081 L3.511,35.891 L3.622,34.703 L3.755,33.549 L3.887,32.395 L4.04,31.275 L4.193,30.155 L4.366,29.067 L4.538,27.981 L4.732,26.932 L4.926,25.883 L5.142,24.873 L5.359,23.862 L5.596,22.886 L5.831,21.921 L6.353,20.051 L6.924,18.259 L7.218,17.411 L7.529,16.574 L7.851,15.759 L8.185,14.965 L8.53,14.195 L8.888,13.448 L9.256,12.722 L9.636,12.022 L10.029,11.345 L10.432,10.69 L10.847,10.062 L11.275,9.457 L11.714,8.875 L12.163,8.32 L12.626,7.788 L13.1,7.28 L13.585,6.799 L14.084,6.341 L14.595,5.908 L15.116,5.501 L15.653,5.119 L16.202,4.76 L16.762,4.429 L17.339,4.122 L17.929,3.839 L18.532,3.582 L19.153,3.351 L19.788,3.144 L20.437,2.965 L21.09,2.815 L21.743,2.707 L22.349,2.666 L22.941,2.687 L23.517,2.76 L24.075,2.89 L24.629,3.08 L25.178,3.321 L25.716,3.62 L26.255,3.981 L26.79,4.397 L27.317,4.871 L27.841,5.406 L28.359,5.996 L28.868,6.64 L29.369,7.342 L29.862,8.093 L30.343,8.895 L30.815,9.749 L31.277,10.647 L31.728,11.59 L32.168,12.578 L32.597,13.605 L33.015,14.672 L33.422,15.777 L33.819,16.916 L34.204,18.088 L34.578,19.294 L34.941,20.528 L35.292,21.791 L35.634,23.081 L35.965,24.393 L36.286,25.729 L36.597,27.086 L36.899,28.461 L37.192,29.853 L37.474,31.259 L37.743,32.689 L38.013,34.116 L38.263,35.563 L38.515,37.011 L38.749,38.472 L38.983,39.934 L39.203,41.401 L39.423,42.868 L39.627,44.334 L39.831,45.801 L40.02,47.259 L40.21,48.718 L40.388,50.162 L40.566,51.607 L40.731,53.029 L40.896,54.452 L41.05,55.844 L41.205,57.237 L41.349,58.597 L41.494,59.957 L41.629,61.273 L41.765,62.59 L41.892,63.855 L42.018,65.121 L42.14,66.348 L42.258,67.544 L42.374,68.708 L42.486,69.841 L42.596,70.939 L42.703,71.998 L42.808,73.022 L42.911,74.006 L43.013,74.946 L43.113,75.847 L43.211,76.702 L43.309,77.509 L43.407,78.273 L43.504,78.986 L43.601,79.648 L43.699,80.262 L43.798,80.824 L43.899,81.333 L44.004,81.795 L44.115,82.212 L44.238,82.585 L44.387,82.938 L44.608,83.304 L45.022,83.691 L45.818,83.917 L46.597,83.648 L46.974,83.265 L47.189,82.908 L47.352,82.531 L47.494,82.116 L47.628,81.646 L47.761,81.104 L47.894,80.487 L48.029,79.796 L48.168,79.019 L48.309,78.164 L48.555,76.711 L48.831,75.282 L49.136,73.866 L49.467,72.464 L49.826,71.077 L50.212,69.704 L50.623,68.346 L51.059,67.005 L51.52,65.68 L52.004,64.37 L52.511,63.079 L53.04,61.806 L53.589,60.548 L54.159,59.311 L54.75,58.093 L55.358,56.892 L55.985,55.713 L56.63,54.554 L57.29,53.414 L57.966,52.297 L58.658,51.201 L59.364,50.127 L60.083,49.076 L60.815,48.048 L61.559,47.042 L62.313,46.061 L63.078,45.105 L63.852,44.172 L64.634,43.265 L65.425,42.385 L66.222,41.529 L67.025,40.701 L67.835,39.9 L68.648,39.125 L69.464,38.38 L70.284,37.663 L71.106,36.973 L71.927,36.313 L72.75,35.684 L73.573,35.082 L74.392,34.513 L75.211,33.975 L76.026,33.467 L76.836,32.992 L77.642,32.55 L78.442,32.138 L79.234,31.76 L80.018,31.416 L80.795,31.104 L81.56,30.827 L82.315,30.585 L83.06,30.375 L83.789,30.201 L84.507,30.062 L85.211,29.956 L85.897,29.887 L86.568,29.853 L87.224,29.852 L87.858,29.887 L88.477,29.958 L89.079,30.062 L89.658,30.2 L90.221,30.376 L90.766,30.584 L91.288,30.828 L91.795,31.11 L92.284,31.427 L92.751,31.78 L93.202,32.176 L93.636,32.61 L94.049,33.083 L94.442,33.604 L94.817,34.166 L95.169,34.771 L95.499,35.427 L95.807,36.127 L96.089,36.874 L96.345,37.674 L96.575,38.52 L96.776,39.415 L96.947,40.364 L97.089,41.36 L97.198,42.407 L97.274,43.509 L97.318,44.66 L97.327,45.863 L97.299,47.121 L97.237,48.428 L97.137,49.789 L96.996,51.206 L96.819,52.674 L96.601,54.196 L96.34,55.775 L96.041,57.406 L95.698,59.092 L95.309,60.838 L95.036,61.98 L94.725,63.191 L94.378,64.47 L93.998,65.807 L93.583,67.206 L93.134,68.666 L92.656,70.179 L92.145,71.749 L91.603,73.374 L91.034,75.047 L90.435,76.771 L89.807,78.545 L89.154,80.362 L88.474,82.226 L88.121,83.179 L87.768,84.133 L87.404,85.106 L87.039,86.079 L86.663,87.072 L86.286,88.065 L85.898,89.078 L85.51,90.09 L85.111,91.12 L84.713,92.149 L84.302,93.196 L83.892,94.243 L83.471,95.306 L83.05,96.37 L82.62,97.448 L82.19,98.526 L81.751,99.619 L81.311,100.712 L80.862,101.819 L80.414,102.927 L79.957,104.046 L79.5,105.165 L79.034,106.296 L78.569,107.428 L78.096,108.571 L77.622,109.714 L77.143,110.867 L76.662,112.019 L76.175,113.182 L75.688,114.345 L75.195,115.516 L74.701,116.687 L74.199,117.869 L73.696,119.051 L73.194,120.234 L72.692,121.415 L72.179,122.609 L71.666,123.805 L71.153,125 L70.641,126.194 L70.123,127.399 L69.605,128.605 L69.086,129.811 L68.569,131.016 L68.045,132.226 L67.52,133.437 L66.996,134.649 L66.472,135.859 L65.942,137.071 L65.413,138.285 L64.884,139.499 L64.356,140.712 L63.824,141.924 L63.291,143.137 L62.759,144.35 L62.227,145.562 L61.693,146.769 L61.159,147.978 L60.624,149.186 L60.087,150.392 L59.55,151.59 L59.012,152.79 L58.475,153.989 L57.937,155.187 L57.402,156.373 L56.866,157.561 L56.33,158.748 L55.794,159.935 L55.26,161.107 L54.726,162.28 L54.192,163.454 L53.658,164.626 L53.129,165.78 L52.6,166.935 L52.071,168.09 L51.542,169.243 L51.019,170.375 L50.497,171.508 L49.973,172.64 L49.451,173.772 L48.933,174.887 L48.416,176.001 L47.903,177.103 L47.39,178.204 L46.882,179.291 L46.374,180.378 L45.871,181.451 L45.368,182.524 L44.871,183.58 L44.373,184.637 L43.882,185.676 L43.391,186.715 L42.906,187.739 L42.421,188.762 L41.944,189.766 L41.466,190.77 L40.996,191.755 L40.526,192.739 L40.063,193.705 L39.599,194.671 L39.145,195.615 L38.69,196.56 L38.244,197.482 L37.798,198.404 L37.361,199.305 L36.923,200.205 L36.068,201.96 L35.233,203.664 L34.417,205.321 L33.624,206.925 L32.854,208.474 L32.105,209.971 L31.381,211.41 L30.682,212.789 L30.008,214.111 L29.361,215.369 L28.742,216.562 L28.15,217.693 L27.588,218.756 L27.057,219.747 L26.555,220.672 L26.085,221.523 L25.65,222.296 L25.246,222.998 L24.879,223.619 L24.55,224.156 L24.256,224.614 L24.007,224.98 L23.798,225.258 L23.726,225.346 L23.667,225.411 L23.633,225.443 L23.642,225.438 L23.739,225.386 L23.99,225.336 L24.39,225.445 L24.658,225.718 L24.725,225.888 L24.734,225.947 L24.734,225.933 L24.743,225.837 C24.785,225.378 24.447,224.973 23.989,224.931 C23.53,224.889 23.124,225.227 23.082,225.686 L23.068,225.844 L23.068,226.036 L23.097,226.252 L23.204,226.537 L23.534,226.876 L24.016,227.004 L24.368,226.932 L24.589,226.812 L24.74,226.692 L24.868,226.569 L24.99,226.434 L25.119,226.277 L25.366,225.947 L25.649,225.533 L25.964,225.041 L26.309,224.479 L26.688,223.839 L27.101,223.121 L27.544,222.335 L28.019,221.474 L28.526,220.54 L29.062,219.541 L29.628,218.471 L30.224,217.334 L30.846,216.136 L31.495,214.872 L32.172,213.546 L32.873,212.163 L33.599,210.721 L34.35,209.22 L35.122,207.668 L35.918,206.061 L36.735,204.401 L37.571,202.695 L38.428,200.938 L38.867,200.036 L39.305,199.134 L39.751,198.211 L40.198,197.288 L40.654,196.342 L41.109,195.397 L41.573,194.43 L42.038,193.464 L42.509,192.479 L42.981,191.493 L43.46,190.488 L43.94,189.484 L44.426,188.46 L44.913,187.436 L45.405,186.396 L45.898,185.357 L46.397,184.3 L46.896,183.243 L47.401,182.169 L47.906,181.097 L48.416,180.01 L48.927,178.923 L49.442,177.821 L49.957,176.72 L50.477,175.605 L50.997,174.489 L51.522,173.357 L52.047,172.226 L52.573,171.094 L53.099,169.962 L53.632,168.808 L54.164,167.654 L54.696,166.501 L55.229,165.346 L55.767,164.173 L56.304,163.001 L56.841,161.829 L57.379,160.657 L57.92,159.47 L58.461,158.285 L59.002,157.1 L59.544,155.914 L60.087,154.716 L60.629,153.519 L61.172,152.322 L61.715,151.124 L62.258,149.917 L62.803,148.713 L63.348,147.51 L63.893,146.305 L64.437,145.096 L64.981,143.888 L65.524,142.68 L66.068,141.471 L66.609,140.26 L67.148,139.051 L67.688,137.841 L68.227,136.63 L68.761,135.421 L69.294,134.213 L69.827,133.005 L70.361,131.796 L70.888,130.593 L71.415,129.39 L71.941,128.188 L72.468,126.983 L72.983,125.787 L73.497,124.591 L74.011,123.396 L74.526,122.199 L75.03,121.015 L75.534,119.833 L76.037,118.65 L76.541,117.467 L77.037,116.294 L77.532,115.121 L78.022,113.957 L78.511,112.793 L78.994,111.639 L79.476,110.485 L79.951,109.341 L80.427,108.196 L80.895,107.063 L81.363,105.93 L81.822,104.809 L82.282,103.689 L82.734,102.58 L83.186,101.471 L83.629,100.377 L84.072,99.282 L84.505,98.202 L84.938,97.123 L85.363,96.057 L85.787,94.992 L86.201,93.943 L86.615,92.894 L87.018,91.863 L87.422,90.832 L87.816,89.817 L88.21,88.803 L88.591,87.807 L88.973,86.812 L89.343,85.837 L89.713,84.861 L90.071,83.905 L90.43,82.948 L91.12,81.079 L91.784,79.254 L92.422,77.473 L93.032,75.739 L93.612,74.055 L94.165,72.419 L94.687,70.835 L95.177,69.307 L95.637,67.83 L96.064,66.411 L96.455,65.052 L96.815,63.748 L97.139,62.506 L97.425,61.327 L97.828,59.55 L98.185,57.825 L98.497,56.155 L98.769,54.534 L98.999,52.965 L99.186,51.45 L99.336,49.983 L99.445,48.566 L99.513,47.201 L99.546,45.883 L99.54,44.612 L99.495,43.393 L99.416,42.218 L99.3,41.09 L99.148,40.011 L98.963,38.976 L98.742,37.985 L98.487,37.042 L98.201,36.142 L97.879,35.284 L97.525,34.475 L97.139,33.708 L96.72,32.983 L96.269,32.306 L95.789,31.672 L95.276,31.082 L94.736,30.541 L94.169,30.043 L93.571,29.591 L92.951,29.188 L92.309,28.83 L91.641,28.519 L90.956,28.256 L90.254,28.037 L89.532,27.863 L88.796,27.736 L88.048,27.65 L87.284,27.607 L86.51,27.608 L85.727,27.647 L84.931,27.727 L84.127,27.847 L83.316,28.004 L82.494,28.199 L81.667,28.432 L80.834,28.699 L79.992,29.003 L79.147,29.342 L78.298,29.714 L77.443,30.121 L76.585,30.562 L75.725,31.034 L74.861,31.54 L73.997,32.079 L73.132,32.646 L72.265,33.246 L71.401,33.877 L70.537,34.536 L69.674,35.227 L68.815,35.946 L67.958,36.693 L67.106,37.47 L66.259,38.275 L65.417,39.106 L64.581,39.966 L63.752,40.852 L62.931,41.763 L62.118,42.701 L61.314,43.665 L60.521,44.652 L59.737,45.665 L58.967,46.703 L58.207,47.763 L57.461,48.847 L56.73,49.955 L56.012,51.084 L55.309,52.236 L54.623,53.409 L53.953,54.603 L53.301,55.819 L52.668,57.056 L52.054,58.311 L51.459,59.587 L50.887,60.883 L50.335,62.196 L49.806,63.529 L49.301,64.879 L48.819,66.246 L48.363,67.632 L47.933,69.034 L47.528,70.451 L47.15,71.886 L46.802,73.335 L46.482,74.799 L46.192,76.279 L45.935,77.762 L45.793,78.609 L45.659,79.35 L45.53,79.998 L45.406,80.561 L45.291,81.026 L45.184,81.397 L45.09,81.671 L45.025,81.823 L45.018,81.836 L45.178,81.684 L45.745,81.495 L46.333,81.653 L46.543,81.843 L46.564,81.871 L46.515,81.75 L46.443,81.528 L46.362,81.221 L46.276,80.833 L46.187,80.381 L46.098,79.863 L46.007,79.282 L45.914,78.648 L45.822,77.957 L45.728,77.211 L45.633,76.418 L45.537,75.574 L45.439,74.683 L45.34,73.75 L45.239,72.772 L45.136,71.752 L45.03,70.696 L44.923,69.6 L44.812,68.468 L44.698,67.304 L44.581,66.107 L44.461,64.879 L44.335,63.611 L44.209,62.343 L44.074,61.023 L43.94,59.702 L43.796,58.338 L43.652,56.973 L43.498,55.574 L43.345,54.175 L43.18,52.745 L43.014,51.315 L42.837,49.862 L42.659,48.409 L42.469,46.941 L42.279,45.472 L42.075,43.995 L41.871,42.516 L41.652,41.036 L41.433,39.556 L41.199,38.081 L40.965,36.605 L40.713,35.14 L40.462,33.675 L40.192,32.229 L39.922,30.786 L39.639,29.355 L39.346,27.939 L39.044,26.541 L38.731,25.159 L38.407,23.795 L38.073,22.454 L37.727,21.134 L37.37,19.837 L37.001,18.568 L36.622,17.323 L36.23,16.108 L35.825,14.924 L35.407,13.771 L34.975,12.65 L34.529,11.567 L34.069,10.519 L33.592,9.508 L33.1,8.539 L32.592,7.609 L32.066,6.721 L31.522,5.88 L30.959,5.082 L30.374,4.33 L29.769,3.633 L29.141,2.983 L28.485,2.386 L27.806,1.852 L27.101,1.373 L26.363,0.958 L25.601,0.616 L24.815,0.343 L23.998,0.147 L23.165,0.035 L22.315,0 L21.445,0.053 L20.584,0.188 L19.789,0.365 L19.023,0.572 L18.275,0.811 L17.543,1.078 L16.826,1.379 L16.128,1.709 L15.445,2.067 L14.778,2.456 L14.131,2.874 L13.5,3.318 L12.884,3.792 L12.288,4.293 L11.708,4.818 L11.144,5.372 L10.598,5.95 L10.069,6.551 L9.555,7.179 L9.059,7.831 L8.578,8.505 L8.113,9.204 L7.664,9.924 L7.23,10.666 L6.81,11.432 L6.407,12.218 L6.017,13.025 L5.641,13.854 L5.28,14.704 L4.932,15.573 L4.597,16.463 L4.273,17.385 L3.674,19.248 L3.126,21.196 L2.874,22.22 L2.625,23.234 L2.398,24.282 L2.171,25.331 L1.968,26.417 L1.765,27.502 L1.585,28.623 L1.405,29.741 L1.246,30.891 L1.088,32.042 L0.951,33.226 L0.815,34.41 L0.7,35.626 L0.585,36.84 L0.488,38.082 L0.392,39.324 L0.316,40.597 L0.24,41.869 L0.184,43.17 L0.127,44.47 L0.088,45.794 L0.048,47.119 L0.027,48.471 L0.007,49.822 L0.003,51.198 L0,52.573 L0.013,53.97 L0.025,55.368 L0.053,56.788 L0.081,58.208 L0.125,59.65 L0.169,61.091 L0.227,62.55 L0.285,64.01 L0.358,65.49 L0.431,66.969 L0.518,68.466 L0.604,69.962 L0.702,71.474 L0.801,72.986 L0.913,74.514 L1.025,76.042 L1.15,77.585 L1.275,79.126 L1.41,80.681 L1.544,82.235 L1.69,83.802 L1.835,85.368 L1.992,86.946 L2.149,88.525 L2.32,90.117 L2.491,91.703 L2.662,93.289 L2.833,94.883 L3.024,96.493 L3.214,98.094 L3.404,99.695 L3.595,101.304 L3.803,102.922 L4.01,104.534 L4.218,106.145 L4.427,107.762 L4.65,109.384 L4.872,111 L5.094,112.616 L5.316,114.238 L5.551,115.861 L5.787,117.478 L6.023,119.095 L6.261,120.717 L6.508,122.334 L6.755,123.946 L7.001,125.559 L7.249,127.175 L7.503,128.784 L7.757,130.388 L8.011,131.992 L8.265,133.601 L8.526,135.195 L8.786,136.786 L9.046,138.377 L9.306,139.971 L9.568,141.547 L9.825,143.12 L10.083,144.693 L10.34,146.268 L10.599,147.828 L10.858,149.387 L11.118,150.933 L11.377,152.48 L11.639,154.011 L11.904,155.542 L12.168,157.059 L12.432,158.576 L12.694,160.076 L12.957,161.576 L13.217,163.059 L13.478,164.541 L13.737,166.007 L13.997,167.471 L14.255,168.916 L14.512,170.361 L14.766,171.784 L15.019,173.208 L15.269,174.61 L15.519,176.013 L15.764,177.392 L16.01,178.771 L16.251,180.125 L16.492,181.478 L16.727,182.808 L16.963,184.138 L17.192,185.441 L17.421,186.743 L17.644,188.017 L17.866,189.291 L18.082,190.538 L18.298,191.784 L18.507,192.999 L18.715,194.215 L18.914,195.398 L19.114,196.581 L19.305,197.734 L19.497,198.886 L19.678,200.004 L19.86,201.122 L20.032,202.204 L20.203,203.285 L20.365,204.334 L20.527,205.381 L20.677,206.391 L20.828,207.398 L21.105,209.339 L21.36,211.203 L21.589,212.982 L21.791,214.677 L21.882,215.488 L21.966,216.28 L22.043,217.049 L22.113,217.796 L22.176,218.519 L22.231,219.217 L22.279,219.893 L22.319,220.543 L22.351,221.167 L22.376,221.768 L22.392,222.341 L22.4,222.887 L22.401,223.407 L22.393,223.898 L22.378,224.36 L22.354,224.794 L22.323,225.195 L22.282,225.588 C22.186,226.489 22.838,227.297 23.739,227.393 C24.64,227.488 25.448,226.836 25.544,225.935 Z" id="Fill-28"></path>
        </g>
    </g>
</svg>
