<?xml version="1.0" encoding="UTF-8"?>
<svg width="95px" height="228px" viewBox="0 0 95 228" version="1.1" xmlns="http://www.w3.org/2000/svg" xmlns:xlink="http://www.w3.org/1999/xlink">
    <title>117</title>
    <g id="Page-1" stroke="none" stroke-width="1" fill="none" fill-rule="evenodd">
        <g id="117" transform="translate(0.777750, 0.201000)" fill="currentColor">
            <path d="M20.825,224.796 L20.824,224.796 L20.824,224.796 L20.824,224.796 L20.824,224.796 L20.824,224.796 L20.824,224.795 L20.824,224.795 L20.824,224.795 L20.824,224.795 L20.823,224.795 L20.823,224.795 L20.823,224.794 L20.823,224.794 L20.822,224.794 L20.822,224.793 L21.095,225.11 L21.318,225.621 L21.364,225.927 L21.363,226.11 L21.351,226.227 L21.339,226.307 L21.327,226.364 L21.317,226.407 L21.308,226.439 L21.301,226.464 L21.295,226.484 L21.29,226.5 L21.286,226.513 L21.283,226.523 L21.28,226.531 L21.277,226.537 L21.277,226.537 L21.279,226.533 L21.28,226.529 L21.282,226.525 L21.283,226.522 L21.284,226.519 L21.285,226.516 L21.286,226.514 L21.287,226.511 L21.288,226.51 L21.288,226.508 L21.289,226.506 L21.289,226.505 L21.289,226.504 L21.29,226.504 L21.29,226.504 L21.261,226.577 L21.313,226.453 L21.392,226.275 L21.504,226.027 L21.647,225.714 L21.818,225.344 L22.018,224.913 L22.246,224.424 L22.499,223.883 L22.779,223.286 L23.085,222.635 L23.415,221.935 L23.77,221.183 L24.149,220.38 L24.549,219.533 L24.973,218.637 L25.42,217.694 L25.886,216.709 L26.374,215.679 L26.882,214.607 L27.409,213.496 L27.955,212.343 L28.521,211.152 L29.103,209.925 L29.702,208.661 L30.319,207.36 L30.951,206.028 L31.599,204.662 L32.262,203.264 L32.938,201.838 L33.628,200.381 L34.332,198.895 L35.048,197.385 L35.776,195.848 L36.516,194.286 L37.265,192.701 L38.024,191.094 L38.793,189.465 L39.571,187.818 L40.358,186.152 L41.152,184.468 L41.956,182.761 L42.76,181.054 L43.576,179.318 L44.392,177.583 L45.218,175.823 L46.044,174.064 L46.877,172.288 L47.708,170.51 L48.544,168.718 L49.38,166.927 L50.219,165.126 L51.058,163.326 L51.897,161.521 L52.73,159.713 L53.561,157.906 L54.392,156.099 L55.219,154.297 L56.046,152.495 L56.868,150.704 L57.696,148.915 L58.515,147.141 L59.334,145.367 L60.142,143.614 L60.95,141.86 L61.745,140.129 L62.541,138.398 L63.32,136.697 L64.1,134.995 L64.861,133.328 L65.622,131.662 L66.364,130.031 L67.105,128.4 L67.821,126.812 L68.538,125.224 L69.229,123.685 L69.92,122.147 L70.592,120.645 L71.249,119.171 L71.891,117.726 L72.517,116.308 L73.127,114.922 L73.72,113.57 L74.298,112.248 L74.857,110.962 L75.397,109.712 L75.92,108.497 L76.423,107.32 L76.906,106.184 L77.369,105.085 L77.81,104.029 L78.23,103.016 L78.629,102.044 L79.005,101.118 L79.356,100.24 L79.467,99.957 L79.591,99.637 L79.727,99.281 L79.874,98.89 L80.033,98.464 L80.203,98.001 L80.383,97.508 L80.574,96.979 L80.775,96.418 L80.984,95.828 L81.204,95.205 L81.432,94.552 L81.667,93.872 L81.911,93.162 L82.161,92.424 L82.418,91.661 L82.682,90.871 L82.951,90.056 L83.225,89.217 L83.504,88.354 L83.788,87.468 L84.076,86.561 L84.367,85.632 L84.662,84.682 L84.96,83.707 L85.259,82.73 L85.561,81.717 L85.864,80.703 L86.168,79.656 L86.471,78.609 L86.775,77.535 L87.079,76.461 L87.381,75.359 L87.683,74.257 L87.981,73.132 L88.28,72.007 L88.573,70.864 L88.867,69.721 L89.153,68.56 L89.44,67.399 L89.716,66.225 L89.993,65.051 L90.259,63.868 L90.525,62.683 L90.778,61.492 L91.031,60.301 L91.269,59.106 L91.507,57.911 L91.729,56.716 L91.952,55.52 L92.155,54.327 L92.359,53.133 L92.542,51.945 L92.724,50.758 L92.886,49.58 L93.047,48.4 L93.184,47.233 L93.32,46.065 L93.43,44.913 L93.54,43.762 L93.624,42.629 L93.708,41.493 L93.762,40.379 L93.815,39.265 L93.837,38.176 L93.857,37.088 L93.846,36.027 L93.834,34.962 L93.786,33.929 L93.737,32.885 L93.565,30.912 L93.448,29.924 L93.312,28.968 L93.154,28.033 L92.975,27.117 L92.773,26.22 L92.548,25.347 L92.299,24.495 L92.024,23.664 L91.724,22.86 L91.398,22.078 L91.044,21.321 L90.662,20.593 L90.253,19.891 L89.811,19.216 L89.34,18.575 L88.839,17.963 L88.303,17.383 L87.737,16.841 L87.14,16.334 L86.507,15.863 L85.844,15.436 L85.151,15.048 L84.423,14.701 L83.668,14.403 L83.054,14.207 L82.431,14.063 L81.808,13.974 L81.184,13.933 L80.557,13.943 L79.936,14.001 L79.32,14.102 L78.704,14.247 L78.098,14.434 L77.497,14.657 L76.9,14.92 L76.311,15.217 L75.727,15.544 L75.146,15.906 L74.572,16.298 L74.003,16.717 L73.435,17.166 L72.874,17.642 L72.316,18.141 L71.76,18.667 L71.209,19.216 L70.661,19.787 L70.116,20.381 L69.568,21.003 L68.503,22.278 L67.444,23.637 L66.402,25.06 L65.374,26.536 L64.362,28.062 L63.368,29.628 L62.392,31.224 L61.437,32.848 L60.505,34.487 L59.596,36.135 L58.711,37.785 L57.854,39.427 L57.024,41.054 L56.224,42.658 L55.456,44.23 L54.72,45.765 L54.019,47.252 L53.356,48.681 L52.728,50.051 L52.14,51.348 L51.596,52.561 L51.339,53.138 L51.093,53.691 L50.859,54.219 L50.635,54.723 L50.424,55.201 L50.225,55.65 L50.037,56.073 L49.863,56.465 L49.701,56.826 L49.552,57.156 L49.417,57.452 L49.296,57.712 L49.189,57.936 L49.1,58.118 L49.029,58.255 L48.983,58.339 L48.985,58.338 L49.009,58.303 L49.469,57.967 L49.469,57.967 L49.469,57.967 L49.468,57.967 L49.468,57.968 L49.467,57.968 L49.466,57.968 L49.466,57.968 L49.465,57.969 L49.464,57.969 L49.463,57.97 L49.461,57.97 L49.46,57.971 L49.459,57.971 L49.457,57.972 L49.455,57.973 L49.493,57.958 L49.578,57.929 L49.677,57.904 L49.788,57.886 L49.913,57.879 L50.048,57.885 L50.19,57.908 L50.332,57.949 L50.468,58.007 L50.592,58.079 L50.701,58.159 L50.794,58.244 L50.87,58.329 L50.93,58.411 L50.979,58.488 L51.016,58.559 L51.031,58.591 L51.031,58.589 L51.03,58.587 L51.029,58.586 L51.028,58.584 L51.028,58.583 L51.027,58.582 L51.027,58.581 L51.026,58.58 L51.026,58.579 L51.026,58.578 L51.026,58.578 L51.025,58.577 L51.025,58.577 L51.025,58.577 L51.025,58.577 L51.134,59.114 L51.131,59.127 L51.134,59.109 L51.156,59.001 L51.197,58.824 L51.254,58.594 L51.329,58.31 L51.422,57.973 L51.531,57.588 L51.657,57.149 L51.802,56.652 L52.078,55.694 L52.362,54.672 L52.649,53.594 L52.939,52.467 L53.229,51.29 L53.518,50.068 L53.802,48.806 L54.081,47.503 L54.352,46.164 L54.613,44.795 L54.863,43.395 L55.098,41.968 L55.319,40.52 L55.522,39.05 L55.704,37.565 L55.866,36.066 L56.004,34.556 L56.114,33.039 L56.199,31.518 L56.253,29.995 L56.274,28.476 L56.263,26.961 L56.215,25.453 L56.128,23.958 L56.004,22.477 L55.835,21.011 L55.62,19.569 L55.361,18.149 L55.051,16.754 L54.689,15.393 L54.275,14.062 L53.803,12.765 L53.27,11.513 L52.679,10.3 L52.021,9.133 L51.295,8.021 L50.504,6.961 L49.637,5.959 L48.712,5.04 L48.201,4.583 L47.684,4.157 L47.149,3.751 L46.596,3.363 L46.021,2.993 L45.428,2.645 L44.818,2.317 L44.185,2.008 L43.534,1.722 L42.866,1.457 L42.175,1.213 L41.465,0.993 L40.738,0.795 L39.988,0.62 L39.219,0.47 L38.432,0.342 L37.622,0.239 L36.792,0.161 L35.542,0.076 L34.316,0.022 L33.115,0 L31.937,0.006 L30.782,0.043 L29.653,0.11 L28.546,0.206 L27.461,0.332 L26.402,0.488 L25.364,0.671 L24.348,0.885 L23.357,1.127 L22.388,1.397 L21.44,1.696 L20.517,2.024 L19.615,2.377 L18.734,2.76 L17.878,3.169 L17.042,3.604 L16.228,4.068 L15.439,4.557 L14.67,5.071 L13.923,5.612 L13.199,6.178 L12.497,6.767 L11.815,7.383 L11.157,8.022 L10.519,8.683 L9.902,9.369 L9.308,10.078 L8.734,10.807 L8.18,11.56 L7.649,12.334 L7.136,13.128 L6.643,13.945 L6.172,14.781 L5.719,15.637 L5.285,16.514 L4.871,17.41 L4.475,18.323 L4.098,19.258 L3.74,20.21 L3.4,21.179 L3.077,22.169 L2.773,23.175 L2.485,24.197 L2.214,25.238 L1.961,26.296 L1.724,27.369 L1.502,28.46 L1.298,29.566 L1.109,30.688 L0.935,31.826 L0.778,32.983 L0.643,34.153 L0.507,35.327 L0.402,36.532 L0.297,37.737 L0.22,38.971 L0.145,40.203 L0.095,41.46 L0.044,42.719 L0.022,44.005 L0,45.29 L0.005,46.601 L0.01,47.911 L0.038,49.243 L0.067,50.576 L0.12,51.933 L0.173,53.29 L0.251,54.669 L0.329,56.048 L0.427,57.446 L0.526,58.844 L0.648,60.263 L0.769,61.681 L0.913,63.119 L1.056,64.556 L1.218,66.01 L1.38,67.464 L1.562,68.936 L1.744,70.407 L1.945,71.894 L2.146,73.38 L2.364,74.881 L2.582,76.381 L2.818,77.895 L3.053,79.409 L3.304,80.936 L3.555,82.462 L3.82,83.999 L4.086,85.536 L4.366,87.084 L4.646,88.632 L4.941,90.189 L5.235,91.745 L5.541,93.309 L5.847,94.873 L6.166,96.445 L6.485,98.016 L6.815,99.593 L7.146,101.17 L7.486,102.751 L7.826,104.333 L8.177,105.918 L8.527,107.503 L8.887,109.091 L9.246,110.68 L9.617,112.27 L9.988,113.857 L10.36,115.443 L10.736,117.033 L11.127,118.622 L11.516,120.206 L11.906,121.791 L12.296,123.378 L12.697,124.96 L13.097,126.538 L13.499,128.116 L13.901,129.697 L14.31,131.267 L14.718,132.836 L15.126,134.404 L15.535,135.975 L15.948,137.53 L16.358,139.084 L16.766,140.639 L17.175,142.195 L17.585,143.731 L17.994,145.266 L18.403,146.801 L18.812,148.336 L19.22,149.856 L19.627,151.376 L20.032,152.882 L20.436,154.388 L20.838,155.88 L21.24,157.372 L21.638,158.85 L22.036,160.328 L22.43,161.789 L22.823,163.25 L23.211,164.694 L23.599,166.137 L23.981,167.563 L24.363,168.989 L24.739,170.395 L25.114,171.801 L25.482,173.186 L25.849,174.571 L26.208,175.935 L26.567,177.3 L26.917,178.641 L27.267,179.982 L27.607,181.298 L27.947,182.614 L28.276,183.907 L28.606,185.2 L28.923,186.466 L29.24,187.731 L29.545,188.969 L29.85,190.207 L30.142,191.418 L30.434,192.629 L30.712,193.81 L30.991,194.99 L31.254,196.139 L31.517,197.288 L31.765,198.408 L32.014,199.526 L32.246,200.612 L32.477,201.697 L32.692,202.747 L32.906,203.797 L33.104,204.814 L33.301,205.83 L33.48,206.81 L33.658,207.787 L33.975,209.67 L34.254,211.478 L34.49,213.203 L34.682,214.847 L34.762,215.633 L34.83,216.4 L34.886,217.146 L34.931,217.87 L34.965,218.57 L34.985,219.253 C34.999,219.714 35.384,220.076 35.845,220.062 C36.305,220.048 36.667,219.663 36.653,219.203 L36.632,218.505 L36.598,217.778 L36.551,217.031 L36.493,216.264 L36.423,215.475 L36.341,214.662 L36.147,212.992 L35.907,211.237 L35.624,209.403 L35.304,207.502 L35.123,206.51 L34.943,205.521 L34.744,204.495 L34.545,203.47 L34.33,202.412 L34.114,201.355 L33.881,200.262 L33.648,199.171 L33.398,198.045 L33.148,196.92 L32.884,195.766 L32.62,194.612 L32.341,193.426 L32.062,192.241 L31.769,191.026 L31.476,189.811 L31.171,188.569 L30.866,187.328 L30.548,186.059 L30.23,184.79 L29.9,183.494 L29.572,182.198 L29.233,180.879 L28.894,179.56 L28.545,178.217 L28.196,176.874 L27.838,175.507 L27.479,174.141 L27.113,172.754 L26.748,171.368 L26.375,169.96 L26.001,168.552 L25.621,167.125 L25.241,165.698 L24.856,164.253 L24.47,162.809 L24.08,161.347 L23.689,159.884 L23.295,158.406 L22.901,156.927 L22.503,155.434 L22.105,153.942 L21.705,152.435 L21.304,150.928 L20.902,149.409 L20.5,147.889 L20.098,146.353 L19.695,144.816 L19.293,143.28 L18.891,141.745 L18.489,140.19 L18.087,138.634 L17.687,137.077 L17.29,135.522 L16.897,133.952 L16.503,132.38 L16.109,130.808 L15.716,129.238 L15.33,127.659 L14.943,126.078 L14.555,124.496 L14.167,122.919 L13.79,121.335 L13.412,119.747 L13.034,118.16 L12.657,116.577 L12.294,114.993 L11.927,113.405 L11.558,111.818 L11.19,110.234 L10.833,108.651 L10.475,107.068 L10.128,105.488 L9.78,103.908 L9.442,102.332 L9.105,100.755 L8.778,99.183 L8.451,97.612 L8.135,96.047 L7.82,94.482 L7.517,92.924 L7.215,91.366 L6.925,89.815 L6.635,88.266 L6.36,86.725 L6.084,85.185 L5.824,83.656 L5.563,82.126 L5.317,80.608 L5.071,79.09 L4.843,77.584 L4.616,76.079 L4.405,74.588 L4.195,73.097 L4.001,71.62 L3.807,70.144 L3.632,68.684 L3.458,67.224 L3.303,65.782 L3.148,64.34 L3.012,62.915 L2.876,61.49 L2.762,60.086 L2.647,58.682 L2.555,57.299 L2.463,55.916 L2.391,54.553 L2.32,53.191 L2.272,51.853 L2.225,50.515 L2.202,49.201 L2.179,47.888 L2.179,46.597 L2.179,45.308 L2.206,44.046 L2.232,42.784 L2.285,41.551 L2.337,40.317 L2.415,39.109 L2.493,37.903 L2.6,36.728 L2.706,35.553 L2.842,34.41 L2.978,33.262 L3.133,32.145 L3.303,31.042 L3.488,29.955 L3.688,28.885 L3.903,27.833 L4.134,26.798 L4.379,25.781 L4.64,24.783 L4.918,23.803 L5.21,22.84 L5.519,21.899 L5.845,20.976 L6.186,20.072 L6.543,19.189 L6.917,18.326 L7.308,17.481 L7.715,16.659 L8.14,15.858 L8.581,15.076 L9.04,14.317 L9.517,13.579 L10.01,12.861 L10.521,12.167 L11.051,11.495 L11.599,10.843 L12.163,10.215 L12.749,9.609 L13.351,9.024 L13.972,8.464 L14.615,7.926 L15.275,7.409 L15.955,6.918 L16.657,6.449 L17.378,6.003 L18.119,5.581 L18.883,5.184 L19.668,4.809 L20.473,4.46 L21.303,4.135 L22.155,3.834 L23.028,3.56 L23.927,3.311 L24.848,3.087 L25.791,2.89 L26.762,2.719 L27.755,2.574 L28.772,2.458 L29.816,2.369 L30.884,2.307 L31.977,2.273 L33.097,2.27 L34.242,2.294 L35.412,2.348 L36.611,2.433 L37.368,2.506 L38.102,2.601 L38.814,2.719 L39.506,2.856 L40.174,3.014 L40.823,3.192 L41.452,3.389 L42.058,3.604 L42.646,3.84 L43.216,4.092 L43.765,4.362 L44.296,4.65 L44.81,4.955 L45.305,5.276 L45.783,5.615 L46.246,5.969 L46.691,6.338 L47.105,6.71 L47.936,7.541 L48.686,8.416 L49.38,9.353 L50.02,10.343 L50.602,11.385 L51.131,12.482 L51.611,13.624 L52.038,14.811 L52.416,16.043 L52.748,17.312 L53.032,18.615 L53.27,19.953 L53.468,21.319 L53.622,22.709 L53.736,24.124 L53.815,25.556 L53.856,27.003 L53.862,28.463 L53.837,29.932 L53.78,31.405 L53.693,32.88 L53.581,34.354 L53.444,35.823 L53.284,37.283 L53.103,38.733 L52.903,40.167 L52.685,41.583 L52.453,42.979 L52.206,44.349 L51.948,45.69 L51.681,47.002 L51.406,48.278 L51.126,49.515 L50.842,50.714 L50.557,51.866 L50.272,52.969 L49.989,54.025 L49.711,55.023 L49.438,55.967 L49.293,56.463 L49.163,56.912 L49.05,57.311 L48.952,57.667 L48.87,57.977 L48.803,58.244 L48.749,58.477 L48.707,58.687 L48.678,58.897 L48.671,59.056 L48.781,59.594 L48.781,59.594 L48.781,59.594 L48.781,59.594 L48.781,59.595 L48.782,59.595 L48.782,59.596 L48.782,59.597 L48.783,59.598 L48.783,59.599 L48.784,59.6 L48.784,59.601 L48.785,59.603 L48.786,59.604 L48.787,59.606 L48.787,59.608 L48.804,59.643 L48.844,59.718 L48.894,59.797 L48.957,59.882 L49.035,59.969 L49.129,60.057 L49.241,60.139 L49.368,60.212 L49.507,60.271 L49.651,60.313 L49.795,60.336 L49.934,60.343 L50.062,60.335 L50.177,60.317 L50.279,60.291 L50.367,60.261 L50.408,60.245 L50.41,60.244 L50.412,60.243 L50.413,60.243 L50.414,60.242 L50.416,60.242 L50.417,60.241 L50.418,60.241 L50.419,60.24 L50.419,60.24 L50.42,60.24 L50.421,60.24 L50.421,60.239 L50.421,60.239 L50.422,60.239 L50.422,60.239 L50.882,59.904 L50.99,59.769 L51.106,59.589 L51.203,59.416 L51.301,59.226 L51.408,59.008 L51.526,58.76 L51.655,58.484 L51.796,58.176 L51.949,57.838 L52.114,57.472 L52.29,57.076 L52.479,56.651 L52.679,56.201 L52.891,55.723 L53.114,55.22 L53.348,54.694 L53.593,54.143 L53.849,53.571 L54.392,52.364 L54.976,51.077 L55.6,49.718 L56.26,48.302 L56.956,46.831 L57.688,45.313 L58.45,43.76 L59.243,42.176 L60.066,40.571 L60.914,38.954 L61.789,37.333 L62.689,35.715 L63.608,34.108 L64.548,32.521 L65.506,30.964 L66.479,29.441 L67.466,27.965 L68.468,26.544 L69.478,25.182 L70.494,23.892 L71.523,22.674 L72.027,22.108 L72.538,21.558 L73.049,21.031 L73.559,20.528 L74.066,20.053 L74.573,19.605 L75.078,19.183 L75.578,18.793 L76.075,18.431 L76.569,18.099 L77.055,17.801 L77.537,17.534 L78.013,17.298 L78.478,17.097 L78.939,16.93 L79.391,16.793 L79.831,16.692 L80.266,16.624 L80.694,16.586 L81.11,16.583 L81.526,16.613 L81.938,16.674 L82.343,16.77 L82.752,16.904 L83.352,17.146 L83.917,17.419 L84.458,17.727 L84.975,18.064 L85.463,18.431 L85.93,18.834 L86.376,19.266 L86.798,19.728 L87.2,20.225 L87.583,20.753 L87.942,21.31 L88.283,21.901 L88.604,22.522 L88.903,23.172 L89.182,23.854 L89.443,24.564 L89.682,25.301 L89.901,26.068 L90.102,26.86 L90.282,27.676 L90.443,28.52 L90.585,29.387 L90.708,30.275 L90.811,31.174 L90.969,33.083 L91.01,34.053 L91.051,35.035 L91.058,36.051 L91.065,37.071 L91.042,38.119 L91.019,39.167 L90.965,40.242 L90.911,41.318 L90.827,42.419 L90.743,43.522 L90.634,44.643 L90.524,45.765 L90.389,46.903 L90.253,48.043 L90.093,49.196 L89.933,50.351 L89.753,51.515 L89.573,52.68 L89.373,53.851 L89.172,55.023 L88.952,56.199 L88.733,57.376 L88.497,58.553 L88.262,59.73 L88.012,60.903 L87.761,62.078 L87.498,63.246 L87.234,64.415 L86.96,65.574 L86.686,66.734 L86.402,67.881 L86.118,69.028 L85.827,70.158 L85.535,71.289 L85.238,72.402 L84.941,73.514 L84.639,74.603 L84.337,75.693 L84.033,76.756 L83.729,77.819 L83.425,78.855 L83.121,79.892 L82.819,80.894 L82.516,81.897 L82.217,82.863 L81.918,83.831 L81.623,84.77 L81.33,85.688 L81.041,86.585 L80.755,87.462 L80.474,88.315 L80.199,89.144 L79.928,89.951 L79.664,90.731 L79.406,91.485 L79.154,92.214 L78.91,92.915 L78.674,93.586 L78.446,94.23 L78.226,94.843 L78.016,95.425 L77.814,95.976 L77.623,96.494 L77.442,96.978 L77.272,97.43 L77.114,97.845 L76.968,98.223 L76.834,98.567 L76.714,98.871 L76.608,99.133 L76.255,99.998 L75.877,100.909 L75.475,101.868 L75.052,102.868 L74.606,103.913 L74.138,105.001 L73.65,106.127 L73.142,107.293 L72.613,108.499 L72.066,109.74 L71.5,111.017 L70.916,112.331 L70.315,113.675 L69.697,115.053 L69.063,116.462 L68.414,117.9 L67.751,119.368 L67.074,120.863 L66.376,122.396 L65.679,123.929 L64.956,125.511 L64.233,127.092 L63.488,128.719 L62.743,130.346 L61.98,132.009 L61.216,133.672 L60.434,135.37 L59.652,137.068 L58.853,138.796 L58.054,140.523 L57.243,142.273 L56.431,144.024 L55.608,145.794 L54.785,147.565 L53.953,149.35 L53.115,151.133 L52.269,152.924 L51.424,154.716 L50.574,156.513 L49.724,158.31 L48.873,160.108 L48.027,161.909 L47.183,163.706 L46.339,165.503 L45.498,167.291 L44.656,169.079 L43.82,170.853 L42.986,172.629 L42.16,174.387 L41.334,176.145 L40.518,177.88 L39.701,179.615 L38.898,181.321 L38.095,183.028 L37.302,184.712 L36.518,186.379 L35.742,188.026 L34.975,189.656 L34.218,191.263 L33.47,192.848 L32.734,194.411 L32.01,195.95 L31.298,197.462 L30.597,198.948 L29.91,200.407 L29.237,201.834 L28.577,203.234 L27.933,204.601 L27.304,205.935 L26.691,207.237 L26.094,208.502 L25.516,209.731 L24.953,210.924 L24.41,212.078 L23.886,213.191 L23.38,214.265 L22.894,215.296 L22.43,216.283 L21.986,217.228 L21.564,218.126 L21.165,218.975 L20.787,219.78 L20.434,220.534 L20.105,221.237 L19.799,221.891 L19.519,222.492 L19.266,223.037 L19.037,223.531 L18.836,223.968 L18.662,224.346 L18.514,224.672 L18.394,224.94 L18.301,225.152 L18.238,225.303 L18.209,225.376 L18.209,225.376 L18.209,225.376 L18.208,225.377 L18.208,225.378 L18.208,225.38 L18.207,225.381 L18.206,225.383 L18.205,225.386 L18.205,225.388 L18.203,225.391 L18.202,225.394 L18.201,225.397 L18.2,225.401 L18.198,225.405 L18.197,225.409 L18.193,225.418 L18.188,225.433 L18.183,225.449 L18.177,225.466 L18.17,225.486 L18.163,225.508 L18.155,225.534 L18.147,225.564 L18.137,225.602 L18.126,225.649 L18.113,225.71 L18.1,225.793 L18.088,225.913 L18.087,226.098 L18.133,226.405 L18.357,226.918 L18.631,227.235 L18.631,227.235 L18.631,227.235 L18.632,227.236 L18.632,227.236 L18.632,227.236 L18.632,227.236 L18.633,227.237 L18.633,227.237 L18.633,227.237 L18.633,227.237 L18.633,227.237 L18.633,227.237 L18.633,227.237 L18.633,227.237 L18.633,227.237 C19.308,227.842 20.345,227.786 20.95,227.112 C21.555,226.438 21.499,225.401 20.825,224.796 Z" id="Fill-27"></path>
        </g>
    </g>
</svg>
