<?xml version="1.0" encoding="UTF-8"?>
<svg width="142px" height="210px" viewBox="0 0 142 210" version="1.1" xmlns="http://www.w3.org/2000/svg" xmlns:xlink="http://www.w3.org/1999/xlink">
    <title>119</title>
    <g id="Page-1" stroke="none" stroke-width="1" fill="none" fill-rule="evenodd">
        <g id="119" transform="translate(0.547750, 0.406000)" fill="currentColor">
            <path d="M68.014,187.067 L67.773,187.266 L67.582,187.413 L67.428,187.522 L67.318,187.594 L67.272,187.619 L67.306,187.605 L67.467,187.566 L67.847,187.562 L68.39,187.751 L68.849,188.18 L69.049,188.615 L69.086,188.851 L69.084,188.942 L69.086,188.935 L69.108,188.846 L69.15,188.703 L69.215,188.517 L69.303,188.288 L69.41,188.026 L69.539,187.732 L69.688,187.406 L69.856,187.052 L70.043,186.671 L70.249,186.262 L70.473,185.827 L70.714,185.368 L70.973,184.882 L71.247,184.373 L71.539,183.84 L71.848,183.282 L72.171,182.703 L72.51,182.1 L72.865,181.474 L73.234,180.828 L73.618,180.16 L74.017,179.469 L74.429,178.759 L74.855,178.028 L75.294,177.275 L75.746,176.504 L76.212,175.713 L76.689,174.902 L77.68,173.225 L78.199,172.349 L78.719,171.473 L79.261,170.56 L79.803,169.647 L80.364,168.702 L80.926,167.757 L81.508,166.778 L82.09,165.798 L82.691,164.785 L83.293,163.773 L83.911,162.731 L84.529,161.69 L85.164,160.617 L85.799,159.545 L86.449,158.443 L87.1,157.342 L87.763,156.214 L88.427,155.086 L89.104,153.932 L89.781,152.777 L90.47,151.597 L91.159,150.416 L91.858,149.214 L92.558,148.011 L93.268,146.785 L93.976,145.558 L94.694,144.309 L95.411,143.061 L96.136,141.793 L96.86,140.525 L97.591,139.238 L98.322,137.95 L99.059,136.644 L99.795,135.338 L100.533,134.015 L101.272,132.692 L102.013,131.354 L102.755,130.014 L103.498,128.661 L104.242,127.307 L104.986,125.941 L105.73,124.575 L106.47,123.194 L107.209,121.812 L107.946,120.419 L108.684,119.027 L109.418,117.625 L110.153,116.223 L110.884,114.813 L111.615,113.402 L112.344,111.985 L113.076,110.568 L113.799,109.143 L114.519,107.722 L115.239,106.302 L115.964,104.874 L116.671,103.437 L117.374,102.009 L118.078,100.581 L118.786,99.144 L119.472,97.704 L120.154,96.273 L120.836,94.843 L121.521,93.405 L122.188,91.968 L122.855,90.533 L123.506,89.099 L124.157,87.665 L124.792,86.234 L125.427,84.803 L126.047,83.376 L126.668,81.949 L127.27,80.527 L127.873,79.105 L128.456,77.69 L129.039,76.274 L129.602,74.867 L130.166,73.458 L130.709,72.058 L131.252,70.658 L131.773,69.269 L132.294,67.88 L132.793,66.501 L133.292,65.122 L133.766,63.755 L134.241,62.388 L134.69,61.035 L135.138,59.683 L135.562,58.344 L135.986,57.004 L136.382,55.681 L136.779,54.357 L137.146,53.05 L137.514,51.745 L137.855,50.457 L138.196,49.167 L138.505,47.897 L138.814,46.626 L139.091,45.376 L139.367,44.127 L139.612,42.899 L139.857,41.668 L140.068,40.46 L140.279,39.252 L140.454,38.068 L140.629,36.885 L140.769,35.726 L140.91,34.564 L141.011,33.428 L141.113,32.291 L141.174,31.182 L141.235,30.08 L141.268,28.985 L141.279,27.908 L141.27,26.847 L141.241,25.8 L141.19,24.765 L141.116,23.748 L141.022,22.744 L140.903,21.755 L140.761,20.783 L140.597,19.826 L140.408,18.883 L140.194,17.96 L139.957,17.052 L139.693,16.16 L139.404,15.288 L139.09,14.432 L138.748,13.594 L138.379,12.776 L137.985,11.977 L137.561,11.196 L137.11,10.438 L136.632,9.7 L136.124,8.981 L135.587,8.287 L135.023,7.615 L134.428,6.964 L133.804,6.339 L133.154,5.738 L132.471,5.16 L131.759,4.609 L131.021,4.083 L130.25,3.582 L129.451,3.11 L128.624,2.664 L127.766,2.243 L126.874,1.85 L125.83,1.44 L124.765,1.081 L123.692,0.777 L122.61,0.523 L121.516,0.32 L120.417,0.169 L119.312,0.064 L118.197,0.008 L117.081,0 L115.961,0.036 L114.834,0.118 L113.708,0.245 L112.58,0.411 L111.448,0.62 L110.317,0.869 L109.186,1.156 L108.054,1.482 L106.925,1.846 L105.797,2.243 L104.67,2.677 L103.548,3.146 L102.429,3.646 L101.312,4.18 L100.201,4.746 L99.094,5.339 L97.992,5.964 L96.898,6.617 L95.81,7.295 L94.727,8.002 L93.654,8.735 L92.589,9.491 L91.532,10.272 L90.486,11.076 L89.449,11.901 L88.422,12.749 L87.404,13.62 L86.411,14.511 L85.413,15.407 L84.441,16.339 L83.469,17.272 L82.527,18.237 L81.585,19.2 L80.673,20.19 L79.759,21.182 L78.879,22.199 L77.999,23.217 L77.156,24.257 L76.315,25.295 L75.509,26.351 L74.702,27.408 L73.935,28.479 L73.169,29.551 L72.446,30.635 L71.728,31.713 L71.036,32.806 L70.369,33.899 L69.729,34.994 L69.111,36.09 L68.519,37.188 L67.954,38.285 L67.413,39.381 L66.9,40.476 L66.417,41.568 L65.96,42.657 L65.532,43.743 L65.136,44.823 L64.769,45.897 L64.434,46.967 L64.132,48.027 L63.86,49.081 L63.623,50.127 L63.421,51.161 L63.252,52.187 L63.119,53.203 L63.025,54.205 L62.966,55.196 L62.946,56.175 L62.966,57.137 L63.025,58.086 L63.127,59.021 L63.272,59.937 L63.458,60.835 L63.69,61.717 L63.968,62.575 L64.29,63.413 L64.662,64.23 L65.082,65.018 L65.548,65.782 L66.066,66.519 L66.633,67.223 L67.246,67.898 L67.913,68.542 L68.627,69.148 L69.389,69.721 L70.203,70.258 L71.037,70.739 L71.341,70.864 L71.342,70.864 L71.346,70.865 L71.35,70.866 L71.356,70.868 L71.364,70.87 L71.374,70.873 L71.385,70.875 L71.445,70.89 L71.562,70.91 L71.689,70.921 L71.824,70.919 L71.964,70.902 L72.104,70.87 L72.241,70.822 L72.37,70.761 L72.436,70.723 L72.444,70.717 L72.451,70.713 L72.457,70.709 L72.462,70.706 L72.466,70.704 L72.468,70.703 L72.469,70.702 L72.945,70.166 L73.061,69.882 L73.138,69.481 L73.156,69.105 L73.142,68.714 L73.106,68.289 L73.048,67.814 L72.968,67.29 L72.87,66.72 L72.749,66.098 L72.608,65.425 L72.449,64.708 L72.268,63.942 L72.067,63.131 L71.847,62.279 L71.608,61.383 L71.348,60.447 L71.071,59.476 L70.773,58.467 L70.457,57.423 L70.123,56.348 L69.77,55.242 L69.398,54.106 L69.009,52.946 L68.601,51.759 L68.174,50.55 L67.731,49.32 L67.271,48.071 L66.791,46.802 L66.29,45.517 L65.787,44.229 L65.25,42.917 L64.713,41.604 L64.142,40.277 L63.571,38.95 L62.971,37.617 L62.369,36.282 L61.736,34.947 L61.102,33.612 L60.438,32.285 L59.773,30.959 L59.081,29.647 L58.388,28.334 L57.666,27.045 L56.942,25.754 L56.19,24.496 L55.44,23.243 L54.665,22.008 L53.879,20.797 L53.078,19.61 L52.264,18.447 L51.436,17.31 L50.596,16.202 L49.742,15.123 L48.874,14.077 L47.992,13.067 L47.099,12.09 L46.19,11.152 L45.268,10.256 L44.334,9.399 L43.385,8.587 L42.423,7.823 L41.448,7.103 L40.457,6.435 L39.454,5.821 L38.437,5.26 L37.404,4.755 L36.359,4.314 L35.301,3.931 L34.226,3.614 L33.141,3.367 L32.045,3.186 L30.933,3.078 L29.815,3.048 L28.688,3.091 L27.55,3.214 L26.409,3.421 L25.263,3.705 L24.109,4.076 L22.954,4.534 L21.797,5.072 L20.636,5.702 L19.474,6.422 L18.311,7.226 L17.144,8.126 L15.985,9.112 L15.392,9.65 L14.807,10.205 L14.221,10.785 L13.635,11.387 L13.048,12.015 L12.461,12.668 L11.873,13.344 L11.284,14.047 L10.695,14.775 L10.106,15.528 L9.515,16.307 L8.924,17.113 L8.333,17.944 L7.74,18.803 L7.148,19.689 L6.554,20.6 L5.96,21.54 L5.364,22.51 L4.901,23.294 L4.459,24.088 L4.041,24.889 L3.643,25.696 L3.266,26.512 L2.908,27.345 L2.266,28.993 L1.705,30.682 L1.23,32.394 L0.83,34.127 L0.512,35.885 L0.274,37.663 L0.107,39.46 L0.016,41.28 L0,43.117 L0.05,44.971 L0.171,46.846 L0.361,48.736 L0.612,50.642 L0.928,52.565 L1.308,54.503 L1.743,56.451 L1.993,57.44 L2.242,58.423 L2.52,59.415 L2.797,60.405 L3.1,61.401 L3.404,62.398 L3.736,63.403 L4.067,64.406 L4.425,65.417 L4.783,66.426 L5.164,67.441 L5.546,68.457 L5.953,69.479 L6.36,70.501 L6.791,71.528 L7.222,72.555 L7.674,73.587 L8.127,74.619 L8.602,75.656 L9.078,76.693 L9.575,77.735 L10.072,78.777 L10.588,79.823 L11.103,80.869 L11.639,81.921 L12.175,82.971 L12.731,84.026 L13.286,85.081 L13.859,86.139 L14.431,87.197 L15.022,88.259 L15.613,89.321 L16.22,90.386 L16.827,91.45 L17.45,92.518 L18.072,93.586 L18.71,94.656 L19.348,95.726 L20,96.799 L20.653,97.872 L21.318,98.946 L21.983,100.021 L22.662,101.097 L23.341,102.173 L24.031,103.252 L24.722,104.329 L25.423,105.408 L26.124,106.487 L26.837,107.567 L27.549,108.647 L28.271,109.728 L28.993,110.808 L29.724,111.888 L30.457,112.967 L31.2,114.046 L31.943,115.124 L32.693,116.203 L33.443,117.281 L34.203,118.359 L34.961,119.435 L35.719,120.51 L36.48,121.589 L37.251,122.665 L38.021,123.738 L38.791,124.811 L39.563,125.886 L40.342,126.957 L41.12,128.027 L41.898,129.096 L42.677,130.167 L43.46,131.234 L44.242,132.299 L45.023,133.365 L45.803,134.433 L46.585,135.495 L47.366,136.557 L48.146,137.618 L48.928,138.68 L49.707,139.735 L50.486,140.789 L51.265,141.844 L52.044,142.898 L52.818,143.946 L53.592,144.993 L54.366,146.041 L55.139,147.088 L55.905,148.126 L56.67,149.164 L57.436,150.202 L58.201,151.24 L58.955,152.267 L59.709,153.294 L60.463,154.322 L61.216,155.348 L61.956,156.364 L62.697,157.382 L63.437,158.399 L64.177,159.414 L64.899,160.416 L65.622,161.42 L66.345,162.425 L67.067,163.426 L67.767,164.414 L68.469,165.404 L69.171,166.394 L69.872,167.382 L70.557,168.36 L71.242,169.338 L71.914,170.307 L72.586,171.277 L73.245,172.239 L73.903,173.2 L74.549,174.153 L75.194,175.107 L75.824,176.051 L76.453,176.995 L77.067,177.93 L77.681,178.865 L78.279,179.792 L78.878,180.717 L79.459,181.633 L80.039,182.549 L80.602,183.454 L81.164,184.36 L81.709,185.256 L82.254,186.151 L82.779,187.036 L83.304,187.92 L83.808,188.793 L84.311,189.664 L85.281,191.391 L86.205,193.091 L87.083,194.766 L87.918,196.418 L88.702,198.043 L89.436,199.642 L90.122,201.215 L90.754,202.759 L91.33,204.274 L91.854,205.762 L92.32,207.218 L92.728,208.655 C92.855,209.098 93.316,209.355 93.759,209.229 C94.202,209.103 94.459,208.642 94.333,208.199 L93.917,206.735 L93.436,205.23 L92.897,203.7 L92.307,202.146 L91.66,200.565 L90.961,198.96 L90.214,197.332 L89.416,195.678 L88.569,194.001 L87.68,192.303 L86.744,190.582 L85.766,188.84 L85.256,187.957 L84.747,187.075 L84.218,186.182 L83.688,185.289 L83.139,184.386 L82.59,183.483 L82.023,182.571 L81.457,181.659 L80.872,180.737 L80.288,179.815 L79.686,178.883 L79.084,177.951 L78.467,177.011 L77.85,176.071 L77.217,175.122 L76.585,174.173 L75.937,173.214 L75.29,172.256 L74.63,171.291 L73.97,170.325 L73.296,169.351 L72.622,168.377 L71.936,167.395 L71.25,166.412 L70.547,165.419 L69.846,164.429 L69.145,163.438 L68.442,162.444 L67.719,161.437 L66.997,160.431 L66.276,159.426 L65.553,158.419 L64.812,157.399 L64.073,156.381 L63.334,155.362 L62.594,154.343 L61.841,153.313 L61.089,152.283 L60.338,151.254 L59.585,150.224 L58.822,149.183 L58.059,148.143 L57.295,147.103 L56.532,146.063 L55.761,145.013 L54.99,143.964 L54.219,142.914 L53.448,141.865 L52.674,140.807 L51.899,139.75 L51.124,138.693 L50.35,137.636 L49.574,136.572 L48.797,135.508 L48.021,134.443 L47.245,133.38 L46.471,132.311 L45.698,131.24 L44.925,130.168 L44.154,129.098 L43.387,128.023 L42.618,126.947 L41.85,125.871 L41.083,124.797 L40.324,123.72 L39.563,122.641 L38.802,121.562 L38.042,120.486 L37.294,119.408 L36.543,118.328 L35.792,117.247 L35.043,116.169 L34.303,115.09 L33.563,114.011 L32.83,112.932 L32.098,111.852 L31.374,110.774 L30.647,109.697 L29.929,108.621 L29.21,107.545 L28.502,106.469 L27.794,105.394 L27.097,104.321 L26.4,103.247 L25.714,102.174 L25.028,101.102 L24.355,100.031 L23.682,98.961 L23.022,97.892 L22.362,96.824 L21.715,95.758 L21.068,94.692 L20.437,93.628 L19.805,92.566 L19.189,91.506 L18.573,90.445 L17.972,89.388 L17.372,88.332 L16.789,87.278 L16.206,86.226 L15.641,85.177 L15.076,84.127 L14.528,83.082 L13.981,82.038 L13.453,80.998 L12.926,79.958 L12.418,78.923 L11.911,77.888 L11.424,76.857 L10.937,75.828 L10.472,74.803 L10.008,73.779 L9.566,72.761 L9.124,71.743 L8.703,70.73 L8.283,69.718 L7.887,68.713 L7.491,67.708 L7.121,66.711 L6.75,65.712 L6.402,64.72 L6.055,63.73 L5.735,62.747 L5.415,61.764 L5.122,60.79 L4.829,59.814 L4.562,58.846 L4.295,57.88 L4.057,56.922 L3.82,55.97 L3.402,54.068 L3.041,52.188 L2.742,50.33 L2.506,48.491 L2.33,46.671 L2.221,44.876 L2.179,43.101 L2.2,41.347 L2.292,39.619 L2.455,37.913 L2.685,36.23 L2.99,34.574 L3.371,32.94 L3.823,31.33 L4.353,29.748 L4.968,28.178 L5.297,27.419 L5.65,26.657 L6.025,25.899 L6.419,25.148 L6.835,24.404 L7.273,23.664 L7.854,22.722 L8.434,21.808 L9.013,20.921 L9.59,20.061 L10.165,19.23 L10.739,18.426 L11.311,17.647 L11.881,16.896 L12.449,16.172 L13.015,15.472 L13.579,14.8 L14.141,14.154 L14.701,13.531 L15.259,12.936 L15.815,12.365 L16.368,11.817 L16.919,11.296 L17.459,10.806 L18.559,9.87 L19.637,9.04 L20.706,8.301 L21.765,7.646 L22.809,7.08 L23.844,6.599 L24.868,6.194 L25.878,5.869 L26.88,5.622 L27.873,5.442 L28.852,5.336 L29.827,5.301 L30.794,5.327 L31.751,5.42 L32.705,5.58 L33.654,5.797 L34.595,6.076 L35.533,6.417 L36.467,6.812 L37.392,7.266 L38.315,7.777 L39.231,8.339 L40.14,8.953 L41.043,9.621 L41.939,10.336 L42.825,11.098 L43.704,11.908 L44.575,12.759 L45.436,13.652 L46.288,14.586 L47.13,15.557 L47.961,16.563 L48.781,17.605 L49.591,18.677 L50.389,19.78 L51.175,20.913 L51.949,22.07 L52.71,23.251 L53.457,24.452 L54.19,25.688 L54.921,26.92 L55.624,28.184 L56.327,29.45 L57.002,30.74 L57.677,32.032 L58.325,33.338 L58.974,34.645 L59.592,35.96 L60.21,37.275 L60.796,38.591 L61.384,39.909 L61.942,41.219 L62.5,42.529 L63.026,43.824 L63.551,45.119 L64.043,46.39 L64.536,47.664 L65.004,48.914 L65.455,50.147 L65.888,51.361 L66.305,52.556 L66.704,53.726 L67.086,54.871 L67.451,55.99 L67.797,57.079 L68.124,58.137 L68.433,59.164 L68.724,60.155 L68.994,61.108 L69.247,62.025 L69.48,62.899 L69.692,63.729 L69.886,64.517 L70.06,65.255 L70.212,65.943 L70.345,66.581 L70.457,67.162 L70.547,67.685 L70.617,68.149 L70.665,68.544 L70.692,68.864 L70.701,69.104 L70.696,69.226 L70.705,69.19 L70.713,69.143 L71.188,68.607 L71.187,68.608 L71.184,68.61 L71.18,68.612 L71.176,68.615 L71.17,68.619 L71.162,68.623 L71.154,68.628 L71.2,68.602 L71.309,68.55 L71.425,68.51 L71.544,68.482 L71.662,68.468 L71.773,68.467 L71.877,68.475 L71.969,68.491 L72.004,68.499 L71.993,68.496 L71.984,68.494 L71.976,68.492 L71.97,68.49 L71.965,68.489 L71.962,68.488 L71.96,68.488 L72.264,68.612 L71.494,68.168 L70.805,67.713 L70.162,67.228 L69.563,66.719 L69.012,66.186 L68.503,65.625 L68.033,65.04 L67.608,64.433 L67.222,63.798 L66.872,63.141 L66.563,62.461 L66.292,61.753 L66.056,61.024 L65.858,60.273 L65.698,59.495 L65.572,58.696 L65.484,57.878 L65.433,57.036 L65.414,56.174 L65.433,55.296 L65.488,54.396 L65.575,53.48 L65.697,52.549 L65.854,51.601 L66.043,50.639 L66.266,49.666 L66.522,48.678 L66.808,47.679 L67.126,46.672 L67.476,45.654 L67.854,44.628 L68.262,43.596 L68.701,42.556 L69.166,41.511 L69.659,40.463 L70.18,39.41 L70.727,38.356 L71.3,37.301 L71.899,36.244 L72.521,35.188 L73.167,34.134 L73.835,33.086 L74.541,32.035 L75.242,30.988 L75.988,29.952 L76.733,28.916 L77.521,27.895 L78.31,26.873 L79.133,25.867 L79.955,24.863 L80.814,23.881 L81.672,22.898 L82.563,21.941 L83.455,20.983 L84.375,20.052 L85.293,19.121 L86.239,18.225 L87.185,17.328 L88.155,16.468 L89.131,15.603 L90.113,14.773 L91.108,13.961 L92.114,13.171 L93.128,12.401 L94.148,11.656 L95.177,10.935 L96.211,10.237 L97.251,9.566 L98.296,8.922 L99.345,8.304 L100.397,7.715 L101.453,7.156 L102.51,6.626 L103.568,6.127 L104.627,5.661 L105.686,5.224 L106.743,4.823 L107.799,4.455 L108.854,4.12 L109.903,3.822 L110.95,3.562 L111.993,3.335 L113.028,3.149 L114.06,3.001 L115.086,2.89 L116.102,2.82 L117.112,2.792 L118.115,2.801 L119.106,2.853 L120.091,2.949 L121.067,3.085 L122.03,3.265 L122.986,3.492 L123.932,3.762 L124.864,4.078 L125.793,4.446 L126.578,4.794 L127.334,5.166 L128.063,5.561 L128.764,5.977 L129.433,6.414 L130.077,6.873 L130.695,7.352 L131.284,7.851 L131.847,8.372 L132.387,8.914 L132.899,9.474 L133.387,10.058 L133.853,10.661 L134.292,11.282 L134.709,11.928 L135.104,12.592 L135.474,13.275 L135.822,13.982 L136.149,14.708 L136.452,15.452 L136.733,16.219 L136.993,17.005 L137.23,17.809 L137.445,18.636 L137.64,19.48 L137.812,20.342 L137.963,21.226 L138.094,22.127 L138.203,23.045 L138.291,23.982 L138.36,24.937 L138.407,25.908 L138.433,26.897 L138.441,27.902 L138.427,28.923 L138.393,29.955 L138.332,31.022 L138.271,32.081 L138.17,33.17 L138.07,34.261 L137.931,35.379 L137.793,36.5 L137.62,37.646 L137.448,38.791 L137.24,39.962 L137.031,41.133 L136.787,42.329 L136.542,43.527 L136.267,44.745 L135.992,45.964 L135.684,47.204 L135.376,48.444 L135.037,49.706 L134.697,50.969 L134.33,52.249 L133.961,53.529 L133.563,54.826 L133.165,56.124 L132.738,57.439 L132.311,58.756 L131.86,60.086 L131.409,61.416 L130.932,62.76 L130.455,64.105 L129.953,65.463 L129.451,66.822 L128.927,68.192 L128.404,69.561 L127.858,70.941 L127.312,72.322 L126.745,73.712 L126.178,75.103 L125.592,76.501 L125.008,77.9 L124.405,79.305 L123.802,80.711 L123.181,82.123 L122.559,83.535 L121.923,84.952 L121.287,86.369 L120.635,87.789 L119.984,89.209 L119.32,90.632 L118.656,92.054 L117.975,93.476 L117.29,94.905 L116.606,96.335 L115.926,97.755 L115.224,99.172 L114.518,100.598 L113.811,102.025 L113.109,103.443 L112.389,104.853 L111.666,106.271 L110.942,107.69 L110.221,109.103 L109.492,110.508 L108.759,111.914 L108.018,113.31 L107.277,114.707 L106.532,116.095 L105.787,117.483 L105.039,118.862 L104.292,120.241 L103.543,121.609 L102.794,122.978 L102.049,124.336 L101.304,125.695 L100.56,127.042 L99.816,128.388 L99.073,129.72 L98.33,131.051 L97.591,132.367 L96.851,133.683 L96.117,134.985 L95.382,136.286 L94.653,137.569 L93.924,138.853 L93.202,140.116 L92.479,141.38 L91.763,142.625 L91.047,143.87 L90.34,145.093 L89.634,146.317 L88.938,147.517 L88.241,148.718 L87.554,149.896 L86.868,151.075 L86.194,152.228 L85.519,153.381 L84.858,154.507 L84.197,155.633 L83.549,156.734 L82.902,157.836 L82.27,158.908 L81.638,159.98 L81.023,161.022 L80.407,162.064 L79.808,163.077 L79.209,164.091 L78.629,165.071 L78.049,166.052 L77.49,166.998 L76.93,167.945 L76.389,168.86 L75.849,169.775 L75.331,170.654 L74.813,171.533 L73.824,173.215 L73.346,174.031 L72.881,174.826 L72.429,175.602 L71.988,176.36 L71.561,177.097 L71.148,177.813 L70.747,178.511 L70.361,179.187 L69.989,179.842 L69.631,180.477 L69.288,181.09 L68.96,181.681 L68.646,182.252 L68.347,182.8 L68.065,183.326 L67.798,183.83 L67.546,184.312 L67.312,184.771 L67.093,185.209 L66.89,185.625 L66.705,186.018 L66.535,186.391 L66.382,186.744 L66.246,187.076 L66.125,187.393 L66.021,187.698 L65.934,187.993 L65.864,188.291 L65.815,188.614 L65.803,188.98 L65.869,189.439 L66.141,190.039 L66.714,190.575 L67.412,190.817 L67.993,190.808 L68.398,190.702 L68.718,190.567 L69.005,190.41 L69.274,190.237 L69.543,190.045 L69.823,189.828 L70.101,189.599 C70.8,189.023 70.899,187.989 70.323,187.29 C69.747,186.591 68.713,186.491 68.014,187.067 Z" id="Fill-25"></path>
        </g>
    </g>
</svg>
