<?xml version="1.0" encoding="UTF-8"?>
<svg width="317px" height="398px" viewBox="0 0 317 398" version="1.1" xmlns="http://www.w3.org/2000/svg" xmlns:xlink="http://www.w3.org/1999/xlink">
    <title>12</title>
    <g id="Page-1" stroke="none" stroke-width="1" fill="none" fill-rule="evenodd">
        <g id="12" transform="translate(2.238000, 1.406000)">
            <path d="M124.886,188.695 C60.307,188.695 7.15,227.393 0,277.2 C0.386,277.122 0.785,277.109 1.175,277.047 C4.257,272.826 8.232,270.584 12.478,270.458 C15.528,270.368 18.715,271.355 21.794,273.445 C22.966,274.242 23.972,275.29 24.838,276.494 C25.839,275.498 26.936,274.617 28.129,273.875 C30.667,272.299 33.493,271.401 36.342,271.236 C41.09,270.96 45.914,272.713 49.659,276.781 C50.51,277.706 51.194,278.796 51.801,279.942 C52.434,279.994 52.876,280.009 53.46,280.054 C53.497,279.996 53.532,279.938 53.569,279.88 C55.204,277.397 56.925,275.291 59.084,273.957 C60.966,272.795 62.92,272.133 64.89,271.911 C66.86,271.689 68.84,271.906 70.778,272.525 C73.808,273.492 76.656,275.427 79.055,277.998 C79.148,277.878 79.242,277.76 79.337,277.64 C79.439,277.514 79.888,276.959 79.884,276.965 C79.834,277.029 79.77,277.123 79.684,277.241 C82.181,273.849 84.99,272.114 87.933,271.297 C88.712,271.081 89.422,270.953 90.157,270.867 C90.39,270.84 90.608,270.815 90.841,270.796 C90.856,270.794 90.883,270.797 90.905,270.796 C91.587,270.6 92.269,270.394 92.955,270.335 C97.912,269.907 102.815,273.002 105.735,278.735 C106.13,278.378 106.511,278.007 106.929,277.691 C108.992,274.836 111.694,272.772 114.823,272.064 C114.478,272.142 115.346,271.939 115.834,271.839 C116.686,271.666 117.537,271.544 118.441,271.481 C119.016,271.441 119.577,271.424 120.137,271.44 C121.819,271.488 123.472,271.827 125.332,272.699 C128.035,273.963 130.569,276.161 132.597,279.809 C132.917,280.384 133.212,280.975 133.481,281.579 C133.918,280.505 134.173,279.949 134.757,278.909 C135.442,277.802 135.445,277.802 135.96,277.098 C136.736,276.064 137.36,275.413 138.048,274.786 C138.5,274.373 138.852,274.094 139.242,273.803 C139.553,273.571 139.847,273.359 140.19,273.128 C140.626,272.835 141.162,272.496 141.749,272.126 C142.271,271.796 142.815,271.455 143.262,271.184 C143.52,271.028 143.748,270.894 143.954,270.775 C144.112,270.684 144.261,270.606 144.419,270.519 C144.558,270.445 144.701,270.362 144.857,270.284 C145.215,270.107 145.561,269.947 146.033,269.773 C147.636,269.179 149.235,268.951 150.791,269.026 C153.386,269.15 155.87,270.14 158.083,271.829 C159.19,272.674 160.131,273.615 161,274.642 C161.258,274.947 161.467,275.248 161.692,275.543 C162.881,276.515 163.907,277.757 164.828,279.123 C165.191,278.979 165.575,278.898 165.949,278.786 C166.081,278.62 166.183,278.46 166.323,278.295 C169.539,274.49 173.625,272.402 178.027,272.402 C181.995,272.402 185.23,274.312 187.871,277.159 C188.472,277.807 188.995,278.494 189.503,279.195 C189.807,279.485 190.13,279.746 190.414,280.065 C191.289,281.046 191.974,282.131 192.574,283.246 C192.648,283.069 192.712,282.888 192.793,282.714 C193.766,280.815 193.771,280.812 194.644,279.533 C195.445,278.475 195.443,278.484 196.111,277.752 C197.263,276.623 197.259,276.614 198.053,276.003 C199.077,275.24 199.851,274.842 200.687,274.489 C202.354,273.525 204.115,272.98 205.892,272.862 C206.621,272.814 207.303,272.847 207.97,272.924 C209.028,272.718 210.085,272.649 211.124,272.76 C215.004,273.174 218.598,275.757 221.086,279.84 C221.385,280.108 221.672,280.429 221.962,280.73 C222.104,280.614 222.235,280.459 222.381,280.351 C222.703,279.964 222.974,279.578 223.329,279.185 C223.352,279.159 223.37,279.149 223.393,279.123 C223.395,279.119 223.399,279.118 223.402,279.113 C224.505,277.396 225.638,276.178 226.829,275.185 C228.758,273.575 230.558,272.764 232.489,272.238 C234.013,271.823 235.623,271.632 237.266,271.737 C238.537,271.818 239.823,272.081 241.176,272.617 C242.282,273.054 243.369,273.652 244.421,274.448 C244.814,274.648 245.207,274.842 245.606,275.092 C247.268,276.139 248.746,277.578 250.045,279.287 C244.104,228.478 190.363,188.695 124.886,188.695 Z" id="Fill-545" fill="currentColor"></path>
            <path d="M124.886,188.695 C60.307,188.695 7.15,227.393 0,277.2 C0.386,277.122 0.785,277.109 1.175,277.047 C4.257,272.826 8.232,270.584 12.478,270.458 C15.528,270.368 18.715,271.355 21.794,273.445 C22.966,274.242 23.972,275.29 24.838,276.494 C25.839,275.498 26.936,274.617 28.129,273.875 C30.667,272.299 33.493,271.401 36.342,271.236 C41.09,270.96 45.914,272.713 49.659,276.781 C50.51,277.706 51.194,278.796 51.801,279.942 C52.434,279.994 52.876,280.009 53.46,280.054 C53.497,279.996 53.532,279.938 53.569,279.88 C55.204,277.397 56.925,275.291 59.084,273.957 C60.966,272.795 62.92,272.133 64.89,271.911 C66.86,271.689 68.84,271.906 70.778,272.525 C73.808,273.492 76.656,275.427 79.055,277.998 C79.148,277.878 79.242,277.76 79.337,277.64 C79.439,277.514 79.888,276.959 79.884,276.965 C79.834,277.029 79.77,277.123 79.684,277.241 C82.181,273.849 84.99,272.114 87.933,271.297 C88.712,271.081 89.422,270.953 90.157,270.867 C90.39,270.84 90.608,270.815 90.841,270.796 C90.856,270.794 90.883,270.797 90.905,270.796 C91.587,270.6 92.269,270.394 92.955,270.335 C97.912,269.907 102.815,273.002 105.735,278.735 C106.13,278.378 106.511,278.007 106.929,277.691 C108.992,274.836 111.694,272.772 114.823,272.064 C114.478,272.142 115.346,271.939 115.834,271.839 C116.686,271.666 117.537,271.544 118.441,271.481 C119.016,271.441 119.577,271.424 120.137,271.44 C121.819,271.488 123.472,271.827 125.332,272.699 C128.035,273.963 130.569,276.161 132.597,279.809 C132.917,280.384 133.212,280.975 133.481,281.579 C133.918,280.505 134.173,279.949 134.757,278.909 C135.442,277.802 135.445,277.802 135.96,277.098 C136.736,276.064 137.36,275.413 138.048,274.786 C138.5,274.373 138.852,274.094 139.242,273.803 C139.553,273.571 139.847,273.359 140.19,273.128 C140.626,272.835 141.162,272.496 141.749,272.126 C142.271,271.796 142.815,271.455 143.262,271.184 C143.52,271.028 143.748,270.894 143.954,270.775 C144.112,270.684 144.261,270.606 144.419,270.519 C144.558,270.445 144.701,270.362 144.857,270.284 C145.215,270.107 145.561,269.947 146.033,269.773 C147.636,269.179 149.235,268.951 150.791,269.026 C153.386,269.15 155.87,270.14 158.083,271.829 C159.19,272.674 160.131,273.615 161,274.642 C161.258,274.947 161.467,275.248 161.692,275.543 C162.881,276.515 163.907,277.757 164.828,279.123 C165.191,278.979 165.575,278.898 165.949,278.786 C166.081,278.62 166.183,278.46 166.323,278.295 C169.539,274.49 173.625,272.402 178.027,272.402 C181.995,272.402 185.23,274.312 187.871,277.159 C188.472,277.807 188.995,278.494 189.503,279.195 C189.807,279.485 190.13,279.746 190.414,280.065 C191.289,281.046 191.974,282.131 192.574,283.246 C192.648,283.069 192.712,282.888 192.793,282.714 C193.766,280.815 193.771,280.812 194.644,279.533 C195.445,278.475 195.443,278.484 196.111,277.752 C197.263,276.623 197.259,276.614 198.053,276.003 C199.077,275.24 199.851,274.842 200.687,274.489 C202.354,273.525 204.115,272.98 205.892,272.862 C206.621,272.814 207.303,272.847 207.97,272.924 C209.028,272.718 210.085,272.649 211.124,272.76 C215.004,273.174 218.598,275.757 221.086,279.84 C221.385,280.108 221.672,280.429 221.962,280.73 C222.104,280.614 222.235,280.459 222.381,280.351 C222.703,279.964 222.974,279.578 223.329,279.185 C223.352,279.159 223.37,279.149 223.393,279.123 C223.395,279.119 223.399,279.118 223.402,279.113 C224.505,277.396 225.638,276.178 226.829,275.185 C228.758,273.575 230.558,272.764 232.489,272.238 C234.013,271.823 235.623,271.632 237.266,271.737 C238.537,271.818 239.823,272.081 241.176,272.617 C242.282,273.054 243.369,273.652 244.421,274.448 C244.814,274.648 245.207,274.842 245.606,275.092 C247.268,276.139 248.746,277.578 250.045,279.287 C244.104,228.478 190.363,188.695 124.886,188.695 Z" id="Stroke-546" stroke="currentColor" stroke-width="4.360947" stroke-linejoin="bevel"></path>
            <path d="M153.668,276.529 C146.199,276.529 139.952,281.036 138.264,287.097 C143.504,286.767 147.576,286.629 151.69,286.872 C157.215,287.198 162.778,287.888 169.437,288.867 C168.576,281.934 161.849,276.529 153.668,276.529 Z" id="Fill-547" ></path>
            <path d="M153.668,276.529 C146.199,276.529 139.952,281.036 138.264,287.097 C143.504,286.767 147.576,286.629 151.69,286.872 C157.215,287.198 162.778,287.888 169.437,288.867 C168.576,281.934 161.849,276.529 153.668,276.529 Z" id="Stroke-548"  stroke-width="4.360947" stroke-linejoin="bevel"></path>
            <path d="M123.315,279.086 C116.679,279.086 111.001,282.637 108.631,287.68 C111.757,287.91 114.394,288.057 117.235,288.141 C121.207,288.258 124.544,288.087 132.193,287.486 C134.531,287.302 135.882,287.256 137.69,287.138 C135.173,282.394 129.703,279.086 123.315,279.086 Z" id="Fill-549" ></path>
            <path d="M123.315,279.086 C116.679,279.086 111.001,282.637 108.631,287.68 C111.757,287.91 114.394,288.057 117.235,288.141 C121.207,288.258 124.544,288.087 132.193,287.486 C134.531,287.302 135.882,287.256 137.69,287.138 C135.173,282.394 129.703,279.086 123.315,279.086 Z" id="Stroke-550" stroke-width="4.360947" stroke-linejoin="bevel"></path>
            <path d="M96.38,277.388 C90.029,277.388 84.585,280.649 82.051,285.348 C82.271,285.364 82.458,285.372 82.68,285.388 C86.231,285.658 89.044,285.908 95.35,286.514 C103.056,287.255 107.602,287.612 111.766,287.854 C110.038,281.843 103.811,277.388 96.38,277.388 Z" id="Fill-551" ></path>
            <path d="M96.38,277.388 C90.029,277.388 84.585,280.649 82.051,285.348 C82.271,285.364 82.458,285.372 82.68,285.388 C86.231,285.658 89.044,285.908 95.35,286.514 C103.056,287.255 107.602,287.612 111.766,287.854 C110.038,281.843 103.811,277.388 96.38,277.388 Z" id="Stroke-552" stroke-width="4.360947" stroke-linejoin="bevel"></path>
            <path d="M181.746,279.932 C175.124,279.932 169.452,283.469 167.07,288.495 C171.143,289.066 175.394,289.713 181.572,290.735 C183.898,291.12 184.898,291.276 186.166,291.482 C189.34,291.998 191.795,292.337 194.334,292.699 C194.356,290.696 194.712,288.718 195.382,286.848 C192.637,282.736 187.597,279.932 181.746,279.932 Z" id="Fill-553" ></path>
            <path d="M181.746,279.932 C175.124,279.932 169.452,283.469 167.07,288.495 C171.143,289.066 175.394,289.713 181.572,290.735 C183.898,291.12 184.898,291.276 186.166,291.482 C189.34,291.998 191.795,292.337 194.334,292.699 C194.356,290.696 194.712,288.718 195.382,286.848 C192.637,282.736 187.597,279.932 181.746,279.932 Z" id="Stroke-554"  stroke-width="4.360947" stroke-linejoin="bevel"></path>
            <path d="M218.571,281.088 C219.067,281.611 219.546,282.162 219.984,282.776 C220.109,282.952 220.191,283.132 220.312,283.308 C221.087,283.387 221.857,283.535 222.627,283.748 C221.441,282.691 220.087,281.779 218.571,281.088 Z" id="Fill-555" ></path>
            <path d="M218.571,281.088 C219.067,281.611 219.546,282.162 219.984,282.776 C220.109,282.952 220.191,283.132 220.312,283.308 C221.087,283.387 221.857,283.535 222.627,283.748 C221.441,282.691 220.087,281.779 218.571,281.088 Z" id="Stroke-556"  stroke-width="4.360947" stroke-linejoin="bevel"></path>
            <line x1="146.502" y1="206.49" x2="152.052" y2="203.749" id="Stroke-557" stroke="currentColor" stroke-width="4.360947" stroke-linejoin="bevel"></line>
            <line x1="196.013" y1="264.304" x2="195.791" y2="265.051" id="Stroke-558" stroke="currentColor" stroke-width="4.360947" stroke-linejoin="bevel"></line>
            <path d="M117.613,220.255 L120.069,220.255 L120.069,394.279 L117.613,394.279 C117.613,394.279 117.613,220.255 117.613,220.255 Z" id="Fill-559" fill="currentColor"></path>
            <path d="M117.613,220.255 L120.069,220.255 L120.069,394.279 L117.613,394.279 C117.613,394.279 117.613,220.255 117.613,220.255 Z" id="Stroke-560" stroke="currentColor" stroke-width="4.360947" stroke-linejoin="bevel"></path>
            <line x1="256.441" y1="0" x2="170.163" y2="151.144" id="Stroke-561" stroke="currentColor" stroke-width="4.360947" stroke-linejoin="bevel"></line>
            <line x1="292.002" y1="36.641" x2="185.903" y2="215.92" id="Stroke-562" stroke="currentColor" stroke-width="4.360947" stroke-linejoin="bevel"></line>
            <line x1="170.163" y1="37.949" x2="62.898" y2="218.538" id="Stroke-563" stroke="currentColor" stroke-width="4.360947" stroke-linejoin="bevel"></line>
            <line x1="266.934" y1="181.897" x2="222.629" y2="257.796" id="Stroke-564" stroke="currentColor" stroke-width="4.360947" stroke-linejoin="bevel"></line>
            <line x1="116.646" y1="35.263" x2="73.276" y2="109.992" id="Stroke-565" stroke="currentColor" stroke-width="4.360947" stroke-linejoin="bevel"></line>
            <line x1="150.925" y1="185.168" x2="136.934" y2="206.106" id="Stroke-566" stroke="currentColor" stroke-width="4.360947" stroke-linejoin="bevel"></line>
            <line x1="312.378" y1="93.875" x2="293.778" y2="124.662" id="Stroke-567" stroke="currentColor" stroke-width="4.360947" stroke-linejoin="bevel"></line>
        </g>
    </g>
</svg>
