<?xml version="1.0" encoding="UTF-8"?>
<svg width="180px" height="191px" viewBox="0 0 180 191" version="1.1" xmlns="http://www.w3.org/2000/svg" xmlns:xlink="http://www.w3.org/1999/xlink">
    <title>121</title>
    <g id="Page-1" stroke="none" stroke-width="1" fill="none" fill-rule="evenodd">
        <g id="121" transform="translate(0.520750, 0.915000)" fill="currentColor">
            <path d="M52.6387,188.911 L53.4575,187.844 L54.3433,186.758 L55.3106,185.631 L56.3486,184.47 L57.461,183.274 L58.6467,182.042 L59.8963,180.78 L61.2127,179.486 L62.5949,178.159 L64.036,176.802 L64.7833,176.111 L65.533,175.419 L66.311,174.712 L67.09,174.004 L67.8938,173.284 L68.6974,172.564 L69.5272,171.83 L70.3575,171.096 L71.2125,170.348 L72.0682,169.6 L72.9453,168.841 L73.8226,168.081 L74.7224,167.308 L75.6226,166.536 L76.5441,165.751 L77.4661,164.966 L78.4064,164.17 L79.3469,163.374 L80.3065,162.566 L81.2664,161.758 L82.2437,160.938 L83.2213,160.118 L84.2142,159.289 L85.2072,158.459 L86.2158,157.618 L87.2247,156.777 L88.2479,155.926 L89.2713,155.075 L90.3068,154.215 L91.3425,153.354 L92.3897,152.484 L93.4372,151.613 L94.495,150.733 L95.554,149.852 L96.621,148.964 L97.689,148.075 L98.765,147.178 L99.841,146.28 L100.925,145.374 L102.009,144.468 L103.1,143.549 L104.19,142.632 L105.28,141.714 L106.373,140.795 L107.473,139.86 L108.571,138.928 L109.669,137.996 L110.77,137.061 L111.875,136.112 L112.972,135.163 L114.07,134.214 L115.171,133.261 L116.271,132.297 L117.368,131.337 L118.464,130.377 L119.565,129.412 L120.66,128.436 L121.751,127.465 L122.844,126.498 L123.943,125.525 L125.032,124.543 L126.115,123.567 L127.197,122.59 L128.286,121.608 L129.361,120.618 L130.429,119.634 L131.498,118.649 L132.574,117.658 L133.631,116.66 L134.68,115.669 L135.729,114.678 L136.786,113.679 L137.819,112.674 L138.843,111.678 L139.867,110.681 L140.897,109.678 L141.907,108.671 L142.915,107.665 L143.908,106.658 L144.9,105.649 L145.876,104.64 L146.851,103.63 L147.81,102.619 L148.77,101.608 L149.71,100.595 L150.65,99.583 L151.57,98.568 L152.488,97.554 L153.387,96.54 L154.287,95.524 L155.164,94.509 L156.041,93.493 L156.895,92.478 L157.748,91.463 L158.577,90.448 L159.408,89.432 L160.213,88.417 L161.018,87.402 L161.795,86.387 L162.572,85.374 L163.323,84.361 L164.074,83.347 L164.796,82.335 L165.519,81.323 L166.21,80.312 L166.901,79.302 L167.563,78.294 L168.227,77.286 L168.857,76.28 L169.488,75.273 L170.084,74.269 L170.68,73.265 L171.243,72.265 L171.807,71.262 L172.335,70.263 L172.863,69.263 L173.352,68.267 L173.841,67.272 L174.295,66.28 L174.75,65.286 L175.165,64.296 L175.58,63.305 L175.953,62.319 L176.325,61.334 L176.658,60.353 L176.995,59.36 L177.572,57.409 L178.06,55.461 L178.462,53.52 L178.77,51.586 L178.976,49.683 L179.046,48.71 L179.089,47.755 L179.106,46.804 L179.098,45.856 L179.063,44.91 L179.001,43.97 L178.914,43.032 L178.798,42.097 L178.654,41.167 L178.484,40.241 L178.284,39.318 L178.056,38.402 L177.801,37.489 L177.515,36.58 L177.2,35.678 L176.857,34.781 L176.483,33.888 L176.078,33.002 L175.646,32.122 L175.181,31.247 L174.686,30.379 L174.161,29.517 L173.604,28.661 L173.016,27.813 L172.399,26.971 L171.747,26.135 L171.064,25.307 L170.351,24.487 L169.604,23.672 L168.825,22.865 L168.015,22.066 L167.171,21.273 L166.294,20.488 L165.385,19.711 L164.441,18.94 L163.465,18.178 L162.097,17.144 L160.743,16.146 L159.406,15.181 L158.082,14.248 L156.772,13.347 L155.478,12.48 L154.197,11.643 L152.93,10.838 L151.677,10.065 L150.437,9.322 L149.211,8.611 L148,7.931 L146.801,7.28 L145.615,6.658 L144.444,6.068 L143.286,5.505 L142.14,4.972 L141.009,4.468 L139.889,3.992 L138.782,3.544 L137.689,3.126 L136.608,2.733 L135.539,2.368 L134.484,2.032 L133.441,1.721 L132.409,1.437 L131.391,1.18 L130.384,0.948 L129.389,0.743 L128.407,0.564 L127.436,0.409 L126.477,0.279 L125.531,0.175 L124.596,0.095 L123.671,0.039 L122.761,0.008 L121.861,0 L120.971,0.016 L120.096,0.056 L119.231,0.118 L118.376,0.204 L117.535,0.312 L116.705,0.442 L115.885,0.594 L115.079,0.769 L114.283,0.964 L113.498,1.181 L112.71,1.423 L111.216,1.95 L109.749,2.564 L108.334,3.256 L106.961,4.017 L105.632,4.853 L104.352,5.757 L103.115,6.722 L101.92,7.753 L100.771,8.843 L99.662,9.986 L98.594,11.187 L97.569,12.44 L96.581,13.738 L95.632,15.086 L94.724,16.477 L93.8497,17.908 L93.0119,19.38 L92.2108,20.889 L91.4419,22.43 L90.707,24.005 L90.0065,25.61 L89.336,27.241 L88.6971,28.899 L88.09,30.58 L87.5108,32.28 L86.9611,34 L86.4407,35.735 L85.9462,37.483 L85.4789,39.244 L85.0386,41.014 L84.6221,42.789 L84.2308,44.571 L83.8647,46.353 L83.5203,48.136 L83.1991,49.917 L82.9,51.695 L82.6313,53.455 L82.3622,55.22 L82.1337,56.961 L81.9063,58.701 L81.7171,60.409 L81.5283,62.111 L81.3633,63.792 L81.2153,65.445 L81.0837,67.072 L80.9662,68.673 L80.8635,70.243 L80.7753,71.778 L80.6996,73.281 L80.6367,74.745 L80.5858,76.168 L80.5454,77.552 L80.5156,78.89 L80.4959,80.18 L80.4847,81.424 L80.4822,82.615 L80.4876,83.751 L80.4997,84.834 L80.5185,85.858 L80.5432,86.819 L80.5727,87.721 L80.6069,88.557 L80.6451,89.324 L80.6862,90.026 L80.7302,90.655 L80.7764,91.21 L80.8243,91.697 L80.8743,92.111 L80.9273,92.456 L80.9903,92.76 L81.0578,92.973 L81.3556,93.446 L81.3562,93.446 L81.3576,93.447 L81.3595,93.449 L81.3621,93.452 L81.3653,93.455 L81.3692,93.459 L81.3737,93.463 L81.6964,93.684 L82.026,93.781 L82.1801,93.794 L82.2787,93.794 L82.3573,93.79 L82.4291,93.784 L82.5002,93.776 L82.5736,93.767 L82.6452,93.758 L82.7021,93.75 L82.7509,93.743 L82.7916,93.738 L82.8242,93.733 L82.8486,93.73 L82.8649,93.728 L82.873,93.727 L83.0489,93.689 L83.604,93.519 L84.1893,93.226 L84.7103,92.839 L85.1528,92.359 L85.4964,91.817 L85.7561,91.231 L85.9365,90.597 L86.0431,89.935 L86.0906,89.243 L86.0802,88.512 L86.0158,87.75 L85.9047,86.957 L85.7442,86.125 L85.5371,85.26 L85.2883,84.364 L84.9945,83.432 L84.6576,82.469 L84.2822,81.477 L83.8648,80.453 L83.4073,79.401 L82.9138,78.325 L82.3812,77.221 L81.8114,76.095 L81.2086,74.948 L80.5694,73.779 L79.8956,72.593 L79.1908,71.39 L78.4523,70.172 L77.682,68.94 L76.8831,67.698 L76.0534,66.446 L75.1945,65.186 L74.3098,63.92 L73.397,62.649 L72.458,61.376 L71.4953,60.102 L70.5072,58.83 L69.4954,57.56 L68.4625,56.296 L67.4069,55.037 L66.328,53.786 L65.2268,52.555 L64.1219,51.32 L62.9801,50.114 L61.8375,48.908 L60.6621,47.739 L59.49,46.573 L58.2909,45.43 L57.0796,44.314 L55.8553,43.224 L54.6195,42.159 L53.3714,41.123 L52.1134,40.119 L50.8463,39.145 L49.5692,38.206 L48.2849,37.304 L46.9937,36.438 L45.6945,35.613 L44.3906,34.832 L43.082,34.091 L41.7681,33.396 L40.4522,32.751 L39.1337,32.152 L37.8118,31.605 L36.4906,31.114 L35.169,30.675 L33.846,30.295 L32.5263,29.977 L31.2086,29.716 L29.8918,29.522 L28.5817,29.395 L27.2764,29.334 L25.9749,29.344 L24.6841,29.43 L23.4017,29.587 L22.1273,29.823 L20.8684,30.141 L19.6225,30.535 L18.3895,31.015 L17.1772,31.58 L15.9825,32.227 L14.8059,32.964 L13.654,33.791 L12.5236,34.702 L11.4154,35.709 L10.3438,36.799 L9.8035,37.391 L9.278,37.999 L8.76,38.63 L8.2484,39.284 L7.7429,39.963 L7.2453,40.667 L6.754,41.394 L6.2695,42.146 L5.7927,42.924 L5.3227,43.725 L4.8596,44.553 L4.4046,45.407 L3.9564,46.285 L3.5156,47.19 L3.0828,48.122 L2.6574,49.078 L2.239,50.063 L1.828,51.075 L1.5631,51.774 L1.3195,52.486 L1.0986,53.208 L0.8978,53.94 L0.7182,54.684 L0.5578,55.45 L0.3018,56.969 L0.1248,58.541 L0.0274,60.148 L0,61.786 L0.0472,63.46 L0.1662,65.164 L0.349,66.896 L0.6001,68.659 L0.9166,70.448 L1.2913,72.262 L1.728,74.102 L2.2242,75.965 L2.7724,77.849 L3.3756,79.751 L3.7058,80.718 L4.0346,81.68 L4.3869,82.651 L4.7395,83.622 L5.1172,84.602 L5.4949,85.582 L5.8966,86.57 L6.2979,87.556 L6.7203,88.55 L7.1447,89.543 L7.5925,90.543 L8.0402,91.542 L8.5091,92.547 L8.9776,93.552 L9.4647,94.561 L9.9519,95.57 L10.4585,96.584 L10.965,97.597 L11.49,98.615 L12.0146,99.631 L12.5551,100.65 L13.0964,101.669 L13.6546,102.691 L14.2127,103.711 L14.7863,104.734 L15.3596,105.756 L15.9463,106.778 L16.533,107.801 L17.1336,108.824 L17.734,109.846 L18.3472,110.868 L18.9601,111.889 L19.583,112.909 L20.2044,113.931 L20.8368,114.95 L21.4691,115.969 L22.1113,116.985 L22.7541,118.002 L23.4088,119.013 L24.061,120.021 L24.7131,121.028 L25.3688,122.041 L26.0388,123.044 L26.7052,124.041 L27.371,125.039 L28.0401,126.042 L28.7194,127.03 L29.3955,128.015 L30.0716,128.999 L30.7504,129.987 L31.4354,130.96 L32.1176,131.929 L32.7998,132.898 L33.4848,133.871 L34.1729,134.825 L34.8577,135.775 L35.5426,136.725 L36.2302,137.678 L36.9168,138.609 L37.6006,139.536 L38.2844,140.463 L38.97,141.393 L39.6528,142.305 L40.3352,143.217 L41.0143,144.115 L41.6933,145.013 L42.3681,145.897 L43.0424,146.781 L43.7122,147.651 L44.382,148.521 L45.0459,149.375 L45.7096,150.229 L46.3663,151.067 L47.0229,151.904 L47.6723,152.725 L48.3217,153.547 L48.9622,154.351 L49.6027,155.154 L50.2334,155.939 L50.8638,156.724 L52.1043,158.257 L53.3219,159.75 L54.5138,161.2 L55.681,162.61 L56.8192,163.975 L57.9262,165.293 L59.0032,166.567 L60.0457,167.791 L61.0514,168.963 L62.022,170.087 L62.9523,171.157 L63.8403,172.171 L64.6881,173.132 L65.4899,174.034 L66.2438,174.876 L66.9525,175.661 L67.6098,176.383 L68.2135,177.04 L68.767,177.636 L69.264,178.165 L69.7011,178.624 L69.9011,178.831 L70.0849,179.02 L70.2534,179.191 L70.4082,179.346 L70.5481,179.484 L70.6731,179.604 L70.7857,179.709 L70.8872,179.8 L70.9813,179.879 L71.086,179.958 L71.1767,180.013 L71.5905,180.123 L71.5907,180.123 L71.5908,180.123 L71.591,180.123 L71.5912,180.123 L71.5916,180.123 L71.5919,180.123 L71.5924,180.123 L71.5929,180.123 L71.5935,180.123 L71.5942,180.123 L71.5949,180.123 L71.5957,180.123 L71.5966,180.123 L71.5975,180.123 L71.5985,180.123 L71.6286,180.123 L71.6929,180.118 L71.7643,180.107 L71.8422,180.088 L71.9252,180.058 L72.0107,180.017 L72.0951,179.963 L72.1745,179.898 L72.245,179.824 L72.3043,179.745 L72.3513,179.664 L72.3865,179.585 L72.4115,179.511 L72.4278,179.442 L72.4376,179.381 L72.4425,179.325 L72.4435,179.299 L72.4435,179.298 L72.4436,179.297 L72.4436,179.296 L72.4436,179.295 L72.4436,179.294 L72.4436,179.294 L72.4436,179.293 L72.4436,179.292 L72.4437,179.292 L72.4437,179.291 L72.4437,179.291 L72.4437,179.291 L72.4437,179.291 L72.4437,179.29 L72.4437,179.29 L72.3662,178.918 L72.3203,178.825 L72.2519,178.713 L72.18,178.609 L72.095,178.493 L71.9948,178.363 L71.8789,178.216 L71.7444,178.049 L71.591,177.863 L71.4199,177.657 L71.2287,177.43 L71.0172,177.181 L70.787,176.912 L70.5358,176.621 L70.2634,176.307 L69.9714,175.973 L69.6576,175.615 L69.3219,175.235 L68.9659,174.833 L68.5874,174.408 L68.186,173.958 L67.7639,173.487 L67.3184,172.992 L66.8499,172.473 C66.5413,172.13 66.0138,172.103 65.6717,172.412 C65.3296,172.721 65.3025,173.248 65.6111,173.59 L66.0786,174.108 L66.5222,174.602 L66.9424,175.071 L67.3416,175.518 L67.7178,175.941 L68.0714,176.34 L68.4046,176.718 L68.7155,177.072 L69.0045,177.403 L69.2736,177.713 L69.521,178 L69.7471,178.264 L69.9539,178.508 L70.1394,178.728 L70.3042,178.926 L70.4498,179.104 L70.5744,179.258 L70.6779,179.389 L70.7617,179.498 L70.822,179.58 L70.8574,179.632 L70.862,179.638 L70.8518,179.622 L70.7744,179.25 L70.7744,179.25 L70.7744,179.25 L70.7744,179.25 L70.7744,179.25 L70.7744,179.251 L70.7744,179.251 L70.7744,179.252 L70.7743,179.252 L70.7743,179.253 L70.7743,179.253 L70.7743,179.254 L70.7742,179.255 L70.7742,179.256 L70.7742,179.257 L70.7742,179.258 L70.7752,179.234 L70.7798,179.181 L70.7893,179.121 L70.8053,179.054 L70.8295,178.982 L70.8641,178.905 L70.9102,178.825 L70.9686,178.747 L71.0381,178.674 L71.1162,178.61 L71.1993,178.557 L71.2833,178.517 L71.3646,178.488 L71.4409,178.469 L71.5104,178.458 L71.5728,178.454 L71.6007,178.453 L71.5997,178.453 L71.5988,178.453 L71.5979,178.453 L71.5971,178.453 L71.5964,178.453 L71.5958,178.453 L71.5952,178.453 L71.5946,178.453 L71.5942,178.453 L71.5938,178.453 L71.5935,178.453 L71.5932,178.453 L71.593,178.453 L71.5928,178.453 L71.5928,178.453 L72.0067,178.564 L72.0277,178.579 L72.0275,178.578 L71.9851,178.542 L71.9156,178.48 L71.8234,178.393 L71.7131,178.287 L71.5849,178.161 L71.439,178.015 L71.2778,177.851 L71.1005,177.669 L70.9082,177.47 L70.4777,177.018 L69.9883,176.497 L69.4409,175.907 L68.8427,175.256 L68.1906,174.539 L67.4866,173.759 L66.7371,172.922 L65.9397,172.024 L65.096,171.067 L64.2121,170.058 L63.2858,168.992 L62.3191,167.872 L61.3174,166.704 L60.2789,165.485 L59.2058,164.215 L58.1027,162.901 L56.9687,161.541 L55.8056,160.135 L54.6176,158.689 L53.4045,157.201 L52.1676,155.672 L51.5397,154.89 L50.9119,154.107 L50.2744,153.306 L49.6368,152.504 L48.9904,151.685 L48.3438,150.865 L47.6901,150.03 L47.0365,149.194 L46.3758,148.342 L45.7152,147.491 L45.0485,146.623 L44.3818,145.755 L43.7103,144.874 L43.0393,143.992 L42.364,143.096 L41.6888,142.2 L41.0104,141.291 L40.3325,140.382 L39.6519,139.456 L38.9696,138.528 L38.2871,137.6 L37.6075,136.676 L36.9268,135.728 L36.2434,134.777 L35.5601,133.826 L34.88,132.879 L34.203,131.913 L33.5231,130.942 L32.8432,129.971 L32.1662,129.005 L31.4952,128.023 L30.8214,127.037 L30.1477,126.052 L29.4772,125.071 L28.817,124.076 L28.1536,123.077 L27.4907,122.078 L26.8316,121.083 L26.1868,120.079 L25.5385,119.069 L24.8903,118.058 L24.2446,117.052 L23.6108,116.041 L22.9765,115.029 L22.3519,114.014 L21.7276,112.999 L21.1141,111.982 L20.502,110.964 L19.9015,109.944 L19.3013,108.924 L18.7138,107.904 L18.1265,106.885 L17.5529,105.865 L16.9791,104.846 L16.4187,103.827 L15.8587,102.809 L15.3141,101.792 L14.7697,100.776 L14.2416,99.763 L13.7127,98.75 L13.1997,97.739 L12.687,96.73 L12.1928,95.724 L11.6986,94.719 L11.2238,93.719 L10.7489,92.718 L10.2924,91.723 L9.8363,90.728 L9.4014,89.74 L8.9666,88.752 L8.5529,87.772 L8.1372,86.792 L7.7426,85.82 L7.3483,84.848 L6.978,83.885 L6.6078,82.923 L6.2627,81.97 L5.9173,81.017 L5.5955,80.073 L5.2752,79.134 L4.6849,77.268 L4.1513,75.429 L3.6702,73.614 L3.2487,71.828 L2.888,70.071 L2.5842,68.343 L2.345,66.65 L2.1719,64.989 L2.0602,63.363 L2.0182,61.776 L2.0472,60.228 L2.1417,58.717 L2.3094,57.252 L2.555,55.816 L2.6999,55.133 L2.8662,54.45 L3.0523,53.777 L3.2562,53.115 L3.4793,52.467 L3.7236,51.827 L4.1232,50.848 L4.5307,49.896 L4.9457,48.973 L5.3668,48.075 L5.794,47.205 L6.2282,46.363 L6.6679,45.545 L7.1133,44.755 L7.5651,43.991 L8.0223,43.252 L8.4845,42.539 L8.9527,41.852 L9.4259,41.188 L9.9035,40.551 L10.3869,39.938 L10.8746,39.348 L11.3663,38.783 L11.8546,38.252 L12.8699,37.226 L13.8912,36.305 L14.9306,35.474 L15.9835,34.723 L17.0485,34.061 L18.1302,33.481 L19.2243,32.975 L20.3287,32.55 L21.4495,32.2 L22.582,31.919 L23.7244,31.711 L24.8825,31.574 L26.0518,31.5 L27.2303,31.494 L28.4227,31.555 L29.6251,31.675 L30.8349,31.858 L32.056,32.104 L33.2847,32.405 L34.5185,32.763 L35.7604,33.18 L37.007,33.647 L38.2559,34.168 L39.5092,34.741 L40.7641,35.361 L42.0184,36.028 L43.2734,36.743 L44.5271,37.499 L45.7773,38.297 L47.0251,39.137 L48.2688,40.013 L49.5058,40.925 L50.7367,41.874 L51.9605,42.854 L53.1748,43.865 L54.3798,44.906 L55.5748,45.973 L56.7579,47.065 L57.9258,48.179 L59.0803,49.329 L60.2315,50.474 L61.3503,51.657 L62.4699,52.84 L63.5529,54.052 L64.6397,55.268 L65.6945,56.493 L66.7305,57.729 L67.7451,58.972 L68.739,60.22 L69.7089,61.47 L70.6544,62.722 L71.5766,63.973 L72.4718,65.221 L73.3396,66.465 L74.1812,67.702 L74.9929,68.931 L75.7744,70.149 L76.5274,71.356 L77.2475,72.547 L77.9346,73.723 L78.5905,74.881 L79.2108,76.018 L79.7951,77.133 L80.3449,78.226 L80.856,79.291 L81.3284,80.327 L81.7642,81.335 L82.1586,82.309 L82.5113,83.248 L82.825,84.152 L83.0945,85.013 L83.3198,85.832 L83.5041,86.609 L83.6422,87.333 L83.7348,88.006 L83.7862,88.627 L83.7931,89.182 L83.7575,89.674 L83.688,90.102 L83.5881,90.45 L83.4614,90.733 L83.3206,90.956 L83.1688,91.12 L82.9839,91.254 L82.76,91.366 L82.3905,91.471 L82.5664,91.433 L82.5582,91.434 L82.5419,91.436 L82.5175,91.439 L82.4849,91.444 L82.4442,91.449 L82.3954,91.456 L82.3384,91.463 L82.2797,91.471 L82.2379,91.476 L82.2086,91.479 L82.1952,91.48 L82.2034,91.479 L82.2467,91.479 L82.3605,91.489 L82.6648,91.58 L82.9772,91.791 L82.9727,91.787 L82.9688,91.783 L82.9656,91.78 L82.963,91.778 L82.9611,91.776 L82.9598,91.775 L82.9591,91.774 L83.257,92.246 L83.2375,92.197 L83.2107,92.059 L83.1727,91.805 L83.1314,91.451 L83.0892,91.005 L83.0476,90.483 L83.0078,89.881 L82.9704,89.202 L82.936,88.456 L82.9056,87.64 L82.8798,86.755 L82.859,85.811 L82.8442,84.804 L82.8361,83.737 L82.8348,82.617 L82.8416,81.441 L82.8571,80.213 L82.8812,78.939 L82.9154,77.617 L82.9603,76.25 L83.0157,74.843 L83.0831,73.396 L83.1633,71.911 L83.2556,70.393 L83.3615,68.843 L83.4822,67.261 L83.617,65.654 L83.7677,64.021 L83.935,62.367 L84.127,60.679 L84.3184,58.996 L84.5469,57.279 L84.7743,55.564 L85.0421,53.825 L85.3104,52.083 L85.6065,50.338 L85.9249,48.587 L86.2661,46.834 L86.6284,45.082 L87.0141,43.334 L87.4244,41.591 L87.8576,39.857 L88.3163,38.134 L88.8017,36.424 L89.3116,34.729 L89.8488,33.053 L90.4146,31.397 L91.0063,29.762 L91.627,28.154 L92.2782,26.574 L92.9569,25.022 L93.666,23.504 L94.407,22.021 L95.178,20.572 L95.98,19.166 L96.817,17.802 L97.684,16.479 L98.583,15.205 L99.518,13.981 L100.485,12.803 L101.485,11.683 L102.522,10.617 L103.593,9.605 L104.698,8.657 L105.843,7.769 L107.021,6.941 L108.236,6.181 L109.493,5.489 L110.787,4.861 L112.12,4.307 L113.514,3.821 L114.202,3.612 L114.916,3.418 L115.643,3.244 L116.381,3.088 L117.128,2.953 L117.889,2.838 L118.661,2.742 L119.443,2.668 L120.239,2.615 L121.047,2.582 L121.866,2.571 L122.699,2.583 L123.544,2.615 L124.4,2.671 L125.272,2.751 L126.155,2.852 L127.05,2.978 L127.961,3.129 L128.883,3.303 L129.819,3.501 L130.769,3.726 L131.732,3.975 L132.708,4.25 L133.699,4.552 L134.703,4.878 L135.72,5.232 L136.753,5.614 L137.799,6.021 L138.858,6.457 L139.933,6.921 L141.021,7.412 L142.123,7.932 L143.241,8.483 L144.372,9.061 L145.518,9.668 L146.679,10.308 L147.854,10.975 L149.043,11.673 L150.248,12.404 L151.467,13.163 L152.701,13.954 L153.951,14.778 L155.215,15.632 L156.494,16.518 L157.79,17.439 L159.099,18.391 L160.424,19.376 L161.763,20.395 L162.694,21.124 L163.587,21.857 L164.447,22.595 L165.274,23.338 L166.067,24.086 L166.827,24.839 L167.556,25.596 L168.251,26.357 L168.915,27.124 L169.549,27.895 L170.149,28.669 L170.72,29.449 L171.263,30.233 L171.773,31.019 L172.254,31.812 L172.708,32.608 L173.132,33.406 L173.526,34.211 L173.895,35.02 L174.234,35.831 L174.546,36.648 L174.833,37.469 L175.091,38.293 L175.323,39.123 L175.53,39.958 L175.71,40.795 L175.864,41.638 L175.995,42.486 L176.1,43.336 L176.179,44.193 L176.235,45.055 L176.266,45.919 L176.273,46.79 L176.257,47.665 L176.217,48.543 L176.154,49.411 L175.959,51.21 L175.671,53.006 L175.29,54.823 L174.827,56.656 L174.272,58.511 L173.956,59.432 L173.637,60.365 L173.279,61.304 L172.922,62.242 L172.523,63.186 L172.125,64.131 L171.686,65.082 L171.247,66.035 L170.771,66.992 L170.296,67.948 L169.783,68.909 L169.27,69.871 L168.721,70.838 L168.17,71.806 L167.587,72.778 L167.004,73.75 L166.387,74.725 L165.77,75.7 L165.12,76.679 L164.468,77.66 L163.786,78.642 L163.105,79.624 L162.392,80.608 L161.68,81.593 L160.938,82.58 L160.194,83.569 L159.425,84.559 L158.656,85.548 L157.86,86.54 L157.063,87.531 L156.24,88.524 L155.417,89.518 L154.57,90.512 L153.724,91.507 L152.854,92.501 L151.984,93.497 L151.091,94.492 L150.197,95.488 L149.283,96.484 L148.37,97.479 L147.437,98.475 L146.503,99.472 L145.551,100.467 L144.598,101.463 L143.628,102.459 L142.659,103.453 L141.672,104.447 L140.685,105.441 L139.683,106.432 L138.682,107.423 L137.662,108.412 L136.637,109.407 L135.611,110.401 L134.593,111.388 L133.551,112.369 L132.5,113.358 L131.449,114.347 L130.406,115.329 L129.343,116.304 L128.272,117.286 L127.201,118.268 L126.136,119.244 L125.058,120.213 L123.973,121.187 L122.888,122.161 L121.809,123.13 L120.719,124.089 L119.623,125.054 L118.523,126.014 L117.429,126.971 L116.329,127.916 L115.224,128.866 L114.118,129.816 L113.017,130.762 L111.914,131.697 L110.808,132.636 L109.701,133.575 L108.602,134.514 L107.505,135.44 L106.405,136.369 L105.304,137.298 L104.206,138.225 L103.117,139.137 L102.025,140.052 L100.932,140.966 L99.841,141.879 L98.759,142.782 L97.677,143.687 L96.602,144.583 L95.526,145.479 L94.46,146.366 L93.3927,147.254 L92.3346,148.134 L91.2763,149.014 L90.2288,149.884 L89.1811,150.755 L88.146,151.617 L87.1107,152.478 L86.0874,153.331 L85.0638,154.184 L84.0545,155.027 L83.0449,155.87 L82.0509,156.703 L81.0567,157.536 L80.0777,158.358 L79.0983,159.181 L78.1371,159.994 L77.1756,160.806 L76.233,161.607 L75.2904,162.408 L74.3661,163.199 L73.4414,163.99 L72.5377,164.768 L71.6339,165.547 L70.7524,166.314 L69.8709,167.08 L69.0109,167.835 L68.1503,168.591 L67.3145,169.333 L66.4782,170.076 L65.6678,170.806 L64.8575,171.535 L64.0717,172.253 L63.2851,172.97 L62.5266,173.674 L61.7657,174.381 L60.3085,175.759 L58.9036,177.114 L57.5601,178.441 L56.2817,179.738 L55.0634,181.01 L53.9127,182.252 L52.8336,183.465 L51.8205,184.651 L50.8808,185.809 L50.0339,186.917 C49.4832,187.636 49.6199,188.666 50.3391,189.216 C51.0584,189.767 52.0879,189.631 52.6387,188.911 Z" id="Fill-23"></path>
        </g>
    </g>
</svg>
