<?xml version="1.0" encoding="UTF-8"?>
<svg width="222px" height="182px" viewBox="0 0 222 182" version="1.1" xmlns="http://www.w3.org/2000/svg" xmlns:xlink="http://www.w3.org/1999/xlink">
    <title>122</title>
    <g id="Page-1" stroke="none" stroke-width="1" fill="none" fill-rule="evenodd">
        <g id="122" transform="translate(0.135750, 0.756000)" fill="currentColor">
            <path d="M89.655,174.509 L90.486,173.576 L91.372,172.625 L92.327,171.64 L93.341,170.626 L94.419,169.582 L95.558,168.507 L96.75,167.405 L98,166.275 L99.306,165.116 L100.661,163.933 L102.067,162.723 L103.523,161.487 L105.023,160.227 L105.794,159.586 L106.567,158.944 L107.362,158.289 L108.157,157.635 L108.971,156.969 L109.785,156.304 L110.619,155.627 L111.454,154.95 L112.307,154.262 L113.161,153.573 L114.031,152.874 L114.902,152.175 L115.789,151.466 L116.678,150.756 L117.582,150.036 L118.487,149.315 L119.405,148.586 L120.324,147.856 L121.257,147.116 L122.19,146.375 L123.137,145.625 L124.085,144.874 L125.043,144.115 L126.002,143.356 L126.973,142.587 L127.944,141.818 L128.926,141.041 L129.908,140.263 L130.899,139.477 L131.891,138.69 L132.891,137.895 L133.891,137.1 L134.9,136.296 L135.909,135.491 L136.928,134.676 L137.946,133.862 L138.963,133.048 L139.983,132.231 L141.015,131.4 L142.044,130.57 L143.072,129.74 L144.103,128.907 L145.141,128.059 L146.177,127.214 L147.212,126.369 L148.251,125.521 L149.293,124.661 L150.332,123.804 L151.371,122.947 L152.414,122.086 L153.457,121.21 L154.493,120.337 L155.53,119.464 L156.572,118.587 L157.61,117.698 L158.643,116.814 L159.676,115.93 L160.715,115.041 L161.747,114.142 L162.774,113.248 L163.802,112.356 L164.839,111.46 L165.865,110.555 L166.885,109.655 L167.905,108.755 L168.932,107.849 L169.945,106.934 L170.95,106.026 L171.956,105.118 L172.969,104.203 L173.966,103.281 L174.956,102.366 L175.946,101.451 L176.944,100.528 L177.922,99.598 L178.891,98.676 L179.86,97.755 L180.838,96.824 L181.792,95.887 L182.736,94.96 L183.68,94.032 L184.63,93.097 L185.561,92.159 L186.49,91.222 L187.404,90.282 L188.319,89.343 L189.218,88.401 L190.116,87.46 L190.999,86.517 L191.883,85.574 L192.749,84.629 L193.615,83.683 L194.461,82.736 L195.308,81.789 L196.136,80.841 L196.965,79.892 L197.774,78.942 L198.583,77.992 L199.371,77.042 L200.159,76.091 L200.926,75.141 L201.694,74.19 L202.439,73.238 L203.184,72.286 L203.905,71.334 L204.625,70.382 L205.323,69.431 L206.022,68.479 L206.695,67.527 L207.368,66.574 L208.014,65.623 L208.66,64.672 L209.281,63.722 L209.902,62.77 L210.496,61.82 L211.09,60.869 L211.655,59.92 L212.22,58.972 L212.757,58.025 L213.294,57.077 L213.801,56.13 L214.308,55.182 L214.782,54.237 L215.256,53.292 L215.7,52.349 L216.144,51.405 L216.555,50.462 L216.968,49.512 L217.718,47.639 L218.405,45.763 L219.018,43.889 L219.555,42.022 L220.022,40.159 L220.409,38.3 L220.713,36.449 L220.941,34.605 L221.084,32.765 L221.138,30.935 L221.109,29.114 L220.987,27.299 L220.771,25.498 L220.466,23.707 L220.062,21.926 L219.563,20.179 L219.271,19.286 L218.958,18.411 L218.62,17.542 L218.258,16.677 L217.869,15.815 L217.454,14.959 L217.16,14.397 L216.844,13.848 L216.508,13.317 L216.155,12.801 L215.78,12.298 L215.372,11.794 L214.554,10.887 L213.644,10.02 L212.671,9.218 L211.639,8.472 L210.542,7.784 L209.391,7.156 L208.189,6.579 L206.931,6.055 L205.626,5.584 L204.275,5.161 L202.875,4.785 L201.433,4.458 L199.951,4.174 L198.425,3.935 L196.861,3.74 L195.263,3.583 L193.627,3.468 L191.958,3.392 L190.259,3.352 L188.528,3.349 L186.769,3.383 L184.985,3.45 L183.175,3.551 L181.342,3.686 L179.489,3.85 L177.615,4.046 L175.724,4.272 L173.819,4.524 L171.898,4.804 L169.966,5.112 L168.024,5.444 L166.072,5.801 L164.115,6.182 L162.153,6.584 L160.19,7.008 L159.204,7.231 L158.222,7.454 L157.239,7.685 L156.257,7.916 L155.275,8.158 L154.294,8.399 L153.315,8.649 L152.334,8.899 L151.357,9.162 L150.389,9.422 L149.42,9.682 L148.437,9.946 L146.513,10.499 L144.586,11.053 L142.686,11.632 L140.788,12.21 L138.923,12.808 L137.057,13.407 L135.235,14.025 L133.413,14.643 L131.643,15.276 L129.876,15.906 L128.144,16.546 L126.445,17.19 L124.78,17.838 L123.148,18.488 L121.553,19.139 L119.998,19.791 L118.48,20.443 L117.005,21.093 L115.575,21.741 L114.188,22.386 L112.849,23.028 L111.562,23.664 L110.323,24.295 L109.137,24.92 L108.008,25.537 L106.931,26.147 L105.913,26.748 L104.958,27.339 L104.059,27.922 L103.224,28.495 L102.455,29.056 L101.747,29.609 L101.104,30.153 L100.532,30.688 L100.023,31.22 L99.582,31.755 L99.216,32.295 L98.922,32.854 L98.718,33.455 L98.636,34.086 L98.7,34.738 L98.941,35.373 L99.283,35.859 L99.556,36.138 L99.813,36.346 L100.085,36.528 L100.372,36.691 L100.681,36.839 L101.004,36.969 L101.344,37.087 L101.706,37.193 L102.086,37.287 L102.484,37.371 L102.907,37.446 L103.35,37.51 L103.815,37.565 L104.305,37.611 L104.818,37.648 L105.354,37.676 L105.917,37.695 L106.539,37.705 L107.091,37.616 L107.755,37.159 L108.07,36.467 L108.075,35.897 L107.958,35.442 L107.787,35.044 L107.574,34.65 L107.312,34.236 L107.004,33.798 L106.652,33.333 L106.25,32.836 L105.801,32.308 L105.308,31.752 L104.767,31.165 L104.18,30.55 L103.551,29.909 L102.878,29.242 L102.16,28.551 L101.404,27.839 L100.604,27.105 L99.764,26.353 L98.888,25.583 L97.973,24.797 L97.02,23.997 L96.034,23.186 L95.012,22.362 L93.956,21.53 L92.869,20.691 L91.75,19.845 L90.599,18.996 L89.421,18.145 L88.213,17.293 L86.978,16.443 L85.718,15.595 L84.432,14.751 L83.121,13.915 L81.789,13.085 L80.434,12.266 L79.058,11.459 L77.663,10.663 L76.248,9.883 L74.815,9.121 L73.367,8.375 L71.902,7.65 L70.422,6.948 L68.93,6.267 L67.424,5.613 L65.907,4.986 L64.381,4.385 L62.844,3.816 L61.299,3.28 L59.747,2.776 L58.187,2.309 L56.622,1.881 L55.054,1.489 L53.481,1.14 L51.907,0.835 L50.331,0.572 L48.754,0.356 L47.179,0.191 L45.605,0.073 L44.033,0.008 L42.467,0 L40.905,0.044 L39.348,0.148 L37.801,0.312 L36.262,0.535 L34.73,0.823 L33.212,1.179 L31.706,1.598 L30.212,2.088 L28.736,2.651 L27.276,3.281 L25.831,3.99 L24.409,4.775 L23.007,5.633 L21.626,6.574 L20.27,7.596 L18.938,8.695 L17.631,9.881 L16.354,11.154 L15.104,12.507 L13.883,13.953 L12.702,15.48 L12.113,16.288 L11.538,17.112 L10.972,17.96 L10.414,18.828 L9.864,19.722 L9.323,20.639 L8.791,21.579 L8.267,22.544 L7.753,23.534 L7.247,24.546 L6.751,25.584 L6.265,26.648 L5.787,27.735 L5.319,28.848 L4.862,29.988 L4.413,31.151 L3.975,32.341 L3.547,33.558 L3.128,34.799 L2.72,36.068 L2.323,37.365 L1.936,38.686 L1.56,40.036 L1.192,41.424 L0.789,43.137 L0.47,44.868 L0.235,46.601 L0.077,48.338 L0,50.079 L0.004,51.821 L0.08,53.565 L0.234,55.312 L0.462,57.059 L0.758,58.805 L1.127,60.554 L1.566,62.3 L2.068,64.046 L2.638,65.792 L3.274,67.536 L3.967,69.279 L4.724,71.021 L5.542,72.759 L6.414,74.496 L7.345,76.232 L8.331,77.963 L9.365,79.69 L9.912,80.557 L10.457,81.421 L11.028,82.284 L11.598,83.145 L12.192,84.005 L12.786,84.865 L13.405,85.724 L14.024,86.583 L14.666,87.44 L15.309,88.296 L15.972,89.15 L16.635,90.005 L17.321,90.857 L18.007,91.71 L18.715,92.56 L19.422,93.41 L20.149,94.258 L20.875,95.106 L21.623,95.951 L22.37,96.796 L23.137,97.639 L23.903,98.481 L24.686,99.321 L25.47,100.16 L26.272,100.998 L27.074,101.835 L27.894,102.669 L28.713,103.502 L29.547,104.332 L30.382,105.163 L31.232,105.991 L32.083,106.818 L32.949,107.642 L33.815,108.465 L34.694,109.285 L35.574,110.104 L36.47,110.918 L37.365,111.732 L38.274,112.542 L39.182,113.351 L40.102,114.156 L41.022,114.962 L41.954,115.764 L42.885,116.565 L43.828,117.362 L44.771,118.158 L45.723,118.951 L46.675,119.742 L47.638,120.529 L48.6,121.316 L49.572,122.098 L50.544,122.88 L51.527,123.656 L52.507,124.429 L53.486,125.201 L54.471,125.978 L55.469,126.743 L56.462,127.506 L57.454,128.27 L58.45,129.037 L59.457,129.794 L60.46,130.546 L61.462,131.299 L62.468,132.055 L63.482,132.8 L64.492,133.542 L65.501,134.284 L66.515,135.028 L67.534,135.761 L68.548,136.491 L69.563,137.221 L70.581,137.954 L71.601,138.673 L72.617,139.39 L73.634,140.107 L74.654,140.826 L75.673,141.532 L76.689,142.237 L77.705,142.941 L78.724,143.648 L79.739,144.34 L80.752,145.03 L81.765,145.721 L82.78,146.413 L83.789,147.09 L84.795,147.765 L85.801,148.44 L86.809,149.117 L87.809,149.779 L88.807,150.44 L89.805,151.101 L90.804,151.764 L91.792,152.41 L92.778,153.055 L93.763,153.699 L94.751,154.346 L95.723,154.975 L96.694,155.602 L97.665,156.23 L98.637,156.859 L99.597,157.475 L100.556,158.091 L101.506,158.699 L102.456,159.306 L103.395,159.905 L104.335,160.503 L105.264,161.093 L106.193,161.683 L107.11,162.264 L108.028,162.844 L108.933,163.415 L109.838,163.986 L110.731,164.547 L111.623,165.109 L112.502,165.661 L113.381,166.213 L114.245,166.755 L115.109,167.296 L115.96,167.829 L116.81,168.361 L118.478,169.405 L120.112,170.427 L121.715,171.43 L123.281,172.41 L124.809,173.369 L126.3,174.307 L127.752,175.222 L129.16,176.114 L130.529,176.984 L131.852,177.83 L133.129,178.653 L134.362,179.452 L135.545,180.227 L136.678,180.978 C137.063,181.232 137.58,181.127 137.835,180.743 C138.089,180.358 137.984,179.841 137.6,179.587 L136.462,178.833 L135.273,178.054 L134.035,177.251 L132.754,176.426 L131.427,175.576 L130.055,174.704 L128.644,173.81 L127.191,172.893 L125.697,171.954 L124.168,170.995 L122.602,170.013 L120.999,169.01 L119.365,167.987 L117.697,166.943 L116.847,166.411 L115.998,165.879 L115.134,165.337 L114.27,164.796 L113.392,164.244 L112.514,163.693 L111.622,163.131 L110.73,162.569 L109.826,161.999 L108.922,161.429 L108.006,160.849 L107.089,160.269 L106.161,159.679 L105.233,159.09 L104.295,158.492 L103.358,157.894 L102.409,157.287 L101.461,156.68 L100.504,156.064 L99.547,155.448 L98.578,154.82 L97.608,154.191 L96.638,153.562 L95.67,152.935 L94.686,152.29 L93.701,151.645 L92.716,150.999 L91.733,150.354 L90.738,149.693 L89.742,149.031 L88.745,148.369 L87.75,147.708 L86.747,147.032 L85.742,146.356 L84.737,145.679 L83.734,145.004 L82.726,144.314 L81.714,143.622 L80.702,142.93 L79.694,142.24 L78.682,141.535 L77.668,140.829 L76.653,140.122 L75.641,139.417 L74.629,138.7 L73.614,137.98 L72.599,137.261 L71.587,136.544 L70.578,135.814 L69.565,135.082 L68.552,134.349 L67.543,133.619 L66.54,132.876 L65.533,132.13 L64.526,131.384 L63.523,130.641 L62.527,129.887 L61.527,129.131 L60.527,128.374 L59.532,127.621 L58.547,126.856 L57.558,126.088 L56.571,125.319 L55.589,124.552 L54.62,123.775 L53.647,122.995 L52.674,122.214 L51.704,121.436 L50.745,120.652 L49.786,119.867 L48.835,119.077 L47.885,118.287 L46.944,117.492 L46.003,116.699 L45.071,115.901 L44.139,115.103 L43.219,114.302 L42.299,113.5 L41.391,112.694 L40.482,111.888 L39.585,111.079 L38.689,110.27 L37.806,109.457 L36.923,108.644 L36.053,107.829 L35.181,107.015 L34.323,106.198 L33.465,105.381 L32.623,104.561 L31.781,103.741 L30.956,102.918 L30.129,102.095 L29.319,101.269 L28.509,100.444 L27.716,99.615 L26.924,98.787 L26.15,97.956 L25.376,97.125 L24.619,96.291 L23.863,95.459 L23.127,94.623 L22.39,93.788 L21.675,92.951 L20.959,92.114 L20.262,91.275 L19.566,90.436 L18.891,89.596 L18.217,88.756 L17.566,87.914 L16.914,87.072 L16.284,86.228 L15.655,85.386 L15.049,84.542 L14.444,83.699 L13.863,82.854 L13.282,82.009 L12.724,81.163 L12.167,80.318 L11.636,79.473 L11.107,78.631 L10.097,76.935 L9.14,75.243 L8.241,73.552 L7.399,71.861 L6.612,70.171 L5.885,68.484 L5.221,66.798 L4.614,65.114 L4.073,63.434 L3.597,61.757 L3.182,60.082 L2.836,58.414 L2.56,56.747 L2.348,55.085 L2.209,53.429 L2.143,51.776 L2.144,50.127 L2.222,48.486 L2.377,46.847 L2.603,45.213 L2.909,43.586 L3.3,41.952 L3.66,40.611 L4.033,39.289 L4.416,37.995 L4.809,36.727 L5.211,35.488 L5.623,34.276 L6.044,33.089 L6.474,31.93 L6.914,30.798 L7.362,29.691 L7.819,28.611 L8.285,27.556 L8.76,26.526 L9.242,25.523 L9.733,24.544 L10.231,23.589 L10.737,22.66 L11.251,21.755 L11.773,20.873 L12.301,20.017 L12.838,19.184 L13.382,18.373 L13.932,17.587 L14.483,16.832 L15.624,15.36 L16.783,13.991 L17.969,12.709 L19.177,11.506 L20.406,10.391 L21.66,9.357 L22.933,8.398 L24.225,7.519 L25.539,6.717 L26.869,5.982 L28.216,5.323 L29.582,4.734 L30.963,4.208 L32.358,3.75 L33.77,3.359 L35.195,3.026 L36.631,2.756 L38.081,2.547 L39.542,2.392 L41.011,2.296 L42.491,2.256 L43.98,2.265 L45.473,2.328 L46.975,2.443 L48.481,2.602 L49.99,2.81 L51.503,3.065 L53.017,3.361 L54.53,3.7 L56.044,4.081 L57.556,4.499 L59.064,4.954 L60.569,5.446 L62.069,5.97 L63.561,6.527 L65.046,7.115 L66.523,7.73 L67.988,8.373 L69.443,9.043 L70.887,9.734 L72.316,10.448 L73.731,11.183 L75.132,11.934 L76.514,12.703 L77.879,13.488 L79.227,14.284 L80.553,15.093 L81.858,15.911 L83.142,16.737 L84.401,17.57 L85.636,18.407 L86.847,19.247 L88.03,20.087 L89.184,20.927 L90.312,21.765 L91.409,22.598 L92.474,23.425 L93.508,24.245 L94.508,25.055 L95.473,25.854 L96.404,26.64 L97.297,27.411 L98.152,28.166 L98.97,28.903 L99.746,29.619 L100.48,30.313 L101.175,30.984 L101.824,31.628 L102.427,32.244 L102.987,32.833 L103.497,33.388 L103.957,33.909 L104.37,34.395 L104.728,34.839 L105.031,35.24 L105.28,35.595 L105.467,35.891 L105.591,36.121 L105.654,36.264 L105.656,36.257 L105.661,36.037 L105.867,35.603 L106.3,35.301 L106.496,35.258 L105.98,35.248 L105.461,35.23 L104.971,35.203 L104.508,35.17 L104.075,35.128 L103.671,35.08 L103.294,35.025 L102.95,34.964 L102.633,34.897 L102.345,34.825 L102.09,34.75 L101.863,34.672 L101.666,34.592 L101.505,34.515 L101.371,34.439 L101.266,34.369 L101.195,34.311 L101.187,34.31 L101.097,34.199 L101.092,34.186 L101.091,34.14 L101.106,34.028 L101.172,33.84 L101.318,33.566 L101.544,33.234 L101.855,32.857 L102.257,32.439 L102.737,31.991 L103.296,31.518 L103.935,31.021 L104.643,30.504 L105.423,29.971 L106.274,29.42 L107.187,28.857 L108.164,28.28 L109.205,27.691 L110.301,27.093 L111.456,26.486 L112.668,25.87 L113.929,25.248 L115.241,24.62 L116.605,23.987 L118.012,23.35 L119.465,22.711 L120.963,22.07 L122.498,21.429 L124.074,20.789 L125.688,20.149 L127.334,19.512 L129.014,18.878 L130.724,18.249 L132.479,17.626 L134.231,17.005 L136.036,16.398 L137.84,15.791 L139.688,15.204 L141.537,14.615 L143.419,14.048 L145.299,13.481 L147.208,12.941 L149.121,12.402 L150.077,12.15 L151.047,11.894 L152.016,11.639 L152.979,11.385 L153.946,11.143 L154.914,10.9 L155.885,10.667 L156.856,10.433 L157.828,10.209 L158.8,9.985 L159.772,9.77 L160.742,9.557 L162.685,9.148 L164.623,8.763 L166.555,8.398 L168.478,8.057 L170.392,7.741 L172.295,7.449 L174.182,7.183 L176.054,6.945 L177.909,6.733 L179.743,6.551 L181.555,6.4 L183.345,6.278 L185.107,6.188 L186.841,6.13 L188.547,6.104 L190.219,6.112 L191.858,6.157 L193.462,6.236 L195.025,6.352 L196.549,6.507 L198.032,6.697 L199.468,6.927 L200.858,7.196 L202.202,7.503 L203.491,7.852 L204.728,8.243 L205.914,8.672 L207.039,9.143 L208.107,9.658 L209.118,10.212 L210.063,10.808 L210.948,11.449 L211.774,12.13 L212.531,12.853 L213.242,13.644 L213.551,14.028 L213.858,14.44 L214.149,14.867 L214.426,15.306 L214.685,15.755 L214.927,16.22 L215.31,17.011 L215.667,17.803 L216,18.6 L216.311,19.4 L216.597,20.201 L216.855,20.99 L217.322,22.627 L217.691,24.257 L217.969,25.903 L218.168,27.562 L218.278,29.23 L218.304,30.915 L218.253,32.612 L218.119,34.319 L217.903,36.042 L217.614,37.776 L217.247,39.52 L216.802,41.277 L216.289,43.045 L215.702,44.822 L215.042,46.61 L214.315,48.414 L213.921,49.308 L213.523,50.211 L213.092,51.116 L212.661,52.024 L212.199,52.934 L211.738,53.844 L211.245,54.756 L210.752,55.669 L210.228,56.585 L209.702,57.502 L209.15,58.422 L208.598,59.341 L208.016,60.261 L207.434,61.182 L206.823,62.104 L206.211,63.028 L205.573,63.953 L204.937,64.878 L204.273,65.804 L203.61,66.73 L202.92,67.657 L202.23,68.585 L201.517,69.514 L200.805,70.442 L200.068,71.371 L199.332,72.3 L198.572,73.23 L197.812,74.16 L197.031,75.09 L196.251,76.02 L195.45,76.95 L194.648,77.88 L193.826,78.809 L193.003,79.739 L192.162,80.668 L191.322,81.597 L190.463,82.526 L189.605,83.455 L188.729,84.382 L187.852,85.311 L186.96,86.238 L186.068,87.164 L185.161,88.089 L184.253,89.014 L183.33,89.937 L182.409,90.858 L181.468,91.777 L180.522,92.702 L179.576,93.628 L178.64,94.545 L177.678,95.456 L176.707,96.377 L175.736,97.297 L174.774,98.209 L173.79,99.115 L172.799,100.028 L171.807,100.941 L170.822,101.848 L169.821,102.748 L168.813,103.654 L167.805,104.561 L166.805,105.461 L165.789,106.352 L164.768,107.25 L163.746,108.148 L162.73,109.04 L161.704,109.923 L160.67,110.809 L159.635,111.693 L158.605,112.573 L157.569,113.444 L156.527,114.319 L155.486,115.194 L154.45,116.064 L153.41,116.924 L152.365,117.787 L151.321,118.651 L150.282,119.512 L149.245,120.363 L148.204,121.217 L147.163,122.072 L146.125,122.923 L145.091,123.763 L144.053,124.605 L143.015,125.447 L141.981,126.287 L140.954,127.113 L139.924,127.941 L138.895,128.77 L137.868,129.597 L136.853,130.409 L135.835,131.223 L134.817,132.037 L133.801,132.85 L132.794,133.652 L131.786,134.455 L130.787,135.249 L129.788,136.043 L128.798,136.829 L127.808,137.616 L126.827,138.394 L125.847,139.172 L124.877,139.942 L123.906,140.712 L122.948,141.472 L121.99,142.232 L121.043,142.984 L120.096,143.736 L119.162,144.478 L118.229,145.221 L117.31,145.953 L116.391,146.686 L115.486,147.41 L114.581,148.133 L113.692,148.847 L112.803,149.56 L111.931,150.263 L111.059,150.966 L110.203,151.658 L109.347,152.352 L108.51,153.034 L107.673,153.716 L106.856,154.387 L106.039,155.058 L105.24,155.718 L104.441,156.379 L103.664,157.027 L102.885,157.678 L101.376,158.951 L99.908,160.203 L98.487,161.431 L97.116,162.634 L95.792,163.814 L94.52,164.969 L93.303,166.097 L92.138,167.203 L91.029,168.282 L89.981,169.335 L88.988,170.363 L88.057,171.367 L87.203,172.329 C86.602,173.006 86.662,174.043 87.339,174.645 C88.016,175.247 89.053,175.186 89.655,174.509 Z" id="Fill-22"></path>
        </g>
    </g>
</svg>
