<?xml version="1.0" encoding="UTF-8"?>
<svg width="132px" height="89px" viewBox="0 0 132 89" version="1.1" xmlns="http://www.w3.org/2000/svg" xmlns:xlink="http://www.w3.org/1999/xlink">
    <title>125</title>
    <g id="Page-1" stroke="none" stroke-width="1" fill="none" fill-rule="evenodd">
        <g id="125" transform="translate(0.831956, 0.444063)" fill="currentColor">
            <path d="M76.4744943,4.63093685 L76.4759943,4.16793685 L76.4705943,3.74393685 L76.4578943,3.36893685 L76.4374943,3.02893685 L76.4059943,2.71593685 L76.3567943,2.41493685 L76.2646943,2.07293685 L76.1493943,1.80793685 L75.6287943,1.19093685 L75.6280943,1.19093685 L75.6266943,1.18993685 L75.6244943,1.18793685 L75.6216943,1.18593685 L75.6181943,1.18293685 L75.6138943,1.17993685 L75.6089943,1.17693685 L75.5427943,1.13093685 L75.4014943,1.04693685 L75.2408943,0.972936852 L75.0633943,0.911936852 L74.8732943,0.869936852 L74.6770943,0.849936852 L74.4821943,0.851936852 L74.2955943,0.874936852 L74.2039943,0.893936852 L74.1984943,0.894936852 L74.1937943,0.896936852 L74.1898943,0.896936852 L74.1866943,0.897936852 L74.1843943,0.898936852 L74.1827943,0.898936852 L74.1819943,0.898936852 L73.3359943,1.39493685 L73.1352943,1.63693685 L72.9479943,1.96193685 L72.8288943,2.23593685 L72.7297943,2.51093685 L72.6386943,2.80193685 L72.5494943,3.11793685 L72.4587943,3.46793685 L72.3663943,3.85093685 L72.2713943,4.26593685 L72.1742943,4.71793685 L72.0749943,5.20393685 L71.9730943,5.72293685 L71.8693943,6.27693685 L71.7643943,6.86493685 L71.6569943,7.48393685 L71.5531943,8.13593685 L71.4476943,8.81893685 L71.3536943,9.53193685 L71.2656943,10.2769369 L71.1628943,11.0479369 L71.0480943,11.8429369 L70.9307943,12.6659369 L70.8110943,13.5139369 L70.6973943,14.3859369 L70.5845943,15.2819369 L70.4777943,16.2039369 L70.2645943,18.1049369 L70.0290943,20.0849369 L69.9024943,21.1119369 L69.7695943,22.1369369 L69.6334943,23.1919369 L69.4970943,24.2469369 L69.3649943,25.3309369 L69.2376943,26.4169369 L69.1156943,27.5269369 L69.0001943,28.6389369 L68.8868943,29.7699369 L68.7729943,30.9009369 L68.6571943,32.0479369 L68.5303943,33.1949369 L68.4010943,34.3539369 L68.2684943,35.5129369 L68.1341943,36.6789369 L68.0006943,37.8459369 L67.8710943,39.0189369 L67.7453943,40.1919369 L67.6270943,41.3679369 L67.5120943,42.5429369 L67.4013943,43.7139369 L67.2875943,44.8829369 L67.1692943,46.0509369 L67.0460943,47.2219369 L66.9274943,48.3719369 L66.8088943,49.5189369 L66.6913943,50.6669369 L66.5773943,51.8169369 L66.4784943,52.9319369 L66.3824943,54.0429369 L66.2883943,55.1539369 L66.1949943,56.2679369 L66.1091943,57.3479369 L66.0210943,58.4269369 L65.9336943,59.4759369 L65.8434943,60.5239369 L65.7587943,61.5379369 L65.6724943,62.5529369 L65.5605943,64.5159369 L65.4683943,66.3959369 L65.3611943,68.1809369 L65.3096943,69.0409369 L65.2602943,69.8749369 L65.2149943,70.6819369 L65.1725943,71.4629369 L65.1341943,72.2169369 L65.0991943,72.9399369 L65.0689943,73.6359369 L65.0441943,74.3019369 L65.0248943,74.9339369 L65.0107943,75.5369369 L65.0023943,76.1059369 L64.9999837,76.6369369 C64.9976943,77.0969369 65.3691943,77.4729369 65.8298943,77.4749449 C66.2905943,77.4769369 66.6659943,77.1059369 66.6683943,76.6449369 L66.6714943,76.1239369 L66.6804943,75.5699369 L66.6951943,74.9809369 L66.7150943,74.3599369 L66.7403943,73.7049369 L66.7712943,73.0179369 L66.8069943,72.3029369 L66.8496943,71.5579369 L66.8983943,70.7829369 L66.9529943,69.9839369 L67.0131943,69.1569369 L67.0805943,68.3049369 L67.2357943,66.5309369 L67.4401943,64.6689369 L67.6570943,62.7219369 L67.7488943,61.7129369 L67.8422943,60.7039369 L67.9442943,59.6599369 L68.0491943,58.6169369 L68.1664943,57.5439369 L68.2858943,56.4719369 L68.4138943,55.3659369 L68.5411943,54.2579369 L68.6664943,53.1499369 L68.7889943,52.0439369 L68.9166943,50.9009369 L69.0408943,49.7539369 L69.1639943,48.6069369 L69.2870943,47.4639369 L69.4214943,46.2999369 L69.5608943,45.1339369 L69.7046943,43.9689369 L69.8515943,42.8059369 L70.0028943,41.6369369 L70.1508943,40.4689369 L70.2964943,39.2999369 L70.4382943,38.1319369 L70.5801943,36.9689369 L70.7211943,35.8049369 L70.8666943,34.6509369 L71.0154943,33.4969369 L71.1688943,32.3559369 L71.3330943,31.2169369 L71.5003943,30.0959369 L71.6682943,28.9749369 L71.8337943,27.8729369 L71.9929943,26.7699369 L72.1457943,25.6909369 L72.2938943,24.6119369 L72.4355943,23.5619369 L72.5774943,22.5119369 L72.7198943,21.4909369 L72.8686943,20.4729369 L73.1758943,18.5099369 L73.4952943,16.6319369 L73.6506943,15.7249369 L73.7969943,14.8389369 L73.9386943,13.9779369 L74.0710943,13.1379369 L74.2017943,12.3259369 L74.3306943,11.5409369 L74.4675943,10.7839369 L74.6143943,10.0589369 L74.7500943,9.36293685 L74.8695943,8.69393685 L74.9852943,8.05793685 L75.0914943,7.45493685 L75.1946943,6.88393685 L75.2928943,6.34993685 L75.3861943,5.85193685 L75.4759943,5.39093685 L75.5610943,4.96993685 L75.6408943,4.59193685 L75.7162943,4.25393685 L75.7858943,3.96493685 L75.8486943,3.72693685 L75.9020943,3.54193685 L75.9388943,3.42993685 L75.9468943,3.40593685 L75.8785943,3.51693685 L75.7873943,3.63993685 L74.9413943,4.13593685 L74.9421943,4.13493685 L74.9437943,4.13493685 L74.9460943,4.13393685 L74.9492943,4.13393685 L74.9530943,4.13293685 L74.9577943,4.13193685 L74.9631943,4.12993685 L74.8841943,4.14593685 L74.7098943,4.16793685 L74.5271943,4.16993685 L74.3429943,4.15093685 L74.1648943,4.11193685 L73.9991943,4.05493685 L73.8502943,3.98593685 L73.7204943,3.90893685 L73.6656943,3.87193685 L73.6706943,3.87493685 L73.6749943,3.87793685 L73.6785943,3.88093685 L73.6814943,3.88293685 L73.6835943,3.88393685 L73.6849943,3.88493685 L73.6857943,3.88593685 L73.1650943,3.26893685 L73.1307943,3.16993685 L73.1093943,3.09493685 L73.1212943,3.15593685 L73.1400943,3.31093685 L73.1588943,3.54793685 L73.1750943,3.84793685 L73.1868943,4.21193685 L73.1939943,4.65093685 C73.1993943,5.55693685 73.9382943,6.28693685 74.8440943,6.28093685 C75.7499943,6.27593685 76.4799943,5.53693685 76.4744943,4.63093685 Z" id="Fill-13"></path>
            <path d="M4.49229429,55.1429369 L5.71799429,54.6149369 L6.93479429,54.0899369 L8.16059429,53.5779369 L9.38639429,53.0659369 L10.6202943,52.5659369 L11.8550943,52.0649369 L13.0960943,51.5719369 L14.3363943,51.0789369 L15.5831943,50.5939369 L16.8296943,50.1069369 L18.0814943,49.6249369 L19.3319943,49.1369369 L20.5834943,48.6429369 L21.8374943,48.1569369 L23.1042943,47.6969369 L24.3715943,47.2369369 L25.6457943,46.7879369 L26.9196943,46.3349369 L28.1979943,45.8859369 L29.4747943,45.4349369 L30.7566943,44.9889369 L32.0388943,44.5429369 L33.3265943,44.1049369 L34.6146943,43.6729369 L35.9107943,43.2549369 L37.2150943,42.8389369 L38.5196943,42.4239369 L39.8170943,42.0169369 L41.1241943,41.6279369 L42.4402943,41.2349369 L43.7563943,40.8429369 L45.0634943,40.4489369 L46.3784943,40.0679369 L47.6995943,39.6789369 L49.0203943,39.2899369 L50.3340943,38.8979369 L51.6539943,38.5169369 L52.9795943,38.1329369 L54.3054943,37.7509369 L55.6263943,37.3709369 L56.9539943,37.0069369 L58.2880943,36.6449369 L59.6227943,36.2849369 L60.9533943,35.9279369 L62.2887943,35.5819369 L63.6288943,35.2369369 L64.9689943,34.8899369 L66.3054943,34.5449369 L67.6443943,34.2059369 L68.9866943,33.8649369 L70.3276943,33.5189369 L71.6656943,33.1739369 L73.0048943,32.8329369 L74.3470943,32.4919369 L75.6891943,32.1499369 L77.0297943,31.8109369 L78.3713943,31.4799369 L79.7153943,31.1489369 L81.0599943,30.8209369 L82.4037943,30.4949369 L83.7469943,30.1729369 L85.0912943,29.8509369 L86.4356943,29.5279369 L87.7788943,29.2029369 L89.1197943,28.8799369 L90.4603943,28.5529369 L91.8008943,28.2249369 L93.1409943,27.8949369 L94.4773943,27.5649369 L95.8136943,27.2339369 L97.1498943,26.9029369 L98.4874943,26.5719369 L99.8183943,26.2409369 L101.148994,25.9139369 L102.479794,25.5879369 L103.811094,25.2629369 L105.142494,24.9399369 L106.474194,24.6169369 L107.803694,24.2849369 L109.134394,23.9419369 L110.449894,23.5879369 L111.760794,23.2309369 L113.074094,22.8849369 L114.388894,22.5439369 L115.704494,22.2059369 L117.020494,21.8699369 L118.336994,21.5359369 L119.659394,21.2009369 L120.962394,20.8529369 L122.259594,20.5079369 L123.557494,20.1639369 L124.855394,19.8209369 L126.153294,19.4769369 L127.451294,19.1339369 L128.749194,18.7909369 L130.047194,18.4469369 C130.492594,18.3299369 130.758294,17.8729369 130.640694,17.4279369 C130.523194,16.9829369 130.066694,16.7169369 129.621294,16.8339369 L128.322994,17.1759369 L127.024794,17.5189369 L125.726494,17.8609369 L124.428294,18.2029369 L123.129994,18.5449369 L121.831694,18.8869369 L120.532694,19.2259369 L119.239494,19.5639369 L117.925994,19.8849369 L116.606594,20.2069369 L115.286694,20.5279369 L113.966294,20.8459369 L112.645194,21.1619369 L111.322594,21.4709369 L109.997694,21.7709369 L108.677194,22.0729369 L107.343394,22.3699369 L106.008294,22.6789369 L104.675594,22.9969369 L103.342494,23.3139369 L102.009194,23.6299369 L100.675594,23.9439369 L99.3417943,24.2579369 L98.0081943,24.5669369 L96.6672943,24.8719369 L95.3251943,25.1779369 L93.9830943,25.4839369 L92.6412943,25.7899369 L91.2959943,26.0979369 L89.9510943,26.4069369 L88.6063943,26.7169369 L87.2619943,27.0309369 L85.9155943,27.3479369 L84.5704943,27.6669369 L83.2253943,27.9859369 L81.8790943,28.3059369 L80.5316943,28.6279369 L79.1852943,28.9479369 L77.8381943,29.2659369 L76.4887943,29.5819369 L75.1388943,29.9009369 L73.7906943,30.2179369 L72.4424943,30.5349369 L71.0913943,30.8519369 L69.7424943,31.1789369 L68.3965943,31.5049369 L67.0519943,31.8359369 L65.7040943,32.1679369 L64.3591943,32.5089369 L63.0176943,32.8489369 L61.6763943,33.1899369 L60.3302943,33.5309369 L58.9877943,33.8799369 L57.6493943,34.2259369 L56.3104943,34.5699369 L54.9649943,34.9109369 L53.6238943,35.2599369 L52.2878943,35.6059369 L50.9515943,35.9499369 L49.6095943,36.2979369 L48.2736943,36.6579369 L46.9449943,37.0199369 L45.6165943,37.3829369 L44.2819943,37.7539369 L42.9555943,38.1399369 L41.6381943,38.5269369 L40.3207943,38.9149369 L38.9944943,39.3059369 L37.6771943,39.7109369 L36.3671943,40.1079369 L35.0567943,40.5039369 L33.7382943,40.8979369 L32.4258943,41.3009369 L31.1132943,41.6989369 L29.8061943,42.1059369 L28.4990943,42.5139369 L27.1987943,42.9349369 L25.8997943,43.3589369 L24.6078943,43.7959369 L23.3162943,44.2369369 L22.0309943,44.6879369 L20.7452943,45.1389369 L19.4604943,45.5839369 L18.1732943,46.0219369 L16.8982943,46.4859369 L15.6243943,46.9559369 L14.3603943,47.4439369 L13.0967943,47.9339369 L11.8422943,48.4389369 L10.5886943,48.9439369 L9.34369429,49.4629369 L8.09769429,49.9829369 L6.86079429,50.5159369 L5.62369429,51.0499369 L4.39549429,51.5959369 L3.17609429,52.1379369 C2.34629429,52.5019369 1.96829429,53.4689369 2.33179429,54.2989369 C2.69529429,55.1289369 3.66259429,55.5069369 4.49229429,55.1429369 Z" id="Fill-14"></path>
            <path d="M117.210394,0.123936852 L115.895394,0.656936852 L114.564694,1.19593685 L113.235894,1.76693685 L111.907694,2.33693685 L110.581794,2.93793685 L109.257794,3.53893685 L107.936994,4.16893685 L106.615594,4.79893685 L105.298194,5.46093685 L103.981694,6.12393685 L102.671194,6.81893685 L101.362894,7.51493685 L100.066994,8.25193685 L98.7720943,8.99193685 L97.4695943,9.73693685 L96.1666943,10.4799369 L94.8662943,11.2459369 L93.5673943,12.0119369 L92.2754943,12.8049369 L90.9835943,13.5979369 L89.6985943,14.4199369 L88.4142943,15.2409369 L87.1344943,16.0839369 L85.8549943,16.9239369 L84.5752943,17.7779369 L83.2945943,18.6299369 L82.0152943,19.4969369 L80.7349943,20.3619369 L79.4562943,21.2419369 L78.1784943,22.1209369 L76.9040943,23.0149369 L75.6312943,23.9119369 L74.3635943,24.8259369 L73.0991943,25.7439369 L71.8400943,26.6779369 L70.5845943,27.6159369 L69.3334943,28.5659369 L68.0835943,29.5179369 L66.8379943,30.4829369 L65.5911943,31.4449369 L64.3475943,32.4169369 L63.1013943,33.3839369 L61.8584943,34.3599369 L60.6141943,35.3339369 L59.3736943,36.3169369 L58.1324943,37.2979369 L56.8967943,38.2879369 L55.6603943,39.2789369 L54.4322943,40.2819369 L53.2082943,41.2819369 L51.9874943,42.2859369 L50.7622943,43.2949369 L49.5494943,44.3169369 L48.3414943,45.3349369 L47.1332943,46.3519369 L45.9199943,47.3719369 L44.7167943,48.3959369 L43.5154943,49.4159369 L42.3132943,50.4349369 L41.1070943,51.4539369 L39.9116943,52.4759369 L38.7189943,53.4969369 L37.5264943,54.5169369 L36.3338943,55.5419369 L35.1545943,56.5669369 L33.9797943,57.5929369 L32.8055943,58.6199369 L31.6310943,59.6489369 L30.4700943,60.6739369 L29.3107943,61.6979369 L28.1513943,62.7219369 L26.9913943,63.7469369 L25.8410943,64.7599369 L24.6903943,65.7719369 L23.5382943,66.7819369 L22.3857943,67.7919369 L21.2465943,68.7889369 L20.1072943,69.7849369 L18.9812943,70.7959369 L17.8562943,71.8079369 L16.7498943,72.8069369 L15.6416943,73.8049369 L14.5245943,74.7929369 L13.4075943,75.7789369 L12.2982943,76.7489369 L11.1887943,77.7189369 L10.0855943,78.6749369 L8.98239429,79.6319369 L7.88629429,80.5739369 L6.78989429,81.5169369 L5.69959429,82.4449369 L4.60949429,83.3739369 L3.52769429,84.2879369 L2.44619429,85.2019369 L1.37319429,86.1009369 L0.298794291,87.0009369 C-0.0545057088,87.2969369 -0.101205709,87.8229369 0.194594291,88.1759369 C0.490294291,88.5299369 1.01629429,88.5759369 1.36959429,88.2809369 L2.44469429,87.3809369 L3.52129429,86.4809369 L4.60639429,85.5649369 L5.69129429,84.6499369 L6.78449429,83.7199369 L7.87749429,82.7909369 L8.97939429,81.8509369 L10.0815943,80.9119369 L11.1927943,79.9609369 L12.3041943,79.0109369 L13.4249943,78.0519369 L14.5460943,77.0929369 L15.6805943,76.1239369 L16.8148943,75.1549369 L17.9581943,74.1979369 L19.1032943,73.2409369 L20.2598943,72.2629369 L21.4154943,71.2859369 L22.5577943,70.2929369 L23.7001943,69.2999369 L24.8580943,68.2969369 L26.0163943,67.2939369 L27.1760943,66.2919369 L28.3362943,65.2929369 L29.5118943,64.2889369 L30.6880943,63.2839369 L31.8643943,62.2789369 L33.0389943,61.2759369 L34.2266943,60.2679369 L35.4147943,59.2569369 L36.6021943,58.2449369 L37.7851943,57.2329369 L38.9801943,56.2199369 L40.1752943,55.2029369 L41.3702943,54.1849369 L42.5623943,53.1699369 L43.7658943,52.1579369 L44.9733943,51.1459369 L46.1817943,50.1349369 L47.3882943,49.1289369 L48.6076943,48.1319369 L49.8323943,47.1339369 L51.0571943,46.1359369 L52.2772943,45.1419369 L53.5067943,44.1589369 L54.7406943,43.1709369 L55.9714943,42.1789369 L57.1980943,41.1899369 L58.4307943,40.2089369 L59.6639943,39.2289369 L60.9020943,38.2559369 L62.1406943,37.2849369 L63.3853943,36.3249369 L64.6314943,35.3669369 L65.8828943,34.4209369 L67.1370943,33.4789369 L68.3971943,32.5509369 L69.6584943,31.6249369 L70.9243943,30.7129369 L72.1891943,29.7999369 L73.4573943,28.8979369 L74.7220943,27.9929369 L75.9897943,27.1019369 L77.2541943,26.2069369 L78.5215943,25.3269369 L79.7873943,24.4439369 L81.0569943,23.5759369 L82.3256943,22.7099369 L83.6000943,21.8639369 L84.8756943,21.0209369 L86.1569943,20.1999369 L87.4393943,19.3809369 L88.7281943,18.5849369 L90.0167943,17.7919369 L91.3075943,17.0179369 L92.5975943,16.2449369 L93.8870943,15.4879369 L95.1765943,14.7299369 L96.4644943,13.9869369 L97.7510943,13.2439369 L99.0408943,12.5259369 L100.331094,11.8099369 L101.634394,11.1389369 L102.936594,10.4649369 L104.231194,9.79693685 L105.523694,9.12893685 L106.814994,8.48093685 L108.105494,7.83293685 L109.396594,7.20993685 L110.688294,6.58593685 L111.980694,5.98493685 L113.271294,5.38593685 L114.563494,4.81493685 L115.855194,4.24393685 L117.148694,3.70393685 L118.457994,3.15793685 C119.295894,2.81293685 119.695794,1.85493685 119.351194,1.01693685 C119.006694,0.178936852 118.048194,-0.221063148 117.210394,0.123936852 Z" id="Fill-15"></path>
            <path d="M52.4388943,18.5029369 L52.9274943,19.3249369 L53.3989943,20.1209369 L53.8569943,20.8899369 L54.3063943,21.6349369 L54.7476943,22.3509369 L55.1873943,23.0359369 L55.6454943,23.6819369 L56.0527943,24.3279369 L56.4426943,24.9539369 L56.8263943,25.5579369 L57.2035943,26.1369369 L57.5723943,26.6929369 L58.2707943,27.7579369 L58.8974943,28.7629369 L59.4618943,29.7079369 L59.9890943,30.5939369 L60.4880943,31.4109369 L60.9617943,32.1649369 L61.4111943,32.8669369 L61.8305943,33.5189369 L62.2190943,34.1279369 L62.5773943,34.7039369 L62.9128943,35.2449369 L63.2304943,35.7519369 L63.5346943,36.2329369 L63.8306943,36.6869369 L64.1207943,37.1179369 L64.4100943,37.5289369 L64.7008943,37.9249369 L65.0053943,38.3139369 L65.6112943,39.0339369 L66.2701943,39.7449369 L66.9827943,40.4639369 L67.3736943,40.8469369 L67.7824943,41.2389369 L68.2168943,41.6499369 L68.6795943,42.0809369 L69.1775943,42.5349369 L69.7158943,43.0169369 L70.2964943,43.5219369 L70.9245943,44.0609369 L71.6023943,44.6389369 L72.3273943,45.2559369 L73.0991943,45.9309369 L73.9233943,46.6629369 L74.8185943,47.4289369 L75.8037943,48.2259369 L76.8293943,49.1179369 L77.3609943,49.5909369 L77.9088943,50.0839369 L78.4730943,50.5979369 L79.0518943,51.1299369 L79.6494943,51.6809369 L80.2668943,52.2529369 C80.6047943,52.5659369 81.1324943,52.5459369 81.4457943,52.2079369 C81.7590943,51.8699369 81.7391943,51.3429369 81.4014943,51.0289369 L80.7846943,50.4559369 L80.1868943,49.9009369 L79.6080943,49.3659369 L79.0485943,48.8449369 L78.5091943,48.3389369 L77.9891943,47.8489369 L77.0059943,46.9069369 L76.1159943,45.9989369 L75.2627943,45.1819369 L74.4486943,44.4349369 L73.6970943,43.7359369 L73.0071943,43.0789369 L72.3631943,42.4659369 L71.7659943,41.8989369 L71.2111943,41.3739369 L70.6904943,40.8879369 L70.2074943,40.4369369 L69.7604943,40.0149369 L69.3445943,39.6169369 L68.9626943,39.2379369 L68.6157943,38.8819369 L67.9754943,38.1819369 L67.4220943,37.5139369 L66.9023943,36.8279369 L66.6599943,36.4879369 L66.4080943,36.1259369 L66.1517943,35.7449369 L65.8884943,35.3429369 L65.6164943,34.9129369 L65.3314943,34.4519369 L65.0351943,33.9569369 L64.7237943,33.4219369 L64.3954943,32.8419369 L64.0557943,32.2129369 L63.6954943,31.5329369 L63.3067943,30.7979369 L62.8841943,30.0139369 L62.4167943,29.1749369 L61.9006943,28.2779369 L61.3467943,27.3199369 L60.7664943,26.2799369 L60.1626943,25.1529369 L59.8459943,24.5589369 L59.5118943,23.9489369 L59.1573943,23.3229369 L58.7839943,22.6809369 L58.3995943,22.0159369 L58.0366943,21.3069369 L57.6282943,20.5969369 L57.1908943,19.8719369 L56.7299943,19.1289369 L56.2483943,18.3679369 L55.7472943,17.5849369 L55.2294943,16.7789369 C54.7530943,16.0079369 53.7423943,15.7689369 52.9717943,16.2459369 C52.2011943,16.7219369 51.9626943,17.7329369 52.4388943,18.5029369 Z" id="Fill-16"></path>
        </g>
    </g>
</svg>
