<?xml version="1.0" encoding="UTF-8"?>
<svg width="122px" height="211px" viewBox="0 0 122 211" version="1.1" xmlns="http://www.w3.org/2000/svg" xmlns:xlink="http://www.w3.org/1999/xlink">
    <title>128</title>
    <g id="Page-1" stroke="none" stroke-width="1" fill="none" fill-rule="evenodd">
        <g id="128" transform="translate(0.025616, 0.250552)" fill="currentColor">
            <path d="M1.90993378,94.4524476 L2.83853378,94.3144476 L3.73773378,94.1814476 L4.60803378,94.0494476 L5.45173378,93.9144476 L6.26673378,93.7754476 L7.05243378,93.6244476 L7.80853378,93.4414476 L8.54633378,93.3074476 L9.25973378,93.1794476 L9.94963378,93.0464476 L10.6146338,92.9104476 L11.2555338,92.7734476 L12.4784338,92.5174476 L13.6199338,92.3034476 L14.6846338,92.1244476 L15.6800338,91.9554476 L16.6023338,91.7864476 L17.4566338,91.6184476 L18.2542338,91.4544476 L18.9950338,91.3024476 L19.6850338,91.1654476 L20.3337338,91.0454476 L20.9404338,90.9374476 L21.5097338,90.8384476 L22.0493338,90.7444476 L22.5603338,90.6544476 L23.0474338,90.5664476 L23.5170338,90.4784476 L23.9717338,90.3894476 L24.4232338,90.2964476 L26.1778338,89.9034476 L28.1342338,89.4594476 L29.3771338,89.1794476 L30.6129338,88.8914476 L31.3361338,88.7134476 L32.1118338,88.5164476 L32.9469338,88.3034476 L33.8405338,88.0754476 L34.8058338,87.8434476 L35.8468338,87.5994476 L36.9538338,87.3154476 L38.1361338,86.9764476 L39.4157338,86.6564476 L40.0883338,86.4964476 L40.7853338,86.3324476 L41.5074338,86.1674476 L42.2530338,85.9994476 L43.0241338,85.8274476 L43.8216338,85.6484476 C44.2713338,85.5484476 44.5548338,85.1034476 44.4548338,84.6534476 C44.3548338,84.2034476 43.9092338,83.9204476 43.4594338,84.0204476 L42.6613338,84.1964476 L41.8892338,84.3674476 L41.1428338,84.5324476 L40.4184338,84.6894476 L39.7178338,84.8384476 L39.0404338,84.9794476 L37.7461338,85.2364476 L36.5316338,85.4354476 L35.4087338,85.6524476 L34.3634338,85.8784476 L33.3914338,86.0834476 L32.4864338,86.2604476 L31.6408338,86.4254476 L30.8567338,86.5804476 L30.1305338,86.7274476 L28.8910338,86.9894476 L27.6586338,87.2584476 L25.7159338,87.6424476 L23.9670338,87.9344476 L23.5366338,88.0034476 L23.0892338,88.0774476 L22.6264338,88.1534476 L22.1454338,88.2324476 L21.6399338,88.3154476 L21.1046338,88.4014476 L20.5376338,88.4894476 L19.9315338,88.5804476 L19.2807338,88.6724476 L18.5843338,88.7594476 L17.8341338,88.8484476 L17.0258338,88.9424476 L16.1616338,89.0514476 L15.2325338,89.1804476 L14.2335338,89.3334476 L13.1656338,89.4994476 L12.0135338,89.6574476 L10.7716338,89.8034476 L10.1191338,89.8764476 L9.44453378,89.9594476 L8.74753378,90.0544476 L8.02973378,90.1614476 L7.28663378,90.2704476 L6.51103378,90.3394476 L5.71743378,90.4494476 L4.90003378,90.5794476 L4.05693378,90.7244476 L3.18973378,90.8814476 L2.29473378,91.0454476 L1.37113378,91.2164476 C0.477533783,91.3654476 -0.126266217,92.2104476 0.0225337835,93.1034476 C0.171333783,93.9974476 1.01643378,94.6014476 1.90993378,94.4524476 Z" id="Fill-6"></path>
            <path d="M11.2354338,142.362448 L11.9448338,142.104448 L12.6321338,141.853448 L13.2964338,141.607448 L13.9388338,141.361448 L14.5572338,141.115448 L15.1504338,140.864448 L16.2667338,140.345448 L17.3241338,139.897448 L18.2985338,139.450448 L19.2097338,139.026448 L20.0657338,138.652448 L20.8678338,138.321448 L21.6186338,138.014448 L22.3111338,137.718448 L22.9489338,137.433448 L23.5417338,137.159448 L24.0909338,136.903448 L24.6031338,136.670448 L25.0862338,136.461448 L25.5384338,136.272448 L25.9632338,136.098448 L26.3663338,135.940448 L26.7472338,135.792448 L27.1104338,135.653448 L27.4604338,135.522448 L27.7991338,135.396448 L28.1160338,135.278448 L29.4662338,134.795448 L31.0124338,134.318448 L32.0144338,134.046448 L33.0253338,133.767448 L33.6142338,133.598448 L34.2502338,133.412448 L34.9355338,133.209448 L35.6691338,132.991448 L36.4620338,132.766448 L37.3181338,132.534448 L38.2277338,132.266448 L39.1941338,131.935448 L40.2428338,131.625448 L41.3642338,131.310448 L42.5678338,130.985448 L43.8550338,130.640448 C44.3002338,130.522448 44.5651338,130.065448 44.4466338,129.619448 C44.3281338,129.174448 43.8712338,128.909448 43.4260338,129.028448 L42.1384338,129.368448 L40.9335338,129.681448 L39.8045338,129.960448 L38.7401338,130.205448 L37.7375338,130.390448 L36.8141338,130.601448 L35.9543338,130.815448 L35.1532338,131.004448 L34.4064338,131.171448 L33.7084338,131.327448 L33.0608338,131.474448 L32.4575338,131.616448 L31.4379338,131.877448 L30.4094338,132.145448 L28.7946338,132.569448 L27.3669338,132.977448 L26.9947338,133.097448 L26.6329338,133.220448 L26.2629338,133.350448 L25.8821338,133.488448 L25.4855338,133.635448 L25.0693338,133.792448 L24.6306338,133.955448 L24.1636338,134.128448 L23.6636338,134.309448 L23.1282338,134.494448 L22.5518338,134.688448 L21.9331338,134.900448 L21.2748338,135.135448 L20.5709338,135.399448 L19.8170338,135.695448 L19.0098338,136.007448 L18.1340338,136.324448 L17.1830338,136.640448 L16.1702338,136.981448 L15.0958338,137.376448 L13.9277338,137.756448 L13.3247338,137.974448 L12.7060338,138.214448 L12.0695338,138.469448 L11.4161338,138.737448 L10.7421338,139.017448 L10.0456338,139.305448 C9.20143378,139.634448 8.78343378,140.585448 9.11193378,141.429448 C9.44053378,142.273448 10.3912338,142.691448 11.2354338,142.362448 Z" id="Fill-7"></path>
            <path d="M120.733934,207.611448 L119.804034,206.774448 L118.888534,205.950448 L118.000834,205.111448 L117.112934,204.273448 L116.252334,203.420448 L115.390434,202.566448 L114.553134,201.700448 L113.716734,200.835448 L112.907134,199.957448 L112.097234,199.079448 L111.314034,198.187448 L110.528234,197.296448 L109.766334,196.392448 L109.005334,195.490448 L108.270234,194.575448 L107.533434,193.662448 L106.822434,192.736448 L106.110134,191.808448 L105.419634,190.871448 L104.727934,189.936448 L104.061534,188.989448 L103.394734,188.043448 L102.747534,187.088448 L102.094634,186.134448 L101.464334,185.169448 L100.834434,184.205448 L100.236634,183.226448 L99.6415338,182.244448 L99.0708338,181.252448 L98.4990338,180.258448 L97.9496338,179.254448 L97.4007338,178.251448 L96.8758338,177.238448 L96.3506338,176.225448 L95.8457338,175.204448 L95.3395338,174.181448 L94.8546338,173.149448 L94.3700338,172.118448 L93.9055338,171.079448 L93.4406338,170.040448 L92.9987338,168.991448 L92.5558338,167.941448 L92.1330338,166.883448 L91.7104338,165.826448 L91.3103338,164.760448 L90.9105338,163.693448 L90.5361338,162.617448 L90.1609338,161.540448 L89.8058338,160.455448 L89.4517338,159.371448 L89.1213338,158.279448 L88.7908338,157.186448 L88.4818338,156.086448 L88.1734338,154.984448 L87.8864338,153.876448 L87.5995338,152.768448 L87.3337338,151.654448 L87.0679338,150.539448 L86.8230338,149.418448 L86.5776338,148.296448 L86.3511338,147.168448 L86.1235338,146.041448 L85.9153338,144.909448 L85.7069338,143.776448 L85.5188338,142.638448 L85.3281338,141.499448 L85.1545338,140.355448 L84.9810338,139.212448 L84.8271338,138.064448 L84.6711338,136.916448 L84.5341338,135.763448 L84.3969338,134.609448 L84.2771338,133.451448 L84.1564338,132.294448 L84.0547338,131.132448 L83.9529338,129.970448 L83.8700338,128.805448 L83.7883338,127.637448 L83.7235338,126.467448 L83.6587338,125.298448 L83.6132338,124.125448 L83.5705338,122.952448 L83.5458338,121.775448 L83.5211338,120.598448 L83.5134338,119.419448 L83.5067338,118.240448 L83.5177338,117.059448 L83.5286338,115.878448 L83.5580338,114.695448 L83.5879338,113.510448 L83.6333338,112.325448 L83.6787338,111.140448 L83.7408338,109.954448 L83.8028338,108.767448 L83.8815338,107.580448 L83.9601338,106.392448 L84.0528338,105.203448 L84.1454338,104.015448 L84.2543338,102.826448 L84.3622338,101.637448 L84.4844338,100.447448 L84.6066338,99.2574476 L84.7432338,98.0674476 L84.8788338,96.8784476 L85.0295338,95.6884476 L85.1802338,94.4994476 L85.3461338,93.3104476 L85.5121338,92.1214476 L85.6918338,90.9324476 L85.8714338,89.7444476 L86.0660338,88.5584476 L86.2628338,87.3714476 L86.4741338,86.1864476 L86.6855338,85.0014476 L86.9107338,83.8174476 L87.1370338,82.6354476 L87.3774338,81.4544476 L87.6178338,80.2744476 L87.8729338,79.0964476 L88.1286338,77.9174476 L88.3967338,76.7424476 L88.6646338,75.5674476 L88.9458338,74.3954476 L89.2270338,73.2234476 L89.5214338,72.0544476 L89.8156338,70.8854476 L90.1202338,69.7194476 L90.4247338,68.5544476 L90.7418338,67.3924476 L91.0581338,66.2314476 L91.3856338,65.0734476 L91.7132338,63.9154476 L92.0519338,62.7614476 L92.3896338,61.6074476 L92.7389338,60.4584476 L93.0883338,59.3094476 L93.4494338,58.1654476 L93.8104338,57.0214476 L94.1818338,55.8824476 L94.5530338,54.7434476 L94.9356338,53.6104476 L95.3182338,52.4774476 L95.7119338,51.3504476 L96.1057338,50.2234476 L96.5105338,49.1024476 L96.9168338,47.9814476 L97.3337338,46.8684476 L97.7506338,45.7554476 L98.1786338,44.6494476 L98.6072338,43.5434476 L99.0450338,42.4444476 L99.4827338,41.3454476 L99.9309338,40.2544476 L100.379234,39.1644476 L100.837234,38.0814476 L101.295334,36.9984476 L101.752634,35.9184476 L102.209734,34.8394476 L102.676134,33.7694476 L103.142134,32.6984476 L103.614734,31.6354476 L104.087534,30.5714476 L104.568334,29.5164476 L105.050934,28.4624476 L105.547134,27.4204476 L106.043334,26.3784476 L106.547734,25.3454476 L107.053134,24.3134476 L107.567334,23.2914476 L108.081234,22.2694476 L108.603034,21.2584476 L109.125234,20.2464476 L109.655634,19.2464476 L110.186234,18.2464476 L110.723434,17.2564476 L111.260734,16.2664476 L111.805634,15.2884476 L112.350434,14.3104476 L112.902034,13.3444476 L113.454334,12.3774476 L114.013234,11.4224476 L114.571934,10.4684476 L115.136834,9.52544758 L115.701834,8.58344758 L116.272834,7.65444758 L116.843934,6.72444758 L117.420434,5.80644758 L117.996634,4.88844758 L118.578434,3.98344758 L119.160234,3.07944758 L119.747334,2.18844758 L120.336934,1.29344758 C120.590534,0.908447581 120.484334,0.391447581 120.099734,0.137447581 C119.715134,-0.115552419 119.197734,-0.00955241917 118.944134,0.375447581 L118.354034,1.26944758 L117.761334,2.16844758 L117.174134,3.07944758 L116.586934,3.99144758 L116.005334,4.91744758 L115.424034,5.84144758 L114.848034,6.77844758 L114.271934,7.71544758 L113.701834,8.66544758 L113.131834,9.61444758 L112.568134,10.5764476 L112.004734,11.5384476 L111.446634,12.5104476 L110.887834,13.4824476 L110.335834,14.4664476 L109.783934,15.4514476 L109.238534,16.4464476 L108.692934,17.4414476 L108.154034,18.4454476 L107.614934,19.4514476 L107.082634,20.4674476 L106.549834,21.4824476 L106.024734,22.5084476 L105.499934,23.5344476 L104.980834,24.5694476 L104.460734,25.6034476 L103.948834,26.6484476 L103.436934,27.6924476 L102.928434,28.7444476 L102.418034,29.7954476 L101.915534,30.8544476 L101.412734,31.9144476 L100.921234,32.9844476 L100.430134,34.0544476 L99.9481338,35.1334476 L99.4663338,36.2124476 L99.0023338,37.3034476 L98.5382338,38.3944476 L98.0838338,39.4934476 L97.6292338,40.5924476 L97.1839338,41.6994476 L96.7387338,42.8054476 L96.3027338,43.9184476 L95.8661338,45.0324476 L95.4390338,46.1524476 L95.0120338,47.2734476 L94.5955338,48.4014476 L94.1777338,49.5274476 L93.7684338,50.6594476 L93.3590338,51.7924476 L92.9607338,52.9314476 L92.5623338,54.0704476 L92.1753338,55.2164476 L91.7884338,56.3614476 L91.4120338,57.5114476 L91.0358338,58.6624476 L90.6714338,59.8184476 L90.3069338,60.9744476 L89.9549338,62.1364476 L89.6038338,63.2984476 L89.2640338,64.4644476 L88.9239338,65.6304476 L88.5977338,66.8024476 L88.2723338,67.9744476 L87.9597338,69.1504476 L87.6472338,70.3264476 L87.3479338,71.5054476 L87.0488338,72.6854476 L86.7629338,73.8694476 L86.4770338,75.0534476 L86.2047338,76.2414476 L85.9326338,77.4274476 L85.6729338,78.6174476 L85.4126338,79.8074476 L85.1654338,81.0004476 L84.9183338,82.1924476 L84.6854338,83.3884476 L84.4513338,84.5824476 L84.2296338,85.7784476 L84.0078338,86.9754476 L83.8007338,88.1744476 L83.5914338,89.3734476 L83.3968338,90.5734476 L83.2024338,91.7724476 L83.0217338,92.9734476 L82.8409338,94.1754476 L82.6755338,95.3774476 L82.5101338,96.5804476 L82.3608338,97.7844476 L82.2125338,98.9874476 L82.0785338,100.190448 L81.9446338,101.394448 L81.8284338,102.599448 L81.7132338,103.803448 L81.6143338,105.008448 L81.5155338,106.211448 L81.4326338,107.415448 L81.3498338,108.619448 L81.2837338,109.822448 L81.2178338,111.026448 L81.1692338,112.228448 L81.1208338,113.429448 L81.0879338,114.630448 L81.0547338,115.831448 L81.0378338,117.030448 L81.0210338,118.229448 L81.0220338,119.427448 L81.0220338,120.624448 L81.0376338,121.818448 L81.0532338,123.014448 L81.0870338,124.207448 L81.1182338,125.400448 L81.1668338,126.590448 L81.2155338,127.780448 L81.2812338,128.967448 L81.3456338,130.155448 L81.4290338,131.339448 L81.5124338,132.524448 L81.6151338,133.705448 L81.7187338,134.886448 L81.8401338,136.062448 L81.9617338,137.240448 L82.1035338,138.413448 L82.2475338,139.587448 L82.4114338,140.756448 L82.5753338,141.923448 L82.7586338,143.087448 L82.9444338,144.251448 L83.1506338,145.409448 L83.3571338,146.568448 L83.5851338,147.721448 L83.8142338,148.873448 L84.0624338,150.019448 L84.3110338,151.166448 L84.5807338,152.307448 L84.8504338,153.449448 L85.1416338,154.583448 L85.4326338,155.717448 L85.7413338,156.845448 L86.0494338,157.974448 L86.3795338,159.097448 L86.7097338,160.219448 L87.0601338,161.335448 L87.4095338,162.449448 L87.7794338,163.557448 L88.1498338,164.666448 L88.5399338,165.769448 L88.9295338,166.872448 L89.3421338,167.966448 L89.7545338,169.060448 L90.1884338,170.145448 L90.6233338,171.232448 L91.0816338,172.310448 L91.5402338,173.389448 L92.0256338,174.456448 L92.5106338,175.523448 L93.0173338,176.581448 L93.5253338,177.640448 L94.0607338,178.687448 L94.5964338,179.735448 L95.1564338,180.772448 L95.7158338,181.808448 L96.2971338,182.835448 L96.8795338,183.863448 L97.4867338,184.880448 L98.0911338,185.899448 L98.7131338,186.912448 L99.3346338,187.923448 L99.9792338,188.925448 L100.629534,189.925448 L101.310734,190.909448 L101.992234,191.894448 L102.699634,192.866448 L103.408234,193.836448 L104.141834,194.793448 L104.876734,195.751448 L105.637834,196.697448 L106.400634,197.641448 L107.190034,198.572448 L107.978534,199.501448 L108.791234,200.417448 L109.606534,201.334448 L110.448634,202.237448 L111.290934,203.140448 L112.160434,204.028448 L113.029034,204.915448 L113.922334,205.788448 L114.817034,206.663448 L115.739234,207.522448 L116.661634,208.382448 L117.611634,209.226448 L118.547134,210.057448 C119.222434,210.660448 120.259434,210.603448 120.863234,209.927448 C121.467134,209.252448 121.409134,208.215448 120.733934,207.611448 Z" id="Fill-8"></path>
        </g>
    </g>
</svg>
