<?xml version="1.0" encoding="UTF-8"?>
<svg width="98px" height="182px" viewBox="0 0 98 182" version="1.1" xmlns="http://www.w3.org/2000/svg" xmlns:xlink="http://www.w3.org/1999/xlink">
    <title>129</title>
    <g id="Page-1" stroke="none" stroke-width="1" fill="none" fill-rule="evenodd">
        <g id="129" transform="translate(0.981030, 0.444800)" fill="currentColor">
            <path d="M9.39301,95.0261995 L8.56842,95.1621995 L7.79598,95.2881995 L7.0734,95.4051995 L6.39578,95.5141995 L5.76741,95.6181995 L5.18702,95.7151995 L4.6496,95.8051995 L4.16012,95.8921995 L3.7159,95.9701995 L3.31536,96.0561995 L2.95995,96.1321995 L2.6474,96.1901995 L2.37461,96.2291995 L2.14916,96.2581995 L1.97113,96.2781995 L1.84317,96.2891995 L1.78539,96.2931995 L1.82364,96.2961995 L1.86891,96.3001995 L2.40607,96.4901995 L2.40595,96.4901995 L2.4057,96.4901995 L2.40532,96.4901995 L2.40481,96.4901995 L2.40418,96.4891995 L2.40341,96.4891995 L2.40253,96.4881995 L2.40151,96.4881995 L2.40037,96.4871995 L2.39911,96.4861995 L2.39771,96.4861995 L2.39619,96.4851995 L2.39454,96.4841995 L2.39277,96.4831995 L2.39087,96.4821995 L2.41673,96.4971995 L2.47338,96.5331995 L2.53375,96.5751995 L2.5976,96.6241995 L2.66447,96.6821995 L2.73358,96.7491995 L2.80378,96.8271995 L2.87351,96.9161995 L2.94081,97.0171995 L3.0034,97.1291995 L3.05886,97.2511995 L3.10491,97.3821995 L3.13972,97.5181995 L3.16219,97.6571995 L3.17209,97.7941995 L3.17007,97.9281995 L3.16508,97.9921995 L3.16521,97.9911995 L3.16533,97.9891995 L3.16545,97.9881995 L3.16555,97.9871995 L3.16565,97.9851995 L3.16573,97.9841995 L3.16581,97.9841995 L3.16588,97.9831995 L3.16594,97.9821995 L3.16599,97.9811995 L3.16604,97.9811995 L3.16607,97.9811995 L3.1661,97.9801995 L3.16612,97.9801995 L3.16613,97.9801995 L2.69005,98.9641995 L2.54432,99.0801995 L2.41504,99.1601995 L2.41773,99.1571995 L2.48686,99.1271995 L2.60446,99.0811995 L2.76402,99.0201995 L2.95681,98.9491995 L3.18177,98.8711995 L3.43806,98.7841995 L3.71965,98.6861995 L4.02839,98.5821995 L4.36373,98.4701995 L4.72179,98.3511995 L5.1038,98.2271995 L5.50863,98.1011995 L6.38581,97.8401995 L7.3466,97.5711995 L8.38554,97.2951995 L9.48624,97.0021995 L10.64558,96.6801995 L11.8563,96.3281995 L13.11055,95.9621995 L14.4118,95.6011995 L15.75353,95.2511995 L17.12421,94.9021995 L18.51682,94.5421995 L19.92172,94.1611995 L21.3374,93.7751995 L22.75739,93.4061995 L24.17594,93.0491995 L25.59404,92.6881995 L26.97597,92.3191995 L28.35556,91.9411995 L29.69942,91.5711995 L31.01303,91.2251995 L32.287,90.8961995 L33.5071,90.5351995 L34.67144,90.1771995 L35.78317,89.8651995 L36.83686,89.5771995 L37.8193,89.3091995 L38.7233,89.0631995 L39.55011,88.8361995 L40.28621,88.6271995 L40.91992,88.4401995 C41.362,88.3111995 41.61525,87.8471995 41.48557,87.4051995 C41.3559,86.9631995 40.8924,86.7101995 40.45033,86.8391995 L39.82509,87.0221995 L39.10256,87.2251995 L38.28516,87.4481995 L37.38742,87.6861995 L36.40717,87.9371995 L35.3513,88.1971995 L34.23118,88.4591995 L33.04142,88.7021995 L31.79929,88.9641995 L30.52391,89.2771995 L29.20467,89.5911995 L27.84626,89.8951995 L26.45099,90.2061995 L25.05807,90.5261995 L23.63639,90.8691995 L22.21517,91.2141995 L20.78678,91.5491995 L19.3541,91.8681995 L17.9331,92.1871995 L16.53246,92.5201995 L15.15666,92.8541995 L13.80559,93.1751995 L12.48543,93.4711995 L11.20374,93.7431995 L9.96742,94.0101995 L8.78984,94.2841995 L7.6778,94.5601995 L6.62812,94.8281995 L5.64911,95.0721995 L4.74941,95.2881995 L4.32488,95.3881995 L3.92288,95.4801995 L3.54403,95.5681995 L3.1867,95.6531995 L2.85295,95.7351995 L2.54401,95.8131995 L2.25839,95.8921995 L1.99646,95.9671995 L1.75917,96.0381995 L1.54166,96.1071995 L1.34207,96.1781995 L1.15564,96.2531995 L0.96021,96.3431995 L0.6975,96.5021995 L0.48481,96.6831995 L0.00874,97.6671995 L0.00872,97.6671995 L0.00871,97.6671995 L0.00867,97.6671995 L0.00863,97.6681995 L0.00857,97.6681995 L0.0085,97.6691995 L0.00842,97.6691995 L0.00833,97.6701995 L0.00823,97.6711995 L0.00811,97.6721995 L0.00799,97.6731995 L0.00785,97.6741995 L0.00771,97.6761995 L0.00755,97.6771995 L0.00738,97.6791995 L0.00207,97.7461995 L0,97.8831995 L0.01012,98.0241995 L0.03309,98.1651995 L0.06866,98.3051995 L0.11575,98.4381995 L0.17252,98.5631995 L0.23669,98.6781995 L0.30585,98.7811995 L0.3777,98.8731995 L0.4503,98.9541995 L0.52207,99.0241995 L0.59188,99.0841995 L0.65895,99.1361995 L0.7228,99.1801995 L0.7832,99.2181995 L0.8131,99.2361995 L0.81497,99.2371995 L0.81672,99.2381995 L0.81834,99.2391995 L0.81984,99.2401995 L0.82122,99.2411995 L0.82247,99.2411995 L0.82359,99.2421995 L0.82459,99.2431995 L0.82546,99.2431995 L0.82621,99.2441995 L0.82684,99.2441995 L0.82734,99.2441995 L0.82771,99.2451995 L0.82796,99.2451995 L0.82809,99.2451995 L1.36525,99.4351995 L1.54626,99.4601995 L1.78647,99.4721995 L2.00505,99.4671995 L2.2296,99.4551995 L2.47471,99.4351995 L2.75163,99.4091995 L3.06219,99.3741995 L3.40803,99.3441995 L3.79508,99.3131995 L4.22284,99.2741995 L4.68634,99.2111995 L5.19349,99.1381995 L5.74338,99.0481995 L6.33412,98.9481995 L6.97064,98.8341995 L7.65343,98.7061995 L8.37947,98.5671995 L9.15426,98.4161995 L9.97724,98.2541995 C10.86865,98.0931995 11.4605,97.2391995 11.29917,96.3481995 C11.13784,95.4561995 10.28442,94.8651995 9.39301,95.0261995 Z" id="Fill-3"></path>
            <path d="M7.82906,138.8152 L9.09377,137.6312 L10.34009,136.5112 L11.55548,135.3922 L12.78439,134.3172 L14.02142,133.2822 L15.26753,132.2762 L16.55862,131.3462 L17.87049,130.4652 L19.17757,129.5812 L20.49393,128.7112 L21.8478,127.9052 L23.22942,127.1392 L24.61879,126.3782 L26.01578,125.6172 L27.44244,124.8922 L28.89269,124.1922 L30.35049,123.4802 L31.81781,122.7552 L33.31656,122.0432 L34.82059,121.3382 L36.329,120.5612 L37.86552,119.8392 L39.44543,119.1152 L41.02741,118.4012 C41.44754,118.2122 41.63487,117.7182 41.44583,117.2982 C41.25679,116.8772 40.76296,116.6902 40.34284,116.8792 L38.75874,117.5892 L37.17258,118.2902 L35.61062,118.9472 L34.02054,119.5492 L32.49187,120.2082 L30.95792,120.8582 L29.43649,121.5002 L27.93726,122.1672 L26.46173,122.8642 L24.99067,123.5582 L23.5204,124.2482 L22.07253,124.9772 L20.64385,125.7432 L19.21664,126.5192 L17.78072,127.2922 L16.3613,128.1092 L14.97467,129.0012 L13.5948,129.9252 L12.19463,130.8492 L10.81211,131.8382 L9.44777,132.8862 L8.09347,133.9862 L6.79561,135.1982 L5.5412,136.4642 C4.89196,137.0962 4.87782,138.1352 5.50959,138.7842 C6.14137,139.4332 7.17983,139.4472 7.82906,138.8152 Z" id="Fill-4"></path>
            <path d="M61.57032,2.8431995 L62.41132,3.6281995 L63.23962,4.4021995 L64.04192,5.1831995 L64.84422,5.9651995 L65.62062,6.7541995 L66.39832,7.5441995 L67.15272,8.3411995 L67.90642,9.1371995 L68.63472,9.9401995 L69.36312,10.7421995 L70.06712,11.5521995 L70.77292,12.3621995 L71.45612,13.1791995 L72.13842,13.9951995 L72.79752,14.8161995 L73.45712,15.6371995 L74.09232,16.4661995 L74.72942,17.2951995 L75.34742,18.1281995 L75.96472,18.9591995 L76.55802,19.7981995 L77.15602,20.6341995 L77.73592,21.4721995 L78.31712,22.3131995 L78.87702,23.1591995 L79.42952,24.0091995 L79.95502,24.8671995 L80.48082,25.7261995 L80.98372,26.5911995 L81.48712,27.4571995 L81.96982,28.3291995 L82.45192,29.2001995 L82.91152,30.0761995 L83.37482,30.9511995 L83.81602,31.8321995 L84.25592,32.7091995 L85.10532,34.4861995 L85.91172,36.2661995 L86.67702,38.0591995 L87.40462,39.8621995 L88.08612,41.6761995 L88.72342,43.5031995 L89.32062,45.3391995 L89.87442,47.1851995 L90.38532,49.0411995 L90.85742,50.9071995 L91.28972,52.7791995 L91.68342,54.6601995 L92.04422,56.5481995 L92.36892,58.4421995 L92.65932,60.3441995 L92.91942,62.2511995 L93.14482,64.1641995 L93.33672,66.0851995 L93.49702,68.0111995 L93.62292,69.9421995 L93.71272,71.8801995 L93.76942,73.8231995 L93.78892,75.7691995 L93.77052,77.7211995 L93.72022,79.6771995 L93.63522,81.6351995 L93.51632,83.5971995 L93.36662,85.5621995 L93.18572,87.5281995 L92.97362,89.5001995 L92.85402,90.4831995 L92.73522,91.4681995 L92.60122,92.4541995 L92.46722,93.4401995 L92.31852,94.4271995 L92.17202,95.4141995 L92.01222,96.4021995 L91.85252,97.3901995 L91.67852,98.3781995 L91.50562,99.3661995 L91.31842,100.3542 L91.13112,101.3422 L90.93102,102.3312 L90.73112,103.3192 L90.51732,104.3072 L90.30362,105.2952 L90.07532,106.2832 L89.84552,107.2712 L89.60362,108.2582 L89.36192,109.2442 L89.10592,110.2302 L88.84922,111.2152 L88.57952,112.2002 L88.30962,113.1852 L88.02732,114.1692 L87.74482,115.1522 L87.44992,116.1342 L87.15492,117.1152 L86.84782,118.0962 L86.54062,119.0772 L86.22242,120.0562 L85.90462,121.0352 L85.57642,122.0122 L85.24812,122.9902 L84.90832,123.9652 L84.56992,124.9392 L84.21762,125.9102 L83.86232,126.8892 L83.50712,127.8682 L83.15672,128.8372 L82.78492,129.8002 L82.40902,130.7752 L82.03312,131.7492 L81.66152,132.7132 L81.26912,133.6722 L80.87262,134.6402 L80.47612,135.6092 L80.08322,136.5692 L79.67222,137.5232 L79.25742,138.4862 L78.84192,139.4492 L78.42842,140.4012 L77.99572,141.3472 L77.55902,142.3012 L77.12162,143.2552 L76.68772,144.2002 L76.23562,145.1382 L75.77942,146.0842 L75.32262,147.0302 L74.86922,147.9682 L74.40022,148.8982 L73.92762,149.8362 L73.46422,150.7792 L73.00472,151.7132 L72.52872,152.6392 L72.04942,153.5732 L71.57222,154.5082 L71.09882,155.4362 L70.60982,156.3542 L70.11322,157.2782 L69.61342,158.1992 L69.11682,159.1152 L68.60702,160.0212 L68.09202,160.9322 L67.57642,161.8422 L67.06452,162.7472 L66.53882,163.6402 L66.00832,164.5392 L65.47772,165.4382 L64.95072,166.3312 L64.41082,167.2122 L63.86662,168.0982 L63.32242,168.9852 L62.78142,169.8662 L62.22912,170.7352 L61.67282,171.6102 L61.11662,172.4842 L60.56392,173.3532 L60.00022,174.2082 L59.43292,175.0692 L58.86562,175.9312 L58.30182,176.7862 L57.72812,177.6282 L57.15072,178.4752 L56.57332,179.3232 L55.99592,180.1702 C55.73642,180.5512 55.83452,181.0702 56.21522,181.3292 C56.59582,181.5892 57.11472,181.4912 57.37432,181.1102 L57.95222,180.2632 L58.53012,179.4162 L59.10802,178.5692 L59.68962,177.7172 L60.26102,176.8502 L60.82892,175.9902 L61.39672,175.1292 L61.96822,174.2622 L62.52862,173.3832 L63.08542,172.5092 L63.64212,171.6352 L64.20292,170.7562 L64.75332,169.8662 L65.30042,168.9822 L65.84762,168.0972 L66.39912,167.2072 L66.93792,166.3052 L67.47322,165.4092 L68.00842,164.5132 L68.54862,163.6112 L69.07492,162.6992 L69.59772,161.7922 L70.12102,160.8862 L70.64942,159.9752 L71.16452,159.0542 L71.67642,158.1392 L72.19152,157.2262 L72.71422,156.3082 L73.22152,155.3802 L73.72502,154.4582 L74.22642,153.5362 L74.73112,152.6062 L75.21942,151.6662 L75.70372,150.7342 L76.17892,149.7972 L76.65762,148.8532 L77.12042,147.9012 L77.57982,146.9572 L78.03992,146.0132 L78.50402,145.0602 L78.94992,144.0992 L79.39242,143.1472 L79.83542,142.1962 L80.28262,141.2352 L80.71062,140.2672 L81.13652,139.3092 L81.56322,138.3522 L81.99362,137.3852 L82.40572,136.4132 L82.81422,135.4492 L83.22262,134.4862 L83.63532,133.5122 L84.02692,132.5322 L84.41412,131.5622 L84.80142,130.5922 L85.19282,129.6112 L85.56172,128.6252 L85.92592,127.6492 L86.29002,126.6732 L86.65702,125.6902 L87.00722,124.7022 L87.35592,123.7172 L87.69302,122.7292 L88.03012,121.7412 L88.35402,120.7502 L88.67742,119.7602 L88.98992,118.7692 L89.30252,117.7762 L89.60272,116.7822 L89.90302,115.7882 L90.19072,114.7922 L90.47852,113.7972 L90.75562,112.8012 L91.03292,111.8042 L91.29722,110.8062 L91.56232,109.8082 L91.81532,108.8092 L92.06802,107.8102 L92.30862,106.8112 L92.55062,105.8122 L92.77992,104.8112 L93.00922,103.8112 L93.22462,102.8102 L93.43982,101.8102 L93.64222,100.8092 L93.84472,99.8071995 L94.03282,98.8051995 L94.21992,97.8021995 L94.39222,96.7991995 L94.56432,95.7971995 L94.72292,94.7951995 L94.87932,93.7921995 L95.02052,92.7891995 L95.16162,91.7861995 L95.28752,90.7831995 L95.41262,89.7781995 L95.63372,87.7761995 L95.82342,85.7721995 L95.98062,83.7701995 L96.11012,81.7701995 L96.20792,79.7711995 L96.27432,77.7761995 L96.31142,75.7831995 L96.31832,73.7921995 L96.29342,71.8051995 L96.23812,69.8221995 L96.14802,67.8401995 L96.02062,65.8641995 L95.85892,63.8921995 L95.65712,61.9231995 L95.41542,59.9611995 L95.13572,58.0051995 L94.81412,56.0541995 L94.45132,54.1111995 L94.05052,52.1751995 L93.60942,50.2441995 L93.12822,48.3231995 L92.61252,46.4081995 L92.05792,44.4991995 L91.46422,42.5991995 L90.83472,40.7061995 L90.16512,38.8201995 L89.45632,36.9421995 L88.70682,35.0731995 L87.91142,33.2131995 L87.07092,31.3711995 L86.62552,30.4491995 L86.18152,29.5301995 L85.71452,28.6181995 L85.24392,27.7071995 L84.75052,26.8011995 L84.25762,25.8981995 L83.74392,25.0001995 L83.22952,24.1001995 L82.69192,23.2061995 L82.15402,22.3131995 L81.59632,21.4231995 L81.04612,20.5311995 L80.47432,19.6441995 L79.90122,18.7561995 L79.29862,17.8781995 L78.69132,17.0031995 L78.05992,16.1351995 L77.42922,15.2681995 L76.77352,14.4111995 L76.11592,13.5521995 L75.43382,12.7011995 L74.75132,11.8501995 L74.04242,11.0081995 L73.33452,10.1681995 L72.60382,9.3351995 L71.87132,8.5011995 L71.11302,7.6761995 L70.35452,6.8511995 L69.57072,6.0351995 L68.78752,5.2201995 L67.98112,4.4131995 L67.17342,3.6051995 L66.33992,2.8051995 L65.50642,2.0061995 L64.64692,1.2151995 L63.79992,0.4371995 C63.13542,-0.1788005 62.09762,-0.1388005 61.48192,0.5251995 C60.86622,1.1901995 60.90582,2.2271995 61.57032,2.8431995 Z" id="Fill-5"></path>
        </g>
    </g>
</svg>
