<?xml version="1.0" encoding="UTF-8"?>
<svg width="308px" height="310px" viewBox="0 0 308 310" version="1.1" xmlns="http://www.w3.org/2000/svg" xmlns:xlink="http://www.w3.org/1999/xlink">
    <title>13</title>
    <g id="Page-1" stroke="none" stroke-width="1" fill="none" fill-rule="evenodd">
        <g id="13" transform="translate(0.946000, 0.162000)">
            <path d="M45.287,66.749 C25.519,27.6 87.872,14.923 95.524,52.119" id="Fill-489" fill="currentColor"></path>
            <path d="M46.757,66.032 L46.167,64.844 L45.641,63.697 L45.166,62.567 L44.739,61.456 L44.362,60.368 L44.034,59.297 L43.749,58.244 L43.511,57.215 L43.317,56.204 L43.161,55.211 L43.049,54.242 L42.979,53.29 L42.947,52.356 L42.954,51.445 L43,50.551 L43.078,49.675 L43.192,48.821 L43.342,47.984 L43.523,47.163 L43.738,46.364 L43.985,45.58 L44.257,44.811 L44.56,44.062 L44.892,43.326 L45.253,42.607 L45.656,41.917 L46.09,41.243 L46.559,40.593 L47.054,39.966 L47.577,39.358 L48.124,38.768 L48.693,38.2 L49.288,37.651 L49.903,37.121 L50.538,36.612 L51.197,36.124 L51.874,35.654 L52.57,35.208 L53.284,34.78 L54.016,34.372 L54.763,33.987 L55.528,33.625 L56.306,33.282 L57.098,32.964 L57.904,32.666 L58.722,32.389 L59.55,32.137 L60.391,31.908 L61.24,31.702 L62.098,31.521 L62.964,31.364 L63.837,31.23 L64.715,31.123 L65.599,31.042 L66.487,30.985 L67.377,30.953 L68.269,30.951 L69.163,30.974 L70.055,31.023 L70.947,31.099 L71.837,31.199 L72.723,31.326 L73.606,31.482 L74.484,31.664 L75.354,31.873 L76.218,32.111 L77.075,32.373 L77.922,32.662 L78.765,32.968 L79.601,33.295 L80.427,33.643 L81.246,34.018 L82.051,34.425 L82.84,34.863 L83.614,35.335 L84.373,35.834 L85.113,36.364 L85.837,36.925 L86.543,37.515 L87.228,38.135 L87.893,38.787 L88.538,39.467 L89.16,40.177 L89.76,40.919 L90.339,41.69 L90.891,42.491 L91.417,43.326 L91.917,44.19 L92.389,45.086 L92.833,46.015 L93.25,46.974 L93.635,47.964 L93.99,48.989 L94.315,50.044 L94.606,51.132 L94.865,52.266 C94.946,52.63 95.307,52.86 95.671,52.779 C96.036,52.697 96.265,52.336 96.184,51.972 L95.932,50.811 L95.639,49.671 L95.312,48.565 L94.952,47.489 L94.558,46.444 L94.131,45.432 L93.674,44.45 L93.186,43.499 L92.668,42.581 L92.125,41.692 L91.553,40.832 L90.955,40.006 L90.333,39.208 L89.685,38.441 L89.013,37.706 L88.32,37.001 L87.604,36.324 L86.868,35.679 L86.114,35.061 L85.341,34.472 L84.551,33.913 L83.745,33.38 L82.923,32.874 L82.087,32.397 L81.24,31.941 L80.376,31.517 L79.497,31.13 L78.605,30.776 L77.697,30.462 L76.782,30.179 L75.859,29.923 L74.929,29.695 L73.993,29.497 L73.053,29.324 L72.108,29.178 L71.161,29.06 L70.211,28.969 L69.259,28.905 L68.307,28.87 L67.356,28.858 L66.405,28.872 L65.457,28.914 L64.511,28.979 L63.568,29.072 L62.631,29.19 L61.7,29.333 L60.773,29.504 L59.855,29.701 L58.945,29.922 L58.043,30.171 L57.153,30.446 L56.273,30.745 L55.405,31.074 L54.551,31.428 L53.711,31.807 L52.885,32.213 L52.077,32.644 L51.285,33.099 L50.511,33.584 L49.758,34.093 L49.024,34.627 L48.311,35.187 L47.622,35.772 L46.956,36.38 L46.313,37.016 L45.699,37.676 L45.109,38.358 L44.546,39.066 L44.013,39.797 L43.499,40.544 L43.014,41.318 L42.55,42.107 L42.115,42.919 L41.717,43.761 L41.357,44.626 L41.036,45.514 L40.753,46.429 L40.512,47.365 L40.308,48.321 L40.146,49.302 L40.027,50.301 L39.951,51.32 L39.919,52.362 L39.933,53.42 L39.989,54.497 L40.092,55.594 L40.243,56.708 L40.44,57.838 L40.688,58.988 L40.986,60.153 L41.33,61.333 L41.726,62.533 L42.174,63.747 L42.671,64.976 L43.222,66.224 L43.818,67.466 C44.214,68.278 45.193,68.615 46.004,68.219 C46.816,67.823 47.153,66.844 46.757,66.032 Z" id="Fill-490" fill="currentColor"></path>
            <path d="M81.98,42.277 C74.478,36.199 82.558,22.96 88.629,19.134 C111.684,4.607 129.262,18.859 129.262,45.203" id="Fill-491" fill="currentColor"></path>
            <path d="M83.049,41.039 L82.638,40.691 L82.309,40.369 L82.01,40.032 L81.741,39.686 L81.507,39.332 L81.298,38.962 L81.115,38.58 L80.96,38.19 L80.829,37.783 L80.721,37.362 L80.64,36.933 L80.582,36.486 L80.547,36.027 L80.536,35.56 L80.55,35.078 L80.585,34.586 L80.642,34.089 L80.723,33.58 L80.824,33.065 L80.946,32.547 L81.089,32.022 L81.25,31.493 L81.43,30.965 L81.622,30.452 L82.077,29.372 L82.587,28.325 L83.152,27.294 L83.759,26.287 L84.405,25.319 L85.083,24.393 L85.78,23.514 L86.487,22.696 L87.198,21.941 L87.91,21.261 L88.616,20.683 L89.306,20.202 L90.7,19.35 L92.078,18.574 L93.439,17.869 L94.782,17.229 L96.102,16.662 L97.404,16.162 L98.686,15.723 L99.945,15.355 L101.184,15.051 L102.404,14.807 L103.598,14.627 L104.773,14.511 L105.927,14.452 L107.055,14.456 L108.162,14.522 L109.247,14.643 L110.305,14.825 L111.34,15.067 L112.352,15.362 L113.335,15.716 L114.294,16.127 L115.23,16.588 L116.135,17.103 L117.015,17.674 L117.868,18.294 L118.69,18.966 L119.485,19.692 L120.252,20.464 L120.999,21.274 L121.725,22.132 L122.432,23.029 L123.101,23.98 L123.734,24.984 L124.333,26.035 L124.893,27.134 L125.415,28.282 L125.902,29.471 L126.348,30.705 L126.756,31.982 L127.128,33.299 L127.46,34.655 L127.747,36.054 L127.994,37.488 L128.199,38.96 L128.36,40.47 L128.48,42.013 L128.556,43.59 L128.586,45.212 C128.591,45.585 128.897,45.884 129.271,45.8790618 C129.644,45.874 129.943,45.567 129.938062,45.194 L129.925,43.552 L129.865,41.933 L129.758,40.348 L129.609,38.795 L129.415,37.275 L129.176,35.793 L128.899,34.344 L128.58,32.931 L128.219,31.557 L127.819,30.22 L127.377,28.921 L126.895,27.664 L126.378,26.445 L125.822,25.266 L125.228,24.131 L124.602,23.033 L123.94,21.976 L123.244,20.963 L122.502,20 L121.714,19.089 L120.878,18.243 L120.01,17.445 L119.104,16.7 L118.167,16.01 L117.2,15.371 L116.198,14.787 L115.166,14.263 L114.106,13.795 L113.013,13.386 L111.894,13.038 L110.75,12.746 L109.575,12.517 L108.377,12.352 L107.155,12.247 L105.906,12.208 L104.635,12.238 L103.345,12.33 L102.029,12.491 L100.695,12.725 L99.344,13.024 L97.972,13.398 L96.585,13.844 L95.182,14.359 L93.763,14.951 L92.33,15.618 L90.886,16.356 L89.426,17.173 L87.952,18.067 L87.106,18.631 L86.249,19.288 L85.387,20.014 L84.528,20.809 L83.683,21.684 L82.865,22.626 L82.074,23.624 L81.318,24.678 L80.607,25.777 L79.942,26.913 L79.337,28.089 L78.807,29.27 L78.556,29.897 L78.331,30.512 L78.127,31.129 L77.944,31.751 L77.784,32.377 L77.649,33.004 L77.539,33.633 L77.455,34.266 L77.401,34.896 L77.374,35.526 L77.38,36.158 L77.419,36.784 L77.49,37.407 L77.599,38.03 L77.746,38.642 L77.931,39.246 L78.158,39.845 L78.428,40.427 L78.737,40.995 L79.094,41.551 L79.493,42.082 L79.934,42.594 L80.422,43.085 L80.911,43.515 C81.595,44.105 82.628,44.029 83.218,43.345 C83.808,42.662 83.732,41.629 83.049,41.039 Z" id="Fill-492" fill="currentColor"></path>
            <path d="M121.135,30.838 C113.385,31.676 128.432,14.018 130.739,11.686 C138.586,3.757 152.585,-0.769 163.246,2.11 C187.938,8.778 195.488,38.648 191.073,62.493" id="Fill-493" fill="currentColor"></path>
            <path d="M121.028,29.207 L120.655,29.236 L120.46,29.229 L120.359,29.212 L120.347,29.212 L120.419,29.258 L120.496,29.334 L120.546,29.416 L120.566,29.468 L120.561,29.432 L120.556,29.318 L120.572,29.137 L120.618,28.883 L120.696,28.579 L120.807,28.233 L120.955,27.845 L121.132,27.425 L121.34,26.979 L121.578,26.506 L121.841,26.013 L122.128,25.503 L122.439,24.977 L122.769,24.438 L123.117,23.889 L123.477,23.339 L124.249,22.2 L125.057,21.063 L125.888,19.933 L126.726,18.826 L127.556,17.76 L128.361,16.751 L129.129,15.808 L129.841,14.954 L130.482,14.202 L130.769,13.872 L131.034,13.571 L131.272,13.305 L131.482,13.072 L131.659,12.881 L131.778,12.754 L132.747,11.799 L133.756,10.898 L134.825,10.029 L135.943,9.193 L137.109,8.397 L138.32,7.633 L139.569,6.908 L140.851,6.224 L142.172,5.593 L143.525,5.019 L144.903,4.507 L146.303,4.053 L147.716,3.65 L149.137,3.306 L150.565,3.021 L151.993,2.79 L153.416,2.622 L154.833,2.517 L156.238,2.473 L157.625,2.494 L158.993,2.583 L160.338,2.737 L161.652,2.962 L162.938,3.26 L164.412,3.678 L165.843,4.153 L167.232,4.685 L168.582,5.269 L169.887,5.906 L171.152,6.597 L172.378,7.334 L173.562,8.121 L174.705,8.96 L175.81,9.841 L176.873,10.767 L177.896,11.741 L178.88,12.754 L179.823,13.808 L180.727,14.902 L181.596,16.031 L182.424,17.195 L183.211,18.397 L183.962,19.629 L184.673,20.892 L185.346,22.186 L185.984,23.507 L186.596,24.847 L187.177,26.212 L187.734,27.596 L188.251,29.003 L188.725,30.435 L189.162,31.886 L189.56,33.355 L189.918,34.841 L190.242,36.341 L190.526,37.853 L190.774,39.377 L190.988,40.909 L191.166,42.448 L191.309,43.993 L191.42,45.542 L191.495,47.093 L191.533,48.645 L191.539,50.196 L191.511,51.744 L191.449,53.288 L191.356,54.826 L191.23,56.356 L191.071,57.877 L190.883,59.388 L190.662,60.886 L190.407,62.377 C190.343,62.745 190.589,63.095 190.957,63.159 C191.324,63.223 191.675,62.977 191.739,62.609 L192.007,61.105 L192.243,59.579 L192.447,58.04 L192.62,56.491 L192.76,54.931 L192.866,53.364 L192.941,51.791 L192.981,50.212 L192.988,48.63 L192.963,47.047 L192.904,45.462 L192.811,43.879 L192.685,42.299 L192.522,40.723 L192.323,39.153 L192.091,37.591 L191.823,36.036 L191.52,34.492 L191.183,32.959 L190.811,31.438 L190.402,29.933 L189.96,28.442 L189.485,26.965 L188.972,25.508 L188.411,24.074 L187.804,22.665 L187.143,21.288 L186.444,19.936 L185.703,18.612 L184.92,17.32 L184.1,16.058 L183.238,14.826 L182.333,13.632 L181.389,12.471 L180.4,11.348 L179.367,10.268 L178.295,9.226 L177.179,8.224 L176.018,7.27 L174.815,6.36 L173.566,5.496 L172.272,4.685 L170.935,3.923 L169.55,3.214 L168.12,2.564 L166.647,1.968 L165.124,1.431 L163.554,0.96 L162.143,0.61 L160.696,0.343 L159.227,0.156 L157.738,0.04 L156.23,4.54747351e-13 L154.712,0.036 L153.186,0.137 L151.654,0.308 L150.124,0.548 L148.597,0.847 L147.077,1.212 L145.571,1.637 L144.08,2.117 L142.604,2.651 L141.151,3.232 L139.717,3.853 L138.308,4.521 L136.939,5.247 L135.605,6.02 L134.317,6.852 L133.078,7.731 L131.888,8.653 L130.752,9.624 L129.7,10.618 L129.501,10.82 L129.294,11.035 L129.06,11.284 L128.803,11.564 L128.52,11.877 L128.21,12.223 L127.54,12.984 L126.794,13.853 L125.99,14.809 L125.148,15.834 L124.277,16.919 L123.398,18.05 L122.523,19.21 L121.668,20.389 L120.855,21.562 L120.457,22.158 L120.078,22.743 L119.717,23.322 L119.371,23.894 L119.045,24.461 L118.742,25.016 L118.46,25.563 L118.202,26.102 L117.973,26.629 L117.771,27.148 L117.6,27.664 L117.465,28.17 L117.368,28.679 L117.318,29.203 L117.331,29.731 L117.423,30.278 L117.629,30.845 L117.96,31.369 L118.409,31.817 L118.954,32.155 L119.523,32.362 L120.102,32.472 L120.702,32.501 L121.242,32.47 C122.144,32.411 122.826,31.632 122.767,30.731 C122.708,29.83 121.929,29.147 121.028,29.207 Z" id="Fill-494" fill="currentColor"></path>
            <path d="M190.088,44.405 C189.102,28.426 213.803,32.241 211.266,56.907" id="Fill-495" fill="currentColor"></path>
            <path d="M191.722,44.353 L191.678,43.434 L191.695,42.629 L191.768,41.876 L191.886,41.175 L192.049,40.535 L192.255,39.943 L192.492,39.395 L192.763,38.902 L193.073,38.45 L193.41,38.036 L193.773,37.667 L194.17,37.331 L194.595,37.029 L195.044,36.765 L195.525,36.531 L196.033,36.323 L196.57,36.179 L197.139,36.093 L197.726,36.059 L198.325,36.072 L198.943,36.131 L199.571,36.231 L200.203,36.378 L200.846,36.573 L201.494,36.809 L202.139,37.095 L202.785,37.432 L203.43,37.812 L204.064,38.244 L204.689,38.731 L205.302,39.267 L205.893,39.858 L206.463,40.507 L207.006,41.211 L207.519,41.967 L208.001,42.783 L208.448,43.65 L208.856,44.571 L209.273,45.533 L209.665,46.548 L209.992,47.627 L210.257,48.772 L210.468,49.972 L210.62,51.229 L210.71,52.548 L210.738,53.92 L210.7,55.349 L210.592,56.851 C210.562,57.223 210.838,57.55 211.21,57.581 C211.582,57.611 211.909,57.335 211.94,56.963 L212.084,55.433 L212.157,53.941 L212.161,52.505 L212.111,51.116 L212,49.778 L211.831,48.494 L211.616,47.255 L211.358,46.063 L211.065,44.916 L210.714,43.818 L210.267,42.789 L209.777,41.819 L209.253,40.896 L208.692,40.025 L208.097,39.211 L207.476,38.444 L206.825,37.728 L206.151,37.067 L205.453,36.456 L204.73,35.901 L203.989,35.403 L203.231,34.962 L202.454,34.579 L201.671,34.256 L200.879,33.99 L200.078,33.786 L199.281,33.643 L198.485,33.559 L197.691,33.537 L196.91,33.577 L196.139,33.663 L195.373,33.8 L194.622,33.981 L193.89,34.234 L193.179,34.565 L192.505,34.966 L191.865,35.431 L191.262,35.97 L190.714,36.573 L190.215,37.234 L189.767,37.962 L189.383,38.743 L189.06,39.575 L188.802,40.468 L188.614,41.406 L188.49,42.389 L188.436,43.426 L188.453,44.456 C188.482,45.359 189.236,46.068 190.139,46.039 C191.042,46.011 191.751,45.256 191.722,44.353 Z" id="Fill-496" fill="currentColor"></path>
            <path d="M211.266,54.513 C211.266,22.846 286.51,26.219 268.645,74.463" id="Fill-497" fill="currentColor"></path>
            <path d="M212.901,54.551 L212.916,53.614 L212.976,52.743 L213.08,51.893 L213.222,51.064 L213.405,50.261 L213.63,49.477 L213.89,48.713 L214.187,47.973 L214.524,47.252 L214.894,46.548 L215.299,45.869 L215.739,45.206 L216.212,44.561 L216.715,43.938 L217.253,43.333 L217.821,42.745 L218.419,42.18 L219.049,41.634 L219.707,41.107 L220.391,40.602 L221.104,40.115 L221.841,39.648 L222.601,39.202 L223.388,38.777 L224.197,38.371 L225.026,37.989 L225.876,37.624 L226.744,37.277 L227.629,36.95 L228.533,36.644 L229.456,36.37 L230.395,36.127 L231.351,35.916 L232.319,35.732 L233.296,35.573 L234.284,35.439 L235.281,35.327 L236.283,35.24 L237.292,35.176 L238.306,35.135 L239.322,35.119 L240.342,35.129 L241.364,35.159 L242.385,35.214 L243.406,35.294 L244.425,35.398 L245.439,35.527 L246.451,35.681 L247.457,35.858 L248.456,36.06 L249.448,36.289 L250.432,36.541 L251.404,36.82 L252.366,37.125 L253.316,37.455 L254.25,37.812 L255.17,38.196 L256.076,38.605 L256.962,39.041 L257.829,39.506 L258.678,39.996 L259.504,40.512 L260.309,41.055 L261.092,41.622 L261.85,42.215 L262.582,42.837 L263.29,43.483 L263.968,44.155 L264.617,44.856 L265.24,45.58 L265.831,46.329 L266.403,47.099 L266.948,47.892 L267.467,48.708 L267.955,49.554 L268.403,50.431 L268.814,51.336 L269.183,52.274 L269.517,53.239 L269.806,54.234 L270.054,55.26 L270.261,56.315 L270.423,57.398 L270.538,58.513 L270.611,59.657 L270.636,60.829 L270.611,62.034 L270.539,63.268 L270.414,64.531 L270.234,65.826 L270.005,67.15 L269.72,68.504 L269.377,69.89 L268.982,71.305 L268.527,72.751 L268.007,74.237 C267.883,74.589 268.067,74.976 268.419,75.101 C268.77,75.225 269.157,75.041 269.282,74.689 L269.822,73.188 L270.305,71.706 L270.726,70.253 L271.094,68.826 L271.403,67.426 L271.654,66.056 L271.854,64.711 L272.001,63.393 L272.095,62.105 L272.141,60.842 L272.136,59.605 L272.079,58.398 L271.976,57.217 L271.826,56.061 L271.629,54.935 L271.391,53.834 L271.108,52.759 L270.784,51.713 L270.42,50.692 L270.017,49.696 L269.575,48.729 L269.102,47.784 L268.588,46.865 L268.029,45.981 L267.435,45.125 L266.793,44.305 L266.12,43.517 L265.418,42.757 L264.684,42.025 L263.923,41.323 L263.138,40.648 L262.327,40 L261.491,39.382 L260.634,38.791 L259.753,38.228 L258.852,37.694 L257.933,37.186 L256.995,36.704 L256.041,36.25 L255.071,35.821 L254.085,35.419 L253.086,35.045 L252.075,34.696 L251.05,34.375 L250.016,34.082 L248.972,33.814 L247.919,33.574 L246.859,33.361 L245.793,33.175 L244.721,33.018 L243.645,32.888 L242.568,32.785 L241.487,32.708 L240.407,32.658 L239.327,32.638 L238.248,32.644 L237.174,32.678 L236.104,32.736 L235.037,32.824 L233.979,32.938 L232.928,33.078 L231.884,33.245 L230.851,33.438 L229.828,33.652 L228.814,33.884 L227.811,34.137 L226.818,34.405 L225.838,34.703 L224.877,35.032 L223.932,35.389 L223.005,35.778 L222.099,36.195 L221.213,36.639 L220.347,37.112 L219.507,37.614 L218.69,38.141 L217.898,38.701 L217.135,39.287 L216.399,39.9 L215.691,40.543 L215.016,41.213 L214.372,41.91 L213.761,42.638 L213.189,43.393 L212.652,44.174 L212.154,44.988 L211.699,45.826 L211.283,46.689 L210.909,47.583 L210.584,48.5 L210.301,49.44 L210.067,50.41 L209.883,51.401 L209.747,52.414 L209.662,53.454 L209.630549,54.475 C209.61,55.378 210.325,56.127 211.228,56.148 C212.131,56.169 212.88,55.454 212.901,54.551 Z" id="Fill-498" fill="currentColor"></path>
            <path d="M269.876,65.685 C266.494,66.349 278.061,60.883 285.144,63.025 C295.206,66.068 295.398,72.882 296.226,82.71" id="Fill-499" fill="currentColor"></path>
            <path d="M269.591,64.075 L269.439,64.105 L269.397,64.113 L269.46,64.114 L269.513,64.115 L270.041,64.269 L270.04,64.269 L270.039,64.268 L270.037,64.267 L270.034,64.265 L270.03,64.264 L270.026,64.262 L270.021,64.259 L270.062,64.281 L270.158,64.336 L270.262,64.407 L270.372,64.497 L270.485,64.608 L270.594,64.741 L270.695,64.897 L270.779,65.071 L270.813,65.16 L270.812,65.156 L270.81,65.153 L270.809,65.15 L270.809,65.148 L270.808,65.146 L270.808,65.145 L270.808,65.144 L270.781,66.275 L270.638,66.533 L270.449,66.756 L270.393,66.802 L270.412,66.787 L270.483,66.74 L270.601,66.672 L270.753,66.589 L270.936,66.496 L271.149,66.394 L271.387,66.284 L271.648,66.17 L271.924,66.054 L272.563,65.801 L273.265,65.544 L274.033,65.282 L274.851,65.023 L275.714,64.777 L276.613,64.544 L277.537,64.326 L278.476,64.131 L279.425,63.952 L280.377,63.824 L281.319,63.785 L282.242,63.808 L283.136,63.881 L283.984,64.009 L284.813,64.207 L285.379,64.372 L285.942,64.554 L286.481,64.743 L286.997,64.939 L287.488,65.142 L287.956,65.354 L288.404,65.575 L288.828,65.803 L289.232,66.041 L289.617,66.288 L289.979,66.544 L290.308,66.796 L290.961,67.367 L291.524,67.961 L292.029,68.593 L292.48,69.261 L292.875,69.967 L293.225,70.717 L293.57,71.492 L293.899,72.304 L294.177,73.169 L294.417,74.078 L294.621,75.03 L294.795,76.024 L294.951,77.055 L295.089,78.125 L295.21,79.233 L295.325,80.375 L295.437,81.553 L295.552,82.766 C295.583,83.138 295.91,83.414 296.282,83.383 C296.654,83.352 296.93,83.026 296.899,82.654 L296.812,81.439 L296.727,80.255 L296.639,79.101 L296.544,77.974 L296.443,76.876 L296.325,75.808 L296.187,74.765 L296.027,73.749 L295.84,72.761 L295.628,71.793 L295.387,70.844 L295.07,69.93 L294.669,69.057 L294.205,68.213 L293.679,67.407 L293.09,66.632 L292.424,65.893 L291.7,65.21 L291.288,64.861 L290.87,64.534 L290.432,64.218 L289.975,63.911 L289.495,63.614 L288.994,63.329 L288.471,63.054 L287.924,62.789 L287.354,62.536 L286.762,62.296 L286.142,62.067 L285.475,61.843 L284.492,61.578 L283.448,61.396 L282.389,61.295 L281.32,61.261 L280.242,61.279 L279.165,61.309 L278.092,61.37 L277.034,61.492 L276.004,61.657 L275.006,61.855 L274.046,62.08 L273.138,62.32 L272.283,62.572 L271.491,62.832 L270.783,63.087 L270.44,63.219 L270.127,63.345 L269.835,63.468 L269.562,63.589 L269.309,63.709 L269.076,63.825 L268.859,63.943 L268.652,64.066 L268.451,64.204 L268.23,64.385 L267.939,64.723 L267.76,65.072 L267.734,66.203 L267.734,66.204 L267.734,66.205 L267.735,66.206 L267.735,66.209 L267.736,66.211 L267.737,66.215 L267.739,66.219 L267.776,66.317 L267.864,66.499 L267.97,66.662 L268.086,66.804 L268.206,66.922 L268.324,67.019 L268.438,67.096 L268.544,67.158 L268.597,67.185 L268.603,67.187 L268.607,67.189 L268.611,67.191 L268.613,67.193 L268.616,67.194 L268.617,67.195 L268.618,67.195 L269.147,67.348 L269.364,67.369 L269.66,67.362 L269.927,67.333 L270.16,67.296 C271.05,67.139 271.643,66.29 271.486,65.401 C271.329,64.511 270.481,63.918 269.591,64.075 Z" id="Fill-500" fill="currentColor"></path>
            <path d="M48.735,64.887 C34.159,59.162 -30.684,97.074 20.661,97.074 C23.863,97.074 27.064,97.119 30.266,97.074 C38.383,96.96 40.144,96.896 47.996,96.01 C55.78,95.131 63.76,94.388 71.145,91.488" id="Fill-501" fill="currentColor"></path>
            <path d="M49.278,63.345 L48.749,63.162 L48.137,62.998 L47.508,62.873 L46.86,62.779 L46.189,62.718 L45.501,62.687 L44.795,62.683 L44.068,62.706 L43.324,62.756 L42.563,62.829 L41.782,62.927 L40.986,63.048 L40.176,63.19 L39.348,63.355 L38.506,63.541 L37.653,63.746 L36.784,63.972 L35.893,64.22 L34.117,64.76 L32.291,65.377 L30.439,66.063 L28.575,66.803 L27.628,67.206 L26.687,67.606 L25.744,68.033 L24.805,68.462 L23.868,68.913 L22.93,69.365 L22,69.84 L21.07,70.316 L20.153,70.812 L19.237,71.308 L18.337,71.821 L17.439,72.339 L16.561,72.872 L15.681,73.411 L13.989,74.508 L12.333,75.605 L10.738,76.712 L9.218,77.827 L7.776,78.952 L6.427,80.087 L5.195,81.216 L4.602,81.796 L4.048,82.368 L3.524,82.939 L3.03,83.509 L2.566,84.081 L2.137,84.651 L1.741,85.221 L1.38,85.794 L1.059,86.365 L0.773,86.936 L0.527,87.512 L0.326,88.086 L0.168,88.663 L0.059,89.245 L0.003,89.824 L0,90.401 L0.059,90.981 L0.18,91.545 L0.361,92.097 L0.609,92.635 L0.917,93.144 L1.281,93.629 L1.708,94.088 L2.186,94.514 L2.715,94.914 L3.301,95.288 L3.939,95.635 L4.626,95.958 L5.372,96.258 L6.173,96.533 L7.028,96.787 L7.945,97.019 L8.923,97.227 L9.959,97.415 L11.061,97.579 L12.229,97.721 L13.458,97.842 L14.758,97.94 L16.129,98.014 L17.565,98.067 L19.076,98.098 L20.656,98.103 L22.259,98.102 L23.86,98.1 L25.46,98.101 L27.066,98.104 L28.672,98.091 L30.275,98.079 L31.265,98.064 L32.187,98.049 L33.053,98.028 L33.872,98.001 L34.646,97.974 L35.38,97.945 L36.083,97.91 L36.757,97.873 L37.408,97.835 L38.043,97.796 L38.665,97.756 L39.288,97.712 L40.528,97.605 L41.775,97.502 L43.179,97.351 L44.581,97.205 L46.334,96.997 L48.083,96.793 L50.035,96.561 L51.989,96.329 L53.949,96.078 L55.916,95.826 L57.877,95.521 L59.838,95.218 L61.797,94.857 L63.746,94.444 L65.681,93.97 L67.604,93.433 L69.509,92.818 L71.378,92.122 C71.729,91.993 71.908,91.604 71.779,91.254 C71.65,90.904 71.261,90.724 70.911,90.853 L69.065,91.526 L67.21,92.109 L65.332,92.619 L63.437,93.068 L61.526,93.458 L59.603,93.797 L57.66,94.081 L55.717,94.365 L53.768,94.59 L51.812,94.815 L49.862,95.021 L47.91,95.227 L46.16,95.404 L44.414,95.579 L43.023,95.698 L41.634,95.812 L40.407,95.883 L39.173,95.951 L38.574,95.974 L37.962,95.994 L37.337,96.007 L36.694,96.015 L36.028,96.021 L35.332,96.024 L34.604,96.029 L33.835,96.033 L33.019,96.036 L32.156,96.043 L31.235,96.056 L30.256,96.069 L28.658,96.077 L27.063,96.086 L25.467,96.078 L23.866,96.067 L22.265,96.056 L20.667,96.044 L19.108,96.027 L17.635,95.985 L16.237,95.917 L14.91,95.826 L13.659,95.713 L12.481,95.578 L11.371,95.424 L10.336,95.249 L9.371,95.056 L8.47,94.846 L7.643,94.62 L6.883,94.379 L6.186,94.125 L5.559,93.859 L4.998,93.582 L4.496,93.297 L4.062,93.007 L3.687,92.712 L3.366,92.415 L3.104,92.122 L2.889,91.826 L2.715,91.53 L2.587,91.238 L2.493,90.934 L2.431,90.622 L2.404,90.302 L2.412,89.959 L2.451,89.599 L2.527,89.224 L2.643,88.825 L2.795,88.408 L2.985,87.978 L3.217,87.529 L3.486,87.067 L3.792,86.595 L4.136,86.11 L4.514,85.615 L4.927,85.113 L5.377,84.603 L5.857,84.086 L6.369,83.566 L6.903,83.05 L8.081,81.979 L9.359,80.911 L10.737,79.84 L12.199,78.773 L13.744,77.721 L15.368,76.694 L17.066,75.706 L17.933,75.228 L18.802,74.744 L19.691,74.276 L20.579,73.802 L21.482,73.344 L22.382,72.886 L23.294,72.446 L24.206,72.007 L25.123,71.589 L26.041,71.169 L26.961,70.771 L27.878,70.372 L28.792,69.999 L29.7,69.629 L31.518,68.939 L33.306,68.308 L35.055,67.742 L36.769,67.243 L37.59,67.023 L38.406,66.819 L39.205,66.636 L39.987,66.471 L40.748,66.327 L41.489,66.205 L42.209,66.102 L42.902,66.022 L43.571,65.965 L44.214,65.928 L44.825,65.914 L45.406,65.923 L45.957,65.953 L46.468,66.005 L46.945,66.079 L47.385,66.171 L47.78,66.281 L48.192,66.43 C49.044,66.73 49.978,66.282 50.278,65.43 C50.577,64.578 50.13,63.644 49.278,63.345 Z" id="Fill-502" fill="currentColor"></path>
            <path d="M39.377,94.148 C62.532,86.452 94.058,91.547 118.18,92.818 C151.293,94.563 184.586,91.735 217.669,92.818 C241.186,93.588 271.653,96.892 294.748,91.222 C299.928,89.95 297.241,81.176 293.763,80.05" id="Fill-503" fill="currentColor"></path>
            <path d="M39.875,95.706 L41.311,95.243 L42.751,94.818 L44.215,94.425 L45.698,94.058 L47.2,93.722 L48.724,93.414 L50.264,93.131 L51.821,92.875 L53.396,92.646 L54.985,92.439 L56.589,92.257 L58.207,92.099 L59.838,91.961 L61.48,91.845 L63.134,91.75 L64.797,91.673 L66.47,91.615 L68.148,91.575 L69.843,91.558 L71.535,91.542 L73.237,91.555 L74.941,91.568 L76.651,91.609 L78.364,91.65 L80.079,91.712 L81.795,91.775 L83.51,91.858 L85.227,91.941 L86.939,92.04 L88.654,92.138 L90.361,92.248 L92.069,92.357 L93.766,92.475 L95.465,92.593 L97.148,92.715 L98.833,92.838 L100.501,92.962 L102.17,93.085 L103.818,93.207 L105.467,93.325 L107.09,93.436 L108.715,93.549 L110.313,93.649 L111.913,93.749 L113.48,93.836 L115.049,93.928 L116.581,94.009 L118.112,94.089 L119.155,94.133 L120.19,94.179 L121.225,94.227 L122.267,94.276 L123.309,94.314 L124.345,94.351 L125.38,94.388 L126.422,94.425 L127.464,94.453 L128.5,94.479 L129.536,94.506 L130.577,94.533 L131.618,94.551 L132.654,94.569 L133.691,94.587 L134.732,94.605 L135.774,94.614 L136.81,94.623 L137.846,94.632 L138.887,94.64 L139.929,94.641 L140.965,94.642 L142.002,94.643 L143.043,94.644 L144.083,94.639 L145.12,94.634 L146.157,94.629 L147.197,94.624 L148.238,94.611 L149.275,94.599 L150.312,94.587 L151.351,94.575 L152.391,94.558 L153.429,94.541 L154.466,94.524 L155.505,94.507 L156.544,94.487 L157.581,94.467 L158.619,94.446 L159.658,94.426 L160.697,94.402 L161.734,94.378 L162.771,94.355 L163.809,94.331 L164.848,94.304 L165.885,94.278 L166.922,94.252 L167.96,94.226 L168.997,94.199 L170.034,94.173 L171.071,94.147 L172.108,94.12 L173.145,94.094 L174.182,94.068 L175.219,94.041 L176.256,94.015 L177.294,93.988 L178.331,93.962 L179.368,93.936 L180.405,93.909 L181.442,93.883 L182.479,93.857 L183.516,93.83 L184.547,93.804 L185.578,93.789 L186.614,93.775 L187.651,93.76 L188.687,93.746 L189.723,93.731 L190.76,93.717 L191.796,93.702 L192.832,93.688 L193.869,93.674 L194.905,93.659 L195.941,93.646 L196.978,93.633 L198.014,93.62 L199.05,93.608 L200.087,93.595 L201.109,93.582 L202.13,93.597 L203.165,93.612 L204.2,93.627 L205.235,93.641 L206.27,93.656 L207.304,93.671 L208.339,93.686 L209.374,93.701 L210.409,93.715 L211.444,93.73 L212.479,93.746 L213.513,93.762 L214.548,93.778 L215.583,93.794 L216.618,93.81 L217.641,93.825 L219.119,93.878 L220.602,93.932 L222.119,93.996 L223.637,94.06 L225.187,94.132 L226.737,94.205 L228.312,94.28 L229.889,94.347 L231.49,94.418 L233.092,94.489 L234.715,94.554 L236.339,94.62 L237.98,94.683 L239.621,94.749 L241.277,94.814 L242.933,94.878 L244.601,94.936 L246.269,94.996 L247.945,95.047 L249.621,95.098 L251.303,95.14 L252.986,95.181 L254.67,95.208 L256.354,95.235 L258.037,95.247 L259.722,95.26 L261.401,95.253 L263.082,95.246 L264.755,95.217 L266.428,95.188 L268.09,95.137 L269.755,95.085 L271.405,95.005 L273.056,94.926 L274.689,94.816 L276.322,94.706 L277.937,94.568 L279.554,94.43 L281.147,94.256 L282.74,94.082 L284.307,93.871 L285.871,93.66 L287.421,93.421 L288.953,93.161 L290.468,92.879 L291.968,92.577 L293.451,92.252 L294.915,91.903 L295.278,91.8 L295.623,91.672 L295.946,91.523 L296.25,91.352 L296.534,91.159 L296.795,90.948 L297.035,90.72 L297.254,90.473 L297.449,90.214 L297.624,89.942 L297.778,89.657 L297.918,89.345 L298.119,88.757 L298.254,88.118 L298.32,87.465 L298.329,86.802 L298.28,86.128 L298.179,85.457 L298.033,84.79 L297.84,84.131 L297.605,83.491 L297.334,82.87 L297.024,82.275 L296.681,81.716 L296.308,81.194 L295.901,80.715 L295.465,80.292 L295,79.924 L294.499,79.623 L294.02,79.424 C293.675,79.282 293.28,79.447 293.138,79.792 C292.996,80.137 293.16,80.532 293.506,80.674 L293.887,80.83 L294.224,81.035 L294.567,81.31 L294.906,81.641 L295.233,82.028 L295.543,82.467 L295.835,82.945 L296.098,83.457 L296.332,83.998 L296.535,84.558 L296.7,85.129 L296.825,85.706 L296.91,86.28 L296.948,86.841 L296.939,87.385 L296.885,87.904 L296.781,88.386 L296.619,88.852 L296.532,89.039 L296.427,89.233 L296.308,89.416 L296.177,89.589 L296.034,89.748 L295.876,89.898 L295.704,90.036 L295.518,90.161 L295.312,90.276 L295.088,90.379 L294.847,90.467 L294.581,90.541 L293.14,90.879 L291.68,91.194 L290.201,91.486 L288.706,91.758 L287.194,92.009 L285.668,92.24 L284.117,92.443 L282.568,92.646 L280.992,92.812 L279.416,92.977 L277.815,93.106 L276.214,93.236 L274.594,93.335 L272.974,93.434 L271.337,93.503 L269.699,93.572 L268.048,93.613 L266.395,93.654 L264.733,93.673 L263.07,93.692 L261.4,93.688 L259.73,93.684 L258.055,93.659 L256.379,93.634 L254.703,93.593 L253.026,93.551 L251.351,93.495 L249.676,93.438 L248.006,93.367 L246.336,93.296 L244.673,93.217 L243.01,93.135 L241.359,93.046 L239.707,92.956 L238.07,92.86 L236.433,92.761 L234.812,92.661 L233.191,92.561 L231.59,92.467 L229.989,92.373 L228.412,92.283 L226.834,92.201 L225.282,92.126 L223.728,92.052 L222.205,91.986 L220.681,91.92 L219.192,91.865 L217.697,91.81 L216.65,91.792 L215.616,91.775 L214.581,91.757 L213.546,91.739 L212.511,91.722 L211.477,91.704 L210.442,91.685 L209.407,91.666 L208.372,91.647 L207.338,91.628 L206.303,91.61 L205.268,91.591 L204.233,91.572 L203.199,91.553 L202.164,91.534 L201.115,91.515 L200.065,91.524 L199.029,91.533 L197.993,91.541 L196.956,91.55 L195.92,91.559 L194.883,91.566 L193.847,91.574 L192.811,91.581 L191.774,91.588 L190.738,91.595 L189.701,91.602 L188.665,91.609 L187.629,91.615 L186.592,91.622 L185.556,91.629 L184.514,91.636 L183.471,91.653 L182.433,91.669 L181.396,91.686 L180.359,91.703 L179.321,91.72 L178.284,91.737 L177.247,91.754 L176.21,91.771 L175.172,91.788 L174.135,91.805 L173.098,91.822 L172.06,91.839 L171.023,91.856 L169.986,91.873 L168.949,91.889 L167.911,91.906 L166.874,91.923 L165.836,91.94 L164.799,91.957 L163.762,91.974 L162.726,91.989 L161.689,92.005 L160.651,92.021 L159.615,92.037 L158.58,92.05 L157.542,92.063 L156.505,92.077 L155.47,92.09 L154.434,92.101 L153.397,92.111 L152.36,92.121 L151.325,92.132 L150.291,92.137 L149.254,92.143 L148.216,92.148 L147.183,92.154 L146.149,92.155 L145.112,92.156 L144.075,92.158 L143.042,92.159 L142.009,92.154 L140.972,92.15 L139.935,92.145 L138.903,92.141 L137.871,92.129 L136.835,92.117 L135.798,92.105 L134.767,92.094 L133.736,92.075 L132.7,92.055 L131.664,92.035 L130.633,92.016 L129.602,91.988 L128.567,91.96 L127.531,91.932 L126.501,91.904 L125.472,91.866 L124.437,91.828 L123.401,91.79 L122.373,91.752 L121.345,91.703 L120.31,91.653 L119.275,91.6 L118.248,91.546 L116.729,91.45 L115.21,91.355 L113.656,91.236 L112.1,91.113 L110.511,90.976 L108.921,90.84 L107.304,90.699 L105.687,90.557 L104.043,90.41 L102.397,90.266 L100.73,90.121 L99.061,89.976 L97.375,89.833 L95.688,89.691 L93.985,89.554 L92.281,89.417 L90.565,89.29 L88.848,89.163 L87.124,89.049 L85.398,88.936 L83.668,88.84 L81.935,88.743 L80.202,88.667 L78.468,88.591 L76.736,88.537 L75.002,88.483 L73.273,88.457 L71.543,88.43 L69.822,88.438 L68.104,88.445 L66.387,88.476 L64.678,88.526 L62.978,88.597 L61.285,88.686 L59.6,88.797 L57.926,88.931 L56.261,89.086 L54.607,89.266 L52.966,89.471 L51.337,89.701 L49.72,89.958 L48.12,90.244 L46.534,90.557 L44.963,90.901 L43.411,91.277 L41.876,91.682 L40.357,92.122 L38.88,92.59 C38.019,92.865 37.544,93.785 37.819,94.645 C38.094,95.506 39.014,95.981 39.875,95.706 Z" id="Fill-504" fill="currentColor"></path>
            <path d="M52.921,56.907 C34.56,85.241 79.869,87.683 95.524,87.232 C139.372,85.969 187.666,86.043 230.228,73.665 C236.22,71.923 255.318,72.996 259.533,69.143 C264.636,64.479 248.524,61.354 246.974,60.897 C231.161,56.239 214.63,51.038 198.214,49.725 C185.545,48.711 172.323,49.181 160.044,44.937 C145.174,39.797 106.898,23.34 93.062,38.287" id="Fill-505" fill="currentColor"></path>
            <path d="M51.539,56.033 L50.975,56.93 L50.441,57.829 L49.95,58.712 L49.496,59.582 L49.081,60.44 L48.706,61.282 L48.368,62.113 L48.068,62.933 L47.808,63.737 L47.582,64.531 L47.393,65.315 L47.243,66.083 L47.128,66.841 L47.049,67.589 L47.007,68.322 L46.999,69.043 L47.027,69.755 L47.091,70.45 L47.187,71.132 L47.319,71.803 L47.483,72.456 L47.679,73.094 L47.908,73.72 L48.167,74.327 L48.453,74.917 L48.77,75.495 L49.114,76.052 L49.482,76.593 L49.877,77.12 L50.296,77.628 L50.735,78.12 L51.199,78.598 L51.683,79.058 L52.185,79.504 L52.708,79.936 L53.268,80.365 L54.379,81.142 L55.579,81.881 L56.837,82.566 L58.145,83.205 L59.508,83.799 L60.913,84.347 L62.356,84.857 L63.838,85.327 L65.349,85.757 L66.883,86.154 L68.442,86.516 L70.016,86.844 L71.6,87.143 L73.193,87.411 L74.786,87.649 L76.376,87.863 L77.96,88.049 L79.529,88.21 L81.081,88.35 L82.611,88.468 L84.111,88.564 L85.581,88.643 L87.014,88.704 L88.401,88.748 L89.744,88.778 L91.034,88.793 L92.264,88.796 L93.436,88.788 L94.539,88.77 L95.564,88.742 L96.941,88.701 L98.317,88.66 L99.692,88.618 L101.066,88.577 L102.451,88.537 L103.838,88.497 L105.224,88.456 L106.61,88.416 L108.005,88.376 L109.401,88.336 L110.797,88.296 L112.193,88.255 L113.597,88.213 L115.001,88.171 L116.404,88.13 L117.809,88.088 L119.221,88.043 L120.632,87.998 L122.043,87.953 L123.456,87.908 L124.876,87.859 L126.293,87.81 L127.71,87.759 L129.129,87.707 L130.554,87.65 L131.975,87.593 L133.397,87.536 L134.822,87.478 L136.251,87.412 L137.676,87.346 L139.102,87.279 L140.532,87.213 L141.964,87.137 L143.392,87.065 L144.821,86.996 L146.254,86.927 L147.688,86.848 L149.118,86.77 L150.548,86.691 L151.983,86.616 L153.42,86.529 L154.851,86.444 L156.281,86.358 L157.718,86.272 L159.154,86.172 L160.585,86.073 L162.015,85.973 L163.451,85.873 L164.886,85.76 L166.315,85.647 L167.743,85.534 L169.179,85.42 L170.612,85.29 L172.038,85.161 L173.464,85.031 L174.898,84.901 L176.328,84.752 L177.749,84.603 L179.171,84.455 L180.601,84.306 L182.026,84.138 L183.443,83.972 L184.86,83.806 L186.286,83.639 L187.706,83.45 L189.117,83.263 L190.528,83.075 L191.948,82.887 L193.361,82.674 L194.765,82.462 L196.168,82.251 L197.578,82.039 L198.982,81.81 L200.385,81.581 L201.784,81.34 L203.182,81.099 L204.576,80.846 L205.969,80.592 L207.357,80.326 L208.746,80.059 L210.13,79.779 L211.514,79.499 L212.892,79.204 L214.269,78.91 L215.642,78.603 L217.014,78.294 L218.381,77.971 L219.747,77.648 L221.107,77.309 L222.467,76.971 L223.82,76.618 L225.174,76.266 L226.521,75.897 L227.867,75.528 L229.207,75.143 L230.536,74.761 L230.894,74.662 L231.282,74.571 L231.709,74.484 L232.168,74.401 L232.659,74.322 L233.182,74.248 L233.731,74.178 L234.305,74.112 L234.905,74.05 L235.525,73.99 L236.166,73.934 L236.824,73.88 L238.195,73.778 L239.621,73.682 L241.089,73.587 L242.587,73.492 L244.103,73.392 L245.628,73.284 L247.131,73.159 L248.643,73.033 L250.088,72.872 L251.543,72.71 L252.877,72.496 L254.21,72.282 L255.458,72.019 L256.615,71.717 L257.656,71.375 L258.17,71.175 L258.641,70.964 L259.083,70.737 L259.5,70.491 L259.89,70.219 L260.244,69.922 L260.6,69.569 L260.908,69.199 L261.16,68.816 L261.36,68.414 L261.5,67.988 L261.571,67.558 L261.571,67.127 L261.504,66.701 L261.378,66.306 L261.204,65.936 L260.987,65.589 L260.737,65.272 L260.462,64.975 L260.157,64.693 L259.831,64.429 L259.486,64.177 L259.119,63.934 L258.72,63.695 L257.92,63.265 L257.047,62.856 L256.132,62.476 L255.192,62.121 L254.235,61.792 L253.281,61.488 L252.341,61.208 L251.43,60.953 L250.569,60.724 L249.764,60.519 L249.038,60.341 L248.408,60.191 L248.13,60.125 L247.883,60.066 L247.669,60.015 L247.49,59.971 L247.352,59.936 L247.263,59.911 L246.273,59.62 L245.281,59.328 L244.289,59.036 L243.297,58.744 L242.298,58.45 L241.299,58.156 L240.299,57.862 L239.299,57.567 L238.291,57.275 L237.286,56.983 L236.281,56.691 L235.273,56.398 L234.26,56.11 L233.25,55.823 L232.239,55.536 L231.224,55.248 L230.205,54.97 L229.19,54.693 L228.175,54.415 L227.154,54.136 L226.128,53.872 L225.109,53.608 L224.091,53.345 L223.064,53.08 L222.035,52.831 L221.014,52.585 L219.992,52.338 L218.96,52.089 L217.926,51.862 L216.902,51.637 L215.878,51.412 L214.841,51.184 L213.803,50.983 L212.778,50.784 L211.751,50.587 L210.715,50.391 L209.679,50.215 L208.644,50.039 L207.609,49.879 L206.574,49.72 L205.538,49.577 L204.503,49.434 L203.468,49.309 L202.431,49.185 L201.395,49.081 L200.359,48.976 L199.323,48.891 L198.287,48.806 L196.691,48.703 L195.095,48.599 L193.491,48.514 L191.889,48.429 L190.282,48.354 L188.677,48.279 L187.069,48.202 L185.464,48.123 L183.858,48.033 L182.255,47.944 L180.653,47.83 L179.053,47.715 L177.457,47.569 L175.864,47.423 L174.278,47.231 L172.695,47.041 L171.122,46.793 L169.545,46.544 L167.985,46.251 L166.431,45.922 L164.884,45.554 L163.345,45.148 L161.817,44.698 L160.293,44.199 L159.345,43.869 L158.33,43.51 L157.257,43.125 L156.132,42.718 L154.955,42.29 L153.727,41.844 L152.456,41.383 L151.14,40.908 L149.782,40.422 L148.388,39.927 L146.958,39.426 L145.494,38.921 L144.002,38.414 L142.48,37.908 L140.934,37.404 L139.366,36.906 L137.777,36.414 L136.17,35.932 L134.547,35.47 L132.92,35.007 L131.275,34.577 L129.628,34.148 L127.973,33.763 L126.321,33.379 L124.664,33.03 L123.012,32.71 L121.366,32.423 L119.728,32.166 L118.1,31.946 L116.487,31.765 L114.888,31.622 L113.307,31.523 L111.748,31.471 L110.21,31.463 L108.698,31.507 L107.216,31.605 L105.763,31.755 L104.342,31.965 L102.959,32.236 L101.612,32.567 L100.305,32.966 L99.046,33.435 L97.829,33.972 L96.662,34.585 L95.562,35.27 L95.017,35.65 L94.495,36.045 L93.99,36.46 L93.499,36.894 L93.023,37.35 L92.574,37.818 C92.316,38.087 92.324,38.515 92.593,38.774 C92.862,39.033 93.29,39.024 93.549,38.755 L93.98,38.308 L94.416,37.891 L94.868,37.493 L95.334,37.112 L95.814,36.751 L96.3,36.413 L97.339,35.769 L98.422,35.204 L99.559,34.705 L100.744,34.267 L101.975,33.894 L103.255,33.583 L104.574,33.327 L105.933,33.13 L107.332,32.99 L108.762,32.898 L110.225,32.859 L111.719,32.871 L113.237,32.925 L114.779,33.026 L116.343,33.169 L117.925,33.35 L119.522,33.57 L121.132,33.826 L122.752,34.113 L124.379,34.432 L126.009,34.779 L127.646,35.164 L129.281,35.548 L130.908,35.976 L132.536,36.405 L134.146,36.869 L135.758,37.333 L137.349,37.815 L138.924,38.307 L140.479,38.808 L142.014,39.314 L143.524,39.824 L145.007,40.334 L146.462,40.843 L147.884,41.347 L149.271,41.846 L150.623,42.336 L151.934,42.815 L153.202,43.281 L154.427,43.732 L155.604,44.165 L156.73,44.577 L157.807,44.968 L158.828,45.335 L159.795,45.675 L161.35,46.191 L162.919,46.661 L164.496,47.085 L166.079,47.47 L167.669,47.814 L169.268,48.122 L170.866,48.383 L172.467,48.645 L174.078,48.849 L175.686,49.053 L177.301,49.211 L178.912,49.369 L180.528,49.496 L182.141,49.624 L183.756,49.727 L185.368,49.83 L186.979,49.921 L188.587,50.013 L190.191,50.104 L191.792,50.196 L193.387,50.296 L194.979,50.396 L196.561,50.519 L198.142,50.644 L199.158,50.742 L200.175,50.84 L201.192,50.958 L202.209,51.075 L203.227,51.212 L204.245,51.348 L205.264,51.498 L206.283,51.648 L207.301,51.815 L208.32,51.983 L209.338,52.165 L210.354,52.348 L211.37,52.55 L212.395,52.752 L213.421,52.952 L214.434,53.149 L215.446,53.373 L216.47,53.598 L217.494,53.824 L218.508,54.048 L219.519,54.293 L220.541,54.54 L221.562,54.788 L222.576,55.033 L223.587,55.295 L224.605,55.559 L225.624,55.822 L226.635,56.084 L227.643,56.361 L228.657,56.639 L229.672,56.917 L230.681,57.194 L231.686,57.48 L232.696,57.768 L233.705,58.056 L234.712,58.344 L235.714,58.636 L236.718,58.931 L237.723,59.225 L238.725,59.519 L239.722,59.815 L240.72,60.111 L241.719,60.408 L242.717,60.704 L243.708,60.999 L244.7,61.293 L245.691,61.588 L246.684,61.883 L246.824,61.922 L246.99,61.965 L247.183,62.013 L247.403,62.066 L247.652,62.126 L247.928,62.192 L248.55,62.342 L249.262,62.519 L250.047,62.721 L250.884,62.945 L251.763,63.194 L252.668,63.466 L253.58,63.759 L254.485,64.073 L255.365,64.408 L256.205,64.759 L256.985,65.126 L257.701,65.514 L258.005,65.699 L258.294,65.891 L258.556,66.083 L258.788,66.272 L258.983,66.454 L259.146,66.631 L259.274,66.795 L259.365,66.94 L259.426,67.073 L259.463,67.187 L259.477,67.281 L259.476,67.379 L259.459,67.486 L259.418,67.606 L259.34,67.758 L259.221,67.938 L259.052,68.138 L258.822,68.364 L258.613,68.538 L258.363,68.709 L258.067,68.882 L257.731,69.053 L257.358,69.217 L256.963,69.37 L256.021,69.675 L254.976,69.942 L253.827,70.178 L252.543,70.378 L251.26,70.578 L249.854,70.727 L248.439,70.878 L246.957,70.992 L245.466,71.107 L243.96,71.205 L242.451,71.295 L240.955,71.382 L239.481,71.467 L238.044,71.556 L236.66,71.651 L235.984,71.702 L235.327,71.755 L234.688,71.813 L234.067,71.874 L233.466,71.939 L232.888,72.009 L232.33,72.085 L231.796,72.167 L231.288,72.256 L230.803,72.352 L230.342,72.458 L229.92,72.57 L228.582,72.946 L227.255,73.32 L225.92,73.677 L224.585,74.034 L223.242,74.375 L221.899,74.716 L220.55,75.044 L219.202,75.371 L217.847,75.683 L216.491,75.995 L215.13,76.292 L213.768,76.591 L212.4,76.876 L211.033,77.161 L209.66,77.432 L208.288,77.703 L206.909,77.961 L205.53,78.219 L204.147,78.466 L202.764,78.712 L201.376,78.945 L199.988,79.178 L198.595,79.399 L197.204,79.62 L195.807,79.824 L194.403,80.03 L192.999,80.235 L191.606,80.439 L190.205,80.622 L188.793,80.806 L187.382,80.99 L185.98,81.173 L184.572,81.335 L183.155,81.498 L181.738,81.661 L180.328,81.823 L178.914,81.967 L177.492,82.113 L176.07,82.258 L174.656,82.403 L173.238,82.53 L171.812,82.658 L170.386,82.786 L168.967,82.913 L167.546,83.024 L166.117,83.136 L164.688,83.248 L163.265,83.36 L161.841,83.458 L160.411,83.556 L158.98,83.654 L157.556,83.752 L156.131,83.837 L154.7,83.922 L153.269,84.007 L151.843,84.091 L150.418,84.163 L148.987,84.232 L147.557,84.3 L146.13,84.369 L144.705,84.428 L143.276,84.488 L141.847,84.544 L140.422,84.597 L138.999,84.641 L137.573,84.686 L136.147,84.73 L134.723,84.775 L133.304,84.814 L131.882,84.853 L130.46,84.893 L129.04,84.933 L127.625,84.967 L126.207,85.002 L124.79,85.039 L123.374,85.076 L121.965,85.109 L120.554,85.142 L119.142,85.175 L117.732,85.208 L116.329,85.239 L114.925,85.271 L113.522,85.302 L112.118,85.333 L110.722,85.363 L109.326,85.394 L107.93,85.425 L106.534,85.456 L105.147,85.487 L103.76,85.519 L102.374,85.55 L100.986,85.582 L99.609,85.617 L98.234,85.652 L96.858,85.686 L95.485,85.721 L94.482,85.743 L93.408,85.755 L92.265,85.757 L91.063,85.749 L89.804,85.728 L88.491,85.693 L87.134,85.643 L85.736,85.577 L84.3,85.493 L82.836,85.391 L81.346,85.269 L79.834,85.126 L78.307,84.962 L76.772,84.774 L75.23,84.561 L73.689,84.324 L72.155,84.06 L70.631,83.767 L69.123,83.448 L67.638,83.098 L66.18,82.716 L64.752,82.304 L63.365,81.86 L62.02,81.38 L60.721,80.869 L59.481,80.324 L58.299,79.741 L57.178,79.127 L56.132,78.479 L55.141,77.779 L54.702,77.439 L54.266,77.077 L53.85,76.706 L53.454,76.327 L53.082,75.941 L52.731,75.545 L52.4,75.141 L52.094,74.732 L51.81,74.31 L51.547,73.881 L51.31,73.446 L51.094,72.997 L50.9,72.54 L50.732,72.075 L50.587,71.594 L50.464,71.102 L50.367,70.601 L50.296,70.082 L50.248,69.549 L50.228,69.003 L50.237,68.438 L50.272,67.856 L50.336,67.261 L50.433,66.644 L50.559,66.009 L50.717,65.359 L50.911,64.687 L51.137,63.997 L51.398,63.29 L51.697,62.561 L52.032,61.814 L52.404,61.05 L52.818,60.265 L53.268,59.461 L53.759,58.639 L54.304,57.781 C54.786,57.017 54.559,56.007 53.795,55.524 C53.031,55.042 52.021,55.27 51.539,56.033 Z" id="Fill-506" fill="currentColor"></path>
            <path d="M179.252,43.873 C172.588,40.993 193.268,43.781 195.259,44.405 C210.885,49.297 217.937,53.201 229.736,62.759" id="Fill-507" fill="currentColor"></path>
            <path d="M179.925,42.382 L179.57,42.227 L179.333,42.111 L179.189,42.031 L179.151,42.009 L179.259,42.122 L179.473,42.51 L179.515,43.303 L179.14,43.998 L178.834,44.229 L178.718,44.277 L178.739,44.271 L178.869,44.248 L179.069,44.224 L179.327,44.205 L179.638,44.192 L179.99,44.186 L180.38,44.186 L180.805,44.194 L181.259,44.209 L181.739,44.229 L182.245,44.255 L182.769,44.287 L183.312,44.322 L183.867,44.361 L185.021,44.452 L186.2,44.557 L187.386,44.67 L188.561,44.785 L189.701,44.902 L190.786,45.011 L191.802,45.109 L192.717,45.215 L193.512,45.331 L193.854,45.391 L194.159,45.448 L194.421,45.5 L194.638,45.546 L194.796,45.584 L194.883,45.608 L195.835,45.907 L196.784,46.204 L198.605,46.785 L200.345,47.352 L202.019,47.914 L203.625,48.469 L205.169,49.029 L206.661,49.597 L208.1,50.18 L209.491,50.784 L210.845,51.406 L212.165,52.049 L213.457,52.72 L214.73,53.414 L216.008,54.1 L217.294,54.799 L218.569,55.547 L219.842,56.344 L221.122,57.188 L222.415,58.077 L223.73,59.01 L225.071,60 L226.442,61.039 L227.852,62.132 L229.312,63.286 C229.603,63.52 230.028,63.474 230.262,63.183 C230.496,62.892 230.45,62.466 230.159,62.232 L228.714,61.051 L227.31,59.925 L225.945,58.854 L224.609,57.827 L223.302,56.844 L222.015,55.905 L220.743,55.002 L219.483,54.13 L218.231,53.284 L216.984,52.449 L215.714,51.665 L214.408,50.945 L213.084,50.247 L211.736,49.564 L210.356,48.9 L208.944,48.247 L207.49,47.599 L205.989,46.956 L204.438,46.318 L202.824,45.685 L201.141,45.06 L199.39,44.437 L197.558,43.82 L196.596,43.509 L195.636,43.202 L195.429,43.142 L195.198,43.086 L194.935,43.029 L194.641,42.969 L194.31,42.906 L193.941,42.839 L193.129,42.684 L192.199,42.499 L191.176,42.297 L190.082,42.1 L188.928,41.915 L187.738,41.737 L186.533,41.571 L185.328,41.422 L184.153,41.289 L183.572,41.229 L183.008,41.175 L182.459,41.128 L181.927,41.088 L181.413,41.054 L180.921,41.028 L180.45,41.009 L180.003,40.998 L179.583,40.997 L179.185,41.005 L178.809,41.024 L178.454,41.059 L178.107,41.112 L177.742,41.202 L177.334,41.369 L176.828,41.739 L176.359,42.597 L176.417,43.576 L176.753,44.174 L177.104,44.523 L177.435,44.764 L177.78,44.971 L178.168,45.172 L178.58,45.363 C179.403,45.735 180.371,45.369 180.743,44.546 C181.115,43.722 180.748,42.754 179.925,42.382 Z" id="Fill-508" fill="currentColor"></path>
            <path d="M188.61,47.863 C193.271,52.897 183.289,61.492 180.237,65.951" id="Fill-509" fill="currentColor"></path>
            <path d="M187.369,48.928 L187.608,49.185 L187.77,49.39 L187.908,49.601 L188.024,49.815 L188.115,50.028 L188.189,50.254 L188.249,50.491 L188.292,50.736 L188.315,51.002 L188.32,51.284 L188.31,51.578 L188.282,51.893 L188.237,52.225 L188.183,52.572 L188.119,52.941 L188.014,53.315 L187.862,53.686 L187.693,54.047 L187.289,54.839 L186.844,55.639 L186.355,56.463 L185.831,57.3 L185.267,58.135 L184.658,58.954 L184.024,59.757 L183.394,60.555 L182.832,61.391 L182.242,62.176 L181.658,62.922 L181.102,63.635 L180.575,64.314 L180.097,64.96 L179.688,65.557 C179.471,65.861 179.54,66.283 179.843,66.501 C180.147,66.718 180.569,66.648 180.787,66.345 L181.206,65.788 L181.686,65.198 L182.227,64.565 L182.821,63.905 L183.46,63.216 L184.145,62.512 L184.887,61.816 L185.576,61.041 L186.255,60.238 L186.936,59.425 L187.618,58.609 L188.277,57.783 L188.894,56.937 L189.455,56.067 L189.934,55.198 L190.159,54.734 L190.365,54.283 L190.577,53.841 L190.791,53.399 L190.971,52.943 L191.112,52.479 L191.225,52.007 L191.305,51.523 L191.344,51.037 L191.35,50.546 L191.316,50.045 L191.238,49.551 L191.116,49.058 L190.944,48.567 L190.728,48.092 L190.468,47.629 L190.159,47.178 L189.851,46.798 C189.263,46.113 188.231,46.033 187.546,46.622 C186.86,47.21 186.781,48.242 187.369,48.928 Z" id="Fill-510" fill="currentColor"></path>
            <path d="M56.615,69.675 C57.011,73.307 54.036,85.848 55.877,88.296 C56.551,89.192 97.543,90.497 102.173,90.69 C145.6,92.494 189.085,86.7 232.444,86.7 C238.844,86.7 289.391,84.847 290.071121,76.059 C290.353,72.379 262.033,66.22 258.794,65.951" id="Fill-511" fill="currentColor"></path>
            <path d="M54.986,69.817 L55.005,70.02 L55.014,70.222 L55.018,70.459 L55.016,70.722 L55.008,71.011 L54.993,71.314 L54.946,72.011 L54.878,72.77 L54.792,73.591 L54.692,74.46 L54.581,75.37 L54.463,76.312 L54.341,77.276 L54.22,78.255 L54.101,79.246 L53.888,81.199 L53.733,83.093 L53.67,84.827 L53.679,85.678 L53.726,86.464 L53.82,87.202 L53.971,87.908 L54.217,88.599 L54.527,89.144 L55.083,89.686 L55.389,89.836 L55.604,89.909 L55.795,89.959 L55.986,90.001 L56.184,90.037 L56.393,90.071 L56.621,90.104 L56.866,90.136 L57.127,90.167 L57.408,90.198 L57.713,90.23 L58.359,90.291 L59.086,90.352 L59.882,90.413 L60.74,90.474 L61.663,90.535 L62.645,90.596 L63.678,90.657 L64.762,90.718 L65.895,90.778 L67.066,90.838 L68.278,90.897 L69.524,90.956 L70.798,91.015 L72.099,91.072 L73.421,91.128 L74.761,91.183 L76.114,91.238 L77.477,91.291 L78.843,91.343 L80.207,91.394 L81.572,91.445 L82.938,91.496 L84.26,91.543 L85.58,91.589 L86.9,91.635 L88.221,91.682 L89.423,91.721 L90.624,91.76 L91.825,91.799 L93.027,91.838 L94.132,91.873 L95.187,91.905 L96.187,91.936 L97.133,91.964 L98.016,91.991 L98.83,92.016 L99.58,92.039 L100.253,92.059 L100.845,92.077 L101.36,92.093 L101.784,92.107 L102.122,92.119 L103.481,92.158 L104.838,92.197 L106.196,92.236 L107.563,92.273 L108.93,92.289 L110.288,92.306 L111.645,92.323 L113.012,92.338 L114.378,92.334 L115.735,92.33 L117.093,92.326 L118.457,92.326 L119.821,92.316 L121.179,92.306 L122.536,92.296 L123.901,92.287 L125.265,92.268 L126.622,92.25 L127.98,92.231 L129.344,92.212 L130.707,92.181 L132.065,92.149 L133.422,92.118 L134.785,92.086 L136.147,92.044 L137.505,92.002 L138.862,91.96 L140.225,91.917 L141.587,91.864 L142.945,91.811 L144.302,91.758 L145.663,91.704 L147.025,91.643 L148.382,91.581 L149.74,91.519 L151.1,91.457 L152.461,91.389 L153.818,91.319 L155.176,91.25 L156.536,91.18 L157.895,91.104 L159.253,91.029 L160.61,90.954 L161.969,90.878 L163.328,90.799 L164.685,90.72 L166.043,90.64 L167.401,90.56 L168.759,90.477 L170.116,90.395 L171.474,90.311 L172.831,90.228 L174.188,90.144 L175.545,90.06 L176.902,89.977 L178.258,89.893 L179.615,89.811 L180.972,89.728 L182.328,89.645 L183.685,89.562 L185.042,89.48 L186.399,89.397 L187.756,89.314 L189.109,89.232 L190.463,89.157 L191.819,89.081 L193.176,89.006 L194.532,88.932 L195.889,88.857 L197.245,88.783 L198.602,88.709 L199.955,88.635 L201.308,88.57 L202.664,88.504 L204.021,88.438 L205.374,88.374 L206.727,88.319 L208.083,88.263 L209.439,88.207 L210.792,88.152 L212.144,88.106 L213.5,88.06 L214.856,88.014 L216.208,87.968 L217.56,87.932 L218.916,87.896 L220.271,87.86 L221.622,87.824 L222.973,87.802 L224.329,87.78 L225.684,87.758 L227.034,87.736 L228.384,87.728 L229.739,87.721 L231.094,87.713 L232.449,87.706 L232.663,87.705 L232.91,87.703 L233.184,87.7 L233.483,87.695 L233.809,87.689 L234.161,87.682 L234.535,87.673 L234.935,87.663 L235.359,87.651 L235.805,87.638 L236.273,87.623 L236.765,87.606 L237.804,87.569 L238.927,87.524 L240.125,87.466 L241.388,87.4 L242.717,87.325 L244.106,87.241 L245.546,87.148 L247.036,87.043 L248.57,86.928 L250.141,86.804 L251.747,86.673 L253.382,86.534 L255.038,86.385 L256.714,86.227 L258.403,86.06 L260.099,85.883 L261.8,85.694 L263.499,85.496 L265.182,85.282 L266.869,85.068 L268.52,84.829 L270.172,84.591 L271.766,84.328 L273.358,84.064 L274.904,83.783 L276.406,83.487 L277.858,83.178 L279.261,82.855 L280.607,82.516 L281.889,82.163 L283.108,81.794 L284.256,81.408 L285.325,81.004 L286.32,80.583 L287.231,80.14 L288.038,79.681 L288.426,79.433 L288.781,79.183 L289.11,78.925 L289.416,78.66 L289.698,78.383 L289.95,78.096 L290.176,77.798 L290.373,77.485 L290.535,77.161 L290.663,76.824 L290.753,76.473 L290.802,76.088 L290.767,75.664 L290.611,75.249 L290.378,74.893 L290.091,74.572 L289.747,74.269 L289.355,73.979 L288.917,73.696 L288.428,73.414 L287.893,73.134 L287.316,72.855 L286.695,72.576 L286.033,72.297 L285.336,72.018 L284.602,71.739 L283.835,71.461 L283.041,71.184 L282.218,70.908 L281.367,70.633 L279.618,70.092 L277.798,69.561 L275.939,69.046 L274.063,68.548 L272.192,68.071 L270.352,67.621 L268.56,67.198 L266.845,66.808 L265.234,66.456 L264.468,66.293 L263.737,66.14 L263.043,65.999 L262.386,65.869 L261.772,65.75 L261.204,65.643 L260.68,65.549 L260.207,65.467 L259.788,65.399 L259.419,65.344 L259.107,65.304 L258.863,65.279 C258.492,65.241 258.16,65.511 258.122,65.882 C258.084,66.253 258.354,66.585 258.725,66.624 L258.947,66.647 L259.228,66.684 L259.577,66.738 L259.981,66.805 L260.441,66.886 L260.955,66.98 L261.515,67.087 L262.122,67.206 L262.772,67.338 L263.459,67.48 L264.183,67.634 L264.94,67.798 L266.543,68.154 L268.245,68.547 L270.024,68.973 L271.851,69.427 L273.707,69.906 L275.567,70.406 L277.408,70.923 L279.206,71.454 L280.937,71.996 L281.768,72.268 L282.574,72.541 L283.352,72.815 L284.099,73.089 L284.81,73.362 L285.482,73.633 L286.115,73.903 L286.701,74.169 L287.238,74.432 L287.727,74.689 L288.156,74.939 L288.524,75.179 L288.831,75.407 L289.064,75.613 L289.222,75.792 L289.312,75.926 L289.337,75.989 L289.336,76.031 L289.312,76.191 L289.264,76.375 L289.19,76.565 L289.092,76.76 L288.967,76.956 L288.811,77.158 L288.628,77.364 L288.416,77.57 L288.172,77.779 L287.901,77.989 L287.602,78.197 L287.284,78.398 L286.54,78.816 L285.705,79.216 L284.771,79.605 L283.753,79.983 L282.651,80.346 L281.47,80.696 L280.221,81.033 L278.905,81.356 L277.527,81.665 L276.098,81.961 L274.617,82.243 L273.094,82.512 L271.513,82.762 L269.934,83.011 L268.296,83.235 L266.657,83.458 L264.983,83.656 L263.306,83.854 L261.619,84.035 L259.928,84.204 L258.24,84.361 L256.558,84.508 L254.89,84.643 L253.24,84.767 L251.612,84.882 L250.012,84.985 L248.447,85.076 L246.918,85.16 L245.433,85.234 L243.999,85.304 L242.616,85.369 L241.293,85.426 L240.036,85.475 L238.845,85.52 L237.729,85.563 L236.695,85.6 L236.209,85.616 L235.744,85.63 L235.302,85.642 L234.882,85.654 L234.487,85.663 L234.117,85.672 L233.77,85.679 L233.45,85.684 L233.157,85.688 L232.89,85.691 L232.652,85.693 L232.44,85.694 L231.084,85.7 L229.729,85.706 L228.374,85.712 L227.013,85.718 L225.653,85.738 L224.297,85.758 L222.942,85.778 L221.582,85.798 L220.221,85.829 L218.865,85.86 L217.51,85.891 L216.15,85.922 L214.79,85.964 L213.434,86.005 L212.078,86.046 L210.718,86.087 L209.358,86.138 L208.002,86.189 L206.646,86.239 L205.286,86.29 L203.927,86.348 L202.57,86.405 L201.213,86.462 L199.853,86.519 L198.493,86.584 L197.136,86.649 L195.779,86.713 L194.422,86.778 L193.065,86.843 L191.708,86.907 L190.351,86.971 L188.991,87.034 L187.63,87.106 L186.273,87.177 L184.915,87.248 L183.558,87.319 L182.201,87.391 L180.843,87.462 L179.486,87.533 L178.128,87.604 L176.77,87.676 L175.412,87.748 L174.054,87.82 L172.697,87.892 L171.339,87.964 L169.981,88.036 L168.624,88.109 L167.267,88.183 L165.911,88.253 L164.553,88.323 L163.195,88.394 L161.839,88.465 L160.483,88.533 L159.125,88.6 L157.767,88.667 L156.412,88.734 L155.057,88.796 L153.699,88.858 L152.341,88.92 L150.986,88.983 L149.631,89.04 L148.274,89.097 L146.916,89.155 L145.562,89.212 L144.208,89.261 L142.85,89.31 L141.492,89.359 L140.139,89.408 L138.786,89.448 L137.429,89.488 L136.071,89.528 L134.718,89.569 L133.365,89.599 L132.008,89.629 L130.65,89.659 L129.298,89.689 L127.947,89.706 L126.589,89.724 L125.231,89.741 L123.881,89.758 L122.53,89.756 L121.172,89.753 L119.815,89.75 L118.464,89.747 L117.114,89.724 L115.757,89.699 L114.399,89.673 L113.051,89.647 L111.702,89.605 L110.345,89.565 L108.988,89.525 L107.641,89.485 L106.294,89.427 L104.937,89.372 L103.58,89.316 L102.225,89.261 L101.896,89.246 L101.467,89.227 L100.95,89.205 L100.357,89.18 L99.683,89.152 L98.934,89.121 L98.119,89.088 L97.237,89.051 L96.291,89.013 L95.292,88.972 L94.238,88.929 L93.135,88.884 L91.935,88.834 L90.734,88.784 L89.533,88.735 L88.334,88.686 L87.016,88.63 L85.696,88.575 L84.376,88.52 L83.058,88.464 L81.696,88.404 L80.332,88.343 L78.968,88.283 L77.606,88.222 L76.247,88.159 L74.897,88.096 L73.562,88.031 L72.243,87.966 L70.946,87.902 L69.677,87.837 L68.436,87.771 L67.231,87.706 L66.066,87.641 L64.941,87.575 L63.865,87.51 L62.842,87.445 L61.872,87.381 L60.964,87.317 L60.123,87.253 L59.347,87.19 L58.648,87.128 L58.026,87.067 L57.752,87.037 L57.498,87.008 L57.266,86.979 L57.059,86.951 L56.88,86.924 L56.73,86.899 L56.611,86.877 L56.534,86.86 L56.507,86.853 L56.551,86.868 L56.737,86.961 L57.226,87.447 L57.122,87.284 L57.05,87.066 L56.972,86.682 L56.91,86.179 L56.877,85.574 L56.872,84.902 L56.937,83.293 L57.092,81.513 L57.307,79.614 L57.426,78.654 L57.551,77.685 L57.677,76.723 L57.8,75.775 L57.917,74.849 L58.024,73.954 L58.118,73.094 L58.195,72.276 L58.25,71.522 L58.269,71.146 L58.282,70.792 L58.286,70.454 L58.282,70.126 L58.267,69.806 L58.245,69.534 C58.166,68.634 57.373,67.968 56.474,68.046 C55.574,68.124 54.908,68.917 54.986,69.817 Z" id="Fill-512" fill="currentColor"></path>
            <path d="M276.771,68.079 C261.44,63.111 242.357,80.578 257.563,86.966 C264.897,90.046 298.02,93.083 294.009,77.921 C291.363,67.918 255.516,65.002 246.727,65.951" id="Fill-513" fill="currentColor"></path>
            <path d="M277.233,66.511 L276.223,66.219 L275.16,65.977 L274.097,65.799 L273.034,65.674 L271.968,65.607 L270.909,65.595 L269.855,65.632 L268.806,65.719 L267.771,65.854 L266.746,66.031 L265.732,66.252 L264.738,66.515 L263.759,66.814 L262.798,67.152 L261.861,67.526 L260.946,67.93 L260.054,68.369 L259.193,68.837 L258.358,69.331 L257.552,69.854 L256.782,70.4 L256.043,70.968 L255.34,71.56 L254.677,72.171 L254.053,72.799 L253.469,73.449 L252.934,74.113 L252.443,74.793 L252,75.491 L251.613,76.2 L251.279,76.922 L251.003,77.66 L250.792,78.405 L250.645,79.158 L250.571,79.924 L250.576,80.685 L250.656,81.444 L250.824,82.202 L251.081,82.935 L251.419,83.647 L251.846,84.336 L252.356,84.986 L252.944,85.6 L253.616,86.179 L254.366,86.716 L255.185,87.223 L256.089,87.698 L257.06,88.128 L257.616,88.345 L258.218,88.551 L258.872,88.751 L259.574,88.945 L260.329,89.134 L261.131,89.315 L261.975,89.49 L262.863,89.658 L263.79,89.815 L264.75,89.963 L265.745,90.101 L266.769,90.226 L267.817,90.339 L268.89,90.438 L269.982,90.523 L271.089,90.592 L272.211,90.643 L273.346,90.676 L274.478,90.682 L275.617,90.689 L276.755,90.654 L277.895,90.618 L279.019,90.537 L280.135,90.453 L281.247,90.335 L282.337,90.191 L283.406,90.019 L284.453,89.822 L285.475,89.594 L286.466,89.335 L287.426,89.046 L288.353,88.721 L289.238,88.361 L290.084,87.965 L290.888,87.528 L291.638,87.05 L292.34,86.528 L292.985,85.956 L293.563,85.336 L294.076,84.667 L294.513,83.941 L294.864,83.17 L295.131,82.354 L295.302,81.488 L295.372,80.612 L295.373,80.122 L295.348,79.646 L295.297,79.163 L295.223,78.672 L295.123,78.17 L294.989,77.633 L294.747,76.919 L294.397,76.207 L293.962,75.537 L293.455,74.9 L292.872,74.293 L292.222,73.719 L291.515,73.171 L290.744,72.647 L289.918,72.148 L289.043,71.67 L288.114,71.213 L287.138,70.776 L286.117,70.366 L285.051,69.979 L283.946,69.613 L282.807,69.27 L281.634,68.945 L280.434,68.631 L279.211,68.332 L277.964,68.045 L276.697,67.775 L275.415,67.516 L274.119,67.272 L272.811,67.041 L271.498,66.83 L270.184,66.619 L268.866,66.435 L267.549,66.251 L266.243,66.095 L264.939,65.94 L263.657,65.809 L262.374,65.678 L261.128,65.571 L259.883,65.464 L258.689,65.383 L257.498,65.301 L256.346,65.236 L255.23,65.184 L254.153,65.144 L253.115,65.114 L252.122,65.097 L251.177,65.091 L250.28,65.095 L249.436,65.11 L248.652,65.137 L247.922,65.173 L247.255,65.221 L246.664,65.278 C246.293,65.313 246.02,65.643 246.054,66.014 C246.089,66.386 246.419,66.659 246.791,66.624 L247.363,66.573 L247.999,66.532 L248.704,66.502 L249.467,66.482 L250.29,66.472 L251.171,66.475 L252.099,66.487 L253.078,66.512 L254.102,66.548 L255.165,66.596 L256.267,66.655 L257.404,66.727 L258.586,66.817 L259.766,66.906 L260.998,67.022 L262.229,67.138 L263.497,67.283 L264.765,67.428 L266.055,67.597 L267.344,67.767 L268.643,67.965 L269.942,68.162 L271.236,68.389 L272.533,68.617 L273.814,68.865 L275.084,69.129 L276.339,69.409 L277.575,69.704 L278.787,70.015 L279.972,70.344 L281.13,70.687 L282.251,71.051 L283.335,71.429 L284.383,71.814 L285.387,72.211 L286.344,72.618 L287.258,73.03 L288.115,73.454 L288.915,73.893 L289.656,74.343 L290.33,74.802 L290.934,75.273 L291.472,75.751 L291.931,76.232 L292.315,76.719 L292.628,77.207 L292.861,77.691 L293.029,78.21 L293.124,78.61 L293.203,79.02 L293.259,79.417 L293.297,79.801 L293.313,80.169 L293.311,80.499 L293.252,81.202 L293.124,81.824 L292.927,82.409 L292.671,82.961 L292.351,83.475 L291.964,83.965 L291.518,84.431 L291.011,84.867 L290.437,85.279 L289.808,85.667 L289.124,86.025 L288.383,86.355 L287.594,86.66 L286.76,86.935 L285.881,87.182 L284.966,87.403 L284.016,87.597 L283.033,87.764 L282.024,87.907 L280.992,88.024 L279.945,88.116 L278.864,88.177 L277.789,88.239 L276.697,88.257 L275.603,88.277 L274.507,88.256 L273.404,88.236 L272.317,88.19 L271.235,88.127 L270.165,88.051 L269.109,87.962 L268.074,87.859 L267.062,87.743 L266.075,87.616 L265.119,87.48 L264.197,87.334 L263.31,87.18 L262.466,87.019 L261.667,86.852 L260.914,86.68 L260.217,86.504 L259.578,86.326 L258.997,86.147 L258.488,85.971 L258.066,85.803 L257.219,85.408 L256.485,85.002 L255.842,84.576 L255.286,84.137 L254.82,83.695 L254.431,83.247 L254.109,82.801 L253.859,82.361 L253.669,81.915 L253.531,81.466 L253.446,81.02 L253.41,80.557 L253.42,80.083 L253.48,79.603 L253.591,79.103 L253.749,78.592 L253.957,78.075 L254.218,77.546 L254.525,77.011 L254.879,76.477 L255.283,75.94 L255.731,75.405 L256.22,74.878 L256.753,74.357 L257.325,73.846 L257.932,73.351 L258.578,72.869 L259.255,72.404 L259.962,71.96 L260.7,71.538 L261.464,71.137 L262.249,70.764 L263.058,70.417 L263.886,70.098 L264.729,69.811 L265.589,69.557 L266.462,69.335 L267.342,69.151 L268.234,69.006 L269.131,68.898 L270.029,68.832 L270.932,68.809 L271.834,68.828 L272.731,68.893 L273.626,69.006 L274.516,69.165 L275.394,69.373 L276.309,69.648 C277.176,69.903 278.085,69.408 278.34,68.541 C278.595,67.675 278.099,66.766 277.233,66.511 Z" id="Fill-514" fill="currentColor"></path>
            <path d="M261.503,67.813 C262.652,68.168 263.801,68.523 264.951,68.877" id="Fill-515" fill="currentColor"></path>
            <path d="M261.021,69.376 L262.281,69.372 L263.504,69.485 L264.751,69.523 C265.108,69.633 265.486,69.433 265.596,69.077 C265.707,68.72 265.507,68.341 265.15,68.231 L264.099,67.56 L263.024,66.964 L261.985,66.251 C261.122,65.984 260.207,66.468 259.94,67.331 C259.674,68.194 260.158,69.11 261.021,69.376 Z" id="Fill-516" fill="currentColor"></path>
            <path d="M266.921,71.803 C276.509,37.279 336.524,97.251 285.636,91.754" id="Fill-517" fill="currentColor"></path>
            <path d="M268.487,72.273 L268.783,71.256 L269.096,70.34 L269.438,69.483 L269.802,68.684 L270.189,67.948 L270.599,67.267 L271.028,66.638 L271.474,66.066 L271.941,65.543 L272.423,65.064 L272.918,64.636 L273.434,64.248 L273.965,63.9 L274.509,63.596 L275.075,63.33 L275.657,63.099 L276.253,62.907 L276.87,62.749 L277.503,62.625 L278.148,62.536 L278.814,62.481 L279.494,62.458 L280.186,62.47 L280.894,62.512 L281.614,62.582 L282.344,62.682 L283.087,62.812 L283.835,62.98 L284.586,63.187 L285.341,63.432 L286.096,63.709 L286.851,64.013 L287.607,64.346 L288.363,64.701 L289.114,65.081 L289.863,65.483 L290.608,65.907 L291.345,66.351 L292.077,66.815 L292.802,67.296 L293.515,67.794 L294.209,68.302 L295.592,69.384 L296.908,70.509 L298.155,71.684 L299.33,72.892 L300.414,74.129 L301.407,75.399 L301.854,76.02 L302.278,76.655 L302.673,77.29 L303.04,77.923 L303.374,78.551 L303.678,79.176 L303.95,79.795 L304.187,80.404 L304.387,81.007 L304.555,81.599 L304.686,82.177 L304.779,82.743 L304.839,83.295 L304.861,83.828 L304.845,84.347 L304.808,84.851 L304.731,85.335 L304.617,85.808 L304.471,86.27 L304.284,86.714 L304.048,87.147 L303.767,87.567 L303.44,87.97 L303.058,88.36 L302.625,88.735 L302.139,89.091 L301.59,89.429 L300.986,89.748 L300.322,90.042 L299.593,90.312 L298.804,90.557 L297.951,90.773 L297.03,90.959 L296.048,91.118 L294.998,91.243 L293.878,91.33 L292.694,91.385 L291.439,91.401 L290.112,91.38 L288.718,91.322 L287.252,91.223 L285.702,91.081 C285.33,91.045 285,91.317 284.964,91.688 C284.927,92.06 285.199,92.39 285.571,92.427 L287.134,92.589 L288.634,92.708 L290.062,92.785 L291.428,92.824 L292.726,92.823 L293.957,92.782 L295.129,92.707 L296.239,92.598 L297.284,92.451 L298.275,92.272 L299.207,92.056 L300.079,91.805 L300.9,91.525 L301.666,91.209 L302.375,90.862 L303.035,90.484 L303.644,90.073 L304.197,89.631 L304.701,89.16 L305.155,88.657 L305.552,88.127 L305.9,87.574 L306.198,86.993 L306.44,86.393 L306.628,85.773 L306.762,85.133 L306.843,84.483 L306.868,83.822 L306.843,83.15 L306.773,82.474 L306.663,81.794 L306.51,81.106 L306.319,80.417 L306.093,79.725 L305.83,79.029 L305.534,78.332 L305.206,77.634 L304.845,76.935 L304.453,76.237 L304.033,75.541 L303.583,74.846 L303.101,74.143 L302.088,72.78 L300.968,71.425 L299.759,70.103 L298.475,68.817 L297.113,67.578 L295.695,66.41 L294.949,65.837 L294.199,65.29 L293.437,64.761 L292.664,64.253 L291.878,63.767 L291.085,63.303 L290.283,62.861 L289.472,62.445 L288.656,62.056 L287.835,61.691 L287.008,61.354 L286.179,61.047 L285.35,60.763 L284.518,60.502 L283.69,60.266 L282.862,60.053 L282.029,59.879 L281.199,59.745 L280.368,59.651 L279.537,59.601 L278.713,59.594 L277.892,59.629 L277.074,59.71 L276.269,59.841 L275.471,60.018 L274.682,60.249 L273.911,60.533 L273.155,60.865 L272.413,61.256 L271.697,61.7 L271.001,62.195 L270.328,62.752 L269.688,63.363 L269.074,64.027 L268.49,64.752 L267.941,65.53 L267.423,66.359 L266.936,67.25 L266.487,68.194 L266.07,69.191 L265.689,70.25 L265.354,71.334 C265.095,72.199 265.586,73.11 266.451,73.37 C267.316,73.629 268.228,73.138 268.487,72.273 Z" id="Fill-518" fill="currentColor"></path>
            <path d="M67.158,88.557 C53.5,120.73 102.335,140.747 129.872,132.098 C144.427,127.527 157.214,116.88 159.166,102.164 C160.231,94.137 151.057,78.189 155.865,77.283" id="Fill-519" fill="currentColor"></path>
            <path d="M65.644,87.94 L65.23,88.968 L64.848,90.015 L64.51,91.052 L64.209,92.082 L63.949,93.108 L63.73,94.124 L63.548,95.132 L63.405,96.136 L63.302,97.128 L63.234,98.112 L63.205,99.09 L63.213,100.056 L63.256,101.012 L63.335,101.962 L63.449,102.898 L63.596,103.825 L63.778,104.743 L63.994,105.647 L64.24,106.541 L64.52,107.424 L64.831,108.294 L65.171,109.151 L65.542,109.998 L65.942,110.83 L66.368,111.65 L66.823,112.459 L67.304,113.252 L67.81,114.034 L68.342,114.804 L68.899,115.558 L69.478,116.3 L70.082,117.03 L70.709,117.744 L71.357,118.445 L72.028,119.134 L72.719,119.807 L73.429,120.466 L74.16,121.113 L74.91,121.744 L75.676,122.362 L76.462,122.967 L77.276,123.565 L78.919,124.691 L80.638,125.767 L82.411,126.773 L83.329,127.254 L84.238,127.741 L85.172,128.2 L86.104,128.658 L87.057,129.093 L88.007,129.528 L88.976,129.936 L89.947,130.345 L90.935,130.724 L91.924,131.103 L92.928,131.451 L93.931,131.799 L94.945,132.118 L95.962,132.437 L96.99,132.724 L98.018,133.011 L99.055,133.267 L100.09,133.521 L101.131,133.747 L102.174,133.973 L103.221,134.164 L104.269,134.355 L105.318,134.513 L106.365,134.67 L107.412,134.797 L108.461,134.925 L109.507,135.017 L110.553,135.11 L111.594,135.168 L112.634,135.225 L113.666,135.25 L114.7,135.275 L115.725,135.264 L116.757,135.253 L118.773,135.161 L120.771,135.002 L122.737,134.769 L124.664,134.461 L126.553,134.086 L128.397,133.633 L130.185,133.105 L132.029,132.482 L133.849,131.798 L135.64,131.049 L137.402,130.243 L139.13,129.373 L140.817,128.442 L142.466,127.457 L144.07,126.411 L145.621,125.307 L147.121,124.149 L148.563,122.931 L149.93,121.646 L151.23,120.306 L152.451,118.904 L153.584,117.458 L154.137,116.707 L154.662,115.951 L155.165,115.183 L155.649,114.403 L156.112,113.611 L156.552,112.807 L156.969,111.992 L157.365,111.164 L157.736,110.325 L158.083,109.475 L158.406,108.612 L158.703,107.738 L158.975,106.854 L159.22,105.957 L159.438,105.05 L159.631,104.133 L159.794,103.204 L159.928,102.265 L159.984,101.713 L160.012,101.143 L160.013,100.561 L159.991,99.967 L159.946,99.359 L159.88,98.741 L159.796,98.113 L159.694,97.474 L159.575,96.827 L159.442,96.173 L159.295,95.512 L159.136,94.841 L158.791,93.502 L158.412,92.149 L158.012,90.797 L157.601,89.456 L157.189,88.135 L156.789,86.847 L156.408,85.597 L156.058,84.399 L155.753,83.266 L155.496,82.203 L155.304,81.23 L155.185,80.346 L155.155,79.964 L155.146,79.604 L155.158,79.277 L155.188,78.986 L155.237,78.739 L155.304,78.532 L155.381,78.364 L155.465,78.239 L155.562,78.139 L155.673,78.058 L155.808,77.995 L156.038,77.936 C156.398,77.841 156.614,77.471 156.519,77.11 C156.424,76.749 156.054,76.534 155.693,76.629 L155.355,76.72 L154.995,76.885 L154.681,77.107 L154.414,77.378 L154.198,77.693 L154.037,78.033 L153.918,78.394 L153.839,78.778 L153.794,79.178 L153.776,79.594 L153.785,80.033 L153.82,80.501 L153.942,81.454 L154.142,82.497 L154.402,83.607 L154.71,84.774 L155.058,85.995 L155.435,87.259 L155.829,88.554 L156.232,89.874 L156.632,91.208 L157.019,92.545 L157.382,93.876 L157.711,95.193 L157.859,95.836 L157.994,96.474 L158.115,97.102 L158.222,97.72 L158.312,98.324 L158.385,98.913 L158.441,99.488 L158.476,100.044 L158.49,100.581 L158.485,101.099 L158.456,101.592 L158.403,102.062 L158.267,102.953 L158.103,103.831 L157.912,104.699 L157.696,105.557 L157.453,106.402 L157.184,107.237 L156.893,108.061 L156.576,108.872 L156.234,109.673 L155.87,110.463 L155.484,111.24 L155.072,112.006 L154.64,112.76 L154.187,113.502 L153.711,114.231 L153.215,114.948 L152.699,115.652 L152.169,116.336 L151.03,117.689 L149.827,118.979 L148.559,120.225 L147.236,121.427 L145.86,122.584 L144.423,123.689 L142.936,124.744 L141.399,125.742 L139.812,126.682 L138.185,127.567 L136.52,128.392 L134.819,129.157 L133.09,129.866 L131.336,130.513 L129.559,131.092 L127.854,131.575 L126.1,131.982 L124.295,132.315 L122.45,132.582 L120.567,132.776 L118.648,132.9 L116.696,132.96 L115.718,132.955 L114.734,132.95 L113.74,132.911 L112.743,132.873 L111.74,132.804 L110.739,132.736 L109.732,132.634 L108.726,132.533 L107.716,132.4 L106.705,132.266 L105.693,132.103 L104.683,131.941 L103.675,131.746 L102.667,131.551 L101.663,131.327 L100.657,131.103 L99.657,130.851 L98.659,130.599 L97.669,130.317 L96.68,130.035 L95.702,129.724 L94.722,129.413 L93.755,129.074 L92.789,128.737 L91.84,128.371 L90.89,128.006 L89.959,127.611 L89.026,127.216 L88.112,126.796 L87.201,126.374 L86.316,125.92 L85.431,125.467 L84.572,124.986 L83.723,124.499 L82.061,123.469 L80.466,122.401 L78.924,121.278 L78.192,120.715 L77.468,120.134 L76.762,119.54 L76.074,118.937 L75.406,118.324 L74.758,117.699 L74.129,117.065 L73.523,116.422 L72.937,115.767 L72.372,115.103 L71.83,114.432 L71.311,113.75 L70.814,113.059 L70.343,112.36 L69.896,111.649 L69.472,110.931 L69.075,110.205 L68.704,109.469 L68.357,108.725 L68.039,107.973 L67.748,107.211 L67.481,106.442 L67.243,105.666 L67.034,104.879 L66.852,104.084 L66.7,103.283 L66.578,102.471 L66.484,101.65 L66.421,100.823 L66.391,99.984 L66.39,99.136 L66.423,98.282 L66.489,97.415 L66.587,96.539 L66.72,95.657 L66.888,94.762 L67.091,93.857 L67.329,92.946 L67.607,92.022 L67.92,91.089 L68.271,90.148 L68.673,89.173 C69.013,88.337 68.611,87.383 67.775,87.042 C66.938,86.701 65.984,87.104 65.644,87.94 Z" id="Fill-520" fill="currentColor"></path>
            <path d="M152.564,96.721 C131.731,107.428 218.582,152.327 200.012,76.505" id="Fill-521" fill="currentColor"></path>
            <path d="M151.768,95.293 L151.096,95.674 L150.435,96.122 L149.844,96.606 L149.315,97.127 L148.851,97.694 L148.468,98.291 L148.159,98.92 L147.929,99.582 L147.786,100.253 L147.719,100.93 L147.729,101.618 L147.811,102.293 L147.954,102.962 L148.16,103.628 L148.42,104.281 L148.728,104.926 L149.088,105.568 L149.492,106.2 L149.937,106.825 L150.426,107.447 L150.955,108.061 L151.52,108.668 L152.125,109.272 L152.765,109.867 L153.436,110.456 L154.143,111.039 L154.88,111.612 L155.645,112.177 L156.443,112.732 L157.268,113.275 L158.118,113.805 L158.995,114.324 L159.895,114.828 L160.815,115.319 L161.762,115.788 L162.726,116.24 L163.71,116.671 L164.71,117.084 L165.718,117.494 L166.737,117.887 L167.767,118.27 L168.807,118.631 L169.857,118.97 L170.917,119.286 L171.984,119.575 L173.056,119.84 L174.135,120.076 L175.215,120.283 L176.297,120.463 L177.382,120.609 L178.464,120.723 L179.543,120.806 L180.621,120.854 L181.69,120.866 L182.754,120.844 L183.811,120.782 L184.856,120.68 L185.89,120.542 L186.914,120.361 L187.92,120.138 L188.911,119.874 L189.887,119.564 L190.84,119.207 L191.775,118.808 L192.688,118.359 L193.574,117.861 L194.435,117.316 L195.271,116.718 L196.074,116.07 L196.847,115.372 L197.588,114.617 L198.29,113.808 L198.956,112.947 L199.585,112.028 L200.173,111.055 L200.721,110.028 L201.226,108.941 L201.684,107.795 L202.097,106.595 L202.443,105.326 L202.729,103.997 L202.963,102.613 L203.154,101.167 L203.295,99.66 L203.39,98.095 L203.432,96.463 L203.42,94.765 L203.357,93.004 L203.235,91.172 L203.051,89.274 L202.938,88.294 L202.811,87.299 L202.668,86.286 L202.511,85.257 L202.339,84.208 L202.149,83.14 L201.944,82.055 L201.723,80.951 L201.484,79.827 L201.23,78.686 L200.958,77.525 L200.67,76.347 C200.582,75.984 200.218,75.761 199.855,75.848 C199.492,75.935 199.268,76.3 199.355,76.663 L199.631,77.836 L199.888,78.986 L200.128,80.116 L200.353,81.227 L200.561,82.318 L200.753,83.389 L200.929,84.442 L201.089,85.475 L201.233,86.489 L201.362,87.485 L201.475,88.462 L201.57,89.415 L201.72,91.284 L201.81,93.071 L201.842,94.784 L201.821,96.431 L201.741,98.003 L201.606,99.504 L201.421,100.939 L201.183,102.302 L200.888,103.594 L200.558,104.824 L200.193,105.987 L199.803,107.092 L199.38,108.141 L198.919,109.127 L198.419,110.055 L197.886,110.929 L197.319,111.745 L196.716,112.506 L196.085,113.218 L195.426,113.877 L194.736,114.487 L194.019,115.053 L193.277,115.567 L192.506,116.035 L191.712,116.462 L190.896,116.843 L190.055,117.181 L189.194,117.48 L188.314,117.736 L187.414,117.952 L186.497,118.132 L185.566,118.273 L184.617,118.377 L183.656,118.447 L182.685,118.48 L181.702,118.481 L180.709,118.451 L179.711,118.389 L178.704,118.294 L177.693,118.171 L176.68,118.019 L175.664,117.84 L174.647,117.635 L173.633,117.404 L172.62,117.146 L171.61,116.867 L170.608,116.565 L169.612,116.24 L168.624,115.894 L167.648,115.528 L166.687,115.132 L165.739,114.716 L164.816,114.269 L163.911,113.804 L163.02,113.331 L162.151,112.846 L161.3,112.354 L160.47,111.852 L159.666,111.342 L158.888,110.822 L158.134,110.298 L157.412,109.767 L156.719,109.233 L156.055,108.696 L155.428,108.157 L154.836,107.616 L154.279,107.077 L153.762,106.541 L153.286,106.008 L152.847,105.481 L152.454,104.966 L152.105,104.458 L151.797,103.963 L151.538,103.487 L151.325,103.025 L151.156,102.584 L151.034,102.172 L150.956,101.779 L150.915,101.412 L150.915,101.078 L150.951,100.76 L151.019,100.458 L151.122,100.176 L151.268,99.891 L151.456,99.606 L151.693,99.325 L151.997,99.035 L152.362,98.743 L152.796,98.458 L153.361,98.149 C154.15,97.709 154.433,96.713 153.993,95.924 C153.553,95.135 152.557,94.853 151.768,95.293 Z" id="Fill-522" fill="currentColor"></path>
            <path d="M38.277,92.056 C28.559,114.948 80.778,117.152 89.851,103.719" id="Fill-523" fill="currentColor"></path>
            <path d="M36.759,91.446 L36.468,92.191 L36.206,92.958 L35.988,93.712 L35.807,94.458 L35.668,95.196 L35.571,95.92 L35.511,96.635 L35.492,97.342 L35.515,98.033 L35.574,98.712 L35.674,99.382 L35.812,100.032 L35.986,100.668 L36.199,101.291 L36.446,101.893 L36.724,102.479 L37.037,103.049 L37.379,103.598 L37.749,104.13 L38.15,104.645 L38.578,105.137 L39.029,105.613 L39.509,106.07 L40.01,106.508 L40.533,106.928 L41.079,107.333 L41.647,107.714 L42.233,108.078 L42.843,108.423 L43.485,108.757 L44.755,109.382 L46.097,109.982 L47.497,110.53 L48.949,111.025 L50.455,111.462 L52.005,111.842 L53.591,112.169 L55.214,112.442 L56.864,112.658 L58.533,112.827 L60.221,112.946 L61.918,113.018 L63.62,113.049 L65.324,113.041 L67.021,112.987 L68.709,112.892 L70.383,112.756 L72.033,112.571 L73.653,112.297 L75.236,111.966 L76.78,111.608 L78.284,111.219 L79.74,110.791 L81.14,110.322 L82.483,109.812 L83.761,109.255 L84.965,108.657 L86.1,108.018 L87.152,107.33 L88.101,106.603 L88.559,106.21 L88.982,105.812 L89.378,105.402 L89.75,104.98 L90.096,104.544 L90.401,104.112 C90.618,103.808 90.547,103.386 90.244,103.169 C89.94,102.952 89.518,103.022 89.301,103.326 L89.012,103.723 L88.708,104.096 L88.375,104.462 L88.018,104.821 L87.636,105.17 L87.238,105.503 L86.343,106.169 L85.365,106.788 L84.297,107.369 L83.153,107.912 L81.932,108.409 L80.639,108.863 L79.288,109.278 L77.879,109.643 L76.416,109.958 L74.911,110.221 L73.365,110.419 L71.789,110.583 L70.194,110.752 L68.578,110.876 L66.945,110.949 L65.303,110.976 L63.658,110.955 L62.016,110.878 L60.382,110.754 L58.766,110.581 L57.171,110.36 L55.601,110.099 L54.067,109.796 L52.571,109.448 L51.116,109.064 L49.714,108.637 L48.368,108.167 L47.079,107.657 L45.866,107.1 L44.725,106.463 L44.214,106.132 L43.711,105.787 L43.228,105.434 L42.765,105.075 L42.326,104.713 L41.909,104.341 L41.514,103.963 L41.148,103.579 L40.804,103.186 L40.483,102.787 L40.19,102.383 L39.921,101.97 L39.676,101.549 L39.46,101.125 L39.268,100.688 L39.101,100.243 L38.963,99.793 L38.849,99.329 L38.76,98.855 L38.699,98.372 L38.666,97.873 L38.659,97.36 L38.683,96.836 L38.739,96.293 L38.825,95.734 L38.945,95.163 L39.1,94.57 L39.289,93.961 L39.516,93.339 L39.794,92.665 C40.131,91.827 39.725,90.875 38.887,90.538 C38.049,90.201 37.096,90.608 36.759,91.446 Z" id="Fill-524" fill="currentColor"></path>
            <path d="M51.067,98.665 C64.809,95.722 78.239,89.475 91.501,84.669" id="Fill-525" fill="currentColor"></path>
            <path d="M51.424,100.261 L53.149,99.848 L54.884,99.398 L56.611,98.914 L58.329,98.394 L60.039,97.837 L61.738,97.232 L63.413,96.571 L65.116,95.992 L66.816,95.382 L68.507,94.761 L70.189,94.099 L71.862,93.427 L73.531,92.737 L75.201,92.058 L76.872,91.383 L78.545,90.718 L80.209,90.042 L81.842,89.292 L83.485,88.58 L85.135,87.892 L86.783,87.224 L88.434,86.567 L90.083,85.936 L91.736,85.303 C92.086,85.174 92.264,84.785 92.135,84.435 C92.006,84.085 91.617,83.906 91.267,84.035 L89.6,84.63 L87.93,85.226 L86.255,85.842 L84.577,86.447 L82.892,87.059 L81.2,87.647 L79.49,88.207 L77.812,88.841 L76.132,89.481 L74.451,90.111 L72.76,90.713 L71.066,91.304 L69.368,91.876 L67.678,92.46 L65.988,93.027 L64.305,93.605 L62.615,94.14 L60.896,94.592 L59.194,95.041 L57.497,95.488 L55.801,95.917 L54.108,96.329 L52.417,96.714 L50.71,97.069 C49.829,97.266 49.274,98.14 49.471,99.021 C49.668,99.903 50.543,100.458 51.424,100.261 Z" id="Fill-526" fill="currentColor"></path>
            <path d="M53.955,96.721 C60.929,108.767 77.395,99.389 70.459,89.334 C65.702,82.438 46.577,89.472 57.256,98.276 C64.659,104.38 83.382,88.757 71.284,86.224" id="Fill-527" fill="currentColor"></path>
            <path d="M52.562,97.578 L53.041,98.342 L53.575,99.091 L54.134,99.78 L54.716,100.417 L55.327,101.002 L55.955,101.527 L56.602,102.002 L57.269,102.423 L57.946,102.788 L58.634,103.103 L59.336,103.367 L60.038,103.578 L60.744,103.741 L61.456,103.855 L62.161,103.92 L62.862,103.941 L63.561,103.917 L64.248,103.85 L64.924,103.745 L65.593,103.598 L66.243,103.413 L66.879,103.193 L67.501,102.936 L68.098,102.643 L68.676,102.319 L69.234,101.96 L69.762,101.57 L70.265,101.152 L70.743,100.701 L71.185,100.225 L71.596,99.723 L71.975,99.191 L72.309,98.635 L72.605,98.058 L72.86,97.455 L73.063,96.835 L73.222,96.198 L73.33,95.542 L73.392,94.878 L73.408,94.204 L73.366,93.515 L73.274,92.824 L73.129,92.126 L72.923,91.421 L72.656,90.719 L72.333,90.018 L71.944,89.316 L71.492,88.62 L71.105,88.113 L70.669,87.648 L70.2,87.234 L69.7,86.863 L69.169,86.535 L68.617,86.255 L68.046,86.013 L67.454,85.811 L66.851,85.651 L66.237,85.524 L65.61,85.433 L64.979,85.376 L64.342,85.348 L63.7,85.353 L63.059,85.388 L62.419,85.451 L61.78,85.543 L61.148,85.663 L60.523,85.809 L59.905,85.981 L59.301,86.178 L58.709,86.398 L58.131,86.644 L57.573,86.914 L57.033,87.205 L56.513,87.522 L56.02,87.862 L55.553,88.223 L55.112,88.611 L54.705,89.02 L54.332,89.453 L53.995,89.914 L53.704,90.396 L53.456,90.902 L53.26,91.436 L53.122,91.986 L53.04,92.554 L53.024,93.14 L53.076,93.731 L53.193,94.327 L53.381,94.929 L53.638,95.525 L53.959,96.118 L54.352,96.712 L54.814,97.299 L55.34,97.884 L55.941,98.471 L56.619,99.057 L57.174,99.469 L57.769,99.82 L58.387,100.104 L59.025,100.331 L59.684,100.498 L60.355,100.595 L61.034,100.643 L61.722,100.639 L62.411,100.582 L63.101,100.485 L63.794,100.349 L64.484,100.178 L65.171,99.975 L65.856,99.741 L66.533,99.475 L67.204,99.184 L67.866,98.867 L68.516,98.524 L69.153,98.162 L69.776,97.777 L70.381,97.374 L70.968,96.955 L71.534,96.52 L72.074,96.07 L72.591,95.609 L73.08,95.136 L73.538,94.655 L73.965,94.166 L74.36,93.67 L74.715,93.171 L75.035,92.667 L75.314,92.157 L75.546,91.648 L75.733,91.135 L75.868,90.618 L75.945,90.103 L75.962,89.59 L75.911,89.078 L75.785,88.582 L75.588,88.104 L75.311,87.651 L74.96,87.237 L74.544,86.86 L74.054,86.52 L73.498,86.224 L72.88,85.964 L72.187,85.743 L71.443,85.567 C71.08,85.479 70.715,85.702 70.627,86.065 C70.539,86.428 70.762,86.793 71.125,86.881 L71.819,87.053 L72.403,87.247 L72.905,87.464 L73.332,87.698 L73.679,87.944 L73.957,88.202 L74.176,88.467 L74.335,88.735 L74.448,89.018 L74.519,89.315 L74.547,89.627 L74.53,89.965 L74.472,90.324 L74.369,90.699 L74.219,91.095 L74.027,91.504 L73.792,91.922 L73.513,92.349 L73.196,92.781 L72.842,93.213 L72.45,93.644 L72.027,94.072 L71.574,94.493 L71.092,94.907 L70.586,95.312 L70.057,95.703 L69.507,96.08 L68.939,96.441 L68.357,96.781 L67.76,97.101 L67.153,97.399 L66.54,97.671 L65.92,97.916 L65.299,98.133 L64.679,98.319 L64.061,98.47 L63.45,98.59 L62.85,98.671 L62.261,98.712 L61.689,98.72 L61.138,98.696 L60.606,98.633 L60.095,98.536 L59.61,98.411 L59.146,98.244 L58.704,98.039 L58.291,97.794 L57.893,97.495 L57.308,96.985 L56.802,96.486 L56.37,95.999 L56.007,95.525 L55.715,95.073 L55.487,94.637 L55.313,94.22 L55.195,93.828 L55.127,93.449 L55.099,93.086 L55.113,92.742 L55.168,92.403 L55.258,92.07 L55.385,91.749 L55.553,91.427 L55.754,91.11 L55.991,90.802 L56.267,90.498 L56.576,90.203 L56.915,89.92 L57.289,89.649 L57.69,89.39 L58.114,89.148 L58.565,88.921 L59.035,88.711 L59.522,88.52 L60.027,88.349 L60.543,88.197 L61.068,88.067 L61.602,87.959 L62.14,87.873 L62.678,87.809 L63.216,87.769 L63.751,87.752 L64.277,87.76 L64.796,87.792 L65.303,87.848 L65.793,87.93 L66.267,88.038 L66.722,88.168 L67.151,88.321 L67.559,88.5 L67.942,88.7 L68.293,88.922 L68.619,89.169 L68.918,89.438 L69.184,89.727 L69.426,90.048 L69.784,90.608 L70.084,91.154 L70.33,91.694 L70.53,92.223 L70.678,92.736 L70.781,93.242 L70.841,93.737 L70.854,94.215 L70.827,94.686 L70.762,95.145 L70.654,95.584 L70.511,96.014 L70.34,96.432 L70.141,96.833 L69.91,97.223 L69.653,97.601 L69.373,97.961 L69.063,98.308 L68.73,98.639 L68.376,98.949 L67.997,99.241 L67.598,99.513 L67.184,99.762 L66.748,99.988 L66.299,100.192 L65.84,100.369 L65.365,100.521 L64.881,100.646 L64.393,100.741 L63.893,100.807 L63.39,100.844 L62.888,100.849 L62.38,100.822 L61.872,100.764 L61.369,100.674 L60.864,100.548 L60.363,100.389 L59.87,100.195 L59.378,99.96 L58.892,99.689 L58.417,99.378 L57.947,99.022 L57.485,98.624 L57.037,98.182 L56.598,97.687 L56.172,97.145 L55.764,96.553 L55.348,95.864 C54.875,95.095 53.868,94.855 53.098,95.328 C52.329,95.801 52.089,96.808 52.562,97.578 Z" id="Fill-528" fill="currentColor"></path>
            <path d="M194.236,99.053 C225.241,131.919 279.823,132.075 273.453,78.06" id="Fill-529" fill="currentColor"></path>
            <path d="M193.056,100.186 L194.048,101.208 L195.066,102.219 L196.098,103.206 L197.143,104.173 L198.202,105.116 L199.273,106.036 L200.356,106.934 L201.451,107.81 L202.556,108.66 L203.672,109.488 L204.8,110.291 L205.936,111.069 L207.081,111.824 L208.234,112.556 L209.394,113.262 L210.561,113.944 L211.736,114.601 L212.917,115.229 L214.102,115.834 L215.294,116.413 L216.489,116.963 L217.69,117.485 L218.895,117.978 L220.102,118.441 L221.304,118.893 L222.507,119.325 L223.704,119.74 L224.902,120.134 L226.1,120.501 L227.296,120.841 L228.492,121.156 L229.686,121.443 L230.877,121.701 L232.064,121.935 L233.25,122.14 L234.429,122.317 L235.604,122.466 L236.775,122.587 L237.938,122.68 L239.094,122.746 L240.245,122.783 L241.385,122.791 L242.518,122.77 L243.642,122.721 L244.755,122.642 L245.858,122.537 L246.952,122.401 L248.031,122.236 L249.1,122.044 L250.156,121.821 L251.197,121.569 L252.226,121.291 L253.241,120.981 L254.239,120.641 L255.222,120.273 L256.191,119.876 L257.141,119.449 L258.075,118.992 L258.992,118.503 L259.887,117.983 L260.764,117.434 L261.622,116.851 L262.458,116.238 L263.274,115.596 L264.07,114.921 L264.84,114.214 L265.589,113.477 L266.313,112.706 L267.012,111.903 L267.673,111.06 L268.308,110.184 L268.908,109.273 L269.48,108.331 L270.026,107.359 L270.545,106.358 L271.037,105.329 L271.501,104.267 L271.934,103.174 L272.341,102.052 L272.716,100.896 L273.059,99.709 L273.373,98.492 L273.654,97.241 L273.901,95.957 L274.116,94.643 L274.295,93.294 L274.439,91.913 L274.553,90.501 L274.63,89.053 L274.67,87.572 L274.675,86.06 L274.642,84.512 L274.57,82.93 L274.462,81.316 L274.314,79.666 L274.126,77.987 C274.085,77.616 273.752,77.348 273.381,77.388 C273.01,77.428 272.741,77.762 272.781,78.133 L272.954,79.797 L273.086,81.418 L273.179,83.002 L273.237,84.553 L273.256,86.067 L273.239,87.544 L273.187,88.989 L273.099,90.397 L272.975,91.77 L272.817,93.109 L272.625,94.412 L272.399,95.68 L272.143,96.915 L271.856,98.114 L271.536,99.279 L271.186,100.412 L270.806,101.508 L270.395,102.57 L269.957,103.6 L269.489,104.594 L268.992,105.553 L268.469,106.481 L267.918,107.371 L267.337,108.227 L266.737,109.053 L266.119,109.848 L265.477,110.613 L264.825,111.358 L264.152,112.07 L263.455,112.754 L262.738,113.409 L262,114.032 L261.239,114.625 L260.459,115.191 L259.659,115.724 L258.838,116.228 L258,116.705 L257.145,117.152 L256.27,117.569 L255.379,117.961 L254.472,118.322 L253.546,118.651 L252.605,118.954 L251.651,119.228 L250.68,119.473 L249.696,119.69 L248.7,119.878 L247.689,120.038 L246.667,120.172 L245.634,120.278 L244.589,120.356 L243.533,120.408 L242.469,120.433 L241.394,120.429 L240.311,120.403 L239.221,120.35 L238.121,120.27 L237.014,120.165 L235.902,120.034 L234.782,119.875 L233.657,119.695 L232.527,119.489 L231.392,119.257 L230.253,119.001 L229.111,118.72 L227.965,118.414 L226.817,118.084 L225.668,117.729 L224.517,117.348 L223.366,116.943 L222.221,116.501 L221.077,116.028 L219.941,115.52 L218.808,114.991 L217.676,114.44 L216.545,113.871 L215.418,113.282 L214.294,112.669 L213.176,112.035 L212.062,111.38 L210.954,110.701 L209.851,110.003 L208.757,109.282 L207.669,108.537 L206.59,107.771 L205.521,106.983 L204.46,106.173 L203.408,105.344 L202.367,104.493 L201.337,103.618 L200.318,102.724 L199.313,101.808 L198.32,100.87 L197.34,99.911 L196.376,98.933 L195.416,97.921 C194.791,97.269 193.755,97.248 193.104,97.873 C192.452,98.499 192.431,99.534 193.056,100.186 Z" id="Fill-530" fill="currentColor"></path>
            <path d="M181.858,81.948 C181.858,96.241 238.509,115.856 228.068,76.505" id="Fill-531" fill="currentColor"></path>
            <path d="M180.224,82.01 L180.249,82.525 L180.323,83.105 L180.44,83.672 L180.596,84.232 L180.792,84.789 L181.023,85.333 L181.285,85.87 L181.583,86.401 L181.91,86.922 L182.264,87.436 L182.649,87.946 L183.059,88.446 L183.494,88.94 L183.956,89.429 L184.441,89.909 L184.949,90.382 L185.482,90.849 L186.049,91.32 L187.199,92.206 L188.445,93.076 L189.764,93.907 L191.145,94.702 L192.59,95.455 L194.093,96.15 L195.636,96.806 L197.203,97.453 L198.797,98.065 L200.417,98.628 L202.062,99.132 L203.72,99.574 L205.387,99.952 L207.057,100.263 L208.72,100.499 L210.371,100.665 L212.006,100.755 L213.612,100.763 L215.189,100.697 L216.73,100.544 L218.208,100.308 L218.954,100.152 L219.673,99.973 L220.375,99.768 L221.063,99.539 L221.738,99.285 L222.393,99.003 L223.032,98.695 L223.654,98.357 L224.254,97.99 L224.833,97.595 L225.388,97.163 L225.909,96.693 L226.405,96.195 L226.868,95.659 L227.299,95.095 L227.707,94.509 L228.086,93.89 L228.433,93.244 L228.75,92.571 L229.037,91.867 L229.289,91.133 L229.51,90.372 L229.696,89.578 L229.847,88.755 L229.965,87.902 L230.044,87.016 L230.086,86.098 L230.092,85.15 L230.06,84.167 L229.99,83.151 L229.883,82.104 L229.735,81.02 L229.544,79.9 L229.314,78.748 L229.04,77.558 L228.724,76.34 C228.632,75.978 228.265,75.758 227.903,75.85 C227.541,75.941 227.322,76.309 227.413,76.67 L227.709,77.875 L227.958,79.031 L228.165,80.146 L228.334,81.226 L228.462,82.264 L228.55,83.265 L228.602,84.23 L228.616,85.155 L228.59,86.044 L228.532,86.897 L228.44,87.712 L228.314,88.492 L228.159,89.238 L227.971,89.946 L227.752,90.621 L227.506,91.264 L227.233,91.871 L226.929,92.445 L226.602,92.99 L226.248,93.499 L225.87,93.979 L225.464,94.428 L225.039,94.844 L224.596,95.24 L224.135,95.613 L223.661,95.966 L223.166,96.3 L222.651,96.612 L222.118,96.9 L221.561,97.164 L220.987,97.407 L220.395,97.626 L219.782,97.82 L219.153,97.993 L218.509,98.144 L217.863,98.27 L216.483,98.47 L215.068,98.574 L213.606,98.592 L212.11,98.533 L210.586,98.397 L209.038,98.187 L207.475,97.916 L205.905,97.582 L204.332,97.186 L202.763,96.743 L201.207,96.246 L199.668,95.7 L198.153,95.112 L196.68,94.465 L195.265,93.74 L193.898,92.982 L192.584,92.21 L191.33,91.415 L190.139,90.604 L189.027,89.781 L187.986,88.931 L187.518,88.52 L187.063,88.098 L186.63,87.676 L186.221,87.254 L185.84,86.835 L185.485,86.417 L185.156,86.002 L184.859,85.594 L184.59,85.188 L184.349,84.788 L184.141,84.399 L183.961,84.016 L183.81,83.641 L183.691,83.283 L183.601,82.931 L183.537,82.59 L183.502,82.267 L183.492,81.885 C183.458,80.983 182.698,80.279 181.796,80.314 C180.893,80.348 180.19,81.108 180.224,82.01 Z" id="Fill-532" fill="currentColor"></path>
            <path d="M258.6,104.496 C312.811,128.334 305.708,90.562 263.964,74.172" id="Fill-533" fill="currentColor"></path>
            <path d="M257.95,105.997 L259.639,106.715 L261.296,107.396 L262.913,108.038 L264.492,108.643 L266.033,109.21 L267.533,109.737 L268.998,110.228 L270.425,110.68 L271.813,111.095 L273.164,111.478 L274.479,111.823 L275.755,112.13 L276.997,112.404 L278.202,112.643 L279.368,112.846 L280.501,113.013 L281.599,113.144 L282.657,113.241 L283.679,113.327 L284.666,113.386 L285.616,113.426 L286.533,113.439 L287.418,113.422 L288.267,113.375 L289.085,113.301 L289.872,113.198 L290.623,113.065 L291.344,112.905 L292.035,112.716 L292.69,112.499 L293.314,112.255 L293.909,111.981 L294.466,111.679 L294.991,111.351 L295.485,110.991 L295.939,110.607 L296.359,110.198 L296.743,109.76 L297.086,109.301 L297.392,108.821 L297.659,108.316 L297.883,107.797 L298.069,107.262 L298.215,106.708 L298.321,106.145 L298.39,105.571 L298.421,104.984 L298.416,104.39 L298.377,103.789 L298.302,103.176 L298.194,102.559 L298.054,101.936 L297.882,101.303 L297.677,100.667 L297.442,100.024 L297.176,99.374 L296.88,98.72 L296.557,98.061 L296.202,97.395 L295.818,96.726 L295.407,96.053 L294.968,95.374 L294.501,94.692 L294.007,94.006 L293.483,93.317 L292.932,92.627 L292.354,91.935 L291.747,91.24 L291.114,90.544 L290.456,89.847 L289.77,89.149 L289.057,88.452 L288.319,87.757 L287.545,87.07 L286.739,86.393 L285.903,85.727 L285.038,85.067 L284.153,84.403 L283.247,83.743 L282.315,83.085 L281.361,82.431 L280.383,81.782 L279.381,81.137 L278.355,80.498 L277.307,79.866 L276.233,79.242 L275.134,78.627 L274.014,78.021 L272.869,77.422 L271.701,76.833 L270.512,76.254 L269.297,75.686 L268.059,75.132 L266.8,74.588 L265.517,74.059 L264.215,73.545 C263.869,73.406 263.475,73.574 263.336,73.921 C263.198,74.267 263.366,74.661 263.712,74.8 L264.999,75.323 L266.256,75.858 L267.491,76.406 L268.703,76.966 L269.892,77.536 L271.056,78.118 L272.198,78.71 L273.314,79.313 L274.404,79.927 L275.471,80.55 L276.513,81.181 L277.529,81.819 L278.521,82.464 L279.487,83.117 L280.425,83.777 L281.338,84.444 L282.222,85.116 L283.078,85.796 L283.908,86.479 L284.704,87.172 L285.474,87.864 L286.225,88.55 L286.954,89.229 L287.663,89.901 L288.347,90.573 L289.002,91.243 L289.629,91.913 L290.23,92.582 L290.8,93.248 L291.341,93.911 L291.856,94.571 L292.341,95.225 L292.798,95.874 L293.227,96.517 L293.625,97.153 L293.992,97.783 L294.332,98.405 L294.641,99.016 L294.92,99.619 L295.171,100.211 L295.39,100.79 L295.58,101.357 L295.742,101.912 L295.873,102.45 L295.976,102.975 L296.051,103.484 L296.097,103.974 L296.115,104.449 L296.107,104.907 L296.072,105.342 L296.009,105.763 L295.922,106.166 L295.811,106.547 L295.674,106.914 L295.513,107.265 L295.328,107.596 L295.115,107.916 L294.877,108.223 L294.613,108.512 L294.316,108.79 L293.99,109.055 L293.634,109.304 L293.241,109.54 L292.815,109.762 L292.357,109.967 L291.858,110.155 L291.325,110.326 L290.755,110.476 L290.145,110.605 L289.498,110.715 L288.815,110.801 L288.09,110.863 L287.329,110.903 L286.531,110.916 L285.691,110.901 L284.815,110.862 L283.902,110.781 L282.949,110.667 L281.963,110.508 L280.94,110.319 L279.877,110.102 L278.777,109.862 L277.638,109.592 L276.459,109.289 L275.243,108.956 L273.989,108.591 L272.692,108.194 L271.359,107.762 L269.987,107.295 L268.573,106.791 L267.121,106.254 L265.629,105.681 L264.095,105.068 L262.524,104.419 L260.912,103.73 L259.251,102.996 C258.422,102.636 257.459,103.017 257.1,103.846 C256.741,104.674 257.121,105.637 257.95,105.997 Z" id="Fill-534" fill="currentColor"></path>
            <line x1="107.339" y1="66.7" x2="23.243" y2="199.439" id="Stroke-535" stroke="currentColor" stroke-width="4.360947" stroke-linejoin="bevel"></line>
            <line x1="104.868" y1="168.639" x2="17.591" y2="307.665" id="Stroke-536" stroke="currentColor" stroke-width="4.360947" stroke-linejoin="bevel"></line>
            <line x1="225.095" y1="68.596" x2="88.63" y2="284.757" id="Stroke-537" stroke="currentColor" stroke-width="4.360947" stroke-linejoin="bevel"></line>
            <line x1="273.159" y1="72.451" x2="191.615" y2="198.045" id="Stroke-538" stroke="currentColor" stroke-width="4.360947" stroke-linejoin="bevel"></line>
            <line x1="112.964" y1="148.754" x2="116.466" y2="148.754" id="Stroke-539" stroke="currentColor" stroke-width="4.360947" stroke-linejoin="bevel"></line>
            <line x1="172.489" y1="223.177" x2="175.991" y2="223.177" id="Stroke-540" stroke="currentColor" stroke-width="4.360947" stroke-linejoin="bevel"></line>
            <line x1="156.733" y1="254.456" x2="150.167" y2="265.242" id="Stroke-541" stroke="currentColor" stroke-width="4.360947" stroke-linejoin="bevel"></line>
            <line x1="133.098" y1="286.095" x2="134.411" y2="284.297" id="Stroke-542" stroke="currentColor" stroke-width="4.360947" stroke-linejoin="bevel"></line>
            <line x1="72.697" y1="305.15" x2="71.384" y2="308.745" id="Stroke-543" stroke="currentColor" stroke-width="4.360947" stroke-linejoin="bevel"></line>
            <line x1="6.169" y1="217.065" x2="3.543" y2="221.739" id="Stroke-544" stroke="currentColor" stroke-width="4.360947" stroke-linejoin="bevel"></line>
        </g>
    </g>
</svg>
