<?xml version="1.0" encoding="UTF-8"?>
<svg width="396px" height="271px" viewBox="0 0 396 271" version="1.1" xmlns="http://www.w3.org/2000/svg" xmlns:xlink="http://www.w3.org/1999/xlink">
    <title>130</title>
    <g id="Page-1" stroke="none" stroke-width="1" fill="none" fill-rule="evenodd">
        <g id="130" fill="currentColor">
            <path d="M88.77725,44.792 L87.07065,45.627 L85.35335,46.467 L83.67405,47.32 L81.99475,48.172 L80.35305,49.036 L78.71245,49.9 L77.10585,50.774 L75.49835,51.649 L73.92815,52.534 L72.35785,53.42 L70.82485,54.317 L69.29276,55.213 L67.79429,56.119 L66.2948,57.025 L64.83207,57.942 L63.36936,58.859 L61.9432,59.786 L60.51811,60.712 L59.12609,61.647 L57.73303,62.583 L56.37616,63.529 L55.01932,64.474 L53.69848,65.429 L52.37873,66.383 L51.09154,67.346 L49.8033,68.309 L48.5507,69.281 L47.29814,70.253 L46.08105,71.234 L44.86513,72.214 L43.68126,73.202 L42.49634,74.19 L41.3465,75.187 L40.19673,76.183 L39.08183,77.188 L37.96808,78.191 L36.88587,79.201 L35.80263,80.212 L34.75392,81.231 L33.70529,82.25 L32.69099,83.275 L31.67785,84.3 L30.69575,85.33 L29.71265,86.362 L28.76353,87.401 L27.81473,88.439 L26.89976,89.484 L25.98597,90.528 L25.10272,91.577 L24.21853,92.627 L23.36776,93.683 L22.51714,94.739 L21.69975,95.8 L20.88352,96.861 L20.09735,97.925 L19.3103,98.992 L18.55613,100.063 L17.80213,101.134 L17.08083,102.21 L16.36067,103.284 L15.67006,104.362 L14.97866,105.442 L14.31961,106.526 L13.66077,107.61 L13.03445,108.698 L12.40922,109.784 L11.81307,110.874 L11.21622,111.965 L10.65119,113.059 L10.08639,114.154 L9.55322,115.251 L9.02107,116.347 L8.51751,117.445 L8.01337,118.545 L7.54052,119.647 L7.06792,120.749 L6.62641,121.854 L6.18584,122.956 L5.77336,124.06 L5.36044,125.166 L4.97826,126.274 L4.59636,127.382 L4.245,128.491 L3.89449,129.598 L3.57177,130.705 L3.24929,131.815 L2.957,132.926 L2.665,134.037 L2.403,135.148 L2.14173,136.257 L1.90754,137.366 L1.67321,138.477 L1.46853,139.588 L1.26414,140.698 L1.0892,141.809 L0.91484,142.917 L0.76705,144.025 L0.61928,145.134 L0.50059,146.243 L0.3822,147.351 L0.29268,148.458 L0.20359,149.563 L0.14057,150.666 L0.0777,151.772 L0.04334,152.875 L0.00927,153.979 L0,155.08 L0,156.179 L0.02202,157.276 L0.04433,158.374 L0.09457,159.47 L0.14508,160.566 L0.22331,161.658 L0.30164,162.749 L0.40498,163.836 L0.50873,164.925 L0.63982,166.01 L0.77115,167.096 L0.92961,168.177 L1.08801,169.256 L1.27089,170.332 L1.45427,171.409 L1.66441,172.481 L1.87475,173.554 L2.11164,174.621 L2.34831,175.687 L2.60891,176.748 L2.87012,177.81 L3.15748,178.867 L3.44478,179.924 L3.75622,180.976 L4.06734,182.027 L4.40186,183.071 L4.73707,184.118 L5.09784,185.158 L5.45879,186.198 L5.84508,187.232 L6.23092,188.264 L6.63961,189.289 L7.04907,190.317 L7.4835,191.337 L7.91807,192.357 L8.37739,193.37 L8.83614,194.381 L9.3172,195.386 L9.7991,196.392 L10.30537,197.39 L10.81175,198.388 L11.34229,199.377 L11.87216,200.366 L12.42379,201.346 L12.97632,202.328 L13.55255,203.302 L14.12886,204.275 L14.7287,205.24 L15.32781,206.203 L15.94814,207.157 L16.56941,208.113 L17.21385,209.06 L17.85837,210.006 L18.52584,210.943 L19.19251,211.878 L19.87984,212.805 L20.56817,213.732 L21.27905,214.649 L21.99002,215.566 L22.72333,216.473 L23.45578,217.379 L24.20836,218.274 L24.96196,219.171 L25.73753,220.057 L26.51317,220.942 L27.31056,221.816 L28.10707,222.689 L28.92369,223.552 L29.74135,224.415 L30.58037,225.266 L31.41945,226.117 L32.27967,226.956 L33.13894,227.794 L34.01725,228.621 L34.89663,229.448 L35.79677,230.263 L36.69696,231.078 L37.61771,231.88 L38.53747,232.681 L39.47574,233.47 L40.41509,234.26 L41.37462,235.037 L42.33418,235.813 L43.31371,236.576 L44.29224,237.338 L45.28874,238.087 L46.28633,238.837 L47.30375,239.572 L48.32135,240.307 L49.35832,241.028 L50.39426,241.747 L51.44764,242.454 L52.50209,243.161 L53.57553,243.853 L54.64901,244.544 L55.74125,245.221 L56.83247,245.897 L57.94059,246.559 L59.04978,247.221 L60.17738,247.868 L61.305,248.514 L62.45083,249.144 L63.5956,249.774 L64.75674,250.389 L65.91897,251.004 L67.099,251.603 L68.2791,252.202 L69.47683,252.784 L70.67355,253.365 L71.88605,253.93 L73.09965,254.496 L74.33045,255.045 L75.56125,255.594 L76.80915,256.124 L78.05595,256.655 L79.31815,257.169 L80.58125,257.684 L81.86115,258.18 L83.14095,258.676 L84.43725,259.154 L85.73255,259.631 L87.04255,260.092 L88.35365,260.552 L89.68075,260.994 L91.00785,261.436 L92.35065,261.859 L93.69235,262.282 L95.04835,262.687 L96.40535,263.092 L97.77785,263.478 L99.15045,263.864 L100.53825,264.229 L101.92505,264.595 L103.32565,264.941 L104.72725,265.288 L106.14375,265.615 L107.56025,265.941 L108.99145,266.247 L110.42165,266.552 L111.86505,266.839 L113.30955,267.125 L114.76835,267.39 L116.22695,267.655 L117.69975,267.899 L119.17155,268.143 L120.65605,268.367 L122.14165,268.591 L123.64085,268.793 L125.14025,268.995 L126.65305,269.174 L128.16495,269.354 L129.68895,269.512 L131.21395,269.671 L132.75215,269.807 L134.29045,269.943 L135.84165,270.055 L137.39185,270.168 L138.95375,270.259 L140.51655,270.351 L142.09195,270.419 L143.66745,270.487 L145.25525,270.531 L146.84215,270.575 L148.44015,270.598 L150.03915,270.62 L151.65015,270.617 L153.26125,270.615 L154.88405,270.587 L156.50605,270.56 L158.13855,270.51 L159.77195,270.46 L161.41695,270.384 L163.06185,270.309 L164.71805,270.208 L166.37335,270.107 L168.03865,269.982 L169.70485,269.858 L171.38205,269.707 L173.05925,269.556 L174.74705,269.379 L176.43385,269.202 L178.13035,269.001 L179.82765,268.799 L181.53535,268.571 L183.24295,268.342 L184.96075,268.087 L186.67755,267.831 L188.40335,267.551 L190.13005,267.27 L191.86635,266.961 L193.60275,266.652 L195.34855,266.315 L197.09355,265.978 L198.84695,265.616 L200.60125,265.253 L202.36465,264.862 L204.12805,264.471 L205.90035,264.051 L207.67175,263.631 L209.45115,263.185 L211.23135,262.739 L213.02015,262.263 L214.80865,261.786 L216.60545,261.28 L218.40145,260.774 L220.20475,260.241 L222.00895,259.708 L223.82105,259.144 L225.63315,258.581 L227.45295,257.987 L229.27195,257.393 L231.09785,256.772 L232.92445,256.15 L234.75845,255.498 L236.59245,254.845 L238.43335,254.16 L240.27335,253.476 L242.11975,252.763 L243.96685,252.05 L245.82075,251.305 L247.67175,250.562 L248.60905,250.17 L249.53505,249.784 L250.46105,249.397 L251.39465,249.007 L252.33115,248.603 L253.26015,248.202 L254.18905,247.8 L255.12625,247.396 L256.06655,246.975 L256.99865,246.557 L257.93065,246.14 L258.87095,245.719 L259.81405,245.281 L260.74905,244.847 L261.68415,244.413 L262.62655,243.976 L263.57145,243.523 L264.50915,243.075 L265.44695,242.626 L266.39255,242.173 L267.34085,241.704 L268.28145,241.238 L269.22205,240.773 L270.17035,240.303 L271.12135,239.817 L272.06475,239.335 L273.00805,238.853 L273.95835,238.367 L274.91095,237.866 L275.85665,237.368 L276.80245,236.87 L277.75565,236.369 L278.71135,235.85 L279.65965,235.336 L280.60795,234.821 L281.56365,234.303 L282.52185,233.767 L283.47275,233.236 L284.42365,232.704 L285.38105,232.169 L286.34065,231.618 L287.29365,231.071 L288.24675,230.524 L289.20685,229.972 L290.16925,229.404 L291.12455,228.839 L292.07995,228.274 L293.04225,227.705 L294.00655,227.119 L294.96405,226.537 L295.92165,225.955 L296.88535,225.369 L297.85085,224.767 L298.81025,224.169 L299.76975,223.57 L300.73585,222.968 L301.70375,222.348 L302.66535,221.732 L303.62715,221.116 L304.59545,220.497 L305.56555,219.859 L306.52925,219.226 L307.49295,218.592 L308.46245,217.955 L309.43355,217.301 L310.39895,216.651 L311.36425,216.001 L312.33585,215.347 L313.30915,214.675 L314.27615,214.007 L315.24325,213.339 L316.21645,212.667 L317.19125,211.976 L318.15985,211.289 L319.12855,210.603 L320.10275,209.913 L321.07825,209.206 L322.04825,208.502 L323.01835,207.799 L323.99455,207.092 L324.97215,206.366 L325.94375,205.645 L326.91545,204.923 L327.89305,204.197 L328.87175,203.453 L329.84475,202.712 L330.81785,201.972 L331.79605,201.228 L332.77535,200.466 L333.74945,199.709 L334.72355,198.951 L335.70335,198.19 L336.68415,197.409 L337.65945,196.632 L338.63475,195.856 L339.61555,195.075 L340.59735,194.275 L341.57365,193.479 L342.54995,192.684 L343.53145,191.885 L344.51365,191.068 L345.49105,190.255 L346.46845,189.442 L347.45115,188.625 L348.43465,187.788 L349.41285,186.956 L350.39115,186.123 L351.37455,185.287 L352.35875,184.43 L353.33775,183.579 L354.31675,182.727 L355.30385,181.868 L356.11865,181.131 L356.93765,180.39 L357.75295,179.608 L358.56755,178.825 L359.37735,178.003 L360.18555,177.182 L360.98855,176.326 L361.79205,175.468 L362.58895,174.574 L363.38525,173.68 L364.17385,172.75 L364.96125,171.821 L365.74065,170.861 L366.52055,169.901 L367.29075,168.907 L368.06065,167.914 L368.81965,166.889 L369.57775,165.866 L370.32505,164.815 L371.07285,163.764 L371.80785,162.684 L372.54265,161.605 L373.26355,160.498 L373.98355,159.393 L374.69015,158.264 L375.39715,157.135 L376.08805,155.982 L376.77885,154.828 L377.45265,153.653 L378.12575,152.478 L378.78255,151.284 L379.43965,150.09 L380.07785,148.876 L380.71585,147.662 L381.33385,146.43 L381.95115,145.199 L382.54935,143.953 L383.14795,142.706 L383.72435,141.443 L384.30075,140.181 L384.85385,138.906 L385.40655,137.631 L385.93715,136.346 L386.46805,135.059 L386.97345,133.761 L387.47865,132.464 L387.95735,131.157 L388.43575,129.851 L388.88915,128.539 L389.34285,127.225 L389.76825,125.905 L390.19355,124.585 L390.58935,123.26 L390.98475,121.937 L391.35235,120.61 L391.72035,119.282 L392.05665,117.953 L392.39305,116.623 L392.69665,115.293 L392.99995,113.964 L393.27255,112.636 L393.54545,111.306 L393.78335,109.98 L394.02115,108.652 L394.22305,107.33 L394.42465,106.008 L394.59275,104.691 L394.76095,103.373 L394.89125,102.062 L395.02125,100.75 L395.11235,99.448 L395.20305,98.146 L395.25745,96.854 L395.31165,95.559 L395.32475,94.276 L395.33755,92.993 L395.30805,91.722 L395.27835,90.454 L395.20925,89.198 L395.13975,87.94 L395.02585,86.698 L394.91155,85.456 L394.75175,84.231 L394.59245,83.013 L394.39975,81.796 L394.18375,80.593 L393.94395,79.401 L393.68185,78.219 L393.39475,77.046 L393.08295,75.886 L392.74825,74.736 L392.38745,73.598 L392.00125,72.472 L391.59125,71.359 L391.15435,70.257 L390.69055,69.169 L390.02775,67.706 L389.36365,66.241 L388.67375,64.811 L387.98375,63.382 L387.26855,61.989 L386.55405,60.598 L385.81695,59.238 L385.07915,57.878 L384.31665,56.553 L383.55395,55.228 L382.76715,53.939 L381.98075,52.651 L381.17285,51.395 L380.36395,50.138 L379.53155,48.916 L378.69895,47.694 L377.84335,46.507 L376.98835,45.32 L376.11265,44.165 L375.23605,43.01 L374.33705,41.888 L373.43815,40.766 L372.51735,39.678 L371.59735,38.592 L370.65765,37.536 L369.71695,36.479 L368.75505,35.455 L367.79295,34.432 L366.80995,33.442 L365.82795,32.453 L364.82725,31.494 L363.82555,30.534 L362.80365,29.607 L361.78165,28.68 L360.74005,27.785 L359.69935,26.892 L358.64105,26.028 L357.58175,25.163 L356.50335,24.33 L355.42505,23.497 L354.32825,22.696 L353.23255,21.895 L352.12035,21.124 L351.00695,20.351 L349.87565,19.61 L348.74445,18.869 L347.59585,18.159 L346.44835,17.45 L345.28535,16.769 L344.12125,16.087 L342.94045,15.436 L341.75975,14.785 L340.56265,14.164 L339.36685,13.544 L338.15655,12.951 L336.94525,12.358 L335.71835,11.794 L334.49145,11.23 L333.24955,10.696 L332.00875,10.163 L330.75465,9.655 L329.49945,9.148 L328.22985,8.67 L326.96035,8.191 L325.67685,7.741 L324.39465,7.292 L323.09995,6.869 L321.80435,6.445 L320.49545,6.049 L319.18665,5.654 L317.86505,5.286 L316.54465,4.918 L315.21285,4.576 L313.88015,4.234 L312.53525,3.918 L311.19055,3.603 L309.83405,3.316 L308.47875,3.028 L307.11305,2.765 L305.74655,2.502 L304.36905,2.265 L302.99165,2.028 L301.60365,1.817 L300.21685,1.607 L298.82065,1.42 L297.42365,1.233 L296.01675,1.072 L294.61005,0.911 L293.19395,0.775 L291.77885,0.64 L290.35535,0.527 L288.93125,0.414 L287.49825,0.327 L286.06545,0.239 L284.62435,0.176 L283.18415,0.114 L281.73675,0.073 L280.28855,0.033 L278.83285,0.016 L277.37715,0 L275.91435,0.007 L274.45245,0.014 L272.98425,0.043 L271.51535,0.072 L270.03995,0.124 L268.56475,0.176 L267.08345,0.251 L265.60295,0.326 L264.11715,0.422 L262.63085,0.518 L261.13915,0.636 L259.64755,0.755 L258.15085,0.895 L256.65505,1.036 L255.15505,1.197 L253.65445,1.357 L252.14945,1.54 L250.64465,1.722 L249.13595,1.926 L247.62805,2.13 L246.11685,2.353 L244.60515,2.576 L243.09025,2.82 L241.57545,3.063 L240.05785,3.328 L238.54095,3.592 L237.02185,3.875 L235.50225,4.158 L233.98055,4.462 L232.45895,4.765 L230.93575,5.088 L229.41305,5.411 L227.88925,5.751 L226.36495,6.092 L224.83965,6.452 L223.31445,6.812 L221.78865,7.191 L220.26355,7.57 L218.73815,7.966 L217.21235,8.362 L215.68665,8.777 L214.16095,9.192 L212.63585,9.625 L211.11135,10.057 L209.58765,10.506 L208.06355,10.955 L206.54055,11.422 L205.01775,11.889 L203.49655,12.374 L201.97585,12.858 L200.45695,13.358 L198.93775,13.858 L197.42075,14.375 L195.90395,14.891 L194.38975,15.425 L192.87615,15.958 L191.36535,16.507 L189.85405,17.055 L188.34605,17.619 L186.83805,18.183 L185.33395,18.762 L183.83035,19.342 L182.33045,19.936 L180.83025,20.53 L179.33455,21.139 L177.83895,21.748 L176.34825,22.373 L174.85805,22.997 L173.37265,23.635 L171.88685,24.273 L170.40675,24.925 L168.92665,25.577 L167.45255,26.244 L165.97885,26.91 L164.51095,27.589 L163.04265,28.269 L161.58115,28.962 L160.11965,29.655 L158.66535,30.361 L157.21145,31.068 L155.76435,31.786 L154.31695,32.505 L152.87735,33.236 L151.43775,33.968 L150.00655,34.712 L148.57565,35.456 L147.15265,36.212 L145.72925,36.968 L144.31475,37.735 L142.90025,38.503 L141.49515,39.283 L140.09035,40.062 L138.69455,40.852 L137.29825,41.643 L135.91215,42.445 L134.52595,43.246 L133.15035,44.059 L131.77505,44.872 L130.40965,45.695 L129.04385,46.518 L127.68925,47.351 L126.33475,48.185 L124.99175,49.029 L123.64975,49.874 L122.31935,50.729 L120.98865,51.584 L119.67035,52.449 L118.35195,53.315 L117.04635,54.189 L115.74105,55.064 L114.44775,55.947 L113.15405,56.83 L111.87375,57.723 L110.59355,58.615 L109.32705,59.516 L108.06105,60.417 L106.80795,61.326 L105.55445,62.235 L104.31545,63.152 L103.07685,64.07 L101.85335,64.996 L100.63015,65.922 L99.42095,66.854 L98.21135,67.787 L97.01745,68.728 L95.82355,69.668 L94.64565,70.616 L93.46815,71.564 L92.30565,72.517 L91.14275,73.472 L89.99655,74.432 L88.85045,75.393 L87.72155,76.361 L86.59285,77.328 L85.48025,78.3 L84.36685,79.273 L83.27045,80.251 L82.17415,81.228 L81.09605,82.212 L80.01835,83.195 L78.95755,84.183 L77.89645,85.171 L76.85425,86.165 L75.81205,87.158 L74.78925,88.157 L73.76685,89.155 L72.76235,90.157 L71.75745,91.16 L70.77265,92.168 L69.78787,93.175 L68.82357,94.186 L67.8596,95.197 L66.91454,96.212 L65.96875,97.227 L65.04417,98.245 L64.11956,99.264 L63.21656,100.286 L62.31389,101.307 L61.4312,102.331 L60.54812,103.356 L59.68736,104.384 L58.82657,105.412 L57.98851,106.442 L57.15078,107.472 L56.33403,108.504 L55.51691,109.537 L54.72321,110.572 L53.92949,111.607 L53.15961,112.643 L52.39007,113.68 L51.64253,114.717 L50.89446,115.756 L50.17085,116.795 L49.44722,117.835 L48.74855,118.876 L48.05022,119.916 L47.37491,120.957 L46.69921,121.999 L46.04917,123.041 L45.39912,124.083 L44.77514,125.126 L44.15152,126.168 L43.55194,127.211 L42.95197,128.254 L42.37879,129.296 L41.80561,130.34 L41.25963,131.382 L40.71401,132.424 L40.19344,133.465 L39.67252,134.508 L39.17952,135.549 L38.6865,136.591 L38.22167,137.631 L37.75722,138.67 L37.31884,139.708 L36.88015,140.748 L36.47052,141.785 L36.06091,142.823 L35.68078,143.859 L35.30101,144.894 L34.94835,145.927 L34.59544,146.961 L34.27272,147.992 L33.95007,149.024 L33.65804,150.053 L33.36637,151.081 L33.10285,152.107 L32.83916,153.134 L32.60682,154.157 L32.37459,155.181 L32.17413,156.201 L31.97401,157.221 L31.8031,158.236 L31.63212,159.254 L31.49361,160.267 L31.35509,161.28 L31.2495,162.289 L31.14386,163.301 L30.99424,165.306 L30.91193,167.307 L30.89826,169.297 L30.94771,171.277 L31.06736,173.248 L31.2579,175.205 L31.51375,177.151 L31.8423,179.086 L32.24392,181.006 L32.71292,182.913 L33.25706,184.806 L33.87632,186.683 L34.56493,188.544 L35.33098,190.391 L36.1741,192.218 L37.08593,194.025 L37.58526,194.926 L38.08236,195.823 L38.61905,196.71 L39.15522,197.596 L39.72765,198.473 L40.30107,199.351 L40.91472,200.219 L41.52858,201.087 L42.18305,201.945 L42.83685,202.801 L43.52786,203.648 L44.21987,204.495 L44.95313,205.331 L45.68654,206.168 L46.46159,206.993 L47.23585,207.817 L48.04828,208.631 L48.86167,209.445 L49.71736,210.248 L50.57312,211.051 L51.47158,211.841 L52.36918,212.631 L53.30591,213.41 L54.24354,214.189 L55.22454,214.955 L56.20556,215.722 L57.23033,216.476 L58.25422,217.229 L59.31821,217.971 L60.38305,218.712 L61.49233,219.441 L62.60159,220.17 L63.75568,220.885 L64.90053,221.594 C65.29215,221.837 65.80632,221.716 66.04899,221.324 C66.29164,220.933 66.17089,220.419 65.77928,220.176 L64.6345,219.466 L63.49896,218.763 L62.40852,218.046 L61.3181,217.33 L60.27237,216.601 L59.22579,215.872 L58.21949,215.131 L57.21408,214.392 L56.25262,213.64 L55.29114,212.889 L54.3732,212.125 L53.45434,211.362 L52.57473,210.588 L51.69597,209.814 L50.86001,209.03 L50.02397,208.246 L49.23031,207.451 L48.43567,206.655 L47.67922,205.849 L46.92355,205.045 L46.2095,204.23 L45.49531,203.416 L44.82232,202.591 L44.14832,201.765 L43.51143,200.931 L42.87521,200.097 L42.27942,199.255 L41.68342,198.412 L41.12741,197.56 L40.57041,196.707 L40.04944,195.845 L39.529,194.985 L39.04778,194.116 L38.56878,193.252 L37.67997,191.491 L36.86297,189.72 L36.1221,187.934 L35.45534,186.13 L34.85572,184.313 L34.32969,182.482 L33.87564,180.635 L33.48665,178.775 L33.16887,176.902 L32.92104,175.015 L32.73631,173.116 L32.62051,171.206 L32.57271,169.282 L32.58615,167.347 L32.66633,165.403 L32.81297,163.443 L32.9156,162.463 L33.01828,161.481 L33.15351,160.494 L33.28874,159.506 L33.45616,158.515 L33.62364,157.522 L33.82005,156.525 L34.01611,155.529 L34.24365,154.529 L34.47107,153.529 L34.72958,152.525 L34.98826,151.52 L35.27489,150.512 L35.56116,149.505 L35.87784,148.495 L36.19443,147.484 L36.54104,146.471 L36.88791,145.456 L37.26175,144.439 L37.63523,143.423 L38.03802,142.404 L38.44078,141.386 L38.87246,140.365 L39.30447,139.343 L39.76246,138.32 L40.22008,137.297 L40.70607,136.272 L41.19207,135.248 L41.70591,134.222 L42.2201,133.196 L42.75929,132.168 L43.29811,131.141 L43.86407,130.114 L44.43004,129.086 L45.02274,128.057 L45.61582,127.028 L46.2329,125.999 L46.84961,124.97 L47.49237,123.942 L48.13514,122.913 L48.80355,121.884 L49.47234,120.855 L50.16413,119.827 L50.85556,118.799 L51.57193,117.771 L52.28832,116.744 L53.02932,115.718 L53.77086,114.691 L54.53437,113.665 L55.29754,112.64 L56.08454,111.617 L56.87156,110.594 L57.682,109.572 L58.49283,108.55 L59.32463,107.53 L60.15609,106.51 L61.01027,105.493 L61.86447,104.476 L62.74099,103.461 L63.61788,102.446 L64.51474,101.434 L65.41126,100.422 L66.3294,99.414 L67.24755,98.405 L68.1869,97.4 L69.12698,96.394 L70.08605,95.392 L71.04485,94.391 L72.02405,93.394 L73.00335,92.396 L74.00265,91.403 L75.00235,90.409 L76.02005,89.42 L77.03735,88.431 L78.07405,87.447 L79.11075,86.462 L80.16645,85.483 L81.22245,84.504 L82.29545,83.529 L83.36805,82.555 L84.45895,81.586 L85.54985,80.617 L86.65945,79.655 L87.76965,78.694 L88.89585,77.737 L90.02175,76.782 L91.16475,75.832 L92.30775,74.883 L93.46745,73.94 L94.62745,72.997 L95.80245,72.06 L96.97705,71.124 L98.16765,70.195 L99.35825,69.265 L100.56445,68.344 L101.77105,67.422 L102.99145,66.507 L104.21155,65.592 L105.44645,64.685 L106.68095,63.778 L107.92995,62.879 L109.17935,61.98 L110.44165,61.088 L111.70355,60.197 L112.97925,59.315 L114.25485,58.432 L115.54395,57.559 L116.83335,56.685 L118.13465,55.82 L119.43555,54.955 L120.74915,54.1 L122.06265,53.244 L123.38855,52.399 L124.71465,51.553 L126.05095,50.715 L127.38625,49.876 L128.73315,49.048 L130.08005,48.22 L131.43815,47.402 L132.79655,46.585 L134.16485,45.777 L135.53275,44.969 L136.91105,44.172 L138.28945,43.376 L139.67785,42.59 L141.06665,41.805 L142.46435,41.03 L143.86155,40.255 L145.26815,39.493 L146.67475,38.73 L148.09035,37.98 L149.50635,37.229 L150.93015,36.49 L152.35365,35.751 L153.78525,35.024 L155.21695,34.298 L156.65635,33.584 L158.09625,32.871 L159.54285,32.169 L160.98905,31.468 L162.44245,30.78 L163.89575,30.092 L165.35575,29.417 L166.81615,28.743 L168.28235,28.081 L169.74825,27.42 L171.22015,26.773 L172.69205,26.126 L174.16955,25.494 L175.64735,24.861 L177.13005,24.242 L178.61215,23.623 L180.09925,23.019 L181.58625,22.415 L183.07775,21.826 L184.56965,21.237 L186.06535,20.663 L187.56045,20.088 L189.05945,19.53 L190.55835,18.971 L192.06075,18.429 L193.56365,17.887 L195.06935,17.36 L196.57445,16.832 L198.08225,16.322 L199.58995,15.812 L201.09995,15.318 L202.61035,14.824 L204.12245,14.346 L205.63395,13.868 L207.14705,13.407 L208.66005,12.947 L210.17425,12.504 L211.68885,12.061 L213.20405,11.634 L214.71875,11.207 L216.23395,10.799 L217.74895,10.39 L219.26395,10 L220.77945,9.61 L222.29465,9.236 L223.80925,8.863 L225.32315,8.509 L226.83685,8.155 L228.34955,7.82 L229.86265,7.485 L231.37455,7.167 L232.88565,6.85 L234.39505,6.552 L235.90425,6.255 L237.41125,5.977 L238.91875,5.699 L240.42395,5.44 L241.92835,5.181 L243.42995,4.942 L244.93125,4.703 L246.42935,4.485 L247.92795,4.266 L249.42315,4.067 L250.91765,3.868 L252.40815,3.69 L253.89845,3.513 L255.38425,3.356 L256.87065,3.2 L258.35275,3.063 L259.83395,2.927 L261.31005,2.812 L262.78595,2.698 L264.25625,2.605 L265.72725,2.512 L267.19275,2.44 L268.65745,2.368 L270.11585,2.319 L271.57415,2.269 L273.02575,2.243 L274.47795,2.217 L275.92385,2.212 L277.36865,2.207 L278.80625,2.225 L280.24355,2.243 L281.67315,2.285 L283.10335,2.328 L284.52625,2.392 L285.94815,2.456 L287.36145,2.544 L288.77465,2.631 L290.17895,2.744 L291.58405,2.856 L292.98075,2.991 L294.37635,3.126 L295.76245,3.286 L297.14825,3.446 L298.52405,3.631 L299.90075,3.816 L301.26795,4.024 L302.63415,4.233 L303.98955,4.467 L305.34475,4.701 L306.68895,4.961 L308.03395,5.221 L309.36855,5.506 L310.70205,5.789 L312.02365,6.1 L313.34525,6.41 L314.65455,6.747 L315.96485,7.084 L317.26375,7.446 L318.56145,7.807 L319.84625,8.196 L321.13085,8.585 L322.40215,9.001 L323.67455,9.417 L324.93445,9.859 L326.19315,10.301 L327.43785,10.77 L328.68245,11.239 L329.91265,11.737 L331.14395,12.235 L332.36175,12.76 L333.57845,13.283 L334.77995,13.836 L335.98145,14.388 L337.16745,14.969 L338.35455,15.551 L339.52735,16.16 L340.69885,16.768 L341.85415,17.405 L343.00955,18.043 L344.14825,18.71 L345.28815,19.378 L346.41275,20.073 L347.53605,20.768 L348.64225,21.493 L349.74835,22.218 L350.83685,22.973 L351.92645,23.73 L352.99975,24.514 L354.07205,25.297 L355.12585,26.112 L356.17965,26.927 L357.21475,27.773 L358.25095,28.62 L359.26975,29.496 L360.28765,30.371 L361.28615,31.278 L362.28465,32.185 L363.26345,33.125 L364.24335,34.065 L365.20485,35.034 L366.16555,36.003 L367.10575,37.005 L368.04605,38.006 L368.96545,39.041 L369.88595,40.076 L370.78705,41.142 L371.68745,42.207 L372.56615,43.306 L373.44485,44.404 L374.30145,45.537 L375.15905,46.671 L375.99635,47.836 L376.83305,49 L377.64695,50.198 L378.46115,51.396 L379.25215,52.629 L380.04405,53.863 L380.81465,55.129 L381.58475,56.394 L382.33105,57.695 L383.07745,58.995 L383.79965,60.331 L384.52275,61.668 L385.22345,63.037 L385.92325,64.406 L386.59815,65.811 L387.27315,67.216 L387.92285,68.657 L388.57385,70.101 L389.01225,71.136 L389.42565,72.184 L389.81475,73.248 L390.18155,74.323 L390.52345,75.41 L390.84165,76.511 L391.13825,77.623 L391.41075,78.746 L391.66015,79.882 L391.88845,81.028 L392.09355,82.183 L392.27535,83.345 L392.42795,84.532 L392.58005,85.712 L392.68755,86.911 L392.79545,88.11 L392.85995,89.325 L392.92475,90.543 L392.95095,91.775 L392.97735,93.006 L392.96225,94.25 L392.94735,95.495 L392.89195,96.752 L392.83675,98.011 L392.74555,99.28 L392.65475,100.548 L392.52535,101.825 L392.39605,103.102 L392.22935,104.387 L392.06265,105.675 L391.86275,106.967 L391.66315,108.259 L391.42805,109.555 L391.19325,110.852 L390.92415,112.152 L390.65485,113.453 L390.35525,114.756 L390.05605,116.058 L389.72445,117.361 L389.39285,118.663 L389.02995,119.965 L388.66685,121.267 L388.27615,122.567 L387.88595,123.867 L387.46635,125.162 L387.04685,126.457 L386.59925,127.746 L386.15125,129.037 L385.67855,130.32 L385.20635,131.603 L384.70795,132.877 L384.20975,134.152 L383.68695,135.416 L383.16365,136.681 L382.61855,137.936 L382.07395,139.189 L381.50635,140.429 L380.93875,141.67 L380.34925,142.895 L379.75935,144.122 L379.15045,145.334 L378.54215,146.544 L377.91395,147.737 L377.28585,148.931 L376.63895,150.104 L375.99165,151.279 L375.32815,152.434 L374.66535,153.589 L373.98585,154.721 L373.30645,155.854 L372.61165,156.962 L371.91635,158.072 L371.20775,159.158 L370.49995,160.244 L369.77865,161.302 L369.05745,162.361 L368.32385,163.391 L367.58975,164.422 L366.84535,165.426 L366.10175,166.429 L365.34795,167.401 L364.59425,168.372 L363.83145,169.31 L363.06805,170.25 L362.29725,171.158 L361.52765,172.065 L360.75085,172.936 L359.97445,173.807 L359.19205,174.64 L358.40915,175.475 L357.62175,176.274 L356.83595,177.072 L356.04615,177.829 L355.25705,178.587 L354.46515,179.302 L353.66925,180.021 L352.69805,180.866 L351.71875,181.717 L350.73935,182.569 L349.76525,183.416 L348.79185,184.243 L347.81335,185.075 L346.83475,185.907 L345.86145,186.734 L344.88915,187.542 L343.91145,188.355 L342.93375,189.167 L341.96095,189.976 L340.98905,190.767 L340.01205,191.561 L339.03505,192.356 L338.06345,193.147 L337.09305,193.918 L336.11715,194.693 L335.14115,195.469 L334.17075,196.24 L333.20155,196.992 L332.22675,197.749 L331.25195,198.505 L330.28225,199.258 L329.31385,199.993 L328.34015,200.733 L327.36655,201.472 L326.39865,202.207 L325.43215,202.924 L324.45985,203.644 L323.48755,204.365 L322.52105,205.081 L321.55615,205.779 L320.58515,206.481 L319.61405,207.183 L318.64845,207.881 L317.68425,208.562 L316.71465,209.247 L315.74495,209.932 L314.78135,210.612 L313.81955,211.275 L312.85145,211.941 L311.88345,212.608 L310.92165,213.27 L309.96155,213.915 L308.99535,214.563 L308.02905,215.211 L307.06845,215.856 L306.10965,216.484 L305.14505,217.116 L304.18045,217.748 L303.22225,218.376 L302.26605,218.986 L301.30335,219.6 L300.34035,220.214 L299.38385,220.823 L298.42945,221.415 L297.46845,222.01 L296.50745,222.606 L295.55245,223.198 L294.59955,223.774 L293.64045,224.353 L292.68135,224.933 L291.72905,225.509 L290.77915,226.067 L289.82225,226.629 L288.86535,227.191 L287.91545,227.749 L286.96795,228.289 L286.01345,228.834 L285.05885,229.379 L284.11075,229.92 L283.16495,230.445 L282.21255,230.974 L281.26025,231.503 L280.31515,232.028 L279.37255,232.536 L278.42255,233.047 L277.47265,233.559 L276.53005,234.067 L275.59015,234.557 L274.64275,235.052 L273.69545,235.547 L272.75485,236.038 L271.81695,236.513 L270.87205,236.993 L269.92715,237.472 L268.98995,237.948 L268.05555,238.406 L267.11355,238.869 L266.17145,239.331 L265.23715,239.79 L264.30585,240.232 L263.36665,240.678 L262.42755,241.124 L261.49555,241.567 L260.56635,241.994 L259.62995,242.425 L258.69345,242.856 L257.76505,243.284 L256.83995,243.695 L255.90665,244.11 L254.97335,244.524 L254.04825,244.936 L253.12645,245.331 L252.19635,245.729 L251.26625,246.128 L250.34375,246.523 L249.42425,246.904 L248.49715,247.288 L247.57005,247.672 L246.65415,248.051 L244.81235,248.785 L242.97345,249.518 L241.14165,250.219 L239.30905,250.92 L237.48305,251.594 L235.65785,252.266 L233.84025,252.909 L232.02275,253.551 L230.21295,254.163 L228.40225,254.775 L226.59865,255.36 L224.79585,255.944 L223.00115,256.498 L221.20645,257.052 L219.41985,257.576 L217.63245,258.1 L215.85275,258.598 L214.07385,259.095 L212.30355,259.563 L210.53345,260.031 L208.77205,260.471 L207.00985,260.911 L205.25585,261.325 L203.50265,261.738 L201.75855,262.123 L200.01445,262.508 L198.27975,262.865 L196.54405,263.222 L194.81705,263.553 L193.09095,263.884 L191.37455,264.188 L189.65815,264.491 L187.95155,264.767 L186.24425,265.044 L184.54605,265.296 L182.84875,265.548 L181.16175,265.773 L179.47465,265.998 L177.79805,266.197 L176.12045,266.395 L174.45265,266.57 L172.78565,266.744 L171.12955,266.892 L169.47345,267.041 L167.82825,267.163 L166.18215,267.286 L164.54625,267.385 L162.91135,267.484 L161.28775,267.558 L159.66415,267.632 L158.05225,267.681 L156.43925,267.73 L154.83695,267.756 L153.23565,267.782 L151.64635,267.784 L150.05695,267.786 L148.47985,267.763 L146.90165,267.741 L145.33465,267.697 L143.76865,267.653 L142.21525,267.585 L140.66175,267.517 L139.12095,267.425 L137.57925,267.333 L136.04935,267.22 L134.52035,267.107 L133.00455,266.971 L131.48875,266.835 L129.98615,266.677 L128.48265,266.518 L126.99135,266.339 L125.50105,266.16 L124.02455,265.959 L122.54795,265.758 L121.08525,265.535 L119.62145,265.313 L118.17055,265.07 L116.72055,264.828 L115.28495,264.564 L113.84935,264.3 L112.42825,264.015 L111.00615,263.729 L109.59735,263.425 L108.18955,263.121 L106.79665,262.797 L105.40375,262.472 L104.02585,262.128 L102.64685,261.783 L101.28175,261.42 L99.91765,261.057 L98.56905,260.675 L97.22035,260.292 L95.88735,259.891 L94.55325,259.489 L93.23345,259.069 L91.91475,258.65 L90.61225,258.212 L89.30975,257.773 L88.02355,257.316 L86.73625,256.858 L85.46385,256.384 L84.19245,255.91 L82.93765,255.418 L81.68285,254.927 L80.44475,254.417 L79.20565,253.907 L77.98195,253.381 L76.75935,252.856 L75.55385,252.313 L74.34835,251.771 L73.16015,251.211 L71.97095,250.651 L70.79765,250.076 L69.62536,249.502 L68.47077,248.911 L67.31613,248.32 L66.17939,247.713 L65.04158,247.106 L63.92022,246.484 L62.79991,245.863 L61.69787,245.226 L60.5958,244.589 L59.51221,243.937 L58.42754,243.284 L57.35983,242.618 L56.29316,241.952 L55.24534,241.272 L54.19748,240.591 L53.16867,239.896 L52.13878,239.201 L51.12637,238.492 L50.11499,237.784 L49.12301,237.062 L48.13085,236.341 L47.15805,235.606 L46.18416,234.871 L45.22826,234.123 L44.27337,233.376 L43.33843,232.616 L42.40344,231.855 L41.48862,231.082 L40.57274,230.309 L39.67534,229.523 L38.77894,228.739 L37.90306,227.942 L37.02712,227.146 L36.17191,226.337 L35.31565,225.527 L34.47839,224.707 L33.64209,223.887 L32.82687,223.056 L32.01159,222.226 L31.21761,221.383 L30.42258,220.54 L29.64655,219.688 L28.87139,218.836 L28.11787,217.974 L27.36428,217.112 L26.63252,216.239 L25.89974,215.365 L25.18699,214.482 L24.47509,213.601 L23.78539,212.709 L23.0956,211.817 L22.4282,210.916 L21.75982,210.013 L21.11197,209.102 L20.46492,208.192 L19.84062,207.273 L19.21622,206.354 L18.61477,205.427 L18.01237,204.498 L17.431,203.561 L16.85037,202.625 L16.29305,201.681 L15.73564,200.738 L15.20179,199.786 L14.66705,198.833 L14.15385,197.872 L13.6413,196.914 L13.1526,195.947 L12.66377,194.981 L12.199,194.008 L11.73339,193.033 L11.28981,192.051 L10.8468,191.072 L10.42819,190.085 L10.00943,189.099 L9.61527,188.106 L9.22034,187.111 L8.84795,186.111 L8.47602,185.113 L8.12903,184.108 L7.78188,183.104 L7.45989,182.094 L7.13718,181.083 L6.83753,180.066 L6.53821,179.051 L6.26619,178.031 L5.99423,177.01 L5.74798,175.985 L5.50113,174.958 L5.27785,173.927 L5.05477,172.897 L4.85776,171.864 L4.66054,170.83 L4.48959,169.792 L4.31813,168.753 L4.17074,167.71 L4.0234,166.669 L3.90269,165.624 L3.78174,164.58 L3.68762,163.532 L3.59309,162.482 L3.52314,161.43 L3.45309,160.379 L3.41023,159.326 L3.36709,158.273 L3.35136,157.217 L3.33534,156.159 L3.34441,155.099 L3.35124,154.041 L3.38582,152.981 L3.42012,151.921 L3.48238,150.859 L3.54449,149.795 L3.63221,148.73 L3.71951,147.667 L3.83514,146.602 L3.95048,145.537 L4.09436,144.471 L4.23824,143.403 L4.40827,142.334 L4.57771,141.267 L4.77609,140.199 L4.97416,139.132 L5.20137,138.063 L5.42873,136.993 L5.68277,135.923 L5.93609,134.855 L6.21893,133.787 L6.50149,132.718 L6.81378,131.65 L7.12584,130.58 L7.46493,129.511 L7.80317,128.443 L8.17155,127.376 L8.53965,126.309 L8.9381,125.242 L9.33699,124.174 L9.76366,123.108 L10.18939,122.043 L10.64585,120.979 L11.10207,119.915 L11.58924,118.853 L12.07699,117.79 L12.59308,116.728 L13.10813,115.668 L13.65454,114.61 L14.20072,113.552 L14.77848,112.496 L15.35693,111.439 L15.96428,110.384 L16.57053,109.331 L17.2084,108.281 L17.84606,107.231 L18.51591,106.184 L19.18656,105.135 L19.88667,104.09 L20.58564,103.046 L21.3172,102.005 L22.04859,100.965 L22.81279,99.929 L23.57788,98.891 L24.37298,97.858 L25.16691,96.825 L25.99405,95.797 L26.82105,94.769 L27.68147,93.746 L28.54284,92.722 L29.43477,91.703 L30.32553,90.684 L31.25004,89.671 L32.17424,88.657 L33.13247,87.65 L34.09169,86.641 L35.08204,85.637 L36.07122,84.635 L37.09482,83.638 L38.11834,82.642 L39.17649,81.652 L40.23568,80.661 L41.32652,79.677 L42.41621,78.693 L43.54093,77.716 L44.66558,76.739 L45.82547,75.769 L46.98641,74.799 L48.17955,73.835 L49.37152,72.872 L50.59906,71.917 L51.82657,70.962 L53.08991,70.015 L54.3543,69.067 L55.65143,68.127 L56.94746,67.187 L58.27971,66.256 L59.61192,65.326 L60.98056,64.404 L62.35024,63.481 L63.75319,62.567 L65.15509,61.653 L66.59379,60.749 L68.03245,59.845 L69.50814,58.95 L70.98485,58.055 L72.49535,57.169 L74.00485,56.284 L75.55175,55.409 L77.09855,54.533 L78.68305,53.669 L80.26855,52.804 L81.88835,51.949 L83.50715,51.094 L85.16395,50.25 L86.82065,49.407 L88.51565,48.575 L90.22125,47.737 C91.03465,47.339 91.37075,46.356 90.97205,45.542 C90.57335,44.729 89.59065,44.393 88.77725,44.792 Z" id="Fill-1"></path>
        </g>
    </g>
</svg>
