<?xml version="1.0" encoding="UTF-8"?>
<svg width="164px" height="54px" viewBox="0 0 164 54" version="1.1" xmlns="http://www.w3.org/2000/svg" xmlns:xlink="http://www.w3.org/1999/xlink">
    <title>138</title>
    <g id="Page-1" stroke="none" stroke-width="1" fill="none" fill-rule="evenodd" stroke-linecap="round" stroke-linejoin="bevel">
        <g id="138" transform="translate(2.991455, 2.632773)" stroke="currentColor" stroke-width="4">
            <path d="M158.036156,0.861126589 C143.461556,-1.68197341 128.398656,1.99462659 113.785356,4.30602659 C79.4527557,9.73642659 46.4436557,21.5686266 12.8079557,30.3360266 C8.81815571,31.3759266 4.36085571,32.5954266 0.470955708,31.2286266 C-1.79684429,30.4318266 4.73755571,28.9036266 7.06915571,28.3195266 C14.3353557,26.4991266 21.7525557,25.3363266 29.1317557,24.0484266 C39.2047557,22.2902266 49.3308557,20.8508266 59.4190557,19.1821266 C82.3218557,15.3938266 105.485156,12.7075266 128.687756,11.9818266 C136.137656,11.7488266 143.594756,11.9003266 151.047856,11.8230266 C152.747456,11.8054266 157.819756,11.9896266 156.145356,11.6974266 C145.454356,9.83192659 134.385656,10.9952266 123.590256,12.1075266 C104.580656,14.0662266 88.8126557,17.8043266 70.0834557,22.0581266 C60.1812557,24.3070266 50.3734557,26.9720266 40.4374557,29.0664266 C32.8021557,30.6759266 24.8650557,30.9277266 17.3897557,33.1657266 C16.3799557,33.4680266 19.4810557,32.8912266 20.5169557,32.6962266 C25.0796557,31.8376266 29.6119557,30.8183266 34.1829557,30.0053266 C41.1370557,28.7684266 48.0968557,27.5502266 55.0885557,26.5474266 C75.5064557,23.6187266 91.0526557,21.8190266 111.848256,21.2248266 C118.586756,21.0323266 125.325256,21.7552266 132.066256,21.7073266 C132.811656,21.7021266 134.949656,20.9875266 134.208456,21.0660266 C107.838756,23.8597266 82.0008557,29.4902266 55.8555557,33.7870266 C48.8857557,34.9324266 41.9237557,36.1244266 34.9499557,37.2449266 C31.8277557,37.7465266 26.1117557,35.5380266 25.5682557,38.6532266 C25.0493557,41.6267266 31.5908557,39.3537266 34.6061557,39.2151266 C40.8267557,38.9293266 46.9953557,37.9394266 53.1977557,37.3836266 C72.8965557,35.6185266 83.4051557,34.8169266 103.531056,33.9851266 C110.323956,33.7043266 117.122256,33.4787266 123.920956,33.4825266 C124.920956,33.4830266 127.816956,33.6587266 126.876356,33.9982266 C116.745756,37.6548266 105.874756,38.8377266 95.2601557,40.6627266 C75.3367557,44.0883266 55.1443557,44.4462266 35.2012557,47.4398266 C34.5419557,47.5388266 36.5082557,47.7161266 37.1714557,47.7836266 C41.1646557,48.1901266 45.1512557,48.8047266 49.1647557,48.8612266 C54.9183557,48.9423266 60.7588557,47.8390266 66.4273557,48.8281266" id="Stroke-320"></path>
        </g>
    </g>
</svg>
