<?xml version="1.0" encoding="UTF-8"?>
<svg width="170px" height="63px" viewBox="0 0 170 63" version="1.1" xmlns="http://www.w3.org/2000/svg" xmlns:xlink="http://www.w3.org/1999/xlink">
    <title>139</title>
    <g id="Page-1" stroke="none" stroke-width="1" fill="none" fill-rule="evenodd" stroke-linecap="round" stroke-linejoin="bevel">
        <g id="139" transform="translate(2.882414, 2.885591)" stroke="currentColor" stroke-width="4">
            <path d="M153.274397,2.0530089 C155.744897,1.4689089 158.186497,0.745408896 160.685897,0.300908896 C162.038997,0.0602088959 166.172597,0.0138088959 164.798197,0.00330889593 C126.406197,-0.288591104 93.6867966,18.8038089 57.2225966,28.9425089 C44.1024966,32.5904089 30.6027966,34.7231089 17.2097966,37.1872089 C11.7142966,38.1983089 5.70129662,37.1083089 0.588396619,39.3625089 C-2.47680338,40.7139089 7.26859662,40.3142089 10.6114966,40.0963089 C18.6083966,39.5751089 26.5217966,38.1591089 34.4723966,37.1541089 C44.5139966,35.8847089 54.6160966,35.0078089 64.5877966,33.2730089 C87.6559966,29.2597089 114.380897,22.0779089 137.373797,17.5504089 C143.579197,16.3285089 149.847897,15.4001089 156.137197,14.7338089 C157.131697,14.6285089 160.065797,15.0194089 159.092597,15.2495089 C149.447697,17.5296089 139.398097,17.8557089 129.790397,20.2876089 C103.437997,26.9579089 77.9758966,34.7043089 51.2193966,40.0763089 C42.8424966,41.7581089 34.4063966,43.1350089 26.0295966,44.8169089 C21.7809966,45.6698089 16.8938966,45.1879089 13.3486966,47.6797089 C10.1566966,49.9232089 21.0141966,46.2093089 24.8724966,45.6301089 C32.4828966,44.4877089 40.1239966,43.5607089 47.7482966,42.5159089 C67.5906966,39.7970089 87.3745966,36.6654089 107.165897,33.5967089 C117.582397,31.9816089 128.052697,30.7054089 138.438297,28.9024089 C141.672897,28.3408089 150.632197,28.4600089 147.991897,26.5090089 C144.935297,24.2503089 140.379997,26.8979089 136.639997,27.5735089 C129.877597,28.7949089 123.205697,30.4876089 116.547597,32.1884089 C93.3420966,38.1163089 70.2900966,43.9903089 46.7169966,48.4266089 C42.5732966,49.2064089 38.2471966,49.0951089 34.2079966,50.3044089 C31.5747966,51.0927089 39.6992966,49.9989089 42.4326966,49.7093089 C49.3541966,48.9760089 56.2389966,47.9112089 63.1663966,47.2365089 C82.0797966,45.3942089 101.101197,44.5083089 119.926197,41.9139089 C127.656197,40.8486089 135.299497,39.2267089 142.973897,37.8147089 C144.739297,37.4898089 150.011597,37.0125089 148.243197,36.7039089 C140.246797,35.3086089 132.145197,38.9201089 124.210397,40.6313089 C116.765797,42.2368089 109.415397,44.2585089 101.975897,45.8875089 C85.2833966,49.5427089 68.5122966,52.9502089 51.5962966,55.3687089 C45.4317966,56.2500089 39.2046966,56.6188089 33.0047966,57.2002089 C31.6363966,57.3285089 30.0167966,56.7074089 28.8923966,57.4977089 C28.0742966,58.0727089 30.8532966,58.1187089 31.8476966,58.0134089 C35.7275966,57.6024089 39.5007966,56.4531089 43.3715966,55.9638089 C48.5054966,55.3148089 53.6775966,55.0142089 58.8358966,54.6017089 C64.3158966,54.1635089 69.8021966,53.8083089 75.2852966,53.4116089" id="Stroke-319"></path>
        </g>
    </g>
</svg>
