<?xml version="1.0" encoding="UTF-8"?>
<svg width="260px" height="110px" viewBox="0 0 260 110" version="1.1" xmlns="http://www.w3.org/2000/svg" xmlns:xlink="http://www.w3.org/1999/xlink">
    <title>140</title>
    <g id="Page-1" stroke="none" stroke-width="1" fill="none" fill-rule="evenodd" stroke-linecap="round" stroke-linejoin="bevel">
        <g id="140" transform="translate(2.972865, 2.318092)" stroke="currentColor" stroke-width="4">
            <path d="M244.966946,0.596708053 C243.457946,0.435408053 241.908246,-0.270991947 240.439946,0.112608053 C228.973646,3.10790805 217.840546,7.26170805 206.484046,10.6494081 C193.536546,14.5117081 180.160846,17.0594081 167.531546,21.8613081 C128.262146,36.7924081 89.7751457,53.7058081 50.9607457,69.7825081 C37.8871457,75.1975081 25.1548457,81.4648081 11.8689457,86.3358081 C8.17614571,87.6897081 4.01614571,87.2515081 0.24704571,88.3758081 C-1.01635429,88.7527081 2.91324571,88.9365081 4.19444571,88.6252081 C10.9644457,86.9802081 17.6399457,84.9164081 24.1952457,82.5570081 C35.2941457,78.5621081 46.0393457,73.6314081 57.1165457,69.5769081 C89.6030457,57.6863081 122.363746,46.4735081 155.506346,36.5578081 C175.318246,30.6305081 195.475846,25.9217081 215.384146,20.3268081 C226.949246,17.0767081 238.335446,13.2060081 249.919646,10.0248081 C251.268146,9.65450805 255.389546,9.14930805 254.101846,9.69450805 C251.758646,10.6868081 249.102646,10.6845081 246.662046,11.4043081 C239.135446,13.6238081 231.737546,16.2639081 224.217946,18.5071081 C213.828446,21.6063081 203.261946,24.1122081 192.940146,27.4296081 C151.617946,40.7107081 110.763546,56.6285081 70.9177457,73.8175081 C60.6278457,78.2564081 50.6344457,83.3668081 40.3149457,87.7366081 C38.9576457,88.3114081 43.0518457,86.6369081 44.3870457,86.0123081 C50.2677457,83.2612081 55.8763457,79.8804081 61.9592457,77.6109081 C71.8121457,73.9348081 82.1309457,71.6326081 92.0778457,68.2188081 C104.080946,64.0993081 115.789946,59.1552081 127.787246,55.0186081 C157.460946,44.7870081 187.254246,34.7667081 217.563446,26.6074081 C222.812446,25.1943081 228.174546,23.9563081 233.602246,23.6575081 C235.227946,23.5680081 230.853746,25.4899081 229.295446,25.9614081 C222.870246,27.9056081 216.147646,28.7934081 209.764146,30.8704081 C199.803146,34.1113081 190.103246,38.1082081 180.335246,41.8914081 C152.429046,52.6994081 124.535246,63.5941081 97.1552457,75.6732081 C85.2751457,80.9142081 73.8542457,87.1522081 62.0108457,92.4759081 C55.4217457,95.4378081 48.6309457,97.9318081 41.8853457,100.517808 C40.6390457,100.995608 36.8189457,102.182908 38.0481457,101.662508 C48.2508457,97.3421081 59.0854457,94.6807081 69.4506457,90.7662081 C99.2567457,79.5095081 128.450546,66.5175081 158.786546,56.7788081 C176.055646,51.2349081 193.650646,46.7425081 211.224446,42.2575081 C221.252846,39.6982081 231.381946,37.5129081 241.563246,35.6535081 C244.041146,35.2010081 249.271946,32.8240081 249.113146,35.3378081 C248.944846,38.0021081 244.034546,37.0045081 241.438546,37.6272081 C233.566746,39.5153081 225.451246,40.4500081 217.725146,42.8664081 C193.231846,50.5269081 169.849846,61.3717081 145.836846,70.4261081 C131.338346,75.8929081 116.618546,80.7755081 102.218046,86.4953081 C92.2167457,90.4678081 82.5741457,95.2937081 72.6645457,99.4899081 C67.6404457,101.617408 62.6285457,103.821208 57.4254457,105.462708 C56.6058457,105.721308 54.0994457,105.479508 54.8721457,105.103208 C58.0638457,103.549108 61.6544457,102.994308 64.9899457,101.779308 C72.4741457,99.0531081 79.8422457,96.0155081 87.3239457,93.2824081 C99.1128457,88.9759081 110.921746,84.7200081 122.798546,80.6618081 C138.332246,75.3542081 153.804446,69.8278081 169.550246,65.1869081 C182.428346,61.3912081 195.579646,58.5925081 208.612746,55.3690081 C215.575846,53.6468081 222.623546,52.2580081 229.538046,50.3500081 C230.262646,50.1500081 232.117446,48.8514081 231.401646,49.0806081 C186.834746,63.3515081 142.448046,78.5177081 98.6964457,95.1898081 C91.2584457,98.0242081 84.1685457,101.728308 76.7073457,104.501108 C74.8639457,105.186208 72.8392457,105.216408 70.8964457,105.521108 C70.1538457,105.637508 72.3982457,105.322408 73.1048457,105.066108 C77.6797457,103.406708 82.1918457,101.578408 86.7150457,99.7831081 C96.1694457,96.0306081 105.617946,92.2589081 114.984646,88.2926081" id="Stroke-318"></path>
        </g>
    </g>
</svg>
