<?xml version="1.0" encoding="UTF-8"?>
<svg width="211px" height="96px" viewBox="0 0 211 96" version="1.1" xmlns="http://www.w3.org/2000/svg" xmlns:xlink="http://www.w3.org/1999/xlink">
    <title>141</title>
    <g id="Page-1" stroke="none" stroke-width="1" fill="none" fill-rule="evenodd" stroke-linecap="round" stroke-linejoin="bevel">
        <g id="141" transform="translate(1.075058, 2.700900)" stroke="currentColor" stroke-width="4">
            <path d="M199.833553,0 C174.716553,4.9558 151.185553,15.975 126.772553,23.6821 C92.1065534,34.6256 57.2725534,45.0774 22.1935534,54.6122 C19.2645534,55.4083 27.2085534,51.0935 30.0305534,49.9771 C41.1005534,45.5983 52.2035534,41.1231 63.7385534,38.1783 C95.2205534,30.1406 127.489553,25.5594 159.468553,19.8047 C172.567553,17.4475 185.677553,15.0274 198.907553,13.5676 C201.553553,13.2756 209.002553,13.0428 206.828553,14.5786 C201.480553,18.3562 194.644553,19.4911 188.289553,21.068 C176.034553,24.1089 163.453553,25.6671 151.126553,28.4005 C138.867553,31.1188 126.669553,34.1251 114.553553,37.4185 C89.2735534,44.2896 64.7405534,53.6564 39.8055534,61.6905 C26.7635534,65.8929 13.3855534,69.0465 0.452553369,73.5737 C-1.79544663,74.3603 4.94655337,72.0005 7.19355337,71.2139 C17.8675534,67.4776 28.2585534,62.8026 39.2165534,60.0051 C54.9575534,55.9862 71.0895534,53.6845 87.0815534,50.8182 C104.322553,47.728 121.588553,44.7583 138.907553,42.1369 C153.335553,39.9532 167.775553,37.7419 182.306553,36.4054 C187.370553,35.9395 195.879553,31.942 197.559553,36.742 C199.132553,41.2364 188.674553,40.2247 184.076553,41.4615 C173.095553,44.4153 161.976553,46.8378 150.874553,49.2996 C120.751553,55.9791 101.559553,58.7688 72.0815534,67.4199 C62.3725534,70.2694 52.9805534,74.1059 43.4305534,77.4489 C39.4975534,78.8254 27.4835534,81.9601 31.6325534,81.5785 C38.1795534,80.9763 44.3175534,78.0783 50.7615534,76.7746 C61.4075534,74.6205 72.1585534,73.0237 82.8685534,71.2118 C96.5695534,68.8938 110.284553,66.6604 123.992553,64.3848 C137.700553,62.1091 151.355553,59.4872 165.115553,57.5577 C172.407553,56.5354 179.755553,55.8676 187.110553,55.5346 C188.299553,55.4808 184.863553,56.3212 183.739553,56.7145 C174.750553,59.8608 165.992553,63.7645 156.773553,66.1535 C125.423553,74.2775 93.4315534,78.6953 62.2225534,87.8979 C59.3685534,88.7397 56.6045534,89.8644 53.7955534,90.8476 C52.1105534,91.4376 57.0785534,89.2881 58.8515534,89.0778 C68.0275534,87.9897 77.2915534,87.8166 86.4925534,86.9703 C89.5145534,86.6923 92.5035534,86.1274 95.5095534,85.706" id="Stroke-317"></path>
        </g>
    </g>
</svg>
