<?xml version="1.0" encoding="UTF-8"?>
<svg width="228px" height="116px" viewBox="0 0 228 116" version="1.1" xmlns="http://www.w3.org/2000/svg" xmlns:xlink="http://www.w3.org/1999/xlink">
    <title>144</title>
    <g id="Page-1" stroke="none" stroke-width="1" fill="none" fill-rule="evenodd" stroke-linecap="round" stroke-linejoin="bevel">
        <g id="144" transform="translate(2.110507, 2.988998)" stroke="currentColor" stroke-width="4">
            <path d="M56.9640042,42.8207017 C46.2444042,45.3474017 35.7549042,48.7702017 25.2023042,51.9220017 C23.6965042,52.3718017 19.0969042,53.4162017 20.6134042,53.0037017 C66.6376042,40.4855017 112.582104,27.6665017 158.728104,15.6039017 C175.453104,11.2320017 192.380104,7.67160174 209.206104,3.70550174 C213.795104,2.62380174 218.685104,2.42110174 222.972104,0.46040174 C224.937104,-0.43779826 218.649104,0.22990174 216.493104,0.37310174 C209.101104,0.86420174 201.656104,1.08830174 194.357104,2.36160174 C184.036104,4.16240174 173.962104,7.16910174 163.765104,9.57280174 C117.077104,20.5779017 72.1032042,35.9619017 26.7319042,51.5615017 C18.7440042,54.3079017 10.7700042,57.1265017 2.9789042,60.3897017 C1.8985042,60.8422017 -0.886395798,62.7452017 0.280204202,62.6404017 C16.4545042,61.1874017 31.8926042,55.1889017 47.6988042,51.4631017 C63.5050042,47.7373017 79.2557042,43.7680017 95.1173042,40.2858017 C112.521104,36.4649017 130.011104,33.0444017 147.485104,29.5564017 C159.825104,27.0932017 172.211104,24.8643017 184.557104,22.4326017 C186.099104,22.1289017 190.675104,20.9904017 189.146104,21.3509017 C179.968104,23.5143017 170.790104,25.6776017 161.612104,27.8410017 C148.866104,30.8456017 135.996104,33.3718017 123.372104,36.8550017 C93.8703042,44.9946017 65.2061042,56.1878017 37.1771042,68.4748017 C27.8616042,72.5585017 18.3480042,76.3290017 9.5564042,81.4440017 C7.2924042,82.7611017 2.8419042,85.4636017 4.5195042,87.4751017 C6.5604042,89.9222017 10.9323042,87.4613017 14.0579042,86.8414017 C25.3624042,84.5993017 36.4925042,81.5532017 47.7098042,78.9091017 C81.3771042,70.9731017 115.343104,64.2950017 149.386104,58.1714017 C160.741104,56.1291017 171.989104,53.4739017 183.399104,51.7687017 C184.557104,51.5956017 187.942104,52.2457017 186.819104,52.5773017 C153.220104,62.4934017 117.832104,66.4964017 84.3335042,76.7347017 C73.2101042,80.1344017 62.5757042,84.9686017 51.7633042,89.2559017 C45.8391042,91.6050017 36.3531042,90.6697017 34.1289042,96.6419017 C32.2915042,101.575502 44.6273042,95.6180017 49.7857042,94.5659017 C61.5912042,92.1581017 73.1861042,88.7975017 84.9672042,86.2731017 C109.602104,80.9944017 134.367104,75.6793017 159.471104,73.5551017 C162.282104,73.3173017 170.109104,73.1351017 167.840104,74.8116017 C162.767104,78.5604017 155.944104,79.0553017 149.845104,80.6679017 C137.184104,84.0159017 124.351104,86.6772017 111.605104,89.6819017 C100.387404,92.3260017 89.1040042,94.7038017 77.9528042,97.6142017 C64.2298042,101.195802 49.4409042,102.956302 37.3739042,110.408602 C35.5911042,111.509602 41.4314042,109.344602 43.4924042,108.966302 C51.7524042,107.450202 59.9982042,105.802402 68.3271042,104.727002 C75.1605042,103.844702 82.0646042,103.641702 88.9334042,103.099002" id="Stroke-314"></path>
        </g>
    </g>
</svg>
