<?xml version="1.0" encoding="UTF-8"?>
<svg width="212px" height="133px" viewBox="0 0 212 133" version="1.1" xmlns="http://www.w3.org/2000/svg" xmlns:xlink="http://www.w3.org/1999/xlink">
    <title>145</title>
    <g id="Page-1" stroke="none" stroke-width="1" fill="none" fill-rule="evenodd" stroke-linecap="round" stroke-linejoin="bevel">
        <g id="145" transform="translate(2.580036, 2.412478)" stroke="currentColor" stroke-width="4">
            <path d="M28.7185747,34.5635219 C26.1685747,35.1645219 18.5215747,35.7635219 21.0705747,36.3665219 C24.6755747,37.2185219 28.4585747,35.7945219 32.1385747,35.3715219 C55.1845747,32.7245219 78.2065747,29.8725219 101.244575,27.1555219 C128.476575,23.9435219 155.923575,22.2235219 182.948575,17.5845219 C189.739575,16.4185219 196.315575,13.5605219 202.112575,9.8375219 C204.606575,8.2365219 208.550575,4.6605219 206.789575,2.2765219 C204.418575,-0.931478099 198.989575,0.179521901 195.000575,0.211521901 C187.073575,0.275521901 179.201575,1.5815219 171.334575,2.5605219 C130.423575,7.6515219 95.6175747,18.0845219 58.0545747,35.7215219 C44.8285747,41.9315219 31.8855747,48.7775219 19.2785747,56.1635219 C13.4025747,59.6065219 7.95557469,63.7765219 2.72557469,68.1385219 C1.58757469,69.0875219 -0.970425309,71.3255219 0.387574691,71.9195219 C3.30757469,73.1955219 6.79657469,71.8865219 9.92557469,71.2855219 C19.1855747,69.5055219 28.2355747,66.7545219 37.4595747,64.7955219 C66.6715747,58.5915219 95.8175747,52.0755219 125.008575,45.7735219 C136.797575,43.2285219 148.729575,41.3965219 160.550575,39.0095219 C164.658575,38.1805219 169.927575,39.1885219 172.787575,36.1255219 C174.713575,34.0635219 167.226575,34.5985219 164.418575,34.8685219 C155.538575,35.7235219 146.826575,37.8475219 138.054575,39.4685219 C125.680575,41.7555219 113.172575,43.4705219 100.982575,46.5925219 C74.9775747,53.2525219 49.4345747,62.0235219 24.7745747,72.6295219 C19.2875747,74.9895219 13.1065747,76.8195219 9.02957469,81.1845219 C7.74057469,82.5645219 11.2835747,84.9775219 13.1705747,85.0525219 C21.6115747,85.3855219 29.9675747,83.2455219 38.3665747,82.3425219 C50.9635747,80.9875219 63.5745747,79.7525219 76.1585747,78.2775219 C101.785575,75.2755219 127.461575,72.4945219 152.913575,68.2585219 C157.564575,67.4845219 162.490575,67.1755219 166.680575,65.0135219 C169.053575,63.7885219 161.331575,65.0475219 158.671575,65.2865219 C150.258575,66.0425219 141.827575,66.7295219 133.476575,67.9965219 C122.587575,69.6485219 111.770575,71.7675219 100.993575,74.0385219 C90.2295747,76.3065219 79.5785747,79.0865219 68.8715747,81.6105219 C60.2755747,83.6365219 45.3075747,83.7945219 39.3605747,93.4105219 C38.7445747,94.4065219 40.4605747,95.8915219 41.6115747,96.1095219 C45.8555747,96.9115219 50.2505747,96.3595219 54.5695747,96.2835219 C62.5815747,96.1445219 70.5945747,95.9195219 78.5955747,95.4645219 C100.584575,94.2135219 121.369575,91.8405219 142.752575,86.7995219 C145.811575,86.0785219 136.633575,88.2425219 133.574575,88.9635219 C124.396575,91.1265219 115.157575,93.0425219 106.041575,95.4535219 C88.2865747,100.148522 70.4705747,104.819522 53.2255747,111.132522 C48.6905747,112.792522 37.6425747,113.327522 40.1795747,117.436522 C43.4015747,122.653522 52.3175747,119.713522 58.4485747,119.588522 C75.3385747,119.244522 92.0325747,115.886522 108.838575,114.169522 C113.039575,113.740522 117.229575,112.433522 121.436575,112.814522 C124.044575,113.050522 116.360575,114.127522 113.787575,114.617522 C104.510575,116.382522 95.1415747,117.660522 85.8935747,119.577522 C76.1485747,121.598522 66.5185747,124.144522 56.8305747,126.428522 C53.7715747,127.149522 50.7125747,127.870522 47.6535747,128.591522" id="Stroke-313"></path>
        </g>
    </g>
</svg>
