<?xml version="1.0" encoding="UTF-8"?>
<svg width="293px" height="156px" viewBox="0 0 293 156" version="1.1" xmlns="http://www.w3.org/2000/svg" xmlns:xlink="http://www.w3.org/1999/xlink">
    <title>146</title>
    <g id="Page-1" stroke="none" stroke-width="1" fill="none" fill-rule="evenodd" stroke-linecap="round" stroke-linejoin="bevel">
        <g id="146" transform="translate(2.180678, 2.935745)" stroke="currentColor" stroke-width="4">
            <path d="M271.235933,2.15025458 C272.203933,1.43925458 275.324933,-0.184745417 274.140933,0.0172545828 C270.396933,0.659254583 266.924933,2.39625458 263.292933,3.51025458 C240.772933,10.4182546 218.237933,17.2782546 195.686933,24.0822546 C149.307933,38.0772546 103.258933,53.2302546 56.5029331,65.9072546 C40.4269331,70.2652546 23.6779331,71.6332546 7.39393314,75.1352546 C4.97293314,75.6562546 -1.93006686,77.5732546 0.516933141,77.9482546 C4.49993314,78.5592546 8.47993314,76.6952546 12.4319331,75.9072546 C27.9829331,72.8092546 43.4759331,69.4212546 59.0219331,66.2932546 C79.8319331,62.1052546 100.771933,58.5442546 121.497933,53.9582546 C167.241933,43.8352546 212.174933,30.1622546 258.070933,20.7562546 C267.558933,18.8122546 278.318933,13.0282546 286.936933,17.4482546 C293.696933,20.9152546 272.586933,22.4952546 265.240933,24.4342546 C251.971933,27.9352546 238.279933,29.7922546 225.140933,33.7542546 C208.946933,38.6382546 193.491933,45.7412546 177.391933,50.9262546 C139.047933,63.2732546 100.389933,74.7412546 61.3569331,84.6972546 C45.9909331,88.6172546 30.1199331,90.3462546 14.7659331,94.3122546 C11.2289331,95.2262546 1.73393314,97.5902546 4.98493314,99.2572546 C9.05493314,101.345255 13.8959331,97.1862546 18.3509331,96.1512546 C31.7179331,93.0442546 45.0989331,89.9992546 58.4519331,86.8302546 C100.888933,76.7582546 143.320933,66.6562546 185.628933,56.0552546 C207.591933,50.5532546 229.180933,43.4432546 251.395933,39.0692546 C261.204933,37.1372546 279.640933,27.3592546 281.328933,37.2132546 C283.006933,47.0122546 261.773933,40.8492546 252.075933,43.0402546 C236.843933,46.4822546 221.602933,49.9402546 206.551933,54.1072546 C158.997933,67.2742546 112.231933,82.3022546 66.5959331,100.969255 C59.7199331,103.782255 51.9559331,105.011255 45.9669331,109.408255 C43.1439331,111.480255 52.9969331,109.132255 56.4289331,108.434255 C69.8759331,105.696255 83.2419331,102.545255 96.5289331,99.1132546 C134.109933,89.4062546 171.425933,78.6082546 209.272933,69.9932546 C223.425933,66.7712546 237.622933,63.7222546 251.891933,61.0582546 C255.334933,60.4162546 265.528933,58.6062546 262.353933,60.0842546 C244.327933,68.4802546 223.266933,67.4542546 203.848933,71.7392546 C189.362933,74.9362546 175.088933,79.0512546 160.843933,83.1932546 C143.150933,88.3372546 125.651933,94.1252546 108.056933,99.5912546 C90.4609331,105.058255 72.6909331,109.991255 55.2699331,115.990255 C45.9039331,119.216255 36.7859331,123.150255 27.7639331,127.242255 C26.1229331,127.986255 21.6049331,130.422255 23.4069331,130.441255 C27.9809331,130.488255 32.3229331,128.390255 36.7729331,127.334255 C48.8209331,124.474255 60.9369331,121.880255 72.9019331,118.693255 C124.544933,104.940255 174.231933,91.9762546 227.492933,85.6772546 C231.793933,85.1682546 237.909933,81.5972546 240.473933,85.0892546 C242.721933,88.1512546 233.356933,87.8692546 229.625933,88.5822546 C219.595933,90.4992546 209.370933,91.2332546 199.306933,92.9572546 C186.859933,95.0882546 174.454933,97.4802546 162.111933,100.145255 C129.652933,107.151255 94.6259331,116.284255 65.5469331,133.034255 C63.2199331,134.375255 70.8889331,132.346255 73.4899331,131.674255 C83.4279331,129.107255 93.1909331,125.894255 103.128933,123.328255 C127.106933,117.134255 151.098933,110.885255 175.385933,106.047255 C182.766933,104.576255 191.618933,98.6852546 197.761933,103.032255 C202.880933,106.654255 186.097933,107.724255 180.037933,109.338255 C171.727933,111.551255 163.133933,112.538255 154.756933,114.485255 C119.466933,122.688255 84.9659331,134.754255 50.6359331,146.217255 C46.4879331,147.602255 42.3829331,149.121255 38.3349331,150.776255 C36.5769331,151.495255 41.9509331,149.612255 43.7589331,149.030255" id="Stroke-312"></path>
        </g>
    </g>
</svg>
