<?xml version="1.0" encoding="UTF-8"?>
<svg width="76px" height="195px" viewBox="0 0 76 195" version="1.1" xmlns="http://www.w3.org/2000/svg" xmlns:xlink="http://www.w3.org/1999/xlink">
    <title>148</title>
    <g id="Page-1" stroke="none" stroke-width="1" fill="none" fill-rule="evenodd">
        <g id="148" transform="translate(0.861711, 0.063609)" fill="currentColor">
            <path d="M10.7052,2.50119118 L10.6145,3.86049118 L10.5237,5.21969118 L10.4329,6.57899118 L10.3417,7.94479118 L10.2572,9.31089118 L10.173,10.6706912 L10.0889,12.0302912 L10.0043,13.3960912 L9.9261,14.7622912 L9.8483,16.1223912 L9.7705,17.4823912 L9.6923,18.8477912 L9.6197,20.2135912 L9.5473,21.5738912 L9.475,22.9341912 L9.4023,24.3001912 L9.3355,25.6664912 L9.2689,27.0271912 L9.2023,28.3877912 L9.1355,29.7538912 L9.0741,31.1200912 L9.013,32.4810912 L8.9519,33.8419912 L8.8904,35.2097912 L8.836,36.5779912 L8.7818,37.9391912 L8.7277,39.3004912 L8.6735,40.6618912 L8.6193,42.0231912 L8.5651,43.3844912 L8.511,44.7458912 L8.4564,46.1161912 L8.4112,47.4870912 L8.3663,48.8488912 L8.3214,50.2105912 L8.2765,51.5723912 L8.2316,52.9341912 L8.1867,54.2958912 L8.1418,55.6576912 L8.0966,57.0272912 L8.0595,58.3972912 L8.0226,59.7593912 L7.9857,61.1215912 L7.9489,62.4835912 L7.912,63.8457912 L7.8751,65.2079912 L7.8382,66.5700912 L7.8012,67.9383912 L7.7704,69.3068912 L7.7399,70.6692912 L7.7093,72.0316912 L7.6787,73.3939912 L7.6481,74.7564912 L7.6176,76.1187912 L7.587,77.4811912 L7.5563,78.8491912 L7.5314,80.2174912 L7.5067,81.5800912 L7.4819,82.9425912 L7.4572,84.3051912 L7.4325,85.6678912 L7.4077,87.0303912 L7.383,88.3928912 L7.3582,89.7599912 L7.3379,91.1270912 L7.3178,92.4896912 L7.2976,93.8523912 L7.2775,95.2150912 L7.2573,96.5775912 L7.2372,97.9402912 L7.217,99.3029912 L7.1968,100.668691 L7.1798,102.034491 L7.1628,103.397091 L7.1459,104.759791 L7.1289,106.122391 L7.1119,107.485091 L7.095,108.847791 L7.078,110.210291 L7.061,111.575391 L7.0464,112.940291 L7.0319,114.302891 L7.0173,115.665391 L7.0027,117.027991 L6.9882,118.390491 L6.9736,119.753091 L6.959,121.115591 L6.9445,122.479391 L6.9311,123.842891 L6.9177,125.205191 L6.9043,126.567591 L6.8908,127.929891 L6.8774,129.292391 L6.864,130.654791 L6.8506,132.017091 L6.8373,133.377591 L6.825,134.445391 L6.8085,135.584391 L6.7885,136.791891 L6.7662,138.057091 L6.742,139.380691 L6.717,140.757391 L6.6918,142.178291 L6.6675,143.643091 L6.6448,145.145991 L6.6243,146.679791 L6.6072,148.243291 L6.5943,149.832591 L6.5886,151.441391 L6.583,153.055091 L6.5907,154.687091 L6.5985,156.322291 L6.6233,157.955091 L6.6483,159.589391 L6.6917,161.205191 L6.7354,162.825891 L6.8028,164.408491 L6.8705,165.995491 L6.9658,167.523891 L7.0609,169.046591 L7.1781,170.536991 L7.3118,171.982791 L7.4634,173.382891 L7.6326,174.740491 L7.8227,176.049791 L8.0346,177.301891 L8.2686,178.502791 L8.5301,179.648391 L8.8203,180.728591 L9.1425,181.753891 L9.508,182.724891 L9.8988,183.582291 L10.15,184.060091 L10.401,184.483391 L10.6708,184.886591 L10.9654,185.276191 L11.2959,185.655491 L11.655,186.007591 L12.0516,186.336791 L12.5003,186.640591 L12.9807,186.895591 L13.4983,187.101791 L14.0604,187.250091 L14.6258,187.326391 L15.1945,187.336291 L15.7685,187.277791 L16.3106,187.160191 L16.8302,186.993191 L17.336,186.776491 L17.8101,186.524491 L18.2652,186.240091 L18.7115,185.918291 L19.1401,185.569191 L19.5602,185.191991 L19.9789,184.779691 L20.3967,184.332791 L20.9275,183.723591 L21.4567,183.070891 L21.9743,182.387791 L22.4841,181.675291 L22.9885,180.927891 L23.4844,180.151491 L23.9746,179.347191 L24.4604,178.509891 L24.9397,177.644891 L25.4144,176.753291 L25.8853,175.831091 L26.3508,174.882191 L26.8123,173.908491 L27.2704,172.905991 L27.7239,171.878691 L28.1736,170.828091 L28.6201,169.751091 L29.0623,168.650891 L29.5011,167.529091 L29.9366,166.383191 L30.3681,165.215891 L30.7962,164.029091 L31.221,162.820291 L31.6433,161.587991 L32.0577,160.338091 L32.4737,159.083491 L32.8829,157.791491 L33.2915,156.500591 L33.6933,155.175791 L34.0943,153.853191 L34.4889,152.502191 L34.8835,151.150791 L35.271,149.771191 L35.6582,148.392491 L36.038,146.988991 L36.4173,145.587191 L36.7898,144.165491 L37.1623,142.743391 L37.5272,141.302491 L37.8919,139.862191 L38.2487,138.406391 L38.6052,136.951991 L38.9544,135.486191 L39.3037,134.019991 L39.6449,132.544191 L39.9858,131.068991 L40.3185,129.587591 L40.6516,128.104091 L40.9731,126.617391 L41.2924,125.140991 L41.6116,123.664391 L41.9338,122.174291 L42.2383,120.689691 L42.54,119.218791 L42.8417,117.747791 L43.1458,116.264691 L43.4316,114.800491 L43.715,113.348791 L43.9983,111.897091 L44.2831,110.437591 L44.5551,108.997891 L44.8265,107.560691 L45.0883,106.141991 L45.35,104.723591 L45.6019,103.326991 L45.8536,101.931291 L46.0962,100.557991 L46.3388,99.1845912 L46.5713,97.8389912 L46.8037,96.4936912 L47.0257,95.1795912 L47.2476,93.8660912 L47.4599,92.5836912 L47.6723,91.3012912 L47.8739,90.0558912 L48.0755,88.8106912 L48.2662,87.6061912 L48.4568,86.4021912 L48.6374,85.2377912 L48.8179,84.0731912 L48.9873,82.9550912 L49.1566,81.8371912 L49.3145,80.7691912 L49.4722,79.7027912 L49.6223,78.6697912 L49.7665,77.6648912 L49.9047,76.6883912 L50.0376,75.7378912 L50.1645,74.8167912 L50.2853,73.9262912 L50.4007,73.0639912 L50.51,72.2331912 L50.613,71.4351912 L50.7103,70.6674912 L50.8015,69.9334912 L50.8871,69.2287912 L50.9666,68.5332912 L51.0405,67.8094912 L51.1081,67.0661912 L51.1702,66.3045912 L51.2262,65.5220912 L51.2768,64.7116912 L51.36,63.0711912 L51.4205,61.3496912 L51.4579,59.5668912 L51.4744,57.7316912 L51.4683,55.8424912 L51.4395,53.9087912 L51.3904,51.9380912 L51.319,49.9358912 L51.272,48.9136912 L51.2251,47.8972912 L51.1682,46.8704912 L51.1113,45.8424912 L51.0433,44.8059912 L50.9753,43.7692912 L50.8964,42.7274912 L50.8175,41.6867912 L50.7287,40.6438912 L50.6397,39.5995912 L50.5399,38.5558912 L50.4399,37.5119912 L50.3292,36.4718912 L50.2185,35.4328912 L50.0981,34.3998912 L49.9772,33.3653912 L49.8455,32.3405912 L49.7137,31.3151912 L49.5711,30.3028912 L49.4278,29.2864912 L49.1236,27.2952912 L48.7966,25.3336912 L48.4481,23.4163912 L48.0794,21.5423912 L47.6881,19.7193912 L47.2748,17.9578912 L46.8405,16.2543912 L46.382,14.6172912 L45.8999,13.0576912 L45.3942,11.5691912 L44.8597,10.1594912 L44.3081,8.86629118 L44.0041,8.21239118 L43.7008,7.60339118 L43.389,7.02049118 L43.0672,6.45849118 L42.7311,5.91679118 L42.3841,5.40279118 L42.0226,4.91089118 L41.6404,4.43969118 L41.2424,3.99939118 L40.823,3.58389118 L40.3721,3.19309118 L39.8993,2.84109118 L39.3968,2.52339118 L38.8524,2.24459118 L38.2863,2.02189118 L37.6929,1.85339118 L37.0647,1.74819118 L36.4367,1.71529118 L35.8065,1.75009118 L35.171,1.85739118 L34.5634,2.02859118 L33.9756,2.25589118 L33.4004,2.54249118 L32.856,2.87429118 L32.331,3.24809118 L31.8172,3.67039118 L31.3232,4.13059118 L30.8406,4.62879118 L30.3633,5.17359118 L29.8943,5.75989118 L29.3468,6.49709118 L28.797,7.29159118 L28.25,8.13439118 L27.7031,9.02299118 L27.154,9.96399118 L26.6049,10.9522912 L26.0546,11.9845912 L25.5017,13.0667912 L24.948,14.1942912 L24.393,15.3636912 L23.8359,16.5795912 L23.2782,17.8383912 L22.7195,19.1361912 L22.1595,20.4772912 L21.5994,21.8581912 L21.039,23.2751912 L20.4783,24.7318912 L19.9183,26.2251912 L19.3589,27.7515912 L18.8001,29.3140912 L18.243,30.9097912 L17.6873,32.5352912 L17.1334,34.1930912 L16.5821,35.8806912 L16.0333,37.5948912 L15.4873,39.3377912 L14.9456,41.1070912 L14.4086,42.8997912 L13.8755,44.7176912 L13.3463,46.5608912 L12.8258,48.4270912 L12.3043,50.2971912 L11.7939,52.2066912 L11.2837,54.1159912 L10.7863,56.0590912 L10.2903,57.9971912 L10.0459,58.9906912 L9.8053,59.9691912 L9.5647,60.9478912 L9.3211,61.9386912 L9.0854,62.9416912 L8.8527,63.9323912 L8.6199,64.9231912 L8.3842,65.9261912 L8.1574,66.9385912 L7.9333,67.9386912 L7.7092,68.9389912 L7.4826,69.9502912 L7.2647,70.9679912 L7.0491,71.9745912 L6.8336,72.9811912 L6.6154,74.0000912 L6.4074,75.0236912 L6.2021,76.0348912 L5.9967,77.0460912 L5.7889,78.0700912 L5.5922,79.0957912 L5.398,80.1088912 L5.2038,81.1220912 L5.0074,82.1468912 L4.8217,83.1712912 L4.6381,84.1839912 L4.4546,85.1964912 L4.2687,86.2224912 L4.0952,87.2455912 L3.9242,88.2552912 L3.7531,89.2648912 L3.5797,90.2884912 L3.4196,91.3063912 L3.2619,92.3103912 L3.1041,93.3142912 L2.9443,94.3313912 L2.7972,95.3412912 L2.6522,96.3379912 L2.5072,97.3345912 L2.3593,98.3513912 L2.0974,100.333891 L1.8347,102.322091 L1.6034,104.284191 L1.3723,106.245391 L1.1709,108.178291 L0.9695,110.113791 L0.8022,112.013391 L0.6351,113.914191 L0.5027,115.773691 L0.3678,117.627191 L0.2577,119.461091 L0.1671,121.267791 L0.0961,123.048791 L0.0435,124.806491 L0.0112,126.538491 L0,128.241091 L0.0081,129.917191 L0.0381,131.564491 L0.0904,133.178691 L0.1634,134.763591 L0.2596,136.316491 L0.3796,137.833091 L0.5216,139.317391 L0.6888,140.766991 L0.8811,142.176591 L1.0972,143.551491 L1.3406,144.889291 L1.611,146.183991 L1.9074,147.441291 L2.234,148.659391 L2.5901,149.831291 L2.9751,150.963391 L3.3945,152.054391 L3.8467,153.095591 L4.3322,154.094191 L4.858,155.049391 L5.421,155.949591 L6.0229,156.802691 L6.6733,157.606591 L7.3379,158.319491 L7.7325,158.700191 L8.1094,159.031291 L8.4894,159.332991 L8.8777,159.610991 L9.281,159.864891 L9.6898,160.086791 L10.1102,160.280591 L10.5502,160.444491 L10.9936,160.569691 L11.4461,160.659091 L11.914,160.708491 L12.3741,160.714591 L12.831,160.680391 L13.2888,160.602891 L13.724,160.487791 L14.1431,160.338991 L14.5509,160.154391 L14.9941,159.905991 L15.6328,159.461891 L16.273,158.892091 L16.845,158.265591 L17.3711,157.588491 L17.8629,156.852291 L18.3204,156.070791 L18.754,155.245591 L19.1682,154.369091 L19.5625,153.450891 L19.9422,152.493791 L20.3087,151.492891 L20.6617,150.456091 L21.0043,149.386991 L21.337,148.283291 L21.6597,147.151491 L21.9743,145.995691 L22.2812,144.815091 L22.5804,143.615491 L22.8733,142.400791 L23.1601,141.171791 L23.4415,139.931391 L23.7152,138.687391 L23.9888,137.443591 L24.2548,136.195991 L24.5198,134.953091 L24.7791,133.722491 L25.0376,132.495591 L25.2924,131.292491 L25.5464,130.093791 L25.7979,128.935091 L26.0483,127.781491 L26.2981,126.684291 L26.548,125.586391 L26.7961,124.545191 L27.0445,123.543691 L27.2934,122.587791 L27.5423,121.678591 L27.7907,120.826491 L28.0475,120.007791 L28.0877,119.873091 L28.1348,119.703691 L28.1934,119.485791 L28.2644,119.217391 L28.3494,118.892091 L28.448,118.510591 L28.5589,118.078891 L28.6828,117.592491 L28.8194,117.053491 L28.9671,116.467291 L29.1266,115.830391 L29.2975,115.144791 L29.4784,114.415791 L29.6699,113.640091 L29.8714,112.819691 L30.0817,111.959691 L30.3012,111.057291 L30.5295,110.114091 L30.7654,109.135091 L31.0092,108.117891 L31.2604,107.064191 L31.5181,105.978291 L31.7824,104.858391 L32.0527,103.706091 L32.3283,102.525491 L32.6092,101.314891 L32.8949,100.076191 L33.1846,98.8129912 L33.4782,97.5238912 L33.7756,96.2100912 L34.0764,94.8673912 L34.3774,93.5235912 L34.6829,92.1396912 L34.9884,90.7552912 L35.2964,89.3369912 L35.6043,87.9187912 L35.9131,86.4745912 L36.2219,85.0296912 L36.5299,83.5612912 L36.838,82.0924912 L37.1433,80.6065912 L37.4486,79.1205912 L37.7498,77.6237912 L38.0512,76.1260912 L38.3464,74.6216912 L38.6418,73.1168912 L38.929,71.6112912 L39.2169,70.1028912 L39.4907,68.6029912 L39.7629,67.1118912 L40.035,65.6209912 L40.3099,64.1149912 L40.5586,62.6392912 L40.8046,61.1790912 L41.0506,59.7187912 L41.2997,58.2396912 L41.5145,56.8150912 L41.7264,55.4096912 L41.9383,54.0042912 L42.1524,52.5834912 L42.3396,51.2118912 L42.5263,49.8430912 L42.6911,48.5172912 L42.8559,47.1898912 L42.9969,45.9114912 L43.1372,44.6371912 L43.2613,43.3897912 L43.3718,42.1726912 L43.4686,40.9853912 L43.5524,39.8247912 L43.6217,38.6939912 L43.6758,37.5963912 L43.7155,36.5287912 L43.7392,35.4937912 L43.7461,34.4951912 L43.737,33.5288912 L43.7099,32.5969912 L43.6639,31.7041912 L43.5997,30.8449912 L43.5143,30.0199912 L43.4068,29.2354912 L43.2769,28.4832912 L43.1191,27.7619912 L42.932,27.0796912 L42.7118,26.4254912 L42.4459,25.7943912 L42.131,25.2010912 L41.754,24.6352912 L41.2876,24.0993912 L40.7385,23.6337912 L40.1001,23.2500912 L39.3694,22.9794912 L38.6198,22.8544912 L37.8732,22.8584912 L37.1373,22.9832912 L36.4467,23.2032912 L35.6368,23.5503912 L34.8446,23.9683912 L34.0892,24.4440912 L33.3618,24.9722912 L32.6583,25.5587912 L31.9878,26.1922912 L31.3422,26.8697912 L30.7183,27.5976912 L30.1213,28.3664912 L29.545,29.1741912 L28.9875,30.0272912 L28.4518,30.9179912 L27.9334,31.8443912 L27.4314,32.8122912 L26.9478,33.8152912 L26.479,34.8513912 L26.0249,35.9258912 L25.5867,37.0329912 L25.1619,38.1707912 L24.7503,39.3434912 L24.353,40.5464912 L23.9678,41.7775912 L23.595,43.0403912 L23.2351,44.3306912 L22.8864,45.6463912 L22.5494,46.9903912 L22.2242,48.3589912 L21.9095,49.7501912 L21.6058,51.1663912 L21.3131,52.6042912 L21.0302,54.0617912 L20.7576,55.5407912 L20.4954,57.0381912 L20.2423,58.5523912 L19.9989,60.0846912 L19.7647,61.6356912 L19.5444,63.1994912 L19.3236,64.7670912 L19.1206,66.3615912 L18.9178,67.9549912 L18.7322,69.5698912 L18.5468,71.1829912 L18.3763,72.8118912 L18.2058,74.4408912 L18.0511,76.0827912 L17.8964,77.7238912 L17.7567,79.3726912 L17.6171,81.0199912 L17.4905,82.6702912 L17.3639,84.3207912 L17.2509,85.9701912 L17.1379,87.6188912 L17.0377,89.2614912 L16.9377,90.9026912 L16.8486,92.5341912 L16.7595,94.1658912 L16.6819,95.7824912 L16.6043,97.3983912 L16.5374,98.9942912 L16.4706,100.588991 L16.4128,102.161291 L16.3551,103.733591 L16.3067,105.276991 L16.2583,106.819591 L16.2184,108.328091 L16.1787,109.835691 L16.146,111.308091 L16.1134,112.780491 L16.088,114.209691 L16.0626,115.638591 L16.0436,117.018991 L16.0248,118.397791 L16.0098,119.743191 L15.9976,121.059791 L15.988,122.347491 L15.9805,123.607691 L15.9752,124.836891 L15.9719,126.033291 L15.9703,127.199291 L15.9704,128.330591 L15.9719,129.425791 L15.9746,130.487191 L15.9785,131.510391 L15.9833,132.493891 L15.9889,133.440291 L15.9951,134.345091 L16.0016,135.206691 L16.0085,136.027791 L16.0154,136.803691 L16.0222,137.532691 L16.0287,138.218091 L16.0349,138.854391 L16.0403,139.439891 L16.0451,139.978391 L16.0489,140.463391 L16.0515,140.875091 L16.0443,141.873391 L16.0114,142.906491 L15.9546,143.992891 L15.8776,145.122791 L15.7802,146.294391 L15.6644,147.506591 L15.5336,148.751291 L15.3885,150.027291 L15.231,151.332391 L15.0641,152.660391 L14.8889,154.009791 L14.7077,155.377291 L14.5219,156.763391 L14.3356,158.152791 L14.1498,159.554891 L13.9633,160.962491 L13.7863,162.368991 L13.609,163.779291 L13.4476,165.177691 L13.2856,166.582491 L13.1491,167.962291 L13.0123,169.348591 L12.9102,170.696491 L12.8087,172.040291 L12.7345,173.369291 L12.6843,174.669291 L12.6603,175.940791 L12.6623,177.186391 L12.6953,178.403591 L12.762,179.584391 L12.8624,180.733591 L13.0032,181.849991 L13.1874,182.923291 L13.416,183.961291 L13.6996,184.963491 L14.0412,185.915791 L14.4449,186.826891 L14.9283,187.695191 L15.4903,188.495991 L16.137,189.233491 L16.8867,189.894991 L17.6568,190.410491 L18.1604,190.681891 L18.6299,190.890291 L19.11,191.064291 L19.6039,191.208491 L20.1179,191.321991 L20.6377,191.401991 L21.1675,191.452891 L21.7133,191.472991 L22.2637,191.462791 L22.8228,191.425191 L23.3967,191.358291 L23.9793,191.262791 L24.4995,191.109891 L24.9194,190.895491 L25.2376,190.671091 L25.4995,190.443091 L25.7304,190.205691 L25.9344,189.966991 L26.125,189.721091 L26.3101,189.460291 L26.4888,189.188791 L26.6656,188.903891 L26.8435,188.600591 L27.0297,188.266191 L27.3819,187.595991 L27.7549,186.832791 L28.14,185.995991 L28.5375,185.090191 L28.95,184.107191 L29.3763,183.050491 L29.8152,181.927091 L30.2683,180.730191 L30.7342,179.463491 L31.2116,178.133891 L31.7014,176.736091 L32.2024,175.273091 L32.7133,173.752091 L33.235,172.168291 L33.766,170.524991 L34.3051,168.828591 L34.8526,167.075191 L35.4074,165.267591 L35.9683,163.412091 L36.535,161.506791 L36.8217,160.527691 L37.1078,159.550291 L37.3961,158.551591 L37.6844,157.552591 L37.9748,156.531091 L38.2651,155.509491 L38.5571,154.466591 L38.8489,153.423791 L39.1419,152.362591 L39.435,151.300891 L39.729,150.219591 L40.023,149.138291 L40.3175,148.038491 L40.6119,146.938991 L40.9066,145.823591 L41.2012,144.707791 L41.4958,143.575291 L41.7903,142.442791 L42.0843,141.294691 L42.3782,140.146991 L42.6713,138.985791 L42.9644,137.824491 L43.2564,136.649291 L43.5483,135.474091 L43.8386,134.286391 L44.1288,133.098891 L44.4172,131.900791 L44.7057,130.702291 L44.9919,129.492991 L45.278,128.283791 L45.5615,127.064791 L45.8453,125.844191 L46.1248,124.612291 L46.403,123.385891 L46.6812,122.159491 L46.9613,120.924591 L47.2339,119.675991 L47.5045,118.435991 L47.7752,117.195891 L48.0479,115.946991 L48.3113,114.688691 L48.5729,113.439291 L48.8345,112.189891 L49.0979,110.932091 L49.3517,109.669191 L49.6038,108.414691 L49.8559,107.160291 L50.11,105.895991 L50.3521,104.629891 L50.5923,103.373691 L50.8326,102.117391 L51.0748,100.850691 L51.3035,99.5865912 L51.5303,98.3327912 L51.7571,97.0789912 L51.9857,95.8151912 L52.2008,94.5569912 L52.4142,93.3089912 L52.6275,92.0609912 L52.8428,90.8011912 L53.0419,89.5511912 L53.2391,88.3131912 L53.4362,87.0752912 L53.6353,85.8244912 L53.8167,84.5877912 L53.996,83.3642912 L54.1754,82.1407912 L54.3561,80.9077912 L54.5238,79.6865912 L54.6913,78.4677912 L54.8487,77.2588912 L55.0062,76.0496912 L55.1534,74.8513912 L55.3004,73.6537912 L55.4378,72.4668912 L55.5752,71.2790912 L55.7016,70.1039912 L55.828,68.9286912 L55.9429,67.7671912 L56.0578,66.6062912 L56.1619,65.4589912 L56.2661,64.3103912 L56.3582,63.1775912 L56.4503,62.0443912 L56.5298,60.9279912 L56.6093,59.8122912 L56.677,58.7125912 L56.7447,57.6115912 L56.7992,56.5291912 L56.8537,55.4462912 L56.8945,54.3830912 L56.9352,53.3205912 L56.9632,52.2768912 L56.9911,51.2312912 L57.0047,50.2072912 L57.0182,49.1774912 L57.0154,47.1791912 L56.9849,45.2169912 L56.9229,43.3004912 L56.8287,41.4346912 L56.7043,39.6146912 L56.5456,37.8449912 L56.3519,36.1311912 L56.1252,34.4674912 L55.8607,32.8578912 L55.558,31.3094912 L55.2187,29.8147912 L54.8367,28.3776912 L54.4122,27.0066912 L53.9459,25.6931912 L53.4297,24.4402912 L52.8649,23.2593912 L52.2505,22.1407912 L51.5755,21.0882912 L50.8688,20.1483912 L50.4566,19.6590912 L50.0499,19.2179912 L49.6296,18.8017912 L49.1938,18.4057912 L48.7376,18.0298912 L48.2457,17.6654912 L47.5736,17.2318912 L46.8515,16.8610912 L46.1171,16.5847912 L45.3614,16.4008912 L44.5783,16.3256912 L43.8128,16.3686912 L43.0698,16.5196912 L42.3564,16.7808912 L41.7108,17.1258912 L41.1209,17.5368912 L40.5777,18.0127912 L40.09,18.5304912 L39.6415,19.0856912 L39.2238,19.6845912 L38.8387,20.3141912 L38.477,20.9739912 L38.1346,21.6701912 L37.8126,22.3937912 L37.5058,23.1439912 L37.2128,23.9247912 L36.9338,24.7295912 L36.666,25.5561912 L36.4086,26.4071912 L36.1582,27.2902912 L35.6935,29.0633912 L35.256,30.9093912 L34.8453,32.7896912 L34.4548,34.6852912 L34.0822,36.5802912 L33.7233,38.4512912 L33.3738,40.2820912 L33.0309,42.0487912 L32.6895,43.7350912 L32.5209,44.5329912 L32.3512,45.3053912 L32.1806,46.0452912 L32.0096,46.7515912 L31.8381,47.4163912 L31.6611,48.0546912 L31.2986,49.3480912 L30.9356,50.6435912 L30.5726,51.9389912 L30.2056,53.2490912 L29.8597,54.5556912 L29.5179,55.8473912 L29.176,57.1389912 L28.8302,58.4459912 L28.5059,59.7498912 L28.1854,61.0384912 L27.8649,62.3269912 L27.5409,63.6298912 L27.2366,64.9303912 L26.9358,66.2165912 L26.6349,67.5027912 L26.3303,68.8050912 L26.0475,70.1053912 L25.7684,71.3893912 L25.4893,72.6732912 L25.2066,73.9739912 L24.946,75.2731912 L24.6888,76.5554912 L24.4316,77.8379912 L24.1713,79.1359912 L23.9313,80.4329912 L23.6946,81.7144912 L23.4578,82.9960912 L23.2179,84.2948912 L23.0004,85.5933912 L22.786,86.8742912 L22.5715,88.1552912 L22.3542,89.4539912 L22.1595,90.7526912 L21.9676,92.0336912 L21.7757,93.3145912 L21.5813,94.6118912 L21.4078,95.9097912 L21.2365,97.1911912 L21.0652,98.4724912 L20.8916,99.7721912 L20.741,101.072991 L20.5926,102.355391 L20.4442,103.637691 L20.2937,104.938691 L20.1665,106.241191 L20.0413,107.525191 L19.916,108.809091 L19.7891,110.110091 L19.6835,111.412991 L19.5794,112.698691 L19.4753,113.984491 L19.3697,115.289291 L19.2878,116.596591 L19.2072,117.884891 L19.1268,119.173191 L19.0454,120.480691 L18.9879,121.791291 L18.9314,123.082591 L18.8748,124.374091 L18.8178,125.678591 L18.777,126.985591 L18.7364,128.289091 L18.7079,129.594391 L18.6794,130.899791 L18.6629,132.207291 L18.6465,133.513791 L18.6412,134.822391 L18.6358,136.131791 L18.6427,137.443591 L18.6496,138.755391 L18.6687,140.069591 L18.6878,141.382791 L18.7181,142.698491 L18.7484,144.014991 L18.7911,145.334191 L18.8338,146.653391 L18.8889,147.975491 L18.9439,149.296591 L19.0103,150.620491 L19.0767,151.945191 L19.1556,153.272991 L19.2346,154.600691 L19.326,155.931591 L19.4176,157.261691 L19.5207,158.594891 L19.6239,159.928691 L19.7397,161.266091 L19.8555,162.603491 L19.984,163.944491 L20.1125,165.284491 L20.2524,166.627891 L20.3925,167.972291 L20.5454,169.320291 L20.6983,170.668491 L20.864,172.020491 L21.0282,173.359991 L21.0735,173.751291 L21.1115,174.157191 L21.1443,174.590691 L21.1724,175.046091 L21.1956,175.521891 L21.2144,176.010691 L21.2426,177.058491 L21.2597,178.153391 L21.2709,179.292591 L21.2827,180.462191 L21.2946,181.646091 L21.3237,182.828691 L21.3535,184.032191 L21.4231,185.185391 L21.4934,186.339591 L21.6064,187.473491 L21.7585,188.560291 L21.9524,189.566191 L22.079,190.096691 L22.2175,190.589591 L22.3745,191.065791 L22.5528,191.531091 L22.7598,191.988391 L22.9956,192.425991 L23.2664,192.850191 L23.5859,193.261691 L23.9492,193.639691 L24.3636,193.984691 L24.8421,194.287391 L25.3572,194.520291 L25.9051,194.683491 L26.4848,194.769791 L27.0568,194.776991 L27.6231,194.717791 L28.1906,194.593291 L28.7617,194.406291 L29.5814,194.062691 L30.4055,193.635691 L31.1989,193.144391 L31.9699,192.595091 L32.7229,191.981691 L33.4506,191.314091 L34.16,190.596191 L34.8542,189.821291 L35.5291,188.997591 L36.1894,188.127891 L36.8372,187.206191 L37.4697,186.238791 L38.0904,185.228791 L38.7003,184.170391 L39.2974,183.069291 L39.8844,181.928491 L40.4616,180.742991 L41.0278,179.517691 L41.5848,178.255491 L42.1327,176.952491 L42.6706,175.612591 L43.2,174.238991 L43.7207,172.828091 L44.232,171.383791 L44.7353,169.908891 L45.2303,168.400591 L45.7163,166.862091 L46.1946,165.296391 L46.6647,163.701091 L47.1263,162.079091 L47.5803,160.433191 L48.0264,158.761591 L48.4641,157.066991 L48.8946,155.351891 L49.3172,153.614991 L49.7324,151.855791 L50.1355,150.077591 L50.5392,148.296291 L50.9276,146.481391 L51.3158,144.667491 L51.6888,142.825791 L52.0614,140.985591 L52.4203,139.124891 L52.7792,137.263791 L53.1232,135.384891 L53.467,133.506591 L53.7961,131.616191 L54.1248,129.727091 L54.4402,127.831391 L54.7557,125.935591 L55.0566,124.037491 L55.3574,122.139891 L55.6438,120.245691 L55.9301,118.352691 L56.2033,116.467291 L56.4765,114.581691 L56.7356,112.709591 L56.9946,110.837891 L57.2395,108.985191 L57.4843,107.133391 L57.7165,105.303591 L57.9486,103.473591 L58.1669,101.672691 L58.3852,99.8720912 L58.5898,98.1062912 L58.7943,96.3411912 L58.9865,94.6121912 L59.1787,92.8830912 L59.3574,91.1986912 L59.536,89.5144912 L59.7014,87.8808912 L59.8669,86.2487912 L60.0243,84.6518912 L60.1749,83.0847912 L60.319,81.5484912 L60.4571,80.0409912 L60.5887,78.5661912 L60.7138,77.1259912 L60.833,75.7179912 L60.9458,74.3467912 L61.0522,73.0138912 L61.1528,71.7169912 L61.2471,70.4605912 L61.335,69.2462912 L61.4173,68.0714912 L61.4933,66.9408912 L61.5631,65.8565912 L61.6272,64.8148912 L61.6852,63.8212912 L61.7371,62.8776912 L61.7834,61.9800912 L61.8236,61.1339912 L61.8578,60.3415912 L61.8866,59.5980912 L61.9093,58.9093912 L61.9258,58.2859912 L61.9474,57.5414912 L61.9788,56.7643912 L62.019,55.9472912 L62.0665,55.0969912 L62.1209,54.2138912 L62.1809,53.3000912 L62.2452,52.3611912 L62.3131,51.3976912 L62.3835,50.4121912 L62.455,49.4090912 L62.5268,48.3891912 L62.5979,47.3540912 L62.6655,46.3084912 L62.7334,45.2583912 L62.7928,44.1985912 L62.8524,43.1352912 L62.8988,42.0733912 L62.9451,41.0093912 L62.9756,39.9555912 L63.006,38.8966912 L63.0146,37.8585912 L63.0229,36.8073912 L62.9862,34.8051912 L62.946,33.8026912 L62.889,32.8316912 L62.8134,31.8844912 L62.7194,30.9586912 L62.6036,30.0562912 L62.4646,29.1839912 L62.3022,28.3374912 L62.1115,27.5180912 L61.891,26.7339912 L61.6393,25.9790912 L61.3477,25.2534912 L61.0153,24.5692912 L60.6371,23.9193912 L60.1985,23.3059912 L59.7026,22.7499912 L59.143,22.2494912 L58.5055,21.8172912 L57.8148,21.4816912 L57.0759,21.2410912 L56.2883,21.1068912 L55.4893,21.0830912 L54.6785,21.1547912 L53.8474,21.3251912 L53.0147,21.5845912 L52.0813,21.9521912 L51.173,22.3827912 L50.2995,22.8701912 L49.4538,23.4092912 L48.6342,24.0059912 L47.8488,24.6515912 L47.0908,25.3427912 L46.3587,26.0850912 L45.6578,26.8701912 L44.9823,27.6956912 L44.3313,28.5668912 L43.7082,29.4767912 L43.108,30.4229912 L42.5305,31.4107912 L41.9779,32.4337912 L41.446,33.4899912 L40.9351,34.5839912 L40.4464,35.7104912 L39.9767,36.8671912 L39.5265,38.0584912 L39.0965,39.2792912 L38.684,40.5277912 L38.2896,41.8073912 L37.9137,43.1138912 L37.554,44.4452912 L37.2113,45.8045912 L36.8858,47.1878912 L36.5753,48.5932912 L36.2806,50.0232912 L36.0019,51.4743912 L35.7372,52.9447912 L35.4873,54.4364912 L35.2523,55.9463912 L35.0303,57.4726912 L34.8221,59.0167912 L34.6273,60.5799912 L34.4514,62.1548912 L34.2756,63.7342912 L34.1255,65.3404912 L33.9756,66.9455912 L33.8495,68.5724912 L33.7238,70.1972912 L33.6186,71.8380912 L33.5135,73.4793912 L33.4298,75.1341912 L33.3463,76.7877912 L33.2831,78.4502912 L33.2199,80.1109912 L33.174,81.7754912 L33.1282,83.4403912 L33.1002,85.1054912 L33.0723,86.7696912 L33.0609,88.4290912 L33.0497,90.0871912 L33.0524,91.7370912 L33.0551,93.3870912 L33.0721,95.0238912 L33.0891,96.6599912 L33.1191,98.2779912 L33.1491,99.8947912 L33.1909,101.491091 L33.2354,103.087491 L33.2906,104.657191 L33.3458,106.226291 L33.4103,107.763791 L33.4747,109.300291 L33.5465,110.804091 L33.6183,112.307991 L33.6971,113.771691 L33.7758,115.234991 L33.8603,116.653191 L33.9446,118.069491 L34.0322,119.454791 L34.1217,120.813391 L34.2128,122.144491 L34.3051,123.449991 L34.3984,124.726291 L34.4925,125.971891 L34.5869,127.188791 L34.6814,128.373291 L34.7758,129.523691 L34.8696,130.642291 L34.9627,131.725091 L35.0547,132.770491 L35.1454,133.780991 L35.2344,134.752291 L35.3214,135.682991 L35.4063,136.575691 L35.4886,137.425691 L35.5679,138.231691 L35.6443,138.996691 L35.7163,139.715791 L35.7845,140.387291 L35.849,141.014891 L35.9092,141.592991 L35.9633,142.107691 L36.0437,142.962891 L36.1075,143.861191 L36.1572,144.813991 L36.1949,145.811391 L36.2206,146.852491 L36.2354,147.934891 L36.2414,149.050991 L36.2389,150.199491 L36.2293,151.377591 L36.2144,152.579091 L36.1949,153.802491 L36.1722,155.044091 L36.1473,156.304291 L36.1225,157.566691 L36.0988,158.842391 L36.0751,160.121591 L36.0584,161.399191 L36.0416,162.679191 L36.0358,163.945891 L36.03,165.216791 L36.0413,166.459991 L36.0528,167.707391 L36.0872,168.912491 L36.1217,170.114991 L36.1753,171.293091 L36.2446,172.439791 L36.331,173.554191 L36.4347,174.637891 L36.5591,175.686891 L36.7056,176.694591 L36.874,177.664991 L37.0695,178.594891 L37.294,179.476291 L37.5492,180.315791 L37.8435,181.111491 L38.1797,181.852691 L38.5638,182.547991 L39.0132,183.194091 L39.5295,183.768891 L40.1223,184.272091 L40.8087,184.681491 L41.4893,184.940191 L41.9469,185.050791 L42.3546,185.106391 L42.7616,185.125491 L43.1711,185.111891 L43.5879,185.064291 L43.9995,184.985591 L44.4108,184.878691 L44.8269,184.741291 L45.24,184.577291 L45.6544,184.388291 L46.0749,184.170791 L46.5162,183.915991 L47.2606,183.434091 L48.0092,182.876691 L48.7352,182.264291 L49.4444,181.601091 L50.1393,180.881391 L50.8159,180.111791 L51.4785,179.295991 L52.1287,178.428291 L52.764,177.514291 L53.3874,176.557291 L53.9998,175.551991 L54.5994,174.503291 L55.1885,173.414391 L55.7674,172.280891 L56.3349,171.106691 L56.8929,169.895391 L57.4411,168.642591 L57.9787,167.352191 L58.5074,166.027491 L59.0266,164.664791 L59.5359,163.267591 L60.0364,161.838991 L60.5281,160.376191 L61.0105,158.882091 L61.4844,157.359591 L61.9494,155.806291 L62.405,154.224891 L62.8523,152.618191 L63.2907,150.984291 L63.7199,149.325691 L64.141,147.644891 L64.5533,145.940391 L64.9565,144.214691 L65.3517,142.470091 L65.7381,140.705191 L66.116,138.920291 L66.481,137.117191 L66.8465,135.311291 L67.1946,133.474991 L67.5425,131.639191 L67.8731,129.778091 L68.2035,127.918191 L68.5182,126.039591 L68.8329,124.160491 L69.131,122.265391 L69.4291,120.370691 L69.71,118.465191 L69.9907,116.560691 L70.2559,114.650391 L70.5211,112.739691 L70.7692,110.827391 L71.0173,108.915291 L71.2483,107.006691 L71.4792,105.098991 L71.6946,103.198591 L71.9101,101.297891 L72.1086,99.4098912 L72.307,97.5219912 L72.4886,95.6520912 L72.67,93.7829912 L72.8361,91.9341912 L73.0023,90.0850912 L73.1515,88.2630912 L73.3008,86.4411912 L73.4332,84.6515912 L73.5656,82.8626912 L73.6827,81.1073912 L73.7998,79.3515912 L73.9002,77.6371912 L74.0006,75.9229912 L74.0843,74.2553912 L74.1678,72.5897912 L74.2402,70.9555912 L74.3041,69.3491912 L74.3597,67.7711912 L74.4078,66.2196912 L74.4475,64.6981912 L74.4789,63.2086912 L74.5028,61.7488912 L74.5184,60.3224912 L74.5257,58.9315912 L74.5257,57.5735912 L74.5169,56.2522912 L74.5,54.9700912 L74.4756,53.7237912 L74.443,52.5175912 L74.402,51.3538912 L74.3534,50.2288912 L74.2964,49.1471912 L74.2311,48.1110912 L74.1582,47.1165912 L74.0767,46.1679912 L73.9867,45.2677912 L73.8886,44.4114912 L73.7813,43.6027912 L73.6655,42.8483912 L73.5726,42.3133912 L73.465,41.7593912 L73.342,41.1889912 L73.2044,40.6051912 L73.0498,40.0088912 L72.8731,39.3893912 L72.4858,38.1931912 L72.015,36.9878912 L71.475,35.8568912 L71.151,35.2714912 L70.8124,34.7294912 L70.4471,34.2146912 L70.0519,33.7248912 L69.6178,33.2632912 L69.1487,32.8446912 L68.6394,32.4677912 L68.0787,32.1419912 L67.4808,31.8865912 L66.8448,31.7030912 L66.1669,31.6057912 L65.5094,31.6023912 L64.9914,31.6509912 L64.5042,31.7346912 L64.0286,31.8523912 L63.5605,32.0009912 L63.0966,32.1831912 L62.6458,32.3942912 L62.2037,32.6319912 L61.7673,32.8996912 L61.3428,33.1920912 L60.9262,33.5080912 L60.515,33.8509912 L60.1136,34.2162912 L59.7187,34.6029912 L59.3284,35.0147912 L58.9458,35.4475912 L58.5685,35.9005912 L58.1952,36.3773912 L57.8178,36.8888912 L57.1066,37.9267912 L56.4001,39.0657912 L55.7106,40.2843912 L55.0344,41.5756912 L54.3708,42.9469912 L53.7211,44.3926912 L53.083,45.9054912 L52.4567,47.4917912 L51.8427,49.1463912 L51.2397,50.8620912 L50.6483,52.6442912 L50.0693,54.4882912 L49.5022,56.3838912 L49.223,57.3666912 L48.9449,58.3456912 L48.6728,59.3528912 L48.401,60.3589912 L48.1346,61.3896912 L47.8682,62.4208912 L47.6078,63.4779912 L47.3475,64.5347912 L47.0934,65.6160912 L46.8395,66.6964912 L46.5912,67.7981912 L46.3428,68.9002912 L46.1007,70.0244912 L45.8587,71.1485912 L45.623,72.2934912 L45.3875,73.4375912 L45.1578,74.5994912 L44.9281,75.7617912 L44.7048,76.9425912 L44.4816,78.1232912 L44.265,79.3209912 L44.0485,80.5180912 L43.8381,81.7295912 L43.6276,82.9413912 L43.4238,84.1680912 L43.2201,85.3944912 L43.0232,86.6342912 L42.8264,87.8733912 L42.6358,89.1236912 L42.4453,90.3742912 L42.2616,91.6358912 L42.078,92.8972912 L41.9015,94.1682912 L41.7251,95.4387912 L41.5551,96.7168912 L41.3851,97.9953912 L41.2224,99.2809912 L41.0596,100.566691 L40.9041,101.857991 L40.7485,103.150991 L40.603,104.449691 L40.4582,105.742291 L40.3134,107.034791 L40.1676,108.336291 L40.037,109.642191 L39.9072,110.939191 L39.7775,112.236191 L39.6469,113.541991 L39.5318,114.846791 L39.4175,116.142691 L39.3032,117.438591 L39.1881,118.742391 L39.0875,120.041091 L38.9875,121.331691 L38.8875,122.622191 L38.7869,123.921591 L38.7023,125.210491 L38.6184,126.490391 L38.5345,127.770091 L38.45,129.059091 L38.382,130.331991 L38.3145,131.595591 L38.247,132.859291 L38.1792,134.129291 L38.1228,135.385591 L38.0665,136.640291 L38.0186,137.883291 L37.9709,139.126291 L37.9316,140.356291 L37.8924,141.585891 L37.861,142.802691 L37.8297,144.019991 L37.807,145.221791 L37.7844,146.423791 L37.7706,147.608991 L37.7569,148.793791 L37.7512,149.962291 L37.7455,151.131391 L37.7489,152.281291 L37.7522,153.431391 L37.7647,154.560891 L37.7771,155.690091 L37.7979,156.799391 L37.8188,157.909691 L37.8488,158.996991 L37.879,160.084491 L37.9184,161.147691 L37.9579,162.210591 L38.006,163.250191 L38.0541,164.290891 L38.1118,165.304891 L38.1697,166.322291 L38.3043,168.291791 L38.4568,170.211791 L38.6293,172.073091 L38.8218,173.871191 L39.0328,175.610791 L39.2647,177.284991 L39.5173,178.888991 L39.7896,180.428791 L40.084,181.897491 L40.4006,183.289591 L40.7385,184.612191 L41.1013,185.859291 L41.4888,187.024291 L41.9015,188.116291 L42.3453,189.130391 L42.8087,190.036391 L43.0708,190.493291 L43.3328,190.910291 L43.6042,191.303291 L43.8868,191.676891 L44.1848,192.030991 L44.4945,192.358991 L44.8187,192.665291 L45.163,192.948891 L45.5206,193.201691 L45.895,193.426991 L46.292,193.622191 L46.6996,193.779191 L47.1205,193.900591 L47.559,193.982891 L47.9984,194.022191 L48.4412,194.022491 L48.8909,193.980691 L49.3322,193.899691 L49.7693,193.783291 L50.2068,193.628991 L50.6342,193.441891 L51.0569,193.224691 L51.4792,192.973491 L51.865,192.713991 C52.5609,192.244491 52.7444,191.299691 52.275,190.603791 C51.8055,189.907791 50.8607,189.724391 50.1648,190.193691 L49.8492,190.407391 L49.5821,190.566391 L49.3271,190.697391 L49.0876,190.802591 L48.8699,190.879491 L48.6635,190.934191 L48.472,190.969991 L48.3004,190.985991 L48.1335,190.985491 L47.9737,190.971691 L47.8245,190.943591 L47.6691,190.898291 L47.5109,190.837591 L47.3534,190.759991 L47.1845,190.657991 L47.0092,190.534291 L46.8318,190.387891 L46.6455,190.211591 L46.4548,190.009591 L46.2636,189.782391 L46.0681,189.523691 L45.8713,189.238891 L45.6762,188.928291 L45.492,188.608891 L45.0927,187.830791 L44.7171,186.972391 L44.3533,186.008991 L44.0031,184.956691 L43.6704,183.813091 L43.3548,182.577291 L43.0556,181.262691 L42.7756,179.866491 L42.5143,178.388691 L42.2703,176.840691 L42.0457,175.219891 L41.8403,173.526891 L41.6522,171.771591 L41.4834,169.951491 L41.3337,168.067991 L41.2009,166.126791 L41.1443,165.132291 L41.0874,164.134491 L41.0399,163.109891 L40.9924,162.084091 L40.9534,161.034891 L40.9143,159.986191 L40.8846,158.912791 L40.8547,157.839191 L40.8341,156.742391 L40.8134,155.644891 L40.801,154.527291 L40.7886,153.410191 L40.7852,152.272291 L40.7818,151.134291 L40.7873,149.976791 L40.7928,148.818691 L40.8064,147.644191 L40.8199,146.469991 L40.8423,145.278791 L40.8646,144.087591 L40.8956,142.880691 L40.9266,141.673491 L40.9655,140.452991 L41.0043,139.232991 L41.0516,137.999791 L41.099,136.766591 L41.1548,135.521591 L41.2105,134.278191 L41.2775,133.020991 L41.3449,131.757291 L41.4123,130.493691 L41.4792,129.239291 L41.5624,127.968591 L41.6462,126.688691 L41.73,125.408891 L41.8133,124.138091 L41.9125,122.856391 L42.0124,121.565891 L42.1123,120.275391 L42.2115,118.992891 L42.325,117.704991 L42.4392,116.409091 L42.5535,115.113191 L42.6669,113.826191 L42.7957,112.537991 L42.9253,111.240991 L43.0549,109.943991 L43.1837,108.655991 L43.3274,107.372291 L43.4721,106.079791 L43.6168,104.787191 L43.7608,103.500891 L43.9148,102.220291 L44.069,100.938091 L44.2305,99.6616912 L44.392,98.3854912 L44.5606,97.1164912 L44.7293,95.8469912 L44.9045,94.5851912 L45.0795,93.3239912 L45.2616,92.0723912 L45.4436,90.8207912 L45.6326,89.5802912 L45.8216,88.3393912 L46.0168,87.1095912 L46.2119,85.8803912 L46.4138,84.6646912 L46.6157,83.4489912 L46.8242,82.2481912 L47.0327,81.0468912 L47.2472,79.8601912 L47.4616,78.6742912 L47.6825,77.5054912 L47.9033,76.3368912 L48.1305,75.1869912 L48.3578,74.0365912 L48.5908,72.9042912 L48.8236,71.7726912 L49.0627,70.6621912 L49.3016,69.5519912 L49.5467,68.4640912 L49.7919,67.3758912 L50.0425,66.3090912 L50.2929,65.2432912 L50.5493,64.2023912 L50.8055,63.1616912 L51.0675,62.1474912 L51.3296,61.1325912 L51.597,60.1427912 L51.864,59.1541912 L52.1366,58.1941912 L52.408,57.2381912 L52.965,55.3754912 L53.5304,53.5742912 L54.1056,51.8404912 L54.6909,50.1746912 L55.2846,48.5742912 L55.8871,47.0501912 L56.4985,45.6022912 L57.1169,44.2277912 L57.7414,42.9383912 L58.373,41.7335912 L59.0089,40.6105912 L59.647,39.5824912 L60.299,38.6330912 L60.6094,38.2135912 L60.9285,37.8063912 L61.2482,37.4228912 L61.5666,37.0628912 L61.8817,36.7304912 L62.1966,36.4224912 L62.5089,36.1383912 L62.8158,35.8825912 L63.1215,35.6509912 L63.4232,35.4430912 L63.717,35.2628912 L64.0094,35.1060912 L64.2968,34.9712912 L64.5751,34.8620912 L64.8532,34.7741912 L65.1274,34.7060912 L65.3939,34.6603912 L65.6335,34.6361912 L65.9508,34.6345912 L66.2051,34.6717912 L66.4595,34.7465912 L66.7145,34.8553912 L66.9659,35.0023912 L67.2288,35.1985912 L67.4959,35.4370912 L67.7592,35.7178912 L68.0232,36.0463912 L68.2828,36.4125912 L68.5322,36.8124912 L68.7597,37.2215912 L69.2257,38.1951912 L69.6223,39.2133912 L69.9693,40.2901912 L70.1157,40.8063912 L70.2526,41.3354912 L70.3756,41.8581912 L70.4856,42.3697912 L70.5813,42.8636912 L70.6627,43.3334912 L70.7697,44.0319912 L70.869,44.7830912 L70.9612,45.5911912 L71.0466,46.4484912 L71.1243,47.3568912 L71.1942,48.3168912 L71.2568,49.3216912 L71.3114,50.3732912 L71.3581,51.4717912 L71.3974,52.6111912 L71.4285,53.7935912 L71.4516,55.0186912 L71.4673,56.2809912 L71.4747,57.5824912 L71.474,58.9226912 L71.4658,60.2965912 L71.4494,61.7060912 L71.4247,63.1503912 L71.3925,64.6249912 L71.3521,66.1313912 L71.3033,67.6687912 L71.2471,69.2332912 L71.1825,70.8257912 L71.1097,72.4441912 L71.0254,74.1007912 L70.9412,75.7552912 L70.8402,77.4568912 L70.7394,79.1585912 L70.6218,80.9020912 L70.5041,82.6460912 L70.3712,84.4239912 L70.2385,86.2011912 L70.0888,88.0110912 L69.9393,89.8207912 L69.7729,91.6577912 L69.6064,93.4953912 L69.4247,95.3534912 L69.243,97.2110912 L69.0444,99.0865912 L68.8459,100.961891 L68.6304,102.850091 L68.415,104.738791 L68.1841,106.634791 L67.9533,108.529891 L67.7055,110.428691 L67.4578,112.327291 L67.1931,114.224091 L66.9283,116.121291 L66.6481,118.012791 L66.368,119.903291 L66.0709,121.782791 L65.7738,123.661991 L65.4589,125.524891 L65.1441,127.388091 L64.8137,129.232291 L64.4835,131.075291 L64.1362,132.892891 L63.7891,134.709991 L63.4248,136.496191 L63.06,138.285291 L62.6846,140.045391 L62.3003,141.788191 L61.9075,143.510891 L61.507,145.213891 L61.0981,146.893391 L60.6807,148.549391 L60.2556,150.182091 L59.8223,151.787691 L59.3804,153.365791 L58.9309,154.917491 L58.4734,156.438091 L58.0073,157.927591 L57.5338,159.387091 L57.052,160.811391 L56.5616,162.200891 L56.0639,163.556891 L55.5586,164.873891 L55.0451,166.152191 L54.5246,167.393591 L53.9971,168.591591 L53.4616,169.747391 L52.9196,170.862391 L52.3714,171.929891 L51.8157,172.951291 L51.2543,173.928191 L50.688,174.853191 L50.1151,175.728391 L49.5377,176.555291 L48.9576,177.325891 L48.372,178.043291 L47.7842,178.709091 L47.1969,179.314791 L46.606,179.864691 L46.0157,180.360791 L45.43,180.794991 L44.8223,181.185091 L44.5347,181.349091 L44.2489,181.496191 L43.9792,181.618291 L43.7281,181.717691 L43.5016,181.791891 L43.2914,181.845691 L43.1007,181.882091 L42.9357,181.900491 L42.7837,181.904891 L42.6472,181.898591 L42.5311,181.882291 L42.4841,181.875091 L42.2068,181.776891 L42.0084,181.656391 L41.7868,181.464091 L41.5501,181.199091 L41.3118,180.853191 L41.0704,180.411391 L40.8355,179.889891 L40.6159,179.290991 L40.4116,178.611791 L40.2238,177.867391 L40.0561,177.060291 L39.9078,176.190291 L39.7774,175.269191 L39.6662,174.298691 L39.5728,173.279891 L39.4948,172.222191 L39.4329,171.126991 L39.3859,170.000491 L39.3568,168.825091 L39.3276,167.652191 L39.3213,166.436191 L39.3147,165.215691 L39.3253,163.967291 L39.3358,162.714691 L39.3573,161.448691 L39.3788,160.180191 L39.4072,158.909991 L39.4357,157.636391 L39.4653,156.376091 L39.4951,155.113691 L39.5227,153.865791 L39.5471,152.632791 L39.5668,151.418291 L39.5811,150.223291 L39.5881,149.052191 L39.5863,147.909791 L39.5753,146.795191 L39.5528,145.713491 L39.5173,144.669691 L39.4685,143.661491 L39.4035,142.693691 L39.3218,141.784991 L39.2675,141.248391 L39.21,140.673991 L39.1483,140.050291 L39.0831,139.382791 L39.0144,138.668491 L38.9433,137.907791 L38.8696,137.106591 L38.7932,136.261591 L38.7145,135.373891 L38.6339,134.448591 L38.5516,133.482991 L38.4679,132.478191 L38.3831,131.438591 L38.2974,130.362191 L38.2112,129.249791 L38.1247,128.105691 L38.0382,126.928291 L37.9521,125.718291 L37.8665,124.479691 L37.7818,123.211091 L37.6983,121.913091 L37.6162,120.589791 L37.5359,119.239891 L37.4577,117.865091 L37.3828,116.454691 L37.3079,115.046091 L37.239,113.592391 L37.17,112.138991 L37.1082,110.645391 L37.0464,109.151591 L36.9921,107.624991 L36.9378,106.099391 L36.893,104.541991 L36.8481,102.985091 L36.814,101.401491 L36.777,99.8175912 L36.7497,98.2133912 L36.7224,96.6101912 L36.7079,94.9887912 L36.6935,93.3678912 L36.6933,91.7337912 L36.693,90.0993912 L36.7067,88.4566912 L36.7203,86.8153912 L36.7504,85.1693912 L36.7805,83.5240912 L36.8282,81.8788912 L36.876,80.2334912 L36.941,78.5921912 L37.0058,76.9525912 L37.0906,75.3217912 L37.1754,73.6917912 L37.2814,72.0755912 L37.3874,70.4590912 L37.5137,68.8589912 L37.6398,67.2610912 L37.7895,65.6855912 L37.9388,64.1111912 L38.1126,62.5641912 L38.2862,61.0126912 L38.4763,59.4911912 L38.6798,57.9843912 L38.8968,56.4954912 L39.1261,55.0247912 L39.3691,53.5761912 L39.6264,52.1490912 L39.8968,50.7432912 L40.1815,49.3633912 L40.4813,48.0083912 L40.7947,46.6780912 L41.123,45.3773912 L41.4671,44.1050912 L41.8253,42.8609912 L42.1989,41.6502912 L42.5888,40.4712912 L42.9932,39.3238912 L43.413,38.2139912 L43.8497,37.1392912 L44.301,36.0994912 L44.7675,35.1011912 L45.2512,34.1414912 L45.7492,33.2198912 L46.2617,32.3437912 L46.7914,31.5089912 L47.335,30.7155912 L47.8917,29.9707912 L48.4656,29.2699912 L49.0527,28.6126912 L49.6514,28.0065912 L50.2676,27.4457912 L50.8965,26.9293912 L51.5359,26.4646912 L52.1944,26.0458912 L52.8669,25.6710912 L53.551,25.3473912 L54.2571,25.0702912 L54.7791,24.9070912 L55.2212,24.8164912 L55.6044,24.7835912 L55.9294,24.7921912 L56.191,24.8369912 L56.4286,24.9160912 L56.6504,25.0232912 L56.8571,25.1646912 L57.0758,25.3628912 L57.3002,25.6148912 L57.5202,25.9242912 L57.7414,26.3070912 L57.9563,26.7505912 L58.157,27.2523912 L58.3449,27.8189912 L58.5182,28.4370912 L58.6727,29.1040912 L58.8096,29.8225912 L58.9299,30.5819912 L59.0315,31.3798912 L59.1157,32.2173912 L59.1843,33.0861912 L59.2362,33.9842912 L59.2722,34.8981912 L59.3062,36.8402912 L59.2969,37.8264912 L59.2879,38.8257912 L59.2575,39.8467912 L59.2271,40.8728912 L59.1809,41.9094912 L59.1347,42.9481912 L59.0754,43.9884912 L59.0159,45.0323912 L58.9481,46.0663912 L58.8801,47.1046912 L58.8088,48.1288912 L58.7364,49.1436912 L58.6639,50.1449912 L58.5925,51.1319912 L58.5233,52.1005912 L58.4574,53.0481912 L58.3955,53.9746912 L58.3391,54.8760912 L58.2895,55.7489912 L58.2469,56.5948912 L58.2132,57.4094912 L58.19,58.1798912 L58.1731,58.7957912 L58.1504,59.4619912 L58.1216,60.1864912 L58.0874,60.9623912 L58.047,61.7926912 L58.0005,62.6764912 L57.9484,63.6074912 L57.8901,64.5886912 L57.8256,65.6190912 L57.7553,66.6929912 L57.6789,67.8129912 L57.5961,68.9779912 L57.5076,70.1826912 L57.4128,71.4296912 L57.3115,72.7176912 L57.2045,74.0415912 L57.091,75.4036912 L56.9711,76.8029912 L56.8452,78.2345912 L56.7129,79.7003912 L56.574,81.1994912 L56.4292,82.7272912 L56.2778,84.2852912 L56.1198,85.8714912 L55.952,87.4971912 L55.7839,89.1211912 L55.6024,90.7959912 L55.421,92.4705912 L55.2259,94.1898912 L55.0309,95.9096912 L54.8235,97.6656912 L54.6161,99.4208912 L54.395,101.211091 L54.1739,103.000991 L53.939,104.820091 L53.704,106.639391 L53.4564,108.480791 L53.2088,110.321291 L52.9472,112.180991 L52.6857,114.040391 L52.41,115.913191 L52.1342,117.786391 L51.8456,119.667091 L51.557,121.546891 L51.2541,123.430191 L50.9513,125.312991 L50.6339,127.193591 L50.3166,129.074491 L49.986,130.948591 L49.6556,132.821691 L49.3106,134.682391 L48.9657,136.542591 L48.6061,138.384591 L48.2464,140.227091 L47.8732,142.048591 L47.5004,143.868491 L47.1126,145.660391 L46.725,147.451491 L46.3225,149.208891 L45.9192,150.969391 L45.5072,152.697391 L45.0873,154.406491 L44.6597,156.093791 L44.2255,157.758991 L43.784,159.398591 L43.3348,161.012091 L42.879,162.600191 L42.4161,164.158091 L41.9455,165.685991 L41.4683,167.184791 L40.9842,168.649091 L40.4925,170.079291 L39.9943,171.476591 L39.4894,172.834791 L38.9771,174.155191 L38.4586,175.438391 L37.934,176.678191 L37.4022,177.875891 L36.8647,179.032391 L36.3219,180.140591 L35.7724,181.202591 L35.2181,182.219391 L34.6599,183.182891 L34.096,184.095791 L33.5287,184.959391 L32.9601,185.764791 L32.3872,186.515491 L31.8135,187.212991 L31.2423,187.847691 L30.6693,188.424791 L30.0993,188.945791 L29.5374,189.401591 L28.9764,189.799191 L28.4223,190.141191 L27.8816,190.420191 L27.3192,190.652491 L27.1276,190.713891 L26.9761,190.746991 L26.8658,190.757591 L26.7986,190.757291 L26.7791,190.754191 L26.7663,190.748891 L26.7546,190.743991 L26.7425,190.735391 L26.7012,190.698691 L26.6391,190.633791 L26.5657,190.537591 L26.4745,190.392291 L26.3753,190.207191 L26.276,189.985591 L26.1751,189.719091 L26.0765,189.417991 L25.9842,189.086091 L25.9033,188.747691 L25.7417,187.904891 L25.6173,186.999491 L25.522,186.022791 L25.4593,184.944891 L25.3958,183.865791 L25.3706,182.733391 L25.3446,181.580091 L25.3355,180.425491 L25.3261,179.256491 L25.3172,178.106191 L25.3019,176.976791 L25.2749,175.890591 L25.2553,175.349691 L25.2309,174.826691 L25.2005,174.317291 L25.1639,173.819491 L25.1193,173.333691 L25.0675,172.876091 L24.9053,171.529391 L24.7446,170.195291 L24.5966,168.865191 L24.4485,167.535191 L24.3131,166.208991 L24.1776,164.882091 L24.0536,163.558591 L23.9296,162.236091 L23.8181,160.917091 L23.7067,159.598291 L23.6077,158.282991 L23.5087,156.966791 L23.4208,155.653691 L23.3328,154.341391 L23.2573,153.032591 L23.1817,151.723791 L23.1184,150.417991 L23.0551,149.111291 L23.003,147.807491 L22.9509,146.504491 L22.9111,145.204291 L22.8712,143.904291 L22.8435,142.606891 L22.8158,141.308691 L22.7991,140.012791 L22.7824,138.717891 L22.7779,137.425391 L22.7733,136.132891 L22.7807,134.842791 L22.7882,133.551791 L22.8066,132.262691 L22.8249,130.974591 L22.8552,129.688491 L22.8854,128.402491 L22.9276,127.118291 L22.9696,125.837591 L23.0278,124.559491 L23.0865,123.268191 L23.1453,121.976791 L23.2031,120.704591 L23.2844,119.435691 L23.3666,118.147491 L23.4486,116.859291 L23.5293,115.589991 L23.6334,114.323391 L23.7388,113.037691 L23.8443,111.752091 L23.9483,110.483491 L24.0733,109.216891 L24.2,107.933091 L24.3266,106.649391 L24.4513,105.384291 L24.599,104.120691 L24.7488,102.838491 L24.8985,101.556291 L25.046,100.292491 L25.2162,99.0296912 L25.3889,97.7483912 L25.5615,96.4672912 L25.7319,95.2024912 L25.9228,93.9381912 L26.1161,92.6574912 L26.3093,91.3766912 L26.4998,90.1137912 L26.7128,88.8507912 L26.9286,87.5700912 L27.1444,86.2892912 L27.3572,85.0260912 L27.5922,83.7620912 L27.8303,82.4807912 L28.0684,81.1995912 L28.3033,79.9336912 L28.5582,78.6668912 L28.8161,77.3844912 L29.074,76.1022912 L29.3285,74.8366912 L29.6049,73.5692912 L29.8848,72.2853912 L30.1646,71.0015912 L30.4409,69.7338912 L30.7388,68.4640912 L31.0404,67.1780912 L31.3421,65.8920912 L31.6403,64.6203912 L31.958,63.3462912 L32.2792,62.0578912 L32.6004,60.7694912 L32.9178,59.4964912 L33.2564,58.2201912 L33.599,56.9286912 L33.9416,55.6371912 L34.2802,54.3604912 L34.6398,53.0799912 L35.0036,51.7847912 L35.3673,50.4895912 L35.7316,49.1923912 L35.9214,48.5091912 L36.1105,47.7776912 L36.2949,47.0186912 L36.476,46.2349912 L36.6545,45.4246912 L36.8321,44.5862912 L37.1798,42.8716912 L37.5276,41.0822912 L37.8785,39.2469912 L38.2356,37.3875912 L38.6032,35.5208912 L38.9852,33.6684912 L39.3831,31.8490912 L39.8008,30.0879912 L40.2462,28.3913912 L40.4717,27.5978912 L40.7067,26.8213912 L40.9486,26.0753912 L41.1961,25.3616912 L41.4487,24.6887912 L41.7079,24.0554912 L41.9711,23.4640912 L42.2361,22.9251912 L42.5046,22.4356912 L42.7717,21.9983912 L43.0311,21.6260912 L43.2855,21.3112912 L43.5252,21.0552912 L43.7371,20.8687912 L43.9309,20.7339912 L44.0961,20.6436912 L44.2239,20.5960912 L44.3537,20.5706912 L44.4904,20.5615912 L44.643,20.5764912 L44.8572,20.6303912 L45.1249,20.7305912 L45.441,20.8936912 L45.8444,21.1570912 L46.1253,21.3667912 L46.4195,21.6092912 L46.7117,21.8751912 L46.9994,22.1602912 L47.2787,22.4633912 L47.5309,22.7602912 L48.0942,23.5061912 L48.6044,24.3028912 L49.0919,25.1920912 L49.5546,26.1601912 L49.9854,27.2073912 L50.3872,28.3410912 L50.7603,29.5473912 L51.0999,30.8269912 L51.4074,32.1841912 L51.6852,33.6070912 L51.9293,35.0961912 L52.141,36.6543912 L52.3232,38.2711912 L52.473,39.9477912 L52.5912,41.6852912 L52.681,43.4749912 L52.7399,45.3175912 L52.7688,47.2140912 L52.7708,49.1615912 L52.7574,50.1504912 L52.744,51.1453912 L52.7164,52.1624912 L52.6888,53.1813912 L52.6486,54.2195912 L52.6086,55.2570912 L52.5549,56.3148912 L52.5014,57.3732912 L52.4347,58.4507912 L52.3679,59.5298912 L52.2895,60.6253912 L52.2112,61.7202912 L52.1205,62.8324912 L52.0297,63.9451912 L51.9269,65.0739912 L51.8239,66.2039912 L51.7104,67.3477912 L51.5969,68.4909912 L51.472,69.6483912 L51.3471,70.8062912 L51.2112,71.9771912 L51.0753,73.1491912 L50.9296,74.3321912 L50.784,75.5147912 L50.6281,76.7084912 L50.4722,77.9024912 L50.3064,79.1066912 L50.1409,80.3085912 L49.9626,81.5225912 L49.7828,82.7459912 L49.6031,83.9694912 L49.4253,85.1797912 L49.2298,86.4047912 L49.0323,87.6425912 L48.8347,88.8804912 L48.6391,90.1062912 L48.4274,91.3422912 L48.2137,92.5901912 L47.9999,93.8382912 L47.7879,95.0758912 L47.5625,96.3194912 L47.3353,97.5730912 L47.1081,98.8267912 L46.8828,100.069891 L46.6442,101.315691 L46.4035,102.571891 L46.1629,103.828091 L45.9241,105.074491 L45.6736,106.319091 L45.4211,107.573491 L45.1686,108.827891 L44.9178,110.073691 L44.6575,111.314591 L44.3955,112.563991 L44.1335,113.813191 L43.8734,115.053691 L43.6042,116.284791 L43.3331,117.524791 L43.062,118.764691 L42.7928,119.996191 L42.5161,121.213991 L42.2376,122.440291 L41.959,123.666591 L41.6817,124.887291 L41.4001,126.096391 L41.1181,127.307291 L40.8335,128.508291 L40.5488,129.709491 L40.2618,130.899791 L39.9748,132.090591 L39.6859,133.270791 L39.3972,134.450591 L39.1068,135.617791 L38.8165,136.784991 L38.5249,137.938591 L38.2332,139.092391 L37.9408,140.232991 L37.6484,141.373191 L37.3556,142.497791 L37.0627,143.622391 L36.7697,144.730191 L36.4766,145.838491 L36.1838,146.930791 L35.891,148.022591 L35.5988,149.095791 L35.3066,150.169091 L35.0154,151.222691 L34.7241,152.276591 L34.434,153.311791 L34.144,154.346591 L33.8557,155.359591 L33.5674,156.372791 L33.2811,157.363291 L32.9948,158.354091 L32.7107,159.323391 L32.4271,160.290791 L31.8643,162.180791 L31.3081,164.018291 L30.7585,165.807291 L30.2168,167.540291 L29.6836,169.216191 L29.1589,170.837891 L28.6446,172.397591 L28.1406,173.893691 L27.6472,175.329991 L27.1667,176.697491 L26.6993,177.995491 L26.245,179.227491 L25.8061,180.383791 L25.383,181.463691 L24.9756,182.470991 L24.5873,183.394191 L24.2182,184.232991 L23.869,184.990491 L23.5449,185.652191 L23.2385,186.233291 L23.1091,186.464491 L22.9814,186.681791 L22.863,186.872091 L22.7562,187.034191 L22.6664,187.160791 L22.5931,187.255291 L22.5432,187.314091 L22.5316,187.326391 L22.5623,187.299791 L22.6599,187.232391 L22.8711,187.125691 L23.1946,187.030791 L22.7984,187.095491 L22.4286,187.138291 L22.0786,187.161291 L21.7509,187.167391 L21.4523,187.156091 L21.1706,187.128491 L20.9086,187.088291 L20.6726,187.035991 L20.4482,186.969891 L20.2381,186.893791 L20.0478,186.809091 L19.9215,186.745091 L19.5117,186.477691 L19.1951,186.196691 L18.8845,185.838991 L18.5848,185.411391 L18.3076,184.910591 L18.0474,184.319191 L17.8091,183.652991 L17.6015,182.915291 L17.4229,182.098591 L17.2728,181.218891 L17.1553,180.279491 L17.069,179.277791 L17.0105,178.226191 L16.9818,177.127391 L16.9811,175.980691 L17.0045,174.795991 L17.0529,173.575591 L17.1238,172.326491 L17.2236,171.024891 L17.3229,169.727491 L17.4565,168.390091 L17.5907,167.045991 L17.7502,165.676391 L17.9103,164.300291 L18.0864,162.911991 L18.2628,161.519991 L18.4489,160.126791 L18.6357,158.728191 L18.8229,157.342291 L19.0106,155.953091 L19.1943,154.576691 L19.3727,153.212991 L19.5434,151.865791 L19.7053,150.535591 L19.8555,149.226591 L19.9916,147.942991 L20.1131,146.683991 L20.2166,145.453691 L20.2993,144.257391 L20.3613,143.092391 L20.3983,141.961991 L20.4074,140.892091 L20.4052,140.434891 L20.4019,139.944191 L20.3976,139.402491 L20.3927,138.815191 L20.3872,138.178491 L20.3813,137.493791 L20.3753,136.766191 L20.3692,135.992591 L20.3632,135.174091 L20.3575,134.315791 L20.3522,133.414891 L20.3477,132.472491 L20.3438,131.493491 L20.341,130.475491 L20.3393,129.419291 L20.3389,128.329591 L20.3399,127.204491 L20.3427,126.044591 L20.3471,124.854491 L20.3536,123.632291 L20.3623,122.378991 L20.3732,121.098791 L20.3866,119.789791 L20.4027,118.454291 L20.4229,117.081291 L20.4431,115.709791 L20.4698,114.289791 L20.4964,112.870391 L20.5303,111.407491 L20.5642,109.944491 L20.6052,108.446191 L20.6462,106.948691 L20.6958,105.416791 L20.7454,103.885491 L20.8043,102.324691 L20.8632,100.763991 L20.9312,99.1806912 L20.999,97.5983912 L21.0776,95.9956912 L21.1561,94.3936912 L21.246,92.7764912 L21.3359,91.1590912 L21.4368,89.5318912 L21.5375,87.9059912 L21.651,86.2738912 L21.7644,84.6425912 L21.8913,83.0100912 L22.0182,81.3773912 L22.1579,79.7477912 L22.2975,78.1198912 L22.4518,76.4997912 L22.606,74.8805912 L22.7757,73.2744912 L22.9455,71.6680912 L23.1299,70.0775912 L23.314,68.4893912 L23.515,66.9230912 L23.7157,65.3578912 L23.934,63.8200912 L24.1528,62.2781912 L24.3827,60.7658912 L24.6221,59.2682912 L24.8708,57.7890912 L25.1281,56.3282912 L25.3948,54.8896912 L25.6713,53.4727912 L25.9566,52.0778912 L26.2516,50.7090912 L26.557,49.3655912 L26.8714,48.0475912 L27.1958,46.7595912 L27.5308,45.5008912 L27.8751,44.2707912 L28.2294,43.0751912 L28.5945,41.9123912 L28.9691,40.7819912 L29.3533,39.6902912 L29.7486,38.6350912 L30.1529,37.6162912 L30.5664,36.6407912 L30.9906,35.7055912 L31.4232,34.8103912 L31.8636,33.9633912 L32.314,33.1602912 L32.7715,32.4010912 L33.2341,31.6946912 L33.7055,31.0353912 L34.1815,30.4231912 L34.6587,29.8672912 L35.1428,29.3605912 L35.6281,28.9024912 L36.1097,28.5014912 L36.5969,28.1486912 L37.0833,27.8423912 L37.5631,27.5896912 L38.0559,27.3797912 L38.2133,27.3282912 L38.2742,27.3170912 L38.2742,27.3180912 L38.2264,27.3084912 L38.1489,27.2802912 L38.1162,27.2635912 L38.1303,27.2754912 L38.1813,27.3362912 L38.2767,27.4829912 L38.3942,27.7052912 L38.5175,28.0004912 L38.6442,28.3802912 L38.7663,28.8273912 L38.8772,29.3377912 L38.9763,29.9165912 L39.0626,30.5508912 L39.133,31.2386912 L39.1877,31.9831912 L39.2277,32.7743912 L39.2512,33.6120912 L39.2585,34.4978912 L39.2513,35.4241912 L39.2282,36.3910912 L39.1895,37.3997912 L39.1371,38.4434912 L39.0699,39.5229912 L38.9881,40.6383912 L38.8936,41.7844912 L38.7856,42.9615912 L38.6646,44.1657912 L38.5255,45.4164912 L38.3869,46.6632912 L38.2244,47.9601912 L38.0618,49.2584912 L37.8773,50.6007912 L37.6932,51.9403912 L37.4822,53.3301912 L37.269,54.7353912 L37.0557,56.1404912 L36.8454,57.5263912 L36.6016,58.9678912 L36.3548,60.4280912 L36.1079,61.8882912 L35.8637,63.3329912 L35.5934,64.8089912 L35.3204,66.2996912 L35.0474,67.7904912 L34.776,69.2724912 L34.4907,70.7631912 L34.2048,72.2569912 L33.9109,73.7499912 L33.6169,75.2434912 L33.3168,76.7304912 L33.0166,78.2180912 L32.7123,79.6948912 L32.4081,81.1715912 L32.1011,82.6309912 L31.7941,84.0906912 L31.4862,85.5269912 L31.1782,86.9639912 L30.871,88.3747912 L30.5638,89.7853912 L30.2592,91.1619912 L29.9545,92.5388912 L29.6543,93.8755912 L29.3539,95.2135912 L29.058,96.5196912 L28.7654,97.8021912 L28.4767,99.0595912 L28.192,100.292491 L27.9122,101.497191 L27.6376,102.672191 L27.3682,103.819091 L27.1049,104.933491 L26.8482,106.014191 L26.5979,107.062691 L26.355,108.074691 L26.1201,109.048691 L25.8928,109.986891 L25.6742,110.884291 L25.4649,111.739391 L25.2644,112.554891 L25.074,113.325291 L24.8942,114.049291 L24.7244,114.729891 L24.5661,115.360991 L24.4197,115.941391 L24.2845,116.474491 L24.1622,116.953691 L24.0532,117.377891 L23.9568,117.750191 L23.8748,118.063691 L23.808,118.316191 L23.7559,118.509491 L23.723,118.627891 L23.715,118.654791 L23.4459,119.512891 L23.1741,120.444191 L22.9076,121.416391 L22.6447,122.424891 L22.3846,123.472291 L22.1261,124.556391 L21.8709,125.675791 L21.6156,126.795791 L21.3601,127.971091 L21.1058,129.140991 L20.8492,130.350791 L20.5936,131.556291 L20.3343,132.785391 L20.0758,134.010591 L19.8116,135.248191 L19.5484,136.481191 L19.2776,137.710591 L19.0068,138.939891 L18.7315,140.152091 L18.4514,141.351191 L18.1662,142.532391 L17.8764,143.692991 L17.5815,144.826691 L17.2805,145.930991 L16.9744,147.003991 L16.6627,148.037191 L16.3445,149.029491 L16.021,149.978591 L15.6929,150.874291 L15.3588,151.716091 L15.0213,152.501791 L14.6828,153.217991 L14.342,153.866291 L14.0045,154.443591 L13.678,154.932991 L13.3613,155.340491 L13.0675,155.664291 L12.8159,155.889691 L12.5356,156.078091 L12.5099,156.088491 L12.4417,156.119491 L12.3776,156.141991 L12.323,156.156991 L12.2836,156.163791 L12.2356,156.166891 L12.1839,156.166591 L12.1323,156.161091 L12.0575,156.145791 L11.9663,156.120391 L11.8636,156.081891 L11.7331,156.021191 L11.5835,155.940191 L11.42,155.836991 L11.2328,155.702591 L11.0296,155.541091 L10.8145,155.352191 L10.6082,155.154891 L10.1091,154.622191 L9.6557,154.060991 L9.2129,153.432291 L8.7842,152.746691 L8.3759,152.004191 L7.984,151.195991 L7.6099,150.333291 L7.2581,149.415991 L6.9265,148.438191 L6.6147,147.409891 L6.3264,146.331191 L6.0601,145.197391 L5.8144,144.017691 L5.5923,142.791891 L5.3928,141.516491 L5.214,140.199591 L5.0583,138.840891 L4.925,137.437891 L4.8121,135.997391 L4.7215,134.519391 L4.6527,133.001691 L4.6035,131.450791 L4.5757,129.866291 L4.5689,128.246691 L4.5809,126.597791 L4.6133,124.919191 L4.6657,123.209991 L4.736,121.475091 L4.8255,119.714491 L4.9337,117.932291 L5.0678,116.107491 L5.2045,114.288691 L5.3782,112.428091 L5.5519,110.566391 L5.7597,108.668291 L5.9677,106.767891 L6.2055,104.838891 L6.443,102.910591 L6.7119,100.955791 L6.9814,98.9951912 L7.1287,98.0194912 L7.279,97.0236912 L7.4293,96.0277912 L7.5776,95.0452912 L7.7386,94.0551912 L7.9016,93.0519912 L8.0647,92.0489912 L8.2255,91.0596912 L8.3996,90.0647912 L8.576,89.0559912 L8.7524,88.0471912 L8.9264,87.0518912 L9.1129,86.0534912 L9.3017,85.0418912 L9.4906,84.0302912 L9.6773,83.0303912 L9.8745,82.0299912 L10.0741,81.0178912 L10.2736,80.0058912 L10.4706,79.0064912 L10.6785,78.0088912 L10.8888,76.9986912 L11.099,75.9884912 L11.3068,74.9906912 L11.5245,73.9975912 L11.7449,72.9918912 L11.9653,71.9864912 L12.1833,70.9920912 L12.4098,70.0039912 L12.6387,69.0049912 L12.8676,68.0058912 L13.0938,67.0188912 L13.3285,66.0414912 L13.5661,65.0518912 L13.8037,64.0622912 L14.0383,63.0846912 L14.2806,62.1194912 L14.526,61.1420912 L14.7713,60.1646912 L15.0129,59.2021912 L15.5145,57.2813912 L16.0148,55.3655912 L16.5275,53.4838912 L17.0401,51.6023912 L17.5634,49.7605912 L18.0878,47.9148912 L18.6167,46.1056912 L19.1505,44.3177912 L19.6882,42.5541912 L20.2278,40.8141912 L20.7695,39.1021912 L21.314,37.4184912 L21.8603,35.7621912 L22.4082,34.1380912 L22.9575,32.5459912 L23.5076,30.9850912 L24.0579,29.4602912 L24.6084,27.9715912 L25.1585,26.5175912 L25.7073,25.1038912 L26.2551,23.7301912 L26.8012,22.3949912 L27.3445,21.1044912 L27.8853,19.8579912 L28.4231,18.6537912 L28.9562,17.4988912 L29.4854,16.3921912 L30.0098,15.3319912 L30.5274,14.3260912 L31.0392,13.3726912 L31.5439,12.4704912 L32.0387,11.6280912 L32.525,10.8430912 L33.0008,10.1144912 L33.4616,9.45239118 L33.9117,8.85029118 L34.2498,8.42989118 L34.5701,8.06599118 L34.8757,7.75209118 L35.1614,7.48649118 L35.4177,7.27649118 L35.6533,7.10969118 L35.8609,6.98299118 L36.0281,6.90019118 L36.173,6.84499118 L36.2895,6.81179118 L36.3684,6.79869118 L36.443,6.79579118 L36.511,6.79899118 L36.5691,6.80929118 L36.6523,6.83439118 L36.754,6.87449118 L36.8676,6.93359118 L37.0133,7.02719118 L37.1798,7.15159118 L37.3585,7.30759118 L37.5587,7.50759118 L37.7714,7.74379118 L37.9901,8.01479118 L38.2195,8.32899118 L38.4544,8.67809118 L38.6903,9.06039118 L38.9305,9.48189118 L39.1717,9.93509118 L39.4113,10.4185912 L39.6402,10.9118912 L40.127,12.0572912 L40.5905,13.2873912 L41.0423,14.6264912 L41.4807,16.0543912 L41.9017,17.5691912 L42.306,19.1681912 L42.6938,20.8354912 L43.0623,22.5684912 L43.4118,24.3639912 L43.7435,26.2088912 L44.0549,28.0995912 L44.347,30.0373912 L44.4828,31.0147912 L44.6191,31.9962912 L44.7451,32.9912912 L44.8711,33.9868912 L44.9868,34.9923912 L45.1028,35.9997912 L45.2092,37.0132912 L45.3155,38.0260912 L45.4112,39.0428912 L45.507,40.0597912 L45.5921,41.0774912 L45.6774,42.0965912 L45.7529,43.1134912 L45.8284,44.1293912 L45.8931,45.1398912 L45.9579,46.1504912 L46.0118,47.1522912 L46.0659,48.1552912 L46.1101,49.1476912 L46.1541,50.1342912 L46.2209,52.0911912 L46.2658,54.0081912 L46.291,55.8860912 L46.2942,57.7133912 L46.2755,59.4857912 L46.237,61.2011912 L46.1768,62.8454912 L46.0941,64.4248912 L46.0463,65.1713912 L45.9926,65.9048912 L45.9336,66.6166912 L45.8698,67.3068912 L45.8009,67.9709912 L45.7261,68.6161912 L45.6425,69.2954912 L45.5519,70.0159912 L45.455,70.7714912 L45.3523,71.5578912 L45.2437,72.3770912 L45.1289,73.2287912 L45.0086,74.1089912 L44.8822,75.0197912 L44.7498,75.9605912 L44.6119,76.9276912 L44.4681,77.9229912 L44.3187,78.9446912 L44.1609,80.0047912 L44.0033,81.0631912 L43.8343,82.1720912 L43.6653,83.2807912 L43.485,84.4363912 L43.3046,85.5921912 L43.1141,86.7879912 L42.9237,87.9831912 L42.7223,89.2191912 L42.521,90.4550912 L42.3089,91.7283912 L42.0968,93.0019912 L41.8751,94.3068912 L41.6534,95.6110912 L41.4213,96.9467912 L41.1893,98.2823912 L40.9471,99.6457912 L40.7048,101.009491 L40.4533,102.395991 L40.2021,103.781891 L39.9409,105.189691 L39.6798,106.597191 L39.4089,108.023291 L39.1386,109.446991 L38.8554,110.890791 L38.5707,112.342291 L38.2859,113.793691 L38.0037,115.232791 L37.703,116.691291 L37.3999,118.161991 L37.0968,119.632591 L36.7966,121.089491 L36.4789,122.551991 L36.1582,124.028191 L35.8375,125.504391 L35.519,126.970291 L35.1891,128.433191 L34.8586,129.898191 L34.5199,131.356891 L34.1813,132.815191 L33.8347,134.263791 L33.4881,135.712791 L33.1342,137.150191 L32.7808,138.586191 L32.4197,140.006591 L32.0587,141.426291 L31.6903,142.826891 L31.3219,144.227891 L30.9468,145.608791 L30.5722,146.987791 L30.1906,148.341791 L29.8092,149.694891 L29.4209,151.019391 L29.0326,152.344191 L28.6382,153.640391 L28.2446,154.934291 L27.8445,156.193491 L27.4449,157.451491 L27.039,158.671391 L26.6317,159.895991 L26.2235,161.083291 L25.8116,162.251691 L25.3969,163.398091 L24.9799,164.522791 L24.561,165.621791 L24.1396,166.696391 L23.7162,167.746791 L23.2914,168.768791 L22.8643,169.763791 L22.4358,170.732191 L22.0065,171.669191 L21.5752,172.576791 L21.1432,173.455191 L20.7114,174.299091 L20.2782,175.110791 L19.8451,175.890791 L19.4136,176.632791 L18.9816,177.340091 L18.5511,178.012791 L18.1243,178.643991 L17.6984,179.237991 L17.2761,179.794591 L16.8612,180.306191 L16.4435,180.784691 L16.1717,181.075291 L15.9184,181.324791 L15.6839,181.534991 L15.4735,181.706891 L15.2975,181.833891 L15.1473,181.927491 L15.0309,181.990091 L14.9627,182.019491 L14.9242,182.031491 L14.9227,182.032691 L14.9688,182.028191 L15.025,182.028391 L15.0917,182.038191 L15.1703,182.058591 L15.219,182.076891 L15.2439,182.090491 L15.2515,182.095091 L15.2211,182.068691 L15.1659,182.014791 L15.0959,181.933791 L15.0035,181.810391 L14.8984,181.653591 L14.7877,181.466291 L14.69,181.284191 L14.4176,180.691291 L14.1689,180.028591 L13.9242,179.247091 L13.6892,178.371491 L13.4694,177.406491 L13.2644,176.352391 L13.0742,175.226591 L12.9012,174.031891 L12.7443,172.769691 L12.6021,171.453091 L12.4759,170.084791 L12.3653,168.673991 L12.2733,167.193391 L12.1815,165.718291 L12.1166,164.182591 L12.0513,162.642291 L12.0092,161.062691 L11.9669,159.478191 L11.9429,157.874591 L11.9189,156.269791 L11.9117,154.662591 L11.9045,153.052391 L11.9105,151.460791 L11.9165,149.864291 L11.9296,148.294691 L11.947,146.745091 L11.9677,145.222291 L11.9907,143.728191 L12.0153,142.270291 L12.0407,140.853591 L12.0661,139.478391 L12.0906,138.153391 L12.1133,136.883691 L12.1338,135.667991 L12.1508,134.515491 L12.1635,133.434491 L12.1772,132.070191 L12.191,130.707791 L12.2047,129.345491 L12.2185,127.982991 L12.2322,126.620691 L12.246,125.258291 L12.2597,123.895991 L12.2735,122.534691 L12.2884,121.173291 L12.3033,119.810791 L12.3182,118.448191 L12.3331,117.085591 L12.348,115.722991 L12.3629,114.360491 L12.3778,112.997891 L12.3927,111.637691 L12.41,110.277491 L12.4273,108.914791 L12.4447,107.552091 L12.462,106.189591 L12.4793,104.826891 L12.4966,103.464191 L12.5139,102.101591 L12.5312,100.742091 L12.5517,99.3825912 L12.5722,98.0198912 L12.5927,96.6571912 L12.6132,95.2946912 L12.6337,93.9319912 L12.6542,92.5692912 L12.6747,91.2066912 L12.6951,89.8484912 L12.7201,88.4904912 L12.7452,87.1278912 L12.7703,85.7653912 L12.7954,84.4027912 L12.8205,83.0402912 L12.8456,81.6776912 L12.8706,80.3151912 L12.8956,78.9583912 L12.9264,77.6016912 L12.9574,76.2393912 L12.9883,74.8769912 L13.0192,73.5146912 L13.0501,72.1521912 L13.0811,70.7898912 L13.112,69.4274912 L13.1428,68.0712912 L13.1798,66.7152912 L13.2171,65.3532912 L13.2543,63.9911912 L13.2915,62.6289912 L13.3288,61.2669912 L13.366,59.9047912 L13.4032,58.5426912 L13.4402,57.1884912 L13.4852,55.8345912 L13.5305,54.4727912 L13.5757,53.1110912 L13.621,51.7492912 L13.6663,50.3875912 L13.7115,49.0257912 L13.7568,47.6640912 L13.8017,46.3113912 L13.8559,44.9591912 L13.9104,43.5978912 L13.9649,42.2365912 L14.0194,40.8753912 L14.074,39.5139912 L14.1285,38.1526912 L14.183,36.7913912 L14.2373,35.4369912 L14.2984,34.0828912 L14.3599,32.7218912 L14.4214,31.3609912 L14.4826,30.0054912 L14.5493,28.6501912 L14.6162,27.2895912 L14.6831,25.9289912 L14.7498,24.5739912 L14.8222,23.2191912 L14.8949,21.8589912 L14.9676,20.4986912 L15.0399,19.1437912 L15.1178,17.7891912 L15.196,16.4290912 L15.2742,15.0690912 L15.352,13.7152912 L15.4362,12.3618912 L15.5206,11.0022912 L15.6051,9.64259118 L15.6892,8.28959118 L15.7799,6.93679118 L15.871,5.57749118 L15.9622,4.21829118 L16.0533,2.85899118 C16.1521,1.38219118 15.035,0.104891182 13.5582,0.00609118234 C12.0814,-0.0928088177 10.804,1.02439118 10.7052,2.50119118 Z" id="Fill-309"></path>
        </g>
    </g>
</svg>
