<?xml version="1.0" encoding="UTF-8"?>
<svg width="105px" height="245px" viewBox="0 0 105 245" version="1.1" xmlns="http://www.w3.org/2000/svg" xmlns:xlink="http://www.w3.org/1999/xlink">
    <title>149</title>
    <g id="Page-1" stroke="none" stroke-width="1" fill="none" fill-rule="evenodd">
        <g id="149" transform="translate(0.941911, 0.767200)" fill="currentColor">
            <path d="M6.0314,179.7 L5.7735,180.1122 L5.5502,180.4464 L5.342,180.7362 L5.1528,180.9811 L4.991,181.1718 L4.8538,181.3167 L4.7505,181.4146 L4.6992,181.4566 L4.6952,181.4591 L4.7569,181.4284 L4.9131,181.3714 L5.1323,181.3261 L5.4119,181.3173 L5.738,181.3659 L6.016,181.4612 L6.233,181.5816 L6.3894,181.7029 L6.4625,181.7763 L6.4821,181.8014 L6.4684,181.7788 L6.4227,181.6902 L6.36,181.5507 L6.2896,181.366 L6.2116,181.1276 L6.1312,180.8476 L6.0519,180.5293 L5.9736,180.1674 L5.8978,179.7706 L5.8263,179.3403 L5.7588,178.8727 L5.6956,178.3743 L5.6377,177.8455 L5.585,177.2835 L5.5372,176.6935 L5.4952,176.0753 L5.4588,175.4269 L5.4276,174.7526 L5.4022,174.052 L5.3826,173.3233 L5.3682,172.5705 L5.3596,171.7929 L5.3567,170.989 L5.3591,170.1627 L5.3672,169.3129 L5.3809,168.4386 L5.3998,167.543 L5.4242,166.6254 L5.454,165.6907 L5.5295,163.7398 L5.5777,162.7322 L5.6261,161.72 L5.6852,160.6681 L5.7443,159.6148 L5.8129,158.5268 L5.8815,157.4392 L5.9604,156.3152 L6.0393,155.1907 L6.1283,154.0314 L6.2174,152.8711 L6.3155,151.6804 L6.4135,150.4903 L6.5212,149.2684 L6.629,148.0463 L6.7462,146.7941 L6.8635,145.541 L6.9893,144.2621 L7.115,142.9837 L7.2499,141.6782 L7.3847,140.3726 L7.5285,139.0416 L7.6723,137.7101 L7.824,136.357 L7.9757,135.0043 L8.1359,133.6293 L8.296,132.2542 L8.4645,130.8587 L8.6331,129.4624 L8.809,128.0491 L8.9849,126.636 L9.1687,125.2055 L9.3524,123.7749 L9.5439,122.3285 L9.7354,120.8817 L9.9338,119.4219 L10.1321,117.9624 L10.3377,116.4903 L10.5433,115.0181 L10.756,113.5348 L10.9688,112.051 L11.1878,110.5586 L11.4068,109.0667 L11.6325,107.5665 L11.8581,106.0665 L12.0903,104.5602 L12.3222,103.0556 L12.5625,101.5451 L12.8039,100.0281 L13.0453,98.511 L13.2852,97.0036 L13.5369,95.4924 L13.7901,93.9718 L14.0434,92.4512 L14.295,90.9402 L14.5575,89.4324 L14.8217,87.9151 L15.0859,86.3976 L15.3485,84.8892 L15.6204,83.3892 L15.8939,81.8801 L16.1674,80.371 L16.439,78.8722 L16.7199,77.3887 L17.0028,75.8948 L17.2858,74.4009 L17.5666,72.9179 L17.8559,71.457 L18.1474,69.9851 L18.4389,68.5133 L18.7288,67.0492 L19.0241,65.6037 L19.3197,64.1561 L19.6191,62.7243 L19.9184,61.2926 L20.2211,59.8782 L20.5239,58.4633 L20.8297,57.0656 L21.1353,55.6686 L21.4439,54.2919 L21.7525,52.9154 L22.0639,51.5611 L22.3754,50.2062 L22.6893,48.8727 L23.003,47.5402 L23.3191,46.2327 L23.6351,44.9256 L23.9533,43.6452 L24.2716,42.3643 L24.5918,41.1091 L24.9116,39.8551 L25.2332,38.6309 L25.5547,37.4071 L25.8778,36.215 L26.2009,35.0222 L26.5253,33.8596 L26.8493,32.6984 L27.1744,31.5718 L27.4993,30.4458 L27.8251,29.3562 L28.151,28.2661 L28.4776,27.2103 L28.8035,26.1566 L29.1298,25.1422 L29.4558,24.1288 L29.782,23.1566 L30.1082,22.1839 L30.4345,21.25 L30.7574,20.3251 L31.4087,18.5465 L32.0599,16.857 L32.3782,16.0614 L32.6991,15.2819 L33.0192,14.5269 L33.3381,13.7959 L33.6548,13.0929 L33.9705,12.4159 L34.2842,11.7645 L34.5949,11.1431 L34.9039,10.5492 L35.2101,9.9824 L35.5118,9.4481 L35.8109,8.9429 L36.1057,8.4667 L36.3939,8.0255 L36.6779,7.6151 L36.9553,7.2359 L37.2222,6.8945 L37.4823,6.5853 L37.7318,6.3093 L37.9643,6.0737 L38.1854,5.8709 L38.3892,5.7012 L38.5659,5.5717 L38.7252,5.4711 L38.8588,5.3985 L38.9541,5.3567 L39.0306,5.3319 L39.0811,5.3195 L39.0966,5.3173 L39.0864,5.3165 L39.4984,5.3508 L39.7781,5.4032 L39.9836,5.4673 L40.1202,5.5261 L40.1865,5.5672 L40.2356,5.6106 L40.2783,5.6569 L40.3148,5.7133 L40.368,5.8268 L40.4271,5.9934 L40.4783,6.2122 L40.5191,6.5075 L40.5431,6.8618 L40.5425,7.2669 L40.5146,7.7326 L40.461,8.2435 L40.3791,8.7934 L40.2684,9.387 L40.1329,10.0137 L39.9722,10.6693 L39.7865,11.3566 L39.5802,12.0678 L39.3537,12.8004 L39.1124,13.5423 L38.5709,15.1171 L37.9824,16.7326 L37.358,18.3904 L36.7148,20.0736 L36.0661,21.7711 L35.4294,23.4682 L34.8166,25.1563 L34.2446,26.8257 L33.7385,28.44 L33.5008,29.2647 L33.2888,30.0628 L33.1004,30.8476 L32.9349,31.6234 L32.7963,32.393 L32.6913,33.1322 L32.5128,34.5936 L32.3421,35.9989 L32.1772,37.3638 L32.0174,38.6929 L31.8631,39.9838 L31.7143,41.2371 L31.5703,42.457 L31.4315,43.6416 L31.2978,44.7914 L31.1686,45.9104 L31.0443,46.9967 L30.9247,48.051 L30.8093,49.0772 L30.6985,50.0734 L30.592,51.0404 L30.4895,51.9817 L30.3911,52.8959 L30.2968,53.7837 L30.2061,54.6483 L30.1193,55.4885 L30.0362,56.3051 L29.9563,57.1011 L29.88,57.8755 L29.8068,58.6311 L29.67,60.0822 L29.5452,61.4634 L29.4317,62.7796 L29.3277,64.0434 L29.2333,65.2569 L29.1475,66.4269 L29.0688,67.5641 L28.997,68.6726 L28.9312,69.759 L28.87,70.832 L28.8129,71.8977 L28.7591,72.9641 L28.7082,74.0408 L28.6575,75.1172 L28.608,76.2382 L28.5587,77.3561 L28.5065,78.5509 L28.4544,79.7442 L28.3984,81.0047 L28.3385,82.324 L28.2736,83.7103 L28.2034,85.1642 L28.1265,86.699 L28.0418,88.3248 L27.9967,89.1685 L27.9493,90.0382 L27.8996,90.9342 L27.8475,91.8548 L27.7929,92.8029 L27.7356,93.78 L27.6757,94.7843 L27.6129,95.8191 L27.547,96.8856 L27.4782,97.9817 L27.4062,99.1111 L27.3308,100.275 L27.2522,101.4711 L27.17,102.7031 L27.0841,103.9727 L26.9947,105.2768 L26.9013,106.6196 L26.8039,108.0027 L26.7027,109.4227 L26.5972,110.8845 L26.4872,112.3892 L26.3732,113.9335 L26.2545,115.5222 L26.1308,117.1602 L26.0566,118.1803 L25.9821,119.204 L25.9114,120.2632 L25.8409,121.3211 L25.7734,122.4127 L25.706,123.5029 L25.6409,124.6225 L25.5757,125.7416 L25.5125,126.8914 L25.4493,128.0402 L25.3873,129.218 L25.3253,130.3949 L25.2638,131.5968 L25.2023,132.798 L25.1408,134.0253 L25.0793,135.2517 L25.017,136.5023 L24.9548,137.7522 L24.8913,139.0228 L24.8278,140.2927 L24.7623,141.5838 L24.6969,142.874 L24.6287,144.1837 L24.5606,145.4929 L24.4895,146.8185 L24.4184,148.1431 L24.3434,149.484 L24.2684,150.8242 L24.1889,152.1791 L24.1093,153.5337 L24.025,154.9 L23.9408,156.2655 L23.8507,157.6424 L23.7607,159.0184 L23.6641,160.4043 L23.5678,161.7871 L23.4615,163.1803 L23.3545,164.5822 L23.2476,165.9839 L23.1418,167.371 L23.0193,168.7682 L22.8956,170.1801 L22.7719,171.5921 L22.6498,172.9862 L22.5082,174.3836 L22.3649,175.7985 L22.2217,177.2133 L22.0804,178.6098 L21.9192,180.0032 L21.7559,181.4153 L21.5926,182.8273 L21.4322,184.2161 L21.2475,185.5954 L21.0598,186.9979 L20.872,188.4007 L20.6881,189.7765 L20.4772,191.1356 L20.2622,192.5219 L20.0473,193.9081 L19.8356,195.2739 L19.6041,196.6249 L19.372,197.9802 L19.1246,199.3225 L18.8774,200.6638 L18.6143,201.9904 L18.3512,203.3176 L18.0729,204.6301 L17.7954,205.9398 L17.5006,207.2317 L17.2063,208.5225 L16.8942,209.7935 L16.582,211.0654 L16.2531,212.318 L15.9252,213.5675 L15.5783,214.7941 L15.232,216.0194 L14.8661,217.2201 L14.5002,218.4219 L14.1158,219.5999 L13.733,220.7742 L13.3294,221.9207 L12.9268,223.0656 L12.5028,224.1809 L12.0787,225.2977 L11.6346,226.3864 L11.1929,227.4705 L10.7287,228.522 L10.2659,229.5717 L9.7801,230.5871 L9.294,231.6041 L8.7866,232.5885 L8.2827,233.568 L7.7548,234.51 L7.229,235.4501 L6.6786,236.3511 L6.1137,237.2768 L5.9351,237.5506 L5.7613,237.8026 L5.604,238.0159 L5.4669,238.1897 L5.3586,238.3153 L5.2774,238.3998 L5.2336,238.4413 L5.2485,238.4303 L5.3218,238.3836 L5.4782,238.3089 L5.757,238.2226 L6.1209,238.1779 L6.551,238.2141 L7.0019,238.3554 L7.3502,238.5536 L7.5925,238.7616 L7.7486,238.9461 L7.8216,239.0589 L7.8481,239.1118 L7.8494,239.114 L7.8309,239.0546 L7.8034,238.9505 L7.7734,238.8091 L7.7474,238.6626 L7.6833,238.1636 L7.6398,237.5921 L7.6139,236.9148 L7.6055,236.1548 L7.6167,235.3164 L7.6469,234.4022 L7.6937,233.4267 L7.7579,232.3911 L7.8385,231.2986 L7.9332,230.1598 L8.0421,228.976 L8.1642,227.7505 L8.2973,226.492 L8.4414,225.2023 L8.5954,223.885 L8.7573,222.547 L8.9268,221.1909 L9.1026,219.8224 L9.2857,218.44 L9.4687,217.0581 L9.6579,215.6759 L9.8474,214.2915 L10.0382,212.9257 L10.2293,211.5578 L10.4178,210.2213 L10.6064,208.8833 L10.7879,207.5963 L10.9697,206.307 L11.1394,205.0872 L11.3091,203.8668 L11.4687,202.7001 L11.6191,201.5794 L11.7592,200.5087 L11.8891,199.4865 L12.0068,198.5203 L12.1098,197.6255 L12.2298,196.5852 L12.3497,195.5447 L12.4696,194.5042 L12.5896,193.4635 L12.7095,192.423 L12.8294,191.3825 L12.9493,190.3419 L13.0681,189.3107 L13.1945,188.2804 L13.3221,187.2407 L13.4497,186.2011 L13.5772,185.1615 L13.7048,184.1218 L13.8324,183.0822 L13.9599,182.0425 L14.0867,181.0098 L14.219,179.9777 L14.3522,178.9386 L14.4854,177.8997 L14.6186,176.8607 L14.7518,175.8217 L14.8851,174.7827 L15.0183,173.7438 L15.1509,172.7091 L15.2871,171.6748 L15.4239,170.6362 L15.5606,169.5977 L15.6974,168.5592 L15.8341,167.5206 L15.9709,166.4821 L16.1076,165.4435 L16.244,164.4076 L16.3826,163.3718 L16.5214,162.3336 L16.6603,161.2953 L16.7992,160.2571 L16.9381,159.2188 L17.077,158.1804 L17.2158,157.1422 L17.3547,156.1041 L17.4937,155.0661 L17.6327,154.0278 L17.7717,152.9895 L17.9107,151.9513 L18.0497,150.9131 L18.1887,149.8749 L18.3277,148.8367 L18.4668,147.797 L18.6131,146.6955 L18.7594,145.5938 L18.9062,144.479 L19.0529,143.3646 L19.1998,142.2378 L19.3467,141.1112 L19.4942,139.9739 L19.6418,138.8368 L19.7902,137.6884 L19.9386,136.5402 L20.088,135.3814 L20.2374,134.2229 L20.3886,133.0509 L20.5397,131.8789 L20.6908,130.7069 L20.8418,129.5357 L20.9959,128.3463 L21.15,127.1564 L21.3042,125.9664 L21.4581,124.7782 L21.6157,123.5746 L21.7735,122.3693 L21.9314,121.1638 L22.0889,119.9608 L22.2503,118.7459 L22.412,117.5285 L22.5738,116.3111 L22.735,115.0972 L22.9012,113.8722 L23.0678,112.6439 L23.2344,111.4157 L23.4004,110.1917 L23.572,108.9594 L23.7442,107.7227 L23.9163,106.486 L24.0878,105.2539 L24.2649,104.0164 L24.4427,102.7741 L24.6204,101.5318 L24.7973,100.2954 L24.9809,99.0551 L25.1654,97.8089 L25.3499,96.5626 L25.5334,95.3234 L25.7242,94.0827 L25.9162,92.835 L26.1081,91.5874 L26.2989,90.3468 L26.4963,89.107 L26.6946,87.86 L26.8929,86.6129 L27.0899,85.3747 L27.2954,84.1394 L27.5023,82.8955 L27.7093,81.6515 L27.9146,80.4174 L28.1291,79.1887 L28.3453,77.9505 L28.5615,76.7122 L28.776,75.4835 L28.9995,74.2621 L29.2247,73.0309 L29.4499,71.7997 L29.6729,70.5802 L29.9063,69.3709 L30.142,68.1498 L30.3777,66.9286 L30.6108,65.7205 L30.855,64.5249 L31.1018,63.3164 L31.3487,62.108 L31.5928,60.9122 L31.8476,59.7301 L32.1051,58.5352 L32.3626,57.3402 L32.6167,56.1605 L32.8831,54.9981 L33.1529,53.8201 L33.4228,52.6422 L33.6887,51.4811 L33.9675,50.3397 L34.2503,49.1815 L34.5332,48.0233 L34.813,46.8773 L35.102,45.7461 L35.3916,44.612 L35.6881,43.4894 L35.9845,42.3673 L36.2879,41.2573 L36.5915,40.1467 L36.9016,39.0479 L37.2113,37.9502 L37.5282,36.8659 L37.8448,35.7819 L38.169,34.7119 L38.4965,33.631 L38.6545,33.1107 L38.8201,32.5501 L38.9899,31.9627 L39.1638,31.3521 L39.3423,30.7172 L39.5255,30.0598 L39.9028,28.697 L40.298,27.2699 L40.7095,25.7996 L41.1349,24.3064 L41.5743,22.8064 L42.027,21.3184 L42.4898,19.8596 L42.9618,18.4531 L43.4418,17.1174 L43.9253,15.8674 L44.4074,14.7363 L44.8987,13.715 L45.118,13.3014 L45.3423,12.9107 L45.5592,12.5664 L45.7625,12.2726 L45.942,12.0429 L46.0978,11.8706 L46.2148,11.7586 L46.2671,11.7171 L46.2586,11.7208 L46.1697,11.7507 L45.9863,11.7807 L45.7892,11.7748 L45.615,11.7312 L45.4942,11.6757 L45.4797,11.6677 L45.5429,11.7247 L45.6606,11.8626 L45.8251,12.0976 L46.1861,12.6941 L46.5224,13.3357 L46.8439,14.0419 L47.1488,14.8015 L47.4323,15.6138 L47.6963,16.4856 L47.9411,17.4069 L48.1632,18.377 L48.3637,19.401 L48.5441,20.4699 L48.7016,21.5835 L48.8372,22.7455 L48.9526,23.9479 L49.0459,25.1911 L49.1177,26.4776 L49.17,27.8004 L49.2012,29.1602 L49.2117,30.5586 L49.2026,31.9896 L49.1724,33.4539 L49.1227,34.9523 L49.0557,36.4799 L48.9701,38.0369 L48.8663,39.6242 L48.7464,41.2371 L48.6094,42.8759 L48.4556,44.5412 L48.2869,46.2288 L48.1026,47.9387 L47.9028,49.6715 L47.6897,51.4231 L47.4622,53.1939 L47.2209,54.9837 L46.9674,56.7892 L46.7011,58.6102 L46.4229,60.4444 L46.1277,62.302 L45.8331,64.1569 L45.5168,66.0341 L45.2003,67.9122 L44.8643,69.8076 L44.5281,71.7046 L44.1757,73.6134 L43.8235,75.5222 L43.4554,77.4396 L43.0873,79.3578 L42.7056,81.2797 L42.3242,83.2001 L41.9275,85.1178 L41.5289,87.0443 L41.1303,88.9707 L40.734,90.8862 L40.322,92.7833 L39.9076,94.6915 L39.4932,96.5996 L39.0807,98.4992 L38.6611,100.3605 L38.2396,102.2306 L37.8181,104.1008 L37.3977,105.9661 L36.9769,107.7955 L36.5556,109.627 L36.1365,111.4264 L35.7173,113.2263 L35.3024,114.9895 L34.8873,116.7533 L34.478,118.4798 L34.0685,120.2066 L33.6672,121.8878 L33.2658,123.5697 L32.8747,125.2013 L32.4834,126.8335 L32.1003,128.4287 L31.7236,129.9961 L31.354,131.5342 L30.9913,133.0447 L30.6365,134.5238 L30.2903,135.9702 L29.9522,137.3861 L29.6236,138.7674 L29.3051,140.1126 L28.996,141.4243 L28.6979,142.6983 L28.4113,143.9329 L28.1355,145.1311 L27.872,146.2885 L27.6215,147.4033 L27.3832,148.479 L27.1586,149.5111 L26.9484,150.4977 L26.7517,151.4426 L26.57,152.3414 L26.4042,153.1923 L26.2531,153.9995 L26.1183,154.7597 L26.0008,155.47 L25.8155,156.6616 L25.6313,157.8456 L25.4472,159.0294 L25.263,160.2133 L25.0789,161.3971 L24.8947,162.5809 L24.7106,163.7649 L24.5256,164.9545 L24.3466,166.1452 L24.1686,167.33 L23.9906,168.5149 L23.8125,169.6997 L23.6345,170.8847 L23.4564,172.0695 L23.2784,173.2543 L23.1002,174.4401 L22.9229,175.626 L22.7458,176.8109 L22.5687,177.996 L22.3915,179.1809 L22.2144,180.366 L22.0372,181.5509 L21.8601,182.736 L21.6834,183.9179 L21.5035,185.0991 L21.323,186.2836 L21.1426,187.468 L20.9622,188.6525 L20.7818,189.8369 L20.6014,191.0215 L20.4211,192.2059 L20.242,193.3827 L20.0548,194.558 L19.8663,195.7411 L19.6778,196.9242 L19.4893,198.1073 L19.3008,199.2904 L19.1123,200.4735 L18.9239,201.6566 L18.7374,202.8272 L18.5377,203.9954 L18.3359,205.1763 L18.134,206.3572 L17.9322,207.5381 L17.7303,208.719 L17.5285,209.8998 L17.3267,211.0807 L17.1242,212.2653 L17.0208,212.8897 L16.9234,213.5665 L16.8345,214.2727 L16.7522,215.0055 L16.6762,215.7677 L16.6057,216.5548 L16.5397,217.3633 L16.4779,218.1944 L16.4197,219.0438 L16.3642,219.9083 L16.311,220.7876 L16.2596,221.6795 L16.16,223.4801 L16.0611,225.2984 L15.9581,227.1082 L15.8479,228.8903 L15.7258,230.6193 L15.5874,232.272 L15.4311,233.8316 L15.2527,235.2619 L15.0451,236.5614 L14.9393,237.1137 L14.8251,237.6331 L14.7061,238.0977 L14.5862,238.5026 L14.4708,238.8301 L14.3629,239.082 L14.2775,239.2482 L14.2428,239.3029 L14.2772,239.2663 L14.4273,239.1564 L14.7359,239.0221 L15.0933,238.9677 L15.4009,239.0042 L15.5891,239.072 L15.6082,239.0801 L15.5142,239.0026 L15.342,238.8241 L15.1131,238.5436 L14.8577,238.1774 L14.6182,237.7555 L14.3788,237.2461 L14.1468,236.6642 L13.9297,236.0115 L13.7269,235.2805 L13.5398,234.485 L13.3726,233.6259 L13.2247,232.6986 L13.0953,231.7145 L12.9869,230.6735 L12.8992,229.5725 L12.8302,228.4212 L12.782,227.2185 L12.7541,225.9629 L12.7444,224.6621 L12.7544,223.3152 L12.7838,221.9212 L12.8305,220.4868 L12.8957,219.011 L12.9791,217.4934 L13.0786,215.9401 L13.1953,214.3497 L13.3288,212.7227 L13.4773,211.064 L13.6415,209.3729 L13.8212,207.6496 L14.0146,205.8989 L14.2224,204.1203 L14.4442,202.314 L14.6783,200.4844 L14.9255,198.6311 L15.1853,196.7548 L15.4561,194.859 L15.7386,192.944 L16.0319,191.0121 L16.3402,189.0537 L16.6487,187.0949 L16.8113,186.1099 L16.9757,185.1139 L17.1401,184.1179 L17.3032,183.1295 L17.475,182.1303 L17.6481,181.1237 L17.8212,180.1172 L17.9932,179.1168 L18.1723,178.1091 L18.3524,177.0954 L18.5326,176.0816 L18.7116,175.0741 L18.8975,174.0613 L19.0846,173.0423 L19.2716,172.0232 L19.4576,171.0099 L19.6494,169.9944 L19.8422,168.9733 L20.0351,167.952 L20.2266,166.9379 L20.4244,165.9256 L20.6236,164.9063 L20.8227,163.8871 L21.0219,162.8678 L21.2211,161.8486 L21.4202,160.8294 L21.6194,159.8102 L21.8168,158.7997 L22.0203,157.8013 L22.2256,156.794 L22.431,155.7866 L22.6363,154.7793 L22.8417,153.772 L23.047,152.7647 L23.2523,151.7573 L23.4562,150.7573 L23.6619,149.7818 L23.8693,148.7987 L24.0766,147.8156 L24.2839,146.8325 L24.4913,145.8495 L24.6986,144.8665 L24.9059,143.8833 L25.112,142.9061 L25.5246,140.9884 L25.9372,139.0707 L26.3463,137.1934 L26.7554,135.3158 L27.159,133.4849 L27.5628,131.6528 L27.9615,129.857 L28.3562,128.0879 L28.7463,126.3474 L29.1317,124.6344 L29.5115,122.9529 L29.8853,121.3045 L30.2531,119.6872 L30.614,118.1056 L30.9673,116.5613 L31.3134,115.0521 L31.651,113.5829 L31.9798,112.155 L32.3,110.7663 L32.6103,109.4215 L32.9103,108.1225 L33.2004,106.8661 L33.4793,105.6581 L33.7464,104.4999 L34.0024,103.3882 L34.2458,102.3289 L34.4759,101.3235 L34.6937,100.3683 L34.8975,99.4694 L35.0867,98.6283 L35.2623,97.841 L35.4226,97.1132 L35.5671,96.4469 L35.6969,95.8367 L35.8104,95.288 L35.9058,94.8087 L36.1546,93.5462 L36.4031,92.2847 L36.6517,91.0232 L36.9003,89.7617 L37.1488,88.5003 L37.3974,87.2388 L37.646,85.9772 L37.8926,84.7251 L38.1504,83.4746 L38.4101,82.2146 L38.6698,80.9546 L38.9295,79.6946 L39.1892,78.4347 L39.4489,77.1747 L39.7086,75.9147 L39.9651,74.6698 L40.2393,73.4288 L40.5167,72.1727 L40.7941,70.9166 L41.0715,69.6604 L41.3489,68.4043 L41.6263,67.1482 L41.9037,65.8921 L42.1781,64.6492 L42.4679,63.4099 L42.7607,62.1576 L43.0535,60.9053 L43.3436,59.6643 L43.6468,58.4268 L43.9528,57.1779 L44.2587,55.9291 L44.5615,54.6929 L44.8791,53.4607 L45.1998,52.216 L45.5206,50.9712 L45.8381,49.739 L46.1702,48.511 L46.5058,47.2704 L46.8413,46.0298 L47.1727,44.8042 L47.5217,43.5838 L47.875,42.3482 L48.2282,41.1127 L48.5766,39.8936 L48.9443,38.6801 L49.3169,37.4502 L49.6894,36.2204 L50.0622,34.9898 L50.2441,34.3869 L50.4287,33.7371 L50.6108,33.0617 L50.7917,32.3633 L50.9719,31.6402 L51.1528,30.8911 L51.5114,29.357 L51.8748,27.7533 L52.2442,26.107 L52.6209,24.438 L53.0078,22.7625 L53.4071,21.1005 L53.819,19.4695 L54.2456,17.8934 L54.6891,16.3916 L55.1471,14.9794 L55.6189,13.6909 L56.1174,12.5158 L56.3494,12.0287 L56.5917,11.5642 L56.8335,11.1467 L57.0692,10.7797 L57.2915,10.4755 L57.5024,10.2267 L57.6909,10.0353 L57.8405,9.9107 L57.9605,9.8335 L58.0387,9.7938 L58.0652,9.7848 L58.0879,9.7826 L58.1174,9.782 L58.1672,9.792 L58.2871,9.8369 L58.4657,9.9279 L58.6941,10.0814 L58.9703,10.3097 L59.2008,10.5399 L59.4208,10.8206 L59.6522,11.1872 L59.8841,11.6272 L60.1057,12.1399 L60.3182,12.7361 L60.5174,13.4008 L60.6976,14.1323 L60.8592,14.9365 L61.0023,15.8009 L61.1235,16.725 L61.2233,17.7122 L61.3034,18.7522 L61.3614,19.8457 L61.3979,20.9948 L61.4148,22.1907 L61.4106,23.4346 L61.3856,24.7276 L61.3421,26.0625 L61.2786,27.4402 L61.1955,28.8616 L61.0952,30.32 L60.9763,31.8167 L60.8393,33.3517 L60.6862,34.9196 L60.5161,36.521 L60.3293,38.156 L60.1279,39.8195 L59.9109,41.5121 L59.6789,43.2337 L59.4336,44.9796 L59.1743,46.7503 L58.9015,48.5452 L58.6169,50.3605 L58.3198,52.1962 L58.0111,54.0496 L57.6863,55.931 L57.3619,57.8103 L57.0167,59.719 L56.6714,61.6286 L56.3075,63.5613 L55.9435,65.4953 L55.5645,67.4453 L55.185,69.3974 L54.9893,70.3733 L54.7919,71.3576 L54.5945,72.3418 L54.3983,73.3205 L54.1959,74.302 L53.9924,75.2893 L53.7889,76.2765 L53.5868,77.2569 L53.3781,78.2365 L53.168,79.2229 L52.9579,80.2094 L52.7478,81.1958 L52.5377,82.1823 L52.3276,83.1687 L52.1174,84.1552 L51.9099,85.13 L51.4782,87.0762 L51.0449,89.0282 L50.6117,90.9802 L50.1801,92.9253 L49.745,94.8244 L49.3083,96.7307 L48.8716,98.637 L48.4358,100.5392 L48.0022,102.3977 L47.5683,104.2577 L47.1387,106.0784 L46.7089,107.8994 L46.2857,109.6751 L45.8622,111.4516 L45.4446,113.1929 L45.0315,114.9081 L44.6237,116.5951 L44.2212,118.2551 L43.8249,119.8843 L43.4355,121.4809 L43.0527,123.0468 L42.6778,124.5774 L42.3112,126.0712 L41.9527,127.5304 L41.6036,128.9502 L41.2645,130.3289 L40.9348,131.6692 L40.6161,132.9657 L40.3089,134.2171 L40.0125,135.426 L39.7286,136.5872 L39.4578,137.6989 L39.1992,138.7647 L38.9546,139.7785 L38.7245,140.7388 L38.508,141.6496 L38.307,142.5048 L38.122,143.3026 L37.9519,144.0477 L37.7984,144.7344 L37.6624,145.3609 L37.5423,145.9331 L37.4397,146.447 L37.3568,146.8939 L37.1778,147.8934 L36.9995,148.8892 L36.8212,149.8849 L36.6429,150.8806 L36.4646,151.8762 L36.2863,152.872 L36.108,153.8677 L35.9305,154.8594 L35.7491,155.8504 L35.567,156.8455 L35.3849,157.8405 L35.2028,158.8355 L35.0207,159.8305 L34.8386,160.8255 L34.6565,161.8206 L34.475,162.8124 L34.2905,163.8037 L34.1055,164.7982 L33.9204,165.7927 L33.7353,166.7871 L33.5502,167.7816 L33.3652,168.7761 L33.1801,169.7706 L32.9954,170.763 L32.8087,171.7549 L32.6216,172.7489 L32.4345,173.7431 L32.2473,174.7372 L32.0602,175.7312 L31.8731,176.7254 L31.6859,177.7195 L31.4991,178.7119 L31.3108,179.7041 L31.1221,180.6979 L30.9334,181.6918 L30.7448,182.6856 L30.5561,183.6793 L30.3674,184.6732 L30.1788,185.667 L29.9902,186.6601 L29.801,187.653 L29.6116,188.6466 L29.4222,189.6403 L29.2328,190.6339 L29.0434,191.6276 L28.8541,192.6212 L28.6647,193.6149 L28.4753,194.6087 L28.4068,194.968 L28.333,195.3555 L28.2543,195.7687 L28.1715,196.2038 L28.0845,196.6611 L27.9936,197.1388 L27.8024,198.1432 L27.5996,199.2073 L27.3881,200.3151 L27.171,201.4496 L26.9504,202.5993 L26.7292,203.7478 L26.5099,204.8823 L26.2952,205.9872 L26.088,207.046 L25.8902,208.0499 L25.7052,208.9785 L25.5357,209.8174 L25.4577,210.1985 L25.3845,210.5523 L25.3168,210.8753 L25.2544,211.1677 L25.1986,211.4237 L25.1499,211.6408 L25.1088,211.8174 L25.0785,211.9408 L25.0638,211.9957 L25.0546,212.0221 L25.1813,211.711 L25.1812,211.7112 L25.1811,211.7114 L25.1809,211.7118 L25.1806,211.7123 L25.1803,211.713 L25.1799,211.7138 L25.1794,211.7147 L25.1789,211.7158 L25.1783,211.7169 L25.1776,211.7183 L25.1769,211.7197 L25.1761,211.7213 L25.1752,211.723 L25.1743,211.725 L25.1733,211.7269 L25.1834,211.7072 L25.2085,211.6602 L25.2399,211.6051 L25.28,211.5401 L25.3321,211.4627 L25.4014,211.3701 L25.4959,211.2592 L25.6278,211.1267 L25.8162,210.9727 L26.0878,210.8049 L26.472,210.6514 L26.9754,210.5689 L27.5422,210.6211 L28.0617,210.8148 L28.4546,211.0835 L28.717,211.354 L28.8094,211.4767 L28.8089,211.476 L28.8084,211.4754 L28.8079,211.4746 L28.8075,211.4741 L28.8071,211.4735 L28.8068,211.473 L28.8065,211.4726 L28.8062,211.4722 L28.806,211.4718 L28.8058,211.4716 L28.8056,211.4713 L28.8055,211.4711 L28.8053,211.471 L28.8053,211.4708 L28.8052,211.4708 L29.1873,212.6505 L29.1847,212.7215 L29.1851,212.7249 L29.1972,212.614 L29.2196,212.4339 L29.2528,212.189 L29.2964,211.8843 L29.5746,210.0167 L29.853,208.1474 L30.1314,206.2781 L30.4087,204.4155 L30.6994,202.5479 L30.9912,200.6734 L31.2829,198.7988 L31.5735,196.9313 L31.8776,195.0593 L32.1829,193.1804 L32.4881,191.3015 L32.7923,189.4291 L33.1089,187.5535 L33.4266,185.6713 L33.7442,183.7892 L34.0607,181.9142 L34.3909,180.0365 L34.7224,178.1516 L35.0539,176.2666 L35.3841,174.3891 L35.7282,172.5097 L36.0737,170.6228 L36.4192,168.736 L36.7634,166.856 L37.1205,164.9749 L37.4788,163.0871 L37.8371,161.1991 L38.194,159.3189 L38.5652,157.4382 L38.9378,155.5501 L39.3105,153.6619 L39.6816,151.7814 L40.0671,149.9014 L40.4542,148.0138 L40.8414,146.1261 L41.227,144.2456 L41.6259,142.3662 L42.0263,140.4798 L42.4267,138.5933 L42.8255,136.7149 L43.2389,134.8384 L43.6541,132.954 L44.0693,131.0696 L44.4827,129.1935 L44.911,127.3202 L45.3412,125.4387 L45.7715,123.5574 L46.1999,121.6835 L46.6421,119.813 L47.086,117.9351 L47.53,116.057 L47.9719,114.1875 L48.429,112.3225 L48.8882,110.449 L49.3474,108.5755 L49.8045,106.7107 L50.277,104.8512 L50.7516,102.9832 L51.2263,101.1151 L51.6989,99.255 L52.1856,97.4007 L52.6745,95.5381 L53.1633,93.6757 L53.6498,91.8222 L54.1519,89.9757 L54.6565,88.1203 L55.1611,86.2647 L55.6631,84.4184 L56.1811,82.58 L56.7016,80.7323 L57.2221,78.8847 L57.7402,77.0455 L58.2727,75.2143 L58.8076,73.3743 L59.3426,71.5343 L59.8747,69.7041 L60.423,67.8832 L60.9742,66.0528 L61.5253,64.2222 L62.0735,62.4015 L62.638,60.5912 L63.2056,58.7709 L63.7732,56.9506 L64.3379,55.1395 L64.9177,53.3385 L65.5003,51.5283 L66.0829,49.718 L66.6622,47.9182 L67.2582,46.1301 L67.8576,44.3317 L68.457,42.5333 L69.0528,40.7455 L69.6654,38.9704 L70.2817,37.1847 L70.898,35.3989 L71.5167,33.6062 L71.7379,32.9345 L71.9473,32.2185 L72.1425,31.4861 L72.3286,30.741 L72.5089,29.9841 L72.6857,29.2261 L73.0417,27.7145 L73.4153,26.2562 L73.8353,24.875 L74.0438,24.2869 L74.2698,23.7262 L74.5062,23.2219 L74.7454,22.7821 L74.979,22.4254 L75.2089,22.1424 L75.4191,21.9329 L75.5941,21.8021 L75.8418,21.6826 L75.847,21.6856 L75.9248,21.6648 L76.0199,21.6491 L76.1274,21.6394 L76.2445,21.6395 L76.3909,21.6521 L76.4922,21.6677 L76.5381,21.6795 L76.5543,21.6861 L76.5427,21.6791 L76.502,21.6511 L76.4653,21.6194 L76.4349,21.5839 L76.4091,21.5462 L76.4031,21.5365 L76.4092,21.5514 L76.4195,21.589 L76.4246,21.5995 L76.4561,21.9201 L76.4453,22.2737 L76.392,22.7311 L76.2984,23.2609 L76.1634,23.8485 L75.9904,24.4893 L75.7884,25.1671 L75.5613,25.8742 L75.3152,26.6055 L75.0575,27.3526 L74.7937,28.11 L74.5273,28.8825 L74.0277,30.4 L73.6035,31.9048 L73.3331,33.3034 L73.1204,34.8757 L72.9156,36.3954 L72.7107,37.9152 L72.5064,39.4308 L72.296,40.9461 L72.085,42.4655 L71.874,43.9848 L71.6636,45.5004 L71.4474,47.0155 L71.2307,48.5346 L71.0139,50.0536 L70.7976,51.5694 L70.5765,53.0847 L70.3548,54.6034 L70.1332,56.1222 L69.9121,57.6375 L69.6858,59.1525 L69.4591,60.6708 L69.2324,62.1892 L69.0062,63.7045 L68.7756,65.2194 L68.5446,66.7374 L68.3136,68.2555 L68.0831,69.7698 L67.847,71.2836 L67.6102,72.8012 L67.3734,74.3187 L67.1366,75.8363 L66.8998,77.3539 L66.6631,78.8716 L66.4263,80.3892 L66.1903,81.9019 L65.947,83.414 L65.7029,84.9308 L65.4589,86.4478 L65.2149,87.9646 L64.9708,89.4816 L64.7268,90.9986 L64.4827,92.5154 L64.2393,94.0285 L63.9902,95.5409 L63.7404,97.0571 L63.4907,98.5734 L63.2409,100.0896 L62.9912,101.6059 L62.7414,103.122 L62.4917,104.6382 L62.2424,106.1519 L61.9892,107.6648 L61.7355,109.1804 L61.4818,110.6959 L61.2281,112.2116 L60.9745,113.7272 L60.7208,115.2428 L60.4671,116.7583 L60.214,118.272 L59.9579,119.7849 L59.7015,121.2999 L59.4451,122.8148 L59.1886,124.3297 L58.9322,125.8447 L58.6758,127.3596 L58.4194,128.8747 L58.1632,130.3886 L57.9055,131.9019 L57.6477,133.4162 L57.3899,134.9304 L57.1322,136.4446 L56.8744,137.9589 L56.6166,139.4732 L56.3588,140.9874 L56.101,142.5016 L55.8432,144.0152 L55.5854,145.5288 L55.3276,147.0425 L55.0698,148.556 L54.812,150.0697 L54.5542,151.5834 L54.2964,153.0969 L54.0385,154.6115 L53.7819,156.1251 L53.5255,157.6382 L53.2691,159.1511 L53.0127,160.6641 L52.7562,162.177 L52.4998,163.69 L52.2434,165.2029 L51.9867,166.7177 L51.7329,168.2317 L51.4794,169.744 L51.226,171.2564 L50.9726,172.7686 L50.7192,174.2809 L50.4658,175.7932 L50.2125,177.3054 L49.9587,178.8201 L49.7894,179.8484 L49.6108,180.9559 L49.4236,182.1361 L49.2291,183.3784 L49.0271,184.6842 L48.8183,186.0475 L48.6039,187.4586 L48.3837,188.9176 L48.1586,190.4184 L47.9294,191.9527 L47.6964,193.5188 L47.4603,195.1112 L47.221,196.7299 L46.9817,198.3484 L46.7396,199.9892 L46.4975,201.6295 L46.2554,203.2688 L46.0134,204.9079 L45.7734,206.5275 L45.5335,208.1467 L45.2983,209.7244 L45.0632,211.3015 L44.8354,212.8139 L44.6077,214.3263 L44.3865,215.7819 L44.1708,217.1896 L43.9614,218.5437 L43.7582,219.8441 L43.5625,221.0801 L43.3749,222.2461 L43.1954,223.3434 L43.0254,224.3595 L42.8656,225.2887 L42.7159,226.1332 L42.5782,226.8776 L42.4523,227.5214 L42.3961,227.7951 L42.343,228.0432 L42.2941,228.2595 L42.2502,228.4434 L42.2135,228.5861 L42.1855,228.6842 L42.1723,228.7262 L42.1946,228.6725 L42.2197,228.6159 L42.4945,228.224 L42.494,228.2245 L42.4931,228.2256 L42.4917,228.2271 L42.4898,228.2291 L42.4875,228.2318 L42.4847,228.2349 L42.4814,228.2385 L42.515,228.2024 L42.5994,228.1193 L42.7058,228.028 L42.8399,227.9304 L43.0079,227.8309 L43.2152,227.7371 L43.464,227.6604 L43.7492,227.6153 L43.8997,227.6085 L43.8969,227.6085 L43.8944,227.6085 L43.8924,227.6085 L43.8907,227.6085 L43.8895,227.6085 L43.8887,227.6085 L43.9058,231.5364 L43.9319,231.5363 L43.914,227.6084 L43.9132,227.6084 L43.912,227.6084 L43.9103,227.6085 L43.9083,227.6085 L43.9058,227.6085 L43.903,227.6085 L44.06,227.6144 L44.3742,227.6648 L44.6643,227.7609 L44.9138,227.8878 L45.1167,228.0287 L45.2758,228.1699 L45.3979,228.303 L45.4908,228.4237 L45.527,228.4768 L45.5246,228.4732 L45.5225,228.47 L45.5208,228.4673 L45.5194,228.4652 L45.5184,228.4636 L45.5177,228.4625 L45.5173,228.4621 L45.7644,229.0034 L45.7828,229.0918 L45.7954,229.1712 L45.7928,229.132 L45.7888,229.0252 L45.7872,228.8639 L45.7893,228.6511 L45.7952,228.3958 L45.8055,228.0971 L45.8205,227.7539 L45.8398,227.3712 L45.864,226.9458 L45.8931,226.4756 L46.0023,224.7744 L46.1142,223.0366 L46.229,221.2639 L46.3466,219.4603 L46.4673,217.6234 L46.5913,215.754 L46.7185,213.856 L46.8492,211.9271 L46.9838,209.9684 L47.122,207.9828 L47.193,206.9765 L47.2641,205.9699 L47.3374,204.9495 L47.4106,203.929 L47.4858,202.8965 L47.561,201.8642 L47.6385,200.8187 L47.7159,199.7736 L47.7958,198.7158 L47.8756,197.658 L47.9576,196.5893 L48.0396,195.5206 L48.1241,194.4404 L48.2086,193.3602 L48.2957,192.2688 L48.3827,191.1781 L48.4734,190.0729 L48.5642,188.9653 L48.6551,187.8579 L48.7456,186.7539 L48.8418,185.6298 L48.9382,184.5023 L49.0347,183.3749 L49.1308,182.2511 L49.2328,181.109 L49.3352,179.9634 L49.4376,178.8179 L49.5396,177.6758 L49.6473,176.5186 L49.7554,175.3579 L49.8634,174.1973 L49.971,173.0408 L50.0852,171.8693 L50.1997,170.6937 L50.3142,169.5181 L50.4283,168.3469 L50.5493,167.1627 L50.6706,165.974 L50.792,164.7853 L50.9129,163.6008 L51.0403,162.406 L51.1682,161.2069 L51.296,160.0078 L51.4234,158.8136 L51.5581,157.6095 L51.6934,156.4005 L51.8286,155.1915 L51.9633,153.9878 L52.1057,152.776 L52.2487,151.5591 L52.3918,150.3421 L52.5342,149.1301 L52.6839,147.9122 L52.8342,146.6895 L52.9846,145.4666 L53.1342,144.2497 L53.2921,143.0278 L53.4507,141.8002 L53.6094,140.5725 L53.7672,139.3511 L53.9337,138.1267 L54.101,136.8961 L54.2684,135.6655 L54.4349,134.4408 L54.6095,133.215 L54.785,131.9832 L54.9604,130.7514 L55.1349,129.5264 L55.319,128.3018 L55.5042,127.0703 L55.6895,125.8389 L55.8736,124.6146 L56.0672,123.3926 L56.262,122.1633 L56.4568,120.934 L56.6505,119.7116 L56.8532,118.4927 L57.0569,117.2667 L57.2607,116.0408 L57.4631,114.8229 L57.6756,113.6104 L57.8895,112.3898 L58.1035,111.1692 L58.3159,109.9572 L58.5387,108.7525 L58.7631,107.5391 L58.9875,106.3256 L59.2104,105.1205 L59.443,103.9234 L59.6772,102.7179 L59.9114,101.5125 L60.1437,100.3167 L60.387,99.1314 L60.6322,97.9363 L60.8775,96.7413 L61.1206,95.5565 L61.3751,94.3842 L61.6317,93.2013 L61.8884,92.0186 L62.1429,90.8457 L62.4079,89.6854 L62.6752,88.5153 L62.9424,87.3451 L63.207,86.1865 L63.4835,85.0435 L63.7628,83.8888 L64.042,82.734 L64.3182,81.5917 L64.6066,80.4667 L64.8982,79.3294 L65.1897,78.192 L65.4782,77.0665 L65.778,75.9584 L66.0811,74.8383 L66.3842,73.7182 L66.6834,72.6118 L66.9953,71.5263 L67.3113,70.4268 L67.6272,69.3272 L67.9388,68.2424 L68.2634,67.1803 L68.5926,66.103 L68.9217,65.0259 L69.2475,63.9594 L69.5824,62.9092 L69.9181,61.8565 L70.2606,60.8161 L70.6029,59.776 L70.9521,58.7488 L71.3014,57.7211 L71.657,56.7055 L72.0121,55.6908 L72.3743,54.69 L72.7363,53.6893 L73.1054,52.703 L73.4746,51.716 L73.8503,50.7422 L74.2256,49.7697 L74.6079,48.812 L74.9901,47.8548 L75.3796,46.913 L75.7693,45.9705 L76.1656,45.0424 L76.5613,44.1156 L76.9644,43.2051 L77.3655,42.2987 L78.1881,40.5073 L79.0222,38.7515 L79.8703,37.0326 L80.7338,35.3494 L81.6106,33.7002 L82.5016,32.0908 L83.4082,30.5194 L84.3284,28.9845 L85.2628,27.492 L86.2135,26.0402 L87.1778,24.6272 L88.1562,23.2593 L89.1547,21.9292 L89.3575,21.6784 L89.5042,21.5204 L89.5796,21.4535 L89.5446,21.4735 L89.3146,21.5647 L88.8856,21.608 L88.3618,21.4729 L87.9612,21.1926 L87.7949,20.9826 L87.7527,20.898 L87.761,20.9291 L87.7891,21.0723 L87.8186,21.2934 L87.8406,21.5794 L87.8528,21.9282 L87.8546,22.325 L87.8443,22.7656 L87.8223,23.2495 L87.7897,23.7678 L87.7462,24.3187 L87.6923,24.9015 L87.6293,25.5098 L87.5573,26.1421 L87.4775,26.7913 L87.2947,28.1607 L87.0869,29.582 L86.8589,31.0431 L86.6173,32.5231 L86.3664,34.0054 L86.1119,35.4708 L85.8589,36.9049 L85.6128,38.287 L85.3796,39.5977 L85.1627,40.8286 L84.9688,41.9559 L84.8058,42.9479 L84.4928,44.8175 L84.1819,46.6743 L83.8409,48.5255 L83.4996,50.379 L83.1326,52.2277 L82.7652,54.0792 L82.3781,55.9271 L81.9908,57.776 L81.5859,59.6216 L81.1806,61.4695 L80.7622,63.3148 L80.3442,65.1616 L79.9158,67.0064 L79.4861,68.8562 L79.0566,70.7061 L78.6271,72.5549 L78.1957,74.4035 L77.7641,76.2529 L77.3325,78.1023 L76.899,79.9596 L76.482,81.82 L76.0667,83.6724 L75.6515,85.5248 L75.236,87.3781 L75.0925,88.0235 L74.9347,88.7019 L74.7603,89.4246 L74.5715,90.1858 L74.3674,90.9876 L74.1483,91.8296 L73.916,92.7069 L73.67,93.6218 L73.4104,94.5736 L73.1391,95.5579 L72.8553,96.5766 L72.5596,97.6292 L72.2534,98.7117 L71.9362,99.8258 L71.6084,100.9708 L71.2715,102.1431 L70.9249,103.3441 L70.5692,104.5734 L70.2057,105.8273 L69.8339,107.1073 L69.4544,108.4125 L69.0683,109.7399 L68.6754,111.0908 L68.2762,112.4643 L67.8692,113.8662 L67.4622,115.2688 L67.0473,116.7112 L66.6328,118.1542 L66.2105,119.6325 L65.7881,121.111 L65.3604,122.6184 L64.9325,124.1265 L64.5003,125.6627 L64.0681,127.1996 L63.6337,128.7608 L63.1993,130.322 L62.7644,131.9024 L62.3294,133.4833 L61.8958,135.0817 L61.4621,136.6806 L61.0317,138.293 L60.6013,139.9054 L60.1756,141.527 L59.7497,143.1494 L59.3307,144.7783 L58.9116,146.4077 L58.5014,148.0399 L58.0905,149.6745 L57.6951,151.3065 L57.3013,152.9314 L56.9076,154.5563 L56.511,156.1933 L56.1428,157.815 L55.7775,159.4245 L55.4122,161.034 L55.0436,162.6581 L54.7114,164.2514 L54.3826,165.8296 L54.0537,167.4079 L53.7213,168.9975 L53.4176,170.558 L53.1144,172.1163 L52.8347,173.6489 L52.555,175.1824 L52.3008,176.6862 L52.0468,178.1897 L51.8176,179.6631 L51.5882,181.1387 L51.3879,182.5778 L51.1876,184.0181 L51.0185,185.418 L50.85,186.8139 L50.7028,188.1891 L50.573,189.5393 L50.4607,190.866 L50.3647,192.1712 L50.2872,193.453 L50.2287,194.7086 L50.1879,195.9407 L50.1671,197.1474 L50.1669,198.3253 L50.186,199.4778 L50.2269,200.603 L50.2901,201.697 L50.3743,202.7639 L50.4823,203.8019 L50.6147,204.8067 L50.7702,205.7825 L50.9523,206.7283 L51.1612,207.6384 L51.3961,208.5183 L51.6615,209.3671 L51.9569,210.1778 L52.2822,210.9562 L52.6436,211.7017 L53.0325,212.3938 L53.3264,212.8524 L53.6335,213.2586 L53.9708,213.6199 L54.373,213.9484 L54.9004,214.226 L55.5446,214.3674 L56.243,214.302 L56.8646,214.026 L57.3022,213.6638 L57.6142,213.282 L57.8508,212.8861 L58.0345,212.4888 L58.1892,212.0789 L58.3246,211.6436 L58.4441,211.1872 L58.5528,210.7075 L58.6525,210.1987 L58.744,209.6651 L58.8291,209.108 L58.9085,208.525 L58.9824,207.9197 L59.052,207.2948 L59.1175,206.6491 L59.1798,205.9815 L59.2951,204.6187 L59.4018,203.2013 L59.5027,201.7545 L59.601,200.2962 L59.6997,198.8418 L59.802,197.4113 L59.9102,196.0192 L60.0276,194.688 L60.1573,193.4375 L60.2999,192.2803 L60.4578,191.2492 L60.6348,190.3532 L61.0034,188.7279 L61.3755,187.0864 L61.7477,185.4451 L62.1198,183.8036 L62.492,182.1622 L62.8641,180.5208 L63.2363,178.8793 L63.6078,177.2409 L63.9855,175.6038 L64.3639,173.9638 L64.7423,172.3237 L65.1207,170.6837 L65.4991,169.0437 L65.8775,167.4037 L66.2559,165.7637 L66.6342,164.1242 L67.0135,162.4849 L67.3929,160.8451 L67.7723,159.2052 L68.1518,157.5654 L68.5312,155.9257 L68.9106,154.2859 L69.2901,152.6461 L69.6708,151.0028 L69.8974,149.9959 L70.1245,148.986 L70.3455,147.9474 L70.5662,146.9098 L70.7815,145.845 L70.9964,144.7816 L71.207,143.6947 L71.4176,142.6079 L71.6241,141.4965 L71.8303,140.386 L72.0332,139.2523 L72.236,138.1198 L72.4362,136.9675 L72.6364,135.8154 L72.8345,134.643 L73.0325,133.4712 L73.2291,132.2807 L73.4256,131.0908 L73.6216,129.885 L73.8174,128.6797 L74.0132,127.4581 L74.2089,126.2372 L74.4052,125.0015 L74.6016,123.7665 L74.7991,122.5194 L74.9965,121.2727 L75.1959,120.0142 L75.3953,118.7561 L75.5973,117.4877 L75.7993,116.2196 L76.0043,114.9433 L76.2092,113.6676 L76.4182,112.3842 L76.627,111.1012 L76.8406,109.8122 L77.0539,108.5248 L77.2748,107.2313 L77.4962,105.9341 L77.7178,104.6369 L77.9381,103.3468 L78.1716,102.0525 L78.4065,100.7511 L78.6415,99.4496 L78.8749,98.1576 L79.1245,96.8676 L79.3759,95.568 L79.6274,94.2686 L79.8767,92.9794 L80.1431,91.697 L80.4117,90.4042 L80.6802,89.1113 L80.9458,87.832 L81.2327,86.5654 L81.5226,85.2854 L81.8125,84.0053 L82.0987,82.7412 L82.409,81.4962 L82.7232,80.2351 L83.0374,78.9739 L83.3485,77.725 L83.6774,76.4923 L84.007,75.257 L84.3506,74.0353 L84.6939,72.8142 L85.0519,71.6083 L85.4099,70.402 L85.7819,69.2106 L86.1533,68.021 L86.5406,66.8491 L86.9275,65.6781 L87.3311,64.5264 L87.7348,63.3742 L88.1542,62.2409 L88.5727,61.1095 L89.0091,60.0003 L89.445,58.8919 L89.8995,57.807 L90.3541,56.7216 L90.8261,55.6588 L91.297,54.5983 L91.7876,53.5642 L92.2775,52.531 L92.7879,51.5258 L93.2985,50.5195 L93.8282,49.5399 L94.3562,48.5629 L94.9059,47.6163 L95.4547,46.6709 L96.0257,45.7575 L96.5971,44.8428 L97.1893,43.9585 L97.7791,43.0772 L98.3925,42.2305 L99.0045,41.3845 L99.6408,40.575 L100.2874,39.7516 L100.5347,39.4551 L100.7713,39.1856 L100.989,38.9523 L101.1866,38.7536 L101.3578,38.5954 L101.5042,38.4733 L101.6203,38.3867 L101.6924,38.341 L101.7212,38.3264 L101.6921,38.3357 L101.5804,38.3572 L101.4098,38.3591 L101.1959,38.3146 L100.9719,38.2108 L100.8143,38.0896 L100.7219,37.9828 L100.6776,37.9113 L100.6729,37.9031 L100.6864,37.9455 L100.7057,38.0316 L100.7265,38.1663 L100.7445,38.3374 L100.7564,38.5404 L100.7613,38.7781 L100.7591,39.0429 L100.7486,39.333 L100.7295,39.6504 L100.7027,39.9899 L100.6676,40.351 L100.6253,40.7255 L100.5149,41.5591 L100.3748,42.4575 L100.2053,43.4269 L100.0106,44.4549 L99.7902,45.5412 L99.5459,46.682 L99.2814,47.8678 L98.9967,49.0978 L98.6936,50.3679 L98.3755,51.6704 L98.0426,53.0037 L97.6968,54.3635 L97.3409,55.7435 L96.9758,57.1413 L96.6034,58.5517 L96.2238,59.9734 L95.8443,61.3954 L95.4608,62.8174 L95.0769,64.2409 L94.697,65.6455 L94.3168,67.0514 L93.9465,68.4254 L93.5758,69.8007 L93.2229,71.1245 L92.8696,72.45 L92.542,73.7053 L92.2143,74.9603 L91.9071,76.1615 L91.618,77.3159 L91.3485,78.4193 L91.0984,79.4736 L90.8712,80.4707 L90.6699,81.4011 L90.2766,83.2601 L89.8837,85.1171 L89.4908,86.9739 L89.0983,88.829 L88.7012,90.683 L88.3037,92.5388 L87.9061,94.3948 L87.5089,96.2494 L87.1084,98.1033 L86.7077,99.9585 L86.3069,101.8136 L85.9063,103.6681 L85.504,105.5222 L85.1015,107.3771 L84.699,109.232 L84.2965,111.0864 L83.8934,112.9408 L83.4902,114.7955 L83.0869,116.6502 L82.6837,118.5051 L82.2811,120.3602 L81.8786,122.2151 L81.4762,124.07 L81.0737,125.9248 L81.0396,126.0824 L80.9973,126.2778 L80.9469,126.5108 L80.8893,126.7772 L80.8238,127.0797 L80.7507,127.4175 L80.6709,127.7868 L80.5837,128.1898 L80.4893,128.6259 L80.3886,129.0913 L80.2811,129.5883 L80.1669,130.1159 L80.0468,130.6708 L79.9204,131.2549 L79.7878,131.8674 L79.6497,132.5051 L79.5058,133.1698 L79.3561,133.8606 L79.2015,134.5745 L79.0415,135.313 L78.8763,136.0753 L78.7065,136.8587 L78.5318,137.6643 L78.3524,138.4915 L77.9814,140.2019 L77.5933,141.9898 L77.1898,143.8482 L76.7732,145.7655 L76.5583,146.7536 L76.3435,147.7417 L76.1229,148.756 L75.9022,149.7703 L75.6768,150.8056 L75.4514,151.841 L75.2214,152.8966 L74.9915,153.9523 L74.7576,155.0248 L74.5238,156.0974 L74.287,157.1828 L74.0502,158.2681 L73.8107,159.3645 L73.5713,160.461 L73.3299,161.5651 L73.0886,162.6692 L72.8457,163.7787 L72.6028,164.8883 L72.3599,165.9981 L72.117,167.1073 L71.8741,168.2146 L71.631,169.3223 L71.3879,170.4299 L71.145,171.5372 L70.9047,172.6292 L70.6644,173.7215 L70.424,174.8137 L70.1837,175.9057 L69.9467,176.9805 L69.7097,178.0553 L69.4759,179.1137 L69.2421,180.172 L69.0122,181.2106 L68.7824,182.2492 L68.5566,183.2671 L68.3309,184.2849 L68.1103,185.2771 L67.8897,186.2691 L67.4603,188.1956 L67.0428,190.0639 L66.6395,191.8622 L66.2518,193.5842 L65.8796,195.2313 L65.5255,196.7901 L65.191,198.2544 L65.0309,198.9517 L64.8761,199.6234 L64.7269,200.2684 L64.5828,200.8883 L64.4447,201.4799 L64.3126,202.0421 L64.1862,202.5773 L64.0662,203.0814 L63.9528,203.5541 L63.8455,203.9971 L63.7453,204.4066 L63.6523,204.7816 L63.5608,205.1448 L63.4854,205.437 L63.4259,205.6597 L63.3824,205.8143 L63.3637,205.8759 L63.364,205.8705 L63.8098,205.2532 L63.8098,205.2532 L63.8097,205.2533 L63.8095,205.2534 L63.8093,205.2536 L63.8091,205.2538 L63.8088,205.254 L63.8085,205.2543 L63.8081,205.2547 L63.8076,205.255 L63.8071,205.2554 L63.8066,205.2559 L63.806,205.2564 L63.8054,205.2569 L63.8047,205.2575 L63.804,205.2581 L63.8894,205.1924 L64.1337,205.0504 L64.5096,204.9334 L65.0077,204.9301 L65.4984,205.0986 L65.8458,205.3612 L66.0453,205.6113 L66.152,205.8102 L66.2092,205.9605 L66.2408,206.0739 L66.2586,206.1605 L66.2688,206.2282 L66.2747,206.2819 L66.2779,206.3251 L66.2796,206.3604 L66.2803,206.3895 L66.2804,206.4008 L66.2804,206.3982 L66.2804,206.3958 L66.2804,206.3936 L66.2804,206.3915 L66.2804,206.3897 L66.2804,206.388 L66.2804,206.3864 L66.2804,206.385 L66.2804,206.3838 L66.2804,206.3827 L66.2803,206.3819 L66.2803,206.3812 L66.2803,206.3808 L66.2803,206.3804 L66.2803,206.3801 L66.2695,206.5683 L66.2771,206.5025 L66.2935,206.397 L66.3226,206.228 L66.3633,206.0058 L66.4136,205.7404 L66.4736,205.4319 L66.5428,205.0829 L66.6198,204.6995 L66.705,204.2809 L66.7977,203.8292 L66.8969,203.3499 L67.0027,202.8419 L67.1146,202.308 L67.2316,201.7522 L67.3538,201.1747 L67.4806,200.5783 L67.7456,199.338 L68.0237,198.0459 L68.3108,196.72 L68.603,195.3786 L68.897,194.0368 L69.1887,192.7136 L69.4751,191.4225 L69.7519,190.1834 L70.0151,189.0152 L70.2625,187.9268 L70.4888,186.9433 L70.6896,186.0855 L71.0593,184.5407 L71.4295,182.9933 L71.7998,181.4458 L72.1701,179.8985 L72.5403,178.351 L72.9106,176.8036 L73.2809,175.2561 L73.6496,173.7151 L74.0316,172.1771 L74.415,170.6328 L74.7985,169.0886 L75.182,167.5445 L75.5655,166.0003 L75.949,164.4559 L76.3324,162.9118 L76.7136,161.3767 L77.1139,159.8466 L77.5165,158.3074 L77.9192,156.7681 L78.3218,155.2288 L78.7244,153.6896 L79.127,152.1503 L79.5297,150.6111 L79.9316,149.0744 L80.1089,148.4124 L80.2937,147.7168 L80.4838,146.9964 L80.6787,146.2538 L80.8788,145.4876 L81.084,144.6983 L81.5072,143.0626 L81.949,141.3456 L82.4082,139.5552 L82.8821,137.704 L83.3712,135.7925 L83.6228,134.8102 L83.8744,133.8281 L84.1318,132.825 L84.3893,131.8219 L84.6527,130.7988 L84.9161,129.7759 L85.1848,128.7368 L85.4536,127.6978 L85.7267,126.647 L85.9998,125.5965 L86.2773,124.5363 L86.5546,123.4762 L86.8357,122.4104 L87.1168,121.3445 L87.4008,120.2764 L87.6847,119.2085 L87.9712,118.1414 L88.2577,117.0745 L88.5462,116.0121 L88.8344,114.9508 L89.1244,113.9016 L89.4153,112.8491 L89.7063,111.7966 L89.9956,110.7499 L90.2858,109.732 L90.5777,108.7081 L90.8696,107.6843 L91.1594,106.6679 L91.4475,105.6956 L91.7379,104.7155 L92.0283,103.7354 L92.3162,102.7636 L92.8896,100.8878 L93.4576,99.0777 L94.0193,97.3395 L94.5739,95.6738 L95.1192,94.0957 L95.6562,92.6063 L95.9178,91.9036 L96.1779,91.2229 L96.4348,90.5692 L96.6882,89.9415 L96.9374,89.3443 L97.1826,88.7768 L97.4236,88.2384 L97.659,87.7341 L97.8894,87.2632 L98.114,86.825 L98.3308,86.4254 L98.5403,86.0634 L98.741,85.7387 L98.9287,85.4591 L99.1039,85.2224 L99.2616,85.0298 L99.3919,84.891 L99.4932,84.8001 L99.5513,84.756 L99.5407,84.7604 L99.4674,84.7849 L99.3268,84.8009 L99.1346,84.7804 L98.9807,84.7269 L98.8882,84.669 L98.8562,84.6406 L98.8873,84.6824 L98.9538,84.7897 L99.0389,84.9629 L99.138,85.2103 L99.2423,85.5191 L99.3467,85.8888 L99.4502,86.3239 L99.5507,86.8151 L99.6461,87.3649 L99.7384,87.9924 C99.8607,88.823 100.6331,89.3971 101.4637,89.2748 C102.2942,89.1525 102.8683,88.38 102.7459,87.5495 L102.6479,86.885 L102.5381,86.2526 L102.4188,85.6693 L102.2895,85.1264 L102.147,84.6227 L101.9908,84.1607 L101.817,83.7291 L101.6161,83.3226 L101.3836,82.9479 L101.1042,82.5946 L100.7494,82.2655 L100.322,81.999 L99.8224,81.8195 L99.273,81.7617 L98.7639,81.8278 L98.3122,81.98 L97.9124,82.1959 L97.571,82.4453 L97.2636,82.7207 L96.9751,83.027 L96.7047,83.3561 L96.4431,83.7095 L96.1851,84.0935 L95.9312,84.5039 L95.6787,84.9406 L95.425,85.408 L95.1713,85.903 L94.9164,86.4242 L94.6592,86.9752 L94.4004,87.5535 L94.1397,88.1566 L93.8764,88.7879 L93.6112,89.4447 L93.3439,90.1251 L93.0742,90.8312 L92.8006,91.5661 L92.2533,93.0846 L91.6959,94.698 L91.1317,96.3926 L90.562,98.1558 L89.9869,99.989 L89.4078,101.8839 L89.115,102.8723 L88.8246,103.8523 L88.5343,104.8324 L88.2417,105.8202 L87.9478,106.8515 L87.6559,107.8753 L87.3641,108.8992 L87.0706,109.929 L86.7781,110.9872 L86.4872,112.0398 L86.1963,113.0923 L85.9045,114.1482 L85.6146,115.2161 L85.325,116.2826 L85.0374,117.3538 L84.75,118.4246 L84.4652,119.496 L84.1805,120.5672 L83.8987,121.6359 L83.6169,122.7046 L83.3389,123.7675 L83.0609,124.83 L82.7873,125.883 L82.5137,126.9356 L82.2446,127.9765 L81.9754,129.0171 L81.7117,130.0416 L81.448,131.0658 L81.1904,132.0701 L80.9327,133.0741 L80.6811,134.0568 L80.4294,135.0394 L79.9404,136.9512 L79.4668,138.8015 L79.0082,140.5902 L78.5673,142.3042 L78.145,143.9368 L77.9408,144.7222 L77.7417,145.4849 L77.5478,146.2238 L77.3588,146.9398 L77.1755,147.6301 L76.9959,148.3012 L76.5927,149.8429 L76.1902,151.3822 L75.7876,152.9215 L75.3851,154.4607 L74.9825,156 L74.58,157.5393 L74.1774,159.0785 L73.7725,160.627 L73.3868,162.1803 L73.0034,163.7246 L72.62,165.2688 L72.2366,166.8131 L71.8532,168.3573 L71.4699,169.9016 L71.0865,171.4458 L70.7015,172.9964 L70.3298,174.5501 L69.9596,176.0976 L69.5894,177.645 L69.2193,179.1924 L68.8491,180.7399 L68.4789,182.2874 L68.1087,183.8347 L67.7379,185.3848 L67.5336,186.2578 L67.3052,187.2505 L67.0563,188.3457 L66.7919,189.5194 L66.5141,190.7634 L66.2269,192.0587 L65.9344,193.3858 L65.6396,194.7312 L65.3468,196.0763 L65.0589,197.4059 L64.78,198.7022 L64.5144,199.9456 L64.3869,200.5455 L64.2641,201.1259 L64.1465,201.6846 L64.034,202.2218 L63.9274,202.7335 L63.8274,203.2172 L63.7337,203.6737 L63.6473,204.0985 L63.5688,204.4892 L63.4979,204.8472 L63.4355,205.1682 L63.3821,205.4498 L63.3371,205.6958 L63.3012,205.9044 L63.274,206.0811 L63.2586,206.2068 L63.2478,206.3949 L63.2478,206.3952 L63.2478,206.3954 L63.2478,206.396 L63.2478,206.3966 L63.2478,206.3975 L63.2478,206.3986 L63.2478,206.3998 L63.2479,206.4011 L63.2479,206.4026 L63.2479,206.4044 L63.2479,206.4063 L63.2479,206.4083 L63.2479,206.4105 L63.2479,206.413 L63.2479,206.4155 L63.2481,206.4323 L63.2489,206.4664 L63.2508,206.5065 L63.2544,206.5538 L63.2606,206.6113 L63.2713,206.6824 L63.2897,206.772 L63.322,206.8878 L63.3801,207.0403 L63.4877,207.2407 L63.6881,207.4921 L64.0366,207.7556 L64.5284,207.9246 L65.0278,207.9213 L65.405,207.8037 L65.6508,207.6609 L65.7378,207.594 L65.7385,207.5934 L65.7392,207.5928 L65.7399,207.5923 L65.7404,207.5918 L65.741,207.5913 L65.7415,207.591 L65.7419,207.5906 L65.7423,207.5903 L65.7426,207.59 L65.7429,207.5897 L65.7432,207.5896 L65.7433,207.5894 L65.7435,207.5893 L65.7436,207.5893 L65.7436,207.5891 L66.1895,206.9719 L66.2377,206.8435 L66.2932,206.6653 L66.3512,206.4589 L66.4188,206.2061 L66.4995,205.8932 L66.5943,205.5167 L66.6898,205.1317 L66.792,204.7141 L66.9008,204.2644 L67.0156,203.7861 L67.1368,203.2768 L67.2642,202.7373 L67.3971,202.1712 L67.5361,201.5762 L67.6808,200.9533 L67.8306,200.3056 L67.9859,199.6311 L68.1467,198.9307 L68.4819,197.4634 L68.8366,195.9011 L69.2094,194.2512 L69.5975,192.5268 L70.0012,190.7261 L70.4191,188.8559 L70.8487,186.928 L71.0694,185.9348 L71.2901,184.9419 L71.516,183.9232 L71.7418,182.9048 L71.9717,181.8656 L72.2017,180.8264 L72.4356,179.7675 L72.6695,178.7085 L72.9065,177.6331 L73.1436,176.5576 L73.384,175.465 L73.6243,174.3726 L73.8646,173.2803 L74.105,172.1875 L74.3481,171.0795 L74.591,169.9717 L74.834,168.864 L75.0771,167.756 L75.32,166.646 L75.5629,165.5363 L75.8058,164.4265 L76.0486,163.3167 L76.29,162.2121 L76.5314,161.1076 L76.7708,160.0109 L77.0103,158.9142 L77.2471,157.8285 L77.4839,156.7429 L77.7177,155.6701 L77.9516,154.5973 L78.1816,153.5414 L78.4115,152.4855 L78.6369,151.4498 L78.8623,150.4143 L79.0829,149.3999 L79.3036,148.3854 L79.5184,147.3971 L79.7332,146.4087 L80.1498,144.491 L80.5533,142.6322 L80.9413,140.8441 L81.3123,139.1334 L81.4917,138.306 L81.6664,137.5003 L81.8361,136.7168 L82.0013,135.9544 L82.1613,135.2157 L82.316,134.5017 L82.4655,133.8108 L82.6095,133.146 L82.7476,132.5082 L82.8802,131.8955 L83.0066,131.3113 L83.1266,130.7564 L83.2408,130.2287 L83.3483,129.7316 L83.449,129.2661 L83.5433,128.8301 L83.6305,128.4269 L83.7104,128.0578 L83.7834,127.7199 L83.8488,127.4174 L83.9065,127.1511 L83.9568,126.9184 L83.9991,126.7233 L84.033,126.5673 L84.436,124.7127 L84.839,122.8579 L85.242,121.0032 L85.645,119.1488 L86.0487,117.2946 L86.4524,115.44 L86.8562,113.5855 L87.26,111.7306 L87.6631,109.8756 L88.0662,108.0209 L88.4692,106.1662 L88.8725,104.3108 L89.2739,102.455 L89.6752,100.5999 L90.0764,98.7449 L90.478,96.8884 L90.8763,95.0314 L91.2744,93.1757 L91.6725,91.3198 L92.071,89.4623 L92.4648,87.6037 L92.8582,85.747 L93.2516,83.8902 L93.6446,82.0357 L93.8405,81.1312 L94.0613,80.1635 L94.3064,79.132 L94.5716,78.0471 L94.8571,76.9088 L95.1609,75.7224 L95.4871,74.4749 L95.8133,73.2276 L96.1653,71.9097 L96.5178,70.5902 L96.8881,69.219 L97.2588,67.8466 L97.6394,66.4422 L98.0203,65.0365 L98.4052,63.6123 L98.7904,62.1867 L99.1717,60.7611 L99.5531,59.3355 L99.9282,57.9175 L100.2963,56.5115 L100.6554,55.1221 L101.0048,53.751 L101.3418,52.4039 L101.6645,51.0862 L101.9725,49.7981 L102.2629,48.5464 L102.5334,47.3362 L102.7845,46.1668 L103.0127,45.0451 L103.2156,43.9767 L103.3942,42.9588 L103.5444,41.9981 L103.6626,41.11 L103.7124,40.6729 L103.7527,40.2599 L103.7842,39.864 L103.8073,39.4821 L103.8208,39.1135 L103.8239,38.7615 L103.817,38.4214 L103.7975,38.0906 L103.7642,37.7728 L103.7152,37.4608 L103.6438,37.1472 L103.5453,36.8384 L103.4088,36.5237 L103.2105,36.1962 L102.9415,35.8849 L102.5862,35.607 L102.141,35.4003 L101.6819,35.3074 L101.2438,35.3119 L100.8396,35.3927 L100.4927,35.5194 L100.1802,35.6759 L99.8848,35.8613 L99.6066,36.0672 L99.3339,36.2942 L99.0585,36.5482 L98.7812,36.8266 L98.4981,37.1295 L98.205,37.463 L97.8931,37.8372 L97.23,38.6806 L96.5565,39.5376 L95.9086,40.431 L95.262,41.3236 L94.6402,42.2509 L94.0208,43.1754 L93.4233,44.1301 L92.8254,45.0861 L92.2509,46.074 L91.6774,47.0611 L91.1266,48.0784 L90.5774,49.0932 L90.0482,50.1343 L89.5187,51.1764 L89.0105,52.2461 L88.503,53.315 L88.0159,54.4099 L87.5301,55.5026 L87.0622,56.6177 L86.5942,57.7337 L86.1453,58.8729 L85.6969,60.0114 L85.2668,61.1718 L84.8376,62.3301 L84.4245,63.5071 L84.0113,64.6847 L83.615,65.8815 L83.2191,67.0774 L82.8395,68.2912 L82.4605,69.5031 L82.0956,70.7299 L81.7306,71.9572 L81.3806,73.1994 L81.0309,74.4408 L80.6953,75.6957 L80.3591,76.9531 L80.0411,78.2266 L79.7263,79.4876 L79.4114,80.7487 L79.0926,82.0259 L78.7983,83.3219 L78.5078,84.6018 L78.2172,85.8817 L77.9236,87.1753 L77.6516,88.4815 L77.3824,89.7742 L77.1132,91.0669 L76.8419,92.3699 L76.5878,93.6796 L76.3357,94.979 L76.0836,96.2783 L75.8297,97.5871 L75.5921,98.8977 L75.3561,100.199 L75.1199,101.5003 L74.8825,102.8086 L74.6584,104.1128 L74.4355,105.4098 L74.2126,106.7068 L73.9891,108.0076 L73.7732,109.3024 L73.5576,110.5955 L73.3467,111.8825 L73.136,113.169 L72.9292,114.4476 L72.7225,115.7257 L72.5189,116.9956 L72.3154,118.2652 L72.1145,119.5243 L71.9138,120.7827 L71.7151,122.0293 L71.5164,123.2754 L71.319,124.5094 L71.1216,125.7428 L70.925,126.9614 L70.7285,128.1796 L70.5319,129.3815 L70.3355,130.583 L70.1384,131.7684 L69.9415,132.9533 L69.7432,134.119 L69.5451,135.2841 L69.345,136.4287 L69.145,137.573 L68.9425,138.6975 L68.7402,139.8209 L68.5347,140.921 L68.3293,142.0204 L68.12,143.0949 L67.9107,144.1693 L67.6971,145.2199 L67.4839,146.2691 L67.2655,147.2907 L67.0473,148.3112 L66.8232,149.3026 L66.5984,150.2971 L66.2177,151.9326 L65.8358,153.5719 L65.4537,155.2111 L65.0717,156.8502 L64.6897,158.4894 L64.3076,160.1286 L63.9256,161.7677 L63.5435,163.4074 L63.1623,165.0473 L62.7813,166.6867 L62.4003,168.3261 L62.0192,169.9655 L61.6382,171.6049 L61.2572,173.2444 L60.8762,174.8838 L60.4945,176.5261 L60.119,178.1699 L59.7442,179.8108 L59.3694,181.4516 L58.9947,183.0924 L58.6199,184.7333 L58.2451,186.3742 L57.8703,188.0149 L57.492,189.672 L57.2885,190.6951 L57.1111,191.8389 L56.9569,193.0726 L56.8194,194.3782 L56.6961,195.7503 L56.5836,197.1686 L56.4778,198.6148 L56.3764,200.0755 L56.2759,201.5307 L56.1736,202.9649 L56.0665,204.358 L55.9507,205.6957 L55.8897,206.3307 L55.8255,206.9473 L55.7579,207.5392 L55.6872,208.1055 L55.613,208.6399 L55.535,209.1414 L55.4537,209.6087 L55.3694,210.033 L55.282,210.4138 L55.1938,210.7481 L55.1079,211.0221 L55.0269,211.2352 L54.9612,211.3788 L54.9325,211.4288 L54.9625,211.3931 L55.1022,211.2824 L55.4077,211.1494 L55.7709,211.1134 L56.062,211.1775 L56.2156,211.2555 L56.2227,211.2576 L56.1449,211.173 L56.0139,210.9976 L55.8461,210.7341 L55.5426,210.192 L55.266,209.6172 L55.0067,208.9913 L54.7651,208.3229 L54.5451,207.6121 L54.3451,206.8538 L54.1642,206.0559 L54.0054,205.2186 L53.8676,204.3383 L53.7494,203.4218 L53.6528,202.469 L53.5773,201.4773 L53.5209,200.4529 L53.4854,199.3954 L53.4703,198.3029 L53.4735,197.1808 L53.4964,196.0287 L53.5389,194.8451 L53.5985,193.635 L53.6767,192.3977 L53.7732,191.1325 L53.8858,189.8435 L54.0157,188.5302 L54.1621,187.1958 L54.3317,185.8226 L54.5007,184.4535 L54.7009,183.0431 L54.9011,181.6316 L55.1304,180.1829 L55.36,178.7321 L55.6145,177.2506 L55.8689,175.7695 L56.1489,174.2582 L56.429,172.746 L56.7327,171.2078 L57.0358,169.6716 L57.3683,168.1062 L57.7042,166.5296 L58.0402,164.9528 L58.3729,163.391 L58.7422,161.7977 L59.1147,160.1898 L59.4873,158.582 L59.857,156.9865 L60.2551,155.3754 L60.6561,153.7522 L61.0571,152.1292 L61.4563,150.5132 L61.8708,148.8948 L62.2859,147.2738 L62.7099,145.6555 L63.134,144.0369 L63.5649,142.4249 L63.996,140.8122 L64.4317,139.2086 L64.8675,137.6051 L65.3065,136.0152 L65.7456,134.4248 L66.1859,132.8519 L66.6264,131.2786 L67.0665,129.7243 L67.5065,128.1697 L67.9443,126.6398 L68.3821,125.1094 L68.8156,123.6073 L69.2493,122.1049 L69.6774,120.6312 L70.1055,119.1575 L70.5258,117.719 L70.9457,116.2799 L71.3537,114.8795 L71.7619,113.4787 L72.1623,112.1067 L72.5566,110.7565 L72.9441,109.4293 L73.3252,108.1238 L73.6987,106.8429 L74.0641,105.5877 L74.4217,104.3566 L74.7704,103.1527 L75.1097,101.9772 L75.4399,100.828 L75.7598,99.7089 L76.0689,98.6206 L76.3678,97.5612 L76.655,96.5341 L76.93,95.5407 L77.1935,94.5783 L77.4441,93.6505 L77.6811,92.7589 L77.9055,91.9005 L78.1156,91.0789 L78.3108,90.2955 L78.4922,89.5473 L78.6581,88.8372 L78.8053,88.1785 L79.2224,86.3273 L79.6396,84.4752 L80.0568,82.6233 L80.4723,80.7791 L80.904,78.9379 L81.3376,77.0889 L81.7712,75.2399 L82.205,73.3899 L82.6368,71.5396 L83.0684,69.6902 L83.4999,67.8407 L83.9327,65.9862 L84.3547,64.1298 L84.7763,62.2719 L85.1848,60.4115 L85.5937,58.549 L85.985,56.683 L86.3763,54.8162 L86.748,52.9456 L87.1201,51.072 L87.4665,49.1936 L87.8132,47.3131 L88.1294,45.4268 L88.4435,43.5534 L88.6054,42.5686 L88.796,41.4621 L89.0114,40.2412 L89.2443,38.9336 L89.4911,37.549 L89.7457,36.1072 L90.0027,34.6293 L90.2571,33.1284 L90.5026,31.6251 L90.7356,30.1342 L90.9496,28.6726 L91.1375,27.2677 L91.2226,26.5768 L91.2987,25.9092 L91.3657,25.2623 L91.4239,24.6351 L91.4718,24.0298 L91.5083,23.4505 L91.5337,22.8941 L91.546,22.3617 L91.5439,21.8578 L91.5269,21.3756 L91.4907,20.9115 L91.4314,20.4685 L91.3417,20.0294 L91.1989,19.573 L90.9711,19.1002 L90.5862,18.5963 L89.93,18.1304 L89.1116,17.9227 L88.3515,18.0003 L87.749,18.2473 L87.2986,18.5499 L86.9183,18.8848 L86.5638,19.2639 L86.2183,19.6903 L85.1775,21.0766 L84.1505,22.5119 L83.1431,23.9872 L82.1523,25.4997 L81.1783,27.0534 L80.2229,28.6447 L79.2834,30.2706 L78.3603,31.9356 L77.4549,33.6358 L76.5648,35.3684 L75.6906,37.1372 L74.8333,38.9391 L73.9923,40.7674 L73.5768,41.7042 L73.1633,42.6369 L72.7574,43.5857 L72.3521,44.5332 L71.9537,45.4951 L71.555,46.4577 L71.1638,47.4356 L70.7728,48.4131 L70.3891,49.4055 L70.006,50.3969 L69.6294,51.4013 L69.2527,52.4064 L68.8832,53.4256 L68.5139,54.4445 L68.1516,55.4769 L67.7898,56.5084 L67.4344,57.5519 L67.0788,58.596 L66.7302,59.6528 L66.3817,60.7095 L66.0401,61.7785 L65.6976,62.85 L65.3645,63.9378 L65.0347,65.0147 L64.7049,66.0917 L64.3705,67.1837 L64.0495,68.298 L63.7329,69.3974 L63.4163,70.4967 L63.0957,71.6101 L62.7881,72.744 L62.4844,73.8639 L62.1806,74.9839 L61.8736,76.1159 L61.5782,77.2648 L61.2858,78.402 L60.9934,79.5391 L60.6979,80.6887 L60.4148,81.8555 L60.1347,83.0099 L59.8546,84.1644 L59.5717,85.3306 L59.301,86.512 L59.0328,87.682 L58.7647,88.8519 L58.4943,90.0319 L58.2346,91.2244 L57.9771,92.4069 L57.7196,93.5895 L57.4599,94.7824 L57.2116,95.9876 L56.9655,97.1824 L56.7193,98.3772 L56.4712,99.5818 L56.2343,100.7966 L55.9992,102.002 L55.7641,103.2072 L55.5274,104.4208 L55.3006,105.6424 L55.0753,106.8556 L54.85,108.0689 L54.6231,109.2908 L54.4068,110.5199 L54.1919,111.7404 L53.9771,112.9608 L53.7609,114.1895 L53.5549,115.4234 L53.3502,116.6492 L53.1455,117.875 L52.9397,119.1078 L52.7429,120.344 L52.5472,121.5733 L52.3515,122.8025 L52.1546,124.039 L51.9674,125.2776 L51.7813,126.5089 L51.5952,127.7403 L51.4079,128.9784 L51.2295,130.2168 L51.052,131.4484 L50.8746,132.6799 L50.6964,133.9174 L50.5263,135.1537 L50.357,136.384 L50.1877,137.6143 L50.0176,138.8508 L49.8562,140.0844 L49.6956,141.3118 L49.535,142.5392 L49.3736,143.7724 L49.2206,145.0009 L49.0683,146.2234 L48.9161,147.4461 L48.7632,148.6737 L48.6176,149.8955 L48.4727,151.1123 L48.3277,152.329 L48.1822,153.551 L48.0444,154.7652 L47.9072,155.9739 L47.77,157.1826 L47.6323,158.3964 L47.502,159.6002 L47.3722,160.7991 L47.2425,161.9981 L47.1123,163.2012 L46.9886,164.3939 L46.8653,165.5824 L46.7421,166.7709 L46.6184,167.9638 L46.5015,169.1436 L46.3851,170.319 L46.2687,171.4944 L46.1519,172.674 L46.0417,173.8385 L45.9318,174.999 L45.8219,176.1596 L45.7117,177.3235 L45.6072,178.4724 L45.503,179.6179 L45.3989,180.7633 L45.2943,181.9124 L45.1958,183.0434 L45.0975,184.1707 L44.9993,185.298 L44.9007,186.4286 L44.8078,187.5392 L44.7152,188.6465 L44.6226,189.7538 L44.5298,190.8633 L44.4407,191.9581 L44.3516,193.0524 L44.2652,194.1354 L44.1787,195.2184 L44.0947,196.2897 L44.0108,197.3607 L43.9291,198.4209 L43.8474,199.4811 L43.7681,200.5288 L43.6887,201.5764 L43.6117,202.6111 L43.5346,203.6456 L43.4596,204.6681 L43.3846,205.6904 L43.3117,206.6992 L43.2388,207.7081 L43.0973,209.6964 L42.9593,211.6585 L42.8252,213.5903 L42.6948,215.4911 L42.5676,217.3628 L42.4438,219.2018 L42.3233,221.0071 L42.2055,222.781 L42.0907,224.5198 L41.9787,226.223 L41.9477,226.7096 L41.9216,227.1572 L41.9003,227.5653 L41.8834,227.9392 L41.8712,228.2778 L41.8637,228.5816 L41.8606,228.8577 L41.8627,229.1098 L41.8712,229.3418 L41.8888,229.5751 L41.9301,229.8552 L41.9854,230.0739 L42.2325,230.6154 L42.2328,230.6159 L42.2335,230.617 L42.2346,230.6185 L42.2359,230.6206 L42.2377,230.6232 L42.2397,230.6264 L42.2422,230.6301 L42.284,230.6917 L42.3825,230.8197 L42.5104,230.9591 L42.6754,231.1056 L42.8843,231.2507 L43.14,231.3808 L43.4364,231.479 L43.757,231.5304 L43.9205,231.5363 L43.9234,231.5363 L43.9258,231.5363 L43.9279,231.5363 L43.9295,231.5363 L43.9307,231.5363 L43.9315,231.5363 L43.9144,227.6084 L43.8883,227.6085 L43.9062,231.5364 L43.907,231.5364 L43.9083,231.5364 L43.9099,231.5364 L43.9119,231.5364 L43.9144,231.5363 L43.9173,231.5363 L44.0743,231.5296 L44.3662,231.4833 L44.6217,231.4046 L44.8359,231.3075 L45.011,231.2039 L45.1522,231.1011 L45.2658,231.0036 L45.3576,230.9131 L45.3987,230.8687 L45.402,230.865 L45.4048,230.862 L45.4072,230.8593 L45.4091,230.8572 L45.4105,230.8557 L45.4114,230.8546 L45.4119,230.8541 L45.6867,230.4622 L45.7787,230.2799 L45.8755,230.0365 L45.9441,229.8267 L46.0044,229.6173 L46.0629,229.3926 L46.1211,229.1508 L46.1805,228.8894 L46.2421,228.6041 L46.3071,228.2899 L46.4403,227.6142 L46.5855,226.8366 L46.7408,225.9683 L46.9054,225.0205 L47.0797,223.989 L47.263,222.8799 L47.454,221.7042 L47.6531,220.4599 L47.8595,219.1528 L48.072,217.7934 L48.2907,216.3806 L48.515,214.9205 L48.7456,213.4059 L48.9762,211.891 L49.2143,210.3114 L49.4523,208.7323 L49.6951,207.1117 L49.9377,205.4916 L50.1826,203.8521 L50.4274,202.2129 L50.6721,200.5726 L50.9167,198.9329 L51.1585,197.3153 L51.4003,195.6978 L51.6387,194.1076 L51.8739,192.5438 L52.1052,191.0123 L52.3322,189.5149 L52.5542,188.0602 L52.7703,186.6537 L52.9804,185.2959 L53.1835,183.997 L53.3788,182.7625 L53.5664,181.5916 L53.7449,180.496 L53.9136,179.4813 L54.1691,177.9717 L54.4249,176.4597 L54.6807,174.9479 L54.9365,173.4361 L55.1923,171.9241 L55.4481,170.4122 L55.7038,168.9004 L55.9592,167.3903 L56.2175,165.8795 L56.4762,164.367 L56.7348,162.8543 L56.9935,161.3417 L57.2521,159.8291 L57.5108,158.3165 L57.7694,156.804 L58.0279,155.2923 L58.2878,153.7798 L58.5478,152.2665 L58.8078,150.7533 L59.0678,149.24 L59.3279,147.7268 L59.5879,146.2135 L59.8479,144.7002 L60.1079,143.1869 L60.3679,141.673 L60.628,140.1591 L60.888,138.6452 L61.148,137.1314 L61.408,135.6174 L61.668,134.1035 L61.928,132.5897 L62.1882,131.0748 L62.447,129.5593 L62.7056,128.0448 L62.9643,126.5302 L63.2229,125.0156 L63.4816,123.5011 L63.7402,121.9865 L63.9988,120.4719 L64.2578,118.9553 L64.5138,117.4381 L64.7693,115.9229 L65.0248,114.4076 L65.2802,112.8922 L65.5357,111.377 L65.7912,109.8617 L66.0467,108.3465 L66.3026,106.8285 L66.5546,105.31 L66.8061,103.794 L67.0577,102.2781 L67.3092,100.7622 L67.5608,99.2462 L67.8123,97.7304 L68.0639,96.2144 L68.316,94.6947 L68.5625,93.1742 L68.8084,91.6576 L69.0542,90.141 L69.3001,88.6244 L69.5459,87.1078 L69.7917,85.5912 L70.0376,84.0746 L70.2842,82.5531 L70.5236,81.0309 L70.7622,79.5136 L71.0007,77.9962 L71.2393,76.4789 L71.4779,74.9617 L71.7165,73.4444 L71.9551,71.927 L72.1942,70.4058 L72.4277,68.8842 L72.6605,67.3663 L72.8934,65.8485 L73.1267,64.3277 L73.355,62.8063 L73.5828,61.2881 L73.8106,59.7699 L74.039,58.2483 L74.2623,56.7263 L74.485,55.2078 L74.7078,53.6892 L74.9311,52.1674 L75.1494,50.6452 L75.3673,49.1264 L75.5852,47.6074 L75.8036,46.0847 L76.0163,44.5617 L76.2284,43.0424 L76.4405,41.5232 L76.6532,39.9998 L76.8598,38.4761 L77.0658,36.9564 L77.2718,35.4369 L77.4699,33.97 L77.6787,32.8842 L78.0352,31.6312 L78.5034,30.215 L78.7559,29.485 L79.0203,28.7277 L79.2856,27.9601 L79.5466,27.1864 L79.7966,26.4098 L80.0273,25.6373 L80.2352,24.8679 L80.4117,24.1 L80.5459,23.3412 L80.633,22.5803 L80.6538,21.8038 L80.5939,21.0945 L80.5078,20.6273 L80.3914,20.2162 L80.2336,19.8132 L80.0284,19.4144 L79.7631,19.0209 L79.4509,18.6643 L79.0928,18.3443 L78.6854,18.0654 L78.26,17.8466 L77.8183,17.6778 L77.3559,17.5558 L76.8971,17.4809 L76.4283,17.4414 L75.9543,17.4407 L75.4937,17.4796 L75.0414,17.556 L74.5936,17.6738 L74.0946,17.8599 L73.3897,18.223 L72.6898,18.7354 L72.097,19.3152 L71.5848,19.9434 L71.1385,20.6201 L70.7542,21.3217 L70.4137,22.0462 L70.1094,22.7979 L69.8284,23.5919 L69.363,25.1221 L68.9551,26.7083 L68.588,28.2631 L68.4117,29.0177 L68.2388,29.7426 L68.0658,30.434 L67.8919,31.0862 L67.7166,31.6854 L67.5314,32.2459 L66.9168,34.0242 L66.2998,35.8096 L65.6828,37.595 L65.0622,39.3911 L64.4586,41.1998 L63.8585,42.9979 L63.2584,44.7962 L62.6548,46.6046 L62.0681,48.4249 L61.4847,50.2349 L60.9013,52.0449 L60.315,53.864 L59.7438,55.6933 L59.1755,57.5133 L58.6071,59.3334 L58.0357,61.1632 L57.4808,63.0034 L56.9289,64.8338 L56.377,66.6641 L55.8222,68.504 L55.2837,70.3534 L54.748,72.1931 L54.2123,74.0327 L53.6742,75.8811 L53.1509,77.7373 L52.63,79.5849 L52.1092,81.4325 L51.5857,83.2893 L51.0782,85.1539 L50.5733,87.0094 L50.0684,88.8649 L49.561,90.7293 L49.0694,92.6007 L48.5802,94.4632 L48.091,96.3255 L47.5997,98.1959 L47.1227,100.072 L46.6477,101.94 L46.1727,103.808 L45.6955,105.6847 L45.2338,107.5668 L44.7742,109.4402 L44.3146,111.3136 L43.853,113.1955 L43.4067,115.0819 L42.9624,116.9599 L42.5181,118.8378 L42.072,120.7233 L41.6397,122.6122 L41.2092,124.4935 L40.7786,126.3749 L40.3462,128.2644 L39.9287,130.1569 L39.5131,132.0412 L39.0975,133.9254 L38.6801,135.8178 L38.2775,137.7122 L37.8767,139.5985 L37.4759,141.4849 L37.0735,143.3784 L36.6845,145.2731 L36.2969,147.1607 L35.9094,149.0484 L35.5203,150.9436 L35.1457,152.8395 L34.7726,154.7276 L34.3995,156.6156 L34.025,158.5114 L33.6648,160.4066 L33.306,162.2945 L32.9472,164.1823 L32.5872,166.0768 L32.24,167.9702 L31.8941,169.8571 L31.5482,171.7438 L31.201,173.6378 L30.8678,175.53 L30.5359,177.4148 L30.204,179.2997 L29.8708,181.1918 L29.5515,183.0811 L29.2334,184.963 L28.9153,186.8451 L28.5961,188.7337 L28.2894,190.6189 L27.9837,192.4977 L27.678,194.3766 L27.3712,196.2623 L27.078,198.1439 L26.7858,200.0184 L26.4937,201.8928 L26.2004,203.7743 L25.9206,205.6504 L25.6417,207.5197 L25.3629,209.3889 L25.0838,211.26 L25.0352,211.5988 L24.9968,211.8816 L24.9674,212.1177 L24.9451,212.3248 L24.9297,212.5419 L24.9291,212.7261 L25.3112,213.9059 L25.3112,213.9059 L25.3113,213.906 L25.3114,213.9061 L25.3115,213.9064 L25.3117,213.9066 L25.3119,213.9069 L25.3121,213.9072 L25.3124,213.9076 L25.3127,213.9081 L25.3131,213.9086 L25.3134,213.9091 L25.3138,213.9097 L25.3143,213.9104 L25.3148,213.911 L25.3153,213.9118 L25.4088,214.0361 L25.6723,214.3079 L26.0664,214.5774 L26.5873,214.7716 L27.1554,214.824 L27.6603,214.7411 L28.0459,214.5871 L28.3191,214.4184 L28.5091,214.263 L28.6427,214.1288 L28.7389,214.0158 L28.81,213.9208 L28.864,213.8406 L28.9061,213.7724 L28.9395,213.7138 L28.9666,213.663 L28.9789,213.6389 L28.9799,213.637 L28.9808,213.635 L28.9817,213.6333 L28.9825,213.6317 L28.9832,213.6303 L28.9839,213.6289 L28.9845,213.6278 L28.985,213.6267 L28.9855,213.6257 L28.9859,213.625 L28.9862,213.6243 L28.9865,213.6238 L28.9867,213.6234 L28.9868,213.6232 L28.9869,213.6229 L29.1135,213.3119 L29.1544,213.1812 L29.2033,213.001 L29.2512,212.8073 L29.3021,212.5888 L29.3573,212.3429 L29.4179,212.0651 L29.4837,211.7569 L29.5542,211.4215 L29.6296,211.0573 L29.7101,210.6646 L29.8816,209.8167 L30.0687,208.8783 L30.2682,207.8673 L30.4767,206.803 L30.6926,205.6936 L30.9128,204.5554 L31.1348,203.4041 L31.3562,202.252 L31.5739,201.1156 L31.7859,200.0065 L31.9892,198.9412 L32.1807,197.9363 L32.2718,197.4585 L32.3589,197.001 L32.4418,196.5661 L32.5205,196.1531 L32.5943,195.7663 L32.6628,195.4072 L32.8524,194.4136 L33.042,193.4199 L33.2316,192.4264 L33.4213,191.4328 L33.6109,190.4391 L33.8005,189.4455 L33.9901,188.4519 L34.1798,187.4575 L34.3689,186.4629 L34.5578,185.4691 L34.7467,184.4754 L34.9356,183.4817 L35.1245,182.4879 L35.3134,181.4942 L35.5022,180.5004 L35.6915,179.5049 L35.8791,178.5093 L36.0665,177.5152 L36.2538,176.5211 L36.4412,175.5271 L36.6285,174.533 L36.8159,173.539 L37.0032,172.5449 L37.191,171.5487 L37.3767,170.5521 L37.562,169.5576 L37.7473,168.5632 L37.9326,167.5687 L38.1179,166.5744 L38.3032,165.5799 L38.4885,164.5855 L38.6743,163.5879 L38.8573,162.5897 L39.0396,161.5947 L39.2219,160.5999 L39.4042,159.6049 L39.5865,158.6099 L39.7689,157.6149 L39.9512,156.6199 L40.1342,155.6209 L40.3135,154.6212 L40.492,153.6256 L40.6705,152.6299 L40.8491,151.6343 L41.0276,150.6386 L41.2061,149.643 L41.3846,148.6472 L41.5625,147.6554 L41.6363,147.2573 L41.7292,146.7924 L41.8422,146.2549 L41.9726,145.6552 L42.1213,144.9904 L42.2878,144.2619 L42.4699,143.4774 L42.6685,142.6337 L42.883,141.7317 L43.1116,140.7786 L43.355,139.7708 L43.6127,138.7097 L43.883,137.6016 L44.1664,136.4434 L44.4625,135.2365 L44.7697,133.9867 L45.0885,132.6911 L45.4184,131.3512 L45.7579,129.9724 L46.1075,128.5521 L46.4666,127.0919 L46.8338,125.5968 L47.2095,124.0645 L47.5932,122.4966 L47.9835,120.8977 L48.3808,119.2659 L48.7845,117.6029 L49.1935,115.9127 L49.6078,114.194 L50.027,112.4478 L50.4516,110.6685 L50.8763,108.8883 L51.3076,107.0626 L51.739,105.2367 L52.1745,103.3715 L52.6105,101.5048 L53.0486,99.5944 L53.4857,97.6882 L53.9229,95.782 L54.3616,93.8685 L54.7969,91.9096 L55.2305,89.9577 L55.6642,88.0058 L56.0994,86.048 L56.3126,85.0501 L56.5233,84.0637 L56.7341,83.0774 L56.9448,82.0911 L57.1555,81.1049 L57.3663,80.1185 L57.577,79.1322 L57.7892,78.1391 L57.9948,77.145 L58.1989,76.1579 L58.4031,75.1708 L58.6084,74.178 L58.8076,73.1881 L59.0056,72.204 L59.2036,71.2199 L59.4033,70.2274 L59.7856,68.2671 L60.1683,66.3048 L60.5359,64.3585 L60.9037,62.411 L61.2531,60.4866 L61.6025,58.5613 L61.9311,56.6653 L62.2592,54.7715 L62.5729,52.8959 L62.8744,51.0402 L63.1634,49.2046 L63.4406,47.3883 L63.7045,45.5938 L63.9543,43.8236 L64.191,42.0764 L64.4127,40.355 L64.6188,38.6622 L64.8102,36.996 L64.9851,35.3594 L65.1427,33.7555 L65.2843,32.1818 L65.4077,30.6415 L65.5123,29.138 L65.5992,27.6679 L65.6662,26.2346 L65.7126,24.8419 L65.7398,23.4859 L65.7451,22.1696 L65.728,20.8976 L65.6897,19.6647 L65.6273,18.4739 L65.5401,17.3303 L65.4293,16.2279 L65.291,15.1684 L65.1245,14.1585 L64.9304,13.1902 L64.7028,12.2639 L64.4411,11.3886 L64.1436,10.5542 L63.8002,9.7599 L63.4108,9.0191 L62.9689,8.3222 L62.4574,7.6713 L61.8971,7.1048 L61.3001,6.6101 L60.6791,6.1935 L60.0314,5.8613 L59.3455,5.6132 L58.6117,5.4683 L57.8792,5.4455 L57.1589,5.5379 L56.463,5.747 L55.8388,6.044 L55.274,6.4068 L54.7577,6.8316 L54.2986,7.2932 L53.8782,7.788 L53.4865,8.322 L53.1249,8.8827 L52.7841,9.4701 L52.4596,10.0907 L52.1398,10.7637 L51.5744,12.0967 L51.0365,13.5611 L50.5346,15.1041 L50.0596,16.7081 L49.6092,18.367 L49.181,20.0576 L48.77,21.7626 L48.3752,23.4671 L47.9943,25.1489 L47.6241,26.7935 L47.2639,28.3781 L46.91,29.8871 L46.7373,30.5997 L46.5652,31.2882 L46.3943,31.9462 L46.2249,32.5725 L46.0576,33.1602 L45.8867,33.7247 L45.5135,34.9538 L45.1401,36.1834 L44.7666,37.4129 L44.3883,38.659 L44.0294,39.9107 L43.6753,41.1459 L43.3212,42.3812 L42.9629,43.6316 L42.6223,44.8871 L42.2859,46.1275 L41.9495,47.3678 L41.6097,48.6209 L41.2847,49.8781 L40.9631,51.1226 L40.6415,52.3672 L40.3166,53.6244 L40.0066,54.8858 L39.6998,56.1343 L39.3929,57.383 L39.0833,58.6428 L38.787,59.9063 L38.4933,61.1583 L38.1997,62.4105 L37.903,63.6758 L37.6217,64.9448 L37.3434,66.2008 L37.0651,67.4567 L36.7869,68.7127 L36.5086,69.9685 L36.2303,71.2245 L35.952,72.4805 L35.6704,73.7515 L35.4066,75.0264 L35.1461,76.2863 L34.8855,77.546 L34.6249,78.8058 L34.3643,80.0656 L34.1037,81.3255 L33.8431,82.5852 L33.5806,83.8544 L33.3293,85.1251 L33.0799,86.3864 L32.8304,87.6477 L32.5809,88.9091 L32.3315,90.1703 L32.082,91.4317 L31.8326,92.693 L31.5834,93.9531 L31.4924,94.409 L31.3843,94.9295 L31.2583,95.5195 L31.1167,96.1702 L30.9587,96.8851 L30.7847,97.6631 L30.5966,98.4965 L30.3936,99.3891 L30.1762,100.3395 L29.9461,101.3412 L29.7027,102.3976 L29.4463,103.5072 L29.1787,104.6641 L28.8991,105.8712 L28.608,107.1273 L28.3071,108.4264 L27.9956,109.7717 L27.6742,111.1615 L27.3441,112.5906 L27.005,114.0614 L26.6573,115.5725 L26.3024,117.1189 L25.9398,118.703 L25.5702,120.3229 L25.1945,121.9744 L24.8127,123.6592 L24.4252,125.3756 L24.0331,127.1196 L23.6362,128.8928 L23.235,130.694 L22.8292,132.5288 L22.4232,134.3648 L22.0116,136.2472 L21.5999,138.13 L21.1847,140.0531 L20.7695,141.9765 L20.5603,142.9652 L20.3522,143.9481 L20.1442,144.931 L19.9362,145.914 L19.7282,146.8969 L19.5201,147.8798 L19.3121,148.8628 L19.1025,149.8532 L18.895,150.8676 L18.6889,151.8748 L18.4829,152.882 L18.2768,153.8892 L18.0708,154.8963 L17.8648,155.9035 L17.6587,156.9107 L17.4509,157.9268 L17.2493,158.9546 L17.0494,159.9738 L16.8495,160.9928 L16.6496,162.0119 L16.4498,163.031 L16.2499,164.0501 L16.05,165.0692 L15.8488,166.0951 L15.6539,167.1231 L15.4603,168.1441 L15.2668,169.1651 L15.0721,170.1918 L14.8833,171.2162 L14.6956,172.2351 L14.5079,173.2539 L14.319,174.2791 L14.137,175.2988 L13.9561,176.3125 L13.7753,177.3262 L13.5933,178.346 L13.4185,179.3585 L13.2447,180.3649 L13.0709,181.3714 L12.8958,182.3851 L12.7295,183.3884 L12.5644,184.3842 L12.3993,185.38 L12.2325,186.3866 L11.9209,188.3563 L11.6093,190.3266 L11.3113,192.2797 L11.0247,194.2141 L10.7497,196.1292 L10.4857,198.026 L10.2342,199.902 L9.9958,201.7545 L9.7696,203.5851 L9.5574,205.3908 L9.3598,207.1688 L9.1758,208.9214 L9.0071,210.645 L8.8545,212.3371 L8.7169,213.9999 L8.5961,215.6301 L8.4928,217.2247 L8.4059,218.7866 L8.3374,220.3125 L8.288,221.7986 L8.2564,223.2489 L8.2449,224.6599 L8.2542,226.0276 L8.2828,227.3565 L8.3336,228.6434 L8.4069,229.8837 L8.5018,231.0828 L8.6212,232.2383 L8.7659,233.3443 L8.9349,234.4079 L9.1327,235.4276 L9.3597,236.396 L9.6165,237.3219 L9.91,238.2057 L10.2405,239.0368 L10.6118,239.8257 L11.0367,240.5733 L11.5008,241.2446 L11.9603,241.8095 L12.4409,242.3049 L12.965,242.7361 L13.5716,243.1072 L14.3148,243.3832 L15.146,243.479 L15.9993,243.3534 L16.7747,243.0095 L17.3634,242.5578 L17.8118,242.0636 L18.165,241.5391 L18.4427,241.0101 L18.6763,240.4663 L18.8795,239.893 L19.0566,239.2977 L19.216,238.6767 L19.3606,238.0215 L19.4952,237.3165 L19.7224,235.8947 L19.9178,234.3355 L20.0839,232.6857 L20.2286,230.9673 L20.3549,229.1893 L20.4677,227.3767 L20.5723,225.5502 L20.6722,223.7285 L20.7722,221.9335 L20.8232,221.0548 L20.8758,220.1903 L20.9305,219.344 L20.9875,218.5174 L21.0474,217.7156 L21.111,216.9408 L21.178,216.1941 L21.2493,215.4826 L21.3254,214.8075 L21.4058,214.1705 L21.4908,213.5808 L21.584,213.0209 L21.7857,211.8438 L21.988,210.663 L22.1903,209.4822 L22.3926,208.3014 L22.5949,207.1206 L22.7972,205.9397 L22.9995,204.7589 L23.204,203.5656 L23.3949,202.3699 L23.5839,201.1868 L23.7728,200.0038 L23.9618,198.8208 L24.1507,197.6377 L24.3397,196.4547 L24.5286,195.2716 L24.7188,194.0809 L24.9008,192.8888 L25.0816,191.7044 L25.2623,190.5199 L25.443,189.3356 L25.6237,188.1511 L25.8043,186.9667 L25.985,185.7822 L26.1661,184.5947 L26.344,183.4066 L26.5213,182.2217 L26.6987,181.0366 L26.876,179.8517 L27.0534,178.6668 L27.2307,177.4818 L27.4081,176.2968 L27.5853,175.1127 L27.7634,173.9287 L27.9417,172.7439 L28.1199,171.5591 L28.2982,170.3742 L28.4765,169.1893 L28.6547,168.0045 L28.833,166.8197 L29.0104,165.6406 L29.1938,164.4627 L29.3782,163.2788 L29.5625,162.095 L29.7469,160.9111 L29.9313,159.7273 L30.1156,158.5435 L30.3,157.3596 L30.4831,156.1837 L30.5917,155.5275 L30.7183,154.8146 L30.8625,154.0449 L31.0223,153.2261 L31.1983,152.3556 L31.3904,151.434 L31.5965,150.4674 L31.8174,149.4534 L32.0526,148.3925 L32.3004,147.2905 L32.5615,146.1447 L32.8353,144.9561 L33.1203,143.7295 L33.417,142.4629 L33.7249,141.157 L34.0426,139.8167 L34.3704,138.4395 L34.708,137.0268 L35.054,135.5827 L35.4086,134.1054 L35.7714,132.5958 L36.1412,131.0581 L36.5182,129.4905 L36.9019,127.8941 L37.2937,126.261 L37.6856,124.6273 L38.0879,122.9434 L38.4903,121.2588 L38.9008,119.5289 L39.3114,117.7987 L39.7276,116.0313 L40.144,114.2631 L40.5648,112.4581 L40.9856,110.6527 L41.4086,108.8154 L41.832,106.9762 L42.255,105.1012 L42.6768,103.2312 L43.0987,101.3611 L43.5225,99.4822 L43.9391,97.5656 L44.3538,95.6576 L44.7686,93.7495 L45.1857,91.8305 L45.5869,89.8932 L45.9858,87.9668 L46.3848,86.0405 L46.7856,84.1055 L47.1714,82.1679 L47.5569,80.2317 L47.9288,78.2993 L48.3008,76.3662 L48.6569,74.4417 L49.013,72.5172 L49.3531,70.6045 L49.6933,68.6902 L50.0139,66.793 L50.3347,64.8949 L50.6336,63.0189 L50.9321,61.1458 L51.2155,59.284 L51.4863,57.4379 L51.7442,55.6073 L51.99,53.7912 L52.222,51.9912 L52.4397,50.2102 L52.6438,48.4464 L52.8327,46.7022 L53.0056,44.9799 L53.1637,43.278 L53.3049,41.5983 L53.4287,39.9441 L53.5361,38.3129 L53.6252,36.707 L53.6951,35.1298 L53.7473,33.5783 L53.7794,32.0547 L53.7919,30.5629 L53.7863,29.0994 L53.7587,27.6663 L53.7086,26.268 L53.6374,24.9002 L53.5422,23.565 L53.4225,22.2675 L53.2796,21.0026 L53.1102,19.772 L52.9139,18.5818 L52.6919,17.426 L52.4398,16.3057 L52.1579,15.2284 L51.8465,14.1873 L51.5,13.1824 L51.1194,12.2236 L50.7039,11.3031 L50.2456,10.4209 L49.7535,9.5989 L49.3562,9.028 L48.9117,8.5062 L48.4125,8.0457 L47.8358,7.6447 L47.153,7.3291 L46.4175,7.1532 L45.6599,7.1271 L44.9171,7.2559 L44.2702,7.4983 L43.7052,7.8143 L43.2028,8.1901 L42.7673,8.5954 L42.3728,9.0272 L42.0045,9.4929 L41.6631,9.9806 L41.338,10.4923 L41.0238,11.0346 L40.7083,11.6265 L40.1408,12.7973 L39.5818,14.0944 L39.0441,15.4683 L38.5227,16.9022 L38.017,18.3905 L37.5282,19.9113 L37.0546,21.4476 L36.5976,22.9861 L36.1587,24.5051 L35.7369,25.9909 L35.3346,27.423 L34.9529,28.7819 L34.7701,29.4285 L34.5929,30.0499 L34.4216,30.6431 L34.2561,31.2075 L34.0975,31.7373 L33.9425,32.2411 L33.6107,33.3216 L33.2756,34.413 L32.9482,35.5183 L32.621,36.6232 L32.3013,37.7412 L31.9821,38.858 L31.6695,39.9863 L31.3568,41.1151 L31.0512,42.2561 L30.7458,43.3967 L30.4474,44.5487 L30.1482,45.7036 L29.8584,46.8732 L29.5716,48.0304 L29.2847,49.1876 L28.9938,50.3618 L28.716,51.5554 L28.4421,52.7324 L28.1683,53.9093 L27.8909,55.1017 L27.6259,56.3111 L27.3643,57.5051 L27.1027,58.6992 L26.8384,59.9061 L26.5848,61.1265 L26.3338,62.3341 L26.0828,63.5418 L25.8292,64.7623 L25.5868,65.9955 L25.347,67.2158 L25.1071,68.4361 L24.865,69.6681 L24.6334,70.9102 L24.404,72.1405 L24.1746,73.371 L23.9434,74.6111 L23.7212,75.8584 L23.5007,77.096 L23.2803,78.3335 L23.0581,79.5808 L22.8452,80.8338 L22.6341,82.077 L22.4228,83.3202 L22.2102,84.5722 L22.0062,85.8272 L21.8036,87.0735 L21.601,88.3198 L21.3974,89.5733 L21.2018,90.8275 L21.0074,92.0748 L20.8129,93.322 L20.6174,94.5762 L20.4293,95.829 L20.2423,97.0748 L20.0552,98.3208 L19.8673,99.5726 L19.6861,100.8206 L19.5058,102.0625 L19.3255,103.3045 L19.1446,104.551 L18.9692,105.7921 L18.7945,107.0285 L18.6199,108.2648 L18.4446,109.5055 L18.2748,110.7378 L18.1057,111.9657 L17.9366,113.1937 L17.767,114.4251 L17.6024,115.6455 L17.4381,116.8624 L17.2739,118.0795 L17.1094,119.2988 L16.9488,120.5062 L16.7885,121.7113 L16.6282,122.9164 L16.4677,124.1231 L16.3109,125.3145 L16.1543,126.5042 L15.9978,127.6937 L15.8411,128.8842 L15.6875,130.0565 L15.534,131.2283 L15.3805,132.3999 L15.227,133.5716 L15.0752,134.7298 L14.9235,135.8876 L14.7728,137.0347 L14.6222,138.1817 L14.4725,139.3173 L14.3229,140.4527 L14.1739,141.5773 L14.025,142.7017 L13.8771,143.8136 L13.7292,144.9253 L13.5818,146.0238 L13.4344,147.1226 L13.2941,148.1593 L13.1537,149.1973 L13.0133,150.2354 L12.8729,151.2733 L12.7325,152.3114 L12.5921,153.3495 L12.4517,154.3875 L12.3112,155.4257 L12.1709,156.4639 L12.0306,157.502 L11.8903,158.5401 L11.75,159.5781 L11.6097,160.6162 L11.4695,161.6543 L11.3291,162.6924 L11.1885,163.733 L11.05,164.7741 L10.9118,165.8124 L10.7737,166.8507 L10.6355,167.8892 L10.4973,168.9275 L10.3592,169.9658 L10.221,171.0043 L10.0823,172.0469 L9.9471,173.09 L9.8125,174.1288 L9.6778,175.1676 L9.5432,176.2064 L9.4086,177.2453 L9.2739,178.2841 L9.1393,179.3228 L9.0038,180.3685 L8.8739,181.4149 L8.745,182.4544 L8.616,183.4939 L8.487,184.5333 L8.358,185.5729 L8.229,186.6123 L8.1,187.6518 L7.9699,188.7007 L7.8475,189.7504 L7.7262,190.7908 L7.6048,191.8312 L7.4835,192.8716 L7.3622,193.912 L7.2408,194.9524 L7.1195,195.9928 L6.9983,197.0336 L6.8963,197.9116 L6.7813,198.8477 L6.6532,199.8472 L6.5142,200.8998 L6.3646,202.0059 L6.2056,203.1601 L6.0353,204.3743 L5.865,205.5891 L5.6825,206.8737 L5.4997,208.1605 L5.3096,209.4983 L5.1192,210.8378 L4.9263,212.2088 L4.733,213.5816 L4.541,214.9727 L4.3488,216.3659 L4.1629,217.7588 L3.977,219.151 L3.7973,220.538 L3.6239,221.9126 L3.4581,223.271 L3.3,224.6117 L3.1513,225.9295 L3.0136,227.2185 L2.8866,228.4789 L2.7726,229.7047 L2.6728,230.89 L2.587,232.0365 L2.5175,233.1382 L2.466,234.1886 L2.4319,235.192 L2.4183,236.1437 L2.4272,237.037 L2.4589,237.8811 L2.5192,238.6779 L2.6076,239.3848 L2.6751,239.7833 L2.7515,240.1436 L2.8439,240.496 L2.9574,240.8515 L3.1047,241.2218 L3.2913,241.5949 L3.5375,241.9829 L3.8814,242.3927 L4.3267,242.7747 L4.8916,243.0995 L5.5748,243.314 L6.2529,243.3689 L6.8795,243.2925 L7.4373,243.1181 L7.8895,242.8974 L8.2738,242.6514 L8.6171,242.3814 L8.9191,242.1029 L9.1999,241.8114 L9.4716,241.4978 L9.7327,241.1685 L9.9907,240.8194 L10.2511,240.443 L10.5258,240.021 L11.1133,239.0609 L11.7152,238.0761 L12.2902,237.0526 L12.8632,236.0309 L13.4101,234.9724 L13.9534,233.9188 L14.4736,232.8333 L14.9942,231.7457 L15.4901,230.6247 L15.9846,229.5053 L16.4552,228.3539 L16.9236,227.207 L17.3709,226.0324 L17.8184,224.8563 L18.2435,223.6515 L18.6676,222.4481 L19.07,221.2177 L19.4709,219.991 L19.8528,218.741 L20.2347,217.4899 L20.5963,216.2146 L20.9572,214.9407 L21.2986,213.6445 L21.6389,212.3515 L21.962,211.0394 L22.2852,209.7266 L22.5901,208.3944 L22.8945,207.0634 L23.1814,205.7147 L23.4676,204.3689 L23.7384,203.0084 L24.0093,201.6472 L24.2638,200.2715 L24.5181,198.8967 L24.7568,197.5093 L24.9961,196.1176 L25.2152,194.7112 L25.4311,193.3251 L25.647,191.9391 L25.8669,190.526 L26.0593,189.0967 L26.248,187.6941 L26.4367,186.2916 L26.6284,184.8657 L26.7954,183.4307 L26.9596,182.0187 L27.1238,180.6068 L27.2901,179.1764 L27.4363,177.7432 L27.5806,176.3284 L27.7248,174.9136 L27.8708,173.4811 L27.9971,172.0517 L28.1217,170.6399 L28.2464,169.228 L28.3723,167.8017 L28.4814,166.385 L28.5893,164.9833 L28.6973,163.5816 L28.8058,162.1713 L28.9043,160.7713 L29.0026,159.3744 L29.0943,157.9872 L29.1859,156.6007 L29.2717,155.2256 L29.3575,153.8516 L29.4384,152.4893 L29.5193,151.1272 L29.5956,149.7796 L29.6719,148.4328 L29.7442,147.1022 L29.8164,145.7725 L29.8857,144.459 L29.9549,143.146 L30.0214,141.8523 L30.0878,140.5593 L30.1523,139.2876 L30.2167,138.0166 L30.2798,136.7661 L30.3429,135.5165 L30.4052,134.291 L30.4674,133.0665 L30.5295,131.8681 L30.5917,130.6701 L30.6542,129.4973 L30.7167,128.3255 L30.7804,127.1829 L30.8439,126.0414 L30.9093,124.9308 L30.9746,123.8207 L31.0421,122.7403 L31.1096,121.6613 L31.18,120.6165 L31.2503,119.5729 L31.3243,118.5654 L31.3986,117.5542 L31.5231,115.9197 L31.6432,114.3267 L31.7586,112.7782 L31.8699,111.2693 L31.9767,109.803 L32.0793,108.3783 L32.178,106.9907 L32.2726,105.643 L32.3632,104.3341 L32.4503,103.0598 L32.5337,101.8225 L32.6135,100.6215 L32.69,99.4525 L32.7631,98.3178 L32.8329,97.2164 L32.8999,96.1447 L32.9637,95.1044 L33.0246,94.0947 L33.0829,93.1123 L33.1385,92.1585 L33.1915,91.2327 L33.2422,90.3313 L33.2905,89.4561 L33.3365,88.6049 L33.4227,86.9715 L33.5011,85.4267 L33.5728,83.9643 L33.639,82.5703 L33.7001,81.2446 L33.7571,79.9795 L33.8102,78.7843 L33.8631,77.5907 L33.9131,76.4741 L33.963,75.3606 L34.0139,74.292 L34.0645,73.2238 L34.1177,72.174 L34.174,71.1257 L34.2343,70.0716 L34.2991,69.0056 L34.3696,67.9199 L34.447,66.8052 L34.5313,65.6579 L34.6241,64.468 L34.7265,63.2263 L34.8384,61.9315 L34.9615,60.5714 L35.0972,59.1349 L35.1692,58.3927 L35.2448,57.6276 L35.3239,56.84 L35.4064,56.0315 L35.4925,55.1994 L35.5826,54.3422 L35.6763,53.4614 L35.7741,52.5545 L35.8761,51.6195 L35.982,50.6587 L36.0924,49.6686 L36.2073,48.6481 L36.3265,47.5991 L36.4504,46.5181 L36.5792,45.4038 L36.7126,44.2586 L36.8511,43.0786 L36.9948,41.8627 L37.1434,40.6133 L37.2975,39.3263 L37.4571,38.0006 L37.6219,36.6391 L37.7924,35.2372 L37.967,33.809 L38.0474,33.2403 L38.1535,32.6525 L38.2877,32.0253 L38.4456,31.3683 L38.6273,30.6851 L38.8266,29.9926 L39.299,28.4856 L39.8334,26.9278 L40.4207,25.3112 L41.0421,23.6559 L41.6853,21.9736 L42.3334,20.2785 L42.9727,18.5818 L43.5876,16.8944 L44.1548,15.2464 L44.4269,14.4111 L44.6789,13.5963 L44.912,12.7931 L45.1267,11.9986 L45.3197,11.2117 L45.4869,10.4389 L45.6292,9.6747 L45.742,8.9158 L45.8203,8.1708 L45.8638,7.4313 L45.8643,6.69 L45.815,5.9606 L45.7115,5.2318 L45.5363,4.4953 L45.2828,3.7789 L44.9415,3.0783 L44.4897,2.3989 L43.9461,1.7919 L43.3165,1.2595 L42.5984,0.8132 L41.8409,0.4768 L41.049,0.2322 L40.214,0.0741 L39.3897,0 L38.768,0 L38.1686,0.0729 L37.6011,0.202 L37.0569,0.3808 L36.5286,0.6099 L36.0357,0.8747 L35.566,1.1714 L35.1111,1.504 L34.6807,1.8609 L34.2656,2.2418 L33.8594,2.653 L33.4679,3.0853 L33.0851,3.5403 L32.7072,4.0232 L32.3378,4.5277 L31.9733,5.0543 L31.6113,5.6082 L31.2544,6.1842 L30.9002,6.7822 L30.5473,7.407 L30.1975,8.054 L29.8494,8.7228 L29.5019,9.4175 L29.1564,10.1345 L28.812,10.8729 L28.4678,11.6364 L28.1251,12.4216 L27.783,13.2278 L27.4412,14.0579 L27.0963,14.9198 L26.4205,16.6725 L25.7443,18.5178 L25.4036,19.4923 L25.0662,20.4579 L24.7293,21.4613 L24.3924,22.4653 L24.0562,23.5095 L23.7204,24.553 L23.3855,25.6349 L23.0513,26.715 L22.718,27.8288 L22.3846,28.9433 L22.0525,30.0933 L21.7206,31.2428 L21.3901,32.4263 L21.0601,33.6083 L20.7315,34.82 L20.4029,36.0322 L20.076,37.2755 L19.7492,38.5183 L19.4244,39.7907 L19.1,41.0618 L18.7775,42.3583 L18.455,43.6553 L18.1347,44.9788 L17.8146,46.302 L17.497,47.6499 L17.1797,48.997 L16.8648,50.3651 L16.5499,51.7338 L16.2379,53.1243 L15.926,54.5144 L15.6172,55.9248 L15.3086,57.3344 L15.003,58.7609 L14.6973,60.1878 L14.3952,61.6319 L14.0931,63.0757 L13.7947,64.5351 L13.496,65.9962 L13.2027,67.4758 L12.911,68.9476 L12.6192,70.4195 L12.3253,71.9022 L12.04,73.407 L11.7569,74.9009 L11.4737,76.3947 L11.1885,77.8989 L10.9129,79.4182 L10.6391,80.9273 L10.3654,82.4363 L10.09,83.9545 L9.8239,85.4809 L9.5594,86.9983 L9.2949,88.5156 L9.0288,90.0427 L8.7736,91.573 L8.5201,93.0936 L8.2666,94.6143 L8.0115,96.1443 L7.7683,97.6708 L7.5266,99.1878 L7.285,100.7047 L7.0423,102.2282 L6.8081,103.7456 L6.5742,105.2615 L6.3469,106.7709 L6.1195,108.2804 L5.8989,109.7819 L5.6783,111.283 L5.464,112.7754 L5.2497,114.2683 L5.0424,115.7503 L4.8352,117.2322 L4.6353,118.7014 L4.4354,120.1703 L4.2424,121.6262 L4.0493,123.0827 L3.8639,124.5236 L3.6786,125.9644 L3.5011,127.388 L3.3237,128.8111 L3.1537,130.2169 L2.9837,131.6236 L2.8219,133.0097 L2.6602,134.396 L2.507,135.7603 L2.3538,137.1242 L2.2085,138.4667 L2.0632,139.8098 L1.9269,141.1279 L1.7905,142.4463 L1.6632,143.7379 L1.536,145.0291 L1.4173,146.2947 L1.2985,147.5611 L1.1892,148.7979 L1.0799,150.0348 L0.9804,151.2405 L0.8809,152.4458 L0.7905,153.6211 L0.6999,154.7976 L0.6196,155.9398 L0.5392,157.0824 L0.4691,158.1891 L0.3992,159.2953 L0.3388,160.3676 L0.2783,161.4412 L0.2286,162.476 L0.1788,163.5155 L0.1019,165.495 L0.0706,166.4679 L0.0452,167.4146 L0.0256,168.3394 L0.0112,169.2448 L0.0026,170.1289 L0,170.9903 L0.0029,171.8312 L0.0118,172.6505 L0.0268,173.4458 L0.0476,174.2202 L0.0747,174.9726 L0.1082,175.7 L0.1478,176.4061 L0.1942,177.09 L0.2473,177.7486 L0.307,178.3858 L0.3743,179.0014 L0.449,179.5913 L0.5312,180.1608 L0.6225,180.7102 L0.7226,181.235 L0.8322,181.7411 L0.9543,182.2312 L1.0885,182.6991 L1.2375,183.1527 L1.4077,183.5982 L1.5995,184.0258 L1.8207,184.4467 L2.0879,184.869 L2.4024,185.2741 L2.7833,185.6671 L3.2617,186.0416 L3.8151,186.3476 L4.4426,186.5662 L5.1328,186.6692 L5.791,186.6448 L6.4023,186.5195 L6.9654,186.3114 L7.449,186.057 L7.8805,185.7695 L8.2799,185.4479 L8.6425,185.1074 L8.9852,184.7455 L9.3187,184.3532 L9.6403,183.938 L9.9572,183.497 L10.2748,183.0221 L10.5735,182.5458 C11.3594,181.2915 10.9796,179.6376 9.7254,178.8518 C8.4711,178.0659 6.8172,178.4457 6.0314,179.7 Z" id="Fill-308"></path>
        </g>
    </g>
</svg>
