<?xml version="1.0" encoding="UTF-8"?>
<svg width="202px" height="215px" viewBox="0 0 202 215" version="1.1" xmlns="http://www.w3.org/2000/svg" xmlns:xlink="http://www.w3.org/1999/xlink">
    <title>151</title>
    <g id="Page-1" stroke="none" stroke-width="1" fill="none" fill-rule="evenodd">
        <g id="151" transform="translate(0.093611, 0.534600)" fill="currentColor">
            <path d="M137.185,90.7493 L137.187,90.3581 L137.193,89.9501 L137.201,89.515 L137.211,89.0587 L137.222,88.583 L137.233,88.0874 L137.251,87.0731 L137.258,86.0251 L137.246,84.9722 L137.207,83.926 L137.129,82.8961 L137.004,81.9511 L136.905,81.4151 L136.786,80.9207 L136.635,80.4316 L136.438,79.9326 L136.167,79.4075 L135.799,78.8833 L135.291,78.3643 L134.583,77.8988 L133.756,77.6098 L132.89,77.5318 L132.067,77.6527 L131.38,77.8985 L130.789,78.2159 L130.252,78.5942 L129.763,79.0129 L129.293,79.4757 L128.821,79.998 L128.347,80.5762 L127.861,81.2137 L127.355,81.9254 L126.83,82.7102 L126.282,83.5676 L125.706,84.5113 L125.107,85.5332 L124.79,86.0876 L124.469,86.658 L124.141,87.2515 L123.805,87.8671 L123.461,88.5081 L123.108,89.1737 L122.748,89.8624 L122.378,90.5776 L122,91.3187 L121.613,92.0841 L121.217,92.877 L120.807,93.7072 L120.497,94.3564 L120.217,94.9936 L119.972,95.6041 L119.758,96.1966 L119.577,96.7769 L119.431,97.3381 L119.317,97.8919 L119.24,98.4492 L119.206,98.998 L119.216,99.5527 L119.285,100.1268 L119.42,100.692 L119.631,101.2545 L119.935,101.8115 L120.314,102.3084 L120.76,102.7416 L121.268,103.1042 L121.784,103.3715 L122.304,103.5638 L122.83,103.6922 L123.331,103.7623 L123.819,103.7902 L124.305,103.7813 L124.775,103.7418 L125.239,103.6778 L125.705,103.5893 L126.166,103.4808 L126.626,103.3546 L127.092,103.2089 L127.589,103.0355 L128.493,102.6804 L129.448,102.251 L130.409,101.7692 L131.377,101.2418 L132.353,100.6658 L133.325,100.0504 L134.29,99.4005 L135.246,98.7147 L136.182,98.0015 L137.095,97.2648 L137.981,96.5032 L138.827,95.7254 L139.635,94.9326 L140.398,94.1218 L141.103,93.3021 L141.753,92.4688 L142.341,91.6127 L142.85,90.7419 L143.282,89.8382 L143.616,88.8731 L143.798,87.9656 L143.852,87.3287 L143.838,86.7661 L143.763,86.2048 L143.624,85.6405 L143.408,85.0721 L143.127,84.5426 L142.783,84.049 L142.374,83.5922 L141.93,83.1987 L141.454,82.8554 L140.939,82.5559 L140.41,82.3071 L139.86,82.0961 L139.279,81.9187 L138.681,81.7755 L138.06,81.6596 L137.404,81.5701 L136.723,81.5072 L136.011,81.467 L135.259,81.451 L134.474,81.4589 L133.652,81.4886 L132.786,81.5426 L131.833,81.6253 L130.844,81.7711 L129.834,82.0288 L128.886,82.38 L127.989,82.8125 L127.14,83.3302 L126.361,83.911 L125.638,84.5467 L124.968,85.242 L124.363,85.9753 L123.809,86.7436 L123.304,87.5523 L122.854,88.383 L122.45,89.2354 L122.092,90.1146 L121.783,91.0041 L121.516,91.9051 L121.293,92.8217 L121.116,93.7385 L120.98,94.6578 L120.888,95.5827 L120.841,96.4981 L120.836,97.4078 L120.877,98.3145 L120.965,99.2023 L121.099,100.077 L121.285,100.9416 L121.524,101.7775 L121.817,102.5927 L122.177,103.3895 L122.602,104.1437 L123.097,104.8624 L123.682,105.5415 L124.344,106.1462 L125.087,106.677 L125.924,107.1175 L126.814,107.4357 L127.751,107.6369 L128.736,107.7106 L129.65,107.6638 L130.22,107.5871 L130.725,107.4869 L131.225,107.3593 L131.727,107.206 L132.235,107.0233 L132.741,106.8153 L133.248,106.5827 L133.762,106.3214 L134.276,106.0354 L134.793,105.7249 L135.319,105.3853 L135.846,105.0205 L136.378,104.6304 L136.919,104.2103 L137.464,103.7636 L138.015,103.2906 L138.576,102.7862 L139.169,102.2275 L139.737,101.635 L140.294,100.9564 L140.808,100.2375 L141.293,99.4798 L141.751,98.6763 L142.179,97.8413 L142.581,96.9768 L142.959,96.0788 L143.308,95.1605 L143.63,94.2236 L143.923,93.2666 L144.185,92.3018 L144.416,91.3302 L144.613,90.3509 L144.773,89.377 L144.898,88.4069 L144.981,87.4396 L145.02,86.4893 L145.014,85.5506 L144.955,84.6204 L144.838,83.7155 L144.658,82.8258 L144.398,81.9451 L144.059,81.1245 L143.632,80.2926 L143.169,79.5203 L142.67,78.8012 L142.134,78.1258 L141.553,77.4932 L140.943,76.9179 L140.302,76.3907 L139.622,75.9113 L138.923,75.4907 L138.203,75.1196 L137.454,74.798 L136.695,74.5317 L135.924,74.3118 L135.133,74.1391 L134.34,74.0147 L133.54,73.9315 L132.726,73.8907 L131.913,73.8911 L131.097,73.9272 L130.271,74.0012 L129.447,74.1104 L128.621,74.251 L127.789,74.4255 L126.96,74.6306 L126.13,74.8635 L125.296,75.127 L124.466,75.4177 L123.637,75.7333 L122.807,76.0769 L121.981,76.4445 L121.158,76.8347 L120.336,77.2502 L119.521,77.6873 L118.71,78.1447 L117.903,78.6252 L117.082,79.1394 L115.527,80.1787 L113.981,81.3101 L112.481,82.507 L111.025,83.7617 L109.621,85.0781 L108.284,86.4434 L107.011,87.8529 L105.811,89.3101 L104.719,90.7758 L104.177,91.5589 L103.675,92.3277 L103.2,93.1015 L102.75,93.8822 L102.325,94.6729 L101.93,95.4669 L101.563,96.2667 L101.225,97.0764 L100.921,97.8873 L100.648,98.7032 L100.409,99.5286 L100.208,100.3533 L100.043,101.1818 L99.917,102.0192 L99.835,102.853 L99.794,103.6884 L99.799,104.5308 L99.852,105.3649 L99.952,106.1965 L100.106,107.0305 L100.312,107.8491 L100.569,108.6586 L100.886,109.463 L101.256,110.2441 L101.678,111.0081 L102.161,111.7583 L102.695,112.4786 L103.281,113.1759 L103.926,113.8522 L104.621,114.4959 L105.364,115.1132 L106.166,115.7061 L107.015,116.2662 L107.912,116.7994 L108.868,117.3065 L109.872,117.7818 L110.925,118.2304 L112.038,118.6519 L113.203,119.0428 L114.419,119.4069 L115.697,119.7429 L117.031,120.0485 L118.116,120.2594 L119.196,120.421 L120.257,120.5321 L121.304,120.5981 L122.343,120.6158 L123.36,120.586 L124.362,120.5133 L125.353,120.3941 L126.32,120.2309 L127.27,120.0278 L128.206,119.7808 L129.116,119.4942 L130.007,119.1711 L130.881,118.8073 L131.728,118.4089 L132.555,117.9777 L133.363,117.51 L134.143,117.0122 L134.902,116.4859 L135.641,115.9268 L136.353,115.3422 L137.042,114.7332 L137.711,114.0952 L138.353,113.4359 L138.973,112.7556 L139.571,112.05 L140.143,111.327 L140.694,110.586 L141.222,109.8234 L141.725,109.0466 L142.206,108.255 L142.665,107.4449 L143.099,106.6237 L143.511,105.7906 L143.9,104.942 L144.265,104.0853 L144.608,103.2193 L144.929,102.3409 L145.224,101.4572 L145.498,100.5668 L145.748,99.6668 L145.981,98.7333 L146.359,96.9478 L146.648,95.1134 L146.836,93.2819 L146.933,91.4534 L146.928,89.6286 L146.822,87.8654 L146.729,86.9378 L146.61,86.0498 L146.465,85.1738 L146.295,84.3059 L146.096,83.4442 L145.869,82.5977 L145.616,81.762 L145.332,80.9355 L145.02,80.1275 L144.68,79.3334 L144.307,78.5517 L143.905,77.7924 L143.473,77.0506 L143.007,76.3249 L142.511,75.6263 L141.984,74.9492 L141.421,74.2932 L140.828,73.6689 L140.204,73.0711 L139.542,72.4998 L138.852,71.9654 L138.132,71.4624 L137.374,70.9919 L136.59,70.5627 L135.778,70.1694 L134.929,69.8142 L134.057,69.5035 L133.159,69.2321 L132.228,69.0031 L131.276,68.8204 L130.3,68.6793 L129.292,68.5834 L128.265,68.5349 L127.215,68.5294 L126.135,68.5716 L125.035,68.6617 L123.914,68.796 L122.763,68.9801 L121.591,69.213 L120.398,69.4916 L119.174,69.8221 L117.935,70.2012 L117.207,70.4528 L116.495,70.7364 L115.805,71.0485 L115.132,71.3878 L114.472,71.7581 L113.835,72.1531 L113.215,72.5722 L112.61,73.0195 L112.027,73.4879 L111.462,73.9774 L110.912,74.4921 L110.383,75.025 L109.872,75.5761 L109.377,76.1497 L108.902,76.7386 L108.444,77.3436 L108.001,77.9686 L107.559,78.6365 L106.781,79.9234 L106.047,81.3029 L105.384,82.7276 L104.781,84.1939 L104.24,85.7072 L103.765,87.2518 L103.347,88.8254 L102.991,90.4317 L102.698,92.0562 L102.461,93.6976 L102.286,95.3579 L102.173,97.0231 L102.116,98.6932 L102.12,100.3687 L102.186,102.0358 L102.309,103.6956 L102.495,105.3476 L102.744,106.9777 L103.05,108.5883 L103.422,110.1781 L103.857,111.732 L104.353,113.2542 L104.918,114.7423 L105.549,116.18 L106.244,117.5729 L107.014,118.9174 L107.854,120.1953 L108.763,121.4129 L109.754,122.5646 L110.783,123.5972 L111.376,124.1323 L111.958,124.6156 L112.557,125.0719 L113.173,125.5052 L113.814,125.9154 L114.47,126.2956 L115.143,126.6499 L115.84,126.9774 L116.551,127.2722 L117.277,127.5383 L118.027,127.774 L118.787,127.975 L119.563,128.1452 L120.359,128.2819 L121.164,128.3828 L121.983,128.4511 L122.821,128.4838 L123.676,128.4798 L125.016,128.4238 L126.346,128.3162 L127.645,128.1591 L128.921,127.9572 L130.174,127.7062 L131.396,127.4093 L132.593,127.0703 L133.766,126.6848 L134.906,126.2572 L136.02,125.7906 L137.109,125.2807 L138.163,124.7329 L139.191,124.1495 L140.192,123.5261 L141.159,122.8691 L142.097,122.1802 L143.008,121.455 L143.885,120.7005 L144.733,119.9178 L145.552,119.1024 L146.338,118.2618 L147.094,117.3966 L147.822,116.5023 L148.516,115.5866 L149.182,114.6499 L149.818,113.6875 L150.421,112.7075 L150.996,111.7093 L151.541,110.6892 L152.054,109.6546 L152.538,108.6052 L152.993,107.5368 L153.415,106.4575 L153.81,105.3659 L154.174,104.2589 L154.508,103.1436 L154.813,102.0192 L155.088,100.8824 L155.332,99.7404 L155.547,98.592 L155.733,97.4342 L155.887,96.2742 L156.014,95.1104 L156.11,93.9403 L156.175,92.7709 L156.212,91.6007 L156.218,90.4267 L156.193,89.2568 L156.14,88.0883 L156.056,86.9194 L155.94,85.7574 L155.796,84.5997 L155.62,83.4443 L155.413,82.299 L155.178,81.1606 L154.909,80.0277 L154.61,78.9078 L154.281,77.7978 L153.919,76.6962 L153.526,75.6109 L153.102,74.5384 L152.645,73.4774 L152.156,72.4361 L151.637,71.4106 L151.083,70.4 L150.497,69.4124 L149.881,68.4439 L149.228,67.4938 L148.544,66.5705 L147.829,65.6695 L147.077,64.791 L146.293,63.9429 L145.479,63.1208 L144.626,62.3251 L143.743,61.5638 L142.829,60.832 L141.877,60.1309 L140.894,59.4678 L139.882,58.838 L138.831,58.2434 L137.752,57.6899 L136.642,57.1733 L135.496,56.696 L134.321,56.2631 L133.118,55.8702 L131.879,55.5205 L130.613,55.2177 L129.319,54.9577 L127.99,54.7445 L126.635,54.5806 L125.252,54.4619 L123.836,54.393 L122.394,54.3757 L120.926,54.4056 L119.424,54.4885 L117.892,54.6252 L116.517,54.7983 L115.16,55.0336 L113.837,55.3276 L112.541,55.6746 L111.269,56.0803 L110.034,56.5395 L108.826,57.0478 L107.646,57.6107 L106.503,58.2215 L105.389,58.8769 L104.304,59.5822 L103.255,60.33 L102.237,61.1176 L101.248,61.9503 L100.296,62.82 L99.373,63.7249 L98.481,64.6701 L97.624,65.6475 L96.796,66.6558 L95.998,67.6998 L95.235,68.7717 L94.501,69.8706 L93.796,71.0008 L93.125,72.1549 L92.482,73.3321 L91.868,74.5366 L91.286,75.7612 L90.732,77.0054 L90.208,78.2731 L89.714,79.5573 L89.248,80.8577 L88.811,82.1778 L88.404,83.5108 L88.024,84.8569 L87.673,86.2188 L87.351,87.5903 L87.057,88.9715 L86.791,90.3648 L86.554,91.7642 L86.344,93.1702 L86.162,94.5848 L86.009,96.0018 L85.883,97.4223 L85.785,98.8477 L85.716,100.2722 L85.673,101.6967 L85.659,103.1228 L85.674,104.5443 L85.714,105.9628 L85.783,107.3792 L85.881,108.7875 L86.005,110.1896 L86.157,111.5863 L86.338,112.9711 L86.546,114.3466 L86.782,115.7131 L87.047,117.0643 L87.338,118.4029 L87.659,119.7292 L88.009,121.0364 L88.385,122.3278 L88.791,123.6033 L89.226,124.8562 L89.689,126.0899 L90.182,127.3044 L90.703,128.4924 L91.253,129.6579 L91.834,130.8006 L92.444,131.9129 L93.083,132.9991 L93.754,134.0588 L94.455,135.0838 L95.185,136.0791 L95.949,137.0435 L96.743,137.9687 L97.566,138.8599 L98.425,139.7156 L99.314,140.5272 L100.232,141.3 L101.187,142.0319 L102.17,142.7144 L103.184,143.3532 L104.234,143.945 L105.311,144.4823 L106.416,144.9705 L107.558,145.4057 L108.723,145.7818 L109.915,146.1042 L111.141,146.368 L112.388,146.5692 L113.659,146.7131 L114.961,146.7939 L116.282,146.8095 L117.624,146.7653 L118.996,146.6544 L120.387,146.4765 L122.383,146.1477 L124.339,145.7564 L126.246,145.306 L128.112,144.8022 L129.935,144.2397 L131.708,143.6225 L133.44,142.9554 L135.128,142.2323 L136.766,141.4588 L138.361,140.6395 L139.913,139.769 L141.414,138.853 L142.872,137.895 L144.286,136.89 L145.65,135.8443 L146.97,134.7608 L148.245,133.6345 L149.471,132.4722 L150.652,131.2763 L151.789,130.0421 L152.876,128.7767 L153.92,127.4816 L154.919,126.1525 L155.868,124.7971 L156.774,123.4161 L157.635,122.0053 L158.448,120.5727 L159.218,119.1185 L159.942,117.6389 L160.619,116.1416 L161.254,114.6265 L161.844,113.0904 L162.386,111.5407 L162.887,109.9771 L163.342,108.3966 L163.752,106.8065 L164.12,105.2062 L164.443,103.5931 L164.721,101.9744 L164.957,100.3493 L165.149,98.7152 L165.295,97.0795 L165.401,95.441 L165.462,93.7974 L165.479,92.1563 L165.455,90.5159 L165.387,88.8746 L165.274,87.2395 L165.122,85.6087 L164.924,83.9809 L164.684,82.3632 L164.403,80.7535 L164.077,79.1507 L163.708,77.5621 L163.299,75.9849 L162.846,74.4188 L162.349,72.8708 L161.813,71.3378 L161.232,69.8199 L160.608,68.3243 L159.944,66.8475 L159.235,65.3897 L158.484,63.9584 L157.693,62.5496 L156.856,61.1643 L155.978,59.8094 L155.06,58.4812 L154.096,57.1805 L153.091,55.9147 L152.046,54.6795 L150.955,53.4765 L149.824,52.3127 L148.653,51.1834 L147.436,50.091 L146.179,49.0422 L144.883,48.0307 L143.543,47.0601 L142.163,46.1373 L140.744,45.2572 L139.28,44.4234 L137.777,43.6416 L136.237,42.9066 L134.651,42.2227 L133.028,41.5948 L131.368,41.0177 L129.664,40.4962 L127.924,40.0344 L126.148,39.6271 L124.329,39.2801 L122.474,38.9962 L120.584,38.7702 L118.652,38.6087 L116.685,38.5136 L114.684,38.4799 L112.655,38.5144 L111.603,38.5667 L110.554,38.6201 L108.744,38.7698 L106.942,38.988 L105.169,39.2714 L103.421,39.6138 L101.694,40.0206 L99.998,40.4884 L98.327,41.0117 L96.681,41.5958 L95.065,42.2365 L93.476,42.9292 L91.912,43.6787 L90.38,44.4804 L88.876,45.3302 L87.397,46.2331 L85.951,47.184 L84.533,48.1793 L83.142,49.2237 L81.784,50.312 L80.454,51.4409 L79.152,52.6151 L77.883,53.8291 L76.642,55.0802 L75.431,56.3726 L74.252,57.7012 L73.101,59.0633 L71.98,60.4631 L70.892,61.8952 L69.833,63.3575 L68.804,64.854 L67.807,66.379 L66.84,67.9309 L65.903,69.5133 L64.999,71.1209 L64.124,72.7521 L63.281,74.4102 L62.47,76.09 L61.69,77.7904 L60.941,79.5141 L60.225,81.2561 L59.539,83.0153 L58.885,84.7944 L58.265,86.5885 L57.675,88.3966 L57.118,90.2213 L56.595,92.0572 L56.102,93.9044 L55.643,95.7644 L55.218,97.6325 L54.824,99.5085 L54.464,101.3941 L54.139,103.2844 L53.845,105.1794 L53.586,107.0806 L53.362,108.983 L53.17,110.887 L53.013,112.794 L52.892,114.6986 L52.804,116.6019 L52.751,118.5046 L52.734,120.4016 L52.75,122.2941 L52.803,124.1828 L52.892,126.0622 L53.015,127.9342 L53.176,129.7988 L53.373,131.6507 L53.605,133.492 L53.875,135.3227 L54.183,137.1373 L54.526,138.9381 L54.907,140.7248 L55.327,142.4919 L55.783,144.242 L56.279,145.9748 L56.814,147.6842 L57.385,149.3736 L57.997,151.0422 L58.648,152.6837 L59.337,154.302 L60.068,155.8958 L60.839,157.4589 L61.648,158.9954 L62.5,160.5039 L63.393,161.9777 L64.325,163.4213 L65.301,164.8332 L66.318,166.2064 L67.375,167.5458 L68.477,168.8494 L69.621,170.1103 L70.805,171.3336 L72.035,172.5167 L73.307,173.653 L74.619,174.748 L75.978,175.7983 L77.367,176.7899 L78.281,177.4031 L79.193,177.9807 L80.109,178.5277 L81.03,179.048 L81.96,179.5408 L82.893,180.0035 L83.831,180.4401 L84.776,180.8493 L85.724,181.2291 L86.676,181.5832 L87.635,181.9102 L88.595,182.2084 L89.559,182.4814 L90.529,182.7275 L91.499,182.9458 L92.472,183.1394 L93.451,183.3066 L94.429,183.4469 L95.409,183.5631 L96.393,183.6534 L97.377,183.7176 L98.361,183.7585 L99.35,183.7741 L100.336,183.7646 L101.323,183.7325 L102.313,183.6757 L103.3,183.5949 L104.287,183.4921 L105.277,183.3653 L106.286,183.2116 L108.234,182.8527 L110.205,182.3985 L112.165,181.8571 L114.119,181.2375 L116.055,180.5375 L117.039,180.1391 L118.005,179.747 L118.967,179.3188 L119.931,178.889 L120.89,178.4202 L121.848,177.9515 L122.8,177.4449 L123.748,176.9399 L124.691,176.4013 L125.635,175.861 L126.573,175.2847 L127.509,174.7084 L128.438,174.0972 L129.364,173.4876 L130.282,172.847 L131.202,172.2047 L132.113,171.529 L133.023,170.8535 L133.924,170.1457 L134.821,169.4395 L135.71,168.7049 L136.6,167.9685 L137.479,167.2015 L138.358,166.4345 L139.225,165.6379 L140.09,164.8431 L140.944,164.0222 L141.799,163.1994 L142.641,162.3487 L143.483,161.498 L144.311,160.6203 L145.137,159.7445 L145.951,158.8447 L146.765,157.9433 L147.565,157.0164 L148.365,156.0896 L149.149,155.1384 L149.931,154.1888 L150.699,153.2178 L151.468,152.2452 L152.22,151.2497 L152.971,150.2541 L153.706,149.2368 L154.438,148.2211 L155.155,147.1864 L155.872,146.1499 L156.57,145.0931 L157.269,144.0362 L157.948,142.9602 L158.625,141.8857 L159.284,140.7946 L159.944,139.7016 L160.584,138.591 L161.223,137.4802 L161.84,136.3527 L162.457,135.227 L163.053,134.0869 L163.65,132.9447 L164.225,131.7875 L164.799,130.6301 L165.35,129.4587 L165.899,128.2889 L166.427,127.1071 L166.955,125.9232 L167.458,124.7268 L167.962,123.5301 L168.439,122.3219 L168.916,121.1154 L169.369,119.8994 L169.822,118.6809 L170.249,117.4526 L170.675,116.2239 L171.074,114.9864 L171.472,113.7506 L171.844,112.5075 L172.217,111.2619 L172.56,110.009 L172.904,108.7556 L173.218,107.4959 L173.531,106.2382 L173.816,104.9755 L174.102,103.7099 L174.356,102.4398 L174.611,101.169 L174.833,99.8946 L175.055,98.6221 L175.247,97.3472 L175.44,96.0692 L175.599,94.789 L175.758,93.5083 L175.883,92.2265 L176.008,90.9469 L176.101,89.6669 L176.194,88.3837 L176.252,87.1011 L176.309,85.8178 L176.33,84.5361 L176.351,83.2565 L176.339,81.9793 L176.326,80.6984 L176.275,79.4208 L176.224,78.1427 L176.135,76.8685 L176.046,75.5969 L175.921,74.3299 L175.796,73.0592 L175.631,71.7943 L175.465,70.5288 L175.259,69.2701 L175.053,68.0141 L174.81,66.7652 L174.565,65.5125 L174.279,64.2684 L173.992,63.0236 L173.663,61.7884 L173.334,60.5562 L172.966,59.3334 L172.596,58.1069 L172.182,56.8917 L171.767,55.676 L171.308,54.4727 L170.85,53.2725 L170.35,52.0843 L169.848,50.8924 L169.301,49.7147 L168.752,48.5367 L168.157,47.3739 L167.567,46.2227 L166.936,45.0639 L166.283,43.9199 L165.608,42.7861 L164.91,41.6601 L164.186,40.5415 L163.439,39.4337 L162.669,38.3344 L161.873,37.2434 L161.052,36.1638 L160.209,35.0935 L159.339,34.0321 L158.444,32.9829 L157.526,31.9436 L156.581,30.914 L155.611,29.8973 L154.617,28.8912 L153.595,27.8956 L152.548,26.9134 L151.477,25.9425 L150.378,24.9829 L149.253,24.0372 L148.104,23.1035 L146.926,22.1818 L145.724,21.2758 L144.697,20.5281 L143.67,19.8073 L142.643,19.1141 L141.615,18.445 L140.585,17.8012 L139.555,17.1846 L138.526,16.5917 L137.494,16.0239 L136.463,15.4825 L135.433,14.9644 L134.4,14.4709 L133.369,14.0035 L132.338,13.559 L131.306,13.1386 L130.275,12.7438 L129.245,12.3715 L128.214,12.0229 L127.175,11.6964 L126.16,11.4089 L125.131,11.1182 L124.103,10.8742 L123.061,10.6281 L121.031,10.2393 L118.992,9.9317 L116.957,9.7148 L114.935,9.5878 L112.922,9.5412 L110.916,9.5812 L108.927,9.7059 L106.95,9.9063 L104.983,10.1889 L103.036,10.5505 L101.104,10.9831 L99.185,11.493 L97.289,12.0762 L95.409,12.7257 L93.547,13.4473 L91.708,14.2368 L89.888,15.0875 L88.088,16.0053 L86.313,16.9855 L84.56,18.0224 L82.828,19.1215 L81.131,20.2723 L80.283,20.8812 L79.441,21.4863 L78.612,22.1191 L77.783,22.7519 L76.967,23.4118 L76.154,24.0699 L75.353,24.7518 L74.55,25.4354 L73.76,26.1445 L72.971,26.8536 L72.196,27.5872 L71.423,28.319 L70.663,29.0727 L69.902,29.828 L69.155,30.6063 L68.408,31.3846 L67.677,32.1853 L66.947,32.9841 L66.231,33.8024 L65.514,34.6225 L64.812,35.4635 L64.11,36.3044 L63.425,37.1652 L62.741,38.0242 L62.072,38.9008 L61.402,39.779 L60.748,40.6757 L60.094,41.5725 L59.458,42.4869 L58.823,43.3995 L58.203,44.3276 L57.583,45.2573 L56.98,46.2033 L56.377,47.1492 L55.793,48.1107 L55.209,49.0703 L54.643,50.0432 L54.075,51.0179 L53.526,52.0065 L52.977,52.9952 L52.447,53.997 L51.918,54.997 L51.407,56.0083 L50.895,57.0212 L50.403,58.046 L49.91,59.0708 L49.438,60.1064 L48.967,61.1403 L48.514,62.1834 L48.061,63.2283 L47.628,64.2828 L47.196,65.3374 L46.785,66.4003 L46.374,67.4617 L45.983,68.5302 L45.592,69.6008 L45.222,70.6783 L44.853,71.7562 L44.506,72.8402 L44.159,73.9226 L43.833,75.01 L43.507,76.0994 L43.203,77.1938 L42.9,78.2884 L42.62,79.387 L42.34,80.4838 L42.083,81.5837 L41.824,82.6859 L41.59,83.7905 L41.356,84.8955 L41.147,86.0021 L40.938,87.1071 L40.751,88.213 L40.565,89.3212 L40.403,90.4298 L40.242,91.5386 L40.106,92.647 L39.971,93.7536 L39.859,94.859 L39.747,95.967 L39.662,97.0729 L39.577,98.1794 L39.518,99.283 L39.46,100.3846 L39.426,101.4831 L39.393,102.5843 L39.387,103.6812 L39.381,104.7788 L39.404,105.871 L39.426,106.9614 L39.474,108.0463 L39.523,109.1344 L39.6,110.2158 L39.677,111.2977 L39.784,112.3723 L39.89,113.4445 L40.024,114.5095 L40.158,115.5776 L40.322,116.6369 L40.486,117.6967 L40.68,118.7468 L40.875,119.7945 L41.097,120.8326 L41.321,121.8741 L41.575,122.9044 L41.83,123.9353 L42.116,124.9541 L42.402,125.9702 L42.717,126.9747 L43.033,127.9826 L43.382,128.977 L43.731,129.9718 L44.113,130.9521 L44.495,131.9296 L44.906,132.8933 L45.319,133.8604 L45.765,134.8116 L46.213,135.763 L46.694,136.6975 L47.174,137.6291 L47.685,138.5445 L48.199,139.4633 L48.746,140.3635 L49.295,141.264 L49.879,142.145 L50.459,143.0186 L51.419,144.393 L52.388,145.7335 L53.366,147.0417 L54.353,148.3221 L55.35,149.5729 L56.355,150.7922 L57.369,151.984 L58.392,153.1467 L59.424,154.2783 L60.463,155.3828 L61.512,156.4587 L62.567,157.504 L63.63,158.5225 L64.702,159.513 L65.78,160.4733 L66.865,161.4073 L67.959,162.3137 L69.058,163.1904 L70.163,164.0411 L71.276,164.8647 L72.394,165.659 L73.517,166.4278 L74.648,167.1699 L75.784,167.8831 L76.924,168.5715 L78.071,169.2332 L79.221,169.867 L80.376,170.476 L81.537,171.059 L82.701,171.6145 L83.869,172.1456 L85.042,172.6512 L86.217,173.1297 L87.395,173.5845 L88.579,174.0141 L89.763,174.4172 L90.95,174.7971 L92.142,175.1522 L93.333,175.4814 L94.527,175.7879 L95.725,176.0699 L96.922,176.3269 L98.12,176.5615 L99.322,176.7722 L100.522,176.9583 L101.724,177.1228 L102.927,177.2636 L104.138,177.3815 L105.33,177.4664 L106.533,177.5513 L107.736,177.5911 L108.939,177.6302 L110.141,177.6248 L111.338,177.6187 L112.534,177.5729 L113.733,177.5264 L114.929,177.4368 L116.124,177.3466 L117.316,177.2143 L118.503,177.0817 L119.687,176.9114 L120.873,176.7403 L122.055,176.5284 L123.235,176.316 L124.41,176.0637 L125.58,175.8116 L126.745,175.5239 L127.912,175.2351 L129.072,174.9078 L130.23,174.58 L131.381,174.2148 L132.528,173.85 L133.666,173.4517 L134.807,173.0522 L135.938,172.6165 L137.068,172.1804 L138.188,171.7091 L139.304,171.2385 L140.41,170.7364 L141.517,170.233 L142.613,169.6956 L143.708,169.1579 L144.79,168.5872 L145.869,168.0175 L146.935,167.4185 L148.004,166.8178 L149.057,166.1855 L150.111,165.5529 L151.148,164.8895 L152.183,164.2272 L153.204,163.5377 L154.226,162.8464 L155.231,162.1257 L156.236,161.4047 L157.222,160.6551 L158.207,159.9069 L159.175,159.1333 L160.144,158.3579 L161.094,157.5552 L162.044,156.7523 L162.973,155.9229 L163.901,155.0952 L164.809,154.244 L165.719,153.3908 L166.607,152.5125 L167.496,151.6341 L168.361,150.7314 L169.225,149.8303 L170.067,148.9078 L170.911,147.9831 L171.731,147.0357 L172.551,146.088 L173.345,145.1181 L174.139,144.15 L174.908,143.1625 L175.679,142.1727 L176.424,141.1622 L177.169,140.1514 L177.886,139.1207 L178.602,138.0919 L179.292,137.0456 L179.984,135.9968 L180.647,134.9295 L181.309,133.8619 L181.943,132.7766 L182.574,131.6932 L183.178,130.5944 L183.783,129.4929 L184.357,128.3751 L184.931,127.2568 L185.473,126.123 L186.013,124.9913 L186.524,123.8463 L187.036,122.6982 L187.514,121.5361 L187.992,120.3734 L188.435,119.1975 L188.878,118.0238 L189.288,116.8386 L189.699,115.6502 L190.075,114.45 L190.45,113.2493 L190.788,112.0375 L191.125,110.8281 L191.428,109.6092 L191.731,108.3869 L191.996,107.1551 L192.261,105.9227 L192.486,104.6813 L192.711,103.4427 L192.899,102.1966 L193.087,100.947 L193.235,99.69 L193.382,98.4324 L193.488,97.1683 L193.593,95.9069 L193.66,94.6403 L193.726,93.3699 L193.749,92.0946 L193.771,90.8186 L193.75,89.5385 L193.728,88.2612 L193.666,86.9808 L193.602,85.6966 L193.494,84.4097 L193.384,83.1224 L193.229,81.8332 L193.073,80.5469 L192.875,79.2598 L192.675,77.9688 L192.427,76.6776 L192.179,75.3859 L191.882,74.0948 L191.588,72.8155 L191.255,71.5181 L190.898,70.2282 L190.517,68.9409 L190.112,67.6546 L189.681,66.368 L189.225,65.0845 L188.745,63.8027 L188.238,62.5212 L187.705,61.2435 L187.148,59.968 L186.563,58.6934 L185.952,57.4232 L185.316,56.1558 L184.652,54.8902 L183.961,53.6293 L183.244,52.3719 L182.499,51.1168 L181.729,49.8697 L181.173,49.0015 L180.615,48.1295 L179.493,46.4437 L178.354,44.7967 L177.201,43.1883 L176.033,41.6206 L174.853,40.0961 L173.659,38.6096 L172.451,37.1629 L171.231,35.759 L169.999,34.3922 L168.752,33.0646 L167.495,31.7791 L166.226,30.5301 L164.944,29.3197 L163.651,28.1503 L162.348,27.017 L161.033,25.9218 L159.708,24.8669 L158.373,23.8474 L157.027,22.8652 L155.672,21.9226 L154.308,21.0148 L152.933,20.1437 L151.551,19.3116 L150.16,18.5134 L148.759,17.7515 L147.352,17.0278 L145.938,16.3376 L144.514,15.6829 L143.085,15.0655 L141.65,14.4808 L140.206,13.931 L138.757,13.4173 L137.304,12.9359 L135.842,12.4886 L134.378,12.0766 L132.909,11.6959 L131.433,11.3487 L129.955,11.036 L128.473,10.7536 L126.986,10.5042 L125.497,10.288 L124.005,10.1015 L122.509,9.9472 L121.012,9.8251 L119.513,9.732 L118.01,9.6701 L116.508,9.6395 L115.004,9.6369 L113.498,9.665 L111.992,9.7231 L110.486,9.8085 L108.979,9.9237 L107.473,10.0679 L105.968,10.2386 L104.461,10.4382 L102.958,10.666 L101.455,10.9191 L99.952,11.2005 L98.453,11.509 L96.955,11.8422 L95.458,12.2027 L93.966,12.5894 L92.475,13.0001 L90.987,13.4372 L89.503,13.8995 L88.023,14.3848 L86.545,14.8958 L85.072,15.431 L83.604,15.9885 L82.139,16.5706 L80.68,17.1761 L79.225,17.8032 L77.775,18.4541 L76.332,19.1273 L74.894,19.8212 L73.46,20.5383 L72.029,21.2797 L70.62,22.0444 L69.202,22.8133 L67.799,23.6247 L66.396,24.4364 L65.008,25.2893 L63.623,26.1409 L62.252,27.0291 L60.879,27.9188 L59.523,28.8476 L58.168,29.7766 L56.831,30.7435 L55.496,31.7091 L54.178,32.7082 L52.858,33.7087 L51.559,34.7451 L50.26,35.7816 L48.983,36.8527 L47.707,37.9224 L46.451,39.0227 L45.194,40.1246 L43.961,41.2589 L42.727,42.3934 L41.518,43.5592 L40.311,44.7235 L39.126,45.9152 L37.941,47.1087 L36.781,48.3312 L35.622,49.554 L34.491,50.8048 L33.361,52.054 L32.256,53.3277 L31.151,54.6032 L30.075,55.9045 L28.999,57.206 L27.954,58.5322 L26.911,59.8568 L25.896,61.2028 L24.88,62.5509 L23.897,63.9213 L22.913,65.2922 L21.964,66.6843 L21.016,68.0749 L20.1,69.4838 L19.182,70.8948 L18.3,72.3251 L17.419,73.7558 L16.574,75.2044 L15.731,76.6514 L14.923,78.1138 L14.113,79.5786 L13.342,81.0593 L12.572,82.5404 L11.842,84.0361 L11.112,85.5301 L10.421,87.0366 L9.728,88.5455 L9.078,90.0671 L8.428,91.5892 L7.821,93.1226 L7.216,94.6544 L6.651,96.1954 L6.085,97.7393 L5.564,99.2924 L5.044,100.8461 L4.571,102.4079 L4.1,103.9615 L3.658,105.5339 L3.241,107.1048 L2.849,108.6777 L2.48,110.2532 L2.136,111.8328 L1.817,113.4135 L1.522,114.9962 L1.252,116.5821 L1.009,118.1682 L0.789,119.7554 L0.597,121.3453 L0.431,122.9344 L0.291,124.5239 L0.178,126.1151 L0.093,127.7047 L0.033,129.2939 L0,130.8841 L0,132.4716 L0.025,134.0582 L0.078,135.6447 L0.161,137.2279 L0.272,138.8089 L0.412,140.3894 L0.583,141.9653 L0.782,143.5385 L1.012,145.1102 L1.274,146.6765 L1.564,148.2391 L1.886,149.7991 L2.24,151.353 L2.623,152.9024 L3.04,154.4483 L3.489,155.987 L3.968,157.5205 L4.481,159.0494 L5.028,160.5703 L5.605,162.0849 L6.217,163.5942 L6.863,165.0943 L7.541,166.5875 L8.255,168.0742 L9.003,169.551 L9.783,171.0198 L10.6,172.4813 L11.452,173.9318 L12.337,175.3737 L13.259,176.8072 L14.216,178.2268 L15.205,179.6429 L16.202,181.0262 L17.209,182.3767 L18.224,183.6986 L19.25,184.9901 L20.283,186.2497 L21.324,187.481 L22.375,188.6827 L23.434,189.8525 L24.5,190.9945 L25.576,192.1073 L26.659,193.1885 L27.749,194.2426 L28.849,195.2678 L29.955,196.2622 L31.068,197.2296 L32.19,198.1687 L33.318,199.0773 L34.452,199.9595 L35.594,200.8138 L36.742,201.6383 L37.896,202.4366 L39.058,203.2075 L40.225,203.9489 L41.397,204.6649 L42.576,205.3536 L43.76,206.0136 L44.949,206.6484 L46.145,207.2565 L47.344,207.8365 L48.548,208.3917 L49.758,208.9205 L50.972,209.4217 L52.189,209.8988 L53.412,210.3498 L54.638,210.774 L55.867,211.1744 L57.102,211.5491 L58.338,211.8978 L59.577,212.2231 L60.821,212.5233 L62.067,212.7979 L63.314,213.0496 L64.566,213.2769 L65.819,213.4792 L67.074,213.6593 L68.332,213.8153 L69.598,213.9477 L70.849,214.0463 L72.111,214.1453 L73.376,214.1979 L74.64,214.25 L75.907,214.2563 L77.17,214.2622 L78.435,214.2272 L79.702,214.1917 L80.97,214.1123 L82.238,214.0322 L83.506,213.9089 L84.77,213.7855 L86.034,213.6234 L87.301,213.4606 L88.566,213.2561 L89.831,213.0511 L91.094,212.8054 L92.354,212.5598 L93.613,212.2777 L94.873,211.9947 L96.13,211.6723 L97.387,211.3497 L98.64,210.9885 L99.89,210.6278 L101.137,210.2326 L102.385,209.8366 L103.629,209.4035 L104.872,208.9703 L106.11,208.5007 L107.345,208.0318 L108.575,207.5307 L109.806,207.0285 L111.031,206.4916 L112.256,205.9547 L113.473,205.3836 L114.688,204.8134 L115.895,204.2131 L117.105,203.6118 L118.306,202.9779 L119.506,202.3442 L120.698,201.6788 L121.887,201.0142 L123.068,200.3216 L124.25,199.628 L125.422,198.9041 L126.594,198.1802 L127.754,197.4268 L128.913,196.6745 L130.062,195.8959 L131.211,195.1165 L132.349,194.3089 L133.486,193.5014 L134.611,192.6667 L135.734,191.833 L136.845,190.9753 L137.957,190.1164 L139.055,189.2318 L140.153,188.3472 L141.237,187.4377 L142.319,186.5291 L143.387,185.5987 L144.457,184.6671 L145.51,183.7119 L146.564,182.7567 L147.601,181.7788 L148.636,180.802 L149.657,179.8052 L150.678,178.8072 L151.682,177.788 L152.685,176.7686 L153.671,175.729 L154.655,174.6903 L155.622,173.6336 L156.59,172.5758 L157.539,171.4989 L158.488,170.4218 L159.416,169.3266 L160.343,168.2325 L161.252,167.1221 L162.161,166.0103 L163.048,164.8818 L163.936,163.7531 L164.802,162.6085 L165.667,161.465 L166.511,160.3076 L167.356,159.1488 L168.178,157.9754 L169,156.8018 L169.798,155.6146 L170.595,154.4284 L171.37,153.2304 L172.146,152.031 L172.897,150.819 L173.648,149.6069 L174.373,148.3834 L175.098,147.161 L175.798,145.9287 L176.499,144.6948 L177.174,143.4508 L177.848,142.2065 L178.495,140.9528 L179.141,139.7005 L179.761,138.4404 L180.382,137.1784 L180.975,135.9085 L181.567,134.6383 L182.13,133.361 L182.692,132.085 L183.227,130.8033 L183.763,129.5195 L184.268,128.2301 L184.773,126.9403 L185.247,125.6456 L185.72,124.3522 L186.163,123.0552 L186.608,121.7559 L187.019,120.4531 L187.429,119.1492 L187.805,117.8428 L188.181,116.5379 L188.526,115.2314 L188.872,113.9226 L189.183,112.6125 L189.494,111.302 L189.77,109.991 L190.045,108.6818 L190.288,107.373 L190.531,106.0616 L190.738,104.7512 L190.944,103.4404 L191.114,102.1314 L191.283,100.8243 L191.418,99.5195 L191.552,98.212 L191.649,96.9078 L191.745,95.6031 L191.803,94.3026 L191.859,93.004 L191.881,91.7098 L191.901,90.4127 L191.882,89.1213 L191.862,87.8293 L191.801,86.5437 L191.741,85.2705 L191.669,84.2039 L191.598,83.1464 L191.516,82.1041 L191.434,81.0616 L191.341,80.0343 L191.249,79.0078 L191.147,77.9949 L191.044,76.9777 L190.819,74.9832 L190.573,73.0161 L190.308,71.0756 L190.023,69.1638 L189.718,67.2822 L189.396,65.427 L189.054,63.5997 L188.693,61.8023 L188.314,60.0312 L187.916,58.2879 L187.499,56.5742 L187.065,54.8863 L186.612,53.2259 L186.141,51.5948 L185.653,49.9893 L185.147,48.4108 L184.624,46.8615 L184.084,45.3375 L183.526,43.84 L182.952,42.3715 L182.362,40.9281 L181.755,39.5109 L181.131,38.1223 L180.492,36.7585 L179.837,35.4207 L179.165,34.1113 L178.48,32.8264 L177.778,31.5671 L177.061,30.336 L176.33,29.1291 L175.583,27.9478 L174.822,26.7941 L174.048,25.6647 L173.258,24.5604 L172.454,23.4837 L171.638,22.4309 L170.807,21.4029 L169.963,20.4023 L169.107,19.4254 L168.237,18.4731 L167.354,17.5479 L166.461,16.6458 L165.553,15.7681 L164.635,14.9172 L163.705,14.0894 L162.762,13.2861 L161.808,12.509 L160.844,11.755 L159.868,11.0252 L158.882,10.3215 L157.885,9.6405 L156.877,8.9835 L155.861,8.3521 L154.834,7.7434 L153.797,7.1584 L152.751,6.5988 L151.697,6.0614 L150.633,5.5476 L149.561,5.0587 L148.481,4.5917 L147.391,4.1483 L146.294,3.7292 L145.191,3.3317 L144.078,2.9575 L142.959,2.6073 L141.834,2.2783 L140.7,1.9722 L139.554,1.6881 L138.415,1.4388 L137.266,1.1878 L136.105,0.9818 L134.944,0.7764 L133.771,0.6156 L132.602,0.4556 L131.423,0.3358 L130.241,0.216 L129.05,0.14 L127.86,0.0644 L126.66,0.0319 L125.463,0 L124.26,0.0067 L123.054,0.0137 L121.84,0.0631 L120.627,0.1127 L119.408,0.2039 L118.192,0.2955 L116.971,0.4243 L115.747,0.5534 L114.519,0.7231 L113.292,0.8931 L112.06,1.1033 L110.832,1.3134 L109.6,1.5595 L108.367,1.8062 L107.131,2.0922 L105.896,2.3785 L104.66,2.7034 L103.425,3.028 L102.191,3.3874 L100.955,3.7476 L99.718,4.1456 L98.483,4.5437 L97.248,4.9791 L96.016,5.414 L94.785,5.8825 L93.553,6.3518 L92.324,6.8574 L91.094,7.3631 L89.869,7.9049 L88.645,8.4459 L87.425,9.0191 L86.204,9.5933 L84.988,10.2026 L83.773,10.8118 L82.563,11.4556 L81.355,12.0987 L80.154,12.7728 L78.951,13.4478 L77.755,14.1564 L76.56,14.8653 L75.374,15.6071 L74.189,16.3483 L73.012,17.1191 L71.834,17.8909 L70.667,18.695 L69.499,19.4993 L68.342,20.3353 L67.187,21.1704 L66.043,22.0339 L64.897,22.8983 L63.764,23.7937 L62.631,24.689 L61.511,25.6149 L60.392,26.5399 L59.287,27.492 L58.18,28.4454 L57.089,29.4283 L55.997,30.4113 L54.922,31.4234 L53.848,32.4345 L52.788,33.4716 L51.728,34.51 L50.686,35.5766 L49.643,36.6433 L48.619,37.7376 L47.596,38.8311 L46.59,39.9493 L45.583,41.0688 L44.597,42.2152 L43.61,43.3616 L42.644,44.5345 L41.68,45.7064 L40.735,46.9017 L39.789,48.0985 L38.865,49.3208 L37.942,50.5432 L37.042,51.7906 L36.143,53.0369 L35.266,54.3055 L34.388,55.5756 L33.535,56.8699 L32.682,58.1644 L31.855,59.4825 L31.029,60.7995 L30.227,62.1375 L29.424,63.4771 L28.649,64.8396 L27.873,66.2021 L27.127,67.587 L26.38,68.9708 L25.661,70.3743 L24.941,71.7795 L24.25,73.2061 L23.56,74.633 L22.901,76.0808 L22.242,77.5273 L21.612,78.9925 L20.981,80.4593 L20.383,81.9462 L19.785,83.4335 L19.221,84.9403 L18.657,86.4456 L18.124,87.9685 L17.591,89.4931 L17.092,91.0364 L16.594,92.58 L16.131,94.1418 L15.67,95.7015 L15.192,97.4466 L14.747,99.2122 L14.337,100.9951 L13.958,102.7937 L13.613,104.6098 L13.302,106.4394 L13.024,108.2813 L12.78,110.1372 L12.572,112.0028 L12.397,113.8774 L12.257,115.7623 L12.154,117.6531 L12.085,119.5499 L12.052,121.4532 L12.057,123.3588 L12.096,125.2669 L12.173,127.1779 L12.288,129.0876 L12.438,130.9964 L12.627,132.9044 L12.856,134.8073 L13.12,136.706 L13.425,138.6002 L13.769,140.4857 L14.151,142.3636 L14.574,144.2332 L15.037,146.0905 L15.539,147.9367 L16.083,149.7711 L16.668,151.5891 L17.293,153.3927 L17.961,155.1807 L18.672,156.9486 L19.422,158.6986 L20.217,160.4293 L21.056,162.1359 L21.936,163.8212 L22.862,165.4832 L23.832,167.1175 L24.843,168.727 L25.902,170.3093 L27.006,171.8598 L28.152,173.3818 L29.347,174.8726 L30.588,176.3278 L31.873,177.7507 L33.207,179.1384 L34.583,180.4825 L35.517,181.3455 L36.448,182.2061 L37.384,183.0228 L38.319,183.8392 L39.259,184.6124 L40.198,185.3841 L41.141,186.117 L42.085,186.8509 L43.033,187.5427 L43.981,188.2342 L44.934,188.8841 L45.884,189.5325 L46.838,190.1436 L47.794,190.7556 L48.753,191.3271 L49.713,191.8983 L50.676,192.4294 L51.637,192.9592 L52.6,193.4531 L53.566,193.9477 L54.535,194.4035 L55.504,194.8588 L56.475,195.276 L57.444,195.6916 L58.416,196.0731 L59.39,196.455 L60.366,196.7998 L61.35,197.1468 L63.295,197.7581 L65.252,198.306 L67.215,198.7825 L69.177,199.1879 L71.141,199.5301 L73.11,199.8044 L75.076,200.0113 L77.043,200.1584 L79.013,200.241 L80.98,200.2603 L82.946,200.2232 L84.913,200.1252 L86.876,199.968 L88.836,199.7578 L90.797,199.4903 L92.753,199.1676 L94.705,198.7955 L96.657,198.3698 L98.602,197.893 L100.543,197.3702 L102.482,196.7976 L104.409,196.1792 L105.377,195.8465 L106.341,195.5151 L107.303,195.1608 L108.264,194.8066 L109.223,194.4302 L110.18,194.0544 L111.135,193.6591 L112.091,193.2633 L113.044,192.8465 L113.996,192.4298 L114.946,191.9927 L115.894,191.5563 L116.839,191.102 L117.785,190.6472 L118.727,190.1733 L119.67,189.6994 L120.609,189.2071 L121.546,188.7154 L122.481,188.2075 L123.416,187.699 L124.347,187.1733 L125.278,186.6477 L126.205,186.1054 L127.131,185.5637 L128.053,185.0074 L128.975,184.4506 L129.894,183.8784 L130.812,183.3062 L131.726,182.7192 L132.639,182.1328 L133.548,181.5334 L134.457,180.9335 L135.361,180.32 L136.266,179.7066 L137.165,179.08 L138.064,178.4542 L138.958,177.8168 L139.852,177.1792 L140.741,176.5295 L141.631,175.88 L142.514,175.2192 L143.397,174.5589 L144.275,173.889 L145.153,173.2186 L146.026,172.5382 L146.899,171.8577 L147.765,171.1678 L148.634,170.4764 L149.494,169.773 L150.347,169.0759 L151.199,168.3789 L152.063,167.6729 L152.913,166.9514 L153.754,166.2386 L154.594,165.5258 L155.444,164.8048 L156.28,164.0706 L157.107,163.3448 L157.934,162.6191 L158.77,161.8862 L159.592,161.1433 L160.407,160.4078 L161.221,159.6722 L162.044,158.9292 L162.852,158.1776 L163.653,157.4334 L164.453,156.6893 L165.26,155.9383 L166.053,155.1812 L166.838,154.4312 L167.623,153.6812 L168.414,152.9252 L169.191,152.1658 L169.961,151.4125 L170.732,150.6593 L171.509,149.8997 L172.27,149.1387 L173.024,148.384 L173.778,147.6293 L174.538,146.8688 L175.281,146.1096 L176.018,145.356 L176.756,144.6025 L177.498,143.8442 L178.224,143.0889 L178.945,142.3386 L179.666,141.5882 L180.392,140.8328 L181.099,140.0832 L181.802,139.3386 L182.504,138.5939 L183.211,137.8449 L183.899,137.104 L184.583,136.3677 L185.267,135.6314 L185.955,134.8901 L187.288,133.4343 L188.623,131.9772 L189.917,130.5457 L191.211,129.1149 L192.463,127.7149 L193.713,126.3162 L194.935,124.9399 L196.134,123.5832 L197.311,122.247 L198.467,120.9304 L199.599,119.6363 L200.708,118.3669 C201.26,117.7344 201.195,116.7742 200.562,116.2221 C199.93,115.67 198.97,115.7351 198.418,116.3674 L197.31,117.6357 L196.181,118.9267 L195.028,120.2399 L193.855,121.5722 L192.66,122.9243 L191.444,124.2944 L190.197,125.6894 L188.951,127.0831 L187.663,128.5076 L186.376,129.9317 L185.048,131.3815 L183.719,132.8325 L183.04,133.5639 L182.356,134.3002 L181.672,135.0366 L180.993,135.7684 L180.294,136.5086 L179.592,137.2532 L178.889,137.9979 L178.191,138.7375 L177.475,139.483 L176.754,140.2335 L176.033,140.9838 L175.317,141.7293 L174.584,142.478 L173.847,143.2315 L173.11,143.9851 L172.378,144.7329 L171.63,145.4819 L170.876,146.2366 L170.121,146.9914 L169.373,147.7398 L168.609,148.487 L167.838,149.2404 L167.068,149.9937 L166.303,150.741 L165.524,151.4852 L164.739,152.2352 L163.955,152.9852 L163.177,153.7282 L162.384,154.4654 L161.584,155.2095 L160.784,155.9537 L159.992,156.6903 L159.186,157.4184 L158.371,158.154 L157.557,158.8896 L156.751,159.618 L155.932,160.3367 L155.105,161.0626 L154.278,161.7884 L153.46,162.5059 L152.63,163.2104 L151.789,163.9232 L150.949,164.6361 L150.12,165.3399 L149.278,166.0284 L148.425,166.7255 L147.572,167.4228 L146.727,168.1137 L145.875,168.7927 L145.02,169.4732 L144.159,170.1442 L143.299,170.8151 L142.433,171.4758 L141.567,172.1369 L140.696,172.7883 L139.826,173.439 L138.951,174.0786 L138.076,174.7178 L137.196,175.3454 L136.315,175.9732 L135.43,176.5897 L134.546,177.2055 L133.658,177.8083 L132.769,178.4111 L131.877,179.0001 L130.983,179.5894 L130.086,180.166 L129.19,180.7418 L128.289,181.3028 L127.389,181.8637 L126.485,182.4091 L125.58,182.955 L124.672,183.4863 L123.765,184.017 L122.855,184.5311 L121.945,185.0451 L121.031,185.5418 L120.117,186.0391 L119.199,186.5201 L118.284,187.0006 L117.365,187.4627 L116.446,187.9246 L115.524,188.3677 L114.602,188.8112 L113.677,189.237 L112.754,189.6621 L111.828,190.0672 L110.902,190.4721 L109.974,190.8564 L109.045,191.2413 L108.115,191.6066 L107.185,191.9715 L106.254,192.3145 L105.323,192.6575 L104.391,192.9782 L103.462,193.2976 L101.588,193.8991 L99.719,194.4514 L97.846,194.9559 L95.972,195.4155 L94.098,195.8243 L92.222,196.182 L90.345,196.4919 L88.47,196.7478 L86.593,196.949 L84.716,197.0996 L82.841,197.1932 L80.966,197.2286 L79.091,197.2104 L77.22,197.132 L75.348,196.992 L73.477,196.7954 L71.611,196.5354 L69.744,196.2103 L67.879,195.8251 L66.019,195.3735 L64.159,194.8529 L62.292,194.2663 L61.374,193.9418 L60.448,193.6152 L59.523,193.252 L58.596,192.8884 L57.67,192.491 L56.746,192.0949 L55.824,191.6612 L54.902,191.228 L53.982,190.7563 L53.06,190.2839 L52.139,189.7761 L51.22,189.2696 L50.304,188.7237 L49.387,188.1781 L48.472,187.5921 L47.556,187.0053 L46.641,186.3813 L45.728,185.7589 L44.818,185.0949 L43.908,184.4311 L43,183.7253 L42.09,183.0183 L41.183,182.2724 L40.278,181.528 L39.375,180.7403 L38.472,179.9528 L37.573,179.1212 L36.676,178.2922 L35.357,177.0048 L34.089,175.6861 L32.865,174.33 L31.681,172.9426 L30.544,171.5234 L29.449,170.0703 L28.394,168.5888 L27.384,167.0792 L26.416,165.5391 L25.487,163.9739 L24.602,162.3839 L23.759,160.7672 L22.954,159.1286 L22.192,157.4689 L21.471,155.7862 L20.788,154.085 L20.146,152.3664 L19.545,150.6284 L18.981,148.8752 L18.457,147.1082 L17.974,145.3258 L17.526,143.5316 L17.119,141.7271 L16.75,139.9111 L16.418,138.0866 L16.124,136.2559 L15.868,134.4172 L15.647,132.5737 L15.465,130.7275 L15.32,128.8773 L15.209,127.0257 L15.135,125.1752 L15.097,123.3245 L15.093,121.4759 L15.126,119.6323 L15.194,117.7922 L15.294,115.9577 L15.43,114.132 L15.601,112.3138 L15.803,110.5046 L16.04,108.7081 L16.311,106.9228 L16.613,105.1501 L16.948,103.3937 L17.316,101.6525 L17.714,99.9274 L18.144,98.2226 L18.606,96.5372 L19.059,95.0094 L19.512,93.4836 L19.999,91.976 L20.487,90.4681 L21.009,88.9788 L21.532,87.4877 L22.085,86.0141 L22.637,84.5417 L23.222,83.0888 L23.808,81.6356 L24.425,80.2025 L25.042,78.7675 L25.688,77.3511 L26.333,75.936 L27.009,74.5417 L27.684,73.1472 L28.389,71.774 L29.095,70.3991 L29.827,69.044 L30.558,67.6901 L31.316,66.3583 L32.075,65.0264 L32.861,63.7171 L33.647,62.4062 L34.458,61.1164 L35.267,59.8276 L36.102,58.5623 L36.937,57.2969 L37.796,56.0555 L38.656,54.8126 L39.538,53.5919 L40.418,52.3723 L41.322,51.1774 L42.225,49.9825 L43.151,48.8128 L44.078,47.6418 L45.024,46.4943 L45.968,45.3477 L46.934,44.2274 L47.899,43.1069 L48.884,42.013 L49.869,40.9179 L50.872,39.8475 L51.874,38.778 L52.894,37.736 L53.913,36.6939 L54.95,35.6799 L55.987,34.6646 L57.04,33.6752 L58.091,32.6867 L59.158,31.7271 L60.225,30.7674 L61.306,29.8371 L62.388,28.9056 L63.483,28.0012 L64.577,27.0977 L65.683,26.2244 L66.79,25.351 L67.908,24.5084 L69.028,23.6647 L70.158,22.8497 L71.287,22.0354 L72.426,21.2526 L73.565,20.4698 L74.714,19.7189 L75.863,18.9672 L77.021,18.2449 L78.177,17.5235 L79.342,16.8349 L80.506,16.1462 L81.677,15.4909 L82.849,14.8347 L84.027,14.2092 L85.204,13.5843 L86.385,12.9937 L87.567,12.403 L88.753,11.847 L89.941,11.2901 L91.132,10.7652 L92.321,10.2408 L93.513,9.752 L94.704,9.2631 L95.898,8.8101 L97.093,8.3564 L98.29,7.9357 L99.484,7.5157 L100.679,7.1324 L101.873,6.7489 L103.067,6.4027 L104.263,6.0557 L105.457,5.7431 L106.649,5.4309 L107.839,5.1567 L109.029,4.8822 L110.216,4.6463 L111.404,4.4099 L112.589,4.2088 L113.772,4.0079 L114.95,3.8463 L116.127,3.6844 L117.3,3.5626 L118.474,3.4403 L119.642,3.3547 L120.808,3.2689 L121.967,3.2237 L123.125,3.1781 L124.275,3.1735 L125.428,3.1685 L126.572,3.2014 L127.714,3.2336 L128.846,3.3078 L129.978,3.3813 L131.099,3.4973 L132.223,3.613 L133.337,3.7675 L134.448,3.9211 L135.547,4.1179 L136.645,4.3139 L137.731,4.5537 L138.827,4.795 L139.898,5.0625 L140.967,5.353 L142.031,5.6658 L143.088,5.9986 L144.136,6.353 L145.178,6.7301 L146.213,7.1274 L147.238,7.5465 L148.257,7.9888 L149.267,8.4516 L150.268,8.9366 L151.261,9.4451 L152.247,9.9744 L153.222,10.5262 L154.189,11.102 L155.147,11.699 L156.094,12.3187 L157.033,12.9628 L157.963,13.6286 L158.882,14.3173 L159.791,15.0312 L160.691,15.7669 L161.579,16.526 L162.458,17.3105 L163.326,18.1174 L164.182,18.9479 L165.028,19.8046 L165.862,20.6844 L166.684,21.5882 L167.495,22.5186 L168.294,23.472 L169.081,24.4499 L169.855,25.4548 L170.618,26.4831 L171.367,27.5363 L172.104,28.617 L172.828,29.7215 L173.538,30.8513 L174.235,32.009 L174.919,33.1909 L175.588,34.3985 L176.244,35.6344 L176.885,36.895 L177.512,38.1816 L178.123,39.4969 L178.721,40.8371 L179.302,42.2039 L179.869,43.5998 L180.42,45.0211 L180.955,46.4692 L181.474,47.9466 L181.977,49.4499 L182.463,50.9804 L182.933,52.5406 L183.386,54.1269 L183.822,55.7409 L184.24,57.3848 L184.642,59.0552 L185.025,60.7537 L185.389,62.4826 L185.737,64.2381 L186.066,66.0222 L186.375,67.8369 L186.665,69.6788 L186.936,71.5494 L187.186,73.451 L187.419,75.38 L187.631,77.3414 L187.727,78.3321 L187.823,79.3272 L187.909,80.3361 L187.995,81.3441 L188.071,82.3673 L188.147,83.3905 L188.212,84.429 L188.277,85.4583 L188.33,86.7005 L188.383,87.9304 L188.396,89.1666 L188.41,90.4033 L188.384,91.6457 L188.359,92.8911 L188.298,94.1408 L188.238,95.3886 L188.139,96.6406 L188.041,97.8931 L187.906,99.1492 L187.77,100.4079 L187.601,101.6691 L187.433,102.9285 L187.228,104.19 L187.023,105.4519 L186.783,106.715 L186.543,107.9808 L186.27,109.2469 L185.999,110.5114 L185.692,111.7757 L185.386,113.0405 L185.046,114.3043 L184.706,115.5704 L184.336,116.8349 L183.966,118.0979 L183.563,119.3583 L183.162,120.6198 L182.73,121.8784 L182.297,123.139 L181.836,124.3961 L181.375,125.6518 L180.884,126.9029 L180.392,128.1544 L179.871,129.4005 L179.348,130.6485 L178.799,131.8911 L178.251,133.1322 L177.673,134.3664 L177.096,135.601 L176.49,136.828 L175.884,138.0567 L175.252,139.2779 L174.621,140.4978 L173.963,141.7086 L173.305,142.9195 L172.621,144.1207 L171.936,145.3234 L171.227,146.5166 L170.519,147.7084 L169.786,148.8891 L169.053,150.0699 L168.295,151.2385 L167.536,152.4086 L166.756,153.5671 L165.976,154.7243 L165.173,155.8681 L164.37,157.0119 L163.544,158.1414 L162.718,159.2723 L161.871,160.3895 L161.025,161.5054 L160.158,162.6057 L159.291,163.7059 L158.402,164.7896 L157.513,165.8746 L156.606,166.9442 L155.7,168.0128 L154.774,169.0632 L153.849,170.1137 L152.904,171.1455 L151.958,172.1784 L150.996,173.1936 L150.035,174.2076 L149.056,175.2014 L148.077,176.1953 L147.081,177.168 L146.084,178.1419 L145.071,179.096 L144.06,180.049 L143.033,180.9796 L142.007,181.9102 L140.965,182.8175 L139.922,183.7258 L138.865,184.6124 L137.81,185.4979 L136.741,186.3586 L135.673,187.2193 L134.59,188.0545 L133.507,188.8908 L132.412,189.7033 L131.319,190.5147 L130.213,191.2991 L129.108,192.0837 L127.991,192.8404 L126.873,193.5982 L125.745,194.33 L124.618,195.061 L123.482,195.7628 L122.346,196.4646 L121.2,197.1363 L120.053,197.8092 L118.897,198.4541 L117.744,199.0981 L116.582,199.7108 L115.421,200.3232 L114.251,200.9035 L113.081,201.4847 L111.903,202.0361 L110.728,202.5866 L109.547,203.1037 L108.366,203.6208 L107.179,204.1035 L105.991,204.5872 L104.798,205.039 L103.607,205.4902 L102.412,205.9056 L101.217,206.3212 L100.018,206.7003 L98.818,207.0803 L97.614,207.4263 L96.413,207.772 L95.21,208.0798 L94.007,208.3879 L92.802,208.6572 L91.595,208.9274 L90.386,209.1618 L89.181,209.3961 L87.974,209.5903 L86.769,209.7849 L85.562,209.9387 L84.354,210.0931 L83.146,210.2099 L81.942,210.3269 L80.738,210.4016 L79.535,210.4769 L78.333,210.5092 L77.129,210.5421 L75.926,210.5354 L74.727,210.5291 L73.531,210.4786 L72.335,210.4288 L71.142,210.3338 L69.939,210.2385 L68.756,210.1138 L67.569,209.9659 L66.382,209.7949 L65.198,209.6027 L64.017,209.3876 L62.838,209.1489 L61.662,208.8885 L60.49,208.6048 L59.319,208.2967 L58.152,207.9666 L56.989,207.6126 L55.829,207.2336 L54.671,206.8321 L53.519,206.4062 L52.369,205.9547 L51.222,205.4799 L50.081,204.9805 L48.943,204.4545 L47.809,203.9051 L46.68,203.3302 L45.555,202.7282 L44.434,202.102 L43.319,201.45 L42.207,200.7701 L41.1,200.0654 L40,199.3343 L38.904,198.5745 L37.812,197.7896 L36.728,196.9776 L35.648,196.1363 L34.573,195.2691 L33.506,194.3742 L32.444,193.4494 L31.387,192.4981 L30.338,191.5185 L29.294,190.5084 L28.257,189.471 L27.227,188.4049 L26.204,187.3074 L25.187,186.1824 L24.179,185.0278 L23.177,183.8413 L22.182,182.6265 L21.197,181.3813 L20.219,180.1035 L19.248,178.7968 L18.286,177.4595 L17.334,176.091 L16.419,174.7292 L15.543,173.3621 L14.7,171.9846 L13.889,170.5993 L13.114,169.2073 L12.373,167.8059 L11.662,166.3972 L10.986,164.9825 L10.342,163.5589 L9.729,162.1289 L9.15,160.6937 L8.602,159.2501 L8.084,157.8009 L7.598,156.347 L7.144,154.8856 L6.719,153.419 L6.325,151.9488 L5.962,150.4716 L5.627,148.9899 L5.323,147.5052 L5.049,146.0144 L4.802,144.5197 L4.585,143.0227 L4.397,141.5203 L4.236,140.0147 L4.105,138.5076 L4.001,136.9959 L3.924,135.4818 L3.876,133.9667 L3.855,132.4478 L3.859,130.9273 L3.891,129.4066 L3.951,127.883 L4.035,126.3582 L4.145,124.8342 L4.283,123.3081 L4.444,121.7816 L4.631,120.2565 L4.845,118.7303 L5.081,117.2045 L5.343,115.6809 L5.63,114.1568 L5.939,112.634 L6.273,111.1141 L6.632,109.5948 L7.012,108.0775 L7.416,106.5638 L7.842,105.0579 L8.304,103.5427 L8.763,102.0356 L9.268,100.5363 L9.773,99.0363 L10.323,97.5452 L10.873,96.0512 L11.463,94.5664 L12.053,93.0833 L12.684,91.6112 L13.316,90.1385 L13.99,88.6781 L14.664,87.2152 L15.375,85.7642 L16.085,84.315 L16.835,82.8801 L17.585,81.4447 L18.373,80.0249 L19.162,78.6027 L19.985,77.1958 L20.807,75.7902 L21.665,74.4025 L22.524,73.0144 L23.417,71.6452 L24.312,70.2739 L25.238,68.9206 L26.163,67.5689 L27.121,66.2382 L28.079,64.9073 L29.069,63.5986 L30.06,62.2879 L31.079,60.9985 L32.097,59.7104 L33.146,58.4467 L34.194,57.1829 L35.271,55.9445 L36.349,54.7044 L37.452,53.4886 L38.554,52.2741 L39.684,51.0872 L40.812,49.9003 L41.967,48.7423 L43.123,47.5825 L44.301,46.45 L45.478,45.3189 L46.678,44.2188 L47.878,43.1185 L49.101,42.0505 L50.325,40.9809 L51.569,39.9415 L52.81,38.9034 L54.072,37.8996 L55.334,36.8957 L56.615,35.9273 L57.898,34.9576 L59.197,34.0209 L60.494,33.0858 L61.809,32.1881 L63.123,31.2904 L64.453,30.4313 L65.784,29.571 L67.13,28.7469 L68.473,27.924 L69.83,27.142 L71.186,26.3599 L72.556,25.6199 L73.933,24.8756 L75.305,24.1671 L76.687,23.478 L78.076,22.8104 L79.469,22.163 L80.865,21.5388 L82.267,20.9368 L83.673,20.3559 L85.081,19.7989 L86.494,19.265 L87.909,18.7528 L89.326,18.2651 L90.748,17.8015 L92.171,17.3602 L93.595,16.9443 L95.022,16.5532 L96.451,16.1851 L97.879,15.8428 L99.31,15.5263 L100.742,15.2335 L102.173,14.9675 L103.605,14.7277 L105.037,14.5125 L106.468,14.3248 L107.899,14.1643 L109.33,14.0288 L110.758,13.9215 L112.186,13.8421 L113.613,13.7886 L115.037,13.7639 L116.46,13.768 L117.881,13.7987 L119.297,13.8586 L120.713,13.9483 L122.126,14.0653 L123.534,14.2121 L124.94,14.3896 L126.343,14.595 L127.741,14.831 L129.136,15.0985 L130.527,15.3946 L131.911,15.722 L133.293,16.0819 L134.67,16.471 L136.041,16.8922 L137.407,17.3468 L138.769,17.8315 L140.123,18.3487 L141.473,18.9006 L142.817,19.4832 L144.153,20.0993 L145.484,20.7509 L146.809,21.4342 L148.125,22.1513 L149.436,22.9051 L150.74,23.6915 L152.034,24.5128 L153.322,25.3717 L154.603,26.2641 L155.874,27.1923 L157.138,28.1594 L158.393,29.1607 L159.639,30.1987 L160.876,31.2766 L162.104,32.3896 L163.321,33.5404 L164.53,34.7319 L165.729,35.9595 L166.916,37.2258 L168.094,38.5338 L169.261,39.8789 L170.416,41.2634 L171.56,42.6907 L172.693,44.156 L173.813,45.6617 L174.921,47.2111 L176.018,48.7993 L177.104,50.4339 L177.635,51.2652 L178.169,52.1004 L178.904,53.2926 L179.61,54.4836 L180.29,55.679 L180.945,56.8767 L181.573,58.0754 L182.175,59.278 L182.754,60.4824 L183.306,61.6872 L183.834,62.8955 L184.338,64.1053 L184.816,65.315 L185.269,66.5277 L185.7,67.7415 L186.106,68.9548 L186.488,70.1705 L186.848,71.3869 L187.183,72.6022 L187.493,73.8112 L187.775,75.0393 L188.055,76.2554 L188.287,77.4713 L188.521,78.6875 L188.707,79.9025 L188.895,81.1214 L189.042,82.3387 L189.189,83.5529 L189.29,84.7648 L189.393,85.9772 L189.451,87.1865 L189.51,88.3995 L189.53,89.6091 L189.55,90.8159 L189.528,92.0183 L189.506,93.2211 L189.443,94.4189 L189.38,95.6203 L189.279,96.8166 L189.179,98.0101 L189.039,99.1971 L188.9,100.3847 L188.721,101.5651 L188.542,102.7491 L188.328,103.926 L188.114,105.1002 L187.863,106.2659 L187.612,107.4322 L187.324,108.5892 L187.036,109.7497 L186.714,110.901 L186.394,112.0499 L186.037,113.1882 L185.682,114.327 L185.291,115.4544 L184.899,116.585 L184.477,117.7045 L184.056,118.8219 L183.601,119.9263 L183.146,121.0313 L182.659,122.1226 L182.171,123.217 L181.654,124.2983 L181.139,125.3776 L180.592,126.4418 L180.045,127.5065 L179.469,128.5554 L178.891,129.6071 L178.286,130.6437 L177.682,131.6784 L177.05,132.6959 L176.418,133.7138 L175.758,134.7137 L175.097,135.7161 L174.41,136.7016 L173.726,137.6853 L173.015,138.6495 L172.304,139.6141 L171.568,140.5584 L170.83,141.5052 L170.069,142.4329 L169.31,143.359 L168.527,144.2634 L167.744,145.1682 L166.938,146.0506 L166.13,146.9351 L165.302,147.7987 L164.476,148.6606 L163.628,149.4989 L162.78,150.3372 L161.911,151.1512 L161.04,151.9671 L160.151,152.76 L159.264,153.5515 L158.358,154.317 L157.452,155.0826 L156.527,155.8216 L155.6,156.5625 L154.657,157.2783 L153.717,157.9927 L152.759,158.6792 L151.802,159.3658 L150.828,160.0235 L149.853,160.6829 L148.863,161.3155 L147.876,161.9467 L146.874,162.5477 L145.872,163.149 L144.857,163.7192 L143.839,164.291 L142.81,164.8339 L141.783,165.3757 L140.744,165.8852 L139.705,166.3948 L138.655,166.8714 L137.602,167.3493 L136.54,167.7966 L135.48,168.2429 L134.411,168.6546 L133.342,169.0667 L132.264,169.4436 L131.183,169.8217 L130.095,170.1671 L129.01,170.5119 L127.917,170.8201 L126.825,171.1287 L125.726,171.3999 L124.624,171.6723 L123.517,171.91 L122.413,172.1475 L121.304,172.3463 L120.195,172.5455 L119.082,172.7053 L117.965,172.866 L116.846,172.9902 L115.73,173.1146 L114.61,173.1981 L113.492,173.2823 L112.371,173.3249 L111.246,173.3682 L110.121,173.3731 L108.999,173.3787 L107.876,173.3413 L106.754,173.3046 L105.631,173.2243 L104.496,173.1436 L103.381,173.0347 L102.26,172.9031 L101.137,172.7492 L100.016,172.575 L98.897,172.3786 L97.777,172.1593 L96.659,171.919 L95.544,171.6562 L94.43,171.3696 L93.316,171.0618 L92.207,170.731 L91.098,170.3758 L89.991,169.9989 L88.888,169.5983 L87.787,169.1727 L86.688,168.7248 L85.593,168.253 L84.5,167.7553 L83.41,167.2349 L82.325,166.6899 L81.243,166.1185 L80.163,165.5236 L79.089,164.9038 L78.018,164.2567 L76.951,163.5856 L75.889,162.8891 L74.831,162.1646 L73.777,161.4155 L72.73,160.6403 L71.687,159.8366 L70.648,159.0076 L69.616,158.1521 L68.589,157.267 L67.567,156.3564 L66.552,155.4185 L65.543,154.4505 L64.539,153.4564 L63.543,152.4342 L62.553,151.3814 L61.569,150.3017 L60.594,149.1934 L59.625,148.054 L58.664,146.887 L57.711,145.691 L56.765,144.4631 L55.826,143.207 L54.898,141.9212 L53.979,140.6071 L53.436,139.7872 L52.897,138.9747 L52.392,138.1436 L51.885,137.3123 L51.412,136.4632 L50.936,135.6109 L50.489,134.7429 L50.043,133.8779 L49.63,132.9964 L49.215,132.1146 L48.833,131.2171 L48.448,130.3161 L48.092,129.4016 L47.737,128.4897 L47.412,127.5635 L47.087,126.6369 L46.793,125.6967 L46.497,124.753 L46.229,123.7978 L45.96,122.845 L45.723,121.8801 L45.484,120.9147 L45.275,119.9379 L45.065,118.9578 L44.882,117.968 L44.699,116.9805 L44.545,115.9832 L44.391,114.9854 L44.265,113.9783 L44.138,112.9682 L44.038,111.9503 L43.937,110.9348 L43.864,109.9114 L43.791,108.8876 L43.746,107.857 L43.7,106.8233 L43.679,105.784 L43.658,104.7469 L43.664,103.7044 L43.669,102.6613 L43.701,101.6137 L43.734,100.5633 L43.79,99.5095 L43.845,98.4575 L43.927,97.4024 L44.009,96.347 L44.116,95.2893 L44.223,94.229 L44.353,93.1672 L44.483,92.1074 L44.638,91.0467 L44.793,89.9857 L44.972,88.9246 L45.151,87.8613 L45.352,86.7985 L45.553,85.7376 L45.778,84.6783 L46.003,83.6185 L46.251,82.5611 L46.499,81.5015 L46.769,80.4447 L47.038,79.3896 L47.33,78.3383 L47.621,77.2868 L47.936,76.2401 L48.25,75.191 L48.585,74.1469 L48.919,73.1046 L49.274,72.0684 L49.63,71.0319 L50.007,70.0025 L50.384,68.971 L50.781,67.9466 L51.177,66.9239 L51.593,65.9095 L52.009,64.8951 L52.446,63.8898 L52.883,62.8828 L53.338,61.8848 L53.793,60.8885 L54.267,59.9029 L54.74,58.9173 L55.233,57.9432 L55.727,56.9674 L56.237,56.0026 L56.747,55.0397 L57.275,54.0898 L57.804,53.14 L58.35,52.2039 L58.897,51.2662 L59.46,50.3416 L60.021,49.4189 L60.6,48.5115 L61.179,47.6041 L61.775,46.7128 L62.371,45.8199 L62.983,44.9422 L63.594,44.0665 L64.22,43.2082 L64.846,42.35 L65.488,41.5103 L66.131,40.6689 L66.788,39.8449 L67.444,39.0227 L68.114,38.2204 L68.784,37.4182 L69.469,36.6367 L70.154,35.8535 L70.853,35.0898 L71.55,34.328 L72.261,33.5882 L72.971,32.8486 L73.695,32.1319 L74.42,31.4136 L75.157,30.7169 L75.892,30.0219 L76.64,29.3513 L77.387,28.6809 L78.146,28.0355 L78.907,27.3886 L79.679,26.7652 L80.448,26.1436 L81.228,25.5485 L82.008,24.9536 L82.8,24.3861 L83.585,23.8223 L85.195,22.7313 L86.815,21.7048 L88.456,20.7359 L90.113,19.8219 L91.784,18.9711 L93.475,18.182 L95.18,17.4515 L96.896,16.7878 L98.63,16.19 L100.376,15.6542 L102.132,15.189 L103.903,14.7938 L105.686,14.4639 L107.475,14.2081 L109.28,14.0266 L111.094,13.9139 L112.913,13.879 L114.747,13.9228 L116.589,14.0396 L118.436,14.2377 L120.296,14.5198 L122.179,14.8823 L123.1,15.1021 L124.036,15.3239 L124.976,15.591 L125.93,15.8614 L126.864,16.1562 L127.808,16.476 L128.756,16.8195 L129.705,17.184 L130.655,17.5712 L131.607,17.9829 L132.561,18.4161 L133.515,18.8726 L134.472,19.3544 L135.43,19.8585 L136.387,20.3864 L137.348,20.9403 L138.309,21.517 L139.27,22.1184 L140.233,22.7464 L141.197,23.3979 L142.16,24.0747 L143.124,24.7777 L144.268,25.6412 L145.383,26.5145 L146.472,27.4006 L147.537,28.2972 L148.574,29.2039 L149.586,30.123 L150.575,31.0521 L151.537,31.9904 L152.474,32.9407 L153.388,33.9003 L154.276,34.8686 L155.14,35.8483 L155.982,36.8369 L156.798,37.8334 L157.59,38.8408 L158.361,39.8565 L159.107,40.8797 L159.83,41.9132 L160.531,42.9545 L161.208,44.0026 L161.863,45.0606 L162.497,46.1259 L163.107,47.1975 L163.691,48.2701 L164.253,49.3712 L164.81,50.4605 L165.323,51.564 L165.836,52.6678 L166.304,53.7847 L166.775,54.9055 L167.206,56.0374 L167.637,57.1665 L168.024,58.307 L168.412,59.4481 L168.758,60.5999 L169.106,61.7557 L169.416,62.9205 L169.725,64.0823 L169.994,65.2535 L170.263,66.4254 L170.492,67.6054 L170.722,68.7894 L170.916,69.9802 L171.11,71.1683 L171.265,72.3632 L171.421,73.5588 L171.538,74.7603 L171.656,75.9654 L171.74,77.1751 L171.824,78.3824 L171.871,79.5939 L171.918,80.8062 L171.929,82.0217 L171.941,83.2408 L171.92,84.4621 L171.899,85.6812 L171.843,86.9021 L171.788,88.1235 L171.698,89.3457 L171.608,90.5712 L171.488,91.7967 L171.368,93.02 L171.215,94.2424 L171.062,95.4655 L170.877,96.6867 L170.692,97.9111 L170.477,99.133 L170.264,100.353 L170.019,101.5694 L169.775,102.7863 L169.5,103.999 L169.224,105.2144 L168.922,106.425 L168.62,107.6337 L168.289,108.8364 L167.959,110.0396 L167.6,111.2357 L167.24,112.4344 L166.855,113.626 L166.471,114.8157 L166.06,115.9969 L165.649,117.1784 L165.212,118.3502 L164.774,119.5245 L164.313,120.6892 L163.852,121.8521 L163.367,123.0039 L162.881,124.1558 L162.371,125.2956 L161.861,126.4376 L161.329,127.5676 L160.798,128.696 L160.244,129.8104 L159.69,130.9251 L159.113,132.025 L158.536,133.1268 L157.94,134.2144 L157.344,135.3004 L156.727,136.3698 L156.111,137.4394 L155.474,138.4914 L154.837,139.5455 L154.181,140.583 L153.527,141.6186 L152.854,142.6352 L152.181,143.6518 L151.491,144.6484 L150.798,145.6469 L150.091,146.6263 L149.384,147.6041 L148.661,148.56 L147.938,149.5161 L147.199,150.4493 L146.459,151.3845 L145.705,152.2982 L144.952,153.2102 L144.185,154.0979 L143.418,154.9854 L142.637,155.8479 L141.856,156.7119 L141.061,157.5522 L140.269,158.3908 L139.465,159.2025 L138.66,160.0141 L137.844,160.7978 L137.027,161.5832 L136.199,162.3426 L135.374,163.1002 L134.538,163.8282 L133.703,164.5562 L132.858,165.2537 L132.011,165.9531 L131.157,166.6239 L130.305,167.2929 L129.444,167.93 L128.585,168.567 L127.718,169.171 L126.849,169.7767 L125.974,170.3516 L125.103,170.9249 L124.225,171.4637 L123.348,172.0024 L122.465,172.5057 L121.581,173.0107 L120.692,173.4827 L119.808,173.9532 L118.919,174.3868 L118.031,174.8204 L117.14,175.2161 L116.247,175.6137 L115.352,175.976 L114.474,176.3321 L112.676,176.9812 L110.888,177.5467 L109.102,178.0389 L107.322,178.4477 L105.519,178.7779 L104.654,178.9084 L103.77,179.0209 L102.885,179.1125 L102.001,179.1843 L101.122,179.2341 L100.243,179.262 L99.365,179.2698 L98.492,179.2554 L97.619,179.2186 L96.748,179.1611 L95.882,179.081 L95.016,178.9777 L94.152,178.8533 L93.294,178.706 L92.436,178.5346 L91.58,178.3416 L90.73,178.1253 L89.88,177.884 L89.033,177.6206 L88.192,177.3333 L87.351,177.0201 L86.513,176.684 L85.681,176.3234 L84.849,175.936 L84.021,175.5249 L83.199,175.0886 L82.378,174.6242 L81.56,174.1356 L80.748,173.6209 L79.95,173.0852 L78.672,172.1728 L77.448,171.2265 L76.26,170.2343 L75.108,169.2036 L73.996,168.1337 L72.92,167.0207 L71.878,165.8715 L70.877,164.6864 L69.911,163.4608 L68.979,162.2016 L68.086,160.9094 L67.229,159.5798 L66.405,158.2194 L65.621,156.8291 L64.871,155.4045 L64.156,153.9521 L63.478,152.4729 L62.836,150.9627 L62.228,149.4279 L61.657,147.8695 L61.121,146.2838 L60.619,144.6763 L60.154,143.0488 L59.725,141.3975 L59.329,139.7279 L58.969,138.0415 L58.645,136.335 L58.353,134.6135 L58.097,132.8786 L57.877,131.1274 L57.689,129.3643 L57.537,127.5915 L57.42,125.8061 L57.335,124.012 L57.285,122.2117 L57.27,120.4025 L57.286,118.5882 L57.337,116.7711 L57.422,114.9488 L57.539,113.1246 L57.689,111.3012 L57.873,109.4764 L58.089,107.6529 L58.337,105.8339 L58.619,104.0172 L58.931,102.205 L59.276,100.401 L59.653,98.6027 L60.061,96.8125 L60.5,95.034 L60.972,93.2648 L61.474,91.507 L62.006,89.7645 L62.571,88.0351 L63.164,86.3201 L63.787,84.6242 L64.442,82.9449 L65.125,81.2834 L65.838,79.6445 L66.582,78.0257 L67.353,76.4281 L68.153,74.8566 L68.983,73.3088 L69.84,71.7854 L70.724,70.2916 L71.639,68.825 L72.58,67.3859 L73.547,65.9801 L74.544,64.6048 L75.566,63.2602 L76.613,61.9523 L77.69,60.6783 L78.791,59.4379 L79.917,58.2377 L81.071,57.0747 L82.248,55.9481 L83.45,54.8649 L84.679,53.8221 L85.931,52.8188 L87.206,51.8618 L88.509,50.9482 L89.834,50.0769 L91.18,49.2547 L92.555,48.4791 L93.951,47.7484 L95.369,47.0697 L96.814,46.4409 L98.281,45.8596 L99.768,45.3327 L101.284,44.859 L102.822,44.4355 L104.38,44.0692 L105.966,43.7595 L107.575,43.5028 L109.204,43.3063 L110.875,43.1694 L111.831,43.1221 L112.783,43.0742 L114.685,43.0424 L116.536,43.0747 L118.351,43.1632 L120.122,43.312 L121.857,43.5203 L123.555,43.781 L125.209,44.0974 L126.827,44.4693 L128.409,44.8898 L129.949,45.3616 L131.452,45.8854 L132.92,46.4542 L134.346,47.0699 L135.736,47.7342 L137.092,48.4401 L138.405,49.1889 L139.684,49.9832 L140.928,50.8157 L142.131,51.6875 L143.298,52.6019 L144.429,53.5528 L145.52,54.5389 L146.574,55.5639 L147.595,56.6209 L148.574,57.7093 L149.518,58.8333 L150.426,59.986 L151.294,61.1665 L152.125,62.379 L152.922,63.6169 L153.677,64.8789 L154.395,66.1691 L155.078,67.4815 L155.72,68.814 L156.324,70.1712 L156.892,71.5468 L157.419,72.9388 L157.907,74.3513 L158.359,75.7789 L158.77,77.2187 L159.142,78.6752 L159.477,80.1431 L159.771,81.6192 L160.025,83.108 L160.243,84.6044 L160.419,86.1051 L160.554,87.6142 L160.653,89.1274 L160.71,90.6407 L160.727,92.1584 L160.706,93.6763 L160.644,95.1903 L160.54,96.7047 L160.399,98.2156 L160.218,99.7185 L159.994,101.2176 L159.733,102.7097 L159.431,104.1895 L159.087,105.6618 L158.706,107.1234 L158.284,108.5686 L157.819,110.0023 L157.317,111.4216 L156.775,112.8206 L156.189,114.2043 L155.566,115.57 L154.904,116.9118 L154.198,118.2342 L153.454,119.5354 L152.671,120.8087 L151.844,122.0592 L150.98,123.2849 L150.076,124.4792 L149.128,125.6469 L148.142,126.7868 L147.117,127.892 L146.048,128.9669 L144.94,130.0107 L143.793,131.0164 L142.6,131.9884 L141.369,132.926 L140.099,133.8225 L138.782,134.6812 L137.425,135.5025 L136.029,136.2795 L134.585,137.0148 L133.102,137.7094 L131.577,138.3564 L130.004,138.9586 L128.391,139.5167 L126.736,140.0236 L125.031,140.4803 L123.284,140.8891 L121.494,141.2432 L119.652,141.5428 L118.481,141.6903 L117.344,141.7799 L116.233,141.8139 L115.148,141.7991 L114.098,141.7319 L113.071,141.6131 L112.069,141.4497 L111.1,141.2388 L110.151,140.9797 L109.224,140.6788 L108.327,140.3347 L107.449,139.944 L106.59,139.514 L105.76,139.0437 L104.946,138.5281 L104.152,137.9749 L103.384,137.3837 L102.634,136.749 L101.902,136.0781 L101.196,135.3717 L100.508,134.6237 L99.84,133.8419 L99.197,133.0269 L98.574,132.1733 L97.971,131.2883 L97.394,130.3732 L96.838,129.4229 L96.304,128.4442 L95.795,127.4388 L95.309,126.4018 L94.845,125.3397 L94.407,124.2545 L93.993,123.1417 L93.601,122.0073 L93.236,120.8535 L92.895,119.6761 L92.578,118.4808 L92.286,117.2698 L92.021,116.0394 L91.778,114.7948 L91.563,113.5382 L91.373,112.2662 L91.207,110.9836 L91.067,109.6929 L90.954,108.3911 L90.865,107.0822 L90.803,105.7694 L90.767,104.4493 L90.755,103.1258 L90.77,101.8023 L90.812,100.4755 L90.878,99.149 L90.971,97.8265 L91.09,96.5046 L91.234,95.1867 L91.404,93.8768 L91.601,92.5715 L91.822,91.2738 L92.069,89.9881 L92.344,88.7109 L92.642,87.4449 L92.966,86.1949 L93.317,84.9573 L93.692,83.7346 L94.093,82.5318 L94.52,81.3453 L94.971,80.1771 L95.446,79.033 L95.948,77.9089 L96.474,76.8065 L97.023,75.7321 L97.599,74.6813 L98.197,73.6556 L98.819,72.6617 L99.467,71.6947 L100.137,70.7561 L100.829,69.8525 L101.547,68.9792 L102.287,68.137 L103.048,67.3332 L103.835,66.5625 L104.644,65.8255 L105.472,65.1296 L106.327,64.4694 L107.204,63.8452 L108.1,63.2642 L109.025,62.7218 L109.971,62.2172 L110.937,61.758 L111.932,61.34 L112.951,60.9625 L113.991,60.6319 L115.063,60.3464 L116.159,60.1038 L117.278,59.911 L118.436,59.7669 L119.795,59.647 L121.119,59.5754 L122.414,59.5505 L123.678,59.567 L124.903,59.6278 L126.1,59.732 L127.267,59.8742 L128.396,60.0566 L129.498,60.2794 L130.57,60.5368 L131.607,60.8305 L132.617,61.1619 L133.6,61.5251 L134.547,61.9208 L135.47,62.3519 L136.366,62.8123 L137.229,63.3021 L138.068,63.825 L138.881,64.3752 L139.662,64.9519 L140.42,65.5599 L141.153,66.1932 L141.856,66.8503 L142.534,67.5368 L143.189,68.2465 L143.814,68.9775 L144.415,69.7358 L144.991,70.5151 L145.539,71.3133 L146.062,72.1365 L146.56,72.9783 L147.03,73.8365 L147.475,74.7169 L147.895,75.6136 L148.287,76.5236 L148.652,77.4531 L148.994,78.3962 L149.306,79.3498 L149.593,80.3195 L149.854,81.3002 L150.088,82.2884 L150.294,83.2896 L150.476,84.2987 L150.629,85.3122 L150.756,86.3355 L150.857,87.3637 L150.931,88.3933 L150.977,89.4292 L150.999,90.4671 L150.993,91.503 L150.959,92.5421 L150.901,93.5802 L150.815,94.6129 L150.702,95.6455 L150.565,96.6741 L150.4,97.6942 L150.209,98.7109 L149.992,99.7205 L149.75,100.7185 L149.481,101.7097 L149.187,102.691 L148.868,103.6573 L148.521,104.6137 L148.151,105.5574 L147.756,106.483 L147.334,107.3956 L146.889,108.2928 L146.42,109.1687 L145.924,110.0286 L145.406,110.8706 L144.864,111.6883 L144.296,112.4874 L143.705,113.2658 L143.092,114.0175 L142.453,114.7479 L141.791,115.4552 L141.108,116.1334 L140.399,116.7877 L139.667,117.4168 L138.915,118.0146 L138.135,118.5861 L137.333,119.1303 L136.512,119.6413 L135.661,120.1232 L134.788,120.576 L133.895,120.9935 L132.972,121.3791 L132.027,121.7332 L131.06,122.0502 L130.062,122.332 L129.041,122.5798 L127.997,122.7879 L126.922,122.9573 L125.821,123.0898 L124.698,123.1799 L123.531,123.2274 L122.912,123.2297 L122.305,123.2056 L121.71,123.1553 L121.131,123.0826 L120.572,122.9863 L120.024,122.8652 L119.488,122.7235 L118.972,122.5607 L118.464,122.3741 L117.968,122.1678 L117.488,121.9421 L117.016,121.6928 L116.554,121.4244 L116.107,121.1379 L115.666,120.8276 L115.235,120.4987 L114.818,120.1524 L114.442,119.8146 L113.616,118.9884 L112.873,118.1228 L112.168,117.176 L111.503,116.1636 L110.889,115.0897 L110.32,113.9466 L109.796,112.75 L109.324,111.5051 L108.903,110.2066 L108.528,108.8686 L108.209,107.4978 L107.942,106.0898 L107.725,104.6572 L107.563,103.2077 L107.455,101.7379 L107.397,100.2585 L107.394,98.7783 L107.446,97.2945 L107.548,95.8161 L107.703,94.3533 L107.913,92.9034 L108.172,91.4738 L108.483,90.0766 L108.847,88.7082 L109.258,87.3752 L109.717,86.0913 L110.229,84.8516 L110.783,83.6619 L111.382,82.5373 L112.048,81.4411 L112.367,80.9616 L112.714,80.4729 L113.073,79.9993 L113.441,79.5428 L113.817,79.1086 L114.205,78.6907 L114.601,78.291 L115.004,77.9146 L115.42,77.5555 L115.843,77.2153 L116.272,76.8989 L116.714,76.6005 L117.164,76.3215 L117.619,76.0665 L118.089,75.8305 L118.568,75.614 L119.052,75.4216 L119.547,75.2508 L120.641,74.9167 L121.692,74.6336 L122.711,74.3966 L123.699,74.2005 L124.648,74.0494 L125.568,73.9401 L126.455,73.8677 L127.304,73.8352 L128.125,73.8403 L128.916,73.878 L129.668,73.9499 L130.395,74.0557 L131.094,74.1901 L131.757,74.3536 L132.397,74.5478 L133.012,74.7672 L133.594,75.0113 L134.157,75.2841 L134.697,75.5802 L135.209,75.898 L135.704,76.2441 L136.179,76.6121 L136.629,77.0003 L137.063,77.4166 L137.478,77.8542 L137.87,78.3109 L138.246,78.795 L138.605,79.2998 L138.941,79.8222 L139.259,80.371 L139.56,80.9389 L139.838,81.5229 L140.099,82.1308 L140.34,82.7559 L140.559,83.3947 L140.759,84.0546 L140.94,84.7293 L141.098,85.4149 L141.236,86.1184 L141.354,86.8336 L141.45,87.5568 L141.522,88.2584 L141.616,89.7952 L141.619,91.3182 L141.537,92.8676 L141.376,94.4271 L141.131,95.9824 L140.794,97.5676 L140.608,98.3084 L140.395,99.0721 L140.161,99.8326 L139.909,100.5864 L139.638,101.3286 L139.347,102.0642 L139.037,102.7901 L138.711,103.5013 L138.364,104.2027 L138,104.8916 L137.619,105.5623 L137.219,106.2204 L136.803,106.863 L136.372,107.4847 L135.922,108.0906 L135.457,108.6788 L134.978,109.243 L134.48,109.7889 L133.969,110.3146 L133.445,110.814 L132.903,111.2927 L132.347,111.7491 L131.781,112.1773 L131.196,112.5825 L130.599,112.9637 L129.992,113.3151 L129.366,113.6413 L128.727,113.9421 L128.078,114.2117 L127.41,114.4538 L126.727,114.6688 L126.035,114.8514 L125.322,115.0037 L124.593,115.1267 L123.853,115.2155 L123.09,115.2706 L122.311,115.2935 L121.519,115.2799 L120.703,115.228 L119.869,115.1407 L119.02,115.0136 L118.145,114.8431 L116.966,114.5729 L115.858,114.2814 L114.812,113.968 L113.826,113.6372 L112.91,113.2899 L112.053,112.9245 L111.253,112.5458 L110.519,112.1563 L109.84,111.7524 L109.213,111.3394 L108.649,110.9216 L108.132,110.492 L107.663,110.0572 L107.247,109.622 L106.874,109.176 L106.539,108.7258 L106.25,108.2769 L105.996,107.815 L105.774,107.3469 L105.59,106.8781 L105.436,106.3922 L105.311,105.8966 L105.219,105.3968 L105.157,104.877 L105.123,104.3449 L105.12,103.8065 L105.148,103.248 L105.204,102.6773 L105.291,102.1003 L105.41,101.5058 L105.557,100.9011 L105.734,100.2917 L105.942,99.6689 L106.179,99.039 L106.443,98.4071 L106.737,97.7659 L107.058,97.121 L107.404,96.4768 L107.779,95.8277 L108.178,95.1781 L108.6,94.5318 L109.029,93.9097 L110.006,92.598 L111.046,91.3355 L112.166,90.0963 L113.349,88.8885 L114.589,87.7265 L115.884,86.6108 L117.218,85.5462 L118.583,84.5479 L120,83.6026 L120.68,83.1772 L121.384,82.7589 L122.091,82.3598 L122.799,81.9803 L123.504,81.6245 L124.209,81.2902 L124.911,80.9776 L125.606,80.6906 L126.297,80.4274 L126.982,80.1875 L127.655,79.9749 L128.322,79.7879 L128.978,79.6257 L129.617,79.4918 L130.246,79.3848 L130.861,79.3032 L131.454,79.2501 L132.034,79.2247 L132.595,79.2242 L133.131,79.2509 L133.651,79.3054 L134.152,79.3836 L134.623,79.4865 L135.08,79.617 L135.518,79.7702 L135.927,79.9458 L136.325,80.1512 L136.707,80.3803 L137.065,80.6331 L137.415,80.9218 L137.753,81.2402 L138.073,81.5881 L138.384,81.9816 L138.684,82.4134 L138.966,82.8835 L139.225,83.387 L139.363,83.716 L139.476,84.1004 L139.571,84.5791 L139.642,85.1265 L139.679,85.7302 L139.683,86.3944 L139.654,87.0998 L139.59,87.8356 L139.491,88.6036 L139.362,89.3895 L139.202,90.1833 L139.011,90.9854 L138.794,91.7854 L138.553,92.5719 L138.286,93.3453 L138.001,94.097 L137.699,94.8139 L137.381,95.4968 L137.053,96.1379 L136.72,96.7213 L136.383,97.2486 L136.052,97.7126 L135.74,98.0936 L135.42,98.4246 L134.96,98.8559 L134.49,99.2789 L134.032,99.6717 L133.587,100.0358 L133.16,100.3673 L132.746,100.6704 L132.347,100.9467 L131.967,101.1922 L131.601,101.4118 L131.251,101.6069 L130.923,101.7735 L130.608,101.9174 L130.312,102.0396 L130.039,102.1375 L129.781,102.2161 L129.542,102.2775 L129.328,102.3198 L129.2,102.3404 L128.776,102.3684 L128.508,102.3482 L128.274,102.2963 L128.069,102.2243 L127.896,102.1322 L127.71,101.9968 L127.518,101.822 L127.332,101.6047 L127.138,101.3198 L126.947,100.9807 L126.772,100.5932 L126.611,100.1429 L126.47,99.647 L126.355,99.1151 L126.268,98.5379 L126.208,97.9312 L126.179,97.3046 L126.184,96.6517 L126.218,95.9853 L126.284,95.3156 L126.385,94.637 L126.516,93.9603 L126.677,93.2966 L126.872,92.64 L127.094,92 L127.343,91.3886 L127.622,90.7993 L127.925,90.2397 L128.247,89.7235 L128.595,89.2414 L128.959,88.7995 L129.333,88.4107 L129.729,88.0631 L130.135,87.7591 L130.544,87.5092 L130.978,87.3009 L131.426,87.1334 L131.886,87.0156 L132.438,86.9383 L133.183,86.8752 L133.917,86.8297 L134.599,86.8051 L135.232,86.7988 L135.806,86.8111 L136.329,86.8408 L136.801,86.8842 L137.213,86.9404 L137.573,87.0079 L137.882,87.0812 L138.126,87.1557 L138.321,87.2309 L138.465,87.298 L138.548,87.3461 L138.596,87.3809 L138.61,87.392 L138.588,87.3679 L138.564,87.3337 L138.539,87.2868 L138.516,87.2253 L138.506,87.1909 L138.505,87.1795 L138.504,87.1873 L138.513,87.1402 L138.456,87.4609 L138.341,87.7872 L138.128,88.2275 L137.829,88.7399 L137.442,89.3009 L136.967,89.9078 L136.423,90.5407 L135.814,91.1868 L135.144,91.8444 L134.427,92.5029 L133.671,93.1524 L132.879,93.7908 L132.065,94.4119 L131.236,95.0056 L130.398,95.5699 L129.56,96.1007 L128.736,96.587 L127.928,97.0268 L127.148,97.4178 L126.415,97.7476 L125.698,98.0275 L125.412,98.1264 L125.117,98.2186 L124.841,98.2941 L124.589,98.3538 L124.371,98.3953 L124.179,98.4217 L124.022,98.4354 L123.915,98.4377 L123.845,98.4337 L123.821,98.4313 L123.861,98.4417 L123.935,98.4689 L124.045,98.5274 L124.191,98.6319 L124.32,98.7564 L124.426,98.8974 L124.507,99.0456 L124.546,99.1448 L124.558,99.1964 L124.559,99.2 L124.558,99.1263 L124.566,98.993 L124.592,98.8077 L124.644,98.5572 L124.722,98.257 L124.83,97.9118 L124.975,97.5134 L125.151,97.0725 L125.364,96.5906 L125.621,96.0516 L126.012,95.2604 L126.398,94.4884 L126.774,93.744 L127.142,93.0249 L127.499,92.3339 L127.847,91.6695 L128.186,91.0296 L128.516,90.4168 L128.836,89.8297 L129.148,89.2662 L129.45,88.7291 L129.738,88.2249 L130.304,87.2597 L130.827,86.4033 L131.314,85.6409 L131.767,84.9648 L132.179,84.385 L132.553,83.8939 L132.887,83.4865 L133.168,83.1751 L133.397,82.9495 L133.562,82.8072 L133.629,82.7589 L133.594,82.7777 L133.422,82.8363 L133.069,82.8868 L132.632,82.8488 L132.196,82.6956 L131.842,82.4653 L131.651,82.2746 L131.568,82.1582 L131.548,82.1231 L131.573,82.1895 L131.616,82.3298 L131.663,82.5292 L131.705,82.7453 L131.798,83.4433 L131.856,84.2226 L131.888,85.1011 L131.899,86.0374 L131.892,87.0052 L131.874,87.9825 L131.864,88.4617 L131.853,88.9382 L131.842,89.4049 L131.834,89.8612 L131.827,90.3046 L131.825,90.7182 C131.816,92.1983 133.009,93.4051 134.489,93.4138 C135.969,93.4223 137.176,92.2294 137.185,90.7493 Z" id="Fill-306"></path>
        </g>
    </g>
</svg>
