<?xml version="1.0" encoding="UTF-8"?>
<svg width="235px" height="211px" viewBox="0 0 235 211" version="1.1" xmlns="http://www.w3.org/2000/svg" xmlns:xlink="http://www.w3.org/1999/xlink">
    <title>152</title>
    <g id="Page-1" stroke="none" stroke-width="1" fill="none" fill-rule="evenodd">
        <g id="152" transform="translate(0.042611, 0.508000)" fill="currentColor">
            <path d="M104.848,65.723 L104.172,67.311 L103.517,68.868 L102.886,70.386 L102.277,71.87 L101.691,73.319 L101.128,74.73 L100.587,76.109 L100.067,77.453 L99.571,78.761 L99.094,80.037 L98.639,81.28 L98.206,82.487 L97.793,83.664 L97.4,84.809 L97.028,85.919 L96.675,87 L96.342,88.05 L96.029,89.067 L95.734,90.056 L95.458,91.015 L95.202,91.942 L94.963,92.843 L94.742,93.715 L94.541,94.557 L94.356,95.373 L94.188,96.163 L94.04,96.924 L93.907,97.66 L93.791,98.374 L93.693,99.059 L93.61,99.723 L93.545,100.365 L93.497,100.982 L93.465,101.58 L93.451,102.16 L93.454,102.717 L93.474,103.257 L93.514,103.785 L93.573,104.293 L93.653,104.787 L93.756,105.275 L93.884,105.743 L94.037,106.201 L94.225,106.656 L94.443,107.088 L94.696,107.507 L94.996,107.914 L95.329,108.287 L95.7,108.629 L96.117,108.939 L96.552,109.197 L97.007,109.407 L97.487,109.571 L97.959,109.682 L98.428,109.75 L98.903,109.776 L99.359,109.765 L99.805,109.724 L100.25,109.653 L100.742,109.542 L101.519,109.307 L102.353,108.974 L103.171,108.576 L103.988,108.12 L104.815,107.6 L105.645,107.026 L106.484,106.401 L107.336,105.72 L108.197,104.99 L109.066,104.216 L109.947,103.392 L110.834,102.525 L111.728,101.619 L112.629,100.671 L113.532,99.686 L114.438,98.668 L115.345,97.616 L116.25,96.533 L117.153,95.424 L118.052,94.287 L118.943,93.128 L119.826,91.949 L120.699,90.749 L121.564,89.526 L122.398,88.3 L123.238,87.064 L124.042,85.81 L124.846,84.553 L125.604,83.289 L126.356,82.035 L127.083,80.762 L127.778,79.497 L128.442,78.238 L129.075,76.985 L129.676,75.739 L130.239,74.505 L130.766,73.282 L131.254,72.07 L131.698,70.877 L132.101,69.7 L132.458,68.537 L132.763,67.398 L133.02,66.277 L133.222,65.17 L133.363,64.09 L133.445,63.027 L133.457,61.976 L133.392,60.953 L133.247,59.947 L133.003,58.952 L132.654,58 L132.195,57.087 L131.603,56.22 L130.961,55.51 L130.505,55.097 L130.079,54.768 L129.635,54.473 L129.171,54.205 L128.68,53.964 L128.177,53.757 L127.659,53.578 L127.119,53.425 L126.571,53.303 L126.009,53.206 L125.427,53.134 L124.836,53.089 L124.232,53.066 L123.608,53.068 L122.972,53.094 L122.321,53.141 L121.649,53.212 L120.963,53.305 L120.26,53.42 L119.534,53.558 L118.792,53.719 L118.031,53.901 L117.246,54.107 L116.432,54.338 L115.859,54.524 L115.282,54.747 L114.725,54.999 L114.182,55.276 L113.649,55.584 L113.135,55.914 L112.634,56.266 L112.144,56.644 L111.672,57.04 L111.212,57.455 L110.762,57.893 L110.301,58.376 L109.494,59.301 L108.702,60.327 L107.957,61.408 L107.252,62.54 L106.584,63.727 L105.958,64.957 L105.366,66.226 L104.811,67.537 L104.295,68.878 L103.814,70.247 L103.368,71.645 L102.961,73.06 L102.588,74.492 L102.252,75.939 L101.956,77.392 L101.694,78.848 L101.471,80.307 L101.289,81.758 L101.143,83.202 L101.037,84.636 L100.974,86.049 L100.949,87.443 L100.968,88.816 L101.031,90.155 L101.136,91.466 L101.289,92.745 L101.491,93.979 L101.741,95.176 L102.047,96.334 L102.41,97.436 L102.833,98.493 L103.332,99.504 L103.872,100.393 L104.223,100.891 L104.568,101.326 L104.934,101.735 L105.324,102.124 L105.747,102.493 L106.189,102.829 L106.657,103.136 L107.157,103.414 L107.673,103.651 L108.209,103.85 L108.771,104.01 L109.338,104.125 L109.916,104.198 L110.511,104.229 L111.103,104.215 L111.697,104.163 L112.301,104.069 L112.877,103.943 L113.272,103.828 L113.623,103.698 L113.951,103.554 L114.27,103.397 L114.59,103.224 L114.936,103.021 L115.553,102.627 L116.229,102.154 L116.933,101.623 L117.667,101.039 L118.436,100.394 L119.235,99.695 L120.06,98.945 L120.913,98.142 L121.789,97.289 L122.684,96.393 L123.597,95.449 L124.524,94.462 L125.46,93.439 L126.405,92.375 L127.352,91.276 L128.3,90.146 L129.246,88.983 L130.183,87.794 L131.111,86.58 L132.027,85.34 L132.923,84.08 L133.801,82.803 L134.654,81.507 L135.478,80.198 L136.272,78.878 L137.032,77.544 L137.751,76.206 L138.43,74.861 L139.063,73.508 L139.644,72.157 L140.175,70.804 L140.647,69.447 L141.055,68.096 L141.399,66.748 L141.671,65.398 L141.862,64.06 L141.975,62.727 L141.996,61.395 L141.92,60.133 L141.839,59.434 L141.734,58.782 L141.601,58.142 L141.44,57.507 L141.247,56.873 L141.024,56.254 L140.772,55.644 L140.485,55.039 L140.167,54.452 L139.819,53.878 L139.435,53.313 L139.013,52.759 L138.224,51.813 L137.406,50.916 L136.576,50.089 L135.73,49.319 L134.863,48.61 L133.986,47.969 L133.094,47.388 L132.181,46.867 L131.261,46.416 L130.33,46.024 L129.381,45.695 L128.432,45.435 L127.478,45.235 L126.512,45.097 L125.553,45.025 L124.596,45.009 L123.635,45.054 L122.687,45.157 L121.745,45.312 L120.804,45.522 L119.88,45.783 L118.965,46.089 L118.054,46.445 L117.16,46.844 L116.277,47.284 L115.399,47.768 L114.538,48.29 L113.687,48.847 L112.843,49.445 L112.014,50.076 L111.196,50.738 L110.387,51.437 L109.591,52.166 L108.807,52.923 L108.032,53.713 L107.271,54.529 L106.521,55.371 L105.782,56.242 L105.057,57.137 L104.344,58.054 L103.643,58.997 L102.957,59.961 L102.284,60.945 L101.623,61.952 L100.979,62.976 L100.348,64.018 L99.732,65.079 L99.127,66.164 L98.555,67.251 L97.978,68.35 L97.433,69.476 L96.89,70.603 L96.381,71.753 L95.875,72.9 L95.403,74.064 L94.93,75.232 L94.496,76.415 L94.062,77.6 L93.67,78.794 L93.279,79.986 L92.928,81.184 L92.575,82.387 L92.268,83.592 L91.961,84.8 L91.701,86.005 L91.445,87.196 L91.218,88.409 L91.018,89.61 L90.844,90.805 L90.694,91.996 L90.572,93.183 L90.477,94.362 L90.408,95.533 L90.368,96.699 L90.358,97.852 L90.375,98.996 L90.424,100.133 L90.505,101.253 L90.615,102.362 L90.759,103.46 L90.937,104.54 L91.148,105.605 L91.395,106.657 L91.679,107.686 L91.997,108.698 L92.356,109.694 L92.754,110.663 L93.189,111.611 L93.669,112.538 L94.189,113.433 L94.75,114.302 L95.358,115.146 L96.008,115.952 L96.699,116.725 L97.441,117.467 L98.221,118.162 L99.111,118.882 L100.015,119.544 L100.927,120.143 L101.848,120.687 L102.786,121.174 L103.728,121.598 L104.677,121.968 L105.639,122.28 L106.601,122.531 L107.566,122.728 L108.54,122.868 L109.507,122.95 L110.473,122.981 L111.443,122.958 L112.402,122.882 L113.356,122.759 L114.31,122.586 L115.251,122.367 L116.184,122.105 L117.115,121.798 L118.032,121.451 L118.941,121.066 L119.845,120.64 L120.736,120.179 L121.619,119.685 L122.496,119.153 L123.361,118.591 L124.218,117.998 L125.068,117.373 L125.907,116.72 L126.737,116.04 L127.561,115.33 L128.373,114.596 L129.177,113.838 L129.973,113.053 L130.759,112.247 L131.535,111.419 L132.303,110.568 L133.06,109.698 L133.808,108.81 L134.547,107.901 L135.28,106.969 L135.986,106.029 L136.698,105.08 L137.39,104.099 L138.081,103.119 L138.749,102.112 L139.414,101.109 L140.059,100.084 L140.703,99.057 L141.324,98.011 L141.944,96.965 L142.538,95.903 L143.129,94.845 L143.697,93.776 L144.265,92.704 L144.805,91.625 L145.344,90.546 L145.854,89.462 L146.362,88.382 L146.842,87.301 L147.323,86.218 L147.771,85.138 L148.22,84.058 L148.635,82.986 L149.049,81.916 L149.431,80.856 L149.814,79.793 L150.161,78.745 L150.507,77.696 L150.817,76.666 L151.125,75.638 L151.397,74.631 L151.675,73.606 L152.138,71.645 L152.516,69.753 L152.681,68.795 L152.821,67.871 L152.938,66.967 L153.033,66.079 L153.105,65.205 L153.152,64.352 L153.177,63.516 L153.175,62.695 L153.147,61.898 L153.093,61.117 L153.01,60.352 L152.896,59.611 L152.753,58.888 L152.573,58.179 L152.357,57.497 L152.104,56.835 L151.804,56.189 L151.469,55.593 L150.949,54.762 L150.428,53.969 L149.897,53.201 L149.359,52.456 L148.809,51.731 L148.252,51.033 L147.687,50.356 L147.11,49.7 L146.527,49.07 L145.936,48.46 L145.334,47.872 L144.703,47.289 L143.488,46.247 L142.214,45.271 L140.916,44.391 L139.593,43.593 L138.239,42.883 L136.867,42.264 L135.478,41.725 L134.064,41.272 L132.642,40.906 L131.208,40.617 L129.757,40.408 L128.303,40.281 L126.845,40.225 L125.376,40.245 L123.91,40.339 L122.444,40.498 L120.973,40.729 L119.51,41.025 L118.049,41.381 L116.588,41.802 L115.137,42.282 L113.692,42.816 L112.25,43.409 L110.821,44.055 L109.401,44.751 L107.987,45.5 L106.589,46.298 L105.202,47.139 L103.826,48.03 L102.467,48.964 L101.122,49.938 L99.792,50.956 L98.481,52.012 L97.188,53.104 L95.913,54.236 L94.661,55.402 L93.429,56.599 L92.219,57.831 L91.034,59.093 L89.874,60.383 L88.738,61.702 L87.632,63.048 L86.552,64.416 L85.502,65.811 L84.485,67.227 L83.497,68.663 L82.542,70.12 L81.624,71.594 L80.739,73.083 L79.89,74.59 L79.082,76.11 L78.31,77.641 L77.578,79.186 L76.891,80.738 L76.243,82.299 L75.641,83.869 L75.085,85.443 L74.574,87.021 L74.112,88.605 L73.701,90.188 L73.339,91.771 L73.029,93.357 L72.775,94.937 L72.574,96.514 L72.43,98.09 L72.347,99.654 L72.321,101.212 L72.356,102.764 L72.455,104.301 L72.614,105.826 L72.843,107.341 L73.141,108.835 L73.505,110.312 L73.944,111.773 L74.456,113.207 L75.039,114.617 L75.701,116.006 L76.439,117.359 L77.251,118.683 L78.146,119.977 L79.12,121.23 L80.169,122.447 L81.305,123.626 L82.52,124.759 L83.811,125.849 L85.19,126.897 L86.628,127.879 L87.408,128.373 L88.19,128.843 L88.992,129.299 L89.813,129.742 L90.658,130.174 L91.538,130.598 L92.61,131.073 L93.707,131.495 L94.802,131.854 L95.899,132.158 L97.001,132.402 L98.099,132.585 L99.194,132.714 L100.292,132.786 L101.381,132.801 L102.466,132.765 L103.549,132.674 L104.619,132.53 L105.682,132.339 L106.741,132.097 L107.786,131.806 L108.821,131.473 L109.849,131.092 L110.862,130.668 L111.864,130.204 L112.858,129.697 L113.836,129.151 L114.802,128.57 L115.759,127.949 L116.699,127.292 L117.627,126.604 L118.545,125.878 L119.446,125.122 L120.334,124.336 L121.211,123.516 L122.072,122.669 L122.918,121.794 L123.752,120.89 L124.57,119.96 L125.373,119.007 L126.162,118.026 L126.934,117.023 L127.691,115.998 L128.433,114.949 L129.157,113.881 L129.865,112.794 L130.557,111.685 L131.23,110.56 L131.887,109.418 L132.526,108.258 L133.146,107.083 L133.748,105.895 L134.332,104.692 L134.898,103.469 L135.429,102.247 L135.965,101.014 L136.459,99.76 L136.953,98.507 L137.404,97.236 L137.853,95.969 L138.261,94.689 L138.67,93.406 L139.033,92.114 L139.395,90.821 L139.709,89.523 L140.021,88.237 L140.302,86.929 L140.557,85.628 L140.785,84.33 L140.99,83.032 L141.168,81.736 L141.318,80.444 L141.444,79.157 L141.541,77.872 L141.609,76.596 L141.651,75.325 L141.664,74.061 L141.646,72.807 L141.6,71.562 L141.522,70.324 L141.414,69.101 L141.275,67.889 L141.104,66.687 L140.899,65.502 L140.662,64.331 L140.391,63.173 L140.084,62.035 L139.745,60.914 L139.368,59.809 L138.955,58.727 L138.506,57.665 L138.018,56.621 L137.491,55.606 L136.929,54.613 L136.323,53.643 L135.679,52.705 L134.997,51.794 L134.27,50.91 L133.504,50.063 L132.699,49.246 L131.848,48.461 L130.97,47.726 L130.049,47.001 L129.14,46.312 L128.234,45.649 L127.33,45.011 L126.426,44.398 L125.526,43.811 L124.627,43.248 L123.728,42.71 L122.833,42.198 L121.94,41.709 L121.047,41.244 L120.158,40.806 L119.271,40.389 L118.385,39.997 L117.502,39.63 L116.623,39.285 L115.743,38.963 L114.845,38.659 L113.126,38.139 L111.391,37.704 L109.673,37.364 L107.968,37.107 L106.273,36.941 L104.6,36.864 L102.942,36.866 L101.298,36.955 L99.679,37.127 L98.079,37.373 L96.497,37.701 L94.943,38.105 L93.412,38.579 L91.901,39.127 L90.421,39.746 L88.965,40.427 L87.533,41.177 L86.133,41.99 L84.759,42.859 L83.41,43.792 L82.094,44.781 L80.804,45.821 L79.542,46.917 L78.313,48.064 L77.111,49.257 L75.938,50.501 L74.798,51.79 L73.686,53.119 L72.604,54.494 L71.556,55.909 L70.537,57.359 L69.549,58.85 L68.595,60.375 L67.671,61.932 L66.779,63.523 L65.923,65.144 L65.097,66.792 L64.305,68.47 L63.549,70.172 L62.825,71.896 L62.136,73.645 L61.485,75.414 L60.866,77.2 L60.284,79.006 L59.74,80.827 L59.23,82.661 L58.759,84.51 L58.326,86.368 L57.93,88.235 L57.573,90.112 L57.256,91.994 L56.977,93.88 L56.739,95.771 L56.542,97.661 L56.385,99.551 L56.269,101.442 L56.198,103.327 L56.166,105.208 L56.179,107.084 L56.237,108.949 L56.336,110.805 L56.481,112.652 L56.674,114.483 L56.909,116.301 L57.192,118.104 L57.524,119.886 L57.901,121.651 L58.328,123.396 L58.805,125.115 L59.328,126.811 L59.905,128.483 L60.533,130.123 L61.209,131.736 L61.941,133.319 L62.727,134.865 L63.562,136.378 L64.456,137.856 L65.404,139.29 L66.404,140.686 L67.465,142.041 L68.581,143.347 L69.75,144.608 L70.983,145.821 L72.271,146.978 L73.614,148.086 L75.02,149.139 L76.481,150.128 L77.718,150.884 L78.99,151.567 L80.289,152.174 L81.612,152.715 L82.968,153.186 L84.343,153.584 L85.739,153.919 L87.161,154.188 L88.599,154.389 L90.053,154.532 L91.529,154.611 L93.017,154.628 L94.519,154.59 L96.039,154.494 L97.568,154.34 L99.109,154.135 L100.664,153.876 L102.228,153.564 L103.8,153.204 L105.384,152.793 L106.974,152.334 L108.571,151.831 L110.177,151.279 L111.787,150.683 L113.402,150.047 L115.023,149.366 L116.646,148.643 L118.272,147.883 L119.902,147.081 L121.532,146.242 L123.162,145.368 L124.793,144.455 L126.422,143.508 L128.049,142.529 L129.674,141.515 L131.294,140.47 L132.91,139.395 L134.522,138.289 L136.126,137.154 L137.724,135.993 L139.315,134.803 L140.895,133.588 L142.467,132.35 L144.029,131.086 L145.578,129.799 L147.116,128.492 L148.641,127.162 L150.148,125.816 L150.899,125.13 L151.647,124.447 L152.387,123.754 L153.128,123.061 L153.859,122.359 L154.59,121.658 L155.313,120.95 L156.04,120.238 L157.465,118.807 L158.872,117.36 L160.261,115.9 L161.628,114.428 L162.972,112.945 L164.295,111.453 L165.594,109.95 L166.867,108.44 L168.116,106.924 L169.339,105.4 L170.533,103.873 L171.7,102.341 L172.838,100.804 L173.945,99.267 L175.022,97.728 L176.067,96.187 L177.078,94.648 L178.057,93.11 L179.002,91.574 L179.909,90.042 L180.782,88.514 L181.617,86.99 L182.412,85.473 L183.17,83.962 L183.887,82.458 L184.562,80.964 L185.197,79.479 L185.788,78.002 L186.333,76.538 L186.836,75.085 L187.292,73.642 L187.698,72.216 L188.059,70.802 L188.37,69.4 L188.627,68.017 L188.836,66.649 L188.99,65.295 L189.087,63.962 L189.13,62.646 L189.115,61.346 L189.037,60.071 L188.901,58.817 L188.7,57.58 L188.437,56.391 L188.114,55.154 L187.77,53.948 L187.402,52.76 L187.012,51.588 L186.598,50.431 L186.161,49.293 L185.702,48.171 L185.22,47.063 L184.717,45.975 L184.193,44.902 L183.646,43.844 L183.078,42.806 L182.491,41.783 L181.882,40.775 L181.254,39.787 L180.607,38.815 L179.939,37.858 L179.253,36.92 L178.549,35.998 L177.825,35.092 L177.084,34.204 L176.327,33.333 L175.55,32.477 L174.757,31.641 L173.948,30.82 L173.121,30.015 L172.279,29.229 L171.422,28.459 L170.548,27.704 L169.653,26.963 L168.753,26.257 L167.844,25.545 L166.904,24.865 L165.966,24.187 L164.999,23.542 L164.035,22.901 L163.048,22.289 L162.057,21.677 L161.041,21.097 L160.025,20.519 L158.986,19.974 L157.949,19.431 L156.892,18.918 L155.832,18.405 L154.751,17.924 L153.669,17.445 L152.568,16.998 L151.469,16.553 L150.354,16.138 L149.235,15.723 L148.099,15.34 L146.963,14.958 L145.81,14.609 L144.66,14.261 L143.496,13.942 L142.33,13.624 L141.149,13.338 L139.969,13.052 L138.775,12.799 L137.584,12.547 L136.383,12.324 L135.179,12.101 L133.964,11.911 L132.75,11.721 L131.526,11.563 L130.304,11.406 L129.076,11.278 L127.844,11.15 L126.606,11.054 L125.368,10.959 L124.124,10.896 L122.882,10.833 L121.636,10.799 L120.388,10.765 L119.136,10.764 L117.884,10.762 L116.63,10.793 L115.378,10.823 L114.125,10.883 L112.87,10.943 L111.615,11.035 L110.36,11.127 L109.106,11.25 L107.855,11.374 L106.605,11.527 L105.354,11.68 L104.105,11.864 L102.857,12.049 L101.613,12.266 L100.372,12.482 L99.136,12.727 L97.898,12.973 L96.667,13.25 L95.436,13.528 L94.213,13.836 L92.992,14.145 L91.781,14.482 L90.566,14.82 L89.362,15.189 L88.158,15.559 L86.967,15.96 L85.777,16.361 L84.599,16.79 L83.419,17.22 L82.253,17.681 L81.087,18.143 L79.936,18.636 L78.788,19.128 L77.655,19.649 L76.519,20.171 L75.401,20.724 L74.283,21.278 L73.184,21.863 L72.087,22.447 L71.009,23.059 L69.928,23.673 L68.869,24.318 L67.81,24.964 L66.773,25.64 L65.739,26.316 L64.727,27.02 L63.712,27.726 L62.722,28.462 L61.732,29.2 L60.768,29.969 L59.807,30.736 L58.872,31.531 L57.933,32.329 L57.024,33.158 L56.115,33.987 L55.235,34.847 L54.359,35.706 L53.511,36.592 L52.66,37.482 L51.842,38.402 L51.024,39.323 L50.241,40.275 L49.459,41.224 L48.71,42.201 L47.959,43.182 L47.244,44.193 L46.529,45.205 L45.852,46.248 L45.183,47.279 L44.529,48.35 L43.899,49.429 L43.29,50.522 L42.7,51.629 L42.13,52.753 L41.583,53.89 L41.055,55.042 L40.548,56.21 L40.064,57.391 L39.601,58.587 L39.16,59.799 L38.742,61.024 L38.347,62.263 L37.974,63.519 L37.626,64.787 L37.301,66.069 L37,67.368 L36.725,68.679 L36.473,70.004 L36.246,71.345 L36.045,72.699 L35.868,74.065 L35.717,75.448 L35.594,76.844 L35.495,78.252 L35.424,79.676 L35.38,81.113 L35.362,82.562 L35.372,84.028 L35.41,85.505 L35.475,86.995 L35.568,88.501 L35.691,90.019 L35.842,91.55 L36.022,93.096 L36.232,94.654 L36.47,96.225 L36.738,97.811 L37.038,99.409 L37.366,101.02 L37.726,102.646 L38.117,104.284 L38.538,105.934 L38.991,107.599 L39.477,109.277 L39.993,110.966 L40.542,112.671 L41.125,114.387 L41.634,115.818 L42.16,117.22 L42.703,118.59 L43.261,119.934 L43.836,121.249 L44.427,122.533 L45.032,123.791 L45.653,125.022 L46.29,126.221 L46.94,127.395 L47.607,128.542 L48.288,129.658 L48.983,130.749 L49.693,131.813 L50.416,132.847 L51.152,133.856 L51.904,134.838 L52.668,135.791 L53.444,136.719 L54.235,137.621 L55.038,138.494 L55.852,139.343 L56.681,140.166 L57.52,140.96 L58.37,141.729 L59.233,142.474 L60.107,143.19 L60.99,143.882 L61.887,144.549 L62.792,145.188 L63.707,145.804 L64.634,146.395 L65.569,146.958 L66.512,147.499 L67.467,148.015 L68.428,148.504 L69.397,148.971 L70.377,149.413 L71.363,149.83 L72.356,150.224 L73.358,150.594 L74.366,150.94 L75.38,151.263 L76.402,151.563 L77.429,151.839 L78.461,152.093 L79.501,152.325 L80.555,152.535 L81.594,152.71 L82.646,152.887 L83.709,153.02 L84.77,153.151 L85.841,153.24 L86.907,153.327 L87.981,153.376 L89.058,153.425 L90.142,153.432 L91.226,153.438 L92.315,153.403 L93.4,153.368 L94.491,153.297 L95.584,153.225 L96.681,153.113 L97.778,153.001 L98.878,152.851 L99.974,152.701 L101.073,152.517 L102.174,152.331 L103.277,152.109 L104.379,151.887 L105.482,151.628 L106.581,151.37 L107.681,151.08 L108.783,150.789 L109.884,150.463 L110.984,150.137 L112.082,149.778 L113.178,149.419 L114.271,149.03 L115.366,148.64 L116.457,148.218 L117.548,147.796 L118.635,147.343 L119.719,146.89 L120.798,146.409 L121.878,145.927 L122.953,145.416 L124.027,144.904 L125.095,144.363 L126.159,143.823 L127.217,143.257 L128.277,142.69 L129.327,142.095 L130.377,141.5 L131.418,140.879 L132.456,140.258 L133.485,139.613 L134.516,138.967 L135.535,138.296 L136.553,137.625 L137.56,136.929 L138.564,136.234 L139.557,135.517 L140.551,134.799 L141.531,134.057 L142.51,133.316 L143.475,132.552 L144.438,131.789 L145.386,131.006 L146.336,130.222 L147.27,129.416 L148.203,128.611 L149.118,127.785 L150.032,126.961 L150.929,126.118 L151.827,125.274 L152.707,124.411 L153.585,123.548 L154.444,122.667 L155.301,121.787 L156.139,120.891 L156.978,119.994 L157.795,119.08 L158.612,118.165 L159.406,117.235 L160.198,116.305 L160.969,115.362 L161.741,114.417 L162.489,113.458 L163.236,112.498 L163.958,111.524 L164.678,110.552 L165.374,109.568 L166.071,108.582 L166.741,107.583 L167.411,106.584 L168.052,105.573 L168.692,104.564 L169.305,103.545 L169.92,102.523 L170.504,101.491 L171.088,100.459 L171.641,99.417 L172.193,98.377 L172.716,97.329 L173.24,96.278 L173.73,95.219 L174.221,94.159 L174.678,93.092 L175.133,92.027 L175.557,90.956 L175.981,89.882 L176.37,88.802 L176.759,87.721 L177.111,86.635 L177.462,85.551 L177.778,84.463 L178.095,83.371 L178.374,82.276 L178.652,81.18 L178.891,80.081 L179.128,78.985 L179.329,77.886 L179.53,76.784 L179.689,75.68 L179.849,74.575 L179.965,73.47 L180.081,72.367 L180.157,71.264 L180.233,70.157 L180.265,69.052 L180.296,67.945 L180.282,66.84 L180.267,65.738 L180.211,64.638 L180.154,63.534 L180.049,62.433 L179.944,61.332 L179.79,60.235 L179.638,59.15 L179.448,58.048 L179.235,56.956 L178.997,55.869 L178.736,54.784 L178.448,53.7 L178.134,52.622 L177.797,51.547 L177.432,50.475 L177.041,49.408 L176.626,48.345 L176.183,47.285 L175.712,46.229 L174.872,44.438 L174.011,42.683 L173.13,40.969 L172.231,39.291 L171.313,37.65 L170.376,36.05 L169.422,34.485 L168.448,32.957 L167.458,31.469 L166.451,30.016 L165.425,28.6 L164.384,27.222 L163.327,25.879 L162.252,24.572 L161.161,23.303 L160.057,22.068 L158.935,20.869 L157.799,19.708 L156.649,18.58 L155.484,17.487 L154.305,16.432 L153.113,15.409 L151.906,14.421 L150.687,13.47 L149.457,12.552 L148.211,11.667 L146.956,10.819 L145.689,10.002 L144.408,9.219 L143.118,8.472 L141.819,7.756 L140.506,7.073 L139.186,6.425 L137.856,5.807 L136.514,5.223 L135.166,4.672 L133.809,4.151 L132.442,3.663 L131.069,3.208 L129.689,2.782 L128.3,2.387 L126.905,2.026 L125.504,1.693 L124.095,1.391 L122.682,1.12 L121.264,0.878 L119.839,0.666 L118.41,0.485 L116.977,0.332 L115.538,0.208 L114.097,0.114 L112.652,0.047 L111.203,0.009 L109.752,0 L108.299,0.018 L106.841,0.064 L105.384,0.138 L103.924,0.237 L102.462,0.364 L101,0.519 L99.537,0.698 L98.073,0.905 L96.609,1.138 L95.146,1.395 L93.682,1.679 L92.22,1.988 L90.759,2.321 L89.298,2.681 L87.841,3.065 L86.385,3.472 L84.93,3.905 L83.479,4.361 L82.03,4.84 L80.584,5.343 L79.142,5.869 L77.703,6.417 L76.268,6.989 L74.832,7.585 L73.415,8.208 L71.991,8.834 L70.576,9.504 L69.163,10.175 L67.76,10.889 L66.36,11.603 L64.972,12.355 L63.581,13.109 L62.205,13.905 L60.829,14.701 L59.467,15.537 L58.108,16.373 L56.764,17.245 L55.418,18.119 L54.09,19.031 L52.762,19.945 L51.455,20.899 L50.15,21.851 L48.863,22.838 L47.574,23.826 L46.307,24.85 L45.04,25.875 L43.795,26.935 L42.552,27.993 L41.331,29.084 L40.108,30.175 L38.91,31.3 L37.713,32.426 L36.541,33.584 L35.372,34.741 L34.227,35.927 L33.08,37.114 L31.963,38.332 L30.845,39.551 L29.757,40.8 L28.671,42.047 L27.613,43.32 L26.554,44.596 L25.527,45.899 L24.5,47.203 L23.507,48.534 L22.513,49.863 L21.551,51.216 L20.588,52.57 L19.661,53.95 L18.734,55.331 L17.844,56.736 L16.955,58.14 L16.102,59.565 L15.247,60.992 L14.432,62.442 L13.616,63.893 L12.842,65.365 L12.069,66.836 L11.335,68.326 L10.599,69.818 L9.907,71.33 L9.215,72.843 L8.567,74.375 L7.923,75.9 L7.305,77.449 L6.712,79.003 L6.144,80.565 L5.596,82.135 L5.073,83.715 L4.575,85.301 L4.099,86.895 L3.647,88.497 L3.221,90.106 L2.819,91.721 L2.442,93.345 L2.092,94.974 L1.767,96.61 L1.468,98.253 L1.198,99.901 L0.952,101.555 L0.734,103.215 L0.545,104.88 L0.382,106.549 L0.248,108.225 L0.143,109.904 L0.065,111.588 L0.017,113.277 L0,114.968 L0.01,116.663 L0.052,118.363 L0.124,120.065 L0.225,121.77 L0.358,123.479 L0.524,125.19 L0.719,126.902 L0.946,128.618 L1.206,130.334 L1.496,132.052 L1.821,133.773 L2.179,135.493 L2.568,137.214 L2.993,138.937 L3.452,140.66 L3.943,142.382 L4.47,144.105 L5.032,145.827 L5.628,147.549 L6.26,149.27 L6.928,150.99 L7.631,152.708 L8.371,154.425 L9.148,156.14 L9.959,157.853 L10.81,159.564 L11.698,161.272 L12.622,162.978 L13.585,164.681 L14.584,166.376 L15.128,167.269 L15.669,168.158 L16.214,169.026 L16.761,169.897 L17.855,171.587 L18.958,173.243 L20.068,174.857 L21.184,176.429 L22.307,177.964 L23.436,179.459 L24.572,180.913 L25.713,182.33 L26.861,183.708 L28.015,185.045 L29.175,186.347 L30.341,187.611 L31.513,188.834 L32.69,190.023 L33.874,191.175 L35.063,192.287 L36.257,193.366 L37.458,194.407 L38.663,195.411 L39.874,196.381 L41.09,197.315 L42.311,198.212 L43.537,199.076 L44.768,199.905 L46.004,200.697 L47.244,201.457 L48.49,202.183 L49.739,202.873 L50.992,203.531 L52.251,204.156 L53.513,204.746 L54.778,205.306 L56.049,205.832 L57.322,206.324 L58.598,206.787 L59.88,207.217 L61.163,207.614 L62.449,207.982 L63.74,208.318 L65.032,208.622 L66.327,208.898 L67.626,209.143 L68.926,209.357 L70.227,209.543 L71.533,209.699 L72.839,209.826 L74.146,209.925 L75.457,209.996 L76.768,210.037 L78.081,210.053 L79.396,210.04 L80.711,209.999 L82.027,209.934 L83.345,209.841 L84.663,209.721 L85.982,209.578 L87.302,209.408 L88.622,209.212 L89.942,208.992 L91.264,208.748 L92.585,208.478 L93.906,208.187 L95.228,207.87 L96.554,207.529 L97.869,207.159 L99.19,206.787 L100.512,206.368 L101.833,205.95 L103.153,205.487 L104.471,205.025 L105.788,204.523 L107.107,204.02 L108.425,203.476 L109.741,202.931 L111.057,202.345 L112.37,201.761 L113.682,201.14 L114.995,200.518 L116.306,199.858 L117.616,199.198 L118.924,198.501 L120.23,197.805 L121.534,197.076 L122.839,196.346 L124.14,195.582 L125.441,194.818 L126.739,194.02 L128.035,193.223 L129.327,192.396 L130.621,191.569 L131.91,190.711 L133.199,189.852 L134.483,188.964 L135.766,188.077 L137.045,187.163 L138.324,186.249 L139.598,185.307 L140.871,184.365 L142.139,183.397 L143.407,182.43 L144.668,181.439 L145.93,180.449 L147.186,179.434 L148.442,178.419 L149.69,177.381 L150.938,176.344 L152.18,175.288 L153.422,174.231 L154.657,173.153 L155.891,172.076 L157.118,170.979 L158.344,169.883 L159.563,168.771 L160.782,167.658 L161.992,166.528 L163.202,165.398 L164.404,164.253 L165.605,163.108 L166.797,161.95 L167.99,160.792 L169.173,159.62 L170.356,158.448 L171.53,157.265 L172.702,156.082 L173.865,154.888 L175.029,153.695 L176.182,152.492 L177.334,151.289 L178.476,150.077 L179.617,148.866 L180.748,147.648 L181.879,146.43 L182.999,145.206 L184.118,143.981 L185.225,142.752 L186.331,141.523 L187.427,140.291 L188.522,139.059 L189.605,137.823 L190.687,136.588 L191.756,135.352 L192.825,134.116 L193.882,132.88 L194.938,131.643 L195.981,130.408 L197.024,129.172 L198.052,127.939 L199.08,126.706 L200.094,125.476 L201.109,124.246 L202.109,123.021 L203.108,121.795 L204.092,120.575 L205.076,119.356 L206.045,118.143 L207.015,116.93 L207.968,115.724 L208.921,114.519 L209.858,113.323 L210.794,112.128 L211.715,110.942 L212.636,109.756 L213.54,108.581 L214.443,107.407 L215.329,106.245 L216.215,105.084 L217.084,103.936 L217.954,102.787 L218.804,101.654 L219.655,100.521 L220.488,99.404 L221.319,98.287 L222.134,97.187 L222.948,96.086 L223.743,95.004 L224.538,93.923 L225.313,92.861 L226.087,91.799 L226.844,90.757 L227.6,89.715 L228.336,88.695 L229.071,87.675 L229.786,86.679 L230.5,85.683 L231.195,84.71 L231.89,83.737 L232.563,82.789 L233.236,81.842 L233.886,80.921 L234.536,80.003 C235.021,79.317 234.858,78.369 234.173,77.884 C233.488,77.399 232.539,77.562 232.054,78.247 L231.405,79.166 L230.756,80.084 L230.084,81.029 L229.414,81.973 L228.721,82.944 L228.028,83.915 L227.316,84.908 L226.604,85.901 L225.871,86.917 L225.138,87.934 L224.384,88.972 L223.63,90.011 L222.858,91.069 L222.086,92.127 L221.294,93.205 L220.502,94.283 L219.691,95.379 L218.88,96.476 L218.051,97.589 L217.222,98.701 L216.375,99.83 L215.528,100.958 L214.662,102.102 L213.796,103.246 L212.914,104.403 L212.032,105.56 L211.132,106.729 L210.233,107.898 L209.316,109.079 L208.399,110.26 L207.467,111.451 L206.535,112.641 L205.586,113.841 L204.637,115.04 L203.673,116.247 L202.708,117.455 L201.729,118.669 L200.75,119.882 L199.756,121.102 L198.761,122.321 L197.752,123.544 L196.743,124.768 L195.72,125.995 L194.698,127.222 L193.661,128.45 L192.625,129.679 L191.574,130.908 L190.524,132.138 L189.461,133.367 L188.398,134.596 L187.322,135.823 L186.247,137.051 L185.158,138.275 L184.07,139.5 L182.97,140.722 L181.871,141.943 L180.759,143.159 L179.648,144.374 L178.525,145.584 L177.402,146.794 L176.268,147.997 L175.135,149.199 L173.991,150.393 L172.848,151.587 L171.694,152.771 L170.539,153.956 L169.375,155.13 L168.212,156.304 L167.039,157.465 L165.867,158.627 L164.685,159.775 L163.502,160.923 L162.312,162.058 L161.122,163.193 L159.923,164.312 L158.725,165.43 L157.519,166.532 L156.312,167.634 L155.098,168.719 L153.885,169.804 L152.664,170.87 L151.443,171.935 L150.216,172.98 L148.988,174.025 L147.754,175.05 L146.521,176.075 L145.281,177.077 L144.042,178.078 L142.797,179.056 L141.551,180.034 L140.301,180.989 L139.051,181.943 L137.797,182.871 L136.542,183.799 L135.283,184.698 L134.023,185.599 L132.76,186.473 L131.498,187.346 L130.231,188.19 L128.965,189.033 L127.696,189.845 L126.426,190.657 L125.152,191.44 L123.881,192.222 L122.606,192.971 L121.333,193.719 L120.056,194.433 L118.779,195.147 L117.5,195.828 L116.223,196.509 L114.944,197.152 L113.666,197.795 L112.386,198.4 L111.106,199.006 L109.824,199.575 L108.546,200.144 L107.266,200.672 L105.988,201.201 L104.709,201.687 L103.429,202.174 L102.149,202.623 L100.872,203.07 L99.596,203.473 L98.32,203.877 L97.046,204.235 L95.764,204.596 L94.496,204.922 L93.225,205.225 L91.954,205.505 L90.684,205.764 L89.417,205.998 L88.15,206.208 L86.885,206.395 L85.623,206.557 L84.361,206.694 L83.102,206.808 L81.845,206.896 L80.589,206.958 L79.335,206.996 L78.085,207.007 L76.835,206.991 L75.588,206.951 L74.345,206.883 L73.102,206.788 L71.862,206.667 L70.626,206.518 L69.39,206.341 L68.157,206.137 L66.929,205.904 L65.701,205.642 L64.476,205.353 L63.256,205.034 L62.036,204.684 L60.819,204.307 L59.607,203.899 L58.396,203.46 L57.188,202.991 L55.984,202.492 L54.782,201.959 L53.582,201.397 L52.387,200.803 L51.194,200.175 L50.004,199.517 L48.818,198.825 L47.635,198.098 L46.454,197.34 L45.279,196.548 L44.106,195.72 L42.936,194.859 L41.771,193.964 L40.609,193.031 L39.45,192.065 L38.297,191.063 L37.146,190.023 L36,188.949 L34.859,187.837 L33.721,186.687 L32.587,185.501 L31.459,184.277 L30.335,183.013 L29.215,181.714 L28.101,180.375 L26.991,178.995 L25.886,177.578 L24.787,176.122 L23.693,174.623 L22.604,173.087 L21.521,171.509 L20.443,169.889 L19.368,168.228 L18.837,167.38 L18.304,166.53 L17.774,165.658 L17.247,164.79 L16.271,163.132 L15.338,161.476 L14.443,159.818 L13.582,158.157 L12.76,156.496 L11.974,154.832 L11.222,153.167 L10.507,151.502 L9.829,149.835 L9.183,148.168 L8.573,146.501 L7.999,144.832 L7.456,143.163 L6.949,141.496 L6.475,139.828 L6.033,138.16 L5.625,136.494 L5.251,134.828 L4.906,133.163 L4.595,131.5 L4.316,129.838 L4.067,128.177 L3.85,126.519 L3.665,124.862 L3.509,123.208 L3.383,121.557 L3.289,119.907 L3.222,118.261 L3.186,116.618 L3.179,114.978 L3.199,113.341 L3.249,111.709 L3.328,110.08 L3.433,108.455 L3.566,106.836 L3.727,105.219 L3.914,103.608 L4.127,102.002 L4.369,100.401 L4.635,98.804 L4.927,97.215 L5.246,95.63 L5.588,94.051 L5.956,92.479 L6.35,90.913 L6.766,89.353 L7.207,87.801 L7.674,86.255 L8.163,84.717 L8.675,83.187 L9.212,81.664 L9.77,80.149 L10.35,78.643 L10.952,77.15 L11.589,75.658 L12.222,74.173 L12.9,72.706 L13.577,71.24 L14.297,69.793 L15.018,68.344 L15.776,66.914 L16.533,65.485 L17.331,64.078 L18.128,62.671 L18.964,61.286 L19.801,59.9 L20.673,58.534 L21.543,57.17 L22.45,55.831 L23.357,54.491 L24.299,53.177 L25.241,51.86 L26.216,50.568 L27.19,49.278 L28.197,48.015 L29.204,46.752 L30.242,45.517 L31.282,44.28 L32.348,43.07 L33.414,41.861 L34.509,40.681 L35.603,39.502 L36.725,38.353 L37.849,37.203 L38.997,36.082 L40.143,34.961 L41.314,33.874 L42.485,32.786 L43.681,31.731 L44.877,30.676 L46.095,29.651 L47.311,28.628 L48.548,27.639 L49.785,26.651 L51.043,25.699 L52.302,24.745 L53.578,23.825 L54.852,22.907 L56.143,22.023 L57.433,21.139 L58.74,20.294 L60.048,19.448 L61.37,18.637 L62.691,17.828 L64.025,17.059 L65.36,16.29 L66.707,15.562 L68.056,14.833 L69.415,14.143 L70.773,13.454 L72.14,12.807 L73.508,12.161 L74.885,11.558 L76.269,10.953 L77.646,10.382 L79.031,9.833 L80.421,9.306 L81.813,8.8 L83.207,8.317 L84.604,7.858 L86.002,7.42 L87.401,7.007 L88.803,6.617 L90.205,6.249 L91.607,5.906 L93.011,5.587 L94.414,5.29 L95.815,5.019 L97.218,4.773 L98.62,4.55 L100.019,4.353 L101.418,4.181 L102.815,4.034 L104.209,3.913 L105.602,3.818 L106.992,3.748 L108.378,3.705 L109.762,3.689 L111.143,3.697 L112.518,3.734 L113.891,3.798 L115.26,3.887 L116.622,4.005 L117.981,4.15 L119.335,4.322 L120.682,4.523 L122.024,4.752 L123.361,5.009 L124.69,5.294 L126.014,5.609 L127.332,5.951 L128.64,6.323 L129.943,6.725 L131.239,7.155 L132.524,7.616 L133.804,8.108 L135.075,8.628 L136.336,9.179 L137.59,9.763 L138.835,10.375 L140.069,11.018 L141.295,11.695 L142.512,12.401 L143.717,13.139 L144.913,13.912 L146.098,14.714 L147.271,15.549 L148.435,16.419 L149.588,17.32 L150.727,18.254 L151.855,19.224 L152.973,20.226 L154.076,21.261 L155.167,22.334 L156.246,23.439 L157.31,24.578 L158.362,25.756 L159.4,26.966 L160.423,28.212 L161.433,29.497 L162.428,30.815 L163.407,32.17 L164.371,33.564 L165.32,34.993 L166.252,36.459 L167.168,37.965 L168.069,39.506 L168.951,41.085 L169.816,42.705 L170.665,44.361 L171.495,46.056 L172.308,47.795 L172.742,48.77 L173.15,49.749 L173.534,50.733 L173.895,51.722 L174.23,52.712 L174.542,53.707 L174.831,54.705 L175.095,55.705 L175.337,56.709 L175.556,57.717 L175.752,58.725 L175.924,59.728 L176.066,60.756 L176.208,61.77 L176.304,62.789 L176.401,63.808 L176.452,64.83 L176.504,65.857 L176.516,66.887 L176.528,67.913 L176.497,68.941 L176.466,69.97 L176.392,71.001 L176.319,72.036 L176.208,73.071 L176.097,74.103 L175.946,75.136 L175.795,76.169 L175.604,77.202 L175.413,78.239 L175.186,79.274 L174.96,80.307 L174.695,81.337 L174.431,82.369 L174.129,83.398 L173.827,84.43 L173.491,85.459 L173.157,86.485 L172.786,87.508 L172.416,88.531 L172.011,89.549 L171.605,90.57 L171.167,91.586 L170.731,92.6 L170.262,93.608 L169.792,94.616 L169.291,95.617 L168.788,96.62 L168.257,97.617 L167.727,98.611 L167.166,99.597 L166.605,100.583 L166.014,101.56 L165.422,102.539 L164.804,103.509 L164.188,104.477 L163.543,105.434 L162.898,106.392 L162.226,107.337 L161.553,108.285 L160.856,109.221 L160.16,110.157 L159.439,111.078 L158.718,112 L157.973,112.908 L157.226,113.818 L156.458,114.715 L155.691,115.61 L154.902,116.489 L154.113,117.369 L153.302,118.233 L152.489,119.098 L151.658,119.948 L150.828,120.796 L149.978,121.627 L149.128,122.458 L148.26,123.27 L147.39,124.084 L146.503,124.881 L145.618,125.676 L144.716,126.451 L143.814,127.226 L142.895,127.981 L141.975,128.737 L141.042,129.473 L140.11,130.209 L139.163,130.922 L138.216,131.635 L137.256,132.326 L136.295,133.017 L135.322,133.687 L134.351,134.356 L133.368,135.001 L132.385,135.645 L131.392,136.265 L130.397,136.885 L129.393,137.483 L128.391,138.079 L127.38,138.648 L126.369,139.218 L125.351,139.76 L124.33,140.303 L123.303,140.821 L122.279,141.338 L121.248,141.826 L120.218,142.315 L119.182,142.773 L118.145,143.233 L117.103,143.665 L116.065,144.097 L115.022,144.497 L113.98,144.898 L112.936,145.267 L111.89,145.637 L110.842,145.977 L109.797,146.317 L108.752,146.624 L107.707,146.931 L106.662,147.204 L105.615,147.479 L104.57,147.721 L103.527,147.964 L102.487,148.171 L101.447,148.379 L100.41,148.55 L99.371,148.723 L98.336,148.862 L97.304,149.002 L96.277,149.104 L95.251,149.207 L94.23,149.272 L93.207,149.337 L92.189,149.368 L91.176,149.399 L90.17,149.39 L89.165,149.383 L88.168,149.335 L87.169,149.288 L86.178,149.204 L85.19,149.122 L84.213,148.997 L83.237,148.874 L82.271,148.71 L81.292,148.543 L80.344,148.352 L79.393,148.138 L78.447,147.903 L77.506,147.648 L76.575,147.373 L75.648,147.076 L74.729,146.758 L73.818,146.42 L72.913,146.058 L72.014,145.677 L71.126,145.273 L70.243,144.847 L69.368,144.399 L68.503,143.929 L67.644,143.435 L66.793,142.92 L65.953,142.382 L65.12,141.819 L64.295,141.234 L63.481,140.626 L62.674,139.992 L61.877,139.335 L61.09,138.655 L60.312,137.948 L59.543,137.218 L58.785,136.464 L58.037,135.682 L57.299,134.876 L56.572,134.045 L55.855,133.185 L55.149,132.301 L54.456,131.391 L53.772,130.452 L53.1,129.488 L52.441,128.498 L51.794,127.477 L51.158,126.431 L50.536,125.357 L49.926,124.253 L49.328,123.122 L48.745,121.964 L48.175,120.774 L47.618,119.557 L47.076,118.312 L46.548,117.034 L46.033,115.729 L45.534,114.395 L45.051,113.029 L44.49,111.368 L43.963,109.724 L43.468,108.093 L43.002,106.475 L42.568,104.874 L42.165,103.286 L41.791,101.712 L41.448,100.155 L41.135,98.61 L40.849,97.08 L40.594,95.565 L40.368,94.064 L40.169,92.577 L40,91.106 L39.858,89.648 L39.742,88.204 L39.655,86.776 L39.595,85.362 L39.56,83.961 L39.552,82.576 L39.57,81.205 L39.613,79.847 L39.682,78.506 L39.776,77.177 L39.894,75.862 L40.036,74.564 L40.204,73.278 L40.394,72.006 L40.608,70.75 L40.846,69.507 L41.106,68.277 L41.388,67.063 L41.694,65.862 L42.021,64.674 L42.369,63.503 L42.74,62.344 L43.13,61.198 L43.542,60.068 L43.976,58.951 L44.428,57.847 L44.901,56.759 L45.395,55.683 L45.908,54.621 L46.439,53.574 L46.991,52.54 L47.561,51.518 L48.148,50.513 L48.751,49.528 L49.39,48.545 L50.021,47.572 L50.689,46.629 L51.356,45.685 L52.059,44.77 L52.764,43.851 L53.499,42.959 L54.232,42.068 L54.999,41.207 L55.765,40.345 L56.562,39.513 L57.362,38.677 L58.19,37.868 L59.016,37.06 L59.871,36.282 L60.726,35.502 L61.609,34.753 L62.495,34 L63.406,33.275 L64.314,32.55 L65.248,31.855 L66.182,31.159 L67.141,30.493 L68.103,29.825 L69.086,29.183 L70.067,28.543 L71.071,27.932 L72.074,27.321 L73.099,26.739 L74.127,26.156 L75.173,25.599 L76.216,25.044 L77.279,24.518 L78.342,23.992 L79.422,23.496 L80.505,22.998 L81.604,22.528 L82.7,22.059 L83.811,21.619 L84.923,21.179 L86.049,20.77 L87.177,20.359 L88.317,19.975 L89.456,19.592 L90.605,19.24 L91.755,18.887 L92.916,18.565 L94.079,18.241 L95.251,17.946 L96.42,17.65 L97.598,17.385 L98.776,17.12 L99.961,16.886 L101.148,16.65 L102.341,16.443 L103.531,16.236 L104.726,16.06 L105.921,15.883 L107.119,15.737 L108.32,15.591 L109.522,15.472 L110.723,15.354 L111.924,15.266 L113.126,15.179 L114.327,15.122 L115.531,15.065 L116.733,15.036 L117.933,15.007 L119.13,15.009 L120.327,15.01 L121.521,15.043 L122.716,15.076 L123.908,15.137 L125.096,15.197 L126.279,15.289 L127.461,15.38 L128.636,15.503 L129.813,15.626 L130.982,15.777 L132.149,15.927 L133.306,16.109 L134.463,16.29 L135.608,16.503 L136.756,16.716 L137.893,16.957 L139.027,17.198 L140.148,17.47 L141.269,17.741 L142.374,18.044 L143.483,18.347 L144.577,18.679 L145.667,19.009 L146.741,19.371 L147.815,19.733 L148.871,20.126 L149.929,20.519 L150.969,20.942 L152.007,21.362 L153.024,21.814 L154.04,22.265 L155.035,22.748 L156.032,23.232 L157.009,23.744 L157.983,24.254 L158.933,24.796 L159.882,25.337 L160.806,25.91 L161.733,26.484 L162.636,27.086 L163.536,27.686 L164.409,28.317 L165.281,28.948 L166.125,29.61 L166.979,30.28 L167.797,30.958 L168.605,31.656 L169.399,32.371 L170.18,33.1 L170.943,33.843 L171.691,34.603 L172.424,35.377 L173.139,36.165 L173.839,36.97 L174.523,37.789 L175.188,38.622 L175.837,39.473 L176.469,40.337 L177.082,41.216 L177.678,42.112 L178.256,43.023 L178.815,43.947 L179.355,44.89 L179.878,45.847 L180.379,46.818 L180.862,47.807 L181.326,48.811 L181.769,49.828 L182.192,50.865 L182.595,51.916 L182.976,52.981 L183.337,54.065 L183.677,55.165 L183.994,56.278 L184.285,57.395 L184.505,58.385 L184.668,59.387 L184.78,60.429 L184.845,61.501 L184.858,62.6 L184.82,63.734 L184.735,64.897 L184.6,66.084 L184.413,67.302 L184.182,68.545 L183.901,69.809 L183.571,71.1 L183.197,72.411 L182.777,73.74 L182.308,75.091 L181.799,76.459 L181.244,77.842 L180.646,79.242 L180.007,80.656 L179.327,82.08 L178.604,83.519 L177.845,84.967 L177.046,86.423 L176.209,87.889 L175.336,89.361 L174.428,90.838 L173.482,92.322 L172.506,93.808 L171.495,95.296 L170.451,96.786 L169.378,98.277 L168.275,99.766 L167.14,101.254 L165.979,102.739 L164.791,104.219 L163.574,105.694 L162.334,107.164 L161.068,108.626 L159.778,110.079 L158.466,111.524 L157.132,112.958 L155.777,114.38 L154.403,115.791 L153.007,117.19 L152.304,117.877 L151.597,118.568 L150.883,119.252 L150.169,119.936 L149.448,120.61 L148.726,121.285 L147.996,121.95 L147.268,122.614 L145.792,123.931 L144.306,125.224 L142.806,126.497 L141.296,127.749 L139.776,128.977 L138.245,130.181 L136.707,131.362 L135.162,132.515 L133.61,133.641 L132.052,134.741 L130.491,135.811 L128.925,136.85 L127.356,137.86 L125.788,138.836 L124.218,139.779 L122.648,140.691 L121.081,141.565 L119.516,142.403 L117.953,143.206 L116.397,143.969 L114.846,144.693 L113.301,145.379 L111.765,146.022 L110.237,146.623 L108.718,147.184 L107.213,147.699 L105.717,148.168 L104.235,148.595 L102.769,148.974 L101.317,149.305 L99.88,149.591 L98.464,149.826 L97.065,150.01 L95.683,150.148 L94.327,150.233 L92.989,150.265 L91.672,150.249 L90.384,150.178 L89.116,150.053 L87.871,149.878 L86.656,149.647 L85.464,149.359 L84.295,149.02 L83.159,148.624 L82.044,148.168 L80.954,147.657 L79.896,147.088 L78.861,146.454 L77.562,145.573 L76.322,144.642 L75.131,143.658 L73.988,142.629 L72.899,141.555 L71.858,140.43 L70.862,139.264 L69.919,138.056 L69.022,136.802 L68.17,135.51 L67.368,134.18 L66.612,132.808 L65.899,131.402 L65.236,129.964 L64.618,128.487 L64.043,126.98 L63.515,125.446 L63.033,123.878 L62.592,122.285 L62.198,120.669 L61.849,119.025 L61.541,117.36 L61.278,115.677 L61.059,113.972 L60.88,112.25 L60.745,110.516 L60.653,108.765 L60.6,107.002 L60.589,105.232 L60.621,103.451 L60.69,101.663 L60.801,99.872 L60.953,98.076 L61.141,96.279 L61.369,94.484 L61.636,92.688 L61.939,90.897 L62.281,89.113 L62.66,87.334 L63.073,85.564 L63.524,83.807 L64.011,82.06 L64.53,80.327 L65.085,78.612 L65.675,76.913 L66.296,75.233 L66.95,73.576 L67.639,71.94 L68.357,70.328 L69.106,68.744 L69.888,67.187 L70.698,65.658 L71.537,64.163 L72.407,62.701 L73.303,61.27 L74.227,59.88 L75.18,58.526 L76.157,57.21 L77.159,55.939 L78.189,54.709 L79.242,53.522 L80.317,52.384 L81.418,51.293 L82.539,50.248 L83.681,49.258 L84.847,48.32 L86.032,47.431 L87.233,46.602 L88.459,45.828 L89.701,45.108 L90.958,44.451 L92.237,43.854 L93.533,43.314 L94.841,42.84 L96.172,42.431 L97.518,42.081 L98.876,41.801 L100.257,41.59 L101.654,41.442 L103.064,41.368 L104.497,41.367 L105.946,41.435 L107.409,41.58 L108.897,41.806 L110.402,42.105 L111.921,42.487 L113.487,42.963 L114.242,43.22 L115.023,43.506 L115.811,43.815 L116.603,44.145 L117.397,44.497 L118.198,44.874 L119.004,45.272 L119.812,45.693 L120.626,46.139 L121.445,46.608 L122.266,47.1 L123.093,47.619 L123.923,48.16 L124.757,48.726 L125.596,49.319 L126.438,49.936 L127.283,50.578 L128.122,51.238 L128.863,51.858 L129.553,52.496 L130.213,53.166 L130.843,53.864 L131.437,54.587 L132.001,55.342 L132.537,56.123 L133.039,56.927 L133.512,57.763 L133.957,58.622 L134.369,59.504 L134.752,60.414 L135.108,61.347 L135.433,62.3 L135.729,63.279 L135.997,64.278 L136.235,65.295 L136.444,66.335 L136.626,67.393 L136.78,68.466 L136.904,69.558 L137.002,70.666 L137.072,71.785 L137.113,72.922 L137.129,74.07 L137.118,75.228 L137.079,76.399 L137.015,77.579 L136.925,78.765 L136.809,79.962 L136.668,81.164 L136.502,82.37 L136.311,83.583 L136.097,84.799 L135.858,86.015 L135.597,87.225 L135.299,88.456 L135.005,89.674 L134.663,90.888 L134.323,92.103 L133.937,93.309 L133.551,94.52 L133.125,95.719 L132.701,96.915 L132.235,98.096 L131.77,99.276 L131.265,100.437 L130.756,101.608 L130.228,102.746 L129.679,103.877 L129.112,104.996 L128.529,106.101 L127.929,107.189 L127.312,108.26 L126.681,109.316 L126.034,110.35 L125.372,111.366 L124.697,112.362 L124.008,113.335 L123.305,114.286 L122.59,115.215 L121.864,116.118 L121.124,116.995 L120.374,117.848 L119.615,118.671 L118.843,119.467 L118.063,120.236 L117.276,120.971 L116.478,121.677 L115.672,122.353 L114.862,122.993 L114.043,123.601 L113.218,124.176 L112.39,124.714 L111.554,125.216 L110.715,125.685 L109.875,126.113 L109.029,126.504 L108.18,126.859 L107.332,127.173 L106.479,127.448 L105.624,127.686 L104.772,127.88 L103.914,128.034 L103.055,128.15 L102.199,128.221 L101.337,128.25 L100.473,128.238 L99.612,128.181 L98.742,128.078 L97.87,127.932 L97,127.739 L96.121,127.495 L95.238,127.205 L94.355,126.864 L93.447,126.461 L92.686,126.093 L91.934,125.708 L91.202,125.312 L90.49,124.907 L89.802,124.494 L89.155,124.083 L87.855,123.196 L86.663,122.29 L85.549,121.346 L84.506,120.373 L83.544,119.373 L82.653,118.338 L81.828,117.276 L81.078,116.19 L80.394,115.071 L79.77,113.928 L79.215,112.763 L78.723,111.566 L78.288,110.347 L77.917,109.108 L77.606,107.841 L77.349,106.553 L77.153,105.248 L77.015,103.917 L76.929,102.57 L76.902,101.208 L76.933,99.826 L77.014,98.431 L77.149,97.026 L77.338,95.606 L77.574,94.176 L77.861,92.742 L78.2,91.298 L78.583,89.849 L79.014,88.399 L79.493,86.945 L80.014,85.491 L80.578,84.041 L81.188,82.592 L81.836,81.148 L82.524,79.713 L83.253,78.283 L84.018,76.863 L84.819,75.457 L85.657,74.062 L86.528,72.68 L87.43,71.317 L88.366,69.971 L89.331,68.642 L90.324,67.337 L91.346,66.053 L92.393,64.791 L93.465,63.557 L94.562,62.349 L95.68,61.169 L96.818,60.021 L97.978,58.903 L99.155,57.817 L100.347,56.769 L101.557,55.755 L102.781,54.778 L104.016,53.842 L105.264,52.946 L106.522,52.09 L107.785,51.28 L109.059,50.515 L110.338,49.793 L111.617,49.122 L112.903,48.5 L114.189,47.925 L115.472,47.404 L116.756,46.936 L118.036,46.519 L119.308,46.159 L120.577,45.856 L121.84,45.606 L123.088,45.416 L124.331,45.285 L125.563,45.209 L126.778,45.196 L127.985,45.246 L129.18,45.353 L130.355,45.525 L131.521,45.764 L132.675,46.063 L133.807,46.43 L134.931,46.869 L136.041,47.373 L137.131,47.949 L138.211,48.605 L139.278,49.332 L140.323,50.137 L141.381,51.05 L141.869,51.505 L142.373,52.001 L142.875,52.521 L143.372,53.062 L143.863,53.623 L144.35,54.209 L144.832,54.817 L145.308,55.447 L145.779,56.103 L146.244,56.781 L146.702,57.481 L147.146,58.193 L147.308,58.483 L147.451,58.792 L147.587,59.153 L147.713,59.554 L147.822,59.993 L147.917,60.478 L147.996,61.001 L148.055,61.557 L148.094,62.153 L148.115,62.782 L148.114,63.439 L148.092,64.131 L148.05,64.85 L147.987,65.594 L147.902,66.366 L147.798,67.162 L147.673,67.979 L147.53,68.798 L147.176,70.558 L146.742,72.378 L146.49,73.299 L146.234,74.238 L145.944,75.2 L145.654,76.16 L145.327,77.142 L145,78.124 L144.638,79.124 L144.274,80.127 L143.88,81.142 L143.486,82.154 L143.06,83.176 L142.633,84.198 L142.175,85.224 L141.716,86.253 L141.229,87.282 L140.744,88.309 L140.23,89.333 L139.716,90.356 L139.175,91.372 L138.633,92.39 L138.067,93.398 L137.503,94.402 L136.914,95.392 L136.326,96.38 L135.714,97.349 L135.102,98.32 L134.47,99.269 L133.841,100.214 L133.19,101.133 L132.542,102.05 L131.874,102.935 L131.2,103.83 L130.527,104.684 L129.842,105.524 L129.148,106.346 L128.449,107.148 L127.744,107.925 L127.033,108.681 L126.317,109.415 L125.599,110.121 L124.874,110.802 L124.147,111.458 L123.418,112.084 L122.686,112.682 L121.951,113.252 L121.219,113.789 L120.483,114.296 L119.748,114.773 L119.018,115.214 L118.285,115.623 L117.555,116 L116.831,116.34 L116.107,116.645 L115.387,116.917 L114.677,117.15 L113.966,117.348 L113.26,117.512 L112.565,117.637 L111.869,117.725 L111.178,117.779 L110.497,117.795 L109.813,117.772 L109.132,117.713 L108.459,117.615 L107.78,117.475 L107.1,117.297 L106.426,117.077 L105.742,116.81 L105.056,116.5 L104.372,116.143 L103.679,115.733 L102.983,115.274 L102.287,114.764 L101.585,114.194 L101.014,113.685 L100.483,113.152 L99.977,112.585 L99.498,111.99 L99.052,111.37 L98.631,110.716 L98.236,110.034 L97.871,109.329 L97.533,108.589 L97.219,107.823 L96.936,107.035 L96.679,106.215 L96.447,105.371 L96.244,104.506 L96.069,103.613 L95.919,102.699 L95.798,101.767 L95.703,100.81 L95.634,99.836 L95.593,98.847 L95.578,97.838 L95.588,96.814 L95.625,95.778 L95.687,94.727 L95.774,93.664 L95.885,92.593 L96.022,91.51 L96.182,90.419 L96.366,89.323 L96.572,88.23 L96.814,87.107 L97.053,85.998 L97.338,84.886 L97.622,83.772 L97.95,82.659 L98.278,81.542 L98.645,80.429 L99.01,79.32 L99.414,78.221 L99.818,77.121 L100.26,76.035 L100.702,74.946 L101.177,73.873 L101.65,72.805 L102.156,71.759 L102.662,70.713 L103.199,69.696 L103.742,68.665 L104.293,67.677 L104.863,66.698 L105.447,65.737 L106.042,64.793 L106.647,63.871 L107.265,62.97 L107.892,62.09 L108.528,61.237 L109.175,60.406 L109.829,59.6 L110.489,58.823 L111.158,58.074 L111.833,57.351 L112.511,56.661 L113.196,56.002 L113.884,55.372 L114.573,54.779 L115.266,54.218 L115.96,53.69 L116.652,53.202 L117.345,52.748 L118.037,52.33 L118.722,51.952 L119.408,51.612 L120.09,51.308 L120.761,51.046 L121.431,50.823 L122.096,50.636 L122.747,50.491 L123.398,50.385 L124.043,50.315 L124.675,50.286 L125.309,50.297 L125.94,50.345 L126.561,50.433 L127.188,50.566 L127.815,50.738 L128.437,50.954 L129.069,51.221 L129.704,51.533 L130.337,51.895 L130.98,52.316 L131.627,52.789 L132.273,53.318 L132.926,53.914 L133.582,54.569 L134.235,55.285 L134.9,56.086 L135.142,56.405 L135.367,56.736 L135.575,57.081 L135.765,57.433 L135.934,57.788 L136.086,58.159 L136.223,58.54 L136.34,58.926 L136.441,59.328 L136.527,59.742 L136.594,60.163 L136.641,60.551 L136.7,61.51 L136.684,62.457 L136.598,63.457 L136.449,64.495 L136.232,65.563 L135.948,66.671 L135.605,67.805 L135.201,68.959 L134.738,70.138 L134.223,71.332 L133.658,72.536 L133.043,73.751 L132.386,74.972 L131.69,76.192 L130.955,77.413 L130.188,78.63 L129.393,79.837 L128.569,81.035 L127.725,82.221 L126.864,83.387 L125.986,84.535 L125.097,85.662 L124.203,86.761 L123.304,87.832 L122.405,88.874 L121.511,89.88 L120.625,90.849 L119.75,91.78 L118.892,92.666 L118.053,93.507 L117.236,94.301 L116.449,95.041 L115.695,95.726 L114.975,96.357 L114.301,96.921 L113.673,97.421 L113.098,97.854 L112.592,98.209 L112.132,98.501 L111.977,98.591 L111.826,98.673 L111.703,98.734 L111.617,98.772 L111.586,98.783 L111.631,98.771 L111.315,98.842 L111.053,98.883 L110.807,98.904 L110.582,98.909 L110.386,98.899 L110.198,98.875 L110.024,98.84 L109.869,98.796 L109.712,98.737 L109.559,98.667 L109.415,98.587 L109.263,98.486 L109.108,98.369 L108.958,98.237 L108.799,98.078 L108.637,97.898 L108.48,97.699 L108.352,97.522 L107.998,96.945 L107.696,96.332 L107.412,95.618 L107.15,94.824 L106.921,93.957 L106.724,93.01 L106.56,92.002 L106.433,90.939 L106.344,89.819 L106.289,88.656 L106.273,87.456 L106.295,86.217 L106.352,84.952 L106.447,83.666 L106.58,82.36 L106.746,81.043 L106.948,79.721 L107.186,78.396 L107.456,77.074 L107.76,75.765 L108.099,74.468 L108.466,73.19 L108.865,71.941 L109.295,70.719 L109.752,69.531 L110.236,68.389 L110.748,67.291 L111.282,66.242 L111.837,65.256 L112.415,64.329 L113.009,63.466 L113.614,62.683 L114.262,61.944 L114.547,61.647 L114.858,61.344 L115.173,61.061 L115.487,60.796 L115.797,60.557 L116.111,60.337 L116.422,60.137 L116.727,59.961 L117.036,59.803 L117.343,59.665 L117.642,59.549 L117.958,59.447 L118.653,59.25 L119.328,59.073 L119.976,58.918 L120.598,58.784 L121.188,58.671 L121.753,58.58 L122.29,58.506 L122.795,58.453 L123.274,58.419 L123.725,58.4 L124.143,58.399 L124.535,58.414 L124.9,58.442 L125.23,58.483 L125.536,58.536 L125.816,58.598 L126.063,58.668 L126.289,58.746 L126.492,58.83 L126.666,58.915 L126.826,59.008 L126.971,59.104 L127.093,59.198 L127.147,59.242 L127.42,59.532 L127.593,59.787 L127.754,60.112 L127.897,60.501 L128.007,60.953 L128.083,61.496 L128.122,62.109 L128.114,62.785 L128.055,63.535 L127.95,64.342 L127.793,65.197 L127.584,66.109 L127.328,67.062 L127.024,68.051 L126.672,69.081 L126.277,70.14 L125.84,71.225 L125.359,72.338 L124.842,73.471 L124.288,74.621 L123.698,75.787 L123.076,76.965 L122.425,78.151 L121.747,79.336 L121.024,80.542 L120.306,81.738 L119.543,82.929 L118.78,84.121 L117.981,85.295 L117.175,86.48 L116.359,87.632 L115.527,88.774 L114.685,89.898 L113.837,91.002 L112.984,92.08 L112.127,93.131 L111.271,94.156 L110.417,95.146 L109.565,96.102 L108.721,97.023 L107.886,97.9 L107.062,98.735 L106.251,99.527 L105.46,100.267 L104.687,100.955 L103.936,101.592 L103.215,102.168 L102.524,102.683 L101.866,103.138 L101.256,103.522 L100.69,103.837 L100.18,104.086 L99.748,104.259 L99.328,104.383 L99.245,104.399 L99.134,104.417 L99.043,104.425 L98.98,104.427 L98.955,104.426 L98.946,104.424 L98.958,104.428 L99,104.442 L99.039,104.46 L99.079,104.484 L99.123,104.517 L99.145,104.537 L99.152,104.545 L99.15,104.541 L99.126,104.502 L99.092,104.433 L99.052,104.337 L99.006,104.197 L98.958,104.021 L98.914,103.814 L98.874,103.563 L98.841,103.277 L98.817,102.961 L98.804,102.603 L98.802,102.213 L98.812,101.793 L98.837,101.334 L98.875,100.845 L98.928,100.325 L98.997,99.769 L99.081,99.183 L99.181,98.566 L99.299,97.915 L99.433,97.233 L99.584,96.52 L99.754,95.773 L99.94,94.995 L100.145,94.186 L100.369,93.343 L100.611,92.468 L100.872,91.562 L101.153,90.62 L101.452,89.648 L101.771,88.642 L102.112,87.601 L102.471,86.529 L102.851,85.422 L103.253,84.28 L103.675,83.105 L104.118,81.895 L104.584,80.649 L105.07,79.37 L105.578,78.055 L106.11,76.702 L106.663,75.316 L107.239,73.893 L107.839,72.431 L108.461,70.936 L109.106,69.402 L109.779,67.825 C110.359,66.463 109.726,64.889 108.365,64.308 C107.003,63.728 105.429,64.361 104.848,65.723 Z" id="Fill-305"></path>
        </g>
    </g>
</svg>
