<?xml version="1.0" encoding="UTF-8"?>
<svg width="133px" height="154px" viewBox="0 0 133 154" version="1.1" xmlns="http://www.w3.org/2000/svg" xmlns:xlink="http://www.w3.org/1999/xlink">
    <title>153</title>
    <g id="Page-1" stroke="none" stroke-width="1" fill="none" fill-rule="evenodd">
        <g id="153" transform="translate(0.570611, 0.206500)" fill="currentColor">
            <path d="M73.414,63.8826 L73.387,62.7704 L73.337,61.6755 L73.263,60.6279 L73.169,59.6193 L73.051,58.6498 L72.91,57.725 L72.748,56.8362 L72.562,55.9821 L72.352,55.1702 L72.12,54.3913 L71.86,53.6431 L71.576,52.9356 L71.265,52.2592 L70.923,51.6113 L70.555,51.0047 L70.157,50.4305 L69.722,49.887 L69.261,49.3895 L68.771,48.9302 L68.243,48.5092 L67.695,48.1412 L67.124,47.8188 L66.524,47.5427 L65.918,47.3218 L65.302,47.1481 L64.668,47.0218 L64.04,46.9443 L63.411,46.908 L62.774,46.9134 L62.147,46.9576 L61.523,47.0351 L60.894,47.1474 L60.274,47.2901 L59.657,47.4598 L59.036,47.6589 L58.421,47.8827 L57.808,48.1293 L57.191,48.4014 L56.578,48.6947 L55.966,49.0079 L55.35,49.3434 L54.714,49.7117 L53.511,50.4576 L52.278,51.2922 L51.049,52.1896 L49.82,53.1418 L48.59,54.1509 L47.368,55.2073 L46.151,56.3036 L44.941,57.4405 L43.744,58.6086 L42.56,59.8018 L41.392,61.019 L40.246,62.2513 L39.12,63.4937 L38.019,64.7436 L36.948,65.9922 L35.906,67.2361 L34.898,68.4708 L33.929,69.6878 L32.998,70.8853 L32.11,72.0573 L31.271,73.1956 L30.477,74.3 L29.735,75.3636 L29.051,76.3783 L28.42,77.3465 L27.849,78.2618 L27.336,79.127 L26.801,80.101 L26.318,81.0823 L25.898,82.0506 L25.534,83.0123 L25.229,83.9727 L24.988,84.9187 L24.803,85.8578 L24.679,86.7953 L24.619,87.7145 L24.616,88.6229 L24.677,89.5253 L24.798,90.4026 L24.976,91.2623 L25.215,92.1087 L25.51,92.9227 L25.854,93.7123 L26.255,94.4817 L26.702,95.215 L27.19,95.9207 L27.728,96.6022 L28.301,97.2483 L28.91,97.8669 L29.561,98.4607 L30.241,99.0221 L30.952,99.5579 L31.697,100.0697 L32.469,100.5524 L33.266,101.0115 L34.095,101.4478 L34.946,101.8577 L35.82,102.2458 L36.722,102.6117 L37.643,102.9534 L38.585,103.2742 L39.552,103.5737 L40.535,103.85 L41.537,104.1062 L42.56,104.3414 L43.598,104.5542 L44.651,104.7475 L45.722,104.9197 L46.806,105.0702 L47.903,105.2012 L49.015,105.3112 L50.136,105.3997 L51.268,105.4688 L52.412,105.5166 L53.574,105.5434 L54.722,105.5411 L55.885,105.538 L57.061,105.493 L58.237,105.4471 L59.421,105.3589 L60.601,105.2702 L61.785,105.143 L62.973,105.0145 L64.161,104.8432 L65.349,104.6709 L66.534,104.4555 L67.714,104.2399 L68.886,103.9849 L70.064,103.7278 L71.229,103.427 L72.396,103.1247 L73.545,102.7779 L74.678,102.4347 L75.823,102.0524 L76.948,101.6498 L78.058,101.2248 L79.157,100.7781 L80.244,100.3067 L81.312,99.8124 L82.366,99.2959 L83.406,98.7536 L84.423,98.1882 L85.423,97.5998 L86.406,96.9845 L87.363,96.3458 L88.299,95.6833 L89.214,94.9927 L90.1,94.2782 L90.962,93.5394 L91.799,92.7709 L92.603,91.9784 L93.379,91.1609 L94.126,90.3127 L94.836,89.4404 L95.514,88.5428 L96.159,87.6135 L96.762,86.6607 L97.328,85.6827 L97.856,84.6728 L98.339,83.6404 L98.781,82.5837 L99.179,81.4954 L99.525,80.3959 L99.749,79.5657 L99.929,78.7432 L100.065,77.9314 L100.162,77.1248 L100.217,76.3187 L100.231,75.5262 L100.206,74.7414 L100.14,73.9598 L100.035,73.1951 L99.894,72.441 L99.714,71.6934 L99.498,70.965 L99.249,70.2498 L98.964,69.5437 L98.648,68.8581 L98.303,68.1869 L97.925,67.5267 L97.521,66.8866 L97.091,66.2613 L96.632,65.6476 L96.15,65.0531 L95.646,64.4728 L95.116,63.9043 L94.566,63.3536 L93.996,62.8162 L93.403,62.2906 L92.793,61.7812 L92.166,61.2843 L91.518,60.799 L90.83,60.3122 L89.482,59.4239 L88.042,58.5661 L86.549,57.7598 L85.008,56.9974 L83.416,56.2801 L81.785,55.6108 L80.119,54.9833 L78.418,54.4001 L76.692,53.863 L74.945,53.3667 L73.176,52.9144 L71.398,52.5075 L69.612,52.1419 L67.82,51.8206 L66.033,51.5445 L64.251,51.3094 L62.478,51.1188 L60.725,50.974 L58.991,50.8705 L57.279,50.8128 L55.602,50.8013 L53.957,50.8324 L52.347,50.9109 L50.786,51.0372 L49.269,51.2079 L47.799,51.4295 L46.391,51.7018 L45.036,52.0236 L43.738,52.4037 L42.55,52.8283 L41.924,53.0835 L41.349,53.3439 L40.796,53.6204 L40.26,53.9147 L39.738,54.232 L39.227,54.5793 L38.333,55.2474 L37.454,55.9717 L36.617,56.7319 L35.814,57.5264 L35.043,58.3608 L34.312,59.2258 L33.614,60.1207 L32.948,61.0508 L32.321,62.007 L31.725,62.9891 L31.161,64.0022 L30.633,65.0375 L30.136,66.0951 L29.669,67.18 L29.237,68.2837 L28.833,69.4067 L28.459,70.5531 L28.118,71.7156 L27.804,72.8946 L27.52,74.0938 L27.267,75.3062 L27.04,76.5322 L26.841,77.7751 L26.671,79.0284 L26.527,80.2927 L26.41,81.5708 L26.321,82.8566 L26.257,84.1509 L26.22,85.4559 L26.209,86.7658 L26.222,88.0815 L26.261,89.405 L26.326,90.7305 L26.414,92.0593 L26.528,93.3926 L26.667,94.7254 L26.828,96.0586 L27.014,97.3935 L27.226,98.7247 L27.46,100.0535 L27.718,101.381 L28.002,102.7117 L28.313,104.0132 L28.627,105.3283 L28.987,106.6288 L29.348,107.9294 L29.754,109.2109 L30.156,110.4789 L30.596,111.7531 L31.055,113.0074 L31.536,114.2461 L32.036,115.472 L32.56,116.6844 L33.104,117.8785 L33.668,119.0567 L34.254,120.2188 L34.86,121.3593 L35.486,122.4811 L36.134,123.5837 L36.802,124.6615 L37.489,125.7181 L38.198,126.7522 L38.927,127.7586 L39.674,128.7406 L40.444,129.6973 L41.233,130.6227 L42.04,131.5209 L42.871,132.3904 L43.719,133.2251 L44.586,134.0295 L45.477,134.8014 L46.384,135.5351 L47.311,136.2347 L48.261,136.8981 L49.228,137.5193 L50.213,138.1028 L51.221,138.6456 L52.245,139.1421 L53.287,139.5968 L54.351,140.0071 L55.429,140.3696 L56.523,140.6863 L57.639,140.9529 L58.766,141.1656 L59.909,141.3288 L61.071,141.4371 L62.242,141.4883 L63.425,141.487 L64.626,141.4268 L65.833,141.3075 L67.049,141.1331 L68.281,140.8968 L69.517,140.5997 L70.761,140.2455 L72.017,139.8272 L73.275,139.3471 L75.024,138.6161 L76.739,137.8438 L78.415,137.0331 L80.059,136.1875 L81.67,135.3033 L83.241,134.3837 L84.78,133.4316 L86.285,132.4432 L87.751,131.4224 L89.183,130.3718 L90.58,129.2874 L91.939,128.1739 L93.263,127.033 L94.552,125.8613 L95.802,124.6633 L97.017,123.4405 L98.197,122.1896 L99.337,120.9155 L100.443,119.6192 L101.513,118.2975 L102.543,116.9556 L103.538,115.5942 L104.496,114.21 L105.415,112.8085 L106.298,111.3901 L107.145,109.9517 L107.951,108.4988 L108.723,107.0315 L109.456,105.547 L110.15,104.0508 L110.808,102.5429 L111.429,101.0203 L112.009,99.4889 L112.554,97.9482 L113.059,96.3954 L113.525,94.8367 L113.954,93.2712 L114.345,91.6965 L114.695,90.1186 L115.01,88.5362 L115.285,86.9474 L115.519,85.3582 L115.717,83.767 L115.875,82.172 L115.992,80.5794 L116.073,78.9874 L116.113,77.3941 L116.113,75.8061 L116.075,74.221 L115.997,72.6375 L115.877,71.0619 L115.72,69.492 L115.521,67.9264 L115.281,66.3715 L115.003,64.8246 L114.683,63.285 L114.322,61.7588 L113.923,60.2433 L113.481,58.7377 L112.998,57.2486 L112.476,55.7728 L111.911,54.3097 L111.304,52.866 L110.659,51.4382 L109.969,50.0262 L109.238,48.6364 L108.468,47.2654 L107.653,45.9131 L106.797,44.586 L105.901,43.2804 L104.961,41.9966 L103.978,40.7411 L102.956,39.5097 L101.889,38.3035 L100.78,37.1282 L99.632,35.98 L98.438,34.8602 L97.203,33.7741 L95.928,32.7178 L94.607,31.6932 L93.245,30.7051 L91.844,29.7494 L90.397,28.8285 L88.909,27.9469 L87.382,27.1004 L85.808,26.2917 L84.195,25.5247 L82.542,24.7953 L80.843,24.1067 L79.104,23.4625 L77.326,22.8582 L75.502,22.2977 L73.637,21.7836 L71.734,21.3121 L69.785,20.887 L67.807,20.5129 L66.816,20.3482 L65.841,20.2082 L64.874,20.0912 L63.914,19.995 L62.959,19.9211 L61.99,19.8687 L60.141,19.8271 L58.294,19.8716 L56.481,20.0015 L54.696,20.2079 L52.937,20.4972 L51.216,20.8661 L49.524,21.3066 L47.861,21.8251 L46.236,22.4168 L44.644,23.0746 L43.082,23.805 L41.559,24.6017 L40.069,25.4589 L38.612,26.3827 L37.194,27.3664 L35.809,28.4047 L34.458,29.5037 L33.147,30.6563 L31.868,31.8582 L30.624,33.1148 L29.418,34.4192 L28.245,35.7676 L27.107,37.1653 L26.007,38.6053 L24.94,40.0844 L23.908,41.6072 L22.913,43.1672 L21.951,44.7615 L21.023,46.3943 L20.133,48.0594 L19.276,49.7542 L18.453,51.4823 L17.668,53.2378 L16.915,55.0185 L16.198,56.8274 L15.517,58.6589 L14.869,60.5112 L14.257,62.3865 L13.681,64.2796 L13.139,66.189 L12.631,68.1164 L12.161,70.0567 L11.723,72.0088 L11.322,73.9744 L10.958,75.9479 L10.627,77.9288 L10.333,79.9183 L10.076,81.9107 L9.853,83.9062 L9.666,85.9053 L9.518,87.9026 L9.403,89.8985 L9.326,91.8931 L9.286,93.881 L9.281,95.8632 L9.314,97.8393 L9.386,99.8036 L9.492,101.7579 L9.636,103.7012 L9.82,105.628 L10.038,107.5401 L10.296,109.4367 L10.593,111.3117 L10.926,113.1678 L11.299,115.0035 L11.711,116.8127 L12.16,118.5984 L12.65,120.3592 L13.18,122.0884 L13.747,123.7897 L14.357,125.4614 L15.007,127.0962 L15.695,128.6987 L16.428,130.2666 L17.201,131.7925 L18.014,133.2813 L18.871,134.7304 L19.771,136.132 L20.711,137.4915 L21.698,138.8058 L22.727,140.0668 L23.798,141.2802 L24.917,142.4426 L26.079,143.5451 L27.283,144.5943 L28.537,145.5856 L29.832,146.5108 L31.17,147.3764 L32.558,148.177 L33.987,148.9052 L35.456,149.5676 L36.975,150.1579 L38.514,150.6644 L39.721,151.016 L40.908,151.3333 L42.089,151.6208 L43.267,151.8819 L44.444,152.1148 L45.615,152.3188 L46.783,152.4971 L47.948,152.6479 L49.107,152.7706 L50.262,152.8682 L51.414,152.9388 L52.559,152.9822 L53.7,153.0014 L54.837,152.9941 L55.967,152.9607 L57.092,152.9037 L58.213,152.8208 L59.326,152.7129 L60.434,152.5822 L61.537,152.4263 L62.632,152.2463 L63.721,152.0442 L64.805,151.8178 L65.89,151.5658 L66.944,151.2879 L68.011,151.0058 L69.064,150.6788 L70.116,150.351 L71.153,149.9795 L72.186,149.6088 L73.205,149.1994 L74.227,148.7881 L75.233,148.3353 L76.239,147.882 L77.228,147.3885 L78.213,146.8964 L79.183,146.3687 L80.155,145.8389 L81.11,145.2709 L82.064,144.7029 L83.001,144.0978 L83.933,143.4946 L84.849,142.8588 L85.768,142.2209 L86.668,141.5481 L87.566,140.8754 L88.446,140.1691 L89.323,139.4648 L90.182,138.7309 L91.042,137.9948 L91.883,137.2273 L92.722,136.4598 L93.542,135.6617 L94.358,134.8656 L95.155,134.0431 L95.954,133.2186 L96.732,132.3656 L97.508,131.5129 L98.263,130.633 L99.016,129.7554 L99.748,128.8541 L100.482,127.9506 L101.192,127.0221 L101.903,126.0938 L102.59,125.1416 L103.275,124.1916 L103.938,123.2209 L104.603,122.248 L105.243,121.2532 L105.883,120.2585 L106.499,119.2432 L107.112,118.23 L107.703,117.199 L108.295,116.1657 L108.86,115.1136 L109.426,114.0616 L109.965,112.992 L110.503,111.9246 L111.017,110.8423 L111.531,109.7577 L112.019,108.6576 L112.506,107.5577 L112.966,106.4432 L113.424,105.331 L113.857,104.2067 L114.291,103.0801 L114.696,101.9412 L115.101,100.802 L115.477,99.6519 L115.852,98.5038 L116.201,97.3467 L116.55,96.1869 L116.868,95.0181 L117.187,93.8492 L117.475,92.672 L117.762,91.4972 L118.022,90.316 L118.281,89.1321 L118.509,87.9424 L118.736,86.7524 L118.932,85.5575 L119.128,84.3649 L119.293,83.1689 L119.459,81.97 L119.592,80.7685 L119.725,79.5666 L119.824,78.363 L119.923,77.1617 L119.991,75.9599 L120.059,74.7551 L120.093,73.5507 L120.126,72.3459 L120.125,71.1427 L120.123,69.9418 L120.089,68.7433 L120.054,67.5417 L119.984,66.3437 L119.913,65.1452 L119.806,63.9515 L119.698,62.7603 L119.557,61.5743 L119.415,60.3851 L119.236,59.2027 L119.057,58.0198 L118.839,56.845 L118.622,55.6727 L118.37,54.5086 L118.117,53.3412 L117.824,52.1839 L117.531,51.0262 L117.199,49.8797 L116.867,48.7359 L116.499,47.6032 L116.129,46.4672 L115.719,45.3447 L115.308,44.2216 L114.856,43.1133 L114.405,42.0077 L113.916,40.9163 L113.425,39.8217 L112.893,38.7437 L112.359,37.6656 L111.783,36.6053 L111.208,35.5479 L110.595,34.5077 L109.978,33.4645 L109.319,32.4415 L108.659,31.4183 L107.955,30.4163 L107.257,29.4246 L106.518,28.4322 L105.761,27.457 L104.981,26.4949 L104.181,25.5439 L103.358,24.6039 L102.512,23.6779 L101.645,22.7636 L100.754,21.8614 L99.841,20.9739 L98.907,20.099 L97.948,19.237 L96.967,18.3906 L95.965,17.5575 L94.937,16.7383 L93.887,15.9355 L92.815,15.1467 L91.718,14.3726 L90.598,13.6158 L89.457,12.8737 L88.289,12.1473 L87.099,11.4386 L85.887,10.7457 L84.649,10.0691 L83.387,9.4112 L82.103,8.7696 L80.793,8.1453 L79.46,7.5402 L78.105,6.9509 L76.722,6.3798 L75.317,5.8287 L73.888,5.2951 L72.433,4.7806 L70.953,4.2865 L69.451,3.811 L67.921,3.3553 L66.367,2.9207 L64.789,2.5052 L63.185,2.1104 L61.555,1.7374 L59.902,1.3841 L58.221,1.0524 L56.504,0.7413 L54.56,0.4375 L52.637,0.2134 L50.752,0.0705 L48.899,0 L47.077,0.0081 L45.295,0.0936 L43.545,0.2483 L41.827,0.4784 L40.148,0.7815 L38.503,1.1503 L36.89,1.591 L35.318,2.0997 L33.78,2.6701 L32.275,3.3082 L30.812,4.009 L29.383,4.7668 L27.989,5.5871 L26.635,6.4646 L25.316,7.3947 L24.032,8.3827 L22.788,9.4228 L21.578,10.5105 L20.404,11.6512 L19.268,12.8388 L18.166,14.0695 L17.098,15.3483 L16.069,16.6692 L15.072,18.0291 L14.109,19.4324 L13.182,20.8733 L12.287,22.349 L11.427,23.8643 L10.602,25.4131 L9.808,26.9928 L9.047,28.6071 L8.32,30.2505 L7.623,31.9212 L6.959,33.622 L6.327,35.3481 L5.724,37.0976 L5.153,38.8731 L4.614,40.67 L4.104,42.4864 L3.625,44.3248 L3.177,46.1805 L2.762,48.0533 L2.379,49.9439 L2.026,51.8478 L1.701,53.7637 L1.406,55.693 L1.14,57.6315 L0.902,59.5785 L0.692,61.5346 L0.512,63.4961 L0.358,65.4622 L0.233,67.4335 L0.136,69.4061 L0.065,71.3796 L0.019,73.3541 L0,75.326 L0.006,77.2952 L0.041,79.2615 L0.102,81.2211 L0.188,83.1745 L0.302,85.1208 L0.442,87.0562 L0.606,88.9819 L0.797,90.8963 L1.014,92.7959 L1.256,94.6819 L1.523,96.5527 L1.814,98.405 L2.129,100.2399 L2.469,102.0558 L2.835,103.8488 L3.223,105.6208 L3.637,107.3697 L4.076,109.0916 L4.538,110.789 L5.025,112.4593 L5.536,114.0984 L6.07,115.7094 L6.629,117.2894 L7.211,118.8342 L7.816,120.3471 L8.446,121.8254 L9.099,123.2646 L9.774,124.6684 L10.474,126.0334 L11.198,127.355 L11.944,128.6375 L12.715,129.8774 L13.51,131.0695 L14.328,132.2187 L15.171,133.3212 L16.033,134.3647 L16.797,135.2436 L17.562,136.0918 L18.332,136.9145 L19.108,137.7149 L19.89,138.4917 L20.676,139.2435 L21.468,139.9731 L22.265,140.6797 L23.067,141.3616 L23.873,142.0221 L24.685,142.6602 L25.513,143.2826 L27.145,144.4375 L28.81,145.5108 L30.489,146.4913 L32.182,147.3898 L33.892,148.2006 L35.613,148.9224 L37.345,149.5652 L39.091,150.1236 L40.843,150.5968 L42.603,150.9946 L44.374,151.3112 L46.147,151.5473 L47.925,151.7116 L49.709,151.7988 L51.493,151.8101 L53.277,151.7538 L55.065,151.6246 L56.85,151.4244 L58.632,151.1607 L60.415,150.8285 L62.191,150.4302 L63.964,149.9727 L65.733,149.451 L67.494,148.8678 L69.248,148.2298 L70.996,147.5317 L72.734,146.7771 L74.463,145.9717 L76.183,145.1105 L77.89,144.1971 L79.587,143.2364 L81.272,142.2243 L82.942,141.164 L84.599,140.0604 L86.242,138.9095 L87.868,137.7145 L89.474,136.4834 L90.275,135.8411 L91.072,135.2023 L91.86,134.543 L92.646,133.8847 L93.424,133.2085 L94.203,132.5315 L94.972,131.8355 L95.741,131.1395 L96.5,130.4249 L97.257,129.7114 L98.005,128.9816 L98.754,128.251 L99.491,127.5033 L100.228,126.7555 L100.954,125.9915 L101.678,125.2283 L102.392,124.4507 L103.106,123.6723 L103.808,122.8787 L104.51,122.0851 L105.199,121.2771 L105.887,120.4701 L106.563,119.6507 L107.239,118.8301 L107.902,117.9965 L108.565,117.1629 L109.213,116.3168 L109.861,115.4717 L110.495,114.616 L111.13,113.7592 L111.75,112.8914 L112.37,112.0235 L112.974,111.1452 L113.578,110.2677 L114.167,109.3815 L114.757,108.4942 L115.33,107.5978 L115.903,106.7013 L116.46,105.7964 L117.015,104.8926 L117.555,103.9816 L118.096,103.0695 L118.618,102.1503 L119.141,101.231 L119.646,100.3052 L120.15,99.3805 L120.637,98.4506 L121.125,97.5193 L121.593,96.5831 L122.062,95.6465 L122.511,94.7056 L122.959,93.7658 L123.39,92.8226 L123.821,91.8779 L124.231,90.9301 L124.641,89.9821 L125.031,89.0318 L125.42,88.0824 L125.79,87.1315 L126.162,86.1742 L126.857,84.2717 L127.509,82.3642 L128.119,80.4566 L128.684,78.5488 L129.201,76.6448 L129.674,74.7442 L130.099,72.847 L130.473,70.9577 L130.801,69.0752 L131.077,67.1998 L131.3,65.3364 L131.474,63.4832 L131.593,61.6407 L131.656,59.8144 L131.668,58.0018 L131.621,56.2035 L131.515,54.4257 L131.354,52.6653 L131.132,50.923 L130.848,49.2056 L130.506,47.5094 L130.099,45.8356 L129.636,44.2189 C129.404,43.412 128.562,42.9456 127.755,43.177 C126.949,43.4086 126.482,44.2504 126.714,45.0573 L127.161,46.6138 L127.539,48.1686 L127.858,49.7538 L128.125,51.3633 L128.333,52.9955 L128.484,54.6541 L128.585,56.3334 L128.629,58.0319 L128.619,59.7526 L128.559,61.4903 L128.446,63.2432 L128.28,65.0141 L128.067,66.798 L127.803,68.5934 L127.488,70.4021 L127.128,72.2203 L126.72,74.0457 L126.263,75.8801 L125.764,77.7199 L125.218,79.563 L124.627,81.4107 L123.995,83.2601 L123.318,85.1135 L122.961,86.0322 L122.602,86.9573 L122.223,87.881 L121.845,88.8039 L121.446,89.7245 L121.048,90.6454 L120.629,91.5635 L120.21,92.483 L119.773,93.3992 L119.336,94.3145 L118.88,95.2256 L118.424,96.137 L117.95,97.0434 L117.475,97.9511 L116.983,98.8538 L116.492,99.7555 L115.982,100.651 L115.473,101.5468 L114.946,102.4355 L114.419,103.3255 L113.876,104.2084 L113.334,105.0906 L112.775,105.9645 L112.217,106.8384 L111.642,107.7035 L111.066,108.5696 L110.477,109.427 L109.888,110.2835 L109.283,111.1297 L108.679,111.976 L108.06,112.8112 L107.44,113.6475 L106.807,114.4733 L106.176,115.2981 L105.53,116.1106 L104.884,116.9233 L104.225,117.7228 L103.565,118.5234 L102.893,119.3114 L102.222,120.0987 L101.539,120.8716 L100.855,121.6445 L100.16,122.4024 L99.464,123.1612 L98.757,123.9058 L98.051,124.6493 L97.334,125.3766 L96.617,126.1039 L95.889,126.8143 L95.161,127.5253 L94.423,128.2205 L93.687,128.9146 L92.94,129.5904 L92.194,130.2662 L91.438,130.9228 L90.681,131.5804 L89.917,132.2198 L89.153,132.8582 L88.381,133.4762 L87.613,134.091 L86.048,135.2891 L84.474,136.4445 L82.888,137.5541 L81.288,138.6186 L79.677,139.6398 L78.057,140.6115 L76.425,141.534 L74.786,142.4098 L73.14,143.2323 L71.486,144.0018 L69.826,144.7209 L68.163,145.3826 L66.495,145.9876 L64.823,146.5391 L63.152,147.0301 L61.477,147.4604 L59.802,147.834 L58.13,148.1437 L56.457,148.3892 L54.785,148.575 L53.12,148.6935 L51.455,148.7441 L49.795,148.7319 L48.142,148.6493 L46.493,148.4948 L44.849,148.2742 L43.215,147.9802 L41.586,147.6099 L39.963,147.1701 L38.353,146.653 L36.748,146.0552 L35.152,145.384 L33.569,144.6314 L31.994,143.7931 L30.43,142.8771 L28.879,141.8754 L27.328,140.7741 L26.575,140.206 L25.814,139.607 L25.056,138.9839 L24.301,138.3395 L23.552,137.6725 L22.805,136.9809 L22.062,136.2676 L21.324,135.5312 L20.59,134.7696 L19.859,133.9859 L19.134,133.1784 L18.418,132.3517 L17.619,131.3803 L16.846,130.3652 L16.09,129.297 L15.351,128.1836 L14.633,127.0236 L13.934,125.8149 L13.253,124.5646 L12.593,123.2719 L11.954,121.9349 L11.334,120.5602 L10.737,119.147 L10.162,117.6939 L9.607,116.2072 L9.075,114.6863 L8.565,113.1302 L8.077,111.5445 L7.611,109.9289 L7.17,108.2824 L6.75,106.6103 L6.354,104.9126 L5.982,103.1885 L5.632,101.4427 L5.307,99.6755 L5.007,97.8863 L4.73,96.0793 L4.48,94.2548 L4.255,92.4128 L4.054,90.5571 L3.879,88.6884 L3.729,86.8066 L3.603,84.9147 L3.504,83.0145 L3.431,81.1052 L3.382,79.1899 L3.359,77.2703 L3.364,75.3461 L3.394,73.4197 L3.451,71.4936 L3.539,69.5671 L3.652,67.6425 L3.793,65.7225 L3.962,63.8062 L4.156,61.8958 L4.378,59.9944 L4.629,58.101 L4.905,56.2175 L5.21,54.3471 L5.544,52.4891 L5.904,50.6447 L6.293,48.818 L6.709,47.0075 L7.147,45.2133 L7.613,43.4408 L8.11,41.689 L8.633,39.9584 L9.185,38.2541 L9.768,36.5744 L10.378,34.92 L11.017,33.2962 L11.687,31.7012 L12.383,30.1353 L13.109,28.6044 L13.867,27.1065 L14.651,25.6413 L15.464,24.2153 L16.307,22.8255 L17.178,21.4722 L18.078,20.1623 L19.009,18.8931 L19.968,17.6639 L20.955,16.482 L21.975,15.3444 L23.022,14.2502 L24.097,13.2068 L25.205,12.2114 L26.341,11.2623 L27.505,10.3674 L28.703,9.5235 L29.93,8.7291 L31.184,7.9916 L32.474,7.3093 L33.794,6.6792 L35.143,6.1092 L36.529,5.5975 L37.946,5.1409 L39.394,4.7475 L40.88,4.4164 L42.4,4.1441 L43.952,3.9383 L45.545,3.7999 L47.171,3.7239 L48.833,3.7188 L50.537,3.7861 L52.277,3.9202 L54.053,4.1297 L55.883,4.4187 L57.524,4.719 L59.147,5.042 L60.745,5.386 L62.318,5.7487 L63.863,6.1314 L65.383,6.5343 L66.879,6.9551 L68.347,7.3949 L69.79,7.8543 L71.21,8.3309 L72.602,8.8254 L73.97,9.3388 L75.315,9.8686 L76.633,10.4155 L77.927,10.9805 L79.197,11.5622 L80.441,12.1603 L81.662,12.7756 L82.86,13.4058 L84.032,14.0513 L85.181,14.7134 L86.308,15.3896 L87.41,16.0802 L88.489,16.7868 L89.546,17.5068 L90.578,18.2403 L91.588,18.9891 L92.577,19.7505 L93.542,20.5247 L94.484,21.3135 L95.406,22.1143 L96.304,22.9269 L97.181,23.7536 L98.037,24.5916 L98.869,25.4406 L99.681,26.303 L100.473,27.1761 L101.242,28.0595 L101.99,28.9555 L102.719,29.8616 L103.425,30.7773 L104.106,31.6978 L104.769,32.6482 L105.425,33.5884 L106.04,34.5486 L106.655,35.5088 L107.228,36.488 L107.803,37.47 L108.341,38.4684 L108.878,39.4639 L109.374,40.4764 L109.87,41.4891 L110.327,42.5175 L110.785,43.5494 L111.207,44.5947 L111.628,45.6373 L112.01,46.6938 L112.393,47.7505 L112.736,48.8202 L113.081,49.8934 L113.391,50.9772 L113.701,52.0584 L113.973,53.1504 L114.245,54.243 L114.48,55.3453 L114.716,56.451 L114.918,57.5646 L115.12,58.6758 L115.286,59.7947 L115.452,60.9142 L115.582,62.0403 L115.712,63.1698 L115.81,64.3044 L115.908,65.4366 L115.971,66.5735 L116.035,67.7109 L116.063,68.8519 L116.092,69.9959 L116.09,71.1424 L116.088,72.2864 L116.053,73.4322 L116.017,74.5783 L115.949,75.7249 L115.88,76.8744 L115.782,78.0235 L115.684,79.1703 L115.553,80.3156 L115.423,81.4611 L115.261,82.6041 L115.099,83.7498 L114.908,84.8921 L114.718,86.0323 L114.496,87.1677 L114.275,88.3034 L114.024,89.4332 L113.772,90.5657 L113.493,91.6919 L113.214,92.816 L112.907,93.9323 L112.599,95.0488 L112.263,96.1562 L111.926,97.2662 L111.563,98.367 L111.201,99.4657 L110.81,100.5534 L110.42,101.6412 L110.003,102.7167 L109.585,103.7947 L109.142,104.8608 L108.7,105.9245 L108.232,106.9742 L107.764,108.0239 L107.269,109.0582 L106.774,110.0948 L106.256,111.1165 L105.739,112.136 L105.197,113.1381 L104.655,114.1403 L104.088,115.1241 L103.521,116.1103 L102.932,117.0787 L102.345,118.0448 L101.734,118.9905 L101.123,119.9362 L100.49,120.8603 L99.855,121.7864 L99.199,122.6919 L98.546,123.5954 L97.87,124.475 L97.195,125.3547 L96.498,126.2096 L95.8,127.0666 L95.082,127.9001 L94.367,128.7315 L93.631,129.5361 L92.896,130.3405 L92.141,131.1171 L91.384,131.8958 L90.609,132.6482 L89.837,133.3986 L89.046,134.1192 L88.256,134.8399 L87.448,135.5297 L86.637,136.2215 L85.81,136.8843 L84.987,137.5451 L84.145,138.1729 L83.305,138.801 L82.447,139.3948 L81.587,139.9909 L80.712,140.5551 L79.841,141.1175 L78.954,141.644 L78.068,142.1707 L77.166,142.6604 L76.261,143.1523 L75.343,143.6094 L74.429,144.0654 L73.5,144.4823 L72.572,144.8997 L71.63,145.277 L70.685,145.6564 L69.728,145.9985 L68.775,146.3399 L67.808,146.6395 L66.843,146.9397 L65.865,147.1972 L64.873,147.4588 L63.895,147.6854 L62.903,147.892 L61.904,148.0771 L60.899,148.2419 L59.89,148.3838 L58.875,148.5033 L57.854,148.602 L56.83,148.6772 L55.798,148.7291 L54.762,148.7593 L53.722,148.7656 L52.676,148.7475 L51.625,148.7072 L50.571,148.6423 L49.509,148.552 L48.444,148.4388 L47.376,148.3002 L46.3,148.1354 L45.221,147.9469 L44.139,147.7323 L43.05,147.4904 L41.958,147.224 L40.863,146.9308 L39.78,146.615 L38.407,146.1636 L37.098,145.6541 L35.824,145.0787 L34.584,144.4462 L33.386,143.7544 L32.221,142.9996 L31.09,142.191 L29.998,141.3267 L28.939,140.4025 L27.912,139.4273 L26.924,138.4003 L25.969,137.3167 L25.046,136.1855 L24.162,135.0062 L23.311,133.7743 L22.493,132.4987 L21.713,131.1794 L20.968,129.8121 L20.255,128.4051 L19.581,126.959 L18.943,125.47 L18.337,123.9458 L17.77,122.3874 L17.239,120.7912 L16.741,119.1646 L16.281,117.5086 L15.857,115.8204 L15.468,114.1064 L15.115,112.368 L14.8,110.6028 L14.518,108.8167 L14.273,107.0114 L14.065,105.1846 L13.891,103.3417 L13.754,101.4847 L13.653,99.6116 L13.586,97.7272 L13.555,95.8339 L13.561,93.93 L13.599,92.0193 L13.674,90.105 L13.786,88.1852 L13.93,86.2637 L14.11,84.3437 L14.326,82.4235 L14.574,80.5063 L14.857,78.5958 L15.176,76.6904 L15.528,74.7927 L15.913,72.9069 L16.335,71.0314 L16.787,69.1685 L17.274,67.3227 L17.797,65.4926 L18.351,63.6797 L18.938,61.8895 L19.56,60.1198 L20.212,58.3721 L20.897,56.6523 L21.616,54.9581 L22.364,53.2906 L23.145,51.6562 L23.959,50.0524 L24.802,48.4802 L25.676,46.9462 L26.583,45.4478 L27.519,43.9855 L28.484,42.5667 L29.481,41.1884 L30.506,39.8505 L31.56,38.561 L32.645,37.3166 L33.757,36.117 L34.896,34.9704 L36.067,33.8736 L37.263,32.8254 L38.485,31.8345 L39.738,30.8978 L41.017,30.0132 L42.32,29.19 L43.655,28.4249 L45.015,27.7156 L46.399,27.0711 L47.815,26.4889 L49.256,25.9661 L50.722,25.5114 L52.222,25.1236 L53.748,24.7989 L55.299,24.5459 L56.885,24.3653 L58.5,24.2519 L60.14,24.2148 L61.841,24.2565 L62.667,24.303 L63.522,24.3705 L64.388,24.4587 L65.261,24.5656 L66.14,24.6932 L67.018,24.8403 L68.904,25.1998 L70.732,25.6012 L72.519,26.0469 L74.265,26.5312 L75.965,27.0562 L77.624,27.6229 L79.243,28.2256 L80.816,28.866 L82.349,29.5455 L83.844,30.2583 L85.293,31.006 L86.702,31.7902 L88.074,32.6055 L89.401,33.4527 L90.689,34.334 L91.939,35.2441 L93.146,36.1832 L94.314,37.1542 L95.445,38.1518 L96.533,39.1755 L97.584,40.2291 L98.597,41.3069 L99.569,42.4084 L100.503,43.5374 L101.401,44.6886 L102.257,45.8609 L103.076,47.0584 L103.859,48.2759 L104.601,49.512 L105.306,50.771 L105.975,52.0479 L106.604,53.3407 L107.195,54.6542 L107.751,55.9832 L108.268,57.3257 L108.746,58.6863 L109.19,60.0602 L109.594,61.4451 L109.961,62.8455 L110.292,64.2568 L110.585,65.6766 L110.84,67.1092 L111.06,68.5503 L111.242,69.9972 L111.385,71.4544 L111.494,72.9178 L111.566,74.3842 L111.599,75.8582 L111.598,77.3359 L111.56,78.814 L111.483,80.2969 L111.373,81.7812 L111.225,83.2632 L111.039,84.7472 L110.819,86.23 L110.562,87.7081 L110.267,89.1854 L109.939,90.6589 L109.574,92.1248 L109.171,93.5873 L108.735,95.0436 L108.262,96.4897 L107.753,97.9296 L107.21,99.3609 L106.631,100.7795 L106.015,102.1889 L105.366,103.5872 L104.682,104.9701 L103.96,106.3414 L103.206,107.699 L102.417,109.0386 L101.591,110.3637 L100.732,111.6729 L99.839,112.9615 L98.909,114.2328 L97.947,115.4859 L96.951,116.7159 L95.918,117.9258 L94.852,119.1152 L93.754,120.2789 L92.618,121.42 L91.451,122.538 L90.251,123.6281 L89.014,124.6927 L87.746,125.732 L86.444,126.7409 L85.106,127.7216 L83.737,128.6746 L82.335,129.5948 L80.896,130.4842 L79.426,131.3436 L77.924,132.1675 L76.384,132.9576 L74.814,133.715 L73.212,134.4347 L71.573,135.1177 L70.484,135.5322 L69.416,135.8865 L68.36,136.1858 L67.318,136.4354 L66.296,136.6303 L65.285,136.774 L64.288,136.8718 L63.31,136.9197 L62.341,136.9196 L61.384,136.8769 L60.446,136.7885 L59.515,136.6543 L58.596,136.4802 L57.693,136.2635 L56.797,136.0027 L55.912,135.7039 L55.043,135.3626 L54.182,134.978 L53.331,134.5571 L52.495,134.0984 L51.668,133.599 L50.851,133.0649 L50.049,132.4954 L49.257,131.8869 L48.476,131.2458 L47.712,130.5717 L46.958,129.8609 L46.216,129.1197 L45.492,128.3482 L44.779,127.5428 L44.081,126.7094 L43.399,125.8486 L42.732,124.9567 L42.079,124.0397 L41.444,123.0983 L40.825,122.1291 L40.222,121.1374 L39.637,120.1243 L39.069,119.0868 L38.517,118.0301 L37.984,116.955 L37.47,115.8587 L36.973,114.7459 L36.496,113.6181 L36.038,112.4723 L35.598,111.3132 L35.179,110.1421 L34.783,108.9664 L34.409,107.754 L34.038,106.555 L33.71,105.3375 L33.382,104.1198 L33.098,102.8881 L32.81,101.643 L32.557,100.4122 L32.325,99.1697 L32.114,97.9228 L31.925,96.6745 L31.756,95.428 L31.611,94.1802 L31.487,92.934 L31.387,91.6928 L31.31,90.4534 L31.255,89.2189 L31.224,87.9928 L31.217,86.7719 L31.233,85.5589 L31.272,84.3577 L31.337,83.1651 L31.424,81.9834 L31.535,80.8172 L31.672,79.6628 L31.832,78.5223 L32.016,77.401 L32.226,76.2946 L32.459,75.2052 L32.716,74.1387 L33,73.09 L33.306,72.0613 L33.635,71.0589 L33.992,70.0772 L34.371,69.1185 L34.773,68.1894 L35.203,67.2839 L35.654,66.4039 L36.129,65.5564 L36.631,64.7352 L37.155,63.9416 L37.701,63.1829 L38.274,62.4523 L38.87,61.7514 L39.487,61.0871 L40.133,60.4526 L40.802,59.8488 L41.492,59.283 L42.229,58.7367 L42.504,58.5519 L42.821,58.3606 L43.171,58.1701 L43.548,57.983 L43.949,57.8031 L44.345,57.6415 L45.317,57.2958 L46.344,56.9987 L47.466,56.7354 L48.665,56.5065 L49.934,56.3183 L51.276,56.1706 L52.674,56.0607 L54.125,55.9933 L55.627,55.9686 L57.168,55.9826 L58.743,56.0394 L60.351,56.1391 L61.982,56.2775 L63.629,56.4583 L65.291,56.6817 L66.959,56.9432 L68.627,57.246 L70.292,57.5907 L71.948,57.9721 L73.585,58.3934 L75.202,58.8555 L76.795,59.3536 L78.351,59.8895 L79.871,60.4649 L81.35,61.0741 L82.774,61.7182 L84.146,62.3993 L85.46,63.1113 L86.702,63.8532 L87.899,64.6457 L88.434,65.0268 L88.97,65.4295 L89.488,65.8409 L89.986,66.2577 L90.459,66.6784 L90.912,67.1072 L91.344,67.5407 L91.749,67.9764 L92.133,68.4198 L92.494,68.8671 L92.829,69.3149 L93.14,69.7704 L93.43,70.2292 L93.691,70.6872 L93.93,71.1537 L94.146,71.6235 L94.334,72.0921 L94.5,72.5707 L94.642,73.0539 L94.758,73.5368 L94.85,74.0325 L94.919,74.5348 L94.96,75.0394 L94.975,75.5597 L94.966,76.0895 L94.928,76.6244 L94.86,77.1778 L94.765,77.7431 L94.639,78.3163 L94.481,78.9006 L94.197,79.798 L93.881,80.6596 L93.525,81.5057 L93.137,82.3337 L92.715,83.1373 L92.256,83.9262 L91.766,84.6982 L91.245,85.4473 L90.688,86.1819 L90.102,86.9 L89.487,87.5961 L88.838,88.2773 L88.161,88.9419 L87.459,89.5851 L86.725,90.2125 L85.965,90.823 L85.182,91.4123 L84.37,91.9849 L83.536,92.5402 L82.68,93.0744 L81.799,93.5909 L80.898,94.0898 L79.979,94.5676 L79.038,95.0269 L78.08,95.4684 L77.107,95.8888 L76.115,96.2902 L75.11,96.6735 L74.092,97.0358 L73.072,97.3749 L72.01,97.6943 L70.964,98.0098 L69.9,98.284 L68.835,98.5596 L67.757,98.7935 L66.673,99.0296 L65.582,99.2277 L64.493,99.4261 L63.401,99.5831 L62.308,99.741 L61.216,99.858 L60.118,99.9761 L59.025,100.0572 L57.937,100.1386 L56.857,100.1795 L55.777,100.2214 L54.711,100.2228 L53.63,100.225 L52.585,100.2004 L51.542,100.1563 L50.508,100.0927 L49.486,100.0118 L48.481,99.9119 L47.489,99.7929 L46.511,99.6569 L45.554,99.5027 L44.614,99.3296 L43.691,99.1402 L42.794,98.9335 L41.916,98.7084 L41.06,98.4677 L40.232,98.211 L39.428,97.9366 L38.649,97.6476 L37.902,97.3443 L37.182,97.0243 L36.491,96.6912 L35.836,96.3462 L35.211,95.9858 L34.617,95.6143 L34.063,95.2339 L33.541,94.8396 L33.053,94.4368 L32.606,94.0289 L32.193,93.6081 L31.813,93.181 L31.475,92.7522 L31.17,92.3105 L30.897,91.8628 L30.663,91.4145 L30.461,90.9499 L30.29,90.4764 L30.155,89.9988 L30.052,89.4983 L29.98,88.9826 L29.945,88.4562 L29.947,87.8997 L29.985,87.3216 L30.064,86.7262 L30.189,86.097 L30.356,85.4427 L30.57,84.7676 L30.839,84.0586 L31.158,83.3245 L31.53,82.5687 L31.97,81.7709 L32.405,81.0379 L32.917,80.2188 L33.497,79.329 L34.135,78.3835 L34.832,77.3852 L35.585,76.3383 L36.385,75.2544 L37.232,74.1369 L38.125,72.99 L39.054,71.8228 L40.02,70.6403 L41.021,69.4466 L42.049,68.2489 L43.103,67.054 L44.18,65.8656 L45.275,64.6897 L46.385,63.5345 L47.508,62.4036 L48.638,61.3014 L49.77,60.2382 L50.904,59.217 L52.035,58.2411 L53.155,57.3226 L54.264,56.4639 L55.356,55.667 L56.421,54.9462 L57.485,54.288 L57.969,54.009 L58.464,53.7393 L58.952,53.4906 L59.427,53.2629 L59.887,53.0602 L60.336,52.8801 L60.771,52.7216 L61.184,52.589 L61.585,52.4792 L61.968,52.3909 L62.325,52.3272 L62.667,52.285 L62.988,52.262 L63.281,52.2594 L63.559,52.2758 L63.819,52.3074 L64.051,52.3536 L64.276,52.4174 L64.489,52.4944 L64.683,52.5839 L64.881,52.6965 L65.077,52.8276 L65.265,52.9777 L65.462,53.1633 L65.662,53.3786 L65.858,53.6243 L66.061,53.9173 L66.263,54.2498 L66.459,54.6216 L66.653,55.0473 L66.842,55.5175 L67.021,56.0322 L67.191,56.6026 L67.35,57.2199 L67.494,57.8842 L67.625,58.6045 L67.742,59.3726 L67.841,60.1895 L67.922,61.0627 L67.986,61.9842 L68.031,62.9561 L68.056,64.0103 C68.091,65.49 69.319,66.6609 70.799,66.6257 C72.278,66.5905 73.449,65.3624 73.414,63.8826 Z" id="Fill-304"></path>
        </g>
    </g>
</svg>
