<?xml version="1.0" encoding="UTF-8"?>
<svg width="191px" height="217px" viewBox="0 0 191 217" version="1.1" xmlns="http://www.w3.org/2000/svg" xmlns:xlink="http://www.w3.org/1999/xlink">
    <title>154</title>
    <g id="Page-1" stroke="none" stroke-width="1" fill="none" fill-rule="evenodd">
        <g id="154" transform="translate(0.010611, 0.501000)" fill="currentColor">
            <path d="M129.288,94.677 L129.624,93.424 L129.919,92.16 L130.163,90.929 L130.361,89.724 L130.51,88.545 L130.611,87.398 L130.667,86.278 L130.675,85.182 L130.637,84.12 L130.555,83.085 L130.427,82.073 L130.253,81.097 L130.039,80.148 L129.777,79.225 L129.474,78.34 L129.13,77.484 L128.741,76.657 L128.314,75.87 L127.85,75.117 L127.344,74.394 L126.804,73.716 L126.232,73.074 L125.622,72.466 L124.985,71.905 L124.322,71.381 L123.626,70.894 L122.911,70.453 L122.174,70.05 L121.411,69.685 L120.634,69.364 L119.841,69.08 L119.026,68.835 L118.203,68.631 L117.368,68.464 L116.516,68.334 L115.659,68.243 L114.794,68.187 L113.915,68.168 L113.035,68.186 L112.15,68.238 L111.254,68.326 L110.36,68.45 L109.464,68.606 L108.561,68.799 L107.662,69.025 L106.763,69.284 L105.861,69.579 L104.965,69.907 L104.072,70.266 L103.18,70.662 L102.296,71.09 L101.418,71.549 L100.544,72.044 L99.682,72.572 L98.828,73.13 L97.981,73.724 L97.149,74.349 L96.329,75.006 L95.519,75.698 L94.727,76.422 L93.949,77.175 L93.185,77.965 L92.443,78.786 L91.718,79.636 L91.01,80.523 L90.327,81.44 L89.664,82.386 L89.023,83.369 L88.409,84.38 L87.819,85.422 L87.254,86.498 L86.719,87.604 L86.211,88.738 L85.733,89.908 L85.287,91.106 L84.871,92.332 L84.488,93.593 L84.141,94.882 L83.826,96.198 L83.549,97.549 L83.309,98.926 L83.106,100.33 L82.942,101.769 L82.82,103.233 L82.736,104.724 L82.695,106.249 L82.699,107.799 L82.744,109.375 L82.835,110.984 L82.973,112.619 L83.155,114.279 L83.386,115.972 L83.667,117.69 L83.994,119.433 L84.374,121.208 L84.81,123.024 L85.081,123.836 L85.496,124.627 L86.016,125.317 L86.62,125.912 L87.302,126.412 L88.013,126.805 L88.752,127.117 L89.527,127.359 L90.316,127.534 L91.126,127.659 L91.969,127.736 L92.833,127.769 L93.721,127.764 L94.644,127.72 L95.592,127.64 L96.566,127.528 L97.573,127.381 L98.605,127.202 L99.662,126.994 L100.748,126.755 L101.858,126.485 L102.99,126.188 L104.148,125.862 L105.326,125.508 L106.522,125.128 L107.739,124.72 L108.972,124.286 L110.22,123.829 L111.483,123.345 L112.758,122.836 L114.043,122.306 L115.34,121.75 L116.643,121.172 L117.951,120.574 L119.266,119.952 L120.589,119.306 L121.898,118.639 L123.218,117.966 L124.532,117.254 L125.847,116.541 L127.151,115.791 L128.452,115.041 L129.736,114.26 L131.024,113.475 L132.287,112.658 L133.551,111.84 L134.782,110.991 L136.004,110.148 L137.216,109.272 L138.402,108.387 L139.564,107.488 L140.703,106.577 L141.819,105.651 L142.905,104.713 L143.964,103.763 L144.994,102.8 L145.99,101.826 L146.954,100.841 L147.884,99.842 L148.773,98.834 L149.626,97.815 L150.44,96.783 L151.208,95.742 L151.934,94.69 L152.614,93.623 L153.242,92.549 L153.823,91.464 L154.351,90.363 L154.82,89.255 L155.233,88.136 L155.585,87 L155.868,85.86 L156.088,84.711 L156.235,83.546 L156.305,82.382 L156.303,81.215 L156.217,80.037 L156.047,78.869 L155.797,77.706 L155.456,76.542 L155.03,75.399 L154.522,74.268 L153.92,73.147 L153.234,72.051 L152.467,70.973 L151.606,69.909 L150.662,68.872 L149.636,67.854 L148.516,66.853 L147.332,65.893 L146.676,65.394 L146.016,64.916 L145.335,64.444 L144.634,63.977 L143.906,63.513 L143.157,63.056 L142.385,62.603 L141.588,62.153 L140.767,61.709 L139.925,61.27 L139.055,60.835 L138.141,60.395 L137.049,59.908 L135.921,59.472 L134.794,59.101 L133.662,58.785 L132.522,58.529 L131.385,58.334 L130.248,58.193 L129.106,58.109 L127.972,58.082 L126.842,58.105 L125.71,58.182 L124.59,58.31 L123.477,58.485 L122.366,58.71 L121.268,58.981 L120.179,59.295 L119.095,59.654 L118.026,60.055 L116.966,60.494 L115.914,60.974 L114.878,61.492 L113.853,62.044 L112.836,62.634 L111.836,63.257 L110.848,63.911 L109.871,64.599 L108.91,65.317 L107.963,66.061 L107.027,66.837 L106.109,67.639 L105.205,68.466 L104.315,69.32 L103.443,70.197 L102.586,71.095 L101.744,72.018 L100.922,72.961 L100.116,73.922 L99.326,74.905 L98.558,75.904 L97.806,76.919 L97.074,77.953 L96.362,79 L95.67,80.061 L94.997,81.137 L94.348,82.224 L93.719,83.321 L93.112,84.431 L92.529,85.548 L91.968,86.673 L91.43,87.808 L90.918,88.948 L90.429,90.093 L89.965,91.245 L89.53,92.399 L89.118,93.555 L88.734,94.716 L88.379,95.876 L88.05,97.035 L87.751,98.197 L87.482,99.355 L87.241,100.51 L87.032,101.665 L86.855,102.812 L86.709,103.955 L86.596,105.096 L86.518,106.226 L86.473,107.348 L86.463,108.466 L86.491,109.571 L86.554,110.666 L86.656,111.753 L86.798,112.824 L86.977,113.882 L87.199,114.929 L87.464,115.956 L87.769,116.967 L88.122,117.964 L88.518,118.934 L88.959,119.885 L89.45,120.817 L89.987,121.717 L90.569,122.591 L91.206,123.44 L91.888,124.251 L92.616,125.031 L93.399,125.779 L94.227,126.484 L95.099,127.152 L96.026,127.782 L96.996,128.365 L98.009,128.908 L99.075,129.408 L100.182,129.859 L101.331,130.267 L102.532,130.629 L103.756,130.937 L104.888,131.188 L105.991,131.414 L107.082,131.618 L108.161,131.802 L109.23,131.966 L110.285,132.108 L111.33,132.232 L112.365,132.335 L113.385,132.417 L114.395,132.482 L115.396,132.526 L116.406,132.55 L118.322,132.544 L120.219,132.46 L122.063,132.3 L123.864,132.072 L125.621,131.77 L127.324,131.396 L128.983,130.959 L130.597,130.451 L132.156,129.878 L133.668,129.245 L135.134,128.547 L136.544,127.79 L137.906,126.979 L139.221,126.107 L140.478,125.184 L141.686,124.212 L142.846,123.186 L143.948,122.115 L145.001,121.003 L146.005,119.842 L146.952,118.644 L147.85,117.409 L148.699,116.133 L149.492,114.826 L150.238,113.488 L150.934,112.115 L151.577,110.716 L152.173,109.293 L152.719,107.839 L153.214,106.366 L153.663,104.873 L154.063,103.356 L154.412,101.824 L154.717,100.277 L154.974,98.711 L155.181,97.136 L155.345,95.55 L155.46,93.95 L155.528,92.346 L155.553,90.736 L155.53,89.117 L155.46,87.499 L155.347,85.879 L155.188,84.256 L154.982,82.638 L154.734,81.023 L154.439,79.41 L154.098,77.806 L153.715,76.211 L153.286,74.622 L152.812,73.048 L152.295,71.486 L151.732,69.937 L151.125,68.407 L150.476,66.894 L149.78,65.398 L149.04,63.928 L148.258,62.479 L147.429,61.053 L146.557,59.657 L145.643,58.288 L144.681,56.947 L143.677,55.641 L142.631,54.368 L141.538,53.128 L140.402,51.929 L139.225,50.768 L138,49.646 L136.733,48.571 L135.426,47.539 L134.07,46.552 L132.674,45.618 L131.238,44.732 L129.755,43.898 L128.232,43.123 L126.671,42.402 L125.063,41.738 L123.417,41.139 L121.733,40.599 L120.005,40.123 L118.24,39.716 L116.439,39.373 L114.595,39.1 L112.717,38.902 L110.803,38.771 L108.848,38.716 L106.86,38.74 L104.839,38.837 L102.793,39.013 L101.729,39.144 L100.667,39.277 L99.225,39.518 L97.776,39.841 L96.353,40.238 L94.948,40.703 L93.559,41.241 L92.197,41.846 L90.855,42.512 L89.531,43.245 L88.234,44.038 L86.959,44.886 L85.704,45.795 L84.475,46.758 L83.268,47.77 L82.082,48.838 L80.923,49.954 L79.785,51.115 L78.669,52.327 L77.58,53.581 L76.512,54.876 L75.468,56.216 L74.449,57.595 L73.454,59.01 L72.481,60.466 L71.536,61.955 L70.613,63.477 L69.715,65.034 L68.845,66.622 L68,68.237 L67.18,69.884 L66.388,71.556 L65.62,73.251 L64.88,74.974 L64.168,76.717 L63.481,78.48 L62.822,80.265 L62.193,82.066 L61.591,83.883 L61.017,85.717 L60.474,87.564 L59.959,89.422 L59.474,91.293 L59.02,93.172 L58.595,95.058 L58.201,96.953 L57.841,98.851 L57.51,100.752 L57.211,102.658 L56.947,104.562 L56.713,106.465 L56.514,108.369 L56.349,110.266 L56.217,112.159 L56.121,114.047 L56.06,115.925 L56.033,117.794 L56.043,119.654 L56.091,121.5 L56.173,123.332 L56.294,125.152 L56.453,126.952 L56.649,128.735 L56.885,130.501 L57.161,132.243 L57.475,133.964 L57.831,135.664 L58.229,137.335 L58.666,138.981 L59.147,140.601 L59.672,142.187 L60.238,143.745 L60.85,145.272 L61.508,146.761 L62.208,148.216 L62.958,149.636 L63.754,151.012 L64.596,152.35 L65.489,153.647 L66.43,154.894 L67.418,156.098 L68.459,157.256 L69.547,158.359 L70.684,159.413 L71.877,160.413 L73.119,161.351 L74.409,162.233 L75.756,163.056 L77.151,163.81 L78.593,164.503 L80.092,165.129 L81.637,165.683 L83.228,166.17 L84.875,166.585 L86.567,166.924 L88.304,167.192 L90.096,167.384 L91.919,167.495 L93.889,167.562 L95.817,167.598 L97.713,167.605 L99.581,167.586 L101.422,167.537 L103.231,167.46 L105.013,167.357 L106.768,167.226 L108.492,167.067 L110.19,166.884 L111.86,166.672 L113.5,166.435 L115.114,166.173 L116.701,165.885 L118.258,165.57 L119.789,165.233 L121.294,164.87 L122.77,164.482 L124.219,164.071 L125.643,163.635 L127.038,163.176 L128.407,162.694 L129.751,162.189 L131.065,161.66 L132.355,161.111 L133.62,160.538 L134.855,159.944 L136.066,159.329 L137.252,158.692 L138.409,158.034 L139.541,157.358 L140.649,156.659 L141.729,155.941 L142.784,155.205 L143.814,154.447 L144.817,153.672 L145.795,152.88 L146.749,152.067 L147.675,151.238 L148.578,150.393 L149.456,149.528 L150.306,148.649 L151.134,147.754 L151.937,146.841 L152.713,145.914 L153.466,144.972 L154.195,144.014 L154.897,143.044 L155.577,142.06 L156.234,141.06 L156.864,140.049 L157.472,139.026 L158.056,137.989 L158.616,136.941 L159.153,135.882 L159.668,134.81 L160.157,133.728 L160.626,132.637 L161.071,131.534 L161.493,130.422 L161.894,129.302 L162.272,128.17 L162.627,127.032 L162.962,125.886 L163.275,124.729 L163.568,123.558 L163.826,122.397 L164.087,121.223 L164.305,120.035 L164.522,118.847 L164.698,117.647 L164.873,116.451 L165.01,115.244 L165.147,114.035 L165.244,112.815 L165.34,111.596 L165.397,110.368 L165.453,109.144 L165.473,107.913 L165.493,106.68 L165.475,105.44 L165.456,104.2 L165.4,102.956 L165.343,101.716 L165.253,100.472 L165.162,99.226 L165.035,97.977 L164.907,96.729 L164.744,95.48 L164.581,94.234 L164.386,92.988 L164.19,91.74 L163.96,90.494 L163.729,89.248 L163.464,88.005 L163.2,86.765 L162.906,85.528 L162.611,84.29 L162.283,83.057 L161.955,81.824 L161.595,80.598 L161.236,79.375 L160.848,78.159 L160.459,76.941 L160.04,75.733 L159.62,74.524 L159.17,73.327 L158.721,72.131 L158.245,70.947 L157.768,69.761 L157.262,68.588 L156.755,67.415 L156.221,66.256 L155.687,65.101 L155.128,63.959 L154.568,62.815 L153.98,61.689 L153.393,60.562 L152.778,59.455 L152.165,58.349 L151.528,57.262 L150.89,56.172 L150.226,55.103 L149.562,54.035 L148.873,52.989 L148.185,51.945 L147.476,50.923 L146.764,49.899 L146.029,48.899 L145.293,47.9 L144.534,46.927 L143.777,45.956 L142.999,45.011 L142.219,44.063 L141.418,43.144 L140.615,42.226 L139.791,41.337 L138.969,40.451 L138.128,39.594 L137.284,38.734 L136.42,37.908 L135.556,37.081 L134.672,36.289 L133.789,35.499 L132.889,34.742 L131.986,33.982 L131.065,33.26 L130.142,32.537 L129.202,31.854 L128.264,31.172 L127.31,30.527 L126.352,29.879 L125.378,29.274 L124.402,28.668 L123.41,28.105 L122.421,27.544 L121.418,27.023 L120.41,26.501 L119.387,26.024 L118.362,25.548 L117.324,25.119 L116.299,24.696 L115.241,24.297 L114.185,23.926 L113.124,23.581 L112.056,23.26 L110.979,22.964 L109.899,22.695 L108.812,22.451 L107.717,22.234 L106.619,22.044 L105.515,21.88 L104.404,21.744 L103.29,21.637 L102.171,21.557 L101.045,21.506 L99.917,21.485 L98.785,21.492 L97.647,21.529 L96.507,21.597 L95.365,21.693 L94.216,21.821 L93.068,21.981 L91.917,22.17 L90.76,22.393 L89.604,22.647 L88.447,22.932 L87.285,23.25 L86.124,23.602 L84.962,23.984 L83.797,24.401 L82.622,24.857 L81.117,25.493 L79.635,26.19 L78.193,26.939 L76.786,27.737 L75.413,28.588 L74.08,29.486 L72.783,30.428 L71.52,31.42 L70.298,32.455 L69.111,33.53 L67.958,34.651 L66.846,35.81 L65.768,37.006 L64.725,38.242 L63.722,39.514 L62.753,40.819 L61.818,42.16 L60.922,43.533 L60.06,44.935 L59.232,46.37 L58.442,47.833 L57.685,49.322 L56.962,50.84 L56.276,52.382 L55.622,53.947 L55.002,55.538 L54.419,57.149 L53.867,58.78 L53.349,60.433 L52.867,62.103 L52.416,63.79 L51.998,65.496 L51.615,67.215 L51.263,68.948 L50.945,70.697 L50.66,72.455 L50.407,74.225 L50.186,76.006 L49.999,77.794 L49.843,79.59 L49.719,81.394 L49.628,83.202 L49.568,85.014 L49.54,86.831 L49.545,88.649 L49.58,90.468 L49.648,92.289 L49.748,94.108 L49.877,95.924 L50.039,97.738 L50.233,99.547 L50.457,101.35 L50.713,103.149 L51.001,104.938 L51.317,106.719 L51.667,108.492 L52.047,110.252 L52.457,112.001 L52.899,113.738 L53.373,115.459 L53.875,117.166 L54.41,118.858 L54.976,120.53 L55.571,122.185 L56.198,123.821 L56.856,125.435 L57.543,127.028 L58.262,128.599 L59.012,130.144 L59.791,131.665 L60.603,133.161 L61.445,134.627 L62.316,136.066 L63.221,137.477 L64.155,138.853 L65.119,140.2 L66.116,141.515 L67.143,142.792 L68.199,144.035 L69.29,145.243 L70.409,146.409 L71.559,147.539 L72.742,148.629 L73.954,149.673 L75.196,150.677 L76.472,151.637 L77.778,152.547 L79.111,153.414 L80.48,154.232 L81.876,154.997 L83.301,155.713 L84.76,156.377 L86.245,156.984 L87.758,157.539 L89.305,158.036 L90.867,158.47 L92.369,158.844 L93.855,159.183 L95.331,159.488 L96.799,159.764 L98.26,160.008 L99.71,160.22 L101.153,160.404 L102.588,160.556 L104.012,160.677 L105.428,160.77 L106.836,160.833 L108.232,160.866 L109.62,160.872 L111.001,160.848 L112.368,160.795 L113.727,160.716 L115.078,160.608 L116.416,160.473 L117.745,160.311 L119.065,160.122 L120.372,159.907 L121.669,159.666 L122.958,159.399 L124.233,159.106 L125.498,158.789 L126.753,158.446 L127.995,158.078 L129.226,157.688 L130.448,157.272 L131.655,156.833 L132.851,156.373 L134.038,155.888 L135.21,155.38 L136.371,154.852 L137.521,154.301 L138.657,153.728 L139.781,153.136 L140.894,152.521 L141.993,151.886 L143.08,151.232 L144.155,150.556 L145.223,149.856 L146.257,149.141 L147.301,148.419 L148.318,147.658 L149.334,146.897 L150.325,146.1 L151.311,145.305 L152.274,144.477 L153.238,143.647 L154.175,142.783 L155.111,141.92 L156.02,141.023 L156.926,140.128 L157.806,139.205 L158.688,138.28 L159.542,137.325 L160.395,136.369 L161.219,135.385 L162.041,134.403 L162.837,133.396 L163.634,132.386 L164.402,131.35 L165.169,130.315 L165.907,129.254 L166.642,128.196 L167.35,127.116 L168.06,126.033 L168.739,124.929 L169.417,123.824 L170.065,122.698 L170.711,121.574 L171.33,120.433 L171.949,119.289 L172.536,118.126 L173.124,116.963 L173.679,115.783 L174.233,114.605 L174.758,113.413 L175.284,112.218 L175.778,111.008 L176.271,109.798 L176.731,108.575 L177.19,107.354 L177.619,106.122 L178.049,104.887 L178.446,103.641 L178.842,102.395 L179.204,101.139 L179.565,99.885 L179.895,98.624 L180.226,97.36 L180.522,96.088 L180.818,94.817 L181.079,93.539 L181.339,92.264 L181.567,90.984 L181.795,89.702 L181.989,88.416 L182.181,87.13 L182.338,85.841 L182.493,84.555 L182.616,83.268 L182.74,81.978 L182.826,80.688 L182.912,79.398 L182.96,78.109 L183.009,76.822 L183.023,75.539 L183.038,74.252 L183.014,72.969 L182.99,71.685 L182.928,70.407 L182.865,69.132 L182.767,67.862 L182.669,66.589 L182.532,65.324 L182.395,64.058 L182.218,62.801 L182.041,61.547 L181.827,60.303 L181.613,59.055 L181.359,57.818 L181.104,56.581 L180.809,55.357 L180.513,54.136 L180.181,52.928 L179.847,51.716 L179.472,50.519 L179.096,49.322 L178.679,48.142 L178.262,46.965 L177.807,45.804 L177.349,44.639 L176.85,43.494 L176.349,42.349 L175.805,41.224 L175.267,40.111 L174.69,38.994 L174.094,37.895 L173.476,36.809 L172.839,35.735 L172.178,34.67 L171.495,33.62 L170.792,32.582 L170.065,31.556 L169.317,30.545 L168.547,29.546 L167.754,28.561 L166.939,27.591 L166.103,26.636 L165.242,25.694 L164.359,24.77 L163.456,23.861 L162.527,22.966 L161.577,22.09 L160.605,21.23 L159.608,20.385 L158.589,19.56 L157.549,18.752 L156.483,17.961 L155.396,17.19 L154.287,16.437 L153.152,15.703 L151.995,14.989 L150.816,14.294 L149.612,13.619 L148.385,12.965 L147.137,12.331 L145.863,11.718 L144.566,11.127 L143.247,10.557 L141.903,10.008 L140.536,9.483 L139.147,8.979 L137.732,8.498 L136.294,8.041 L134.834,7.607 L133.348,7.196 L131.839,6.81 L130.308,6.447 L128.75,6.109 L127.17,5.796 L125.566,5.508 L123.937,5.245 L122.284,5.008 L120.608,4.797 L118.906,4.611 L117.18,4.454 L115.431,4.321 L113.656,4.216 L111.853,4.14 L110.142,4.099 L108.434,4.1 L106.739,4.142 L105.053,4.222 L103.375,4.343 L101.71,4.504 L100.054,4.701 L98.407,4.937 L96.773,5.212 L95.149,5.522 L93.535,5.87 L91.934,6.255 L90.344,6.673 L88.763,7.128 L87.197,7.619 L85.641,8.141 L84.096,8.7 L82.565,9.291 L81.046,9.914 L79.537,10.57 L78.043,11.259 L76.56,11.976 L75.088,12.727 L73.632,13.508 L72.187,14.316 L70.754,15.156 L69.336,16.025 L67.93,16.92 L66.536,17.845 L65.157,18.798 L63.791,19.775 L62.437,20.781 L61.098,21.813 L59.772,22.868 L58.459,23.951 L57.161,25.058 L55.876,26.187 L54.604,27.342 L53.348,28.52 L52.105,29.719 L50.875,30.943 L49.661,32.187 L48.461,33.452 L47.274,34.74 L46.103,36.047 L44.946,37.374 L43.803,38.722 L42.676,40.088 L41.563,41.472 L40.464,42.876 L39.381,44.297 L38.313,45.734 L37.259,47.19 L36.218,48.667 L35.206,50.156 L34.189,51.651 L33.204,53.177 L32.22,54.704 L31.267,56.26 L30.315,57.813 L29.393,59.393 L28.47,60.974 L27.579,62.58 L26.689,64.187 L25.832,65.818 L24.976,67.447 L24.149,69.096 L23.323,70.747 L22.53,72.418 L21.738,74.09 L20.98,75.78 L20.222,77.468 L19.497,79.172 L18.77,80.877 L18.079,82.598 L17.387,84.318 L16.731,86.051 L16.076,87.783 L15.453,89.525 L14.83,91.269 L14.242,93.023 L13.655,94.776 L13.105,96.537 L12.555,98.297 L12.038,100.062 L11.522,101.828 L11.042,103.599 L10.562,105.371 L10.121,107.144 L9.679,108.915 L9.273,110.688 L8.866,112.462 L8.497,114.235 L8.129,116.008 L7.8,117.777 L7.471,119.546 L7.178,121.309 L6.886,123.075 L6.632,124.834 L6.379,126.594 L6.166,128.345 L5.953,130.094 L5.777,131.834 L5.602,133.576 L5.467,135.306 L5.332,137.036 L5.239,138.753 L5.146,140.467 L5.091,142.167 L5.036,143.87 L5.024,145.556 L5.012,147.242 L5.042,148.908 L5.073,150.567 L5.133,152.224 L5.215,153.866 L5.319,155.496 L5.443,157.115 L5.59,158.723 L5.758,160.318 L5.947,161.9 L6.159,163.471 L6.394,165.026 L6.649,166.569 L6.927,168.098 L7.229,169.61 L7.551,171.108 L7.897,172.592 L8.267,174.057 L8.658,175.507 L9.073,176.942 L9.512,178.356 L9.973,179.754 L10.459,181.135 L10.968,182.495 L11.5,183.837 L12.057,185.16 L12.639,186.461 L13.243,187.743 L13.874,189.004 L14.529,190.242 L15.207,191.459 L15.912,192.655 L16.642,193.825 L17.395,194.973 L18.176,196.098 L18.982,197.195 L19.811,198.27 L20.669,199.319 L21.552,200.34 L22.459,201.336 L23.395,202.305 L24.356,203.244 L25.342,204.156 L26.356,205.04 L27.396,205.892 L28.46,206.716 L29.553,207.51 L30.672,208.27 L31.815,209 L32.987,209.698 L34.185,210.361 L35.407,210.993 L36.658,211.591 L37.934,212.153 L39.235,212.682 L40.564,213.176 L41.919,213.632 L43.297,214.054 L44.705,214.439 L46.137,214.786 L47.594,215.097 L49.08,215.37 L50.589,215.603 L52.124,215.8 L53.687,215.957 L55.275,216.073 L56.887,216.153 L58.528,216.19 L60.194,216.187 L61.884,216.145 L63.604,216.06 L65.348,215.933 L67.117,215.767 L68.916,215.556 L70.739,215.303 L72.588,215.008 L74.467,214.669 L76.371,214.285 L78.3,213.86 L80.253,213.39 L81.253,213.13 L82.247,212.871 L83.985,212.39 L85.727,211.91 L87.435,211.413 L89.144,210.916 L90.819,210.404 L92.493,209.891 L94.137,209.366 L95.782,208.839 L97.394,208.298 L99.007,207.756 L100.586,207.2 L102.165,206.644 L103.714,206.074 L105.265,205.505 L106.783,204.921 L108.301,204.336 L109.788,203.738 L111.273,203.14 L112.729,202.53 L114.186,201.919 L115.612,201.294 L117.038,200.67 L118.433,200.033 L119.827,199.396 L121.192,198.748 L122.559,198.098 L123.895,197.436 L125.23,196.774 L126.535,196.099 L127.839,195.425 L129.115,194.739 L130.392,194.053 L131.639,193.354 L132.886,192.656 L134.103,191.945 L135.319,191.236 L136.507,190.515 L137.697,189.794 L138.856,189.062 L140.016,188.329 L141.147,187.586 L142.276,186.843 L143.378,186.09 L144.482,185.336 L145.557,184.572 L146.631,183.807 L147.677,183.032 L148.721,182.259 L149.74,181.475 L150.759,180.691 L151.75,179.897 L152.741,179.103 L153.704,178.299 L154.665,177.496 L155.601,176.685 L156.538,175.873 L157.447,175.051 L158.356,174.229 L159.237,173.399 L160.117,172.57 L160.972,171.732 L161.828,170.894 L162.657,170.047 L163.486,169.2 L164.288,168.345 L165.088,167.492 L165.864,166.631 L166.641,165.769 L167.391,164.899 L168.141,164.029 L168.865,163.152 L169.587,162.276 L170.285,161.394 L170.985,160.51 L171.658,159.62 L172.331,158.729 L172.978,157.832 L173.624,156.936 L174.247,156.035 L174.87,155.132 L175.468,154.224 L176.066,153.315 L176.638,152.4 L177.21,151.487 L177.758,150.569 L178.307,149.65 L178.832,148.725 L179.356,147.8 L179.855,146.871 L180.354,145.943 L180.83,145.01 L181.306,144.076 L181.759,143.138 L182.211,142.2 L182.639,141.257 L183.066,140.317 L183.472,139.372 L183.878,138.427 L184.26,137.477 L184.645,136.521 L185.359,134.624 L186.033,132.716 L186.661,130.799 L187.243,128.88 L187.782,126.957 L188.277,125.028 L188.727,123.098 L189.136,121.165 L189.502,119.228 L189.823,117.292 L190.105,115.354 L190.345,113.414 L190.543,111.476 L190.702,109.539 L190.82,107.601 L190.897,105.666 L190.937,103.733 L190.937,101.801 L190.897,99.874 L190.822,97.951 L190.707,96.03 L190.555,94.116 L190.367,92.206 L190.141,90.301 L189.879,88.403 L189.583,86.512 L189.251,84.627 L188.883,82.751 L188.484,80.883 L188.049,79.023 L187.58,77.173 L187.08,75.332 L186.546,73.501 L185.98,71.682 L185.383,69.873 L184.754,68.075 L184.094,66.291 L183.405,64.518 L182.685,62.758 L181.935,61.013 L181.157,59.281 L180.349,57.563 L179.512,55.862 L178.65,54.176 L177.758,52.505 L176.838,50.852 L175.894,49.215 L174.92,47.596 L173.918,45.997 L172.894,44.416 L171.842,42.854 L170.765,41.313 L169.667,39.79 L168.542,38.288 L167.395,36.809 L166.225,35.349 L165.032,33.912 L163.816,32.498 L162.581,31.106 L161.322,29.738 L160.042,28.395 L158.743,27.075 L157.423,25.779 L156.083,24.511 L154.724,23.268 L153.345,22.05 L151.949,20.862 L150.534,19.699 L149.101,18.564 L147.651,17.459 L146.185,16.382 L144.7,15.334 L143.201,14.317 L141.687,13.327 L140.156,12.369 L138.611,11.444 L137.052,10.549 L135.477,9.687 L133.889,8.86 L132.289,8.064 L130.673,7.302 L129.046,6.577 L127.408,5.884 L125.756,5.228 L124.094,4.609 L122.421,4.025 L120.736,3.479 L119.042,2.972 L117.339,2.501 L115.625,2.069 L113.903,1.678 L112.173,1.324 L110.433,1.012 L108.688,0.742 L106.935,0.511 L105.174,0.323 L103.408,0.179 L101.637,0.075 L99.858,0.015 L98.076,0 L96.29,0.027 L94.498,0.1 L92.704,0.219 L90.907,0.382 L89.105,0.593 L87.303,0.853 L85.5,1.156 L83.693,1.51 L81.887,1.913 L80.081,2.362 L78.274,2.862 L76.468,3.413 L74.664,4.012 L72.86,4.663 L71.059,5.367 L69.261,6.119 L67.464,6.926 L65.672,7.786 L63.883,8.696 L62.103,9.658 L61.207,10.172 L60.318,10.682 L59.432,11.218 L58.544,11.754 L57.659,12.319 L56.773,12.883 L55.891,13.476 L55.011,14.069 L54.133,14.687 L53.254,15.306 L52.378,15.954 L51.502,16.602 L50.63,17.279 L49.76,17.955 L48.892,18.658 L48.024,19.362 L47.159,20.096 L46.295,20.829 L45.435,21.593 L44.577,22.355 L43.722,23.145 L42.866,23.936 L42.015,24.758 L41.164,25.579 L40.318,26.431 L39.473,27.282 L38.633,28.161 L37.791,29.041 L36.955,29.952 L36.119,30.863 L35.289,31.806 L34.46,32.747 L33.635,33.717 L32.81,34.688 L31.991,35.691 L31.172,36.694 L30.358,37.729 L29.546,38.763 L28.74,39.826 L27.933,40.891 L27.132,41.988 L26.332,43.085 L25.538,44.214 L24.746,45.341 L24.114,46.267 L23.483,47.192 L22.87,48.115 L22.258,49.039 L21.663,49.961 L21.069,50.882 L20.491,51.802 L19.913,52.722 L19.353,53.641 L18.793,54.56 L18.251,55.478 L17.709,56.394 L17.184,57.309 L16.658,58.224 L16.15,59.138 L15.641,60.052 L15.151,60.963 L14.661,61.874 L14.186,62.783 L13.712,63.693 L13.254,64.6 L12.795,65.511 L11.917,67.317 L11.069,69.122 L10.254,70.923 L9.473,72.718 L8.724,74.508 L8.007,76.293 L7.324,78.071 L6.671,79.844 L6.05,81.611 L5.462,83.372 L4.904,85.126 L4.377,86.874 L3.883,88.614 L3.418,90.348 L2.984,92.075 L2.581,93.793 L2.207,95.505 L1.863,97.209 L1.551,98.904 L1.265,100.591 L1.01,102.271 L0.785,103.941 L0.588,105.602 L0.419,107.256 L0.28,108.898 L0.168,110.532 L0.084,112.157 L0.029,113.771 L0,115.375 L0,116.97 L0.027,118.553 L0.08,120.126 L0.16,121.69 L0.267,123.24 L0.399,124.78 L0.559,126.31 L0.745,127.826 L0.955,129.331 L1.191,130.825 L1.453,132.305 L1.739,133.773 L2.051,135.23 L2.387,136.672 L2.746,138.101 L3.131,139.519 L3.54,140.921 L3.971,142.31 L4.427,143.687 L4.907,145.047 L5.408,146.394 L5.933,147.728 L6.481,149.045 L7.05,150.348 L7.642,151.636 L8.257,152.908 L8.892,154.165 L9.55,155.407 L10.229,156.632 L10.928,157.841 L11.649,159.034 L12.391,160.21 L13.151,161.37 L13.934,162.513 L14.736,163.637 L15.557,164.746 L16.398,165.837 L17.259,166.909 L18.137,167.964 L19.036,169.001 L19.954,170.018 L20.888,171.018 L21.842,172 L22.814,172.961 L23.802,173.904 L24.809,174.828 L25.833,175.731 L26.873,176.615 L27.931,177.48 L29.005,178.323 L30.095,179.147 L31.202,179.951 L32.324,180.732 L33.461,181.494 L34.615,182.235 L35.784,182.953 L36.967,183.65 L38.166,184.326 L39.378,184.979 L40.604,185.611 L41.846,186.22 L43.101,186.806 L44.368,187.37 L45.651,187.911 L46.946,188.428 L48.252,188.923 L49.574,189.394 L50.906,189.841 L52.251,190.264 L53.608,190.664 L54.977,191.038 L56.356,191.389 L57.748,191.714 L59.15,192.014 L60.562,192.291 L61.987,192.541 L63.42,192.766 L64.864,192.966 L66.318,193.139 L67.782,193.286 L69.253,193.408 L70.736,193.503 L72.227,193.571 L73.726,193.613 L75.234,193.628 L76.751,193.615 L78.274,193.576 L79.807,193.508 L81.346,193.413 L82.892,193.291 L84.447,193.14 L86.007,192.96 L87.574,192.753 L89.148,192.517 L90.728,192.251 L92.313,191.958 L93.905,191.635 L95.501,191.282 L97.103,190.901 L98.71,190.489 L100.322,190.046 L101.938,189.576 L103.559,189.074 L105.184,188.541 L106.812,187.979 L108.445,187.385 L110.081,186.759 L111.719,186.105 L113.362,185.417 L115.006,184.698 L116.653,183.949 L118.303,183.166 L119.954,182.351 L121.607,181.506 L123.263,180.626 L124.919,179.714 L126.576,178.771 L128.236,177.793 L129.895,176.782 L131.554,175.739 L133.215,174.662 L134.876,173.55 L136.532,172.408 L137.366,171.816 L138.196,171.227 L139.026,170.619 L139.855,170.013 L140.684,169.39 L141.514,168.766 L142.343,168.125 L143.172,167.484 L144,166.825 L144.828,166.166 L145.655,165.491 L146.483,164.815 L147.31,164.122 L148.137,163.428 L148.963,162.716 L149.788,162.004 L150.612,161.276 L151.437,160.548 L152.261,159.801 L153.085,159.054 L153.907,158.288 L154.729,157.523 L155.55,156.741 L156.371,155.959 L157.191,155.158 L158.011,154.356 L158.829,153.537 L159.646,152.717 L160.462,151.881 L161.279,151.043 L162.093,150.187 L162.908,149.331 L163.721,148.456 L164.533,147.581 L165.343,146.689 L166.154,145.797 L166.962,144.885 L167.771,143.973 L168.577,143.042 L169.383,142.111 L170.187,141.163 L170.991,140.214 L171.793,139.245 L172.594,138.277 L173.393,137.288 L174.192,136.301 L174.988,135.295 L175.784,134.289 L176.578,133.263 L177.372,132.237 L178.162,131.191 L178.953,130.146 L179.74,129.082 L180.528,128.018 L181.313,126.933 L182.097,125.849 L182.879,124.745 L183.656,123.647 C184.14,122.961 183.978,122.013 183.293,121.528 C182.607,121.043 181.658,121.206 181.174,121.891 L180.397,122.989 L179.625,124.08 L178.85,125.151 L178.075,126.222 L177.297,127.273 L176.519,128.325 L175.738,129.358 L174.957,130.391 L174.174,131.403 L173.391,132.416 L172.605,133.409 L171.819,134.402 L171.03,135.378 L170.242,136.353 L169.452,137.308 L168.661,138.263 L167.869,139.198 L167.075,140.134 L166.28,141.053 L165.486,141.971 L164.689,142.869 L163.893,143.768 L163.094,144.647 L162.295,145.527 L161.494,146.389 L160.694,147.251 L159.893,148.093 L159.091,148.936 L158.287,149.76 L157.484,150.584 L156.678,151.391 L155.874,152.198 L155.068,152.986 L154.262,153.773 L153.455,154.542 L152.647,155.312 L151.838,156.065 L151.03,156.817 L150.221,157.551 L149.412,158.285 L148.602,159 L147.791,159.716 L146.98,160.416 L146.169,161.115 L145.358,161.795 L144.547,162.476 L143.735,163.139 L142.923,163.802 L142.11,164.449 L141.298,165.095 L140.485,165.724 L139.673,166.352 L138.86,166.963 L138.047,167.574 L137.233,168.17 L136.421,168.764 L135.608,169.342 L134.798,169.917 L133.17,171.039 L131.545,172.127 L129.921,173.181 L128.298,174.201 L126.675,175.19 L125.055,176.145 L123.436,177.066 L121.819,177.957 L120.204,178.815 L118.592,179.64 L116.981,180.435 L115.374,181.197 L113.769,181.927 L112.168,182.628 L110.57,183.297 L108.976,183.934 L107.385,184.543 L105.799,185.12 L104.216,185.666 L102.638,186.184 L101.065,186.671 L99.496,187.128 L97.933,187.557 L96.375,187.956 L94.823,188.326 L93.275,188.668 L91.735,188.981 L90.2,189.265 L88.671,189.522 L87.15,189.751 L85.635,189.95 L84.126,190.125 L82.626,190.27 L81.132,190.388 L79.646,190.481 L78.168,190.546 L76.698,190.583 L75.236,190.596 L73.783,190.582 L72.338,190.542 L70.902,190.477 L69.476,190.385 L68.058,190.268 L66.649,190.127 L65.251,189.96 L63.862,189.767 L62.483,189.552 L61.116,189.311 L59.758,189.046 L58.41,188.757 L57.074,188.445 L55.749,188.108 L54.435,187.749 L53.133,187.366 L51.843,186.959 L50.564,186.531 L49.298,186.08 L48.044,185.605 L46.801,185.109 L45.573,184.591 L44.357,184.05 L43.154,183.488 L41.965,182.905 L40.79,182.299 L39.627,181.673 L38.48,181.027 L37.346,180.358 L36.226,179.67 L35.122,178.961 L34.032,178.231 L32.956,177.483 L31.897,176.714 L30.853,175.924 L29.824,175.116 L28.812,174.289 L27.816,173.442 L26.835,172.576 L25.872,171.692 L24.925,170.788 L23.994,169.867 L23.082,168.928 L22.187,167.969 L21.308,166.994 L20.449,166.001 L19.607,164.99 L18.782,163.962 L17.977,162.917 L17.19,161.854 L16.421,160.775 L15.673,159.681 L14.943,158.568 L14.232,157.44 L13.542,156.297 L12.871,155.136 L12.22,153.96 L11.59,152.77 L10.981,151.563 L10.391,150.341 L9.823,149.105 L9.277,147.853 L8.751,146.587 L8.247,145.308 L7.766,144.012 L7.305,142.704 L6.868,141.382 L6.453,140.045 L6.06,138.695 L5.691,137.333 L5.345,135.955 L5.022,134.566 L4.723,133.165 L4.448,131.749 L4.196,130.322 L3.97,128.883 L3.768,127.431 L3.589,125.967 L3.437,124.493 L3.31,123.005 L3.207,121.507 L3.13,119.998 L3.08,118.477 L3.055,116.946 L3.056,115.404 L3.085,113.851 L3.139,112.289 L3.221,110.717 L3.331,109.133 L3.467,107.541 L3.631,105.939 L3.824,104.327 L4.043,102.707 L4.292,101.078 L4.57,99.439 L4.875,97.791 L5.209,96.137 L5.574,94.472 L5.967,92.8 L6.39,91.121 L6.844,89.433 L7.327,87.738 L7.84,86.036 L8.386,84.326 L8.96,82.609 L9.566,80.887 L10.205,79.156 L10.873,77.42 L11.574,75.678 L12.308,73.929 L13.072,72.174 L13.869,70.415 L14.701,68.649 L15.564,66.875 L16.011,65.99 L16.459,65.103 L16.924,64.213 L17.39,63.322 L17.871,62.428 L18.352,61.536 L18.85,60.641 L19.349,59.747 L19.865,58.85 L20.381,57.952 L20.914,57.052 L21.446,56.154 L21.995,55.253 L22.545,54.352 L23.113,53.449 L23.681,52.546 L24.265,51.64 L24.85,50.736 L25.452,49.83 L26.054,48.924 L26.675,48.016 L27.294,47.11 L28.076,46 L28.855,44.894 L29.641,43.821 L30.426,42.748 L31.217,41.707 L32.009,40.666 L32.806,39.654 L33.602,38.643 L34.403,37.664 L35.205,36.685 L36.011,35.739 L36.819,34.791 L37.63,33.872 L38.441,32.953 L39.257,32.067 L40.073,31.18 L40.893,30.324 L41.714,29.468 L42.539,28.639 L43.362,27.811 L44.19,27.014 L45.018,26.217 L45.85,25.45 L46.682,24.682 L47.519,23.942 L48.353,23.202 L49.192,22.493 L50.03,21.783 L50.871,21.102 L51.714,20.421 L52.559,19.766 L53.403,19.112 L54.25,18.487 L55.097,17.862 L55.946,17.266 L56.797,16.668 L57.65,16.097 L58.502,15.526 L59.355,14.984 L60.209,14.442 L61.065,13.927 L61.922,13.411 L62.781,12.921 L63.632,12.435 L65.355,11.506 L67.077,10.635 L68.8,9.811 L70.524,9.041 L72.251,8.323 L73.98,7.651 L75.707,7.031 L77.436,6.461 L79.166,5.937 L80.893,5.462 L82.621,5.036 L84.348,4.654 L86.073,4.32 L87.797,4.032 L89.519,3.788 L91.237,3.59 L92.954,3.438 L94.668,3.326 L96.377,3.26 L98.084,3.238 L99.786,3.255 L101.482,3.317 L103.175,3.422 L104.863,3.566 L106.543,3.75 L108.219,3.977 L109.889,4.24 L111.55,4.544 L113.206,4.888 L114.854,5.267 L116.492,5.685 L118.124,6.142 L119.747,6.634 L121.359,7.162 L122.963,7.728 L124.558,8.327 L126.141,8.962 L127.714,9.633 L129.276,10.335 L130.826,11.072 L132.364,11.843 L133.891,12.645 L135.403,13.479 L136.903,14.346 L138.391,15.243 L139.862,16.17 L141.32,17.13 L142.764,18.118 L144.19,19.136 L145.601,20.184 L146.997,21.259 L148.375,22.362 L149.736,23.493 L151.081,24.65 L152.406,25.832 L153.714,27.043 L155.005,28.276 L156.274,29.535 L157.525,30.819 L158.757,32.126 L159.967,33.456 L161.157,34.81 L162.327,36.185 L163.474,37.581 L164.599,39.001 L165.703,40.44 L166.783,41.898 L167.84,43.379 L168.875,44.877 L169.884,46.393 L170.869,47.93 L171.831,49.483 L172.767,51.052 L173.679,52.639 L174.567,54.24 L175.428,55.857 L176.261,57.491 L177.069,59.139 L177.847,60.8 L178.598,62.477 L179.322,64.167 L180.016,65.868 L180.68,67.583 L181.317,69.31 L181.922,71.046 L182.496,72.796 L183.042,74.555 L183.554,76.322 L184.035,78.101 L184.486,79.888 L184.903,81.683 L185.286,83.486 L185.639,85.297 L185.957,87.113 L186.24,88.937 L186.491,90.767 L186.706,92.601 L186.885,94.441 L187.032,96.285 L187.141,98.132 L187.213,99.984 L187.251,101.839 L187.251,103.695 L187.212,105.554 L187.138,107.415 L187.024,109.276 L186.871,111.138 L186.68,113.001 L186.45,114.862 L186.178,116.723 L185.869,118.583 L185.518,120.44 L185.125,122.296 L184.693,124.15 L184.218,125.999 L183.699,127.846 L183.14,129.689 L182.538,131.525 L181.89,133.359 L181.199,135.193 L180.834,136.097 L180.468,137.007 L180.078,137.914 L179.687,138.823 L179.275,139.728 L178.864,140.632 L178.429,141.531 L177.995,142.431 L177.536,143.327 L177.077,144.225 L176.596,145.119 L176.116,146.011 L175.612,146.898 L175.108,147.786 L174.58,148.669 L174.051,149.554 L173.499,150.434 L172.948,151.312 L172.373,152.186 L171.797,153.059 L171.197,153.927 L170.595,154.797 L169.971,155.661 L169.347,156.524 L168.699,157.381 L168.05,158.238 L167.375,159.089 L166.7,159.941 L166,160.787 L165.303,161.633 L164.578,162.471 L163.854,163.31 L163.103,164.141 L162.352,164.974 L161.575,165.801 L160.801,166.626 L159.999,167.444 L159.198,168.262 L158.369,169.072 L157.539,169.883 L156.684,170.688 L155.831,171.491 L154.95,172.286 L154.069,173.081 L153.16,173.868 L152.25,174.655 L151.314,175.435 L150.38,176.214 L149.418,176.984 L148.455,177.754 L147.464,178.515 L146.472,179.277 L145.454,180.03 L144.437,180.782 L143.391,181.525 L142.345,182.267 L141.27,183 L140.194,183.734 L139.091,184.458 L137.989,185.182 L136.858,185.895 L135.727,186.608 L134.566,187.31 L133.404,188.013 L132.214,188.706 L131.026,189.399 L129.807,190.08 L128.588,190.761 L127.339,191.431 L126.089,192.101 L124.811,192.761 L123.534,193.42 L122.226,194.067 L120.918,194.714 L119.579,195.349 L118.239,195.984 L116.87,196.608 L115.503,197.232 L114.104,197.842 L112.704,198.452 L111.273,199.049 L109.841,199.646 L108.38,200.231 L106.919,200.816 L105.427,201.387 L103.935,201.958 L102.41,202.515 L100.884,203.072 L99.328,203.617 L97.774,204.161 L96.187,204.691 L94.599,205.221 L92.979,205.736 L91.358,206.252 L89.706,206.754 L88.055,207.255 L86.371,207.741 L84.688,208.228 L82.97,208.699 L81.249,209.17 L80.289,209.418 L79.335,209.665 L77.441,210.118 L75.58,210.524 L73.748,210.89 L71.947,211.212 L70.174,211.491 L68.429,211.73 L66.715,211.927 L65.03,212.083 L63.371,212.2 L61.744,212.277 L60.144,212.314 L58.571,212.315 L57.03,212.276 L55.515,212.199 L54.026,212.087 L52.569,211.938 L51.137,211.752 L49.731,211.532 L48.356,211.277 L47.006,210.986 L45.682,210.663 L44.387,210.306 L43.117,209.914 L41.872,209.492 L40.656,209.038 L39.463,208.55 L38.295,208.034 L37.155,207.486 L36.038,206.906 L34.945,206.298 L33.879,205.66 L32.836,204.991 L31.815,204.295 L30.822,203.571 L29.85,202.816 L28.901,202.035 L27.977,201.227 L27.076,200.389 L26.196,199.526 L25.341,198.638 L24.509,197.72 L23.697,196.778 L22.91,195.812 L22.145,194.818 L21.401,193.8 L20.681,192.759 L19.983,191.691 L19.306,190.6 L18.653,189.488 L18.021,188.349 L17.41,187.19 L16.823,186.009 L16.257,184.803 L15.712,183.578 L15.19,182.333 L14.69,181.064 L14.211,179.777 L13.754,178.47 L13.319,177.143 L12.904,175.797 L12.512,174.434 L12.142,173.05 L11.792,171.65 L11.464,170.234 L11.158,168.8 L10.872,167.349 L10.608,165.884 L10.366,164.402 L10.143,162.906 L9.942,161.396 L9.762,159.87 L9.602,158.332 L9.464,156.782 L9.347,155.217 L9.249,153.64 L9.172,152.053 L9.117,150.459 L9.09,148.837 L9.063,147.223 L9.078,145.589 L9.092,143.954 L9.148,142.302 L9.205,140.646 L9.298,138.976 L9.391,137.308 L9.525,135.625 L9.659,133.942 L9.834,132.247 L10.008,130.549 L10.219,128.841 L10.429,127.135 L10.679,125.421 L10.929,123.705 L11.218,121.983 L11.507,120.259 L11.831,118.53 L12.155,116.803 L12.517,115.073 L12.879,113.342 L13.28,111.61 L13.68,109.875 L14.114,108.142 L14.548,106.409 L15.019,104.679 L15.49,102.949 L15.998,101.223 L16.506,99.495 L17.047,97.773 L17.588,96.052 L18.164,94.339 L18.74,92.626 L19.352,90.922 L19.964,89.217 L20.608,87.522 L21.252,85.829 L21.93,84.149 L22.608,82.469 L23.32,80.804 L24.032,79.137 L24.776,77.486 L25.518,75.837 L26.294,74.206 L27.069,72.575 L27.878,70.965 L28.686,69.353 L29.525,67.761 L30.362,66.172 L31.231,64.606 L32.101,63.041 L33.001,61.502 L33.903,59.961 L34.833,58.446 L35.761,56.932 L36.721,55.448 L37.68,53.965 L38.669,52.513 L39.663,51.054 L40.669,49.628 L41.693,48.216 L42.732,46.821 L43.785,45.442 L44.85,44.083 L45.931,42.742 L47.025,41.418 L48.131,40.116 L49.252,38.833 L50.386,37.569 L51.532,36.327 L52.693,35.106 L53.866,33.905 L55.05,32.727 L56.249,31.572 L57.46,30.438 L58.682,29.329 L59.918,28.243 L61.166,27.181 L62.425,26.144 L63.697,25.132 L64.98,24.144 L66.274,23.183 L67.582,22.249 L68.9,21.339 L70.229,20.458 L71.571,19.605 L72.923,18.777 L74.285,17.98 L75.659,17.211 L77.044,16.47 L78.439,15.759 L79.846,15.079 L81.263,14.427 L82.689,13.807 L84.127,13.219 L85.576,12.66 L87.032,12.135 L88.501,11.642 L89.98,11.179 L91.467,10.751 L92.966,10.357 L94.475,9.995 L95.991,9.668 L97.52,9.377 L99.058,9.119 L100.604,8.897 L102.162,8.712 L103.73,8.561 L105.304,8.448 L106.892,8.373 L108.488,8.333 L110.091,8.333 L111.711,8.372 L113.441,8.446 L115.146,8.547 L116.827,8.675 L118.484,8.826 L120.113,9.004 L121.718,9.207 L123.299,9.434 L124.853,9.685 L126.383,9.961 L127.89,10.259 L129.369,10.58 L130.825,10.926 L132.258,11.292 L133.664,11.681 L135.047,12.094 L136.407,12.526 L137.741,12.98 L139.052,13.456 L140.341,13.951 L141.604,14.467 L142.844,15.004 L144.063,15.559 L145.255,16.134 L146.426,16.729 L147.576,17.342 L148.7,17.973 L149.802,18.623 L150.884,19.291 L151.94,19.975 L152.976,20.678 L153.991,21.398 L154.981,22.133 L155.95,22.887 L156.899,23.656 L157.824,24.44 L158.729,25.241 L159.614,26.057 L160.475,26.887 L161.316,27.734 L162.137,28.594 L162.935,29.468 L163.713,30.358 L164.472,31.26 L165.209,32.175 L165.925,33.106 L166.622,34.048 L167.297,35.002 L167.953,35.97 L168.589,36.95 L169.204,37.941 L169.799,38.945 L170.376,39.959 L170.931,40.984 L171.463,42.013 L171.976,43.075 L172.484,44.125 L172.951,45.196 L173.419,46.267 L173.846,47.358 L174.275,48.452 L174.667,49.562 L175.059,50.669 L175.411,51.793 L175.764,52.917 L176.077,54.057 L176.392,55.2 L176.67,56.356 L176.949,57.51 L177.189,58.676 L177.428,59.843 L177.63,61.022 L177.833,62.204 L178,63.396 L178.168,64.585 L178.297,65.783 L178.427,66.982 L178.52,68.188 L178.613,69.399 L178.671,70.615 L178.731,71.828 L178.753,73.047 L178.775,74.267 L178.761,75.491 L178.747,76.718 L178.7,77.947 L178.654,79.174 L178.571,80.403 L178.489,81.632 L178.371,82.862 L178.253,84.095 L178.104,85.327 L177.954,86.556 L177.77,87.783 L177.586,89.011 L177.367,90.235 L177.148,91.462 L176.898,92.685 L176.649,93.906 L176.365,95.12 L176.082,96.335 L175.766,97.543 L175.449,98.753 L175.102,99.956 L174.756,101.156 L174.376,102.346 L173.998,103.537 L173.586,104.717 L173.175,105.899 L172.734,107.071 L172.294,108.239 L171.822,109.395 L171.351,110.55 L170.848,111.691 L170.345,112.834 L169.813,113.963 L169.283,115.089 L168.722,116.198 L168.161,117.307 L167.571,118.398 L166.979,119.49 L166.36,120.565 L165.743,121.638 L165.096,122.69 L164.449,123.741 L163.774,124.77 L163.097,125.802 L162.395,126.812 L161.694,127.82 L160.965,128.803 L160.236,129.786 L159.48,130.743 L158.722,131.702 L157.939,132.637 L157.158,133.569 L156.35,134.473 L155.543,135.377 L154.708,136.251 L153.873,137.127 L153.012,137.976 L152.156,138.822 L151.272,139.636 L150.39,140.45 L149.481,141.23 L148.571,142.013 L147.638,142.764 L146.708,143.514 L145.753,144.227 L144.799,144.941 L143.819,145.618 L142.831,146.302 L141.842,146.949 L140.836,147.581 L139.816,148.194 L138.786,148.789 L137.746,149.363 L136.693,149.918 L135.63,150.453 L134.557,150.967 L133.471,151.461 L132.376,151.935 L131.27,152.386 L130.152,152.815 L129.025,153.224 L127.888,153.61 L126.739,153.974 L125.58,154.316 L124.412,154.634 L123.231,154.929 L122.041,155.201 L120.843,155.449 L119.632,155.673 L118.412,155.873 L117.183,156.048 L115.942,156.198 L114.691,156.324 L113.433,156.423 L112.162,156.496 L110.882,156.545 L109.594,156.566 L108.294,156.56 L106.984,156.528 L105.667,156.468 L104.338,156.379 L103,156.265 L101.654,156.121 L100.296,155.947 L98.929,155.746 L97.555,155.516 L96.169,155.254 L94.774,154.964 L93.372,154.644 L91.969,154.294 L90.547,153.898 L89.166,153.452 L87.808,152.953 L86.474,152.407 L85.17,151.813 L83.889,151.167 L82.631,150.477 L81.403,149.741 L80.198,148.956 L79.016,148.13 L77.862,147.261 L76.733,146.347 L75.626,145.392 L74.549,144.399 L73.496,143.361 L72.467,142.288 L71.466,141.177 L70.491,140.027 L69.54,138.843 L68.617,137.625 L67.721,136.37 L66.85,135.084 L66.008,133.768 L65.192,132.418 L64.402,131.041 L63.642,129.637 L62.909,128.202 L62.202,126.743 L61.524,125.26 L60.875,123.751 L60.252,122.22 L59.659,120.669 L59.095,119.095 L58.558,117.503 L58.051,115.894 L57.573,114.265 L57.122,112.622 L56.702,110.965 L56.311,109.293 L55.949,107.609 L55.616,105.915 L55.314,104.21 L55.04,102.495 L54.797,100.775 L54.584,99.046 L54.399,97.312 L54.245,95.575 L54.123,93.833 L54.028,92.089 L53.965,90.347 L53.933,88.603 L53.929,86.86 L53.957,85.122 L54.017,83.387 L54.105,81.655 L54.224,79.933 L54.376,78.215 L54.556,76.506 L54.767,74.809 L55.011,73.121 L55.283,71.444 L55.587,69.783 L55.923,68.134 L56.289,66.5 L56.685,64.885 L57.114,63.287 L57.572,61.706 L58.062,60.148 L58.584,58.609 L59.135,57.092 L59.717,55.601 L60.331,54.133 L60.975,52.689 L61.649,51.275 L62.357,49.888 L63.093,48.528 L63.86,47.201 L64.659,45.904 L65.488,44.636 L66.346,43.406 L67.238,42.209 L68.158,41.044 L69.108,39.919 L70.091,38.83 L71.103,37.777 L72.144,36.766 L73.22,35.794 L74.324,34.86 L75.457,33.972 L76.626,33.125 L77.823,32.318 L79.05,31.56 L80.312,30.846 L81.605,30.175 L82.927,29.554 L84.298,28.977 L85.35,28.571 L86.407,28.193 L87.464,27.846 L88.517,27.528 L89.566,27.242 L90.613,26.985 L91.658,26.756 L92.697,26.557 L93.735,26.388 L94.77,26.244 L95.798,26.13 L96.826,26.045 L97.851,25.984 L98.869,25.952 L99.887,25.947 L100.901,25.966 L101.908,26.013 L102.915,26.086 L103.918,26.183 L104.914,26.306 L105.909,26.454 L106.9,26.626 L107.885,26.823 L108.867,27.045 L109.846,27.289 L110.817,27.557 L111.787,27.849 L112.752,28.163 L113.71,28.501 L114.654,28.857 L115.615,29.255 L116.561,29.646 L117.495,30.083 L118.431,30.519 L119.354,30.999 L120.282,31.481 L121.198,32.001 L122.111,32.52 L123.011,33.08 L123.911,33.64 L124.797,34.241 L125.687,34.844 L126.563,35.482 L127.437,36.118 L128.295,36.792 L129.155,37.466 L129.997,38.176 L130.843,38.889 L131.674,39.634 L132.502,40.377 L133.313,41.154 L134.125,41.932 L134.918,42.741 L135.714,43.554 L136.492,44.395 L137.27,45.234 L138.027,46.103 L138.785,46.972 L139.522,47.87 L140.262,48.77 L140.982,49.696 L141.701,50.619 L142.399,51.569 L143.097,52.518 L143.772,53.493 L144.45,54.47 L145.106,55.468 L145.762,56.465 L146.394,57.483 L147.026,58.502 L147.634,59.541 L148.244,60.583 L148.83,61.643 L149.417,62.7 L149.977,63.776 L150.537,64.852 L151.072,65.945 L151.608,67.04 L152.119,68.149 L152.63,69.256 L153.113,70.377 L153.596,71.498 L154.051,72.632 L154.508,73.769 L154.938,74.916 L155.367,76.06 L155.768,77.215 L156.168,78.37 L156.539,79.533 L156.91,80.699 L157.254,81.872 L157.597,83.042 L157.91,84.219 L158.222,85.395 L158.502,86.576 L158.784,87.76 L159.036,88.946 L159.287,90.13 L159.506,91.316 L159.725,92.502 L159.91,93.689 L160.096,94.878 L160.251,96.067 L160.406,97.252 L160.526,98.436 L160.647,99.62 L160.732,100.8 L160.818,101.983 L160.871,103.162 L160.925,104.337 L160.942,105.507 L160.959,106.676 L160.939,107.838 L160.92,109.002 L160.867,110.16 L160.814,111.313 L160.723,112.457 L160.633,113.599 L160.503,114.732 L160.375,115.866 L160.21,116.99 L160.046,118.11 L159.843,119.216 L159.64,120.321 L159.397,121.412 L159.152,122.515 L158.884,123.586 L158.594,124.656 L158.283,125.719 L157.954,126.774 L157.605,127.817 L157.234,128.852 L156.845,129.878 L156.435,130.891 L156.004,131.896 L155.553,132.891 L155.082,133.872 L154.588,134.844 L154.075,135.805 L153.542,136.751 L152.985,137.687 L152.408,138.612 L151.811,139.522 L151.189,140.421 L150.548,141.307 L149.885,142.177 L149.198,143.036 L148.49,143.882 L147.76,144.711 L147.005,145.527 L146.229,146.33 L145.431,147.115 L144.607,147.887 L143.761,148.644 L142.892,149.384 L141.997,150.108 L141.079,150.818 L140.138,151.509 L139.17,152.184 L138.178,152.843 L137.163,153.483 L136.12,154.106 L135.053,154.713 L133.961,155.299 L132.841,155.867 L131.696,156.417 L130.526,156.947 L129.327,157.458 L128.103,157.949 L126.853,158.419 L125.572,158.869 L124.267,159.299 L122.934,159.706 L121.572,160.092 L120.182,160.457 L118.766,160.799 L117.319,161.118 L115.845,161.415 L114.343,161.687 L112.81,161.935 L111.25,162.161 L109.661,162.361 L108.04,162.535 L106.391,162.686 L104.714,162.811 L103.004,162.909 L101.266,162.982 L99.499,163.027 L97.699,163.045 L95.87,163.037 L94.011,163.001 L92.133,162.937 L90.477,162.835 L88.895,162.665 L87.364,162.427 L85.881,162.13 L84.455,161.77 L83.077,161.347 L81.744,160.869 L80.465,160.334 L79.23,159.739 L78.036,159.093 L76.893,158.394 L75.791,157.638 L74.727,156.834 L73.711,155.981 L72.733,155.074 L71.792,154.12 L70.896,153.12 L70.039,152.066 L69.219,150.97 L68.441,149.83 L67.701,148.642 L66.997,147.413 L66.335,146.146 L65.71,144.833 L65.121,143.484 L64.573,142.1 L64.063,140.675 L63.588,139.218 L63.153,137.729 L62.755,136.206 L62.393,134.653 L62.069,133.075 L61.783,131.466 L61.531,129.832 L61.317,128.177 L61.141,126.497 L60.997,124.797 L60.891,123.08 L60.821,121.343 L60.783,119.591 L60.781,117.826 L60.814,116.046 L60.88,114.255 L60.98,112.457 L61.114,110.649 L61.278,108.834 L61.476,107.017 L61.707,105.194 L61.968,103.37 L62.261,101.547 L62.585,99.724 L62.939,97.905 L63.323,96.091 L63.738,94.283 L64.18,92.481 L64.652,90.691 L65.154,88.911 L65.682,87.142 L66.237,85.39 L66.821,83.651 L67.43,81.929 L68.066,80.228 L68.729,78.547 L69.415,76.885 L70.126,75.25 L70.863,73.639 L71.622,72.052 L72.405,70.497 L73.211,68.97 L74.039,67.472 L74.887,66.01 L75.758,64.581 L76.648,63.186 L77.557,61.831 L78.489,60.514 L79.438,59.236 L80.404,58.002 L81.39,56.812 L82.392,55.663 L83.408,54.565 L84.443,53.513 L85.492,52.508 L86.553,51.557 L87.631,50.658 L88.721,49.807 L89.82,49.016 L90.934,48.279 L92.058,47.594 L93.189,46.972 L94.334,46.407 L95.488,45.898 L96.647,45.452 L97.819,45.068 L99.001,44.741 L100.185,44.479 L101.404,44.28 L102.346,44.166 L103.287,44.05 L105.173,43.892 L107.007,43.809 L108.804,43.79 L110.557,43.842 L112.273,43.962 L113.953,44.142 L115.589,44.387 L117.189,44.695 L118.754,45.058 L120.275,45.479 L121.763,45.96 L123.215,46.491 L124.625,47.075 L126.001,47.714 L127.342,48.399 L128.642,49.132 L129.908,49.916 L131.14,50.743 L132.331,51.613 L133.487,52.53 L134.61,53.485 L135.691,54.479 L136.738,55.515 L137.75,56.586 L138.721,57.691 L139.656,58.833 L140.556,60.007 L141.414,61.209 L142.236,62.444 L143.022,63.706 L143.767,64.991 L144.473,66.305 L145.143,67.64 L145.771,68.994 L146.36,70.371 L146.912,71.766 L147.421,73.173 L147.891,74.599 L148.322,76.037 L148.711,77.484 L149.059,78.943 L149.369,80.409 L149.636,81.878 L149.861,83.354 L150.047,84.833 L150.19,86.309 L150.291,87.787 L150.353,89.263 L150.372,90.73 L150.348,92.194 L150.284,93.651 L150.178,95.094 L150.028,96.528 L149.839,97.95 L149.608,99.352 L149.332,100.741 L149.018,102.113 L148.661,103.46 L148.26,104.788 L147.82,106.094 L147.338,107.37 L146.813,108.623 L146.248,109.85 L145.643,111.041 L144.993,112.205 L144.304,113.338 L143.575,114.432 L142.802,115.493 L141.989,116.52 L141.137,117.504 L140.239,118.451 L139.301,119.361 L138.324,120.224 L137.3,121.046 L136.235,121.827 L135.13,122.559 L133.975,123.245 L132.778,123.887 L131.54,124.476 L130.248,125.014 L128.913,125.504 L127.534,125.937 L126.101,126.313 L124.621,126.637 L123.095,126.898 L121.512,127.097 L119.88,127.237 L118.201,127.31 L116.44,127.314 L115.577,127.292 L114.678,127.251 L113.764,127.193 L112.838,127.117 L111.9,127.023 L110.946,126.909 L109.98,126.778 L109.001,126.628 L108.008,126.457 L107.002,126.268 L105.984,126.059 L104.968,125.832 L103.929,125.571 L102.967,125.28 L102.05,124.954 L101.18,124.599 L100.364,124.215 L99.59,123.8 L98.857,123.358 L98.174,122.893 L97.528,122.398 L96.919,121.878 L96.354,121.338 L95.822,120.767 L95.323,120.172 L94.863,119.558 L94.435,118.913 L94.036,118.244 L93.674,117.555 L93.342,116.836 L93.039,116.094 L92.771,115.332 L92.532,114.541 L92.324,113.728 L92.148,112.898 L92.004,112.041 L91.888,111.164 L91.805,110.272 L91.754,109.356 L91.731,108.425 L91.74,107.48 L91.78,106.516 L91.848,105.539 L91.946,104.552 L92.075,103.55 L92.232,102.538 L92.418,101.52 L92.633,100.491 L92.874,99.455 L93.143,98.416 L93.44,97.37 L93.762,96.32 L94.111,95.271 L94.486,94.219 L94.885,93.166 L95.307,92.118 L95.756,91.069 L96.226,90.024 L96.719,88.986 L97.236,87.952 L97.773,86.924 L98.331,85.907 L98.911,84.897 L99.51,83.897 L100.127,82.911 L100.765,81.935 L101.42,80.972 L102.092,80.026 L102.782,79.095 L103.488,78.179 L104.209,77.283 L104.946,76.405 L105.697,75.546 L106.46,74.711 L107.238,73.896 L108.028,73.103 L108.828,72.337 L109.641,71.595 L110.464,70.877 L111.294,70.189 L112.136,69.529 L112.985,68.895 L113.839,68.295 L114.703,67.725 L115.572,67.184 L116.443,66.679 L117.323,66.207 L118.205,65.766 L119.086,65.364 L119.974,64.996 L120.863,64.663 L121.749,64.37 L122.64,64.114 L123.531,63.893 L124.416,63.714 L125.305,63.575 L126.194,63.473 L127.075,63.413 L127.961,63.395 L128.846,63.417 L129.724,63.481 L130.607,63.591 L131.489,63.743 L132.365,63.939 L133.247,64.186 L134.129,64.476 L135.006,64.816 L135.91,65.22 L136.712,65.606 L137.505,66.004 L138.273,66.405 L139.017,66.807 L139.733,67.211 L140.424,67.617 L141.092,68.025 L141.732,68.433 L142.348,68.843 L142.941,69.254 L143.507,69.665 L144.029,70.061 L145.071,70.904 L145.991,71.727 L146.823,72.553 L147.573,73.377 L148.232,74.192 L148.812,75.008 L149.32,75.819 L149.749,76.619 L150.109,77.422 L150.408,78.222 L150.639,79.012 L150.81,79.812 L150.927,80.615 L150.985,81.414 L150.986,82.228 L150.937,83.05 L150.832,83.874 L150.67,84.716 L150.459,85.568 L150.193,86.423 L149.871,87.294 L149.499,88.173 L149.076,89.055 L148.598,89.948 L148.073,90.846 L147.499,91.744 L146.875,92.648 L146.206,93.554 L145.494,94.457 L144.736,95.362 L143.939,96.265 L143.102,97.163 L142.225,98.059 L141.313,98.951 L140.368,99.834 L139.387,100.713 L138.377,101.585 L137.339,102.447 L136.271,103.3 L135.178,104.145 L134.064,104.977 L132.932,105.794 L131.756,106.604 L130.591,107.409 L129.392,108.184 L128.191,108.961 L126.966,109.706 L125.737,110.454 L124.491,111.171 L123.247,111.887 L121.992,112.566 L120.737,113.247 L119.478,113.888 L118.209,114.534 L116.957,115.146 L115.702,115.738 L114.452,116.31 L113.209,116.861 L111.976,117.389 L110.753,117.894 L109.542,118.376 L108.347,118.834 L107.168,119.266 L106.006,119.674 L104.867,120.056 L103.75,120.41 L102.655,120.739 L101.59,121.04 L100.552,121.311 L99.543,121.556 L98.571,121.77 L97.633,121.954 L96.731,122.111 L95.875,122.235 L95.06,122.329 L94.29,122.394 L93.576,122.428 L92.914,122.431 L92.306,122.409 L91.771,122.36 L91.298,122.287 L90.894,122.198 L90.579,122.1 L90.334,121.997 L90.163,121.904 L90.074,121.841 L90.026,121.792 L90.003,121.765 L90,121.758 L89.98,121.689 L89.581,120.026 L89.23,118.382 L88.927,116.766 L88.668,115.179 L88.456,113.627 L88.289,112.103 L88.163,110.609 L88.081,109.149 L88.041,107.717 L88.038,106.314 L88.075,104.945 L88.15,103.605 L88.26,102.293 L88.406,101.016 L88.587,99.766 L88.799,98.545 L89.044,97.358 L89.321,96.198 L89.626,95.066 L89.96,93.968 L90.324,92.897 L90.712,91.853 L91.126,90.844 L91.566,89.861 L92.029,88.905 L92.513,87.982 L93.021,87.086 L93.549,86.217 L94.095,85.381 L94.662,84.572 L95.245,83.789 L95.844,83.039 L96.461,82.316 L97.092,81.619 L97.734,80.955 L98.392,80.318 L99.061,79.707 L99.738,79.129 L100.428,78.577 L101.126,78.052 L101.829,77.56 L102.541,77.094 L103.259,76.655 L103.978,76.248 L104.703,75.869 L105.431,75.517 L106.156,75.195 L106.885,74.902 L107.613,74.636 L108.334,74.4 L109.056,74.193 L109.774,74.012 L110.482,73.861 L111.187,73.738 L111.885,73.642 L112.568,73.574 L113.246,73.535 L113.913,73.521 L114.563,73.535 L115.204,73.577 L115.831,73.644 L116.437,73.736 L117.032,73.856 L117.612,73.999 L118.167,74.166 L118.71,74.361 L119.234,74.577 L119.733,74.816 L120.219,75.082 L120.685,75.369 L121.126,75.677 L121.552,76.014 L121.959,76.374 L122.34,76.753 L122.706,77.165 L123.053,77.6 L123.374,78.059 L123.678,78.552 L123.961,79.073 L124.217,79.62 L124.452,80.205 L124.664,80.822 L124.846,81.468 L125.002,82.155 L125.13,82.876 L125.225,83.629 L125.287,84.425 L125.318,85.256 L125.311,86.121 L125.265,87.029 L125.182,87.972 L125.058,88.95 L124.89,89.971 L124.68,91.027 L124.425,92.118 L124.111,93.289 C123.728,94.718 124.576,96.188 126.005,96.571 C127.435,96.955 128.905,96.107 129.288,94.677 Z" id="Fill-303"></path>
        </g>
    </g>
</svg>
