<?xml version="1.0" encoding="UTF-8"?>
<svg width="312px" height="135px" viewBox="0 0 312 135" version="1.1" xmlns="http://www.w3.org/2000/svg" xmlns:xlink="http://www.w3.org/1999/xlink">
    <title>173</title>
    <g id="Page-1" stroke="none" stroke-width="1" fill="none" fill-rule="evenodd">
        <g id="173" transform="translate(0.143611, 0.315000)" fill="currentColor">
            <path d="M134.675,68.127 L135.895,68.35 L137.037,68.565 L138.113,68.77 L139.131,68.968 L140.087,69.158 L140.986,69.339 L141.836,69.512 L142.635,69.676 L143.387,69.831 L144.1,69.978 L144.773,70.117 L145.41,70.246 L146.018,70.368 L146.598,70.48 L147.153,70.583 L147.689,70.678 L148.209,70.763 L148.736,70.841 L149.698,70.96 L150.665,71.035 L151.622,71.059 L152.586,71.035 L153.575,70.956 L154.571,70.83 L155.122,70.745 L155.668,70.651 L156.234,70.546 L156.821,70.429 L157.437,70.3 L158.084,70.16 L158.763,70.008 L159.481,69.844 L160.241,69.667 L161.044,69.478 L161.896,69.276 L162.801,69.061 L163.758,68.834 L164.775,68.593 L165.856,68.338 L166.998,68.071 L168.21,67.789 L169.5,67.492 L170.635,67.228 L171.775,66.964 L172.883,66.701 L173.991,66.437 L175.067,66.175 L176.143,65.913 L177.191,65.653 L178.239,65.391 L179.256,65.132 L180.274,64.872 L181.26,64.613 L182.249,64.354 L184.164,63.84 L186.022,63.328 L187.82,62.818 L189.564,62.311 L191.252,61.806 L192.88,61.303 L194.457,60.803 L195.978,60.306 L197.443,59.811 L198.858,59.318 L200.219,58.828 L201.526,58.34 L202.784,57.854 L203.991,57.37 L205.145,56.889 L206.253,56.41 L207.313,55.931 L208.321,55.456 L209.285,54.981 L210.203,54.506 L211.072,54.034 L211.899,53.561 L212.684,53.087 L213.421,52.613 L214.119,52.138 L214.777,51.658 L215.39,51.176 L215.966,50.689 L216.505,50.192 L217,49.69 L217.458,49.178 L217.88,48.646 L218.255,48.105 L218.59,47.547 L218.882,46.96 L219.118,46.363 L219.301,45.747 L219.425,45.104 L219.482,44.464 L219.474,43.822 L219.397,43.174 L219.256,42.555 L219.058,41.959 L218.8,41.379 L218.499,40.84 L218.16,40.329 L217.777,39.841 L217.366,39.386 L216.927,38.954 L216.454,38.54 L215.959,38.149 L215.439,37.775 L214.888,37.413 L214.316,37.067 L213.72,36.734 L213.095,36.41 L212.448,36.098 L211.778,35.796 L211.08,35.501 L210.36,35.217 L209.617,34.94 L208.847,34.671 L208.055,34.41 L207.241,34.156 L206.401,33.909 L205.54,33.67 L204.658,33.437 L203.752,33.211 L202.824,32.993 L201.877,32.781 L200.908,32.576 L199.912,32.377 L198.901,32.19 L197.883,32.001 L196.825,31.826 L195.767,31.652 L194.671,31.491 L193.578,31.331 L192.452,31.183 L191.325,31.035 L190.164,30.902 L189.003,30.768 L187.81,30.649 L186.62,30.53 L185.402,30.424 L184.183,30.318 L182.936,30.226 L181.69,30.134 L180.418,30.058 L179.147,29.981 L177.856,29.918 L176.563,29.855 L175.248,29.807 L173.934,29.759 L172.601,29.726 L171.269,29.694 L169.922,29.675 L168.573,29.657 L167.21,29.654 L165.847,29.651 L164.471,29.665 L163.096,29.678 L161.712,29.706 L160.326,29.733 L158.932,29.778 L157.538,29.822 L156.138,29.883 L154.739,29.943 L153.337,30.019 L151.933,30.095 L150.527,30.188 L149.121,30.281 L147.715,30.391 L146.311,30.501 L144.909,30.627 L143.505,30.753 L142.106,30.897 L140.706,31.041 L139.314,31.203 L137.922,31.365 L136.539,31.543 L135.154,31.722 L133.78,31.919 L132.406,32.116 L131.045,32.331 L129.685,32.547 L128.34,32.779 L126.992,33.012 L125.662,33.263 L124.331,33.515 L123.02,33.786 L121.711,34.057 L120.421,34.346 L119.129,34.635 L117.861,34.944 L116.591,35.253 L115.349,35.583 L114.108,35.912 L112.892,36.259 L111.673,36.608 L110.485,36.977 L109.295,37.346 L108.139,37.737 L106.984,38.127 L105.86,38.536 L104.733,38.948 L103.642,39.381 L102.55,39.815 L101.497,40.27 L100.455,40.722 L99.42,41.197 L98.413,41.682 L97.429,42.177 L96.464,42.685 L95.518,43.205 L94.598,43.737 L93.698,44.282 L92.819,44.84 L91.966,45.411 L91.136,45.995 L90.328,46.594 L89.548,47.206 L88.793,47.832 L88.062,48.474 L87.361,49.13 L86.686,49.8 L86.038,50.489 L85.423,51.191 L84.836,51.909 L84.279,52.646 L83.757,53.397 L83.267,54.163 L82.809,54.951 L82.39,55.751 L82.005,56.567 L81.657,57.404 L81.351,58.252 L81.083,59.113 L80.855,59.996 L80.67,60.886 L80.526,61.789 L80.426,62.71 L80.371,63.636 L80.357,64.573 L80.389,65.525 L80.467,66.478 L80.579,67.398 L80.73,68.305 L80.918,69.192 L81.139,70.063 L81.4,70.924 L81.695,71.762 L82.022,72.584 L82.387,73.393 L82.784,74.179 L83.212,74.947 L83.675,75.701 L84.168,76.431 L84.689,77.143 L85.243,77.839 L85.824,78.512 L86.431,79.167 L87.069,79.806 L87.731,80.422 L88.417,81.021 L89.132,81.604 L89.869,82.166 L90.629,82.712 L91.415,83.241 L92.222,83.751 L93.05,84.245 L93.904,84.724 L94.777,85.184 L95.67,85.63 L96.586,86.061 L97.521,86.474 L98.475,86.874 L99.452,87.258 L100.446,87.627 L101.458,87.982 L102.492,88.323 L103.542,88.649 L104.609,88.962 L105.697,89.261 L106.801,89.546 L107.92,89.818 L109.059,90.077 L110.221,90.324 L111.389,90.549 L112.566,90.776 L113.777,90.978 L114.987,91.178 L116.228,91.354 L117.466,91.529 L118.732,91.682 L119.999,91.835 L121.295,91.963 L122.59,92.091 L123.913,92.196 L125.233,92.3 L126.577,92.382 L127.922,92.465 L129.292,92.524 L130.661,92.583 L132.053,92.62 L133.443,92.656 L134.853,92.672 L136.264,92.687 L137.696,92.681 L139.127,92.675 L140.577,92.646 L142.025,92.618 L143.489,92.571 L144.954,92.524 L146.435,92.455 L147.916,92.387 L149.411,92.298 L150.904,92.209 L152.41,92.101 L153.916,91.994 L155.435,91.867 L156.952,91.739 L158.481,91.592 L160.007,91.446 L161.542,91.282 L163.077,91.117 L164.62,90.934 L166.163,90.751 L167.711,90.549 L169.258,90.347 L170.809,90.128 L172.361,89.909 L173.916,89.673 L175.471,89.436 L177.027,89.182 L178.582,88.928 L180.136,88.659 L181.692,88.389 L183.246,88.103 L184.801,87.816 L186.352,87.514 L187.902,87.211 L189.447,86.894 L190.994,86.577 L192.535,86.244 L194.077,85.91 L195.61,85.562 L197.142,85.214 L198.667,84.852 L200.192,84.489 L201.706,84.11 L203.221,83.731 L204.724,83.338 L206.226,82.946 L207.715,82.54 L209.206,82.135 L210.682,81.715 L212.158,81.296 L213.618,80.863 L215.076,80.43 L216.519,79.986 L217.962,79.541 L219.387,79.084 L220.812,78.626 L222.216,78.156 L223.619,77.687 L225.002,77.206 L226.386,76.725 L227.747,76.232 L229.108,75.74 L230.444,75.235 L231.778,74.731 L233.089,74.217 L234.401,73.702 L235.685,73.177 L236.97,72.651 L238.224,72.115 L239.478,71.579 L240.704,71.034 L241.931,70.488 L243.127,69.933 L244.322,69.377 L245.484,68.811 L246.645,68.246 L247.773,67.673 L248.904,67.098 L249.998,66.515 L251.093,65.931 L252.149,65.338 L253.204,64.746 L254.223,64.146 L255.245,63.545 L256.226,62.935 L257.208,62.324 L258.147,61.706 L259.084,61.088 L259.982,60.463 L260.882,59.836 L261.739,59.202 L262.607,58.559 L264.203,57.296 L264.996,56.637 L265.752,55.983 L266.482,55.326 L267.19,54.665 L267.874,53.998 L268.531,53.327 L269.164,52.652 L269.774,51.969 L270.354,51.283 L270.91,50.593 L271.439,49.894 L271.939,49.192 L272.412,48.485 L272.858,47.769 L273.271,47.05 L273.657,46.325 L274.013,45.591 L274.335,44.853 L274.626,44.111 L274.885,43.358 L275.107,42.603 L275.297,41.844 L275.451,41.075 L275.566,40.306 L275.646,39.534 L275.688,38.753 L275.689,37.976 L275.653,37.198 L275.577,36.413 L275.459,35.635 L275.304,34.859 L275.106,34.08 L274.869,33.309 L274.594,32.542 L274.276,31.774 L273.92,31.016 L273.56,30.332 L273.161,29.656 L272.729,28.998 L272.266,28.352 L271.768,27.716 L271.239,27.096 L270.682,26.488 L270.092,25.89 L269.473,25.306 L268.828,24.733 L268.152,24.169 L267.449,23.618 L266.721,23.077 L265.963,22.545 L265.18,22.024 L264.372,21.513 L263.536,21.009 L262.675,20.517 L261.791,20.032 L260.879,19.556 L259.944,19.09 L258.987,18.631 L258.003,18.181 L256.996,17.74 L255.967,17.306 L254.914,16.881 L253.838,16.464 L252.742,16.055 L251.621,15.653 L250.48,15.26 L249.318,14.874 L248.134,14.496 L246.929,14.127 L245.706,13.764 L244.46,13.409 L243.191,13.062 L241.904,12.727 L240.612,12.391 L239.28,12.071 L237.949,11.751 L236.58,11.446 L235.213,11.142 L233.814,10.852 L232.413,10.562 L230.977,10.288 L229.542,10.013 L228.074,9.755 L226.607,9.496 L225.111,9.252 L223.615,9.008 L222.088,8.779 L220.561,8.55 L219.005,8.337 L217.451,8.124 L215.873,7.926 L214.293,7.727 L212.687,7.544 L211.082,7.362 L209.452,7.195 L207.823,7.028 L206.174,6.876 L204.524,6.724 L202.852,6.587 L201.181,6.451 L199.49,6.33 L197.799,6.21 L196.093,6.104 L194.385,5.999 L192.66,5.909 L190.936,5.819 L189.196,5.745 L187.458,5.672 L185.707,5.613 L183.955,5.554 L182.19,5.511 L180.426,5.469 L178.651,5.442 L176.877,5.416 L175.094,5.404 L173.311,5.393 L171.519,5.398 L169.728,5.403 L167.931,5.425 L166.134,5.446 L164.333,5.483 L162.532,5.519 L160.727,5.572 L158.922,5.625 L157.115,5.695 L155.309,5.765 L153.503,5.849 L151.696,5.934 L149.891,6.036 L148.085,6.137 L146.282,6.255 L144.48,6.374 L142.682,6.507 L140.883,6.641 L139.09,6.791 L137.297,6.941 L135.511,7.109 L133.726,7.276 L131.949,7.459 L130.171,7.642 L128.403,7.841 L126.635,8.041 L124.879,8.258 L123.124,8.475 L121.381,8.708 L119.638,8.94 L117.908,9.19 L116.179,9.44 L114.466,9.708 L112.754,9.975 L111.058,10.258 L109.361,10.541 L107.684,10.841 L106.006,11.142 L104.349,11.46 L102.693,11.778 L101.058,12.112 L99.421,12.447 L97.808,12.799 L96.194,13.151 L94.607,13.521 L93.02,13.89 L91.457,14.276 L89.893,14.662 L88.358,15.066 L86.821,15.471 L85.315,15.893 L83.81,16.315 L82.334,16.753 L80.856,17.192 L79.41,17.65 L77.964,18.107 L76.552,18.583 L75.142,19.058 L73.764,19.55 L72.384,20.044 L71.042,20.555 L69.698,21.067 L68.394,21.598 L67.091,22.128 L65.825,22.675 L64.555,23.224 L63.328,23.791 L62.1,24.359 L60.915,24.946 L59.738,25.53 L58.578,26.133 L57.445,26.745 L56.336,27.365 L55.248,27.995 L54.182,28.637 L53.141,29.287 L52.123,29.948 L51.127,30.619 L50.158,31.301 L49.212,31.992 L48.29,32.696 L47.396,33.409 L46.526,34.133 L45.681,34.87 L44.866,35.616 L44.076,36.373 L43.313,37.144 L42.58,37.924 L41.874,38.716 L41.196,39.522 L40.55,40.338 L39.933,41.165 L39.345,42.007 L38.792,42.859 L38.268,43.722 L37.776,44.601 L37.319,45.489 L36.895,46.388 L36.504,47.303 L36.151,48.227 L35.831,49.161 L35.547,50.111 L35.303,51.068 L35.093,52.035 L34.922,53.017 L34.791,54.005 L34.696,55.002 L34.641,56.012 L34.627,57.028 L34.65,58.051 L34.715,59.087 L34.821,60.129 L34.995,61.421 L35.213,62.699 L35.472,63.955 L35.769,65.194 L36.108,66.416 L36.486,67.616 L36.9,68.797 L37.355,69.962 L37.848,71.103 L38.375,72.226 L38.941,73.331 L39.543,74.413 L40.178,75.477 L40.851,76.522 L41.556,77.544 L42.293,78.548 L43.066,79.533 L43.87,80.495 L44.704,81.439 L45.572,82.364 L46.469,83.267 L47.394,84.151 L48.351,85.017 L49.336,85.862 L50.347,86.688 L51.389,87.496 L52.457,88.283 L53.55,89.053 L54.672,89.804 L55.819,90.535 L56.989,91.249 L58.186,91.945 L59.407,92.622 L60.65,93.282 L61.919,93.924 L63.21,94.547 L64.521,95.154 L65.858,95.743 L67.215,96.314 L68.591,96.869 L69.991,97.407 L71.411,97.927 L72.849,98.431 L74.308,98.918 L75.786,99.387 L77.282,99.841 L78.797,100.279 L80.33,100.699 L81.879,101.104 L83.447,101.492 L85.03,101.864 L86.629,102.221 L88.245,102.561 L89.881,102.886 L91.527,103.187 L93.179,103.489 L94.861,103.76 L96.542,104.03 L98.252,104.268 L99.958,104.506 L101.689,104.716 L103.42,104.925 L105.177,105.104 L106.932,105.283 L108.71,105.43 L110.486,105.578 L112.281,105.698 L114.077,105.818 L115.892,105.908 L117.706,105.997 L119.538,106.057 L121.368,106.117 L123.212,106.15 L125.057,106.183 L126.915,106.186 L128.774,106.19 L130.644,106.164 L132.512,106.138 L134.389,106.086 L136.268,106.034 L138.155,105.954 L140.041,105.874 L141.934,105.765 L143.826,105.656 L145.721,105.522 L147.618,105.388 L149.518,105.226 L151.418,105.063 L153.318,104.874 L155.217,104.684 L157.116,104.47 L159.015,104.256 L160.912,104.015 L162.809,103.773 L164.702,103.505 L166.593,103.237 L168.479,102.945 L170.366,102.653 L172.245,102.334 L174.124,102.016 L175.994,101.671 L177.862,101.327 L179.719,100.959 L181.578,100.591 L183.424,100.198 L185.269,99.804 L187.1,99.386 L188.929,98.967 L190.743,98.526 L192.558,98.085 L194.355,97.619 L196.152,97.152 L197.928,96.662 L199.703,96.171 L201.458,95.659 L203.214,95.145 L204.947,94.608 L206.68,94.071 L208.386,93.51 L210.091,92.95 L211.772,92.368 L213.454,91.785 L215.107,91.179 L216.759,90.573 L218.381,89.944 L220.002,89.315 L221.592,88.666 L223.184,88.015 L224.742,87.342 L226.3,86.668 L227.821,85.972 L229.341,85.276 L230.826,84.561 L232.313,83.844 L233.76,83.105 L235.207,82.365 L236.613,81.604 L238.012,80.846 L239.392,80.067 L240.747,79.28 L242.078,78.482 L243.388,77.674 L244.676,76.854 L245.939,76.024 L247.18,75.184 L248.397,74.332 L249.588,73.471 L250.756,72.599 L251.899,71.716 L253.014,70.822 L254.104,69.919 L255.168,69.003 L256.203,68.078 L257.212,67.143 L258.193,66.196 L259.144,65.239 L260.068,64.272 L260.962,63.292 L261.825,62.304 L262.659,61.305 L263.462,60.293 L264.231,59.273 L264.971,58.242 L265.678,57.199 L266.349,56.146 L266.989,55.084 L267.595,54.008 L268.164,52.924 L268.699,51.83 L269.199,50.723 L269.659,49.608 L270.085,48.484 L270.472,47.347 L270.819,46.202 L271.129,45.049 L271.399,43.882 L271.626,42.71 L271.815,41.529 L271.962,40.337 L272.065,39.139 L272.129,37.934 L272.148,36.718 L272.123,35.498 L272.057,34.272 L271.945,33.036 L271.788,31.796 L271.589,30.551 L271.343,29.297 L271.051,28.04 L270.716,26.779 L270.333,25.509 L269.903,24.237 L269.611,23.486 L269.269,22.744 L268.882,22.025 L268.454,21.321 L267.98,20.63 L267.467,19.961 L266.917,19.307 L266.325,18.666 L265.696,18.043 L265.034,17.435 L264.332,16.84 L263.597,16.26 L262.83,15.694 L262.025,15.139 L261.188,14.598 L260.321,14.069 L259.418,13.55 L258.483,13.045 L257.519,12.55 L256.521,12.066 L255.493,11.594 L254.437,11.131 L253.347,10.679 L252.229,10.237 L251.083,9.806 L249.905,9.383 L248.7,8.972 L247.468,8.57 L246.206,8.177 L244.917,7.794 L243.603,7.421 L242.261,7.057 L240.892,6.703 L239.499,6.357 L238.08,6.022 L236.635,5.695 L235.168,5.378 L233.674,5.07 L232.158,4.772 L230.619,4.482 L229.057,4.201 L227.472,3.931 L225.867,3.668 L224.239,3.415 L222.59,3.172 L220.921,2.937 L219.232,2.712 L217.52,2.495 L215.787,2.292 L214.051,2.089 L212.276,1.904 L210.502,1.719 L208.691,1.552 L206.883,1.386 L205.043,1.237 L203.202,1.088 L201.328,0.957 L199.456,0.826 L197.552,0.713 L195.65,0.601 L193.722,0.506 L191.794,0.41 L189.838,0.333 L187.883,0.256 L185.903,0.198 L183.925,0.139 L181.925,0.098 L179.928,0.056 L178.91,0.044 L177.904,0.033 L176.898,0.021 L175.883,0.009 L174.859,0.007 L173.844,0.005 L172.828,0.002 L171.805,0 L170.774,0.006 L169.751,0.012 L168.728,0.018 L167.696,0.024 L166.657,0.039 L165.626,0.054 L164.596,0.069 L163.556,0.085 L162.511,0.109 L161.473,0.134 L160.436,0.158 L159.392,0.182 L158.342,0.215 L157.299,0.248 L156.257,0.281 L155.207,0.314 L154.151,0.356 L153.105,0.398 L152.058,0.44 L151.003,0.482 L149.944,0.533 L148.893,0.584 L147.843,0.635 L146.785,0.687 L145.724,0.746 L144.671,0.806 L143.618,0.865 L142.557,0.925 L141.494,0.994 L140.44,1.063 L139.385,1.131 L138.322,1.2 L137.258,1.279 L136.203,1.357 L135.147,1.434 L134.085,1.513 L133.022,1.599 L131.967,1.685 L130.911,1.771 L129.848,1.858 L128.786,1.954 L127.732,2.05 L126.678,2.145 L125.615,2.241 L124.555,2.345 L123.503,2.449 L122.451,2.553 L121.391,2.657 L120.335,2.77 L119.286,2.882 L118.237,2.994 L117.179,3.107 L116.125,3.229 L115.08,3.351 L114.035,3.472 L112.982,3.594 L111.933,3.726 L110.893,3.856 L109.853,3.987 L108.805,4.118 L107.763,4.258 L106.729,4.397 L105.694,4.535 L104.651,4.675 L103.614,4.825 L102.587,4.972 L101.559,5.12 L100.523,5.27 L99.494,5.428 L98.474,5.585 L97.455,5.743 L96.427,5.901 L95.407,6.068 L94.396,6.233 L93.385,6.399 L92.364,6.566 L91.353,6.742 L90.351,6.917 L89.35,7.091 L88.338,7.267 L87.338,7.453 L86.347,7.637 L85.357,7.821 L84.354,8.007 L82.388,8.392 L80.418,8.778 L78.473,9.183 L76.528,9.588 L74.611,10.011 L72.695,10.434 L70.805,10.874 L68.914,11.315 L67.054,11.773 L65.193,12.232 L63.366,12.71 L61.54,13.187 L59.746,13.681 L57.95,14.175 L56.191,14.688 L54.431,15.201 L52.711,15.732 L50.991,16.263 L49.309,16.812 L47.625,17.361 L45.983,17.928 L44.341,18.496 L42.744,19.083 L41.151,19.667 L39.582,20.268 L38.039,20.878 L36.521,21.496 L35.024,22.124 L33.552,22.762 L32.106,23.408 L30.684,24.064 L29.287,24.73 L27.917,25.406 L26.573,26.091 L25.255,26.787 L23.966,27.492 L22.704,28.207 L21.469,28.932 L20.265,29.667 L19.088,30.411 L17.94,31.166 L16.825,31.931 L15.738,32.706 L14.681,33.492 L13.658,34.288 L12.666,35.094 L11.705,35.913 L10.779,36.741 L9.885,37.58 L9.024,38.431 L8.201,39.293 L7.41,40.165 L6.655,41.051 L5.938,41.947 L5.256,42.854 L4.612,43.776 L4.008,44.708 L3.442,45.651 L2.914,46.609 L2.431,47.577 L1.989,48.557 L1.588,49.552 L1.233,50.555 L0.92,51.569 L0.651,52.597 L0.429,53.633 L0.251,54.677 L0.12,55.736 L0.038,56.8 L0,57.872 L0.012,58.957 L0.074,60.045 L0.181,61.141 L0.339,62.247 L0.547,63.356 L0.802,64.472 L1.108,65.597 L1.464,66.723 L2.106,68.579 L2.777,70.403 L3.475,72.196 L4.2,73.961 L4.953,75.698 L5.733,77.402 L6.538,79.08 L7.37,80.729 L8.227,82.348 L9.108,83.941 L10.016,85.505 L10.949,87.039 L11.905,88.546 L12.888,90.026 L13.895,91.476 L14.925,92.899 L15.98,94.296 L17.058,95.663 L18.159,97.004 L19.283,98.318 L20.43,99.603 L21.598,100.863 L22.79,102.097 L24.003,103.302 L25.235,104.482 L26.491,105.636 L27.767,106.762 L29.062,107.865 L30.378,108.942 L31.713,109.992 L33.067,111.019 L34.442,112.019 L35.835,112.994 L37.246,113.944 L38.677,114.871 L40.125,115.771 L41.59,116.648 L43.074,117.5 L44.575,118.328 L46.091,119.133 L47.626,119.914 L49.177,120.671 L50.742,121.405 L52.325,122.117 L53.923,122.804 L55.535,123.47 L57.163,124.113 L58.805,124.733 L60.461,125.332 L62.132,125.91 L63.816,126.464 L65.513,126.998 L67.224,127.51 L68.948,128 L70.684,128.471 L72.433,128.92 L74.194,129.347 L75.966,129.756 L77.751,130.143 L79.551,130.511 L81.358,130.848 L83.169,131.187 L85.003,131.485 L86.837,131.783 L88.691,132.042 L90.544,132.301 L92.414,132.525 L94.286,132.749 L96.176,132.935 L98.066,133.12 L99.973,133.269 L101.879,133.417 L103.8,133.532 L105.722,133.647 L107.66,133.726 L109.596,133.805 L111.547,133.849 L113.497,133.893 L115.459,133.905 L117.421,133.917 L119.396,133.896 L121.37,133.875 L123.355,133.82 L125.339,133.766 L127.332,133.682 L129.326,133.598 L131.328,133.483 L133.326,133.367 L134.34,133.293 L135.339,133.221 L136.338,133.148 L137.348,133.074 L138.36,132.987 L139.362,132.901 L140.364,132.814 L141.377,132.727 L142.393,132.624 L143.397,132.523 L144.402,132.422 L145.418,132.32 L146.435,132.203 L147.442,132.088 L148.449,131.972 L149.465,131.856 L150.483,131.726 L151.491,131.598 L152.5,131.47 L153.518,131.34 L154.537,131.197 L155.547,131.055 L156.556,130.913 L157.576,130.77 L158.595,130.614 L159.605,130.459 L160.615,130.304 L161.634,130.148 L162.652,129.98 L163.662,129.813 L164.672,129.646 L165.691,129.478 L166.71,129.297 L167.719,129.118 L168.728,128.939 L169.746,128.758 L170.763,128.564 L171.771,128.373 L172.78,128.181 L173.795,127.988 L174.81,127.784 L175.816,127.582 L176.823,127.38 L177.838,127.176 L178.851,126.96 L179.855,126.746 L180.859,126.532 L181.872,126.317 L182.881,126.09 L183.883,125.865 L184.884,125.64 L185.893,125.413 L186.898,125.176 L187.897,124.941 L188.895,124.706 L189.901,124.47 L190.903,124.223 L191.898,123.977 L192.892,123.732 L193.894,123.485 L194.891,123.228 L195.881,122.973 L196.871,122.717 L197.868,122.46 L198.86,122.194 L199.845,121.93 L200.83,121.666 L201.822,121.4 L202.809,121.124 L203.789,120.85 L204.768,120.577 L205.755,120.301 L206.736,120.016 L207.709,119.734 L208.682,119.451 L209.662,119.166 L210.636,118.874 L211.603,118.583 L212.569,118.292 L213.544,118 L214.511,117.698 L215.47,117.399 L216.43,117.1 L217.399,116.798 L219.307,116.182 L221.217,115.566 L223.112,114.936 L225.007,114.305 L226.884,113.66 L228.761,113.015 L230.618,112.355 L232.476,111.696 L234.314,111.025 L236.153,110.354 L237.971,109.67 L239.789,108.985 L241.584,108.289 L243.379,107.594 L245.151,106.887 L246.925,106.181 L248.674,105.464 L250.423,104.747 L252.146,104.021 L253.868,103.294 L255.566,102.559 L257.264,101.824 L258.934,101.08 L260.605,100.336 L262.246,99.585 L263.886,98.834 L265.499,98.076 L267.112,97.318 L268.694,96.554 L270.276,95.789 L271.826,95.019 L273.375,94.249 L274.893,93.475 L276.412,92.7 L277.896,91.921 L279.38,91.141 L280.829,90.358 L282.276,89.576 L283.69,88.791 L285.105,88.005 L286.482,87.217 L287.858,86.428 L289.196,85.639 L290.533,84.849 L291.833,84.059 L293.134,83.268 L294.394,82.477 L295.654,81.685 L296.871,80.894 L298.087,80.104 L299.264,79.314 L300.442,78.524 L301.576,77.735 L302.709,76.946 L303.797,76.16 L304.881,75.376 L305.939,74.589 L306.972,73.806 L307.98,73.025 L308.966,72.245 L309.928,71.467 L310.859,70.696 C311.505,70.161 311.596,69.203 311.06,68.556 C310.525,67.91 309.567,67.819 308.92,68.355 L308.003,69.114 L307.067,69.871 L306.106,70.631 L305.122,71.394 L304.114,72.159 L303.084,72.925 L302.016,73.697 L300.951,74.468 L299.84,75.241 L298.728,76.015 L297.571,76.791 L296.413,77.568 L295.215,78.347 L294.018,79.125 L292.778,79.904 L291.537,80.683 L290.255,81.463 L288.972,82.243 L287.651,83.023 L286.332,83.802 L284.972,84.581 L283.613,85.359 L282.215,86.136 L280.817,86.912 L279.384,87.687 L277.952,88.461 L276.484,89.232 L275.016,90.003 L273.513,90.77 L272.009,91.538 L270.474,92.301 L268.941,93.063 L267.374,93.821 L265.807,94.578 L264.208,95.329 L262.609,96.081 L260.982,96.826 L259.356,97.571 L257.7,98.308 L256.044,99.045 L254.36,99.775 L252.676,100.504 L250.966,101.225 L249.258,101.946 L247.523,102.657 L245.789,103.369 L244.029,104.07 L242.269,104.771 L240.487,105.462 L238.706,106.152 L236.903,106.831 L235.099,107.51 L233.274,108.177 L231.449,108.844 L229.604,109.498 L227.761,110.153 L225.898,110.793 L224.035,111.434 L222.155,112.06 L220.274,112.686 L218.377,113.298 L216.478,113.911 L215.528,114.207 L214.569,114.506 L213.609,114.805 L212.657,115.102 L211.697,115.39 L210.73,115.681 L209.763,115.972 L208.803,116.261 L207.837,116.541 L206.864,116.824 L205.89,117.107 L204.925,117.388 L203.953,117.659 L202.974,117.933 L201.994,118.207 L201.023,118.478 L200.045,118.74 L199.06,119.005 L198.075,119.269 L197.097,119.531 L196.114,119.785 L195.125,120.04 L194.135,120.295 L193.153,120.549 L192.167,120.792 L191.172,121.037 L190.178,121.283 L189.192,121.526 L188.202,121.758 L187.203,121.993 L186.205,122.227 L185.214,122.46 L184.22,122.683 L183.219,122.908 L182.217,123.132 L181.224,123.355 L180.228,123.567 L179.224,123.78 L178.22,123.993 L177.224,124.205 L176.226,124.405 L175.219,124.607 L174.212,124.809 L173.214,125.009 L172.213,125.199 L171.205,125.39 L170.197,125.581 L169.198,125.77 L168.197,125.947 L167.188,126.126 L166.179,126.305 L165.178,126.482 L164.178,126.647 L163.168,126.813 L162.158,126.979 L161.156,127.144 L160.155,127.297 L159.145,127.452 L158.134,127.606 L157.134,127.759 L156.134,127.899 L155.125,128.04 L154.115,128.181 L153.115,128.321 L152.117,128.447 L151.108,128.574 L150.099,128.702 L149.1,128.828 L148.103,128.941 L147.096,129.056 L146.088,129.171 L145.092,129.284 L144.097,129.383 L143.093,129.484 L142.088,129.584 L141.094,129.683 L140.102,129.768 L139.1,129.854 L138.098,129.939 L137.106,130.024 L136.117,130.095 L135.118,130.167 L134.119,130.239 L133.135,130.31 L131.152,130.423 L129.174,130.535 L127.204,130.617 L125.234,130.698 L123.273,130.75 L121.313,130.802 L119.364,130.822 L117.415,130.841 L115.48,130.827 L113.543,130.813 L111.618,130.769 L109.695,130.724 L107.786,130.644 L105.878,130.565 L103.986,130.45 L102.093,130.335 L100.215,130.188 L98.338,130.04 L96.48,129.856 L94.622,129.672 L92.783,129.45 L90.944,129.228 L89.122,128.971 L87.303,128.715 L85.505,128.419 L83.707,128.124 L81.932,127.789 L80.152,127.453 L78.397,127.091 L76.65,126.709 L74.916,126.307 L73.193,125.886 L71.485,125.444 L69.789,124.981 L68.105,124.5 L66.437,123.997 L64.781,123.473 L63.139,122.93 L61.513,122.365 L59.901,121.778 L58.303,121.171 L56.722,120.542 L55.155,119.89 L53.604,119.218 L52.07,118.524 L50.552,117.807 L49.049,117.069 L47.564,116.309 L46.096,115.524 L44.644,114.719 L43.212,113.891 L41.796,113.039 L40.398,112.164 L39.019,111.267 L37.659,110.345 L36.315,109.401 L34.993,108.433 L33.689,107.439 L32.404,106.423 L31.14,105.383 L29.896,104.317 L28.671,103.226 L27.469,102.112 L26.287,100.97 L25.124,99.805 L23.985,98.615 L22.866,97.398 L21.768,96.156 L20.693,94.889 L19.641,93.594 L18.609,92.275 L17.601,90.93 L16.617,89.555 L15.654,88.156 L14.716,86.73 L13.801,85.275 L12.909,83.794 L12.042,82.286 L11.2,80.748 L10.381,79.183 L9.591,77.59 L8.826,75.966 L8.085,74.315 L7.371,72.637 L6.684,70.926 L6.021,69.189 L5.386,67.422 L4.779,65.625 L4.469,64.62 L4.208,63.632 L3.992,62.652 L3.817,61.684 L3.688,60.73 L3.603,59.784 L3.556,58.848 L3.553,57.927 L3.592,57.011 L3.668,56.104 L3.786,55.21 L3.944,54.32 L4.139,53.438 L4.374,52.567 L4.649,51.7 L4.961,50.839 L5.311,49.989 L5.701,49.141 L6.125,48.298 L6.586,47.464 L7.087,46.634 L7.624,45.808 L8.197,44.991 L8.811,44.178 L9.458,43.371 L10.142,42.572 L10.865,41.777 L11.621,40.988 L12.412,40.208 L13.241,39.434 L14.103,38.665 L14.998,37.905 L15.93,37.151 L16.894,36.404 L17.889,35.666 L18.92,34.934 L19.981,34.209 L21.072,33.493 L22.198,32.785 L23.352,32.083 L24.535,31.391 L25.751,30.706 L26.994,30.028 L28.265,29.36 L29.566,28.699 L30.893,28.045 L32.247,27.401 L33.629,26.764 L35.036,26.135 L36.469,25.515 L37.929,24.904 L39.411,24.3 L40.918,23.705 L42.446,23.121 L44.015,22.545 L45.579,21.971 L47.188,21.415 L48.798,20.859 L50.452,20.321 L52.107,19.782 L53.8,19.26 L55.492,18.737 L57.223,18.233 L58.955,17.729 L60.725,17.243 L62.496,16.757 L64.299,16.288 L66.102,15.818 L67.938,15.367 L69.775,14.916 L71.643,14.483 L73.513,14.05 L75.409,13.633 L77.305,13.217 L79.228,12.818 L81.152,12.42 L83.101,12.04 L85.055,11.659 L86.033,11.479 L87.024,11.296 L88.015,11.113 L88.995,10.932 L89.987,10.76 L90.989,10.587 L91.991,10.413 L92.983,10.241 L93.984,10.079 L94.996,9.914 L96.008,9.75 L97.011,9.587 L98.022,9.433 L99.041,9.277 L100.061,9.121 L101.071,8.966 L102.09,8.821 L103.118,8.674 L104.145,8.527 L105.164,8.382 L106.19,8.245 L107.224,8.108 L108.259,7.97 L109.285,7.834 L110.317,7.706 L111.358,7.576 L112.398,7.447 L113.429,7.319 L114.466,7.2 L115.511,7.08 L116.556,6.96 L117.593,6.841 L118.634,6.731 L119.683,6.62 L120.732,6.509 L121.774,6.399 L122.818,6.297 L123.87,6.195 L124.922,6.093 L125.966,5.991 L127.012,5.899 L128.066,5.806 L129.121,5.714 L130.167,5.622 L131.214,5.539 L132.269,5.456 L133.325,5.372 L134.373,5.289 L135.421,5.215 L136.477,5.14 L137.532,5.065 L138.58,4.99 L139.627,4.925 L140.681,4.859 L141.736,4.793 L142.783,4.728 L143.828,4.672 L144.881,4.615 L145.934,4.558 L146.98,4.502 L148.023,4.454 L149.074,4.406 L150.125,4.357 L151.167,4.309 L152.206,4.27 L153.253,4.231 L154.3,4.192 L155.339,4.153 L156.373,4.123 L157.415,4.093 L158.457,4.063 L159.492,4.034 L160.522,4.012 L161.559,3.99 L162.596,3.969 L163.625,3.947 L164.647,3.935 L165.678,3.922 L166.709,3.91 L167.731,3.898 L168.745,3.894 L169.769,3.891 L170.792,3.888 L171.807,3.884 L172.814,3.889 L173.83,3.894 L174.845,3.899 L175.851,3.904 L176.848,3.918 L177.854,3.933 L178.86,3.947 L179.854,3.961 L181.839,4.007 L183.821,4.054 L185.782,4.117 L187.743,4.18 L189.679,4.261 L191.614,4.342 L193.522,4.442 L195.431,4.541 L197.315,4.657 L199.196,4.773 L201.047,4.907 L202.898,5.041 L204.716,5.194 L206.535,5.346 L208.322,5.515 L210.108,5.684 L211.858,5.871 L213.606,6.057 L215.316,6.262 L217.031,6.468 L218.71,6.685 L220.371,6.911 L222.012,7.146 L223.632,7.389 L225.229,7.642 L226.804,7.903 L228.357,8.172 L229.885,8.45 L231.39,8.737 L232.871,9.032 L234.327,9.336 L235.757,9.649 L237.162,9.97 L238.54,10.299 L239.89,10.637 L241.216,10.984 L242.511,11.338 L243.778,11.701 L245.017,12.072 L246.225,12.452 L247.403,12.84 L248.553,13.235 L249.669,13.638 L250.754,14.05 L251.808,14.469 L252.827,14.895 L253.813,15.329 L254.767,15.77 L255.684,16.218 L256.567,16.674 L257.416,17.135 L258.226,17.602 L259.001,18.076 L259.74,18.556 L260.438,19.039 L261.099,19.53 L261.724,20.024 L262.307,20.52 L262.852,21.023 L263.359,21.527 L263.824,22.031 L264.25,22.541 L264.64,23.051 L264.988,23.559 L265.298,24.073 L265.573,24.586 L265.808,25.097 L266.008,25.616 L266.394,26.766 L266.735,27.904 L267.034,29.037 L267.293,30.162 L267.509,31.274 L267.683,32.381 L267.821,33.48 L267.917,34.567 L267.973,35.649 L267.993,36.724 L267.974,37.788 L267.916,38.848 L267.823,39.9 L267.693,40.942 L267.524,41.981 L267.323,43.013 L267.085,44.035 L266.809,45.054 L266.501,46.067 L266.158,47.07 L265.778,48.071 L265.366,49.065 L264.92,50.051 L264.438,51.033 L263.924,52.009 L263.378,52.976 L262.796,53.94 L262.183,54.897 L261.539,55.846 L260.859,56.79 L260.151,57.728 L259.411,58.657 L258.638,59.581 L257.836,60.498 L257.004,61.406 L256.14,62.308 L255.249,63.204 L254.328,64.09 L253.377,64.969 L252.399,65.842 L251.393,66.705 L250.358,67.56 L249.298,68.408 L248.212,69.247 L247.097,70.078 L245.958,70.901 L244.794,71.714 L243.603,72.519 L242.389,73.315 L241.152,74.102 L239.889,74.879 L238.605,75.648 L237.298,76.407 L235.972,77.154 L234.605,77.893 L233.244,78.629 L231.841,79.344 L230.437,80.06 L228.993,80.755 L227.546,81.452 L226.064,82.129 L224.583,82.805 L223.065,83.46 L221.546,84.116 L219.993,84.75 L218.437,85.385 L216.851,85.999 L215.267,86.614 L213.65,87.206 L212.034,87.798 L210.387,88.368 L208.739,88.938 L207.065,89.488 L205.392,90.037 L203.693,90.563 L201.994,91.089 L200.271,91.592 L198.546,92.096 L196.8,92.577 L195.056,93.059 L193.291,93.516 L191.526,93.974 L189.742,94.407 L187.956,94.84 L186.155,95.252 L184.355,95.663 L182.54,96.049 L180.725,96.435 L178.896,96.797 L177.066,97.158 L175.225,97.497 L173.386,97.835 L171.536,98.148 L169.687,98.46 L167.83,98.747 L165.971,99.035 L164.107,99.298 L162.244,99.561 L160.377,99.798 L158.509,100.035 L156.639,100.245 L154.768,100.456 L152.897,100.642 L151.026,100.828 L149.157,100.986 L147.288,101.145 L145.422,101.277 L143.554,101.408 L141.691,101.515 L139.829,101.621 L137.974,101.699 L136.119,101.778 L134.272,101.828 L132.424,101.878 L130.586,101.903 L128.749,101.928 L126.924,101.923 L125.099,101.919 L123.288,101.886 L121.476,101.854 L119.678,101.794 L117.882,101.735 L116.103,101.646 L114.325,101.558 L112.566,101.439 L110.806,101.321 L109.065,101.176 L107.326,101.031 L105.609,100.855 L103.894,100.68 L102.203,100.475 L100.511,100.269 L98.843,100.036 L97.177,99.803 L95.54,99.539 L93.903,99.276 L92.296,98.982 L90.683,98.686 L89.104,98.372 L87.536,98.041 L85.985,97.694 L84.451,97.333 L82.935,96.957 L81.438,96.565 L79.957,96.158 L78.498,95.737 L77.057,95.299 L75.635,94.846 L74.235,94.379 L72.856,93.895 L71.496,93.396 L70.161,92.883 L68.847,92.353 L67.554,91.808 L66.286,91.248 L65.042,90.672 L63.819,90.081 L62.624,89.476 L61.452,88.853 L60.305,88.216 L59.186,87.564 L58.092,86.895 L57.022,86.212 L55.983,85.514 L54.97,84.799 L53.982,84.07 L53.026,83.327 L52.097,82.566 L51.195,81.791 L50.325,81.003 L49.483,80.196 L48.67,79.376 L47.889,78.542 L47.138,77.69 L46.415,76.823 L45.727,75.943 L45.068,75.045 L44.439,74.132 L43.845,73.206 L43.282,72.261 L42.749,71.3 L42.251,70.326 L41.785,69.332 L41.351,68.322 L40.952,67.298 L40.587,66.253 L40.253,65.192 L39.956,64.115 L39.694,63.017 L39.466,61.901 L39.274,60.77 L39.119,59.613 L39.031,58.735 L38.978,57.869 L38.959,57.01 L38.972,56.161 L39.018,55.327 L39.098,54.498 L39.208,53.677 L39.35,52.87 L39.525,52.067 L39.729,51.272 L39.964,50.488 L40.232,49.708 L40.529,48.935 L40.856,48.172 L41.216,47.412 L41.604,46.658 L42.022,45.914 L42.472,45.174 L42.951,44.439 L43.459,43.714 L43.999,42.992 L44.566,42.276 L45.163,41.569 L45.791,40.866 L46.446,40.17 L47.129,39.482 L47.844,38.799 L48.584,38.122 L49.352,37.455 L50.149,36.793 L50.972,36.137 L51.822,35.491 L52.7,34.851 L53.603,34.217 L54.53,33.593 L55.486,32.975 L56.465,32.364 L57.468,31.762 L58.498,31.168 L59.55,30.58 L60.625,30.002 L61.719,29.434 L62.858,28.871 L63.99,28.312 L65.165,27.77 L66.342,27.227 L67.562,26.702 L68.785,26.175 L70.045,25.664 L71.304,25.153 L72.603,24.66 L73.903,24.166 L75.241,23.69 L76.581,23.213 L77.955,22.752 L79.327,22.291 L80.735,21.847 L82.144,21.403 L83.586,20.977 L85.03,20.55 L86.503,20.138 L87.975,19.727 L89.478,19.334 L90.981,18.94 L92.514,18.564 L94.048,18.187 L95.607,17.825 L97.164,17.464 L98.748,17.121 L100.333,16.777 L101.941,16.45 L103.552,16.123 L105.182,15.812 L106.812,15.501 L108.464,15.207 L110.115,14.913 L111.786,14.636 L113.459,14.359 L115.149,14.097 L116.837,13.836 L118.542,13.591 L120.247,13.347 L121.968,13.119 L123.689,12.891 L125.423,12.679 L127.156,12.467 L128.901,12.272 L130.647,12.076 L132.403,11.898 L134.16,11.719 L135.925,11.556 L137.689,11.392 L139.461,11.246 L141.233,11.099 L143.011,10.969 L144.79,10.839 L146.573,10.724 L148.355,10.609 L150.14,10.511 L151.925,10.413 L153.711,10.331 L155.498,10.249 L157.285,10.182 L159.072,10.115 L160.856,10.065 L162.641,10.015 L164.422,9.981 L166.204,9.946 L167.982,9.927 L169.759,9.908 L171.53,9.905 L173.3,9.902 L175.063,9.915 L176.827,9.927 L178.582,9.955 L180.336,9.982 L182.079,10.025 L183.823,10.069 L185.553,10.128 L187.285,10.188 L189.004,10.261 L190.722,10.335 L192.424,10.425 L194.126,10.515 L195.812,10.62 L197.498,10.726 L199.167,10.845 L200.835,10.965 L202.483,11.101 L204.13,11.236 L205.756,11.387 L207.383,11.538 L208.989,11.703 L210.594,11.868 L212.174,12.049 L213.753,12.229 L215.306,12.425 L216.861,12.621 L218.389,12.83 L219.917,13.04 L221.415,13.265 L222.913,13.49 L224.379,13.73 L225.847,13.97 L227.285,14.224 L228.722,14.477 L230.124,14.746 L231.526,15.014 L232.892,15.298 L234.26,15.581 L235.593,15.878 L236.925,16.175 L238.217,16.486 L239.509,16.797 L240.761,17.123 L242.019,17.45 L243.237,17.785 L244.438,18.127 L245.617,18.477 L246.776,18.833 L247.911,19.195 L249.024,19.565 L250.114,19.941 L251.18,20.323 L252.222,20.712 L253.241,21.108 L254.233,21.509 L255.2,21.917 L256.143,22.331 L257.058,22.75 L257.948,23.176 L258.811,23.607 L259.645,24.043 L260.452,24.485 L261.233,24.932 L261.982,25.383 L262.703,25.84 L263.396,26.302 L264.057,26.766 L264.689,27.235 L265.292,27.708 L265.86,28.183 L266.4,28.662 L266.91,29.144 L267.384,29.625 L267.829,30.111 L268.244,30.598 L268.625,31.083 L268.975,31.572 L269.296,32.062 L269.582,32.548 L269.84,33.039 L270.11,33.615 L270.344,34.181 L270.546,34.748 L270.72,35.31 L270.859,35.865 L270.97,36.421 L271.054,36.975 L271.107,37.523 L271.131,38.075 L271.13,38.628 L271.101,39.175 L271.043,39.73 L270.959,40.287 L270.847,40.841 L270.706,41.403 L270.539,41.969 L270.345,42.533 L270.119,43.105 L269.868,43.68 L269.589,44.256 L269.278,44.837 L268.941,45.422 L268.577,46.006 L268.182,46.596 L267.76,47.188 L267.311,47.779 L266.831,48.374 L266.326,48.97 L265.794,49.565 L265.233,50.163 L264.646,50.761 L264.034,51.357 L263.393,51.954 L262.728,52.552 L262.039,53.147 L261.337,53.731 L259.809,54.938 L259.02,55.519 L258.219,56.108 L257.371,56.691 L256.519,57.276 L255.627,57.856 L254.736,58.436 L253.801,59.009 L252.865,59.584 L251.888,60.151 L250.907,60.72 L249.89,61.283 L248.874,61.845 L247.818,62.4 L246.763,62.955 L245.67,63.502 L244.574,64.051 L243.446,64.591 L242.318,65.132 L241.157,65.663 L239.995,66.195 L238.8,66.718 L237.603,67.242 L236.377,67.756 L235.153,68.271 L233.899,68.776 L232.644,69.28 L231.361,69.775 L230.076,70.27 L228.767,70.756 L227.459,71.242 L226.125,71.716 L224.792,72.191 L223.434,72.654 L222.075,73.118 L220.696,73.571 L219.317,74.024 L217.918,74.465 L216.518,74.906 L215.1,75.334 L213.68,75.763 L212.243,76.18 L210.808,76.597 L209.356,77.001 L207.904,77.405 L206.438,77.796 L204.97,78.187 L203.49,78.565 L202.011,78.943 L200.52,79.307 L199.029,79.671 L197.528,80.021 L196.026,80.372 L194.516,80.71 L193.007,81.048 L191.49,81.37 L189.974,81.693 L188.452,82 L186.928,82.307 L185.401,82.6 L183.875,82.893 L182.346,83.169 L180.817,83.446 L179.286,83.706 L177.755,83.966 L176.223,84.211 L174.693,84.456 L173.165,84.683 L171.637,84.91 L170.111,85.12 L168.585,85.33 L167.063,85.524 L165.542,85.718 L164.028,85.894 L162.514,86.071 L161.007,86.228 L159.499,86.386 L158,86.527 L156.502,86.668 L155.014,86.789 L153.527,86.91 L152.052,87.012 L150.577,87.114 L149.113,87.198 L147.651,87.282 L146.204,87.346 L144.758,87.409 L143.328,87.453 L141.898,87.496 L140.483,87.52 L139.071,87.544 L137.679,87.547 L136.287,87.551 L134.916,87.532 L133.544,87.514 L132.192,87.476 L130.844,87.439 L129.519,87.379 L128.195,87.319 L126.897,87.237 L125.597,87.155 L124.323,87.053 L123.051,86.951 L121.808,86.825 L120.566,86.7 L119.355,86.552 L118.142,86.404 L116.958,86.234 L115.777,86.065 L114.63,85.872 L113.485,85.68 L112.374,85.463 L111.254,85.245 L110.177,85.014 L109.112,84.77 L108.066,84.514 L107.038,84.247 L106.032,83.968 L105.046,83.677 L104.079,83.376 L103.137,83.063 L102.214,82.738 L101.312,82.402 L100.436,82.055 L99.581,81.696 L98.747,81.326 L97.941,80.946 L97.156,80.553 L96.395,80.151 L95.661,79.738 L94.951,79.313 L94.264,78.878 L93.606,78.434 L92.972,77.978 L92.362,77.512 L91.782,77.038 L91.225,76.551 L90.694,76.055 L90.192,75.551 L89.715,75.035 L89.262,74.509 L88.839,73.977 L88.44,73.43 L88.065,72.874 L87.72,72.311 L87.399,71.732 L87.101,71.142 L86.833,70.545 L86.588,69.93 L86.368,69.302 L86.177,68.665 L86.01,68.008 L85.869,67.337 L85.756,66.654 L85.671,65.953 L85.613,65.227 L85.59,64.525 L85.601,63.832 L85.642,63.151 L85.715,62.488 L85.821,61.831 L85.955,61.184 L86.119,60.552 L86.316,59.923 L86.541,59.302 L86.795,58.694 L87.082,58.088 L87.397,57.487 L87.741,56.897 L88.118,56.31 L88.524,55.727 L88.957,55.154 L89.425,54.584 L89.921,54.019 L90.445,53.463 L91.002,52.912 L91.587,52.366 L92.199,51.829 L92.843,51.297 L93.513,50.772 L94.209,50.257 L94.936,49.747 L95.689,49.244 L96.466,48.752 L97.271,48.266 L98.101,47.787 L98.954,47.319 L99.833,46.858 L100.735,46.405 L101.659,45.962 L102.598,45.531 L103.587,45.104 L104.565,44.682 L105.584,44.279 L106.605,43.875 L107.664,43.49 L108.727,43.104 L109.824,42.735 L110.919,42.366 L112.048,42.017 L113.179,41.667 L114.341,41.336 L115.507,41.004 L116.699,40.69 L117.89,40.375 L119.109,40.08 L120.329,39.784 L121.573,39.507 L122.821,39.229 L124.089,38.968 L125.356,38.707 L126.643,38.465 L127.932,38.223 L129.238,37.999 L130.547,37.774 L131.871,37.566 L133.193,37.358 L134.53,37.168 L135.867,36.978 L137.215,36.806 L138.565,36.633 L139.924,36.477 L141.282,36.32 L142.647,36.181 L144.013,36.041 L145.383,35.918 L146.755,35.796 L148.129,35.688 L149.503,35.581 L150.877,35.491 L152.251,35.4 L153.623,35.326 L154.997,35.252 L156.368,35.193 L157.737,35.134 L159.1,35.091 L160.463,35.049 L161.818,35.022 L163.174,34.995 L164.521,34.982 L165.866,34.97 L167.199,34.973 L168.531,34.976 L169.848,34.994 L171.167,35.013 L172.47,35.045 L173.772,35.077 L175.054,35.125 L176.335,35.172 L177.595,35.234 L178.857,35.295 L180.096,35.371 L181.334,35.446 L182.545,35.535 L183.757,35.624 L184.94,35.728 L186.123,35.831 L187.28,35.947 L188.433,36.063 L189.554,36.192 L190.674,36.321 L191.759,36.464 L192.846,36.607 L193.898,36.761 L194.947,36.915 L195.956,37.083 L196.964,37.249 L197.93,37.428 L198.904,37.609 L199.833,37.795 L200.744,37.988 L201.631,38.187 L202.496,38.391 L203.334,38.6 L204.148,38.814 L204.936,39.034 L205.695,39.257 L206.427,39.486 L207.133,39.718 L207.806,39.954 L208.45,40.194 L209.066,40.438 L209.646,40.682 L210.195,40.93 L210.712,41.18 L211.191,41.428 L211.636,41.678 L212.047,41.926 L212.416,42.168 L212.75,42.409 L213.048,42.643 L213.3,42.865 L213.518,43.079 L213.7,43.28 L213.84,43.458 L213.95,43.624 L214.032,43.77 L214.084,43.885 L214.119,43.994 L214.142,44.09 L214.151,44.166 L214.151,44.258 L214.143,44.36 L214.122,44.468 L214.077,44.614 L214.01,44.786 L213.914,44.978 L213.776,45.207 L213.6,45.462 L213.383,45.735 L213.113,46.035 L212.799,46.354 L212.438,46.686 L212.022,47.037 L211.559,47.401 L211.047,47.774 L210.479,48.161 L209.863,48.556 L209.197,48.959 L208.475,49.371 L207.704,49.79 L206.882,50.214 L206.004,50.646 L205.077,51.084 L204.096,51.526 L203.059,51.974 L201.972,52.427 L200.83,52.884 L199.631,53.347 L198.381,53.813 L197.075,54.283 L195.711,54.758 L194.294,55.236 L192.82,55.718 L191.286,56.204 L189.699,56.693 L188.053,57.185 L186.346,57.681 L184.584,58.18 L182.761,58.682 L180.874,59.188 L179.906,59.441 L178.935,59.695 L177.934,59.951 L176.932,60.206 L175.899,60.463 L174.866,60.72 L173.803,60.979 L172.741,61.237 L171.647,61.496 L170.553,61.756 L169.427,62.017 L168.295,62.279 L167.004,62.576 L165.782,62.86 L164.632,63.129 L163.545,63.385 L162.524,63.627 L161.566,63.854 L160.662,64.068 L159.816,64.268 L159.023,64.454 L158.278,64.628 L157.582,64.787 L156.932,64.932 L156.321,65.064 L155.753,65.183 L155.221,65.288 L154.722,65.381 L154.258,65.461 L153.846,65.525 L153.021,65.63 L152.304,65.687 L151.622,65.704 L150.944,65.687 L150.239,65.631 L149.438,65.532 L149.038,65.472 L148.59,65.398 L148.109,65.313 L147.599,65.218 L147.053,65.112 L146.469,64.995 L145.847,64.869 L145.182,64.732 L144.472,64.585 L143.716,64.428 L142.91,64.262 L142.049,64.087 L141.137,63.903 L140.164,63.71 L139.129,63.508 L138.035,63.299 L136.871,63.081 L135.641,62.855 C134.185,62.588 132.789,63.552 132.522,65.008 C132.255,66.464 133.219,67.86 134.675,68.127 Z" id="Fill-284"></path>
        </g>
    </g>
</svg>
