<?xml version="1.0" encoding="UTF-8"?>
<svg width="324px" height="108px" viewBox="0 0 324 108" version="1.1" xmlns="http://www.w3.org/2000/svg" xmlns:xlink="http://www.w3.org/1999/xlink">
    <title>174</title>
    <g id="Page-1" stroke="none" stroke-width="1" fill="none" fill-rule="evenodd">
        <g id="174" transform="translate(0.610818, 0.562000)" fill="currentColor">
            <path d="M192.483793,46.312 L191.417793,45.968 L190.346793,45.623 L189.303793,45.291 L188.261793,44.96 L187.247793,44.643 L186.234793,44.326 L185.247793,44.021 L184.257793,43.716 L182.340793,43.135 L180.477793,42.581 L178.665793,42.051 L176.907793,41.547 L175.204793,41.07 L173.549793,40.616 L171.947793,40.188 L170.398793,39.785 L168.896793,39.404 L167.445793,39.048 L166.045793,38.716 L164.690793,38.405 L163.384793,38.118 L162.128793,37.854 L160.915793,37.611 L159.749793,37.39 L158.630793,37.191 L157.553793,37.013 L156.520793,36.855 L155.532793,36.719 L154.584793,36.602 L153.675793,36.506 L152.810793,36.43 L151.982793,36.373 L151.189793,36.337 L150.437793,36.321 L149.716793,36.323 L149.026793,36.347 L148.372793,36.393 L147.744793,36.459 L147.138793,36.55 L146.561793,36.668 L146.003793,36.813 L145.455793,36.997 L144.932793,37.219 L144.424793,37.487 L143.924793,37.823 L143.466793,38.217 L143.047793,38.681 L142.682793,39.228 L142.410793,39.812 L142.227793,40.424 L142.137793,41.057 L142.134793,41.657 L142.198793,42.228 L142.322793,42.782 L142.490793,43.295 L142.693793,43.785 L142.932793,44.263 L143.198793,44.72 L143.488793,45.168 L143.807793,45.614 L144.150793,46.052 L144.515793,46.489 L144.907793,46.929 L145.322793,47.367 L145.759793,47.807 L146.223793,48.253 L146.709793,48.699 L147.217793,49.15 L147.750793,49.605 L148.306793,50.064 L148.882793,50.526 L149.483793,50.993 L150.105793,51.463 L150.747793,51.937 L151.412793,52.415 L152.108793,52.903 L153.525793,53.867 L155.036793,54.851 L156.623793,55.844 L158.276793,56.843 L159.995793,57.844 L160.897793,58.352 L161.791793,58.855 L162.714793,59.358 L163.638793,59.862 L164.591793,60.365 L165.545793,60.867 L166.526793,61.368 L167.505793,61.867 L168.508793,62.363 L169.512793,62.86 L170.539793,63.352 L171.567793,63.844 L172.616793,64.329 L173.664793,64.814 L174.730793,65.292 L175.797793,65.771 L176.881793,66.24 L177.966793,66.71 L179.067793,67.169 L180.166793,67.628 L181.277793,68.076 L182.390793,68.524 L183.515793,68.96 L184.640793,69.395 L185.774793,69.817 L186.907793,70.237 L188.047793,70.643 L189.189793,71.05 L190.336793,71.44 L191.484793,71.829 L192.636793,72.2 L193.786793,72.57 L194.938793,72.922 L196.092793,73.275 L197.245793,73.606 L198.399793,73.938 L199.551793,74.247 L200.701793,74.555 L201.847793,74.842 L202.996793,75.129 L204.139793,75.391 L205.283793,75.653 L206.417793,75.888 L207.551793,76.122 L208.675793,76.331 L209.803793,76.541 L210.919793,76.721 L212.036793,76.9 L213.139793,77.049 L214.240793,77.197 L215.326793,77.316 L216.417793,77.435 L217.490793,77.52 L218.566793,77.604 L219.620793,77.653 L220.688793,77.702 L222.746793,77.73 L224.781793,77.68 L226.737793,77.55 L227.739793,77.453 L228.704793,77.335 L229.653793,77.194 L230.590793,77.033 L231.516793,76.847 L232.424793,76.637 L233.318793,76.403 L234.201793,76.144 L235.063793,75.858 L235.910793,75.548 L236.744793,75.208 L237.555793,74.842 L238.348793,74.448 L239.126793,74.023 L239.878793,73.569 L240.610793,73.087 L241.324793,72.571 L242.008793,72.026 L242.669793,71.451 L243.307793,70.841 L243.913793,70.202 L244.492793,69.534 L245.044793,68.83 L245.561793,68.099 L246.048793,67.339 L246.505793,66.544 L246.925793,65.723 L247.313793,64.876 L247.668793,63.993 L247.985793,63.087 L248.269793,62.155 L248.518793,61.189 L248.729793,60.2 L248.907793,59.185 L249.049793,58.137 L249.153793,57.065 L249.224793,55.967 L249.258793,54.836 L249.255793,53.679 L249.218793,52.496 L249.143793,51.279 L249.031793,50.036 L248.884793,48.764 L248.698793,47.458 L248.474793,46.123 L248.215793,44.758 L247.917793,43.358 L247.579793,41.928 L247.369793,41.141 L247.125793,40.361 L246.850793,39.599 L246.547793,38.848 L246.211793,38.106 L245.847793,37.382 L245.456793,36.671 L245.035793,35.969 L244.588793,35.286 L244.116793,34.615 L243.615793,33.955 L243.090793,33.313 L242.543793,32.683 L241.968793,32.064 L241.372793,31.462 L240.754793,30.872 L240.111793,30.292 L239.448793,29.729 L238.765793,29.177 L238.057793,28.636 L237.330793,28.109 L236.585793,27.593 L235.816793,27.088 L235.008793,26.584 L233.403793,25.646 L231.696793,24.738 L229.917793,23.879 L228.072793,23.059 L226.167793,22.285 L225.162793,21.911 L224.173793,21.544 L223.154793,21.195 L222.132793,20.846 L221.078793,20.515 L220.026793,20.186 L218.942793,19.876 L217.861793,19.567 L216.754793,19.275 L215.644793,18.983 L214.506793,18.71 L213.369793,18.437 L212.203793,18.183 L211.041793,17.93 L209.855793,17.695 L208.667793,17.461 L207.453793,17.244 L206.241793,17.028 L205.005793,16.83 L203.771793,16.633 L202.516793,16.452 L201.261793,16.271 L199.983793,16.108 L198.707793,15.945 L197.410793,15.799 L196.115793,15.654 L194.804793,15.525 L193.490793,15.396 L192.160793,15.285 L190.829793,15.173 L189.482793,15.079 L188.137793,14.986 L186.778793,14.908 L185.418793,14.83 L184.044793,14.77 L182.671793,14.709 L181.284793,14.665 L179.899793,14.622 L178.504793,14.594 L177.108793,14.565 L175.702793,14.554 L174.295793,14.543 L172.880793,14.548 L171.466793,14.553 L170.046793,14.573 L168.624793,14.589 L167.196793,14.619 L165.768793,14.65 L164.334793,14.697 L162.902793,14.744 L161.466793,14.805 L160.030793,14.867 L158.590793,14.945 L157.150793,15.023 L155.710793,15.116 L154.270793,15.21 L152.830793,15.318 L151.389793,15.426 L149.949793,15.549 L148.509793,15.673 L147.071793,15.812 L145.634793,15.951 L144.201793,16.104 L142.766793,16.257 L141.337793,16.425 L139.907793,16.593 L138.483793,16.777 L137.061793,16.961 L135.645793,17.158 L134.228793,17.356 L132.819793,17.568 L131.411793,17.781 L130.012793,18.009 L128.615793,18.236 L127.227793,18.477 L125.838793,18.718 L124.462793,18.975 L123.085793,19.231 L121.722793,19.502 L120.360793,19.772 L119.012793,20.056 L117.663793,20.34 L116.329793,20.639 L114.995793,20.938 L113.679793,21.251 L112.364793,21.564 L111.065793,21.89 L109.765793,22.217 L108.485793,22.558 L107.205793,22.899 L105.946793,23.254 L104.689793,23.609 L103.451793,23.977 L102.212793,24.345 L100.996793,24.728 L99.7807926,25.11 L98.5897926,25.507 L97.3997926,25.903 L96.2337926,26.312 L95.0657926,26.721 L93.9257926,27.145 L92.7837926,27.568 L91.6717926,28.006 L90.5607926,28.443 L89.4767926,28.892 L88.3897926,29.342 L87.3347926,29.807 L86.2787926,30.272 L85.2547926,30.75 L84.2337926,31.228 L83.2417926,31.718 L82.2477926,32.211 L81.2887926,32.716 L80.3277926,33.222 L79.4037926,33.742 L78.4817926,34.261 L77.5927926,34.792 L76.6907926,35.333 L74.9937926,36.422 L73.3667926,37.546 L71.8127926,38.697 L70.3387926,39.882 L68.9707926,41.079 L68.2907926,41.712 L67.6487926,42.339 L67.0317926,42.973 L66.4357926,43.615 L65.8617926,44.267 L65.3137926,44.925 L64.7877926,45.592 L64.2847926,46.27 L63.8097926,46.954 L63.3587926,47.646 L62.9317926,48.35 L62.5347926,49.06 L62.1627926,49.778 L61.8177926,50.509 L61.5027926,51.244 L61.2147926,51.988 L60.9567926,52.744 L60.7307926,53.504 L60.5327926,54.271 L60.3667926,55.05 L60.2337926,55.832 L60.1307926,56.62 L60.0617926,57.418 L60.0267926,58.217 L60.0237926,59.022 L60.0547926,59.835 L60.1197926,60.648 L60.2177926,61.464 L60.3507926,62.288 L60.5197926,63.114 L60.7677926,64.147 L61.0537926,65.173 L61.3747926,66.183 L61.7267926,67.18 L62.1147926,68.166 L62.5357926,69.135 L62.9867926,70.091 L63.4717926,71.035 L63.9887926,71.962 L64.5337926,72.876 L65.1127926,73.779 L65.7197926,74.664 L66.3547926,75.535 L67.0207926,76.395 L67.7147926,77.238 L68.4347926,78.068 L69.1857926,78.886 L69.9617926,79.688 L70.7627926,80.476 L71.5917926,81.253 L72.4457926,82.014 L73.3237926,82.763 L74.2287926,83.5 L75.1577926,84.221 L76.1097926,84.931 L77.0867926,85.629 L78.0867926,86.312 L79.1077926,86.984 L80.1537926,87.643 L81.2217926,88.29 L82.3097926,88.924 L83.4217926,89.547 L84.5547926,90.157 L85.7067926,90.756 L86.8817926,91.343 L88.0767926,91.917 L89.2897926,92.481 L90.5247926,93.033 L91.7777926,93.573 L93.0497926,94.102 L94.3417926,94.62 L95.6567926,95.128 L96.9857926,95.616 L98.3217926,96.106 L99.6937926,96.574 L101.065793,97.042 L102.473793,97.487 L103.877793,97.932 L105.313793,98.357 L106.750793,98.782 L108.219793,99.185 L109.688793,99.588 L111.189793,99.97 L112.687793,100.351 L114.213793,100.713 L115.739793,101.074 L117.295793,101.415 L118.850793,101.756 L120.432793,102.075 L122.013793,102.394 L123.617793,102.695 L125.222793,102.995 L126.851793,103.275 L128.481793,103.555 L130.133793,103.815 L131.784793,104.075 L133.455793,104.316 L135.127793,104.557 L136.820793,104.779 L138.512793,105 L140.224793,105.201 L141.934793,105.402 L143.660793,105.586 L145.388793,105.769 L147.131793,105.932 L148.875793,106.096 L150.634793,106.24 L152.391793,106.384 L154.162793,106.51 L155.933793,106.637 L157.716793,106.744 L159.500793,106.851 L161.294793,106.939 L163.088793,107.027 L164.890793,107.098 L166.693793,107.169 L168.505793,107.222 L170.316793,107.274 L172.135793,107.307 L173.952793,107.341 L175.775793,107.358 L177.598793,107.375 L179.426793,107.375 L181.254793,107.372 L183.084793,107.353 L184.914793,107.333 L186.745793,107.298 L188.577793,107.262 L190.410793,107.208 L192.242793,107.154 L194.073793,107.083 L195.903793,107.012 L197.732793,106.925 L199.560793,106.837 L201.386793,106.733 L203.211793,106.628 L205.031793,106.506 L206.850793,106.384 L208.663793,106.247 L210.477793,106.11 L212.283793,105.955 L214.089793,105.801 L215.886793,105.63 L217.682793,105.459 L219.468793,105.273 L221.255793,105.086 L223.031793,104.884 L224.806793,104.681 L226.568793,104.462 L228.330793,104.243 L230.077793,104.009 L231.827793,103.775 L233.559793,103.524 L235.292793,103.274 L237.008793,103.007 L238.722793,102.741 L240.420793,102.46 L242.119793,102.179 L243.797793,101.883 L245.476793,101.586 L247.133793,101.274 L248.790793,100.962 L250.425793,100.636 L252.062793,100.31 L253.675793,99.967 L255.287793,99.625 L256.875793,99.268 L258.461793,98.911 L260.023793,98.54 L261.586793,98.169 L263.121793,97.783 L264.656793,97.397 L266.162793,96.996 L267.667793,96.596 L269.143793,96.182 L270.621793,95.768 L272.067793,95.339 L273.514793,94.909 L274.926793,94.465 L276.337793,94.021 L277.717793,93.565 L279.098793,93.107 L280.443793,92.636 L281.789793,92.164 L283.097793,91.679 L284.404793,91.193 L285.675793,90.695 L286.949793,90.196 L288.182793,89.684 L289.416793,89.171 L290.608793,88.644 L291.799793,88.117 L292.951793,87.578 L294.105793,87.037 L295.215793,86.483 L296.326793,85.928 L297.391793,85.36 L298.449793,84.795 L299.488793,84.214 L300.499793,83.628 L301.485793,83.036 L302.450793,82.437 L303.391793,81.83 L304.306793,81.217 L305.199793,80.596 L306.067793,79.968 L306.909793,79.332 L307.727793,78.69 L308.520793,78.039 L309.285793,77.381 L310.025793,76.716 L310.739793,76.041 L311.424793,75.36 L312.083793,74.671 L312.714793,73.971 L313.315793,73.265 L313.889793,72.551 L314.434793,71.826 L314.947793,71.095 L315.431793,70.355 L315.885793,69.603 L316.306793,68.841 L317.153793,67.199 L317.939793,65.573 L318.660793,63.971 L319.323793,62.388 L319.923793,60.825 L320.460793,59.284 L320.940793,57.763 L321.359793,56.26 L321.715793,54.779 L322.015793,53.318 L322.255793,51.873 L322.433793,50.452 L322.556793,49.05 L322.621793,47.664 L322.621793,46.302 L322.570793,44.96 L322.458793,43.634 L322.289793,42.335 L322.066793,41.054 L321.785793,39.792 L321.447793,38.557 L321.058793,37.343 L320.613793,36.148 L320.114793,34.981 L319.567793,33.835 L318.965793,32.71 L318.313793,31.613 L317.615793,30.538 L316.866793,29.485 L316.069793,28.458 L315.230793,27.454 L314.341793,26.47 L313.409793,25.513 L312.436793,24.577 L311.417793,23.662 L310.357793,22.772 L309.257793,21.902 L308.114793,21.053 L306.932793,20.226 L305.714793,19.418 L304.454793,18.63 L303.157793,17.863 L301.825793,17.115 L300.453793,16.386 L299.045793,15.677 L297.604793,14.986 L296.125793,14.314 L294.612793,13.661 L293.067793,13.025 L291.486793,12.406 L289.872793,11.806 L288.228793,11.223 L286.550793,10.656 L284.841793,10.107 L283.103793,9.574 L281.333793,9.058 L279.533793,8.558 L277.706793,8.073 L275.848793,7.605 L273.963793,7.153 L272.051793,6.715 L270.111793,6.293 L268.147793,5.888 L267.149793,5.69 L266.153793,5.494 L265.145793,5.304 L264.136793,5.115 L263.114793,4.934 L262.093793,4.752 L261.061793,4.577 L260.028793,4.403 L258.983793,4.235 L257.938793,4.068 L256.881793,3.907 L255.825793,3.747 L254.757793,3.593 L253.690793,3.44 L252.611793,3.293 L251.532793,3.146 L250.442793,3.007 L249.353793,2.867 L248.253793,2.734 L247.154793,2.601 L246.043793,2.476 L244.933793,2.351 L243.812793,2.232 L242.692793,2.114 L241.563793,2.001 L240.433793,1.889 L239.294793,1.783 L238.155793,1.677 L237.007793,1.578 L235.856793,1.478 L234.693793,1.388 L233.538793,1.298 L232.383793,1.207 L231.217793,1.117 L230.035793,1.038 L228.862793,0.961 L227.690793,0.883 L226.507793,0.807 L225.309793,0.746 L224.120793,0.686 L222.931793,0.626 L221.734793,0.565 L220.524793,0.515 L219.322793,0.466 L218.120793,0.417 L216.909793,0.367 L215.685793,0.329 L214.469793,0.291 L213.254793,0.254 L212.030793,0.216 L210.794793,0.189 L209.566793,0.163 L208.338793,0.136 L207.104793,0.11 L205.859793,0.092 L204.621793,0.073 L203.383793,0.054 L202.138793,0.034 L200.882793,0.026 L199.635793,0.017 L198.387793,0.009 L197.132793,0 L195.868793,0.002 L194.612793,0.003 L193.355793,0.005 L192.092793,0.007 L190.823793,0.018 L189.559793,0.028 L188.296793,0.039 L187.026793,0.05 L185.750793,0.071 L184.480793,0.09 L183.210793,0.109 L181.934793,0.127 L180.653793,0.156 L179.378793,0.184 L178.102793,0.212 L176.822793,0.24 L175.538793,0.277 L174.259793,0.313 L172.980793,0.35 L171.696793,0.386 L170.409793,0.431 L169.127793,0.477 L167.846793,0.522 L166.559793,0.567 L165.270793,0.621 L163.987793,0.674 L162.703793,0.727 L161.416793,0.78 L160.127793,0.84 L158.844793,0.9 L157.560793,0.96 L156.271793,1.021 L154.983793,1.089 L153.701793,1.157 L152.418793,1.225 L151.130793,1.293 L149.844793,1.369 L148.563793,1.445 L147.282793,1.52 L145.997793,1.596 L144.715793,1.678 L143.437793,1.76 L142.158793,1.841 L140.876793,1.923 L139.598793,2.011 L138.324793,2.099 L137.050793,2.188 L135.771793,2.276 L134.499793,2.371 L133.230793,2.466 L131.962793,2.561 L130.690793,2.656 L129.424793,2.757 L128.162793,2.857 L126.900793,2.958 L125.633793,3.059 L124.375793,3.166 L123.120793,3.272 L121.866793,3.379 L120.608793,3.486 L119.359793,3.598 L118.113793,3.711 L116.868793,3.823 L115.619793,3.936 L114.380793,4.053 L113.144793,4.17 L111.908793,4.287 L110.669793,4.405 L109.441793,4.528 L108.216793,4.65 L106.992793,4.772 L105.764793,4.895 L104.548793,5.022 L103.337793,5.149 L102.125793,5.276 L100.910793,5.403 L99.7087926,5.534 L98.5097926,5.665 L97.3107926,5.796 L96.1077926,5.927 L94.9197926,6.062 L93.7357926,6.197 L92.5517926,6.332 L91.3647926,6.468 L90.1927926,6.607 L89.0257926,6.746 L87.8577926,6.885 L86.6867926,7.024 L85.5317926,7.166 L84.3797926,7.308 L83.2277926,7.45 L82.0727926,7.593 L80.9357926,7.738 L79.8027926,7.883 L78.6697926,8.028 L77.5327926,8.173 L76.4157926,8.321 L75.3027926,8.469 L74.1897926,8.616 L73.0727926,8.765 L71.9747926,8.915 L70.8807926,9.065 L69.7867926,9.216 L68.6887926,9.366 L67.6137926,9.519 L66.5417926,9.672 L65.4697926,9.824 L64.3937926,9.977 L63.3417926,10.132 L62.2937926,10.287 L61.2447926,10.441 L60.1937926,10.596 L59.1597926,10.752 L58.1257926,10.908 L57.1047926,11.065 L56.0837926,11.222 L55.0757926,11.379 L54.0677926,11.537 L53.0717926,11.695 L52.0747926,11.853 L50.1097926,12.17 L48.1727926,12.489 L46.2607926,12.808 L44.3777926,13.127 L42.5237926,13.448 L40.6967926,13.768 L38.9007926,14.089 L37.1357926,14.41 L35.3997926,14.731 L33.6947926,15.051 L32.0247926,15.371 L30.3837926,15.691 L28.7767926,16.01 L27.2047926,16.328 L25.6647926,16.646 L24.1607926,16.962 L22.6927926,17.277 L21.2587926,17.591 L19.8617926,17.903 L18.5027926,18.213 L17.1797926,18.522 L15.8947926,18.829 L14.6497926,19.134 L13.4417926,19.436 L12.2737926,19.737 L11.1477926,20.035 L10.0597926,20.33 L9.01479262,20.623 L8.01179262,20.913 L7.04779262,21.2 L6.12779262,21.485 L5.25179262,21.766 L4.41679262,22.045 L3.62579262,22.321 L2.87979262,22.594 L2.17579262,22.864 L1.51479262,23.133 L0.916792619,23.392 C0.145792619,23.725 -0.208207381,24.62 0.125792619,25.39 C0.458792619,26.161 1.35379262,26.515 2.12379262,26.182 L2.68979262,25.937 L3.29179262,25.692 L3.94679262,25.44 L4.64779262,25.184 L5.39879262,24.922 L6.19779262,24.655 L7.04179262,24.384 L7.93179262,24.108 L8.86779262,23.829 L9.84579262,23.546 L10.8687926,23.259 L11.9347926,22.969 L13.0407926,22.677 L14.1897926,22.381 L15.3797926,22.083 L16.6087926,21.782 L17.8777926,21.478 L19.1857926,21.173 L20.5307926,20.865 L21.9137926,20.556 L23.3357926,20.245 L24.7917926,19.932 L26.2837926,19.618 L27.8127926,19.303 L29.3737926,18.987 L30.9697926,18.67 L32.5997926,18.352 L34.2617926,18.033 L35.9557926,17.714 L37.6827926,17.395 L39.4387926,17.075 L41.2257926,16.756 L43.0437926,16.436 L44.8897926,16.117 L46.7647926,15.799 L48.6687926,15.481 L50.5977926,15.164 L52.5557926,14.847 L53.5467926,14.69 L54.5397926,14.532 L55.5437926,14.375 L56.5477926,14.218 L57.5657926,14.062 L58.5827926,13.905 L59.6117926,13.75 L60.6407926,13.594 L61.6867926,13.44 L62.7357926,13.285 L63.7837926,13.131 L64.8287926,12.976 L65.8967926,12.824 L66.9687926,12.672 L68.0407926,12.519 L69.1087926,12.367 L70.1987926,12.217 L71.2927926,12.067 L72.3877926,11.917 L73.4777926,11.767 L74.5877926,11.619 L75.7017926,11.471 L76.8147926,11.324 L77.9237926,11.176 L79.0537926,11.032 L80.1867926,10.887 L81.3197926,10.742 L82.4497926,10.597 L83.5977926,10.456 L84.7497926,10.315 L85.9017926,10.174 L87.0497926,10.033 L88.2147926,9.896 L89.3827926,9.758 L90.5497926,9.62 L91.7137926,9.482 L92.8947926,9.349 L94.0787926,9.215 L95.2627926,9.081 L96.4427926,8.947 L97.6387926,8.818 L98.8377926,8.688 L100.036793,8.558 L101.232793,8.428 L102.441793,8.303 L103.652793,8.177 L104.864793,8.052 L106.072793,7.927 L107.293793,7.807 L108.517793,7.686 L109.742793,7.565 L110.963793,7.445 L112.195793,7.33 L113.431793,7.214 L114.667793,7.099 L115.899793,6.984 L117.141793,6.873 L118.387793,6.763 L119.632793,6.652 L120.873793,6.542 L122.124793,6.437 L123.378793,6.332 L124.633793,6.227 L125.883793,6.123 L127.142793,6.024 L128.404793,5.925 L129.666793,5.827 L130.925793,5.728 L132.190793,5.635 L133.458793,5.542 L134.727793,5.449 L135.991793,5.356 L137.261793,5.27 L138.535793,5.183 L139.809793,5.097 L141.079793,5.011 L142.353793,4.931 L143.631793,4.852 L144.909793,4.773 L146.184793,4.694 L147.461793,4.622 L148.742793,4.55 L150.023793,4.478 L151.300793,4.406 L152.578793,4.342 L153.862793,4.278 L155.145793,4.213 L156.423793,4.149 L157.702793,4.092 L158.986793,4.035 L160.270793,3.979 L161.550793,3.922 L162.828793,3.873 L164.112793,3.824 L165.395793,3.775 L166.674793,3.727 L167.951793,3.687 L169.233793,3.647 L170.514793,3.607 L171.791793,3.568 L173.064793,3.537 L174.343793,3.506 L175.622793,3.475 L176.896793,3.444 L178.166793,3.421 L179.442793,3.398 L180.717793,3.375 L181.986793,3.353 L183.251793,3.339 L184.521793,3.326 L185.791793,3.313 L187.055793,3.301 L188.312793,3.299 L189.576793,3.297 L190.839793,3.295 L192.097793,3.293 L193.348793,3.3 L194.605793,3.307 L195.861793,3.315 L197.111793,3.322 L198.352793,3.339 L199.600793,3.356 L200.848793,3.374 L202.088793,3.391 L203.319793,3.419 L204.556793,3.447 L205.794793,3.475 L207.025793,3.505 L208.245793,3.545 L209.473793,3.586 L210.700793,3.626 L211.920793,3.667 L213.126793,3.719 L214.341793,3.77 L215.556793,3.822 L216.763793,3.874 L217.955793,3.937 L219.156793,4 L220.358793,4.063 L221.550793,4.126 L222.730793,4.2 L223.918793,4.274 L225.105793,4.348 L226.283793,4.421 L227.445793,4.504 L228.617793,4.584 L229.789793,4.665 L230.951793,4.745 L232.095793,4.838 L233.250793,4.931 L234.405793,5.024 L235.552793,5.117 L236.687793,5.218 L237.824793,5.32 L238.951793,5.428 L240.078793,5.535 L241.195793,5.65 L242.312793,5.764 L243.421793,5.884 L244.528793,6.004 L245.626793,6.131 L246.723793,6.258 L247.809793,6.391 L248.896793,6.523 L249.973793,6.662 L251.049793,6.8 L252.114793,6.945 L253.178793,7.091 L254.231793,7.243 L255.285793,7.395 L256.327793,7.554 L257.369793,7.712 L258.398793,7.878 L259.428793,8.043 L260.444793,8.216 L261.462793,8.389 L262.467793,8.568 L263.472793,8.747 L264.463793,8.933 L265.454793,9.12 L266.432793,9.313 L267.408793,9.507 L269.341793,9.909 L271.242793,10.326 L273.115793,10.758 L274.960793,11.203 L276.774793,11.664 L278.558793,12.14 L280.313793,12.63 L282.034793,13.136 L283.724793,13.657 L285.383793,14.193 L287.006793,14.744 L288.596793,15.311 L290.153793,15.894 L291.672793,16.491 L293.156793,17.106 L294.606793,17.734 L296.016793,18.379 L297.389793,19.04 L298.726793,19.717 L300.022793,20.408 L301.279793,21.117 L302.498793,21.841 L303.673793,22.579 L304.809793,23.336 L305.904793,24.107 L306.954793,24.894 L307.962793,25.699 L308.929793,26.518 L309.850793,27.351 L310.727793,28.202 L311.563793,29.067 L312.351793,29.946 L313.095793,30.844 L313.797793,31.756 L314.450793,32.682 L315.058793,33.627 L315.623793,34.588 L316.140793,35.562 L316.610793,36.558 L317.038793,37.569 L317.416793,38.596 L317.747793,39.646 L318.034793,40.714 L318.271793,41.799 L318.459793,42.909 L318.602793,44.04 L318.694793,45.189 L318.734793,46.365 L318.727793,47.563 L318.666793,48.783 L318.551793,50.03 L318.387793,51.301 L318.167793,52.595 L317.889793,53.918 L317.559793,55.265 L317.171793,56.635 L316.723793,58.035 L316.220793,59.459 L315.657793,60.908 L315.030793,62.386 L314.347793,63.888 L313.601793,65.416 L312.787793,66.977 L312.439793,67.601 L312.058793,68.224 L311.646793,68.849 L311.205793,69.472 L310.737793,70.09 L310.236793,70.708 L309.707793,71.323 L309.151793,71.934 L308.563793,72.544 L307.948793,73.151 L307.306793,73.753 L306.632793,74.353 L305.933793,74.949 L305.208793,75.541 L304.452793,76.129 L303.672793,76.714 L302.865793,77.293 L302.030793,77.868 L301.171793,78.439 L300.287793,79.005 L299.375793,79.566 L298.440793,80.123 L297.482793,80.673 L296.502793,81.216 L295.477793,81.758 L294.460793,82.296 L293.396793,82.823 L292.330793,83.35 L291.220793,83.864 L290.107793,84.38 L288.954793,84.885 L287.802793,85.39 L286.608793,85.882 L285.413793,86.375 L284.177793,86.854 L282.939793,87.335 L281.665793,87.804 L280.392793,88.272 L279.080793,88.727 L277.768793,89.183 L276.419793,89.624 L275.068793,90.067 L273.685793,90.497 L272.303793,90.927 L270.887793,91.343 L269.470793,91.76 L268.021793,92.163 L266.570793,92.566 L265.091793,92.957 L263.613793,93.348 L262.105793,93.724 L260.596793,94.1 L259.059793,94.462 L257.520793,94.824 L255.957793,95.172 L254.394793,95.521 L252.806793,95.855 L251.218793,96.189 L249.605793,96.508 L247.991793,96.828 L246.356793,97.134 L244.722793,97.44 L243.066793,97.731 L241.410793,98.022 L239.734793,98.297 L238.056793,98.573 L236.362793,98.834 L234.668793,99.095 L232.957793,99.341 L231.245793,99.586 L229.518793,99.816 L227.789793,100.047 L226.047793,100.262 L224.306793,100.478 L222.552793,100.678 L220.797793,100.877 L219.030793,101.06 L217.263793,101.244 L215.485793,101.412 L213.709793,101.58 L211.923793,101.732 L210.137793,101.884 L208.344793,102.019 L206.549793,102.154 L204.748793,102.273 L202.949793,102.393 L201.144793,102.495 L199.339793,102.597 L197.530793,102.683 L195.721793,102.768 L193.909793,102.837 L192.098793,102.907 L190.286793,102.959 L188.475793,103.011 L186.663793,103.045 L184.851793,103.079 L183.040793,103.098 L181.231793,103.116 L179.424793,103.116 L177.618793,103.116 L175.815793,103.099 L174.013793,103.081 L172.215793,103.046 L170.418793,103.012 L168.629793,102.959 L166.840793,102.907 L165.059793,102.836 L163.277793,102.764 L161.505793,102.676 L159.734793,102.588 L157.974793,102.481 L156.214793,102.374 L154.467793,102.249 L152.719793,102.123 L150.984793,101.98 L149.250793,101.837 L147.532793,101.675 L145.814793,101.513 L144.113793,101.331 L142.411793,101.149 L140.725793,100.95 L139.041793,100.751 L137.376793,100.532 L135.712793,100.314 L134.069793,100.076 L132.425793,99.837 L130.801793,99.581 L129.179793,99.324 L127.580793,99.048 L125.983793,98.771 L124.410793,98.474 L122.836793,98.177 L121.287793,97.861 L119.739793,97.546 L118.219793,97.21 L116.700793,96.875 L115.210793,96.519 L113.719793,96.163 L112.256793,95.789 L110.795793,95.415 L109.366793,95.02 L107.938793,94.625 L106.543793,94.21 L105.148793,93.794 L103.783793,93.36 L102.422793,92.926 L101.096793,92.471 L99.7727926,92.017 L98.4857926,91.542 L97.1917926,91.064 L95.9367926,90.577 L94.6977926,90.077 L93.4777926,89.567 L92.2777926,89.048 L91.0997926,88.518 L89.9427926,87.978 L88.8047926,87.429 L87.6917926,86.87 L86.5997926,86.3 L85.5287926,85.721 L84.4817926,85.132 L83.4587926,84.532 L82.4567926,83.924 L81.4807926,83.306 L80.5277926,82.677 L79.5987926,82.039 L78.6957926,81.392 L77.8177926,80.735 L76.9627926,80.068 L76.1357926,79.393 L75.3347926,78.706 L74.5577926,78.011 L73.8087926,77.309 L73.0867926,76.594 L72.3897926,75.871 L71.7217926,75.141 L71.0807926,74.399 L70.4647926,73.648 L69.8797926,72.891 L69.3217926,72.121 L68.7897926,71.343 L68.2877926,70.558 L67.8147926,69.76 L67.3667926,68.954 L66.9507926,68.141 L66.5627926,67.315 L66.2017926,66.479 L65.8717926,65.636 L65.5707926,64.779 L65.2977926,63.913 L65.0557926,63.038 L64.8427926,62.146 L64.7107926,61.494 L64.6077926,60.85 L64.5327926,60.209 L64.4827926,59.574 L64.4597926,58.95 L64.4637926,58.328 L64.4917926,57.71 L64.5457926,57.102 L64.6267926,56.494 L64.7297926,55.89 L64.8587926,55.293 L65.0137926,54.696 L65.1917926,54.102 L65.3937926,53.514 L65.6227926,52.926 L65.8747926,52.339 L66.1507926,51.758 L66.4537926,51.176 L66.7797926,50.596 L67.1297926,50.022 L67.5057926,49.447 L67.9057926,48.874 L68.3277926,48.306 L68.7777926,47.738 L69.2497926,47.173 L69.7447926,46.614 L70.2657926,46.055 L70.8087926,45.499 L71.3737926,44.949 L71.9477926,44.416 L73.2107926,43.313 L74.5437926,42.246 L75.9697926,41.194 L77.4747926,40.158 L79.0717926,39.138 L79.8947926,38.648 L80.7317926,38.149 L81.6037926,37.661 L82.4737926,37.173 L83.3817926,36.697 L84.2897926,36.22 L85.2347926,35.755 L86.1817926,35.289 L87.1607926,34.833 L88.1377926,34.378 L89.1487926,33.936 L90.1597926,33.492 L91.2027926,33.061 L92.2477926,32.629 L93.3217926,32.208 L94.3937926,31.788 L95.4947926,31.381 L96.5977926,30.973 L97.7277926,30.578 L98.8597926,30.182 L100.016793,29.799 L101.171793,29.415 L102.352793,29.045 L103.534793,28.674 L104.739793,28.318 L105.947793,27.96 L107.175793,27.615 L108.402793,27.27 L109.650793,26.938 L110.900793,26.606 L112.169793,26.288 L113.440793,25.969 L114.728793,25.664 L116.015793,25.358 L117.320793,25.066 L118.625793,24.774 L119.946793,24.497 L121.269793,24.219 L122.606793,23.954 L123.942793,23.689 L125.291793,23.438 L126.641793,23.188 L128.004793,22.952 L129.367793,22.716 L130.741793,22.493 L132.114793,22.27 L133.497793,22.062 L134.880793,21.854 L136.272793,21.66 L137.664793,21.467 L139.064793,21.287 L140.463793,21.107 L141.868793,20.942 L143.273793,20.777 L144.682793,20.628 L146.093793,20.478 L147.507793,20.342 L148.920793,20.206 L150.336793,20.086 L151.751793,19.966 L153.168793,19.862 L154.585793,19.757 L156.003793,19.667 L157.419793,19.577 L158.833793,19.502 L160.248793,19.427 L161.659793,19.369 L163.072793,19.31 L164.481793,19.265 L165.889793,19.221 L167.291793,19.193 L168.693793,19.164 L170.089793,19.153 L171.486793,19.147 L172.875793,19.155 L174.263793,19.163 L175.641793,19.188 L177.020793,19.212 L178.388793,19.253 L179.756793,19.294 L181.114793,19.35 L182.471793,19.406 L183.814793,19.478 L185.156793,19.551 L186.485793,19.64 L187.814793,19.728 L189.129793,19.833 L190.442793,19.937 L191.738793,20.057 L193.034793,20.177 L194.311793,20.314 L195.590793,20.451 L196.850793,20.604 L198.109793,20.756 L199.347793,20.926 L200.583793,21.095 L201.798793,21.281 L203.014793,21.468 L204.209793,21.67 L205.400793,21.871 L206.568793,22.09 L207.734793,22.309 L208.874793,22.545 L210.016793,22.781 L211.133793,23.032 L212.247793,23.281 L213.332793,23.547 L214.416793,23.813 L215.471793,24.097 L216.526793,24.381 L217.554793,24.681 L218.577793,24.979 L219.568793,25.296 L220.558793,25.611 L221.514793,25.944 L222.471793,26.278 L223.397793,26.627 L224.306793,26.97 L226.085793,27.703 L227.776793,28.466 L229.394793,29.258 L230.924793,30.078 L232.392793,30.944 L233.064793,31.367 L233.733793,31.81 L234.380793,32.261 L235.006793,32.719 L235.607793,33.181 L236.187793,33.653 L236.744793,34.13 L237.275793,34.611 L237.785793,35.102 L238.272793,35.597 L238.732793,36.096 L239.170793,36.604 L239.586793,37.118 L239.975793,37.633 L240.341793,38.158 L240.686793,38.689 L241.003793,39.221 L241.299793,39.764 L241.572793,40.313 L241.819793,40.864 L242.044793,41.426 L242.246793,41.995 L242.424793,42.567 L242.578793,43.153 L242.889793,44.483 L243.160793,45.772 L243.394793,47.024 L243.595793,48.242 L243.759793,49.418 L243.887793,50.559 L243.984793,51.666 L244.047793,52.731 L244.076793,53.762 L244.076793,54.76 L244.045793,55.716 L243.983793,56.64 L243.893793,57.532 L243.775793,58.383 L243.629793,59.203 L243.459793,59.993 L243.263793,60.743 L243.041793,61.466 L242.797793,62.16 L242.531793,62.818 L242.240793,63.451 L241.928793,64.057 L241.597793,64.631 L241.241793,65.184 L240.866793,65.713 L240.472793,66.214 L240.052793,66.695 L239.613793,67.157 L239.156793,67.592 L238.673793,68.011 L238.169793,68.411 L237.646793,68.787 L237.097793,69.147 L236.526793,69.49 L235.937793,69.811 L235.321793,70.115 L234.684793,70.402 L234.028793,70.668 L233.346793,70.916 L232.644793,71.147 L231.923793,71.358 L231.178793,71.55 L230.414793,71.726 L229.633793,71.881 L228.829793,72.018 L228.007793,72.139 L227.170793,72.239 L226.339793,72.32 L224.548793,72.436 L222.724793,72.477 L220.823793,72.447 L219.867793,72.401 L218.899793,72.355 L217.908793,72.274 L216.915793,72.195 L215.901793,72.082 L214.882793,71.969 L213.846793,71.828 L212.812793,71.687 L211.762793,71.515 L210.710793,71.344 L209.643793,71.144 L208.573793,70.943 L207.492793,70.717 L206.413793,70.492 L205.323793,70.24 L204.233793,69.989 L203.134793,69.712 L202.033793,69.434 L200.926793,69.135 L199.821793,68.837 L198.712793,68.516 L197.603793,68.195 L196.492793,67.853 L195.378793,67.511 L194.266793,67.151 L193.154793,66.791 L192.046793,66.413 L190.936793,66.034 L189.831793,65.64 L188.724793,65.245 L187.624793,64.836 L186.525793,64.427 L185.435793,64.004 L184.344793,63.582 L183.265793,63.146 L182.184793,62.71 L181.115793,62.263 L180.047793,61.817 L178.995793,61.361 L177.942793,60.904 L176.907793,60.44 L175.870793,59.974 L174.852793,59.502 L173.834793,59.031 L172.838793,58.553 L171.842793,58.076 L170.869793,57.594 L169.896793,57.112 L168.945793,56.626 L167.996793,56.142 L167.076793,55.656 L166.155793,55.17 L165.264793,54.683 L164.372793,54.196 L163.509793,53.711 L162.654793,53.229 L160.995793,52.261 L159.414793,51.305 L157.904793,50.359 L156.478793,49.43 L155.128793,48.511 L154.500793,48.069 L153.886793,47.628 L153.296793,47.191 L152.728793,46.762 L152.187793,46.341 L151.671793,45.927 L151.180793,45.521 L150.718793,45.126 L150.283793,44.74 L149.875793,44.365 L149.499793,44.003 L149.152793,43.653 L148.834793,43.317 L148.550793,43 L148.298793,42.698 L148.077793,42.415 L147.895793,42.16 L147.744793,41.927 L147.625793,41.723 L147.544793,41.562 L147.492793,41.434 L147.464793,41.351 L147.459793,41.333 L147.462793,41.357 L147.460793,41.432 L147.441793,41.567 L147.400793,41.707 L147.334793,41.845 L147.249793,41.972 L147.185793,42.046 L147.148793,42.077 L147.147793,42.079 L147.213793,42.045 L147.336793,41.992 L147.514793,41.934 L147.760793,41.87 L148.062793,41.808 L148.417793,41.755 L148.833793,41.712 L149.299793,41.68 L149.815793,41.662 L150.386793,41.66 L151.005793,41.674 L151.672793,41.705 L152.392793,41.755 L153.159793,41.822 L153.973793,41.909 L154.839793,42.016 L155.751793,42.142 L156.711793,42.289 L157.724793,42.458 L158.782793,42.646 L159.890793,42.857 L161.051793,43.09 L162.259793,43.344 L163.517793,43.622 L164.829793,43.923 L166.188793,44.246 L167.600793,44.593 L169.066793,44.965 L170.581793,45.36 L172.149793,45.781 L173.773793,46.227 L175.447793,46.697 L177.176793,47.193 L178.961793,47.716 L180.798793,48.263 L182.694793,48.839 L183.667793,49.139 L184.643793,49.441 L185.646793,49.755 L186.648793,50.069 L187.679793,50.398 L188.710793,50.726 L189.770793,51.069 L190.836793,51.413 C192.245793,51.868 193.755793,51.095 194.210793,49.686 C194.665793,48.278 193.892793,46.767 192.483793,46.312 Z" id="Fill-283"></path>
        </g>
    </g>
</svg>
