<?xml version="1.0" encoding="UTF-8"?>
<svg width="416px" height="120px" viewBox="0 0 416 120" version="1.1" xmlns="http://www.w3.org/2000/svg" xmlns:xlink="http://www.w3.org/1999/xlink">
    <title>175</title>
    <g id="Page-1" stroke="none" stroke-width="1" fill="none" fill-rule="evenodd">
        <g id="175" transform="translate(0.757053, 0.804000)" fill="currentColor">
            <path d="M263.768558,50.931 L263.112558,50.647 L262.349558,50.357 L261.549558,50.09 L260.710558,49.839 L259.824558,49.604 L258.897558,49.383 L257.932558,49.176 L256.921558,48.982 L255.871558,48.801 L254.783558,48.631 L253.653558,48.472 L252.486558,48.326 L251.285558,48.191 L250.045558,48.067 L248.771558,47.954 L247.466558,47.852 L246.127558,47.761 L244.758558,47.681 L243.361558,47.611 L241.935558,47.552 L240.483558,47.504 L239.007558,47.467 L237.506558,47.44 L235.983558,47.424 L234.441558,47.418 L232.878558,47.423 L231.297558,47.438 L229.701558,47.464 L228.089558,47.5 L226.460558,47.548 L224.823558,47.61 L223.181558,47.672 L221.520558,47.755 L219.858558,47.839 L218.185558,47.944 L216.513558,48.049 L214.835558,48.174 L213.156558,48.299 L211.475558,48.445 L209.795558,48.591 L208.121558,48.759 L206.448558,48.927 L204.786558,49.114 L203.122558,49.301 L201.476558,49.51 L199.829558,49.719 L198.207558,49.95 L196.586558,50.18 L194.993558,50.43 L193.397558,50.68 L191.837558,50.952 L190.276558,51.225 L188.758558,51.518 L187.247558,51.811 L185.756558,52.121 L184.294558,52.441 L182.860558,52.772 L181.451558,53.113 L180.070558,53.466 L178.721558,53.83 L177.402558,54.205 L176.114558,54.591 L174.862558,54.99 L173.643558,55.399 L172.460558,55.822 L171.317558,56.257 L170.209558,56.704 L169.140558,57.166 L168.115558,57.642 L167.128558,58.131 L166.182558,58.639 L165.285558,59.163 L164.428558,59.705 L163.614558,60.271 L162.853558,60.857 L162.137558,61.468 L161.468558,62.114 L160.859558,62.787 L160.305558,63.495 L159.810558,64.251 L159.394558,65.039 L159.054558,65.866 L158.801558,66.743 L158.652558,67.636 L158.603558,68.545 L158.662558,69.476 L158.828558,70.387 L159.088558,71.284 L159.449558,72.174 L159.896558,73.033 L160.420558,73.873 L161.033558,74.704 L161.721558,75.515 L162.482558,76.316 L163.329558,77.115 L164.237558,77.891 L164.736558,78.288 L165.243558,78.66 L165.765558,79.018 L166.305558,79.365 L166.867558,79.703 L167.472558,80.044 L168.649558,80.654 L169.931558,81.245 L171.280558,81.799 L172.692558,82.324 L174.177558,82.82 L175.724558,83.285 L177.332558,83.725 L179.006558,84.138 L180.741558,84.524 L182.530558,84.887 L184.381558,85.226 L186.288558,85.539 L188.244558,85.831 L190.250558,86.097 L191.289558,86.22 L192.319558,86.342 L193.372558,86.453 L194.426558,86.564 L195.505558,86.664 L196.583558,86.764 L197.684558,86.853 L198.784558,86.942 L199.904558,87.021 L201.024558,87.1 L202.166558,87.168 L203.308558,87.236 L204.470558,87.293 L205.630558,87.351 L206.808558,87.398 L207.986558,87.446 L209.182558,87.483 L210.379558,87.521 L211.592558,87.548 L212.803558,87.574 L214.030558,87.592 L215.256558,87.61 L216.498558,87.617 L217.740558,87.625 L218.995558,87.623 L220.249558,87.62 L221.515558,87.609 L222.781558,87.598 L224.058558,87.577 L225.336558,87.556 L226.624558,87.525 L227.911558,87.495 L229.206558,87.456 L230.502558,87.417 L231.807558,87.368 L233.111558,87.32 L234.422558,87.262 L235.737558,87.204 L237.059558,87.134 L238.369558,87.065 L239.680558,86.995 L241.007558,86.924 L242.342558,86.836 L243.660558,86.749 L244.979558,86.662 L246.314558,86.573 L247.652558,86.468 L248.973558,86.363 L250.295558,86.259 L251.631558,86.153 L252.967558,86.032 L254.287558,85.913 L255.608558,85.793 L256.944558,85.672 L258.276558,85.535 L259.591558,85.399 L260.907558,85.263 L262.238558,85.126 L263.560558,84.972 L264.865558,84.82 L266.170558,84.669 L267.490558,84.515 L268.798558,84.348 L270.090558,84.183 L271.382558,84.017 L272.691558,83.849 L273.982558,83.666 L275.256558,83.486 L276.529558,83.305 L277.820558,83.121 L279.089558,82.923 L280.339558,82.728 L281.589558,82.533 L282.852558,82.336 L284.096558,82.129 L285.338558,81.922 L286.564558,81.709 L287.791558,81.496 L289.002558,81.276 L290.212558,81.056 L291.407558,80.83 L292.603558,80.603 L293.780558,80.37 L294.958558,80.137 L296.117558,79.898 L297.275558,79.658 L298.415558,79.413 L299.556558,79.168 L300.676558,78.916 L301.796558,78.664 L302.894558,78.406 L303.991558,78.148 L305.066558,77.884 L306.143558,77.62 L307.195558,77.35 L308.248558,77.079 L309.275558,76.803 L310.302558,76.527 L311.304558,76.246 L312.308558,75.964 L313.284558,75.677 L314.267558,75.387 L316.157558,74.802 L317.999558,74.205 L319.783558,73.595 L321.502558,72.974 L323.164558,72.343 L324.762558,71.698 L326.290558,71.043 L327.755558,70.375 L329.153558,69.693 L330.475558,68.998 L331.730558,68.289 L332.913558,67.561 L334.016558,66.817 L335.048558,66.054 L336.006558,65.264 L336.847558,64.478 L337.282558,64.032 L337.669558,63.602 L338.031558,63.166 L338.372558,62.72 L338.692558,62.259 L338.983558,61.791 L339.250558,61.312 L339.491558,60.815 L339.699558,60.312 L339.878558,59.798 L340.025558,59.265 L340.135558,58.731 L340.209558,58.189 L340.245558,57.633 L340.241558,57.083 L340.200558,56.532 L340.118558,55.976 L339.998558,55.432 L339.842558,54.895 L339.647558,54.358 L339.420558,53.838 L339.161558,53.327 L338.867558,52.821 L338.536558,52.318 L337.948558,51.504 L337.308558,50.692 L336.630558,49.902 L335.918558,49.129 L335.164558,48.369 L334.376558,47.63 L333.554558,46.906 L332.694558,46.196 L331.802558,45.503 L330.878558,44.826 L329.917558,44.162 L328.924558,43.515 L327.902558,42.881 L326.845558,42.261 L325.758558,41.656 L324.643558,41.063 L323.494558,40.483 L322.317558,39.917 L321.112558,39.362 L319.876558,38.82 L318.612558,38.292 L317.322558,37.775 L316.002558,37.269 L314.655558,36.776 L313.284558,36.295 L311.883558,35.825 L310.458558,35.367 L309.008558,34.919 L307.531558,34.483 L306.030558,34.059 L304.507558,33.646 L302.957558,33.243 L301.385558,32.853 L299.791558,32.472 L298.173558,32.103 L296.533558,31.744 L294.873558,31.396 L293.191558,31.059 L291.488558,30.732 L289.765558,30.415 L288.022558,30.109 L286.256558,29.813 L284.471558,29.533 L282.682558,29.252 L280.855558,28.992 L279.029558,28.732 L277.166558,28.492 L275.306558,28.252 L273.416558,28.025 L271.525558,27.799 L269.602558,27.593 L267.679558,27.387 L265.726558,27.2 L263.775558,27.014 L261.799558,26.846 L259.821558,26.678 L257.817558,26.53 L255.818558,26.382 L254.795558,26.317 L253.787558,26.253 L252.779558,26.188 L251.761558,26.124 L250.733558,26.068 L249.715558,26.012 L248.697558,25.957 L247.668558,25.901 L246.629558,25.855 L245.601558,25.809 L244.573558,25.762 L243.534558,25.716 L242.486558,25.679 L241.449558,25.642 L240.411558,25.605 L239.365558,25.568 L238.311558,25.54 L237.266558,25.512 L236.221558,25.484 L235.166558,25.455 L234.104558,25.436 L233.053558,25.417 L232.001558,25.398 L230.939558,25.379 L229.871558,25.37 L228.813558,25.36 L227.755558,25.35 L226.688558,25.34 L225.616558,25.339 L224.553558,25.338 L223.491558,25.336 L222.418558,25.335 L221.341558,25.342 L220.275558,25.35 L219.207558,25.358 L218.131558,25.365 L217.051558,25.382 L215.981558,25.399 L214.911558,25.415 L213.832558,25.432 L212.751558,25.457 L211.679558,25.482 L210.607558,25.506 L209.525558,25.531 L208.442558,25.565 L207.369558,25.598 L206.295558,25.632 L205.212558,25.666 L204.129558,25.708 L203.055558,25.75 L201.981558,25.792 L200.899558,25.835 L199.818558,25.885 L198.744558,25.935 L197.671558,25.985 L196.589558,26.036 L195.508558,26.095 L194.437558,26.154 L193.365558,26.212 L192.285558,26.271 L191.207558,26.339 L190.138558,26.406 L189.069558,26.474 L187.992558,26.541 L186.918558,26.617 L185.853558,26.692 L184.787558,26.767 L183.713558,26.842 L182.643558,26.926 L181.582558,27.01 L180.521558,27.093 L179.451558,27.177 L178.387558,27.269 L177.332558,27.361 L176.276558,27.452 L175.213558,27.544 L174.155558,27.644 L173.106558,27.743 L172.057558,27.842 L170.998558,27.942 L169.947558,28.05 L168.906558,28.157 L167.864558,28.264 L166.813558,28.372 L165.771558,28.488 L164.738558,28.603 L163.705558,28.718 L162.663558,28.834 L161.630558,28.957 L160.606558,29.08 L159.582558,29.202 L158.548558,29.326 L157.525558,29.457 L156.511558,29.588 L155.497558,29.718 L154.474558,29.85 L153.462558,29.989 L152.460558,30.127 L151.458558,30.265 L150.446558,30.405 L149.446558,30.551 L148.456558,30.696 L147.465558,30.841 L146.461558,30.989 L144.500558,31.295 L142.535558,31.602 L140.598558,31.924 L138.663558,32.246 L136.756558,32.582 L134.848558,32.918 L132.973558,33.269 L131.097558,33.62 L129.256558,33.985 L127.416558,34.351 L125.609558,34.73 L123.801558,35.109 L122.031558,35.502 L120.261558,35.896 L118.532558,36.304 L116.804558,36.711 L115.114558,37.132 L113.423558,37.553 L111.776558,37.988 L110.128558,38.423 L108.527558,38.873 L106.931558,39.32 L105.359558,39.78 L103.815558,40.246 L102.296558,40.719 L100.800558,41.198 L99.329558,41.684 L97.885558,42.177 L96.465558,42.676 L95.071558,43.183 L93.706558,43.696 L92.366558,44.215 L91.054558,44.742 L89.772558,45.276 L88.516558,45.816 L87.288558,46.363 L86.093558,46.917 L84.925558,47.478 L83.786558,48.047 L82.681558,48.622 L81.604558,49.205 L80.558558,49.795 L79.546558,50.393 L78.565558,50.998 L77.615558,51.612 L76.701558,52.233 L75.818558,52.862 L74.968558,53.501 L74.156558,54.148 L73.376558,54.804 L72.631558,55.471 L71.924558,56.147 L71.253558,56.832 L70.616558,57.531 L70.022558,58.239 L69.464558,58.958 L68.945558,59.693 L68.471558,60.437 L68.037558,61.193 L67.645558,61.967 L67.302558,62.748 L67.004558,63.542 L66.753558,64.353 L66.556558,65.169 L66.406558,65.994 L66.310558,66.834 L66.270558,67.675 L66.281558,68.519 L66.348558,69.374 L66.471558,70.223 L66.645558,71.073 L66.875558,71.927 L67.159558,72.774 L67.493558,73.617 L67.882558,74.463 L68.322558,75.301 L68.811558,76.136 L69.354558,76.972 L69.947558,77.802 L70.587558,78.629 L71.282558,79.458 L72.026558,80.282 L72.691558,80.969 L73.401558,81.65 L74.150558,82.319 L74.936558,82.98 L75.765558,83.636 L76.632558,84.284 L77.535558,84.925 L78.480558,85.561 L79.462558,86.189 L80.478558,86.812 L81.535558,87.431 L82.628558,88.043 L83.754558,88.65 L84.920558,89.253 L86.120558,89.85 L87.353558,90.442 L88.623558,91.029 L89.927558,91.611 L91.263558,92.189 L92.634558,92.762 L94.038558,93.329 L95.473558,93.893 L96.941558,94.451 L98.442558,95.004 L99.971558,95.552 L101.533558,96.096 L103.126558,96.634 L104.747558,97.168 L106.398558,97.696 L108.079558,98.22 L109.787558,98.738 L111.524558,99.251 L113.288558,99.759 L115.079558,100.261 L116.897558,100.759 L118.742558,101.25 L120.610558,101.737 L122.505558,102.219 L124.426558,102.695 L126.366558,103.165 L127.352558,103.397 L128.336558,103.63 L129.332558,103.859 L130.328558,104.089 L131.334558,104.315 L132.341558,104.542 L133.359558,104.766 L134.377558,104.989 L135.407558,105.21 L136.435558,105.43 L137.474558,105.648 L138.514558,105.866 L139.564558,106.081 L140.615558,106.295 L141.675558,106.507 L142.738558,106.719 L143.815558,106.926 L144.884558,107.132 L145.954558,107.339 L147.034558,107.547 L148.133558,107.748 L149.223558,107.948 L150.312558,108.148 L151.411558,108.349 L152.529558,108.544 L153.637558,108.737 L154.746558,108.93 L155.862558,109.125 L156.995558,109.313 L158.119558,109.5 L159.244558,109.687 L160.377558,109.876 L161.527558,110.057 L162.668558,110.237 L163.809558,110.418 L164.959558,110.599 L166.124558,110.773 L167.281558,110.947 L168.438558,111.12 L169.603558,111.294 L170.780558,111.462 L171.951558,111.628 L173.121558,111.795 L174.299558,111.962 L175.491558,112.123 L176.675558,112.282 L177.859558,112.441 L179.051558,112.602 L180.255558,112.754 L181.452558,112.906 L182.649558,113.058 L183.852558,113.211 L185.066558,113.356 L186.273558,113.501 L187.481558,113.646 L188.695558,113.792 L189.921558,113.93 L191.139558,114.067 L192.356558,114.204 L193.582558,114.342 L194.817558,114.472 L196.044558,114.601 L197.271558,114.73 L198.505558,114.86 L199.748558,114.983 L200.983558,115.105 L202.218558,115.226 L203.460558,115.349 L204.711558,115.463 L205.953558,115.577 L207.196558,115.691 L208.446558,115.805 L209.703558,115.911 L210.952558,116.016 L212.202558,116.121 L213.458558,116.227 L214.719558,116.325 L215.973558,116.423 L217.227558,116.52 L218.489558,116.619 L219.755558,116.708 L221.014558,116.797 L222.273558,116.886 L223.539558,116.975 L224.809558,117.056 L226.071558,117.136 L227.334558,117.216 L228.603558,117.297 L229.874558,117.369 L231.139558,117.441 L232.403558,117.513 L233.675558,117.586 L234.949558,117.649 L236.215558,117.712 L237.481558,117.775 L238.755558,117.838 L240.029558,117.892 L241.295558,117.946 L242.562558,118 L243.835558,118.054 L245.108558,118.099 L246.374558,118.144 L247.640558,118.19 L248.914558,118.235 L250.186558,118.271 L251.451558,118.307 L252.715558,118.342 L253.988558,118.378 L255.257558,118.405 L256.519558,118.431 L257.781558,118.457 L259.050558,118.483 L260.316558,118.5 L261.575558,118.517 L262.833558,118.533 L264.100558,118.55 L265.362558,118.557 L266.616558,118.564 L267.870558,118.571 L269.132558,118.578 L270.389558,118.575 L271.637558,118.571 L272.885558,118.568 L274.141558,118.565 L275.391558,118.552 L276.634558,118.54 L277.876558,118.527 L279.127558,118.514 L280.370558,118.491 L281.605558,118.468 L282.839558,118.445 L284.083558,118.422 L285.318558,118.388 L286.544558,118.355 L287.770558,118.321 L289.004558,118.287 L290.230558,118.243 L291.447558,118.2 L292.664558,118.156 L293.890558,118.112 L295.106558,118.057 L296.313558,118.003 L297.519558,117.948 L298.735558,117.893 L299.940558,117.827 L301.134558,117.762 L302.329558,117.696 L303.533558,117.63 L304.725558,117.554 L305.908558,117.479 L307.091558,117.403 L308.284558,117.327 L309.464558,117.239 L310.633558,117.152 L311.803558,117.066 L312.983558,116.978 L314.149558,116.879 L315.303558,116.78 L316.457558,116.682 L317.622558,116.582 L318.773558,116.472 L319.912558,116.363 L321.052558,116.254 L322.204558,116.143 L323.339558,116.021 L324.463558,115.9 L325.586558,115.779 L326.722558,115.657 L327.839558,115.522 L328.945558,115.389 L330.050558,115.257 L331.167558,115.122 L332.267558,114.977 L333.356558,114.833 L334.443558,114.69 L335.545558,114.544 L336.628558,114.386 L337.696558,114.23 L338.764558,114.075 L339.847558,113.917 L340.909558,113.746 L341.956558,113.578 L343.004558,113.41 L344.061558,113.24 L345.104558,113.061 L346.144558,112.883 L347.173558,112.699 L348.202558,112.514 L349.221558,112.323 L350.238558,112.132 L351.244558,111.936 L352.252558,111.739 L353.248558,111.536 L354.246558,111.332 L356.210558,110.913 L358.155558,110.482 L360.075558,110.037 L361.969558,109.579 L363.840558,109.109 L365.685558,108.625 L367.502558,108.128 L369.295558,107.618 L371.060558,107.094 L372.796558,106.557 L374.506558,106.006 L376.188558,105.441 L377.839558,104.862 L379.463558,104.27 L381.056558,103.664 L382.618558,103.042 L384.150558,102.408 L385.652558,101.758 L387.120558,101.093 L388.558558,100.415 L389.964558,99.72 L391.334558,99.01 L392.673558,98.287 L393.978558,97.546 L395.246558,96.79 L396.482558,96.019 L397.682558,95.231 L398.844558,94.427 L399.971558,93.607 L401.062558,92.769 L402.112558,91.914 L403.127558,91.044 L404.103558,90.154 L405.036558,89.247 L405.932558,88.324 L406.788558,87.38 L407.599558,86.42 L408.370558,85.442 L409.099558,84.442 L409.781558,83.426 L410.420558,82.393 L411.015558,81.337 L411.559558,80.266 L412.060558,79.177 L412.512558,78.066 L412.912558,76.941 L413.266558,75.799 L413.569558,74.635 L413.818558,73.458 L414.019558,72.266 L414.167558,71.053 L414.260558,69.829 L414.304558,68.59 L414.292558,67.332 L414.225558,66.062 L414.070558,64.291 L413.857558,62.543 L413.588558,60.824 L413.268558,59.13 L412.891558,57.46 L412.460558,55.82 L411.979558,54.205 L411.443558,52.615 L410.855558,51.054 L410.219558,49.519 L409.529558,48.009 L408.789558,46.528 L408.002558,45.073 L407.164558,43.643 L406.279558,42.242 L405.349558,40.867 L404.370558,39.516 L403.346558,38.194 L402.279558,36.898 L401.164558,35.626 L400.005558,34.383 L398.806558,33.164 L397.562558,31.971 L396.275558,30.805 L394.950558,29.663 L393.581558,28.545 L392.173558,27.454 L390.727558,26.387 L389.240558,25.343 L387.715558,24.326 L386.154558,23.331 L384.553558,22.36 L382.916558,21.413 L381.244558,20.489 L379.535558,19.588 L377.791558,18.711 L376.014558,17.855 L374.201558,17.022 L372.358558,16.214 L371.416558,15.818 L370.477558,15.423 L369.520558,15.04 L368.564558,14.656 L367.591558,14.284 L366.619558,13.912 L365.633558,13.55 L364.645558,13.188 L363.642558,12.837 L362.638558,12.486 L361.619558,12.145 L360.600558,11.806 L359.568558,11.475 L358.535558,11.145 L357.486558,10.824 L356.437558,10.504 L355.373558,10.194 L354.311558,9.885 L353.235558,9.585 L352.158558,9.285 L351.066558,8.995 L349.974558,8.706 L348.869558,8.426 L347.764558,8.147 L346.646558,7.877 L345.528558,7.607 L344.395558,7.347 L343.263558,7.087 L342.117558,6.837 L340.973558,6.588 L339.815558,6.347 L338.658558,6.106 L337.487558,5.875 L336.316558,5.644 L335.133558,5.423 L333.950558,5.202 L332.756558,4.99 L331.561558,4.777 L330.354558,4.576 L329.147558,4.374 L327.928558,4.182 L326.710558,3.99 L325.481558,3.806 L324.251558,3.623 L323.010558,3.449 L321.769558,3.275 L320.517558,3.11 L319.265558,2.945 L318.004558,2.789 L316.742558,2.632 L315.469558,2.485 L314.196558,2.338 L312.913558,2.199 L311.631558,2.061 L310.339558,1.931 L309.047558,1.801 L307.744558,1.68 L306.442558,1.559 L305.130558,1.447 L303.819558,1.335 L302.500558,1.233 L301.179558,1.133 L299.849558,1.042 L298.520558,0.951 L297.181558,0.868 L295.844558,0.785 L294.498558,0.71 L293.152558,0.636 L291.797558,0.569 L290.443558,0.503 L289.081558,0.445 L287.719558,0.387 L286.350558,0.336 L284.981558,0.286 L283.604558,0.243 L282.227558,0.201 L280.843558,0.167 L279.457558,0.133 L278.062558,0.11 L276.673558,0.087 L275.285558,0.064 L273.887558,0.039 L272.475558,0.029 L271.074558,0.019 L269.672558,0.01 L268.261558,0 L266.838558,0.006 L265.425558,0.012 L264.011558,0.018 L262.589558,0.024 L261.158558,0.044 L259.734558,0.063 L258.310558,0.083 L256.878558,0.103 L255.436558,0.138 L254.002558,0.172 L252.568558,0.207 L251.127558,0.241 L249.676558,0.291 L248.233558,0.34 L246.791558,0.389 L245.341558,0.437 L243.884558,0.498 L242.435558,0.558 L240.985558,0.619 L239.528558,0.68 L238.063558,0.755 L236.607558,0.829 L235.150558,0.904 L233.686558,0.979 L232.217558,1.067 L230.754558,1.155 L229.292558,1.244 L227.823558,1.332 L226.350558,1.433 L224.884558,1.533 L223.417558,1.634 L221.944558,1.734 L220.467558,1.848 L218.997558,1.962 L217.526558,2.075 L216.049558,2.188 L214.570558,2.314 L213.097558,2.439 L211.624558,2.564 L210.146558,2.69 L208.666558,2.828 L207.192558,2.964 L205.717558,3.101 L204.237558,3.238 L202.756558,3.388 L201.281558,3.537 L199.806558,3.685 L198.326558,3.835 L196.845558,3.996 L195.371558,4.157 L193.897558,4.318 L192.418558,4.479 L190.940558,4.651 L189.467558,4.822 L187.995558,4.992 L186.516558,5.164 L185.040558,5.346 L183.570558,5.528 L182.100558,5.71 L180.625558,5.892 L179.153558,6.086 L177.687558,6.278 L176.221558,6.471 L174.749558,6.665 L173.283558,6.868 L171.821558,7.07 L170.359558,7.273 L168.892558,7.476 L167.430558,7.69 L165.974558,7.903 L164.519558,8.115 L163.057558,8.329 L161.603558,8.553 L160.154558,8.776 L158.705558,8.999 L157.251558,9.222 L155.805558,9.455 L154.363558,9.687 L152.922558,9.919 L151.475558,10.151 L150.037558,10.394 L148.604558,10.635 L147.172558,10.876 L145.734558,11.118 L144.306558,11.37 L142.884558,11.62 L141.462558,11.871 L140.034558,12.122 L138.617558,12.382 L137.205558,12.64 L135.793558,12.899 L134.376558,13.158 L132.970558,13.426 L131.570558,13.693 L130.170558,13.96 L128.765558,14.228 L127.373558,14.504 L125.986558,14.779 L124.600558,15.054 L123.208558,15.33 L121.830558,15.614 L120.456558,15.896 L119.083558,16.178 L117.704558,16.462 L116.340558,16.753 L114.982558,17.043 L113.624558,17.334 L112.260558,17.625 L110.913558,17.924 L109.572558,18.221 L108.230558,18.519 L106.884558,18.817 L105.553558,19.122 L104.227558,19.425 L102.902558,19.729 L101.570558,20.034 L100.257558,20.345 L98.950558,20.656 L97.643558,20.966 L96.330558,21.278 L95.037558,21.596 L93.750558,21.913 L92.463558,22.23 L91.170558,22.548 L89.896558,22.872 L88.628558,23.194 L87.359558,23.517 L86.085558,23.841 L84.832558,24.171 L83.585558,24.499 L82.338558,24.827 L81.085558,25.158 L79.855558,25.493 L78.631558,25.827 L77.408558,26.161 L76.180558,26.496 L74.968558,26.835 L73.757558,27.174 L72.558558,27.515 L71.359558,27.856 L70.173558,28.2 L68.987558,28.544 L67.813558,28.89 L66.638558,29.236 L65.477558,29.584 L64.315558,29.932 L63.166558,30.283 L62.018558,30.634 L60.882558,30.986 L59.746558,31.339 L58.624558,31.694 L57.501558,32.049 L56.393558,32.406 L55.285558,32.763 L54.189558,33.122 L53.094558,33.481 L52.013558,33.842 L50.932558,34.203 L49.866558,34.565 L48.800558,34.928 L47.748558,35.292 L46.695558,35.657 L45.658558,36.023 L44.621558,36.389 L43.599558,36.757 L42.578558,37.125 L41.571558,37.494 L40.564558,37.863 L39.572558,38.234 L38.581558,38.605 L37.606558,38.978 L36.632558,39.35 L35.672558,39.724 L34.713558,40.097 L33.770558,40.472 L32.825558,40.848 L30.975558,41.6 L29.156558,42.355 L27.371558,43.112 L25.622558,43.871 L23.907558,44.632 L22.227558,45.395 L20.585558,46.16 L18.978558,46.926 L17.408558,47.695 L15.878558,48.464 L14.383558,49.235 L12.927558,50.007 L11.512558,50.78 L10.134558,51.554 L8.79755805,52.329 L7.50255805,53.105 L6.24555805,53.882 L5.03055805,54.661 L3.85955805,55.439 L2.72855805,56.218 L1.64055805,56.999 L0.608558048,57.771 C-0.0634419524,58.274 -0.199441952,59.227 0.303558048,59.899 C0.806558048,60.571 1.75955805,60.708 2.43155805,60.205 L3.43655805,59.451 L4.47655805,58.705 L5.56355805,57.957 L6.69155805,57.206 L7.86455805,56.455 L9.08255805,55.702 L10.340558,54.947 L11.641558,54.193 L12.985558,53.438 L14.368558,52.682 L15.791558,51.927 L17.256558,51.171 L18.758558,50.416 L20.299558,49.662 L21.880558,48.908 L23.497558,48.155 L25.150558,47.403 L26.843558,46.652 L28.569558,45.902 L30.331558,45.155 L32.129558,44.409 L33.961558,43.664 L34.892558,43.293 L35.825558,42.922 L36.774558,42.552 L37.724558,42.182 L38.690558,41.813 L39.655558,41.445 L40.636558,41.077 L41.618558,40.71 L42.616558,40.344 L43.614558,39.977 L44.628558,39.612 L45.640558,39.248 L46.668558,38.884 L47.697558,38.521 L48.741558,38.16 L49.785558,37.798 L50.843558,37.438 L51.901558,37.078 L52.974558,36.719 L54.046558,36.361 L55.134558,36.005 L56.222558,35.648 L57.323558,35.293 L58.423558,34.939 L59.538558,34.586 L60.653558,34.233 L61.782558,33.883 L62.911558,33.532 L64.052558,33.184 L65.193558,32.835 L66.348558,32.489 L67.502558,32.142 L68.670558,31.798 L69.838558,31.454 L71.017558,31.112 L72.196558,30.77 L73.388558,30.431 L74.580558,30.092 L75.784558,29.755 L76.987558,29.418 L78.206558,29.085 L79.430558,28.751 L80.653558,28.417 L81.870558,28.085 L83.110558,27.758 L84.357558,27.43 L85.604558,27.101 L86.844558,26.774 L88.106558,26.453 L89.374558,26.131 L90.642558,25.808 L91.905558,25.487 L93.187558,25.171 L94.474558,24.854 L95.761558,24.538 L97.042558,24.222 L98.343558,23.913 L99.650558,23.603 L100.957558,23.292 L102.258558,22.983 L103.578558,22.681 L104.903558,22.377 L106.229558,22.074 L107.549558,21.771 L108.885558,21.476 L110.227558,21.179 L111.568558,20.882 L112.904558,20.587 L114.257558,20.299 L115.615558,20.009 L116.973558,19.72 L118.326558,19.432 L119.693558,19.152 L121.067558,18.87 L122.441558,18.588 L123.809558,18.308 L125.190558,18.034 L126.577558,17.76 L127.964558,17.486 L129.345558,17.213 L130.739558,16.948 L132.139558,16.682 L133.539558,16.415 L134.933558,16.15 L136.340558,15.894 L137.753558,15.637 L139.165558,15.38 L140.572558,15.124 L141.989558,14.876 L143.412558,14.627 L144.834558,14.377 L146.251558,14.129 L147.678558,13.89 L149.111558,13.651 L150.544558,13.411 L151.971558,13.172 L153.407558,12.942 L154.848558,12.712 L156.290558,12.481 L157.726558,12.252 L159.170558,12.031 L160.619558,11.81 L162.068558,11.588 L163.512558,11.368 L164.962558,11.157 L166.418558,10.946 L167.874558,10.734 L169.324558,10.524 L170.780558,10.323 L172.242558,10.122 L173.704558,9.921 L175.160558,9.721 L176.621558,9.53 L178.088558,9.339 L179.554558,9.148 L181.014558,8.957 L182.478558,8.778 L183.949558,8.597 L185.419558,8.417 L186.883558,8.237 L188.349558,8.069 L189.822558,7.9 L191.295558,7.731 L192.762558,7.563 L194.231558,7.406 L195.705558,7.248 L197.180558,7.09 L198.648558,6.933 L200.117558,6.788 L201.592558,6.642 L203.067558,6.496 L204.535558,6.351 L206.003558,6.217 L207.478558,6.084 L208.952558,5.95 L210.421558,5.817 L211.888558,5.695 L213.361558,5.572 L214.834558,5.45 L216.300558,5.328 L217.764558,5.218 L219.235558,5.109 L220.705558,5 L222.169558,4.892 L223.629558,4.796 L225.096558,4.7 L226.563558,4.605 L228.023558,4.509 L229.479558,4.426 L230.942558,4.342 L232.404558,4.258 L233.860558,4.175 L235.309558,4.105 L236.766558,4.035 L238.223558,3.965 L239.672558,3.895 L241.115558,3.839 L242.565558,3.783 L244.015558,3.727 L245.457558,3.671 L246.893558,3.628 L248.336558,3.587 L249.778558,3.545 L251.213558,3.503 L252.639558,3.476 L254.073558,3.449 L255.507558,3.422 L256.932558,3.395 L258.347558,3.383 L259.771558,3.37 L261.195558,3.358 L262.611558,3.346 L264.016558,3.347 L265.430558,3.349 L266.844558,3.35 L268.248558,3.351 L269.640558,3.368 L271.042558,3.385 L272.444558,3.402 L273.836558,3.418 L275.214558,3.451 L276.602558,3.486 L277.991558,3.521 L279.372558,3.555 L280.744558,3.601 L282.117558,3.646 L283.483558,3.7 L284.849558,3.754 L286.207558,3.815 L287.565558,3.877 L288.917558,3.946 L290.267558,4.015 L291.609558,4.093 L292.952558,4.17 L294.285558,4.256 L295.620558,4.341 L296.946558,4.434 L298.271558,4.528 L299.587558,4.629 L300.904558,4.731 L302.211558,4.841 L303.518558,4.95 L304.817558,5.064 L306.116558,5.178 L307.404558,5.3 L308.693558,5.423 L309.971558,5.554 L311.250558,5.685 L312.519558,5.824 L313.788558,5.964 L315.046558,6.112 L316.304558,6.26 L317.551558,6.417 L318.798558,6.574 L320.035558,6.739 L321.272558,6.905 L322.497558,7.079 L323.722558,7.253 L324.935558,7.437 L326.149558,7.621 L327.352558,7.813 L328.554558,8.005 L329.744558,8.206 L330.933558,8.407 L332.111558,8.617 L333.289558,8.827 L334.455558,9.045 L335.620558,9.263 L336.773558,9.491 L337.925558,9.719 L339.064558,9.956 L340.203558,10.194 L341.331558,10.44 L342.457558,10.686 L343.569558,10.942 L344.681558,11.198 L345.779558,11.463 L346.878558,11.729 L347.964558,12.004 L349.049558,12.278 L350.119558,12.562 L351.188558,12.847 L352.243558,13.141 L353.299558,13.436 L354.341558,13.739 L355.381558,14.043 L356.406558,14.356 L357.431558,14.67 L358.441558,14.993 L359.451558,15.318 L360.446558,15.651 L361.440558,15.984 L362.418558,16.328 L363.395558,16.671 L364.356558,17.025 L365.318558,17.379 L366.265558,17.743 L367.210558,18.106 L368.139558,18.479 L369.067558,18.853 L369.977558,19.236 L370.884558,19.619 L372.679558,20.408 L374.431558,21.216 L376.148558,22.045 L377.830558,22.894 L379.474558,23.763 L381.081558,24.654 L382.652558,25.565 L384.182558,26.496 L385.675558,27.45 L387.130558,28.424 L388.543558,29.418 L389.916558,30.435 L391.251558,31.471 L392.543558,32.529 L393.793558,33.61 L395.004558,34.71 L396.170558,35.832 L397.293558,36.977 L398.377558,38.142 L399.414558,39.328 L400.407558,40.539 L401.359558,41.77 L402.264558,43.023 L403.124558,44.3 L403.942558,45.6 L404.710558,46.92 L405.432558,48.267 L406.112558,49.636 L406.742558,51.027 L407.325558,52.445 L407.863558,53.886 L408.352558,55.35 L408.791558,56.843 L409.185558,58.359 L409.527558,59.899 L409.819558,61.469 L410.064558,63.064 L410.256558,64.684 L410.396558,66.337 L410.451558,67.447 L410.458558,68.536 L410.417558,69.611 L410.333558,70.669 L410.203558,71.707 L410.027558,72.732 L409.810558,73.743 L409.549558,74.734 L409.242558,75.714 L408.894558,76.681 L408.504558,77.631 L408.068558,78.571 L407.593558,79.499 L407.076558,80.411 L406.514558,81.313 L405.911558,82.205 L405.268558,83.081 L404.580558,83.948 L403.853558,84.804 L403.086558,85.645 L402.274558,86.477 L401.423558,87.297 L400.534558,88.103 L399.601558,88.899 L398.630558,89.683 L397.622558,90.454 L396.571558,91.213 L395.484558,91.96 L394.360558,92.694 L393.195558,93.415 L391.996558,94.125 L390.760558,94.821 L389.486558,95.505 L388.179558,96.177 L386.837558,96.835 L385.457558,97.481 L384.046558,98.115 L382.602558,98.735 L381.123558,99.342 L379.613558,99.937 L378.071558,100.519 L376.496558,101.088 L374.891558,101.645 L373.257558,102.188 L371.591558,102.719 L369.897558,103.238 L368.175558,103.744 L366.422558,104.237 L364.644558,104.718 L362.838558,105.186 L361.004558,105.642 L359.146558,106.085 L357.262558,106.516 L355.350558,106.935 L353.413558,107.342 L352.437558,107.538 L351.458558,107.735 L350.467558,107.926 L349.475558,108.117 L348.472558,108.302 L347.470558,108.487 L346.456558,108.666 L345.442558,108.845 L344.417558,109.018 L343.394558,109.19 L342.357558,109.354 L341.309558,109.52 L340.262558,109.686 L339.229558,109.849 L338.174558,110.001 L337.106558,110.154 L336.037558,110.308 L334.983558,110.459 L333.908558,110.598 L332.819558,110.74 L331.731558,110.881 L330.655558,111.021 L329.561558,111.15 L328.456558,111.28 L327.350558,111.41 L326.257558,111.539 L325.147558,111.656 L324.023558,111.774 L322.900558,111.893 L321.788558,112.01 L320.660558,112.116 L319.520558,112.222 L318.380558,112.329 L317.251558,112.435 L316.107558,112.53 L314.952558,112.626 L313.798558,112.723 L312.654558,112.819 L311.496558,112.903 L310.327558,112.988 L309.158558,113.073 L307.999558,113.158 L306.827558,113.231 L305.644558,113.305 L304.461558,113.379 L303.288558,113.452 L302.102558,113.515 L300.908558,113.579 L299.713558,113.643 L298.529558,113.706 L297.333558,113.758 L296.126558,113.811 L294.920558,113.864 L293.723558,113.916 L292.516558,113.958 L291.299558,114 L290.082558,114.042 L288.874558,114.083 L287.656558,114.115 L286.431558,114.148 L285.205558,114.18 L283.988558,114.213 L282.763558,114.235 L281.528558,114.257 L280.294558,114.279 L279.068558,114.3 L277.835558,114.312 L276.593558,114.324 L275.350558,114.335 L274.116558,114.347 L272.876558,114.349 L271.628558,114.351 L270.379558,114.354 L269.140558,114.356 L267.895558,114.348 L266.641558,114.34 L265.387558,114.332 L264.141558,114.325 L262.891558,114.307 L261.633558,114.289 L260.374558,114.271 L259.123558,114.254 L257.869558,114.227 L256.607558,114.201 L255.345558,114.175 L254.092558,114.148 L252.835558,114.112 L251.571558,114.076 L250.306558,114.04 L249.050558,114.004 L247.792558,113.959 L246.526558,113.913 L245.260558,113.868 L244.001558,113.822 L242.742558,113.768 L241.476558,113.714 L240.209558,113.66 L238.951558,113.606 L237.692558,113.543 L236.426558,113.48 L235.160558,113.416 L233.902558,113.353 L232.645558,113.281 L231.380558,113.209 L230.116558,113.136 L228.858558,113.064 L227.603558,112.984 L226.341558,112.903 L225.079558,112.822 L223.824558,112.742 L222.573558,112.653 L221.314558,112.564 L220.055558,112.474 L218.804558,112.385 L217.557558,112.288 L216.303558,112.19 L215.049558,112.092 L213.801558,111.994 L212.559558,111.889 L211.310558,111.783 L210.061558,111.677 L208.819558,111.572 L207.584558,111.459 L206.341558,111.344 L205.099558,111.23 L203.864558,111.117 L202.636558,110.995 L201.401558,110.873 L200.166558,110.75 L198.938558,110.629 L197.717558,110.5 L196.490558,110.37 L195.263558,110.24 L194.043558,110.111 L192.833558,109.975 L191.616558,109.837 L190.398558,109.699 L189.188558,109.563 L187.989558,109.418 L186.782558,109.273 L185.575558,109.127 L184.375558,108.983 L183.185558,108.832 L181.989558,108.679 L180.793558,108.527 L179.604558,108.376 L178.428558,108.217 L177.244558,108.057 L176.060558,107.897 L174.885558,107.739 L173.723558,107.573 L172.553558,107.406 L171.382558,107.239 L170.220558,107.073 L169.070558,106.9 L167.914558,106.727 L166.757558,106.553 L165.608558,106.381 L164.476558,106.201 L163.335558,106.021 L162.193558,105.84 L161.061558,105.661 L159.945558,105.475 L158.821558,105.287 L157.697558,105.1 L156.580558,104.913 L155.480558,104.721 L154.372558,104.528 L153.264558,104.334 L152.164558,104.142 L151.084558,103.943 L149.994558,103.743 L148.905558,103.543 L147.825558,103.344 L146.765558,103.14 L145.695558,102.933 L144.625558,102.726 L143.562558,102.521 L142.513558,102.311 L141.462558,102.101 L140.422558,101.888 L139.382558,101.675 L138.353558,101.459 L137.324558,101.243 L136.305558,101.024 L135.286558,100.805 L134.278558,100.584 L133.271558,100.362 L132.276558,100.137 L131.280558,99.912 L130.295558,99.685 L129.310558,99.458 L128.338558,99.228 L127.368558,98.998 L125.446558,98.532 L123.550558,98.061 L121.680558,97.585 L119.837558,97.103 L118.018558,96.616 L116.228558,96.124 L114.465558,95.627 L112.729558,95.126 L111.023558,94.619 L109.346558,94.108 L107.696558,93.593 L106.078558,93.073 L104.492558,92.548 L102.934558,92.02 L101.410558,91.487 L99.918558,90.95 L98.457558,90.41 L97.031558,89.865 L95.639558,89.317 L94.279558,88.766 L92.956558,88.211 L91.669558,87.652 L90.415558,87.091 L89.201558,86.527 L88.024558,85.96 L86.881558,85.39 L85.780558,84.819 L84.718558,84.244 L83.693558,83.668 L82.710558,83.091 L81.768558,82.512 L80.865558,81.932 L80.007558,81.353 L79.191558,80.772 L78.415558,80.191 L77.686558,79.613 L77.001558,79.034 L76.357558,78.458 L75.762558,77.886 L75.213558,77.316 L74.567558,76.6 L73.980558,75.898 L73.443558,75.203 L72.955558,74.518 L72.521558,73.848 L72.136558,73.187 L71.795558,72.537 L71.505558,71.904 L71.259558,71.278 L71.053558,70.664 L70.893558,70.067 L70.773558,69.474 L70.689558,68.891 L70.645558,68.322 L70.639558,67.753 L70.667558,67.189 L70.731558,66.635 L70.833558,66.076 L70.969558,65.516 L71.141558,64.963 L71.353558,64.401 L71.601558,63.838 L71.886558,63.276 L72.214558,62.708 L72.579558,62.137 L72.982558,61.568 L73.429558,60.994 L73.914558,60.418 L74.437558,59.845 L75.003558,59.269 L75.607558,58.693 L76.249558,58.12 L76.933558,57.547 L77.653558,56.975 L78.410558,56.407 L79.208558,55.84 L80.040558,55.276 L80.908558,54.717 L81.815558,54.16 L82.755558,53.606 L83.730558,53.057 L84.741558,52.512 L85.784558,51.971 L86.859558,51.436 L87.970558,50.904 L89.111558,50.378 L90.283558,49.857 L91.487558,49.34 L92.721558,48.829 L93.984558,48.324 L95.279558,47.824 L96.601558,47.329 L97.951558,46.84 L99.330558,46.357 L100.735558,45.88 L102.167558,45.409 L103.626558,44.944 L105.110558,44.484 L106.619558,44.031 L108.150558,43.586 L109.723558,43.146 L111.292558,42.709 L112.908558,42.284 L114.524558,41.859 L116.185558,41.448 L117.849558,41.036 L119.551558,40.637 L121.253558,40.238 L122.996558,39.853 L124.739558,39.468 L126.521558,39.097 L128.305558,38.725 L130.123558,38.367 L131.940558,38.009 L133.792558,37.665 L135.644558,37.321 L137.530558,36.991 L139.416558,36.662 L141.331558,36.346 L143.246558,36.03 L145.189558,35.729 L147.137558,35.427 L148.113558,35.285 L149.104558,35.142 L150.095558,34.998 L151.076558,34.856 L152.069558,34.72 L153.071558,34.583 L154.073558,34.447 L155.065558,34.311 L156.069558,34.184 L157.082558,34.055 L158.096558,33.926 L159.100558,33.798 L160.115558,33.678 L161.139558,33.557 L162.163558,33.436 L163.179558,33.315 L164.203558,33.202 L165.236558,33.088 L166.269558,32.974 L167.292558,32.861 L168.324558,32.755 L169.366558,32.649 L170.407558,32.543 L171.440558,32.438 L172.479558,32.34 L173.529558,32.242 L174.578558,32.144 L175.619558,32.047 L176.665558,31.957 L177.721558,31.866 L178.776558,31.776 L179.822558,31.686 L180.873558,31.604 L181.934558,31.521 L182.995558,31.439 L184.047558,31.357 L185.103558,31.284 L186.169558,31.21 L187.234558,31.135 L188.292558,31.062 L189.352558,30.996 L190.421558,30.929 L191.490558,30.863 L192.550558,30.797 L193.612558,30.739 L194.684558,30.681 L195.755558,30.622 L196.818558,30.565 L197.882558,30.515 L198.955558,30.466 L200.028558,30.416 L201.093558,30.367 L202.159558,30.325 L203.233558,30.284 L204.306558,30.242 L205.371558,30.2 L206.435558,30.167 L207.509558,30.134 L208.583558,30.101 L209.647558,30.068 L210.710558,30.044 L211.782558,30.02 L212.855558,29.996 L213.919558,29.972 L214.980558,29.956 L216.050558,29.939 L217.121558,29.923 L218.181558,29.907 L219.239558,29.9 L220.306558,29.893 L221.373558,29.885 L222.431558,29.878 L223.484558,29.88 L224.546558,29.882 L225.609558,29.883 L226.663558,29.885 L227.712558,29.895 L228.770558,29.905 L229.828558,29.915 L230.876558,29.925 L231.918558,29.944 L232.970558,29.964 L234.022558,29.983 L235.064558,30.002 L236.098558,30.03 L237.142558,30.059 L238.187558,30.087 L239.222558,30.115 L240.250558,30.152 L241.287558,30.189 L242.324558,30.226 L243.351558,30.263 L244.368558,30.309 L245.396558,30.355 L246.424558,30.402 L247.441558,30.448 L248.448558,30.503 L249.465558,30.56 L250.483558,30.616 L251.491558,30.672 L252.488558,30.736 L253.496558,30.801 L254.504558,30.866 L255.495558,30.93 L257.479558,31.079 L259.458558,31.227 L261.410558,31.395 L263.363558,31.562 L265.291558,31.748 L267.217558,31.933 L269.112558,32.138 L271.007558,32.343 L272.870558,32.568 L274.734558,32.793 L276.566558,33.04 L278.395558,33.289 L280.189558,33.557 L281.981558,33.825 L283.735558,34.113 L285.494558,34.402 L287.217558,34.704 L288.922558,35.016 L290.606558,35.338 L292.270558,35.669 L293.910558,36.01 L295.528558,36.362 L297.124558,36.722 L298.695558,37.093 L300.243558,37.474 L301.767558,37.864 L303.264558,38.264 L304.736558,38.674 L306.184558,39.093 L307.603558,39.522 L308.995558,39.961 L310.361558,40.41 L311.697558,40.868 L313.004558,41.337 L314.284558,41.815 L315.532558,42.302 L316.750558,42.799 L317.939558,43.306 L319.093558,43.821 L320.217558,44.347 L321.309558,44.881 L322.366558,45.423 L323.390558,45.976 L324.382558,46.537 L325.337558,47.106 L326.257558,47.684 L327.143558,48.27 L327.991558,48.863 L328.804558,49.464 L329.582558,50.072 L330.319558,50.685 L331.020558,51.308 L331.685558,51.937 L332.308558,52.57 L332.895558,53.212 L333.446558,53.859 L333.954558,54.509 L334.433558,55.179 L334.609558,55.449 L334.761558,55.712 L334.889558,55.969 L334.995558,56.214 L335.077558,56.441 L335.140558,56.665 L335.187558,56.88 L335.215558,57.079 L335.229558,57.282 L335.230558,57.483 L335.216558,57.675 L335.187558,57.878 L335.144558,58.087 L335.085558,58.294 L335.006558,58.516 L334.910558,58.747 L334.795558,58.981 L334.654558,59.23 L334.493558,59.487 L334.310558,59.748 L334.100558,60.021 L333.866558,60.3 L333.610558,60.582 L333.354558,60.845 L332.685558,61.466 L331.950558,62.068 L331.111558,62.683 L330.184558,63.302 L329.168558,63.922 L328.057558,64.543 L326.868558,65.164 L325.597558,65.78 L324.242558,66.393 L322.815558,67.001 L321.315558,67.601 L319.739558,68.196 L318.099558,68.783 L316.393558,69.361 L314.620558,69.931 L312.784558,70.494 L311.845558,70.767 L310.900558,71.043 L309.927558,71.314 L308.951558,71.585 L307.951558,71.851 L306.952558,72.117 L305.926558,72.377 L304.900558,72.638 L303.849558,72.893 L302.796558,73.148 L301.722558,73.398 L300.648558,73.648 L299.552558,73.892 L298.455558,74.136 L297.337558,74.375 L296.217558,74.613 L295.078558,74.846 L293.941558,75.079 L292.784558,75.305 L291.627558,75.532 L290.451558,75.752 L289.274558,75.972 L288.082558,76.186 L286.890558,76.4 L285.682558,76.608 L284.474558,76.815 L283.252558,77.016 L282.032558,77.216 L280.794558,77.407 L279.543558,77.6 L278.293558,77.793 L277.060558,77.983 L275.804558,78.158 L274.530558,78.337 L273.256558,78.515 L271.999558,78.691 L270.724558,78.853 L269.432558,79.017 L268.139558,79.181 L266.862558,79.343 L265.572558,79.491 L264.267558,79.641 L262.961558,79.791 L261.673558,79.939 L260.374558,80.071 L259.058558,80.205 L257.743558,80.339 L256.444558,80.472 L255.140558,80.588 L253.819558,80.706 L252.498558,80.824 L251.193558,80.94 L249.886558,81.042 L248.565558,81.145 L247.243558,81.247 L245.938558,81.349 L244.636558,81.433 L243.318558,81.519 L241.999558,81.604 L240.698558,81.688 L239.405558,81.755 L238.094558,81.823 L236.784558,81.891 L235.485558,81.958 L234.195558,82.013 L232.901558,82.069 L231.615558,82.115 L230.329558,82.161 L229.051558,82.198 L227.772558,82.235 L226.503558,82.263 L225.234558,82.292 L223.975558,82.311 L222.717558,82.33 L221.471558,82.339 L220.224558,82.349 L218.989558,82.349 L217.754558,82.35 L216.534558,82.341 L215.314558,82.332 L214.109558,82.313 L212.903558,82.294 L211.713558,82.266 L210.523558,82.238 L209.350558,82.2 L208.178558,82.162 L207.025558,82.114 L205.871558,82.066 L204.734558,82.008 L203.599558,81.951 L202.485558,81.883 L201.371558,81.815 L200.279558,81.737 L199.186558,81.658 L198.114558,81.57 L197.044558,81.483 L195.998558,81.384 L194.953558,81.286 L193.933558,81.177 L192.912558,81.067 L191.915558,80.948 L190.926558,80.83 L188.986558,80.571 L187.110558,80.291 L185.290558,79.991 L183.536558,79.67 L181.847558,79.326 L180.221558,78.964 L178.670558,78.58 L177.191558,78.175 L175.783558,77.752 L174.460558,77.309 L173.216558,76.847 L172.053558,76.368 L170.984558,75.876 L169.976558,75.352 L169.546558,75.108 L169.116558,74.849 L168.707558,74.586 L168.321558,74.322 L167.964558,74.059 L167.646558,73.807 L166.882558,73.154 L166.235558,72.544 L165.677558,71.956 L165.202558,71.396 L164.819558,70.877 L164.514558,70.388 L164.278558,69.936 L164.115558,69.535 L164.008558,69.162 L163.945558,68.821 L163.926558,68.52 L163.943558,68.22 L163.993558,67.921 L164.078558,67.626 L164.213558,67.303 L164.394558,66.959 L164.628558,66.604 L164.929558,66.221 L165.290558,65.822 L165.711558,65.416 L166.204558,64.996 L166.757558,64.57 L167.369558,64.145 L168.048558,63.716 L168.782558,63.288 L169.571558,62.865 L170.418558,62.445 L171.316558,62.029 L172.261558,61.621 L173.260558,61.218 L174.301558,60.822 L175.387558,60.435 L176.518558,60.056 L177.687558,59.684 L178.895558,59.322 L180.143558,58.968 L181.423558,58.623 L182.737558,58.288 L184.086558,57.961 L185.463558,57.644 L186.868558,57.337 L188.296558,57.041 L189.771558,56.756 L191.240558,56.472 L192.753558,56.209 L194.267558,55.945 L195.819558,55.702 L197.374558,55.459 L198.957558,55.235 L200.540558,55.01 L202.147558,54.807 L203.756558,54.603 L205.383558,54.42 L207.012558,54.237 L208.653558,54.074 L210.292558,53.91 L211.938558,53.767 L213.584558,53.624 L215.230558,53.503 L216.878558,53.381 L218.519558,53.278 L220.160558,53.176 L221.787558,53.094 L223.415558,53.013 L225.024558,52.953 L226.638558,52.892 L228.226558,52.847 L229.804558,52.812 L231.366558,52.787 L232.912558,52.772 L234.438558,52.768 L235.944558,52.774 L237.429558,52.79 L238.890558,52.817 L240.326558,52.854 L241.736558,52.901 L243.117558,52.959 L244.467558,53.027 L245.788558,53.104 L247.074558,53.192 L248.325558,53.291 L249.542558,53.399 L250.717558,53.517 L251.853558,53.645 L252.949558,53.783 L253.998558,53.93 L255.002558,54.087 L255.960558,54.253 L256.864558,54.427 L257.717558,54.61 L258.517558,54.801 L259.255558,54.997 L259.934558,55.2 L260.552558,55.407 L261.096558,55.613 L261.630558,55.846 C262.987558,56.437 264.566558,55.815 265.156558,54.458 C265.747558,53.1 265.125558,51.522 263.768558,50.931 Z" id="Fill-282"></path>
        </g>
    </g>
</svg>
