<?xml version="1.0" encoding="UTF-8"?>
<svg width="289px" height="92px" viewBox="0 0 289 92" version="1.1" xmlns="http://www.w3.org/2000/svg" xmlns:xlink="http://www.w3.org/1999/xlink">
    <title>177</title>
    <g id="Page-1" stroke="none" stroke-width="1" fill="none" fill-rule="evenodd">
        <g id="177" transform="translate(0.537611, 0.848000)" fill="currentColor">
            <path d="M48.662,53.686 L48.544,51.959 L48.354,50.192 L48.124,48.457 L47.877,46.752 L47.634,45.08 L47.417,43.442 L47.244,41.842 L47.135,40.289 L47.11,38.735 L47.13,38.034 L47.176,37.312 L47.251,36.598 L47.354,35.895 L47.486,35.208 L47.657,34.515 L47.787,34.077 L47.942,33.637 L48.121,33.195 L48.322,32.755 L48.542,32.323 L48.787,31.889 L49.051,31.459 L49.333,31.037 L49.638,30.616 L49.959,30.199 L50.296,29.792 L50.627,29.415 L51.407,28.6 L52.211,27.849 L53.065,27.131 L53.95,26.449 L54.857,25.814 L55.785,25.221 L56.637,24.72 L57.491,24.217 L58.363,23.746 L59.238,23.274 L60.131,22.832 L61.029,22.386 L61.942,21.968 L62.853,21.549 L63.778,21.158 L64.706,20.766 L65.646,20.399 L66.591,20.03 L67.546,19.684 L68.5,19.337 L69.463,19.013 L70.429,18.688 L71.401,18.385 L72.379,18.079 L73.36,17.792 L74.342,17.505 L75.327,17.235 L76.315,16.965 L77.304,16.711 L78.292,16.458 L80.157,16.004 L82.016,15.552 L83.881,15.124 L85.747,14.695 L87.618,14.29 L89.491,13.884 L91.369,13.499 L93.246,13.114 L95.128,12.751 L97.01,12.388 L98.897,12.047 L100.785,11.705 L102.677,11.382 L104.567,11.06 L106.461,10.758 L108.356,10.454 L110.253,10.17 L112.152,9.886 L114.053,9.619 L115.954,9.352 L117.856,9.104 L119.759,8.856 L121.663,8.626 L123.573,8.395 L124.635,8.276 L125.711,8.154 L126.787,8.033 L127.851,7.913 L128.918,7.802 L129.996,7.69 L131.074,7.578 L132.14,7.467 L133.208,7.365 L134.288,7.262 L135.368,7.159 L136.437,7.057 L137.507,6.964 L138.588,6.87 L139.669,6.775 L140.739,6.682 L141.809,6.599 L142.892,6.515 L143.974,6.43 L145.045,6.347 L146.116,6.274 L147.2,6.2 L148.284,6.126 L149.356,6.052 L150.429,5.988 L151.514,5.924 L152.599,5.859 L153.671,5.795 L154.743,5.742 L155.829,5.688 L156.914,5.634 L157.987,5.581 L159.06,5.538 L160.146,5.495 L161.232,5.451 L162.306,5.408 L163.38,5.375 L164.467,5.342 L165.553,5.309 L166.626,5.276 L167.699,5.254 L168.786,5.232 L169.873,5.211 L170.945,5.189 L172.018,5.179 L173.105,5.169 L174.192,5.159 L175.266,5.15 L176.339,5.151 L177.426,5.151 L178.512,5.152 L179.584,5.153 L180.656,5.165 L181.742,5.178 L182.829,5.191 L183.9,5.204 L184.971,5.229 L186.057,5.255 L187.142,5.281 L188.214,5.306 L189.285,5.343 L190.37,5.38 L191.455,5.418 L192.525,5.454 L193.594,5.504 L194.678,5.555 L195.762,5.604 L196.83,5.653 L197.897,5.715 L198.98,5.778 L200.063,5.841 L201.132,5.903 L202.199,5.978 L203.281,6.053 L204.362,6.129 L205.428,6.203 L206.492,6.292 L207.572,6.381 L208.652,6.471 L209.716,6.559 L210.778,6.661 L211.856,6.765 L212.935,6.868 L213.998,6.968 L215.06,7.081 L216.137,7.196 L217.214,7.311 L218.274,7.424 L219.332,7.552 L220.407,7.682 L221.481,7.812 L222.539,7.939 L223.595,8.082 L224.667,8.227 L225.74,8.372 L226.793,8.515 L228.294,8.739 L229.81,8.965 L231.325,9.191 L232.814,9.413 L234.302,9.669 L235.816,9.929 L237.33,10.19 L238.806,10.443 L240.273,10.746 L241.777,11.057 L243.281,11.367 L244.754,11.671 L246.216,12.015 L247.683,12.365 L249.137,12.753 L250.589,13.139 L252.028,13.563 L253.468,13.988 L254.894,14.45 L256.315,14.91 L257.719,15.414 L259.121,15.917 L260.504,16.469 L261.893,17.022 L263.595,17.752 L265.297,18.535 L266.984,19.374 L268.639,20.265 L270.24,21.215 L271.801,22.247 L272.52,22.761 L273.237,23.305 L273.932,23.868 L274.603,24.447 L275.244,25.04 L275.858,25.653 L276.443,26.281 L276.994,26.925 L277.513,27.59 L278.001,28.272 L278.449,28.968 L278.863,29.689 L279.143,30.243 L279.384,30.809 L279.593,31.4 L279.773,32.009 L279.919,32.632 L280.034,33.277 L280.122,33.938 L280.179,34.61 L280.208,35.301 L280.21,36.003 L280.186,36.712 L280.134,37.433 L280.06,38.161 L279.962,38.891 L279.841,39.627 L279.701,40.365 L279.541,41.1 L279.368,41.813 L278.959,43.295 L278.502,44.72 L278.005,46.096 L277.358,47.71 L276.64,49.296 L275.849,50.861 L274.994,52.396 L274.072,53.888 L273.081,55.336 L272.032,56.734 L270.924,58.066 L269.732,59.355 L269.146,59.943 L268.527,60.53 L267.892,61.098 L267.245,61.646 L266.587,62.171 L265.915,62.673 L264.889,63.398 L263.847,64.092 L262.785,64.763 L261.705,65.411 L260.61,66.035 L259.497,66.637 L258.369,67.221 L257.228,67.783 L256.071,68.327 L254.902,68.854 L253.723,69.364 L252.537,69.856 L251.325,70.333 L250.118,70.808 L248.898,71.255 L247.674,71.705 L246.441,72.132 L245.203,72.561 L243.96,72.973 L242.715,73.387 L241.468,73.786 L240.216,74.188 L238.968,74.581 L237.722,74.973 L236.112,75.467 L234.508,75.959 L232.898,76.431 L231.288,76.903 L229.67,77.353 L228.052,77.804 L226.428,78.234 L224.806,78.664 L223.178,79.07 L221.55,79.476 L219.916,79.857 L218.281,80.239 L216.642,80.598 L215.004,80.956 L213.361,81.287 L211.719,81.618 L210.072,81.922 L208.424,82.226 L206.772,82.504 L205.123,82.781 L203.469,83.029 L201.816,83.276 L200.159,83.493 L198.497,83.711 L197.387,83.837 L196.255,83.966 L195.123,84.095 L194.009,84.222 L192.893,84.33 L191.759,84.439 L190.625,84.549 L189.508,84.657 L188.388,84.748 L187.253,84.84 L186.117,84.933 L184.995,85.024 L183.872,85.101 L182.735,85.179 L181.598,85.257 L180.474,85.334 L179.349,85.397 L178.211,85.461 L177.073,85.524 L175.946,85.588 L174.819,85.638 L173.68,85.69 L172.541,85.741 L171.411,85.791 L170.28,85.831 L169.14,85.872 L168,85.913 L166.869,85.954 L165.738,85.985 L164.597,86.016 L163.457,86.048 L162.324,86.079 L161.19,86.103 L160.05,86.128 L158.909,86.152 L157.774,86.176 L156.638,86.195 L155.498,86.213 L154.357,86.232 L153.221,86.251 L152.085,86.265 L150.944,86.28 L149.804,86.294 L148.666,86.309 L147.529,86.321 L146.389,86.333 L145.25,86.345 L144.114,86.357 L142.971,86.364 L141.824,86.372 L140.677,86.379 L139.537,86.387 L138.398,86.386 L137.25,86.385 L136.103,86.384 L134.963,86.383 L133.823,86.374 L132.676,86.365 L131.529,86.356 L130.388,86.347 L129.247,86.331 L128.1,86.315 L126.953,86.299 L125.812,86.283 L124.672,86.259 L123.525,86.236 L122.378,86.212 L121.237,86.189 L120.097,86.158 L118.949,86.127 L117.802,86.096 L116.661,86.065 L115.52,86.028 L114.373,85.991 L113.226,85.954 L112.085,85.917 L110.944,85.873 L109.798,85.83 L108.651,85.786 L107.51,85.742 L106.369,85.692 L105.223,85.642 L104.076,85.592 L102.935,85.542 L101.794,85.487 L100.648,85.431 L99.501,85.375 L98.361,85.32 L97.22,85.259 L96.074,85.197 L94.928,85.136 L93.788,85.075 L92.647,85.008 L91.502,84.942 L90.357,84.875 L89.218,84.808 L87.403,84.694 L85.585,84.579 L83.766,84.464 L81.948,84.35 L80.13,84.235 L78.311,84.121 L76.493,84.007 L74.702,83.894 L72.915,83.734 L71.1,83.572 L69.285,83.41 L67.47,83.248 L65.656,83.086 L63.841,82.925 L62.026,82.763 L60.273,82.609 L58.537,82.347 L56.738,82.077 L54.939,81.807 L53.14,81.537 L51.34,81.267 L49.541,80.997 L47.742,80.728 L45.98,80.465 L44.829,80.239 L43.642,80.007 L42.458,79.751 L41.274,79.496 L40.095,79.216 L38.914,78.937 L37.738,78.635 L36.565,78.333 L35.398,78.006 L34.232,77.68 L33.075,77.327 L31.915,76.974 L30.764,76.596 L29.616,76.219 L28.479,75.815 L27.342,75.411 L26.217,74.977 L25.091,74.544 L23.977,74.083 L22.866,73.624 L21.77,73.134 L20.674,72.645 L19.594,72.124 L18.514,71.603 L17.158,70.907 L15.815,70.168 L14.491,69.384 L13.196,68.558 L11.943,67.689 L10.737,66.77 L9.585,65.808 L8.504,64.802 L7.476,63.721 L7.02,63.197 L6.569,62.642 L6.139,62.071 L5.731,61.49 L5.349,60.898 L4.99,60.289 L4.804,59.939 L4.636,59.572 L4.484,59.182 L4.346,58.777 L4.229,58.361 L4.13,57.928 L4.047,57.485 L3.985,57.037 L3.943,56.579 L3.918,56.115 L3.914,55.653 L3.93,55.186 L3.964,54.721 L4.018,54.263 L4.092,53.806 L4.183,53.356 L4.293,52.92 L4.423,52.492 L4.569,52.075 L4.731,51.678 L4.912,51.294 L5.107,50.927 L5.315,50.585 L5.542,50.259 L6.026,49.622 L6.533,49.001 L7.065,48.393 L7.616,47.798 L8.186,47.22 L8.778,46.656 L9.388,46.104 L10.014,45.57 L10.66,45.049 L11.32,44.541 L11.994,44.051 L12.667,43.585 L14.101,42.662 L15.56,41.815 L17.059,41.028 L18.585,40.297 L20.13,39.631 L21.693,39.025 L23.543,38.365 L25.397,37.706 L27.266,37.088 L29.136,36.471 L31.019,35.893 L32.906,35.314 L34.803,34.769 L36.7,34.225 L38.608,33.716 L40.516,33.207 L42.435,32.733 L44.356,32.257 L46.284,31.811 L48.212,31.365 L50.147,30.95 L52.084,30.534 L54.026,30.147 L55.969,29.759 L57.917,29.395 L59.865,29.032 L61.816,28.694 L63.769,28.356 L65.722,28.041 L67.679,27.725 L69.072,27.515 L70.475,27.303 L71.879,27.091 L73.272,26.88 L74.668,26.685 L76.073,26.488 L77.479,26.289 L78.875,26.092 L80.273,25.91 L81.681,25.727 L83.089,25.544 L84.488,25.361 L85.89,25.193 L87.299,25.023 L88.709,24.853 L90.11,24.684 L91.512,24.53 L92.924,24.374 L94.335,24.214 L95.737,24.052 L97.141,23.904 L98.553,23.756 L99.966,23.607 L101.371,23.459 L102.777,23.324 L104.191,23.187 L105.605,23.051 L107.01,22.916 L108.417,22.794 L109.833,22.671 L111.248,22.549 L112.655,22.431 L114.064,22.325 L115.48,22.219 L116.897,22.114 L118.306,22.008 L119.716,21.914 L121.134,21.82 L122.551,21.726 L123.96,21.632 L125.371,21.55 L126.788,21.468 L128.206,21.386 L129.616,21.306 L131.027,21.239 L132.445,21.172 L133.863,21.104 L135.275,21.037 L136.717,20.979 L138.166,20.922 L139.615,20.864 L141.057,20.806 L142.499,20.762 L143.949,20.717 L145.399,20.672 L146.841,20.628 L148.284,20.598 L149.735,20.567 L151.185,20.537 L152.629,20.506 L154.073,20.488 L155.523,20.469 L156.974,20.451 L158.417,20.432 L159.861,20.426 L161.312,20.421 L162.763,20.415 L164.207,20.41 L165.65,20.418 L167.101,20.427 L168.552,20.436 L169.996,20.445 L171.441,20.465 L172.891,20.486 L174.342,20.507 L175.786,20.527 L177.229,20.561 L178.68,20.595 L180.13,20.629 L181.573,20.662 L183.016,20.709 L184.466,20.757 L185.916,20.804 L187.36,20.851 L188.802,20.91 L190.252,20.969 L191.701,21.029 L193.143,21.088 L194.585,21.16 L196.033,21.233 L197.482,21.306 L198.923,21.378 L200.363,21.464 L201.811,21.551 L203.258,21.637 L204.699,21.723 L205.874,21.806 L207.057,21.889 L208.24,21.972 L209.414,22.054 L210.587,22.151 L211.77,22.249 L212.952,22.347 L214.125,22.444 L215.297,22.556 L216.479,22.668 L217.66,22.781 L218.834,22.893 L220.006,23.018 L221.186,23.143 L222.366,23.269 L223.538,23.393 L224.709,23.531 L225.888,23.67 L227.067,23.809 L228.238,23.947 L229.407,24.097 L230.585,24.249 L231.762,24.4 L232.933,24.551 L234.102,24.712 L235.278,24.875 L236.455,25.037 L237.623,25.198 L238.791,25.371 L239.965,25.545 L241.14,25.719 L242.308,25.892 L243.474,26.075 L244.646,26.26 L245.819,26.445 L246.986,26.628 L248.152,26.821 L249.323,27.015 L250.494,27.21 L251.659,27.402 L252.822,27.605 L253.992,27.809 L255.161,28.012 L256.324,28.215 L257.486,28.427 L258.653,28.639 L259.82,28.852 L260.973,29.062 L262.048,29.281 L263.114,29.498 L264.17,29.752 L265.231,30.006 L266.283,30.292 L267.341,30.579 L268.393,30.891 L269.447,31.202 L270.496,31.535 L271.548,31.869 L272.597,32.219 L273.648,32.57 L274.696,32.933 L275.752,33.298 L276.808,33.664 L277.863,34.029 L278.919,34.396 L279.974,34.762 L281.03,35.129 L282.101,35.501 L283.177,35.85 L284.238,36.194 L285.3,36.538 L286.361,36.883 C287.16,37.142 288.017,36.704 288.276,35.906 C288.535,35.107 288.098,34.25 287.299,33.991 L286.238,33.647 L285.176,33.303 L284.115,32.959 L283.068,32.619 L282.027,32.258 L280.971,31.892 L279.915,31.525 L278.859,31.158 L277.802,30.793 L276.746,30.427 L275.689,30.062 L274.625,29.693 L273.558,29.338 L272.488,28.981 L271.414,28.64 L270.337,28.298 L269.254,27.978 L268.169,27.658 L267.079,27.362 L265.983,27.065 L264.879,26.8 L263.771,26.534 L262.654,26.307 L261.547,26.081 L260.364,25.866 L259.197,25.654 L258.03,25.441 L256.856,25.227 L255.681,25.023 L254.512,24.819 L253.343,24.616 L252.167,24.411 L250.99,24.217 L249.818,24.023 L248.647,23.829 L247.47,23.634 L246.291,23.449 L245.118,23.264 L243.945,23.08 L242.765,22.894 L241.584,22.719 L240.409,22.546 L239.234,22.372 L238.052,22.197 L236.869,22.034 L235.693,21.872 L234.516,21.71 L233.333,21.547 L232.149,21.394 L230.971,21.243 L229.793,21.092 L228.608,20.94 L227.421,20.8 L226.242,20.661 L225.063,20.523 L223.875,20.383 L222.687,20.257 L221.506,20.132 L220.326,20.006 L219.138,19.88 L217.948,19.766 L216.767,19.653 L215.586,19.54 L214.395,19.425 L213.204,19.326 L212.021,19.227 L210.839,19.128 L209.647,19.028 L208.454,18.943 L207.271,18.859 L206.087,18.775 L204.895,18.691 L203.441,18.602 L201.994,18.514 L200.547,18.426 L199.092,18.338 L197.637,18.262 L196.188,18.187 L194.74,18.112 L193.285,18.037 L191.828,17.975 L190.379,17.914 L188.93,17.852 L187.474,17.79 L186.018,17.74 L184.568,17.691 L183.119,17.642 L181.662,17.592 L180.204,17.555 L178.754,17.519 L177.304,17.483 L175.846,17.447 L174.389,17.424 L172.938,17.401 L171.487,17.378 L170.03,17.355 L168.573,17.344 L167.122,17.333 L165.671,17.322 L164.214,17.311 L162.756,17.312 L161.305,17.313 L159.854,17.314 L158.396,17.315 L156.939,17.329 L155.488,17.343 L154.037,17.357 L152.58,17.372 L151.124,17.398 L149.673,17.424 L148.223,17.45 L146.766,17.476 L145.309,17.514 L143.859,17.552 L142.409,17.59 L140.952,17.628 L139.496,17.679 L138.047,17.729 L136.598,17.78 L135.142,17.831 L133.718,17.892 L132.3,17.953 L130.882,18.013 L129.457,18.074 L128.032,18.147 L126.614,18.217 L125.195,18.287 L123.77,18.358 L122.345,18.441 L120.928,18.524 L119.51,18.607 L118.085,18.69 L116.662,18.785 L115.244,18.879 L113.827,18.973 L112.402,19.068 L110.978,19.176 L109.562,19.28 L108.145,19.384 L106.72,19.488 L105.296,19.606 L103.881,19.723 L102.465,19.84 L101.042,19.957 L99.62,20.087 L98.205,20.217 L96.791,20.346 L95.367,20.477 L93.945,20.621 L92.533,20.767 L91.121,20.918 L89.699,21.07 L88.279,21.236 L86.869,21.402 L85.459,21.567 L84.04,21.733 L82.622,21.913 L81.214,22.092 L79.805,22.271 L78.387,22.451 L76.971,22.646 L75.565,22.84 L74.158,23.036 L72.742,23.233 L71.329,23.446 L69.925,23.657 L68.522,23.868 L67.108,24.081 L65.136,24.398 L63.161,24.716 L61.188,25.056 L59.214,25.397 L57.243,25.762 L55.271,26.127 L53.304,26.515 L51.335,26.904 L49.372,27.322 L47.407,27.74 L45.45,28.189 L43.493,28.638 L41.544,29.116 L39.592,29.595 L37.65,30.108 L35.707,30.622 L33.775,31.171 L31.843,31.721 L29.923,32.306 L28,32.892 L26.091,33.517 L24.181,34.144 L22.285,34.811 L20.386,35.479 L18.703,36.122 L17.022,36.838 L15.362,37.622 L13.724,38.473 L12.114,39.397 L10.567,40.382 L9.783,40.918 L9.028,41.462 L8.29,42.024 L7.564,42.604 L6.854,43.205 L6.162,43.824 L5.488,44.461 L4.831,45.12 L4.196,45.798 L3.582,46.494 L2.989,47.213 L2.422,47.951 L2.065,48.46 L1.737,48.994 L1.441,49.542 L1.173,50.104 L0.933,50.684 L0.723,51.271 L0.539,51.869 L0.382,52.479 L0.254,53.092 L0.151,53.711 L0.074,54.339 L0.024,54.965 L0,55.593 L0.003,56.225 L0.032,56.852 L0.088,57.477 L0.171,58.101 L0.282,58.716 L0.419,59.325 L0.587,59.929 L0.783,60.519 L1.007,61.099 L1.264,61.669 L1.552,62.22 L1.985,62.962 L2.448,63.687 L2.936,64.39 L3.446,65.073 L3.982,65.74 L4.557,66.406 L5.703,67.62 L6.944,68.787 L8.241,69.881 L9.583,70.915 L10.969,71.887 L12.382,72.797 L13.813,73.654 L15.258,74.458 L16.702,75.208 L17.832,75.759 L18.962,76.31 L20.109,76.829 L21.256,77.347 L22.417,77.833 L23.575,78.318 L24.745,78.774 L25.917,79.232 L27.101,79.659 L28.285,80.086 L29.479,80.484 L30.67,80.88 L31.87,81.251 L33.072,81.622 L34.281,81.966 L35.49,82.309 L36.705,82.626 L37.918,82.942 L39.136,83.235 L40.354,83.528 L41.577,83.797 L42.799,84.065 L44.024,84.309 L45.284,84.56 L47.12,84.842 L48.918,85.117 L50.717,85.391 L52.515,85.665 L54.314,85.939 L56.112,86.214 L57.911,86.488 L59.772,86.77 L61.649,86.942 L63.464,87.108 L65.279,87.273 L67.093,87.439 L68.908,87.603 L70.722,87.768 L72.537,87.932 L74.379,88.099 L76.225,88.217 L78.044,88.334 L79.862,88.451 L81.68,88.567 L83.499,88.684 L85.317,88.8 L87.135,88.916 L88.957,89.032 L90.109,89.1 L91.254,89.167 L92.4,89.235 L93.55,89.303 L94.701,89.365 L95.846,89.427 L96.992,89.489 L98.143,89.551 L99.295,89.608 L100.441,89.664 L101.587,89.721 L102.738,89.777 L103.89,89.828 L105.036,89.879 L106.183,89.93 L107.335,89.981 L108.487,90.026 L109.634,90.071 L110.781,90.115 L111.934,90.16 L113.087,90.198 L114.234,90.236 L115.381,90.274 L116.533,90.312 L117.686,90.344 L118.834,90.376 L119.981,90.408 L121.134,90.439 L122.288,90.464 L123.436,90.489 L124.583,90.513 L125.737,90.538 L126.891,90.555 L128.039,90.572 L129.186,90.588 L130.34,90.605 L131.494,90.615 L132.641,90.625 L133.789,90.635 L134.943,90.645 L136.098,90.647 L137.246,90.648 L138.393,90.65 L139.548,90.652 L140.703,90.645 L141.85,90.638 L142.998,90.631 L144.149,90.625 L145.293,90.613 L146.433,90.602 L147.572,90.591 L148.714,90.58 L149.857,90.566 L150.997,90.552 L152.137,90.538 L153.282,90.525 L154.426,90.507 L155.567,90.489 L156.707,90.471 L157.853,90.452 L158.998,90.429 L160.139,90.406 L161.279,90.382 L162.427,90.359 L163.574,90.328 L164.714,90.297 L165.855,90.266 L167.004,90.235 L168.152,90.195 L169.292,90.155 L170.432,90.115 L171.581,90.074 L172.73,90.024 L173.869,89.974 L175.008,89.925 L176.159,89.875 L177.309,89.813 L178.447,89.752 L179.586,89.69 L180.737,89.628 L181.888,89.551 L183.025,89.475 L184.162,89.399 L185.313,89.323 L186.462,89.231 L187.598,89.141 L188.734,89.051 L189.886,88.96 L191.037,88.851 L192.171,88.743 L193.305,88.636 L194.458,88.527 L195.608,88.398 L196.74,88.272 L197.873,88.145 L199.027,88.016 L200.718,87.799 L202.415,87.58 L204.109,87.33 L205.801,87.08 L207.49,86.8 L209.177,86.52 L210.859,86.214 L212.542,85.907 L214.221,85.572 L215.899,85.237 L217.572,84.875 L219.243,84.514 L220.909,84.129 L222.575,83.743 L224.236,83.333 L225.896,82.922 L227.55,82.488 L229.202,82.054 L230.848,81.6 L232.495,81.145 L234.134,80.668 L235.773,80.192 L237.405,79.695 L239.029,79.2 L240.292,78.805 L241.553,78.412 L242.817,78.009 L244.086,77.605 L245.354,77.187 L246.625,76.768 L247.891,76.333 L249.163,75.895 L250.427,75.434 L251.696,74.972 L252.952,74.481 L254.202,73.991 L255.458,73.474 L256.701,72.94 L257.936,72.386 L259.162,71.812 L260.38,71.215 L261.586,70.595 L262.78,69.952 L263.964,69.281 L265.131,68.583 L266.285,67.858 L267.425,67.102 L268.542,66.317 L269.328,65.732 L270.096,65.123 L270.843,64.492 L271.573,63.842 L272.286,63.168 L272.997,62.456 L274.31,61.042 L275.569,59.534 L276.748,57.968 L277.856,56.353 L278.888,54.686 L279.84,52.984 L280.718,51.251 L281.518,49.488 L282.232,47.717 L282.788,46.183 L283.301,44.591 L283.749,42.975 L283.958,42.118 L284.142,41.272 L284.305,40.42 L284.446,39.561 L284.563,38.694 L284.652,37.825 L284.715,36.954 L284.746,36.076 L284.743,35.201 L284.707,34.326 L284.633,33.448 L284.518,32.579 L284.363,31.714 L284.161,30.85 L283.911,30.001 L283.614,29.162 L283.261,28.332 L282.855,27.526 L282.33,26.61 L281.759,25.722 L281.152,24.872 L280.511,24.051 L279.833,23.257 L279.127,22.497 L278.394,21.765 L277.631,21.058 L276.848,20.382 L276.044,19.73 L275.218,19.101 L274.354,18.484 L272.654,17.361 L270.879,16.307 L269.078,15.335 L267.263,14.431 L265.446,13.594 L263.643,12.817 L262.193,12.237 L260.738,11.655 L259.264,11.123 L257.792,10.592 L256.304,10.108 L254.821,9.625 L253.324,9.181 L251.827,8.738 L250.318,8.333 L248.811,7.93 L247.294,7.558 L245.773,7.182 L244.241,6.848 L242.74,6.52 L241.239,6.193 L239.701,5.858 L238.151,5.573 L236.64,5.296 L235.129,5.018 L233.592,4.736 L232.053,4.489 L230.54,4.246 L229.027,4.004 L227.501,3.76 L226.41,3.601 L225.339,3.444 L224.268,3.288 L223.18,3.13 L222.09,2.986 L221.017,2.845 L219.943,2.704 L218.853,2.561 L217.76,2.433 L216.685,2.307 L215.609,2.181 L214.518,2.053 L213.425,1.939 L212.348,1.826 L211.27,1.716 L210.176,1.604 L209.08,1.506 L208,1.41 L206.92,1.313 L205.824,1.216 L204.727,1.132 L203.646,1.05 L202.564,0.968 L201.469,0.884 L200.371,0.814 L199.289,0.744 L198.206,0.674 L197.108,0.604 L196.009,0.547 L194.925,0.491 L193.841,0.435 L192.742,0.379 L191.641,0.337 L190.556,0.295 L189.471,0.253 L188.373,0.211 L187.273,0.18 L186.188,0.15 L185.102,0.12 L184.002,0.09 L182.9,0.072 L181.814,0.054 L180.728,0.037 L179.627,0.019 L178.526,0.014 L177.439,0.009 L176.353,0.004 L175.253,0 L174.153,0.006 L173.066,0.013 L171.979,0.019 L170.879,0.026 L169.778,0.044 L168.691,0.062 L167.604,0.081 L166.503,0.099 L165.403,0.129 L164.316,0.159 L163.23,0.189 L162.131,0.219 L161.032,0.26 L159.946,0.3 L158.86,0.34 L157.76,0.381 L156.661,0.433 L155.576,0.485 L154.49,0.537 L153.392,0.589 L152.294,0.652 L151.209,0.715 L150.124,0.777 L149.028,0.84 L147.933,0.913 L146.849,0.985 L145.765,1.057 L144.668,1.129 L143.573,1.212 L142.491,1.294 L141.408,1.377 L140.313,1.46 L139.22,1.552 L138.139,1.644 L137.057,1.736 L135.965,1.829 L134.875,1.931 L133.795,2.032 L132.715,2.132 L131.624,2.234 L130.534,2.345 L129.456,2.455 L128.378,2.565 L127.289,2.676 L126.202,2.797 L125.126,2.916 L124.05,3.035 L122.96,3.155 L121.036,3.384 L119.106,3.613 L117.178,3.86 L115.249,4.108 L113.323,4.374 L111.397,4.64 L109.474,4.924 L107.548,5.208 L105.626,5.512 L103.703,5.818 L101.784,6.144 L99.866,6.47 L97.951,6.816 L96.035,7.162 L94.123,7.529 L92.21,7.897 L90.302,8.287 L88.395,8.677 L86.493,9.088 L84.589,9.499 L82.691,9.934 L80.792,10.369 L78.899,10.829 L77.012,11.287 L75.981,11.55 L74.951,11.814 L73.923,12.095 L72.892,12.376 L71.864,12.676 L70.836,12.977 L69.813,13.296 L68.786,13.616 L67.765,13.959 L66.742,14.302 L65.727,14.67 L64.713,15.038 L63.709,15.429 L62.699,15.822 L61.702,16.243 L60.702,16.665 L59.716,17.117 L58.732,17.568 L57.762,18.048 L56.787,18.531 L55.829,19.047 L54.869,19.565 L53.929,20.117 L52.987,20.672 L51.886,21.375 L50.788,22.143 L49.715,22.969 L48.667,23.85 L47.653,24.795 L46.718,25.77 L46.232,26.32 L45.784,26.861 L45.355,27.415 L44.944,27.984 L44.55,28.573 L44.181,29.175 L43.832,29.791 L43.507,30.429 L43.21,31.078 L42.94,31.743 L42.699,32.428 L42.49,33.134 L42.262,34.058 L42.079,34.999 L41.943,35.931 L41.845,36.859 L41.784,37.788 L41.758,38.744 L41.787,40.519 L41.911,42.316 L42.101,44.079 L42.329,45.814 L42.576,47.52 L42.817,49.193 L43.034,50.831 L43.206,52.427 L43.315,54.048 C43.415,55.525 44.693,56.641 46.17,56.541 C47.646,56.441 48.762,55.163 48.662,53.686 Z" id="Fill-280"></path>
        </g>
    </g>
</svg>
