<?xml version="1.0" encoding="UTF-8"?>
<svg width="272px" height="89px" viewBox="0 0 272 89" version="1.1" xmlns="http://www.w3.org/2000/svg" xmlns:xlink="http://www.w3.org/1999/xlink">
    <title>178</title>
    <g id="Page-1" stroke="none" stroke-width="1" fill="none" fill-rule="evenodd">
        <g id="178" transform="translate(0.702611, 0.314000)" fill="currentColor">
            <path d="M238.611,15.192 L237.703,14.685 L236.826,14.196 L235.959,13.681 L235.081,13.16 L234.21,12.623 L233.328,12.079 L232.45,11.528 L231.563,10.971 L230.676,10.414 L229.778,9.85 L228.877,9.296 L227.968,8.736 L227.052,8.192 L226.125,7.642 L225.188,7.117 L224.238,6.586 L223.274,6.09 L222.304,5.593 L221.318,5.135 L220.316,4.671 L219.292,4.259 L218.255,3.844 L217.193,3.492 L216.153,3.149 L214.965,2.812 L213.793,2.511 L212.62,2.239 L211.445,1.992 L210.266,1.769 L209.077,1.569 L207.908,1.402 L206.729,1.234 L205.544,1.103 L204.365,0.973 L203.181,0.874 L202.006,0.776 L200.827,0.701 L199.653,0.626 L198.475,0.571 L197.305,0.516 L196.134,0.474 L194.97,0.433 L193.806,0.399 L192.648,0.365 L191.492,0.333 L190.344,0.302 L189.199,0.267 L188.048,0.231 L186.39,0.182 L184.721,0.132 L183.052,0.097 L181.383,0.061 L179.713,0.04 L178.045,0.018 L176.376,0.009 L174.706,0 L173.037,0.004 L171.367,0.009 L169.698,0.027 L168.029,0.045 L166.361,0.074 L164.692,0.104 L163.023,0.147 L161.355,0.189 L159.687,0.245 L158.02,0.3 L156.353,0.367 L154.686,0.435 L153.02,0.516 L151.354,0.596 L149.688,0.689 L148.026,0.781 L146.996,0.845 L145.976,0.908 L144.955,0.971 L143.926,1.035 L142.896,1.105 L141.875,1.175 L140.854,1.245 L139.824,1.315 L138.793,1.393 L137.771,1.469 L136.75,1.546 L135.719,1.624 L134.689,1.708 L133.667,1.792 L132.645,1.876 L131.613,1.96 L130.581,2.053 L129.56,2.144 L128.538,2.236 L127.505,2.328 L126.473,2.429 L125.452,2.529 L124.43,2.629 L123.399,2.73 L122.368,2.839 L121.347,2.947 L120.326,3.055 L119.293,3.164 L118.261,3.282 L117.241,3.399 L116.221,3.516 L115.189,3.634 L114.158,3.762 L113.139,3.889 L112.12,4.015 L111.089,4.143 L110.06,4.28 L109.042,4.416 L108.024,4.551 L106.993,4.689 L105.964,4.836 L104.947,4.982 L103.931,5.128 L102.902,5.277 L101.874,5.436 L100.859,5.593 L99.845,5.751 L98.818,5.91 L97.793,6.079 L96.78,6.246 L95.768,6.414 L94.741,6.584 L93.717,6.765 L92.707,6.944 L91.697,7.123 L90.672,7.304 L89.649,7.498 L88.642,7.689 L87.635,7.88 L86.613,8.074 L85.594,8.279 L84.59,8.481 L83.585,8.684 L82.565,8.89 L81.547,9.108 L80.546,9.324 L79.544,9.539 L78.527,9.758 L77.512,9.99 L76.514,10.218 L75.516,10.447 L74.503,10.679 L73.493,10.923 L72.498,11.164 L71.504,11.405 L70.492,11.65 L69.484,11.911 L68.494,12.166 L67.503,12.422 L66.495,12.683 L65.491,12.957 L64.505,13.228 L63.519,13.498 L62.516,13.772 L61.518,14.061 L60.536,14.344 L59.554,14.628 L58.553,14.917 L57.557,15.221 L56.58,15.52 L55.602,15.819 L54.606,16.124 L53.616,16.446 L52.644,16.762 L51.673,17.079 L50.682,17.401 L49.219,17.9 L47.767,18.394 L46.316,18.888 L44.839,19.391 L43.369,19.927 L41.923,20.454 L40.476,20.981 L38.99,21.523 L37.525,22.118 L36.099,22.697 L34.674,23.276 L33.213,23.869 L31.775,24.507 L30.341,25.143 L28.928,25.817 L27.512,26.494 L26.119,27.212 L24.735,27.927 L23.351,28.683 L21.984,29.457 L20.631,30.254 L19.292,31.077 L17.966,31.93 L16.664,32.809 L15.862,33.375 L15.073,33.963 L14.297,34.571 L13.532,35.199 L12.778,35.85 L12.04,36.519 L11.316,37.207 L10.607,37.916 L9.916,38.642 L9.242,39.385 L8.586,40.148 L7.951,40.927 L7.336,41.721 L6.741,42.535 L6.171,43.362 L5.624,44.204 L5.101,45.064 L4.607,45.937 L4.138,46.823 L3.697,47.726 L3.287,48.64 L2.907,49.565 L2.558,50.507 L2.245,51.457 L2.036,52.187 L1.861,52.935 L1.722,53.69 L1.614,54.452 L1.538,55.227 L1.496,56.004 L1.484,56.784 L1.504,57.571 L1.556,58.354 L1.638,59.136 L1.752,59.919 L1.899,60.693 L2.075,61.461 L2.286,62.224 L2.528,62.973 L2.802,63.711 L3.111,64.439 L3.454,65.146 L3.83,65.835 L4.244,66.508 L4.693,67.153 L5.177,67.773 L5.704,68.368 L6.267,68.928 L7.136,69.706 L8.039,70.445 L8.964,71.139 L9.911,71.796 L10.882,72.417 L11.87,72.999 L12.874,73.549 L13.895,74.068 L14.928,74.556 L15.971,75.017 L17.028,75.453 L18.099,75.867 L19.161,76.245 L20.23,76.625 L21.315,76.97 L22.392,77.312 L23.477,77.628 L24.552,77.94 L25.631,78.235 L26.703,78.527 L27.772,78.805 L28.833,79.081 L29.883,79.351 L30.941,79.622 L32.677,80.053 L34.427,80.487 L36.185,80.888 L37.942,81.289 L39.707,81.659 L41.469,82.028 L43.236,82.371 L45.005,82.713 L46.779,83.028 L48.552,83.343 L50.33,83.632 L52.105,83.92 L53.884,84.186 L55.664,84.452 L57.447,84.695 L59.23,84.938 L61.014,85.159 L62.797,85.381 L64.581,85.584 L66.366,85.787 L68.151,85.973 L69.936,86.158 L71.721,86.326 L73.504,86.495 L74.7,86.596 L75.884,86.697 L77.067,86.797 L78.265,86.899 L79.463,86.985 L80.648,87.071 L81.832,87.157 L83.03,87.243 L84.229,87.316 L85.414,87.388 L86.6,87.459 L87.797,87.531 L88.995,87.591 L90.182,87.651 L91.368,87.71 L92.567,87.77 L93.766,87.816 L94.954,87.862 L96.141,87.908 L97.34,87.955 L98.54,87.988 L99.728,88.022 L100.916,88.055 L102.114,88.089 L103.312,88.111 L104.501,88.134 L105.69,88.156 L106.889,88.179 L108.089,88.189 L109.278,88.2 L110.467,88.21 L111.666,88.221 L112.866,88.221 L114.055,88.22 L115.245,88.22 L116.443,88.219 L117.641,88.209 L118.831,88.199 L120.021,88.188 L121.22,88.178 L122.419,88.157 L123.609,88.137 L124.799,88.116 L125.998,88.096 L127.197,88.065 L128.387,88.035 L129.577,88.005 L130.774,87.976 L131.972,87.937 L133.162,87.899 L134.352,87.862 L135.55,87.823 L136.748,87.776 L137.938,87.729 L139.128,87.683 L140.325,87.636 L141.522,87.58 L142.712,87.525 L143.902,87.47 L145.098,87.415 L146.294,87.352 L147.483,87.29 L148.673,87.228 L149.869,87.165 L151.064,87.095 L152.253,87.026 L153.443,86.956 L154.638,86.886 L155.832,86.81 L157.021,86.733 L158.21,86.657 L159.403,86.58 L160.596,86.498 L161.784,86.415 L162.972,86.333 L164.166,86.251 L165.358,86.162 L166.546,86.074 L167.733,85.986 L168.925,85.897 L170.116,85.804 L171.303,85.71 L172.489,85.617 L173.68,85.523 L174.87,85.425 L176.055,85.327 L177.241,85.229 L178.431,85.13 L179.619,85.028 L180.804,84.925 L181.989,84.823 L183.177,84.72 L184.364,84.613 L185.548,84.507 L186.731,84.401 L187.913,84.294 L188.984,84.2 L190.057,84.105 L191.13,84.011 L192.198,83.917 L193.268,83.828 L194.342,83.738 L195.417,83.649 L196.49,83.559 L197.564,83.471 L198.64,83.383 L199.715,83.295 L200.792,83.207 L201.869,83.117 L202.944,83.028 L204.02,82.938 L205.1,82.848 L206.18,82.753 L207.255,82.659 L208.33,82.564 L209.413,82.469 L210.496,82.365 L211.569,82.261 L212.643,82.158 L213.727,82.054 L214.81,81.938 L215.882,81.824 L216.954,81.709 L218.041,81.593 L219.125,81.462 L220.195,81.333 L221.264,81.203 L222.352,81.071 L223.437,80.921 L224.503,80.772 L225.569,80.624 L226.655,80.473 L227.738,80.302 L228.8,80.134 L229.863,79.966 L230.95,79.793 L232.033,79.595 L233.091,79.401 L234.15,79.207 L235.236,79.008 L236.317,78.78 L237.37,78.557 L238.423,78.335 L239.502,78.106 L240.554,77.855 L241.609,77.603 L242.662,77.32 L243.718,77.035 L244.769,76.717 L245.818,76.399 L246.86,76.049 L247.906,75.697 L248.94,75.308 L249.977,74.917 L250.997,74.488 L252.016,74.059 L253.017,73.594 L254.024,73.125 L255.007,72.615 L255.992,72.103 L256.95,71.547 L257.896,70.998 L258.844,70.405 L259.768,69.792 L260.674,69.155 L261.563,68.496 L262.437,67.81 L263.284,67.103 L263.85,66.602 L264.407,66.076 L264.952,65.529 L265.487,64.96 L266.01,64.366 L266.517,63.753 L267.008,63.122 L267.482,62.469 L267.934,61.8 L268.365,61.116 L268.773,60.412 L269.151,59.696 L269.503,58.966 L269.825,58.219 L270.111,57.462 L270.363,56.694 L270.577,55.911 L270.747,55.121 L270.874,54.323 L270.954,53.512 L270.98,52.701 L270.954,51.885 L270.868,51.061 L270.721,50.249 L270.475,49.246 L270.177,48.259 L269.831,47.297 L269.444,46.354 L269.012,45.428 L268.542,44.526 L268.037,43.644 L267.496,42.779 L266.924,41.938 L266.325,41.115 L265.697,40.31 L265.045,39.527 L264.372,38.762 L263.676,38.015 L262.964,37.289 L262.237,36.581 L261.494,35.891 L260.726,35.209 L259.207,33.933 L257.647,32.718 L256.087,31.584 L254.857,30.733 L253.613,29.912 L252.357,29.118 L251.087,28.348 L249.803,27.602 L248.507,26.881 L247.2,26.18 L245.882,25.5 L244.555,24.841 L243.219,24.2 L241.874,23.577 L240.518,22.971 L239.163,22.391 L237.803,21.809 L236.429,21.256 L235.059,20.704 L233.679,20.177 L232.303,19.651 L230.922,19.144 L229.542,18.636 L228.158,18.145 L226.778,17.655 L225.397,17.179 L224.015,16.703 L222.399,16.162 L220.778,15.619 L219.148,15.099 L217.518,14.579 L215.88,14.082 L214.242,13.585 L212.598,13.111 L210.951,12.636 L209.298,12.186 L207.643,11.736 L205.982,11.313 L204.322,10.89 L202.656,10.492 L200.987,10.093 L199.313,9.723 L197.639,9.353 L195.959,9.011 L194.28,8.67 L192.596,8.357 L190.91,8.044 L189.22,7.762 L187.529,7.48 L185.833,7.231 L184.14,6.982 L182.277,6.739 L180.413,6.499 L178.544,6.288 L176.675,6.078 L174.802,5.897 L172.93,5.716 L171.056,5.563 L169.18,5.41 L167.301,5.286 L165.423,5.163 L163.542,5.077 L161.663,4.994 L159.782,4.938 L157.9,4.883 L156.018,4.858 L154.136,4.832 L152.255,4.838 L150.375,4.843 L148.495,4.876 L146.615,4.905 L144.736,4.963 L142.857,5.022 L140.981,5.111 L139.103,5.2 L137.245,5.322 L135.384,5.444 L133.525,5.608 L131.669,5.772 L129.816,5.972 L127.966,6.17 L126.119,6.399 L124.272,6.628 L122.428,6.887 L120.585,7.146 L118.746,7.432 L116.909,7.717 L115.075,8.022 L113.241,8.327 L111.41,8.651 L109.581,8.974 L107.754,9.312 L105.93,9.65 L104.107,9.998 L102.286,10.346 L100.467,10.702 L98.649,11.058 L96.834,11.418 L95.017,11.777 L93.331,12.12 L91.649,12.462 L89.968,12.804 L88.276,13.149 L86.587,13.517 L84.91,13.883 L83.232,14.249 L81.541,14.618 L79.856,15.018 L78.186,15.415 L76.515,15.811 L74.834,16.21 L73.158,16.634 L71.485,17.057 L69.818,17.5 L68.149,17.943 L66.487,18.407 L64.825,18.872 L63.17,19.357 L61.512,19.842 L59.863,20.352 L58.212,20.862 L56.571,21.398 L54.933,21.932 L53.394,22.453 L51.864,22.971 L50.334,23.489 L48.793,24.01 L47.256,24.556 L45.729,25.097 L44.202,25.638 L42.655,26.187 L41.125,26.778 L39.614,27.361 L38.104,27.945 L36.575,28.536 L35.064,29.164 L33.555,29.792 L32.062,30.454 L30.567,31.116 L29.092,31.816 L27.621,32.514 L26.155,33.246 L24.703,33.998 L23.263,34.773 L21.835,35.571 L20.419,36.395 L19.017,37.247 L18.112,37.828 L17.204,38.412 L16.312,39.032 L15.421,39.653 L14.55,40.309 L13.681,40.965 L12.833,41.652 L11.983,42.341 L11.159,43.064 L10.335,43.787 L9.541,44.544 L8.749,45.299 L7.987,46.083 L7.222,46.87 L6.493,47.689 L5.764,48.508 L5.074,49.358 L4.39,50.199 L3.725,51.075 L3.084,51.962 L2.468,52.861 L1.873,53.774 L1.301,54.703 L0.751,55.652 L0.489,56.176 L0.282,56.729 L0.137,57.281 L0.044,57.832 L0,58.386 L0,58.927 L0.037,59.46 L0.106,59.988 L0.201,60.504 L0.317,61.012 L0.451,61.514 L0.603,62.02 L0.918,62.967 L1.255,63.905 L1.579,64.81 L1.871,65.679 L2.104,66.499 L2.274,67.336 C2.441,68.158 3.244,68.689 4.067,68.521 C4.889,68.354 5.42,67.551 5.252,66.728 L5.057,65.777 L4.774,64.78 L4.451,63.815 L4.116,62.878 L3.79,61.973 L3.496,61.088 L3.374,60.683 L3.266,60.28 L3.177,59.889 L3.107,59.514 L3.061,59.16 L3.038,58.82 L3.036,58.499 L3.059,58.204 L3.107,57.919 L3.177,57.648 L3.273,57.393 L3.406,57.128 L3.909,56.261 L4.439,55.4 L4.993,54.549 L5.569,53.709 L6.165,52.883 L6.779,52.075 L7.431,51.271 L8.077,50.475 L8.761,49.708 L9.445,48.938 L10.164,48.199 L10.885,47.456 L11.636,46.741 L12.384,46.027 L13.162,45.344 L13.94,44.66 L14.744,44.009 L15.55,43.356 L16.377,42.732 L17.201,42.11 L18.046,41.522 L18.891,40.933 L19.752,40.38 L20.617,39.824 L21.97,39.003 L23.338,38.206 L24.722,37.432 L26.12,36.679 L27.529,35.948 L28.948,35.24 L30.392,34.555 L31.831,33.871 L33.29,33.225 L34.751,32.577 L36.228,31.962 L37.703,31.348 L39.196,30.771 L40.706,30.187 L42.217,29.604 L43.707,29.027 L45.214,28.493 L46.741,27.951 L48.268,27.41 L49.784,26.872 L51.304,26.36 L52.835,25.843 L54.366,25.327 L55.888,24.813 L57.512,24.285 L59.131,23.758 L60.759,23.256 L62.387,22.755 L64.023,22.278 L65.661,21.8 L67.305,21.343 L68.949,20.887 L70.599,20.452 L72.25,20.016 L73.906,19.6 L75.56,19.185 L77.221,18.794 L78.892,18.4 L80.563,18.006 L82.221,17.615 L83.885,17.255 L85.564,16.892 L87.242,16.528 L88.909,16.167 L90.581,15.83 L92.263,15.49 L93.945,15.151 L95.623,14.813 L97.432,14.458 L99.245,14.105 L101.059,13.755 L102.873,13.406 L104.688,13.065 L106.503,12.725 L108.32,12.395 L110.135,12.065 L111.952,11.75 L113.768,11.436 L115.587,11.141 L117.405,10.848 L119.226,10.575 L121.044,10.302 L122.865,10.055 L124.684,9.809 L126.506,9.592 L128.328,9.376 L130.152,9.19 L131.974,9.006 L133.799,8.861 L135.622,8.715 L137.447,8.611 L139.276,8.506 L141.125,8.435 L142.974,8.363 L144.826,8.321 L146.678,8.28 L148.531,8.27 L150.385,8.264 L152.24,8.285 L154.093,8.306 L155.947,8.358 L157.8,8.409 L159.652,8.49 L161.505,8.571 L163.357,8.679 L165.208,8.785 L167.057,8.913 L168.906,9.04 L170.752,9.198 L172.6,9.355 L174.445,9.539 L176.288,9.723 L178.127,9.937 L179.965,10.15 L181.8,10.392 L183.634,10.632 L185.297,10.878 L186.956,11.122 L188.612,11.399 L190.268,11.676 L191.92,11.985 L193.574,12.293 L195.223,12.629 L196.871,12.965 L198.513,13.331 L200.156,13.697 L201.792,14.091 L203.43,14.486 L205.063,14.905 L206.695,15.324 L208.319,15.77 L209.944,16.215 L211.562,16.686 L213.182,17.156 L214.794,17.649 L216.405,18.142 L218.008,18.658 L219.612,19.173 L221.207,19.711 L222.806,20.251 L224.169,20.724 L225.534,21.198 L226.898,21.686 L228.259,22.172 L229.617,22.675 L230.973,23.179 L232.322,23.703 L233.668,24.225 L235.004,24.771 L236.337,25.315 L237.657,25.888 L238.981,26.462 L240.283,27.052 L241.578,27.66 L242.864,28.284 L244.138,28.925 L245.399,29.583 L246.647,30.262 L247.883,30.958 L249.102,31.674 L250.307,32.413 L251.496,33.173 L252.668,33.955 L253.817,34.758 L255.286,35.838 L256.733,36.976 L258.162,38.189 L258.839,38.798 L259.513,39.431 L260.172,40.079 L260.813,40.739 L261.432,41.41 L262.029,42.096 L262.603,42.793 L263.149,43.498 L263.667,44.218 L264.157,44.947 L264.612,45.683 L265.035,46.432 L265.426,47.189 L265.777,47.951 L266.09,48.727 L266.367,49.509 L266.601,50.296 L266.792,51.096 L266.885,51.621 L266.937,52.148 L266.951,52.691 L266.93,53.243 L266.873,53.799 L266.779,54.369 L266.652,54.945 L266.492,55.522 L266.297,56.107 L266.072,56.693 L265.818,57.275 L265.533,57.858 L265.224,58.437 L264.89,59.006 L264.531,59.57 L264.152,60.125 L263.756,60.665 L263.341,61.194 L262.911,61.708 L262.471,62.203 L262.018,62.681 L261.558,63.139 L261.094,63.573 L260.628,63.981 L259.86,64.616 L259.078,65.226 L258.274,65.817 L257.454,66.388 L256.618,66.938 L255.773,67.463 L254.885,67.974 L254.009,68.478 L253.108,68.941 L252.203,69.407 L251.276,69.833 L250.344,70.263 L249.394,70.658 L248.446,71.054 L247.481,71.412 L246.515,71.772 L245.537,72.097 L244.554,72.425 L243.564,72.723 L242.574,73.02 L241.58,73.285 L240.584,73.551 L239.588,73.786 L238.588,74.022 L237.561,74.236 L236.508,74.457 L235.454,74.677 L234.429,74.891 L233.398,75.077 L232.339,75.269 L231.281,75.46 L230.247,75.647 L229.208,75.809 L228.145,75.976 L227.082,76.143 L226.039,76.307 L224.992,76.451 L223.926,76.597 L222.859,76.744 L221.811,76.889 L220.76,77.014 L219.69,77.143 L218.621,77.271 L217.566,77.397 L216.508,77.508 L215.436,77.621 L214.364,77.734 L213.303,77.846 L212.24,77.948 L211.166,78.05 L210.092,78.153 L209.027,78.255 L207.96,78.348 L206.885,78.442 L205.81,78.536 L204.74,78.629 L203.669,78.718 L202.594,78.807 L201.518,78.896 L200.444,78.985 L199.371,79.072 L198.295,79.159 L197.22,79.247 L196.143,79.334 L195.067,79.423 L193.992,79.512 L192.917,79.601 L191.838,79.69 L190.759,79.784 L189.686,79.878 L188.613,79.972 L187.538,80.066 L186.352,80.171 L185.169,80.277 L183.985,80.382 L182.805,80.487 L181.624,80.589 L180.439,80.69 L179.255,80.792 L178.074,80.893 L176.892,80.99 L175.707,81.087 L174.521,81.184 L173.339,81.281 L172.157,81.373 L170.97,81.466 L169.783,81.558 L168.602,81.651 L167.419,81.738 L166.232,81.825 L165.045,81.912 L163.862,81.999 L162.68,82.08 L161.492,82.161 L160.304,82.243 L159.121,82.324 L157.937,82.399 L156.749,82.474 L155.56,82.55 L154.378,82.625 L153.195,82.693 L152.006,82.762 L150.816,82.831 L149.634,82.899 L148.451,82.96 L147.262,83.021 L146.072,83.083 L144.889,83.144 L143.705,83.198 L142.516,83.252 L141.326,83.306 L140.144,83.36 L138.961,83.405 L137.771,83.451 L136.581,83.497 L135.399,83.543 L134.217,83.58 L133.027,83.617 L131.837,83.654 L130.654,83.691 L129.472,83.719 L128.282,83.748 L127.092,83.776 L125.91,83.803 L124.729,83.821 L123.539,83.839 L122.349,83.858 L121.169,83.876 L119.988,83.883 L118.798,83.891 L117.609,83.899 L116.428,83.907 L115.247,83.905 L114.058,83.903 L112.868,83.901 L111.689,83.899 L110.51,83.886 L109.321,83.873 L108.132,83.86 L106.954,83.847 L105.776,83.822 L104.587,83.797 L103.399,83.772 L102.22,83.747 L101.043,83.711 L99.855,83.675 L98.667,83.639 L97.49,83.604 L96.315,83.555 L95.127,83.507 L93.94,83.458 L92.765,83.41 L91.591,83.349 L90.404,83.287 L89.218,83.225 L88.043,83.164 L86.869,83.09 L85.683,83.016 L84.498,82.941 L83.325,82.868 L82.154,82.781 L80.969,82.692 L79.785,82.604 L78.614,82.516 L77.444,82.415 L76.261,82.312 L75.077,82.209 L73.907,82.107 L72.141,81.936 L70.376,81.765 L68.612,81.578 L66.849,81.391 L65.087,81.187 L63.325,80.982 L61.565,80.759 L59.807,80.537 L58.052,80.294 L56.298,80.051 L54.547,79.785 L52.796,79.52 L51.049,79.232 L49.304,78.945 L47.564,78.632 L45.825,78.319 L44.093,77.979 L42.359,77.639 L40.632,77.273 L38.907,76.907 L37.189,76.511 L35.473,76.116 L33.764,75.688 L32.042,75.257 L31.007,74.989 L29.965,74.719 L28.912,74.443 L27.868,74.169 L26.821,73.882 L25.779,73.596 L24.739,73.293 L23.709,72.992 L22.688,72.665 L21.675,72.342 L20.678,71.986 L19.675,71.628 L18.709,71.253 L17.752,70.857 L16.812,70.44 L15.889,70.003 L14.991,69.545 L14.111,69.061 L13.254,68.555 L12.425,68.025 L11.618,67.464 L10.837,66.877 L10.086,66.262 L9.359,65.61 L9.003,65.256 L8.668,64.876 L8.345,64.462 L8.039,64.022 L7.756,63.561 L7.49,63.071 L7.243,62.561 L7.019,62.035 L6.816,61.486 L6.634,60.923 L6.477,60.351 L6.343,59.764 L6.23,59.169 L6.143,58.572 L6.081,57.967 L6.04,57.362 L6.026,56.763 L6.036,56.164 L6.068,55.572 L6.125,54.993 L6.206,54.422 L6.309,53.865 L6.435,53.329 L6.584,52.809 L6.848,52.009 L7.141,51.22 L7.464,50.434 L7.814,49.655 L8.19,48.886 L8.595,48.123 L9.023,47.369 L9.475,46.626 L9.952,45.892 L10.451,45.168 L10.971,44.458 L11.513,43.759 L12.074,43.072 L12.653,42.401 L13.251,41.743 L13.866,41.099 L14.494,40.473 L15.139,39.862 L15.797,39.266 L16.466,38.691 L17.149,38.133 L17.841,37.592 L18.54,37.073 L19.246,36.575 L20.478,35.747 L21.722,34.949 L22.986,34.175 L24.266,33.423 L25.562,32.698 L26.87,32.003 L28.215,31.329 L29.55,30.659 L30.909,30.03 L32.271,29.4 L33.653,28.806 L35.029,28.215 L36.427,27.667 L37.859,27.104 L39.292,26.542 L40.684,25.995 L42.096,25.498 L43.548,24.987 L44.999,24.475 L46.427,23.972 L47.859,23.502 L49.315,23.024 L50.772,22.545 L52.217,22.071 L53.173,21.771 L54.148,21.465 L55.123,21.159 L56.079,20.859 L57.039,20.573 L58.018,20.281 L58.997,19.988 L59.958,19.702 L60.923,19.43 L61.907,19.153 L62.891,18.875 L63.858,18.603 L64.83,18.344 L65.817,18.08 L66.805,17.816 L67.775,17.557 L68.749,17.312 L69.741,17.063 L70.733,16.814 L71.708,16.569 L72.686,16.337 L73.682,16.101 L74.678,15.864 L75.658,15.631 L76.641,15.411 L77.64,15.187 L78.639,14.963 L79.621,14.742 L80.607,14.535 L81.61,14.324 L82.612,14.113 L83.598,13.905 L84.587,13.71 L85.593,13.512 L86.598,13.314 L87.59,13.119 L88.583,12.934 L89.591,12.747 L90.599,12.56 L91.592,12.375 L92.587,12.202 L93.598,12.027 L94.609,11.852 L95.604,11.679 L96.603,11.517 L97.616,11.353 L98.629,11.189 L99.629,11.027 L100.631,10.876 L101.645,10.722 L102.66,10.568 L103.661,10.416 L104.664,10.275 L105.681,10.132 L106.697,9.989 L107.701,9.847 L108.706,9.715 L109.724,9.582 L110.742,9.449 L111.749,9.317 L112.757,9.194 L113.776,9.07 L114.795,8.945 L115.803,8.822 L116.811,8.709 L117.831,8.594 L118.852,8.48 L119.86,8.366 L120.87,8.262 L121.891,8.156 L122.913,8.05 L123.924,7.946 L124.935,7.849 L125.957,7.751 L126.979,7.654 L127.99,7.557 L129.001,7.469 L130.023,7.379 L131.045,7.29 L132.057,7.201 L133.069,7.121 L134.091,7.039 L135.113,6.958 L136.126,6.877 L137.14,6.803 L138.161,6.728 L139.183,6.653 L140.196,6.579 L141.208,6.512 L142.23,6.445 L143.251,6.377 L144.264,6.31 L145.276,6.25 L146.296,6.189 L147.317,6.128 L148.327,6.068 L149.977,5.98 L151.623,5.891 L153.27,5.815 L154.917,5.739 L156.565,5.675 L158.213,5.61 L159.862,5.556 L161.51,5.502 L163.158,5.461 L164.806,5.419 L166.455,5.391 L168.104,5.362 L169.753,5.346 L171.401,5.329 L173.049,5.326 L174.698,5.322 L176.345,5.332 L177.994,5.342 L179.643,5.364 L181.29,5.387 L182.937,5.423 L184.584,5.459 L186.23,5.509 L187.886,5.559 L189.034,5.595 L190.188,5.631 L191.345,5.663 L192.496,5.695 L193.648,5.73 L194.795,5.764 L195.943,5.805 L197.084,5.846 L198.224,5.901 L199.356,5.954 L200.486,6.027 L201.612,6.099 L202.735,6.194 L203.849,6.287 L204.957,6.41 L206.058,6.532 L207.151,6.689 L208.255,6.847 L209.326,7.028 L210.398,7.231 L211.464,7.456 L212.523,7.702 L213.57,7.972 L214.589,8.261 L215.515,8.568 L216.419,8.866 L217.299,9.221 L218.193,9.579 L219.066,9.986 L219.955,10.398 L220.828,10.848 L221.707,11.3 L222.573,11.786 L223.45,12.277 L224.318,12.793 L225.197,13.316 L226.069,13.854 L226.95,14.396 L227.827,14.948 L228.714,15.506 L229.602,16.064 L230.498,16.627 L231.397,17.182 L232.307,17.743 L233.224,18.288 L234.152,18.839 L235.09,19.364 L235.998,19.871 C237.291,20.593 238.923,20.13 239.645,18.838 C240.366,17.546 239.904,15.913 238.611,15.192 Z" id="Fill-279"></path>
        </g>
    </g>
</svg>
