<?xml version="1.0" encoding="UTF-8"?>
<svg width="268px" height="178px" viewBox="0 0 268 178" version="1.1" xmlns="http://www.w3.org/2000/svg" xmlns:xlink="http://www.w3.org/1999/xlink">
    <title>179</title>
    <g id="Page-1" stroke="none" stroke-width="1" fill="none" fill-rule="evenodd">
        <g id="179" transform="translate(0.632611, 0.166048)" fill="currentColor">
            <path d="M263.317,0.189951769 L261.492,0.915951769 L259.667,1.64195177 L257.842,2.36795177 L256.018,3.09295177 L254.193,3.81895177 L252.368,4.54495177 L250.543,5.27095177 L248.712,5.99895177 L246.884,6.73595177 L245.063,7.47095177 L243.242,8.20595177 L241.421,8.94095177 L239.599,9.67595177 L237.778,10.4109518 L235.957,11.1459518 L234.129,11.8829518 L232.305,12.6299518 L230.488,13.3739518 L228.67,14.1179518 L226.852,14.8609518 L225.034,15.6049518 L223.217,16.3489518 L221.399,17.0929518 L219.576,17.8389518 L217.756,18.5939518 L215.941,19.3449518 L214.127,20.0969518 L212.312,20.8489518 L210.498,21.6009518 L208.683,22.3529518 L206.869,23.1049518 L205.048,23.8599518 L203.232,24.6229518 L201.421,25.3839518 L199.61,26.1439518 L197.799,26.9049518 L195.988,27.6659518 L194.177,28.4269518 L192.366,29.1869518 L190.549,29.9499518 L188.736,30.7219518 L186.929,31.4919518 L185.122,32.2609518 L183.314,33.0299518 L181.507,33.7999518 L179.7,34.5689518 L177.892,35.3379518 L176.08,36.1099518 L174.271,36.8889518 L172.467,37.6659518 L170.663,38.4429518 L168.859,39.2199518 L167.055,39.9979518 L165.251,40.7749518 L163.447,41.5519518 L161.637,42.3309518 L159.831,43.1189518 L158.031,43.9049518 L156.231,44.6899518 L154.43,45.4749518 L152.63,46.2609518 L150.83,47.0459518 L149.029,47.8319518 L147.223,48.6199518 L145.421,49.4159518 L143.625,50.2099518 L141.828,51.0049518 L140.032,51.7989518 L138.236,52.5939518 L136.44,53.3889518 L134.643,54.1829518 L132.842,54.9799518 L131.044,55.7839518 L129.251,56.5859518 L127.459,57.3889518 L125.666,58.1909518 L123.873,58.9929518 L122.08,59.7949518 L120.287,60.5969518 L118.489,61.4009518 L116.694,62.2139518 L114.905,63.0239518 L113.116,63.8339518 L111.327,64.6439518 L109.537,65.4539518 L107.748,66.2639518 L105.959,67.0739518 L104.164,67.8859518 L102.374,68.7069518 L100.588,69.5249518 L98.803,70.3429518 L97.017,71.1609518 L95.232,71.9789518 L93.446,72.7969518 L91.661,73.6149518 L89.876,74.4319518 L88.952,74.8549518 L88.025,75.2779518 L87.1,75.7009518 L86.18,76.1209518 L85.258,76.5369518 L84.329,76.9549518 L83.4,77.3739518 L82.476,77.7899518 L81.55,78.2019518 L80.618,78.6169518 L79.687,79.0319518 L78.759,79.4449518 L77.829,79.8559518 L76.895,80.2679518 L75.962,80.6799518 L75.032,81.0909518 L74.099,81.4999518 L73.165,81.9109518 L72.23,82.3219518 L71.297,82.7319518 L70.363,83.1409518 L69.428,83.5509518 L68.493,83.9609518 L67.557,84.3709518 L66.621,84.7819518 L65.685,85.1929518 L64.75,85.6029518 L63.815,86.0139518 L62.88,86.4239518 L61.944,86.8349518 L61.009,87.2449518 L60.069,87.6579518 L59.13,88.0749518 L58.197,88.4899518 L57.264,88.9039518 L56.33,89.3189518 L55.397,89.7329518 L54.463,90.1479518 L53.53,90.5619518 L52.586,90.9819518 L51.646,91.4089518 L50.717,91.8319518 L49.788,92.2549518 L48.86,92.6779518 L47.931,93.1009518 L47.002,93.5249518 L46.073,93.9479518 L45.134,94.3749518 L44.2,94.8109518 L43.275,95.2419518 L42.351,95.6729518 L41.418,96.1079518 L40.488,96.5499518 L39.568,96.9879518 L38.647,97.4259518 L37.716,97.8679518 L36.79,98.3189518 L35.874,98.7649518 L34.958,99.2109518 L34.032,99.6619518 L33.11,100.120952 L32.198,100.573952 L31.287,101.027952 L30.363,101.488952 L29.445,101.958952 L28.539,102.422952 L27.634,102.885952 L26.714,103.356952 L25.801,103.839952 L24.903,104.314952 L24.004,104.789952 L23.091,105.272952 L22.185,105.765952 L21.292,106.251952 L20.399,106.737952 L19.491,107.232952 L18.59,107.740952 L17.704,108.239952 L16.819,108.737952 L15.917,109.246952 L15.023,109.768952 L14.145,110.281952 L13.268,110.794952 L12.375,111.316952 L11.489,111.852952 L10.62,112.378952 L9.751,112.904952 L8.863,113.441952 L7.984,113.995952 L7.124,114.537952 L6.264,115.078952 L5.384,115.633952 L4.514,116.204952 L3.664,116.764952 L2.815,117.323952 L1.942,117.899952 L1.515,118.211952 L1.097,118.586952 L0.717,119.024952 L0.379,119.555952 L0.118,120.211952 L0,120.925952 L0.04,121.649952 L0.233,122.330952 L0.515,122.885952 L0.844,123.340952 L1.205,123.721952 L1.57,124.032952 L1.942,124.300952 L2.33,124.541952 L2.723,124.754952 L3.127,124.951952 L3.549,125.135952 L3.981,125.306952 L4.427,125.468952 L4.89,125.622952 L5.364,125.768952 L5.85,125.907952 L6.352,126.040952 L6.88,126.169952 L7.911,126.398952 L8.998,126.606952 L10.103,126.788952 L11.22,126.946952 L12.341,127.077952 L13.449,127.180952 L14.538,127.257952 L15.6,127.303952 L16.618,127.317952 L17.592,127.299952 L18.518,127.243952 L19.365,127.147952 L20.42,126.982952 L21.46,126.820952 L22.495,126.636952 L23.529,126.452952 L24.558,126.248952 L25.584,126.045952 L26.607,125.824952 L27.63,125.604952 L28.649,125.365952 L29.666,125.128952 L30.681,124.874952 L31.692,124.620952 L32.7,124.353952 L33.708,124.086952 L34.713,123.806952 L35.717,123.525952 L36.718,123.233952 L37.716,122.941952 L38.713,122.639952 L39.709,122.337952 L40.702,122.025952 L41.694,121.714952 L42.685,121.394952 L43.676,121.073952 L44.665,120.744952 L45.644,120.417952 L46.622,120.091952 L47.612,119.761952 L48.599,119.422952 L49.576,119.089952 L50.554,118.756952 L51.536,118.422952 L52.517,118.083952 L53.493,117.746952 L54.469,117.408952 L55.445,117.071952 L56.42,116.734952 L57.396,116.397952 L58.371,116.060952 L59.342,115.725952 L60.312,115.395952 L61.289,115.063952 L62.265,114.731952 L63.23,114.403952 L64.196,114.085952 L65.174,113.764952 L66.152,113.442952 L67.124,113.123952 L68.27,112.752952 L69.42,112.379952 L70.57,112.007952 L71.72,111.634952 L72.87,111.262952 L74.02,110.890952 L75.171,110.518952 L76.324,110.145952 L77.477,109.767952 L78.626,109.391952 L79.775,109.016952 L80.924,108.640952 L82.073,108.264952 L83.222,107.888952 L84.371,107.512952 L85.523,107.135952 L86.674,106.755952 L87.822,106.376952 L88.97,105.996952 L90.118,105.617952 L91.265,105.238952 L92.413,104.859952 L93.561,104.479952 L94.712,104.099952 L95.861,103.717952 L97.008,103.335952 L98.155,102.953952 L99.302,102.571952 L100.449,102.189952 L101.596,101.807952 L102.743,101.425952 L103.892,101.043952 L105.041,100.658952 L106.187,100.273952 L107.333,99.8899518 L108.48,99.5059518 L109.626,99.1219518 L110.772,98.7369518 L111.918,98.3529518 L113.066,97.9679518 L114.214,97.5809518 L115.359,97.1949518 L116.505,96.8089518 L117.65,96.4219518 L118.796,96.0359518 L119.942,95.6499518 L121.087,95.2639518 L122.234,94.8769518 L123.381,94.4879518 L124.526,94.0989518 L125.671,93.7109518 L126.816,93.3219518 L127.961,92.9339518 L129.105,92.5459518 L130.25,92.1569518 L131.395,91.7689518 L132.54,91.3809518 L133.685,90.9919518 L134.83,90.6039518 L135.974,90.2149518 L137.119,89.8269518 L138.264,89.4389518 L139.409,89.0499518 L140.555,88.6609518 L141.701,88.2709518 L142.845,87.8819518 L143.99,87.4919518 L145.134,87.1019518 L146.278,86.7129518 L147.423,86.3229518 L148.567,85.9329518 L149.712,85.5419518 L150.856,85.1519518 L152,84.7619518 L153.144,84.3719518 L154.289,83.9819518 L155.433,83.5919518 L156.577,83.2019518 L157.722,82.8119518 L158.865,82.4219518 L160.009,82.0329518 L161.154,81.6439518 L162.298,81.2549518 L163.443,80.8649518 L164.587,80.4759518 L165.732,80.0869518 L166.876,79.6979518 L168.021,79.3079518 L169.165,78.9189518 L170.31,78.5299518 L171.454,78.1399518 L172.599,77.7509518 L173.744,77.3619518 L174.888,76.9719518 L176.033,76.5829518 L177.179,76.1929518 L178.188,75.8479518 L179.194,75.5029518 L180.201,75.1589518 L181.208,74.8139518 L182.214,74.4699518 L183.221,74.1249518 L184.228,73.7809518 L185.234,73.4359518 L186.241,73.0919518 L187.248,72.7469518 L188.254,72.4029518 L189.261,72.0579518 L190.268,71.7139518 L191.275,71.3689518 L192.281,71.0249518 L193.299,70.6759518 L194.313,70.3169518 L195.316,69.9619518 L196.319,69.6069518 L197.322,69.2509518 L198.325,68.8959518 L199.328,68.5409518 L200.331,68.1849518 L201.334,67.8299518 L202.337,67.4749518 L203.34,67.1199518 L204.343,66.7639518 L205.346,66.4089518 L206.349,66.0539518 L207.352,65.6989518 L208.355,65.3429518 L209.377,64.9809518 L210.393,64.5999518 L211.389,64.2259518 L212.385,63.8519518 L213.38,63.4769518 L214.377,63.1029518 L215.372,62.7289518 L216.368,62.3549518 L217.364,61.9809518 L218.36,61.6069518 L219.356,61.2329518 L220.352,60.8589518 L221.348,60.4849518 L222.344,60.1099518 L223.34,59.7359518 L224.336,59.3619518 L225.324,58.9909518 L225.742,58.8389518 L226.198,58.6929518 L226.717,58.5429518 L227.281,58.3899518 L227.883,58.2349518 L228.517,58.0759518 L229.841,57.7439518 L231.197,57.3849518 L232.498,56.9909518 L233.171,56.7589518 L233.806,56.5109518 L234.415,56.2349518 L235.007,55.9209518 L235.586,55.5449518 L236.131,55.0899518 L236.64,54.5149518 L237.069,53.7619518 L237.283,53.0229518 L237.338,52.4169518 L237.303,51.9379518 L237.21,51.4899518 L237.07,51.0679518 L236.884,50.6639518 L236.627,50.2339518 L236.165,49.6239518 L235.556,49.0339518 L234.885,48.5699518 L234.173,48.2199518 L233.427,47.9809518 L232.694,47.8489518 L231.972,47.7949518 L231.252,47.8099518 L230.552,47.8789518 L229.863,47.9889518 L229.177,48.1369518 L228.502,48.3129518 L227.835,48.5089518 L227.172,48.7249518 L226.52,48.9519518 L225.877,49.1859518 L225.245,49.4229518 L224.631,49.6569518 L223.45,50.1029518 L222.368,50.4839518 L221.379,50.7739518 L219.766,51.1919518 L218.118,51.6199518 L216.473,52.0599518 L214.828,52.4999518 L213.187,52.9519518 L211.546,53.4049518 L209.908,53.8689518 L208.269,54.3329518 L206.634,54.8099518 L204.999,55.2869518 L203.367,55.7769518 L201.736,56.2659518 L200.109,56.7669518 L198.481,57.2679518 L196.857,57.7819518 L195.233,58.2959518 L193.613,58.8229518 L191.994,59.3499518 L190.379,59.8879518 L188.763,60.4259518 L187.152,60.9779518 L185.541,61.5289518 L183.934,62.0939518 L182.33,62.6569518 L181.334,63.0139518 L180.347,63.3689518 L179.359,63.7229518 L178.364,64.0799518 L177.372,64.4429518 L176.386,64.8029518 L175.401,65.1639518 L174.409,65.5259518 L173.419,65.8959518 L172.435,66.2629518 L171.452,66.6299518 L170.462,66.9989518 L169.475,67.3729518 L168.493,67.7459518 L167.512,68.1189518 L166.524,68.4939518 L165.538,68.8749518 L164.559,69.2539518 L163.58,69.6329518 L162.594,70.0139518 L161.611,70.4019518 L160.634,70.7869518 L159.657,71.1719518 L158.674,71.5599518 L157.694,71.9529518 L156.719,72.3429518 L155.744,72.7339518 L154.763,73.1269518 L153.785,73.5259518 L152.812,73.9229518 L151.839,74.3199518 L150.861,74.7189518 L149.885,75.1249518 L148.914,75.5269518 L147.944,75.9299518 L146.969,76.3349518 L145.995,76.7459518 L145.027,77.1539518 L144.059,77.5619518 L143.086,77.9729518 L142.114,78.3889518 L141.149,78.8029518 L140.183,79.2169518 L139.212,79.6339518 L138.243,80.0559518 L137.28,80.4759518 L136.317,80.8959518 L135.348,81.3179518 L134.382,81.7459518 L133.421,82.1709518 L132.461,82.5959518 L131.494,83.0229518 L130.53,83.4569518 L129.572,83.8869518 L128.614,84.3179518 L127.65,84.7519518 L126.688,85.1899518 L125.733,85.6269518 L124.777,86.0629518 L123.816,86.5019518 L122.858,86.9459518 L121.904,87.3869518 L120.951,87.8279518 L119.992,88.2719518 L119.036,88.7219518 L118.085,89.1689518 L117.134,89.6149518 L116.178,90.0649518 L115.224,90.5199518 L114.276,90.9719518 L113.328,91.4239518 L112.375,91.8789518 L111.425,92.3379518 L110.479,92.7949518 L109.534,93.2529518 L108.582,93.7119518 L107.634,94.1769518 L106.691,94.6399518 L105.748,95.1019518 L104.8,95.5669518 L103.854,96.0369518 L102.914,96.5049518 L101.974,96.9719518 L101.029,97.4419518 L100.087,97.9169518 L99.149,98.3889518 L98.211,98.8619518 L97.268,99.3359518 L96.328,99.8159518 L95.393,100.293952 L94.459,100.770952 L93.518,101.250952 L92.581,101.735952 L91.649,102.217952 L90.717,102.700952 L89.776,103.187952 L88.203,104.017952 L86.625,104.849952 L85.056,105.700952 L83.489,106.550952 L81.93,107.416952 L80.374,108.281952 L78.824,109.158952 L77.274,110.036952 L75.732,110.926952 L74.19,111.816952 L72.655,112.715952 L71.118,113.616952 L69.589,114.527952 L68.065,115.434952 L66.542,116.342952 L65.013,117.253952 L63.489,118.175952 L61.973,119.093952 L60.456,120.011952 L58.937,120.931952 L57.421,121.853952 L55.906,122.774952 L54.392,123.695952 L52.89,124.608952 L52.476,124.844952 L52.006,125.079952 L51.47,125.320952 L50.887,125.566952 L50.263,125.812952 L49.609,126.061952 L48.223,126.575952 L46.803,127.113952 L45.433,127.684952 L44.728,128.010952 L44.063,128.351952 L43.426,128.721952 L42.813,129.129952 L42.225,129.598952 L41.689,130.133952 L41.206,130.761952 L40.811,131.515952 L40.592,132.249952 L40.515,132.799952 L40.509,133.262952 L40.554,133.713952 L40.643,134.156952 L40.778,134.596952 L40.949,135.012952 L41.153,135.416952 L41.395,135.807952 L41.665,136.166952 L41.965,136.498952 L42.3,136.803952 L42.651,137.065952 L43.02,137.291952 L43.409,137.482952 L43.798,137.632952 L44.189,137.749952 L44.587,137.836952 L45.034,137.898952 L45.74,137.937952 L46.503,137.902952 L47.248,137.806952 L47.983,137.666952 L48.719,137.486952 L49.448,137.276952 L50.172,137.045952 L50.895,136.795952 L51.61,136.535952 L52.316,136.271952 L53.012,136.008952 L53.681,135.757952 L54.985,135.286952 L56.157,134.918952 L57.212,134.682952 L58.859,134.399952 L60.549,134.109952 L62.239,133.818952 L63.936,133.527952 L65.631,133.224952 L67.319,132.923952 L69.007,132.621952 L70.702,132.318952 L72.396,132.002952 L74.082,131.689952 L75.768,131.375952 L77.461,131.060952 L79.151,130.734952 L80.835,130.409952 L82.519,130.084952 L84.211,129.758952 L85.9,129.419952 L87.581,129.081952 L89.263,128.744952 L90.952,128.404952 L92.639,128.052952 L94.317,127.701952 L95.995,127.349952 L97.679,126.997952 L98.72,126.772952 L99.752,126.548952 L100.785,126.325952 L101.817,126.101952 L102.849,125.878952 L103.881,125.655952 L104.914,125.431952 L105.953,125.206952 L106.99,124.974952 L108.021,124.744952 L109.052,124.513952 L110.083,124.282952 L111.113,124.052952 L112.144,123.821952 L113.175,123.591952 L114.212,123.359952 L115.248,123.120952 L116.278,122.882952 L117.307,122.645952 L118.336,122.407952 L119.366,122.170952 L120.395,121.932952 L121.424,121.694952 L122.459,121.455952 L123.493,121.210952 L124.521,120.966952 L125.549,120.722952 L126.577,120.479952 L127.604,120.235952 L128.632,119.991952 L129.66,119.747952 L130.694,119.502952 L131.727,119.249952 L132.753,118.999952 L133.78,118.748952 L134.806,118.498952 L135.832,118.247952 L136.858,117.996952 L137.885,117.746952 L138.917,117.494952 L139.948,117.235952 L140.973,116.978952 L141.997,116.720952 L143.022,116.463952 L144.047,116.206952 L145.072,115.949952 L146.096,115.692952 L147.126,115.433952 L148.155,115.168952 L149.178,114.905952 L150.202,114.642952 L151.225,114.379952 L152.248,114.116952 L153.271,113.853952 L154.294,113.590952 L155.323,113.325952 L156.351,113.054952 L157.372,112.784952 L158.394,112.515952 L159.415,112.245952 L160.437,111.976952 L161.458,111.706952 L162.48,111.437952 L163.507,111.166952 L164.533,110.888952 L165.553,110.613952 L166.572,110.337952 L167.592,110.061952 L168.612,109.785952 L169.632,109.509952 L170.652,109.234952 L171.677,108.957952 L172.7,108.674952 L173.718,108.392952 L174.736,108.111952 L175.754,107.830952 L176.773,107.548952 L177.791,107.267952 L178.809,106.986952 L179.833,106.703952 L180.855,106.414952 L181.871,106.126952 L182.888,105.839952 L183.904,105.552952 L184.921,105.264952 L185.937,104.977952 L186.954,104.689952 L187.975,104.401952 L188.995,104.106952 L190.01,103.812952 L191.025,103.519952 L192.039,103.226952 L193.054,102.933952 L194.069,102.640952 L195.084,102.348952 L196.1,102.055952 L196.695,101.882952 L197.334,101.698952 L198.016,101.501952 L198.734,101.294952 L199.49,101.077952 L200.28,100.850952 L201.098,100.615952 L201.944,100.373952 L202.814,100.123952 L203.704,99.8689518 L204.613,99.6089518 L205.537,99.3439518 L207.416,98.8049518 L209.321,98.2569518 L211.224,97.7079518 L213.106,97.1629518 L214.939,96.6289518 L216.696,96.1149518 L217.544,95.8649518 L218.364,95.6219518 L219.152,95.3869518 L219.911,95.1599518 L220.633,94.9429518 L221.315,94.7349518 L221.959,94.5369518 L222.558,94.3509518 L223.108,94.1769518 L223.613,94.0149518 L224.067,93.8659518 L224.466,93.7299518 L224.817,93.6059518 L225.123,93.4909518 L225.395,93.3769518 L225.587,93.2829518 L225.948,93.0479518 L225.949,93.0469518 L225.949,93.0469518 L225.95,93.0469518 L225.951,93.0459518 L225.952,93.0449518 L225.953,93.0439518 L225.954,93.0429518 L225.956,93.0409518 L225.958,93.0399518 L225.96,93.0379518 L225.962,93.0359518 L225.964,93.0339518 L225.967,93.0319518 L225.97,93.0299518 L225.973,93.0269518 L225.999,93.0049518 L226.052,92.9579518 L226.11,92.9019518 L226.174,92.8349518 L226.244,92.7529518 L226.32,92.6509518 L226.401,92.5259518 L226.484,92.3689518 L226.562,92.1759518 L226.625,91.9399518 L226.66,91.6639518 L226.65,91.3569518 L226.585,91.0419518 L226.469,90.7459518 L226.317,90.4909518 L226.148,90.2849518 L226.062,90.1999518 L226.06,90.1989518 L226.059,90.1979518 L226.058,90.1959518 L226.057,90.1949518 L226.056,90.1939518 L226.055,90.1929518 L226.054,90.1929518 L226.053,90.1919518 L226.052,90.1909518 L226.052,90.1909518 L226.051,90.1899518 L226.051,90.1899518 L226.05,90.1899518 L226.05,90.1889518 L226.05,90.1889518 L224.867,89.6959518 L224.6,89.6919518 L224.27,89.7219518 L223.937,89.7719518 L223.549,89.8409518 L223.081,89.9319518 L222.524,90.0469518 L221.467,90.2749518 L220.414,90.5009518 L219.362,90.7269518 L218.302,90.9549518 L217.244,91.1919518 L216.193,91.4279518 L215.142,91.6629518 L214.084,91.8999518 L213.027,92.1459518 L211.978,92.3899518 L210.93,92.6339518 L209.874,92.8789518 L208.82,93.1329518 L207.773,93.3839518 L206.725,93.6359518 L205.671,93.8889518 L204.618,94.1509518 L203.572,94.4109518 L202.527,94.6709518 L201.474,94.9319518 L200.423,95.2019518 L199.38,95.4709518 L198.336,95.7389518 L197.286,96.0089518 L196.238,96.2859518 L195.196,96.5619518 L194.154,96.8379518 L193.105,97.1149518 L192.058,97.4009518 L191.019,97.6849518 L189.979,97.9689518 L188.932,98.2549518 L187.888,98.5489518 L186.85,98.8409518 L185.812,99.1329518 L184.768,99.4259518 L183.726,99.7269518 L182.691,100.025952 L181.655,100.325952 L180.613,100.627952 L179.573,100.937952 L178.539,101.244952 L177.506,101.552952 L176.466,101.862952 L175.428,102.179952 L174.397,102.495952 L173.366,102.810952 L172.329,103.128952 L171.294,103.452952 L170.265,103.774952 L169.236,104.096952 L168.201,104.421952 L167.168,104.752952 L166.141,105.082952 L165.114,105.412952 L164.081,105.743952 L163.051,106.082952 L162.026,106.419952 L161.002,106.756952 L159.972,107.095952 L158.944,107.441952 L157.922,107.784952 L156.901,108.130952 L155.874,108.479952 L154.849,108.835952 L153.831,109.190952 L152.813,109.544952 L151.788,109.900952 L150.767,110.263952 L149.751,110.624952 L148.735,110.985952 L147.714,111.348952 L146.695,111.717952 L145.682,112.084952 L144.668,112.452952 L143.649,112.821952 L142.633,113.197952 L141.622,113.571952 L140.611,113.945952 L139.595,114.320952 L138.581,114.703952 L137.573,115.083952 L136.565,115.464952 L135.552,115.846952 L134.542,116.234952 L133.536,116.620952 L132.53,117.005952 L131.518,117.391952 L130.51,117.784952 L129.506,118.175952 L128.502,118.565952 L127.494,118.958952 L126.488,119.357952 L125.487,119.754952 L124.486,120.151952 L123.481,120.549952 L122.467,120.959952 L121.457,121.366952 L120.448,121.774952 L119.433,122.184952 L118.421,122.602952 L117.415,123.017952 L116.409,123.432952 L115.397,123.850952 L114.388,124.275952 L113.384,124.698952 L112.381,125.122952 L111.373,125.547952 L110.367,125.979952 L109.367,126.409952 L108.366,126.838952 L107.36,127.270952 L106.356,127.709952 L105.359,128.146952 L104.361,128.583952 L103.358,129.022952 L102.358,129.469952 L101.365,129.914952 L100.37,130.359952 L99.371,130.806952 L98.375,131.260952 L97.385,131.711952 L96.394,132.163952 L95.397,132.618952 L94.404,133.080952 L93.417,133.540952 L92.43,133.999952 L91.437,134.462952 L90.448,134.932952 L89.465,135.399952 L88.482,135.867952 L87.493,136.337952 L86.508,136.814952 L85.528,137.289952 L84.548,137.763952 L83.562,138.240952 L82.581,138.725952 L81.605,139.207952 L80.629,139.689952 L79.647,140.174952 L78.669,140.667952 L77.698,141.157952 L76.726,141.647952 L75.758,142.135952 L74.856,142.584952 L73.959,143.029952 L73.045,143.467952 L72.123,143.908952 L71.193,144.350952 L70.256,144.795952 L69.32,145.246952 L68.376,145.702952 L67.441,146.172952 L66.498,146.646952 L65.572,147.144952 L64.643,147.645952 L63.737,148.173952 L62.822,148.708952 L61.941,149.282952 L61.052,149.861952 L60.208,150.488952 L59.372,151.110952 L58.548,151.788952 L57.757,152.494952 L56.996,153.233952 L56.265,154.007952 L55.565,154.823952 L54.918,155.659952 L54.724,155.944952 L54.562,156.241952 L54.433,156.564952 L54.343,156.928952 L54.315,157.345952 L54.372,157.771952 L54.516,158.179952 L54.74,158.545952 L54.998,158.827952 L55.267,159.043952 L55.544,159.211952 L55.863,159.355952 L56.327,159.506952 L56.857,159.615952 L57.396,159.681952 L57.954,159.719952 L58.539,159.734952 L59.143,159.730952 L59.764,159.711952 L60.4,159.679952 L61.043,159.638952 L61.688,159.589952 L62.329,159.536952 L62.958,159.480952 L64.158,159.371952 L65.228,159.281952 L66.112,159.230952 L67.541,159.174952 L68.987,159.118952 L70.432,159.049952 L71.877,158.979952 L73.321,158.899952 L74.765,158.818952 L76.208,158.727952 L77.651,158.636952 L79.094,158.535952 L80.536,158.434952 L81.978,158.323952 L83.42,158.212952 L84.862,158.089952 L86.298,157.967952 L87.734,157.844952 L89.178,157.721952 L90.62,157.582952 L92.054,157.444952 L93.488,157.306952 L94.929,157.168952 L96.369,157.016952 L97.801,156.866952 L99.234,156.716952 L100.672,156.565952 L102.377,156.374952 L104.082,156.183952 L105.785,155.979952 L107.488,155.775952 L109.189,155.561952 L110.89,155.347952 L112.589,155.124952 L114.288,154.901952 L115.986,154.671952 L117.683,154.440952 L119.38,154.204952 L121.076,153.967952 L122.772,153.726952 L124.465,153.485952 L126.158,153.244952 L127.853,153.003952 L129.547,152.759952 L131.24,152.515952 L132.933,152.271952 L134.624,152.028952 L136.315,151.788952 L138.009,151.549952 L139.702,151.309952 L141.404,151.068952 L142.646,150.874952 L143.899,150.637952 L145.144,150.366952 L146.384,150.069952 L147.621,149.750952 L148.853,149.414952 L150.076,149.066952 L151.293,148.720952 L152.509,148.372952 L153.712,148.028952 L154.914,147.706952 L156.105,147.387952 L157.292,147.108952 L158.465,146.831952 L159.631,146.620952 L160.782,146.411952 L161.925,146.290952 L163.078,146.167952 L164.185,146.118952 L165.291,146.126952 L166.389,146.197952 L167.475,146.330952 L168.547,146.533952 L169.644,146.823952 L169.731,146.855952 L169.79,146.882952 L169.811,146.895952 L169.8,146.885952 L169.76,146.840952 L169.722,146.783952 L169.694,146.718952 L169.677,146.654952 L169.673,146.627952 L169.673,146.634952 L169.668,146.669952 L169.664,146.694952 L169.558,146.988952 L169.39,147.311952 L169.139,147.705952 L168.821,148.142952 L168.439,148.611952 L168.001,149.106952 L167.521,149.617952 L167.003,150.135952 L166.456,150.659952 L165.89,151.182952 L165.312,151.697952 L164.736,152.196952 L163.58,153.164952 L162.507,154.026952 L161.583,154.748952 L160.707,155.408952 L159.821,156.044952 L158.917,156.662952 L158.001,157.265952 L157.072,157.851952 L156.134,158.422952 L155.172,158.979952 L154.213,159.536952 L153.239,160.070952 L152.26,160.607952 L151.27,161.128952 L150.275,161.651952 L149.275,162.166952 L148.271,162.683952 L147.264,163.195952 L146.252,163.711952 L145.242,164.229952 L144.228,164.749952 L143.219,165.278952 L142.206,165.809952 L141.202,166.355952 L140.194,166.904952 L139.2,167.476952 L138.207,168.047952 L137.331,168.578952 L136.458,169.107952 L135.596,169.653952 L134.738,170.196952 L133.887,170.749952 L133.04,171.300952 L132.196,171.856952 L131.355,172.410952 L130.515,172.964952 L129.679,173.515952 L128.84,174.061952 L127.996,174.609952 C127.292,175.066952 127.092,176.008952 127.55,176.712952 C128.007,177.415952 128.949,177.615952 129.652,177.158952 L130.496,176.610952 L131.344,176.059952 L132.188,175.502952 L133.028,174.948952 L133.868,174.394952 L134.704,173.843952 L135.544,173.297952 L136.379,172.753952 L137.221,172.220952 L138.058,171.690952 L138.906,171.176952 L139.75,170.664952 L140.714,170.110952 L141.678,169.556952 L142.655,169.024952 L143.638,168.489952 L144.63,167.969952 L145.627,167.446952 L146.629,166.932952 L147.634,166.415952 L148.642,165.902952 L149.654,165.386952 L150.664,164.867952 L151.678,164.345952 L152.685,163.815952 L153.697,163.282952 L154.699,162.733952 L155.705,162.181952 L156.696,161.606952 L157.684,161.032952 L158.671,160.433952 L159.645,159.817952 L160.609,159.183952 L161.563,158.530952 L162.506,157.853952 L163.431,157.155952 L164.393,156.404952 L165.506,155.510952 L166.697,154.512952 L167.316,153.976952 L167.93,153.429952 L168.535,152.870952 L169.127,152.303952 L169.7,151.729952 L170.242,151.153952 L170.752,150.575952 L171.224,149.995952 L171.645,149.416952 L172.017,148.830952 L172.33,148.221952 L172.546,147.643952 L172.645,147.253952 L172.696,146.892952 L172.705,146.520952 L172.666,146.133952 L172.562,145.729952 L172.395,145.348952 L172.167,144.993952 L171.879,144.676952 L171.562,144.418952 L171.223,144.208952 L170.858,144.038952 L170.456,143.901952 L169.218,143.575952 L167.942,143.332952 L166.671,143.177952 L165.401,143.095952 L164.129,143.085952 L162.849,143.142952 L161.604,143.274952 L160.35,143.409952 L159.09,143.636952 L157.846,143.863952 L156.598,144.156952 L155.365,144.447952 L154.129,144.778952 L152.903,145.106952 L151.675,145.458952 L150.462,145.805952 L149.247,146.150952 L148.04,146.494952 L146.843,146.820952 L145.652,147.128952 L144.469,147.411952 L143.294,147.667952 L142.13,147.888952 L140.962,148.070952 L139.277,148.309952 L137.584,148.549952 L135.89,148.789952 L134.195,149.029952 L132.501,149.273952 L130.808,149.517952 L129.115,149.761952 L127.423,150.005952 L125.732,150.246952 L124.038,150.487952 L122.345,150.728952 L120.654,150.968952 L118.962,151.203952 L117.271,151.438952 L115.579,151.666952 L113.888,151.895952 L112.195,152.116952 L110.503,152.336952 L108.81,152.549952 L107.119,152.761952 L105.425,152.962952 L103.733,153.164952 L102.039,153.353952 L100.344,153.542952 L98.917,153.690952 L97.485,153.840952 L96.052,153.989952 L94.626,154.138952 L93.198,154.273952 L91.764,154.410952 L90.329,154.546952 L88.903,154.682952 L87.476,154.802952 L86.04,154.923952 L84.604,155.044952 L83.175,155.164952 L81.745,155.273952 L80.313,155.381952 L78.881,155.480952 L77.449,155.579952 L76.017,155.667952 L74.585,155.756952 L73.152,155.835952 L71.719,155.913952 L70.287,155.980952 L68.855,156.047952 L67.422,156.102952 L65.972,156.157952 L65.01,156.211952 L63.891,156.304952 L62.683,156.412952 L62.066,156.466952 L61.445,156.518952 L60.829,156.563952 L60.225,156.602952 L59.642,156.630952 L59.086,156.647952 L58.566,156.650952 L58.097,156.638952 L57.686,156.609952 L57.346,156.568952 L57.109,156.520952 L56.935,156.460952 L56.982,156.479952 L57.024,156.505952 L57.098,156.564952 L57.196,156.674952 L57.303,156.850952 L57.375,157.052952 L57.401,157.253952 L57.39,157.427952 L57.367,157.528952 L57.35,157.569952 L57.354,157.563952 L57.38,157.524952 L57.96,156.774952 L58.56,156.076952 L59.197,155.405952 L59.863,154.758952 L60.559,154.138952 L61.278,153.548952 L62.054,152.974952 L62.82,152.404952 L63.63,151.879952 L64.447,151.348952 L65.298,150.854952 L66.158,150.353952 L67.042,149.880952 L67.93,149.405952 L68.835,148.952952 L69.748,148.495952 L70.67,148.053952 L71.599,147.608952 L72.528,147.169952 L73.463,146.727952 L74.39,146.286952 L75.326,145.840952 L76.244,145.387952 L77.156,144.936952 L78.133,144.446952 L79.106,143.958952 L80.079,143.470952 L81.046,142.985952 L82.017,142.508952 L82.994,142.028952 L83.971,141.548952 L84.943,141.071952 L85.918,140.601952 L86.899,140.129952 L87.88,139.658952 L88.856,139.189952 L89.836,138.727952 L90.82,138.263952 L91.805,137.798952 L92.785,137.337952 L93.767,136.883952 L94.756,136.427952 L95.744,135.970952 L96.727,135.517952 L97.714,135.071952 L98.706,134.622952 L99.698,134.174952 L100.685,133.728952 L101.675,133.289952 L102.671,132.848952 L103.666,132.406952 L104.656,131.968952 L105.649,131.537952 L106.648,131.103952 L107.647,130.670952 L108.64,130.239952 L109.637,129.816952 L110.639,129.390952 L111.641,128.965952 L112.639,128.543952 L113.639,128.128952 L114.645,127.711952 L115.65,127.293952 L116.65,126.878952 L117.653,126.471952 L118.661,126.061952 L119.67,125.652952 L120.673,125.244952 L121.678,124.845952 L122.69,124.443952 L123.701,124.041952 L124.708,123.641952 L125.706,123.252952 L126.709,122.861952 L127.712,122.469952 L128.71,122.080952 L129.711,121.697952 L130.717,121.312952 L131.723,120.927952 L132.723,120.544952 L133.727,120.167952 L134.736,119.789952 L135.745,119.412952 L136.75,119.037952 L137.757,118.667952 L138.768,118.297952 L139.78,117.926952 L140.786,117.557952 L141.796,117.194952 L142.81,116.830952 L143.824,116.465952 L144.833,116.103952 L145.845,115.747952 L146.862,115.389952 L147.879,115.031952 L148.89,114.675952 L149.905,114.326952 L150.924,113.974952 L151.943,113.623952 L152.957,113.273952 L153.973,112.930952 L154.994,112.586952 L156.016,112.241952 L157.032,111.898952 L158.05,111.563952 L159.074,111.224952 L160.097,110.883952 L161.114,110.543952 L162.134,110.210952 L163.159,109.876952 L164.184,109.541952 L165.203,109.208952 L166.224,108.883952 L167.252,108.555952 L168.279,108.228952 L169.301,107.902952 L170.324,107.584952 L171.354,107.264952 L172.384,106.944952 L173.408,106.626952 L174.434,106.315952 L175.466,106.001952 L176.498,105.688952 L177.523,105.377952 L178.551,105.073952 L179.585,104.768952 L180.619,104.462952 L181.646,104.159952 L182.676,103.863952 L183.712,103.565952 L184.748,103.266952 L185.778,102.969952 L186.809,102.679952 L187.847,102.388952 L188.885,102.096952 L189.916,101.807952 L190.949,101.525952 L191.989,101.241952 L193.029,100.958952 L194.062,100.676952 L195.097,100.403952 L196.139,100.127952 L197.181,99.8529518 L198.217,99.5789518 L199.254,99.3129518 L200.298,99.0449518 L201.341,98.7769518 L202.378,98.5109518 L203.417,98.2539518 L204.462,97.9939518 L205.508,97.7349518 L206.546,97.4769518 L207.587,97.2279518 L208.634,96.9769518 L209.682,96.7269518 L210.723,96.4779518 L211.765,96.2369518 L212.815,95.9939518 L213.864,95.7509518 L214.906,95.5109518 L215.949,95.2779518 L217,95.0439518 L218.051,94.8109518 L219.095,94.5779518 L220.14,94.3549518 L221.192,94.1299518 L222.245,93.9049518 L223.293,93.6809518 L223.812,93.5739518 L224.229,93.4939518 L224.541,93.4389518 L224.744,93.4089518 L224.777,93.4039518 L224.707,93.4089518 L223.524,92.9149518 L223.524,92.9149518 L223.524,92.9149518 L223.524,92.9159518 L223.525,92.9159518 L223.525,92.9169518 L223.525,92.9169518 L223.526,92.9179518 L223.527,92.9179518 L223.528,92.9189518 L223.529,92.9199518 L223.53,92.9209518 L223.531,92.9219518 L223.532,92.9229518 L223.534,92.9249518 L223.535,92.9259518 L223.452,92.8439518 L223.286,92.6419518 L223.135,92.3889518 L223.021,92.0969518 L222.957,91.7849518 L222.947,91.4819518 L222.981,91.2099518 L223.043,90.9779518 L223.12,90.7889518 L223.2,90.6369518 L223.278,90.5159518 L223.351,90.4189518 L223.417,90.3419518 L223.476,90.2789518 L223.529,90.2279518 L223.576,90.1869518 L223.595,90.1699518 L223.592,90.1729518 L223.589,90.1749518 L223.587,90.1769518 L223.584,90.1789518 L223.582,90.1809518 L223.58,90.1829518 L223.578,90.1839518 L223.577,90.1859518 L223.575,90.1869518 L223.574,90.1879518 L223.573,90.1889518 L223.572,90.1889518 L223.572,90.1899518 L223.571,90.1899518 L223.571,90.1899518 L223.932,89.9549518 L223.872,89.9859518 L223.762,90.0319518 L223.549,90.1119518 L223.253,90.2159518 L222.891,90.3379518 L222.466,90.4769518 L221.982,90.6319518 L221.448,90.7999518 L220.862,90.9809518 L220.229,91.1749518 L219.556,91.3779518 L218.842,91.5929518 L218.089,91.8169518 L217.306,92.0489518 L216.491,92.2889518 L215.649,92.5359518 L213.896,93.0459518 L212.067,93.5759518 L210.189,94.1159518 L208.288,94.6619518 L206.385,95.2059518 L204.506,95.7419518 L203.583,96.0049518 L202.674,96.2639518 L201.784,96.5179518 L200.913,96.7659518 L200.066,97.0069518 L199.247,97.2409518 L198.456,97.4669518 L197.699,97.6829518 L196.978,97.8899518 L196.293,98.0859518 L195.651,98.2709518 L195.059,98.4419518 L194.045,98.7319518 L193.029,99.0229518 L192.014,99.3139518 L190.999,99.6039518 L189.983,99.8939518 L188.967,100.183952 L187.952,100.473952 L186.942,100.762952 L185.929,101.044952 L184.912,101.328952 L183.895,101.612952 L182.877,101.896952 L181.86,102.180952 L180.842,102.464952 L179.825,102.748952 L178.813,103.031952 L177.799,103.307952 L176.78,103.585952 L175.761,103.863952 L174.742,104.141952 L173.723,104.419952 L172.703,104.697952 L171.684,104.975952 L170.67,105.252952 L169.655,105.523952 L168.634,105.795952 L167.613,106.068952 L166.593,106.340952 L165.572,106.612952 L164.551,106.885952 L163.53,107.157952 L162.515,107.428952 L161.499,107.693952 L160.476,107.959952 L159.454,108.225952 L158.431,108.491952 L157.409,108.757952 L156.387,109.023952 L155.364,109.289952 L154.348,109.554952 L153.329,109.812952 L152.306,110.072952 L151.281,110.331952 L150.257,110.591952 L149.233,110.851952 L148.209,111.110952 L147.185,111.370952 L146.166,111.628952 L145.146,111.881952 L144.121,112.135952 L143.095,112.388952 L142.07,112.642952 L141.044,112.896952 L140.019,113.150952 L138.993,113.404952 L137.974,113.656952 L136.953,113.901952 L135.926,114.149952 L134.899,114.396952 L133.871,114.643952 L132.844,114.890952 L131.817,115.137952 L130.79,115.385952 L129.769,115.630952 L128.747,115.869952 L127.718,116.110952 L126.69,116.350952 L125.661,116.590952 L124.632,116.831952 L123.604,117.071952 L122.575,117.312952 L121.552,117.551952 L120.528,117.784952 L119.498,118.018952 L118.468,118.252952 L117.438,118.486952 L116.408,118.720952 L115.378,118.955952 L114.348,119.189952 L113.324,119.422952 L112.3,119.648952 L111.268,119.875952 L110.237,120.103952 L109.205,120.330952 L108.174,120.557952 L107.142,120.785952 L106.11,121.012952 L105.086,121.238952 L104.06,121.457952 L103.027,121.677952 L101.994,121.897952 L100.961,122.118952 L99.928,122.338952 L98.895,122.558952 L97.862,122.778952 L96.838,122.997952 L95.163,123.342952 L93.484,123.688952 L91.804,124.034952 L90.133,124.379952 L88.458,124.711952 L86.776,125.044952 L85.094,125.378952 L83.419,125.710952 L81.742,126.029952 L80.057,126.349952 L78.373,126.670952 L76.694,126.990952 L75.014,127.298952 L73.327,127.608952 L71.641,127.917952 L69.961,128.225952 L68.279,128.522952 L66.59,128.820952 L64.901,129.119952 L63.219,129.417952 L61.535,129.703952 L59.845,129.991952 L58.154,130.278952 L56.42,130.574952 L55.067,130.877952 L53.649,131.318952 L52.245,131.821952 L51.536,132.086952 L50.844,132.346952 L50.163,132.600952 L49.497,132.841952 L48.852,133.063952 L48.23,133.260952 L47.638,133.430952 L47.09,133.564952 L46.585,133.660952 L46.134,133.718952 L45.76,133.735952 L45.395,133.711952 L45.331,133.699952 L45.237,133.679952 L45.156,133.654952 L45.092,133.630952 L45.05,133.610952 L45.01,133.585952 L44.976,133.559952 L44.949,133.534952 L44.912,133.493952 L44.869,133.437952 L44.826,133.366952 L44.774,133.261952 L44.737,133.171952 L44.721,133.120952 L44.715,133.087952 L44.713,133.074952 L44.713,133.087952 L44.691,133.199952 L44.713,133.091952 L44.738,133.051952 L44.838,132.927952 L45.019,132.747952 L45.285,132.537952 L45.645,132.299952 L46.076,132.050952 L46.571,131.797952 L47.101,131.552952 L48.358,131.029952 L49.7,130.522952 L51.084,130.010952 L51.785,129.745952 L52.476,129.472952 L53.153,129.188952 L53.814,128.890952 L54.456,128.569952 L55.055,128.230952 L56.584,127.303952 L58.099,126.383952 L59.614,125.463952 L61.128,124.544952 L62.644,123.628952 L64.161,122.711952 L65.679,121.794952 L67.19,120.880952 L68.707,119.977952 L70.23,119.070952 L71.754,118.163952 L73.271,117.260952 L74.794,116.369952 L76.318,115.477952 L77.848,114.595952 L79.376,113.714952 L80.911,112.845952 L82.446,111.977952 L83.988,111.121952 L85.528,110.266952 L87.077,109.427952 L88.624,108.589952 L90.181,107.768952 L91.743,106.945952 L92.666,106.468952 L93.598,105.986952 L94.531,105.504952 L95.458,105.025952 L96.388,104.551952 L97.323,104.074952 L98.258,103.597952 L99.188,103.123952 L100.12,102.653952 L101.058,102.182952 L101.996,101.710952 L102.929,101.240952 L103.865,100.776952 L104.805,100.309952 L105.746,99.8419518 L106.681,99.3779518 L107.619,98.9189518 L108.562,98.4569518 L109.505,97.9949518 L110.443,97.5359518 L111.383,97.0819518 L112.329,96.6249518 L113.275,96.1679518 L114.216,95.7139518 L115.159,95.2639518 L116.107,94.8129518 L117.056,94.3609518 L117.998,93.9119518 L118.944,93.4679518 L119.895,93.0219518 L120.846,92.5749518 L121.791,92.1309518 L122.739,91.6929518 L123.693,91.2519518 L124.646,90.8109518 L125.595,90.3729518 L126.546,89.9389518 L127.501,89.5029518 L128.457,89.0669518 L129.407,88.6339518 L130.36,88.2059518 L131.319,87.7759518 L132.277,87.3459518 L133.23,86.9179518 L134.185,86.4959518 L135.146,86.0709518 L136.107,85.6469518 L137.063,85.2239518 L138.021,84.8069518 L138.984,84.3879518 L139.947,83.9679518 L140.904,83.5519518 L141.864,83.1409518 L142.83,82.7269518 L143.796,82.3129518 L144.755,81.9019518 L145.718,81.4969518 L146.686,81.0889518 L147.654,80.6819518 L148.617,80.2759518 L149.582,79.8759518 L150.552,79.4739518 L151.522,79.0719518 L152.486,78.6719518 L153.453,78.2779518 L154.426,77.8819518 L155.399,77.4849518 L156.365,77.0909518 L157.334,76.7039518 L158.309,76.3129518 L159.284,75.9229518 L160.254,75.5349518 L161.225,75.1529518 L162.202,74.7679518 L163.179,74.3829518 L164.15,74.0009518 L165.123,73.6249518 L166.103,73.2469518 L167.082,72.8679518 L168.055,72.4919518 L169.031,72.1229518 L170.012,71.7499518 L170.994,71.3779518 L171.97,71.0079518 L172.948,70.6439518 L173.931,70.2769518 L174.915,69.9109518 L175.892,69.5469518 L176.872,69.1889518 L177.858,68.8289518 L178.844,68.4689518 L179.823,68.1119518 L180.805,67.7609518 L181.793,67.4069518 L182.781,67.0539518 L183.761,66.7039518 L185.355,66.1469518 L186.946,65.5899518 L188.541,65.0459518 L190.137,64.5019518 L191.737,63.9709518 L193.338,63.4399518 L194.943,62.9209518 L196.547,62.4009518 L198.156,61.8939518 L199.764,61.3879518 L201.377,60.8939518 L202.99,60.3989518 L204.607,59.9169518 L206.223,59.4339518 L207.842,58.9639518 L209.462,58.4939518 L211.085,58.0369518 L212.709,57.5799518 L214.336,57.1339518 L215.963,56.6879518 L217.592,56.2539518 L219.222,55.8209518 L220.854,55.3999518 L222.522,54.9699518 L223.705,54.6239518 L224.939,54.1919518 L226.169,53.7299518 L226.782,53.4979518 L227.385,53.2729518 L227.979,53.0569518 L228.561,52.8559518 L229.123,52.6729518 L229.667,52.5139518 L230.185,52.3789518 L230.667,52.2759518 L231.114,52.2049518 L231.517,52.1649518 L231.859,52.1579518 L232.15,52.1799518 L232.382,52.2199518 L232.544,52.2709518 L232.674,52.3349518 L232.782,52.4079518 L232.876,52.4989518 L233.037,52.7249518 L233.015,52.6959518 L233.009,52.6809518 L232.993,52.6349518 L232.976,52.5519518 L232.967,52.4259518 L232.998,52.1619518 L233.036,52.0759518 L233.112,51.9329518 L233.108,51.9309518 L233.006,52.0139518 L232.805,52.1429518 L232.498,52.3029518 L232.114,52.4759518 L231.664,52.6499518 L231.179,52.8179518 L230.006,53.1709518 L228.752,53.5009518 L227.455,53.8229518 L226.806,53.9849518 L226.163,54.1499518 L225.536,54.3189518 L224.925,54.4959518 L224.333,54.6839518 L223.799,54.8759518 L222.795,55.2519518 L221.799,55.6249518 L220.802,55.9969518 L219.806,56.3699518 L218.809,56.7419518 L217.813,57.1149518 L216.816,57.4879518 L215.82,57.8599518 L214.823,58.2329518 L213.827,58.6059518 L212.83,58.9779518 L211.834,59.3509518 L210.838,59.7239518 L209.841,60.0959518 L208.845,60.4689518 L207.868,60.8339518 L206.884,61.1809518 L205.88,61.5349518 L204.877,61.8889518 L203.873,62.2419518 L202.87,62.5959518 L201.866,62.9499518 L200.863,63.3039518 L199.859,63.6579518 L198.856,64.0109518 L197.852,64.3649518 L196.849,64.7189518 L195.846,65.0729518 L194.842,65.4269518 L193.838,65.7799518 L192.835,66.1339518 L191.843,66.4839518 L190.847,66.8229518 L189.84,67.1659518 L188.833,67.5089518 L187.825,67.8519518 L186.818,68.1949518 L185.811,68.5379518 L184.804,68.8809518 L183.796,69.2249518 L182.789,69.5679518 L181.782,69.9109518 L180.775,70.2539518 L179.768,70.5969518 L178.761,70.9399518 L177.754,71.2829518 L176.746,71.6259518 L175.741,71.9679518 L174.598,72.3549518 L173.453,72.7429518 L172.308,73.1299518 L171.163,73.5179518 L170.018,73.9059518 L168.872,74.2929518 L167.727,74.6809518 L166.582,75.0689518 L165.437,75.4559518 L164.292,75.8439518 L163.147,76.2309518 L162.002,76.6189518 L160.857,77.0069518 L159.712,77.3939518 L158.567,77.7819518 L157.421,78.1699518 L156.275,78.5579518 L155.13,78.9469518 L153.985,79.3349518 L152.84,79.7229518 L151.696,80.1119518 L150.551,80.4999518 L149.406,80.8879518 L148.261,81.2769518 L147.116,81.6649518 L145.971,82.0529518 L144.826,82.4419518 L143.681,82.8309518 L142.537,83.2189518 L141.392,83.6079518 L140.247,83.9969518 L139.104,84.3849518 L137.96,84.7719518 L136.815,85.1589518 L135.669,85.5469518 L134.524,85.9339518 L133.379,86.3219518 L132.234,86.7089518 L131.089,87.0969518 L129.943,87.4839518 L128.798,87.8719518 L127.653,88.2589518 L126.508,88.6469518 L125.363,89.0339518 L124.217,89.4209518 L123.072,89.8089518 L121.927,90.1959518 L120.784,90.5829518 L119.64,90.9679518 L118.494,91.3539518 L117.348,91.7399518 L116.202,92.1259518 L115.057,92.5109518 L113.911,92.8969518 L112.765,93.2829518 L111.621,93.6679518 L110.477,94.0519518 L109.331,94.4359518 L108.184,94.8189518 L107.038,95.2029518 L105.891,95.5869518 L104.745,95.9709518 L103.599,96.3549518 L102.455,96.7379518 L101.31,97.1189518 L100.163,97.4999518 L99.015,97.8809518 L97.868,98.2629518 L96.721,98.6439518 L95.574,99.0259518 L94.427,99.4069518 L93.282,99.7879518 L92.137,100.165952 L90.989,100.544952 L89.84,100.922952 L88.692,101.301952 L87.545,101.680952 L86.397,102.059952 L85.249,102.438952 L84.104,102.815952 L82.958,103.190952 L81.808,103.565952 L80.659,103.941952 L79.51,104.316952 L78.361,104.692952 L77.212,105.067952 L76.063,105.443952 L74.917,105.817952 L73.771,106.187952 L72.62,106.559952 L71.47,106.931952 L70.319,107.302952 L69.169,107.673952 L68.019,108.045952 L66.868,108.416952 L65.713,108.789952 L64.73,109.111952 L63.752,109.431952 L62.774,109.752952 L61.785,110.076952 L60.798,110.410952 L59.821,110.741952 L58.845,111.072952 L57.863,111.405952 L56.882,111.743952 L55.906,112.079952 L54.93,112.415952 L53.954,112.751952 L52.978,113.087952 L52.001,113.424952 L51.025,113.760952 L50.054,114.095952 L49.081,114.425952 L48.103,114.757952 L47.125,115.089952 L46.157,115.415952 L45.187,115.730952 L44.206,116.049952 L43.224,116.368952 L42.253,116.683952 L41.28,116.989952 L40.306,117.296952 L39.33,117.594952 L38.356,117.891952 L37.379,118.179952 L36.403,118.467952 L35.425,118.744952 L34.449,119.021952 L33.47,119.286952 L32.493,119.551952 L31.514,119.802952 L30.534,120.054952 L29.551,120.292952 L28.572,120.529952 L27.589,120.751952 L26.608,120.972952 L25.623,121.176952 L24.638,121.381952 L23.649,121.569952 L22.664,121.756952 L21.675,121.924952 L20.688,122.093952 L19.696,122.240952 L18.72,122.386952 L18.122,122.450952 L17.424,122.487952 L16.625,122.495952 L15.756,122.477952 L14.83,122.430952 L13.86,122.355952 L12.865,122.255952 L11.86,122.130952 L10.855,121.981952 L9.867,121.811952 L8.914,121.621952 L7.989,121.409952 L7.575,121.304952 L7.163,121.191952 L6.769,121.076952 L6.397,120.959952 L6.053,120.841952 L5.734,120.723952 L5.445,120.606952 L5.194,120.495952 L4.979,120.387952 L4.803,120.291952 L4.681,120.214952 L4.605,120.157952 L4.582,120.138952 L4.624,120.183952 L4.706,120.296952 L4.809,120.504952 L4.901,120.833952 L4.923,121.200952 L4.864,121.552952 L4.749,121.843952 L4.65,122.005952 L4.593,122.070952 L4.597,122.069952 L4.693,122.002952 L5.523,121.464952 L6.376,120.911952 L7.229,120.357952 L8.062,119.815952 L8.904,119.290952 L9.766,118.752952 L10.629,118.214952 L11.472,117.687952 L12.324,117.177952 L13.196,116.654952 L14.067,116.132952 L14.922,115.620952 L15.785,115.120952 L16.664,114.612952 L17.543,114.103952 L18.405,113.604952 L19.275,113.118952 L20.163,112.623952 L21.05,112.128952 L21.921,111.642952 L22.8,111.169952 L23.695,110.687952 L24.59,110.204952 L25.471,109.729952 L26.358,109.265952 L27.259,108.794952 L28.16,108.322952 L29.047,107.858952 L29.94,107.404952 L30.847,106.943952 L31.754,106.482952 L32.648,106.027952 L33.548,105.582952 L34.46,105.131952 L35.373,104.680952 L36.275,104.234952 L37.182,103.796952 L38.099,103.352952 L39.016,102.909952 L39.923,102.471952 L40.835,102.041952 L41.756,101.606952 L42.678,101.170952 L43.591,100.739952 L44.507,100.315952 L45.433,99.8879518 L46.359,99.4599518 L47.274,99.0359518 L48.194,98.6199518 L49.124,98.1999518 L50.054,97.7799518 L50.984,97.3589518 L51.914,96.9389518 L52.844,96.5179518 L53.774,96.0969518 L54.693,95.6809518 L55.616,95.2739518 L56.551,94.8609518 L57.485,94.4489518 L58.419,94.0359518 L59.353,93.6239518 L60.288,93.2109518 L61.222,92.7989518 L62.151,92.3879518 L63.082,91.9819518 L64.018,91.5739518 L64.955,91.1649518 L65.891,90.7569518 L66.827,90.3479518 L67.763,89.9399518 L68.699,89.5309518 L69.635,89.1229518 L70.57,88.7159518 L71.506,88.3079518 L72.443,87.8999518 L73.38,87.4919518 L74.317,87.0819518 L75.252,86.6739518 L76.187,86.2649518 L77.125,85.8549518 L78.062,85.4429518 L78.996,85.0319518 L79.93,84.6209518 L80.867,84.2089518 L81.803,83.7939518 L82.735,83.3799518 L83.667,82.9669518 L84.604,82.5509518 L85.539,82.1319518 L86.468,81.7149518 L87.398,81.2969518 L88.334,80.8769518 L89.267,80.4519518 L90.194,80.0309518 L91.12,79.6089518 L92.048,79.1859518 L93.835,78.3709518 L95.622,77.5549518 L97.409,76.7399518 L99.195,75.9239518 L100.982,75.1089518 L102.769,74.2929518 L104.555,73.4779518 L106.337,72.6649518 L108.122,71.8599518 L109.912,71.0519518 L111.702,70.2449518 L113.493,69.4369518 L115.283,68.6299518 L117.073,67.8219518 L118.864,67.0149518 L120.649,66.2099518 L122.437,65.4129518 L124.231,64.6129518 L126.025,63.8139518 L127.819,63.0139518 L129.613,62.2149518 L131.407,61.4149518 L133.201,60.6159518 L134.99,59.8179518 L136.783,59.0279518 L138.58,58.2359518 L140.378,57.4439518 L142.175,56.6519518 L143.972,55.8599518 L145.77,55.0679518 L147.567,54.2749518 L149.358,53.4849518 L151.153,52.7019518 L152.954,51.9179518 L154.754,51.1329518 L156.555,50.3479518 L158.356,49.5629518 L160.156,48.7779518 L161.957,47.9939518 L163.752,47.2109518 L165.55,46.4369518 L167.355,45.6609518 L169.159,44.8849518 L170.963,44.1079518 L172.767,43.3319518 L174.572,42.5549518 L176.376,41.7789518 L178.175,41.0049518 L179.977,40.2379518 L181.785,39.4699518 L183.593,38.7009518 L185.4,37.9319518 L187.208,37.1639518 L189.015,36.3949518 L190.823,35.6259518 L192.625,34.8599518 L194.43,34.1029518 L196.241,33.3429518 L198.052,32.5829518 L199.863,31.8229518 L201.675,31.0629518 L203.486,30.3029518 L205.297,29.5429518 L207.102,28.7849518 L208.911,28.0359518 L210.726,27.2849518 L212.541,26.5339518 L214.355,25.7819518 L216.17,25.0309518 L217.985,24.2799518 L219.8,23.5279518 L221.609,22.7789518 L223.421,22.0379518 L225.24,21.2949518 L227.058,20.5519518 L228.876,19.8089518 L230.694,19.0659518 L232.512,18.3219518 L234.33,17.5789518 L236.142,16.8379518 L237.957,16.1069518 L239.779,15.3719518 L241.6,14.6379518 L243.422,13.9039518 L245.244,13.1699518 L247.065,12.4359518 L248.887,11.7009518 L250.702,10.9699518 L252.521,10.2469518 L254.346,9.52195177 L256.171,8.79695177 L257.996,8.07195177 L259.822,7.34595177 L261.647,6.62095177 L263.472,5.89595177 L265.297,5.17095177 C266.672,4.62395177 267.344,3.06595177 266.797,1.69095177 C266.251,0.314951769 264.692,-0.356048231 263.317,0.189951769 Z" id="Fill-278"></path>
        </g>
    </g>
</svg>
