<?xml version="1.0" encoding="UTF-8"?>
<svg width="605px" height="195px" viewBox="0 0 605 195" version="1.1" xmlns="http://www.w3.org/2000/svg" xmlns:xlink="http://www.w3.org/1999/xlink">
    <title>181</title>
    <g id="Page-1" stroke="none" stroke-width="1" fill="none" fill-rule="evenodd">
        <g id="181" transform="translate(0.308611, 0.195000)" fill="currentColor">
            <path d="M233.686,32.699 L234.336,32.272 L234.981,31.879 L235.661,31.491 L236.368,31.11 L237.101,30.737 L237.842,30.378 L239.448,29.649 L241.109,28.951 L242.833,28.267 L244.6,27.59 L246.398,26.915 L248.211,26.234 L250.027,25.54 L251.831,24.823 L253.606,24.075 L255.346,23.289 L257.037,22.45 L258.624,21.566 L259.437,21.072 L260.202,20.572 L260.94,20.05 L261.655,19.505 L262.346,18.929 L263.002,18.327 L263.628,17.694 L264.222,17.023 L264.77,16.321 L265.277,15.585 L265.74,14.803 L266.144,13.992 L266.494,13.148 L266.785,12.259 L267.007,11.348 L267.165,10.411 L267.253,9.437 L267.269,8.449 L267.218,7.559 L267.083,6.682 L266.866,5.85 L266.567,5.052 L266.176,4.289 L265.711,3.597 L265.179,2.969 L264.577,2.403 L263.937,1.92 L263.264,1.504 L262.552,1.149 L261.826,0.858 L261.084,0.617 L260.316,0.421 L259.539,0.271 L258.748,0.155 L257.937,0.074 L257.116,0.024 L256.283,0 L255.432,0.003 L254.571,0.03 L253.7,0.076 L252.815,0.144 L251.902,0.231 L250.115,0.445 L248.277,0.718 L246.429,1.033 L244.581,1.378 L242.744,1.744 L240.934,2.12 L239.162,2.494 L237.445,2.856 L235.8,3.193 L234.235,3.499 L232.78,3.759 L231.416,3.967 L229.635,4.229 L227.829,4.528 L226.034,4.86 L224.246,5.219 L222.464,5.607 L220.692,6.022 L218.927,6.459 L217.168,6.921 L215.417,7.404 L213.673,7.906 L211.934,8.428 L210.198,8.967 L208.48,9.524 L206.758,10.082 L205.044,10.666 L203.334,11.249 L201.631,11.851 L199.933,12.452 L198.24,13.064 L196.551,13.676 L194.866,14.295 L193.186,14.912 L191.51,15.53 L189.832,16.149 L188.508,16.642 L187.188,17.133 L185.868,17.625 L184.539,18.12 L183.213,18.626 L181.897,19.127 L180.581,19.629 L179.255,20.135 L177.934,20.65 L176.622,21.162 L175.31,21.674 L173.989,22.189 L172.672,22.713 L171.363,23.234 L170.054,23.754 L168.737,24.278 L167.423,24.812 L166.118,25.342 L164.813,25.872 L163.499,26.406 L162.189,26.948 L160.887,27.487 L159.586,28.026 L158.277,28.568 L156.971,29.118 L155.673,29.665 L154.374,30.212 L153.068,30.763 L151.765,31.321 L150.47,31.877 L149.175,32.432 L147.872,32.991 L146.573,33.557 L145.281,34.121 L143.99,34.684 L142.691,35.25 L141.396,35.823 L140.107,36.394 L138.818,36.964 L137.522,37.538 L136.23,38.118 L134.944,38.696 L133.658,39.274 L132.366,39.855 L131.077,40.442 L129.794,41.027 L128.511,41.612 L127.223,42.199 L125.937,42.793 L124.657,43.384 L123.377,43.974 L122.091,44.568 L120.808,45.168 L119.531,45.765 L118.254,46.362 L116.971,46.962 L115.691,47.568 L114.416,48.171 L113.142,48.775 L111.862,49.38 L110.586,49.991 L109.314,50.599 L108.042,51.208 L106.765,51.819 L105.49,52.435 L104.221,53.049 L102.951,53.663 L101.677,54.279 L100.405,54.9 L99.139,55.519 L97.872,56.138 L96.599,56.759 L95.329,57.387 L94.065,58.012 L92.802,58.637 L91.538,59.263 L90.274,59.888 L89.011,60.513 L87.747,61.138 L86.476,61.767 L85.209,62.404 L83.95,63.037 L82.691,63.671 L81.432,64.305 L80.173,64.938 L78.914,65.572 L77.655,66.205 L76.389,66.842 L75.128,67.486 L73.873,68.126 L72.618,68.766 L71.363,69.407 L70.108,70.047 L68.853,70.687 L67.598,71.327 L66.343,71.968 L65.364,72.468 L64.384,72.968 L63.405,73.468 L62.426,73.967 L61.446,74.467 L60.467,74.967 L59.487,75.467 L58.506,75.968 L57.525,76.471 L56.545,76.973 L55.566,77.475 L54.586,77.977 L53.607,78.479 L52.627,78.981 L51.648,79.483 L50.654,79.993 L49.667,80.513 L48.694,81.027 L47.721,81.541 L46.748,82.054 L45.774,82.568 L44.801,83.082 L43.828,83.595 L42.839,84.117 L41.858,84.652 L40.892,85.178 L39.927,85.704 L38.946,86.239 L37.973,86.785 L37.014,87.323 L36.056,87.862 L35.08,88.41 L34.113,88.973 L33.163,89.525 L32.213,90.078 L31.246,90.641 L30.287,91.22 L29.347,91.787 L28.406,92.355 L27.444,92.936 L26.493,93.536 L25.564,94.122 L24.635,94.708 L23.682,95.31 L22.742,95.934 L21.826,96.541 L20.911,97.148 L19.987,97.76 L19.066,98.382 L18.153,98.997 L17.224,99.623 L16.283,100.258 L15.34,100.909 L14.388,101.565 L13.444,102.241 L12.489,102.926 L11.555,103.637 L10.609,104.358 L9.698,105.11 L8.796,105.858 L7.896,106.655 L7.026,107.471 L6.184,108.312 L5.368,109.181 L4.582,110.084 L3.835,111.017 L3.126,111.982 L2.458,112.989 L1.843,114.029 L1.277,115.105 L0.767,116.228 L0.32,117.392 L0.09,118.25 L0,119.156 L0.058,120.027 L0.239,120.854 L0.534,121.635 L0.906,122.333 L1.338,122.97 L1.827,123.558 L2.349,124.089 L2.901,124.579 L3.488,125.037 L4.092,125.457 L4.715,125.85 L5.359,126.217 L6.011,126.555 L6.672,126.869 L7.342,127.159 L8.046,127.436 L9.339,127.882 L10.646,128.24 L11.863,128.484 L13.369,128.714 L14.852,128.91 L16.335,129.077 L17.819,129.22 L19.306,129.336 L20.793,129.427 L22.279,129.496 L23.768,129.541 L25.255,129.564 L26.741,129.568 L28.228,129.552 L29.72,129.516 L31.194,129.457 L32.677,129.397 L34.158,129.304 L35.636,129.212 L37.112,129.091 L38.582,128.97 L40.05,128.827 L41.516,128.683 L42.978,128.519 L44.437,128.354 L45.889,128.173 L47.337,127.992 L48.802,127.797 L50.265,127.602 L51.727,127.395 L53.188,127.189 L54.647,126.971 L56.106,126.754 L57.562,126.528 L59.019,126.301 L60.475,126.065 L61.93,125.829 L63.383,125.585 L64.839,125.339 L66.293,125.083 L67.737,124.829 L69.181,124.574 L70.637,124.318 L72.092,124.047 L73.533,123.779 L74.975,123.51 L76.427,123.24 L77.877,122.958 L79.317,122.678 L80.757,122.398 L82.204,122.117 L83.65,121.827 L85.089,121.539 L86.527,121.251 L87.972,120.962 L89.415,120.665 L90.852,120.37 L92.29,120.076 L93.731,119.78 L95.171,119.48 L96.608,119.181 L98.044,118.882 L99.482,118.583 L100.92,118.283 L102.356,117.983 L103.792,117.682 L105.228,117.382 L106.663,117.083 L108.099,116.783 L109.536,116.484 L110.969,116.185 L112.402,115.89 L113.839,115.594 L115.275,115.298 L116.712,115.002 L118.595,114.614 L120.478,114.226 L122.361,113.839 L124.244,113.451 L126.127,113.063 L128.011,112.675 L129.894,112.287 L131.782,111.899 L133.668,111.503 L135.55,111.107 L137.431,110.712 L139.313,110.316 L141.194,109.921 L143.076,109.525 L144.958,109.129 L146.845,108.733 L148.73,108.328 L150.61,107.924 L152.49,107.521 L154.37,107.117 L156.249,106.713 L158.129,106.31 L160.009,105.906 L161.894,105.501 L163.778,105.088 L165.656,104.677 L167.534,104.265 L169.412,103.853 L171.29,103.441 L173.168,103.029 L175.047,102.618 L176.931,102.204 L178.813,101.781 L180.689,101.358 L182.565,100.935 L184.44,100.512 L186.316,100.089 L188.191,99.665 L190.067,99.242 L191.949,98.817 L193.829,98.382 L195.702,97.947 L197.575,97.513 L199.448,97.079 L201.321,96.645 L203.194,96.211 L205.067,95.776 L206.945,95.341 L208.443,94.987 L209.934,94.634 L211.426,94.281 L212.917,93.928 L214.409,93.575 L215.9,93.222 L217.392,92.868 L218.887,92.514 L220.381,92.155 L221.871,91.797 L223.36,91.439 L224.85,91.08 L226.34,90.722 L227.829,90.363 L229.319,90.005 L230.812,89.645 L232.303,89.281 L233.791,88.918 L235.279,88.555 L236.767,88.192 L238.255,87.829 L239.743,87.466 L241.231,87.103 L242.721,86.739 L244.211,86.372 L245.697,86.005 L247.184,85.639 L248.67,85.272 L250.157,84.905 L251.644,84.539 L253.13,84.172 L254.619,83.805 L256.107,83.434 L257.592,83.064 L259.078,82.695 L260.563,82.325 L262.048,81.955 L263.534,81.585 L265.019,81.215 L266.506,80.845 L267.992,80.472 L269.477,80.1 L270.961,79.728 L272.446,79.358 L273.931,78.989 L275.416,78.619 L276.901,78.25 L278.388,77.879 L279.874,77.507 L281.358,77.135 L282.842,76.763 L284.326,76.392 L285.81,76.02 L287.294,75.648 L288.778,75.276 L290.262,74.904 L291.746,74.532 L293.23,74.16 L294.714,73.789 L296.198,73.417 L297.682,73.045 L299.166,72.673 L300.65,72.301 L302.135,71.929 L303.619,71.556 L305.102,71.183 L306.585,70.81 L308.069,70.437 L309.552,70.064 L311.035,69.691 L312.518,69.318 L314.002,68.945 L315.485,68.572 L316.968,68.199 L318.451,67.826 L319.935,67.454 L321.418,67.081 L322.901,66.708 L324.385,66.335 L325.867,65.963 L327.349,65.593 L328.832,65.222 L330.316,64.851 L331.799,64.48 L333.283,64.109 L334.766,63.738 L336.25,63.367 L337.734,62.996 L339.217,62.625 L340.701,62.254 L342.184,61.884 L343.667,61.513 L345.151,61.142 L346.635,60.771 L348.118,60.4 L349.599,60.03 L351.08,59.664 L352.564,59.297 L354.049,58.93 L355.533,58.563 L357.018,58.196 L358.502,57.829 L359.987,57.463 L361.471,57.096 L362.956,56.729 L364.44,56.362 L365.925,55.995 L367.409,55.628 L368.893,55.261 L370.378,54.894 L371.862,54.528 L373.342,54.162 L374.823,53.803 L376.309,53.444 L377.795,53.084 L379.281,52.724 L380.768,52.364 L382.254,52.004 L383.74,51.644 L385.227,51.284 L386.713,50.925 L388.199,50.565 L389.686,50.205 L391.172,49.845 L392.658,49.485 L394.145,49.125 L395.631,48.766 L397.11,48.407 L398.591,48.059 L400.081,47.71 L401.57,47.36 L403.059,47.01 L404.548,46.66 L406.037,46.31 L407.526,45.96 L409.015,45.61 L410.504,45.26 L411.994,44.91 L413.483,44.56 L414.972,44.21 L416.461,43.86 L417.95,43.51 L419.439,43.16 L420.922,42.811 L422.407,42.471 L423.899,42.129 L425.39,41.787 L426.881,41.446 L428.373,41.104 L429.865,40.762 L431.356,40.42 L432.842,40.08 L434.331,39.746 L435.824,39.411 L437.318,39.076 L438.811,38.742 L440.305,38.407 L441.798,38.072 L443.292,37.737 L444.779,37.404 L446.269,37.078 L447.765,36.751 L449.261,36.423 L450.757,36.096 L452.253,35.769 L453.748,35.442 L455.244,35.114 L456.734,34.788 L458.226,34.47 L459.724,34.15 L461.222,33.83 L462.72,33.51 L464.218,33.19 L465.716,32.87 L467.214,32.551 L468.706,32.232 L470.2,31.923 L471.7,31.612 L473.201,31.301 L474.702,30.99 L476.202,30.679 L477.703,30.368 L479.204,30.057 L480.697,29.748 L482.193,29.448 L483.697,29.147 L485.201,28.846 L486.704,28.545 L488.208,28.244 L489.711,27.942 L491.215,27.641 L492.714,27.341 L494.192,27.052 L495.675,26.762 L497.158,26.471 L498.641,26.181 L500.125,25.891 L501.608,25.601 L503.091,25.311 L504.57,25.021 L506.051,24.737 L507.535,24.452 L509.019,24.167 L510.504,23.882 L511.988,23.597 L513.472,23.312 L514.956,23.027 L516.436,22.742 L517.917,22.464 L519.402,22.185 L520.887,21.907 L522.373,21.628 L523.858,21.349 L525.344,21.07 L526.829,20.791 L528.31,20.513 L529.792,20.241 L531.278,19.969 L532.765,19.696 L534.251,19.424 L535.738,19.151 L537.224,18.879 L538.711,18.606 L540.192,18.335 L541.674,18.071 L543.162,17.807 L544.65,17.542 L546.138,17.278 L547.625,17.013 L549.114,16.749 L550.601,16.485 L552.083,16.221 L553.566,15.967 L555.055,15.711 L556.545,15.456 L558.034,15.201 L559.524,14.945 L561.013,14.69 L562.503,14.434 L563.982,14.181 L565.511,13.934 L567.042,13.709 L568.58,13.501 L570.125,13.309 L571.675,13.129 L573.229,12.961 L574.793,12.804 L576.359,12.646 L577.926,12.496 L579.501,12.346 L581.075,12.194 L582.656,12.041 L584.233,11.877 L585.819,11.712 L587.399,11.525 L588.988,11.338 L590.57,11.118 L592.156,10.897 L593.735,10.637 L595.323,10.376 L596.901,10.062 L598.486,9.747 L600.058,9.368 L601.601,8.996 L602.007,8.883 L602.36,8.767 L602.702,8.632 L603.075,8.443 L603.564,8.079 L604.142,7.234 L604.205,5.704 L603.528,4.658 L602.976,4.286 L602.576,4.118 L602.233,4.017 L601.918,3.949 L601.603,3.894 L601.272,3.849 L600.925,3.81 L600.56,3.777 L600.171,3.748 L599.763,3.723 L599.335,3.702 L598.885,3.684 L598.418,3.669 L597.934,3.658 L597.433,3.65 L596.913,3.644 L595.854,3.643 L594.747,3.652 L593.615,3.673 L592.471,3.704 L591.326,3.745 L590.197,3.796 L589.093,3.856 L588.029,3.925 L587.02,4.004 L586.072,4.091 L585.198,4.188 L584.418,4.295 L583.175,4.49 L581.948,4.682 L580.72,4.875 L579.483,5.069 L578.247,5.275 L577.021,5.48 L575.796,5.684 L574.561,5.89 L573.327,6.108 L572.104,6.324 L570.88,6.539 L569.648,6.757 L568.417,6.984 L567.196,7.209 L565.974,7.435 L564.743,7.662 L563.514,7.899 L562.294,8.135 L561.074,8.371 L559.845,8.608 L558.619,8.854 L557.401,9.099 L556.182,9.344 L554.957,9.591 L553.733,9.845 L552.516,10.098 L551.299,10.351 L550.075,10.606 L548.853,10.868 L547.638,11.129 L546.423,11.39 L545.201,11.653 L543.981,11.923 L542.768,12.191 L541.554,12.46 L540.335,12.73 L539.118,13.006 L537.906,13.28 L536.694,13.555 L535.476,13.831 L534.26,14.113 L533.05,14.394 L531.839,14.675 L530.624,14.957 L529.41,15.245 L528.201,15.531 L526.992,15.818 L525.777,16.105 L524.377,16.445 L522.983,16.784 L521.588,17.123 L520.194,17.461 L518.799,17.8 L517.405,18.138 L516.01,18.477 L514.606,18.818 L513.205,19.171 L511.813,19.522 L510.422,19.874 L509.03,20.225 L507.638,20.576 L506.247,20.927 L504.855,21.278 L503.452,21.632 L502.053,22.001 L500.665,22.368 L499.277,22.734 L497.889,23.1 L496.501,23.466 L495.114,23.832 L493.726,24.198 L492.329,24.566 L490.936,24.946 L489.552,25.323 L488.167,25.701 L486.775,26.08 L485.386,26.468 L484.004,26.854 L482.622,27.241 L481.233,27.629 L479.846,28.027 L478.467,28.423 L477.087,28.818 L475.701,29.216 L474.317,29.623 L472.941,30.028 L471.564,30.432 L470.179,30.839 L468.798,31.256 L467.424,31.671 L466.05,32.086 L464.669,32.504 L463.29,32.932 L461.92,33.358 L460.55,33.784 L459.173,34.213 L458.182,34.529 L457.202,34.843 L456.221,35.157 L455.24,35.47 L454.259,35.784 L453.278,36.098 L452.298,36.411 L451.308,36.728 L450.321,37.054 L449.343,37.376 L448.365,37.699 L447.387,38.021 L446.41,38.344 L445.432,38.666 L444.454,38.989 L443.468,39.314 L442.484,39.648 L441.509,39.978 L440.535,40.309 L439.56,40.64 L438.585,40.971 L437.61,41.302 L436.635,41.632 L435.653,41.966 L434.673,42.306 L433.701,42.644 L432.728,42.982 L431.756,43.32 L430.783,43.658 L429.811,43.995 L428.839,44.333 L427.859,44.674 L426.881,45.022 L425.911,45.367 L424.941,45.712 L423.971,46.057 L423.001,46.402 L422.031,46.747 L421.062,47.093 L420.085,47.44 L419.11,47.795 L418.143,48.147 L417.175,48.498 L416.208,48.85 L415.24,49.202 L414.272,49.554 L413.305,49.906 L412.331,50.26 L411.36,50.62 L410.394,50.977 L409.429,51.335 L408.463,51.692 L407.498,52.05 L406.532,52.408 L405.566,52.765 L404.595,53.125 L403.625,53.49 L402.662,53.854 L401.698,54.217 L400.735,54.58 L399.771,54.943 L398.807,55.307 L397.844,55.67 L396.875,56.035 L395.908,56.406 L394.946,56.774 L393.984,57.143 L393.022,57.511 L392.061,57.88 L391.099,58.248 L390.137,58.617 L389.171,58.987 L388.206,59.361 L387.246,59.734 L386.286,60.106 L385.325,60.479 L384.365,60.852 L383.405,61.225 L382.445,61.597 L381.48,61.972 L380.517,62.35 L379.558,62.727 L378.599,63.104 L377.64,63.481 L376.682,63.858 L375.723,64.235 L374.764,64.611 L373.801,64.99 L372.84,65.372 L371.883,65.752 L370.925,66.133 L369.968,66.513 L369.01,66.894 L368.052,67.274 L367.095,67.655 L366.134,68.036 L365.175,68.421 L364.219,68.804 L363.262,69.187 L362.305,69.571 L361.349,69.954 L360.392,70.337 L359.436,70.721 L358.477,71.105 L357.518,71.492 L356.563,71.878 L355.607,72.264 L354.651,72.65 L353.696,73.036 L352.74,73.422 L351.785,73.808 L350.827,74.195 L349.87,74.583 L348.915,74.971 L347.96,75.359 L347.006,75.747 L346.051,76.135 L345.096,76.523 L344.141,76.911 L343.185,77.3 L342.229,77.69 L341.275,78.079 L340.32,78.469 L339.366,78.858 L338.412,79.248 L337.457,79.637 L336.503,80.026 L335.548,80.416 L334.593,80.807 L333.639,81.198 L332.685,81.588 L331.731,81.978 L330.777,82.369 L329.823,82.759 L328.869,83.15 L327.915,83.541 L326.961,83.932 L326.007,84.323 L325.053,84.714 L324.1,85.105 L323.146,85.496 L322.192,85.887 L321.239,86.278 L320.285,86.668 L319.332,87.059 L318.378,87.45 L317.424,87.841 L316.471,88.231 L315.517,88.622 L314.563,89.013 L313.61,89.404 L312.656,89.794 L311.702,90.185 L310.749,90.576 L309.795,90.967 L308.841,91.357 L307.888,91.748 L306.934,92.139 L305.98,92.53 L305.028,92.92 L304.076,93.308 L303.122,93.696 L302.168,94.085 L301.214,94.474 L300.259,94.863 L299.305,95.251 L298.351,95.64 L297.396,96.029 L296.442,96.418 L295.488,96.806 L294.534,97.195 L293.579,97.584 L292.625,97.973 L291.671,98.361 L290.717,98.75 L289.767,99.137 L288.815,99.52 L287.86,99.904 L286.904,100.289 L285.949,100.673 L284.993,101.058 L284.037,101.442 L283.082,101.827 L282.126,102.211 L281.171,102.596 L280.215,102.98 L279.26,103.365 L278.304,103.749 L277.349,104.134 L276.393,104.518 L275.437,104.903 L274.49,105.284 L272.936,105.898 L271.379,106.513 L269.821,107.129 L268.27,107.741 L266.715,108.343 L265.153,108.947 L263.59,109.551 L262.034,110.153 L260.473,110.746 L258.908,111.342 L257.342,111.937 L255.78,112.531 L254.216,113.12 L252.648,113.71 L251.08,114.3 L249.515,114.889 L247.948,115.474 L246.379,116.06 L244.81,116.646 L243.241,117.232 L241.672,117.817 L240.102,118.402 L238.532,118.987 L236.961,119.572 L235.391,120.16 L233.822,120.748 L232.253,121.335 L230.684,121.923 L229.116,122.51 L227.547,123.097 L225.978,123.685 L224.402,124.275 L222.83,124.877 L221.266,125.476 L219.702,126.075 L218.138,126.674 L216.574,127.273 L215.01,127.872 L213.445,128.471 L211.867,129.076 L210.298,129.703 L208.743,130.324 L207.187,130.946 L205.632,131.568 L204.077,132.189 L202.522,132.811 L200.966,133.433 L199.402,134.058 L198.383,134.479 L197.377,134.895 L196.371,135.31 L195.359,135.729 L194.349,136.154 L193.346,136.576 L192.343,136.998 L191.334,137.424 L190.327,137.855 L189.327,138.284 L188.326,138.713 L187.32,139.144 L186.317,139.581 L185.319,140.015 L184.321,140.45 L183.317,140.887 L182.316,141.33 L181.321,141.771 L180.325,142.211 L179.324,142.654 L178.326,143.103 L177.333,143.549 L176.34,143.995 L175.342,144.443 L174.347,144.897 L173.356,145.348 L172.365,145.799 L171.37,146.252 L170.376,146.711 L169.388,147.167 L168.4,147.623 L167.406,148.082 L166.416,148.545 L165.43,149.006 L164.444,149.468 L163.454,149.931 L162.466,150.398 L161.482,150.864 L160.498,151.33 L159.51,151.797 L158.524,152.269 L157.542,152.739 L156.56,153.209 L155.574,153.681 L154.59,154.156 L153.611,154.63 L152.631,155.104 L151.662,155.573 L150.761,155.996 L149.847,156.397 L148.903,156.788 L147.938,157.171 L146.954,157.548 L145.952,157.924 L144.939,158.301 L143.915,158.682 L142.895,159.072 L141.857,159.469 L140.839,159.89 L139.821,160.311 L138.799,160.769 L137.795,161.251 L136.809,161.763 L135.84,162.308 L134.891,162.896 L133.974,163.527 L133.085,164.204 L132.23,164.939 L131.422,165.729 L130.658,166.576 L129.946,167.494 L129.323,168.436 L129.089,168.855 L128.91,169.275 L128.781,169.717 L128.707,170.188 L128.703,170.694 L128.779,171.185 L128.928,171.655 L129.148,172.094 L129.408,172.466 L129.695,172.784 L130.007,173.06 L130.384,173.328 L130.962,173.65 L131.636,173.928 L132.325,174.141 L133.036,174.312 L133.779,174.448 L134.542,174.554 L135.324,174.637 L136.125,174.698 L136.932,174.74 L137.742,174.766 L138.55,174.777 L139.358,174.775 L140.876,174.742 L142.279,174.678 L143.479,174.598 L144.641,174.5 L145.785,174.404 L146.928,174.307 L148.089,174.209 L149.248,174.093 L150.39,173.978 L151.532,173.863 L152.689,173.746 L153.845,173.612 L154.985,173.48 L156.126,173.348 L157.279,173.214 L158.43,173.067 L159.569,172.92 L160.708,172.774 L161.859,172.626 L163.009,172.464 L164.146,172.304 L165.284,172.144 L166.432,171.982 L167.579,171.808 L168.715,171.635 L169.851,171.462 L170.995,171.288 L172.139,171.104 L173.273,170.922 L174.408,170.739 L175.551,170.555 L176.692,170.361 L177.825,170.169 L178.958,169.977 L180.098,169.784 L181.237,169.583 L182.369,169.383 L183.501,169.183 L184.638,168.982 L185.773,168.775 L186.904,168.569 L188.035,168.363 L189.17,168.156 L190.303,167.945 L191.433,167.734 L192.562,167.523 L193.694,167.312 L194.826,167.097 L195.954,166.883 L197.082,166.669 L198.216,166.454 L199.863,166.133 L201.507,165.813 L203.15,165.493 L204.801,165.171 L206.449,164.835 L208.09,164.502 L209.73,164.168 L211.378,163.833 L213.023,163.487 L214.661,163.142 L216.299,162.797 L217.942,162.451 L219.584,162.096 L221.22,161.742 L222.857,161.388 L224.498,161.034 L226.137,160.671 L227.772,160.309 L229.406,159.948 L231.045,159.585 L232.682,159.217 L234.315,158.849 L235.949,158.481 L237.585,158.113 L239.221,157.74 L240.853,157.367 L242.486,156.994 L244.118,156.621 L245.751,156.249 L247.383,155.876 L249.016,155.503 L250.649,155.13 L252.282,154.756 L253.914,154.382 L255.546,154.007 L257.178,153.633 L258.811,153.259 L260.443,152.884 L262.075,152.51 L263.703,152.136 L265.333,151.769 L266.967,151.401 L268.6,151.033 L270.233,150.665 L271.867,150.297 L273.5,149.929 L275.133,149.561 L276.765,149.194 L278.387,148.832 L280.011,148.47 L281.636,148.109 L283.26,147.747 L284.885,147.385 L286.509,147.023 L288.134,146.661 L289.758,146.299 L291.383,145.937 L293.007,145.576 L294.632,145.214 L296.256,144.852 L297.881,144.49 L299.505,144.128 L301.13,143.766 L302.756,143.404 L304.381,143.04 L306.005,142.675 L307.629,142.311 L309.253,141.947 L310.877,141.582 L312.501,141.218 L314.125,140.854 L315.749,140.489 L317.373,140.125 L318.997,139.761 L320.621,139.397 L322.245,139.034 L323.869,138.67 L325.493,138.307 L327.117,137.943 L328.743,137.579 L330.368,137.212 L331.992,136.846 L333.615,136.48 L335.239,136.113 L336.862,135.747 L338.486,135.38 L340.109,135.014 L341.733,134.648 L343.356,134.281 L344.979,133.915 L346.603,133.548 L348.227,133.182 L349.85,132.815 L351.474,132.449 L353.097,132.083 L354.722,131.716 L356.347,131.346 L357.969,130.976 L359.592,130.607 L361.215,130.238 L362.838,129.868 L364.461,129.499 L366.083,129.129 L367.706,128.76 L369.329,128.391 L370.952,128.021 L372.575,127.652 L374.198,127.283 L375.82,126.913 L377.443,126.544 L379.066,126.174 L380.691,125.805 L382.315,125.431 L383.937,125.058 L385.559,124.685 L387.181,124.312 L388.803,123.939 L390.425,123.566 L392.047,123.193 L393.669,122.82 L395.291,122.447 L396.912,122.073 L398.534,121.7 L400.156,121.327 L401.778,120.954 L403.4,120.581 L405.022,120.208 L406.646,119.835 L408.27,119.457 L409.891,119.079 L411.512,118.702 L413.133,118.326 L414.754,117.949 L416.375,117.572 L417.996,117.195 L419.617,116.818 L421.238,116.441 L422.859,116.064 L424.48,115.688 L426.102,115.311 L427.723,114.934 L429.344,114.557 L430.965,114.18 L432.586,113.803 L433.297,113.638 L434.062,113.46 L434.878,113.271 L435.739,113.073 L436.644,112.865 L437.589,112.648 L438.569,112.424 L439.581,112.192 L440.623,111.954 L441.689,111.71 L442.777,111.462 L443.883,111.209 L445.008,110.952 L446.133,110.696 L447.274,110.435 L448.414,110.174 L449.554,109.914 L450.694,109.653 L451.821,109.394 L452.947,109.136 L454.045,108.884 L455.143,108.631 L456.196,108.388 L457.249,108.144 L458.263,107.908 L459.245,107.679 L460.19,107.458 L461.097,107.244 L461.962,107.039 L462.778,106.845 L463.548,106.66 L464.263,106.487 L464.921,106.326 L465.522,106.177 L466.06,106.041 L466.53,105.919 L466.938,105.81 L467.281,105.713 L467.566,105.627 L467.764,105.558 L468.021,105.445 L468.022,105.445 L468.022,105.444 L468.023,105.444 L468.024,105.443 L468.025,105.443 L468.027,105.442 L468.029,105.441 L468.031,105.44 L468.033,105.438 L468.036,105.437 L468.039,105.435 L468.042,105.434 L468.045,105.432 L468.049,105.43 L468.053,105.428 L468.075,105.416 L468.119,105.391 L468.17,105.36 L468.228,105.323 L468.297,105.274 L468.377,105.212 L468.472,105.127 L468.586,105.01 L468.717,104.844 L468.859,104.604 L468.987,104.264 L469.05,103.816 L468.987,103.312 L468.797,102.856 L468.544,102.52 L468.296,102.302 L468.184,102.226 L468.183,102.225 L468.181,102.224 L468.18,102.223 L468.179,102.223 L468.178,102.222 L468.177,102.221 L468.176,102.221 L468.175,102.22 L468.174,102.22 L468.174,102.219 L468.173,102.219 L468.173,102.219 L468.172,102.219 L468.172,102.218 L468.172,102.218 L467.245,101.939 L467.107,101.938 L466.935,101.948 L466.786,101.962 L466.635,101.981 L466.466,102.004 L466.28,102.032 L466.072,102.064 L465.84,102.102 L465.583,102.146 L465.301,102.195 L464.992,102.25 L464.647,102.312 L463.488,102.529 L462.333,102.746 L461.177,102.962 L460.01,103.181 L458.846,103.414 L457.693,103.645 L456.541,103.876 L455.377,104.109 L454.217,104.356 L453.067,104.6 L451.917,104.845 L450.758,105.091 L449.601,105.35 L448.454,105.606 L447.307,105.862 L446.15,106.121 L444.995,106.392 L443.851,106.66 L442.706,106.929 L441.552,107.2 L440.401,107.482 L439.259,107.763 L438.117,108.043 L436.967,108.326 L435.819,108.618 L434.68,108.909 L433.54,109.2 L432.392,109.492 L431.247,109.796 L430.11,110.1 L428.973,110.403 L427.829,110.709 L426.687,111.024 L425.552,111.338 L424.418,111.651 L423.277,111.966 L422.138,112.29 L421.006,112.612 L419.873,112.934 L418.734,113.258 L417.598,113.591 L416.468,113.922 L415.337,114.253 L414.201,114.585 L413.067,114.926 L411.939,115.265 L410.811,115.604 L409.678,115.944 L408.547,116.292 L407.42,116.638 L406.294,116.984 L405.163,117.331 L404.033,117.686 L402.909,118.039 L401.785,118.392 L400.656,118.746 L399.529,119.107 L398.406,119.467 L397.284,119.826 L396.158,120.187 L395.033,120.552 L393.912,120.917 L392.791,121.282 L391.667,121.648 L390.544,122.019 L389.425,122.389 L388.306,122.759 L387.183,123.13 L386.062,123.505 L384.944,123.878 L383.826,124.252 L382.704,124.626 L381.585,125.006 L380.469,125.385 L379.353,125.764 L378.237,126.142 L377.121,126.521 L376.005,126.9 L374.889,127.279 L373.769,127.659 L372.652,128.045 L371.538,128.429 L370.425,128.814 L369.312,129.198 L368.199,129.583 L367.086,129.967 L365.972,130.352 L364.857,130.737 L363.743,131.126 L362.632,131.513 L361.521,131.901 L360.41,132.289 L359.299,132.676 L358.188,133.064 L357.078,133.452 L355.968,133.839 L354.592,134.317 L353.216,134.796 L351.84,135.275 L350.464,135.753 L349.089,136.232 L347.713,136.71 L346.336,137.189 L344.962,137.667 L343.586,138.142 L342.209,138.618 L340.832,139.094 L339.455,139.569 L338.077,140.044 L336.7,140.519 L335.323,140.995 L333.944,141.47 L332.566,141.949 L331.19,142.428 L329.814,142.906 L328.437,143.385 L327.061,143.863 L325.685,144.342 L324.309,144.82 L322.929,145.3 L321.551,145.787 L320.178,146.273 L318.804,146.759 L317.431,147.245 L316.058,147.731 L314.684,148.217 L313.311,148.703 L311.93,149.191 L310.554,149.693 L309.186,150.192 L307.818,150.691 L306.449,151.19 L305.081,151.689 L303.712,152.188 L302.344,152.687 L300.965,153.19 L299.593,153.712 L298.232,154.23 L296.87,154.748 L295.509,155.265 L294.147,155.783 L292.785,156.3 L291.424,156.818 L290.066,157.334 L289.074,157.703 L288.096,158.067 L287.097,158.408 L286.095,158.749 L285.075,159.071 L284.051,159.395 L283.014,159.704 L281.975,160.013 L280.924,160.31 L279.87,160.608 L278.808,160.898 L277.744,161.188 L276.673,161.474 L275.599,161.762 L274.525,162.049 L273.446,162.337 L272.37,162.631 L271.298,162.924 L270.226,163.217 L269.136,163.515 L268.062,163.836 L267.005,164.152 L265.949,164.468 L264.874,164.79 L263.816,165.137 L262.759,165.483 L261.719,165.853 L260.675,166.224 L259.652,166.622 L258.628,167.021 L257.625,167.449 L256.617,167.879 L255.635,168.345 L254.65,168.813 L253.694,169.321 L252.747,169.825 L251.803,170.368 L250.882,170.932 L249.979,171.521 L249.093,172.133 L248.223,172.775 L247.375,173.443 L246.545,174.139 L245.736,174.866 L244.951,175.624 L244.188,176.411 L243.448,177.233 L242.735,178.089 L242.364,178.593 L242.052,179.124 L241.812,179.669 L241.642,180.232 L241.552,180.818 L241.548,181.395 L241.622,181.96 L241.776,182.51 L241.995,183.019 L242.265,183.494 L242.587,183.942 L242.946,184.354 L243.337,184.742 L243.765,185.109 L244.22,185.454 L244.7,185.783 L245.211,186.098 L245.744,186.399 L246.3,186.688 L246.88,186.967 L247.48,187.234 L248.099,187.492 L248.737,187.741 L249.404,187.985 L250.739,188.434 L252.139,188.854 L253.569,189.239 L255.018,189.594 L256.475,189.916 L257.92,190.204 L259.343,190.463 L260.729,190.688 L262.061,190.881 L263.33,191.043 L264.52,191.171 L265.613,191.266 L266.773,191.341 L267.936,191.415 L269.099,191.462 L270.261,191.508 L271.423,191.528 L272.582,191.548 L273.741,191.545 L274.901,191.542 L276.06,191.516 L277.219,191.49 L278.377,191.443 L279.533,191.396 L280.689,191.331 L281.845,191.266 L283.001,191.182 L284.156,191.099 L285.311,191 L286.463,190.901 L287.616,190.789 L288.768,190.676 L289.92,190.551 L291.071,190.425 L292.222,190.289 L293.374,190.153 L294.525,190.004 L295.668,189.856 L296.812,189.708 L297.963,189.559 L299.114,189.398 L300.257,189.237 L301.4,189.077 L302.546,188.916 L303.692,188.75 L304.834,188.584 L305.976,188.418 L307.118,188.253 L308.259,188.088 L309.401,187.923 L310.542,187.758 L311.679,187.594 L312.815,187.437 L313.956,187.28 L315.097,187.122 L316.228,186.966 L317.359,186.825 L318.499,186.682 L319.639,186.539 L320.774,186.397 L321.816,186.273 L322.862,186.149 L323.908,186.024 L324.957,185.9 L326.02,185.77 L327.081,185.64 L328.141,185.511 L329.205,185.381 L330.281,185.246 L331.355,185.112 L332.429,184.977 L333.505,184.842 L334.592,184.703 L335.677,184.563 L336.762,184.424 L337.849,184.284 L338.947,184.14 L340.043,183.995 L341.138,183.85 L342.236,183.706 L343.343,183.555 L344.448,183.405 L345.552,183.256 L346.659,183.105 L347.774,182.95 L348.885,182.795 L349.997,182.641 L351.112,182.485 L352.233,182.325 L353.351,182.164 L354.469,182.004 L355.591,181.843 L356.717,181.677 L357.841,181.511 L358.964,181.345 L360.09,181.179 L361.22,181.008 L362.347,180.837 L363.474,180.666 L364.604,180.494 L365.737,180.317 L366.867,180.14 L367.996,179.964 L369.129,179.787 L370.264,179.604 L371.394,179.422 L372.525,179.24 L373.659,179.057 L374.793,178.869 L375.923,178.681 L377.054,178.493 L378.188,178.305 L379.322,178.111 L380.451,177.917 L381.58,177.724 L382.713,177.529 L383.844,177.329 L384.97,177.129 L386.096,176.93 L387.226,176.73 L388.353,176.524 L389.475,176.318 L390.598,176.113 L391.725,175.907 L392.847,175.695 L393.964,175.484 L395.081,175.272 L396.203,175.06 L397.318,174.842 L398.428,174.624 L399.538,174.406 L400.653,174.188 L401.761,173.963 L402.864,173.74 L403.966,173.517 L405.075,173.292 L406.174,173.061 L407.267,172.831 L408.36,172.602 L409.46,172.371 L410.548,172.133 L411.63,171.897 L412.713,171.66 L413.801,171.423 L414.878,171.179 L415.95,170.937 L417.021,170.695 L418.099,170.451 L419.164,170.201 L420.222,169.952 L421.28,169.703 L422.345,169.452 L423.395,169.195 L424.438,168.939 L425.482,168.683 L426.528,168.427 L426.939,168.323 L427.375,168.208 L427.836,168.083 L428.319,167.95 L428.825,167.807 L429.355,167.656 L430.456,167.334 L431.621,166.985 L432.83,166.615 L434.067,166.23 L435.318,165.833 L436.566,165.431 L437.798,165.028 L438.998,164.628 L440.148,164.238 L441.24,163.861 L442.252,163.502 L443.165,163.169 L443.591,163.009 L443.985,162.858 L444.348,162.715 L444.684,162.58 L444.989,162.451 L445.262,162.329 L445.51,162.212 L445.742,162.09 L445.975,161.947 L446.138,161.823 L446.49,161.428 L446.49,161.428 L446.49,161.427 L446.491,161.427 L446.491,161.426 L446.492,161.425 L446.492,161.424 L446.493,161.423 L446.494,161.421 L446.495,161.419 L446.496,161.418 L446.497,161.416 L446.499,161.413 L446.5,161.411 L446.502,161.408 L446.504,161.406 L446.521,161.376 L446.555,161.315 L446.589,161.248 L446.622,161.173 L446.653,161.089 L446.682,160.997 L446.706,160.896 L446.725,160.786 L446.736,160.668 L446.737,160.542 L446.728,160.412 L446.708,160.279 L446.675,160.147 L446.63,160.018 L446.576,159.896 L446.513,159.782 L446.478,159.728 L446.477,159.726 L446.476,159.724 L446.475,159.722 L446.474,159.721 L446.473,159.719 L446.472,159.718 L446.471,159.717 L446.471,159.716 L446.47,159.715 L446.469,159.714 L446.469,159.714 L446.469,159.713 L446.469,159.713 L446.468,159.713 L446.468,159.712 L445.598,159.088 L445.302,159.027 L444.957,159.016 L444.674,159.037 L444.38,159.074 L444.045,159.128 L443.657,159.2 L441.927,159.543 L440.192,159.886 L438.461,160.247 L436.73,160.608 L435.003,160.986 L433.276,161.363 L431.553,161.756 L429.829,162.149 L428.108,162.558 L426.388,162.967 L424.671,163.391 L422.955,163.815 L421.242,164.253 L419.529,164.691 L417.819,165.144 L416.109,165.597 L414.403,166.064 L412.698,166.531 L410.995,167.011 L409.292,167.49 L407.593,167.983 L405.894,168.476 L404.199,168.982 L402.504,169.487 L400.812,170.004 L399.12,170.521 L397.432,171.05 L395.744,171.579 L394.059,172.119 L392.375,172.659 L390.694,173.209 L389.013,173.76 L387.335,174.321 L385.658,174.881 L383.984,175.452 L382.309,176.024 L380.639,176.608 L378.975,177.191 L377.31,177.773 L375.638,178.359 L373.973,178.962 L372.316,179.562 L370.658,180.162 L368.994,180.765 L367.337,181.383 L365.687,181.999 L364.037,182.615 L362.377,183.234 L360.762,183.864 L359.158,184.527 L357.572,185.216 L355.998,185.924 L354.435,186.65 L352.882,187.387 L351.339,188.133 L349.8,188.877 L348.261,189.621 L346.731,190.361 L345.194,191.082 L343.647,191.807 C342.887,192.164 342.56,193.069 342.917,193.829 C343.273,194.589 344.178,194.916 344.938,194.56 L346.484,193.835 L348.039,193.106 L349.585,192.357 L351.123,191.613 L352.661,190.87 L354.195,190.128 L355.727,189.401 L357.262,188.688 L358.801,187.995 L360.344,187.325 L361.894,186.683 L363.46,186.073 L365.099,185.461 L366.75,184.845 L368.4,184.23 L370.042,183.616 L371.693,183.018 L373.35,182.418 L375.007,181.818 L376.657,181.22 L378.314,180.641 L379.978,180.058 L381.643,179.475 L383.301,178.895 L384.965,178.327 L386.63,177.759 L388.299,177.201 L389.967,176.643 L391.639,176.095 L393.311,175.548 L394.987,175.01 L396.661,174.473 L398.34,173.947 L400.018,173.421 L401.699,172.907 L403.381,172.393 L405.067,171.891 L406.751,171.388 L408.439,170.898 L410.127,170.409 L411.818,169.932 L413.51,169.456 L415.204,168.992 L416.899,168.528 L418.596,168.078 L420.293,167.628 L421.994,167.193 L423.695,166.758 L425.4,166.337 L427.103,165.915 L428.81,165.51 L430.517,165.104 L432.227,164.714 L433.938,164.324 L435.651,163.949 L437.364,163.575 L439.08,163.217 L440.796,162.859 L442.516,162.518 L444.24,162.177 L444.565,162.117 L444.818,162.076 L444.991,162.054 L445.069,162.047 L444.971,162.042 L444.814,162.018 L443.944,161.394 L443.944,161.394 L443.944,161.394 L443.944,161.394 L443.944,161.395 L443.945,161.396 L443.945,161.396 L443.946,161.397 L443.947,161.398 L443.947,161.399 L443.948,161.401 L443.949,161.402 L443.95,161.404 L443.951,161.405 L443.952,161.407 L443.954,161.409 L443.922,161.359 L443.861,161.249 L443.809,161.131 L443.766,161.007 L443.734,160.879 L443.714,160.751 L443.705,160.625 L443.707,160.505 L443.717,160.391 L443.735,160.286 L443.758,160.19 L443.785,160.103 L443.814,160.026 L443.845,159.956 L443.876,159.894 L443.906,159.839 L443.921,159.815 L443.919,159.818 L443.917,159.821 L443.916,159.823 L443.915,159.825 L443.913,159.827 L443.912,159.829 L443.911,159.831 L443.91,159.832 L443.909,159.834 L443.909,159.835 L443.908,159.836 L443.908,159.836 L443.907,159.837 L443.907,159.837 L443.907,159.837 L444.259,159.442 L444.268,159.44 L444.26,159.444 L444.164,159.494 L443.999,159.572 L443.785,159.667 L443.526,159.776 L443.224,159.898 L442.888,160.031 L442.517,160.173 L442.117,160.323 L441.226,160.648 L440.238,160.998 L439.166,161.369 L438.032,161.754 L436.848,162.148 L435.63,162.547 L434.395,162.945 L433.158,163.337 L431.936,163.717 L430.742,164.083 L429.595,164.427 L428.509,164.744 L427.997,164.891 L427.505,165.029 L427.037,165.159 L426.593,165.278 L426.179,165.387 L425.8,165.484 L424.76,165.739 L423.717,165.995 L422.673,166.25 L421.637,166.504 L420.586,166.752 L419.527,167.001 L418.469,167.25 L417.418,167.497 L416.353,167.738 L415.281,167.981 L414.209,168.223 L413.144,168.464 L412.067,168.699 L410.984,168.936 L409.901,169.172 L408.825,169.407 L407.737,169.636 L406.644,169.866 L405.55,170.095 L404.462,170.324 L403.365,170.547 L402.262,170.77 L401.159,170.993 L400.061,171.216 L398.955,171.433 L397.845,171.65 L396.735,171.868 L395.63,172.085 L394.517,172.295 L393.4,172.507 L392.283,172.718 L391.171,172.929 L390.053,173.133 L388.931,173.338 L387.808,173.544 L386.69,173.748 L385.567,173.947 L384.441,174.147 L383.315,174.346 L382.193,174.545 L381.068,174.738 L379.939,174.932 L378.81,175.125 L377.685,175.318 L376.558,175.505 L375.428,175.693 L374.297,175.881 L373.17,176.068 L372.043,176.25 L370.912,176.432 L369.781,176.614 L368.655,176.796 L367.529,176.972 L366.399,177.149 L365.27,177.325 L364.144,177.501 L363.02,177.671 L361.893,177.842 L360.766,178.012 L359.642,178.182 L358.522,178.347 L357.398,178.513 L356.275,178.678 L355.155,178.843 L354.04,179.003 L352.921,179.163 L351.803,179.323 L350.688,179.482 L349.579,179.636 L348.467,179.791 L347.356,179.945 L346.247,180.099 L345.145,180.248 L344.04,180.398 L342.936,180.547 L341.834,180.696 L340.741,180.84 L339.646,180.984 L338.55,181.128 L337.458,181.272 L336.375,181.411 L335.291,181.55 L334.206,181.689 L333.123,181.827 L332.052,181.961 L330.978,182.095 L329.904,182.23 L328.832,182.364 L327.774,182.492 L326.713,182.622 L325.652,182.751 L324.593,182.879 L323.549,183.003 L322.503,183.127 L321.457,183.251 L320.406,183.376 L319.261,183.519 L318.121,183.661 L316.981,183.803 L315.832,183.947 L314.681,184.105 L313.54,184.261 L312.399,184.418 L311.254,184.576 L310.107,184.74 L308.966,184.905 L307.824,185.069 L306.682,185.233 L305.539,185.398 L304.397,185.563 L303.254,185.728 L302.115,185.893 L300.976,186.052 L299.833,186.212 L298.69,186.372 L297.556,186.53 L296.421,186.676 L295.277,186.823 L294.134,186.97 L292.999,187.116 L291.863,187.25 L290.727,187.384 L289.59,187.507 L288.455,187.63 L287.319,187.74 L286.184,187.85 L285.049,187.947 L283.915,188.044 L282.782,188.125 L281.65,188.206 L280.517,188.269 L279.385,188.332 L278.253,188.377 L277.123,188.423 L275.992,188.448 L274.864,188.472 L273.734,188.474 L272.605,188.476 L271.476,188.456 L270.349,188.436 L269.222,188.391 L268.097,188.345 L266.971,188.272 L265.844,188.199 L264.82,188.11 L263.692,187.987 L262.477,187.832 L261.198,187.646 L259.867,187.429 L258.498,187.179 L257.11,186.901 L255.718,186.593 L254.337,186.254 L252.983,185.888 L251.674,185.495 L250.413,185.07 L249.828,184.855 L249.254,184.631 L248.703,184.4 L248.176,184.166 L247.68,183.927 L247.214,183.684 L246.78,183.439 L246.384,183.194 L246.025,182.948 L245.703,182.705 L245.429,182.469 L245.196,182.238 L245.005,182.02 L244.863,181.823 L244.759,181.639 L244.688,181.476 L244.649,181.339 L244.632,181.203 L244.632,181.067 L244.654,180.925 L244.709,180.747 L244.801,180.538 L244.94,180.302 L245.146,180.024 L245.785,179.258 L246.448,178.523 L247.135,177.814 L247.844,177.131 L248.573,176.476 L249.327,175.846 L250.099,175.237 L250.891,174.654 L251.705,174.093 L252.536,173.551 L253.385,173.032 L254.247,172.537 L255.148,172.059 L256.041,171.585 L256.964,171.149 L257.89,170.71 L258.842,170.306 L259.8,169.898 L260.779,169.518 L261.758,169.138 L262.759,168.784 L263.762,168.428 L264.783,168.095 L265.803,167.762 L266.84,167.453 L267.897,167.139 L268.953,166.824 L269.992,166.514 L271.047,166.228 L272.119,165.936 L273.192,165.644 L274.26,165.354 L275.33,165.069 L276.405,164.783 L277.479,164.497 L278.558,164.21 L279.631,163.919 L280.707,163.626 L281.775,163.326 L282.847,163.024 L283.907,162.71 L284.969,162.395 L286.019,162.065 L287.073,161.733 L288.109,161.381 L289.149,161.028 L290.169,160.65 L291.174,160.277 L292.54,159.76 L293.902,159.244 L295.264,158.728 L296.627,158.212 L297.989,157.696 L299.351,157.18 L300.714,156.665 L302.066,156.153 L303.425,155.661 L304.794,155.164 L306.164,154.667 L307.533,154.171 L308.902,153.674 L310.272,153.178 L311.641,152.681 L313.003,152.187 L314.37,151.706 L315.745,151.223 L317.119,150.74 L318.493,150.256 L319.868,149.773 L321.242,149.289 L322.616,148.806 L323.986,148.324 L325.359,147.85 L326.736,147.374 L328.113,146.898 L329.49,146.422 L330.867,145.946 L332.244,145.47 L333.621,144.994 L334.996,144.519 L336.373,144.047 L337.751,143.574 L339.129,143.101 L340.507,142.629 L341.885,142.156 L343.264,141.683 L344.642,141.211 L346.022,140.739 L347.401,140.264 L348.778,139.79 L350.156,139.316 L351.533,138.842 L352.911,138.367 L354.288,137.893 L355.666,137.419 L357.044,136.944 L358.157,136.56 L359.269,136.175 L360.381,135.791 L361.493,135.407 L362.605,135.022 L363.717,134.638 L364.829,134.254 L365.939,133.87 L367.051,133.49 L368.165,133.109 L369.28,132.728 L370.394,132.347 L371.509,131.966 L372.623,131.585 L373.737,131.204 L374.848,130.824 L375.96,130.451 L377.077,130.075 L378.194,129.7 L379.312,129.325 L380.429,128.95 L381.546,128.574 L382.663,128.199 L383.776,127.825 L384.891,127.457 L386.01,127.087 L387.129,126.717 L388.245,126.348 L389.363,125.985 L390.484,125.621 L391.605,125.257 L392.722,124.894 L393.841,124.536 L394.964,124.177 L396.086,123.818 L397.205,123.461 L398.326,123.108 L399.45,122.755 L400.574,122.401 L401.694,122.049 L402.815,121.703 L403.941,121.356 L405.067,121.009 L406.188,120.663 L407.311,120.325 L408.439,119.984 L409.567,119.644 L410.69,119.306 L411.814,118.974 L412.944,118.641 L414.074,118.307 L415.198,117.976 L416.323,117.653 L417.455,117.328 L418.587,117.003 L419.712,116.68 L420.84,116.365 L421.974,116.049 L423.108,115.733 L424.235,115.419 L425.365,115.113 L426.501,114.805 L427.637,114.497 L428.765,114.192 L429.896,113.896 L431.034,113.599 L432.173,113.301 L433.302,113.004 L434.434,112.717 L435.575,112.428 L436.715,112.138 L437.847,111.851 L438.982,111.574 L440.124,111.295 L441.267,111.016 L442.4,110.739 L443.536,110.474 L444.681,110.206 L445.826,109.939 L446.961,109.674 L448.099,109.421 L449.247,109.166 L450.395,108.912 L451.533,108.659 L452.674,108.418 L453.825,108.174 L454.975,107.931 L456.115,107.691 L457.257,107.463 L458.41,107.234 L459.563,107.004 L460.705,106.777 L461.85,106.563 L463.006,106.348 L464.162,106.133 L465.315,105.918 L465.635,105.861 L465.933,105.808 L466.201,105.762 L466.442,105.722 L466.653,105.687 L466.834,105.659 L466.987,105.636 L467.106,105.62 L467.19,105.61 L467.232,105.606 L467.199,105.607 L467.152,105.609 L466.225,105.329 L466.225,105.33 L466.225,105.33 L466.225,105.33 L466.226,105.33 L466.226,105.33 L466.227,105.331 L466.227,105.331 L466.228,105.332 L466.229,105.332 L466.23,105.333 L466.231,105.334 L466.232,105.334 L466.234,105.335 L466.235,105.336 L466.237,105.337 L466.128,105.263 L465.882,105.047 L465.631,104.713 L465.442,104.26 L465.38,103.759 L465.442,103.313 L465.569,102.976 L465.71,102.739 L465.838,102.576 L465.948,102.463 L466.039,102.382 L466.115,102.323 L466.178,102.278 L466.23,102.245 L466.274,102.218 L466.31,102.198 L466.324,102.19 L466.32,102.192 L466.317,102.194 L466.313,102.196 L466.31,102.197 L466.307,102.199 L466.305,102.2 L466.302,102.202 L466.3,102.203 L466.298,102.204 L466.297,102.205 L466.296,102.205 L466.295,102.206 L466.294,102.206 L466.293,102.206 L466.293,102.207 L466.551,102.094 L466.438,102.133 L466.258,102.188 L465.973,102.268 L465.599,102.367 L465.152,102.482 L464.632,102.613 L464.043,102.758 L463.396,102.916 L462.689,103.086 L461.925,103.269 L461.114,103.461 L460.255,103.663 L459.35,103.875 L458.409,104.094 L457.43,104.322 L456.418,104.556 L455.367,104.798 L454.316,105.041 L453.219,105.293 L452.123,105.545 L450.998,105.803 L449.872,106.061 L448.733,106.321 L447.593,106.581 L446.453,106.842 L445.313,107.102 L444.188,107.358 L443.063,107.615 L441.957,107.867 L440.868,108.116 L439.802,108.359 L438.76,108.597 L437.746,108.829 L436.766,109.053 L435.818,109.27 L434.912,109.479 L434.049,109.677 L433.23,109.866 L432.462,110.044 L431.751,110.21 L430.13,110.587 L428.509,110.963 L426.887,111.34 L425.266,111.716 L423.645,112.093 L422.024,112.469 L420.403,112.846 L418.782,113.222 L417.161,113.598 L415.539,113.975 L413.918,114.351 L412.297,114.728 L410.676,115.104 L409.055,115.481 L407.433,115.857 L405.814,116.232 L404.195,116.604 L402.572,116.976 L400.95,117.348 L399.328,117.719 L397.706,118.091 L396.083,118.463 L394.461,118.835 L392.839,119.207 L391.217,119.579 L389.594,119.951 L387.972,120.323 L386.35,120.695 L384.728,121.067 L383.106,121.438 L381.483,121.81 L379.863,122.182 L378.242,122.55 L376.619,122.918 L374.996,123.286 L373.373,123.654 L371.75,124.022 L370.127,124.39 L368.504,124.759 L366.881,125.127 L365.258,125.495 L363.635,125.863 L362.011,126.231 L360.388,126.599 L358.765,126.967 L357.142,127.336 L355.519,127.704 L353.898,128.071 L352.276,128.436 L350.652,128.801 L349.028,129.166 L347.404,129.531 L345.78,129.896 L344.157,130.261 L342.533,130.627 L340.909,130.992 L339.285,131.357 L337.662,131.722 L336.038,132.087 L334.414,132.452 L332.79,132.817 L331.166,133.182 L329.542,133.547 L327.92,133.912 L326.298,134.274 L324.673,134.636 L323.049,134.998 L321.424,135.36 L319.8,135.722 L318.175,136.084 L316.551,136.446 L314.926,136.807 L313.302,137.168 L311.677,137.53 L310.052,137.891 L308.428,138.253 L306.803,138.614 L305.178,138.975 L303.554,139.337 L301.931,139.698 L300.307,140.056 L298.682,140.415 L297.057,140.774 L295.431,141.133 L293.806,141.492 L292.181,141.851 L290.556,142.21 L288.931,142.569 L287.306,142.927 L285.681,143.286 L284.055,143.645 L282.43,144.004 L280.805,144.363 L279.18,144.722 L277.555,145.081 L275.927,145.44 L274.291,145.806 L272.657,146.171 L271.023,146.536 L269.389,146.901 L267.755,147.266 L266.121,147.631 L264.487,147.996 L262.849,148.362 L261.213,148.734 L259.58,149.105 L257.947,149.477 L256.314,149.848 L254.681,150.219 L253.048,150.591 L251.416,150.962 L249.784,151.333 L248.151,151.703 L246.518,152.072 L244.885,152.442 L243.252,152.812 L241.619,153.182 L239.986,153.551 L238.353,153.921 L236.722,154.29 L235.091,154.654 L233.457,155.019 L231.823,155.383 L230.192,155.747 L228.56,156.105 L226.925,156.464 L225.289,156.823 L223.659,157.18 L222.026,157.53 L220.389,157.881 L218.752,158.232 L217.12,158.581 L215.487,158.922 L213.848,159.264 L212.209,159.606 L210.577,159.947 L208.943,160.276 L207.302,160.606 L205.66,160.937 L204.027,161.266 L202.391,161.582 L200.748,161.899 L199.104,162.216 L197.464,162.533 L196.341,162.744 L195.212,162.956 L194.084,163.168 L192.958,163.379 L191.831,163.587 L190.701,163.796 L189.572,164.005 L188.446,164.213 L187.319,164.416 L186.188,164.619 L185.057,164.823 L183.932,165.026 L182.804,165.223 L181.672,165.421 L180.54,165.619 L179.415,165.816 L178.288,166.005 L177.155,166.195 L176.021,166.386 L174.896,166.574 L173.77,166.754 L172.635,166.935 L171.5,167.115 L170.374,167.295 L169.246,167.464 L168.11,167.635 L166.974,167.806 L165.849,167.975 L164.722,168.132 L163.584,168.29 L162.447,168.448 L161.321,168.605 L160.194,168.748 L159.055,168.892 L157.916,169.036 L156.789,169.179 L155.661,169.308 L154.52,169.438 L153.38,169.568 L152.254,169.697 L151.127,169.808 L149.984,169.921 L148.842,170.034 L147.716,170.146 L146.589,170.239 L145.445,170.334 L144.301,170.428 L143.175,170.521 L142.056,170.594 L140.744,170.652 L139.299,170.681 L138.576,170.681 L137.839,170.67 L137.106,170.645 L136.388,170.607 L135.698,170.553 L135.042,170.483 L134.431,170.397 L133.883,170.296 L133.406,170.181 L133.015,170.061 L132.743,169.95 L132.527,169.824 L132.564,169.846 L132.58,169.86 L132.617,169.901 L132.671,169.98 L132.735,170.109 L132.78,170.25 L132.802,170.397 L132.801,170.539 L132.788,170.628 L132.776,170.67 L132.776,170.671 L132.787,170.649 L133.287,169.89 L133.811,169.218 L134.388,168.581 L135.009,167.975 L135.673,167.407 L136.387,166.865 L137.142,166.347 L137.934,165.858 L138.768,165.39 L139.635,164.941 L140.531,164.513 L141.45,164.103 L142.416,163.705 L143.381,163.307 L144.367,162.932 L145.37,162.55 L146.378,162.177 L147.397,161.8 L148.418,161.418 L149.44,161.028 L150.457,160.626 L151.468,160.208 L152.471,159.77 L153.443,159.315 L154.434,158.838 L155.414,158.365 L156.395,157.893 L157.371,157.422 L158.35,156.955 L159.332,156.487 L160.315,156.018 L161.293,155.551 L162.273,155.089 L163.258,154.625 L164.243,154.161 L165.223,153.698 L166.206,153.24 L167.193,152.78 L168.179,152.32 L169.161,151.862 L170.145,151.409 L171.134,150.954 L172.123,150.498 L173.107,150.045 L174.093,149.597 L175.084,149.147 L176.075,148.696 L177.062,148.248 L178.05,147.805 L179.043,147.36 L180.037,146.914 L181.025,146.471 L182.015,146.034 L183.011,145.595 L184.007,145.155 L184.997,144.718 L185.99,144.287 L186.988,143.853 L187.986,143.419 L188.979,142.988 L189.974,142.562 L190.975,142.134 L191.976,141.706 L192.971,141.281 L193.968,140.862 L194.971,140.44 L195.975,140.019 L196.972,139.6 L197.971,139.188 L198.978,138.773 L199.984,138.359 L200.976,137.949 L202.523,137.333 L204.079,136.712 L205.635,136.092 L207.191,135.471 L208.746,134.851 L210.302,134.231 L211.858,133.61 L213.4,132.995 L214.95,132.402 L216.514,131.804 L218.079,131.206 L219.643,130.607 L221.208,130.009 L222.772,129.411 L224.337,128.812 L225.894,128.217 L227.455,127.633 L229.024,127.046 L230.593,126.459 L232.162,125.873 L233.732,125.286 L235.301,124.699 L236.87,124.113 L238.437,123.527 L240.005,122.943 L241.576,122.359 L243.146,121.775 L244.716,121.19 L246.287,120.604 L247.856,120.019 L249.426,119.434 L250.998,118.847 L252.568,118.257 L254.137,117.668 L255.705,117.078 L257.276,116.488 L258.846,115.891 L260.411,115.296 L261.977,114.701 L263.548,114.103 L265.116,113.498 L266.678,112.894 L268.241,112.29 L269.81,111.683 L271.375,111.066 L272.933,110.451 L274.491,109.836 L276.054,109.219 L277.017,108.831 L277.973,108.447 L278.929,108.063 L279.885,107.678 L280.84,107.294 L281.796,106.91 L282.751,106.525 L283.707,106.141 L284.663,105.757 L285.618,105.373 L286.574,104.988 L287.53,104.604 L288.485,104.22 L289.441,103.835 L290.397,103.451 L291.357,103.065 L292.315,102.675 L293.27,102.286 L294.224,101.898 L295.178,101.509 L296.132,101.121 L297.087,100.732 L298.041,100.344 L298.995,99.955 L299.95,99.567 L300.904,99.178 L301.859,98.79 L302.813,98.401 L303.767,98.012 L304.721,97.624 L305.676,97.235 L306.632,96.846 L307.588,96.455 L308.542,96.064 L309.495,95.674 L310.449,95.283 L311.403,94.893 L312.357,94.502 L313.311,94.112 L314.264,93.721 L315.218,93.331 L316.172,92.94 L317.126,92.55 L318.079,92.159 L319.033,91.769 L319.987,91.378 L320.941,90.988 L321.895,90.597 L322.849,90.206 L323.802,89.816 L324.756,89.425 L325.71,89.034 L326.664,88.643 L327.618,88.253 L328.571,87.862 L329.525,87.472 L330.478,87.081 L331.432,86.691 L332.386,86.301 L333.34,85.911 L334.294,85.521 L335.248,85.13 L336.202,84.74 L337.155,84.35 L338.108,83.962 L339.063,83.572 L340.017,83.183 L340.972,82.794 L341.926,82.405 L342.88,82.016 L343.835,81.627 L344.788,81.238 L345.741,80.851 L346.696,80.463 L347.651,80.075 L348.606,79.688 L349.561,79.3 L350.516,78.912 L351.471,78.524 L352.424,78.138 L353.377,77.753 L354.333,77.367 L355.289,76.981 L356.245,76.596 L357.2,76.21 L358.156,75.824 L359.112,75.439 L360.065,75.054 L361.019,74.672 L361.975,74.289 L362.932,73.906 L363.889,73.523 L364.845,73.14 L365.802,72.757 L366.758,72.374 L367.712,71.992 L368.667,71.613 L369.625,71.232 L370.582,70.852 L371.54,70.472 L372.498,70.092 L373.455,69.711 L374.413,69.331 L375.367,68.952 L376.322,68.577 L377.281,68.201 L378.24,67.824 L379.199,67.447 L380.158,67.071 L381.117,66.694 L382.076,66.317 L383.03,65.942 L383.986,65.572 L384.947,65.199 L385.907,64.827 L386.868,64.454 L387.828,64.082 L388.788,63.709 L389.749,63.337 L390.705,62.966 L391.662,62.6 L392.624,62.231 L393.586,61.863 L394.548,61.495 L395.51,61.127 L396.472,60.759 L397.434,60.39 L398.39,60.024 L399.349,59.663 L400.312,59.3 L401.276,58.937 L402.24,58.574 L403.203,58.211 L404.167,57.848 L405.131,57.485 L406.089,57.124 L407.048,56.769 L408.014,56.412 L408.98,56.054 L409.946,55.697 L410.911,55.34 L411.877,54.983 L412.843,54.625 L413.802,54.27 L414.764,53.921 L415.732,53.569 L416.7,53.217 L417.667,52.866 L418.635,52.514 L419.603,52.162 L420.57,51.811 L421.531,51.462 L422.494,51.119 L423.464,50.774 L424.434,50.429 L425.404,50.084 L426.374,49.74 L427.344,49.395 L428.314,49.05 L429.276,48.707 L430.241,48.373 L431.214,48.035 L432.186,47.697 L433.159,47.36 L434.131,47.022 L435.104,46.684 L436.076,46.347 L437.042,46.012 L438.009,45.684 L438.984,45.353 L439.959,45.023 L440.934,44.692 L441.909,44.362 L442.884,44.031 L443.859,43.7 L444.825,43.373 L445.794,43.053 L446.772,42.731 L447.75,42.409 L448.728,42.087 L449.706,41.764 L450.684,41.442 L451.661,41.12 L452.63,40.801 L453.602,40.49 L454.582,40.177 L455.563,39.863 L456.544,39.55 L457.525,39.237 L458.506,38.923 L459.487,38.61 L460.458,38.299 L461.822,37.876 L463.192,37.45 L464.562,37.025 L465.924,36.602 L467.289,36.189 L468.663,35.775 L470.037,35.36 L471.403,34.948 L472.772,34.546 L474.149,34.142 L475.526,33.738 L476.896,33.336 L478.269,32.943 L479.649,32.548 L481.028,32.153 L482.401,31.761 L483.776,31.377 L485.159,30.992 L486.541,30.607 L487.917,30.223 L489.295,29.849 L490.681,29.472 L492.066,29.096 L493.442,28.722 L494.822,28.359 L496.21,27.994 L497.598,27.629 L498.986,27.264 L500.374,26.899 L501.762,26.534 L503.151,26.168 L504.527,25.806 L505.908,25.459 L507.3,25.109 L508.692,24.759 L510.084,24.408 L511.476,24.058 L512.868,23.708 L514.26,23.358 L515.642,23.01 L517.028,22.675 L518.422,22.337 L519.817,22 L521.212,21.662 L522.607,21.325 L524.002,20.987 L525.396,20.65 L526.786,20.314 L527.989,20.03 L529.198,19.744 L530.407,19.459 L531.611,19.174 L532.817,18.896 L534.028,18.616 L535.239,18.336 L536.444,18.057 L537.651,17.785 L538.863,17.511 L540.075,17.237 L541.282,16.965 L542.49,16.698 L543.704,16.431 L544.918,16.163 L546.125,15.897 L547.334,15.638 L548.549,15.378 L549.765,15.118 L550.973,14.859 L552.183,14.609 L553.4,14.357 L554.617,14.105 L555.827,13.854 L557.038,13.612 L558.257,13.368 L559.476,13.124 L560.686,12.881 L561.898,12.648 L563.118,12.414 L564.339,12.179 L565.55,11.946 L566.763,11.723 L567.985,11.498 L569.208,11.274 L570.421,11.051 L571.636,10.838 L572.86,10.623 L574.084,10.408 L575.298,10.195 L576.513,9.993 L577.739,9.789 L578.964,9.586 L580.179,9.384 L581.396,9.194 L582.624,9.003 L583.851,8.811 L585.063,8.622 L585.731,8.531 L586.51,8.446 L587.388,8.366 L588.339,8.292 L589.352,8.227 L590.413,8.17 L591.502,8.122 L592.607,8.083 L593.712,8.054 L594.805,8.035 L595.868,8.027 L596.891,8.029 L597.374,8.035 L597.845,8.043 L598.297,8.054 L598.729,8.068 L599.137,8.084 L599.519,8.104 L599.874,8.125 L600.196,8.15 L600.484,8.176 L600.735,8.204 L600.936,8.232 L601.085,8.258 L601.169,8.275 L601.149,8.269 L600.993,8.202 L600.609,7.937 L600.014,7.007 L600.069,5.599 L600.554,4.885 L600.852,4.658 L600.934,4.614 L600.889,4.632 L600.747,4.677 L600.547,4.734 L599.03,5.098 L597.544,5.456 L596.045,5.752 L594.539,6.051 L593.023,6.299 L591.498,6.548 L589.965,6.76 L588.429,6.973 L586.886,7.154 L585.335,7.335 L583.78,7.496 L582.217,7.657 L580.652,7.807 L579.081,7.958 L577.51,8.107 L575.93,8.256 L574.352,8.414 L572.772,8.572 L571.186,8.742 L569.6,8.924 L568.014,9.121 L566.427,9.334 L564.839,9.566 L563.258,9.82 L561.757,10.076 L560.268,10.33 L558.778,10.584 L557.288,10.839 L555.798,11.093 L554.309,11.347 L552.819,11.601 L551.323,11.857 L549.828,12.121 L548.339,12.384 L546.851,12.648 L545.363,12.911 L543.875,13.174 L542.387,13.437 L540.899,13.701 L539.405,13.965 L537.912,14.237 L536.425,14.509 L534.938,14.78 L533.452,15.051 L531.965,15.323 L530.478,15.594 L528.991,15.865 L527.5,16.137 L526.009,16.416 L524.524,16.694 L523.038,16.971 L521.552,17.249 L520.067,17.527 L518.581,17.805 L517.096,18.082 L515.605,18.361 L514.117,18.646 L512.632,18.93 L511.148,19.213 L509.663,19.497 L508.179,19.781 L506.694,20.065 L505.21,20.349 L503.722,20.634 L502.234,20.923 L500.751,21.212 L499.268,21.501 L497.784,21.79 L496.301,22.079 L494.817,22.368 L493.334,22.657 L491.846,22.947 L490.337,23.248 L488.833,23.548 L487.329,23.848 L485.825,24.148 L484.322,24.448 L482.818,24.748 L481.314,25.048 L479.803,25.349 L478.295,25.66 L476.794,25.97 L475.293,26.28 L473.792,26.589 L472.291,26.899 L470.79,27.209 L469.289,27.518 L467.781,27.829 L466.276,28.15 L464.778,28.468 L463.28,28.787 L461.782,29.105 L460.284,29.424 L458.785,29.743 L457.287,30.061 L455.783,30.381 L454.281,30.709 L452.786,31.035 L451.29,31.361 L449.794,31.688 L448.298,32.014 L446.802,32.341 L445.306,32.667 L443.804,32.995 L442.305,33.33 L440.811,33.665 L439.317,33.999 L437.824,34.333 L436.33,34.667 L434.836,35.001 L433.343,35.335 L431.844,35.671 L430.347,36.013 L428.855,36.354 L427.364,36.695 L425.872,37.036 L424.38,37.377 L422.889,37.718 L421.397,38.059 L419.899,38.402 L418.404,38.753 L416.915,39.102 L415.425,39.451 L413.936,39.801 L412.447,40.15 L410.958,40.5 L409.469,40.849 L407.979,41.198 L406.49,41.548 L405.001,41.897 L403.512,42.247 L402.022,42.596 L400.533,42.946 L399.044,43.296 L397.555,43.645 L396.058,43.996 L394.564,44.358 L393.078,44.717 L391.592,45.077 L390.105,45.436 L388.619,45.796 L387.132,46.155 L385.646,46.515 L384.16,46.875 L382.673,47.234 L381.187,47.594 L379.7,47.953 L378.214,48.313 L376.728,48.672 L375.241,49.032 L373.755,49.391 L372.263,49.752 L370.774,50.12 L369.289,50.487 L367.804,50.853 L366.32,51.22 L364.835,51.586 L363.351,51.953 L361.866,52.319 L360.382,52.686 L358.897,53.052 L357.413,53.419 L355.928,53.786 L354.444,54.152 L352.959,54.519 L351.475,54.885 L349.99,55.252 L348.503,55.619 L347.016,55.99 L345.532,56.361 L344.049,56.732 L342.565,57.102 L341.082,57.473 L339.598,57.843 L338.115,58.214 L336.631,58.585 L335.147,58.955 L333.664,59.326 L332.18,59.696 L330.697,60.067 L329.213,60.437 L327.729,60.808 L326.246,61.179 L324.761,61.55 L323.276,61.922 L321.793,62.295 L320.309,62.667 L318.826,63.04 L317.343,63.412 L315.859,63.784 L314.376,64.157 L312.892,64.529 L311.409,64.901 L309.926,65.273 L308.442,65.645 L306.959,66.018 L305.475,66.39 L303.992,66.762 L302.508,67.134 L301.026,67.506 L299.542,67.877 L298.058,68.248 L296.574,68.619 L295.09,68.99 L293.606,69.361 L292.121,69.732 L290.637,70.103 L289.153,70.474 L287.669,70.845 L286.185,71.216 L284.7,71.587 L283.216,71.958 L281.732,72.33 L280.248,72.701 L278.764,73.072 L277.281,73.442 L275.798,73.811 L274.313,74.179 L272.827,74.548 L271.342,74.917 L269.857,75.286 L268.371,75.653 L266.885,76.019 L265.401,76.384 L263.917,76.747 L262.43,77.111 L260.943,77.474 L259.456,77.838 L257.969,78.201 L256.482,78.565 L254.995,78.928 L253.511,79.291 L252.025,79.651 L250.537,80.011 L249.049,80.372 L247.561,80.732 L246.073,81.092 L244.585,81.452 L243.097,81.813 L241.611,82.172 L240.125,82.528 L238.635,82.885 L237.146,83.242 L235.656,83.599 L234.167,83.955 L232.678,84.312 L231.188,84.669 L229.703,85.025 L228.215,85.376 L226.724,85.728 L225.233,86.081 L223.742,86.433 L222.251,86.785 L220.76,87.138 L219.269,87.49 L217.782,87.842 L216.293,88.188 L214.801,88.535 L213.308,88.882 L211.815,89.229 L210.322,89.577 L208.829,89.924 L207.336,90.271 L205.849,90.617 L203.98,91.042 L202.105,91.469 L200.23,91.896 L198.356,92.323 L196.481,92.75 L194.606,93.177 L192.732,93.604 L190.864,94.029 L188.994,94.443 L187.116,94.859 L185.239,95.275 L183.362,95.691 L181.485,96.107 L179.608,96.523 L177.731,96.939 L175.86,97.355 L173.988,97.761 L172.108,98.168 L170.229,98.575 L168.35,98.983 L166.471,99.39 L164.592,99.798 L162.713,100.205 L160.839,100.611 L158.964,101.01 L157.083,101.409 L155.202,101.808 L153.321,102.207 L151.44,102.607 L149.56,103.006 L147.679,103.405 L145.803,103.803 L143.926,104.193 L142.043,104.584 L140.161,104.976 L138.278,105.367 L136.396,105.758 L134.513,106.149 L132.631,106.54 L130.753,106.931 L128.874,107.315 L126.99,107.7 L125.106,108.084 L123.223,108.469 L121.339,108.854 L119.455,109.239 L117.571,109.624 L115.687,110.009 L114.25,110.303 L112.813,110.596 L111.376,110.89 L109.936,111.184 L108.497,111.482 L107.06,111.779 L105.624,112.076 L104.186,112.374 L102.749,112.672 L101.312,112.97 L99.875,113.268 L98.44,113.566 L97.004,113.862 L95.567,114.159 L94.13,114.455 L92.696,114.751 L91.261,115.043 L89.823,115.336 L88.386,115.629 L86.953,115.92 L85.52,116.205 L84.081,116.492 L82.642,116.778 L81.21,117.063 L79.777,117.34 L78.337,117.618 L76.896,117.896 L75.466,118.172 L74.034,118.437 L72.592,118.704 L71.149,118.971 L69.719,119.235 L68.287,119.486 L66.843,119.738 L65.399,119.991 L63.964,120.242 L62.527,120.482 L61.089,120.723 L59.649,120.954 L58.21,121.186 L56.77,121.408 L55.329,121.63 L53.887,121.843 L52.446,122.056 L51.004,122.258 L49.562,122.46 L48.118,122.651 L46.675,122.842 L45.249,123.018 L43.827,123.194 L42.4,123.353 L40.975,123.511 L39.547,123.649 L38.119,123.788 L36.688,123.904 L35.262,124.02 L33.835,124.108 L32.411,124.196 L30.986,124.252 L29.554,124.309 L28.139,124.342 L26.721,124.356 L25.305,124.351 L23.891,124.328 L22.481,124.284 L21.074,124.218 L19.671,124.131 L18.273,124.021 L16.879,123.886 L15.489,123.728 L14.106,123.544 L12.753,123.337 L11.86,123.159 L10.89,122.892 L9.825,122.522 L9.343,122.331 L8.836,122.111 L8.337,121.873 L7.856,121.624 L7.404,121.366 L6.979,121.097 L6.589,120.826 L6.247,120.559 L5.949,120.294 L5.7,120.042 L5.515,119.821 L5.38,119.621 L5.293,119.461 L5.254,119.361 L5.238,119.287 L5.232,119.238 L5.235,119.207 L5.264,119.112 L5.595,118.25 L5.978,117.41 L6.414,116.583 L6.894,115.773 L7.418,114.984 L7.991,114.207 L8.603,113.443 L9.253,112.698 L9.945,111.963 L10.67,111.239 L11.426,110.532 L12.204,109.843 L13.041,109.153 L13.869,108.468 L14.732,107.813 L15.605,107.148 L16.5,106.509 L17.405,105.861 L18.319,105.232 L19.241,104.597 L20.159,103.979 L21.089,103.353 L22.002,102.738 L22.906,102.129 L23.813,101.529 L24.729,100.923 L25.645,100.316 L26.536,99.726 L27.441,99.157 L28.37,98.571 L29.299,97.986 L30.206,97.414 L31.124,96.861 L32.065,96.294 L33.006,95.727 L33.928,95.171 L34.86,94.63 L35.81,94.078 L36.76,93.526 L37.693,92.984 L38.634,92.457 L39.593,91.919 L40.552,91.382 L41.496,90.852 L42.448,90.335 L43.414,89.809 L44.38,89.284 L45.331,88.767 L46.289,88.262 L47.262,87.749 L48.236,87.236 L49.21,86.724 L50.183,86.211 L51.157,85.698 L52.13,85.185 L53.09,84.679 L54.056,84.185 L55.036,83.684 L56.016,83.183 L56.995,82.682 L57.975,82.18 L58.955,81.679 L59.935,81.178 L60.913,80.678 L61.891,80.179 L62.87,79.68 L63.85,79.181 L64.83,78.682 L65.809,78.183 L66.789,77.684 L67.769,77.185 L68.748,76.685 L70.004,76.046 L71.259,75.407 L72.514,74.768 L73.77,74.128 L75.025,73.489 L76.281,72.85 L77.536,72.211 L78.785,71.575 L80.038,70.945 L81.297,70.313 L82.557,69.68 L83.816,69.048 L85.076,68.415 L86.335,67.782 L87.594,67.15 L88.846,66.521 L90.102,65.9 L91.366,65.275 L92.63,64.65 L93.893,64.025 L95.157,63.4 L96.421,62.775 L97.685,62.151 L98.943,61.529 L100.204,60.913 L101.471,60.294 L102.738,59.676 L104,59.06 L105.265,58.448 L106.534,57.835 L107.804,57.221 L109.068,56.61 L110.335,56.005 L111.607,55.396 L112.88,54.788 L114.147,54.182 L115.417,53.582 L116.691,52.979 L117.966,52.376 L119.234,51.775 L120.506,51.181 L121.783,50.584 L123.061,49.987 L124.332,49.393 L125.606,48.805 L126.886,48.215 L128.167,47.624 L129.441,47.036 L130.718,46.454 L132.001,45.87 L133.284,45.285 L134.56,44.704 L135.839,44.129 L137.125,43.552 L138.411,42.974 L139.69,42.4 L140.972,41.833 L142.261,41.263 L143.55,40.693 L144.832,40.125 L146.118,39.565 L147.41,39.002 L148.702,38.439 L149.986,37.879 L151.274,37.327 L152.569,36.772 L153.864,36.217 L155.151,35.665 L156.442,35.122 L157.74,34.575 L159.039,34.029 L160.33,33.485 L161.624,32.949 L162.926,32.411 L164.228,31.872 L165.521,31.337 L166.818,30.81 L168.123,30.28 L169.428,29.751 L170.724,29.225 L172.024,28.708 L173.333,28.187 L174.642,27.667 L175.943,27.15 L177.247,26.641 L178.559,26.13 L179.871,25.618 L181.174,25.11 L182.481,24.613 L183.797,24.111 L185.113,23.609 L186.419,23.112 L187.729,22.624 L189.049,22.133 L190.369,21.642 L191.685,21.152 L193.356,20.536 L195.029,19.92 L196.706,19.304 L198.379,18.69 L200.056,18.083 L201.731,17.477 L203.41,16.884 L205.085,16.292 L206.766,15.719 L208.442,15.148 L210.125,14.603 L211.813,14.056 L213.492,13.535 L215.177,13.03 L216.866,12.545 L218.556,12.079 L220.248,11.635 L221.943,11.215 L223.641,10.818 L225.34,10.448 L227.044,10.106 L228.751,9.791 L230.46,9.508 L232.205,9.253 L233.654,9.031 L235.219,8.753 L236.85,8.434 L238.533,8.089 L240.264,7.724 L242.028,7.353 L243.809,6.984 L245.594,6.628 L247.369,6.297 L249.12,5.999 L250.825,5.746 L252.495,5.547 L253.273,5.472 L254.046,5.414 L254.798,5.374 L255.524,5.351 L256.217,5.349 L256.88,5.368 L257.51,5.406 L258.096,5.465 L258.644,5.545 L259.151,5.643 L259.601,5.757 L260.009,5.89 L260.367,6.032 L260.663,6.18 L260.919,6.338 L261.133,6.498 L261.298,6.652 L261.442,6.824 L261.567,7.008 L261.669,7.207 L261.762,7.458 L261.841,7.758 L261.894,8.108 L261.918,8.541 L261.909,9.155 L261.857,9.725 L261.764,10.272 L261.637,10.795 L261.476,11.288 L261.274,11.772 L261.039,12.244 L260.769,12.699 L260.456,13.152 L260.107,13.599 L259.721,14.035 L259.29,14.47 L258.822,14.899 L258.319,15.318 L257.773,15.734 L257.193,16.144 L256.581,16.544 L255.961,16.922 L254.546,17.71 L253.055,18.449 L251.465,19.166 L249.804,19.866 L248.082,20.549 L246.313,21.225 L244.516,21.9 L242.701,22.581 L240.887,23.275 L239.084,23.991 L237.304,24.738 L235.589,25.516 L234.719,25.936 L233.881,26.363 L233.062,26.804 L232.259,27.262 L231.473,27.742 L230.748,28.216 C229.51,29.027 229.164,30.689 229.975,31.927 C230.787,33.165 232.448,33.51 233.686,32.699 Z" id="Fill-276"></path>
        </g>
    </g>
</svg>
