<?xml version="1.0" encoding="UTF-8"?>
<svg width="285px" height="100px" viewBox="0 0 285 100" version="1.1" xmlns="http://www.w3.org/2000/svg" xmlns:xlink="http://www.w3.org/1999/xlink">
    <title>184</title>
    <g id="Page-1" stroke="none" stroke-width="1" fill="none" fill-rule="evenodd">
        <g id="184" transform="translate(0.936611, 0.662000)" fill="currentColor">
            <path d="M49.196,53.224 L48.571,53.096 L47.837,52.991 L47.102,52.922 L46.361,52.877 L45.61,52.85 L44.849,52.837 L43.375,52.831 L41.941,52.827 L40.599,52.79 L40.037,52.756 L39.517,52.707 L39.071,52.644 L38.717,52.573 L38.492,52.508 L38.397,52.469 L38.446,52.506 L38.637,52.697 L38.749,52.847 L38.889,53.191 L38.927,53.381 L38.936,53.521 L38.93,53.615 L38.922,53.666 L38.902,53.724 L39.065,53.287 L39.227,52.983 L39.433,52.691 L39.677,52.409 L39.963,52.145 L40.314,51.879 L40.719,51.618 L41.175,51.371 L41.693,51.131 L42.259,50.902 L42.867,50.689 L43.52,50.487 L44.207,50.296 L44.921,50.116 L45.663,49.943 L46.424,49.776 L47.201,49.613 L47.995,49.447 L49.588,49.107 L51.187,48.722 L52.694,48.276 L54.071,47.826 L55.398,47.393 L56.729,46.978 L58.062,46.562 L59.401,46.161 L60.742,45.76 L62.086,45.372 L63.432,44.983 L64.781,44.607 L66.132,44.231 L67.486,43.865 L68.839,43.5 L70.195,43.146 L71.563,42.79 L72.93,42.433 L74.287,42.079 L75.646,41.738 L77.017,41.393 L78.388,41.048 L79.755,40.705 L81.122,40.366 L82.493,40.026 L83.865,39.687 L85.235,39.347 L86.334,39.076 L87.434,38.805 L88.534,38.534 L89.634,38.262 L90.734,37.991 L91.834,37.72 L92.934,37.449 L94.034,37.177 L95.134,36.906 L96.234,36.635 L97.334,36.364 L98.434,36.093 L99.534,35.821 L100.633,35.55 L101.733,35.279 L102.82,35.011 L103.91,34.754 L105.013,34.494 L106.115,34.234 L107.218,33.974 L108.321,33.714 L109.423,33.453 L110.526,33.193 L111.629,32.933 L112.731,32.673 L113.834,32.413 L114.937,32.153 L116.039,31.893 L117.142,31.633 L118.245,31.373 L119.348,31.113 L120.42,30.86 L121.499,30.632 L122.607,30.397 L123.715,30.163 L124.823,29.928 L125.931,29.693 L127.039,29.459 L128.148,29.224 L129.256,28.99 L130.364,28.755 L131.472,28.52 L132.58,28.286 L133.688,28.051 L134.796,27.817 L135.905,27.582 L137.013,27.348 L138.098,27.118 L139.315,26.881 L140.553,26.641 L141.791,26.4 L143.021,26.161 L144.253,25.929 L145.492,25.695 L146.731,25.461 L147.962,25.228 L149.195,25.002 L150.435,24.774 L151.675,24.546 L152.91,24.32 L154.145,24.099 L155.386,23.877 L156.627,23.655 L157.862,23.434 L159.097,23.219 L160.34,23.003 L161.582,22.787 L162.818,22.572 L164.055,22.362 L165.299,22.152 L166.542,21.941 L167.777,21.732 L169.014,21.53 L170.259,21.326 L171.503,21.122 L172.748,20.919 L173.992,20.715 L175.236,20.512 L176.481,20.308 L177.716,20.106 L178.952,19.913 L180.198,19.718 L181.444,19.524 L182.69,19.329 L183.936,19.135 L185.182,18.94 L186.428,18.746 L187.666,18.553 L188.905,18.367 L190.152,18.18 L191.4,17.993 L192.647,17.806 L193.894,17.619 L195.141,17.432 L196.389,17.245 L197.63,17.059 L198.872,16.878 L200.121,16.697 L201.369,16.515 L202.617,16.334 L203.865,16.152 L205.113,15.971 L206.362,15.79 L207.605,15.609 L208.849,15.433 L210.098,15.257 L211.346,15.08 L212.596,14.903 L213.844,14.727 L215.093,14.55 L216.342,14.374 L217.588,14.198 L218.834,14.025 L220.083,13.851 L221.333,13.678 L222.582,13.505 L223.832,13.331 L225.081,13.157 L226.33,12.983 L227.578,12.81 L228.826,12.638 L230.075,12.466 L231.325,12.294 L232.574,12.122 L233.824,11.95 L235.073,11.778 L236.323,11.606 L237.572,11.434 L238.821,11.263 L240.07,11.091 L241.32,10.92 L242.57,10.748 L243.819,10.577 L245.069,10.405 L246.318,10.234 L247.569,10.062 L248.819,9.889 L250.068,9.717 L251.317,9.544 L252.566,9.371 L253.815,9.198 L255.064,9.026 L256.314,8.853 L257.581,8.677 L259.58,8.377 L261.58,8.033 L263.561,7.663 L265.525,7.28 L267.475,6.893 L269.403,6.518 L271.338,6.17 L273.24,5.827 L275.149,5.564 L277.025,5.302 L278.914,5.17 L280.876,5.031 L280.905,5.033 L280.944,5.033 L280.9,5.029 L280.725,4.998 L280.283,4.843 L279.916,4.631 L279.052,3.51 L279.052,3.51 L279.052,3.511 L279.053,3.513 L279.054,3.515 L279.055,3.517 L279.056,3.52 L279.057,3.524 L279.018,3.414 L278.952,3.18 L278.909,2.94 L278.89,2.7 L278.895,2.467 L278.919,2.247 L278.96,2.044 L279.013,1.86 L279.041,1.777 L279.04,1.782 L279.038,1.785 L279.037,1.788 L279.036,1.791 L279.036,1.792 L279.035,1.794 L279.035,1.794 L279.545,0.962 L279.683,0.831 L279.888,0.672 L279.978,0.616 L280.025,0.593 L279.85,0.673 L279.585,0.778 L279.218,0.91 L278.78,1.059 L278.281,1.22 L277.73,1.39 L277.143,1.566 L276.526,1.746 L275.889,1.928 L275.241,2.109 L274.591,2.287 L273.953,2.459 L272.712,2.786 L271.607,3.067 L270.716,3.285 L269.362,3.6 L268.011,3.915 L266.656,4.214 L265.299,4.515 L263.94,4.805 L262.577,5.097 L261.212,5.379 L259.846,5.662 L258.479,5.939 L257.108,6.216 L255.737,6.489 L254.363,6.763 L252.989,7.036 L251.614,7.31 L250.24,7.583 L248.858,7.858 L247.478,8.142 L246.106,8.424 L244.733,8.706 L243.343,8.991 L241.957,9.297 L240.589,9.6 L239.221,9.903 L237.837,10.209 L236.146,10.605 L234.467,10.999 L232.788,11.392 L231.102,11.787 L229.419,12.193 L227.742,12.598 L226.066,13.002 L224.384,13.407 L222.704,13.822 L221.03,14.235 L219.356,14.648 L217.677,15.062 L216,15.482 L214.327,15.898 L212.653,16.312 L210.975,16.726 L209.299,17.147 L207.627,17.566 L205.954,17.985 L204.279,18.405 L202.605,18.828 L200.933,19.251 L199.262,19.674 L197.587,20.098 L195.824,20.549 L194.065,20.999 L192.305,21.449 L190.546,21.899 L188.786,22.349 L187.027,22.799 L185.267,23.248 L183.502,23.699 L181.738,24.159 L179.979,24.618 L178.22,25.077 L176.461,25.535 L174.703,25.994 L172.944,26.453 L171.185,26.911 L169.42,27.371 L167.657,27.842 L165.9,28.31 L164.143,28.779 L162.386,29.248 L160.629,29.717 L158.872,30.185 L157.115,30.654 L155.352,31.124 L153.591,31.605 L151.836,32.084 L150.081,32.563 L148.326,33.041 L146.571,33.52 L144.816,33.999 L143.061,34.478 L141.298,34.959 L139.539,35.452 L137.787,35.944 L136.035,36.435 L134.283,36.926 L132.531,37.418 L130.779,37.909 L129.027,38.4 L127.267,38.894 L125.511,39.401 L123.762,39.906 L122.014,40.411 L120.266,40.915 L118.517,41.42 L116.769,41.925 L115.021,42.43 L113.267,42.937 L111.516,43.453 L109.77,43.968 L108.025,44.483 L106.275,44.999 L104.528,45.523 L102.784,46.045 L101.042,46.568 L99.294,47.091 L97.549,47.623 L95.808,48.153 L94.067,48.683 L92.322,49.214 L90.58,49.753 L88.842,50.29 L87.104,50.827 L85.361,51.366 L83.62,51.913 L81.885,52.458 L80.149,53.004 L78.409,53.551 L76.671,54.107 L74.939,54.661 L73.206,55.215 L71.469,55.77 L69.735,56.334 L68.005,56.896 L66.276,57.457 L64.541,58.021 L62.809,58.594 L61.083,59.165 L59.356,59.736 L57.625,60.308 L55.896,60.891 L54.173,61.471 L52.45,62.051 L50.722,62.633 L48.998,63.224 L47.278,63.813 L45.559,64.402 L43.833,64.993 L42.112,65.593 L40.396,66.192 L38.68,66.791 L36.958,67.392 L35.24,68.003 L33.528,68.611 L31.817,69.22 L30.114,69.826 L28.95,70.226 L27.771,70.596 L26.56,70.948 L25.325,71.287 L24.068,71.614 L22.793,71.936 L21.504,72.255 L20.203,72.578 L18.905,72.911 L17.588,73.249 L16.291,73.617 L14.993,73.986 L13.69,74.395 L12.404,74.835 L11.137,75.313 L9.886,75.832 L8.655,76.404 L7.456,77.03 L6.286,77.713 L5.148,78.469 L4.059,79.295 L3.014,80.195 L2.02,81.184 L1.122,82.223 L0.771,82.688 L0.484,83.152 L0.248,83.652 L0.072,84.222 L0,84.902 L0.095,85.623 L0.378,86.319 L0.823,86.905 L1.313,87.31 L1.801,87.585 L2.285,87.773 L2.745,87.896 L3.198,87.978 L3.66,88.031 L4.125,88.059 L4.599,88.069 L5.091,88.062 L5.596,88.039 L6.114,88.004 L6.651,87.956 L7.201,87.896 L7.764,87.827 L8.342,87.747 L8.942,87.656 L10.138,87.458 L11.381,87.229 L12.643,86.979 L13.911,86.713 L15.174,86.437 L16.416,86.156 L17.628,85.877 L18.792,85.604 L19.892,85.344 L20.921,85.102 L21.857,84.884 L22.694,84.695 L23.719,84.463 L24.755,84.228 L25.789,83.981 L26.821,83.734 L27.85,83.476 L28.878,83.218 L29.903,82.951 L30.928,82.685 L31.951,82.408 L32.973,82.133 L33.993,81.849 L35.014,81.565 L36.033,81.271 L37.042,80.98 L38.051,80.688 L39.071,80.394 L40.088,80.088 L41.094,79.786 L42.101,79.484 L43.114,79.179 L44.125,78.867 L45.13,78.558 L46.134,78.248 L47.142,77.937 L48.149,77.623 L49.152,77.31 L50.156,76.997 L51.159,76.684 L52.163,76.37 L53.166,76.057 L54.169,75.744 L55.166,75.433 L56.165,75.129 L57.17,74.822 L58.175,74.516 L59.181,74.209 L60.186,73.903 L61.191,73.596 L62.197,73.29 L63.179,72.99 L64.168,72.713 L65.179,72.429 L66.19,72.145 L67.201,71.861 L68.213,71.577 L69.224,71.293 L70.235,71.01 L71.228,70.731 L72.508,70.394 L73.803,70.053 L75.099,69.713 L76.394,69.372 L77.689,69.031 L78.984,68.69 L80.28,68.35 L81.57,68.01 L82.862,67.677 L84.159,67.342 L85.456,67.008 L86.753,66.673 L88.05,66.338 L89.347,66.004 L90.643,65.669 L91.935,65.336 L93.228,65.01 L94.526,64.683 L95.825,64.356 L97.124,64.029 L98.423,63.701 L99.722,63.374 L101.02,63.047 L102.313,62.721 L103.608,62.403 L104.908,62.084 L106.209,61.764 L107.51,61.445 L108.81,61.125 L110.111,60.806 L111.412,60.486 L112.705,60.168 L114,59.86 L115.303,59.55 L116.606,59.24 L117.909,58.93 L119.212,58.62 L120.515,58.31 L121.818,58 L123.113,57.692 L124.41,57.395 L125.715,57.096 L127.02,56.797 L128.326,56.498 L129.631,56.198 L130.937,55.899 L132.242,55.6 L133.54,55.303 L134.787,55.027 L136.043,54.75 L137.299,54.472 L138.555,54.195 L139.811,53.917 L141.066,53.64 L142.322,53.362 L143.57,53.086 L144.82,52.82 L146.078,52.553 L147.336,52.285 L148.594,52.017 L149.851,51.75 L151.109,51.482 L152.367,51.214 L153.618,50.948 L154.87,50.691 L156.13,50.432 L157.39,50.174 L158.65,49.915 L159.91,49.656 L161.169,49.397 L162.429,49.138 L163.683,48.88 L164.938,48.63 L166.2,48.379 L167.461,48.127 L168.722,47.876 L169.984,47.624 L171.245,47.373 L172.506,47.121 L173.762,46.871 L175.018,46.628 L176.281,46.385 L177.544,46.14 L178.807,45.897 L180.07,45.653 L181.333,45.409 L182.596,45.164 L183.853,44.921 L185.112,44.684 L186.376,44.447 L187.641,44.209 L188.905,43.971 L190.169,43.734 L191.433,43.496 L192.697,43.258 L193.957,43.021 L195.218,42.79 L196.483,42.557 L197.749,42.325 L199.014,42.093 L200.279,41.86 L201.544,41.628 L202.81,41.396 L204.071,41.164 L205.333,40.938 L206.599,40.71 L207.865,40.483 L209.131,40.255 L210.397,40.027 L211.664,39.799 L212.93,39.572 L214.192,39.345 L215.456,39.122 L216.723,38.898 L217.99,38.675 L219.257,38.451 L220.523,38.228 L221.79,38.005 L223.057,37.781 L224.322,37.558 L225.586,37.338 L226.854,37.118 L228.121,36.898 L229.389,36.678 L230.656,36.458 L231.924,36.238 L233.191,36.017 L234.456,35.797 L235.722,35.579 L236.99,35.362 L238.257,35.144 L239.525,34.926 L240.793,34.709 L242.061,34.491 L243.329,34.273 L244.595,34.056 L245.861,33.84 L247.129,33.625 L248.397,33.409 L249.665,33.193 L250.933,32.977 L252.201,32.762 L253.469,32.546 L254.749,32.328 L256.377,32.033 L258.005,31.703 L259.617,31.354 L261.215,30.999 L262.8,30.646 L264.374,30.31 L265.936,29.996 L267.486,29.719 L269.028,29.489 L270.561,29.311 L272.082,29.199 L273.643,29.163 L273.73,29.165 L273.794,29.168 L273.785,29.166 L273.668,29.141 L273.338,29.011 L272.728,28.506 L272.318,27.238 L272.649,26.231 L272.953,25.891 L273.105,25.777 L273.161,25.744 L273.175,25.738 L272.977,25.823 L272.691,25.929 L272.309,26.058 L271.858,26.2 L271.348,26.354 L270.787,26.517 L270.191,26.686 L269.565,26.86 L268.919,27.036 L268.263,27.213 L267.604,27.39 L266.951,27.565 L265.694,27.903 L264.557,28.216 L263.617,28.49 L262.383,28.868 L261.159,29.244 L259.936,29.619 L258.712,29.994 L257.489,30.369 L256.266,30.745 L255.042,31.12 L253.825,31.494 L252.605,31.859 L251.379,32.227 L250.153,32.594 L248.927,32.961 L247.701,33.329 L246.475,33.696 L245.249,34.064 L244.044,34.425 L242.83,34.76 L241.597,35.101 L240.364,35.442 L239.131,35.782 L237.897,36.123 L236.664,36.463 L235.431,36.804 L234.216,37.139 L232.474,37.588 L230.724,38.038 L228.971,38.475 L227.217,38.913 L225.461,39.341 L223.703,39.769 L221.943,40.189 L220.183,40.609 L218.421,41.023 L216.657,41.437 L214.893,41.844 L213.127,42.253 L211.361,42.658 L209.593,43.064 L207.825,43.469 L206.056,43.875 L204.288,44.283 L202.521,44.691 L200.754,45.099 L198.981,45.509 L197.211,45.929 L195.446,46.348 L193.682,46.766 L191.913,47.186 L190.877,47.438 L189.847,47.688 L188.818,47.938 L187.788,48.189 L186.758,48.439 L185.728,48.69 L184.698,48.94 L183.669,49.19 L182.639,49.441 L181.609,49.691 L180.579,49.941 L179.549,50.192 L178.519,50.442 L177.49,50.692 L176.46,50.943 L175.424,51.194 L174.39,51.452 L173.362,51.709 L172.333,51.966 L171.304,52.222 L170.276,52.479 L169.247,52.736 L168.218,52.992 L167.19,53.249 L166.161,53.505 L165.132,53.761 L164.103,54.018 L163.074,54.274 L162.046,54.53 L161.017,54.786 L159.988,55.042 L158.949,55.301 L157.914,55.571 L156.888,55.838 L155.862,56.106 L154.836,56.373 L153.81,56.64 L152.784,56.908 L151.758,57.175 L150.732,57.443 L149.707,57.71 L148.681,57.978 L147.655,58.245 L146.629,58.512 L145.603,58.78 L144.577,59.047 L143.551,59.315 L142.517,59.584 L141.485,59.865 L140.462,60.144 L139.44,60.422 L138.417,60.701 L137.394,60.979 L136.371,61.258 L135.349,61.536 L134.318,61.817 L133.29,62.106 L132.27,62.393 L131.25,62.68 L130.23,62.968 L129.21,63.255 L128.19,63.542 L127.17,63.829 L126.141,64.119 L125.115,64.419 L124.098,64.716 L123.081,65.014 L122.064,65.311 L121.047,65.608 L120.03,65.906 L119.013,66.203 L117.987,66.503 L116.966,66.816 L115.953,67.127 L114.94,67.438 L113.927,67.749 L112.914,68.06 L111.902,68.372 L110.889,68.683 L109.866,68.997 L108.847,69.323 L107.838,69.646 L106.829,69.97 L105.82,70.293 L104.811,70.616 L103.802,70.939 L102.794,71.262 L101.774,71.589 L100.758,71.929 L99.754,72.266 L98.749,72.603 L97.745,72.939 L96.74,73.276 L95.736,73.612 L94.731,73.949 L93.714,74.29 L92.427,74.739 L91.137,75.188 L89.854,75.656 L88.573,76.124 L87.298,76.608 L86.026,77.091 L84.758,77.587 L83.49,78.082 L82.227,78.589 L80.966,79.095 L79.708,79.61 L78.45,80.125 L77.196,80.647 L75.946,81.168 L74.696,81.689 L73.444,82.21 L72.193,82.734 L70.944,83.258 L69.695,83.782 L68.451,84.302 L67.203,84.815 L65.951,85.329 L64.699,85.844 L63.453,86.356 L63.112,86.489 L62.735,86.624 L62.324,86.762 L61.886,86.902 L61.423,87.041 L60.94,87.18 L59.896,87.464 L58.79,87.748 L57.631,88.032 L56.439,88.317 L55.225,88.603 L54.008,88.892 L52.8,89.182 L51.616,89.476 L50.473,89.774 L49.379,90.078 L48.349,90.389 L47.414,90.706 L46.953,90.877 L46.527,91.049 L46.125,91.227 L45.742,91.414 L45.377,91.616 L45.035,91.835 L44.707,92.082 L44.39,92.38 L44.102,92.742 L43.859,93.196 L43.711,93.769 L43.724,94.371 L43.888,94.931 L44.166,95.406 L44.49,95.775 L44.845,96.079 L45.237,96.346 L45.659,96.583 L46.294,96.9 L46.935,97.192 L47.581,97.459 L48.231,97.704 L48.888,97.928 L49.569,98.134 L50.878,98.471 L52.226,98.734 L53.582,98.924 L54.945,99.052 L56.32,99.119 L57.697,99.131 L59.077,99.098 L60.463,99.021 L61.847,98.907 L63.232,98.763 L64.616,98.592 L65.996,98.399 L67.372,98.192 L68.742,97.974 L70.104,97.751 L71.457,97.53 L72.801,97.309 L74.13,97.105 L75.447,96.904 L76.742,96.741 L78.054,96.575 L79.619,96.386 L81.206,96.193 L82.788,95.961 L84.367,95.729 L85.94,95.463 L87.51,95.197 L89.075,94.906 L90.64,94.615 L92.201,94.301 L93.759,93.987 L95.314,93.656 L96.866,93.325 L98.417,92.984 L99.966,92.643 L101.513,92.294 L103.058,91.947 L104.602,91.598 L106.145,91.25 L107.687,90.905 L109.228,90.561 L110.769,90.226 L112.308,89.892 L113.848,89.573 L115.393,89.253 L116.742,88.98 L118.094,88.706 L119.446,88.432 L120.799,88.158 L122.151,87.885 L123.503,87.611 L124.856,87.337 L126.209,87.064 L127.56,86.789 L128.91,86.514 L130.26,86.24 L131.61,85.965 L132.96,85.691 L134.31,85.416 L135.66,85.142 L137.009,84.867 L138.357,84.594 L139.706,84.321 L141.054,84.048 L142.403,83.775 L143.752,83.502 L145.1,83.23 L146.449,82.957 L147.796,82.685 L149.143,82.416 L150.491,82.147 L151.839,81.878 L153.187,81.609 L154.535,81.34 L155.883,81.071 L157.231,80.802 L158.576,80.533 L159.921,80.271 L161.27,80.008 L162.618,79.745 L163.966,79.481 L165.314,79.218 L166.663,78.955 L168.011,78.692 L169.354,78.43 L170.699,78.176 L172.048,77.921 L173.397,77.666 L174.747,77.412 L176.096,77.157 L177.445,76.902 L178.794,76.648 L180.138,76.394 L181.484,76.15 L182.834,75.905 L184.185,75.66 L185.536,75.415 L186.887,75.17 L188.237,74.925 L189.588,74.68 L190.932,74.436 L192.278,74.205 L193.631,73.973 L194.985,73.74 L196.338,73.508 L197.691,73.276 L199.044,73.044 L200.398,72.811 L201.742,72.581 L203.091,72.365 L204.447,72.148 L205.804,71.931 L207.16,71.714 L208.517,71.497 L209.874,71.28 L211.23,71.063 L212.58,70.847 L213.933,70.643 L215.292,70.438 L216.652,70.233 L218.006,70.028 L219.362,69.833 L220.724,69.637 L222.085,69.441 L223.441,69.246 L224.8,69.06 L226.164,68.874 L227.528,68.688 L228.887,68.503 L230.248,68.327 L231.614,68.151 L232.981,67.974 L234.341,67.798 L235.704,67.633 L237.074,67.468 L238.443,67.302 L239.806,67.138 L241.171,66.984 L242.544,66.83 L243.916,66.677 L245.289,66.523 C246.123,66.429 246.723,65.677 246.629,64.843 C246.536,64.008 245.784,63.408 244.95,63.502 L243.577,63.656 L242.205,63.81 L240.832,63.964 L239.454,64.119 L238.078,64.285 L236.709,64.451 L235.339,64.617 L233.964,64.783 L232.591,64.961 L231.225,65.137 L229.858,65.314 L228.487,65.491 L227.117,65.678 L225.753,65.864 L224.389,66.051 L223.02,66.238 L221.653,66.435 L220.291,66.631 L218.929,66.827 L217.563,67.024 L216.198,67.23 L214.839,67.435 L213.48,67.641 L212.114,67.847 L210.751,68.065 L209.394,68.282 L208.037,68.5 L206.681,68.717 L205.324,68.934 L203.968,69.151 L202.611,69.368 L201.246,69.587 L199.884,69.82 L198.531,70.053 L197.178,70.285 L195.824,70.518 L194.471,70.75 L193.118,70.982 L191.765,71.215 L190.404,71.448 L189.047,71.695 L187.696,71.94 L186.345,72.185 L184.994,72.431 L183.644,72.676 L182.293,72.921 L180.942,73.166 L179.586,73.412 L178.231,73.668 L176.882,73.923 L175.533,74.178 L174.184,74.433 L172.835,74.688 L171.486,74.943 L170.137,75.197 L168.783,75.453 L167.43,75.717 L166.082,75.981 L164.734,76.244 L163.385,76.507 L162.037,76.77 L160.689,77.034 L159.341,77.297 L157.989,77.561 L156.638,77.831 L155.29,78.1 L153.942,78.369 L152.594,78.639 L151.246,78.908 L149.898,79.177 L148.549,79.446 L147.2,79.716 L145.849,79.989 L144.501,80.262 L143.152,80.534 L141.803,80.806 L140.454,81.078 L139.105,81.35 L137.757,81.623 L136.407,81.895 L135.056,82.169 L133.706,82.442 L132.356,82.716 L131.006,82.99 L129.655,83.264 L128.305,83.537 L126.955,83.811 L125.606,84.085 L124.254,84.357 L122.901,84.63 L121.549,84.903 L120.196,85.176 L118.844,85.448 L117.491,85.721 L116.139,85.993 L114.783,86.267 L113.231,86.586 L111.676,86.907 L110.122,87.242 L108.572,87.578 L107.023,87.922 L105.476,88.265 L103.93,88.613 L102.386,88.96 L100.842,89.305 L99.301,89.65 L97.759,89.988 L96.218,90.326 L94.676,90.653 L93.137,90.979 L91.595,91.287 L90.057,91.596 L88.514,91.881 L86.973,92.166 L85.428,92.425 L83.887,92.684 L82.341,92.909 L80.798,93.134 L79.249,93.32 L77.677,93.509 L76.358,93.674 L75.021,93.841 L73.663,94.047 L72.317,94.252 L70.957,94.474 L69.605,94.694 L68.251,94.914 L66.901,95.126 L65.554,95.325 L64.214,95.509 L62.883,95.671 L61.561,95.806 L60.251,95.911 L58.956,95.98 L57.676,96.008 L56.412,95.995 L55.171,95.932 L53.948,95.814 L52.747,95.644 L51.573,95.412 L50.399,95.106 L49.853,94.938 L49.294,94.747 L48.74,94.536 L48.191,94.308 L47.651,94.061 L47.117,93.793 L46.887,93.664 L46.748,93.57 L46.688,93.517 L46.7,93.534 L46.773,93.661 L46.837,93.877 L46.841,94.14 L46.782,94.377 L46.72,94.5 L46.695,94.532 L46.725,94.506 L46.826,94.432 L46.983,94.332 L47.191,94.219 L47.451,94.093 L47.752,93.961 L48.09,93.826 L48.452,93.693 L49.307,93.406 L50.255,93.123 L51.292,92.839 L52.394,92.556 L53.55,92.273 L54.742,91.99 L55.954,91.708 L57.171,91.425 L58.378,91.14 L59.562,90.854 L60.709,90.565 L61.793,90.273 L62.324,90.123 L62.83,89.972 L63.317,89.819 L63.785,89.663 L64.233,89.504 L64.658,89.34 L65.919,88.827 L67.173,88.316 L68.426,87.806 L69.685,87.294 L70.94,86.774 L72.192,86.258 L73.444,85.741 L74.694,85.225 L75.945,84.713 L77.198,84.199 L78.451,83.686 L79.699,83.174 L80.95,82.67 L82.201,82.166 L83.455,81.672 L84.706,81.177 L85.963,80.694 L87.218,80.212 L88.478,79.742 L89.736,79.272 L90.999,78.819 L92.261,78.367 L93.529,77.933 L94.8,77.499 L95.795,77.176 L96.803,76.849 L97.811,76.521 L98.818,76.194 L99.826,75.867 L100.834,75.54 L101.841,75.213 L102.838,74.889 L103.839,74.579 L104.851,74.265 L105.863,73.952 L106.874,73.638 L107.886,73.324 L108.898,73.011 L109.91,72.697 L110.912,72.386 L111.917,72.088 L112.933,71.786 L113.949,71.485 L114.964,71.183 L115.98,70.882 L116.996,70.58 L118.011,70.279 L119.018,69.98 L120.027,69.687 L121.045,69.392 L122.063,69.097 L123.08,68.802 L124.098,68.507 L125.116,68.212 L126.133,67.917 L127.143,67.625 L128.154,67.342 L129.175,67.057 L130.196,66.772 L131.217,66.487 L132.238,66.202 L133.258,65.917 L134.279,65.632 L135.292,65.349 L136.308,65.075 L137.331,64.799 L138.355,64.523 L139.378,64.247 L140.401,63.97 L141.425,63.694 L142.448,63.418 L143.463,63.144 L144.48,62.88 L145.506,62.613 L146.532,62.346 L147.558,62.079 L148.584,61.812 L149.61,61.545 L150.636,61.278 L151.662,61.011 L152.688,60.744 L153.714,60.477 L154.74,60.21 L155.766,59.943 L156.792,59.676 L157.818,59.409 L158.844,59.142 L159.86,58.877 L160.879,58.624 L161.908,58.368 L162.937,58.112 L163.966,57.857 L164.995,57.601 L166.024,57.345 L167.053,57.089 L168.081,56.833 L169.11,56.578 L170.139,56.323 L171.169,56.067 L172.197,55.812 L173.226,55.557 L174.256,55.301 L175.285,55.046 L176.308,54.792 L177.333,54.544 L178.363,54.295 L179.393,54.046 L180.423,53.797 L181.453,53.548 L182.484,53.299 L183.514,53.05 L184.544,52.801 L185.574,52.552 L186.604,52.303 L187.634,52.054 L188.664,51.805 L189.695,51.557 L190.725,51.307 L191.755,51.058 L192.779,50.811 L194.54,50.396 L196.305,49.98 L198.07,49.563 L199.83,49.149 L201.592,48.745 L203.36,48.339 L205.128,47.934 L206.894,47.529 L208.662,47.127 L210.43,46.724 L212.198,46.321 L213.968,45.917 L215.737,45.511 L217.507,45.105 L219.276,44.695 L221.047,44.286 L222.815,43.869 L224.585,43.453 L226.352,43.029 L228.121,42.605 L229.887,42.17 L231.655,41.735 L233.419,41.287 L235.19,40.838 L236.444,40.496 L237.678,40.16 L238.913,39.823 L240.147,39.487 L241.381,39.15 L242.616,38.814 L243.85,38.477 L245.105,38.135 L246.352,37.766 L247.579,37.403 L248.806,37.04 L250.034,36.676 L251.261,36.313 L252.488,35.95 L253.715,35.586 L254.948,35.221 L256.179,34.848 L257.403,34.477 L258.628,34.106 L259.853,33.735 L261.078,33.364 L262.302,32.992 L263.527,32.621 L264.741,32.253 L265.62,32 L266.72,31.701 L267.966,31.371 L268.618,31.199 L269.282,31.023 L269.946,30.846 L270.605,30.669 L271.25,30.492 L271.87,30.319 L272.463,30.149 L273.019,29.983 L273.531,29.823 L274.001,29.666 L274.428,29.509 L274.787,29.357 L275.022,29.242 L275.252,29.108 L275.532,28.9 L275.917,28.475 L276.278,27.39 L275.843,26.055 L275.158,25.491 L274.694,25.312 L274.382,25.247 L274.122,25.217 L273.87,25.202 L273.573,25.197 L271.897,25.232 L270.192,25.351 L268.511,25.541 L266.848,25.783 L265.199,26.072 L263.569,26.393 L261.954,26.733 L260.352,27.083 L258.763,27.431 L257.187,27.766 L255.624,28.078 L254.055,28.357 L252.799,28.567 L251.53,28.779 L250.261,28.991 L248.993,29.203 L247.724,29.414 L246.455,29.626 L245.187,29.838 L243.916,30.05 L242.646,30.264 L241.378,30.478 L240.11,30.692 L238.841,30.906 L237.573,31.119 L236.304,31.333 L235.036,31.547 L233.765,31.761 L232.495,31.978 L231.227,32.195 L229.959,32.412 L228.691,32.629 L227.423,32.846 L226.155,33.063 L224.887,33.28 L223.616,33.497 L222.346,33.718 L221.078,33.938 L219.811,34.158 L218.544,34.379 L217.276,34.599 L216.009,34.819 L214.741,35.039 L213.47,35.26 L212.2,35.486 L210.933,35.71 L209.667,35.935 L208.4,36.159 L207.133,36.384 L205.866,36.609 L204.6,36.834 L203.329,37.059 L202.059,37.291 L200.794,37.521 L199.528,37.751 L198.262,37.982 L196.997,38.212 L195.731,38.442 L194.465,38.673 L193.195,38.904 L191.926,39.14 L190.662,39.376 L189.397,39.612 L188.133,39.848 L186.868,40.083 L185.604,40.319 L184.339,40.555 L183.069,40.791 L181.8,41.035 L180.537,41.277 L179.274,41.52 L178.011,41.763 L176.748,42.006 L175.484,42.249 L174.221,42.492 L172.952,42.736 L171.684,42.987 L170.423,43.238 L169.161,43.488 L167.899,43.738 L166.638,43.989 L165.376,44.239 L164.115,44.489 L162.847,44.741 L161.581,45 L160.321,45.258 L159.061,45.516 L157.801,45.774 L156.54,46.032 L155.28,46.289 L154.021,46.548 L152.753,46.807 L151.488,47.076 L150.23,47.343 L148.972,47.61 L147.714,47.878 L146.455,48.145 L145.197,48.412 L143.939,48.679 L142.673,48.948 L141.409,49.227 L140.153,49.504 L138.897,49.781 L137.642,50.058 L136.386,50.335 L135.13,50.612 L133.874,50.889 L132.61,51.168 L131.296,51.468 L129.991,51.767 L128.685,52.065 L127.379,52.364 L126.074,52.662 L124.768,52.961 L123.463,53.26 L122.149,53.56 L120.837,53.871 L119.534,54.181 L118.231,54.49 L116.928,54.799 L115.625,55.109 L114.321,55.418 L113.018,55.728 L111.708,56.039 L110.399,56.359 L109.098,56.678 L107.798,56.997 L106.497,57.316 L105.196,57.635 L103.895,57.954 L102.594,58.273 L101.287,58.593 L99.982,58.922 L98.683,59.248 L97.384,59.575 L96.085,59.901 L94.786,60.228 L93.487,60.555 L92.188,60.881 L90.883,61.209 L89.58,61.545 L88.283,61.879 L86.986,62.213 L85.689,62.547 L84.392,62.881 L83.095,63.215 L81.798,63.549 L80.496,63.884 L79.196,64.225 L77.9,64.566 L76.605,64.906 L75.309,65.246 L74.014,65.586 L72.719,65.926 L71.423,66.266 L70.113,66.61 L69.083,66.899 L68.071,67.182 L67.06,67.466 L66.048,67.749 L65.037,68.032 L64.025,68.316 L63.014,68.599 L61.98,68.889 L60.951,69.202 L59.946,69.508 L58.94,69.814 L57.935,70.12 L56.93,70.426 L55.924,70.732 L54.919,71.038 L53.907,71.346 L52.896,71.661 L51.893,71.973 L50.889,72.286 L49.885,72.599 L48.882,72.911 L47.878,73.224 L46.875,73.537 L45.875,73.848 L44.874,74.156 L43.869,74.465 L42.865,74.775 L41.868,75.081 L40.869,75.381 L39.862,75.683 L38.856,75.985 L37.861,76.283 L36.863,76.571 L35.854,76.861 L34.845,77.152 L33.846,77.44 L32.844,77.718 L31.841,77.997 L30.836,78.267 L29.831,78.537 L28.825,78.798 L27.818,79.058 L26.809,79.31 L25.802,79.561 L24.792,79.801 L23.783,80.041 L22.771,80.269 L21.747,80.499 L20.898,80.69 L19.943,80.911 L18.907,81.153 L17.808,81.411 L16.654,81.68 L15.46,81.954 L14.241,82.227 L13.011,82.495 L11.783,82.75 L10.573,82.989 L9.396,83.204 L8.258,83.391 L7.727,83.47 L7.206,83.541 L6.705,83.603 L6.226,83.654 L5.776,83.694 L5.353,83.722 L4.962,83.739 L4.611,83.744 L4.299,83.737 L4.033,83.72 L3.827,83.697 L3.68,83.67 L3.604,83.651 L3.628,83.661 L3.733,83.721 L3.914,83.875 L4.136,84.17 L4.285,84.532 L4.33,84.88 L4.304,85.142 L4.274,85.248 L4.278,85.24 L4.337,85.146 L4.444,85.003 L5.19,84.14 L5.957,83.379 L6.784,82.67 L7.658,82.009 L8.579,81.4 L9.554,80.832 L10.572,80.302 L11.631,79.813 L12.735,79.357 L13.873,78.93 L15.043,78.531 L16.236,78.159 L17.478,77.808 L18.721,77.457 L19.984,77.135 L21.267,76.809 L22.552,76.492 L23.85,76.172 L25.15,75.846 L26.45,75.509 L27.745,75.156 L29.034,74.783 L30.313,74.384 L31.56,73.958 L33.282,73.348 L34.994,72.742 L36.707,72.136 L38.413,71.532 L40.124,70.938 L41.84,70.341 L43.557,69.745 L45.267,69.151 L46.982,68.567 L48.702,67.98 L50.422,67.394 L52.138,66.81 L53.856,66.234 L55.579,65.656 L57.303,65.078 L59.021,64.503 L60.742,63.936 L62.469,63.368 L64.196,62.799 L65.918,62.233 L67.643,61.675 L69.373,61.116 L71.103,60.557 L72.829,59.999 L74.557,59.449 L76.29,58.898 L78.023,58.346 L79.751,57.797 L81.482,57.255 L83.218,56.712 L84.955,56.17 L86.686,55.628 L88.419,55.095 L90.158,54.56 L91.897,54.026 L93.632,53.493 L95.368,52.966 L97.11,52.439 L98.851,51.912 L100.588,51.386 L102.327,50.867 L104.07,50.348 L105.814,49.828 L107.553,49.309 L109.295,48.798 L111.041,48.286 L112.787,47.774 L114.527,47.263 L116.27,46.762 L118.018,46.26 L119.767,45.756 L121.516,45.253 L123.265,44.75 L125.013,44.247 L126.762,43.744 L128.502,43.243 L130.247,42.755 L131.999,42.265 L133.751,41.775 L135.504,41.285 L137.256,40.795 L139.008,40.305 L140.761,39.816 L142.506,39.328 L144.253,38.852 L146.008,38.373 L147.763,37.895 L149.519,37.417 L151.274,36.939 L153.029,36.461 L154.784,35.983 L156.533,35.506 L158.284,35.04 L160.041,34.572 L161.799,34.104 L163.556,33.635 L165.313,33.167 L167.07,32.699 L168.827,32.231 L170.578,31.765 L172.331,31.309 L174.09,30.851 L175.849,30.393 L177.608,29.935 L179.367,29.477 L181.126,29.019 L182.885,28.561 L184.638,28.104 L186.393,27.657 L188.152,27.208 L189.912,26.759 L191.672,26.31 L193.432,25.861 L195.192,25.413 L196.952,24.965 L198.709,24.517 L200.378,24.096 L202.05,23.675 L203.722,23.254 L205.392,22.833 L207.062,22.416 L208.735,21.999 L210.408,21.581 L212.078,21.164 L213.748,20.753 L215.423,20.341 L217.098,19.931 L218.769,19.526 L220.442,19.127 L222.119,18.727 L223.797,18.327 L225.468,17.928 L227.141,17.539 L228.821,17.148 L230.5,16.757 L232.172,16.367 L233.847,15.989 L235.528,15.608 L237.21,15.228 L238.879,14.85 L240.234,14.562 L241.604,14.27 L242.974,13.977 L244.327,13.688 L245.684,13.42 L247.058,13.148 L248.433,12.875 L249.8,12.605 L251.169,12.343 L252.546,12.079 L253.922,11.815 L255.299,11.552 L256.675,11.287 L258.055,11.023 L259.434,10.755 L260.815,10.486 L262.195,10.21 L263.577,9.934 L264.956,9.65 L266.339,9.365 L267.719,9.066 L269.101,8.766 L270.481,8.452 L271.857,8.137 L272.808,7.909 L273.954,7.622 L275.225,7.294 L275.893,7.117 L276.566,6.935 L277.238,6.75 L277.904,6.564 L278.555,6.377 L279.181,6.192 L279.78,6.009 L280.344,5.83 L280.864,5.657 L281.344,5.485 L281.789,5.311 L282.166,5.143 L282.431,5.006 L282.695,4.845 L283.024,4.591 L283.242,4.373 L283.752,3.541 L283.752,3.54 L283.753,3.539 L283.754,3.537 L283.754,3.535 L283.756,3.532 L283.757,3.528 L283.758,3.524 L283.791,3.432 L283.846,3.238 L283.889,3.026 L283.914,2.797 L283.919,2.555 L283.899,2.306 L283.855,2.058 L283.787,1.816 L283.744,1.697 L283.743,1.694 L283.742,1.691 L283.741,1.688 L283.74,1.686 L283.739,1.684 L283.739,1.683 L283.738,1.683 L282.874,0.562 L282.43,0.294 L281.853,0.095 L281.483,0.032 L281.187,0.007 L280.91,0 L280.555,0.008 L278.57,0.14 L276.512,0.278 L274.466,0.551 L272.453,0.822 L270.448,1.174 L268.476,1.523 L266.502,1.901 L264.55,2.283 L262.612,2.655 L260.686,3.009 L258.774,3.332 L256.851,3.616 L255.62,3.782 L254.37,3.952 L253.12,4.121 L251.871,4.29 L250.621,4.459 L249.372,4.628 L248.122,4.798 L246.873,4.967 L245.624,5.135 L244.374,5.304 L243.125,5.472 L241.875,5.641 L240.625,5.809 L239.375,5.978 L238.125,6.147 L236.874,6.315 L235.624,6.485 L234.374,6.654 L233.124,6.823 L231.874,6.992 L230.624,7.162 L229.374,7.331 L228.124,7.5 L226.872,7.669 L225.621,7.841 L224.371,8.012 L223.121,8.183 L221.872,8.354 L220.622,8.525 L219.372,8.696 L218.122,8.868 L216.869,9.04 L215.617,9.215 L214.368,9.39 L213.118,9.565 L211.869,9.739 L210.62,9.914 L209.371,10.089 L208.122,10.264 L206.867,10.439 L205.614,10.62 L204.365,10.799 L203.117,10.979 L201.869,11.158 L200.62,11.338 L199.372,11.518 L198.123,11.697 L196.869,11.878 L195.616,12.064 L194.368,12.249 L193.121,12.434 L191.873,12.619 L190.626,12.805 L189.378,12.99 L188.131,13.175 L186.875,13.362 L185.621,13.555 L184.375,13.748 L183.129,13.941 L181.882,14.134 L180.636,14.326 L179.39,14.519 L178.144,14.712 L176.888,14.906 L175.634,15.109 L174.389,15.311 L173.145,15.513 L171.9,15.715 L170.655,15.917 L169.411,16.119 L168.166,16.32 L166.914,16.523 L165.664,16.733 L164.42,16.942 L163.177,17.151 L161.927,17.361 L160.679,17.576 L159.437,17.79 L158.194,18.004 L156.946,18.22 L155.698,18.441 L154.457,18.661 L153.215,18.882 L151.968,19.103 L150.722,19.33 L149.481,19.556 L148.241,19.782 L146.994,20.009 L145.747,20.243 L144.508,20.475 L143.269,20.708 L142.023,20.943 L140.778,21.184 L139.54,21.425 L138.302,21.665 L137.044,21.909 L135.913,22.148 L134.805,22.382 L133.697,22.616 L132.588,22.85 L131.48,23.084 L130.372,23.319 L129.264,23.553 L128.155,23.787 L127.047,24.021 L125.939,24.255 L124.831,24.489 L123.722,24.723 L122.614,24.958 L121.506,25.192 L120.398,25.426 L119.26,25.667 L118.127,25.933 L117.024,26.193 L115.921,26.452 L114.819,26.712 L113.716,26.972 L112.613,27.231 L111.51,27.491 L110.407,27.751 L109.305,28.01 L108.202,28.27 L107.099,28.529 L105.996,28.789 L104.893,29.049 L103.791,29.308 L102.688,29.568 L101.572,29.831 L100.459,30.105 L99.359,30.376 L98.258,30.647 L97.158,30.917 L96.058,31.188 L94.958,31.459 L93.858,31.73 L92.758,32.001 L91.658,32.271 L90.558,32.542 L89.458,32.813 L88.358,33.084 L87.258,33.355 L86.158,33.626 L85.057,33.896 L83.956,34.168 L82.583,34.507 L81.211,34.847 L79.839,35.186 L78.463,35.526 L77.088,35.871 L75.717,36.216 L74.346,36.56 L72.964,36.906 L71.584,37.265 L70.216,37.621 L68.849,37.978 L67.469,38.337 L66.094,38.708 L64.719,39.078 L63.347,39.46 L61.974,39.842 L60.605,40.237 L59.235,40.632 L57.869,41.04 L56.501,41.449 L55.137,41.874 L53.772,42.299 L52.413,42.743 L51.105,43.169 L49.805,43.555 L48.407,43.89 L46.888,44.213 L46.105,44.376 L45.3,44.546 L44.485,44.724 L43.664,44.915 L42.836,45.123 L42.012,45.352 L41.191,45.606 L40.371,45.894 L39.566,46.219 L38.773,46.587 L37.991,47.012 L37.241,47.496 L36.52,48.046 L35.833,48.683 L35.213,49.396 L34.66,50.188 L34.19,51.073 L33.854,51.937 L33.699,52.482 L33.612,52.989 L33.581,53.508 L33.613,54.047 L33.725,54.607 L33.987,55.295 L34.47,56.061 L35.205,56.77 L35.957,57.237 L36.696,57.554 L37.437,57.774 L38.162,57.922 L38.888,58.027 L39.627,58.097 L40.396,58.143 L41.86,58.183 L43.354,58.189 L44.803,58.195 L45.469,58.207 L46.103,58.23 L46.689,58.266 L47.215,58.315 L47.656,58.377 L48.104,58.472 C49.554,58.773 50.973,57.843 51.274,56.393 C51.575,54.944 50.645,53.525 49.196,53.224 Z" id="Fill-273"></path>
        </g>
    </g>
</svg>
