<?xml version="1.0" encoding="UTF-8"?>
<svg width="403px" height="142px" viewBox="0 0 403 142" version="1.1" xmlns="http://www.w3.org/2000/svg" xmlns:xlink="http://www.w3.org/1999/xlink">
    <title>186</title>
    <g id="Page-1" stroke="none" stroke-width="1" fill="none" fill-rule="evenodd">
        <g id="186" transform="translate(0.557611, 0.732000)" fill="currentColor">
            <path d="M20.599,78.98 L21.938,78.603 L23.276,78.226 L24.615,77.85 L25.963,77.47 L27.308,77.081 L28.644,76.695 L29.981,76.308 L31.323,75.92 L32.663,75.525 L33.998,75.133 L35.333,74.74 L36.67,74.346 L38.007,73.95 L39.341,73.554 L40.675,73.158 L42.009,72.762 L43.343,72.366 L44.676,71.971 L46.01,71.575 L47.341,71.18 L48.673,70.788 L50.007,70.396 L51.342,70.003 L52.671,69.612 L54.001,69.227 L55.338,68.841 L56.674,68.454 L58.001,68.07 L59.33,67.695 L60.669,67.318 L62.007,66.941 L63.333,66.568 L64.663,66.207 L66.004,65.843 L67.346,65.479 L68.674,65.119 L70.005,64.773 L71.35,64.423 L72.696,64.074 L74.023,63.729 L75.354,63.404 L76.704,63.073 L78.055,62.743 L79.383,62.418 L80.717,62.116 L82.072,61.808 L83.428,61.501 L84.768,61.197 L86.343,60.858 L87.932,60.516 L89.521,60.174 L91.11,59.833 L92.698,59.491 L94.287,59.149 L95.876,58.807 L97.457,58.467 L99.04,58.136 L100.631,57.804 L102.222,57.471 L103.813,57.139 L105.403,56.806 L106.994,56.474 L108.585,56.141 L110.169,55.81 L111.754,55.487 L113.347,55.163 L114.939,54.839 L116.532,54.515 L118.124,54.19 L119.717,53.866 L121.309,53.542 L122.896,53.219 L124.484,52.903 L126.078,52.585 L127.672,52.268 L129.266,51.95 L130.86,51.633 L132.454,51.315 L134.047,50.998 L135.636,50.681 L137.226,50.371 L138.821,50.06 L140.416,49.749 L142.011,49.438 L143.606,49.128 L145.202,48.817 L146.797,48.506 L148.387,48.196 L149.979,47.891 L151.576,47.586 L153.172,47.28 L154.768,46.975 L156.365,46.669 L157.961,46.364 L159.557,46.059 L161.15,45.754 L162.744,45.453 L164.341,45.152 L165.938,44.851 L167.535,44.55 L169.132,44.249 L170.73,43.948 L172.327,43.647 L173.921,43.346 L175.516,43.049 L177.114,42.752 L178.712,42.455 L180.309,42.158 L181.907,41.86 L183.505,41.563 L185.103,41.266 L186.699,40.969 L188.295,40.675 L189.894,40.38 L191.492,40.086 L193.09,39.791 L194.689,39.497 L196.287,39.202 L197.886,38.908 L199.483,38.614 L201.08,38.321 L202.679,38.028 L204.278,37.736 L205.876,37.443 L207.475,37.15 L209.074,36.858 L210.673,36.565 L212.271,36.272 L213.869,35.981 L215.468,35.689 L217.067,35.398 L218.665,35.106 L220.264,34.815 L221.863,34.523 L223.462,34.231 L225.061,33.94 L226.66,33.648 L228.259,33.357 L229.858,33.065 L231.456,32.774 L233.055,32.482 L234.654,32.191 L236.253,31.899 L237.848,31.609 L239.074,31.389 L240.304,31.169 L241.535,30.949 L242.766,30.729 L243.996,30.509 L245.227,30.289 L246.458,30.069 L247.679,29.851 L248.902,29.641 L250.134,29.429 L251.366,29.218 L252.599,29.006 L253.831,28.795 L255.063,28.583 L256.295,28.372 L257.52,28.161 L258.746,27.958 L259.979,27.754 L261.212,27.549 L262.446,27.344 L263.679,27.14 L264.912,26.935 L266.146,26.731 L267.374,26.527 L268.603,26.328 L269.837,26.129 L271.071,25.929 L272.305,25.73 L273.539,25.53 L274.774,25.331 L276.008,25.131 L277.238,24.932 L278.468,24.737 L279.703,24.542 L280.938,24.346 L282.173,24.151 L283.408,23.955 L284.643,23.759 L285.878,23.564 L287.11,23.369 L288.343,23.176 L289.578,22.983 L290.813,22.79 L292.049,22.596 L293.284,22.403 L294.519,22.21 L295.754,22.016 L296.989,21.823 L298.224,21.63 L299.459,21.437 L300.694,21.244 L301.93,21.051 L303.165,20.859 L304.4,20.666 L305.636,20.473 L306.871,20.28 L308.107,20.087 L309.342,19.894 L310.577,19.701 L311.813,19.509 L313.048,19.316 L314.283,19.123 L315.519,18.93 L316.758,18.737 L317.997,18.539 L319.232,18.342 L320.467,18.145 L321.701,17.949 L322.936,17.752 L324.171,17.555 L325.405,17.358 L326.64,17.161 L327.875,16.964 L329.11,16.768 L330.344,16.571 L331.579,16.374 L332.814,16.177 L334.048,15.98 L335.283,15.784 L336.529,15.585 L337.773,15.376 L339.006,15.168 L340.239,14.961 L341.472,14.753 L342.705,14.546 L343.938,14.339 L345.17,14.131 L346.403,13.924 L347.636,13.716 L348.869,13.509 L350.102,13.302 L351.335,13.094 L352.568,12.887 L353.801,12.679 L355.033,12.472 L356.279,12.262 L357.578,12.031 L358.866,11.802 L360.153,11.573 L361.448,11.343 L362.742,11.105 L364.029,10.869 L365.315,10.632 L366.603,10.395 L367.891,10.156 L369.177,9.918 L370.463,9.679 L371.746,9.441 L373.029,9.206 L374.316,8.971 L375.602,8.735 L376.88,8.501 L378.16,8.275 L379.448,8.047 L380.735,7.82 L382.009,7.595 L383.285,7.383 L384.575,7.17 L385.866,6.956 L387.149,6.744 L387.65,6.666 L388.237,6.577 L388.89,6.482 L389.593,6.381 L390.34,6.277 L391.115,6.171 L392.725,5.956 L394.335,5.749 L395.86,5.563 L396.56,5.481 L397.21,5.409 L397.793,5.347 L398.302,5.298 L398.712,5.263 L399.021,5.243 L399.088,5.24 L399.108,5.24 L399.029,5.236 L398.951,5.23 L398.218,5.027 L398.218,5.027 L398.219,5.028 L398.219,5.028 L398.219,5.028 L398.22,5.028 L398.22,5.028 L398.221,5.029 L398.222,5.029 L398.223,5.03 L398.224,5.03 L398.225,5.031 L398.227,5.031 L398.228,5.032 L398.23,5.032 L398.231,5.033 L398.188,5.013 L398.092,4.967 L397.986,4.909 L397.87,4.838 L397.742,4.749 L397.603,4.64 L397.455,4.504 L397.302,4.338 L397.147,4.138 L397,3.899 L396.871,3.625 L396.769,3.321 L396.705,2.998 L396.681,2.671 L396.698,2.356 L396.748,2.064 L396.782,1.929 L396.782,1.93 L396.782,1.931 L396.782,1.932 L396.781,1.933 L396.781,1.934 L396.781,1.934 L396.781,1.935 L396.781,1.936 L396.78,1.936 L396.78,1.936 L396.78,1.937 L396.78,1.937 L396.78,1.937 L396.78,1.937 L401.817,3.383 L401.822,3.365 L396.785,1.92 L396.785,1.921 L396.784,1.922 L396.784,1.923 L396.784,1.924 L396.783,1.926 L396.783,1.928 L396.861,1.697 L397.044,1.322 L397.229,1.049 L397.398,0.853 L397.545,0.71 L397.671,0.605 L397.777,0.526 L397.866,0.466 L397.903,0.442 L397.9,0.444 L397.896,0.447 L397.893,0.448 L397.891,0.45 L397.889,0.451 L397.888,0.451 L397.888,0.452 L398.316,0.239 L398.349,0.229 L398.362,0.224 L398.291,0.244 L398.158,0.276 L397.971,0.319 L396.984,0.535 L395.992,0.753 L395,0.97 L394.016,1.186 L393.031,1.396 L392.038,1.608 L391.045,1.819 L390.059,2.029 L389.072,2.234 L388.078,2.44 L387.084,2.647 L386.096,2.852 L385.107,3.052 L384.112,3.254 L383.117,3.456 L382.128,3.656 L381.139,3.852 L380.143,4.049 L379.147,4.246 L378.156,4.443 L377.165,4.635 L376.168,4.828 L375.172,5.021 L374.181,5.212 L373.19,5.399 L372.192,5.588 L371.195,5.776 L370.197,5.964 L369.199,6.152 L368.202,6.34 L367.204,6.529 L366.214,6.715 L365.223,6.896 L364.224,7.079 L363.225,7.261 L362.226,7.444 L361.227,7.626 L360.229,7.809 L359.23,7.991 L358.236,8.173 L357.241,8.351 L356.242,8.529 L355.242,8.708 L354.242,8.886 L353.243,9.065 L352.243,9.244 L351.244,9.422 L350.247,9.6 L349.25,9.776 L348.25,9.952 L347.25,10.129 L346.25,10.305 L345.25,10.481 L344.249,10.658 L343.249,10.834 L342.249,11.01 L341.249,11.187 L340.249,11.363 L339.249,11.54 L338.249,11.716 L337.249,11.893 L336.249,12.069 L335.249,12.246 L334.246,12.423 L333.244,12.602 L332.244,12.781 L331.244,12.96 L330.245,13.138 L329.245,13.317 L328.245,13.496 L327.246,13.674 L326.246,13.853 L325.246,14.032 L324.247,14.21 L323.247,14.389 L322.248,14.568 L321.248,14.746 L320.248,14.925 L319.249,15.104 L318.237,15.285 L317.227,15.475 L316.229,15.664 L315.231,15.852 L314.234,16.041 L313.236,16.229 L312.238,16.417 L311.24,16.606 L310.243,16.794 L309.245,16.983 L308.247,17.171 L307.25,17.359 L306.252,17.548 L305.254,17.736 L304.256,17.925 L303.259,18.113 L302.25,18.303 L301.212,18.508 L300.185,18.712 L299.157,18.915 L298.129,19.118 L297.102,19.321 L296.074,19.524 L295.046,19.727 L294.019,19.93 L292.991,20.133 L291.964,20.336 L290.936,20.539 L289.908,20.742 L288.881,20.945 L287.853,21.148 L286.825,21.351 L285.792,21.555 L284.76,21.764 L283.733,21.972 L282.706,22.18 L281.679,22.388 L280.652,22.596 L279.625,22.803 L278.598,23.011 L277.571,23.219 L276.544,23.427 L275.517,23.635 L274.49,23.843 L273.463,24.051 L272.436,24.258 L271.409,24.466 L270.382,24.674 L269.349,24.883 L268.317,25.098 L267.291,25.311 L266.265,25.524 L265.239,25.737 L264.212,25.95 L263.186,26.162 L262.16,26.375 L261.134,26.588 L260.108,26.801 L259.082,27.014 L258.056,27.227 L257.03,27.44 L256.004,27.653 L254.977,27.866 L253.951,28.079 L252.919,28.294 L251.888,28.513 L250.863,28.731 L249.838,28.949 L248.812,29.167 L247.787,29.385 L246.762,29.603 L245.737,29.821 L244.712,30.039 L243.687,30.257 L242.661,30.475 L241.636,30.693 L240.611,30.911 L239.586,31.129 L238.561,31.347 L237.536,31.565 L236.503,31.784 L235.472,32.01 L234.448,32.233 L233.424,32.457 L232.4,32.681 L231.376,32.906 L230.352,33.13 L229.328,33.354 L228.305,33.578 L227.281,33.802 L226.257,34.027 L225.233,34.251 L224.209,34.475 L223.185,34.699 L222.161,34.923 L221.137,35.148 L220.106,35.374 L219.075,35.606 L218.053,35.836 L217.03,36.067 L216.008,36.297 L214.985,36.528 L213.963,36.758 L212.94,36.989 L211.918,37.219 L210.895,37.45 L209.873,37.68 L208.85,37.911 L207.828,38.142 L206.805,38.372 L205.783,38.603 L204.76,38.833 L203.732,39.065 L202.705,39.301 L201.684,39.536 L200.663,39.771 L199.641,40.006 L198.62,40.241 L197.598,40.476 L196.577,40.711 L195.551,40.948 L194.526,41.187 L193.506,41.425 L192.485,41.664 L191.464,41.902 L190.444,42.141 L189.423,42.379 L188.402,42.618 L187.377,42.857 L186.354,43.101 L185.334,43.343 L184.314,43.585 L183.294,43.827 L182.274,44.069 L181.255,44.311 L180.235,44.553 L179.211,44.796 L178.188,45.042 L177.17,45.289 L176.151,45.535 L175.132,45.781 L174.113,46.027 L173.095,46.273 L172.076,46.519 L171.053,46.766 L170.03,47.017 L169.013,47.267 L167.995,47.516 L166.977,47.766 L165.959,48.016 L164.941,48.266 L163.924,48.516 L162.901,48.767 L161.88,49.021 L160.863,49.275 L159.846,49.529 L158.829,49.782 L157.813,50.036 L156.796,50.29 L155.779,50.543 L154.758,50.798 L153.738,51.056 L152.722,51.313 L151.707,51.571 L150.691,51.828 L149.675,52.085 L148.659,52.342 L147.643,52.6 L146.623,52.858 L145.603,53.121 L144.589,53.382 L143.574,53.643 L142.559,53.904 L141.544,54.166 L140.53,54.427 L139.515,54.688 L138.496,54.951 L137.477,55.217 L136.464,55.483 L135.45,55.748 L134.436,56.014 L133.423,56.279 L132.409,56.545 L131.396,56.81 L130.378,57.077 L129.361,57.347 L128.348,57.617 L127.336,57.886 L126.323,58.155 L125.311,58.424 L124.298,58.694 L123.286,58.963 L122.269,59.234 L121.252,59.509 L120.241,59.783 L119.23,60.057 L118.219,60.331 L117.208,60.604 L116.196,60.878 L115.185,61.152 L114.169,61.427 L113.154,61.707 L112.144,61.985 L111.134,62.263 L110.124,62.541 L109.114,62.82 L108.104,63.098 L107.095,63.376 L106.079,63.656 L104.754,64.027 L103.432,64.397 L102.111,64.767 L100.79,65.137 L99.468,65.507 L98.147,65.877 L96.825,66.246 L95.498,66.618 L94.172,66.997 L92.853,67.374 L91.533,67.751 L90.214,68.129 L88.894,68.506 L87.575,68.883 L86.255,69.26 L84.928,69.639 L83.604,70.028 L82.287,70.414 L80.97,70.801 L79.653,71.187 L78.336,71.573 L77.019,71.96 L75.703,72.346 L74.377,72.735 L73.055,73.133 L71.742,73.529 L70.427,73.924 L69.113,74.318 L67.798,74.712 L66.484,75.106 L65.169,75.5 L63.845,75.897 L62.523,76.307 L61.213,76.713 L59.902,77.12 L58.592,77.526 L57.281,77.932 L55.97,78.339 L54.66,78.745 L53.337,79.155 L52.019,79.58 L50.713,80 L49.407,80.421 L48.101,80.842 L46.795,81.262 L45.489,81.683 L44.183,82.104 L42.881,82.523 L41.155,83.072 L39.441,83.618 L37.712,84.14 L35.975,84.665 L34.23,85.18 L32.477,85.697 L30.723,86.214 L28.961,86.734 L27.203,87.265 L25.436,87.799 L23.681,88.358 L21.92,88.918 L20.175,89.511 L18.42,90.108 L16.689,90.752 L14.949,91.4 L13.239,92.107 L11.537,92.813 L9.835,93.577 L8.156,94.378 L6.498,95.223 L4.858,96.112 L3.237,97.052 L1.659,98.034 L1.296,98.292 L0.956,98.597 L0.651,98.951 L0.387,99.36 L0.177,99.833 L0.05,100.319 L0,100.808 L0.024,101.291 L0.107,101.723 L0.231,102.116 L0.39,102.479 L0.609,102.866 L0.961,103.361 L1.41,103.859 L1.887,104.301 L2.395,104.71 L2.94,105.097 L3.509,105.459 L4.1,105.802 L4.716,106.127 L5.346,106.428 L5.988,106.709 L6.642,106.967 L7.296,107.197 L7.95,107.4 L8.608,107.573 L9.257,107.708 L9.904,107.808 L10.56,107.861 L11.196,107.856 L12.4,107.778 L13.588,107.7 L14.774,107.602 L15.959,107.504 L17.142,107.387 L18.321,107.27 L19.499,107.137 L20.678,107.004 L21.854,106.854 L23.029,106.705 L24.202,106.54 L25.373,106.376 L26.543,106.2 L27.712,106.024 L28.881,105.835 L30.047,105.646 L31.213,105.447 L32.376,105.248 L33.539,105.04 L34.701,104.832 L35.862,104.616 L37.022,104.4 L38.18,104.178 L39.34,103.955 L40.498,103.726 L41.65,103.497 L42.801,103.269 L43.959,103.04 L45.115,102.804 L46.266,102.57 L47.417,102.336 L48.568,102.102 L49.719,101.867 L50.87,101.633 L52.021,101.399 L53.168,101.166 L54.315,100.937 L55.467,100.707 L56.618,100.477 L57.76,100.25 L58.903,100.032 L60.056,99.812 L61.208,99.593 L62.346,99.376 L63.485,99.175 L64.639,98.971 L65.793,98.768 L66.938,98.566 L68.397,98.32 L69.864,98.072 L71.331,97.825 L72.797,97.578 L74.264,97.331 L75.73,97.083 L77.197,96.836 L78.664,96.589 L80.13,96.342 L81.597,96.094 L83.063,95.847 L84.53,95.6 L85.997,95.353 L87.463,95.105 L88.93,94.858 L90.397,94.611 L91.865,94.362 L93.331,94.113 L94.798,93.865 L96.264,93.616 L97.73,93.367 L99.197,93.119 L100.663,92.87 L102.129,92.622 L103.596,92.373 L105.062,92.124 L106.529,91.876 L107.995,91.627 L109.461,91.379 L110.928,91.13 L112.394,90.881 L113.863,90.632 L115.331,90.38 L116.797,90.128 L118.263,89.876 L119.729,89.624 L121.195,89.372 L122.66,89.12 L124.126,88.868 L125.592,88.616 L127.058,88.364 L128.524,88.112 L129.989,87.861 L131.455,87.609 L132.921,87.357 L134.387,87.105 L135.853,86.853 L137.319,86.601 L138.896,86.329 L140.472,86.057 L142.048,85.786 L143.625,85.514 L145.201,85.242 L146.777,84.971 L148.354,84.699 L149.928,84.427 L151.502,84.159 L153.079,83.89 L154.656,83.622 L156.233,83.353 L157.81,83.084 L159.387,82.816 L160.964,82.547 L162.538,82.279 L164.114,82.013 L165.691,81.747 L167.268,81.481 L168.846,81.215 L170.423,80.95 L172,80.684 L173.578,80.418 L175.153,80.152 L176.73,79.889 L178.307,79.625 L179.885,79.361 L181.463,79.097 L183.04,78.834 L184.618,78.57 L186.196,78.306 L187.772,78.043 L189.349,77.781 L190.927,77.52 L192.505,77.258 L194.083,76.996 L195.661,76.735 L197.239,76.473 L198.817,76.211 L200.394,75.95 L201.971,75.69 L203.549,75.43 L205.128,75.17 L206.706,74.91 L208.284,74.65 L209.863,74.39 L211.441,74.13 L213.018,73.87 L214.596,73.611 L216.174,73.353 L217.753,73.094 L219.331,72.836 L220.91,72.577 L222.488,72.319 L224.067,72.06 L225.646,71.802 L227.224,71.543 L228.803,71.285 L230.381,71.026 L231.96,70.768 L233.538,70.509 L235.117,70.251 L236.696,69.992 L238.273,69.734 L239.851,69.477 L241.43,69.219 L243.009,68.962 L244.588,68.704 L246.167,68.447 L247.745,68.189 L249.324,67.932 L250.903,67.674 L252.481,67.417 L254.06,67.159 L255.639,66.902 L257.218,66.644 L258.796,66.387 L260.375,66.13 L261.954,65.872 L263.533,65.615 L265.112,65.356 L266.691,65.098 L268.269,64.84 L269.848,64.582 L271.427,64.324 L273.005,64.066 L274.584,63.808 L276.163,63.55 L277.741,63.292 L279.32,63.034 L280.899,62.775 L282.477,62.517 L284.056,62.259 L285.634,62.001 L287.213,61.743 L288.796,61.484 L290.711,61.165 L292.624,60.846 L294.537,60.526 L296.456,60.206 L298.373,59.875 L300.284,59.545 L302.195,59.215 L304.111,58.884 L306.026,58.543 L307.935,58.203 L309.845,57.863 L311.758,57.522 L313.671,57.173 L315.579,56.825 L317.486,56.476 L319.399,56.127 L321.309,55.77 L323.216,55.414 L325.122,55.058 L327.032,54.701 L328.941,54.337 L330.846,53.974 L332.751,53.611 L334.651,53.249 L335.008,53.186 L335.391,53.129 L335.81,53.077 L336.256,53.03 L336.728,52.988 L337.214,52.952 L338.279,52.889 L339.401,52.843 L340.576,52.807 L341.785,52.778 L343.018,52.751 L344.257,52.722 L345.492,52.686 L346.71,52.639 L347.896,52.576 L349.043,52.491 L350.143,52.379 L351.153,52.235 L351.676,52.141 L352.163,52.037 L352.631,51.918 L353.088,51.78 L353.54,51.616 L353.978,51.421 L354.411,51.185 L354.847,50.882 L355.258,50.508 L355.636,50.037 L355.948,49.446 L356.13,48.798 L356.176,48.131 L356.089,47.479 L355.907,46.905 L355.66,46.387 L355.356,45.905 L355.012,45.461 L354.622,45.023 L354.205,44.614 L353.771,44.245 L353.319,43.909 L352.844,43.605 L352.362,43.342 L351.868,43.111 L351.36,42.912 L350.85,42.749 L350.336,42.615 L349.814,42.509 L349.247,42.426 L348.252,42.345 L347.199,42.346 L346.152,42.419 L345.106,42.548 L344.056,42.729 L343.012,42.951 L341.971,43.202 L340.932,43.479 L339.901,43.771 L338.879,44.072 L337.87,44.375 L336.881,44.67 L335.904,44.949 L334.966,45.218 L333.144,45.665 L331.433,45.955 L329.511,46.2 L327.538,46.452 L325.567,46.717 L323.597,46.981 L321.628,47.258 L319.66,47.535 L317.694,47.822 L315.727,48.109 L313.762,48.406 L311.798,48.703 L309.835,49.009 L307.871,49.315 L305.909,49.631 L303.953,49.947 L301.996,50.262 L300.033,50.579 L298.072,50.908 L296.117,51.235 L294.163,51.563 L292.204,51.891 L290.246,52.227 L288.293,52.562 L286.34,52.898 L284.384,53.233 L282.542,53.555 L280.702,53.875 L278.862,54.196 L277.019,54.517 L275.177,54.845 L273.338,55.172 L271.499,55.499 L269.657,55.826 L267.816,56.16 L265.978,56.494 L264.141,56.827 L262.3,57.161 L260.46,57.501 L258.623,57.84 L256.787,58.179 L254.946,58.519 L253.107,58.866 L251.272,59.212 L249.437,59.558 L247.597,59.904 L245.76,60.258 L243.926,60.61 L242.092,60.963 L240.254,61.316 L238.418,61.676 L236.585,62.035 L234.752,62.394 L232.915,62.753 L231.08,63.119 L229.248,63.485 L227.417,63.851 L225.581,64.217 L223.747,64.591 L221.917,64.963 L220.087,65.336 L218.254,65.71 L216.421,66.09 L214.593,66.469 L212.764,66.848 L210.931,67.229 L209.1,67.617 L207.273,68.003 L205.446,68.39 L203.615,68.778 L201.785,69.173 L199.96,69.568 L198.134,69.962 L196.305,70.357 L194.477,70.759 L192.654,71.161 L190.83,71.562 L189.001,71.965 L187.175,72.375 L185.353,72.784 L183.531,73.193 L181.704,73.603 L179.88,74.022 L178.059,74.439 L176.239,74.856 L174.415,75.274 L172.592,75.7 L170.774,76.124 L168.955,76.549 L167.132,76.974 L165.311,77.408 L163.494,77.841 L161.678,78.274 L159.857,78.708 L158.037,79.15 L156.223,79.591 L154.408,80.032 L152.589,80.474 L150.772,80.924 L148.96,81.373 L147.147,81.822 L145.329,82.272 L143.514,82.731 L141.704,83.188 L139.893,83.646 L138.078,84.104 L136.264,84.572 L134.456,85.038 L132.648,85.504 L130.835,85.972 L129.024,86.447 L127.218,86.922 L125.411,87.396 L123.6,87.872 L121.791,88.357 L119.987,88.84 L118.183,89.323 L116.374,89.808 L114.567,90.302 L112.765,90.795 L110.964,91.287 L109.166,91.779 L107.812,92.142 L106.455,92.486 L105.084,92.816 L103.703,93.138 L102.313,93.451 L100.915,93.76 L99.51,94.067 L98.098,94.376 L96.688,94.692 L95.268,95.01 L93.855,95.347 L92.436,95.687 L91.03,96.056 L89.611,96.428 L88.213,96.844 L86.803,97.264 L85.42,97.741 L84.045,98.217 L82.663,98.75 L81.302,99.32 L79.959,99.934 L78.63,100.591 L77.317,101.301 L76.048,102.051 L75.698,102.283 L75.369,102.552 L75.058,102.875 L74.765,103.285 L74.521,103.824 L74.399,104.439 L74.428,105.078 L74.607,105.675 L74.864,106.138 L75.151,106.498 L75.454,106.784 L75.747,107.006 L76.036,107.191 L76.332,107.353 L76.627,107.494 L76.925,107.621 L77.235,107.739 L77.575,107.856 L78.204,108.046 L78.899,108.225 L79.625,108.385 L80.376,108.53 L81.152,108.661 L81.942,108.776 L82.737,108.877 L83.535,108.964 L84.34,109.036 L85.848,109.134 L87.258,109.167 L88.471,109.127 L90.448,108.976 L92.402,108.801 L94.351,108.602 L96.297,108.383 L98.238,108.143 L100.18,107.885 L102.108,107.605 L104.039,107.324 L105.967,107.015 L107.891,106.707 L109.813,106.377 L111.731,106.049 L113.647,105.706 L115.56,105.364 L117.473,105.013 L119.381,104.664 L121.29,104.312 L123.195,103.961 L125.101,103.613 L127.003,103.267 L128.906,102.931 L130.805,102.596 L132.706,102.278 L134.614,101.96 L135.765,101.771 L136.922,101.583 L138.078,101.394 L139.234,101.205 L140.391,101.016 L141.547,100.827 L142.703,100.638 L143.86,100.45 L145.016,100.261 L146.172,100.072 L147.328,99.883 L148.485,99.694 L149.641,99.505 L150.797,99.316 L151.954,99.128 L153.114,98.938 L154.273,98.745 L155.428,98.552 L156.584,98.359 L157.74,98.166 L158.895,97.973 L160.051,97.78 L161.207,97.588 L162.362,97.395 L163.518,97.202 L164.674,97.009 L165.829,96.816 L166.985,96.623 L168.141,96.43 L169.296,96.238 L170.452,96.045 L171.611,95.851 L172.77,95.654 L173.925,95.456 L175.08,95.259 L176.235,95.062 L177.39,94.865 L178.545,94.668 L179.7,94.471 L180.855,94.274 L182.009,94.077 L183.164,93.88 L184.319,93.683 L185.474,93.485 L186.629,93.288 L187.784,93.091 L188.939,92.894 L190.097,92.696 L191.323,92.483 L192.545,92.27 L193.767,92.057 L194.989,91.844 L196.211,91.632 L197.433,91.419 L198.655,91.206 L199.88,90.993 L201.105,90.775 L202.326,90.559 L203.547,90.342 L204.769,90.126 L205.99,89.909 L207.211,89.693 L208.433,89.476 L209.657,89.259 L210.88,89.039 L212.101,88.819 L213.322,88.599 L214.543,88.38 L215.763,88.16 L216.984,87.94 L218.205,87.72 L219.428,87.5 L220.65,87.278 L221.871,87.056 L223.091,86.834 L224.311,86.612 L225.532,86.39 L226.752,86.168 L227.972,85.945 L229.194,85.723 L230.416,85.499 L231.636,85.274 L232.856,85.05 L234.076,84.826 L235.296,84.602 L236.516,84.378 L237.736,84.154 L238.957,83.93 L240.178,83.704 L241.398,83.478 L242.618,83.253 L243.838,83.027 L245.057,82.801 L246.277,82.576 L247.497,82.35 L248.717,82.124 L249.938,81.897 L251.157,81.67 L252.377,81.444 L253.596,81.217 L254.816,80.99 L256.036,80.764 L257.255,80.537 L258.475,80.31 L259.694,80.084 L260.914,79.857 L262.133,79.63 L263.353,79.404 L264.572,79.177 L265.792,78.95 L267.011,78.723 L268.231,78.497 L269.45,78.271 L270.67,78.044 L271.889,77.818 L273.109,77.592 L274.328,77.366 L275.548,77.139 L276.768,76.913 L277.987,76.687 L279.207,76.46 L280.427,76.234 L281.646,76.008 L282.866,75.782 L284.085,75.555 L285.305,75.329 L286.525,75.103 L287.742,74.877 L288.96,74.654 L290.18,74.431 L291.4,74.208 L292.62,73.984 L293.84,73.761 L295.06,73.538 L296.281,73.314 L297.501,73.091 L298.721,72.867 L299.941,72.644 L301.161,72.42 L302.381,72.197 L303.601,71.973 L304.821,71.75 L306.042,71.526 L307.259,71.303 L308.01,71.168 L308.823,71.025 L309.693,70.875 L310.61,70.718 L311.576,70.556 L312.585,70.388 L313.631,70.215 L314.714,70.038 L315.828,69.857 L316.968,69.672 L318.131,69.485 L319.315,69.296 L320.52,69.104 L321.724,68.912 L322.945,68.719 L324.166,68.526 L325.387,68.333 L326.608,68.14 L327.815,67.95 L329.022,67.76 L330.198,67.575 L331.375,67.389 L332.503,67.211 L333.632,67.033 L334.719,66.861 L335.772,66.693 L336.784,66.532 L337.758,66.376 L338.685,66.226 L339.561,66.084 L340.387,65.949 L341.155,65.822 L341.86,65.703 L342.506,65.593 L343.083,65.492 L343.588,65.401 L344.027,65.318 L344.396,65.245 L344.702,65.177 L344.916,65.122 L345.195,65.027 L345.196,65.027 L345.196,65.026 L345.197,65.026 L345.198,65.025 L345.2,65.025 L345.202,65.024 L345.204,65.023 L345.206,65.022 L345.208,65.021 L345.211,65.02 L345.214,65.019 L345.218,65.017 L345.222,65.016 L345.226,65.014 L345.23,65.012 L345.255,65.002 L345.304,64.98 L345.36,64.953 L345.425,64.919 L345.503,64.875 L345.595,64.816 L345.707,64.736 L345.842,64.623 L346.005,64.456 L346.193,64.206 L346.381,63.832 L346.505,63.313 L346.479,62.705 L346.285,62.147 L346.007,61.74 L345.735,61.481 L345.612,61.391 L345.611,61.39 L345.609,61.389 L345.608,61.388 L345.607,61.387 L345.606,61.386 L345.605,61.386 L345.604,61.385 L345.603,61.385 L345.602,61.384 L345.602,61.384 L345.601,61.383 L345.601,61.383 L345.601,61.383 L345.6,61.383 L345.6,61.383 L344.614,61.034 L344.469,61.024 L344.288,61.023 L344.131,61.028 L343.97,61.036 L343.792,61.049 L343.593,61.065 L343.372,61.084 L343.124,61.107 L342.85,61.133 L342.549,61.164 L342.219,61.199 L341.852,61.238 L340.429,61.398 L338.998,61.56 L337.569,61.733 L336.139,61.907 L334.711,62.093 L333.284,62.278 L331.857,62.474 L330.43,62.67 L329.004,62.878 L327.578,63.085 L326.153,63.303 L324.725,63.522 L323.299,63.754 L321.883,63.985 L320.467,64.216 L319.037,64.45 L317.609,64.702 L316.194,64.953 L314.78,65.203 L313.353,65.456 L311.928,65.727 L310.515,65.995 L309.102,66.263 L307.678,66.533 L306.257,66.818 L304.846,67.102 L303.434,67.385 L302.012,67.67 L300.593,67.97 L299.183,68.268 L297.773,68.566 L296.354,68.866 L294.937,69.18 L293.529,69.491 L292.121,69.803 L290.705,70.116 L289.292,70.44 L287.885,70.762 L286.478,71.085 L285.065,71.409 L283.652,71.743 L282.248,72.076 L280.843,72.409 L279.432,72.743 L278.022,73.087 L276.619,73.429 L275.216,73.77 L273.808,74.114 L272.401,74.463 L270.999,74.812 L269.597,75.161 L268.191,75.511 L266.787,75.867 L265.386,76.222 L263.986,76.576 L262.583,76.932 L261.181,77.292 L259.782,77.652 L258.383,78.011 L256.983,78.371 L255.583,78.734 L254.186,79.096 L252.789,79.458 L251.39,79.821 L249.993,80.185 L248.597,80.549 L247.201,80.913 L245.805,81.277 L244.411,81.641 L243.016,82.005 L241.622,82.369 L240.229,82.732 L238.838,83.093 L237.446,83.455 L236.054,83.817 L234.662,84.178 L233.269,84.54 L231.877,84.901 L230.485,85.263 L229.098,85.623 L227.713,85.975 L226.324,86.328 L224.935,86.682 L223.545,87.035 L222.156,87.388 L220.767,87.741 L219.378,88.095 L217.998,88.446 L216.62,88.782 L215.234,89.12 L213.848,89.459 L212.461,89.798 L211.075,90.136 L209.689,90.475 L208.302,90.813 L206.924,91.15 L205.631,91.453 L204.33,91.759 L203.029,92.064 L201.734,92.369 L200.437,92.665 L199.134,92.962 L197.831,93.26 L196.532,93.557 L195.232,93.848 L193.928,94.14 L192.623,94.432 L191.321,94.723 L190.019,95.011 L188.714,95.299 L187.408,95.588 L186.105,95.876 L184.8,96.163 L183.495,96.45 L182.189,96.737 L180.883,97.023 L179.577,97.311 L178.272,97.598 L176.966,97.885 L175.658,98.173 L174.35,98.466 L173.046,98.757 L171.742,99.049 L170.437,99.34 L169.133,99.632 L167.829,99.923 L166.524,100.215 L165.21,100.509 L163.9,100.815 L162.599,101.12 L161.298,101.424 L159.996,101.729 L158.695,102.033 L157.394,102.337 L156.093,102.642 L154.776,102.95 L153.464,103.28 L152.169,103.607 L150.873,103.933 L149.577,104.259 L148.281,104.586 L146.985,104.912 L145.689,105.239 L144.38,105.569 L142.817,105.985 L141.257,106.4 L139.701,106.83 L138.144,107.259 L136.592,107.702 L135.04,108.144 L133.491,108.599 L131.942,109.054 L130.397,109.522 L128.852,109.99 L127.31,110.471 L125.77,110.952 L124.233,111.445 L122.696,111.937 L121.162,112.443 L119.629,112.948 L118.1,113.465 L116.572,113.982 L115.047,114.51 L113.522,115.039 L112.002,115.579 L110.481,116.12 L108.965,116.672 L107.454,117.223 L106.996,117.393 L106.486,117.586 L105.928,117.8 L105.333,118.031 L104.706,118.28 L104.05,118.545 L102.718,119.098 L101.38,119.683 L100.125,120.271 L99.515,120.575 L98.951,120.872 L98.431,121.169 L97.948,121.469 L97.498,121.788 L97.079,122.149 L96.656,122.644 L96.28,123.554 L96.369,124.616 L96.875,125.425 L97.31,125.764 L97.692,125.953 L98.036,126.068 L98.368,126.142 L98.697,126.19 L100.515,126.382 L102.345,126.542 L104.174,126.671 L106.003,126.771 L107.834,126.843 L109.664,126.888 L111.494,126.908 L113.324,126.905 L115.153,126.878 L116.982,126.831 L118.81,126.765 L120.64,126.679 L122.46,126.571 L124.283,126.463 L126.106,126.325 L127.926,126.188 L129.744,126.028 L131.558,125.868 L133.37,125.692 L135.18,125.516 L136.987,125.328 L138.791,125.14 L140.591,124.946 L142.391,124.753 L143.452,124.632 L144.505,124.512 L145.558,124.392 L146.622,124.27 L147.684,124.136 L148.735,124.004 L149.787,123.872 L150.848,123.738 L151.908,123.593 L152.957,123.449 L154.007,123.305 L155.065,123.16 L156.122,123.006 L157.17,122.852 L158.218,122.699 L159.275,122.544 L160.331,122.379 L161.378,122.216 L162.424,122.053 L163.479,121.888 L164.532,121.714 L165.578,121.542 L166.624,121.37 L167.676,121.196 L168.727,121.015 L169.771,120.835 L170.815,120.655 L171.866,120.474 L172.916,120.286 L173.959,120.098 L175.003,119.911 L176.052,119.722 L177.1,119.527 L178.142,119.333 L179.185,119.139 L180.232,118.944 L181.278,118.743 L182.319,118.544 L183.361,118.345 L184.407,118.144 L185.452,117.939 L186.493,117.734 L187.534,117.53 L188.578,117.325 L189.622,117.115 L190.663,116.907 L191.703,116.698 L192.747,116.488 L193.79,116.274 L194.83,116.061 L195.869,115.848 L196.909,115.635 L197.948,115.422 L198.988,115.208 L200.027,114.995 L201.07,114.781 L202.113,114.563 L203.152,114.346 L204.191,114.129 L205.23,113.912 L206.269,113.694 L207.308,113.477 L208.346,113.26 L209.386,113.042 L210.425,112.824 L211.464,112.607 L212.503,112.389 L213.542,112.171 L214.58,111.953 L215.619,111.735 L216.658,111.517 L217.695,111.3 L218.732,111.085 L219.771,110.869 L220.81,110.653 L221.85,110.438 L222.889,110.222 L223.928,110.006 L224.967,109.791 L226.001,109.576 L227.036,109.367 L228.076,109.156 L229.116,108.946 L230.156,108.736 L231.196,108.526 L232.235,108.315 L233.275,108.105 L234.308,107.897 L235.341,107.697 L236.382,107.495 L237.423,107.294 L238.464,107.093 L239.505,106.891 L240.546,106.69 L241.587,106.488 L242.619,106.288 L244.521,105.935 L246.422,105.583 L248.325,105.242 L250.23,104.9 L252.136,104.568 L254.044,104.235 L255.953,103.907 L257.863,103.579 L259.774,103.255 L261.686,102.93 L263.598,102.604 L265.512,102.279 L267.426,101.948 L269.337,101.617 L271.248,101.287 L273.167,100.955 L275.083,100.607 L276.99,100.259 L278.898,99.912 L280.82,99.562 L282.735,99.182 L284.637,98.805 L286.539,98.427 L288.444,98.05 L288.892,97.957 L289.361,97.862 L289.863,97.761 L290.393,97.655 L290.949,97.544 L291.531,97.429 L292.756,97.187 L294.054,96.931 L295.406,96.661 L296.791,96.382 L298.195,96.095 L299.599,95.804 L300.986,95.511 L302.34,95.218 L303.64,94.928 L304.877,94.641 L306.029,94.361 L307.069,94.091 L307.562,93.957 L308.019,93.826 L308.443,93.697 L308.839,93.569 L309.207,93.44 L309.545,93.31 L309.865,93.169 L310.186,93.003 L310.526,92.775 L310.941,92.359 L311.33,91.365 L310.998,90.118 L310.372,89.538 L309.885,89.318 L309.492,89.214 L309.11,89.148 L308.695,89.102 L308.221,89.069 L307.047,89.026 L305.858,89.027 L304.68,89.07 L303.508,89.149 L302.34,89.265 L301.181,89.413 L300.028,89.588 L298.88,89.79 L297.739,90.015 L296.604,90.259 L295.474,90.521 L294.346,90.797 L293.231,91.088 L292.117,91.378 L291.004,91.682 L289.9,91.984 L288.796,92.289 L287.7,92.592 L286.604,92.887 L285.515,93.18 L284.426,93.454 L283.346,93.727 L282.265,93.968 L281.174,94.212 L279.5,94.565 L277.818,94.919 L276.136,95.273 L274.454,95.627 L272.772,95.981 L271.089,96.335 L269.407,96.688 L267.719,97.041 L266.033,97.407 L264.353,97.77 L262.673,98.134 L260.993,98.498 L259.313,98.862 L257.633,99.226 L255.953,99.59 L254.266,99.956 L252.582,100.335 L250.905,100.713 L249.229,101.091 L247.552,101.47 L245.875,101.848 L244.198,102.226 L242.521,102.604 L240.842,102.983 L239.779,103.226 L238.718,103.468 L237.657,103.71 L236.596,103.953 L235.535,104.195 L234.475,104.438 L233.414,104.68 L232.355,104.922 L231.295,105.161 L230.234,105.401 L229.172,105.641 L228.111,105.881 L227.049,106.121 L225.988,106.36 L224.926,106.6 L223.866,106.84 L222.804,107.078 L221.743,107.317 L220.681,107.556 L219.619,107.794 L218.557,108.033 L217.495,108.272 L216.433,108.51 L215.371,108.748 L214.309,108.986 L213.247,109.225 L212.185,109.463 L211.123,109.701 L210.061,109.939 L208.999,110.177 L207.937,110.415 L206.874,110.653 L205.811,110.893 L204.749,111.132 L203.688,111.372 L202.626,111.611 L201.564,111.85 L200.502,112.09 L199.441,112.329 L198.377,112.569 L197.314,112.811 L196.253,113.053 L195.192,113.295 L194.131,113.538 L193.07,113.779 L192.009,114.022 L190.947,114.264 L189.884,114.506 L188.821,114.752 L187.761,114.998 L186.701,115.243 L185.64,115.489 L184.58,115.735 L183.52,115.98 L182.46,116.226 L181.396,116.472 L180.333,116.724 L179.274,116.974 L178.215,117.225 L177.157,117.476 L176.098,117.726 L175.039,117.977 L173.98,118.228 L172.916,118.479 L171.854,118.738 L170.797,118.995 L169.74,119.252 L168.682,119.509 L167.625,119.766 L166.568,120.023 L165.511,120.281 L164.448,120.539 L163.388,120.805 L162.332,121.069 L161.277,121.333 L160.221,121.596 L159.166,121.86 L158.11,122.124 L157.055,122.388 L155.993,122.654 L154.933,122.928 L153.88,123.201 L152.827,123.474 L151.774,123.747 L150.72,124.019 L149.667,124.292 L148.614,124.565 L147.553,124.84 L146.495,125.125 L145.445,125.408 L144.394,125.691 L143.344,125.975 L142.293,126.258 L141.243,126.541 L140.192,126.824 L139.15,127.105 L138.583,127.248 L137.977,127.378 L137.32,127.5 L136.626,127.616 L135.899,127.729 L135.145,127.841 L133.592,128.073 L132.015,128.337 L130.492,128.658 L129.717,128.857 L128.98,129.081 L128.272,129.339 L127.59,129.638 L126.934,129.993 L126.327,130.41 L125.765,130.903 L125.268,131.496 L124.909,132.112 L124.728,132.541 L124.61,132.935 L124.53,133.335 L124.487,133.745 L124.48,134.168 L124.509,134.589 L124.571,135.003 L124.671,135.411 L124.808,135.798 L124.982,136.167 L125.199,136.52 L125.447,136.836 L125.722,137.12 L126.028,137.374 L126.347,137.586 L126.676,137.766 L127.021,137.916 L127.412,138.049 L128.064,138.205 L128.785,138.297 L129.514,138.326 L130.254,138.309 L131.011,138.25 L131.778,138.158 L132.552,138.042 L133.334,137.905 L134.117,137.753 L134.897,137.593 L135.67,137.429 L136.424,137.267 L137.883,136.965 L139.208,136.731 L140.381,136.603 L141.79,136.504 L143.226,136.402 L144.662,136.3 L146.111,136.197 L147.557,136.072 L148.992,135.948 L150.427,135.823 L151.873,135.698 L153.318,135.551 L154.751,135.404 L156.183,135.258 L157.626,135.111 L159.068,134.944 L160.498,134.779 L161.929,134.613 L163.371,134.446 L164.81,134.258 L166.238,134.072 L167.666,133.886 L169.105,133.698 L170.541,133.49 L171.965,133.284 L173.39,133.077 L174.822,132.87 L176.455,132.619 L178.082,132.369 L179.709,132.119 L181.34,131.868 L182.969,131.609 L184.595,131.351 L186.22,131.093 L187.849,130.834 L189.477,130.567 L191.102,130.301 L192.726,130.035 L194.354,129.769 L195.98,129.495 L197.603,129.222 L199.227,128.95 L200.853,128.676 L202.479,128.395 L204.101,128.115 L205.723,127.835 L207.348,127.554 L208.972,127.266 L210.593,126.979 L212.214,126.692 L213.838,126.404 L215.46,126.11 L217.08,125.817 L218.7,125.523 L220.323,125.229 L221.944,124.929 L223.563,124.629 L225.182,124.329 L226.803,124.029 L228.423,123.722 L230.041,123.416 L231.658,123.11 L233.278,122.804 L234.897,122.492 L236.513,122.18 L238.13,121.869 L239.749,121.557 L241.366,121.239 L242.982,120.922 L244.597,120.605 L246.215,120.288 L247.831,119.965 L249.445,119.642 L251.059,119.32 L252.67,118.998 L253.125,118.912 L253.612,118.831 L254.136,118.753 L254.691,118.678 L255.274,118.607 L255.879,118.54 L257.171,118.41 L258.535,118.29 L259.957,118.176 L261.415,118.063 L262.896,117.949 L264.38,117.831 L265.852,117.706 L267.294,117.569 L268.688,117.416 L270.024,117.247 L271.285,117.053 L272.434,116.834 L272.999,116.707 L273.525,116.573 L274.021,116.427 L274.494,116.267 L274.945,116.087 L275.368,115.884 L275.773,115.65 L276.162,115.364 L276.517,115.015 L276.83,114.579 L277.061,114.031 L277.148,113.437 L277.091,112.848 L276.907,112.303 L276.643,111.837 L276.324,111.421 L275.947,111.032 L275.522,110.666 L275.028,110.29 L274.517,109.947 L273.998,109.642 L273.469,109.369 L272.927,109.128 L272.38,108.921 L271.826,108.744 L271.263,108.597 L270.698,108.48 L270.13,108.388 L269.555,108.323 L268.953,108.282 L267.826,108.267 L266.66,108.334 L265.492,108.473 L264.323,108.669 L263.148,108.918 L261.975,109.21 L260.802,109.535 L259.63,109.887 L258.464,110.257 L257.303,110.636 L256.151,111.019 L255.013,111.396 L253.884,111.755 L252.772,112.109 L251.683,112.412 L250.614,112.711 L249.581,112.925 L248.526,113.146 L247.257,113.365 L245.965,113.588 L244.672,113.811 L243.371,114.036 L242.073,114.276 L240.783,114.515 L239.494,114.753 L238.196,114.993 L236.902,115.246 L235.615,115.498 L234.328,115.75 L233.034,116.003 L231.743,116.267 L230.458,116.529 L229.173,116.792 L227.882,117.055 L226.593,117.329 L225.31,117.602 L224.027,117.875 L222.739,118.148 L221.453,118.43 L220.172,118.711 L218.89,118.992 L217.605,119.274 L216.321,119.562 L215.041,119.849 L213.761,120.136 L212.478,120.424 L211.195,120.716 L209.916,121.008 L208.637,121.301 L207.356,121.593 L206.075,121.889 L204.797,122.184 L203.518,122.48 L202.239,122.775 L200.96,123.072 L199.682,123.369 L198.404,123.666 L197.126,123.962 L195.848,124.259 L194.57,124.556 L193.292,124.853 L192.015,125.149 L190.738,125.444 L189.459,125.739 L188.181,126.034 L186.923,126.325 L185.673,126.578 L184.382,126.772 L183.034,126.92 L181.643,127.032 L180.214,127.112 L178.755,127.169 L177.268,127.208 L175.77,127.248 L174.272,127.291 L172.754,127.334 L171.266,127.419 L169.774,127.504 L168.292,127.64 L166.839,127.825 L165.419,128.07 L164.032,128.38 L162.682,128.774 L161.417,129.251 L160.761,129.543 L160.146,129.854 L159.551,130.194 L158.974,130.563 L158.414,130.967 L157.88,131.404 L157.368,131.874 L156.88,132.382 L156.423,132.924 L155.995,133.5 L155.596,134.116 L155.233,134.766 L154.964,135.337 L154.758,135.915 L154.627,136.492 L154.574,137.077 L154.616,137.675 L154.763,138.246 L155.005,138.778 L155.34,139.257 L155.732,139.654 L156.162,139.983 L156.631,140.257 L157.118,140.477 L157.624,140.66 L158.159,140.809 L158.712,140.93 L159.286,141.027 L159.885,141.103 L160.505,141.159 L161.145,141.199 L161.808,141.223 L162.49,141.232 L163.188,141.228 L163.904,141.212 L164.644,141.184 L166.133,141.102 L167.675,140.986 L169.242,140.845 L170.818,140.687 L172.391,140.519 L173.941,140.349 L175.457,140.183 L176.918,140.029 L178.305,139.895 L179.61,139.787 L180.803,139.713 L181.889,139.68 L183.188,139.649 L184.51,139.618 L185.83,139.555 L187.149,139.492 L188.466,139.401 L189.78,139.31 L191.093,139.196 L192.406,139.082 L193.716,138.947 L195.025,138.811 L196.333,138.658 L197.638,138.505 L198.942,138.338 L200.245,138.172 L201.547,137.993 L202.847,137.815 L204.146,137.629 L205.442,137.443 L206.738,137.253 L208.032,137.063 L209.326,136.871 L210.617,136.679 L211.907,136.489 L213.2,136.299 L214.578,136.094 L215.954,135.889 L217.33,135.684 L218.712,135.478 L220.095,135.262 L221.473,135.047 L222.851,134.832 L224.233,134.617 L225.617,134.393 L226.996,134.169 L228.375,133.946 L229.757,133.722 L231.141,133.491 L232.521,133.26 L233.9,133.03 L235.283,132.799 L236.667,132.561 L238.047,132.324 L239.427,132.086 L240.81,131.849 L242.193,131.605 L243.572,131.363 L244.952,131.12 L246.335,130.876 L247.717,130.627 L249.096,130.378 L250.474,130.129 L251.853,129.88 L253.232,129.632 L254.61,129.383 L255.989,129.134 L257.371,128.885 L258.75,128.629 L260.125,128.375 L261.501,128.121 L262.876,127.866 L264.252,127.612 L265.627,127.357 L267.003,127.103 L268.38,126.848 L269.752,126.592 L271.122,126.336 L272.493,126.081 L273.863,125.825 L275.234,125.569 L276.604,125.313 L277.975,125.057 L279.345,124.802 C280.171,124.648 280.715,123.854 280.561,123.029 C280.407,122.203 279.613,121.659 278.788,121.813 L277.417,122.069 L276.047,122.325 L274.676,122.581 L273.306,122.837 L271.935,123.092 L270.564,123.348 L269.194,123.604 L267.825,123.86 L266.45,124.114 L265.075,124.369 L263.699,124.623 L262.323,124.878 L260.948,125.132 L259.572,125.387 L258.197,125.641 L256.824,125.895 L255.449,126.144 L254.07,126.393 L252.692,126.641 L251.313,126.89 L249.934,127.139 L248.556,127.388 L247.177,127.637 L245.802,127.885 L244.425,128.128 L243.046,128.371 L241.666,128.613 L240.289,128.856 L238.912,129.093 L237.532,129.33 L236.152,129.567 L234.776,129.804 L233.4,130.034 L232.02,130.264 L230.64,130.495 L229.264,130.725 L227.889,130.948 L226.51,131.171 L225.131,131.395 L223.756,131.617 L222.383,131.832 L221.005,132.047 L219.627,132.262 L218.254,132.476 L216.883,132.68 L215.506,132.885 L214.13,133.091 L212.755,133.295 L211.465,133.485 L210.173,133.675 L208.88,133.867 L207.589,134.059 L206.297,134.249 L205.006,134.439 L203.715,134.624 L202.425,134.809 L201.135,134.986 L199.847,135.162 L198.557,135.327 L197.269,135.492 L195.979,135.643 L194.692,135.794 L193.404,135.928 L192.118,136.061 L190.831,136.172 L189.544,136.284 L188.256,136.373 L186.972,136.462 L185.686,136.524 L184.402,136.585 L183.116,136.616 L181.807,136.646 L180.66,136.682 L179.389,136.76 L178.034,136.873 L176.613,137.01 L175.132,137.166 L173.61,137.332 L172.064,137.503 L170.506,137.669 L168.954,137.824 L167.424,137.963 L165.935,138.075 L164.494,138.154 L163.813,138.18 L163.145,138.195 L162.501,138.198 L161.881,138.19 L161.293,138.169 L160.735,138.135 L160.211,138.087 L159.728,138.026 L159.286,137.951 L158.887,137.865 L158.543,137.769 L158.251,137.664 L158.014,137.558 L157.846,137.46 L157.73,137.372 L157.663,137.306 L157.638,137.272 L157.624,137.239 L157.611,137.195 L157.606,137.122 L157.621,136.978 L157.668,136.771 L157.764,136.503 L157.924,136.165 L158.195,135.68 L158.486,135.23 L158.801,134.807 L159.135,134.41 L159.488,134.043 L159.866,133.697 L160.263,133.372 L160.679,133.071 L161.121,132.789 L161.583,132.524 L162.064,132.281 L162.543,132.066 L163.641,131.651 L164.786,131.318 L166.007,131.045 L167.287,130.824 L168.621,130.655 L169.998,130.528 L171.439,130.446 L172.883,130.364 L174.358,130.322 L175.854,130.279 L177.349,130.239 L178.855,130.199 L180.358,130.14 L181.849,130.057 L183.321,129.938 L184.773,129.778 L186.198,129.563 L187.565,129.287 L188.863,128.988 L190.141,128.693 L191.419,128.398 L192.698,128.102 L193.977,127.805 L195.255,127.508 L196.533,127.212 L197.811,126.915 L199.089,126.618 L200.367,126.321 L201.646,126.024 L202.923,125.727 L204.2,125.432 L205.479,125.137 L206.757,124.841 L208.034,124.546 L209.312,124.255 L210.591,123.963 L211.87,123.67 L213.146,123.379 L214.424,123.092 L215.704,122.805 L216.984,122.518 L218.261,122.232 L219.539,121.952 L220.82,121.671 L222.102,121.39 L223.379,121.11 L224.657,120.838 L225.94,120.565 L227.223,120.292 L228.5,120.021 L229.78,119.759 L231.065,119.497 L232.35,119.234 L233.628,118.973 L234.909,118.722 L236.196,118.47 L237.483,118.218 L238.763,117.968 L240.044,117.731 L241.334,117.492 L242.624,117.254 L243.904,117.017 L245.188,116.795 L246.48,116.572 L247.772,116.349 L249.088,116.121 L250.199,115.89 L251.332,115.653 L252.496,115.33 L253.638,115.012 L254.802,114.642 L255.948,114.278 L257.104,113.896 L258.252,113.515 L259.393,113.142 L260.525,112.783 L261.642,112.448 L262.745,112.143 L263.83,111.873 L264.888,111.648 L265.923,111.476 L266.928,111.356 L267.893,111.3 L268.854,111.315 L269.279,111.345 L269.718,111.395 L270.149,111.464 L270.571,111.552 L270.979,111.658 L271.381,111.787 L271.774,111.936 L272.155,112.105 L272.532,112.3 L272.901,112.517 L273.261,112.758 L273.617,113.03 L273.871,113.248 L274.035,113.416 L274.123,113.53 L274.148,113.57 L274.127,113.504 L274.113,113.371 L274.138,113.209 L274.194,113.071 L274.225,113.023 L274.205,113.041 L274.121,113.102 L273.958,113.195 L273.733,113.303 L273.45,113.415 L273.109,113.53 L272.722,113.643 L272.292,113.753 L271.835,113.856 L270.772,114.059 L269.603,114.237 L268.332,114.399 L266.986,114.545 L265.58,114.678 L264.131,114.802 L262.66,114.918 L261.182,115.031 L259.718,115.144 L258.28,115.26 L256.887,115.382 L255.565,115.514 L254.922,115.585 L254.304,115.66 L253.711,115.74 L253.14,115.825 L252.593,115.916 L252.081,116.013 L250.464,116.335 L248.85,116.657 L247.235,116.978 L245.624,117.299 L244.011,117.615 L242.395,117.931 L240.78,118.248 L239.167,118.563 L237.553,118.874 L235.937,119.184 L234.32,119.495 L232.706,119.805 L231.091,120.11 L229.474,120.415 L227.856,120.72 L226.241,121.025 L224.625,121.323 L223.007,121.622 L221.388,121.921 L219.772,122.22 L218.155,122.512 L216.535,122.805 L214.915,123.097 L213.298,123.389 L211.68,123.675 L210.059,123.962 L208.438,124.248 L206.82,124.534 L205.202,124.813 L203.579,125.092 L201.957,125.372 L200.338,125.65 L198.718,125.922 L197.095,126.194 L195.472,126.466 L193.851,126.738 L192.23,127.003 L190.606,127.268 L188.981,127.533 L187.36,127.798 L185.738,128.054 L184.113,128.312 L182.487,128.569 L180.865,128.826 L179.242,129.075 L177.615,129.324 L175.988,129.573 L174.367,129.821 L172.949,130.026 L171.524,130.232 L170.099,130.437 L168.685,130.642 L167.268,130.826 L165.84,131.011 L164.411,131.197 L162.994,131.381 L161.575,131.545 L160.144,131.71 L158.713,131.875 L157.293,132.038 L155.87,132.183 L154.437,132.328 L153.005,132.474 L151.583,132.618 L150.16,132.741 L148.726,132.864 L147.291,132.988 L145.868,133.11 L144.444,133.211 L143.008,133.312 L141.572,133.413 L140.108,133.516 L138.766,133.662 L137.3,133.918 L135.789,134.229 L135.023,134.393 L134.263,134.553 L133.511,134.707 L132.772,134.85 L132.054,134.975 L131.363,135.077 L130.706,135.156 L130.095,135.203 L129.536,135.216 L129.037,135.196 L128.621,135.144 L128.238,135.049 L128.15,135.016 L128.044,134.97 L127.956,134.921 L127.885,134.875 L127.837,134.835 L127.793,134.789 L127.755,134.742 L127.724,134.691 L127.69,134.617 L127.657,134.524 L127.629,134.409 L127.606,134.254 L127.594,134.08 L127.596,133.935 L127.611,133.802 L127.634,133.684 L127.665,133.584 L127.677,133.544 L127.82,133.285 L127.986,133.091 L128.233,132.878 L128.556,132.657 L128.952,132.444 L129.428,132.237 L129.966,132.042 L130.557,131.863 L131.178,131.704 L132.592,131.407 L134.079,131.16 L135.605,130.934 L136.367,130.821 L137.122,130.705 L137.863,130.581 L138.587,130.447 L139.29,130.298 L139.946,130.133 L141.006,129.849 L142.057,129.566 L143.107,129.284 L144.158,129.002 L145.209,128.72 L146.26,128.438 L147.311,128.156 L148.354,127.876 L149.4,127.606 L150.454,127.334 L151.507,127.062 L152.561,126.791 L153.614,126.519 L154.668,126.247 L155.721,125.975 L156.768,125.705 L157.817,125.444 L158.873,125.181 L159.929,124.918 L160.985,124.655 L162.04,124.393 L163.096,124.13 L164.152,123.867 L165.203,123.606 L166.255,123.352 L167.313,123.096 L168.371,122.841 L169.428,122.585 L170.486,122.33 L171.543,122.074 L172.601,121.819 L173.654,121.564 L174.708,121.316 L175.768,121.067 L176.827,120.818 L177.886,120.569 L178.946,120.32 L180.005,120.071 L181.064,119.822 L182.12,119.574 L183.176,119.331 L184.237,119.087 L185.298,118.843 L186.358,118.599 L187.419,118.355 L188.479,118.112 L189.54,117.867 L190.598,117.624 L191.657,117.384 L192.718,117.144 L193.78,116.904 L194.841,116.663 L195.903,116.423 L196.964,116.183 L198.026,115.942 L199.085,115.702 L200.145,115.465 L201.207,115.227 L202.269,114.989 L203.331,114.752 L204.394,114.514 L205.456,114.276 L206.518,114.039 L207.579,113.801 L208.641,113.565 L209.703,113.328 L210.765,113.092 L211.828,112.855 L212.89,112.619 L213.953,112.383 L215.015,112.146 L216.077,111.91 L217.14,111.673 L218.202,111.437 L219.265,111.201 L220.327,110.966 L221.39,110.73 L222.452,110.494 L223.515,110.258 L224.578,110.022 L225.641,109.785 L226.703,109.548 L227.766,109.311 L228.828,109.074 L229.89,108.837 L230.952,108.6 L232.014,108.362 L233.078,108.125 L234.142,107.885 L235.203,107.645 L236.265,107.406 L237.326,107.166 L238.387,106.926 L239.449,106.687 L240.51,106.447 L241.569,106.208 L243.245,105.835 L244.923,105.461 L246.601,105.087 L248.279,104.714 L249.957,104.34 L251.634,103.966 L253.312,103.592 L254.983,103.22 L256.657,102.862 L258.338,102.503 L260.019,102.143 L261.7,101.784 L263.381,101.424 L265.062,101.064 L266.743,100.705 L268.419,100.347 L270.096,100 L271.78,99.652 L273.464,99.305 L275.147,98.958 L276.831,98.612 L278.515,98.265 L280.198,97.918 L281.89,97.57 L283.008,97.325 L284.136,97.078 L285.262,96.799 L286.379,96.523 L287.495,96.228 L288.604,95.934 L289.712,95.634 L290.813,95.335 L291.915,95.038 L293.008,94.744 L294.102,94.465 L295.195,94.185 L296.278,93.924 L297.36,93.679 L298.44,93.451 L299.517,93.244 L300.59,93.06 L301.661,92.902 L302.73,92.77 L303.793,92.669 L304.857,92.602 L305.918,92.568 L306.975,92.571 L308.051,92.616 L308.375,92.64 L308.618,92.668 L308.757,92.693 L308.765,92.693 L308.551,92.593 L308.076,92.146 L307.787,91.046 L308.105,90.21 L308.341,89.966 L308.405,89.921 L308.351,89.947 L308.201,90.012 L307.985,90.094 L307.712,90.188 L307.386,90.292 L307.017,90.402 L306.607,90.517 L306.166,90.636 L305.167,90.89 L304.058,91.155 L302.852,91.429 L301.576,91.708 L300.242,91.991 L298.868,92.275 L297.475,92.557 L296.079,92.836 L294.7,93.107 L293.352,93.372 L292.055,93.627 L290.829,93.868 L290.245,93.983 L289.684,94.093 L289.151,94.2 L288.643,94.301 L288.165,94.398 L287.734,94.487 L285.834,94.861 L283.932,95.237 L282.029,95.612 L280.141,95.984 L278.247,96.327 L276.339,96.673 L274.431,97.018 L272.531,97.362 L270.628,97.689 L268.716,98.018 L266.805,98.346 L264.896,98.674 L262.986,98.997 L261.074,99.32 L259.162,99.643 L257.248,99.966 L255.335,100.293 L253.42,100.619 L251.507,100.951 L249.592,101.283 L247.679,101.624 L245.764,101.965 L243.851,102.318 L241.939,102.671 L240.889,102.873 L239.847,103.074 L238.806,103.275 L237.765,103.476 L236.724,103.677 L235.683,103.878 L234.642,104.079 L233.593,104.282 L232.546,104.493 L231.506,104.703 L230.466,104.913 L229.426,105.123 L228.386,105.333 L227.346,105.544 L226.306,105.754 L225.262,105.965 L224.218,106.181 L223.179,106.396 L222.14,106.612 L221.1,106.827 L220.061,107.043 L219.022,107.258 L217.983,107.474 L216.942,107.69 L215.901,107.908 L214.863,108.125 L213.824,108.343 L212.785,108.561 L211.746,108.778 L210.707,108.996 L209.668,109.214 L208.63,109.431 L207.592,109.648 L206.553,109.865 L205.514,110.082 L204.475,110.299 L203.436,110.517 L202.397,110.734 L201.358,110.951 L200.322,111.167 L199.286,111.379 L198.247,111.592 L197.207,111.805 L196.168,112.018 L195.128,112.231 L194.088,112.444 L193.049,112.657 L192.013,112.87 L190.977,113.077 L189.936,113.286 L188.896,113.494 L187.86,113.702 L186.822,113.906 L185.782,114.11 L184.741,114.314 L183.704,114.517 L182.667,114.715 L181.625,114.914 L180.584,115.113 L179.547,115.311 L178.509,115.503 L177.466,115.697 L176.424,115.89 L175.387,116.083 L174.35,116.269 L173.306,116.456 L172.263,116.642 L171.226,116.828 L170.188,117.006 L169.143,117.185 L168.099,117.365 L167.061,117.543 L166.022,117.713 L164.976,117.885 L163.931,118.057 L162.893,118.227 L161.854,118.389 L160.807,118.552 L159.76,118.714 L158.722,118.876 L157.682,119.027 L156.634,119.18 L155.585,119.333 L154.545,119.485 L153.504,119.627 L152.454,119.77 L151.405,119.913 L150.365,120.055 L149.324,120.185 L148.272,120.317 L147.221,120.449 L146.18,120.579 L145.138,120.697 L144.084,120.817 L143.031,120.936 L141.985,121.055 L140.193,121.247 L138.4,121.439 L136.603,121.624 L134.809,121.81 L133.011,121.983 L131.215,122.157 L129.417,122.314 L127.623,122.471 L125.827,122.605 L124.034,122.739 L122.24,122.845 L120.443,122.95 L118.656,123.032 L116.867,123.096 L115.08,123.14 L113.294,123.165 L111.513,123.168 L109.732,123.146 L107.954,123.102 L106.181,123.031 L104.409,122.932 L102.641,122.807 L100.878,122.651 L99.108,122.462 L99.028,122.451 L99.018,122.449 L99.086,122.472 L99.249,122.555 L99.525,122.772 L99.931,123.445 L99.974,124.198 L99.761,124.748 L99.694,124.838 L99.789,124.757 L100.013,124.6 L100.344,124.395 L100.752,124.164 L101.225,123.914 L101.741,123.657 L102.925,123.104 L104.19,122.552 L105.478,122.018 L106.1,121.768 L106.706,121.528 L107.281,121.304 L107.822,121.097 L108.314,120.912 L108.744,120.752 L110.251,120.205 L111.753,119.658 L113.26,119.124 L114.767,118.59 L116.278,118.067 L117.79,117.545 L119.305,117.033 L120.82,116.522 L122.34,116.024 L123.859,115.526 L125.382,115.04 L126.906,114.554 L128.434,114.08 L129.961,113.606 L131.491,113.145 L133.022,112.684 L134.556,112.236 L136.091,111.788 L137.63,111.352 L139.167,110.916 L140.708,110.493 L142.249,110.071 L143.793,109.662 L145.334,109.254 L146.617,108.933 L147.913,108.609 L149.21,108.284 L150.506,107.96 L151.802,107.635 L153.099,107.311 L154.395,106.987 L155.676,106.666 L156.961,106.367 L158.263,106.065 L159.565,105.763 L160.866,105.46 L162.168,105.158 L163.47,104.855 L164.772,104.553 L166.064,104.252 L167.359,103.965 L168.664,103.675 L169.969,103.386 L171.274,103.096 L172.579,102.807 L173.883,102.517 L175.188,102.228 L176.49,101.939 L177.793,101.654 L179.099,101.369 L180.405,101.084 L181.71,100.798 L183.016,100.514 L184.322,100.229 L185.628,99.944 L186.935,99.659 L188.242,99.372 L189.548,99.086 L190.853,98.799 L192.161,98.512 L193.468,98.222 L194.773,97.932 L196.078,97.642 L197.387,97.351 L198.695,97.055 L199.998,96.759 L201.302,96.463 L202.611,96.166 L203.918,95.862 L205.22,95.558 L206.521,95.254 L207.831,94.949 L209.226,94.611 L210.613,94.274 L212,93.938 L213.387,93.601 L214.774,93.265 L216.161,92.929 L217.548,92.592 L218.944,92.254 L220.342,91.9 L221.732,91.549 L223.122,91.198 L224.512,90.847 L225.902,90.496 L227.291,90.145 L228.681,89.794 L230.076,89.441 L231.473,89.081 L232.866,88.721 L234.259,88.362 L235.652,88.003 L237.044,87.643 L238.437,87.284 L239.83,86.924 L241.224,86.565 L242.62,86.202 L244.015,85.841 L245.409,85.479 L246.804,85.117 L248.2,84.756 L249.596,84.394 L250.993,84.032 L252.388,83.671 L253.784,83.311 L255.182,82.951 L256.58,82.591 L257.976,82.232 L259.373,81.875 L260.772,81.518 L262.171,81.16 L263.568,80.804 L264.965,80.452 L266.366,80.099 L267.767,79.747 L269.163,79.395 L270.562,79.05 L271.964,78.703 L273.366,78.357 L274.764,78.011 L276.163,77.673 L277.567,77.333 L278.971,76.993 L280.368,76.655 L281.768,76.326 L283.173,75.995 L284.579,75.664 L285.977,75.335 L287.376,75.016 L288.783,74.695 L290.19,74.375 L291.59,74.057 L292.991,73.749 L294.399,73.439 L295.808,73.13 L297.207,72.822 L298.608,72.528 L300.018,72.232 L301.428,71.936 L302.828,71.642 L304.229,71.363 L305.641,71.082 L307.053,70.801 L308.454,70.522 L309.857,70.258 L311.27,69.991 L312.684,69.725 L314.084,69.461 L315.487,69.215 L316.902,68.966 L318.317,68.718 L319.718,68.472 L321.121,68.245 L322.538,68.016 L323.954,67.787 L325.361,67.56 L326.769,67.346 L328.179,67.133 L329.59,66.929 L331.001,66.726 L332.412,66.534 L333.824,66.342 L335.237,66.161 L336.649,65.979 L338.061,65.809 L339.474,65.639 L340.887,65.482 L342.306,65.323 L342.651,65.287 L342.969,65.254 L343.255,65.225 L343.513,65.2 L343.738,65.18 L343.932,65.163 L344.095,65.15 L344.223,65.142 L344.312,65.137 L344.357,65.135 L344.323,65.135 L344.274,65.133 L343.288,64.784 L343.288,64.784 L343.288,64.784 L343.288,64.784 L343.289,64.785 L343.289,64.785 L343.29,64.785 L343.29,64.786 L343.291,64.787 L343.292,64.787 L343.293,64.788 L343.294,64.789 L343.295,64.789 L343.297,64.79 L343.298,64.791 L343.3,64.792 L343.18,64.705 L342.91,64.447 L342.634,64.043 L342.441,63.488 L342.415,62.882 L342.538,62.365 L342.725,61.994 L342.91,61.747 L343.071,61.584 L343.203,61.473 L343.31,61.396 L343.397,61.341 L343.468,61.301 L343.526,61.271 L343.575,61.247 L343.616,61.229 L343.631,61.222 L343.627,61.224 L343.623,61.226 L343.619,61.227 L343.616,61.229 L343.613,61.23 L343.61,61.231 L343.607,61.232 L343.605,61.233 L343.603,61.234 L343.601,61.235 L343.6,61.236 L343.598,61.236 L343.598,61.236 L343.597,61.237 L343.597,61.237 L343.876,61.142 L343.754,61.174 L343.558,61.217 L343.25,61.278 L342.847,61.353 L342.367,61.439 L341.808,61.536 L341.175,61.644 L340.48,61.76 L339.72,61.885 L338.9,62.018 L338.029,62.159 L337.106,62.306 L336.136,62.461 L335.126,62.621 L334.075,62.786 L332.989,62.957 L331.861,63.134 L330.734,63.311 L329.558,63.495 L328.381,63.679 L327.174,63.867 L325.966,64.056 L324.745,64.247 L323.523,64.439 L322.3,64.631 L321.077,64.823 L319.871,65.014 L318.664,65.204 L317.477,65.393 L316.31,65.579 L315.167,65.763 L314.048,65.943 L312.961,66.12 L311.909,66.293 L310.892,66.461 L309.919,66.623 L308.993,66.78 L308.112,66.931 L307.286,67.075 L306.517,67.212 L305.294,67.435 L304.074,67.657 L302.854,67.88 L301.633,68.102 L300.413,68.324 L299.192,68.546 L297.972,68.768 L296.752,68.991 L295.531,69.213 L294.311,69.436 L293.091,69.658 L291.871,69.88 L290.65,70.103 L289.43,70.325 L288.209,70.548 L286.987,70.771 L285.764,70.997 L284.545,71.222 L283.325,71.447 L282.105,71.673 L280.885,71.898 L279.666,72.123 L278.446,72.349 L277.226,72.574 L276.006,72.8 L274.786,73.025 L273.567,73.25 L272.347,73.476 L271.127,73.701 L269.907,73.926 L268.687,74.152 L267.467,74.377 L266.247,74.603 L265.027,74.829 L263.808,75.055 L262.588,75.281 L261.368,75.507 L260.149,75.732 L258.929,75.958 L257.709,76.184 L256.489,76.41 L255.27,76.636 L254.05,76.861 L252.83,77.087 L251.61,77.313 L250.391,77.539 L249.171,77.765 L247.952,77.99 L246.733,78.215 L245.513,78.44 L244.293,78.665 L243.074,78.89 L241.854,79.115 L240.634,79.34 L239.414,79.565 L238.195,79.79 L236.976,80.013 L235.756,80.237 L234.536,80.46 L233.316,80.684 L232.096,80.908 L230.876,81.131 L229.656,81.355 L228.437,81.578 L227.219,81.8 L225.998,82.021 L224.778,82.243 L223.557,82.464 L222.337,82.686 L221.116,82.908 L219.896,83.129 L218.678,83.35 L217.459,83.569 L216.238,83.789 L215.017,84.008 L213.796,84.227 L212.575,84.446 L211.354,84.665 L210.133,84.885 L208.915,85.103 L207.696,85.319 L206.475,85.535 L205.254,85.751 L204.032,85.967 L202.811,86.184 L201.589,86.4 L200.368,86.616 L199.15,86.831 L197.931,87.043 L196.709,87.255 L195.486,87.468 L194.264,87.68 L193.042,87.892 L191.82,88.105 L190.598,88.317 L189.379,88.529 L188.228,88.725 L187.073,88.922 L185.918,89.119 L184.763,89.316 L183.608,89.513 L182.453,89.71 L181.298,89.906 L180.143,90.103 L178.988,90.3 L177.833,90.497 L176.678,90.694 L175.523,90.891 L174.368,91.088 L173.213,91.285 L172.058,91.482 L170.907,91.678 L169.756,91.87 L168.6,92.062 L167.444,92.255 L166.288,92.448 L165.133,92.64 L163.977,92.833 L162.821,93.026 L161.666,93.218 L160.51,93.411 L159.354,93.603 L158.199,93.796 L157.043,93.989 L155.887,94.181 L154.732,94.374 L153.576,94.567 L152.424,94.759 L151.271,94.947 L150.115,95.135 L148.959,95.324 L147.802,95.513 L146.646,95.701 L145.49,95.89 L144.333,96.079 L143.177,96.267 L142.021,96.456 L140.864,96.644 L139.708,96.833 L138.552,97.022 L137.395,97.21 L136.239,97.399 L135.083,97.588 L133.921,97.777 L132.008,98.096 L130.088,98.417 L128.169,98.755 L126.255,99.092 L124.341,99.441 L122.431,99.788 L120.521,100.14 L118.615,100.491 L116.708,100.84 L114.805,101.189 L112.901,101.528 L110.999,101.868 L109.096,102.194 L107.197,102.519 L105.296,102.823 L103.398,103.127 L101.498,103.402 L99.594,103.678 L97.699,103.93 L95.799,104.164 L93.899,104.378 L91.998,104.571 L90.097,104.741 L88.213,104.885 L87.249,104.917 L86.041,104.888 L84.653,104.797 L83.956,104.734 L83.236,104.656 L82.517,104.564 L81.811,104.461 L81.131,104.347 L80.485,104.222 L79.884,104.089 L79.347,103.951 L78.859,103.803 L78.684,103.742 L78.515,103.677 L78.372,103.617 L78.262,103.564 L78.195,103.528 L78.167,103.51 L78.185,103.525 L78.262,103.6 L78.376,103.742 L78.508,103.985 L78.618,104.356 L78.638,104.766 L78.562,105.148 L78.426,105.449 L78.308,105.617 L78.232,105.696 L78.209,105.715 L78.239,105.695 L79.41,105.002 L80.584,104.368 L81.785,103.775 L83.008,103.217 L84.25,102.696 L85.505,102.213 L86.809,101.763 L88.105,101.315 L89.426,100.922 L90.757,100.526 L92.108,100.173 L93.471,99.816 L94.845,99.487 L96.227,99.157 L97.617,98.846 L99.018,98.533 L100.42,98.227 L101.829,97.919 L103.24,97.607 L104.653,97.289 L106.066,96.961 L107.477,96.62 L108.887,96.264 L110.281,95.89 L112.087,95.397 L113.888,94.905 L115.69,94.412 L117.487,93.922 L119.285,93.44 L121.09,92.957 L122.894,92.474 L124.693,91.993 L126.494,91.52 L128.3,91.046 L130.106,90.572 L131.908,90.099 L133.712,89.635 L135.521,89.169 L137.329,88.703 L139.132,88.239 L140.938,87.783 L142.749,87.326 L144.559,86.869 L146.365,86.413 L148.173,85.966 L149.985,85.517 L151.798,85.069 L153.606,84.621 L155.417,84.182 L157.231,83.741 L159.046,83.3 L160.856,82.861 L162.668,82.429 L164.484,81.997 L166.301,81.565 L168.113,81.133 L169.926,80.71 L171.745,80.286 L173.564,79.862 L175.378,79.439 L177.194,79.023 L179.014,78.606 L180.834,78.19 L182.65,77.774 L184.468,77.366 L186.29,76.957 L188.112,76.548 L189.93,76.141 L191.749,75.741 L193.573,75.34 L195.397,74.939 L197.216,74.539 L199.038,74.146 L200.863,73.752 L202.689,73.358 L204.51,72.965 L206.333,72.579 L208.16,72.193 L209.987,71.806 L211.809,71.421 L213.634,71.043 L215.462,70.664 L217.291,70.285 L219.116,69.906 L220.942,69.535 L222.772,69.163 L224.602,68.79 L226.428,68.419 L228.256,68.054 L230.087,67.689 L231.919,67.324 L233.746,66.96 L235.575,66.602 L237.408,66.245 L239.241,65.887 L241.07,65.53 L242.901,65.179 L244.735,64.827 L246.569,64.476 L248.4,64.125 L250.231,63.781 L252.067,63.436 L253.902,63.092 L255.734,62.748 L257.567,62.41 L259.403,62.072 L261.24,61.734 L263.074,61.396 L264.908,61.065 L266.746,60.733 L268.584,60.4 L270.418,60.069 L272.253,59.744 L274.092,59.418 L275.931,59.092 L277.766,58.767 L279.602,58.448 L281.442,58.128 L283.282,57.809 L285.119,57.49 L287.07,57.156 L289.023,56.822 L290.976,56.488 L292.925,56.155 L294.876,55.829 L296.831,55.503 L298.786,55.177 L300.734,54.852 L302.684,54.538 L304.641,54.224 L306.598,53.91 L308.549,53.596 L310.501,53.294 L312.455,52.991 L314.41,52.696 L316.364,52.402 L318.319,52.118 L320.275,51.835 L322.231,51.561 L324.187,51.287 L326.145,51.025 L328.101,50.764 L330.06,50.515 L332.069,50.26 L334.03,49.927 L336.056,49.434 L337.099,49.137 L338.101,48.851 L339.117,48.549 L340.119,48.249 L341.11,47.958 L342.087,47.681 L343.042,47.427 L343.975,47.203 L344.879,47.011 L345.745,46.862 L346.573,46.76 L347.355,46.705 L348.076,46.705 L348.793,46.766 L349.06,46.807 L349.351,46.866 L349.633,46.94 L349.9,47.026 L350.148,47.122 L350.389,47.236 L350.621,47.362 L350.837,47.5 L351.051,47.66 L351.26,47.838 L351.459,48.033 L351.659,48.258 L351.787,48.423 L351.845,48.512 L351.854,48.532 L351.834,48.463 L351.811,48.284 L351.825,48.058 L351.892,47.822 L352.001,47.615 L352.09,47.499 L352.139,47.454 L352.135,47.456 L352.054,47.498 L351.913,47.561 L351.719,47.631 L351.467,47.706 L351.171,47.781 L350.836,47.852 L350.486,47.915 L349.616,48.039 L348.665,48.136 L347.621,48.212 L346.511,48.271 L345.347,48.315 L344.144,48.348 L342.92,48.376 L341.686,48.402 L340.458,48.432 L339.246,48.468 L338.063,48.516 L336.937,48.581 L336.374,48.622 L335.835,48.67 L335.313,48.725 L334.804,48.787 L334.309,48.86 L333.842,48.943 L331.931,49.305 L330.026,49.667 L328.121,50.029 L326.22,50.39 L324.317,50.744 L322.411,51.099 L320.504,51.454 L318.602,51.808 L316.699,52.154 L314.791,52.501 L312.883,52.848 L310.98,53.194 L309.075,53.532 L307.165,53.87 L305.256,54.209 L303.352,54.547 L301.447,54.875 L299.535,55.203 L297.624,55.532 L295.72,55.86 L293.813,56.177 L291.9,56.495 L289.987,56.812 L288.077,57.13 L286.502,57.386 L284.923,57.643 L283.345,57.9 L281.766,58.157 L280.187,58.414 L278.608,58.671 L277.029,58.928 L275.451,59.185 L273.872,59.442 L272.293,59.699 L270.714,59.956 L269.135,60.213 L267.557,60.47 L265.978,60.727 L264.399,60.984 L262.821,61.241 L261.242,61.498 L259.663,61.754 L258.084,62.011 L256.505,62.267 L254.926,62.523 L253.348,62.78 L251.769,63.036 L250.19,63.292 L248.611,63.549 L247.032,63.805 L245.453,64.062 L243.874,64.318 L242.295,64.574 L240.716,64.831 L239.137,65.087 L237.558,65.344 L235.978,65.601 L234.399,65.859 L232.821,66.116 L231.242,66.373 L229.663,66.631 L228.084,66.888 L226.506,67.146 L224.927,67.403 L223.348,67.661 L221.769,67.918 L220.191,68.176 L218.612,68.433 L217.033,68.69 L215.454,68.948 L213.876,69.205 L212.296,69.463 L210.716,69.722 L209.138,69.981 L207.559,70.24 L205.981,70.499 L204.402,70.758 L202.824,71.017 L201.245,71.276 L199.666,71.535 L198.086,71.796 L196.508,72.056 L194.93,72.317 L193.352,72.578 L191.773,72.838 L190.195,73.099 L188.617,73.36 L187.037,73.62 L185.458,73.883 L183.88,74.146 L182.302,74.409 L180.724,74.671 L179.147,74.934 L177.569,75.196 L175.991,75.459 L174.411,75.722 L172.832,75.987 L171.255,76.252 L169.677,76.517 L168.1,76.782 L166.522,77.046 L164.945,77.311 L163.367,77.576 L161.788,77.841 L160.209,78.109 L158.632,78.377 L157.055,78.644 L155.478,78.912 L153.901,79.18 L152.324,79.447 L150.747,79.715 L149.168,79.983 L147.589,80.254 L146.012,80.525 L144.436,80.796 L142.859,81.067 L141.283,81.338 L139.706,81.609 L138.13,81.88 L136.554,82.151 L135.089,82.402 L133.623,82.654 L132.157,82.905 L130.691,83.156 L129.225,83.408 L127.759,83.659 L126.293,83.911 L124.827,84.162 L123.361,84.413 L121.895,84.665 L120.43,84.916 L118.964,85.168 L117.498,85.419 L116.032,85.67 L114.566,85.922 L113.103,86.173 L111.639,86.42 L110.172,86.668 L108.706,86.916 L107.239,87.164 L105.773,87.413 L104.306,87.661 L102.84,87.909 L101.373,88.157 L99.907,88.405 L98.44,88.653 L96.974,88.901 L95.507,89.149 L94.041,89.397 L92.574,89.645 L91.108,89.893 L89.642,90.141 L88.177,90.388 L86.71,90.635 L85.243,90.882 L83.777,91.129 L82.31,91.376 L80.843,91.623 L79.377,91.87 L77.91,92.117 L76.443,92.364 L74.977,92.611 L73.51,92.858 L72.043,93.105 L70.577,93.352 L69.11,93.599 L67.643,93.846 L66.169,94.094 L65.006,94.299 L63.851,94.503 L62.697,94.706 L61.527,94.913 L60.359,95.135 L59.207,95.354 L58.054,95.574 L56.892,95.795 L55.731,96.026 L54.579,96.256 L53.428,96.485 L52.272,96.716 L51.116,96.95 L49.965,97.185 L48.814,97.419 L47.663,97.653 L46.512,97.887 L45.361,98.121 L44.21,98.355 L43.065,98.587 L41.919,98.815 L40.767,99.043 L39.615,99.271 L38.47,99.497 L37.324,99.717 L36.178,99.937 L35.031,100.15 L33.886,100.363 L32.74,100.568 L31.594,100.773 L30.447,100.969 L29.302,101.164 L28.156,101.349 L27.011,101.534 L25.866,101.707 L24.72,101.879 L23.572,102.04 L22.428,102.2 L21.281,102.346 L20.136,102.491 L18.99,102.62 L17.842,102.75 L16.694,102.863 L15.548,102.977 L14.399,103.071 L13.253,103.166 L12.104,103.241 L10.97,103.315 L10.738,103.318 L10.443,103.293 L10.073,103.235 L9.655,103.148 L9.205,103.029 L8.725,102.88 L8.231,102.706 L7.735,102.511 L7.241,102.294 L6.758,102.063 L6.3,101.821 L5.869,101.572 L5.476,101.322 L5.137,101.081 L4.853,100.853 L4.636,100.653 L4.507,100.512 L4.415,100.375 L4.461,100.45 L4.485,100.506 L4.513,100.596 L4.538,100.73 L4.547,100.922 L4.527,101.125 L4.471,101.334 L4.381,101.538 L4.286,101.686 L4.197,101.789 L4.126,101.853 L4.086,101.881 L5.58,100.951 L7.083,100.08 L8.614,99.251 L10.17,98.459 L11.747,97.706 L13.34,96.991 L14.98,96.312 L16.613,95.636 L18.275,95.018 L19.946,94.397 L21.64,93.822 L23.343,93.244 L25.061,92.698 L26.785,92.15 L28.52,91.627 L30.263,91.101 L32.011,90.586 L33.765,90.07 L35.518,89.554 L37.279,89.036 L39.031,88.507 L40.792,87.976 L42.538,87.421 L44.271,86.87 L45.581,86.449 L46.888,86.029 L48.194,85.609 L49.5,85.189 L50.806,84.769 L52.113,84.348 L53.419,83.928 L54.713,83.512 L56.012,83.11 L57.323,82.704 L58.634,82.299 L59.945,81.893 L61.255,81.487 L62.566,81.081 L63.877,80.675 L65.178,80.273 L66.482,79.882 L67.797,79.489 L69.111,79.096 L70.426,78.702 L71.741,78.309 L73.055,77.916 L74.371,77.525 L75.678,77.136 L76.988,76.757 L78.306,76.375 L79.624,75.994 L80.943,75.612 L82.261,75.231 L83.579,74.849 L84.897,74.467 L86.208,74.088 L87.521,73.718 L88.842,73.345 L90.163,72.973 L91.483,72.601 L92.804,72.228 L94.125,71.856 L95.446,71.483 L96.761,71.112 L98.077,70.749 L99.4,70.384 L100.723,70.019 L102.045,69.654 L103.368,69.288 L104.691,68.923 L106.014,68.558 L107.332,68.194 L108.338,67.921 L109.349,67.646 L110.36,67.372 L111.371,67.097 L112.381,66.822 L113.392,66.548 L114.403,66.273 L115.409,66 L116.416,65.731 L117.428,65.461 L118.441,65.191 L119.453,64.921 L120.465,64.651 L121.477,64.38 L122.489,64.11 L123.496,63.841 L124.505,63.577 L125.518,63.311 L126.532,63.045 L127.545,62.779 L128.558,62.513 L129.572,62.247 L130.585,61.982 L131.594,61.717 L132.604,61.456 L133.619,61.194 L134.633,60.932 L135.647,60.67 L136.662,60.408 L137.676,60.145 L138.691,59.883 L139.7,59.622 L140.711,59.366 L141.727,59.108 L142.742,58.85 L143.758,58.592 L144.773,58.334 L145.789,58.076 L146.805,57.818 L147.816,57.561 L148.828,57.309 L149.844,57.055 L150.861,56.801 L151.877,56.547 L152.894,56.293 L153.911,56.039 L154.928,55.786 L155.94,55.533 L156.953,55.284 L157.971,55.033 L158.989,54.783 L160.006,54.533 L161.024,54.282 L162.042,54.032 L163.059,53.782 L164.072,53.533 L165.086,53.287 L166.105,53.041 L167.124,52.794 L168.142,52.548 L169.161,52.302 L170.179,52.055 L171.198,51.809 L172.212,51.563 L173.227,51.322 L174.247,51.079 L175.267,50.836 L176.286,50.594 L177.306,50.351 L178.325,50.108 L179.345,49.866 L180.36,49.624 L181.377,49.384 L182.397,49.144 L183.417,48.904 L184.437,48.664 L185.458,48.424 L186.478,48.184 L187.498,47.944 L188.514,47.705 L189.531,47.47 L190.552,47.233 L191.573,46.997 L192.594,46.76 L193.616,46.524 L194.637,46.287 L195.658,46.051 L196.675,45.815 L197.693,45.583 L198.715,45.35 L199.736,45.117 L200.758,44.884 L201.78,44.651 L202.802,44.418 L203.824,44.185 L204.841,43.953 L205.858,43.726 L206.881,43.497 L207.904,43.269 L208.927,43.04 L209.95,42.812 L210.973,42.583 L211.996,42.355 L213.019,42.126 L214.042,41.898 L215.065,41.669 L216.088,41.441 L217.111,41.212 L218.134,40.984 L219.157,40.755 L220.18,40.527 L221.195,40.3 L222.212,40.079 L223.236,39.857 L224.261,39.635 L225.285,39.413 L226.309,39.191 L227.334,38.968 L228.358,38.746 L229.382,38.524 L230.407,38.302 L231.431,38.08 L232.455,37.857 L233.48,37.635 L234.504,37.413 L235.528,37.19 L236.553,36.968 L237.57,36.747 L238.588,36.532 L239.614,36.315 L240.639,36.099 L241.665,35.882 L242.69,35.665 L243.716,35.449 L244.741,35.232 L245.767,35.015 L246.792,34.799 L247.817,34.582 L248.843,34.365 L249.868,34.149 L250.894,33.932 L251.919,33.716 L252.945,33.499 L253.964,33.284 L254.985,33.073 L256.011,32.862 L257.037,32.65 L258.064,32.438 L259.09,32.227 L260.116,32.015 L261.143,31.803 L262.169,31.592 L263.196,31.38 L264.222,31.169 L265.248,30.957 L266.275,30.745 L267.301,30.534 L268.327,30.322 L269.354,30.11 L270.374,29.9 L271.395,29.695 L272.422,29.488 L273.449,29.282 L274.477,29.075 L275.504,28.869 L276.531,28.662 L277.558,28.456 L278.586,28.249 L279.613,28.043 L280.64,27.836 L281.667,27.63 L282.694,27.423 L283.722,27.217 L284.749,27.01 L285.776,26.804 L286.798,26.598 L287.82,26.398 L288.848,26.196 L289.876,25.994 L290.903,25.792 L291.931,25.59 L292.959,25.388 L293.987,25.186 L295.015,24.984 L296.043,24.782 L297.07,24.58 L298.098,24.378 L299.126,24.176 L300.154,23.974 L301.182,23.772 L302.209,23.57 L303.227,23.37 L304.214,23.185 L305.212,22.998 L306.21,22.81 L307.208,22.623 L308.205,22.436 L309.203,22.248 L310.201,22.061 L311.199,21.873 L312.197,21.686 L313.195,21.499 L314.193,21.311 L315.191,21.124 L316.189,20.937 L317.186,20.749 L318.184,20.562 L319.17,20.377 L320.157,20.201 L321.157,20.024 L322.157,19.846 L323.157,19.668 L324.157,19.491 L325.156,19.313 L326.156,19.135 L327.156,18.958 L328.156,18.78 L329.156,18.602 L330.155,18.425 L331.155,18.247 L332.155,18.069 L333.155,17.892 L334.155,17.714 L335.152,17.537 L336.149,17.362 L337.149,17.186 L338.15,17.011 L339.15,16.836 L340.15,16.66 L341.15,16.485 L342.151,16.309 L343.151,16.134 L344.151,15.958 L345.151,15.782 L346.151,15.607 L347.152,15.431 L348.152,15.255 L349.152,15.08 L350.152,14.904 L351.155,14.728 L352.158,14.549 L353.158,14.371 L354.157,14.193 L355.157,14.015 L356.157,13.837 L357.157,13.659 L358.156,13.481 L359.161,13.303 L360.165,13.12 L361.164,12.938 L362.163,12.756 L363.162,12.574 L364.161,12.393 L365.159,12.211 L366.158,12.029 L367.165,11.846 L368.17,11.657 L369.168,11.469 L370.165,11.282 L371.163,11.094 L372.161,10.907 L373.159,10.719 L374.156,10.532 L375.16,10.343 L376.163,10.15 L377.16,9.957 L378.157,9.765 L379.159,9.571 L380.16,9.374 L381.156,9.177 L382.152,8.981 L383.154,8.783 L384.155,8.581 L385.15,8.38 L386.145,8.179 L387.146,7.977 L388.146,7.77 L389.14,7.564 L390.134,7.359 L391.135,7.152 L392.135,6.939 L393.128,6.728 L394.121,6.517 L395.121,6.305 L396.121,6.086 L397.112,5.87 L398.104,5.653 L399.1,5.435 L399.359,5.376 L399.59,5.32 L399.804,5.262 L400.033,5.191 L400.208,5.125 L400.637,4.912 L400.637,4.912 L400.639,4.911 L400.64,4.91 L400.642,4.909 L400.645,4.907 L400.649,4.905 L400.653,4.903 L400.699,4.874 L400.796,4.808 L400.91,4.724 L401.041,4.614 L401.193,4.466 L401.366,4.265 L401.555,3.987 L401.74,3.608 L401.819,3.373 L401.82,3.371 L401.82,3.369 L401.821,3.368 L401.821,3.367 L401.821,3.366 L401.822,3.365 L396.785,1.92 L396.78,1.937 L401.817,3.382 L401.817,3.382 L401.817,3.382 L401.817,3.382 L401.817,3.381 L401.817,3.381 L401.817,3.381 L401.817,3.38 L401.818,3.379 L401.818,3.379 L401.818,3.378 L401.818,3.377 L401.818,3.376 L401.819,3.375 L401.819,3.374 L401.854,3.238 L401.905,2.944 L401.921,2.626 L401.897,2.297 L401.833,1.972 L401.73,1.666 L401.6,1.39 L401.452,1.15 L401.296,0.947 L401.141,0.779 L400.991,0.642 L400.85,0.531 L400.72,0.441 L400.6,0.368 L400.492,0.309 L400.393,0.26 L400.346,0.239 L400.344,0.238 L400.343,0.238 L400.341,0.237 L400.34,0.236 L400.339,0.236 L400.338,0.235 L400.337,0.235 L400.336,0.234 L400.335,0.234 L400.334,0.234 L400.334,0.234 L400.333,0.233 L400.333,0.233 L400.333,0.233 L400.333,0.233 L399.6,0.03 L399.404,0.01 L399.151,0 L398.94,0.002 L398.721,0.011 L398.317,0.037 L397.825,0.079 L397.265,0.133 L396.646,0.198 L395.967,0.273 L395.235,0.358 L393.685,0.546 L392.046,0.755 L390.417,0.972 L389.622,1.08 L388.861,1.186 L388.142,1.288 L387.47,1.386 L386.857,1.478 L386.307,1.563 L385.01,1.777 L383.72,1.99 L382.429,2.203 L381.125,2.418 L379.823,2.647 L378.535,2.874 L377.247,3.1 L375.951,3.328 L374.657,3.565 L373.37,3.8 L372.084,4.034 L370.794,4.27 L369.505,4.508 L368.219,4.745 L366.933,4.983 L365.649,5.22 L364.365,5.456 L363.078,5.691 L361.792,5.927 L360.513,6.161 L359.233,6.388 L357.945,6.616 L356.658,6.844 L355.382,7.07 L354.161,7.275 L352.928,7.482 L351.695,7.688 L350.462,7.895 L349.229,8.101 L347.996,8.308 L346.763,8.515 L345.53,8.721 L344.297,8.928 L343.064,9.134 L341.831,9.341 L340.598,9.548 L339.365,9.754 L338.132,9.961 L336.899,10.167 L335.677,10.372 L334.453,10.566 L333.218,10.762 L331.983,10.958 L330.749,11.154 L329.514,11.35 L328.279,11.546 L327.044,11.742 L325.809,11.938 L324.574,12.134 L323.34,12.33 L322.105,12.526 L320.87,12.722 L319.635,12.918 L318.4,13.114 L317.166,13.31 L315.935,13.506 L314.704,13.697 L313.468,13.889 L312.233,14.081 L310.997,14.273 L309.762,14.465 L308.526,14.657 L307.291,14.849 L306.055,15.041 L304.82,15.233 L303.584,15.426 L302.349,15.618 L301.113,15.81 L299.878,16.002 L298.642,16.194 L297.407,16.386 L296.171,16.578 L294.934,16.771 L293.699,16.963 L292.464,17.156 L291.228,17.349 L289.993,17.542 L288.758,17.735 L287.522,17.928 L286.285,18.121 L285.047,18.317 L283.812,18.512 L282.577,18.707 L281.342,18.903 L280.107,19.098 L278.872,19.293 L277.638,19.489 L276.398,19.685 L275.16,19.885 L273.926,20.084 L272.691,20.283 L271.457,20.483 L270.223,20.682 L268.989,20.882 L267.755,21.081 L266.515,21.281 L265.276,21.486 L264.043,21.691 L262.81,21.895 L261.576,22.099 L260.343,22.304 L259.11,22.508 L257.876,22.712 L256.635,22.918 L255.396,23.13 L254.164,23.342 L252.931,23.553 L251.699,23.764 L250.467,23.976 L249.235,24.187 L248.003,24.398 L246.761,24.611 L245.522,24.832 L244.291,25.052 L243.06,25.272 L241.829,25.492 L240.599,25.712 L239.368,25.932 L238.137,26.151 L236.902,26.372 L235.299,26.664 L233.7,26.955 L232.101,27.247 L230.502,27.538 L228.903,27.829 L227.304,28.12 L225.706,28.411 L224.107,28.703 L222.507,28.994 L220.909,29.285 L219.31,29.577 L217.711,29.868 L216.112,30.159 L214.513,30.451 L212.914,30.742 L211.314,31.033 L209.714,31.326 L208.115,31.618 L206.517,31.911 L204.918,32.203 L203.319,32.496 L201.72,32.788 L200.121,33.081 L198.521,33.373 L196.921,33.668 L195.322,33.962 L193.724,34.256 L192.125,34.55 L190.527,34.845 L188.928,35.139 L187.33,35.433 L185.729,35.728 L184.129,36.025 L182.531,36.322 L180.933,36.619 L179.335,36.916 L177.737,37.213 L176.139,37.51 L174.541,37.807 L172.94,38.105 L171.339,38.406 L169.742,38.707 L168.145,39.008 L166.548,39.309 L164.95,39.61 L163.353,39.911 L161.756,40.211 L160.155,40.513 L158.555,40.819 L156.959,41.124 L155.363,41.429 L153.766,41.734 L152.17,42.039 L150.573,42.344 L148.977,42.649 L147.376,42.955 L145.776,43.267 L144.181,43.578 L142.586,43.888 L140.991,44.199 L139.395,44.51 L137.8,44.82 L136.205,45.131 L134.604,45.443 L133.005,45.761 L131.411,46.078 L129.817,46.395 L128.223,46.712 L126.629,47.03 L125.035,47.347 L123.441,47.664 L121.842,47.982 L120.244,48.307 L118.651,48.631 L117.059,48.955 L115.466,49.279 L113.874,49.603 L112.281,49.927 L110.689,50.251 L109.089,50.576 L107.492,50.91 L105.901,51.242 L104.31,51.575 L102.719,51.907 L101.129,52.239 L99.538,52.571 L97.947,52.903 L96.349,53.237 L94.752,53.58 L93.163,53.922 L91.574,54.263 L89.986,54.605 L88.397,54.946 L86.808,55.288 L85.219,55.629 L83.617,55.974 L82.245,56.284 L80.889,56.592 L79.534,56.899 L78.156,57.211 L76.784,57.547 L75.434,57.877 L74.084,58.207 L72.715,58.541 L71.351,58.895 L70.006,59.244 L68.66,59.594 L67.301,59.946 L65.945,60.314 L64.603,60.678 L63.261,61.042 L61.907,61.409 L60.556,61.789 L59.218,62.166 L57.879,62.543 L56.532,62.923 L55.186,63.311 L53.85,63.698 L52.514,64.084 L51.172,64.472 L49.832,64.866 L48.497,65.258 L47.162,65.651 L45.824,66.044 L44.487,66.44 L43.153,66.836 L41.819,67.232 L40.485,67.627 L39.152,68.023 L37.818,68.418 L36.484,68.814 L35.152,69.208 L33.821,69.6 L32.486,69.993 L31.151,70.385 L29.823,70.776 L28.492,71.161 L27.156,71.547 L25.82,71.933 L24.493,72.317 L23.163,72.69 L21.825,73.067 L20.486,73.443 L19.147,73.82 C17.723,74.221 16.893,75.7 17.293,77.125 C17.694,78.55 19.174,79.38 20.599,78.98 Z" id="Fill-271"></path>
        </g>
    </g>
</svg>
