<?xml version="1.0" encoding="UTF-8"?>
<svg width="403px" height="118px" viewBox="0 0 403 118" version="1.1" xmlns="http://www.w3.org/2000/svg" xmlns:xlink="http://www.w3.org/1999/xlink">
    <title>190</title>
    <g id="Page-1" stroke="none" stroke-width="1" fill="none" fill-rule="evenodd">
        <g id="190" transform="translate(0.187611, 0.784000)" fill="currentColor">
            <path d="M35.665,66.885 L35.278,66.997 L34.861,67.118 L34.416,67.247 L33.947,67.383 L33.454,67.526 L32.939,67.675 L31.856,67.989 L30.708,68.322 L29.512,68.668 L28.288,69.023 L27.047,69.383 L25.806,69.742 L24.58,70.097 L23.385,70.443 L22.24,70.776 L21.152,71.091 L20.144,71.383 L19.232,71.647 L18.814,71.769 L18.425,71.882 L18.069,71.985 L17.744,72.079 L17.454,72.164 L17.202,72.237 L16.987,72.3 L16.813,72.35 L16.682,72.389 L16.593,72.415 L16.578,72.419 L16.578,72.419 L16.578,72.42 L16.577,72.42 L16.577,72.42 L16.576,72.42 L16.575,72.42 L16.574,72.421 L16.573,72.421 L16.571,72.421 L16.57,72.422 L16.568,72.422 L16.566,72.423 L16.564,72.424 L16.562,72.424 L16.56,72.425 L16.557,72.426 L16.552,72.427 L16.547,72.429 L16.541,72.431 L16.535,72.433 L16.527,72.435 L16.517,72.438 L16.505,72.442 L16.486,72.448 L16.455,72.459 L16.391,72.482 L16.179,72.574 L16.342,76.844 L17.589,76.986 L17.718,76.962 L17.767,76.951 L17.782,76.947 L17.783,76.947 L17.783,76.947 L17.784,76.946 L17.785,76.946 L17.785,76.946 L17.786,76.946 L17.786,76.946 L17.786,76.946 L17.787,76.946 L17.787,76.946 L17.787,76.946 L17.787,76.946 L17.788,76.946 L17.788,76.946 L17.788,76.946 L17.86,76.926 L17.925,76.908 L18.043,76.875 L18.214,76.826 L18.437,76.762 L18.72,76.681 L19.072,76.58 L20.962,76.029 L22.851,75.479 L24.74,74.929 L26.637,74.377 L28.529,73.812 L30.415,73.25 L32.301,72.688 L34.192,72.124 L36.08,71.551 L37.963,70.98 L39.846,70.408 L41.733,69.836 L43.617,69.258 L45.499,68.68 L47.38,68.103 L49.263,67.525 L51.146,66.943 L53.026,66.362 L54.906,65.781 L56.787,65.199 L58.667,64.617 L60.547,64.035 L62.427,63.453 L64.304,62.871 L66.183,62.293 L68.064,61.714 L69.945,61.135 L71.825,60.556 L73.706,59.977 L75.587,59.398 L77.468,58.82 L79.34,58.243 L81.217,57.68 L83.102,57.115 L84.986,56.55 L86.871,55.985 L88.756,55.42 L90.64,54.854 L92.525,54.289 L94.395,53.728 L96.272,53.193 L98.164,52.653 L100.056,52.114 L101.948,51.574 L103.84,51.034 L105.732,50.494 L107.624,49.955 L109.506,49.418 L110.859,49.047 L112.224,48.672 L113.59,48.297 L114.95,47.924 L116.312,47.557 L117.679,47.188 L119.046,46.82 L120.408,46.453 L121.772,46.092 L123.141,45.73 L124.51,45.368 L125.874,45.007 L127.24,44.651 L128.61,44.294 L129.981,43.938 L131.346,43.582 L132.713,43.232 L134.085,42.881 L135.457,42.53 L136.824,42.181 L138.193,41.836 L139.566,41.491 L140.939,41.146 L142.307,40.802 L143.676,40.465 L145.051,40.127 L146.426,39.789 L147.802,39.451 L149.177,39.113 L150.552,38.775 L151.927,38.437 L153.294,38.101 L154.664,37.775 L156.041,37.447 L157.419,37.119 L158.797,36.791 L160.175,36.464 L161.553,36.136 L162.93,35.808 L164.301,35.482 L165.673,35.165 L167.053,34.846 L168.433,34.527 L169.813,34.208 L171.193,33.888 L172.573,33.569 L173.953,33.25 L175.326,32.933 L176.702,32.623 L178.084,32.312 L179.465,32 L180.847,31.689 L182.229,31.378 L183.611,31.066 L184.993,30.755 L186.368,30.445 L187.745,30.143 L189.129,29.84 L190.513,29.536 L191.896,29.233 L193.28,28.93 L194.664,28.626 L196.047,28.323 L197.425,28.02 L198.805,27.725 L200.19,27.429 L201.575,27.132 L202.96,26.836 L204.345,26.54 L205.73,26.243 L207.115,25.947 L208.496,25.651 L209.877,25.362 L211.264,25.071 L212.65,24.78 L214.036,24.49 L215.423,24.199 L216.809,23.908 L218.195,23.617 L219.577,23.328 L220.96,23.044 L222.347,22.758 L223.735,22.473 L225.122,22.188 L226.509,21.903 L227.896,21.618 L229.284,21.333 L230.667,21.049 L232.051,20.769 L233.439,20.489 L234.828,20.208 L236.216,19.928 L237.604,19.648 L238.992,19.367 L240.38,19.087 L241.765,18.807 L243.222,18.517 L244.682,18.226 L246.142,17.936 L247.602,17.645 L249.063,17.354 L250.523,17.064 L251.983,16.773 L253.439,16.483 L254.896,16.199 L256.358,15.913 L257.819,15.628 L259.28,15.343 L260.742,15.058 L262.203,14.773 L263.665,14.488 L265.121,14.203 L266.578,13.926 L268.041,13.648 L269.503,13.37 L270.966,13.092 L272.429,12.813 L273.891,12.535 L275.354,12.257 L276.811,11.979 L278.269,11.71 L279.733,11.439 L281.197,11.169 L282.662,10.898 L284.126,10.628 L285.59,10.357 L287.054,10.087 L288.51,9.817 L289.969,9.558 L291.435,9.298 L292.901,9.037 L294.366,8.777 L295.832,8.516 L297.298,8.256 L298.764,7.995 L300.221,7.737 L301.68,7.489 L303.148,7.24 L304.616,6.991 L306.084,6.742 L307.552,6.493 L309.02,6.244 L310.487,5.995 L311.952,5.747 L312.365,5.679 L312.846,5.603 L313.38,5.521 L313.954,5.434 L314.564,5.343 L315.196,5.251 L316.51,5.064 L317.822,4.885 L319.065,4.725 L319.634,4.656 L320.162,4.594 L320.633,4.543 L321.043,4.503 L321.367,4.477 L321.584,4.465 L321.741,4.464 L321.455,4.448 L321.457,4.448 L321.46,4.449 L321.466,4.449 L321.474,4.45 L321.483,4.451 L321.494,4.453 L321.508,4.454 L321.487,4.451 L321.416,4.44 L321.321,4.421 L321.195,4.388 L321.023,4.33 L320.789,4.223 L320.476,4.02 L320.094,3.639 L319.904,3.355 L319.906,3.358 L319.907,3.361 L319.909,3.364 L319.91,3.366 L319.911,3.368 L319.911,3.369 L323.806,1.188 L323.788,1.156 L319.894,3.337 L319.894,3.337 L319.894,3.337 L319.894,3.338 L319.895,3.339 L319.895,3.339 L319.895,3.34 L319.896,3.341 L319.897,3.342 L319.897,3.344 L319.898,3.345 L319.899,3.346 L319.9,3.348 L319.901,3.35 L319.902,3.352 L319.87,3.293 L319.807,3.161 L319.747,3.009 L319.695,2.838 L319.653,2.648 L319.628,2.439 L319.622,2.218 L319.64,1.988 L319.683,1.757 L319.749,1.534 L319.835,1.325 L319.937,1.135 L320.049,0.967 L320.165,0.821 L320.281,0.698 L320.395,0.594 L320.449,0.549 L320.447,0.55 L320.445,0.551 L320.444,0.553 L320.443,0.554 L320.441,0.555 L320.44,0.556 L320.439,0.556 L320.438,0.557 L320.438,0.558 L320.437,0.558 L320.436,0.559 L320.436,0.559 L320.436,0.559 L320.435,0.559 L320.435,0.56 L320.858,0.293 L320.91,0.271 L320.952,0.254 L320.915,0.267 L320.821,0.294 L320.683,0.332 L319.595,0.613 L318.504,0.895 L317.412,1.178 L316.331,1.457 L315.246,1.727 L314.151,1.999 L313.057,2.272 L311.971,2.542 L310.883,2.803 L309.785,3.066 L308.688,3.329 L307.598,3.59 L306.506,3.844 L305.406,4.1 L304.307,4.356 L303.215,4.61 L302.12,4.857 L301.018,5.105 L299.916,5.353 L298.821,5.6 L297.724,5.84 L296.619,6.081 L295.515,6.322 L294.417,6.562 L293.316,6.797 L292.21,7.033 L291.105,7.268 L290.004,7.503 L288.902,7.732 L287.794,7.963 L286.687,8.193 L285.584,8.423 L284.48,8.648 L283.371,8.873 L282.262,9.099 L281.157,9.324 L280.05,9.546 L278.94,9.768 L277.831,9.991 L276.724,10.212 L275.616,10.431 L274.505,10.65 L273.395,10.87 L272.287,11.09 L271.178,11.308 L270.066,11.526 L268.955,11.744 L267.846,11.962 L266.736,12.178 L265.625,12.394 L264.513,12.61 L263.402,12.827 L262.29,13.043 L261.178,13.259 L260.067,13.476 L258.955,13.692 L257.844,13.909 L256.733,14.125 L255.622,14.341 L254.51,14.558 L253.399,14.774 L252.288,14.99 L251.176,15.207 L250.062,15.423 L248.949,15.644 L247.839,15.863 L246.729,16.083 L245.618,16.303 L244.508,16.522 L243.398,16.742 L242.288,16.962 L241.173,17.182 L240.059,17.409 L238.952,17.634 L237.844,17.86 L236.736,18.086 L235.628,18.311 L234.52,18.537 L233.412,18.762 L232.295,18.99 L231.182,19.226 L230.077,19.461 L228.972,19.696 L227.867,19.931 L226.763,20.166 L225.658,20.401 L224.553,20.635 L223.437,20.873 L222.324,21.123 L221.224,21.37 L220.123,21.618 L219.023,21.865 L217.922,22.112 L216.822,22.36 L215.721,22.607 L214.612,22.857 L213.528,23.111 L212.453,23.363 L211.378,23.615 L210.303,23.867 L209.229,24.119 L208.154,24.371 L207.079,24.624 L205.998,24.877 L204.918,25.136 L203.844,25.393 L202.77,25.65 L201.697,25.907 L200.623,26.164 L199.549,26.421 L198.475,26.678 L197.395,26.936 L196.317,27.202 L195.245,27.466 L194.173,27.729 L193.101,27.993 L192.029,28.257 L190.956,28.521 L189.884,28.785 L188.807,29.05 L187.73,29.322 L186.66,29.592 L185.589,29.862 L184.519,30.132 L183.448,30.402 L182.377,30.672 L181.307,30.942 L180.23,31.214 L179.155,31.492 L178.086,31.769 L177.017,32.046 L175.948,32.323 L174.879,32.599 L173.81,32.876 L172.741,33.153 L171.667,33.431 L170.593,33.716 L169.526,33.999 L168.459,34.282 L167.392,34.565 L166.324,34.849 L165.257,35.132 L164.189,35.415 L163.117,35.699 L162.046,35.99 L160.98,36.278 L159.914,36.567 L158.849,36.856 L157.783,37.145 L156.717,37.434 L155.651,37.723 L154.58,38.013 L153.51,38.31 L152.446,38.605 L151.382,38.9 L150.318,39.196 L149.254,39.491 L148.19,39.786 L147.126,40.081 L146.056,40.378 L144.988,40.68 L143.926,40.982 L142.864,41.283 L141.801,41.584 L140.739,41.885 L139.677,42.186 L138.614,42.488 L137.547,42.79 L136.482,43.098 L135.421,43.405 L134.36,43.711 L133.299,44.018 L132.239,44.324 L131.178,44.631 L130.117,44.938 L129.051,45.246 L127.987,45.56 L126.928,45.872 L125.869,46.184 L124.81,46.497 L123.751,46.809 L122.692,47.121 L121.633,47.434 L120.569,47.747 L119.507,48.067 L118.449,48.385 L117.392,48.703 L116.335,49.021 L115.278,49.339 L114.221,49.657 L113.164,49.975 L112.105,50.293 L110.693,50.719 L109.282,51.144 L107.871,51.57 L106.461,51.995 L105.05,52.418 L103.637,52.842 L102.224,53.265 L100.811,53.689 L99.397,54.113 L97.984,54.538 L96.57,54.962 L95.155,55.387 L93.74,55.816 L92.328,56.244 L90.915,56.672 L89.499,57.101 L88.084,57.537 L86.673,57.972 L85.263,58.406 L83.846,58.843 L82.433,59.29 L81.026,59.735 L79.619,60.18 L78.204,60.627 L76.794,61.087 L75.392,61.543 L73.989,62 L72.576,62.46 L71.169,62.937 L69.773,63.41 L68.376,63.883 L66.967,64.36 L65.565,64.857 L64.176,65.349 L62.787,65.842 L61.388,66.337 L59.995,66.848 L58.604,67.358 L57.217,67.881 L55.83,68.403 L54.448,68.938 L53.066,69.473 L51.689,70.02 L50.311,70.568 L48.938,71.13 L47.565,71.692 L46.198,72.27 L44.846,72.841 L44.306,73.063 L43.691,73.298 L43,73.55 L42.251,73.815 L41.455,74.092 L40.62,74.379 L38.893,74.975 L37.151,75.597 L35.502,76.229 L34.699,76.561 L33.953,76.895 L33.26,77.235 L32.613,77.591 L32.011,77.981 L31.512,78.384 L31.194,78.702 L30.931,79.036 L30.699,79.439 L30.517,79.939 L30.441,80.554 L30.524,81.181 L30.75,81.749 L31.079,82.218 L31.433,82.562 L31.795,82.826 L32.173,83.04 L32.587,83.226 L33.635,83.62 L34.731,83.954 L35.83,84.216 L36.933,84.417 L38.045,84.557 L39.155,84.64 L40.264,84.676 L41.377,84.665 L42.485,84.612 L43.591,84.525 L44.696,84.404 L45.795,84.255 L46.89,84.084 L47.982,83.892 L49.066,83.684 L50.145,83.464 L51.216,83.236 L52.28,83.004 L53.333,82.772 L54.377,82.542 L55.412,82.322 L56.433,82.104 L57.439,81.914 L58.462,81.72 L60.199,81.398 L61.958,81.071 L63.709,80.706 L65.457,80.342 L67.198,79.947 L68.934,79.552 L70.666,79.135 L72.396,78.718 L74.122,78.283 L75.844,77.848 L77.564,77.4 L79.28,76.954 L80.995,76.501 L82.707,76.05 L84.419,75.598 L86.125,75.148 L87.833,74.709 L89.547,74.268 L91.262,73.828 L92.955,73.393 L94.657,72.995 L96.38,72.593 L98.103,72.191 L99.81,71.793 L101.481,71.432 L103.168,71.069 L104.855,70.705 L106.542,70.341 L108.228,69.977 L109.915,69.614 L111.602,69.25 L113.284,68.887 L114.968,68.533 L116.658,68.178 L118.347,67.823 L120.037,67.468 L121.726,67.113 L123.416,66.758 L125.105,66.403 L126.79,66.049 L128.477,65.702 L130.169,65.355 L131.861,65.008 L133.553,64.661 L135.244,64.314 L136.936,63.966 L138.628,63.619 L140.316,63.273 L142.006,62.933 L143.699,62.592 L145.393,62.251 L147.086,61.91 L148.78,61.569 L150.473,61.229 L152.167,60.888 L153.856,60.548 L155.548,60.214 L157.243,59.88 L158.938,59.545 L160.633,59.211 L162.329,58.877 L164.024,58.542 L165.719,58.208 L167.411,57.874 L169.104,57.546 L170.801,57.217 L172.497,56.888 L174.194,56.56 L175.89,56.231 L177.586,55.902 L179.283,55.573 L180.977,55.245 L182.672,54.921 L184.369,54.596 L186.066,54.272 L187.763,53.947 L189.461,53.623 L191.158,53.298 L192.855,52.974 L194.55,52.65 L196.246,52.33 L197.944,52.01 L199.642,51.69 L201.34,51.37 L203.038,51.05 L204.736,50.73 L206.434,50.41 L208.13,50.091 L209.827,49.774 L211.525,49.457 L213.223,49.14 L214.921,48.824 L216.62,48.507 L218.318,48.19 L220.016,47.873 L221.713,47.557 L223.41,47.242 L225.109,46.928 L226.807,46.613 L228.505,46.298 L230.203,45.984 L231.901,45.669 L233.6,45.355 L235.297,45.04 L236.994,44.727 L238.692,44.414 L240.39,44.102 L242.087,43.789 L243.785,43.476 L245.483,43.163 L247.181,42.85 L248.878,42.537 L250.575,42.225 L252.272,41.913 L253.969,41.601 L255.666,41.289 L257.363,40.977 L259.061,40.665 L260.758,40.353 L262.452,40.041 L263.714,39.813 L264.979,39.585 L266.243,39.357 L267.508,39.128 L268.773,38.9 L270.038,38.672 L271.303,38.443 L272.563,38.216 L273.825,37.994 L275.091,37.772 L276.357,37.55 L277.623,37.327 L278.889,37.105 L280.155,36.883 L281.421,36.66 L282.686,36.438 L283.951,36.218 L285.217,35.997 L286.483,35.776 L287.75,35.555 L289.016,35.334 L290.282,35.114 L291.548,34.893 L292.816,34.672 L294.084,34.448 L295.35,34.225 L296.615,34.002 L297.881,33.779 L299.147,33.556 L300.413,33.333 L301.679,33.11 L302.949,32.886 L304.218,32.655 L305.483,32.426 L306.748,32.196 L308.012,31.967 L309.277,31.737 L310.541,31.507 L311.806,31.278 L313.079,31.047 L314.349,30.805 L315.612,30.564 L316.874,30.323 L318.137,30.082 L319.399,29.842 L320.662,29.601 L321.924,29.36 L323.189,29.119 L323.625,29.034 L324.115,28.938 L324.656,28.833 L325.237,28.719 L325.853,28.599 L326.495,28.473 L327.817,28.211 L329.145,27.945 L330.4,27.688 L330.99,27.565 L331.536,27.449 L332.033,27.34 L332.48,27.24 L332.867,27.148 L333.194,27.064 L333.433,26.995 L333.595,26.939 L333.597,26.939 L333.6,26.937 L333.606,26.935 L333.613,26.932 L333.621,26.929 L333.632,26.925 L333.644,26.92 L333.679,26.906 L333.74,26.88 L333.812,26.847 L333.902,26.801 L334.017,26.732 L334.174,26.62 L334.391,26.419 L334.673,26.021 L334.807,25.692 L334.808,25.689 L334.809,25.687 L334.809,25.685 L334.81,25.683 L334.81,25.682 L334.81,25.681 L331.261,24.606 L331.253,24.632 L334.803,25.707 L334.803,25.707 L334.803,25.706 L334.803,25.706 L334.803,25.705 L334.803,25.705 L334.803,25.704 L334.804,25.703 L334.804,25.702 L334.804,25.701 L334.805,25.7 L334.805,25.699 L334.805,25.698 L334.806,25.696 L334.806,25.695 L334.827,25.621 L334.861,25.459 L334.883,25.271 L334.885,25.058 L334.858,24.826 L334.798,24.582 L334.701,24.341 L334.573,24.116 L334.421,23.919 L334.258,23.755 L334.094,23.626 L333.937,23.527 L333.791,23.453 L333.659,23.399 L333.541,23.36 L333.436,23.333 L333.387,23.322 L333.385,23.322 L333.383,23.322 L333.382,23.321 L333.38,23.321 L333.379,23.321 L333.377,23.32 L333.376,23.32 L333.375,23.32 L333.374,23.32 L333.373,23.32 L333.373,23.319 L333.372,23.319 L333.372,23.319 L333.371,23.319 L333.371,23.319 L333.059,23.283 L332.924,23.28 L332.749,23.286 L332.58,23.297 L332.394,23.313 L332.176,23.336 L330.655,23.51 L329.136,23.684 L327.617,23.858 L326.086,24.034 L324.555,24.23 L323.037,24.425 L321.518,24.619 L319.988,24.815 L318.458,25.031 L316.94,25.245 L315.421,25.459 L313.893,25.674 L312.365,25.907 L310.848,26.137 L309.33,26.368 L307.802,26.601 L306.274,26.851 L304.757,27.099 L303.24,27.347 L301.713,27.597 L300.187,27.864 L298.671,28.129 L297.154,28.394 L295.63,28.66 L294.106,28.941 L292.591,29.22 L291.075,29.499 L289.551,29.78 L288.028,30.075 L286.514,30.368 L285,30.662 L283.478,30.957 L281.957,31.266 L280.444,31.573 L278.931,31.88 L277.411,32.188 L275.893,32.508 L274.381,32.826 L272.87,33.145 L271.351,33.464 L269.835,33.796 L268.324,34.125 L266.814,34.455 L265.298,34.787 L263.784,35.129 L262.276,35.469 L260.768,35.81 L259.254,36.152 L257.743,36.502 L256.236,36.851 L254.73,37.201 L253.219,37.551 L251.709,37.91 L250.205,38.268 L248.701,38.625 L247.192,38.984 L245.685,39.35 L244.183,39.716 L242.681,40.081 L241.175,40.447 L239.672,40.819 L238.172,41.19 L236.672,41.561 L235.169,41.932 L233.668,42.31 L232.171,42.686 L230.674,43.063 L229.174,43.441 L227.677,43.823 L226.182,44.205 L224.688,44.586 L223.19,44.968 L221.697,45.354 L220.206,45.74 L218.716,46.126 L217.226,46.511 L215.735,46.897 L214.245,47.283 L212.754,47.668 L211.261,48.055 L209.775,48.444 L208.291,48.833 L206.806,49.221 L205.322,49.61 L203.838,49.999 L202.354,50.387 L200.87,50.776 L199.386,51.165 L197.909,51.553 L196.432,51.94 L194.955,52.328 L193.478,52.716 L192.001,53.103 L190.524,53.491 L189.047,53.879 L187.57,54.267 L186.38,54.58 L185.191,54.893 L184.002,55.206 L182.813,55.519 L181.624,55.832 L180.435,56.146 L179.246,56.459 L178.054,56.773 L176.867,57.09 L175.682,57.406 L174.498,57.722 L173.314,58.038 L172.13,58.354 L170.945,58.67 L169.761,58.987 L168.573,59.304 L167.39,59.625 L166.21,59.945 L165.03,60.265 L163.85,60.585 L162.669,60.905 L161.489,61.225 L160.309,61.545 L159.126,61.866 L157.946,62.191 L156.769,62.516 L155.592,62.84 L154.415,63.164 L153.239,63.488 L152.062,63.813 L150.885,64.137 L149.704,64.462 L148.527,64.793 L147.353,65.122 L146.179,65.452 L145.006,65.781 L143.832,66.111 L142.659,66.441 L141.485,66.77 L140.307,67.101 L139.131,67.438 L137.96,67.774 L136.789,68.109 L135.618,68.445 L134.447,68.781 L133.276,69.116 L132.105,69.452 L130.93,69.789 L129.756,70.132 L128.587,70.474 L127.418,70.816 L126.249,71.158 L125.08,71.5 L123.911,71.841 L122.741,72.183 L121.567,72.527 L120.394,72.878 L119.227,73.227 L118.059,73.577 L116.892,73.926 L115.724,74.276 L114.556,74.625 L113.389,74.974 L112.216,75.326 L111.044,75.685 L109.877,76.043 L108.71,76.401 L107.544,76.759 L106.377,77.117 L105.211,77.474 L104.044,77.832 L102.872,78.192 L101.701,78.56 L100.535,78.926 L99.368,79.292 L98.202,79.658 L97.036,80.024 L95.87,80.39 L94.704,80.756 L93.532,81.124 L92.359,81.502 L91.193,81.878 L90.027,82.254 L88.861,82.63 L87.694,83.006 L86.528,83.382 L85.362,83.758 L84.189,84.136 L83.016,84.525 L81.85,84.912 L80.683,85.298 L79.516,85.685 L78.349,86.072 L77.182,86.458 L76.016,86.845 L74.841,87.234 L73.518,87.686 L72.202,88.136 L70.885,88.586 L69.56,89.039 L68.241,89.506 L66.929,89.97 L65.618,90.434 L64.3,90.9 L62.986,91.377 L61.678,91.852 L60.371,92.327 L59.058,92.804 L57.749,93.289 L56.444,93.772 L55.14,94.256 L53.831,94.741 L52.525,95.232 L51.223,95.722 L49.921,96.213 L48.617,96.704 L47.314,97.199 L46.013,97.693 L44.712,98.188 L43.411,98.683 L42.11,99.179 L40.81,99.675 L39.51,100.17 L38.21,100.666 L36.91,101.162 L35.61,101.658 L34.309,102.154 L33.013,102.648 L31.714,103.137 L30.412,103.627 L29.109,104.117 L27.807,104.607 L26.505,105.097 L25.203,105.587 L23.9,106.077 L22.608,106.563 L21.309,107.033 L20.001,107.507 L18.693,107.98 L17.385,108.453 L16.077,108.927 L14.769,109.4 L13.46,109.874 L12.158,110.345 L11.716,110.498 L11.195,110.673 L10.613,110.863 L9.986,111.065 L9.319,111.277 L8.624,111.496 L7.18,111.944 L5.732,112.388 L4.359,112.806 L3.72,112.999 L3.127,113.179 L2.59,113.341 L2.113,113.486 L1.71,113.608 L1.391,113.706 L1.26,113.746 L1.151,113.78 L1.063,113.808 L1.001,113.829 L0.931,113.854 L0.931,113.854 L0.931,113.854 L0.931,113.854 L0.93,113.854 L0.93,113.854 L0.929,113.854 L0.929,113.855 L0.928,113.855 L0.927,113.855 L0.927,113.856 L0.926,113.856 L0.924,113.856 L0.923,113.857 L0.922,113.857 L0.921,113.858 L0.914,113.86 L0.901,113.865 L0.885,113.872 L0.867,113.879 L0.844,113.889 L0.815,113.902 L0.778,113.92 L0.726,113.947 L0.652,113.989 L0.536,114.067 L0.336,114.24 L0,114.747 L0.029,116.061 L0.798,116.831 L1.23,116.966 L1.439,116.987 L1.505,116.987 L1.505,116.987 L1.506,116.987 L1.506,116.987 L1.506,116.987 L1.507,116.987 L1.507,116.987 L1.507,116.987 L1.507,116.987 L1.508,116.987 L1.508,116.987 L1.508,116.987 L1.508,116.987 L1.508,116.987 L1.508,116.987 L1.508,116.987 L1.86,116.946 L1.923,116.931 L2.012,116.908 L2.123,116.878 L2.26,116.841 L2.43,116.793 L2.641,116.734 L3.721,116.428 L4.801,116.122 L5.88,115.816 L6.965,115.509 L8.047,115.194 L9.124,114.881 L10.201,114.568 L11.283,114.254 L12.362,113.934 L13.437,113.614 L14.512,113.295 L15.59,112.975 L16.667,112.65 L17.74,112.326 L18.813,112.002 L19.89,111.677 L20.965,111.347 L22.036,111.018 L23.108,110.69 L24.182,110.36 L25.255,110.027 L26.325,109.694 L27.395,109.362 L28.468,109.029 L29.539,108.691 L30.608,108.355 L31.677,108.019 L32.745,107.682 L33.814,107.346 L34.882,107.01 L35.951,106.674 L37.022,106.336 L38.091,105.995 L39.159,105.655 L40.226,105.315 L41.293,104.975 L42.361,104.635 L43.428,104.295 L44.495,103.955 L45.562,103.615 L46.629,103.275 L47.696,102.935 L48.764,102.596 L49.831,102.256 L50.898,101.916 L51.965,101.576 L53.032,101.236 L54.098,100.897 L55.163,100.561 L56.232,100.224 L57.3,99.888 L58.368,99.551 L59.436,99.214 L60.504,98.877 L61.572,98.541 L62.636,98.205 L63.702,97.876 L64.772,97.545 L65.842,97.215 L66.912,96.884 L67.982,96.554 L69.053,96.223 L70.122,95.89 L71.184,95.559 L72.25,95.238 L73.323,94.915 L74.395,94.591 L75.468,94.268 L76.541,93.945 L77.613,93.621 L78.686,93.298 L79.753,92.976 L80.822,92.663 L81.898,92.348 L82.973,92.033 L84.044,91.719 L85.117,91.413 L86.194,91.105 L87.272,90.797 L88.345,90.49 L89.42,90.192 L90.5,89.892 L91.581,89.591 L92.656,89.293 L93.733,89.002 L94.817,88.71 L95.9,88.418 L96.977,88.127 L98.057,87.846 L99.143,87.563 L100.229,87.28 L101.309,86.999 L102.392,86.729 L103.482,86.457 L104.572,86.186 L105.658,85.916 L106.709,85.662 L107.765,85.407 L108.82,85.152 L109.876,84.897 L110.932,84.642 L111.988,84.387 L113.044,84.132 L114.096,83.877 L115.15,83.628 L116.207,83.377 L117.264,83.127 L118.321,82.877 L119.378,82.627 L120.435,82.376 L121.491,82.126 L122.545,81.876 L123.6,81.631 L124.658,81.385 L125.716,81.139 L126.774,80.893 L127.832,80.647 L128.89,80.401 L129.948,80.155 L131.003,79.91 L132.06,79.668 L133.118,79.426 L134.177,79.183 L135.236,78.941 L136.295,78.698 L137.353,78.457 L138.412,78.215 L139.469,77.974 L140.526,77.737 L141.586,77.499 L142.646,77.261 L143.705,77.023 L144.765,76.785 L145.825,76.547 L146.884,76.309 L147.942,76.071 L149,75.836 L150.061,75.602 L151.121,75.367 L152.181,75.132 L153.242,74.897 L154.302,74.662 L155.363,74.427 L156.421,74.193 L157.48,73.962 L158.541,73.73 L159.602,73.499 L160.663,73.267 L161.724,73.036 L162.785,72.805 L163.847,72.573 L164.908,72.342 L165.969,72.111 L167.03,71.879 L168.091,71.648 L169.152,71.416 L170.214,71.185 L171.275,70.954 L172.336,70.723 L173.395,70.493 L174.455,70.266 L175.517,70.039 L176.579,69.812 L177.641,69.585 L178.703,69.357 L179.765,69.13 L180.827,68.903 L181.89,68.676 L182.952,68.449 L184.014,68.222 L185.076,67.995 L186.138,67.768 L187.2,67.54 L188.262,67.313 L189.324,67.086 L190.385,66.859 L191.447,66.635 L192.509,66.409 L193.572,66.184 L194.635,65.959 L195.697,65.734 L196.76,65.509 L197.822,65.284 L198.885,65.059 L199.948,64.834 L201.01,64.609 L202.073,64.384 L203.135,64.159 L204.198,63.934 L205.261,63.709 L206.323,63.484 L207.386,63.26 L208.449,63.035 L209.512,62.81 L210.574,62.586 L211.637,62.361 L212.699,62.136 L213.762,61.911 L214.825,61.687 L215.888,61.462 L216.95,61.237 L218.013,61.013 L219.076,60.788 L220.138,60.563 L221.201,60.338 L222.264,60.114 L223.327,59.889 L224.389,59.664 L225.452,59.44 L226.515,59.215 L227.577,58.99 L228.64,58.765 L229.703,58.541 L230.766,58.316 L231.828,58.091 L232.891,57.867 L233.954,57.642 L235.016,57.417 L236.079,57.192 L237.142,56.968 L238.204,56.743 L239.267,56.518 L240.33,56.294 L241.396,56.068 L242.461,55.837 L243.522,55.607 L244.584,55.377 L245.645,55.147 L246.707,54.917 L247.768,54.687 L248.83,54.457 L249.892,54.227 L250.953,53.997 L252.015,53.767 L253.076,53.537 L254.138,53.307 L255.199,53.077 L256.261,52.847 L257.322,52.617 L258.384,52.387 L259.445,52.157 L260.507,51.927 L261.569,51.697 L262.63,51.467 L263.692,51.237 L264.753,51.007 L265.815,50.777 L266.876,50.547 L267.938,50.317 L268.999,50.086 L270.061,49.856 L271.123,49.626 L272.184,49.396 L273.246,49.167 L274.307,48.937 L275.377,48.705 L276.443,48.461 L277.502,48.219 L278.561,47.976 L279.62,47.734 L280.678,47.491 L281.737,47.249 L282.796,47.007 L283.855,46.764 L284.914,46.522 L285.973,46.279 L287.032,46.037 L288.09,45.795 L289.149,45.552 L290.208,45.31 L291.267,45.067 L292.326,44.825 L293.385,44.583 L294.443,44.34 L295.502,44.098 L296.561,43.855 L297.62,43.613 L298.679,43.371 L299.738,43.128 L300.796,42.886 L301.855,42.643 L302.914,42.401 L303.973,42.159 L305.032,41.916 L306.091,41.674 L307.15,41.432 L308.209,41.19 L309.271,40.947 L310.838,40.581 L312.403,40.216 L313.968,39.852 L315.533,39.487 L317.099,39.122 L318.664,38.757 L320.229,38.392 L321.791,38.028 L323.354,37.673 L324.921,37.317 L326.489,36.961 L328.056,36.605 L329.623,36.249 L331.19,35.893 L332.757,35.537 L334.322,35.181 L335.888,34.832 L337.457,34.483 L339.025,34.133 L340.594,33.783 L342.163,33.434 L343.731,33.084 L345.3,32.735 L346.867,32.385 L348.435,32.04 L350.005,31.695 L351.574,31.349 L353.144,31.003 L354.714,30.658 L356.283,30.312 L357.853,29.966 L359.422,29.621 L360.991,29.278 L362.561,28.934 L364.131,28.591 L365.701,28.247 L367.271,27.904 L368.841,27.56 L370.411,27.217 L371.981,26.874 L373.551,26.53 L375.121,26.186 L376.692,25.843 L378.262,25.499 L379.832,25.156 L381.402,24.812 L382.972,24.468 L384.534,24.126 L385.162,24.002 L385.805,23.901 L386.473,23.819 L387.16,23.751 L387.863,23.696 L388.578,23.65 L390.052,23.57 L391.547,23.484 L393.047,23.358 L394.54,23.165 L396.013,22.864 L397.395,22.426 L398.121,22.122 L398.795,21.775 L399.438,21.37 L400.052,20.906 L400.632,20.372 L401.141,19.798 L401.372,19.494 L401.557,19.198 L401.708,18.883 L401.822,18.524 L401.87,18.096 L401.812,17.639 L401.63,17.197 L401.342,16.827 L401.027,16.576 L400.714,16.408 L400.405,16.296 L400.11,16.224 L399.819,16.177 L399.521,16.149 L399.22,16.135 L398.912,16.133 L398.591,16.142 L398.248,16.161 L397.573,16.22 L396.838,16.308 L396.068,16.419 L395.272,16.547 L394.451,16.69 L393.617,16.843 L392.779,17 L391.944,17.159 L391.127,17.314 L389.556,17.599 L388.165,17.817 L387.017,17.935 L385.841,18.014 L384.658,18.106 L383.496,18.208 L382.35,18.32 L381.222,18.441 L380.105,18.572 L379.011,18.714 L377.914,18.856 L376.833,19.014 L375.754,19.172 L374.681,19.343 L373.611,19.514 L372.539,19.696 L371.468,19.878 L370.388,20.071 L369.31,20.263 L368.212,20.463 L367.117,20.663 L365.997,20.869 L364.879,21.075 L363.725,21.286 L362.573,21.497 L361.376,21.711 L360.176,21.925 C359.453,22.054 358.971,22.745 359.101,23.468 C359.23,24.191 359.921,24.673 360.644,24.543 L361.843,24.329 L363.046,24.114 L364.203,23.903 L365.359,23.691 L366.479,23.485 L367.597,23.279 L368.69,23.079 L369.782,22.88 L370.854,22.689 L371.924,22.498 L372.984,22.318 L374.043,22.138 L375.101,21.969 L376.156,21.8 L377.217,21.645 L378.277,21.49 L379.353,21.35 L380.431,21.211 L381.519,21.083 L382.622,20.964 L383.741,20.855 L384.878,20.755 L386.033,20.665 L387.242,20.583 L388.513,20.452 L390.001,20.219 L391.608,19.927 L392.439,19.77 L393.273,19.612 L394.102,19.456 L394.918,19.306 L395.711,19.168 L396.47,19.046 L397.188,18.942 L397.847,18.862 L398.45,18.811 L398.703,18.797 L398.942,18.79 L399.155,18.792 L399.34,18.8 L399.485,18.813 L399.592,18.83 L399.652,18.844 L399.647,18.842 L399.588,18.809 L399.476,18.717 L399.335,18.534 L399.24,18.307 L399.214,18.092 L399.23,17.938 L399.245,17.885 L399.235,17.906 L399.188,17.98 L399.113,18.081 L398.733,18.513 L398.349,18.867 L397.928,19.184 L397.478,19.468 L396.997,19.715 L396.515,19.92 L395.347,20.292 L394.106,20.545 L392.767,20.716 L391.36,20.834 L389.903,20.918 L388.425,20.999 L387.674,21.047 L386.926,21.106 L386.18,21.18 L385.438,21.271 L384.7,21.387 L383.982,21.529 L382.404,21.874 L380.834,22.218 L379.264,22.562 L377.694,22.905 L376.124,23.249 L374.554,23.593 L372.984,23.937 L371.414,24.28 L369.844,24.624 L368.274,24.967 L366.704,25.311 L365.134,25.655 L363.564,25.998 L361.994,26.342 L360.423,26.685 L358.853,27.029 L357.282,27.375 L355.712,27.721 L354.143,28.066 L352.573,28.412 L351.004,28.758 L349.434,29.104 L347.865,29.449 L346.293,29.796 L344.723,30.146 L343.154,30.495 L341.586,30.845 L340.017,31.195 L338.449,31.544 L336.88,31.894 L335.311,32.244 L333.74,32.594 L332.17,32.951 L330.603,33.307 L329.036,33.663 L327.468,34.019 L325.901,34.375 L324.334,34.732 L322.767,35.088 L321.196,35.445 L319.627,35.811 L318.062,36.176 L316.497,36.541 L314.932,36.906 L313.367,37.271 L311.801,37.636 L310.236,38.001 L308.673,38.365 L307.618,38.607 L306.559,38.849 L305.5,39.091 L304.441,39.333 L303.382,39.575 L302.323,39.817 L301.264,40.059 L300.205,40.301 L299.146,40.543 L298.087,40.785 L297.028,41.027 L295.97,41.269 L294.911,41.511 L293.852,41.753 L292.793,41.995 L291.734,42.237 L290.675,42.479 L289.616,42.721 L288.557,42.963 L287.498,43.205 L286.439,43.447 L285.38,43.689 L284.321,43.931 L283.262,44.173 L282.203,44.415 L281.144,44.656 L280.085,44.898 L279.027,45.14 L277.968,45.382 L276.909,45.624 L275.85,45.866 L274.798,46.107 L273.744,46.334 L272.683,46.564 L271.621,46.793 L270.559,47.023 L269.498,47.252 L268.436,47.481 L267.374,47.711 L266.312,47.94 L265.251,48.169 L264.189,48.398 L263.127,48.628 L262.066,48.857 L261.004,49.086 L259.942,49.316 L258.88,49.545 L257.819,49.774 L256.757,50.004 L255.695,50.233 L254.634,50.462 L253.572,50.691 L252.51,50.921 L251.449,51.15 L250.387,51.379 L249.325,51.609 L248.263,51.838 L247.202,52.067 L246.14,52.297 L245.078,52.526 L244.017,52.755 L242.955,52.984 L241.893,53.214 L240.835,53.442 L239.775,53.666 L238.712,53.89 L237.649,54.114 L236.586,54.337 L235.524,54.561 L234.461,54.785 L233.398,55.009 L232.335,55.233 L231.272,55.457 L230.209,55.681 L229.147,55.905 L228.084,56.129 L227.021,56.353 L225.958,56.577 L224.895,56.801 L223.832,57.025 L222.769,57.249 L221.706,57.473 L220.644,57.697 L219.581,57.921 L218.518,58.145 L217.455,58.369 L216.392,58.593 L215.329,58.817 L214.267,59.041 L213.204,59.265 L212.141,59.489 L211.078,59.713 L210.015,59.937 L208.952,60.161 L207.889,60.385 L206.826,60.609 L205.764,60.833 L204.701,61.057 L203.638,61.281 L202.575,61.504 L201.512,61.728 L200.449,61.951 L199.386,62.175 L198.323,62.399 L197.26,62.622 L196.198,62.846 L195.135,63.069 L194.072,63.293 L193.009,63.516 L191.946,63.74 L190.883,63.964 L189.819,64.188 L188.755,64.413 L187.693,64.639 L186.63,64.865 L185.568,65.09 L184.505,65.316 L183.443,65.542 L182.38,65.767 L181.318,65.993 L180.255,66.219 L179.193,66.444 L178.13,66.67 L177.068,66.896 L176.006,67.121 L174.943,67.347 L173.881,67.572 L172.816,67.799 L171.752,68.029 L170.69,68.258 L169.629,68.488 L168.567,68.717 L167.505,68.946 L166.444,69.175 L165.382,69.404 L164.32,69.633 L163.259,69.862 L162.197,70.091 L161.135,70.32 L160.074,70.55 L159.012,70.779 L157.95,71.008 L156.888,71.237 L155.824,71.466 L154.761,71.7 L153.7,71.932 L152.64,72.165 L151.579,72.397 L150.518,72.63 L149.457,72.863 L148.396,73.095 L147.333,73.328 L146.271,73.565 L145.211,73.8 L144.151,74.036 L143.09,74.272 L142.03,74.507 L140.97,74.743 L139.91,74.979 L138.847,75.215 L137.786,75.455 L136.726,75.694 L135.667,75.934 L134.607,76.172 L133.548,76.411 L132.488,76.649 L131.429,76.888 L130.367,77.127 L129.305,77.369 L128.247,77.611 L127.188,77.854 L126.129,78.096 L125.07,78.338 L124.012,78.58 L122.953,78.822 L121.891,79.065 L120.83,79.312 L119.773,79.558 L118.715,79.805 L117.657,80.051 L116.599,80.298 L115.541,80.544 L114.484,80.79 L113.423,81.038 L112.362,81.29 L111.306,81.541 L110.249,81.792 L109.192,82.043 L108.136,82.295 L107.079,82.546 L106.022,82.797 L104.96,83.05 L103.864,83.318 L102.773,83.585 L101.682,83.852 L100.583,84.12 L99.488,84.398 L98.4,84.674 L97.312,84.95 L96.218,85.228 L95.126,85.516 L94.041,85.801 L92.957,86.087 L91.866,86.374 L90.778,86.669 L89.696,86.962 L88.614,87.256 L87.526,87.551 L86.441,87.854 L85.361,88.155 L84.282,88.457 L83.197,88.76 L82.115,89.07 L81.038,89.378 L79.96,89.687 L78.877,89.997 L77.797,90.315 L76.722,90.632 L75.647,90.949 L74.573,91.266 L73.498,91.583 L72.424,91.9 L71.349,92.216 L70.268,92.535 L69.189,92.864 L68.118,93.19 L67.048,93.519 L65.977,93.848 L64.906,94.177 L63.836,94.506 L62.765,94.835 L61.69,95.166 L60.617,95.502 L59.548,95.838 L58.48,96.173 L57.411,96.508 L56.342,96.844 L55.274,97.179 L54.205,97.514 L53.134,97.85 L52.065,98.189 L50.997,98.527 L49.929,98.865 L48.861,99.204 L47.794,99.542 L46.726,99.88 L45.658,100.218 L44.59,100.557 L43.522,100.895 L42.455,101.234 L41.387,101.572 L40.319,101.911 L39.251,102.249 L38.184,102.588 L37.116,102.926 L36.051,103.264 L34.984,103.599 L33.915,103.935 L32.846,104.271 L31.778,104.607 L30.709,104.943 L29.64,105.279 L28.571,105.615 L27.506,105.95 L26.438,106.282 L25.368,106.614 L24.298,106.946 L23.23,107.277 L22.162,107.605 L21.09,107.933 L20.019,108.262 L18.95,108.589 L17.881,108.912 L16.807,109.236 L15.734,109.559 L14.665,109.882 L13.593,110.2 L12.518,110.519 L11.443,110.837 L10.373,111.155 L9.3,111.466 L8.223,111.779 L7.146,112.092 L6.074,112.403 L5,112.707 L3.92,113.013 L2.84,113.319 L1.762,113.624 L1.564,113.679 L1.401,113.724 L1.275,113.759 L1.184,113.783 L1.139,113.795 L1.131,113.796 L1.483,113.755 L1.483,113.755 L1.483,113.755 L1.483,113.755 L1.483,113.755 L1.483,113.755 L1.482,113.755 L1.482,113.755 L1.482,113.755 L1.482,113.755 L1.481,113.755 L1.481,113.755 L1.481,113.755 L1.48,113.755 L1.48,113.755 L1.48,113.755 L1.545,113.756 L1.753,113.776 L2.184,113.911 L2.953,114.681 L2.982,115.995 L2.646,116.501 L2.447,116.674 L2.332,116.751 L2.258,116.793 L2.208,116.819 L2.172,116.836 L2.145,116.849 L2.124,116.858 L2.107,116.865 L2.094,116.87 L2.083,116.874 L2.079,116.876 L2.081,116.875 L2.082,116.875 L2.083,116.874 L2.084,116.874 L2.085,116.873 L2.086,116.873 L2.087,116.873 L2.087,116.873 L2.088,116.872 L2.089,116.872 L2.089,116.872 L2.089,116.872 L2.09,116.872 L2.09,116.872 L2.09,116.872 L2.02,116.897 L2.06,116.883 L2.122,116.864 L2.217,116.834 L2.337,116.797 L2.651,116.701 L3.05,116.581 L3.526,116.437 L4.063,116.275 L4.657,116.096 L5.298,115.902 L6.676,115.484 L8.134,115.039 L9.586,114.589 L10.294,114.367 L10.972,114.152 L11.613,113.946 L12.213,113.75 L12.759,113.568 L13.249,113.398 L14.563,112.924 L15.872,112.452 L17.18,111.98 L18.489,111.507 L19.797,111.035 L21.106,110.563 L22.414,110.091 L23.733,109.615 L25.045,109.122 L26.347,108.633 L27.65,108.145 L28.953,107.656 L30.255,107.167 L31.558,106.678 L32.861,106.189 L34.167,105.699 L35.471,105.203 L36.771,104.709 L38.072,104.214 L39.372,103.719 L40.673,103.225 L41.974,102.73 L43.274,102.236 L44.574,101.741 L45.874,101.249 L47.175,100.756 L48.476,100.262 L49.775,99.77 L51.075,99.282 L52.378,98.793 L53.68,98.304 L54.979,97.817 L56.28,97.336 L57.585,96.854 L58.89,96.372 L60.19,95.892 L61.493,95.42 L62.8,94.947 L64.108,94.473 L65.409,94.002 L66.715,93.542 L68.027,93.081 L69.339,92.619 L70.643,92.161 L71.952,91.717 L73.269,91.27 L74.586,90.823 L75.897,90.378 L77.056,89.997 L78.224,89.612 L79.392,89.228 L80.559,88.844 L81.727,88.46 L82.894,88.076 L84.062,87.692 L85.223,87.31 L86.384,86.938 L87.551,86.565 L88.718,86.191 L89.885,85.818 L91.052,85.445 L92.219,85.071 L93.386,84.698 L94.546,84.326 L95.707,83.964 L96.874,83.601 L98.041,83.237 L99.208,82.873 L100.375,82.51 L101.542,82.146 L102.709,81.783 L103.871,81.421 L105.033,81.067 L106.2,80.712 L107.367,80.356 L108.535,80.001 L109.702,79.646 L110.869,79.29 L112.037,78.935 L113.199,78.581 L114.361,78.236 L115.53,77.889 L116.698,77.542 L117.866,77.195 L119.035,76.849 L120.203,76.502 L121.371,76.155 L122.534,75.809 L123.699,75.471 L124.869,75.132 L126.039,74.793 L127.209,74.453 L128.379,74.114 L129.548,73.775 L130.718,73.435 L131.884,73.097 L133.051,72.766 L134.223,72.432 L135.395,72.099 L136.566,71.766 L137.738,71.433 L138.91,71.1 L140.082,70.767 L141.249,70.435 L142.419,70.109 L143.593,69.782 L144.767,69.455 L145.942,69.128 L147.116,68.801 L148.29,68.474 L149.465,68.147 L150.635,67.821 L151.808,67.501 L152.986,67.179 L154.163,66.857 L155.34,66.536 L156.518,66.214 L157.695,65.892 L158.873,65.571 L160.047,65.25 L161.224,64.933 L162.405,64.616 L163.586,64.298 L164.767,63.981 L165.948,63.663 L167.128,63.345 L168.309,63.028 L169.486,62.711 L170.668,62.398 L171.853,62.084 L173.038,61.77 L174.223,61.457 L175.408,61.143 L176.593,60.829 L177.777,60.515 L178.96,60.202 L180.146,59.892 L181.336,59.581 L182.526,59.271 L183.715,58.96 L184.905,58.649 L186.095,58.338 L187.284,58.027 L188.473,57.717 L189.95,57.332 L191.428,56.948 L192.906,56.563 L194.383,56.178 L195.861,55.793 L197.339,55.409 L198.816,55.024 L200.293,54.639 L201.778,54.253 L203.263,53.867 L204.747,53.48 L206.232,53.094 L207.717,52.708 L209.201,52.321 L210.686,51.935 L212.168,51.549 L213.656,51.167 L215.147,50.784 L216.639,50.4 L218.13,50.017 L219.621,49.634 L221.112,49.251 L222.603,48.867 L224.091,48.485 L225.583,48.107 L227.078,47.728 L228.573,47.349 L230.065,46.971 L231.56,46.597 L233.058,46.222 L234.556,45.847 L236.05,45.473 L237.547,45.105 L239.047,44.735 L240.548,44.366 L242.044,43.997 L243.543,43.634 L245.045,43.271 L246.548,42.907 L248.046,42.544 L249.546,42.189 L251.051,41.833 L252.555,41.477 L254.055,41.122 L255.557,40.775 L257.064,40.428 L258.57,40.08 L260.072,39.734 L261.575,39.396 L263.084,39.056 L264.593,38.717 L266.095,38.38 L267.599,38.052 L269.109,37.723 L270.62,37.394 L272.123,37.067 L273.628,36.751 L275.14,36.433 L276.652,36.116 L278.157,35.8 L279.663,35.495 L281.177,35.188 L282.69,34.882 L284.195,34.578 L285.702,34.287 L287.216,33.994 L288.73,33.701 L290.236,33.41 L291.743,33.133 L293.259,32.855 L294.775,32.577 L296.282,32.3 L297.79,32.037 L299.306,31.773 L300.823,31.509 L302.33,31.246 L303.837,31 L305.354,30.752 L306.872,30.504 L308.378,30.258 L309.886,30.029 L311.404,29.799 L312.922,29.568 L314.43,29.339 L315.938,29.127 L317.456,28.913 L318.975,28.7 L320.481,28.488 L321.988,28.295 L323.507,28.101 L325.026,27.907 L326.532,27.714 L328.039,27.542 L329.558,27.368 L331.076,27.194 L332.593,27.021 L332.749,27.005 L332.87,26.994 L332.943,26.99 L332.954,26.989 L332.945,26.99 L332.633,26.954 L332.633,26.954 L332.633,26.954 L332.633,26.954 L332.634,26.954 L332.635,26.954 L332.635,26.954 L332.636,26.954 L332.637,26.955 L332.638,26.955 L332.64,26.955 L332.641,26.955 L332.643,26.956 L332.645,26.956 L332.646,26.956 L332.648,26.957 L332.604,26.947 L332.502,26.921 L332.388,26.883 L332.259,26.831 L332.117,26.758 L331.962,26.661 L331.8,26.533 L331.639,26.371 L331.489,26.176 L331.361,25.954 L331.266,25.715 L331.206,25.474 L331.18,25.244 L331.182,25.034 L331.203,24.849 L331.237,24.69 L331.257,24.62 L331.256,24.622 L331.256,24.623 L331.255,24.624 L331.255,24.626 L331.255,24.627 L331.254,24.628 L331.254,24.629 L331.254,24.63 L331.253,24.63 L331.253,24.631 L331.253,24.631 L331.253,24.632 L331.253,24.632 L331.253,24.632 L334.803,25.707 L334.811,25.681 L331.261,24.606 L331.26,24.607 L331.26,24.608 L331.26,24.61 L331.259,24.612 L331.258,24.615 L331.257,24.618 L331.39,24.295 L331.666,23.904 L331.874,23.711 L332.019,23.607 L332.12,23.548 L332.192,23.511 L332.243,23.487 L332.279,23.472 L332.285,23.469 L332.273,23.474 L332.263,23.478 L332.254,23.481 L332.247,23.484 L332.242,23.486 L332.238,23.488 L332.236,23.488 L332.399,23.433 L332.225,23.484 L331.983,23.546 L331.646,23.625 L331.23,23.719 L330.755,23.823 L330.225,23.935 L329.652,24.055 L328.409,24.309 L327.093,24.572 L325.777,24.832 L325.139,24.957 L324.525,25.077 L323.945,25.19 L323.404,25.296 L322.914,25.391 L322.49,25.474 L321.23,25.714 L319.967,25.954 L318.704,26.194 L317.442,26.435 L316.179,26.675 L314.917,26.915 L313.654,27.156 L312.399,27.394 L311.143,27.622 L309.878,27.851 L308.614,28.081 L307.349,28.31 L306.084,28.539 L304.819,28.768 L303.555,28.997 L302.295,29.226 L301.034,29.448 L299.768,29.67 L298.502,29.893 L297.236,30.116 L295.97,30.338 L294.704,30.561 L293.438,30.784 L292.174,31.006 L290.91,31.226 L289.643,31.447 L288.377,31.667 L287.111,31.888 L285.844,32.108 L284.578,32.328 L283.312,32.549 L282.044,32.769 L280.777,32.992 L279.511,33.213 L278.245,33.435 L276.979,33.657 L275.713,33.879 L274.447,34.101 L273.181,34.323 L271.91,34.546 L270.641,34.774 L269.376,35.002 L268.111,35.23 L266.846,35.458 L265.581,35.686 L264.316,35.914 L263.051,36.142 L261.783,36.371 L260.083,36.683 L258.386,36.994 L256.689,37.306 L254.992,37.617 L253.295,37.929 L251.597,38.241 L249.9,38.552 L248.203,38.864 L246.504,39.176 L244.806,39.489 L243.109,39.801 L241.411,40.113 L239.713,40.426 L238.015,40.738 L236.317,41.05 L234.618,41.363 L232.919,41.677 L231.221,41.991 L229.522,42.305 L227.824,42.619 L226.126,42.934 L224.427,43.248 L222.729,43.562 L221.03,43.876 L219.33,44.192 L217.632,44.509 L215.934,44.825 L214.235,45.141 L212.537,45.458 L210.838,45.774 L209.14,46.09 L207.44,46.407 L205.74,46.727 L204.042,47.046 L202.344,47.366 L200.646,47.685 L198.948,48.004 L197.25,48.324 L195.552,48.643 L193.852,48.963 L192.152,49.287 L190.454,49.61 L188.757,49.933 L187.059,50.256 L185.362,50.579 L183.664,50.902 L181.967,51.225 L180.267,51.549 L178.568,51.876 L176.871,52.204 L175.174,52.531 L173.478,52.858 L171.781,53.186 L170.084,53.513 L168.388,53.841 L166.688,54.169 L164.99,54.502 L163.294,54.835 L161.599,55.168 L159.903,55.501 L158.208,55.833 L156.512,56.166 L154.817,56.499 L153.118,56.833 L151.421,57.172 L149.727,57.512 L148.033,57.851 L146.339,58.19 L144.646,58.529 L142.952,58.868 L141.258,59.207 L139.56,59.547 L137.865,59.894 L136.173,60.239 L134.481,60.585 L132.789,60.93 L131.097,61.276 L129.405,61.622 L127.713,61.967 L126.016,62.314 L124.322,62.668 L122.632,63.022 L120.942,63.375 L119.253,63.729 L117.563,64.082 L115.873,64.435 L114.183,64.789 L112.489,65.143 L110.797,65.507 L109.109,65.869 L107.422,66.231 L105.735,66.593 L104.048,66.955 L102.361,67.317 L100.674,67.68 L98.97,68.045 L97.232,68.449 L95.508,68.85 L93.785,69.25 L92.041,69.656 L90.306,70.1 L88.591,70.538 L86.876,70.977 L85.155,71.418 L83.437,71.869 L81.725,72.319 L80.012,72.769 L78.303,73.219 L76.593,73.662 L74.886,74.104 L73.177,74.534 L71.471,74.963 L69.762,75.373 L68.054,75.783 L66.342,76.17 L64.635,76.556 L62.92,76.912 L61.21,77.266 L59.492,77.584 L57.751,77.905 L56.719,78.1 L55.669,78.297 L54.606,78.522 L53.557,78.744 L52.498,78.977 L51.448,79.207 L50.399,79.435 L49.354,79.656 L48.314,79.867 L47.279,80.065 L46.253,80.244 L45.234,80.403 L44.224,80.539 L43.228,80.647 L42.241,80.724 L41.266,80.769 L40.31,80.778 L39.365,80.747 L38.436,80.676 L37.528,80.561 L36.633,80.397 L35.753,80.187 L34.895,79.925 L34.016,79.592 L33.929,79.551 L33.894,79.532 L33.927,79.556 L34.024,79.653 L34.175,79.871 L34.3,80.181 L34.347,80.545 L34.305,80.893 L34.225,81.12 L34.153,81.246 L34.113,81.299 L34.076,81.332 L34.291,81.154 L34.606,80.952 L35.058,80.706 L35.607,80.437 L36.241,80.155 L36.932,79.869 L38.506,79.267 L40.188,78.669 L41.895,78.082 L42.732,77.795 L43.546,77.513 L44.323,77.238 L45.061,76.97 L45.748,76.707 L46.359,76.457 L47.722,75.883 L49.07,75.315 L50.424,74.762 L51.778,74.209 L53.138,73.67 L54.499,73.131 L55.865,72.604 L57.231,72.076 L58.601,71.562 L59.973,71.047 L61.348,70.544 L62.722,70.042 L64.101,69.554 L65.491,69.063 L66.88,68.572 L68.256,68.086 L69.64,67.619 L71.037,67.147 L72.433,66.675 L73.819,66.207 L75.211,65.755 L76.614,65.299 L78.016,64.843 L79.411,64.39 L80.81,63.948 L82.217,63.504 L83.624,63.06 L85.024,62.618 L86.427,62.186 L87.838,61.752 L89.248,61.318 L90.654,60.886 L92.062,60.46 L93.475,60.033 L94.887,59.606 L96.298,59.179 L97.709,58.756 L99.122,58.333 L100.536,57.909 L101.949,57.486 L103.361,57.063 L104.775,56.64 L106.188,56.217 L107.603,55.794 L109.016,55.368 L110.427,54.943 L111.839,54.517 L113.25,54.092 L114.306,53.775 L115.363,53.457 L116.42,53.139 L117.478,52.822 L118.535,52.504 L119.592,52.186 L120.65,51.869 L121.702,51.552 L122.756,51.242 L123.815,50.93 L124.874,50.618 L125.933,50.306 L126.992,49.993 L128.051,49.681 L129.11,49.369 L130.164,49.059 L131.22,48.754 L132.28,48.448 L133.341,48.141 L134.402,47.835 L135.463,47.529 L136.524,47.222 L137.585,46.916 L138.64,46.611 L139.698,46.312 L140.76,46.011 L141.823,45.71 L142.885,45.409 L143.948,45.108 L145.01,44.807 L146.073,44.506 L147.129,44.206 L148.188,43.913 L149.252,43.618 L150.316,43.323 L151.381,43.029 L152.445,42.734 L153.509,42.439 L154.573,42.144 L155.631,41.851 L156.692,41.563 L157.758,41.275 L158.824,40.986 L159.889,40.697 L160.955,40.409 L162.021,40.12 L163.087,39.832 L164.147,39.544 L165.21,39.263 L166.277,38.98 L167.345,38.697 L168.412,38.414 L169.479,38.131 L170.547,37.849 L171.614,37.566 L172.676,37.284 L173.739,37.01 L174.808,36.734 L175.877,36.458 L176.946,36.182 L178.015,35.905 L179.085,35.629 L180.154,35.353 L181.217,35.079 L182.281,34.811 L183.352,34.541 L184.423,34.272 L185.494,34.003 L186.564,33.733 L187.635,33.464 L188.706,33.194 L189.771,32.926 L190.838,32.664 L191.91,32.401 L192.982,32.138 L194.055,31.875 L195.127,31.612 L196.199,31.348 L197.272,31.085 L198.337,30.824 L199.405,30.569 L200.479,30.313 L201.553,30.057 L202.627,29.8 L203.701,29.544 L204.774,29.288 L205.848,29.032 L206.916,28.778 L207.986,28.533 L209.062,28.286 L210.138,28.039 L211.214,27.793 L212.29,27.546 L213.366,27.299 L214.442,27.053 L215.509,26.808 L216.601,26.568 L217.703,26.326 L218.805,26.084 L219.907,25.843 L221.008,25.601 L222.11,25.359 L223.212,25.117 L224.302,24.878 L225.396,24.651 L226.502,24.422 L227.608,24.192 L228.714,23.963 L229.82,23.734 L230.926,23.505 L232.032,23.275 L233.129,23.048 L234.229,22.83 L235.338,22.61 L236.447,22.39 L237.556,22.17 L238.666,21.95 L239.775,21.73 L240.884,21.509 L241.987,21.29 L243.093,21.077 L244.204,20.862 L245.315,20.648 L246.426,20.433 L247.537,20.219 L248.648,20.004 L249.759,19.79 L250.867,19.576 L251.976,19.365 L253.088,19.154 L254.2,18.943 L255.313,18.732 L256.425,18.521 L257.537,18.309 L258.65,18.098 L259.762,17.887 L260.874,17.676 L261.987,17.465 L263.1,17.253 L264.212,17.042 L265.324,16.831 L266.437,16.62 L267.549,16.408 L268.664,16.197 L269.777,15.984 L270.889,15.771 L272.002,15.558 L273.116,15.344 L274.23,15.129 L275.341,14.913 L276.452,14.697 L277.566,14.48 L278.68,14.26 L279.79,14.041 L280.901,13.821 L282.015,13.601 L283.127,13.378 L284.237,13.155 L285.346,12.932 L286.46,12.709 L287.573,12.481 L288.681,12.253 L289.789,12.026 L290.902,11.798 L292.014,11.564 L293.121,11.331 L294.227,11.098 L295.339,10.864 L296.449,10.625 L297.554,10.387 L298.659,10.148 L299.771,9.909 L300.88,9.662 L301.983,9.417 L303.086,9.172 L304.196,8.925 L305.304,8.67 L306.405,8.417 L307.505,8.164 L308.613,7.91 L309.719,7.647 L310.817,7.386 L311.915,7.125 L313.022,6.861 L314.126,6.589 L315.221,6.319 L316.317,6.048 L317.422,5.776 L318.524,5.493 L319.616,5.213 L320.708,4.932 L321.804,4.651 L322.026,4.591 L322.227,4.532 L322.42,4.469 L322.637,4.387 L322.803,4.31 L323.226,4.043 L323.226,4.043 L323.226,4.043 L323.226,4.043 L323.227,4.042 L323.227,4.042 L323.228,4.041 L323.229,4.041 L323.23,4.04 L323.231,4.039 L323.232,4.038 L323.233,4.037 L323.234,4.036 L323.236,4.035 L323.237,4.034 L323.239,4.032 L323.297,3.985 L323.413,3.878 L323.532,3.751 L323.651,3.603 L323.765,3.431 L323.868,3.238 L323.956,3.026 L324.023,2.799 L324.066,2.565 L324.084,2.332 L324.079,2.107 L324.053,1.895 L324.011,1.7 L323.957,1.526 L323.896,1.37 L323.83,1.234 L323.796,1.171 L323.795,1.169 L323.794,1.167 L323.793,1.166 L323.793,1.164 L323.792,1.163 L323.791,1.162 L323.791,1.16 L323.79,1.159 L323.789,1.158 L323.789,1.158 L323.789,1.157 L323.788,1.157 L323.788,1.156 L323.788,1.156 L319.893,3.337 L319.912,3.369 L323.806,1.188 L323.805,1.187 L323.804,1.185 L323.803,1.183 L323.802,1.181 L323.8,1.178 L323.798,1.174 L323.604,0.882 L323.213,0.493 L322.889,0.284 L322.641,0.17 L322.452,0.106 L322.305,0.067 L322.187,0.044 L322.089,0.028 L322.038,0.022 L322.024,0.02 L322.013,0.019 L322.004,0.018 L321.996,0.017 L321.99,0.016 L321.986,0.016 L321.985,0.016 L321.699,0 L321.426,0.003 L321.059,0.023 L320.644,0.056 L320.179,0.1 L319.668,0.155 L319.109,0.218 L318.507,0.291 L317.238,0.452 L315.897,0.632 L314.565,0.819 L313.916,0.913 L313.294,1.004 L312.707,1.092 L312.159,1.175 L311.659,1.253 L311.213,1.325 L309.741,1.572 L308.273,1.818 L306.805,2.065 L305.336,2.311 L303.868,2.557 L302.4,2.804 L300.931,3.05 L299.454,3.298 L297.979,3.558 L296.513,3.817 L295.046,4.075 L293.58,4.333 L292.114,4.592 L290.648,4.85 L289.181,5.108 L287.707,5.368 L286.235,5.638 L284.771,5.906 L283.306,6.175 L281.842,6.443 L280.377,6.712 L278.913,6.98 L277.448,7.249 L275.978,7.518 L274.508,7.796 L273.045,8.072 L271.582,8.348 L270.119,8.624 L268.656,8.901 L267.193,9.177 L265.73,9.453 L264.261,9.731 L262.794,10.016 L261.333,10.3 L259.871,10.584 L258.409,10.868 L256.948,11.151 L255.486,11.435 L254.024,11.719 L252.558,12.004 L251.094,12.294 L249.633,12.583 L248.173,12.873 L246.712,13.162 L245.252,13.451 L243.791,13.741 L242.331,14.03 L240.867,14.32 L239.475,14.6 L238.087,14.879 L236.699,15.158 L235.311,15.437 L233.922,15.716 L232.534,15.995 L231.146,16.274 L229.754,16.554 L228.362,16.839 L226.975,17.122 L225.587,17.406 L224.199,17.69 L222.812,17.974 L221.424,18.258 L220.037,18.542 L218.645,18.826 L217.254,19.117 L215.867,19.406 L214.481,19.696 L213.094,19.985 L211.707,20.274 L210.321,20.564 L208.934,20.853 L207.543,21.144 L206.153,21.44 L204.768,21.735 L203.382,22.03 L201.997,22.325 L200.611,22.62 L199.226,22.915 L197.841,23.211 L196.449,23.507 L195.06,23.81 L193.676,24.113 L192.292,24.415 L190.908,24.717 L189.524,25.019 L188.14,25.321 L186.756,25.623 L185.366,25.927 L183.977,26.238 L182.595,26.548 L181.213,26.858 L179.831,27.168 L178.449,27.478 L177.067,27.789 L175.685,28.099 L174.296,28.41 L172.91,28.729 L171.529,29.047 L170.149,29.365 L168.769,29.683 L167.389,30 L166.008,30.318 L164.628,30.636 L163.24,30.956 L161.855,31.286 L160.477,31.613 L159.099,31.941 L157.721,32.268 L156.343,32.596 L154.965,32.923 L153.587,33.251 L152.201,33.581 L150.818,33.92 L149.442,34.258 L148.067,34.596 L146.692,34.933 L145.316,35.271 L143.941,35.609 L142.566,35.947 L141.184,36.286 L139.805,36.632 L138.432,36.977 L137.058,37.322 L135.68,37.668 L134.304,38.02 L132.932,38.371 L131.56,38.721 L130.183,39.073 L128.808,39.431 L127.438,39.787 L126.067,40.144 L124.692,40.501 L123.319,40.865 L121.95,41.226 L120.581,41.588 L119.207,41.951 L117.835,42.321 L116.467,42.689 L115.1,43.057 L113.728,43.426 L112.357,43.802 L110.991,44.177 L109.626,44.551 L108.247,44.929 L106.345,45.471 L104.453,46.01 L102.561,46.55 L100.669,47.089 L98.777,47.628 L96.885,48.167 L94.992,48.707 L93.085,49.25 L91.185,49.82 L89.3,50.384 L87.416,50.949 L85.531,51.514 L83.646,52.079 L81.761,52.643 L79.876,53.208 L77.983,53.775 L76.095,54.356 L74.214,54.935 L72.333,55.513 L70.452,56.091 L68.571,56.67 L66.69,57.248 L64.809,57.827 L62.926,58.406 L61.044,58.988 L59.165,59.57 L57.285,60.151 L55.405,60.733 L53.526,61.313 L51.645,61.894 L49.765,62.475 L47.887,63.055 L46.008,63.631 L44.127,64.208 L42.245,64.785 L40.368,65.36 L38.488,65.93 L36.605,66.501 L34.722,67.072 L32.844,67.641 L30.964,68.201 L29.078,68.763 L27.192,69.325 L25.314,69.885 L23.431,70.432 L21.542,70.982 L19.653,71.531 L17.765,72.081 L17.427,72.178 L17.146,72.258 L16.925,72.322 L16.758,72.369 L16.649,72.4 L16.596,72.415 L16.669,72.396 L16.669,72.396 L16.669,72.396 L16.668,72.396 L16.668,72.396 L16.668,72.396 L16.668,72.396 L16.668,72.396 L16.667,72.396 L16.667,72.397 L16.666,72.397 L16.666,72.397 L16.665,72.397 L16.665,72.397 L16.664,72.397 L16.663,72.397 L16.677,72.394 L16.724,72.383 L16.854,72.359 L18.1,72.501 L18.263,76.771 L18.052,76.863 L17.989,76.886 L17.959,76.896 L17.942,76.901 L17.931,76.905 L17.924,76.907 L17.919,76.909 L17.916,76.909 L17.914,76.91 L17.913,76.91 L17.913,76.911 L17.914,76.91 L17.916,76.909 L17.918,76.909 L17.92,76.908 L17.922,76.908 L17.924,76.907 L17.925,76.907 L17.926,76.906 L17.928,76.906 L17.929,76.906 L17.93,76.905 L17.93,76.905 L17.931,76.905 L17.931,76.905 L17.932,76.905 L17.932,76.905 L17.917,76.909 L18.001,76.884 L18.127,76.848 L18.298,76.798 L18.511,76.736 L18.762,76.663 L19.05,76.579 L19.375,76.485 L19.731,76.382 L20.119,76.269 L20.537,76.148 L21.448,75.884 L22.456,75.592 L23.544,75.277 L24.689,74.945 L25.884,74.599 L27.11,74.245 L28.351,73.885 L29.592,73.526 L30.817,73.172 L32.012,72.826 L33.16,72.493 L34.244,72.179 L34.759,72.03 L35.252,71.887 L35.721,71.751 L36.167,71.622 L36.584,71.501 L36.972,71.389 C38.215,71.028 38.931,69.727 38.571,68.483 C38.21,67.24 36.909,66.524 35.665,66.885 Z" id="Fill-264"></path>
        </g>
    </g>
</svg>
