<?xml version="1.0" encoding="UTF-8"?>
<svg width="291px" height="104px" viewBox="0 0 291 104" version="1.1" xmlns="http://www.w3.org/2000/svg" xmlns:xlink="http://www.w3.org/1999/xlink">
    <title>191</title>
    <g id="Page-1" stroke="none" stroke-width="1" fill="none" fill-rule="evenodd">
        <g id="191" transform="translate(0.376049, 0.454488)" fill="currentColor">
            <path d="M3.94426239,102.957212 L5.01326239,102.384512 L6.08226239,101.811712 L7.15136239,101.239012 L8.21286239,100.670312 L9.27746239,100.108512 L10.3495624,99.5428119 L11.4216624,98.9770119 L12.4863624,98.4153119 L13.5541624,97.8604119 L14.6292624,97.3017119 L15.7044624,96.7429119 L16.7729624,96.1877119 L17.8441624,95.6386119 L18.9220624,95.0863119 L20.0000624,94.5338119 L21.0706624,93.9851119 L22.1442624,93.4431119 L23.2251624,92.8976119 L24.3060624,92.3519119 L25.3797624,91.8099119 L26.4563624,91.2746119 L27.5402624,90.7358119 L28.6240624,90.1970119 L29.7013624,89.6613119 L30.7806624,89.1305119 L31.8659624,88.5952119 L32.9512624,88.0600119 L34.0294624,87.5282119 L35.1104624,87.0030119 L36.1986624,86.4745119 L37.2867624,85.9459119 L38.3679624,85.4206119 L39.4519624,84.9018119 L40.5429624,84.3799119 L41.6339624,83.8578119 L42.7186624,83.3386119 L43.8059624,82.8254119 L44.8994624,82.3093119 L45.9929624,81.7931119 L47.0788624,81.2784119 L48.1674624,80.7699119 L49.2628624,80.2582119 L50.3582624,79.7466119 L51.4470624,79.2379119 L52.5377624,78.7341119 L53.6351624,78.2273119 L54.7326624,77.7204119 L55.8241624,77.2163119 L56.9179624,76.7175119 L58.0162624,76.2130119 L59.1146624,75.7085119 L60.2065624,75.2068119 L61.3012624,74.7112119 L62.4016624,74.2114119 L63.4995624,73.7061119 L64.5913624,73.2036119 L65.6858624,72.7071119 L66.7864624,72.2079119 L67.8868624,71.7082119 L68.9814624,71.2098119 L70.0784624,70.7169119 L71.1807624,70.2217119 L72.2831624,69.7265119 L73.3827624,69.2403119 L74.4889624,68.7699119 L75.6007624,68.2970119 L76.7126624,67.8242119 L77.8189624,67.3536119 L78.9279624,66.8897119 L80.0429624,66.4243119 L81.1578624,65.9588119 L82.2678624,65.4955119 L83.3799624,65.0373119 L84.4970624,64.5772119 L85.6141624,64.1170119 L86.7258624,63.6592119 L87.8399624,63.2070119 L88.9594624,62.7527119 L90.0785624,62.2976119 L91.1922624,61.8443119 L92.3083624,61.3967119 L93.4296624,60.9470119 L94.5510624,60.4972119 L95.6671624,60.0485119 L96.7851624,59.6035119 L97.9080624,59.1575119 L99.0308624,58.7115119 L100.148562,58.2675119 L101.268462,57.8285119 L102.393562,57.3885119 L103.518562,56.9475119 L104.638662,56.5085119 L105.760862,56.0755119 L106.888162,55.6405119 L108.015462,55.2055119 L109.135962,54.7725119 L110.259462,54.3475119 L111.389662,53.9195119 L112.519962,53.4925119 L113.650162,53.0645119 L114.780462,52.6365119 L115.910662,52.2085119 L117.040962,51.7815119 L118.161562,51.3575119 L119.286362,50.9435119 L120.420862,50.5265119 L121.555262,50.1085119 L122.689762,49.6915119 L123.824262,49.2755119 L124.958862,48.8585119 L126.093362,48.4415119 L127.218762,48.0285119 L128.348462,47.6255119 L129.487762,47.2215119 L130.627062,46.8165119 L131.766362,46.4125119 L132.905662,46.0085119 L134.044962,45.6035119 L135.184262,45.1995119 L136.315462,44.7975119 L137.450062,44.4055119 L138.592862,44.0095119 L139.735662,43.6145119 L140.878462,43.2185119 L142.021162,42.8235119 L143.163962,42.4285119 L144.306762,42.0335119 L145.440862,41.6405119 L146.578662,41.2585119 L147.725062,40.8725119 L148.871562,40.4865119 L150.018062,40.1015119 L151.164562,39.7155119 L152.311062,39.3305119 L153.457562,38.9455119 L154.595662,38.5625119 L155.737362,38.1895119 L156.886962,37.8125119 L158.036662,37.4355119 L159.186262,37.0585119 L160.335862,36.6815119 L161.485462,36.3035119 L162.634562,35.9255119 L163.776262,35.5485119 L164.921062,35.1805119 L166.073162,34.8095119 L167.225062,34.4385119 L168.376462,34.0665119 L169.527762,33.6935119 L170.679162,33.3205119 L171.830562,32.9475119 L172.974162,32.5765119 L174.120662,32.2135119 L175.274762,31.8485119 L176.428862,31.4825119 L177.582962,31.1175119 L178.736962,30.7515119 L179.890862,30.3855119 L181.044762,30.0195119 L182.191462,29.6555119 L183.341362,29.3005119 L184.498262,28.9425119 L185.655162,28.5845119 L186.812162,28.2275119 L187.969062,27.8695119 L189.126062,27.5125119 L190.282962,27.1545119 L191.433862,26.7995119 L192.587362,26.4515119 L193.747062,26.1015119 L194.906562,25.7515119 L196.067162,25.4045119 L197.228062,25.0595119 L198.388962,24.7135119 L199.549962,24.3685119 L200.704562,24.0245119 L201.862062,23.6895119 L203.025762,23.3535119 L204.189562,23.0165119 L205.353362,22.6795119 L206.517062,22.3425119 L207.681462,22.0085119 L208.845962,21.6735119 L210.004362,21.3405119 L211.165362,21.0155119 L212.332262,20.6885119 L213.497862,20.3575119 L214.663462,20.0265119 L215.829162,19.6945119 L216.994762,19.3635119 L218.159462,19.0285119 L219.310662,18.6815119 L220.576162,18.3155119 L221.850262,17.9455119 L223.124362,17.5765119 L224.388562,17.2165119 L225.658962,16.8795119 L226.941062,16.5385119 L228.223162,16.1985119 L229.497162,15.8605119 L230.776262,15.5425119 L232.063762,15.2225119 L233.351262,14.9015119 L234.633562,14.5825119 L235.918762,14.2745119 L237.209462,13.9655119 L238.500062,13.6575119 L239.787562,13.3495119 L241.076562,13.0485119 L242.369462,12.7485119 L243.662362,12.4485119 L244.954662,12.1495119 L246.247262,11.8505119 L247.540262,11.5515119 L248.833262,11.2525119 L250.129962,10.9525119 L251.424762,10.6465119 L252.716162,10.3425119 L254.007662,10.0385119 L255.299262,9.73451186 L256.590862,9.43051186 L257.882462,9.12651186 L259.174462,8.82451186 L260.479562,8.51951186 L261.778362,8.19251186 L263.064062,7.86751186 L264.349762,7.54351186 L265.635562,7.21851186 L266.921262,6.89451186 L268.206962,6.56951186 L269.492762,6.24551186 L270.802162,5.91451186 L272.100162,5.54251186 L273.374462,5.17651186 L274.648762,4.81051186 L275.923062,4.44451186 L277.197362,4.07851186 L278.471662,3.71351186 L279.745962,3.34751186 L281.020262,2.98151186 C281.827062,2.74951186 282.293162,1.90751186 282.061362,1.10051186 C281.829462,0.294511863 280.987462,-0.172488137 280.180662,0.0595118632 L278.906562,0.426511863 L277.632462,0.792511863 L276.358362,1.15951186 L275.084162,1.52551186 L273.810062,1.89251186 L272.535962,2.25851186 L271.261862,2.62551186 L270.011362,2.98451186 L268.749562,3.30351186 L267.464062,3.62951186 L266.178462,3.95451186 L264.892862,4.27951186 L263.607362,4.60451186 L262.321762,4.92951186 L261.036262,5.25451186 L259.763762,5.57651186 L258.484962,5.87551186 L257.192962,6.17751186 L255.900562,6.47851186 L254.608162,6.77851186 L253.315762,7.07851186 L252.023462,7.37951186 L250.730762,7.67851186 L249.441762,7.97651186 L248.150862,8.26851186 L246.856462,8.56151186 L245.561962,8.85451186 L244.267062,9.14751186 L242.972362,9.44151186 L241.678062,9.73551186 L240.383862,10.0295119 L239.085762,10.3215119 L237.788962,10.6185119 L236.495462,10.9145119 L235.201962,11.2115119 L233.902962,11.5075119 L232.605762,11.8105119 L231.313762,12.1125119 L230.021662,12.4135119 L228.721262,12.7175119 L227.423062,13.0295119 L226.133062,13.3385119 L224.842962,13.6475119 L223.541262,13.9595119 L222.243162,14.2865119 L220.955062,14.6035119 L219.666962,14.9205119 L218.370262,15.2395119 L217.187062,15.5435119 L216.017262,15.8605119 L214.848562,16.1805119 L213.679762,16.5015119 L212.511062,16.8215119 L211.342262,17.1415119 L210.174662,17.4655119 L209.001262,17.7925119 L207.830262,18.1265119 L206.665262,18.4585119 L205.500262,18.7915119 L204.334562,19.1215119 L203.168962,19.4515119 L202.003262,19.7815119 L200.837562,20.1115119 L199.665662,20.4435119 L198.496162,20.7835119 L197.333062,21.1205119 L196.169862,21.4585119 L195.006662,21.7965119 L193.843162,22.1325119 L192.678562,22.4655119 L191.514062,22.7995119 L190.343562,23.1345119 L189.175562,23.4765119 L188.013462,23.8175119 L186.851462,24.1585119 L185.689462,24.4985119 L184.527462,24.8395119 L183.365462,25.1805119 L182.203362,25.5205119 L181.034262,25.8635119 L179.868062,26.2145119 L178.708862,26.5645119 L177.549762,26.9135119 L176.390862,27.2635119 L175.231962,27.6135119 L174.073062,27.9635119 L172.914162,28.3135119 L171.747662,28.6655119 L170.584562,29.0285119 L169.429262,29.3885119 L168.273962,29.7485119 L167.118662,30.1095119 L165.963362,30.4695119 L164.808662,30.8315119 L163.654062,31.1945119 L162.492162,31.5595119 L161.333262,31.9335119 L160.181662,32.3045119 L159.030662,32.6765119 L157.879662,33.0495119 L156.728662,33.4225119 L155.577662,33.7955119 L154.426662,34.1685119 L153.267662,34.5445119 L152.112162,34.9315119 L150.964962,35.3145119 L149.817762,35.6975119 L148.670562,36.0815119 L147.523362,36.4645119 L146.376162,36.8475119 L145.228862,37.2315119 L144.072962,37.6175119 L142.920762,38.0135119 L141.777162,38.4065119 L140.633562,38.7995119 L139.489962,39.1915119 L138.346362,39.5845119 L137.202762,39.9775119 L136.059162,40.3705119 L134.907462,40.7665119 L133.759262,41.1715119 L132.619062,41.5735119 L131.478962,41.9755119 L130.338862,42.3775119 L129.198662,42.7795119 L128.058562,43.1815119 L126.918462,43.5845119 L125.768662,43.9885119 L124.622462,44.4015119 L123.485562,44.8125119 L122.348562,45.2225119 L121.211662,45.6325119 L120.074662,46.0425119 L118.937562,46.4525119 L117.800562,46.8625119 L116.653862,47.2755119 L115.511262,47.7005119 L114.378362,48.1205119 L113.245362,48.5415119 L112.112462,48.9615119 L110.979462,49.3825119 L109.846462,49.8025119 L108.713562,50.2235119 L107.573862,50.6465119 L106.436962,51.0765119 L105.306962,51.5045119 L104.176862,51.9325119 L103.041762,52.3625119 L101.908762,52.7975119 L100.780862,53.2315119 L99.6530624,53.6645119 L98.5199624,54.1005119 L97.3890624,54.5415119 L96.2634624,54.9805119 L95.1377624,55.4195119 L94.0073624,55.8605119 L92.8790624,56.3065119 L91.7560624,56.7525119 L90.6330624,57.1975119 L89.5047624,57.6455119 L88.3787624,58.0995119 L87.2581624,58.5505119 L86.1379624,59.0035119 L85.0122624,59.4585119 L83.8889624,59.9185119 L82.7710624,60.3770119 L81.6531624,60.8353119 L80.5302624,61.2956119 L79.4095624,61.7613119 L78.2938624,62.2249119 L77.1781624,62.6886119 L76.0566624,63.1538119 L74.9371624,63.6242119 L73.8232624,64.0923119 L72.7093624,64.5603119 L71.5897624,65.0307119 L70.4685624,65.4975119 L69.3501624,65.9552119 L68.2316624,66.4129119 L67.1078624,66.8729119 L65.9862624,67.3385119 L64.8704624,67.8028119 L63.7548624,68.2676119 L62.6331624,68.7350119 L61.5138624,69.2086119 L60.4007624,69.6795119 L59.2900624,70.1560119 L58.1736624,70.6367119 L57.0597624,71.1236119 L55.9522624,71.6076119 L54.8447624,72.0918119 L53.7326624,72.5816119 L52.6231624,73.0775119 L51.5194624,73.5707119 L50.4158624,74.0639119 L49.3055624,74.5602119 L48.1986624,75.0643119 L47.0983624,75.5653119 L45.9980624,76.0664119 L44.8910624,76.5705119 L43.7867624,77.0814119 L42.6900624,77.5908119 L41.5933624,78.1002119 L40.4903624,78.6125119 L39.3899624,79.1308119 L38.2957624,79.6461119 L37.2015624,80.1615119 L36.1003624,80.6800119 L35.0019624,81.2053119 L33.9105624,81.7271119 L32.8191624,82.2490119 L31.7207624,82.7744119 L30.6250624,83.3062119 L29.5365624,83.8348119 L28.4479624,84.3634119 L27.3533624,84.8961119 L26.2621624,85.4364119 L25.1774624,85.9735119 L24.0926624,86.5106119 L23.0006624,87.0512119 L21.9116624,87.5987119 L20.8298624,88.1426119 L19.7480624,88.6864119 L18.6589624,89.2339119 L17.5728624,89.7883119 L16.4939624,90.3390119 L15.4151624,90.8896119 L14.3296624,91.4438119 L13.2468624,92.0042119 L12.1707624,92.5611119 L11.0946624,93.1181119 L10.0111624,93.6789119 L8.93066239,94.2468119 L7.85766239,94.8108119 L6.78456239,95.3747119 L5.70406239,95.9426119 L4.62666239,96.5176119 L3.55666239,97.0886119 L2.48676239,97.6596119 L1.41676239,98.2306119 C0.111562391,98.9286119 -0.380737609,100.552512 0.317162391,101.857612 C1.01516239,103.162912 2.63906239,103.655212 3.94426239,102.957212 Z" id="Fill-262"></path>
            <path d="M16.4546624,25.7355119 L15.9088624,25.5835119 L15.2490624,25.4645119 L14.6395624,25.3905119 L14.0739624,25.3355119 L13.5649624,25.2865119 L13.1364624,25.2345119 L12.8227624,25.1815119 L12.6949624,25.1505119 L12.6639624,25.1285119 L12.9211624,25.3025119 L13.1163624,25.5085119 L13.2919624,25.7865119 L13.4097624,26.1115119 L13.4533624,26.4355119 L13.4417624,26.6495119 L13.3813624,26.8865119 L13.2001624,27.2545119 L12.8948624,27.6115119 L12.5167624,27.8695119 L12.1541624,28.0055119 L11.9202624,28.0445119 L11.7973624,28.0455119 L11.7593624,28.0425119 L11.8056624,28.0525119 L11.9062624,28.0785119 L12.0455624,28.1225119 L12.2014624,28.1765119 L12.6534624,28.3515119 L13.1489624,28.5565119 L13.6952624,28.7785119 L14.2863624,29.0015119 L14.9414624,29.2035119 L15.6321624,29.3395119 L16.7756624,29.4725119 L17.8673624,29.5975119 L18.9589624,29.7235119 L20.0590624,29.8505119 L21.1600624,29.9695119 L22.2526624,30.0875119 L23.3451624,30.2055119 L24.4355624,30.3235119 L25.5257624,30.4435119 L26.6181624,30.5635119 L27.7104624,30.6835119 L28.7972624,30.8025119 L29.9847624,30.9385119 L31.1775624,31.0755119 L32.3702624,31.2115119 L33.5629624,31.3485119 L34.7559624,31.4825119 L35.9489624,31.6165119 L37.1419624,31.7505119 L38.3339624,31.8845119 L39.5259624,32.0205119 L40.7188624,32.1555119 L41.9117624,32.2905119 L43.1046624,32.4255119 L44.2975624,32.5605119 L45.4903624,32.6955119 L46.6832624,32.8315119 L47.8791624,32.9665119 L49.0753624,33.0985119 L50.2685624,33.2305119 L51.4619624,33.3615119 L52.6553624,33.4925119 L53.8488624,33.6225119 L55.0422624,33.7525119 L56.2357624,33.8825119 L57.4341624,34.0125119 L58.4621624,34.1185119 L59.4845624,34.2235119 L60.5069624,34.3295119 L61.5293624,34.4345119 L62.5517624,34.5395119 L63.5744624,34.6415119 L64.5971624,34.7445119 L65.6239624,34.8475119 L66.6511624,34.9465119 L67.6742624,35.0455119 L68.6977624,35.1405119 L69.7214624,35.2335119 L70.7451624,35.3265119 L71.7688624,35.4195119 L72.7925624,35.5125119 L73.8168624,35.6045119 L74.8413624,35.6965119 L75.8652624,35.7875119 L76.8891624,35.8785119 L77.9130624,35.9695119 L78.9369624,36.0605119 L79.9601624,36.1585119 L80.9826624,36.2625119 L82.0031624,36.3675119 L83.0234624,36.4735119 L84.0457624,36.5805119 L85.0679624,36.6875119 L86.0900624,36.7955119 L87.1122624,36.9025119 L88.1343624,37.0105119 L89.1564624,37.1185119 L90.1737624,37.2265119 L91.1903624,37.3385119 L92.2118624,37.4515119 L93.2334624,37.5645119 L94.2549624,37.6775119 L95.2764624,37.7905119 L96.2980624,37.9035119 L97.3196624,38.0155119 L98.3333624,38.1265119 L99.3460624,38.2465119 L100.366762,38.3665119 L101.387462,38.4865119 L102.408162,38.6075119 L103.428962,38.7265119 L104.449762,38.8455119 L105.470662,38.9645119 L106.483662,39.0825119 L107.864662,39.2535119 L109.251562,39.4245119 L110.638362,39.5965119 L112.019962,39.7665119 L113.398662,39.9445119 L114.782462,40.1235119 L116.166362,40.3025119 L117.545162,40.4805119 L118.921162,40.6655119 L120.302262,40.8515119 L121.683362,41.0375119 L123.059862,41.2225119 L124.433962,41.4145119 L125.812662,41.6065119 L127.191462,41.7995119 L128.565062,41.9915119 L129.936262,42.1895119 L131.312562,42.3895119 L132.688662,42.5895119 L134.059862,42.7885119 L135.428762,42.9955119 L136.802562,43.2025119 L138.176062,43.4125119 L139.545062,43.6215119 L140.911962,43.8365119 L142.283462,44.0525119 L143.654962,44.2685119 L145.021562,44.4835119 L146.385962,44.7055119 L147.755362,44.9285119 L149.124862,45.1525119 L150.489362,45.3745119 L151.851962,45.6035119 L153.219362,45.8345119 L154.586862,46.0645119 L155.949962,46.2935119 L157.311362,46.5295119 L158.677262,46.7665119 L160.043062,47.0035119 L161.404062,47.2395119 L162.763462,47.4835119 L164.127662,47.7275119 L165.491862,47.9705119 L166.851462,48.2125119 L168.209562,48.4625119 L169.572562,48.7125119 L170.935462,48.9615119 L172.294462,49.2095119 L173.652162,49.4625119 L175.014262,49.7175119 L176.376362,49.9715119 L177.734162,50.2235119 L179.090862,50.4815119 L180.452162,50.7405119 L181.813462,51.0005119 L183.170462,51.2575119 L184.526562,51.5215119 L185.887162,51.7865119 L187.247762,52.0505119 L188.604462,52.3145119 L189.960362,52.5845119 L191.320262,52.8545119 L192.680262,53.1255119 L194.035862,53.3955119 L195.390762,53.6715119 L196.749862,53.9495119 L198.109062,54.2275119 L199.464062,54.5045119 L200.818462,54.7885119 L202.177062,55.0735119 L203.535662,55.3585119 L204.890162,55.6435119 L206.243562,55.9385119 L207.600662,56.2355119 L208.957762,56.5315119 L210.310862,56.8265119 L211.663462,57.1295119 L213.020162,57.4335119 L214.376762,57.7365119 L215.729462,58.0395119 L217.081362,58.3525119 L218.437262,58.6655119 L219.793162,58.9785119 L221.145562,59.2915119 L222.498762,59.6055119 L223.855762,59.9205119 L225.212762,60.2356119 L226.565862,60.5495119 L227.922562,60.8565119 L229.284162,61.1595119 L230.645762,61.4625119 L232.003862,61.7647119 L233.360862,62.0799119 L234.720362,62.3999119 L236.079962,62.7197119 L237.440462,63.0399119 L238.478862,63.2842119 L239.515362,63.5313119 L240.551862,63.7785119 L241.592462,64.0267119 L242.650062,64.2721119 L243.703562,64.5166119 L244.756462,64.7633119 L245.811262,65.0106119 L246.878862,65.2577119 L247.944662,65.5044119 L249.010462,65.7511119 L250.075962,65.9994119 L251.149662,66.2502119 L252.223362,66.5011119 L253.297062,66.7519119 L254.369062,67.0023119 L255.446762,67.2571119 L256.526162,67.5122119 L257.605562,67.7673119 L258.681262,68.0216119 L259.758562,68.2827119 L260.839462,68.5449119 L261.920162,68.8078119 L262.996062,69.0696119 L264.070062,69.3396119 L265.148862,69.6107119 L266.227762,69.8819119 L267.299162,70.1528119 L268.364862,70.4349119 L269.437662,70.7188119 L270.510462,71.0028119 L271.574162,71.2843119 L272.627962,71.5794119 L273.691062,71.8772119 L274.754062,72.1749119 L275.807062,72.4697119 L276.847862,72.7790119 L277.898662,73.0912119 L278.949562,73.4034119 L279.987362,73.7118119 L281.008162,74.0381119 L282.042062,74.3684119 L283.075862,74.6988119 L284.094362,75.0243119 L285.091662,75.3701119 L286.104362,75.7212119 L287.117062,76.0722119 L288.129862,76.4233119 C288.823862,76.6638119 289.581462,76.2960119 289.821862,75.6019119 C290.062362,74.9079119 289.694662,74.1504119 289.000562,73.9099119 L287.987662,73.5592119 L286.974762,73.2086119 L285.961962,72.8580119 L284.933562,72.5022119 L283.884262,72.1672119 L282.850262,71.8373119 L281.816262,71.5073119 L280.769262,71.1733119 L279.705262,70.8576119 L278.654262,70.5459119 L277.603262,70.2342119 L276.542262,69.9195119 L275.469062,69.6195119 L274.405962,69.3222119 L273.342762,69.0250119 L272.270362,68.7252119 L271.188362,68.4393119 L270.115362,68.1559119 L269.042462,67.8724119 L267.962362,67.5871119 L266.876662,67.3131119 L265.798462,67.0394119 L264.720262,66.7657119 L263.637162,66.4907119 L262.552162,66.2240119 L261.472062,65.9585119 L260.392162,65.6921119 L259.308662,65.4248119 L258.226662,65.1642119 L257.148362,64.9045119 L256.070062,64.6449119 L254.990062,64.3847119 L253.915662,64.1290119 L252.843062,63.8736119 L251.770462,63.6183119 L250.697862,63.3630119 L249.633862,63.1087119 L248.570162,62.8531119 L247.506462,62.5974119 L246.444662,62.3423119 L245.395862,62.0869119 L244.345062,61.8310119 L243.294862,61.5730119 L242.248862,61.3158119 L241.219862,61.0561119 L240.186662,60.7954119 L239.153462,60.5348119 L238.122362,60.2712119 L236.771062,59.9215119 L235.418862,59.5715119 L234.066762,59.2215119 L232.711962,58.8675119 L231.358762,58.5135119 L230.009162,58.1615119 L228.659562,57.8085119 L227.304862,57.4605119 L225.946862,57.1325119 L224.592762,56.8055119 L223.238562,56.4795119 L221.880662,56.1525119 L220.521762,55.8365119 L219.166362,55.5205119 L217.810962,55.2055119 L216.451562,54.8895119 L215.092562,54.5775119 L213.737562,54.2675119 L212.382462,53.9565119 L211.023362,53.6445119 L209.664062,53.3395119 L208.308762,53.0355119 L206.953362,52.7315119 L205.594362,52.4265119 L204.235562,52.1245119 L202.880762,51.8225119 L201.525962,51.5195119 L200.167062,51.2165119 L198.807362,50.9205119 L197.451962,50.6245119 L196.096562,50.3295119 L194.736762,50.0325119 L193.376162,49.7435119 L192.019962,49.4555119 L190.663662,49.1665119 L189.303362,48.8775119 L187.942162,48.5945119 L186.584762,48.3135119 L185.227462,48.0325119 L183.865562,47.7505119 L182.502562,47.4755119 L181.143862,47.2035119 L179.785162,46.9305119 L178.421762,46.6575119 L177.057162,46.3905119 L175.696762,46.1275119 L174.336262,45.8645119 L172.971462,45.6015119 L171.605462,45.3435119 L170.243462,45.0885119 L168.881462,44.8345119 L167.514562,44.5785119 L166.146262,44.3305119 L164.782562,44.0835119 L163.418762,43.8375119 L162.050162,43.5905119 L160.679862,43.3505119 L159.314462,43.1115119 L157.948962,42.8715119 L156.579162,42.6315119 L155.207662,42.3985119 L153.840662,42.1655119 L152.473562,41.9325119 L151.101662,41.6995119 L149.727862,41.4725119 L148.358862,41.2465119 L146.989862,41.0215119 L145.615962,40.7945119 L144.239962,40.5755119 L142.868862,40.3575119 L141.497862,40.1385119 L140.122262,39.9195119 L138.744662,39.7065119 L137.371562,39.4945119 L135.998762,39.2805119 L134.621062,39.0655119 L133.240962,38.8575119 L131.865762,38.6505119 L130.490762,38.4435119 L129.110562,38.2345119 L127.727962,38.0335119 L126.350362,37.8335119 L124.972762,37.6335119 L123.590562,37.4325119 L122.205862,37.2375119 L120.825862,37.0435119 L119.445862,36.8505119 L118.060662,36.6555119 L116.672662,36.4685119 L115.289862,36.2815119 L113.907062,36.0945119 L112.518962,35.9075119 L111.128062,35.7275119 L109.742262,35.5485119 L108.356462,35.3685119 L106.964862,35.1885119 L105.936862,35.0625119 L104.916762,34.9375119 L103.896662,34.8125119 L102.876462,34.6875119 L101.856162,34.5645119 L100.835962,34.4405119 L99.8156624,34.3175119 L98.7873624,34.1925119 L97.7581624,34.0765119 L96.7368624,33.9615119 L95.7154624,33.8465119 L94.6941624,33.7325119 L93.6727624,33.6175119 L92.6514624,33.5035119 L91.6300624,33.3885119 L90.6038624,33.2735119 L89.5769624,33.1635119 L88.5550624,33.0545119 L87.5330624,32.9455119 L86.5111624,32.8355119 L85.4891624,32.7265119 L84.4673624,32.6155119 L83.4455624,32.5045119 L82.4217624,32.3935119 L81.3977624,32.2855119 L80.3756624,32.1765119 L79.3543624,32.0605119 L78.3337624,31.9385119 L77.3130624,31.8165119 L76.2923624,31.6935119 L75.2717624,31.5715119 L74.2517624,31.4495119 L73.2316624,31.3275119 L72.2109624,31.2065119 L71.1902624,31.0845119 L70.1695624,30.9635119 L69.1487624,30.8415119 L68.1278624,30.7225119 L67.1065624,30.6065119 L66.0893624,30.4905119 L65.0725624,30.3715119 L64.0517624,30.2525119 L63.0308624,30.1325119 L62.0098624,30.0145119 L60.9886624,29.8985119 L59.9675624,29.7815119 L58.9463624,29.6645119 L57.9308624,29.5485119 L56.7435624,29.4075119 L55.5512624,29.2665119 L54.3590624,29.1265119 L53.1667624,28.9855119 L51.9744624,28.8455119 L50.7820624,28.7055119 L49.5896624,28.5665119 L48.4000624,28.4285119 L47.2109624,28.2875119 L46.0188624,28.1455119 L44.8267624,28.0035119 L43.6345624,27.8615119 L42.4424624,27.7195119 L41.2503624,27.5785119 L40.0582624,27.4365119 L38.8651624,27.2945119 L37.6719624,27.1535119 L36.4797624,27.0125119 L35.2875624,26.8715119 L34.0952624,26.7315119 L32.9027624,26.5925119 L31.7102624,26.4545119 L30.5177624,26.3165119 L29.3200624,26.1775119 L28.2223624,26.0545119 L27.1301624,25.9335119 L26.0379624,25.8115119 L24.9436624,25.6895119 L23.8491624,25.5705119 L22.7567624,25.4505119 L21.6643624,25.3315119 L20.5803624,25.2125119 L19.4972624,25.0855119 L18.4058624,24.9585119 L17.3143624,24.8305119 L16.2747624,24.7095119 L16.1090624,24.6775119 L15.8189624,24.5835119 L15.4083624,24.4275119 L14.9265624,24.2295119 L14.3932624,24.0095119 L13.8475624,23.7975119 L13.5232624,23.6825119 L13.2006624,23.5815119 L12.8614624,23.4935119 L12.4914624,23.4195119 L12.0664624,23.3725119 L11.5896624,23.3755119 L11.0353624,23.4605119 L10.3924624,23.6975119 L9.77846239,24.1175119 L9.28036239,24.6955119 L8.95776239,25.3535119 L8.81116239,25.9575119 L8.77276239,26.5605119 L8.86266239,27.2305119 L9.09446239,27.8615119 L9.44136239,28.4105119 L9.86626239,28.8525119 L10.4063624,29.2315119 L11.0693624,29.5435119 L11.7925624,29.7515119 L12.4445624,29.8685119 L13.0522624,29.9445119 L13.6200624,30.0005119 L14.1294624,30.0505119 L14.5596624,30.1025119 L14.8637624,30.1545119 L15.1636624,30.2445119 C16.4087624,30.6015119 17.7071624,29.8805119 18.0635624,28.6355119 C18.4200624,27.3905119 17.6997624,26.0925119 16.4546624,25.7355119 Z" id="Fill-263"></path>
        </g>
    </g>
</svg>
