<?xml version="1.0" encoding="UTF-8"?>
<svg width="511px" height="177px" viewBox="0 0 511 177" version="1.1" xmlns="http://www.w3.org/2000/svg" xmlns:xlink="http://www.w3.org/1999/xlink">
    <title>193</title>
    <g id="Page-1" stroke="none" stroke-width="1" fill="none" fill-rule="evenodd">
        <g id="193" transform="translate(0.277311, 0.736000)" fill="currentColor">
            <path d="M86.7808,110.057 L85.4158,110.704 L84.0508,111.351 L82.6858,111.999 L81.3208,112.646 L79.9558,113.293 L78.5908,113.941 L77.2258,114.588 L75.8608,115.235 L74.4958,115.882 L73.1308,116.53 L71.7658,117.177 L70.4008,117.824 L69.0358,118.472 L67.6708,119.119 L66.3058,119.766 L64.9408,120.413 L63.5759,121.061 L62.2109,121.708 L60.8459,122.355 L59.4808,123.002 L58.1158,123.65 L56.7508,124.297 L55.3859,124.944 L54.0217,125.591 L53.7406,125.724 L53.5175,125.828 L53.3516,125.904 L53.2457,125.951 L53.2363,125.955 L53.2882,125.934 L54.5554,125.801 L54.5553,125.801 L54.5553,125.801 L54.5551,125.801 L54.5549,125.801 L54.5547,125.801 L54.5544,125.801 L54.554,125.801 L54.5536,125.801 L54.5532,125.801 L54.5527,125.801 L54.5522,125.801 L54.5516,125.801 L54.551,125.801 L54.5503,125.8 L54.5496,125.8 L54.747,125.832 L55.2736,125.993 L55.9843,126.422 L56.6822,127.288 L56.9885,128.374 L56.9177,129.23 L56.7273,129.769 L56.5429,130.099 L56.3914,130.309 L56.2712,130.451 L56.1757,130.551 L56.0991,130.624 L56.0366,130.68 L55.9852,130.724 L55.9423,130.759 L55.9061,130.787 L55.891,130.798 L55.8928,130.797 L55.8943,130.796 L55.8959,130.794 L55.8973,130.793 L55.8985,130.792 L55.8997,130.792 L55.9007,130.791 L55.9017,130.79 L55.9025,130.789 L55.9032,130.789 L55.9037,130.788 L55.9042,130.788 L55.9046,130.788 L55.9048,130.788 L55.9049,130.788 L55.6677,130.948 L55.6976,130.929 L55.7543,130.897 L55.8685,130.835 L56.0287,130.749 L56.2244,130.646 L56.4548,130.526 L56.7176,130.391 L57.0079,130.242 L57.3258,130.08 L57.6699,129.905 L58.0359,129.721 L58.4243,129.526 L58.8334,129.321 L59.2596,129.109 L59.7029,128.889 L60.1598,128.664 L61.1157,128.195 L62.1113,127.711 L63.1346,127.218 L64.1708,126.724 L65.2077,126.235 L66.2314,125.759 L67.2303,125.301 L68.1875,124.871 L69.0889,124.477 L69.9244,124.121 L70.6692,123.817 L71.3197,123.568 L72.4556,123.149 L73.6036,122.725 L74.7516,122.301 L75.8996,121.877 L77.0476,121.453 L78.1956,121.029 L79.3436,120.605 L80.4916,120.181 L81.6396,119.757 L82.7876,119.333 L83.9356,118.909 L85.0836,118.485 L86.2316,118.061 L87.3796,117.637 L88.5276,117.213 L89.6742,116.79 L90.8215,116.368 L91.9701,115.945 L93.1186,115.522 L94.2672,115.099 L95.4158,114.676 L96.5643,114.253 L97.7129,113.831 L98.8614,113.408 L100.01,112.985 L101.1586,112.562 L102.3072,112.139 L103.4557,111.716 L104.6043,111.294 L105.7529,110.871 L106.9014,110.448 L108.0441,110.027 L109.1886,109.612 L110.339,109.194 L111.4894,108.777 L112.6399,108.359 L113.7903,107.941 L114.9408,107.524 L116.0912,107.106 L117.2417,106.689 L118.3921,106.271 L119.5425,105.853 L120.693,105.436 L121.8434,105.018 L122.9939,104.6 L124.1443,104.183 L125.2947,103.765 L126.4388,103.35 L127.5849,102.94 L128.7372,102.528 L129.8896,102.116 L131.042,101.704 L132.1944,101.292 L133.3467,100.88 L134.4991,100.468 L135.6455,100.058 L136.7937,99.654 L137.9479,99.247 L139.102,98.84 L140.2562,98.433 L141.4104,98.027 L142.5646,97.62 L143.7187,97.213 L144.8658,96.809 L146.0149,96.411 L147.1713,96.011 L148.3275,95.61 L149.4838,95.21 L150.6401,94.809 L151.7964,94.409 L152.9527,94.009 L154.1016,93.611 L155.2527,93.219 L156.4111,92.826 L157.5696,92.432 L158.7281,92.038 L159.8866,91.644 L161.0451,91.25 L162.2036,90.856 L163.3529,90.466 L164.5049,90.083 L165.6661,89.697 L166.8273,89.311 L167.9885,88.926 L169.1496,88.54 L170.3108,88.154 L171.472,87.768 L172.6228,87.386 L173.7767,87.013 L174.9408,86.636 L176.105,86.259 L177.2693,85.883 L178.4335,85.506 L179.5977,85.129 L180.7619,84.753 L181.9162,84.379 L183.1929,83.976 L184.4786,83.571 L185.7642,83.165 L187.0499,82.759 L188.3356,82.353 L189.6213,81.947 L190.9069,81.541 L192.1831,81.139 L193.4631,80.745 L194.7527,80.348 L196.0422,79.951 L197.3317,79.554 L198.6211,79.157 L199.9106,78.76 L201.2002,78.363 L202.4806,77.969 L203.7646,77.583 L205.0577,77.195 L206.3508,76.806 L207.6438,76.418 L208.937,76.03 L210.2301,75.641 L211.5232,75.253 L212.8083,74.867 L214.0965,74.488 L215.3927,74.108 L216.6889,73.727 L217.9851,73.346 L219.2813,72.965 L220.5775,72.584 L221.8736,72.203 L223.1614,71.825 L224.4523,71.454 L225.7517,71.082 L227.0511,70.709 L228.3505,70.336 L229.6498,69.963 L230.9493,69.59 L232.2486,69.217 L233.5399,68.847 L234.8342,68.484 L236.1365,68.119 L237.4388,67.754 L238.7411,67.388 L240.0433,67.022 L241.3455,66.657 L242.6478,66.291 L243.9429,65.928 L245.2406,65.571 L246.5453,65.212 L247.8501,64.853 L249.1548,64.494 L250.4596,64.136 L251.7643,63.777 L253.0691,63.418 L254.3664,63.061 L255.6662,62.711 L256.9735,62.36 L258.2808,62.008 L259.5881,61.656 L260.8954,61.305 L262.2027,60.953 L263.51,60.601 L264.8102,60.251 L266.1128,59.908 L267.4224,59.563 L268.732,59.218 L270.0416,58.874 L271.3512,58.529 L272.6608,58.184 L273.9704,57.839 L275.274,57.495 L276.5793,57.158 L277.8909,56.819 L279.2024,56.48 L280.514,56.141 L281.8256,55.802 L283.1371,55.463 L284.4486,55.124 L285.7537,54.787 L287.0608,54.456 L288.3742,54.123 L289.6877,53.79 L291.0011,53.457 L292.3146,53.125 L293.628,52.792 L294.9415,52.459 L296.2489,52.128 L297.558,51.803 L298.8731,51.476 L300.1882,51.149 L301.5033,50.822 L302.8185,50.495 L304.1336,50.168 L305.4488,49.842 L306.7587,49.516 L308.0699,49.196 L309.3864,48.874 L310.7029,48.552 L312.0194,48.23 L313.3359,47.909 L314.6523,47.587 L315.9688,47.265 L317.2798,46.945 L318.5922,46.63 L319.91,46.314 L321.2277,45.997 L322.5455,45.681 L323.8632,45.364 L325.181,45.048 L326.4986,44.732 L327.8114,44.417 L329.1251,44.106 L330.4439,43.795 L331.7627,43.484 L333.0815,43.173 L334.4003,42.861 L335.719,42.55 L337.0378,42.239 L338.3523,41.928 L339.6675,41.622 L340.9871,41.315 L342.3066,41.008 L343.6262,40.701 L344.9457,40.394 L346.2652,40.087 L347.5848,39.78 L348.9,39.474 L350.2157,39.173 L351.5359,38.87 L352.8561,38.568 L354.1763,38.265 L355.4964,37.963 L356.8166,37.66 L358.1368,37.358 L359.4529,37.056 L360.7694,36.759 L362.09,36.46 L363.4105,36.162 L364.7311,35.863 L366.0517,35.565 L367.3722,35.267 L368.6929,34.968 L370.01,34.671 L371.3273,34.377 L372.648,34.081 L373.9687,33.786 L375.2894,33.491 L376.6101,33.196 L377.9308,32.901 L379.2515,32.606 L380.5687,32.311 L381.8859,32.02 L383.2066,31.729 L384.5273,31.437 L385.848,31.146 L387.1686,30.854 L388.4892,30.563 L389.8099,30.271 L391.1276,29.98 L392.4449,29.693 L393.7653,29.404 L395.0857,29.116 L396.4062,28.828 L397.7266,28.539 L399.047,28.251 L400.3675,27.963 L401.6854,27.675 L403.0029,27.39 L404.3229,27.104 L405.6429,26.819 L406.963,26.533 L408.283,26.248 L409.603,25.962 L410.923,25.677 L412.2407,25.391 L413.5575,25.109 L414.8769,24.826 L416.1963,24.543 L417.5156,24.26 L418.835,23.977 L420.1542,23.694 L421.4736,23.411 L422.7908,23.128 L424.1072,22.848 L425.4256,22.567 L426.744,22.287 L428.0624,22.006 L429.3809,21.725 L430.6993,21.444 L432.0178,21.164 L433.3308,20.884 L434.3698,20.668 L435.4156,20.45 L436.4614,20.233 L437.5073,20.015 L438.5531,19.798 L439.5989,19.58 L440.6447,19.362 L441.6802,19.147 L442.7175,18.94 L443.7649,18.73 L444.8125,18.521 L445.86,18.312 L446.9075,18.102 L447.955,17.893 L449.0026,17.684 L450.0418,17.476 L451.0824,17.275 L452.1313,17.072 L453.1802,16.869 L454.229,16.667 L455.2778,16.464 L456.3267,16.261 L457.3755,16.058 L458.4186,15.857 L459.4625,15.66 L460.5123,15.462 L461.562,15.264 L462.6117,15.065 L463.6614,14.867 L464.7111,14.668 L465.7608,14.47 L466.8059,14.272 L467.8517,14.078 L468.9021,13.883 L469.9524,13.688 L471.0029,13.494 L472.0533,13.299 L473.1036,13.104 L474.154,12.909 L475.2019,12.715 L476.2501,12.523 L477.3008,12.33 L478.3516,12.137 L479.4023,11.945 L480.453,11.752 L481.5037,11.559 L482.5544,11.366 L483.6141,11.172 L484.1644,11.065 L484.7493,10.939 L485.3537,10.797 L485.9771,10.642 L486.6223,10.473 L487.2854,10.293 L487.9643,10.102 L488.6604,9.902 L489.37,9.693 L490.0911,9.477 L490.8232,9.255 L491.5659,9.027 L493.0607,8.564 L494.5698,8.093 L496.072,7.627 L497.5518,7.173 L498.9897,6.744 L500.3673,6.348 L501.6708,5.992 L502.8702,5.691 L503.9682,5.45 L504.4311,5.361 L504.869,5.288 L505.2603,5.234 L505.5983,5.199 L505.8636,5.184 L506.0549,5.184 L506.1528,5.19 L506.1131,5.18 L505.9376,5.117 L505.6143,4.924 L505.1933,4.489 L504.9058,3.905 L504.8243,3.357 L504.8658,2.983 L504.9067,2.85 L504.8948,2.875 L504.8091,3.012 L504.6327,3.252 L504.3981,3.538 L504.1589,3.797 L503.9049,4.042 L503.6412,4.272 L503.3707,4.481 L503.0825,4.681 L502.7819,4.868 L502.4721,5.04 L502.1424,5.202 L501.7985,5.354 L501.4437,5.492 L501.11,5.608 L500.274,5.849 L499.4293,6.032 L498.5232,6.175 L497.5705,6.285 L496.5776,6.36 L495.5425,6.408 L494.4758,6.434 L493.3826,6.443 L492.2649,6.441 L491.1291,6.436 L489.9783,6.432 L488.8062,6.439 L487.6585,6.471 L486.4705,6.505 L485.3141,6.601 L484.1183,6.703 L482.9704,6.901 L481.8527,7.097 L480.0712,7.506 L478.3389,7.905 L476.6065,8.304 L474.8686,8.704 L473.1326,9.111 L471.402,9.518 L469.6714,9.924 L467.9355,10.332 L466.2014,10.747 L464.4726,11.161 L462.7438,11.575 L461.0104,11.99 L459.2786,12.412 L457.5513,12.833 L455.8241,13.253 L454.092,13.675 L452.3616,14.104 L450.636,14.532 L448.9104,14.959 L447.1802,15.388 L445.4517,15.823 L443.7277,16.258 L442.0037,16.692 L440.2757,17.127 L438.5492,17.568 L436.8267,18.008 L435.1042,18.448 L433.3776,18.889 L431.6524,19.337 L429.9314,19.783 L428.2105,20.229 L426.4856,20.676 L424.7623,21.129 L423.0428,21.581 L421.3234,22.033 L419.6001,22.484 L417.8777,22.938 L416.1587,23.392 L414.4397,23.845 L412.7172,24.3 L410.9961,24.76 L409.2787,25.218 L407.5611,25.677 L405.8403,26.137 L404.1208,26.602 L402.4047,27.066 L400.6886,27.529 L398.969,27.994 L397.6495,28.356 L396.3345,28.716 L395.0196,29.077 L393.7047,29.437 L392.3898,29.798 L391.0748,30.158 L389.7599,30.518 L388.4394,30.88 L387.12,31.249 L385.8062,31.616 L384.4924,31.983 L383.1786,32.35 L381.8649,32.717 L380.5511,33.084 L379.2372,33.451 L377.9181,33.819 L376.6,34.194 L375.2873,34.568 L373.9747,34.941 L372.662,35.314 L371.3493,35.687 L370.0366,36.06 L368.7239,36.433 L367.4064,36.808 L366.09,37.188 L364.7784,37.567 L363.4668,37.946 L362.1552,38.324 L360.8436,38.703 L359.532,39.082 L358.2203,39.461 L356.9037,39.841 L355.5881,40.227 L354.2778,40.612 L352.9673,40.997 L351.6569,41.382 L350.3465,41.766 L349.0361,42.151 L347.7257,42.536 L346.4104,42.922 L345.0963,43.314 L343.7871,43.705 L342.4779,44.095 L341.1688,44.486 L339.8595,44.876 L338.5504,45.267 L337.2412,45.657 L335.9277,46.049 L334.6153,46.446 L333.3073,46.842 L331.9993,47.237 L330.6912,47.633 L329.3832,48.029 L328.0751,48.424 L326.7671,48.82 L325.4545,49.217 L324.1431,49.619 L322.8364,50.02 L321.5295,50.421 L320.2228,50.822 L318.916,51.223 L317.6092,51.624 L316.3025,52.025 L314.9913,52.427 L313.6814,52.835 L312.376,53.241 L311.0705,53.647 L309.765,54.053 L308.4595,54.46 L307.154,54.866 L305.8486,55.272 L304.5392,55.679 L303.2311,56.091 L301.9268,56.502 L300.6225,56.913 L299.3183,57.323 L298.014,57.734 L296.7097,58.145 L295.4054,58.555 L294.097,58.967 L292.79,59.384 L291.4871,59.8 L290.1841,60.215 L288.8812,60.63 L287.5783,61.046 L286.2754,61.462 L284.9725,61.877 L283.6657,62.294 L282.3603,62.715 L281.0588,63.136 L279.7573,63.556 L278.4557,63.976 L277.1542,64.396 L275.8527,64.816 L274.5512,65.237 L273.2463,65.658 L271.9426,66.083 L270.6423,66.507 L269.342,66.931 L268.0418,67.356 L266.7416,67.78 L265.4413,68.204 L264.141,68.628 L262.8371,69.053 L261.5347,69.483 L260.2358,69.911 L258.937,70.34 L257.6382,70.768 L256.3393,71.196 L255.0405,71.624 L253.7416,72.053 L252.4393,72.482 L251.1385,72.916 L249.8411,73.348 L248.5436,73.78 L247.2462,74.212 L245.9488,74.645 L244.6514,75.077 L243.354,75.509 L242.0536,75.943 L240.7546,76.38 L239.4587,76.816 L238.1626,77.252 L236.8666,77.688 L235.5706,78.124 L234.2746,78.559 L232.9786,78.995 L231.6794,79.432 L230.3818,79.873 L229.0872,80.312 L227.7927,80.752 L226.4982,81.191 L225.2036,81.631 L223.909,82.07 L222.6146,82.51 L221.317,82.95 L220.021,83.394 L218.728,83.837 L217.4349,84.28 L216.1419,84.723 L214.8489,85.165 L213.5558,85.608 L212.2628,86.051 L210.9672,86.495 L209.673,86.941 L208.3813,87.387 L207.0897,87.833 L205.798,88.279 L204.5063,88.724 L203.2147,89.17 L201.9231,89.616 L200.6287,90.062 L199.336,90.512 L198.0458,90.96 L196.7557,91.409 L195.4656,91.858 L194.1755,92.306 L192.8854,92.755 L191.5953,93.204 L190.3027,93.653 L189.0116,94.105 L187.7231,94.557 L186.4346,95.008 L185.146,95.46 L183.8575,95.911 L182.5689,96.362 L181.2804,96.814 L179.9897,97.266 L178.7004,97.72 L177.4134,98.174 L176.1263,98.628 L174.8392,99.081 L173.5521,99.535 L172.2649,99.989 L170.9778,100.442 L169.6885,100.897 L168.4009,101.354 L167.1153,101.81 L165.8299,102.266 L164.5444,102.722 L163.2589,103.178 L161.9734,103.634 L160.6879,104.09 L159.4004,104.547 L158.1145,105.006 L156.8306,105.464 L155.5468,105.922 L154.2629,106.38 L152.9791,106.838 L151.6952,107.296 L150.4114,107.755 L149.123,108.214 L147.3214,108.865 L145.5231,109.514 L143.7247,110.163 L141.9264,110.812 L140.1281,111.461 L138.3298,112.11 L136.5315,112.759 L134.7261,113.41 L132.9249,114.074 L131.1307,114.734 L129.3365,115.395 L127.5423,116.056 L125.748,116.716 L123.9538,117.377 L122.1597,118.038 L120.3578,118.701 L118.5607,119.377 L116.7711,120.05 L114.9816,120.724 L113.1921,121.397 L111.4025,122.07 L109.613,122.744 L107.8234,123.417 L106.0284,124.092 L104.2369,124.777 L102.4507,125.459 L100.6647,126.141 L98.8744,126.825 L97.0869,127.516 L95.3035,128.206 L93.5201,128.895 L91.7325,129.586 L89.9476,130.285 L88.1671,130.981 L86.3866,131.678 L84.602,132.376 L82.8202,133.081 L81.0423,133.784 L79.2646,134.488 L77.4822,135.193 L75.7029,135.906 L73.9282,136.617 L72.1535,137.328 L70.3741,138.041 L68.5979,138.762 L66.8264,139.48 L65.055,140.199 L63.2796,140.92 L62.1341,141.391 L60.9946,141.86 L59.8552,142.329 L58.7095,142.8 L57.5665,143.278 L56.4297,143.754 L55.293,144.229 L54.1499,144.708 L53.0095,145.193 L51.8756,145.675 L50.7417,146.158 L49.6019,146.643 L48.4647,147.134 L47.3335,147.623 L46.2022,148.112 L45.0644,148.604 L43.9296,149.103 L42.8014,149.599 L41.6732,150.095 L40.5383,150.594 L39.4066,151.1 L38.2816,151.603 L37.1566,152.107 L36.0255,152.613 L34.8974,153.125 L33.7754,153.635 L32.6533,154.145 L31.5245,154.658 L30.3991,155.179 L29.2806,155.696 L28.162,156.213 L27.0365,156.734 L25.9146,157.262 L24.7996,157.787 L23.6846,158.312 L22.5632,158.839 L21.4451,159.374 L20.3335,159.906 L19.2219,160.438 L18.1031,160.973 L16.9882,161.515 L15.8804,162.055 L14.7725,162.594 L13.6575,163.137 L12.5465,163.688 L11.4426,164.235 L10.3387,164.782 L9.2309,165.332 L8.8327,165.533 L8.3943,165.759 L7.9209,166.009 L7.4202,166.278 L6.8946,166.566 L6.3427,166.877 L5.2426,167.517 L4.1339,168.203 L3.105,168.894 L2.5875,169.267 L2.1139,169.634 L1.6726,170.007 L1.2562,170.398 L0.8604,170.833 L0.497,171.339 L0.171,172.007 L0,172.999 L0.1806,173.933 L0.6074,174.674 L1.016,175.079 L1.4203,175.352 L1.8083,175.541 L2.1881,175.672 L2.5859,175.766 L3.3579,175.895 L4.1739,175.971 L4.9738,175.989 L5.7629,175.96 L6.5455,175.882 L7.3091,175.764 L8.0595,175.611 L8.801,175.424 L9.5255,175.211 L10.238,174.976 L10.9418,174.719 L11.6498,174.44 L12.9795,173.874 L14.2948,173.273 L15.5731,172.674 L16.8165,172.101 L18.0198,171.577 L19.2212,171.113 L20.2827,170.727 L21.3674,170.332 L22.452,169.937 L23.5367,169.543 L24.6214,169.148 L25.706,168.754 L26.7907,168.359 L27.8831,167.962 L28.9726,167.556 L30.0543,167.154 L31.136,166.751 L32.2177,166.349 L33.2995,165.946 L34.3812,165.544 L35.4629,165.141 L36.5507,164.736 L37.6362,164.325 L38.7156,163.916 L39.795,163.507 L40.8744,163.099 L41.9538,162.69 L43.0332,162.281 L44.1126,161.872 L45.1962,161.462 L46.2782,161.047 L47.356,160.634 L48.4338,160.22 L49.5116,159.807 L50.5893,159.394 L51.6671,158.981 L52.7449,158.568 L53.8258,158.153 L54.9055,157.735 L55.982,157.319 L57.0585,156.902 L58.1351,156.486 L59.2115,156.069 L60.2881,155.653 L61.3646,155.236 L62.4426,154.819 L63.52,154.401 L64.5959,153.983 L65.6717,153.564 L66.7475,153.146 L67.8234,152.728 L68.8993,152.31 L69.9751,151.892 L71.0505,151.474 L72.8132,150.79 L74.5762,150.105 L76.3392,149.421 L78.1023,148.737 L79.8653,148.052 L81.6283,147.368 L83.3913,146.684 L85.1544,145.999 L86.9175,145.315 L88.6805,144.63 L90.4435,143.946 L92.2065,143.262 L93.9696,142.577 L95.7326,141.893 L97.4957,141.209 L99.253,140.526 L101.0152,139.853 L102.7829,139.178 L104.5506,138.503 L106.3183,137.828 L108.0861,137.152 L109.8538,136.477 L111.6216,135.802 L113.3893,135.127 L115.157,134.451 L116.9247,133.776 L118.6925,133.101 L120.4602,132.426 L122.228,131.75 L123.9957,131.075 L125.7634,130.4 L127.5186,129.729 L129.2816,129.08 L131.0572,128.427 L132.8328,127.773 L134.6084,127.119 L136.384,126.465 L138.1595,125.811 L139.9351,125.157 L141.7107,124.504 L143.4863,123.85 L145.2619,123.196 L147.0375,122.542 L148.8131,121.889 L150.5887,121.235 L152.3642,120.581 L154.1399,119.927 L155.9057,119.277 L157.6771,118.644 L159.4584,118.007 L161.2396,117.37 L163.0158,116.735 L164.7949,116.108 L166.5789,115.48 L168.363,114.852 L170.1416,114.225 L171.9232,113.609 L173.7103,112.99 L175.4974,112.371 L177.2792,111.754 L179.0638,111.147 L180.8538,110.537 L182.6438,109.928 L184.4276,109.32 L186.2147,108.724 L188.0081,108.125 L189.8015,107.527 L191.5881,106.93 L193.3783,106.345 L195.1753,105.758 L196.9723,105.171 L198.7628,104.587 L200.5567,104.013 L202.357,103.437 L204.1575,102.861 L205.9502,102.288 L207.747,101.727 L209.5513,101.164 L211.3556,100.601 L213.1519,100.041 L214.9523,99.494 L216.7607,98.945 L218.5691,98.396 L220.3699,97.849 L222.1746,97.315 L223.9869,96.779 L225.7992,96.243 L227.6027,95.71 L229.4106,95.191 L231.2273,94.67 L233.0441,94.149 L234.8516,93.631 L236.6637,93.128 L238.485,92.623 L240.3064,92.117 L242.1224,91.613 L243.2013,91.322 L244.2895,91.028 L245.3776,90.734 L246.4595,90.442 L247.5431,90.156 L248.6328,89.868 L249.7225,89.58 L250.8064,89.294 L251.8918,89.014 L252.983,88.732 L254.0742,88.45 L255.1605,88.169 L256.248,87.894 L257.3405,87.617 L258.433,87.34 L259.5204,87.065 L260.6091,86.794 L261.7029,86.523 L262.7966,86.251 L263.8857,85.98 L264.9761,85.715 L266.071,85.448 L267.166,85.181 L268.2552,84.915 L269.346,84.656 L270.4424,84.395 L271.5389,84.134 L272.6354,83.873 L273.7319,83.612 L274.8283,83.351 L275.9248,83.09 L277.014,82.831 L278.105,82.579 L279.2034,82.325 L280.3017,82.071 L281.4,81.817 L282.4982,81.564 L283.5965,81.31 L284.6948,81.056 L285.7874,80.804 L286.8815,80.557 L287.9812,80.309 L289.081,80.061 L290.1807,79.813 L291.2805,79.565 L292.3802,79.317 L293.48,79.069 L294.5758,78.822 L295.6727,78.579 L296.7734,78.335 L297.8741,78.091 L298.9749,77.847 L300.0757,77.603 L301.1764,77.36 L302.2772,77.116 L303.375,76.872 L304.4735,76.632 L305.575,76.391 L306.6765,76.15 L307.778,75.91 L308.8795,75.669 L309.981,75.428 L311.0825,75.187 L312.1826,74.946 L313.283,74.707 L314.3849,74.468 L315.4867,74.228 L316.5885,73.989 L317.6903,73.749 L318.7922,73.51 L319.894,73.27 L320.9958,73.031 L322.0975,72.792 L323.1993,72.552 L324.3011,72.313 L325.4028,72.073 L326.5045,71.833 L327.6063,71.594 L328.7079,71.354 L329.811,71.114 L330.9137,70.872 L332.015,70.631 L333.1163,70.39 L334.2176,70.149 L335.319,69.908 L336.4203,69.667 L337.5216,69.426 L338.6258,69.184 L339.7292,68.94 L340.8297,68.696 L341.9302,68.452 L343.0307,68.207 L344.1312,67.963 L345.2317,67.719 L346.3322,67.475 L347.4333,67.231 L348.5516,66.983 L349.6694,66.734 L350.7872,66.486 L351.9026,66.238 L353.0326,65.989 L354.1652,65.74 L355.2977,65.491 L356.428,65.243 L357.5717,64.993 L358.7176,64.744 L359.8635,64.495 L361.0076,64.246 L362.1628,63.996 L363.3198,63.746 L364.4768,63.497 L365.632,63.247 L366.7983,62.998 L367.9664,62.748 L369.1345,62.498 L370.3009,62.248 L371.477,61.998 L372.6548,61.747 L373.8326,61.497 L375.0091,61.247 L376.1933,60.997 L377.379,60.747 L378.5646,60.496 L379.7488,60.246 L380.9405,59.996 L382.1335,59.746 L383.3266,59.496 L384.5184,59.245 L385.7164,58.996 L386.9155,58.745 L388.1146,58.495 L389.3128,58.245 L390.5155,57.996 L391.7191,57.746 L392.9227,57.496 L394.1254,57.246 L395.3319,56.997 L396.5393,56.747 L397.7467,56.498 L398.9533,56.248 L400.1623,55.999 L401.3722,55.75 L402.5821,55.501 L403.7906,55.252 L404.9996,55.005 L406.21,54.757 L407.4202,54.509 L408.6305,54.262 L409.8408,54.014 L411.0511,53.767 L412.2614,53.519 L413.4717,53.271 L414.6819,53.024 L415.8922,52.776 L417.1025,52.528 L418.3127,52.28 L419.523,52.033 L420.7333,51.785 L421.9435,51.537 L423.153,51.29 L424.3491,51.046 L425.5459,50.802 L426.7427,50.558 L427.9396,50.314 L429.1364,50.07 L430.3332,49.826 L431.5301,49.582 L432.7269,49.338 L433.9238,49.094 L435.1206,48.85 L436.3174,48.605 L437.5143,48.361 L438.7111,48.118 L439.9079,47.874 L441.1048,47.629 L442.303,47.385 L443.4665,47.146 L444.6287,46.908 L445.7909,46.669 L446.9531,46.431 L448.1152,46.192 L449.2774,45.954 L450.4396,45.715 L451.6017,45.476 L452.7639,45.238 L453.9261,44.999 L455.0883,44.761 L456.2505,44.522 L457.4126,44.284 L458.5748,44.045 L459.737,43.806 L460.9001,43.568 L461.3312,43.478 L461.8204,43.377 L462.3598,43.264 L462.9378,43.143 L463.5502,43.014 L464.1879,42.88 L465.5016,42.602 L466.8188,42.323 L468.064,42.057 L468.6448,41.932 L469.183,41.816 L469.6702,41.711 L470.1039,41.616 L470.4717,41.536 L470.766,41.47 L470.9935,41.417 L471.1307,41.383 L471.7418,41.12 L471.7418,41.12 L471.7419,41.12 L471.7421,41.12 L471.7422,41.119 L471.7424,41.119 L471.7427,41.119 L471.743,41.119 L471.7433,41.119 L471.7437,41.118 L471.7442,41.118 L471.7446,41.118 L471.7452,41.118 L471.7457,41.117 L471.7463,41.117 L471.747,41.116 L471.8091,41.075 L471.9755,40.946 L472.2278,40.688 L472.567,40.092 L472.6274,38.89 L471.9936,37.855 L471.3985,37.49 L471.047,37.386 L470.8365,37.355 L470.7002,37.347 L470.6058,37.346 L470.5366,37.348 L470.4837,37.352 L470.4419,37.355 L470.4078,37.359 L470.3794,37.362 L470.3659,37.364 L470.364,37.364 L470.3623,37.364 L470.3606,37.365 L470.3592,37.365 L470.3578,37.365 L470.3566,37.365 L470.3554,37.365 L470.3544,37.366 L470.3536,37.366 L470.3528,37.366 L470.3522,37.366 L470.3517,37.366 L470.3513,37.366 L470.3511,37.366 L470.3509,37.366 L470.2798,37.377 L470.2037,37.389 L470.0958,37.409 L469.967,37.433 L469.8094,37.463 L469.6175,37.501 L468.6098,37.7 L467.6031,37.899 L466.5964,38.099 L465.5897,38.298 L464.583,38.498 L463.5763,38.697 L462.5696,38.896 L461.5579,39.097 L460.5469,39.302 L459.5409,39.506 L458.5348,39.711 L457.5288,39.915 L456.5228,40.12 L455.5167,40.324 L454.5107,40.528 L453.4998,40.734 L452.4896,40.944 L451.4842,41.153 L450.4789,41.363 L449.4735,41.572 L448.4682,41.781 L447.4628,41.991 L446.4574,42.2 L445.4478,42.41 L444.4388,42.625 L443.4341,42.839 L442.4294,43.052 L441.4247,43.266 L440.42,43.48 L439.4153,43.693 L438.4105,43.907 L437.4012,44.122 L436.3927,44.341 L435.3887,44.56 L434.3847,44.778 L433.3807,44.997 L432.3768,45.215 L431.3728,45.433 L430.3688,45.652 L429.3603,45.871 L428.3527,46.095 L427.3495,46.318 L426.3462,46.542 L425.3431,46.765 L424.3398,46.988 L423.3366,47.211 L422.3334,47.434 L421.3263,47.658 L420.3198,47.886 L419.3173,48.113 L418.3148,48.34 L417.3124,48.567 L416.3099,48.794 L415.3074,49.022 L414.3049,49.249 L413.2981,49.477 L412.2922,49.709 L411.2906,49.941 L410.2889,50.173 L409.2872,50.404 L408.2856,50.636 L407.2839,50.867 L406.2822,51.099 L405.2765,51.331 L404.2715,51.568 L403.2707,51.804 L402.2699,52.04 L401.2691,52.276 L400.2682,52.512 L399.2674,52.748 L398.2667,52.983 L397.2622,53.22 L396.2585,53.461 L395.2585,53.7 L394.2585,53.94 L393.2585,54.18 L392.2584,54.419 L391.2584,54.659 L390.2582,54.898 L389.2541,55.138 L388.251,55.382 L387.2518,55.626 L386.2525,55.869 L385.2533,56.112 L384.254,56.355 L383.2548,56.599 L382.2555,56.842 L381.2525,57.086 L380.2504,57.334 L379.2521,57.581 L378.2538,57.829 L377.2555,58.076 L376.2571,58.323 L375.2588,58.57 L374.2605,58.818 L373.2588,59.066 L372.258,59.317 L371.2606,59.568 L370.2632,59.819 L369.2657,60.07 L368.2683,60.321 L367.2709,60.571 L366.2734,60.822 L365.2724,61.074 L364.2723,61.329 L363.2759,61.584 L362.2794,61.838 L361.2829,62.093 L360.2865,62.348 L359.29,62.602 L358.2936,62.857 L357.2936,63.112 L356.2947,63.371 L355.2992,63.63 L354.3038,63.888 L353.3084,64.146 L352.313,64.404 L351.3175,64.662 L350.3221,64.921 L349.3235,65.18 L348.3259,65.442 L347.3315,65.704 L346.337,65.965 L345.3425,66.226 L344.348,66.488 L343.3534,66.749 L342.3589,67.011 L341.3611,67.273 L340.3643,67.539 L339.3709,67.804 L338.3774,68.068 L337.384,68.333 L336.3906,68.598 L335.3971,68.863 L334.4037,69.128 L333.407,69.394 L332.4115,69.663 L331.4191,69.931 L330.4268,70.199 L329.4344,70.468 L328.4421,70.736 L327.4498,71.004 L326.4574,71.272 L325.4623,71.541 L324.4681,71.813 L323.4768,72.084 L322.4855,72.356 L321.4941,72.627 L320.5028,72.898 L319.5115,73.169 L318.5202,73.44 L317.5258,73.712 L316.5326,73.988 L315.5424,74.262 L314.5523,74.536 L313.5621,74.811 L312.572,75.085 L311.5818,75.359 L310.5916,75.634 L309.5985,75.909 L308.6066,76.187 L307.6175,76.464 L306.6286,76.742 L305.6396,77.019 L304.6506,77.297 L303.6616,77.574 L302.6726,77.851 L301.681,78.129 L300.6904,78.41 L299.7024,78.69 L298.7145,78.969 L297.7265,79.249 L296.7386,79.529 L295.7506,79.809 L294.7626,80.088 L293.7719,80.369 L292.7824,80.652 L291.7956,80.935 L290.8089,81.218 L289.8222,81.5 L288.8354,81.783 L287.8487,82.066 L286.862,82.348 L285.8726,82.632 L284.8845,82.918 L283.899,83.203 L282.9135,83.488 L281.928,83.774 L280.9426,84.059 L279.9571,84.345 L278.9716,84.63 L277.983,84.916 L276.4933,85.352 L275.0057,85.787 L273.5181,86.223 L272.0304,86.658 L270.5428,87.093 L269.0552,87.528 L267.5675,87.964 L266.0799,88.399 L264.5923,88.834 L263.1046,89.27 L261.617,89.705 L260.1293,90.14 L258.6417,90.575 L257.1543,91.011 L255.6669,91.447 L254.1694,91.887 L252.6767,92.342 L251.1941,92.794 L249.7116,93.247 L248.2291,93.699 L246.7465,94.151 L245.264,94.604 L243.7814,95.056 L242.2988,95.508 L240.8163,95.961 L239.3337,96.413 L237.8512,96.865 L236.3686,97.318 L234.886,97.77 L233.4035,98.222 L231.9209,98.675 L230.4169,99.134 L228.9243,99.628 L227.4532,100.115 L225.9821,100.602 L224.511,101.089 L223.0399,101.577 L221.5688,102.064 L220.0977,102.551 L218.6266,103.038 L217.1555,103.525 L215.6844,104.012 L214.2134,104.5 L212.7433,104.99 L211.2732,105.48 L209.8031,105.971 L208.333,106.461 L206.8465,106.957 L205.5764,107.408 L204.3254,107.854 L203.0743,108.299 L201.8131,108.748 L200.5572,109.211 L199.3116,109.671 L198.0659,110.13 L196.8117,110.593 L195.5621,111.069 L194.321,111.541 L193.0799,112.013 L191.8323,112.487 L190.5882,112.971 L189.3507,113.453 L188.1131,113.934 L186.8698,114.418 L185.6296,114.91 L184.3952,115.4 L183.1608,115.89 L181.9221,116.382 L180.6858,116.88 L179.4538,117.376 L178.2217,117.872 L176.9862,118.37 L175.7526,118.873 L174.5225,119.374 L173.2923,119.876 L172.0622,120.377 L170.8319,120.878 L169.6012,121.378 L168.3705,121.879 L167.1392,122.379 L165.9081,122.88 L164.6778,123.382 L163.4476,123.883 L162.2173,124.384 L160.9871,124.885 L159.7568,125.386 L158.5265,125.887 L157.3012,126.387 L156.0731,126.878 L154.84,127.372 L153.6069,127.865 L152.3738,128.359 L151.1407,128.852 L149.9076,129.345 L148.6745,129.839 L147.4535,130.328 L145.9872,130.891 L144.5088,131.428 L143.0131,131.946 L141.5041,132.449 L139.9835,132.939 L138.4532,133.419 L136.9123,133.893 L135.3669,134.369 L133.8213,134.844 L132.2666,135.323 L130.7208,135.817 L129.1685,136.314 L127.6315,136.838 L126.0846,137.365 L124.5624,137.937 L123.0311,138.513 L121.5335,139.151 L120.0423,139.787 L118.5561,140.483 L117.0957,141.221 L115.6591,142.006 L114.2443,142.84 L112.8534,143.731 L111.5096,144.67 L111.1064,144.976 L110.7604,145.272 L110.454,145.58 L110.1675,145.944 L109.9039,146.461 L109.7842,147.209 L110.0313,148.093 L110.5954,148.715 L111.1175,148.988 L111.5568,149.111 L111.9623,149.167 L112.3505,149.186 L112.7447,149.181 L113.161,149.157 L113.598,149.117 L114.0578,149.063 L114.5458,148.995 L115.0586,148.913 L115.5944,148.821 L116.1553,148.717 L116.738,148.602 L117.3398,148.478 L117.9617,148.344 L118.6048,148.201 L119.9181,147.897 L121.2839,147.566 L122.6784,147.216 L124.0848,146.853 L125.489,146.484 L126.8716,146.113 L128.22,145.747 L129.5147,145.392 L130.7366,145.054 L131.877,144.738 L132.9112,144.452 L133.8268,144.2 L134.8749,143.905 L135.9191,143.612 L136.9631,143.318 L138.0179,143.022 L139.0687,142.712 L140.1087,142.405 L141.1487,142.098 L142.1976,141.788 L143.2431,141.466 L144.2797,141.148 L145.3162,140.829 L146.3594,140.508 L147.4,140.178 L148.4339,139.851 L149.4679,139.523 L150.5076,139.194 L151.545,138.857 L152.5767,138.522 L153.6084,138.186 L154.644,137.85 L155.6781,137.508 L156.7082,137.168 L157.7384,136.827 L158.7712,136.486 L159.8029,136.141 L160.832,135.797 L161.8611,135.453 L162.8902,135.109 L163.9193,134.765 L164.9484,134.421 L165.9775,134.077 L167.0054,133.733 L168.0337,133.391 L169.0633,133.048 L170.0929,132.706 L171.1225,132.364 L172.1522,132.021 L173.1818,131.679 L174.2114,131.336 L175.2329,130.996 L176.2577,130.668 L177.2906,130.336 L178.3235,130.004 L179.3564,129.673 L180.3893,129.341 L181.4222,129.01 L182.4551,128.679 L183.4836,128.349 L184.8692,127.912 L186.258,127.475 L187.647,127.037 L189.0387,126.599 L190.429,126.155 L191.8164,125.713 L193.2038,125.27 L194.5929,124.827 L195.9811,124.381 L197.3678,123.935 L198.7544,123.489 L200.1415,123.043 L201.5284,122.597 L202.9147,122.15 L204.3011,121.703 L205.687,121.257 L207.0731,120.811 L208.4598,120.366 L209.8464,119.92 L211.2314,119.475 L212.6172,119.033 L214.0048,118.59 L215.3924,118.148 L216.7757,117.706 L218.1612,117.273 L219.5511,116.838 L220.9408,116.403 L222.3307,115.968 L223.7205,115.534 L225.1103,115.099 L226.5001,114.664 L227.8801,114.232 L229.2652,113.818 L230.6602,113.401 L232.0552,112.985 L233.4501,112.568 L234.8451,112.151 L236.2401,111.734 L237.6351,111.317 L239.0153,110.905 L240.4032,110.519 L241.8058,110.129 L243.2085,109.739 L244.6111,109.348 L246.0138,108.958 L247.4164,108.568 L248.8191,108.178 L250.21,107.791 L251.9882,107.323 L253.7757,106.852 L255.5632,106.381 L257.3454,105.912 L259.1308,105.454 L260.9214,104.995 L262.712,104.536 L264.4979,104.078 L266.2865,103.631 L268.0799,103.183 L269.8733,102.735 L271.6628,102.289 L273.4546,101.851 L275.2504,101.412 L277.0462,100.974 L278.838,100.536 L280.6321,100.108 L282.4302,99.678 L284.2283,99.249 L286.0229,98.821 L287.8194,98.401 L289.6196,97.98 L291.4198,97.559 L293.217,97.138 L295.0159,96.725 L296.8177,96.311 L298.6195,95.896 L300.4185,95.483 L302.219,95.076 L304.0223,94.668 L305.8257,94.261 L307.6266,93.854 L309.4288,93.452 L311.2334,93.05 L313.0381,92.649 L314.8409,92.247 L316.6446,91.85 L318.4502,91.453 L320.2559,91.056 L322.0599,90.659 L323.8646,90.266 L325.671,89.873 L327.4774,89.48 L329.2826,89.087 L331.0882,88.697 L332.8951,88.307 L334.702,87.917 L336.5069,87.527 L337.5671,87.302 L338.6305,87.076 L339.694,86.85 L340.7575,86.625 L341.821,86.399 L342.8845,86.173 L343.948,85.947 L345.0071,85.722 L346.0674,85.504 L347.1321,85.284 L348.1969,85.064 L349.2616,84.844 L350.3263,84.624 L351.391,84.405 L352.4558,84.185 L353.517,83.966 L354.5792,83.752 L355.6449,83.537 L356.7107,83.322 L357.7764,83.107 L358.8422,82.892 L359.9079,82.677 L360.9736,82.462 L362.0368,82.248 L363.1007,82.037 L364.1672,81.825 L365.2336,81.614 L366.3001,81.403 L367.3665,81.191 L368.433,80.98 L369.4994,80.768 L370.5638,80.557 L371.6288,80.349 L372.6959,80.14 L373.7629,79.932 L374.8299,79.723 L375.897,79.515 L376.964,79.306 L378.0311,79.097 L379.0969,78.889 L380.1631,78.682 L381.2305,78.475 L382.2978,78.268 L383.3652,78.061 L384.4326,77.854 L385.5,77.647 L386.5674,77.44 L387.6345,77.233 L388.7017,77.027 L389.7691,76.82 L390.8365,76.613 L391.904,76.407 L392.9715,76.2 L394.0389,75.994 L395.1064,75.787 L396.1739,75.58 L397.2413,75.374 L398.3088,75.167 L399.3763,74.961 L400.4437,74.754 L401.5112,74.547 L402.5786,74.341 L403.6461,74.134 L404.7157,73.927 L405.7847,73.717 L406.8515,73.508 L407.9184,73.298 L408.9853,73.089 L410.0521,72.879 L411.119,72.67 L412.1859,72.46 L413.2527,72.251 L414.3196,72.041 L415.3865,71.832 L416.4534,71.622 L417.5203,71.413 L418.5871,71.203 L419.654,70.994 L420.7209,70.784 L421.7933,70.574 L422.8641,70.355 L423.9294,70.138 L424.9947,69.921 L426.06,69.704 L427.1254,69.487 L428.1907,69.27 L429.256,69.053 L430.3213,68.836 L431.3866,68.619 L432.452,68.402 L433.5173,68.185 L434.5826,67.968 L435.6479,67.751 L436.7132,67.533 L437.7786,67.316 L438.8444,67.099 L439.1417,67.038 L439.4574,66.975 L439.7967,66.909 L440.1553,66.84 L440.5334,66.768 L440.9281,66.695 L441.7649,66.542 L442.6523,66.383 L443.5782,66.219 L444.5278,66.053 L445.4913,65.886 L446.4552,65.721 L447.4084,65.557 L448.3378,65.399 L449.2299,65.246 L450.0773,65.101 L450.8637,64.966 L451.5757,64.842 L452.2101,64.731 L452.7487,64.634 L453.1761,64.554 L453.36,64.517 L453.5159,64.485 L453.655,64.453 L453.7549,64.427 L453.9587,64.357 L453.9589,64.357 L453.9591,64.357 L453.9595,64.357 L453.9599,64.357 L453.9604,64.356 L453.9611,64.356 L453.9619,64.356 L453.9628,64.355 L453.9639,64.355 L453.965,64.354 L453.9662,64.354 L453.9676,64.353 L453.969,64.353 L453.9706,64.352 L453.9723,64.351 L453.9889,64.344 L454.0235,64.329 L454.0636,64.31 L454.1109,64.286 L454.1671,64.254 L454.235,64.212 L454.318,64.154 L454.4202,64.071 L454.5454,63.948 L454.6926,63.758 L454.8445,63.468 L454.9479,63.053 L454.9244,62.558 L454.7574,62.108 L454.5254,61.791 L454.3048,61.596 L454.2085,61.531 L454.2079,61.531 L454.2073,61.53 L454.2068,61.53 L454.2063,61.53 L454.2059,61.53 L454.2056,61.529 L454.2052,61.529 L454.2049,61.529 L454.2046,61.529 L454.2043,61.529 L454.2042,61.528 L454.204,61.528 L454.2038,61.528 L454.2038,61.528 L454.2037,61.528 L453.3915,61.288 L453.2629,61.288 L453.1036,61.297 L452.94,61.312 L452.748,61.332 L452.5149,61.358 L452.2218,61.393 L450.4983,61.623 L448.7585,61.855 L447.0237,62.13 L445.2908,62.405 L443.5629,62.717 L441.838,63.03 L440.1178,63.374 L438.3977,63.719 L436.6829,64.095 L434.9698,64.47 L433.262,64.874 L431.5568,65.276 L429.8564,65.701 L428.1566,66.125 L426.4623,66.57 L424.7696,67.015 L423.0826,67.476 L421.3975,67.937 L419.7176,68.41 L418.0387,68.882 L416.3655,69.365 L414.6938,69.846 L413.0281,70.334 L411.3656,70.82 C410.5236,71.067 410.0408,71.949 410.2873,72.791 C410.5338,73.633 411.4162,74.116 412.2582,73.87 L413.9207,73.383 L415.5801,72.897 L417.2454,72.417 L418.9089,71.937 L420.5783,71.467 L422.2468,70.998 L423.9205,70.54 L425.5921,70.083 L427.2693,69.642 L428.9449,69.202 L430.6259,68.782 L432.3064,68.362 L433.9919,67.964 L435.6748,67.567 L437.363,67.196 L439.0496,66.827 L440.7413,66.488 L442.4328,66.149 L444.129,65.842 L445.8223,65.535 L447.5204,65.266 L449.2168,64.997 L450.9181,64.77 L452.6357,64.54 L452.8823,64.511 L453.0918,64.487 L453.2486,64.471 L453.3514,64.462 L453.3707,64.46 L453.3363,64.462 L452.524,64.222 L452.524,64.222 L452.5242,64.222 L452.5243,64.222 L452.5244,64.222 L452.5246,64.222 L452.5248,64.222 L452.5251,64.222 L452.5254,64.223 L452.5258,64.223 L452.5262,64.223 L452.5267,64.223 L452.5271,64.224 L452.5276,64.224 L452.5282,64.224 L452.5288,64.225 L452.4337,64.16 L452.2142,63.967 L451.9828,63.65 L451.8161,63.201 L451.7926,62.707 L451.8957,62.293 L452.0471,62.004 L452.1935,61.816 L452.3175,61.693 L452.4182,61.611 L452.4994,61.555 L452.5652,61.514 L452.619,61.484 L452.6635,61.461 L452.7007,61.444 L452.732,61.43 L452.7449,61.424 L452.7432,61.425 L452.7416,61.425 L452.7401,61.426 L452.7387,61.427 L452.7375,61.427 L452.7363,61.428 L452.7353,61.428 L452.7344,61.428 L452.7336,61.429 L452.733,61.429 L452.7324,61.429 L452.7319,61.429 L452.7316,61.43 L452.7314,61.43 L452.7313,61.43 L452.9351,61.36 L452.902,61.369 L452.8427,61.383 L452.7312,61.406 L452.5823,61.435 L452.1758,61.512 L451.6542,61.606 L451.0295,61.716 L450.3234,61.838 L449.5406,61.973 L448.6951,62.118 L447.8034,62.27 L446.8732,62.429 L445.9183,62.593 L444.9516,62.759 L443.9838,62.926 L443.0289,63.093 L442.0961,63.258 L441.1992,63.419 L440.3537,63.574 L439.9488,63.649 L439.5618,63.723 L439.1931,63.793 L438.8421,63.862 L438.5115,63.928 L438.2096,63.99 L437.1449,64.207 L436.0796,64.424 L435.0143,64.642 L433.949,64.859 L432.8837,65.076 L431.8184,65.293 L430.7531,65.51 L429.6878,65.727 L428.6225,65.944 L427.5572,66.162 L426.4919,66.379 L425.4266,66.596 L424.3613,66.813 L423.2959,67.03 L422.2306,67.247 L421.1709,67.463 L420.1095,67.672 L419.0427,67.881 L417.9758,68.091 L416.909,68.3 L415.8421,68.51 L414.7753,68.72 L413.7084,68.929 L412.6415,69.139 L411.5747,69.348 L410.5078,69.558 L409.441,69.767 L408.3741,69.977 L407.3072,70.187 L406.2404,70.396 L405.1735,70.606 L404.1088,70.815 L403.0434,71.021 L401.976,71.228 L400.9086,71.434 L399.8411,71.641 L398.7737,71.848 L397.7062,72.055 L396.6388,72.261 L395.5713,72.468 L394.5039,72.675 L393.4365,72.881 L392.369,73.088 L391.3015,73.295 L390.2341,73.501 L389.1666,73.708 L388.0992,73.915 L387.0315,74.121 L385.9638,74.329 L384.8965,74.536 L383.8291,74.743 L382.7617,74.95 L381.6944,75.157 L380.627,75.364 L379.5596,75.571 L378.4911,75.778 L377.4228,75.987 L376.3558,76.196 L375.2888,76.405 L374.2218,76.613 L373.1548,76.822 L372.0878,77.031 L371.0207,77.239 L369.9517,77.449 L368.8832,77.66 L367.8168,77.872 L366.7503,78.083 L365.6838,78.295 L364.6174,78.506 L363.551,78.718 L362.4845,78.929 L361.4156,79.141 L360.3473,79.357 L359.2815,79.572 L358.2159,79.787 L357.1501,80.002 L356.0844,80.217 L355.0187,80.432 L353.953,80.647 L352.8837,80.863 L351.8155,81.083 L350.7507,81.303 L349.686,81.523 L348.6213,81.743 L347.5566,81.962 L346.4919,82.182 L345.4272,82.402 L344.3581,82.623 L343.2902,82.85 L342.2267,83.076 L341.1633,83.301 L340.0998,83.527 L339.0363,83.753 L337.9729,83.979 L336.9094,84.205 L335.8425,84.431 L334.0337,84.822 L332.2268,85.212 L330.4199,85.603 L328.6117,85.993 L326.8041,86.387 L324.9977,86.78 L323.1913,87.174 L321.3832,87.567 L319.5759,87.965 L317.7703,88.362 L315.9647,88.759 L314.1572,89.157 L312.3505,89.559 L310.5458,89.96 L308.741,90.361 L306.9338,90.763 L305.1279,91.171 L303.3244,91.578 L301.5209,91.985 L299.7145,92.392 L297.9098,92.806 L296.1078,93.22 L294.3058,93.633 L292.501,94.048 L290.6977,94.469 L288.8975,94.889 L287.0972,95.309 L285.2933,95.731 L283.4914,96.16 L281.6931,96.589 L279.8948,97.017 L278.0926,97.447 L276.2927,97.886 L274.4967,98.324 L272.7007,98.762 L270.9008,99.201 L269.1033,99.649 L267.3096,100.096 L265.5159,100.543 L263.7175,100.991 L261.9219,101.45 L260.1311,101.908 L258.3402,102.365 L256.5442,102.825 L254.7513,103.296 L252.9636,103.766 L251.1758,104.235 L249.3788,104.708 L247.9641,105.1 L246.5612,105.489 L245.1583,105.878 L243.7554,106.268 L242.3525,106.657 L240.9496,107.046 L239.5467,107.435 L238.1291,107.828 L236.7191,108.249 L235.3239,108.665 L233.9287,109.081 L232.5334,109.497 L231.1382,109.913 L229.743,110.329 L228.3478,110.745 L226.9427,111.164 L225.5428,111.601 L224.1527,112.035 L222.7626,112.469 L221.3725,112.903 L219.9825,113.337 L218.5923,113.77 L217.2023,114.204 L215.8079,114.64 L214.4158,115.083 L213.028,115.524 L211.6401,115.966 L210.2506,116.408 L208.8619,116.854 L207.475,117.299 L206.0881,117.743 L204.7006,118.188 L203.3135,118.634 L201.9268,119.08 L200.5402,119.526 L199.154,119.971 L197.7677,120.416 L196.3808,120.861 L194.9939,121.306 L193.6086,121.75 L192.2226,122.191 L190.8348,122.633 L189.4471,123.075 L188.0623,123.516 L186.676,123.952 L185.2868,124.388 L183.8976,124.825 L182.5051,125.263 L181.4674,125.595 L180.4342,125.925 L179.4009,126.255 L178.3675,126.585 L177.3342,126.916 L176.3009,127.246 L175.2676,127.576 L174.2261,127.909 L173.188,128.253 L172.1579,128.594 L171.1279,128.935 L170.0979,129.276 L169.0679,129.617 L168.0378,129.959 L167.0078,130.3 L165.9766,130.641 L164.9458,130.984 L163.9163,131.327 L162.8868,131.67 L161.8572,132.013 L160.8277,132.356 L159.7982,132.698 L158.7687,133.041 L157.7418,133.383 L156.7139,133.721 L155.6834,134.06 L154.6528,134.4 L153.6262,134.738 L152.5981,135.07 L151.566,135.404 L150.5338,135.738 L149.5074,136.07 L148.4788,136.394 L147.4444,136.721 L146.4101,137.047 L145.3823,137.371 L144.352,137.687 L143.315,138.004 L142.2781,138.322 L141.2499,138.636 L140.2184,138.939 L139.178,139.245 L138.1376,139.551 L137.1078,139.854 L136.0738,140.142 L135.0292,140.433 L133.9845,140.725 L132.9438,141.015 L132.034,141.264 L130.9966,141.549 L129.8567,141.862 L128.6384,142.196 L127.3502,142.547 L126.0105,142.908 L124.6393,143.273 L123.2502,143.636 L121.8616,143.99 L120.4893,144.332 L119.1525,144.653 L117.8647,144.949 L117.2515,145.084 L116.6547,145.211 L116.0803,145.328 L115.5292,145.436 L115.0069,145.532 L114.5149,145.616 L114.054,145.688 L113.632,145.746 L113.2501,145.791 L112.9112,145.821 L112.6281,145.837 L112.4042,145.839 L112.2518,145.832 L112.2063,145.827 L112.2887,145.852 L112.5433,145.991 L112.9423,146.438 L113.1315,147.104 L113.0549,147.595 L112.9497,147.809 L112.9416,147.824 L113.0266,147.739 L113.2002,147.592 L113.4495,147.403 L114.7172,146.521 L115.9996,145.703 L117.3156,144.931 L118.6585,144.2 L120.0272,143.512 L121.4153,142.865 L122.853,142.256 L124.2842,141.649 L125.7487,141.102 L127.2222,140.551 L128.72,140.045 L130.2277,139.535 L131.7505,139.053 L133.2797,138.57 L134.8177,138.102 L136.3649,137.632 L137.9119,137.161 L139.4636,136.689 L141.0167,136.208 L142.5676,135.714 L144.1139,135.204 L145.6551,134.676 L147.1896,134.124 L148.7074,133.547 L149.9543,133.052 L151.1891,132.563 L152.4238,132.074 L153.6585,131.584 L154.8932,131.095 L156.1279,130.605 L157.3627,130.116 L158.6024,129.624 L159.8393,129.125 L161.0712,128.628 L162.3032,128.131 L163.535,127.634 L164.767,127.137 L165.9989,126.64 L167.2308,126.143 L168.462,125.646 L169.6937,125.15 L170.926,124.654 L172.1583,124.158 L173.391,123.663 L174.624,123.168 L175.8568,122.673 L177.0897,122.179 L178.3191,121.685 L179.5505,121.197 L180.7852,120.708 L182.02,120.218 L183.2505,119.73 L184.4834,119.249 L185.7204,118.765 L186.9575,118.282 L188.1888,117.801 L189.4232,117.329 L190.6634,116.854 L191.9036,116.379 L193.1373,115.907 L194.3744,115.444 L195.618,114.979 L196.8617,114.514 L198.0967,114.052 L199.3364,113.602 L200.5845,113.149 L201.8326,112.696 L203.0706,112.247 L204.3138,111.812 L205.5673,111.374 L206.8207,110.936 L208.0552,110.504 L209.5115,110.027 L210.9842,109.545 L212.457,109.063 L213.9297,108.58 L215.4025,108.098 L216.8743,107.613 L218.346,107.128 L219.8177,106.643 L221.2895,106.157 L222.7612,105.672 L224.233,105.187 L225.7046,104.702 L227.1764,104.216 L228.6481,103.731 L230.1199,103.246 L231.5701,102.767 L233.0317,102.324 L234.5149,101.873 L235.998,101.423 L237.4811,100.972 L238.9643,100.522 L240.4474,100.072 L241.9305,99.621 L243.4137,99.171 L244.8968,98.72 L246.38,98.27 L247.8631,97.819 L249.3462,97.369 L250.8294,96.918 L252.3125,96.468 L253.7956,96.018 L255.2687,95.57 L256.7466,95.139 L258.2345,94.705 L259.7225,94.271 L261.2102,93.836 L262.6979,93.401 L264.1857,92.966 L265.6734,92.531 L267.1611,92.096 L268.6489,91.661 L270.1366,91.226 L271.6243,90.791 L273.1121,90.356 L274.5998,89.921 L276.0875,89.486 L277.5752,89.051 L279.061,88.617 L280.0433,88.333 L281.0289,88.048 L282.0144,87.762 L282.9999,87.477 L283.9855,87.192 L284.971,86.907 L285.9565,86.622 L286.9394,86.338 L287.9235,86.056 L288.9103,85.774 L289.8971,85.491 L290.8839,85.209 L291.8707,84.926 L292.8575,84.644 L293.8443,84.362 L294.8284,84.08 L295.8136,83.801 L296.8016,83.522 L297.7897,83.242 L298.7777,82.962 L299.7657,82.683 L300.7537,82.403 L301.7418,82.124 L302.7272,81.845 L303.7137,81.569 L304.7029,81.292 L305.6921,81.016 L306.6813,80.739 L307.6705,80.462 L308.6597,80.186 L309.6489,79.909 L310.6352,79.633 L311.6226,79.36 L312.613,79.087 L313.6034,78.813 L314.5937,78.54 L315.5842,78.266 L316.5745,77.992 L317.5649,77.719 L318.5522,77.446 L319.5407,77.177 L320.5323,76.906 L321.5238,76.636 L322.5153,76.365 L323.5068,76.095 L324.4983,75.824 L325.4899,75.554 L326.4786,75.284 L327.4683,75.018 L328.4608,74.75 L329.4534,74.483 L330.4459,74.215 L331.4385,73.948 L332.431,73.68 L333.4236,73.413 L334.4129,73.146 L335.4033,72.883 L336.397,72.619 L337.3906,72.355 L338.3843,72.09 L339.3779,71.826 L340.3715,71.562 L341.3652,71.298 L342.3555,71.035 L343.3469,70.775 L344.3416,70.514 L345.3363,70.254 L346.331,69.993 L347.3257,69.732 L348.3204,69.472 L349.3152,69.211 L350.3068,68.951 L351.2994,68.695 L352.295,68.437 L353.2907,68.18 L354.2864,67.923 L355.282,67.665 L356.2777,67.408 L357.2734,67.151 L358.2655,66.894 L359.2587,66.641 L360.2554,66.388 L361.2521,66.134 L362.2487,65.88 L363.2454,65.627 L364.2421,65.373 L365.2388,65.119 L366.2319,64.867 L367.2259,64.618 L368.2236,64.368 L369.2212,64.118 L370.2189,63.868 L371.2165,63.618 L372.2142,63.368 L373.2118,63.118 L374.2062,62.869 L375.2013,62.624 L376.1999,62.377 L377.1984,62.131 L378.197,61.884 L379.1954,61.638 L380.194,61.392 L381.1925,61.145 L382.1872,60.9 L383.1829,60.658 L384.1824,60.416 L385.1818,60.174 L386.1813,59.931 L387.1807,59.689 L388.1802,59.447 L389.1797,59.204 L390.1752,58.963 L391.1717,58.725 L392.172,58.487 L393.1724,58.249 L394.1729,58.011 L395.1734,57.773 L396.1739,57.536 L397.1743,57.298 L398.1712,57.061 L399.1688,56.828 L400.1701,56.594 L401.1713,56.36 L402.1726,56.126 L403.1739,55.892 L404.1752,55.658 L405.1764,55.424 L406.1736,55.191 L407.1716,54.963 L408.1737,54.733 L409.1758,54.503 L410.1779,54.274 L411.18,54.044 L412.1822,53.814 L413.1843,53.585 L414.1822,53.356 L415.1808,53.132 L416.1838,52.907 L417.1867,52.681 L418.1896,52.456 L419.1926,52.231 L420.1955,52.006 L421.1984,51.781 L422.1974,51.556 L423.1971,51.336 L424.2007,51.115 L425.2044,50.894 L426.208,50.673 L427.2117,50.452 L428.2153,50.23 L429.2189,50.009 L430.2181,49.789 L431.2181,49.574 L432.2225,49.357 L433.2269,49.141 L434.2313,48.924 L435.2356,48.708 L436.24,48.491 L437.2445,48.275 L438.2443,48.059 L439.2449,47.848 L440.25,47.637 L441.2551,47.425 L442.2602,47.213 L443.2654,47.001 L444.2705,46.79 L445.2756,46.578 L446.2765,46.367 L447.278,46.16 L448.2838,45.953 L449.2895,45.746 L450.2953,45.538 L451.3011,45.331 L452.3069,45.124 L453.3126,44.916 L454.3136,44.71 L455.3152,44.508 L456.3217,44.306 L457.3281,44.104 L458.3346,43.901 L459.3411,43.699 L460.3475,43.496 L461.3539,43.294 L462.3554,43.092 L463.3576,42.896 L464.3647,42.699 L465.3718,42.501 L466.3788,42.304 L467.386,42.106 L468.3931,41.909 L469.4001,41.712 L470.4062,41.514 L470.582,41.481 L470.7258,41.453 L470.8345,41.433 L470.9077,41.42 L470.9529,41.413 L470.8817,41.423 L470.8818,41.423 L470.8821,41.423 L470.8824,41.423 L470.883,41.423 L470.8836,41.423 L470.8843,41.423 L470.8852,41.423 L470.8862,41.423 L470.8873,41.423 L470.8885,41.422 L470.8899,41.422 L470.8914,41.422 L470.8931,41.422 L470.8948,41.422 L470.8967,41.421 L470.8871,41.423 L470.8624,41.426 L470.8316,41.429 L470.7927,41.432 L470.7425,41.435 L470.6756,41.437 L470.5832,41.437 L470.4485,41.429 L470.2393,41.398 L469.8888,41.294 L469.2942,40.93 L468.6608,39.895 L468.7211,38.694 L469.0599,38.098 L469.3115,37.84 L469.4769,37.713 L469.5376,37.672 L469.537,37.673 L469.5364,37.673 L469.5358,37.673 L469.5353,37.674 L469.5348,37.674 L469.5344,37.674 L469.534,37.674 L469.5337,37.675 L469.5334,37.675 L469.5331,37.675 L469.5329,37.675 L469.5327,37.675 L469.5326,37.675 L469.5325,37.675 L469.5325,37.675 L470.1435,37.412 L470.0528,37.435 L469.8653,37.477 L469.5892,37.539 L469.2323,37.616 L468.8052,37.709 L468.3229,37.812 L467.7883,37.926 L467.2115,38.048 L465.9692,38.311 L464.6554,38.587 L463.3439,38.862 L462.7084,38.994 L462.0979,39.121 L461.5219,39.241 L460.9849,39.352 L460.499,39.452 L460.0752,39.539 L458.9136,39.775 L457.7509,40.011 L456.5883,40.248 L455.4256,40.484 L454.263,40.72 L453.1004,40.957 L451.9377,41.193 L450.7751,41.429 L449.6125,41.665 L448.4498,41.902 L447.2872,42.138 L446.1245,42.374 L444.9619,42.611 L443.7992,42.847 L442.6366,43.083 L441.4753,43.319 L440.2793,43.561 L439.082,43.802 L437.8848,44.044 L436.6874,44.286 L435.4901,44.527 L434.2928,44.769 L433.0954,45.011 L431.8982,45.252 L430.7009,45.494 L429.5035,45.736 L428.3062,45.977 L427.1089,46.219 L425.9116,46.461 L424.7143,46.702 L423.517,46.944 L422.3188,47.186 L421.1073,47.431 L419.8965,47.677 L418.6858,47.922 L417.475,48.168 L416.2643,48.413 L415.0535,48.658 L413.8428,48.904 L412.6321,49.149 L411.4213,49.395 L410.2106,49.64 L408.9999,49.885 L407.7891,50.131 L406.5784,50.376 L405.3677,50.622 L404.1569,50.867 L402.9449,51.113 L401.7334,51.36 L400.5231,51.607 L399.3128,51.854 L398.1017,52.101 L396.8931,52.349 L395.6852,52.596 L394.4773,52.844 L393.2685,53.091 L392.0635,53.339 L390.8595,53.587 L389.6554,53.835 L388.4504,54.083 L387.2498,54.331 L386.0502,54.579 L384.8506,54.827 L383.6498,55.075 L382.4552,55.324 L381.2617,55.572 L380.0682,55.82 L378.8733,56.068 L377.6859,56.317 L376.4999,56.565 L375.3138,56.814 L374.1264,57.062 L372.9467,57.311 L371.7685,57.559 L370.5902,57.807 L369.4103,58.056 L368.2401,58.304 L367.0716,58.552 L365.9032,58.801 L364.7329,59.049 L363.5736,59.298 L362.4162,59.546 L361.2588,59.794 L360.0996,60.042 L358.9515,60.291 L357.8052,60.538 L356.659,60.786 L355.5105,61.035 L354.3754,61.282 L353.2425,61.53 L352.1097,61.777 L350.9744,62.025 L349.8538,62.272 L348.7356,62.519 L347.6175,62.766 L346.4999,63.013 L345.3996,63.255 L344.2988,63.498 L343.1979,63.74 L342.097,63.983 L340.9962,64.225 L339.8953,64.468 L338.7945,64.71 L337.6965,64.952 L336.5977,65.191 L335.496,65.43 L334.3944,65.67 L333.2927,65.909 L332.191,66.149 L331.0893,66.388 L329.9877,66.628 L328.8874,66.867 L327.7866,67.105 L326.6846,67.343 L325.5825,67.581 L324.4805,67.819 L323.3783,68.057 L322.2764,68.295 L321.1743,68.534 L320.0723,68.772 L318.9703,69.011 L317.8682,69.249 L316.7662,69.487 L315.6641,69.726 L314.5621,69.964 L313.4601,70.203 L312.358,70.441 L311.2546,70.68 L310.1515,70.92 L309.0497,71.16 L307.948,71.4 L306.8463,71.64 L305.7446,71.88 L304.6429,72.119 L303.5412,72.359 L302.4365,72.6 L301.3326,72.843 L300.2316,73.086 L299.1306,73.329 L298.0296,73.572 L296.9286,73.815 L295.8277,74.058 L294.7267,74.301 L293.6218,74.545 L292.5178,74.793 L291.4178,75.04 L290.3179,75.286 L289.2179,75.533 L288.1179,75.78 L287.0179,76.027 L285.918,76.274 L284.8122,76.522 L283.708,76.777 L282.6095,77.029 L281.511,77.282 L280.4124,77.535 L279.3139,77.788 L278.2154,78.041 L277.1169,78.293 L276.0112,78.548 L274.9072,78.81 L273.8107,79.071 L272.714,79.331 L271.6174,79.592 L270.5209,79.852 L269.4242,80.113 L268.3276,80.373 L267.2253,80.635 L266.1244,80.903 L265.0293,81.169 L263.9342,81.435 L262.8344,81.703 L261.7358,81.975 L260.6419,82.246 L259.548,82.517 L258.449,82.79 L257.3514,83.067 L256.2588,83.343 L255.1662,83.62 L254.0687,83.897 L252.9725,84.18 L251.8812,84.461 L250.7898,84.742 L249.6927,85.025 L248.5972,85.314 L247.5074,85.601 L246.4175,85.888 L245.3216,86.177 L244.2272,86.472 L243.139,86.766 L242.0507,87.059 L240.9534,87.355 L239.1264,87.861 L237.3048,88.365 L235.4832,88.87 L233.6523,89.377 L231.8261,89.9 L230.0092,90.421 L228.1923,90.941 L226.3666,91.465 L224.5453,92.003 L222.7329,92.538 L220.9205,93.074 L219.1004,93.612 L217.2842,94.163 L215.4757,94.712 L213.6672,95.26 L211.8506,95.812 L210.0381,96.377 L208.2337,96.939 L206.4293,97.501 L204.6173,98.066 L202.8093,98.644 L201.0087,99.22 L199.2082,99.795 L197.4012,100.372 L195.5976,100.961 L193.8005,101.548 L192.0033,102.134 L190.1995,102.723 L188.3992,103.324 L186.6056,103.922 L184.812,104.52 L183.0121,105.12 L181.2157,105.731 L179.4255,106.34 L177.6353,106.949 L175.8397,107.56 L174.047,108.18 L172.2598,108.798 L170.4725,109.417 L168.6797,110.037 L166.8899,110.666 L165.1056,111.294 L163.3214,111.922 L161.5321,112.551 L159.7456,113.19 L157.9642,113.826 L156.1827,114.462 L154.3915,115.102 L152.6059,115.759 L150.8301,116.413 L149.0543,117.066 L147.2786,117.719 L145.5028,118.373 L143.727,119.026 L141.9512,119.679 L140.1755,120.332 L138.3997,120.986 L136.624,121.639 L134.8481,122.292 L133.0724,122.946 L131.2966,123.599 L129.5209,124.252 L127.745,124.906 L125.9567,125.564 L124.1763,126.243 L122.4083,126.918 L120.6404,127.593 L118.8725,128.267 L117.1045,128.942 L115.3367,129.617 L113.5687,130.292 L111.8008,130.966 L110.0329,131.641 L108.265,132.316 L106.4971,132.991 L104.7291,133.665 L102.9612,134.34 L101.1933,135.015 L99.4254,135.69 L97.6518,136.366 L95.883,137.053 L94.1198,137.736 L92.3566,138.42 L90.5934,139.104 L88.8301,139.788 L87.0669,140.472 L85.3037,141.156 L83.5405,141.84 L81.7772,142.524 L80.014,143.208 L78.2508,143.891 L76.4876,144.575 L74.7244,145.259 L72.9611,145.943 L71.1979,146.627 L69.4344,147.311 L68.3579,147.729 L67.282,148.147 L66.206,148.565 L65.1301,148.982 L64.0541,149.4 L62.9781,149.818 L61.9022,150.236 L60.8277,150.653 L59.7527,151.069 L58.6761,151.485 L57.5994,151.901 L56.5228,152.317 L55.4462,152.733 L54.3696,153.15 L53.293,153.566 L52.2195,153.981 L51.1448,154.392 L50.0669,154.805 L48.9891,155.218 L47.9112,155.631 L46.8333,156.044 L45.7554,156.457 L44.6775,156.87 L43.6038,157.281 L42.5286,157.688 L41.449,158.097 L40.3695,158.505 L39.29,158.914 L38.2105,159.322 L37.131,159.731 L36.0514,160.139 L34.978,160.546 L33.9023,160.946 L32.8204,161.348 L31.7386,161.75 L30.6568,162.152 L29.5749,162.555 L28.4931,162.957 L27.4112,163.359 L26.3371,163.759 L25.2602,164.15 L24.1754,164.544 L23.0906,164.938 L22.0058,165.333 L20.9211,165.727 L19.8363,166.121 L18.7516,166.515 L17.6437,166.918 L16.3173,167.432 L14.9853,168.009 L13.6855,168.607 L12.4132,169.202 L11.1693,169.77 L9.9313,170.296 L9.3524,170.523 L8.767,170.736 L8.188,170.926 L7.6189,171.094 L7.0645,171.233 L6.5165,171.344 L5.9794,171.428 L5.459,171.479 L4.9425,171.498 L4.4345,171.486 L3.9401,171.44 L3.3991,171.348 L3.4331,171.355 L3.5045,171.38 L3.6378,171.444 L3.8346,171.579 L4.086,171.829 L4.4041,172.399 L4.4934,172.953 L4.4054,173.512 L4.3216,173.699 L4.3333,173.686 L4.4457,173.565 L4.6557,173.369 L4.9364,173.132 L5.2768,172.87 L5.6504,172.6 L6.5671,171.985 L7.5557,171.375 L8.585,170.777 L9.0786,170.5 L9.5674,170.232 L10.0349,169.982 L10.4759,169.749 L10.8797,169.541 L11.2364,169.361 L12.3368,168.817 L13.4411,168.271 L14.5454,167.724 L15.6425,167.181 L16.7436,166.646 L17.8519,166.108 L18.9601,165.569 L20.0613,165.034 L21.1662,164.507 L22.2783,163.976 L23.3904,163.445 L24.4961,162.917 L25.6052,162.396 L26.7206,161.872 L27.836,161.348 L28.9445,160.828 L30.0566,160.314 L31.1756,159.798 L32.2946,159.282 L33.4068,158.769 L34.5225,158.263 L35.6449,157.754 L36.7673,157.245 L37.8837,156.739 L39.003,156.239 L40.1285,155.737 L41.2539,155.234 L42.3727,154.735 L43.4947,154.243 L44.6234,153.748 L45.752,153.253 L46.8741,152.761 L47.9993,152.275 L49.131,151.787 L50.2627,151.299 L51.3885,150.814 L52.517,150.335 L53.6514,149.853 L54.7857,149.372 L55.9137,148.893 L57.0445,148.421 L58.1817,147.946 L59.3189,147.472 L60.4498,147 L61.5834,146.535 L62.7232,146.067 L63.863,145.599 L64.9968,145.134 L66.7649,144.418 L68.537,143.701 L70.3091,142.983 L72.0765,142.268 L73.847,141.56 L75.6223,140.85 L77.3976,140.141 L79.1684,139.433 L80.9422,138.733 L82.7206,138.031 L84.499,137.33 L86.2734,136.629 L88.0504,135.936 L89.8315,135.241 L91.6126,134.546 L93.3894,133.852 L95.169,133.166 L96.953,132.478 L98.7369,131.79 L100.5167,131.104 L102.2992,130.425 L104.0858,129.744 L105.8725,129.063 L107.6537,128.384 L109.4383,127.715 L111.2284,127.043 L113.0185,126.371 L114.8086,125.699 L116.5988,125.028 L118.3889,124.356 L120.179,123.684 L121.9615,123.015 L123.7488,122.359 L125.5435,121.7 L127.3383,121.041 L129.1331,120.382 L130.9278,119.723 L132.7226,119.063 L134.5174,118.404 L136.3052,117.748 L138.0971,117.103 L139.896,116.455 L141.6949,115.808 L143.4938,115.16 L145.2927,114.513 L147.0915,113.865 L148.8904,113.218 L150.686,112.572 L151.9657,112.116 L153.2499,111.659 L154.5342,111.202 L155.8185,110.745 L157.1027,110.288 L158.387,109.831 L159.6712,109.374 L160.9534,108.917 L162.2372,108.463 L163.5231,108.008 L164.8089,107.553 L166.0948,107.098 L167.3807,106.643 L168.6666,106.188 L169.9525,105.733 L171.2361,105.279 L172.5214,104.827 L173.8089,104.375 L175.0964,103.922 L176.3839,103.47 L177.6714,103.017 L178.9589,102.565 L180.2464,102.112 L181.5317,101.66 L182.8185,101.211 L184.1074,100.76 L185.3964,100.31 L186.6853,99.86 L187.9742,99.41 L189.2632,98.959 L190.5521,98.509 L191.8385,98.06 L193.1265,97.613 L194.417,97.165 L195.7075,96.718 L196.998,96.27 L198.2885,95.823 L199.579,95.375 L200.8695,94.928 L202.1573,94.481 L203.4467,94.037 L204.7387,93.593 L206.0308,93.148 L207.3228,92.704 L208.6149,92.259 L209.9069,91.814 L211.1989,91.37 L212.4884,90.926 L213.7792,90.485 L215.0726,90.044 L216.3661,89.602 L217.6595,89.16 L218.9529,88.718 L220.2463,88.277 L221.5397,87.835 L222.8302,87.394 L224.1221,86.957 L225.417,86.518 L226.712,86.08 L228.0069,85.642 L229.3018,85.203 L230.5967,84.765 L231.8916,84.327 L233.1834,83.889 L234.4767,83.455 L235.7731,83.021 L237.0694,82.586 L238.3658,82.151 L239.6622,81.716 L240.9586,81.281 L242.255,80.847 L243.5484,80.413 L244.8431,79.982 L246.1407,79.551 L247.4383,79.119 L248.736,78.687 L250.0336,78.256 L251.3312,77.824 L252.6288,77.393 L253.923,76.962 L255.2187,76.535 L256.5177,76.108 L257.8168,75.68 L259.1158,75.252 L260.4149,74.825 L261.7139,74.397 L263.013,73.969 L264.3085,73.543 L265.6053,73.12 L266.9058,72.697 L268.2062,72.273 L269.5066,71.85 L270.8071,71.426 L272.1076,71.003 L273.4081,70.579 L274.7051,70.157 L276.0034,69.738 L277.3051,69.319 L278.6068,68.899 L279.9086,68.48 L281.2103,68.06 L282.512,67.641 L283.8137,67.221 L285.1115,66.803 L286.4106,66.389 L287.7137,65.974 L289.0168,65.559 L290.3199,65.144 L291.6229,64.729 L292.9259,64.314 L294.2289,63.898 L295.5279,63.485 L296.8282,63.075 L298.1325,62.665 L299.4369,62.255 L300.7413,61.844 L302.0456,61.434 L303.35,61.023 L304.6543,60.613 L305.9548,60.204 L307.2565,59.799 L308.5621,59.393 L309.8677,58.988 L311.1733,58.582 L312.4788,58.176 L313.7844,57.77 L315.09,57.364 L316.3911,56.96 L317.6935,56.56 L319.0004,56.159 L320.3072,55.759 L321.6141,55.358 L322.921,54.957 L324.2278,54.557 L325.5347,54.156 L326.837,53.757 L328.1406,53.363 L329.4487,52.967 L330.7568,52.572 L332.0649,52.177 L333.373,51.781 L334.6812,51.386 L335.9893,50.991 L337.2931,50.597 L338.5981,50.208 L339.9073,49.817 L341.2166,49.427 L342.5259,49.037 L343.8351,48.647 L345.1444,48.256 L346.4537,47.866 L347.758,47.477 L349.0636,47.094 L350.3741,46.71 L351.6846,46.325 L352.9951,45.941 L354.3056,45.556 L355.6161,45.172 L356.9266,44.788 L358.232,44.405 L359.5386,44.028 L360.8503,43.649 L362.162,43.271 L363.4737,42.892 L364.7855,42.514 L366.0971,42.135 L367.4088,41.757 L368.7157,41.379 L370.0237,41.008 L371.3365,40.635 L372.6493,40.262 L373.9621,39.889 L375.2748,39.517 L376.5876,39.144 L377.9004,38.771 L379.2078,38.4 L380.5164,38.035 L381.8304,37.669 L383.1444,37.303 L384.4584,36.936 L385.7725,36.57 L387.0864,36.204 L388.4004,35.838 L389.7088,35.473 L391.0184,35.115 L392.3335,34.755 L393.6486,34.396 L394.9637,34.036 L396.2789,33.676 L397.594,33.317 L398.9092,32.957 L400.2197,32.599 L401.9325,32.137 L403.6489,31.674 L405.3652,31.211 L407.0782,30.749 L408.7926,30.292 L410.5104,29.834 L412.2281,29.376 L413.9424,28.92 L415.6581,28.468 L417.3772,28.015 L419.0965,27.563 L420.8124,27.111 L422.53,26.666 L424.2514,26.222 L425.9729,25.778 L427.6904,25.335 L429.4094,24.897 L431.1324,24.459 L432.8554,24.021 L434.5742,23.583 L436.2945,23.152 L438.019,22.72 L439.7435,22.288 L441.4641,21.857 L443.186,21.431 L444.912,21.005 L446.6379,20.578 L448.3592,20.153 L450.0822,19.734 L451.8097,19.315 L453.5373,18.895 L455.26,18.476 L456.9843,18.065 L458.7135,17.652 L460.4426,17.239 L462.1672,16.827 L463.8934,16.422 L465.624,16.015 L467.3546,15.609 L469.08,15.204 L470.8071,14.806 L472.5393,14.406 L474.2716,14.007 L475.9984,13.609 L477.7269,13.219 L479.4609,12.828 L481.1949,12.436 L482.8798,12.055 L483.8309,11.895 L484.7518,11.736 L485.7272,11.661 L486.7419,11.58 L487.7915,11.556 L488.8815,11.529 L489.9742,11.528 L491.098,11.536 L492.2374,11.546 L493.3886,11.553 L494.5491,11.548 L495.7123,11.524 L496.8781,11.475 L498.0464,11.391 L499.2063,11.262 L500.3617,11.083 L501.5139,10.839 L502.6015,10.533 L503.2024,10.33 L503.761,10.115 L504.308,9.876 L504.848,9.613 L505.3835,9.319 L505.9027,8.999 L506.4103,8.651 L506.9083,8.268 L507.3843,7.858 L507.8433,7.418 L508.2865,6.942 L508.7026,6.44 L509.0768,5.934 L509.4087,5.403 L509.6861,4.834 L509.9035,4.173 L510.0014,3.341 L509.8608,2.402 L509.4131,1.486 L508.7247,0.782 L508.0314,0.379 L507.3964,0.16 L506.8028,0.048 L506.2572,0.004 L505.7272,0 L505.1897,0.029 L504.6481,0.083 L504.0936,0.157 L503.5171,0.252 L502.9017,0.369 L501.6833,0.634 L500.3595,0.963 L498.9706,1.338 L497.5315,1.747 L496.0489,2.187 L494.542,2.644 L493.0266,3.11 L491.5174,3.577 L490.0303,4.034 L489.3038,4.255 L488.5882,4.47 L487.8876,4.678 L487.2031,4.877 L486.5391,5.067 L485.897,5.245 L485.2782,5.412 L484.6886,5.565 L484.129,5.702 L483.6012,5.825 L483.1139,5.929 L482.6567,6.016 L481.6144,6.205 L480.5632,6.395 L479.512,6.585 L478.4607,6.775 L477.4095,6.965 L476.3584,7.155 L475.3072,7.345 L474.2534,7.536 L473.2,7.729 L472.1491,7.921 L471.0983,8.113 L470.0474,8.305 L468.9965,8.497 L467.9457,8.689 L466.8948,8.882 L465.8393,9.075 L464.7845,9.271 L463.7344,9.467 L462.6841,9.663 L461.634,9.859 L460.5838,10.055 L459.5337,10.251 L458.4836,10.448 L457.4277,10.645 L456.3727,10.847 L455.3235,11.048 L454.2743,11.249 L453.2251,11.45 L452.176,11.651 L451.1268,11.852 L450.0776,12.053 L449.0201,12.256 L447.9641,12.465 L446.9162,12.673 L445.8683,12.88 L444.8205,13.088 L443.7726,13.295 L442.7248,13.503 L441.6769,13.711 L440.6188,13.92 L439.5623,14.138 L438.5162,14.354 L437.47,14.57 L436.4238,14.786 L435.3776,15.002 L434.3315,15.217 L433.2853,15.433 L432.2323,15.65 L430.908,15.93 L429.5891,16.209 L428.2702,16.487 L426.9513,16.766 L425.6324,17.044 L424.3135,17.323 L422.9946,17.601 L421.6736,17.88 L420.3517,18.162 L419.0319,18.443 L417.7121,18.723 L416.3923,19.004 L415.0726,19.285 L413.7528,19.566 L412.4331,19.848 L411.1109,20.129 L409.7881,20.414 L408.4676,20.698 L407.1473,20.981 L405.8269,21.265 L404.5065,21.549 L403.1861,21.833 L401.8657,22.117 L400.5428,22.401 L399.2195,22.689 L397.8987,22.975 L396.5779,23.262 L395.2571,23.548 L393.9363,23.835 L392.6155,24.121 L391.2947,24.408 L389.9708,24.695 L388.6467,24.986 L387.3257,25.276 L386.0046,25.566 L384.6835,25.855 L383.3625,26.145 L382.0414,26.435 L380.7204,26.725 L379.3959,27.016 L378.0715,27.31 L376.7504,27.603 L375.4293,27.897 L374.1083,28.19 L372.7872,28.484 L371.4661,28.777 L370.1451,29.07 L368.8207,29.365 L367.4964,29.663 L366.1756,29.96 L364.8548,30.258 L363.534,30.555 L362.2132,30.852 L360.8923,31.149 L359.5715,31.447 L358.2466,31.745 L356.9222,32.047 L355.6017,32.349 L354.2813,32.65 L352.9609,32.951 L351.6404,33.253 L350.3201,33.554 L348.9996,33.856 L347.6747,34.158 L346.3506,34.465 L345.0308,34.771 L343.7109,35.077 L342.3912,35.383 L341.0713,35.689 L339.7516,35.995 L338.4318,36.301 L337.1077,36.607 L335.7843,36.919 L334.4653,37.229 L333.1462,37.539 L331.8272,37.849 L330.5081,38.16 L329.1891,38.47 L327.87,38.78 L326.5459,39.091 L325.2229,39.408 L323.9049,39.723 L322.5869,40.038 L321.2688,40.354 L319.9509,40.669 L318.6329,40.984 L317.3149,41.299 L315.9914,41.616 L314.6693,41.938 L313.3525,42.259 L312.0358,42.579 L310.719,42.9 L309.4023,43.22 L308.0856,43.541 L306.7688,43.862 L305.4469,44.184 L304.1263,44.511 L302.8108,44.836 L301.4955,45.162 L300.18,45.488 L298.8646,45.814 L297.5492,46.139 L296.2338,46.465 L294.9124,46.792 L293.5926,47.126 L292.2789,47.457 L290.9651,47.789 L289.6514,48.12 L288.3377,48.452 L287.024,48.784 L285.7102,49.115 L284.3901,49.449 L283.0718,49.788 L281.76,50.126 L280.4482,50.464 L279.1363,50.802 L277.8246,51.14 L276.5127,51.478 L275.2009,51.816 L273.883,52.155 L272.5669,52.501 L271.257,52.844 L269.9471,53.188 L268.6372,53.532 L267.3273,53.876 L266.0174,54.22 L264.7075,54.564 L263.3906,54.909 L262.0759,55.262 L260.7683,55.612 L259.4607,55.963 L258.1531,56.314 L256.8456,56.664 L255.538,57.015 L254.2304,57.366 L252.9153,57.718 L251.6029,58.078 L250.2978,58.436 L248.9928,58.794 L247.6878,59.151 L246.3827,59.509 L245.0777,59.867 L243.7726,60.225 L242.4606,60.584 L241.1509,60.951 L239.8484,61.315 L238.5459,61.68 L237.2433,62.044 L235.9408,62.409 L234.6384,62.773 L233.3359,63.138 L232.0254,63.506 L230.7179,63.88 L229.4184,64.253 L228.1189,64.626 L226.8194,64.998 L225.52,65.371 L224.2205,65.743 L222.9211,66.116 L221.6131,66.491 L220.3084,66.874 L219.0121,67.254 L217.7159,67.635 L216.4195,68.015 L215.1233,68.396 L213.827,68.777 L212.5308,69.157 L211.2265,69.54 L209.9253,69.931 L208.6321,70.319 L207.3389,70.707 L206.0458,71.095 L204.7526,71.483 L203.4593,71.871 L202.1662,72.259 L200.8639,72.65 L199.5652,73.049 L198.2756,73.446 L196.986,73.843 L195.6964,74.239 L194.4068,74.636 L193.1172,75.033 L191.8276,75.429 L190.5286,75.829 L189.2333,76.237 L187.9476,76.643 L186.6618,77.049 L185.3761,77.454 L184.0903,77.86 L182.8046,78.265 L181.5188,78.671 L180.2241,79.079 L179.0499,79.459 L177.8855,79.835 L176.7212,80.212 L175.5569,80.588 L174.3926,80.964 L173.2284,81.341 L172.0641,81.717 L170.8894,82.097 L169.7177,82.486 L168.5564,82.871 L167.3952,83.257 L166.2339,83.642 L165.0726,84.028 L163.9114,84.413 L162.7501,84.799 L161.5796,85.187 L160.4118,85.584 L159.2532,85.978 L158.0947,86.371 L156.9361,86.765 L155.7775,87.159 L154.6189,87.552 L153.4603,87.946 L152.2943,88.342 L151.1305,88.745 L149.9741,89.145 L148.8177,89.545 L147.6614,89.945 L146.5049,90.345 L145.3486,90.745 L144.1922,91.146 L143.0286,91.548 L141.8672,91.957 L140.7129,92.364 L139.5587,92.77 L138.4044,93.177 L137.2502,93.583 L136.0959,93.99 L134.9416,94.396 L133.7814,94.805 L132.6229,95.218 L131.4704,95.63 L130.3179,96.042 L129.1655,96.454 L128.013,96.866 L126.8605,97.277 L125.7081,97.689 L124.5492,98.103 L123.3923,98.523 L122.2418,98.94 L121.0913,99.357 L119.9407,99.775 L118.7902,100.192 L117.6397,100.61 L116.4891,101.027 L115.3386,101.444 L114.1881,101.862 L113.0375,102.279 L111.887,102.696 L110.7365,103.114 L109.5859,103.531 L108.4354,103.948 L107.2849,104.366 L106.1284,104.785 L104.9738,105.21 L103.8252,105.633 L102.6765,106.055 L101.5279,106.478 L100.3792,106.9 L99.2305,107.323 L98.0819,107.746 L96.9332,108.168 L95.7845,108.591 L94.6359,109.013 L93.4872,109.436 L92.3386,109.858 L91.1899,110.281 L90.0412,110.704 L88.8926,111.126 L87.7426,111.549 L86.5932,111.973 L85.4451,112.397 L84.297,112.821 L83.1489,113.244 L82.0008,113.668 L80.8527,114.092 L79.7046,114.516 L78.5566,114.939 L77.4084,115.363 L76.2604,115.787 L75.1123,116.21 L73.9642,116.634 L72.8161,117.058 L71.668,117.481 L70.5199,117.905 L69.3597,118.333 L68.6108,118.62 L67.7731,118.962 L66.8724,119.345 L65.9205,119.761 L64.9211,120.21 L63.8893,120.682 L62.8377,121.171 L61.7757,121.671 L60.7184,122.175 L59.6761,122.677 L58.6621,123.17 L57.6933,123.645 L57.2242,123.876 L56.7723,124.1 L56.3377,124.316 L55.9201,124.525 L55.5224,124.724 L55.1468,124.914 L54.7924,125.093 L54.4625,125.261 L54.1592,125.417 L53.8808,125.56 L53.6305,125.691 L53.4098,125.807 L53.2149,125.911 L53.0445,126.004 L52.8909,126.091 L52.7809,126.157 L52.5436,126.317 L52.5435,126.317 L52.5433,126.317 L52.5429,126.317 L52.5425,126.318 L52.5419,126.318 L52.5412,126.319 L52.5404,126.319 L52.5394,126.32 L52.5384,126.321 L52.5373,126.321 L52.536,126.322 L52.5346,126.323 L52.5331,126.325 L52.5314,126.326 L52.5297,126.327 L52.5109,126.341 L52.4714,126.372 L52.4253,126.409 L52.3712,126.455 L52.3064,126.513 L52.2277,126.589 L52.1304,126.69 L52.0088,126.834 L51.8562,127.046 L51.671,127.377 L51.4802,127.917 L51.4093,128.774 L51.7158,129.861 L52.4143,130.728 L53.1259,131.157 L53.6537,131.318 L53.8527,131.35 L53.8534,131.35 L53.8541,131.35 L53.8547,131.351 L53.8553,131.351 L53.8558,131.351 L53.8563,131.351 L53.8567,131.351 L53.8571,131.351 L53.8574,131.351 L53.8577,131.351 L53.858,131.351 L53.8582,131.351 L53.8583,131.351 L53.8584,131.351 L53.8584,131.351 L55.1257,131.218 L55.2816,131.161 L55.4669,131.084 L55.6498,131.003 L55.8611,130.907 L56.1156,130.788 L56.4162,130.647 L57.7822,129.999 L59.1473,129.352 L60.5125,128.705 L61.8776,128.058 L63.2428,127.411 L64.6079,126.764 L65.973,126.117 L67.3382,125.47 L68.7033,124.823 L70.0685,124.176 L71.4336,123.529 L72.7988,122.882 L74.1639,122.235 L75.529,121.588 L76.8942,120.941 L78.2593,120.295 L79.6244,119.648 L80.9896,119.001 L82.3547,118.354 L83.7198,117.707 L85.085,117.06 L86.4501,116.413 L87.8152,115.766 L89.1804,115.119 C90.5782,114.456 91.1741,112.786 90.5115,111.388 C89.8489,109.99 88.1786,109.394 86.7808,110.057 Z" id="Fill-259"></path>
        </g>
    </g>
</svg>
