<?xml version="1.0" encoding="UTF-8"?>
<svg width="286px" height="63px" viewBox="0 0 286 63" version="1.1" xmlns="http://www.w3.org/2000/svg" xmlns:xlink="http://www.w3.org/1999/xlink">
    <title>194</title>
    <g id="Page-1" stroke="none" stroke-width="1" fill="none" fill-rule="evenodd">
        <g id="194" transform="translate(0.596443, 0.030584)" fill="currentColor">
            <path d="M281.046268,57.3254165 L279.575168,57.0664165 L278.104068,56.8084165 L276.632968,56.5504165 L275.174268,56.2934165 L273.719868,56.0244165 L272.252968,55.7534165 L270.786068,55.4824165 L269.330868,55.2124165 L267.879768,54.9314165 L266.416868,54.6484165 L264.953968,54.3644165 L263.501068,54.0824165 L262.051668,53.7904165 L260.592268,53.4964165 L259.132868,53.2034165 L257.683768,52.9114165 L256.238168,52.6084165 L254.782368,52.3034165 L253.326468,51.9984165 L251.879568,51.6994165 L250.435768,51.3894165 L248.982468,51.0784165 L247.529168,50.7674165 L246.083868,50.4574165 L244.641368,50.1394165 L243.190868,49.8204165 L241.740368,49.5004165 L240.297968,49.1824165 L238.858468,48.8564165 L237.410868,48.5274165 L235.962968,48.2004165 L234.522068,47.8764165 L233.083768,47.5444165 L231.638068,47.2104165 L230.192168,46.8784165 L228.752068,46.5484165 L227.314068,46.2114165 L225.870068,45.8734165 L224.425368,45.5384165 L222.986068,45.2064165 L221.548968,44.8684165 L220.105968,44.5284165 L218.661068,44.1964165 L217.220768,43.8674165 L215.782268,43.5334165 L214.338768,43.1974165 L212.894668,42.8634165 L211.456168,42.5314165 L210.019868,42.1924165 L208.578368,41.8504165 L207.142368,41.4874165 L205.706368,41.1244165 L204.270368,40.7614165 L202.834468,40.3974165 L201.398968,40.0324165 L199.969468,39.6684165 L198.542768,39.2974165 L197.109868,38.9254165 L195.677068,38.5524165 L194.244168,38.1794165 L192.811368,37.8074165 L191.378268,37.4354165 L189.945068,37.0644165 L188.515368,36.6934165 L187.087268,36.3194165 L185.655268,35.9454165 L184.223168,35.5724165 L182.790968,35.1994165 L181.358868,34.8254165 L179.926768,34.4524165 L178.494568,34.0794165 L177.063568,33.7064165 L175.633368,33.3324165 L174.201868,32.9574165 L172.770468,32.5834165 L171.339068,32.2084165 L169.907668,31.8334165 L168.476268,31.4594165 L167.044768,31.0844165 L165.612468,30.7094165 L164.180168,30.3364165 L162.748668,29.9624165 L161.317268,29.5894165 L159.885768,29.2154165 L158.454368,28.8424165 L157.022968,28.4684165 L155.591668,28.0944165 L154.157068,27.7194165 L152.721768,27.3474165 L151.290168,26.9754165 L149.858568,26.6034165 L148.426968,26.2304165 L146.995268,25.8584165 L145.563668,25.4854165 L144.132068,25.1134165 L142.695568,24.7394165 L141.257368,24.3724165 L139.824068,24.0064165 L138.390768,23.6404165 L136.957368,23.2744165 L135.524068,22.9084165 L134.090668,22.5424165 L132.657368,22.1764165 L131.216668,21.8084165 L129.773268,21.4504165 L128.337168,21.0934165 L126.901168,20.7374165 L125.465068,20.3804165 L124.028668,20.0254165 L122.592268,19.6704165 L121.155868,19.3154165 L119.709568,18.9594165 L118.259168,18.6174165 L116.818468,18.2774165 L115.377668,17.9384165 L113.936668,17.6004165 L112.495168,17.2634165 L111.053668,16.9274165 L109.612268,16.5904165 L108.162868,16.2534165 L106.710368,15.9274165 L105.265468,15.6034165 L103.820568,15.2794165 L102.369368,14.9544165 L100.915668,14.6384165 L99.4680685,14.3234165 L98.0204685,14.0094165 L96.5663685,13.6924165 L95.1095685,13.3864165 L93.6592685,13.0804165 L92.2089685,12.7754165 L90.7524685,12.4684165 L89.2933685,12.1704165 L87.8404685,11.8744165 L86.3877685,11.5764165 L84.9290685,11.2724165 L83.4670685,10.9794165 L82.0122685,10.6874165 L80.5575685,10.3954165 L79.0953685,10.1014165 L77.6296685,9.8184165 L76.1716685,9.5374165 L74.7139685,9.2544165 L73.2492685,8.9684165 L71.7811685,8.6934165 L70.3204685,8.4204165 L68.8589685,8.1514165 L67.3886685,7.8824165 L65.9144685,7.6274165 L64.4487685,7.3724165 L62.9793685,7.1394165 L61.5006685,6.9084165 L60.0181685,6.6904165 L58.5441685,6.4744165 L57.0723685,6.2464165 L55.5929685,6.0164165 L54.1096685,5.7994165 L52.6343685,5.5814165 L51.1600685,5.3584165 L49.6772685,5.1324165 L48.1899685,4.9224165 L46.7114685,4.7124165 L45.2333685,4.4994165 L43.7464685,4.2854165 L42.2548685,4.0874165 L40.7723685,3.8874165 L39.2900685,3.6864165 L37.7995385,3.4844165 L36.3045185,3.2974165 L34.8176885,3.1114165 L33.3308585,2.9254165 L31.8347385,2.7384165 L30.3334485,2.5684165 L28.8415985,2.3974165 L27.3497685,2.2274165 L25.8483085,2.0554165 L24.3414485,1.9014165 L22.8444285,1.7464165 L21.3474085,1.5914165 L19.8413385,1.4344165 L18.3301085,1.2954165 L16.8279085,1.1574165 L15.3256985,1.0184165 L13.8132085,0.879416496 L12.2948385,0.759416496 L10.7867185,0.640416496 L9.27859849,0.520416496 L7.75980849,0.400416496 L6.23488849,0.300416496 L4.72060849,0.201416496 L3.20632849,0.102416496 L1.69204849,0.00341649581 C0.816568488,-0.0535835042 0.0605384882,0.609416496 0.00342848823,1.4854165 C-0.0536915118,2.3604165 0.609718488,3.1164165 1.48519849,3.1734165 L2.99952849,3.2724165 L4.51386849,3.3704165 L6.02820849,3.4684165 L7.53189849,3.5664165 L9.02941849,3.6844165 L10.5376085,3.8024165 L12.0457985,3.9204165 L13.5437085,4.0384165 L15.0357085,4.1754165 L16.5379785,4.3124165 L18.0402685,4.4504165 L19.5335185,4.5874165 L21.0215785,4.7404165 L22.5186785,4.8954165 L24.0157885,5.0494165 L25.5030585,5.2054165 L26.9847785,5.3794165 L28.4761085,5.5544165 L29.9674285,5.7294165 L31.4492985,5.9044165 L32.9258885,6.0964165 L34.4117585,6.2904165 L35.8976285,6.4844165 L37.3752985,6.6764165 L38.8483685,6.8834165 L40.3296685,7.0924165 L41.8106685,7.3024165 L43.2826685,7.5134165 L44.7497685,7.7404165 L46.2256685,7.9684165 L47.7010685,8.1984165 L49.1677685,8.4294165 L50.6298685,8.6754165 L52.1004685,8.9224165 L53.5699685,9.1754165 L55.0315685,9.4294165 L56.4890685,9.6954165 L57.9542685,9.9634165 L59.4172685,10.2444165 L60.8717685,10.5234165 L62.3217685,10.8164165 L63.7810685,11.1064165 L65.2440685,11.3764165 L66.6986685,11.6444165 L68.1493685,11.9244165 L69.6087685,12.2054165 L71.0689685,12.4814165 L72.5219685,12.7554165 L73.9715685,13.0414165 L75.4281685,13.3294165 L76.8843685,13.6194165 L78.3330685,13.9084165 L79.7782685,14.2084165 L81.2309685,14.5104165 L82.6835685,14.8134165 L84.1290685,15.1134165 L85.5712685,15.4254165 L87.0196685,15.7424165 L88.4677685,16.0614165 L89.9096685,16.3794165 L91.3487685,16.7064165 L92.7940685,17.0344165 L94.2393685,17.3624165 L95.6781685,17.6894165 L97.1140685,18.0254165 L98.5565685,18.3634165 L99.9989685,18.7004165 L101.435368,19.0364165 L102.869168,19.3814165 L104.309268,19.7264165 L105.749368,20.0714165 L107.181868,20.4144165 L108.611368,20.7674165 L110.048868,21.1204165 L111.486268,21.4734165 L112.923668,21.8274165 L114.361468,22.1784165 L115.799668,22.5294165 L117.237868,22.8794165 L118.666368,23.2274165 L120.091468,23.5864165 L121.526468,23.9474165 L122.961468,24.3074165 L124.396468,24.6684165 L125.831668,25.0284165 L127.267068,25.3874165 L128.702468,25.7464165 L130.130468,26.1034165 L131.555568,26.4704165 L132.988068,26.8404165 L134.420668,27.2094165 L135.853168,27.5784165 L137.285668,27.9474165 L138.718168,28.3174165 L140.150768,28.6864165 L141.578368,29.0544165 L143.004368,29.4284165 L144.435168,29.8044165 L145.865868,30.1794165 L147.296668,30.5554165 L148.727468,30.9314165 L150.158268,31.3064165 L151.589068,31.6824165 L153.016168,32.0584165 L154.441868,32.4404165 L155.870868,32.8234165 L157.299868,33.2064165 L158.728768,33.5894165 L160.157668,33.9724165 L161.586468,34.3554165 L163.015368,34.7394165 L164.443268,35.1224165 L165.871268,35.5064165 L167.299968,35.8914165 L168.728768,36.2754165 L170.157568,36.6594165 L171.586368,37.0444165 L173.015168,37.4294165 L174.443968,37.8134165 L175.873968,38.1984165 L177.304668,38.5814165 L178.734168,38.9644165 L180.163668,39.3474165 L181.593268,39.7314165 L183.022768,40.1144165 L184.452268,40.4974165 L185.881968,40.8794165 L187.315668,41.2614165 L188.750868,41.6394165 L190.182668,42.0154165 L191.614668,42.3914165 L193.046868,42.7674165 L194.478968,43.1424165 L195.911168,43.5174165 L197.343368,43.8924165 L198.781668,44.2694165 L200.222468,44.6384165 L201.657368,45.0064165 L203.091768,45.3754165 L204.526068,45.7454165 L205.960368,46.1154165 L207.394668,46.4854165 L208.823568,46.8764165 L210.257568,47.2714165 L211.693968,47.6584165 L213.124968,48.0444165 L214.556368,48.4294165 L215.992768,48.8144165 L217.431268,49.1944165 L218.865368,49.5704165 L220.301268,49.9394165 L221.743068,50.3094165 L223.187068,50.6724165 L224.625668,51.0334165 L226.065068,51.3904165 L227.510368,51.7494165 L228.958068,52.1014165 L230.399868,52.4514165 L231.841968,52.7994165 L233.291468,53.1504165 L234.743568,53.4924165 L236.188868,53.8314165 L237.634268,54.1704165 L239.087768,54.5094165 L240.544268,54.8414165 L241.992668,55.1704165 L243.440968,55.5004165 L244.897368,55.8314165 L246.356668,56.1544165 L247.807868,56.4754165 L249.259068,56.7964165 L250.719868,57.1194165 L252.184068,57.4314165 L253.639368,57.7384165 L255.094768,58.0464165 L256.560368,58.3554165 L258.029668,58.6544165 L259.488568,58.9514165 L260.947468,59.2474165 L262.416368,59.5464165 L263.888768,59.8344165 L265.351068,60.1204165 L266.813468,60.4064165 L268.287468,60.6954165 L269.765568,60.9714165 L271.231968,61.2454165 L272.698368,61.5194165 L274.177168,61.7954165 L275.660268,62.0584165 L277.130868,62.3194165 L278.601568,62.5804165 L280.072168,62.8414165 C281.595568,63.1104165 283.048468,62.0934165 283.317468,60.5704165 C283.586468,59.0474165 282.569568,57.5944165 281.046268,57.3254165 Z" id="Fill-257"></path>
            <path d="M277.305568,25.9864165 L278.105168,25.8874165 L278.836768,25.7964165 L279.499868,25.7124165 L280.102068,25.6354165 L280.638968,25.5654165 L281.111768,25.5024165 L281.528468,25.4454165 L281.886868,25.3934165 L282.189468,25.3484165 L282.450068,25.3064165 L282.685368,25.2634165 L282.854868,25.2264165 L283.150768,25.1444165 L283.150968,25.1444165 L283.151368,25.1434165 L283.151968,25.1434165 L283.152768,25.1434165 L283.153768,25.1434165 L283.154968,25.1424165 L283.156268,25.1424165 L283.157868,25.1414165 L283.159668,25.1414165 L283.161568,25.1404165 L283.163768,25.1394165 L283.166168,25.1384165 L283.168668,25.1384165 L283.171468,25.1374165 L283.174468,25.1364165 L283.197668,25.1284165 L283.244868,25.1114165 L283.298468,25.0904165 L283.359968,25.0664165 L283.431268,25.0354165 L283.514868,24.9964165 L283.614368,24.9454165 L283.734068,24.8774165 L283.880168,24.7834165 L284.059568,24.6484165 L284.279168,24.4504165 L284.539768,24.1474165 L284.819068,23.6854165 L285.041468,23.0174165 L285.079368,22.1864165 L284.870968,21.3794165 L284.700768,21.0444165 L284.700368,21.0434165 L284.699968,21.0434165 L284.699668,21.0424165 L284.699368,21.0424165 L284.699068,21.0414165 L284.698868,21.0414165 L284.698568,21.0404165 L284.698368,21.0404165 L284.698268,21.0404165 L284.698068,21.0394165 L284.697868,21.0394165 L284.697868,21.0394165 L284.697768,21.0394165 L284.697668,21.0394165 L279.891668,23.8984165 L279.898168,23.9094165 L284.704068,21.0504165 L284.703868,21.0494165 L284.703568,21.0494165 L284.703168,21.0484165 L284.702668,21.0474165 L284.702068,21.0464165 L284.701368,21.0454165 L284.330768,20.5544165 L283.699868,20.0544165 L283.287468,19.8574165 L283.019668,19.7704165 L282.836068,19.7274165 L282.702868,19.7044165 L282.601468,19.6904165 L282.520868,19.6824165 L282.482368,19.6784165 L282.475568,19.6784165 L282.469668,19.6774165 L282.464868,19.6774165 L282.460868,19.6774165 L282.457968,19.6764165 L282.456068,19.6764165 L282.455068,19.6764165 L282.222468,19.6674165 L282.054068,19.6694165 L281.823268,19.6774165 L281.570168,19.6914165 L281.282768,19.7104165 L280.951268,19.7344165 L280.575568,19.7634165 L280.158868,19.7964165 L279.696868,19.8354165 L279.190768,19.8784165 L278.645068,19.9264165 L278.056268,19.9794165 L277.426068,20.0364165 L276.758668,20.0974165 L276.051268,20.1634165 L275.305368,20.2334165 L274.525168,20.3074165 L273.708268,20.3854165 L272.855868,20.4674165 L271.972268,20.5524165 L271.055168,20.6414165 L270.105968,20.7344165 L269.128468,20.8304165 L268.120868,20.9294165 L267.084368,21.0324165 L266.022568,21.1374165 L264.933968,21.2454165 L263.819868,21.3574165 L262.683568,21.4714165 L261.523668,21.5874165 L260.341668,21.7064165 L259.140568,21.8294165 L257.919468,21.9554165 L256.679468,22.0854165 L255.415868,22.2164165 L254.152068,22.3484165 L252.856968,22.4844165 L251.561768,22.6204165 L250.240168,22.7594165 L248.918568,22.8984165 L247.576768,23.0404165 L246.234868,23.1824165 L244.875068,23.3264165 L243.515168,23.4704165 L242.142268,23.6174165 L240.769468,23.7664165 L239.386268,23.9164165 L238.003768,24.0664165 L236.621368,24.2184165 L235.238168,24.3704165 L233.854268,24.5244165 L232.471268,24.6774165 L231.088468,24.8324165 L229.704968,24.9914165 L228.340268,25.1484165 L226.976568,25.3054165 L225.613168,25.4654165 L224.249768,25.6314165 L222.908968,25.7964165 L221.568268,25.9604165 L220.249868,26.1234165 L218.931468,26.2874165 L217.640168,26.4484165 L216.348968,26.6104165 L215.086068,26.7684165 L213.821268,26.9084165 L212.591668,27.0434165 L211.362168,27.1774165 L210.172968,27.3084165 L208.983768,27.4384165 L207.835068,27.5634165 L206.686368,27.6884165 L205.586468,27.8094165 L204.486568,27.9294165 L203.440468,28.0454165 L202.394568,28.1604165 L201.387368,28.2714165 L200.410368,28.3804165 L199.464668,28.4864165 L198.548368,28.5894165 L197.665368,28.6894165 L196.822468,28.7854165 L195.020968,28.9864165 L193.225068,29.1864165 L191.406968,29.3794165 L189.588068,29.5724165 L187.747968,29.7574165 L185.906568,29.9424165 L184.046768,30.1194165 L182.186868,30.2974165 L180.307668,30.4674165 L178.427768,30.6374165 L176.529668,30.8014165 L174.630668,30.9654165 L172.716068,31.1244165 L170.801268,31.2834165 L168.870268,31.4374165 L166.938768,31.5914165 L164.992168,31.7414165 L163.044768,31.8914165 L161.084668,32.0374165 L159.124268,32.1834165 L157.150568,32.3234165 L155.176268,32.4634165 L153.190168,32.6024165 L151.203368,32.7404165 L150.203868,32.8094165 L149.202868,32.8784165 L148.201968,32.9464165 L147.200968,33.0154165 L146.200068,33.0844165 L145.199068,33.1534165 L144.198168,33.2224165 L143.197168,33.2904165 L142.187368,33.3604165 L141.177568,33.4294165 L140.167668,33.4984165 L139.157868,33.5684165 L138.148068,33.6374165 L137.138268,33.7074165 L136.128368,33.7764165 L135.116468,33.8454165 L134.097968,33.9174165 L133.081568,33.9884165 L132.065168,34.0604165 L131.048668,34.1324165 L130.032368,34.2044165 L129.015968,34.2774165 L127.999668,34.3504165 L126.979768,34.4234165 L125.955768,34.4994165 L124.935368,34.5774165 L123.914868,34.6554165 L122.894468,34.7324165 L121.874068,34.8104165 L120.853668,34.8884165 L119.833268,34.9674165 L118.807568,35.0474165 L117.779168,35.1344165 L116.756368,35.2194165 L115.733468,35.3054165 L114.710668,35.3914165 L113.687868,35.4774165 L112.665168,35.5644165 L111.642468,35.6514165 L110.612368,35.7394165 L109.582068,35.8344165 L108.559068,35.9284165 L107.536068,36.0234165 L106.513068,36.1184165 L105.490068,36.2134165 L104.467168,36.3084165 L103.444168,36.4034165 L102.413268,36.4994165 L101.383868,36.6024165 L100.362468,36.7054165 L99.3409685,36.8084165 L98.3195685,36.9114165 L97.2981685,37.0144165 L96.2767685,37.1174165 L95.2552685,37.2194165 L94.2237685,37.3234165 L93.1958685,37.4374165 L92.1781685,37.5504165 L91.1599685,37.6594165 L90.1418685,37.7674165 L89.1236685,37.8764165 L88.1054685,37.9844165 L87.0873685,38.0934165 L86.0572685,38.2034165 L85.0330685,38.3244165 L84.0207685,38.4444165 L83.0085685,38.5644165 L81.9962685,38.6844165 L80.9839685,38.8044165 L79.9714685,38.9224165 L78.9588685,39.0404165 L77.9373685,39.1584165 L76.9209685,39.2864165 L75.9135685,39.4134165 L74.9063685,39.5424165 L73.8924685,39.6744165 L72.8828685,39.8134165 L71.8805685,39.9514165 L70.8782685,40.0904165 L69.8682685,40.2294165 L68.8655685,40.3914165 L67.8706685,40.5544165 L66.8757685,40.7174165 L65.8738685,40.8814165 L64.8771685,41.0524165 L63.8870685,41.2194165 L62.8960685,41.3814165 L61.8945685,41.5434165 L59.9194685,41.8834165 L57.9409685,42.2194165 L55.9745685,42.5664165 L54.0086685,42.9134165 L52.0551685,43.2734165 L50.1002685,43.6314165 L48.1604685,44.0084165 L46.2195685,44.3824165 L44.2947685,44.7744165 L42.3703685,45.1664165 L40.4617685,45.5774165 L38.5518685,45.9884165 L36.6602385,46.4214165 L34.7677085,46.8524165 L32.8945385,47.3054165 L31.0219185,47.7584165 L29.1670185,48.2294165 L27.3106485,48.7014165 L25.4755885,49.1964165 L23.6399985,49.6924165 L21.8268485,50.2124165 L20.0143585,50.7324165 L18.2231885,51.2764165 L16.4303585,51.8204165 L14.6619685,52.3914165 L12.8930085,52.9624165 L11.1496085,53.5614165 L9.42012849,54.1544165 C8.59039849,54.4394165 8.14885849,55.3434165 8.43393849,56.1734165 C8.71900849,57.0034165 9.62274849,57.4444165 10.4524785,57.1594165 L12.1816285,56.5644165 L13.8968585,55.9744165 L15.6378085,55.4124165 L17.3793385,54.8484165 L19.1454585,54.3114165 L20.9132285,53.7734165 L22.7024385,53.2594165 L24.4909885,52.7444165 L26.3021385,52.2544165 L28.1138285,51.7644165 L29.9469685,51.2974165 L31.7815885,50.8304165 L33.6355585,50.3874165 L35.4889685,49.9454165 L37.3618385,49.5244165 L39.2355685,49.1064165 L41.1275685,48.7094165 L43.0208685,48.3114165 L44.9297685,47.9334165 L46.8382685,47.5544165 L48.7632685,47.1974165 L50.6892685,46.8434165 L52.6303685,46.5084165 L54.5730685,46.1764165 L56.5289685,45.8634165 L58.4843685,45.5514165 L60.4539685,45.2624165 L62.4269685,44.9784165 L63.4115685,44.8454165 L64.4066685,44.7114165 L65.4025685,44.5834165 L66.3918685,44.4584165 L67.3860685,44.3414165 L68.3872685,44.2234165 L69.3884685,44.1054165 L70.3817685,43.9864165 L71.3779685,43.8594165 L72.3816685,43.7314165 L73.3854685,43.6044165 L74.3820685,43.4774165 L75.3830685,43.3574165 L76.3908685,43.2344165 L77.3984685,43.1104165 L78.3970685,42.9864165 L79.4008685,42.8714165 L80.4135685,42.7554165 L81.4263685,42.6394165 L82.4393685,42.5264165 L83.4524685,42.4124165 L84.4654685,42.2984165 L85.4784685,42.1854165 L86.4795685,42.0734165 L87.4866685,41.9724165 L88.5055685,41.8714165 L89.5244685,41.7704165 L90.5434685,41.6694165 L91.5623685,41.5684165 L92.5813685,41.4674165 L93.6007685,41.3704165 L94.6099685,41.2754165 L95.6227685,41.1894165 L96.6457685,41.1034165 L97.6686685,41.0164165 L98.6915685,40.9304165 L99.7145685,40.8434165 L100.737468,40.7574165 L101.760468,40.6714165 L102.775368,40.5854165 L103.791868,40.5074165 L104.816168,40.4294165 L105.840568,40.3504165 L106.864968,40.2724165 L107.889268,40.1934165 L108.913668,40.1154165 L109.937968,40.0364165 L110.954968,39.9574165 L111.971568,39.8864165 L112.995468,39.8144165 L114.019368,39.7424165 L115.043268,39.6694165 L116.067068,39.5964165 L117.090868,39.5224165 L118.114668,39.4494165 L119.132968,39.3764165 L120.148568,39.3084165 L121.169568,39.2384165 L122.190568,39.1684165 L123.211568,39.0984165 L124.232568,39.0274165 L125.253468,38.9574165 L126.274468,38.8864165 L127.291868,38.8144165 L128.304968,38.7464165 L129.321668,38.6784165 L130.338268,38.6094165 L131.354968,38.5404165 L132.371468,38.4714165 L133.388068,38.4014165 L134.404668,38.3324165 L135.419168,38.2624165 L136.427068,38.1954165 L137.436968,38.1284165 L138.446968,38.0614165 L139.456968,37.9944165 L140.466968,37.9264165 L141.476868,37.8594165 L142.486868,37.7924165 L143.496868,37.7254165 L144.497968,37.6594165 L145.499068,37.5924165 L146.500168,37.5264165 L147.501268,37.4594165 L148.502368,37.3934165 L149.503468,37.3264165 L150.504568,37.2604165 L151.507068,37.1934165 L153.495568,37.0594165 L155.484768,36.9254165 L157.462168,36.7904165 L159.440068,36.6544165 L161.405268,36.5194165 L163.370768,36.3854165 L165.323568,36.2484165 L167.277168,36.1114165 L169.215768,35.9704165 L171.155068,35.8294165 L173.078268,35.6834165 L175.001568,35.5374165 L176.909368,35.3864165 L178.818168,35.2354165 L180.708968,35.0774165 L182.600368,34.9194165 L184.472568,34.7534165 L186.344868,34.5884165 L188.198868,34.4154165 L190.054068,34.2424165 L191.888068,34.0604165 L193.722868,33.8774165 L195.535068,33.6824165 L197.341668,33.4884165 L198.192868,33.3944165 L199.073368,33.2974165 L199.987568,33.1964165 L200.931268,33.0924165 L201.906368,32.9864165 L202.911468,32.8764165 L203.956268,32.7634165 L205.000868,32.6504165 L206.099368,32.5324165 L207.197968,32.4134165 L208.345568,32.2904165 L209.493168,32.1674165 L210.681668,32.0424165 L211.870268,31.9174165 L213.099268,31.7894165 L214.328368,31.6604165 L215.593268,31.5324165 L216.860168,31.4204165 L218.155668,31.3074165 L219.451068,31.1944165 L220.773568,31.0804165 L222.095968,30.9634165 L223.440468,30.8454165 L224.784868,30.7274165 L226.151868,30.6074165 L227.518868,30.4814165 L228.885568,30.3524165 L230.251268,30.2234165 L231.635868,30.0934165 L233.020968,29.9604165 L234.405968,29.8264165 L235.790068,29.6914165 L237.173368,29.5584165 L238.557468,29.4234165 L239.941568,29.2884165 L241.324968,29.1524165 L242.698068,29.0184165 L244.071168,28.8834165 L245.430968,28.7484165 L246.790768,28.6134165 L248.132568,28.4814165 L249.474368,28.3484165 L250.795968,28.2184165 L252.117368,28.0894165 L253.412268,27.9624165 L254.707168,27.8354165 L255.970668,27.7124165 L257.234168,27.5884165 L258.473568,27.4684165 L259.694068,27.3504165 L260.894268,27.2314165 L262.075068,27.1154165 L263.233568,27.0004165 L264.368568,26.8884165 L265.481168,26.7794165 L266.568068,26.6734165 L267.628168,26.5704165 L268.662768,26.4694165 L269.668368,26.3724165 L270.643668,26.2784165 L271.590468,26.1874165 L272.504868,26.1004165 L273.385568,26.0174165 L274.234668,25.9374165 L275.047868,25.8614165 L275.824068,25.7894165 L276.565468,25.7204165 L277.267468,25.6564165 L277.929068,25.5974165 L278.552568,25.5414165 L279.132868,25.4904165 L279.669068,25.4444165 L280.163768,25.4034165 L280.611068,25.3664165 L281.009868,25.3354165 L281.362368,25.3084165 L281.660868,25.2874165 L281.902968,25.2724165 L282.086068,25.2624165 L282.186668,25.2594165 L282.242168,25.2594165 L282.009668,25.2504165 L282.010668,25.2504165 L282.012568,25.2504165 L282.015468,25.2514165 L282.019368,25.2514165 L282.024268,25.2514165 L282.030068,25.2524165 L282.036868,25.2534165 L282.013868,25.2504165 L281.947168,25.2444165 L281.857868,25.2314165 L281.735068,25.2104165 L281.560068,25.1694165 L281.299168,25.0844165 L280.891768,24.8904165 L280.264368,24.3924165 L279.895368,23.9044165 L279.896068,23.9054165 L279.896668,23.9064165 L279.897168,23.9074165 L279.897568,23.9084165 L279.897868,23.9084165 L279.898068,23.9084165 L284.704168,21.0504165 L284.697668,21.0394165 L279.891668,23.8984165 L279.891768,23.8984165 L279.891868,23.8984165 L279.891868,23.8984165 L279.892068,23.8984165 L279.892168,23.8994165 L279.892368,23.8994165 L279.892568,23.8994165 L279.892768,23.9004165 L279.893068,23.9004165 L279.893368,23.9004165 L279.893668,23.9014165 L279.893968,23.9024165 L279.894368,23.9024165 L279.894768,23.9034165 L279.725368,23.5694165 L279.517268,22.7634165 L279.555168,21.9344165 L279.777068,21.2674165 L280.055268,20.8074165 L280.314568,20.5064165 L280.532368,20.3094165 L280.709468,20.1764165 L280.852668,20.0844165 L280.969268,20.0184165 L281.065068,19.9694165 L281.144668,19.9324165 L281.211368,19.9034165 L281.267868,19.8804165 L281.316068,19.8624165 L281.357468,19.8474165 L281.374468,19.8414165 L281.371468,19.8424165 L281.368768,19.8434165 L281.366168,19.8444165 L281.363768,19.8454165 L281.361568,19.8454165 L281.359668,19.8464165 L281.357868,19.8474165 L281.356268,19.8474165 L281.354968,19.8484165 L281.353768,19.8484165 L281.352768,19.8484165 L281.351968,19.8494165 L281.351368,19.8494165 L281.350968,19.8494165 L281.350768,19.8494165 L281.646668,19.7664165 L281.609768,19.7754165 L281.520368,19.7914165 L281.335668,19.8204165 L281.081468,19.8584165 L280.757868,19.9044165 L280.365368,19.9574165 L279.911168,20.0174165 L279.389468,20.0844165 L278.799068,20.1594165 L278.145668,20.2404165 L277.422468,20.3294165 L276.626568,20.4254165 C275.091068,20.6134165 273.998268,22.0094165 274.185768,23.5454165 C274.373268,25.0804165 275.770068,26.1734165 277.305568,25.9864165 Z" id="Fill-258"></path>
        </g>
    </g>
</svg>
