<?xml version="1.0" encoding="UTF-8"?>
<svg width="238px" height="118px" viewBox="0 0 238 118" version="1.1" xmlns="http://www.w3.org/2000/svg" xmlns:xlink="http://www.w3.org/1999/xlink">
    <title>195</title>
    <g id="Page-1" stroke="none" stroke-width="1" fill="none" fill-rule="evenodd">
        <g id="195" transform="translate(0.379198, 0.066836)" fill="currentColor">
            <path d="M235.345213,112.233164 L234.187813,111.525164 L233.030513,110.817164 L231.873113,110.109164 L230.706213,109.395164 L229.534913,108.691164 L228.373313,107.993164 L227.211613,107.295164 L226.040713,106.591164 L224.865513,105.898164 L223.699713,105.209164 L222.534013,104.521164 L221.359913,103.828164 L220.182213,103.144164 L219.012713,102.464164 L217.843213,101.785164 L216.665013,101.100164 L215.482813,100.425164 L214.309413,99.7551642 L213.136013,99.0841642 L211.952513,98.4121642 L210.765113,97.7491642 L209.586113,97.0911642 L208.407213,96.4321642 L207.220813,95.7701642 L206.031113,95.1151642 L204.848913,94.4651642 L203.666713,93.8151642 L202.476613,93.1601642 L201.282913,92.5131642 L200.097213,91.8711642 L198.910913,91.2301642 L197.716313,90.5861642 L196.518313,89.9501642 L195.327913,89.3191642 L194.136913,88.6881642 L192.938913,88.0551642 L191.737913,87.4281642 L190.543613,86.8051642 L189.347513,86.1861642 L188.144013,85.5641642 L186.937413,84.9491642 L185.737613,84.3381642 L184.533613,83.7341642 L183.322813,83.1291642 L182.109213,82.5301642 L180.901813,81.9351642 L179.693513,81.3421642 L178.479813,80.7461642 L177.263713,80.1561642 L176.055213,79.5641642 L174.855213,78.9561642 L173.649713,78.3451642 L172.441413,77.7401642 L171.239013,77.1381642 L170.037113,76.5341642 L168.830213,75.9271642 L167.620513,75.3271642 L166.416113,74.7291642 L165.211713,74.1311642 L164.002813,73.5311642 L162.791613,72.9361642 L161.584413,72.3451642 L160.377013,71.7531642 L159.165013,71.1601642 L157.950613,70.5721642 L156.740013,69.9881642 L155.529213,69.4041642 L154.314213,68.8181642 L153.096913,68.2371642 L151.883913,67.6581642 L150.670913,67.0791642 L149.452513,66.4981642 L148.231413,65.9231642 L147.015613,65.3501642 L145.799813,64.7781642 L144.584013,64.2061642 L143.368313,63.6331642 L142.152513,63.0611642 L140.936713,62.4881642 L139.714013,61.9131642 L138.487513,61.3451642 L137.268013,60.7811642 L136.048513,60.2171642 L134.829113,59.6531642 L133.609713,59.0881642 L132.390413,58.5241642 L131.171213,57.9591642 L129.946213,57.3921642 L128.718913,56.8301642 L127.497713,56.2691642 L126.276513,55.7091642 L125.055313,55.1481642 L123.834213,54.5881642 L122.613013,54.0281642 L121.391813,53.4671642 L120.166313,52.9051642 L118.938413,52.3481642 L117.714713,51.7931642 L116.491113,51.2371642 L115.267513,50.6821642 L114.043913,50.1271642 L112.820213,49.5721642 L111.596613,49.0161642 L110.369313,48.4591642 L109.139913,47.9071642 L107.914113,47.3561642 L106.688413,46.8051642 L105.462413,46.2541642 L104.236013,45.7051642 L103.009713,45.1551642 L101.783313,44.6061642 L100.553713,44.0571642 L99.3221134,43.5111642 L98.0930134,42.9671642 L96.8640134,42.4231642 L95.6339134,41.8811642 L94.4036134,41.3401642 L93.1733134,40.7991642 L91.9429134,40.2571642 L90.7103134,39.7171642 L89.4767134,39.1791642 L88.2445134,38.6411642 L87.0122134,38.1041642 L85.7796134,37.5671642 L84.5470134,37.0301642 L83.3144134,36.4941642 L82.0818134,35.9571642 L80.8486134,35.4201642 L79.6147134,34.8831642 L78.3814134,34.3471642 L77.1482134,33.8111642 L75.9150134,33.2751642 L74.6818134,32.7391642 L73.4486134,32.2021642 L72.2168134,31.6631642 L70.9866134,31.1211642 L69.7562134,30.5791642 L68.5255134,30.0361642 L67.2949134,29.4931642 L66.0645134,28.9491642 L64.8340134,28.4061642 L63.6035134,27.8631642 L62.3742134,27.3171642 L61.1471134,26.7711642 L59.9208134,26.2231642 L58.6922134,25.6741642 L57.4612134,25.1301642 L56.2301134,24.5861642 L54.9991134,24.0431642 L53.7658134,23.5041642 L52.5245134,22.9831642 L51.2832134,22.4621642 L50.0419134,21.9421642 L48.8026134,21.4161642 L47.5667134,20.8841642 L46.3307134,20.3511642 L45.0948134,19.8181642 L43.8606134,19.2821642 L42.6279134,18.7421642 L41.4004134,18.2041642 L40.1754134,17.6571642 L38.9466134,17.1061642 L37.7183134,16.5531642 L36.4901134,16.0011642 L35.2618134,15.4481642 L34.0348134,14.8931642 L32.8081134,14.3371642 L31.5814134,13.7811642 L30.3547134,13.2251642 L29.1280134,12.6691642 L27.9013134,12.1131642 L26.6745134,11.5571642 L25.4479134,11.0001642 L24.2219134,10.4431642 L22.9958634,9.88516424 L21.7778534,9.33216424 L20.5651234,8.76316424 L19.3451134,8.18916424 L18.1250934,7.61516424 L16.9050734,7.04016424 L15.6850634,6.46616424 L14.4650434,5.89216424 L13.2450334,5.31816424 L12.0250134,4.74416424 L10.8050034,4.17016424 L9.58498338,3.59616424 L8.36497338,3.02216424 L7.14495338,2.44816424 L5.92493338,1.87416424 L4.70492338,1.30016424 L3.48490338,0.725164236 L2.26488338,0.151164236 C1.47093338,-0.221835764 0.524673381,0.119164236 0.151363381,0.913164236 C-0.221956619,1.70716424 0.119043381,2.65316424 0.912993381,3.02716424 L2.13335338,3.60016424 L3.35372338,4.17316424 L4.57408338,4.74716424 L5.79445338,5.32016424 L7.01481338,5.89316424 L8.23517338,6.46716424 L9.45553338,7.04016424 L10.6759034,7.61316424 L11.8962634,8.18716424 L13.1166334,8.76016424 L14.3369934,9.33316424 L15.5573534,9.90716424 L16.7777234,10.4801642 L17.9980834,11.0541642 L19.2184434,11.6271642 L20.4460934,12.2061642 L21.6783834,12.7711642 L22.9026434,13.3321642 L24.1269034,13.8931642 L25.3506134,14.4561642 L26.5742134,15.0191642 L27.7978134,15.5821642 L29.0214134,16.1451642 L30.2449134,16.7081642 L31.4685134,17.2701642 L32.6921134,17.8331642 L33.9155134,18.3971642 L35.1375134,18.9631642 L36.3595134,19.5291642 L37.5815134,20.0961642 L38.8030134,20.6631642 L40.0284134,21.2351642 L41.2566134,21.7991642 L42.4797134,22.3601642 L43.7013134,22.9251642 L44.9210134,23.4941642 L46.1408134,24.0631642 L47.3606134,24.6321642 L48.5771134,25.2081642 L49.7915134,25.7881642 L51.0060134,26.3691642 L52.2204134,26.9501642 L53.4429134,27.5121642 L54.6676134,28.0701642 L55.8924134,28.6281642 L57.1171134,29.1861642 L58.3442134,29.7381642 L59.5736134,30.2911642 L60.8038134,30.8411642 L62.0317134,31.3901642 L63.2584134,31.9411642 L64.4852134,32.4931642 L65.7119134,33.0451642 L66.9386134,33.5971642 L68.1650134,34.1491642 L69.3919134,34.7021642 L70.6186134,35.2541642 L71.8439134,35.8071642 L73.0677134,36.3651642 L74.2915134,36.9221642 L75.5153134,37.4801642 L76.7391134,38.0371642 L77.9628134,38.5951642 L79.1859134,39.1521642 L80.4084134,39.7101642 L81.6315134,40.2681642 L82.8545134,40.8261642 L84.0776134,41.3841642 L85.3006134,41.9421642 L86.5241134,42.5001642 L87.7475134,43.0571642 L88.9696134,43.6141642 L90.1906134,44.1721642 L91.4138134,44.7291642 L92.6370134,45.2861642 L93.8603134,45.8431642 L95.0838134,46.4001642 L96.3083134,46.9541642 L97.5329134,47.5081642 L98.7548134,48.0611642 L99.9755134,48.6161642 L101.199413,49.1711642 L102.423313,49.7261642 L103.647313,50.2811642 L104.871513,50.8361642 L106.096113,51.3891642 L107.320713,51.9431642 L108.541513,52.4941642 L109.760013,53.0511642 L110.982313,53.6091642 L112.204613,54.1671642 L113.426813,54.7251642 L114.649113,55.2841642 L115.871313,55.8421642 L117.093613,56.4001642 L118.311513,56.9561642 L119.527013,57.5181642 L120.746813,58.0811642 L121.966613,58.6451642 L123.186413,59.2081642 L124.406213,59.7711642 L125.626013,60.3351642 L126.845813,60.8981642 L128.059513,61.4601642 L129.269113,62.0301642 L130.484513,62.6031642 L131.699813,63.1761642 L132.915113,63.7491642 L134.130313,64.3221642 L135.345413,64.8961642 L136.560513,65.4691642 L137.768713,66.0391642 L138.973113,66.6181642 L140.184413,67.2001642 L141.395813,67.7811642 L142.607213,68.3631642 L143.818513,68.9451642 L145.029913,69.5261642 L146.241313,70.1081642 L147.447213,70.6871642 L148.650313,71.2731642 L149.858813,71.8611642 L151.067313,72.4491642 L152.271513,73.0351642 L153.473413,73.6261642 L154.679713,74.2191642 L155.886113,74.8111642 L157.088713,75.4001642 L158.288913,75.9941642 L159.493713,76.5911642 L160.698813,77.1871642 L161.899813,77.7801642 L163.098613,78.3781642 L164.301913,78.9781642 L165.505213,79.5781642 L166.703213,80.1761642 L167.898713,80.7791642 L169.099313,81.3861642 L170.299413,81.9931642 L171.493513,82.5981642 L172.685013,83.2101642 L173.881913,83.8251642 L175.070313,84.4561642 L176.251113,85.0891642 L177.429213,85.7271642 L178.612513,86.3691642 L179.796813,87.0091642 L180.974813,87.6451642 L182.149713,88.2891642 L183.331413,88.9341642 L184.517313,89.5721642 L185.696413,90.2061642 L186.872313,90.8471642 L188.055613,91.4911642 L189.240613,92.1311642 L190.419013,92.7691642 L191.594413,93.4121642 L192.776913,94.0591642 L193.959913,94.7041642 L195.135313,95.3461642 L196.307413,95.9951642 L197.487813,96.6471642 L198.668713,97.2981642 L199.841713,97.9451642 L201.011213,98.5991642 L202.188513,99.2591642 L203.365913,99.9181642 L204.535813,100.573164 L205.702313,101.235164 L206.876413,101.902164 L208.050413,102.569164 L209.215913,103.231164 L210.377713,103.902164 L211.549813,104.574164 L212.721813,105.247164 L213.885013,105.915164 L215.044313,106.591164 L216.212413,107.273164 L217.380513,107.955164 L218.540413,108.632164 L219.696513,109.317164 L220.861013,110.008164 L222.025413,110.698164 L223.180513,111.383164 L224.331413,112.078164 L225.491713,112.778164 L226.652013,113.478164 L227.802613,114.173164 L228.948913,114.877164 L230.104913,115.588164 L231.260913,116.298164 L232.416813,117.008164 C233.735513,117.817164 235.460113,117.404164 236.268713,116.085164 C237.077413,114.766164 236.663913,113.042164 235.345213,112.233164 Z" id="Fill-255"></path>
            <path d="M219.287513,21.2351642 L218.299213,21.5731642 L217.310813,21.9101642 L216.322513,22.2471642 L215.340213,22.5831642 L214.348013,22.9161642 L213.349913,23.2521642 L212.351713,23.5871642 L211.358813,23.9211642 L210.356613,24.2541642 L209.349213,24.5881642 L208.341813,24.9221642 L207.338613,25.2551642 L206.327413,25.5871642 L205.312113,25.9211642 L204.296713,26.2541642 L203.285413,26.5861642 L202.265913,26.9171642 L201.242313,27.2501642 L200.218813,27.5831642 L199.198613,27.9141642 L198.171913,28.2491642 L197.141913,28.5841642 L196.111913,28.9201642 L195.084313,29.2551642 L194.050313,29.5901642 L193.013913,29.9251642 L191.977513,30.2611642 L190.943213,30.5961642 L189.902413,30.9311642 L188.859513,31.2671642 L187.816513,31.6031642 L186.775413,31.9391642 L185.728813,32.2781642 L184.680813,32.6171642 L183.632913,32.9561642 L182.586013,33.2961642 L181.534613,33.6381642 L180.482413,33.9801642 L179.430213,34.3221642 L178.379313,34.6671642 L177.324113,35.0151642 L176.268613,35.3631642 L175.213013,35.7111642 L174.159913,36.0681642 L173.103013,36.4281642 L172.046213,36.7871642 L170.989613,37.1471642 L169.932413,37.5091642 L168.870413,37.8731642 L167.809613,38.2381642 L166.746613,38.5951642 L165.678513,38.9371642 L164.610413,39.2781642 L163.542313,39.6201642 L162.473913,39.9601642 L161.402013,40.3001642 L160.324713,40.6451642 L159.250713,40.9901642 L158.176613,41.3341642 L157.102513,41.6781642 L156.028513,42.0221642 L154.954413,42.3671642 L153.880813,42.7121642 L152.802013,43.0601642 L151.720413,43.4141642 L150.644113,43.7661642 L149.568413,44.1211642 L148.492613,44.4751642 L147.416913,44.8291642 L146.341113,45.1841642 L145.265413,45.5381642 L144.183413,45.8951642 L143.100813,46.2581642 L142.024313,46.6191642 L140.947913,46.9811642 L139.871513,47.3421642 L138.795113,47.7031642 L137.718613,48.0651642 L136.642213,48.4261642 L135.557313,48.7901642 L134.473913,49.1631642 L133.398913,49.5331642 L132.323813,49.9031642 L131.248813,50.2741642 L130.173613,50.6441642 L129.098413,51.0131642 L128.023213,51.3831642 L126.937713,51.7561642 L125.855313,52.1371642 L124.782813,52.5141642 L123.710413,52.8911642 L122.638013,53.2681642 L121.565613,53.6451642 L120.493113,54.0221642 L119.420713,54.3991642 L118.340413,54.7791642 L117.263913,55.1671642 L116.195213,55.5521642 L115.126613,55.9371642 L114.051613,56.3241642 L112.980113,56.7171642 L111.915013,57.1081642 L110.849813,57.4981642 L109.777713,57.8921642 L108.709713,58.2911642 L107.648513,58.6881642 L106.587513,59.0851642 L105.520313,59.4861642 L104.457313,59.8941642 L103.400913,60.2981642 L102.345013,60.7041642 L101.281813,61.1141642 L100.223913,61.5311642 L99.1736134,61.9451642 L98.1241134,62.3611642 L97.0670134,62.7821642 L96.0156134,63.2091642 L94.9723134,63.6341642 L93.9297134,64.0601642 L92.8796134,64.4901642 L91.8352134,64.9261642 L90.7985134,65.3601642 L89.7621134,65.7941642 L88.7171134,66.2321642 L87.6790134,66.6781642 L86.6495134,67.1201642 L85.6199134,67.5621642 L84.5816134,68.0081642 L83.5507134,68.4621642 L82.5286134,68.9131642 L81.5065134,69.3631642 L80.4761134,69.8171642 L79.4531134,70.2791642 L78.4361134,70.7331642 L77.4188134,71.1851642 L76.3920134,71.6421642 L75.3738134,72.1071642 L74.3646134,72.5681642 L73.3555134,73.0291642 L72.3366134,73.4941642 L71.3265134,73.9681642 L70.3251134,74.4351642 L69.3237134,74.9021642 L68.3131134,75.3741642 L67.3122134,75.8561642 L66.3223134,76.3381642 L65.3323134,76.8191642 L64.3320134,77.3061642 L63.3478134,77.8151642 L62.3790134,78.3281642 L61.4103134,78.8421642 L60.4314134,79.3611642 L59.4595134,79.8831642 L58.4960134,80.3951642 L57.5324134,80.9071642 L56.5597134,81.4241642 L55.5945134,81.9461642 L54.6376134,82.4601642 L53.6808134,82.9751642 L52.7138134,83.4961642 L51.7569134,84.0231642 L50.8101134,84.5451642 L49.8632134,85.0681642 L48.9059134,85.5951642 L47.9593134,86.1311642 L47.0231134,86.6611642 L46.0869134,87.1911642 L45.1410134,87.7271642 L44.2068134,88.2731642 L43.2824134,88.8141642 L42.3580134,89.3541642 L41.4226134,89.9011642 L40.4999134,90.4591642 L39.5881134,91.0101642 L38.6764134,91.5611642 L37.7533134,92.1191642 L36.8430134,92.6871642 L35.9441134,93.2481642 L35.0451134,93.8101642 L34.1356134,94.3781642 L33.2393134,94.9571642 L32.3536134,95.5301642 L31.4679134,96.1021642 L30.5702134,96.6831642 L29.6876134,97.2771642 L28.8170134,97.8621642 L27.9465134,98.4481642 L27.0635134,99.0421642 L26.1962134,99.6491642 L25.3414134,100.248164 L24.4865134,100.847164 L23.6316734,101.446164 C22.9132834,101.949164 22.7391934,102.940164 23.2428334,103.658164 C23.7464734,104.377164 24.7371134,104.551164 25.4555134,104.047164 L26.3099134,103.448164 L27.1643134,102.848164 L28.0187134,102.249164 L28.8608134,101.658164 L29.7185134,101.080164 L30.5887134,100.494164 L31.4588134,99.9081642 L32.3170134,99.3291642 L33.1902134,98.7641642 L34.0755134,98.1911642 L34.9608134,97.6171642 L35.8354134,97.0511642 L36.7234134,96.4951642 L37.6219134,95.9331642 L38.5204134,95.3721642 L39.4077134,94.8171642 L40.3101134,94.2761642 L41.2240134,93.7281642 L42.1378134,93.1811642 L43.0408134,92.6401642 L43.9578134,92.1121642 L44.8859134,91.5771642 L45.8140134,91.0431642 L46.7323134,90.5141642 L47.6624134,89.9961642 L48.6022134,89.4731642 L49.5420134,88.9491642 L50.4714134,88.4311642 L51.4149134,87.9281642 L52.3688134,87.4191642 L53.3227134,86.9101642 L54.2666134,86.4071642 L55.2240134,85.9181642 L56.1915134,85.4231642 L57.1590134,84.9291642 L58.1181134,84.4411642 L59.0902134,83.9681642 L60.0715134,83.4901642 L61.0528134,83.0131642 L62.0258134,82.5441642 L63.0131134,82.0941642 L64.0107134,81.6391642 L65.0083134,81.1831642 L65.9903134,80.7221642 L66.9765134,80.2601642 L67.9731134,79.7921642 L68.9697134,79.3241642 L69.9554134,78.8581642 L70.9487134,78.3971642 L71.9513134,77.9331642 L72.9539134,77.4681642 L73.9478134,77.0101642 L74.9510134,76.5621642 L75.9639134,76.1101642 L76.9769134,75.6571642 L77.9808134,75.2101642 L78.9931134,74.7711642 L80.0147134,74.3291642 L81.0368134,73.8871642 L82.0528134,73.4541642 L83.0759134,73.0291642 L84.1072134,72.6001642 L85.1386134,72.1711642 L86.1612134,71.7461642 L87.1910134,71.3291642 L88.2297134,70.9091642 L89.2685134,70.4891642 L90.2986134,70.0721642 L91.3355134,69.6631642 L92.3809134,69.2511642 L93.4260134,68.8381642 L94.4635134,68.4281642 L95.5066134,68.0251642 L96.5573134,67.6191642 L97.6072134,67.2111642 L98.6491134,66.8061642 L99.6966134,66.4091642 L100.751913,66.0071642 L101.806313,65.6041642 L102.853013,65.2031642 L103.904913,64.8101642 L104.963913,64.4121642 L106.022513,64.0131642 L107.074513,63.6161642 L108.130613,63.2261642 L109.192913,62.8321642 L110.255113,62.4381642 L111.310413,62.0461642 L112.369813,61.6601642 L113.436213,61.2731642 L114.502513,60.8851642 L115.562513,60.5001642 L116.625913,60.1201642 L117.695713,59.7391642 L118.765513,59.3571642 L119.827413,58.9781642 L120.893113,58.6071642 L121.966613,58.2341642 L123.040213,57.8601642 L124.113813,57.4861642 L125.187313,57.1121642 L126.260913,56.7381642 L127.334413,56.3641642 L128.397913,55.9951642 L129.466013,55.6371642 L130.544313,55.2771642 L131.622613,54.9161642 L132.700913,54.5561642 L133.779413,54.1961642 L134.857813,53.8351642 L135.936313,53.4751642 L137.006413,53.1181642 L138.077713,52.7691642 L139.157413,52.4181642 L140.237213,52.0671642 L141.316913,51.7161642 L142.396713,51.3641642 L143.476413,51.0131642 L144.556213,50.6621642 L145.629713,50.3131642 L146.702513,49.9701642 L147.781513,49.6261642 L148.860513,49.2821642 L149.939513,48.9371642 L151.018613,48.5931642 L152.097613,48.2491642 L153.176013,47.9031642 L154.249213,47.5581642 L155.319413,47.2191642 L156.394813,46.8791642 L157.469713,46.5381642 L158.544613,46.1961642 L159.619413,45.8541642 L160.694413,45.5131642 L161.769213,45.1711642 L162.841013,44.8301642 L163.907413,44.4951642 L164.977313,44.1591642 L166.047513,43.8241642 L167.117813,43.4901642 L168.188013,43.1551642 L169.263413,42.8371642 L170.340913,42.5251642 L171.417213,42.2141642 L172.488713,41.9051642 L173.560613,41.5941642 L174.632613,41.2831642 L175.704313,40.9721642 L176.771313,40.6611642 L177.835913,40.3421642 L178.900513,40.0221642 L179.965413,39.7031642 L181.025113,39.3831642 L182.083313,39.0601642 L183.141513,38.7371642 L184.200513,38.4141642 L185.254413,38.0901642 L186.307113,37.7661642 L187.359713,37.4421642 L188.413813,37.1171642 L189.461513,36.7911642 L190.507413,36.4641642 L191.553313,36.1381642 L192.601313,35.8111642 L193.642813,35.4841642 L194.682213,35.1581642 L195.721613,34.8321642 L196.763413,34.5051642 L197.798913,34.1771642 L198.831913,33.8511642 L199.864913,33.5251642 L200.901113,33.1971642 L201.928813,32.8661642 L202.953113,32.5361642 L203.977413,32.2061642 L205.005713,31.8751642 L206.025913,31.5421642 L207.042013,31.2111642 L208.058213,30.8811642 L209.078513,30.5481642 L210.090913,30.2151642 L211.099113,29.8831642 L212.107313,29.5511642 L213.120813,29.2181642 L214.125113,28.8831642 L215.124113,28.5491642 L216.123113,28.2161642 L217.128013,27.8811642 L218.123213,27.5441642 L219.112413,27.2091642 L220.101513,26.8741642 L221.090713,26.5391642 C222.555213,26.0411642 223.338913,24.4501642 222.840913,22.9861642 C222.343013,21.5211642 220.752113,20.7371642 219.287513,21.2351642 Z" id="Fill-256"></path>
        </g>
    </g>
</svg>
