<?xml version="1.0" encoding="UTF-8"?>
<svg width="308px" height="112px" viewBox="0 0 308 112" version="1.1" xmlns="http://www.w3.org/2000/svg" xmlns:xlink="http://www.w3.org/1999/xlink">
    <title>196</title>
    <g id="Page-1" stroke="none" stroke-width="1" fill="none" fill-rule="evenodd">
        <g id="196" transform="translate(0.596651, 0.453395)" fill="currentColor">
            <path d="M4.51776005,111.149605 L5.93646005,110.389605 L7.35516005,109.628605 L8.77386005,108.867605 L10.1798601,108.113605 L11.5926601,107.374605 L13.0181601,106.628605 L14.4437601,105.882605 L15.8569601,105.143605 L17.2766601,104.418605 L18.7088601,103.687605 L20.1410601,102.956605 L21.5622601,102.231605 L22.9892601,101.518605 L24.4273601,100.800605 L25.8653601,100.082605 L27.2916601,99.3706053 L28.7240601,98.6716053 L30.1683601,97.9676053 L31.6126601,97.2636053 L33.0442601,96.5626053 L34.4815601,95.8736053 L35.9303601,95.1796053 L37.3791601,94.4856053 L38.8178601,93.7966053 L40.2618601,93.1196053 L41.7159601,92.4366053 L43.1700601,91.7546053 L44.6135601,91.0776053 L46.0625601,90.4126053 L47.5223601,89.7436053 L48.9818601,89.0736053 L50.4301601,88.4056053 L51.8840601,87.7506053 L53.3481601,87.0906053 L54.8119601,86.4296053 L56.2661601,85.7726053 L57.7252601,85.1246053 L59.1933601,84.4736053 L60.6602601,83.8206053 L62.1169601,83.1686053 L63.5787601,82.5286053 L65.0500601,81.8836053 L66.5183601,81.2326053 L67.9768601,80.5836053 L69.4403601,79.9446053 L70.9126601,79.3016053 L72.3841601,78.6576053 L73.8481601,78.0156053 L75.3165601,77.3836053 L76.7927601,76.7496053 L78.2776601,76.1366053 L79.7547601,75.5266053 L81.2363601,74.9266053 L82.7258601,74.3246053 L84.2159601,73.7236053 L85.6986601,73.1256053 L87.1856601,72.5376053 L88.6800601,71.9456053 L90.1743601,71.3546053 L91.6622601,70.7666053 L93.1539601,70.1866053 L94.6516601,69.6026053 L96.1490601,69.0186053 L97.6398601,68.4376053 L99.1344601,67.8646053 L100.63516,67.2886053 L102.13566,66.7106053 L103.62986,66.1366053 L105.12766,65.5696053 L106.63186,65.0016053 L108.13596,64.4326053 L109.63466,63.8666053 L111.13656,63.3066053 L112.64386,62.7456053 L114.15116,62.1846053 L115.65286,61.6256053 L117.15776,61.0736053 L118.66836,60.5206053 L120.17896,59.9666053 L121.68426,59.4156053 L123.19256,58.8716053 L124.70616,58.3246053 L126.21986,57.7786053 L127.72896,57.2346053 L129.24076,56.6966053 L130.75716,56.1566053 L132.27366,55.6176053 L133.78536,55.0796053 L135.30046,54.5506053 L136.82056,54.0206053 L138.34056,53.4906053 L139.85626,52.9616053 L141.37446,52.4396053 L142.89696,51.9156053 L144.41946,51.3916053 L145.93836,50.8686053 L147.45926,50.3516053 L148.98376,49.8326053 L150.50826,49.3136053 L152.02906,48.7966053 L153.55196,48.2836053 L155.07856,47.7706053 L156.60516,47.2576053 L158.12836,46.7446053 L159.65356,46.2376053 L161.18206,45.7296053 L162.71056,45.2216053 L164.23606,44.7126053 L165.76276,44.2086053 L167.29226,43.7026053 L168.82176,43.1966053 L170.34796,42.6906053 L171.87536,42.1876053 L173.40556,41.6836053 L174.93576,41.1796053 L176.46276,40.6736053 L177.99066,40.1706053 L179.52116,39.6676053 L181.05166,39.1636053 L182.57866,38.6596053 L184.10706,38.1596053 L185.63816,37.6576053 L187.16936,37.1566053 L188.70026,36.6546053 L190.23116,36.1526053 L191.76206,35.6506053 L193.29296,35.1486053 L194.82076,34.6466053 L196.34986,34.1506053 L197.88216,33.6536053 L199.41446,33.1566053 L200.94666,32.6596053 L202.47896,32.1626053 L204.01126,31.6656053 L205.54476,31.1726053 L207.07716,30.6816053 L208.60996,30.1946053 L210.14466,29.7066053 L211.67946,29.2196053 L213.21436,28.7316053 L214.74926,28.2446053 L216.28406,27.7576053 L217.81996,27.2736053 L219.35506,26.7896053 L220.88946,26.3076053 L222.42426,25.8236053 L223.95746,25.3356053 L225.49066,24.8466053 L227.02386,24.3576053 L228.55486,23.8616053 L230.08046,23.3496053 L231.60616,22.8366053 L233.13186,22.3246053 L234.65936,21.8176053 L236.18896,21.3176053 L237.71856,20.8166053 L239.24816,20.3166053 L240.77926,19.8216053 L242.31126,19.3286053 L243.84516,18.8356053 L245.37546,18.3396053 L246.90476,17.8476053 L248.43436,17.3556053 L249.96396,16.8646053 L251.49346,16.3726053 L253.02406,15.8846053 L254.55476,15.3966053 L256.08556,14.9086053 L257.61626,14.4216053 L259.14696,13.9336053 L260.67766,13.4456053 L262.20836,12.9576053 L263.73916,12.4696053 L265.27036,11.9836053 L266.80156,11.4976053 L268.33826,11.0096053 L269.86826,10.5116053 L271.39306,10.0176053 L272.91786,9.52360534 L274.44266,9.02960534 L275.96746,8.53560534 L277.49226,8.04160534 L279.01706,7.54760534 L280.54186,7.05260534 L282.06666,6.55860534 L283.59146,6.06460534 L285.11636,5.57060534 L286.64116,5.07660534 L288.16596,4.58260534 L289.69076,4.08860534 L291.21556,3.59460534 L292.74036,3.10060534 C293.57496,2.82960534 294.03206,1.93360534 293.76136,1.09960534 C293.49076,0.264605343 292.59476,-0.192394657 291.76026,0.0776053429 L290.23566,0.572605343 L288.71106,1.06760534 L287.18656,1.56260534 L285.66196,2.05760534 L284.13746,2.55260534 L282.61286,3.04760534 L281.08826,3.54260534 L279.56376,4.03660534 L278.03916,4.53160534 L276.51466,5.02660534 L274.99006,5.52160534 L273.46546,6.01660534 L271.94096,6.51160534 L270.41636,7.00660534 L268.89186,7.50160534 L267.37236,7.99260534 L265.84546,8.47360534 L264.31296,8.95560534 L262.78046,9.43760534 L261.24766,9.91860534 L259.71466,10.3996053 L258.18176,10.8806053 L256.64876,11.3616053 L255.11576,11.8416053 L253.58286,12.3226053 L252.04986,12.8036053 L250.51676,13.2836053 L248.98266,13.7606053 L247.44856,14.2386053 L245.91446,14.7156053 L244.38006,15.1916053 L242.84666,15.6646053 L241.30966,16.1336053 L239.77066,16.6036053 L238.23076,17.0706053 L236.68936,17.5336053 L235.14786,17.9956053 L233.60646,18.4586053 L232.06296,18.9136053 L230.51766,19.3636053 L228.97226,19.8136053 L227.42696,20.2636053 L225.88686,20.7306053 L224.34906,21.2046053 L222.81126,21.6786053 L221.27346,22.1526053 L219.73726,22.6316053 L218.20066,23.1116053 L216.66326,23.5936053 L215.12656,24.0746053 L213.58896,24.5526053 L212.05136,25.0316053 L210.51376,25.5096053 L208.97606,25.9886053 L207.43816,26.4656053 L205.89856,26.9446053 L204.35926,27.4256053 L202.82116,27.9046053 L201.28186,28.3796053 L199.74256,28.8546053 L198.20326,29.3286053 L196.66396,29.8036053 L195.12456,30.2786053 L193.58216,30.7546053 L192.04096,31.2346053 L190.50296,31.7146053 L188.96486,32.1946053 L187.42686,32.6746053 L185.88876,33.1536053 L184.35096,33.6346053 L182.81326,34.1146053 L181.27266,34.5966053 L179.73346,35.0826053 L178.19756,35.5696053 L176.66176,36.0566053 L175.12346,36.5436053 L173.58666,37.0356053 L172.05306,37.5296053 L170.51946,38.0236053 L168.98306,38.5176053 L167.44836,39.0176053 L165.91696,39.5176053 L164.38556,40.0176053 L162.85136,40.5186053 L161.31896,41.0246053 L159.78956,41.5296053 L158.26016,42.0356053 L156.72736,42.5426053 L155.19636,43.0536053 L153.66876,43.5646053 L152.14106,44.0746053 L150.60976,44.5866053 L149.08036,45.1026053 L147.55476,45.6186053 L146.02916,46.1346053 L144.49996,46.6506053 L142.97266,47.1726053 L141.44916,47.6936053 L139.92556,48.2146053 L138.39766,48.7366053 L136.87226,49.2656053 L135.35106,49.7926053 L133.82996,50.3186053 L132.30386,50.8466053 L130.77966,51.3786053 L129.26016,51.9096053 L127.74066,52.4396053 L126.21666,52.9716053 L124.69496,53.5106053 L123.17796,54.0466053 L121.66086,54.5836053 L120.13846,55.1216053 L118.61906,55.6676053 L117.10496,56.2106053 L115.59086,56.7546053 L114.07116,57.3006053 L112.55466,57.8546053 L111.04376,58.4056053 L109.53286,58.9576053 L108.01656,59.5106053 L106.50336,60.0716053 L104.99556,60.6306053 L103.48786,61.1896053 L101.97376,61.7516053 L100.46326,62.3216053 L98.9590601,62.8886053 L97.4551601,63.4576053 L95.9451601,64.0296053 L94.4388601,64.6106053 L92.9393601,65.1896053 L91.4401601,65.7686053 L89.9347601,66.3516053 L88.4330601,66.9426053 L86.9377601,67.5316053 L85.4424601,68.1196053 L83.9398601,68.7116053 L82.4414601,69.3126053 L80.9504601,69.9116053 L79.4587601,70.5076053 L77.9591601,71.1076053 L76.4640601,71.7176053 L74.9765601,72.3236053 L73.4805601,72.9096053 L71.9766601,73.4976053 L70.4768601,74.0956053 L68.9845601,74.6896053 L67.4929601,75.2866053 L65.9926601,75.8866053 L64.4969601,76.4976053 L63.0110601,77.1076053 L61.5281601,77.7246053 L60.0357601,78.3456053 L58.5484601,78.9776053 L57.0712601,79.6076053 L55.5952601,80.2406053 L54.1102601,80.8776053 L52.6299601,81.5256053 L51.1590601,82.1706053 L49.6886601,82.8156053 L48.2079601,83.4656053 L46.7325601,84.1286053 L45.2683601,84.7886053 L43.8044601,85.4486053 L42.3297601,86.1146053 L40.8607601,86.7926053 L39.4024601,87.4656053 L37.9441601,88.1386053 L36.4757601,88.8166053 L35.0126601,89.5066053 L33.5595601,90.1916053 L32.1065601,90.8766053 L30.6420601,91.5666053 L29.1838601,92.2716053 L27.7384601,92.9736053 L26.2929601,93.6756053 L24.8356601,94.3826053 L23.3846601,95.1046053 L21.9454601,95.8196053 L20.5061601,96.5356053 L19.0559601,97.2566053 L17.6115601,97.9916053 L16.1781601,98.7196053 L14.7447601,99.4486053 L13.2989601,100.183605 L11.8598601,100.933605 L10.4330601,101.676605 L9.00626005,102.420605 L7.56676005,103.170605 L6.13416005,103.935605 L4.71416005,104.694605 L3.29426005,105.452605 L1.87426005,106.211605 C0.510460054,106.941605 -0.00333994573,108.638605 0.726660054,110.002605 C1.45656005,111.366605 3.15396005,111.879605 4.51776005,111.149605 Z" id="Fill-253"></path>
            <path d="M2.91466005,35.1216053 L4.51836005,35.0546053 L6.11116005,34.9886053 L7.70286005,34.9356053 L9.29466005,34.8816053 L10.8853601,34.8396053 L12.4770601,34.7986053 L14.0677601,34.7676053 L15.6575601,34.7376053 L17.2462601,34.7186053 L18.8351601,34.6996053 L20.4229601,34.6926053 L22.0072601,34.6856053 L23.5900601,34.6936053 L25.1864601,34.7016053 L26.7828601,34.7106053 L28.3598601,34.7186053 L29.9345601,34.7486053 L31.5288601,34.7796053 L33.1230601,34.8106053 L34.6986601,34.8376053 L36.2722601,34.8856053 L37.8645601,34.9336053 L39.4568601,34.9826053 L41.0327601,35.0306053 L42.6069601,35.0976053 L44.1974601,35.1646053 L45.7879601,35.2316053 L47.3611601,35.2986053 L48.9325601,35.3856053 L50.5211601,35.4726053 L52.1097601,35.5596053 L53.6821601,35.6436053 L55.2526601,35.7466053 L56.8396601,35.8506053 L58.4267601,35.9536053 L59.9997601,36.0536053 L61.5711601,36.1716053 L63.1567601,36.2906053 L64.7425601,36.4066053 L66.3138601,36.5186053 L67.8835601,36.6486053 L69.4679601,36.7806053 L71.0530601,36.9056053 L72.6248601,37.0256053 L74.1951601,37.1626053 L75.7791601,37.3016053 L77.3633601,37.4376053 L78.9361601,37.5736053 L80.5078601,37.7236053 L82.0908601,37.8746053 L83.6712601,38.0496053 L85.2399601,38.2226053 L86.8072601,38.4116053 L88.3861601,38.6026053 L89.9647601,38.7946053 L91.5324601,38.9866053 L93.0986601,39.1916053 L94.6759601,39.3996053 L96.2531601,39.6066053 L97.8208601,39.8126053 L99.3874601,40.0316053 L100.96356,40.2506053 L102.53986,40.4696053 L104.10616,40.6866053 L105.67136,40.9166053 L107.24656,41.1476053 L108.82186,41.3776053 L110.38796,41.6056053 L111.95296,41.8466053 L113.52716,42.0886053 L115.10126,42.3306053 L116.66766,42.5716053 L118.23306,42.8236053 L119.80626,43.0766053 L121.37946,43.3296053 L122.94466,43.5806053 L124.50886,43.8436053 L126.08096,44.1076053 L127.65316,44.3716053 L129.21796,44.6346053 L130.78196,44.9076053 L132.35316,45.1816053 L133.92426,45.4566053 L135.48946,45.7296053 L137.05376,46.0116053 L138.62406,46.2956053 L140.19436,46.5786053 L141.75856,46.8616053 L143.32166,47.1546053 L144.89056,47.4496053 L146.45956,47.7446053 L148.02296,48.0396053 L149.58566,48.3416053 L151.15386,48.6446053 L152.72206,48.9486053 L154.28576,49.2506053 L155.84876,49.5606053 L157.41636,49.8706053 L158.98396,50.1806053 L160.54706,50.4896053 L162.10956,50.8056053 L163.67656,51.1226053 L165.24356,51.4386053 L166.80656,51.7546053 L168.36906,52.0766053 L169.93546,52.3996053 L171.50196,52.7226053 L173.06536,53.0446053 L174.62856,53.3696053 L176.19486,53.6956053 L177.76126,54.0216053 L179.32486,54.3456053 L180.88846,54.6726053 L182.45496,55.0006053 L184.02146,55.3286053 L185.58596,55.6536053 L187.15056,55.9816053 L188.71746,56.3096053 L190.28426,56.6376053 L191.84916,56.9636053 L193.41396,57.2936053 L194.98096,57.6236053 L196.54806,57.9526053 L198.11536,58.2816053 L199.68256,58.6106053 L201.24986,58.9396053 L202.81716,59.2686053 L204.38266,59.5966053 L205.94796,59.9286053 L207.51516,60.2606053 L209.08226,60.5916053 L210.64936,60.9236053 L212.21646,61.2556053 L213.78356,61.5876053 L215.34996,61.9226053 L216.91596,62.2606053 L218.48206,62.5986053 L220.04796,62.9356053 L221.61376,63.2736053 L223.17946,63.6126053 L224.74526,63.9506053 L226.31096,64.2886053 L227.87616,64.6306053 L229.44296,64.9716053 L231.01016,65.3106053 L232.57556,65.6496053 L234.14246,65.9816053 L235.70926,66.3146053 L237.27606,66.6466053 L238.84376,66.9746053 L240.41586,67.2826053 L241.99146,67.5906053 L243.56766,67.8926053 L245.13936,68.1996053 L246.70946,68.5136053 L248.27946,68.8276053 L249.84946,69.1426053 L251.41856,69.4606053 L252.98696,69.7836053 L254.56006,70.1066053 L256.13416,70.4206053 L257.70286,70.7366053 L259.27136,71.0536053 L260.83976,71.3706053 L262.40826,71.6876053 L263.97606,72.0076053 L265.54376,72.3286053 L267.11546,72.6506053 L268.68796,72.9636053 L270.25656,73.2766053 L271.82516,73.5896053 L273.39706,73.9026053 L274.96966,74.2096053 L276.53866,74.5176053 L278.10756,74.8246053 L279.68036,75.1336053 L281.25366,75.4346053 L282.82296,75.7376053 L284.39226,76.0396053 L285.96536,76.3426053 L287.53916,76.6386053 L289.10926,76.9326053 L290.67936,77.2276053 L292.25396,77.5236053 L293.82956,77.8106053 L295.40066,78.0956053 L296.97176,78.3816053 L298.54766,78.6686053 L300.12466,78.9456053 L301.69686,79.2216053 L303.26896,79.4966053 L304.84116,79.7726053 C305.70526,79.9246053 306.52866,79.3466053 306.68006,78.4826053 C306.83146,77.6186053 306.25376,76.7946053 305.38956,76.6436053 L303.81726,76.3686053 L302.24496,76.0936053 L300.67266,75.8186053 L299.10526,75.5436053 L297.53876,75.2596053 L295.96756,74.9746053 L294.39626,74.6896053 L292.82946,74.4056053 L291.26366,74.1126053 L289.69336,73.8186053 L288.12306,73.5246053 L286.55646,73.2306053 L284.99066,72.9296053 L283.42126,72.6286053 L281.85176,72.3266053 L280.28626,72.0246053 L278.72186,71.7136053 L277.15366,71.4016053 L275.58556,71.0896053 L274.02106,70.7776053 L272.45726,70.4576053 L270.89016,70.1376053 L269.32306,69.8176053 L267.75996,69.4986053 L266.19776,69.1706053 L264.63156,68.8426053 L263.06546,68.5136053 L261.50006,68.1826053 L259.93466,67.8506053 L258.36926,67.5186053 L256.80406,67.1856053 L255.24426,66.8506053 L253.68566,66.5056053 L252.12216,66.1606053 L250.55956,65.8116053 L248.99776,65.4586053 L247.43606,65.1056053 L245.87426,64.7516053 L244.31426,64.3906053 L242.75866,64.0256053 L241.20386,63.6536053 L239.64566,63.2816053 L238.08316,62.9296053 L236.51966,62.5826053 L234.95616,62.2346053 L233.39266,61.8876053 L231.82776,61.5456053 L230.26466,61.2056053 L228.70196,60.8616053 L227.13756,60.5166053 L225.57376,60.1696053 L224.01006,59.8216053 L222.44626,59.4746053 L220.88256,59.1266053 L219.31896,58.7786053 L217.75556,58.4306053 L216.19236,58.0826053 L214.62956,57.7306053 L213.06746,57.3766053 L211.50536,57.0216053 L209.94326,56.6676053 L208.38116,56.3126053 L206.81906,55.9576053 L205.25526,55.6026053 L203.69116,55.2506053 L202.12896,54.8986053 L200.56666,54.5466053 L199.00446,54.1946053 L197.44216,53.8426053 L195.87966,53.4916053 L194.31716,53.1406053 L192.75236,52.7896053 L191.18716,52.4426053 L189.62396,52.0966053 L188.06076,51.7516053 L186.49516,51.4056053 L184.92896,51.0646053 L183.36476,50.7266053 L181.80056,50.3876053 L180.23346,50.0486053 L178.66566,49.7146053 L177.10056,49.3836053 L175.53536,49.0516053 L173.96716,48.7186053 L172.39826,48.3926053 L170.83236,48.0666053 L169.26646,47.7416053 L167.69666,47.4146053 L166.12646,47.0946053 L164.56006,46.7746053 L162.99376,46.4546053 L161.42286,46.1336053 L159.85146,45.8196053 L158.28446,45.5056053 L156.71756,45.1926053 L155.14606,44.8776053 L153.57386,44.5706053 L152.00626,44.2636053 L150.43866,43.9576053 L148.86566,43.6496053 L147.29176,43.3496053 L145.72336,43.0506053 L144.15506,42.7526053 L142.58086,42.4516053 L141.00616,42.1576053 L139.43746,41.8646053 L137.86886,41.5716053 L136.29416,41.2776053 L134.71866,40.9926053 L133.14926,40.7076053 L131.57996,40.4236053 L130.00326,40.1376053 L128.42556,39.8616053 L126.85516,39.5876053 L125.28476,39.3136053 L123.70646,39.0386053 L122.12696,38.7736053 L120.55546,38.5106053 L118.98396,38.2476053 L117.40476,37.9836053 L115.82446,37.7296053 L114.25186,37.4776053 L112.67936,37.2246053 L111.09766,36.9716053 L109.51466,36.7296053 L107.94086,36.4906053 L106.36696,36.2516053 L104.78296,36.0126053 L103.19766,35.7866053 L101.62226,35.5626053 L100.04666,35.3386053 L98.4615601,35.1146053 L96.8752601,34.9036053 L95.2983601,34.6936053 L93.7214601,34.4836053 L92.1335601,34.2726053 L90.5442601,34.0756053 L88.9659601,33.8806053 L87.3877601,33.6836053 L85.7980601,33.4856053 L84.2067601,33.3026053 L82.6272601,33.1206053 L81.0502601,32.9156053 L79.4619601,32.7086053 L77.8718601,32.5176053 L76.2932601,32.3266053 L74.7143601,32.1386053 L73.1218601,31.9496053 L71.5273601,31.7766053 L69.9463601,31.6086053 L68.3646601,31.4476053 L66.7681601,31.2846053 L65.1698601,31.1396053 L63.5860601,30.9986053 L62.0020601,30.8606053 L60.4038601,30.7206053 L58.8038601,30.5986053 L57.2180601,30.4776053 L55.6321601,30.3586053 L54.0297601,30.2376053 L52.4254601,30.1366053 L50.8375601,30.0386053 L49.2494601,29.9406053 L47.6441601,29.8426053 L46.0368601,29.7646053 L44.4467601,29.6866053 L42.8567601,29.6096053 L41.2503601,29.5316053 L39.6420601,29.4726053 L38.0500601,29.4136053 L36.4580601,29.3556053 L34.8473601,29.2966053 L33.2345601,29.2596053 L31.6403601,29.2266053 L30.0461601,29.1926053 L28.4324601,29.1596053 L26.8166601,29.1486053 L25.2202601,29.1376053 L23.6238601,29.1266053 L22.0138601,29.1156053 L20.4022601,29.1196053 L18.7941601,29.1246053 L17.1848601,29.1406053 L15.5754601,29.1576053 L13.9648601,29.1856053 L12.3549601,29.2136053 L10.7441601,29.2536053 L9.13216005,29.2926053 L7.51886005,29.3446053 L5.90556005,29.3966053 L4.29096005,29.4606053 L2.68716005,29.5246053 C1.14156005,29.5876053 -0.0605399457,30.8906053 0,32.4366053 C0.0651600543,33.9826053 1.36906005,35.1846053 2.91466005,35.1216053 Z" id="Fill-254"></path>
        </g>
    </g>
</svg>
