<?xml version="1.0" encoding="UTF-8"?>
<svg width="107px" height="125px" viewBox="0 0 107 125" version="1.1" xmlns="http://www.w3.org/2000/svg" xmlns:xlink="http://www.w3.org/1999/xlink">
    <title>204</title>
    <g id="Page-1" stroke="none" stroke-width="1" fill="none" fill-rule="evenodd">
        <g id="204" transform="translate(0.331611, 0.117884)" fill="currentColor">
            <path d="M22.387,1.74711637 L22.01,2.68011637 L21.627,3.63011637 L21.256,4.58611637 L20.885,5.54211637 L20.526,6.50211637 L20.168,7.46111637 L19.821,8.42411637 L19.474,9.38911637 L19.138,10.3581164 L18.805,11.3281164 L18.488,12.3041164 L18.172,13.2781164 L17.866,14.2561164 L17.56,15.2351164 L17.265,16.2181164 L16.973,17.2011164 L16.694,18.1901164 L16.419,19.1771164 L16.155,20.1681164 L15.897,21.1621164 L15.653,22.1601164 L15.423,23.1621164 L15.209,24.1681164 L14.998,25.1781164 L14.8,26.1931164 L14.565,27.1801164 L14.326,28.1671164 L14.077,29.1751164 L13.848,30.1891164 L13.623,31.1811164 L13.399,32.1731164 L13.173,33.1861164 L12.966,34.2051164 L12.767,35.2041164 L12.568,36.2031164 L12.365,37.2201164 L12.178,38.2401164 L11.994,39.2441164 L11.811,40.2471164 L11.623,41.2681164 L11.453,42.2931164 L11.285,43.3001164 L11.117,44.3071164 L10.946,45.3311164 L10.785,46.3581164 L10.626,47.3671164 L10.467,48.3761164 L10.305,49.4001164 L10.157,50.4261164 L10.01,51.4381164 L9.864,52.4501164 L9.716,53.4761164 L9.58,54.5051164 L9.448,55.5191164 L9.318,56.5331164 L9.187,57.5611164 L9.073,58.5911164 L8.963,59.6081164 L8.857,60.6251164 L8.751,61.6531164 L8.659,62.6831164 L8.568,63.7011164 L8.479,64.7191164 L8.388,65.7481164 L8.308,66.7771164 L8.229,67.7961164 L8.15,68.8141164 L8.058,69.8411164 L7.975,70.8661164 L7.892,71.8821164 L7.808,72.8991164 L7.718,73.9221164 L7.637,74.9441164 L7.568,75.9601164 L7.512,76.9761164 L7.492,78.0031164 L7.472,79.0271164 L7.435,80.0421164 L7.391,81.0571164 L7.338,82.0771164 L7.287,83.0941164 L7.233,84.1051164 L7.174,85.1151164 L7.112,86.1301164 L7.056,87.1421164 L6.999,88.1491164 L6.941,89.1571164 L6.881,90.1681164 L6.823,91.1751164 L6.764,92.1781164 L6.705,93.1811164 L6.645,94.1881164 L6.536,96.1871164 L6.426,98.1841164 C6.379,99.0601164 7.051,99.8081164 7.927,99.8561164 C8.803,99.9031164 9.551,99.2311164 9.599,98.3551164 L9.705,96.3581164 L9.811,94.3641164 L9.868,93.3651164 L9.926,92.3621164 L9.983,91.3591164 L10.042,90.3601164 L10.11,89.3571164 L10.179,88.3501164 L10.25,87.3441164 L10.321,86.3421164 L10.397,85.3371164 L10.477,84.3281164 L10.562,83.3191164 L10.65,82.3161164 L10.749,81.3111164 L10.858,80.3011164 L10.974,79.2911164 L11.107,78.2901164 L11.256,77.2881164 L11.369,76.2761164 L11.469,75.2631164 L11.558,74.2571164 L11.652,73.2491164 L11.753,72.2351164 L11.855,71.2201164 L11.958,70.2151164 L12.071,69.2091164 L12.197,68.1961164 L12.322,67.1821164 L12.447,66.1791164 L12.582,65.1761164 L12.719,64.1631164 L12.855,63.1501164 L12.988,62.1471164 L13.13,61.1461164 L13.271,60.1331164 L13.409,59.1191164 L13.542,58.1191164 L13.684,57.1201164 L13.826,56.1071164 L13.965,55.0941164 L14.102,54.0951164 L14.253,53.0991164 L14.406,52.0881164 L14.558,51.0771164 L14.709,50.0801164 L14.873,49.0861164 L15.039,48.0781164 L15.204,47.0701164 L15.369,46.0781164 L15.553,45.0911164 L15.74,44.0881164 L15.928,43.0841164 L16.112,42.0991164 L16.313,41.1181164 L16.517,40.1191164 L16.721,39.1201164 L16.921,38.1391164 L17.137,37.1621164 L17.356,36.1671164 L17.575,35.1731164 L17.787,34.1991164 L18.015,33.2301164 L18.245,32.2401164 L18.474,31.2491164 L18.699,30.2811164 L18.942,29.3191164 L19.194,28.3361164 L19.451,27.3541164 L19.746,26.3991164 L20.052,25.4481164 L20.356,24.4941164 L20.666,23.5421164 L20.96,22.5871164 L21.261,21.6351164 L21.556,20.6811164 L21.858,19.7301164 L22.158,18.7801164 L22.466,17.8331164 L22.77,16.8861164 L23.085,15.9441164 L23.401,15.0001164 L23.726,14.0611164 L24.051,13.1231164 L24.383,12.1891164 L24.712,11.2541164 L25.052,10.3241164 L25.393,9.39211637 L25.745,8.46611637 L26.095,7.54111637 L26.458,6.62111637 L26.82,5.70211637 L27.195,4.78811637 L27.576,3.85611637 C28.159,2.42311637 27.47,0.789116373 26.037,0.207116373 C24.604,-0.375883627 22.97,0.314116373 22.387,1.74711637 Z" id="Fill-19"></path>
            <path d="M64.163,31.3691164 L63.263,32.6881164 L62.38,34.0911164 L61.544,35.5281164 L60.748,36.9981164 L59.993,38.5051164 L59.29,40.0451164 L58.627,41.6151164 L58.001,43.2151164 L57.421,44.8431164 L56.883,46.4961164 L56.396,48.1791164 L55.979,49.8921164 L55.607,51.6251164 L55.185,53.3571164 L54.775,55.1001164 L54.389,56.8581164 L54.038,58.6351164 L53.72,60.4261164 L53.425,62.2281164 L53.153,64.0411164 L52.904,65.8631164 L52.673,67.6911164 L52.453,69.5251164 L52.247,71.3671164 L52.066,73.2041164 L51.885,75.0441164 L51.735,76.8891164 L51.593,78.7311164 L51.491,80.5701164 L51.403,82.4061164 L51.342,84.2341164 L51.283,86.0601164 L51.243,87.8701164 L51.181,89.6761164 L51.126,91.4591164 L51.058,93.2381164 L51.034,94.9931164 L51.096,96.7491164 L51.111,98.4681164 L51.096,100.184116 L51.066,101.857116 L51.025,103.529116 L50.982,105.167116 L50.93,106.778116 L50.868,108.361116 L50.803,109.916116 L50.733,111.439116 L50.657,112.934116 C50.613,113.810116 51.288,114.556116 52.164,114.599116 C53.04,114.643116 53.786,113.968116 53.83,113.092116 L53.903,111.590116 L53.971,110.053116 L54.034,108.486116 L54.093,106.895116 L54.157,105.278116 L54.226,103.637116 L54.296,101.964116 L54.377,100.294116 L54.477,98.5821164 L54.608,96.8731164 L54.798,95.1321164 L54.903,93.3901164 L54.984,91.6201164 L55.078,89.8531164 L55.194,88.0651164 L55.331,86.2801164 L55.487,84.4801164 L55.642,82.6821164 L55.811,80.8751164 L55.966,79.0711164 L56.135,77.2631164 L56.295,75.4581164 L56.487,73.6561164 L56.679,71.8501164 L56.893,70.0621164 L57.13,68.2791164 L57.395,66.5061164 L57.679,64.7451164 L57.984,62.9981164 L58.311,61.2651164 L58.658,59.5471164 L59.02,57.8491164 L59.4,56.1671164 L59.804,54.5051164 L60.252,52.8741164 L60.806,51.2891164 L61.37,49.7281164 L61.924,48.1901164 L62.492,46.6761164 L63.077,45.1891164 L63.685,43.7371164 L64.324,42.3181164 L64.988,40.9311164 L65.675,39.5821164 L66.396,38.2701164 L67.148,36.9961164 L67.931,35.7681164 L68.781,34.5401164 C69.657,33.2651164 69.333,31.5211164 68.058,30.6461164 C66.782,29.7701164 65.039,30.0941164 64.163,31.3691164 Z" id="Fill-20"></path>
            <path d="M91.289,57.6081164 L91.079,58.9461164 L90.869,60.2851164 L90.658,61.6241164 L90.445,62.9831164 L90.255,64.3461164 L90.08,65.6891164 L89.905,67.0331164 L89.73,68.3971164 L89.588,69.7651164 L89.461,71.1141164 L89.364,72.4671164 L89.292,73.8411164 L89.194,75.2101164 L89.048,76.5561164 L88.899,77.9021164 L88.751,79.2661164 L88.634,80.6341164 L88.521,81.9831164 L88.408,83.3321164 L88.294,84.6991164 L88.201,86.0681164 L88.109,87.4191164 L88.005,88.7681164 L87.899,90.1341164 L87.813,91.5011164 L87.729,92.8521164 L87.644,94.2031164 L87.565,95.5721164 L87.519,96.9431164 L87.487,98.2971164 L87.463,99.6511164 L87.44,101.022116 L87.44,102.394116 L87.431,103.748116 L87.405,105.102116 L87.371,106.470116 L87.364,107.840116 L87.425,109.195116 L87.501,110.551116 L87.534,111.920116 L87.568,113.290116 L87.586,114.644116 L87.6,115.999116 L87.608,117.368116 L87.63,118.737116 L87.651,120.092116 L87.671,121.448116 L87.692,122.803116 C87.706,123.681116 88.429,124.380116 89.306,124.366323 C90.184,124.351116 90.883,123.629116 90.869,122.751116 L90.845,121.396116 L90.821,120.041116 L90.797,118.685116 L90.775,117.344116 L90.787,116.003116 L90.803,114.648116 L90.824,113.293116 L90.862,111.953116 L90.945,110.614116 L91.07,109.262116 L91.181,107.910116 L91.225,106.571116 L91.282,105.234116 L91.348,103.881116 L91.431,102.530116 L91.523,101.195116 L91.637,99.8631164 L91.75,98.5141164 L91.856,97.1641164 L91.948,95.8311164 L92.051,94.5001164 L92.148,93.1501164 L92.246,91.8011164 L92.343,90.4671164 L92.459,89.1361164 L92.578,87.7871164 L92.708,86.4401164 L92.838,85.1111164 L92.99,83.7851164 L93.144,82.4401164 L93.298,81.0951164 L93.446,79.7681164 L93.608,78.4431164 L93.768,77.0991164 L93.932,75.7551164 L94.143,74.4341164 L94.419,73.1221164 L94.67,71.7891164 L94.891,70.4521164 L95.096,69.1351164 L95.311,67.8181164 L95.526,66.4811164 L95.74,65.1431164 L95.94,63.8251164 L96.158,62.5091164 L96.378,61.1721164 L96.599,59.8351164 L96.82,58.4981164 C97.065,56.9711164 96.027,55.5331164 94.499,55.2881164 C92.972,55.0421164 91.535,56.0801164 91.289,57.6081164 Z" id="Fill-21"></path>
            <path d="M9.267,15.3531164 L8.784,14.7741164 L8.309,14.2281164 L7.859,13.7311164 L7.425,13.2751164 L7.002,12.8581164 L6.592,12.4831164 L6.18,12.1401164 L5.747,11.8221164 L5.284,11.5381164 L4.749,11.2811164 L4.064,11.0761164 L3.221,11.0101164 L2.235,11.2061164 L1.282,11.7581164 L0.65,12.4671164 L0.293,13.1581164 L0.108,13.7881164 L0.027,14.3331164 L4.54747351e-13,14.8361164 L0.01,15.3321164 L0.048,15.8181164 L0.107,16.3121164 L0.188,16.8261164 L0.289,17.3561164 L0.409,17.9061164 L0.548,18.4831164 L0.704,19.0841164 L0.875,19.7081164 L1.064,20.3611164 L1.269,21.0381164 L1.487,21.7391164 L1.723,22.4671164 L1.978,23.2181164 L2.246,23.9921164 L2.532,24.7891164 L2.834,25.6081164 L3.156,26.4451164 L3.498,27.3031164 L3.867,28.1761164 L4.251,29.0671164 L4.649,29.9761164 L5.016,30.9211164 L5.387,31.8921164 L5.754,32.8651164 L6.142,33.8741164 L6.529,34.8811164 L6.937,35.9181164 L7.349,36.9531164 L7.777,38.0121164 L8.205,39.0711164 L8.647,40.1541164 L9.088,41.2361164 L9.542,42.3401164 L9.996,43.4421164 L10.459,44.5601164 L10.92,45.6791164 L11.382,46.8141164 L11.844,47.9491164 L12.313,49.0941164 L12.782,50.2391164 L13.256,51.3921164 L13.729,52.5431164 L14.203,53.6941164 L14.681,54.8451164 L15.167,55.9941164 L15.659,57.1381164 L16.156,58.2801164 L16.656,59.4221164 L17.152,60.5471164 L17.648,61.6721164 L18.143,62.7971164 L18.638,63.9221164 L19.108,65.0351164 L19.577,66.1481164 L20.034,67.2451164 L20.485,68.3451164 L20.941,69.4161164 L21.427,70.4751164 L21.933,71.4991164 L22.407,72.5361164 L22.856,73.5481164 L23.295,74.5651164 L23.708,75.5531164 L24.117,76.5421164 L24.505,77.5011164 L24.892,78.4591164 L25.624,80.3011164 L26.301,82.0611164 L26.622,82.9071164 L26.93,83.7311164 L27.227,84.5291164 L27.511,85.3031164 L27.781,86.0501164 L28.039,86.7721164 C28.334,87.5981164 29.243,88.0291164 30.069,87.7331164 C30.895,87.4381164 31.326,86.5291164 31.03,85.7021164 L30.769,84.9731164 L30.492,84.2131164 L30.202,83.4271164 L29.9,82.6191164 L29.586,81.7861164 L29.259,80.9281164 L28.578,79.1571164 L27.865,77.2951164 L27.492,76.3231164 L27.118,75.3531164 L26.733,74.3491164 L26.353,73.3431164 L25.967,72.3011164 L25.59,71.2551164 L25.211,70.1771164 L24.862,69.0861164 L24.474,67.9841164 L24.053,66.8961164 L23.608,65.7911164 L23.169,64.6851164 L22.724,63.5601164 L22.281,62.4341164 L21.846,61.2841164 L21.412,60.1331164 L20.978,58.9831164 L20.544,57.8331164 L20.102,56.6681164 L19.657,55.5051164 L19.207,54.3431164 L18.751,53.1861164 L18.291,52.0311164 L17.827,50.8761164 L17.362,49.7221164 L16.898,48.5691164 L16.44,47.4241164 L15.982,46.2791164 L15.529,45.1441164 L15.077,44.0091164 L14.641,42.8861164 L14.206,41.7621164 L13.78,40.6541164 L13.355,39.5471164 L12.941,38.4601164 L12.528,37.3741164 L12.129,36.3131164 L11.729,35.2521164 L11.341,34.2181164 L10.951,33.1861164 L10.574,32.1861164 L10.198,31.1881164 L9.841,30.2251164 L9.487,29.2591164 L9.157,28.3201164 L8.882,27.3851164 L8.614,26.4721164 L8.355,25.5831164 L8.093,24.7231164 L7.837,23.8911164 L7.586,23.0851164 L7.347,22.3081164 L7.118,21.5591164 L6.902,20.8381164 L6.699,20.1491164 L6.511,19.4911164 L6.337,18.8651164 L6.181,18.2741164 L6.042,17.7181164 L5.92,17.1981164 L5.817,16.7211164 L5.732,16.2851164 L5.662,15.8941164 L5.612,15.5581164 L5.579,15.2751164 L5.563,15.0541164 L5.561,14.9191164 L5.564,14.8711164 L5.553,14.9381164 L5.482,15.1731164 L5.285,15.5531164 L4.856,16.0281164 L4.152,16.4351164 L3.464,16.5751164 L2.964,16.5381164 L2.672,16.4531164 L2.58,16.4121164 L2.609,16.4311164 L2.72,16.5151164 L2.906,16.6731164 L3.143,16.8931164 L3.425,17.1741164 L3.751,17.5211164 L4.113,17.9261164 L4.51,18.3891164 L4.957,18.9311164 C5.945,20.1211164 7.711,20.2851164 8.901,19.2971164 C10.091,18.3081164 10.255,16.5431164 9.267,15.3531164 Z" id="Fill-22"></path>
            <path d="M48.374,46.4411164 L48.303,45.8551164 L48.244,45.3361164 L48.196,44.8711164 L48.158,44.4581164 L48.131,44.1041164 L48.114,43.8091164 L48.105,43.5741164 L48.104,43.4171164 L48.106,43.3441164 L48.1,43.3851164 L48.043,43.6311164 L47.794,44.1901164 L46.818,45.1311164 L44.884,45.4101164 L43.857,44.9241164 L43.501,44.5801164 L43.382,44.4201164 L43.371,44.4011164 L43.406,44.4671164 L43.468,44.5991164 L43.553,44.7911164 L43.651,45.0291164 L43.761,45.3091164 L43.883,45.6321164 L44.014,45.9901164 L44.157,46.3811164 L44.309,46.8081164 L44.469,47.2651164 L44.637,47.7521164 L44.812,48.2711164 L44.993,48.8161164 L45.182,49.3891164 L45.379,49.9891164 L45.584,50.6111164 L45.798,51.2591164 L46.02,51.9271164 L46.497,53.3301164 L47.037,54.8041164 L47.606,56.3551164 L48.096,58.0011164 L48.595,59.7141164 L49.116,61.4841164 L49.663,63.2981164 L50.222,65.1581164 L50.793,67.0561164 L51.083,68.0201164 L51.372,68.9841164 L51.659,69.9631164 L51.944,70.9431164 L52.232,71.9321164 L52.521,72.9221164 L52.813,73.9181164 L53.104,74.9141164 L53.396,75.9091164 L53.692,76.9061164 L53.998,77.9011164 L54.308,78.8911164 L54.624,79.8791164 L54.946,80.8711164 L55.27,81.8471164 L55.593,82.8181164 L55.917,83.7891164 L56.24,84.7641164 L56.548,85.7271164 L56.852,86.6901164 L57.445,88.5841164 L58.079,90.4251164 L58.784,92.1991164 L59.414,93.9421164 L60,95.6351164 L60.563,97.2741164 L61.111,98.8431164 L61.635,100.337116 L62.147,101.755116 L62.645,103.084116 L63.125,104.304116 C63.447,105.120116 64.369,105.521116 65.185,105.199116 C66.002,104.877116 66.402,103.955116 66.08,103.138116 L65.607,101.944116 L65.122,100.658116 L64.619,99.2741164 L64.105,97.8081164 L63.59,96.2571164 L63.069,94.6281164 L62.552,92.9321164 L62.064,91.1631164 L61.636,89.3191164 L61.127,87.4561164 L60.567,85.5641164 L60.292,84.6011164 L60.02,83.6361164 L59.762,82.6491164 L59.504,81.6591164 L59.245,80.6681164 L58.988,79.6821164 L58.729,78.6821164 L58.464,77.6791164 L58.194,76.6771164 L57.919,75.6811164 L57.641,74.6851164 L57.358,73.6881164 L57.075,72.6901164 L56.793,71.6941164 L56.515,70.7051164 L56.236,69.7151164 L55.961,68.7341164 L55.687,67.7521164 L55.424,66.7821164 L55.162,65.8101164 L54.647,63.8961164 L54.141,62.0201164 L53.646,60.1881164 L53.151,58.4071164 L52.663,56.6841164 L52.196,55.0231164 L51.841,53.3991164 L51.493,51.8521164 L51.121,50.4041164 L50.933,49.7081164 L50.747,49.0381164 L50.564,48.3931164 L50.383,47.7711164 L50.206,47.1741164 L50.033,46.6031164 L49.865,46.0561164 L49.703,45.5351164 L49.545,45.0421164 L49.393,44.5741164 L49.245,44.1331164 L49.098,43.7221164 L48.956,43.3351164 L48.816,42.9721164 L48.68,42.6361164 L48.543,42.3181164 L48.4,42.0111164 L48.246,41.7131164 L48.06,41.3981164 L47.783,41.0181164 L47.285,40.5341164 L46.133,39.9811164 L44.091,40.2731164 L43.024,41.3121164 L42.701,42.0461164 L42.589,42.5531164 L42.546,42.9441164 L42.529,43.3031164 L42.528,43.6701164 L42.538,44.0521164 L42.559,44.4601164 L42.59,44.9071164 L42.631,45.3921164 L42.681,45.9171164 L42.742,46.4881164 L42.811,47.0971164 C42.992,48.6331164 44.385,49.7321164 45.921,49.5511164 C47.457,49.3691164 48.555,47.9771164 48.374,46.4411164 Z" id="Fill-23"></path>
            <path d="M77.225,68.7751164 L77.579,69.9651164 L77.946,71.1981164 L78.352,72.4151164 L78.757,73.6271164 L79.2,74.8231164 L79.651,76.0081164 L80.131,77.1791164 L80.614,78.3481164 L81.135,79.5001164 L81.668,80.6421164 L82.252,81.7601164 L82.857,82.8601164 L83.44,83.9691164 L83.977,85.0971164 L84.529,86.2181164 L85.084,87.3351164 L85.661,88.4401164 L86.238,89.5411164 L86.827,90.6361164 L87.414,91.7291164 L88.01,92.8191164 L88.603,93.9061164 L89.192,94.9951164 L89.777,96.0801164 L90.36,97.1651164 L90.944,98.2511164 L91.528,99.3381164 L92.118,100.421116 L92.718,101.499116 L93.328,102.571116 L93.946,103.640116 L94.549,104.675116 L95.114,105.730116 L95.686,106.822116 L96.243,107.921116 L96.793,109.023116 L97.349,110.122116 L97.967,111.191116 L98.596,112.255116 L99.158,113.273116 L99.609,114.346116 L100.072,115.490116 L100.531,116.635116 L100.984,117.782116 L101.429,118.932116 L101.872,120.083116 L102.315,121.235116 L102.758,122.386116 C103.075,123.204116 103.994,123.611116 104.813,123.295116 C105.631,122.979116 106.038,122.059116 105.722,121.240116 L105.276,120.090116 L104.83,118.941116 L104.383,117.791116 L103.939,116.640116 L103.503,115.486116 L103.073,114.330116 L102.646,113.172116 L102.208,111.944116 L101.692,110.747116 L101.243,109.596116 L100.782,108.451116 L100.26,107.335116 L99.731,106.222116 L99.21,105.106116 L98.704,103.983116 L98.191,102.823116 L97.637,101.680116 L97.098,100.570116 L96.552,99.4631164 L95.996,98.3631164 L95.429,97.2671164 L94.857,96.1751164 L94.284,95.0821164 L93.711,93.9891164 L93.137,92.8961164 L92.567,91.8081164 L92.013,90.7131164 L91.461,89.6211164 L90.918,88.5241164 L90.377,87.4301164 L89.846,86.3311164 L89.315,85.2381164 L88.791,84.1411164 L88.265,83.0501164 L87.76,81.9501164 L87.302,80.8301164 L86.904,79.6831164 L86.485,78.5551164 L86.064,77.4281164 L85.632,76.3121164 L85.218,75.1881164 L84.8,74.0661164 L84.41,72.9331164 L84.011,71.8101164 L83.643,70.6731164 L83.275,69.5411164 L82.945,68.3921164 L82.601,67.2001164 C82.165,65.7151164 80.609,64.8641164 79.125,65.2991164 C77.64,65.7341164 76.79,67.2901164 77.225,68.7751164 Z" id="Fill-24"></path>
        </g>
    </g>
</svg>
