<?xml version="1.0" encoding="UTF-8"?>
<svg width="117px" height="104px" viewBox="0 0 117 104" version="1.1" xmlns="http://www.w3.org/2000/svg" xmlns:xlink="http://www.w3.org/1999/xlink">
    <title>205</title>
    <g id="Page-1" stroke="none" stroke-width="1" fill="none" fill-rule="evenodd">
        <g id="205" transform="translate(0.603611, 0.821000)" fill="currentColor">
            <path d="M20.162,75.92 L20.2688,76.851 L20.4023,77.799 L20.5578,78.727 L20.7337,79.639 L20.9326,80.537 L21.1527,81.413 L21.3927,82.274 L21.6554,83.12 L21.9383,83.945 L22.2406,84.754 L22.5652,85.549 L22.9089,86.321 L23.2712,87.078 L23.6554,87.819 L24.0574,88.539 L24.477,89.242 L24.9179,89.93 L25.3751,90.596 L25.849,91.244 L26.3431,91.878 L26.8521,92.489 L27.3766,93.082 L27.9202,93.66 L28.5054,94.243 L29.6327,95.276 L30.8531,96.266 L32.1223,97.176 L33.438,98.019 L34.8077,98.792 L36.2159,99.491 L37.6615,100.126 L39.1517,100.694 L40.6719,101.194 L42.2222,101.633 L43.8085,102.01 L45.4183,102.323 L47.0516,102.58 L48.7137,102.778 L50.3934,102.915 L52.0907,102.999 L53.8098,103.027 L55.5404,103.001 L57.2831,102.926 L59.0411,102.798 L60.805,102.618 L62.5754,102.393 L64.3548,102.118 L66.1342,101.794 L67.9147,101.428 L69.6977,101.014 L71.4748,100.554 L73.2472,100.053 L75.0151,99.506 L76.771,98.916 L78.5166,98.287 L80.2519,97.616 L81.9681,96.904 L83.6683,96.155 L85.3515,95.365 L87.0102,94.538 L88.6458,93.675 L90.257,92.771 L91.8371,91.834 L93.3894,90.863 L94.9104,89.855 L96.3899,88.809 L97.8354,87.733 L99.2439,86.623 L100.6078,85.483 L101.9308,84.313 L103.2096,83.111 L104.437,81.881 L105.618,80.625 L106.7492,79.339 L107.8356,78.038 L108.8697,76.712 L109.8464,75.354 L110.7578,73.972 L111.61,72.566 L112.3979,71.13 L113.1126,69.673 L113.7602,68.192 L114.3334,66.683 L114.8251,65.156 L115.2414,63.608 L115.5738,62.034 L115.8163,60.447 L115.9754,58.844 L116.0409,57.219 L116.0085,55.587 L115.8853,53.944 L115.6601,52.286 L115.3394,50.658 L115.1329,49.795 L114.906,48.959 L114.6529,48.126 L114.3747,47.292 L114.0685,46.455 L113.7361,45.62 L113.3788,44.786 L112.9926,43.949 L112.58,43.115 L112.142,42.282 L111.6745,41.447 L111.1802,40.614 L110.6601,39.783 L110.1098,38.951 L109.5323,38.121 L108.9285,37.293 L108.294,36.464 L107.6316,35.639 L106.9424,34.814 L106.2219,33.99 L105.4729,33.168 L104.6965,32.348 L103.8882,31.529 L103.0506,30.712 L102.185,29.897 L101.2868,29.082 L100.3586,28.271 L99.4017,27.461 L98.4115,26.652 L97.3926,25.848 L96.3757,25.066 L95.3597,24.285 L94.3561,23.532 L93.3523,22.779 L92.3607,22.054 L91.37,21.33 L90.3904,20.63 L89.4097,19.93 L88.4411,19.256 L87.4725,18.583 L86.5159,17.936 L85.5604,17.291 L84.6158,16.669 L83.67,16.046 L82.736,15.45 L81.802,14.854 L80.8803,14.283 L79.96,13.712 L79.0505,13.165 L78.1395,12.616 L77.2402,12.094 L76.3357,11.568 L74.5665,10.577 L72.8129,9.628 L71.0807,8.728 L69.3725,7.877 L67.6848,7.07 L66.0177,6.309 L64.3747,5.597 L62.7516,4.928 L61.1487,4.303 L59.5696,3.725 L58.0101,3.188 L56.4702,2.695 L54.954,2.247 L53.4571,1.839 L51.9792,1.473 L50.5249,1.151 L49.0898,0.866 L47.6731,0.624 L46.28,0.423 L44.9059,0.259 L43.5498,0.136 L42.2175,0.053 L40.9041,0.007 L39.6087,0 L38.3372,0.031 L37.0848,0.097 L35.8504,0.201 L34.6404,0.343 L33.4498,0.519 L32.2773,0.731 L31.1295,0.978 L30.0014,1.257 L28.8918,1.572 L27.8075,1.92 L26.7436,2.299 L25.6987,2.712 L24.6791,3.155 L23.6801,3.627 L22.7005,4.131 L21.7463,4.664 L20.8128,5.222 L19.8997,5.812 L19.0119,6.428 L18.145,7.068 L17.2981,7.736 L16.4764,8.428 L15.6752,9.143 L14.8943,9.883 L14.138,10.644 L13.4023,11.427 L12.6869,12.233 L11.9954,13.059 L11.3239,13.903 L10.6726,14.769 L10.0444,15.652 L9.4358,16.552 L8.8472,17.471 L8.281,18.406 L7.7339,19.356 L7.2065,20.325 L6.7008,21.306 L6.2138,22.301 L5.7463,23.312 L5.2997,24.335 L4.8713,25.37 L4.4621,26.419 L4.0702,27.486 L3.711,28.551 L3.3489,29.627 L3.0242,30.724 L2.6999,31.82 L2.41,32.934 L2.1218,34.044 L1.8667,35.17 L1.6118,36.299 L1.393,37.442 L1.175,38.584 L0.9927,39.739 L0.8111,40.89 L0.6617,42.051 L0.5125,43.213 L0.3983,44.384 L0.2847,45.555 L0.2057,46.731 L0.1266,47.903 L0.0776,49.079 L0.0289,50.258 L0.0143,51.437 L0,52.617 L0.0194,53.795 L0.0391,54.971 L0.0914,56.143 L0.1454,57.318 L0.2323,58.487 L0.3197,59.657 L0.4396,60.818 L0.5596,61.976 L0.7089,63.126 L0.8709,64.276 L1.0666,65.413 L1.2626,66.55 L1.4901,67.672 L1.7174,68.791 L1.9729,69.894 L2.2292,71 L2.5101,72.088 L2.7908,73.175 L3.102,74.242 L3.413,75.305 L3.7514,76.347 L4.0911,77.392 L4.4607,78.411 L4.8282,79.431 L5.2242,80.423 L5.6199,81.412 L6.0423,82.374 L6.4666,83.34 L6.9201,84.272 L7.3798,85.215 L8.3392,86.999 L9.3567,88.727 L10.4358,90.381 L11.561,91.933 L12.1613,92.702 L12.7653,93.436 L13.3827,94.146 L14.0139,94.834 L14.6617,95.499 L15.3229,96.138 L15.9978,96.753 L16.6896,97.343 L17.3945,97.905 L18.1131,98.441 L18.8487,98.95 L19.597,99.428 L20.3587,99.879 L21.1374,100.3 L21.9281,100.688 L22.7318,101.046 L23.5522,101.373 L24.3835,101.664 L25.227,101.923 L26.0866,102.148 L26.9558,102.336 L27.8363,102.49 L28.7319,102.608 L29.636,102.686 L30.5502,102.73 L31.4783,102.734 L32.4137,102.698 L33.3581,102.625 L34.3154,102.512 L35.2792,102.359 L36.2513,102.168 L37.235,101.935 L38.2249,101.66 L39.2224,101.346 L40.2308,100.989 L41.2451,100.589 L42.2668,100.149 L43.2986,99.664 L44.3365,99.136 L45.3816,98.566 L46.4365,97.951 L47.4976,97.29 L48.5658,96.587 L49.6437,95.837 L50.7278,95.04 L51.8193,94.2 L52.9199,93.31 L54.0272,92.372 L55.1417,91.39 L56.2652,90.357 L57.3957,89.274 L58.5332,88.145 L59.6796,86.964 L60.8243,85.741 C61.4237,85.1 61.3901,84.095 60.7494,83.495 C60.1086,82.896 59.1034,82.93 58.504,83.57 L57.3793,84.773 L56.2743,85.913 L55.1785,87.002 L54.092,88.043 L53.0173,89.032 L51.9519,89.972 L50.8966,90.866 L49.8535,91.71 L48.8202,92.506 L47.7973,93.258 L46.7875,93.962 L45.7876,94.621 L44.7986,95.237 L43.8234,95.807 L42.8584,96.333 L41.9048,96.819 L40.9656,97.261 L40.0367,97.661 L39.1194,98.023 L38.2171,98.344 L37.3251,98.624 L36.4448,98.869 L35.5799,99.075 L34.7249,99.243 L33.8815,99.377 L33.0533,99.474 L32.2347,99.535 L31.4272,99.564 L30.6349,99.559 L29.8513,99.52 L29.0784,99.451 L28.3199,99.35 L27.5694,99.217 L26.829,99.055 L26.1023,98.863 L25.3832,98.639 L24.6736,98.387 L23.977,98.107 L23.2879,97.797 L22.6079,97.46 L21.9405,97.096 L21.2807,96.702 L20.6299,96.283 L19.9916,95.837 L19.3614,95.363 L18.7405,94.865 L18.1321,94.342 L17.5324,93.791 L16.9425,93.217 L16.3651,92.62 L15.7973,91.996 L15.2399,91.351 L14.6953,90.683 L14.1738,90.005 L13.1288,88.542 L12.1463,87.012 L11.2124,85.398 L10.3217,83.703 L9.9127,82.836 L9.4975,81.958 L9.1102,81.047 L8.7209,80.133 L8.3575,79.191 L7.9943,78.252 L7.6611,77.283 L7.3299,76.313 L7.028,75.317 L6.7247,74.319 L6.4483,73.298 L6.1722,72.281 L5.926,71.241 L5.6799,70.202 L5.4705,69.142 L5.2602,68.08 L5.0778,67.003 L4.8956,65.928 L4.7444,64.839 L4.5928,63.751 L4.4707,62.651 L4.336,61.55 L4.2298,60.44 L4.1236,59.333 L4.0493,58.217 L3.9745,57.102 L3.932,55.982 L3.8879,54.859 L3.8709,53.734 L3.8535,52.611 L3.869,51.487 L3.8841,50.364 L3.9324,49.242 L3.9804,48.118 L4.0599,46.997 L4.1395,45.88 L4.253,44.768 L4.3659,43.657 L4.513,42.554 L4.6599,41.45 L4.8381,40.355 L5.0155,39.263 L5.2278,38.185 L5.4393,37.107 L5.6858,36.045 L5.9323,34.98 L6.2109,33.932 L6.4878,32.888 L6.8029,31.864 L7.1176,30.841 L7.4679,29.841 L7.8214,28.83 L8.1924,27.855 L8.5832,26.886 L8.9921,25.929 L9.4168,24.986 L9.8582,24.06 L10.3179,23.148 L10.7934,22.251 L11.2854,21.372 L11.796,20.509 L12.3223,19.662 L12.8649,18.835 L13.4263,18.025 L14.0036,17.234 L14.5968,16.464 L15.2092,15.712 L15.8374,14.979 L16.4814,14.27 L17.1449,13.581 L17.8241,12.912 L18.5189,12.267 L19.2337,11.643 L19.9646,11.041 L20.7112,10.464 L21.4784,9.91 L22.2622,9.379 L23.0617,8.874 L23.8821,8.393 L24.7196,7.935 L25.5733,7.505 L26.4494,7.1 L27.3432,6.721 L28.2538,6.37 L29.1876,6.046 L30.1398,5.748 L31.1092,5.479 L32.103,5.239 L33.1163,5.026 L34.148,4.845 L35.2048,4.695 L36.2819,4.575 L37.3782,4.486 L38.5004,4.431 L39.6435,4.406 L40.8069,4.416 L41.9966,4.461 L43.2079,4.54 L44.44,4.655 L45.699,4.806 L46.98,4.993 L48.2825,5.218 L49.612,5.483 L50.9637,5.785 L52.3374,6.127 L53.7381,6.512 L55.1612,6.935 L56.6069,7.4 L58.0793,7.91 L59.5744,8.46 L61.0925,9.054 L62.6373,9.695 L64.2047,10.377 L65.7955,11.105 L67.4129,11.882 L69.0531,12.703 L70.7169,13.571 L72.4073,14.489 L74.1258,15.456 L74.9892,15.96 L75.8578,16.466 L76.7389,16.999 L77.6216,17.532 L78.5155,18.088 L79.408,18.645 L80.3125,19.228 L81.2171,19.811 L82.1343,20.421 L83.0527,21.031 L83.9825,21.666 L84.9112,22.3 L85.8525,22.961 L86.7938,23.622 L87.7477,24.311 L88.7027,25 L89.6692,25.715 L90.6347,26.429 L91.613,27.17 L92.5912,27.912 L93.5823,28.682 L94.5722,29.451 L95.5345,30.218 L96.4602,30.982 L97.3546,31.747 L98.2195,32.51 L99.0509,33.272 L99.8519,34.034 L100.6244,34.795 L101.3642,35.553 L102.0747,36.311 L102.7574,37.068 L103.4086,37.821 L104.0315,38.573 L104.6275,39.324 L105.1931,40.071 L105.7314,40.817 L106.2439,41.561 L106.727,42.3 L107.184,43.039 L107.6163,43.775 L108.0204,44.506 L108.3993,45.236 L108.7547,45.963 L109.0832,46.685 L109.3876,47.406 L109.6695,48.124 L109.9259,48.836 L110.1592,49.548 L110.3716,50.256 L110.5601,50.958 L110.7198,51.629 L110.9983,53.057 L111.1812,54.434 L111.2797,55.806 L111.3036,57.167 L111.2477,58.512 L111.1125,59.852 L110.9075,61.183 L110.628,62.498 L110.2732,63.808 L109.8528,65.109 L109.3631,66.393 L108.802,67.67 L108.1793,68.936 L107.4925,70.184 L106.7376,71.42 L105.9255,72.642 L105.0547,73.844 L104.1227,75.031 L103.1387,76.201 L102.0892,77.335 L100.9841,78.449 L99.8334,79.541 L98.6374,80.606 L97.3935,81.649 L96.1109,82.668 L94.7896,83.658 L93.4269,84.62 L92.0308,85.556 L90.6062,86.466 L89.1481,87.347 L87.6626,88.2 L86.1519,89.018 L84.614,89.804 L83.0564,90.561 L81.4805,91.282 L79.8835,91.967 L78.272,92.617 L76.65,93.23 L75.014,93.805 L73.3699,94.344 L71.7218,94.84 L70.0672,95.297 L68.4113,95.717 L66.7588,96.092 L65.1062,96.424 L63.4588,96.715 L61.8223,96.96 L60.193,97.159 L58.5754,97.315 L56.9765,97.424 L55.3918,97.485 L53.8257,97.501 L52.2861,97.468 L50.7676,97.385 L49.2743,97.256 L47.8152,97.08 L46.3836,96.853 L44.9836,96.579 L43.6253,96.254 L42.3007,95.877 L41.0135,95.452 L39.7748,94.978 L38.575,94.449 L37.4174,93.873 L36.3133,93.248 L35.2521,92.566 L34.2364,91.836 L33.2773,91.056 L32.3356,90.189 L31.925,89.777 L31.5021,89.326 L31.0899,88.858 L30.6898,88.377 L30.3057,87.883 L29.9329,87.371 L29.5725,86.845 L29.2283,86.307 L28.8962,85.749 L28.577,85.175 L28.2742,84.589 L27.9845,83.982 L27.7083,83.359 L27.449,82.722 L27.2039,82.063 L26.9732,81.388 L26.7599,80.697 L26.5621,79.984 L26.3797,79.254 L26.2154,78.507 L26.068,77.738 L25.9371,76.95 L25.825,76.146 L25.7279,75.286 C25.5529,73.749 24.1651,72.645 22.6282,72.82 C21.0912,72.995 19.9871,74.383 20.162,75.92 Z" id="Fill-18"></path>
        </g>
    </g>
</svg>
