<?xml version="1.0" encoding="UTF-8"?>
<svg width="106px" height="105px" viewBox="0 0 106 105" version="1.1" xmlns="http://www.w3.org/2000/svg" xmlns:xlink="http://www.w3.org/1999/xlink">
    <title>207</title>
    <g id="Page-1" stroke="none" stroke-width="1" fill="none" fill-rule="evenodd">
        <g id="207" transform="translate(0.214311, 0.539000)" fill="currentColor">
            <path d="M49.7649,68.179 L48.0532,68.922 L46.3944,69.62 L44.7723,70.279 L43.1847,70.903 L41.6364,71.489 L40.124,72.037 L38.6458,72.552 L37.2066,73.03 L35.8027,73.472 L34.4325,73.883 L33.1012,74.257 L31.8045,74.598 L30.5412,74.908 L29.3167,75.183 L28.1263,75.427 L26.9688,75.641 L25.8504,75.824 L24.7651,75.975 L23.7128,76.099 L22.6994,76.193 L21.7186,76.258 L20.7704,76.297 L19.8614,76.309 L18.984,76.294 L18.1388,76.256 L17.3329,76.192 L16.5573,76.104 L15.8132,75.995 L15.1076,75.866 L14.4308,75.714 L13.7841,75.543 L13.175,75.355 L12.5922,75.145 L12.0375,74.92 L11.5182,74.679 L11.0222,74.419 L10.5515,74.145 L10.1127,73.858 L9.6941,73.553 L9.2973,73.233 L8.9286,72.903 L8.5772,72.552 L8.2446,72.187 L7.9366,71.811 L7.6441,71.412 L7.3686,70.999 L7.1151,70.573 L6.8771,70.123 L6.6553,69.657 L6.4542,69.177 L6.2694,68.674 L6.1012,68.153 L5.9532,67.618 L5.8228,67.06 L5.7096,66.485 L5.6165,65.896 L5.5423,65.285 L5.4857,64.659 L5.4493,64.019 L5.4317,63.36 L5.4319,62.686 L5.452,62 L5.4923,61.296 L5.5507,60.579 L5.6287,59.852 L5.7227,59.137 L5.9774,57.589 L6.3036,56.03 L6.7075,54.427 L7.1802,52.792 L7.7258,51.13 L8.342,49.438 L9.0211,47.725 L9.7678,45.998 L10.5878,44.244 L11.0165,43.375 L11.4481,42.498 L11.9115,41.619 L12.3748,40.738 L12.8688,39.858 L13.3643,38.975 L13.8868,38.094 L14.4069,37.214 L14.9556,36.337 L15.5042,35.46 L16.0806,34.589 L16.6585,33.715 L17.2607,32.849 L17.8619,31.984 L18.4992,31.137 L19.1361,30.29 L19.7977,29.454 L20.4605,28.617 L21.1449,27.792 L21.8271,26.969 L22.5324,26.161 L23.2376,25.355 L23.9644,24.565 L24.6926,23.774 L25.4395,23.001 L26.1837,22.229 L26.9476,21.479 L27.7106,20.729 L28.4922,20.002 L29.2751,19.273 L30.0739,18.566 L30.8696,17.862 L31.6818,17.184 L32.4928,16.506 L33.3187,15.857 L34.1461,15.205 L34.9867,14.581 L35.8234,13.959 L36.6735,13.37 L37.5221,12.78 L38.3827,12.224 L39.2447,11.665 L40.1169,11.139 L40.9845,10.615 L41.8624,10.128 L42.7384,9.641 L43.6236,9.194 L44.5108,8.744 L45.4056,8.332 L46.2946,7.921 L47.1908,7.553 L48.0847,7.185 L48.9847,6.861 L49.899,6.531 L50.7909,6.241 L51.6931,5.97 L52.5986,5.723 L53.5048,5.497 L54.4088,5.296 L55.3158,5.12 L56.2227,4.965 L57.1266,4.837 L58.0331,4.734 L58.9389,4.654 L59.8411,4.601 L60.7454,4.575 L61.6487,4.573 L62.5479,4.598 L63.4489,4.652 L64.3487,4.731 L65.2438,4.838 L66.1407,4.975 L67.0362,5.138 L67.9269,5.331 L68.8191,5.555 L69.7098,5.807 L70.5956,6.089 L71.4826,6.404 L72.368,6.749 L73.2483,7.126 L74.1296,7.537 L75.009,7.98 L75.8833,8.456 L76.7579,8.969 L77.6295,9.515 L78.4957,10.097 L79.3615,10.717 L80.2244,11.372 L81.0817,12.064 L81.9376,12.796 L82.79,13.564 L83.6364,14.371 L84.4803,15.22 L85.32,16.107 L86.1531,17.034 L86.9826,18.005 L87.8071,19.016 L88.6242,20.068 L89.4366,21.166 L90.2432,22.305 L91.0416,23.487 L91.8342,24.717 L92.62,25.988 L93.3969,27.305 L94.1668,28.67 L94.929,30.079 L95.6815,31.534 L96.427,33.042 L96.8634,33.965 L97.2747,34.883 L97.6617,35.799 L98.0265,36.71 L98.3663,37.613 L98.6825,38.513 L98.9769,39.409 L99.247,40.298 L99.4942,41.183 L99.7206,42.064 L99.9238,42.937 L100.1059,43.807 L100.2679,44.672 L100.4075,45.53 L100.5257,46.385 L100.6245,47.236 L100.7019,48.079 L100.7575,48.895 L100.8181,50.585 L100.7981,52.226 L100.6993,53.852 L100.5308,55.459 L100.2887,57.042 L99.9735,58.609 L99.5934,60.158 L99.1442,61.683 L98.6255,63.191 L98.0468,64.68 L97.4043,66.144 L96.6966,67.59 L95.9325,69.015 L95.1098,70.415 L94.2265,71.794 L93.2915,73.151 L92.3031,74.481 L91.2593,75.787 L90.1684,77.07 L89.0297,78.323 L87.8411,79.551 L86.6089,80.751 L85.3322,81.918 L84.0118,83.056 L82.6549,84.166 L81.2616,85.243 L79.8301,86.289 L78.3677,87.306 L76.8749,88.288 L75.3497,89.235 L73.798,90.15 L72.2221,91.028 L70.6206,91.871 L69.0004,92.684 L67.3634,93.461 L65.7066,94.202 L64.0352,94.907 L62.3563,95.586 L60.667,96.237 L58.9676,96.852 L57.261,97.425 L55.5439,97.952 L53.8213,98.435 L52.0983,98.876 L50.3734,99.274 L48.6494,99.629 L46.9308,99.937 L45.2167,100.2 L43.5104,100.423 L41.8163,100.599 L40.1328,100.726 L38.4628,100.812 L36.8117,100.851 L35.1776,100.842 L33.5629,100.788 L31.9736,100.685 L30.4075,100.534 L28.8663,100.339 L27.3571,100.096 L25.8768,99.802 L24.4271,99.464 L23.0154,99.077 L21.6385,98.638 L20.2978,98.153 L19.0011,97.619 L17.7445,97.032 L16.5286,96.4 L15.362,95.718 L14.2413,94.981 L13.1656,94.197 L12.1438,93.363 L11.1712,92.474 L10.2473,91.537 L9.381,90.548 L8.5682,89.501 L7.8076,88.403 L7.1083,87.252 L6.4676,86.038 L5.8834,84.769 L5.3648,83.443 L4.9052,82.031 L4.7073,81.332 L4.5214,80.6 L4.3527,79.85 L4.2001,79.085 L4.0661,78.305 L3.9503,77.507 L3.8515,76.693 L3.772,75.864 L3.7117,75.017 L3.6693,74.153 L3.6469,73.275 L3.6448,72.361 C3.6425,71.484 2.9294,70.774 2.0521,70.776 C1.1747,70.779 0.4654,71.492 0.4677,72.369 L0.4705,73.32 L0.4951,74.272 L0.5415,75.208 L0.6075,76.129 L0.6949,77.036 L0.8033,77.926 L0.9308,78.802 L1.0793,79.664 L1.248,80.509 L1.4353,81.34 L1.6432,82.157 L1.8763,82.975 L2.3785,84.512 L2.9649,86.01 L3.6245,87.441 L4.3505,88.815 L5.1491,90.129 L6.0134,91.376 L6.9375,92.565 L7.9274,93.694 L8.9747,94.756 L10.0746,95.76 L11.2326,96.704 L12.4399,97.583 L13.6925,98.406 L14.9948,99.171 L16.3389,99.875 L17.7218,100.524 L19.1483,101.115 L20.6101,101.648 L22.1043,102.13 L23.6355,102.557 L25.1961,102.928 L26.7839,103.249 L28.4025,103.517 L30.0448,103.732 L31.709,103.899 L33.398,104.014 L35.1051,104.079 L36.829,104.1 L38.572,104.073 L40.3277,103.997 L42.0952,103.877 L43.8761,103.711 L45.6646,103.5 L47.46,103.246 L49.2629,102.947 L51.0682,102.605 L52.8763,102.227 L54.6866,101.803 L56.4933,101.337 L58.2982,100.835 L60.1021,100.298 L61.8971,99.718 L63.6842,99.1 L65.4582,98.428 L67.2118,97.705 L68.9512,96.944 L70.6749,96.142 L72.3756,95.299 L74.0554,94.418 L75.7134,93.497 L77.3439,92.539 L78.9503,91.549 L80.5299,90.521 L82.0763,89.458 L83.5923,88.361 L85.0753,87.227 L86.5191,86.059 L87.9272,84.859 L89.2961,83.622 L90.6219,82.355 L91.9084,81.058 L93.1498,79.725 L94.3396,78.36 L95.4827,76.964 L96.5743,75.534 L97.6079,74.073 L98.5887,72.582 L99.5113,71.056 L100.3692,69.502 L101.1681,67.92 L101.9015,66.303 L102.5635,64.66 L103.1593,62.991 L103.6819,61.288 L104.1266,59.562 L104.4991,57.811 L104.7901,56.03 L104.9959,54.228 L105.1233,52.404 L105.163,50.553 L105.1126,48.71 L105.0533,47.745 L104.9717,46.797 L104.8669,45.846 L104.7404,44.892 L104.5897,43.93 L104.4152,42.966 L104.2184,41.999 L103.9957,41.025 L103.7484,40.05 L103.4783,39.071 L103.1824,38.086 L102.8617,37.1 L102.5177,36.111 L102.1472,35.116 L101.7511,34.12 L101.3307,33.122 L100.883,32.118 L100.4084,31.111 L99.6344,29.539 L98.8468,28.011 L98.049,26.53 L97.2412,25.092 L96.4214,23.697 L95.592,22.35 L94.753,21.043 L93.9024,19.779 L93.0429,18.561 L92.1743,17.383 L91.2943,16.245 L90.4063,15.153 L89.5096,14.099 L88.6019,13.086 L87.687,12.116 L86.7639,11.184 L85.8302,10.291 L84.8902,9.441 L83.9427,8.627 L82.9849,7.852 L82.0219,7.118 L81.0522,6.421 L80.0728,5.761 L79.0893,5.141 L78.1006,4.555 L77.1031,4.006 L76.1027,3.497 L75.0973,3.021 L74.0839,2.582 L73.069,2.181 L72.0503,1.813 L71.0247,1.48 L69.9991,1.184 L68.9709,0.92 L67.937,0.69 L66.9045,0.496 L65.8706,0.332 L64.8323,0.202 L63.7967,0.105 L62.761,0.038 L61.7221,0.003 L60.687,0 L59.6529,0.024 L58.617,0.08 L57.5857,0.164 L56.5563,0.276 L55.5264,0.417 L54.5019,0.585 L53.48,0.779 L52.4587,1 L51.4435,1.247 L50.4317,1.517 L49.4213,1.814 L48.4062,2.138 L47.4217,2.487 L46.4229,2.842 L45.4318,3.242 L44.443,3.643 L43.4629,4.089 L42.4885,4.532 L41.5228,5.014 L40.5551,5.497 L39.598,6.022 L38.6426,6.546 L37.6989,7.108 L36.7599,7.668 L35.8322,8.261 L34.9031,8.857 L33.9878,9.488 L33.0739,10.119 L32.1745,10.782 L31.279,11.444 L30.3973,12.133 L29.5142,12.824 L28.6479,13.545 L27.7827,14.265 L26.9349,15.013 L26.0902,15.758 L25.2621,16.527 L24.4327,17.297 L23.6224,18.091 L22.8129,18.884 L22.0237,19.699 L21.237,20.512 L20.4696,21.343 L19.7008,22.176 L18.9541,23.027 L18.2075,23.878 L17.4836,24.744 L16.7618,25.608 L16.0619,26.485 L15.3606,27.365 L14.6844,28.257 L14.0085,29.149 L13.3484,30.045 L12.6893,30.938 L12.0546,31.84 L11.4184,32.744 L10.8101,33.656 L10.2018,34.569 L9.6227,35.488 L9.046,36.405 L8.4965,37.326 L7.9456,38.25 L7.4255,39.177 L6.9055,40.105 L6.4175,41.033 L5.9265,41.969 L5.0266,43.817 L4.1884,45.675 L3.4221,47.523 L2.7231,49.361 L2.1006,51.192 L1.5565,53.002 L1.0847,54.796 L0.6943,56.573 L0.3958,58.292 L0.2698,59.185 L0.1703,60.046 L0.0939,60.897 L0.0387,61.741 L0.0072,62.58 L0,63.407 L0.0158,64.227 L0.0579,65.041 L0.1257,65.842 L0.218,66.634 L0.338,67.42 L0.4853,68.191 L0.6588,68.951 L0.863,69.704 L1.0957,70.439 L1.3567,71.161 L1.6511,71.874 L1.9751,72.565 L2.3289,73.241 L2.7185,73.905 L3.138,74.543 L3.5879,75.162 L4.075,75.763 L4.5909,76.336 L5.1367,76.886 L5.7195,77.415 L6.329,77.912 L6.9668,78.382 L7.6402,78.827 L8.3379,79.239 L9.062,79.623 L9.8199,79.979 L10.6002,80.302 L11.4053,80.596 L12.2428,80.861 L13.102,81.093 L13.9854,81.296 L14.9002,81.469 L15.8372,81.609 L16.7984,81.719 L17.7909,81.799 L18.8064,81.847 L19.8468,81.866 L20.9187,81.854 L22.0151,81.81 L23.1373,81.737 L24.2917,81.631 L25.4722,81.494 L26.6796,81.327 L27.92,81.127 L29.1881,80.894 L30.4843,80.631 L31.8141,80.333 L33.1734,80.002 L34.5617,79.639 L35.9845,79.241 L37.4382,78.808 L38.922,78.343 L40.4411,77.841 L41.9924,77.303 L43.5747,76.731 L45.1933,76.122 L46.8452,75.475 L48.5292,74.793 L50.2501,74.073 L51.9923,73.319 C53.4117,72.704 54.0637,71.055 53.4486,69.635 C52.8335,68.216 51.1843,67.564 49.7649,68.179 Z" id="Fill-16"></path>
        </g>
    </g>
</svg>
