<?xml version="1.0" encoding="UTF-8"?>
<svg width="107px" height="100px" viewBox="0 0 107 100" version="1.1" xmlns="http://www.w3.org/2000/svg" xmlns:xlink="http://www.w3.org/1999/xlink">
    <title>208</title>
    <g id="Page-1" stroke="none" stroke-width="1" fill="none" fill-rule="evenodd">
        <g id="208" transform="translate(0.551711, 0.000000)" fill="currentColor">
            <path d="M60.8873,44.579 L60.7842,43.374 L60.6286,42.15 L60.4262,40.971 L60.1806,39.827 L59.887,38.716 L59.5491,37.65 L59.1696,36.619 L58.743,35.623 L58.2756,34.673 L57.769,33.76 L57.2174,32.883 L56.6296,32.055 L56.0066,31.266 L55.3423,30.515 L54.648,29.814 L53.9236,29.153 L53.163,28.533 L52.3791,27.961 L51.5708,27.43 L50.7321,26.939 L49.8762,26.495 L49.0013,26.09 L48.1014,25.725 L47.1894,25.403 L46.2628,25.118 L45.316,24.872 L44.361,24.665 L43.395,24.493 L42.413,24.357 L41.4257,24.258 L40.4305,24.192 L39.4228,24.16 L38.4124,24.162 L37.3967,24.194 L36.3719,24.259 L35.3468,24.356 L34.3189,24.481 L33.2849,24.638 L32.253,24.824 L31.2207,25.038 L30.1854,25.281 L29.1547,25.553 L28.1266,25.852 L27.0986,26.179 L26.0778,26.534 L25.0616,26.913 L24.0486,27.32 L23.0454,27.751 L22.0495,28.207 L21.0596,28.689 L20.0824,29.195 L19.1151,29.723 L18.1568,30.278 L17.2141,30.855 L16.2839,31.453 L15.3659,32.077 L14.4664,32.722 L13.5822,33.389 L12.7133,34.079 L11.866,34.79 L11.0368,35.521 L10.2262,36.276 L9.4403,37.05 L8.6756,37.843 L7.9332,38.661 L7.2196,39.496 L6.5303,40.351 L5.8665,41.228 L5.2343,42.123 L4.6298,43.035 L4.0547,43.969 L3.5147,44.919 L3.0066,45.887 L2.5323,46.876 L2.0969,47.879 L1.6964,48.898 L1.334,49.938 L1.0141,50.99 L0.7329,52.055 L0.4943,53.141 L0.3042,54.236 L0.1567,55.343 L0.0562,56.468 L0.0052,57.599 L0,58.739 L0.0461,59.895 L0.1441,61.053 L0.2933,62.219 L0.5002,63.396 L0.7612,64.573 L1.0732,65.754 L1.4429,66.944 L1.8684,68.132 L2.3467,69.322 L2.886,70.517 L3.4843,71.712 L4.2762,73.166 L5.1159,74.585 L5.9966,75.959 L6.9107,77.298 L7.8575,78.607 L8.8417,79.873 L9.8609,81.101 L10.9197,82.292 L12.0113,83.439 L13.1334,84.55 L14.2912,85.623 L15.4781,86.653 L16.6927,87.646 L17.9392,88.601 L19.2108,89.513 L20.5065,90.388 L21.8303,91.225 L23.1753,92.02 L24.541,92.778 L25.9314,93.497 L27.3393,94.174 L28.7644,94.815 L30.2101,95.417 L31.6696,95.978 L33.1433,96.502 L34.6341,96.987 L36.135,97.432 L37.6465,97.84 L39.1713,98.21 L40.7027,98.54 L42.2416,98.835 L43.7902,99.091 L45.3419,99.307 L46.898,99.488 L48.4602,99.63 L50.0222,99.733 L51.5854,99.801 L53.1512,99.83 L54.7135,99.821 L56.2737,99.776 L57.8332,99.692 L59.3856,99.569 L60.9328,99.412 L62.4759,99.215 L64.0084,98.981 L65.5326,98.71 L67.0492,98.401 L68.5517,98.054 L70.0427,97.671 L71.5227,97.249 L72.9851,96.789 L74.4329,96.294 L75.866,95.759 L77.278,95.187 L78.6719,94.578 L80.0485,93.931 L81.4004,93.247 L82.7311,92.527 L84.0401,91.767 L85.3205,90.968 L86.5763,90.135 L87.8065,89.259 L89.0043,88.347 L90.1739,87.399 L91.3139,86.409 L92.4176,85.382 L93.4895,84.319 L94.5276,83.215 L95.5255,82.074 L96.4879,80.897 L97.4121,79.679 L98.2923,78.424 L99.1332,77.135 L99.9316,75.803 L100.6822,74.437 L101.3898,73.036 L102.0506,71.594 L102.6602,70.118 L103.2233,68.607 L103.7354,67.057 L104.1927,65.473 L104.5997,63.855 L104.951,62.198 L105.2444,60.509 L105.4849,58.787 L105.6665,57.027 L105.786,55.235 L105.8494,53.411 L105.8494,51.55 L105.7863,49.658 L105.6635,47.734 L105.4729,45.774 L105.216,43.783 L104.8994,41.773 L104.7041,40.733 L104.5093,39.705 L104.2799,38.659 L104.0487,37.608 L103.6115,35.847 L103.124,34.118 L102.5911,32.433 L102.0165,30.789 L101.397,29.184 L100.7361,27.625 L100.0374,26.106 L99.2969,24.627 L98.5189,23.195 L97.7064,21.803 L96.8557,20.452 L95.9713,19.148 L95.0558,17.883 L94.1056,16.661 L93.1257,15.485 L92.1181,14.349 L91.0793,13.256 L90.0153,12.209 L88.9295,11.2 L87.8159,10.234 L86.6802,9.314 L85.5236,8.434 L84.3427,7.598 L83.1438,6.808 L81.9275,6.058 L80.6904,5.352 L79.4392,4.692 L78.1736,4.072 L76.891,3.497 L75.5986,2.965 L74.2954,2.474 L72.9785,2.027 L71.6547,1.626 L70.3232,1.266 L68.9816,0.95 L67.6362,0.684 L66.2866,0.458 L64.9307,0.277 L63.5757,0.142 L62.2197,0.047 L60.861,0 L59.507,0.012 L58.1564,0.065 L56.8079,0.162 L55.4683,0.305 L54.1355,0.489 L52.8082,0.716 L51.4919,0.982 L50.1852,1.288 L48.8874,1.64 L47.6052,2.037 L46.3359,2.474 L45.0791,2.957 L43.8397,3.48 L42.6163,4.044 L41.4092,4.655 L40.2246,5.309 L39.0595,6.005 L37.9144,6.747 L36.7942,7.53 L35.6967,8.355 L34.6234,9.227 L33.5797,10.142 L32.5624,11.098 L31.5725,12.1 L30.6147,13.144 L29.6865,14.229 L28.7903,15.361 L27.9309,16.535 L27.1045,17.75 L26.3141,19.012 L25.5639,20.315 L24.85,21.659 L24.1761,23.049 L23.5455,24.481 L22.9541,25.952 L22.4056,27.469 L21.9038,29.027 L21.4445,30.625 L21.0325,32.268 L20.6689,33.952 L20.3502,35.675 L20.0822,37.443 L19.8668,39.253 L19.7,41.101 L19.5875,42.995 L19.5308,44.929 L19.5255,46.902 L19.5777,48.913 L19.6335,49.951 L19.6892,50.98 L19.7719,52.028 L19.855,53.078 L19.9683,54.15 L20.0819,55.221 L20.2262,56.314 L20.3706,57.405 L20.5435,58.516 L20.7169,59.628 L20.9221,60.762 L21.1276,61.896 L21.3657,63.051 L21.6,64.188 C21.7772,65.047 22.6175,65.6 23.4767,65.423 C24.336,65.246 24.8889,64.405 24.7116,63.546 L24.4768,62.409 L24.2457,61.291 L24.0469,60.195 L23.8478,59.1 L23.6804,58.027 L23.5125,56.952 L23.3727,55.897 L23.233,54.845 L23.1237,53.815 L23.014,52.785 L22.9342,51.778 L22.8539,50.769 L22.8002,49.78 L22.7466,48.8 L22.6955,46.864 L22.6998,44.979 L22.7531,43.134 L22.8592,41.336 L23.0169,39.581 L23.2202,37.867 L23.4722,36.199 L23.7723,34.573 L24.1153,32.988 L24.5043,31.451 L24.9379,29.955 L25.4103,28.499 L25.9233,27.089 L26.4782,25.721 L27.0689,24.393 L27.6965,23.111 L28.3619,21.869 L29.0596,20.667 L29.7904,19.511 L30.5559,18.394 L31.3505,17.317 L32.1746,16.284 L33.0303,15.292 L33.9122,14.337 L34.8212,13.428 L35.7594,12.56 L36.7207,11.73 L37.7043,10.943 L38.7136,10.197 L39.743,9.488 L40.7926,8.824 L41.8648,8.201 L42.9542,7.615 L44.059,7.073 L45.1831,6.57 L46.3215,6.106 L47.4734,5.687 L48.6413,5.31 L49.8201,4.971 L51.0073,4.674 L52.207,4.417 L53.4147,4.198 L54.6282,4.028 L55.8506,3.9 L57.0773,3.81 L58.3049,3.761 L59.5378,3.753 L60.7719,3.783 L62.0043,3.84 L63.2397,3.936 L64.4742,4.069 L65.7039,4.243 L66.933,4.458 L68.1581,4.71 L69.3759,4.999 L70.59,5.329 L71.7973,5.697 L72.9932,6.105 L74.1819,6.554 L75.3607,7.041 L76.5239,7.57 L77.6764,8.14 L78.8157,8.748 L79.9371,9.395 L81.0442,10.085 L82.1351,10.811 L83.2045,11.577 L84.2564,12.386 L85.2891,13.231 L86.2974,14.116 L87.2846,15.043 L88.2471,16.01 L89.1813,17.016 L90.0909,18.066 L90.9751,19.152 L91.8286,20.276 L92.6539,21.445 L93.4508,22.65 L94.2139,23.894 L94.9453,25.181 L95.6453,26.507 L96.3085,27.87 L96.9362,29.278 L97.5296,30.724 L98.0829,32.209 L98.597,33.738 L99.0742,35.305 L99.5084,36.911 L99.9014,38.571 L100.106,39.553 L100.3121,40.541 L100.4847,41.509 L100.6569,42.467 L100.9411,44.378 L101.1656,46.244 L101.327,48.068 L101.4293,49.857 L101.4783,51.612 L101.4684,53.325 L101.4014,55.003 L101.2841,56.648 L101.1138,58.251 L100.8897,59.821 L100.6183,61.357 L100.2966,62.853 L99.9251,64.317 L99.51,65.747 L99.0486,67.138 L98.5398,68.497 L97.9901,69.823 L97.3976,71.111 L96.7606,72.367 L96.0855,73.591 L95.3713,74.778 L94.6153,75.933 L93.824,77.056 L92.9971,78.143 L92.131,79.198 L91.2323,80.222 L90.3011,81.21 L89.3335,82.166 L88.3361,83.091 L87.3093,83.979 L86.2491,84.836 L85.1617,85.661 L84.0482,86.451 L82.9044,87.207 L81.7363,87.933 L80.5454,88.622 L79.3272,89.278 L78.0879,89.903 L76.8287,90.491 L75.5453,91.044 L74.2438,91.565 L72.9262,92.05 L71.5884,92.501 L70.2358,92.919 L68.8705,93.301 L67.4887,93.648 L66.0952,93.963 L64.6926,94.241 L63.2771,94.484 L61.8532,94.695 L60.4238,94.87 L58.9851,95.009 L57.5413,95.115 L56.0956,95.186 L54.6442,95.22 L53.191,95.222 L51.7397,95.187 L50.2862,95.117 L48.8342,95.013 L47.3876,94.874 L45.9426,94.699 L44.5024,94.49 L43.0712,94.246 L41.6451,93.966 L40.2271,93.653 L38.8218,93.304 L37.4252,92.919 L36.0399,92.501 L34.6708,92.048 L33.3137,91.558 L31.9708,91.037 L30.6475,90.482 L29.3397,89.889 L28.0495,89.264 L26.7824,88.605 L25.5337,87.909 L24.3056,87.182 L23.1039,86.42 L21.9244,85.621 L20.7684,84.789 L19.6422,83.924 L18.5413,83.022 L17.4668,82.087 L16.4251,81.119 L15.4119,80.113 L14.429,79.074 L13.4819,78.001 L12.5668,76.89 L11.6838,75.747 L10.8393,74.571 L10.0406,73.349 L9.282,72.091 L8.5654,70.802 L7.8867,69.471 L7.4027,68.435 L6.9735,67.412 L6.5947,66.397 L6.2627,65.392 L5.9823,64.403 L5.7493,63.42 L5.559,62.449 L5.4157,61.493 L5.3133,60.544 L5.2478,59.605 L5.2249,58.682 L5.2431,57.764 L5.2976,56.855 L5.391,55.961 L5.5233,55.072 L5.6894,54.192 L5.8888,53.326 L6.1253,52.466 L6.3937,51.614 L6.695,50.777 L7.0315,49.945 L7.3978,49.124 L7.7944,48.317 L8.2241,47.518 L8.6809,46.729 L9.1652,45.955 L9.6807,45.19 L10.2217,44.438 L10.7875,43.702 L11.3819,42.977 L11.9993,42.265 L12.6379,41.57 L13.3021,40.888 L13.9866,40.22 L14.6901,39.572 L15.4164,38.938 L16.1603,38.32 L16.9199,37.723 L17.6992,37.142 L18.4932,36.578 L19.2996,36.036 L20.1224,35.512 L20.9569,35.007 L21.8004,34.525 L22.657,34.062 L23.5222,33.62 L24.3929,33.201 L25.2734,32.804 L26.1593,32.427 L27.0471,32.076 L27.9413,31.748 L28.8376,31.441 L29.7322,31.161 L30.6297,30.904 L31.5257,30.669 L32.4161,30.461 L33.3064,30.278 L34.1922,30.119 L35.0686,29.988 L35.9414,29.883 L36.8065,29.802 L37.6581,29.749 L38.5029,29.723 L39.3367,29.723 L40.1531,29.75 L40.9595,29.805 L41.7517,29.885 L42.5227,29.993 L43.2811,30.129 L44.0223,30.29 L44.7391,30.478 L45.441,30.695 L46.1236,30.936 L46.7792,31.203 L47.4182,31.5 L48.0367,31.822 L48.6269,32.168 L49.1996,32.546 L49.7513,32.949 L50.2744,33.377 L50.7795,33.839 L51.2635,34.329 L51.7192,34.845 L52.1556,35.4 L52.5703,35.986 L52.9564,36.601 L53.3206,37.26 L53.6612,37.954 L53.9716,38.682 L54.2557,39.457 L54.5129,40.272 L54.7369,41.124 L54.9293,42.027 L55.0905,42.973 L55.2147,43.959 L55.3053,45.05 C55.4354,46.591 56.7903,47.735 58.3317,47.605 C59.8732,47.475 61.0173,46.12 60.8873,44.579 Z" id="Fill-15"></path>
        </g>
    </g>
</svg>
