<?xml version="1.0" encoding="UTF-8"?>
<svg width="93px" height="95px" viewBox="0 0 93 95" version="1.1" xmlns="http://www.w3.org/2000/svg" xmlns:xlink="http://www.w3.org/1999/xlink">
    <title>209</title>
    <g id="Page-1" stroke="none" stroke-width="1" fill="none" fill-rule="evenodd">
        <g id="209" transform="translate(0.673411, 0.460000)" fill="currentColor">
            <path d="M63.3509,76.065 L64.4833,75.395 L65.6233,74.666 L66.7246,73.907 L67.7939,73.118 L68.8317,72.296 L69.8313,71.448 L70.799,70.574 L71.7351,69.67 L72.6336,68.742 L73.5007,67.793 L74.3362,66.816 L75.135,65.82 L75.9029,64.805 L76.6395,63.766 L77.3404,62.712 L78.0111,61.641 L78.6507,60.55 L79.2559,59.446 L79.8316,58.329 L80.3766,57.194 L80.8884,56.05 L81.3714,54.896 L81.8243,53.728 L82.245,52.553 L82.6377,51.37 L83.0008,50.176 L83.3329,48.978 L83.6361,47.775 L83.9093,46.564 L84.1524,45.351 L84.3688,44.136 L84.5567,42.917 L84.7154,41.699 L84.8481,40.481 L84.9527,39.26 L85.029,38.045 L85.0798,36.832 L85.1031,35.619 L85.0988,34.414 L85.0696,33.213 L85.0131,32.016 L84.9298,30.829 L84.8222,29.649 L84.6875,28.475 L84.5258,27.314 L84.3392,26.163 L84.1258,25.021 L83.8869,23.894 L83.6244,22.78 L83.3352,21.677 L83.0204,20.592 L82.6814,19.523 L82.3158,18.467 L81.9257,17.433 L81.5122,16.416 L81.0719,15.416 L80.6073,14.44 L80.117,13.486 L79.5996,12.551 L79.0585,11.643 L78.4942,10.759 L77.902,9.897 L77.2868,9.066 L76.6467,8.262 L75.9753,7.486 L75.2817,6.745 L74.5649,6.034 L73.8194,5.353 L73.0524,4.71 L72.2626,4.101 L71.4438,3.527 L70.6044,2.996 L69.7431,2.502 L68.8536,2.049 L67.9463,1.642 L67.0187,1.276 L66.0646,0.955 L65.0955,0.684 L64.1102,0.451 L63.1009,0.262 L62.0785,0.126 L61.0399,0.036 L59.9789,0 L58.9075,0.017 L57.8225,0.084 L56.7179,0.205 L55.6046,0.381 L54.4794,0.608 L53.3369,0.892 L52.1866,1.233 L51.0256,1.625 L49.8488,2.077 L48.6643,2.585 L47.4697,3.148 L46.2602,3.771 L45.0538,4.447 L43.9408,5.1 L42.838,5.75 L41.7679,6.396 L40.6977,7.042 L39.6598,7.685 L38.623,8.328 L37.6159,8.969 L36.6078,9.612 L35.6314,10.251 L34.6549,10.89 L33.7098,11.527 L32.7658,12.162 L31.8499,12.795 L30.9328,13.429 L30.0465,14.06 L29.16,14.691 L28.304,15.318 L27.4491,15.945 L26.6215,16.57 L25.7879,17.198 L24.1942,18.439 L22.6558,19.677 L21.1701,20.908 L19.7406,22.135 L18.3691,23.355 L17.0488,24.569 L15.7825,25.778 L14.5726,26.98 L13.412,28.176 L12.3037,29.368 L11.2496,30.552 L10.2433,31.73 L9.2875,32.904 L8.3846,34.07 L7.5266,35.23 L6.7168,36.386 L5.9584,37.533 L5.2447,38.675 L4.5783,39.814 L3.9619,40.944 L3.389,42.068 L2.8621,43.19 L2.3837,44.302 L1.9478,45.408 L1.5569,46.511 L1.2129,47.605 L0.9104,48.692 L0.652,49.775 L0.4391,50.847 L0.2665,51.912 L0.1371,52.973 L0.0513,54.021 L0.0046,55.061 L0,56.096 L0.0369,57.116 L0.1112,58.127 L0.2261,59.131 L0.3801,60.119 L0.5694,61.097 L0.7975,62.066 L1.0617,63.019 L1.3591,63.96 L1.6932,64.892 L2.0604,65.806 L2.4583,66.707 L2.8907,67.598 L3.3539,68.471 L3.8453,69.331 L4.3686,70.18 L4.9194,71.011 L5.496,71.828 L6.1021,72.634 L6.7331,73.422 L7.3888,74.196 L8.0715,74.958 L8.7769,75.703 L9.5037,76.434 L10.2553,77.153 L11.0274,77.855 L11.8196,78.544 L12.6351,79.218 L13.4691,79.876 L14.3207,80.521 L15.1929,81.153 L16.0816,81.769 L16.9862,82.371 L17.91,82.959 L18.856,83.536 L19.8066,84.083 L20.7669,84.635 L21.7571,85.16 L22.7462,85.682 L23.7626,86.176 L24.7753,86.668 L25.8103,87.133 L26.8472,87.599 L27.9063,88.036 L28.9646,88.472 L30.0422,88.878 L31.1165,89.283 L32.2062,89.661 L33.2978,90.039 L34.4039,90.388 L35.5095,90.735 L36.6267,91.053 L37.7411,91.369 L38.8639,91.658 L39.9888,91.946 L41.1206,92.204 L42.2518,92.462 L43.3865,92.692 L44.5187,92.922 L45.6525,93.122 L46.7888,93.323 L47.9244,93.491 L49.06,93.66 L50.1922,93.796 L51.3222,93.931 L52.4468,94.037 L53.5743,94.143 L54.6935,94.215 L55.8131,94.288 L56.9217,94.329 L58.0282,94.369 L59.1225,94.378 L60.2203,94.387 L61.3023,94.361 L62.3851,94.334 L63.4493,94.269 L64.5113,94.203 L65.5541,94.106 L66.6128,94.006 L68.6491,93.739 L70.639,93.371 L72.577,92.932 L74.4572,92.417 L76.2488,91.839 L77.1513,91.517 L78.0181,91.18 L78.8638,90.824 L79.6917,90.449 L80.5016,90.053 L81.2882,89.637 L82.0557,89.202 L82.8046,88.747 L83.5281,88.271 L84.2299,87.775 L84.9094,87.255 L85.561,86.714 L86.1885,86.153 L86.791,85.566 L87.3627,84.958 L87.9091,84.331 L88.4275,83.678 L88.9123,83.004 L89.3677,82.309 L89.7916,81.588 L90.1794,80.848 L90.535,80.087 L90.8559,79.301 L91.139,78.497 L91.3888,77.674 L91.6012,76.827 L91.7738,75.962 L91.9103,75.079 L92.0073,74.173 L92.0635,73.251 L92.0823,72.311 L92.0599,71.348 L91.996,70.37 L91.8937,69.375 L91.7488,68.357 L91.5617,67.324 L91.3352,66.273 L91.0646,65.2 L90.7514,64.11 L90.3982,63.003 L89.9994,61.873 L89.5561,60.726 L89.0711,59.56 L88.5391,58.372 L87.9627,57.165 L87.3431,55.938 L86.6748,54.689 L85.9588,53.421 L85.198,52.132 L84.3868,50.821 L83.526,49.49 L82.6189,48.138 L81.6595,46.763 L80.6487,45.367 L79.5898,43.95 L78.4768,42.51 L77.3103,41.047 L76.0942,39.564 L74.8244,38.06 L74.1579,37.292 L73.5008,36.535 C72.9256,35.872 71.9222,35.801 71.2598,36.377 C70.5973,36.952 70.5266,37.955 71.1018,38.618 L71.7593,39.374 L72.4073,40.12 L73.6539,41.596 L74.8428,43.044 L75.9814,44.47 L77.0646,45.87 L78.0944,47.247 L79.0756,48.601 L80.0034,49.929 L80.8798,51.234 L81.7095,52.516 L82.4876,53.772 L83.2165,55.005 L83.9004,56.216 L84.5349,57.4 L85.1222,58.561 L85.6665,59.7 L86.162,60.813 L86.6123,61.903 L87.0217,62.971 L87.3861,64.011 L87.7079,65.029 L87.9907,66.024 L88.2304,66.993 L88.4298,67.939 L88.5929,68.862 L88.7165,69.758 L88.8023,70.633 L88.8544,71.485 L88.8699,72.31 L88.8501,73.115 L88.7991,73.898 L88.7147,74.656 L88.597,75.394 L88.4505,76.112 L88.2734,76.805 L88.0648,77.481 L87.828,78.139 L87.5625,78.773 L87.2667,79.391 L86.945,79.992 L86.5968,80.572 L86.2189,81.138 L85.816,81.687 L85.3878,82.217 L84.9303,82.733 L84.4471,83.232 L83.9398,83.713 L83.404,84.179 L82.8448,84.631 L82.2624,85.064 L81.6527,85.482 L81.0207,85.885 L80.3668,86.27 L79.6859,86.638 L78.9835,86.989 L78.261,87.322 L77.5147,87.639 L76.7491,87.941 L75.9651,88.224 L75.1788,88.485 L73.4933,88.972 L71.7587,89.376 L69.9556,89.712 L68.0984,89.987 L66.1809,90.221 L65.2148,90.302 L64.2329,90.385 L63.2312,90.437 L62.2318,90.49 L61.213,90.511 L60.1933,90.534 L59.1571,90.524 L58.1174,90.514 L57.0649,90.473 L56.0145,90.434 L54.9526,90.36 L53.8903,90.286 L52.8193,90.179 L51.7454,90.073 L50.666,89.937 L49.5888,89.802 L48.5079,89.635 L47.4269,89.468 L46.3451,89.27 L45.2608,89.072 L44.178,88.845 L43.0977,88.619 L42.0222,88.36 L40.9472,88.1 L39.8792,87.81 L38.8092,87.52 L37.7477,87.203 L36.6892,86.887 L35.6427,86.542 L34.5968,86.197 L33.5657,85.823 L32.5326,85.449 L31.5152,85.049 L30.5011,84.651 L29.5068,84.225 L28.5133,83.8 L27.5424,83.347 L26.5696,82.894 L25.6195,82.416 L24.6732,81.941 L23.7541,81.439 L22.8361,80.939 L21.9484,80.413 L21.0508,79.882 L20.1926,79.343 L19.3459,78.79 L18.5151,78.224 L17.7015,77.648 L16.909,77.062 L16.1349,76.463 L15.3798,75.854 L14.6477,75.236 L13.935,74.607 L13.2423,73.969 L12.5746,73.322 L11.9287,72.664 L11.3048,71.996 L10.7076,71.322 L10.1338,70.635 L9.5826,69.941 L9.0593,69.241 L8.561,68.529 L8.0874,67.809 L7.6433,67.083 L7.2255,66.346 L6.8337,65.602 L6.4716,64.852 L6.1373,64.091 L5.8299,63.323 L5.5538,62.549 L5.3071,61.764 L5.0883,60.97 L4.9018,60.172 L4.7464,59.361 L4.6202,58.541 L4.5274,57.716 L4.4675,56.877 L4.4383,56.029 L4.4438,55.175 L4.4846,54.306 L4.5581,53.428 L4.6679,52.542 L4.8159,51.641 L4.9987,50.729 L5.2199,49.81 L5.4822,48.875 L5.7817,47.929 L6.1219,46.975 L6.5062,46.005 L6.9301,45.025 L7.3972,44.036 L7.9111,43.032 L8.4671,42.017 L9.0687,40.994 L9.7197,39.957 L10.4151,38.909 L11.1583,37.853 L11.9542,36.785 L12.7976,35.707 L13.6913,34.622 L14.639,33.524 L15.6351,32.418 L16.6839,31.303 L17.7888,30.178 L18.944,29.044 L20.1537,27.903 L21.4215,26.751 L22.7414,25.591 L24.1178,24.424 L25.5543,23.248 L27.0446,22.064 L28.5982,20.869 L29.3982,20.274 L30.2042,19.673 L31.038,19.07 L31.8705,18.467 L32.734,17.86 L33.5975,17.253 L34.4922,16.643 L35.3881,16.032 L36.3126,15.417 L37.236,14.803 L38.1913,14.186 L39.1466,13.569 L40.134,12.948 L41.1225,12.326 L42.1397,11.701 L43.1559,11.075 L44.2049,10.447 L45.2539,9.818 L46.336,9.186 L47.4079,8.559 L48.5034,7.947 L49.5645,7.402 L50.6088,6.913 L51.6342,6.474 L52.6348,6.092 L53.6185,5.761 L54.5829,5.478 L55.5214,5.246 L56.4435,5.061 L57.3463,4.92 L58.2232,4.826 L59.0847,4.777 L59.9277,4.766 L60.7455,4.798 L61.5495,4.871 L62.3365,4.979 L63.0999,5.125 L63.8501,5.315 L64.5823,5.546 L65.2916,5.81 L65.9892,6.112 L66.6718,6.445 L67.3333,6.81 L67.9835,7.211 L68.6195,7.643 L69.2359,8.103 L69.8407,8.599 L70.4313,9.124 L71.0021,9.678 L71.5599,10.265 L72.1027,10.881 L72.6256,11.522 L73.1368,12.194 L73.6338,12.89 L74.1104,13.611 L74.5709,14.362 L75.0146,15.136 L75.4373,15.933 L75.8422,16.757 L76.2315,17.601 L76.5995,18.464 L76.9483,19.352 L77.2782,20.258 L77.5859,21.181 L77.873,22.126 L78.141,23.086 L78.3868,24.059 L78.6108,25.051 L78.8144,26.056 L78.9945,27.072 L79.152,28.102 L79.2891,29.143 L79.4031,30.192 L79.4937,31.252 L79.5624,32.321 L79.6067,33.393 L79.6266,34.475 L79.6242,35.561 L79.597,36.649 L79.5447,37.743 L79.4696,38.838 L79.3694,39.932 L79.2434,41.029 L79.0941,42.125 L78.9196,43.216 L78.7186,44.307 L78.494,45.394 L78.2439,46.474 L77.9677,47.551 L77.6691,48.622 L77.3448,49.682 L76.9929,50.737 L76.6168,51.782 L76.215,52.814 L75.785,53.837 L75.3304,54.849 L74.8503,55.844 L74.3413,56.828 L73.8075,57.799 L73.2481,58.75 L72.6593,59.686 L72.0454,60.607 L71.406,61.506 L70.7362,62.389 L70.0411,63.253 L69.3204,64.092 L68.5686,64.913 L67.7909,65.713 L66.9873,66.487 L66.1516,67.24 L65.2893,67.969 L64.4009,68.671 L63.479,69.348 L62.5297,70.001 L61.5534,70.623 L60.5036,71.241 C59.1715,72.027 58.7289,73.744 59.5152,75.076 C60.3014,76.409 62.0187,76.851 63.3509,76.065 Z" id="Fill-14"></path>
        </g>
    </g>
</svg>
