<?xml version="1.0" encoding="UTF-8"?>
<svg width="355px" height="220px" viewBox="0 0 355 220" version="1.1" xmlns="http://www.w3.org/2000/svg" xmlns:xlink="http://www.w3.org/1999/xlink">
    <title>21</title>
    <g id="Page-1" stroke="none" stroke-width="1" fill="none" fill-rule="evenodd">
        <g id="21" transform="translate(0.802000, 0.197751)" fill="currentColor">
            <path d="M269.356,182.192249 C270.147,168.590249 272.857,58.1992494 267.658,50.3762494 C267.603,50.2932494 183.315,52.7542494 176.412,52.6572494 C144.16,52.2002494 111.897,51.8662494 79.6487,51.2882494 C75.8556,51.2202494 49.0249,46.2552494 46.9699,48.0952494 C44.412,50.3862494 49.2875,55.0142494 49.0919,58.5862494 C47.8005,82.1802494 46.1211,105.636249 46.1211,129.283249 C46.1211,137.759249 42.0088,168.721249 46.9699,176.719249 C52.3083,185.325249 85.9425,180.368249 93.654,180.368249 C129.175,180.368249 165.263,174.779249 200.603,178.999249" id="Fill-215"></path>
            <path d="M270.988,182.283249 L271.014,181.825249 L271.04,181.300249 L271.067,180.715249 L271.095,180.076249 L271.125,179.377249 L271.154,178.621249 L271.185,177.814249 L271.217,176.952249 L271.249,176.037249 L271.281,175.073249 L271.315,174.060249 L271.348,172.996249 L271.382,171.889249 L271.417,170.735249 L271.451,169.535249 L271.486,168.296249 L271.521,167.014249 L271.556,165.691249 L271.592,164.331249 L271.627,162.933249 L271.662,161.498249 L271.696,160.031249 L271.731,158.529249 L271.765,156.995249 L271.799,155.431249 L271.832,153.838249 L271.865,152.216249 L271.897,150.569249 L271.929,148.895249 L271.96,147.198249 L271.989,145.470249 L272.019,143.741249 L272.047,141.972249 L272.075,140.202249 L272.101,138.397249 L272.126,136.593249 L272.15,134.762249 L272.174,132.930249 L272.195,131.075249 L272.216,129.219249 L272.234,127.345249 L272.251,125.471249 L272.266,123.585249 L272.282,121.700249 L272.293,119.806249 L272.305,117.913249 L272.312,116.018249 L272.319,114.122249 L272.321,112.235249 L272.323,110.349249 L272.327,108.463249 L272.327,106.574249 L272.319,104.713249 L272.311,102.857249 L272.304,101.000249 L272.296,99.1392494 L272.278,97.3312494 L272.26,95.5282494 L272.241,93.7252494 L272.223,91.9182494 L272.198,90.1602494 L272.172,88.4032494 L272.14,86.6882494 L272.109,84.9732494 L272.071,83.3072494 L272.033,81.6412494 L271.991,80.0102494 L271.946,78.4072494 L271.897,76.8352494 L271.845,75.2902494 L271.79,73.7782494 L271.731,72.3002494 L271.669,70.8532494 L271.603,69.4432494 L271.533,68.0702494 L271.46,66.7342494 L271.382,65.4372494 L271.3,64.1822494 L271.215,62.9672494 L271.125,61.7952494 L271.031,60.6702494 L270.933,59.5872494 L270.831,58.5512494 L270.724,57.5652494 L270.612,56.6252494 L270.496,55.7352494 L270.375,54.8982494 L270.248,54.1092494 L270.115,53.3722494 L269.976,52.6892494 L269.83,52.0552494 L269.675,51.4702494 L269.509,50.9382494 L269.327,50.4462494 L269.149,50.0512494 L269.081,49.9182494 L269.078,49.9142494 L269.073,49.9052494 L269.066,49.8932494 L269.056,49.8752494 L269.043,49.8542494 L269.028,49.8282494 L269.01,49.7982494 L268.987,49.7582494 L268.96,49.7132494 L268.932,49.6682494 L268.902,49.6202494 L268.863,49.5632494 L268.806,49.4862494 L268.693,49.3572494 L268.332,49.0872494 L267.74,48.9192494 L267.737,48.9192494 L267.734,48.9192494 L267.732,48.9182494 L267.731,48.9182494 L267.729,48.9182494 L267.729,48.9182494 L267.728,48.9182494 L267.633,48.9152494 L267.539,48.9152494 L267.391,48.9172494 L267.2,48.9202494 L266.959,48.9252494 L266.669,48.9322494 L266.333,48.9412494 L265.95,48.9502494 L265.52,48.9622494 L265.047,48.9752494 L264.529,48.9892494 L263.968,49.0042494 L263.367,49.0212494 L262.724,49.0392494 L262.041,49.0592494 L261.322,49.0792494 L260.565,49.1012494 L259.77,49.1242494 L258.942,49.1482494 L258.08,49.1742494 L257.183,49.2002494 L256.256,49.2282494 L255.298,49.2562494 L254.31,49.2862494 L253.294,49.3162494 L252.25,49.3472494 L251.18,49.3792494 L250.085,49.4122494 L248.966,49.4462494 L247.822,49.4802494 L246.649,49.5152494 L245.475,49.5522494 L244.261,49.5902494 L243.046,49.6282494 L241.796,49.6672494 L240.545,49.7062494 L239.266,49.7462494 L237.987,49.7862494 L236.68,49.8272494 L235.373,49.8672494 L234.044,49.9092494 L232.715,49.9512494 L231.369,49.9952494 L230.023,50.0382494 L228.664,50.0812494 L227.304,50.1252494 L225.936,50.1692494 L224.568,50.2132494 L223.195,50.2572494 L221.822,50.3002494 L220.449,50.3422494 L219.076,50.3822494 L217.711,50.4222494 L216.346,50.4612494 L214.981,50.5002494 L213.617,50.5392494 L212.28,50.5782494 L210.943,50.6162494 L209.606,50.6542494 L208.269,50.6922494 L206.96,50.7262494 L205.652,50.7612494 L204.371,50.7942494 L203.09,50.8272494 L201.84,50.8602494 L200.591,50.8922494 L199.374,50.9232494 L198.157,50.9542494 L196.981,50.9832494 L195.805,51.0132494 L194.674,51.0412494 L193.543,51.0692494 L192.445,51.0962494 L191.374,51.1222494 L190.33,51.1462494 L189.311,51.1702494 L188.322,51.1942494 L187.363,51.2162494 L186.433,51.2372494 L185.536,51.2572494 L184.672,51.2752494 L183.841,51.2932494 L183.046,51.3092494 L182.288,51.3252494 L181.565,51.3392494 L180.882,51.3512494 L180.24,51.3632494 L179.635,51.3732494 L179.074,51.3822494 L178.558,51.3892494 L178.083,51.3942494 L177.655,51.3992494 L177.275,51.4012494 L176.94,51.4032494 L176.658,51.4022494 L176.428,51.4002494 L175.421,51.3872494 L174.413,51.3742494 L173.405,51.3612494 L172.397,51.3482494 L171.389,51.3352494 L170.381,51.3222494 L169.373,51.3092494 L168.365,51.2962494 L167.357,51.2842494 L166.349,51.2712494 L165.341,51.2582494 L164.333,51.2452494 L163.325,51.2332494 L162.317,51.2202494 L161.309,51.2072494 L160.301,51.1952494 L159.293,51.1822494 L158.285,51.1692494 L157.277,51.1562494 L156.269,51.1442494 L155.261,51.1312494 L154.253,51.1182494 L153.245,51.1062494 L152.237,51.0932494 L151.229,51.0802494 L150.221,51.0682494 L149.214,51.0552494 L148.206,51.0422494 L147.198,51.0302494 L146.19,51.0172494 L145.182,51.0042494 L144.174,50.9922494 L143.165,50.9802494 L142.157,50.9682494 L141.149,50.9562494 L140.141,50.9442494 L139.133,50.9322494 L138.125,50.9202494 L137.117,50.9082494 L136.109,50.8962494 L135.101,50.8842494 L134.093,50.8722494 L133.085,50.8612494 L132.077,50.8492494 L131.069,50.8372494 L130.061,50.8252494 L129.053,50.8132494 L128.045,50.8012494 L127.037,50.7892494 L126.029,50.7772494 L125.021,50.7652494 L124.013,50.7532494 L123.005,50.7412494 L121.997,50.7292494 L120.989,50.7172494 L119.981,50.7052494 L118.973,50.6932494 L117.964,50.6812494 L116.957,50.6702494 L115.948,50.6582494 L114.94,50.6462494 L113.932,50.6342494 L112.924,50.6222494 L111.918,50.6112494 L110.912,50.5962494 L109.904,50.5822494 L108.896,50.5682494 L107.888,50.5532494 L106.88,50.5392494 L105.872,50.5242494 L104.864,50.5102494 L103.856,50.4962494 L102.848,50.4822494 L101.841,50.4682494 L100.833,50.4542494 L99.825,50.4402494 L98.817,50.4262494 L97.809,50.4122494 L96.801,50.3972494 L95.793,50.3832494 L94.785,50.3692494 L93.777,50.3552494 L92.769,50.3412494 L91.762,50.3272494 L90.754,50.3132494 L89.746,50.2992494 L88.738,50.2852494 L87.7299,50.2712494 L86.722,50.2572494 L85.7141,50.2422494 L84.7062,50.2282494 L83.6983,50.2142494 L82.6904,50.2002494 L81.6825,50.1862494 L80.6746,50.1722494 L79.672,50.1582494 L79.4467,50.1502494 L79.1511,50.1302494 L78.7889,50.0982494 L78.3727,50.0552494 L77.9022,50.0022494 L77.3804,49.9392494 L76.8154,49.8672494 L76.2059,49.7872494 L75.5548,49.6992494 L74.8687,49.6042494 L74.1466,49.5032494 L73.3917,49.3952494 L72.6091,49.2832494 L71.7991,49.1662494 L70.9642,49.0452494 L70.1094,48.9222494 L69.2349,48.7952494 L68.3436,48.6662494 L66.5259,48.4062494 L64.6722,48.1452494 L62.8049,47.8892494 L60.9611,47.6492494 L59.113,47.4092494 L57.3649,47.2092494 L55.6122,47.0082494 L54.0516,46.8712494 L52.4985,46.7332494 L51.7753,46.6862494 L51.0972,46.6502494 L50.457,46.6262494 L49.8519,46.6132494 L49.2858,46.6132494 L48.7623,46.6302494 L48.2757,46.6602494 L47.8261,46.7082494 L47.4147,46.7792494 L47.0251,46.8802494 L46.6384,47.0372494 L46.2482,47.3062494 L45.8501,47.7262494 L45.5312,48.2152494 L45.3174,48.7322494 L45.1949,49.2632494 L45.1577,49.7992494 L45.1906,50.3202494 L45.2744,50.8302494 L45.4029,51.3362494 L45.5649,51.8322494 L45.7513,52.3252494 L45.9592,52.8172494 L46.1832,53.3102494 L46.6418,54.2712494 L47.0978,55.2252494 L47.5001,56.1512494 L47.8163,57.0272494 L48.0042,57.8222494 L48.0393,58.5692494 L47.9595,60.0002494 L47.8782,61.4742494 L47.7969,62.9472494 L47.7154,64.4212494 L47.6331,65.8942494 L47.5508,67.3682494 L47.4686,68.8412494 L47.3864,70.3142494 L47.3029,71.7862494 L47.2193,73.2572494 L47.1358,74.7292494 L47.0522,76.2012494 L46.9687,77.6722494 L46.8851,79.1442494 L46.8016,80.6152494 L46.7179,82.0902494 L46.641,83.5632494 L46.5642,85.0342494 L46.4875,86.5052494 L46.4107,87.9762494 L46.334,89.4472494 L46.2572,90.9192494 L46.1804,92.3902494 L46.1035,93.8642494 L46.0353,95.3382494 L45.9673,96.8102494 L45.8992,98.2812494 L45.8311,99.7552494 L45.7715,101.230249 L45.7121,102.702249 L45.6521,104.174249 L45.5919,105.650249 L45.5425,107.126249 L45.4932,108.599249 L45.4439,110.072249 L45.3945,111.549249 L45.3564,113.026249 L45.3185,114.500249 L45.2805,115.974249 L45.2421,117.453249 L45.2181,118.933249 L45.1942,120.408249 L45.1704,121.883249 L45.1464,123.364249 L45.1387,124.847249 L45.131,126.324249 L45.1234,127.801249 L45.1158,129.277249 L45.1111,129.823249 L45.0964,130.424249 L45.0721,131.083249 L45.0398,131.793249 L44.9994,132.554249 L44.9517,133.365249 L44.8978,134.218249 L44.838,135.115249 L44.7731,136.052249 L44.7041,137.024249 L44.6314,138.032249 L44.5558,139.073249 L44.4781,140.141249 L44.4005,141.238249 L44.3237,142.359249 L44.247,143.502249 L44.1711,144.664249 L44.0967,145.845249 L44.0257,147.043249 L43.9547,148.243249 L43.8911,149.462249 L43.8273,150.683249 L43.7742,151.911249 L43.7211,153.140249 L43.6815,154.368249 L43.6424,155.598249 L43.6194,156.816249 L43.5965,158.035249 L43.5929,159.233249 L43.5894,160.431249 L43.6059,161.600249 L43.6225,162.771249 L43.6641,163.901249 L43.7059,165.033249 L43.7758,166.112249 L43.8445,167.189249 L43.9346,168.233249 L44.0411,169.243249 L44.165,170.217249 L44.3057,171.158249 L44.4659,172.062249 L44.6465,172.924249 L44.8469,173.747249 L45.0709,174.528249 L45.3193,175.260249 L45.5923,175.949249 L45.8959,176.591249 L46.2358,177.185249 L46.661,177.783249 L47.171,178.343249 L47.747,178.850249 L48.3803,179.315249 L49.0755,179.738249 L49.8233,180.121249 L50.6184,180.470249 L51.4652,180.785249 L52.3571,181.067249 L53.2891,181.322249 L54.2647,181.549249 L55.2781,181.749249 L56.3248,181.926249 L57.4067,182.079249 L58.5189,182.209249 L59.6569,182.320249 L60.8215,182.411249 L62.0082,182.482249 L63.2132,182.537249 L64.4359,182.575249 L65.6724,182.598249 L66.919,182.607249 L68.1746,182.602249 L69.4368,182.584249 L70.6978,182.551249 L71.9602,182.518249 L73.2173,182.466249 L74.4733,182.414249 L75.7108,182.348249 L76.9468,182.281249 L78.1557,182.205249 L79.3639,182.129249 L80.5306,182.047249 L81.6962,181.964249 L82.8071,181.879249 L83.9167,181.795249 L84.9825,181.711249 L86.0115,181.629249 L87.0004,181.550249 L87.9501,181.476249 L88.854,181.406249 L89.708,181.343249 L90.515,181.286249 L91.265,181.237249 L91.957,181.198249 L92.591,181.168249 L93.158,181.150249 L93.66,181.143249 L94.769,181.135249 L95.88,181.127249 L96.991,181.119249 L98.106,181.111249 L99.223,181.090249 L100.335,181.069249 L101.447,181.047249 L102.563,181.026249 L103.68,180.993249 L104.793,180.960249 L105.906,180.927249 L107.023,180.894249 L108.14,180.852249 L109.254,180.810249 L110.369,180.768249 L111.486,180.726249 L112.603,180.676249 L113.719,180.626249 L114.834,180.576249 L115.951,180.526249 L117.069,180.470249 L118.185,180.414249 L119.301,180.357249 L120.419,180.301249 L121.537,180.238249 L122.654,180.177249 L123.771,180.115249 L124.888,180.053249 L126.004,179.991249 L127.121,179.930249 L128.238,179.868249 L129.356,179.806249 L130.474,179.742249 L131.591,179.678249 L132.709,179.613249 L133.826,179.549249 L134.944,179.485249 L136.061,179.420249 L137.179,179.356249 L138.295,179.292249 L139.411,179.233249 L140.528,179.173249 L141.646,179.114249 L142.764,179.054249 L143.881,178.995249 L144.999,178.935249 L146.116,178.876249 L147.23,178.817249 L148.344,178.768249 L149.462,178.719249 L150.579,178.670249 L151.696,178.621249 L152.813,178.571249 L153.93,178.522249 L155.047,178.473249 L156.159,178.424249 L157.269,178.393249 L158.385,178.362249 L159.501,178.331249 L160.617,178.300249 L161.734,178.268249 L162.85,178.237249 L163.966,178.206249 L165.074,178.175249 L166.18,178.169249 L167.295,178.164249 L168.409,178.158249 L169.523,178.152249 L170.638,178.146249 L171.752,178.141249 L172.867,178.135249 L173.975,178.129249 L175.081,178.144249 L176.194,178.160249 L177.307,178.175249 L178.414,178.190249 L179.521,178.223249 L180.632,178.256249 L181.744,178.289249 L182.85,178.322249 L183.954,178.374249 L185.064,178.427249 L186.175,178.479249 L187.279,178.532249 L188.382,178.603249 L189.491,178.675249 L190.6,178.747249 L191.702,178.818249 L192.802,178.912249 L193.909,179.007249 L195.016,179.101249 L196.116,179.195249 L197.214,179.313249 L198.319,179.433249 L199.424,179.552249 L200.53,179.671249 C200.901,179.712249 201.234,179.444249 201.275,179.072249 C201.315,178.701249 201.047,178.368249 200.676,178.327249 L199.571,178.206249 L198.465,178.085249 L197.36,177.965249 L196.248,177.843249 L195.133,177.746249 L194.026,177.649249 L192.919,177.553249 L191.805,177.456249 L190.689,177.382249 L189.58,177.309249 L188.471,177.235249 L187.357,177.162249 L186.24,177.107249 L185.13,177.053249 L184.02,176.999249 L182.904,176.944249 L181.786,176.909249 L180.674,176.874249 L179.563,176.840249 L178.446,176.805249 L177.327,176.788249 L176.214,176.771249 L175.101,176.754249 L173.982,176.737249 L172.861,176.741249 L171.746,176.745249 L170.632,176.749249 L169.517,176.753249 L168.403,176.757249 L167.288,176.761249 L166.174,176.765249 L165.052,176.769249 L163.927,176.799249 L162.811,176.828249 L161.695,176.858249 L160.579,176.887249 L159.463,176.917249 L158.347,176.946249 L157.23,176.976249 L156.109,177.006249 L154.986,177.053249 L153.869,177.101249 L152.751,177.148249 L151.634,177.195249 L150.517,177.243249 L149.4,177.290249 L148.283,177.338249 L147.162,177.385249 L146.041,177.443249 L144.923,177.501249 L143.806,177.559249 L142.688,177.616249 L141.571,177.674249 L140.453,177.732249 L139.335,177.789249 L138.216,177.847249 L137.097,177.910249 L135.979,177.972249 L134.862,178.034249 L133.744,178.097249 L132.626,178.159249 L131.509,178.221249 L130.391,178.283249 L129.275,178.346249 L128.159,178.405249 L127.042,178.465249 L125.925,178.524249 L124.808,178.584249 L123.691,178.643249 L122.574,178.702249 L121.457,178.761249 L120.342,178.820249 L119.228,178.874249 L118.112,178.927249 L116.996,178.981249 L115.882,179.034249 L114.769,179.081249 L113.653,179.128249 L112.538,179.175249 L111.426,179.222249 L110.314,179.261249 L109.2,179.300249 L108.085,179.339249 L106.974,179.378249 L105.864,179.408249 L104.75,179.438249 L103.637,179.468249 L102.527,179.497249 L101.419,179.516249 L100.307,179.534249 L99.195,179.553249 L98.088,179.571249 L96.982,179.577249 L95.871,179.582249 L94.76,179.587249 L93.648,179.592249 L93.124,179.597249 L92.531,179.615249 L91.878,179.644249 L91.173,179.683249 L90.412,179.730249 L89.598,179.785249 L88.738,179.846249 L87.8306,179.914249 L86.8788,179.986249 L85.8893,180.062249 L84.8609,180.141249 L83.7973,180.221249 L82.6893,180.302249 L81.5825,180.383249 L80.4208,180.461249 L79.2603,180.540249 L78.058,180.612249 L76.8563,180.683249 L75.6273,180.745249 L74.3997,180.807249 L73.1536,180.855249 L71.9087,180.901249 L70.6586,180.929249 L69.4073,180.957249 L68.1632,180.969249 L66.9247,180.969249 L65.6961,180.956249 L64.4796,180.929249 L63.2798,180.887249 L62.0991,180.828249 L60.9392,180.754249 L59.8057,180.661249 L58.7007,180.548249 L57.6254,180.416249 L56.5865,180.264249 L55.5859,180.090249 L54.624,179.895249 L53.7091,179.677249 L52.8423,179.435249 L52.0238,179.172249 L51.2635,178.884249 L50.5612,178.572249 L49.9168,178.239249 L49.3411,177.884249 L48.8314,177.506249 L48.3862,177.110249 L48.0145,176.697249 L47.704,176.252249 L47.4457,175.792249 L47.1985,175.260249 L46.9664,174.662249 L46.7498,174.010249 L46.5519,173.302249 L46.3716,172.540249 L46.2078,171.732249 L46.0621,170.878249 L45.9337,169.978249 L45.8207,169.042249 L45.7244,168.068249 L45.6441,167.060249 L45.5842,166.003249 L45.5255,164.949249 L45.495,163.842249 L45.4644,162.733249 L45.4587,161.582249 L45.453,160.429249 L45.4675,159.247249 L45.482,158.065249 L45.5158,156.860249 L45.5496,155.655249 L45.5996,154.438249 L45.6491,153.220249 L45.7093,152.001249 L45.7694,150.781249 L45.84,149.570249 L45.9107,148.358249 L45.9885,147.165249 L46.0665,145.971249 L46.1476,144.797249 L46.2303,143.639249 L46.3138,142.500249 L46.3972,141.382249 L46.4783,140.287249 L46.5564,139.219249 L46.6326,138.178249 L46.7059,137.168249 L46.7756,136.193249 L46.8412,135.252249 L46.9019,134.349249 L46.9566,133.488249 L47.0053,132.667249 L47.0468,131.893249 L47.0802,131.166249 L47.1055,130.486249 L47.1213,129.857249 L47.1265,129.290249 L47.1348,127.812249 L47.143,126.335249 L47.1512,124.858249 L47.1595,123.386249 L47.184,121.916249 L47.2085,120.441249 L47.233,118.966249 L47.2574,117.496249 L47.2961,116.027249 L47.335,114.553249 L47.374,113.079249 L47.4129,111.609249 L47.4632,110.140249 L47.5136,108.667249 L47.5639,107.195249 L47.6141,105.726249 L47.6751,104.257249 L47.7361,102.786249 L47.7978,101.314249 L47.8594,99.8452494 L47.9298,98.3772494 L48.0002,96.9052494 L48.0707,95.4342494 L48.141,93.9662494 L48.22,92.4982494 L48.2991,91.0272494 L48.3783,89.5562494 L48.4574,88.0852494 L48.5366,86.6142494 L48.6157,85.1432494 L48.6949,83.6722494 L48.7739,82.2032494 L48.8597,80.7342494 L48.9457,79.2632494 L49.0317,77.7912494 L49.1176,76.3202494 L49.2036,74.8482494 L49.2896,73.3762494 L49.3756,71.9052494 L49.4616,70.4332494 L49.5463,68.9592494 L49.631,67.4862494 L49.7158,66.0122494 L49.8005,64.5392494 L49.886,63.0662494 L49.9717,61.5922494 L50.0574,60.1192494 L50.1445,58.6032494 L50.0916,57.5262494 L49.841,56.4292494 L49.4662,55.3732494 L49.0255,54.3502494 L48.5568,53.3612494 L48.1068,52.4102494 L47.9065,51.9662494 L47.7262,51.5362494 L47.5726,51.1272494 L47.4483,50.7432494 L47.3602,50.3932494 L47.3091,50.0782494 L47.2913,49.8012494 L47.3066,49.5762494 L47.3521,49.3822494 L47.4208,49.2132494 L47.5213,49.0602494 L47.6916,48.8852494 L47.6181,48.9402494 L47.676,48.9192494 L47.8531,48.8762494 L48.1147,48.8322494 L48.4502,48.7972494 L48.8547,48.7732494 L49.3141,48.7612494 L49.8268,48.7622494 L50.3904,48.7762494 L50.9962,48.8002494 L51.644,48.8372494 L52.3204,48.8832494 L53.8581,49.0242494 L55.3882,49.1642494 L57.1138,49.3682494 L58.8439,49.5732494 L60.6749,49.8182494 L62.5101,50.0642494 L64.3648,50.3252494 L66.2109,50.5932494 L68.0242,50.8602494 L68.9131,50.9912494 L69.7864,51.1212494 L70.6408,51.2482494 L71.4758,51.3732494 L72.2869,51.4932494 L73.0712,51.6082494 L73.8289,51.7192494 L74.5549,51.8242494 L75.2462,51.9222494 L75.904,52.0142494 L76.5226,52.0982494 L77.0992,52.1732494 L77.6357,52.2402494 L78.1268,52.2972494 L78.5695,52.3442494 L78.9685,52.3812494 L79.3211,52.4062494 L79.6255,52.4182494 L80.6386,52.4362494 L81.6464,52.4552494 L82.6543,52.4732494 L83.6621,52.4902494 L84.6699,52.5082494 L85.6778,52.5272494 L86.6856,52.5442494 L87.6935,52.5622494 L88.701,52.5802494 L89.709,52.5982494 L90.717,52.6162494 L91.725,52.6342494 L92.733,52.6522494 L93.74,52.6702494 L94.748,52.6882494 L95.756,52.7062494 L96.764,52.7242494 L97.772,52.7422494 L98.78,52.7602494 L99.788,52.7782494 L100.795,52.7962494 L101.803,52.8142494 L102.811,52.8322494 L103.819,52.8502494 L104.827,52.8682494 L105.835,52.8862494 L106.842,52.9042494 L107.85,52.9212494 L108.858,52.9392494 L109.866,52.9562494 L110.874,52.9742494 L111.883,52.9922494 L112.893,53.0072494 L113.901,53.0212494 L114.909,53.0362494 L115.917,53.0512494 L116.925,53.0662494 L117.933,53.0812494 L118.941,53.0962494 L119.949,53.1112494 L120.957,53.1252494 L121.965,53.1402494 L122.973,53.1542494 L123.981,53.1692494 L124.989,53.1842494 L125.997,53.1982494 L127.005,53.2132494 L128.013,53.2282494 L129.021,53.2422494 L130.029,53.2572494 L131.037,53.2722494 L132.045,53.2862494 L133.053,53.3012494 L134.061,53.3162494 L135.069,53.3302494 L136.077,53.3452494 L137.085,53.3602494 L138.093,53.3742494 L139.101,53.3892494 L140.109,53.4032494 L141.117,53.4182494 L142.125,53.4332494 L143.133,53.4472494 L144.141,53.4622494 L145.149,53.4762494 L146.157,53.4912494 L147.165,53.5052494 L148.173,53.5192494 L149.181,53.5332494 L150.188,53.5482494 L151.196,53.5622494 L152.204,53.5762494 L153.212,53.5902494 L154.22,53.6042494 L155.228,53.6182494 L156.236,53.6322494 L157.244,53.6472494 L158.252,53.6612494 L159.26,53.6752494 L160.268,53.6892494 L161.276,53.7032494 L162.284,53.7172494 L163.292,53.7322494 L164.3,53.7462494 L165.308,53.7602494 L166.316,53.7742494 L167.324,53.7882494 L168.332,53.8022494 L169.34,53.8162494 L170.348,53.8302494 L171.355,53.8442494 L172.363,53.8582494 L173.371,53.8722494 L174.379,53.8852494 L175.387,53.8992494 L176.396,53.9132494 L176.644,53.9152494 L176.942,53.9162494 L177.287,53.9152494 L177.675,53.9132494 L178.109,53.9092494 L178.59,53.9032494 L179.11,53.8972494 L179.675,53.8882494 L180.282,53.8792494 L180.927,53.8682494 L181.612,53.8552494 L182.337,53.8422494 L183.096,53.8272494 L183.893,53.8112494 L184.726,53.7942494 L185.59,53.7752494 L186.489,53.7562494 L187.42,53.7352494 L188.379,53.7132494 L189.37,53.6912494 L190.389,53.6672494 L191.434,53.6432494 L192.506,53.6172494 L193.604,53.5912494 L194.736,53.5632494 L195.867,53.5362494 L197.044,53.5072494 L198.22,53.4772494 L199.438,53.4472494 L200.655,53.4172494 L201.905,53.3852494 L203.155,53.3532494 L204.436,53.3202494 L205.718,53.2882494 L207.026,53.2542494 L208.335,53.2202494 L209.672,53.1882494 L211.01,53.1552494 L212.347,53.1232494 L213.684,53.0912494 L215.05,53.0572494 L216.415,53.0242494 L217.78,52.9902494 L219.145,52.9572494 L220.518,52.9232494 L221.892,52.8912494 L223.265,52.8612494 L224.638,52.8312494 L226.007,52.8002494 L227.376,52.7702494 L228.736,52.7402494 L230.096,52.7102494 L231.442,52.6802494 L232.788,52.6502494 L234.118,52.6202494 L235.447,52.5892494 L236.754,52.5582494 L238.062,52.5282494 L239.341,52.4982494 L240.621,52.4682494 L241.872,52.4382494 L243.122,52.4092494 L244.337,52.3812494 L245.552,52.3522494 L246.726,52.3242494 L247.899,52.2962494 L249.043,52.2682494 L250.162,52.2402494 L251.257,52.2132494 L252.328,52.1872494 L253.371,52.1612494 L254.387,52.1362494 L255.376,52.1122494 L256.334,52.0892494 L257.26,52.0662494 L258.157,52.0452494 L259.019,52.0242494 L259.847,52.0042494 L260.641,51.9852494 L261.398,51.9662494 L262.117,51.9492494 L262.8,51.9332494 L263.442,51.9182494 L264.042,51.9042494 L264.602,51.8912494 L265.119,51.8802494 L265.59,51.8692494 L266.019,51.8602494 L266.4,51.8522494 L266.731,51.8462494 L267.017,51.8402494 L267.251,51.8372494 L267.431,51.8342494 L267.557,51.8332494 L267.628,51.8332494 L267.533,51.8302494 L267.534,51.8302494 L267.535,51.8302494 L267.536,51.8302494 L267.538,51.8302494 L267.54,51.8302494 L267.542,51.8312494 L267.545,51.8312494 L266.96,51.6642494 L266.61,51.4022494 L266.512,51.2912494 L266.474,51.2402494 L266.459,51.2182494 L266.456,51.2132494 L266.46,51.2202494 L266.469,51.2362494 L266.486,51.2642494 L266.503,51.2942494 L266.518,51.3202494 L266.531,51.3422494 L266.541,51.3592494 L266.548,51.3722494 L266.553,51.3812494 L266.556,51.3852494 L266.487,51.2522494 L266.619,51.5432494 L266.737,51.8702494 L266.86,52.2732494 L266.985,52.7512494 L267.109,53.3032494 L267.231,53.9172494 L267.35,54.5942494 L267.465,55.3352494 L267.577,56.1302494 L267.685,56.9832494 L267.789,57.8912494 L267.889,58.8492494 L267.984,59.8592494 L268.076,60.9202494 L268.163,62.0262494 L268.247,63.1792494 L268.326,64.3782494 L268.402,65.6172494 L268.474,66.9002494 L268.542,68.2242494 L268.607,69.5842494 L268.668,70.9832494 L268.725,72.4202494 L268.779,73.8892494 L268.829,75.3922494 L268.876,76.9282494 L268.92,78.4922494 L268.96,80.0872494 L268.997,81.7102494 L269.029,83.3712494 L269.062,85.0312494 L269.088,86.7392494 L269.114,88.4482494 L269.134,90.2002494 L269.154,91.9512494 L269.166,93.7512494 L269.179,95.5542494 L269.191,97.3582494 L269.204,99.1562494 L269.206,101.008249 L269.208,102.865249 L269.21,104.722249 L269.212,106.575249 L269.206,108.456249 L269.2,110.342249 L269.193,112.228249 L269.187,114.111249 L269.175,116.002249 L269.163,117.894249 L269.148,119.784249 L269.132,121.674249 L269.113,123.557249 L269.095,125.440249 L269.073,127.311249 L269.051,129.183249 L269.027,131.036249 L269.002,132.889249 L268.975,134.718249 L268.948,136.547249 L268.918,138.349249 L268.889,140.151249 L268.857,141.918249 L268.826,143.685249 L268.793,145.411249 L268.76,147.138249 L268.725,148.833249 L268.691,150.504249 L268.655,152.148249 L268.619,153.768249 L268.583,155.360249 L268.546,156.921249 L268.508,158.453249 L268.471,159.953249 L268.433,161.418249 L268.396,162.850249 L268.358,164.246249 L268.32,165.603249 L268.282,166.924249 L268.245,168.203249 L268.208,169.440249 L268.171,170.636249 L268.134,171.787249 L268.098,172.891249 L268.062,173.952249 L268.027,174.962249 L267.993,175.921249 L267.959,176.832249 L267.926,177.689249 L267.894,178.491249 L267.862,179.241249 L267.832,179.933249 L267.803,180.564249 L267.775,181.139249 L267.748,181.651249 L267.723,182.101249 C267.673,183.003249 268.363,183.775249 269.265,183.825249 C270.167,183.875249 270.938,183.185249 270.988,182.283249 Z" id="Fill-216"></path>
            <path d="M21.9122,194.598249 C96.692,189.956249 170.728,190.881249 245.478,194.181249 C247.139,194.254249 330.043,196.180249 301.872,195.014249" id="Fill-217"></path>
            <path d="M22.0089,196.230249 L23.1768,196.158249 L24.3445,196.087249 L25.5124,196.015249 L26.6802,195.943249 L27.8481,195.872249 L29.0159,195.800249 L30.1838,195.728249 L31.3467,195.657249 L32.5086,195.593249 L33.6755,195.528249 L34.8425,195.464249 L36.0094,195.399249 L37.1763,195.335249 L38.3433,195.270249 L39.5103,195.206249 L40.6724,195.142249 L41.8337,195.085249 L42.9998,195.028249 L44.1659,194.970249 L45.332,194.913249 L46.4982,194.856249 L47.6642,194.799249 L48.8304,194.741249 L49.9923,194.684249 L51.1535,194.633249 L52.319,194.582249 L53.4844,194.530249 L54.6498,194.479249 L55.8152,194.427249 L56.9807,194.376249 L58.1461,194.323249 L59.3069,194.271249 L60.4672,194.226249 L61.632,194.180249 L62.7967,194.134249 L63.9614,194.089249 L65.1262,194.043249 L66.2909,193.997249 L67.4556,193.952249 L68.6162,193.906249 L69.7761,193.867249 L70.9402,193.828249 L72.1044,193.789249 L73.2686,193.750249 L74.4327,193.711249 L75.5969,193.671249 L76.761,193.631249 L77.9214,193.590249 L79.0814,193.556249 L80.2451,193.521249 L81.4088,193.486249 L82.5725,193.450249 L83.7361,193.415249 L84.8998,193.380249 L86.0635,193.344249 L87.2233,193.308249 L88.383,193.278249 L89.546,193.248249 L90.709,193.219249 L91.872,193.189249 L93.036,193.156249 L94.199,193.123249 L95.362,193.090249 L96.522,193.057249 L97.681,193.030249 L98.844,193.001249 L100.007,192.971249 L101.17,192.942249 L102.333,192.912249 L103.495,192.883249 L104.658,192.860249 L105.818,192.837249 L106.978,192.820249 L108.141,192.803249 L109.304,192.786249 L110.467,192.773249 L111.629,192.761249 L112.792,192.749249 L113.955,192.737249 L115.115,192.724249 L116.274,192.718249 L117.437,192.711249 L118.599,192.705249 L119.762,192.698249 L120.925,192.692249 L122.087,192.685249 L123.25,192.678249 L124.41,192.671249 L125.569,192.670249 L126.732,192.668249 L127.894,192.666249 L129.057,192.664249 L130.219,192.662249 L131.382,192.659249 L132.544,192.657249 L133.704,192.655249 L134.864,192.657249 L136.027,192.660249 L137.189,192.662249 L138.352,192.665249 L139.514,192.666249 L140.677,192.667249 L141.839,192.668249 L142.999,192.669249 L144.159,192.675249 L145.322,192.681249 L146.484,192.687249 L147.647,192.694249 L148.809,192.700249 L149.972,192.706249 L151.135,192.712249 L152.295,192.717249 L153.455,192.728249 L154.618,192.738249 L155.78,192.749249 L156.943,192.758249 L158.106,192.768249 L159.269,192.778249 L160.431,192.788249 L161.592,192.797249 L162.753,192.811249 L163.916,192.825249 L165.079,192.839249 L166.242,192.853249 L167.405,192.867249 L168.568,192.881249 L169.731,192.895249 L170.891,192.909249 L172.053,192.927249 L173.216,192.946249 L174.379,192.965249 L175.543,192.983249 L176.706,193.002249 L177.869,193.020249 L179.032,193.039249 L180.194,193.058249 L181.355,193.082249 L182.519,193.106249 L183.683,193.130249 L184.847,193.153249 L186.01,193.178249 L187.174,193.202249 L188.338,193.226249 L189.5,193.250249 L190.662,193.278249 L191.826,193.307249 L192.99,193.337249 L194.154,193.367249 L195.318,193.396249 L196.482,193.426249 L197.646,193.456249 L198.809,193.486249 L199.972,193.519249 L201.136,193.553249 L202.301,193.587249 L203.466,193.621249 L204.63,193.654249 L205.795,193.688249 L206.959,193.722249 L208.122,193.756249 L209.286,193.794249 L210.451,193.833249 L211.617,193.872249 L212.782,193.911249 L213.947,193.950249 L215.112,193.989249 L216.277,194.028249 L217.441,194.067249 L218.606,194.110249 L219.772,194.153249 L220.938,194.195249 L222.103,194.238249 L223.269,194.280249 L224.435,194.323249 L225.601,194.365249 L226.766,194.403249 L227.931,194.442249 L229.098,194.481249 L230.265,194.520249 L231.432,194.559249 L232.599,194.596249 L233.766,194.631249 L234.933,194.665249 L236.099,194.700249 L237.266,194.739249 L238.434,194.779249 L239.602,194.821249 L240.77,194.863249 L241.938,194.904249 L243.105,194.946249 L244.273,194.989249 L245.441,195.033249 L245.526,195.036249 L245.658,195.039249 L245.842,195.043249 L246.07,195.049249 L246.347,195.054249 L246.672,195.061249 L247.04,195.069249 L247.452,195.077249 L247.908,195.085249 L248.402,195.095249 L248.938,195.105249 L249.513,195.116249 L250.123,195.128249 L250.771,195.141249 L251.454,195.154249 L252.168,195.168249 L252.915,195.183249 L253.694,195.197249 L254.5,195.213249 L255.336,195.229249 L256.199,195.246249 L257.086,195.263249 L257.998,195.281249 L258.934,195.299249 L260.864,195.336249 L261.869,195.356249 L262.874,195.376249 L263.912,195.396249 L264.95,195.416249 L266.015,195.437249 L267.079,195.457249 L268.166,195.478249 L269.253,195.499249 L270.358,195.519249 L271.463,195.540249 L272.579,195.561249 L273.695,195.582249 L274.818,195.603249 L275.941,195.623249 L277.065,195.644249 L278.189,195.664249 L279.31,195.685249 L280.431,195.706249 L281.542,195.726249 L282.654,195.746249 L283.751,195.766249 L284.848,195.786249 L285.926,195.805249 L287.005,195.825249 L288.058,195.843249 L289.112,195.862249 L290.134,195.879249 L291.157,195.896249 L293.136,195.929249 L295.033,195.959249 L296.835,195.986249 L297.701,195.998249 L298.54,196.010249 L299.35,196.021249 L300.132,196.031249 L300.883,196.040249 L301.601,196.048249 L302.288,196.056249 L302.94,196.062249 L303.555,196.067249 L304.135,196.071249 L304.676,196.074249 L305.176,196.076249 L305.638,196.077249 L306.056,196.077249 L306.43,196.075249 L306.763,196.072249 L307.05,196.069249 L307.29,196.063249 L307.488,196.056249 L307.647,196.046249 L307.753,196.035249 L307.889,196.005249 L307.889,196.005249 L307.89,196.005249 L307.89,196.005249 L307.891,196.005249 L307.891,196.004249 L307.892,196.004249 L307.893,196.004249 L307.894,196.004249 L307.895,196.003249 L307.896,196.003249 L307.898,196.002249 L307.899,196.002249 L307.901,196.001249 L307.903,196.001249 L307.905,196.000249 L307.918,195.995249 L307.947,195.985249 L307.981,195.970249 L308.023,195.949249 L308.074,195.919249 L308.138,195.872249 L308.213,195.799249 L308.295,195.686249 L308.363,195.523249 L308.387,195.323249 L308.354,195.130249 L308.286,194.981249 L308.211,194.881249 L308.143,194.815249 L308.087,194.772249 L308.041,194.743249 L308.021,194.732249 L308.019,194.731249 L308.018,194.731249 L308.017,194.730249 L308.016,194.729249 L308.015,194.729249 L308.014,194.728249 L308.013,194.728249 L308.012,194.727249 L308.012,194.727249 L308.011,194.727249 L308.011,194.727249 L308.01,194.726249 L308.01,194.726249 L308.01,194.726249 L308.01,194.726249 L307.803,194.655249 L307.699,194.637249 L307.54,194.619249 L307.334,194.601249 L307.073,194.582249 L306.757,194.562249 L306.379,194.540249 L305.936,194.516249 L305.434,194.491249 L304.864,194.464249 L304.225,194.436249 L303.522,194.405249 L302.748,194.373249 L301.901,194.339249 C301.528,194.323249 301.213,194.613249 301.197,194.986249 C301.181,195.359249 301.471,195.674249 301.844,195.690249 L302.69,195.727249 L303.463,195.761249 L304.163,195.794249 L304.799,195.825249 L305.365,195.853249 L305.864,195.880249 L306.301,195.904249 L306.672,195.927249 L306.978,195.948249 L307.224,195.966249 L307.404,195.983249 L307.512,195.996249 L307.568,196.006249 L307.361,195.935249 L307.361,195.935249 L307.362,195.935249 L307.362,195.935249 L307.362,195.935249 L307.363,195.935249 L307.363,195.935249 L307.364,195.936249 L307.365,195.936249 L307.365,195.937249 L307.366,195.937249 L307.367,195.938249 L307.368,195.938249 L307.369,195.939249 L307.371,195.940249 L307.372,195.940249 L307.354,195.930249 L307.311,195.903249 L307.257,195.862249 L307.191,195.798249 L307.117,195.698249 L307.049,195.551249 L307.016,195.360249 L307.04,195.161249 L307.108,194.999249 L307.189,194.888249 L307.263,194.816249 L307.324,194.771249 L307.373,194.742249 L307.412,194.723249 L307.443,194.709249 L307.468,194.700249 L307.478,194.697249 L307.476,194.697249 L307.474,194.698249 L307.472,194.698249 L307.471,194.699249 L307.469,194.699249 L307.468,194.700249 L307.467,194.700249 L307.466,194.701249 L307.465,194.701249 L307.464,194.701249 L307.464,194.701249 L307.463,194.701249 L307.463,194.702249 L307.463,194.702249 L307.462,194.702249 L307.599,194.672249 L307.54,194.679249 L307.428,194.685249 L307.253,194.691249 L307.027,194.695249 L306.75,194.698249 L306.424,194.700249 L306.055,194.700249 L305.641,194.699249 L305.182,194.696249 L304.685,194.693249 L304.146,194.688249 L303.568,194.682249 L302.955,194.675249 L302.305,194.666249 L301.619,194.657249 L300.902,194.646249 L300.152,194.635249 L299.37,194.622249 L298.561,194.609249 L297.723,194.594249 L296.858,194.579249 L295.057,194.546249 L293.161,194.509249 L291.183,194.470249 L290.161,194.449249 L289.139,194.429249 L288.086,194.407249 L287.033,194.385249 L285.955,194.362249 L284.876,194.339249 L283.78,194.315249 L282.683,194.291249 L281.572,194.266249 L280.461,194.241249 L279.34,194.216249 L278.22,194.190249 L277.096,194.163249 L275.972,194.136249 L274.849,194.109249 L273.727,194.082249 L272.611,194.055249 L271.495,194.028249 L270.391,194.001249 L269.287,193.974249 L268.2,193.947249 L267.113,193.920249 L266.049,193.893249 L264.985,193.867249 L263.947,193.841249 L262.909,193.815249 L261.904,193.789249 L260.9,193.764249 L258.97,193.713249 L258.035,193.688249 L257.123,193.664249 L256.236,193.641249 L255.373,193.618249 L254.538,193.595249 L253.732,193.572249 L252.953,193.551249 L252.207,193.530249 L251.493,193.510249 L250.81,193.491249 L250.163,193.473249 L249.553,193.455249 L248.979,193.438249 L248.443,193.422249 L247.949,193.407249 L247.494,193.393249 L247.082,193.381249 L246.716,193.369249 L246.392,193.359249 L246.116,193.350249 L245.889,193.343249 L245.709,193.337249 L245.583,193.332249 L245.514,193.329249 L244.347,193.272249 L243.18,193.215249 L242.012,193.157249 L240.845,193.098249 L239.678,193.040249 L238.511,192.982249 L237.344,192.922249 L236.175,192.860249 L235.008,192.802249 L233.842,192.743249 L232.676,192.685249 L231.509,192.627249 L230.343,192.573249 L229.177,192.518249 L228.01,192.464249 L226.842,192.410249 L225.675,192.361249 L224.509,192.317249 L223.344,192.274249 L222.178,192.230249 L221.012,192.186249 L219.846,192.142249 L218.68,192.099249 L217.513,192.055249 L216.346,192.014249 L215.181,191.974249 L214.016,191.934249 L212.851,191.893249 L211.686,191.852249 L210.52,191.811249 L209.355,191.771249 L208.188,191.730249 L207.022,191.692249 L205.858,191.653249 L204.693,191.616249 L203.529,191.578249 L202.364,191.540249 L201.199,191.502249 L200.035,191.464249 L198.869,191.426249 L197.703,191.392249 L196.539,191.358249 L195.375,191.324249 L194.211,191.290249 L193.047,191.256249 L191.883,191.222249 L190.719,191.188249 L189.553,191.152249 L188.388,191.121249 L187.225,191.089249 L186.061,191.057249 L184.898,191.025249 L183.734,190.993249 L182.571,190.961249 L181.407,190.929249 L180.241,190.897249 L179.076,190.870249 L177.913,190.841249 L176.75,190.813249 L175.587,190.784249 L174.424,190.756249 L173.261,190.727249 L172.098,190.699249 L170.932,190.671249 L169.767,190.647249 L168.604,190.623249 L167.442,190.599249 L166.279,190.576249 L165.116,190.552249 L163.953,190.528249 L162.79,190.504249 L161.625,190.480249 L160.46,190.461249 L159.298,190.442249 L158.135,190.422249 L156.972,190.403249 L155.81,190.383249 L154.647,190.365249 L153.484,190.347249 L152.319,190.328249 L151.154,190.315249 L149.992,190.301249 L148.829,190.288249 L147.667,190.275249 L146.504,190.262249 L145.342,190.249249 L144.179,190.237249 L143.014,190.224249 L141.849,190.216249 L140.686,190.208249 L139.524,190.200249 L138.361,190.193249 L137.199,190.186249 L136.036,190.180249 L134.874,190.174249 L133.708,190.167249 L132.543,190.166249 L131.381,190.164249 L130.218,190.163249 L129.056,190.162249 L127.893,190.161249 L126.731,190.160249 L125.568,190.159249 L124.403,190.158249 L123.237,190.164249 L122.074,190.168249 L120.912,190.174249 L119.749,190.179249 L118.587,190.185249 L117.424,190.190249 L116.261,190.195249 L115.096,190.201249 L113.93,190.212249 L112.767,190.223249 L111.604,190.234249 L110.441,190.245249 L109.278,190.256249 L108.116,190.262249 L106.953,190.268249 L105.787,190.274249 L104.621,190.286249 L103.458,190.297249 L102.294,190.301249 L101.131,190.306249 L99.968,190.310249 L98.805,190.315249 L97.642,190.319249 L96.475,190.326249 L95.308,190.340249 L94.144,190.353249 L92.98,190.366249 L91.817,190.379249 L90.653,190.395249 L89.49,190.411249 L88.326,190.428249 L87.1589,190.444249 L85.9911,190.466249 L84.8272,190.489249 L83.6631,190.513249 L82.4991,190.536249 L81.3352,190.559249 L80.1712,190.582249 L79.0073,190.606249 L77.8396,190.630249 L76.6714,190.660249 L75.507,190.690249 L74.3426,190.720249 L73.1782,190.751249 L72.0137,190.782249 L70.8493,190.813249 L69.6849,190.844249 L68.5162,190.875249 L67.347,190.913249 L66.1819,190.951249 L65.0169,190.989249 L63.8519,191.026249 L62.6869,191.064249 L61.5219,191.102249 L60.3569,191.139249 L59.1874,191.177249 L58.0172,191.222249 L56.8514,191.266249 L55.6858,191.312249 L54.5201,191.357249 L53.3544,191.403249 L52.1887,191.448249 L51.023,191.493249 L49.8532,191.539249 L48.6826,191.592249 L47.5162,191.644249 L46.3499,191.696249 L45.1835,191.748249 L44.0171,191.800249 L42.8508,191.853249 L41.6844,191.905249 L40.5132,191.957249 L39.3412,192.017249 L38.174,192.076249 L37.0068,192.135249 L35.8395,192.195249 L34.6724,192.254249 L33.5051,192.313249 L32.338,192.372249 L31.1657,192.432249 L29.9926,192.499249 L28.8245,192.566249 L27.6563,192.632249 L26.4882,192.699249 L25.32,192.765249 L24.1519,192.832249 L22.9837,192.899249 L21.8156,192.965249 C20.9139,193.018249 20.2263,193.793249 20.2797,194.694249 C20.3331,195.596249 21.1073,196.284249 22.0089,196.230249 Z" id="Fill-218"></path>
            <path d="M37.5215,202.933249 C129.39,190.878249 228.051,190.217249 321.006,198.765249" id="Fill-219"></path>
            <path d="M37.7301,204.555249 L39.1672,204.367249 L40.6043,204.179249 L42.0414,203.991249 L43.4739,203.803249 L44.911,203.623249 L46.3525,203.443249 L47.7939,203.262249 L49.231,203.082249 L50.6724,202.910249 L52.118,202.737249 L53.5638,202.564249 L55.0056,202.391249 L56.451,202.226249 L57.9004,202.060249 L59.3498,201.894249 L60.7949,201.728249 L62.244,201.570249 L63.6972,201.411249 L65.1505,201.253249 L66.5996,201.094249 L68.0523,200.943249 L69.5092,200.791249 L70.9661,200.640249 L72.4193,200.488249 L73.8756,200.342249 L75.3355,200.196249 L76.7955,200.050249 L78.2515,199.904249 L79.7109,199.766249 L81.1743,199.627249 L82.6376,199.488249 L84.0971,199.350249 L85.5598,199.219249 L87.0263,199.088249 L88.493,198.956249 L89.956,198.824249 L91.422,198.698249 L92.891,198.571249 L94.36,198.445249 L95.825,198.318249 L97.293,198.198249 L98.765,198.078249 L100.237,197.958249 L101.705,197.837249 L103.176,197.724249 L104.651,197.610249 L106.125,197.494249 L107.596,197.377249 L109.07,197.266249 L110.546,197.155249 L112.023,197.041249 L113.496,196.927249 L114.971,196.820249 L116.45,196.713249 L117.929,196.613249 L119.405,196.515249 L120.883,196.424249 L122.365,196.333249 L123.846,196.248249 L125.325,196.164249 L126.806,196.086249 L128.29,196.008249 L129.773,195.931249 L131.254,195.853249 L132.736,195.782249 L134.221,195.711249 L135.706,195.640249 L137.189,195.569249 L138.672,195.505249 L140.159,195.440249 L141.646,195.375249 L143.13,195.310249 L144.616,195.251249 L146.104,195.193249 L147.592,195.134249 L149.077,195.075249 L150.563,195.023249 L152.053,194.969249 L153.542,194.916249 L155.028,194.862249 L156.516,194.815249 L158.006,194.768249 L159.497,194.722249 L160.984,194.675249 L162.473,194.634249 L163.964,194.593249 L165.455,194.552249 L166.944,194.511249 L168.433,194.476249 L169.925,194.441249 L171.417,194.406249 L172.906,194.370249 L174.396,194.342249 L175.888,194.313249 L177.381,194.285249 L178.871,194.257249 L180.361,194.234249 L181.854,194.212249 L183.347,194.190249 L184.837,194.168249 L186.328,194.153249 L187.821,194.137249 L189.314,194.122249 L190.804,194.107249 L192.295,194.100249 L193.788,194.092249 L195.281,194.085249 L196.772,194.078249 L198.263,194.077249 L199.756,194.076249 L201.249,194.076249 L202.739,194.076249 L204.229,194.084249 L205.722,194.093249 L207.215,194.101249 L208.705,194.109249 L210.195,194.124249 L211.687,194.139249 L213.179,194.154249 L214.669,194.169249 L216.159,194.190249 L217.65,194.212249 L219.142,194.233249 L220.631,194.256249 L222.119,194.285249 L223.61,194.314249 L225.101,194.344249 L226.589,194.374249 L228.077,194.410249 L229.566,194.447249 L231.056,194.483249 L232.543,194.520249 L234.03,194.562249 L235.518,194.605249 L237.007,194.641249 L238.494,194.674249 L239.979,194.713249 L241.466,194.753249 L242.954,194.788249 L244.44,194.822249 L245.924,194.863249 L247.41,194.905249 L248.896,194.951249 L250.38,194.996249 L251.863,195.048249 L253.347,195.100249 L254.831,195.154249 L256.314,195.208249 L257.794,195.269249 L259.277,195.330249 L260.759,195.393249 L262.24,195.455249 L263.718,195.524249 L265.199,195.593249 L266.679,195.664249 L268.158,195.734249 L269.634,195.810249 L271.112,195.886249 L272.591,195.964249 L274.067,196.040249 L275.541,196.124249 L277.017,196.207249 L278.493,196.291249 L279.967,196.374249 L281.438,196.464249 L282.912,196.554249 L284.385,196.644249 L285.856,196.734249 L287.325,196.829249 L288.796,196.926249 L290.267,197.023249 L291.736,197.120249 L293.202,197.223249 L294.669,197.327249 L296.137,197.431249 L297.603,197.535249 L299.066,197.644249 L300.53,197.755249 L301.995,197.865249 L303.458,197.975249 L304.918,198.090249 L306.379,198.206249 L307.841,198.322249 L309.301,198.438249 L310.757,198.560249 L312.215,198.682249 L313.673,198.804249 L315.13,198.926249 L316.583,199.054249 L318.037,199.182249 L319.491,199.310249 L320.946,199.439249 C321.318,199.472249 321.646,199.198249 321.682694,198.826249 C321.713,198.454249 321.439,198.126249 321.067,198.092249 L319.613,197.959249 L318.159,197.826249 L316.705,197.692249 L315.25,197.559249 L313.791,197.432249 L312.333,197.305249 L310.875,197.178249 L309.416,197.050249 L307.954,196.930249 L306.493,196.809249 L305.031,196.688249 L303.569,196.567249 L302.103,196.452249 L300.639,196.337249 L299.175,196.222249 L297.71,196.107249 L296.241,195.997249 L294.773,195.889249 L293.306,195.780249 L291.837,195.671249 L290.366,195.568249 L288.895,195.465249 L287.425,195.362249 L285.954,195.258249 L284.479,195.159249 L283.007,195.061249 L281.534,194.962249 L280.06,194.864249 L278.583,194.771249 L277.108,194.679249 L275.632,194.587249 L274.156,194.495249 L272.676,194.409249 L271.198,194.324249 L269.721,194.238249 L268.241,194.151249 L266.76,194.070249 L265.28,193.989249 L263.801,193.908249 L262.319,193.826249 L260.836,193.750249 L259.354,193.675249 L257.872,193.599249 L256.389,193.521249 L254.903,193.450249 L253.419,193.379249 L251.936,193.307249 L250.451,193.233249 L248.964,193.166249 L247.479,193.099249 L245.994,193.027249 L244.506,192.955249 L243.018,192.890249 L241.531,192.825249 L240.044,192.765249 L238.555,192.705249 L237.065,192.651249 L235.577,192.600249 L234.088,192.556249 L232.598,192.512249 L231.106,192.474249 L229.616,192.435249 L228.127,192.398249 L226.635,192.360249 L225.142,192.328249 L223.651,192.297249 L222.161,192.265249 L220.668,192.233249 L219.174,192.208249 L217.683,192.181249 L216.191,192.155249 L214.698,192.128249 L213.204,192.108249 L211.712,192.087249 L210.219,192.067249 L208.725,192.046249 L207.23,192.032249 L205.737,192.018249 L204.245,192.005249 L202.75,191.991249 L201.255,191.983249 L199.762,191.974249 L198.269,191.965249 L196.774,191.955249 L195.278,191.952249 L193.785,191.949249 L192.292,191.945249 L190.796,191.942249 L189.301,191.945249 L187.808,191.947249 L186.315,191.949249 L184.819,191.952249 L183.323,191.961249 L181.83,191.970249 L180.337,191.980249 L178.842,191.989249 L177.347,192.005249 L175.854,192.020249 L174.362,192.036249 L172.866,192.051249 L171.371,192.074249 L169.879,192.096249 L168.387,192.119249 L166.892,192.142249 L165.398,192.173249 L163.907,192.204249 L162.415,192.234249 L160.921,192.266249 L159.428,192.304249 L157.937,192.341249 L156.447,192.379249 L154.953,192.417249 L153.461,192.462249 L151.971,192.507249 L150.481,192.552249 L148.989,192.599249 L147.498,192.653249 L146.009,192.707249 L144.521,192.761249 L143.03,192.815249 L141.54,192.876249 L140.053,192.936249 L138.566,192.997249 L137.076,193.059249 L135.588,193.128249 L134.103,193.197249 L132.617,193.266249 L131.129,193.335249 L129.642,193.412249 L128.158,193.488249 L126.675,193.565249 L125.188,193.642249 L123.704,193.725249 L122.222,193.807249 L120.74,193.884249 L119.254,193.960249 L117.771,194.044249 L116.291,194.126249 L114.81,194.201249 L113.326,194.275249 L111.844,194.357249 L110.366,194.440249 L108.888,194.526249 L107.406,194.611249 L105.927,194.703249 L104.451,194.797249 L102.975,194.893249 L101.496,194.989249 L100.019,195.093249 L98.546,195.197249 L97.073,195.301249 L95.596,195.405249 L94.122,195.517249 L92.652,195.629249 L91.181,195.742249 L89.708,195.855249 L88.236,195.975249 L86.769,196.096249 L85.3016,196.217249 L83.8302,196.338249 L82.362,196.467249 L80.8976,196.595249 L79.4334,196.724249 L77.965,196.852249 L76.5001,196.989249 L75.0391,197.125249 L73.5781,197.260249 L72.1133,197.397249 L70.6518,197.540249 L69.1941,197.684249 L67.7364,197.828249 L66.2745,197.972249 L64.8163,198.124249 L63.3624,198.276249 L61.9084,198.428249 L60.4501,198.581249 L58.9957,198.741249 L57.5456,198.900249 L56.0955,199.060249 L54.6414,199.220249 L53.191,199.387249 L51.7445,199.553249 L50.298,199.720249 L48.8472,199.887249 L47.4005,200.061249 L45.9581,200.235249 L44.5159,200.409249 L43.0691,200.584249 L41.6266,200.766249 L40.1887,200.948249 L38.7508,201.129249 L37.3129,201.311249 C36.4171,201.426249 35.7843,202.246249 35.8995,203.142249 C36.0147,204.038249 36.8344,204.670249 37.7301,204.555249 Z" id="Fill-220"></path>
            <path d="M275.689,28.7252494 C277.148,23.8942494 283.677,10.0532494 282.738,14.9722494 C274.127,60.1112494 291.763,109.859249 296.837,155.005249 C298.268,167.738249 303.111,204.393249 295.327,193.347249" id="Fill-221"></path>
            <path d="M277.251,29.2112494 L277.343,28.9112494 L277.445,28.5972494 L277.56,28.2582494 L277.686,27.9002494 L277.823,27.5212494 L277.969,27.1292494 L278.293,26.2872494 L278.648,25.4002494 L279.03,24.4762494 L279.431,23.5302494 L279.847,22.5742494 L280.273,21.6202494 L280.702,20.6802494 L281.129,19.7682494 L281.548,18.8982494 L281.954,18.0782494 L282.339,17.3262494 L282.702,16.6502494 L282.865,16.3562494 L283.022,16.0822494 L283.168,15.8372494 L283.301,15.6222494 L283.417,15.4452494 L283.514,15.3082494 L283.583,15.2162494 L283.606,15.1892494 L283.552,15.2372494 L283.32,15.3782494 L282.629,15.5102494 L281.698,15.1222494 L281.319,14.5622494 L281.251,14.2832494 L281.248,14.2302494 L281.244,14.2962494 L281.225,14.4472494 L281.183,14.6942494 L280.934,16.1072494 L280.682,17.5402494 L280.466,18.9792494 L280.249,20.4172494 L280.067,21.8612494 L279.886,23.3022494 L279.734,24.7492494 L279.582,26.1962494 L279.462,27.6492494 L279.341,29.1002494 L279.251,30.5562494 L279.161,32.0102494 L279.097,33.4692494 L279.035,34.9272494 L279.002,36.3912494 L278.969,37.8532494 L278.963,39.3192494 L278.958,40.7842494 L278.977,42.2512494 L278.997,43.7192494 L279.041,45.1912494 L279.087,46.6622494 L279.16,48.1352494 L279.234,49.6072494 L279.33,51.0812494 L279.428,52.5562494 L279.548,54.0322494 L279.657,55.5092494 L279.784,56.9882494 L279.911,58.4662494 L280.046,59.9472494 L280.181,61.4282494 L280.335,62.9112494 L280.488,64.3932494 L280.658,65.8772494 L280.828,67.3612494 L281.013,68.8452494 L281.198,70.3302494 L281.399,71.8152494 L281.6,73.3002494 L281.815,74.7872494 L282.03,76.2722494 L282.256,77.7582494 L282.483,79.2432494 L282.723,80.7292494 L282.964,82.2152494 L283.214,83.7002494 L283.465,85.1872494 L283.727,86.6732494 L283.99,88.1542494 L284.253,89.6352494 L284.517,91.1222494 L284.797,92.6082494 L285.076,94.0872494 L285.355,95.5672494 L285.635,97.0512494 L285.923,98.5322494 L286.212,100.010249 L286.5,101.488249 L286.789,102.967249 L287.083,104.444249 L287.376,105.919249 L287.668,107.394249 L287.96,108.870249 L288.253,110.342249 L288.545,111.813249 L288.838,113.285249 L289.13,114.755249 L289.415,116.221249 L289.701,117.687249 L289.987,119.154249 L290.272,120.619249 L290.55,122.078249 L290.829,123.539249 L291.108,125.000249 L291.386,126.458249 L291.65,127.908249 L291.915,129.363249 L292.18,130.817249 L292.443,132.267249 L292.69,133.708249 L292.937,135.154249 L293.185,136.600249 L293.432,138.040249 L293.666,139.471249 L293.908,140.907249 L294.149,142.343249 L294.395,143.770249 L294.617,145.187249 L294.841,146.612249 L295.058,148.038249 L295.275,149.455249 L295.461,150.861249 L295.646,152.276249 L295.83,153.691249 L296.014,155.103249 L296.112,155.923249 L296.219,156.808249 L296.334,157.749249 L296.455,158.737249 L296.581,159.773249 L296.712,160.852249 L296.846,161.968249 L296.983,163.121249 L297.121,164.305249 L297.26,165.514249 L297.4,166.748249 L297.539,168.001249 L297.676,169.275249 L297.812,170.548249 L297.942,171.838249 L298.072,173.128249 L298.191,174.417249 L298.309,175.706249 L298.414,176.981249 L298.519,178.255249 L298.606,179.497249 L298.693,180.739249 L298.758,181.932249 L298.824,183.126249 L298.873,184.275249 L298.908,185.388249 L298.929,186.460249 L298.937,187.491249 L298.929,188.472249 L298.904,189.400249 L298.863,190.274249 L298.804,191.085249 L298.726,191.828249 L298.632,192.504249 L298.519,193.100249 L298.388,193.610249 L298.245,194.034249 L298.096,194.351249 L297.932,194.588249 L297.892,194.629249 L297.845,194.668249 L297.806,194.692249 L297.777,194.705249 L297.755,194.710249 L297.719,194.711249 L297.667,194.705249 L297.596,194.685249 L297.497,194.643249 L297.378,194.578249 L297.241,194.485249 L297.085,194.360249 L296.914,194.206249 L296.731,194.021249 L296.534,193.802249 L296.326,193.554249 L296.108,193.273249 L295.874,192.951249 C295.655,192.649249 295.233,192.581249 294.93,192.800249 C294.628,193.019249 294.56,193.441249 294.779,193.744249 L295.024,194.083249 L295.268,194.401249 L295.506,194.688249 L295.74,194.951249 L295.971,195.186249 L296.2,195.394249 L296.428,195.578249 L296.66,195.737249 L296.895,195.868249 L297.137,195.971249 L297.392,196.043249 L297.651,196.076249 L297.914,196.069249 L298.176,196.014249 L298.418,195.917249 L298.637,195.786249 L298.835,195.624249 L299.026,195.415249 L299.291,195.029249 L299.521,194.547249 L299.708,194.003249 L299.866,193.401249 L299.997,192.731249 L300.103,191.999249 L300.189,191.210249 L300.255,190.360249 L300.302,189.454249 L300.332,188.500249 L300.345,187.495249 L300.343,186.444249 L300.326,185.354249 L300.296,184.225249 L300.252,183.060249 L300.192,181.857249 L300.131,180.653249 L300.05,179.400249 L299.969,178.148249 L299.87,176.865249 L299.772,175.583249 L299.662,174.287249 L299.553,172.991249 L299.433,171.694249 L299.313,170.398249 L299.187,169.119249 L299.06,167.841249 L298.931,166.582249 L298.801,165.345249 L298.671,164.131249 L298.542,162.944249 L298.416,161.789249 L298.293,160.670249 L298.173,159.588249 L298.058,158.550249 L297.949,157.561249 L297.846,156.620249 L297.75,155.736249 L297.661,154.907249 L297.498,153.487249 L297.336,152.069249 L297.173,150.651249 L297.013,149.225249 L296.824,147.787249 L296.636,146.357249 L296.454,144.926249 L296.27,143.488249 L296.06,142.040249 L295.846,140.600249 L295.632,139.160249 L295.411,137.715249 L295.165,136.262249 L294.919,134.816249 L294.674,133.370249 L294.427,131.918249 L294.164,130.458249 L293.903,129.003249 L293.641,127.548249 L293.38,126.090249 L293.108,124.624249 L292.836,123.162249 L292.565,121.699249 L292.294,120.235249 L292.015,118.765249 L291.737,117.296249 L291.459,115.828249 L291.18,114.359249 L290.902,112.884249 L290.623,111.411249 L290.344,109.937249 L290.066,108.463249 L289.79,106.986249 L289.514,105.508249 L289.238,104.029249 L288.963,102.553249 L288.693,101.074249 L288.423,99.5922494 L288.152,98.1122494 L287.882,96.6342494 L287.622,95.1542494 L287.361,93.6712494 L287.1,92.1882494 L286.84,90.7102494 L286.593,89.2322494 L286.345,87.7482494 L286.096,86.2642494 L285.847,84.7852494 L285.611,83.3072494 L285.374,81.8272494 L285.148,80.3482494 L284.921,78.8692494 L284.704,77.3912494 L284.487,75.9132494 L284.28,74.4362494 L284.073,72.9602494 L283.88,71.4852494 L283.687,70.0102494 L283.507,68.5372494 L283.327,67.0642494 L283.161,65.5922494 L282.994,64.1222494 L282.844,62.6532494 L282.695,61.1852494 L282.563,59.7182494 L282.431,58.2522494 L282.325,56.7872494 L282.219,55.3242494 L282.136,53.8622494 L282.063,52.4022494 L282.011,50.9442494 L281.957,49.4862494 L281.92,48.0312494 L281.883,46.5792494 L281.866,45.1302494 L281.847,43.6812494 L281.852,42.2372494 L281.856,40.7922494 L281.883,39.3512494 L281.909,37.9122494 L281.961,36.4772494 L282.012,35.0432494 L282.09,33.6142494 L282.167,32.1842494 L282.269,30.7582494 L282.371,29.3342494 L282.503,27.9152494 L282.634,26.4972494 L282.796,25.0852494 L282.958,23.6722494 L283.149,22.2632494 L283.339,20.8572494 L283.56,19.4562494 L283.782,18.0572494 L284.036,16.6632494 L284.294,15.2492494 L284.351,14.9272494 L284.393,14.6062494 L284.412,14.2952494 L284.399,13.9472494 L284.288,13.4622494 L283.832,12.7822494 L282.795,12.3482494 L281.968,12.5142494 L281.571,12.7642494 L281.327,12.9872494 L281.133,13.2052494 L280.963,13.4242494 L280.797,13.6562494 L280.629,13.9082494 L280.458,14.1802494 L280.283,14.4712494 L280.1,14.7842494 L279.909,15.1252494 L279.521,15.8392494 L279.107,16.6322494 L278.678,17.4862494 L278.238,18.3842494 L277.791,19.3232494 L277.344,20.2862494 L276.9,21.2642494 L276.466,22.2452494 L276.047,23.2162494 L275.646,24.1682494 L275.271,25.0902494 L274.93,25.9612494 L274.768,26.3862494 L274.618,26.7922494 L274.478,27.1822494 L274.349,27.5562494 L274.23,27.9142494 L274.128,28.2392494 C273.859,29.1012494 274.341,30.0182494 275.203,30.2862494 C276.066,30.5552494 276.982,30.0732494 277.251,29.2112494 Z" id="Fill-222"></path>
            <path d="M292.809,23.7242494 C292.809,85.3012494 313.957,145.313249 313.957,207.101249" id="Fill-223"></path>
            <path d="M291.173963,23.7352494 L291.193,25.6582494 L291.213,27.5932494 L291.259,29.5252494 L291.306,31.4572494 L291.379,33.3872494 L291.452,35.3162494 L291.548,37.2432494 L291.644,39.1702494 L291.763,41.0962494 L291.883,43.0202494 L292.026,44.9442494 L292.171,46.8652494 L292.336,48.7852494 L292.501,50.7052494 L292.686,52.6242494 L292.871,54.5422494 L293.075,56.4582494 L293.282,58.3742494 L293.505,60.2882494 L293.73,62.2012494 L293.973,64.1132494 L294.217,66.0252494 L294.477,67.9352494 L294.743,69.8432494 L295.024,71.7502494 L295.311,73.6562494 L295.61,75.5622494 L295.892,77.4682494 L296.184,79.3752494 L296.465,81.2822494 L296.755,83.1882494 L297.046,85.0952494 L297.346,87.0012494 L297.647,88.9062494 L297.957,90.8102494 L298.269,92.7152494 L298.59,94.6192494 L298.91,96.5202494 L299.233,98.4212494 L299.558,100.325249 L299.892,102.228249 L300.226,104.128249 L300.561,106.028249 L300.897,107.929249 L301.239,109.829249 L301.582,111.728249 L301.924,113.628249 L302.266,115.524249 L302.598,117.422249 L302.931,119.322249 L303.264,121.223249 L303.596,123.124249 L303.927,125.025249 L304.257,126.926249 L304.587,128.827249 L304.916,130.729249 L305.241,132.631249 L305.567,134.532249 L305.892,136.434249 L306.218,138.336249 L306.543,140.238249 L306.867,142.140249 L307.189,144.043249 L307.508,145.926249 L307.755,147.817249 L308.004,149.727249 L308.254,151.636249 L308.518,153.544249 L308.786,155.451249 L309.063,157.357249 L309.341,159.262249 L309.611,161.169249 L309.88,163.076249 L310.144,164.983249 L310.408,166.891249 L310.669,168.799249 L310.929,170.707249 L311.188,172.615249 L311.445,174.524249 L311.698,176.401249 L311.798,178.292249 L311.899,180.215249 L312.001,182.138249 L312.102,184.060249 L312.203,185.983249 L312.302,187.906249 L312.4,189.828249 L312.498,191.751249 L312.596,193.674249 L312.694,195.597249 L312.792,197.519249 L312.89,199.442249 L312.988,201.365249 L313.086,203.288249 L313.184,205.211249 L313.282,207.133249 C313.3,207.506249 313.617,207.794249 313.99,207.777049 C314.363,207.758249 314.65,207.441249 314.632,207.068249 L314.544,205.145249 L314.456,203.222249 L314.369,201.298249 L314.281,199.375249 L314.193,197.452249 L314.105,195.528249 L314.017,193.605249 L313.929,191.682249 L313.841,189.759249 L313.754,187.835249 L313.667,185.912249 L313.581,183.989249 L313.497,182.065249 L313.413,180.142249 L313.328,178.218249 L313.242,176.264249 L312.999,174.322249 L312.761,172.411249 L312.524,170.500249 L312.289,168.589249 L312.054,166.677249 L311.822,164.766249 L311.591,162.854249 L311.364,160.942249 L311.138,159.029249 L310.921,157.115249 L310.702,155.202249 L310.474,153.290249 L310.243,151.378249 L309.997,149.468249 L309.75,147.558249 L309.501,145.630249 L309.18,143.708249 L308.862,141.805249 L308.546,139.901249 L308.231,137.997249 L307.916,136.094249 L307.602,134.190249 L307.287,132.286249 L306.972,130.383249 L306.661,128.478249 L306.35,126.574249 L306.04,124.669249 L305.731,122.765249 L305.423,120.860249 L305.115,118.955249 L304.808,117.050249 L304.5,115.142249 L304.182,113.236249 L303.865,111.332249 L303.548,109.429249 L303.231,107.527249 L302.916,105.625249 L302.6,103.722249 L302.284,101.819249 L301.968,99.9192494 L301.662,98.0182494 L301.353,96.1152494 L301.042,94.2122494 L300.732,92.3132494 L300.431,90.4122494 L300.128,88.5122494 L299.833,86.6112494 L299.537,84.7112494 L299.25,82.8102494 L298.963,80.9102494 L298.686,79.0082494 L298.42,77.1062494 L298.168,75.2032494 L297.932,73.2982494 L297.711,71.3922494 L297.484,69.4872494 L297.268,67.5822494 L297.045,65.6792494 L296.837,63.7742494 L296.628,61.8712494 L296.435,59.9662494 L296.24,58.0622494 L296.06,56.1572494 L295.878,54.2532494 L295.714,52.3482494 L295.551,50.4432494 L295.408,48.5382494 L295.265,46.6322494 L295.14,44.7242494 L295.013,42.8192494 L294.909,40.9112494 L294.804,39.0052494 L294.722,37.0962494 L294.641,35.1882494 L294.582,33.2782494 L294.523,31.3692494 L294.49,29.4582494 L294.456,27.5482494 L294.45,25.6362494 L294.444,23.7132494 C294.438,22.8102494 293.701,22.0822494 292.798,22.0882125 C291.895,22.0942494 291.168,22.8312494 291.173963,23.7352494 Z" id="Fill-224"></path>
            <path d="M14.8629,38.3102494 C98.856,28.3792494 185.213,31.0062494 269.647,34.9762494 C278.634,35.3992494 355.444,38.3102494 325.538,38.3102494" id="Fill-225"></path>
            <path d="M15.0501,39.9352494 L16.363,39.7812494 L17.6758,39.6272494 L18.9886,39.4732494 L20.2963,39.3202494 L21.6055,39.1752494 L22.9199,39.0292494 L24.2342,38.8832494 L25.5436,38.7382494 L26.8544,38.6012494 L28.1703,38.4642494 L29.4861,38.3262494 L30.7975,38.1892494 L32.1102,38.0592494 L33.4274,37.9292494 L34.7445,37.7982494 L36.0569,37.6682494 L37.3707,37.5462494 L38.6891,37.4242494 L40.0076,37.3012494 L41.3215,37.1792494 L42.6367,37.0652494 L43.9565,36.9502494 L45.2764,36.8352494 L46.592,36.7202494 L47.9089,36.6122494 L49.2298,36.5042494 L50.5507,36.3952494 L51.8672,36.2872494 L53.1849,36.1862494 L54.507,36.0842494 L55.829,35.9822494 L57.1468,35.8802494 L58.4657,35.7862494 L59.7888,35.6912494 L61.1119,35.5952494 L62.4314,35.5012494 L63.7518,35.4122494 L65.0759,35.3242494 L66.4,35.2352494 L67.7202,35.1472494 L69.0413,35.0652494 L70.3664,34.9832494 L71.6915,34.9022494 L73.0128,34.8202494 L74.335,34.7442494 L75.661,34.6682494 L76.987,34.5912494 L78.3097,34.5152494 L79.6332,34.4452494 L80.9599,34.3732494 L82.2867,34.3022494 L83.6099,34.2312494 L84.934,34.1662494 L86.2616,34.1012494 L87.5891,34.0352494 L88.913,33.9702494 L90.238,33.9102494 L91.567,33.8512494 L92.895,33.7912494 L94.22,33.7282494 L95.546,33.6712494 L96.875,33.6142494 L98.204,33.5572494 L99.53,33.4992494 L100.856,33.4462494 L102.186,33.3922494 L103.515,33.3382494 L104.842,33.2842494 L106.169,33.2392494 L107.5,33.1982494 L108.83,33.1572494 L110.156,33.1162494 L111.484,33.0832494 L112.815,33.0532494 L114.146,33.0252494 L115.477,32.9962494 L116.808,32.9682494 L118.139,32.9402494 L119.47,32.9122494 L120.796,32.8842494 L122.123,32.8662494 L123.455,32.8492494 L124.787,32.8312494 L126.119,32.8132494 L127.451,32.7952494 L128.783,32.7772494 L130.115,32.7592494 L131.442,32.7412494 L132.769,32.7322494 L134.102,32.7232494 L135.434,32.7152494 L136.767,32.7052494 L138.099,32.6972494 L139.432,32.6872494 L140.764,32.6782494 L142.092,32.6692494 L143.421,32.6692494 L144.754,32.6682494 L146.086,32.6662494 L147.419,32.6642494 L148.752,32.6622494 L150.084,32.6602494 L151.417,32.6572494 L152.746,32.6552494 L154.075,32.6622494 L155.407,32.6692494 L156.74,32.6752494 L158.073,32.6822494 L159.406,32.6882494 L160.739,32.6942494 L162.071,32.7002494 L163.401,32.7062494 L164.73,32.7192494 L166.062,32.7332494 L167.395,32.7462494 L168.727,32.7592494 L170.06,32.7722494 L171.393,32.7852494 L172.725,32.7982494 L174.055,32.8112494 L175.384,32.8312494 L176.717,32.8512494 L178.049,32.8712494 L179.381,32.8912494 L180.714,32.9112494 L182.046,32.9312494 L183.378,32.9512494 L184.707,32.9712494 L186.036,32.9972494 L187.368,33.0242494 L188.699,33.0512494 L190.031,33.0782494 L191.363,33.1052494 L192.694,33.1332494 L194.026,33.1612494 L195.355,33.1882494 L196.683,33.2222494 L198.014,33.2562494 L199.345,33.2902494 L200.675,33.3242494 L202.006,33.3582494 L203.337,33.3932494 L204.667,33.4292494 L205.996,33.4652494 L207.324,33.5052494 L208.653,33.5462494 L209.983,33.5872494 L211.313,33.6282494 L212.642,33.6692494 L213.972,33.7102494 L215.302,33.7512494 L216.629,33.7912494 L217.956,33.8372494 L219.284,33.8832494 L220.612,33.9292494 L221.941,33.9752494 L223.269,34.0222494 L224.597,34.0692494 L225.925,34.1162494 L227.252,34.1632494 L228.577,34.2142494 L229.903,34.2662494 L231.23,34.3172494 L232.556,34.3692494 L233.883,34.4212494 L235.21,34.4732494 L236.536,34.5242494 L237.861,34.5762494 L239.185,34.6312494 L240.51,34.6862494 L241.835,34.7412494 L243.16,34.7892494 L244.485,34.8372494 L245.81,34.8852494 L247.136,34.9322494 L248.46,34.9802494 L249.782,35.0272494 L251.105,35.0732494 L252.428,35.1202494 L253.752,35.1672494 L255.075,35.2142494 L256.398,35.2642494 L257.721,35.3152494 L259.044,35.3652494 L260.364,35.4182494 L261.684,35.4712494 L263.005,35.5252494 L264.326,35.5802494 L265.647,35.6342494 L266.967,35.6892494 L268.288,35.7442494 L269.609,35.8002494 L269.911,35.8132494 L270.257,35.8272494 L270.647,35.8432494 L271.074,35.8602494 L271.542,35.8782494 L272.049,35.8982494 L272.591,35.9192494 L273.17,35.9412494 L273.785,35.9642494 L274.431,35.9892494 L275.111,36.0152494 L275.822,36.0422494 L276.562,36.0702494 L277.331,36.1002494 L278.128,36.1302494 L278.951,36.1612494 L279.799,36.1942494 L280.672,36.2272494 L281.567,36.2612494 L282.484,36.2972494 L283.422,36.3332494 L284.378,36.3702494 L285.352,36.4082494 L286.345,36.4472494 L287.358,36.4872494 L288.372,36.5262494 L289.414,36.5672494 L290.455,36.6082494 L291.52,36.6502494 L292.584,36.6922494 L293.664,36.7352494 L294.744,36.7782494 L295.838,36.8222494 L296.931,36.8662494 L298.032,36.9112494 L299.134,36.9562494 L300.237,37.0012494 L301.341,37.0472494 L302.445,37.0942494 L303.548,37.1402494 L304.639,37.1872494 L305.731,37.2342494 L306.822,37.2812494 L307.913,37.3282494 L308.97,37.3762494 L310.028,37.4232494 L311.086,37.4702494 L312.144,37.5182494 L313.168,37.5652494 L314.191,37.6122494 L316.178,37.7052494 L318.092,37.7982494 L319.931,37.8892494 L321.68,37.9782494 L323.327,38.0662494 L324.113,38.1092494 L324.87,38.1512494 L325.597,38.1932494 L326.295,38.2342494 L326.96,38.2752494 L327.592,38.3142494 L328.191,38.3532494 L328.754,38.3922494 L329.279,38.4292494 L329.768,38.4652494 L330.217,38.5012494 L330.624,38.5352494 L330.992,38.5692494 L331.314,38.6012494 L331.589,38.6322494 L331.818,38.6612494 L331.993,38.6872494 L332.104,38.7082494 L332.177,38.7292494 L332.041,38.6762494 L332.041,38.6762494 L332.042,38.6762494 L332.042,38.6762494 L332.043,38.6772494 L332.044,38.6772494 L332.045,38.6782494 L332.047,38.6792494 L332.048,38.6802494 L332.05,38.6802494 L332.052,38.6822494 L332.054,38.6832494 L332.057,38.6842494 L332.059,38.6852494 L332.062,38.6872494 L332.065,38.6882494 L332.06,38.6862494 L332.047,38.6782494 L332.031,38.6692494 L332.013,38.6582494 L331.994,38.6442494 L331.972,38.6282494 L331.947,38.6072494 L331.921,38.5822494 L331.891,38.5522494 L331.86,38.5152494 L331.828,38.4702494 L331.797,38.4152494 L331.767,38.3512494 L331.743,38.2772494 L331.727,38.1952494 L331.721,38.1082494 L331.722,38.0652494 L331.722,38.0672494 L331.722,38.0682494 L331.722,38.0692494 L331.722,38.0702494 L331.722,38.0712494 L331.722,38.0722494 L331.721,38.0732494 L331.721,38.0742494 L331.721,38.0752494 L331.721,38.0752494 L331.721,38.0762494 L331.721,38.0762494 L331.721,38.0772494 L331.721,38.0772494 L333.093,38.1592494 L333.093,38.1342494 L331.723,38.0522494 L331.723,38.0522494 L331.723,38.0522494 L331.723,38.0532494 L331.723,38.0532494 L331.723,38.0542494 L331.723,38.0552494 L331.723,38.0552494 L331.723,38.0562494 L331.723,38.0572494 L331.722,38.0582494 L331.722,38.0602494 L331.722,38.0612494 L331.722,38.0622494 L331.722,38.0632494 L331.726,38.0242494 L331.74,37.9452494 L331.762,37.8732494 L331.79,37.8092494 L331.82,37.7532494 L331.852,37.7052494 L331.884,37.6662494 L331.915,37.6332494 L331.943,37.6062494 L331.969,37.5842494 L331.993,37.5662494 L332.015,37.5512494 L332.035,37.5382494 L332.052,37.5282494 L332.068,37.5202494 L332.081,37.5132494 L332.086,37.5102494 L332.083,37.5122494 L332.08,37.5132494 L332.078,37.5142494 L332.075,37.5152494 L332.073,37.5162494 L332.071,37.5172494 L332.07,37.5182494 L332.068,37.5192494 L332.067,37.5192494 L332.066,37.5202494 L332.065,37.5202494 L332.064,37.5212494 L332.063,37.5212494 L332.063,37.5212494 L332.063,37.5212494 L332.213,37.4702494 L332.142,37.4872494 L332.018,37.5032494 L331.827,37.5212494 L331.57,37.5382494 L331.249,37.5542494 L330.871,37.5702494 L330.43,37.5832494 L329.924,37.5952494 L329.359,37.6062494 L328.728,37.6152494 L328.029,37.6222494 L327.269,37.6282494 L326.439,37.6322494 L325.537,37.6342494 C325.164,37.6352494 324.862,37.9382494 324.862,38.3112494 C324.863,38.6852494 325.166,38.9872494 325.539,38.9872494 L326.442,38.9872494 L327.275,38.9852494 L328.04,38.9822494 L328.743,38.9762494 L329.379,38.9692494 L329.951,38.9602494 L330.465,38.9492494 L330.917,38.9362494 L331.309,38.9222494 L331.648,38.9062494 L331.932,38.8872494 L332.165,38.8662494 L332.362,38.8412494 L332.499,38.8122494 L332.65,38.7622494 L332.65,38.7612494 L332.651,38.7612494 L332.651,38.7612494 L332.652,38.7612494 L332.653,38.7602494 L332.654,38.7602494 L332.656,38.7592494 L332.657,38.7582494 L332.659,38.7582494 L332.661,38.7572494 L332.663,38.7562494 L332.665,38.7542494 L332.668,38.7532494 L332.671,38.7522494 L332.673,38.7502494 L332.684,38.7452494 L332.704,38.7352494 L332.725,38.7242494 L332.748,38.7112494 L332.772,38.6952494 L332.798,38.6772494 L332.826,38.6562494 L332.856,38.6312494 L332.887,38.6012494 L332.921,38.5652494 L332.955,38.5222494 L332.989,38.4722494 L333.022,38.4132494 L333.05,38.3452494 L333.073,38.2702494 L333.088,38.1882494 L333.093,38.1462494 L333.093,38.1442494 L333.093,38.1432494 L333.093,38.1422494 L333.093,38.1402494 L333.093,38.1392494 L333.093,38.1382494 L333.093,38.1372494 L333.093,38.1372494 L333.093,38.1362494 L333.093,38.1352494 L333.093,38.1352494 L333.093,38.1342494 L333.093,38.1342494 L333.093,38.1342494 L331.723,38.0522494 L331.721,38.0772494 L333.093,38.1592494 L333.093,38.1592494 L333.093,38.1582494 L333.093,38.1582494 L333.093,38.1572494 L333.093,38.1572494 L333.093,38.1562494 L333.093,38.1552494 L333.093,38.1542494 L333.093,38.1532494 L333.093,38.1532494 L333.093,38.1512494 L333.093,38.1502494 L333.093,38.1492494 L333.093,38.1472494 L333.093,38.1012494 L333.087,38.0112494 L333.07,37.9262494 L333.045,37.8492494 L333.014,37.7812494 L332.981,37.7242494 L332.946,37.6752494 L332.913,37.6352494 L332.88,37.6012494 L332.85,37.5732494 L332.822,37.5502494 L332.796,37.5302494 L332.771,37.5132494 L332.749,37.4992494 L332.727,37.4862494 L332.708,37.4762494 L332.697,37.4702494 L332.694,37.4682494 L332.691,37.4672494 L332.689,37.4652494 L332.686,37.4642494 L332.684,37.4632494 L332.682,37.4622494 L332.68,37.4612494 L332.679,37.4602494 L332.677,37.4592494 L332.676,37.4592494 L332.675,37.4582494 L332.674,37.4582494 L332.674,37.4582494 L332.673,37.4572494 L332.673,37.4572494 L332.537,37.4042494 L332.408,37.3702494 L332.225,37.3332494 L332.009,37.3002494 L331.754,37.2672494 L331.46,37.2332494 L331.124,37.1982494 L330.747,37.1632494 L330.332,37.1262494 L329.876,37.0892494 L329.381,37.0512494 L328.852,37.0112494 L328.285,36.9712494 L327.682,36.9302494 L327.048,36.8892494 L326.38,36.8462494 L325.68,36.8022494 L324.951,36.7582494 L324.192,36.7142494 L323.404,36.6682494 L321.755,36.5762494 L320.004,36.4812494 L318.163,36.3842494 L316.247,36.2862494 L314.26,36.1862494 L313.235,36.1362494 L312.211,36.0862494 L311.153,36.0362494 L310.095,35.9852494 L309.037,35.9352494 L307.979,35.8842494 L306.887,35.8332494 L305.796,35.7822494 L304.704,35.7312494 L303.613,35.6802494 L302.509,35.6302494 L301.405,35.5802494 L300.302,35.5292494 L299.198,35.4782494 L298.096,35.4282494 L296.995,35.3782494 L295.902,35.3282494 L294.808,35.2792494 L293.728,35.2302494 L292.648,35.1822494 L291.583,35.1342494 L290.519,35.0862494 L289.478,35.0402494 L288.436,34.9942494 L287.422,34.9492494 L286.409,34.9042494 L285.417,34.8612494 L284.442,34.8182494 L283.486,34.7762494 L282.548,34.7352494 L281.631,34.6952494 L280.737,34.6552494 L279.864,34.6162494 L279.016,34.5792494 L278.194,34.5422494 L277.396,34.5072494 L276.628,34.4732494 L275.888,34.4402494 L275.177,34.4082494 L274.498,34.3782494 L273.853,34.3482494 L273.238,34.3202494 L272.66,34.2942494 L272.119,34.2692494 L271.612,34.2452494 L271.145,34.2232494 L270.719,34.2032494 L270.331,34.1852494 L269.986,34.1682494 L269.685,34.1532494 L268.365,34.0862494 L267.045,34.0192494 L265.724,33.9512494 L264.404,33.8842494 L263.084,33.8162494 L261.764,33.7482494 L260.444,33.6792494 L259.123,33.6102494 L257.8,33.5422494 L256.478,33.4752494 L255.155,33.4082494 L253.833,33.3382494 L252.511,33.2672494 L251.188,33.1962494 L249.866,33.1252494 L248.543,33.0552494 L247.217,32.9912494 L245.893,32.9272494 L244.568,32.8642494 L243.244,32.8002494 L241.919,32.7372494 L240.594,32.6812494 L239.269,32.6252494 L237.943,32.5692494 L236.615,32.5162494 L235.289,32.4632494 L233.962,32.4102494 L232.636,32.3572494 L231.309,32.3042494 L229.983,32.2512494 L228.656,32.1982494 L227.328,32.1452494 L225.998,32.0962494 L224.67,32.0472494 L223.342,31.9982494 L222.014,31.9492494 L220.686,31.8992494 L219.358,31.8482494 L218.029,31.7982494 L216.699,31.7482494 L215.368,31.7032494 L214.038,31.6582494 L212.709,31.6122494 L211.379,31.5672494 L210.05,31.5222494 L208.72,31.4772494 L207.391,31.4322494 L206.059,31.3862494 L204.727,31.3462494 L203.396,31.3062494 L202.066,31.2652494 L200.735,31.2232494 L199.405,31.1812494 L198.074,31.1392494 L196.744,31.0982494 L195.411,31.0552494 L194.077,31.0192494 L192.746,30.9832494 L191.414,30.9472494 L190.083,30.9112494 L188.751,30.8742494 L187.42,30.8382494 L186.089,30.8012494 L184.754,30.7642494 L183.419,30.7342494 L182.087,30.7042494 L180.755,30.6742494 L179.423,30.6442494 L178.091,30.6142494 L176.759,30.5842494 L175.427,30.5542494 L174.092,30.5242494 L172.757,30.5012494 L171.424,30.4772494 L170.092,30.4542494 L168.759,30.4312494 L167.427,30.4082494 L166.094,30.3842494 L164.762,30.3612494 L163.426,30.3392494 L162.089,30.3242494 L160.757,30.3102494 L159.424,30.2962494 L158.091,30.2822494 L156.759,30.2682494 L155.426,30.2542494 L154.093,30.2412494 L152.756,30.2272494 L151.42,30.2222494 L150.087,30.2172494 L148.754,30.2122494 L147.422,30.2072494 L146.089,30.2032494 L144.756,30.1982494 L143.424,30.1942494 L142.087,30.1912494 L140.751,30.1962494 L139.418,30.2012494 L138.086,30.2062494 L136.753,30.2112494 L135.421,30.2162494 L134.089,30.2222494 L132.756,30.2272494 L131.419,30.2322494 L130.082,30.2482494 L128.75,30.2652494 L127.419,30.2812494 L126.087,30.2972494 L124.755,30.3132494 L123.423,30.3292494 L122.091,30.3462494 L120.754,30.3622494 L119.418,30.3892494 L118.087,30.4162494 L116.756,30.4442494 L115.425,30.4712494 L114.094,30.4982494 L112.762,30.5252494 L111.431,30.5502494 L110.096,30.5722494 L108.762,30.6012494 L107.432,30.6312494 L106.101,30.6602494 L104.768,30.6862494 L103.434,30.7142494 L102.104,30.7422494 L100.774,30.7702494 L99.441,30.7992494 L98.108,30.8342494 L96.778,30.8712494 L95.449,30.9082494 L94.116,30.9452494 L92.784,30.9872494 L91.455,31.0322494 L90.127,31.0772494 L88.794,31.1232494 L87.4628,31.1752494 L86.1346,31.2262494 L84.8064,31.2792494 L83.4747,31.3312494 L82.1439,31.3902494 L80.8165,31.4492494 L79.4891,31.5082494 L78.1585,31.5682494 L76.8286,31.6332494 L75.5021,31.6992494 L74.1755,31.7652494 L72.8452,31.8312494 L71.5158,31.9042494 L70.1902,31.9782494 L68.8646,32.0522494 L67.5351,32.1262494 L66.2065,32.2062494 L64.8819,32.2872494 L63.5573,32.3682494 L62.229,32.4482494 L60.9016,32.5362494 L59.5779,32.6222494 L58.2542,32.7092494 L56.9263,32.7972494 L55.5996,32.8912494 L54.2769,32.9852494 L52.9543,33.0802494 L51.6275,33.1752494 L50.3018,33.2782494 L48.9804,33.3802494 L47.659,33.4822494 L46.3336,33.5852494 L45.0093,33.6952494 L43.689,33.8052494 L42.3688,33.9152494 L41.0439,34.0252494 L39.7204,34.1432494 L38.4014,34.2602494 L37.0825,34.3772494 L35.7587,34.4952494 L34.4364,34.6212494 L33.1187,34.7462494 L31.8011,34.8712494 L30.4791,34.9972494 L29.1583,35.1292494 L27.8419,35.2622494 L26.5255,35.3942494 L25.2042,35.5272494 L23.8843,35.6682494 L22.5693,35.8092494 L21.2544,35.9492494 L19.9343,36.0902494 L18.6158,36.2392494 L17.3024,36.3882494 L15.989,36.5372494 L14.6756,36.6862494 C13.7783,36.7892494 13.1348,37.6012494 13.2383,38.4982494 C13.3417,39.3952494 14.1529,40.0392494 15.0501,39.9352494 Z" id="Fill-226"></path>
            <path d="M76.293,20.3902494 C170.141,18.1222494 259.781,33.2682494 352.729,36.2272494" id="Fill-227"></path>
            <path d="M76.3267,22.0252494 L77.7917,21.9912494 L79.2568,21.9572494 L80.7218,21.9242494 L82.1806,21.8902494 L83.6367,21.8682494 L85.0991,21.8462494 L86.5614,21.8242494 L88.0178,21.8012494 L89.472,21.7902494 L90.931,21.7792494 L92.391,21.7672494 L93.846,21.7562494 L95.298,21.7542494 L96.755,21.7522494 L98.213,21.7502494 L99.665,21.7482494 L101.115,21.7572494 L102.57,21.7652494 L104.025,21.7732494 L105.475,21.7802494 L106.922,21.7972494 L108.375,21.8142494 L109.828,21.8312494 L111.276,21.8472494 L112.723,21.8712494 L114.174,21.8952494 L115.625,21.9202494 L117.071,21.9442494 L118.515,21.9772494 L119.964,22.0102494 L121.413,22.0432494 L122.857,22.0762494 L124.3,22.1172494 L125.747,22.1592494 L127.193,22.1992494 L128.637,22.2392494 L130.078,22.2862494 L131.524,22.3332494 L132.969,22.3792494 L134.41,22.4242494 L135.85,22.4782494 L137.294,22.5312494 L138.737,22.5832494 L140.177,22.6362494 L141.616,22.6952494 L143.058,22.7542494 L144.5,22.8102494 L145.939,22.8652494 L147.377,22.9272494 L148.818,22.9872494 L150.259,23.0462494 L151.697,23.1042494 L153.134,23.1682494 L154.573,23.2382494 L156.012,23.3122494 L157.448,23.3862494 L158.884,23.4652494 L160.321,23.5492494 L161.759,23.6362494 L163.194,23.7222494 L164.628,23.8132494 L166.064,23.9042494 L167.5,23.9952494 L168.934,24.0862494 L170.367,24.1832494 L171.802,24.2782494 L173.237,24.3742494 L174.67,24.4692494 L176.102,24.5702494 L177.537,24.6692494 L178.971,24.7682494 L180.402,24.8672494 L181.833,24.9722494 L183.266,25.0772494 L184.699,25.1812494 L186.132,25.2862494 L187.565,25.3902494 L188.998,25.4932494 L190.431,25.5962494 L191.861,25.6982494 L193.29,25.8082494 L194.722,25.9172494 L196.153,26.0272494 L197.585,26.1372494 L199.017,26.2462494 L200.448,26.3552494 L201.88,26.4642494 L203.31,26.5732494 L204.739,26.6852494 L206.169,26.7992494 L207.6,26.9112494 L209.031,27.0242494 L210.462,27.1372494 L211.893,27.2502494 L213.324,27.3632494 L214.753,27.4762494 L216.182,27.5912494 L217.613,27.7072494 L219.043,27.8242494 L220.473,27.9402494 L221.903,28.0562494 L223.334,28.1722494 L224.764,28.2882494 L226.194,28.4042494 L227.623,28.5232494 L229.053,28.6422494 L230.483,28.7612494 L231.913,28.8812494 L233.343,29.0002494 L234.773,29.1202494 L236.203,29.2392494 L237.633,29.3602494 L239.063,29.4822494 L240.493,29.6042494 L241.923,29.7252494 L243.353,29.8472494 L244.783,29.9692494 L246.213,30.0912494 L247.643,30.2122494 L249.073,30.3342494 L250.505,30.4552494 L251.935,30.5752494 L253.366,30.6962494 L254.796,30.8182494 L256.227,30.9402494 L257.657,31.0612494 L259.088,31.1842494 L260.52,31.3062494 L261.952,31.4262494 L263.384,31.5452494 L264.815,31.6642494 L266.247,31.7842494 L267.678,31.9032494 L269.11,32.0222494 L270.542,32.1362494 L271.976,32.2472494 L273.411,32.3522494 L274.845,32.4572494 L276.279,32.5582494 L277.713,32.6582494 L279.148,32.7582494 L280.582,32.8582494 L282.016,32.9622494 L283.451,33.0672494 L284.889,33.1662494 L286.324,33.2652494 L287.76,33.3662494 L289.195,33.4672494 L290.63,33.5682494 L292.066,33.6692494 L293.501,33.7722494 L294.939,33.8752494 L296.378,33.9702494 L297.816,34.0652494 L299.253,34.1612494 L300.691,34.2582494 L302.128,34.3532494 L303.566,34.4502494 L305.003,34.5472494 L306.443,34.6442494 L307.886,34.7322494 L309.326,34.8192494 L310.766,34.9062494 L312.206,34.9942494 L313.646,35.0812494 L315.086,35.1682494 L316.526,35.2562494 L317.968,35.3432494 L319.413,35.4232494 L320.855,35.5042494 L322.297,35.5852494 L323.741,35.6652494 L325.186,35.7402494 L326.63,35.8162494 L328.073,35.8912494 L329.519,35.9662494 L330.966,36.0362494 L332.412,36.1042494 L333.857,36.1732494 L335.304,36.2422494 L336.753,36.3042494 L338.201,36.3672494 L339.648,36.4292494 L341.097,36.4922494 L342.548,36.5472494 L343.997,36.6022494 L345.447,36.6572494 L346.898,36.7132494 L348.351,36.7602494 L349.802,36.8082494 L351.254,36.8552494 L352.705,36.9022494 C353.078,36.9152494 353.391,36.6232494 353.404418,36.2502494 C353.417,35.8772494 353.125,35.5642494 352.752,35.5512494 L351.301,35.4992494 L349.849,35.4462494 L348.398,35.3942494 L346.949,35.3412494 L345.501,35.2812494 L344.052,35.2212494 L342.603,35.1612494 L341.156,35.1012494 L339.711,35.0332494 L338.264,34.9662494 L336.817,34.8982494 L335.371,34.8302494 L333.927,34.7572494 L332.482,34.6832494 L331.037,34.6092494 L329.593,34.5352494 L328.151,34.4552494 L326.708,34.3742494 L325.264,34.2942494 L323.822,34.2132494 L322.382,34.1262494 L320.94,34.0392494 L319.498,33.9522494 L318.058,33.8642494 L316.621,33.7682494 L315.181,33.6732494 L313.742,33.5772494 L312.302,33.4812494 L310.863,33.3852494 L309.423,33.2892494 L307.984,33.1932494 L306.547,33.0982494 L305.113,32.9922494 L303.676,32.8862494 L302.239,32.7802494 L300.802,32.6742494 L299.366,32.5672494 L297.929,32.4602494 L296.492,32.3532494 L295.058,32.2452494 L293.626,32.1292494 L292.192,32.0132494 L290.758,31.8962494 L289.324,31.7782494 L287.89,31.6612494 L286.456,31.5432494 L285.022,31.4232494 L283.59,31.3032494 L282.159,31.1772494 L280.727,31.0502494 L279.295,30.9202494 L277.864,30.7892494 L276.432,30.6592494 L275,30.5302494 L273.568,30.4052494 L272.137,30.2792494 L270.708,30.1502494 L269.277,30.0232494 L267.846,29.9032494 L266.415,29.7822494 L264.983,29.6612494 L263.552,29.5402494 L262.12,29.4192494 L260.69,29.2992494 L259.261,29.1752494 L257.831,29.0512494 L256.4,28.9262494 L254.97,28.8022494 L253.54,28.6782494 L252.109,28.5522494 L250.679,28.4262494 L249.25,28.3002494 L247.82,28.1742494 L246.391,28.0462494 L244.961,27.9192494 L243.532,27.7922494 L242.102,27.6652494 L240.672,27.5382494 L239.243,27.4112494 L237.813,27.2832494 L236.384,27.1562494 L234.955,27.0272494 L233.526,26.8972494 L232.097,26.7682494 L230.667,26.6392494 L229.238,26.5092494 L227.809,26.3802494 L226.38,26.2502494 L224.949,26.1222494 L223.52,25.9932494 L222.091,25.8642494 L220.662,25.7362494 L219.233,25.6072494 L217.803,25.4782494 L216.374,25.3492494 L214.944,25.2202494 L213.513,25.0952494 L212.083,24.9692494 L210.653,24.8442494 L209.223,24.7182494 L207.793,24.5932494 L206.364,24.4672494 L204.934,24.3412494 L203.502,24.2162494 L202.069,24.0972494 L200.638,23.9772494 L199.207,23.8582494 L197.776,23.7392494 L196.345,23.6212494 L194.914,23.5022494 L193.483,23.3832494 L192.049,23.2652494 L190.614,23.1532494 L189.182,23.0412494 L187.749,22.9302494 L186.317,22.8192494 L184.884,22.7092494 L183.451,22.6002494 L182.019,22.4902494 L180.584,22.3802494 L179.147,22.2762494 L177.714,22.1722494 L176.28,22.0682494 L174.844,21.9652494 L173.407,21.8672494 L171.972,21.7682494 L170.537,21.6702494 L169.1,21.5722494 L167.661,21.4792494 L166.225,21.3872494 L164.789,21.2942494 L163.35,21.2022494 L161.911,21.1142494 L160.474,21.0262494 L159.037,20.9372494 L157.597,20.8432494 L156.156,20.7542494 L154.718,20.6662494 L153.28,20.5742494 L151.839,20.4762494 L150.397,20.3852494 L148.958,20.2942494 L147.518,20.2052494 L146.076,20.1172494 L144.632,20.0362494 L143.191,19.9542494 L141.75,19.8752494 L140.305,19.7982494 L138.859,19.7272494 L137.416,19.6572494 L135.973,19.5872494 L134.526,19.5182494 L133.078,19.4552494 L131.633,19.3932494 L130.188,19.3332494 L128.74,19.2722494 L127.29,19.2182494 L125.843,19.1652494 L124.397,19.1132494 L122.946,19.0612494 L121.493,19.0182494 L120.044,18.9742494 L118.596,18.9312494 L117.142,18.8872494 L115.687,18.8522494 L114.236,18.8182494 L112.786,18.7832494 L111.331,18.7482494 L109.873,18.7222494 L108.421,18.6962494 L106.968,18.6712494 L105.51,18.6462494 L104.05,18.6302494 L102.595,18.6152494 L101.14,18.6012494 L99.679,18.5862494 L98.216,18.5812494 L96.759,18.5762494 L95.301,18.5712494 L93.838,18.5662494 L92.373,18.5712494 L90.914,18.5762494 L89.454,18.5802494 L87.9882,18.5852494 L86.5198,18.6012494 L85.0574,18.6162494 L83.5949,18.6322494 L82.1262,18.6472494 L80.6548,18.6742494 L79.1896,18.7012494 L77.7245,18.7282494 L76.2593,18.7552494 C75.3563,18.7732494 74.6394,19.5202494 74.6576461,20.4232494 C74.6766,21.3262494 75.4236,22.0432494 76.3267,22.0252494 Z" id="Fill-228"></path>
            <path d="M2.7782,1.63524936 C-1.5188,6.97024936 7.493,22.3782494 8.317,29.1422494 C9.6848,40.3682494 10.1882,51.6562494 11.3382,62.9002494 C16.6237,114.577249 30.4722,166.454249 30.4722,218.353249" id="Fill-229"></path>
            <path d="M1.4578,0.67024936 L1.1593,1.08424936 L0.8615,1.59424936 L0.6175,2.12124936 L0.4177,2.66324936 L0.2604,3.22524936 L0.145,3.79424936 L0.0639,4.37224936 L0.0163,4.96524936 L-4.54747351e-13,5.56324936 L0.0098,6.16824936 L0.0461,6.78624936 L0.1063,7.40924936 L0.1871,8.04024936 L0.289,8.68124936 L0.4098,9.32724936 L0.5468,9.97824936 L0.7006,10.6392494 L0.8722,11.3152494 L1.2424,12.6432494 L1.6621,14.0012494 L2.116,15.3642494 L2.593,16.7272494 L3.0863,18.0832494 L3.5851,19.4232494 L4.0804,20.7412494 L4.5627,22.0272494 L5.0216,23.2722494 L5.4508,24.4712494 L5.8372,25.6082494 L6.171,26.6742494 L6.4485,27.6642494 L6.6548,28.5512494 L6.7855,29.3452494 L6.9515,30.7232494 L7.1198,32.1172494 L7.2722,33.5132494 L7.4247,34.9112494 L7.5643,36.3092494 L7.7041,37.7092494 L7.8344,39.1102494 L7.9656,40.5122494 L8.0902,41.9142494 L8.2149,43.3182494 L8.3351,44.7232494 L8.4565,46.1282494 L8.5759,47.5342494 L8.6955,48.9412494 L8.816,50.3482494 L8.9367,51.7582494 L9.0635,53.1672494 L9.1946,54.5732494 L9.3257,55.9792494 L9.4575,57.3942494 L9.6109,58.8072494 L9.7636,60.2112494 L9.9164,61.6152494 L10.0603,63.0302494 L10.2467,64.6522494 L10.4317,66.2662494 L10.608,67.8822494 L10.7852,69.5042494 L10.983,71.1282494 L11.1798,72.7432494 L11.3767,74.3592494 L11.575,75.9812494 L11.7913,77.6042494 L12.0069,79.2202494 L12.2238,80.8362494 L12.4415,82.4562494 L12.6735,84.0782494 L12.9048,85.6942494 L13.1362,87.3102494 L13.3699,88.9312494 L13.6177,90.5522494 L13.8649,92.1682494 L14.1121,93.7842494 L14.3599,95.4042494 L14.6182,97.0242494 L14.8767,98.6402494 L15.1353,100.257249 L15.3951,101.875249 L15.6631,103.494249 L15.9306,105.111249 L16.1981,106.727249 L16.4659,108.346249 L16.7393,109.964249 L17.0124,111.581249 L17.2855,113.198249 L17.5587,114.816249 L17.8348,116.434249 L18.1107,118.051249 L18.3853,119.668249 L18.6597,121.286249 L18.9343,122.903249 L19.2085,124.521249 L19.4827,126.139249 L19.7553,127.757249 L20.0244,129.375249 L20.2935,130.993249 L20.5626,132.612249 L20.8315,134.229249 L21.0956,135.847249 L21.36,137.466249 L21.6245,139.085249 L21.8876,140.702249 L22.1431,142.320249 L22.3989,143.939249 L22.6542,145.559249 L22.9088,147.176249 L23.154,148.793249 L23.3998,150.413249 L23.6455,152.033249 L23.8962,153.649249 L24.1423,155.263249 L24.389,156.882249 L24.6412,158.499249 L24.8949,160.113249 L25.1349,161.727249 L25.3693,163.346249 L25.6036,164.964249 L25.8362,166.579249 L26.0496,168.194249 L26.2636,169.813249 L26.4757,171.433249 L26.6865,173.048249 L26.8775,174.663249 L27.0674,176.283249 L27.2573,177.903249 L27.4462,179.519249 L27.614,181.134249 L27.7823,182.755249 L27.9506,184.376249 L28.1183,185.991249 L28.2616,187.606249 L28.4054,189.227249 L28.5491,190.848249 L28.692,192.462249 L28.8063,194.078249 L28.9211,195.699249 L29.0354,197.320249 L29.1491,198.937249 L29.2429,200.554249 L29.3367,202.172249 L29.4151,203.790249 L29.4935,205.408249 L29.5558,207.026249 L29.6182,208.644249 L29.6653,210.263249 L29.7125,211.881249 L29.7424,213.499249 L29.7723,215.117249 L29.7842,216.735249 L29.7962,218.357249 C29.7982,218.730249 30.1024,219.029259 30.4756,219.029259 C30.8489,219.029259 31.15,218.723249 31.1481089,218.350249 L31.1433,216.728249 L31.1385,215.102249 L31.1157,213.477249 L31.0928,211.851249 L31.0527,210.226249 L31.0125,208.601249 L30.9571,206.975249 L30.9017,205.350249 L30.8301,203.725249 L30.7585,202.100249 L30.6715,200.474249 L30.5845,198.848249 L30.4774,197.222249 L30.3709,195.600249 L30.2649,193.978249 L30.1584,192.350249 L30.0259,190.722249 L29.8944,189.100249 L29.7628,187.478249 L29.6307,185.851249 L29.4741,184.223249 L29.318,182.601249 L29.1619,180.980249 L29.0053,179.353249 L28.8295,177.726249 L28.6548,176.104249 L28.48,174.482249 L28.3064,172.855249 L28.113,171.228249 L27.921,169.606249 L27.7308,167.984249 L27.54,166.357249 L27.3343,164.730249 L27.1305,163.108249 L26.9267,161.485249 L26.7285,159.858249 L26.5173,158.230249 L26.3048,156.607249 L26.0867,154.985249 L25.868,153.359249 L25.6295,151.734249 L25.386,150.113249 L25.1426,148.493249 L24.8985,146.870249 L24.645,145.247249 L24.392,143.627249 L24.1396,142.007249 L23.8869,140.384249 L23.6289,138.762249 L23.3722,137.142249 L23.1155,135.522249 L22.8585,133.900249 L22.5969,132.279249 L22.3355,130.659249 L22.0741,129.039249 L21.8126,127.418249 L21.5508,125.798249 L21.2905,124.178249 L21.0302,122.558249 L20.7704,120.937249 L20.5111,119.318249 L20.252,117.698249 L19.9943,116.078249 L19.7366,114.458249 L19.4818,112.840249 L19.2268,111.220249 L18.9719,109.600249 L18.7172,107.982249 L18.4681,106.365249 L18.2187,104.745249 L17.9692,103.126249 L17.7203,101.509249 L17.4777,99.8932494 L17.2337,98.2742494 L16.9898,96.6562494 L16.7456,95.0412494 L16.5115,93.4262494 L16.2769,91.8092494 L16.0423,90.1912494 L15.8084,88.5772494 L15.5864,86.9652494 L15.3622,85.3482494 L15.1379,83.7312494 L14.9142,82.1192494 L14.7044,80.5082494 L14.4938,78.8912494 L14.2819,77.2742494 L14.0708,75.6652494 L13.8773,74.0562494 L13.6824,72.4402494 L13.4875,70.8242494 L13.2935,69.2162494 L13.1201,67.6092494 L12.9458,65.9942494 L12.7802,64.3772494 L12.6161,62.7692494 L12.4948,61.3722494 L12.3824,59.9642494 L12.2699,58.5562494 L12.1581,57.1562494 L12.0597,55.7562494 L11.9605,54.3472494 L11.8613,52.9382494 L11.7578,51.5332494 L11.6595,50.1272494 L11.561,48.7182494 L11.4617,47.3102494 L11.362,45.9002494 L11.2603,44.4912494 L11.1574,43.0802494 L11.0491,41.6702494 L10.9407,40.2582494 L10.8231,38.8462494 L10.7047,37.4342494 L10.5767,36.0222494 L10.4485,34.6092494 L10.3073,33.1962494 L10.1658,31.7812494 L10.0083,30.3682494 L9.8486,28.9382494 L9.6959,27.9592494 L9.4614,26.9042494 L9.1614,25.7992494 L8.8104,24.6482494 L8.4121,23.4492494 L7.9778,22.2092494 L7.5183,20.9382494 L7.04,19.6402494 L6.5537,18.3232494 L6.0684,16.9962494 L5.5933,15.6652494 L5.1385,14.3412494 L4.7106,13.0312494 L4.3218,11.7472494 L3.978,10.4842494 L3.8301,9.88624936 L3.6948,9.29024936 L3.5758,8.70624936 L3.4728,8.13824936 L3.3887,7.58824936 L3.3236,7.05624936 L3.2769,6.54224936 L3.251,6.05424936 L3.2462,5.58724936 L3.2607,5.14524936 L3.296,4.73424936 L3.3524,4.34924936 L3.4266,3.99224936 L3.5181,3.67224936 L3.629,3.37724936 L3.7542,3.11024936 L3.8922,2.87724936 L4.0988,2.60024936 C4.6315,1.87124936 4.4723,0.84724936 3.743,0.31524936 C3.0137,-0.21775064 1.9905,-0.05875064 1.4578,0.67024936 Z" id="Fill-230"></path>
            <path d="M11.8417,16.2222494 C7.1406,12.8872494 18.1831,38.2812494 19.3946,45.3952494 C23.6691,70.4982494 28.134,95.6162494 34.5004,120.413249" id="Fill-231"></path>
            <path d="M12.7156,14.8402494 L12.339,14.6092494 L11.7949,14.3842494 L11.1002,14.2912494 L10.2648,14.4922494 L9.5757,15.0522494 L9.2432,15.6532494 L9.1044,16.1832494 L9.0599,16.6772494 L9.0687,17.1502494 L9.111,17.6322494 L9.1838,18.1432494 L9.2828,18.6802494 L9.4041,19.2472494 L9.5487,19.8512494 L9.7145,20.4862494 L9.8986,21.1502494 L10.1018,21.8472494 L10.3221,22.5722494 L10.5571,23.3212494 L10.807,24.0972494 L11.07,24.8942494 L11.3438,25.7102494 L11.6291,26.5442494 L11.9243,27.3952494 L12.5345,29.1232494 L13.1671,30.8862494 L13.8071,32.6592494 L14.4444,34.4222494 L15.0712,36.1532494 L15.6741,37.8312494 L16.2433,39.4422494 L16.7674,40.9552494 L17.2353,42.3552494 L17.4448,42.9982494 L17.6351,43.6082494 L17.803,44.1772494 L17.9417,44.7072494 L18.0535,45.1852494 L18.1404,45.6162494 L18.4194,47.1792494 L18.6912,48.7472494 L18.963,50.3162494 L19.2361,51.8842494 L19.5108,53.4522494 L19.7872,55.0202494 L20.064,56.5882494 L20.3456,58.1582494 L20.6384,59.7282494 L20.9305,61.2942494 L21.2247,62.8592494 L21.5211,64.4242494 L21.8187,65.9892494 L22.1163,67.5542494 L22.4138,69.1192494 L22.7124,70.6902494 L23.0269,72.2582494 L23.3381,73.8212494 L23.6482,75.3852494 L23.9551,76.9492494 L24.2592,78.5132494 L24.5631,80.0782494 L24.8671,81.6422494 L25.17,83.2122494 L25.4854,84.7792494 L25.7983,86.3432494 L26.1116,87.9062494 L26.4349,89.4722494 L26.7874,91.0322494 L27.1537,92.5852494 L27.5119,94.1402494 L27.8644,95.7002494 L28.2266,97.2582494 L28.5832,98.8142494 L28.9376,100.370249 L29.2907,101.930249 L29.6558,103.488249 L30.0203,105.043249 L30.3847,106.598249 L30.7496,108.156249 L31.1288,109.713249 L31.5059,111.265249 L31.8828,112.818249 L32.2606,114.375249 L32.6574,115.929249 L33.0532,117.478249 L33.4489,119.028249 L33.8447,120.578249 C33.9354,120.940249 34.3026,121.160249 34.6647,121.069249 C35.0268,120.978249 35.2468,120.611249 35.156,120.249249 L34.7742,118.696249 L34.3923,117.143249 L34.0104,115.590249 L33.6296,114.041249 L33.2676,112.489249 L32.9048,110.933249 L32.5422,109.376249 L32.1817,107.824249 L31.8415,106.268249 L31.5007,104.708249 L31.16,103.148249 L30.8201,101.591249 L30.4969,100.032249 L30.1749,98.4692494 L29.8552,96.9052494 L29.5409,95.3442494 L29.2459,93.7802494 L28.9565,92.2112494 L28.6752,90.6412494 L28.3801,89.0772494 L28.0811,87.5152494 L27.7721,85.9502494 L27.463,84.3862494 L27.156,82.8262494 L26.8662,81.2642494 L26.5773,79.6962494 L26.2884,78.1292494 L25.9996,76.5622494 L25.7137,74.9942494 L25.431,73.4252494 L25.1493,71.8572494 L24.871,70.2932494 L24.61,68.7272494 L24.348,67.1562494 L24.086,65.5852494 L23.824,64.0142494 L23.5609,62.4432494 L23.2954,60.8722494 L23.028,59.3022494 L22.7612,57.7352494 L22.5031,56.1682494 L22.2402,54.5982494 L21.9769,53.0282494 L21.7119,51.4582494 L21.4453,49.8892494 L21.1774,48.3202494 L20.9095,46.7502494 L20.6488,45.1752494 L20.5607,44.6732494 L20.4474,44.1252494 L20.3139,43.5402494 L20.1696,42.9212494 L20.0061,42.2652494 L19.8235,41.5702494 L19.4124,40.1172494 L18.9367,38.5512494 L18.4104,36.9022494 L17.8506,35.1922494 L17.2629,33.4372494 L16.6587,31.6592494 L16.0523,29.8772494 L15.4552,28.1122494 L14.8776,26.3852494 L14.5992,25.5442494 L14.3296,24.7192494 L14.0703,23.9152494 L13.8224,23.1332494 L13.5886,22.3772494 L13.3701,21.6502494 L13.1671,20.9532494 L12.9827,20.2922494 L12.8181,19.6692494 L12.6731,19.0852494 L12.5513,18.5502494 L12.4536,18.0652494 L12.3792,17.6332494 L12.3317,17.2712494 L12.3098,16.9822494 L12.3077,16.7812494 L12.3138,16.7132494 L12.2905,16.7992494 L12.1346,17.0682494 L11.6923,17.4232494 L11.1768,17.5522494 L10.8712,17.5142494 L10.7949,17.4872494 L10.9678,17.6042494 C11.7312,18.0872494 12.7413,17.8592494 13.2239,17.0962494 C13.7066,16.3322494 13.4791,15.3222494 12.7156,14.8402494 Z" id="Fill-232"></path>
        </g>
    </g>
</svg>
