<?xml version="1.0" encoding="UTF-8"?>
<svg width="76px" height="73px" viewBox="0 0 76 73" version="1.1" xmlns="http://www.w3.org/2000/svg" xmlns:xlink="http://www.w3.org/1999/xlink">
    <title>211</title>
    <g id="Page-1" stroke="none" stroke-width="1" fill="none" fill-rule="evenodd">
        <g id="211" transform="translate(0.611985, 0.659998)" fill="currentColor">
            <path d="M4.00432569,71.0360019 L5.41552569,69.6590019 L6.79722569,68.2520019 L8.06632569,66.7270019 L9.44252569,65.3120019 L10.8182257,63.8960019 L12.2079257,62.4980019 L13.6097257,61.1120019 L14.9412257,59.6530019 L16.2950257,58.2180019 L17.5619257,56.6920019 L18.9368257,55.2790019 L20.3612257,53.9170019 C20.8960257,53.4030019 20.9133257,52.5540019 20.3998257,52.0190019 C19.8863257,51.4840019 19.0364257,51.4670019 18.5016257,51.9800019 L17.0830257,53.3480019 L15.6148257,54.6650019 L14.0386257,55.8680019 L12.5493257,57.1630019 L11.0387257,58.4370019 L9.59832569,59.7830019 L8.14592569,61.1160019 L6.67962569,62.4320019 L5.20872569,63.7440019 L3.63082569,64.9470019 L2.16552569,66.2660019 L0.729625685,67.6170019 C-0.214374315,68.5210019 -0.246574315,70.0200019 0.657625685,70.9640019 C1.56192569,71.9080019 3.06032569,71.9400019 4.00432569,71.0360019 Z" id="Fill-7"></path>
            <path d="M26.1707257,50.0200019 L27.5818257,48.6440019 L28.9635257,47.2360019 L30.2327257,45.7120019 L31.6088257,44.2960019 L32.9846257,42.8810019 L34.3743257,41.4820019 L35.7761257,40.0960019 L37.1076257,38.6380019 L38.4614257,37.2030019 L39.7283257,35.6770019 L41.1032257,34.2630019 L42.5276257,32.9010019 C43.0624257,32.3880019 43.0796257,31.5380019 42.5661257,31.0030019 C42.0526257,30.4680019 41.2028257,30.4510019 40.6680257,30.9650019 L39.2493257,32.3330019 L37.7811257,33.6490019 L36.2049257,34.8530019 L34.7157257,36.1480019 L33.2051257,37.4210019 L31.7647257,38.7670019 L30.3123257,40.1010019 L28.8459257,41.4170019 L27.3751257,42.7290019 L25.7972257,43.9310019 L24.3319257,45.2510019 L22.8960257,46.6020019 C21.9520257,47.5060019 21.9197257,49.0040019 22.8240257,49.9480019 C23.7283257,50.8920019 25.2266257,50.9240019 26.1707257,50.0200019 Z" id="Fill-8"></path>
            <path d="M4.00432569,71.0360019 L5.41552569,69.6590019 L6.79722569,68.2520019 L8.06632569,66.7270019 L9.44252569,65.3120019 L10.8182257,63.8960019 L12.2079257,62.4980019 L13.6097257,61.1120019 L14.9412257,59.6530019 L16.2950257,58.2180019 L17.5619257,56.6920019 L18.9368257,55.2790019 L20.3612257,53.9170019 C20.8960257,53.4030019 20.9133257,52.5540019 20.3998257,52.0190019 C19.8863257,51.4840019 19.0364257,51.4670019 18.5016257,51.9800019 L17.0830257,53.3480019 L15.6148257,54.6650019 L14.0386257,55.8680019 L12.5493257,57.1630019 L11.0387257,58.4370019 L9.59832569,59.7830019 L8.14592569,61.1160019 L6.67962569,62.4320019 L5.20872569,63.7440019 L3.63082569,64.9470019 L2.16552569,66.2660019 L0.729625685,67.6170019 C-0.214374315,68.5210019 -0.246574315,70.0200019 0.657625685,70.9640019 C1.56192569,71.9080019 3.06032569,71.9400019 4.00432569,71.0360019 Z" id="Fill-9"></path>
            <path d="M47.8193257,29.4160019 L49.2305257,28.0400019 L50.6122257,26.6330019 L51.8814257,25.1080019 L53.2575257,23.6930019 L54.6333257,22.2770019 L56.0230257,20.8780019 L57.4247257,19.4920019 L58.7562257,18.0340019 L60.1101257,16.5990019 L61.3770257,15.0730019 L62.7519257,13.6600019 L64.1762257,12.2980019 C64.7111257,11.7840019 64.7283257,10.9340019 64.2148257,10.4000019 C63.7013257,9.8650019 62.8515257,9.8480019 62.3167257,10.3610019 L60.8980257,11.7290019 L59.4298257,13.0450019 L57.8536257,14.2490019 L56.3643257,15.5440019 L54.8537257,16.8180019 L53.4134257,18.1640019 L51.9609257,19.4970019 L50.4946257,20.8130019 L49.0237257,22.1250019 L47.4459257,23.3270019 L45.9805257,24.6470019 L44.5447257,25.9980019 C43.6006257,26.9020019 43.5684257,28.4000019 44.4727257,29.3450019 C45.3770257,30.2890019 46.8753257,30.3210019 47.8193257,29.4160019 Z" id="Fill-10"></path>
            <path d="M48.8918257,13.2690019 L49.9263257,12.8640019 L50.9608257,12.4590019 L51.9901257,12.0410019 L53.0147257,11.6100019 L54.0276257,11.1480019 L55.0104257,10.6080019 L56.0275257,10.1580019 L57.0622257,9.7490019 L58.0889257,9.3200019 L59.1133257,8.8890019 L60.1383257,8.4600019 L61.1708257,8.0510019 L62.2037257,7.6420019 L63.2345257,7.2290019 L64.2528257,6.7820019 L65.2617257,6.3130019 L66.2731257,5.8500019 L67.3003257,5.4270019 L68.3051257,4.9460019 L69.2942257,4.4230019 L70.3145257,3.9820019 L71.3439257,3.5650019 L72.3813257,3.1690019 L73.4192257,2.7740019 C74.1115257,2.5080019 74.4575257,1.7320019 74.1921257,1.0400019 C73.9267257,0.348001899 73.1503257,0.00100189882 72.4580257,0.267001899 L71.4221257,0.667001899 L70.3857257,1.0660019 L69.3412257,1.4440019 L68.2877257,1.7980019 L67.2029257,2.0710019 L66.1340257,2.3850019 L65.0873257,2.7570019 L64.0249257,3.0890019 L62.9601257,3.4160019 L61.9047257,3.7650019 L60.8618257,4.1480019 L59.8210257,4.5350019 L58.7799257,4.9220019 L57.7311257,5.2890019 L56.6818257,5.6550019 L55.6348257,6.0220019 L54.5941257,6.4070019 L53.5358257,6.7490019 L52.4432257,7.0020019 L51.3807257,7.3340019 L50.3298257,7.6960019 L49.2837257,8.0710019 L48.2428257,8.4590019 L47.2018257,8.8470019 C45.9807257,9.3140019 45.3691257,10.6820019 45.8358257,11.9030019 C46.3025257,13.1240019 47.6707257,13.7360019 48.8918257,13.2690019 Z" id="Fill-11"></path>
            <path d="M67.7370257,24.4680019 L68.3673257,22.6010019 L68.9574257,20.7190019 L69.3939257,18.7840019 L69.9753257,16.8970019 L70.5563257,15.0100019 L71.1574257,13.1330019 L71.7751257,11.2610019 L72.2972257,9.3560019 L72.8499257,7.4620019 L73.2838257,5.5270019 L73.8649257,3.6430019 L74.5136257,1.7820019 C74.7563257,1.0810019 74.3850257,0.317001899 73.6843257,0.0740018988 C72.9837257,-0.167998101 72.2191257,0.203001899 71.9765257,0.903001899 L71.3356257,2.7670019 L70.6271257,4.6070019 L69.7713257,6.3960019 L69.0344257,8.2270019 L68.2686257,10.0490019 L67.5984257,11.9030019 L66.9116257,13.7510019 L66.2048257,15.5900019 L65.4918257,17.4270019 L64.6338257,19.2160019 L63.9295257,21.0580019 L63.2654257,22.9140019 C62.8362257,24.1490019 63.4893257,25.4980019 64.7241257,25.9270019 C65.9589257,26.3560019 67.3078257,25.7030019 67.7370257,24.4680019 Z" id="Fill-12"></path>
            <path d="M4.00432569,71.0360019 L5.41552569,69.6590019 L6.79722569,68.2520019 L8.06632569,66.7270019 L9.44252569,65.3120019 L10.8182257,63.8960019 L12.2079257,62.4980019 L13.6097257,61.1120019 L14.9412257,59.6530019 L16.2950257,58.2180019 L17.5619257,56.6920019 L18.9368257,55.2790019 L20.3612257,53.9170019 C20.8960257,53.4030019 20.9133257,52.5540019 20.3998257,52.0190019 C19.8863257,51.4840019 19.0364257,51.4670019 18.5016257,51.9800019 L17.0830257,53.3480019 L15.6148257,54.6650019 L14.0386257,55.8680019 L12.5493257,57.1630019 L11.0387257,58.4370019 L9.59832569,59.7830019 L8.14592569,61.1160019 L6.67962569,62.4320019 L5.20872569,63.7440019 L3.63082569,64.9470019 L2.16552569,66.2660019 L0.729625685,67.6170019 C-0.214374315,68.5210019 -0.246574315,70.0200019 0.657625685,70.9640019 C1.56192569,71.9080019 3.06032569,71.9400019 4.00432569,71.0360019 Z" id="Fill-107"></path>
        </g>
    </g>
</svg>
