<?xml version="1.0" encoding="UTF-8"?>
<svg width="178px" height="112px" viewBox="0 0 178 112" version="1.1" xmlns="http://www.w3.org/2000/svg" xmlns:xlink="http://www.w3.org/1999/xlink">
    <title>214</title>
    <g id="Page-1" stroke="none" stroke-width="1" fill="none" fill-rule="evenodd">
        <g id="214" transform="translate(0.228461, 0.617271)" fill="currentColor">
            <path d="M4.12322457,110.170831 L5.01922457,109.627253 L5.91422457,109.083673 L6.81022457,108.540093 L7.70522457,107.996513 L8.60122457,107.453053 L9.49622457,106.909483 L10.3922246,106.365903 L11.2922246,105.819883 L12.1872246,105.272023 L13.0792246,104.726493 L13.9702246,104.181083 L14.8612246,103.634823 L15.7522246,103.088193 L16.6432246,102.541433 L17.5332246,101.994683 L18.4272246,101.444273 L19.3162246,100.891653 L20.2022246,100.341123 L21.0882246,99.7905828 L21.9742246,99.2400428 L22.8592246,98.6896328 L23.7452246,98.1390928 L24.6312246,97.5880628 L25.5172246,97.0321628 L26.4002246,96.4749128 L27.2812246,95.9193628 L28.1612246,95.3626028 L29.0392246,94.8031528 L29.9172246,94.2438328 L30.7962246,93.6843828 L31.6702246,93.1195628 L32.5452246,92.5475428 L33.4162246,91.9740528 L34.2842246,91.4022728 L35.1592246,90.8418528 L36.0382246,90.2872828 L36.9172246,89.7327228 L37.7962246,89.1780328 L38.6812246,88.6333528 L39.5692246,88.0894128 L40.4552246,87.5441228 L41.3392246,87.0000528 L42.2202246,86.4530528 L43.1022246,85.9059428 L43.9832246,85.3589428 L44.8652246,84.8115828 L45.7462246,84.2632428 L46.6292246,83.7133128 L47.5092246,83.1620428 L48.3872246,82.6121128 L49.2652246,82.0623128 L50.1422246,81.5123828 L51.0202246,80.9625828 L51.8982246,80.4133828 L52.7772246,79.8651628 L53.6562246,79.3168228 L54.5352246,78.7686128 L55.4142246,78.2218528 L56.2952246,77.6759628 L57.1752246,77.1301828 L58.0552246,76.5842828 L58.9352246,76.0386328 L59.8162246,75.4929728 L60.6992246,74.9458528 L61.5782246,74.3969028 L62.4562246,73.8503928 L63.3332246,73.3038828 L64.2112246,72.7573828 L65.0882246,72.2108728 L65.9652246,71.6632628 L66.8422246,71.1157728 L67.7192246,70.5681728 L68.5952246,70.0203228 L69.4712246,69.4711228 L70.3472246,68.9220528 L71.2232246,68.3729828 L72.0982246,67.8235428 L72.9742246,67.2738628 L73.8492246,66.7240528 L74.7262246,66.1733928 L75.6002246,65.6205428 L76.4732246,65.0675628 L77.3452246,64.5145828 L78.2172246,63.9614828 L79.0882246,63.4072828 L79.9592246,62.8524728 L80.8302246,62.2975428 L81.7012246,61.7427328 L82.5722246,61.1879228 L83.4432246,60.6331128 L84.3142246,60.0781828 L85.1852246,59.5233728 L86.0562246,58.9685628 L86.9272246,58.4136328 L87.7982246,57.8588228 L88.6692246,57.3040128 L89.5412246,56.7512728 L90.4132246,56.1986628 L91.2862246,55.6459328 L92.1582246,55.0934428 L93.0302246,54.5411928 L93.9032246,53.9890728 L94.7752246,53.4368228 L95.6482246,52.8855528 L96.5222246,52.3357528 L97.3962246,51.7860628 L98.2702246,51.2363828 L99.1452246,50.6873128 L100.019225,50.1387228 L100.894225,49.5902628 L101.769225,49.0418028 L102.644225,48.4938328 L103.519225,47.9462228 L104.395225,47.3986128 L105.270225,46.8508828 L106.143225,46.2988828 L107.014225,45.7456628 L107.886225,45.1925628 L108.758225,44.6394628 L109.626225,44.0802528 L110.494225,43.5206828 L111.362225,42.9612328 L112.230225,42.4020328 L113.101225,41.8468528 L113.971225,41.2915628 L114.842225,40.7363828 L115.713225,40.1816928 L116.582225,39.6301828 L117.456225,39.0805028 L118.332225,38.5293528 L119.208225,37.9788128 L120.085225,37.4290128 L120.962225,36.8790828 L121.839225,36.3292828 L122.716225,35.7805728 L123.594225,35.2328428 L124.473225,34.6851128 L125.351225,34.1373828 L126.229225,33.5896528 L127.107225,33.0419228 L127.985225,32.4941928 L128.863225,31.9464628 L129.742225,31.3997128 L130.621225,30.8532028 L131.499225,30.3065728 L132.378225,29.7600628 L133.258225,29.2141628 L134.137225,28.6682628 L135.016225,28.1223728 L135.895225,27.5764728 L136.775225,27.0304528 L137.654225,26.4845528 L138.533225,25.9386528 L139.412225,25.3927528 L140.291225,24.8468528 L141.171225,24.3009628 L142.050225,23.7550628 L142.929225,23.2091628 L143.808225,22.6631428 L144.682225,22.1206628 L145.566225,21.5828228 L146.455225,21.0419228 L147.345225,20.5013928 L148.234225,19.9607228 L149.124225,19.4202228 L150.014225,18.8802228 L150.904225,18.3404228 L151.794225,17.8004228 L152.684225,17.2607228 L153.574225,16.7207228 L154.464225,16.1808228 L155.354225,15.6410228 L156.244225,15.1011228 L157.134225,14.5613228 L158.024225,14.0214228 L158.914225,13.4815228 L159.804225,12.9417228 L160.694225,12.4018228 L161.584225,11.8620228 L162.474225,11.3221228 L163.364225,10.7823228 L164.254225,10.2423228 L165.144225,9.70242284 L166.034225,9.16262284 L166.924225,8.62272284 L167.814225,8.08292284 L168.704225,7.54302284 L169.594225,7.00312284 L170.484225,6.46332284 L171.374225,5.92342284 L172.264225,5.38362284 L173.154225,4.84372284 C173.862225,4.41362284 174.088225,3.49102284 173.658225,2.78302284 C173.228225,2.07492284 172.305225,1.84952284 171.597225,2.27962284 L170.707225,2.82032284 L169.818225,3.36122284 L168.929225,3.90202284 L168.039225,4.44292284 L167.150225,4.98382284 L166.260225,5.52462284 L165.371225,6.06552284 L164.482225,6.60622284 L163.592225,7.14712284 L162.703225,7.68802284 L161.813225,8.22882284 L160.924225,8.76972284 L160.035225,9.31062284 L159.145225,9.85142284 L158.256225,10.3922228 L157.366225,10.9330228 L156.477225,11.4739228 L155.587225,12.0148228 L154.698225,12.5556228 L153.809225,13.0965228 L152.919225,13.6372228 L152.030225,14.1781228 L151.140225,14.7190228 L150.251225,15.2598228 L149.361225,15.8007228 L148.472225,16.3416228 L147.582225,16.8822228 L146.693225,17.4224228 L145.803225,17.9626228 L144.913225,18.5027228 L144.023225,19.0425228 L143.127225,19.5854228 L142.241225,20.1327428 L141.361225,20.6768128 L140.480225,21.2207528 L139.600225,21.7648228 L138.719225,22.3087728 L137.839225,22.8528428 L136.959225,23.3967828 L136.078225,23.9408528 L135.198225,24.4847928 L134.317225,25.0288628 L133.437225,25.5728128 L132.556225,26.1168728 L131.676225,26.6608228 L130.796225,27.2048928 L129.915225,27.7482228 L129.034225,28.2915628 L128.153225,28.8350128 L127.272225,29.3781028 L126.391225,29.9203428 L125.509225,30.4624528 L124.628225,31.0046928 L123.746225,31.5469328 L122.865225,32.0890428 L121.983225,32.6311628 L121.101225,33.1733928 L120.219225,33.7145328 L119.336225,34.2546928 L118.454225,34.7947328 L117.571225,35.3348928 L116.687225,35.8742028 L115.804225,36.4128928 L114.918225,36.9531828 L114.036225,37.4951728 L113.155225,38.0339928 L112.274225,38.5723228 L111.393225,39.1105328 L110.511225,39.6487328 L109.628225,40.1831628 L108.744225,40.7170928 L107.860225,41.2510328 L106.977225,41.7853328 L106.097225,42.3256128 L105.217225,42.8660228 L104.337225,43.4064228 L103.458225,43.9478128 L102.581225,44.4935828 L101.705225,45.0394828 L100.828225,45.5852628 L99.9522246,46.1307928 L99.0752246,46.6758328 L98.1982246,47.2208828 L97.3212246,47.7658028 L96.4442246,48.3102328 L95.5662246,48.8539328 L94.6882246,49.3977628 L93.8112246,49.9414628 L92.9322246,50.4836928 L92.0532246,51.0249528 L91.1732246,51.5663428 L90.2942246,52.1076028 L89.4152246,52.6484928 L88.5352246,53.1893828 L87.6552246,53.7301528 L86.7762246,54.2708028 L85.8952246,54.8091328 L85.0142246,55.3474628 L84.1332246,55.8856728 L83.2512246,56.4238828 L82.3702246,56.9620928 L81.4892246,57.5003028 L80.6072246,58.0386328 L79.7262246,58.5768328 L78.8452246,59.1150428 L77.9632246,59.6532528 L77.0822246,60.1915828 L76.2012246,60.7304028 L75.3212246,61.2704428 L74.4412246,61.8104828 L73.5612246,62.3506428 L72.6822246,62.8909228 L71.8032246,63.4313328 L70.9232246,63.9727128 L70.0422246,64.5140928 L69.1622246,65.0559628 L68.2812246,65.5979528 L67.4012246,66.1400728 L66.5212246,66.6821828 L65.6412246,67.2253928 L64.7622246,67.7689728 L63.8832246,68.3126728 L63.0042246,68.8562528 L62.1252246,69.4008128 L61.2462246,69.9454928 L60.3682246,70.4901628 L59.4892246,71.0348428 L58.6132246,71.5770828 L57.7332246,72.1177328 L56.8502246,72.6599628 L55.9682246,73.2022028 L55.0852246,73.7441928 L54.2032246,74.2861828 L53.3202246,74.8281828 L52.4372246,75.3691928 L51.5532246,75.9087428 L50.6692246,76.4484228 L49.7852246,76.9879728 L48.9002246,77.5266628 L48.0152246,78.0646328 L47.1302246,78.6025928 L46.2452246,79.1405528 L45.3602246,79.6785228 L44.4772246,80.2150228 L43.5912246,80.7500528 L42.7032246,81.2865528 L41.8162246,81.8241528 L40.9282246,82.3618728 L40.0412246,82.8997128 L39.1542246,83.4375528 L38.2682246,83.9784528 L37.3852246,84.5180028 L36.4992246,85.0563328 L35.6102246,85.5938028 L34.7142246,86.1215128 L33.8192246,86.6492228 L32.9242246,87.1770528 L32.0252246,87.6987828 L31.1192246,88.2092828 L30.2162246,88.7180728 L29.3102246,89.2253928 L28.4042246,89.7399228 L27.5022246,90.2598228 L26.6002246,90.7798428 L25.6982246,91.2997328 L24.7972246,91.8223228 L23.8972246,92.3461228 L23.0002246,92.8682228 L22.1002246,93.3887228 L21.2002246,93.9141128 L20.2992246,94.4399928 L19.3982246,94.9658728 L18.4982246,95.4917528 L17.5972246,96.0176328 L16.6962246,96.5435128 L15.7992246,97.0673128 L14.8992246,97.5896528 L13.9962246,98.1157728 L13.0932246,98.6419028 L12.1902246,99.1680228 L11.2872246,99.6946328 L10.3852246,100.221983 L9.48222457,100.749323 L8.58422457,101.274343 L7.68222457,101.797293 L6.77522457,102.322683 L5.86922457,102.847953 L4.96322457,103.373343 L4.05622457,103.898733 L3.15022457,104.424123 L2.24422457,104.949513 L1.33722457,105.474913 C0.041224575,106.244073 -0.386775425,107.919003 0.382224575,109.215633 C1.15122457,110.512384 2.82622457,110.939996 4.12322457,110.170831 Z" id="Fill-71"></path>
            <path d="M134.706225,22.9127728 L136.462225,22.1189528 L138.217225,21.3251328 L139.971225,20.5310628 L141.731225,19.7231228 L143.487225,18.8949228 L145.230225,18.0620228 L146.964225,17.2105228 L148.689225,16.3113228 L150.426225,15.4370228 L152.176225,14.6169228 L153.906225,13.7519228 L155.626225,12.8417228 L157.332225,11.9052228 L159.049225,11.0160228 L160.786225,10.1698228 L162.528225,9.31132284 L164.218225,8.34962284 L165.919225,7.43552284 L167.631225,6.54522284 L169.358225,5.66312284 L171.068225,4.76202284 L172.776225,3.87582284 L174.484225,2.99032284 L176.192225,2.10462284 C176.741225,1.83232284 176.965225,1.16642284 176.693225,0.617122839 C176.421225,0.0679228389 175.755225,-0.156577161 175.206225,0.115822839 L173.467225,0.939022839 L171.728225,1.76242284 L169.989225,2.58502284 L168.253225,3.39262284 L166.498225,4.17342284 L164.730225,4.94572284 L162.950225,5.69442284 L161.158225,6.39532284 L159.394225,7.15742284 L157.624225,7.93172284 L155.833225,8.66312284 L154.032225,9.34722284 L152.228225,10.0224228 L150.433225,10.7428228 L148.659225,11.5081228 L146.872225,12.2191228 L145.061225,12.8704228 L143.260225,13.5690228 L141.466225,14.2865228 L139.686225,15.0087228 L137.906225,15.7198228 L136.122225,16.4447228 L134.337225,17.1701228 L132.553225,17.8954228 C131.167225,18.4900228 130.526225,20.0952728 131.121225,21.4807628 C131.716225,22.8663828 133.321225,23.5075028 134.706225,22.9127728 Z" id="Fill-111"></path>
            <path d="M141.075225,32.5211728 L141.786225,31.8114528 L142.481225,31.1173628 L143.888225,29.7474928 L145.298225,28.4082528 L146.706225,27.0842828 L148.119225,25.7837428 L149.534225,24.4974928 L150.944225,23.2156328 L152.332225,21.9158228 L153.772225,20.6848728 L155.247225,19.5016228 L156.702225,18.2981228 L158.142225,17.0773228 L159.602225,15.8636228 L161.087225,14.6890228 L162.623225,13.5779228 L164.160225,12.4640228 L165.670225,11.2889228 L167.209225,10.1508228 L168.790225,9.04912284 L170.381225,7.95942284 L172.004225,6.88312284 L173.636225,5.81662284 L175.302225,4.75602284 L176.973225,3.69192284 C177.496225,3.37212284 177.661225,2.68882284 177.341225,2.16582284 C177.021225,1.64292284 176.338225,1.47822284 175.815225,1.79802284 L174.106225,2.80142284 L172.392225,3.80842284 L170.710225,4.82082284 L169.020225,5.82352284 L167.359225,6.83602284 L165.690225,7.83632284 L164.031225,8.83022284 L162.342225,9.78692284 L160.735225,10.8478228 L159.126225,11.9115228 L157.515225,12.9659228 L155.880225,13.9811228 L154.254225,15.0319228 L152.666225,16.1346228 L151.117225,17.2950228 L149.551225,18.4439228 L147.950225,19.5662228 L146.389225,20.7517628 L144.846225,21.9761328 L143.316225,23.2365028 L141.795225,24.5264228 L140.286225,25.8514928 L138.785225,27.2039128 L138.031225,27.9015428 L137.293225,28.5833028 C136.206225,29.6277428 136.171225,31.3560128 137.215225,32.4434128 C138.260225,33.5306928 139.988225,33.5656028 141.075225,32.5211728 Z" id="Fill-112"></path>
        </g>
    </g>
</svg>
