<?xml version="1.0" encoding="UTF-8"?>
<svg width="108px" height="127px" viewBox="0 0 108 127" version="1.1" xmlns="http://www.w3.org/2000/svg" xmlns:xlink="http://www.w3.org/1999/xlink">
    <title>215</title>
    <g id="Page-1" stroke="none" stroke-width="1" fill="none" fill-rule="evenodd">
        <g id="215" transform="translate(0.255518, 0.063699)" fill="currentColor">
            <path d="M4.45246758,125.982335 L5.68656758,124.966715 L6.93856758,123.936315 L8.16986758,122.887005 L9.40016758,121.838295 L10.6106676,120.771275 L11.8187676,119.706215 L13.0093676,118.625165 L14.2007676,117.543255 L15.3735676,116.444615 L16.5454676,115.346475 L17.6996676,114.232215 L18.8517676,113.119545 L19.9880676,111.992465 L21.1237676,110.863565 L22.2419676,109.718665 L23.3592676,108.574375 L24.4612676,107.416175 L25.5614676,106.259555 L26.6483676,105.090615 L27.7354676,103.921425 L28.8086676,102.739295 L29.8795676,101.556555 L30.9369676,100.361485 L31.9912676,99.1664149 L33.0340676,97.9607349 L34.0754676,96.7535749 L35.1050676,95.5355649 L36.1313676,94.3160749 L37.1462676,93.0862149 L38.1555676,91.8539149 L39.1540676,90.6119749 L40.1452676,89.3639249 L41.1292676,88.1092949 L42.1213676,86.8624649 L43.1100676,85.6119749 L44.1126676,84.3705249 L45.1046676,83.1189349 L46.0903676,81.8745449 L47.0732676,80.6280849 L48.0601676,79.3695449 L49.0320676,78.0969649 L49.9948676,76.8320649 L50.9546676,75.5649749 L51.9177676,74.2894649 L52.8687676,73.0023549 L53.8133676,71.7212249 L54.7544676,70.4374149 L55.6976676,69.1485949 L56.6346676,67.8533049 L57.5686676,66.5621749 L58.5029676,65.2712749 L59.4392676,63.9779449 L60.3778676,62.6844849 L61.3150676,61.3938349 L62.2574676,60.1073349 L63.2009676,58.8205949 L64.1467676,57.5339749 L65.0934676,56.2490649 L66.0449676,54.9675649 L66.9966676,53.6877849 L67.9526676,52.4100749 L68.9075676,51.1300449 L69.8599676,49.8481849 L70.7991676,48.5603449 L71.7322676,47.2668849 L72.6677676,45.9712249 L73.6037676,44.6759449 L74.5416676,43.3882949 L75.4910676,42.1083949 L76.4457676,40.8265949 L77.4012676,39.5454949 L78.3566676,38.2711949 L79.3232676,37.0051949 L80.2937676,35.7348949 L81.2644676,34.4648949 L82.2339676,33.2033949 L83.2181676,31.9528949 L84.2069676,30.6966949 L85.1957676,29.4403949 L86.1789676,28.1909949 L87.1799676,26.9553949 L88.1866676,25.7127949 L89.1941676,24.4709949 L90.1986676,23.2353949 L91.2175676,22.0109949 L92.2379676,20.7861949 L93.2693676,19.5700949 L94.3006676,18.3542949 L95.3437676,17.1478949 L96.3870676,15.9412949 L97.4418676,14.7440949 L98.4960676,13.5472949 L99.5637676,12.3611949 L100.631068,11.1754949 L101.712668,10.0009949 L102.798568,8.82189486 C103.216268,8.37329486 103.191268,7.67089486 102.742568,7.25319486 C102.293968,6.83539486 101.591568,6.86049486 101.173768,7.30909486 L100.075068,8.47619486 L98.9719676,9.64809486 L97.8829676,10.8315949 L96.7941676,12.0148949 L95.7186676,13.2090949 L94.6437676,14.4028949 L93.5801676,15.6059949 L92.5164676,16.8091949 L91.4646676,18.0222949 L90.4130676,19.2348949 L89.3723676,20.4565949 L88.3302676,21.6788949 L87.3012676,22.9116949 L86.2752676,24.1382949 L85.2485676,25.3642949 L84.2161676,26.5971949 L83.2014676,27.8442949 L82.1923676,29.0843949 L81.1832676,30.3244949 L80.1695676,31.5704949 L79.1702676,32.8277949 L78.1719676,34.0762949 L77.1736676,35.3247949 L76.1713676,36.5772949 L75.1789676,37.8372949 L74.1866676,39.0903949 L73.1936676,40.3427949 L72.1951676,41.5971949 L71.2028676,42.8559949 L70.2085676,44.1070949 L69.2137676,45.3578249 L68.2166676,46.6107549 L67.2364676,47.8756449 L66.2694676,49.1466449 L65.3050676,50.4194749 L64.3416676,51.6944949 L63.3786676,52.9686649 L62.4153676,54.2412449 L61.4474676,55.5104149 L60.4785676,56.7778749 L59.5066676,58.0414149 L58.5337676,59.3052149 L57.5556676,60.5649749 L56.5789676,61.8218149 L55.5927676,63.0694949 L54.6045676,64.3194949 L53.6160676,65.5693749 L52.6307676,66.8151049 L51.6396676,68.0539949 L50.6465676,69.2980149 L49.6568676,70.5447149 L48.6736676,71.7854349 L47.6837676,73.0182249 L46.6906676,74.2594349 L45.7004676,75.5029649 L44.7195676,76.7386849 L43.7282676,77.9632949 L42.7329676,79.1998649 L41.7404676,80.4387549 L40.7542676,81.6702049 L39.7581676,82.8918849 L38.7480676,84.1042849 L37.7244676,85.3042349 L36.6928676,86.4961349 L35.6497676,87.6769149 L34.6141676,88.8638049 L33.5707676,90.0430049 L32.5332676,91.2246449 L31.4855676,92.3962749 L30.4412676,93.5694949 L29.3856676,94.7317249 L28.3313676,95.8954249 L27.2662676,97.0488649 L26.2043676,98.2021849 L25.1298676,99.3435449 L24.0576676,100.485635 L22.9717676,101.614785 L21.8856676,102.744425 L20.7864676,103.861615 L19.6889676,104.977335 L18.5764676,106.078775 L17.4646676,107.179605 L16.3381676,108.266515 L15.2123676,109.355505 L14.0718676,110.430705 L12.9333676,111.504315 L11.7776676,112.561805 L10.6227676,113.618815 L9.44976758,114.659095 L8.27606758,115.700115 L7.08516758,116.725255 L5.89656758,117.748695 L4.68836758,118.754065 L3.48106758,119.759075 L2.25346758,120.745275 L1.00766758,121.746255 C-0.162132422,122.697545 -0.339232422,124.417035 0.612067578,125.586705 C1.56336758,126.756505 3.28276758,126.933635 4.45246758,125.982335 Z" id="Fill-54"></path>
            <path d="M72.2746676,38.4100949 L73.0362676,37.7000949 L73.7978676,36.9899949 L74.5594676,36.2800949 L75.3330676,35.5591949 L76.0944676,34.8322949 L76.8433676,34.1162949 L77.5902676,33.3976949 L78.3453676,32.6653949 L79.0889676,31.9267949 L79.8212676,31.1988949 L80.5518676,30.4689949 L81.2884676,29.7264949 L82.0120676,28.9746949 L82.7219676,28.2275949 L83.4240676,27.4724949 L84.1215676,26.6939949 L84.8184676,25.9188949 L85.5366676,25.1837949 L86.2619676,24.4558949 L86.9863676,23.7099949 L87.6936676,22.9487949 L88.3835676,22.1871949 L89.0661676,21.4183949 L89.7472676,20.6346949 L90.4202676,19.8439949 L91.0881676,19.0617949 L91.7671676,18.2902949 L92.4624676,17.5219949 L93.1569676,16.7521949 L93.8552676,15.9986949 L94.5557676,15.2470949 L95.2442676,14.4727949 L95.8968676,13.6630949 L96.5500676,12.8649949 L97.2143676,12.0772949 L97.8895676,11.2912949 L98.5637676,10.5015949 L99.2377676,9.72009486 L99.9150676,8.94169486 L100.596468,8.15869486 L101.272668,7.36689486 L101.947668,6.58169486 L102.625668,5.79919486 L103.307768,5.01349486 L103.985768,4.21819486 L104.660268,3.42679486 L105.334768,2.63549486 L106.009268,1.84419486 C106.414768,1.38439486 106.370768,0.682994863 105.910968,0.277494863 C105.451168,-0.128005137 104.749768,-0.0839051367 104.344268,0.375794863 L103.643468,1.14399486 L102.942668,1.91199486 L102.241868,2.68009486 L101.544468,3.44439486 L100.843368,4.19889486 L100.138168,4.95699486 L99.4299676,5.71219486 L98.7230676,6.46069486 L98.0115676,7.19989486 L97.2961676,7.94349486 L96.5774676,8.68409486 L95.8588676,9.41649486 L95.1310676,10.1365949 L94.3923676,10.8549949 L93.6425676,11.5629949 L92.8922676,12.2593949 L92.1650676,12.9741949 L91.4498676,13.7116949 L90.7324676,14.4471949 L90.0111676,15.1666949 L89.2761676,15.8710949 L88.5248676,16.5723949 L87.7624676,17.2629949 L87.0052676,17.9451949 L86.2413676,18.6199949 L85.4790676,19.3099949 L84.7239676,20.0068949 L83.9862676,20.7043949 L83.2480676,21.4022949 L82.5106676,22.1179949 L81.7662676,22.8264949 L81.0004676,23.4949949 L80.2158676,24.1458949 L79.4358676,24.8203949 L78.6635676,25.5026949 L77.9050676,26.1802949 L77.1403676,26.8547949 L76.3696676,27.5421949 L75.6005676,28.2311949 L74.8428676,28.9096949 L74.0740676,29.5815949 L73.2969676,30.2672949 L72.5220676,30.9551949 L71.7593676,31.6325949 L70.9846676,32.3035949 L70.1979676,32.9855949 L69.4111676,33.6675949 L68.6243676,34.3496949 C67.5030676,35.3575949 67.4113676,37.0837949 68.4192676,38.2049949 C69.4272676,39.3261949 71.1533676,39.4179949 72.2746676,38.4100949 Z" id="Fill-59"></path>
            <path d="M84.8540676,45.1454249 L85.2677676,44.2284349 L85.6743676,43.3262949 L86.0910676,42.4316949 L86.5084676,41.5355949 L86.9352676,40.6461949 L87.3627676,39.7542949 L87.7955676,38.8665949 L88.2222676,37.9804949 L89.0985676,36.2067949 L89.9785676,34.4424949 L90.8636676,32.6702949 L91.7059676,30.8756949 L92.6143676,29.1194949 L93.5688676,27.3841949 L94.4959676,25.6337949 L95.3862676,23.8576949 L96.2787676,22.0820949 L97.2150676,20.3254949 L98.1916676,18.5927949 L99.1634676,16.8544949 L100.051368,15.0638949 L100.979268,13.2993949 L101.930168,11.5482949 L102.898968,9.79409486 L103.841868,8.01799486 L104.789768,6.25809486 L105.738468,4.49849486 L106.687068,2.73889486 C106.987368,2.20449486 106.797568,1.52789486 106.263168,1.22749486 C105.728668,0.927194863 105.051968,1.11699486 104.751668,1.65149486 L103.742168,3.37689486 L102.732668,5.10219486 L101.722568,6.82719486 L100.707268,8.53589486 L99.6611676,10.2176949 L98.5972676,11.9024949 L97.5102676,13.5737949 L96.3832676,15.2188949 L95.3336676,16.9058949 L94.2886676,18.5982949 L93.2032676,20.2668949 L92.0742676,21.9162949 L90.9634676,23.5772949 L89.8895676,25.2639949 L88.8724676,26.9853949 L87.8092676,28.6860949 L86.7218676,30.3776949 L85.6772676,32.0915949 L84.6625676,33.8382949 L83.6731676,35.5966949 L83.1832676,36.4881949 L82.6993676,37.3781949 L82.2261676,38.2755949 L81.7521676,39.1752949 L81.2876676,40.0822949 L80.8225676,40.9904949 L80.3676676,41.9064949 L79.9199676,42.8073949 C79.2743676,44.1699549 79.8554676,45.7978849 81.2180676,46.4435149 C82.5804676,47.0891449 84.2084676,46.5079749 84.8540676,45.1454249 Z" id="Fill-60"></path>
        </g>
    </g>
</svg>
