<?xml version="1.0" encoding="UTF-8"?>
<svg width="217px" height="63px" viewBox="0 0 217 63" version="1.1" xmlns="http://www.w3.org/2000/svg" xmlns:xlink="http://www.w3.org/1999/xlink">
    <title>216</title>
    <g id="Page-1" stroke="none" stroke-width="1" fill="none" fill-rule="evenodd">
        <g id="216" transform="translate(0.814262, 0.683371)" fill="currentColor">
            <path d="M4.4873232,62.134153 L5.5618232,62.037593 L6.6364232,61.941153 L7.7110232,61.844603 L8.8213232,61.745233 L9.9271232,61.627073 L10.9971232,61.512083 L12.0671232,61.397093 L13.1710232,61.278923 L14.2705232,61.142573 L15.3361232,61.009883 L16.4017232,60.877193 L17.4965232,60.739983 L18.5873232,60.585933 L19.6488232,60.435543 L20.7102232,60.285033 L21.8019232,60.128043 L22.8893232,59.953363 L23.9461232,59.782713 L25.0029232,59.612173 L26.0883232,59.437493 L27.1698232,59.246703 L28.2225232,59.060423 L29.2753232,58.873893 L30.3515232,58.677243 L31.4241232,58.466673 L32.4724232,58.260253 L33.5204232,58.052603 L34.5924232,57.835073 L35.6605232,57.602783 L36.7037232,57.375113 L37.7458232,57.141233 L38.8080232,56.889763 L39.8663232,56.624503 L40.9020232,56.363643 L41.9405232,56.116813 L43.0008232,55.882443 L44.0581232,55.635863 L45.0966232,55.393183 L46.1380232,55.163083 L47.2000232,54.937003 L48.2592232,54.698113 L49.2992232,54.463373 L50.3383232,54.224603 L51.3950232,53.980463 L52.4489232,53.724243 L53.4849232,53.472163 L54.5203232,53.218133 L55.5710232,52.960073 L56.6192232,52.691763 L57.6521232,52.427123 L58.6851232,52.162473 L59.7337232,51.893913 L60.7796232,51.614493 L61.8101232,51.339593 L62.8413232,51.067013 L63.8867232,50.790643 L64.9298232,50.504143 L65.9589232,50.222773 L66.9888232,49.944333 L68.0308232,49.662593 L69.0708232,49.372183 L70.0987232,49.085443 L71.1268232,48.798703 L72.1671232,48.508663 L73.2055232,48.209713 L74.2318232,47.915153 L75.2581232,47.620963 L76.2958232,47.323603 L77.3317232,47.018063 L78.3558232,46.714473 L79.3798232,46.410393 L80.4133232,46.103513 L81.4452232,45.789793 L82.4669232,45.476433 L83.4886232,45.162963 L84.5197232,44.846553 L85.5492232,44.523063 L86.5690232,44.201533 L87.5887232,43.879873 L88.6168232,43.555663 L89.6432232,43.224363 L90.6604232,42.892693 L91.6775232,42.560903 L92.7013232,42.227163 L93.7236232,41.886953 L94.7386232,41.547113 L95.7536232,41.207153 L96.7749232,40.865103 L97.7952232,40.518183 L98.8090232,40.173333 L99.8229232,39.828483 L100.842123,39.481933 L101.860423,39.130973 L102.873223,38.781853 L103.886223,38.432853 L104.904823,38.081783 L105.923723,37.729733 L106.937023,37.380123 L107.950223,37.030393 L108.963523,36.680783 L109.977123,36.331903 L110.990623,35.983023 L112.004223,35.634153 L113.023623,35.284173 L114.043323,34.932853 L115.057423,34.583493 L116.071423,34.234003 L117.085823,33.885373 L118.100523,33.538083 L119.115323,33.190793 L120.130123,32.843503 L121.147423,32.496213 L122.164723,32.147573 L123.179823,31.799803 L124.194823,31.451903 L125.207723,31.097533 L126.219523,30.740233 L127.231323,30.383053 L128.243223,30.025753 L129.251223,29.659173 L130.259123,29.291623 L131.267623,28.923823 L132.276123,28.556273 L133.287123,28.195793 L134.298123,27.835323 L135.309123,27.474973 L136.320423,27.115353 L137.329423,26.760003 L138.339523,26.407713 L139.352923,26.054193 L140.366523,25.701653 L141.380723,25.350463 L142.394823,24.999143 L143.409023,24.647943 L144.423823,24.298703 L145.432923,23.953123 L146.443723,23.613273 L147.460823,23.271353 L148.477823,22.929443 L149.494923,22.587643 L150.511923,22.245723 L151.528923,21.903803 L152.546623,21.563713 L153.556423,21.226433 L154.568323,20.896723 L155.588123,20.564323 L156.608223,20.233153 L157.628423,19.901853 L158.648523,19.570553 L159.668723,19.239253 L160.688823,18.907953 L161.697723,18.580193 L162.709523,18.263183 L163.732523,17.942623 L164.755523,17.621943 L165.778623,17.301383 L166.801623,16.980703 L167.824623,16.660153 L168.847623,16.339593 L169.856523,16.023313 L170.868823,15.720453 L171.895723,15.414303 L172.922723,15.108513 L173.949723,14.802733 L174.976623,14.496943 L176.003923,14.192133 L177.031223,13.887573 L178.047423,13.586173 L179.066223,13.295403 L180.096323,13.001463 L181.126423,12.707513 L182.147423,12.416133 L183.170523,12.133173 L184.202823,11.847893 L185.235123,11.562493 L186.257523,11.279783 L187.282223,11.006343 L188.316823,10.730343 L189.351523,10.454223 L190.376523,10.180663 L191.403923,9.91613301 L192.440823,9.64904301 L193.477723,9.38195301 L194.503423,9.11779301 L195.531823,8.86413301 L196.571423,8.60754301 L197.611023,8.35107301 L198.638523,8.09753301 L199.668923,7.85509301 L200.711423,7.60986301 L201.753823,7.36449301 L202.796223,7.11925301 C204.029423,6.82799301 204.793023,5.59228301 204.501823,4.35900301 C204.210623,3.12585301 202.974823,2.36217301 201.741623,2.65343301 L200.699623,2.90038301 L199.657523,3.14745301 L198.615523,3.39440301 L197.561423,3.64428301 L196.510123,3.90539301 L195.471023,4.16369301 L194.431823,4.42187301 L193.381423,4.68285301 L192.333623,4.95446301 L191.297123,5.22326301 L190.260623,5.49206301 L189.214523,5.76330301 L188.170723,6.04357301 L187.136523,6.32140301 L186.102423,6.59911301 L185.058323,6.87951301 L184.016623,7.16930301 L182.984823,7.45641301 L181.953023,7.74352301 L180.912223,8.03307301 L179.873523,8.33129301 L178.843923,8.62694301 L177.814323,8.92272301 L176.773623,9.22155301 L175.735623,9.53112301 L174.708823,9.83739301 L173.681923,10.143553 L172.654723,10.448723 L171.627623,10.753783 L170.600423,11.058953 L169.573123,11.363643 L168.531423,11.671743 L167.493223,11.993403 L166.469223,12.310663 L165.445123,12.628043 L164.421123,12.945303 L163.397023,13.262693 L162.373023,13.579953 L161.348923,13.897213 L160.313723,14.218133 L159.281323,14.549673 L158.260023,14.877683 L157.238823,15.205683 L156.217623,15.533683 L155.196423,15.861693 L154.175223,16.189693 L153.153723,16.516723 L152.124223,16.846183 L151.096823,17.183223 L150.077223,17.517453 L149.057023,17.849723 L148.036823,18.182123 L147.016623,18.514523 L145.996423,18.846923 L144.976223,19.179193 L143.949823,19.513663 L142.925123,19.853753 L141.906023,20.190303 L140.886223,20.524893 L139.866523,20.859493 L138.846723,21.193963 L137.826523,21.527213 L136.806023,21.859493 L135.782123,22.192863 L134.759323,22.529293 L133.738723,22.861323 L132.717723,23.192623 L131.696823,23.523803 L130.675923,23.854973 L129.652523,24.179193 L128.629023,24.503043 L127.605123,24.827143 L126.581923,25.153073 L125.562523,25.488403 L124.543223,25.823723 L123.523823,26.158933 L122.505423,26.497063 L121.489323,26.841793 L120.473223,27.186523 L119.459323,27.530393 L118.445023,27.871703 L117.428223,28.213003 L116.411423,28.554313 L115.394523,28.895623 L114.377323,29.235593 L113.359823,29.574703 L112.342223,29.913933 L111.330323,30.251093 L110.316523,30.580193 L109.296623,30.910273 L108.276923,31.240353 L107.257023,31.570553 L106.237023,31.899893 L105.216923,32.229243 L104.196923,32.558593 L103.182423,32.885493 L102.165823,33.204093 L101.143523,33.524533 L100.121223,33.845083 L99.1042232,34.163813 L98.0864232,34.478393 L97.0633232,34.794673 L96.0402232,35.110833 L95.0234232,35.425043 L94.0057232,35.734243 L92.9816232,36.045653 L91.9575232,36.356933 L90.9406232,36.667963 L89.9232232,36.975213 L88.8991232,37.284663 L87.8749232,37.593993 L86.8601232,37.903803 L85.8441232,38.208373 L84.8200232,38.515493 L83.7957232,38.822623 L82.7812232,39.128043 L81.7653232,39.426513 L80.7399232,39.727903 L79.7147232,40.029533 L78.6995232,40.330803 L77.6829232,40.625363 L76.6569232,40.922603 L75.6310232,41.220213 L74.6168232,41.515983 L73.6008232,41.803823 L72.5735232,42.094723 L71.5461232,42.385253 L70.5308232,42.671383 L69.5135232,42.948723 L68.4838232,43.229613 L67.4542232,43.510123 L66.4365232,43.787223 L65.4169232,44.055783 L64.3853232,44.327633 L63.3529232,44.596553 L62.3344232,44.860343 L61.3137232,45.114253 L60.2787232,45.371703 L59.2432232,45.627073 L58.2230232,45.877803 L57.2005232,46.118033 L56.1625232,46.361933 L55.1244232,46.605953 L54.1016232,46.846313 L53.0765232,47.076293 L52.0362232,47.310173 L50.9965232,47.546133 L49.9746232,47.777823 L48.9500232,47.997673 L47.9079232,48.223013 L46.8667232,48.452263 L45.8446232,48.677483 L44.8196232,48.890013 L43.7738232,49.098503 L42.7253232,49.294433 L41.6954232,49.486443 L40.6631232,49.666503 L39.6089232,49.834103 L38.5520232,49.987543 L37.5176232,50.136713 L36.4807232,50.271963 L35.4237232,50.424673 L34.3678232,50.583493 L33.3368232,50.737783 L32.3029232,50.877563 L31.2451232,51.027213 L30.1875232,51.178093 L29.1542232,51.324823 L28.1181232,51.457763 L27.0586232,51.600943 L25.9991232,51.744133 L24.9682232,51.883053 L23.9340232,52.006223 L22.8711232,52.133543 L21.8082232,52.260733 L20.7760232,52.383903 L19.7403232,52.491693 L18.6744232,52.605953 L17.6085232,52.720213 L16.5719232,52.830923 L15.5321232,52.927243 L14.4630232,53.028073 L13.3939232,53.128903 L12.3588232,53.226073 L11.3198232,53.305783 L10.2468232,53.388663 L9.1739232,53.471673 L8.1367232,53.551383 L7.0954232,53.613033 L6.0184232,53.677363 L4.9414232,53.741693 L3.8644232,53.806143 C1.5647232,53.978143 -0.160176801,55.981803 0.0118231994,58.281613 C0.183823199,60.581293 2.1875232,62.306143 4.4873232,62.134153 Z" id="Fill-51"></path>
            <path d="M162.001723,9.31225301 L163.092223,9.23058301 L164.182823,9.14904301 L165.273423,9.06750301 L166.376823,8.98522301 L167.473923,8.89269301 L168.558223,8.80065301 L169.642223,8.70531301 L170.738123,8.60473301 L171.828723,8.49425301 L172.907123,8.38464301 L173.985223,8.27245301 L175.073323,8.15429301 L176.156923,8.02270301 L177.229623,7.88586301 L178.301423,7.73791301 L179.381523,7.56872301 L180.459123,7.40514301 L181.530623,7.28637301 L182.602923,7.17638301 L183.683423,7.05175301 L184.760023,6.90661301 L185.825923,6.74975301 L186.890823,6.58276301 L187.962023,6.40356301 L189.031323,6.21593301 L190.093323,6.03173301 L191.157123,5.86303301 L192.229423,5.70702301 L193.301923,5.55151301 L194.368923,5.41051301 L195.436223,5.27196301 L196.507023,5.10705301 L197.572823,4.89550301 L198.633323,4.69360301 L199.695723,4.50634301 L200.764123,4.32763301 L201.834123,4.14684301 L202.899923,3.97228301 L203.966323,3.80187301 L205.037423,3.63073301 L206.110223,3.45116301 L207.178923,3.27599301 L208.248223,3.10461301 L209.321723,2.93346301 L210.398023,2.75402301 L211.470223,2.57519301 L212.542423,2.39635301 L213.614723,2.21752301 C214.220923,2.12646301 214.638523,1.56115301 214.547423,0.954953007 C214.456323,0.348623007 213.891023,-0.0688569927 213.284723,0.0222130073 L212.207323,0.166373007 L211.130023,0.310663007 L210.052623,0.454833007 L208.979323,0.598383007 L207.909123,0.733883007 L206.834723,0.869133007 L205.759723,1.00048301 L204.688923,1.12743301 L203.620323,1.24609301 L202.546923,1.36535301 L201.473023,1.48046301 L200.403223,1.58935301 L199.334023,1.68468301 L198.258723,1.77160301 L197.181623,1.84362301 L196.109823,1.90624301 L195.043323,1.99767301 L193.973623,2.11547301 L192.903523,2.23095301 L191.838823,2.33190301 L190.772623,2.41430301 L189.697823,2.48388301 L188.621323,2.53808301 L187.552023,2.58898301 L186.481823,2.63122301 L185.405323,2.68603301 L184.329823,2.75072301 L183.265123,2.82726301 L182.199223,2.90551301 L181.125323,2.99828301 L180.050523,3.08239301 L178.981823,3.12170301 L177.908923,3.13610301 L176.827623,3.17174301 L175.747223,3.21850301 L174.677723,3.27062301 L173.605123,3.31823301 L172.522423,3.37194301 L171.439923,3.42809301 L170.369623,3.48339301 L169.294423,3.52868301 L168.207423,3.57922301 L167.120623,3.63305301 L166.046623,3.68639301 L164.966723,3.72948301 L163.873923,3.77343301 L162.781223,3.81725301 L161.688423,3.86120301 C160.183223,3.94762301 159.033123,5.23803301 159.119623,6.74328301 C159.206123,8.24853301 160.496423,9.39867301 162.001723,9.31225301 Z" id="Fill-67"></path>
            <path d="M169.801323,25.826533 L170.721423,25.273673 L171.626723,24.729363 L172.536123,24.198363 L173.446723,23.666503 L174.361223,23.146843 L175.277823,22.625483 L176.196223,22.111563 L177.112423,21.593623 L178.032223,21.086053 L178.953223,20.577873 L179.876223,20.076653 L180.795123,19.571653 L181.715823,19.073603 L182.645923,18.564083 L183.571023,18.044433 L184.473923,17.513183 L185.388423,17.008413 L186.335223,16.536863 L187.285923,16.073363 L188.221823,15.601803 L189.156423,15.129263 L190.094423,14.640863 L191.028123,14.143303 L191.952323,13.637323 L192.879023,13.136343 L193.811223,12.635613 L194.749823,12.148923 L195.692523,11.675413 L196.640523,11.212643 L197.595823,10.761593 L198.552123,10.312613 L199.498923,9.83923301 L200.429923,9.32946301 L201.363323,8.82848301 L202.302823,8.34081301 L203.249323,7.86022301 L204.197023,7.37939301 L205.144123,6.90514301 L206.092823,6.43468301 L207.046823,5.96191301 L207.998423,5.47936301 L208.946523,5.00280301 L209.896323,4.52965301 L210.853423,4.05382301 L211.807023,3.56432301 L212.753723,3.07812301 L213.700323,2.59203301 L214.647023,2.10583301 C215.196923,1.83483301 215.422923,1.16930301 215.151823,0.619383007 C214.880723,0.0695730073 214.215323,-0.156376993 213.665423,0.114623007 L212.703323,0.569453007 L211.741223,1.02428301 L210.779023,1.47912301 L209.823723,1.93053301 L208.865623,2.36816301 L207.900123,2.80846301 L206.933023,3.24523301 L205.969423,3.67614301 L205.004023,4.09740301 L204.033423,4.52099301 L203.061123,4.94103301 L202.089623,5.35436301 L201.114823,5.75695301 L200.133123,6.15270301 L199.145223,6.53503301 L198.155023,6.90856301 L197.180523,7.31396301 L196.215523,7.74377301 L195.249523,8.17138301 L194.276223,8.58739301 L193.299923,8.99645301 L192.319623,9.39245301 L191.332723,9.77428301 L190.340323,10.155883 L189.349623,10.542593 L188.368223,10.937863 L187.391123,11.342153 L186.410523,11.762203 L185.437723,12.201903 L184.479623,12.649773 L183.517623,13.089473 L182.523323,13.495843 L181.526123,13.902583 L180.551123,14.321163 L179.581123,14.749753 L178.601623,15.189813 L177.627523,15.645503 L176.657423,16.104973 L175.691223,16.576163 L174.723723,17.048333 L173.759223,17.531003 L172.796823,18.017693 L171.838923,18.517813 L170.878923,19.019523 L169.922523,19.533813 L168.964923,20.048943 L168.011123,20.577513 L167.072123,21.097653 C165.766223,21.851313 165.318623,23.520873 166.072323,24.826773 C166.825923,26.132563 168.495523,26.580193 169.801323,25.826533 Z" id="Fill-68"></path>
            <path d="M201.736523,7.91442301 L202.045223,7.65734301 L202.317923,7.42699301 L202.543223,7.20861301 L202.733523,7.00939301 L202.882223,6.81884301 L202.983723,6.62182301 L203.072523,6.46679301 L203.171123,6.39721301 L203.238123,6.33227301 L203.277423,6.26867301 L203.293323,6.20568301 L203.222923,6.16967301 L203.505223,5.78637301 L204.148323,5.29369301 L205.399723,4.57067301 C205.984723,4.38732301 206.310423,3.76452301 206.127123,3.17956301 C205.943923,2.59460301 205.321123,2.26891301 204.736023,2.45214301 L203.306223,2.56896301 L202.452223,2.52782301 L201.836623,2.46679301 L201.571123,2.51769301 L201.389323,2.55114301 L201.219323,2.59789301 L201.059023,2.65881301 L200.902523,2.73595301 L200.699523,2.75231301 L200.468223,2.75256301 L200.231223,2.79113301 L199.973923,2.85705301 L199.687823,2.93981301 L199.371123,3.05358301 L199.003423,3.18774301 C197.698123,3.94250301 197.251823,5.61242301 198.006523,6.91759301 C198.761323,8.22289301 200.431223,8.66918301 201.736523,7.91442301 Z" id="Fill-110"></path>
        </g>
    </g>
</svg>
