<?xml version="1.0" encoding="UTF-8"?>
<svg width="258px" height="124px" viewBox="0 0 258 124" version="1.1" xmlns="http://www.w3.org/2000/svg" xmlns:xlink="http://www.w3.org/1999/xlink">
    <title>219</title>
    <g id="Page-1" stroke="none" stroke-width="1" fill="none" fill-rule="evenodd">
        <g id="219" transform="translate(0.972685, 0.229794)" fill="currentColor">
            <path d="M69.529,48.8414 L69.145,47.7397 L68.735,46.6294 L68.312,45.5505 L67.877,44.4968 L67.427,43.4671 L66.966,42.4686 L66.492,41.4946 L66.003,40.544 L65.503,39.6241 L64.991,38.7285 L64.464,37.8557 L63.927,37.0133 L63.378,36.1949 L62.814,35.399 L62.24,34.6333 L61.656,33.8914 L61.056,33.1718 L60.448,32.4823 L59.83,31.8167 L59.197,31.1734 L58.556,30.5601 L57.905,29.9708 L57.24,29.4039 L56.569,28.8669 L55.889,28.3541 L55.196,27.864 L54.498,27.4035 L53.792,26.9672 L53.073,26.5542 L52.299,26.1431 L50.892,25.4744 L49.396,24.8776 L47.892,24.3877 L46.375,23.9903 L44.835,23.6893 L43.3,23.4867 L41.762,23.37 L40.214,23.3435 L38.679,23.4047 L37.151,23.5437 L35.622,23.765 L34.112,24.0625 L32.615,24.4284 L31.124,24.8686 L29.657,25.3752 L28.206,25.9422 L26.767,26.576 L25.356,27.2685 L23.966,28.0153 L22.593,28.8221 L21.25,29.6796 L19.932,30.5848 L18.636,31.5438 L17.375,32.5471 L16.142,33.5924 L14.936,34.686 L13.769,35.8181 L12.634,36.987 L11.532,38.1992 L10.473,39.4439 L9.451,40.721 L8.468,42.0362 L7.532,43.3787 L6.638,44.7489 L5.79,46.1536 L4.997,47.5806 L4.25,49.0306 L3.555,50.5096 L2.919,52.0046 L2.336,53.5183 L1.811,55.0567 L1.35,56.6054 L0.95,58.1683 L0.618,59.7517 L0.357,61.3389 L0.163,62.9347 L0.042,64.545 L0,66.1521 L0.032,67.7614 L0.146,69.3787 L0.345,70.9846 L0.631,72.5838 L1.01,74.1815 L1.479,75.757 L2.034,77.3176 L2.687,78.8665 L3.433,80.384 L4.268,81.877 L5.206,83.348 L6.209,84.7479 L6.779,85.4903 L7.351,86.193 L7.947,86.8834 L8.565,87.565 L9.212,88.2401 L9.881,88.9022 L10.574,89.5548 L11.296,90.1997 L12.04,90.8311 L12.808,91.4526 L13.605,92.0653 L14.426,92.6643 L15.27,93.2528 L16.142,93.8343 L17.035,94.4047 L17.954,94.9642 L18.902,95.5134 L19.874,96.0487 L20.872,96.5727 L21.899,97.0855 L22.952,97.5843 L24.03,98.0714 L25.139,98.5465 L26.273,99.0073 L27.434,99.4558 L28.626,99.8899 L29.845,100.3092 L31.09,100.7157 L32.367,101.1088 L33.672,101.487 L35.003,101.852 L36.367,102.2028 L37.759,102.5384 L39.178,102.8601 L40.631,103.1666 L42.113,103.4566 L43.623,103.7325 L45.167,103.993 L46.74,104.237 L48.343,104.4663 L49.98,104.6794 L51.671,104.8783 L53.536,105.0507 L55.446,105.1486 L57.364,105.1709 L59.293,105.1261 L61.238,105.0095 L63.188,104.8238 L65.146,104.5764 L67.116,104.2639 L69.088,103.8886 L71.064,103.4567 L73.049,102.9636 L75.032,102.4128 L77.005,101.814 L78.012,101.4808 L79.006,101.1523 L80.001,100.7973 L80.992,100.4433 L81.983,100.0658 L82.977,99.687 L83.969,99.2829 L84.961,98.879 L85.952,98.4505 L86.939,98.0233 L87.925,97.5744 L88.912,97.1243 L89.898,96.6513 L90.882,96.1785 L91.864,95.6836 L92.842,95.1898 L93.817,94.6765 L94.794,94.1621 L95.767,93.6268 L96.739,93.0916 L97.706,92.5366 L98.67,91.9827 L99.63,91.4113 L100.591,90.8389 L101.546,90.248 L102.5,89.6574 L103.448,89.049 L104.393,88.442 L105.332,87.8194 L106.272,87.1958 L107.204,86.5556 L108.135,85.9156 L109.058,85.26 L109.979,84.6057 L110.891,83.9378 L111.804,83.2688 L112.707,82.585 L113.61,81.9013 L114.501,81.2042 L115.391,80.5085 L116.271,79.8011 L117.152,79.0926 L118.021,78.372 L118.89,77.6514 L119.746,76.9196 L120.6,76.1893 L121.442,75.4493 L122.285,74.7074 L123.114,73.9554 L123.942,73.2036 L124.756,72.4426 L125.568,71.6831 L126.366,70.9159 L127.166,70.1472 L127.949,69.3709 L128.733,68.5946 L129.5,67.8114 L130.265,67.0295 L131.014,66.242 L131.765,65.4526 L132.497,64.6577 L133.229,63.8626 L133.943,63.0629 L134.656,62.2646 L135.35,61.4626 L136.046,60.6588 L136.723,59.8515 L137.399,59.044 L138.054,58.234 L138.708,57.4254 L139.343,56.6149 L139.983,55.7946 L141.204,54.1723 L142.384,52.5433 L143.521,50.9138 L144.612,49.2828 L145.652,47.6562 L146.646,46.0322 L147.588,44.4094 L148.475,42.7949 L149.313,41.1865 L150.096,39.5828 L150.82,37.9914 L151.49,36.4088 L152.102,34.8333 L152.649,33.2738 L153.138,31.7254 L153.563,30.1862 L153.918,28.6663 L154.21,27.1601 L154.431,25.6645 L154.576,24.1925 L154.652,22.7368 L154.647,21.2939 L154.559,19.8803 L154.393,18.488 L154.137,17.114 L153.791,15.7782 L153.358,14.4727 L152.826,13.1961 L152.2,11.9709 L151.484,10.7889 L150.664,9.6503 L149.786,8.6128 L149.266,8.0593 L148.751,7.5539 L148.216,7.0675 L147.659,6.5957 L147.076,6.137 L146.474,5.6976 L145.851,5.2734 L145.202,4.8635 L144.533,4.4725 L143.845,4.097 L143.13,3.7364 L142.397,3.3944 L141.644,3.068 L140.864,2.7569 L140.066,2.4639 L139.247,2.1865 L138.403,1.9249 L137.539,1.6811 L136.654,1.4526 L135.743,1.2402 L134.812,1.0454 L133.86,0.866 L132.881,0.7033 L131.882,0.5581 L130.86,0.4283 L129.812,0.3156 L128.743,0.2203 L127.65,0.1409 L126.531,0.0788 L125.375,0.034 L123.591,0 L121.838,0.0173 L120.136,0.0866 L118.477,0.2028 L116.862,0.3704 L115.297,0.5876 L113.775,0.8499 L112.294,1.1621 L110.864,1.521 L109.475,1.9229 L108.127,2.3732 L106.829,2.8681 L105.573,3.4044 L104.358,3.9874 L103.194,4.6115 L102.072,5.2747 L100.991,5.9823 L99.961,6.727 L98.973,7.5072 L98.027,8.3286 L97.132,9.1823 L96.28,10.0681 L95.469,10.9912 L94.709,11.942 L93.991,12.9204 L93.315,13.932 L92.686,14.9664 L92.099,16.0244 L91.553,17.1112 L91.053,18.217 L90.595,19.3433 L90.177,20.4943 L89.801,21.6602 L89.463,22.8422 L89.163,24.0451 L88.904,25.26 L88.679,26.488 L88.491,27.7335 L88.34,28.9881 L88.223,30.2535 L88.142,31.5333 L88.099,32.8199 L88.087,34.1143 L88.109,35.42 L88.163,36.7298 L88.247,38.0454 L88.363,39.3691 L88.509,40.6948 L88.683,42.0238 L88.888,43.3582 L89.12,44.6926 L89.377,46.0283 L89.663,47.3667 L89.976,48.7024 L90.313,50.0368 L90.679,51.3713 L91.07,52.7006 L91.485,54.0263 L91.925,55.3491 L92.39,56.6645 L92.875,57.9743 L93.385,59.2786 L93.918,60.5727 L94.472,61.8585 L95.049,63.1359 L95.647,64.4006 L96.266,65.6544 L96.906,66.8972 L97.566,68.1245 L98.245,69.3389 L98.944,70.5396 L99.661,71.7221 L100.396,72.8889 L101.151,74.0391 L101.923,75.1685 L102.711,76.2796 L103.518,77.3714 L104.341,78.4395 L105.178,79.4875 L106.033,80.5138 L106.902,81.5135 L107.786,82.4899 L108.686,83.4415 L109.6,84.3637 L110.528,85.26 L111.471,86.1286 L112.427,86.9648 L113.395,87.7723 L114.378,88.5492 L115.373,89.2905 L116.379,90.0003 L117.4,90.6764 L118.43,91.3137 L119.472,91.9163 L120.528,92.4816 L121.583,93.0006 L122.479,93.4132 L123.351,93.7915 L124.205,94.138 L125.045,94.457 L125.873,94.7469 L126.686,95.0057 L127.487,95.2368 L128.28,95.4386 L129.059,95.6092 L129.829,95.7523 L130.593,95.8656 L131.343,95.948 L132.086,96.0024 L132.824,96.0268 L133.55,96.0207 L134.268,95.9871 L134.982,95.9234 L135.683,95.8308 L136.376,95.7116 L137.065,95.5633 L137.742,95.3885 L138.411,95.1893 L139.075,94.963 L139.762,94.6992 L141.015,94.1484 L142.285,93.4907 L143.535,92.7523 L144.775,91.9428 L146.018,91.057 L147.266,90.103 L148.527,89.0885 L149.813,88.0081 L151.13,86.8671 L152.481,85.6726 L153.879,84.4202 L155.338,83.106 L155.664,82.7918 L155.976,82.4491 L156.261,82.0975 L156.527,81.736 L156.778,81.3603 L157.029,80.9495 L157.443,80.1973 L157.837,79.3817 L158.198,78.5507 L158.535,77.7105 L158.854,76.8646 L159.155,76.0272 L159.445,75.206 L159.725,74.4124 L159.997,73.6587 L160.261,72.9544 L160.518,72.3199 L160.766,71.7667 L160.998,71.3098 L161.193,70.9851 L161.388,70.7379 L161.371,70.7595 L161.36,70.7679 L161.312,70.8011 L161.212,70.8508 L161.046,70.9055 L160.865,70.9354 L160.68,70.9337 L160.509,70.9043 L160.407,70.8711 L160.365,70.8499 L160.373,70.8553 L160.434,70.9055 L160.654,71.1096 L160.835,71.3066 L161.001,71.5169 L161.152,71.7358 L161.283,71.9602 L161.404,72.2045 L161.513,72.4637 L161.608,72.734 L161.692,73.0282 L161.765,73.3398 L161.824,73.6651 L161.867,73.9735 L161.931,74.762 L161.942,75.5654 L161.91,76.4304 L161.844,77.341 L161.749,78.2899 L161.633,79.2751 L161.508,80.2871 L161.38,81.3295 L161.273,82.3687 L161.161,83.4802 L161.082,85.5634 L161.116,86.7088 L161.226,87.8166 L161.427,88.916 L161.731,90.0107 L162.167,91.0972 L162.708,92.0777 L163.178,92.8022 L163.62,93.4476 L164.065,94.0647 L164.514,94.6583 L164.97,95.2282 L165.428,95.771 L165.891,96.2911 L166.36,96.7889 L166.833,97.26 L167.31,97.7091 L167.794,98.1364 L168.308,98.5598 L169.266,99.2763 L170.277,99.9262 L171.297,100.4809 L172.329,100.9536 L173.379,101.3413 L174.428,101.642 L175.481,101.8682 L176.54,102.0188 L177.59,102.0966 L178.635,102.1134 L179.679,102.0687 L180.71,101.9686 L181.733,101.8225 L182.753,101.6301 L183.76,101.3984 L184.759,101.1344 L185.753,100.8381 L186.738,100.5161 L187.715,100.1738 L188.687,99.8121 L189.651,99.4366 L190.609,99.0517 L191.56,98.6596 L192.503,98.2651 L193.44,97.8717 L194.366,97.4825 L195.29,97.1035 L196.191,96.734 L197.998,96.0411 L199.756,95.4337 L201.459,94.9426 L203.159,94.5824 L203.921,94.4681 L204.703,94.3889 L205.475,94.3536 L206.231,94.3598 L206.965,94.4134 L207.724,94.5233 L208.352,94.6407 L208.978,94.7714 L209.577,94.9106 L210.151,95.0567 L210.694,95.2093 L211.213,95.3695 L211.708,95.5354 L212.174,95.7063 L212.618,95.8837 L213.04,96.0658 L213.435,96.2513 L213.781,96.4265 L214.505,96.8366 L215.114,97.2404 L215.657,97.6615 L216.145,98.0936 L216.572,98.5335 L216.957,98.9935 L217.306,99.4686 L217.616,99.9563 L217.899,100.4693 L218.159,101.0022 L218.395,101.5518 L218.614,102.1269 L218.819,102.7218 L219.011,103.3333 L219.196,103.965 L219.378,104.6128 L219.56,105.275 L219.753,105.9657 L220.166,107.34 L220.675,108.7592 L221.301,110.1209 L221.721,110.8773 L222.177,111.5778 L222.691,112.2552 L223.267,112.911 L223.918,113.5422 L224.635,114.1308 L225.417,114.6811 L226.28,115.1905 L227.208,115.6485 L228.206,116.0617 L229.288,116.4283 L230.417,116.7368 L231.052,116.8848 L231.684,117.0141 L232.337,117.1306 L233.01,117.2359 L233.71,117.3292 L234.432,117.4097 L235.178,117.479 L235.951,117.5357 L236.75,117.5795 L237.573,117.6119 L238.426,117.6312 L239.291,117.637455 C240.558,117.6461 241.592,116.6259 241.601047,115.3588 C241.609,114.0918 240.589,113.0576 239.322,113.0489 L238.492,113.0435 L237.713,113.0262 L236.963,112.9973 L236.243,112.9581 L235.555,112.9079 L234.896,112.8471 L234.265,112.7771 L233.665,112.6975 L233.092,112.6081 L232.544,112.5107 L232.027,112.4054 L231.563,112.2983 L230.621,112.0429 L229.814,111.77 L229.094,111.472 L228.453,111.1571 L227.898,110.8292 L227.405,110.4819 L226.965,110.1218 L226.583,109.7513 L226.237,109.3565 L225.922,108.9423 L225.641,108.51 L225.407,108.0959 L224.913,107.0282 L224.515,105.9122 L224.146,104.679 L223.969,104.0495 L223.786,103.3844 L223.593,102.7016 L223.388,102.0033 L223.163,101.2891 L222.914,100.5666 L222.635,99.835 L222.316,99.094 L221.955,98.3557 L221.546,97.6189 L221.078,96.8837 L220.551,96.1672 L219.963,95.4672 L219.3,94.7857 L218.57,94.139 L217.772,93.5232 L216.893,92.9401 L215.973,92.4172 L215.44,92.1455 L214.913,91.8989 L214.369,91.6641 L213.806,91.4394 L213.218,91.2242 L212.611,91.0208 L211.983,90.8275 L211.33,90.6444 L210.655,90.4729 L209.958,90.3115 L209.234,90.1608 L208.455,90.0166 L207.454,89.8746 L206.416,89.7989 L205.388,89.7902 L204.367,89.8376 L203.347,89.9411 L202.297,90.102 L200.35,90.5178 L198.378,91.0863 L196.436,91.7574 L194.525,92.4906 L193.56,92.8868 L192.618,93.2736 L191.674,93.6706 L190.74,94.0634 L189.811,94.4527 L188.889,94.8333 L187.974,95.2021 L187.066,95.5565 L186.167,95.8913 L185.276,96.2041 L184.394,96.4931 L183.526,96.7524 L182.666,96.9802 L181.818,97.176 L180.988,97.3335 L180.167,97.4511 L179.359,97.5304 L178.572,97.5648 L177.793,97.5526 L177.027,97.4968 L176.279,97.3912 L175.533,97.231 L174.793,97.0203 L174.065,96.752 L173.331,96.4159 L172.594,96.0167 L171.861,95.5457 L171.089,94.9665 L170.743,94.6803 L170.37,94.3518 L169.994,93.9975 L169.616,93.6214 L169.24,93.2226 L168.86,92.7962 L168.479,92.3459 L168.1,91.8709 L167.719,91.3665 L167.337,90.8368 L166.956,90.2806 L166.607,89.7476 L166.27,89.1458 L166.036,88.5603 L165.856,87.9033 L165.726,87.1867 L165.65,86.4172 L165.625,85.6339 L165.697,83.7525 L165.794,82.8335 L165.896,81.842 L166.02,80.8469 L166.148,79.8211 L166.271,78.7847 L166.377,77.7354 L166.454,76.6817 L166.494,75.6213 L166.479,74.5512 L166.399,73.5285 L166.323,72.9549 L166.225,72.4173 L166.102,71.8862 L165.951,71.3571 L165.765,70.8265 L165.547,70.3086 L165.295,69.7987 L165,69.2945 L164.67,68.8122 L164.302,68.3474 L163.89,67.8986 L163.452,67.488 L163.061,67.1724 L162.63,66.8923 L162.163,66.6627 L161.649,66.4887 L161.077,66.3905 L160.505,66.3889 L159.947,66.4791 L159.416,66.6579 L158.96,66.8925 L158.564,67.1637 L158.216,67.4655 L157.87,67.8332 L157.425,68.4123 L157.009,69.0935 L156.648,69.7981 L156.319,70.5291 L156.009,71.2932 L155.712,72.078 L155.423,72.8765 L155.138,73.6845 L154.853,74.4902 L154.566,75.2838 L154.276,76.0527 L153.98,76.7873 L153.68,77.4764 L153.379,78.0992 L153.057,78.6805 L152.925,78.8946 L152.781,79.1098 L152.639,79.3022 L152.504,79.4686 L152.383,79.6015 L152.262,79.7179 L150.821,81.0128 L149.437,82.2496 L148.113,83.4177 L146.839,84.5197 L145.616,85.5449 L144.436,86.4924 L143.292,87.3648 L142.188,88.1506 L141.111,88.8519 L140.059,89.4727 L139.034,90.0023 L137.985,90.4605 L137.515,90.6389 L137.016,90.8081 L136.513,90.9569 L136.009,91.0863 L135.506,91.1934 L134.995,91.2802 L134.479,91.3477 L133.96,91.3931 L133.427,91.417 L132.885,91.4206 L132.335,91.4014 L131.768,91.3586 L131.187,91.2939 L130.593,91.2048 L129.979,91.0894 L129.348,90.95 L128.701,90.7841 L128.031,90.5894 L127.342,90.3687 L126.634,90.1196 L125.901,89.8389 L125.148,89.5305 L124.374,89.1917 L123.583,88.8248 L122.65,88.3628 L121.734,87.8685 L120.819,87.3352 L119.909,86.7685 L119.007,86.1676 L118.109,85.5297 L117.218,84.8607 L116.336,84.1599 L115.461,83.4249 L114.593,82.661 L113.737,81.868 L112.889,81.0434 L112.052,80.1926 L111.226,79.3154 L110.412,78.4095 L109.608,77.4799 L108.82,76.5269 L108.043,75.5478 L107.281,74.5471 L106.535,73.5257 L105.802,72.4816 L105.085,71.4193 L104.385,70.3393 L103.7,69.2396 L103.031,68.1242 L102.382,66.9943 L101.75,65.8476 L101.136,64.6877 L100.542,63.5162 L99.968,62.3309 L99.412,61.1355 L98.878,59.9316 L98.365,58.717 L97.872,57.4951 L97.401,56.2679 L96.953,55.0329 L96.528,53.7929 L96.127,52.5507 L95.75,51.3037 L95.396,50.0551 L95.067,48.8077 L94.763,47.5583 L94.483,46.3103 L94.23,45.0666 L94.003,43.8242 L93.802,42.5855 L93.632,41.3545 L93.489,40.1276 L93.371,38.9079 L93.283,37.6994 L93.224,36.4981 L93.192,35.3068 L93.189,34.1302 L93.217,32.9637 L93.272,31.81 L93.355,30.6743 L93.468,29.5511 L93.608,28.4432 L93.78,27.3566 L93.984,26.2852 L94.218,25.2318 L94.482,24.2028 L94.779,23.1912 L95.106,22.2 L95.464,21.2359 L95.856,20.2913 L96.276,19.3679 L96.727,18.4731 L97.214,17.5993 L97.731,16.7491 L98.28,15.9293 L98.867,15.132 L99.486,14.3592 L100.137,13.6181 L100.83,12.9007 L101.556,12.2089 L102.317,11.5496 L103.122,10.9162 L103.963,10.31 L104.842,9.7373 L105.768,9.193 L106.733,8.6776 L107.739,8.1973 L108.795,7.7491 L109.894,7.3324 L111.036,6.9533 L112.231,6.6102 L113.471,6.3023 L114.758,6.0356 L116.1,5.8092 L117.489,5.6211 L118.926,5.4769 L120.419,5.3774 L121.962,5.3195 L123.555,5.3092 L125.219,5.349 L126.265,5.3962 L127.294,5.4596 L128.297,5.5388 L129.275,5.6317 L130.222,5.7396 L131.145,5.8624 L132.041,5.9982 L132.908,6.1479 L133.75,6.3118 L134.567,6.488 L135.355,6.6768 L136.118,6.879 L136.857,7.0927 L137.567,7.3177 L138.253,7.5554 L138.916,7.8034 L139.549,8.0611 L140.16,8.3309 L140.748,8.6099 L141.308,8.8972 L141.847,9.1959 L142.364,9.5029 L142.854,9.8166 L143.323,10.1413 L143.773,10.4736 L144.196,10.8112 L144.602,11.16 L144.988,11.5157 L145.35,11.8759 L145.663,12.2113 L146.332,13.013 L146.889,13.8022 L147.38,14.6328 L147.811,15.4948 L148.172,16.385 L148.472,17.3225 L148.715,18.2965 L148.893,19.3026 L149.008,20.3579 L149.065,21.4506 L149.058,22.576 L148.986,23.7469 L148.856,24.9521 L148.662,26.1868 L148.402,27.4607 L148.084,28.7635 L147.705,30.091 L147.261,31.4504 L146.761,32.8332 L146.202,34.2354 L145.582,35.6626 L144.908,37.1076 L144.179,38.5669 L143.392,40.0445 L142.554,41.5349 L141.665,43.0344 L140.723,44.5472 L139.735,46.0681 L138.699,47.5935 L137.613,49.1258 L136.484,50.6613 L135.305,52.2034 L134.702,52.9638 L134.093,53.7341 L133.464,54.5034 L132.837,55.2713 L132.189,56.0373 L131.542,56.8037 L130.874,57.5673 L130.205,58.333 L129.518,59.0953 L128.832,59.8564 L128.128,60.6134 L127.424,61.3704 L126.702,62.1226 L125.979,62.8767 L125.239,63.6256 L124.502,64.3732 L123.748,65.1145 L122.994,65.8558 L122.224,66.5899 L121.453,67.3255 L120.668,68.054 L119.884,68.7811 L119.086,69.4996 L118.288,70.2181 L117.476,70.9273 L116.663,71.6385 L115.839,72.3404 L115.016,73.0411 L114.18,73.7309 L113.345,74.4206 L112.498,75.0987 L111.649,75.7782 L110.791,76.4464 L109.934,77.1132 L109.066,77.7669 L108.199,78.4207 L107.323,79.061 L106.445,79.7027 L105.559,80.331 L104.675,80.958 L103.782,81.5698 L102.89,82.1815 L101.99,82.7769 L101.089,83.3737 L100.181,83.9553 L99.276,84.5354 L98.364,85.0981 L97.452,85.6604 L96.535,86.2043 L95.616,86.7493 L94.693,87.2771 L93.772,87.8035 L92.847,88.3103 L91.923,88.8169 L90.995,89.3031 L90.065,89.7904 L89.133,90.2584 L88.204,90.7252 L87.272,91.17 L86.342,91.6147 L85.409,92.0367 L84.476,92.4598 L83.541,92.8617 L82.61,93.2624 L81.678,93.6391 L80.748,94.0157 L79.818,94.3675 L78.887,94.7205 L77.956,95.0503 L77.03,95.379 L76.105,95.6814 L75.194,95.9788 L73.338,96.5327 L71.503,97.0328 L69.682,97.4759 L67.871,97.8625 L66.072,98.1959 L64.293,98.4686 L62.527,98.6798 L60.778,98.8349 L59.054,98.9268 L57.346,98.955 L55.659,98.9246 L54.002,98.8287 L52.342,98.663 L50.77,98.4674 L49.212,98.254 L47.687,98.0255 L46.192,97.7837 L44.733,97.5277 L43.306,97.2572 L41.909,96.9742 L40.548,96.6784 L39.217,96.3696 L37.916,96.0489 L36.649,95.716 L35.412,95.3702 L34.205,95.0134 L33.031,94.6455 L31.887,94.2653 L30.771,93.875 L29.688,93.4747 L28.634,93.0647 L27.606,92.6453 L26.611,92.2171 L25.644,91.778 L24.703,91.3304 L23.795,90.8751 L22.913,90.4095 L22.056,89.9364 L21.231,89.4566 L20.432,88.9674 L19.657,88.4714 L18.915,87.9676 L18.198,87.4522 L17.506,86.9311 L16.844,86.4061 L16.205,85.8729 L15.589,85.3347 L15.001,84.7937 L14.436,84.245 L13.894,83.692 L13.378,83.1372 L12.883,82.575 L12.409,82.0091 L11.961,81.4423 L11.559,80.9025 L10.745,79.7052 L10.053,78.5334 L9.441,77.3427 L8.9,76.1424 L8.442,74.9399 L8.055,73.7193 L7.735,72.4904 L7.488,71.2611 L7.305,70.0153 L7.178,68.763 L7.117,67.5116 L7.121,66.2454 L7.182,64.9743 L7.305,63.7074 L7.489,62.4306 L7.728,61.1532 L8.023,59.8841 L8.375,58.6109 L8.777,57.3419 L9.231,56.0861 L9.739,54.8337 L10.294,53.5913 L10.896,52.368 L11.547,51.1552 L12.24,49.9585 L12.974,48.7863 L13.751,47.6305 L14.564,46.4965 L15.412,45.3935 L16.3,44.3148 L17.219,43.2639 L18.166,42.25 L19.147,41.2669 L20.153,40.3173 L21.18,39.4106 L22.235,38.541 L23.309,37.7103 L24.397,36.9279 L25.506,36.1887 L26.627,35.4934 L27.754,34.8514 L28.896,34.258 L30.044,33.712 L31.189,33.2231 L32.343,32.7873 L33.496,32.4034 L34.638,32.0803 L35.784,31.8144 L36.923,31.6029 L38.044,31.4537 L39.163,31.3652 L40.272,31.3324 L41.357,31.3618 L42.439,31.4554 L43.507,31.6069 L44.551,31.8217 L45.591,32.106 L46.619,32.4517 L47.622,32.864 L48.677,33.3819 L49.121,33.6256 L49.609,33.9129 L50.1,34.2233 L50.588,34.5521 L51.067,34.8984 L51.549,35.2695 L52.027,35.6602 L52.498,36.0698 L52.97,36.5059 L53.438,36.9632 L53.898,37.4405 L54.359,37.946 L54.815,38.4741 L55.263,39.0234 L55.71,39.6026 L56.153,40.2055 L56.586,40.8311 L57.017,41.4878 L57.442,42.1694 L57.859,42.8748 L58.271,43.6125 L58.676,44.3761 L59.072,45.1648 L59.461,45.9864 L59.844,46.835 L60.216,47.7098 L60.58,48.6182 L60.936,49.5544 L61.281,50.5178 L61.628,51.549 C62.376,53.7307 64.751,54.893 66.932,54.1453 C69.114,53.3975 70.276,51.0229 69.529,48.8414 Z" id="Fill-48"></path>
            <path d="M229.339,109.53 L230.069,109.9264 L230.834,110.3149 L231.601,110.6633 L232.37,110.9786 L233.152,111.2467 L233.97,111.4481 L235.455,111.9431 L236.946,112.4152 L238.422,112.8628 L239.896,113.2667 L241.39,113.571 L242.894,113.8042 L244.387,114.065 L245.868,114.3931 L247.375,114.6599 L248.764,114.9306 L250.121,115.2403 L251.474,115.5463 L252.842,115.8338 L254.244,116.0831 L255.669,116.2663 C256.266,116.3514 256.818,115.9367 256.903,115.3403 C256.988,114.7439 256.573,114.1914 255.977,114.1064 L254.61,113.8917 L253.308,113.6219 L252.02,113.297 L250.728,112.9277 L249.414,112.5174 L248.064,112.0512 L246.592,111.5463 L245.12,111.1357 L243.687,110.6659 L242.29,110.1558 L240.91,109.6817 L239.54,109.247 L238.196,108.7816 L236.898,108.2373 L235.622,107.5875 L235.07,107.1665 L234.489,106.7721 L233.903,106.3814 L233.322,105.9823 L232.747,105.5743 L232.144,105.1224 C230.927,104.3476 229.312,104.7063 228.538,105.9234 C227.763,107.1406 228.122,108.7553 229.339,109.53 Z" id="Fill-135"></path>
            <path d="M231.202,122.8892 L232.048,122.4121 L232.849,122.0163 L233.691,121.637 L234.562,121.2443 L235.462,120.8448 L236.431,120.6286 L237.419,120.408 L238.431,120.2246 L239.463,120.0607 L240.507,119.884 L241.557,119.6617 L242.591,119.3891 L243.698,119.0826 L244.8,118.8114 L245.906,118.5936 L247.013,118.3839 L248.108,118.0969 L249.213,117.8586 L250.323,117.6569 L251.435,117.4702 L252.552,117.2973 L253.672,117.1364 L254.797,116.9867 L255.928,116.8361 C256.527,116.7653 256.954,116.2227 256.883,115.6245 C256.812,115.0262 256.27,114.5987 255.672,114.6695 L254.537,114.7877 L253.396,114.9065 L252.262,115.0349 L251.125,115.1513 L249.992,115.2767 L248.856,115.3872 L247.718,115.4835 L246.571,115.5312 L245.437,115.6826 L244.3,115.8261 L243.154,115.9447 L242.015,116.028 L240.984,116.1047 L239.958,116.1992 L238.92,116.3245 L237.869,116.4636 L236.802,116.5992 L235.721,116.7319 L234.634,116.914 L233.498,116.978 L232.358,117.1317 L231.217,117.3884 L230.071,117.7425 L229.01,118.1469 C227.7,118.7525 227.129,120.305 227.735,121.6146 C228.34,122.9242 229.893,123.4948 231.202,122.8892 Z" id="Fill-136"></path>
            <path d="M238.964,117.5492 L239.976,117.2531 L240.947,116.8762 L241.952,116.6442 L242.977,116.5534 L244.009,116.5069 L245.052,116.3521 L246.121,116.2561 L247.189,116.2354 L248.267,116.1522 L249.349,116.1717 L250.429,116.2309 L251.514,116.302 C252.114,116.3587 252.646,115.9184 252.702,115.3186 C252.759,114.7187 252.319,114.1866 251.719,114.1298 L250.64,113.9967 L249.557,113.8514 L248.476,113.6875 L247.391,113.4207 L246.296,113.2734 L245.203,113.0506 L244.084,112.826 L242.955,112.7616 L241.817,112.7137 L240.661,112.5872 L239.47,112.3923 L238.322,112.364 C236.89,112.5413 235.873,113.8458 236.05,115.2777 C236.228,116.7094 237.532,117.7265 238.964,117.5492 Z" id="Fill-137"></path>
        </g>
    </g>
</svg>
