<?xml version="1.0" encoding="UTF-8"?>
<svg width="211px" height="158px" viewBox="0 0 211 158" version="1.1" xmlns="http://www.w3.org/2000/svg" xmlns:xlink="http://www.w3.org/1999/xlink">
    <title>220</title>
    <g id="Page-1" stroke="none" stroke-width="1" fill="none" fill-rule="evenodd">
        <g id="220" transform="translate(0.139685, 0.767694)" fill="currentColor">
            <path d="M31.003,37.7561 L30.252,37.9989 L29.438,38.2935 L28.637,38.614 L27.844,38.9596 L27.053,39.334 L26.276,39.7316 L25.508,40.1516 L24.742,40.5985 L23.99,41.0661 L23.246,41.5542 L22.507,42.0672 L21.744,42.6258 L20.352,43.7178 L18.952,44.9213 L17.595,46.1936 L16.273,47.5298 L14.985,48.9376 L13.741,50.4027 L12.537,51.9213 L11.371,53.5004 L10.254,55.1258 L9.181,56.7949 L8.152,58.5138 L7.178,60.2686 L6.252,62.0574 L5.379,63.8859 L4.566,65.7396 L3.807,67.6183 L3.109,69.5269 L2.479,71.4503 L1.91,73.38943 L1.409,75.34878 L0.982,77.31191 L0.625,79.282 L0.344,81.26296 L0.148,83.23708 L0.031,85.20876 L-2.27373675e-13,87.18215 L0.062,89.13662 L0.212,91.079 L0.461,93.0126 L0.803,94.86501 L1.025,95.85549 L1.266,96.79519 L1.534,97.72182 L1.827,98.64065 L2.151,99.55532 L2.502,100.45461 L2.88,101.34414 L3.291,102.22732 L3.729,103.09255 L4.196,103.94582 L4.697,104.79018 L5.226,105.61416 L5.783,106.42373 L6.377,107.22146 L6.998,107.99648 L7.649,108.75454 L8.336,109.49734 L9.052,110.2145 L9.797,110.91238 L10.578,111.59255 L11.386,112.24599 L12.223,112.87807 L13.097,113.48989 L14.002,114.07656 L15.737,115.13711 L17.486,116.15383 L19.238,117.12026 L20.995,118.03982 L22.76,118.91274 L24.526,119.73647 L26.295,120.51699 L28.07,121.25222 L29.844,121.93923 L31.621,122.58425 L33.405,123.17593 L35.186,123.71938 L36.968,124.22146 L38.753,124.67971 L40.533,125.09243 L42.312,125.46487 L44.093,125.79433 L45.867,126.08755 L47.637,126.34927 L49.409,126.56887 L51.174,126.74587 L52.936,126.88479 L54.698,126.98244 L56.451,127.03884 L58.2,127.05825 L59.948,127.04665 L61.687,126.99648 L63.421,126.91042 L65.152,126.78493 L66.874,126.62099 L68.588,126.42226 L70.299,126.18508 L71.999,125.91067 L73.69,125.6 L75.376,125.25198 L77.049,124.86843 L78.713,124.45217 L80.371,123.99966 L82.015,123.51296 L83.648,122.99465 L85.274,122.44094 L86.884,121.85354 L88.483,121.23562 L90.072,120.58364 L91.646,119.90017 L93.207,119.1874 L94.758,118.44155 L96.291,117.66543 L97.811,116.86123 L99.319,116.02492 L100.808,115.15981 L102.284,114.2676 L103.745,113.34438 L105.188,112.39358 L106.615,111.41677 L108.028,110.41006 L109.421,109.37771 L110.797,108.32082 L112.158,107.23501 L113.498,106.12405 L114.82,104.98916 L116.124,103.82644 L117.407,102.63979 L118.671,101.4302 L119.917,100.19546 L121.141,98.93789 L122.345,97.65835 L123.53,96.35305 L124.69,95.02627 L125.829,93.67837 L126.948,92.30581 L128.041,90.91299 L129.112,89.50014 L130.161,88.06374 L131.184,86.60805 L132.184,85.13345 L133.16,83.63613 L134.109,82.12087 L135.034,80.58755 L135.934,79.03298 L136.807,77.46157 L137.654,75.87319 L138.474,74.26418 L139.266,72.63955 L140.031,70.9988 L140.768,69.3386 L141.474,67.6637 L142.153,65.9737 L142.802,64.265 L143.42,62.5434 L144.01,60.8075 L144.569,59.0545 L145.095,57.2892 L145.592,55.511 L146.055,53.7162 L146.485,51.9099 L146.779,50.5489 L147.041,49.1511 L147.27,47.728 L147.467,46.2814 L147.628,44.8085 L147.752,43.3198 L147.84,41.8164 L147.887,40.2963 L147.893,38.7707 L147.859,37.2393 L147.78,35.7008 L147.654,34.167 L147.483,32.6365 L147.262,31.1085 L146.989,29.5958 L146.665,28.0957 L146.282,26.6079 L145.843,25.1466 L145.347,23.7074 L144.786,22.2908 L144.161,20.9126 L143.474,19.5674 L142.712,18.2567 L141.9,17.0268 L141.214,16.0615 L140.541,15.1515 L139.867,14.272 L139.19,13.4185 L138.509,12.5913 L137.826,11.7943 L137.141,11.0227 L136.451,10.2769 L135.76,9.5608 L135.066,8.8697 L134.368,8.2039 L133.668,7.5673 L132.966,6.9553 L132.258,6.3684 L131.55,5.8104 L130.839,5.2768 L130.123,4.7678 L129.406,4.2876 L128.687,3.8317 L127.963,3.4003 L127.239,2.9975 L126.512,2.6187 L125.78,2.2648 L125.049,1.9389 L124.317,1.6372 L123.578,1.3604 L122.843,1.1115 L122.105,0.8865 L121.363,0.6867 L120.583,0.5051 L119.147,0.2406 L117.662,0.069 L116.19,-1.13686838e-13 L114.724,0.0222 L113.26,0.1426 L111.817,0.3568 L110.387,0.6549 L108.966,1.0437 L107.569,1.516 L106.19,2.0634 L104.823,2.693 L103.482,3.3947 L102.159,4.1634 L100.851,5.0062 L99.567,5.9148 L98.302,6.8836 L97.054,7.9195 L95.829,9.0144 L94.623,10.1638 L93.434,11.3742 L92.268,12.6377 L91.121,13.9506 L89.992,15.3189 L88.887,16.7353 L87.801,18.1964 L86.734,19.7074 L85.691,21.2617 L84.666,22.8551 L83.663,24.4928 L82.683,26.1691 L81.725,27.8809 L80.789,29.6321 L79.879,31.417 L78.991,33.2329 L78.129,35.0755 L77.707,36.0228 L77.288,36.961 L76.881,37.9125 L76.474,38.8657 L76.08,39.8329 L75.686,40.7998 L75.305,41.7797 L74.926,42.7577 L74.559,43.7466 L74.191,44.7373 L73.838,45.7393 L73.484,46.741 L73.145,47.7531 L72.806,48.7633 L72.48,49.7822 L72.155,50.8029 L71.844,51.8323 L71.533,52.8617 L71.238,53.8988 L70.943,54.9341 L70.662,55.9757 L70.381,57.0192 L70.116,58.0687 L69.854,59.1192 L69.608,60.1747 L69.363,61.2284 L69.133,62.286 L68.902,63.3455 L68.688,64.4085 L68.475,65.4716 L68.278,66.5371 L68.082,67.6009 L67.902,68.6662 L67.721,69.7335 L67.558,70.8017 L67.399,71.8705 L67.258,72.93923 L67.117,74.00625 L66.993,75.07217 L66.869,76.1404 L66.763,77.20669 L66.658,78.27322 L66.572,79.33694 L66.486,80.39895 L66.417,81.45754 L66.349,82.51846 L66.3,83.57497 L66.25,84.63174 L66.219,85.68313 L66.188,86.73269 L66.176,87.77651 L66.163,88.82302 L66.171,89.86257 L66.18,90.90249 L66.209,91.93447 L66.239,92.97243 L66.336,95.01162 L66.478,97.04287 L66.661,99.05178 L66.885,101.04116 L67.156,103.01015 L67.473,104.95132 L67.833,106.86855 L68.241,108.7604 L68.699,110.61916 L69.2,112.44961 L69.753,114.24978 L70.357,116.0115 L71.009,117.73965 L71.716,119.43264 L72.476,121.08108 L73.286,122.69082 L74.154,124.26028 L75.07,125.77016 L76.038,127.2654 L76.995,128.67422 L77.946,130.0032 L78.892,131.2626 L79.834,132.44924 L80.771,133.55984 L81.705,134.60488 L82.638,135.58132 L83.566,136.48537 L84.493,137.32693 L85.422,138.10354 L86.347,138.81057 L87.272,139.4573 L88.202,140.04128 L89.128,140.55727 L90.056,141.01394 L90.99,141.40835 L91.918,141.73562 L92.846,142.00381 L93.779,142.2095 L94.701,142.35012 L95.619,142.43264 L96.537,142.45339 L97.439,142.4136 L98.331,142.31997 L99.218,142.16885 L100.083,141.96487 L100.936,141.71389 L101.779,141.41213 L102.601,141.06643 L103.408,140.68093 L104.205,140.25185 L104.982,139.78616 L105.746,139.28713 L106.499,138.751 L107.236,138.18423 L107.962,137.58926 L108.678,136.96255 L109.38,136.30996 L110.072,135.63345 L110.756,134.92983 L111.427,134.20449 L112.09,133.45901 L112.746,132.69106 L113.391,131.90505 L114.028,131.10268 L114.658,130.28213 L115.284,129.44179 L115.891,128.59414 L116.501,127.74111 L117.099,126.86172 L117.695,125.98574 L118.279,125.08938 L118.86,124.19729 L119.431,123.29153 L120.001,122.38711 L120.561,121.4728 L121.118,120.56167 L121.665,119.64675 L122.21,118.73281 L122.742,117.82339 L123.269,116.923 L123.796,116.02273 L124.325,115.11794 L124.835,114.23769 L125.342,113.36184 L125.849,112.48598 L126.35,111.62148 L127.323,109.97341 L128.292,108.33279 L129.228,106.79873 L130.141,105.35207 L131.039,103.99514 L131.467,103.37295 L131.895,102.77163 L132.316,102.20119 L132.73,101.66225 L133.134,101.16103 L133.529,100.69558 L133.914,100.2665 L134.284,99.88137 L134.643,99.53652 L134.986,99.23257 L135.305,98.97768 L135.606,98.7654 L135.882,98.59487 L136.121,98.47207 L136.335,98.38564 L136.515,98.3301 L136.652,98.30447 L136.773,98.29763 L137.097,98.3113 L137.351,98.34975 L137.572,98.41006 L137.762,98.48379 L137.92,98.56948 L138.081,98.68337 L138.241,98.82314 L138.397,98.99136 L138.562,99.20901 L138.729,99.46828 L138.89,99.76748 L139.051,100.11855 L139.206,100.51052 L139.351,100.93935 L139.488,101.41091 L139.617,101.91555 L139.736,102.44961 L139.843,102.99526 L140.046,104.22231 L140.219,105.50857 L140.378,106.86098 L140.534,108.25747 L140.698,109.68508 L140.886,111.1249 L141.107,112.56655 L141.38,113.99966 L141.714,115.36758 L141.924,116.08877 L142.152,116.77175 L142.407,117.43825 L142.691,118.09255 L143.014,118.73586 L143.373,119.35439 L143.773,119.95303 L144.225,120.53078 L144.722,121.06936 L145.267,121.57241 L145.872,122.03542 L146.509,122.43264 L147.337,122.87722 L148.168,123.27517 L149.001,123.62905 L149.84,123.94521 L150.688,124.22268 L151.536,124.45962 L152.387,124.66189 L153.244,124.82839 L154.099,124.95864 L154.954,125.05788 L155.814,125.12466 L156.669,125.16006 L157.523,125.16836 L158.38,125.14797 L159.232,125.10097 L160.081,125.03054 L160.932,124.93557 L161.802,124.81435 L163.457,124.52615 L165.131,124.15713 L166.787,123.72378 L168.428,123.23977 L170.056,122.70815 L171.662,122.14065 L173.25,121.548 L174.817,120.93545 L176.36,120.31313 L177.867,119.69253 L179.363,119.07656 L180.815,118.48452 L182.245,117.90115 L183.62,117.37942 L184.991,116.85879 L186.287,116.40993 L187.539,116.01748 L188.74,115.69118 L189.884,115.43215 L190.955,115.2532 L192.004,115.15456 L192.438,115.13857 L192.889,115.14126 L193.324,115.16555 L193.74,115.20876 L194.131,115.27212 L194.509,115.35744 L194.869,115.46096 L195.207,115.5834 L195.538,115.73025 L195.857,115.89748 L196.161,116.08584 L196.463,116.30593 L196.76,116.553 L197.047,116.82876 L197.335,117.14651 L197.62,117.50039 L197.896,117.89211 L198.171,118.33474 L198.44,118.82095 L198.698,119.35232 L198.95,119.93984 L199.192,120.57583 L199.421,121.26174 L199.639,122.00686 L199.844,122.803 L200.034,123.65285 L200.208,124.56362 L200.367,125.52785 L200.509,126.54861 L200.633,127.6321 L200.741,128.77102 L200.829,129.96938 L200.897,131.23232 L200.948,132.55288 L200.978,133.93594 L200.987,135.4009 C200.996,136.66799 202.03,137.68838 203.297,137.67995 C204.564,137.67153 205.584,136.6376 205.576047,135.37051 L205.565,133.87099 L205.533,132.41494 L205.479,131.01943 L205.405,129.67629 L205.31,128.38747 L205.193,127.15566 L205.057,125.97243 L204.899,124.83901 L204.719,123.75893 L204.521,122.72366 L204.299,121.73342 L204.057,120.79311 L203.793,119.89382 L203.506,119.03493 L203.196,118.22304 L202.864,117.44912 L202.504,116.71194 L202.122,116.02029 L201.715,115.36538 L201.277,114.74612 L200.816,114.17312 L200.33,113.63845 L199.812,113.14187 L199.275,112.69424 L198.715,112.28811 L198.128,111.92385 L197.529,111.60964 L196.915,111.33779 L196.281,111.10842 L195.644,110.92495 L194.999,110.77993 L194.342,110.67361 L193.687,110.60525 L193.028,110.56899 L192.36,110.56509 L191.653,110.59426 L190.358,110.71926 L188.999,110.94595 L187.633,111.25539 L186.253,111.63076 L184.853,112.07009 L183.43,112.56399 L181.998,113.10818 L180.569,113.65127 L179.089,114.25576 L177.63,114.85158 L176.127,115.47121 L174.636,116.0862 L173.131,116.69399 L171.62,117.28579 L170.103,117.85305 L168.586,118.38979 L167.074,118.88503 L165.564,119.33132 L164.062,119.72549 L162.574,120.05447 L161.071,120.31606 L160.364,120.41433 L159.639,120.49563 L158.916,120.55581 L158.199,120.59597 L157.49,120.61318 L156.784,120.60671 L156.083,120.57827 L155.392,120.52492 L154.703,120.44533 L154.02,120.34182 L153.347,120.21145 L152.675,120.05202 L152.008,119.86623 L151.351,119.65151 L150.693,119.40408 L150.04,119.12734 L149.395,118.81899 L148.76,118.47915 L148.458,118.2925 L148.196,118.09121 L147.939,117.85378 L147.692,117.5862 L147.46,117.28933 L147.233,116.94912 L147.015,116.57424 L146.811,116.1675 L146.617,115.71975 L146.433,115.24026 L146.264,114.73281 L146.114,114.22341 L145.822,113.03457 L145.586,111.79641 L145.385,110.48708 L145.208,109.13137 L145.048,107.7449 L144.891,106.34365 L144.726,104.94094 L144.539,103.54971 L144.317,102.21157 L144.183,101.52175 L144.036,100.85989 L143.87,100.21255 L143.684,99.57546 L143.471,98.94729 L143.23,98.33816 L142.957,97.74245 L142.641,97.15823 L142.283,96.60232 L141.876,96.06972 L141.407,95.5635 L140.885,95.10867 L140.309,94.704 L139.668,94.35891 L138.992,94.09353 L138.282,93.90188 L137.534,93.78799 L136.779,93.7532 L136.109,93.79238 L135.448,93.91213 L134.824,94.09841 L134.228,94.33889 L133.65,94.63406 L133.103,94.96938 L132.575,95.3406 L132.059,95.75173 L131.559,96.1935 L131.068,96.66433 L130.582,97.16921 L130.103,97.70132 L129.628,98.2593 L129.153,98.84756 L128.681,99.46072 L128.21,100.09731 L127.737,100.76052 L127.257,101.4573 L126.315,102.87746 L125.355,104.39394 L124.383,105.98452 L123.396,107.65078 L122.414,109.30971 L121.899,110.19643 L121.391,111.07168 L120.883,111.94704 L120.378,112.81789 L119.853,113.7134 L119.325,114.61318 L118.798,115.51296 L118.275,116.40371 L117.739,117.29885 L117.204,118.19302 L116.658,119.08352 L116.114,119.97085 L115.56,120.84841 L115.006,121.72463 L114.443,122.58694 L113.883,123.44509 L113.312,124.28262 L112.743,125.1166 L112.164,125.92397 L111.581,126.73672 L111.001,127.5143 L110.414,128.27724 L109.822,129.02065 L109.227,129.74404 L108.63,130.44228 L108.029,131.11721 L107.425,131.76809 L106.82,132.3893 L106.211,132.9833 L105.601,133.54934 L104.992,134.08169 L104.379,134.58303 L103.766,135.05312 L103.156,135.48574 L102.543,135.88442 L101.932,136.24953 L101.326,136.57473 L100.717,136.86404 L100.111,137.11843 L99.511,137.33205 L98.906,137.50869 L98.303,137.65005 L97.706,137.751 L97.1,137.81325 L96.491,137.8395 L95.883,137.82485 L95.26,137.76736 L94.629,137.67043 L93.992,137.52871 L93.336,137.33645 L92.666,137.09829 L91.987,136.80898 L91.286,136.46059 L90.569,136.05886 L89.841,135.59841 L89.091,135.07107 L88.327,134.48354 L87.552,133.83083 L86.757,133.10488 L85.949,132.3135 L85.13,131.45119 L84.295,130.51089 L83.448,129.50088 L82.591,128.41494 L81.719,127.24709 L80.837,126.00552 L79.944,124.68374 L79.045,123.28518 L78.218,121.91396 L77.447,120.50661 L76.722,119.04787 L76.04,117.54751 L75.406,116.00649 L74.817,114.41946 L74.269,112.79531 L73.769,111.13515 L73.312,109.43447 L72.898,107.70095 L72.529,105.93655 L72.203,104.13735 L71.918,102.31069 L71.676,100.45827 L71.476,98.57668 L71.316,96.67263 L71.199,94.74807 L71.124,92.7925 L71.105,91.81679 L71.086,90.83523 L71.088,89.84536 L71.089,88.85512 L71.11,87.85757 L71.131,86.85744 L71.17,85.85158 L71.208,84.84743 L71.268,83.83791 L71.329,82.82815 L71.408,81.81387 L71.488,80.79714 L71.585,79.77724 L71.681,78.75906 L71.796,77.73806 L71.911,76.71694 L72.045,75.69387 L72.178,74.66872 L72.328,73.6426 L72.477,72.61831 L72.644,71.5938 L72.807,70.5686 L72.987,69.5442 L73.168,68.5177 L73.364,67.4927 L73.561,66.4695 L73.773,65.4488 L73.986,64.4278 L74.215,63.4103 L74.444,62.3909 L74.687,61.3754 L74.931,60.3616 L75.19,59.353 L75.446,58.3435 L75.717,57.3401 L75.989,56.3349 L76.275,55.336 L76.56,54.3386 L76.86,53.3493 L77.159,52.3598 L77.474,51.3791 L77.788,50.3965 L78.116,49.4226 L78.443,48.4506 L78.783,47.489 L79.125,46.5276 L79.479,45.5777 L79.834,44.626 L80.201,43.6854 L80.568,42.7468 L80.947,41.8214 L81.326,40.8961 L81.718,39.9849 L82.11,39.0719 L82.513,38.1725 L82.912,37.2822 L83.743,35.5124 L84.596,33.7821 L85.469,32.0845 L86.362,30.4264 L87.276,28.8057 L88.208,27.2227 L89.157,25.6848 L90.126,24.1901 L91.113,22.739 L92.113,21.3389 L93.131,19.987 L94.161,18.6826 L95.203,17.435 L96.259,16.2405 L97.325,15.0985 L98.399,14.0188 L99.485,12.9972 L100.577,12.0326 L101.673,11.1349 L102.778,10.2998 L103.887,9.5255 L104.994,8.822 L106.107,8.1846 L107.221,7.6109 L108.33,7.1118 L109.444,6.6817 L110.556,6.3164 L111.658,6.0253 L112.767,5.805 L113.874,5.6504 L114.972,5.5701 L116.08,5.5637 L117.189,5.6253 L118.294,5.7631 L119.455,5.9904 L119.975,6.1178 L120.535,6.2741 L121.101,6.4524 L121.668,6.6502 L122.235,6.8684 L122.807,7.1104 L123.382,7.3728 L123.956,7.6565 L124.535,7.9656 L125.118,8.2964 L125.699,8.6494 L126.286,9.0293 L126.875,9.4319 L127.463,9.8579 L128.057,10.3119 L128.652,10.7897 L129.247,11.292 L129.846,11.8234 L130.446,12.3795 L131.045,12.9612 L131.648,13.5728 L132.252,14.21 L132.855,14.8737 L133.461,15.5683 L134.068,16.2891 L134.673,17.0373 L135.28,17.817 L135.887,18.6238 L136.492,19.4588 L137.081,20.2978 L137.745,21.3155 L138.335,22.3485 L138.88,23.4354 L139.382,24.5633 L139.833,25.7266 L140.239,26.9334 L140.603,28.1717 L140.918,29.4353 L141.189,30.7302 L141.421,32.046 L141.607,33.3761 L141.751,34.7251 L141.856,36.084 L141.92,37.4456 L141.945,38.8133 L141.933,40.1797 L141.885,41.5369 L141.8,42.8876 L141.684,44.2257 L141.534,45.5425 L141.353,46.8402 L141.143,48.114 L140.906,49.3538 L140.64,50.5625 L140.229,52.2594 L139.788,53.9418 L139.316,55.6138 L138.818,57.2738 L138.29,58.9177 L137.731,60.5498 L137.146,62.169 L136.534,63.7708 L135.892,65.3599 L135.224,66.9351 L134.531,68.4923 L133.809,70.0357 L133.063,71.564 L132.292,73.07314 L131.493,74.56716 L130.671,76.04519 L129.824,77.50307 L128.951,78.94436 L128.056,80.36855 L127.138,81.77163 L126.194,83.15713 L125.23,84.5248 L124.244,85.87014 L123.233,87.19692 L122.203,88.50454 L121.152,89.78896 L120.079,91.05361 L118.986,92.29824 L117.874,93.51858 L116.74,94.71804 L115.589,95.89651 L114.42,97.04971 L113.229,98.17934 L112.02,99.28689 L110.796,100.36806 L109.552,101.42605 L108.291,102.46108 L107.017,103.46877 L105.724,104.45205 L104.415,105.41103 L103.093,106.34109 L101.753,107.24551 L100.4,108.12502 L99.035,108.97524 L97.653,109.79885 L96.259,110.59658 L94.854,111.36428 L93.434,112.10403 L92.003,112.81716 L90.562,113.49917 L89.107,114.15224 L87.642,114.77773 L86.168,115.37124 L84.682,115.93471 L83.186,116.46963 L81.684,116.97256 L80.17,117.44472 L78.647,117.88735 L77.119,118.29641 L75.58,118.67324 L74.034,119.01968 L72.483,119.33181 L70.922,119.6105 L69.356,119.86037 L67.786,120.07534 L66.207,120.25576 L64.622,120.40408 L63.036,120.51638 L61.441,120.59292 L59.842,120.6365 L58.242,120.64211 L56.635,120.60134 L55.024,120.52651 L53.415,120.41421 L51.799,120.26357 L50.181,120.07815 L48.565,119.85439 L46.944,119.59096 L45.323,119.28408 L43.707,118.9302 L42.087,118.53542 L40.468,118.10403 L38.853,117.63271 L37.235,117.11916 L35.619,116.56802 L34.008,115.97744 L32.391,115.35195 L30.777,114.68764 L29.168,113.98159 L27.558,113.23049 L25.95,112.43948 L24.349,111.60586 L22.748,110.7261 L21.149,109.80825 L19.557,108.84658 L17.961,107.83388 L17.282,107.37698 L16.634,106.90603 L16.009,106.41726 L15.41,105.91616 L14.843,105.40554 L14.299,104.87734 L13.779,104.33742 L13.287,103.7897 L12.815,103.225 L12.366,102.64883 L11.944,102.06496 L11.541,101.46352 L11.159,100.85073 L10.802,100.23086 L10.465,99.59341 L10.146,98.94485 L9.852,98.28957 L9.577,97.61709 L9.321,96.93398 L9.087,96.24453 L8.872,95.53872 L8.676,94.82278 L8.501,94.1011 L8.354,93.41274 L8.087,91.86245 L7.91,90.33376 L7.811,88.76284 L7.781,87.16445 L7.827,85.54873 L7.947,83.90371 L8.133,82.2427 L8.387,80.57571 L8.712,78.89358 L9.097,77.20742 L9.546,75.52785 L10.06,73.84719 L10.628,72.17483 L11.252,70.5216 L11.933,68.8808 L12.662,67.2604 L13.439,65.672 L14.267,64.1098 L15.135,62.5799 L16.043,61.0949 L16.993,59.6491 L17.975,58.2473 L18.988,56.9032 L20.033,55.6111 L21.103,54.3744 L22.19,53.208 L23.303,52.1055 L24.428,51.0695 L25.56,50.1154 L26.741,49.2088 L27.279,48.8246 L27.849,48.4372 L28.423,48.0686 L28.996,47.7201 L29.562,47.3963 L30.132,47.0923 L30.699,46.809 L31.258,46.5509 L31.818,46.3134 L32.375,46.0967 L32.921,45.9054 L33.533,45.7149 C35.731,45.0163 36.946,42.6681 36.248,40.4704 C35.549,38.2726 33.201,37.0574 31.003,37.7561 Z" id="Fill-47"></path>
            <path d="M205.245,116.76919 L205.038,118.34304 L204.836,119.93569 L204.68,121.53774 L204.589,123.14516 L204.493,124.75246 L204.281,126.33718 L204.095,127.92763 L203.881,129.51186 L203.668,131.09804 L203.474,132.6841 L203.315,134.27639 L203.168,135.86709 L202.997,137.45547 L202.793,139.04067 L202.613,140.62893 L202.478,142.21548 L202.283,143.79446 L202.065,145.37832 L201.834,146.96023 L201.604,148.52554 L201.331,150.08315 L201.05,151.65615 L200.768,153.22915 L200.487,154.80215 C200.349,155.58218 200.87,156.32583 201.65,156.46316 C202.43,156.60061 203.174,156.07961 203.312,155.29946 L203.584,153.725 L203.857,152.15054 L204.13,150.57607 L204.41,148.98611 L204.662,147.39077 L204.913,145.81191 L205.176,144.23501 L205.462,142.65322 L205.774,141.07522 L206.04,139.49892 L206.284,137.91958 L206.558,136.34353 L206.854,134.77175 L207.138,133.2018 L207.395,131.62978 L207.632,130.05788 L207.886,128.49087 L208.168,126.93008 L208.448,125.37136 L208.844,123.83535 L209.279,122.3102 L209.65,120.77993 L210.017,119.2532 L210.38,117.70791 C210.64,116.28994 209.7,114.9302 208.282,114.67092 C206.864,114.41177 205.504,115.3511 205.245,116.76919 Z" id="Fill-169"></path>
            <path d="M193.585,121.92617 L194.404,123.22512 L195.149,124.47256 L195.86,125.70779 L196.606,126.90884 L197.175,128.15932 L197.658,129.42544 L198.094,130.69289 L198.452,131.96706 L198.764,133.24709 L199.056,134.52773 L199.337,135.80898 L199.586,137.10305 L199.78,138.41177 L199.91,139.73379 L200.023,141.0707 L200.166,142.42043 L200.237,143.78823 L200.26,145.17593 L200.248,146.58108 L200.214,148.00515 L200.155,149.45144 L200.075,150.91824 L199.982,152.40847 L199.878,153.92739 C199.826,154.7178 200.425,155.40041 201.215,155.45229 C202.006,155.50405 202.688,154.9053 202.74,154.11501 L202.835,152.58694 L202.921,151.07619 L202.993,149.5845 L203.058,148.10842 L203.111,146.64724 L203.145,145.20058 L203.171,143.76455 L203.193,142.33669 L203.231,140.91543 L203.182,139.501 L203.084,138.09084 L202.977,136.68301 L202.855,135.27224 L202.683,133.85867 L202.435,132.45132 L202.122,131.0469 L201.759,129.6376 L201.371,128.2195 L200.932,126.79543 L200.466,125.3478 L200.06,123.8395 L199.508,122.35268 L198.86,120.86123 L198.154,119.40102 C197.457,118.13943 195.869,117.68191 194.607,118.37917 C193.345,119.07644 192.888,120.66457 193.585,121.92617 Z" id="Fill-170"></path>
        </g>
    </g>
</svg>
