<?xml version="1.0" encoding="UTF-8"?>
<svg width="219px" height="57px" viewBox="0 0 219 57" version="1.1" xmlns="http://www.w3.org/2000/svg" xmlns:xlink="http://www.w3.org/1999/xlink">
    <title>221</title>
    <g id="Page-1" stroke="none" stroke-width="1" fill="none" fill-rule="evenodd">
        <g id="221" transform="translate(0.468685, 0.369294)" fill="currentColor">
            <path d="M2.852,47.6528 L2.9,47.6408 L3.553,47.465 L4.188,47.405 L6.469,48.0956 L6.468,48.095 L6.466,48.0939 L6.464,48.0923 L6.46,48.0901 L6.456,48.0873 L6.451,48.084 L6.445,48.0802 L6.619,48.2019 L6.961,48.4848 L7.275,48.8086 L7.55,49.162 L7.778,49.5309 L7.957,49.9006 L8.089,50.2588 L8.18,50.5961 L8.211,50.7505 L8.21,50.7425 L8.208,50.7356 L8.207,50.7299 L8.206,50.7253 L8.206,50.7219 L8.205,50.7196 L8.205,50.7184 L8.16,52.4304 L8.069,52.72 L7.917,53.0808 L7.855,53.1908 L7.881,53.1481 L7.966,53.0206 L8.103,52.8318 L8.29,52.5867 L8.517,52.2999 L8.782,51.9754 L9.085,51.6128 L9.421,51.2194 L9.789,50.7958 L10.19,50.3415 L10.619,49.8615 L11.077,49.3556 L11.564,48.8237 L12.076,48.2696 L12.614,47.693 L13.177,47.0939 L13.764,46.4757 L14.373,45.8381 L15.005,45.1811 L15.657,44.5078 L16.33,43.818 L17.023,43.1118 L17.733,42.3919 L18.462,41.6583 L19.208,40.9112 L19.969,40.153 L20.745,39.3829 L21.534,38.6039 L22.347,37.8085 L23.156,37.0157 L23.991,36.2074 L24.825,35.3986 L25.679,34.5772 L26.534,33.7552 L27.405,32.926 L28.276,32.0977 L29.162,31.2649 L30.047,30.4324 L30.944,29.5992 L31.838,28.7696 L32.742,27.9455 L33.658,27.11 L34.573,26.2725 L35.466,25.4513 L36.363,24.6499 L37.282,23.8307 L38.2,23.0115 L39.094,22.2113 L39.976,21.4443 L40.882,20.6569 L41.788,19.8696 L42.676,19.0973 L43.55,18.3575 L44.422,17.6072 L45.277,16.8824 L46.132,16.1583 L46.969,15.467 L47.806,14.7752 L48.625,14.1163 L49.45,13.4722 L50.252,12.8705 L51.044,12.276 L52.609,11.1474 L53.345,10.632 L54.074,10.136 L54.79,9.673 L55.487,9.2348 L56.159,8.8262 L56.808,8.4457 L57.434,8.093 L58.029,7.7731 L58.598,7.4844 L59.136,7.2262 L59.635,7.0025 L60.1,6.812 L60.525,6.654 L60.898,6.5336 L61.225,6.4462 L61.496,6.3883 L61.69,6.3604 L61.82,6.3524 L61.871,6.3513 L61.821,6.34 L61.71,6.3046 L61.548,6.2225 L61.345,6.0771 L61.227,5.9642 L61.351,6.1201 L61.495,6.3192 L61.63,6.5292 L61.754,6.7442 L61.862,6.9592 L61.936,7.1196 L62.137,7.6781 L62.263,8.1979 L62.349,8.782 L62.395,9.4168 L62.391,10.095 L62.337,10.8353 L62.236,11.6217 L62.086,12.4465 L61.884,13.3198 L61.638,14.2287 L61.348,15.1674 L61.012,16.1413 L60.637,17.1409 L60.226,18.1623 L59.78,19.2088 L59.306,20.2737 L58.804,21.3542 L58.276,22.4505 L57.727,23.5588 L57.162,24.6772 L56.584,25.804 L55.992,26.9423 L55.397,28.085 L54.799,29.227 L54.196,30.3797 L53.605,31.5253 L53.01,32.6789 L52.438,33.8208 L51.859,34.9744 L51.319,36.1102 L50.773,37.2593 L50.281,38.3848 L49.792,39.5041 L49.335,40.6389 L48.916,41.758 L48.537,42.8667 L48.196,43.9704 L47.901,45.0732 L47.659,46.1648 L47.471,47.254 L47.345,48.3473 L47.29,49.4288 L47.308,50.5086 L47.415,51.5943 L47.603,52.5872 L47.76,53.1599 L47.959,53.6744 L48.212,54.168 L48.526,54.6449 L48.917,55.1022 L49.355,55.497 L49.837,55.8316 L50.363,56.1036 L50.883,56.2963 L51.4,56.4262 L51.918,56.501 L52.406,56.5262 L52.878,56.5145 L53.344,56.4697 L53.789,56.3986 L54.224,56.3062 L54.659,56.1919 L55.129,56.0454 L55.924,55.7542 L56.776,55.3846 L57.634,54.9636 L58.504,54.4973 L59.397,53.9808 L60.305,53.4217 L61.23,52.8264 L62.176,52.1927 L63.138,51.5268 L64.114,50.8338 L65.105,50.1126 L66.106,49.3686 L67.116,48.6073 L68.134,47.8302 L69.158,47.0412 L70.182,46.2447 L71.205,45.4495 L72.227,44.6502 L73.244,43.855 L74.249,43.0729 L75.25,42.294 L76.23,41.5407 L77.204,40.7919 L78.145,40.0867 L79.079,39.3863 L79.967,38.7472 L80.858,38.1075 L81.693,37.5314 L82.496,36.9975 L83.258,36.5127 L83.975,36.0783 L84.636,35.7052 L85.237,35.3945 L85.771,35.147 L86.209,34.9743 L86.547,34.8706 L86.756,34.8247 L86.773,34.8177 L86.696,34.8105 L86.883,34.8663 L87.09,34.9437 L87.268,35.029 L87.417,35.1156 L87.533,35.1993 L87.643,35.2961 L87.746,35.4024 L87.837,35.5161 L87.931,35.6584 L88.025,35.8235 L88.112,36.0074 L88.177,36.1655 L88.36,36.7454 L88.492,37.3499 L88.6,38.0467 L88.69,38.8102 L88.767,39.6265 L88.851,40.5176 L89.074,42.3233 L89.545,44.2545 L90.358,45.8965 L90.878,46.6085 L91.301,47.051 L91.768,47.4488 L92.282,47.8047 L92.848,48.1152 L93.438,48.3645 L94.054,48.5618 L94.704,48.7074 L95.367,48.7994 L96.049,48.8465 L96.763,48.848 L97.507,48.8049 L98.109,48.7201 L98.694,48.5769 L99.248,48.3951 L99.794,48.1822 L100.346,47.936 L100.902,47.6626 L101.468,47.3647 L102.049,47.0393 L102.641,46.6877 L103.246,46.3155 L103.867,45.9211 L104.5,45.5079 L105.145,45.0787 L105.804,44.633 L106.472,44.1737 L107.149,43.7035 L107.835,43.2218 L108.526,42.7275 L109.918,41.727 L111.325,40.7154 L112.726,39.7155 L114.121,38.7512 L115.499,37.8013 L116.815,36.9549 L118.107,36.1228 L119.278,35.4712 L120.483,34.8006 L120.947,34.5755 L121.428,34.3594 L121.875,34.1785 L122.28,34.0326 L122.629,33.9275 L122.926,33.8589 L123.157,33.8215 L123.296,33.8115 L123.359,33.8141 L123.336,33.8046 L123.223,33.7545 L123.173,33.7303 L122.918,33.4987 L122.82,33.3726 L122.791,33.3246 L122.797,33.3362 L122.823,33.3962 L122.85,33.4682 L122.961,33.8467 L123.066,34.3005 L123.172,34.8548 L123.279,35.4802 L123.385,36.165 L123.493,36.8969 L123.604,37.6614 L123.723,38.4508 L123.856,39.2746 L124.159,40.8719 L124.567,42.4584 L125.103,43.8606 L125.532,44.669 L126.046,45.3771 L126.618,45.939 L127.112,46.2972 L127.578,46.5438 L128.076,46.7256 L128.602,46.8414 L129.154,46.8833 L129.673,46.8529 L130.231,46.7703 L130.777,46.6595 L131.308,46.5236 L131.832,46.3653 L132.351,46.183 L132.894,45.9662 L133.848,45.5277 L134.817,45.0051 L135.758,44.4302 L136.678,43.8131 L137.582,43.1546 L138.469,42.467 L139.342,41.7582 L140.205,41.0314 L141.057,40.2955 L141.895,39.559 L142.722,38.8316 L143.546,38.1128 L144.35,37.4106 L145.15,36.749 L145.946,36.0898 L146.711,35.4955 L147.465,34.946 L148.204,34.451 L148.921,34.0137 L149.608,33.6477 L150.299,33.3401 L149.529,33.4984 L149.088,33.4482 L148.926,33.3979 L148.911,33.3915 L148.984,33.4325 L149.128,33.5215 L149.319,33.6469 L149.549,33.8053 L149.816,33.994 L150.113,34.2068 L150.44,34.4424 L150.796,34.6977 L151.176,34.9692 L151.584,35.2561 L152.017,35.5549 L152.473,35.8634 L152.955,36.1808 L153.475,36.5127 L154.54,37.159 L155.717,37.8148 L156.983,38.4501 L158.335,39.0541 L159.783,39.6095 L161.281,40.0845 L162.108,40.3075 L162.93,40.4986 L163.768,40.6629 L164.626,40.8014 L165.509,40.9102 L166.407,40.9859 L167.323,41.0304 L168.261,41.0385 L169.214,41.0076 L170.183,40.9394 L171.172,40.828 L172.174,40.6723 L173.189,40.4741 L174.223,40.2267 L175.267,39.9302 L176.323,39.5864 L177.395,39.188 L178.448,38.748 L178.931,38.5373 L179.441,38.3165 L180.003,38.0751 L180.609,37.8163 L181.261,37.5397 L181.955,37.2464 L182.684,36.9392 L183.45,36.6177 L184.249,36.2833 L185.076,35.9381 L185.93,35.5823 L186.807,35.2173 L188.621,34.4649 L189.558,34.0771 L190.496,33.689 L191.453,33.2941 L192.41,32.8991 L193.374,32.5019 L194.338,32.1048 L195.299,31.7096 L196.26,31.3145 L197.205,30.9265 L198.15,30.5386 L199.99,29.7835 L201.754,29.0607 L203.415,28.3801 L204.205,28.0568 L204.961,27.7474 L205.68,27.4532 L206.363,27.1738 L207.003,26.9119 L207.598,26.6686 L208.149,26.4432 L208.648,26.2388 L209.093,26.0565 L209.486,25.8953 L209.82,25.7584 L210.091,25.6468 L210.304,25.559 L210.448,25.4993 L210.466,25.4917 L210.467,25.4913 L210.469,25.4904 L210.472,25.489 L210.477,25.4872 L210.482,25.4849 L210.488,25.4822 L210.496,25.479 L210.507,25.4744 L210.52,25.4687 L210.534,25.4626 L210.55,25.4555 L210.571,25.4461 L210.604,25.4311 L210.671,25.3987 L210.921,25.2511 L211.737,24.2731 L211.737,24.2729 L211.737,24.2728 L211.737,24.2727 L211.737,24.2726 L211.737,24.2725 L211.737,24.2724 L207.535,22.4281 L207.535,22.4298 L211.737,24.274 L211.737,24.274 L211.737,24.274 L211.737,24.274 L211.737,24.274 L211.737,24.2739 L211.737,24.2738 L211.737,24.2738 L211.737,24.2737 L211.737,24.2737 L211.737,24.2736 L211.737,24.2735 L211.737,24.2735 L211.737,24.2734 L211.737,24.2733 L210.452,21.207 L209.182,21.102 L208.999,21.147 L208.928,21.1687 L208.889,21.1816 L208.865,21.19 L208.847,21.1963 L208.834,21.2012 L208.823,21.2052 L208.814,21.2087 L208.805,21.2119 L208.798,21.2148 L208.79,21.2176 L208.783,21.2203 L208.776,21.2229 L208.77,21.2256 L208.764,21.2279 L208.759,21.2297 L208.755,21.2312 L208.751,21.2328 L208.748,21.2342 L208.744,21.2355 L208.741,21.2366 L208.739,21.2377 L208.736,21.2386 L208.734,21.2394 L208.732,21.2401 L208.731,21.2407 L208.73,21.2411 L208.729,21.2415 L208.728,21.2417 L208.728,21.2419 L208.712,21.2483 L208.554,21.3108 C207.377,21.7791 206.802,23.1132 207.27,24.2906 C207.738,25.4681 209.072,26.0429 210.25,25.5746 L210.407,25.5119 L210.391,25.5184 L210.391,25.5183 L210.392,25.5181 L210.392,25.5177 L210.394,25.5173 L210.395,25.5166 L210.397,25.516 L210.399,25.5151 L210.401,25.5142 L210.404,25.5132 L210.407,25.5119 L210.41,25.5107 L210.414,25.5093 L210.418,25.5078 L210.422,25.5061 L210.427,25.5044 L210.431,25.5029 L210.432,25.5021 L210.434,25.5015 L210.435,25.5012 L210.435,25.5013 L210.434,25.5017 L210.431,25.5026 L210.427,25.5041 L210.421,25.5064 L210.412,25.5098 L210.398,25.5147 L210.377,25.5222 L210.34,25.5342 L210.271,25.5555 L210.088,25.6001 L208.819,25.4952 L207.535,22.429 L207.535,22.4291 L207.535,22.4292 L207.535,22.4293 L207.535,22.4294 L207.535,22.4294 L207.535,22.4295 L207.535,22.4296 L207.535,22.4296 L207.535,22.4297 L207.535,22.4297 L207.535,22.4297 L207.535,22.4297 L207.535,22.4298 L207.535,22.4298 L211.737,24.274 L211.737,24.2724 L207.535,22.4282 L207.535,22.4282 L207.535,22.4283 L207.535,22.4284 L207.535,22.4285 L207.535,22.4287 L207.535,22.4289 L208.35,21.4513 L208.598,21.305 L208.66,21.2747 L208.687,21.2627 L208.699,21.2572 L208.704,21.2547 L208.706,21.2543 L208.704,21.2551 L208.698,21.2577 L208.69,21.261 L208.683,21.2637 L208.678,21.266 L208.674,21.2678 L208.671,21.2692 L208.669,21.2701 L208.668,21.2706 L208.685,21.263 L208.548,21.3203 L208.342,21.4054 L208.075,21.5156 L207.744,21.6519 L207.352,21.8129 L206.908,21.9953 L206.409,22.2 L205.859,22.4258 L205.265,22.6696 L204.625,22.9322 L203.942,23.2124 L203.223,23.5074 L202.467,23.8177 L201.678,24.142 L200.015,24.8246 L198.251,25.5498 L196.41,26.3072 L195.465,26.6966 L194.52,27.0859 L193.558,27.4825 L192.597,27.8791 L191.632,28.2778 L190.667,28.6765 L189.709,29.073 L188.75,29.4696 L187.811,29.8594 L186.871,30.2493 L185.056,31.0047 L184.174,31.3722 L183.318,31.7301 L182.488,32.0776 L181.686,32.4145 L180.916,32.7386 L180.181,33.0488 L179.482,33.3453 L178.823,33.6257 L178.209,33.8887 L177.636,34.1351 L177.113,34.3624 L176.668,34.5575 L175.721,34.9552 L174.823,35.2899 L173.938,35.5788 L173.069,35.8268 L172.221,36.0305 L171.386,36.1943 L170.566,36.3227 L169.766,36.4136 L168.978,36.4697 L168.204,36.4957 L167.45,36.4899 L166.707,36.4541 L165.977,36.3924 L165.267,36.3044 L164.567,36.191 L163.881,36.0563 L163.213,35.9006 L162.588,35.733 L161.283,35.32 L160.079,34.8553 L158.934,34.3402 L157.848,33.7924 L156.834,33.2237 L155.873,32.6371 L155.438,32.358 L155.007,32.0731 L154.593,31.792 L154.196,31.5163 L153.817,31.2487 L153.455,30.9899 L153.109,30.7402 L152.78,30.502 L152.467,30.2766 L152.165,30.0627 L151.873,29.8611 L151.589,29.6735 L151.301,29.4952 L150.99,29.3232 L150.638,29.1617 L150.185,29.0126 L149.501,28.929 L148.537,29.1234 L147.602,29.5397 L146.659,30.0394 L145.743,30.5937 L144.846,31.192 L143.961,31.834 L143.083,32.5133 L142.232,33.2148 L141.384,33.9139 L140.533,34.6531 L139.702,35.3757 L138.866,36.1068 L138.042,36.8288 L137.225,37.5312 L136.416,38.2095 L135.613,38.8566 L134.82,39.4677 L134.041,40.0309 L133.273,40.5427 L132.521,40.9997 L131.794,41.3881 L131.047,41.7241 L130.738,41.844 L130.404,41.959 L130.073,42.0567 L129.75,42.1376 L129.439,42.1988 L129.14,42.2414 L129.184,42.2398 L129.285,42.2469 L129.382,42.2669 L129.473,42.2998 L129.554,42.3414 L129.682,42.4414 L129.579,42.3503 L129.493,42.2218 L129.389,42.032 L129.022,41.0672 L128.726,39.8748 L128.468,38.4593 L128.357,37.7417 L128.249,36.9898 L128.144,36.2353 L128.041,35.4861 L127.935,34.7512 L127.822,34.0405 L127.697,33.3522 L127.549,32.686 L127.383,32.0894 L127.26,31.7289 L127.126,31.3998 L126.964,31.0685 L126.757,30.7221 L126.47,30.3486 L126.013,29.9237 L125.437,29.5498 L124.722,29.2553 L124.026,29.102 L123.354,29.049 L122.693,29.0762 L122.061,29.1644 L121.441,29.2979 L120.818,29.4754 L120.198,29.688 L119.575,29.931 L118.939,30.2065 L118.242,30.5367 L116.956,31.2298 L115.637,31.9419 L114.211,32.8224 L112.81,33.6885 L111.352,34.6553 L109.913,35.6076 L108.454,36.5906 L107.013,37.5689 L105.598,38.5289 L104.907,38.9958 L104.229,39.4563 L103.564,39.9043 L102.914,40.3382 L102.283,40.7539 L101.669,41.15 L101.076,41.5257 L100.508,41.8759 L99.966,42.1998 L99.451,42.4964 L98.972,42.7628 L98.528,42.9955 L98.124,43.1937 L97.772,43.35 L97.473,43.4661 L97.24,43.5429 L97.104,43.5768 L97.055,43.5832 L96.614,43.6078 L96.233,43.6063 L95.905,43.5827 L95.632,43.5448 L95.426,43.4982 L95.259,43.4435 L95.131,43.3894 L95.047,43.3421 L94.973,43.2891 L94.909,43.2337 L94.856,43.1771 L94.953,43.347 L94.495,42.476 L94.261,41.4161 L94.092,39.9443 L94.024,39.1473 L93.945,38.2668 L93.842,37.3487 L93.699,36.397 L93.489,35.4103 L93.207,34.4801 L92.989,33.9169 L92.753,33.4076 L92.477,32.9107 L92.159,32.4218 L91.785,31.9407 L91.367,31.4915 L90.902,31.0712 L90.38,30.6822 L89.825,30.3439 L89.233,30.05 L88.598,29.801 L87.865,29.5864 L86.986,29.464 L86.083,29.5037 L85.262,29.6576 L84.473,29.886 L83.685,30.1836 L82.898,30.5361 L82.098,30.9364 L81.273,31.3888 L80.427,31.8859 L79.56,32.4223 L78.667,33.0008 L77.745,33.6194 L76.805,34.2735 L75.862,34.9282 L74.875,35.6418 L73.894,36.3503 L72.881,37.1012 L71.873,37.8475 L70.845,38.6189 L69.822,39.3872 L68.786,40.1683 L67.755,40.9452 L66.725,41.7178 L65.696,42.4891 L64.68,43.2449 L63.673,43.9858 L62.68,44.7075 L61.702,45.4075 L60.748,46.08 L59.816,46.722 L58.911,47.3309 L58.038,47.8981 L57.2,48.4213 L56.4,48.8992 L55.649,49.3222 L54.949,49.6894 L54.305,49.999 L53.738,50.2391 L53.202,50.4281 L53.038,50.4754 L52.863,50.5198 L52.713,50.5497 L52.596,50.5673 L52.527,50.5729 L52.49,50.5726 L52.494,50.5726 L52.557,50.5812 L52.647,50.6026 L52.767,50.6478 L52.923,50.7282 L53.067,50.8263 L53.196,50.9426 L53.309,51.0746 L53.379,51.1781 L53.419,51.2537 L53.438,51.3005 L53.451,51.3544 L53.338,50.7575 L53.288,50.1888 L53.284,49.5527 L53.323,48.8651 L53.414,48.1338 L53.557,47.3461 L53.744,46.516 L53.98,45.6504 L54.265,44.7426 L54.59,43.8031 L54.957,42.8368 L55.358,41.8519 L55.816,40.8103 L56.271,39.7749 L56.779,38.7121 L57.293,37.6361 L57.845,36.5403 L58.404,35.4327 L58.987,34.3133 L59.573,33.1857 L60.172,32.0508 L60.777,30.9053 L61.379,29.7593 L61.983,28.6087 L62.583,27.4524 L63.173,26.2959 L63.751,25.1406 L64.315,23.9863 L64.863,22.8333 L65.387,21.6852 L65.888,20.5398 L66.36,19.3957 L66.797,18.2593 L67.202,17.1266 L67.569,15.9941 L67.888,14.8705 L68.161,13.7489 L68.381,12.6235 L68.538,11.5072 L68.634,10.3908 L68.654,9.266 L68.59,8.1545 L68.439,7.0466 L68.184,5.937 L67.848,4.9321 L67.598,4.3341 L67.343,3.8082 L67.062,3.3003 L66.752,2.8042 L66.409,2.3158 L66.001,1.8032 L65.445,1.2464 L64.737,0.7443 L64.001,0.3908 L63.259,0.1599 L62.512,0.035 L61.806,0 L61.122,0.0294 L60.444,0.1153 L59.786,0.2457 L59.134,0.4127 L58.473,0.6179 L57.813,0.8547 L57.147,1.1202 L56.465,1.4184 L55.776,1.7458 L55.075,2.0991 L54.357,2.4817 L53.628,2.8899 L52.885,3.3218 L52.125,3.7806 L51.352,4.263 L50.567,4.7672 L49.761,5.2881 L48.929,5.8372 L47.274,6.9617 L46.401,7.5789 L45.539,8.1889 L44.65,8.834 L43.756,9.4642 L42.842,10.1256 L41.927,10.7874 L40.994,11.4803 L40.063,12.1724 L39.119,12.8949 L38.177,13.628 L37.222,14.3925 L36.284,15.1421 L35.347,15.8916 L34.385,16.6614 L33.417,17.469 L32.472,18.2574 L31.527,19.0459 L30.562,19.8522 L29.601,20.6784 L28.662,21.4883 L27.725,22.3002 L26.775,23.1233 L25.835,23.9524 L24.899,24.7781 L23.975,25.6036 L23.051,26.4288 L22.143,27.2501 L21.235,28.0705 L20.344,28.8843 L19.453,29.6985 L18.584,30.5034 L17.717,31.3088 L16.874,32.0996 L16.034,32.8879 L15.209,33.6683 L14.401,34.4375 L13.609,35.1965 L12.833,35.9452 L12.073,36.6819 L11.333,37.4049 L10.609,38.1152 L9.905,38.811 L9.222,39.4905 L8.558,40.1551 L7.915,40.8029 L7.296,41.432 L6.698,42.044 L6.124,42.6369 L5.576,43.209 L5.05,43.7619 L4.55,44.2942 L4.077,44.8035 L3.629,45.2925 L3.207,45.7599 L2.815,46.2034 L2.447,46.6268 L2.104,47.0306 L1.79,47.4127 L1.498,47.7807 L1.224,48.1421 L0.971,48.4998 L0.724,48.8817 L0.463,49.3479 L0.188,49.9947 L0.045,50.5049 L0,52.2168 L0,52.2179 L0,52.2203 L0,52.2237 L0,52.2283 L0.003,52.234 L0.004,52.2409 L0.005,52.2489 L0.04,52.4217 L0.136,52.7762 L0.274,53.1504 L0.46,53.5349 L0.696,53.9174 L0.98,54.2832 L1.306,54.6183 L1.66,54.9113 L1.847,55.0419 L1.853,55.0458 L1.858,55.0492 L1.862,55.052 L1.866,55.0543 L1.868,55.056 L1.87,55.0571 L1.871,55.0577 L4.151,55.7483 L4.969,55.689 L5.889,55.435 L6.29,55.2637 C8.391,54.3144 9.326,51.841 8.376,49.7393 C7.427,47.6376 4.954,46.7034 2.852,47.6528 Z" id="Fill-46"></path>
            <path d="M179.304,30.9571 L180.891,30.6003 L182.488,30.2332 L184.072,29.8262 L185.64,29.3485 L187.209,28.9031 L188.795,28.5642 L190.374,28.2051 L191.958,27.8758 L193.539,27.5459 L195.115,27.1954 L196.68,26.806 L198.243,26.4074 L199.808,26.0291 L201.377,25.6822 L202.939,25.3071 L204.494,24.8919 L206.058,24.519 L207.626,24.1677 L209.196,23.8291 L210.763,23.4925 L212.336,23.1705 L213.913,22.8529 L215.49,22.5353 L217.067,22.2176 C217.879,22.0517 218.402,21.2593 218.237,20.4477 C218.071,19.636 217.278,19.1125 216.467,19.2784 L214.891,19.6049 L213.316,19.9315 L211.741,20.258 L210.161,20.5802 L208.584,20.9005 L207.01,21.2189 L205.433,21.5245 L203.852,21.8085 L202.262,22.0469 L200.679,22.3255 L199.102,22.6322 L197.522,22.9076 L195.934,23.1524 L194.349,23.4064 L192.767,23.6871 L191.192,23.9886 L189.61,24.2743 L188.024,24.5304 L186.435,24.7889 L184.828,24.9408 L183.209,25.0374 L181.605,25.2047 L180,25.3847 L178.384,25.5751 C176.898,25.829 175.899,27.2397 176.153,28.7259 C176.407,30.2121 177.818,31.211 179.304,30.9571 Z" id="Fill-69"></path>
            <path d="M184.843,42.2989 L185.899,41.2699 L186.966,40.3163 L188.087,39.37 L189.237,38.4057 L190.423,37.4347 L191.749,36.6305 L193.101,35.8262 L194.502,35.0679 L195.942,34.3385 L197.399,33.6055 L198.863,32.8543 L200.337,32.0936 L201.834,31.3568 L203.351,30.6487 L204.855,29.9157 L206.348,29.1351 L207.836,28.3772 L209.334,27.6392 L210.823,26.8833 L212.288,26.105 L213.731,25.306 L215.148,24.4794 L216.532,23.6131 L217.853,22.7201 C218.537,22.254 218.715,21.3209 218.249,20.636 C217.783,19.9512 216.849,19.774 216.165,20.2401 L214.894,21.1105 L213.599,21.931 L212.258,22.7233 L210.878,23.4883 L209.46,24.2213 L208.014,24.9328 L206.523,25.6158 L205.022,26.2791 L203.476,26.8774 L201.94,27.5233 L200.408,28.1868 L198.855,28.8215 L197.293,29.4449 L195.741,30.097 L194.213,30.7951 L192.705,31.5292 L191.206,32.2776 L189.718,33.0318 L188.264,33.8403 L186.747,34.549 L185.279,35.3402 L183.869,36.2254 L182.508,37.1943 L181.25,38.1876 C180.115,39.1797 179.998,40.9043 180.991,42.0397 C181.983,43.175 183.707,43.2911 184.843,42.2989 Z" id="Fill-70"></path>
        </g>
    </g>
</svg>
