<?xml version="1.0" encoding="UTF-8"?>
<svg width="165px" height="112px" viewBox="0 0 165 112" version="1.1" xmlns="http://www.w3.org/2000/svg" xmlns:xlink="http://www.w3.org/1999/xlink">
    <title>222</title>
    <g id="Page-1" stroke="none" stroke-width="1" fill="none" fill-rule="evenodd">
        <g id="222" transform="translate(0.173401, 0.367694)" fill="currentColor">
            <path d="M5.72628449,110.8191 L6.59128449,110.466 L7.52128449,110.051 L8.44128449,109.6042 L9.35828449,109.1273 L10.2772845,108.6156 L11.1882845,108.075 L12.0962845,107.5066 L13.0052845,106.9059 L13.9072845,106.2785 L14.8052845,105.6253 L15.7042845,104.9419 L16.5972845,104.2336 L17.4862845,103.5014 L18.3732845,102.7408 L19.2552845,101.9573 L20.1322845,101.1512 L21.0072845,100.3187 L21.8762845,99.4648 L22.7402845,98.59 L23.6002845,97.6907 L24.4532845,96.7714 L25.3012845,95.8328 L26.1442845,94.8713 L26.9872845,93.882 L27.8022845,92.8862 L28.6272845,91.8775 L29.4382845,90.8311 L30.2472845,89.7852 L31.0412845,88.7041 L31.8312845,87.6271 L32.6042845,86.5196 L33.3782845,85.408 L34.1322845,84.2658 L34.8862845,83.1237 L35.6182845,81.9536 L36.3472845,80.787 L37.0562845,79.5972 L37.7662845,78.4035 L38.4512845,77.1864 L39.1352845,75.9689 L39.7932845,74.7306 L40.4492845,73.4956 L41.0792845,72.2437 L41.7072845,70.9861 L42.3042845,69.7119 L42.9012845,68.437 L43.4662845,67.1484 L44.0282845,65.863 L44.5592845,64.5673 L45.0902845,63.2659 L45.5832845,61.9546 L46.0762845,60.6423 L46.5302845,59.3236 L46.9832845,58.0081 L47.4002845,56.6889 L47.8152845,55.3632 L48.1792845,54.033 L48.5442845,52.7017 L48.8642845,51.3713 L49.1832845,50.0447 L49.4602845,48.7211 L49.7382845,47.3914 L49.9842845,46.0701 L50.2312845,44.7472 L50.4302845,43.4318 L50.6242845,42.134 L50.7882845,40.8112 L50.9242845,39.5035 L51.0342845,38.2038 L51.1292845,36.9094 L51.1952845,35.6172 L51.2332845,34.3343 L51.2432845,33.0571 L51.2242845,31.7834 L51.1732845,30.521 L51.0932845,29.2659 L50.9782845,28.016 L50.8312845,26.7796 L50.6532845,25.5523 L50.4412845,24.3318 L50.1942845,23.127 L49.9152845,21.9333 L49.5982845,20.7483 L49.2452845,19.5818 L48.8582845,18.4286 L48.4302845,17.2865 L47.9662845,16.1655 L47.4662845,15.0603 L46.9232845,13.9687 L46.3422845,12.9012 L45.7252845,11.8522 L45.0622845,10.82 L44.3622845,9.8149 L43.6232845,8.8311 L42.8382845,7.8675 L42.0132845,6.9321 L41.0552845,5.9199 L40.0942845,4.9841 L39.1412845,4.133 L38.1872845,3.3547 L37.2262845,2.6519 L36.2682845,2.0337 L35.3042845,1.489 L34.3252845,1.0223 L33.3472845,0.6443 L32.3612845,0.3468 L31.3592845,0.1375 L30.3672845,0.0244 L29.3782845,0 L28.3872845,0.0743 L27.4302845,0.2438 L26.4982845,0.4995 L25.5892845,0.8475 L24.7302845,1.2716 L23.9122845,1.7635 L23.1272845,2.3292 L22.3922845,2.9495 L21.6962845,3.6208 L21.0332845,4.3507 L20.4102845,5.1231 L19.8202845,5.9373 L19.2572845,6.8017 L18.7272845,7.7033 L18.2242845,8.6423 L17.7462845,9.6262 L17.2952845,10.6447 L16.8672845,11.6974 L16.4612845,12.7912 L16.0802845,13.9167 L15.7202845,15.0737 L15.3822845,16.2679 L15.0672845,17.4914 L14.7732845,18.7433 L14.4992845,20.0284 L14.2482845,21.3399 L14.0182845,22.6766 L13.8102845,24.0426 L13.6242845,25.4313 L13.4582845,26.8419 L13.3142845,28.2774 L13.1922845,29.7321 L13.0912845,31.2049 L13.0132845,32.6987 L12.9572845,34.2076 L12.9222845,35.731 L12.9092845,37.271 L12.9202845,38.8221 L12.9512845,40.384 L13.0062845,41.9582 L13.0832845,43.5395 L13.1822845,45.1276 L13.3052845,46.7239 L13.4512845,48.3229 L13.6222845,49.9247 L13.8162845,51.5305 L14.0342845,53.1346 L14.2752845,54.7379 L14.5402845,56.3409 L14.8312845,57.9377 L15.1462845,59.5297 L15.4852845,61.1171 L15.8502845,62.6942 L16.2372845,64.2628 L16.6512845,65.8226 L17.0902845,67.3677 L17.5532845,68.9004 L18.0432845,70.4203 L18.5582845,71.9211 L19.0982845,73.4055 L19.6662845,74.8729 L20.2612845,76.3168 L20.8812845,77.7405 L21.5302845,79.1431 L22.2062845,80.5175 L22.9082845,81.8683 L23.6382845,83.1946 L24.3972845,84.4883 L25.1832845,85.7538 L26.0012845,86.9897 L26.8472845,88.188 L27.7232845,89.354 L28.6322845,90.4858 L29.5702845,91.5751 L30.5392845,92.6271 L31.5442845,93.6396 L32.5782845,94.6041 L33.6432845,95.5263 L34.7452845,96.4051 L35.8762845,97.23 L37.0402845,98.0069 L38.2422845,98.7321 L39.4532845,99.3864 L40.1842845,99.7479 L40.8972845,100.07 L41.6032845,100.3603 L42.3062845,100.6235 L43.0122845,100.858 L43.7102845,101.0612 L44.4052845,101.237 L45.1022845,101.384 L45.7912845,101.5004 L46.4762845,101.5898 L47.1612845,101.6505 L47.8362845,101.6818 L48.5072845,101.6868 L49.1762845,101.6636 L49.8342845,101.6127 L50.4862845,101.537 L51.1342845,101.434 L51.8172845,101.2954 L53.0172845,100.9822 L54.2382845,100.5605 L55.4132845,100.054 L56.5512845,99.4727 L57.6582845,98.8119 L58.7212845,98.0854 L59.7502845,97.3004 L60.7462845,96.4485 L61.7032845,95.5455 L62.6292845,94.5969 L63.5282845,93.5983 L64.3932845,92.5607 L65.2332845,91.4879 L66.0462845,90.3764 L66.8262845,89.2323 L67.5822845,88.0628 L68.3152845,86.8659 L69.0232845,85.6499 L69.7082845,84.4177 L70.3722845,83.1686 L71.0202845,81.9043 L71.6322845,80.6465 L72.2462845,79.382 L72.8222845,78.1091 L73.3952845,76.8419 L73.9302845,75.5819 L74.4632845,74.329 L74.9642845,73.0954 L75.4642845,71.8643 L75.9282845,70.6674 L76.3902845,69.4757 L76.8172845,68.3338 L77.2412845,67.1989 L77.6452845,66.1028 L78.0292845,65.0469 L78.3972845,64.033 L78.7482845,63.0607 L79.0812845,62.1379 L79.4082845,61.2386 L79.5902845,60.676 L79.7472845,60.0621 L79.8762845,59.436 L79.9872845,58.7946 L80.0852845,58.1343 L80.1742845,57.4544 L80.3272845,56.122 L80.4672845,54.8061 L80.6102845,53.5783 L80.6822845,53.0439 L80.7572845,52.5573 L80.8362845,52.1411 L80.9112845,51.8115 L80.9702845,51.6105 L80.9862845,51.5649 L80.8722845,51.7313 L80.3842845,52.1441 L79.7402845,52.3826 L78.9712845,52.3588 L78.5912845,52.2265 L78.3712845,52.0988 L78.2572845,52.0077 L78.2142845,51.9642 L78.2092845,51.9567 L78.5762845,52.4545 L78.8682845,52.9117 L79.1192845,53.3715 L79.3352845,53.8299 L79.5112845,54.2826 L79.6572845,54.745 L79.7762845,55.2127 L79.8642845,55.6816 L79.9272845,56.1656 L79.9672845,56.6595 L79.9832845,57.1594 L79.9762845,57.6753 L79.9502845,58.2023 L79.9042845,58.7367 L79.8402845,59.285 L79.7612845,59.8435 L79.6692845,60.4094 L79.5672845,60.9757 L79.3312845,62.1698 L79.0802845,63.3807 L78.8342845,64.6215 L78.6132845,65.8927 L78.4432845,67.2003 L78.3582845,68.4888 L78.3502845,69.209 L78.3762845,69.901 L78.4392845,70.5942 L78.5402845,71.2932 L78.6882845,72.002 L78.8842845,72.7047 L79.1292845,73.4057 L79.4332845,74.1078 L79.7922845,74.7935 L80.2052845,75.4675 L80.6812845,76.1323 L81.2142845,76.7736 L81.8022845,77.3973 L82.4552845,78.0065 L83.1652845,78.592 L83.9332845,79.16 L84.7692845,79.7129 L85.6782845,80.252 L86.6592845,80.7656 L87.6542845,81.1979 L88.6392845,81.5369 L89.6192845,81.7937 L90.5992845,81.9636 L91.5582845,82.046 L92.5022845,82.0519 L93.4352845,81.9789 L94.3362845,81.834 L95.2142845,81.6283 L96.0712845,81.3607 L96.8962845,81.0423 L97.6962845,80.6815 L98.4762845,80.2774 L99.2292845,79.8405 L99.9632845,79.3763 L100.681284,78.8842 L101.399284,78.358 L102.732284,77.3098 L104.043284,76.2029 L105.289284,75.1135 L106.527284,74.0958 L107.789284,73.0566 L109.053284,72.0175 L110.076284,71.1507 L111.131284,70.7135 L112.478284,70.1234 L113.825284,69.5335 L114.428284,69.1285 L115.260284,69.4461 L116.799284,69.822 L118.339284,70.1979 L119.614284,70.4925 L120.147284,70.8523 L120.977284,71.3873 L121.780284,71.9426 L122.558284,72.5142 L123.306284,73.1014 L124.032284,73.7073 L124.737284,74.3283 L125.419284,74.9633 L126.083284,75.6154 L126.731284,76.281 L127.361284,76.9591 L127.966284,77.6378 L129.181284,79.0753 L130.340284,80.5404 L131.474284,82.0467 L132.595284,83.5839 L133.714284,85.1466 L134.849284,86.7335 L136.010284,88.3135 L137.191284,89.9214 L138.453284,91.4938 L139.721284,93.072 L140.481284,93.8897 L141.165284,94.6231 L141.850284,95.3566 L142.577284,96.134 L143.375284,96.9048 L144.180284,97.6412 L145.013284,98.3625 L145.874284,99.0707 L146.770284,99.765 L147.699284,100.4402 L148.660284,101.0988 L149.661284,101.7394 L150.698284,102.3574 L151.771284,102.9553 L152.889284,103.5317 L154.015284,104.0679 C155.160284,104.6119 156.528284,104.1251 157.072284,102.9806 C157.616284,101.8362 157.130284,100.4675 155.985284,99.9236 L154.924284,99.42 L153.937284,98.912 L152.986284,98.3832 L152.069284,97.8375 L151.190284,97.2757 L150.341284,96.6948 L149.519284,96.0988 L148.730284,95.4885 L147.966284,94.861 L147.225284,94.2197 L146.509284,93.566 L145.838284,92.921 L145.195284,92.232 L144.510284,91.4991 L143.825284,90.7662 L143.215284,90.1176 L142.018284,88.629 L140.816284,87.1345 L139.692284,85.6065 L138.547284,84.0507 L137.427284,82.4874 L136.295284,80.908 L135.140284,79.3275 L133.951284,77.7512 L132.711284,76.1865 L131.422284,74.6633 L130.732284,73.8894 L130.032284,73.1374 L129.310284,72.3976 L128.566284,71.6683 L127.793284,70.9501 L126.995284,70.2481 L126.169284,69.5602 L125.311284,68.8873 L124.422284,68.2347 L123.502284,67.6 L122.544284,66.9842 L121.219284,66.2347 L119.416284,65.7787 L117.876284,65.404 L116.337284,65.0293 L114.090284,64.5962 L112.000284,65.3722 L110.654284,65.9632 L109.308284,66.554 L107.670284,67.2977 L106.167284,68.509 L104.903284,69.5478 L103.640284,70.5865 L102.351284,71.6468 L101.082284,72.7521 L99.8612845,73.7812 L98.6292845,74.7458 L98.0502845,75.1677 L97.4592845,75.5717 L96.8702845,75.9434 L96.2862845,76.2814 L95.7122845,76.5779 L95.1382845,76.8354 L94.5712845,77.0542 L94.0152845,77.227 L93.4552845,77.3573 L92.8962845,77.447 L92.3422845,77.4897 L91.7722845,77.4847 L91.1892845,77.4345 L90.5962845,77.3307 L89.9692845,77.1649 L89.3172845,76.9395 L88.6392845,76.6441 L87.9092845,76.2588 L87.1992845,75.8356 L86.5582845,75.4102 L85.9842845,74.9843 L85.4742845,74.5623 L85.0322845,74.1494 L84.6452845,73.737 L84.3082845,73.33 L84.0242845,72.9332 L83.7812845,72.5331 L83.5722845,72.1339 L83.4032845,71.7394 L83.2622845,71.3328 L83.1472845,70.9184 L83.0602845,70.4999 L82.9982845,70.0621 L82.9582845,69.6103 L82.9422845,69.1487 L82.9462845,68.7073 L83.0162845,67.6522 L83.1572845,66.5899 L83.3552845,65.4691 L83.5902845,64.3012 L83.8442845,63.089 L84.0922845,61.8498 L84.2122845,61.1971 L84.3202845,60.5429 L84.4152845,59.8807 L84.4962845,59.2083 L84.5562845,58.5224 L84.5932845,57.8299 L84.6042845,57.1277 L84.5852845,56.4113 L84.5302845,55.6915 L84.4382845,54.9642 L84.3022845,54.2253 L84.1192845,53.4891 L83.8902845,52.7517 L83.6042845,52.0094 L83.2652845,51.2783 L82.8732845,50.5538 L82.4172845,49.8331 L81.9292845,49.1601 L81.6692845,48.8457 L81.3832845,48.558 L81.0402845,48.2834 L80.6012845,48.0255 L80.0132845,47.8197 L79.0482845,47.7768 L78.0402845,48.1186 L77.2272845,48.8293 L76.8232845,49.4702 L76.5782845,50.0456 L76.4042845,50.6113 L76.2702845,51.1763 L76.1582845,51.7567 L76.0602845,52.3635 L75.9722845,53.0015 L75.8182845,54.2781 L75.6712845,55.5959 L75.5172845,56.8845 L75.4372845,57.4749 L75.3512845,58.0351 L75.2582845,58.5466 L75.1622845,58.9977 L75.0662845,59.3622 L74.9652845,59.6617 L74.6492845,60.5105 L74.3062845,61.4359 L73.9472845,62.4041 L73.5752845,63.4084 L73.1862845,64.4493 L72.7812845,65.521 L72.3512845,66.6382 L71.9232845,67.7484 L71.4592845,68.9094 L70.9982845,70.0654 L70.5002845,71.2566 L70.0032845,72.4452 L69.4722845,73.653 L68.9422845,74.8536 L68.3752845,76.0619 L67.8112845,77.2646 L67.2102845,78.4592 L66.6052845,79.6604 L65.9832845,80.8284 L65.3382845,81.9829 L64.6752845,83.1177 L63.9972845,84.2294 L63.3032845,85.3101 L62.5932845,86.3602 L61.8682845,87.3768 L61.1352845,88.3544 L60.3862845,89.2913 L59.6252845,90.1849 L58.8532845,91.0245 L58.0672845,91.8132 L57.2702845,92.5495 L56.4692845,93.2223 L55.6572845,93.8398 L54.8382845,94.3984 L54.0182845,94.8865 L53.1842845,95.3105 L52.3442845,95.6721 L51.5042845,95.9611 L50.5972845,96.1934 L50.2102845,96.2693 L49.7772845,96.3367 L49.3352845,96.3867 L48.8892845,96.42 L48.4422845,96.4342 L47.9852845,96.4293 L47.5212845,96.4066 L47.0552845,96.364 L46.5772845,96.2999 L46.0912845,96.2164 L45.6012845,96.1116 L45.0982845,95.9826 L44.5862845,95.8322 L44.0692845,95.6584 L43.5372845,95.4578 L42.9972845,95.2329 L42.4512845,94.9825 L41.9112845,94.7133 L40.8742845,94.1475 L39.8882845,93.5455 L38.9202845,92.8917 L37.9722845,92.1941 L37.0522845,91.4524 L36.1522845,90.6594 L35.2732845,89.825 L34.4202845,88.9497 L33.5872845,88.0281 L32.7752845,87.0684 L31.9892845,86.071 L31.2232845,85.0311 L30.4792845,83.9563 L29.7612845,82.8478 L29.0642845,81.7011 L28.3892845,80.5235 L27.7402845,79.3163 L27.1142845,78.0747 L26.5112845,76.8058 L25.9342845,75.5118 L25.3792845,74.189 L24.8462845,72.8436 L24.3392845,71.4774 L23.8542845,70.0872 L23.3922845,68.6788 L22.9542845,67.254 L22.5402845,65.8101 L22.1472845,64.3522 L21.7782845,62.8825 L21.4332845,61.3985 L21.1102845,59.9047 L20.8102845,58.4038 L20.5332845,56.8934 L20.2772845,55.3774 L20.0432845,53.8594 L19.8312845,52.3364 L19.6402845,50.8123 L19.4722845,49.2902 L19.3272845,47.768 L19.2002845,46.249 L19.0942845,44.7369 L19.0112845,43.2292 L18.9472845,41.7289 L18.9062845,40.2402 L18.8862845,38.7606 L18.8852845,37.2928 L18.9052845,35.8412 L18.9472845,34.4037 L19.0072845,32.9822 L19.0892845,31.5819 L19.1902845,30.2003 L19.3092845,28.8392 L19.4472845,27.5043 L19.6062845,26.1929 L19.7822845,24.9065 L19.9772845,23.6517 L20.1922845,22.4251 L20.4232845,21.2282 L20.6712845,20.0683 L20.9382845,18.9416 L21.2212845,17.8496 L21.5202845,16.8004 L21.8362845,15.7895 L22.1672845,14.8184 L22.5112845,13.8967 L22.8712845,13.0183 L23.2422845,12.1851 L23.6232845,11.4075 L24.0172845,10.6782 L24.4182845,9.9992 L24.8222845,9.3819 L25.2352845,8.8169 L25.6482845,8.3056 L26.0562845,7.86 L26.4662845,7.4669 L26.8712845,7.1267 L27.2592845,6.8489 L27.6472845,6.6176 L28.0282845,6.4303 L28.3902845,6.293 L28.7642845,6.1926 L29.1422845,6.126 L29.5192845,6.0991 L29.9322845,6.1118 L30.3702845,6.1639 L30.8292845,6.2638 L31.3372845,6.4225 L31.8812845,6.6372 L32.4542845,6.9159 L33.0742845,7.2728 L33.7262845,7.7007 L34.4062845,8.2057 L35.1232845,8.8004 L35.8672845,9.4749 L36.6332845,10.2354 L37.4292845,11.0935 L38.0902845,11.8572 L38.7132845,12.6378 L39.3042845,13.4421 L39.8652845,14.2638 L40.3902845,15.1 L40.8852845,15.9596 L41.3512845,16.8362 L41.7832845,17.7267 L42.1852845,18.6401 L42.5602845,19.5699 L42.9022845,20.513 L43.2162845,21.4781 L43.5032845,22.4587 L43.7602845,23.4514 L43.9892845,24.465 L44.1922845,25.4931 L44.3642845,26.5325 L44.5092845,27.591 L44.6292845,28.6627 L44.7202845,29.7444 L44.7862845,30.8431 L44.8282845,31.9536 L44.8432845,33.0726 L44.8302845,34.2067 L44.7942845,35.3509 L44.7322845,36.5021 L44.6432845,37.6661 L44.5222845,38.8372 L44.3732845,40.0131 L44.2022845,41.1851 L43.9932845,42.3955 L43.7882845,43.5883 L43.5342845,44.7894 L43.2782845,45.9921 L42.9622845,47.197 L42.6452845,48.4079 L42.2882845,49.6212 L41.9322845,50.8307 L41.5342845,52.0406 L41.1372845,53.2518 L40.7082845,54.4634 L40.2812845,55.6815 L39.8192845,56.8956 L39.3582845,58.1064 L38.8612845,59.3105 L38.3642845,60.5158 L37.8342845,61.7125 L37.3052845,62.9149 L36.7462845,64.1067 L36.1892845,65.2953 L35.6012845,66.4701 L35.0142845,67.6456 L34.3982845,68.8049 L33.7842845,69.9698 L33.1442845,71.1177 L32.5072845,72.2623 L31.8452845,73.3857 L31.1842845,74.5095 L30.4982845,75.6094 L29.8122845,76.7132 L29.1062845,77.7931 L28.4032845,78.8696 L27.6812845,79.9175 L26.9592845,80.9654 L26.2202845,81.9821 L25.4802845,83.003 L24.7272845,83.9941 L23.9782845,84.9811 L23.2152845,85.9324 L22.4542845,86.8833 L21.6812845,87.7957 L20.8982845,88.721 L20.1282845,89.5982 L19.3492845,90.4619 L18.5642845,91.3054 L17.7782845,92.1284 L16.9922845,92.9261 L16.2032845,93.702 L15.4142845,94.4555 L14.6282845,95.1818 L13.8412845,95.8843 L13.0552845,96.5628 L12.2742845,97.2121 L11.4942845,97.8359 L10.7172845,98.434 L9.94828449,99.0009 L9.18228449,99.5407 L8.42228449,100.0533 L7.67328449,100.533 L6.92828449,100.9841 L6.19228449,101.4066 L5.47028449,101.7948 L4.75528449,102.1534 L4.05128449,102.4824 L3.36628449,102.7764 L2.62728449,103.0641 C0.48628449,103.92 -0.55671551,106.3499 0.29928449,108.4913 C1.15528449,110.6327 3.58528449,111.675 5.72628449,110.8191 Z" id="Fill-45"></path>
            <path d="M140.352284,81.9737 L141.256284,83.6689 L142.216284,85.3928 L143.301284,87.0964 L144.321284,88.8506 L144.827284,89.7492 L145.333284,90.6461 L145.847284,91.5396 L146.356284,92.4385 L146.886284,93.3228 L147.435284,94.2044 L148.028284,95.0526 L148.646284,95.9037 L149.931284,97.4807 L150.600284,98.2819 L151.267284,99.06 L151.937284,99.8274 L152.616284,100.5838 L153.347284,101.2906 L154.126284,101.9437 L154.829284,102.5226 L155.555284,103.0831 L156.297284,103.6212 L157.049284,104.1434 L157.812284,104.6498 L158.584284,105.1426 L160.106284,106.0977 L161.593284,107.035 L163.015284,107.9817 C163.513284,108.3211 164.191284,108.1927 164.531284,107.6949 C164.870284,107.1971 164.742284,106.5184 164.244284,106.1791 L162.820284,105.1856 L161.333284,104.2019 L159.850284,103.2096 L159.134284,102.7082 L158.434284,102.1989 L157.760284,101.6781 L157.118284,101.1438 L156.520284,100.5947 L155.969284,100.021 L155.380284,99.3143 L154.784284,98.6095 L154.176284,97.906 L153.593284,97.1723 L153.042284,96.4072 L152.529284,95.6263 L151.540284,93.9446 L151.083284,93.1075 L150.601284,92.2673 L150.131284,91.4155 L149.643284,90.5662 L149.178284,89.7018 L148.720284,88.832 L148.299284,87.9449 L147.877284,87.0594 L147.122284,85.2324 L146.494284,83.3649 L145.798284,81.5532 L145.092284,79.7764 C144.486284,78.4674 142.933284,77.8981 141.624284,78.5049 C140.315284,79.1116 139.745284,80.6647 140.352284,81.9737 Z" id="Fill-147"></path>
            <path d="M130.591284,91.6817 L131.437284,92.3903 L132.294284,93.1097 L133.173284,93.813 L134.061284,94.5121 L134.984284,95.1754 L135.948284,95.7902 L136.853284,96.4735 L137.736284,97.1896 L138.646284,97.8736 L139.554284,98.5648 L140.468284,99.2461 L141.381284,99.9294 L142.316284,100.5806 L143.267284,101.2187 L144.250284,101.8045 L145.245284,102.3761 L146.261284,102.9046 L147.261284,103.4379 L148.282284,103.9655 L149.301284,104.4828 L150.322284,104.9945 L151.369284,105.4542 L152.458284,105.8239 L153.546284,106.1894 L154.409284,106.4692 L155.270284,106.7166 L156.122284,106.9438 L156.966284,107.1578 L157.804284,107.3603 L158.628284,107.5577 L160.260284,107.9857 L161.848284,108.4805 L163.433284,109.1197 C163.854284,109.3045 164.345284,109.113 164.530284,108.692 C164.715284,108.2709 164.523284,107.7798 164.102284,107.595 L162.494284,106.8329 L160.832284,106.2026 L159.183284,105.658 L158.363284,105.3899 L157.557284,105.1243 L156.761284,104.8524 L155.980284,104.5651 L155.217284,104.2527 L154.468284,103.9124 L153.509284,103.4166 L152.578284,102.8719 L151.630284,102.3665 L150.678284,101.8688 L149.749284,101.3303 L148.845284,100.7579 L147.953284,100.1349 L147.076284,99.5071 L146.221284,98.8468 L145.355284,98.2007 L144.498284,97.5411 L143.626284,96.8946 L142.767284,96.228 L141.909284,95.5594 L141.082284,94.8517 L140.257284,94.1369 L139.440284,93.4149 L138.644284,92.6601 L137.938284,91.8087 L137.189284,91.0059 L136.436284,90.2163 L135.674284,89.4311 L134.918284,88.6493 L134.151284,87.8567 C133.094284,86.8738 131.441284,86.9333 130.458284,87.9896 C129.476284,89.0458 129.535284,90.6989 130.591284,91.6817 Z" id="Fill-148"></path>
            <path d="M154.237284,105.8649 L155.334284,105.668 L156.320284,105.6637 L157.343284,105.5947 C157.742284,105.8234 158.251284,105.6855 158.480284,105.2866 C158.708284,104.8878 158.570284,104.379 158.172284,104.1503 L157.714284,103.2321 L157.220284,102.3786 L156.836284,101.3325 C155.584284,100.6147 153.988284,101.0475 153.270284,102.2992 C152.552284,103.5508 152.985284,105.1472 154.237284,105.8649 Z" id="Fill-149"></path>
            <path d="M156.574284,107.1697 L157.286284,106.7023 L157.907284,106.4377 L158.559284,106.1051 C158.978284,106.2922 159.471284,106.1034 159.658284,105.6834 C159.845284,105.2634 159.656284,104.7712 159.236284,104.5842 L159.048284,103.8773 L158.829284,103.2386 L158.700284,102.3971 C157.382284,101.81 155.838284,102.4024 155.251284,103.7203 C154.664284,105.0383 155.257284,106.5826 156.574284,107.1697 Z" id="Fill-150"></path>
        </g>
    </g>
</svg>
