<?xml version="1.0" encoding="UTF-8"?>
<svg width="107px" height="126px" viewBox="0 0 107 126" version="1.1" xmlns="http://www.w3.org/2000/svg" xmlns:xlink="http://www.w3.org/1999/xlink">
    <title>224</title>
    <g id="Page-1" stroke="none" stroke-width="1" fill="none" fill-rule="evenodd">
        <g id="224" transform="translate(0.751685, 0.115108)" fill="currentColor">
            <path d="M2.211,0.530585612 L1.384,1.08658561 L0,3.22558561 L0.015,5.69558561 L0.712,7.10358561 L1.385,7.86358561 L1.95,8.33558561 L2.479,8.70758561 L3.023,9.04458561 L3.589,9.36558561 L4.191,9.68458561 L4.844,10.0135856 L5.545,10.3535856 L6.294,10.7065856 L7.097,11.0765856 L7.953,11.4635856 L8.857,11.8675856 L9.813,12.2905856 L10.819,12.7305856 L11.871,13.1875856 L12.97,13.6635856 L14.118,14.1555856 L15.305,14.6665856 L16.535,15.1965856 L17.806,15.7475856 L19.115,16.3125856 L20.463,16.8915856 L21.849,17.4875856 L23.269,18.0935856 L24.727,18.7085856 L26.226,19.3195856 L27.739,19.9765856 L29.262,20.6845856 L30.796,21.4385856 L32.342,22.2285856 L33.91,23.0295856 L35.499,23.8515856 L37.103,24.6885856 L38.719,25.5465856 L40.348,26.4265856 L41.983,27.3305856 L43.623,28.2585856 L45.258,29.2125856 L46.91,30.2045856 L48.552,31.1905856 L50.193,32.2245856 L51.832,33.2545856 L53.465,34.3275856 L55.108,35.4005856 L56.728,36.4915856 L58.348,37.6095856 L59.146,38.1715856 L59.951,38.7355856 L60.75,39.3105856 L61.548,39.8825856 L62.341,40.4635856 L63.132,41.0435856 L63.915,41.6355856 L64.699,42.2275856 L65.474,42.8305856 L66.242,43.4265856 L67.772,44.6545856 L69.27,45.9055856 L70.74,47.1795856 L72.18,48.4745856 L73.587,49.7945856 L74.96,51.1385856 L76.294,52.5045856 L77.591,53.8935856 L78.85,55.3025856 L80.079,56.7195856 L81.276,58.1535856 L82.453,59.5895856 L83.578,61.0495856 L84.648,62.5395856 L85.668,64.0515856 L86.632,65.5845856 L87.541,67.1415856 L88.396,68.7195856 L89.19,70.3165856 L89.925,71.9355856 L90.606,73.5735856 L91.219,75.2285856 L91.769,76.9075856 L92.258,78.6045856 L92.679,80.3185856 L93.032,82.0555856 L93.321,83.8125856 L93.537,85.5855856 L93.679,87.3855856 L93.749,89.2045856 L93.74,91.0415856 L93.649,92.9055856 L93.481,94.8065856 L93.357,95.7435856 L93.233,96.6955856 L93.065,97.6595856 L92.894,98.6385856 L92.698,99.6025856 L92.478,100.580586 L92.234,101.567586 L91.97,102.560586 L91.682,103.557586 L91.371,104.562586 L91.038,105.573586 L90.681,106.588586 L90.3,107.612586 L89.896,108.641586 L89.468,109.676586 L89.005,110.735586 C88.501,111.897586 89.033,113.249586 90.195,113.754586 C91.357,114.259586 92.709,113.726586 93.214,112.564586 L93.69,111.465586 L94.148,110.351586 L94.58,109.244586 L94.989,108.142586 L95.372,107.042586 L95.729,105.949586 L96.064,104.861586 L96.374,103.776586 L96.659,102.698586 L96.921,101.624586 L97.16,100.553586 L97.376,99.4795856 L97.556,98.4365856 L97.737,97.3775856 L97.873,96.3295856 L98.009,95.2655856 L98.185,93.2115856 L98.281,91.1625856 L98.291,89.1305856 L98.217,87.1255856 L98.069,85.1415856 L97.838,83.1775856 L97.528,81.2405856 L97.148,79.3265856 L96.691,77.4335856 L96.163,75.5685856 L95.572,73.7265856 L94.912,71.9055856 L94.191,70.1125856 L93.412,68.3415856 L92.571,66.5935856 L91.676,64.8705856 L90.732,63.1695856 L89.735,61.4875856 L88.69,59.8305856 L87.605,58.1915856 L86.477,56.5685856 L85.31,54.9655856 L84.082,53.4015856 L82.802,51.8655856 L81.473,50.3665856 L80.111,48.8885856 L78.714,47.4315856 L77.289,45.9985856 L75.839,44.5815856 L74.361,43.1845856 L72.858,41.8115856 L71.335,40.4555856 L69.795,39.1225856 L69.006,38.4605856 L68.225,37.8045856 L67.433,37.1585856 L66.641,36.5125856 L65.839,35.8775856 L65.038,35.2425856 L64.227,34.6215856 L63.417,34.0025856 L62.6,33.3945856 L61.775,32.7835856 L60.127,31.6005856 L58.457,30.4355856 L56.791,29.3135856 L55.114,28.1905856 L53.427,27.1155856 L51.741,26.0435856 L50.056,25.0135856 L48.38,23.9895856 L46.698,22.9885856 L45.031,22.0055856 L43.375,21.0435856 L41.731,20.0985856 L40.098,19.1755856 L38.481,18.2765856 L36.876,17.4025856 L35.287,16.5535856 L33.715,15.7365856 L32.171,14.9255856 L30.664,14.1125856 L29.198,13.2925856 L27.769,12.4685856 L26.358,11.6915856 L24.973,10.9515856 L23.616,10.2415856 L22.292,9.55958561 L21.004,8.90758561 L19.751,8.28158561 L18.54,7.67958561 L17.374,7.10258561 L16.252,6.54758561 L15.177,6.02158561 L14.154,5.52058561 L13.18,5.04358561 L12.263,4.59258561 L11.404,4.16758561 L10.604,3.76658561 L9.87,3.39358561 L9.205,3.04658561 L8.609,2.72758561 L8.095,2.44258561 L7.667,2.19258561 L7.329,1.98258561 L7.113,1.83458561 L7.029,1.76558561 L7.118,1.83758561 L7.471,2.24158561 L8.008,3.33758561 L8.012,5.53658561 L6.783,7.44858561 L6.283,7.82158561 C8.296,6.69758561 9.017,4.15358561 7.893,2.14058561 C6.768,0.126585612 4.225,-0.593414388 2.211,0.530585612 Z" id="Fill-43"></path>
            <path d="M100.652,86.0215856 L100.657,87.2265856 L100.611,88.3715856 L100.527,89.5285856 L100.41,90.6935856 L100.287,91.8695856 L100.134,93.0615856 L99.813,94.2225856 L99.463,95.3815856 L99.071,96.5405856 L98.626,97.6885856 L98.142,98.8265856 L97.635,99.9655856 L97.124,101.110586 L96.609,102.259586 L96.086,103.413586 L95.539,104.559586 L94.956,105.686586 L94.338,106.790586 L93.682,107.874586 L93.049,108.971586 L92.457,110.075586 L91.828,111.163586 L91.187,112.214586 L90.531,113.266586 L89.786,114.461586 L89.083,115.603586 L88.378,116.684586 L87.653,117.718586 L86.872,118.707586 L85.962,119.697586 C85.551,120.137586 85.574,120.827586 86.014,121.239586 C86.454,121.650586 87.144,121.627586 87.555,121.188586 L88.538,120.157586 L89.43,119.072586 L90.236,117.971586 L90.997,116.857586 L91.751,115.730586 L92.533,114.575586 L93.236,113.561586 L93.954,112.546586 L94.69,111.513586 L95.464,110.497586 L96.178,109.421586 L96.869,108.333586 L97.573,107.230586 L98.286,106.127586 L99.002,105.018586 L99.708,103.897586 L100.379,102.748586 L101.005,101.574586 L101.585,100.374586 L102.127,99.1545856 L102.64,97.9245856 L103.141,96.6875856 L103.606,95.4315856 L104.017,94.1595856 L104.512,92.9035856 L104.942,91.6145856 L105.278,90.2975856 L105.547,88.9595856 L105.743,87.5945856 L105.871,86.2745856 C105.94,84.8335856 104.829,83.6085856 103.388,83.5385856 C101.947,83.4685856 100.722,84.5805856 100.652,86.0215856 Z" id="Fill-144"></path>
            <path d="M87.565,88.4075856 L87.906,89.3455856 L88.179,90.2385856 L88.418,91.1625856 L88.629,92.1095856 L88.822,93.0765856 L89.032,94.0705856 L89.152,95.0905856 L89.154,96.1255856 L89.141,97.1765856 L89.097,98.2395856 L89.007,99.3095856 L88.887,100.379586 L88.736,101.470586 L88.607,102.562586 L88.464,103.652586 L88.339,104.758586 L88.2,105.854586 L88.05,106.957586 L87.875,108.042586 L87.679,109.130586 L87.468,110.190586 L87.266,111.261586 L87.14,112.315586 L86.992,113.366586 L86.723,115.157586 L86.416,116.912586 L86.034,118.632586 L85.812,119.441586 L85.553,120.242586 L85.258,121.023586 L84.926,121.780586 L84.55,122.510586 L84.1,123.247586 C83.781,123.758586 83.937,124.431586 84.449,124.750586 C84.96,125.068586 85.633,124.912586 85.951,124.401586 L86.456,123.608586 L86.917,122.757586 L87.318,121.890586 L87.672,121.011586 L87.981,120.118586 L88.258,119.206586 L88.727,117.425586 L89.131,115.627586 L89.537,113.861586 L89.806,112.853586 L90.095,111.847586 L90.343,110.800586 L90.581,109.743586 L90.841,108.668586 L91.122,107.590586 L91.413,106.499586 L91.715,105.401586 L91.99,104.288586 L92.247,103.161586 L92.45,102.024586 L92.632,100.887586 L92.784,99.7275856 L92.915,98.5695856 L93.034,97.4115856 L93.126,96.2495856 L93.162,95.0825856 L93.239,93.9155856 L93.332,92.7375856 L93.317,91.5525856 L93.226,90.3705856 L93.071,89.1895856 L92.842,88.0065856 L92.567,86.8995856 C92.151,85.5185856 90.694,84.7355856 89.312,85.1525856 C87.931,85.5685856 87.148,87.0255856 87.565,88.4075856 Z" id="Fill-145"></path>
            <path d="M88.794,106.224586 L88.853,107.776586 L88.681,109.250586 L88.471,110.731586 L88.237,112.219586 L87.994,113.716586 L87.582,115.167586 C87.389,115.738586 87.696,116.357586 88.267,116.550586 C88.838,116.742586 89.457,116.436586 89.649,115.865586 L90.202,114.459586 L90.915,113.106586 L91.615,111.740586 L92.307,110.358586 L92.988,108.950586 L93.836,107.593586 C94.215,106.201586 93.392,104.765586 92,104.387586 C90.608,104.009586 89.172,104.831586 88.794,106.224586 Z" id="Fill-146"></path>
        </g>
    </g>
</svg>
