<?xml version="1.0" encoding="UTF-8"?>
<svg width="203px" height="137px" viewBox="0 0 203 137" version="1.1" xmlns="http://www.w3.org/2000/svg" xmlns:xlink="http://www.w3.org/1999/xlink">
    <title>226</title>
    <g id="Page-1" stroke="none" stroke-width="1" fill="none" fill-rule="evenodd">
        <g id="226" transform="translate(0.637685, 0.403094)" fill="currentColor">
            <path d="M31.346,12.5941 L31.213,13.0251 L31.068,13.4608 L30.892,13.9544 L30.69,14.4943 L30.463,15.0787 L30.209,15.7091 L29.933,16.3779 L29.634,17.0851 L29.312,17.8316 L28.97,18.6116 L28.608,19.4259 L28.227,20.2748 L27.828,21.1535 L27.411,22.0632 L26.977,23.0036 L26.529,23.9707 L26.065,24.9658 L25.587,25.9883 L25.096,27.0346 L24.592,28.1061 L24.077,29.2018 L23.551,30.3187 L23.014,31.4579 L22.468,32.6191 L21.91,33.806 L21.352,34.9951 L20.779,36.2197 L20.206,37.4462 L19.622,38.7045 L19.038,39.9637 L18.446,41.2487 L17.854,42.5357 L17.257,43.8477 L16.659,45.1614 L16.06,46.4962 L15.462,47.8318 L14.865,49.1836 L14.267,50.5378 L13.674,51.9063 L13.079,53.2766 L12.493,54.6573 L11.907,56.0383 L11.33,57.4257 L10.753,58.8164 L10.191,60.2112 L9.628,61.608 L9.082,63.0047 L8.536,64.4014 L8.008,65.7948 L7.479,67.1923 L6.973,68.5829 L6.467,69.976 L5.986,71.3586 L5.506,72.741 L5.053,74.1107 L4.598,75.4857 L4.175,76.8436 L3.752,78.2049 L3.364,79.5454 L2.977,80.8856 L2.625,82.2039 L2.273,83.5302 L1.964,84.8295 L1.654,86.1336 L1.389,87.407 L1.127,88.6663 L0.893,89.9335 L0.685,91.176 L0.504,92.4 L0.347,93.6098 L0.217,94.8069 L0.118,95.9835 L0.047,97.1449 L0.007,98.293 L0,99.4184 L0.024,100.5275 L0.083,101.6233 L0.179,102.6943 L0.311,103.7479 L0.484,104.7881 L0.7,105.8005 L0.957,106.7936 L1.264,107.7717 L1.619,108.7167 L2.022,109.6375 L2.49,110.5355 L3.009,111.3907 L3.583,112.2117 L4.222,113 L4.912,113.7328 L5.655,114.4188 L6.463,115.0574 L7.314,115.6302 L8.21,116.1466 L9.163,116.6057 L10.113,116.9831 L10.792,117.2131 L11.449,117.4011 L12.104,117.5562 L12.762,117.6829 L13.43,117.7803 L14.093,117.8464 L14.757,117.8853 L15.428,117.8972 L16.092,117.8835 L16.755,117.8444 L17.423,117.7778 L18.14,117.6768 L19.399,117.4321 L20.717,117.0803 L22.016,116.6414 L23.306,116.1251 L24.597,115.5252 L25.876,114.8522 L27.15,114.1129 L28.426,113.3003 L29.7,112.4295 L30.974,111.5014 L32.254,110.5077 L33.531,109.4562 L34.811,108.3517 L36.096,107.1883 L37.382,105.9725 L38.671,104.7092 L39.963,103.3913 L41.258,102.0264 L42.556,100.6191 L43.859,99.1653 L45.164,97.6702 L46.469,96.1423 L47.13,95.3511 L47.786,94.565 L48.444,93.7595 L49.101,92.9556 L49.76,92.1353 L50.418,91.3145 L51.08,90.4765 L51.74,89.6392 L52.403,88.7858 L53.064,87.9338 L53.727,87.0679 L54.39,86.202 L55.055,85.3217 L55.719,84.4421 L56.385,83.5494 L57.05,82.658 L57.716,81.7554 L58.382,80.8528 L59.05,79.9391 L59.717,79.026 L60.385,78.1028 L61.052,77.1807 L61.72,76.2502 L62.389,75.3199 L63.058,74.3817 L63.727,73.4445 L64.397,72.5002 L65.068,71.5554 L65.739,70.603 L66.406,69.6548 L67.074,68.7067 L67.745,67.7538 L68.417,66.7929 L69.085,65.8368 L69.753,64.8806 L70.423,63.9224 L71.094,62.9611 L71.763,62.0023 L72.432,61.0435 L73.099,60.0871 L73.762,59.1401 L74.427,58.1909 L75.092,57.2416 L75.757,56.2924 L76.421,55.3431 L77.086,54.3938 L77.751,53.4446 L78.416,52.4954 L79.081,51.5463 L79.746,50.597 L80.411,49.6479 L81.076,48.6987 L81.741,47.7495 L82.406,46.8004 L83.071,45.8512 L83.717,44.9292 L84.346,44.0737 L84.996,43.1898 L85.646,42.306 L86.296,41.4221 L86.946,40.5383 L87.596,39.6545 L88.246,38.7706 L88.897,37.8868 L89.547,37.003 L90.197,36.1191 L90.847,35.2353 L91.497,34.3514 L92.147,33.4675 L92.797,32.5833 L93.446,31.6991 L94.024,30.9083 L95.227,29.466 L96.471,27.9723 L97.716,26.4786 L98.96,24.9849 L100.204,23.4908 L101.447,21.9961 L102.691,20.5013 L103.886,19.063 L105.022,17.8335 L106.185,16.6151 L107.335,15.4521 L108.471,14.343 L109.588,13.297 L110.691,12.3127 L111.777,11.3885 L112.841,10.5348 L113.887,9.7486 L114.911,9.028 L115.906,8.384 L116.879,7.8122 L117.824,7.3088 L118.732,6.8851 L119.613,6.5354 L120.46,6.2548 L121.262,6.0515 L122.036,5.9186 L122.777,5.8486 L123.473,5.8463 L124.22,5.9189 L124.488,5.964 L124.81,6.033 L125.136,6.1204 L125.46,6.2232 L125.777,6.3418 L126.065,6.4656 L126.596,6.7313 L127.019,6.9894 L127.395,7.2669 L127.726,7.555 L128.004,7.8491 L128.254,8.171 L128.478,8.5137 L128.667,8.875 L128.834,9.2815 L128.978,9.7242 L129.091,10.1995 L129.176,10.7289 L129.232,11.3002 L129.253,11.9083 L129.239,12.5678 L129.191,13.2665 L129.105,13.9999 L128.981,14.7773 L128.822,15.5887 L128.626,16.4307 L128.391,17.3096 L128.123,18.2174 L127.82,19.1517 L127.48,20.1172 L127.11,21.1072 L126.707,22.1202 L126.271,23.1594 L125.807,24.2197 L125.314,25.2999 L124.791,26.4022 L124.242,27.5225 L123.668,28.6599 L123.068,29.816 L122.446,30.9874 L121.801,32.1732 L121.136,33.3703 L120.439,34.5945 L119.743,35.8149 L119.011,37.0563 L118.277,38.2999 L117.512,39.5617 L116.744,40.8265 L115.953,42.1052 L115.161,43.3847 L114.347,44.6765 L113.532,45.9703 L112.699,47.2729 L111.865,48.5775 L111.019,49.8875 L110.172,51.1986 L109.316,52.5128 L108.46,53.8286 L107.599,55.1443 L106.738,56.4615 L105.877,57.7757 L105.013,59.0903 L104.154,60.3989 L103.294,61.7092 L102.444,63.0103 L101.593,64.3126 L100.755,65.6038 L99.915,66.897 L99.094,68.1753 L98.271,69.4548 L97.471,70.7164 L96.671,71.9788 L95.895,73.2222 L95.118,74.4684 L94.373,75.691 L93.627,76.916 L92.917,78.1142 L92.209,79.3091 L91.522,80.4931 L90.859,81.6604 L90.218,82.812 L89.598,83.95 L89.001,85.0735 L88.43,86.1795 L87.884,87.2705 L87.364,88.346 L86.873,89.4025 L86.41,90.4431 L85.979,91.4691 L85.581,92.4745 L85.214,93.4638 L84.879,94.4377 L84.582,95.3906 L84.319,96.3279 L84.094,97.2521 L83.911,98.1556 L83.767,99.0456 L83.668,99.9268 L83.619,100.7878 L83.619,101.6379 L83.677,102.4834 L83.796,103.304 L84.003,104.269 L84.266,105.1835 L84.585,106.0355 L84.962,106.8393 L85.415,107.5972 L85.935,108.2819 L86.527,108.9 L87.202,109.4425 L87.927,109.8777 L88.694,110.2144 L89.502,110.4492 L90.309,110.5793 L91.117,110.6243 L91.933,110.5881 L92.735,110.4812 L93.533,110.3162 L94.339,110.0922 L95.14,109.8179 L95.946,109.4994 L96.764,109.1331 L97.587,108.7255 L98.419,108.2819 L99.267,107.797 L100.124,107.2756 L100.992,106.7211 L101.875,106.1302 L102.77,105.5071 L103.676,104.8549 L104.596,104.1711 L105.527,103.459 L106.469,102.722 L107.424,101.9579 L108.389,101.1702 L109.365,100.3625 L110.351,99.5326 L111.349,98.6811 L112.354,97.8089 L113.361,96.9354 L114.385,96.0287 L115.407,95.124 L116.444,94.1933 L117.478,93.2645 L118.523,92.318 L119.568,91.3729 L120.621,90.4139 L121.673,89.4567 L122.73,88.4925 L123.785,87.5306 L124.842,86.5703 L125.902,85.6084 L126.961,84.6464 L128.013,83.6928 L129.059,82.7623 L130.114,81.8246 L131.169,80.8868 L132.207,79.9633 L133.227,79.091 L134.263,78.2042 L135.299,77.3174 L136.319,76.4443 L137.318,75.6204 L138.32,74.7952 L139.302,74.014 L140.282,73.2352 L141.239,72.5076 L142.201,71.7762 L143.133,71.093 L144.054,70.4382 L144.959,69.8157 L145.847,69.2252 L146.715,68.6725 L147.564,68.1574 L148.394,67.6786 L149.197,67.2426 L149.978,66.8483 L150.733,66.4944 L151.456,66.1876 L152.151,65.9259 L152.814,65.7073 L153.435,65.5378 L154.023,65.4142 L154.571,65.3322 L155.068,65.2952 L155.528,65.2994 L155.947,65.3373 L156.315,65.4084 L156.658,65.5147 L156.975,65.6491 L157.263,65.8135 L157.551,66.0266 L157.835,66.2854 L158.108,66.597 L158.387,66.9871 L158.66,67.4482 L158.92,67.985 L159.18,68.6493 L159.182,68.6589 L159.2,68.7433 L159.221,68.8826 L159.238,69.0623 L159.248,69.2765 L159.249,69.5314 L159.241,69.817 L159.222,70.1299 L159.19,70.4743 L159.149,70.8431 L159.095,71.2347 L159.033,71.6342 L158.869,72.5468 L158.664,73.5187 L158.417,74.5656 L158.133,75.673 L157.813,76.8387 L157.458,78.06 L157.073,79.326 L156.659,80.6346 L156.217,81.9828 L155.752,83.3618 L155.266,84.769 L154.759,86.2009 L154.236,87.6506 L153.699,89.1146 L153.148,90.5891 L152.588,92.0686 L152.021,93.5488 L151.449,95.0239 L150.873,96.4891 L150.297,97.9531 L149.725,99.3819 L149.152,100.8122 L148.594,102.1876 L148.035,103.5653 L147.491,104.8941 L146.961,106.1841 L146.448,107.4297 L145.951,108.631 L145.475,109.779 L145.023,110.8692 L144.594,111.9032 L144.193,112.8712 L143.823,113.7683 L143.482,114.5978 L143.176,115.3497 L142.908,116.0161 L142.785,116.3254 L142.673,116.611 L142.571,116.8751 L142.478,117.1204 L142.394,117.3469 L142.32,117.5543 L142.254,117.7494 L142.193,117.941 L142.138,118.1424 L142.082,118.4121 L142.057,119.0082 L143.272,120.8548 L143.901,121.1628 L144.573,121.4286 L145.251,121.6356 L145.938,121.7917 L146.639,121.8958 L147.336,121.9474 L148.034,121.954 L148.738,121.9142 L149.434,121.8318 L150.127,121.7123 L150.823,121.5537 L151.512,121.3607 L152.2,121.1372 L152.889,120.8807 L153.573,120.5958 L154.256,120.2853 L154.941,119.9463 L155.624,119.5834 L156.306,119.1985 L156.99,118.7891 L157.673,118.359 L158.356,117.9102 L159.041,117.4402 L159.739,116.943 L161.093,115.9312 L162.465,114.8443 L163.835,113.705 L165.203,112.524 L166.568,111.3033 L167.928,110.0542 L169.279,108.7856 L170.622,107.5027 L171.952,106.2156 L173.268,104.9319 L174.566,103.6597 L175.844,102.4082 L177.101,101.1834 L178.331,99.9964 L179.532,98.8558 L180.702,97.7659 L181.835,96.7412 L182.928,95.7893 L183.978,94.9135 L184.974,94.1318 L185.935,93.4363 L186.362,93.1473 L186.789,92.8752 L187.198,92.6317 L187.586,92.4166 L187.946,92.2354 L188.284,92.0845 L188.594,91.963 L188.865,91.8749 L189.106,91.8147 L189.311,91.7781 L189.465,91.7646 L189.588,91.7667 L189.677,91.7761 L189.724,91.7872 L189.767,91.8044 L189.807,91.8249 L189.846,91.8524 L189.912,91.9143 L189.997,92.011 L190.093,92.1484 L190.207,92.3511 L190.329,92.6105 L190.45,92.9267 L190.569,93.3143 L190.682,93.7618 L190.783,94.2689 L190.871,94.8449 L190.946,95.4796 L191.004,96.1744 L191.043,96.9232 L191.074,98.2567 L191.057,99.5351 L190.997,100.7812 L190.9,101.9962 L190.768,103.1742 L190.602,104.3231 L190.41,105.444 L190.193,106.5321 L189.954,107.5937 L189.698,108.6304 L189.428,109.6381 L189.146,110.6218 L188.856,111.5835 L188.563,112.5205 L188.269,113.4359 L187.978,114.3329 L187.694,115.2105 L187.42,116.0698 L187.159,116.9155 L186.916,117.749 L186.697,118.5691 L186.502,119.3825 L186.34,120.1943 L186.224,120.9426 C186.033,122.1951 186.893,123.3657 188.146,123.5572 C189.398,123.7487 190.569,122.8885 190.76,121.6359 L190.857,120.9945 L190.983,120.369 L191.144,119.6959 L191.334,118.9835 L191.553,118.2327 L191.796,117.4407 L192.06,116.6126 L192.34,115.7468 L192.633,114.8428 L192.934,113.9039 L193.239,112.9263 L193.543,111.9117 L193.844,110.8618 L194.136,109.7716 L194.413,108.6445 L194.675,107.4813 L194.914,106.2761 L195.126,105.0337 L195.309,103.7544 L195.458,102.4316 L195.565,101.0715 L195.632,99.674 L195.65,98.232 L195.616,96.7667 L195.569,95.8659 L195.498,95.0231 L195.404,94.2297 L195.287,93.4754 L195.143,92.7577 L194.973,92.0836 L194.774,91.4416 L194.54,90.8275 L194.27,90.2534 L193.96,89.709 L193.596,89.192 L193.187,88.725 L192.728,88.3037 L192.208,87.9345 L191.657,87.6426 L191.08,87.4222 L190.476,87.2759 L189.883,87.2057 L189.298,87.1973 L188.713,87.2473 L188.151,87.3458 L187.6,87.4838 L187.052,87.6616 L186.516,87.8712 L185.985,88.1089 L185.451,88.3776 L184.92,88.6713 L184.388,88.9884 L183.851,89.3318 L183.292,89.7109 L182.221,90.4879 L181.104,91.3652 L179.964,92.3162 L178.803,93.3291 L177.615,94.405 L176.405,95.533 L175.175,96.7022 L173.924,97.9102 L172.657,99.1472 L171.375,100.4034 L170.08,101.6734 L168.775,102.9481 L167.463,104.2194 L166.146,105.4788 L164.827,106.718 L163.51,107.9305 L162.197,109.1049 L160.891,110.2339 L159.596,111.3126 L158.317,112.3264 L157.043,113.2794 L156.434,113.7136 L155.819,114.1354 L155.211,114.5358 L154.61,114.9148 L154.02,115.2682 L153.437,115.5974 L152.864,115.9026 L152.306,116.1793 L151.756,116.4294 L151.22,116.6534 L150.701,116.8468 L150.194,117.012 L149.703,117.1502 L149.234,117.2575 L148.777,117.3363 L148.339,117.3889 L147.925,117.4127 L147.523,117.4089 L147.137,117.3811 L146.775,117.3278 L146.418,117.2463 L146.072,117.141 L145.741,117.0102 L145.387,116.835 L146.584,118.6381 L146.566,119.1334 L146.544,119.2462 L146.546,119.2406 L146.568,119.1713 L146.608,119.0528 L146.663,118.8996 L146.731,118.7149 L146.813,118.4998 L146.906,118.2593 L147.01,117.9933 L147.125,117.705 L147.386,117.0546 L147.686,116.3185 L148.023,115.4988 L148.391,114.6079 L148.791,113.6437 L149.22,112.6111 L149.672,111.5204 L150.149,110.3704 L150.648,109.1662 L151.165,107.9165 L151.699,106.621 L152.247,105.2838 L152.81,103.9012 L153.374,102.5163 L153.952,101.0768 L154.531,99.6359 L155.113,98.1598 L155.695,96.6851 L156.276,95.192 L156.852,93.6946 L157.42,92.197 L157.98,90.7024 L158.528,89.215 L159.061,87.7405 L159.579,86.281 L160.079,84.8413 L160.557,83.4276 L161.013,82.0403 L161.444,80.6849 L161.845,79.368 L162.219,78.0882 L162.561,76.8512 L162.866,75.664 L163.137,74.5226 L163.368,73.4315 L163.552,72.4163 L163.633,71.9003 L163.7,71.4134 L163.754,70.9421 L163.796,70.482 L163.824,70.0308 L163.837,69.5939 L163.836,69.1651 L163.816,68.7394 L163.776,68.3242 L163.714,67.9102 L163.62,67.4887 L163.479,67.0405 L163.128,66.1502 L162.709,65.2826 L162.238,64.4859 L161.712,63.7488 L161.119,63.0736 L160.475,62.4827 L159.779,61.9679 L159.025,61.5353 L158.243,61.2001 L157.436,60.9499 L156.6,60.7856 L155.763,60.7061 L154.92,60.697 L154.064,60.7585 L153.212,60.8832 L152.356,61.0616 L151.49,61.2963 L150.621,61.5804 L149.745,61.9083 L148.857,62.2834 L147.963,62.7003 L147.059,63.1547 L146.142,63.6504 L145.217,64.1825 L144.281,64.7476 L143.332,65.3483 L142.374,65.9807 L141.406,66.6418 L140.427,67.3342 L139.433,68.058 L138.438,68.8102 L137.437,69.566 L136.416,70.3723 L135.399,71.1764 L134.364,72.024 L133.327,72.8729 L132.272,73.7704 L131.233,74.654 L130.195,75.5377 L129.139,76.4359 L128.065,77.3848 L127.007,78.3193 L125.95,79.2539 L124.884,80.1958 L123.812,81.1604 L122.748,82.1167 L121.683,83.0729 L120.617,84.0309 L119.554,84.9904 L118.493,85.9476 L117.438,86.8978 L116.384,87.8464 L115.34,88.7811 L114.297,89.7144 L113.265,90.6288 L112.234,91.5414 L111.219,92.4277 L110.206,93.3121 L109.212,94.1632 L108.216,95.0157 L107.241,95.8367 L106.276,96.6369 L105.325,97.4135 L104.387,98.1655 L103.465,98.8893 L102.558,99.5847 L101.669,100.2518 L100.799,100.8855 L99.949,101.4858 L99.117,102.0532 L98.311,102.5817 L97.528,103.0718 L96.768,103.5242 L96.04,103.9322 L95.338,104.2974 L94.666,104.619 L94.034,104.8915 L93.437,105.1178 L92.879,105.3 L92.375,105.4326 L91.914,105.5205 L91.504,105.5696 L91.163,105.5796 L90.868,105.5576 L90.625,105.5151 L90.442,105.4578 L90.277,105.3796 L90.126,105.2855 L89.989,105.1697 L89.832,104.9971 L89.664,104.7679 L89.496,104.4732 L89.321,104.0823 L89.152,103.6077 L88.999,103.0474 L88.864,102.3859 L88.804,101.9546 L88.776,101.4836 L88.781,100.9544 L88.818,100.3802 L88.891,99.766 L89.004,99.1022 L89.151,98.4 L89.337,97.663 L89.561,96.8851 L89.82,96.075 L90.115,95.2349 L90.447,94.3606 L90.811,93.4589 L91.209,92.5311 L91.637,91.5731 L92.094,90.5912 L92.581,89.5863 L93.099,88.5565 L93.642,87.5061 L94.212,86.4355 L94.808,85.3436 L95.427,84.2339 L96.07,83.1067 L96.733,81.9648 L97.43,80.7935 L98.125,79.6254 L98.857,78.4296 L99.59,77.2316 L100.356,76.0093 L101.123,74.7842 L101.915,73.5399 L102.708,72.2947 L103.524,71.0311 L104.343,69.7662 L105.179,68.4864 L106.017,67.2046 L106.868,65.9119 L107.72,64.6181 L108.581,63.3151 L109.444,62.0104 L110.311,60.6997 L111.181,59.3887 L112.051,58.0751 L112.923,56.7601 L113.79,55.4447 L114.659,54.1277 L115.519,52.8137 L116.38,51.4986 L117.229,50.1889 L118.079,48.8772 L118.912,47.5742 L119.746,46.2692 L120.558,44.9761 L121.371,43.6821 L122.159,42.4014 L122.949,41.1176 L123.708,39.8511 L124.47,38.5827 L125.196,37.3351 L125.92,36.0914 L126.623,34.8526 L127.303,33.6278 L127.962,32.4155 L128.6,31.2138 L129.214,30.0233 L129.803,28.847 L130.369,27.6828 L130.908,26.5307 L131.418,25.3946 L131.901,24.2715 L132.354,23.161 L132.775,22.068 L133.165,20.9884 L133.522,19.9211 L133.843,18.8722 L134.129,17.8366 L134.378,16.8118 L134.585,15.806 L134.753,14.8124 L134.877,13.827 L134.953,12.861 L134.983,11.9059 L134.958,10.9565 L134.877,10.0286 L134.738,9.1132 L134.53,8.205 L134.255,7.3272 L133.911,6.4717 L133.485,5.6368 L132.987,4.8508 L132.419,4.1065 L131.768,3.4047 L131.057,2.7688 L130.286,2.189 L129.446,1.6646 L128.595,1.2242 L127.985,0.9534 L127.394,0.7268 L126.803,0.5333 L126.204,0.3683 L125.594,0.2328 L124.921,0.1207 L123.763,0.0062 L122.521,0 L121.291,0.1049 L120.066,0.306 L118.837,0.6075 L117.624,0.998 L116.417,1.467 L115.208,2.0206 L114.008,2.6484 L112.812,3.3442 L111.61,4.1137 L110.411,4.9482 L109.211,5.8422 L108.004,6.8021 L106.795,7.8208 L105.582,8.8931 L104.361,10.025 L103.137,11.2103 L101.907,12.4443 L100.669,13.7316 L99.386,15.112 L98.088,16.6583 L96.839,18.1483 L95.59,19.6382 L94.342,21.1287 L93.094,22.6197 L91.846,24.1107 L90.599,25.6016 L89.309,27.144 L88.586,28.1202 L87.934,29.003 L87.283,29.8858 L86.632,30.7689 L85.981,31.652 L85.33,32.5352 L84.679,33.4184 L84.028,34.3016 L83.377,35.1848 L82.726,36.0679 L82.074,36.9511 L81.424,37.8343 L80.772,38.7175 L80.122,39.6006 L79.47,40.4838 L78.798,41.3952 L78.112,42.3704 L77.446,43.3183 L76.779,44.2662 L76.112,45.2142 L75.445,46.1621 L74.779,47.1101 L74.112,48.058 L73.445,49.006 L72.778,49.9539 L72.112,50.9019 L71.445,51.8497 L70.778,52.7975 L70.111,53.7454 L69.444,54.6933 L68.777,55.6411 L68.109,56.5913 L67.437,57.551 L66.766,58.5083 L66.095,59.4657 L65.426,60.4205 L64.756,61.3714 L64.083,62.3243 L63.41,63.2773 L62.741,64.2256 L62.072,65.1658 L61.4,66.1107 L60.727,67.0557 L60.058,67.9963 L59.389,68.9291 L58.72,69.8625 L58.052,70.7889 L57.384,71.7144 L56.716,72.6315 L56.048,73.5485 L55.382,74.4573 L54.716,75.365 L54.051,76.2626 L53.387,77.1597 L52.724,78.0455 L52.061,78.9313 L51.4,79.806 L50.739,80.6794 L50.081,81.5397 L49.423,82.3993 L48.767,83.2444 L48.111,84.0898 L47.457,84.9211 L46.804,85.751 L46.153,86.5646 L45.504,87.3773 L44.856,88.1725 L44.209,88.968 L43.564,89.7467 L42.921,90.5236 L42.282,91.2811 L41.647,92.0336 L40.372,93.511 L39.109,94.9428 L37.856,96.326 L36.613,97.6611 L35.379,98.9491 L34.158,100.1817 L32.95,101.3619 L31.754,102.4888 L30.574,103.5533 L29.407,104.5572 L28.255,105.502 L27.125,106.3774 L26.009,107.1866 L24.912,107.9297 L23.839,108.5913 L22.786,109.1819 L21.758,109.704 L20.766,110.1473 L19.799,110.5175 L18.862,110.819 L17.97,111.0432 L17.047,111.2053 L16.681,111.2488 L16.273,111.2831 L15.868,111.3005 L15.47,111.3027 L15.086,111.2852 L14.702,111.2487 L14.324,111.1974 L13.958,111.1304 L13.591,111.0453 L13.226,110.9452 L12.871,110.8294 L12.547,110.7068 L11.953,110.449 L11.454,110.1857 L10.991,109.8944 L10.563,109.5837 L10.181,109.257 L9.821,108.8976 L9.485,108.5141 L9.182,108.1096 L8.895,107.6631 L8.628,107.1847 L8.387,106.6779 L8.16,106.1247 L7.954,105.5342 L7.773,104.9111 L7.616,104.239 L7.481,103.5297 L7.374,102.7878 L7.294,102.0007 L7.238,101.1791 L7.211,100.3274 L7.211,99.4357 L7.237,98.5134 L7.29,97.564 L7.372,96.58 L7.477,95.5692 L7.607,94.5344 L7.764,93.4698 L7.944,92.3822 L8.15,91.2739 L8.377,90.1533 L8.643,88.9767 L8.905,87.8145 L9.212,86.6185 L9.52,85.4179 L9.868,84.1877 L10.216,82.9495 L10.6,81.688 L10.982,80.4268 L11.401,79.1434 L11.82,77.8567 L12.271,76.552 L12.724,75.2419 L13.204,73.9186 L13.683,72.5955 L14.189,71.2614 L14.695,69.9248 L15.225,68.5811 L15.755,67.2335 L16.304,65.8826 L16.853,64.5318 L17.419,63.1808 L17.986,61.8278 L18.565,60.4783 L19.145,59.1254 L19.734,57.7789 L20.324,56.4324 L20.92,55.0964 L21.518,53.7586 L22.12,52.4354 L22.723,51.1097 L23.328,49.8002 L23.931,48.4899 L24.533,47.2009 L25.136,45.9102 L25.733,44.6447 L26.331,43.3771 L26.922,42.1354 L27.514,40.8929 L28.094,39.6822 L28.675,38.4699 L29.242,37.2933 L29.81,36.1146 L30.366,34.9628 L30.913,33.8299 L31.45,32.7175 L31.978,31.6242 L32.494,30.5529 L32.998,29.5045 L33.491,28.4775 L33.97,27.4747 L34.435,26.4974 L34.887,25.5435 L35.322,24.6155 L35.741,23.7155 L36.145,22.8406 L36.532,21.9932 L36.899,21.1757 L37.25,20.3845 L37.581,19.6214 L37.892,18.8894 L38.184,18.1837 L38.456,17.5047 L38.706,16.8561 L38.936,16.2307 L39.145,15.6255 L39.314,15.0958 C40.005,12.8956 38.781,10.5519 36.581,9.861 C34.38,9.1702 32.037,10.3938 31.346,12.5941 Z" id="Fill-41"></path>
            <path d="M197.071,109.7155 L196.456,110.6739 L195.832,111.6574 L195.247,112.6718 L194.717,113.7186 L194.186,114.7659 L193.561,115.7419 L192.961,116.7372 L192.338,117.7163 L191.722,118.7018 L191.129,119.7001 L190.582,120.7275 L190.061,121.7673 L189.54,122.8058 L188.989,123.825 L188.415,124.8289 L187.875,125.8508 L187.383,126.8993 L186.851,127.9212 L186.306,128.9327 L185.753,129.9384 L185.202,130.9401 L184.641,131.9354 L184.084,132.9266 L183.527,133.9174 C183.225,134.4385 183.402,135.106 183.923,135.4084 C184.444,135.7108 185.112,135.5334 185.414,135.0123 L185.998,134.037 L186.582,133.0621 L187.169,132.0834 L187.764,131.111 L188.368,130.1393 L188.981,129.1734 L189.616,128.2186 L190.293,127.2903 L190.935,126.3402 L191.544,125.3721 L192.193,124.4286 L192.872,123.5045 L193.57,122.5939 L194.241,121.6708 L194.89,120.7362 L195.514,119.7888 L196.158,118.8571 L196.825,117.9416 L197.493,117.0305 L198.255,116.1908 L199.048,115.3808 L199.786,114.5383 L200.519,113.6998 L201.261,112.8362 C202.123,111.6791 201.884,110.0424 200.726,109.1807 C199.569,108.3189 197.933,108.5583 197.071,109.7155 Z" id="Fill-141"></path>
            <path d="M184.135,108.8452 L184.152,109.9223 L184.176,110.9999 L184.225,112.0789 L184.338,113.1607 L184.427,114.2487 L184.399,115.3306 L184.384,116.4135 L184.342,117.4794 L184.275,118.5463 L184.235,119.6304 L184.234,120.7173 L184.263,121.7913 L184.258,122.8636 L184.219,123.9345 L184.123,124.9986 L184.067,126.0653 L184.034,127.1342 L183.952,128.1979 L183.826,129.2538 L183.691,130.3057 L183.522,131.3495 L183.343,132.39 L183.13,133.4214 L182.913,134.4708 C182.782,135.059 183.153,135.6416 183.741,135.7722 C184.329,135.9028 184.912,135.5318 185.043,134.9436 L185.29,133.9009 L185.541,132.8401 L185.758,131.7693 L185.985,130.702 L186.186,129.6266 L186.396,128.5552 L186.603,127.4797 L186.857,126.4095 L187.043,125.3266 L187.188,124.2411 L187.352,123.1551 L187.551,122.0705 L187.743,120.9827 L187.906,119.908 L188.029,118.8302 L188.126,117.7353 L188.212,116.6417 L188.326,115.5648 L188.427,114.4871 L188.644,113.4153 L188.883,112.3522 L189.058,111.2864 L189.208,110.219 L189.351,109.1512 C189.435,107.7109 188.336,106.4748 186.896,106.3903 C185.456,106.3058 184.22,107.4049 184.135,108.8452 Z" id="Fill-142"></path>
            <path d="M185.654,121.8388 L185.952,123.0142 L186.01,124.1287 L186.007,125.2566 L185.959,126.3934 L185.866,127.5338 L185.558,128.6376 C185.359,129.2064 185.659,129.8285 186.228,130.0271 C186.797,130.2258 187.419,129.9257 187.617,129.3569 L188.079,128.2582 L188.668,127.1639 L189.216,126.0393 L189.726,124.8859 L190.204,123.7021 L190.827,122.5676 C191.029,121.1389 190.034,119.8176 188.605,119.6163 C187.176,119.4151 185.855,120.4101 185.654,121.8388 Z" id="Fill-143"></path>
        </g>
    </g>
</svg>
