<?xml version="1.0" encoding="UTF-8"?>
<svg width="197px" height="75px" viewBox="0 0 197 75" version="1.1" xmlns="http://www.w3.org/2000/svg" xmlns:xlink="http://www.w3.org/1999/xlink">
    <title>227</title>
    <g id="Page-1" stroke="none" stroke-width="1" fill="none" fill-rule="evenodd">
        <g id="227" transform="translate(0.177411, 0.333494)" fill="currentColor">
            <path d="M1.9132746,51.7855 L2.5192746,52.1681 L3.1882746,52.5592 L3.8522746,52.9171 L4.5192746,53.2477 L5.1962746,53.5513 L5.8672746,53.8213 L6.5412746,54.0633 L7.2232746,54.2769 L7.8992746,54.4569 L8.5752746,54.6081 L9.2592746,54.7294 L9.9322746,54.8179 L10.6042746,54.8773 L11.2812746,54.9061 L11.9442746,54.9039 L12.6022746,54.8738 L13.2612746,54.8134 L13.9852746,54.7121 L15.1642746,54.4726 L16.3982746,54.1129 L17.5742746,53.6643 L18.7042746,53.1383 L19.7992746,52.5307 L20.8382746,51.8615 L21.8352746,51.1373 L22.7972746,50.3522 L23.7132746,49.5236 L24.5942746,48.6554 L25.4452746,47.742 L26.2592746,46.7981 L27.0452746,45.8255 L27.8032746,44.8183 L28.5302746,43.7907 L29.2322746,42.7439 L29.9112746,41.6753 L30.5632746,40.5954 L31.1942746,39.5054 L31.8022746,38.4042 L32.3932746,37.2898 L32.9412746,36.1983 L33.4922746,35.0961 L34.0032746,33.9945 L34.5082746,32.9022 L34.9752746,31.8278 L35.4352746,30.7703 L35.8732746,29.7178 L36.2862746,28.6944 L36.6782746,27.6994 L37.0512746,26.7327 L37.4052746,25.7993 L37.7392746,24.9054 L38.0462746,24.0465 L38.3312746,23.2327 L38.5972746,22.4702 L38.8452746,21.7581 L39.0732746,21.1062 L39.2812746,20.5186 L39.5912746,19.6554 L39.9072746,18.8258 L40.2222746,18.0257 L40.5312746,17.2509 L40.8342746,16.5043 L41.1302746,15.7843 L41.4212746,15.0891 L41.7052746,14.4217 L41.9902746,13.7832 L42.2712746,13.1704 L42.5462746,12.5852 L42.8142746,12.0253 L43.0762746,11.4896 L43.3312746,10.9813 L43.5792746,10.4978 L43.8212746,10.0382 L44.0552746,9.6063 L44.2822746,9.1984 L44.5012746,8.8138 L44.7122746,8.4574 L44.9152746,8.125 L45.1112746,7.8169 L45.2972746,7.5375 L45.4532746,7.3109 L45.8002746,6.8454 L46.0692746,6.5245 L46.2822746,6.3056 L46.4162746,6.1856 L46.4272746,6.1733 L46.3202746,6.2211 L46.0702746,6.2842 L45.6722746,6.3048 L45.2782746,6.2384 L44.9592746,6.1065 L44.7452746,5.9652 L44.6792746,5.9043 L44.7062746,5.9336 L44.7902746,6.056 L44.9212746,6.2907 L45.0762746,6.6129 L45.2432746,7.0142 L45.4202746,7.5001 L45.6022746,8.0529 L45.7842746,8.6685 L45.9662746,9.3497 L46.1492746,10.0842 L46.3302746,10.8707 L46.5102746,11.7103 L46.6892746,12.594 L46.8662746,13.5218 L47.0432746,14.4935 L47.2192746,15.5019 L47.3962746,16.5474 L47.5742746,17.629 L47.7532746,18.7411 L47.9312746,19.8845 L48.1122746,21.0569 L48.2962746,22.2539 L48.4842746,23.476 L48.6772746,24.7222 L48.8762746,25.9918 L49.0772746,27.2665 L49.2892746,28.5714 L49.5032746,29.8808 L49.7302746,31.2121 L49.9582746,32.5458 L50.2022746,33.8927 L50.4472746,35.2451 L50.7152746,36.6045 L50.9832746,37.9684 L51.2752746,39.3313 L51.5682746,40.6958 L51.8852746,42.0525 L52.2062746,43.416 L52.5552746,44.7642 L52.9062746,46.1176 L53.2892746,47.4473 L53.6732746,48.7779 L54.0892746,50.0805 L54.5082746,51.3922 L54.9652746,52.6662 L55.4282746,53.9453 L55.9322746,55.1787 L56.4302746,56.3974 L56.9722746,57.6137 L57.5372746,58.7931 L58.1262746,59.942 L58.7412746,61.0647 L59.3852746,62.1603 L60.0572746,63.2193 L60.7582746,64.2466 L61.4932746,65.2411 L62.2592746,66.1919 L63.0582746,67.105 L63.8972746,67.978 L64.7692746,68.7991 L65.6772746,69.5742 L66.6302746,70.3002 L67.6172746,70.9644 L68.6422746,71.5731 L69.7132746,72.1223 L70.8162746,72.6016 L71.9542746,73.0158 L73.1372746,73.3584 L74.3482746,73.6221 L75.5892746,73.8135 L76.8712746,73.9258 L78.1702746,73.9558 L79.4182746,73.9168 L80.6612746,73.8095 L81.8892746,73.6377 L83.1092746,73.4119 L84.3262746,73.1254 L85.5282746,72.7833 L86.7222746,72.3917 L87.9112746,71.9466 L89.0882746,71.4551 L90.2582746,70.921 L91.4232746,70.3405 L92.5782746,69.7189 L93.7262746,69.0608 L94.8712746,68.3633 L96.0082746,67.6309 L97.1402746,66.867 L98.2702746,66.0686 L99.3882746,65.235 L100.501275,64.3734 L101.612275,63.4831 L102.717275,62.5684 L103.815275,61.6264 L104.908275,60.6582 L106.001275,59.6669 L107.082275,58.658 L108.169275,57.6504 L109.258275,56.6101 L110.343275,55.5733 L111.427275,54.5094 L112.511275,53.452 L113.595275,52.3765 L114.677275,51.3031 L115.760275,50.2161 L116.841275,49.1338 L117.924275,48.0453 L119.002275,46.9608 L120.084275,45.8809 L121.170275,44.8004 L122.255275,43.7199 L123.329275,42.6514 L124.406275,41.6102 L125.496275,40.557 L126.586275,39.5039 L127.650275,38.4746 L128.720275,37.5045 L129.817275,36.5105 L130.913275,35.5165 L131.984275,34.5451 L133.060275,33.629 L134.137275,32.7105 L135.217275,31.8405 L136.292275,30.9738 L137.370275,30.1631 L138.455275,29.3466 L139.522275,28.5858 L140.594275,27.8549 L141.666275,27.1587 L142.737275,26.4968 L143.802275,25.8754 L144.869275,25.2934 L145.932275,24.7497 L146.990275,24.2508 L148.048275,23.7956 L149.103275,23.3822 L150.151275,23.0176 L151.201275,22.7013 L152.247275,22.43 L153.285275,22.2105 L154.326275,22.0417 L155.365275,21.9207 L156.397275,21.8549 L157.434275,21.8438 L158.472275,21.8834 L159.505275,21.9803 L160.547275,22.1372 L161.593275,22.3493 L162.639275,22.623 L163.697275,22.9637 L164.763275,23.3656 L165.831275,23.8355 L166.914275,24.3803 L168.006275,24.9933 L169.103275,25.6814 L170.214275,26.4524 L171.335275,27.2986 L172.463275,28.2269 L173.603275,29.2453 L174.752275,30.3449 L175.908275,31.5333 L177.076275,32.8179 L178.251275,34.1891 L179.439275,35.6638 L180.027275,36.4378 L180.628275,37.2285 L181.222275,38.041 L181.822275,38.8834 L182.424275,39.7527 L183.028275,40.6454 L183.633275,41.5631 L184.247275,42.5182 C184.932275,43.5836 186.352275,43.8915 187.417275,43.2058 C188.483275,42.52 188.791275,41.1004 188.105275,40.0348 L187.476275,39.0585 L186.840275,38.0966 L186.206275,37.1608 L185.571275,36.2476 L184.937275,35.3579 L184.299275,34.4884 L183.671275,33.6643 L183.030275,32.8234 L181.769275,31.263 L180.504275,29.7901 L179.238275,28.4008 L177.970275,27.0995 L176.703275,25.8899 L175.434275,24.7602 L174.161275,23.7141 L172.888275,22.7558 L171.614275,21.8741 L170.332275,21.0728 L169.053275,20.3561 L167.771275,19.7133 L166.482275,19.1485 L165.197275,18.6651 L163.911275,18.253 L162.620275,17.9166 L161.336275,17.6574 L160.053275,17.4663 L158.769275,17.3474 L157.494275,17.2997 L156.225275,17.315 L154.957275,17.3974 L153.701275,17.5427 L152.453275,17.7446 L151.208275,18.0072 L149.976275,18.3256 L148.752275,18.6939 L147.532275,19.115 L146.324275,19.5847 L145.124275,20.0977 L143.928275,20.658 L142.743275,21.2602 L141.565275,21.9 L140.391275,22.5807 L139.226275,23.2974 L138.066275,24.0465 L136.910275,24.8306 L135.754275,25.6509 L134.620275,26.4998 L133.479275,27.3545 L132.343275,28.2654 L131.211275,29.1731 L130.084275,30.1295 L128.954275,31.0883 L127.828275,32.1006 L126.728275,33.0905 L125.628275,34.0802 L124.501275,35.0939 L123.379275,36.1636 L122.282275,37.2094 L121.186275,38.2551 L120.076275,39.3128 L118.971275,40.3978 L117.878275,41.4708 L116.786275,42.544 L115.689275,43.6174 L114.593275,44.6934 L113.502275,45.7653 L112.411275,46.831 L111.323275,47.892 L110.235275,48.939 L109.150275,49.984 L108.065275,51.01 L106.981275,52.0298 L105.898275,53.0225 L104.820275,54.0117 L103.740275,54.9646 L102.654275,55.9163 L101.581275,56.8307 L100.506275,57.724 L99.4362746,58.5951 L98.3742746,59.4467 L97.3162746,60.2678 L96.2612746,61.0591 L95.2092746,61.8219 L94.1682746,62.5548 L93.1282746,63.2532 L92.0922746,63.9173 L91.0632746,64.5407 L90.0362746,65.124 L89.0142746,65.669 L88.0002746,66.1686 L86.9892746,66.625 L85.9842746,67.0394 L84.9892746,67.4036 L83.9962746,67.7212 L83.0092746,67.9943 L82.0352746,68.2161 L81.0612746,68.388 L80.0932746,68.5105 L79.1362746,68.5802 L78.1812746,68.5971 L77.1962746,68.5617 L76.2662746,68.4673 L75.3662746,68.3145 L74.4982746,68.1124 L73.6712746,67.8594 L72.8662746,67.552 L72.0842746,67.1986 L71.3342746,66.7965 L70.6012746,66.3395 L69.8872746,65.8372 L69.1982746,65.2894 L68.5232746,64.688 L67.8642746,64.0419 L67.2282746,63.3521 L66.6072746,62.6106 L66.0012746,61.827 L65.4182746,61.0028 L64.8492746,60.1312 L64.2982746,59.2215 L63.7672746,58.2755 L63.2532746,57.288 L62.7552746,56.2674 L62.2772746,55.2158 L61.8192746,54.1437 L61.3732746,53.0022 L60.9332746,51.8755 L60.5302746,50.7017 L60.1212746,49.5226 L59.7472746,48.3051 L59.3692746,47.0784 L59.0212746,45.8234 L58.6712746,44.5676 L58.3522746,43.2883 L58.0312746,42.0038 L57.7382746,40.7039 L57.4412746,39.3972 L57.1672746,38.0838 L56.8922746,36.7687 L56.6392746,35.4531 L56.3862746,34.133 L56.1512746,32.8208 L55.9152746,31.5032 L55.6952746,30.1992 L55.4752746,28.893 L55.2712746,27.6089 L55.0662746,26.3202 L54.8742746,25.0622 L54.6812746,23.799 L54.4952746,22.5622 L54.3132746,21.3424 L54.1342746,20.143 L53.9582746,18.9637 L53.7832746,17.8079 L53.6122746,16.6778 L53.4422746,15.572 L53.2712746,14.4943 L53.1002746,13.4478 L52.9262746,12.4299 L52.7502746,11.4436 L52.5712746,10.4929 L52.3872746,9.5737 L52.1972746,8.6886 L52.0002746,7.8424 L51.7942746,7.0289 L51.5762746,6.2484 L51.3452746,5.5074 L51.0972746,4.7961 L50.8232746,4.11 L50.5222746,3.4586 L50.1792746,2.8267 L49.7702746,2.2038 L49.2852746,1.6129 L48.6862746,1.049 L47.9162746,0.5376 L47.0152746,0.1723 L46.0172746,0 L44.9882746,0.0587 L44.0782746,0.3081 L43.2832746,0.6803 L42.5772746,1.1478 L41.9602746,1.6673 L41.3922746,2.2362 L40.8452746,2.87 L40.3382746,3.5302 L40.0562746,3.9258 L39.7922746,4.3128 L39.5302746,4.7155 L39.2662746,5.1352 L38.9992746,5.5762 L38.7302746,6.0352 L38.4602746,6.5131 L38.1862746,7.014 L37.9092746,7.5347 L37.6292746,8.0752 L37.3442746,8.6392 L37.0552746,9.2246 L36.7622746,9.8308 L36.4632746,10.4615 L36.1602746,11.1149 L35.8492746,11.789 L35.5262746,12.4853 L35.1962746,13.2055 L34.8622746,13.9485 L34.5212746,14.7175 L34.1742746,15.5116 L33.8212746,16.3291 L33.4552746,17.1713 L33.0712746,18.0343 L32.8072746,18.635 L32.5242746,19.2852 L32.2222746,19.981 L31.9042746,20.716 L31.5652746,21.4915 L31.2102746,22.3056 L30.8462746,23.1543 L30.4642746,24.0332 L30.0632746,24.9404 L29.6452746,25.8692 L29.2102746,26.8169 L28.7632746,27.7753 L28.2842746,28.7699 L27.8142746,29.7478 L27.3052746,30.7448 L26.8022746,31.7326 L26.2642746,32.7246 L25.7222746,33.7274 L25.1722746,34.6947 L24.6032746,35.6566 L24.0182746,36.6032 L23.4202746,37.5292 L22.8122746,38.426 L22.1902746,39.296 L21.5592746,40.1347 L20.9222746,40.9312 L20.2752746,41.6914 L19.6242746,42.4099 L18.9732746,43.0741 L18.3152746,43.6908 L17.6582746,44.2565 L17.0122746,44.7589 L16.3642746,45.2077 L15.7242746,45.6006 L15.1042746,45.9263 L14.4842746,46.1968 L13.8762746,46.4138 L13.2912746,46.5691 L12.6132746,46.6858 L12.3972746,46.7063 L12.1082746,46.7255 L11.8072746,46.7315 L11.5052746,46.7252 L11.2062746,46.705 L10.8942746,46.6692 L10.5762746,46.6196 L10.2592746,46.5552 L9.9252746,46.4717 L9.5832746,46.372 L9.2382746,46.255 L8.8762746,46.1149 L8.5042746,45.9552 L8.1282746,45.7755 L7.7342746,45.5685 L7.3292746,45.3388 L6.9192746,45.086 L6.4392746,44.7674 C4.5012746,43.5175 1.9172746,44.0752 0.667274602,46.0132 C-0.582725398,47.9512 -0.0257253983,50.5357 1.9132746,51.7855 Z" id="Fill-40"></path>
            <path d="M173.318275,21.042 L174.363275,22.0473 L175.329275,23.068 L176.286275,24.1439 L177.251275,25.2523 L178.244275,26.3755 L179.092275,27.6247 L179.927275,28.8992 L180.740275,30.198 L181.526275,31.5203 L182.308275,32.8468 L183.117275,34.1548 L183.954275,35.4245 L184.984275,36.9276 L185.992275,38.4308 L186.945275,39.9667 L187.861275,41.5197 L188.832275,43.0426 L189.781275,44.5775 L190.667275,46.1475 L191.534275,47.7237 L192.354275,49.325 L193.160275,50.9302 L193.912275,52.5639 L194.671275,54.2149 C194.918275,54.7645 195.563275,55.0103 196.113275,54.7636 C196.663275,54.517 196.908275,53.8715 196.662275,53.3218 L195.933275,51.6569 L195.197275,49.9749 L194.406275,48.3196 L193.629275,46.6604 L192.808275,45.0226 L192.006275,43.3786 L191.199275,41.735 L190.414275,40.0792 L189.515275,38.4849 L188.654275,36.8733 L187.808275,35.2516 L186.983275,33.6298 L186.283275,32.2999 L185.558275,30.9655 L184.800275,29.6236 L184.029275,28.2677 L183.258275,26.8926 L182.469275,25.5149 L181.647275,24.1452 L180.911275,22.7013 L180.075275,21.3117 L179.156275,19.9662 L178.154275,18.6648 L177.126275,17.4644 C176.138275,16.4129 174.485275,16.3614 173.433275,17.3493 C172.382275,18.3373 172.330275,19.9906 173.318275,21.042 Z" id="Fill-138"></path>
            <path d="M167.052275,31.3729 L168.013275,31.9033 L168.950275,32.4184 L169.883275,32.9456 L170.821275,33.4657 L171.766275,33.9824 L172.751275,34.4492 L173.660275,35.0297 L174.546275,35.6393 L175.427275,36.2586 L176.303275,36.8834 L177.151275,37.5452 L177.999275,38.2099 L178.835275,38.8887 L179.683275,39.5513 L180.526275,40.2189 L181.382275,40.8742 L182.222275,41.5487 L183.056275,42.2346 L183.860275,42.9534 L184.650275,43.6835 L185.403275,44.45 L186.175275,45.1973 L186.967275,45.9273 L187.741275,46.689 L188.916275,47.9207 L190.060275,49.1508 L191.141275,50.4326 L192.184275,51.6875 L193.053275,53.0705 L193.963275,54.5136 C194.279275,55.0265 194.951275,55.1863 195.463275,54.8704 C195.977275,54.5545 196.136275,53.8825 195.820275,53.3694 L194.941275,51.9081 L194.022275,50.3865 L192.921275,48.9926 L191.859275,47.6255 L190.736275,46.3037 L189.643275,44.9834 L188.944275,44.1275 L188.263275,43.2399 L187.515275,42.4113 L186.747275,41.6018 L185.970275,40.7979 L185.207275,39.9826 L184.435275,39.1727 L183.669275,38.3516 L182.879275,37.5534 L182.075275,36.7676 L181.237275,36.0194 L180.388275,35.2875 L179.518275,34.5802 L178.648275,33.87 L177.772275,33.1659 L176.900275,32.4563 L176.003275,31.7803 L175.129275,31.0751 L174.304275,30.2958 L173.439275,29.5664 L172.541275,28.8842 L171.638275,28.209 L170.714275,27.5657 L169.814275,26.9375 C168.589275,26.1749 166.978275,26.5497 166.215275,27.7746 C165.453275,28.9994 165.827275,30.6105 167.052275,31.3729 Z" id="Fill-139"></path>
            <path d="M183.416275,41.4541 L184.950275,42.4343 L186.250275,43.5813 L187.512275,44.7926 L188.746275,46.0547 L189.962275,47.3589 L191.023275,48.8063 C191.358275,49.3064 192.036275,49.4397 192.536275,49.1038 C193.037275,48.768 193.170275,48.0902 192.834275,47.59 L191.883275,46.0405 L191.036275,44.4038 L190.138275,42.7883 L189.188275,41.1851 L188.170275,39.5933 L187.262275,37.9175 C186.286275,36.8555 184.633275,36.7863 183.571275,37.7628 C182.509275,38.7394 182.440275,40.3921 183.416275,41.4541 Z" id="Fill-140"></path>
        </g>
    </g>
</svg>
