<?xml version="1.0" encoding="UTF-8"?>
<svg width="363px" height="173px" viewBox="0 0 363 173" version="1.1" xmlns="http://www.w3.org/2000/svg" xmlns:xlink="http://www.w3.org/1999/xlink">
    <title>23</title>
    <g id="Page-1" stroke="none" stroke-width="1" fill="none" fill-rule="evenodd">
        <g id="23" transform="translate(0.803000, 0.756000)" fill="currentColor">
            <path d="M34.122,30.496 C59.774,46.214 41.609,91.885 46.884,113.539 C46.926,113.713 48.826,120.897 49.75,121.007 C73.463,123.831 120.807,117.294 149.129,118.286 C159.234,118.641 287.724,123.846 289.949,121.284 C291.667,119.306 291.044,88.439 291.643,84.505 C292.517,78.767 302.657,38.866 297.11,36.225 C288.66,32.204 251.18,35.924 241.633,35.832 C195.043,35.38 122.074,23.101 76.755,34.705" id="Fill-181"></path>
            <path d="M33.117,32.079 L33.879,32.561 L34.584,33.043 L35.265,33.544 L35.921,34.06 L36.549,34.591 L37.153,35.141 L37.735,35.706 L38.291,36.285 L38.825,36.882 L39.338,37.494 L39.827,38.119 L40.296,38.762 L40.745,39.418 L41.172,40.088 L41.58,40.776 L41.969,41.477 L42.338,42.19 L42.688,42.92 L43.021,43.663 L43.335,44.418 L43.631,45.189 L43.911,45.972 L44.173,46.766 L44.414,47.556 L44.865,49.226 L45.246,50.921 L45.566,52.662 L45.834,54.441 L46.047,56.254 L46.209,58.104 L46.326,59.983 L46.399,61.887 L46.43,63.817 L46.427,65.767 L46.389,67.738 L46.355,68.723 L46.321,69.715 L46.275,70.711 L46.228,71.708 L46.17,72.707 L46.111,73.708 L46.043,74.71 L45.975,75.714 L45.899,76.718 L45.824,77.723 L45.742,78.725 L45.66,79.73 L45.574,80.73 L45.488,81.732 L45.399,82.726 L45.31,83.723 L45.221,84.72 L45.132,85.719 L44.958,87.681 L44.785,89.652 L44.632,91.577 L44.48,93.504 L44.35,95.402 L44.241,97.272 L44.158,99.11 L44.101,100.919 L44.077,102.694 L44.092,104.43 L44.144,106.129 L44.242,107.788 L44.39,109.399 L44.588,110.968 L44.846,112.491 L45.159,113.918 L45.19,114.042 L45.226,114.174 L45.278,114.367 L45.345,114.611 L45.427,114.907 L45.523,115.245 L45.631,115.619 L45.75,116.025 L45.879,116.456 L46.017,116.906 L46.162,117.37 L46.323,117.868 L46.971,119.711 L47.714,121.346 L49.168,122.658 L51.088,122.912 L52.692,123.053 L54.35,123.17 L56.056,123.266 L57.815,123.34 L59.622,123.393 L61.472,123.428 L63.367,123.445 L65.305,123.443 L67.277,123.426 L68.286,123.41 L69.292,123.394 L70.317,123.37 L71.341,123.345 L72.38,123.315 L73.42,123.284 L74.475,123.247 L75.531,123.21 L76.601,123.167 L77.67,123.124 L78.752,123.075 L79.834,123.027 L80.929,122.974 L82.023,122.921 L83.128,122.863 L84.234,122.805 L85.354,122.741 L86.47,122.678 L87.586,122.614 L88.706,122.55 L89.841,122.481 L90.973,122.411 L92.105,122.341 L93.24,122.271 L94.385,122.197 L95.527,122.122 L96.67,122.048 L97.814,121.973 L98.964,121.897 L100.112,121.82 L101.26,121.743 L102.409,121.667 L103.559,121.589 L104.709,121.512 L105.858,121.435 L107.008,121.357 L108.153,121.281 L109.299,121.204 L110.445,121.127 L111.59,121.049 L112.727,120.975 L113.866,120.9 L115.004,120.825 L116.14,120.751 L117.264,120.682 L118.39,120.612 L119.516,120.543 L120.638,120.474 L121.742,120.411 L122.85,120.347 L123.958,120.283 L125.063,120.22 L126.153,120.163 L127.243,120.105 L128.321,120.053 L129.399,120 L130.463,119.953 L131.527,119.906 L132.578,119.864 L133.628,119.822 L134.662,119.789 L135.695,119.757 L136.712,119.731 L137.728,119.706 L138.728,119.688 L139.725,119.669 L141.685,119.647 L143.6,119.642 L145.475,119.653 L147.301,119.683 L149.085,119.735 L149.428,119.747 L149.857,119.763 L150.362,119.782 L150.934,119.803 L151.58,119.827 L152.296,119.854 L153.076,119.884 L153.923,119.916 L154.836,119.95 L155.807,119.987 L156.84,120.027 L157.935,120.068 L159.083,120.112 L160.288,120.157 L161.548,120.205 L162.858,120.254 L164.22,120.305 L165.632,120.358 L167.088,120.413 L168.592,120.469 L170.14,120.526 L171.729,120.585 L173.359,120.645 L175.029,120.706 L176.734,120.768 L178.476,120.831 L180.253,120.895 L182.061,120.96 L183.899,121.025 L185.768,121.092 L187.662,121.158 L189.583,121.224 L191.529,121.291 L193.495,121.359 L195.483,121.426 L196.487,121.46 L197.49,121.494 L198.506,121.528 L199.521,121.562 L200.537,121.595 L201.552,121.629 L202.583,121.663 L203.613,121.697 L204.643,121.73 L205.673,121.764 L206.714,121.797 L207.755,121.831 L208.796,121.864 L209.837,121.897 L210.886,121.931 L211.933,121.963 L212.981,121.995 L214.029,122.028 L215.082,122.059 L216.134,122.091 L217.186,122.123 L218.239,122.155 L219.292,122.185 L220.345,122.216 L221.398,122.247 L222.452,122.278 L223.5,122.307 L224.548,122.337 L225.596,122.366 L226.644,122.396 L227.691,122.425 L228.739,122.455 L229.787,122.484 L230.836,122.514 L231.867,122.541 L232.896,122.568 L233.926,122.595 L234.955,122.621 L235.984,122.648 L237.014,122.675 L238.043,122.702 L239.075,122.728 L241.068,122.775 L243.06,122.821 L245.053,122.868 L247.046,122.914 L248.979,122.956 L250.912,122.996 L252.792,123.033 L254.673,123.069 L256.493,123.1 L258.312,123.132 L260.088,123.16 L261.828,123.185 L263.531,123.208 L265.199,123.229 L266.828,123.246 L268.414,123.261 L269.961,123.272 L271.462,123.281 L272.917,123.287 L274.327,123.29 L275.687,123.289 L276.996,123.285 L278.255,123.278 L279.46,123.267 L280.607,123.252 L281.701,123.234 L282.736,123.212 L283.708,123.186 L284.624,123.156 L285.475,123.122 L286.26,123.084 L286.985,123.042 L287.643,122.994 L288.233,122.942 L288.763,122.884 L289.231,122.819 L289.64,122.743 L290.017,122.648 L290.41,122.494 L290.891,122.131 L291.178,121.709 L291.344,121.317 L291.466,120.916 L291.568,120.485 L291.659,120.004 L291.74,119.476 L291.814,118.902 L291.882,118.277 L291.945,117.604 L292.003,116.89 L292.056,116.131 L292.105,115.331 L292.15,114.496 L292.191,113.625 L292.229,112.721 L292.263,111.791 L292.295,110.833 L292.323,109.851 L292.348,108.843 L292.373,107.835 L292.393,106.796 L292.413,105.757 L292.429,104.702 L292.446,103.647 L292.458,102.59 L292.471,101.535 L292.483,100.48 L292.496,99.424 L292.505,98.404 L292.515,97.387 L292.525,96.369 L292.535,95.352 L292.555,93.501 L292.576,91.65 L292.588,90.801 L292.602,89.988 L292.616,89.217 L292.632,88.487 L292.65,87.806 L292.67,87.177 L292.691,86.598 L292.715,86.079 L292.741,85.623 L292.768,85.23 L292.798,84.915 L292.829,84.673 L292.854,84.511 L292.888,84.31 L292.928,84.085 L292.974,83.838 L293.025,83.57 L293.082,83.282 L293.21,82.643 L293.358,81.928 L293.524,81.14 L293.705,80.289 L293.901,79.373 L294.112,78.397 L294.333,77.37 L294.565,76.29 L294.807,75.162 L295.057,73.994 L295.313,72.785 L295.575,71.54 L295.84,70.267 L296.108,68.964 L296.377,67.637 L296.645,66.286 L296.913,64.934 L297.176,63.556 L297.438,62.178 L297.689,60.793 L297.94,59.408 L298.175,58.03 L298.41,56.65 L298.623,55.294 L298.835,53.936 L299.02,52.619 L299.204,51.304 L299.366,50.019 L299.509,48.766 L299.633,47.548 L299.737,46.365 L299.82,45.223 L299.878,44.127 L299.913,43.074 L299.92,42.072 L299.898,41.125 L299.848,40.229 L299.764,39.389 L299.642,38.61 L299.481,37.885 L299.269,37.212 L299.014,36.635 L298.833,36.315 L298.643,36.041 L298.429,35.788 L298.187,35.556 L297.908,35.349 L297.592,35.174 L296.963,34.904 L296.256,34.658 L295.492,34.441 L294.675,34.245 L293.798,34.07 L292.866,33.915 L291.886,33.778 L290.853,33.657 L289.772,33.553 L288.648,33.463 L287.48,33.388 L286.271,33.327 L285.028,33.278 L283.749,33.242 L282.439,33.218 L281.102,33.203 L279.738,33.2 L278.351,33.206 L276.941,33.224 L275.529,33.243 L274.089,33.277 L272.649,33.311 L271.195,33.359 L269.74,33.406 L268.287,33.47 L266.839,33.535 L265.391,33.6 L263.938,33.666 L262.528,33.742 L261.122,33.818 L259.717,33.895 L258.31,33.971 L257.001,34.047 L255.695,34.124 L254.388,34.202 L253.081,34.281 L251.852,34.354 L250.664,34.424 L249.519,34.49 L248.416,34.552 L247.364,34.608 L246.366,34.659 L245.419,34.703 L244.532,34.74 L243.709,34.769 L242.948,34.789 L242.258,34.8 L241.644,34.801 L240.176,34.786 L238.709,34.77 L237.208,34.74 L235.706,34.709 L234.172,34.665 L232.637,34.621 L231.074,34.565 L229.511,34.508 L227.919,34.439 L226.326,34.37 L224.705,34.291 L223.083,34.211 L221.438,34.122 L219.792,34.034 L218.122,33.936 L216.451,33.838 L214.757,33.731 L213.063,33.625 L211.348,33.513 L209.634,33.4 L207.899,33.282 L206.164,33.163 L204.41,33.04 L202.656,32.916 L200.886,32.788 L199.116,32.66 L197.33,32.53 L195.544,32.4 L193.744,32.267 L191.943,32.135 L190.131,32.001 L188.319,31.867 L186.495,31.734 L184.671,31.6 L182.838,31.468 L181.004,31.335 L179.159,31.206 L177.316,31.076 L175.472,30.947 L173.626,30.818 L171.77,30.696 L169.916,30.575 L168.062,30.454 L166.204,30.333 L164.343,30.224 L162.485,30.115 L160.627,30.006 L158.765,29.897 L156.905,29.803 L155.048,29.709 L153.192,29.614 L151.33,29.519 L149.477,29.444 L147.628,29.369 L145.778,29.294 L143.924,29.219 L142.083,29.168 L140.248,29.118 L138.413,29.067 L136.574,29.016 L134.748,28.984 L132.922,28.952 L131.108,28.935 L129.293,28.918 L127.492,28.917 L125.691,28.916 L123.903,28.93 L122.114,28.945 L120.341,28.978 L118.568,29.01 L116.812,29.062 L115.057,29.114 L113.319,29.184 L111.58,29.254 L109.861,29.345 L108.142,29.437 L106.446,29.55 L104.749,29.664 L103.074,29.798 L101.398,29.933 L99.747,30.091 L98.095,30.25 L96.47,30.434 L94.845,30.618 L93.246,30.825 L91.646,31.033 L90.075,31.268 L88.504,31.503 L86.964,31.767 L85.424,32.03 L83.914,32.32 L82.402,32.61 L80.925,32.93 L79.447,33.251 L78.004,33.602 L76.572,33.952 C76.156,34.053 75.901,34.472 76.002,34.888 C76.103,35.304 76.522,35.559 76.938,35.458 L78.371,35.111 L79.794,34.766 L81.254,34.453 L82.713,34.139 L84.207,33.855 L85.702,33.571 L87.227,33.313 L88.751,33.055 L90.307,32.825 L91.863,32.595 L93.448,32.392 L95.035,32.189 L96.647,32.009 L98.259,31.829 L99.897,31.675 L101.536,31.52 L103.2,31.389 L104.865,31.259 L106.551,31.149 L108.237,31.039 L109.945,30.951 L111.653,30.864 L113.382,30.797 L115.112,30.73 L116.859,30.681 L118.605,30.633 L120.37,30.604 L122.134,30.574 L123.915,30.563 L125.696,30.551 L127.49,30.555 L129.284,30.559 L131.091,30.579 L132.898,30.599 L134.717,30.635 L136.535,30.67 L138.366,30.724 L140.201,30.778 L142.036,30.832 L143.865,30.886 L145.709,30.965 L147.558,31.043 L149.407,31.122 L151.252,31.201 L153.104,31.299 L154.96,31.399 L156.817,31.498 L158.67,31.598 L160.524,31.712 L162.382,31.826 L164.24,31.94 L166.095,32.054 L167.946,32.181 L169.8,32.308 L171.654,32.434 L173.506,32.561 L175.347,32.695 L177.19,32.83 L179.033,32.964 L180.876,33.099 L182.707,33.237 L184.54,33.375 L186.362,33.514 L188.185,33.653 L189.996,33.792 L191.808,33.931 L193.608,34.07 L195.408,34.209 L197.194,34.345 L198.98,34.483 L200.751,34.617 L202.521,34.751 L204.276,34.881 L206.032,35.012 L207.768,35.139 L209.505,35.265 L211.221,35.385 L212.938,35.506 L214.634,35.62 L216.332,35.734 L218.005,35.84 L219.68,35.948 L221.329,36.046 L222.978,36.144 L224.604,36.233 L226.23,36.323 L227.828,36.401 L229.427,36.479 L230.996,36.546 L232.566,36.613 L234.107,36.669 L235.649,36.725 L237.159,36.767 L238.67,36.808 L240.147,36.835 L241.622,36.862 L242.269,36.866 L242.984,36.859 L243.764,36.845 L244.602,36.824 L245.501,36.796 L246.457,36.762 L247.463,36.721 L248.522,36.676 L249.629,36.625 L250.778,36.571 L251.969,36.513 L253.2,36.453 L254.507,36.388 L255.815,36.324 L257.122,36.258 L258.427,36.191 L259.831,36.125 L261.236,36.059 L262.642,35.992 L264.042,35.926 L265.485,35.871 L266.934,35.815 L268.382,35.761 L269.825,35.704 L271.269,35.658 L272.714,35.611 L274.143,35.578 L275.571,35.545 L276.97,35.527 L278.37,35.51 L279.74,35.504 L281.086,35.509 L282.404,35.523 L283.694,35.548 L284.95,35.585 L286.167,35.633 L287.347,35.693 L288.482,35.767 L289.569,35.854 L290.609,35.954 L291.592,36.069 L292.517,36.2 L293.383,36.344 L294.18,36.503 L294.906,36.678 L295.561,36.865 L296.13,37.063 L296.627,37.277 L296.648,37.29 L296.686,37.319 L296.74,37.371 L296.804,37.447 L296.872,37.546 L296.93,37.644 L297.101,38.024 L297.242,38.476 L297.365,39.035 L297.465,39.679 L297.537,40.407 L297.582,41.214 L297.601,42.087 L297.593,43.025 L297.559,44.025 L297.503,45.076 L297.422,46.178 L297.319,47.326 L297.196,48.513 L297.053,49.738 L296.893,50.994 L296.708,52.293 L296.525,53.591 L296.312,54.929 L296.099,56.27 L295.864,57.634 L295.629,59 L295.377,60.373 L295.126,61.747 L294.863,63.114 L294.6,64.481 L294.331,65.825 L294.061,67.17 L293.791,68.489 L293.522,69.785 L293.256,71.053 L292.993,72.293 L292.735,73.497 L292.484,74.662 L292.24,75.788 L292.006,76.866 L291.783,77.893 L291.57,78.87 L291.372,79.788 L291.188,80.643 L291.019,81.438 L290.868,82.162 L290.736,82.811 L290.676,83.113 L290.622,83.393 L290.574,83.654 L290.53,83.897 L290.491,84.121 L290.457,84.338 L290.416,84.652 L290.379,85.033 L290.347,85.467 L290.318,85.953 L290.291,86.495 L290.267,87.091 L290.245,87.734 L290.224,88.426 L290.206,89.164 L290.188,89.941 L290.172,90.76 L290.157,91.616 L290.13,93.47 L290.103,95.322 L290.09,96.341 L290.077,97.359 L290.063,98.377 L290.05,99.393 L290.034,100.446 L290.017,101.501 L290.001,102.556 L289.985,103.609 L289.965,104.659 L289.945,105.71 L289.921,106.743 L289.897,107.776 L289.869,108.777 L289.84,109.779 L289.808,110.751 L289.773,111.699 L289.735,112.618 L289.694,113.509 L289.65,114.364 L289.602,115.181 L289.551,115.961 L289.497,116.695 L289.438,117.381 L289.376,118.019 L289.31,118.599 L289.24,119.119 L289.168,119.577 L289.094,119.96 L289.022,120.26 L288.959,120.469 L288.929,120.543 L289.006,120.437 L289.271,120.23 L289.283,120.221 L289.115,120.261 L288.835,120.312 L288.457,120.362 L287.99,120.411 L287.446,120.457 L286.826,120.499 L286.13,120.537 L285.368,120.57 L284.537,120.6 L283.638,120.625 L282.68,120.647 L281.658,120.664 L280.575,120.677 L279.437,120.686 L278.242,120.692 L276.99,120.694 L275.688,120.692 L274.335,120.687 L272.93,120.678 L271.481,120.666 L269.984,120.651 L268.442,120.632 L266.86,120.611 L265.235,120.586 L263.571,120.559 L261.871,120.528 L260.134,120.495 L258.362,120.46 L256.545,120.42 L254.728,120.381 L252.85,120.336 L250.973,120.292 L249.042,120.244 L247.112,120.196 L245.121,120.142 L243.129,120.088 L241.137,120.035 L239.146,119.981 L238.119,119.951 L237.09,119.921 L236.061,119.891 L235.031,119.861 L234.002,119.831 L232.973,119.801 L231.943,119.771 L230.915,119.741 L229.869,119.709 L228.821,119.676 L227.774,119.643 L226.726,119.61 L225.678,119.578 L224.631,119.545 L223.583,119.512 L222.536,119.48 L221.484,119.446 L220.432,119.412 L219.379,119.378 L218.327,119.344 L217.275,119.309 L216.223,119.274 L215.171,119.239 L214.12,119.204 L213.073,119.169 L212.025,119.133 L210.977,119.098 L209.93,119.063 L208.89,119.028 L207.849,118.993 L206.808,118.958 L205.768,118.922 L204.738,118.887 L203.708,118.852 L202.678,118.816 L201.649,118.781 L200.634,118.745 L199.619,118.71 L198.603,118.674 L197.588,118.638 L196.585,118.603 L195.582,118.568 L193.595,118.497 L191.629,118.427 L189.685,118.356 L187.765,118.287 L185.871,118.218 L184.003,118.15 L182.165,118.083 L180.358,118.017 L178.582,117.951 L176.84,117.887 L175.135,117.823 L173.466,117.761 L171.836,117.7 L170.248,117.64 L168.7,117.582 L167.197,117.525 L165.741,117.47 L164.329,117.416 L162.968,117.365 L161.658,117.314 L160.398,117.266 L159.193,117.22 L158.045,117.176 L156.951,117.134 L155.917,117.094 L154.946,117.057 L154.033,117.022 L153.186,116.989 L152.406,116.959 L151.69,116.932 L151.043,116.907 L150.47,116.886 L149.964,116.867 L149.533,116.851 L149.173,116.838 L147.37,116.784 L145.513,116.747 L143.612,116.727 L141.672,116.722 L139.692,116.734 L138.68,116.748 L137.671,116.762 L136.646,116.782 L135.62,116.803 L134.577,116.83 L133.535,116.856 L132.476,116.886 L131.418,116.916 L130.347,116.951 L129.276,116.987 L128.191,117.028 L127.106,117.068 L126.009,117.114 L124.911,117.16 L123.799,117.211 L122.69,117.262 L121.581,117.314 L120.468,117.366 L119.337,117.425 L118.211,117.485 L117.084,117.544 L115.954,117.604 L114.812,117.669 L113.672,117.733 L112.533,117.798 L111.392,117.862 L110.243,117.93 L109.097,117.997 L107.95,118.065 L106.802,118.134 L105.651,118.204 L104.501,118.274 L103.35,118.345 L102.201,118.415 L101.052,118.485 L99.904,118.554 L98.755,118.624 L97.608,118.694 L96.466,118.761 L95.323,118.828 L94.18,118.896 L93.04,118.964 L91.91,119.027 L90.778,119.091 L89.645,119.155 L88.517,119.218 L87.405,119.275 L86.289,119.332 L85.172,119.389 L84.06,119.447 L82.96,119.498 L81.861,119.551 L80.772,119.598 L79.685,119.646 L78.609,119.689 L77.534,119.732 L76.472,119.77 L75.41,119.807 L74.363,119.839 L73.317,119.871 L72.287,119.897 L71.257,119.922 L70.243,119.942 L69.23,119.961 L68.236,119.974 L67.244,119.986 L65.295,119.996 L63.387,119.991 L61.525,119.968 L59.712,119.927 L57.945,119.869 L56.233,119.791 L54.576,119.692 L52.973,119.573 L51.434,119.432 L50.332,119.355 L50.731,119.562 L50.24,118.431 L49.649,116.726 L49.517,116.309 L49.381,115.871 L49.252,115.442 L49.13,115.029 L49.017,114.641 L48.916,114.282 L48.825,113.957 L48.747,113.675 L48.684,113.443 L48.636,113.262 L48.605,113.146 L48.608,113.16 L48.318,111.823 L48.092,110.457 L47.916,109.022 L47.784,107.528 L47.698,105.976 L47.655,104.367 L47.646,102.709 L47.674,101.004 L47.733,99.252 L47.82,97.462 L47.931,95.634 L48.064,93.773 L48.22,91.866 L48.376,89.957 L48.553,88.003 L48.731,86.042 L48.822,85.046 L48.913,84.049 L49.004,83.052 L49.096,82.052 L49.185,81.045 L49.274,80.037 L49.359,79.024 L49.444,78.011 L49.523,76.995 L49.602,75.979 L49.673,74.961 L49.745,73.942 L49.806,72.924 L49.868,71.903 L49.918,70.886 L49.968,69.867 L50.005,68.853 L50.043,67.831 L50.086,65.809 L50.094,63.795 L50.066,61.792 L49.994,59.802 L49.876,57.834 L49.71,55.884 L49.488,53.956 L49.206,52.058 L48.866,50.186 L48.456,48.343 L47.979,46.558 L47.706,45.651 L47.417,44.771 L47.109,43.903 L46.781,43.044 L46.431,42.196 L46.059,41.361 L45.666,40.537 L45.248,39.725 L44.808,38.928 L44.345,38.143 L43.855,37.371 L43.342,36.616 L42.805,35.876 L42.239,35.149 L41.648,34.442 L41.033,33.75 L40.387,33.075 L39.716,32.42 L39.019,31.783 L38.291,31.164 L37.536,30.567 L36.755,29.99 L35.942,29.432 L35.127,28.913 C34.252,28.358 33.094,28.617 32.539,29.491 C31.984,30.366 32.243,31.524 33.117,32.079 Z" id="Fill-182"></path>
            <path d="M12.177,138.303 C114.484,134.962 217.318,128.432 319.461,132.013" id="Fill-183"></path>
            <path d="M12.24,140.177 L13.839,140.119 L15.438,140.061 L17.036,140.003 L18.635,139.945 L20.234,139.887 L21.833,139.83 L23.431,139.772 L25.032,139.714 L26.634,139.652 L28.233,139.591 L29.832,139.529 L31.432,139.468 L33.031,139.407 L34.63,139.345 L36.23,139.284 L37.831,139.222 L39.432,139.158 L41.032,139.094 L42.632,139.03 L44.232,138.965 L45.832,138.9 L47.432,138.835 L49.032,138.77 L50.632,138.704 L52.234,138.636 L53.834,138.567 L55.434,138.499 L57.035,138.431 L58.635,138.363 L60.235,138.294 L61.836,138.226 L63.437,138.158 L65.038,138.089 L66.639,138.019 L68.239,137.949 L69.84,137.877 L71.441,137.806 L73.041,137.734 L74.642,137.662 L76.243,137.589 L77.844,137.516 L79.445,137.443 L81.046,137.368 L82.647,137.294 L84.248,137.22 L85.849,137.146 L87.449,137.067 L89.05,136.988 L90.651,136.909 L92.252,136.831 L93.853,136.748 L95.454,136.666 L97.055,136.584 L98.656,136.504 L100.257,136.432 L101.859,136.36 L103.46,136.288 L105.062,136.22 L106.663,136.155 L108.265,136.091 L109.866,136.027 L111.468,135.962 L113.07,135.898 L114.67,135.834 L116.271,135.772 L117.873,135.711 L119.475,135.649 L121.077,135.587 L122.679,135.525 L124.28,135.463 L125.883,135.4 L127.484,135.337 L129.086,135.274 L130.688,135.21 L132.29,135.147 L133.892,135.084 L135.494,135.02 L137.096,134.955 L138.698,134.889 L140.297,134.824 L141.896,134.765 L143.498,134.706 L145.1,134.647 L146.702,134.588 L148.304,134.529 L149.905,134.469 L151.507,134.409 L153.109,134.349 L154.711,134.288 L156.313,134.227 L157.915,134.166 L159.517,134.105 L161.118,134.043 L162.72,133.982 L164.322,133.921 L165.921,133.86 L167.521,133.805 L169.123,133.75 L170.724,133.694 L172.326,133.639 L173.928,133.584 L175.53,133.529 L177.131,133.473 L178.731,133.419 L180.331,133.37 L181.932,133.322 L183.534,133.273 L185.135,133.225 L186.737,133.177 L188.339,133.128 L189.94,133.08 L191.54,133.034 L193.139,132.995 L194.74,132.955 L196.342,132.916 L197.943,132.876 L199.545,132.837 L201.146,132.797 L202.748,132.758 L204.347,132.719 L205.946,132.685 L207.547,132.652 L209.148,132.619 L210.749,132.588 L212.351,132.556 L213.952,132.525 L215.553,132.494 L217.152,132.463 L218.75,132.44 L220.351,132.416 L221.952,132.393 L223.552,132.37 L225.153,132.346 L226.754,132.323 L228.355,132.292 L229.953,132.258 L231.55,132.232 L233.15,132.207 L234.75,132.176 L236.351,132.144 L237.951,132.113 L239.551,132.081 L241.152,132.055 L242.749,132.028 L244.347,132.01 L245.947,131.992 L247.546,131.977 L249.146,131.961 L250.746,131.946 L252.346,131.931 L253.946,131.918 L255.543,131.905 L257.14,131.901 L258.739,131.898 L260.338,131.897 L261.938,131.894 L263.537,131.892 L265.137,131.891 L266.736,131.89 L268.332,131.889 L269.928,131.899 L271.527,131.908 L273.126,131.918 L274.724,131.928 L276.323,131.938 L277.922,131.948 L279.521,131.957 L281.117,131.967 L282.712,131.987 L284.31,132.009 L285.908,132.03 L287.506,132.051 L289.105,132.073 L290.703,132.095 L292.301,132.117 L293.896,132.139 L295.49,132.173 L297.087,132.207 L298.685,132.241 L300.282,132.275 L301.879,132.31 L303.477,132.344 L305.074,132.378 L306.668,132.412 L308.261,132.459 L309.858,132.506 L311.454,132.553 L313.051,132.6 L314.647,132.647 L316.244,132.694 L317.84,132.741 L319.437,132.788 C319.865,132.801 320.222,132.465 320.236365,132.037 C320.249,131.61 319.913,131.252 319.485,131.239 L317.889,131.186 L316.293,131.133 L314.696,131.08 L313.1,131.027 L311.504,130.975 L309.907,130.922 L308.311,130.869 L306.712,130.816 L305.111,130.776 L303.514,130.736 L301.917,130.697 L300.319,130.657 L298.722,130.617 L297.125,130.577 L295.528,130.537 L293.928,130.497 L292.327,130.469 L290.728,130.441 L289.13,130.413 L287.532,130.385 L285.934,130.356 L284.336,130.328 L282.739,130.3 L281.138,130.27 L279.536,130.25 L277.938,130.231 L276.339,130.211 L274.74,130.191 L273.142,130.172 L271.543,130.152 L269.944,130.133 L268.343,130.113 L266.74,130.104 L265.141,130.095 L263.542,130.086 L261.942,130.076 L260.343,130.065 L258.744,130.055 L257.144,130.044 L255.542,130.033 L253.939,130.032 L252.339,130.03 L250.739,130.027 L249.139,130.023 L247.539,130.019 L245.939,130.015 L244.339,130.009 L242.737,130.003 L241.134,130.004 L239.533,130.006 L237.932,130.003 L236.332,129.999 L234.731,129.996 L233.131,129.993 L231.53,129.996 L229.927,129.998 L228.323,130.009 L226.722,130.023 L225.121,130.045 L223.52,130.067 L221.919,130.088 L220.318,130.11 L218.717,130.131 L217.114,130.153 L215.51,130.182 L213.908,130.211 L212.307,130.24 L210.706,130.269 L209.105,130.297 L207.503,130.325 L205.902,130.352 L204.298,130.379 L202.694,130.412 L201.093,130.445 L199.491,130.479 L197.89,130.512 L196.288,130.545 L194.686,130.578 L193.085,130.611 L191.481,130.645 L189.877,130.683 L188.275,130.72 L186.673,130.757 L185.071,130.794 L183.469,130.831 L181.867,130.867 L180.265,130.903 L178.661,130.94 L177.057,130.981 L175.455,131.022 L173.853,131.062 L172.25,131.103 L170.648,131.143 L169.046,131.184 L167.444,131.224 L165.839,131.265 L164.234,131.311 L162.632,131.358 L161.03,131.405 L159.427,131.451 L157.825,131.498 L156.223,131.544 L154.62,131.591 L153.018,131.637 L151.416,131.686 L149.813,131.733 L148.211,131.782 L146.609,131.83 L145.007,131.879 L143.404,131.928 L141.802,131.976 L140.197,132.025 L138.592,132.081 L136.99,132.136 L135.388,132.191 L133.785,132.248 L132.183,132.305 L130.581,132.363 L128.979,132.42 L127.377,132.478 L125.775,132.536 L124.172,132.593 L122.57,132.651 L120.968,132.71 L119.366,132.769 L117.764,132.828 L116.162,132.887 L114.558,132.947 L112.955,133.009 L111.353,133.072 L109.752,133.135 L108.15,133.198 L106.548,133.26 L104.947,133.323 L103.345,133.382 L101.743,133.437 L100.14,133.492 L98.539,133.547 L96.936,133.595 L95.334,133.639 L93.731,133.684 L92.129,133.729 L90.526,133.777 L88.924,133.826 L87.322,133.875 L85.72,133.925 L84.118,133.979 L82.516,134.033 L80.915,134.086 L79.313,134.141 L77.711,134.196 L76.11,134.25 L74.509,134.305 L72.907,134.36 L71.306,134.415 L69.705,134.471 L68.103,134.527 L66.502,134.584 L64.901,134.641 L63.301,134.699 L61.701,134.755 L60.1,134.812 L58.499,134.868 L56.898,134.924 L55.298,134.98 L53.697,135.037 L52.096,135.093 L50.496,135.149 L48.897,135.204 L47.297,135.26 L45.697,135.315 L44.096,135.371 L42.496,135.427 L40.896,135.484 L39.296,135.54 L37.697,135.597 L36.099,135.65 L34.499,135.704 L32.9,135.758 L31.3,135.812 L29.7,135.866 L28.101,135.919 L26.501,135.973 L24.903,136.027 L23.306,136.077 L21.707,136.127 L20.108,136.178 L18.509,136.228 L16.911,136.278 L15.312,136.328 L13.713,136.379 L12.114,136.429 C11.079,136.464 10.268,137.331 10.3019084,138.366 C10.338,139.401 11.205,140.212 12.24,140.177 Z" id="Fill-184"></path>
            <path d="M19.1,146.689 C117.152,122.649 236.85,142.301 337.243,145.821" id="Fill-185"></path>
            <path d="M19.538,148.512 L21.073,148.139 L22.598,147.769 L24.131,147.413 L25.664,147.057 L27.204,146.715 L28.744,146.373 L30.291,146.044 L31.838,145.714 L33.391,145.399 L34.944,145.083 L36.504,144.781 L38.065,144.479 L39.632,144.189 L41.198,143.899 L42.771,143.622 L44.343,143.345 L45.922,143.081 L47.502,142.817 L49.087,142.564 L50.671,142.311 L52.262,142.071 L53.853,141.83 L55.449,141.601 L57.046,141.373 L58.648,141.154 L60.249,140.935 L61.857,140.728 L63.464,140.521 L65.076,140.325 L66.69,140.13 L68.308,139.945 L69.925,139.76 L71.548,139.586 L73.171,139.412 L74.798,139.25 L76.426,139.086 L78.059,138.931 L79.691,138.777 L81.328,138.633 L82.965,138.488 L84.606,138.353 L86.248,138.218 L87.894,138.092 L89.539,137.965 L91.189,137.849 L92.839,137.732 L94.493,137.625 L96.145,137.514 L97.802,137.416 L99.466,137.317 L101.13,137.218 L102.785,137.116 L104.447,137.032 L106.118,136.948 L107.789,136.864 L109.453,136.79 L111.123,136.734 L112.801,136.678 L114.479,136.623 L116.15,136.575 L117.827,136.541 L119.511,136.508 L121.195,136.474 L122.871,136.441 L124.553,136.423 L126.242,136.406 L127.931,136.388 L129.614,136.37 L131.301,136.366 L132.995,136.364 L134.689,136.359 L136.377,136.355 L138.069,136.364 L139.767,136.372 L141.464,136.38 L143.156,136.389 L144.852,136.41 L146.553,136.431 L148.254,136.451 L149.951,136.471 L151.65,136.503 L153.354,136.535 L155.059,136.567 L156.759,136.599 L158.461,136.642 L160.168,136.684 L161.875,136.726 L163.577,136.768 L165.282,136.82 L166.991,136.872 L168.699,136.923 L170.404,136.974 L172.111,137.036 L173.821,137.097 L175.531,137.159 L177.238,137.22 L178.946,137.29 L180.657,137.36 L182.368,137.43 L184.075,137.5 L185.783,137.578 L187.495,137.656 L189.206,137.735 L190.914,137.813 L192.622,137.9 L194.333,137.987 L196.044,138.074 L197.753,138.162 L199.46,138.256 L201.17,138.349 L202.88,138.443 L204.588,138.539 L206.294,138.641 L208.002,138.743 L209.711,138.845 L211.417,138.948 L213.122,139.055 L214.828,139.162 L216.534,139.27 L218.239,139.377 L219.939,139.49 L221.641,139.602 L223.344,139.716 L225.046,139.831 L226.748,139.945 L228.45,140.06 L230.153,140.175 L231.853,140.29 L233.546,140.41 L235.24,140.531 L236.935,140.651 L238.63,140.771 L240.325,140.892 L242.02,141.009 L243.715,141.118 L245.41,141.228 L247.095,141.339 L248.78,141.447 L250.467,141.552 L252.152,141.657 L253.838,141.762 L255.524,141.871 L257.21,141.981 L258.895,142.092 L260.573,142.201 L262.25,142.314 L263.928,142.426 L265.605,142.539 L267.276,142.65 L268.947,142.763 L270.617,142.876 L272.289,142.989 L273.952,143.1 L275.615,143.212 L277.279,143.324 L278.942,143.436 L280.599,143.545 L282.255,143.656 L283.911,143.766 L285.568,143.876 L287.217,143.982 L288.864,144.088 L290.512,144.194 L292.161,144.3 L293.8,144.401 L295.439,144.502 L297.078,144.604 L298.717,144.705 L300.348,144.802 L301.978,144.899 L303.608,144.996 L305.24,145.094 L306.861,145.185 L308.481,145.276 L310.1,145.367 L311.722,145.459 L313.333,145.542 L314.942,145.626 L316.551,145.71 L318.162,145.793 L319.762,145.87 L321.361,145.946 L322.96,146.022 L324.561,146.098 L326.15,146.166 L327.737,146.233 L329.324,146.3 L330.913,146.367 L332.49,146.424 L334.065,146.481 L335.639,146.538 L337.214,146.595 C337.642,146.611 338.001,146.278 338.018552,145.85 C338.034,145.422 337.7,145.063 337.273,145.046 L335.698,144.984 L334.124,144.921 L332.55,144.859 L330.978,144.796 L329.393,144.724 L327.806,144.651 L326.22,144.579 L324.635,144.506 L323.039,144.424 L321.44,144.343 L319.842,144.261 L318.245,144.179 L316.638,144.09 L315.029,144.001 L313.42,143.911 L311.813,143.822 L310.196,143.725 L308.576,143.628 L306.957,143.532 L305.339,143.435 L303.711,143.331 L302.082,143.227 L300.452,143.123 L298.824,143.019 L297.187,142.908 L295.549,142.797 L293.911,142.686 L292.274,142.575 L290.629,142.46 L288.982,142.344 L287.335,142.228 L285.689,142.112 L284.034,141.992 L282.379,141.873 L280.724,141.753 L279.069,141.632 L277.408,141.508 L275.745,141.384 L274.083,141.26 L272.421,141.135 L270.752,141.007 L269.083,140.878 L267.413,140.751 L265.744,140.621 L264.069,140.489 L262.393,140.357 L260.717,140.225 L259.041,140.091 L257.358,139.955 L255.674,139.82 L253.99,139.683 L252.307,139.542 L250.623,139.401 L248.94,139.261 L247.256,139.123 L245.572,138.989 L243.877,138.855 L242.183,138.722 L240.489,138.597 L238.794,138.475 L237.1,138.353 L235.405,138.231 L233.71,138.108 L232.014,137.986 L230.31,137.869 L228.608,137.752 L226.906,137.635 L225.204,137.518 L223.501,137.4 L221.799,137.282 L220.098,137.163 L218.394,137.043 L216.686,136.93 L214.98,136.816 L213.274,136.702 L211.567,136.588 L209.857,136.48 L208.149,136.371 L206.441,136.262 L204.731,136.153 L203.02,136.049 L201.31,135.944 L199.601,135.839 L197.89,135.733 L196.177,135.634 L194.467,135.534 L192.757,135.434 L191.044,135.334 L189.331,135.241 L187.621,135.147 L185.91,135.054 L184.197,134.96 L182.483,134.875 L180.773,134.79 L179.063,134.705 L177.349,134.62 L175.637,134.543 L173.927,134.467 L172.217,134.39 L170.504,134.314 L168.792,134.247 L167.083,134.18 L165.375,134.114 L163.663,134.048 L161.952,133.994 L160.245,133.94 L158.539,133.886 L156.828,133.833 L155.12,133.79 L153.416,133.747 L151.711,133.705 L150.002,133.662 L148.296,133.632 L146.594,133.602 L144.893,133.574 L143.186,133.546 L141.483,133.531 L139.786,133.517 L138.088,133.503 L136.385,133.489 L134.686,133.488 L132.992,133.487 L131.298,133.487 L129.598,133.487 L127.903,133.503 L126.214,133.518 L124.525,133.534 L122.829,133.55 L121.138,133.582 L119.455,133.614 L117.771,133.646 L116.081,133.678 L114.396,133.725 L112.718,133.767 L111.039,133.806 L109.353,133.846 L107.673,133.904 L106.001,133.951 L104.328,133.998 L102.647,134.044 L100.973,134.111 L99.308,134.18 L97.643,134.249 L95.971,134.319 L94.304,134.403 L92.639,134.49 L90.978,134.587 L89.317,134.684 L87.66,134.792 L86.003,134.9 L84.35,135.017 L82.697,135.135 L81.047,135.264 L79.398,135.394 L77.753,135.534 L76.108,135.674 L74.468,135.826 L72.827,135.978 L71.191,136.141 L69.555,136.305 L67.924,136.48 L66.293,136.654 L64.667,136.84 L63.04,137.025 L61.418,137.222 L59.796,137.419 L58.179,137.628 L56.563,137.838 L54.952,138.059 L53.34,138.281 L51.734,138.515 L50.127,138.749 L48.527,138.997 L46.927,139.244 L45.332,139.503 L43.737,139.763 L42.148,140.035 L40.558,140.307 L38.975,140.593 L37.392,140.879 L35.815,141.177 L34.237,141.475 L32.666,141.786 L31.094,142.098 L29.529,142.424 L27.965,142.75 L26.407,143.088 L24.848,143.427 L23.296,143.78 L21.744,144.133 L20.198,144.5 L18.662,144.866 C17.655,145.108 17.035,146.12 17.277,147.127 C17.519,148.134 18.531,148.754 19.538,148.512 Z" id="Fill-186"></path>
            <path d="M317.82,16.399 C318.746,7.369 315.22,48.253 315.132,52.756 C314.585,80.532 313.598,108.221 310.754,135.973 C310.402,139.401 311.148,172.641 309.849,159.984" id="Fill-187"></path>
            <path d="M319.685,16.592 L319.711,16.326 L319.734,16.096 L319.755,15.9 L319.772,15.734 L319.787,15.603 L319.798,15.507 L319.805,15.452 L319.809,15.423 L319.783,15.557 L319.783,15.557 L319.783,15.556 L319.783,15.556 L319.783,15.556 L319.784,15.555 L319.784,15.554 L319.784,15.554 L319.784,15.553 L319.784,15.552 L319.784,15.551 L319.785,15.55 L319.785,15.549 L319.785,15.547 L319.786,15.546 L319.786,15.544 L319.785,15.551 L319.781,15.566 L319.776,15.584 L319.77,15.605 L319.764,15.63 L319.755,15.658 L319.744,15.693 L319.73,15.734 L319.711,15.785 L319.685,15.848 L319.649,15.928 L319.594,16.031 L319.508,16.168 L319.364,16.35 L319.109,16.587 L318.653,16.845 L318.326,16.939 L318.326,16.939 L318.326,16.939 L318.327,16.939 L318.327,16.939 L318.327,16.939 L318.327,16.939 L318.327,16.939 L318.327,16.939 L318.327,16.939 L318.328,16.939 L318.328,16.939 L318.328,16.939 L318.328,16.939 L318.328,16.939 L317.619,13.269 L317.615,13.27 L318.324,16.939 L318.324,16.939 L318.324,16.939 L318.324,16.939 L318.324,16.939 L318.324,16.939 L318.324,16.939 L318.324,16.939 L318.325,16.939 L318.325,16.939 L318.325,16.939 L318.325,16.939 L318.325,16.939 L318.326,16.939 L318.326,16.939 L317.918,16.972 L317.136,16.775 L316.642,16.417 L316.396,16.108 L316.273,15.883 L316.209,15.723 L316.172,15.606 L316.15,15.518 L316.136,15.451 L316.127,15.397 L316.121,15.354 L316.117,15.319 L316.114,15.29 L316.111,15.265 L316.11,15.244 L316.109,15.226 L316.108,15.219 L316.108,15.22 L316.108,15.222 L316.109,15.223 L316.109,15.224 L316.109,15.226 L316.109,15.227 L316.109,15.228 L316.109,15.229 L316.109,15.229 L316.109,15.23 L316.109,15.23 L316.109,15.231 L316.109,15.231 L316.109,15.231 L316.109,15.231 L316.107,15.098 L316.107,15.127 L316.105,15.175 L316.101,15.261 L316.095,15.379 L316.086,15.522 L316.076,15.691 L316.064,15.884 L316.034,16.336 L315.996,16.875 L315.952,17.495 L315.902,18.186 L315.846,18.949 L315.785,19.778 L315.719,20.663 L315.648,21.606 L315.574,22.601 L315.495,23.638 L315.414,24.719 L315.329,25.837 L315.243,26.984 L315.154,28.16 L315.063,29.358 L314.972,30.58 L314.881,31.802 L314.791,33.041 L314.701,34.281 L314.612,35.518 L314.523,36.754 L314.437,37.972 L314.35,39.189 L314.267,40.366 L314.185,41.544 L314.111,42.661 L314.036,43.777 L313.968,44.843 L313.903,45.863 L313.843,46.835 L313.789,47.757 L313.739,48.621 L313.694,49.421 L313.655,50.16 L313.626,50.827 L313.602,51.418 L313.584,51.935 L313.573,52.371 L313.569,52.719 L313.568,54.457 L313.57,56.193 L313.55,57.929 L313.526,59.664 L313.489,61.399 L313.451,63.135 L313.414,64.87 L313.378,66.599 L313.327,68.327 L313.28,70.061 L313.232,71.795 L313.185,73.529 L313.14,75.263 L313.098,76.998 L313.055,78.732 L313.013,80.458 L312.953,82.184 L312.893,83.918 L312.836,85.651 L312.778,87.385 L312.721,89.119 L312.664,90.853 L312.607,92.586 L312.55,94.314 L312.476,96.042 L312.4,97.776 L312.323,99.509 L312.246,101.238 L312.152,102.967 L312.056,104.7 L311.959,106.433 L311.863,108.162 L311.752,109.89 L311.639,111.624 L311.524,113.357 L311.409,115.085 L311.278,116.814 L311.147,118.547 L311.019,120.281 L310.912,122.01 L310.792,123.741 L310.681,125.478 L310.562,127.215 L310.439,128.945 L310.293,130.676 L310.144,132.413 L309.992,134.148 L309.838,135.886 L309.817,136.162 L309.801,136.508 L309.788,136.917 L309.778,137.383 L309.771,137.911 L309.767,138.496 L309.764,139.13 L309.763,139.814 L309.763,140.543 L309.766,141.309 L309.769,142.114 L309.774,142.951 L309.78,143.814 L309.786,144.703 L309.794,145.612 L309.801,146.536 L309.809,147.472 L309.815,148.415 L309.827,150.31 L309.835,152.186 L309.839,154.008 L309.838,155.75 L309.83,157.373 L309.813,158.839 L309.802,159.507 L309.788,160.124 L309.771,160.684 L309.751,161.187 L309.729,161.624 L309.703,161.987 L309.676,162.274 L309.65,162.462 L309.622,162.574 L309.691,162.393 L309.691,162.393 L309.69,162.394 L309.69,162.395 L309.689,162.396 L309.688,162.398 L309.687,162.399 L309.686,162.402 L309.685,162.404 L309.683,162.407 L309.682,162.41 L309.68,162.413 L309.678,162.417 L309.676,162.421 L309.674,162.426 L309.671,162.43 L309.675,162.424 L309.686,162.404 L309.7,162.382 L309.717,162.357 L309.738,162.329 L309.764,162.299 L309.796,162.265 L309.836,162.229 L309.883,162.192 L309.941,162.155 L310.008,162.12 L310.085,162.089 L310.171,162.066 L310.262,162.053 L310.355,162.051 L310.446,162.06 L310.488,162.068 L310.485,162.068 L310.483,162.067 L310.48,162.066 L310.478,162.066 L310.476,162.066 L310.475,162.065 L310.473,162.065 L310.472,162.064 L310.47,162.064 L310.469,162.064 L310.468,162.064 L310.468,162.064 L310.467,162.064 L310.467,162.064 L310.127,163.598 L310.174,163.608 L310.512,162.074 L310.51,162.073 L310.508,162.073 L310.505,162.072 L310.502,162.072 L310.497,162.071 L310.492,162.069 L310.574,162.093 L310.712,162.157 L310.808,162.225 L310.873,162.286 L310.916,162.336 L310.944,162.376 L310.962,162.406 L310.974,162.428 L310.975,162.43 L310.97,162.419 L310.965,162.409 L310.961,162.401 L310.958,162.395 L310.956,162.39 L310.954,162.386 L310.953,162.385 L310.996,162.492 L310.976,162.431 L310.956,162.355 L310.932,162.242 L310.904,162.1 L310.875,161.927 L310.843,161.724 L310.81,161.494 L310.775,161.235 L310.738,160.946 L310.7,160.629 L310.661,160.283 L310.62,159.903 C310.575,159.477 310.194,159.168 309.769,159.213 C309.343,159.257 309.034,159.639 309.078,160.064 L309.118,160.448 L309.155,160.804 L309.192,161.13 L309.228,161.431 L309.263,161.704 L309.296,161.95 L309.33,162.174 L309.362,162.373 L309.395,162.549 L309.428,162.708 L309.464,162.852 L309.498,162.961 L309.54,163.068 L309.541,163.07 L309.542,163.073 L309.545,163.078 L309.548,163.085 L309.552,163.093 L309.556,163.103 L309.562,163.114 L309.576,163.142 L309.6,163.187 L309.631,163.237 L309.671,163.294 L309.726,163.359 L309.803,163.431 L309.911,163.508 L310.06,163.577 L310.153,163.603 L310.158,163.604 L310.163,163.605 L310.166,163.606 L310.169,163.607 L310.171,163.607 L310.173,163.607 L310.512,162.074 L310.466,162.064 L310.128,163.598 L310.128,163.598 L310.129,163.598 L310.129,163.598 L310.13,163.598 L310.131,163.598 L310.132,163.599 L310.134,163.599 L310.135,163.599 L310.137,163.6 L310.139,163.6 L310.141,163.601 L310.144,163.601 L310.146,163.602 L310.149,163.603 L310.197,163.612 L310.293,163.621 L310.392,163.619 L310.489,163.605 L310.58,163.581 L310.663,163.548 L310.736,163.51 L310.799,163.469 L310.852,163.428 L310.897,163.387 L310.934,163.348 L310.966,163.311 L310.992,163.276 L311.015,163.243 L311.034,163.212 L311.051,163.184 L311.059,163.167 L311.062,163.163 L311.064,163.158 L311.066,163.154 L311.068,163.151 L311.07,163.147 L311.072,163.144 L311.073,163.141 L311.075,163.139 L311.076,163.137 L311.077,163.135 L311.077,163.134 L311.078,163.132 L311.079,163.131 L311.079,163.131 L311.079,163.13 L311.148,162.949 L311.197,162.749 L311.24,162.461 L311.275,162.121 L311.306,161.724 L311.333,161.264 L311.357,160.744 L311.378,160.171 L311.397,159.544 L311.414,158.866 L311.441,157.391 L311.461,155.761 L311.475,154.012 L311.484,152.187 L311.49,150.308 L311.496,148.412 L311.498,147.468 L311.502,146.532 L311.506,145.609 L311.51,144.7 L311.514,143.813 L311.519,142.951 L311.525,142.116 L311.531,141.314 L311.539,140.55 L311.547,139.825 L311.556,139.147 L311.567,138.52 L311.58,137.944 L311.595,137.428 L311.611,136.977 L311.629,136.591 L311.649,136.285 L311.669,136.061 L311.853,134.33 L312.038,132.597 L312.228,130.865 L312.419,129.127 L312.596,127.391 L312.778,125.66 L312.967,123.929 L313.147,122.193 L313.306,120.456 L313.443,118.723 L313.578,116.99 L313.713,115.252 L313.833,113.514 L313.955,111.781 L314.078,110.049 L314.203,108.311 L314.314,106.574 L314.424,104.841 L314.534,103.109 L314.646,101.372 L314.748,99.635 L314.851,97.902 L314.954,96.17 L315.059,94.432 L315.149,92.694 L315.238,90.961 L315.327,89.229 L315.417,87.497 L315.506,85.764 L315.596,84.032 L315.682,82.299 L315.769,80.559 L315.833,78.817 L315.898,77.084 L315.963,75.35 L316.025,73.617 L316.084,71.883 L316.144,70.149 L316.203,68.416 L316.259,66.676 L316.301,64.935 L316.342,63.2 L316.383,61.465 L316.424,59.729 L316.478,57.994 L316.537,56.26 L316.617,54.525 L316.695,52.793 L316.71,52.49 L316.735,52.089 L316.771,51.595 L316.815,51.021 L316.869,50.368 L316.927,49.639 L316.991,48.847 L317.063,47.991 L317.14,47.074 L317.223,46.109 L317.31,45.093 L317.402,44.033 L317.499,42.92 L317.595,41.808 L317.697,40.634 L317.797,39.459 L317.902,38.245 L318.007,37.03 L318.115,35.796 L318.222,34.562 L318.331,33.324 L318.439,32.087 L318.544,30.867 L318.649,29.647 L318.752,28.45 L318.852,27.275 L318.95,26.128 L319.045,25.011 L319.137,23.931 L319.226,22.893 L319.31,21.898 L319.39,20.955 L319.464,20.069 L319.534,19.238 L319.597,18.473 L319.654,17.779 L319.705,17.154 L319.748,16.607 L319.783,16.147 L319.798,15.944 L319.811,15.765 L319.821,15.607 L319.83,15.469 L319.837,15.348 L319.841,15.241 L319.843,15.163 L319.841,15.03 L319.841,15.03 L319.841,15.03 L319.841,15.029 L319.841,15.029 L319.841,15.028 L319.841,15.028 L319.841,15.027 L319.841,15.026 L319.841,15.025 L319.84,15.024 L319.84,15.023 L319.84,15.022 L319.84,15.02 L319.84,15.019 L319.84,15.017 L319.84,15.007 L319.838,14.986 L319.836,14.962 L319.834,14.935 L319.831,14.903 L319.826,14.865 L319.82,14.82 L319.81,14.765 L319.796,14.696 L319.774,14.606 L319.737,14.489 L319.672,14.327 L319.549,14.102 L319.302,13.792 L318.808,13.433 L318.025,13.236 L317.617,13.27 L317.617,13.27 L317.617,13.27 L317.616,13.27 L317.616,13.27 L317.616,13.27 L317.616,13.27 L317.616,13.27 L317.616,13.27 L317.616,13.27 L317.616,13.27 L317.615,13.27 L317.615,13.27 L317.615,13.27 L317.615,13.27 L318.324,16.939 L318.328,16.939 L317.619,13.269 L317.619,13.269 L317.619,13.269 L317.619,13.269 L317.619,13.269 L317.619,13.269 L317.619,13.269 L317.619,13.269 L317.619,13.269 L317.618,13.269 L317.618,13.269 L317.618,13.269 L317.618,13.269 L317.618,13.269 L317.617,13.269 L317.29,13.364 L316.834,13.622 L316.578,13.859 L316.434,14.042 L316.347,14.18 L316.292,14.284 L316.254,14.366 L316.228,14.43 L316.208,14.482 L316.194,14.526 L316.182,14.562 L316.173,14.593 L316.165,14.62 L316.159,14.644 L316.154,14.665 L316.149,14.683 L316.147,14.693 L316.146,14.694 L316.146,14.696 L316.146,14.697 L316.145,14.698 L316.145,14.7 L316.145,14.7 L316.145,14.701 L316.145,14.702 L316.144,14.703 L316.144,14.704 L316.144,14.704 L316.144,14.704 L316.144,14.705 L316.144,14.705 L316.144,14.705 L316.118,14.839 L316.105,14.92 L316.089,15.033 L316.073,15.161 L316.054,15.313 L316.034,15.493 L316.01,15.7 L315.984,15.938 L315.955,16.207 C315.849,17.237 316.598,18.158 317.628,18.264 C318.658,18.371 319.579,17.622 319.685,16.592 Z" id="Fill-188"></path>
            <path d="M325.975,22.89 C331.107,56.332 324.003,90.707 323.872,124.412 C323.837,133.464 327.686,173.319 326.397,170.646" id="Fill-189"></path>
            <path d="M324.12,23.161 L324.278,24.206 L324.434,25.237 L324.575,26.269 L324.715,27.302 L324.841,28.336 L324.966,29.372 L325.078,30.408 L325.191,31.445 L325.288,32.482 L325.387,33.52 L325.471,34.558 L325.556,35.599 L325.628,36.64 L325.701,37.681 L325.762,38.723 L325.823,39.765 L325.873,40.808 L325.924,41.853 L325.965,42.898 L326.005,43.944 L326.035,44.99 L326.065,46.036 L326.084,47.084 L326.104,48.129 L326.11,49.175 L326.117,50.232 L326.126,51.289 L326.135,52.332 L326.127,53.377 L326.12,54.435 L326.113,55.494 L326.107,56.541 L326.086,57.589 L326.066,58.649 L326.051,59.709 L326.036,60.76 L326.012,61.812 L325.989,62.874 L325.967,63.935 L325.936,64.988 L325.888,66.042 L325.841,67.104 L325.784,68.165 L325.726,69.22 L325.659,70.275 L325.591,71.336 L325.524,72.398 L325.457,73.455 L325.385,74.513 L325.312,75.575 L325.24,76.637 L325.169,77.696 L325.093,78.755 L325.017,79.817 L324.941,80.879 L324.865,81.94 L324.79,83.001 L324.714,84.063 L324.639,85.126 L324.563,86.188 L324.487,87.25 L324.411,88.312 L324.336,89.375 L324.261,90.438 L324.189,91.501 L324.117,92.564 L324.046,93.626 L323.974,94.69 L323.906,95.754 L323.838,96.816 L323.77,97.877 L323.702,98.942 L323.64,100.006 L323.577,101.067 L323.514,102.128 L323.451,103.194 L323.394,104.258 L323.338,105.318 L323.281,106.378 L323.224,107.444 L323.177,108.508 L323.127,109.567 L323.077,110.625 L323.026,111.69 L322.987,112.753 L322.948,113.811 L322.909,114.868 L322.87,115.933 L322.845,116.997 L322.819,118.053 L322.792,119.108 L322.765,120.173 L322.754,121.237 L322.742,122.291 L322.731,123.345 L322.72,124.406 L322.723,125.028 L322.737,125.724 L322.76,126.49 L322.801,127.318 L322.853,128.211 L322.913,129.164 L322.986,130.168 L323.07,131.226 L323.162,132.333 L323.254,133.481 L323.35,134.671 L323.45,135.897 L323.551,137.154 L323.657,138.441 L323.763,139.752 L323.872,141.082 L323.981,142.43 L324.092,143.79 L324.203,145.161 L324.314,146.531 L324.425,147.904 L324.536,149.276 L324.645,150.633 L324.755,151.989 L324.861,153.317 L324.965,154.644 L325.063,155.925 L325.161,157.205 L325.25,158.42 L325.34,159.635 L325.423,160.796 L325.5,161.913 L325.572,162.981 L325.638,164 L325.697,164.962 L325.748,165.863 L325.792,166.704 L325.828,167.475 L325.855,168.171 L325.873,168.795 L325.88,169.334 L325.878,169.781 L325.867,170.137 L325.848,170.374 L325.825,170.489 L325.863,170.384 L325.902,170.312 L326.292,170.027 L326.291,170.027 L326.29,170.028 L326.289,170.028 L326.287,170.029 L326.285,170.029 L326.282,170.03 L326.279,170.031 L326.312,170.022 L326.386,170.005 L326.462,169.997 L326.537,169.996 L326.609,170.003 L326.677,170.015 L326.738,170.033 L326.793,170.054 L326.816,170.064 L326.812,170.062 L326.809,170.061 L326.807,170.06 L326.805,170.059 L326.803,170.058 L326.802,170.058 L326.802,170.057 L327.068,170.264 L327.085,170.292 L327.077,170.273 C326.871,169.898 326.4,169.761 326.025,169.966 C325.65,170.172 325.512,170.643 325.718,171.018 L325.787,171.141 L325.875,171.254 L326.141,171.461 L326.142,171.461 L326.143,171.461 L326.144,171.462 L326.146,171.463 L326.149,171.464 L326.152,171.466 L326.155,171.467 L326.186,171.481 L326.249,171.505 L326.318,171.525 L326.393,171.539 L326.473,171.546 L326.556,171.546 L326.639,171.536 L326.72,171.518 L326.761,171.506 L326.764,171.505 L326.767,171.504 L326.769,171.503 L326.771,171.503 L326.772,171.502 L326.773,171.502 L326.773,171.502 L327.163,171.217 L327.254,171.073 L327.337,170.844 L327.389,170.573 L327.42,170.228 L327.437,169.815 L327.443,169.331 L327.439,168.766 L327.425,168.124 L327.403,167.414 L327.373,166.632 L327.335,165.782 L327.29,164.874 L327.238,163.905 L327.179,162.881 L327.115,161.808 L327.046,160.688 L326.971,159.523 L326.891,158.305 L326.81,157.087 L326.723,155.805 L326.636,154.522 L326.544,153.193 L326.455,151.863 L326.363,150.505 L326.27,149.147 L326.177,147.773 L326.083,146.4 L325.991,145.028 L325.899,143.657 L325.81,142.296 L325.723,140.949 L325.64,139.618 L325.56,138.307 L325.486,137.021 L325.416,135.765 L325.352,134.539 L325.295,133.351 L325.243,132.206 L325.202,131.102 L325.166,130.049 L325.133,129.051 L325.101,128.107 L325.077,127.227 L325.058,126.415 L325.037,125.669 L325.026,125.002 L325.024,124.419 L325.037,123.372 L325.051,122.318 L325.064,121.263 L325.078,120.219 L325.108,119.172 L325.139,118.116 L325.172,117.061 L325.205,116.013 L325.252,114.964 L325.299,113.907 L325.347,112.85 L325.394,111.799 L325.453,110.747 L325.512,109.689 L325.571,108.631 L325.633,107.579 L325.705,106.526 L325.778,105.467 L325.851,104.408 L325.923,103.354 L326.005,102.299 L326.088,101.239 L326.17,100.18 L326.253,99.123 L326.34,98.066 L326.428,97.006 L326.516,95.946 L326.604,94.888 L326.696,93.83 L326.787,92.769 L326.879,91.708 L326.97,90.648 L327.061,89.588 L327.152,88.527 L327.243,87.466 L327.333,86.404 L327.423,85.342 L327.512,84.281 L327.602,83.219 L327.691,82.156 L327.775,81.092 L327.859,80.031 L327.943,78.969 L328.026,77.904 L328.105,76.839 L328.183,75.777 L328.26,74.716 L328.337,73.65 L328.407,72.584 L328.476,71.522 L328.546,70.461 L328.616,69.393 L328.677,68.326 L328.738,67.265 L328.809,66.205 L328.88,65.137 L328.944,64.069 L329.018,63.01 L329.092,61.951 L329.163,60.883 L329.219,59.815 L329.275,58.756 L329.326,57.697 L329.376,56.627 L329.41,55.556 L329.443,54.498 L329.476,53.44 L329.508,52.367 L329.521,51.296 L329.534,50.239 L329.546,49.182 L329.556,48.114 L329.553,47.047 L329.55,45.982 L329.536,44.918 L329.522,43.853 L329.497,42.788 L329.472,41.725 L329.436,40.662 L329.399,39.597 L329.349,38.534 L329.299,37.47 L329.235,36.406 L329.172,35.344 L329.096,34.282 L329.02,33.218 L328.93,32.156 L328.84,31.093 L328.736,30.031 L328.632,28.97 L328.514,27.909 L328.396,26.847 L328.262,25.786 L328.128,24.725 L327.978,23.665 L327.831,22.618 C327.681,21.594 326.729,20.885 325.704,21.034 C324.679,21.184 323.97,22.137 324.12,23.161 Z" id="Fill-190"></path>
            <path d="M5.923,22.14 C87.233,10.617 173.711,18.56 254.87,23.111 C264.794,23.668 371.597,29.735 327.845,24.894" id="Fill-191"></path>
            <path d="M6.177,23.997 L7.449,23.82 L8.72,23.644 L9.992,23.467 L11.254,23.291 L12.52,23.128 L13.795,22.964 L15.07,22.8 L16.336,22.637 L17.605,22.487 L18.883,22.335 L20.161,22.183 L21.432,22.032 L22.705,21.893 L23.986,21.752 L25.267,21.611 L26.539,21.471 L27.814,21.343 L29.098,21.214 L30.382,21.085 L31.658,20.958 L32.937,20.841 L34.223,20.723 L35.51,20.606 L36.789,20.489 L38.071,20.382 L39.36,20.275 L40.649,20.168 L41.931,20.06 L43.214,19.964 L44.506,19.867 L45.797,19.77 L47.082,19.673 L48.368,19.586 L49.662,19.499 L50.955,19.411 L52.243,19.324 L53.532,19.246 L54.828,19.168 L56.123,19.09 L57.412,19.012 L58.703,18.944 L60.001,18.876 L61.299,18.807 L62.59,18.739 L63.884,18.68 L65.183,18.622 L66.483,18.563 L67.777,18.504 L69.072,18.452 L70.374,18.401 L71.675,18.349 L72.97,18.297 L74.267,18.254 L75.57,18.21 L76.872,18.167 L78.17,18.123 L79.468,18.088 L80.773,18.052 L82.077,18.016 L83.376,17.981 L84.677,17.952 L85.982,17.923 L87.288,17.895 L88.588,17.865 L89.89,17.841 L91.196,17.817 L92.503,17.793 L93.805,17.769 L95.108,17.753 L96.415,17.733 L97.723,17.714 L99.026,17.695 L100.331,17.682 L101.639,17.67 L102.948,17.663 L104.252,17.658 L105.557,17.661 L106.866,17.663 L108.175,17.665 L109.481,17.67 L110.787,17.684 L112.096,17.698 L113.406,17.712 L114.712,17.727 L116.019,17.747 L117.329,17.767 L118.639,17.787 L119.945,17.806 L121.252,17.833 L122.562,17.858 L123.873,17.884 L125.18,17.909 L126.487,17.941 L127.797,17.972 L129.107,18.003 L130.414,18.034 L131.72,18.071 L133.03,18.109 L134.34,18.147 L135.65,18.184 L136.961,18.221 L138.271,18.259 L139.581,18.296 L140.886,18.334 L142.19,18.38 L143.5,18.427 L144.81,18.472 L146.119,18.518 L147.429,18.563 L148.738,18.608 L150.048,18.654 L151.353,18.699 L152.657,18.752 L153.966,18.806 L155.274,18.86 L156.582,18.913 L157.89,18.966 L159.199,19.019 L160.507,19.072 L161.812,19.125 L163.116,19.184 L164.422,19.243 L165.729,19.301 L167.036,19.359 L168.343,19.418 L169.649,19.476 L170.956,19.534 L172.26,19.592 L173.561,19.656 L174.866,19.72 L176.17,19.784 L177.474,19.848 L178.779,19.912 L180.083,19.976 L181.387,20.04 L182.689,20.104 L183.989,20.172 L185.29,20.241 L186.591,20.309 L187.892,20.377 L189.194,20.446 L190.495,20.514 L191.796,20.583 L193.096,20.652 L194.393,20.724 L195.691,20.796 L196.989,20.869 L198.286,20.941 L199.584,21.013 L200.882,21.086 L202.18,21.158 L203.477,21.231 L204.77,21.305 L206.064,21.381 L207.357,21.457 L208.651,21.533 L209.945,21.61 L211.238,21.686 L212.532,21.762 L213.825,21.838 L215.114,21.915 L216.403,21.991 L217.691,22.068 L218.98,22.145 L220.269,22.221 L221.558,22.298 L222.847,22.375 L224.136,22.452 L225.42,22.528 L226.704,22.605 L227.988,22.682 L229.271,22.76 L230.555,22.837 L231.839,22.914 L233.123,22.992 L234.408,23.07 L235.686,23.145 L236.964,23.221 L238.242,23.297 L239.52,23.373 L240.798,23.448 L242.076,23.524 L243.354,23.6 L244.633,23.676 L245.905,23.748 L247.177,23.813 L248.449,23.878 L249.721,23.943 L250.993,24.007 L252.264,24.072 L253.536,24.135 L254.808,24.195 L255.149,24.211 L255.552,24.23 L256.017,24.251 L256.536,24.275 L257.113,24.302 L257.747,24.331 L258.43,24.363 L259.167,24.397 L259.954,24.434 L260.787,24.474 L261.667,24.517 L262.593,24.562 L263.56,24.609 L264.569,24.658 L265.619,24.708 L266.705,24.761 L267.827,24.816 L268.986,24.873 L270.175,24.931 L271.397,24.991 L272.649,25.052 L273.927,25.114 L275.232,25.179 L276.562,25.244 L277.913,25.31 L279.287,25.377 L280.68,25.445 L282.09,25.514 L283.517,25.584 L284.958,25.654 L286.417,25.724 L287.876,25.794 L289.354,25.866 L290.832,25.937 L292.323,26.007 L293.813,26.078 L295.309,26.147 L296.803,26.216 L298.298,26.286 L299.794,26.355 L301.274,26.421 L302.753,26.486 L304.233,26.552 L305.713,26.618 L307.147,26.679 L308.581,26.74 L310.015,26.801 L311.449,26.863 L312.837,26.92 L314.225,26.977 L315.571,27.03 L316.916,27.083 L318.211,27.132 L319.506,27.181 L320.764,27.227 L321.991,27.27 L323.187,27.31 L324.352,27.348 L325.482,27.383 L326.574,27.415 L327.632,27.444 L328.65,27.47 L329.625,27.492 L330.561,27.512 L331.451,27.528 L332.294,27.54 L333.093,27.548 L333.842,27.553 L334.538,27.554 L335.186,27.551 L335.78,27.543 L336.317,27.531 L336.802,27.515 L337.23,27.494 L337.6,27.468 L337.922,27.435 L338.2,27.393 L338.457,27.327 L338.639,27.248 L339.026,26.849 L339.026,26.849 L339.027,26.849 L339.027,26.848 L339.027,26.847 L339.028,26.847 L339.028,26.845 L339.029,26.844 L339.029,26.843 L339.03,26.841 L339.031,26.839 L339.032,26.837 L339.033,26.835 L339.034,26.832 L339.035,26.829 L339.036,26.826 L339.05,26.793 L339.073,26.727 L339.091,26.656 L339.102,26.582 L339.107,26.507 L339.107,26.433 L339.097,26.361 L339.083,26.293 L339.064,26.229 L339.042,26.17 L339.018,26.117 L338.992,26.069 L338.965,26.026 L338.938,25.988 L338.911,25.954 L338.885,25.924 L338.87,25.908 L338.867,25.905 L338.864,25.902 L338.862,25.899 L338.859,25.896 L338.857,25.894 L338.855,25.892 L338.853,25.89 L338.852,25.888 L338.85,25.887 L338.849,25.886 L338.848,25.884 L338.847,25.884 L338.847,25.883 L338.846,25.883 L338.846,25.882 L338.624,25.718 L338.442,25.631 L338.174,25.541 L337.861,25.46 L337.488,25.379 L337.04,25.293 L336.514,25.203 L335.912,25.108 L335.226,25.007 L334.451,24.899 L333.596,24.787 L332.648,24.667 L331.608,24.541 L331.054,24.476 L330.477,24.409 L329.876,24.34 L329.252,24.27 L328.604,24.198 L327.931,24.124 C327.506,24.076 327.122,24.383 327.075,24.808 C327.028,25.234 327.334,25.617 327.76,25.664 L328.431,25.74 L329.077,25.814 L329.698,25.886 L330.296,25.957 L330.87,26.025 L331.419,26.092 L332.454,26.22 L333.393,26.342 L334.238,26.456 L335.001,26.564 L335.672,26.666 L336.255,26.76 L336.758,26.847 L337.171,26.928 L337.495,27 L337.733,27.062 L337.859,27.104 L337.918,27.136 L337.696,26.971 L337.696,26.972 L337.696,26.972 L337.697,26.973 L337.698,26.974 L337.699,26.975 L337.7,26.976 L337.701,26.978 L337.703,26.979 L337.705,26.981 L337.707,26.983 L337.709,26.986 L337.711,26.988 L337.714,26.991 L337.717,26.994 L337.72,26.997 L337.712,26.988 L337.691,26.965 L337.67,26.938 L337.648,26.906 L337.625,26.87 L337.602,26.829 L337.581,26.782 L337.561,26.73 L337.545,26.673 L337.532,26.611 L337.525,26.545 L337.523,26.477 L337.527,26.408 L337.538,26.341 L337.554,26.277 L337.575,26.216 L337.586,26.189 L337.584,26.192 L337.583,26.195 L337.582,26.197 L337.581,26.2 L337.58,26.202 L337.579,26.204 L337.579,26.205 L337.578,26.207 L337.577,26.208 L337.577,26.21 L337.576,26.21 L337.576,26.211 L337.576,26.212 L337.576,26.212 L337.576,26.212 L337.963,25.814 L337.958,25.823 L337.902,25.835 L337.73,25.861 L337.469,25.886 L337.138,25.908 L336.74,25.927 L336.276,25.941 L335.755,25.95 L335.175,25.956 L334.538,25.957 L333.85,25.954 L333.109,25.947 L332.317,25.936 L331.48,25.921 L330.594,25.902 L329.663,25.88 L328.692,25.855 L327.678,25.825 L326.623,25.793 L325.533,25.758 L324.406,25.719 L323.243,25.678 L322.05,25.633 L320.825,25.586 L319.57,25.537 L318.276,25.484 L316.983,25.431 L315.639,25.373 L314.295,25.315 L312.909,25.253 L311.523,25.19 L310.09,25.123 L308.657,25.056 L307.223,24.989 L305.791,24.92 L304.313,24.846 L302.834,24.772 L301.355,24.699 L299.877,24.625 L298.383,24.547 L296.889,24.47 L295.395,24.392 L293.901,24.315 L292.411,24.236 L290.922,24.157 L289.445,24.078 L287.968,23.999 L286.51,23.919 L285.052,23.839 L283.612,23.76 L282.186,23.68 L280.777,23.602 L279.385,23.523 L278.012,23.444 L276.662,23.367 L275.333,23.29 L274.029,23.215 L272.752,23.14 L271.501,23.065 L270.28,22.993 L269.092,22.922 L267.935,22.853 L266.813,22.785 L265.728,22.718 L264.68,22.653 L263.671,22.591 L262.706,22.531 L261.781,22.473 L260.901,22.418 L260.07,22.366 L259.283,22.315 L258.548,22.266 L257.865,22.221 L257.232,22.18 L256.656,22.142 L256.137,22.107 L255.673,22.077 L255.271,22.05 L254.932,22.028 L253.662,21.942 L252.391,21.858 L251.121,21.777 L249.85,21.696 L248.579,21.615 L247.308,21.533 L246.037,21.453 L244.767,21.379 L243.491,21.302 L242.213,21.225 L240.935,21.148 L239.657,21.071 L238.38,20.994 L237.102,20.917 L235.824,20.84 L234.547,20.763 L233.264,20.685 L231.98,20.606 L230.696,20.526 L229.412,20.447 L228.129,20.368 L226.845,20.289 L225.561,20.209 L224.278,20.129 L222.989,20.048 L221.701,19.967 L220.412,19.885 L219.124,19.804 L217.835,19.723 L216.546,19.642 L215.258,19.561 L213.969,19.48 L212.675,19.399 L211.382,19.318 L210.088,19.237 L208.795,19.157 L207.502,19.076 L206.208,18.995 L204.915,18.914 L203.621,18.832 L202.322,18.751 L201.025,18.671 L199.727,18.59 L198.43,18.509 L197.132,18.429 L195.835,18.348 L194.538,18.267 L193.239,18.186 L191.937,18.107 L190.636,18.029 L189.335,17.95 L188.034,17.871 L186.734,17.792 L185.433,17.713 L184.132,17.634 L182.829,17.555 L181.523,17.48 L180.22,17.405 L178.916,17.33 L177.612,17.256 L176.308,17.181 L175.005,17.106 L173.701,17.032 L172.394,16.957 L171.085,16.888 L169.779,16.819 L168.473,16.75 L167.166,16.681 L165.86,16.612 L164.554,16.543 L163.248,16.474 L161.938,16.406 L160.627,16.344 L159.319,16.283 L158.011,16.221 L156.703,16.159 L155.395,16.098 L154.087,16.037 L152.779,15.976 L151.466,15.915 L150.153,15.862 L148.843,15.809 L147.534,15.757 L146.225,15.704 L144.915,15.651 L143.606,15.598 L142.297,15.546 L140.982,15.495 L139.667,15.453 L138.357,15.411 L137.047,15.37 L135.737,15.328 L134.427,15.286 L133.117,15.245 L131.806,15.203 L130.492,15.162 L129.178,15.128 L127.868,15.094 L126.558,15.061 L125.244,15.027 L123.931,15 L122.621,14.972 L121.311,14.945 L119.997,14.918 L118.684,14.896 L117.374,14.875 L116.064,14.854 L114.751,14.833 L113.438,14.817 L112.129,14.802 L110.819,14.787 L109.506,14.771 L108.193,14.76 L106.884,14.746 L105.575,14.732 L104.262,14.717 L102.95,14.71 L101.642,14.702 L100.333,14.687 L99.021,14.672 L97.71,14.664 L96.402,14.656 L95.094,14.647 L93.782,14.642 L92.471,14.644 L91.164,14.647 L89.858,14.649 L88.546,14.651 L87.235,14.664 L85.93,14.677 L84.624,14.691 L83.314,14.705 L82.004,14.726 L80.7,14.747 L79.396,14.769 L78.086,14.791 L76.777,14.822 L75.474,14.852 L74.171,14.883 L72.862,14.915 L71.554,14.955 L70.253,14.996 L68.951,15.036 L67.644,15.077 L66.339,15.127 L65.039,15.177 L63.739,15.228 L62.432,15.278 L61.128,15.338 L59.83,15.398 L58.531,15.458 L57.226,15.518 L55.924,15.588 L54.627,15.657 L53.331,15.727 L52.029,15.797 L50.728,15.876 L49.434,15.955 L48.14,16.034 L46.838,16.114 L45.539,16.204 L44.247,16.295 L42.955,16.385 L41.655,16.476 L40.358,16.578 L39.069,16.68 L37.779,16.782 L36.482,16.884 L35.188,16.997 L33.901,17.108 L32.614,17.22 L31.318,17.333 L30.026,17.457 L28.741,17.581 L27.457,17.704 L26.164,17.828 L24.874,17.965 L23.592,18.1 L22.311,18.235 L21.021,18.371 L19.734,18.518 L18.456,18.665 L17.177,18.811 L15.889,18.958 L14.604,19.118 L13.328,19.276 L12.053,19.435 L10.768,19.595 L9.486,19.768 L8.213,19.939 L6.941,20.111 L5.668,20.282 C4.643,20.422 3.925,21.368 4.065,22.394 C4.206,23.42 5.151,24.138 6.177,23.997 Z" id="Fill-192"></path>
            <path d="M17.33,7.029 C126.698,-4.538 253.142,3.481 361.406,16.376" id="Fill-193"></path>
            <path d="M17.52,8.894 L19.233,8.716 L20.947,8.537 L22.661,8.359 L24.367,8.181 L26.084,8.016 L27.809,7.851 L29.533,7.685 L31.251,7.521 L32.979,7.368 L34.714,7.216 L36.449,7.063 L38.178,6.91 L39.916,6.77 L41.66,6.628 L43.405,6.487 L45.142,6.346 L46.889,6.217 L48.643,6.088 L50.397,5.959 L52.144,5.83 L53.9,5.713 L55.663,5.595 L57.426,5.478 L59.183,5.36 L60.948,5.252 L62.718,5.143 L64.489,5.035 L66.253,4.927 L68.025,4.831 L69.804,4.734 L71.582,4.638 L73.355,4.542 L75.135,4.457 L76.921,4.372 L78.707,4.286 L80.489,4.2 L82.276,4.124 L84.068,4.047 L85.861,3.97 L87.648,3.892 L89.441,3.825 L91.24,3.758 L93.039,3.691 L94.833,3.623 L96.633,3.566 L98.438,3.509 L100.243,3.451 L102.044,3.389 L103.849,3.337 L105.659,3.285 L107.469,3.231 L109.275,3.175 L111.085,3.129 L112.9,3.084 L114.716,3.044 L116.527,3.009 L118.343,2.984 L120.162,2.959 L121.982,2.94 L123.799,2.922 L125.619,2.914 L127.442,2.906 L129.266,2.898 L131.085,2.89 L132.909,2.891 L134.736,2.893 L136.563,2.894 L138.387,2.895 L140.213,2.906 L142.043,2.916 L143.874,2.925 L145.701,2.935 L147.53,2.953 L149.363,2.97 L151.195,2.988 L153.024,3.006 L154.856,3.033 L156.69,3.058 L158.525,3.083 L160.357,3.108 L162.19,3.141 L164.026,3.175 L165.863,3.209 L167.696,3.243 L169.53,3.284 L171.368,3.325 L173.205,3.366 L175.04,3.407 L176.875,3.456 L178.713,3.504 L180.551,3.552 L182.386,3.6 L184.222,3.657 L186.06,3.713 L187.898,3.77 L189.734,3.826 L191.569,3.89 L193.407,3.954 L195.245,4.018 L197.081,4.082 L198.915,4.154 L200.752,4.226 L202.59,4.298 L204.424,4.371 L206.257,4.452 L208.093,4.533 L209.929,4.614 L211.762,4.696 L213.594,4.784 L215.428,4.873 L217.263,4.961 L219.094,5.052 L220.923,5.15 L222.755,5.249 L224.587,5.347 L226.416,5.446 L228.243,5.551 L230.071,5.657 L231.9,5.762 L233.727,5.868 L235.551,5.98 L237.377,6.092 L239.202,6.205 L241.026,6.319 L242.845,6.439 L244.667,6.56 L246.489,6.681 L248.309,6.802 L250.124,6.93 L251.942,7.057 L253.759,7.185 L255.575,7.312 L257.386,7.446 L259.2,7.574 L261.014,7.697 L262.826,7.819 L264.633,7.948 L266.442,8.072 L268.251,8.195 L270.058,8.318 L271.86,8.446 L273.663,8.579 L275.466,8.713 L277.267,8.847 L279.063,8.987 L280.86,9.129 L282.657,9.271 L284.453,9.413 L286.242,9.56 L288.032,9.71 L289.822,9.86 L291.611,10.009 L293.392,10.165 L295.175,10.321 L296.958,10.478 L298.739,10.634 L300.513,10.795 L302.289,10.958 L304.065,11.12 L305.839,11.282 L307.605,11.449 L309.372,11.616 L311.14,11.784 L312.906,11.951 L314.663,12.123 L316.422,12.294 L318.18,12.467 L319.938,12.638 L321.687,12.815 L323.437,12.993 L325.187,13.17 L326.936,13.348 L328.675,13.53 L330.415,13.712 L332.156,13.895 L333.895,14.077 L335.624,14.263 L337.354,14.45 L339.084,14.636 L340.813,14.823 L342.532,15.012 L344.253,15.202 L345.973,15.393 L347.692,15.582 L349.4,15.776 L351.109,15.97 L352.818,16.164 L354.527,16.357 L356.223,16.554 L357.92,16.752 L359.618,16.949 L361.315,17.146 C361.74,17.196 362.125,16.892 362.176,16.467 C362.226,16.042 361.922,15.657 361.497,15.606 L359.8,15.404 L358.103,15.201 L356.406,14.998 L354.708,14.796 L352.999,14.596 L351.29,14.397 L349.582,14.198 L347.872,13.998 L346.151,13.803 L344.431,13.607 L342.712,13.411 L340.991,13.216 L339.26,13.023 L337.531,12.832 L335.801,12.639 L334.071,12.447 L332.33,12.259 L330.59,12.071 L328.85,11.883 L327.109,11.695 L325.359,11.511 L323.609,11.326 L321.86,11.142 L320.109,10.957 L318.35,10.776 L316.593,10.594 L314.835,10.412 L313.076,10.231 L311.308,10.054 L309.542,9.877 L307.775,9.7 L306.007,9.523 L304.231,9.351 L302.457,9.179 L300.682,9.007 L298.906,8.834 L297.123,8.665 L295.341,8.497 L293.559,8.328 L291.776,8.158 L289.986,7.994 L288.197,7.829 L286.408,7.665 L284.618,7.498 L282.821,7.337 L281.025,7.176 L279.23,7.014 L277.433,6.85 L275.63,6.691 L273.829,6.533 L272.028,6.373 L270.226,6.209 L268.417,6.051 L266.611,5.893 L264.804,5.736 L262.995,5.584 L261.181,5.438 L259.369,5.292 L257.556,5.152 L255.741,5.016 L253.922,4.887 L252.105,4.758 L250.287,4.628 L248.468,4.499 L246.644,4.376 L244.822,4.253 L243,4.13 L241.176,4.006 L239.348,3.889 L237.523,3.772 L235.697,3.654 L233.87,3.536 L232.039,3.424 L230.211,3.312 L228.382,3.2 L226.552,3.088 L224.718,2.983 L222.887,2.878 L221.055,2.773 L219.222,2.668 L217.385,2.57 L215.552,2.47 L213.718,2.371 L211.882,2.271 L210.045,2.177 L208.21,2.084 L206.374,1.99 L204.537,1.897 L202.697,1.81 L200.861,1.723 L199.024,1.636 L197.185,1.549 L195.345,1.47 L193.507,1.391 L191.67,1.312 L189.83,1.232 L187.989,1.161 L186.151,1.089 L184.314,1.018 L182.473,0.946 L180.632,0.883 L178.794,0.819 L176.957,0.756 L175.116,0.693 L173.275,0.64 L171.438,0.587 L169.601,0.534 L167.761,0.481 L165.921,0.437 L164.085,0.393 L162.249,0.349 L160.409,0.304 L158.571,0.269 L156.737,0.234 L154.902,0.199 L153.064,0.166 L151.228,0.142 L149.395,0.119 L147.562,0.095 L145.726,0.072 L143.893,0.057 L142.062,0.042 L140.232,0.028 L138.398,0.014 L136.567,0.01 L134.74,0.006 L132.913,0.003 L131.082,0 L129.254,0.006 L127.43,0.013 L125.607,0.019 L123.78,0.026 L121.956,0.042 L120.136,0.055 L118.316,0.063 L116.492,0.072 L114.672,0.09 L112.857,0.104 L111.041,0.111 L109.221,0.119 L107.406,0.137 L105.595,0.158 L103.784,0.181 L101.969,0.203 L100.16,0.235 L98.354,0.271 L96.548,0.308 L94.738,0.345 L92.933,0.392 L91.134,0.441 L89.334,0.49 L87.529,0.538 L85.731,0.598 L83.938,0.66 L82.145,0.721 L80.347,0.782 L78.555,0.854 L76.769,0.928 L74.982,1.001 L73.19,1.074 L71.405,1.16 L69.626,1.244 L67.847,1.329 L66.062,1.414 L64.285,1.511 L62.514,1.608 L60.742,1.704 L58.966,1.801 L57.197,1.91 L55.433,2.019 L53.67,2.128 L51.9,2.237 L50.139,2.359 L48.385,2.481 L46.631,2.602 L44.87,2.724 L43.118,2.859 L41.373,2.993 L39.628,3.127 L37.877,3.261 L36.135,3.407 L34.399,3.553 L32.664,3.698 L30.921,3.844 L29.188,4.003 L27.463,4.161 L25.737,4.319 L24.004,4.478 L22.283,4.65 L20.568,4.821 L18.854,4.992 L17.14,5.163 C16.109,5.268 15.359,6.189 15.464,7.219 C15.569,8.249 16.49,8.999 17.52,8.894 Z" id="Fill-194"></path>
            <path d="M13.317,15.807 C-0.251,-1.916 16.091,45.528 16.313,47.321 C17.778,59.147 19.816,70.922 20.981,82.772 C23.451,107.887 21.154,132.936 22.605,158.057" id="Fill-195"></path>
            <path d="M14.798,14.656 L14.371,14.112 L13.952,13.596 L13.55,13.121 L13.163,12.68 L12.788,12.275 L12.427,11.906 L12.075,11.568 L11.727,11.259 L11.387,10.984 L11.044,10.735 L10.688,10.512 L10.32,10.322 L9.925,10.164 L9.477,10.049 L8.995,10.003 L8.477,10.047 L7.939,10.21 L7.469,10.476 L7.084,10.81 L6.783,11.188 L6.571,11.561 L6.416,11.928 L6.302,12.299 L6.223,12.662 L6.166,13.026 L6.129,13.402 L6.109,13.783 L6.103,14.173 L6.109,14.579 L6.129,15.015 L6.195,15.868 L6.303,16.803 L6.448,17.793 L6.623,18.831 L6.83,19.921 L7.066,21.055 L7.326,22.226 L7.609,23.433 L7.915,24.669 L8.238,25.926 L8.577,27.201 L8.928,28.488 L9.29,29.781 L9.66,31.074 L10.035,32.363 L10.413,33.629 L10.793,34.896 L11.17,36.117 L11.548,37.336 L11.91,38.483 L12.272,39.627 L12.619,40.71 L12.95,41.736 L13.266,42.7 L13.564,43.603 L13.838,44.432 L14.085,45.18 L14.308,45.849 L14.497,46.424 L14.65,46.901 L14.712,47.096 L14.763,47.264 L14.804,47.399 L14.832,47.499 L14.845,47.545 L14.841,47.512 L15.046,48.985 L15.25,50.465 L15.452,51.946 L15.653,53.426 L15.86,54.906 L16.067,56.384 L16.279,57.861 L16.491,59.338 L16.707,60.814 L16.923,62.288 L17.139,63.763 L17.354,65.235 L17.567,66.708 L17.781,68.183 L17.996,69.658 L18.209,71.125 L18.407,72.594 L18.607,74.07 L18.807,75.546 L19.008,77.01 L19.182,78.476 L19.357,79.954 L19.531,81.433 L19.705,82.9 L19.861,84.457 L20.018,86.016 L20.15,87.574 L20.28,89.134 L20.389,90.694 L20.497,92.255 L20.586,93.816 L20.671,95.378 L20.738,96.939 L20.805,98.502 L20.857,100.064 L20.908,101.627 L20.945,103.19 L20.98,104.753 L21.002,106.317 L21.024,107.881 L21.036,109.445 L21.047,111.01 L21.061,112.575 L21.086,114.14 L21.11,115.706 L21.14,117.272 L21.16,118.838 L21.175,120.406 L21.185,121.973 L21.192,123.541 L21.197,125.109 L21.2,126.677 L21.202,128.244 L21.202,129.812 L21.201,131.38 L21.2,132.953 L21.216,134.527 L21.232,136.095 L21.249,137.663 L21.265,139.232 L21.28,140.8 L21.293,142.368 L21.306,143.937 L21.319,145.518 L21.383,147.101 L21.447,148.67 L21.511,150.24 L21.575,151.809 L21.639,153.378 L21.702,154.947 L21.766,156.517 L21.83,158.086 C21.846,158.513 22.206,158.847 22.633,158.832486 C23.061,158.816 23.395,158.456 23.379,158.028 L23.327,156.459 L23.274,154.889 L23.222,153.319 L23.169,151.75 L23.116,150.18 L23.064,148.61 L23.011,147.041 L22.959,145.484 L22.958,143.929 L22.957,142.361 L22.957,140.793 L22.958,139.224 L22.961,137.656 L22.963,136.087 L22.966,134.519 L22.969,132.956 L22.99,131.393 L23.012,129.825 L23.035,128.258 L23.059,126.69 L23.085,125.122 L23.113,123.554 L23.143,121.987 L23.175,120.418 L23.208,118.85 L23.246,117.281 L23.285,115.712 L23.318,114.142 L23.338,112.572 L23.348,111.001 L23.34,109.43 L23.332,107.859 L23.313,106.287 L23.295,104.715 L23.265,103.142 L23.238,101.569 L23.198,99.996 L23.159,98.421 L23.103,96.847 L23.048,95.271 L22.974,93.696 L22.904,92.119 L22.817,90.543 L22.731,88.965 L22.623,87.387 L22.517,85.807 L22.387,84.227 L22.258,82.645 L22.109,81.152 L21.961,79.67 L21.813,78.189 L21.664,76.695 L21.487,75.204 L21.31,73.724 L21.132,72.245 L20.952,70.759 L20.755,69.274 L20.559,67.797 L20.363,66.319 L20.165,64.839 L19.959,63.36 L19.754,61.884 L19.547,60.407 L19.34,58.931 L19.134,57.456 L18.927,55.982 L18.723,54.508 L18.52,53.035 L18.324,51.561 L18.129,50.088 L17.957,48.614 L17.785,47.131 L17.758,46.958 L17.726,46.804 L17.689,46.646 L17.647,46.472 L17.596,46.276 L17.537,46.053 L17.402,45.554 L17.236,44.956 L17.043,44.27 L16.824,43.508 L16.581,42.668 L16.317,41.756 L16.035,40.784 L15.731,39.753 L15.414,38.669 L15.081,37.521 L14.748,36.375 L14.401,35.156 L14.052,33.94 L13.699,32.677 L13.345,31.415 L12.994,30.139 L12.648,28.858 L12.311,27.58 L11.984,26.309 L11.67,25.055 L11.373,23.822 L11.091,22.616 L10.83,21.445 L10.593,20.316 L10.379,19.232 L10.193,18.205 L10.04,17.241 L9.917,16.344 L9.831,15.531 L9.781,14.788 L9.771,14.482 L9.769,14.188 L9.776,13.922 L9.79,13.688 L9.811,13.496 L9.837,13.342 L9.862,13.232 L9.878,13.182 L9.879,13.182 L9.846,13.237 L9.753,13.354 L9.603,13.485 L9.394,13.601 L9.147,13.677 L8.949,13.696 L8.815,13.683 L8.746,13.668 L8.761,13.676 L8.834,13.715 L8.952,13.792 L9.117,13.914 L9.314,14.077 L9.541,14.283 L9.798,14.534 L10.079,14.827 L10.383,15.162 L10.712,15.544 L11.062,15.967 L11.433,16.433 L11.836,16.957 C12.472,17.775 13.65,17.923 14.467,17.287 C15.285,16.652 15.433,15.474 14.798,14.656 Z" id="Fill-196"></path>
            <path d="M6.479,21.771 C-7.151,36.785 13.173,95.231 8.272,120.716" id="Fill-197"></path>
            <path d="M5.059,20.547 L4.613,21.073 L4.162,21.667 L3.743,22.284 L3.349,22.924 L2.981,23.593 L2.641,24.281 L2.325,24.991 L2.031,25.725 L1.763,26.477 L1.515,27.249 L1.288,28.043 L1.083,28.855 L0.896,29.685 L0.729,30.535 L0.582,31.403 L0.451,32.287 L0.339,33.191 L0.245,34.111 L0.166,35.046 L0.103,35.999 L0.056,36.968 L0.021,37.95 L0.002,38.95 L0,39.968 L0.016,40.996 L0.034,42.028 L0.078,43.091 L0.123,44.15 L0.195,45.238 L0.273,46.321 L0.374,47.428 L0.48,48.533 L0.592,49.663 L0.696,50.792 L0.804,51.943 L0.909,53.093 L1.028,54.261 L1.148,55.429 L1.283,56.614 L1.42,57.797 L1.57,58.996 L1.72,60.194 L1.882,61.403 L2.048,62.612 L2.223,63.832 L2.397,65.05 L2.582,66.278 L2.767,67.505 L2.962,68.741 L3.157,69.973 L3.351,71.206 L3.546,72.44 L3.746,73.681 L3.946,74.919 L4.143,76.158 L4.34,77.396 L4.534,78.63 L4.724,79.866 L4.912,81.102 L5.1,82.336 L5.28,83.559 L5.461,84.785 L5.638,86.011 L5.813,87.232 L5.973,88.433 L6.134,89.64 L6.295,90.847 L6.479,92.042 L6.646,93.208 L6.823,94.382 L6.992,95.556 L7.157,96.724 L7.296,97.869 L7.435,99.014 L7.554,100.14 L7.671,101.265 L7.77,102.368 L7.866,103.471 L7.945,104.551 L8.023,105.629 L8.081,106.681 L8.139,107.732 L8.174,108.754 L8.206,109.776 L8.217,110.769 L8.226,111.756 L8.194,113.674 L8.108,115.522 L8.045,116.41 L7.968,117.283 L7.876,118.136 L7.77,118.97 L7.649,119.781 L7.509,120.579 C7.433,121 7.713,121.403 8.135,121.479 C8.556,121.555 8.959,121.275 9.035,120.854 L9.186,120.039 L9.323,119.194 L9.442,118.329 L9.548,117.447 L9.637,116.544 L9.712,115.618 L9.821,113.735 L9.876,111.778 L9.877,110.762 L9.88,109.751 L9.861,108.712 L9.845,107.672 L9.806,106.603 L9.768,105.535 L9.709,104.439 L9.65,103.345 L9.575,102.228 L9.502,101.111 L9.413,99.971 L9.326,98.831 L9.227,97.67 L9.129,96.507 L9.018,95.32 L8.913,94.138 L8.816,92.955 L8.708,91.765 L8.575,90.547 L8.418,89.339 L8.261,88.132 L8.103,86.919 L7.932,85.687 L7.762,84.46 L7.596,83.232 L7.429,82.001 L7.255,80.76 L7.082,79.522 L6.91,78.283 L6.743,77.043 L6.574,75.8 L6.406,74.557 L6.241,73.314 L6.076,72.073 L5.916,70.837 L5.756,69.6 L5.597,68.363 L5.437,67.129 L5.283,65.904 L5.127,64.679 L4.977,63.464 L4.827,62.25 L4.686,61.047 L4.542,59.845 L4.406,58.656 L4.269,57.468 L4.144,56.295 L4.017,55.125 L3.903,53.972 L3.789,52.819 L3.689,51.685 L3.592,50.552 L3.526,49.44 L3.468,48.33 L3.443,47.243 L3.412,46.158 L3.396,45.097 L3.374,44.041 L3.37,43.013 L3.364,41.988 L3.382,40.994 L3.397,39.996 L3.428,39.032 L3.469,38.082 L3.523,37.151 L3.589,36.239 L3.668,35.348 L3.761,34.477 L3.868,33.626 L3.988,32.8 L4.121,31.995 L4.268,31.211 L4.429,30.455 L4.605,29.721 L4.795,29.012 L5,28.331 L5.222,27.675 L5.457,27.045 L5.707,26.446 L5.973,25.872 L6.253,25.326 L6.546,24.812 L6.856,24.324 L7.179,23.863 L7.514,23.435 L7.9,22.995 C8.576,22.211 8.488,21.027 7.703,20.351 C6.919,19.675 5.735,19.763 5.059,20.547 Z" id="Fill-198"></path>
        </g>
    </g>
</svg>
