<?xml version="1.0" encoding="UTF-8"?>
<svg width="208px" height="152px" viewBox="0 0 208 152" version="1.1" xmlns="http://www.w3.org/2000/svg" xmlns:xlink="http://www.w3.org/1999/xlink">
    <title>232</title>
    <g id="Page-1" stroke="none" stroke-width="1" fill="none" fill-rule="evenodd">
        <g id="232" transform="translate(0.774685, 0.934620)" fill="currentColor">
            <path d="M2.552,52.7560736 L2.38,52.8480736 L2.113,53.0020736 L1.751,53.2440736 L1.484,53.4590736 L0.566,54.5590736 L0.566,54.5590736 L0.566,54.5590736 L0.566,54.5590736 L0.565,54.5600736 L0.565,54.5600736 L0.565,54.5610736 L0.564,54.5610736 L0.564,54.5620736 L0.563,54.5630736 L0.563,54.5640736 L0.562,54.5650736 L0.562,54.5660736 L0.561,54.5670736 L0.56,54.5690736 L0.56,54.5700736 L0.519,54.6420736 L0.439,54.7950736 L0.359,54.9660736 L0.28,55.1560736 L0.205,55.3660736 L0.136,55.5990736 L0.078,55.8560736 L0.032,56.1350736 L0.005,56.4370736 L0,56.7580736 L0.021,57.0960736 L0.072,57.4430736 L0.154,57.7920736 L0.266,58.1370736 L0.408,58.4690736 L0.573,58.7810736 L0.664,58.9280736 L0.665,58.9290736 L0.665,58.9300736 L0.666,58.9310736 L0.666,58.9320736 L0.667,58.9320736 L0.667,58.9330736 L0.667,58.9330736 L0.668,58.9340736 L0.668,58.9340736 L0.668,58.9350736 L0.668,58.9350736 L0.669,58.9350736 L0.669,58.9350736 L0.669,58.9350736 L7.682,54.4240736 L7.672,54.4090736 L0.659,58.9200736 L0.66,58.9200736 L0.66,58.9210736 L0.661,58.9220736 L0.661,58.9230736 L0.662,58.9250736 L0.664,58.9260736 L0.837,59.1750736 L1.203,59.6010736 L1.573,59.9340736 L1.925,60.1870736 L2.248,60.3740736 L2.536,60.5110736 L2.792,60.6110736 L3.017,60.6840736 L3.121,60.7130736 L3.124,60.7140736 L3.127,60.7150736 L3.13,60.7150736 L3.132,60.7160736 L3.133,60.7160736 L3.134,60.7160736 L3.135,60.7160736 L4.173,60.8570736 L4.48,60.8510736 L4.851,60.8160736 L5.122,60.7750736 L5.359,60.7300736 L5.58,60.6820736 L5.801,60.6300736 L6.032,60.5720736 L6.273,60.5090736 L6.528,60.4400736 L6.8,60.3640736 L7.096,60.2800736 L7.713,60.1000736 L8.414,59.8900736 L9.188,59.6540736 L10.031,59.3930736 L10.948,59.1060736 L11.938,58.7930736 L12.993,58.4580736 L14.119,58.0970736 L15.315,57.7120736 L16.571,57.3030736 L17.894,56.8710736 L19.281,56.4150736 L20.725,55.9360736 L22.229,55.4330736 L23.794,54.9100736 L25.412,54.3680736 L27.086,53.8040736 L28.812,53.2110736 L30.586,52.6000736 L32.408,51.9600736 L34.279,51.2950736 L35.231,50.9390736 L36.183,50.5830736 L37.159,50.2180736 L38.141,49.8720736 L39.149,49.5300736 L40.156,49.1880736 L41.185,48.8410736 L42.219,48.5150736 L43.275,48.1820736 L44.331,47.8490736 L45.406,47.5060736 L46.481,47.1610736 L47.573,46.8100736 L48.665,46.4590736 L49.775,46.0990736 L50.885,45.7400736 L52.012,45.3750736 L53.14,45.0100736 L54.284,44.6410736 L55.427,44.2710736 L56.587,43.9000736 L57.748,43.5290736 L58.924,43.1530736 L60.101,42.7810736 L61.292,42.4070736 L62.482,42.0330736 L63.687,41.6550736 L64.892,41.2770736 L66.109,40.8960736 L67.327,40.5160736 L68.556,40.1340736 L69.785,39.7520736 L71.025,39.3640736 L72.265,38.9770736 L73.515,38.5860736 L74.764,38.1930736 L76.025,37.7960736 L77.287,37.3990736 L78.549,37.0010736 L79.81,36.6020736 L81.086,36.2000736 L82.363,35.7920736 L83.639,35.3850736 L84.913,34.9760736 L86.199,34.5630736 L87.487,34.1480736 L88.774,33.7340736 L90.06,33.3200736 L91.354,32.9050736 L92.65,32.4900736 L93.946,32.0740736 L95.24,31.6600736 L96.542,31.2500736 L97.846,30.8400736 L99.15,30.4310736 L100.452,30.0230736 L101.757,29.6170736 L103.064,29.2110736 L104.372,28.8100736 L105.678,28.4100736 L106.982,28.0150736 L108.289,27.6210736 L109.596,27.2270736 L110.904,26.8350736 L112.211,26.4430736 L113.519,26.0510736 L114.823,25.6470736 L116.122,25.2430736 L117.407,24.8480736 L118.692,24.4380736 L119.978,24.0280736 L121.264,23.6210736 L122.553,23.2210736 L123.841,22.8210736 L125.131,22.4240736 L126.415,22.0310736 L127.671,21.6540736 L128.934,21.2770736 L130.197,20.9010736 L131.459,20.5260736 L132.723,20.1530736 L133.988,19.7820736 L135.252,19.4110736 L136.511,19.0420736 L137.745,18.6850736 L138.982,18.3270736 L140.22,17.9720736 L141.455,17.6180736 L142.666,17.2750736 L143.881,16.9330736 L145.096,16.5900736 L146.307,16.2490736 L147.491,15.9200736 L148.678,15.5900736 L149.866,15.2600736 L151.051,14.9310736 L152.215,14.6110736 L153.38,14.2910736 L154.529,13.9770736 L155.677,13.6640736 L156.809,13.3590736 L157.941,13.0540736 L159.057,12.7570736 L160.173,12.4600736 L161.27,12.1710736 L162.368,11.8840736 L163.446,11.6050736 L164.524,11.3250736 L165.583,11.0540736 L166.642,10.7830736 L167.68,10.5200736 L168.718,10.2580736 L169.734,10.0050736 L170.75,9.75107361 L171.745,9.50707361 L172.74,9.26207361 L173.71,9.02807361 L174.68,8.79407361 L176.574,8.34407361 L178.42,7.91507361 L180.212,7.50707361 L181.95,7.12107361 L183.637,6.75507361 L185.265,6.41407361 L186.841,6.09407361 C188.082,5.84207361 188.884,4.63007361 188.631,3.38807361 C188.378,2.14707361 187.167,1.34507361 185.925,1.59807361 L184.334,1.92307361 L182.677,2.27407361 L180.965,2.64807361 L179.204,3.04207361 L177.389,3.45907361 L175.524,3.89607361 L173.615,4.35307361 L172.635,4.59207361 L171.655,4.83007361 L170.653,5.07807361 L169.65,5.32607361 L168.628,5.58307361 L167.605,5.84007361 L166.56,6.10607361 L165.516,6.37207361 L164.45,6.64707361 L163.385,6.92207361 L162.302,7.20507361 L161.218,7.48707361 L160.115,7.77907361 L159.012,8.06907361 L157.89,8.36607361 L156.769,8.66407361 L155.632,8.96807361 L154.494,9.27107361 L153.339,9.58107361 L152.184,9.89107361 L151.013,10.2090736 L149.842,10.5260736 L148.65,10.8530736 L147.461,11.1790736 L146.272,11.5050736 L145.079,11.8320736 L143.859,12.1710736 L142.643,12.5100736 L141.427,12.8480736 L140.206,13.1860736 L138.962,13.5350736 L137.722,13.8820736 L136.48,14.2280736 L135.235,14.5740736 L133.962,14.9340736 L132.694,15.2920736 L131.427,15.6500736 L130.158,16.0070736 L128.889,16.3600736 L127.62,16.7140736 L126.35,17.0660736 L125.074,17.4180736 L123.77,17.7850736 L122.47,18.1470736 L121.17,18.5070736 L119.869,18.8670736 L118.567,19.2190736 L117.263,19.5690736 L115.96,19.9180736 L114.655,20.2830736 L113.337,20.6590736 L112.025,21.0340736 L110.716,21.4220736 L109.406,21.8100736 L108.097,22.1970736 L106.788,22.5820736 L105.478,22.9680736 L104.165,23.3530736 L102.849,23.7400736 L101.536,24.1270736 L100.222,24.5100736 L98.905,24.8910736 L97.591,25.2740736 L96.279,25.6550736 L94.966,26.0360736 L93.652,26.4170736 L92.342,26.7940736 L91.034,27.1700736 L89.726,27.5450736 L88.416,27.9220736 L87.115,28.2970736 L85.816,28.6720736 L84.516,29.0470736 L83.215,29.4230736 L81.927,29.8000736 L80.642,30.1770736 L79.356,30.5540736 L78.071,30.9370736 L76.801,31.3170736 L75.533,31.6970736 L74.266,32.0780736 L72.998,32.4590736 L71.742,32.8380736 L70.488,33.2190736 L69.245,33.5990736 L68.001,33.9780736 L66.77,34.3570736 L65.538,34.7360736 L64.318,35.1110736 L63.097,35.4850736 L61.889,35.8550736 L60.681,36.2260736 L59.486,36.5920736 L58.292,36.9580736 L57.111,37.3190736 L55.928,37.6760736 L54.761,38.0290736 L53.594,38.3820736 L52.442,38.7270736 L51.291,39.0720736 L50.155,39.4120736 L49.019,39.7530736 L47.901,40.0880736 L46.782,40.4240736 L45.684,40.7560736 L44.586,41.0880736 L43.505,41.4150736 L42.426,41.7450736 L41.368,42.0720736 L40.31,42.3990736 L39.273,42.7200736 L38.23,43.0190736 L37.206,43.3120736 L36.183,43.6050736 L35.179,43.8790736 L34.17,44.1340736 L33.184,44.3830736 L32.199,44.6320736 L30.283,45.1490736 L28.421,45.6580736 L26.615,46.1630736 L24.86,46.6550736 L23.164,47.1390736 L21.527,47.6090736 L19.945,48.0610736 L18.424,48.4960736 L16.967,48.9120736 L15.57,49.3140736 L14.24,49.6960736 L12.979,50.0570736 L11.782,50.4010736 L10.658,50.7210736 L9.608,51.0180736 L8.627,51.2940736 L7.724,51.5450736 L6.902,51.7700736 L6.155,51.9720736 L5.496,52.1460736 L4.918,52.2940736 L4.675,52.3550736 L4.449,52.4100736 L4.248,52.4570736 L4.074,52.4970736 L3.933,52.5270736 L3.826,52.5480736 L3.76,52.5600736 L3.755,52.5590736 L3.828,52.5470736 L4.044,52.5270736 L4.241,52.5200736 L5.279,52.6600736 L5.279,52.6600736 L5.278,52.6600736 L5.276,52.6590736 L5.274,52.6590736 L5.272,52.6580736 L5.269,52.6570736 L5.266,52.6560736 L5.362,52.6830736 L5.58,52.7540736 L5.829,52.8510736 L6.111,52.9860736 L6.429,53.1700736 L6.776,53.4190736 L7.142,53.7490736 L7.506,54.1710736 L7.676,54.4160736 L7.675,54.4140736 L7.674,54.4130736 L7.674,54.4110736 L7.673,54.4100736 L7.672,54.4100736 L7.672,54.4090736 L0.659,58.9200736 L0.669,58.9350736 L7.682,54.4240736 L7.682,54.4240736 L7.682,54.4240736 L7.682,54.4240736 L7.682,54.4240736 L7.682,54.4230736 L7.681,54.4230736 L7.681,54.4220736 L7.681,54.4220736 L7.68,54.4210736 L7.68,54.4200736 L7.679,54.4200736 L7.679,54.4190736 L7.678,54.4180736 L7.678,54.4170736 L7.767,54.5630736 L7.932,54.8730736 L8.072,55.2020736 L8.184,55.5450736 L8.266,55.8920736 L8.316,56.2370736 L8.337,56.5720736 L8.332,56.8910736 L8.305,57.1900736 L8.26,57.4670736 L8.202,57.7210736 L8.134,57.9510736 L8.06,58.1590736 L7.983,58.3460736 L7.903,58.5140736 L7.825,58.6650736 L7.786,58.7330736 L7.787,58.7320736 L7.788,58.7310736 L7.788,58.7300736 L7.789,58.7290736 L7.79,58.7280736 L7.79,58.7270736 L7.791,58.7260736 L7.791,58.7250736 L7.791,58.7240736 L7.792,58.7240736 L7.792,58.7230736 L7.792,58.7230736 L7.792,58.7230736 L7.792,58.7230736 L7.793,58.7220736 L6.875,59.8220736 L6.682,59.9730736 L6.439,60.1370736 L6.34,60.1960736 L6.385,60.1760736 C8.434,59.1180736 9.237,56.5990736 8.179,54.5500736 C7.12,52.5010736 4.601,51.6980736 2.552,52.7560736 Z" id="Fill-34"></path>
            <path d="M10.412,149.789074 L11.299,149.065074 L12.185,148.341074 L13.071,147.618074 L13.943,146.906074 L14.821,146.202074 L15.713,145.487074 L16.605,144.772074 L17.483,144.068074 L18.366,143.373074 L19.264,142.667074 L20.161,141.960074 L21.046,141.262074 L21.934,140.571074 L22.835,139.871074 L23.737,139.170074 L24.623,138.478074 L25.514,137.792074 L26.418,137.097074 L27.323,136.402074 L28.214,135.716074 L29.111,135.038074 L30.021,134.351074 L30.931,133.664074 L31.825,132.979074 L32.724,132.302074 L33.635,131.617074 L34.545,130.931074 L35.44,130.248074 L36.34,129.574074 L37.252,128.890074 L38.16,128.202074 L39.049,127.510074 L39.944,126.826074 L40.85,126.134074 L41.764,125.455074 L42.678,124.795074 L43.596,124.142074 L44.523,123.482074 L45.459,122.834074 L46.388,122.198074 L47.322,121.570074 L48.267,120.936074 L49.208,120.297074 L50.14,119.664074 L51.076,119.039074 L52.021,118.407074 L52.966,117.773074 L53.902,117.144074 L54.841,116.522074 L55.79,115.894074 L56.738,115.267074 L57.678,114.645074 L58.621,114.030074 L59.574,113.410074 L60.529,112.792074 L61.474,112.179074 L62.424,111.573074 L63.383,110.963074 L64.344,110.355074 L65.297,109.752074 L66.254,109.155074 L67.219,108.553074 L68.184,107.952074 L69.14,107.355074 L70.1,106.766074 L71.07,106.171074 L72.04,105.578074 L73.001,104.989074 L73.966,104.406074 L74.939,103.817074 L75.911,103.228074 L76.876,102.644074 L77.845,102.064074 L78.819,101.478074 L79.794,100.892074 L80.761,100.311074 L81.731,99.7360736 L82.709,99.1550736 L83.686,98.5740736 L84.656,97.9970736 L85.629,97.4260736 L86.609,96.8470736 L87.588,96.2680736 L88.56,95.6930736 L89.535,95.1220736 L90.516,94.5460736 L91.497,93.9700736 L92.471,93.3970736 L93.448,92.8310736 L94.432,92.2600736 L95.416,91.6890736 L96.394,91.1220736 L97.375,90.5600736 L98.362,89.9950736 L99.35,89.4300736 L100.331,88.8670736 L101.318,88.3140736 L102.311,87.7570736 L103.303,87.2000736 L104.29,86.6470736 L105.28,86.0990736 L106.276,85.5480736 L107.272,84.9970736 L108.262,84.4500736 L109.258,83.9110736 L110.259,83.3690736 L111.26,82.8270736 L112.256,82.2890736 L113.256,81.7560736 L114.261,81.2200736 L115.266,80.6840736 L116.266,80.1520736 L117.268,79.6260736 L118.277,79.0960736 L119.285,78.5660736 L120.285,78.0330736 L121.286,77.5020736 L122.292,76.9680736 L123.298,76.4340736 L124.293,75.8950736 L125.291,75.3600736 L126.296,74.8220736 L127.3,74.2840736 L128.308,73.7520736 L129.317,73.2210736 L130.325,72.6890736 L131.333,72.1590736 L132.334,71.6360736 L133.34,71.1210736 L134.355,70.6010736 L135.37,70.0830736 L136.386,69.5650736 L137.402,69.0480736 L138.418,68.5310736 L139.434,68.0150736 L140.444,67.5050736 L141.458,67.0030736 L142.479,66.4960736 L143.501,65.9900736 L144.523,65.4830736 L145.545,64.9770736 L146.567,64.4710736 L147.589,63.9660736 L148.605,63.4650736 L149.625,62.9700736 L150.651,62.4720736 L151.678,61.9750736 L152.705,61.4780736 L153.731,60.9810736 L154.758,60.4830736 L155.784,59.9860736 L156.805,59.4930736 L157.828,59.0050736 L158.858,58.5140736 L159.888,58.0240736 L160.918,57.5330736 L161.948,57.0430736 L162.979,56.5520736 L164.009,56.0610736 L165.033,55.5730736 L166.06,55.0910736 L167.094,54.6070736 L168.127,54.1240736 L169.161,53.6400736 L170.195,53.1560736 L171.229,52.6740736 L172.263,52.1910736 L173.292,51.7110736 L174.324,51.2360736 L175.36,50.7580736 L176.397,50.2800736 L177.433,49.8020736 L178.47,49.3250736 L179.506,48.8470736 L180.543,48.3690736 L181.574,47.8930736 L182.609,47.4220736 L183.647,46.9490736 L184.686,46.4760736 L185.724,46.0030736 L186.763,45.5300736 L187.802,45.0570736 L188.84,44.5840736 L189.875,44.1130736 L190.911,43.6450736 L191.952,43.1760736 L192.992,42.7070736 L194.032,42.2380736 L195.073,41.7690736 L196.113,41.3000736 L197.153,40.8310736 L198.194,40.3610736 C199.348,39.8400736 199.861,38.4810736 199.34,37.3260736 C198.818,36.1710736 197.459,35.6580736 196.304,36.1800736 L195.265,36.6510736 L194.225,37.1210736 L193.185,37.5920736 L192.146,38.0630736 L191.106,38.5330736 L190.066,39.0040736 L189.027,39.4750736 L187.983,39.9470736 L186.941,40.4240736 L185.904,40.8980736 L184.866,41.3730736 L183.828,41.8480736 L182.79,42.3230736 L181.752,42.7970736 L180.714,43.2720736 L179.672,43.7490736 L178.631,44.2300736 L177.595,44.7100736 L176.56,45.1890736 L175.524,45.6680736 L174.488,46.1480736 L173.452,46.6270736 L172.417,47.1060736 L171.376,47.5880736 L170.338,48.0740736 L169.305,48.5580736 L168.271,49.0420736 L167.237,49.5250736 L166.203,50.0080736 L165.169,50.4910736 L164.135,50.9740736 L163.095,51.4580736 L162.057,51.9480736 L161.026,52.4360736 L159.994,52.9230736 L158.963,53.4110736 L157.931,53.8980736 L156.899,54.3860736 L155.868,54.8730736 L154.83,55.3640736 L153.795,55.8610736 L152.767,56.3550736 L151.739,56.8490736 L150.71,57.3430736 L149.682,57.8370736 L148.654,58.3310736 L147.625,58.8240736 L146.59,59.3200736 L145.558,59.8220736 L144.533,60.3220736 L143.507,60.8190736 L142.481,61.3160736 L141.454,61.8140736 L140.428,62.3110736 L139.402,62.8080736 L138.368,63.3100736 L137.338,63.8190736 L136.315,64.3220736 L135.292,64.8240736 L134.268,65.3250736 L133.244,65.8270736 L132.22,66.3270736 L131.195,66.8270736 L130.161,67.3310736 L129.132,67.8430736 L128.11,68.3480736 L127.088,68.8520736 L126.066,69.3560736 L125.044,69.8600736 L124.019,70.3570736 L122.993,70.8540736 L121.961,71.3550736 L120.932,71.8620736 L119.915,72.3760736 L118.898,72.8890736 L117.876,73.4050736 L116.857,73.9280736 L115.847,74.4550736 L114.838,74.9820736 L113.822,75.5120736 L112.809,76.0450736 L111.801,76.5750736 L110.794,77.1060736 L109.781,77.6380736 L108.77,78.1750736 L107.763,78.7070736 L106.757,79.2400736 L105.745,79.7750736 L104.734,80.3130736 L103.728,80.8470736 L102.723,81.3800736 L101.711,81.9170736 L100.702,82.4590736 L99.699,82.9970736 L98.696,83.5350736 L97.687,84.0760736 L96.679,84.6190736 L95.677,85.1580736 L94.675,85.6970736 L93.666,86.2400736 L92.66,86.7880736 L91.661,87.3330736 L90.662,87.8780736 L89.656,88.4260736 L88.653,88.9810736 L87.657,89.5310736 L86.662,90.0810736 L85.66,90.6370736 L84.662,91.1990736 L83.671,91.7580736 L82.68,92.3160736 L81.683,92.8810736 L80.69,93.4540736 L79.704,94.0220736 L78.719,94.5900736 L77.726,95.1630736 L76.737,95.7430736 L75.756,96.3180736 L74.775,96.8930736 L73.788,97.4750736 L72.804,98.0630736 L71.828,98.6460736 L70.852,99.2290736 L69.868,99.8190736 L68.888,100.415074 L67.917,101.006074 L66.945,101.597074 L65.964,102.192074 L64.987,102.794074 L64.019,103.390074 L63.051,103.987074 L62.075,104.588074 L61.102,105.195074 L60.137,105.797074 L59.171,106.397074 L58.195,107.001074 L57.223,107.612074 L56.26,108.217074 L55.296,108.821074 L54.323,109.430074 L53.353,110.045074 L52.393,110.655074 L51.433,111.265074 L50.464,111.881074 L49.499,112.503074 L48.543,113.119074 L47.588,113.737074 L46.623,114.362074 L45.663,114.994074 L44.713,115.621074 L43.766,116.251074 L42.808,116.888074 L41.855,117.533074 L40.908,118.164074 L39.953,118.784074 L38.989,119.411074 L38.029,120.044074 L37.069,120.658074 L36.101,121.260074 L35.122,121.869074 L34.147,122.486074 L33.191,123.107074 L32.239,123.732074 L31.275,124.367074 L30.315,125.009074 L29.371,125.647074 L28.427,126.286074 L27.472,126.934074 L26.522,127.589074 L25.586,128.240074 L24.651,128.892074 L23.702,129.554074 L22.759,130.223074 L21.828,130.883074 L20.898,131.543074 L19.954,132.213074 L19.016,132.893074 L18.093,133.564074 L17.17,134.236074 L16.234,134.917074 L15.304,135.606074 L14.386,136.287074 L13.469,136.968074 L12.538,137.660074 L11.612,138.360074 L10.7,139.050074 L9.789,139.740074 L8.862,140.441074 L7.941,141.151074 L7.035,141.849074 L6.129,142.547074 L5.222,143.246074 C3.416,144.679074 3.113,147.305074 4.546,149.112074 C5.979,150.919074 8.606,151.222074 10.412,149.789074 Z" id="Fill-35"></path>
            <path d="M165.262,48.2340736 L166.701,47.3190736 L168.133,46.4860736 L169.603,45.6820736 L171.093,44.8680736 L172.626,44.1050736 L174.244,43.5070736 L175.885,42.9300736 L177.559,42.4160736 L179.26,41.9430736 L180.977,41.4780736 L182.703,41.0050736 L184.44,40.5390736 L186.2,40.1120736 L187.97,39.7160736 L189.737,39.3060736 L191.505,38.8550736 L193.271,38.4390736 L195.049,38.0420736 L196.809,37.6320736 L198.578,37.2210736 L200.317,36.7730736 L202.067,36.3270736 L203.772,35.8120736 L205.448,35.3070736 C206.206,35.0760736 206.634,34.2750736 206.403,33.5170736 C206.172,32.7600736 205.371,32.3320736 204.613,32.5630736 L202.94,33.0760736 L201.296,33.5810736 L199.608,34.0210736 L197.909,34.4590736 L196.176,34.8430736 L194.433,35.2290736 L192.669,35.5780736 L190.893,35.9080736 L189.098,36.1860736 L187.302,36.5060736 L185.511,36.8650736 L183.711,37.1930736 L181.901,37.5190736 L180.098,37.8800736 L178.309,38.2990736 L176.532,38.7660736 L174.761,39.2600736 L172.998,39.7710736 L171.252,40.3430736 L169.474,40.8480736 L167.709,41.4110736 L165.982,42.0920736 L164.284,42.8700736 L162.668,43.7040736 C161.417,44.4210736 160.983,46.0160736 161.7,47.2670736 C162.416,48.5170736 164.011,48.9510736 165.262,48.2340736 Z" id="Fill-153"></path>
            <path d="M174.701,58.7960736 L175.858,57.7400736 L177.007,56.7060736 L178.154,55.6670736 L179.269,54.5840736 L180.422,53.5520736 L181.643,52.6130736 L182.873,51.6760736 L184.119,50.7630736 L185.378,49.8750736 L186.629,48.9680736 L187.869,48.0470736 L189.107,47.1150736 L190.363,46.2100736 L191.638,45.3280736 L192.9,44.4240736 L194.143,43.4830736 L195.406,42.5670736 L196.677,41.6720736 L197.956,40.7860736 L199.25,39.8920736 L200.533,38.9660736 L201.805,38.0550736 L203.077,37.1440736 L204.349,36.2330736 C204.991,35.7700736 205.137,34.8730736 204.674,34.2310736 C204.21,33.5880736 203.314,33.4430736 202.672,33.9060736 L201.405,34.8240736 L200.138,35.7420736 L198.871,36.6610736 L197.616,37.5650736 L196.342,38.4240736 L195.053,39.2930736 L193.756,40.1510736 L192.452,40.9890736 L191.12,41.7790736 L189.808,42.6080736 L188.51,43.4570736 L187.192,44.2840736 L185.864,45.0970736 L184.538,45.9200736 L183.235,46.7830736 L181.941,47.6640736 L180.651,48.5590736 L179.346,49.4290736 L178.046,50.3310736 L176.693,51.1670736 L175.315,51.9840736 L173.983,52.8760736 L172.671,53.8120736 L171.385,54.7650736 C170.272,55.6800736 170.112,57.3250736 171.028,58.4390736 C171.943,59.5520736 173.588,59.7120736 174.701,58.7960736 Z" id="Fill-154"></path>
            <path d="M154.798,7.15307361 L156.311,6.64907361 L157.786,6.21907361 L159.284,5.82307361 L160.797,5.41307361 L162.335,5.07707361 L163.907,4.90107361 L165.493,4.74707361 L167.093,4.65607361 L168.706,4.60207361 L170.329,4.54907361 L171.962,4.48307361 L173.607,4.41407361 L175.26,4.36807361 L176.912,4.35207361 L178.563,4.31407361 L180.249,4.23107361 L181.927,4.11607361 L183.571,4.02307361 L185.215,3.94407361 L186.939,3.86007361 L188.643,3.59607361 L190.268,3.34807361 L191.894,3.10007361 L193.519,2.85107361 C194.302,2.73007361 194.838,1.99707361 194.716,1.21407361 C194.594,0.431073611 193.861,-0.103926389 193.079,0.0170736112 L191.455,0.274073611 L189.83,0.531073611 L188.206,0.788073611 L186.66,1.03007361 L185.094,1.08507361 L183.448,1.14507361 L181.803,1.19207361 L180.19,1.21707361 L178.573,1.12307361 L176.922,1.07407361 L175.271,1.04807361 L173.62,0.991073611 L171.965,0.908073611 L170.301,0.849073611 L168.633,0.838073611 L166.962,0.868073611 L165.284,0.920073611 L163.604,0.980073611 L161.921,1.09507361 L160.216,1.14507361 L158.5,1.23007361 L156.785,1.43807361 L155.065,1.74507361 L153.401,2.12307361 C152.012,2.50907361 151.198,3.94807361 151.584,5.33707361 C151.97,6.72607361 153.409,7.53907361 154.798,7.15307361 Z" id="Fill-155"></path>
            <path d="M160.348,20.1310736 L161.677,19.1870736 L162.997,18.2960736 L164.335,17.4140736 L165.669,16.5030736 L167.041,15.6460736 L168.488,14.9170736 L169.947,14.1980736 L171.433,13.5290736 L172.938,12.8870736 L174.449,12.2430736 L175.96,11.5850736 L177.477,10.9270736 L179.016,10.3010736 L180.568,9.70307361 L182.116,9.09207361 L183.656,8.43807361 L185.209,7.82007361 L186.773,7.22107361 L188.334,6.62007361 L189.902,6.01807361 L191.457,5.39507361 L193.021,4.77507361 L194.563,4.11507361 L196.088,3.46207361 C196.815,3.14807361 197.15,2.30407361 196.836,1.57707361 C196.523,0.849073611 195.679,0.514073611 194.951,0.828073611 L193.43,1.48907361 L191.927,2.14307361 L190.403,2.75607361 L188.871,3.36807361 L187.322,3.94507361 L185.767,4.52207361 L184.2,5.07407361 L182.621,5.60807361 L181.025,6.09507361 L179.437,6.62607361 L177.862,7.18907361 L176.273,7.72407361 L174.675,8.25107361 L173.084,8.80407361 L171.51,9.40507361 L169.948,10.0430736 L168.389,10.6970736 L166.828,11.3530736 L165.281,12.0500736 L163.692,12.6810736 L162.1,13.3270736 L160.546,14.0700736 L159.016,14.8830736 L157.538,15.7320736 C156.323,16.5070736 155.967,18.1210736 156.743,19.3360736 C157.519,20.5510736 159.133,20.9070736 160.348,20.1310736 Z" id="Fill-156"></path>
        </g>
    </g>
</svg>
