<?xml version="1.0" encoding="UTF-8"?>
<svg width="328px" height="194px" viewBox="0 0 328 194" version="1.1" xmlns="http://www.w3.org/2000/svg" xmlns:xlink="http://www.w3.org/1999/xlink">
    <title>233</title>
    <g id="Page-1" stroke="none" stroke-width="1" fill="none" fill-rule="evenodd">
        <g id="233" transform="translate(0.096772, 0.101429)" fill="currentColor">
            <path d="M51.1669131,183.800765 L50.8029131,184.116965 L50.4899131,184.384965 L50.2099131,184.617965 L49.9659131,184.816965 L49.7649131,184.975265 L49.6059131,185.095465 L49.4969131,185.175065 L49.4599131,185.201765 L49.5089131,185.176565 L49.6959131,185.089365 L50.1739131,184.927165 L51.1769131,184.803565 L53.0919131,185.309965 L54.8769131,187.308265 L55.1809131,188.944265 L55.0679131,189.757565 L54.9409131,190.151465 L54.8729131,190.303565 L54.8539131,190.336865 L54.8749131,190.296865 L54.9359131,190.193665 L55.0279131,190.048465 L55.1469131,189.869265 L55.2929131,189.655565 L55.4629131,189.415465 L55.6539131,189.151065 L55.8689131,188.861265 L56.1019131,188.550965 L56.3539131,188.220565 L56.6249131,187.869165 L56.9139131,187.500365 L57.2189131,187.114165 L57.5419131,186.709965 L57.8789131,186.290465 L58.2319131,185.855765 L58.5959131,185.409865 L59.3749131,184.464865 L60.2029131,183.471865 L61.0819131,182.429565 L62.0019131,181.347365 L62.9629131,180.224965 L63.9609131,179.066665 L64.9899131,177.880365 L66.0479131,176.667865 L67.1299131,175.430565 L68.2329131,174.177065 L69.3539131,172.910465 L70.4889131,171.636365 L71.6409131,170.353165 L72.7899131,169.072765 L73.9459131,167.796465 L75.0979131,166.517565 L76.2419131,165.263865 L77.3859131,164.008865 L78.5049131,162.786865 L79.6229131,161.566465 L80.7039131,160.403865 L81.7739131,159.231065 L82.7879131,158.131765 L83.8059131,157.029265 L84.7729131,155.996265 L85.7259131,155.033865 L86.6369131,154.127165 L87.5049131,153.276065 L88.3209131,152.491865 L89.0919131,151.778565 L89.9479131,151.010365 L90.8129131,150.234165 L91.6779131,149.457965 L92.5429131,148.681865 L93.4069131,147.903665 L94.2689131,147.124265 L95.1309131,146.344865 L95.9889131,145.568965 L96.8519131,144.794065 L97.7179131,144.014465 L98.5829131,143.234465 L99.4489131,142.454465 L100.314913,141.674565 L101.180913,140.894565 L102.046913,140.114565 L102.907913,139.338565 L103.773913,138.563965 L104.644913,137.785465 L105.515913,137.007065 L106.387913,136.230265 L107.260913,135.453465 L108.132913,134.676665 L109.004913,133.899765 L109.873913,133.127365 L110.748913,132.358765 L111.627913,131.586365 L112.506913,130.813965 L113.385913,130.041665 L114.264913,129.269365 L115.144913,128.497265 L116.023913,127.725165 L116.897913,126.957465 L117.777913,126.192165 L118.662913,125.423065 L119.547913,124.654265 L120.432913,123.885465 L121.317913,123.116665 L122.202913,122.347865 L123.087913,121.578165 L123.965913,120.813065 L124.849913,120.050865 L125.738913,119.284065 L126.627913,118.517165 L127.515913,117.748665 L128.403913,116.980165 L129.291913,116.211465 L130.179913,115.442965 L131.061913,114.678865 L131.947913,113.917365 L132.839913,113.151265 L133.731913,112.385265 L134.623913,111.619165 L135.514913,110.852165 L136.403913,110.083665 L137.293913,109.315065 L138.177913,108.551765 L139.065913,107.792365 L139.959913,107.026765 L140.852913,106.260265 L141.745913,105.493665 L142.638913,104.727165 L143.531913,103.960665 L144.424913,103.194165 L145.311913,102.432865 L146.203913,101.676365 L147.101913,100.914465 L148.000913,100.152565 L148.898913,99.3906649 L149.796913,98.6287649 L150.694913,97.8668649 L151.593913,97.1050649 L152.485913,96.3485649 L153.385913,95.5989649 L154.290913,94.8444649 L155.195913,94.0899649 L156.100913,93.3354649 L157.006913,92.5811649 L157.911913,91.8271649 L158.817913,91.0731649 L159.716913,90.3246649 L160.620913,89.5818649 L161.532913,88.8352649 L162.445913,88.0896649 L163.358913,87.3441649 L164.271913,86.5985649 L165.184913,85.8531649 L166.099913,85.1087649 L167.006913,84.3703649 L167.918913,83.6381649 L168.837913,82.9003649 L169.757913,82.1625649 L170.677913,81.4256649 L171.597913,80.6887649 L172.518913,79.9519649 L173.438913,79.2150649 L174.350913,78.4820649 L175.263913,77.7504649 L176.183913,77.0135649 L177.104913,76.2765649 L178.024913,75.5396649 L178.941913,74.7993649 L179.855913,74.0551649 L180.770913,73.3108649 L181.677913,72.5725649 L182.589913,71.8414649 L183.511913,71.1077649 L184.434913,70.3756649 L185.358913,69.6435649 L186.281913,68.9114649 L187.205913,68.1793649 L188.130913,67.4495649 L189.048913,66.7261649 L189.971913,66.0105649 L190.902913,65.2890649 L191.833913,64.5675649 L192.765913,63.8475649 L193.697913,63.1275649 L194.630913,62.4075649 L195.562913,61.6875649 L196.487913,60.9736649 L197.419913,60.2690649 L198.357913,59.5590649 L199.296913,58.8490649 L200.235913,58.1390649 L201.174913,57.4290649 L202.112913,56.7190649 L203.051913,56.0091649 L203.982913,55.3051649 L204.918913,54.6101649 L205.863913,53.9100649 L206.808913,53.2104649 L207.753913,52.5106649 L208.698913,51.8109649 L209.643913,51.1112649 L210.589913,50.4122649 L211.526913,49.7195649 L212.468913,49.0363649 L213.419913,48.3468649 L214.370913,47.6574649 L215.322913,46.9679649 L216.273913,46.2785649 L217.224913,45.5890649 L218.175913,44.8995649 L219.118913,44.2159649 L220.065913,43.5413649 L221.021913,42.8610649 L221.977913,42.1806649 L222.933913,41.5003649 L223.889913,40.8199649 L224.845913,40.1396649 L225.801913,39.4592649 L226.748913,38.7854649 L227.700913,38.1220649 L228.662913,37.4528649 L229.624913,36.7839649 L230.586913,36.1150649 L231.547913,35.4460649 L232.510913,34.7771649 L233.472913,34.1088649 L234.425913,33.4474649 L235.383913,32.7971649 L236.351913,32.1401649 L237.319913,31.4831649 L238.287913,30.8260649 L239.255913,30.1690649 L240.223913,29.5120649 L241.191913,28.8550649 L242.152913,28.2027649 L243.116913,27.5582649 L244.088913,26.9090649 L245.060913,26.2599649 L246.026913,25.6142649 L246.995913,24.9745649 L247.969913,24.3313649 L248.944913,23.6881649 L249.913913,23.0484649 L250.885913,22.4148649 L251.862913,21.7777649 L252.839913,21.1406649 L253.811913,20.5067649 L254.786913,19.8785649 L255.765913,19.2470649 L256.745913,18.6156649 L257.719913,17.9878649 L258.695913,17.3662649 L259.678913,16.7411649 L260.660913,16.1159649 L261.637913,15.4945649 L262.616913,14.8795649 L263.601913,14.2608649 L264.586913,13.6422649 L265.571913,13.0236649 C266.645569,12.3490649 266.967913,10.9327649 266.292913,9.86006494 C265.618913,8.7867748 264.201913,8.46466494 263.129913,9.13916494 L262.144913,9.75896494 L261.160913,10.3787649 L260.176913,10.9986649 L259.185913,11.6220649 L258.198913,12.2520649 L257.216913,12.8783649 L256.235913,13.5046649 L255.248913,14.1345649 L254.263913,14.7707649 L253.284913,15.4033649 L252.305913,16.0360649 L251.322913,16.6719649 L250.340913,17.3134649 L249.364913,17.9517649 L248.387913,18.5900649 L247.406913,19.2318649 L246.427913,19.8797649 L245.453913,20.5241649 L244.479913,21.1684649 L243.501913,21.8163649 L242.524913,22.4701649 L241.554913,23.1204649 L240.583913,23.7707649 L239.605913,24.4257649 L238.631913,25.0885649 L237.664913,25.7467649 L236.696913,26.4049649 L235.729913,27.0630649 L234.762913,27.7212649 L233.795913,28.3794649 L232.828913,29.0376649 L231.851913,29.7024649 L230.879913,30.3784649 L229.917913,31.0476649 L228.955913,31.7161649 L227.993913,32.3845649 L227.031913,33.0530649 L226.068913,33.7215649 L225.106913,34.3897649 L224.133913,35.0637649 L223.167913,35.7484649 L222.209913,36.4265649 L221.252913,37.1046649 L220.294913,37.7828649 L219.337913,38.4609649 L218.379913,39.1390649 L217.422913,39.8171649 L216.456913,40.5011649 L215.495913,41.1941649 L214.542913,41.8813649 L213.590913,42.5686649 L212.637913,43.2558649 L211.684913,43.9430649 L210.732913,44.6302649 L209.779913,45.3175649 L208.818913,46.0109649 L207.862913,46.7140649 L206.915913,47.4106649 L205.967913,48.1066649 L205.019913,48.8026649 L204.071913,49.4987649 L203.123913,50.1947649 L202.175913,50.8903649 L201.218913,51.5910649 L200.266913,52.3006649 L199.323913,53.0042649 L198.379913,53.7078649 L197.436913,54.4113649 L196.492913,55.1149649 L195.548913,55.8184649 L194.605913,56.5221649 L193.654913,57.2310649 L192.707913,57.9459649 L191.766913,58.6548649 L190.826913,59.3637649 L189.885913,60.0725649 L188.944913,60.7814649 L188.003913,61.4889649 L187.061913,62.1961649 L186.112913,62.9094649 L185.167913,63.6306649 L184.230913,64.3455649 L183.292913,65.0581649 L182.353913,65.7707649 L181.415913,66.4833649 L180.476913,67.1959649 L179.536913,67.9068649 L178.586913,68.6204649 L177.641913,69.3414649 L176.704913,70.0565649 L175.767913,70.7715649 L174.833913,71.4906649 L173.901913,72.2130649 L172.969913,72.9353649 L172.038913,73.6577649 L171.099913,74.3855649 L170.170913,75.1242649 L169.248913,75.8590649 L168.326913,76.5938649 L167.404913,77.3286649 L166.482913,78.0635649 L165.560913,78.7974649 L164.637913,79.5313649 L163.707913,80.2708649 L162.783913,81.0167649 L161.865913,81.7567649 L160.946913,82.4954649 L160.028913,83.2343649 L159.109913,83.9730649 L158.191913,84.7118649 L157.271913,85.4495649 L156.344913,86.1910649 L155.421913,86.9383649 L154.505913,87.6800649 L153.590913,88.4218649 L152.674913,89.1632649 L151.758913,89.9044649 L150.842913,90.6457649 L149.926913,91.3869649 L149.004913,92.1331649 L148.084913,92.8819649 L147.171913,93.6251649 L146.257913,94.3685649 L145.343913,95.1118649 L144.430913,95.8552649 L143.516913,96.5985649 L142.602913,97.3419649 L141.682913,98.0905649 L140.767913,98.8440649 L139.859913,99.5921649 L138.950913,100.340165 L138.042913,101.088265 L137.133913,101.836365 L136.224913,102.584465 L135.317913,103.333465 L134.404913,104.088765 L133.496913,104.848265 L132.594913,105.602465 L131.692913,106.356765 L130.792913,107.112665 L129.892913,107.869565 L128.993913,108.626265 L128.093913,109.383065 L127.188913,110.144465 L126.288913,110.909665 L125.394913,111.670565 L124.499913,112.431465 L123.605913,113.192265 L122.711913,113.953165 L121.818913,114.715665 L120.925913,115.478265 L120.026913,116.245465 L119.133913,117.015965 L118.245913,117.781865 L117.359913,118.548665 L116.472913,119.315465 L115.585913,120.082265 L114.698913,120.849065 L113.811913,121.615565 L112.918913,122.385965 L112.030913,123.158865 L111.148913,123.927365 L110.265913,124.695865 L109.383913,125.464165 L108.500913,126.232465 L107.617913,127.000665 L106.734913,127.768865 L105.847913,128.540965 L104.963913,129.312765 L104.082913,130.080265 L103.202913,130.847665 L102.321913,131.615165 L101.441913,132.382565 L100.559913,133.148465 L99.6779131,133.914165 L98.7909131,134.683865 L97.9099131,135.455065 L97.0329131,136.222365 L96.1559131,136.989665 L95.2789131,137.756965 L94.4019131,138.524165 L93.5249131,139.291565 L92.6479131,140.059165 L91.7679131,140.831465 L90.8929131,141.604665 L90.0219131,142.374265 L89.1519131,143.143965 L88.2819131,143.914865 L87.4139131,144.687765 L86.5459131,145.460665 L85.6779131,146.233565 L84.8019131,147.014365 L83.9689131,147.756465 L83.0769131,148.560065 L82.1399131,149.420465 L81.1639131,150.330365 L80.1469131,151.292065 L79.0709131,152.281765 L77.9559131,153.322265 L76.8369131,154.365765 L75.6679131,155.485465 L74.5109131,156.615265 L73.3169131,157.800465 L72.1239131,158.984165 L70.9149131,160.208765 L69.7059131,161.434665 L68.4889131,162.685165 L67.2749131,163.938365 L66.0719131,165.200665 L64.8709131,166.460265 L63.6809131,167.719865 L62.5059131,168.969665 L61.3509131,170.206465 L60.2169131,171.428465 L59.1099131,172.633265 L58.0349131,173.813065 L56.9899131,174.967165 L55.9809131,176.090165 L55.0159131,177.177065 L54.0899131,178.227765 L53.2109131,179.235465 L52.3879131,180.190365 L51.9889131,180.657665 L51.6079131,181.107865 L51.2409131,181.543965 L50.8869131,181.967665 L50.5479131,182.378065 L50.2249131,182.773365 L49.9159131,183.155665 L49.6219131,183.524465 L49.3439131,183.877665 L49.0809131,184.218165 L48.8319131,184.546465 L48.5999131,184.860365 L48.3799131,185.164465 L48.1729131,185.462365 L47.9799131,185.752465 L47.7949131,186.045565 L47.6129131,186.358165 L47.4339131,186.698965 L47.2479131,187.116865 L47.0479131,187.729565 L46.9099131,188.713465 L47.2309131,190.475565 L49.0819131,192.549865 L51.1129131,193.081065 L52.2779131,192.934865 L52.9689131,192.696765 L53.4219131,192.479365 L53.7839131,192.273665 L54.1159131,192.063665 L54.4299131,191.848965 L54.7459131,191.621765 L55.0769131,191.373365 L55.4219131,191.104965 L55.7859131,190.814665 L56.1759131,190.496765 L56.5759131,190.163465 C58.3329131,188.669665 58.5469131,186.034365 57.0529131,184.277365 C55.5589131,182.520365 52.9239131,182.307065 51.1669131,183.800765 Z" id="Fill-32"></path>
            <path d="M5.25091313,135.399265 L6.74091313,134.987165 L8.22991313,134.575265 L9.71991313,134.163165 L11.2099131,133.751165 L12.6989131,133.339165 L14.1889131,132.927165 L15.6779131,132.515065 L17.1679131,132.103165 L18.6579131,131.691065 L20.1469131,131.279065 L21.6369131,130.867065 L23.1259131,130.455065 L24.6159131,130.041965 L26.1049131,129.627965 L27.5939131,129.213965 L29.0829131,128.799965 L30.5719131,128.384765 L32.0599131,127.967465 L33.5479131,127.550265 L35.0359131,127.133065 L36.5249131,126.715765 L38.0129131,126.298565 L39.5009131,125.881265 L40.9889131,125.464065 L42.4769131,125.046365 L43.9639131,124.623365 L45.4509131,124.200365 L46.9369131,123.777365 L48.4239131,123.354365 L49.9089131,122.925765 L51.3939131,122.496665 L52.8759131,122.068365 L54.3579131,121.643065 L55.8379131,121.203565 L57.3179131,120.759865 L58.7969131,120.316065 L60.2769131,119.872265 L61.7609131,119.444865 L63.2469131,119.028665 L64.7339131,118.612465 L66.2209131,118.196365 L67.7099131,117.788265 L69.2009131,117.391065 L70.6929131,116.993865 L72.1849131,116.596565 L73.6769131,116.198065 L75.1669131,115.795865 L76.6569131,115.393665 L78.1479131,114.991465 L79.6379131,114.589065 L81.1279131,114.184765 L82.6179131,113.780465 L84.1079131,113.376165 L85.5979131,112.971865 L87.0879131,112.567465 L88.5779131,112.163165 L90.0679131,111.758865 L91.5579131,111.354565 L93.0479131,110.952265 L94.5389131,110.550465 L96.0289131,110.148765 L97.5199131,109.746965 L99.0109131,109.347665 L100.497913,108.951165 L101.984913,108.559765 L103.476913,108.167065 L104.968913,107.774565 L106.460913,107.382265 L107.953913,106.989965 L109.445913,106.597665 L110.937913,106.205765 L112.430913,105.814665 L113.922913,105.423565 L115.415913,105.032565 L116.907913,104.641265 L118.400913,104.248465 L119.892913,103.855665 L121.384913,103.462965 L122.876913,103.070165 L124.367913,102.674965 L125.859913,102.279665 L127.350913,101.884465 L128.842913,101.489065 L130.333913,101.092965 L131.824913,100.696665 L133.316913,100.300265 L134.807913,99.9038649 L136.297913,99.5050649 L137.787913,99.1050649 L139.278913,98.7049649 L140.768913,98.3049649 L142.258913,97.9034649 L143.747913,97.5004649 L145.237913,97.0974649 L146.726913,96.6944649 L148.211913,96.2924649 L149.698913,95.8952649 L151.188913,95.4968649 L152.679913,95.0984649 L154.169913,94.7000649 L155.660913,94.3016649 L157.151913,93.9032649 L158.641913,93.5048649 L160.132913,93.1065649 L161.623913,92.7119649 L163.115913,92.3175649 L164.607913,91.9229649 L166.098913,91.5284649 L167.590913,91.1345649 L169.082913,90.7407649 L170.573913,90.3469649 L172.062913,89.9541649 L173.552913,89.5680649 L175.046913,89.1822649 L176.540913,88.7964649 L178.034913,88.4107649 L179.529913,88.0260649 L181.023913,87.6422649 L182.518913,87.2585649 L184.012913,86.8748649 L185.507913,86.4915649 L187.002913,86.1092649 L188.497913,85.7268649 L189.992913,85.3444649 L191.486913,84.9603649 L192.979913,84.5690649 L194.472913,84.1778649 L195.960913,83.7875649 L197.451913,83.4015649 L198.942913,83.0044649 L200.434913,82.6074649 L201.926913,82.2104649 L203.417913,81.8133649 L204.911913,81.4223649 L206.404913,81.0323649 L207.898913,80.6422649 L209.391913,80.2520649 L210.885913,79.8646649 L212.380913,79.4784649 L213.874913,79.0921649 L215.368913,78.7058649 L216.863913,78.3206649 L218.358913,77.9365649 L219.849913,77.5532649 L221.343913,77.1746649 L222.840913,76.7963649 L224.337913,76.4201649 L225.835913,76.0439649 L227.332913,75.6677649 L228.830913,75.2915649 L230.327913,74.9153649 L231.825913,74.5391649 L233.323913,74.1629649 L234.820913,73.7869649 L236.318913,73.4126649 L237.816913,73.0384649 L239.314913,72.6641649 L240.812913,72.2898649 L242.311913,71.9165649 L243.805913,71.5443649 L245.301913,71.1776649 L246.802913,70.8100649 L248.302913,70.4423649 L249.803913,70.0746649 L251.303913,69.7069649 L252.804913,69.3392649 L254.305913,68.9715649 L255.805913,68.6038649 L257.306913,68.2362649 L258.806913,67.8685649 L260.307913,67.5008649 L261.807913,67.1331649 L263.308913,66.7654649 L264.809913,66.3977649 L266.309913,66.0304649 L267.806913,65.6651649 L269.304913,65.3058649 L270.808913,64.9455649 L272.312913,64.5853649 L273.815913,64.2260649 L275.319913,63.8668649 L276.823913,63.5075649 L278.327913,63.1483649 L279.830913,62.7890649 L281.334913,62.4298649 L282.838913,62.0706649 L284.342913,61.7113649 L285.846913,61.3521649 L287.349913,60.9928649 L288.853913,60.6336649 L290.357913,60.2743649 L291.857913,59.9159649 L292.546913,59.7552649 L293.299913,59.5836649 L294.113913,59.4026649 L294.975913,59.2138649 L295.886913,59.0179649 L296.841913,58.8156649 L297.831913,58.6085649 L298.856913,58.3972649 L299.909913,58.1826649 L300.985913,57.9659649 L302.080913,57.7479649 L303.189913,57.5297649 L304.311913,57.3125649 L305.432913,57.0955649 L306.554913,56.8835649 L307.676913,56.6717649 L308.778913,56.4690649 L309.881913,56.2664649 L310.948913,56.0755649 L312.015913,55.8849649 L313.025913,55.7110649 L314.031913,55.5379649 L315.906913,55.2303649 C317.156913,55.0246649 318.003913,53.8443649 317.797913,52.5940649 C317.592913,51.3437649 316.411913,50.4968649 315.161913,50.7025649 L313.274913,51.0141649 L312.245913,51.1923649 L311.220913,51.3699649 L310.140913,51.5641649 L309.061913,51.7581649 L307.948913,51.9639649 L306.835913,52.1698649 L305.702913,52.3849649 L304.570913,52.5999649 L303.439913,52.8200649 L302.310913,53.0399649 L301.190913,53.2615649 L300.085913,53.4826649 L298.999913,53.7025649 L297.936913,53.9204649 L296.900913,54.1352649 L295.898913,54.3457649 L294.930913,54.5517649 L294.005913,54.7519649 L293.126913,54.9450649 L292.295913,55.1311649 L291.519913,55.3086649 L290.802913,55.4768649 L289.295913,55.8385649 L287.792913,56.1992649 L286.288913,56.5601649 L284.785913,56.9209649 L283.281913,57.2817649 L281.778913,57.6425649 L280.274913,58.0033649 L278.771913,58.3642649 L277.268913,58.7249649 L275.764913,59.0858649 L274.261913,59.4466649 L272.757913,59.8074649 L271.254913,60.1682649 L269.750913,60.5281649 L268.246913,60.8878649 L266.738913,61.2486649 L265.232913,61.6156649 L263.731913,61.9806649 L262.230913,62.3451649 L260.729913,62.7097649 L259.227913,63.0743649 L257.726913,63.4389649 L256.224913,63.8036649 L254.723913,64.1681649 L253.222913,64.5327649 L251.720913,64.8973649 L250.219913,65.2619649 L248.718913,65.6265649 L247.216913,65.9911649 L245.715913,66.3557649 L244.214913,66.7203649 L242.708913,67.0860649 L241.205913,67.4572649 L239.706913,67.8272649 L238.206913,68.1964649 L236.707913,68.5656649 L235.208913,68.9347649 L233.708913,69.3039649 L232.209913,69.6712649 L230.709913,70.0384649 L229.209913,70.4057649 L227.709913,70.7729649 L226.209913,71.1401649 L224.710913,71.5073649 L223.210913,71.8745649 L221.710913,72.2417649 L220.210913,72.6068649 L218.705913,72.9716649 L217.203913,73.3410649 L215.704913,73.7094649 L214.205913,74.0770649 L212.705913,74.4433649 L211.206913,74.8097649 L209.707913,75.1760649 L208.207913,75.5412649 L206.706913,75.9038649 L205.206913,76.2663649 L203.706913,76.6289649 L202.205913,76.9905649 L200.703913,77.3461649 L199.201913,77.7017649 L197.699913,78.0573649 L196.197913,78.4129649 L194.693913,78.7796649 L193.191913,79.1511649 L191.693913,79.5217649 L190.195913,79.8922649 L188.699913,80.2700649 L187.203913,80.6494649 L185.708913,81.0289649 L184.212913,81.4083649 L182.716913,81.7869649 L181.220913,82.1650649 L179.724913,82.5431649 L178.228913,82.9212649 L176.732913,83.2982649 L175.235913,83.6743649 L173.739913,84.0504649 L172.242913,84.4265649 L170.742913,84.8021649 L169.242913,85.1792649 L167.746913,85.5553649 L166.249913,85.9314649 L164.753913,86.3075649 L163.256913,86.6828649 L161.760913,87.0583649 L160.263913,87.4336649 L158.767913,87.8090649 L157.269913,88.1806649 L155.772913,88.5521649 L154.274913,88.9236649 L152.777913,89.2951649 L151.279913,89.6666649 L149.782913,90.0382649 L148.284913,90.4097649 L146.782913,90.7823649 L145.282913,91.1596649 L143.785913,91.5357649 L142.289913,91.9119649 L140.792913,92.2880649 L139.296913,92.6657649 L137.801913,93.0449649 L136.305913,93.4240649 L134.809913,93.8032649 L133.314913,94.1836649 L131.819913,94.5664649 L130.325913,94.9492649 L128.830913,95.3321649 L127.335913,95.7151649 L125.841913,96.0990649 L124.346913,96.4829649 L122.852913,96.8668649 L121.357913,97.2508649 L119.864913,97.6372649 L118.370913,98.0236649 L116.876913,98.4100649 L115.382913,98.7964649 L113.889913,99.1843649 L112.396913,99.5725649 L110.902913,99.9606649 L109.409913,100.348765 L107.915913,100.736065 L106.422913,101.122865 L104.928913,101.509765 L103.434913,101.896665 L101.941913,102.283365 L100.447913,102.669865 L98.9489131,103.057665 L97.4509131,103.450665 L95.9569131,103.840865 L94.4629131,104.228565 L92.9689131,104.616465 L91.4749131,105.004165 L89.9799131,105.391365 L88.4849131,105.776665 L86.9899131,106.161865 L85.4949131,106.547065 L83.9999131,106.932365 L82.5049131,107.317565 L81.0109131,107.702765 L79.5159131,108.087965 L78.0209131,108.473265 L76.5259131,108.860365 L75.0319131,109.247665 L73.5369131,109.635065 L72.0429131,110.022365 L70.5489131,110.413265 L69.0559131,110.805665 L67.5629131,111.197865 L66.0699131,111.590265 L64.5739131,111.971765 L63.0759131,112.345165 L61.5779131,112.718465 L60.0799131,113.091865 L58.5789131,113.453865 L57.0739131,113.799665 L55.5679131,114.145365 L54.0629131,114.491165 L52.5579131,114.841365 L51.0549131,115.205565 L49.5499131,115.572665 L48.0479131,115.938965 L46.5469131,116.305865 L45.0469131,116.678265 L43.5469131,117.050765 L42.0459131,117.423165 L40.5459131,117.795665 L39.0479131,118.173465 L37.5489131,118.551765 L36.0499131,118.929865 L34.5519131,119.308165 L33.0529131,119.686265 L31.5539131,120.064565 L30.0559131,120.442765 L28.5569131,120.820965 L27.0589131,121.201165 L25.5619131,121.582665 L24.0639131,121.964165 L22.5659131,122.345565 L21.0689131,122.727965 L19.5709131,123.111465 L18.0739131,123.494865 L16.5769131,123.878265 L15.0799131,124.261765 L13.5819131,124.645165 L12.0849131,125.028565 L10.5879131,125.412065 L9.09091313,125.795465 L7.59391313,126.178965 L6.09591313,126.562365 L4.59891313,126.945765 L3.10191313,127.329165 C0.872913127,127.922665 -0.452086873,130.210365 0.141913127,132.438865 C0.734913127,134.667365 3.02291313,135.992765 5.25091313,135.399265 Z" id="Fill-33"></path>
            <path d="M289.496913,54.8988649 L290.578913,54.9460649 L291.678913,54.9728649 L292.765913,54.9666649 L293.843913,54.9341649 L294.914913,54.8557649 L295.979913,54.7033649 L297.021913,54.6203649 L298.067913,54.5901649 L299.107913,54.5221649 L300.141913,54.4579649 L301.172913,54.3954649 L302.199913,54.3393649 L303.225913,54.2711649 L304.242913,54.1910649 L305.259913,54.0990649 L306.269913,53.9916649 L307.286913,53.8896649 L308.309913,53.8014649 L309.333913,53.7249649 L310.331913,53.6639649 L311.344913,53.6248649 L312.384913,53.5387649 L313.423913,53.4750649 L314.442913,53.4274649 L315.293913,53.4260649 L316.149913,53.4446649 L317.004913,53.4800649 L317.861913,53.5226649 L318.721913,53.5676649 L319.594913,53.6118649 L321.343913,53.6833649 L323.145913,53.6842649 L324.952913,53.5706649 C325.721913,53.5197649 326.303913,52.8551649 326.252913,52.0860649 C326.201913,51.3169649 325.537913,50.7346649 324.768913,50.7854649 L323.050913,50.9049649 L321.394913,50.9128649 L319.716913,50.8511649 L318.876913,50.8025649 L318.018913,50.7478649 L317.148913,50.6946649 L316.265913,50.6462649 L315.364913,50.6037649 L314.437913,50.5745649 L313.375913,50.5614649 L312.334913,50.5323649 L311.292913,50.4807649 L310.225913,50.4760649 L309.173913,50.5172649 L308.147913,50.5428649 L307.120913,50.5567649 L306.087913,50.5568649 L305.060913,50.5637649 L304.040913,50.5860649 L303.020913,50.6201649 L302.010913,50.6662649 L301.000913,50.7048649 L299.995913,50.7370649 L298.988913,50.7372649 L297.987913,50.7337649 L296.983913,50.7237649 L295.975913,50.6610649 L294.982913,50.4917649 L293.987913,50.3653649 L292.991913,50.2503649 L291.996913,50.1272649 L291.002913,49.9964649 L289.981913,49.8419649 C288.584913,49.7081649 287.344913,50.7316649 287.210913,52.1280649 C287.076913,53.5244649 288.099913,54.7650649 289.496913,54.8988649 Z" id="Fill-99"></path>
            <path d="M294.789913,65.9699649 L296.058913,65.0657649 L297.298913,64.2022649 L298.526913,63.3519649 L299.715913,62.4525649 L300.982913,61.7219649 L302.277913,61.0527649 L303.593913,60.4306649 L304.938913,59.8765649 L306.311913,59.3577649 L307.705913,58.8529649 L309.129913,58.3658649 L310.612913,57.9385649 L311.923913,57.6325649 L313.236913,57.3617649 L314.540913,57.0509649 L315.854913,56.7823649 L317.173913,56.5388649 L318.506913,56.2939649 L319.825913,56.0238649 L321.170913,55.7482649 L322.508913,55.3950649 L323.868913,55.0360649 L325.224913,54.5404649 L326.518913,54.0659649 C327.241913,53.7984649 327.610913,52.9956649 327.343913,52.2727649 C327.075913,51.5498649 326.272913,51.1806649 325.549913,51.4481649 L324.258913,51.9302649 L323.028913,52.3913649 L321.797913,52.7206649 L320.545913,53.0557649 L319.283913,53.2988649 L317.996913,53.5471649 L316.705913,53.7547649 L315.387913,53.9434649 L314.045913,54.1115649 L312.677913,54.2612649 L311.293913,54.4984649 L309.884913,54.7729649 L308.268913,55.1037649 L306.678913,55.4730649 L305.135913,55.9207649 L303.630913,56.4394649 L302.158913,57.0144649 L300.704913,57.6104649 L299.265913,58.2383649 L297.831913,58.8894649 L296.339913,59.4541649 L294.898913,60.1404649 L293.473913,60.8915649 L292.072913,61.6771649 C290.887913,62.4273649 290.534913,63.9963649 291.284913,65.1817649 C292.034913,66.3672649 293.603913,66.7201649 294.789913,65.9699649 Z" id="Fill-100"></path>
            <path d="M244.103913,20.4727649 L245.181913,19.8583649 L246.227913,19.2584649 L247.286913,18.6760649 L248.347913,18.0761649 L249.405913,17.4604649 L250.466913,16.8237649 L251.586913,16.3180649 L252.706913,15.7999649 L253.833913,15.2942649 L254.973913,14.8046649 L256.118913,14.3255649 L257.268913,13.8346649 L258.408913,13.3248649 L259.535913,12.7976649 L260.660913,12.2652649 L261.811913,11.7340649 L262.950913,11.1848649 L264.074913,10.6617649 L265.189913,10.1203649 L266.325913,9.52046494 L267.438913,8.88636494 L268.521913,8.28826494 L269.607913,7.69816494 L270.735913,7.09516494 L271.961913,6.34806494 L273.136913,5.56726494 L274.279913,4.78496494 L275.400913,4.01636494 L276.511913,3.28296494 L277.659913,2.58726494 C278.317913,2.18576494 278.525913,1.32696494 278.123913,0.668964942 C277.722913,0.0109649424 276.863913,-0.197035058 276.205913,0.204464942 L275.016913,0.934764942 L273.844913,1.71686494 L272.708913,2.50426494 L271.593913,3.27576494 L270.482913,4.00326494 L269.363913,4.66956494 L268.302913,5.21806494 L267.201913,5.77946494 L266.094913,6.33306494 L265.018913,6.85046494 L263.897913,7.27526494 L262.756913,7.75876494 L261.622913,8.26056494 L260.504913,8.73606494 L259.363913,9.16406494 L258.194913,9.59056494 L257.027913,10.0224649 L255.875913,10.4717649 L254.723913,10.9256649 L253.566913,11.3913649 L252.408913,11.8537649 L251.236913,12.2999649 L250.069913,12.7561649 L248.901913,13.2247649 L247.691913,13.5947649 L246.479913,13.9857649 L245.295913,14.4414649 L244.107913,14.9148649 L242.942913,15.4348649 L241.808913,15.9403649 C240.556913,16.5740649 240.055913,18.1023649 240.689913,19.3538649 C241.323913,20.6054649 242.851913,21.1063649 244.103913,20.4727649 Z" id="Fill-101"></path>
            <path d="M250.970913,29.4679649 L251.362913,28.9165649 L251.743913,28.4097649 L252.142913,27.9118649 L252.551913,27.4201649 L252.967913,26.9349649 L253.383913,26.4680649 L254.278913,25.4864649 L255.156913,24.4862649 L256.160913,23.6025649 L257.210913,22.7286649 L258.274913,21.8416649 L259.358913,20.9635649 L260.474913,20.0692649 L261.556913,19.1090649 L262.624913,18.1342649 L263.887913,16.8555649 L265.133913,15.5816649 L266.391913,14.3250649 L267.624913,13.0500649 L268.828913,11.7528649 L270.065913,10.5061649 L271.340913,9.29566494 L272.608913,8.10356494 L273.922913,6.97446494 L275.230913,5.86286494 L276.601913,4.84556494 L278.008913,3.80046494 C278.626913,3.33926494 278.753913,2.46466494 278.291913,1.84716494 C277.830913,1.22966494 276.956913,1.10296494 276.338913,1.56416494 L274.937913,2.61676494 L273.500913,3.69706494 L272.128913,4.87316494 L270.762913,6.03186494 L269.438913,7.24946494 L268.120913,8.44856494 L266.802913,9.66056494 L265.467913,10.8383649 L264.165913,12.0376649 L262.885913,13.2413649 L261.580913,14.3971649 L260.267913,15.5006649 L259.197913,16.3615649 L258.141913,17.2369649 L257.072913,18.0672649 L255.971913,18.9138649 L254.860913,19.7327649 L253.734913,20.5647649 L252.600913,21.4205649 L251.382913,22.2110649 L250.238913,23.0943649 L249.657913,23.5910649 L249.097913,24.0954649 L248.550913,24.6225649 L248.012913,25.1720649 L247.482913,25.7467649 L246.988913,26.3137649 C246.117913,27.4134649 246.302913,29.0109649 247.402913,29.8819649 C248.502913,30.7529649 250.099913,30.5675649 250.970913,29.4679649 Z" id="Fill-102"></path>
            <path d="M261.830913,18.9719649 L262.226913,17.7012649 L262.832913,16.6707649 L263.640913,15.8714649 C264.221913,15.3644649 264.281913,14.4828649 263.774913,13.9022649 C263.267913,13.3216649 262.385913,13.2619649 261.804913,13.7689649 L260.904913,14.4619649 L259.801913,14.9237649 L258.488913,15.1454649 C257.432913,16.0681649 257.323913,17.6727649 258.246913,18.7293649 C259.168913,19.7860649 260.773913,19.8946649 261.830913,18.9719649 Z" id="Fill-103"></path>
            <path d="M262.521913,15.5127649 L262.864913,14.4288649 L263.388913,13.6070649 L264.086913,13.0376649 C264.720913,12.5989649 264.878913,11.7295649 264.439913,11.0958649 C264.000913,10.4621649 263.131913,10.3039649 262.497913,10.7427649 L261.719913,11.1960649 L260.765913,11.3970649 L259.630913,11.3358649 C258.477913,12.1343649 258.189913,13.7166649 258.987913,14.8700649 C259.786913,16.0235649 261.368913,16.3112649 262.521913,15.5127649 Z" id="Fill-104"></path>
            <path d="M263.829913,16.5802649 L264.930913,15.1354649 L266.143913,13.8603649 L267.413913,12.6665649 L268.672913,11.4597649 L270.033913,10.3723649 L271.465913,9.35136494 C272.090913,8.89966494 272.230913,8.02716494 271.778913,7.40266494 C271.326913,6.77806494 270.454913,6.63806494 269.829913,7.08976494 L268.411913,8.13036494 L266.923913,9.10446494 L265.396913,10.0199649 L263.882913,10.9484649 L262.335913,11.8575649 L260.676913,12.5969649 C259.576913,13.4676649 259.391913,15.0650649 260.261913,16.1650649 C261.132913,17.2650649 262.729913,17.4509649 263.829913,16.5802649 Z" id="Fill-105"></path>
        </g>
    </g>
</svg>
