<?xml version="1.0" encoding="UTF-8"?>
<svg width="203px" height="154px" viewBox="0 0 203 154" version="1.1" xmlns="http://www.w3.org/2000/svg" xmlns:xlink="http://www.w3.org/1999/xlink">
    <title>235</title>
    <g id="Page-1" stroke="none" stroke-width="1" fill="none" fill-rule="evenodd">
        <g id="235" transform="translate(0.550900, 0.000000)" fill="currentColor">
            <path d="M87.3297855,1.98469351 L86.4937855,3.40169351 L85.6577855,4.81869351 L84.8217855,6.23569351 L83.9817855,7.65969351 L83.1467855,9.08569351 L82.3167855,10.5056935 L81.4897855,11.9276935 L80.6607855,13.3566935 L79.8417855,14.7906935 L79.0257855,16.2196935 L78.2087855,17.6476935 L77.3957855,19.0836935 L76.5917855,20.5246935 L75.7977855,21.9656935 L75.0077855,23.4106935 L74.2377855,24.8716935 L73.4837855,26.3416935 L72.6937855,27.7846935 L71.8887855,29.2196935 L71.0527855,30.6396935 L70.2127855,32.0566935 L69.3827855,33.4766935 L68.5547855,34.8966935 L67.7277855,36.3226935 L66.9057855,37.7496935 L66.0847855,39.1746935 L65.2627855,40.5986935 L64.4367855,42.0196935 L63.6097855,43.4396935 L62.7767855,44.8566935 L61.9427855,46.2736935 L61.1067855,47.6936935 L60.2737855,49.1146935 L59.4407855,50.5316935 L58.6097855,51.9496935 L57.7797855,53.3686935 L56.9527855,54.7886935 L56.1287855,56.2106935 L55.3047855,57.6336935 L54.4817855,59.0576935 L53.6647855,60.4856935 L52.8507855,61.9136935 L52.0407855,63.3436935 L51.2327855,64.7746935 L50.4237855,66.2056935 L49.6157855,67.6376935 L48.8077855,69.0686935 L47.9997855,70.4986935 L47.1837855,71.9226935 L46.3657855,73.3486935 L45.5477855,74.7736935 L44.7277855,76.1976935 L43.9007855,77.6186935 L43.0737855,79.0386935 L42.2437855,80.4566935 L41.4127855,81.8736935 L40.5797855,83.2906935 L39.7537855,84.7116935 L38.9377855,86.1376935 L38.1317855,87.5706935 L37.3367855,89.0086935 L36.5327855,90.4426935 L35.7237855,91.8736935 L34.9137855,93.2946935 L34.0917855,94.7106935 L33.2647855,96.1296935 L32.4347855,97.5486935 L31.6007855,98.9646935 L30.7657855,100.379694 L29.9297855,101.794694 L29.0947855,103.209694 L28.2547855,104.622694 L27.4157855,106.034694 L26.5747855,107.446694 L25.7337855,108.858694 L24.8917855,110.269694 L24.0507855,111.681694 L23.2097855,113.093694 L22.3687855,114.504694 L21.5347855,115.904694 L20.6827855,117.294694 L19.8217855,118.694694 L18.9607855,120.094694 L18.0977855,121.493694 L17.2347855,122.892694 L16.3727855,124.291694 L15.5097855,125.690694 L14.6467855,127.089694 L13.7847855,128.488694 L12.9217855,129.887694 L12.0587855,131.286694 L11.1957855,132.685694 L10.3337855,134.084694 L9.47078547,135.483694 L8.60778547,136.882694 L7.74578547,138.281694 C7.08178547,139.361694 7.41778547,140.774694 8.49778547,141.438694 C9.57678547,142.102694 10.9897855,141.765694 11.6537855,140.686694 L12.5137855,139.285694 L13.3727855,137.884694 L14.2327855,136.483694 L15.0927855,135.082694 L15.9527855,133.681694 L16.8117855,132.280694 L17.6717855,130.880694 L18.5317855,129.479694 L19.3907855,128.078694 L20.2507855,126.677694 L21.1107855,125.276694 L21.9707855,123.875694 L22.8297855,122.474694 L23.6907855,121.074694 L24.5527855,119.675694 L25.4227855,118.264694 L26.2777855,116.844694 L27.1247855,115.436694 L27.9717855,114.028694 L28.8187855,112.620694 L29.6657855,111.212694 L30.5127855,109.804694 L31.3597855,108.396694 L32.2087855,106.989694 L33.0577855,105.582694 L33.9107855,104.177694 L34.7637855,102.773694 L35.6167855,101.368694 L36.4707855,99.9646935 L37.3297855,98.5636935 L38.1897855,97.1636935 L39.0567855,95.7586935 L39.9177855,94.3506935 L40.7797855,92.9516935 L41.6477855,91.5556935 L42.5237855,90.1636935 L43.3887855,88.7666935 L44.2447855,87.3636935 L45.0897855,85.9546935 L45.9287855,84.5406935 L46.7687855,83.1286935 L47.6097855,81.7166935 L48.4537855,80.3066935 L49.2987855,78.8976935 L50.1497855,77.4916935 L51.0027855,76.0866935 L51.8567855,74.6826935 L52.7117855,73.2776935 L53.5727855,71.8756935 L54.4327855,70.4746935 L55.2927855,69.0746935 L56.1527855,67.6736935 L57.0127855,66.2726935 L57.8717855,64.8716935 L58.7257855,63.4676935 L59.5777855,62.0636935 L60.4257855,60.6566935 L61.2737855,59.2486935 L62.1197855,57.8396935 L62.9647855,56.4296935 L63.8067855,55.0176935 L64.6467855,53.6056935 L65.4847855,52.1916935 L66.3227855,50.7816935 L67.1657855,49.3746935 L68.0107855,47.9646935 L68.8557855,46.5546935 L69.7067855,45.1486935 L70.5597855,43.7426935 L71.4167855,42.3406935 L72.2747855,40.9376935 L73.1297855,39.5386935 L73.9887855,38.1406935 L74.8457855,36.7376935 L75.7017855,35.3346935 L76.5477855,33.9286935 L77.4037855,32.5286935 L78.2907855,31.1436935 L79.1927855,29.7666935 L80.1297855,28.4176935 L81.0597855,27.0626935 L81.9697855,25.6916935 L82.8747855,24.3166935 L83.7707855,22.9426935 L84.6637855,21.5666935 L85.5547855,20.1836935 L86.4457855,18.8006935 L87.3337855,17.4236935 L88.2217855,16.0456935 L89.1107855,14.6616935 L89.9977855,13.2756935 L90.8797855,11.8956935 L91.7667855,10.5186935 L92.6567855,9.13469351 L93.5477855,7.75169351 L94.4387855,6.36769351 C95.6497855,4.40469351 95.0387855,1.83169351 93.0767855,0.62169351 C91.1127855,-0.58830649 88.5407855,0.0216935099 87.3297855,1.98469351 Z" id="Fill-29"></path>
            <path d="M195.252785,12.7686935 L193.924785,13.7256935 L192.597785,14.6826935 L191.269785,15.6386935 L189.932785,16.6026935 L188.596785,17.5776935 L187.271785,18.5456935 L185.948785,19.5166935 L184.617785,20.4956935 L183.291785,21.4906935 L181.974785,22.4776935 L180.658785,23.4656935 L179.337785,24.4626935 L178.022785,25.4756935 L176.719785,26.4876935 L175.421785,27.5066935 L174.127785,28.5476935 L172.846785,29.6136935 L171.551785,30.6416935 L170.242785,31.6516935 L168.909785,32.6416935 L167.571785,33.6316935 L166.245785,34.6236935 L164.921785,35.6176935 L163.594785,36.6186935 L162.269785,37.6286935 L160.951785,38.6346935 L159.633785,39.6396935 L158.305785,40.6446935 L156.980785,41.6576935 L155.657785,42.6606935 L154.334785,43.6626935 L153.004785,44.6686935 L151.677785,45.6816935 L150.356785,46.6886935 L149.036785,47.6976935 L147.711785,48.7116935 L146.392785,49.7356935 L145.081785,50.7566935 L143.770785,51.7796935 L142.454785,52.8076935 L141.146785,53.8466935 L139.846785,54.8836935 L138.549785,55.9246935 L137.247785,56.9716935 L135.951785,58.0246935 L134.660785,59.0736935 L133.369785,60.1226935 L132.072785,61.1756935 L130.776785,62.2266935 L129.484785,63.2736935 L128.192785,64.3206935 L126.892785,65.3686935 L125.595785,66.4176935 L124.301785,67.4616935 L123.006785,68.5036935 L121.705785,69.5476935 L120.409785,70.5966935 L119.124785,71.6486935 L117.845785,72.7086935 L116.571785,73.7826935 L115.308785,74.8686935 L114.043785,75.9426935 L112.775785,77.0136935 L111.498785,78.0826935 L110.226785,79.1536935 L108.957785,80.2186935 L107.687785,81.2836935 L106.408785,82.3456935 L105.136785,83.4116935 L103.868785,84.4746935 L102.600785,85.5366935 L101.326785,86.5996935 L100.058785,87.6646935 L98.7927855,88.7256935 L97.5277855,89.7866935 L96.2577855,90.8506935 L94.9957855,91.9176935 L93.7377855,92.9826935 L92.4807855,94.0466935 L91.2187855,95.1136935 L89.9637855,96.1826935 L88.7117855,97.2476935 L87.4587855,98.3116935 L86.2027855,99.3776935 L84.9527855,100.445694 L83.7067855,101.510694 L82.4607855,102.575694 L81.2117855,103.643694 L79.9697855,104.714694 L78.7327855,105.781694 L77.4947855,106.848694 L76.2537855,107.918694 L75.0217855,108.990694 L73.7927855,110.059694 L72.5647855,111.127694 L71.3357855,112.196694 C70.3807855,113.028694 70.2817855,114.478694 71.1137855,115.433694 C71.9467855,116.388694 73.3957855,116.487694 74.3507855,115.655694 L75.5777855,114.584694 L76.8037855,113.512694 L78.0297855,112.441694 L79.2527855,111.373694 L80.4837855,110.307694 L81.7197855,109.237694 L82.9547855,108.167694 L84.1857855,107.101694 L85.4257855,106.036694 L86.6697855,104.968694 L87.9137855,103.901694 L89.1537855,102.836694 L90.4017855,101.773694 L91.6537855,100.708694 L92.9057855,99.6446935 L94.1557855,98.5856935 L95.4147855,97.5296935 L96.6767855,96.4706935 L97.9397855,95.4116935 L99.1977855,94.3566935 L100.463785,93.3036935 L101.733785,92.2486935 L103.003785,91.1926935 L104.271785,90.1416935 L105.545785,89.0936935 L106.825785,88.0466935 L108.106785,86.9986935 L109.382785,85.9546935 L110.666785,84.9156935 L111.959785,83.8786935 L113.251785,82.8416935 L114.542785,81.8116935 L115.841785,80.7876935 L117.148785,79.7646935 L118.459785,78.7466935 L119.772785,77.7396935 L121.084785,76.7296935 L122.392785,75.7056935 L123.694785,74.6746935 L124.985785,73.6396935 L126.282785,72.6106935 L127.586785,71.5786935 L128.891785,70.5496935 L130.192785,69.5256935 L131.503785,68.5126935 L132.820785,67.4976935 L134.139785,66.4836935 L135.452785,65.4736935 L136.775785,64.4756935 L138.104785,63.4746935 L139.432785,62.4736935 L140.755785,61.4766935 L142.083785,60.4866935 L143.415785,59.4906935 L144.744785,58.4916935 L146.066785,57.4936935 L147.388785,56.4996935 L148.716785,55.4996935 L150.044785,54.4986935 L151.363785,53.4986935 L152.685785,52.5046935 L154.011785,51.5036935 L155.337785,50.5026935 L156.657785,49.5066935 L157.981785,48.5196935 L159.312785,47.5286935 L160.644785,46.5376935 L161.973785,45.5576935 L163.307785,44.5876935 L164.650785,43.6156935 L165.994785,42.6446935 L167.331785,41.6786935 L168.671785,40.7196935 L170.015785,39.7536935 L171.357785,38.7846935 L172.687785,37.8146935 L174.027785,36.8636935 L175.392785,35.9316935 L176.771785,35.0176935 L178.164785,34.1416935 L179.550785,33.2606935 L180.930785,32.3566935 L182.306785,31.4466935 L183.671785,30.5366935 L185.033785,29.6306935 L186.400785,28.7136935 L187.766785,27.7966935 L189.124785,26.8876935 L190.480785,25.9836935 L191.844785,25.0716935 L193.207785,24.1566935 L194.559785,23.2486935 L195.912785,22.3506935 L197.275785,21.4466935 L198.639785,20.5416935 L200.002785,19.6376935 C201.899785,18.3256935 202.373785,15.7246935 201.061785,13.8276935 C199.749785,11.9316935 197.148785,11.4576935 195.252785,12.7686935 Z" id="Fill-30"></path>
            <path d="M97.5887855,97.6276935 L96.1987855,98.5466935 L94.8117855,99.4726935 L93.4387855,100.420694 L92.0957855,101.428694 L90.7427855,102.410694 L89.3367855,103.297694 L87.9367855,104.194694 L86.5197855,105.069694 L85.1037855,105.941694 L83.7007855,106.829694 L82.3147855,107.744694 L80.9317855,108.670694 L79.5397855,109.579694 L78.1347855,110.461694 L76.7427855,111.365694 L75.3697855,112.306694 L73.9777855,113.216694 L72.5777855,114.106694 L71.1707855,114.986694 L69.7607855,115.866694 L68.3477855,116.746694 L66.9357855,117.621694 L65.5227855,118.495694 L64.1107855,119.370694 C63.4377855,119.788694 63.2327855,120.673694 63.6507855,121.345694 C64.0697855,122.017694 64.9537855,122.223694 65.6267855,121.804694 L67.0347855,120.923694 L68.4427855,120.041694 L69.8507855,119.159694 L71.2587855,118.283694 L72.6727855,117.421694 L74.0897855,116.558694 L75.5137855,115.706694 L76.9467855,114.874694 L78.4047855,114.085694 L79.8437855,113.259694 L81.2697855,112.411694 L82.7087855,111.590694 L84.1637855,110.797694 L85.6167855,109.992694 L87.0537855,109.160694 L88.4757855,108.313694 L89.9077855,107.479694 L91.3577855,106.666694 L92.8017855,105.843694 L94.2977855,105.116694 L95.8177855,104.423694 L97.3067855,103.671694 L98.7827855,102.896694 L100.254785,102.115694 C101.494785,101.378694 101.901785,99.7776935 101.165785,98.5376935 C100.429785,97.2986935 98.8277855,96.8906935 97.5887855,97.6276935 Z" id="Fill-161"></path>
            <path d="M89.8767855,86.7466935 L88.8897855,88.0216935 L87.8987855,89.3116935 L86.9367855,90.6376935 L86.0277855,91.9996935 L85.1087855,93.3606935 L84.1007855,94.6436935 L83.1067855,95.9416935 L82.0917855,97.2206935 L81.0677855,98.4966935 L80.0627855,99.7816935 L79.0767855,101.084694 L78.1007855,102.392694 L77.0977855,103.677694 L76.0727855,104.939694 L75.0567855,106.207694 L74.0727855,107.497694 L73.0387855,108.741694 L71.9897855,109.970694 L70.9147855,111.168694 L69.8407855,112.362694 L68.7387855,113.521694 L67.6357855,114.675694 L66.5067855,115.792694 L65.3647855,116.922694 C64.8027855,117.481694 64.8007855,118.389694 65.3597855,118.951694 C65.9177855,119.512694 66.8257855,119.514694 67.3877855,118.956694 L68.5237855,117.819694 L69.6747855,116.668694 L70.7987855,115.480694 L71.9227855,114.298694 L73.0317855,113.091694 L74.1377855,111.887694 L75.2367855,110.669694 L76.3497855,109.465694 L77.4807855,108.269694 L78.5807855,107.050694 L79.6477855,105.799694 L80.7357855,104.570694 L81.8357855,103.349694 L82.9257855,102.123694 L83.9857855,100.873694 L85.0287855,99.6146935 L86.0767855,98.3646935 L87.1437855,97.1346935 L88.2017855,95.9036935 L89.3487855,94.7516935 L90.5167855,93.6286935 L91.6307855,92.4686935 L92.7337855,91.3136935 L93.8417855,90.1416935 C94.7787855,89.0466935 94.6517855,87.3996935 93.5567855,86.4616935 C92.4617855,85.5246935 90.8137855,85.6516935 89.8767855,86.7466935 Z" id="Fill-162"></path>
            <path d="M70.0707855,112.373694 L69.0547855,113.741694 L67.9137855,114.947694 L66.7287855,116.097694 L65.5557855,117.262694 L64.3097855,118.333694 L63.0047855,119.327694 C62.3787855,119.812694 62.2637855,120.712694 62.7477855,121.339694 C63.2327855,121.965694 64.1337855,122.080694 64.7597855,121.595694 L66.0497855,120.582694 L67.3997855,119.645694 L68.8217855,118.802694 L70.2317855,117.944694 L71.6857855,117.142694 L73.2657855,116.502694 C74.4057855,115.620694 74.6147855,113.980694 73.7327855,112.840694 C72.8497855,111.700694 71.2107855,111.491694 70.0707855,112.373694 Z" id="Fill-163"></path>
            <path d="M21.8747855,123.923694 L20.9497855,125.035694 L20.0207855,126.161694 L19.1297855,127.307694 L18.2927855,128.499694 L17.4367855,129.662694 L16.5077855,130.756694 L15.5987855,131.861694 L14.6697855,132.946694 L13.7447855,134.030694 L12.8357855,135.127694 L11.9607855,136.249694 L11.0917855,137.377694 L10.2127855,138.495694 L9.31378547,139.589694 L8.43378547,140.699694 L7.58478547,141.841694 L6.70478547,142.965694 L5.81278547,144.071694 L4.91078547,145.169694 L4.00578547,146.267694 L3.08978547,147.372694 L2.17078547,148.472694 L1.25078547,149.573694 L0.330785467,150.673694 C-0.175214533,151.282694 -0.0912145331,152.186694 0.517785467,152.692694 C1.12778547,153.198694 2.03178547,153.115694 2.53778547,152.505694 L3.45078547,151.400694 L4.36378547,150.294694 L5.27578547,149.188694 L6.19278547,148.086694 L7.10778547,147.001694 L8.02578547,145.916694 L8.95278547,144.838694 L9.89378547,143.779694 L10.8707855,142.758694 L11.8177855,141.705694 L12.7467855,140.636694 L13.6947855,139.592694 L14.6687855,138.569694 L15.6357855,137.541694 L16.5857855,136.497694 L17.5197855,135.440694 L18.4707855,134.392694 L19.4427855,133.364694 L20.4177855,132.332694 L21.4657855,131.369694 L22.5637855,130.442694 L23.6067855,129.470694 L24.6487855,128.485694 L25.6927855,127.484694 C26.6757855,126.430694 26.6187855,124.778694 25.5637855,123.795694 C24.5097855,122.812694 22.8587855,122.869694 21.8747855,123.923694 Z" id="Fill-164"></path>
            <path d="M11.3977855,121.740694 L10.9927855,122.900694 L10.5897855,124.070694 L10.2177855,125.256694 L9.90678547,126.464694 L9.57478547,127.665694 L9.13778547,128.820694 L8.71278547,129.982694 L8.26278547,131.131694 L7.80178547,132.277694 L7.35978547,133.429694 L6.94278547,134.590694 L6.53678547,135.751694 L6.09578547,136.897694 L5.62178547,138.039694 L5.17378547,139.192694 L4.76878547,140.344694 L4.29778547,141.462694 L3.79878547,142.590694 L3.28778547,143.712694 L2.78878547,144.809694 L2.24178547,145.877694 L1.67878547,146.968694 L1.11578547,148.058694 L0.552785467,149.148694 C0.191785467,149.853694 0.470785467,150.717694 1.17578547,151.078694 C1.88078547,151.439694 2.74478547,151.160694 3.10678547,150.455694 L3.66178547,149.361694 L4.21678547,148.267694 L4.77178547,147.172694 L5.34378547,146.056694 L5.88278547,144.917694 L6.41078547,143.803694 L6.94978547,142.694694 L7.51678547,141.576694 L8.09578547,140.459694 L8.62978547,139.343694 L9.13978547,138.216694 L9.68178547,137.093694 L10.2337855,135.972694 L10.7737855,134.852694 L11.2787855,133.717694 L11.7647855,132.577694 L12.2557855,131.441694 L12.7717855,130.318694 L13.2757855,129.193694 L13.8857855,128.114694 L14.5207855,127.049694 L15.0947855,125.964694 L15.6507855,124.877694 L16.2037855,123.779694 C16.7667855,122.452694 16.1477855,120.920694 14.8207855,120.357694 C13.4937855,119.793694 11.9617855,120.413694 11.3977855,121.740694 Z" id="Fill-165"></path>
            <path d="M7.73278547,136.443694 L7.62778547,136.852694 L7.58678547,137.246694 L7.62278547,137.640694 L7.50578547,137.879694 L7.41578547,138.092694 L7.31678547,138.260694 L7.22578547,138.403694 L7.15678547,138.532694 L7.10278547,138.649694 L7.06478547,138.762694 L7.03478547,138.869694 L7.01178547,138.964694 L6.80678547,139.389694 L6.49878547,140.111694 L5.67978547,141.221694 C5.20278547,141.853694 5.32778547,142.752694 5.95978547,143.230694 C6.59178547,143.707694 7.49078547,143.582694 7.96878547,142.950694 L8.81078547,141.859694 L9.42578547,141.362694 L9.78678547,141.030694 L9.89078547,140.952694 L9.99078547,140.880694 L10.0917855,140.800694 L10.1907855,140.705694 L10.2937855,140.593694 L10.4007855,140.459694 L10.5267855,140.309694 L10.6997855,140.155694 L10.8857855,139.967694 L11.2687855,139.874694 L11.6277855,139.710694 L11.9797855,139.479694 C12.8177855,138.306694 12.5467855,136.676694 11.3737855,135.838694 C10.2017855,134.999694 8.57078547,135.270694 7.73278547,136.443694 Z" id="Fill-166"></path>
        </g>
    </g>
</svg>
