<?xml version="1.0" encoding="UTF-8"?>
<svg width="205px" height="100px" viewBox="0 0 205 100" version="1.1" xmlns="http://www.w3.org/2000/svg" xmlns:xlink="http://www.w3.org/1999/xlink">
    <title>236</title>
    <g id="Page-1" stroke="none" stroke-width="1" fill="none" fill-rule="evenodd">
        <g id="236" transform="translate(0.215405, 0.446194)" fill="currentColor">
            <path d="M6.34828046,38.0987 L7.70728046,37.2494 L9.08728046,36.3871 L10.4582805,35.5079 L11.8212805,34.6335 L13.1782805,33.7482 L14.5282805,32.8674 L15.8752805,31.9816 L17.2162805,31.0995 L18.5582805,30.2171 L19.8922805,29.3393 L21.2272805,28.4652 L22.5582805,27.5942 L23.8942805,26.7331 L25.2222805,25.8742 L26.5582805,25.0303 L27.8872805,24.1903 L29.2282805,23.3724 L30.5662805,22.556 L31.9182805,21.7644 L33.2612805,20.9773 L34.6192805,20.216 L35.9702805,19.4576 L37.3432805,18.7371 L38.7242805,18.0062 L39.7122805,17.5131 L40.7082805,17.0156 L41.7172805,16.5442 L42.7272805,16.0663 L43.7452805,15.6028 L44.7682805,15.1362 L45.8022805,14.6913 L46.8362805,14.2461 L47.8862805,13.8408 L48.9412805,13.4414 L50.0042805,13.0638 L51.0732805,12.6842 L52.1492805,12.3252 L53.2292805,11.9814 L54.3152805,11.6574 L55.4032805,11.3325 L56.4972805,11.0262 L57.5942805,10.7163 L58.6942805,10.4201 L59.7932805,10.1238 L60.8962805,9.844 L62.0012805,9.5635 L63.1072805,9.2965 L64.2362805,9.024 L66.0522805,8.5839 L67.8812805,8.1243 L69.6962805,7.672 L71.4952805,7.2431 L73.2682805,6.8592 L75.0202805,6.5383 L76.7402805,6.2878 L78.4142805,6.1336 L80.1062805,6.0886 L80.8602805,6.106 L81.6452805,6.1543 L82.4242805,6.2362 L83.1912805,6.349 L83.9402805,6.4963 L84.6972805,6.6857 L85.4672805,6.9112 L86.2392805,7.1681 L87.0122805,7.4562 L87.7812805,7.7704 L88.5392805,8.1106 L89.2952805,8.4796 L90.0442805,8.8724 L90.7792805,9.2886 L91.5092805,9.7303 L92.2292805,10.1935 L92.9332805,10.6772 L93.6272805,11.1851 L94.3092805,11.712 L94.9712805,12.2561 L95.6222805,12.8207 L96.2562805,13.4018 L96.8692805,13.9972 L97.4662805,14.6116 L98.0442805,15.2395 L98.5982805,15.8782 L99.1322805,16.5327 L99.6462805,17.1979 L100.13328,17.8707 L100.59428,18.5528 L101.06328,19.294 L101.49928,20.0387 L101.91128,20.8011 L102.29828,21.5762 L102.65928,22.361 L102.99628,23.1634 L103.31428,23.9781 L103.60928,24.8024 L103.88328,25.6434 L104.14028,26.4966 L104.37628,27.3596 L104.58828,28.2112 L104.98428,30.0293 L105.30928,31.8589 L105.58128,33.733 L105.81128,35.6412 L106.00428,37.5859 L106.08628,38.5586 L106.16528,39.543 L106.23328,40.5332 L106.30228,41.5398 L106.37128,42.5464 L106.44028,43.5511 L106.50728,44.5586 L106.57428,45.5678 L106.64128,46.5771 L106.71028,47.6136 L106.79928,48.6449 L106.88628,49.6489 L106.97028,50.6529 L107.05728,51.6903 L107.16928,52.7201 L107.28328,53.7605 L107.55728,55.8003 L107.89428,57.8415 L108.29928,59.8747 L108.79028,61.8996 L109.36528,63.8586 L109.74628,65.0701 L110.12128,66.2465 L110.50128,67.4417 L110.88528,68.65 L111.28128,69.8665 L111.68428,71.0912 L112.11228,72.3118 L112.54528,73.5448 L113.00828,74.7653 L113.47528,75.9982 L113.97728,77.2093 L114.47728,78.4129 L115.02328,79.6232 L115.59728,80.8111 L116.20028,81.9803 L116.83728,83.1319 L117.51628,84.264 L118.23528,85.3665 L118.99628,86.4433 L119.80728,87.4921 L120.66828,88.5006 L121.57828,89.473 L122.54828,90.4061 L123.57228,91.289 L124.50328,92.0022 L125.47628,92.6468 L126.47328,93.2171 L127.49428,93.7256 L128.54228,94.1734 L129.60328,94.5599 L130.67828,94.8962 L131.77128,95.1831 L132.86928,95.4228 L133.97428,95.6254 L135.08928,95.7905 L136.20528,95.921 L137.32328,96.0238 L138.44428,96.0998 L139.56128,96.1535 L140.67528,96.1892 L141.78528,96.2084 L142.89028,96.2147 L143.97828,96.2089 L145.06028,96.2031 L146.12928,96.1897 L147.18428,96.1764 L148.21428,96.1689 L149.26428,96.1613 L150.60728,96.1377 L151.97028,96.0681 L153.32128,95.9579 L154.66228,95.8147 L155.99728,95.639 L157.32028,95.4363 L158.63528,95.2124 L159.94428,94.9691 L161.24328,94.7123 L162.53628,94.4463 L163.82228,94.1734 L165.09428,93.8996 L166.36328,93.6352 L167.63928,93.3698 L168.91628,93.1045 L170.14128,92.8492 L171.37028,92.6529 L172.65028,92.4476 L173.93128,92.2424 L175.09928,92.0523 L176.27628,91.9855 L177.56528,91.909 L178.85528,91.8326 L180.07328,91.7593 L180.87028,91.7737 L181.73028,91.8147 L182.59428,91.8817 L183.46128,91.9708 L184.32828,92.0823 L185.18028,92.2118 L186.95528,92.5333 L188.71828,92.9154 L190.49728,93.3473 L192.29228,93.8118 L194.10228,94.297 L195.93128,94.7863 L197.77828,95.2657 L199.64828,95.7187 L201.50628,96.1189 C202.74528,96.385 203.96528,95.5964 204.23128,94.3575 C204.49728,93.1186 203.70828,91.8987 202.46928,91.6326 L200.66928,91.2473 L198.89128,90.8188 L197.09628,90.3553 L195.28428,89.873 L193.45528,89.3852 L191.60728,88.9095 L189.73828,88.4585 L187.84428,88.0508 L185.94928,87.7097 L184.96028,87.56 L183.98328,87.4355 L183.00128,87.3359 L182.01128,87.2606 L181.01228,87.2143 L179.94428,87.2007 L178.58228,87.2819 L177.29328,87.36 L176.00328,87.4381 L174.60028,87.5258 L173.20828,87.7479 L171.92728,87.9547 L170.64728,88.1615 L169.31528,88.3774 L167.98828,88.6544 L166.71228,88.9214 L165.43628,89.1883 L164.15328,89.4562 L162.87328,89.7308 L161.60728,89.9988 L160.34728,90.2576 L159.09228,90.5041 L157.84328,90.733 L156.59928,90.9416 L155.36028,91.1285 L154.12828,91.2876 L152.89828,91.4159 L151.67428,91.5129 L150.45628,91.5721 L149.21128,91.5903 L148.18728,91.5951 L147.14428,91.6001 L146.07728,91.611 L145.02528,91.6216 L143.95928,91.6246 L142.89728,91.6277 L141.84328,91.6191 L140.79328,91.5984 L139.75028,91.5624 L138.71728,91.5101 L137.69828,91.4368 L136.69228,91.3401 L135.70328,91.2204 L134.73728,91.0734 L133.79028,90.8955 L132.86628,90.6871 L131.97328,90.4459 L131.10528,90.1672 L130.26428,89.8547 L129.46128,89.5048 L128.68528,89.1106 L127.93928,88.6774 L127.23128,88.2016 L126.55028,87.671 L125.72428,86.9485 L124.94828,86.1842 L124.20828,85.3731 L123.50328,84.5245 L122.83628,83.6401 L122.20228,82.7135 L121.59728,81.7532 L121.02528,80.7625 L120.47928,79.7368 L119.95828,78.6839 L119.46628,77.6054 L119.00128,76.5107 L118.55628,75.3659 L118.11228,74.2285 L117.71528,73.0661 L117.31328,71.8913 L116.94128,70.7053 L116.56428,69.5068 L116.20028,68.3093 L115.82928,67.1035 L115.47028,65.9062 L115.10728,64.6957 L114.74228,63.5062 L114.38228,62.3516 L113.85628,60.5495 L113.42628,58.7526 L113.06828,56.9109 L112.76728,55.0351 L112.52328,53.1189 L112.42628,52.1656 L112.32828,51.2017 L112.25528,50.2303 L112.17928,49.2256 L112.10428,48.2206 L112.03328,47.2431 L111.98228,46.2603 L111.92928,45.2502 L111.87728,44.24 L111.82428,43.2281 L111.77128,42.2187 L111.71728,41.2112 L111.66428,40.2036 L111.60928,39.1797 L111.54328,38.1615 L111.47928,37.1315 L111.32128,35.097 L111.12028,33.0599 L110.86928,31.0257 L110.55328,28.9948 L110.16628,27.0079 L109.93428,25.978 L109.68328,24.9759 L109.40828,23.9816 L109.10828,22.9918 L108.77828,22.0044 L108.41928,21.0277 L108.03028,20.0578 L107.60628,19.0922 L107.15028,18.1398 L106.66128,17.1963 L106.13328,16.2598 L105.56928,15.3454 L105.01128,14.5005 L104.42428,13.6711 L103.81328,12.8611 L103.17928,12.0663 L102.51528,11.2859 L101.83028,10.5272 L101.12328,9.7858 L100.39128,9.0613 L99.6392805,8.3602 L98.8692805,7.6786 L98.0742805,7.0178 L97.2622805,6.383 L96.4332805,5.7703 L95.5842805,5.18 L94.7202805,4.6179 L93.8412805,4.0804 L92.9432805,3.5694 L92.0332805,3.0893 L91.1112805,2.6363 L90.1712805,2.2123 L89.2232805,1.8219 L88.2642805,1.4612 L87.2902805,1.1325 L86.3002805,0.8377 L85.2772805,0.5778 L84.2352805,0.368 L83.2002805,0.2106 L82.1672805,0.0971 L81.1312805,0.0278 L80.0562805,0 L78.0722805,0.0453 L76.0502805,0.2155 L74.0622805,0.4812 L72.1022805,0.8171 L70.1692805,1.208 L68.2732805,1.6293 L66.4142805,2.0622 L64.5962805,2.4894 L62.8022805,2.8951 L61.6732805,3.1494 L60.5222805,3.4091 L59.3732805,3.686 L58.2222805,3.9637 L57.0742805,4.258 L55.9272805,4.5525 L54.7842805,4.8654 L53.6372805,5.1819 L52.4962805,5.5173 L51.3532805,5.8537 L50.2172805,6.2103 L49.0762805,6.5517 L47.9412805,6.9111 L46.8022805,7.2722 L45.6702805,7.6561 L44.5342805,8.034 L43.4002805,8.4191 L42.2672805,8.8044 L41.1422805,9.2126 L40.0122805,9.6239 L38.8962805,10.0722 L37.7802805,10.5269 L36.6772805,11.0094 L35.5662805,11.4962 L34.0812805,12.1941 L32.5872805,12.9025 L31.1152805,13.6511 L29.6492805,14.3968 L28.2042805,15.183 L26.7682805,15.9645 L25.3462805,16.7718 L23.9262805,17.5776 L22.5192805,18.4063 L21.1182805,19.231 L19.7272805,20.0735 L18.3442805,20.9139 L16.9672805,21.7645 L15.5952805,22.612 L14.2272805,23.4675 L12.8672805,24.3184 L11.5062805,25.169 L10.1512805,26.0159 L8.79428046,26.8578 L7.44428046,27.6951 L6.08828046,28.5216 L4.73928046,29.3434 L3.38228046,30.1482 L2.00428046,30.9661 C0.03428046,32.1656 -0.58961954,34.7347 0.61028046,36.7043 C1.80928046,38.674 4.37828046,39.2982 6.34828046,38.0987 Z" id="Fill-28"></path>
            <path d="M171.44028,99.207 L172.43228,98.8649 L173.45528,98.472 L174.45228,98.045 L175.42728,97.5965 L176.37528,97.1138 L177.28628,96.6 L178.24828,96.2269 L179.17728,95.8667 L180.10628,95.5674 L181.00128,95.2918 L181.89428,95.1323 L182.82228,94.9629 L183.55028,94.8765 L184.33528,94.7963 L185.13128,94.7212 L185.93728,94.6576 L186.74928,94.6131 L187.56028,94.5938 L189.23428,94.623 L190.91828,94.648 L192.62128,94.6925 L194.33228,94.7947 L196.05728,94.9204 L197.77028,95.0223 L199.50628,95.1381 L201.21728,95.1682 L202.89228,95.1973 C203.66328,95.2083 204.29728,94.5923 204.308426,93.8216 C204.31928,93.0508 203.70328,92.417 202.93228,92.406 L201.25728,92.3873 L199.61728,92.3696 L197.95028,92.2639 L196.25928,92.1444 L194.55828,91.9944 L192.84328,91.8209 L191.11928,91.6127 L189.38428,91.4361 L187.65328,91.3448 L186.76928,91.3004 L185.89328,91.2609 L185.01628,91.2359 L184.13828,91.2331 L183.25728,91.2657 L182.32828,91.336 L181.27528,91.5046 L180.18628,91.6831 L179.09328,91.9669 L178.03328,92.2269 L176.97428,92.5563 L175.95028,92.8727 L174.88028,93.0914 L173.85428,93.3464 L172.86428,93.6183 L171.90528,93.8776 L170.98628,94.1138 L170.04928,94.3205 C168.70028,94.7048 167.91728,96.1102 168.30128,97.4595 C168.68628,98.8089 170.09128,99.5913 171.44028,99.207 Z" id="Fill-94"></path>
            <path d="M168.27928,86.6963 L169.52228,86.9992 L170.77628,87.2745 L172.02228,87.5024 L173.27428,87.6411 L174.49528,87.8339 L175.68528,88.0914 L176.86328,88.3342 L178.02828,88.6029 L179.18028,88.8778 L180.32628,89.1304 L181.46928,89.3694 L182.60928,89.5986 L183.73328,89.8761 L184.84128,90.1781 L185.94328,90.5052 L187.05628,90.7814 L188.14628,91.1548 L189.23728,91.5513 L190.29728,91.9966 L191.35528,92.482 L192.40528,93.0135 L193.44528,93.5895 L194.47828,94.2103 L195.52728,94.8954 C196.17428,95.3146 197.03828,95.1299 197.45728,94.483 C197.87628,93.836 197.69128,92.9717 197.04528,92.5525 L195.94828,91.8475 L194.82428,91.1822 L193.69728,90.5689 L192.56928,89.9931 L191.43828,89.4548 L190.29828,88.9526 L189.17428,88.4938 L188.04928,88.0118 L186.92528,87.546 L185.79028,87.1312 L184.63728,86.7745 L183.50228,86.3935 L182.36128,86.0163 L181.22428,85.6489 L180.06728,85.3264 L178.91528,85.0262 L177.75428,84.7214 L176.60628,84.3905 L175.45528,84.0605 L174.32328,83.6468 L173.21028,83.1529 L172.08128,82.7184 L170.94828,82.2919 L169.79328,81.8463 C168.45428,81.4283 167.02928,82.1752 166.61128,83.5145 C166.19328,84.8537 166.94028,86.2783 168.27928,86.6963 Z" id="Fill-95"></path>
        </g>
    </g>
</svg>
