<?xml version="1.0" encoding="UTF-8"?>
<svg width="190px" height="136px" viewBox="0 0 190 136" version="1.1" xmlns="http://www.w3.org/2000/svg" xmlns:xlink="http://www.w3.org/1999/xlink">
    <title>237</title>
    <g id="Page-1" stroke="none" stroke-width="1" fill="none" fill-rule="evenodd">
        <g id="237" transform="translate(0.863632, 0.207794)" fill="currentColor">
            <path d="M8.25005299,131.7156 L8.45405299,130.7652 L8.66605299,129.7488 L8.88105299,128.6846 L9.10105299,127.5768 L9.32705299,126.421 L9.55905299,125.2193 L9.79705299,123.9768 L10.043053,122.69 L10.297053,121.3605 L10.559053,119.9933 L10.830053,118.586 L11.111053,117.1396 L11.402053,115.6592 L11.703053,114.143 L12.014053,112.5914 L12.336053,111.0094 L12.669053,109.3961 L13.016053,107.7518 L13.372053,106.0803 L13.741053,104.3819 L14.124053,102.6567 L14.521053,100.9091 L14.934053,99.1392 L15.362053,97.3467 L15.805053,95.5356 L16.258053,93.7051 L16.728053,91.8562 L17.215053,89.9928 L17.713053,88.1141 L18.229053,86.2211 L18.497053,85.2787 L18.772053,84.3113 L19.039053,83.3412 L19.294053,82.3986 L19.570053,81.4459 L19.854053,80.4652 L20.139053,79.4844 L20.414053,78.5334 L20.723053,77.5799 L21.049053,76.5994 L21.374053,75.6188 L21.690053,74.6664 L22.026053,73.7107 L22.373053,72.7274 L22.729053,71.7477 L23.077053,70.8016 L23.448053,69.8553 L23.832053,68.8769 L24.215053,67.8984 L24.585053,66.9548 L24.977053,66.0129 L25.382053,65.0364 L25.788053,64.0599 L26.183053,63.1081 L26.596053,62.16 L27.011053,61.2061 L27.438053,60.2554 L27.864053,59.3052 L28.304053,58.3596 L28.745053,57.4128 L29.198053,56.4707 L29.649053,55.5309 L30.115053,54.5971 L30.580053,53.6639 L31.060053,52.7375 L31.540053,51.8097 L32.033053,50.8888 L32.526053,49.9708 L33.034053,49.0614 L33.542053,48.1528 L34.064053,47.2532 L34.588053,46.352 L35.125053,45.4598 L35.662053,44.5713 L36.215053,43.6938 L36.768053,42.8169 L37.336053,41.9513 L37.905053,41.0842 L38.488053,40.228 L39.070053,39.3746 L39.667053,38.5341 L40.264053,37.6943 L40.878053,36.868 L41.492053,36.0399 L42.121053,35.225 L42.749053,34.4133 L43.393053,33.6167 L44.037053,32.8206 L44.697053,32.0403 L45.359053,31.2582 L46.036053,30.4907 L46.710053,29.7255 L47.401053,28.9776 L48.091053,28.2301 L48.799053,27.5006 L49.508053,26.769 L50.234053,26.0536 L50.955053,25.3404 L51.694053,24.6465 L52.433053,23.953 L53.190053,23.2795 L53.949053,22.6039 L54.725053,21.9466 L55.497053,21.2918 L56.288053,20.6584 L57.078053,20.0251 L57.888053,19.4141 L58.699053,18.8008 L59.528053,18.2062 L60.352053,17.6137 L61.196053,17.0447 L62.039053,16.4757 L62.902053,15.9309 L63.768053,15.3835 L64.652053,14.8572 L65.531053,14.3327 L66.432053,13.8339 L67.331053,13.3347 L68.253053,12.862 L69.177053,12.3869 L70.120053,11.9366 L71.060053,11.4877 L72.021053,11.0665 L72.982053,10.6447 L73.965053,10.2516 L74.952053,9.8565 L75.958053,9.4881 L76.961053,9.1205 L77.987053,8.7829 L79.012053,8.4447 L80.061053,8.1384 L81.114053,7.8323 L82.188053,7.555 L83.258053,7.2781 L84.352053,7.0336 L85.446053,6.7884 L86.564053,6.577 L87.686053,6.3643 L88.829053,6.1825 L89.969053,6.0007 L91.134053,5.8537 L92.299053,5.7088 L93.489053,5.6001 L94.682053,5.4905 L95.899053,5.414 L97.112053,5.3371 L98.350053,5.2991 L99.589053,5.2606 L100.853053,5.2602 L102.121053,5.2592 L103.413053,5.2938 L104.701053,5.3288 L106.015053,5.4034 L107.330053,5.4775 L108.671053,5.5921 L110.024053,5.7016 L111.378053,5.8344 L112.753053,5.9883 L114.143053,6.1632 L115.546053,6.3536 L116.963053,6.558 L118.392053,6.7833 L119.999053,7.06 L121.575053,7.3644 L123.130053,7.6996 L124.663053,8.0574 L126.170053,8.4391 L127.656053,8.8476 L129.121053,9.279 L130.560053,9.7328 L131.979053,10.2096 L133.376053,10.7078 L134.748053,11.2276 L136.100053,11.769 L137.431053,12.3292 L138.737053,12.9103 L140.022053,13.5133 L141.286053,14.1336 L142.526053,14.7717 L143.746053,15.4288 L144.947053,16.102 L146.123053,16.7916 L147.279053,17.499 L148.416053,18.2212 L149.528053,18.9597 L150.620053,19.7148 L151.693053,20.4835 L152.743053,21.2655 L153.773053,22.0631 L154.783053,22.8734 L155.770053,23.6956 L156.738053,24.5317 L157.687053,25.3788 L158.614053,26.2365 L159.521053,27.1067 L160.410053,27.9867 L161.276053,28.8759 L162.118053,29.7697 L162.944053,30.6907 L163.763053,31.6025 L164.540053,32.5311 L165.318053,33.4601 L166.055053,34.4039 L166.795053,35.3507 L167.497053,36.3094 L168.199053,37.2655 L168.859053,38.2329 L169.521053,39.2007 L170.142053,40.1781 L170.765053,41.1587 L171.352053,42.146 L171.938053,43.1306 L172.484053,44.1207 L173.030053,45.1116 L173.537053,46.1058 L174.046053,47.1033 L174.520053,48.1021 L174.993053,49.0983 L175.427053,50.094 L175.862053,51.0902 L176.259053,52.0838 L176.657053,53.0808 L177.021053,54.0739 L177.384053,55.0641 L177.710053,56.0482 L178.036053,57.0325 L178.325053,58.0086 L178.615053,58.9879 L178.872053,59.9581 L179.128053,60.9251 L179.348053,61.8801 L179.566053,62.8229 L179.938053,64.7204 L180.243053,66.5763 L180.478053,68.3926 L180.644053,70.1719 L180.748053,71.9105 L180.785053,73.5964 L180.756053,75.233 L180.668053,76.8171 L180.517053,78.3349 L180.303053,79.7911 L180.034053,81.1827 L179.708053,82.4939 L179.305053,83.7912 C178.930053,85.0017 179.608053,86.2866 180.819053,86.6611 C182.029053,87.0356 183.314053,86.3578 183.688053,85.1473 L184.128053,83.722 L184.513053,82.1664 L184.822053,80.555 L185.065053,78.8912 L185.235053,77.1675 L185.332053,75.3972 L185.362053,73.5831 L185.319053,71.7198 L185.203053,69.819 L185.020053,67.8835 L184.763053,65.9093 L184.431053,63.9075 L184.034053,61.8927 L183.794053,60.853 L183.556053,59.8255 L183.280053,58.7879 L183.005053,57.7534 L182.695053,56.7112 L182.384053,55.6656 L182.034053,54.6135 L181.684053,53.5611 L181.296053,52.5041 L180.908053,51.4501 L180.484053,50.3934 L180.060053,49.3334 L179.596053,48.2725 L179.131053,47.2112 L178.627053,46.1509 L178.123053,45.0934 L177.584053,44.0384 L177.042053,42.9802 L176.461053,41.9267 L175.879053,40.8724 L175.257053,39.8248 L174.636053,38.7798 L173.978053,37.7424 L173.317053,36.702 L172.616053,35.6714 L171.914053,34.6404 L171.171053,33.6218 L170.429053,32.6056 L169.649053,31.6024 L168.866053,30.5962 L168.041053,29.6061 L167.215053,28.6156 L166.347053,27.6434 L165.486053,26.6803 L164.583053,25.7161 L163.662053,24.7675 L162.721053,23.8311 L161.760053,22.9051 L160.775053,21.9896 L159.769053,21.0879 L158.743053,20.1978 L157.693053,19.3199 L156.622053,18.4571 L155.531053,17.607 L154.416053,16.7702 L153.280053,15.95 L152.124053,15.1442 L150.942053,14.3535 L149.741053,13.5793 L148.518053,12.8208 L147.271053,12.0792 L146.002053,11.3569 L144.712053,10.6517 L143.397053,9.9648 L142.061053,9.2986 L140.703053,8.651 L139.321053,8.0218 L137.917053,7.413 L136.493053,6.824 L135.042053,6.2564 L133.570053,5.7114 L132.077053,5.1861 L130.558053,4.6839 L129.017053,4.2063 L127.454053,3.7495 L125.866053,3.3147 L124.255053,2.906 L122.623053,2.5209 L120.965053,2.1569 L119.289053,1.8179 L117.797053,1.5383 L116.320053,1.2814 L114.856053,1.0537 L113.403053,0.8495 L111.960053,0.6667 L110.523053,0.5049 L109.121053,0.3766 L107.706053,0.2533 L106.317053,0.1716 L104.927053,0.0904 L103.562053,0.0499 L102.200053,0.009 L100.861053,0.0042 L99.518053,0 L98.199053,0.0351 L96.880053,0.0708 L95.585053,0.1434 L94.294053,0.2163 L93.024053,0.3237 L91.750053,0.4321 L90.500053,0.5773 L89.250053,0.7201 L88.023053,0.8996 L86.800053,1.079 L85.598053,1.2911 L84.392053,1.5044 L83.209053,1.7523 L82.026053,2.0009 L80.865053,2.2838 L79.709053,2.5664 L78.573053,2.8794 L77.433053,3.1923 L76.315053,3.5372 L75.198053,3.8826 L74.102053,4.2602 L73.010053,4.637 L71.939053,5.0423 L70.864053,5.4496 L69.811053,5.8877 L68.758053,6.3262 L67.727053,6.7947 L66.700053,7.2618 L65.692053,7.7552 L64.681053,8.251 L63.692053,8.7751 L62.703053,9.2995 L61.735053,9.8515 L60.771053,10.4017 L59.828053,10.9776 L58.881053,11.5563 L57.955053,12.1609 L57.030053,12.7655 L56.126053,13.3952 L55.225053,14.0229 L54.345053,14.6746 L53.462053,15.3287 L52.599053,16.0062 L51.737053,16.6836 L50.895053,17.3836 L50.057053,18.0812 L49.237053,18.7991 L48.415053,19.5193 L47.612053,20.2604 L46.810053,21.0013 L46.027053,21.7624 L45.248053,22.5212 L44.487053,23.2985 L43.725053,24.0779 L42.981053,24.8759 L42.238053,25.6734 L41.513053,26.4888 L40.792053,27.3017 L40.087053,28.1305 L39.381053,28.9613 L38.693053,29.8083 L38.006053,30.6546 L37.337053,31.5165 L36.669053,32.3751 L36.017053,33.2469 L35.364053,34.1205 L34.728053,35.0081 L34.092053,35.895 L33.474053,36.795 L32.857053,37.6922 L32.255053,38.6006 L31.652053,39.5107 L31.065053,40.4324 L30.480053,41.3534 L29.909053,42.285 L29.338053,43.2128 L28.782053,44.1497 L28.224053,45.0882 L27.682053,46.0361 L27.141053,46.9833 L26.614053,47.9388 L26.087053,48.8913 L25.574053,49.8509 L25.061053,50.8119 L24.561053,51.7801 L24.063053,52.7477 L23.578053,53.7217 L23.095053,54.6933 L22.625053,55.67 L22.154053,56.6479 L21.697053,57.6307 L21.240053,58.613 L20.798053,59.5998 L20.353053,60.5925 L19.927053,61.5895 L19.511053,62.5618 L19.096053,63.534 L18.666053,64.5408 L18.265053,65.5528 L17.878053,66.53 L17.491053,67.5071 L17.091053,68.5165 L16.716053,69.5264 L16.350053,70.5025 L15.974053,71.4751 L15.588053,72.4754 L15.223053,73.4739 L14.868053,74.4442 L14.514053,75.4146 L14.143053,76.4121 L13.782053,77.4006 L13.431053,78.3595 L13.079053,79.3185 L12.719053,80.3054 L12.380053,81.2847 L12.054053,82.2364 L11.736053,83.1907 L11.411053,84.17 L10.795053,86.0897 L10.200053,87.997 L9.63405299,89.8899 L9.08405299,91.7675 L8.55305299,93.6279 L8.04805299,95.4689 L7.55905299,97.2904 L7.08805299,99.0899 L6.63305299,100.8638 L6.19405299,102.6137 L5.77005299,104.3368 L5.36205299,106.0298 L4.97105299,107.6954 L4.59405299,109.3292 L4.23105299,110.9283 L3.88105299,112.495 L3.54505299,114.0253 L3.22105299,115.5162 L2.90805299,116.9701 L2.60605299,118.3821 L2.31605299,119.75 L2.03505299,121.0764 L1.76405299,122.3555 L1.50205299,123.5855 L1.24905299,124.769 L1.00505299,125.8993 L0.769052993,126.9751 L0.540052993,127.9988 L0.319052993,128.9622 L0.103052993,129.8801 C-0.403947007,132.1298 1.00905299,134.3645 3.25905299,134.8714 C5.50805299,135.3782 7.74305299,133.9653 8.25005299,131.7156 Z" id="Fill-27"></path>
            <path d="M183.284053,51.849 L183.409053,53.7822 L183.507053,55.6855 L183.596053,57.5862 L183.726053,59.4865 L183.775053,61.3816 L183.693053,63.269 L183.594053,65.1532 L183.437053,67.0292 L183.243053,68.9014 L183.044053,70.7728 L182.848053,72.6448 L182.637053,74.518 L182.378053,76.3868 L182.065053,78.2482 L181.749053,80.1136 L181.458053,81.9888 L181.102053,83.8551 L180.704053,85.715 L180.265053,87.5798 L179.825053,89.4411 L179.342053,91.3024 L178.852053,93.1639 L178.330053,95.0294 L177.805053,96.9057 C177.593053,97.6696 178.040053,98.4606 178.804053,98.6726 C179.568053,98.8846 180.359053,98.4371 180.571053,97.6733 L181.088053,95.7946 L181.607053,93.9051 L182.094053,92.0195 L182.586053,90.1336 L183.049053,88.251 L183.513053,86.3717 L183.963053,84.4872 L184.414053,82.6076 L184.886053,80.734 L185.291053,78.8473 L185.651053,76.9517 L186.017053,75.0574 L186.383053,73.1611 L186.713053,71.2554 L186.983053,69.3397 L187.208053,67.4155 L187.411053,65.4836 L187.612053,63.5474 L187.774053,61.602 L188.003053,59.6495 L188.247053,57.6864 L188.389053,55.7083 L188.470053,53.7148 L188.507053,51.7322 C188.475053,50.2897 187.280053,49.1465 185.837053,49.1788 C184.395053,49.2111 183.252053,50.4065 183.284053,51.849 Z" id="Fill-115"></path>
            <path d="M171.231053,54.9827 L171.864053,56.3149 L172.485053,57.6152 L173.084053,58.9202 L173.698053,60.2174 L174.326053,61.507 L174.929053,62.8187 L175.393053,64.157 L175.854053,65.4995 L176.280053,66.8513 L176.663053,68.2129 L177.014053,69.5784 L177.349053,70.9476 L177.672053,72.3186 L177.984053,73.691 L178.264053,75.0729 L178.497053,76.4645 L178.675053,77.8637 L178.811053,79.2723 L178.972053,80.6839 L179.083053,82.1042 L179.132053,83.536 L179.130053,84.9754 L179.078053,86.4208 L178.980053,87.8781 L178.916053,88.4968 L178.822053,89.118 L178.699053,89.7471 L178.552053,90.382 L178.386053,91.0218 L178.207053,91.665 L177.817053,92.9931 L177.423053,94.3487 L177.075053,95.7083 C176.880053,96.4767 177.345053,97.2576 178.114053,97.4523 C178.882053,97.647 179.663053,97.1819 179.858053,96.4135 L180.188053,95.0975 L180.562053,93.7879 L180.948053,92.4487 L181.138053,91.7545 L181.316053,91.0522 L181.478053,90.3391 L181.622053,89.6133 L181.741053,88.8709 L181.826053,88.1154 L181.943053,86.5859 L182.019053,85.0604 L182.063053,83.5445 L182.084053,82.0347 L182.087053,80.5283 L182.064053,79.0279 L181.948053,77.5373 L181.801053,76.0514 L181.640053,74.5713 L181.463053,73.0939 L181.252053,71.6196 L180.989053,70.1568 L180.682053,68.7033 L180.331053,67.258 L179.954053,65.8207 L179.572053,64.3838 L179.171053,62.9486 L178.723053,61.52 L178.349053,60.0788 L178.000053,58.6155 L177.549053,57.1794 L177.081053,55.751 L176.558053,54.3361 L176.046053,52.9531 C175.486053,51.6236 173.953053,51.0002 172.624053,51.5606 C171.294053,52.121 170.671053,53.6531 171.231053,54.9827 Z" id="Fill-116"></path>
        </g>
    </g>
</svg>
