<?xml version="1.0" encoding="UTF-8"?>
<svg width="166px" height="199px" viewBox="0 0 166 199" version="1.1" xmlns="http://www.w3.org/2000/svg" xmlns:xlink="http://www.w3.org/1999/xlink">
    <title>239</title>
    <g id="Page-1" stroke="none" stroke-width="1" fill="none" fill-rule="evenodd">
        <g id="239" transform="translate(0.347491, 0.922423)" fill="currentColor">
            <path d="M8.35119399,193.66527 L8.35419399,192.65457 L8.35619399,191.68517 L8.37919399,190.67687 L8.40119399,189.66617 L8.44319399,188.61857 L8.48519399,187.56607 L8.54519399,186.48157 L8.60419399,185.39837 L8.68319399,184.28157 L8.76119399,183.16327 L8.85819399,182.01307 L8.95619399,180.85917 L9.07019399,179.67797 L9.18319399,178.49797 L9.31519399,177.28947 L9.44719399,176.07977 L9.59619399,174.84337 L9.74519399,173.60407 L9.91019399,172.34177 L10.075194,171.08067 L10.256194,169.79607 L10.438194,168.51047 L10.636194,167.20317 L10.833194,165.89337 L11.045194,164.56497 L11.256194,163.23767 L11.482194,161.89157 L11.709194,160.54497 L11.951194,159.18117 L12.193194,157.81547 L12.447194,156.43557 L12.700194,155.05637 L12.967194,153.66327 L13.235194,152.26957 L13.516194,150.86377 L13.797194,149.45617 L14.090194,148.03887 L14.384194,146.62247 L14.690194,145.19697 L14.996194,143.77117 L15.315194,142.33777 L15.634194,140.90297 L15.964194,139.46277 L16.292194,138.02307 L16.630194,136.57847 L16.968194,135.13357 L17.317194,133.68597 L17.665194,132.24257 L18.028194,130.79807 L18.395194,129.33677 L18.758194,127.87467 L19.114194,126.43627 L19.491194,125.00147 L19.875194,123.54287 L20.258194,122.08427 L20.635194,120.64887 L21.019194,119.22067 L21.410194,117.76927 L21.800194,116.31767 L22.186194,114.88147 L22.584194,113.45587 L22.983194,112.02597 L23.402194,110.60967 L23.827194,109.19507 L24.259194,107.79197 L24.692194,106.38797 L25.132194,104.99587 L25.571194,103.60477 L26.020194,102.22947 L26.478194,100.85717 L26.942194,99.5011704 L27.406194,98.1442704 L27.875194,96.8037704 L28.344194,95.4643704 L28.819194,94.1444704 L29.291194,92.8240704 L29.767194,91.5244704 L30.243194,90.2238704 L30.724194,88.9438704 L31.203194,87.6654704 L31.687194,86.4110704 L32.171194,85.1570704 L32.658194,83.9285704 L33.144194,82.6990704 L33.634194,81.4943704 L34.123194,80.2915704 L34.614194,79.1176704 L35.105194,77.9442704 L35.599194,76.8014704 L36.093194,75.6577704 L36.589194,74.5432704 L37.083194,73.4309704 L37.580194,72.3524704 L38.075194,71.2745704 L38.572194,70.2322704 L39.069194,69.1888704 L39.566194,68.1791704 L40.063194,67.1726704 L40.560194,66.2048704 L41.057194,65.2380704 L41.553194,64.3117704 L42.049194,63.3843704 L42.544194,62.4949704 L43.037194,61.6091704 L43.529194,60.7669704 L44.013194,59.9359704 L44.998194,58.3362704 L45.969194,56.8350704 L46.927194,55.4381704 L47.888194,54.1245704 L48.343194,53.5327704 L48.805194,52.9521704 L49.264194,52.3978704 L49.718194,51.8699704 L50.164194,51.3735704 L50.606194,50.9045704 L51.041194,50.4631704 L51.466194,50.0549704 L51.885194,49.6751704 L52.295194,49.3239704 L52.691194,49.0073704 L53.080194,48.7192704 L53.457194,48.4600704 L53.814194,48.2354704 L54.163194,48.0386704 L54.496194,47.8693704 L54.805194,47.7323704 L55.103194,47.6202704 L55.385194,47.5319704 L55.639194,47.4700704 L55.885194,47.4282704 L56.116194,47.4038704 L56.324194,47.3980704 L56.532194,47.4090704 L56.735194,47.4338704 L56.925194,47.4732704 L57.128194,47.5331704 L57.336194,47.6108704 L57.544194,47.7075704 L57.772194,47.8355704 L58.011194,47.9905704 L58.255194,48.1735704 L58.518194,48.3984704 L58.792194,48.6586704 L59.069194,48.9543704 L59.360194,49.2979704 L59.656194,49.6815704 L59.956194,50.1046704 L60.262194,50.5778704 L60.570194,51.0931704 L60.878194,51.6505704 L61.188194,52.2583704 L61.498194,52.9089704 L61.804194,53.6029704 L62.111194,54.3473704 L62.414194,55.1348704 L62.713194,55.9666704 L63.010194,56.8486704 L63.302194,57.7739704 L63.591194,58.7443704 L63.875194,59.7650704 L64.154194,60.8295704 L64.427194,61.9404704 L64.694194,63.1017704 L64.956194,64.3074704 L65.212194,65.5604704 L65.461194,66.8643704 L65.705194,68.2132704 L65.941194,69.6104704 L66.171194,71.0592704 L66.394194,72.5538704 L66.609194,74.0978704 L66.818194,75.6939704 L67.022194,77.3366704 L67.218194,79.0297704 L67.406194,80.7759704 L67.587194,82.5697704 L67.759194,84.4152704 L67.926194,86.3144704 L68.086194,88.2652704 L68.161194,89.2623704 L68.236194,90.2627704 L68.307194,91.2900704 L68.378194,92.3182704 L68.446194,93.3710704 L68.513194,94.4232704 L68.575194,95.5026704 L68.638194,96.5821704 L68.696194,97.6891704 L68.755194,98.7969704 L68.809194,99.9298704 L68.863194,101.06227 L68.912194,102.22247 L68.962194,103.38267 L69.007194,104.57097 L69.052194,105.76547 L69.098194,106.99797 L69.144194,108.23647 L69.194194,109.44487 L69.244194,110.65337 L69.298194,111.83197 L69.351194,113.01017 L69.406194,114.16147 L69.461194,115.31347 L69.520194,116.43597 L69.578194,117.55857 L69.641194,118.65207 L69.704194,119.74497 L69.770194,120.81167 L69.835194,121.87907 L69.905194,122.91777 L69.974194,123.95647 L70.047194,124.96687 L70.120194,125.97907 L70.272194,127.94577 L70.432194,129.85977 L70.598194,131.71787 L70.769194,133.52657 L70.946194,135.28187 L71.131194,136.98267 L71.322194,138.63507 L71.520194,140.23587 L71.725194,141.78367 L71.935194,143.28467 L72.153194,144.73587 L72.378194,146.13547 L72.609194,147.48977 L72.848194,148.79617 L73.094194,150.05247 L73.346194,151.26517 L73.606194,152.43237 L73.872194,153.55097 L74.146194,154.62787 L74.428194,155.66147 L74.718194,156.64827 L75.015194,157.59537 L75.322194,158.50207 L75.636194,159.36377 L75.961194,160.18757 L76.299194,160.97317 L76.646194,161.71557 L77.004194,162.42287 L77.377194,163.09587 L77.762194,163.72727 L78.161194,164.32537 L78.582194,164.89147 L79.017194,165.41577 L79.473194,165.90627 L79.958194,166.36357 L80.461194,166.77447 L80.989194,167.14557 L81.552194,167.47447 L82.131194,167.74677 L82.730194,167.96747 L83.357194,168.13227 L83.984194,168.23307 L84.614194,168.27487 L85.252194,168.25667 L85.872194,168.18197 L86.479194,168.05837 L87.083194,167.88387 L87.662194,167.66767 L88.228194,167.41437 L88.787194,167.12027 L89.328194,166.79457 L89.859194,166.43877 L90.386194,166.04827 L90.901194,165.63037 L91.411194,165.18547 L91.919194,164.70877 L92.422194,164.20617 L92.921194,163.67797 L93.421194,163.11957 L93.918194,162.53587 L94.417194,161.92877 L94.916194,161.29277 L95.415194,160.63177 L95.915194,159.94677 L96.416194,159.23387 L96.918194,158.49657 L97.421194,157.73587 L97.927194,156.94877 L98.433194,156.13767 L98.941194,155.30427 L99.452194,154.44547 L99.965194,153.56457 L100.481194,152.66217 L100.999194,151.73547 L101.518194,150.78687 L102.040194,149.81767 L102.564194,148.82567 L103.090194,147.81257 L103.618194,146.78007 L104.148194,145.72607 L104.683194,144.64977 L105.218194,143.55187 L105.754194,142.45087 L106.294194,141.31017 L106.834194,140.17037 L107.379194,138.99287 L107.923194,137.81687 L108.472194,136.60867 L109.021194,135.40057 L109.575194,134.15797 L110.128194,132.91607 L110.685194,131.64167 L111.242194,130.36847 L111.802194,129.06717 L112.361194,127.76587 L112.925194,126.43527 L113.488194,125.10527 L114.054194,123.74817 L114.620194,122.39177 L115.188194,121.01227 L115.757194,119.63287 L116.330194,118.22997 L116.902194,116.82737 L117.477194,115.40307 L118.052194,113.97937 L118.628194,112.53727 L119.205194,111.09517 L119.784194,109.63487 L120.364194,108.17487 L120.945194,106.69827 L121.526194,105.22227 L122.108194,103.73267 L122.690194,102.24307 L123.274194,100.74037 L123.858194,99.2379704 L124.442194,97.7242704 L125.027194,96.2109704 L125.612194,94.6890704 L126.198194,93.1672704 L126.784194,91.6375704 L127.370194,90.1081704 L127.956194,88.5728704 L128.542194,87.0375704 L129.129194,85.4971704 L129.715194,83.9578704 L130.302194,82.4185704 L130.888194,80.8786704 L131.474194,79.3369704 L132.060194,77.7960704 L132.645194,76.2550704 L133.232194,74.7148704 L133.817194,73.1807704 L134.402194,71.6461704 L134.987194,70.1115704 L135.571194,68.5783704 L136.154194,67.0569704 L136.738194,65.5343704 L137.321194,64.0117704 L137.904194,62.4917704 L138.483194,60.9914704 L139.064194,59.4885704 L139.644194,57.9855704 L140.223194,56.4865704 L140.797194,55.0150704 L141.374194,53.5394704 L141.949194,52.0640704 L142.524194,50.5918704 L143.095194,49.1423704 L143.667194,47.6923704 L144.236194,46.2612704 L144.804194,44.8304704 L145.369194,43.4204704 L145.935194,42.0104704 L146.497194,40.6209704 L147.059194,39.2321704 L147.617194,37.8674704 L148.175194,36.5032704 L148.729194,35.1652704 L149.284194,33.8271704 L149.834194,32.5144704 L150.385194,31.2025704 L150.930194,29.9202704 L151.476194,28.6384704 L152.017194,27.3883704 L152.558194,26.1379704 L153.095194,24.9179704 L153.631194,23.6990704 L154.162194,22.5151704 L154.693194,21.3318704 L155.218194,20.1856704 L155.743194,19.0391704 L156.263194,17.9278704 L156.783194,16.8181704 L157.297194,15.7488704 L157.810194,14.6804704 L158.316194,13.6545704 L158.823194,12.6283704 L159.324194,11.6423704 L159.824194,10.6584704 L160.317194,9.72057043 L160.810194,8.78397043 L161.295194,7.89537043 L161.789194,6.99057043 C162.396194,5.87817043 161.986194,4.48447043 160.873194,3.87777043 C159.761194,3.27097043 158.367194,3.68097043 157.760194,4.79337043 L157.267194,5.69857043 L156.765194,6.61987043 L156.257194,7.58807043 L155.750194,8.55497043 L155.236194,9.56687043 L154.724194,10.5767704 L154.207194,11.6260704 L153.689194,12.6755704 L153.166194,13.7669704 L152.643194,14.8572704 L152.115194,15.9876704 L151.588194,17.1163704 L151.055194,18.2799704 L150.523194,19.4436704 L149.986194,20.6438704 L149.449194,21.8434704 L148.907194,23.0777704 L148.366194,24.3108704 L147.820194,25.5739704 L147.274194,26.8370704 L146.725194,28.1315704 L146.175194,29.4255704 L145.621194,30.7489704 L145.067194,32.0714704 L144.510194,33.4191704 L143.953194,34.7668704 L143.392194,36.1406704 L142.831194,37.5139704 L142.267194,38.9113704 L141.703194,40.3080704 L141.136194,41.7250704 L140.569194,43.1422704 L139.999194,44.5799704 L139.429194,46.0173704 L138.857194,47.4736704 L138.284194,48.9302704 L137.708194,50.4096704 L137.132194,51.8854704 L136.557194,53.3613704 L135.981194,54.8412704 L135.400194,56.3484704 L134.821194,57.8518704 L134.241194,59.3551704 L133.661194,60.8610704 L133.078194,62.3867704 L132.495194,63.9096704 L131.912194,65.4326704 L131.329194,66.9568704 L130.742194,68.4926704 L130.157194,70.0270704 L129.572194,71.5614704 L128.986194,73.0963704 L128.398194,74.6373704 L127.811194,76.1774704 L127.223194,77.7176704 L126.635194,79.2571704 L126.047194,80.7949704 L125.458194,82.3334704 L124.870194,83.8718704 L124.282194,85.4093704 L123.695194,86.9417704 L123.107194,88.4739704 L122.520194,90.0003704 L121.932194,91.5264704 L121.346194,93.0445704 L120.760194,94.5626704 L120.174194,96.0719704 L119.589194,97.5808704 L119.005194,99.0784704 L118.421194,100.57577 L117.838194,102.05987 L117.255194,103.54377 L116.674194,105.01427 L116.094194,106.48407 L115.515194,107.93727 L114.936194,109.39017 L114.359194,110.82417 L113.781194,112.25817 L113.206194,113.67377 L112.631194,115.08857 L112.059194,116.48137 L111.487194,117.87377 L110.917194,119.24187 L110.347194,120.60997 L109.779194,121.95457 L109.212194,123.29837 L108.649194,124.61487 L108.085194,125.93067 L107.525194,127.21727 L106.966194,128.50397 L106.409194,129.76237 L105.854194,131.01967 L105.302194,132.24417 L104.751194,133.46807 L104.204194,134.65717 L103.657194,135.84617 L103.113194,137.00147 L102.569194,138.15527 L102.031194,139.27077 L101.492194,140.38547 L100.960194,141.45997 L100.425194,142.53757 L99.898194,143.58037 L99.372194,144.60307 L98.849194,145.60377 L98.329194,146.58367 L97.813194,147.53947 L97.300194,148.47207 L96.791194,149.38247 L96.285194,150.26707 L95.784194,151.12717 L95.286194,151.96357 L94.792194,152.77167 L94.301194,153.55377 L93.815194,154.31057 L93.335194,155.03817 L92.859194,155.73827 L92.389194,156.41157 L91.925194,157.05357 L91.466194,157.66667 L91.013194,158.25137 L90.569194,158.80257 L90.130194,159.32327 L89.698194,159.81247 L89.276194,160.26597 L88.862194,160.68747 L88.457194,161.07727 L88.067194,161.42917 L87.687194,161.74817 L87.320194,162.03437 L86.972194,162.28157 L86.638194,162.49607 L86.321194,162.67847 L86.031194,162.82337 L85.758194,162.93887 L85.506194,163.02697 L85.287194,163.08497 L85.082194,163.12097 L84.897194,163.13907 L84.740194,163.13907 L84.585194,163.12357 L84.436194,163.09777 L84.296194,163.05887 L84.139194,162.99767 L83.971194,162.91627 L83.797194,162.81157 L83.600194,162.66827 L83.386194,162.49057 L83.165194,162.27677 L82.925194,162.01277 L82.675194,161.70587 L82.421194,161.35557 L82.157194,160.95107 L81.888194,160.50077 L81.620194,160.00437 L81.347194,159.45337 L81.075194,158.85597 L80.805194,158.21117 L80.533194,157.51327 L80.262194,156.76927 L79.995194,155.97687 L79.731194,155.13097 L79.471194,154.23837 L79.215194,153.29667 L78.964194,152.30137 L78.717194,151.25917 L78.475194,150.16687 L78.239194,149.02067 L78.009194,147.82687 L77.784194,146.58197 L77.566194,145.28277 L77.353194,143.93517 L77.146194,142.53537 L76.946194,141.08057 L76.753194,139.57647 L76.567194,138.01877 L76.387194,136.40527 L76.214194,134.74167 L76.048194,133.02327 L75.889194,131.24817 L75.739194,129.42157 L75.597194,127.53897 L75.463194,125.59637 L75.399194,124.60207 L75.335194,123.60607 L75.275194,122.58117 L75.215194,121.55627 L75.159194,120.50217 L75.104194,119.44737 L75.051194,118.36607 L74.999194,117.28527 L74.950194,116.17497 L74.902194,115.06457 L74.857194,113.92447 L74.812194,112.78377 L74.773194,111.61587 L74.734194,110.44847 L74.699194,109.25087 L74.664194,108.05327 L74.634194,106.82527 L74.603194,105.59127 L74.572194,104.39517 L74.542194,103.19287 L74.506194,102.01827 L74.470194,100.84347 L74.429194,99.6960704 L74.389194,98.5491704 L74.344194,97.4270704 L74.298194,96.3041704 L74.248194,95.2082704 L74.198194,94.1121704 L74.143194,93.0429704 L74.088194,91.9741704 L74.028194,90.9296704 L73.969194,89.8842704 L73.905194,88.8652704 L73.840194,87.8429704 L73.702194,85.8605704 L73.556194,83.9219704 L73.397194,82.0338704 L73.230194,80.1974704 L73.054194,78.4066704 L72.870194,76.6645704 L72.676194,74.9728704 L72.473194,73.3259704 L72.260194,71.7262704 L72.038194,70.1758704 L71.809194,68.6685704 L71.571194,67.2067704 L71.324194,65.7929704 L71.070194,64.4208704 L70.806194,63.0928704 L70.535194,61.8113704 L70.256194,60.5700704 L69.968194,59.3707704 L69.672194,58.2167704 L69.367194,57.1013704 L69.054194,56.0257704 L68.732194,54.9941704 L68.401194,53.9998704 L68.060194,53.0429704 L67.711194,52.1284704 L67.352194,51.2492704 L66.982194,50.4049704 L66.603194,49.6017704 L66.212194,48.8319704 L65.808194,48.0946704 L65.394194,47.3972704 L64.966194,46.7319704 L64.520194,46.0970704 L64.061194,45.5024704 L63.586194,44.9396704 L63.087194,44.4072704 L62.574194,43.9167704 L62.041194,43.4605704 L61.480194,43.0385704 L60.904194,42.6635704 L60.308194,42.3290704 L59.683194,42.0368704 L59.050194,41.7982704 L58.403194,41.6074704 L57.734194,41.4672704 L57.070194,41.3828704 L56.404194,41.3478704 L55.729194,41.3649704 L55.070194,41.4313704 L54.419194,41.5415704 L53.770194,41.6981704 L53.139194,41.8939704 L52.520194,42.1249704 L51.905194,42.3951704 L51.307194,42.6964704 L50.719194,43.0269704 L50.135194,43.3915704 L49.563194,43.7825704 L48.998194,44.1992704 L48.435194,44.6467704 L47.881194,45.1183704 L47.332194,45.6138704 L46.783194,46.1381704 L46.240194,46.6854704 L45.701194,47.2555704 L45.161194,47.8529704 L44.625194,48.4726704 L44.091194,49.1143704 L43.556194,49.7819704 L43.010194,50.4899704 L41.963194,51.9136704 L40.902194,53.4511704 L39.846194,55.0745704 L38.797194,56.7669704 L38.261194,57.6709704 L37.733194,58.5638704 L37.204194,59.4987704 L36.678194,60.4301704 L36.152194,61.3986704 L35.625194,62.3682704 L35.099194,63.3770704 L34.573194,64.3848704 L34.048194,65.4301704 L33.523194,66.4722704 L33.000194,67.5472704 L32.475194,68.6233704 L31.953194,69.7341704 L31.430194,70.8442704 L30.910194,71.9874704 L30.390194,73.1284704 L29.873194,74.2981704 L29.355194,75.4689704 L28.840194,76.6698704 L28.325194,77.8702704 L27.813194,79.0991704 L27.302194,80.3261704 L26.794194,81.5778704 L26.286194,82.8305704 L25.782194,84.1091704 L25.279194,85.3873704 L24.780194,86.6893704 L24.282194,87.9899704 L23.788194,89.3109704 L23.293194,90.6327704 L22.805194,91.9757704 L22.319194,93.3192704 L21.838194,94.6818704 L21.358194,96.0432704 L20.883194,97.4207704 L20.408194,98.7990704 L19.939194,100.19367 L19.462194,101.58527 L18.989194,102.99017 L18.515194,104.39397 L18.048194,105.80977 L17.581194,107.22647 L17.121194,108.65487 L16.655194,110.08137 L16.186194,111.51407 L15.714194,112.95117 L15.255194,114.39907 L14.800194,115.83167 L14.345194,117.26427 L13.884194,118.72027 L13.452194,120.19047 L13.027194,121.63737 L12.602194,123.08447 L12.170194,124.55517 L11.759194,126.03007 L11.354194,127.48117 L10.953194,128.93327 L10.548194,130.40207 L10.157194,131.87047 L9.76819399,133.33447 L9.39119399,134.79627 L9.01319399,136.25817 L8.64919399,137.71647 L8.28819399,139.17417 L7.93719399,140.62697 L7.58619399,142.08117 L7.24819399,143.52817 L6.91019399,144.97567 L6.58619399,146.41437 L6.26119399,147.85197 L5.94919399,149.28037 L5.63719399,150.71047 L5.33819399,152.12877 L5.04019399,153.54757 L4.75619399,154.95297 L4.47419399,156.35767 L4.20619399,157.74887 L3.93819399,159.14207 L3.68519399,160.51897 L3.43219399,161.89637 L3.19519399,163.25577 L2.95819399,164.61417 L2.73719399,165.95497 L2.51619399,167.29807 L2.31219399,168.62027 L2.10719399,169.94337 L1.92019399,171.24377 L1.73319399,172.54307 L1.56219399,173.82047 L1.39119399,175.10077 L1.23719399,176.35557 L1.08419399,177.61157 L0.949193991,178.84037 L0.815193991,180.06797 L0.698193991,181.26957 L0.580193991,182.47497 L0.482193991,183.65047 L0.384193991,184.82757 L0.306193991,185.97317 L0.228193991,187.11737 L0.169193991,188.23167 L0.109193991,189.35107 L0.0711939915,190.43627 L0.0331939915,191.52367 L0.0161939915,192.57557 L0,193.58617 C-0.0218060085,195.89227 1.83019399,197.77937 4.13619399,197.801461 C6.44219399,197.82307 8.32919399,195.97137 8.35119399,193.66527 Z" id="Fill-25"></path>
            <path d="M145.839194,29.7990704 L146.497194,28.4152704 L147.164194,27.0646704 L147.839194,25.6990704 L148.469194,24.2873704 L149.274194,22.9753704 L150.094194,21.6648704 L150.961194,20.3700704 L151.841194,19.0771704 L152.703194,17.7725704 L153.544194,16.4363704 L154.373194,15.0974704 L155.232194,13.7770704 L155.876194,12.7782704 L156.464194,11.7553704 L157.071194,10.7284704 L157.691194,9.72497043 L158.339194,8.73277043 L158.991194,7.75307043 L159.667194,6.79277043 L160.339194,5.84367043 L161.052194,4.93597043 L161.757194,4.03787043 L162.508194,3.19537043 L163.287194,2.32027043 C163.797194,1.74297043 163.743194,0.860870429 163.166194,0.350270429 C162.588194,-0.160429571 161.706194,-0.106329571 161.196194,0.471070429 L160.422194,1.35087043 L159.621194,2.26327043 L158.869194,3.23187043 L158.125194,4.19097043 L157.411194,5.18267043 L156.702194,6.16337043 L156.016194,7.16217043 L155.327194,8.14857043 L154.641194,9.13217043 L153.943194,10.0924704 L153.233194,11.0276704 L152.580194,11.9870704 L151.672194,13.2481704 L150.734194,14.4905704 L149.776194,15.7215704 L148.840194,16.9840704 L147.931194,18.2666704 L147.010194,19.5474704 L146.071194,20.8297704 L145.148194,22.1297704 L144.095194,23.3549704 L143.135194,24.6534704 L142.229194,26.0018704 L141.385194,27.3575704 C140.710194,28.5877704 141.161194,30.1315704 142.391194,30.8057704 C143.621194,31.4799704 145.165194,31.0292704 145.839194,29.7990704 Z" id="Fill-106"></path>
            <path d="M155.074194,35.1975704 L155.063194,34.2721704 L155.101194,33.4091704 L155.179194,32.5205704 L155.287194,31.6118704 L155.416194,30.6862704 L155.531194,29.7283704 L155.697194,28.7630704 L155.979194,27.8188704 L156.261194,26.8622704 L156.550194,25.8986704 L156.855194,24.9343704 L157.160194,23.9793704 L157.748194,22.1315704 L158.312194,20.2858704 L158.870194,18.4340704 L159.479194,16.5974704 L160.118194,14.7692704 L160.690194,12.9134704 L161.323194,11.0781704 L161.984194,9.24847043 L162.640194,7.41777043 L163.311194,5.58537043 L163.957194,3.74327043 L164.600194,1.91137043 C164.853194,1.18327043 164.468194,0.387970429 163.740194,0.134870429 C163.012194,-0.118229571 162.216194,0.266770429 161.963194,0.994870429 L161.331194,2.83047043 L160.702194,4.65597043 L160.042194,6.46917043 L159.367194,8.28407043 L158.674194,10.0923704 L157.953194,11.8951704 L157.173194,13.6795704 L156.468194,15.4974704 L155.752194,17.3160704 L155.009194,19.1310704 L154.305194,20.9677704 L153.665194,22.8216704 L153.344194,23.7612704 L153.006194,24.7025704 L152.648194,25.6551704 L152.294194,26.6239704 L151.961194,27.6151704 L151.549194,28.5945704 L151.132194,29.5896704 L150.792194,30.6256704 L150.506194,31.6869704 L150.273194,32.7753704 L150.102194,33.8969704 L149.999194,34.9633704 C149.935194,36.3646704 151.018194,37.5530704 152.420194,37.6177704 C153.821194,37.6824704 155.009194,36.5988704 155.074194,35.1975704 Z" id="Fill-107"></path>
        </g>
    </g>
</svg>
