<?xml version="1.0" encoding="UTF-8"?>
<svg width="169px" height="234px" viewBox="0 0 169 234" version="1.1" xmlns="http://www.w3.org/2000/svg" xmlns:xlink="http://www.w3.org/1999/xlink">
    <title>240</title>
    <g id="Page-1" stroke="none" stroke-width="1" fill="none" fill-rule="evenodd">
        <g id="240" transform="translate(0.924878, 0.616448)" fill="currentColor">
            <path d="M5.65480734,232.803126 L6.65680734,232.416526 L7.65780734,232.029926 L8.65980734,231.643336 L9.66080734,231.256736 L10.6628073,230.870136 L11.6648073,230.483546 L12.6658073,230.096826 L13.6818073,229.704736 L14.6908073,229.306666 L15.6848073,228.914206 L16.6788073,228.521756 L17.6728073,228.129296 L18.6678073,227.736836 L19.6618073,227.344506 L20.6558073,226.952046 L21.6668073,226.552876 L22.6708073,226.146146 L23.6578073,225.746116 L24.6448073,225.346096 L25.6318073,224.946066 L26.6188073,224.546046 L27.6048073,224.146016 L28.5918073,223.745996 L29.5968073,223.339016 L30.5948073,222.923606 L31.5748073,222.515286 L32.5558073,222.106346 L33.5358073,221.697166 L34.5158073,221.287986 L35.4958073,220.878806 L36.4758073,220.469626 L37.4778073,220.051656 L38.4728073,219.622946 L39.4458073,219.203146 L40.4198073,218.783346 L41.3928073,218.362206 L42.3658073,217.940946 L43.3378073,217.519676 L44.3108073,217.098416 L45.3068073,216.667136 L46.2968073,216.223286 L47.2638073,215.789696 L48.2298073,215.355976 L49.1958073,214.922386 L50.1628073,214.488666 L51.1288073,214.055076 L52.0948073,213.621366 L53.0788073,213.180326 L54.0578073,212.729886 L55.0198073,212.286886 L55.9818073,211.843896 L56.9568073,211.395046 L57.9278073,210.938496 L58.8858073,210.485616 L59.8438073,210.032736 L60.8148073,209.573756 L61.7838073,209.106956 L62.7388073,208.646386 L63.6928073,208.185696 L64.6608073,207.719266 L65.6248073,207.245386 L66.5768073,206.776516 L67.5278073,206.305686 L68.4928073,205.828396 L69.4538073,205.342556 L70.4018073,204.863306 L71.3498073,204.384056 L72.3118073,203.897846 L73.2718073,203.402736 L74.2168073,202.914576 L75.1598073,202.422386 L76.1138073,201.920066 L77.0658073,201.409206 L78.0038073,200.904806 L78.9428073,200.400296 L79.8958073,199.888816 L80.8458073,199.367456 L81.7818073,198.853296 L82.7178073,198.339136 L83.6718073,197.826196 L84.6258073,197.306416 L85.5648073,196.794086 L86.5048073,196.281766 L87.4578073,195.762596 L88.4078073,195.233666 L89.3448073,194.711696 L90.2818073,194.189716 L91.2338073,193.660056 L92.1868073,193.127216 L93.1258073,192.602566 L94.0658073,192.077786 L95.0198073,191.544946 L95.9708073,191.000636 L96.9078073,190.464496 L97.8448073,189.928366 L98.7918073,189.386986 L99.7448073,188.832786 L100.692807,188.278956 L101.625807,187.729636 L102.558807,187.180196 L103.475807,186.635156 L104.392807,186.090476 L105.295807,185.549586 L106.198807,185.008446 L107.085807,184.471706 L107.973807,183.934476 L108.845807,183.401026 L109.716807,182.867946 L110.573807,182.338646 L111.433807,181.807886 L113.117807,180.758446 L114.771807,179.716576 L116.399807,178.682276 L117.997807,177.656026 L119.564807,176.638206 L121.105807,175.627956 L122.618807,174.625516 L124.101807,173.632226 L125.558807,172.647116 L126.987807,171.669706 L128.387807,170.700466 L129.761807,169.738426 L131.108807,168.783596 L132.427807,167.839136 L133.721807,166.901756 L134.989807,165.971456 L136.228807,165.049096 L137.442807,164.133566 L138.630807,163.224756 L139.790807,162.323996 L140.925807,161.429706 L142.035807,160.542016 L143.118807,159.662006 L144.177807,158.788356 L145.211807,157.920926 L146.218807,157.061176 L147.202807,156.207906 L148.161807,155.360616 L149.094807,154.520896 L150.005807,153.686946 L150.891807,152.858546 L151.752807,152.037346 L152.590807,151.221946 L153.405807,150.411546 L154.193807,149.607846 L154.960807,148.809446 L155.704807,148.015746 L156.424807,147.229246 L157.121807,146.447746 L157.797807,145.670546 L158.448807,144.900246 L159.078807,144.134746 L159.686807,143.372946 L160.270807,142.617446 L160.833807,141.866346 L161.375807,141.118446 L161.906807,140.357346 L162.867807,138.907146 L163.757807,137.450446 L164.557807,136.015246 L165.277807,134.594146 L165.913807,133.182146 L166.461807,131.790546 L166.931807,130.411046 L167.316807,129.038346 L167.614807,127.686746 L167.833807,126.347946 L167.966807,125.016146 L168.012807,123.709346 L167.978807,122.419746 L167.859807,121.141646 L167.658807,119.895546 L167.383807,118.672546 L167.025807,117.467946 L166.594807,116.300446 L166.095807,115.160646 L165.523807,114.044546 L164.886807,112.967046 L164.190807,111.918646 L163.429807,110.895046 L162.614807,109.906746 L161.747807,108.945346 L160.823807,108.007546 L159.851807,107.100446 L158.834807,106.217146 L157.766807,105.355146 L156.653807,104.519346 L155.501807,103.704046 L154.301807,102.907746 L153.062807,102.133846 L151.786807,101.377846 L150.467807,100.638846 L149.112807,99.9190456 L147.724807,99.2149456 L146.297807,98.5263456 L144.837807,97.8543456 L143.347807,97.1964456 L141.822807,96.5522456 L140.270807,95.9200456 L138.690807,95.3003456 L137.080807,94.6928456 L135.443807,94.0984456 L133.784807,93.5149456 L132.098807,92.9424456 L130.389807,92.3811456 L128.661807,91.8294456 L126.910807,91.2878456 L125.136807,90.7551456 L123.347807,90.2368456 L121.554807,89.7149456 L119.727807,89.2097456 L117.902807,88.7053456 L116.050807,88.2159456 L114.200807,87.7270456 L112.330807,87.2492456 L110.460807,86.7717456 L108.573807,86.3066456 L106.688807,85.8420456 L104.791807,85.3878456 L102.896807,84.9333456 L100.996807,84.4876456 L99.0968073,84.0422456 L97.1968073,83.6051456 L95.2968073,83.1728456 L93.4008073,82.7505456 L91.5058073,82.3283456 L89.6278073,81.9132456 L87.7518073,81.4984456 L85.8738073,81.0902456 L83.9978073,80.6848456 L82.1628073,80.2846456 L80.3248073,79.8840456 L78.4878073,79.4834456 L76.6618073,79.0803456 L74.9008073,78.6755456 L73.1298073,78.2684456 L71.3588073,77.8613456 L69.5988073,77.4566456 L67.8958073,77.0467456 L66.1928073,76.6356456 L64.5378073,76.2204456 L62.8858073,75.8059456 L61.2878073,75.3858456 L59.6868073,74.9647456 L58.1358073,74.5400456 L56.6138073,74.1115456 L55.1258073,73.6791456 L53.6708073,73.2431456 L52.2528073,72.8036456 L50.8728073,72.3589456 L49.5308073,71.9084456 L48.2318073,71.4537456 L46.9738073,70.9938456 L45.7578073,70.5294456 L44.5898073,70.0608456 L43.4688073,69.5863456 L42.3928073,69.1075456 L41.3718073,68.6249456 L40.4008073,68.1366456 L39.4808073,67.6446456 L38.6208073,67.1505456 L37.8158073,66.6515456 L37.0668073,66.1510456 L36.3828073,65.6518456 L35.7588073,65.1501456 L35.1938073,64.6507456 L34.6978073,64.1589456 L34.2638073,63.6679456 L33.8878073,63.1848456 L33.5798073,62.7174456 L33.3268073,62.2518456 L33.1258073,61.7948456 L32.9798073,61.3529456 L32.8828073,60.9011456 L32.8268073,60.4438456 L32.8208073,59.9833456 L32.8658073,59.4900456 L32.9598073,58.9704456 L33.1128073,58.4277456 L33.3368073,57.8409456 L33.6258073,57.2206456 L33.9878073,56.5713456 L34.4368073,55.8816456 L34.9628073,55.1614456 L35.5728073,54.4144456 L36.2758073,53.6340456 L37.0628073,52.8275456 L37.9398073,51.9969456 L38.9148073,51.1379456 L39.9768073,50.2556456 L41.1328073,49.3508456 L42.4008073,48.4127456 L43.0528073,47.9466456 L43.7388073,47.4680456 L44.4518073,46.9826456 L45.1868073,46.4920456 L45.9468073,45.9962456 L46.7328073,45.4940456 L47.5428073,44.9864456 L48.3778073,44.4735456 L49.2388073,43.9543456 L50.1238073,43.4298456 L51.0348073,42.8998456 L51.9728073,42.3635456 L52.9348073,41.8220456 L53.9228073,41.2749456 L54.9378073,40.7215456 L55.9788073,40.1628456 L57.0448073,39.5984456 L58.1398073,39.0277456 L59.2598073,38.4516456 L60.4058073,37.8697456 L61.5818073,37.2820456 L62.7818073,36.6889456 L64.0108073,36.0901456 L65.2678073,35.4850456 L66.5508073,34.8741456 L67.8618073,34.2573456 L69.2028073,33.6341456 L70.5698073,33.0060456 L71.9658073,32.3717456 L73.3908073,31.7309456 L74.8428073,31.0844456 L76.3238073,30.4319456 L77.8358073,29.7726456 L79.3738073,29.1075456 L80.9428073,28.4360456 L82.5408073,27.7580456 L84.1678073,27.0740456 L85.8248073,26.3835456 L87.5118073,25.6863456 L89.2278073,24.9830456 L90.9748073,24.2730456 L92.7528073,23.5564456 L94.5598073,22.8335456 L96.3988073,22.1035456 L97.3318073,21.7357456 L98.2678073,21.3674456 L99.2168073,20.9959456 L100.166807,20.6245456 L101.131807,20.2497456 L102.096807,19.8749456 L103.078807,19.4966456 L104.060807,19.1181456 L105.056807,18.7365456 L106.052807,18.3551456 L107.065807,17.9701456 L108.077807,17.5849456 L109.106807,17.1964456 L110.135807,16.8077456 L111.179807,16.4159456 L112.223807,16.0240456 L113.284807,15.6286456 L114.344807,15.2333456 L115.421807,14.8342456 L116.498807,14.4350456 L117.591807,14.0327456 L118.683807,13.6303456 L119.792807,13.2245456 L120.901807,12.8185456 L122.027807,12.4088456 L123.153807,11.9991456 L124.294807,11.5860456 L125.436807,11.1731456 L126.594807,10.7564456 L127.752807,10.3397456 L128.928807,9.91934555 L130.105807,9.49814555 C131.298807,9.07104555 131.919807,7.75774555 131.492807,6.56474555 C131.065807,5.37174555 129.751807,4.75104555 128.558807,5.17814555 L127.381807,5.60014555 L126.202807,6.02274555 L125.040807,6.44174555 L123.878807,6.86074555 L122.733807,7.27604555 L121.588807,7.69114555 L120.458807,8.10314555 L119.329807,8.51504555 L118.216807,8.92334555 L117.103807,9.33164555 L116.006807,9.73644555 L114.910807,10.1411456 L113.829807,10.5425456 L112.748807,10.9438456 L111.683807,11.3418456 L110.619807,11.7396456 L109.570807,12.1340456 L108.522807,12.5283456 L107.489807,12.9193456 L106.456807,13.3104456 L105.438807,13.6981456 L104.421807,14.0857456 L103.420807,14.4698456 L102.420807,14.8540456 L101.433807,15.2348456 L100.447807,15.6158456 L99.4778073,15.9934456 L98.5068073,16.3711456 L97.5528073,16.7452456 L96.5978073,17.1192456 L95.6578073,17.4902456 L94.7168073,17.8617456 L92.8688073,18.5968456 L91.0518073,19.3254456 L89.2628073,20.0481456 L87.5048073,20.7643456 L85.7768073,21.4737456 L84.0778073,22.1772456 L82.4078073,22.8745456 L80.7688073,23.5652456 L79.1568073,24.2501456 L77.5748073,24.9288456 L76.0228073,25.6012456 L74.4968073,26.2678456 L73.0008073,26.9286456 L71.5328073,27.5830456 L70.0928073,28.2318456 L68.6798073,28.8749456 L67.2968073,29.5117456 L65.9388073,30.1426456 L64.6088073,30.7677456 L63.3068073,31.3869456 L62.0308073,32.0008456 L60.7818073,32.6094456 L59.5598073,33.2120456 L58.3638073,33.8093456 L57.1938073,34.4010456 L56.0508073,34.9869456 L54.9328073,35.5680456 L53.8398073,36.1440456 L52.7738073,36.7145456 L51.7328073,37.2803456 L50.7158073,37.8412456 L49.7258073,38.3967456 L48.7588073,38.9477456 L47.8168073,39.4941456 L46.9008073,40.0354456 L46.0068073,40.5722456 L45.1378073,41.1048456 L44.2938073,41.6323456 L43.4718073,42.1557456 L42.6728073,42.6754456 L41.8988073,43.1899456 L41.1468073,43.7008456 L40.4178073,44.2081456 L39.7018073,44.7181456 L38.3648073,45.7053456 L37.1058073,46.6871456 L35.9398073,47.6534456 L34.8528073,48.6090456 L33.8498073,49.5563456 L32.9338073,50.4917456 L32.0938073,51.4210456 L31.3338073,52.3492456 L30.6598073,53.2701456 L30.0598073,54.1914456 L29.5388073,55.1203456 L29.1058073,56.0462456 L28.7508073,56.9774456 L28.4828073,57.9220456 L28.3088073,58.8600456 L28.2228073,59.7976456 L28.2328073,60.7394456 L28.3398073,61.6566456 L28.5328073,62.5545456 L28.8188073,63.4358456 L29.1858073,64.2763456 L29.6228073,65.0853456 L30.1348073,65.8680456 L30.7088073,66.6113456 L31.3388073,67.3257456 L32.0298073,68.0167456 L32.7728073,68.6784456 L33.5628073,69.3188456 L34.4078073,69.9414456 L35.2998073,70.5428456 L36.2348073,71.1284456 L37.2218073,71.7005456 L38.2528073,72.2573456 L39.3238073,72.8021456 L40.4438073,73.3363456 L41.6038073,73.8587456 L42.8028073,74.3719456 L44.0458073,74.8767456 L45.3278073,75.3720456 L46.6448073,75.8601456 L48.0018073,76.3412456 L49.3938073,76.8150456 L50.8188073,77.2846456 L52.2798073,77.7491456 L53.7718073,78.2079456 L55.2938073,78.6621456 L56.8488073,79.1119456 L58.4348073,79.5582456 L60.0518073,79.9990456 L61.6718073,80.4409456 L63.3468073,80.8773456 L65.0188073,81.3131456 L66.7388073,81.7450456 L68.4588073,82.1778456 L70.2358073,82.6098456 L72.0008073,83.0393456 L73.7668073,83.4687456 L75.5418073,83.9005456 L77.3818073,84.3335456 L79.2118073,84.7689456 L81.0408073,85.2043456 L82.8728073,85.6402456 L84.7448073,86.0823456 L86.6158073,86.5213456 L88.4888073,86.9540456 L90.3588073,87.3861456 L92.2448073,87.8251456 L94.1298073,88.2638456 L96.0198073,88.7060456 L97.9088073,89.1433456 L99.7968073,89.5887456 L101.683807,90.0339456 L103.564807,90.4878456 L105.443807,90.9417456 L107.309807,91.4068456 L109.174807,91.8714456 L111.020807,92.3484456 L112.866807,92.8249456 L114.691807,93.3149456 L116.512807,93.8045456 L118.305807,94.3089456 L120.096807,94.8125456 L121.852807,95.3321456 L123.611807,95.8553456 L125.333807,96.3878456 L127.036807,96.9297456 L128.715807,97.4807456 L130.372807,98.0399456 L132.000807,98.6081456 L133.600807,99.1866456 L135.174807,99.7738456 L136.714807,100.370546 L138.223807,100.977846 L139.701807,101.594546 L141.139807,102.223446 L142.542807,102.863646 L143.910807,103.513546 L145.234807,104.173146 L146.519807,104.844546 L147.763807,105.525546 L148.960807,106.215746 L150.113807,106.918246 L151.222807,107.629946 L152.279807,108.349746 L153.287807,109.081946 L154.247807,109.822446 L155.151807,110.569346 L156.003807,111.328246 L156.804807,112.094346 L157.544807,112.864446 L158.231807,113.646046 L158.865807,114.433646 L159.436807,115.222446 L159.953807,116.023846 L160.417807,116.830846 L160.821807,117.637746 L161.171807,118.460546 L161.469807,119.292046 L161.708807,120.127146 L161.893807,120.985146 L162.025807,121.858346 L162.099807,122.742446 L162.113807,123.658346 L162.072807,124.597446 L161.970807,125.556046 L161.800807,126.553346 L161.567807,127.579846 L161.265807,128.631946 L160.885807,129.725046 L160.434807,130.849746 L159.906807,132.002846 L159.292807,133.196446 L158.601807,134.421646 L157.826807,135.676446 L156.944807,136.989246 L156.493807,137.627446 L156.007807,138.291846 L155.496807,138.966446 L154.963807,139.648846 L154.410807,140.338246 L153.830807,141.037546 L153.230807,141.744246 L152.606807,142.457746 L151.956807,143.180846 L151.285807,143.911246 L150.589807,144.648546 L149.868807,145.395246 L149.123807,146.149346 L148.355807,146.910946 L147.561807,147.681746 L146.743807,148.459846 L145.901807,149.245246 L145.031807,150.039546 L144.138807,150.841246 L143.219807,151.650146 L142.274807,152.467946 L141.303807,153.292546 L140.306807,154.124536 L139.282807,154.965356 L138.233807,155.813496 L137.158807,156.669216 L136.054807,157.533716 L134.925807,158.405536 L133.769807,159.284696 L132.585807,160.172756 L131.375807,161.068256 L130.137807,161.971456 L128.870807,162.883446 L127.577807,163.802636 L126.255807,164.727566 L124.903807,165.661276 L123.524807,166.602566 L122.117807,167.551656 L120.680807,168.509546 L119.216807,169.474026 L117.721807,170.445826 L116.197807,171.426416 L114.645807,172.414696 L113.063807,173.411036 L111.450807,174.416286 L109.810807,175.429226 L108.137807,176.451686 L107.289807,176.965356 L106.437807,177.480616 L105.572807,177.999656 L104.707807,178.518576 L103.827807,179.042136 L102.947807,179.566186 L102.051807,180.094626 L101.155807,180.623316 L100.245807,181.156026 L99.3358073,181.688376 L98.4098073,182.225126 L97.4838073,182.761986 L96.5418073,183.303126 L95.6048073,183.843896 L94.6748073,184.372706 L93.7368073,184.906766 L92.7988073,185.440816 L91.8748073,185.966816 L90.9478073,186.481346 L90.0078073,187.004056 L89.0668073,187.526636 L88.1398073,188.041166 L87.2068073,188.536886 L86.2588073,189.040306 L85.3118073,189.543726 L84.3768073,190.040306 L83.4398073,190.527246 L82.4908073,191.021016 L81.5408073,191.514796 L80.6058073,192.001246 L79.6658073,192.474146 L78.7078073,192.945576 L77.7488073,193.417136 L76.8048073,193.881496 L75.8578073,194.336086 L74.8978073,194.797876 L73.9368073,195.259546 L72.9898073,195.714866 L72.0388073,196.161526 L71.0788073,196.618556 L70.1198073,197.079366 L69.1748073,197.533346 L68.2268073,197.978296 L67.2658073,198.430076 L66.3038073,198.881856 L65.3558073,199.326926 L64.4058073,199.763576 L63.4418073,200.206686 L62.4778073,200.651756 L61.5278073,201.091696 L60.5748073,201.524316 L59.6088073,201.962666 L58.6438073,202.401026 L57.6918073,202.833276 L56.7368073,203.257716 L55.7688073,203.688256 L54.8008073,204.118796 L53.8458073,204.545556 L52.8888073,204.965476 L51.9188073,205.391136 L50.9488073,205.816796 L49.9958073,206.235006 L49.0388073,206.643826 L48.0648073,207.060086 L47.0908073,207.476346 L46.1168073,207.892606 L45.1428073,208.308986 L44.1688073,208.725246 L43.1948073,209.141506 L42.2448073,209.547626 L41.2878073,209.941426 L40.3078073,210.345116 L39.3268073,210.748926 L38.3468073,211.152736 L37.3668073,211.556786 L36.3868073,211.961936 L35.4078073,212.367206 L34.4488073,212.763576 L33.4848073,213.149196 L32.4978073,213.543726 L31.5118073,213.938256 L30.5258073,214.332786 L29.5398073,214.727196 L28.5538073,215.121976 L27.5678073,215.517356 L26.5998073,215.905666 L25.6248073,216.285666 L24.6328073,216.672626 L23.6408073,217.059716 L22.6488073,217.446676 L21.6568073,217.833766 L20.6648073,218.220726 L19.6728073,218.607816 L18.6978073,218.988056 L17.7158073,219.360746 L16.7168073,219.740016 L15.7178073,220.119406 L14.7188073,220.498806 L13.7198073,220.878076 L12.7198073,221.257466 L11.7208073,221.636866 L10.7368073,222.010526 L9.74480734,222.378446 L8.73780734,222.751856 L7.73180734,223.125266 L6.72480734,223.498806 L5.71880734,223.872216 L4.71180734,224.245626 L3.70480734,224.619046 L2.69880734,224.992456 C0.541807343,225.808866 -0.545192657,228.219016 0.271807343,230.375876 C1.08780734,232.532736 3.49780734,233.619406 5.65480734,232.803126 Z" id="Fill-24"></path>
            <path d="M111.398807,26.0949456 L112.172807,25.2932456 L112.917807,24.5190456 L113.670807,23.7760456 L114.420807,23.0209456 L115.176807,22.2870456 L115.910807,21.5139456 L116.661807,20.7687456 L117.475807,20.1006456 L118.299807,19.4543456 L119.124807,18.8016456 L119.967807,18.1775456 L120.822807,17.5621456 L121.692807,16.9659456 L122.559807,16.3648456 L123.434807,15.7695456 L124.306807,15.1628456 L125.184807,14.5538456 L126.064807,13.9419456 L126.963807,13.3442456 L127.868807,12.7542456 L128.793807,12.1788456 L129.723807,11.6047456 L130.644807,10.9917456 L131.573807,10.3679456 L132.540807,9.73094555 L133.498807,9.07724555 L134.435807,8.41594555 L135.360807,7.75324555 L136.272807,7.08844555 L137.173807,6.42804555 L138.077807,5.77744555 L138.972807,5.14044555 L139.886807,4.53034555 L140.784807,3.93004555 L141.718807,3.37964555 L142.686807,2.80894555 C143.349807,2.41564555 143.568807,1.55944555 143.174807,0.896345553 C142.781807,0.233445553 141.925807,0.0147455532 141.262807,0.408145553 L140.297807,0.983745553 L139.299807,1.57964555 L138.339807,2.22734555 L137.395807,2.86524555 L136.470807,3.53004555 L135.554807,4.18144555 L134.643807,4.83554555 L133.738807,5.48114555 L132.831807,6.11224555 L131.917807,6.72034555 L130.994807,7.29894555 L130.041807,7.84514555 L129.069807,8.35924555 L128.087807,8.88414555 L127.140807,9.44484555 L126.189807,10.0041456 L125.244807,10.5542456 L124.291807,11.0965456 L123.345807,11.6363456 L122.395807,12.1789456 L121.466807,12.7442456 L120.540807,13.3209456 L119.632807,13.9205456 L118.726807,14.5250456 L117.830807,15.1433456 L116.922807,15.7528456 L116.021807,16.3774456 L115.120807,17.0086456 L114.235807,17.6700456 L113.288807,18.2544456 L112.348807,18.8652456 L111.429807,19.5151456 L110.531807,20.2109456 L109.637807,20.9189456 L108.761807,21.6715456 L107.914807,22.3965456 C106.893807,23.3585456 106.845807,24.9662456 107.807807,25.9875456 C108.769807,27.0088456 110.376807,27.0569456 111.398807,26.0949456 Z" id="Fill-96"></path>
            <path d="M104.300807,11.9316456 L105.862807,11.7798456 L107.449807,11.6202456 L109.055807,11.4001456 L110.656807,11.1223456 L112.268807,10.8097456 L113.889807,10.6234456 L115.515807,10.3822456 L117.147807,10.1676456 L118.781807,9.91534555 L120.415807,9.64334555 L122.035807,9.28934555 L123.645807,8.92594555 L125.264807,8.54754555 L126.876807,8.17054555 L128.470807,7.73474555 L130.044807,7.23944555 L131.616807,6.75254555 L133.176807,6.25254555 L134.726807,5.73314555 L136.260807,5.17934555 L137.776807,4.59804555 L139.274807,3.98674555 L140.752807,3.33634555 L142.188807,2.65564555 C142.883807,2.32334555 143.178807,1.49014555 142.845807,0.794545553 C142.513807,0.0989455532 141.680807,-0.195654447 140.984807,0.136645553 L139.589807,0.808045553 L138.185807,1.43444555 L136.755807,2.02684555 L135.301807,2.58434555 L133.826807,3.09984555 L132.329807,3.58234555 L130.813807,4.02434555 L129.277807,4.41574555 L127.717807,4.73684555 L126.156807,5.06284555 L124.593807,5.38954555 L123.021807,5.65844555 L121.423807,5.86924555 L119.836807,6.08954555 L118.249807,6.29014555 L116.663807,6.51054555 L115.078807,6.67544555 L113.485807,6.81364555 L111.903807,6.92874555 L110.311807,6.91724555 L108.737807,6.86204555 L107.167807,6.86444555 L105.623807,6.85694555 L104.053807,6.85694555 C102.652807,6.92494555 101.571807,8.11614555 101.639807,9.51744555 C101.707807,10.9188456 102.898807,11.9997456 104.300807,11.9316456 Z" id="Fill-97"></path>
            <path d="M127.223807,10.6129456 L127.539807,10.4464456 L127.804807,10.2391456 L128.035807,9.98284555 L128.248807,9.93094555 L128.436807,9.87624555 L128.615807,9.85574555 L128.932807,9.81204555 L129.267807,9.71714555 L129.703807,9.54834555 L130.211807,9.27104555 L130.746807,8.80414555 L131.775807,8.30594555 C132.472807,7.97824555 132.773807,7.14704555 132.445807,6.44924555 C132.117807,5.75144555 131.286807,5.45134555 130.588807,5.77894555 L129.534807,6.25884555 L128.917807,6.35424555 L128.693807,6.34984555 L128.777807,6.25074555 L128.696807,6.19474555 L128.469807,6.17484555 L128.317807,6.16514555 L128.121807,6.12274555 L127.889807,6.08644555 L127.613807,5.85044555 L127.297807,5.67014555 L126.948807,5.53974555 C125.547807,5.61554555 124.473807,6.81264555 124.549807,8.21364555 C124.625807,9.61464555 125.822807,10.6888456 127.223807,10.6129456 Z" id="Fill-98"></path>
        </g>
    </g>
</svg>
