<?xml version="1.0" encoding="UTF-8"?>
<svg width="100px" height="156px" viewBox="0 0 100 156" version="1.1" xmlns="http://www.w3.org/2000/svg" xmlns:xlink="http://www.w3.org/1999/xlink">
    <title>242</title>
    <g id="Page-1" stroke="none" stroke-width="1" fill="none" fill-rule="evenodd">
        <g id="242" transform="translate(0.350094, 0.840594)" fill="currentColor">
            <path d="M5.23749161,13.2092 L6.23509161,12.9313 L7.21599161,12.6577 L8.17839161,12.3981 L9.13489161,12.14 L11.0303916,11.6464 L12.8867916,11.1791 L14.7054916,10.7394 L16.4898916,10.326 L18.2413916,9.9344 L19.9554916,9.5684 L21.6360916,9.226 L23.2844916,8.9035 L24.8964916,8.6071 L26.4764916,8.3359 L28.0257916,8.0875 L29.5388916,7.8608 L31.0203916,7.6529 L32.4720916,7.4673 L33.8884916,7.2999 L35.2750916,7.1534 L36.6328916,7.0287 L37.9560916,6.9075 L39.2513916,6.8049 L40.5193916,6.7238 L41.7547916,6.6928 L42.9621916,6.6942 L44.1419916,6.7154 L45.2881916,6.7679 L46.4059916,6.855 L47.4961916,6.9603 L48.5532916,7.0852 L49.5845916,7.2251 L50.5894916,7.3817 L51.5622916,7.5566 L52.5100916,7.7508 L53.4330916,7.9593 L54.3248916,8.1848 L55.1933916,8.4289 L56.0376916,8.6885 L56.8520916,8.9639 L57.6446916,9.2571 L58.4144916,9.5651 L59.1559916,9.8874 L59.8768916,10.2278 L60.5757916,10.5837 L61.2478916,10.9527 L61.9014916,11.3389 L62.5353916,11.7385 L63.1434916,12.1517 L63.7334916,12.5835 L64.3052916,13.0283 L64.8540916,13.4847 L65.3872916,13.9586 L65.9037916,14.4455 L66.3988916,14.9438 L66.8795916,15.46 L67.3449916,15.9893 L67.7908916,16.5299 L68.2230916,17.0887 L68.6402916,17.6613 L69.0395916,18.2453 L69.4053916,18.8142 L70.1581916,20.0926 L70.8307916,21.3887 L71.4501916,22.7501 L72.0221916,24.164 L72.5406916,25.6288 L73.0090916,27.1552 L73.4337916,28.7313 L73.8082916,30.3557 L74.1410916,32.0347 L74.4347916,33.7587 L74.6864916,35.5262 L74.9001916,37.342 L75.0775916,39.1976 L75.2168916,41.0915 L75.3209916,43.0344 L75.3571916,44.0113 L75.3939916,44.9958 L75.4146916,45.9955 L75.4346916,46.9974 L75.4367916,48.0135 L75.4389916,49.0331 L75.4287916,50.0647 L75.4185916,51.0965 L75.3952916,52.1406 L75.3719916,53.1865 L75.3376916,54.2438 L75.3016916,55.3036 L75.2537916,56.3728 L75.2058916,57.4424 L75.1491916,58.5215 L75.0911916,59.6022 L75.0246916,60.6913 L74.9582916,61.7799 L74.8836916,62.8785 L74.8073916,63.9858 L74.7306916,65.093 L74.6545916,66.192 L74.5713916,67.3028 L74.4970916,68.4225 L74.4228916,69.5422 L74.3487916,70.6598 L74.2769916,71.7856 L74.2124916,72.9142 L74.1478916,74.0427 L74.0828916,75.1772 L74.0172916,76.3159 L73.9498916,77.4482 L73.8824916,78.5807 L73.8146916,79.7131 L73.7427916,80.8452 L73.6708916,81.9772 L73.5989916,83.1093 L73.5243916,84.2657 L73.4721916,85.4173 L73.4213916,86.5444 L73.3705916,87.6716 L73.3167916,88.7986 L73.2620916,89.9255 L73.2073916,91.0524 L73.1526916,92.1794 L73.0958916,93.3523 L73.0853916,94.5059 L73.0758916,95.6127 L73.0655916,96.7195 L73.0538916,97.8262 L73.0421916,98.9329 L73.0305916,100.0397 L73.0180916,101.1464 L73.0050916,102.2885 L73.0266916,103.4139 L73.0481916,104.5218 L73.0871916,105.6207 L73.1263916,106.7211 L73.1844916,107.8115 L73.2426916,108.9014 L73.3189916,109.9814 L73.3958916,111.0649 L73.4939916,112.1368 L73.5924916,113.2104 L73.7136916,114.2714 L73.8350916,115.3314 L73.9781916,116.3793 L74.1219916,117.4312 L74.2898916,118.4691 L74.4583916,119.5088 L74.6535916,120.5333 L74.8488916,121.5566 L75.0684916,122.5654 L75.2923916,123.5908 L75.7912916,125.5745 L76.3553916,127.5344 L76.9799916,129.4635 L77.6748916,131.3604 L78.4404916,133.2151 L79.2746916,135.0334 L80.1887916,136.8132 L81.1812916,138.5435 L82.2499916,140.2306 L83.4073916,141.8716 L84.6327916,143.4342 L85.3019916,144.228 L85.9788916,144.9888 L86.6770916,145.733 L87.3965916,146.4634 L88.1416916,147.1807 L88.8877916,147.8616 C89.8244916,148.7148 91.2755916,148.6472 92.1288916,147.7104 C92.9821916,146.7737 92.9144916,145.3226 91.9777916,144.4693 L91.2755916,143.8311 L90.6177916,143.1999 L89.9791916,142.5536 L89.3593916,141.8952 L88.7617916,141.2257 L88.1992916,140.562 L87.0762916,139.1365 L86.0494916,137.6855 L85.0928916,136.1803 L84.2001916,134.6302 L83.3783916,133.0361 L82.6205916,131.3909 L81.9207916,129.7036 L81.2845916,127.9756 L80.7069916,126.2007 L80.1819916,124.3878 L79.7109916,122.5264 L79.5069916,121.5949 L79.2986916,120.6469 L79.1157916,119.6837 L78.9326916,118.7218 L78.7752916,117.7442 L78.6171916,116.7648 L78.4844916,115.7704 L78.3511916,114.772 L78.2388916,113.7609 L78.1264916,112.7508 L78.0361916,111.7277 L77.9454916,110.7029 L77.8754916,109.666 L77.8050916,108.6257 L77.7525916,107.5752 L77.6998916,106.5253 L77.6656916,105.465 L77.6311916,104.4032 L77.6139916,103.3321 L77.5965916,102.2784 L77.6127916,101.2071 L77.6295916,100.1004 L77.6470916,98.9937 L77.6646916,97.887 L77.6821916,96.7804 L77.7010916,95.6737 L77.7207916,94.5671 L77.7394916,93.5073 L77.8026916,92.4269 L77.8678916,91.3005 L77.9330916,90.1741 L77.9983916,89.0477 L78.0644916,87.9214 L78.1335916,86.7952 L78.2027916,85.6691 L78.2704916,84.5674 L78.3629916,83.4613 L78.4582916,82.3309 L78.5534916,81.2006 L78.6487916,80.0702 L78.7481916,78.9401 L78.8478916,77.8101 L78.9475916,76.6801 L79.0490916,75.5563 L79.1615916,74.4376 L79.2744916,73.3129 L79.3874916,72.1882 L79.4931916,71.0608 L79.5915916,69.9408 L79.6898916,68.8229 L79.7881916,67.7051 L79.8774916,66.5783 L79.9581916,65.4631 L80.0381916,64.356 L80.1185916,63.2491 L80.2007916,62.1334 L80.2748916,61.0275 L80.3488916,59.9221 L80.4162916,58.8249 L80.4850916,57.7263 L80.5448916,56.6367 L80.6046916,55.5468 L80.6579916,54.4659 L80.7130916,53.3824 L80.7566916,52.3098 L80.8002916,51.2351 L80.8316916,50.1721 L80.8631916,49.1089 L80.8818916,48.057 L80.9004916,47.0015 L80.9069916,45.9593 L80.9142916,44.9147 L80.9048916,43.8842 L80.8949916,42.8461 L80.8428916,40.8151 L80.7510916,38.8003 L80.6170916,36.8161 L80.4418916,34.8579 L80.2148916,32.9271 L79.9344916,31.0324 L79.6023916,29.1681 L79.2068916,27.3354 L78.7514916,25.5446 L78.2351916,23.7891 L77.6490916,22.0689 L76.9913916,20.3985 L76.2628916,18.7701 L75.4528916,17.184 L74.5827916,15.6915 L74.0880916,14.9139 L73.5898916,14.1804 L73.0721916,13.4651 L72.5348916,12.7632 L71.9724916,12.0735 L71.3902916,11.4035 L70.7870916,10.7487 L70.1576916,10.1079 L69.5082916,9.4879 L68.8376916,8.8843 L68.1401916,8.2965 L67.4226916,7.7307 L66.6835916,7.1826 L65.9182916,6.6503 L65.1336916,6.1393 L64.3274916,5.6469 L63.4935916,5.173 L62.6396916,4.7222 L61.7646916,4.2892 L60.8619916,3.8751 L59.9390916,3.4842 L58.9940916,3.113 L58.0209916,2.7622 L57.0271916,2.4346 L56.0110916,2.1271 L54.9664916,1.8406 L53.9005916,1.5773 L52.8112916,1.3365 L51.6933916,1.1175 L50.5531916,0.9216 L49.3894916,0.7471 L48.1959916,0.5999 L46.9794916,0.476 L45.7388916,0.3729 L44.4693916,0.2791 L43.1753916,0.1979 L41.8556916,0.1375 L40.5045916,0.0896 L39.1262916,0.037 L37.7201916,0.0047 L36.2808916,0 L34.8143916,0.0385 L33.3199916,0.0983 L31.7922916,0.1846 L30.2363916,0.3008 L28.6517916,0.4388 L27.0338916,0.6068 L25.3865916,0.8027 L23.7098916,1.0209 L21.9985916,1.2642 L20.2561916,1.5322 L18.4840916,1.8267 L16.6769916,2.1492 L14.8379916,2.4981 L12.9683916,2.873 L11.0624916,3.2744 L9.12339161,3.7015 L7.15799161,4.1514 L6.14779161,4.392 L5.14369161,4.6311 L4.12139161,4.8837 L3.11589161,5.1319 C0.885391611,5.7177 -0.447808389,8.0008 0.137991611,10.2313 C0.723891611,12.4618 3.00699161,13.7951 5.23749161,13.2092 Z" id="Fill-22"></path>
            <path d="M80.6295024,119.6544 L80.6707916,120.3755 L80.7357916,121.1412 L80.8231916,121.9065 L80.9342916,122.6737 L81.0738916,123.4452 L81.2395916,124.2398 L81.6474916,125.7515 L82.1882916,127.28 L82.6360916,128.8435 L83.1513916,130.407 L83.7029916,131.9813 L84.2892916,133.5578 L84.9348916,135.124 L85.6545916,136.671 L86.4298916,138.1939 L87.2146916,139.7105 L87.9999916,141.2237 L88.8458916,142.6931 L89.7328916,144.1237 L90.6013916,145.5439 L91.4675916,146.936 L92.3343916,148.2975 L93.2086916,149.6165 L94.0775916,150.8915 L94.9446916,152.1201 L95.8087916,153.2936 L96.6552916,154.3939 C97.1404916,155.0209 98.0419916,155.1358 98.6688916,154.6507 C99.2958916,154.1655 99.4107916,153.264 98.9256916,152.637 L98.0917916,151.5659 L97.2563916,150.4445 L96.4137916,149.2646 L95.5709916,148.0352 L94.7392916,146.753 L93.9148916,145.426 L93.1104916,144.058 L92.3388916,142.6478 L91.6254916,141.1874 L90.9141916,139.7182 L90.1977916,138.2491 L89.5453916,136.7491 L88.9492916,135.2322 L88.3779916,133.7221 L87.8219916,132.2236 L87.2950916,130.7361 L86.8388916,129.2557 L86.4605916,127.7833 L86.1257916,126.3361 L86.0141916,124.8894 L85.9087916,123.4715 L85.8676916,122.8192 L85.8380916,122.1583 L85.8188916,121.5089 L85.8122916,120.8729 L85.8240916,120.255 L85.8541916,119.6118 C85.8423916,118.169 84.6632916,117.009 83.2205916,117.020711 C81.7777916,117.0325 80.6177916,118.2117 80.6295024,119.6544 Z" id="Fill-117"></path>
            <path d="M67.3614916,126.4089 L68.4145916,127.6074 L69.4792916,128.809 L70.5790916,129.9928 L71.7308916,131.1392 L72.8827916,132.2906 L73.9446916,133.5178 L75.0367916,134.7231 L76.1101916,135.9503 L77.2018916,137.163 L78.3109916,138.3651 L79.4712916,139.5184 L80.6394916,140.6637 L81.8171916,141.7954 L82.9764916,142.9514 L84.1880916,144.0493 L85.4290916,145.1185 L86.6768916,146.1726 L87.9049916,147.2369 L89.1639916,148.2857 L90.4407916,149.3054 L91.7348916,150.3021 L93.0482916,151.2757 L94.3882916,152.2187 L95.7384916,153.1181 C96.3994916,153.5557 97.2900916,153.3746 97.7277916,152.7137 C98.1653916,152.0527 97.9843916,151.162 97.3233916,150.7244 L95.9988916,149.8529 L94.7128916,148.9583 L93.4471916,148.0306 L92.2032916,147.0713 L90.9860916,146.0775 L89.7932916,145.0587 L88.6244916,143.9871 L87.4753916,142.9051 L86.3947916,141.7482 L85.2847916,140.6199 L84.1909916,139.473 L83.1156916,138.3018 L82.0876916,137.0854 L81.0518916,135.877 L80.0212916,134.6646 L78.9732916,133.4628 L77.9567916,132.2361 L76.9589916,130.9877 L75.9706916,129.7364 L75.0723916,128.4091 L74.2115916,127.0616 L73.2988916,125.7515 L72.3818916,124.4573 L71.4532916,123.16 C70.5561916,122.03 68.9128916,121.8414 67.7829916,122.7385 C66.6530916,123.6357 66.4643916,125.279 67.3614916,126.4089 Z" id="Fill-118"></path>
        </g>
    </g>
</svg>
