<?xml version="1.0" encoding="UTF-8"?>
<svg width="117px" height="129px" viewBox="0 0 117 129" version="1.1" xmlns="http://www.w3.org/2000/svg" xmlns:xlink="http://www.w3.org/1999/xlink">
    <title>244</title>
    <g id="Page-1" stroke="none" stroke-width="1" fill="none" fill-rule="evenodd">
        <g id="244" transform="translate(0.623570, 0.549176)" fill="currentColor">
            <path d="M2.38411509,7.94791724 L3.41571509,8.41581724 L4.44731509,8.88381724 L5.47891509,9.35171724 L6.49521509,9.81231724 L7.49051509,10.2736172 L8.50141509,10.7423172 L9.51221509,11.2111172 L10.5071151,11.6720172 L11.4809151,12.1339172 L12.4720151,12.6021172 L13.4634151,13.0697172 L14.4396151,13.5297172 L15.3982151,13.9885172 L16.3728151,14.4538172 L17.3474151,14.9190172 L18.3048151,15.3754172 L19.2415151,15.8338172 L20.1955151,16.3012172 L21.1504151,16.7669172 L22.0903151,17.2182172 L23.0095151,17.6720172 L23.9466151,18.1353172 L24.8873151,18.5918172 L25.8119151,19.0393172 L26.7178151,19.4895172 L27.6471151,19.9358172 L28.5804151,20.3750172 L29.4959151,20.8046172 L30.3859151,21.2471172 L31.2817151,21.7210172 L32.1774151,22.1947172 L33.0494151,22.6549172 L34.7655151,23.6422172 L36.4773151,24.6260172 L38.1567151,25.6082172 L39.8352151,26.5867172 L41.4745151,27.5712172 L43.1133151,28.5552172 L44.7116151,29.5482172 L46.3083151,30.5466172 L47.8675151,31.5551172 L49.4200151,32.5686172 L50.9317151,33.5925172 L52.4427151,34.6163172 L53.9126151,35.6520172 L55.3832151,36.6898172 L56.8183151,37.7366172 L58.2521151,38.7798172 L59.6479151,39.8328172 L61.0447151,40.8833172 L62.4025151,41.9459172 L63.7628151,43.0092172 L65.0905151,44.0811172 L66.4176151,45.1487172 L67.7080151,46.2282172 L68.9998151,47.3057172 L70.2523151,48.3992172 L71.5071151,49.4945172 L72.7263151,50.6050172 L73.9435151,51.7133172 L75.1183151,52.8425172 L76.2911151,53.9736172 L77.4243151,55.1236172 L78.5593151,56.2758172 L79.6563151,57.4476172 L80.7481151,58.6199172 L81.8001151,59.8126172 L82.8501151,61.0065172 L83.8610151,62.2210172 L84.8724151,63.4387172 L85.8501151,64.6746172 L86.8388151,65.8976172 L87.7894151,67.1427172 L88.7564151,68.3762172 L89.6866151,69.6327172 L90.6103151,70.8983172 L91.4975151,72.1875172 L92.3794151,73.4768172 L93.2214151,74.7923172 L94.0622151,76.1089172 L94.8636151,77.4520172 L95.6651151,78.7991172 L96.4287151,80.1720172 L97.1912151,81.5423172 L97.9162151,82.9393172 L98.6416151,84.3364172 L99.3263151,85.7631172 L100.016015,87.1991172 L100.671715,88.6403172 L101.311315,90.1015172 L101.933215,91.5786172 L102.538515,93.0692172 L103.124915,94.5736172 L103.693515,96.0947172 L104.245515,97.6299172 L104.778915,99.1795172 L105.293115,100.746817 L105.789715,102.329417 L106.266515,103.927117 L106.724515,105.543017 L107.165915,107.174217 L107.588815,108.821117 L107.993915,110.486317 L108.382515,112.167517 L108.752715,113.864917 L109.105015,115.581417 L109.441015,117.314317 L109.758615,119.064217 L110.058415,120.833817 L110.341815,122.620317 L110.607015,124.424517 L110.855815,126.260317 C111.027315,127.515817 112.184115,128.394517 113.439615,128.223017 C114.695015,128.051517 115.573815,126.894817 115.402315,125.639317 L115.146315,123.778717 L114.870015,121.923817 L114.575115,120.088417 L114.263315,118.269317 L113.932515,116.466817 L113.583115,114.683217 L113.216615,112.915417 L112.831015,111.163717 L112.426715,109.430317 L112.005315,107.712317 L111.564515,106.009817 L111.105115,104.325117 L110.628315,102.655217 L110.133215,101.000017 L109.620515,99.3617172 L109.091315,97.7374172 L108.544015,96.1270172 L107.977815,94.5332172 L107.394115,92.9534172 L106.790515,91.3871172 L106.168215,89.8372172 L105.528215,88.3007172 L104.868315,86.7774172 L104.186515,85.2628172 L103.487115,83.7818172 L102.782815,82.2913172 L102.043115,80.8267172 L101.303215,79.3621172 L100.524615,77.9241172 L99.7470151,76.4890172 L98.9380151,75.0752172 L98.1288151,73.6577172 L97.2826151,72.2642172 L96.4375151,70.8695172 L95.5556151,69.4977172 L94.6789151,68.1256172 L93.7688151,66.7733172 L92.8652151,65.4116172 L91.9211151,64.0730172 L90.9607151,62.7460172 L89.9610151,61.4411172 L88.9503151,60.1489172 L87.9027151,58.8777172 L86.8547151,57.6030172 L85.7680151,56.3490172 L84.6832151,55.0938172 L83.5602151,53.8577172 L82.4424151,52.6212172 L81.2915151,51.3996172 L80.1389151,50.1757172 L78.9472151,48.9694172 L77.7577151,47.7614172 L76.5320151,46.5672172 L75.3082151,45.3751172 L74.0483151,44.1981172 L72.7860151,43.0195172 L71.4840151,41.8566172 L70.1808151,40.6956172 L68.8348151,39.5529172 L67.4895151,38.4144172 L66.1045151,37.2932172 L64.7170151,36.1716172 L63.2888151,35.0648172 L61.8595151,33.9606172 L60.3885151,32.8720172 L58.9187151,31.7869172 L57.4114151,30.7146172 L55.9037151,29.6400172 L54.3565151,28.5761172 L52.8103151,27.5122172 L51.2240151,26.4586172 L49.6446151,25.4000172 L48.0294151,24.3488172 L46.4156151,23.2921172 L44.7615151,22.2443172 L43.1078151,21.1968172 L41.4121151,20.1593172 L39.7174151,19.1255172 L37.9809151,18.1065172 L36.2490151,17.0908172 L35.3561151,16.5562172 L34.4870151,16.0351172 L33.6179151,15.5139172 L32.7430151,14.9616172 L31.8528151,14.4019172 L30.9803151,13.8518172 L30.1039151,13.3087172 L29.2040151,12.7697172 L28.2856151,12.2323172 L27.3832151,11.7040172 L26.4773151,11.1824172 L25.5534151,10.6514172 L24.6092151,10.1220172 L23.6800151,9.60701724 L22.7499151,9.09361724 L21.8023151,8.57121724 L20.8344151,8.05021724 L19.8837151,7.53801724 L18.9330151,7.02581724 L17.9661151,6.50721724 L16.9794151,5.99211724 L16.0079151,5.48451724 L15.0361151,4.97761724 L14.0470151,4.46441724 L13.0375151,3.95191724 L12.0440151,3.44731724 L11.0506151,2.94281724 L10.0415151,2.43061724 L9.01191509,1.91871724 L7.99771509,1.41421724 L6.98341509,0.909817238 L5.96921509,0.405317238 C3.88631509,-0.584682762 1.39531509,0.301217238 0.405315093,2.38401724 C-0.584684907,4.46681724 0.301215093,6.95791724 2.38411509,7.94791724 Z" id="Fill-20"></path>
            <path d="M110.392815,89.1633172 L110.404015,89.6653172 L110.416815,90.2511172 L110.431215,90.9164172 L110.447115,91.6492172 L110.464615,92.4518172 L110.483615,93.3185172 L110.504715,94.2394172 L110.532215,95.2150172 L110.565915,96.2400172 L110.601415,97.3058172 L110.641615,98.4115172 L110.692915,99.5519172 L110.756915,100.719417 L110.842315,101.912217 L110.955015,103.124717 L110.994515,104.351217 L111.024615,105.588617 L111.083915,106.831617 L111.172515,108.071517 L111.282815,109.312317 L111.397315,110.534817 L111.486915,111.758117 L111.553015,112.942217 L111.592915,114.125917 L111.632115,115.274217 L111.741915,116.387017 L111.853415,117.460617 L111.942715,118.495417 L112.018415,119.482717 L112.089215,120.417017 L112.152315,121.299317 L112.216315,122.120317 L112.281215,122.874317 L112.346715,123.564517 L112.410015,124.182417 L112.474015,124.723317 L112.541115,125.196317 L112.616015,125.604117 L112.700815,125.931417 L112.785515,126.167317 L112.927415,126.428117 L113.082915,126.613817 L113.606015,126.933117 L113.606515,126.933217 L113.607615,126.933517 L113.609215,126.934017 L113.611415,126.934517 L113.614015,126.935217 L113.617215,126.936117 L113.620915,126.937217 L113.680515,126.952917 L113.800115,126.975417 L113.923715,126.985717 L114.047815,126.983517 L114.168615,126.969117 L114.283115,126.943917 L114.388815,126.909917 L114.484515,126.869817 L114.530615,126.846717 L114.534415,126.844617 L114.537615,126.842917 L114.540315,126.841417 L114.542515,126.840217 L114.544115,126.839417 L114.545215,126.838817 L114.545815,126.838417 L114.936915,126.510417 L115.044815,126.355717 L115.156815,126.130617 L115.227815,125.931017 L115.281215,125.736717 L115.327915,125.531617 L115.371415,125.304317 L115.412815,125.053417 L115.453315,124.777217 L115.493415,124.470517 L115.533215,124.132717 L115.573015,123.765217 L115.613015,123.363317 L115.652615,122.930317 C115.721215,122.321217 115.282915,121.771717 114.673715,121.703117 C114.064615,121.634517 113.515115,122.072817 113.446515,122.681917 L113.389715,123.105017 L113.335515,123.487017 L113.283415,123.832317 L113.233315,124.144117 L113.185615,124.418017 L113.140515,124.655517 L113.098215,124.858217 L113.060115,125.019517 L113.027115,125.139417 L113.002915,125.213417 L112.998315,125.221017 L113.036615,125.143217 L113.072615,125.082417 L113.463715,124.754317 L113.463215,124.754517 L113.462115,124.755117 L113.460415,124.755917 L113.458215,124.757017 L113.455415,124.758317 L113.452115,124.760017 L113.448315,124.761917 L113.485615,124.743417 L113.572715,124.706817 L113.669715,124.675717 L113.775415,124.652417 L113.887715,124.639117 L114.003115,124.636917 L114.118215,124.646617 L114.229315,124.667417 L114.280315,124.680717 L114.276615,124.679617 L114.273415,124.678617 L114.270815,124.677817 L114.268715,124.677017 L114.267115,124.676517 L114.266015,124.676317 L114.265515,124.676017 L114.788615,124.995417 L114.877715,125.111117 L114.955215,125.248217 L114.977215,125.307817 L114.941715,125.143417 L114.903315,124.863717 L114.863915,124.463817 L114.827615,123.971817 L114.796915,123.390217 L114.774615,122.725117 L114.757215,121.990717 L114.744815,121.186217 L114.737015,120.316717 L114.741915,119.392517 L114.756815,118.414017 L114.790415,117.385917 L114.850415,116.317017 L114.913615,115.209217 L114.910415,114.069417 L114.913515,112.889817 L114.942815,111.710617 L115.003315,110.491717 L115.088615,109.272417 L115.176415,108.035217 L115.242515,106.797317 L115.283515,105.559517 L115.298115,104.326217 L115.324615,103.103217 L115.426415,101.893417 L115.503015,100.703817 L115.560215,99.5392172 L115.606215,98.4016172 L115.642815,97.2987172 L115.675915,96.2355172 L115.708215,95.2128172 L115.735415,94.2392172 L115.756815,93.3201172 L115.776615,92.4547172 L115.795215,91.6532172 L115.812215,90.9208172 L115.827815,90.2553172 L115.841315,89.6680172 L115.852815,89.1649172 C115.853215,87.6572172 114.631315,86.4346172 113.123615,86.4341171 C111.615915,86.4341171 110.393315,87.6557172 110.392815,89.1633172 Z" id="Fill-63"></path>
            <path d="M93.0959151,96.2166172 L94.0497151,97.4367172 L94.9919151,98.6410172 L95.8999151,99.8371172 L96.8178151,101.024117 L97.7038151,102.205817 L98.6019151,103.380817 L99.4871151,104.544117 L100.416915,105.675817 L101.240815,106.859917 L102.050915,108.052017 L102.869515,109.226517 L103.724215,110.382617 L104.550215,111.550717 L105.334715,112.742217 L106.047715,113.971617 L106.783915,115.188417 L107.554815,116.390817 L108.287015,117.617617 L108.969215,118.877017 L109.639915,120.141317 L110.276515,121.434117 L110.902615,122.732317 L111.497715,124.061717 L112.099215,125.405917 C112.336315,125.971217 112.986715,126.237317 113.552115,126.000317 C114.117415,125.763217 114.383515,125.112717 114.146515,124.547417 L113.609215,123.176217 L113.065515,121.789917 L112.490215,120.432517 L111.925315,119.069617 L111.331115,117.729817 L110.748415,116.384917 L110.157415,115.047717 L109.605315,113.686117 L108.953815,112.375917 L108.279215,111.078017 L107.610815,109.771017 L106.983915,108.440617 L106.325815,107.117617 L105.631815,105.812917 L104.862915,104.539817 L104.107715,103.258817 L103.391515,101.931017 L102.630615,100.634917 L101.821215,99.3490172 L100.999715,98.0698172 L100.141915,96.7872172 L99.2744151,95.5133172 L98.3722151,94.2309172 L97.4814151,92.9640172 C96.5833151,91.7529172 94.8735151,91.4994172 93.6625151,92.3975172 C92.4514151,93.2957172 92.1978151,95.0055172 93.0959151,96.2166172 Z" id="Fill-64"></path>
        </g>
    </g>
</svg>
