<?xml version="1.0" encoding="UTF-8"?>
<svg width="237px" height="139px" viewBox="0 0 237 139" version="1.1" xmlns="http://www.w3.org/2000/svg" xmlns:xlink="http://www.w3.org/1999/xlink">
    <title>245</title>
    <g id="Page-1" stroke="none" stroke-width="1" fill="none" fill-rule="evenodd">
        <g id="245" transform="translate(0.732901, 0.097329)" fill="currentColor">
            <path d="M8.23688477,135.408165 L8.47128477,134.379965 L8.68728477,133.425465 L8.94278477,132.466665 L9.19758477,131.505065 L9.49128477,130.539465 L9.78658477,129.565365 L10.1167848,128.588165 L10.4446848,127.614465 L10.8103848,126.637365 L11.1760848,125.657865 L11.5787848,124.675465 L11.9837848,123.685865 L12.4221848,122.694165 L12.8583848,121.705165 L13.3300848,120.713865 L13.8009848,119.719865 L14.3071848,118.724165 L14.8159848,117.722365 L15.3565848,116.719465 L15.8928848,115.717565 L16.4630848,114.714365 L17.0336848,113.709365 L17.6378848,112.703665 L18.2446848,111.692965 L18.8814848,110.682165 L19.5165848,109.673165 L20.1840848,108.664365 L20.8515848,107.653765 L21.5464848,106.640565 L22.2439848,105.623165 L22.9697848,104.606765 L23.6940848,103.591565 L24.4442848,102.574265 L25.1945848,101.555065 L25.9747848,100.537465 L26.7573848,99.5163649 L27.5546848,98.4870649 L28.3482848,97.4564649 L29.1704848,96.4277649 L29.9934848,95.3976649 L30.8629848,94.3866649 L31.7385848,93.3764649 L32.6386848,92.3692649 L33.5376848,91.3631649 L34.4772848,90.3742649 L35.4183848,89.3859649 L36.3851848,88.4021649 L37.3533848,87.4158649 L38.3406848,86.4304649 L39.3266848,85.4460649 L40.3370848,84.4668649 L41.3472848,83.4864649 L42.3800848,82.5103649 L43.4144848,81.5324649 L44.4698848,80.5600649 L45.5241848,79.5883649 L46.6007848,78.6229649 L47.6776848,77.6570649 L48.7761848,76.6977649 L49.8782848,75.7392649 L50.9994848,74.7870649 L52.1194848,73.8357649 L53.2610848,72.8932649 L54.4046848,71.9524649 L55.5676848,71.0196649 L56.7323848,70.0853649 L57.9143848,69.1588649 L59.0952848,68.2332649 L60.2943848,67.3160649 L61.4939848,66.3990649 L62.7116848,65.4916649 L63.9307848,64.5831649 L65.1651848,63.6830649 L66.3973848,62.7821649 L67.6455848,61.8905649 L68.8939848,60.9987649 L70.1569848,60.1156649 L71.4204848,59.2301649 L72.6972848,58.3539649 L73.9730848,57.4783649 L75.2622848,56.6121649 L76.5516848,55.7457649 L77.8544848,54.8902649 L79.1571848,54.0315649 L80.4703848,53.1814649 L81.7826848,52.3318649 L83.1066848,51.4931649 L84.4292848,50.6516649 L85.7633848,49.8221649 L87.0988848,48.9917649 L88.4440848,48.1725649 L89.7883848,47.3537649 L91.1428848,46.5476649 L92.4974848,45.7412649 L93.8615848,44.9479649 L95.2269848,44.1538649 L96.6005848,43.3723649 L97.9753848,42.5951649 L99.3582848,41.8316649 L100.741285,41.0679649 L102.131885,40.3189649 L103.523885,39.5695649 L104.921885,38.8331649 L106.319885,38.0991649 L107.725285,37.3825649 L109.130585,36.6657649 L110.541385,35.9643649 L111.954185,35.2644649 L113.371285,34.5786649 L114.787185,33.8933649 L116.207585,33.2249649 L117.628185,32.5569649 L119.051885,31.9050649 L120.475185,31.2494649 L121.897785,30.6017649 L123.319185,29.9544649 L124.742685,29.3239649 L126.161385,28.6824649 L127.581185,28.0570649 L129.002085,27.4311649 L130.425485,26.8252649 L131.849385,26.2235649 L133.273385,25.6398649 L134.697485,25.0563649 L136.122485,24.4951649 L137.548485,23.9334649 L138.973285,23.3886649 L140.397485,22.8457649 L141.819885,22.3226649 L143.242185,21.7995649 L144.661885,21.2961649 L146.083685,20.7956649 L147.502385,20.3130649 L148.919785,19.8307649 L150.332885,19.3684649 L151.745985,18.9060649 L153.153985,18.4640649 L154.563185,18.0215649 L155.967785,17.6000649 L157.371085,17.1789649 L158.768085,16.7786649 L160.164985,16.3788649 L161.554885,16.0009649 L162.945985,15.6228649 L164.330085,15.2643649 L165.712585,14.9060649 L167.086685,14.5698649 L168.460585,14.2335649 L169.825185,13.9195649 L171.191085,13.6052649 L172.548085,13.3114649 L173.903285,13.0180649 L175.247985,12.7475649 L176.592485,12.4769649 L177.925685,12.2296649 L179.260085,11.9821649 L180.583885,11.7563649 L181.905785,11.5318649 L183.215085,11.3312649 L184.523985,11.1305649 L185.819685,10.9544649 L187.116785,10.7789649 L188.401185,10.6257649 L189.683285,10.4727649 L190.950785,10.3446649 L192.217685,10.2163649 L193.469185,10.1134649 L194.722085,10.0101649 L195.960485,9.93016492 L197.196185,9.85016492 L198.415285,9.79606492 L199.633585,9.74176492 L200.834485,9.71366492 L202.036885,9.68526492 L203.222885,9.68106492 L204.405885,9.67656492 L205.570085,9.69896492 L206.733485,9.72096492 L207.877185,9.77026492 L209.022885,9.81916492 L210.150085,9.89316492 L211.273885,9.96656492 L212.376885,10.0677649 L213.478885,10.1684649 L214.559285,10.2971649 L215.641685,10.4257649 L216.703885,10.5801649 L217.762285,10.7334649 L218.797685,10.9154649 L219.832085,11.0967649 L220.842785,11.3069649 L221.888685,11.5240649 C223.129385,11.7809649 224.343585,10.9832649 224.600385,9.74236492 C224.857185,8.50166492 224.059585,7.28746492 222.818685,7.03066492 L221.772585,6.81486492 L220.691285,6.59206492 L219.587285,6.39936492 L218.484185,6.20746492 L217.359185,6.04536492 L216.237985,5.88426492 L215.097285,5.74976492 L213.954485,5.61556492 L212.791085,5.51026492 L211.628585,5.40556492 L210.445985,5.32946492 L209.266885,5.25386492 L208.070085,5.20386492 L206.871585,5.15416492 L205.654285,5.13226492 L204.437785,5.11076492 L203.203285,5.11666492 L201.971685,5.12276492 L200.724385,5.15356492 L199.475385,5.18456492 L198.209685,5.24236492 L196.944685,5.30036492 L195.663585,5.38476492 L194.385185,5.46906492 L193.092685,5.57706492 L191.798785,5.68536492 L190.490185,5.81926492 L189.182085,5.95336492 L187.859885,6.11266492 L186.539985,6.27186492 L185.207885,6.45366492 L183.874385,6.63506492 L182.528085,6.84056492 L181.182185,7.04626492 L179.824185,7.27606492 L178.467985,7.50476492 L177.101385,7.75466492 L175.733485,8.00496492 L174.354685,8.27876492 L172.976385,8.55266492 L171.587885,8.84956492 L170.201185,9.14626492 L168.805785,9.46376492 L167.409285,9.78146492 L166.003985,10.1216649 L164.598885,10.4618649 L163.185785,10.8242649 L161.774185,11.1862649 L160.355785,11.5679649 L158.936385,11.9500649 L157.509885,12.3529649 L156.083485,12.7553649 L154.650985,13.1788649 L153.219885,13.6019649 L151.783085,14.0417649 L150.345285,14.4818649 L148.902585,14.9423649 L147.459985,15.4029649 L146.013385,15.8833649 L144.567885,16.3635649 L143.119285,16.8615649 L141.668485,17.3566649 L140.214585,17.8705649 L138.760685,18.3846649 L137.304385,18.9165649 L135.848585,19.4467649 L134.391485,19.9937649 L132.933185,20.5414649 L131.472285,21.1031649 L130.011285,21.6647649 L128.550185,22.2443649 L127.088285,22.8195649 L125.625185,23.4067649 L124.160685,23.9944649 L122.697685,24.6004649 L121.239385,25.2176649 L119.782885,25.8517649 L118.327385,26.4854649 L116.877485,27.1412649 L115.427985,27.8008649 L113.981685,28.4767649 L112.535285,29.1521649 L111.092285,29.8424649 L109.650485,30.5322649 L108.212785,31.2362649 L106.772985,31.9386649 L105.338385,32.6561649 L103.903685,33.3737649 L102.473685,34.1036649 L101.043785,34.8311649 L99.6196848,35.5719649 L98.1943848,36.3132649 L96.7760848,37.0681649 L95.3575848,37.8232649 L93.9469848,38.5921649 L92.5353848,39.3568649 L91.1311848,40.1334649 L89.7257848,40.9107649 L88.3294848,41.7014649 L86.9330848,42.4922649 L85.5466848,43.2960649 L84.1611848,44.0993649 L82.7852848,44.9140649 L81.4080848,45.7297649 L80.0421848,46.5577649 L78.6775848,47.3883649 L77.3254848,48.2317649 L75.9743848,49.0744649 L74.6357848,49.9293649 L73.2973848,50.7874649 L71.9722848,51.6569649 L70.6470848,52.5265649 L69.3367848,53.4082649 L68.0274848,54.2893649 L66.7315848,55.1799649 L65.4353848,56.0730649 L64.1552848,56.9776649 L62.8750848,57.8822649 L61.6110848,58.7970649 L60.3494848,59.7126649 L59.1029848,60.6368649 L57.8551848,61.5622649 L56.6241848,62.4959649 L55.3926848,63.4295649 L54.1793848,64.3720649 L52.9670848,65.3136649 L51.7716848,66.2627649 L50.5748848,67.2131649 L49.3974848,68.1717649 L48.2180848,69.1285649 L47.0575848,70.0918649 L45.8981848,71.0542649 L44.7578848,72.0235649 L43.6137848,72.9922649 L42.4911848,73.9682649 L41.3682848,74.9446649 L40.2675848,75.9281649 L39.1679848,76.9106649 L38.0891848,77.8993649 L37.0086848,78.8898649 L35.9525848,79.8879649 L34.8968848,80.8871649 L33.8652848,81.8922649 L32.8350848,82.8965649 L31.8309848,83.9094649 L30.8255848,84.9248649 L29.8455848,85.9455649 L28.8642848,86.9657649 L27.8948848,87.9776649 L26.9266848,88.9887649 L25.9829848,90.0043649 L25.0331848,91.0192649 L24.0921848,92.0228649 L23.1502848,93.0278649 L22.2365848,94.0379649 L21.3265848,95.0494649 L20.4547848,96.0748649 L19.5802848,97.1039649 L18.7354848,98.1370649 L17.8904848,99.1720649 L17.0803848,100.214365 L16.2716848,101.255165 L15.4912848,102.299065 L14.7081848,103.347365 L13.9611848,104.401665 L13.2141848,105.457965 L12.4995848,106.516965 L11.7866848,107.574165 L11.1038848,108.633465 L10.4185848,109.697965 L9.76708477,110.764665 L9.11518477,111.833265 L8.49848477,112.903965 L7.88588477,113.973765 L7.30538477,115.044765 L6.72248477,116.121965 L6.17558477,117.200465 L5.62948477,118.281665 L5.12098477,119.364065 L4.61458477,120.443665 L4.14238477,121.523765 L3.66798477,122.611165 L3.23198477,123.698865 L2.79618477,124.789065 L2.39958477,125.879365 L2.00518477,126.966165 L1.64728477,128.052665 L1.28768477,129.147665 L0.968984766,130.242165 L0.650784766,131.339365 L0.374384766,132.435665 L0.116384766,133.458265 C-0.422115234,135.700665 0.959284766,137.954965 3.20168477,138.493465 C5.44408477,139.031965 7.69838477,137.650565 8.23688477,135.408165 Z" id="Fill-19"></path>
            <path d="M191.868685,16.6623649 L193.003485,16.3200649 L194.103785,15.9862649 L195.219385,15.6773649 L196.337085,15.3580649 L197.465585,15.0496649 L198.591685,14.6890649 L199.740385,14.4135649 L200.900485,14.2036649 L202.067085,14.0082649 L203.236285,13.8144649 L204.413285,13.6641649 L205.594185,13.5197649 L206.777785,13.3976649 L207.960085,13.2638649 L209.142485,13.1437649 L210.325885,13.0087649 L211.507785,12.8971649 L212.693485,12.7991649 L213.875785,12.7318649 L215.058585,12.6777649 L216.234085,12.6314649 L217.410385,12.5440649 L218.577685,12.4967649 L219.761485,12.4630649 L220.811285,12.4345649 L221.863485,12.3766649 L222.901185,12.2992649 L223.927285,12.2066649 L224.943085,12.1027649 L225.947085,11.9968649 L226.948685,11.9001649 L227.935685,11.8058649 L228.926685,11.7392649 L229.899685,11.6733649 L230.882385,11.6630649 L231.900585,11.6516649 C232.607685,11.6422649 233.173285,11.0613649 233.163903,10.3542649 C233.154285,9.64716492 232.573385,9.08156492 231.866285,9.09106492 L230.848085,9.10706492 L229.794285,9.12396492 L228.749885,9.19846492 L227.723685,9.27236492 L226.701685,9.37446492 L225.694385,9.47416492 L224.689785,9.57436492 L223.694085,9.66706492 L222.703285,9.74756492 L221.716785,9.81046492 L220.734585,9.84436492 L219.737085,9.84486492 L218.563985,9.82326492 L217.374485,9.78806492 L216.174085,9.75016492 L214.972885,9.75326492 L213.764585,9.78946492 L212.555985,9.81256492 L211.341985,9.84486492 L210.124385,9.86366492 L208.903585,9.90606492 L207.681785,9.96346492 L206.460885,10.0575649 L205.241285,10.1635649 L204.024285,10.2961649 L202.803485,10.4226649 L201.585385,10.5625649 L200.364685,10.7009649 L199.153885,10.8850649 L197.931585,11.0036649 L196.705885,11.0948649 L195.482685,11.2382649 L194.274485,11.4374649 L193.064285,11.6468649 L191.870185,11.9015649 L190.710685,12.1476649 C189.463985,12.4673649 188.712585,13.7372649 189.032285,14.9839649 C189.352085,16.2306649 190.621985,16.9820649 191.868685,16.6623649 Z" id="Fill-91"></path>
            <path d="M188.707485,4.64406492 L190.614885,4.80436492 L192.510885,4.95656492 L194.411885,5.10816492 L196.323085,5.20256492 L198.233085,5.34026492 L200.130885,5.57976492 L202.030785,5.82356492 L203.927185,6.09246492 L205.821885,6.38476492 L207.720385,6.65966492 L209.622485,6.92026492 L211.527885,7.17126492 L213.428085,7.45476492 L215.324085,7.76516492 L217.221685,8.06266492 L219.126885,8.32386492 L221.022185,8.63096492 L222.914985,8.95676492 L224.802385,9.29866492 L226.689985,9.64156492 L228.571985,9.99526492 L230.453785,10.3533649 L232.330685,10.7127649 L234.208285,11.0722649 C234.903085,11.2038649 235.572985,10.7472649 235.704585,10.0523649 C235.836185,9.35756492 235.379585,8.68756492 234.684785,8.55606492 L232.805785,8.20416492 L230.925985,7.85216492 L229.041285,7.50146492 L227.156685,7.14636492 L225.268985,6.78766492 L223.381185,6.42786492 L221.491985,6.06206492 L219.605285,5.67736492 L217.721985,5.26196492 L215.831385,4.88256492 L213.933985,4.53556492 L212.040885,4.16166492 L210.149385,3.77636492 L208.254785,3.40076492 L206.353785,3.06666492 L204.449085,2.74966492 L202.544685,2.44116492 L200.643685,2.10746492 L198.740685,1.80176492 L196.849685,1.39426492 L194.960985,0.982864921 L193.062085,0.628664921 L191.160485,0.318964921 L189.270285,0.0172649211 C187.992585,-0.138035079 186.830885,0.771664921 186.675485,2.04926492 C186.520085,3.32696492 187.429885,4.48866492 188.707485,4.64406492 Z" id="Fill-92"></path>
            <path d="M222.704485,12.1463649 L223.286285,11.4351649 L223.902085,11.0146649 L224.550485,10.8737649 C225.252885,10.7917649 225.755885,10.1559649 225.673885,9.45356492 C225.591885,8.75106492 224.955985,8.24816492 224.253685,8.33016492 L223.590185,8.34236492 L222.894185,8.07496492 L222.164185,7.51686492 C220.885785,7.66606492 219.970385,8.82336492 220.119585,10.1017649 C220.268785,11.3800649 221.426085,12.2954649 222.704485,12.1463649 Z" id="Fill-93"></path>
        </g>
    </g>
</svg>
