<?xml version="1.0" encoding="UTF-8"?>
<svg width="152px" height="171px" viewBox="0 0 152 171" version="1.1" xmlns="http://www.w3.org/2000/svg" xmlns:xlink="http://www.w3.org/1999/xlink">
    <title>248</title>
    <g id="Page-1" stroke="none" stroke-width="1" fill="none" fill-rule="evenodd">
        <g id="248" transform="translate(0.098785, 0.570105)" fill="currentColor">
            <path d="M68.9732,81.7473882 L69.1262,80.2254882 L69.2961,78.7813882 L69.4864,77.3768882 L69.6945,76.0112882 L69.921,74.6917882 L70.1668,73.4106882 L70.429,72.1677882 L70.7078,70.9703882 L71.0047,69.8103882 L71.3165,68.6876882 L71.643,67.6098882 L71.9863,66.5680882 L72.3429,65.5627882 L72.7121,64.6015882 L73.0968,63.6749882 L73.4933,62.7836882 L73.9,61.9354882 L74.3211,61.1202882 L74.7523,60.3388882 L75.1915,59.5991882 L75.644,58.8905882 L76.1051,58.2139882 L76.5715,57.5768882 L77.0504,56.9683882 L77.5368,56.3899882 L78.0269,55.8487882 L78.5297,55.3342882 L79.0391,54.8473882 L79.551,54.3949882 L80.0758,53.9669882 L80.6073,53.5643882 L81.1405,53.1933882 L81.6874,52.8448882 L82.241,52.5188882 L82.7964,52.2213882 L83.3666,51.9451882 L83.9448,51.6907882 L84.5255,51.4627882 L85.1221,51.2557882 L85.7274,51.0693882 L86.3359,50.9077882 L86.961,50.7673882 L87.5954,50.6472882 L88.2336,50.5507882 L88.8882,50.4759882 L89.5524,50.4213882 L90.2207,50.3897882 L90.9048,50.3804882 L91.598,50.3916882 L92.2953,50.4250882 L93.0073,50.4814882 L93.7277,50.5582882 L94.4518,50.6570882 L95.189,50.7791882 L95.9336,50.9215882 L96.6813,51.0851882 L97.441,51.2700882 L98.2071,51.4750882 L98.9756,51.7010882 L99.7175,51.9373882 L101.3251,52.5076882 L102.9077,53.1480882 L104.5107,53.8747882 L106.1265,54.6713882 L107.7627,55.5559882 L108.5543,56.0211882 L109.3712,56.5000882 L110.1861,57.0130882 L110.9987,57.5235882 L111.8077,58.0703882 L112.6235,58.6112882 L113.4349,59.1866882 L114.2521,59.7653882 L115.0636,60.3750882 L115.8731,60.9823882 L116.6751,61.6224882 L117.4788,62.2630882 L118.2733,62.9351882 L119.0692,63.6138882 L119.8489,64.3271882 L120.6265,65.0377882 L121.392,65.7774882 L122.1583,66.5170882 L122.911,67.2844882 L123.667,68.0546882 L124.4094,68.8489882 L125.149,69.6411882 L125.8655,70.4644882 L126.5823,71.2873882 L127.2812,72.1340882 L127.9828,72.9833882 L128.6667,73.8530882 L129.3487,74.7194882 L130.01,75.6071882 L130.6718,76.4941882 L131.3135,77.3995882 L131.9576,78.3076882 L132.5806,79.2328882 L133.2016,80.1542882 L133.798,81.0932882 L134.3947,82.0313882 L134.9652,82.9857882 L135.5381,83.9425882 L136.087,84.9125882 L136.6342,85.8782882 L137.1528,86.8577882 L137.6716,87.8361882 L138.1603,88.8269882 L138.6512,89.8204882 L139.1135,90.8240882 L139.5743,91.8228882 L140.0026,92.8315882 L140.4312,93.8388882 L140.8259,94.8546882 L141.2223,95.8734882 L141.5869,96.8988882 L141.9503,97.9186882 L142.2773,98.9445882 L142.6044,99.9688882 L142.8927,100.998088 L143.1828,102.030488 L143.4374,103.065988 L143.6914,104.095088 L143.9052,105.126388 L144.1197,106.155688 L144.2928,107.185788 L144.4674,108.219588 L144.6011,109.253288 L144.735,110.279688 L144.8251,111.304388 L144.9164,112.326888 L144.9624,113.346488 L145.0104,114.385588 L145.0262,115.388088 L145.0197,116.399288 L144.9899,117.409988 L144.939,118.417088 L144.8648,119.416788 L144.7664,120.415488 L144.6463,121.409788 L144.5023,122.395888 L144.3331,123.380388 L144.1415,124.359888 L143.9254,125.330488 L143.6824,126.298588 L143.4162,127.261288 L143.125,128.214488 L142.8063,129.164688 L142.4635,130.109088 L142.095,131.043288 L141.6978,131.974188 L141.2755,132.898788 L140.8273,133.812988 L140.3492,134.723588 L139.8449,135.627288 L139.3133,136.520188 L138.75,137.408588 L138.1594,138.289688 L137.5404,139.159488 L136.8881,140.024088 L136.208,140.881488 L135.4987,141.727588 L134.7545,142.567488 L133.9805,143.399188 L133.1756,144.218688 L132.3343,145.030988 L131.4618,145.834288 L130.5573,146.624988 L129.6152,147.407588 L128.6406,148.180488 L127.6326,148.940088 L126.5851,149.689988 L125.504,150.429088 L124.3881,151.154188 L123.2321,151.869088 L122.0419,152.573588 L120.8154,153.263288 L119.5471,153.940688 L118.2428,154.605288 L116.9009,155.254288 L115.5164,155.890288 L114.0953,156.513888 L112.6354,157.120988 L111.1316,157.713088 L109.5895,158.290488 L108.0074,158.850288 L106.3775,159.394788 L104.8021,159.896888 L103.2374,160.372688 L101.683,160.822488 L100.1395,161.248488 L98.6098,161.647888 L97.0905,162.021988 L95.5821,162.372788 L94.0876,162.697888 L92.6036,162.998088 L91.1305,163.275688 L89.6713,163.526688 L88.2222,163.752188 L86.7844,163.955888 L85.3608,164.135088 L83.9476,164.290788 L82.5458,164.424988 L81.1581,164.535488 L79.781,164.622688 L78.4152,164.688988 L77.0637,164.732588 L75.7227,164.753688 L74.3931,164.754488 L73.0779,164.733288 L71.7733,164.688088 L70.4801,164.622888 L69.2015,164.536288 L67.9335,164.428388 L66.6768,164.301488 L65.4349,164.154088 L64.2034,163.985788 L62.9835,163.797988 L61.7784,163.590388 L60.5838,163.362388 L59.4006,163.116588 L58.2322,162.851688 L57.0743,162.566988 L55.9278,162.265088 L54.7961,161.944288 L53.6752,161.603888 L52.5656,161.246888 L51.4708,160.872188 L50.3967,160.482488 L49.3175,160.059688 L48.2521,159.642988 L47.2126,159.190688 L46.1703,158.743488 L45.1539,158.261288 L44.1326,157.777788 L43.1349,157.263088 L42.1402,156.750788 L41.1713,156.205188 L40.2015,155.659888 L39.257,155.082888 L38.3055,154.507888 L37.3777,153.903688 L36.4521,153.301988 L35.5526,152.669088 L34.6519,152.036188 L33.7772,151.372888 L32.8982,150.707088 L32.0436,150.013788 L31.1928,149.320688 L30.3684,148.598688 L29.5429,147.876788 L28.7439,147.126688 L27.9412,146.373988 L27.1626,145.596388 L26.3857,144.821488 L25.6358,144.019588 L24.8861,143.216488 L24.1633,142.387688 L23.4372,141.556088 L22.7357,140.701688 L22.0356,139.849888 L21.3625,138.973888 L20.6886,138.097688 L20.0421,137.197888 L19.3936,136.294688 L18.77,135.370788 L18.1475,134.449488 L17.5525,133.506288 L16.9567,132.562888 L16.3886,131.598388 L15.8181,130.630988 L15.2734,129.644788 L14.7307,128.660588 L14.2159,127.656788 L13.7005,126.652788 L13.2131,125.630188 L12.7239,124.604588 L12.2603,123.562688 L11.7974,122.523288 L11.3627,121.466788 L10.9275,120.410088 L10.5209,119.336988 L10.1126,118.260988 L9.7304,117.170988 L9.3486,116.083388 L8.9956,114.980988 L8.642,113.878488 L8.3181,112.761688 L7.9932,111.642088 L7.6948,110.510488 L7.3966,109.381388 L7.1276,108.239988 L6.8581,107.098388 L6.6179,105.945288 L6.3768,104.789388 L6.163,103.623688 L5.9493,102.460488 L5.7651,101.287288 L5.5805,100.114088 L5.4256,98.9316882 L5.27,97.7465882 L5.1415,96.5539882 L5.013,95.3638882 L4.9143,94.1662882 L4.8153,92.9684882 L4.7464,91.7640882 L4.6769,90.5570882 L4.6349,89.3445882 L4.5928,88.1347882 L4.5809,86.9196882 L4.5686,85.7045882 L4.5868,84.4852882 L4.6047,83.2633882 L4.6503,82.0382882 L4.6956,80.8156882 L4.7716,79.5903882 L4.8472,78.3650882 L4.9536,77.1378882 L5.0599,75.9081882 L5.1944,74.6774882 L5.3282,73.4493882 L5.4932,72.2208882 L5.6577,70.9923882 L5.8535,69.7644882 L6.0497,68.5341882 L6.2748,67.3051882 L6.499,66.0786882 L6.7546,64.8542882 L7.0099,63.6299882 L7.2967,62.4085882 L7.5837,61.1848882 L7.9,59.9644882 L8.2155,58.7468882 L8.5627,57.5336882 L8.9096,56.3206882 L9.2884,55.1130882 L9.6676,53.9030882 L10.0759,52.6985882 L10.483,51.4967882 L10.9223,50.3016882 L11.3611,49.1068882 L11.8321,47.9198882 L12.3038,46.7303882 L12.805,45.5487882 L13.3047,44.3695882 L13.8368,43.1997882 L14.3686,42.0300882 L14.933,40.8704882 L15.498,39.7085882 L16.093,38.5565882 L16.6863,37.4071882 L17.3124,36.2692882 L17.938,35.1315882 L18.5967,34.0064882 L19.2562,32.8789882 L19.946,31.7636882 L20.6338,30.6506882 L21.3549,29.5517882 L22.0754,28.4529882 L22.8293,27.3690882 L23.5843,26.2827882 L24.3699,25.2108882 L25.1533,24.1412882 L25.9704,23.0880882 L26.7869,22.0348882 L27.6372,20.9989882 L28.4888,19.9608882 L29.3713,18.9391882 L30.2515,17.9196882 L31.1656,16.9188882 L32.0792,15.9180882 L33.0271,14.9370882 L33.9764,13.9537882 L34.957,12.9890882 L35.935,12.0263882 L36.9475,11.0848882 L37.9594,10.1431882 L39.006,9.22368816 L40.0766,8.28258816 C41.028,7.44568816 41.1208,5.99598816 40.2839,5.04458816 C39.4471,4.09318816 37.9973,4.00038816 37.0459,4.83728816 L35.976,5.77898816 L34.8821,6.74228816 L33.8231,7.72858816 L32.7646,8.71488816 L31.741,9.72338816 L30.7199,10.7297882 L29.7304,11.7556882 L28.7394,12.7836882 L27.783,13.8321882 L26.8271,14.8806882 L25.9058,15.9488882 L24.9869,17.0148882 L24.0992,18.0979882 L23.2102,19.1832882 L22.3555,20.2867882 L21.5014,21.3900882 L20.6815,22.5106882 L19.8636,23.6287882 L19.0768,24.7618882 L18.2889,25.8971882 L17.5349,27.0480882 L16.7814,28.1989882 L16.0619,29.3644882 L15.3442,30.5274882 L14.6572,31.7031882 L13.9692,32.8811882 L13.3149,34.0722882 L12.6611,35.2632882 L12.0408,36.4663882 L11.4222,37.6670882 L10.834,38.8780882 L10.245,40.0914882 L9.6892,41.3154882 L9.134,42.5392882 L8.6118,43.7728882 L8.0912,45.0039882 L7.6005,46.2430882 L7.1093,47.4844882 L6.651,48.7341882 L6.1931,49.9837882 L5.7681,51.2404882 L5.3442,52.4946882 L4.95,53.7547882 L4.5555,55.0172882 L4.1935,56.2853882 L3.8318,57.5534882 L3.5027,58.8262882 L3.1742,60.0963882 L2.8748,61.3701882 L2.5751,62.6463882 L2.3076,63.9257882 L2.0404,65.2050882 L1.8054,66.4866882 L1.571,67.7658882 L1.3656,69.0463882 L1.1595,70.3292882 L0.9853,71.6129882 L0.8115,72.8966882 L0.6693,74.1801882 L0.5278,75.4612882 L0.4149,76.7415882 L0.3022,78.0242882 L0.2209,79.3054882 L0.14,80.5866882 L0.0904,81.8652882 L0.0413,83.1413882 L0.0204,84.4144882 L0,85.6901882 L0.0106,86.9617882 L0.0216,88.2333882 L0.0636,89.5000882 L0.1058,90.7641882 L0.1761,92.0230882 L0.2468,93.2844882 L0.3484,94.5394882 L0.4503,95.7945882 L0.5828,97.0422882 L0.7155,98.2873882 L0.8759,99.5250882 L1.0369,100.765388 L1.2285,101.996788 L1.4203,103.228288 L1.6426,104.449988 L1.8647,105.669088 L2.1137,106.878588 L2.3636,108.090888 L2.6437,109.291888 L2.9241,110.492888 L3.2346,111.681688 L3.5448,112.867788 L3.8821,114.042188 L4.2203,115.219488 L4.5876,116.383088 L4.9554,117.546888 L5.3528,118.695988 L5.7498,119.842488 L6.1736,120.974988 L6.599,122.110288 L7.0538,123.229388 L7.5093,124.348588 L7.994,125.450688 L8.4781,126.550188 L8.9887,127.633288 L9.5013,128.719388 L10.0429,129.786588 L10.5853,130.854088 L11.1566,131.901788 L11.7259,132.947588 L12.321,133.975088 L12.9185,135.005488 L13.5447,136.014688 L14.1718,137.023988 L14.8276,138.011288 L15.4823,138.995888 L16.1629,139.959588 L16.8455,140.926788 L17.5565,141.870388 L18.2684,142.814088 L19.0087,143.733188 L19.7476,144.649588 L20.5121,145.542988 L21.2798,146.439088 L22.0757,147.308888 L22.8715,148.179888 L23.695,149.023988 L24.5168,149.865488 L25.3641,150.681488 L26.215,151.500188 L27.0937,152.290188 L27.9736,153.079988 L28.8811,153.840088 L29.7848,154.599888 L30.713,155.332588 L31.6455,156.067788 L32.6055,156.771688 L33.5667,157.475388 L34.5552,158.146788 L35.5414,158.815788 L36.5522,159.454788 L37.5701,160.091888 L38.6154,160.694088 L39.6617,161.295788 L40.7346,161.862688 L41.8046,162.427088 L42.8987,162.958988 L43.9975,163.492388 L45.1226,163.989188 L46.2505,164.480888 L47.4044,164.934988 L48.5446,165.382988 L49.7249,165.813288 L50.9103,166.220888 L52.1066,166.607788 L53.3148,166.976388 L54.538,167.325588 L55.7718,167.654088 L57.0173,167.963688 L58.2776,168.252988 L59.5486,168.520588 L60.831,168.768888 L62.1282,168.995988 L63.4357,169.200988 L64.7545,169.387288 L66.0877,169.551788 L67.4313,169.693688 L68.7861,169.815188 L70.1552,169.914088 L71.5344,169.989988 L72.9247,170.045388 L74.3292,170.079688 L75.7436,170.090588 L77.1692,170.080088 L78.6087,170.045588 L80.0582,169.987388 L81.5186,169.907088 L82.9927,169.802688 L84.4769,169.674088 L85.9717,169.522888 L87.4803,169.346688 L88.9986,169.145688 L90.5276,168.921688 L92.0702,168.673088 L93.6229,168.400888 L95.1863,168.105088 L96.7629,167.782988 L98.3495,167.435188 L99.9465,167.063288 L101.5566,166.664488 L103.1766,166.239488 L104.8069,165.789988 L106.4503,165.312888 L108.1063,164.807988 L109.8274,164.257088 L111.5132,163.684388 L113.1569,163.092688 L114.7645,162.483088 L116.335,161.853288 L117.864,161.205288 L119.3572,160.538688 L120.8138,159.851888 L122.2297,159.147888 L123.6111,158.427488 L124.9572,157.687888 L126.2633,156.932188 L127.5347,156.159488 L128.7711,155.367388 L129.9681,154.560388 L131.1317,153.738288 L132.2616,152.898288 L133.3527,152.044488 L134.4109,151.176388 L135.4358,150.290588 L136.4223,149.392088 L137.3766,148.480488 L138.2983,147.551988 L139.1825,146.612388 L140.0349,145.660488 L140.8552,144.692688 L141.6382,143.714788 L142.3893,142.725288 L143.1086,141.720788 L143.792,140.708188 L144.4446,139.685488 L145.0659,138.649188 L145.6522,137.606088 L146.2084,136.554388 L146.7335,135.489888 L147.2241,134.420188 L147.6854,133.342888 L148.1165,132.254588 L148.5146,131.162588 L148.8845,130.064388 L149.2247,128.956488 L149.5335,127.846288 L149.8149,126.731288 L150.0679,125.607888 L150.2911,124.483488 L150.4878,123.355288 L150.6566,122.220088 L150.7967,121.084988 L150.9117,119.947188 L150.9996,118.803588 L151.0604,117.661188 L151.097,116.517188 L151.1078,115.368588 L151.0925,114.207088 L151.0444,113.077188 L150.9944,111.927788 L150.8965,110.776288 L150.7975,109.626888 L150.6522,108.476888 L150.5066,107.334188 L150.3224,106.191488 L150.1365,105.045188 L149.907,103.900588 L149.6768,102.757888 L149.4047,101.618288 L149.1331,100.484988 L148.8246,99.3555882 L148.5144,98.2229882 L148.1658,97.0954882 L147.8171,95.9694882 L147.4305,94.8502882 L147.0452,93.7365882 L146.6266,92.6300882 L146.2062,91.5205882 L145.7506,90.4202882 L145.2947,89.3211882 L144.8051,88.2325882 L144.3171,87.1488882 L143.7995,86.0756882 L143.2799,84.9996882 L142.7292,83.9364882 L142.1783,82.8743882 L141.5977,81.8263882 L141.0188,80.7825882 L140.4133,79.7532882 L139.8054,78.7213882 L139.1704,77.7060882 L138.5352,76.6914882 L137.8743,75.6948882 L137.2153,74.7019882 L136.5341,73.7263882 L135.8504,72.7482882 L135.1417,71.7917882 L134.4324,70.8360882 L133.7014,69.9020882 L132.9725,68.9714882 L132.225,68.0615882 L131.4748,67.1491882 L130.7054,66.2608882 L129.9355,65.3728882 L129.1544,64.5042882 L128.3761,63.6377882 L127.5826,62.7953882 L126.7856,61.9501882 L125.9731,61.1326882 L125.1597,60.3150882 L124.3321,59.5265882 L123.5065,58.7407882 L122.6755,57.9754882 L121.8431,57.2034882 L120.9985,56.4628882 L120.1523,55.7218882 L119.2952,55.0136882 L118.4401,54.3079882 L117.5762,53.6330882 L116.7065,52.9549882 L115.8279,52.3127882 L114.9426,51.6765882 L114.0502,51.0771882 L113.1603,50.4804882 L112.2653,49.9182882 L111.3447,49.3423882 L109.5462,48.3009882 L107.7223,47.3331882 L105.8857,46.4469882 L104.0339,45.6454882 L102.2182,44.9505882 L101.2537,44.6159882 L100.3203,44.3169882 L99.39,44.0437882 L98.4587,43.7933882 L97.5221,43.5695882 L96.5898,43.3731882 L95.6573,43.2009882 L94.7205,43.0553882 L93.7892,42.9382882 L92.8586,42.8471882 L91.924,42.7847882 L90.9966,42.7523882 L90.0711,42.7477882 L89.1423,42.7742882 L88.2228,42.8320882 L87.3065,42.9195882 L86.3884,43.0407882 L85.4817,43.1943882 L84.5803,43.3793882 L83.679,43.6004882 L82.7918,43.8547882 L81.9122,44.1417882 L81.0353,44.4669882 L80.1752,44.8256882 L79.3254,45.2177882 L78.4813,45.6494882 L77.6567,46.1144882 L76.8454,46.6137882 L76.043,47.1534882 L75.2621,47.7252882 L74.4964,48.3302882 L73.7424,48.9755882 L73.0112,49.6520882 L72.2969,50.3610882 L71.5966,51.1101882 L70.9198,51.8894882 L70.2609,52.7005882 L69.6181,53.5518882 L68.9994,54.4329882 L68.3992,55.3454882 L67.8162,56.2975882 L67.2565,57.2792882 L66.7158,58.2924882 L66.1933,59.3450882 L65.6938,60.4276882 L65.2133,61.5421882 L64.7519,62.6962882 L64.3132,63.8812882 L63.8938,65.0986882 L63.4942,66.3562882 L63.1171,67.6457882 L62.7596,68.9684882 L62.4225,70.3318882 L62.1081,71.7286882 L61.8135,73.1594882 L61.5403,74.6316882 L61.2897,76.1386882 L61.0596,77.6806882 L60.8515,79.2648882 L60.6698,80.8538882 C60.4231,83.1468882 62.0818,85.2056882 64.3748,85.4523882 C66.6677,85.6990882 68.7265,84.0402882 68.9732,81.7473882 Z" id="Fill-16"></path>
            <path d="M9.0466,32.6865882 L10.1611,31.3953882 L11.3033,30.1020882 L12.4767,28.7918882 L13.672,27.4656882 L14.8863,26.1228882 L16.0969,24.7412882 L17.3362,23.3616882 L18.681,22.0697882 L20.0383,20.7719882 L21.4141,19.4825882 L22.8191,18.2186882 L24.2447,16.9735882 L25.6761,15.7363882 L27.0966,14.4932882 L28.5118,13.2507882 L29.9432,12.0410882 L31.4039,10.8910882 L32.8816,9.78858816 L34.2872,8.61138816 L35.7321,7.52528816 L37.2017,6.51508816 L38.675,5.55528816 L40.149,4.65588816 L41.6306,3.79828816 C42.3373,3.39858816 42.5861,2.50178816 42.1865,1.79508816 C41.7867,1.08838816 40.8899,0.839488158 40.1832,1.23918816 L38.6548,2.08398816 L37.1058,2.98738816 L35.5475,3.92488816 L33.981,4.89268816 L32.389,5.86808816 L30.7611,6.82978816 L29.212,7.93168816 L27.6569,9.05268816 L26.0882,10.1743882 L24.5209,11.3134882 L22.9821,12.5016882 L21.4819,13.7392882 L20.0045,15.0035882 L18.5419,16.2819882 L17.09,17.5613882 L15.6591,18.8518882 L14.2631,20.1637882 L12.8136,21.3978882 L11.3859,22.6339882 L10.0215,23.9077882 L8.7021,25.1907882 L7.4224,26.4783882 L6.1832,27.7648882 L4.9924,29.0293882 C3.9825,30.1489882 4.0713,31.8751882 5.1909,32.8850882 C6.3104,33.8949882 8.0367,33.8060882 9.0466,32.6865882 Z" id="Fill-74"></path>
            <path d="M24.4301,39.9207882 L25.0079,38.2385882 L25.6028,36.5762882 L26.212,34.9130882 L26.832,33.2499882 L27.455,31.5852882 L28.05,29.9012882 L28.7098,28.2417882 L29.4692,26.6278882 L30.2396,25.0164882 L31.0313,23.4147882 L31.8611,21.8341882 L32.7186,20.2670882 L33.5889,18.7075882 L34.4537,17.1464882 L35.3199,15.5834882 L36.2149,14.0369882 L37.1653,12.5279882 L38.1602,11.0481882 L39.0881,9.52028816 L40.0702,8.03088816 L41.1191,6.58948816 L42.2044,5.17698816 L43.3281,3.79868816 L44.4888,2.43348816 C45.0209,1.82038816 44.9552,0.891888158 44.342,0.359788158 C43.7289,-0.172311842 42.8005,-0.106611842 42.2683,0.506488158 L41.0605,1.87038816 L39.8696,3.27028816 L38.6938,4.68288816 L37.5298,6.10768816 L36.3519,7.52808816 L35.1723,8.95138816 L34.1072,10.4589882 L33.0496,11.9752882 L31.988,13.4899882 L30.9445,15.0192882 L29.9504,16.5830882 L29.0126,18.1787882 L28.1077,19.7928882 L27.2251,21.4204882 L26.3542,23.0516882 L25.5069,24.6943882 L24.6978,26.3558882 L23.8378,27.9910882 L22.9571,29.6178882 L22.1526,31.2797882 L21.3929,32.9570882 L20.6657,34.6452882 L19.9715,36.3446882 L19.3071,38.0322882 C18.7856,39.4470882 19.5097,41.0165882 20.9244,41.5380882 C22.339,42.0595882 23.9086,41.3354882 24.4301,39.9207882 Z" id="Fill-75"></path>
        </g>
    </g>
</svg>
