<?xml version="1.0" encoding="UTF-8"?>
<svg width="206px" height="230px" viewBox="0 0 206 230" version="1.1" xmlns="http://www.w3.org/2000/svg" xmlns:xlink="http://www.w3.org/1999/xlink">
    <title>249</title>
    <g id="Page-1" stroke="none" stroke-width="1" fill="none" fill-rule="evenodd">
        <g id="249" transform="translate(0.172285, 0.826694)" fill="currentColor">
            <path d="M74.7107,93.3982 L74.7363,95.1143 L74.7997,96.8363 L74.8999,98.5153 L75.0336,100.1593 L75.2044,101.7696 L75.4109,103.3374 L75.6503,104.871 L75.9263,106.3722 L76.2369,107.8311 L76.5798,109.2564 L76.9592,110.6502 L77.3719,112.0018 L77.8164,113.32 L78.2972,114.6072 L78.81,115.8519 L79.3536,117.0633 L79.9335,118.2435 L80.5435,119.3809 L81.1834,120.4844 L81.8589,121.5562 L82.5623,122.5847 L83.294,123.5785 L84.0603,124.5398 L84.8517,125.4573 L85.6693,126.3396 L86.5198,127.1883 L87.3921,127.9932 L88.2881,128.7624 L89.2149,129.4967 L90.1602,130.1878 L91.1262,130.8432 L92.1199,131.4638 L93.1287,132.0426 L94.1554,132.5863 L95.2068,133.0954 L96.2704,133.5644 L97.3493,133.9996 L98.4501,134.4007 L99.5605,134.764 L100.6842,135.0946 L101.8273,135.3911 L102.9782,135.6521 L104.1402,135.8824 L105.319,136.0805 L106.5042,136.2454 L107.6988,136.3812 L108.9084,136.4861 L110.123,136.5599 L111.3458,136.606 L112.5816,136.6225 L113.8216,136.6098 L115.0685,136.5708 L116.3267,136.5035 L117.5881,136.4086 L118.8554,136.2887 L120.1324,136.1416 L121.4118,135.9685 L122.6959,135.7716 L123.9881,135.5485 L125.2819,135.3008 L126.579,135.0289 L127.8824,134.7308 L129.1863,134.4093 L130.4927,134.0663 L131.8041,133.6991 L133.1274,133.306 L134.4263,132.8903 L135.7406,132.4692 L137.0584,132.0042 L138.3738,131.5377 L139.6901,131.0273 L141.0004,130.5184 L142.3104,129.9721 L143.6231,129.424 L144.9335,128.836 L146.2425,128.2478 L147.5472,127.621 L148.8469,126.996 L150.1378,126.33 L151.4304,125.6611 L152.7148,124.9559 L153.998,124.2509 L155.271,123.5109 L156.5397,122.7729 L157.7974,122.0042 L159.0574,121.2337 L160.3074,120.4369 L161.5604,119.646 L162.7977,118.8239 L164.0316,118.0035 L165.2496,117.1557 L166.4701,116.3057 L167.6712,115.4268 L168.872,114.5475 L170.0528,113.6427 L171.2352,112.7454 L172.3964,111.8239 L173.5603,110.8997 L174.6992,109.95 L175.8382,108.9996 L176.9499,108.025 L178.0589,107.0521 L179.1415,106.0582 L180.2252,105.0592 L181.2778,104.0383 L182.3306,103.0165 L183.3502,101.9741 L184.3673,100.9335 L185.3524,99.8753 L186.3405,98.8131 L187.2915,97.7325 L188.2424,96.6503 L189.1537,95.5506 L190.0625,94.453 L190.934,93.3409 L191.8083,92.224 L192.6397,91.0922 L193.4713,89.9587 L194.2576,88.8115 L195.0347,87.6768 L195.7946,86.5109 L196.5252,85.3459 L197.2299,84.1764 L197.9118,83.0009 L198.5695,81.817 L199.1996,80.6295 L199.8054,79.4367 L200.3853,78.2359 L200.936,77.0325 L201.4616,75.8247 L201.9598,74.6095 L202.4272,73.3927 L202.8672,72.172 L203.2775,70.944 L203.6553,69.716 L204.0041,68.484 L204.3212,67.246 L204.604,66.008 L204.856,64.768 L205.0756,63.523 L205.2595,62.279 L205.4108,61.034 L205.526,59.783 L205.6037,58.536 L205.6468,57.289 L205.6516,56.037 L205.6173,54.79 L205.5467,53.544 L205.4354,52.296 L205.2838,51.054 L205.0943,49.814 L204.862,48.573 L204.588,47.341 L204.2747,46.112 L203.9166,44.885 L203.516,43.667 L203.0748,42.455 L202.5873,41.246 L202.0564,40.048 L201.4843,38.858 L200.8647,37.671 L200.2012,36.498 L199.4955,35.334 L198.7409,34.175 L197.9418,33.031 L197.0998,31.897 L196.2079,30.77 L195.271,29.658 L194.2903,28.557 L193.2583,27.466 L192.1805,26.39 L191.0584,25.326 L189.8845,24.272 L188.6639,23.234 L187.3981,22.208 L186.0795,21.193 L184.7127,20.195 L183.2992,19.211 L181.8318,18.239 L180.3153,17.283 L178.7514,16.34 L177.1326,15.411 L175.4631,14.499 L173.745,13.601 L171.9704,12.717 L170.1513,11.854 L169.2065,11.424 L168.2672,10.998 L167.3001,10.579 L166.3332,10.16 L165.3381,9.75 L164.3454,9.34 L163.3267,8.939 L162.3057,8.537 L161.2562,8.144 L160.2069,7.751 L159.1287,7.367 L158.0531,6.983 L157.0384,6.637 L156.0219,6.291 L155.0089,5.964 L153.9959,5.637 L152.9863,5.329 L151.9788,5.022 L150.9743,4.733 L149.9677,4.444 L148.9647,4.173 L147.9619,3.903 L146.9627,3.651 L145.9586,3.398 L143.9765,2.93 L141.9929,2.498 L140.0195,2.102 L138.0536,1.739 L136.0937,1.412 L134.1445,1.121 L132.203,0.862 L130.2682,0.639 L128.3445,0.45 L126.4291,0.293 L124.5206,0.171 L122.6238,0.082 L120.7357,0.024 L118.8551,0 L116.9866,0.008 L115.1272,0.046 L113.2757,0.115 L111.4367,0.216 L109.6071,0.346 L107.786,0.508 L105.9777,0.702 L104.1794,0.923 L102.39,1.176 L100.6138,1.458 L98.848,1.768 L97.0917,2.108 L95.349,2.478 L93.6171,2.874 L91.8952,3.299 L90.1867,3.751 L88.4893,4.228 L86.8023,4.734 L85.1297,5.267 L83.4685,5.825 L81.8183,6.411 L80.1828,7.023 L78.5588,7.657 L76.9461,8.319 L75.3485,9.006 L73.7632,9.717 L72.1896,10.453 L70.6315,11.214 L69.0861,11.997 L67.5525,12.805 L66.0347,13.635 L64.5299,14.488 L63.0378,15.364 L61.5618,16.263 L60.0991,17.183 L58.6496,18.126 L57.2194,19.095 L55.8032,20.084 L54.4008,21.095 L53.0153,22.126 L51.6439,23.177 L50.2867,24.249 L48.9467,25.34 L47.6247,26.454 L46.3181,27.589 L45.029,28.742 L43.7549,29.912 L42.4961,31.103 L41.255,32.31 L40.0293,33.533 L38.8167,34.774 L37.6216,36.029 L36.4421,37.301 L35.2786,38.591 L34.1334,39.896 L33.004,41.216 L31.8911,42.553 L30.7907,43.909 L29.7241,45.273 L28.6515,46.645 L27.6143,48.047 L26.5777,49.449 L25.5769,50.88 L24.5783,52.308 L23.6117,53.761 L22.6439,55.215 L21.7128,56.696 L20.7823,58.177 L19.8892,59.683 L18.9979,61.187 L18.141,62.712 L17.2814,64.239 L16.46,65.789 L15.6391,67.338 L14.857,68.909 L14.0766,70.478 L13.3318,72.066 L12.5863,73.6554 L11.8807,75.2645 L11.1754,76.8738 L10.5105,78.501 L9.847,80.1259 L9.2207,81.7661 L8.5937,83.4089 L8.0079,85.0674 L7.4216,86.7257 L6.8772,88.3985 L6.334,90.0689 L5.8293,91.7515 L5.3242,93.4368 L4.8621,95.1344 L4.4001,96.8322 L3.9812,98.5408 L3.5632,100.2471 L3.1853,101.9623 L2.8071,103.6803 L2.4734,105.4071 L2.14,107.1342 L1.8518,108.8688 L1.5643,110.6009 L1.3182,112.3388 L1.0721,114.0796 L0.8721,115.8257 L0.6725,117.5721 L0.5195,119.3224 L0.3671,121.0702 L0.2576,122.8206 L0.1483,124.574 L0.0867,126.3292 L0.0255,128.0847 L0.0125,129.8406 L0,131.5866 L0.0207,133.3482 L0.0662,135.1037 L0.1365,136.8568 L0.2295,138.6089 L0.3478,140.3612 L0.4912,142.1103 L0.6577,143.8575 L0.8494,145.6041 L1.0664,147.3466 L1.3069,149.0865 L1.5735,150.8249 L1.866,152.5581 L2.1823,154.2881 L2.5253,156.0155 L2.894,157.737 L3.2868,159.4545 L3.7067,161.1685 L4.1532,162.8757 L4.6242,164.5779 L5.1229,166.2758 L5.6485,167.966 L6.199,169.6503 L6.7776,171.3293 L7.3835,172.9997 L8.0147,174.6635 L8.6745,176.3211 L9.3617,177.969 L10.0748,179.6095 L10.8168,181.2429 L11.5867,182.8658 L12.3827,184.4803 L13.2082,186.0867 L14.0618,187.6818 L14.9418,189.2676 L15.8519,190.8444 L16.7903,192.4089 L17.7555,193.9633 L18.7512,195.5077 L19.7755,197.0389 L20.827,198.5592 L21.9093,200.0685 L23.0206,201.5637 L24.1594,203.0471 L25.3294,204.5186 L26.5287,205.9751 L27.7558,207.4189 L29.0146,208.8498 L30.3029,210.2649 L31.6192,211.6664 L32.9678,213.0541 L34.3461,214.425 L35.7527,215.7816 L37.1918,217.1233 L38.6611,218.4474 L40.159,219.7563 L41.6898,221.0495 L43.2509,222.3241 L44.836,223.5789 L45.6526,224.2038 L46.4644,224.8246 L47.292,225.4365 L48.1045,226.0371 C49.1237,226.79 50.5603,226.5741 51.3132,225.555 C52.0661,224.5358 51.8502,223.0992 50.831,222.3464 L50.0182,221.7462 L49.2204,221.1573 L48.4386,220.5598 L47.6616,219.9663 L46.1229,218.7497 L44.6175,217.522 L43.1446,216.2793 L41.7014,215.0195 L40.2861,213.7455 L38.9029,212.4574 L37.5488,211.1529 L36.2224,209.8351 L34.9274,208.504 L33.6613,207.1575 L32.4223,205.7982 L31.2144,204.4266 L30.0349,203.0403 L28.8822,201.642 L27.7599,200.2323 L26.6658,198.8086 L25.598,197.3738 L24.5602,195.9283 L23.5502,194.4696 L22.5662,193.0005 L21.6117,191.5217 L20.6846,190.0305 L19.7831,188.5296 L18.9106,187.0198 L18.0652,185.4984 L17.2451,183.9681 L16.4534,182.4296 L15.6886,180.8804 L14.9487,179.323 L14.2368,177.7583 L13.5513,176.1837 L12.8905,174.6016 L12.2572,173.0131 L11.65,171.4154 L11.0671,169.8111 L10.5113,168.2012 L9.9813,166.5829 L9.4753,164.9587 L8.9958,163.3298 L8.542,161.6933 L8.1117,160.0517 L7.7076,158.4062 L7.3288,156.7541 L6.9734,155.0975 L6.6442,153.4377 L6.34,151.7721 L6.0588,150.103 L5.8028,148.4316 L5.5715,146.7554 L5.3628,145.0763 L5.1793,143.3958 L5.0206,141.7112 L4.8842,140.0246 L4.7723,138.3376 L4.6844,136.6474 L4.6185,134.9559 L4.5765,133.2648 L4.5584,131.5787 L4.5727,129.8761 L4.5867,128.1835 L4.648,126.4913 L4.7089,124.7987 L4.8166,123.1078 L4.9241,121.4138 L5.0738,119.7224 L5.2229,118.0334 L5.4179,116.3484 L5.6124,114.663 L5.8522,112.9828 L6.0921,111.2996 L6.3728,109.6221 L6.6527,107.9471 L6.9769,106.2795 L7.3007,104.6116 L7.6683,102.9523 L8.0362,101.2901 L8.4434,99.6369 L8.8497,97.9861 L9.2992,96.3462 L9.7486,94.7062 L10.2401,93.0784 L10.7321,91.4478 L11.2621,89.8293 L11.7909,88.2132 L12.3609,86.6114 L12.9316,85.0099 L13.5431,83.4241 L14.1552,81.8357 L14.8038,80.2626 L15.4511,78.6919 L16.1381,77.1391 L16.8247,75.5862 L17.5503,74.0524 L18.2768,72.516 L19.0384,70.998 L19.7984,69.483 L20.5966,67.989 L21.3943,66.495 L22.2296,65.024 L23.0676,63.551 L23.9393,62.1 L24.809,60.651 L25.7153,59.227 L26.6212,57.803 L27.5629,56.406 L28.5059,55.006 L29.482,53.632 L30.456,52.26 L31.4649,50.916 L32.4733,49.573 L33.5159,48.259 L34.5645,46.937 L35.6261,45.649 L36.7094,44.374 L37.81,43.113 L38.9252,41.867 L40.0555,40.639 L41.2027,39.427 L42.3641,38.23 L43.5406,37.053 L44.7362,35.894 L45.9455,34.752 L47.1688,33.63 L48.4082,32.525 L49.6611,31.438 L50.9274,30.37 L52.209,29.321 L53.5003,28.285 L54.8045,27.271 L56.1245,26.275 L57.4573,25.298 L58.8026,24.343 L60.1633,23.409 L61.5361,22.493 L62.9184,21.595 L64.3158,20.719 L65.7255,19.862 L67.1469,19.029 L68.5831,18.217 L70.0312,17.427 L71.4906,16.66 L72.965,15.917 L74.4508,15.195 L75.9475,14.499 L77.4584,13.825 L78.9805,13.174 L80.513,12.549 L82.0594,11.948 L83.6171,11.371 L85.1847,10.821 L86.766,10.296 L88.3577,9.795 L89.9591,9.321 L91.5737,8.873 L93.1986,8.45 L94.8332,8.057 L96.4807,7.691 L98.1381,7.351 L99.8042,7.039 L101.483,6.756 L103.1714,6.498 L104.8681,6.27 L106.5773,6.071 L108.2957,5.899 L110.0221,5.758 L111.7607,5.646 L113.5083,5.562 L115.2634,5.509 L117.0306,5.488 L118.8063,5.497 L120.5893,5.537 L122.3838,5.61 L124.1866,5.712 L125.9964,5.846 L127.8174,6.013 L129.6465,6.21 L131.4823,6.44 L133.3289,6.704 L135.1833,6.999 L137.0441,7.329 L138.9155,7.693 L140.7944,8.088 L142.6794,8.519 L144.5817,8.987 L145.5269,9.236 L146.4771,9.485 L147.4313,9.752 L148.3853,10.02 L149.3434,10.305 L150.3034,10.591 L151.2673,10.893 L152.2292,11.195 L153.1948,11.514 L154.1605,11.834 L155.1299,12.173 L156.1012,12.512 L157.1358,12.889 L158.168,13.266 L159.1705,13.651 L160.1727,14.035 L161.1455,14.426 L162.1206,14.816 L163.0693,15.213 L164.0156,15.609 L164.933,16.012 L165.8503,16.414 L166.7388,16.823 L167.6219,17.229 L169.3564,18.062 L171.0243,18.903 L172.6386,19.756 L174.2023,20.62 L175.7084,21.492 L177.1624,22.377 L178.5672,23.27 L179.9158,24.171 L181.2142,25.084 L182.4654,26.003 L183.6626,26.929 L184.8113,27.864 L185.9142,28.807 L186.9645,29.754 L187.9683,30.71 L188.9281,31.673 L189.8373,32.639 L190.7025,33.613 L191.5258,34.592 L192.3008,35.573 L193.0334,36.562 L193.7259,37.556 L194.3725,38.551 L194.9787,39.554 L195.5468,40.561 L196.0713,41.567 L196.5571,42.583 L197.0065,43.602 L197.4147,44.62 L197.786,45.647 L198.1229,46.677 L198.4209,47.706 L198.6833,48.744 L198.9128,49.786 L199.1055,50.826 L199.2636,51.875 L199.39,52.928 L199.4813,53.98 L199.5389,55.04 L199.5658,56.103 L199.5594,57.165 L199.5198,58.235 L199.4507,59.308 L199.3495,60.38 L199.2159,61.458 L199.0536,62.54 L198.8603,63.619 L198.6339,64.704 L198.3797,65.791 L198.0961,66.876 L197.7815,67.965 L197.4401,69.056 L197.0706,70.143 L196.6711,71.234 L196.2457,72.325 L195.7934,73.4124 L195.3119,74.5015 L194.805,75.5894 L194.2725,76.673 L193.7123,77.7572 L193.1286,78.8393 L192.5206,79.9163 L191.8862,80.9925 L191.2294,82.0657 L190.5498,83.133 L189.8518,84.1882 L189.1076,85.2583 L188.3727,86.3161 L187.5934,87.3618 L186.8138,88.4092 L185.9918,89.4431 L185.167,90.4819 L184.3053,91.5072 L183.4462,92.5304 L182.5488,93.5381 L181.6515,94.5475 L180.7178,95.5397 L179.7812,96.5357 L178.8131,97.5149 L177.8476,98.4923 L176.8494,99.45 L175.851,100.4086 L174.8221,101.3462 L173.7921,102.289 L172.736,103.2116 L171.6825,104.1325 L170.6023,105.03 L169.522,105.9282 L168.4171,106.8017 L167.3094,107.678 L166.1811,108.5307 L165.0513,109.3759 L163.8994,110.1918 L162.7477,111.008 L161.5777,111.7958 L160.4051,112.5857 L159.2175,113.3486 L158.0334,114.1098 L156.8347,114.8402 L155.6328,115.5646 L154.4152,116.2507 L153.1953,116.9385 L151.9662,117.596 L150.7414,118.2516 L149.5085,118.8726 L148.2768,119.4937 L147.0393,120.0789 L145.8,120.667 L144.5603,121.2285 L143.3255,121.7882 L142.0885,122.31 L140.8531,122.8318 L139.6177,123.3143 L138.3796,123.7986 L137.1434,124.2461 L135.9131,124.6921 L134.6873,125.098 L133.464,125.5054 L132.2469,125.8702 L131.0144,126.2404 L129.8151,126.5727 L128.6118,126.886 L127.4121,127.1777 L126.2188,127.449 L125.0357,127.6968 L123.858,127.9232 L122.6886,128.1301 L121.5313,128.3131 L120.3806,128.4728 L119.2395,128.6109 L118.1125,128.7247 L116.9936,128.8145 L115.8859,128.8822 L114.7944,128.9251 L113.7124,128.9435 L112.6431,128.9395 L111.5922,128.9105 L110.552,128.8565 L109.5259,128.7796 L108.5203,128.678 L107.5265,128.5507 L106.5482,128.4005 L105.5922,128.2258 L104.6489,128.0248 L103.7222,127.8009 L102.8193,127.5529 L101.9295,127.2787 L101.0569,126.9819 L100.2092,126.6616 L99.3751,126.3133 L98.5588,125.9419 L97.7679,125.5472 L96.9908,125.1235 L96.2316,124.676 L95.4977,124.2054 L94.7777,123.704 L94.0755,123.1779 L93.3982,122.6282 L92.7345,122.0459 L92.0885,121.4373 L91.4669,120.8039 L90.86,120.1347 L90.2708,119.4372 L89.7058,118.713 L89.1567,117.9501 L88.6259,117.1567 L88.1196,116.3343 L87.631,115.4706 L87.1619,114.5739 L86.718,113.6459 L86.2942,112.6743 L85.8916,111.6675 L85.5153,110.6272 L85.1619,109.5413 L84.8317,108.4186 L84.5293,107.2604 L84.2527,106.0552 L84.0014,104.8118 L83.7796,103.531 L83.5864,102.2025 L83.4206,100.8345 L83.2861,99.4278 L83.183,97.9727 L83.1092,96.4773 L83.0686,94.9419 L83.0616,93.3165 C83.0391,91.0105 81.1514,89.1593 78.8454,89.1819 C76.5393,89.2045 74.6882,91.0921 74.7107,93.3982 Z" id="Fill-15"></path>
            <path d="M14.052,198.7566 L14.4218,199.3904 L14.8239,200.0361 L15.2363,200.6546 L15.6591,201.252 L16.0965,201.8287 L16.5614,202.4037 L17.4664,203.4241 L18.4315,204.3959 L19.439,205.2859 L20.4811,206.1131 L21.4685,206.9858 L22.46,207.8522 L23.4689,208.7069 L24.4843,209.5742 L25.5077,210.4864 L26.5279,211.3987 L27.5745,212.2987 L28.6402,213.1705 L29.724,214.0164 L30.8294,214.8332 L31.9486,215.6347 L33.0649,216.4169 L34.1789,217.2108 L35.3049,217.9879 L36.4294,218.7628 L37.5976,219.4738 L38.7597,220.1859 L39.9247,220.8935 L41.0818,221.6119 L42.2499,222.3139 L43.4123,223.0211 L44.5858,223.711 L45.7571,224.3995 L46.9358,225.0757 L48.1113,225.7564 L49.2947,226.4227 L50.4767,227.0881 L51.6643,227.7417 L52.8458,228.3919 C53.5412,228.7726 54.4134,228.5176 54.7941,227.8222 C55.1748,227.1268 54.9198,226.2546 54.2244,225.8738 L53.0401,225.2288 L51.8618,224.5871 L50.689,223.9335 L49.5178,223.2808 L48.3544,222.6138 L47.1943,221.9423 L46.0448,221.2532 L44.8975,220.5654 L43.7631,219.8576 L42.6343,219.1446 L41.5231,218.4056 L40.4198,217.6559 L39.3433,216.8681 L38.2729,216.0793 L37.1955,215.3034 L36.1195,214.5297 L35.0728,213.7168 L34.0285,212.8923 L33.0174,212.0462 L32.0163,211.1844 L31.0184,210.3191 L30.026,209.4491 L29.0414,208.5729 L28.0583,207.6728 L27.0437,206.7338 L26.0567,205.8116 L25.1054,204.9139 L24.1803,204.0422 L23.3049,203.1711 L22.5446,202.2242 L21.81,201.2931 L21.1051,200.3705 L20.4187,199.3988 L20.1164,198.9383 L19.8085,198.4471 L19.5087,197.9409 L19.2198,197.4212 L18.9447,196.8876 L18.6623,196.2983 C17.9835,195.0252 16.4011,194.5434 15.128,195.2223 C13.8549,195.9011 13.3732,197.4834 14.052,198.7566 Z" id="Fill-129"></path>
            <path d="M25.1571,194.2889 L25.9215,195.846 L26.7456,197.4093 L27.629,198.9361 L28.6019,200.4105 L29.5881,201.8727 L30.5058,203.3676 L31.466,204.8358 L32.4359,206.2994 L33.4294,207.7452 L34.4668,209.16 L35.5599,210.5349 L36.6878,211.878 L37.8194,213.2147 L38.9538,214.5486 L40.1321,215.8406 L41.3602,217.0835 L42.5783,218.3316 L43.8008,219.5689 L45.0325,220.7926 L46.2832,221.9933 L47.545,223.1743 L48.8191,224.3359 L50.1098,225.4726 L51.4057,226.5757 C52.0107,227.088 52.9164,227.0129 53.4287,226.4079 C53.941,225.8029 53.8658,224.8972 53.2608,224.3849 L51.9778,223.3042 L50.7181,222.206 L49.4729,221.0824 L48.246,219.9333 L47.0434,218.7553 L45.8602,217.5525 L44.7047,216.3207 L43.5874,215.0538 L42.5256,213.7365 L41.457,212.4278 L40.3945,211.1176 L39.3817,209.7676 L38.4148,208.386 L37.47,206.9952 L36.529,205.6042 L35.6002,204.2085 L34.7119,202.7922 L33.8803,201.3429 L33.0689,199.887 L32.397,198.3625 L31.7854,196.8151 L31.1535,195.2892 L30.5403,193.7663 L29.9482,192.2048 C29.3727,190.8818 27.8336,190.2758 26.5106,190.8513 C25.1875,191.4268 24.5816,192.9659 25.1571,194.2889 Z" id="Fill-130"></path>
        </g>
    </g>
</svg>
