<?xml version="1.0" encoding="UTF-8"?>
<svg width="365px" height="231px" viewBox="0 0 365 231" version="1.1" xmlns="http://www.w3.org/2000/svg" xmlns:xlink="http://www.w3.org/1999/xlink">
    <title>25</title>
    <g id="Page-1" stroke="none" stroke-width="1" fill="none" fill-rule="evenodd">
        <g id="25" transform="translate(0.461564, 0.528000)" fill="currentColor">
            <path d="M1.87513619,149.389 C6.95383619,211.098 95.1237362,225.817 141.965036,227.935 C281.036636,234.225 372.344036,205.491 361.311236,146.101" id="Fill-159"></path>
            <path d="M0.00873618638,149.569 L0.198836186,151.511 L0.448036186,153.45 L0.752636186,155.355 L1.10713619,157.232 L1.51623619,159.081 L1.97763619,160.897 L2.48663619,162.685 L3.04773619,164.445 L3.65823619,166.172 L4.31373619,167.871 L5.01873619,169.542 L5.77003619,171.181 L6.56373619,172.793 L7.40413619,174.377 L8.28793619,175.929 L9.21123619,177.454 L10.1785362,178.952 L11.1860362,180.419 L12.2305362,181.859 L13.3160362,183.273 L14.4387362,184.656 L15.5957362,186.014 L16.7909362,187.346 L18.0204362,188.648 L19.2818362,189.925 L20.5787362,191.176 L21.9070362,192.399 L23.2644362,193.598 L24.6542362,194.772 L26.0733362,195.918 L27.5191362,197.04 L28.9945362,198.138 L30.4960362,199.21 L32.0216362,200.26 L33.5741362,201.285 L35.1500362,202.286 L36.7476362,203.265 L38.3694362,204.221 L40.0121362,205.153 L41.6740362,206.064 L43.3575362,206.953 L45.0593362,207.819 L46.7780362,208.664 L48.5158362,209.488 L50.2699362,210.289 L52.0385362,211.07 L53.8231362,211.83 L55.6212362,212.57 L57.4318362,213.289 L59.2558362,213.989 L61.0907362,214.668 L62.9354362,215.33 L64.7911362,215.971 L66.6588362,216.595 L68.5297362,217.189 L70.4049362,217.786 L72.2943362,218.345 L74.1838362,218.901 L76.0836362,219.421 L77.9813362,219.941 L79.8854362,220.429 L81.7902362,220.916 L83.6991362,221.367 L85.6071362,221.818 L87.5149362,222.237 L89.4209362,222.655 L91.3219362,223.053 L93.2233362,223.452 L95.1181362,223.82 L97.0121362,224.188 L98.8953362,224.529 L100.776436,224.873 L102.645236,225.191 L104.514436,225.51 L106.366636,225.8 L108.218336,226.091 L110.049336,226.355 L111.879136,226.619 L113.687036,226.86 L115.495436,227.1 L117.276436,227.315 L119.057036,227.531 L120.806336,227.722 L122.554736,227.914 L124.271736,228.085 L125.989136,228.255 L127.668836,228.403 L129.348036,228.551 L130.985736,228.678 L132.620836,228.806 L134.229236,228.919 L135.812836,229.023 L137.371736,229.118 L138.907736,229.204 L140.418036,229.281 L141.900636,229.349 L142.987336,229.394 L144.070336,229.438 L145.153236,229.482 L146.239736,229.526 L147.318136,229.564 L148.393036,229.602 L149.467836,229.641 L150.546236,229.679 L151.616536,229.711 L152.683136,229.744 L153.749636,229.776 L154.819636,229.808 L155.882036,229.835 L156.941036,229.863 L158.000036,229.89 L159.062736,229.917 L160.117036,229.938 L161.167736,229.959 L162.218336,229.979 L163.272736,230 L164.318536,230.015 L165.360636,230.03 L166.402736,230.045 L167.448336,230.06 L168.485936,230.069 L169.520236,230.078 L170.554636,230.088 L171.592636,230.097 L172.622036,230.1 L173.647636,230.103 L174.673236,230.106 L175.702536,230.11 L176.723136,230.107 L177.739936,230.105 L178.756736,230.102 L179.777036,230.1 L180.789136,230.092 L181.797936,230.084 L182.806636,230.076 L183.820436,230.069 L185.822436,230.042 L187.825636,230.014 L189.810836,229.976 L191.795536,229.937 L193.763736,229.888 L195.732136,229.839 L197.682136,229.778 L199.632036,229.717 L201.563236,229.645 L203.494136,229.573 L205.407936,229.492 L207.322036,229.41 L209.217036,229.317 L211.112036,229.224 L212.987836,229.12 L214.863236,229.016 L216.720936,228.901 L218.579036,228.787 L220.417536,228.661 L222.256136,228.537 L224.074836,228.402 L225.893236,228.266 L227.693436,228.12 L229.494036,227.974 L231.274536,227.817 L233.054936,227.66 L234.815036,227.491 L236.574736,227.323 L238.315636,227.143 L240.057036,226.964 L241.777736,226.774 L243.498336,226.583 L245.198036,226.382 L246.897436,226.18 L248.577636,225.969 L250.258336,225.759 L251.917736,225.536 L253.577236,225.314 L255.215136,225.081 L256.852736,224.847 L258.470536,224.604 L260.088836,224.36 L261.685336,224.105 L263.281836,223.851 L264.856236,223.584 L266.430236,223.318 L267.983936,223.042 L269.538236,222.765 L271.070036,222.477 L272.601236,222.186 L274.109036,221.879 L275.616336,221.573 L277.102936,221.257 L278.589936,220.94 L280.053836,220.613 L281.517036,220.282 L282.956836,219.94 L284.395936,219.597 L285.813836,219.245 L287.232136,218.892 L288.626836,218.529 L290.022036,218.168 L291.393636,217.796 L292.764736,217.425 L294.113836,217.044 L295.463636,216.662 L296.789136,216.27 L298.114936,215.878 L299.416536,215.476 L300.717536,215.074 L301.996236,214.662 L303.275436,214.25 L304.529936,213.827 L305.784536,213.404 L307.014436,212.97 L308.243836,212.537 L309.450336,212.094 L310.657536,211.651 L311.839336,211.197 L313.021136,210.742 L314.177636,210.277 L315.333636,209.813 L316.466336,209.338 L317.599636,208.863 L318.707036,208.377 L319.814636,207.891 L320.896036,207.394 L321.976836,206.898 L323.034036,206.391 L324.091936,205.885 L325.123436,205.367 L326.154936,204.849 L327.159836,204.321 L328.164036,203.792 L329.143836,203.254 L330.124436,202.715 L331.078036,202.165 L332.031636,201.615 L332.958036,201.054 L333.883736,200.493 L334.784436,199.922 L335.686036,199.351 L336.560036,198.769 L337.434036,198.186 L338.280236,197.593 L339.125736,197 L339.945736,196.397 L340.769436,195.791 L342.351836,194.564 L343.879536,193.313 L345.355936,192.042 L346.775736,190.748 L348.136736,189.433 L349.444536,188.098 L350.694336,186.739 L351.884236,185.359 L353.019836,183.959 L354.095836,182.536 L355.110436,181.091 L356.069336,179.626 L356.967336,178.138 L357.802336,176.629 L358.580336,175.1 L359.295936,173.547 L359.947336,171.975 L360.540336,170.382 L361.069336,168.767 L361.533036,167.132 L361.937136,165.478 L362.275836,163.801 L362.548136,162.105 L362.759836,160.39 L362.904836,158.654 L362.982436,156.898 L362.998536,155.124 L362.946836,153.329 L362.826936,151.515 L362.644536,149.683 L362.393336,147.831 L362.075336,145.971 C362.003636,145.549 361.603436,145.265 361.181436,145.337 C360.759536,145.409 360.475536,145.809 360.547136,146.231 L360.856236,148.065 L361.095536,149.864 L361.267936,151.642 L361.379736,153.402 L361.425436,155.138 L361.405336,156.854 L361.326036,158.551 L361.182036,160.225 L360.973336,161.88 L360.706636,163.515 L360.376536,165.128 L359.982836,166.721 L359.532136,168.296 L359.019136,169.848 L358.443636,171.381 L357.811736,172.896 L357.118936,174.389 L356.364136,175.863 L355.553936,177.318 L354.683736,178.752 L353.752336,180.167 L352.766136,181.564 L351.721036,182.939 L350.615436,184.295 L349.455936,185.633 L348.237936,186.949 L346.960336,188.245 L345.629836,189.523 L344.242036,190.78 L342.795536,192.016 L341.296236,193.233 L339.737936,194.431 L338.934836,195.016 L338.127936,195.604 L337.295536,196.183 L336.463836,196.761 L335.604336,197.328 L334.744636,197.895 L333.857236,198.452 L332.969136,199.01 L332.055936,199.557 L331.143336,200.105 L330.203436,200.641 L329.263436,201.178 L328.296336,201.704 L327.328436,202.23 L326.336036,202.747 L325.344236,203.263 L324.325636,203.769 L323.307036,204.275 L322.261736,204.77 L321.215836,205.265 L320.145636,205.75 L319.075936,206.235 L317.980136,206.708 L316.884236,207.182 L315.762336,207.645 L314.639736,208.108 L313.493736,208.562 L312.348036,209.014 L311.176536,209.456 L310.005136,209.897 L308.808236,210.328 L307.610736,210.759 L306.390336,211.179 L305.170436,211.6 L303.925136,212.009 L302.679736,212.417 L301.409536,212.814 L300.138736,213.212 L298.845536,213.6 L297.552836,213.987 L296.235536,214.363 L294.917936,214.738 L293.576136,215.101 L292.233736,215.465 L290.869436,215.818 L289.505736,216.172 L288.117936,216.513 L286.729636,216.853 L285.317536,217.18 L283.905036,217.508 L282.471136,217.826 L281.037936,218.143 L279.581536,218.45 L278.125736,218.761 L276.647036,219.06 L275.167736,219.359 L273.667536,219.647 L272.167936,219.936 L270.646236,220.217 L269.125136,220.501 L267.581536,220.775 L266.037336,221.048 L264.472836,221.312 L262.908636,221.575 L261.322336,221.827 L259.736036,222.079 L258.127636,222.32 L256.518736,222.561 L254.890036,222.792 L253.261736,223.022 L251.611736,223.241 L249.961736,223.46 L248.290236,223.668 L246.618336,223.876 L244.927036,224.073 L243.236036,224.269 L241.524036,224.453 L239.811936,224.638 L238.079036,224.812 L236.345736,224.985 L234.593636,225.148 L232.841936,225.311 L231.069736,225.463 L229.297536,225.615 L227.505136,225.755 L225.712236,225.895 L223.901136,226.025 L222.090336,226.155 L220.259736,226.273 L218.428936,226.39 L216.578436,226.495 L214.727636,226.6 L212.859136,226.695 L210.990936,226.789 L209.103436,226.872 L207.216036,226.954 L205.309336,227.025 L203.402436,227.096 L201.478336,227.157 L199.554536,227.216 L197.611936,227.264 L195.669436,227.312 L193.708436,227.348 L191.747136,227.384 L189.769136,227.41 L187.791536,227.436 L185.795736,227.45 L183.798636,227.464 L182.794936,227.465 L181.786136,227.466 L180.777436,227.468 L179.772136,227.469 L178.758736,227.465 L177.742036,227.461 L176.725236,227.457 L175.712136,227.453 L174.690336,227.443 L173.664736,227.433 L172.639236,227.423 L171.617436,227.413 L170.586936,227.397 L169.552636,227.381 L168.518436,227.366 L167.487636,227.35 L166.448936,227.33 L165.406936,227.309 L164.364936,227.289 L163.326536,227.268 L162.279736,227.242 L161.229236,227.216 L160.178736,227.189 L159.131836,227.163 L158.076636,227.132 L157.017736,227.1 L155.958836,227.068 L154.903236,227.036 L153.840136,226.999 L152.773636,226.962 L151.707236,226.925 L150.644436,226.888 L149.573436,226.845 L148.498736,226.802 L147.424136,226.759 L146.353136,226.716 L145.273936,226.667 L144.191236,226.619 L143.108536,226.57 L142.029436,226.521 L140.559536,226.449 L139.063436,226.368 L137.541036,226.279 L135.995936,226.182 L134.426836,226.074 L132.835936,225.958 L131.210936,225.828 L129.588436,225.698 L127.924136,225.547 L126.260336,225.396 L124.558236,225.224 L122.855836,225.052 L121.121836,224.86 L119.388936,224.667 L117.624536,224.452 L115.860636,224.236 L114.069036,223.997 L112.277036,223.757 L110.463036,223.494 L108.650136,223.231 L106.816236,222.942 L104.982936,222.653 L103.132536,222.336 L101.281636,222.02 L99.4181362,221.678 L97.5566362,221.332 L95.6853362,220.955 L93.8146362,220.577 L91.9373362,220.169 L90.0596362,219.761 L88.1810362,219.316 L86.3042362,218.872 L84.4276362,218.395 L82.5520362,217.919 L80.6800362,217.411 L78.8071362,216.905 L76.9410362,216.367 L75.0769362,215.831 L73.2235362,215.26 L71.3699362,214.692 L69.5308362,214.089 L67.6874362,213.485 L65.8640362,212.858 L64.0478362,212.212 L62.2418362,211.548 L60.4468362,210.867 L58.6655362,210.167 L56.8970362,209.448 L55.1414362,208.711 L53.4022362,207.956 L51.6785362,207.18 L49.9705362,206.386 L48.2812362,205.573 L46.6096362,204.74 L44.9561362,203.888 L43.3244362,203.015 L41.7132362,202.121 L40.1225362,201.208 L38.5562362,200.273 L37.0130362,199.317 L35.4927362,198.34 L33.9994362,197.342 L32.5317362,196.321 L31.0893362,195.28 L29.6765362,194.217 L28.2918362,193.13 L26.9342362,192.023 L25.6086362,190.895 L24.3134362,189.741 L23.0478362,188.567 L21.8170362,187.37 L20.6189362,186.147 L19.4524362,184.903 L18.3230362,183.637 L17.2288362,182.344 L16.1685362,181.028 L15.1477362,179.69 L14.1645362,178.324 L13.2172362,176.935 L12.3116362,175.522 L11.4459362,174.081 L10.6183362,172.616 L9.83453619,171.127 L9.09303619,169.608 L8.39163619,168.065 L7.73613619,166.496 L7.12553619,164.897 L6.55703619,163.272 L6.03673619,161.621 L5.56383619,159.938 L5.13533619,158.228 L4.75713619,156.491 L4.42913619,154.721 L4.14793619,152.923 L3.91933619,151.096 L3.74153619,149.21 C3.64243619,148.179 2.72653619,147.424 1.69573619,147.523 C0.665036186,147.622 -0.0903638136,148.538 0.00873618638,149.569 Z" id="Fill-160"></path>
            <path d="M2.61793619,91.786 C6.29463619,23.238 94.1348362,5.744 140.930736,2.777 C279.867036,-6.033 371.832536,24.652 362.148736,90.704" id="Fill-161"></path>
            <path d="M4.48893619,91.909 L4.55743619,90.846 L4.62403619,89.808 L4.71813619,88.787 L4.81193619,87.766 L4.93263619,86.763 L5.05343619,85.757 L5.19833619,84.766 L5.34253619,83.777 L5.51293619,82.806 L5.68293619,81.834 L5.87863619,80.879 L6.07273619,79.928 L6.51123619,78.037 L6.99653619,76.188 L7.53053619,74.368 L8.10753619,72.577 L8.73023619,70.819 L9.39943619,69.089 L10.1092362,67.387 L10.8623362,65.717 L11.6595362,64.075 L12.4952362,62.459 L13.3716362,60.874 L14.2898362,59.316 L15.2445362,57.783 L16.2374362,56.281 L17.2699362,54.804 L18.3367362,53.352 L19.4392362,51.929 L20.5787362,50.531 L21.7503362,49.158 L22.9551362,47.812 L24.1950362,46.491 L25.4648362,45.193 L26.7647362,43.922 L28.0973362,42.675 L29.4576362,41.451 L30.8464362,40.254 L32.2651362,39.08 L33.7095362,37.928 L35.1798362,36.802 L36.6775362,35.699 L38.1984362,34.618 L39.7429362,33.561 L41.3121362,32.527 L42.9022362,31.515 L44.5133362,30.526 L46.1465362,29.56 L47.7975362,28.613 L49.4669362,27.689 L51.1558362,26.787 L52.8608362,25.905 L54.5815362,25.045 L56.3187362,24.205 L58.0696362,23.385 L59.8339362,22.586 L61.6123362,21.808 L63.4017362,21.048 L65.2019362,20.309 L67.0096362,19.591 L68.8385362,18.898 L70.6625362,18.205 L72.5007362,17.549 L74.3399362,16.893 L76.1906362,16.275 L78.0435362,15.656 L79.9033362,15.07 L81.7622362,14.482 L83.6259362,13.931 L85.4906362,13.38 L87.3563362,12.865 L89.2261362,12.357 L91.0936362,11.881 L92.9607362,11.405 L94.8218362,10.962 L96.6843362,10.522 L98.5377362,10.118 L100.392636,9.714 L102.235536,9.339 L104.078036,8.964 L105.903836,8.619 L107.730336,8.274 L109.536336,7.959 L111.343736,7.643 L113.129536,7.354 L114.914836,7.064 L116.673036,6.802 L118.431836,6.54 L120.159636,6.304 L121.888636,6.068 L123.586436,5.855 L125.283736,5.642 L126.943436,5.453 L128.603636,5.264 L130.222436,5.099 L131.844036,4.933 L133.431536,4.783 L134.997436,4.644 L136.539736,4.516 L138.059436,4.397 L139.553036,4.288 L141.020736,4.189 L142.098336,4.121 L143.180036,4.052 L144.261736,3.984 L145.339436,3.916 L146.409136,3.855 L147.482936,3.793 L148.556636,3.732 L149.626436,3.671 L150.688036,3.616 L151.753736,3.561 L152.819336,3.506 L153.881336,3.451 L154.935936,3.403 L155.994136,3.354 L157.052436,3.305 L158.106636,3.256 L159.152536,3.214 L160.202536,3.171 L161.252536,3.128 L162.298436,3.086 L163.335936,3.05 L164.377636,3.014 L165.419236,2.978 L166.457136,2.942 L167.487336,2.912 L168.521236,2.881 L169.555236,2.85 L170.585036,2.82 L171.606336,2.796 L172.631736,2.772 L173.657236,2.748 L174.678436,2.724 L175.691036,2.706 L176.707836,2.689 L177.724636,2.671 L178.737636,2.654 L179.742636,2.642 L180.751536,2.631 L181.760436,2.62 L182.765036,2.608 L183.760936,2.603 L184.760936,2.598 L185.760936,2.594 L186.755336,2.589 L188.734836,2.592 L190.713136,2.595 L192.675136,2.611 L194.636736,2.626 L196.580036,2.655 L198.523436,2.683 L200.448336,2.724 L202.373636,2.766 L204.281936,2.82 L206.189836,2.875 L208.079036,2.942 L209.968136,3.01 L211.838136,3.09 L213.708636,3.171 L215.561536,3.264 L217.414136,3.357 L219.247336,3.462 L221.080336,3.569 L222.893736,3.69 L224.707536,3.81 L226.503336,3.943 L228.298736,4.075 L230.074036,4.22 L231.849336,4.365 L233.604436,4.524 L235.359936,4.682 L237.096936,4.852 L238.833336,5.022 L240.549336,5.204 L242.265136,5.387 L243.960336,5.583 L245.655836,5.779 L247.332236,5.986 L249.008036,6.195 L250.662736,6.416 L252.317336,6.638 L253.950436,6.872 L255.584136,7.106 L257.198136,7.352 L258.811636,7.599 L260.403336,7.857 L261.994936,8.116 L263.564636,8.388 L265.134736,8.66 L266.684836,8.943 L268.234236,9.226 L269.761436,9.522 L271.288436,9.817 L272.792936,10.126 L274.299036,10.429 L275.784836,10.743 L277.270136,11.056 L278.732636,11.382 L280.195036,11.708 L281.634436,12.046 L283.075136,12.382 L284.494936,12.729 L285.914236,13.075 L287.310136,13.434 L288.706136,13.793 L290.078436,14.166 L291.450836,14.54 L292.801236,14.927 L294.151136,15.313 L295.476936,15.712 L296.802836,16.112 L298.104536,16.524 L299.406636,16.936 L300.686236,17.361 L301.965236,17.786 L303.219736,18.223 L304.474036,18.661 L305.703636,19.111 L306.933836,19.561 L308.141136,20.023 L309.347536,20.485 L310.528836,20.96 L311.710036,21.435 L312.865936,21.922 L314.022336,22.41 L315.155536,22.909 L316.287936,23.408 L317.394436,23.919 L318.500836,24.431 L319.581336,24.955 L320.662436,25.479 L321.719836,26.015 L322.776436,26.55 L323.806736,27.097 L324.836736,27.645 L325.840136,28.205 L326.844236,28.766 L327.824036,29.337 L328.803136,29.909 L329.755336,30.492 L330.707436,31.075 L331.632436,31.671 L332.558236,32.267 L333.459136,32.874 L334.359336,33.48 L335.231936,34.099 L336.104636,34.718 L336.949736,35.348 L337.795436,35.979 L338.615936,36.622 L339.435636,37.263 L340.227336,37.917 L341.018936,38.57 L341.782436,39.236 L342.546736,39.902 L343.285236,40.579 L344.022936,41.255 L344.732136,41.944 L345.438236,42.629 L346.802036,44.034 L348.110436,45.457 L349.360136,46.904 L350.552036,48.374 L351.690436,49.867 L352.768936,51.382 L353.788836,52.922 L354.754536,54.483 L355.659636,56.067 L356.505136,57.675 L357.295636,59.305 L358.024736,60.958 L358.693136,62.635 L359.305636,64.334 L359.855736,66.056 L360.344136,67.803 L360.775536,69.572 L361.143836,71.364 L361.448936,73.181 L361.696136,75.021 L361.879036,76.883 L361.997436,78.771 L362.056836,80.681 L362.050936,82.615 L361.978736,84.578 L361.912736,85.566 L361.846836,86.556 L361.747336,87.558 L361.648036,88.561 L361.515036,89.576 L361.380436,90.603 C361.324336,91.027 361.622836,91.417 362.047136,91.473 C362.471436,91.529 362.860936,91.23 362.917136,90.806 L363.054136,89.779 L363.192836,88.741 L363.297336,87.714 L363.401536,86.687 L363.471936,85.672 L363.542236,84.653 L363.620736,82.648 L363.631836,80.661 L363.575736,78.699 L363.458736,76.758 L363.275136,74.839 L363.025436,72.945 L362.715836,71.073 L362.340436,69.223 L361.900236,67.398 L361.401136,65.596 L360.837436,63.816 L360.210136,62.062 L359.525136,60.33 L358.776436,58.622 L357.965836,56.94 L357.098636,55.28 L356.169036,53.644 L355.178936,52.034 L354.133436,50.447 L353.026936,48.885 L351.861336,47.348 L350.642036,45.834 L349.362936,44.344 L348.026036,42.881 L346.639236,41.444 L345.912536,40.733 L345.188936,40.024 L344.436536,39.329 L343.685136,38.634 L342.907736,37.95 L342.129636,37.266 L341.323336,36.595 L340.516936,35.924 L339.682636,35.265 L338.849136,34.607 L337.990236,33.96 L337.130736,33.313 L336.243536,32.678 L335.356436,32.044 L334.441836,31.422 L333.528136,30.801 L332.589736,30.191 L331.650536,29.581 L330.684236,28.983 L329.718136,28.386 L328.725136,27.801 L327.732936,27.216 L326.716636,26.643 L325.699536,26.07 L324.656036,25.509 L323.612736,24.948 L322.543336,24.399 L321.474736,23.851 L320.382436,23.314 L319.289436,22.777 L318.170536,22.252 L317.051736,21.728 L315.907436,21.216 L314.763936,20.704 L313.597336,20.203 L312.430136,19.702 L311.237536,19.214 L310.045036,18.725 L308.827436,18.25 L307.610736,17.774 L306.371536,17.309 L305.131736,16.844 L303.867236,16.391 L302.602736,15.938 L301.313736,15.498 L300.025336,15.058 L298.715236,14.629 L297.404536,14.199 L296.069736,13.781 L294.734936,13.364 L293.376036,12.959 L292.017936,12.554 L290.638336,12.16 L289.258736,11.764 L287.855536,11.38 L286.452236,10.996 L285.025536,10.625 L283.599336,10.254 L282.151936,9.895 L280.703136,9.539 L279.231236,9.195 L277.759436,8.852 L276.264736,8.521 L274.770636,8.191 L273.255636,7.874 L271.739036,7.561 L270.199936,7.262 L268.661036,6.963 L267.099836,6.676 L265.539336,6.39 L263.958736,6.115 L262.377636,5.84 L260.774736,5.579 L259.171936,5.317 L257.547536,5.068 L255.923636,4.819 L254.280336,4.581 L252.636536,4.344 L250.971436,4.119 L249.306536,3.894 L247.620436,3.682 L245.934936,3.469 L244.230536,3.268 L242.525836,3.067 L240.800236,2.878 L239.074736,2.69 L237.328736,2.514 L235.583236,2.339 L233.819236,2.175 L232.054836,2.011 L230.270336,1.86 L228.485736,1.71 L226.681336,1.572 L224.877336,1.434 L223.055436,1.308 L221.233036,1.182 L219.391136,1.067 L217.549336,0.952 L215.688236,0.85 L213.827436,0.748 L211.949236,0.658 L210.070636,0.567 L208.173036,0.49 L206.275336,0.412 L204.359036,0.347 L202.442936,0.282 L200.510036,0.229 L198.576736,0.175 L196.624936,0.134 L194.673036,0.093 L192.703036,0.065 L190.733336,0.038 L188.747336,0.022 L186.762236,0.006 L185.756536,0.004 L184.756436,0.003 L183.756436,0.001 L182.752136,0 L181.739036,0.005 L180.730136,0.01 L179.721136,0.015 L178.708336,0.02 L177.687636,0.032 L176.670836,0.043 L175.653936,0.054 L174.632836,0.065 L173.603136,0.082 L172.577536,0.1 L171.551936,0.118 L170.522236,0.135 L169.484036,0.159 L168.449836,0.184 L167.415736,0.208 L166.377836,0.232 L165.332236,0.263 L164.290436,0.294 L163.248636,0.324 L162.202636,0.355 L161.148436,0.393 L160.098236,0.43 L159.048036,0.467 L157.993736,0.505 L156.931236,0.549 L155.872736,0.593 L154.814236,0.638 L153.752036,0.682 L152.682536,0.732 L151.616636,0.783 L150.550736,0.833 L149.480736,0.883 L148.402736,0.94 L147.328736,0.997 L146.254736,1.054 L145.176736,1.111 L144.090836,1.175 L143.008836,1.238 L141.926836,1.302 L140.840736,1.366 L139.358836,1.46 L137.849436,1.566 L136.314636,1.682 L134.757036,1.808 L133.174936,1.945 L131.568136,2.092 L129.935336,2.255 L128.299636,2.419 L126.622836,2.606 L124.945636,2.792 L123.231136,3.004 L121.517136,3.216 L119.772236,3.452 L118.026336,3.688 L116.249636,3.95 L114.472536,4.213 L112.668636,4.504 L110.865236,4.795 L109.040536,5.112 L107.214536,5.429 L105.368336,5.776 L103.521636,6.124 L101.658636,6.502 L99.7961362,6.88 L97.9218362,7.287 L96.0460362,7.694 L94.1597362,8.131 L92.2722362,8.565 L90.3787362,9.034 L88.4856362,9.502 L86.5902362,10.002 L84.6907362,10.495 L82.7918362,11.023 L80.8918362,11.551 L78.9962362,12.117 L77.1015362,12.684 L75.2144362,13.287 L73.3250362,13.891 L71.4467362,14.535 L69.5673362,15.179 L67.7040362,15.866 L65.8457362,16.552 L63.9904362,17.27 L62.1478362,18.008 L60.3165362,18.767 L58.4957362,19.547 L56.6861362,20.349 L54.8905362,21.173 L53.1074362,22.017 L51.3386362,22.886 L49.5865362,23.777 L47.8494362,24.69 L46.1286362,25.628 L44.4273362,26.589 L42.7441362,27.573 L41.0798362,28.583 L39.4376362,29.617 L37.8152362,30.673 L36.2144362,31.757 L34.6383362,32.865 L33.0845362,33.997 L31.5549362,35.156 L30.0529362,36.341 L28.5755362,37.551 L27.1250362,38.79 L25.7048362,40.054 L24.3119362,41.344 L22.9485362,42.664 L21.6189362,44.012 L20.3193362,45.386 L19.0520362,46.79 L17.8207362,48.222 L16.6219362,49.682 L15.4587362,51.173 L14.3345362,52.692 L13.2452362,54.239 L12.1942362,55.819 L11.1848362,57.427 L10.2131362,59.064 L9.28273619,60.734 L8.39673619,62.433 L7.55103619,64.161 L6.74953619,65.923 L5.99523619,67.715 L5.28393619,69.536 L4.61973619,71.391 L4.00543619,73.277 L3.43663619,75.193 L2.91793619,77.143 L2.45343619,79.116 L2.24253619,80.128 L2.03323619,81.135 L1.85043619,82.158 L1.66793619,83.181 L1.51233619,84.221 L1.35743619,85.259 L1.22733619,86.311 L1.09723619,87.366 L0.994936186,88.438 L0.892836186,89.51 L0.819036186,90.599 L0.747036186,91.662 C0.678836186,92.695 1.46113619,93.588 2.49443619,93.656 C3.52773619,93.725 4.42063619,92.942 4.48893619,91.909 Z" id="Fill-162"></path>
        </g>
    </g>
</svg>
