<?xml version="1.0" encoding="UTF-8"?>
<svg width="182px" height="124px" viewBox="0 0 182 124" version="1.1" xmlns="http://www.w3.org/2000/svg" xmlns:xlink="http://www.w3.org/1999/xlink">
    <title>250</title>
    <g id="Page-1" stroke="none" stroke-width="1" fill="none" fill-rule="evenodd">
        <g id="250" transform="translate(0.919621, 0.392816)" fill="currentColor">
            <path d="M6.30006431,122.270878 L7.16406431,121.741878 L8.02706431,121.212878 L8.89106431,120.684878 L9.75406431,120.155878 L10.6180643,119.626878 L11.4810643,119.097878 L12.3450643,118.569878 L13.2080643,118.040878 L14.0720643,117.511878 L14.9350643,116.983878 L15.7990643,116.454878 L16.6620643,115.924878 L17.5240643,115.394878 L18.3870643,114.863878 L19.2490643,114.333878 L20.1110643,113.799878 L20.9720643,113.265878 L21.8330643,112.731878 L22.6930643,112.196878 L23.5530643,111.662878 L24.4140643,111.128878 L25.2740643,110.594878 L26.1350643,110.059878 L26.9920643,109.520878 L27.8490643,108.980878 L28.7060643,108.440878 L29.5630643,107.899878 L30.4170643,107.354878 L31.2710643,106.808878 L32.1240643,106.262878 L32.9750643,105.711878 L33.8160643,105.149878 L34.6580643,104.589878 L35.5020643,104.028878 L36.3550643,103.480878 L37.2150643,102.945878 L38.0750643,102.410878 L38.9350643,101.876878 L39.8030643,101.353878 L40.6740643,100.837878 L41.5450643,100.320878 L42.4160643,99.8048776 L43.2840643,99.2838776 L44.1520643,98.7628776 L45.0210643,98.2418776 L45.8890643,97.7208776 L46.7560643,97.1978776 L47.6190643,96.6768776 L48.4830643,96.1578776 L49.3510643,95.6378776 L50.2190643,95.1168776 L51.0880643,94.5958776 L51.9560643,94.0758776 L52.8250643,93.5558776 L53.6940643,93.0368776 L54.5640643,92.5188776 L55.4340643,92.0008776 L56.3050643,91.4848776 L57.1770643,90.9698776 L58.0480643,90.4558776 L58.9200643,89.9418776 L59.7920643,89.4268776 L60.6650643,88.9128776 L61.5300643,88.4028776 L62.3980643,87.8968776 L63.2730643,87.3888776 L64.1480643,86.8798776 L65.0230643,86.3718776 L65.8980643,85.8628776 L66.7720643,85.3528776 L67.6460643,84.8428776 L68.5200643,84.3328776 L69.3940643,83.8228776 L70.2660643,83.3098776 L71.1390643,82.7978776 L72.0110643,82.2848776 L72.8840643,81.7718776 L73.7560643,81.2588776 L74.6280643,80.7448776 L75.4910643,80.2368776 L76.3560643,79.7328776 L77.2290643,79.2218776 L78.1020643,78.7108776 L78.9750643,78.1998776 L79.8470643,77.6868776 L80.7180643,77.1728776 L81.5890643,76.6588776 L82.4610643,76.1458776 L83.3320643,75.6318776 L84.2030643,75.1178776 L85.0740643,74.6038776 L85.9460643,74.0898776 L86.8170643,73.5768776 L87.6880643,73.0628776 L88.5590643,72.5488776 L89.4240643,72.0388776 L90.2940643,71.5378776 L91.1690643,71.0328776 L92.0450643,70.5278776 L92.9210643,70.0238776 L93.7970643,69.5198776 L94.6740643,69.0148776 L95.5500643,68.5108776 L96.4220643,68.0118776 L97.2970643,67.5188776 L98.1770643,67.0228776 L99.0580643,66.5268776 L99.9390643,66.0318776 L100.820064,65.5378776 L101.702064,65.0438776 L102.583064,64.5498776 L103.460064,64.0598776 L104.338064,63.5748776 L105.223064,63.0868776 L106.107064,62.5988776 L106.987064,62.1028776 L107.867064,61.6058776 L108.746064,61.1098776 L109.625064,60.6118776 L110.494064,60.1078776 L111.364064,59.6088776 L112.241064,59.1068776 L113.118064,58.6058776 L113.998064,58.1108776 L114.878064,57.6148776 L115.758064,57.1198776 L116.639064,56.6258776 L117.515064,56.1378776 L118.393064,55.6548776 L119.278064,55.1688776 L120.163064,54.6838776 L121.049064,54.1998776 L121.935064,53.7158776 L122.820064,53.2318776 L123.707064,52.7498776 L124.588064,52.2728776 L125.472064,51.8008776 L126.362064,51.3268776 L127.252064,50.8518776 L128.143064,50.3768776 L129.033064,49.9018776 L129.923064,49.4268776 L130.815064,48.9538776 L131.699064,48.4848776 L132.587064,48.0208776 L133.481064,47.5538776 L134.375064,47.0878776 L135.270064,46.6218776 L136.164064,46.1558776 L137.059064,45.6888776 L137.953064,45.2228776 L138.840064,44.7608776 L139.730064,44.3048776 L140.628064,43.8458776 L141.525064,43.3858776 L142.423064,42.9268776 L143.320064,42.4678776 L144.218064,42.0078776 L145.115064,41.5488776 L146.005064,41.0928776 L146.898064,40.6448776 L147.799064,40.1938776 L148.701064,39.7428776 L149.602064,39.2918776 L150.503064,38.8408776 L151.405064,38.3908776 L152.307064,37.9408776 L153.202064,37.4948776 L154.099064,37.0558776 L155.004064,36.6128776 L155.909064,36.1688776 L156.814064,35.7258776 L157.719064,35.2828776 L158.624064,34.8398776 L159.529064,34.3968776 L160.426064,33.9588776 L161.325064,33.5278776 L162.234064,33.0928776 L163.143064,32.6578776 L164.051064,32.2228776 L164.960064,31.7878776 L165.869064,31.3528776 L166.777064,30.9178776 L167.677064,30.4868776 L168.580064,30.0648776 L169.492064,29.6378776 L170.405064,29.2118776 L171.317064,28.7848776 L172.230064,28.3588776 L173.142064,27.9318776 L174.054064,27.5048776 L174.967064,27.0788776 C176.114064,26.5408776 176.609064,25.1748776 176.071064,24.0278776 C175.533064,22.8798776 174.167064,22.3858776 173.020064,22.9238776 L172.108064,23.3518776 L171.196064,23.7798776 L170.285064,24.2078776 L169.373064,24.6358776 L168.461064,25.0648776 L167.549064,25.4928776 L166.638064,25.9208776 L165.716064,26.3538776 L164.799064,26.7948776 L163.891064,27.2308776 L162.983064,27.6678776 L162.075064,28.1048776 L161.167064,28.5408776 L160.260064,28.9778776 L159.352064,29.4138776 L158.435064,29.8548776 L157.522064,30.3038776 L156.617064,30.7488776 L155.713064,31.1928776 L154.809064,31.6378776 L153.904064,32.0828776 L153.000064,32.5268776 L152.096064,32.9718776 L151.184064,33.4198776 L150.275064,33.8748776 L149.374064,34.3268776 L148.473064,34.7778776 L147.571064,35.2288776 L146.669064,35.6788776 L145.767064,36.1298776 L144.865064,36.5798776 L143.955064,37.0328776 L143.048064,37.4928776 L142.149064,37.9498776 L141.250064,38.4058776 L140.351064,38.8618776 L139.452064,39.3188776 L138.553064,39.7748776 L137.654064,40.2308776 L136.747064,40.6918776 L135.844064,41.1588776 L134.948064,41.6218776 L134.052064,42.0848776 L133.156064,42.5478776 L132.260064,43.0108776 L131.364064,43.4738776 L130.467064,43.9358776 L129.564064,44.4018776 L128.664064,44.8728776 L127.770064,45.3408776 L126.875064,45.8068776 L125.980064,46.2728776 L125.085064,46.7388776 L124.190064,47.2048776 L123.295064,47.6708776 L122.393064,48.1408776 L121.495064,48.6158776 L120.602064,49.0868776 L119.708064,49.5558776 L118.814064,50.0248776 L117.920064,50.4928776 L117.025064,50.9608776 L116.130064,51.4278776 L115.229064,51.8978776 L114.330064,52.3728776 L113.436064,52.8428776 L112.541064,53.3118776 L111.646064,53.7798776 L110.752064,54.2478776 L109.854064,54.7118776 L108.956064,55.1728776 L108.052064,55.6378776 L107.150064,56.1068776 L106.258064,56.5828776 L105.367064,57.0588776 L104.477064,57.5358776 L103.586064,58.0118776 L102.700064,58.4968776 L101.814064,58.9828776 L100.922064,59.4708776 L100.032064,59.9638776 L99.1470643,60.4518776 L98.2630643,60.9408776 L97.3780643,61.4288776 L96.4930643,61.9168776 L95.6080643,62.4038776 L94.7220643,62.8898776 L93.8310643,63.3798776 L92.9400643,63.8718776 L92.0540643,64.3588776 L91.1690643,64.8458776 L90.2830643,65.3328776 L89.3960643,65.8188776 L88.5100643,66.3058776 L87.6240643,66.7918776 L86.7310643,67.2818776 L85.8380643,67.7738776 L84.9520643,68.2608776 L84.0660643,68.7488776 L83.1800643,69.2368776 L82.2940643,69.7238776 L81.4070643,70.2118776 L80.5210643,70.6998776 L79.6350643,71.1868776 L78.7490643,71.6748776 L77.8630643,72.1628776 L76.9770643,72.6498776 L76.0910643,73.1388776 L75.2070643,73.6298776 L74.3220643,74.1198776 L73.4380643,74.6108776 L72.5450643,75.1078776 L71.6570643,75.6128776 L70.7780643,76.1138776 L69.8980643,76.6138776 L69.0190643,77.1148776 L68.1400643,77.6168776 L67.2610643,78.1178776 L66.3820643,78.6198776 L65.5040643,79.1228776 L64.6260643,79.6268776 L63.7490643,80.1308776 L62.8710643,80.6348776 L61.9950643,81.1398776 L61.1180643,81.6458776 L60.2410643,82.1508776 L59.3650643,82.6568776 L58.4810643,83.1648776 L57.6000643,83.6768776 L56.7240643,84.1858776 L55.8490643,84.6948776 L54.9740643,85.2028776 L54.0980643,85.7118776 L53.2230643,86.2198776 L52.3460643,86.7268776 L51.4690643,87.2308776 L50.5910643,87.7358776 L49.7130643,88.2408776 L48.8350643,88.7438776 L47.9560643,89.2458776 L47.0770643,89.7478776 L46.1980643,90.2498776 L45.3190643,90.7518776 L44.4360643,91.2568776 L43.5540643,91.7638776 L42.6760643,92.2688776 L41.7990643,92.7758776 L40.9230643,93.2818776 L40.0460643,93.7888776 L39.1700643,94.2968776 L38.2960643,94.8088776 L37.4230643,95.3198776 L36.5490643,95.8318776 L35.6720643,96.3378776 L34.7870643,96.8308776 L33.9020643,97.3238776 L33.0180643,97.8178776 L32.1250643,98.2978776 L31.2250643,98.7638776 L30.3230643,99.2318776 L29.4210643,99.7018776 L28.5280643,100.180878 L27.6380643,100.665878 L26.7490643,101.150878 L25.8590643,101.635878 L24.9730643,102.125878 L24.0860643,102.616878 L23.2000643,103.107878 L22.3140643,103.598878 L21.4320643,104.094878 L20.5490643,104.591878 L19.6660643,105.087878 L18.7830643,105.584878 L17.9010643,106.080878 L17.0180643,106.577878 L16.1360643,107.073878 L15.2540643,107.569878 L14.3730643,108.069878 L13.4920643,108.568878 L12.6110643,109.067878 L11.7310643,109.567878 L10.8510643,110.068878 L9.97106431,110.569878 L9.09106431,111.070878 L8.21206431,111.571878 L7.33206431,112.073878 L6.45206431,112.574878 L5.57206431,113.075878 L4.69206431,113.576878 L3.81306431,114.077878 L2.93306431,114.578878 L2.05306431,115.079878 C0.0670643148,116.252878 -0.591935685,118.812878 0.581064315,120.798878 C1.75406431,122.784878 4.31506431,123.443878 6.30006431,122.270878 Z" id="Fill-13"></path>
            <path d="M6.95906431,53.3088776 L8.08306431,52.8118776 L9.20806431,52.3148776 L10.2970643,51.8338776 L11.3850643,51.3518776 L12.4370643,50.8858776 L13.4890643,50.4208776 L14.5080643,49.9668776 L15.5270643,49.5108776 L16.5110643,49.0698776 L17.4920643,48.6238776 L18.4410643,48.1928776 L19.3890643,47.7608776 L20.3070643,47.3428776 L21.2250643,46.9228776 L22.9900643,46.0978776 L24.6880643,45.2868776 L26.3210643,44.4768776 L27.8850643,43.6668776 L29.4210643,42.9568776 L30.9180643,42.2928776 L32.3700643,41.6778776 L33.7660643,41.0758776 L35.1140643,40.4898776 L36.4110643,39.9218776 L37.6600643,39.3748776 L38.8680643,38.8468776 L40.0310643,38.3388776 L41.1540643,37.8538776 L42.2400643,37.3868776 L43.2880643,36.9428776 L44.2990643,36.5148776 L45.2760643,36.1028776 L46.2190643,35.7058776 L47.1300643,35.3248776 L48.0120643,34.9568776 L48.8650643,34.6028776 L49.6890643,34.2608776 L50.4880643,33.9278776 L51.2630643,33.6078776 L52.0140643,33.2968776 L52.7450643,32.9938776 L53.4570643,32.7008776 L54.1470643,32.4178776 L55.4930643,31.8708776 L56.7820643,31.3508776 L58.0330643,30.8518776 L59.2610643,30.3658776 L60.4770643,29.8918776 L61.6950643,29.4278776 L62.9520643,28.9638776 L64.2040643,28.5008776 L65.5430643,28.0248776 L66.8890643,27.5568776 L68.3800643,27.0548776 L69.8790643,26.5518776 L70.6740643,26.2898776 L71.5020643,26.0238776 L72.3580643,25.7488776 L73.2420643,25.4678776 L74.1580643,25.1798776 L75.1070643,24.8818776 L76.0880643,24.5758776 L77.1060643,24.2598776 L78.1600643,23.9248776 L79.2470643,23.5708776 L80.3750643,23.1978776 L81.5400643,22.7958776 L82.7470643,22.3828776 L84.0030643,21.9658776 L85.3080643,21.5348776 L86.6590643,21.0948776 L88.0630643,20.6408776 L89.5210643,20.1718776 L91.0300643,19.6928776 L92.5960643,19.1978776 L94.2200643,18.6838776 L95.8990643,18.1548776 L97.6410643,17.6088776 L99.4470643,17.0448776 L101.311064,16.4608776 L102.277064,16.1588776 L103.242064,15.8558776 L104.242064,15.5418776 L105.241064,15.2278776 L106.273064,14.9038776 L107.304064,14.5798776 L108.372064,14.2458776 L109.440064,13.9118776 L110.545064,13.5678776 L111.650064,13.2238776 L112.789064,12.8688776 L113.928064,12.5138776 L115.106064,12.1458776 L116.283064,11.7778776 L117.500064,11.3968776 L118.716064,11.0168776 L119.969064,10.6238776 L121.222064,10.2308776 L122.516064,9.8248776 L123.810064,9.4188776 L125.145064,8.9988776 L126.480064,8.5788776 C127.689064,8.1968776 128.359064,6.9078776 127.977064,5.6998776 C127.595064,4.4918776 126.306064,3.8218776 125.098064,4.2038776 L123.764064,4.6268776 L122.431064,5.0498776 L121.139064,5.4588776 L119.847064,5.8688776 L118.597064,6.2638776 L117.346064,6.6598776 L116.131064,7.0438776 L114.916064,7.4268776 L113.741064,7.7978776 L112.566064,8.1678776 L111.428064,8.5258776 L110.291064,8.8838776 L109.188064,9.2298776 L108.085064,9.5768776 L107.018064,9.9098776 L105.951064,10.2418776 L104.919064,10.5618776 L103.887064,10.8808776 L102.887064,11.1888776 L101.887064,11.4968776 L100.921064,11.7948776 L99.9550643,12.0918776 L98.0890643,12.6658776 L96.2830643,13.2198776 L94.5390643,13.7518776 L92.8550643,14.2628776 L91.2250643,14.7518776 L89.6530643,15.2228776 L88.1380643,15.6748776 L86.6700643,16.1058776 L85.2540643,16.5168776 L83.8890643,16.9108776 L82.5680643,17.2858776 L81.2940643,17.6448776 L80.0630643,17.9788776 L78.8720643,18.2988776 L77.7290643,18.6228776 L76.6290643,18.9388776 L75.5670643,19.2548776 L74.5460643,19.5658776 L73.5600643,19.8668776 L72.6040643,20.1568776 L71.6820643,20.4378776 L70.7890643,20.7088776 L69.9230643,20.9718776 L69.0840643,21.2268776 L68.2650643,21.4738776 L66.7450643,21.9348776 L65.2150643,22.3968776 L63.8300643,22.8298776 L62.4380643,23.2548776 L61.1320643,23.6718776 L59.8290643,24.0878776 L58.5460643,24.5108776 L57.2690643,24.9428776 L55.9840643,25.3898776 L54.6810643,25.8588776 L53.3420643,26.3528776 L51.9610643,26.8788776 L51.2450643,27.1548776 L50.5150643,27.4388776 L49.7670643,27.7318776 L49.0000643,28.0338776 L48.2120643,28.3498776 L47.4010643,28.6768776 L46.5660643,29.0148776 L45.7050643,29.3678776 L44.8150643,29.7328776 L43.8970643,30.1098776 L42.9460643,30.4998776 L41.9610643,30.9048776 L40.9430643,31.3228776 L39.8870643,31.7578776 L38.7900643,32.2028776 L37.6550643,32.6628776 L36.4760643,33.1358776 L35.2520643,33.6258776 L33.9860643,34.1328776 L32.6710643,34.6588776 L31.3090643,35.2088776 L29.9010643,35.7798776 L28.4450643,36.3818776 L26.9220643,36.9798776 L25.3390643,37.5738776 L23.6660643,38.1168776 L21.9430643,38.7068776 L20.1740643,39.3408776 L18.3470643,40.0128776 L17.4040643,40.3668776 L16.4610643,40.7228776 L15.4880643,41.0908776 L14.5150643,41.4588776 L13.5080643,41.8388776 L12.5020643,42.2228776 L11.4620643,42.6218776 L10.4220643,43.0218776 L9.35006431,43.4368776 L8.27806431,43.8508776 L7.17006431,44.2788776 L6.06106431,44.7068776 L4.91506431,45.1488776 L3.76806431,45.5908776 C1.63706431,46.4718776 0.623064315,48.9138776 1.50406431,51.0448776 C2.38506431,53.1768776 4.82706431,54.1898776 6.95906431,53.3088776 Z" id="Fill-14"></path>
            <path d="M139.490064,36.4578776 L141.121064,35.8358776 L142.746064,35.2358776 L144.382064,34.6308776 L146.015064,33.9788776 L147.668064,33.3648776 L149.361064,32.8738776 L151.064064,32.3798776 L152.777064,31.9118776 L154.497064,31.4608776 L156.219064,30.9878776 L157.931064,30.4788776 L159.646064,29.9578776 L161.361064,29.4448776 L163.089064,28.9598776 L164.798064,28.4188776 L166.501064,27.8388776 L168.198064,27.2568776 L169.897064,26.6968776 L171.597064,26.1068776 L173.284064,25.4888776 L174.961064,24.8428776 L176.627064,24.1668776 L178.282064,23.4478776 L179.902064,22.6928776 C180.619064,22.3568776 180.928064,21.5028776 180.591064,20.7858776 C180.255064,20.0688776 179.401064,19.7598776 178.684064,20.0958776 L177.102064,20.8428776 L175.517064,21.5408776 L173.913064,22.2008776 L172.290064,22.8248776 L170.650064,23.4078776 L168.998064,23.9598776 L167.316064,24.4688776 L165.631064,24.9568776 L163.918064,25.3598776 L162.211064,25.8018776 L160.500064,26.2408776 L158.775064,26.6528776 L157.038064,27.0238776 L155.300064,27.4058776 L153.567064,27.8138776 L151.833064,28.2428776 L150.100064,28.6708776 L148.358064,29.0718776 L146.617064,29.5008776 L144.848064,29.8318776 L143.073064,30.1558776 L141.318064,30.5618776 L139.571064,31.0178776 L137.853064,31.5008776 C136.484064,31.9528776 135.741064,33.4288776 136.193064,34.7978776 C136.645064,36.1668776 138.121064,36.9098776 139.490064,36.4578776 Z" id="Fill-157"></path>
            <path d="M147.788064,48.1838776 L149.142064,47.1798776 L150.476064,46.1788776 L151.802064,45.1818776 L153.097064,44.1208776 L154.419064,43.1158776 L155.800064,42.1898776 L157.172064,41.2628776 L158.564064,40.3568776 L159.953064,39.4558776 L161.335064,38.5348776 L162.688064,37.5758776 L164.038064,36.6078776 L165.386064,35.6418776 L166.756064,34.6978776 L168.091064,33.7058776 L169.404064,32.6768776 L170.717064,31.6448776 L172.038064,30.6328776 L173.358064,29.5918776 L174.661064,28.5278776 L175.954064,27.4408776 L177.235064,26.3288776 L178.500064,25.1818776 L179.735064,24.0098776 C180.308064,23.4628776 180.329064,22.5558776 179.782064,21.9828776 C179.235064,21.4098776 178.328064,21.3878776 177.755064,21.9348776 L176.550064,23.0908776 L175.338064,24.2008776 L174.105064,25.2818776 L172.853064,26.3328776 L171.580064,27.3508776 L170.292064,28.3408776 L168.969064,29.2968776 L167.637064,30.2338776 L166.257064,31.0968776 L164.899064,31.9958776 L163.536064,32.8878776 L162.152064,33.7578776 L160.741064,34.5888776 L159.332064,35.4288776 L157.929064,36.2848776 L156.532064,37.1608776 L155.123064,38.0298776 L153.695064,38.8778776 L152.269064,39.7398776 L150.784064,40.5238776 L149.272064,41.2818776 L147.792064,42.1058776 L146.329064,42.9768776 L144.885064,43.8458776 C143.687064,44.6468776 143.366064,46.2688776 144.168064,47.4658776 C144.969064,48.6638776 146.590064,48.9858776 147.788064,48.1838776 Z" id="Fill-158"></path>
            <path d="M96.1100643,11.1058776 L97.8610643,10.8798776 L99.6150643,10.6458776 L101.381064,10.3808776 L103.146064,10.0548776 L104.922064,9.7298776 L106.710064,9.5268776 L108.502064,9.2928776 L110.301064,9.0858776 L112.103064,8.8628776 L113.906064,8.6198776 L115.701064,8.3138776 L117.495064,7.9958776 L119.286064,7.6668776 L121.084064,7.3688776 L122.867064,6.9988776 L124.644064,6.5898776 L126.412064,6.1718776 L128.178064,5.7748776 L129.946064,5.3498776 L131.700064,4.8948776 L133.444064,4.4158776 L135.180064,3.9088776 L136.904064,3.3668776 L138.598064,2.7908776 C139.347064,2.5348776 139.747064,1.7188776 139.490064,0.969877599 C139.234064,0.220877599 138.418064,-0.179122401 137.669064,0.0778775992 L136.008064,0.650877599 L134.346064,1.1828776 L132.667064,1.6818776 L130.974064,2.1458776 L129.266064,2.5708776 L127.550064,2.9648776 L125.807064,3.3108776 L124.065064,3.6348776 L122.301064,3.8658776 L120.542064,4.1358776 L118.778064,4.3878776 L117.006064,4.6108776 L115.225064,4.7738776 L113.445064,4.9498776 L111.667064,5.1238776 L109.888064,5.3188776 L108.111064,5.4788776 L106.326064,5.6118776 L104.549064,5.7428776 L102.759064,5.7498776 L100.979064,5.7308776 L99.1990643,5.7728776 L97.4380643,5.8348776 L95.6730643,5.9038776 C94.2370643,6.0248776 93.1700643,7.2868776 93.2910643,8.7238776 C93.4120643,10.1598776 94.6740643,11.2268776 96.1100643,11.1058776 Z" id="Fill-159"></path>
            <path d="M100.761064,23.4818776 L102.052064,22.7878776 L103.384064,22.0898776 L104.763064,21.3618776 L106.168064,20.5828776 L107.595064,19.7488776 L109.122064,19.0568776 L110.667064,18.3358776 L112.244064,17.6288776 L113.842064,16.9198776 L115.440064,16.1808776 L117.028064,15.3948776 L118.612064,14.5808776 L120.181064,13.7728776 L121.774064,12.9878776 L123.296064,12.1188776 L124.822064,11.2428776 L126.292064,10.3598776 L127.765064,9.4928776 L129.200064,8.5918776 L130.580064,7.6668776 L131.909064,6.7198776 L133.183064,5.7438776 L134.393064,4.7308776 L135.502064,3.7068776 C136.083064,3.1678776 136.116064,2.2608776 135.577064,1.6798776 C135.038064,1.0998776 134.131064,1.0668776 133.550064,1.6058776 L132.499064,2.5878776 L131.395064,3.5208776 L130.214064,4.4348776 L128.969064,5.3278776 L127.657064,6.1898776 L126.294064,7.0268776 L124.845064,7.8348776 L123.395064,8.6248776 L121.855064,9.3378776 L120.313064,10.0578776 L118.749064,10.7868776 L117.162064,11.4928776 L115.553064,12.1468776 L113.937064,12.7978776 L112.333064,13.4678776 L110.739064,14.1458776 L109.149064,14.8018776 L107.563064,15.4228776 L106.003064,16.0568776 L104.403064,16.5328776 L102.854064,17.0508776 L101.354064,17.6088776 L99.9040643,18.1888776 L98.5200643,18.7668776 C97.2180643,19.3858776 96.6640643,20.9428776 97.2830643,22.2448776 C97.9020643,23.5468776 99.4590643,24.1008776 100.761064,23.4818776 Z" id="Fill-160"></path>
        </g>
    </g>
</svg>
