<?xml version="1.0" encoding="UTF-8"?>
<svg width="342px" height="126px" viewBox="0 0 342 126" version="1.1" xmlns="http://www.w3.org/2000/svg" xmlns:xlink="http://www.w3.org/1999/xlink">
    <title>251</title>
    <g id="Page-1" stroke="none" stroke-width="1" fill="none" fill-rule="evenodd">
        <g id="251" transform="translate(0.491160, 0.877994)" fill="currentColor">
            <path d="M8.00542535,122.0251 L8.23902535,121.47835 L8.50312535,120.89668 L8.81812535,120.23469 L9.17662535,119.50679 L9.57992535,118.71321 L10.0283254,117.85371 L10.5159254,116.93818 L11.0445254,115.96528 L11.6142254,114.93477 L12.2199254,113.85505 L12.8635254,112.72395 L13.5449254,111.54194 L14.2595254,110.31611 L15.0091254,109.04451 L15.7936254,107.72774 L16.6086254,106.37214 L17.4558254,104.97615 L18.3351254,103.54036 L19.2425254,102.07051 L20.1794254,100.5655 L21.1456254,99.02583 L22.1374254,97.45686 L23.1560254,95.85774 L24.2006254,94.22883 L25.2689254,92.57283 L25.8133254,91.73506 L26.3590254,90.89546 L26.9165254,90.0439 L27.4743254,89.19185 L28.0424254,88.32966 L28.6103254,87.46809 L29.1891254,86.59614 L29.7670254,85.72371 L30.3551254,84.84163 L30.9435254,83.95906 L31.5412254,83.06868 L32.1384254,82.17878 L32.7453254,81.28096 L33.3521254,80.38337 L33.9682254,79.47871 L34.5846254,78.57368 L35.2089254,77.66304 L35.8329254,76.753 L36.4652254,75.83748 L37.0975254,74.92219 L37.7377254,74.00239 L38.3763254,73.08479 L39.0250254,72.16243 L39.6792254,71.2325 L40.3333254,70.30256 L40.9792254,69.38411 L41.6373254,68.46052 L42.3026254,67.52485 L42.9679254,66.58931 L43.6246254,65.66548 L44.2928254,64.74104 L44.9696254,63.80488 L45.6464254,62.86873 L46.3150254,61.94368 L46.9925254,61.02083 L47.6774254,60.0865 L48.3609254,59.15108 L49.0349254,58.2281 L49.7171254,57.31087 L50.4087254,56.38118 L51.1004254,55.45161 L51.7821254,54.53499 L52.4700254,53.62776 L53.1680254,52.70747 L53.8646254,51.78608 L54.5465254,50.873 L55.2326254,49.97127 L55.9285254,49.05732 L56.6244254,48.14338 L57.3091254,47.24336 L57.9969254,46.3592 L58.6960254,45.46089 L59.3951254,44.5627 L60.0823254,43.67903 L60.7800254,42.82271 L61.4902254,41.95173 L62.2004254,41.08088 L62.8988254,40.22407 L63.5965254,39.388 L64.3063254,38.5375 L65.0161254,37.6871 L65.7117254,36.8532 L66.4048254,36.0451 L67.1153254,35.2229 L67.8292254,34.4035 L68.5274254,33.6022 L69.2209254,32.8304 L69.9307254,32.0404 L70.6405254,31.2503 L71.3383254,30.4735 L72.0321254,29.7186 L72.7286254,28.9604 L73.4215254,28.2194 L74.1134254,27.4782 L74.8004254,26.7542 L75.4846254,26.033 L76.8535254,24.6159 L78.2072254,23.2432 L79.5502254,21.9115 L80.8812254,20.6192 L82.1962254,19.3726 L83.4973254,18.1716 L84.7834254,17.015 L86.0506254,15.9104 L87.3007254,14.8565 L88.5326254,13.852 L89.7410254,12.905 L90.9288254,12.0139 L92.0941254,11.1768 L93.2305254,10.4027 L94.3421254,9.6892 L95.4260254,9.0343 L96.4738254,8.4473 L97.4918254,7.9254 L98.4757254,7.4663 L99.4137254,7.0784 L100.315225,6.7573 L101.173825,6.4986 L101.975025,6.3099 L102.733825,6.1854 L103.442825,6.1176 L104.086625,6.1098 L104.690925,6.158 L105.250925,6.2519 L105.755925,6.3933 L106.242925,6.5896 L106.710325,6.8332 L107.151425,7.1298 L107.628225,7.5344 L108.150725,8.039 L108.674425,8.5891 L109.178425,9.1657 L109.662125,9.7626 L110.120425,10.3776 L110.560825,11.0196 L110.982725,11.6822 L111.382025,12.3631 L111.764225,13.0706 L112.129425,13.7984 L112.474125,14.5443 L112.802425,15.3154 L113.114825,16.106 L113.408625,16.9138 L113.686725,17.7452 L113.950025,18.5948 L114.196425,19.4603 L114.421625,20.3208 L114.854825,22.189 L115.032625,23.1103 L115.216325,24.0557 L115.372925,25.0258 L115.531625,26.0051 L115.668025,27.0046 L115.805125,28.0056 L115.920525,29.0266 L116.036825,30.0532 L116.134925,31.0971 L116.234325,32.1479 L116.319425,33.2122 L116.404925,34.279 L116.477525,35.3586 L116.550525,36.4429 L116.613925,37.5375 L116.677525,38.6345 L116.733125,39.7413 L116.789425,40.85933 L116.846425,41.97749 L116.903625,43.09248 L116.958925,44.21419 L117.014425,45.33882 L117.069825,46.46358 L117.126025,47.60347 L117.193725,48.73994 L117.260525,49.86091 L117.327325,50.98201 L117.395425,52.12275 L117.478525,53.25593 L117.561725,54.38923 L117.659425,55.51423 L117.757825,56.64399 L117.874025,57.76277 L117.990725,58.88325 L118.126425,59.9919 L118.263225,61.10762 L118.424025,62.2082 L118.587125,63.31379 L118.778325,64.40169 L118.970125,65.49006 L119.189525,66.56038 L119.411625,67.6396 L119.667325,68.69673 L119.925425,69.7596 L120.220825,70.79768 L120.512825,71.82051 L120.842225,72.8575 L121.191625,73.87202 L121.564225,74.87105 L121.959425,75.85847 L122.381625,76.83552 L122.828925,77.79463 L123.301525,78.73994 L123.804625,79.67293 L124.335225,80.58516 L124.893725,81.48115 L125.486025,82.36201 L126.107825,83.21907 L126.759825,84.05708 L127.448525,84.87678 L128.168325,85.66951 L128.919925,86.44014 L129.710525,87.18892 L130.533125,87.90779 L131.388725,88.60139 L132.284725,89.26985 L133.213325,89.90571 L134.175625,90.51399 L135.179225,91.09382 L136.215925,91.63948 L137.286925,92.15547 L138.400025,92.64045 L139.546925,93.09016 L140.728825,93.50886 L141.953725,93.89473 L143.221725,94.24666 L144.829925,94.63691 L146.425125,94.9593 L147.989525,95.21187 L149.531125,95.40083 L151.052925,95.52144 L152.544225,95.5738 L154.012725,95.56514 L155.461425,95.49067 L156.879025,95.35212 L158.273125,95.1562 L159.646825,94.89778 L160.988825,94.58064 L162.306625,94.21016 L163.603125,93.78145 L164.868125,93.3 L166.108825,92.77046 L167.328025,92.18782 L168.516925,91.55891 L169.683425,90.88887 L170.828925,90.17134 L171.946625,89.41316 L173.042625,88.61738 L174.118925,87.77962 L175.170425,86.90645 L176.202325,86.00056 L177.216325,85.05781 L178.209125,84.08516 L179.184925,83.08418 L180.144825,82.0511 L181.086125,80.99165 L182.012425,79.90779 L182.925025,78.79646 L183.821725,77.66267 L184.705925,76.50837 L185.578825,75.33149 L186.443025,74.12971 L187.283025,72.91585 L188.126825,71.696 L188.953525,70.44002 L189.777025,69.18831 L190.586225,67.9062 L191.388125,66.62691 L192.178325,65.32441 L192.967125,64.024 L193.746125,62.70369 L194.522825,61.38728 L195.292325,60.05696 L196.060325,58.7292 L196.818025,57.38911 L197.570825,56.05537 L198.323625,54.72175 L199.075925,53.38899 L199.827725,52.05952 L200.580025,50.7292 L201.332325,49.399 L202.079025,48.08613 L202.835625,46.80061 L203.601425,45.49959 L204.367225,44.19856 L205.122325,42.91548 L205.888925,41.66304 L206.655725,40.40999 L207.435525,39.1872 L208.212925,37.9685 L209.004125,36.785 L209.794225,35.6026 L210.598725,34.4571 L211.398825,33.3172 L212.216825,32.2231 L213.031525,31.1334 L213.867025,30.0957 L214.708525,29.0494 L215.548825,28.0604 L216.403625,27.0968 L217.269825,26.164 L218.145125,25.2624 L219.029025,24.3979 L219.926625,23.5688 L220.834525,22.7745 L221.751425,22.0211 L222.682925,21.3054 L223.625425,20.6268 L224.577425,19.9923 L225.546325,19.3983 L226.527425,18.8439 L227.519325,18.3361 L228.530625,17.8715 L229.556425,17.4488 L230.595125,17.0745 L231.656725,16.7467 L232.736025,16.4627 L233.831225,16.2297 L234.953525,16.0466 L236.097225,15.9105 L237.260725,15.8286 L238.476125,15.8018 L239.163925,15.8099 L239.834225,15.8366 L240.474025,15.8817 L241.083525,15.9422 L241.657025,16.0189 L242.202425,16.1116 L242.719525,16.2177 L243.202625,16.3367 L243.660925,16.4699 L244.093625,16.614 L244.495225,16.7679 L244.875925,16.9344 L245.234825,17.1098 L245.566825,17.2928 L245.882125,17.488 L246.180025,17.6914 L246.455925,17.9011 L246.719425,18.1235 L246.969625,18.3547 L247.202325,18.5925 L247.425925,18.8444 L247.639225,19.1064 L247.838525,19.3761 L248.007325,19.6247 L248.389425,20.2668 L248.707625,20.9133 L248.995425,21.6149 L249.255325,22.3604 L249.484225,23.1452 L249.688225,23.9748 L249.871425,24.8387 L250.034225,25.7324 L250.182325,26.6563 L250.320525,27.6033 L250.452125,28.5698 L250.586225,29.5766 L250.882825,31.5438 L251.197625,33.6118 L251.701725,35.5749 L252.256525,37.665 L253.212525,39.5244 L254.126325,41.26021 L254.913425,42.28816 L255.695125,43.11628 L256.525125,43.84541 L257.031125,44.23445 L257.526525,44.57698 L258.041625,44.89778 L258.578225,45.20064 L259.142625,45.48555 L259.726325,45.74775 L260.331325,45.99067 L260.964025,46.21406 L261.616425,46.41462 L262.290625,46.59553 L262.993025,46.75581 L263.716525,46.89363 L264.463025,47.01155 L265.238825,47.10811 L266.038025,47.18245 L266.861825,47.23665 L267.716525,47.26887 L268.606125,47.27852 L269.658725,47.25972 L270.711125,47.20222 L271.746025,47.10737 L272.768425,46.97932 L273.780425,46.81563 L274.775025,46.61897 L275.756725,46.3929 L276.727725,46.13508 L277.681525,45.84871 L278.622525,45.53682 L279.552625,45.19722 L280.466225,44.83357 L281.367525,44.44832 L282.258225,44.03962 L283.133525,43.61091 L283.997025,43.16438 L284.850125,42.69819 L285.706525,42.20564 L287.333125,41.21016 L288.935625,40.14815 L290.492325,39.045 L292.011225,37.9116 L293.492925,36.7525 L294.936325,35.5808 L296.347425,34.405 L297.725925,33.2329 L299.072325,32.0758 L300.390425,30.9407 L301.678925,29.8388 L302.939725,28.7795 L304.174425,27.7685 L305.379525,26.8203 L306.558625,25.9422 L307.710325,25.1381 L308.827625,24.4254 L309.945325,23.7924 L310.450225,23.5339 L310.970025,23.289 L311.483825,23.07 L311.988325,22.8764 L312.478625,22.7126 L312.963725,22.5756 L313.439425,22.4644 L313.900425,22.3826 L314.359125,22.3282 L314.810725,22.2991 L315.250325,22.2983 L315.693025,22.3264 L316.134125,22.3804 L316.569425,22.4638 L317.014725,22.5805 L317.465125,22.7275 L317.916425,22.9082 L318.382625,23.13 L318.858125,23.389 L319.339025,23.6886 L319.835825,24.0375 L320.342925,24.4306 L320.857025,24.8713 L321.385225,25.3677 L321.922825,25.9138 L322.467325,26.5129 L323.023425,27.1726 L323.587825,27.8857 L324.158325,28.6564 L324.738625,29.491 L325.326025,30.3824 L325.919425,31.335 L326.521125,32.3544 L327.129325,33.4335 L327.743325,34.5773 L328.365025,35.7906 L328.992925,37.0662 L329.626625,38.4101 L330.267825,39.826 L330.915125,41.3072 L331.568625,42.85994 L332.234225,44.49934 C332.711225,45.67317 334.049625,46.23811 335.223525,45.76106 C336.397425,45.28401 336.962325,43.94563 336.485225,42.77168 L335.807725,41.10628 L335.129825,39.4985 L334.456925,37.9614 L333.787725,36.486 L333.121625,35.076 L332.459625,33.7331 L331.800325,32.4486 L331.142625,31.2252 L330.488025,30.0654 L329.834625,28.9603 L329.181025,27.9123 L328.529125,26.9244 L327.876925,25.9879 L327.221925,25.1043 L326.567125,24.2777 L325.909825,23.4995 L325.246625,22.7706 L324.582025,22.0963 L323.912325,21.468 L323.233325,20.8869 L322.551625,20.3588 L321.862825,19.8762 L321.161925,19.4403 L320.458425,19.0573 L319.748125,18.7204 L319.025225,18.4316 L318.303225,18.1959 L317.577425,18.0067 L316.842825,17.8665 L316.114725,17.7769 L315.388425,17.7319 L314.659025,17.7335 L313.941225,17.7796 L313.229525,17.8648 L312.519225,17.9912 L311.821825,18.1541 L311.131825,18.3494 L310.444825,18.5794 L309.769125,18.8388 L309.099825,19.1246 L308.433025,19.4392 L307.747225,19.7924 L306.471425,20.5173 L305.174725,21.345 L303.888625,22.2438 L302.605525,23.2004 L301.318725,24.2141 L300.028225,25.272 L298.730825,26.3634 L297.422125,27.484 L296.100525,28.6235 L294.765725,29.772 L293.414425,30.9226 L292.043825,32.0661 L290.655625,33.1947 L289.247925,34.2974 L287.815925,35.3674 L286.363425,36.3984 L284.889525,37.3768 L283.368925,38.3081 L282.626825,38.7349 L281.862625,39.1533 L281.089725,39.5535 L280.310725,39.93574 L279.527025,40.29597 L278.733825,40.63508 L277.933925,40.95332 L277.129425,41.2469 L276.314225,41.5168 L275.491925,41.76362 L274.664525,41.98311 L273.825125,42.1761 L272.977625,42.34358 L272.124125,42.48152 L271.257125,42.5898 L270.380525,42.67 L269.496825,42.71785 L268.588125,42.73262 L267.828525,42.72322 L267.098125,42.69478 L266.399325,42.6479 L265.731625,42.58503 L265.100625,42.50569 L264.498825,42.40974 L263.926125,42.3 L263.388425,42.17659 L262.876925,42.03865 L262.392325,41.88899 L261.939825,41.72871 L261.510225,41.55537 L261.104125,41.37251 L260.726725,41.18135 L260.368225,40.97822 L260.029225,40.76668 L259.714725,40.54854 L259.453125,40.34968 L258.859625,39.83149 L258.372625,39.3134 L258.034325,38.9036 L257.258325,37.4084 L256.524425,36.0366 L256.127425,34.434 L255.679425,32.7044 L255.407325,30.8642 L255.117125,28.9232 L254.990525,27.9616 L254.856125,26.9664 L254.711425,25.9659 L254.551625,24.9619 L254.369325,23.9553 L254.158325,22.9545 L253.914125,21.958 L253.625525,20.9657 L253.286825,19.9908 L252.892925,19.0297 L252.427825,18.0837 L251.913625,17.2111 L251.592625,16.731 L251.270125,16.2939 L250.928025,15.872 L250.564525,15.4617 L250.174025,15.062 L249.763425,14.6812 L249.330925,14.3157 L248.870425,13.9648 L248.390625,13.6358 L247.889225,13.3249 L247.360225,13.0319 L246.812625,12.7623 L246.244225,12.5125 L245.648625,12.2828 L245.034425,12.0766 L244.399525,11.8908 L243.737425,11.7263 L243.055725,11.5848 L242.352325,11.4637 L241.620925,11.3643 L240.867925,11.2878 L240.091725,11.2316 L239.285825,11.1978 L238.435825,11.1867 L237.054225,11.2153 L235.671225,11.3084 L234.317325,11.4643 L232.985525,11.6768 L231.673425,11.951 L230.390925,12.283 L229.131125,12.6673 L227.891625,13.1087 L226.681325,13.602 L225.493625,14.1424 L224.326325,14.7347 L223.186725,15.3728 L222.068725,16.0527 L220.970325,16.779 L219.897225,17.5452 L218.844025,18.3485 L217.808925,19.1927 L216.796325,20.0719 L215.801025,20.9827 L214.821225,21.9289 L213.860725,22.9055 L212.915725,23.9102 L211.984925,24.9462 L211.064025,26.0164 L210.175825,27.1058 L209.281425,28.2036 L208.408625,29.3525 L207.539025,30.4971 L206.688525,31.6873 L205.842625,32.8718 L205.011925,34.0928 L204.182325,35.3129 L203.367025,36.5681 L202.554225,37.8193 L201.751425,39.0986 L200.948525,40.37849 L200.157425,41.68879 L199.377125,42.98115 L198.596825,44.27363 L197.807325,45.58162 L197.027225,46.91658 L196.252725,48.23396 L195.478225,49.55147 L194.703225,50.86982 L193.927625,52.19148 L193.152525,53.51228 L192.377525,54.83308 L191.607425,56.14741 L190.836525,57.45466 L190.067225,58.75947 L189.291025,60.05012 L188.517225,61.33674 L187.734225,62.60347 L186.952625,63.86812 L186.161225,65.11018 L185.377225,66.34956 L184.579625,67.55842 L183.785125,68.76301 L182.974625,69.9311 L182.160325,71.10518 L181.345125,72.23579 L180.518925,73.34712 L179.682625,74.43391 L178.838625,75.49605 L177.987125,76.52815 L177.124825,77.53242 L176.253825,78.50837 L175.374725,79.45027 L174.483225,80.36055 L173.582125,81.23897 L172.671825,82.07869 L171.747625,82.8835 L170.813225,83.65352 L169.869825,84.38191 L168.910825,85.07234 L167.940525,85.72517 L166.960725,86.33369 L165.963025,86.90144 L164.951725,87.42793 L163.929625,87.9073 L162.886825,88.34346 L161.828925,88.73762 L160.758125,89.08308 L159.662925,89.38228 L158.549225,89.63728 L157.419425,89.84138 L156.260625,89.99519 L155.079625,90.10164 L153.878325,90.154 L152.643925,90.15132 L151.383525,90.09749 L150.098525,89.98555 L148.777125,89.81294 L147.426425,89.58418 L146.047925,89.29097 L144.622725,88.92817 L143.544925,88.61604 L142.507225,88.27669 L141.508125,87.91023 L140.546725,87.52119 L139.630225,87.10969 L138.748525,86.67268 L137.901225,86.21504 L137.095025,85.73726 L136.319725,85.23494 L135.575225,84.71321 L134.867825,84.17317 L134.187625,83.60896 L133.534825,83.02583 L132.915025,82.42549 L132.319425,81.80098 L131.748125,81.15791 L131.206125,80.498 L130.686225,79.81404 L130.188025,79.1114 L129.716125,78.39253 L129.264525,77.64973 L128.833025,76.88875 L128.425025,76.11177 L128.036225,75.31172 L127.665725,74.49434 L127.316825,73.66157 L126.985825,72.80732 L126.671825,71.9366 L126.376625,71.05171 L126.101825,70.16084 L125.842225,69.21907 L125.585925,68.29255 L125.364325,67.34053 L125.140425,66.38289 L124.948225,65.4023 L124.753525,64.41279 L124.585225,63.40449 L124.416325,62.39546 L124.273125,61.36824 L124.127625,60.33589 L124.005325,59.28779 L123.881825,58.2325 L123.776825,57.16487 L123.671425,56.09566 L123.583625,55.01521 L123.495225,53.93001 L123.421025,52.83613 L123.346825,51.74226 L123.286525,50.64058 L123.224825,49.51924 L123.163225,48.3979 L123.102425,47.29194 L123.052925,46.18245 L123.002625,45.05745 L122.952425,43.93257 L122.902025,42.80464 L122.849725,41.6833 L122.797125,40.56502 L122.743825,39.4467 L122.689825,38.3171 L122.627825,37.1969 L122.565725,36.0743 L122.493725,34.9616 L122.421325,33.8439 L122.335725,32.7386 L122.249925,31.6309 L122.149325,30.5365 L122.047425,29.4351 L121.926025,28.3505 L121.803825,27.2603 L121.658825,26.1893 L121.513325,25.1167 L121.344425,24.0634 L121.173425,23.0011 L120.973625,21.962 L120.767825,20.8988 L120.308625,18.9045 L120.041625,17.8724 L119.760125,16.8754 L119.458225,15.8935 L119.135825,14.9229 L118.788825,13.9621 L118.418525,13.0189 L118.024825,12.0887 L117.602625,11.17 L117.154425,10.2717 L116.679625,9.3886 L116.172525,8.5196 L115.637125,7.6739 L115.072325,6.8465 L114.471625,6.0361 L113.840525,5.2529 L113.177925,4.4914 L112.476425,3.7508 L111.713525,3.0136 L110.832825,2.2717 L109.843225,1.602 L108.809025,1.0559 L107.731325,0.6201 L106.603725,0.2996 L105.465525,0.0983 L104.313125,0 L103.137725,0.0061 L101.967125,0.1091 L100.792625,0.2949 L99.6032254,0.5671 L98.4159254,0.9163 L97.2226254,1.3338 L96.0140254,1.8251 L94.8010254,2.3823 L93.5780254,2.9984 L92.3381254,3.6801 L91.0895254,4.4211 L89.8292254,5.2163 L88.5522254,6.0717 L87.2645254,6.9814 L85.9647254,7.9409 L84.6492254,8.9555 L83.3227254,10.02 L81.9849254,11.1301 L80.6329254,12.2904 L79.2707254,13.4962 L77.8985254,14.7434 L76.5143254,16.0363 L75.1223254,17.3713 L73.7219254,18.7434 L72.3118254,20.1561 L70.8980254,21.6021 L70.1832254,22.3464 L69.4712254,23.0878 L68.7563254,23.8479 L68.0425254,24.6081 L67.3256254,25.3852 L66.6059254,26.1655 L65.8826254,26.9672 L65.1712254,27.7558 L64.4599254,28.5444 L63.7322254,29.3513 L63.0008254,30.1871 L62.2852254,31.005 L61.5660254,31.8197 L60.8295254,32.6488 L60.0909254,33.5032 L59.3664254,34.3413 L58.6420254,35.1792 L57.9054254,36.0314 L57.1684254,36.904 L56.4431254,37.7624 L55.7179254,38.6208 L54.9802254,39.4937 L54.2339254,40.37813 L53.4996254,41.24788 L52.7653254,42.11751 L52.0196254,43.00142 L51.2767254,43.90095 L50.5450254,44.78645 L49.8133254,45.67195 L49.0718254,46.5699 L48.3344254,47.47932 L47.6117254,48.38032 L46.8905254,49.28254 L46.1591254,50.19783 L45.4340254,51.12251 L44.7189254,52.03425 L44.0037254,52.946 L43.2791254,53.87031 L42.5626254,54.80049 L41.8556254,55.71821 L41.1500254,56.63704 L40.4371254,57.56746 L39.7330254,58.50044 L39.0372254,59.42256 L38.3413254,60.34456 L37.6368254,61.27827 L36.9439254,62.21174 L36.2595254,63.1335 L35.5751254,64.05525 L34.8835254,64.98897 L34.2065254,65.91987 L33.5377254,66.83931 L32.8690254,67.75874 L32.1948254,68.68574 L31.5307254,69.60847 L30.8681254,70.52888 L30.2135254,71.44514 L29.5590254,72.36128 L28.9130254,73.27229 L28.2673254,74.18269 L27.6297254,75.08772 L26.9918254,75.99324 L26.3632254,76.89192 L25.7347254,77.7906 L25.1160254,78.68171 L24.4976254,79.57234 L23.8884254,80.45527 L23.2790254,81.3387 L22.6805254,82.21321 L22.0829254,83.08809 L21.4964254,83.95308 L20.9102254,84.81746 L20.3345254,85.67207 L19.7585254,86.52705 L19.1943254,87.37056 L18.6290254,88.21577 L17.5272254,89.8752 L16.4480254,91.51277 L15.3956254,93.12324 L14.3710254,94.70332 L13.3720254,96.25483 L12.4016254,97.77412 L11.4615254,99.25825 L10.5494254,100.70955 L9.66832535,102.12385 L8.82022535,103.49837 L8.00212535,104.83577 L7.21772535,106.13191 L6.46852535,107.3835 L5.75172535,108.59407 L5.07072535,109.75935 L4.42742535,110.87568 L3.81842535,111.94758 L3.24702535,112.97066 L2.71552535,113.94124 L2.21992535,114.86494 L1.76322535,115.73848 L1.34772535,116.55781 L0.968725353,117.33125 L0.628025353,118.05891 L0.348025353,118.69197 C-0.572374647,120.80647 0.395725353,123.2668 2.51022535,124.18721 C4.62472535,125.10762 7.08502535,124.1396 8.00542535,122.0251 Z" id="Fill-12"></path>
            <path d="M328.692625,25.0026 L329.088125,26.3341 L329.488225,27.6513 L329.899225,28.9659 L330.377225,30.272 L330.813625,31.5874 L331.144325,32.9304 L331.484625,34.2705 L331.797725,35.6202 L332.105825,36.9699 L332.434125,38.3195 L332.802425,39.659 L333.181325,40.99812 L333.549125,42.33858 L333.888325,43.68953 L334.271525,45.02888 L334.696425,46.36018 L335.104925,47.69478 L335.493025,49.03547 L335.897625,50.37227 L336.302225,51.71333 L336.736125,53.04744 L337.166525,54.3863 L337.639925,55.71467 L338.105925,57.02192 C338.374525,57.76777 339.196925,58.15474 339.942725,57.88618 C340.688625,57.61763 341.075625,56.79524 340.807025,56.04939 L340.332725,54.74519 L339.865925,53.46211 L339.441525,52.1689 L339.020725,50.87117 L338.643925,49.56233 L338.267025,48.24922 L337.930425,46.9261 L337.614125,45.59663 L337.366025,44.25093 L337.076225,42.91304 L336.781625,41.57637 L336.515625,40.22908 L336.286725,38.8731 L336.047125,37.5174 L335.785525,36.166 L335.503325,34.8148 L335.231725,33.4602 L334.987225,32.096 L334.728325,30.734 L334.575025,29.3442 L334.447125,27.9467 L334.252325,26.5577 L334.017925,25.1754 L333.778925,23.8072 C333.448825,22.4027 332.042625,21.5317 330.638125,21.8618 C329.233625,22.1918 328.362525,23.5981 328.692625,25.0026 Z" id="Fill-119"></path>
            <path d="M319.117525,31.0828 L319.921625,32.1198 L320.717225,33.13 L321.508725,34.1397 L322.363625,35.1206 L323.167025,36.1331 L323.885625,37.2083 L324.602825,38.2821 L325.298125,39.375 L325.980925,40.47322 L326.684325,41.56624 L327.416225,42.63997 L328.161725,43.71638 L328.899825,44.79536 L329.606625,45.88069 L330.334225,46.95283 L331.113825,48.02681 L331.899025,49.09614 L332.650225,50.15339 L333.391125,51.21773 L334.157325,52.32026 L334.991225,53.38423 L335.793425,54.41511 L336.595625,55.446 L337.397825,56.47688 C337.886825,57.10078 338.789025,57.21028 339.413025,56.72139 C340.037025,56.23237 340.146425,55.33015 339.657525,54.70613 L338.848425,53.68074 L338.039225,52.65523 L337.230225,51.62983 L336.452725,50.6374 L335.753725,49.60005 L335.029325,48.52437 L334.315425,47.4416 L333.635325,46.37092 L333.035425,45.25288 L332.383525,44.13301 L331.710625,43.02632 L331.069325,41.91316 L330.463325,40.77803 L329.843725,39.6401 L329.198825,38.5162 L328.533425,37.3975 L327.868525,36.2761 L327.225625,35.1355 L326.561225,34.005 L325.981625,32.812 L325.415125,31.6036 L324.785425,30.424 L324.106325,29.2692 L323.435625,28.1413 C322.623325,26.9489 320.998225,26.6407 319.805825,27.4531 C318.613425,28.2653 318.305225,29.8905 319.117525,31.0828 Z" id="Fill-120"></path>
            <path d="M331.010225,44.26558 L332.033725,45.13789 L332.744325,46.10823 L333.153625,47.1728 C333.390425,47.92927 334.195625,48.35066 334.952225,48.11384 C335.708725,47.87703 336.130125,47.07173 335.893225,46.31526 L335.622525,45.20735 L335.653025,44.00508 L335.996525,42.70491 C335.565525,41.32795 334.099925,40.56111 332.723025,40.99214 C331.346125,41.42305 330.579325,42.88875 331.010225,44.26558 Z" id="Fill-121"></path>
            <path d="M331.810425,48.3669 L333.012725,48.68184 L333.964325,49.20833 L334.674525,49.93818 C335.185425,50.54426 336.091025,50.62141 336.697125,50.11043 C337.303225,49.59944 337.380325,48.69392 336.869425,48.08784 L336.270125,47.26448 L335.912225,46.2375 L335.805025,44.99922 C334.875125,43.89619 333.227025,43.75581 332.123925,44.68574 C331.020825,45.61567 330.880425,47.26375 331.810425,48.3669 Z" id="Fill-122"></path>
        </g>
    </g>
</svg>
