<?xml version="1.0" encoding="UTF-8"?>
<svg width="284px" height="227px" viewBox="0 0 284 227" version="1.1" xmlns="http://www.w3.org/2000/svg" xmlns:xlink="http://www.w3.org/1999/xlink">
    <title>252</title>
    <g id="Page-1" stroke="none" stroke-width="1" fill="none" fill-rule="evenodd">
        <g id="252" transform="translate(0.742712, 0.865830)" fill="currentColor">
            <path d="M0.0538330845,145.380863 L0.249753084,146.566863 L0.451053084,147.785863 L0.668353084,148.983863 L0.885923084,150.181863 L1.11928308,151.358863 L1.35232308,152.532863 L1.59954308,153.687363 L1.84768308,154.845263 L2.11128308,155.982463 L2.37518308,157.119563 L2.65435308,158.236063 L2.93304308,159.349363 L3.22541308,160.443863 L3.51893308,161.541663 L3.82739308,162.618863 L4.13618308,163.696063 L4.45970308,164.752863 L4.78256308,165.806463 L5.11862308,166.841463 L5.45607308,167.879763 L5.80793308,168.897863 L6.16014308,169.915863 L6.52656308,170.913863 L6.89211308,171.908363 L7.27037308,172.884663 L7.65524308,173.876763 L8.43824308,175.783463 L9.25281308,177.659363 L10.0926531,179.499163 L10.9614731,181.302663 L11.8555831,183.063363 L12.7739931,184.788163 L13.7205531,186.477263 L14.6910331,188.123763 L15.6847731,189.734863 L16.7058231,191.310463 L17.7498931,192.843463 L18.8163331,194.341063 L19.9091131,195.803563 L21.0228131,197.224163 L22.1575231,198.609863 L23.3175631,199.960563 L24.4969731,201.269963 L25.6961631,202.544663 L26.9195831,203.784563 L28.1610731,204.983263 L29.4217131,206.146963 L30.7053331,207.275963 L32.0050131,208.364763 L33.3218331,209.419563 L34.6603331,210.439863 L36.0132631,211.420563 L37.3819631,212.367763 L38.7709931,213.280663 L40.1728331,214.154863 L41.5890631,214.995963 L43.0242031,215.803063 L44.4705931,216.572363 L45.9299931,217.309063 L47.4068531,218.012263 L48.8934431,218.678463 L50.3917031,219.312863 L51.9059531,219.913963 L53.4285031,220.479263 L54.9613931,221.013363 L56.5088131,221.514663 L58.0638231,221.978963 L59.6278431,222.412663 L61.2048531,222.814163 L62.7874531,223.181763 L64.3777931,223.519663 L65.9796931,223.825863 L67.5859831,224.099263 L69.1988431,224.343763 L70.8218631,224.557263 L72.4481331,224.738963 L74.0799731,224.890763 L75.7206731,225.011363 L77.3633731,225.101163 L79.0103731,225.163563 L80.6647731,225.196163 L82.3201731,225.199063 L83.9786731,225.175263 L85.6433731,225.122363 L87.3079731,225.040763 L88.9748731,224.933163 L90.6460731,224.792363 L92.3158731,224.620863 L93.9865731,224.424163 L95.6604731,224.199663 L97.3322731,223.948263 L99.0038731,223.672363 L100.677573,223.369363 L102.348173,223.040363 L104.017573,222.687463 L105.687773,222.308263 L107.356473,221.914463 L109.023673,221.498963 L110.690773,221.057663 L112.353173,220.591963 L114.012873,220.103663 L115.671173,219.590263 L117.323873,219.053263 L118.972673,218.494263 L120.618973,217.910863 L122.259873,217.307863 L123.897873,216.688463 L125.532373,216.045063 L127.168173,215.375763 L128.776273,214.683863 L130.396173,213.986363 L132.003073,213.244563 L133.609373,212.502463 L135.200873,211.716963 L136.788473,210.932463 L138.360273,210.107663 L139.934973,209.280663 L141.491773,208.412163 L143.048273,207.543163 L144.585173,206.633563 L146.118473,205.725463 L147.632773,204.781163 L149.149973,203.834463 L150.644473,202.848863 L152.138273,201.861963 L153.607873,200.837063 L155.074073,199.813763 L156.516973,198.756763 L157.962673,197.697063 L159.381073,196.601063 L160.799373,195.504463 L162.188673,194.372563 L163.574973,193.242363 L164.933673,192.080763 L166.294973,190.916363 L167.624473,189.718063 L168.953773,188.519163 L170.249573,187.287463 L171.535573,186.064263 L172.812773,184.804663 L174.066573,183.534163 L175.300673,182.249063 L176.518273,180.950263 L177.718373,179.634763 L178.897573,178.305363 L180.058673,176.962263 L181.200773,175.602663 L182.320773,174.229963 L183.421573,172.844063 L184.502173,171.442263 L185.559573,170.028063 L186.597373,168.601563 L187.614373,167.160263 L188.607173,165.707263 L189.578573,164.242063 L190.527273,162.761963 L191.450473,161.270763 L192.351173,159.768063 L193.227873,158.250863 L194.077873,156.723363 L194.904273,155.184863 L195.705473,153.632463 L196.478873,152.070863 L197.227573,150.497863 L197.949573,148.912863 L198.642573,147.317863 L199.309673,145.712863 L199.948773,144.095863 L200.557673,142.470863 L201.139473,140.835863 L201.692373,139.188863 L202.213973,137.534863 L202.707373,135.871863 L203.170173,134.197863 L203.600273,132.516863 L204.001073,130.827863 L204.369673,129.127863 L204.704673,127.421863 L205.009073,125.708863 L205.279773,123.984863 L205.515073,122.255863 L205.718573,120.520863 L205.887073,118.775863 L206.019673,117.026863 L206.119373,115.272863 L206.182673,113.508863 L206.208973,111.741863 L206.201273,109.969863 L206.155773,108.188863 L206.071473,106.406863 L205.951573,104.619863 L205.792673,102.825863 L205.594573,101.030863 L205.360373,99.2318634 L205.085573,97.4258634 L204.770773,95.6198634 L204.418773,93.8118634 L204.024973,91.9968634 L203.589873,90.1838634 L203.116373,88.3678634 L202.599873,86.5468634 L202.041373,84.7278634 L201.443673,82.9068634 L200.801773,81.0828634 L200.121273,79.2718634 L199.738773,78.2998634 L199.357073,77.3318634 L198.589673,75.4618634 L197.807273,73.6358634 L197.014573,71.8538634 L196.209973,70.1168634 L195.395373,68.4288634 L194.571073,66.7838634 L193.735273,65.1818634 L192.890273,63.6288634 L192.035973,62.1158634 L191.170273,60.6468634 L190.295273,59.2248634 L189.411473,57.8428634 L188.516873,56.5038634 L187.614673,55.2098634 L186.704173,53.9548634 L185.783173,52.7418634 L184.855273,51.5728634 L183.919573,50.4428634 L182.973573,49.3518634 L182.021573,48.3058634 L181.062273,47.2968634 L180.092973,46.3268634 L179.118473,45.4008634 L178.137273,44.5108634 L177.146373,43.6598634 L176.151273,42.8508634 L175.150073,42.0788634 L174.139673,41.3438634 L173.126073,40.6508634 L172.107173,39.9928634 L171.079573,39.3728634 L170.050173,38.7938634 L169.016273,38.2498634 L167.974373,37.7418634 L166.932173,37.2748634 L165.886473,36.8418634 L164.833773,36.4458634 L163.782173,36.0878634 L162.728473,35.7638634 L161.668773,35.4768634 L160.611773,35.2268634 L159.553873,35.0098634 L158.491473,34.8278634 L157.433173,34.6828634 L156.375373,34.5698634 L155.314473,34.4908634 L154.259073,34.4468634 L153.205473,34.4338634 L152.150073,34.4538634 L151.101473,34.5078634 L150.055773,34.5898634 L149.009673,34.7038634 L147.971273,34.8498634 L146.936673,35.0228634 L145.903173,35.2278634 L144.878073,35.4628634 L143.857773,35.7238634 L142.839673,36.0148634 L141.830673,36.3328634 L140.827273,36.6768634 L139.827073,37.0498634 L138.836573,37.4478634 L137.852273,37.8698634 L136.872173,38.3198634 L135.902073,38.7938634 L134.938973,39.2898634 L133.980973,39.8128634 L133.033273,40.3578634 L132.092973,40.9248634 L131.158773,41.5158634 L130.224673,42.1358634 L129.325173,42.7698634 L128.412573,43.4138634 L127.516373,44.1018634 L126.622073,44.7888634 L125.745273,45.5178634 L124.873473,46.2438634 L124.018373,47.0048634 L123.161273,47.7698634 L122.323373,48.5728634 L121.486873,49.3758634 L120.670173,50.2148634 L119.857173,51.0508634 L119.063373,51.9178634 L118.267873,52.7878634 L117.494373,53.6918634 L116.721973,54.5958634 L115.972673,55.5318634 L115.226573,56.4648634 L114.502373,57.4248634 L113.776573,58.3888634 L113.075773,59.3808634 L112.375773,60.3738634 L111.701773,61.3928634 L111.030473,62.4098634 L110.383173,63.4498634 L109.734373,64.4938634 L109.113573,65.5608634 L108.493273,66.6288634 L107.902073,67.7188634 L107.312973,68.8068634 L106.751073,69.9138634 L106.187973,71.0248634 L105.655773,72.1548634 L105.124073,73.2858634 L104.624373,74.4338634 L104.126473,75.5798634 L103.658573,76.7418634 L103.189373,77.9058634 L102.753973,79.0858634 L102.318973,80.2668634 L101.919073,81.4608634 L101.520673,82.6528634 L101.154973,83.8548634 L100.788573,85.0618634 L100.459173,86.2788634 L100.130173,87.4968634 L99.8393731,88.7248634 L99.5497731,89.9488634 L99.2957731,91.1798634 L99.0413731,92.4158634 L98.8283731,93.6578634 L98.6175731,94.9008634 L98.4479731,96.1488634 L98.2794731,97.3928634 L98.1493731,98.6408634 L98.0193731,99.8928634 L97.9326731,101.145863 L97.8466731,102.400863 L97.8050731,103.654863 L97.7643731,104.905863 L97.7648731,106.155863 L97.7661731,107.409863 L97.8138731,108.661863 L97.8632731,109.914863 L97.9628731,111.161863 L98.0619731,112.393863 L98.1965731,113.647863 L98.3554731,114.888863 L98.5394731,116.123863 L98.7467731,117.354863 L98.9803731,118.583863 L99.2397731,119.806863 L99.5231731,121.023863 L99.8339731,122.237863 L100.171273,123.442863 L100.533273,124.641863 L100.923673,125.836863 L101.339273,127.021863 L101.780173,128.200863 L102.250573,129.372863 L102.748473,130.534863 L103.272873,131.687863 L103.827473,132.833863 L104.410373,133.966863 L105.020273,135.090863 L105.661373,136.206863 L106.331173,137.307863 L107.028673,138.398863 L107.758273,139.478863 L108.517073,140.543863 L109.303273,141.597863 L110.122073,142.640863 L110.970673,143.666863 L111.847973,144.679863 L112.758873,145.679863 L113.699973,146.662863 L114.670273,147.630863 L115.674873,148.583863 L116.710073,149.518863 L117.774973,150.437863 L118.874673,151.341863 L120.005373,152.224863 L121.166073,153.092663 L122.361973,153.943063 L123.589373,154.772763 L124.847473,155.584763 L126.141573,156.378063 L127.467673,157.149863 L128.824973,157.902863 L130.218773,158.635963 L131.645173,159.346563 L133.103273,160.037363 L134.598373,160.707063 L136.126273,161.354563 L137.686373,161.981463 L139.284173,162.586163 L140.915873,163.166563 L142.580373,163.725363 L144.283273,164.260663 L146.023673,164.771663 L147.246973,165.099563 L148.476873,165.428763 L149.702773,165.713063 L150.928673,165.996563 L152.150173,166.236063 L153.368073,166.474063 L154.581773,166.672563 L155.798973,166.870963 L157.011273,167.026363 L158.223373,167.181063 L159.430273,167.293463 L160.633273,167.404863 L161.831473,167.478263 L163.032873,167.551363 L164.228573,167.583363 L165.423773,167.614563 L166.613073,167.605463 L167.798373,167.596263 L168.977973,167.550963 L170.160673,167.504963 L171.336873,167.419763 L172.512473,167.334063 L173.681273,167.209763 L174.845973,167.085363 L176.004373,166.926563 L177.165473,166.766863 L178.319373,166.569963 L179.472473,166.372563 L180.617973,166.138663 L181.759573,165.905063 L182.893973,165.638963 L184.030973,165.371863 L185.159973,165.069663 L186.288073,164.767163 L187.407873,164.430163 L188.523973,164.093763 L189.632173,163.726663 L190.742673,163.358263 L191.844273,162.956863 L192.945173,162.555063 L194.036873,162.120863 L195.125173,161.687663 L196.204973,161.225463 L197.286773,160.762063 L198.358973,160.267463 L199.430373,159.772763 L200.492073,159.247563 L201.550473,158.723563 L202.599873,158.172563 L203.650973,157.620163 L204.691773,157.038663 L205.731973,156.457163 L206.761573,155.847163 L207.788373,155.238563 L208.805373,154.604663 L209.824073,153.969463 L210.831773,153.307063 L211.838773,152.644863 L212.834673,151.955863 L213.827973,151.268863 L214.810973,150.557863 L215.795373,149.845863 L216.768173,149.108863 L217.740373,148.370863 L218.700773,147.609863 L219.658973,146.849863 L220.606173,146.067863 L221.554673,145.284863 L222.490873,144.477863 L223.426573,143.671863 L224.349873,142.843863 L225.271173,142.015863 L226.180873,141.168863 L227.091773,140.320863 L227.989673,139.450863 L228.887273,138.581863 L229.771673,137.691863 L230.654273,136.802863 L231.524873,135.896863 L232.396473,134.988863 L233.254473,134.061863 L234.112073,133.134863 L234.955973,132.188863 L235.798273,131.244863 L236.627973,130.283863 L237.458773,129.322863 L238.275373,128.343863 L239.091773,127.364863 L239.893673,126.369863 L240.694273,125.375863 L241.481573,124.367863 L242.269673,123.357863 L243.042973,122.332863 L243.815973,121.306863 L244.573873,120.267863 L245.330573,119.228863 L246.073473,118.177863 L246.817173,117.124863 L247.545573,116.059863 L248.273773,114.993863 L248.986273,113.914863 L249.697573,112.837863 L250.394573,111.749863 L251.092173,110.660863 L251.773573,109.559863 L252.454873,108.458863 L253.119773,107.346863 L253.783673,106.235863 L254.432573,105.115863 L255.082073,103.994863 L255.714773,102.863863 L256.347273,101.732863 L256.962773,100.593863 L257.577273,99.4548634 L258.176273,98.3088634 L258.775673,97.1618634 L259.357773,96.0068634 L259.939673,94.8518634 L260.503773,93.6898634 L261.067173,92.5288634 L261.614273,91.3618634 L262.161873,90.1938634 L262.691473,89.0208634 L263.220773,87.8468634 L263.731773,86.6678634 L264.242073,85.4898634 L264.735473,84.3078634 L265.229273,83.1248634 L265.704373,81.9378634 L266.179273,80.7508634 L266.635173,79.5608634 L267.090373,78.3718634 L267.528173,77.1798634 L267.966273,75.9868634 L268.384973,74.7918634 L268.803573,73.5968634 L269.202373,72.4008634 L269.600673,71.2058634 L269.980773,70.0098634 L270.361273,68.8128634 L270.721573,67.6158634 L271.081873,66.4188634 L271.421673,65.2218634 L271.760973,64.0258634 L272.081473,62.8318634 L272.402373,61.6358634 L272.702373,60.4418634 L273.002373,59.2468634 L273.281173,58.0548634 L273.559473,56.8648634 L273.818373,55.6768634 L274.077673,54.4878634 L274.315273,53.3018634 L274.552873,52.1158634 L274.768573,50.9338634 L274.983973,49.7538634 L275.179273,48.5778634 L275.374773,47.4008634 L275.547973,46.2288634 L275.721073,45.0558634 L275.871673,43.8898634 L276.021873,42.7258634 L276.151473,41.5678634 L276.281073,40.4078634 L276.387773,39.2548634 L276.494273,38.1008634 L276.577673,36.9558634 L276.660573,35.8128634 L276.722273,34.6778634 L276.783873,33.5398634 L276.821773,32.4118634 L276.859473,31.2828634 L276.873173,30.1638634 L276.886673,29.0468634 L276.878173,27.9398634 L276.869373,26.8298634 L276.836273,25.7318634 L276.802773,24.6328634 L276.744573,23.5458634 L276.686173,22.4598634 L276.605173,21.3868634 L276.523673,20.3098634 L276.416973,19.2468634 L276.309873,18.1828634 L276.177273,17.1328634 L276.044673,16.0848634 L275.888673,15.0498634 L275.731873,14.0118634 L275.549073,12.9888634 L275.363573,11.9548634 L274.952873,9.98286338 C274.694373,8.74186338 273.479073,7.94586338 272.238673,8.20486338 C270.998173,8.46286338 270.202273,9.67886338 270.460773,10.9188634 L270.863673,12.8488634 L271.033573,13.7978634 L271.206073,14.7588634 L271.353673,15.7348634 L271.502073,16.7148634 L271.627973,17.7088634 L271.753973,18.6998634 L271.855273,19.7058634 L271.956973,20.7128634 L272.034373,21.7328634 L272.112273,22.7568634 L272.168173,23.7918634 L272.224173,24.8258634 L272.256173,25.8718634 L272.288573,26.9178634 L272.297073,27.9768634 L272.305873,29.0378634 L272.293173,30.1088634 L272.280673,31.1788634 L272.244873,32.2588634 L272.209273,33.3398634 L272.150473,34.4308634 L272.091673,35.5238634 L272.012073,36.6258634 L271.932673,37.7258634 L271.830573,38.8338634 L271.728673,39.9428634 L271.604073,41.0598634 L271.479473,42.1798634 L271.334573,43.3058634 L271.189973,44.4298634 L271.023273,45.5608634 L270.856673,46.6928634 L270.668173,47.8298634 L270.479473,48.9698634 L270.270973,50.1138634 L270.062973,51.2568634 L269.833473,52.4048634 L269.604073,53.5528634 L269.353373,54.7048634 L269.102373,55.8588634 L268.832273,57.0158634 L268.562573,58.1708634 L268.272073,59.3298634 L267.981673,60.4888634 L267.670573,61.6488634 L267.359273,62.8118634 L267.029273,63.9758634 L266.699873,65.1378634 L266.350273,66.3018634 L266.000773,67.4648634 L265.631373,68.6288634 L265.261473,69.7938634 L264.873673,70.9588634 L264.486473,72.1228634 L264.079673,73.2848634 L263.672973,74.4478634 L263.247073,75.6078634 L262.820673,76.7708634 L262.376873,77.9308634 L261.933773,79.0898634 L261.471873,80.2458634 L261.009973,81.4008634 L260.529473,82.5538634 L260.048573,83.7068634 L259.550873,84.8568634 L259.053873,86.0048634 L258.538673,87.1488634 L258.023573,88.2918634 L257.490573,89.4298634 L256.957073,90.5688634 L256.407473,91.7018634 L255.858573,92.8338634 L255.292173,93.9598634 L254.725973,95.0848634 L254.142373,96.2018634 L253.558373,97.3208634 L252.958773,98.4328634 L252.360073,99.5428634 L251.744473,100.643863 L251.129073,101.745863 L250.497073,102.836863 L249.864573,103.929863 L249.217073,105.013863 L248.570473,106.096863 L247.907873,107.167863 L247.245373,108.239863 L246.567073,109.299863 L245.887973,110.361863 L245.194673,111.411863 L244.502473,112.460863 L243.794773,113.497863 L243.087273,114.533863 L242.364373,115.556863 L241.640673,116.580863 L240.903273,117.591863 L240.167173,118.601863 L239.416273,119.596863 L238.665673,120.591863 L237.900473,121.571863 L237.134573,122.552863 L236.355573,123.518863 L235.577973,124.483863 L234.786373,125.432863 L233.994973,126.380863 L233.189773,127.312863 L232.383373,128.244863 L231.564673,129.160863 L230.747473,130.074863 L229.916973,130.970863 L229.086773,131.866863 L228.243573,132.743863 L227.399273,133.621863 L226.543273,134.481863 L225.689073,135.339863 L224.822173,136.177863 L223.955673,137.015863 L223.076773,137.832863 L222.196773,138.650863 L221.305773,139.449863 L220.416673,140.246863 L219.515573,141.021863 L218.615073,141.795863 L217.702873,142.547863 L216.789373,143.300863 L215.865473,144.031863 L214.943773,144.761863 L214.010773,145.467863 L213.078473,146.173863 L212.135073,146.854863 L211.190273,147.536863 L210.235773,148.195863 L209.283673,148.853863 L208.321073,149.484863 L207.359073,150.116863 L206.386873,150.721863 L205.412973,151.327863 L204.429973,151.908863 L203.449773,152.488863 L202.459673,153.041063 L201.470373,153.593163 L200.471373,154.116663 L199.470573,154.641463 L198.461273,155.139763 L197.455073,155.636963 L196.439673,156.104263 L195.425073,156.571763 L194.401473,157.008763 L193.375873,157.447163 L192.342273,157.857263 L191.312073,158.266463 L190.273373,158.644063 L189.235473,159.021863 L188.189273,159.367463 L187.140773,159.714163 L186.084773,160.031063 L185.032573,160.347363 L183.972373,160.630163 L182.912973,160.913363 L181.845873,161.162463 L180.776073,161.412363 L179.699473,161.630663 L178.626773,161.848763 L177.546673,162.031563 L176.467373,162.214763 L175.380773,162.362163 L174.291473,162.510463 L173.195673,162.625463 L172.103973,162.740663 L171.005473,162.818663 L169.907473,162.897263 L168.802973,162.938063 L167.695273,162.979663 L166.581673,162.986063 L165.472073,162.992663 L164.356173,162.960063 L163.240773,162.928263 L162.119173,162.856663 L160.994373,162.785563 L159.864073,162.677563 L158.737773,162.570663 L157.605573,162.422763 L156.473673,162.275563 L155.336173,162.086663 L154.195173,161.897763 L153.049273,161.670363 L151.906973,161.444363 L150.759373,161.175263 L149.611973,160.906963 L148.459373,160.594863 L147.300173,160.281563 L145.646973,159.791763 L144.030673,159.279363 L142.449973,158.744463 L140.903073,158.190063 L139.395173,157.615263 L137.921773,157.018963 L136.481573,156.404263 L135.079973,155.769363 L133.712073,155.114163 L132.376473,154.441763 L131.078073,153.751963 L129.812473,153.042763 L128.578173,152.317863 L127.380273,151.575863 L126.214073,150.816863 L125.078373,150.041863 L123.977973,149.251863 L122.908573,148.444863 L121.868973,147.623863 L120.863773,146.788863 L119.888373,145.937863 L118.941673,145.073863 L118.028173,144.196863 L117.143573,143.304863 L116.286773,142.400863 L115.462073,141.485863 L114.665473,140.555863 L113.895773,139.614863 L113.157073,138.663863 L112.445873,137.698863 L111.761573,136.722863 L111.107273,135.737863 L110.479473,134.740863 L109.876973,133.732863 L109.303473,132.717863 L108.755873,131.690863 L108.232673,130.654863 L107.737473,129.611863 L107.267673,128.557863 L106.821573,127.495863 L106.402473,126.427863 L106.008073,125.349863 L105.637073,124.264863 L105.293973,123.173863 L104.975273,122.073863 L104.678973,120.966863 L104.407873,119.856863 L104.160573,118.738863 L103.935173,117.614863 L103.734073,116.488863 L103.556173,115.354863 L103.399673,114.217863 L103.266573,113.077863 L103.157373,111.943863 L103.077173,110.779863 L102.997373,109.630863 L102.960773,108.477863 L102.922373,107.323863 L102.928473,106.165863 L102.933773,105.002863 L102.978873,103.838863 L103.023073,102.677863 L103.109873,101.516863 L103.196073,100.353863 L103.323873,99.1928634 L103.451473,98.0268634 L103.616173,96.8638634 L103.779773,95.7038634 L103.983173,94.5478634 L104.184373,93.3898634 L104.423073,92.2388634 L104.662073,91.0828634 L104.935473,89.9328634 L105.207473,88.7858634 L105.516473,87.6478634 L105.824873,86.5098634 L106.169173,85.3808634 L106.514073,84.2488634 L106.890673,83.1268634 L107.265673,82.0078634 L107.674573,80.9028634 L108.083073,79.7968634 L108.524473,78.7058634 L108.967073,77.6108634 L109.438673,76.5308634 L109.908373,75.4548634 L110.408873,74.3958634 L110.908973,73.3358634 L111.438673,72.2968634 L111.969673,71.2538634 L112.526773,70.2298634 L113.081673,69.2088634 L113.664273,68.2098634 L114.246373,67.2118634 L114.855073,66.2368634 L115.465273,65.2598634 L116.099173,64.3058634 L116.730473,63.3548634 L117.386373,62.4308634 L118.041473,61.5068634 L118.720173,60.6128634 L119.400273,59.7148634 L120.100973,58.8438634 L120.798373,57.9768634 L121.517173,57.1408634 L122.235073,56.3048634 L122.973173,55.5028634 L123.713073,54.6978634 L124.470573,53.9238634 L125.224273,53.1538634 L125.996873,52.4208634 L126.767973,51.6868634 L127.556173,50.9918634 L128.346273,50.2938634 L129.151173,49.6308634 L129.950873,48.9718634 L130.765573,48.3528634 L131.578473,47.7338634 L132.405173,47.1578634 L133.244873,46.5708634 L134.069573,46.0288634 L134.907873,45.5048634 L135.753173,45.0008634 L136.602573,44.5168634 L137.453773,44.0588634 L138.311373,43.6218634 L139.172273,43.2068634 L140.033873,42.8168634 L140.901273,42.4498634 L141.771073,42.1048634 L142.640373,41.7868634 L143.515073,41.4918634 L144.391473,41.2198634 L145.266473,40.9748634 L146.146273,40.7548634 L147.027273,40.5578634 L147.905873,40.3888634 L148.789073,40.2448634 L149.672873,40.1258634 L150.553673,40.0338634 L151.438773,39.9698634 L152.324273,39.9308634 L153.206073,39.9198634 L154.091973,39.9378634 L154.978073,39.9808634 L155.860173,40.0528634 L156.746273,40.1548634 L157.632373,40.2828634 L158.514473,40.4398634 L159.400473,40.6288634 L160.286373,40.8448634 L161.168273,41.0908634 L162.053873,41.3698634 L162.939373,41.6788634 L163.820773,42.0178634 L164.705573,42.3918634 L165.590173,42.7958634 L166.470573,43.2328634 L167.353873,43.7058634 L168.236573,44.2108634 L169.114973,44.7498634 L169.995573,45.3268634 L170.874973,45.9378634 L171.749973,46.5838634 L172.626073,47.2698634 L173.500473,47.9918634 L174.369973,48.7498634 L175.239473,49.5498634 L176.106473,50.3858634 L176.968073,51.2598634 L177.828573,52.1778634 L178.685673,53.1338634 L179.536773,54.1298634 L180.385473,55.1698634 L181.229873,56.2498634 L182.067673,57.3708634 L182.901673,58.5378634 L183.730673,59.7448634 L184.552073,60.9948634 L185.368673,62.2918634 L186.179173,63.6298634 L186.982473,65.0118634 L187.779773,66.4428634 L188.570273,67.9158634 L189.351873,69.4338634 L190.126173,71.0018634 L190.892773,72.6138634 L191.649573,74.2718634 L192.397973,75.9798634 L193.137873,77.7338634 L193.871473,79.5408634 L194.229373,80.4588634 L194.586473,81.3748634 L195.227473,83.0998634 L195.821673,84.8078634 L196.375473,86.5168634 L196.892373,88.2218634 L197.367973,89.9218634 L197.804473,91.6208634 L198.205273,93.3178634 L198.566573,95.0068634 L198.889873,96.6958634 L199.178473,98.3818634 L199.428573,100.059863 L199.641773,101.737863 L199.821273,103.410863 L199.963773,105.077863 L200.070173,106.741863 L200.144473,108.401863 L200.183873,110.054863 L200.188173,111.704863 L200.160873,113.350863 L200.099273,114.988863 L200.003573,116.622863 L199.877273,118.252863 L199.717873,119.874863 L199.525173,121.492863 L199.302973,123.104863 L199.049673,124.708863 L198.764073,126.308863 L198.449873,127.901863 L198.104973,129.486863 L197.728773,131.066863 L197.324873,132.639863 L196.891473,134.202863 L196.427673,135.761863 L195.937173,137.312863 L195.418173,138.853863 L194.869273,140.387863 L194.294773,141.915863 L193.693073,143.431863 L193.062873,144.940863 L192.407873,146.441863 L191.726973,147.931863 L191.018573,149.413863 L190.286273,150.887863 L189.529273,152.348863 L188.745573,153.802263 L187.939173,155.245863 L187.108973,156.676963 L186.253473,158.099063 L185.376073,159.511063 L184.476173,160.909763 L183.551973,162.298763 L182.606973,163.677063 L181.640573,165.041563 L180.650073,166.394763 L179.639273,167.736263 L178.608373,169.063263 L177.555173,170.378863 L176.483373,171.682463 L175.392573,172.970963 L174.280773,174.247363 L173.151273,175.511063 L172.004073,176.759163 L170.836573,177.993963 L169.651973,179.214863 L168.450873,180.419663 L167.237673,181.604063 L165.986373,182.781563 L164.744773,183.950463 L163.470373,185.087263 L162.196173,186.224663 L160.890873,187.328963 L159.582873,188.436163 L158.247973,189.512463 L156.916073,190.586963 L155.556173,191.626663 L154.196373,192.666963 L152.810273,193.671463 L151.421373,194.678563 L150.009873,195.652363 L148.601573,196.624463 L147.169873,197.559263 L145.739073,198.495263 L144.286473,199.392963 L142.831073,200.292963 L141.357373,201.157363 L139.887073,202.020263 L138.398073,202.843163 L136.909473,203.666463 L135.403873,204.448863 L133.895373,205.233363 L132.373573,205.981663 L130.855773,206.728863 L129.323873,207.433663 L127.792473,208.138763 L126.248773,208.800363 L124.692973,209.467563 L123.149473,210.096663 L121.594073,210.706463 L120.032473,211.294663 L118.465573,211.857363 L116.896073,212.393263 L115.321673,212.906663 L113.745073,213.399063 L112.168373,213.867263 L110.588073,214.312463 L109.006573,214.735963 L107.426273,215.134763 L105.843473,215.509963 L104.260473,215.861363 L102.677773,216.177063 L101.093973,216.468363 L99.5117731,216.736863 L97.9337731,216.979663 L96.3558731,217.197463 L94.7805731,217.392063 L93.2109731,217.560463 L91.6424731,217.703263 L90.0777731,217.822363 L88.5203731,217.917863 L86.9652731,217.991863 L85.4147731,218.041763 L83.8724731,218.064663 L82.3331731,218.060763 L80.7995731,218.032163 L79.2755731,217.976363 L77.7555731,217.892963 L76.2422731,217.784563 L74.7398731,217.648663 L73.2423731,217.485463 L71.7524631,217.298363 L70.2745331,217.083563 L68.8025231,216.839763 L67.3392231,216.570163 L65.8891131,216.272463 L64.4458631,215.945163 L63.0122931,215.591563 L61.5930531,215.209663 L60.1815831,214.797363 L58.7806331,214.358563 L57.3943731,213.893263 L56.0166731,213.396863 L54.6503131,212.873263 L53.3002431,212.320763 L51.9596231,211.736363 L50.6311431,211.124163 L49.3198731,210.482863 L48.0189131,209.808763 L46.7308731,209.106263 L45.4608631,208.374363 L44.2020731,207.608563 L42.9569531,206.813963 L41.7306331,205.989363 L40.5164531,205.129963 L39.3166931,204.240963 L38.1364631,203.321463 L36.9693531,202.366163 L35.8174231,201.380463 L34.6857131,200.363763 L33.5681931,199.310063 L32.4659531,198.225863 L31.3842831,197.110163 L30.3178831,195.956363 L29.2682531,194.770463 L28.2402431,193.552063 L27.2287331,192.294363 L26.2349131,191.003563 L25.2634931,189.679463 L24.3098931,188.314963 L23.3747631,186.916763 L22.4622631,185.484663 L21.5689631,184.010963 L20.6953631,182.502563 L19.8458531,180.958863 L19.0170231,179.372763 L18.2089931,177.750963 L17.4260031,176.093063 L16.6652331,174.391763 L15.9264031,172.653963 L15.2086731,170.866563 L14.8699431,169.971263 L14.5246231,169.060063 L14.1912431,168.130163 L13.8587431,167.203663 L13.5395331,166.256463 L13.2199831,165.309363 L12.9139531,164.341263 L12.6065431,163.370063 L12.3116531,162.379663 L12.0174431,161.392663 L11.7371631,160.384563 L11.4565531,159.376463 L11.1901231,158.347163 L10.9225431,157.314663 L10.6680731,156.262763 L10.4140831,155.214063 L10.1746831,154.143863 L9.93498308,153.073663 L9.71009308,151.981863 L9.48427308,150.886863 L9.27215308,149.772863 L9.06035308,148.660863 L8.86378308,147.527863 L8.66693308,146.394863 L8.48553308,145.238863 L8.29875308,144.051863 C7.93176308,141.774863 5.78857308,140.226863 3.51180308,140.593863 C1.23503308,140.960863 -0.313146916,143.103863 0.0538330845,145.380863 Z" id="Fill-11"></path>
            <path d="M268.942573,47.4088634 L269.216273,45.5368634 L269.484673,43.6558634 L269.716973,41.7548634 L269.887473,39.8398634 L270.059073,37.9168634 L270.348673,36.0128634 L270.601073,34.0978634 L270.882173,32.1828634 L271.139473,30.2628634 L271.377573,28.3358634 L271.543573,26.3998634 L271.698573,24.4638634 L271.835773,22.5298634 L272.003473,20.5938634 L272.089073,18.6558634 L272.136373,16.7148634 L272.164773,14.7798634 L272.213373,12.8528634 L272.228473,10.9158634 L272.208273,8.98486338 L272.157973,7.05686338 L272.075673,5.13186338 L271.951373,3.20886338 L271.784573,1.30686338 C271.713473,0.51686338 271.015773,-0.0651366202 270.226173,0.00586337978 C269.436673,0.0768633798 268.854273,0.77486338 268.925373,1.56386338 L269.097973,3.43286338 L269.226773,5.29186338 L269.314973,7.15786338 L269.363273,9.02986338 L269.365973,10.9058634 L269.332173,12.7808634 L269.240273,14.6718634 L269.128073,16.5558634 L268.911873,18.4368634 L268.733973,20.3228634 L268.530873,22.2088634 L268.297273,24.0958634 L267.996573,25.9768634 L267.706773,27.8578634 L267.409173,29.7378634 L267.130973,31.6228634 L266.812273,33.4978634 L266.464973,35.3728634 L266.108973,37.2398634 L265.634973,39.0878634 L265.123373,40.9178634 L264.673373,42.7618634 L264.238473,44.5948634 L263.808973,46.4368634 C263.540573,47.8538634 264.472173,49.2208634 265.889773,49.4898634 C267.307373,49.7578634 268.674173,48.8258634 268.942573,47.4088634 Z" id="Fill-125"></path>
            <path d="M282.443673,47.5918634 L282.342573,45.7358634 L282.236373,43.8518634 L282.101973,41.9408634 L281.904773,40.0078634 L281.686473,38.0558634 L281.594073,36.0788634 L281.455173,34.0988634 L281.343773,32.1058634 L281.187473,30.1058634 L281.010773,28.0978634 L280.728473,26.1028634 L280.434773,24.1168634 L280.104573,22.1208634 L279.755973,20.1378634 L279.323073,18.1768634 L278.803273,16.2408634 L278.262073,14.3158634 L277.673573,12.4138634 L277.030873,10.5328634 L276.311473,8.67986338 L275.519173,6.86086338 L274.652273,5.07286338 L273.693073,3.32386338 L272.659373,1.65286338 C272.240673,0.97986338 271.355473,0.77286338 270.682373,1.19186338 C270.009273,1.61086338 269.802973,2.49586338 270.221673,3.16886338 L271.223773,4.77086338 L272.119573,6.38786338 L272.935973,8.05186338 L273.678173,9.75686338 L274.337473,11.5018634 L274.926573,13.2838634 L275.443773,15.0988634 L275.877373,16.9458634 L276.210773,18.8268634 L276.527473,20.7188634 L276.822573,22.6218634 L277.039473,24.5388634 L277.175073,26.4898634 L277.321973,28.4318634 L277.428673,30.3748634 L277.555773,32.3258634 L277.618173,34.2688634 L277.653173,36.2248634 L277.678173,38.1608634 L277.546373,40.0928634 L277.413873,42.0118634 L277.331473,43.9158634 L277.271373,45.8008634 L277.219373,47.6608634 C277.238473,49.1028634 278.423473,50.2568634 279.866073,50.2380947 C281.308773,50.2188634 282.462773,49.0338634 282.443673,47.5918634 Z" id="Fill-126"></path>
            <path d="M274.998973,11.9388634 L274.083073,10.9228634 L273.489673,9.84786338 L273.206673,8.71486338 C273.062773,7.93486338 272.314073,7.41986338 271.534473,7.56386338 C270.754973,7.70786338 270.239673,8.45586338 270.383673,9.23586338 L270.523873,10.3948634 L270.353773,11.6118634 L269.861073,12.8878634 C270.123073,14.3068634 271.485573,15.2438634 272.904373,14.9818634 C274.323173,14.7198634 275.260973,13.3578634 274.998973,11.9388634 Z" id="Fill-127"></path>
            <path d="M275.030273,8.94086338 L274.180273,8.16786338 L273.654173,7.34286338 L273.439673,6.46686338 C273.313573,5.68486338 272.576973,5.15186338 271.794273,5.27786338 C271.011573,5.40386338 270.479373,6.14086338 270.605373,6.92386338 L270.676673,7.82186338 L270.436173,8.77086338 L269.871973,9.77186338 C270.101373,11.1958634 271.442073,12.1648634 272.866473,11.9348634 C274.290973,11.7058634 275.259673,10.3648634 275.030273,8.94086338 Z" id="Fill-128"></path>
        </g>
    </g>
</svg>
