<?xml version="1.0" encoding="UTF-8"?>
<svg width="310px" height="209px" viewBox="0 0 310 209" version="1.1" xmlns="http://www.w3.org/2000/svg" xmlns:xlink="http://www.w3.org/1999/xlink">
    <title>253</title>
    <g id="Page-1" stroke="none" stroke-width="1" fill="none" fill-rule="evenodd">
        <g id="253" transform="translate(0.976810, 0.702194)" fill="currentColor">
            <path d="M0.994775234,6.88099946 L1.75317523,7.76579946 L2.47027523,8.60139946 L3.15197523,9.44909946 L3.83527523,10.2970995 L4.48407523,11.1567995 L5.13767523,12.0215995 L5.76077523,12.8968995 L6.38187523,13.7678995 L6.97037523,14.6501995 L7.56037523,15.5332995 L8.11867523,16.4274995 L8.68127523,17.3268995 L9.21577523,18.2362995 L9.74887523,19.1416995 L10.2518752,20.0576995 L10.7564752,20.9746995 L11.2318752,21.9020995 L11.7109752,22.8350995 L12.1642752,23.7771995 L12.6166752,24.7157995 L13.0415752,25.6641995 L13.4677752,26.6139995 L13.8674752,27.5732995 L14.2701752,28.5382995 L14.6492752,29.5117995 L15.0277752,30.4822995 L15.3813752,31.4615995 L15.7360752,32.4425995 L16.0665752,33.4322995 L16.3995752,34.4275995 L16.7111752,35.4304995 L17.0224752,36.4308995 L17.3111752,37.4393995 L17.6008752,38.4496995 L17.8687752,39.4676995 L18.1384752,40.4910995 L18.3890752,41.5211995 L18.6395752,42.5492995 L18.8698752,43.5846995 L19.1008752,44.6217995 L19.3125752,45.6658995 L19.5255752,46.7146995 L19.7216752,47.7694995 L19.9180752,48.8226995 L20.0968752,49.8820995 L20.2763752,50.9432995 L20.4388752,52.0104995 L20.6022752,53.0819995 L20.7509752,54.1586995 L20.8996752,55.2340995 L21.0330752,56.3148995 L21.1668752,57.3973995 L21.2861752,58.4849995 L21.4060752,59.5762995 L21.5134752,60.6716995 L21.6209752,61.7665995 L21.7155752,62.8655995 L21.8105752,63.9663995 L21.8943752,65.0709995 L21.9785752,66.1789995 L22.0524752,67.2902995 L22.1264752,68.4011995 L22.1899752,69.5154995 L22.2536752,70.6312995 L22.3078752,71.7500995 L22.3621752,72.8717995 L22.4085752,73.9957995 L22.4549752,75.1197995 L22.4934752,76.2460995 L22.5319752,77.3739995 L22.5634752,78.5037995 L22.5949752,79.6316995 L22.6181752,80.7615995 L22.6416752,81.9053995 L22.6651752,83.0491995 L22.6885752,84.1771995 L22.7024752,85.3070995 L22.7165752,86.4525995 L22.7306752,87.5981995 L22.7446752,88.7341995 L22.7530752,89.8705995 L22.7613752,91.0164995 L22.7697752,92.1622995 L22.7780752,93.3043995 L22.7840752,94.4455995 L22.7901752,95.5906995 L22.7980752,96.7355995 L22.8058752,97.8816995 L22.8142752,99.0254995 L22.8227752,100.168199 L22.8312752,101.310999 L22.8396752,102.460799 L22.8525752,103.606799 L22.8652752,104.745799 L22.8780752,105.884699 L22.8909752,107.034899 L22.9106752,108.180499 L22.9302752,109.314899 L22.9498752,110.449299 L22.9696752,111.601199 L23.0021752,112.746799 L23.0342752,113.874799 L23.0664752,115.002899 L23.0991752,116.154299 L23.1463752,117.298099 L23.1929752,118.418299 L23.2394752,119.538499 L23.2869752,120.684899 L23.3506752,121.822999 L23.4131752,122.934999 L23.4756752,124.046999 L23.5399752,125.192799 L23.6253752,126.328499 L23.7086752,127.429999 L23.7949752,128.531499 L23.8863752,129.672599 L24.0025752,130.801999 L24.1154752,131.891199 L24.2283752,132.980399 L24.3439752,134.099799 L24.4784752,135.210399 L24.6123752,136.314499 L24.7611752,137.411699 L24.9102752,138.510299 L25.0749752,139.601699 L25.2397752,140.691699 L25.4195752,141.774899 L25.6000752,142.861699 L25.7979752,143.940399 L25.9901752,145.021699 L26.1990752,146.095099 L26.4079752,147.166799 L26.6343752,148.230899 L26.8617752,149.298999 L27.1092752,150.358399 L27.3573752,151.418999 L27.6264752,152.470399 L27.8954752,153.519999 L28.1841752,154.560799 L28.4744752,155.605899 L28.7873752,156.641199 L29.1011752,157.677699 L29.4384752,158.703799 L29.7754752,159.727599 L30.1319752,160.742799 L30.4882752,161.763199 L30.8697752,162.772699 L31.2524752,163.783399 L31.6612752,164.782899 L32.0695752,165.779599 L32.5024752,166.765699 L32.9380752,167.756599 L33.4014752,168.735199 L33.8660752,169.714899 L34.3595752,170.682099 L34.8520752,171.646199 L35.3714752,172.598499 L35.8941752,173.555399 L36.4472752,174.498999 L37.0016752,175.443199 L37.5884752,176.372999 L38.1739752,177.299299 L38.7885752,178.212599 L39.4067752,179.130199 L40.0578752,180.033299 L40.7101752,180.936599 L41.3961752,181.824799 L42.0802752,182.709299 L42.7955752,183.579899 L43.5150752,184.454199 L44.2695752,185.312699 L45.0252752,186.171099 L45.8168752,187.013199 L46.6060752,187.851699 L47.4287752,188.674899 L48.2559752,189.500899 L49.1205752,190.309899 L49.9860752,191.118599 L50.8897752,191.909899 L51.7905752,192.697499 L52.7268752,193.469199 L53.6671752,194.243299 L54.6472752,194.999199 L55.6278752,195.754699 L56.6489752,196.491799 L57.6667752,197.225599 L58.7221752,197.942499 L59.7814752,198.661199 L60.8825752,199.360899 L61.9841752,200.059899 L63.1284752,200.739599 L64.2661752,201.414599 L65.3439752,202.017199 L66.4344752,202.587499 L67.5332752,203.123899 L68.6424752,203.631099 L69.7661752,204.108099 L70.8968752,204.552199 L72.0367752,204.967699 L73.1900752,205.353499 L74.3493752,205.707399 L75.5167752,206.033499 L76.6963752,206.330999 L77.8808752,206.598099 L79.0725752,206.838199 L80.2754752,207.049799 L81.4824752,207.231899 L82.6958752,207.387999 L83.9194752,207.516299 L85.1462752,207.616499 L86.3787752,207.691599 L87.6202752,207.739599 L88.8645752,207.760599 L90.1137752,207.757499 L91.3710752,207.728199 L92.6305752,207.673199 L93.8943752,207.596199 L95.1654752,207.493599 L96.4383752,207.366499 L97.7149752,207.217099 L98.9980752,207.043199 L100.294175,206.843799 L101.569675,206.616799 L102.860075,206.386599 L104.158575,206.110699 L105.455175,205.834399 L106.758975,205.513799 L108.056975,205.193799 L109.360675,204.834599 L110.666975,204.473999 L111.978675,204.071099 L113.288875,203.668199 L114.603575,203.223999 L115.913375,202.780999 L117.226675,202.301399 L118.542075,201.820499 L119.860375,201.300599 L121.177375,200.780599 L122.496375,200.222599 L123.811175,199.665899 L125.127175,199.075799 L126.445275,198.484599 L127.763675,197.857299 L129.080975,197.230199 L130.397675,196.568099 L131.710975,195.907399 L133.022875,195.215899 L134.336675,194.522999 L135.648075,193.797299 L136.958775,193.071599 L138.266175,192.314199 L139.570475,191.557799 L140.870975,190.772999 L142.172975,189.986999 L143.470175,189.171099 L144.766675,188.355299 L146.057375,187.510699 L147.345475,186.667499 L148.627575,185.798799 L149.911075,184.928999 L151.187175,184.032299 L152.462675,183.135699 L153.729375,182.212599 L154.993575,181.290699 L156.249375,180.346299 L157.506475,179.400599 L158.753575,178.430899 L160.000175,177.461399 L161.235675,176.468999 L162.469175,175.477999 L163.691875,174.467299 L164.915875,173.454999 L166.126975,172.421999 L167.337575,171.388599 L168.534475,170.335399 L169.729475,169.283699 L170.911375,168.214799 L172.094475,167.144599 L173.262075,166.056399 L174.429575,164.968199 L175.580575,163.863299 L176.729975,162.759699 L177.863575,161.641499 L178.997475,160.520799 L180.113275,159.385499 L181.228975,158.249999 L182.325475,157.100699 L183.420575,155.952699 L184.497575,154.793099 L185.575875,153.631899 L186.633275,152.458799 L187.690675,151.285699 L188.726175,150.101699 L189.759575,148.918299 L190.772375,147.725899 L191.786375,146.531799 L192.776975,145.328999 L193.767375,144.125699 L194.733575,142.914799 L195.698375,141.705199 L196.640175,140.489399 L197.583175,139.271699 L198.500175,138.048099 L199.417175,136.824199 L200.307075,135.595399 L201.195675,134.368099 L202.058875,133.137299 L202.923375,131.904299 L203.759075,130.668399 L204.594875,129.432099 L205.400875,128.193799 L206.205675,126.956999 L206.982675,125.719499 L207.760875,124.479499 L208.507675,123.239399 L209.254575,121.998699 L209.968875,120.759099 L210.682075,119.521199 L211.365075,118.284999 L212.049275,117.045999 L212.699275,115.809799 L213.349375,114.572999 L213.964375,113.339899 L214.578075,112.108699 L215.159175,110.881899 L215.741375,109.651799 L216.287675,108.427899 L216.834275,107.203099 L217.343075,105.985099 L217.850575,104.768899 L218.322875,103.559699 L218.796375,102.346499 L219.230175,101.141799 L219.663775,99.9358995 L220.056775,98.7394995 L220.448475,97.5452995 L220.802475,96.3605995 L221.157275,95.1709995 L221.469575,93.9928995 L221.781775,92.8130995 L222.050375,91.6456995 L222.317675,90.4807995 L222.544475,89.3279995 L222.771775,88.1692995 L222.953475,87.0247995 L223.134475,85.8782995 L223.268875,84.7468995 L223.400575,83.6311995 L223.502575,82.4983995 L223.578975,81.3827995 L223.630175,80.2773995 L223.658475,79.1789995 L223.661275,78.0857995 L223.638375,77.0038995 L223.592475,75.9294995 L223.519775,74.8608995 L223.420275,73.8044995 L223.295975,72.7566995 L223.143575,71.7151995 L222.963675,70.6870995 L222.757875,69.6684995 L222.522775,68.6571995 L222.259275,67.6605995 L221.969175,66.6744995 L221.648175,65.6969995 L221.298575,64.7353995 L220.921275,63.7856995 L220.512075,62.8457995 L220.073675,61.9233995 L219.607175,61.0142995 L219.107875,60.1161995 L218.579475,59.2369995 L218.022575,58.3723995 L217.431775,57.5207995 L216.811875,56.6893995 L216.163075,55.8738995 L215.480075,55.0729995 L214.768075,54.2932995 L214.027175,53.5306995 L213.251775,52.7843995 L212.447675,52.0601995 L211.614675,51.3539995 L210.747075,50.6652995 L209.858375,50.0045995 L209.147375,49.5028995 L208.443175,49.0305995 L207.743275,48.5853995 L207.044775,48.1631995 L206.345375,47.7645995 L205.650275,47.3928995 L204.956475,47.0441995 L204.261075,46.7190995 L203.570375,46.4205995 L202.880975,46.1451995 L202.189575,45.8934995 L201.503375,45.6682995 L200.818675,45.4659995 L200.132075,45.2878995 L199.451375,45.1359995 L198.772675,45.0070995 L198.092275,44.9026995 L197.375675,44.8199995 L196.081075,44.7353995 L194.749075,44.7460995 L193.443975,44.8544995 L192.158175,45.0505995 L190.887575,45.3418995 L189.651675,45.7211995 L188.442875,46.1819995 L187.256675,46.7286995 L186.108075,47.3509995 L184.988375,48.0420995 L183.893775,48.8090995 L182.834875,49.6406995 L181.803775,50.5322995 L180.797475,51.4910995 L179.823375,52.5066995 L178.874575,53.5752995 L177.949575,54.7037995 L177.053175,55.8834995 L176.180975,57.1112995 L175.333875,58.3945995 L174.513175,59.7239995 L173.714475,61.0959995 L172.937675,62.5164995 L172.185475,63.9781995 L171.454075,65.4781995 L170.744275,67.0214995 L170.057775,68.6013995 L169.391675,70.2153995 L168.746275,71.8669995 L168.120875,73.5499995 L167.515275,75.2624995 L166.930775,77.0078995 L166.368375,78.7806995 L165.825675,80.5786995 L165.303975,82.4043995 L164.804175,84.2527995 L164.323975,86.1216995 L163.864175,88.0128995 L163.425175,89.9215995 L163.005575,91.8462995 L162.607275,93.7882995 L162.230775,95.7432995 L161.873975,97.7093995 L161.538575,99.6877995 L161.224075,101.679899 L160.940975,103.668299 L160.655975,105.664599 L160.414275,107.669499 L160.172975,109.674199 L159.975275,111.679799 L159.777975,113.682799 L159.620675,115.680899 L159.463375,117.681099 L159.350075,119.668899 L159.235475,121.656999 L159.165375,123.624799 L159.095875,125.584699 L159.056375,127.540499 L159.039775,129.476799 L159.045875,131.395099 L159.072775,133.296999 L159.122575,135.180399 L159.195375,137.040699 L159.289075,138.879999 L159.406175,140.695799 L159.546475,142.483399 L159.708175,144.245499 L159.893675,145.979299 L160.102775,147.679999 L160.333775,149.350599 L160.589175,150.988399 L160.868275,152.587999 L161.169375,154.153399 L161.495775,155.681599 L161.846875,157.166699 L162.221375,158.613499 L162.622475,160.018999 L163.049375,161.376599 L163.500975,162.691899 L163.981475,163.962099 L164.489175,165.179699 L165.023875,166.351199 L165.591075,167.473999 L166.187675,168.538899 L166.815075,169.553699 L167.480475,170.515599 L168.166275,171.396899 L168.881775,172.249399 L169.594975,173.064499 L170.315775,173.854699 L171.044675,174.623699 L171.783875,175.371299 L172.530075,176.094299 L173.284075,176.796499 L174.048075,177.477399 L174.818575,178.133999 L175.596375,178.770099 L176.383875,179.385199 L177.196475,179.990299 L178.784475,181.097999 L180.424775,182.133799 L182.088375,183.079699 L183.775675,183.946699 L185.491975,184.730299 L187.226675,185.427599 L188.980975,186.048799 L190.759775,186.589599 L192.552375,187.048199 L194.360275,187.434499 L196.188175,187.743699 L198.025875,187.975899 L199.875175,188.139699 L201.740175,188.230299 L203.611475,188.248999 L205.491075,188.203699 L207.382575,188.089299 L209.277575,187.908199 L211.177875,187.667199 L213.086675,187.361499 L214.996475,186.993999 L216.908975,186.570599 L218.826975,186.086999 L220.743475,185.545899 L222.660275,184.953099 L224.579475,184.303999 L226.487275,183.605099 L227.451275,183.227899 L228.408975,182.852799 L229.366075,182.451999 L230.322275,182.051099 L231.277275,181.625499 L232.229675,181.200699 L233.180475,180.753799 L234.132675,180.305899 L235.082875,179.834299 L236.032375,179.362899 L236.979275,178.868399 L237.923775,178.374999 L238.865475,177.861199 L239.808475,177.346399 L240.747975,176.809999 L241.687175,176.273899 L242.622175,175.716599 L243.555175,175.160499 L244.484175,174.585799 L245.414275,174.009999 L246.339475,173.414499 L247.264275,172.819099 L248.183575,172.204399 L249.100975,171.590799 L250.013075,170.960399 L250.926275,170.329099 L251.833175,169.679799 L252.739575,169.030499 L253.639175,168.363999 L254.537175,167.698599 L255.428475,167.017999 L256.320775,166.336499 L257.205275,165.638899 L258.089475,164.941399 L258.965375,164.228499 L259.839875,163.516699 L260.706375,162.791499 L261.573775,162.065299 L262.432075,161.324899 L263.289975,160.584599 L264.138275,159.830799 L264.985175,159.077999 L265.822775,158.313599 L266.661375,157.548099 L267.489175,156.770399 L268.316875,155.992599 L269.133275,155.203299 L269.948675,154.415099 L270.753275,153.616799 L271.558875,152.817599 L272.352275,152.007899 L273.145575,151.198199 L273.926275,150.378799 L274.705775,149.560399 L275.473375,148.733699 L276.241875,147.905999 L276.996775,147.069699 L277.751575,146.233399 L278.492375,145.389299 L279.231975,144.546099 L279.958375,143.696399 L280.685775,142.845599 L281.397975,141.987999 L282.110175,141.130299 L282.806875,140.266799 L283.502475,139.404299 L284.183575,138.536999 L284.865475,137.668199 L285.530975,136.794799 L286.196475,135.921099 L286.844775,135.043399 L287.492275,134.166799 L288.123875,133.287099 L288.756275,132.405699 L289.370775,131.521699 L289.985275,130.637299 L290.581275,129.750699 L291.176375,128.865199 L291.754275,127.978199 L292.333075,127.089699 L292.892375,126.199999 L293.451675,125.310199 L293.991075,124.419799 L294.529575,123.530599 L295.049475,122.641699 L295.570375,121.750899 L296.070175,120.860899 L296.573475,119.964399 L297.526375,118.193799 L298.442675,116.419899 L299.315175,114.648699 L300.140975,112.884699 L300.924175,111.126699 L301.660575,109.374099 L302.347075,107.632699 L302.988275,105.899899 L303.579275,104.175599 L304.117375,102.465899 L304.607075,100.767799 L305.043275,99.0807995 L305.423075,97.4117995 L305.751275,95.7572995 L306.021975,94.1163995 L306.232875,92.4971995 L306.388375,90.8950995 L306.482075,89.3091995 L306.511892,87.7922995 C306.535375,86.5254995 305.527775,85.4790995 304.260875,85.4551995 C302.993875,85.4311995 301.947575,86.4388995 301.923675,87.7057995 L301.897575,89.1300995 L301.814875,90.5380995 L301.675375,91.9795995 L301.484975,93.4470995 L301.239575,94.9379995 L300.938775,96.4573995 L300.588675,97.9985995 L300.185875,99.5592995 L299.729675,101.143399 L299.226375,102.745299 L298.672675,104.362499 L298.068175,105.998299 L297.418675,107.647699 L296.721675,109.308399 L295.976375,110.983099 L295.188775,112.667499 L294.356475,114.359099 L293.478575,116.059999 L292.557675,117.772899 L292.081275,118.621799 L291.601475,119.476999 L291.100875,120.333699 L290.599375,121.192199 L290.079375,122.051499 L289.560175,122.909499 L289.021175,123.767699 L288.482075,124.626199 L287.923675,125.483999 L287.364275,126.343599 L286.787775,127.201999 L286.212075,128.059399 L285.618075,128.914899 L285.023975,129.770599 L284.411975,130.623899 L283.799075,131.478599 L283.170375,132.330399 L282.542575,133.181099 L281.897775,134.028199 L281.252975,134.875299 L280.591875,135.718099 L279.929775,136.562199 L279.253175,137.401599 L278.577575,138.240099 L277.886475,139.072799 L277.195475,139.905599 L276.489375,140.732099 L275.782475,141.559799 L275.062475,142.381199 L274.343375,143.201499 L273.610375,144.014299 L272.877375,144.826999 L272.130975,145.631599 L271.383675,146.437199 L270.624375,147.234699 L269.866375,148.031199 L269.095775,148.818299 L268.325275,149.605299 L267.542775,150.382199 L266.759375,151.160099 L265.965575,151.928199 L265.172975,152.695299 L264.369275,153.450899 L263.565675,154.206599 L262.751575,154.950199 L261.936575,155.694799 L261.112475,156.427699 L260.289675,157.159799 L259.457275,157.878399 L258.625175,158.596999 L257.783975,159.301699 L256.941775,160.007299 L256.091875,160.699699 L255.243375,161.390999 L254.386875,162.066999 L253.530575,162.742999 L252.666775,163.403199 L251.801975,164.064299 L250.930675,164.710299 L250.061075,165.355399 L249.184875,165.983199 L248.309075,166.611199 L247.427175,167.221299 L246.544175,167.832199 L245.656175,168.426499 L244.769975,169.019699 L243.878675,169.593999 L242.987875,170.168199 L242.092475,170.722599 L241.195975,171.277999 L240.295675,171.814999 L239.397575,172.350899 L238.495775,172.866099 L237.594475,173.380799 L236.690175,173.873999 L235.784475,174.368099 L234.876575,174.841999 L233.970975,175.314999 L233.063275,175.765199 L232.156375,176.215399 L231.247875,176.642199 L230.338075,177.069899 L229.427175,177.475799 L228.519175,177.880699 L227.610475,178.261099 L226.702675,178.641299 L225.794875,178.996399 L224.893375,179.349599 L223.070575,180.016499 L221.261575,180.626599 L219.454875,181.183599 L217.653675,181.690599 L215.861975,182.140999 L214.075475,182.534799 L212.297375,182.875599 L210.532475,183.156699 L208.775375,183.377999 L207.029375,183.543499 L205.299975,183.646699 L203.580675,183.686699 L201.875075,183.668399 L200.188975,183.585199 L198.515175,183.435399 L196.856975,183.224699 L195.220775,182.946599 L193.598475,182.598399 L191.993375,182.186499 L190.411975,181.704399 L188.845875,181.147999 L187.298075,180.524799 L185.775375,179.828099 L184.269275,179.052299 L182.782675,178.205799 L181.322075,177.281699 L179.860675,176.259499 L179.166675,175.741099 L178.461175,175.189099 L177.759775,174.614499 L177.063875,174.020399 L176.375775,173.406099 L175.692275,172.768399 L175.014475,172.110699 L174.344675,171.432099 L173.679875,170.729499 L173.021075,170.006199 L172.370475,169.261599 L171.738275,168.507699 L171.186475,167.798999 L170.663275,167.040999 L170.150675,166.209699 L169.651775,165.317199 L169.171775,164.363299 L168.707775,163.342499 L168.260475,162.265999 L167.833975,161.133499 L167.426575,159.941299 L167.037775,158.699099 L166.670875,157.406799 L166.324775,156.061699 L165.998275,154.672499 L165.694175,153.238899 L165.411675,151.758999 L165.149775,150.240399 L164.910875,148.683299 L164.694075,147.086199 L164.497475,145.455799 L164.323575,143.792599 L164.171975,142.095299 L164.040675,140.370199 L163.931875,138.617599 L163.845375,136.836899 L163.779175,135.033399 L163.735375,133.208199 L163.713675,131.360399 L163.712275,129.494999 L163.732975,127.613299 L163.775575,125.720699 L163.848575,123.796799 L163.921175,121.881199 L164.037675,119.945199 L164.155575,118.008999 L164.317275,116.060299 L164.478875,114.109199 L164.679975,112.152999 L164.880675,110.199399 L165.124275,108.246799 L165.367575,106.294599 L165.653675,104.351399 L165.941475,102.400399 L166.256375,100.472699 L166.592875,98.5503995 L166.950375,96.6385995 L167.326575,94.7394995 L167.723075,92.8569995 L168.140375,90.9907995 L168.576075,89.1420995 L169.032775,87.3158995 L169.510475,85.5116995 L170.006275,83.7300995 L170.521375,81.9764995 L171.056375,80.2501995 L171.609075,78.5514995 L172.180175,76.8867995 L172.770875,75.2546995 L173.378575,73.6554995 L174.006575,72.0970995 L174.653875,70.5770995 L175.317175,69.0951995 L175.997075,67.6593995 L176.695075,66.2670995 L177.408075,64.9182995 L178.135975,63.6215995 L178.880975,62.3736995 L179.639675,61.1746995 L180.410975,60.0337995 L181.195675,58.9451995 L181.991575,57.9094995 L182.797075,56.9375995 L183.617275,56.0242995 L184.446675,55.1687995 L185.281975,54.3815995 L186.130375,53.6565995 L186.985175,52.9922995 L187.841875,52.3988995 L188.710875,51.8696995 L189.584775,51.4017995 L190.458175,51.0050995 L191.346075,50.6726995 L192.240175,50.3988995 L193.136175,50.1940995 L194.053575,50.0553995 L194.984575,49.9781995 L195.924875,49.9713995 L196.938775,50.0409995 L197.388475,50.0948995 L197.883475,50.1711995 L198.389075,50.2677995 L198.900775,50.3823995 L199.415475,50.5162995 L199.940875,50.6720995 L200.472975,50.8470995 L201.008675,51.0425995 L201.555075,51.2615995 L202.108275,51.5008995 L202.665475,51.7620995 L203.233075,52.0480995 L203.807375,52.3556995 L204.385975,52.6859995 L204.974375,53.0426995 L205.569075,53.4221995 L206.168275,53.8253995 L206.769175,54.2506995 L207.544975,54.8287995 L208.279675,55.4136995 L208.986875,56.0153995 L209.667175,56.6296995 L210.315175,57.2552995 L210.937075,57.8976995 L211.533275,58.5521995 L212.098675,59.2173995 L212.639175,59.8990995 L213.155075,60.5930995 L213.641875,61.2970995 L214.104475,62.0178995 L214.543575,62.7508995 L214.954775,63.4938995 L215.342175,64.2539995 L215.706775,65.0261995 L216.044775,65.8081995 L216.359575,66.6070995 L216.652275,67.4181995 L216.919375,68.2390995 L217.163375,69.0767995 L217.385675,69.9264995 L217.583175,70.7856995 L217.757575,71.6615995 L217.910575,72.5489995 L218.039475,73.4459995 L218.145275,74.3588995 L218.229875,75.2830995 L218.290875,76.2162995 L218.328875,77.1645995 L218.345075,78.1236995 L218.338075,79.0913995 L218.307975,80.0731995 L218.257375,81.0651995 L218.184175,82.0651995 L218.089475,83.0657995 L217.961075,84.1067995 L217.835375,85.1321995 L217.664675,86.1749995 L217.494575,87.2198995 L217.280375,88.2811995 L217.065775,89.3483995 L216.811575,90.4293995 L216.558775,91.5078995 L216.263375,92.6006995 L215.967875,93.6951995 L215.630775,94.8025995 L215.292675,95.9149995 L214.917275,97.0383995 L214.543275,98.1594995 L214.128975,99.2917995 L213.714675,100.425399 L213.261275,101.568899 L212.806575,102.716399 L212.317075,103.871999 L211.828675,105.025699 L211.302675,106.187199 L210.776375,107.349699 L210.212475,108.518399 L209.647275,109.690499 L209.049475,110.867799 L208.453075,112.043199 L207.821475,113.223399 L207.189875,114.404399 L206.524275,115.588799 L205.857375,116.776199 L205.160375,117.965799 L204.464575,119.153899 L203.736375,120.343499 L203.008175,121.533799 L202.248575,122.724499 L201.487775,123.917499 L200.699275,125.110099 L199.911875,126.301199 L199.094975,127.490799 L198.277975,128.680899 L197.432375,129.868399 L196.585375,131.057799 L195.713175,132.244099 L194.842375,133.428899 L193.944475,134.609199 L193.046675,135.789799 L192.122875,136.964699 L191.197875,138.141499 L190.249975,139.312199 L189.303475,140.481499 L188.332775,141.643299 L187.362075,142.805299 L186.368175,143.958499 L185.372975,145.113399 L184.357675,146.259599 L183.344475,147.405099 L182.309675,148.540099 L181.275175,149.675099 L180.219975,150.798599 L179.163675,151.923399 L178.089475,153.036799 L177.016675,154.148899 L175.925175,155.247299 L174.833675,156.345699 L173.724475,157.429399 L172.614975,158.515499 L171.490175,159.587399 L170.366975,160.658099 L169.227675,161.711999 L168.088675,162.766099 L166.934475,163.802299 L165.779075,164.839899 L164.610675,165.860599 L163.444075,166.879699 L162.264075,167.879399 L161.084575,168.879099 L159.892775,169.858199 L158.699775,170.838699 L157.496175,171.799399 L156.294575,172.758799 L155.082375,173.695399 L153.870575,174.632099 L152.649075,175.544799 L151.426275,176.458799 L150.195375,177.350599 L148.966975,178.240899 L147.731075,179.106299 L146.495775,179.971499 L145.253475,180.809999 L144.009675,181.649899 L142.760375,182.464399 L141.513675,183.277599 L140.261775,184.061999 L139.010575,184.846399 L137.755275,185.600999 L136.498275,186.356899 L135.238575,187.085199 L133.981875,187.812299 L132.722875,188.507799 L131.464575,189.203199 L130.204975,189.865799 L128.943575,190.529799 L127.681675,191.163099 L126.423275,191.794899 L125.165275,192.392199 L123.908275,192.989499 L122.652675,193.550999 L121.394975,194.113599 L120.139375,194.642799 L118.887775,195.170599 L117.639375,195.660899 L116.392275,196.151199 L115.149375,196.602999 L113.904275,197.055999 L112.663875,197.473099 L111.428275,197.889299 L110.198575,198.264899 L108.970575,198.640699 L107.749575,198.975099 L106.525975,199.310799 L105.309575,199.607899 L104.098875,199.904299 L102.896975,200.157599 L101.696875,200.411199 L100.506675,200.620699 L99.3014752,200.833599 L98.1300752,201.011699 L96.9557752,201.168899 L95.7857752,201.303799 L94.6220752,201.418099 L93.4682752,201.509099 L92.3191752,201.577199 L91.1770752,201.622999 L90.0456752,201.645099 L88.9194752,201.643599 L87.8009752,201.620599 L86.6939752,201.573599 L85.5926752,201.502299 L84.4994752,201.408999 L83.4185752,201.291599 L82.3435752,201.148999 L81.2771752,200.984099 L80.2236752,200.794799 L79.1763752,200.579599 L78.1379752,200.341399 L77.1130752,200.078499 L76.0947752,199.788299 L75.0856752,199.474599 L74.0902752,199.135999 L73.1015752,198.769699 L72.1223752,198.379499 L71.1569752,197.963799 L70.1985752,197.519499 L69.2497752,197.050399 L68.3149752,196.555399 L67.3901752,196.032199 L66.3218752,195.390199 L65.2600752,194.752999 L64.2422752,194.098999 L63.2240752,193.445399 L62.2487752,192.775499 L61.2695752,192.103699 L60.3284752,191.417099 L59.3906752,190.733899 L58.4939752,190.034599 L57.5966752,189.336199 L56.7395752,188.621999 L55.8782752,187.905599 L55.0526752,187.175299 L54.2298752,186.448599 L53.4454752,185.706999 L52.6602752,184.965799 L51.9122752,184.210099 L51.1597752,183.451599 L50.4403752,182.680099 L49.7233752,181.912599 L49.0418752,181.130799 L48.3592752,180.349199 L47.7111752,179.553899 L47.0590752,178.754899 L46.4376752,177.943599 L45.8180752,177.135999 L45.2312752,176.315199 L44.6432752,175.494099 L44.0871752,174.659999 L43.5272752,173.821899 L42.9955752,172.971999 L42.4652752,172.125699 L41.9640752,171.267499 L41.4613752,170.408899 L40.9879752,169.537799 L40.5112752,168.662299 L40.0604752,167.775799 L39.6105752,166.892499 L39.1882752,165.997399 L38.7646752,165.101299 L38.3678752,164.193799 L37.9682752,163.281599 L37.5923752,162.359099 L37.2169752,161.439399 L36.8666752,160.508799 L36.5152752,159.576899 L36.1880752,158.634199 L35.8611752,157.686399 L35.5583752,156.728099 L35.2557752,155.772299 L34.9759752,154.806599 L34.6953752,153.839399 L34.4365752,152.862799 L34.1761752,151.881799 L33.9349752,150.892199 L33.6939752,149.904599 L33.4731752,148.907899 L33.2517752,147.909899 L33.0497752,146.903199 L32.8466752,145.892299 L32.6604752,144.873899 L32.4743752,143.856899 L32.3076752,142.831499 L32.1466752,141.803799 L32.0027752,140.768299 L31.8580752,139.729299 L31.7281752,138.683699 L31.5982752,137.639299 L31.4837752,136.587699 L31.3689752,135.534899 L31.2687752,134.475399 L31.1690752,133.422299 L31.0876752,132.360699 L31.0034752,131.268899 L30.9192752,130.177099 L30.8384752,129.125599 L30.7818752,128.062199 L30.7201752,126.959299 L30.6553752,125.856399 L30.5927752,124.787799 L30.5507752,123.708799 L30.5068752,122.595899 L30.4630752,121.483099 L30.4204752,120.396499 L30.3936752,119.301599 L30.3659752,118.180799 L30.3382752,117.059799 L30.3112752,115.962499 L30.2985752,114.857399 L30.2853752,113.728999 L30.2721752,112.600599 L30.2591752,111.489599 L30.2551752,110.372399 L30.2508752,109.237899 L30.2466752,108.103399 L30.2424752,106.979999 L30.2451752,105.851999 L30.2478752,104.712999 L30.2504752,103.573799 L30.2531752,102.441899 L30.2601752,101.306199 L30.2671752,100.163499 L30.2741752,99.0206995 L30.2811752,97.8790995 L30.2889752,96.7351995 L30.2965752,95.5902995 L30.3025752,94.4452995 L30.3085752,93.2964995 L30.3121752,92.1467995 L30.3157752,91.0008995 L30.3193752,89.8549995 L30.3229752,88.6995995 L30.3207752,87.5443995 L30.3186752,86.3987995 L30.3165752,85.2530995 L30.3142752,84.0917995 L30.3025752,82.9320995 L30.2909752,81.7881995 L30.2794752,80.6440995 L30.2676752,79.4862995 L30.2475752,78.3301995 L30.2274752,77.1760995 L30.2001752,76.0236995 L30.1727752,74.8695995 L30.1373752,73.7176995 L30.1018752,72.5657995 L30.0581752,71.4159995 L30.0144752,70.2632995 L29.9609752,69.1133995 L29.9072752,67.9617995 L29.8428752,66.8132995 L29.7784752,65.6650995 L29.7036752,64.5199995 L29.6284752,63.3715995 L29.5401752,62.2268995 L29.4514752,61.0803995 L29.3494752,59.9380995 L29.2474752,58.7963995 L29.1325752,57.6587995 L29.0172752,56.5171995 L28.8869752,55.3802995 L28.7562752,54.2417995 L28.6097752,53.1081995 L28.4631752,51.9757995 L28.3014752,50.8480995 L28.1389752,49.7162995 L27.9588752,48.5900995 L27.7782752,47.4619995 L27.5788752,46.3398995 L27.3792752,45.2195995 L27.1620752,44.1050995 L26.9436752,42.9856995 L26.7050752,41.8730995 L26.4657752,40.7585995 L26.2053752,39.6511995 L25.9450752,38.5459995 L25.6648752,37.4473995 L25.3828752,36.3435995 L25.0781752,35.2474995 L24.7724752,34.1497995 L24.4430752,33.0601995 L24.1139752,31.9730995 L23.7626752,30.8937995 L23.4088752,29.8088995 L23.0297752,28.7329995 L22.6494752,27.6553995 L22.2427752,26.5870995 L21.8366752,25.5218995 L21.4059752,24.4653995 L20.9721752,23.4032995 L20.5104752,22.3511995 L20.0473752,21.2976995 L19.5553752,20.2546995 L19.0642752,19.2152995 L18.5462752,18.1855995 L18.0245752,17.1504995 L17.4723752,16.1263995 L16.9185752,15.1013995 L16.3333752,14.0880995 L15.7496752,13.0786995 L15.1366752,12.0802995 L14.5193752,11.0764995 L13.8691752,10.0852995 L13.2173752,9.09339946 L12.5316752,8.11419946 L11.8479752,7.13959946 L11.1329752,6.17689946 L10.4130752,5.20929946 L9.65787523,4.25549946 L8.90117523,3.30119946 L8.10827523,2.36129946 L7.35667523,1.47069946 C5.86267523,-0.286200545 3.22737523,-0.499200545 1.47057523,0.994799455 C-0.286124766,2.48889946 -0.499224766,5.12409946 0.994775234,6.88099946 Z" id="Fill-10"></path>
            <path d="M296.635875,107.408799 L297.186375,106.200199 L297.744175,104.972699 L298.291675,103.712999 L298.796075,102.409199 L299.295775,101.083599 L299.921175,99.8036995 L300.517275,98.5043995 L301.143775,97.2075995 L301.751275,95.8928995 L302.344175,94.5618995 L302.861275,93.1990995 L303.365775,91.8386995 L303.861575,90.4596995 L304.350675,89.0863995 L304.767575,87.6936995 L305.119175,86.2858995 L305.464775,84.8812995 L305.778375,83.4764995 L306.054075,82.0671995 L306.272575,80.6477995 L306.435975,79.2255995 L306.541975,77.7970995 L306.576275,76.3592995 L306.535475,74.9564995 C306.509775,74.1642995 305.846475,73.5427995 305.054175,73.5685995 C304.261975,73.5942995 303.640475,74.2574995 303.666275,75.0498995 L303.714175,76.3758995 L303.691475,77.6656995 L303.603175,78.9619995 L303.454475,80.2606995 L303.238375,81.5569995 L302.965675,82.8559995 L302.634175,84.1521995 L302.235975,85.4387995 L301.753275,86.7108995 L301.260675,87.9866995 L300.764775,89.2679995 L300.208775,90.5281995 L299.583475,91.7833995 L298.971075,93.0362995 L298.345175,94.2819995 L297.733975,95.5438995 L297.086975,96.7786995 L296.409475,98.0109995 L295.740975,99.2286995 L294.941775,100.374399 L294.150775,101.513599 L293.412675,102.670099 L292.703475,103.828199 L292.013675,104.972699 C291.341075,106.249099 291.830375,107.829099 293.106775,108.501799 C294.383175,109.174499 295.963175,108.685199 296.635875,107.408799 Z" id="Fill-123"></path>
            <path d="M307.147075,110.787599 L307.324875,109.425799 L307.501575,108.034199 L307.622775,106.618099 L307.684375,105.194699 L307.720075,103.758599 L307.882875,102.344199 L307.998375,100.916099 L308.141975,99.4889995 L308.258275,98.0535995 L308.354975,96.6155995 L308.380375,95.1711995 L308.393675,93.7290995 L308.394575,92.2886995 L308.426075,90.8469995 L308.384775,89.4082995 L308.306275,87.9698995 L308.224875,86.5403995 L308.163975,85.1179995 L308.082075,83.6899995 L307.976375,82.2723995 L307.853575,80.8622995 L307.710975,79.4587995 L307.541275,78.0626995 L307.346175,76.6912995 C307.231975,75.9067995 306.503475,75.3633995 305.718975,75.4775995 C304.934575,75.5917995 304.391175,76.3202995 304.505275,77.1046995 L304.704875,78.4457995 L304.875975,79.7837995 L305.021575,81.1337995 L305.139975,82.4929995 L305.225075,83.8601995 L305.284775,85.2300995 L305.300575,86.6200995 L305.295875,88.0028995 L305.202475,89.3914995 L305.146175,90.7794995 L305.076175,92.1698995 L304.975675,93.5615995 L304.812975,94.9492995 L304.662375,96.3346995 L304.505475,97.7158995 L304.368275,99.0996995 L304.185775,100.472099 L303.975275,101.843699 L303.750275,103.203799 L303.398175,104.542299 L303.008475,105.857899 L302.678375,107.180999 L302.345275,108.483699 L302.013375,109.816399 C301.745175,111.234099 302.676975,112.600699 304.094575,112.868899 C305.512275,113.137099 306.878875,112.205299 307.147075,110.787599 Z" id="Fill-124"></path>
        </g>
    </g>
</svg>
