<?xml version="1.0" encoding="UTF-8"?>
<svg width="223px" height="164px" viewBox="0 0 223 164" version="1.1" xmlns="http://www.w3.org/2000/svg" xmlns:xlink="http://www.w3.org/1999/xlink">
    <title>255</title>
    <g id="Page-1" stroke="none" stroke-width="1" fill="none" fill-rule="evenodd">
        <g id="255" transform="translate(0.005765, 0.473994)" fill="currentColor">
            <path d="M22.71728,2.19639949 L21.89938,3.73329949 L21.06993,5.29179949 L20.27531,6.82839949 L19.48078,8.36499949 L18.7207,9.87989949 L17.96175,11.3927995 L17.23385,12.8859995 L16.50498,14.3815995 L15.80993,15.8554995 L15.11499,17.3295995 L14.45352,18.7823995 L13.7932,20.2328995 L13.16302,21.6641995 L12.5319,23.0978995 L11.93362,24.5105995 L11.33548,25.9233995 L10.76982,27.3151995 L10.20533,28.7046995 L9.67009,30.0751995 L9.13396,31.4485995 L8.6297,32.8011995 L8.12561,34.1539995 L7.65304,35.4861995 L7.18201,36.8160995 L6.73987,38.1272995 L6.29693,39.4417995 L5.88488,40.7359995 L5.47307,42.0302995 L5.0918,43.3044995 L4.71169,44.5757995 L4.35907,45.8288995 L4.00578,47.0852995 L3.6825,48.3218995 L3.36084,49.5590995 L3.06877,50.7763995 L2.77782,51.9905995 L2.5135,53.1868995 L2.2487,54.3868995 L2.01291,55.5672995 L1.7775,56.7478995 L1.57078,57.9091995 L1.36509,59.0669995 L1.18521,60.2072995 L1.00509,61.3514995 L0.8531,62.4765995 L0.70156,63.6017995 L0.57784,64.7081995 L0.45503,65.8106995 L0.35721,66.8958995 L0.25947,67.9854995 L0.18899,69.0562995 L0.11907,70.1271995 L0.07609,71.1795995 L0.03336,72.2422995 L-1.13686838e-13,74.2946995 L0.02225,76.3293995 L0.09777,78.3225295 L0.22147,80.2824895 L0.39787,82.2105895 L0.6256,84.0973095 L0.9001,85.9509495 L1.22918,87.7723595 L1.60802,89.5520195 L2.03199,91.2982395 L2.50612,93.0127195 L3.02706,94.6853195 L3.59139,96.3243595 L4.20439,97.9312995 L4.86562,99.4945295 L5.573,101.021379 L6.3269,102.515159 L7.12179,103.966449 L7.95544,105.383079 L8.83342,106.766259 L9.74936,108.107199 L10.70154,109.413599 L11.69018,110.690329 L12.70806,111.930809 L13.76016,113.137589 L14.85215,114.311059 L15.97657,115.444599 L17.1326,116.544699 L18.32585,117.611719 L19.54864,118.639909 L20.79862,119.637719 L22.07911,120.608539 L23.38689,121.542009 L24.72175,122.444109 L26.08898,123.314109 L27.48101,124.148209 L28.89785,124.951679 L30.34454,125.723779 L31.81415,126.460469 L33.30717,127.165909 L34.82751,127.840349 L36.36817,128.481709 L37.9294,129.094259 L39.51561,129.676779 L41.12018,130.227319 L42.74341,130.750139 L44.38962,131.242699 L46.05237,131.704369 L47.7319,132.139059 L49.43194,132.545189 L51.14661,132.921769 L52.87626,133.272359 L54.62427,133.595109 L56.38514,133.889549 L58.15922,134.158589 L59.94957,134.400779 L61.75099,134.615499 L63.56388,134.805689 L65.39095,134.969629 L67.22732,135.107199 L69.07336,135.221949 L70.93153,135.311909 L72.79724,135.376239 L74.67097,135.417749 L76.55483,135.434229 L78.44443,135.426169 L80.34031,135.395899 L82.24435,135.343649 L84.15236,135.267839 L86.06492,135.170549 L87.98372,135.049829 L89.90452,134.906029 L91.82812,134.741349 L93.75592,134.553849 L95.69172,134.343409 L97.61202,134.104879 L99.54262,133.864889 L101.47372,133.581559 L103.40432,133.297869 L105.33242,132.972069 L107.25722,132.647239 L109.17762,132.284809 L111.10042,131.921529 L113.01582,131.517839 L114.93082,131.113789 L116.83542,130.670189 L118.73672,130.226339 L120.62612,129.746969 L122.51812,129.266619 L124.39452,128.748309 L126.27082,128.229879 L128.12862,127.674459 L129.98342,127.119279 L131.81872,126.530169 L133.65662,125.939719 L135.47102,125.314229 L137.28532,124.688379 L139.07312,124.028339 L140.85822,123.369039 L142.61662,122.678849 L144.37782,121.986959 L146.10732,121.262719 L147.83712,120.537859 L149.53232,119.781389 L151.21752,119.029069 L152.89362,118.248309 L154.54402,117.452659 L156.17302,116.642479 L157.78342,115.818619 L159.37432,114.979149 L160.94192,114.125879 L162.48912,113.259419 L164.01482,112.377709 L165.51422,111.481339 L166.99152,110.572409 L168.44542,109.648699 L169.87192,108.712549 L171.27442,107.764179 L172.65162,106.801529 L173.99932,105.826929 L175.32132,104.840599 L176.61602,103.840229 L177.87912,102.828629 L179.11472,101.805559 L180.32112,100.768699 L181.49382,99.7212095 L182.63702,98.6626195 L183.74902,97.5903495 L184.82532,96.5080795 L185.87012,95.4149395 L186.88162,94.3081295 L187.85502,93.1919195 L188.79512,92.0650795 L189.69962,90.9245795 L190.56372,89.7752895 L191.39232,88.6157395 L192.18292,87.4422795 L192.93222,86.2617395 L193.64362,85.0710695 L194.31452,83.8663495 L194.94012,82.6544395 L195.52522,81.4327595 L196.06682,80.1970395 L196.56042,78.9552195 L197.01102,77.7043995 L197.41472,76.4397995 L197.76792,75.1706995 L198.07542,73.8935995 L198.33272,72.6034995 L198.53692,71.3107995 L198.69252,70.0115995 L198.79452,68.7008995 L198.84122,67.3896995 L198.83702,66.0739995 L198.77612,64.7487995 L198.65832,63.4253995 L198.48812,62.0994995 L198.26012,60.7663995 L197.97422,59.4368995 L197.63412,58.1069995 L197.23292,56.7720995 L196.77312,55.4425995 L196.25822,54.1143995 L195.68082,52.7831995 L195.04822,51.4664995 L194.55282,50.5184995 L194.03512,49.6115995 L193.49622,48.7456995 L192.93532,47.9137995 L192.34792,47.1153995 L191.74022,46.3583995 L191.11142,45.6359995 L190.45632,44.9476995 L189.78302,44.3013995 L189.09002,43.6901995 L188.37202,43.1141995 L187.63852,42.5804995 L186.88762,42.0823995 L186.11372,41.6204995 L185.32772,41.2002995 L184.52712,40.8158995 L183.70642,40.4677995 L182.87702,40.1597995 L182.03582,39.8865995 L181.17742,39.6493995 L180.31302,39.4504995 L179.43942,39.2847995 L178.55142,39.1537995 L177.65932,39.0584995 L176.76002,38.9944995 L175.84872,38.9637995 L174.93452,38.9657995 L174.01452,38.9971995 L173.08422,39.0600995 L172.15192,39.1532995 L171.21472,39.2740995 L170.26882,39.4255995 L169.32182,39.6069995 L168.37072,39.8140995 L167.41232,40.0495995 L166.45262,40.3113995 L165.48962,40.5972995 L164.52032,40.9100995 L163.55012,41.2475995 L162.57712,41.6077995 L161.59882,41.9935995 L160.62002,42.4025995 L159.63912,42.8331995 L158.65382,43.2878995 L157.66962,43.7668995 L156.68462,44.2673995 L155.69642,44.7908995 L154.70092,45.3394995 L153.72132,45.9073995 L152.73212,46.4810995 L151.74072,47.0961995 L150.75092,47.7109995 L149.76042,48.3653995 L148.77382,49.0177995 L147.78762,49.7049995 L146.79902,50.3920995 L145.81152,51.1152995 L144.82512,51.8379995 L143.84192,52.5959995 L142.86172,53.3520995 L141.88542,54.1388995 L140.90802,54.9272995 L139.93632,55.7478995 L138.96532,56.5683995 L138.00172,57.4195995 L137.03982,58.2682995 L136.08522,59.1431995 L135.12942,60.0196995 L134.18352,60.9240995 L133.23812,61.8283995 L132.30422,62.7590995 L131.37222,63.6880995 L130.45192,64.6398995 L129.53042,65.5931995 L128.62292,66.5700995 L127.71522,67.5462995 L126.82312,68.5445995 L125.93262,69.5413995 L125.05772,70.5567995 L124.18162,71.5739995 L123.32392,72.6103995 L122.46632,73.6468995 L121.62872,74.7010995 L120.79262,75.7536995 L119.97492,76.8202995 L119.15572,77.8887995 L118.35932,78.9720695 L117.56282,80.0556895 L116.79072,81.1524895 L116.01982,82.2479495 L115.27232,83.3541495 L114.52352,84.4625495 L113.80172,85.5815595 L113.07992,86.7010695 L112.38672,87.8293695 L111.69482,88.9563195 L111.03002,90.0899895 L110.36402,91.2264595 L109.72942,92.3690395 L109.09482,93.5123495 L108.49312,94.6602995 L107.89252,95.8066595 L107.32322,96.9559495 L106.75202,98.1080495 L106.21642,99.2621095 L105.68082,100.417259 L105.18262,101.572649 L104.68552,102.726339 L104.22372,103.879169 L103.76072,105.035909 L103.33792,106.190329 L102.91522,107.346089 L102.53432,108.498069 L102.15432,109.647969 L101.81352,110.793109 L101.47192,111.943139 L101.17502,113.086569 L100.87842,114.231949 L100.62832,115.369159 L100.38152,116.494039 L100.16282,117.635279 L99.97032,118.764429 L99.80332,119.887109 L99.65952,121.005509 L99.54142,122.121119 L99.45002,123.228899 L99.38302,124.331559 L99.34332,125.430689 L99.33162,126.520649 L99.34562,127.604389 L99.38862,128.683859 L99.46082,129.752709 L99.56022,130.814229 L99.69022,131.870379 L99.85082,132.914449 L100.03992,133.950089 L100.26152,134.978899 L100.51472,135.994039 L100.79792,136.999289 L101.11532,137.996239 L101.46532,138.977679 L101.84652,139.947649 L102.26372,140.907489 L102.71422,141.849999 L103.19692,142.779069 L103.71692,143.696309 L104.27082,144.594139 L104.85762,145.476949 L105.48282,146.345599 L106.14222,147.193259 L106.83502,148.024069 L107.56702,148.838889 L108.33332,149.631119 L109.13332,150.405169 L109.97302,151.161149 L110.84722,151.893579 L111.75532,152.606469 L112.70362,153.299699 L113.68662,153.968649 L114.70382,154.617089 L115.76152,155.244649 L116.85422,155.847679 L117.98172,156.429219 L119.15022,156.988549 L120.35472,157.522729 L121.59452,158.034689 L122.87602,158.523339 L124.19432,158.986469 L125.54872,159.426779 L126.94562,159.842789 L128.38022,160.233179 L129.85192,160.600119 L131.36692,160.941789 L132.92102,161.256859 L134.51322,161.547869 L136.14952,161.812519 L137.82642,162.049949 L139.54222,162.262589 L141.30332,162.447779 L143.10622,162.605119 L144.94922,162.736839 L146.83832,162.840229 L148.77072,162.914819 L150.74422,162.962909 L152.75942,162.981709 L153.79842,162.976339 L154.83032,162.970849 L155.88342,162.951799 L156.93782,162.932639 L158.01582,162.898459 L159.09362,162.864159 L160.19522,162.814599 L161.29532,162.765039 L162.41722,162.701319 L163.54032,162.637589 L164.68762,162.558249 L165.83472,162.478779 L167.00622,162.383689 L168.19152,162.287129 L170.03552,162.099999 L171.90262,161.853289 L173.76962,161.552879 L175.63802,161.206319 L177.50962,160.811669 L179.37832,160.373799 L181.24522,159.899069 L183.11142,159.386369 L184.97172,158.840349 L186.82712,158.266499 L188.67772,157.664569 L190.52452,157.037249 L192.34852,156.386249 L194.17582,155.734029 L195.98602,155.050189 L197.79022,154.368429 L199.57152,153.668969 L201.34702,152.971819 L203.09692,152.269549 L204.84242,151.568989 L206.55472,150.875019 L208.26092,150.183369 L209.92772,149.511979 L211.59692,148.839619 C212.77212,148.365989 213.34082,147.029199 212.86712,145.854029 C212.39332,144.678729 211.05662,144.110009 209.88142,144.583759 L208.21252,145.256979 L206.54132,145.931169 L204.83082,146.625629 L203.12642,147.317649 L201.38852,148.016129 L199.65502,148.713029 L197.89582,149.404929 L196.14262,150.094499 L194.36632,150.766619 L192.59592,151.436789 L190.80862,152.075699 L189.01812,152.715959 L187.23312,153.323389 L185.44262,153.906879 L183.65082,154.462179 L181.86062,154.988669 L180.07512,155.480249 L178.29242,155.934589 L176.51562,156.352069 L174.74872,156.725609 L172.98882,157.053119 L171.23912,157.335709 L169.50482,157.565939 L167.76562,157.742939 L166.63512,157.835349 L165.49082,157.929099 L164.37142,158.007099 L163.25212,158.085229 L162.15772,158.147849 L161.06212,158.210589 L159.98882,158.259539 L158.91702,158.308489 L157.86972,158.342309 L156.82252,158.376119 L155.79962,158.395159 L154.77542,158.414329 L153.77322,158.420189 L152.77812,158.426049 L150.81932,158.408959 L148.91242,158.363419 L147.04882,158.292499 L145.23412,158.194239 L143.46452,158.068749 L141.73732,157.919089 L140.05822,157.743309 L138.42312,157.541529 L136.82952,157.316919 L135.28312,157.067649 L133.77952,156.793599 L132.31642,156.497949 L130.89972,156.179219 L129.52462,155.837059 L128.18892,155.474509 L126.89892,155.090109 L125.64912,154.683489 L124.43782,154.257709 L123.27092,153.812519 L122.14272,153.346209 L121.05182,152.862199 L120.00412,152.360489 L118.99352,151.838769 L118.01892,151.300799 L117.08602,150.746729 L116.18892,150.173359 L115.32622,149.584979 L114.50352,148.982199 L113.71462,148.361469 L112.95842,147.726459 L112.24032,147.078759 L111.55432,146.413349 L110.89922,145.734759 L110.28032,145.044329 L109.69172,144.336809 L109.13252,143.616349 L108.60732,142.885029 L108.11112,142.136619 L107.64282,141.375749 L107.20662,140.604509 L106.79832,139.816179 L106.41662,139.015769 L106.06552,138.205099 L105.74152,137.377829 L105.44302,136.538469 L105.17372,135.689349 L104.93112,134.824119 L104.71332,133.947039 L104.52342,133.060689 L104.35982,132.158829 L104.22042,131.245869 L104.10792,130.324119 L104.02142,129.387839 L103.95842,128.441059 L103.92152,127.486349 L103.91002,126.518209 L103.92162,125.540549 L103.95822,124.555689 L104.01992,123.558739 L104.10402,122.553489 L104.21222,121.541769 L104.34482,120.519429 L104.49912,119.489769 L104.67672,118.454729 L104.87582,117.420549 L105.11102,116.355979 L105.34292,115.303729 L105.61992,114.241599 L105.89672,113.177509 L106.21722,112.104999 L106.53862,111.027609 L106.89862,109.944109 L107.25782,108.862569 L107.65812,107.775659 L108.05832,106.687279 L108.49822,105.595239 L108.93922,104.499169 L109.41502,103.401139 L109.88962,102.304829 L110.40112,101.207779 L110.91282,100.109639 L111.45982,99.0123495 L112.00872,97.9122495 L112.58862,96.8143495 L113.16732,95.7180395 L113.77862,94.6255095 L114.38992,93.5322495 L115.03242,92.4444795 L115.67612,91.3540295 L116.34672,90.2699195 L117.01622,89.1872795 L117.71392,88.1130595 L118.41172,87.0382295 L119.13612,85.9735295 L119.86192,84.9065195 L120.61062,83.8499995 L121.35812,82.7948195 L122.12952,81.7525795 L122.90082,80.7099795 L123.69452,79.6819095 L124.48972,78.6521195 L125.30492,77.6375995 L126.11862,76.6244995 L126.95192,75.6288995 L127.78502,74.6330995 L128.63602,73.6563995 L129.48832,72.6778995 L130.35552,71.7178995 L131.22122,70.7594995 L132.10192,69.8229995 L132.98302,68.8870995 L133.87772,67.9748995 L134.77362,67.0608995 L135.68052,66.1696995 L136.58542,65.2800995 L137.50102,64.4167995 L138.41612,63.5535995 L139.34022,62.7183995 L140.26562,61.8816995 L141.19842,61.0721995 L142.12942,60.2652995 L143.06662,59.4889995 L144.00312,58.7131995 L144.94412,57.9695995 L145.88632,57.2245995 L146.83132,56.5103995 L147.77342,55.7980995 L148.71702,55.1209995 L149.65962,54.4441995 L150.60262,53.8050995 L151.54802,53.1659995 L152.49202,52.5617995 L153.43202,51.9595995 L154.36892,51.3968995 L155.30412,50.8345995 L156.23452,50.3135995 L157.17442,49.7864995 L158.09202,49.2981995 L159.01132,48.8280995 L159.92742,48.3792995 L160.83782,47.9494995 L161.73942,47.5412995 L162.63672,47.1551995 L163.52782,46.7903995 L164.40932,46.4501995 L165.28552,46.1330995 L166.15402,45.8378995 L167.01122,45.5680995 L167.86192,45.3223995 L168.70352,45.0992995 L169.53202,44.9020995 L170.35282,44.7295995 L171.16322,44.5802995 L171.95842,44.4555995 L172.74502,44.3551995 L173.52012,44.2782995 L174.27862,44.2277995 L175.02792,44.2029995 L175.76472,44.2019995 L176.48352,44.2268995 L177.19282,44.2782995 L177.88912,44.3532995 L178.56642,44.4538995 L179.23432,44.5813995 L179.88912,44.7325995 L180.52492,44.9089995 L181.15182,45.1133995 L181.76622,45.3420995 L182.36212,45.5959995 L182.94992,45.8798995 L183.52612,46.1890995 L184.08492,46.5241995 L184.63642,46.8918995 L185.17712,47.2865995 L185.70162,47.7090995 L186.21872,48.1672995 L186.72532,48.6552995 L187.21622,49.1731995 L187.69882,49.7301995 L188.17032,50.3196995 L188.62622,50.9418995 L189.07172,51.6059995 L189.50502,52.3049995 L189.92142,53.0395995 L190.32112,53.8105995 L190.87442,54.9715995 L191.36572,56.1145995 L191.80362,57.2563995 L192.19242,58.3926995 L192.52672,59.5187995 L192.81012,60.6441995 L193.04732,61.7646995 L193.23332,62.8749995 L193.36932,63.9858995 L193.46102,65.0925995 L193.50452,66.1896995 L193.50092,67.2880995 L193.45522,68.3831995 L193.36382,69.4696995 L193.22642,70.5581995 L193.04812,71.6440995 L192.82602,72.7221995 L192.55852,73.8023995 L192.25112,74.8800995 L191.90132,75.9506995 L191.50682,77.0227995 L191.07342,78.0922995 L190.59912,79.1548095 L190.08102,80.2177895 L189.52492,81.2777295 L188.92942,82.3303395 L188.29122,83.3820995 L187.61622,84.4299495 L186.90172,85.4691395 L186.14592,86.5057595 L185.35482,87.5376195 L184.52742,88.5609295 L183.66032,89.5803395 L182.75942,90.5938895 L181.82402,91.5982895 L180.85072,92.5974295 L179.84532,93.5896195 L178.80722,94.5719195 L177.73322,95.5476295 L176.62882,96.5155195 L175.49362,97.4727995 L174.32462,98.4222595 L173.12712,99.3629395 L171.90072,100.292259 L170.64252,101.212549 L169.35782,102.123189 L168.04612,103.021869 L166.70482,103.910419 L165.33882,104.788599 L163.94792,105.653949 L162.52962,106.508319 L161.08842,107.351459 L159.62522,108.182519 L158.13682,109.001849 L156.62732,109.809099 L155.09702,110.602319 L153.54362,111.382709 L151.97112,112.150409 L150.37982,112.903339 L148.77572,113.641259 L147.13032,114.366229 L145.49482,115.087179 L143.82452,115.777369 L142.15382,116.468159 L140.45132,117.127099 L138.74602,117.787859 L137.01422,118.419449 L135.28512,119.050439 L133.52932,119.647849 L131.77352,120.245749 L129.99402,120.809099 L128.21182,121.373679 L126.41082,121.907369 L124.61282,122.440819 L122.79622,122.938249 L120.97982,123.435809 L119.14792,123.896259 L117.31342,124.357689 L115.46732,124.784929 L113.62442,125.212549 L111.77122,125.601219 L109.91832,125.990129 L108.05812,126.339129 L106.19542,126.688989 L104.32842,127.001729 L102.46472,127.313499 L100.59892,127.583639 L98.73372,127.854029 L96.86932,128.081809 L94.99482,128.311299 L93.13952,128.509299 L91.28092,128.686059 L89.42432,128.840959 L87.57152,128.975729 L85.72522,129.087909 L83.88299,129.177629 L82.04653,129.246599 L80.21882,129.292139 L78.39714,129.312279 L76.58327,129.311179 L74.78043,129.286399 L72.98572,129.237939 L71.20077,129.167499 L69.42911,129.073139 L67.66766,128.953509 L65.918,128.810689 L64.18395,128.643329 L62.4621,128.450949 L60.75395,128.235739 L59.06369,127.995629 L57.38762,127.729879 L55.72719,127.440819 L54.08694,127.126609 L52.46284,126.786029 L50.85631,126.421899 L49.27225,126.032249 L47.70626,125.615739 L46.15974,125.175189 L44.63784,124.709369 L43.13559,124.216939 L41.65464,123.700089 L40.20055,123.157489 L38.76817,122.586809 L37.35887,121.991599 L35.97854,121.370499 L34.62166,120.720719 L33.28869,120.047869 L31.98616,119.349869 L30.70861,118.622339 L29.45727,117.869649 L28.23856,117.091209 L27.04637,116.282489 L25.88181,115.448259 L24.75145,114.588279 L23.65354,113.691669 L22.58686,112.767229 L21.55617,111.817159 L20.5553,110.835229 L19.58492,109.827289 L18.65172,108.793479 L17.74972,107.726709 L16.8793,106.632829 L16.05331,105.508199 L15.26601,104.345479 L14.51197,103.155539 L13.79771,101.939229 L13.11833,100.687399 L12.47339,99.4071295 L11.86925,98.0995095 L11.30187,96.7544195 L10.76524,95.3814895 L10.26624,93.9810995 L9.8059,92.5410395 L9.38275,91.0689895 L9.00274,89.5663095 L8.66396,88.0222395 L8.36432,86.4448495 L8.10892,84.8352295 L7.89441,83.1833695 L7.7211,81.4967295 L7.59452,79.7761395 L7.51476,78.0115995 L7.47849,76.2111995 L7.49108,74.3753995 L7.55166,72.4803995 L7.60357,71.5341995 L7.65524,70.5774995 L7.73305,69.6004995 L7.81031,68.6232995 L7.91414,67.6257995 L8.01789,66.6237995 L8.14617,65.6032995 L8.27354,64.5865995 L8.42822,63.5490995 L8.58245,62.5114995 L8.76441,61.4530995 L8.9466,60.3907995 L9.15437,59.3095995 L9.3611,58.2316995 L9.5963,57.1329995 L9.83113,56.0339995 L10.09483,54.9139995 L10.35901,53.7901995 L10.64979,52.6473995 L10.93945,51.5075995 L11.2587,50.3466995 L11.57633,49.1851995 L11.92388,48.0022995 L12.27211,46.8160995 L12.6479,45.6103995 L13.02254,44.4073995 L13.42786,43.1829995 L13.83294,41.9583995 L14.26908,40.7121995 L14.70602,39.4628995 L15.17099,38.1936995 L15.63443,36.9269995 L16.12959,35.6383995 L16.62458,34.3497995 L17.1517,33.0390995 L17.6797,31.7255995 L18.23721,30.3921995 L18.79356,29.0612995 L19.38271,27.7081995 L19.97172,26.3548995 L20.59391,24.9793995 L21.21704,23.6014995 L21.87065,22.2033995 L22.52309,20.8072995 L23.20939,19.3888995 L23.89558,17.9704995 L24.616,16.5295995 L25.33739,15.0862995 L26.09019,13.6226995 L26.84186,12.1609995 L27.62842,10.6767995 L28.41489,9.19239949 L29.23663,7.68529949 L30.06991,6.15659949 C31.1635,4.12619949 30.4041,1.59379949 28.37372,0.500099487 C26.34335,-0.593400513 23.81088,0.165999487 22.71728,2.19639949 Z" id="Fill-8"></path>
            <path d="M188.20122,152.184709 L189.55062,151.857929 L190.89862,151.523819 L192.24222,151.164939 L193.57742,150.742089 L194.92322,150.337789 L196.28702,150.048359 L197.64832,149.745629 L199.02812,149.468409 L200.40812,149.179459 L201.77092,148.873679 L203.12752,148.536639 L204.49482,148.186179 L205.86152,147.839249 L207.23352,147.522359 L208.59352,147.160179 L209.94552,146.758079 L211.29892,146.375269 L212.65732,146.012839 L214.01002,145.638569 L215.36592,145.264549 L216.71282,144.868669 L218.06302,144.476579 L219.40032,144.051169 L220.72012,143.631249 C221.47482,143.388449 221.88982,142.579859 221.64702,141.825219 C221.40432,141.070579 220.59572,140.655659 219.84102,140.898339 L218.52392,141.326559 L217.22422,141.749409 L215.91142,142.139299 L214.59522,142.525289 L213.26582,142.874169 L211.93332,143.222679 L210.58952,143.535299 L209.24062,143.827539 L207.87502,144.054099 L206.51742,144.320579 L205.16032,144.593159 L203.79802,144.835839 L202.42682,145.032979 L201.04502,145.243669 L199.66942,145.485489 L198.31092,145.744159 L196.94992,145.974509 L195.57052,146.179339 L194.19352,146.397479 L192.79862,146.500749 L191.40652,146.574479 L190.02262,146.712179 L188.64332,146.874659 L187.26542,147.044449 C185.84592,147.302879 184.90472,148.662989 185.16312,150.082419 C185.42162,151.501969 186.78172,152.443139 188.20122,152.184709 Z" id="Fill-89"></path>
            <path d="M194.10472,162.291039 L194.73252,161.617699 L195.34682,161.032859 L196.00772,160.455099 L196.70662,159.883569 L197.42902,159.301899 L198.15472,158.675439 L198.97132,158.133809 L199.82782,157.626849 L200.68032,157.110739 L201.57512,156.576929 L203.30792,155.518819 L204.82702,154.538349 L206.29722,153.533709 L207.77922,152.542749 L209.28872,151.586079 L210.80422,150.636009 L212.29592,149.636369 L213.82122,148.692399 L215.36272,147.768329 L216.90432,146.844499 L218.45662,145.930079 L220.00142,145.004289 L221.54052,144.081809 C222.21922,143.672259 222.43732,142.789939 222.02772,142.111229 C221.61802,141.432519 220.73572,141.214379 220.05702,141.624039 L218.52372,142.556049 L216.99612,143.484639 L215.45782,144.396629 L213.90882,145.299089 L212.35402,146.191549 L210.78312,147.064109 L209.18352,147.886859 L207.60762,148.759179 L206.04212,149.647239 L204.44912,150.500999 L202.87312,151.381979 L201.34602,152.287009 L199.65122,153.273339 L198.79442,153.711319 L197.89522,154.166889 L197.00712,154.641129 L196.07922,155.080589 L195.08772,155.471699 L194.12592,155.951559 L193.18492,156.500389 L192.25482,157.108419 L191.34212,157.794209 L190.51802,158.491839 C189.46892,159.482199 189.42132,161.135639 190.41182,162.184709 C191.40222,163.233909 193.05562,163.281389 194.10472,162.291039 Z" id="Fill-90"></path>
        </g>
    </g>
</svg>
