<?xml version="1.0" encoding="UTF-8"?>
<svg width="261px" height="240px" viewBox="0 0 261 240" version="1.1" xmlns="http://www.w3.org/2000/svg" xmlns:xlink="http://www.w3.org/1999/xlink">
    <title>257</title>
    <g id="Page-1" stroke="none" stroke-width="1" fill="none" fill-rule="evenodd">
        <g id="257" transform="translate(0.584885, 0.915994)" fill="currentColor">
            <path d="M13.13277,76.9607 L12.68887,78.4413 L12.2401,79.938 L11.80856,81.4208 L11.37709,82.9035 L10.96271,84.3724 L10.54883,85.8397 L10.1504,87.2944 L9.75161,88.7506 L9.3697,90.1929 L8.98787,91.6352 L8.62281,93.0636 L8.25822,94.4904 L7.90878,95.9045 L7.559,97.3202 L7.22578,98.722 L6.89265,100.1238 L6.57595,101.5116 L6.2597,102.8978 L5.9583,104.2713 L5.6566,105.6465 L5.37113,107.0077 L5.08574,108.3689 L4.81646,109.7161 L4.54762,111.0616 L4.29331,112.3944 L4.03875,113.729 L3.80009,115.0495 L3.56152,116.3701 L3.33874,117.6767 L3.11635,118.9815 L2.90821,120.2735 L2.69986,121.5674 L2.50708,122.8473 L2.31441,124.1272 L2.13719,125.3931 L1.96034,126.6571 L1.79744,127.9084 L1.6348,129.1617 L1.48759,130.4009 L1.34049,131.6401 L1.20852,132.8653 L1.07688,134.0885 L0.95889,135.299 L0.8408,136.5115 L0.73764,137.7099 L0.6346,138.9084 L0.54637,140.0927 L0.45842,141.2751 L0.38383,142.4445 L0.30922,143.6162 L0.24922,144.7737 L0.1894,145.9313 L0.14493,147.0749 L0.10069,148.2162 L0.06951,149.3448 L0.03839,150.4755 L0.02155,151.5921 L0.00487,152.7088 L-1.13686838e-13,153.8113 L-1.13686838e-13,154.9116 L0.01042,155.999 L0.02101,157.0888 L0.04556,158.1643 L0.07029,159.24 L0.10887,160.3015 L0.14755,161.3606 L0.19871,162.4068 L0.25016,163.4555 L0.31526,164.49 L0.38117,165.5337 L0.53826,167.5628 L0.7208,169.5753 L0.93069,171.562 L1.1672,173.5177 L1.42804,175.4476 L1.71582,177.3517 L2.02953,179.2247 L2.36709,181.0718 L2.73342,182.8927 L3.12524,184.6821 L3.54038,186.4454 L3.98165,188.183 L4.44742,189.8888 L4.93604,191.5685 L5.45044,193.2222 L5.98863,194.8441 L6.5492,196.4396 L7.13524,198.0092 L7.74575,199.5459 L8.37891,201.0558 L9.03718,202.5395 L9.71765,203.9906 L10.41947,205.4148 L11.1461,206.8127 L11.89411,208.1777 L12.66296,209.5155 L13.45629,210.8266 L14.27014,212.1045 L15.10426,213.355 L15.96259,214.5783 L16.84535,215.7646 L17.74757,216.9228 L18.67327,218.0531 L19.61735,219.1496 L20.58019,220.2177 L21.566,221.2575 L22.56912,222.2631 L23.59025,223.2399 L24.63372,224.1879 L25.6934,225.1015 L26.77026,225.986 L27.86873,226.8411 L28.98169,227.6624 L30.10644,228.461 L31.25239,229.2297 L32.41263,229.9641 L33.58859,230.6692 L34.78489,231.3439 L35.9943,231.9844 L37.21848,232.5953 L38.46204,233.1753 L39.71759,233.7212 L40.98692,234.2375 L42.27464,234.7225 L43.57326,235.1735 L44.8847,235.5948 L46.21234,235.9886 L47.54958,236.3506 L48.89899,236.683 L50.26502,236.9836 L51.64028,237.251 L53.02682,237.4888 L54.42897,237.6946 L55.8395,237.8675 L57.26046,238.0109 L58.69604,238.1221 L60.13924,238.2008 L61.59209,238.25 L63.05858,238.2671 L64.53198,238.2504 L66.01422,238.2041 L67.50911,238.1255 L69.01023,238.0151 L70.51953,237.8753 L72.04055,237.7032 L73.56726,237.4994 L75.10149,237.2665 L76.64659,237.0013 L78.19684,236.7046 L79.75399,236.3789 L81.32117,236.0207 L82.89282,235.6305 L84.47074,235.2115 L86.05786,234.7599 L87.64914,234.2774 L89.2461,233.7659 L90.8515,233.222 L92.4605,232.6471 L94.0747,232.0434 L95.6965,231.4071 L97.3216,230.7402 L98.9512,230.0442 L100.5876,229.3158 L102.2268,228.5566 L103.8701,227.7686 L105.5194,226.948 L107.171,226.0967 L108.826,225.2166 L110.4865,224.3037 L112.1486,223.3603 L113.8137,222.388 L115.4841,221.3839 L117.1557,220.3493 L118.8297,219.2857 L120.5077,218.1895 L122.1816,217.0656 L123.026,216.485 L123.8669,215.9065 L124.7089,215.3122 L125.5507,214.7178 L126.3934,214.1076 L127.2347,213.4983 L128.0767,212.8745 L128.9201,212.2503 L129.7647,211.6104 L130.6091,210.9706 L131.4541,210.3149 L132.2978,209.6601 L133.1419,208.9909 L133.9872,208.3206 L134.8329,207.6344 L135.6785,206.9483 L136.5243,206.2461 L137.3689,205.545 L138.2137,204.8293 L139.0595,204.1126 L139.9054,203.38 L140.7512,202.6473 L141.597,201.8987 L142.4416,201.1511 L143.2861,200.389 L144.1316,199.626 L144.9768,198.8468 L145.822,198.0677 L146.6668,197.2726 L147.5105,196.4785 L148.3537,195.6698 L149.1979,194.8601 L150.0416,194.0344 L150.8851,193.2087 L151.728,192.3669 L152.5697,191.5261 L153.4108,190.6707 L154.2528,189.8143 L155.0939,188.9419 L155.9351,188.0697 L156.7753,187.1814 L157.6146,186.2941 L158.4528,185.3922 L159.2918,184.4892 L160.1296,183.5702 L160.9674,182.6512 L161.8038,181.716 L162.6392,180.7818 L163.4734,179.833 L164.3083,178.8832 L165.1416,177.9172 L165.975,176.9512 L166.8065,175.969 L167.6368,174.9875 L168.4655,173.9912 L169.2949,172.9941 L170.1224,171.9808 L170.9499,170.9674 L171.7754,169.9378 L172.6,168.9092 L173.4227,167.8659 L174.2461,166.8216 L175.0672,165.7611 L175.8883,164.7007 L176.707,163.6239 L177.525,162.5482 L178.34,161.4572 L179.1557,160.3652 L179.9689,159.257 L180.7819,158.1487 L181.5923,157.0243 L182.4019,155.9007 L183.209,154.7624 L184.0167,153.6231 L184.8215,152.4676 L185.6262,151.312 L186.4279,150.1402 L187.2289,148.9693 L188.0269,147.7835 L188.8253,146.5966 L189.6204,145.3935 L190.4155,144.1902 L191.2072,142.9707 L191.9983,141.7522 L192.7862,140.5187 L193.5747,139.2843 L194.3595,138.0337 L195.1443,136.7829 L195.9254,135.5158 L196.7059,134.2497 L197.4823,132.9683 L198.2587,131.6856 L199.0311,130.3866 L199.8035,129.0876 L200.5718,127.7721 L201.3395,126.4576 L202.1035,125.1282 L202.8679,123.7978 L203.628,122.4511 L204.3881,121.1043 L205.1438,119.7412 L205.8948,118.3863 L206.2295,117.7789 L206.585,117.1382 L206.9649,116.4571 L207.3659,115.7407 L207.7891,114.9865 L208.2334,114.1956 L208.6961,113.372 L209.1782,112.5137 L209.6786,111.6216 L210.1949,110.6994 L210.7279,109.7452 L211.2763,108.7599 L211.8382,107.7472 L212.414,106.7048 L213.0027,105.6343 L213.6023,104.5387 L214.2132,103.416 L214.8342,102.2679 L215.4638,101.0969 L216.1021,99.9015 L216.7478,98.6832 L217.3996,97.4446 L218.0575,96.1839 L218.7214,94.9007 L219.3877,93.5959 L220.0561,92.2873 L220.7288,90.9432 L221.402,89.5979 L222.0758,88.221 L222.7494,86.8441 L223.4205,85.4413 L224.0926,84.0363 L224.7585,82.6061 L225.425,81.1746 L226.0814,79.7215 L226.7377,78.2687 L227.3818,76.7992 L228.027,75.3271 L228.6555,73.8398 L229.2846,72.3511 L229.8941,70.8513 L230.5037,69.352 L231.0917,67.8453 L231.6808,66.3352 L232.2427,64.8202 L232.805,63.3031 L233.3363,61.7848 L233.8672,60.2669 L234.3668,58.7506 L234.8676,57.2301 L235.3306,55.7145 L235.7941,54.1964 L236.216,52.687 L236.6374,51.1783 L237.0178,49.6802 L237.3992,48.1762 L237.7321,46.6872 L238.065,45.1948 L238.3456,43.7208 L238.6234,42.2583 L238.8674,40.7863 L239.081,39.3319 L239.2644,37.8903 L239.4208,36.4588 L239.5454,35.0364 L239.6366,33.6291 L239.6966,32.2337 L239.7215,30.849 L239.7099,29.482 L239.664,28.1288 L239.5791,26.7879 L239.4544,25.4676 L239.292,24.1631 L239.0864,22.8728 L238.8375,21.6062 L238.5472,20.3579 L238.2095,19.1264 L237.8252,17.922 L237.3958,16.7392 L236.9138,15.5766 L236.3821,14.4458 L235.8018,13.3407 L235.1646,12.2605 L234.4757,11.2173 L233.7359,10.2047 L232.936,9.2226 L232.0838,8.2828 L231.1797,7.3786 L230.2142,6.5107 L229.1967,5.689 L228.1274,4.9072 L226.9967,4.1663 L225.8146,3.4741 L224.5811,2.8243 L223.2859,2.2192 L221.9424,1.6652 L220.8022,1.2514 L219.6515,0.8977 L218.4997,0.6059 L217.3427,0.3691 L216.1752,0.191 L215.0102,0.0726 L213.8432,0.0076 L212.6691,0 L211.5005,0.0489 L210.3326,0.1485 L209.1607,0.3033 L207.9967,0.5129 L206.8356,0.7701 L205.673,1.0796 L204.5188,1.4375 L203.3685,1.8399 L202.2183,2.2914 L201.0765,2.7879 L199.9391,3.3258 L198.8028,3.9101 L197.6745,4.5363 L196.5506,5.2013 L195.4286,5.9101 L194.3141,6.6582 L193.2041,7.4429 L192.0971,8.2698 L190.9987,9.1355 L189.905,10.0359 L188.8144,10.9753 L187.7307,11.9497 L186.6519,12.9569 L185.5767,14.001 L184.5083,15.0782 L183.445,16.1864 L182.3858,17.3296 L181.3336,18.5041 L180.2867,19.7079 L179.2437,20.944 L178.2065,22.2087 L177.1749,23.5009 L176.1486,24.8242 L175.1297,26.1755 L174.1168,27.5527 L173.1099,28.9589 L172.1107,30.3914 L171.1181,31.8481 L170.1321,33.3321 L169.1542,34.8404 L168.182,36.3704 L167.2171,37.9258 L166.261,39.5038 L165.3124,41.1028 L164.3717,42.7253 L163.4378,44.373 L162.5216,46.0397 L161.6023,47.7124 L160.7013,49.4255 L159.8001,51.1378 L158.9179,52.8878 L158.037,54.6357 L157.1743,56.4159 L156.3112,58.1973 L155.4692,60.0118 L154.6274,61.8259 L153.8078,63.6703 L152.9915,65.5076 L152.5863,66.4543 L152.19,67.38 L151.7938,68.3058 L151.3903,69.2486 L150.9989,70.2041 L150.6145,71.1426 L150.2301,72.0811 L149.8389,73.0364 L149.4603,74.003 L149.0883,74.9529 L148.7163,75.9028 L148.3385,76.8678 L147.9724,77.842 L147.6121,78.8011 L147.2518,79.7602 L146.8854,80.7359 L146.5324,81.7204 L146.1854,82.6885 L145.8385,83.6565 L145.4856,84.641 L145.1468,85.6332 L144.8137,86.6087 L144.4806,87.5842 L144.1423,88.5749 L143.8173,89.5713 L143.4972,90.5525 L143.1771,91.5338 L142.8516,92.5318 L142.5411,93.5349 L142.2358,94.5213 L141.9305,95.5077 L141.6201,96.5109 L141.3251,97.5179 L141.0351,98.508 L140.7447,99.498 L140.4497,100.5034 L140.1693,101.5112 L139.8932,102.5035 L139.6171,103.4957 L139.3363,104.5053 L139.0718,105.5162 L138.812,106.5097 L138.5521,107.5033 L138.2877,108.5145 L138.0403,109.5257 L137.7972,110.5192 L137.5542,111.5127 L137.3072,112.5225 L137.0759,113.5313 L136.8486,114.5236 L136.6212,115.5158 L136.3894,116.5265 L136.1754,117.5349 L135.9655,118.5246 L135.7556,119.5143 L135.5418,120.523 L135.3463,121.5281 L135.1546,122.5139 L134.9629,123.4997 L134.7668,124.5094 L134.4153,126.4838 L134.0625,128.4665 L133.7481,130.4367 L133.4339,132.4075 L133.1593,134.3632 L132.885,136.3175 L132.6476,138.2558 L132.4101,140.1968 L132.214,142.1178 L132.0181,144.0396 L131.8647,145.9388 L131.7122,147.8307 L131.5883,149.7185 L131.4869,151.5893 L131.408,153.4454 L131.3497,155.2889 L131.3142,157.1192 L131.3019,158.9331 L131.311,160.7328 L131.3439,162.5175 L131.4008,164.2839 L131.4797,166.0344 L131.5834,167.7684 L131.7118,169.4821 L131.8631,171.1783 L132.0401,172.8564 L132.2427,174.5123 L132.469,176.1491 L132.722,177.7662 L133.0015,179.359 L133.3056,180.9313 L133.6376,182.482 L133.9969,184.0068 L134.3816,185.5091 L134.7952,186.9887 L135.2369,188.44 L135.7053,189.8673 L136.2042,191.2701 L136.7322,192.6424 L137.288,193.9891 L137.8757,195.3092 L138.4935,196.5968 L139.1402,197.8567 L139.8204,199.0881 L140.5315,200.2845 L141.2726,201.451 L142.0487,202.5869 L142.8563,203.6853 L143.6949,204.7515 L144.5702,205.7841 L145.4774,206.7765 L146.4165,207.734 L147.3934,208.6551 L148.4023,209.5331 L149.4433,210.3735 L150.5229,211.1741 L151.6342,211.929 L152.7775,212.6436 L153.9596,213.3155 L155.1727,213.9392 L156.4175,214.5203 L157.7007,215.0556 L159.0143,215.5412 L160.359,215.982 L161.7417,216.3747 L163.1543,216.7161 L164.5976,217.0115 L166.0785,217.2565 L167.5892,217.4495 L169.1305,217.595 L170.7092,217.6885 L172.3182,217.729 L173.9579,217.7211 L175.635,217.6596 L177.3432,217.5441 L179.0828,217.3791 L180.86,217.1587 L182.6694,216.8836 L184.5107,216.5577 L186.3903,216.175 L188.3033,215.736 L190.2406,215.2472 L191.2415,214.9705 L192.2336,214.6957 L193.2445,214.392 L194.2529,214.0888 L195.2785,213.7589 L196.3059,213.4283 L197.3523,213.0682 L198.3983,212.7078 L199.4636,212.3177 L200.5267,211.928 L201.6075,211.511 L202.6898,211.0933 L203.7915,210.6451 L204.893,210.1968 L206.0142,209.7178 L207.1334,209.2393 L208.2707,208.7327 L209.4093,208.2253 L210.5679,207.6866 L211.7262,207.1477 L212.9047,206.5773 L214.0815,206.0075 L215.2767,205.4085 L216.4731,204.8089 L217.6899,204.177 L218.9064,203.5451 L220.1436,202.8805 L221.3727,202.2201 L222.6733,201.5119 L223.8967,200.847 L225.0528,200.2199 L226.15,199.6257 L227.1849,199.066 L228.1607,198.5388 L229.0851,198.0396 L229.9557,197.5695 L230.7754,197.1265 L231.5514,196.7065 L232.282,196.3101 L232.9701,195.9354 L233.6223,195.5788 L234.2378,195.2401 L234.8192,194.9176 L235.3723,194.6082 L235.8975,194.311 L236.3968,194.0247 L236.8754,193.7463 L237.3345,193.4746 L237.7755,193.2087 L238.203,192.9458 L238.6186,192.6844 L239.033,192.4174 L239.8129,191.898 L240.59,191.3551 L241.3715,190.7844 L242.1752,190.1772 L243.0248,189.5161 L243.9399,188.7895 L244.4311,188.3958 L244.945,187.9818 L245.4873,187.5436 L246.0578,187.0817 L246.6623,186.5918 L247.3038,186.0719 L247.9814,185.5231 L248.7013,184.9409 L249.4667,184.323 L250.2759,183.6714 L251.1357,182.9807 L252.0507,182.248 C253.0396,181.4557 253.199,180.0118 252.4068,179.0229 C251.6145,178.034 250.1706,177.8746 249.1817,178.6668 L248.2644,179.402 L247.3999,180.097 L246.5867,180.7524 L245.8179,181.3735 L245.0952,181.9584 L244.416,182.5089 L243.7741,183.0296 L243.1706,183.519 L242.6027,183.9792 L242.0652,184.414 L241.5585,184.8224 L241.0825,185.2043 L240.1904,185.9132 L239.3844,186.5409 L238.6369,187.1062 L237.9246,187.6268 L237.2298,188.1127 L236.5125,188.5905 L236.1579,188.819 L235.7827,189.0552 L235.3916,189.2959 L234.9842,189.5418 L234.5569,189.795 L234.1053,190.0578 L233.6296,190.3308 L233.1257,190.6162 L232.5896,190.9164 L232.0224,191.2312 L231.4189,191.5636 L230.7758,191.9157 L230.0945,192.287 L229.3691,192.6809 L228.5965,193.0994 L227.7788,193.5418 L226.9091,194.0119 L225.9844,194.5116 L225.0076,195.0399 L223.9709,195.6011 L222.8715,196.197 L221.7127,196.8261 L220.486,197.4934 L219.1951,198.1971 L217.9781,198.8515 L216.769,199.5017 L215.5813,200.1192 L214.3938,200.7365 L213.2276,201.3215 L212.0602,201.9071 L210.912,202.4635 L209.7655,203.0193 L208.64,203.5432 L207.5147,204.0672 L206.4104,204.5596 L205.3049,205.0528 L204.2182,205.5176 L203.1334,205.9817 L202.0694,206.4151 L201.0057,206.8484 L199.9627,207.2514 L198.9182,207.6549 L197.8923,208.0312 L196.8686,208.4068 L195.8654,208.7526 L194.8626,209.0984 L193.8801,209.4148 L192.8959,209.732 L191.9301,210.0225 L190.9668,210.3127 L190.0237,210.574 L189.0895,210.8332 L187.2339,211.3023 L185.4238,211.7183 L183.6569,212.0788 L181.9278,212.3855 L180.2353,212.6437 L178.5856,212.8488 L176.9728,213.0024 L175.396,213.1097 L173.8616,213.1667 L172.3629,213.1744 L170.8994,213.1382 L169.4777,213.0546 L168.0902,212.924 L166.7368,212.7519 L165.4241,212.5351 L164.144,212.2736 L162.8966,211.9727 L161.6883,211.63 L160.5107,211.2443 L159.364,210.8212 L158.2546,210.3588 L157.174,209.8547 L156.1223,209.3146 L155.1059,208.7375 L154.1164,208.1193 L153.1542,207.4663 L152.2251,206.7779 L151.3217,206.049 L150.4441,205.286 L149.5979,204.4888 L148.7765,203.6517 L147.9801,202.7813 L147.2135,201.8776 L146.4716,200.9349 L145.7539,199.9598 L145.0651,198.9522 L144.4013,197.9067 L143.7614,196.8298 L143.1496,195.7218 L142.5626,194.5776 L141.9993,193.4033 L141.4635,192.1992 L140.9527,190.9607 L140.4654,189.6936 L140.005,188.3983 L139.5695,187.0706 L139.1574,185.716 L138.7717,184.3349 L138.4111,182.9234 L138.0738,181.4867 L137.7621,180.0254 L137.4752,178.5359 L137.211,177.0232 L136.9719,175.4875 L136.7572,173.9259 L136.5648,172.343 L136.3968,170.739 L136.2529,169.1112 L136.1307,167.464 L136.0324,165.7976 L135.9576,164.1097 L135.904,162.404 L135.8736,160.6811 L135.8661,158.9388 L135.8793,157.1807 L135.915,155.4073 L135.973,153.6166 L136.0512,151.8119 L136.1511,149.9937 L136.2724,148.1661 L136.4237,146.3083 L136.5743,144.4578 L136.767,142.584 L136.9596,140.7093 L137.1932,138.8141 L137.427,136.9162 L137.6973,135.002 L137.9672,133.0891 L138.2764,131.1606 L138.5855,129.2315 L138.9327,127.2897 L139.2814,125.3396 L139.4693,124.3777 L139.6617,123.3919 L139.8541,122.4063 L140.0427,121.4397 L140.2494,120.4692 L140.4601,119.4796 L140.6707,118.49 L140.8774,117.5191 L141.1016,116.5454 L141.3302,115.5534 L141.5588,114.5614 L141.7836,113.5859 L142.0239,112.6092 L142.2682,111.616 L142.5126,110.6228 L142.7524,109.6474 L143.009,108.6719 L143.27,107.6786 L143.5311,106.6854 L143.7876,105.7096 L144.0602,104.735 L144.3375,103.7431 L144.6148,102.7512 L144.8878,101.7748 L145.175,100.8008 L145.4667,99.8111 L145.7588,98.8217 L146.0459,97.8492 L146.3482,96.8803 L146.6557,95.8946 L146.9632,94.9089 L147.2654,93.9399 L147.5822,92.9761 L147.9045,91.9955 L148.2267,91.0149 L148.544,90.0495 L148.8741,89.0898 L149.2093,88.115 L149.5446,87.1403 L149.8741,86.1821 L150.2173,85.2314 L150.5664,84.2642 L150.9155,83.297 L151.2586,82.3464 L151.6148,81.4047 L151.9772,80.4464 L152.3397,79.4882 L152.6963,78.545 L153.0645,77.6112 L153.4386,76.6621 L153.8127,75.7131 L154.1801,74.7809 L154.5598,73.86 L154.9463,72.9223 L155.3327,71.9847 L155.7122,71.0639 L156.1033,70.156 L156.5016,69.2311 L156.8999,68.3062 L157.2893,67.4021 L158.1035,65.5888 L158.9144,63.7826 L159.7469,62.0068 L160.5791,60.2312 L161.4318,58.4889 L162.285,56.7453 L163.1559,55.0342 L164.0256,53.325 L164.9141,51.6541 L165.8029,49.984 L166.709,48.3548 L167.6183,46.7198 L168.5331,45.1241 L169.4577,43.5475 L170.3902,41.9931 L171.3292,40.4606 L172.2744,38.9535 L173.2269,37.4707 L174.1863,36.0122 L175.1511,34.5815 L176.1224,33.1769 L177.0984,31.7976 L178.0788,30.4479 L179.0648,29.1263 L180.0548,27.8319 L181.048,26.5692 L182.046,25.3363 L183.0471,24.1325 L184.0515,22.9635 L185.0606,21.8269 L186.0718,20.7212 L187.0837,19.6513 L188.0986,18.6151 L189.1146,17.6114 L190.1298,16.6456 L191.1472,15.7152 L192.1645,14.8191 L193.1795,13.9628 L194.1957,13.1437 L195.2106,12.3605 L196.2201,11.6169 L197.2294,10.9112 L198.2362,10.2428 L199.2374,9.6176 L200.238,9.0325 L201.2349,8.4858 L202.2241,7.9836 L203.212,7.5226 L204.195,7.1011 L205.1685,6.7246 L206.1402,6.3904 L207.1061,6.0962 L208.061,5.8473 L209.0142,5.6414 L209.9614,5.4757 L210.8965,5.3528 L211.8312,5.274 L212.7605,5.2355 L213.6788,5.2421 L214.5982,5.2942 L215.5136,5.3876 L216.4196,5.5265 L217.3286,5.7135 L218.2356,5.9436 L219.1351,6.2209 L220.0362,6.5488 L221.1764,7.0195 L222.248,7.5212 L223.266,8.0586 L224.2323,8.6252 L225.1383,9.2202 L225.9959,9.8495 L226.8069,10.5059 L227.5635,11.188 L228.2769,11.904 L228.9487,12.6465 L229.5717,13.4138 L230.1554,14.2156 L230.7013,15.0443 L231.203,15.8979 L231.6676,16.7864 L232.0968,17.7022 L232.4852,18.6429 L232.8374,19.6181 L233.1557,20.6202 L233.435,21.6466 L233.6784,22.7059 L233.889,23.7907 L234.0626,24.8982 L234.2013,26.036 L234.3082,27.1971 L234.3802,28.3789 L234.4181,29.5878 L234.4257,30.8174 L234.4002,32.0655 L234.3423,33.3371 L234.2557,34.6268 L234.1381,35.9323 L233.99,37.258 L233.8138,38.5987 L233.6088,39.9527 L233.3773,41.3131 L233.1046,42.713 L232.8348,44.1014 L232.5133,45.5099 L232.1918,46.9217 L231.8224,48.3498 L231.452,49.7837 L231.0411,51.2292 L230.6308,52.6741 L230.1792,54.1284 L229.727,55.5852 L229.2373,57.0476 L228.7465,58.5143 L228.2247,59.9831 L227.7033,61.4515 L227.1512,62.9188 L226.5986,64.388 L226.0191,65.8524 L225.4384,67.3202 L224.8364,68.7806 L224.2342,70.2405 L223.6108,71.6885 L222.9869,73.1381 L222.3467,74.5724 L221.7054,76.0095 L221.0524,77.4297 L220.3995,78.8498 L219.7371,80.248 L219.0741,81.6476 L218.4054,83.0218 L217.7357,84.398 L217.0639,85.7482 L216.3921,87.0984 L215.7214,88.4164 L215.0501,89.7357 L214.3837,91.0193 L213.7154,92.3067 L213.0546,93.5634 L212.3975,94.8022 L211.746,96.0206 L211.1003,97.2195 L210.4621,98.3957 L209.8321,99.5489 L209.2104,100.6803 L208.5988,101.7866 L207.9979,102.8673 L207.4077,103.9239 L206.8303,104.9529 L206.2662,105.9538 L205.7151,106.9284 L205.1793,107.873 L204.6596,108.7869 L204.1551,109.6723 L203.6685,110.5256 L203.2004,111.3457 L202.7499,112.1352 L202.3195,112.8904 L201.9103,113.6103 L201.5207,114.2979 L201.1535,114.9494 L200.8138,115.5562 L200.0572,116.9043 L199.3054,118.2441 L198.5494,119.5674 L197.7935,120.8907 L197.0335,122.1974 L196.2731,123.505 L195.509,124.7976 L194.7456,126.0894 L193.9784,127.3646 L193.2112,128.6399 L192.4403,129.8986 L191.6694,131.1585 L190.8959,132.4039 L190.123,133.6484 L189.3467,134.8764 L188.5703,136.1044 L187.7907,137.316 L187.0104,138.5284 L186.2272,139.726 L185.4447,140.9226 L184.659,142.1028 L183.8734,143.2831 L183.0847,144.4469 L182.2957,145.6117 L181.5041,146.7618 L180.7133,147.9109 L179.9196,149.0437 L179.126,150.1764 L178.3297,151.2928 L177.5328,152.4101 L176.7336,153.5126 L175.9351,154.6142 L175.1341,155.6994 L174.3332,156.7846 L173.53,157.8535 L172.7261,158.9233 L171.9209,159.9788 L171.1164,161.0334 L170.3098,162.0716 L169.5033,163.11 L168.6948,164.132 L167.8856,165.1549 L167.0747,166.1631 L166.2646,167.1704 L165.4527,168.1614 L164.6409,169.1523 L163.8274,170.1271 L163.0132,171.1028 L162.1976,172.0638 L161.3832,173.0241 L160.5674,173.9682 L159.7518,174.9124 L158.9348,175.8404 L158.117,176.7693 L157.2981,177.6835 L156.4802,178.5968 L155.6612,179.4939 L154.8422,180.391 L154.0223,181.272 L153.2015,182.1539 L152.38,183.0212 L151.5595,183.8875 L150.7382,184.7376 L149.9168,185.5877 L149.0948,186.4215 L148.2718,187.2563 L147.4484,188.0765 L146.626,188.8957 L145.8033,189.6988 L144.9807,190.5019 L144.1578,191.2889 L143.3339,192.0769 L142.51,192.8504 L141.6871,193.6228 L140.8642,194.3792 L140.0414,195.1357 L139.2187,195.8761 L138.395,196.6175 L137.5715,197.3442 L136.7491,198.07 L135.927,198.7798 L135.1051,199.4896 L134.2835,200.1834 L133.461,200.8782 L132.6389,201.5584 L131.8181,202.2378 L130.998,202.9011 L130.178,203.5645 L129.3588,204.2118 L128.5384,204.8603 L127.7189,205.4942 L126.9008,206.1272 L126.0836,206.7442 L125.2666,207.3614 L124.4504,207.9621 L123.6328,208.5634 L122.8163,209.1503 L122.0013,209.7362 L121.1877,210.3063 L120.3742,210.8765 L119.5623,211.4307 L118.7538,211.9828 L117.1271,213.0668 L115.5105,214.115 L113.8964,215.1326 L112.2862,216.1216 L110.682,217.078 L109.0805,218.0031 L107.4836,218.8996 L105.8937,219.7637 L104.3076,220.5976 L102.7269,221.403 L101.1539,222.1762 L99.5855,222.9192 L98.023,223.6339 L96.4692,224.3168 L94.9206,224.9694 L93.3785,225.5939 L91.8461,226.1867 L90.3194,226.7494 L88.79996,227.2842 L87.29104,227.7875 L85.78837,228.2609 L84.29373,228.7065 L82.81046,229.1209 L81.334,229.5054 L79.86624,229.8625 L78.41088,230.1894 L76.96288,230.4866 L75.52417,230.7565 L74.09854,230.9958 L72.68079,231.2056 L71.27294,231.3882 L69.87902,231.5408 L68.49346,231.6639 L67.1184,231.76 L65.75805,231.8265 L64.40654,231.8637 L63.06607,231.8745 L61.74102,231.8575 L60.42514,231.8112 L59.12075,231.7386 L57.83243,231.6371 L56.55368,231.5065 L55.28685,231.3498 L54.03669,231.1646 L52.79646,230.9504 L51.56856,230.7101 L50.35783,230.4421 L49.15738,230.1447 L47.9696,229.8217 L46.79999,229.4695 L45.64244,229.0839 L44.49815,228.6728 L43.37208,228.2349 L42.25724,227.7675 L41.15593,227.2747 L40.07312,226.7554 L39.00191,226.2063 L37.94448,225.632 L36.90579,225.0314 L35.87909,224.4007 L34.86646,223.7445 L33.87275,223.0624 L32.89154,222.3499 L31.92955,221.6054 L30.98765,220.8344 L30.05918,220.0329 L29.14581,219.2058 L28.25215,218.3532 L27.37256,217.4694 L26.50847,216.56 L25.66434,215.6248 L24.83503,214.6582 L24.02169,213.6657 L23.22861,212.6475 L22.45119,211.5975 L21.69028,210.5212 L20.94494,209.4225 L20.2159,208.2915 L19.50378,207.1339 L18.81252,205.9501 L18.13862,204.7338 L17.48233,203.4906 L16.84739,202.2212 L16.23086,200.9189 L15.63264,199.5898 L15.05632,198.2341 L14.49946,196.8456 L13.96087,195.4305 L13.44326,193.9891 L12.9461,192.5149 L12.46871,191.0135 L12.01436,189.4853 L11.5815,187.9242 L11.16919,186.336 L10.78054,184.7208 L10.41442,183.0729 L10.0696,181.3979 L9.74882,179.6958 L9.44928,177.9616 L9.17176,176.2002 L8.91918,174.4117 L8.69104,172.5906 L8.48567,170.7425 L8.30592,168.8672 L8.15156,166.9595 L8.02009,165.0157 L7.96851,164.0439 L7.91613,163.0629 L7.87714,162.0672 L7.83787,161.0689 L7.8109,160.0573 L7.78383,159.048 L7.77039,158.024 L7.75678,156.9999 L7.75692,155.961 L7.7569,154.9198 L7.76951,153.8653 L7.78196,152.813 L7.8084,151.7459 L7.83469,150.6789 L7.8751,149.5971 L7.91545,148.5131 L7.96876,147.4157 L8.02185,146.3206 L8.08842,145.2107 L8.15482,144.1007 L8.23569,142.9762 L8.31658,141.8495 L8.41075,140.7094 L8.50465,139.5714 L8.61325,138.4189 L8.72173,137.2662 L8.84506,136.099 L8.96848,134.9297 L9.1055,133.7472 L9.2422,132.5666 L9.39397,131.3715 L9.54563,130.1764 L9.71231,128.9667 L9.87873,127.7549 L10.05907,126.53 L10.23904,125.3069 L10.43444,124.0693 L10.62974,122.8317 L10.84059,121.5796 L11.05165,120.3256 L11.27696,119.0585 L11.50187,117.7931 L11.74256,116.5133 L11.98316,115.2335 L12.23966,113.9392 L12.49642,112.6432 L12.76775,111.334 L13.03865,110.0265 L13.32568,108.7047 L13.61263,107.3828 L13.91583,106.0465 L14.21934,104.7086 L14.53772,103.3576 L14.85566,102.0082 L15.19008,100.6444 L15.52442,99.2807 L15.87536,97.9026 L16.22665,96.5229 L16.59313,95.1302 L16.95914,93.7391 L17.34198,92.3336 L17.72475,90.9281 L18.12448,89.5084 L18.52456,88.0871 L18.94017,86.6529 L19.35528,85.2201 L19.78758,83.7732 L20.2198,82.3261 L20.66933,80.8649 L21.12373,79.3876 C21.79387,77.1809 20.54829,74.8489 18.34165,74.1787 C16.135,73.5085 13.80291,74.7541 13.13277,76.9607 Z" id="Fill-6"></path>
            <path d="M226.1536,208.3064 L227.3798,206.9985 L228.6244,205.6722 L229.8807,204.325 L231.1435,202.9577 L232.409,201.5678 L233.6517,200.1357 L234.93,198.7055 L236.2793,197.3545 L237.6456,195.9931 L239.0087,194.6329 L240.4079,193.2983 L241.8085,191.967 L243.2208,190.6497 L244.6053,189.3082 L245.9902,187.9806 L247.3798,186.6614 L248.8091,185.4181 L250.2549,184.1855 L251.6201,182.9015 L253.0306,181.6916 L254.4731,180.5516 L255.9253,179.4568 L257.3865,178.4167 L258.8613,177.4128 C259.5368,176.9624 259.7194,176.0498 259.2691,175.3742 C258.8188,174.6987 257.9062,174.5161 257.2306,174.9664 L255.7106,175.9587 L254.1802,177.0038 L252.6459,178.0769 L251.1079,179.1748 L249.5463,180.2745 L247.9496,181.3655 L246.4501,182.5871 L244.934,183.7982 L243.4082,185.031 L241.8776,186.2556 L240.3839,187.539 L238.9179,188.8466 L237.4798,190.1865 L236.0404,191.523 L234.6148,192.8627 L233.1925,194.2012 L231.8103,195.5539 L230.3573,196.8276 L228.9114,198.0891 L227.5217,199.3783 L226.1646,200.6695 L224.8345,201.9566 L223.5312,203.2329 L222.2498,204.4892 C221.1957,205.5672 221.2151,207.2957 222.2931,208.3498 C223.3711,209.4038 225.0995,209.3846 226.1536,208.3064 Z" id="Fill-79"></path>
            <path d="M217.485,194.2172 L219.2891,193.7279 L221.0823,193.2224 L222.8487,192.6914 L224.5929,192.138 L226.3108,191.545 L227.9947,190.8739 L229.6685,190.2671 L231.366,189.7112 L233.0327,189.1103 L234.6985,188.509 L236.3501,187.89 L237.9998,187.2731 L239.633,186.6143 L241.2549,185.9244 L242.8566,185.1706 L244.457,184.42 L246.0687,183.6634 L247.6871,182.9294 L249.2674,182.0685 L250.8525,181.2207 L252.4682,180.3781 L254.0904,179.5525 L255.7366,178.6989 L257.3718,177.852 C258.0966,177.4861 258.3875,176.602 258.0216,175.8772 C257.6557,175.1525 256.7716,174.8616 256.0468,175.2275 L254.3945,176.0404 L252.7531,176.8466 L251.1221,177.594 L249.4847,178.3244 L247.8376,178.9662 L246.1859,179.595 L244.5807,180.2777 L242.9688,180.9379 L241.3435,181.5269 L239.7193,182.1128 L238.0998,182.6888 L236.4915,183.2959 L234.875,183.881 L233.2603,184.4638 L231.6209,184.997 L229.9824,185.5305 L228.3224,186.0451 L226.6387,186.5088 L224.9227,186.8663 L223.2058,187.2724 L221.4769,187.6892 L219.7328,188.1031 L217.9715,188.5151 L216.1736,188.917 C214.71,189.2792 213.8171,190.7592 214.1792,192.2228 C214.5414,193.6864 216.0214,194.5793 217.485,194.2172 Z" id="Fill-80"></path>
        </g>
    </g>
</svg>
