<?xml version="1.0" encoding="UTF-8"?>
<svg width="273px" height="273px" viewBox="0 0 273 273" version="1.1" xmlns="http://www.w3.org/2000/svg" xmlns:xlink="http://www.w3.org/1999/xlink">
    <title>258</title>
    <g id="Page-1" stroke="none" stroke-width="1" fill="none" fill-rule="evenodd">
        <g id="258" transform="translate(0.000000, 0.471294)" fill="currentColor">
            <path d="M8.06241531,67.8931 L8.43554531,66.9343 L8.79163531,66.0181 L9.16510531,65.118 L9.53818531,64.2174 L9.92838531,63.333 L10.3199353,62.4443 L10.7268953,61.5702 L11.1249653,60.7134 L11.9743953,58.9894 L12.8512253,57.3064 L13.7569353,55.6512 L14.6920253,54.0301 L15.6602553,52.4358 L16.6562753,50.8688 L17.6802253,49.3353 L18.7363453,47.8283 L19.8191753,46.3482 L20.9285753,44.901 L22.0691653,43.48 L23.2354253,42.0855 L24.4269353,40.7234 L25.6486553,39.3872 L26.8950153,38.0774 L28.1653653,36.7993 L29.4648953,35.5472 L30.7880553,34.321 L32.1339653,33.1261 L33.5079853,31.9572 L34.9046053,30.814 L36.3222453,29.7009 L37.7668353,28.6137 L39.2329953,27.552 L40.7195253,26.5207 L42.2319153,25.5154 L43.7647853,24.5356 L45.3168153,23.5857 L46.8934853,22.662 L48.4893053,21.7632 L50.1025353,20.8928 L51.7391653,20.0488 L53.3940853,19.23 L55.0657653,18.4403 L56.7595053,17.6771 L58.4703553,16.939 L60.1967353,16.2298 L61.9437953,15.5472 L63.7067653,14.8895 L65.4839853,14.2605 L67.2804853,13.6581 L69.0916653,13.0806 L70.9158353,12.5315 L72.7578153,12.0091 L74.6132453,11.5116 L76.4803653,11.0422 L78.3634653,10.5978 L80.2677253,10.175 L81.2111353,9.9805 L82.1640553,9.7838 L83.1229353,9.601 L84.0845353,9.4175 L85.0513653,9.2466 L86.0160153,9.0758 L86.9861753,8.9189 L87.9566353,8.7617 L88.9323653,8.6183 L89.9107253,8.4743 L90.8936653,8.3429 L91.8744853,8.2115 L92.8601853,8.0939 L93.8459853,7.9744 L94.8362853,7.8686 L95.8291853,7.7624 L96.8260853,7.6686 L97.8209853,7.5748 L98.8199853,7.4947 L99.8193853,7.4143 L100.822585,7.3475 L101.828185,7.2805 L102.837185,7.2257 L103.844285,7.1709 L104.854785,7.1297 L105.865585,7.0883 L106.879585,7.0603 L107.895885,7.0322 L108.914885,7.0152 L109.932085,6.9944 L110.952085,6.9869 L111.972385,6.9793 L112.995185,6.9851 L114.020385,6.9909 L115.047585,7.0087 L116.073185,7.0264 L117.100885,7.0574 L118.128785,7.0883 L119.158585,7.1325 L120.190585,7.1767 L121.224085,7.2329 L122.255985,7.289 L123.289185,7.3583 L124.322685,7.4273 L125.356885,7.5155 L126.392885,7.6056 L127.429585,7.7077 L128.464685,7.8095 L129.500385,7.9245 L130.536185,8.0393 L131.572385,8.1673 L132.610485,8.2954 L133.648785,8.4354 L134.685285,8.575 L135.721885,8.7278 L136.758485,8.8803 L137.794785,9.0459 L138.832985,9.2118 L139.870685,9.3893 L140.906285,9.5692 L141.940585,9.7646 L142.974885,9.9599 L144.008085,10.1681 L145.043085,10.3766 L146.076885,10.5968 L147.108985,10.8164 L148.139585,11.049 L149.170185,11.2813 L150.198985,11.5266 L151.229585,11.7721 L152.258285,12.0291 L153.285385,12.2857 L154.310185,12.555 L155.334985,12.8242 L156.357485,13.1055 L157.381985,13.3864 L158.403985,13.6787 L159.424385,13.9705 L160.441785,14.2749 L161.459285,14.5791 L162.473585,14.896 L163.489585,15.2132 L164.502485,15.5419 L165.513785,15.8699 L166.521385,16.2104 L167.529085,16.5508 L168.532885,16.9037 L169.538385,17.257 L170.540185,17.6216 L171.540385,17.9853 L172.536385,18.3611 L173.532485,18.7367 L174.523985,19.1247 L175.517085,19.5132 L176.505885,19.9129 L177.493085,20.3118 L178.475285,20.7231 L179.457485,21.1341 L180.434485,21.5575 L181.413085,21.9814 L182.386685,22.4164 L183.358585,22.8506 L184.324885,23.2969 L185.291185,23.7431 L186.251585,24.2015 L187.213485,24.6604 L188.169885,25.1304 L189.124685,25.5995 L190.072985,26.0805 L191.021385,26.5615 L191.963085,27.0545 L192.906385,27.5482 L193.843485,28.0528 L194.778885,28.5564 L195.707285,29.0719 L196.635685,29.5873 L197.556785,30.1145 L198.479385,30.6426 L199.395185,31.1814 L200.309185,31.7195 L201.215185,32.2696 L202.121185,32.8197 L203.019185,33.3815 L203.918685,33.9441 L204.810685,34.5175 L205.701085,35.0896 L206.583085,35.6735 L207.464985,36.2572 L208.338185,36.8526 L209.212985,37.4488 L210.079585,38.0556 L210.944685,38.6612 L211.800585,39.2784 L212.656385,39.8954 L213.502685,40.5242 L214.349985,41.1546 L215.188585,41.7954 L216.025585,42.4349 L216.852685,43.0859 L217.679785,43.7366 L218.496685,44.3987 L219.315185,45.0619 L220.124385,45.7355 L220.931885,46.4076 L221.728885,47.091 L222.525885,47.7743 L223.312085,48.4688 L224.099785,49.1645 L224.877385,49.8704 L225.653585,50.5747 L226.418385,51.2904 L227.183185,52.0058 L227.936585,52.7323 L228.691385,53.4602 L229.435585,54.1982 L230.178285,54.9344 L230.909085,55.6819 L231.639885,56.429 L232.358485,57.1872 L233.078585,57.9468 L233.787485,58.7163 L234.494885,59.4842 L235.189685,60.2629 L235.884485,61.0415 L236.566385,61.831 L237.249585,62.6221 L237.920785,63.4232 L238.590685,64.2224 L239.247285,65.0324 L239.903885,65.8422 L240.546985,66.6628 L241.191485,67.485 L241.823585,68.317 L242.454285,69.1469 L243.070985,69.9877 L243.687785,70.8282 L244.290385,71.6794 L244.894285,72.5322 L245.485185,73.3949 L246.074785,74.2553 L246.650085,75.1262 L247.225485,75.9967 L247.786085,76.878 L248.347985,77.761 L248.896185,78.6537 L249.443185,79.544 L249.974985,80.445 L250.506785,81.3457 L251.023085,82.2569 L251.540685,83.1701 L252.043985,84.0928 L252.546085,85.0132 L253.032385,85.944 L253.518685,86.8745 L253.988785,87.8156 L254.460585,88.7584 L254.917585,89.7106 L255.373685,90.6604 L255.813185,91.6206 L256.252785,92.5805 L256.675485,93.5509 L257.099285,94.5233 L257.507585,95.5052 L257.915085,96.4845 L258.305285,97.4742 L258.695585,98.4636 L259.068385,99.4634 L259.442185,100.4653 L259.799885,101.4767 L260.156785,102.4854 L260.495985,103.5043 L260.835485,104.523 L261.156685,105.552 L261.478885,106.5832 L261.784285,107.6237 L262.089085,108.6615 L262.375285,109.7097 L262.661585,110.7575 L262.928985,111.8156 L263.197285,112.8761 L263.448085,113.9458 L263.698585,115.0128 L263.929585,116.0899 L264.160885,117.167 L264.372785,118.2541 L264.586285,119.3434 L264.781685,120.4419 L264.976785,121.5378 L265.151985,122.6437 L265.327285,123.7496 L265.482285,124.8655 L265.637985,125.9839 L265.774885,127.1114 L265.911685,128.2363 L266.027685,129.3713 L266.143985,130.5061 L266.239285,131.6509 L266.334985,132.7983 L266.411485,133.9546 L266.488885,135.1084 L266.544785,136.2721 L266.600885,137.4358 L266.635285,138.6095 L266.669985,139.7856 L266.684685,140.9707 L266.699585,142.1534 L266.692285,143.346 L266.685285,144.5386 L266.655685,145.7411 L266.626385,146.9459 L266.576385,148.1597 L266.526685,149.3712 L266.454085,150.5924 L266.381785,151.8138 L266.286185,153.0448 L266.190685,154.2783 L266.073885,155.5206 L265.957485,156.7607 L265.817485,158.0105 L265.677685,159.2604 L265.513985,160.5199 L265.350185,161.7818 L265.164385,163.0524 L264.979085,164.321 L264.769485,165.5991 L264.560085,166.8773 L264.325985,168.1651 L264.091785,169.4552 L263.834885,170.7539 L263.578585,172.0507 L263.297185,173.357 L263.015985,174.6633 L262.709485,175.9792 L262.402585,177.2972 L262.072385,178.6238 L261.742885,179.9485 L261.387385,181.2826 L261.030785,182.6165 L260.648185,183.9598 L260.265085,185.3053 L259.954485,186.3306 L259.644885,187.3539 L259.316485,188.3633 L258.988385,189.3729 L258.641785,190.3687 L258.294485,191.3672 L257.930585,192.353 L257.567885,193.3368 L257.187085,194.3067 L256.806485,195.277 L256.408185,196.2334 L256.008985,197.1923 L255.593785,198.1387 L255.179785,199.0831 L254.748585,200.0137 L254.317585,200.9446 L253.869585,201.8618 L253.420685,202.7815 L252.956585,203.6887 L252.493785,204.594 L252.014485,205.4855 L251.535285,206.3774 L251.039985,207.2556 L250.543485,208.1362 L250.032485,209.0044 L249.522985,209.8708 L248.997085,210.7231 L248.470985,211.5755 L247.929485,212.4143 L247.386685,213.2553 L246.830185,214.084 L246.274985,214.9109 L245.704985,215.7241 L245.134985,216.5377 L244.550285,217.3377 L243.964285,218.1398 L243.365185,218.9295 L242.767585,219.7177 L242.155785,220.4922 L241.543985,221.2671 L240.918285,222.0283 L240.291185,222.7916 L239.651285,223.5423 L239.012885,224.2914 L238.360985,225.0269 L237.709085,225.7627 L237.044085,226.4849 L236.377585,227.2091 L235.699285,227.9208 L235.022485,228.6313 L234.333085,229.3281 L233.643685,230.0252 L232.941785,230.7088 L232.238385,231.3941 L231.523885,232.0672 L230.810985,232.7389 L230.086185,233.3971 L229.361285,234.0556 L228.624585,234.7004 L227.886185,235.3467 L227.137385,235.9806 L226.390185,236.6135 L225.631785,237.2327 L224.873385,237.8523 L224.103985,238.4582 L223.332985,239.0658 L222.552285,239.6609 L221.773185,240.255 L220.983685,240.8356 L220.194085,241.4164 L219.394385,241.9837 L218.592885,242.5524 L217.782485,243.1087 L216.973585,243.6641 L216.155485,244.2065 L215.338085,244.7506 L214.511385,245.2811 L213.682885,245.813 L212.846085,246.3324 L212.010785,246.8512 L211.166585,247.3563 L210.322185,247.8617 L209.469185,248.3536 L208.614485,248.8466 L207.752085,249.3273 L206.891185,249.8073 L206.022085,250.2738 L205.152985,250.7405 L204.275885,251.1936 L203.397085,251.6477 L202.511485,252.0899 L201.628485,252.5337 L200.737985,252.9638 L199.847285,253.3943 L198.949485,253.8111 L198.049885,254.229 L197.143985,254.6344 L196.239585,255.0395 L195.328485,255.4309 L194.417185,255.8225 L193.499485,256.2007 L192.580085,256.5796 L191.655085,256.9462 L190.731585,257.3124 L189.802085,257.665 L188.872385,258.0179 L187.937085,258.357 L186.999485,258.6953 L186.057085,259.0212 L185.115985,259.3467 L184.169885,259.6587 L183.223585,259.9708 L182.272485,260.2694 L181.319685,260.5686 L180.362785,260.8554 L179.407285,261.1419 L178.447385,261.4149 L177.487385,261.688 L176.523285,261.9476 L175.557685,262.2077 L174.588485,262.4555 L173.620785,262.703 L172.649385,262.9368 L171.677685,263.1699 L170.702785,263.3894 L169.726285,263.6094 L168.746985,263.817 L167.769085,264.0244 L166.788385,264.2183 L165.807585,264.4123 L164.824385,264.5927 L163.839485,264.7735 L162.852585,264.9419 L161.867185,265.1102 L160.879585,265.2649 L159.892085,265.4198 L158.902685,265.5611 L157.911885,265.7027 L156.919585,265.8319 L155.928785,265.9605 L154.936585,266.0755 L153.944485,266.1906 L152.951285,266.2922 L151.956685,266.394 L150.961385,266.4835 L149.967485,266.573 L148.973085,266.6488 L147.978685,266.7248 L146.984085,266.7873 L145.988085,266.8499 L144.992085,266.9002 L143.997385,266.9505 L143.003185,266.9872 L142.008785,267.0241 L141.015085,267.0473 L140.019785,267.0698 L139.025385,267.08 L138.032285,267.0903 L137.040385,267.087 L136.048385,267.0838 L135.057885,267.0671 L134.065785,267.0505 L133.075285,267.0215 L132.086185,266.9927 L131.098885,266.9502 L130.111685,266.9079 L129.126585,266.8521 L128.139985,266.7963 L127.155585,266.7282 L126.178085,266.6607 L124.212185,266.4974 L122.255985,266.3076 L120.305685,266.0934 L118.363685,265.8525 L116.427585,265.5846 L114.498785,265.2923 L112.579785,264.9734 L110.668385,264.6275 L108.765585,264.2569 L106.874485,263.8593 L104.992485,263.4345 L103.120585,262.9854 L101.261685,262.51 L99.4134853,262.0075 L97.5766853,261.4808 L95.7545853,260.9279 L93.9446853,260.3479 L92.1477853,259.7432 L90.3671053,259.1124 L88.6001353,258.4545 L86.8474753,257.7725 L85.1126153,257.0645 L83.3929453,256.3294 L81.6889753,255.5703 L80.0043553,254.7854 L78.3364153,253.9734 L76.6855653,253.1373 L75.0555953,252.2757 L73.4437953,251.3869 L71.8504553,250.4741 L70.2794953,249.5359 L68.7282153,248.5705 L67.1967253,247.5812 L65.6891053,246.5667 L64.2026453,245.5249 L62.7373153,244.4592 L61.2973153,243.3686 L59.8799453,242.2505 L58.4850153,241.1087 L57.1168653,239.942 L55.7727953,238.7478 L54.4524853,237.5299 L53.1603353,236.2873 L51.8937553,235.0171 L50.6522253,233.7232 L49.4402153,232.4048 L48.2552453,231.0584 L47.0966153,229.6885 L45.9688453,228.2941 L44.8696053,226.8717 L43.7979753,225.4256 L42.7586253,223.9551 L41.7497253,222.4562 L40.7697253,220.9334 L39.8232453,219.3863 L38.9083453,217.8109 L38.0236253,216.2116 L37.1737353,214.5879 L36.3569953,212.9358 L35.5717353,211.2595 L34.8228953,209.5588 L34.1090553,207.8292 L33.4280353,206.0754 L32.7845053,204.2972 L32.1773653,202.49 L31.6044353,200.6584 L31.0703253,198.8023 L30.5723653,196.9093 L30.3439253,195.9609 L30.1138553,195.0072 L29.9038853,194.0398 L29.6936353,193.0726 L29.5037653,192.0918 L29.3132053,191.1087 L29.1414253,190.1133 L28.9697953,189.1202 L28.8190453,188.1133 L28.6680253,187.1067 L28.5381653,186.0862 L28.4077853,185.0636 L28.2969053,184.0286 L28.1860153,182.9958 L28.0968053,181.9494 L28.0073453,180.9029 L27.9398453,179.8428 L27.8719753,178.7805 L27.8243253,177.7057 L27.7765453,176.633 L27.7512453,175.5467 L27.7256953,174.4604 L27.7229253,173.3603 L27.7199253,172.258 L27.7378853,171.1433 L27.7556053,170.0307 L27.7966053,168.9043 L27.8373753,167.7779 L27.9017253,166.6377 L27.9659953,165.4954 L28.0519453,164.3406 L28.1375553,163.1878 L28.2472653,162.0212 L28.3567653,160.8546 L28.4906553,159.6742 L28.6245853,158.4919 L28.7809453,157.2969 L28.9368753,156.1039 L29.1177053,154.8971 L29.2983553,153.6902 L29.5042053,152.4695 L29.7101953,151.247 L29.9393553,150.0119 L30.1680153,148.7785 L30.4223953,147.5314 L30.6766053,146.2843 L30.9568153,145.0233 L31.2372853,143.7605 L31.5416353,142.4852 L31.8454453,141.2116 L32.1757753,139.9242 L32.5059553,138.6367 L32.8629553,137.3354 L33.2202753,136.0324 L33.6022153,134.717 L33.9835753,133.4031 L34.3922553,132.0754 L34.8008053,130.7476 L35.2369753,129.4061 L35.6735353,128.063 L36.1354353,126.7073 L36.5967253,125.3531 L37.0861353,123.9852 L37.5754453,122.6172 L38.0931553,121.2354 L38.6113253,119.8522 L39.1555453,118.4565 L39.6991453,117.062 L40.2716553,115.654 L40.8440753,114.2458 L41.4456953,112.8239 L42.0478153,111.4005 L42.6767153,109.9648 L43.3049753,108.5302 L43.9629353,107.082 L44.6208253,105.6337 L45.3087053,104.1717 L46.0029953,102.696 C46.5421853,101.5493 46.0497153,100.1827 44.9030453,99.6435 C43.7563653,99.1042 42.3897053,99.5967 41.8505153,100.7434 L41.1568253,102.2194 L40.4567253,103.7092 L39.7866053,105.1858 L39.1165653,106.6625 L38.4762153,108.126 L37.8365053,109.5884 L37.2235853,111.0387 L36.6101653,112.4904 L36.0259653,113.9289 L35.4418453,115.3676 L34.8866853,116.7931 L34.3321453,118.2173 L33.8036953,119.6295 L33.2747953,121.0432 L32.7743553,122.4438 L32.2740253,123.8445 L31.8018953,125.232 L31.3303653,126.618 L30.8842453,127.9922 L30.4377253,129.3679 L30.0189253,130.7304 L29.6002553,132.0931 L29.2090153,133.4427 L28.8183553,134.7907 L28.4524353,136.1267 L28.0861753,137.4645 L27.7468853,138.7891 L27.4077453,140.1137 L27.0952953,141.4253 L26.7833853,142.7352 L26.4955253,144.0332 L26.2074253,145.3329 L25.9455453,146.6196 L25.6838353,147.9063 L25.4480653,149.1798 L25.2127953,150.4516 L25.0009053,151.7115 L24.7888553,152.9732 L24.6022953,154.2218 L24.4159153,155.4704 L24.2547553,156.706 L24.0940153,157.9396 L23.9559753,159.1612 L23.8179053,160.3849 L23.7045753,161.5954 L23.5914453,162.8059 L23.5028053,164.0033 L23.4145053,165.1987 L23.3482253,166.3821 L23.2820353,167.5675 L23.2398553,168.7398 L23.1979053,169.9121 L23.1796953,171.0712 L23.1617353,172.2282 L23.1651153,173.3732 L23.1687253,174.5204 L23.1956053,175.6543 L23.2227353,176.7882 L23.2728553,177.9088 L23.3231253,179.0273 L23.3940553,180.1338 L23.4653653,181.2423 L23.5591953,182.3377 L23.6532953,183.433 L23.7696453,184.5151 L23.8859953,185.5948 L24.0223453,186.6625 L24.1592253,187.7323 L24.3178853,188.7889 L24.4768153,189.8454 L24.6572453,190.8885 L24.8375253,191.9294 L25.0371253,192.958 L25.2374053,193.9889 L25.4587253,195.0064 L25.6802953,196.0237 L25.9226253,197.0277 L26.1665853,198.037 L26.6867753,200.0103 L27.2505253,201.9664 L27.8540353,203.8931 L28.4938953,205.7949 L29.1739653,207.6717 L29.8920553,209.5188 L30.6450353,211.341 L31.4365453,213.1379 L32.2640453,214.9052 L33.1249653,216.6474 L34.0231753,218.3641 L34.9558653,220.0509 L35.9204753,221.7125 L36.9208253,223.3482 L37.9538753,224.9541 L39.0173153,226.5346 L40.1145453,228.0893 L41.2426153,229.6143 L42.3995453,231.1137 L43.5891053,232.587 L44.8078053,234.0304 L46.0538453,235.4483 L47.3308953,236.8399 L48.6353453,238.2016 L49.9655953,239.5378 L51.3252353,240.8474 L52.7105553,242.1275 L54.1201553,243.3819 L55.5575153,244.6096 L57.0188653,245.8078 L58.5029753,246.9805 L60.0132353,248.1263 L61.5458053,249.2428 L63.0996553,250.3337 L64.6780253,251.3977 L66.2770853,252.4325 L67.8959353,253.4418 L69.5376853,254.424 L71.1985153,255.3774 L72.8776853,256.3051 L74.5781553,257.2058 L76.2961053,258.0776 L78.0309453,258.924 L79.7854853,259.7431 L81.5559553,260.5337 L83.3418753,261.2988 L85.1459053,262.0367 L86.9643153,262.746 L88.7967453,263.43 L90.6457153,264.0866 L92.5074853,264.7149 L94.3817853,265.3183 L96.2709853,265.8944 L98.1715853,266.4422 L100.083385,266.9648 L102.008585,267.4599 L103.943585,267.9269 L105.888385,268.3685 L107.845085,268.7828 L109.809885,269.1697 L111.783085,269.5316 L113.766585,269.866 L115.756985,270.1725 L117.754385,270.4537 L119.760485,270.7074 L121.771985,270.9331 L123.789085,271.1337 L125.808085,271.3062 L126.828285,271.3793 L127.841585,271.4518 L128.857085,271.5118 L129.873985,271.5717 L130.893085,271.6179 L131.912185,271.664 L132.933085,271.6963 L133.952485,271.7284 L134.973385,271.7481 L135.995785,271.7677 L137.019485,271.7735 L138.043185,271.7792 L139.067985,271.7712 L140.091385,271.763 L141.115485,271.7423 L142.140985,271.7224 L143.167185,271.6888 L144.193385,271.655 L145.219985,271.6075 L146.245085,271.5599 L147.270185,271.4998 L148.296885,271.4395 L149.323285,271.3655 L150.349785,271.2912 L151.375885,271.2033 L152.400485,271.1154 L153.424485,271.0149 L154.449985,270.9142 L155.474585,270.7997 L156.499085,270.6852 L157.522485,270.5567 L158.544485,270.4289 L159.565185,270.2887 L160.587385,270.148 L161.607885,269.9937 L162.628385,269.8391 L163.646985,269.6709 L164.664085,269.5027 L165.679185,269.3219 L166.695885,269.1408 L167.709985,268.9459 L168.724285,268.7509 L169.735685,268.542 L170.745785,268.3333 L171.753085,268.1121 L172.761885,267.8904 L173.767485,267.6549 L174.773385,267.4202 L175.775785,267.1717 L176.776785,266.9234 L177.774385,266.6626 L178.773485,266.4013 L179.768685,266.1261 L180.763885,265.8508 L181.754785,265.5616 L182.744285,265.2727 L183.729685,264.9713 L184.716685,264.6692 L185.698785,264.3532 L186.681085,264.0371 L187.658385,263.7071 L188.634185,263.3775 L189.605085,263.0354 L190.578285,262.6941 L191.545885,262.339 L192.513685,261.9838 L193.475685,261.6147 L194.436185,261.2459 L195.391185,260.8647 L196.347985,260.4825 L197.298385,260.0865 L198.248885,259.6902 L199.192785,259.28 L200.135285,258.8703 L201.071485,258.448 L202.009385,258.0248 L202.940285,257.5876 L203.871285,257.1502 L204.794885,256.6989 L205.715885,256.246 L206.629785,255.7802 L207.545385,255.3133 L208.453085,254.8325 L209.360885,254.3515 L210.260385,253.8565 L211.158385,253.3622 L212.048785,252.8553 L212.940785,252.3472 L213.824185,251.8252 L214.707585,251.3029 L215.582085,250.7667 L216.454985,250.2312 L217.319385,249.6832 L218.185585,249.1338 L219.042285,248.5705 L219.898185,248.0054 L220.743885,247.4259 L221.587885,246.8473 L222.422785,246.2561 L223.259485,245.6634 L224.085685,245.0568 L224.912085,244.4499 L225.727785,243.8291 L226.541885,243.2093 L227.346085,242.5769 L228.151985,241.9428 L228.946785,241.2949 L229.741585,240.6466 L230.524985,239.9845 L231.306785,239.3234 L232.077985,238.6497 L232.850985,237.9744 L233.612085,237.2853 L234.373285,236.5959 L235.122285,235.8926 L235.869685,235.1905 L236.605785,234.4757 L237.343385,233.759 L238.068385,233.0285 L238.793385,232.2976 L239.505285,231.5528 L240.215685,230.8092 L240.913985,230.0531 L241.613885,229.295 L242.300285,228.5229 L242.986585,227.7505 L243.659085,226.9642 L244.330285,226.1794 L244.988885,225.3822 L245.648985,224.583 L246.294785,223.7698 L246.940485,222.9562 L247.571585,222.1287 L248.201285,221.3028 L248.817485,220.4642 L249.434985,219.6234 L250.037385,218.7687 L250.639685,217.9136 L251.226585,217.0446 L251.812085,216.1773 L252.383385,215.2974 L252.955885,214.4151 L253.512485,213.519 L254.069385,212.6227 L254.610585,211.7129 L255.150485,210.8048 L255.675485,209.8842 L256.201585,208.961 L256.710985,208.0241 L257.220185,207.0867 L257.712485,206.1355 L258.203485,205.1861 L258.678885,204.2242 L259.155285,203.2597 L259.614085,202.2815 L260.072785,201.3028 L260.513685,200.3103 L260.953485,199.3198 L261.376885,198.3167 L261.801285,197.3112 L262.207385,196.2918 L262.613385,195.2721 L263.000785,194.2386 L263.387185,193.2071 L263.756485,192.1631 L264.126385,191.1166 L264.477285,190.0561 L264.827985,188.9955 L265.159285,187.921 L265.489785,186.8486 L265.890785,185.4674 L266.292285,184.0838 L266.667485,182.7089 L267.043685,181.3342 L267.393885,179.9682 L267.743585,178.6042 L268.069685,177.248 L268.396085,175.8897 L268.696885,174.5401 L268.997485,173.1905 L269.272685,171.8496 L269.547185,170.5107 L269.798885,169.1798 L270.050685,167.8467 L270.277585,166.5225 L270.504285,165.1982 L270.706185,163.8827 L270.907485,162.5694 L271.086585,161.2643 L271.265785,159.9568 L271.420585,158.6584 L271.575285,157.3598 L271.705785,156.0703 L271.835885,154.7831 L271.944285,153.5041 L272.052685,152.2227 L272.137285,150.9504 L272.221785,149.6781 L272.282785,148.415 L272.343585,147.1543 L272.383185,145.9018 L272.422685,144.647 L272.439185,143.4015 L272.455385,142.1559 L272.448885,140.9197 L272.442085,139.6859 L272.414885,138.4605 L272.387485,137.2328 L272.337585,136.0144 L272.287485,134.7962 L272.215385,133.5873 L272.142385,132.381 L272.049385,131.1834 L271.955985,129.9833 L271.840885,128.7928 L271.725585,127.6024 L271.588785,126.4216 L271.452185,125.2434 L271.296285,124.0739 L271.139785,122.9021 L270.962385,121.74 L270.784785,120.578 L270.586385,119.4257 L270.388285,118.2761 L270.171485,117.1354 L269.953185,115.9925 L269.714385,114.8595 L269.475385,113.7267 L269.216385,112.6038 L268.957685,111.4836 L268.681085,110.3724 L268.403585,109.2589 L268.106585,108.1555 L267.809385,107.0523 L267.492885,105.9591 L267.176885,104.8687 L266.843485,103.7874 L266.509285,102.7038 L266.156085,101.6305 L265.802685,100.5574 L265.430485,99.4946 L265.058985,98.4344 L264.670685,97.3836 L264.281385,96.3307 L263.873985,95.288 L263.466385,94.2456 L263.040885,93.2136 L262.616285,92.1841 L262.175485,91.1642 L261.733685,90.1421 L261.274385,89.1306 L260.814985,88.1193 L260.338385,87.1185 L259.862685,86.1202 L259.371385,85.1317 L258.878485,84.1413 L258.368885,83.1617 L257.859085,82.1823 L257.332885,81.2135 L256.807785,80.2472 L256.267885,79.2906 L255.726785,78.3322 L255.169585,77.3846 L254.612385,76.4372 L254.039385,75.5006 L253.467585,74.5663 L252.881685,73.6419 L252.294485,72.7158 L251.691985,71.8005 L251.089285,70.8856 L250.471385,69.9818 L249.854585,69.0802 L249.224485,68.1887 L248.592885,67.2954 L247.946785,66.4132 L247.300685,65.5313 L246.640285,64.6605 L245.981185,63.7918 L245.309385,62.9331 L244.636085,62.0729 L243.948985,61.2239 L243.261885,60.3751 L242.561085,59.5375 L241.861785,58.7019 L241.150385,57.8764 L240.437785,57.0494 L239.711985,56.2336 L238.986285,55.418 L238.247685,54.6137 L237.510585,53.8113 L236.761885,53.0192 L236.011785,52.2257 L235.249285,51.4436 L234.486785,50.6618 L233.712085,49.8914 L232.938885,49.1227 L232.154885,48.3644 L231.369485,47.6048 L230.572285,46.8568 L229.775085,46.109 L228.966485,45.3726 L228.159485,44.6379 L227.342285,43.9135 L226.523585,43.1881 L225.693885,42.4743 L224.864285,41.7607 L224.023885,41.0588 L223.184985,40.3583 L222.336685,39.6684 L221.486785,38.9774 L220.626585,38.2981 L219.766385,37.6191 L218.896185,36.9518 L218.027585,36.2859 L217.150085,35.6307 L216.271485,34.9739 L215.383485,34.3286 L214.495585,33.6834 L213.598285,33.0501 L212.702585,32.4182 L211.798685,31.7969 L210.893085,31.1748 L209.978685,30.5645 L209.064385,29.9545 L208.141285,29.3564 L207.219885,28.7594 L206.290885,28.1734 L205.360285,27.5865 L204.421485,27.0116 L203.482685,26.4369 L202.536185,25.8739 L201.591485,25.3116 L200.639785,24.7604 L199.686385,24.2084 L198.725585,23.6685 L197.764785,23.1288 L196.796785,22.6011 L195.830285,22.0746 L194.857585,21.559 L193.883185,21.0428 L192.901985,20.5388 L191.920785,20.0349 L190.933085,19.5433 L189.946985,19.0526 L188.955085,18.5731 L187.961685,18.0929 L186.962085,17.625 L185.962585,17.1574 L184.957185,16.702 L183.953485,16.2475 L182.944585,15.8044 L181.934085,15.3605 L180.918185,14.9292 L179.902285,14.4979 L178.881285,14.0791 L177.861885,13.6612 L176.837985,13.2546 L175.812485,12.8474 L174.782285,12.4528 L173.751985,12.0583 L172.717185,11.6768 L171.683985,11.2962 L170.646885,10.927 L169.608085,10.5575 L168.565385,10.2005 L167.522585,9.8437 L166.476085,9.4995 L165.431285,9.156 L164.383185,8.8242 L163.333485,8.4919 L162.280385,8.1723 L161.227385,7.8529 L160.171185,7.5462 L159.116785,7.2402 L158.059685,6.9458 L157.000785,6.652 L155.939085,6.3715 L154.877285,6.0912 L153.813285,5.8237 L152.750885,5.5569 L151.686585,5.3017 L150.620485,5.0463 L149.552585,4.8039 L148.484585,4.5616 L147.414985,4.3323 L146.347085,4.1036 L145.277885,3.8866 L144.206885,3.6695 L143.134785,3.4655 L142.062585,3.2615 L140.989885,3.0681 L139.919285,2.8724 L138.847985,2.6888 L137.774885,2.5049 L136.701185,2.3342 L135.627285,2.1637 L134.553085,2.0064 L133.480585,1.8495 L132.408085,1.7046 L131.333585,1.5597 L130.259185,1.428 L129.184685,1.2965 L128.110485,1.1784 L127.038085,1.0606 L125.966185,0.9549 L124.892485,0.8473 L123.819985,0.7474 L122.747185,0.6476 L121.675485,0.5613 L120.605385,0.4752 L119.536385,0.4015 L118.465285,0.3277 L117.395485,0.2676 L116.325385,0.2076 L115.257085,0.1612 L114.190385,0.1151 L113.125485,0.0813 L112.058285,0.0477 L110.993185,0.0278 L109.927785,0.008 L108.864685,0 L107.803585,0 L106.744785,0.0115 L105.683685,0.0232 L104.625385,0.0489 L103.566885,0.0746 L102.511485,0.1143 L101.458085,0.154 L100.407685,0.2064 L99.3547853,0.2591 L98.3055853,0.3257 L97.2559853,0.3926 L96.2102853,0.4735 L95.1664853,0.5544 L94.1263853,0.648 L93.0837853,0.742 L92.0454853,0.8503 L91.0069853,0.9602 L89.9730853,1.0844 L88.9412653,1.2085 L87.9137753,1.3455 L86.8836553,1.483 L85.8585153,1.6348 L84.8330853,1.7868 L83.8128953,1.9531 L82.7948753,2.1192 L81.7818153,2.2983 L80.7660453,2.4782 L79.7559353,2.6723 L78.7363253,2.8687 L76.7388453,3.2843 L74.7430953,3.73 L72.7574353,4.2074 L70.7871653,4.7139 L68.8288753,5.2475 L66.8816253,5.8117 L64.9512553,6.4052 L63.0341653,7.0261 L61.1294353,7.6782 L59.2431053,8.3596 L57.3713453,9.0688 L55.5133453,9.8098 L53.6752453,10.5802 L51.8530653,11.3788 L50.0460353,12.2096 L48.2604553,13.0702 L46.4921553,13.9591 L44.7404453,14.8809 L43.0123353,15.8335 L41.3031553,16.8152 L39.6121153,17.8303 L37.9457253,18.8752 L36.2994653,19.9492 L34.6729053,21.0571 L33.0725653,22.1949 L31.4938053,23.3619 L29.9364353,24.5636 L28.4074253,25.7958 L26.9014953,27.0575 L25.4185953,28.354 L23.9650853,29.6805 L22.5361653,31.0367 L21.1319953,32.4282 L19.7587653,33.8495 L18.4116453,35.3006 L17.0910153,36.7875 L15.8028653,38.3041 L14.5423253,39.8504 L13.3100853,41.433 L12.1117853,43.045 L10.9425953,44.6869 L9.80349531,46.3651 L8.69976531,48.0726 L7.62660531,49.8101 L6.58534531,51.584 L5.58080531,53.387 L4.60824531,55.2199 L3.67614531,57.0754 L3.21787531,58.0402 L2.76849531,58.9876 L2.33542531,59.9496 L1.90098531,60.9158 L1.48475531,61.898 L1.06890531,62.8805 L0.671515311,63.8791 L0.291147311,64.835 C-0.553327689,66.981 0.501747311,69.4052 2.64772531,70.2497 C4.79370531,71.0942 7.21794531,70.0391 8.06241531,67.8931 Z" id="Fill-5"></path>
            <path d="M21.0176153,149.8039 L21.3211353,148.5164 L21.6423853,147.2544 L21.9873253,145.9918 L22.3528153,144.7302 L22.7392353,143.4718 L23.1370853,142.2187 L23.5680053,140.9495 L23.9948053,139.6891 L24.4561553,138.4329 L24.9096153,137.1697 L25.3890253,135.9079 L25.8521453,134.6321 L26.3392653,133.3579 L26.8761753,132.1057 L27.4679353,130.8713 L28.0574453,129.6333 L28.6701653,128.3999 L29.2832753,127.1622 L29.9201053,125.9311 L30.5568353,124.6997 L31.2219953,123.4784 L31.8913853,122.257 L32.5818853,121.0434 L33.2736853,119.827 L33.9820853,118.6175 L34.6827553,117.4031 L35.3923753,116.192 L36.0946153,114.974 L36.8031653,113.7594 L37.5088953,112.5398 L38.2257053,111.3278 L38.9491653,110.1191 L39.6901953,108.924 L40.4384653,107.7318 L41.1981253,106.5514 L41.9578453,105.3708 L42.6813553,104.1754 L43.3901353,102.9635 L44.1183253,101.7645 L44.8563653,100.576 L45.6022053,99.412 L46.3550253,98.2486 L47.1083753,97.0855 L47.8685853,95.9249 L48.6172053,94.7837 L49.3650553,93.6442 L50.1128953,92.5047 L50.8607553,91.3652 C51.3106853,90.6894 51.1276053,89.7769 50.4518253,89.3269 C49.7760553,88.877 48.8634853,89.0601 48.4135453,89.7359 L47.6506953,90.8654 L46.8878353,91.9949 L46.1249853,93.1244 L45.3628853,94.2522 L44.5817953,95.3946 L43.7938453,96.5345 L43.0053653,97.674 L42.2099053,98.813 L41.3985753,99.9609 L40.5773853,101.0982 L39.7367853,102.2227 L38.9109253,103.3637 L38.1271053,104.5418 L37.3432053,105.7203 L36.5586753,106.9031 L35.7669153,108.0832 L34.9739453,109.2657 L34.1743253,110.445 L33.3830153,111.6311 L32.5945153,112.8222 L31.8259253,114.0259 L31.0647353,115.2364 L30.3264453,116.4593 L29.5958853,117.6872 L28.8821753,118.9223 L28.1671753,120.1601 L27.4727753,121.4057 L26.7741453,122.6512 L26.0944453,123.9021 L25.4148353,125.1532 L24.7590353,126.4115 L24.1028353,127.6741 L23.4806453,128.9472 L22.8606953,130.2238 L22.2487353,131.4974 L21.5869953,132.7491 L20.9628553,134.0127 L20.3549953,135.2901 L19.7938853,136.5807 L19.2406653,137.8785 L18.7312153,139.1863 L18.2258853,140.4854 L17.7437253,141.8105 L17.2929853,143.1372 L16.8655853,144.468 L16.4589953,145.804 L16.0754453,147.1478 L15.7223053,148.473 C15.3547853,149.9352 16.2422453,151.4186 17.7045053,151.7861 C19.1667653,152.1536 20.6500953,151.2661 21.0176153,149.8039 Z" id="Fill-76"></path>
            <path d="M38.2103753,148.7467 L38.3836853,147.5138 L38.5548053,146.2945 L38.7387953,145.0756 L38.9227653,143.8564 L39.1179953,142.6375 L39.3060353,141.4159 L39.5042053,140.1946 L39.7011053,138.9739 L39.9050253,137.753 L40.0994153,136.5296 L40.2942153,135.3048 L40.4661553,134.0733 L40.6593553,132.8448 L40.9020653,131.6276 L41.1750953,130.4162 L41.4433553,129.2035 L41.7191553,127.9918 L41.9943053,126.7787 L42.2804753,125.5677 L42.5663953,124.3574 L42.8708653,123.1512 L43.1778953,121.9455 L43.4969753,120.7426 L43.8161253,119.5386 L44.1457453,118.3373 L44.4654753,117.134 L44.7896053,115.9317 L45.1048253,114.7265 L45.4242153,113.5221 L45.7394653,112.3152 L46.0666353,111.1116 L46.4004253,109.9106 L46.7558953,108.7163 L47.1185953,107.524 L47.4988953,106.3378 L47.8804253,105.151 L48.2317653,103.9543 L48.5576353,102.7491 L48.9155753,101.5549 L49.2882153,100.3653 L49.6842353,99.1846 L50.0873353,98.0054 L50.5012753,96.8308 L50.9210853,95.659 L51.3561053,94.4938 L51.7916553,93.3288 L52.2379353,92.169 L52.6868053,91.0026 C52.9839453,90.247 52.6123553,89.3937 51.8568253,89.0966 C51.1012953,88.7994 50.2479453,89.171 49.9508053,89.9265 L49.4848453,91.0862 L49.0163053,92.2525 L48.5584753,93.4243 L48.1001253,94.596 L47.6482353,95.7712 L47.1904753,96.9438 L46.7417453,98.1208 L46.2859353,99.2961 L45.8287953,100.4721 L45.3569653,101.6435 L44.8753153,102.8129 L44.4191453,103.9908 L44.0135853,105.1863 L43.6067853,106.3824 L43.2050353,107.5808 L42.7960553,108.777 L42.3882653,109.9742 L41.9738553,111.1688 L41.5684753,112.3667 L41.1672453,113.5672 L40.7850953,114.7737 L40.4118353,115.9831 L40.0576553,117.198 L39.7133553,118.4147 L39.3800853,119.6343 L39.0467553,120.855 L38.7252053,122.0784 L38.4011053,123.3012 L38.0825153,124.5251 L37.7641653,125.7483 L37.4568553,126.9737 L37.1501753,128.2004 L36.8604153,129.4305 L36.5754053,130.6618 L36.2847453,131.8911 L35.9445653,133.109 L35.6057253,134.3272 L35.2897353,135.5519 L34.9983753,136.7812 L34.7165553,138.0128 L34.4529553,139.2471 L34.1906353,140.4808 L33.9413053,141.716 L33.6991753,142.9541 L33.4714153,144.1935 L33.2436753,145.4332 L33.0289153,146.6737 L32.8163453,147.9005 C32.5826753,149.3901 33.6007453,150.787 35.0902653,151.0207 C36.5797853,151.2543 37.9767053,150.2362 38.2103753,148.7467 Z" id="Fill-77"></path>
            <path d="M40.4850753,123.3387 L40.5773253,122.9894 L40.6640053,122.6604 L40.7380253,122.3498 L40.7976753,122.0539 L40.8473853,121.7755 L40.8755353,121.5081 L40.8582453,121.0013 L40.9714653,120.6123 L41.0723753,120.2807 L41.1552353,119.9928 L41.2256653,119.75 L41.2961753,119.5486 L41.3587453,119.3772 L41.4136953,119.2316 L41.4433553,119.1485 L41.6520153,118.4649 L42.0476453,117.3343 L42.3102053,116.2329 L42.7558453,115.2314 C43.1360053,114.514 42.8626653,113.6243 42.1453153,113.2441 C41.4279653,112.864 40.5382553,113.1373 40.1580953,113.8546 L39.5795453,114.7857 L38.8179053,115.617 L38.0745953,116.6219 L37.6105253,117.3194 L37.4961253,117.5669 L37.4058453,117.7715 L37.3151053,117.9848 L37.2194353,118.2119 L37.1034853,118.459 L36.9728253,118.7376 L36.8300453,119.0541 L36.6603053,119.4166 L36.3139053,119.7798 L36.1599953,119.9916 L36.0138553,120.227 L35.8629453,120.4815 L35.7123953,120.756 L35.5582753,121.0518 L35.3926853,121.3692 C34.8488053,122.7754 35.5478853,124.3563 36.9541053,124.9001 C38.3603353,125.444 39.9412053,124.745 40.4850753,123.3387 Z" id="Fill-78"></path>
        </g>
    </g>
</svg>
