<?xml version="1.0" encoding="UTF-8"?>
<svg width="427px" height="230px" viewBox="0 0 427 230" version="1.1" xmlns="http://www.w3.org/2000/svg" xmlns:xlink="http://www.w3.org/1999/xlink">
    <title>259</title>
    <g id="Page-1" stroke="none" stroke-width="1" fill="none" fill-rule="evenodd">
        <g id="259" transform="translate(0.048262, 0.429499)" fill="currentColor">
            <path d="M8.82124284,225.501194 L9.05131284,224.373194 L9.27481284,223.277194 L9.51169284,222.196194 L9.74835284,221.115194 L9.99824284,220.049194 L10.2486128,218.980194 L10.5109328,217.925194 L10.7723028,216.873194 L11.0466928,215.835194 L11.3208528,214.798194 L11.6078828,213.775194 L11.8955328,212.750194 L12.1948028,211.737194 L12.4929828,210.728194 L12.8038028,209.733194 L13.1143928,208.738194 L13.4375028,207.757194 L13.7613828,206.773194 L14.0965628,205.803194 L14.4304928,204.835194 L14.7767228,203.881194 L15.1227128,202.927194 L15.4808728,201.988194 L15.8399528,201.045194 L16.2100228,200.115194 L16.5787028,199.187194 L16.9593128,198.274194 L17.3397128,197.360194 L17.7319228,196.460194 L18.1252228,195.557194 L18.5292128,194.666194 L18.9316428,193.778194 L19.3456828,192.903194 L19.7542528,192.039194 L20.6113928,190.302194 L21.4835928,188.599194 L22.3764728,186.925194 L23.2928928,185.274194 L24.2290828,183.645194 L25.1852028,182.044194 L26.1644228,180.464194 L27.1628728,178.907194 L28.1805528,177.376194 L29.2208828,175.867194 L30.2799528,174.379194 L31.3575728,172.916194 L32.4574128,171.475194 L33.5755028,170.053194 L34.7115028,168.657194 L35.8692728,167.281194 L37.0448328,165.924194 L38.2377028,164.592194 L39.4518828,163.278194 L40.6833728,161.985194 L41.9316028,160.714194 L43.2006728,159.462194 L44.4865728,158.228194 L45.7886728,157.017194 L47.1111228,155.825194 L48.4499228,154.650194 L49.8043228,153.497194 L51.1785228,152.361194 L52.5681228,151.243194 L53.9725228,150.144194 L55.3961228,149.063194 L56.8352228,147.999194 L58.2889228,146.954194 L59.7612228,145.927194 L61.2482228,144.915194 L62.7493228,143.923194 L64.2684228,142.947194 L65.8019228,141.987194 L67.3490228,141.045194 L68.9134228,140.119194 L70.4917228,139.208194 L72.0830228,138.316194 L73.6815228,137.443194 L75.3203228,136.582194 L76.9467228,135.727194 L78.6003228,134.905194 L80.2552228,134.082194 L81.9362228,133.291194 L83.6219228,132.498194 L85.3306228,131.732194 L87.0371228,130.968194 L88.7679228,130.234194 L90.5002228,129.499194 L92.2559228,128.793194 L94.0160228,128.086194 L95.7966228,127.404194 L97.5754228,126.723194 L99.3758228,126.070194 L101.177723,125.417194 L103.000323,124.790194 L104.826523,124.160194 L106.670823,123.555194 L108.513423,122.949194 L110.375223,122.369194 L112.238323,121.789194 L114.119123,121.231194 L116.003523,120.673194 L117.903523,120.136194 L119.810723,119.596194 L120.747323,119.345194 L121.717523,119.085194 L122.687623,118.824194 L123.633923,118.570194 L124.587923,118.327194 L125.565723,118.078194 L126.543523,117.829194 L127.500723,117.585194 L128.464523,117.350194 L129.448923,117.111194 L130.433223,116.871194 L131.396123,116.637194 L132.365823,116.412194 L133.356923,116.183194 L134.348023,115.954194 L135.318923,115.729194 L136.296223,115.514194 L137.293623,115.295194 L138.291023,115.075194 L139.271123,114.860194 L140.256523,114.653194 L141.259223,114.442194 L142.261723,114.230194 L143.246123,114.021194 L144.236123,113.821194 L145.243923,113.618194 L146.251823,113.415194 L147.242923,113.215194 L148.239023,113.024194 L149.251823,112.829194 L150.264623,112.634194 L151.263123,112.442194 L152.265523,112.256194 L153.282323,112.068194 L154.299023,111.880194 L155.301023,111.694194 L156.307223,111.516194 L157.328023,111.335194 L158.348823,111.155194 L159.356023,110.976194 L160.366823,110.805194 L161.391123,110.631194 L162.415423,110.457194 L163.428223,110.284194 L164.443823,110.118194 L165.470923,109.950194 L166.498023,109.782194 L167.513523,109.615194 L168.531723,109.455194 L169.561523,109.293194 L170.591323,109.132194 L171.610323,108.970194 L172.631523,108.814194 L173.663223,108.656194 L174.695023,108.498194 L175.718023,108.342194 L176.742623,108.191194 L177.776023,108.038194 L178.809423,107.885194 L179.834023,107.734194 L180.860223,107.589194 L181.895523,107.445194 L182.930823,107.302194 L183.958323,107.160194 L184.986623,107.022194 L186.022723,106.883194 L187.058823,106.744194 L188.085823,106.606194 L189.113123,106.474194 L190.149623,106.341194 L191.186223,106.209194 L192.222923,106.077194 L193.259523,105.945194 L194.296223,105.813194 L195.332823,105.681194 L196.358723,105.551194 L197.383723,105.427194 L198.419423,105.302194 L199.455123,105.177194 L200.490723,105.051194 L201.525823,104.921194 L202.560923,104.790194 L203.596023,104.660194 L204.623923,104.531194 L205.648923,104.406194 L206.681123,104.281194 L207.713323,104.156194 L208.745623,104.031194 L209.777823,103.905194 L210.810123,103.781194 L211.842423,103.656194 L212.870923,103.532194 L213.895123,103.411194 L214.923223,103.289194 L215.951323,103.168194 L216.979423,103.046194 L218.007523,102.925194 L219.035623,102.803194 L220.063723,102.682194 L221.090723,102.563194 L222.111323,102.445194 L223.133223,102.327194 L224.155223,102.209194 L225.177123,102.092194 L226.199123,101.974194 L227.221123,101.856194 L228.243023,101.738194 L229.266823,101.620194 L230.282323,101.502194 L231.296023,101.386194 L232.309823,101.269194 L233.323523,101.152194 L234.337323,101.035194 L235.351023,100.919194 L236.364823,100.802194 L237.382723,100.685194 L238.391523,100.566194 L239.396023,100.447194 L240.400623,100.329194 L241.405223,100.211194 L242.409823,100.093194 L243.414423,99.9751943 L244.419123,99.8571943 L245.431123,99.7381943 L246.431323,99.6151943 L247.424123,99.4931943 L248.416923,99.3721943 L249.409623,99.2501943 L250.402523,99.1291943 L251.395323,99.0081943 L252.388223,98.8871943 L253.395323,98.7641943 L255.360623,98.5101943 L257.318723,98.2581943 L259.276923,98.0051943 L261.244023,97.7521943 L263.190523,97.4891943 L265.135523,97.2271943 L267.064123,96.9571943 L268.993623,96.6871943 L270.905823,96.4071943 L272.817823,96.1281943 L274.713323,95.8401943 L276.610423,95.5521943 L278.488523,95.2531943 L280.367523,94.9541943 L282.226623,94.6451943 L284.085423,94.3351943 L285.925223,94.0141943 L287.766923,93.6931943 L289.586923,93.3591943 L291.408023,93.0251943 L293.206423,92.6771943 L295.004323,92.3301943 L296.780823,91.9681943 L298.559523,91.6061943 L300.313823,91.2291943 L302.069123,90.8501943 L303.799123,90.4551943 L305.528323,90.0611943 L307.233723,89.6501943 L308.941723,89.2381943 L310.622623,88.8081943 L312.304523,88.3771943 L313.958523,87.9271943 L315.611423,87.4771943 L317.238123,87.0091943 L318.867823,86.5391943 L320.467723,86.0491943 L322.068723,85.5581943 L323.639123,85.0441943 L325.206723,84.5311943 L326.614223,84.0441943 L328.022723,83.5561943 L329.399423,83.0481943 L330.775623,82.5411943 L332.121123,82.0151943 L333.464023,81.4901943 L334.779723,80.9481943 L336.097223,80.4051943 L337.385923,79.8441943 L338.674123,79.2831943 L339.934323,78.7051943 L341.191923,78.1271943 L342.425123,77.5341943 L343.659823,76.9401943 L344.868723,76.3281943 L346.076823,75.7171943 L347.260123,75.0891943 L348.441023,74.4631943 L349.600223,73.8221943 L350.760823,73.1811943 L351.898423,72.5231943 L353.035323,71.8651943 L354.150123,71.1921943 L355.262423,70.5201943 L356.355623,69.8351943 L357.450023,69.1481943 L358.524323,68.4471943 L359.597923,67.7451943 L360.652323,67.0301943 L361.704423,66.3151943 L362.739923,65.5881943 L363.776423,64.8601943 L364.795823,64.1181943 L365.814323,63.3771943 L366.816723,62.6221943 L367.816823,61.8691943 L368.803223,61.1031943 L369.790223,60.3371943 L370.763123,59.5581943 L371.735123,58.7801943 L372.694023,57.9891943 L373.650823,57.2001943 L374.596623,56.4001943 L375.542823,55.5991943 L376.477823,54.7871943 L377.412023,53.9751943 L378.336023,53.1521943 L379.258323,52.3301943 L380.172123,51.4981943 L381.086323,50.6661943 L381.992223,49.8241943 L382.897323,48.9821943 L383.795323,48.1291943 L384.691723,47.2791943 L385.582523,46.4191943 L386.473423,45.5581943 L387.359123,44.6891943 L388.244023,43.8201943 L389.124723,42.9411943 L390.006723,42.0621943 L390.884823,41.1701943 L391.754823,40.2871943 L392.624823,39.4031943 L393.504323,38.5101943 L394.381423,37.6001943 L395.249023,36.7001943 L396.116523,35.8001943 L396.990523,34.8931943 L397.866423,33.9711943 L398.736023,33.0561943 L399.605523,32.1411943 L400.478423,31.2221943 L401.356623,30.2911943 L402.231423,29.3631943 L403.106323,28.4351943 L403.982323,27.5061943 L404.867823,26.5641943 L405.752323,25.6231943 L406.636823,24.6831943 L407.519623,23.7441943 L408.416423,22.7941943 L409.314823,21.8421943 L410.213323,20.8901943 L411.108123,19.9421943 L412.019123,18.9851943 L412.933823,18.0241943 L413.848423,17.0631943 L414.756823,16.1091943 L415.686923,15.1461943 L416.623223,14.1761943 L417.559423,13.2071943 L418.487023,12.2461943 L419.440723,11.2781943 L420.402923,10.3011943 L421.365223,9.32519426 L422.327423,8.34819426 C423.278623,7.38719426 423.270523,5.83619426 422.309323,4.88519426 C421.348023,3.93419426 419.797823,3.94219426 418.846523,4.90319426 L417.880023,5.87619426 L416.913423,6.84819426 L415.946823,7.82119426 L414.971723,8.80219426 L414.022523,9.77619426 L413.082023,10.7411943 L412.141423,11.7061943 L411.194723,12.6781943 L410.269623,13.6411943 L409.350723,14.5981943 L408.431823,15.5551943 L407.509323,16.5151943 L406.603023,17.4671943 L405.700323,18.4151943 L404.797723,19.3621943 L403.893323,20.3121943 L403.003023,21.2501943 L402.114423,22.1871943 L401.225723,23.1241943 L400.338223,24.0591943 L399.460323,24.9821943 L398.581423,25.9061943 L397.702423,26.8301943 L396.826723,27.7511943 L395.956423,28.6591943 L395.082823,29.5701943 L394.209223,30.4811943 L393.341823,31.3861943 L392.476623,32.2761943 L391.605023,33.1721943 L390.733423,34.0681943 L389.871223,34.9551943 L389.006923,35.8251943 L388.133023,36.7041943 L387.259123,37.5841943 L386.393323,38.4551943 L385.523923,39.3151943 L384.653223,40.1751943 L383.778523,41.0261943 L382.904723,41.8771943 L382.025723,42.7181943 L381.146823,43.5591943 L380.262423,44.3911943 L379.379523,45.2221943 L378.489723,46.0421943 L377.600823,46.8611943 L376.703823,47.6701943 L375.806623,48.4801943 L374.901223,49.2791943 L373.997523,50.0771943 L373.084023,50.8641943 L372.171323,51.6501943 L371.247623,52.4241943 L370.323523,53.1991943 L369.388423,53.9631943 L368.455423,54.7261943 L367.509423,55.4761943 L366.564423,56.2261943 L365.605223,56.9641943 L364.645423,57.7021943 L363.672023,58.4281943 L362.700823,59.1531943 L361.713623,59.8651943 L360.727423,60.5761943 L359.724023,61.2741943 L358.719723,61.9721943 L357.699023,62.6591943 L356.680823,63.3431943 L355.643523,64.0141943 L354.607123,64.6841943 L353.550623,65.3401943 L352.492823,65.9971943 L351.415723,66.6401943 L350.341323,67.2831943 L349.244823,67.9101943 L348.149123,68.5361943 L347.030223,69.1481943 L345.909823,69.7601943 L344.767423,70.3581943 L343.627323,70.9551943 L342.462123,71.5351943 L341.297623,72.1151943 L340.106823,72.6791943 L338.914423,73.2441943 L337.697223,73.7931943 L336.482723,74.3421943 L335.240023,74.8741943 L333.997923,75.4061943 L332.726523,75.9201943 L331.453123,76.4351943 L330.152323,76.9351943 L328.854123,77.4331943 L327.524723,77.9131943 L326.195623,78.3941943 L324.834223,78.8561943 L323.471823,79.3191943 L321.944423,79.8081943 L320.419723,80.2961943 L318.863923,80.7631943 L317.307023,81.2301943 L315.719923,81.6761943 L314.129923,82.1241943 L312.513423,82.5531943 L310.897823,82.9821943 L309.254023,83.3921943 L307.609023,83.8021943 L305.936723,84.1941943 L304.261823,84.5861943 L302.562923,84.9631943 L300.864723,85.3401943 L299.140923,85.7001943 L297.416123,86.0601943 L295.666723,86.4051943 L293.915123,86.7501943 L292.141923,87.0821943 L290.369323,87.4131943 L288.573723,87.7301943 L286.777123,88.0471943 L284.958723,88.3511943 L283.138323,88.6551943 L281.298923,88.9471943 L279.459823,89.2401943 L277.600523,89.5201943 L275.740323,89.8011943 L273.860923,90.0701943 L271.980023,90.3401943 L270.082523,90.6011943 L268.185123,90.8621943 L266.270323,91.1141943 L264.354723,91.3661943 L262.422723,91.6101943 L260.492223,91.8541943 L258.540823,92.0881943 L256.580423,92.3231943 L254.620023,92.5571943 L252.666823,92.7911943 L251.687123,92.9011943 L250.693223,93.0131943 L249.699223,93.1251943 L248.705223,93.2361943 L247.711223,93.3471943 L246.717223,93.4581943 L245.723123,93.5691943 L244.736623,93.6801943 L243.738123,93.7861943 L242.732423,93.8931943 L241.726523,94.0011943 L240.720723,94.1081943 L239.714923,94.2161943 L238.709123,94.3231943 L237.703223,94.4301943 L236.701623,94.5361943 L235.690823,94.6411943 L234.675823,94.7461943 L233.660823,94.8521943 L232.645823,94.9571943 L231.630823,95.0621943 L230.615723,95.1671943 L229.600823,95.2731943 L228.587523,95.3771943 L227.565823,95.4801943 L226.542323,95.5831943 L225.518823,95.6871943 L224.495323,95.7911943 L223.471823,95.8941943 L222.448323,95.9981943 L221.424823,96.1011943 L220.399923,96.2051943 L219.368623,96.3101943 L218.338523,96.4131943 L217.308423,96.5161943 L216.278323,96.6191943 L215.248223,96.7221943 L214.218023,96.8251943 L213.187923,96.9281943 L212.153923,97.0321943 L211.115723,97.1381943 L210.081323,97.2441943 L209.046923,97.3501943 L208.012423,97.4551943 L206.977923,97.5601943 L205.943423,97.6651943 L204.909023,97.7701943 L203.867223,97.8761943 L202.822523,97.9871943 L201.785123,98.0971943 L200.747623,98.2071943 L199.710223,98.3171943 L198.673223,98.4311943 L197.636323,98.5471943 L196.599423,98.6621943 L195.551823,98.7781943 L194.503223,98.9021943 L193.465423,99.0241943 L192.427523,99.1461943 L191.389723,99.2681943 L190.351823,99.3901943 L189.313923,99.5111943 L188.275923,99.6321943 L187.228723,99.7541943 L186.181823,99.8811943 L185.144123,100.007194 L184.106423,100.133194 L183.060923,100.261194 L182.016123,100.392194 L180.979223,100.523194 L179.942323,100.654194 L178.896223,100.784194 L177.851323,100.917194 L176.815123,101.049194 L175.778823,101.180194 L174.733923,101.314194 L173.690423,101.452194 L172.655723,101.589194 L171.621023,101.726194 L170.575723,101.864194 L169.532623,102.009194 L168.500323,102.153194 L167.468023,102.298194 L166.424023,102.445194 L165.382723,102.597194 L164.353023,102.749194 L163.323223,102.900194 L162.282123,103.053194 L161.243723,103.212194 L160.216723,103.369194 L159.189823,103.527194 L158.149523,103.688194 L157.112623,103.856194 L156.089223,104.021194 L155.065923,104.187194 L154.027823,104.355194 L152.993723,104.531194 L151.974423,104.704194 L150.955023,104.878194 L149.921323,105.054194 L148.891723,105.238194 L147.876523,105.419194 L146.861323,105.601194 L145.829323,105.786194 L144.802123,105.980194 L143.791723,106.170194 L142.781323,106.360194 L141.752923,106.554194 L140.729823,106.757194 L139.724723,106.957194 L138.719923,107.157194 L137.697723,107.362194 L136.680823,107.575194 L135.681223,107.784194 L134.681623,107.993194 L133.661823,108.207194 L132.648223,108.431194 L131.654823,108.650194 L130.661423,108.869194 L129.646523,109.093194 L128.638223,109.328194 L127.651523,109.558194 L126.664823,109.787194 L125.657523,110.022194 L124.656523,110.266194 L123.676323,110.505194 L122.696023,110.745194 L121.691923,110.990194 L120.695223,111.247194 L119.722523,111.497194 L118.749723,111.748194 L117.743323,112.008194 L115.797023,112.537194 L113.843523,113.068194 L111.905323,113.621194 L109.963523,114.176194 L108.039823,114.757194 L106.114723,115.339194 L104.208323,115.947194 L102.303423,116.555194 L100.416423,117.187194 L98.5258228,117.822194 L96.6556228,118.486194 L94.7840228,119.150194 L92.9339228,119.843194 L91.0856228,120.535194 L89.2576228,121.255194 L87.4252228,121.976194 L85.6160228,122.729194 L83.8053228,123.482194 L82.0188228,124.267194 L80.2346228,125.051194 L78.4732228,125.865194 L76.7070228,126.681194 L74.9667228,127.531194 L73.2250228,128.382194 L71.5103228,129.267194 L69.8079228,130.146194 L68.1030228,131.061194 L66.4192228,131.990194 L64.7512228,132.936194 L63.0959228,133.900194 L61.4528228,134.885194 L59.8263228,135.887194 L58.2133228,136.907194 L56.6132228,137.949194 L55.0305228,139.009194 L53.4621228,140.088194 L51.9075228,141.189194 L50.3711228,142.310194 L48.8495228,143.450194 L47.3424228,144.612194 L45.8546228,145.795194 L44.3830628,146.998194 L42.9267228,148.226194 L41.4903128,149.473194 L40.0702328,150.741194 L38.6662528,152.033194 L37.2830028,153.346194 L35.9168528,154.680194 L34.5676428,156.039194 L33.2399628,157.420194 L31.9301528,158.822194 L30.6381628,160.251194 L29.3684628,161.700194 L28.1174128,163.172194 L26.8850728,164.671194 L25.6757828,166.192194 L24.4859028,167.736194 L23.3156328,169.307194 L22.1691428,170.900194 L21.0427928,172.517194 L19.9369828,174.161194 L18.8556328,175.829194 L17.7951528,177.520194 L16.7561228,179.240194 L15.7422128,180.983194 L14.7498628,182.750194 L13.7798728,184.546194 L12.8356028,186.366194 L11.9188328,188.200194 L11.4641028,189.148194 L11.0148128,190.085194 L10.5778128,191.036194 L10.1423428,191.984194 L9.71810284,192.944194 L9.29277284,193.907194 L8.87993284,194.884194 L8.46731284,195.861194 L8.06729284,196.851194 L7.66868284,197.839194 L7.28160284,198.839194 L6.89359284,199.842194 L6.51840284,200.859194 L6.14345284,201.877194 L5.78142284,202.908194 L5.42065284,203.936194 L5.07171284,204.977194 L4.72200284,206.021194 L4.38544284,207.079194 L4.04911284,208.138194 L3.72603284,209.210194 L3.40406284,210.280194 L3.09420284,211.362194 L2.78373284,212.448194 L2.48672284,213.548194 L2.18995284,214.648194 L1.90675284,215.763194 L1.62450284,216.874194 L1.35465284,217.999194 L1.08433284,219.127194 L0.82779284,220.270194 L0.57147284,221.412194 L0.32904284,222.570194 L0.0931828404,223.696194 C-0.40511716,226.106194 1.14477284,228.464194 3.55496284,228.962194 C5.96515284,229.461194 8.32294284,227.911194 8.82124284,225.501194 Z" id="Fill-1"></path>
            <path d="M389.990423,60.4961943 L390.603323,59.2121943 L391.205923,57.9461943 L391.821623,56.6901943 L392.429723,55.4271943 L393.041923,54.1681943 L393.650223,52.9031943 L394.248923,51.6341943 L394.811023,50.3421943 L395.382923,49.0571943 L396.044123,47.8211943 L396.747623,46.6121943 L397.439023,45.3921943 L398.137223,44.1781943 L398.840323,42.9671943 L399.566423,41.7701943 L400.299023,40.5771943 L401.045323,39.3931943 L401.789423,38.2051943 L402.534423,37.0191943 L403.274123,35.8291943 L404.011923,34.6371943 L404.739423,33.4381943 L405.474723,32.2431943 L406.208823,31.0501943 L406.967523,29.8731943 L407.736123,28.6881943 L408.518023,27.5121943 L409.298223,26.3531943 L410.091323,25.2021943 L410.861023,24.0171943 L411.610223,22.8161943 L412.373623,21.6401943 L413.161123,20.4791943 L413.964023,19.3151943 L414.773823,18.1561943 L415.581823,17.0061943 L416.404623,15.8641943 L417.233823,14.7171943 L418.063023,13.5701943 L418.888123,12.4291943 L419.724623,11.2941943 L420.569223,10.1561943 L421.414823,9.01919426 L422.257523,7.88619426 L423.106723,6.75519426 L423.958923,5.62119426 L424.811123,4.48619426 L425.663223,3.35219426 C426.356523,2.42419426 426.166723,1.11019426 425.239223,0.417194259 C424.311823,-0.275805741 422.997923,-0.0858057408 422.304723,0.841194259 L421.457623,1.97919426 L420.610623,3.11819426 L419.763623,4.25619426 L418.913623,5.39919426 L418.070223,6.54419426 L417.229723,7.68419426 L416.388223,8.82419426 L415.538623,9.96719426 L414.695123,11.1121943 L413.855623,12.2521943 L413.016223,13.3911943 L412.170423,14.5361943 L411.329123,15.6821943 L410.489623,16.8201943 L409.643123,17.9531943 L408.781323,19.0891943 L407.920623,20.2241943 L407.045523,21.3361943 L406.190923,22.4621943 L405.359923,23.6221943 L404.545323,24.7931943 L403.732423,25.9481943 L402.906223,27.0931943 L402.070223,28.2461943 L401.231823,29.3971943 L400.394623,30.5471943 L399.567123,31.7041943 L398.750023,32.8691943 L397.953523,34.0481943 L397.162123,35.2291943 L396.387923,36.4231943 L395.615823,37.6191943 L394.850523,38.8211943 L394.078923,40.0201943 L393.305823,41.2191943 L392.527923,42.4141943 L391.763723,43.6201943 L391.011523,44.8351943 L390.240723,46.0401943 L389.380623,47.1961943 L388.535423,48.3631943 L387.726823,49.5521943 L386.951023,50.7631943 L386.179223,51.9791943 L385.429923,53.2121943 L384.688123,54.4501943 L383.960923,55.6991943 L383.244023,56.9291943 C382.258823,58.7921943 382.970423,61.1011943 384.833423,62.0861943 C386.696423,63.0711943 389.005223,62.3591943 389.990423,60.4961943 Z" id="Fill-3"></path>
            <path d="M367.603323,48.9801943 L368.859223,48.1731943 L370.142923,47.3491943 L371.406723,46.5051943 L372.662323,45.6551943 L373.894323,44.7781943 L375.117723,43.8991943 L376.312023,42.9831943 L377.480523,42.0311943 L378.635623,41.0701943 L379.844323,40.1931943 L381.056923,39.3291943 L382.258123,38.4541943 L383.446223,37.5651943 L384.637723,36.6811943 L385.827023,35.7991943 L387.018323,34.9221943 L388.203223,34.0401943 L389.383423,33.1551943 L390.550823,32.2551943 L391.714023,31.3511943 L392.862523,30.4291943 L394.001423,29.4981943 L395.134823,28.5601943 L396.267923,27.6231943 L397.406123,26.6941943 L398.542323,25.7711943 L399.688223,24.8611943 L400.841523,23.9551943 L401.991423,23.0431943 L403.114923,22.1021943 L404.223423,21.1431943 L405.345023,20.2051943 L406.479223,19.2801943 L407.622623,18.3621943 L408.771123,17.4501943 L409.915923,16.5461943 L411.073223,15.6531943 L412.237723,14.7581943 L413.402223,13.8621943 L414.556123,12.9741943 L415.726623,12.1021943 L416.910523,11.2251943 L418.095323,10.3491943 L419.264823,9.48519426 L420.454823,8.63919426 L421.660023,7.78119426 L422.865323,6.92419426 L424.070623,6.06719426 C425.012723,5.39419426 425.230723,4.08419426 424.557523,3.14219426 C423.884223,2.20019426 422.574823,1.98219426 421.632623,2.65519426 L420.431123,3.51819426 L419.229623,4.38019426 L418.028023,5.24319426 L416.811123,6.11619426 L415.614923,7.00819426 L414.433923,7.88919426 L413.252223,8.76919426 L412.056923,9.65219426 L410.874323,10.5461943 L409.702223,11.4321943 L408.530123,12.3171943 L407.350823,13.2061943 L406.176223,14.0961943 L405.005323,14.9781943 L403.829223,15.8551943 L402.643923,16.7241943 L401.454423,17.5851943 L400.251923,18.4241943 L399.064423,19.2821943 L397.903223,20.1691943 L396.742123,21.0541943 L395.573523,21.9351943 L394.395323,22.8031943 L393.219023,23.6651943 L392.029223,24.5081943 L390.839823,25.3511943 L389.646423,26.1881943 L388.462523,27.0351943 L387.281023,27.8851943 L386.103623,28.7391943 L384.925323,29.5941943 L383.751623,30.4501943 L382.566823,31.2941943 L381.379923,32.1311943 L380.174523,32.9441943 L378.965823,33.7521943 L377.749023,34.5521943 L376.543723,35.3621943 L375.308623,36.1331943 L374.019823,36.8181943 L372.715723,37.4821943 L371.437523,38.1841943 L370.159723,38.8901943 L368.890623,39.6001943 L367.611023,40.3011943 L366.339623,41.0081943 L365.051223,41.6961943 L363.735123,42.4021943 C361.918423,43.4701943 361.311723,45.8081943 362.379823,47.6251943 C363.448023,49.4421943 365.786623,50.0481943 367.603323,48.9801943 Z" id="Fill-4"></path>
        </g>
    </g>
</svg>
