<?xml version="1.0" encoding="UTF-8"?>
<svg width="310px" height="122px" viewBox="0 0 310 122" version="1.1" xmlns="http://www.w3.org/2000/svg" xmlns:xlink="http://www.w3.org/1999/xlink">
    <title>26</title>
    <g id="Page-1" stroke="none" stroke-width="1" fill="none" fill-rule="evenodd">
        <g id="26" transform="translate(0.475000, 0.135000)" fill="currentColor">
            <path d="M95.662,14.206 C58.007,14.206 -24.57,26.091 10.043,80.336 C18.808,94.072 26.078,105.867 42.276,110.734 C87.024,124.181 234.023,122.888 278.484,103.801 C339.211,77.732 294.564,25.706 250.783,14.74 C180.913,-2.762 127.091,-6.212 60.407,19.006" id="Fill-157"></path>
            <path d="M95.656,12.331 L94.46,12.336 L93.228,12.349 L91.969,12.371 L90.686,12.401 L89.377,12.439 L88.045,12.487 L86.691,12.543 L85.314,12.609 L83.917,12.684 L82.501,12.769 L81.066,12.864 L79.612,12.969 L78.141,13.088 L76.666,13.208 L75.162,13.35 L73.658,13.492 L72.13,13.657 L70.603,13.822 L69.059,14.008 L67.512,14.195 L65.951,14.406 L64.389,14.618 L62.817,14.855 L61.245,15.092 L59.668,15.353 L58.089,15.614 L56.509,15.903 L54.928,16.191 L53.35,16.508 L51.773,16.825 L50.203,17.168 L48.63,17.512 L47.07,17.885 L45.508,18.259 L43.963,18.664 L42.419,19.069 L40.894,19.502 L39.367,19.936 L37.864,20.403 L36.361,20.871 L34.888,21.372 L33.421,21.871 L31.965,22.398 L30.531,22.941 L29.117,23.502 L27.721,24.08 L26.345,24.677 L24.992,25.292 L23.661,25.925 L22.352,26.578 L21.071,27.251 L19.813,27.942 L18.582,28.655 L17.38,29.388 L16.207,30.14 L15.062,30.916 L13.952,31.712 L12.872,32.528 L11.825,33.369 L10.815,34.232 L9.84,35.116 L8.901,36.026 L8.004,36.959 L7.144,37.915 L6.325,38.898 L5.553,39.904 L4.821,40.934 L4.135,41.992 L3.499,43.073 L2.908,44.178 L2.368,45.312 L1.882,46.469 L1.447,47.649 L1.066,48.859 L0.743,50.09 L0.475,51.344 L0.265,52.627 L0.118,53.929 L0.027,55.254 L0,56.605 L0.037,57.977 L0.133,59.369 L0.296,60.788 L0.525,62.225 L0.815,63.684 L1.175,65.169 L1.603,66.673 L2.095,68.199 L2.659,69.75 L3.294,71.323 L3.994,72.917 L4.769,74.538 L5.618,76.181 L6.535,77.847 L7.53,79.54 L8.595,81.245 L9.148,82.108 L9.695,82.962 L10.778,84.647 L11.857,86.311 L12.936,87.954 L14.021,89.571 L15.116,91.16 L16.225,92.72 L17.355,94.249 L18.508,95.742 L19.689,97.2 L20.906,98.62 L22.161,99.996 L23.457,101.33 L24.803,102.618 L26.202,103.852 L27.654,105.037 L29.171,106.166 L30.752,107.233 L32.398,108.243 L34.122,109.188 L35.906,110.055 L36.85,110.476 L37.801,110.871 L38.772,111.247 L39.764,111.605 L40.78,111.945 L41.818,112.265 L43.275,112.682 L44.8,113.09 L46.387,113.486 L48.031,113.871 L49.737,114.246 L51.502,114.61 L53.321,114.964 L55.197,115.306 L57.129,115.637 L59.109,115.958 L60.129,116.114 L61.147,116.269 L62.191,116.419 L63.234,116.569 L64.301,116.714 L65.367,116.859 L66.459,116.999 L67.55,117.139 L68.666,117.276 L69.78,117.413 L70.916,117.546 L72.052,117.679 L73.211,117.806 L74.37,117.934 L75.551,118.056 L76.731,118.179 L77.931,118.296 L79.131,118.414 L80.352,118.526 L81.572,118.638 L82.813,118.746 L84.053,118.855 L85.31,118.96 L86.568,119.064 L87.844,119.164 L89.12,119.264 L90.414,119.358 L91.707,119.452 L93.016,119.542 L94.325,119.631 L95.651,119.716 L96.976,119.8 L98.317,119.879 L99.658,119.958 L101.013,120.032 L102.368,120.107 L103.736,120.176 L105.105,120.245 L106.488,120.309 L107.87,120.372 L109.264,120.431 L110.658,120.49 L112.064,120.544 L113.47,120.597 L114.887,120.645 L116.304,120.694 L117.731,120.737 L119.158,120.78 L120.595,120.818 L122.032,120.856 L123.479,120.889 L124.926,120.921 L126.385,120.947 L127.839,120.972 L129.294,120.997 L130.754,121.022 L132.229,121.036 L133.698,121.05 L135.167,121.064 L136.642,121.078 L138.128,121.081 L139.608,121.085 L141.088,121.088 L142.574,121.091 L144.067,121.085 L145.555,121.078 L147.043,121.072 L148.536,121.065 L150.035,121.048 L151.529,121.03 L153.023,121.013 L154.522,120.995 L156.024,120.967 L157.52,120.939 L159.017,120.91 L160.518,120.881 L162.019,120.841 L163.515,120.802 L165.012,120.763 L166.513,120.724 L168.012,120.674 L169.506,120.624 L170.999,120.574 L172.498,120.524 L173.991,120.462 L175.479,120.401 L176.966,120.34 L178.459,120.279 L179.943,120.208 L181.423,120.137 L182.903,120.066 L184.388,119.994 L185.861,119.912 L187.33,119.83 L188.798,119.748 L190.272,119.665 L191.731,119.571 L193.185,119.477 L194.638,119.384 L196.097,119.29 L197.541,119.186 L198.978,119.082 L200.416,118.978 L201.86,118.874 L203.284,118.759 L204.702,118.643 L206.12,118.528 L207.544,118.412 L208.945,118.285 L210.34,118.158 L211.734,118.032 L213.134,117.905 L214.515,117.77 L215.896,117.635 L217.263,117.495 L218.63,117.355 L219.983,117.209 L221.335,117.063 L222.674,116.912 L224.013,116.761 L225.337,116.604 L226.66,116.447 L227.967,116.285 L229.274,116.122 L230.565,115.954 L231.857,115.787 L233.13,115.613 L234.404,115.44 L235.659,115.261 L236.914,115.081 L238.151,114.897 L239.389,114.712 L240.607,114.522 L241.824,114.332 L243.021,114.136 L244.218,113.94 L245.395,113.739 L246.573,113.537 L247.729,113.33 L248.884,113.123 L250.017,112.91 L251.15,112.697 L252.261,112.479 L253.373,112.261 L254.46,112.037 L255.548,111.812 L256.61,111.582 L257.672,111.352 L258.711,111.117 L259.751,110.881 L260.764,110.64 L261.778,110.398 L262.764,110.151 L263.753,109.903 L265.673,109.399 L267.54,108.881 L269.348,108.351 L271.102,107.81 L272.798,107.257 L274.43,106.691 L276.005,106.113 L277.517,105.522 L278.96,104.919 L279.906,104.501 L280.854,104.081 L282.669,103.229 L284.419,102.359 L286.106,101.473 L287.728,100.569 L289.282,99.651 L290.776,98.718 L292.207,97.77 L293.573,96.807 L294.88,95.831 L296.126,94.84 L297.308,93.836 L298.434,92.819 L299.5,91.788 L300.504,90.746 L301.454,89.692 L302.346,88.626 L303.178,87.549 L303.957,86.463 L304.68,85.364 L305.344,84.258 L305.957,83.143 L306.515,82.018 L307.017,80.887 L307.469,79.749 L307.867,78.602 L308.212,77.452 L308.508,76.297 L308.753,75.136 L308.946,73.972 L309.093,72.806 L309.19,71.636 L309.239,70.465 L309.243,69.294 L309.2,68.12 L309.111,66.949 L308.981,65.778 L308.805,64.607 L308.586,63.439 L308.328,62.273 L308.027,61.109 L307.686,59.949 L307.309,58.793 L306.891,57.639 L306.436,56.492 L305.946,55.349 L305.418,54.21 L304.855,53.078 L304.26,51.953 L303.629,50.832 L302.966,49.721 L302.272,48.616 L301.546,47.518 L300.789,46.429 L300.004,45.348 L299.188,44.276 L298.344,43.214 L297.475,42.161 L296.577,41.118 L295.652,40.087 L294.704,39.066 L293.73,38.056 L292.732,37.059 L291.713,36.074 L290.669,35.101 L289.604,34.142 L288.519,33.196 L287.412,32.264 L286.286,31.347 L285.142,30.444 L283.978,29.556 L282.798,28.685 L281.601,27.83 L280.387,26.99 L279.159,26.169 L277.914,25.367 L276.655,24.584 L275.379,23.818 L274.093,23.083 L272.803,22.345 L271.49,21.648 L270.176,20.951 L268.844,20.297 L267.516,19.645 L266.168,19.019 L264.815,18.419 L263.456,17.843 L262.091,17.288 L260.719,16.757 L259.344,16.251 L257.965,15.768 L256.582,15.31 L255.197,14.878 L253.811,14.47 L252.423,14.089 L251.039,13.736 L249.945,13.468 L248.857,13.203 L247.769,12.937 L246.678,12.671 L245.598,12.414 L244.521,12.158 L243.443,11.901 L242.363,11.645 L241.292,11.398 L240.225,11.151 L239.158,10.905 L238.087,10.658 L237.025,10.42 L235.967,10.182 L234.909,9.944 L233.847,9.706 L232.794,9.477 L231.745,9.249 L230.695,9.022 L229.642,8.793 L228.598,8.575 L227.558,8.358 L226.517,8.141 L225.473,7.923 L224.437,7.714 L223.404,7.507 L222.371,7.299 L221.334,7.09 L220.305,6.892 L219.281,6.695 L218.256,6.497 L217.227,6.299 L216.205,6.112 L215.188,5.926 L214.171,5.74 L213.15,5.553 L212.135,5.376 L211.124,5.2 L210.114,5.024 L209.098,4.847 L208.09,4.682 L207.086,4.517 L206.082,4.352 L205.073,4.187 L204.071,4.033 L203.073,3.879 L202.076,3.726 L201.074,3.572 L200.077,3.429 L199.085,3.287 L198.093,3.144 L197.094,3.001 L195.118,2.74 L193.139,2.479 L191.171,2.241 L189.203,2.004 L187.244,1.789 L185.284,1.575 L183.333,1.386 L181.382,1.197 L179.438,1.033 L177.495,0.87 L175.558,0.731 L173.621,0.591 L171.69,0.479 L169.758,0.366 L167.832,0.28 L165.907,0.195 L163.986,0.134 L162.064,0.074 L160.146,0.041 L158.228,0.009 L156.312,0.005 L154.398,0 L152.485,0.022 L150.572,0.044 L148.66,0.095 L146.748,0.146 L144.836,0.226 L142.925,0.306 L141.014,0.413 L139.102,0.521 L137.189,0.659 L135.276,0.796 L133.361,0.965 L131.447,1.133 L129.53,1.33 L127.613,1.527 L125.692,1.755 L123.772,1.983 L121.847,2.244 L119.922,2.504 L117.993,2.794 L116.063,3.084 L114.128,3.406 L112.192,3.729 L110.25,4.085 L108.309,4.441 L106.36,4.828 L104.411,5.215 L102.454,5.635 L100.499,6.056 L99.511,6.285 L98.53,6.511 L97.551,6.738 L96.565,6.967 L95.575,7.211 L94.59,7.453 L93.605,7.696 L92.615,7.941 L91.619,8.202 L90.629,8.463 L89.639,8.723 L88.643,8.985 L87.641,9.265 L86.646,9.543 L85.65,9.821 L84.649,10.101 L83.642,10.397 L82.641,10.692 L81.64,10.986 L80.632,11.282 L79.619,11.597 L78.611,11.91 L77.603,12.223 L76.589,12.537 L75.569,12.87 L74.554,13.201 L73.539,13.533 L72.519,13.865 L71.492,14.215 L70.471,14.563 L69.449,14.912 L68.422,15.262 L67.387,15.631 L66.358,15.998 L65.328,16.365 L64.294,16.733 L63.251,17.121 L62.213,17.507 L61.175,17.894 L60.138,18.28 C59.736,18.429 59.532,18.875 59.681,19.276 C59.83,19.677 60.276,19.882 60.677,19.733 L61.715,19.348 L62.754,18.964 L63.792,18.579 L64.825,18.196 L65.85,17.833 L66.88,17.467 L67.91,17.102 L68.936,16.738 L69.953,16.393 L70.975,16.046 L71.997,15.7 L73.015,15.355 L74.025,15.027 L75.041,14.697 L76.056,14.367 L77.066,14.039 L78.069,13.73 L79.078,13.418 L80.086,13.107 L81.089,12.797 L82.085,12.506 L83.087,12.213 L84.089,11.92 L85.086,11.628 L86.077,11.353 L87.073,11.076 L88.069,10.799 L89.059,10.524 L90.044,10.267 L91.034,10.008 L92.025,9.749 L93.009,9.492 L93.988,9.252 L94.973,9.011 L95.958,8.77 L96.937,8.53 L97.912,8.305 L98.893,8.08 L99.873,7.854 L100.845,7.631 L102.792,7.215 L104.738,6.8 L106.675,6.419 L108.612,6.037 L110.543,5.686 L112.472,5.335 L114.395,5.018 L116.318,4.7 L118.235,4.415 L120.153,4.13 L122.066,3.874 L123.978,3.618 L125.886,3.394 L127.794,3.17 L129.698,2.978 L131.603,2.785 L133.506,2.621 L135.408,2.457 L137.307,2.324 L139.207,2.19 L141.106,2.087 L143.006,1.984 L144.905,1.908 L146.804,1.832 L148.703,1.785 L150.602,1.739 L152.502,1.722 L154.403,1.705 L156.306,1.714 L158.209,1.723 L160.114,1.761 L162.02,1.798 L163.929,1.863 L165.839,1.928 L167.753,2.018 L169.667,2.107 L171.586,2.224 L173.505,2.341 L175.43,2.485 L177.356,2.628 L179.288,2.795 L181.22,2.962 L183.159,3.155 L185.099,3.348 L187.047,3.567 L188.996,3.785 L190.953,4.026 L192.91,4.267 L194.878,4.534 L196.847,4.8 L197.832,4.945 L198.823,5.09 L199.815,5.236 L200.802,5.381 L201.795,5.536 L202.792,5.693 L203.789,5.849 L204.781,6.005 L205.78,6.172 L206.784,6.34 L207.787,6.508 L208.786,6.676 L209.791,6.855 L210.801,7.035 L211.811,7.215 L212.817,7.394 L213.83,7.583 L214.846,7.773 L215.863,7.964 L216.875,8.153 L217.895,8.353 L218.919,8.555 L219.943,8.756 L220.963,8.956 L221.991,9.168 L223.023,9.38 L224.054,9.593 L225.083,9.805 L226.119,10.027 L227.158,10.249 L228.197,10.471 L229.233,10.693 L230.277,10.925 L231.325,11.158 L232.374,11.391 L233.418,11.623 L234.472,11.865 L235.529,12.108 L236.586,12.352 L237.64,12.595 L238.703,12.847 L239.769,13.1 L240.834,13.353 L241.897,13.606 L242.969,13.868 L244.045,14.131 L245.121,14.394 L246.193,14.656 L247.276,14.928 L248.362,15.2 L249.448,15.473 L250.528,15.744 L251.881,16.101 L253.229,16.484 L254.577,16.894 L255.923,17.328 L257.267,17.786 L258.609,18.27 L259.947,18.776 L261.28,19.306 L262.608,19.86 L263.931,20.435 L265.247,21.031 L266.552,21.647 L267.855,22.296 L269.152,22.942 L270.43,23.631 L271.708,24.319 L272.963,25.046 L274.223,25.776 L275.459,26.528 L276.683,27.3 L277.895,28.089 L279.094,28.892 L280.277,29.711 L281.445,30.547 L282.597,31.397 L283.73,32.263 L284.845,33.144 L285.942,34.038 L287.019,34.946 L288.075,35.867 L289.111,36.801 L290.124,37.747 L291.115,38.705 L292.084,39.673 L293.028,40.652 L293.947,41.643 L294.841,42.642 L295.709,43.65 L296.549,44.668 L297.364,45.694 L298.148,46.727 L298.904,47.768 L299.631,48.815 L300.327,49.868 L300.991,50.928 L301.626,51.993 L302.226,53.062 L302.793,54.136 L303.328,55.213 L303.827,56.293 L304.291,57.376 L304.721,58.462 L305.113,59.548 L305.468,60.636 L305.787,61.726 L306.066,62.814 L306.305,63.903 L306.508,64.992 L306.669,66.079 L306.788,67.165 L306.869,68.25 L306.907,69.331 L306.901,70.411 L306.855,71.488 L306.764,72.561 L306.627,73.632 L306.448,74.7 L306.223,75.761 L305.949,76.821 L305.631,77.877 L305.264,78.926 L304.846,79.973 L304.382,81.014 L303.867,82.049 L303.298,83.079 L302.681,84.105 L302.009,85.122 L301.281,86.134 L300.501,87.14 L299.666,88.136 L298.77,89.126 L297.82,90.108 L296.812,91.08 L295.741,92.043 L294.614,92.998 L293.426,93.941 L292.172,94.873 L290.86,95.795 L289.484,96.704 L288.04,97.6 L286.536,98.484 L284.965,99.353 L283.324,100.208 L281.62,101.05 L279.844,101.877 L278.927,102.28 L278.008,102.684 L276.609,103.263 L275.145,103.83 L273.613,104.387 L272.02,104.934 L270.364,105.469 L268.643,105.993 L266.867,106.508 L265.032,107.01 L263.136,107.502 L262.165,107.742 L261.192,107.983 L260.192,108.217 L259.191,108.452 L258.164,108.68 L257.136,108.909 L256.085,109.133 L255.034,109.356 L253.957,109.574 L252.88,109.792 L251.78,110.004 L250.678,110.216 L249.554,110.423 L248.431,110.629 L247.285,110.83 L246.139,111.031 L244.971,111.227 L243.802,111.422 L242.613,111.612 L241.425,111.802 L240.215,111.986 L239.006,112.17 L237.776,112.349 L236.546,112.528 L235.299,112.701 L234.051,112.874 L232.785,113.042 L231.519,113.209 L230.235,113.371 L228.95,113.533 L227.65,113.69 L226.35,113.847 L225.033,113.998 L223.716,114.148 L222.384,114.294 L221.051,114.439 L219.704,114.579 L218.358,114.719 L216.997,114.854 L215.636,114.988 L214.262,115.117 L212.888,115.246 L211.498,115.367 L210.102,115.488 L208.707,115.609 L207.318,115.73 L205.906,115.84 L204.488,115.95 L203.07,116.06 L201.657,116.17 L200.225,116.269 L198.787,116.368 L197.349,116.467 L195.916,116.566 L194.467,116.655 L193.013,116.744 L191.559,116.833 L190.111,116.922 L188.648,117 L187.179,117.078 L185.711,117.156 L184.248,117.234 L182.773,117.301 L181.294,117.368 L179.814,117.435 L178.339,117.502 L176.856,117.559 L175.368,117.616 L173.88,117.673 L172.398,117.73 L170.909,117.776 L169.416,117.822 L167.922,117.869 L166.433,117.915 L164.942,117.95 L163.446,117.985 L161.949,118.02 L160.457,118.055 L158.965,118.08 L157.469,118.105 L155.972,118.131 L154.481,118.157 L152.992,118.173 L151.498,118.188 L150.004,118.203 L148.515,118.218 L147.032,118.222 L145.544,118.227 L144.056,118.231 L142.573,118.235 L141.097,118.23 L139.616,118.225 L138.136,118.219 L136.661,118.214 L135.197,118.198 L133.728,118.182 L132.259,118.166 L130.795,118.15 L129.345,118.123 L127.89,118.096 L126.436,118.07 L124.984,118.044 L123.545,118.01 L122.104,117.976 L120.673,117.938 L119.241,117.899 L117.82,117.855 L116.398,117.81 L114.986,117.761 L113.575,117.712 L112.174,117.658 L110.774,117.604 L109.386,117.545 L107.998,117.486 L106.622,117.422 L105.245,117.358 L103.883,117.288 L102.52,117.219 L101.172,117.145 L99.823,117.07 L98.488,116.991 L97.154,116.912 L95.835,116.827 L94.516,116.743 L93.214,116.653 L91.912,116.564 L90.625,116.469 L89.338,116.375 L88.07,116.275 L86.801,116.176 L85.551,116.071 L84.301,115.967 L83.069,115.857 L81.837,115.745 L80.625,115.629 L79.413,115.512 L78.222,115.39 L77.031,115.268 L75.859,115.142 L74.688,115.015 L73.539,114.884 L72.391,114.752 L71.265,114.616 L70.139,114.479 L69.034,114.338 L67.931,114.196 L66.852,114.047 L65.773,113.899 L64.719,113.745 L63.665,113.591 L62.635,113.433 L61.605,113.275 L60.602,113.112 L59.602,112.949 L57.648,112.613 L55.749,112.269 L53.908,111.915 L52.127,111.554 L50.401,111.184 L48.74,110.806 L47.142,110.418 L45.604,110.022 L44.136,109.618 L42.735,109.204 L41.77,108.899 L40.829,108.576 L39.91,108.236 L39.011,107.882 L38.135,107.512 L37.294,107.133 L35.619,106.309 L34.039,105.431 L32.526,104.492 L31.071,103.5 L29.679,102.452 L28.339,101.346 L27.043,100.191 L25.794,98.985 L24.583,97.726 L23.405,96.421 L22.258,95.071 L21.137,93.672 L20.036,92.233 L18.953,90.753 L17.883,89.232 L16.82,87.677 L15.762,86.086 L14.704,84.461 L13.641,82.808 L12.569,81.125 L12.027,80.271 L11.492,79.428 L10.464,77.768 L9.522,76.153 L8.655,74.566 L7.856,73.008 L7.133,71.482 L6.48,69.985 L5.892,68.516 L5.375,67.079 L4.926,65.67 L4.537,64.288 L4.214,62.938 L3.955,61.615 L3.752,60.318 L3.611,59.054 L3.529,57.813 L3.5,56.598 L3.528,55.413 L3.611,54.251 L3.743,53.111 L3.928,52 L4.166,50.909 L4.449,49.839 L4.782,48.795 L5.164,47.768 L5.591,46.761 L6.063,45.777 L6.584,44.809 L7.147,43.859 L7.753,42.931 L8.405,42.019 L9.098,41.123 L9.831,40.249 L10.609,39.389 L11.424,38.547 L12.278,37.724 L13.173,36.916 L14.103,36.125 L15.068,35.354 L16.072,34.598 L17.108,33.859 L18.177,33.139 L19.281,32.435 L20.414,31.747 L21.577,31.078 L22.771,30.425 L23.991,29.788 L25.237,29.169 L26.512,28.567 L27.809,27.98 L29.129,27.41 L30.473,26.857 L31.837,26.319 L33.22,25.798 L34.619,25.295 L36.054,24.81 L37.482,24.327 L38.941,23.877 L40.401,23.426 L41.887,23.006 L43.376,22.586 L44.884,22.194 L46.392,21.802 L47.917,21.44 L49.443,21.078 L50.981,20.745 L52.521,20.412 L54.069,20.104 L55.615,19.797 L57.165,19.517 L58.716,19.237 L60.265,18.984 L61.817,18.73 L63.363,18.5 L64.908,18.27 L66.443,18.066 L67.978,17.861 L69.499,17.68 L71.02,17.5 L72.525,17.34 L74.028,17.181 L75.507,17.044 L76.987,16.907 L78.438,16.792 L79.893,16.677 L81.32,16.577 L82.732,16.486 L84.125,16.406 L85.5,16.334 L86.853,16.272 L88.185,16.219 L89.496,16.175 L90.781,16.14 L92.041,16.113 L93.277,16.094 L94.484,16.084 L95.668,16.081 C96.703,16.078 97.54,15.236 97.537,14.201 C97.534,13.165 96.692,12.328 95.656,12.331 Z" id="Fill-158"></path>
        </g>
    </g>
</svg>
