<?xml version="1.0" encoding="UTF-8"?>
<svg width="242px" height="115px" viewBox="0 0 242 115" version="1.1" xmlns="http://www.w3.org/2000/svg" xmlns:xlink="http://www.w3.org/1999/xlink">
    <title>27</title>
    <g id="Page-1" stroke="none" stroke-width="1" fill="none" fill-rule="evenodd">
        <g id="27" transform="translate(0.599000, 0.133000)" fill="currentColor">
            <path d="M126.138,5.421 C134.478,-1.425 90.692,3.545 83.978,4.461 C54.744,8.447 3.899,16.878 1.705,60.615 C1.283,69.037 2.21,86.672 8.254,93.252 C41.979,129.973 172.571,93.113 210.458,72.134 C217.18,68.412 237.35,57.974 239.519,45.257 C242.616,27.101 203.618,14.574 196.95,12.62 C151.68,-0.651 72.381,-6.942 31.995,27.499" id="Fill-153"></path>
            <path d="M127.36,6.843 L127.642,6.599 L127.936,6.316 L128.202,6.022 L128.446,5.707 L128.668,5.354 L128.852,4.968 L128.99,4.536 L129.06,4.044 L129.039,3.542 L128.924,3.05 L128.719,2.59 L128.461,2.21 L128.174,1.896 L127.862,1.633 L127.549,1.421 L127.231,1.243 L126.901,1.088 L126.567,0.956 L126.224,0.839 L125.865,0.733 L125.497,0.639 L125.116,0.555 L124.718,0.477 L124.289,0.406 L123.443,0.288 L122.515,0.192 L121.529,0.118 L120.492,0.062 L119.398,0.025 L118.256,0.005 L117.072,-4.54747351e-13 L115.844,0.009 L114.58,0.034 L113.286,0.07 L111.963,0.118 L110.614,0.178 L109.247,0.252 L107.878,0.325 L106.487,0.417 L105.098,0.508 L103.71,0.613 L102.323,0.718 L100.954,0.832 L99.586,0.946 L98.256,1.066 L96.927,1.187 L95.658,1.311 L94.391,1.434 L93.174,1.558 L92.002,1.68 L90.881,1.801 L89.809,1.918 L88.797,2.032 L87.85,2.141 L86.966,2.245 L86.156,2.342 L85.426,2.433 L84.771,2.515 L84.205,2.589 L83.731,2.653 L81.874,2.91 L79.96,3.181 L77.997,3.468 L76.992,3.62 L75.987,3.772 L74.961,3.933 L73.934,4.094 L72.888,4.265 L71.842,4.437 L70.78,4.619 L69.717,4.801 L68.639,4.995 L67.56,5.189 L66.467,5.396 L65.375,5.603 L64.273,5.823 L63.169,6.043 L62.055,6.278 L60.941,6.513 L59.82,6.764 L58.698,7.015 L57.572,7.28 L56.444,7.547 L55.313,7.83 L54.181,8.114 L53.047,8.416 L51.914,8.717 L50.781,9.037 L49.646,9.356 L48.514,9.697 L47.381,10.037 L46.252,10.399 L45.124,10.76 L44.002,11.141 L42.877,11.523 L41.761,11.928 L40.644,12.333 L39.537,12.761 L38.431,13.19 L37.336,13.64 L36.239,14.092 L35.156,14.569 L34.071,15.047 L33.003,15.551 L31.936,16.055 L30.886,16.583 L29.833,17.113 L28.8,17.671 L27.765,18.23 L26.753,18.818 L25.743,19.406 L24.754,20.021 L23.762,20.638 L22.797,21.285 L21.83,21.934 L20.892,22.615 L19.955,23.295 L19.046,24.005 L18.134,24.717 L17.254,25.463 L16.373,26.211 L15.526,26.993 L14.688,27.768 L13.861,28.58 L13.057,29.407 L12.274,30.251 L11.509,31.112 L10.762,31.994 L10.038,32.894 L9.333,33.812 L8.649,34.751 L7.989,35.709 L7.349,36.684 L6.732,37.682 L6.14,38.699 L5.571,39.734 L5.026,40.792 L4.508,41.869 L4.014,42.965 L3.547,44.084 L3.107,45.223 L2.693,46.381 L2.307,47.562 L1.95,48.763 L1.621,49.984 L1.321,51.228 L1.052,52.493 L0.811,53.777 L0.601,55.086 L0.424,56.415 L0.276,57.765 L0.161,59.139 L0.08,60.523 L0.055,61.085 L0.036,61.66 L0.02,62.257 L0.009,62.872 L0,63.508 L0,64.167 L0.01,65.518 L0.042,66.937 L0.099,68.409 L0.179,69.922 L0.286,71.473 L0.421,73.049 L0.584,74.643 L0.78,76.249 L1.009,77.854 L1.271,79.453 L1.572,81.038 L1.913,82.597 L2.293,84.125 L2.717,85.616 L3.188,87.054 L3.705,88.44 L4.276,89.764 L4.892,90.99 L5.237,91.606 L5.589,92.183 L5.957,92.735 L6.341,93.265 L6.744,93.774 L7.176,94.264 L8.301,95.427 L9.505,96.551 L10.768,97.62 L12.086,98.642 L13.466,99.615 L14.901,100.535 L16.386,101.411 L17.927,102.241 L19.518,103.024 L21.156,103.765 L22.846,104.461 L24.582,105.111 L26.362,105.722 L28.189,106.289 L30.06,106.815 L31.97,107.302 L33.918,107.748 L34.921,107.953 L35.917,108.156 L36.931,108.342 L37.946,108.527 L38.98,108.694 L40.015,108.86 L41.068,109.008 L42.119,109.155 L43.188,109.286 L44.257,109.417 L45.344,109.529 L46.43,109.642 L47.533,109.737 L48.635,109.831 L49.752,109.91 L50.87,109.989 L52.004,110.051 L53.137,110.112 L54.285,110.158 L55.432,110.202 L56.592,110.233 L57.753,110.262 L58.927,110.276 L60.101,110.289 L61.289,110.287 L62.475,110.285 L63.673,110.269 L64.871,110.253 L66.081,110.221 L67.291,110.19 L68.512,110.144 L69.732,110.098 L70.961,110.038 L72.191,109.979 L73.431,109.905 L74.671,109.832 L75.92,109.745 L77.168,109.657 L78.424,109.558 L79.68,109.458 L80.945,109.345 L82.209,109.232 L83.48,109.107 L84.751,108.981 L86.027,108.843 L87.304,108.705 L88.587,108.555 L89.87,108.405 L91.157,108.243 L92.445,108.081 L93.736,107.908 L95.028,107.736 L96.324,107.552 L97.619,107.368 L98.918,107.174 L100.217,106.979 L101.517,106.775 L102.818,106.57 L104.121,106.355 L105.424,106.141 L106.729,105.916 L108.035,105.691 L109.341,105.453 L110.641,105.215 L111.941,104.978 L113.25,104.739 L114.558,104.482 L115.856,104.226 L117.155,103.971 L118.463,103.714 L119.766,103.44 L121.061,103.167 L122.355,102.895 L123.657,102.621 L124.953,102.332 L126.242,102.045 L127.531,101.758 L128.827,101.47 L130.115,101.166 L131.394,100.865 L132.673,100.564 L133.96,100.26 L135.235,99.944 L136.503,99.63 L137.77,99.315 L139.044,98.999 L140.305,98.672 L141.56,98.347 L142.814,98.022 L144.075,97.695 L145.319,97.357 L146.557,97.021 L147.794,96.685 L149.038,96.348 L150.262,96.001 L151.479,95.655 L152.696,95.31 L153.918,94.964 L155.125,94.612 L156.331,94.26 L157.524,93.905 L158.718,93.549 L159.899,93.191 L161.08,92.832 L162.248,92.47 L163.417,92.109 L164.573,91.744 L165.728,91.38 L166.868,91.013 L168.008,90.646 L169.135,90.277 L170.262,89.908 L171.373,89.537 L172.483,89.166 L173.578,88.794 L174.672,88.422 L175.75,88.049 L176.829,87.676 L177.89,87.302 L178.951,86.928 L179.994,86.553 L181.036,86.179 L182.061,85.804 L183.086,85.429 L184.092,85.054 L185.097,84.679 L186.082,84.305 L187.067,83.93 L188.032,83.556 L188.998,83.182 L189.942,82.809 L190.888,82.436 L192.73,81.693 L194.531,80.952 L196.285,80.215 L197.991,79.482 L199.651,78.754 L201.26,78.032 L202.817,77.316 L204.325,76.606 L205.778,75.903 L207.175,75.208 L208.52,74.521 L209.806,73.842 L211.027,73.176 L211.466,72.933 L211.935,72.674 L212.438,72.398 L212.97,72.105 L213.533,71.794 L214.123,71.467 L214.737,71.124 L215.375,70.764 L216.036,70.388 L216.716,69.997 L217.415,69.59 L218.134,69.166 L219.604,68.28 L221.126,67.333 L222.681,66.329 L224.253,65.274 L225.833,64.163 L227.403,63.001 L228.953,61.791 L230.469,60.531 L231.934,59.223 L233.34,57.872 L234.672,56.473 L235.899,55.043 L236.492,54.294 L237.048,53.544 L237.572,52.784 L238.068,52.014 L238.53,51.231 L238.955,50.438 L239.345,49.634 L239.696,48.817 L240.003,47.992 L240.27,47.156 L240.49,46.307 L240.658,45.459 L240.751,44.834 L240.812,44.217 L240.844,43.607 L240.849,43 L240.825,42.394 L240.774,41.796 L240.697,41.203 L240.594,40.613 L240.464,40.031 L240.312,39.454 L240.134,38.881 L239.926,38.297 L239.47,37.204 L238.918,36.114 L238.287,35.053 L237.586,34.014 L236.813,32.998 L235.976,32.009 L235.082,31.041 L234.13,30.096 L233.126,29.174 L232.078,28.274 L230.984,27.395 L229.851,26.54 L228.685,25.705 L227.485,24.891 L226.258,24.101 L225.009,23.331 L223.737,22.586 L222.449,21.865 L221.151,21.165 L219.844,20.487 L218.534,19.833 L217.224,19.2 L215.918,18.59 L214.622,18.004 L213.337,17.439 L212.067,16.9 L210.819,16.386 L209.594,15.894 L208.396,15.427 L207.233,14.985 L206.104,14.566 L205.016,14.172 L203.974,13.804 L202.978,13.459 L202.035,13.141 L201.15,12.848 L200.322,12.58 L199.56,12.338 L198.87,12.123 L198.246,11.932 L197.701,11.769 L197.235,11.633 L195.796,11.227 L194.352,10.819 L192.865,10.423 L191.378,10.026 L189.849,9.641 L188.321,9.256 L186.758,8.882 L185.194,8.507 L183.593,8.146 L181.991,7.784 L180.355,7.437 L178.719,7.09 L177.052,6.757 L175.386,6.423 L173.687,6.106 L171.99,5.788 L170.262,5.486 L168.536,5.185 L166.784,4.901 L165.032,4.616 L163.255,4.35 L161.478,4.084 L159.677,3.838 L157.878,3.591 L156.059,3.363 L154.239,3.136 L152.4,2.93 L150.562,2.724 L148.706,2.54 L146.85,2.357 L144.981,2.194 L143.112,2.032 L141.229,1.894 L139.346,1.756 L137.453,1.644 L135.56,1.531 L133.658,1.443 L131.756,1.355 L129.847,1.294 L127.938,1.233 L126.024,1.2 L124.111,1.168 L122.195,1.162 L120.278,1.156 L118.361,1.18 L116.443,1.205 L114.527,1.26 L112.611,1.316 L110.698,1.4 L108.784,1.485 L106.876,1.603 L104.967,1.72 L103.066,1.871 L101.165,2.023 L99.273,2.205 L97.38,2.389 L95.498,2.607 L93.616,2.826 L91.747,3.082 L89.88,3.338 L88.026,3.628 L86.171,3.918 L84.333,4.247 L82.496,4.576 L80.678,4.944 L78.86,5.313 L77.062,5.719 L75.263,6.125 L73.488,6.573 L71.712,7.02 L69.962,7.511 L68.216,8.001 L66.482,8.521 L64.765,9.064 L63.063,9.628 L61.375,10.214 L59.702,10.822 L58.045,11.453 L56.404,12.105 L54.78,12.782 L53.174,13.481 L51.585,14.203 L50.014,14.95 L48.463,15.72 L46.931,16.514 L45.417,17.332 L43.926,18.176 L42.454,19.043 L41.003,19.936 L39.576,20.855 L38.169,21.798 L36.785,22.768 L35.426,23.764 L34.09,24.785 L32.777,25.833 L31.498,26.904 C31.169,27.178 31.125,27.667 31.4,27.995 C31.674,28.324 32.163,28.368 32.491,28.093 L33.759,27.036 L35.046,26.011 L36.359,25.012 L37.694,24.037 L39.052,23.088 L40.435,22.165 L41.838,21.265 L43.264,20.39 L44.712,19.541 L46.18,18.713 L47.669,17.911 L49.179,17.133 L50.707,16.377 L52.254,15.645 L53.82,14.937 L55.404,14.25 L57.005,13.586 L58.625,12.945 L60.26,12.325 L61.911,11.728 L63.578,11.153 L65.26,10.598 L66.957,10.066 L68.666,9.555 L70.399,9.073 L72.129,8.591 L73.885,8.151 L75.641,7.711 L77.421,7.313 L79.202,6.914 L81.002,6.552 L82.802,6.19 L84.622,5.867 L86.442,5.544 L88.28,5.26 L90.118,4.976 L91.971,4.725 L93.823,4.475 L95.689,4.262 L97.555,4.049 L99.432,3.871 L101.31,3.693 L103.197,3.547 L105.084,3.401 L106.977,3.288 L108.871,3.177 L110.771,3.098 L112.671,3.019 L114.574,2.969 L116.476,2.92 L118.38,2.901 L120.284,2.882 L122.187,2.893 L124.091,2.905 L125.992,2.942 L127.893,2.98 L129.789,3.046 L131.685,3.112 L133.574,3.205 L135.464,3.298 L137.345,3.415 L139.226,3.532 L141.096,3.674 L142.966,3.817 L144.823,3.983 L146.681,4.15 L148.525,4.338 L150.368,4.527 L152.195,4.738 L154.021,4.949 L155.828,5.182 L157.635,5.415 L159.424,5.666 L161.211,5.918 L162.976,6.19 L164.74,6.461 L166.479,6.752 L168.219,7.042 L169.933,7.349 L171.648,7.655 L173.332,7.979 L175.017,8.303 L176.67,8.643 L178.323,8.983 L179.946,9.337 L181.569,9.69 L183.155,10.058 L184.742,10.425 L186.291,10.806 L187.84,11.187 L189.354,11.58 L190.866,11.972 L192.337,12.376 L193.807,12.779 L195.234,13.193 L196.665,13.607 L197.11,13.741 L197.642,13.904 L198.252,14.096 L198.93,14.312 L199.678,14.557 L200.491,14.829 L201.36,15.126 L202.286,15.45 L203.265,15.8 L204.289,16.173 L205.357,16.572 L206.466,16.996 L207.608,17.444 L208.782,17.915 L209.984,18.412 L211.207,18.93 L212.451,19.47 L213.71,20.033 L214.979,20.617 L216.255,21.223 L217.534,21.851 L218.811,22.5 L220.082,23.17 L221.343,23.861 L222.592,24.571 L223.822,25.3 L225.031,26.047 L226.216,26.811 L227.369,27.593 L228.487,28.394 L229.569,29.212 L230.606,30.046 L231.596,30.897 L232.538,31.763 L233.423,32.642 L234.248,33.537 L235.015,34.443 L235.711,35.359 L236.338,36.289 L236.895,37.227 L237.373,38.171 L237.779,39.147 L237.942,39.609 L238.091,40.09 L238.219,40.576 L238.327,41.063 L238.413,41.551 L238.476,42.043 L238.518,42.539 L238.538,43.034 L238.533,43.536 L238.507,44.042 L238.456,44.549 L238.381,45.055 L238.234,45.791 L238.047,46.513 L237.815,47.235 L237.547,47.955 L237.239,48.67 L236.892,49.383 L236.511,50.093 L236.095,50.797 L235.643,51.497 L235.162,52.193 L234.651,52.882 L234.118,53.554 L232.95,54.915 L231.694,56.23 L230.353,57.513 L228.949,58.763 L227.49,59.971 L225.989,61.137 L224.464,62.262 L222.926,63.339 L221.39,64.366 L219.868,65.346 L218.376,66.27 L216.925,67.14 L216.223,67.552 L215.535,67.951 L214.864,68.336 L214.212,68.705 L213.58,69.06 L212.973,69.398 L212.387,69.722 L211.828,70.029 L211.298,70.32 L210.794,70.596 L210.322,70.855 L209.888,71.093 L208.685,71.748 L207.425,72.409 L206.105,73.081 L204.731,73.762 L203.299,74.451 L201.811,75.148 L200.273,75.852 L198.681,76.562 L197.037,77.277 L195.347,77.997 L193.608,78.721 L191.82,79.449 L189.989,80.181 L189.053,80.547 L188.115,80.914 L187.156,81.282 L186.196,81.65 L185.217,82.018 L184.238,82.387 L183.239,82.755 L182.24,83.124 L181.22,83.493 L180.201,83.861 L179.164,84.23 L178.127,84.598 L177.072,84.966 L176.016,85.334 L174.943,85.701 L173.87,86.068 L172.78,86.433 L171.691,86.799 L170.585,87.163 L169.48,87.527 L168.358,87.889 L167.237,88.251 L166.101,88.611 L164.966,88.971 L163.816,89.328 L162.666,89.686 L161.502,90.04 L160.338,90.395 L159.162,90.747 L157.986,91.099 L156.798,91.447 L155.61,91.796 L154.41,92.14 L153.211,92.485 L151.997,92.823 L150.778,93.163 L149.56,93.503 L148.348,93.841 L147.117,94.17 L145.878,94.501 L144.64,94.831 L143.408,95.16 L142.16,95.478 L140.904,95.798 L139.649,96.118 L138.4,96.436 L137.138,96.743 L135.869,97.052 L134.6,97.362 L133.339,97.669 L132.066,97.963 L130.786,98.259 L129.505,98.555 L128.232,98.849 L126.951,99.129 L125.661,99.411 L124.371,99.692 L123.089,99.972 L121.801,100.238 L120.505,100.506 L119.21,100.774 L117.923,101.04 L116.632,101.29 L115.333,101.541 L114.033,101.792 L112.743,102.041 L111.451,102.272 L110.151,102.505 L108.85,102.738 L107.556,102.97 L106.263,103.189 L104.968,103.409 L103.674,103.618 L102.381,103.827 L101.09,104.026 L99.798,104.225 L98.509,104.415 L97.22,104.604 L95.935,104.783 L94.65,104.961 L93.369,105.128 L92.088,105.296 L90.811,105.453 L89.534,105.609 L88.263,105.754 L86.993,105.899 L85.728,106.032 L84.463,106.165 L83.204,106.286 L81.946,106.409 L80.695,106.518 L79.444,106.628 L78.202,106.724 L76.959,106.821 L75.724,106.905 L74.49,106.989 L73.265,107.06 L72.041,107.13 L70.826,107.187 L69.611,107.244 L68.406,107.287 L67.202,107.331 L66.009,107.36 L64.816,107.389 L63.636,107.403 L62.455,107.418 L61.286,107.418 L60.117,107.418 L58.963,107.403 L57.808,107.388 L56.667,107.357 L55.526,107.327 L54.399,107.282 L53.272,107.237 L52.161,107.175 L51.051,107.114 L49.956,107.036 L48.861,106.957 L47.781,106.864 L46.703,106.77 L45.642,106.659 L44.581,106.549 L43.539,106.42 L42.496,106.292 L41.47,106.148 L40.445,106.004 L39.44,105.841 L38.436,105.679 L37.451,105.499 L36.466,105.318 L35.5,105.12 L34.541,104.924 L32.65,104.491 L30.809,104.02 L29.01,103.514 L27.261,102.97 L25.56,102.385 L23.906,101.765 L22.305,101.105 L20.756,100.403 L19.257,99.665 L17.816,98.884 L16.432,98.059 L15.101,97.196 L13.831,96.292 L12.62,95.344 L11.464,94.357 L10.373,93.328 L9.332,92.241 L9.021,91.882 L8.708,91.484 L8.402,91.053 L8.105,90.596 L7.817,90.113 L7.548,89.622 L7.003,88.51 L6.51,87.331 L6.055,86.068 L5.636,84.74 L5.257,83.352 L4.916,81.912 L4.609,80.434 L4.338,78.925 L4.1,77.394 L3.893,75.851 L3.719,74.305 L3.575,72.766 L3.457,71.24 L3.366,69.741 L3.301,68.275 L3.258,66.85 L3.236,65.479 L3.235,64.164 L3.24,63.539 L3.25,62.929 L3.265,62.338 L3.283,61.768 L3.305,61.22 L3.33,60.708 L3.416,59.38 L3.532,58.089 L3.678,56.82 L3.852,55.572 L4.055,54.35 L4.287,53.149 L4.545,51.969 L4.83,50.812 L5.144,49.677 L5.481,48.56 L5.845,47.468 L6.235,46.394 L6.649,45.34 L7.086,44.308 L7.549,43.294 L8.035,42.299 L8.543,41.325 L9.074,40.368 L9.627,39.429 L10.201,38.51 L10.798,37.607 L11.415,36.722 L12.052,35.856 L12.711,35.006 L13.389,34.172 L14.085,33.356 L14.802,32.556 L15.537,31.772 L16.289,31.005 L17.054,30.259 L17.856,29.522 L18.651,28.792 L19.479,28.096 L20.307,27.397 L21.167,26.731 L22.03,26.061 L22.921,25.42 L23.809,24.78 L24.725,24.17 L25.643,23.558 L26.586,22.977 L27.532,22.392 L28.5,21.834 L29.466,21.277 L30.455,20.747 L31.445,20.216 L32.454,19.713 L33.467,19.208 L34.496,18.726 L35.524,18.245 L36.568,17.79 L37.613,17.333 L38.672,16.902 L39.734,16.469 L40.807,16.057 L41.88,15.646 L42.962,15.258 L44.046,14.869 L45.137,14.503 L46.232,14.135 L47.331,13.787 L48.431,13.439 L49.534,13.112 L50.639,12.784 L51.745,12.475 L52.854,12.166 L53.963,11.874 L55.072,11.581 L56.179,11.307 L57.287,11.032 L58.392,10.775 L59.498,10.517 L60.6,10.274 L61.701,10.031 L62.794,9.803 L63.889,9.575 L64.974,9.361 L66.06,9.147 L67.137,8.945 L68.213,8.743 L69.276,8.555 L70.339,8.366 L71.387,8.188 L72.437,8.011 L73.471,7.844 L74.505,7.677 L75.52,7.52 L76.536,7.362 L77.53,7.215 L78.524,7.067 L80.475,6.786 L82.376,6.521 L84.225,6.269 L84.68,6.208 L85.231,6.138 L85.874,6.058 L86.594,5.971 L87.394,5.876 L88.269,5.776 L89.207,5.67 L90.21,5.559 L91.272,5.445 L92.384,5.328 L93.546,5.209 L94.751,5.089 L96.01,4.97 L97.267,4.85 L98.585,4.733 L99.901,4.616 L101.256,4.506 L102.611,4.397 L103.984,4.296 L105.354,4.195 L106.725,4.108 L108.095,4.022 L109.442,3.952 L110.792,3.882 L112.11,3.827 L113.402,3.782 L114.664,3.75 L115.891,3.729 L117.075,3.722 L118.211,3.729 L119.299,3.751 L120.325,3.788 L121.286,3.842 L122.181,3.911 L122.993,3.997 L123.737,4.102 L124.05,4.156 L124.351,4.215 L124.627,4.277 L124.876,4.341 L125.09,4.404 L125.273,4.467 L125.421,4.526 L125.525,4.574 L125.591,4.612 L125.615,4.627 L125.588,4.604 L125.531,4.542 L125.455,4.427 L125.374,4.245 L125.327,4.045 L125.319,3.848 L125.344,3.675 L125.374,3.575 L125.392,3.535 L125.387,3.543 L125.338,3.604 L125.251,3.7 L125.123,3.822 L124.916,3.998 C124.131,4.673 124.041,5.857 124.716,6.642 C125.391,7.428 126.574,7.518 127.36,6.843 Z" id="Fill-154"></path>
            <path d="M151.925,112.931 C151.925,77.423 222.808,77.583 221.919,51.496 C221.236,31.476 137.163,33.822 124.501,54.856 C117.178,67.02 142.76,85.657 146.604,98.052" id="Fill-155"></path>
            <path d="M153.8,112.967 L153.817,111.909 L153.877,110.916 L153.979,109.942 L154.118,108.989 L154.297,108.062 L154.516,107.152 L154.769,106.259 L155.059,105.39 L155.387,104.534 L155.747,103.695 L156.142,102.875 L156.573,102.068 L157.035,101.274 L157.529,100.498 L158.058,99.734 L158.616,98.982 L159.204,98.246 L159.824,97.521 L160.472,96.807 L161.148,96.108 L161.854,95.419 L162.585,94.741 L163.341,94.076 L164.125,93.421 L164.931,92.776 L165.76,92.143 L166.613,91.519 L167.486,90.905 L168.379,90.302 L169.288,89.711 L170.233,89.125 L171.172,88.542 L172.143,87.978 L173.118,87.413 L174.119,86.866 L175.124,86.316 L176.151,85.781 L177.178,85.245 L178.225,84.725 L179.275,84.202 L180.34,83.693 L181.408,83.183 L182.486,82.682 L183.565,82.18 L184.651,81.687 L185.74,81.193 L186.832,80.707 L187.925,80.22 L189.015,79.74 L190.11,79.258 L191.204,78.777 L192.299,78.295 L193.378,77.818 L194.456,77.342 L195.534,76.866 L196.621,76.385 L197.673,75.9 L198.715,75.418 L199.757,74.937 L200.811,74.451 L201.831,73.958 L202.851,73.465 L203.842,72.966 L204.836,72.466 L205.798,71.959 L206.763,71.458 L207.696,70.949 L208.632,70.437 L209.529,69.915 L210.435,69.387 L212.133,68.331 L212.97,67.779 L213.775,67.223 L214.554,66.658 L215.31,66.083 L216.041,65.495 L216.743,64.896 L217.418,64.286 L218.065,63.66 L218.68,63.022 L219.265,62.369 L219.818,61.699 L220.334,61.014 L220.817,60.313 L221.264,59.593 L221.67,58.857 L222.037,58.104 L222.363,57.329 L222.643,56.54 L222.88,55.734 L223.071,54.907 L223.212,54.066 L223.307,53.211 L223.351,52.335 L223.342,51.444 L223.285,50.706 L223.161,49.974 L222.973,49.267 L222.728,48.578 L222.422,47.908 L222.061,47.267 L221.651,46.65 L221.188,46.054 L220.681,45.486 L220.132,44.94 L219.536,44.414 L218.902,43.914 L218.232,43.432 L217.52,42.969 L216.772,42.527 L215.991,42.103 L215.172,41.695 L214.32,41.306 L213.438,40.933 L212.52,40.576 L211.572,40.237 L210.596,39.912 L209.588,39.603 L208.552,39.31 L207.49,39.032 L206.4,38.769 L205.284,38.522 L204.145,38.289 L202.98,38.07 L201.793,37.867 L200.585,37.677 L199.355,37.501 L198.106,37.341 L196.839,37.193 L195.552,37.06 L194.246,36.942 L192.924,36.843 L191.599,36.745 L190.244,36.674 L188.89,36.604 L187.511,36.562 L186.134,36.52 L184.737,36.502 L183.34,36.485 L181.927,36.496 L180.513,36.506 L179.088,36.544 L177.664,36.582 L176.233,36.644 L174.801,36.705 L173.365,36.794 L171.929,36.882 L170.494,36.998 L169.059,37.114 L167.63,37.255 L166.199,37.396 L164.778,37.565 L163.356,37.733 L161.948,37.929 L160.541,38.123 L159.15,38.341 L157.757,38.56 L156.387,38.806 L155.016,39.051 L153.671,39.324 L152.328,39.596 L151.012,39.893 L149.695,40.19 L148.412,40.514 L147.129,40.839 L145.886,41.196 L144.65,41.556 L143.435,41.936 L142.245,42.329 L141.081,42.737 L139.94,43.16 L138.824,43.597 L137.737,44.047 L136.674,44.509 L135.638,44.98 L134.633,45.465 L133.656,45.962 L132.71,46.474 L131.798,46.997 L130.917,47.533 L130.069,48.084 L129.258,48.648 L128.482,49.225 L127.743,49.818 L127.043,50.424 L126.381,51.044 L125.759,51.681 L125.182,52.332 L124.646,52.998 L124.154,53.683 L123.707,54.389 L123.257,55.225 L122.893,56.094 L122.621,56.976 L122.429,57.872 L122.32,58.783 L122.292,59.699 L122.332,60.621 L122.445,61.553 L122.624,62.487 L122.86,63.424 L123.156,64.368 L123.506,65.314 L123.904,66.263 L124.35,67.217 L124.841,68.173 L125.37,69.132 L125.938,70.094 L126.541,71.059 L127.173,72.025 L127.835,72.994 L128.523,73.963 L129.231,74.934 L129.959,75.905 L130.706,76.877 L131.469,77.845 L132.231,78.814 L133.012,79.78 L133.791,80.744 L134.574,81.703 L135.357,82.66 L136.133,83.61 L136.908,84.558 L137.664,85.495 L138.419,86.43 L139.141,87.352 L139.863,88.271 L140.545,89.176 L141.225,90.077 L141.849,90.959 L142.472,91.837 L143.026,92.693 L143.581,93.551 L144.078,94.381 L144.531,95.197 L144.939,95.998 L145.301,96.78 L145.609,97.541 L145.87,98.302 C146.008,98.707 146.448,98.924 146.854,98.786 C147.259,98.648 147.475,98.207 147.338,97.802 L147.066,96.999 L146.731,96.163 L146.345,95.318 L145.915,94.465 L145.439,93.6 L144.919,92.722 L144.352,91.838 L143.784,90.952 L143.147,90.044 L142.512,89.14 L141.822,88.217 L141.135,87.297 L140.408,86.362 L139.682,85.429 L138.925,84.482 L138.17,83.538 L137.396,82.583 L136.624,81.629 L135.846,80.669 L135.069,79.71 L134.297,78.746 L133.527,77.785 L132.775,76.821 L132.024,75.857 L131.295,74.897 L130.583,73.939 L129.894,72.983 L129.228,72.031 L128.591,71.084 L127.985,70.143 L127.41,69.207 L126.873,68.281 L126.375,67.363 L125.917,66.455 L125.506,65.559 L125.143,64.674 L124.827,63.802 L124.566,62.948 L124.36,62.107 L124.208,61.283 L124.118,60.48 L124.089,59.693 L124.119,58.924 L124.214,58.176 L124.379,57.443 L124.608,56.724 L124.909,56.023 L125.295,55.323 L125.682,54.726 L126.119,54.132 L126.602,53.546 L127.126,52.967 L127.693,52.399 L128.304,51.84 L128.954,51.29 L129.644,50.752 L130.376,50.224 L131.143,49.707 L131.948,49.201 L132.79,48.706 L133.665,48.222 L134.575,47.752 L135.519,47.294 L136.492,46.846 L137.496,46.411 L138.532,45.992 L139.595,45.586 L140.684,45.192 L141.801,44.81 L142.941,44.438 L144.103,44.077 L145.286,43.729 L146.507,43.396 L147.721,43.061 L148.975,42.746 L150.229,42.431 L151.518,42.142 L152.809,41.852 L154.128,41.586 L155.447,41.321 L156.793,41.082 L158.139,40.843 L159.507,40.631 L160.877,40.419 L162.263,40.231 L163.648,40.045 L165.047,39.886 L166.447,39.727 L167.855,39.594 L169.265,39.462 L170.679,39.354 L172.092,39.246 L173.505,39.166 L174.919,39.085 L176.329,39.032 L177.74,38.98 L179.143,38.954 L180.545,38.928 L181.934,38.929 L183.324,38.931 L184.696,38.961 L186.069,38.99 L187.422,39.045 L188.774,39.101 L190.101,39.184 L191.426,39.267 L192.722,39.378 L194.021,39.489 L195.29,39.618 L196.543,39.762 L197.776,39.919 L198.991,40.089 L200.182,40.272 L201.351,40.469 L202.497,40.678 L203.617,40.901 L204.711,41.138 L205.78,41.387 L206.818,41.649 L207.827,41.925 L208.807,42.211 L209.754,42.511 L210.667,42.824 L211.549,43.148 L212.392,43.484 L213.199,43.833 L213.971,44.192 L214.7,44.562 L215.391,44.945 L216.042,45.336 L216.647,45.736 L217.209,46.146 L217.73,46.564 L218.202,46.987 L218.63,47.419 L219.015,47.856 L219.35,48.294 L219.641,48.741 L219.892,49.19 L220.095,49.641 L220.257,50.103 L220.38,50.573 L220.459,51.049 L220.495,51.549 L220.498,52.272 L220.46,52.977 L220.38,53.668 L220.264,54.344 L220.11,55.002 L219.916,55.65 L219.687,56.288 L219.422,56.911 L219.118,57.528 L218.781,58.136 L218.409,58.733 L217.999,59.325 L217.556,59.91 L217.079,60.485 L216.566,61.055 L216.022,61.619 L215.447,62.174 L214.837,62.723 L214.198,63.267 L213.53,63.803 L212.83,64.334 L212.105,64.859 L211.352,65.377 L210.583,65.884 L208.934,66.907 L208.078,67.393 L207.212,67.884 L206.305,68.364 L205.395,68.847 L204.451,69.321 L203.503,69.79 L202.522,70.249 L201.539,70.71 L200.527,71.165 L199.516,71.62 L198.474,72.073 L197.421,72.531 L196.368,72.989 L195.325,73.442 L194.249,73.897 L193.164,74.356 L192.079,74.816 L190.995,75.275 L189.894,75.741 L188.793,76.207 L187.692,76.673 L186.586,77.141 L185.479,77.617 L184.37,78.095 L183.264,78.581 L182.157,79.068 L181.056,79.565 L179.955,80.063 L178.865,80.573 L177.771,81.084 L176.693,81.609 L175.612,82.134 L174.55,82.676 L173.488,83.217 L172.447,83.775 L171.402,84.334 L170.383,84.913 L169.362,85.494 L168.373,86.095 L167.389,86.693 L166.415,87.316 L165.464,87.95 L164.532,88.596 L163.617,89.255 L162.721,89.93 L161.849,90.619 L160.996,91.323 L160.166,92.045 L159.361,92.783 L158.58,93.537 L157.823,94.311 L157.097,95.102 L156.397,95.911 L155.725,96.742 L155.087,97.591 L154.479,98.46 L153.903,99.353 L153.365,100.265 L152.86,101.197 L152.393,102.155 L151.966,103.133 L151.577,104.131 L151.229,105.156 L150.926,106.2 L150.664,107.265 L150.447,108.356 L150.278,109.466 L150.153,110.597 L150.076,111.755 L150.05,112.894 C150.03,113.929 150.853,114.785 151.888,114.805393 C152.924,114.826 153.779,114.003 153.8,112.967 Z" id="Fill-156"></path>
        </g>
    </g>
</svg>
