<?xml version="1.0" encoding="UTF-8"?>
<svg width="274px" height="192px" viewBox="0 0 274 192" version="1.1" xmlns="http://www.w3.org/2000/svg" xmlns:xlink="http://www.w3.org/1999/xlink">
    <title>29</title>
    <g id="Page-1" stroke="none" stroke-width="1" fill="none" fill-rule="evenodd">
        <g id="29" transform="translate(0.606000, 0.661000)" fill="currentColor">
            <path d="M28.284,53.044 C-24.56,195.277 236.373,165.393 249.549,118.335 C276.661,21.505 44.628,9.054 28.284,53.044 Z" id="Fill-132"></path>
            <path d="M26.522,52.404 L26.122,53.509 L25.717,54.629 L25.339,55.735 L24.96,56.841 L24.607,57.933 L24.255,59.024 L23.926,60.102 L23.597,61.182 L23.293,62.248 L22.989,63.314 L22.71,64.366 L22.432,65.417 L22.177,66.455 L21.921,67.495 L21.69,68.521 L21.459,69.548 L21.253,70.561 L21.046,71.578 L20.679,73.573 L20.36,75.548 L20.088,77.495 L19.86,79.418 L19.678,81.317 L19.544,83.188 L19.451,85.035 L19.403,86.858 L19.403,88.654 L19.442,90.426 L19.526,92.174 L19.654,93.895 L19.822,95.592 L20.033,97.266 L20.286,98.913 L20.578,100.536 L20.912,102.136 L21.287,103.709 L21.699,105.258 L22.152,106.785 L22.644,108.284 L23.172,109.76 L23.74,111.213 L24.345,112.639 L24.985,114.041 L25.662,115.421 L26.375,116.773 L27.121,118.102 L27.904,119.409 L28.72,120.689 L29.568,121.946 L30.45,123.179 L31.365,124.387 L32.31,125.572 L33.287,126.734 L34.295,127.87 L35.331,128.984 L36.398,130.075 L37.494,131.141 L38.616,132.186 L39.768,133.208 L40.946,134.205 L42.15,135.181 L43.382,136.136 L44.639,137.066 L45.919,137.975 L47.226,138.863 L48.557,139.727 L49.909,140.572 L51.287,141.394 L52.686,142.195 L54.106,142.975 L55.55,143.735 L57.014,144.472 L58.498,145.19 L60.004,145.887 L61.529,146.563 L63.071,147.219 L64.634,147.856 L66.215,148.472 L67.812,149.07 L69.428,149.647 L71.061,150.204 L72.708,150.743 L74.374,151.263 L76.053,151.764 L77.747,152.246 L79.457,152.71 L81.185,153.156 L82.922,153.574 L84.664,153.993 L86.433,154.375 L88.201,154.757 L89.994,155.104 L91.785,155.449 L93.597,155.76 L95.409,156.07 L97.243,156.346 L99.075,156.622 L100.927,156.864 L102.776,157.105 L104.641,157.314 L106.507,157.522 L108.387,157.697 L110.267,157.872 L112.159,158.015 L114.05,158.157 L115.951,158.273 L117.852,158.393 L119.762,158.481 L121.671,158.569 L123.588,158.627 L125.503,158.684 L127.423,158.715 L129.344,158.749 L131.268,158.754 L133.191,158.758 L135.116,158.734 L137.04,158.709 L138.963,158.658 L140.887,158.607 L142.808,158.528 L144.729,158.449 L146.645,158.343 L148.56,158.237 L150.47,158.106 L152.38,157.974 L154.281,157.816 L156.183,157.658 L158.073,157.474 L159.963,157.291 L161.842,157.084 L163.721,156.876 L165.586,156.644 L167.451,156.411 L169.3,156.154 L171.147,155.898 L172.978,155.619 L174.809,155.341 L176.621,155.039 L178.432,154.737 L180.221,154.412 L182.009,154.088 L183.776,153.743 L185.543,153.399 L187.284,153.031 L189.024,152.664 L190.737,152.275 L192.449,151.887 L194.133,151.48 L195.819,151.072 L197.472,150.645 L199.126,150.217 L200.745,149.77 L202.364,149.324 L203.95,148.86 L205.537,148.396 L207.086,147.913 L208.636,147.43 L210.146,146.929 L211.654,146.429 L213.125,145.912 L214.597,145.395 L216.026,144.861 L217.454,144.327 L218.837,143.777 L220.216,143.228 L221.57,142.665 L222.896,142.095 L224.198,141.517 L225.477,140.933 L226.731,140.341 L227.959,139.741 L229.162,139.135 L230.339,138.521 L231.488,137.901 L232.612,137.274 L233.708,136.639 L234.775,135.998 L235.815,135.351 L236.826,134.697 L237.806,134.036 L238.759,133.37 L239.681,132.696 L240.57,132.016 L241.431,131.33 L242.26,130.637 L243.054,129.938 L243.819,129.233 L244.55,128.521 L245.245,127.803 L245.909,127.079 L246.538,126.347 L247.129,125.609 L247.687,124.866 L248.208,124.114 L248.689,123.357 L249.135,122.593 L249.543,121.821 L249.908,121.044 L250.236,120.262 L250.521,119.47 L250.763,118.676 L251.171,117.139 L251.536,115.615 L251.857,114.107 L252.139,112.61 L252.378,111.126 L252.576,109.657 L252.736,108.2 L252.855,106.755 L252.933,105.325 L252.973,103.908 L252.973,102.503 L252.934,101.113 L252.858,99.736 L252.744,98.371 L252.591,97.021 L252.403,95.685 L252.177,94.36 L251.915,93.052 L251.618,91.756 L251.285,90.473 L250.916,89.206 L250.514,87.951 L250.078,86.709 L249.607,85.483 L249.106,84.27 L248.57,83.07 L248.002,81.885 L247.404,80.714 L246.772,79.556 L246.11,78.413 L245.419,77.283 L244.696,76.167 L243.944,75.066 L243.164,73.977 L242.354,72.903 L241.516,71.843 L240.652,70.796 L239.759,69.762 L238.839,68.744 L237.894,67.738 L236.921,66.745 L235.923,65.768 L234.902,64.802 L233.854,63.85 L232.782,62.913 L231.687,61.988 L230.568,61.076 L229.425,60.178 L228.261,59.292 L227.074,58.419 L225.866,57.56 L224.637,56.714 L223.386,55.88 L222.114,55.06 L220.823,54.252 L219.511,53.456 L218.18,52.675 L216.832,51.905 L215.463,51.148 L214.073,50.403 L212.665,49.678 L211.253,48.952 L209.806,48.252 L208.358,47.551 L206.878,46.877 L205.398,46.203 L203.889,45.552 L202.38,44.901 L200.84,44.275 L199.3,43.649 L197.732,43.049 L196.164,42.451 L194.571,41.879 L192.976,41.307 L191.357,40.76 L189.737,40.213 L188.094,39.691 L186.452,39.17 L184.79,38.672 L183.126,38.176 L181.442,37.705 L179.759,37.234 L178.057,36.788 L176.355,36.341 L174.639,35.917 L172.922,35.491 L171.19,35.089 L169.459,34.686 L167.713,34.308 L165.969,33.929 L164.213,33.573 L162.457,33.217 L160.691,32.883 L158.925,32.549 L157.15,32.239 L155.376,31.929 L153.595,31.64 L151.814,31.352 L150.028,31.086 L148.242,30.82 L146.451,30.578 L144.662,30.336 L142.87,30.114 L141.078,29.893 L139.286,29.695 L137.493,29.497 L135.702,29.322 L133.911,29.146 L132.123,28.992 L130.334,28.838 L128.55,28.706 L126.765,28.575 L124.987,28.466 L123.209,28.356 L121.439,28.268 L119.668,28.18 L117.906,28.114 L116.144,28.048 L114.393,28.005 L112.643,27.962 L110.904,27.94 L109.165,27.917 L107.439,27.917 L105.714,27.917 L104.005,27.939 L102.297,27.961 L100.604,28.004 L98.911,28.046 L97.237,28.111 L95.563,28.175 L93.91,28.262 L92.258,28.348 L90.626,28.454 L88.993,28.56 L87.385,28.687 L85.776,28.815 L84.194,28.964 L82.611,29.113 L81.054,29.282 L79.497,29.451 L77.968,29.641 L76.439,29.832 L74.941,30.044 L73.443,30.255 L71.976,30.486 L70.507,30.718 L69.072,30.97 L67.637,31.223 L66.238,31.497 L64.839,31.771 L63.475,32.064 L62.109,32.357 L60.783,32.671 L59.456,32.986 L58.17,33.321 L56.886,33.656 L55.627,34.006 L54.391,34.366 L53.177,34.737 L51.983,35.117 L50.811,35.508 L49.663,35.909 L48.536,36.32 L47.432,36.741 L46.353,37.173 L45.297,37.614 L44.265,38.066 L43.259,38.528 L42.276,39 L41.319,39.482 L40.389,39.975 L39.484,40.478 L38.606,40.992 L37.756,41.515 L36.932,42.049 L36.135,42.594 L35.369,43.149 L34.629,43.714 L33.919,44.291 L33.24,44.878 L32.589,45.475 L31.968,46.084 L31.38,46.704 L30.821,47.334 L30.295,47.976 L29.803,48.628 L29.342,49.291 L28.915,49.966 L28.524,50.652 L28.165,51.348 L27.842,52.056 L27.564,52.757 C27.406,53.155 27.6,53.606 27.998,53.764 C28.395,53.922 28.846,53.728 29.004,53.33 L29.269,52.665 L29.562,52.027 L29.889,51.395 L30.247,50.769 L30.639,50.153 L31.064,49.544 L31.52,48.941 L32.009,48.348 L32.531,47.762 L33.082,47.182 L33.665,46.612 L34.281,46.05 L34.925,45.495 L35.6,44.95 L36.306,44.412 L37.04,43.882 L37.804,43.362 L38.597,42.85 L39.418,42.347 L40.266,41.853 L41.144,41.368 L42.046,40.892 L42.976,40.425 L43.933,39.968 L44.915,39.519 L45.922,39.08 L46.956,38.651 L48.013,38.23 L49.094,37.82 L50.2,37.419 L51.328,37.027 L52.479,36.646 L53.654,36.274 L54.85,35.911 L56.068,35.559 L57.305,35.217 L58.577,34.888 L59.846,34.56 L61.156,34.252 L62.466,33.944 L63.815,33.657 L65.166,33.37 L66.55,33.102 L67.935,32.833 L69.355,32.586 L70.775,32.339 L72.23,32.113 L73.686,31.886 L75.171,31.679 L76.655,31.472 L78.171,31.286 L79.687,31.1 L81.232,30.936 L82.778,30.772 L84.349,30.628 L85.919,30.483 L87.515,30.36 L89.112,30.237 L90.733,30.136 L92.354,30.035 L93.996,29.954 L95.637,29.874 L97.3,29.815 L98.963,29.756 L100.644,29.72 L102.327,29.683 L104.025,29.666 L105.723,29.65 L107.436,29.655 L109.15,29.661 L110.878,29.689 L112.607,29.717 L114.347,29.765 L116.086,29.814 L117.837,29.884 L119.587,29.955 L121.347,30.049 L123.107,30.142 L124.874,30.256 L126.641,30.37 L128.414,30.508 L130.186,30.645 L131.963,30.806 L133.74,30.966 L135.519,31.148 L137.298,31.329 L139.078,31.533 L140.858,31.739 L142.637,31.967 L144.416,32.195 L146.194,32.445 L147.97,32.694 L149.743,32.967 L151.516,33.241 L153.282,33.538 L155.049,33.836 L156.809,34.155 L158.569,34.473 L160.319,34.816 L162.07,35.158 L163.809,35.526 L165.549,35.893 L167.277,36.283 L169.004,36.672 L170.718,37.085 L172.431,37.497 L174.128,37.935 L175.825,38.375 L177.507,38.837 L179.187,39.298 L180.848,39.784 L182.509,40.269 L184.149,40.778 L185.79,41.286 L187.411,41.814 L189.031,42.342 L190.627,42.895 L192.222,43.447 L193.792,44.024 L195.363,44.6 L196.909,45.196 L198.456,45.789 L199.973,46.407 L201.49,47.024 L202.976,47.667 L204.463,48.309 L205.921,48.975 L207.378,49.639 L208.8,50.328 L210.222,51.017 L211.609,51.731 L212.999,52.447 L214.357,53.177 L215.699,53.92 L217.021,54.675 L218.325,55.443 L219.608,56.222 L220.871,57.014 L222.114,57.817 L223.335,58.633 L224.534,59.461 L225.713,60.3 L226.869,61.152 L228,62.016 L229.111,62.893 L230.196,63.78 L231.258,64.681 L232.297,65.594 L233.31,66.517 L234.297,67.454 L235.261,68.403 L236.198,69.362 L237.108,70.335 L237.993,71.319 L238.85,72.315 L239.68,73.324 L240.483,74.344 L241.258,75.376 L242.003,76.421 L242.722,77.477 L243.41,78.545 L244.068,79.626 L244.698,80.719 L245.297,81.823 L245.865,82.941 L246.404,84.07 L246.911,85.211 L247.385,86.366 L247.83,87.532 L248.24,88.711 L248.617,89.903 L248.963,91.108 L249.274,92.324 L249.551,93.555 L249.796,94.798 L250.005,96.053 L250.179,97.323 L250.32,98.605 L250.423,99.9 L250.49,101.21 L250.522,102.532 L250.517,103.868 L250.472,105.218 L250.393,106.582 L250.275,107.958 L250.116,109.351 L249.921,110.756 L249.685,112.175 L249.407,113.609 L249.092,115.057 L248.735,116.518 L248.335,117.995 L248.127,118.668 L247.882,119.338 L247.596,120.011 L247.276,120.684 L246.918,121.354 L246.521,122.027 L246.089,122.699 L245.62,123.368 L245.113,124.037 L244.571,124.706 L243.994,125.371 L243.379,126.036 L242.731,126.698 L242.049,127.357 L241.33,128.014 L240.579,128.668 L239.795,129.317 L238.976,129.963 L238.127,130.606 L237.246,131.244 L236.331,131.877 L235.387,132.507 L234.413,133.131 L233.407,133.75 L232.374,134.364 L231.311,134.972 L230.219,135.575 L229.1,136.172 L227.954,136.763 L226.779,137.348 L225.579,137.927 L224.353,138.498 L223.1,139.064 L221.824,139.623 L220.524,140.174 L219.201,140.717 L217.838,141.253 L216.48,141.787 L215.076,142.306 L213.671,142.825 L212.223,143.327 L210.773,143.83 L209.284,144.318 L207.797,144.805 L206.269,145.276 L204.742,145.746 L203.176,146.198 L201.609,146.651 L200.009,147.087 L198.411,147.522 L196.777,147.938 L195.144,148.355 L193.479,148.752 L191.812,149.149 L190.118,149.527 L188.425,149.905 L186.704,150.263 L184.982,150.621 L183.235,150.958 L181.487,151.296 L179.716,151.613 L177.947,151.931 L176.155,152.226 L174.363,152.521 L172.551,152.794 L170.738,153.066 L168.908,153.317 L167.079,153.568 L165.233,153.795 L163.388,154.022 L161.529,154.224 L159.668,154.427 L157.796,154.608 L155.925,154.788 L154.044,154.942 L152.163,155.097 L150.273,155.225 L148.382,155.354 L146.486,155.458 L144.59,155.563 L142.69,155.64 L140.79,155.717 L138.887,155.766 L136.984,155.815 L135.08,155.838 L133.177,155.862 L131.275,155.856 L129.374,155.851 L127.476,155.816 L125.577,155.778 L123.683,155.711 L121.79,155.644 L119.905,155.547 L118.02,155.45 L116.144,155.322 L114.268,155.19 L112.402,155.027 L110.538,154.863 L108.687,154.668 L106.837,154.473 L105.002,154.245 L103.167,154.018 L101.346,153.763 L99.528,153.508 L97.729,153.219 L95.93,152.93 L94.153,152.608 L92.375,152.285 L90.617,151.933 L88.862,151.582 L87.131,151.196 L85.401,150.81 L83.699,150.388 L81.991,149.966 L80.312,149.521 L78.645,149.057 L76.993,148.576 L75.356,148.077 L73.736,147.561 L72.134,147.026 L70.547,146.474 L68.979,145.904 L67.43,145.315 L65.897,144.709 L64.386,144.084 L62.894,143.44 L61.421,142.778 L59.97,142.098 L58.54,141.397 L57.13,140.68 L55.744,139.944 L54.38,139.187 L53.037,138.413 L51.72,137.619 L50.426,136.804 L49.155,135.971 L47.911,135.119 L46.691,134.246 L45.496,133.354 L44.329,132.443 L43.188,131.51 L42.072,130.559 L40.986,129.587 L39.927,128.594 L38.894,127.582 L37.893,126.55 L36.92,125.495 L35.975,124.421 L35.061,123.327 L34.178,122.209 L33.323,121.072 L32.501,119.915 L31.71,118.734 L30.949,117.532 L30.222,116.31 L29.528,115.064 L28.864,113.796 L28.236,112.508 L27.641,111.193 L27.079,109.858 L26.553,108.501 L26.062,107.117 L25.604,105.711 L25.184,104.283 L24.801,102.828 L24.453,101.35 L24.143,99.848 L23.872,98.319 L23.637,96.766 L23.442,95.19 L23.288,93.585 L23.171,91.956 L23.095,90.302 L23.062,88.619 L23.068,86.912 L23.116,85.179 L23.209,83.416 L23.342,81.629 L23.52,79.815 L23.744,77.972 L24.009,76.103 L24.321,74.207 L24.681,72.275 L24.881,71.304 L25.082,70.329 L25.308,69.34 L25.533,68.35 L25.782,67.346 L26.032,66.341 L26.304,65.322 L26.576,64.305 L26.873,63.273 L27.17,62.241 L27.492,61.195 L27.815,60.147 L28.16,59.086 L28.506,58.026 L28.877,56.951 L29.248,55.877 L29.644,54.788 L30.047,53.683 C30.4,52.71 29.897,51.635 28.924,51.281 C27.95,50.928 26.875,51.431 26.522,52.404 Z" id="Fill-133"></path>
            <path d="M10.035,42.305 L9.234,43.306 L8.45,44.369 L7.708,45.461 L7.001,46.581 L6.332,47.733 L5.703,48.91 L5.108,50.113 L4.549,51.344 L4.028,52.599 L3.54,53.876 L3.086,55.179 L2.667,56.502 L2.279,57.846 L1.925,59.213 L1.604,60.599 L1.312,62.002 L1.051,63.426 L0.822,64.866 L0.62,66.322 L0.449,67.796 L0.307,69.285 L0.191,70.787 L0.103,72.305 L0.043,73.834 L0.008,75.376 L0,76.931 L0.018,78.496 L0.059,80.07 L0.126,81.656 L0.217,83.249 L0.33,84.85 L0.467,86.459 L0.627,88.075 L0.808,89.695 L1.011,91.322 L1.237,92.958 L1.49,94.587 L1.744,96.223 L2.038,97.864 L2.333,99.505 L2.666,101.147 L2.999,102.787 L3.366,104.426 L3.733,106.066 L4.135,107.702 L4.537,109.337 L4.973,110.966 L5.407,112.591 L5.871,114.208 L6.335,115.825 L6.829,117.429 L7.322,119.033 L7.843,120.62 L8.364,122.204 L8.909,123.771 L9.454,125.339 L10.023,126.884 L10.592,128.429 L11.183,129.947 L11.774,131.463 L12.384,132.953 L12.994,134.444 L13.623,135.903 L14.252,137.361 L14.897,138.784 L15.543,140.205 L16.201,141.591 L16.861,142.978 L17.533,144.324 L18.206,145.67 L18.89,146.97 L19.571,148.265 L20.264,149.536 L20.959,150.779 L21.659,151.996 L22.361,153.189 L23.067,154.356 L23.776,155.494 L24.486,156.606 L25.199,157.689 L25.914,158.742 L26.629,159.767 L27.346,160.761 L28.063,161.722 L28.78,162.653 L29.498,163.551 L30.215,164.413 L30.931,165.244 L31.648,166.04 L32.362,166.798 L33.076,167.523 L33.79,168.21 L34.501,168.857 L35.211,169.468 L35.922,170.041 L36.632,170.572 L37.598,171.246 L38.568,171.922 L39.571,172.574 L40.574,173.225 L41.61,173.852 L42.643,174.476 L43.704,175.078 L44.768,175.681 L45.861,176.259 L46.955,176.837 L48.078,177.39 L49.199,177.941 L50.346,178.47 L51.495,179 L52.671,179.506 L53.848,180.011 L55.051,180.492 L56.252,180.972 L57.477,181.43 L58.703,181.888 L59.954,182.322 L61.205,182.756 L62.48,183.166 L63.754,183.575 L65.049,183.962 L66.345,184.349 L67.664,184.713 L68.982,185.077 L70.322,185.417 L71.661,185.756 L73.018,186.074 L74.377,186.391 L75.756,186.684 L77.134,186.977 L78.532,187.246 L79.928,187.515 L81.341,187.762 L82.754,188.009 L84.185,188.234 L85.616,188.458 L87.063,188.658 L88.509,188.859 L89.969,189.037 L91.43,189.215 L92.905,189.369 L94.381,189.524 L95.87,189.655 L97.358,189.787 L98.858,189.897 L100.359,190.008 L101.872,190.095 L103.384,190.182 L104.908,190.25 L106.43,190.319 L107.962,190.366 L109.495,190.414 L111.037,190.439 L112.579,190.464 L114.13,190.466 L115.68,190.468 L117.236,190.449 L118.794,190.432 L120.359,190.393 L121.923,190.355 L123.494,190.295 L125.064,190.234 L126.638,190.153 L128.214,190.071 L129.793,189.968 L131.373,189.864 L132.956,189.738 L134.538,189.612 L136.123,189.466 L137.708,189.319 L139.295,189.15 L140.883,188.982 L142.47,188.791 L144.057,188.6 L145.644,188.389 L147.232,188.178 L148.819,187.944 L150.406,187.711 L151.991,187.455 L153.576,187.199 L155.157,186.924 L156.74,186.648 L158.32,186.35 L159.899,186.053 L161.474,185.733 L163.047,185.413 L164.616,185.074 L166.186,184.733 L167.75,184.372 L169.314,184.01 L170.871,183.626 L172.426,183.242 L173.975,182.839 L175.525,182.436 L177.066,182.01 L178.606,181.585 L180.137,181.138 L181.668,180.691 L183.188,180.225 L184.71,179.758 L186.22,179.27 L187.73,178.782 L189.228,178.272 L190.726,177.762 L192.21,177.233 L193.696,176.703 L195.168,176.151 L196.64,175.599 L198.096,175.026 L199.552,174.454 L200.994,173.862 L202.436,173.269 L203.862,172.655 L205.288,172.041 L206.696,171.406 L208.104,170.772 L209.494,170.118 L210.886,169.463 L212.258,168.788 L213.631,168.112 L214.983,167.416 L216.334,166.719 L217.666,166.004 L218.999,165.288 L220.31,164.55 L221.622,163.813 L222.91,163.054 L224.197,162.296 L225.463,161.52 L226.729,160.742 L227.972,159.943 L229.214,159.145 L230.431,158.325 L231.646,157.506 L232.838,156.668 L234.03,155.828 L235.196,154.969 L236.361,154.108 L237.498,153.228 L238.635,152.348 L239.744,151.449 L240.855,150.549 L241.936,149.628 L243.017,148.707 L244.068,147.766 L245.117,146.825 L246.137,145.866 L247.158,144.906 L248.147,143.925 L249.136,142.943 L250.091,141.942 L251.045,140.941 L251.968,139.922 L252.892,138.901 L253.78,137.86 L254.669,136.818 L255.521,135.757 L256.373,134.696 L257.19,133.617 L258.008,132.536 L258.789,131.435 L259.569,130.334 L260.311,129.213 L261.05,128.092 L261.755,126.954 L262.459,125.814 L263.123,124.654 L263.787,123.493 L264.409,122.312 L265.03,121.133 L265.613,119.936 L266.196,118.737 L266.735,117.518 L267.275,116.299 L267.769,115.06 L268.261,113.828 L268.726,112.571 L269.167,111.309 L269.585,110.038 L269.981,108.757 L270.353,107.466 L270.701,106.166 L271.028,104.858 L271.33,103.538 L271.607,102.21 L271.862,100.874 L272.092,99.526 L272.296,98.168 L272.524,96.441 L272.713,94.727 L272.863,93.029 L272.978,91.346 L273.055,89.677 L273.094,88.024 L273.099,86.386 L273.066,84.763 L272.997,83.156 L272.895,81.564 L272.757,79.986 L272.583,78.425 L272.377,76.878 L272.135,75.346 L271.859,73.83 L271.551,72.33 L271.209,70.844 L270.833,69.375 L270.426,67.921 L269.987,66.481 L269.514,65.059 L269.013,63.651 L268.478,62.258 L267.913,60.882 L267.319,59.521 L266.693,58.175 L266.038,56.847 L265.355,55.533 L264.641,54.234 L263.899,52.952 L263.13,51.685 L262.332,50.434 L261.506,49.199 L260.654,47.979 L259.775,46.775 L258.868,45.588 L257.937,44.415 L256.979,43.257 L255.996,42.117 L254.99,40.991 L253.957,39.88 L252.901,38.786 L251.821,37.707 L250.717,36.643 L249.589,35.595 L248.44,34.563 L247.267,33.545 L246.072,32.545 L244.856,31.558 L243.618,30.587 L242.358,29.633 L241.079,28.693 L239.778,27.768 L238.457,26.859 L237.117,25.965 L235.757,25.086 L234.377,24.224 L232.98,23.376 L231.563,22.543 L230.128,21.726 L228.676,20.924 L227.206,20.137 L225.718,19.365 L224.215,18.609 L222.694,17.867 L221.154,17.14 L219.598,16.438 L218.037,15.738 L216.444,15.068 L214.851,14.399 L213.229,13.761 L211.608,13.123 L209.961,12.514 L208.313,11.904 L206.637,11.325 L204.962,10.748 L203.26,10.203 L201.56,9.658 L199.837,9.141 L198.113,8.624 L196.367,8.138 L194.621,7.651 L192.852,7.196 L191.086,6.739 L189.301,6.309 L187.516,5.879 L185.711,5.48 L183.906,5.08 L182.084,4.711 L180.263,4.342 L178.427,4.001 L176.591,3.659 L174.739,3.347 L172.888,3.035 L171.023,2.753 L169.159,2.472 L167.284,2.218 L165.408,1.964 L163.521,1.74 L161.635,1.515 L159.739,1.32 L157.843,1.126 L155.941,0.958 L154.038,0.791 L152.127,0.654 L150.217,0.517 L148.302,0.41 L146.387,0.302 L144.468,0.222 L142.549,0.141 L140.627,0.091 L138.706,0.041 L136.782,0.02 L134.86,0 L132.937,0.006 L131.014,0.013 L129.092,0.049 L127.17,0.085 L125.251,0.151 L123.333,0.217 L121.418,0.31 L119.502,0.403 L117.592,0.526 L115.682,0.648 L113.779,0.801 L111.877,0.954 L109.982,1.133 L108.086,1.313 L106.199,1.522 L104.313,1.731 L102.438,1.97 L100.563,2.209 L98.699,2.475 L96.835,2.741 L94.984,3.036 L93.134,3.332 L91.298,3.657 L89.463,3.982 L87.643,4.333 L85.821,4.685 L84.018,5.065 L82.215,5.446 L80.43,5.856 L78.646,6.267 L76.881,6.703 L75.115,7.141 L73.371,7.607 L71.627,8.073 L69.905,8.569 L68.185,9.064 L66.487,9.586 L64.788,10.109 L63.115,10.661 L61.441,11.212 L59.795,11.794 L58.15,12.374 L56.531,12.982 L54.911,13.59 L53.32,14.227 L51.73,14.864 L50.171,15.531 L48.613,16.197 L47.084,16.89 L45.555,17.583 L44.06,18.306 L42.564,19.028 L41.104,19.78 L39.645,20.531 L38.219,21.309 L36.792,22.088 L35.403,22.896 L34.015,23.703 L32.665,24.54 L31.319,25.376 L29.996,26.234 L28.695,27.106 L27.416,27.992 L26.156,28.891 L24.918,29.805 L23.702,30.734 L22.507,31.676 L21.334,32.633 L20.185,33.604 L19.057,34.589 L17.952,35.589 L16.873,36.603 L15.815,37.63 L14.782,38.672 L13.775,39.729 L12.792,40.799 L11.833,41.884 L10.907,42.977 C10.63,43.304 10.67,43.793 10.996,44.07 C11.323,44.346 11.812,44.306 12.089,43.98 L13.007,42.9 L13.946,41.84 L14.911,40.793 L15.899,39.759 L16.913,38.74 L17.951,37.734 L19.013,36.74 L20.097,35.761 L21.207,34.796 L22.337,33.843 L23.491,32.905 L24.668,31.98 L25.865,31.069 L27.084,30.171 L28.326,29.288 L29.587,28.417 L30.869,27.56 L32.17,26.719 L33.504,25.895 L34.835,25.072 L36.206,24.277 L37.576,23.483 L38.985,22.717 L40.395,21.95 L41.839,21.21 L43.281,20.469 L44.76,19.758 L46.238,19.046 L47.751,18.363 L49.264,17.68 L50.808,17.023 L52.351,16.366 L53.925,15.738 L55.499,15.11 L57.103,14.511 L58.708,13.912 L60.34,13.338 L61.97,12.765 L63.628,12.222 L65.286,11.677 L66.97,11.162 L68.655,10.647 L70.362,10.158 L72.069,9.67 L73.798,9.21 L75.528,8.751 L77.28,8.321 L79.032,7.89 L80.803,7.486 L82.574,7.083 L84.363,6.708 L86.153,6.334 L87.96,5.989 L89.768,5.643 L91.591,5.326 L93.414,5.008 L95.251,4.719 L97.088,4.431 L98.939,4.171 L100.791,3.912 L102.653,3.68 L104.515,3.447 L106.388,3.244 L108.261,3.041 L110.144,2.868 L112.027,2.694 L113.917,2.548 L115.807,2.401 L117.703,2.284 L119.6,2.167 L121.502,2.079 L123.404,1.992 L125.31,1.931 L127.215,1.871 L129.123,1.84 L131.031,1.809 L132.941,1.807 L134.851,1.807 L136.76,1.833 L138.669,1.859 L140.577,1.916 L142.484,1.972 L144.389,2.058 L146.294,2.143 L148.195,2.256 L150.095,2.37 L151.99,2.514 L153.885,2.657 L155.773,2.83 L157.661,3.004 L159.542,3.204 L161.421,3.405 L163.291,3.636 L165.162,3.867 L167.02,4.128 L168.879,4.39 L170.727,4.678 L172.574,4.967 L174.408,5.285 L176.241,5.604 L178.058,5.953 L179.876,6.303 L181.679,6.68 L183.481,7.057 L185.265,7.464 L187.049,7.871 L188.813,8.308 L190.578,8.745 L192.323,9.211 L194.068,9.677 L195.79,10.174 L197.511,10.67 L199.21,11.197 L200.908,11.724 L202.585,12.278 L204.259,12.831 L205.908,13.415 L207.558,13.996 L209.179,14.607 L210.801,15.218 L212.397,15.857 L213.992,16.495 L215.556,17.164 L217.12,17.832 L218.652,18.53 L220.189,19.227 L221.698,19.941 L223.193,20.67 L224.67,21.415 L226.132,22.174 L227.575,22.947 L229,23.736 L230.408,24.538 L231.797,25.355 L233.167,26.188 L234.519,27.034 L235.85,27.894 L237.162,28.77 L238.454,29.66 L239.726,30.564 L240.976,31.484 L242.206,32.418 L243.415,33.365 L244.601,34.329 L245.766,35.306 L246.908,36.298 L248.027,37.305 L249.124,38.326 L250.197,39.361 L251.246,40.411 L252.273,41.476 L253.274,42.554 L254.25,43.648 L255.203,44.756 L256.129,45.879 L257.029,47.017 L257.905,48.169 L258.754,49.334 L259.575,50.516 L260.373,51.711 L261.141,52.921 L261.882,54.146 L262.597,55.385 L263.283,56.638 L263.94,57.907 L264.57,59.19 L265.171,60.487 L265.741,61.801 L266.284,63.128 L266.796,64.469 L267.278,65.826 L267.731,67.198 L268.152,68.584 L268.541,69.986 L268.901,71.403 L269.228,72.833 L269.522,74.281 L269.787,75.743 L270.017,77.219 L270.214,78.712 L270.379,80.22 L270.509,81.742 L270.605,83.281 L270.668,84.835 L270.695,86.403 L270.686,87.989 L270.643,89.589 L270.564,91.204 L270.448,92.836 L270.297,94.483 L270.109,96.145 L269.882,97.826 L269.681,99.135 L269.455,100.435 L269.205,101.727 L268.933,103.01 L268.637,104.282 L268.318,105.546 L267.977,106.801 L267.613,108.046 L267.227,109.282 L266.82,110.509 L266.39,111.726 L265.94,112.93 L265.455,114.131 L264.973,115.326 L264.447,116.501 L263.922,117.676 L263.354,118.833 L262.785,119.991 L262.178,121.132 L261.573,122.271 L260.926,123.391 L260.28,124.511 L259.593,125.612 L258.905,126.715 L258.182,127.8 L257.46,128.884 L256.699,129.948 L255.939,131.013 L255.14,132.059 L254.341,133.106 L253.509,134.135 L252.677,135.163 L251.81,136.171 L250.942,137.18 L250.04,138.17 L249.136,139.16 L248.201,140.133 L247.268,141.105 L246.3,142.057 L245.333,143.009 L244.334,143.942 L243.333,144.876 L242.304,145.791 L241.276,146.706 L240.217,147.601 L239.157,148.496 L238.068,149.372 L236.978,150.248 L235.862,151.106 L234.746,151.963 L233.602,152.801 L232.458,153.638 L231.287,154.455 L230.115,155.273 L228.919,156.073 L227.724,156.873 L226.504,157.652 L225.283,158.432 L224.038,159.191 L222.791,159.95 L221.523,160.692 L220.257,161.432 L218.967,162.153 L217.676,162.873 L216.364,163.573 L215.051,164.274 L213.719,164.956 L212.388,165.637 L211.037,166.298 L209.685,166.959 L208.314,167.599 L206.942,168.24 L205.553,168.862 L204.165,169.483 L202.759,170.084 L201.353,170.685 L199.931,171.265 L198.508,171.845 L197.07,172.406 L195.633,172.967 L194.181,173.507 L192.728,174.047 L191.262,174.565 L189.795,175.085 L188.316,175.586 L186.839,176.086 L185.348,176.566 L183.858,177.045 L182.356,177.503 L180.853,177.962 L179.341,178.401 L177.829,178.84 L176.308,179.257 L174.786,179.675 L173.256,180.071 L171.725,180.467 L170.187,180.844 L168.65,181.221 L167.105,181.576 L165.561,181.931 L164.01,182.265 L162.458,182.599 L160.902,182.913 L159.347,183.228 L157.787,183.521 L156.227,183.814 L154.664,184.085 L153.1,184.356 L151.533,184.607 L149.967,184.859 L148.4,185.088 L146.832,185.318 L145.264,185.526 L143.695,185.734 L142.126,185.922 L140.558,186.11 L138.99,186.276 L137.423,186.442 L135.857,186.586 L134.291,186.73 L132.727,186.854 L131.164,186.977 L129.604,187.079 L128.045,187.181 L126.49,187.26 L124.934,187.34 L123.383,187.399 L121.833,187.459 L120.289,187.496 L118.745,187.533 L117.208,187.545 L115.67,187.557 L114.14,187.548 L112.611,187.539 L111.09,187.508 L109.57,187.477 L108.06,187.424 L106.548,187.37 L105.047,187.296 L103.546,187.222 L102.058,187.121 L100.569,187.021 L99.093,186.897 L97.617,186.774 L96.152,186.631 L94.689,186.487 L93.24,186.321 L91.791,186.155 L90.358,185.966 L88.924,185.777 L87.503,185.569 L86.085,185.361 L84.683,185.13 L83.282,184.9 L81.898,184.647 L80.514,184.393 L79.146,184.119 L77.78,183.845 L76.434,183.548 L75.088,183.252 L73.762,182.933 L72.435,182.615 L71.127,182.276 L69.821,181.938 L68.538,181.576 L67.255,181.215 L65.994,180.831 L64.733,180.446 L63.493,180.041 L62.256,179.636 L61.043,179.208 L59.83,178.781 L58.644,178.331 L57.455,177.88 L56.291,177.408 L55.13,176.937 L53.995,176.444 L52.862,175.95 L51.756,175.434 L50.649,174.917 L49.569,174.378 L48.491,173.842 L47.443,173.282 L46.395,172.723 L45.378,172.14 L44.36,171.557 L43.371,170.953 L42.384,170.351 L41.429,169.726 L40.475,169.101 L39.555,168.453 L38.63,167.802 L38.024,167.345 L37.406,166.843 L36.776,166.297 L36.138,165.712 L35.494,165.086 L34.841,164.419 L34.181,163.715 L33.518,162.973 L32.848,162.192 L32.175,161.376 L31.499,160.526 L30.82,159.638 L30.139,158.719 L29.456,157.767 L28.772,156.781 L28.088,155.766 L27.404,154.72 L26.721,153.643 L26.038,152.539 L25.358,151.406 L24.679,150.246 L24.003,149.06 L23.33,147.849 L22.663,146.616 L21.998,145.341 L21.334,144.071 L20.682,142.756 L20.029,141.44 L19.389,140.082 L18.748,138.723 L18.12,137.327 L17.493,135.934 L16.881,134.504 L16.27,133.074 L15.677,131.611 L15.083,130.148 L14.507,128.657 L13.932,127.168 L13.378,125.653 L12.824,124.138 L12.294,122.599 L11.763,121.06 L11.255,119.503 L10.748,117.947 L10.268,116.375 L9.788,114.803 L9.337,113.218 L8.886,111.631 L8.463,110.036 L8.04,108.442 L7.65,106.842 L7.259,105.242 L6.904,103.638 L6.549,102.033 L6.226,100.428 L5.904,98.825 L5.62,97.225 L5.336,95.625 L5.092,94.032 L4.847,92.432 L4.632,90.85 L4.438,89.27 L4.265,87.695 L4.113,86.127 L3.983,84.569 L3.877,83.018 L3.791,81.477 L3.73,79.948 L3.694,78.43 L3.679,76.923 L3.69,75.431 L3.727,73.952 L3.787,72.486 L3.873,71.038 L3.987,69.606 L4.125,68.189 L4.29,66.793 L4.484,65.414 L4.703,64.054 L4.951,62.717 L5.227,61.399 L5.531,60.102 L5.863,58.831 L6.227,57.582 L6.617,56.355 L7.037,55.157 L7.489,53.983 L7.969,52.833 L8.479,51.714 L9.023,50.621 L9.595,49.555 L10.199,48.521 L10.836,47.515 L11.504,46.537 L12.203,45.593 L12.96,44.652 C13.608,43.844 13.479,42.664 12.671,42.016 C11.863,41.368 10.683,41.498 10.035,42.305 Z" id="Fill-135"></path>
        </g>
    </g>
</svg>
