<?xml version="1.0" encoding="UTF-8"?>
<svg width="150px" height="146px" viewBox="0 0 150 146" version="1.1" xmlns="http://www.w3.org/2000/svg" xmlns:xlink="http://www.w3.org/1999/xlink">
    <title>3</title>
    <g id="Page-1" stroke="none" stroke-width="1" fill="none" fill-rule="evenodd">
        <g id="3" transform="translate(0.049000, 0.164000)" fill="currentColor">
            <path d="M16.871,108.4 C-39.965,44.65 74.646,-52.588 129.509,39.02 C134.7655,47.797 140.586,57.581 143.8405,67.124 L143.860417,67.1827474 L144.176866,67.6511716 C166.530633,102.865082 94.3809983,191.59045 19.3456177,111.114642 Z M29.183,72.676 C27.026,73.823 26.207,76.5 27.353,78.657 L27.9,79.653 L28.454,80.641 L29.006,81.603 L29.557,82.542 L30.106,83.457 L30.653,84.347 L31.199,85.215 L31.75,86.057 L32.3,86.873 L32.85,87.667 L33.4,88.439 L33.948,89.187 L34.494,89.914 L35.043,90.619 L35.596,91.295 L36.148,91.951 L36.707,92.582 L37.282,93.212 L38.392,94.326 L39.527,95.376 L40.648,96.341 L41.707,97.295 L42.768,98.182 L43.826,98.989 L44.889,99.728 L45.962,100.396 L47.033,100.985 L48.108,101.505 L49.198,101.948 L50.279,102.315 L51.359,102.615 L52.445,102.845 L53.516,103.002 L54.578,103.097 L55.64,103.125 L56.678,103.09 L57.701,103 L58.716,102.852 L59.703,102.653 L60.673,102.41 L61.63,102.12 L62.563,101.795 L63.478,101.437 L64.381,101.042 L65.261,100.617 L66.124,100.166 L66.975,99.687 L67.807,99.188 L68.625,98.669 L69.432,98.13 L70.245,97.562 L71.763,96.437 L73.256,95.249 L74.698,94.039 L76.092,92.822 L77.444,91.617 L78.751,90.44 L80.018,89.309 L81.244,88.247 L82.432,87.272 L83.581,86.399 L84.675,85.656 L85.769,85.023 L86.217,84.797 L86.688,84.586 L87.143,84.41 L87.576,84.268 L87.976,84.164 L88.364,84.096 L88.73,84.059 L89.066,84.053 L89.4,84.078 L89.727,84.128 L90.042,84.208 L90.375,84.326 L90.727,84.47 L91.089,84.657 L91.485,84.902 L91.928,85.177 L92.392,85.518 L92.873,85.956 L93.362,86.475 L93.857,87.078 L94.358,87.778 L94.862,88.562 L95.364,89.435 L95.873,90.403 L96.385,91.455 L96.892,92.602 L97.397,93.848 L97.902,95.184 L98.406,96.615 L98.919,98.173 C99.4,99.587 100.937,100.344 102.352,99.862 C103.767,99.38 104.523,97.843 104.041,96.429 L103.48,94.831 L102.907,93.3 L102.33,91.863 L101.752,90.503 L101.17,89.224 L100.59,88.027 L100.004,86.901 L99.405,85.848 L98.805,84.868 L98.198,83.95 L97.58,83.088 L96.951,82.294 L96.308,81.549 L95.644,80.85 L94.953,80.223 L94.211,79.687 L93.428,79.221 L92.63,78.836 L91.807,78.536 L90.959,78.313 L90.118,78.173 L89.277,78.104 L88.432,78.108 L87.61,78.18 L86.803,78.306 L86.002,78.487 L85.225,78.716 L84.464,78.986 L83.711,79.298 L82.927,79.669 L81.535,80.413 L80.11,81.29 L78.705,82.243 L77.306,83.252 L75.908,84.315 L74.512,85.411 L73.119,86.526 L71.73,87.652 L70.341,88.765 L68.958,89.858 L67.583,90.907 L66.184,91.917 L65.524,92.372 L64.844,92.819 L64.163,93.244 L63.485,93.645 L62.814,94.016 L62.142,94.361 L61.474,94.678 L60.816,94.961 L60.158,95.213 L59.504,95.433 L58.862,95.611 L58.218,95.755 L57.579,95.866 L56.954,95.939 L56.322,95.977 L55.693,95.98 L55.072,95.945 L54.437,95.87 L53.797,95.757 L53.158,95.603 L52.497,95.398 L51.822,95.148 L51.141,94.847 L50.43,94.491 L49.7,94.08 L48.956,93.607 L48.185,93.06 L47.395,92.447 L46.591,91.76 L45.769,90.982 L44.993,90.068 L44.213,89.072 L43.392,87.97 L42.996,87.433 L42.578,86.853 L42.15,86.252 L41.719,85.631 L41.279,84.993 L40.832,84.33 L40.382,83.646 L39.931,82.938 L39.474,82.204 L39.014,81.448 L38.549,80.67 L38.076,79.868 L37.599,79.042 L37.12,78.191 L36.637,77.312 L36.152,76.409 L35.664,75.48 L35.164,74.506 C34.018,72.349 31.34,71.53 29.183,72.676 Z M136.028,59.756 L142.776,93.782 C147.68335,86.12526 147.120262,77.0384844 144.032666,67.6962808 L143.860417,67.1827474 L143.40557,66.5099549 C141.52543,63.8937287 139.08014,61.60862 136.028,59.756 Z M39.866,28.089 C37.604,29.011 36.517,31.592 37.439,33.854 L37.897,34.834 L38.323,35.748 L38.751,36.592 L39.166,37.379 L39.603,38.094 L40.092,38.729 L40.446,39.365 L40.703,39.986 L40.942,40.564 L41.171,41.103 L41.395,41.6 L41.604,42.064 L41.8,42.5 L41.985,42.909 L42.16,43.292 L42.325,43.656 L42.48,44.004 L42.629,44.35 L42.905,44.973 L43.187,45.575 L43.497,46.194 L44.118,47.288 L44.92,48.468 L45.993,49.841 L46.315,50.244 L46.645,50.673 L46.988,51.14 L47.344,51.647 L47.721,52.195 L48.111,52.793 L48.579,53.4 L49.175,53.992 L49.691,54.704 L50.19,55.493 L50.693,56.357 L51.223,57.286 C52.008,58.557 53.676,58.951 54.947,58.165 C56.218,57.379 56.611,55.711 55.826,54.44 L55.229,53.547 L54.673,52.706 L54.18,51.903 L53.762,51.12 L53.484,50.319 L53.137,49.628 L52.761,49.013 L52.425,48.433 L52.118,47.892 L51.842,47.381 L51.596,46.902 L51.384,46.46 L50.656,44.955 L50.119,43.884 L49.672,42.987 L49.495,42.605 L49.296,42.15 L49.074,41.612 L48.961,41.332 L48.844,41.012 L48.721,40.662 L48.592,40.284 L48.453,39.874 L48.303,39.429 L48.142,38.951 L47.967,38.434 L47.767,37.88 L47.546,37.289 L47.307,36.652 L47.126,35.937 L47.041,35.129 L46.86,34.298 L46.611,33.429 L46.328,32.511 L45.991,31.544 L45.631,30.516 C44.709,28.254 42.128,27.167 39.866,28.089 Z M73.094,31.084 L73.07,31.995 L73.048,32.85 L73.053,33.651 L73.069,34.403 L73.125,35.106 L73.239,35.764 L73.382,36.381 L73.378,36.943 L73.35,37.462 L73.323,37.945 L73.3,38.39 L73.291,38.802 L73.282,39.184 L73.274,39.535 L73.264,39.858 L73.254,40.157 L73.244,40.431 L73.234,40.667 L73.199,41.144 L73.145,41.551 L73.089,41.905 L72.905,42.823 L72.652,43.975 L72.376,45.61 L72.305,46.098 L72.227,46.63 L72.134,47.201 L72.017,47.808 L71.877,48.457 L71.713,49.15 L71.544,49.891 L71.523,50.727 L71.399,51.595 L71.175,52.492 L70.902,53.441 L70.6,54.447 C70.227,55.894 71.097,57.37 72.544,57.743 C73.991,58.117 75.467,57.246 75.84,55.799 L76.062,54.778 L76.283,53.826 L76.526,52.944 L76.844,52.138 L77.239,51.412 L77.46,50.695 L77.665,50.023 L77.87,49.401 L78.075,48.826 L78.284,48.293 L78.489,47.8 L78.68,47.338 L79.286,45.747 L79.668,44.445 L79.93,43.311 L80.05,42.683 L80.147,42.087 L80.243,41.492 L80.295,41.159 L80.344,40.831 L80.392,40.49 L80.441,40.134 L80.492,39.757 L80.544,39.359 L80.598,38.936 L80.641,38.483 L80.685,37.998 L80.732,37.481 L80.811,36.928 L81.042,36.344 L81.252,35.718 L81.412,35.042 L81.544,34.313 L81.672,33.536 L81.786,32.702 L81.91,31.806 C82.11,29.371 80.298,27.236 77.863,27.037 C75.429,26.837 73.293,28.649 73.094,31.084 Z" id="Combined-Shape"></path>
            <path d="M144.359,94.745 L144.981,93.72 L145.564,92.635 L146.082,91.537 L146.545,90.425 L146.948,89.296 L147.291,88.157 L147.581,87.008 L147.816,85.845 L147.997,84.676 L148.129,83.499 L148.211,82.312 L148.244,81.121 L148.234,79.926 L148.179,78.722 L148.08,77.516 L147.942,76.307 L147.765,75.091 L147.549,73.875 L147.3,72.657 L147.015,71.434 L146.697,70.212 L146.35,68.988 L145.971,67.762 L145.565,66.536 L145.133,65.311 L144.675,64.084 L144.192,62.86 L143.689,61.637 L143.164,60.413 L142.617,59.189 L142.049,57.977 L141.479,56.761 L140.875,55.55 L140.273,54.341 L139.643,53.139 L139.015,51.94 L138.367,50.749 L137.72,49.559 L137.057,48.38 L136.395,47.203 L135.722,46.039 L135.051,44.877 L134.376,43.729 L133.702,42.583 L133.028,41.453 L132.356,40.326 L131.69,39.218 L131.022,38.107 L130.148,36.675 L129.259,35.269 L128.36,33.895 L127.453,32.549 L126.536,31.233 L125.608,29.95 L124.672,28.694 L123.726,27.468 L122.772,26.274 L121.81,25.106 L120.838,23.968 L119.859,22.86 L118.872,21.78 L117.876,20.729 L116.874,19.707 L115.865,18.712 L114.847,17.745 L113.824,16.808 L112.794,15.897 L111.754,15.015 L110.71,14.163 L109.66,13.336 L108.603,12.536 L107.542,11.764 L106.476,11.018 L105.403,10.298 L104.327,9.606 L103.246,8.938 L102.16,8.296 L101.071,7.682 L99.978,7.092 L98.88,6.527 L97.779,5.99 L96.676,5.475 L95.57,4.981 L94.463,4.511 L93.354,4.065 L92.24,3.643 L91.125,3.246 L90.007,2.872 L88.887,2.522 L87.766,2.197 L86.643,1.894 L85.518,1.614 L84.393,1.358 L83.267,1.124 L82.139,0.913 L81.005,0.724 L79.886,0.568 L78.757,0.412 L77.628,0.3 L76.5,0.189 L75.373,0.121 L74.249,0.055 L73.126,0.027 L72.001,0 L70.879,0.015 L69.757,0.03 L68.638,0.087 L67.523,0.144 L66.411,0.238 L65.297,0.333 L64.189,0.468 L63.081,0.603 L61.978,0.776 L60.879,0.95 L59.786,1.159 L58.691,1.369 L57.603,1.615 L56.517,1.864 L55.438,2.148 L54.363,2.432 L53.295,2.749 L52.226,3.067 L51.167,3.419 L50.109,3.772 L49.061,4.159 L48.016,4.546 L46.982,4.963 L45.946,5.381 L44.922,5.831 L43.899,6.282 L42.89,6.765 L41.882,7.247 L40.888,7.757 L39.892,8.268 L38.91,8.809 L37.93,9.351 L36.965,9.922 L36.002,10.492 L35.054,11.088 L34.105,11.686 L33.173,12.311 L32.241,12.937 L31.327,13.589 L30.416,14.241 L29.522,14.916 L28.626,15.593 L27.75,16.295 L26.875,16.998 L26.02,17.725 L25.167,18.451 L24.333,19.199 L23.498,19.949 L22.685,20.721 L21.872,21.494 L21.083,22.289 L20.295,23.083 L19.529,23.897 L18.761,24.712 L18.018,25.548 L17.276,26.385 L16.559,27.241 L15.843,28.096 L15.151,28.969 L14.458,29.843 L13.792,30.736 L13.126,31.629 L12.488,32.54 L11.852,33.449 L11.241,34.374 L10.63,35.301 L10.047,36.244 L9.465,37.187 L8.913,38.146 L8.362,39.103 L7.84,40.073 L7.316,41.046 L6.825,42.032 L6.334,43.019 L5.876,44.019 L5.419,45.017 L4.992,46.027 L4.565,47.039 L4.172,48.062 L3.779,49.086 L3.422,50.121 L3.066,51.154 L2.743,52.196 L2.419,53.241 L2.132,54.295 L1.845,55.349 L1.597,56.412 L1.349,57.473 L1.136,58.54 L0.923,59.611 L0.749,60.688 L0.576,61.766 L0.444,62.85 L0.312,63.932 L0.217,65.018 L0.123,66.107 L0.07,67.201 L0.018,68.295 L0.009,69.393 L0,70.489 L0.031,71.586 L0.063,72.687 L0.139,73.79 L0.215,74.894 L0.337,75.998 L0.46,77.1 L0.623,78.202 L0.788,79.307 L1,80.411 L1.213,81.516 L1.473,82.619 L1.732,83.712 L2.028,84.819 L2.347,85.92 L2.691,87.017 L3.057,88.113 L3.45,89.208 L3.867,90.3 L4.308,91.389 L4.775,92.478 L5.268,93.561 L5.784,94.642 L6.328,95.721 L6.898,96.796 L7.492,97.866 L8.114,98.935 L8.762,99.997 L9.435,101.056 L10.138,102.111 L10.867,103.159 L11.621,104.203 L12.404,105.243 L13.215,106.277 L14.051,107.305 L14.917,108.329 L15.811,109.345 L17.113,110.785 L18.416,112.191 L19.718,113.562 L21.019,114.903 L22.321,116.21 L23.622,117.482 L24.922,118.724 L26.222,119.934 L27.52,121.11 L28.817,122.257 L30.114,123.372 L31.409,124.454 L32.703,125.507 L33.996,126.53 L35.286,127.52 L36.576,128.483 L37.863,129.415 L39.149,130.316 L40.432,131.189 L41.714,132.034 L42.993,132.847 L44.27,133.634 L45.545,134.392 L46.817,135.121 L48.086,135.823 L49.353,136.498 L50.617,137.143 L51.878,137.764 L53.136,138.356 L54.39,138.921 L55.641,139.462 L56.89,139.976 L58.134,140.462 L59.375,140.925 L60.613,141.362 L61.846,141.772 L63.075,142.158 L64.301,142.52 L65.521,142.857 L66.738,143.17 L67.951,143.459 L69.159,143.723 L70.362,143.965 L71.561,144.183 L72.754,144.377 L73.943,144.551 L75.128,144.7 L76.311,144.828 L77.475,144.923 L78.646,145.019 L79.807,145.07 L80.967,145.121 L82.115,145.129 L83.261,145.136 L84.396,145.105 L85.532,145.074 L86.657,145.002 L87.78,144.929 L88.891,144.816 L89.999,144.703 L91.095,144.555 L92.193,144.406 L93.277,144.22 L94.36,144.033 L95.429,143.81 L96.496,143.587 L97.549,143.331 L98.604,143.074 L99.643,142.783 L100.682,142.491 L101.706,142.166 L102.727,141.841 L103.733,141.486 L104.741,141.13 L105.732,140.743 L106.723,140.356 L107.696,139.938 L108.668,139.52 L109.624,139.076 L110.581,138.631 L111.519,138.156 L112.457,137.68 L113.376,137.177 L114.294,136.675 L115.194,136.149 L116.095,135.622 L116.977,135.069 L117.859,134.517 L118.721,133.94 L119.581,133.364 L120.42,132.762 L121.26,132.16 L122.079,131.536 L122.898,130.912 L123.696,130.267 L124.492,129.623 L125.268,128.961 L126.046,128.298 L126.801,127.615 L127.561,126.931 L129.026,125.541 L130.454,124.116 L131.835,122.658 L133.168,121.172 L134.458,119.661 L135.702,118.125 L136.895,116.566 L138.042,114.987 L139.139,113.388 L140.182,111.772 L141.179,110.143 L142.123,108.499 L143.011,106.844 L143.849,105.181 L144.631,103.509 L145.355,101.832 L146.025,100.151 L146.637,98.468 L147.189,96.786 L147.685,95.106 L148.12,93.429 L148.492,91.76 L148.806,90.098 L149.056,88.444 L149.24,86.805 L149.363,85.177 L149.419,83.564 L149.406,81.972 L149.328,80.397 L149.18,78.842 L148.96,77.314 L148.673,75.81 L148.311,74.333 L147.874,72.889 L147.367,71.476 L146.781,70.096 L146.118,68.757 L145.382,67.456 L144.564,66.195 L143.667,64.984 L142.696,63.817 L141.64,62.7 L140.516,61.65 L139.907,61.128 L139.289,60.63 L138.651,60.147 L137.994,59.679 L137.315,59.225 L136.629,58.795 C136.099,58.463 135.399,58.624 135.067,59.155 C134.735,59.686 134.896,60.385 135.427,60.718 L136.085,61.128 L136.708,61.544 L137.313,61.973 L137.899,62.415 L138.464,62.868 L138.998,63.324 L140.05,64.302 L141.01,65.316 L141.897,66.377 L142.716,67.48 L143.461,68.623 L144.134,69.81 L144.743,71.034 L145.28,72.294 L145.749,73.593 L146.154,74.925 L146.49,76.287 L146.759,77.684 L146.967,79.108 L147.108,80.558 L147.182,82.036 L147.197,83.537 L147.147,85.057 L147.032,86.598 L146.858,88.156 L146.623,89.727 L146.324,91.314 L145.969,92.911 L145.554,94.515 L145.077,96.128 L144.546,97.744 L143.957,99.362 L143.31,100.982 L142.611,102.6 L141.856,104.213 L141.045,105.821 L140.185,107.422 L139.272,109.012 L138.305,110.59 L137.29,112.154 L136.224,113.7 L135.107,115.228 L133.944,116.737 L132.735,118.221 L131.475,119.681 L130.172,121.114 L128.824,122.517 L127.43,123.89 L125.993,125.235 L125.258,125.883 L124.518,126.533 L123.757,127.164 L122.995,127.796 L122.214,128.41 L121.435,129.022 L120.635,129.614 L119.836,130.206 L119.017,130.776 L118.197,131.347 L117.361,131.9 L116.528,132.453 L115.676,132.982 L114.824,133.512 L113.952,134.016 L113.08,134.521 L112.192,135.002 L111.305,135.483 L110.4,135.937 L109.496,136.392 L108.575,136.819 L107.653,137.248 L106.715,137.65 L105.779,138.052 L104.826,138.423 L103.874,138.795 L102.905,139.136 L101.935,139.477 L100.951,139.79 L99.968,140.102 L98.97,140.381 L97.973,140.66 L96.961,140.905 L95.946,141.151 L94.919,141.365 L93.894,141.579 L92.854,141.756 L91.815,141.935 L90.762,142.075 L89.707,142.215 L88.64,142.321 L87.575,142.428 L86.497,142.495 L85.42,142.562 L84.33,142.589 L83.238,142.617 L82.134,142.607 L81.034,142.597 L79.921,142.546 L78.808,142.494 L77.684,142.4 L76.553,142.305 L75.425,142.181 L74.288,142.034 L73.145,141.865 L71.997,141.675 L70.845,141.462 L69.687,141.225 L68.524,140.967 L67.358,140.686 L66.186,140.38 L65.009,140.052 L63.829,139.7 L62.644,139.322 L61.454,138.921 L60.262,138.495 L59.064,138.042 L57.863,137.567 L56.658,137.065 L55.449,136.537 L54.236,135.984 L53.021,135.404 L51.801,134.796 L50.578,134.163 L49.353,133.503 L48.124,132.814 L46.891,132.1 L45.657,131.357 L44.418,130.585 L43.177,129.786 L41.934,128.958 L40.688,128.1 L39.439,127.215 L38.189,126.3 L36.935,125.354 L35.68,124.38 L34.423,123.375 L33.163,122.339 L31.902,121.273 L30.639,120.177 L29.375,119.048 L28.108,117.889 L26.841,116.699 L25.571,115.475 L24.301,114.22 L23.029,112.933 L21.756,111.613 L20.482,110.261 L19.207,108.875 L17.932,107.455 L17.075,106.474 L16.248,105.489 L15.449,104.499 L14.674,103.505 L13.929,102.507 L13.21,101.505 L12.515,100.499 L11.849,99.49 L11.208,98.477 L10.591,97.461 L10.001,96.443 L9.436,95.421 L8.895,94.397 L8.381,93.371 L7.891,92.341 L7.424,91.309 L6.982,90.277 L6.565,89.241 L6.17,88.203 L5.801,87.165 L5.454,86.125 L5.13,85.083 L4.829,84.041 L4.554,83.004 L4.306,81.951 L4.06,80.907 L3.86,79.862 L3.66,78.818 L3.505,77.773 L3.349,76.725 L3.234,75.678 L3.119,74.633 L3.048,73.59 L2.976,72.546 L2.947,71.504 L2.918,70.46 L2.927,69.417 L2.936,68.377 L2.986,67.341 L3.036,66.304 L3.127,65.272 L3.217,64.236 L3.344,63.205 L3.47,62.176 L3.636,61.153 L3.801,60.129 L4.004,59.112 L4.207,58.092 L4.445,57.079 L4.682,56.067 L4.956,55.064 L5.23,54.06 L5.539,53.064 L5.849,52.066 L6.191,51.077 L6.532,50.09 L6.908,49.113 L7.284,48.135 L7.693,47.168 L8.102,46.199 L8.542,45.241 L8.981,44.285 L9.452,43.341 L9.922,42.396 L10.424,41.465 L10.927,40.532 L11.458,39.612 L11.987,38.693 L12.547,37.789 L13.106,36.885 L13.694,35.996 L14.284,35.106 L14.899,34.231 L15.513,33.358 L16.155,32.501 L16.796,31.645 L17.464,30.806 L18.132,29.966 L18.825,29.142 L19.516,28.321 L20.232,27.518 L20.947,26.716 L21.687,25.934 L22.428,25.15 L23.191,24.386 L23.951,23.623 L24.735,22.882 L25.518,22.14 L26.322,21.422 L27.128,20.702 L27.953,20.003 L28.777,19.305 L29.62,18.632 L30.464,17.958 L31.326,17.31 L32.19,16.66 L33.071,16.034 L33.95,15.409 L34.846,14.81 L35.742,14.211 L36.655,13.64 L37.57,13.067 L38.499,12.52 L39.426,11.974 L40.368,11.457 L41.31,10.94 L42.266,10.452 L43.224,9.963 L44.195,9.502 L45.163,9.042 L46.144,8.612 L47.124,8.183 L48.117,7.786 L49.111,7.387 L50.115,7.019 L51.117,6.651 L52.129,6.316 L53.141,5.981 L54.162,5.68 L55.185,5.379 L56.217,5.109 L57.245,4.84 L58.282,4.606 L59.317,4.372 L60.361,4.174 L61.406,3.975 L62.457,3.81 L63.505,3.645 L64.558,3.518 L65.612,3.39 L66.67,3.302 L67.73,3.213 L68.794,3.159 L69.855,3.105 L70.919,3.092 L71.983,3.078 L73.05,3.105 L74.118,3.132 L75.189,3.197 L76.256,3.261 L77.324,3.368 L78.392,3.474 L79.461,3.623 L80.538,3.773 L81.6,3.951 L82.668,4.152 L83.735,4.375 L84.802,4.618 L85.866,4.884 L86.931,5.172 L87.994,5.482 L89.054,5.814 L90.114,6.17 L91.171,6.547 L92.226,6.948 L93.279,7.373 L94.33,7.82 L95.377,8.292 L96.419,8.794 L97.459,9.319 L98.493,9.867 L99.525,10.442 L100.554,11.04 L101.577,11.662 L102.597,12.311 L103.614,12.983 L104.624,13.681 L105.631,14.406 L106.633,15.155 L107.629,15.93 L108.621,16.733 L109.608,17.56 L110.588,18.414 L111.565,19.295 L112.536,20.201 L113.501,21.133 L114.46,22.095 L115.413,23.083 L116.359,24.099 L117.298,25.145 L118.232,26.216 L119.158,27.315 L120.076,28.446 L120.989,29.603 L121.892,30.789 L122.787,32.007 L123.676,33.252 L124.556,34.526 L125.429,35.832 L126.293,37.166 L127.148,38.531 L127.996,39.933 L128.652,41.035 L129.31,42.141 L129.975,43.266 L130.638,44.389 L131.302,45.529 L131.965,46.667 L132.625,47.819 L133.282,48.969 L133.93,50.131 L134.576,51.291 L135.206,52.46 L135.836,53.629 L136.447,54.806 L137.055,55.978 L137.637,57.157 L138.219,58.332 L138.767,59.511 L139.319,60.694 L139.839,61.866 L140.34,63.04 L140.82,64.213 L141.277,65.384 L141.71,66.549 L142.117,67.712 L142.498,68.87 L142.85,70.02 L143.172,71.166 L143.466,72.306 L143.726,73.435 L143.953,74.558 L144.149,75.673 L144.307,76.775 L144.429,77.869 L144.515,78.953 L144.562,80.022 L144.568,81.082 L144.537,82.131 L144.463,83.163 L144.346,84.185 L144.188,85.194 L143.985,86.186 L143.734,87.169 L143.44,88.138 L143.098,89.09 L142.703,90.033 L142.261,90.964 L141.767,91.877 L141.192,92.819 C140.66,93.694 140.938,94.834 141.813,95.366 C142.687,95.898 143.827,95.62 144.359,94.745 Z" id="Fill-612"></path>
        </g>
    </g>
</svg>
