<?xml version="1.0" encoding="UTF-8"?>
<svg width="263px" height="274px" viewBox="0 0 263 274" version="1.1" xmlns="http://www.w3.org/2000/svg" xmlns:xlink="http://www.w3.org/1999/xlink">
    <title>30</title>
    <g id="Page-1" stroke="none" stroke-width="1" fill="none" fill-rule="evenodd">
        <g id="30" transform="translate(0.342543, 0.000000)" fill="currentColor">
            <path d="M54.5974574,69.806 C51.5904574,59.782 43.1624574,221.6 67.8974574,246.335 C75.8834574,254.321 146.221457,245.385 157.370457,245.126 C160.576457,245.051 216.867457,247.534 219.034457,245.126 C247.876457,213.079 242.052457,51.846 200.898457,28.697 C170.628457,11.67 82.5054574,48.725 43.7154574,44.415" id="Fill-130"></path>
            <path d="M56.3774574,69.219 L56.3084574,69.012 L56.1894574,68.733 L56.0104574,68.419 L55.6874574,68.035 L55.0264574,67.618 L54.0694574,67.501 L53.2644574,67.784 L52.8004574,68.174 L52.5604574,68.493 L52.4084574,68.763 L52.2964574,69.015 L52.2084574,69.254 L52.1304574,69.495 L52.0584574,69.749 L51.9914574,70.015 L51.9264574,70.296 L51.8624574,70.597 L51.8004574,70.916 L51.7394574,71.253 L51.6784574,71.612 L51.6174574,71.991 L51.5574574,72.39 L51.4974574,72.81 L51.4364574,73.256 L51.3174574,74.191 L51.1994574,75.216 L51.0804574,76.322 L50.9634574,77.502 L50.8474574,78.762 L50.7314574,80.098 L50.6174574,81.504 L50.5054574,82.983 L50.3954574,84.533 L50.2874574,86.146 L50.1814574,87.827 L50.0784574,89.573 L49.9774574,91.377 L49.8804574,93.242 L49.7864574,95.165 L49.6964574,97.14 L49.6524574,98.156 L49.6094574,99.171 L49.5684574,100.212 L49.5274574,101.253 L49.4884574,102.317 L49.4494574,103.382 L49.4124574,104.47 L49.3764574,105.559 L49.3414574,106.67 L49.3074574,107.782 L49.2754574,108.913 L49.2444574,110.044 L49.2154574,111.197 L49.1864574,112.35 L49.1604574,113.522 L49.1344574,114.694 L49.1114574,115.883 L49.0884574,117.073 L49.0684574,118.28 L49.0484574,119.487 L49.0314574,120.711 L49.0144574,121.935 L49.0014574,123.172 L48.9884574,124.41 L48.9784574,125.663 L48.9684574,126.915 L48.9614574,128.181 L48.9554574,129.447 L48.9534574,130.724 L48.9504574,132.001 L48.9514574,133.289 L48.9534574,134.578 L48.9584574,135.876 L48.9644574,137.175 L48.9734574,138.481 L48.9824574,139.788 L48.9964574,141.103 L49.0104574,142.418 L49.0294574,143.74 L49.0484574,145.063 L49.0734574,146.394 L49.0974574,147.72 L49.1224574,149.047 L49.1474574,150.379 L49.1824574,151.72 L49.2174574,153.054 L49.2524574,154.388 L49.2874574,155.728 L49.3334574,157.072 L49.3794574,158.409 L49.4254574,159.745 L49.4704574,161.089 L49.5264574,162.431 L49.5824574,163.766 L49.6384574,165.102 L49.6944574,166.445 L49.7614574,167.783 L49.8284574,169.113 L49.8954574,170.443 L49.9634574,171.781 L50.0424574,173.109 L50.1214574,174.429 L50.2004574,175.749 L50.2804574,177.077 L50.3714574,178.392 L50.4614574,179.699 L50.5524574,181.006 L50.6434574,182.322 L50.7474574,183.621 L50.8514574,184.909 L50.9544574,186.198 L51.0594574,187.497 L51.1774574,188.773 L51.2944574,190.038 L51.4114574,191.303 L51.5294574,192.576 L51.6574574,193.831 L51.7844574,195.085 L51.9184574,196.323 L52.0534574,197.562 L52.1954574,198.785 L52.3384574,200.008 L52.4874574,201.215 L52.6364574,202.423 L52.7934574,203.614 L52.9514574,204.804 L53.1164574,205.976 L53.2814574,207.148 L53.4534574,208.301 L53.6254574,209.455 L53.8054574,210.588 L53.9864574,211.721 L54.1744574,212.833 L54.3634574,213.944 L54.5604574,215.033 L54.7574574,216.124 L54.9624574,217.191 L55.1674574,218.258 L55.3814574,219.3 L55.5954574,220.341 L55.8174574,221.358 L56.0404574,222.377 L56.2714574,223.369 L56.5034574,224.365 L56.9844574,226.287 L57.4824574,228.161 L58.0014574,229.976 L58.5394574,231.728 L59.0964574,233.423 L59.6744574,235.053 L60.2734574,236.615 L60.8934574,238.113 L61.5374574,239.543 L62.2044574,240.898 L62.8954574,242.184 L63.6154574,243.397 L64.3604574,244.528 L65.1334574,245.586 L65.9414574,246.564 L66.7644574,247.438 L67.1594574,247.797 L67.5784574,248.111 L68.0224574,248.391 L68.4934574,248.649 L68.9964574,248.886 L69.5244574,249.103 L70.0794574,249.305 L70.6654574,249.492 L71.2784574,249.665 L71.9174574,249.827 L72.5874574,249.977 L73.2844574,250.115 L74.0064574,250.243 L74.7584574,250.361 L75.5364574,250.469 L76.3384574,250.567 L77.1674574,250.657 L78.0214574,250.738 L78.8974574,250.811 L79.7994574,250.876 L80.7234574,250.932 L81.6684574,250.981 L82.6364574,251.023 L83.6274574,251.057 L84.6414574,251.081 L85.6574574,251.105 L86.7134574,251.115 L87.7674574,251.126 L88.8574574,251.126 L89.9464574,251.126 L91.0644574,251.113 L92.1824574,251.103 L93.3294574,251.081 L94.4764574,251.058 L95.6484574,251.026 L96.8194574,250.993 L98.0114574,250.951 L99.2034574,250.91 L100.414457,250.859 L101.624457,250.808 L102.850457,250.748 L104.075457,250.691 L105.312457,250.627 L106.548457,250.563 L107.793457,250.492 L109.039457,250.421 L110.289457,250.344 L111.540457,250.267 L112.793457,250.183 L114.042457,250.099 L115.290457,250.014 L116.544457,249.93 L117.789457,249.837 L119.029457,249.744 L120.269457,249.652 L121.512457,249.559 L122.733457,249.461 L123.949457,249.363 L125.166457,249.266 L126.384457,249.168 L127.579457,249.068 L128.773457,248.968 L129.946457,248.868 L131.118457,248.767 L132.266457,248.667 L133.412457,248.567 L134.533457,248.468 L135.654457,248.368 L136.743457,248.27 L137.832457,248.172 L138.886457,248.077 L139.939457,247.982 L140.957457,247.889 L141.975457,247.796 L143.926457,247.619 L145.786457,247.45 L146.683457,247.369 L147.553457,247.291 L148.398457,247.216 L149.218457,247.144 L150.010457,247.075 L150.773457,247.009 L151.508457,246.947 L152.213457,246.889 L152.886457,246.835 L153.529457,246.785 L154.139457,246.739 L154.714457,246.698 L155.257457,246.662 L155.762457,246.63 L156.230457,246.604 L156.663457,246.582 L157.054457,246.566 L157.407457,246.555 L157.494457,246.554 L157.630457,246.554 L157.806457,246.556 L158.015457,246.558 L158.258457,246.563 L158.534457,246.569 L158.840457,246.576 L159.177457,246.584 L159.543457,246.594 L159.937457,246.605 L160.359457,246.617 L160.808457,246.63 L161.282457,246.644 L161.782457,246.659 L162.307457,246.675 L162.855457,246.692 L163.426457,246.71 L164.020457,246.729 L165.268457,246.768 L166.599457,246.81 L168.007457,246.854 L169.480457,246.9 L171.017457,246.947 L172.613457,246.995 L174.256457,247.044 L175.947457,247.093 L177.678457,247.14 L179.441457,247.187 L181.233457,247.233 L183.047457,247.278 L184.876457,247.32 L186.717457,247.361 L188.564457,247.399 L190.395457,247.428 L192.222457,247.458 L194.049457,247.488 L195.884457,247.518 L197.621457,247.529 L199.351457,247.54 L201.082457,247.551 L202.822457,247.562 L204.362457,247.546 L205.891457,247.531 L207.419457,247.516 L208.956457,247.5 L210.345457,247.467 L211.652457,247.426 L212.875457,247.375 L214.017457,247.316 L215.068457,247.247 L216.012457,247.167 L216.461457,247.122 L216.879457,247.075 L217.270457,247.024 L217.638457,246.97 L217.984457,246.911 L218.304457,246.847 L218.606457,246.776 L218.893457,246.695 L219.165457,246.6 L219.438457,246.479 L219.732457,246.304 L220.053457,246.016 L220.973457,244.936 L221.879457,243.756 L222.754457,242.499 L223.603457,241.171 L224.426457,239.764 L225.221457,238.284 L225.991457,236.739 L226.737457,235.12 L227.456457,233.434 L228.152457,231.686 L228.824457,229.87 L229.468457,227.996 L229.782457,227.025 L230.094457,226.057 L230.394457,225.058 L230.693457,224.06 L230.981457,223.031 L231.269457,222.004 L231.545457,220.951 L231.822457,219.897 L232.086457,218.815 L232.351457,217.733 L232.603457,216.624 L232.856457,215.516 L233.097457,214.384 L233.339457,213.252 L233.569457,212.094 L233.798457,210.936 L234.016457,209.754 L234.234457,208.573 L234.440457,207.371 L234.647457,206.168 L234.843457,204.942 L235.037457,203.717 L235.221457,202.47 L235.404457,201.223 L235.576457,199.958 L235.748457,198.692 L235.909457,197.407 L236.069457,196.121 L236.218457,194.817 L236.367457,193.513 L236.505457,192.193 L236.643457,190.873 L236.770457,189.535 L236.896457,188.198 L237.011457,186.844 L237.126457,185.491 L237.230457,184.125 L237.334457,182.757 L237.426457,181.376 L237.518457,179.994 L237.598457,178.6 L237.679457,177.205 L237.749457,175.8 L237.819457,174.394 L237.877457,172.976 L237.935457,171.559 L237.981457,170.131 L238.027457,168.703 L238.063457,167.267 L238.099457,165.83 L238.123457,164.385 L238.146457,162.939 L238.159457,161.486 L238.172457,160.033 L238.175457,158.574 L238.177457,157.115 L238.167457,155.65 L238.158457,154.184 L238.137457,152.714 L238.115457,151.244 L238.084457,149.77 L238.052457,148.296 L238.008457,146.819 L237.964457,145.342 L237.908457,143.862 L237.853457,142.383 L237.787457,140.903 L237.721457,139.423 L237.643457,137.942 L237.565457,136.461 L237.475457,134.98 L237.385457,133.5 L237.285457,132.022 L237.184457,130.543 L237.072457,129.066 L236.960457,127.589 L236.836457,126.116 L236.712457,124.643 L236.577457,123.174 L236.442457,121.705 L236.296457,120.241 L236.149457,118.776 L235.992457,117.318 L235.834457,115.86 L235.666457,114.409 L235.497457,112.957 L235.317457,111.513 L235.137457,110.07 L234.945457,108.635 L234.753457,107.2 L234.550457,105.775 L234.347457,104.349 L234.133457,102.933 L233.918457,101.518 L233.692457,100.114 L233.466457,98.711 L233.229457,97.319 L232.992457,95.927 L232.743457,94.548 L232.494457,93.169 L232.233457,91.805 L231.972457,90.441 L231.701457,89.092 L231.429457,87.741 L231.146457,86.407 L230.862457,85.073 L230.567457,83.756 L230.271457,82.44 L229.965457,81.14 L229.659457,79.839 L229.341457,78.558 L229.022457,77.276 L228.690457,76.015 L228.357457,74.755 L228.013457,73.514 L227.668457,72.273 L227.312457,71.053 L226.955457,69.833 L226.587457,68.636 L226.219457,67.44 L225.840457,66.266 L225.460457,65.09 L225.069457,63.939 L224.678457,62.788 L224.273457,61.664 L223.868457,60.54 L223.453457,59.44 L223.037457,58.339 L222.609457,57.266 L222.181457,56.193 L221.741457,55.148 L221.302457,54.104 L220.852457,53.086 L220.400457,52.068 L219.938457,51.08 L219.474457,50.091 L219.000457,49.134 L218.526457,48.177 L218.042457,47.249 L217.557457,46.32 L217.059457,45.424 L216.560457,44.524 L215.543457,42.804 L214.501457,41.144 L213.433457,39.553 L212.341457,38.037 L211.225457,36.588 L210.084457,35.215 L208.917457,33.922 L207.726457,32.702 L206.506457,31.563 L205.261457,30.511 L203.991457,29.539 L202.691457,28.654 L201.373457,27.867 L200.365457,27.331 L199.325457,26.835 L198.251457,26.377 L197.146457,25.953 L196.004457,25.564 L194.830457,25.21 L193.627457,24.887 L192.390457,24.596 L191.124457,24.338 L189.830457,24.109 L188.504457,23.91 L187.151457,23.74 L185.772457,23.597 L184.364457,23.482 L182.930457,23.395 L181.471457,23.331 L179.987457,23.294 L178.478457,23.282 L176.947457,23.292 L175.391457,23.327 L173.813457,23.384 L172.215457,23.462 L170.595457,23.561 L168.954457,23.681 L167.295457,23.82 L165.615457,23.978 L163.918457,24.155 L162.204457,24.349 L160.473457,24.561 L158.723457,24.79 L156.956457,25.04 L155.187457,25.291 L153.388457,25.571 L151.590457,25.852 L149.765457,26.16 L147.942457,26.467 L146.097457,26.797 L144.252457,27.127 L142.386457,27.479 L140.522457,27.831 L138.639457,28.202 L136.757457,28.573 L134.862457,28.959 L132.967457,29.345 L131.060457,29.745 L129.154457,30.145 L127.239457,30.555 L125.324457,30.965 L123.403457,31.386 L121.483457,31.807 L119.563457,32.227 L117.642457,32.648 L115.721457,33.075 L113.802457,33.502 L111.882457,33.929 L109.963457,34.356 L108.057457,34.778 L106.150457,35.2 L104.243457,35.623 L102.338457,36.045 L100.448457,36.457 L98.5584574,36.87 L96.6844574,37.273 L94.8104574,37.675 L92.9544574,38.065 L91.0984574,38.455 L89.2624574,38.83 L87.4274574,39.206 L85.6154574,39.563 L83.8044574,39.92 L82.0214574,40.257 L80.2384574,40.593 L78.4824574,40.908 L76.7274574,41.223 L75.0064574,41.511 L73.2854574,41.8 L71.6004574,42.059 L69.9144574,42.319 L68.2584574,42.558 L66.6224574,42.779 L65.0064574,42.984 L63.4124574,43.173 L61.8404574,43.343 L60.2924574,43.494 L58.7674574,43.628 L57.2684574,43.74 L55.7944574,43.832 L54.3454574,43.904 L52.9244574,43.954 L51.5324574,43.981 L50.1664574,43.986 L48.8314574,43.968 L47.5274574,43.924 L46.2514574,43.857 L45.0104574,43.764 L43.7924574,43.644 C43.3664574,43.602 42.9864574,43.913 42.9444574,44.339 C42.9014574,44.764 43.2124574,45.144 43.6384574,45.186 L44.8754574,45.31 L46.1524574,45.408 L47.4594574,45.478 L48.7934574,45.525 L50.1574574,45.546 L51.5494574,45.543 L52.9654574,45.518 L54.4104574,45.47 L55.8804574,45.399 L57.3744574,45.308 L58.8934574,45.196 L60.4364574,45.064 L62.0014574,44.913 L63.5884574,44.744 L65.1984574,44.556 L66.8274574,44.352 L68.4774574,44.131 L70.1474574,43.893 L71.8424574,43.634 L73.5374574,43.376 L75.2694574,43.088 L77.0004574,42.801 L78.7644574,42.487 L80.5274574,42.174 L82.3184574,41.839 L84.1094574,41.504 L85.9274574,41.148 L87.7444574,40.793 L89.5864574,40.419 L91.4274574,40.045 L93.2874574,39.658 L95.1474574,39.27 L97.0254574,38.87 L98.9034574,38.469 L100.797457,38.059 L102.689457,37.648 L104.598457,37.229 L106.505457,36.81 L108.412457,36.39 L110.320457,35.971 L112.240457,35.547 L114.161457,35.123 L116.081457,34.699 L118.000457,34.276 L119.919457,33.859 L121.840457,33.443 L123.760457,33.026 L125.679457,32.609 L127.591457,32.204 L129.503457,31.798 L131.406457,31.404 L133.309457,31.01 L135.200457,30.63 L137.091457,30.25 L138.968457,29.885 L140.845457,29.52 L142.704457,29.175 L144.563457,28.829 L146.400457,28.505 L148.238457,28.182 L150.053457,27.88 L151.868457,27.579 L153.656457,27.305 L155.444457,27.031 L157.201457,26.787 L158.960457,26.542 L160.693457,26.32 L162.410457,26.115 L164.109457,25.927 L165.790457,25.756 L167.451457,25.604 L169.092457,25.471 L170.713457,25.357 L172.311457,25.263 L173.887457,25.192 L175.441457,25.14 L176.970457,25.112 L178.474457,25.106 L179.954457,25.123 L181.406457,25.164 L182.831457,25.231 L184.230457,25.321 L185.598457,25.437 L186.937457,25.581 L188.248457,25.75 L189.525457,25.947 L190.771457,26.173 L191.986457,26.426 L193.165457,26.708 L194.311457,27.02 L195.423457,27.361 L196.498457,27.732 L197.536457,28.135 L198.540457,28.568 L199.503457,29.032 L200.423457,29.527 L201.655457,30.27 L202.858457,31.098 L204.044457,32.016 L205.211457,33.013 L206.357457,34.093 L207.484457,35.259 L208.592457,36.5 L209.677457,37.82 L210.742457,39.22 L211.786457,40.69 L212.808457,42.234 L213.809457,43.853 L214.791457,45.54 L215.267457,46.412 L215.746457,47.287 L216.213457,48.197 L216.681457,49.107 L217.138457,50.047 L217.595457,50.987 L218.039457,51.959 L218.483457,52.931 L218.915457,53.933 L219.348457,54.936 L219.771457,55.967 L220.193457,56.997 L220.604457,58.055 L221.014457,59.114 L221.413457,60.2 L221.812457,61.287 L222.201457,62.399 L222.589457,63.51 L222.968457,64.647 L223.346457,65.783 L223.713457,66.944 L224.080457,68.107 L224.437457,69.291 L224.793457,70.475 L225.137457,71.681 L225.482457,72.888 L225.815457,74.117 L226.148457,75.347 L226.470457,76.596 L226.794457,77.844 L227.108457,79.111 L227.423457,80.379 L227.725457,81.667 L228.028457,82.955 L228.320457,84.259 L228.612457,85.564 L228.892457,86.885 L229.172457,88.207 L229.441457,89.546 L229.709457,90.885 L229.968457,92.238 L230.225457,93.59 L230.472457,94.958 L230.718457,96.325 L230.953457,97.706 L231.187457,99.088 L231.411457,100.481 L231.635457,101.874 L231.847457,103.279 L232.060457,104.684 L232.260457,106.099 L232.460457,107.516 L232.650457,108.941 L232.840457,110.366 L233.018457,111.8 L233.196457,113.234 L233.362457,114.676 L233.528457,116.118 L233.684457,117.567 L233.839457,119.015 L233.983457,120.47 L234.126457,121.925 L234.258457,123.385 L234.389457,124.846 L234.510457,126.31 L234.631457,127.774 L234.740457,129.241 L234.849457,130.709 L234.947457,132.179 L235.044457,133.649 L235.131457,135.121 L235.218457,136.592 L235.292457,138.064 L235.368457,139.535 L235.431457,141.007 L235.494457,142.478 L235.547457,143.949 L235.600457,145.419 L235.641457,146.887 L235.682457,148.355 L235.711457,149.82 L235.740457,151.285 L235.759457,152.746 L235.778457,154.207 L235.784457,155.663 L235.792457,157.119 L235.787457,158.569 L235.782457,160.019 L235.767457,161.463 L235.751457,162.906 L235.723457,164.342 L235.695457,165.777 L235.656457,167.204 L235.616457,168.631 L235.566457,170.049 L235.516457,171.466 L235.454457,172.873 L235.392457,174.28 L235.318457,175.675 L235.245457,177.071 L235.160457,178.455 L235.076457,179.839 L234.980457,181.209 L234.884457,182.579 L234.777457,183.934 L234.669457,185.29 L234.551457,186.632 L234.433457,187.973 L234.303457,189.298 L234.174457,190.623 L234.032457,191.93 L233.890457,193.238 L233.738457,194.529 L233.586457,195.82 L233.422457,197.091 L233.258457,198.362 L233.083457,199.614 L232.907457,200.865 L232.721457,202.097 L232.535457,203.329 L232.338457,204.539 L232.141457,205.748 L231.932457,206.934 L231.723457,208.121 L231.504457,209.286 L231.284457,210.45 L231.054457,211.59 L230.823457,212.729 L230.581457,213.842 L230.339457,214.956 L230.086457,216.045 L229.834457,217.134 L229.570457,218.194 L229.306457,219.255 L229.032457,220.286 L228.756457,221.318 L228.471457,222.324 L228.186457,223.327 L227.889457,224.301 L227.593457,225.274 L227.285457,226.215 L226.979457,227.153 L226.343457,228.98 L225.686457,230.734 L225.007457,232.419 L224.309457,234.039 L223.591457,235.583 L222.851457,237.052 L222.093457,238.45 L221.316457,239.767 L220.519457,241.003 L219.706457,242.162 L218.876457,243.234 L218.016457,244.235 L218.168457,244.095 L218.222457,244.06 L218.186457,244.075 L218.087457,244.109 L217.937457,244.15 L217.735457,244.196 L217.495457,244.244 L217.217457,244.29 L216.902457,244.336 L216.555457,244.38 L216.178457,244.421 L215.775457,244.46 L214.869457,244.534 L213.862457,244.597 L212.752457,244.651 L211.557457,244.697 L210.274457,244.733 L208.915457,244.761 L207.396457,244.772 L205.867457,244.782 L204.339457,244.793 L202.823457,244.803 L201.103457,244.788 L199.373457,244.772 L197.642457,244.757 L195.919457,244.741 L194.098457,244.706 L192.271457,244.672 L190.444457,244.637 L188.619457,244.603 L186.780457,244.56 L184.944457,244.515 L183.118457,244.467 L181.307457,244.418 L179.519457,244.367 L177.759457,244.315 L176.030457,244.263 L174.342457,244.211 L172.700457,244.16 L171.106457,244.109 L169.570457,244.059 L168.098457,244.011 L166.691457,243.965 L165.360457,243.921 L164.112457,243.88 L163.517457,243.86 L162.945457,243.842 L162.397457,243.824 L161.871457,243.807 L161.370457,243.791 L160.895457,243.776 L160.443457,243.762 L160.019457,243.749 L159.623457,243.738 L159.252457,243.728 L158.911457,243.718 L158.600457,243.711 L158.316457,243.704 L158.063457,243.7 L157.840457,243.696 L157.646457,243.694 L157.479457,243.694 L157.334457,243.696 L156.954457,243.707 L156.534457,243.723 L156.080457,243.745 L155.594457,243.772 L155.073457,243.804 L154.517457,243.841 L153.932457,243.882 L153.313457,243.927 L152.662457,243.977 L151.982457,244.031 L151.272457,244.088 L150.532457,244.15 L149.765457,244.214 L148.969457,244.283 L148.147457,244.354 L147.300457,244.428 L146.427457,244.505 L145.528457,244.585 L143.667457,244.753 L141.715457,244.929 L140.697457,245.021 L139.680457,245.112 L138.627457,245.207 L137.574457,245.301 L136.487457,245.398 L135.399457,245.495 L134.280457,245.594 L133.160457,245.692 L132.015457,245.791 L130.870457,245.891 L129.700457,245.99 L128.531457,246.09 L127.339457,246.189 L126.149457,246.288 L124.935457,246.385 L123.718457,246.482 L122.502457,246.579 L121.290457,246.676 L120.054457,246.768 L118.814457,246.86 L117.574457,246.952 L116.340457,247.043 L115.096457,247.127 L113.847457,247.21 L112.599457,247.294 L111.354457,247.377 L110.111457,247.453 L108.868457,247.529 L107.629457,247.599 L106.391457,247.669 L105.163457,247.732 L103.934457,247.795 L102.716457,247.851 L101.499457,247.904 L100.298457,247.95 L99.0974574,247.995 L97.9154574,248.031 L96.7344574,248.067 L95.5734574,248.094 L94.4134574,248.122 L93.2794574,248.138 L92.1464574,248.155 L91.0424574,248.161 L89.9384574,248.167 L88.8654574,248.161 L87.7924574,248.154 L86.7564574,248.134 L85.7224574,248.113 L84.7274574,248.08 L83.7304574,248.046 L82.7684574,248.003 L81.8274574,247.953 L80.9104574,247.896 L80.0164574,247.833 L79.1484574,247.762 L78.3074574,247.684 L77.4924574,247.598 L76.7074574,247.505 L75.9514574,247.404 L75.2244574,247.296 L74.5314574,247.181 L73.8704574,247.058 L73.2414574,246.928 L72.6514574,246.791 L72.0964574,246.646 L71.5774574,246.495 L71.1024574,246.339 L70.6674574,246.177 L70.2724574,246.011 L69.9274574,245.845 L69.6274574,245.678 L69.3724574,245.514 L69.1724574,245.362 L69.0304574,245.232 L68.3274574,244.476 L67.6534574,243.646 L66.9884574,242.72 L66.3344574,241.711 L65.6974574,240.617 L65.0734574,239.434 L64.4624574,238.176 L63.8694574,236.839 L63.2924574,235.421 L62.7314574,233.935 L62.1884574,232.376 L61.6624574,230.745 L61.1524574,229.052 L60.6604574,227.293 L60.1854574,225.47 L59.7244574,223.587 L59.5044574,222.622 L59.2834574,221.653 L59.0714574,220.657 L58.8584574,219.658 L58.6544574,218.636 L58.4494574,217.614 L58.2524574,216.566 L58.0564574,215.518 L57.8684574,214.445 L57.6804574,213.371 L57.4994574,212.276 L57.3184574,211.181 L57.1454574,210.064 L56.9724574,208.946 L56.8074574,207.807 L56.6414574,206.667 L56.4834574,205.509 L56.3254574,204.352 L56.1754574,203.175 L56.0244574,201.997 L55.8824574,200.802 L55.7394574,199.606 L55.6034574,198.395 L55.4664574,197.184 L55.3374574,195.957 L55.2084574,194.73 L55.0854574,193.488 L54.9634574,192.249 L54.8514574,190.99 L54.7384574,189.725 L54.6254574,188.459 L54.5124574,187.204 L54.4144574,185.925 L54.3144574,184.636 L54.2154574,183.348 L54.1164574,182.068 L54.0314574,180.771 L53.9444574,179.463 L53.8584574,178.156 L53.7724574,176.857 L53.6984574,175.545 L53.6234574,174.225 L53.5484574,172.905 L53.4734574,171.593 L53.4114574,170.271 L53.3484574,168.941 L53.2854574,167.61 L53.2234574,166.288 L53.1714574,164.96 L53.1204574,163.624 L53.0694574,162.289 L53.0184574,160.96 L52.9764574,159.629 L52.9354574,158.293 L52.8934574,156.956 L52.8524574,155.626 L52.8214574,154.299 L52.7894574,152.965 L52.7584574,151.631 L52.7274574,150.303 L52.7054574,148.983 L52.6834574,147.657 L52.6614574,146.331 L52.6404574,145.009 L52.6254574,143.694 L52.6094574,142.378 L52.5984574,141.069 L52.5874574,139.76 L52.5814574,138.459 L52.5744574,137.158 L52.5714574,135.865 L52.5684574,134.572 L52.5704574,133.289 L52.5714574,132.006 L52.5764574,130.735 L52.5814574,129.463 L52.5904574,128.203 L52.5994574,126.942 L52.6114574,125.695 L52.6244574,124.448 L52.6404574,123.216 L52.6564574,121.983 L52.6754574,120.764 L52.6944574,119.546 L52.7164574,118.344 L52.7384574,117.142 L52.7644574,115.958 L52.7894574,114.774 L52.8174574,113.607 L52.8464574,112.44 L52.8774574,111.293 L52.9084574,110.145 L52.9424574,109.019 L52.9764574,107.893 L53.0124574,106.787 L53.0484574,105.681 L53.0874574,104.598 L53.1254574,103.515 L53.1664574,102.456 L53.2074574,101.397 L53.2504574,100.361 L53.2934574,99.326 L53.3384574,98.317 L53.3834574,97.308 L53.4774574,95.344 L53.5744574,93.432 L53.6754574,91.58 L53.7784574,89.79 L53.8844574,88.057 L53.9934574,86.391 L54.1034574,84.793 L54.2154574,83.259 L54.3294574,81.798 L54.4444574,80.412 L54.5614574,79.097 L54.6774574,77.862 L54.7944574,76.708 L54.9114574,75.632 L55.0284574,74.645 L55.1454574,73.742 L55.2014574,73.33 L55.2584574,72.938 L55.3154574,72.569 L55.3714574,72.224 L55.4264574,71.905 L55.4804574,71.611 L55.5324574,71.344 L55.5834574,71.106 L55.6324574,70.897 L55.6774574,70.719 L55.7174574,70.578 L55.7504574,70.476 L55.7724574,70.418 L55.7684574,70.425 L55.7254574,70.502 L55.5914574,70.676 L55.2324574,70.975 L54.5324574,71.221 L53.6774574,71.115 L53.1174574,70.765 L52.8944574,70.504 L52.8134574,70.363 L52.7914574,70.314 L52.8164574,70.394 C53.1414574,71.378 54.2014574,71.911 55.1854574,71.587 C56.1684574,71.262 56.7024574,70.202 56.3774574,69.219 Z" id="Fill-131"></path>
            <path d="M0.361457369,28.845 L0.994457369,29.709 L1.60545737,30.544 L2.19045737,31.411 L2.77645737,32.279 L3.33645737,33.179 L3.89845737,34.081 L4.43745737,35.012 L4.97545737,35.94 L5.48845737,36.899 L6.00245737,37.859 L6.49245737,38.848 L6.98345737,39.84 L7.45245737,40.858 L7.92245737,41.874 L8.36745737,42.919 L8.81445737,43.964 L9.23845737,45.036 L9.66345737,46.111 L10.0674574,47.21 L10.4724574,48.308 L10.8554574,49.431 L11.2384574,50.556 L11.6014574,51.704 L11.9644574,52.856 L12.3094574,54.029 L12.6544574,55.201 L12.9784574,56.396 L13.3034574,57.593 L13.6094574,58.811 L13.9164574,60.032 L14.2064574,61.272 L14.4954574,62.511 L14.7674574,63.772 L15.0394574,65.033 L15.2934574,66.314 L15.5484574,67.596 L15.7884574,68.897 L16.0284574,70.196 L16.2514574,71.515 L16.4754574,72.833 L16.6834574,74.17 L16.8914574,75.508 L17.0864574,76.861 L17.2814574,78.214 L17.4614574,79.583 L17.6424574,80.952 L17.8094574,82.337 L17.9764574,83.723 L18.1324574,85.122 L18.2874574,86.521 L18.4304574,87.933 L18.5734574,89.346 L18.7044574,90.772 L18.8364574,92.199 L18.9574574,93.637 L19.0784574,95.075 L19.1894574,96.524 L19.3004574,97.974 L19.4014574,99.434 L19.5024574,100.895 L19.5954574,102.365 L19.6874574,103.834 L19.7714574,105.313 L19.8554574,106.792 L19.9314574,108.279 L20.0084574,109.767 L20.0774574,111.262 L20.1474574,112.757 L20.2094574,114.258 L20.2724574,115.76 L20.3294574,117.268 L20.3864574,118.774 L20.4364574,120.288 L20.4864574,121.806 L20.5364574,123.323 L20.5864574,124.836 L20.6274574,126.355 L20.6694574,127.88 L20.7114574,129.405 L20.7524574,130.926 L20.7884574,132.451 L20.8244574,133.979 L20.8614574,135.507 L20.8974574,137.034 L20.9304574,138.561 L20.9644574,140.089 L20.9984574,141.618 L21.0314574,143.146 L21.0644574,144.672 L21.0964574,146.198 L21.1294574,147.725 L21.1624574,149.252 L21.1974574,150.774 L21.2324574,152.294 L21.2674574,153.815 L21.3024574,155.338 L21.3414574,156.853 L21.3794574,158.365 L21.4184574,159.877 L21.4574574,161.394 L21.5034574,162.899 L21.5494574,164.399 L21.5954574,165.9 L21.6414574,167.407 L21.6974574,168.898 L21.7524574,170.383 L21.8084574,171.869 L21.8644574,173.361 L21.9314574,174.837 L21.9974574,176.306 L22.0644574,177.775 L22.1314574,179.253 L22.2124574,180.71 L22.2944574,182.157 L22.3754574,183.605 L22.4574574,185.064 L22.5564574,186.498 L22.6554574,187.921 L22.7534574,189.344 L22.8534574,190.776 L22.9664574,192.19 L23.0794574,193.601 L23.2024574,194.999 L23.3264574,196.396 L23.4614574,197.779 L23.5964574,199.161 L23.7414574,200.528 L23.8874574,201.897 L24.0464574,203.249 L24.2044574,204.601 L24.3764574,205.936 L24.5474574,207.271 L24.7324574,208.589 L24.9174574,209.908 L25.1164574,211.208 L25.3154574,212.509 L25.5304574,213.79 L25.7444574,215.07 L25.9734574,216.331 L26.2024574,217.594 L26.4484574,218.836 L26.6944574,220.079 L26.9574574,221.299 L27.2204574,222.518 L27.5004574,223.717 L27.7794574,224.918 L28.0774574,226.094 L28.3764574,227.272 L28.6944574,228.425 L29.0124574,229.577 L29.3474574,230.706 L29.6844574,231.838 L30.0414574,232.943 L30.3984574,234.049 L30.7774574,235.129 L31.1564574,236.207 L31.5544574,237.26 L31.9544574,238.316 L32.3764574,239.343 L32.7984574,240.371 L33.2444574,241.37 L33.6904574,242.368 L34.1574574,243.338 L34.6274574,244.311 L35.1214574,245.253 L35.6174574,246.196 L36.1384574,247.107 L36.6584574,248.016 L37.2024574,248.896 L37.7544574,249.787 L38.8954574,251.477 L40.0974574,253.107 L41.3534574,254.673 L42.6694574,256.17 L44.0324574,257.579 L44.7544574,258.277 L45.4804574,258.944 L46.2204574,259.59 L46.9764574,260.217 L47.7494574,260.826 L48.5364574,261.414 L49.3394574,261.983 L50.1594574,262.532 L50.9944574,263.059 L51.8454574,263.567 L52.7134574,264.054 L53.6004574,264.521 L54.5844574,265.002 L55.6274574,265.47 L56.7214574,265.921 L57.8624574,266.358 L59.0564574,266.781 L60.2984574,267.189 L61.5844574,267.585 L62.9204574,267.968 L64.3014574,268.339 L65.7234574,268.697 L67.1914574,269.043 L68.7024574,269.376 L70.2524574,269.697 L71.8444574,270.006 L73.4764574,270.302 L75.1434574,270.586 L76.8494574,270.858 L78.5914574,271.118 L80.3654574,271.366 L82.1744574,271.605 L84.0164574,271.832 L85.8874574,272.048 L87.7894574,272.252 L89.7214574,272.444 L91.6784574,272.625 L93.6614574,272.794 L94.6694574,272.872 L95.6744574,272.951 L96.6904574,273.024 L97.7074574,273.098 L98.7354574,273.165 L99.7644574,273.232 L100.804457,273.294 L101.843457,273.355 L102.892457,273.412 L103.941457,273.468 L105.001457,273.518 L106.060457,273.569 L107.128457,273.613 L108.197457,273.658 L109.272457,273.697 L110.349457,273.737 L111.434457,273.77 L112.518457,273.804 L113.610457,273.832 L114.704457,273.86 L115.806457,273.88 L116.903457,273.9 L118.001457,273.92 L119.105457,273.94 L120.222457,273.948 L121.331457,273.957 L122.439457,273.965 L123.555457,273.974 L124.680457,273.971 L125.798457,273.968 L126.915457,273.965 L128.039457,273.963 L129.169457,273.95 L130.292457,273.937 L131.415457,273.924 L132.545457,273.911 L133.680457,273.886 L134.807457,273.862 L135.934457,273.838 L137.068457,273.814 L138.203457,273.778 L139.332457,273.743 L140.460457,273.707 L141.595457,273.671 L142.729457,273.626 L143.856457,273.58 L144.983457,273.535 L146.117457,273.489 L147.248457,273.432 L148.372457,273.376 L149.495457,273.32 L150.626457,273.263 L151.751457,273.195 L152.868457,273.128 L153.986457,273.061 L155.110457,272.993 L156.226457,272.916 L157.335457,272.839 L158.445457,272.762 L159.562457,272.684 L160.667457,272.596 L161.766457,272.508 L162.864457,272.42 L163.970457,272.332 L165.063457,272.232 L166.147457,272.134 L167.232457,272.036 L168.323457,271.936 L169.400457,271.828 L170.470457,271.72 L171.540457,271.611 L172.618457,271.503 L173.678457,271.383 L174.729457,271.264 L175.780457,271.144 L176.840457,271.024 L177.879457,270.894 L178.908457,270.764 L179.938457,270.635 L180.974457,270.505 L181.995457,270.367 L183.013457,270.23 L184.020457,270.088 L185.028457,269.945 L187.012457,269.65 L188.974457,269.345 L190.907457,269.03 L192.811457,268.705 L194.687457,268.371 L196.531457,268.026 L198.341457,267.67 L200.120457,267.306 L201.864457,266.931 L203.571457,266.546 L205.243457,266.151 L206.876457,265.747 L208.469457,265.332 L210.023457,264.907 L211.536457,264.472 L213.004457,264.027 L214.431457,263.572 L215.813457,263.107 L217.147457,262.631 L218.437457,262.145 L219.678457,261.648 L220.868457,261.14 L222.011457,260.623 L223.104457,260.092 L224.141457,259.551 L225.128457,258.998 L226.063457,258.43 L226.931457,257.855 L227.508457,257.444 L228.074457,257.013 L228.633457,256.56 L229.186457,256.088 L229.734457,255.592 L230.286457,255.064 L231.343457,253.984 L232.390457,252.808 L233.414457,251.551 L234.420457,250.223 L235.406457,248.815 L236.372457,247.334 L237.320457,245.784 L238.250457,244.161 L239.160457,242.469 L240.054457,240.714 L240.928457,238.896 L241.359457,237.947 L241.788457,237.004 L242.208457,236.031 L242.629457,235.059 L243.041457,234.054 L243.452457,233.05 L243.855457,232.016 L244.258457,230.983 L244.653457,229.922 L245.047457,228.862 L245.434457,227.773 L245.820457,226.684 L246.197457,225.567 L246.574457,224.451 L246.943457,223.311 L247.312457,222.17 L247.672457,221.004 L248.032457,219.837 L248.384457,218.646 L248.736457,217.456 L249.079457,216.243 L249.423457,215.03 L249.757457,213.794 L250.092457,212.558 L250.418457,211.3 L250.744457,210.043 L251.062457,208.766 L251.380457,207.489 L251.689457,206.191 L251.998457,204.893 L252.298457,203.576 L252.598457,202.26 L252.891457,200.926 L253.183457,199.593 L253.466457,198.241 L253.750457,196.89 L254.024457,195.521 L254.299457,194.154 L254.565457,192.772 L254.831457,191.389 L255.089457,189.992 L255.347457,188.594 L255.596457,187.183 L255.845457,185.772 L256.085457,184.35 L256.326457,182.927 L256.558457,181.491 L256.790457,180.056 L257.013457,178.609 L257.235457,177.163 L257.450457,175.708 L257.665457,174.252 L257.870457,172.787 L258.076457,171.321 L258.273457,169.848 L258.469457,168.374 L258.658457,166.894 L258.846457,165.413 L259.026457,163.926 L259.205457,162.439 L259.375457,160.946 L259.545457,159.453 L259.707457,157.956 L259.869457,156.459 L260.022457,154.957 L260.175457,153.456 L260.320457,151.952 L260.464457,150.446 L260.596457,148.938 L260.728457,147.435 L260.859457,145.932 L260.991457,144.422 L261.105457,142.911 L261.218457,141.407 L261.331457,139.903 L261.444457,138.392 L261.539457,136.884 L261.633457,135.384 L261.728457,133.883 L261.823457,132.376 L261.900457,130.876 L261.978457,129.381 L262.055457,127.887 L262.133457,126.386 L262.192457,124.895 L262.251457,123.411 L262.310457,121.927 L262.368457,120.436 L262.408457,118.959 L262.448457,117.489 L262.488457,116.02 L262.528457,114.545 L262.555457,113.082 L262.582457,111.621 L262.599457,110.169 L262.617457,108.718 L262.625457,107.277 L262.633457,105.836 L262.633457,104.406 L262.633457,102.976 L262.620457,101.558 L262.610457,100.141 L262.590457,98.736 L262.570457,97.332 L262.542457,95.942 L262.513457,94.551 L262.475457,93.175 L262.437457,91.799 L262.389457,90.439 L262.341457,89.08 L262.285457,87.736 L262.228457,86.392 L262.161457,85.066 L262.095457,83.74 L262.018457,82.433 L261.942457,81.126 L261.857457,79.838 L261.772457,78.549 L261.677457,77.28 L261.582457,76.012 L261.477457,74.765 L261.372457,73.519 L261.258457,72.294 L261.144457,71.067 L261.020457,69.865 L260.896457,68.662 L260.762457,67.484 L260.628457,66.306 L260.485457,65.151 L260.341457,63.995 L260.188457,62.866 L260.035457,61.737 L259.871457,60.635 L259.708457,59.533 L259.535457,58.457 L259.363457,57.38 L259.180457,56.332 L258.997457,55.284 L258.803457,54.265 L258.610457,53.248 L258.407457,52.258 L258.204457,51.264 L257.778457,49.348 L257.331457,47.495 L256.865457,45.702 L256.376457,43.976 L255.863457,42.321 L255.330457,40.731 L254.774457,39.213 L254.197457,37.77 L253.599457,36.397 L252.976457,35.099 L252.332457,33.887 L251.785457,32.942 L251.240457,31.999 L250.670457,31.089 L250.101457,30.179 L249.507457,29.302 L248.914457,28.426 L248.300457,27.579 L247.684457,26.732 L247.044457,25.917 L246.405457,25.102 L245.743457,24.317 L245.078457,23.531 L243.719457,22.025 L242.313457,20.575 L240.865457,19.187 L239.380457,17.852 L237.854457,16.576 L236.290457,15.358 L234.692457,14.191 L233.056457,13.078 L231.386457,12.02 L229.685457,11.012 L227.948457,10.056 L226.179457,9.152 L224.381457,8.295 L222.551457,7.487 L220.692457,6.729 L218.811457,6.016 L217.849457,5.68 L216.892457,5.345 L215.921457,5.034 L214.951457,4.723 L213.969457,4.432 L212.986457,4.141 L211.990457,3.872 L210.995457,3.603 L209.987457,3.355 L208.980457,3.108 L207.962457,2.88 L206.944457,2.651 L205.914457,2.443 L204.884457,2.236 L203.843457,2.048 L202.803457,1.86 L201.753457,1.69 L200.703457,1.52 L199.642457,1.369 L198.582457,1.218 L197.511457,1.085 L196.442457,0.952 L195.364457,0.836 L194.286457,0.719 L193.198457,0.62 L192.111457,0.522 L191.015457,0.44 L189.921457,0.358 L188.818457,0.292 L187.716457,0.225 L186.605457,0.175 L185.496457,0.125 L184.378457,0.09 L183.262457,0.055 L182.139457,0.034 L181.016457,0.013 L179.887457,0.007 L178.758457,0 L177.623457,0.008 L176.488457,0.016 L175.349457,0.036 L174.209457,0.057 L173.065457,0.09 L171.920457,0.124 L170.772457,0.17 L169.623457,0.217 L168.471457,0.275 L167.319457,0.332 L166.163457,0.402 L165.007457,0.472 L163.848457,0.553 L162.687457,0.634 L161.523457,0.729 L160.365457,0.825 L159.207457,0.92 L158.041457,1.016 L156.871457,1.132 L155.708457,1.247 L154.546457,1.363 L153.377457,1.479 L152.206457,1.613 L151.041457,1.746 L149.877457,1.88 L148.707457,2.014 L147.537457,2.163 L146.372457,2.311 L145.208457,2.459 L144.038457,2.608 L142.869457,2.772 L141.706457,2.934 L140.543457,3.097 L139.375457,3.261 L138.211457,3.437 L137.051457,3.612 L135.891457,3.787 L134.728457,3.963 L133.569457,4.149 L132.414457,4.334 L131.259457,4.519 L130.100457,4.705 L128.948457,4.899 L127.800457,5.093 L126.652457,5.288 L125.500457,5.482 L124.358457,5.684 L123.218457,5.885 L122.079457,6.086 L120.937457,6.287 L119.805457,6.493 L118.675457,6.699 L117.545457,6.905 L116.413457,7.111 L115.294457,7.32 L114.176457,7.53 L113.058457,7.739 L111.939457,7.948 L110.834457,8.159 L109.731457,8.369 L108.627457,8.58 L107.523457,8.79 L106.433457,9 L105.344457,9.21 L104.255457,9.42 L103.165457,9.63 L102.093457,9.838 L101.022457,10.046 L99.9504574,10.253 L98.8794574,10.461 L97.8274574,10.665 L96.7754574,10.868 L95.7244574,11.072 L94.6724574,11.275 L93.6404574,11.473 L92.6084574,11.671 L91.5754574,11.87 L90.5444574,12.067 L89.5364574,12.258 L88.5264574,12.448 L87.5174574,12.638 L86.5094574,12.828 L85.5274574,13.008 L84.5424574,13.189 L83.5574574,13.37 L82.5754574,13.55 L80.6454574,13.895 L78.7424574,14.228 L76.8694574,14.548 L75.0224574,14.854 L73.2074574,15.145 L71.4234574,15.42 L69.6684574,15.68 L67.9484574,15.921 L66.2614574,16.144 L64.6074574,16.348 L62.9904574,16.532 L61.4064574,16.694 L61.1444574,16.719 L60.8474574,16.747 L60.5194574,16.776 L60.1634574,16.808 L59.7794574,16.841 L59.3654574,16.877 L58.9274574,16.914 L58.4614574,16.953 L57.9704574,16.994 L57.4564574,17.038 L56.9174574,17.083 L56.3544574,17.13 L55.1664574,17.229 L53.8924574,17.336 L52.5384574,17.451 L51.1174574,17.573 L49.6284574,17.702 L48.0774574,17.839 L46.4764574,17.982 L44.8244574,18.133 L43.1294574,18.291 L41.4004574,18.456 L39.6384574,18.627 L37.8514574,18.806 L36.0414574,18.994 L34.2294574,19.182 L32.4024574,19.384 L30.5744574,19.586 L28.7564574,19.801 L26.9384574,20.016 L25.1504574,20.243 L23.3624574,20.47 L21.6294574,20.71 L19.8964574,20.95 L18.2444574,21.202 L16.5944574,21.455 L15.0104574,21.716 L13.4844574,21.984 L12.0234574,22.257 L10.6254574,22.537 L9.30145737,22.822 L8.05845737,23.115 L6.89445737,23.413 L5.81945737,23.719 L4.84945737,24.03 L4.38745737,24.192 L3.95745737,24.355 L3.55345737,24.52 L3.17345737,24.688 L2.81845737,24.861 L2.49045737,25.039 L2.18745737,25.222 L1.90745737,25.416 L1.65545737,25.619 L1.42745737,25.837 L1.22645737,26.08 L1.06245737,26.346 L0.938457369,26.642 L0.872457369,26.971 L0.876457369,27.304 L0.946457369,27.628 L1.07945737,27.935 L1.22745737,28.164 C1.46245737,28.522 1.94345737,28.621 2.30045737,28.386 C2.65845737,28.151 2.75745737,27.67 2.52245737,27.313 L2.43945737,27.191 L2.42045737,27.149 L2.41745737,27.128 L2.41645737,27.117 L2.41945737,27.104 L2.43845737,27.061 L2.48245737,26.991 L2.55945737,26.9 L2.67845737,26.787 L2.83445737,26.661 L3.02745737,26.528 L3.26045737,26.388 L3.52645737,26.244 L3.82645737,26.098 L4.16145737,25.95 L4.52545737,25.802 L4.91845737,25.654 L5.33645737,25.508 L6.26845737,25.21 L7.29945737,24.918 L8.42945737,24.63 L9.64345737,24.346 L10.9414574,24.067 L12.3194574,23.794 L13.7634574,23.525 L15.2724574,23.263 L16.8404574,23.006 L18.4814574,22.757 L20.1214574,22.508 L21.8444574,22.272 L23.5684574,22.035 L25.3484574,21.811 L27.1304574,21.587 L28.9414574,21.375 L30.7534574,21.163 L32.5754574,20.964 L34.3984574,20.765 L36.2044574,20.58 L38.0124574,20.394 L39.7944574,20.218 L41.5524574,20.049 L43.2784574,19.887 L44.9704574,19.731 L46.6194574,19.583 L48.2194574,19.442 L49.7674574,19.307 L51.2554574,19.18 L52.6744574,19.06 L54.0274574,18.947 L55.3004574,18.841 L56.4884574,18.743 L57.0514574,18.697 L57.5904574,18.652 L58.1054574,18.61 L58.5964574,18.569 L59.0634574,18.53 L59.5024574,18.493 L59.9174574,18.458 L60.3044574,18.425 L60.6624574,18.394 L60.9934574,18.365 L61.2954574,18.337 L61.5694574,18.311 L63.1644574,18.15 L64.7984574,17.966 L66.4674574,17.762 L68.1674574,17.54 L69.9014574,17.298 L71.6664574,17.04 L73.4614574,16.765 L75.2864574,16.475 L77.1414574,16.169 L79.0224574,15.851 L80.9314574,15.519 L82.8674574,15.175 L83.8554574,14.995 L84.8394574,14.816 L85.8244574,14.636 L86.8114574,14.456 L87.8234574,14.267 L88.8334574,14.078 L89.8424574,13.889 L90.8544574,13.699 L91.8874574,13.502 L92.9204574,13.306 L93.9534574,13.109 L94.9874574,12.912 L96.0394574,12.71 L97.0924574,12.508 L98.1444574,12.306 L99.1964574,12.104 L100.268457,11.898 L101.340457,11.692 L102.412457,11.486 L103.483457,11.28 L104.572457,11.071 L105.661457,10.863 L106.751457,10.655 L107.839457,10.447 L108.942457,10.238 L110.046457,10.03 L111.150457,9.822 L112.252457,9.614 L113.369457,9.407 L114.487457,9.2 L115.605457,8.993 L116.721457,8.787 L117.849457,8.584 L118.980457,8.381 L120.110457,8.177 L121.238457,7.974 L122.375457,7.776 L123.515457,7.577 L124.655457,7.378 L125.792457,7.18 L126.937457,6.989 L128.086457,6.797 L129.235457,6.606 L130.380457,6.415 L131.532457,6.233 L132.687457,6.05 L133.842457,5.867 L134.994457,5.685 L136.150457,5.513 L137.310457,5.34 L138.470457,5.167 L139.626457,4.995 L140.784457,4.835 L141.948457,4.674 L143.111457,4.514 L144.269457,4.354 L145.429457,4.209 L146.594457,4.063 L147.759457,3.918 L148.918457,3.772 L150.077457,3.642 L151.242457,3.511 L152.406457,3.38 L153.564457,3.25 L154.720457,3.137 L155.883457,3.024 L157.045457,2.911 L158.200457,2.799 L159.352457,2.707 L160.510457,2.614 L161.669457,2.521 L162.822457,2.429 L163.971457,2.351 L165.122457,2.274 L166.269457,2.208 L167.416457,2.141 L168.560457,2.087 L169.703457,2.033 L170.843457,1.989 L171.982457,1.946 L173.116457,1.916 L174.251457,1.885 L175.379457,1.868 L176.509457,1.851 L177.633457,1.846 L178.756457,1.841 L179.874457,1.85 L180.991457,1.859 L182.102457,1.883 L183.213457,1.907 L184.318457,1.945 L185.422457,1.983 L186.518457,2.036 L187.615457,2.089 L188.703457,2.158 L189.792457,2.227 L190.873457,2.311 L191.953457,2.395 L193.025457,2.496 L194.096457,2.597 L195.158457,2.715 L196.221457,2.833 L197.274457,2.967 L198.327457,3.101 L199.370457,3.253 L200.412457,3.405 L201.444457,3.577 L202.476457,3.748 L203.498457,3.937 L204.519457,4.125 L205.529457,4.333 L206.538457,4.541 L207.535457,4.769 L208.533457,4.997 L209.520457,5.243 L210.505457,5.489 L211.477457,5.756 L212.449457,6.023 L213.408457,6.311 L214.368457,6.6 L215.315457,6.908 L216.261457,7.215 L217.193457,7.545 L218.120457,7.873 L219.958457,8.581 L221.764457,9.328 L223.537457,10.122 L225.279457,10.964 L226.990457,11.849 L228.667457,12.783 L230.309457,13.768 L231.920457,14.799 L233.492457,15.882 L235.027457,17.019 L236.528457,18.206 L237.988457,19.446 L239.410457,20.742 L240.795457,22.09 L242.138457,23.494 L243.443457,24.963 L244.072457,25.719 L244.702457,26.477 L245.312457,27.265 L245.921457,28.054 L246.508457,28.873 L247.096457,29.693 L247.665457,30.542 L248.232457,31.389 L248.777457,32.268 L249.322457,33.147 L249.843457,34.059 L250.363457,34.968 L250.962457,36.11 L251.542457,37.331 L252.104457,38.639 L252.649457,40.02 L253.175457,41.48 L253.682457,43.018 L254.172457,44.625 L254.645457,46.303 L255.100457,48.054 L255.537457,49.867 L255.954457,51.75 L256.152457,52.719 L256.351457,53.692 L256.541457,54.694 L256.730457,55.696 L256.910457,56.728 L257.090457,57.76 L257.260457,58.822 L257.430457,59.884 L257.591457,60.973 L257.752457,62.061 L257.903457,63.176 L258.054457,64.292 L258.195457,65.434 L258.336457,66.578 L258.469457,67.744 L258.601457,68.91 L258.723457,70.101 L258.846457,71.292 L258.958457,72.507 L259.071457,73.722 L259.175457,74.959 L259.278457,76.195 L259.372457,77.453 L259.466457,78.711 L259.550457,79.99 L259.634457,81.269 L259.709457,82.567 L259.784457,83.865 L259.850457,85.181 L259.915457,86.498 L259.970457,87.833 L260.026457,89.169 L260.073457,90.52 L260.120457,91.871 L260.157457,93.238 L260.194457,94.606 L260.221457,95.988 L260.249457,97.372 L260.267457,98.768 L260.286457,100.164 L260.294457,101.574 L260.303457,102.984 L260.302457,104.406 L260.301457,105.829 L260.292457,107.262 L260.282457,108.696 L260.262457,110.14 L260.243457,111.584 L260.215457,113.038 L260.186457,114.49 L260.145457,115.955 L260.103457,117.424 L260.061457,118.894 L260.020457,120.356 L259.959457,121.832 L259.899457,123.316 L259.838457,124.8 L259.778457,126.276 L259.699457,127.763 L259.619457,129.258 L259.540457,130.752 L259.461457,132.239 L259.365457,133.733 L259.269457,135.234 L259.172457,136.734 L259.076457,138.227 L258.962457,139.723 L258.847457,141.227 L258.732457,142.731 L258.617457,144.227 L258.485457,145.723 L258.351457,147.226 L258.218457,148.728 L258.085457,150.226 L257.939457,151.722 L257.793457,153.218 L257.638457,154.712 L257.483457,156.205 L257.318457,157.695 L257.154457,159.185 L256.981457,160.67 L256.808457,162.155 L256.626457,163.634 L256.444457,165.113 L256.253457,166.585 L256.063457,168.058 L255.863457,169.523 L255.664457,170.988 L255.456457,172.445 L255.248457,173.901 L255.031457,175.348 L254.814457,176.795 L254.589457,178.233 L254.364457,179.67 L254.130457,181.096 L253.896457,182.522 L253.653457,183.935 L253.410457,185.349 L253.159457,186.75 L252.908457,188.151 L252.648457,189.538 L252.389457,190.925 L252.120457,192.297 L251.851457,193.669 L251.575457,195.026 L251.298457,196.383 L251.013457,197.723 L250.728457,199.062 L250.434457,200.384 L250.140457,201.706 L249.838457,203.011 L249.537457,204.316 L249.226457,205.6 L248.916457,206.885 L248.597457,208.149 L248.279457,209.413 L247.952457,210.657 L247.626457,211.901 L247.291457,213.122 L246.956457,214.343 L246.613457,215.541 L246.270457,216.739 L245.919457,217.914 L245.568457,219.089 L245.209457,220.239 L244.850457,221.388 L244.483457,222.511 L244.116457,223.634 L243.741457,224.733 L243.366457,225.83 L242.983457,226.9 L242.601457,227.969 L242.210457,229.009 L241.819457,230.05 L241.421457,231.063 L241.023457,232.075 L240.617457,233.056 L240.211457,234.036 L239.798457,234.985 L239.384457,235.934 L238.963457,236.854 L238.544457,237.767 L237.687457,239.539 L236.815457,241.237 L235.930457,242.869 L235.032457,244.426 L234.120457,245.907 L233.195457,247.317 L232.258457,248.645 L231.308457,249.892 L230.347457,251.063 L229.377457,252.146 L228.384457,253.155 L227.901457,253.613 L227.406457,254.058 L226.907457,254.481 L226.407457,254.884 L225.906457,255.263 L225.408457,255.616 L224.614457,256.139 L223.765457,256.652 L222.852457,257.16 L221.884457,257.662 L220.859457,258.157 L219.775457,258.645 L218.640457,259.125 L217.452457,259.598 L216.209457,260.062 L214.920457,260.518 L213.581457,260.966 L212.192457,261.404 L210.761457,261.835 L209.284457,262.255 L207.761457,262.667 L206.199457,263.071 L204.596457,263.464 L202.951457,263.849 L201.271457,264.224 L199.553457,264.59 L197.798457,264.945 L196.010457,265.292 L194.188457,265.629 L192.334457,265.956 L190.450457,266.274 L188.537457,266.581 L186.594457,266.879 L184.624457,267.167 L183.629457,267.306 L182.632457,267.445 L181.622457,267.578 L180.614457,267.712 L179.590457,267.838 L178.560457,267.966 L177.530457,268.093 L176.508457,268.219 L175.465457,268.335 L174.414457,268.452 L173.362457,268.569 L172.319457,268.685 L171.257457,268.791 L170.187457,268.898 L169.117457,269.004 L168.054457,269.11 L166.977457,269.207 L165.892457,269.304 L164.807457,269.401 L163.730457,269.498 L162.639457,269.583 L161.541457,269.67 L160.442457,269.756 L159.351457,269.842 L158.249457,269.918 L157.139457,269.993 L156.030457,270.069 L154.927457,270.144 L153.816457,270.21 L152.698457,270.276 L151.581457,270.342 L150.470457,270.407 L149.354457,270.462 L148.230457,270.517 L147.106457,270.572 L145.990457,270.627 L144.869457,270.671 L143.742457,270.715 L142.615457,270.76 L141.494457,270.803 L140.372457,270.837 L139.243457,270.872 L138.115457,270.906 L136.993457,270.94 L135.873457,270.963 L134.746457,270.986 L133.619457,271.01 L132.499457,271.033 L131.383457,271.045 L130.260457,271.057 L129.136457,271.07 L128.020457,271.082 L126.909457,271.084 L125.791457,271.086 L124.674457,271.088 L123.564457,271.09 L122.462457,271.081 L121.354457,271.072 L120.245457,271.063 L119.144457,271.054 L118.054457,271.033 L116.957457,271.013 L115.859457,270.992 L114.767457,270.972 L113.684457,270.944 L112.600457,270.916 L111.524457,270.882 L110.447457,270.849 L109.379457,270.809 L108.310457,270.77 L107.250457,270.725 L106.189457,270.681 L105.138457,270.63 L104.088457,270.58 L103.047457,270.524 L102.006457,270.468 L100.975457,270.406 L99.9444574,270.345 L98.9254574,270.278 L97.9064574,270.211 L96.8994574,270.138 L95.8914574,270.065 L94.8954574,269.986 L93.9014574,269.908 L91.9354574,269.74 L89.9984574,269.56 L88.0874574,269.37 L86.2084574,269.168 L84.3594574,268.954 L82.5424574,268.73 L80.7594574,268.493 L79.0114574,268.242 L77.2974574,267.981 L75.6234574,267.708 L73.9874574,267.423 L72.3894574,267.127 L70.8344574,266.82 L69.3224574,266.501 L67.8514574,266.172 L66.4274574,265.831 L65.0504574,265.479 L63.7194574,265.116 L62.4394574,264.741 L61.2114574,264.353 L60.0324574,263.955 L58.9104574,263.548 L57.8434574,263.129 L56.8294574,262.702 L55.8784574,262.266 L54.9824574,261.819 L54.1754574,261.387 L53.3824574,260.934 L52.6044574,260.46 L51.8394574,259.969 L51.0924574,259.46 L50.3574574,258.931 L49.6364574,258.384 L48.9324574,257.82 L48.2404574,257.235 L47.5614574,256.634 L46.8974574,256.016 L46.2574574,255.391 L44.9784574,254.053 L43.7674574,252.659 L42.6054574,251.19 L41.4904574,249.658 L40.4194574,248.051 L39.9174574,247.227 L39.4074574,246.392 L38.9204574,245.526 L38.4334574,244.663 L37.9704574,243.768 L37.5064574,242.871 L37.0654574,241.945 L36.6224574,241.015 L36.1994574,240.058 L35.7774574,239.102 L35.3774574,238.117 L34.9774574,237.131 L34.5984574,236.116 L34.2184574,235.098 L33.8574574,234.055 L33.4964574,233.013 L33.1564574,231.944 L32.8154574,230.874 L32.4944574,229.778 L32.1724574,228.679 L31.8684574,227.557 L31.5644574,226.436 L31.2794574,225.29 L30.9934574,224.143 L30.7254574,222.972 L30.4564574,221.799 L30.2044574,220.605 L29.9514574,219.412 L29.7154574,218.196 L29.4804574,216.98 L29.2604574,215.741 L29.0404574,214.501 L28.8344574,213.242 L28.6284574,211.984 L28.4374574,210.705 L28.2464574,209.426 L28.0694574,208.128 L27.8924574,206.828 L27.7274574,205.511 L27.5624574,204.195 L27.4104574,202.86 L27.2584574,201.526 L27.1194574,200.174 L26.9794574,198.821 L26.8504574,197.454 L26.7214574,196.086 L26.6044574,194.703 L26.4864574,193.32 L26.3794574,191.922 L26.2724574,190.526 L26.1784574,189.112 L26.0834574,187.688 L25.9874574,186.265 L25.8934574,184.853 L25.8164574,183.416 L25.7394574,181.968 L25.6614574,180.52 L25.5844574,179.082 L25.5214574,177.622 L25.4584574,176.153 L25.3954574,174.684 L25.3334574,173.222 L25.2814574,171.743 L25.2294574,170.258 L25.1784574,168.772 L25.1264574,167.293 L25.0844574,165.798 L25.0424574,164.297 L25.0004574,162.796 L24.9584574,161.3 L24.9234574,159.792 L24.8874574,158.279 L24.8524574,156.767 L24.8174574,155.257 L24.7864574,153.738 L24.7554574,152.218 L24.7244574,150.697 L24.6934574,149.178 L24.6644574,147.653 L24.6354574,146.127 L24.6064574,144.6 L24.5774574,143.074 L24.5474574,141.545 L24.5184574,140.016 L24.4884574,138.487 L24.4584574,136.957 L24.4254574,135.427 L24.3934574,133.898 L24.3594574,132.37 L24.3264574,130.839 L24.2884574,129.31 L24.2494574,127.786 L24.2104574,126.261 L24.1714574,124.731 L24.1244574,123.208 L24.0774574,121.691 L24.0304574,120.173 L23.9824574,118.651 L23.9284574,117.135 L23.8744574,115.62 L23.8134574,114.11 L23.7524574,112.601 L23.6854574,111.097 L23.6174574,109.594 L23.5434574,108.097 L23.4694574,106.6 L23.3864574,105.11 L23.3044574,103.62 L23.2134574,102.139 L23.1224574,100.658 L23.0224574,99.186 L22.9234574,97.713 L22.8134574,96.25 L22.7044574,94.786 L22.5844574,93.334 L22.4644574,91.882 L22.3334574,90.441 L22.2034574,88.998 L22.0604574,87.569 L21.9184574,86.138 L21.7634574,84.722 L21.6084574,83.305 L21.4414574,81.901 L21.2734574,80.497 L21.0934574,79.107 L20.9114574,77.716 L20.7164574,76.341 L20.5204574,74.967 L20.3104574,73.608 L20.1014574,72.247 L19.8754574,70.903 L19.6494574,69.559 L19.4074574,68.233 L19.1654574,66.907 L18.9074574,65.599 L18.6494574,64.288 L18.3734574,62.997 L18.0964574,61.706 L17.8024574,60.435 L17.5074574,59.165 L17.1954574,57.913 L16.8824574,56.66 L16.5504574,55.429 L16.2174574,54.197 L15.8644574,52.987 L15.5104574,51.779 L15.1384574,50.591 L14.7644574,49.402 L14.3694574,48.236 L13.9734574,47.07 L13.5554574,45.928 L13.1374574,44.788 L12.6984574,43.672 L12.2574574,42.552 L11.7934574,41.459 L11.3284574,40.366 L10.8384574,39.299 L10.3494574,38.234 L9.83645737,37.195 L9.32245737,36.153 L8.78245737,35.139 L8.24145737,34.125 L7.67345737,33.141 L7.10545737,32.158 L6.51345737,31.204 L5.91945737,30.246 L5.29645737,29.319 L4.67245737,28.392 L4.02045737,27.497 L3.38845737,26.632 C2.77745737,25.796 1.60445737,25.614 0.768457369,26.225 C-0.0675426315,26.836 -0.249542631,28.009 0.361457369,28.845 Z" id="Fill-136"></path>
        </g>
    </g>
</svg>
