<?xml version="1.0" encoding="UTF-8"?>
<svg width="424px" height="170px" viewBox="0 0 424 170" version="1.1" xmlns="http://www.w3.org/2000/svg" xmlns:xlink="http://www.w3.org/1999/xlink">
    <title>31</title>
    <g id="Page-1" stroke="none" stroke-width="1" fill="none" fill-rule="evenodd">
        <g id="31" transform="translate(0.343000, 0.344000)" fill="currentColor">
            <path d="M238.189,142.708 C196.963,67.292 403.413,132.598 375.668,67.744 C320.788,-60.535 -150.327,93.135 141.69,93.135 C162.059,93.135 181.959,97.972 202.498,97.972" id="Fill-128"></path>
            <path d="M239.842,141.823 L239.224,140.672 L238.656,139.562 L238.128,138.475 L237.637,137.412 L237.186,136.375 L236.774,135.36 L236.397,134.369 L236.059,133.404 L235.759,132.461 L235.492,131.541 L235.262,130.647 L235.067,129.775 L234.904,128.924 L234.776,128.1 L234.682,127.296 L234.617,126.514 L234.584,125.757 L234.583,125.02 L234.61,124.302 L234.667,123.609 L234.753,122.933 L234.865,122.275 L235.005,121.64 L235.173,121.02 L235.366,120.415 L235.584,119.831 L235.831,119.258 L236.102,118.699 L236.397,118.158 L236.721,117.627 L237.069,117.108 L237.442,116.604 L237.843,116.11 L238.269,115.625 L238.719,115.155 L239.198,114.694 L239.701,114.243 L240.229,113.805 L240.785,113.375 L241.365,112.956 L241.969,112.549 L242.601,112.152 L243.256,111.765 L243.934,111.389 L244.638,111.024 L245.365,110.668 L246.114,110.323 L246.888,109.989 L247.682,109.664 L248.498,109.351 L249.337,109.047 L250.196,108.753 L251.075,108.47 L251.963,108.199 L253.841,107.672 L254.797,107.434 L255.763,107.193 L256.764,106.971 L257.769,106.748 L258.803,106.542 L259.838,106.335 L260.903,106.147 L261.971,105.957 L263.067,105.785 L264.167,105.611 L265.292,105.453 L266.416,105.294 L267.567,105.15 L268.719,105.005 L269.895,104.875 L271.074,104.744 L272.273,104.625 L273.472,104.507 L274.692,104.4 L275.913,104.293 L277.153,104.197 L278.395,104.101 L279.652,104.014 L280.91,103.927 L282.184,103.849 L283.458,103.772 L284.747,103.702 L286.037,103.633 L287.338,103.57 L288.64,103.507 L289.952,103.451 L291.265,103.395 L292.587,103.343 L293.91,103.292 L295.239,103.245 L296.569,103.198 L297.905,103.155 L299.241,103.111 L300.582,103.071 L301.923,103.03 L303.265,102.991 L304.609,102.952 L305.953,102.914 L307.296,102.875 L308.64,102.836 L309.984,102.798 L311.328,102.759 L312.677,102.72 L314.009,102.674 L315.336,102.628 L316.664,102.582 L317.991,102.536 L319.318,102.49 L320.645,102.443 L321.972,102.397 L323.316,102.351 L324.615,102.28 L325.896,102.21 L327.177,102.14 L328.458,102.07 L329.739,102 L331.02,101.931 L332.301,101.861 L333.597,101.79 L334.855,101.698 L336.107,101.607 L337.339,101.506 L338.573,101.404 L339.784,101.291 L340.996,101.178 L342.187,101.054 L343.38,100.929 L344.549,100.791 L345.718,100.652 L346.862,100.5 L348.005,100.347 L349.123,100.179 L350.243,100.012 L351.334,99.828 L352.426,99.643 L353.487,99.441 L354.547,99.24 L355.578,99.021 L356.612,98.802 L357.612,98.563 L358.621,98.321 L360.543,97.803 L362.408,97.242 L364.201,96.632 L365.899,95.98 L366.742,95.627 L367.552,95.265 L368.34,94.89 L369.108,94.502 L369.855,94.098 L370.579,93.68 L371.282,93.247 L371.964,92.797 L372.62,92.332 L373.253,91.851 L373.864,91.351 L374.447,90.835 L375.006,90.301 L375.539,89.747 L376.041,89.176 L376.518,88.587 L376.966,87.977 L377.382,87.35 L377.77,86.705 L378.126,86.038 L378.448,85.356 L378.738,84.657 L378.995,83.935 L379.216,83.2 L379.404,82.448 L379.556,81.675 L379.672,80.889 L379.753,80.088 L379.798,79.268 L379.806,78.434 L379.78,77.585 L379.717,76.717 L379.616,75.836 L379.48,74.94 L379.307,74.024 L379.096,73.094 L378.85,72.148 L378.566,71.183 L378.244,70.202 L377.887,69.204 L377.491,68.186 L377.054,67.146 L376.596,66.137 L376.135,65.122 L375.638,64.131 L375.142,63.14 L374.611,62.173 L374.083,61.208 L373.525,60.263 L372.966,59.317 L372.373,58.394 L371.78,57.472 L371.154,56.573 L370.53,55.676 L369.876,54.8 L369.221,53.923 L368.534,53.069 L367.847,52.215 L367.129,51.384 L366.413,50.555 L365.669,49.746 L364.925,48.935 L364.151,48.146 L363.377,47.357 L362.574,46.591 L361.772,45.827 L360.944,45.082 L360.115,44.337 L359.257,43.613 L358.399,42.89 L357.513,42.188 L356.63,41.487 L355.721,40.807 L354.811,40.125 L353.874,39.464 L352.938,38.804 L351.975,38.165 L351.015,37.527 L350.03,36.908 L349.045,36.288 L348.034,35.688 L347.024,35.09 L345.989,34.511 L344.956,33.933 L343.901,33.374 L342.845,32.814 L341.765,32.274 L340.686,31.734 L339.583,31.214 L338.482,30.695 L337.361,30.193 L336.239,29.691 L335.095,29.209 L333.951,28.726 L332.785,28.263 L331.621,27.8 L330.438,27.354 L329.255,26.908 L328.05,26.481 L326.846,26.054 L325.622,25.646 L324.4,25.238 L323.159,24.846 L321.918,24.455 L320.658,24.081 L319.399,23.708 L318.121,23.352 L316.844,22.996 L315.551,22.657 L314.258,22.317 L312.947,21.995 L311.636,21.673 L310.309,21.368 L308.982,21.064 L307.641,20.775 L306.299,20.485 L304.942,20.213 L303.584,19.94 L302.212,19.684 L300.84,19.429 L299.455,19.189 L298.069,18.949 L296.669,18.725 L295.27,18.501 L293.856,18.293 L292.444,18.086 L291.019,17.892 L289.594,17.699 L288.157,17.521 L286.719,17.343 L285.269,17.181 L283.821,17.018 L282.361,16.87 L280.901,16.721 L279.43,16.588 L277.959,16.454 L276.478,16.335 L274.997,16.217 L273.507,16.111 L272.017,16.006 L270.517,15.915 L269.017,15.825 L267.508,15.748 L266,15.672 L264.484,15.608 L262.967,15.545 L261.442,15.495 L259.918,15.445 L258.386,15.409 L256.855,15.373 L255.317,15.35 L253.779,15.326 L252.234,15.316 L250.69,15.306 L249.139,15.309 L247.589,15.312 L246.034,15.327 L244.479,15.341 L242.919,15.369 L241.359,15.396 L239.794,15.436 L238.23,15.475 L236.662,15.526 L235.094,15.577 L233.523,15.64 L231.951,15.703 L230.377,15.778 L228.803,15.853 L227.227,15.939 L225.651,16.024 L224.073,16.121 L222.495,16.218 L220.915,16.327 L219.334,16.435 L217.752,16.559 L216.176,16.682 L214.6,16.805 L213.016,16.929 L211.432,17.074 L209.856,17.219 L208.28,17.363 L206.696,17.509 L205.115,17.675 L203.541,17.84 L201.968,18.005 L200.388,18.171 L198.811,18.355 L197.242,18.537 L195.672,18.72 L194.095,18.904 L192.525,19.107 L190.962,19.309 L189.399,19.511 L187.828,19.714 L186.266,19.935 L184.712,20.155 L183.157,20.375 L181.596,20.596 L180.045,20.833 L178.5,21.069 L176.955,21.305 L175.404,21.542 L173.864,21.797 L172.332,22.049 L170.799,22.301 L169.26,22.554 L167.735,22.824 L166.218,23.092 L164.7,23.36 L163.176,23.629 L161.668,23.912 L160.165,24.194 L158.663,24.476 L157.154,24.759 L155.663,25.057 L154.179,25.353 L152.696,25.65 L151.205,25.948 L149.736,26.259 L148.273,26.57 L146.81,26.88 L145.343,27.191 L143.891,27.512 L142.44,27.832 L141.002,28.158 L139.563,28.484 L138.137,28.817 L136.711,29.149 L135.297,29.487 L133.882,29.825 L132.481,30.169 L131.081,30.512 L129.694,30.861 L128.307,31.21 L126.933,31.563 L125.56,31.917 L124.201,32.276 L122.842,32.634 L121.499,32.998 L120.156,33.362 L118.828,33.73 L117.499,34.098 L116.187,34.471 L114.875,34.844 L113.58,35.221 L112.285,35.598 L111.006,35.979 L109.727,36.36 L108.466,36.745 L107.205,37.13 L105.963,37.519 L104.721,37.908 L103.496,38.3 L102.272,38.693 L101.066,39.089 L99.861,39.485 L98.676,39.884 L97.491,40.283 L96.325,40.685 L95.158,41.088 L94.013,41.493 L92.868,41.898 L91.744,42.306 L90.621,42.714 L89.518,43.124 L88.414,43.536 L87.335,43.952 L86.255,44.368 L85.199,44.786 L84.143,45.204 L83.108,45.623 L82.073,46.043 L81.062,46.465 L80.052,46.887 L79.066,47.31 L78.08,47.733 L77.117,48.157 L76.154,48.582 L75.217,49.008 L74.278,49.437 L72.46,50.293 L70.688,51.151 L68.969,52.011 L67.307,52.872 L65.696,53.733 L64.142,54.596 L62.646,55.458 L61.204,56.318 L59.82,57.178 L58.499,58.037 L57.234,58.895 L56.032,59.753 L54.894,60.61 L53.815,61.465 L52.801,62.32 L51.855,63.172 L50.97,64.024 L50.153,64.875 L49.406,65.724 L48.724,66.573 L48.113,67.424 L47.578,68.274 L47.111,69.125 L46.721,69.98 L46.413,70.834 L46.181,71.689 L46.034,72.548 L45.978,73.401 L46.006,74.25 L46.129,75.095 L46.346,75.923 L46.649,76.735 L47.047,77.533 L47.534,78.306 L48.103,79.059 L48.764,79.794 L49.512,80.505 L50.34,81.198 L51.259,81.873 L52.257,82.522 L52.802,82.849 L53.36,83.166 L53.94,83.479 L54.542,83.787 L55.168,84.091 L55.816,84.391 L56.486,84.687 L57.18,84.979 L57.898,85.266 L58.637,85.549 L59.401,85.828 L60.189,86.103 L61,86.375 L61.835,86.642 L62.695,86.904 L63.577,87.163 L64.485,87.417 L65.418,87.667 L66.375,87.913 L67.357,88.155 L68.364,88.391 L69.395,88.624 L70.453,88.853 L71.536,89.076 L72.643,89.296 L73.777,89.511 L74.937,89.721 L76.122,89.928 L77.333,90.129 L78.572,90.326 L79.835,90.518 L81.125,90.706 L82.443,90.888 L83.786,91.066 L85.157,91.239 L86.556,91.407 L87.979,91.57 L89.432,91.728 L90.912,91.881 L92.418,92.029 L93.953,92.172 L95.516,92.31 L97.106,92.442 L98.725,92.569 L100.372,92.691 L102.046,92.808 L103.75,92.919 L105.482,93.024 L107.242,93.125 L109.032,93.22 L110.851,93.309 L112.698,93.392 L114.575,93.47 L116.482,93.542 L118.416,93.609 L120.382,93.671 L122.377,93.726 L123.389,93.751 L124.401,93.776 L125.428,93.798 L126.456,93.82 L127.499,93.838 L128.542,93.857 L129.599,93.873 L130.656,93.889 L131.729,93.902 L132.801,93.915 L133.89,93.925 L134.978,93.935 L136.081,93.942 L137.184,93.949 L138.302,93.953 L139.421,93.956 L140.556,93.957 L141.686,93.958 L142.955,93.968 L144.219,93.979 L145.481,94.013 L146.743,94.047 L148.004,94.103 L149.266,94.158 L150.527,94.232 L151.787,94.305 L153.046,94.396 L154.306,94.487 L155.564,94.592 L156.824,94.698 L158.082,94.816 L159.341,94.934 L160.6,95.062 L161.858,95.191 L163.117,95.328 L164.376,95.465 L165.635,95.608 L166.894,95.752 L168.154,95.899 L169.414,96.047 L170.674,96.197 L171.937,96.347 L173.201,96.492 L174.463,96.638 L175.726,96.783 L176.988,96.929 L178.251,97.074 L179.513,97.219 L180.776,97.365 L182.049,97.511 L183.327,97.625 L184.595,97.737 L185.864,97.85 L187.132,97.962 L188.4,98.074 L189.668,98.187 L190.936,98.299 L192.226,98.413 L193.526,98.456 L194.804,98.497 L196.082,98.539 L197.36,98.58 L198.638,98.622 L199.916,98.663 L201.194,98.705 L202.472,98.746 C202.9,98.76 203.258,98.425 203.272,97.997 C203.287,97.57 202.951,97.211 202.524,97.197 L201.246,97.154 L199.968,97.11 L198.69,97.067 L197.412,97.023 L196.134,96.98 L194.856,96.936 L193.578,96.893 L192.322,96.85 L191.076,96.737 L189.808,96.623 L188.54,96.509 L187.272,96.394 L186.004,96.28 L184.736,96.166 L183.468,96.051 L182.21,95.938 L180.958,95.792 L179.696,95.644 L178.434,95.497 L177.172,95.35 L175.909,95.202 L174.647,95.055 L173.385,94.907 L172.124,94.76 L170.864,94.609 L169.603,94.457 L168.342,94.307 L167.08,94.157 L165.818,94.011 L164.555,93.866 L163.293,93.726 L162.029,93.587 L160.765,93.455 L159.5,93.324 L158.234,93.204 L156.968,93.084 L155.701,92.975 L154.433,92.867 L153.164,92.773 L151.894,92.68 L150.623,92.604 L149.351,92.528 L148.078,92.469 L146.803,92.411 L145.527,92.375 L144.249,92.338 L142.969,92.325 L141.694,92.313 L140.558,92.311 L139.425,92.308 L138.309,92.303 L137.193,92.297 L136.093,92.288 L134.992,92.28 L133.906,92.268 L132.82,92.257 L131.75,92.242 L130.68,92.227 L129.625,92.209 L128.571,92.191 L127.53,92.171 L126.49,92.15 L125.466,92.126 L124.441,92.103 L123.432,92.076 L122.423,92.049 L120.433,91.99 L118.473,91.925 L116.545,91.855 L114.644,91.778 L112.774,91.695 L110.934,91.607 L109.121,91.514 L107.339,91.414 L105.586,91.31 L103.86,91.2 L102.165,91.085 L100.498,90.964 L98.859,90.839 L97.249,90.708 L95.667,90.572 L94.113,90.431 L92.587,90.285 L91.09,90.134 L89.62,89.978 L88.178,89.817 L86.764,89.651 L85.376,89.481 L84.016,89.306 L82.684,89.126 L81.378,88.942 L80.1,88.752 L78.849,88.559 L77.623,88.361 L76.425,88.158 L75.254,87.951 L74.108,87.74 L72.99,87.524 L71.898,87.304 L70.83,87.08 L69.79,86.852 L68.776,86.619 L67.786,86.383 L66.823,86.143 L65.886,85.898 L64.972,85.651 L64.086,85.399 L63.225,85.144 L62.387,84.885 L61.576,84.623 L60.79,84.357 L60.027,84.087 L59.29,83.815 L58.578,83.539 L57.889,83.26 L57.226,82.978 L56.587,82.693 L55.971,82.405 L55.381,82.115 L54.814,81.822 L54.271,81.526 L53.752,81.229 L53.266,80.935 L52.333,80.323 L51.507,79.712 L50.774,79.093 L50.126,78.472 L49.571,77.85 L49.102,77.224 L48.711,76.598 L48.404,75.976 L48.174,75.347 L48.012,74.717 L47.924,74.084 L47.906,73.438 L47.952,72.78 L48.07,72.112 L48.261,71.423 L48.519,70.72 L48.85,70.004 L49.258,69.27 L49.734,68.523 L50.284,67.766 L50.91,66.995 L51.602,66.215 L52.367,65.428 L53.205,64.632 L54.107,63.829 L55.078,63.022 L56.119,62.208 L57.222,61.389 L58.39,60.568 L59.624,59.742 L60.916,58.914 L62.271,58.084 L63.688,57.252 L65.162,56.42 L66.695,55.588 L68.287,54.756 L69.932,53.924 L71.632,53.093 L73.389,52.263 L75.196,51.433 L76.124,51.02 L77.052,50.606 L78.007,50.192 L78.962,49.778 L79.94,49.365 L80.918,48.952 L81.921,48.541 L82.924,48.13 L83.952,47.721 L84.979,47.311 L86.029,46.903 L87.078,46.496 L88.151,46.09 L89.224,45.684 L90.318,45.279 L91.413,44.873 L92.528,44.469 L93.643,44.064 L94.78,43.663 L95.917,43.261 L97.075,42.863 L98.233,42.464 L99.411,42.068 L100.588,41.672 L101.785,41.279 L102.982,40.886 L104.2,40.497 L105.417,40.108 L106.652,39.722 L107.887,39.335 L109.14,38.953 L110.394,38.571 L111.665,38.193 L112.937,37.814 L114.225,37.44 L115.513,37.066 L116.818,36.695 L118.123,36.326 L119.445,35.96 L120.767,35.595 L122.104,35.234 L123.44,34.873 L124.792,34.517 L126.144,34.161 L127.511,33.811 L128.878,33.46 L130.259,33.114 L131.639,32.768 L133.034,32.429 L134.429,32.089 L135.837,31.755 L137.245,31.421 L138.665,31.093 L140.085,30.764 L141.518,30.442 L142.95,30.119 L144.395,29.803 L145.838,29.487 L147.296,29.18 L148.76,28.873 L150.223,28.565 L151.679,28.258 L153.157,27.966 L154.641,27.672 L156.125,27.378 L157.602,27.085 L159.098,26.807 L160.601,26.527 L162.104,26.248 L163.601,25.97 L165.112,25.705 L166.631,25.44 L168.149,25.175 L169.66,24.91 L171.186,24.662 L172.718,24.413 L174.251,24.164 L175.777,23.917 L177.316,23.687 L178.861,23.455 L180.407,23.224 L181.946,22.993 L183.494,22.779 L185.049,22.563 L186.604,22.348 L188.152,22.134 L189.708,21.938 L191.272,21.741 L192.835,21.544 L194.391,21.348 L195.954,21.172 L197.524,20.994 L199.094,20.816 L200.656,20.639 L202.223,20.481 L203.797,20.322 L205.371,20.163 L206.937,20.005 L208.505,19.867 L210.081,19.729 L211.658,19.59 L213.225,19.452 L214.793,19.336 L216.37,19.219 L217.946,19.102 L219.516,18.986 L221.086,18.884 L222.657,18.783 L224.226,18.692 L225.795,18.602 L227.363,18.523 L228.93,18.444 L230.496,18.376 L232.061,18.308 L233.622,18.251 L235.184,18.195 L236.742,18.15 L238.301,18.106 L239.856,18.072 L241.41,18.039 L242.96,18.018 L244.51,17.997 L246.054,17.988 L247.599,17.98 L249.139,17.983 L250.678,17.986 L252.211,18.002 L253.744,18.018 L255.271,18.048 L256.798,18.077 L258.318,18.118 L259.837,18.159 L261.349,18.213 L262.861,18.267 L264.365,18.335 L265.869,18.403 L267.365,18.484 L268.86,18.564 L270.347,18.659 L271.833,18.753 L273.309,18.862 L274.786,18.97 L276.253,19.092 L277.72,19.213 L279.176,19.35 L280.631,19.486 L282.076,19.637 L283.521,19.788 L284.955,19.952 L286.388,20.117 L287.809,20.297 L289.23,20.476 L290.638,20.671 L292.047,20.867 L293.443,21.076 L294.839,21.285 L296.22,21.51 L297.602,21.734 L298.969,21.975 L300.336,22.216 L301.69,22.471 L303.043,22.725 L304.381,22.996 L305.718,23.267 L307.04,23.554 L308.362,23.841 L309.669,24.143 L310.975,24.445 L312.264,24.764 L313.553,25.083 L314.824,25.419 L316.096,25.755 L317.352,26.106 L318.606,26.457 L319.842,26.826 L321.078,27.194 L322.294,27.58 L323.512,27.966 L324.711,28.368 L325.91,28.77 L327.088,29.19 L328.266,29.609 L329.423,30.046 L330.581,30.484 L331.72,30.938 L332.858,31.391 L333.974,31.863 L335.09,32.334 L336.183,32.824 L337.278,33.315 L338.352,33.823 L339.424,34.329 L340.473,34.855 L341.522,35.38 L342.548,35.925 L343.574,36.469 L344.579,37.032 L345.582,37.593 L346.56,38.174 L347.538,38.754 L348.49,39.354 L349.444,39.955 L350.375,40.573 L351.304,41.191 L352.207,41.828 L353.109,42.465 L353.985,43.122 L354.863,43.78 L355.715,44.456 L356.566,45.131 L357.389,45.826 L358.212,46.52 L359.007,47.236 L359.804,47.952 L360.574,48.688 L361.343,49.421 L362.082,50.176 L362.822,50.93 L363.532,51.705 L364.243,52.482 L364.925,53.28 L365.607,54.075 L366.257,54.892 L366.908,55.708 L367.527,56.546 L368.149,57.385 L368.741,58.245 L369.332,59.102 L369.891,59.981 L370.451,60.86 L370.978,61.761 L371.506,62.664 L372.004,63.588 L372.499,64.51 L372.961,65.456 L373.422,66.4 L373.85,67.368 L374.281,68.342 L374.676,69.31 L375.033,70.255 L375.353,71.178 L375.638,72.079 L375.886,72.955 L376.099,73.808 L376.279,74.64 L376.423,75.447 L376.534,76.232 L376.615,76.997 L376.663,77.736 L376.68,78.456 L376.668,79.156 L376.625,79.832 L376.552,80.491 L376.453,81.131 L376.326,81.749 L376.17,82.351 L375.989,82.938 L375.782,83.505 L375.547,84.059 L375.287,84.599 L375.002,85.122 L374.688,85.634 L374.35,86.135 L373.988,86.62 L373.596,87.096 L373.18,87.561 L372.739,88.012 L372.27,88.454 L371.776,88.887 L371.258,89.307 L370.711,89.717 L370.14,90.118 L369.545,90.506 L368.922,90.884 L368.276,91.253 L367.606,91.61 L366.91,91.957 L366.192,92.294 L365.451,92.62 L364.701,92.93 L363.092,93.539 L361.412,94.099 L359.645,94.621 L357.797,95.109 L356.847,95.331 L355.889,95.555 L354.895,95.761 L353.898,95.967 L352.87,96.157 L351.843,96.348 L350.784,96.521 L349.723,96.695 L348.633,96.852 L347.54,97.01 L346.422,97.155 L345.303,97.299 L344.158,97.43 L343.012,97.561 L341.842,97.678 L340.669,97.796 L339.475,97.902 L338.282,98.008 L337.066,98.103 L335.85,98.198 L334.614,98.283 L333.386,98.367 L332.119,98.432 L330.838,98.497 L329.557,98.563 L328.275,98.629 L326.994,98.695 L325.713,98.761 L324.432,98.826 L323.168,98.891 L321.858,98.933 L320.53,98.974 L319.203,99.016 L317.876,99.058 L316.548,99.1 L315.221,99.142 L313.894,99.184 L312.572,99.225 L311.233,99.26 L309.889,99.294 L308.545,99.329 L307.201,99.363 L305.857,99.397 L304.513,99.432 L303.169,99.466 L301.824,99.501 L300.48,99.537 L299.136,99.574 L297.796,99.613 L296.455,99.652 L295.119,99.695 L293.784,99.738 L292.455,99.786 L291.125,99.833 L289.804,99.886 L288.482,99.939 L287.171,99.999 L285.859,100.059 L284.559,100.126 L283.258,100.193 L281.97,100.268 L280.682,100.343 L279.409,100.428 L278.136,100.513 L276.879,100.607 L275.621,100.702 L274.381,100.807 L273.14,100.914 L271.92,101.032 L270.7,101.15 L269.501,101.281 L268.299,101.412 L267.121,101.557 L265.942,101.702 L264.788,101.862 L263.635,102.023 L262.506,102.198 L261.375,102.374 L260.273,102.567 L259.169,102.761 L258.095,102.972 L257.022,103.184 L255.979,103.413 L254.931,103.644 L253.917,103.894 L252.893,104.148 L250.955,104.688 L249.986,104.98 L249.046,105.281 L248.126,105.594 L247.222,105.919 L246.337,106.257 L245.472,106.609 L244.625,106.973 L243.796,107.352 L242.99,107.744 L242.202,108.151 L241.434,108.574 L240.69,109.012 L239.967,109.465 L239.264,109.937 L238.586,110.424 L237.931,110.928 L237.298,111.451 L236.693,111.992 L236.111,112.549 L235.554,113.129 L235.027,113.726 L234.527,114.341 L234.053,114.979 L233.612,115.633 L233.2,116.307 L232.817,117.003 L232.47,117.716 L232.154,118.447 L231.87,119.201 L231.623,119.969 L231.409,120.755 L231.229,121.562 L231.087,122.383 L230.979,123.22 L230.907,124.078 L230.872,124.95 L230.872,125.836 L230.909,126.743 L230.983,127.664 L231.091,128.6 L231.238,129.556 L231.421,130.527 L231.64,131.514 L231.897,132.521 L232.191,133.544 L232.521,134.584 L232.889,135.645 L233.297,136.724 L233.739,137.82 L234.223,138.938 L234.745,140.075 L235.304,141.231 L235.904,142.409 L236.536,143.593 C237.025,144.506 238.162,144.85 239.074,144.361 C239.987,143.872 240.331,142.736 239.842,141.823 Z" id="Fill-129"></path>
            <path d="M251.138,169.4 L251.526,169.371 L252.001,169.289 L252.455,169.159 L252.891,168.982 L253.311,168.754 L253.69,168.489 L254.037,168.192 L254.354,167.86 L254.63,167.511 L254.875,167.145 L255.094,166.757 L255.284,166.361 L255.451,165.954 L255.599,165.53 L255.726,165.098 L255.837,164.655 L255.934,164.196 L256.02,163.702 L256.145,162.756 L256.228,161.729 L256.27,160.655 L256.279,159.538 L256.256,158.371 L256.203,157.163 L256.125,155.918 L256.024,154.635 L255.902,153.319 L255.764,151.977 L255.61,150.609 L255.444,149.219 L255.268,147.815 L255.084,146.397 L254.896,144.971 L254.705,143.541 L254.515,142.114 L254.33,140.691 L254.145,139.274 L253.976,137.881 L253.807,136.488 L253.655,135.13 L253.519,133.799 L253.401,132.5 L253.302,131.237 L253.227,130.018 L253.177,128.847 L253.152,127.725 L253.157,126.667 L253.194,125.673 L253.261,124.747 L253.361,123.905 L253.495,123.149 L253.656,122.483 L253.84,121.93 L254.068,121.436 L254.148,121.299 L254.246,121.15 L254.346,121.023 L254.442,120.918 L254.527,120.841 L254.594,120.79 L255.541,120.195 L256.542,119.649 L257.627,119.132 L258.782,118.644 L260.009,118.188 L261.313,117.763 L262.682,117.366 L264.117,117.001 L265.621,116.665 L267.184,116.356 L268.807,116.075 L270.491,115.822 L272.228,115.592 L274.018,115.388 L275.863,115.208 L277.755,115.05 L279.698,114.913 L280.687,114.855 L281.681,114.797 L282.695,114.747 L283.709,114.698 L284.743,114.658 L285.779,114.618 L286.834,114.587 L287.89,114.555 L288.963,114.531 L290.037,114.506 L291.128,114.489 L292.219,114.472 L293.328,114.462 L294.438,114.451 L295.561,114.446 L296.685,114.441 L297.824,114.442 L298.964,114.442 L300.117,114.447 L301.271,114.452 L302.437,114.461 L303.604,114.47 L304.782,114.482 L305.96,114.494 L307.15,114.509 L308.34,114.524 L309.544,114.541 L310.749,114.559 L311.954,114.576 L313.158,114.594 L314.378,114.613 L315.6,114.632 L316.822,114.651 L318.045,114.671 L319.28,114.689 L320.514,114.707 L321.748,114.726 L322.985,114.744 L324.23,114.758 L325.472,114.773 L326.714,114.788 L327.961,114.803 L329.213,114.812 L330.46,114.82 L331.708,114.829 L332.962,114.838 L334.217,114.838 L335.466,114.838 L336.714,114.838 L337.97,114.838 L339.224,114.828 L340.471,114.817 L341.718,114.807 L342.974,114.797 L344.224,114.772 L345.465,114.748 L346.706,114.724 L347.958,114.7 L349.201,114.659 L350.431,114.619 L351.662,114.578 L352.901,114.537 L354.132,114.483 L355.361,114.43 L356.583,114.366 L357.804,114.302 L359.018,114.227 L360.23,114.152 L361.435,114.067 L362.64,113.981 L363.835,113.884 L365.031,113.786 L366.215,113.676 L367.399,113.565 L368.571,113.442 L369.745,113.319 L370.906,113.182 L372.067,113.045 L373.214,112.892 L374.361,112.74 L375.494,112.574 L376.628,112.407 L377.747,112.224 L378.866,112.041 L379.969,111.842 L381.07,111.642 L382.155,111.426 L383.243,111.209 L384.311,110.974 L385.38,110.739 L386.43,110.485 L387.478,110.231 L388.508,109.959 L389.54,109.686 L390.551,109.393 L391.563,109.1 L392.551,108.786 L393.539,108.471 L394.506,108.138 L395.483,107.799 L397.365,107.087 L399.205,106.324 L400.998,105.517 L402.74,104.657 L404.425,103.746 L406.058,102.786 L407.635,101.769 L409.147,100.696 L410.601,99.569 L411.992,98.38 L413.312,97.132 L414.566,95.826 L415.75,94.454 L416.841,93.036 L417.379,92.279 L417.885,91.521 L418.37,90.748 L418.835,89.96 L419.281,89.153 L419.705,88.331 L420.108,87.493 L420.491,86.637 L420.851,85.766 L421.19,84.879 L421.507,83.973 L421.801,83.052 L422.074,82.115 L422.324,81.159 L422.55,80.188 L422.754,79.201 L422.935,78.194 L423.091,77.172 L423.225,76.134 L423.334,75.076 L423.419,74.002 L423.482,72.911 L423.518,71.801 L423.529,70.674 L423.517,69.531 L423.479,68.367 L423.416,67.186 L423.329,65.988 L423.216,64.77 L423.075,63.528 L422.876,62.066 L422.629,60.615 L422.339,59.187 L422.008,57.778 L421.632,56.388 L421.214,55.02 L420.756,53.671 L420.255,52.34 L419.711,51.033 L419.13,49.745 L418.507,48.475 L417.845,47.228 L417.146,45.999 L416.406,44.79 L415.629,43.603 L414.817,42.434 L413.965,41.285 L413.078,40.157 L412.157,39.047 L411.199,37.956 L410.206,36.887 L409.181,35.835 L408.121,34.8 L407.029,33.785 L405.906,32.788 L404.749,31.808 L403.559,30.849 L402.34,29.906 L401.088,28.981 L399.805,28.075 L398.494,27.186 L397.152,26.313 L395.779,25.46 L394.38,24.622 L392.951,23.801 L391.494,22.996 L390.011,22.207 L388.5,21.434 L386.961,20.678 L385.397,19.937 L383.806,19.212 L382.189,18.504 L380.548,17.811 L378.88,17.133 L377.188,16.471 L375.473,15.824 L373.733,15.192 L371.97,14.576 L370.184,13.973 L368.375,13.385 L366.544,12.813 L364.692,12.254 L362.817,11.71 L360.921,11.18 L359.006,10.664 L357.071,10.162 L356.09,9.917 L355.113,9.673 L354.125,9.436 L353.137,9.198 L352.14,8.968 L351.142,8.737 L350.135,8.513 L349.128,8.29 L348.113,8.072 L347.097,7.855 L346.072,7.644 L345.047,7.433 L344.012,7.229 L342.979,7.026 L341.937,6.828 L340.895,6.63 L339.844,6.438 L338.793,6.247 L337.734,6.062 L336.673,5.877 L335.601,5.7 L334.535,5.525 L333.47,5.35 L332.395,5.174 L331.303,5.01 L330.222,4.847 L329.141,4.685 L328.05,4.521 L326.945,4.37 L325.848,4.219 L324.752,4.069 L323.647,3.918 L322.53,3.778 L321.421,3.639 L320.312,3.5 L319.194,3.359 L318.063,3.231 L316.94,3.104 L315.817,2.976 L314.687,2.848 L313.543,2.732 L312.408,2.616 L311.273,2.501 L310.131,2.384 L308.978,2.278 L307.832,2.173 L306.686,2.068 L305.533,1.962 L304.368,1.867 L303.212,1.773 L302.055,1.679 L300.891,1.584 L299.717,1.5 L298.55,1.417 L297.383,1.334 L296.21,1.25 L295.029,1.176 L293.854,1.103 L292.678,1.03 L291.496,0.957 L290.306,0.894 L289.123,0.831 L287.939,0.768 L286.749,0.706 L285.551,0.653 L284.36,0.6 L283.169,0.548 L281.972,0.495 L280.769,0.452 L279.572,0.408 L278.375,0.365 L277.171,0.321 L275.962,0.288 L274.759,0.254 L273.556,0.22 L272.347,0.187 L271.133,0.162 L269.924,0.138 L268.716,0.114 L267.503,0.09 L266.286,0.074 L265.074,0.058 L263.861,0.043 L262.644,0.027 L261.423,0.02 L260.207,0.013 L258.992,0.007 L257.771,0 L256.548,0.002 L255.329,0.004 L254.111,0.006 L252.888,0.008 L251.664,0.018 L250.444,0.028 L249.225,0.038 L248,0.049 L246.774,0.067 L245.554,0.085 L244.333,0.104 L243.107,0.122 L241.882,0.148 L240.661,0.175 L239.44,0.201 L238.215,0.228 L236.991,0.261 L235.771,0.295 L234.551,0.329 L233.326,0.362 L232.103,0.404 L230.885,0.445 L229.666,0.487 L228.443,0.528 L227.223,0.577 L226.006,0.626 L224.79,0.675 L223.57,0.724 L222.353,0.779 L221.14,0.835 L219.926,0.89 L218.709,0.945 L217.496,1.008 L216.286,1.07 L215.077,1.132 L213.864,1.194 L212.656,1.263 L211.451,1.332 L210.247,1.401 L209.039,1.47 L207.836,1.545 L206.637,1.619 L205.438,1.694 L204.235,1.769 L203.039,1.85 L201.846,1.93 L200.653,2.011 L199.457,2.092 L198.268,2.179 L197.082,2.266 L195.897,2.353 L194.709,2.44 L193.527,2.532 L192.35,2.624 L191.172,2.715 L189.99,2.808 L188.818,2.905 L187.649,3.003 L186.48,3.1 L185.308,3.198 L184.146,3.3 L182.986,3.403 L181.827,3.506 L180.665,3.608 L179.513,3.716 L178.364,3.823 L177.214,3.93 L176.062,4.037 L174.921,4.149 L173.783,4.261 L172.645,4.373 L171.504,4.485 L170.375,4.602 L169.25,4.718 L168.124,4.835 L166.996,4.951 L165.88,5.072 L164.766,5.192 L163.652,5.312 L162.536,5.433 L161.433,5.558 L160.334,5.682 L159.234,5.806 L158.131,5.931 L157.044,6.059 L155.959,6.187 L154.874,6.315 L153.787,6.443 L152.713,6.575 L151.643,6.706 L150.572,6.837 L149.499,6.968 L148.442,7.103 L147.388,7.237 L146.334,7.372 L145.277,7.507 L144.237,7.644 L143.2,7.782 L142.163,7.919 L141.124,8.057 L140.101,8.198 L139.081,8.338 L138.06,8.478 L137.037,8.618 L136.033,8.761 L135.032,8.904 L134.03,9.047 L133.025,9.19 L131.06,9.48 L129.094,9.77 L127.166,10.065 L125.237,10.359 L123.352,10.657 L121.466,10.956 L119.625,11.257 L117.784,11.559 L115.985,11.863 L114.186,12.166 L112.434,12.472 L110.682,12.778 L108.98,13.085 L107.279,13.393 L105.611,13.702 L103.97,14.012 L102.355,14.322 L100.764,14.632 L99.2,14.943 L97.664,15.254 L96.154,15.564 L94.672,15.875 L93.218,16.186 L91.792,16.497 L90.394,16.807 L89.027,17.116 L87.688,17.425 L86.379,17.734 L85.101,18.041 L83.853,18.347 L82.636,18.653 L81.451,18.957 L80.296,19.261 L79.175,19.562 L78.087,19.863 L77.03,20.162 L76.006,20.459 L75.019,20.754 L74.513,20.91 L73.965,21.085 L73.376,21.278 L72.751,21.488 L72.086,21.716 L71.384,21.962 L70.648,22.224 L69.876,22.503 L69.069,22.8 L68.232,23.112 L67.363,23.44 L66.463,23.785 L65.536,24.145 L64.579,24.521 L63.596,24.913 L62.589,25.318 L61.557,25.739 L60.501,26.175 L59.425,26.624 L58.328,27.087 L57.21,27.564 L56.076,28.054 L54.924,28.558 L53.754,29.075 L52.567,29.609 L51.379,30.144 L50.165,30.704 L48.951,31.264 L47.717,31.848 L46.483,32.432 L45.236,33.037 L43.988,33.642 L42.729,34.269 L41.471,34.897 L40.207,35.545 L38.944,36.193 L37.68,36.86 L36.416,37.527 L35.156,38.212 L33.896,38.898 L32.645,39.602 L31.395,40.306 L30.159,41.025 L28.921,41.745 L27.703,42.48 L26.484,43.216 L25.29,43.967 L24.097,44.718 L22.93,45.481 L21.762,46.245 L20.628,47.022 L19.494,47.8 L18.399,48.59 L17.305,49.379 L16.251,50.179 L15.195,50.98 L14.188,51.791 L13.18,52.603 L12.227,53.424 L11.278,54.242 L10.361,55.073 L9.477,55.906 L8.625,56.743 L7.803,57.583 L7.015,58.429 L6.264,59.28 L5.546,60.134 L4.866,60.993 L4.225,61.855 L3.622,62.721 L3.059,63.592 L2.541,64.466 L2.063,65.343 L1.631,66.225 L1.248,67.11 L0.91,67.998 L0.623,68.892 L0.389,69.787 L0.206,70.685 L0.08,71.588 L0.012,72.489 L0,73.39 L0.05,74.295 L0.164,75.194 L0.337,76.09 L0.577,76.985 L0.884,77.87 L1.252,78.749 L1.69,79.622 L2.195,80.484 L2.762,81.337 L3.401,82.183 L4.108,83.016 L4.879,83.841 L5.724,84.657 L6.633,85.458 L7.335,86.035 L8.05,86.592 L8.782,87.133 L9.529,87.66 L10.295,88.172 L11.085,88.674 L12.681,89.621 L14.35,90.517 L16.075,91.359 L17.851,92.153 L19.681,92.899 L21.556,93.594 L22.521,93.923 L23.482,94.251 L24.467,94.557 L25.45,94.862 L26.456,95.147 L27.459,95.431 L28.481,95.698 L29.504,95.965 L30.546,96.212 L31.586,96.46 L32.645,96.69 L33.702,96.92 L34.774,97.134 L35.846,97.349 L36.932,97.548 L38.018,97.747 L39.118,97.932 L40.216,98.116 L41.326,98.287 L42.435,98.459 L43.556,98.617 L44.675,98.776 L45.804,98.922 L46.932,99.068 L48.068,99.205 L49.203,99.341 L50.345,99.467 L51.486,99.593 L52.632,99.71 L53.779,99.827 L54.931,99.933 L56.078,100.04 L57.225,100.146 L58.377,100.252 L59.531,100.346 L60.68,100.44 L61.829,100.533 L62.982,100.627 L64.131,100.711 L65.276,100.796 L66.421,100.881 L67.568,100.965 L68.706,101.045 L69.843,101.125 L70.98,101.205 L72.116,101.285 L73.239,101.363 L74.361,101.441 L75.483,101.519 L76.604,101.598 L77.703,101.678 L78.805,101.759 L79.906,101.84 L81.005,101.92 L82.087,102.005 L83.169,102.089 L84.237,102.177 L85.304,102.265 L86.355,102.358 L87.406,102.451 L88.441,102.549 L89.476,102.647 L90.492,102.752 L91.507,102.856 L92.502,102.968 L93.496,103.08 L95.447,103.32 L97.349,103.579 L99.202,103.858 L101.006,104.157 L102.754,104.479 L104.449,104.829 L105.964,105.153 L107.484,105.477 L109.014,105.792 L110.543,106.106 L112.08,106.41 L113.617,106.714 L115.16,107.009 L116.704,107.303 L118.255,107.587 L119.805,107.872 L121.361,108.145 L122.917,108.418 L124.478,108.682 L126.04,108.945 L127.605,109.198 L129.171,109.45 L130.741,109.691 L132.311,109.933 L133.884,110.164 L135.457,110.395 L137.033,110.615 L138.609,110.835 L140.187,111.043 L141.766,111.252 L143.347,111.444 L144.924,111.637 L146.501,111.829 L148.084,112.022 L149.668,112.191 L151.245,112.359 L152.823,112.528 L154.406,112.697 L155.988,112.842 L157.563,112.987 L159.138,113.131 L160.718,113.276 L162.294,113.404 L163.87,113.533 L165.442,113.648 L167.015,113.764 L168.584,113.867 L170.153,113.97 L171.718,114.061 L173.283,114.152 L174.843,114.231 L176.403,114.309 L177.958,114.375 L179.507,114.44 L180.777,114.505 L182.01,114.602 L183.215,114.732 L184.395,114.89 L185.546,115.08 L186.672,115.299 L187.773,115.546 L188.848,115.82 L189.899,116.123 L190.928,116.451 L191.932,116.804 L192.914,117.184 L193.876,117.587 L194.815,118.013 L195.733,118.464 L196.633,118.936 L197.512,119.43 L198.372,119.945 L199.215,120.48 L200.039,121.035 L200.847,121.61 L201.638,122.202 L202.412,122.813 L203.168,123.438 L203.91,124.093 L204.648,124.743 L205.355,125.425 L206.065,126.108 L206.746,126.818 L207.429,127.529 L208.089,128.264 L208.75,128.998 L209.386,129.754 L210.024,130.511 L210.64,131.287 L211.258,132.065 L211.858,132.858 L212.459,133.65 L213.042,134.456 L213.626,135.263 L214.196,136.081 L214.766,136.899 L215.325,137.725 L215.884,138.549 L216.983,140.212 L218.067,141.879 L219.137,143.541 L220.209,145.207 L221.273,146.844 L222.34,148.486 L223.419,150.074 L224.498,151.662 L225.6,153.207 L226.721,154.71 L227.867,156.163 L229.041,157.568 L230.251,158.914 L231.499,160.194 L232.787,161.407 L234.127,162.544 L235.509,163.589 L236.234,164.089 L236.965,164.561 L237.712,165.007 L238.473,165.43 L239.252,165.827 L240.047,166.197 L240.857,166.541 L241.688,166.857 L242.535,167.142 L243.4,167.4 L244.285,167.627 L245.188,167.822 L246.11,167.987 L247.053,168.119 L248.016,168.216 L248.999,168.281 L250.004,168.311 L251.017,168.304 C251.446,168.302 251.79,167.953 251.788,167.524 C251.785,167.096 251.436,166.752 251.008,166.754 L250.022,166.76 L249.074,166.73 L248.146,166.668 L247.239,166.575 L246.355,166.451 L245.49,166.295 L244.643,166.112 L243.817,165.899 L243.008,165.657 L242.215,165.388 L241.441,165.093 L240.682,164.77 L239.937,164.422 L239.209,164.05 L238.494,163.651 L237.792,163.231 L237.104,162.786 L236.437,162.325 L235.109,161.32 L233.836,160.237 L232.602,159.072 L231.401,157.838 L230.234,156.536 L229.095,155.168 L227.977,153.748 L226.88,152.275 L225.8,150.757 L224.733,149.182 L223.665,147.607 L222.608,145.977 L221.548,144.342 L220.48,142.678 L219.41,141.011 L218.323,139.335 L217.219,137.661 L216.654,136.825 L216.09,135.991 L215.514,135.163 L214.938,134.333 L214.346,133.514 L213.753,132.693 L213.143,131.886 L212.532,131.078 L211.904,130.285 L211.274,129.49 L210.622,128.714 L209.97,127.937 L209.293,127.183 L208.616,126.428 L207.915,125.696 L207.212,124.963 L206.481,124.257 L205.749,123.55 L204.985,122.875 L204.225,122.203 L203.435,121.548 L202.63,120.912 L201.808,120.295 L200.968,119.696 L200.109,119.115 L199.23,118.557 L198.333,118.017 L197.414,117.5 L196.474,117.006 L195.515,116.534 L194.532,116.086 L193.527,115.664 L192.501,115.266 L191.451,114.894 L190.377,114.551 L189.28,114.234 L188.157,113.945 L187.01,113.688 L185.838,113.458 L184.639,113.259 L183.414,113.093 L182.164,112.957 L180.884,112.855 L179.584,112.787 L178.029,112.72 L176.481,112.653 L174.928,112.573 L173.374,112.493 L171.816,112.4 L170.257,112.306 L168.694,112.202 L167.132,112.097 L165.566,111.98 L164,111.863 L162.431,111.733 L160.864,111.604 L159.293,111.457 L157.718,111.31 L156.143,111.164 L154.574,111.017 L153.004,110.847 L151.427,110.675 L149.85,110.504 L148.279,110.333 L146.709,110.139 L145.132,109.944 L143.556,109.749 L141.984,109.554 L140.413,109.344 L138.842,109.133 L137.272,108.911 L135.703,108.689 L134.137,108.456 L132.57,108.223 L131.006,107.979 L129.443,107.736 L127.884,107.481 L126.325,107.227 L124.77,106.962 L123.216,106.696 L121.666,106.421 L120.116,106.146 L118.573,105.86 L117.029,105.574 L115.492,105.278 L113.955,104.982 L112.425,104.676 L110.895,104.37 L109.373,104.054 L107.85,103.738 L106.337,103.412 L104.817,103.085 L103.098,102.726 L101.316,102.394 L99.483,102.087 L97.605,101.8 L95.679,101.535 L93.712,101.288 L92.706,101.173 L91.703,101.057 L90.679,100.949 L89.656,100.842 L88.615,100.741 L87.574,100.639 L86.518,100.544 L85.461,100.448 L84.389,100.357 L83.318,100.266 L82.232,100.179 L81.146,100.091 L80.042,100.008 L78.941,99.924 L77.84,99.841 L76.737,99.758 L75.614,99.676 L74.492,99.595 L73.37,99.514 L72.249,99.433 L71.112,99.349 L69.976,99.266 L68.839,99.183 L67.705,99.1 L66.561,99.013 L65.417,98.925 L64.272,98.837 L63.13,98.749 L61.985,98.653 L60.836,98.556 L59.687,98.459 L58.544,98.363 L57.402,98.254 L56.256,98.145 L55.109,98.035 L53.967,97.926 L52.83,97.805 L51.692,97.685 L50.559,97.556 L49.427,97.426 L48.301,97.287 L47.176,97.148 L46.057,96.998 L44.94,96.849 L43.832,96.688 L42.725,96.527 L41.628,96.354 L40.532,96.18 L39.446,95.994 L38.362,95.808 L37.292,95.608 L36.222,95.408 L35.167,95.192 L34.112,94.976 L33.072,94.745 L32.034,94.514 L31.014,94.266 L29.994,94.018 L28.994,93.752 L27.993,93.486 L27.011,93.203 L26.032,92.92 L25.074,92.618 L24.117,92.316 L23.184,91.992 L22.254,91.671 L20.43,90.985 L18.666,90.257 L16.959,89.482 L15.306,88.663 L13.719,87.797 L12.186,86.873 L11.457,86.403 L10.737,85.914 L10.033,85.411 L9.346,84.896 L8.679,84.368 L8.034,83.83 L7.189,83.077 L6.425,82.328 L5.732,81.577 L5.104,80.827 L4.547,80.078 L4.055,79.328 L3.623,78.579 L3.256,77.834 L2.948,77.087 L2.694,76.34 L2.498,75.596 L2.357,74.848 L2.266,74.098 L2.228,73.348 L2.241,72.592 L2.302,71.831 L2.412,71.069 L2.573,70.299 L2.778,69.525 L3.032,68.748 L3.335,67.964 L3.68,67.176 L4.071,66.386 L4.509,65.591 L4.987,64.793 L5.508,63.994 L6.073,63.192 L6.675,62.388 L7.317,61.585 L7.999,60.781 L8.715,59.976 L9.466,59.172 L10.253,58.367 L11.071,57.564 L11.922,56.763 L12.801,55.967 L13.729,55.168 L14.653,54.372 L15.632,53.584 L16.613,52.794 L17.642,52.014 L18.674,51.232 L19.747,50.459 L20.819,49.686 L21.931,48.924 L23.045,48.161 L24.192,47.411 L25.342,46.659 L26.518,45.92 L27.694,45.181 L28.896,44.456 L30.098,43.731 L31.319,43.021 L32.542,42.31 L33.778,41.615 L35.014,40.919 L36.26,40.242 L37.507,39.564 L38.758,38.904 L40.01,38.245 L41.262,37.603 L42.514,36.961 L43.761,36.34 L45.008,35.719 L46.246,35.12 L47.483,34.521 L48.707,33.942 L49.931,33.364 L51.135,32.809 L52.339,32.254 L53.518,31.725 L54.699,31.194 L55.857,30.683 L57,30.184 L58.126,29.698 L59.235,29.226 L60.324,28.767 L61.392,28.323 L62.439,27.893 L63.463,27.477 L64.461,27.076 L65.436,26.689 L66.383,26.318 L67.301,25.963 L68.193,25.623 L69.052,25.299 L69.879,24.991 L70.676,24.7 L71.437,24.425 L72.161,24.168 L72.852,23.928 L73.502,23.705 L74.113,23.501 L74.685,23.315 L75.213,23.147 L75.696,22.999 L76.668,22.709 L77.675,22.418 L78.717,22.125 L79.791,21.829 L80.899,21.533 L82.041,21.234 L83.214,20.935 L84.419,20.634 L85.657,20.331 L86.924,20.028 L88.222,19.724 L89.552,19.419 L90.91,19.113 L92.298,18.807 L93.716,18.5 L95.161,18.193 L96.635,17.885 L98.137,17.578 L99.666,17.27 L101.222,16.963 L102.805,16.656 L104.413,16.35 L106.047,16.044 L107.707,15.738 L109.403,15.434 L111.099,15.129 L112.844,14.827 L114.589,14.524 L116.382,14.224 L118.175,13.925 L120.01,13.628 L121.846,13.332 L123.726,13.039 L125.605,12.746 L127.528,12.456 L129.451,12.167 L131.412,11.882 L133.373,11.596 L134.371,11.456 L135.372,11.316 L136.374,11.176 L137.372,11.036 L138.39,10.898 L139.41,10.761 L140.431,10.623 L141.449,10.486 L142.483,10.351 L143.52,10.216 L144.557,10.081 L145.591,9.946 L146.642,9.815 L147.697,9.683 L148.751,9.551 L149.802,9.419 L150.87,9.291 L151.941,9.163 L153.012,9.034 L154.08,8.906 L155.162,8.781 L156.247,8.656 L157.332,8.531 L158.414,8.406 L159.511,8.285 L160.611,8.164 L161.711,8.043 L162.807,7.922 L163.918,7.805 L165.032,7.688 L166.146,7.571 L167.257,7.454 L168.38,7.341 L169.506,7.228 L170.631,7.115 L171.754,7.002 L172.889,6.894 L174.027,6.785 L175.166,6.677 L176.301,6.568 L177.447,6.465 L178.597,6.361 L179.746,6.257 L180.893,6.153 L182.049,6.054 L183.209,5.955 L184.368,5.856 L185.524,5.757 L186.69,5.663 L187.859,5.569 L189.028,5.475 L190.194,5.381 L191.369,5.293 L192.547,5.204 L193.725,5.116 L194.9,5.027 L196.083,4.944 L197.269,4.861 L198.454,4.777 L199.636,4.694 L200.826,4.617 L202.019,4.54 L203.212,4.462 L204.401,4.385 L205.597,4.314 L206.797,4.243 L207.996,4.172 L209.192,4.101 L210.393,4.035 L211.598,3.97 L212.803,3.905 L214.004,3.84 L215.209,3.781 L216.419,3.722 L217.628,3.664 L218.834,3.605 L220.044,3.553 L221.257,3.501 L222.471,3.45 L223.681,3.398 L224.894,3.353 L226.11,3.307 L227.326,3.262 L228.539,3.217 L229.753,3.179 L230.972,3.141 L232.191,3.103 L233.406,3.065 L234.622,3.035 L235.842,3.004 L237.063,2.974 L238.279,2.943 L239.496,2.92 L240.717,2.896 L241.938,2.872 L243.154,2.849 L244.371,2.833 L245.592,2.818 L246.812,2.802 L248.029,2.787 L249.244,2.78 L250.464,2.772 L251.684,2.765 L252.899,2.758 L254.113,2.758 L255.331,2.759 L256.55,2.759 L257.763,2.76 L258.974,2.769 L260.189,2.778 L261.405,2.787 L262.615,2.796 L263.823,2.814 L265.035,2.832 L266.247,2.85 L267.454,2.868 L268.658,2.895 L269.866,2.921 L271.074,2.948 L272.277,2.974 L273.475,3.01 L274.678,3.046 L275.881,3.082 L277.079,3.118 L278.271,3.163 L279.468,3.209 L280.665,3.255 L281.857,3.3 L283.043,3.355 L284.234,3.409 L285.425,3.464 L286.61,3.519 L287.787,3.583 L288.971,3.648 L290.154,3.713 L291.331,3.778 L292.5,3.853 L293.675,3.928 L294.85,4.003 L296.019,4.078 L297.18,4.162 L298.347,4.247 L299.513,4.331 L300.673,4.415 L301.823,4.51 L302.98,4.606 L304.136,4.701 L305.286,4.796 L306.424,4.902 L307.57,5.008 L308.715,5.115 L309.854,5.221 L310.982,5.337 L312.117,5.454 L313.253,5.571 L314.38,5.687 L315.494,5.814 L316.617,5.943 L317.739,6.071 L318.853,6.199 L319.954,6.338 L321.063,6.478 L322.172,6.618 L323.274,6.758 L324.362,6.908 L325.458,7.059 L326.554,7.21 L327.641,7.36 L328.713,7.523 L329.794,7.686 L330.875,7.85 L331.947,8.012 L333.002,8.186 L334.068,8.362 L335.133,8.538 L336.191,8.713 L337.238,8.897 L338.287,9.08 L339.328,9.27 L340.368,9.46 L341.399,9.657 L342.431,9.853 L343.454,10.056 L344.477,10.258 L345.491,10.467 L346.504,10.676 L347.508,10.892 L348.513,11.107 L349.509,11.329 L350.504,11.551 L351.489,11.779 L352.474,12.007 L353.449,12.242 L354.425,12.477 L355.391,12.719 L356.355,12.959 L358.267,13.456 L360.156,13.966 L362.025,14.489 L363.871,15.025 L365.695,15.576 L367.497,16.14 L369.275,16.718 L371.03,17.311 L372.762,17.917 L374.468,18.538 L376.15,19.173 L377.808,19.822 L379.439,20.486 L381.044,21.164 L382.625,21.857 L384.177,22.564 L385.702,23.287 L387.201,24.025 L388.67,24.776 L390.111,25.544 L391.525,26.327 L392.907,27.126 L394.259,27.942 L395.583,28.772 L396.875,29.617 L398.136,30.478 L399.368,31.354 L400.566,32.245 L401.733,33.153 L402.869,34.076 L403.97,35.014 L405.039,35.969 L406.076,36.939 L407.077,37.925 L408.043,38.93 L408.976,39.95 L409.872,40.985 L410.734,42.038 L411.562,43.107 L412.352,44.19 L413.106,45.292 L413.827,46.41 L414.509,47.543 L415.153,48.696 L415.763,49.864 L416.334,51.049 L416.867,52.253 L417.364,53.474 L417.821,54.712 L418.24,55.97 L418.622,57.245 L418.964,58.538 L419.264,59.852 L419.528,61.185 L419.749,62.535 L419.929,63.915 L420.055,65.087 L420.156,66.243 L420.231,67.379 L420.285,68.496 L420.314,69.591 L420.32,70.667 L420.303,71.724 L420.263,72.759 L420.201,73.777 L420.118,74.776 L420.013,75.754 L419.885,76.714 L419.737,77.657 L419.568,78.58 L419.377,79.485 L419.167,80.374 L418.936,81.242 L418.684,82.095 L418.414,82.932 L418.124,83.749 L417.813,84.551 L417.484,85.338 L417.137,86.107 L416.77,86.861 L416.385,87.601 L415.983,88.323 L415.56,89.031 L415.121,89.726 L414.665,90.403 L414.202,91.051 L413.188,92.359 L412.119,93.591 L410.977,94.771 L409.772,95.903 L408.502,96.98 L407.163,98.01 L405.764,98.995 L404.305,99.929 L402.78,100.818 L401.201,101.665 L399.565,102.464 L397.869,103.222 L396.124,103.939 L394.318,104.616 L393.402,104.93 L392.475,105.247 L391.526,105.545 L390.579,105.844 L389.608,106.122 L388.636,106.401 L387.642,106.66 L386.646,106.92 L385.63,107.162 L384.616,107.405 L383.581,107.629 L382.545,107.854 L381.49,108.061 L380.433,108.268 L379.359,108.46 L378.286,108.653 L377.196,108.828 L376.105,109.004 L374.997,109.164 L373.888,109.324 L372.764,109.471 L371.641,109.617 L370.504,109.749 L369.366,109.881 L368.214,109.999 L367.061,110.117 L365.896,110.223 L364.732,110.329 L363.556,110.423 L362.38,110.516 L361.193,110.597 L360.004,110.679 L358.807,110.75 L357.61,110.821 L356.404,110.881 L355.198,110.942 L353.984,110.992 L352.771,111.042 L351.55,111.08 L350.319,111.117 L349.089,111.155 L347.87,111.193 L346.642,111.214 L345.401,111.235 L344.16,111.256 L342.929,111.277 L341.693,111.284 L340.446,111.292 L339.199,111.299 L337.96,111.307 L336.718,111.304 L335.469,111.301 L334.221,111.298 L332.978,111.295 L331.737,111.284 L330.489,111.272 L329.242,111.261 L327.998,111.249 L326.76,111.231 L325.518,111.214 L324.276,111.196 L323.036,111.179 L321.804,111.158 L320.57,111.137 L319.336,111.117 L318.102,111.096 L316.882,111.075 L315.66,111.054 L314.438,111.032 L313.215,111.011 L312.009,110.991 L310.804,110.971 L309.599,110.952 L308.392,110.932 L307.198,110.915 L306.005,110.898 L304.822,110.884 L303.638,110.87 L302.467,110.859 L301.296,110.848 L300.136,110.841 L298.975,110.835 L297.828,110.833 L296.681,110.831 L295.548,110.834 L294.415,110.837 L293.297,110.846 L292.177,110.855 L291.074,110.871 L289.97,110.886 L288.884,110.909 L287.798,110.932 L286.728,110.963 L285.657,110.993 L284.606,111.032 L283.554,111.071 L282.522,111.12 L281.49,111.169 L280.477,111.226 L279.459,111.284 L277.477,111.421 L275.537,111.581 L273.638,111.764 L271.786,111.972 L269.984,112.207 L268.227,112.469 L266.521,112.762 L264.871,113.086 L263.271,113.441 L261.724,113.832 L260.239,114.26 L258.807,114.725 L257.433,115.232 L256.126,115.783 L254.876,116.377 L253.689,117.022 L252.599,117.703 L252.202,117.993 L251.855,118.306 L251.546,118.64 L251.266,118.995 L251.014,119.375 L250.768,119.812 L250.416,120.585 L250.118,121.468 L249.892,122.395 L249.718,123.367 L249.594,124.395 L249.514,125.47 L249.471,126.588 L249.463,127.755 L249.488,128.964 L249.539,130.209 L249.617,131.493 L249.718,132.809 L249.838,134.151 L249.976,135.521 L250.129,136.914 L250.298,138.324 L250.467,139.735 L250.652,141.168 L250.836,142.596 L251.025,144.029 L251.213,145.457 L251.399,146.877 L251.579,148.282 L251.75,149.669 L251.912,151.036 L252.06,152.374 L252.193,153.679 L252.309,154.951 L252.404,156.178 L252.475,157.358 L252.523,158.49 L252.543,159.559 L252.534,160.565 L252.496,161.505 L252.425,162.361 L252.318,163.159 L252.26,163.486 L252.191,163.811 L252.115,164.111 L252.034,164.386 L251.949,164.627 L251.86,164.843 L251.771,165.03 L251.686,165.18 L251.601,165.306 L251.523,165.405 L251.458,165.473 L251.395,165.527 L251.339,165.566 L251.293,165.591 L251.235,165.614 L251.165,165.634 L251.086,165.648 L250.888,165.658 C249.855,165.727 249.073,166.621 249.142,167.654 C249.211,168.687 250.105,169.469 251.138,169.4 Z" id="Fill-138"></path>
        </g>
    </g>
</svg>
