<?xml version="1.0" encoding="UTF-8"?>
<svg width="234px" height="194px" viewBox="0 0 234 194" version="1.1" xmlns="http://www.w3.org/2000/svg" xmlns:xlink="http://www.w3.org/1999/xlink">
    <title>32</title>
    <g id="Page-1" stroke="none" stroke-width="1" fill="none" fill-rule="evenodd">
        <g id="32" transform="translate(0.340000, 0.264000)" fill="currentColor">
            <path d="M53.857,74.669 C20.731,174.046 178.461,217.638 201.366,142.379 C245.443,-2.444 8.813,-14.741 56.275,115.778" id="Fill-126"></path>
            <path d="M52.073,74.09 L51.567,75.654 L51.089,77.224 L50.643,78.784 L50.225,80.336 L49.838,81.879 L49.483,83.412 L49.156,84.937 L48.859,86.454 L48.593,87.959 L48.354,89.456 L48.144,90.945 L47.964,92.423 L47.811,93.892 L47.687,95.352 L47.591,96.801 L47.521,98.241 L47.479,99.672 L47.465,101.092 L47.476,102.502 L47.515,103.903 L47.58,105.293 L47.67,106.672 L47.786,108.043 L47.929,109.402 L48.094,110.75 L48.286,112.089 L48.503,113.416 L48.742,114.733 L49.006,116.04 L49.295,117.334 L49.605,118.618 L49.94,119.893 L50.297,121.154 L50.676,122.404 L51.078,123.645 L51.503,124.872 L51.947,126.089 L52.415,127.295 L52.903,128.488 L53.411,129.67 L53.941,130.841 L54.494,132.005 L55.067,133.138 L55.646,134.28 L56.264,135.398 L56.882,136.515 L57.539,137.608 L58.194,138.697 L58.884,139.764 L59.575,140.833 L60.302,141.877 L61.029,142.921 L61.791,143.939 L62.551,144.955 L63.342,145.947 L64.135,146.942 L64.96,147.91 L65.785,148.878 L66.641,149.821 L67.495,150.761 L68.377,151.677 L69.26,152.595 L70.173,153.487 L71.085,154.378 L72.025,155.243 L72.963,156.105 L73.926,156.944 L74.89,157.784 L75.879,158.597 L76.869,159.409 L77.882,160.195 L78.894,160.979 L79.927,161.738 L80.961,162.498 L82.018,163.23 L83.075,163.962 L84.152,164.666 L85.228,165.368 L86.322,166.046 L87.417,166.724 L88.53,167.374 L89.644,168.024 L90.775,168.645 L91.904,169.265 L93.048,169.859 L94.194,170.454 L95.355,171.02 L96.515,171.586 L97.69,172.123 L98.863,172.659 L100.047,173.169 L101.233,173.678 L102.431,174.159 L103.629,174.639 L104.837,175.09 L106.043,175.54 L107.258,175.963 L108.474,176.387 L109.699,176.78 L110.924,177.172 L112.156,177.534 L113.387,177.894 L114.623,178.228 L115.86,178.561 L117.103,178.864 L118.345,179.167 L119.59,179.439 L120.835,179.71 L122.081,179.952 L123.329,180.194 L124.579,180.405 L125.829,180.615 L127.078,180.794 L128.326,180.973 L129.574,181.123 L130.822,181.273 L132.069,181.393 L133.315,181.516 L134.558,181.607 L135.8,181.697 L137.037,181.758 L138.277,181.819 L139.511,181.848 L140.745,181.876 L141.973,181.872 L143.199,181.869 L144.418,181.838 L145.639,181.806 L146.852,181.742 L148.065,181.677 L149.268,181.579 L150.469,181.48 L151.66,181.351 L152.854,181.222 L154.035,181.059 L155.217,180.895 L156.385,180.697 L157.552,180.499 L158.706,180.271 L159.862,180.041 L161.002,179.777 L162.143,179.512 L163.267,179.212 L164.389,178.913 L165.495,178.581 L166.604,178.249 L167.693,177.881 L168.783,177.512 L169.852,177.108 L170.92,176.705 L171.968,176.269 L173.019,175.831 L174.047,175.357 L175.076,174.882 L176.08,174.371 L177.082,173.861 L178.062,173.317 L179.045,172.771 L180.001,172.189 L180.957,171.606 L181.886,170.985 L182.813,170.366 L183.714,169.713 L184.617,169.057 L185.491,168.364 L186.364,167.67 L187.207,166.939 L188.042,166.214 L188.867,165.452 L189.671,164.674 L190.457,163.878 L191.228,163.065 L191.983,162.231 L192.719,161.378 L193.437,160.508 L194.139,159.616 L194.821,158.707 L195.485,157.779 L196.131,156.831 L196.757,155.865 L197.364,154.88 L197.952,153.875 L198.519,152.851 L199.067,151.809 L199.595,150.747 L200.1,149.666 L200.586,148.567 L201.05,147.447 L201.491,146.309 L201.912,145.153 L202.311,143.976 L202.685,142.782 L203.02,141.643 L203.354,140.505 L203.666,139.378 L203.977,138.251 L204.264,137.135 L204.552,136.02 L204.819,134.916 L205.086,133.81 L205.33,132.715 L205.575,131.62 L205.796,130.536 L206.017,129.453 L206.218,128.38 L206.419,127.306 L206.598,126.243 L206.777,125.18 L206.935,124.128 L207.092,123.077 L207.229,122.036 L207.367,120.994 L207.484,119.963 L207.6,118.933 L207.696,117.913 L207.791,116.891 L207.944,114.876 L208.056,112.879 L208.127,110.906 L208.162,108.952 L208.157,107.02 L208.113,105.112 L208.034,103.223 L207.916,101.356 L207.761,99.513 L207.572,97.69 L207.346,95.888 L207.084,94.11 L206.789,92.352 L206.459,90.616 L206.094,88.904 L205.698,87.212 L205.269,85.542 L204.807,83.896 L204.315,82.27 L203.79,80.666 L203.234,79.086 L202.649,77.527 L202.034,75.99 L201.388,74.476 L200.716,72.984 L200.013,71.513 L199.283,70.067 L198.527,68.641 L197.743,67.237 L196.932,65.857 L196.098,64.498 L195.237,63.161 L194.351,61.848 L193.442,60.556 L192.507,59.286 L191.549,58.041 L190.57,56.816 L189.567,55.614 L188.542,54.436 L187.496,53.279 L186.429,52.144 L185.341,51.034 L184.234,49.944 L183.107,48.877 L181.961,47.834 L180.797,46.813 L179.614,45.813 L178.414,44.838 L177.198,43.884 L175.964,42.952 L174.715,42.044 L173.452,41.157 L172.171,40.292 L170.877,39.451 L169.57,38.632 L168.248,37.835 L166.913,37.062 L165.566,36.31 L164.206,35.58 L162.835,34.874 L161.453,34.19 L160.059,33.528 L158.656,32.89 L157.243,32.273 L155.82,31.679 L154.389,31.109 L152.95,30.559 L151.502,30.033 L150.048,29.53 L148.587,29.049 L147.118,28.59 L145.643,28.159 L144.162,27.751 L142.676,27.366 L141.186,27.004 L139.693,26.664 L138.195,26.346 L136.691,26.052 L135.192,25.793 L133.688,25.534 L132.18,25.321 L130.673,25.109 L129.165,24.944 L127.658,24.778 L126.152,24.655 L124.645,24.531 L123.14,24.452 L121.636,24.373 L120.137,24.341 L118.639,24.309 L117.147,24.319 L115.653,24.329 L114.169,24.386 L112.684,24.442 L111.21,24.544 L109.741,24.646 L108.272,24.781 L106.813,24.939 L105.362,25.12 L103.918,25.323 L102.481,25.548 L101.054,25.797 L99.635,26.067 L98.225,26.36 L96.826,26.677 L95.437,27.016 L94.058,27.378 L92.691,27.764 L91.335,28.17 L89.991,28.601 L88.661,29.055 L87.344,29.53 L86.039,30.029 L84.75,30.552 L83.475,31.096 L82.214,31.665 L80.971,32.256 L79.742,32.869 L78.529,33.506 L77.335,34.167 L76.158,34.849 L74.998,35.556 L73.858,36.286 L72.736,37.038 L71.633,37.814 L70.552,38.614 L69.49,39.436 L68.449,40.282 L67.431,41.151 L66.433,42.043 L65.458,42.959 L64.508,43.898 L63.579,44.859 L62.675,45.845 L61.797,46.854 L60.942,47.885 L60.113,48.941 L59.311,50.02 L58.535,51.121 L57.785,52.246 L57.065,53.394 L56.37,54.564 L55.705,55.759 L55.07,56.977 L54.462,58.217 L53.886,59.481 L53.341,60.768 L52.825,62.077 L52.342,63.41 L51.891,64.766 L51.471,66.144 L51.085,67.546 L50.733,68.971 L50.414,70.418 L50.129,71.889 L49.881,73.382 L49.666,74.897 L49.487,76.437 L49.346,77.999 L49.24,79.582 L49.171,81.19 L49.142,82.82 L49.148,84.472 L49.194,86.148 L49.28,87.846 L49.404,89.566 L49.568,91.31 L49.774,93.077 L50.018,94.865 L50.305,96.677 L50.635,98.511 L51.004,100.367 L51.418,102.248 L51.876,104.151 L52.374,106.072 L52.647,107.049 L52.919,108.023 L53.214,109.009 L53.509,109.994 L53.825,110.99 L54.141,111.987 L54.481,112.995 L54.82,114.004 L55.183,115.024 L55.544,116.038 C55.688,116.441 56.131,116.652 56.534,116.509 C56.937,116.366 57.148,115.923 57.005,115.519 L56.646,114.505 L56.289,113.496 L55.956,112.5 L55.623,111.504 L55.313,110.52 L55.003,109.535 L54.714,108.562 L54.425,107.589 L54.159,106.628 L53.893,105.67 L53.405,103.77 L52.957,101.895 L52.555,100.044 L52.195,98.218 L51.874,96.413 L51.596,94.633 L51.36,92.877 L51.161,91.144 L51.004,89.435 L50.887,87.75 L50.806,86.086 L50.764,84.448 L50.761,82.834 L50.793,81.241 L50.863,79.673 L50.97,78.128 L51.11,76.606 L51.287,75.108 L51.5,73.634 L51.744,72.181 L52.024,70.753 L52.337,69.348 L52.681,67.965 L53.059,66.606 L53.469,65.27 L53.909,63.956 L54.379,62.667 L54.882,61.4 L55.413,60.154 L55.974,58.933 L56.565,57.735 L57.182,56.558 L57.828,55.405 L58.503,54.275 L59.203,53.166 L59.931,52.081 L60.686,51.019 L61.465,49.977 L62.27,48.96 L63.1,47.965 L63.954,46.992 L64.831,46.042 L65.733,45.114 L66.657,44.208 L67.604,43.325 L68.574,42.464 L69.564,41.625 L70.575,40.809 L71.608,40.015 L72.66,39.243 L73.732,38.493 L74.825,37.767 L75.935,37.061 L77.063,36.379 L78.211,35.719 L79.375,35.081 L80.556,34.465 L81.754,33.872 L82.968,33.3 L84.198,32.752 L85.443,32.227 L86.702,31.723 L87.976,31.242 L89.264,30.783 L90.564,30.346 L91.877,29.932 L93.203,29.54 L94.541,29.17 L95.889,28.824 L97.25,28.5 L98.619,28.197 L99.999,27.918 L101.389,27.661 L102.787,27.425 L104.193,27.213 L105.608,27.024 L107.03,26.856 L108.459,26.711 L109.891,26.589 L111.339,26.499 L112.782,26.408 L114.236,26.364 L115.69,26.32 L117.152,26.323 L118.615,26.326 L120.084,26.37 L121.552,26.415 L123.024,26.505 L124.495,26.595 L125.969,26.733 L127.444,26.872 L128.92,27.053 L130.394,27.233 L131.866,27.459 L133.338,27.685 L134.806,27.957 L136.28,28.228 L137.742,28.527 L139.203,28.849 L140.662,29.194 L142.116,29.56 L143.565,29.948 L145.01,30.359 L146.449,30.79 L147.883,31.239 L149.311,31.71 L150.733,32.203 L152.146,32.717 L153.551,33.255 L154.949,33.813 L156.337,34.393 L157.716,34.997 L159.086,35.621 L160.445,36.267 L161.793,36.936 L163.131,37.625 L164.456,38.337 L165.769,39.071 L167.07,39.826 L168.357,40.604 L169.63,41.404 L170.89,42.224 L172.135,43.066 L173.365,43.932 L174.58,44.817 L175.777,45.725 L176.959,46.656 L178.124,47.608 L179.271,48.581 L180.4,49.577 L181.512,50.593 L182.603,51.63 L183.676,52.691 L184.73,53.772 L185.763,54.874 L186.775,55.999 L187.767,57.145 L188.736,58.311 L189.683,59.501 L190.609,60.711 L191.511,61.942 L192.39,63.196 L193.246,64.471 L194.076,65.766 L194.881,67.085 L195.663,68.424 L196.417,69.784 L197.144,71.168 L197.846,72.572 L198.52,73.997 L199.165,75.446 L199.785,76.914 L200.374,78.404 L200.934,79.917 L201.466,81.45 L201.968,83.004 L202.438,84.581 L202.879,86.179 L203.288,87.798 L203.663,89.441 L204.009,91.103 L204.32,92.787 L204.597,94.495 L204.842,96.223 L205.053,97.971 L205.227,99.744 L205.369,101.537 L205.473,103.351 L205.541,105.188 L205.574,107.047 L205.569,108.926 L205.525,110.829 L205.446,112.752 L205.327,114.697 L205.167,116.669 L205.069,117.66 L204.971,118.654 L204.852,119.659 L204.733,120.664 L204.593,121.681 L204.453,122.698 L204.294,123.726 L204.135,124.752 L203.955,125.79 L203.775,126.828 L203.572,127.877 L203.37,128.927 L203.148,129.988 L202.926,131.047 L202.682,132.118 L202.439,133.189 L202.172,134.271 L201.906,135.354 L201.619,136.447 L201.332,137.539 L201.023,138.643 L200.713,139.746 L200.38,140.861 L200.048,141.975 L199.686,143.115 L199.304,144.232 L198.9,145.33 L198.476,146.41 L198.033,147.469 L197.568,148.51 L197.086,149.533 L196.584,150.535 L196.061,151.519 L195.522,152.485 L194.963,153.432 L194.386,154.36 L193.791,155.271 L193.18,156.162 L192.549,157.036 L191.902,157.892 L191.239,158.729 L190.557,159.548 L189.861,160.351 L189.149,161.135 L188.419,161.902 L187.675,162.652 L186.915,163.383 L186.145,164.092 L185.341,164.787 L184.545,165.476 L183.719,166.128 L182.893,166.781 L182.039,167.399 L181.181,168.018 L180.299,168.605 L179.419,169.191 L178.512,169.741 L177.605,170.292 L176.672,170.807 L175.736,171.324 L174.779,171.809 L173.823,172.294 L172.844,172.744 L171.865,173.194 L170.863,173.61 L169.858,174.027 L168.835,174.413 L167.813,174.798 L166.771,175.149 L165.729,175.5 L164.668,175.817 L163.604,176.135 L162.524,176.422 L161.446,176.709 L160.35,176.962 L159.255,177.216 L158.144,177.435 L157.03,177.656 L155.903,177.846 L154.778,178.036 L153.639,178.193 L152.501,178.35 L151.349,178.474 L150.196,178.598 L149.032,178.692 L147.87,178.787 L146.698,178.849 L145.526,178.911 L144.344,178.94 L143.161,178.97 L141.971,178.969 L140.782,178.966 L139.587,178.931 L138.391,178.897 L137.19,178.831 L135.987,178.764 L134.781,178.669 L133.576,178.574 L132.368,178.448 L131.16,178.319 L129.95,178.157 L128.739,177.995 L127.527,177.805 L126.317,177.615 L125.107,177.394 L123.897,177.174 L122.689,176.923 L121.479,176.672 L120.272,176.394 L119.066,176.118 L117.864,175.811 L116.661,175.505 L115.464,175.169 L114.265,174.832 L113.072,174.468 L111.881,174.106 L110.696,173.714 L109.512,173.324 L108.335,172.904 L107.157,172.485 L105.988,172.039 L104.82,171.593 L103.663,171.119 L102.506,170.645 L101.36,170.143 L100.213,169.641 L99.078,169.113 L97.944,168.585 L96.825,168.03 L95.705,167.475 L94.601,166.893 L93.495,166.309 L92.404,165.701 L91.315,165.094 L90.242,164.46 L89.17,163.826 L88.117,163.165 L87.062,162.504 L86.024,161.818 L84.989,161.133 L83.974,160.422 L82.96,159.711 L81.967,158.975 L80.972,158.237 L79.998,157.476 L79.026,156.716 L78.078,155.931 L77.131,155.146 L76.209,154.335 L75.285,153.523 L74.384,152.688 L73.486,151.856 L72.615,150.997 L71.745,150.14 L70.903,149.257 L70.059,148.373 L69.242,147.467 L68.428,146.563 L67.643,145.634 L66.859,144.706 L66.107,143.753 L65.353,142.8 L64.629,141.824 L63.907,140.851 L63.219,139.854 L62.531,138.858 L61.879,137.838 L61.224,136.816 L60.602,135.773 L59.982,134.733 L59.398,133.67 L58.815,132.608 L58.27,131.523 L57.72,130.429 L57.204,129.334 L56.706,128.222 L56.227,127.099 L55.767,125.965 L55.328,124.822 L54.909,123.666 L54.51,122.501 L54.132,121.326 L53.776,120.139 L53.44,118.942 L53.127,117.735 L52.836,116.517 L52.565,115.289 L52.319,114.051 L52.095,112.801 L51.893,111.542 L51.715,110.274 L51.561,108.993 L51.429,107.703 L51.323,106.404 L51.241,105.092 L51.182,103.772 L51.15,102.442 L51.142,101.1 L51.16,99.749 L51.203,98.389 L51.273,97.017 L51.368,95.636 L51.491,94.245 L51.641,92.843 L51.816,91.432 L52.02,90.012 L52.253,88.58 L52.512,87.139 L52.799,85.69 L53.117,84.228 L53.462,82.758 L53.837,81.279 L54.242,79.789 L54.675,78.289 L55.139,76.781 L55.64,75.248 C55.96,74.264 55.421,73.206 54.436,72.886 C53.451,72.566 52.393,73.105 52.073,74.09 Z" id="Fill-127"></path>
            <path d="M168.857,13.075 L170.082,13.794 L171.296,14.506 L172.482,15.224 L173.667,15.942 L174.824,16.668 L175.982,17.393 L177.114,18.125 L178.245,18.855 L179.348,19.592 L180.451,20.329 L181.526,21.072 L182.603,21.816 L183.654,22.565 L184.704,23.313 L185.726,24.067 L186.749,24.82 L187.744,25.58 L188.74,26.34 L189.712,27.104 L190.682,27.868 L191.626,28.637 L192.57,29.406 L193.486,30.18 L194.405,30.955 L195.298,31.734 L196.191,32.512 L197.057,33.295 L197.924,34.077 L198.764,34.864 L199.605,35.652 L200.423,36.444 L201.239,37.235 L202.03,38.03 L202.821,38.824 L203.586,39.623 L204.352,40.422 L205.096,41.225 L205.838,42.027 L206.555,42.832 L207.272,43.638 L207.963,44.446 L208.657,45.256 L209.327,46.068 L209.996,46.879 L210.641,47.694 L211.286,48.508 L211.906,49.325 L212.528,50.143 L213.127,50.964 L213.725,51.783 L214.3,52.604 L214.874,53.426 L215.424,54.25 L215.973,55.07 L217.035,56.728 L218.046,58.383 L219.012,60.043 L219.936,61.706 L220.814,63.37 L221.647,65.038 L222.44,66.709 L223.187,68.379 L223.891,70.052 L224.555,71.727 L225.175,73.401 L225.754,75.077 L226.294,76.753 L226.791,78.427 L227.247,80.103 L227.665,81.778 L228.041,83.451 L228.378,85.124 L228.678,86.795 L228.937,88.463 L229.157,90.13 L229.342,91.796 L229.487,93.456 L229.594,95.116 L229.667,96.772 L229.701,98.422 L229.698,100.071 L229.661,101.715 L229.588,103.353 L229.478,104.987 L229.335,106.617 L229.157,108.239 L228.942,109.857 L228.697,111.469 L228.416,113.073 L228.101,114.672 L227.755,116.264 L227.377,117.847 L226.964,119.423 L226.522,120.992 L226.047,122.55 L225.54,124.102 L225.003,125.644 L224.435,127.176 L223.836,128.698 L223.208,130.212 L222.55,131.714 L221.862,133.205 L221.146,134.687 L220.401,136.155 L219.627,137.612 L218.825,139.059 L217.996,140.491 L217.138,141.911 L216.255,143.318 L215.345,144.711 L214.407,146.091 L213.445,147.457 L212.456,148.807 L211.441,150.143 L210.402,151.465 L209.339,152.77 L208.251,154.06 L207.14,155.336 L206.006,156.593 L204.847,157.834 L203.666,159.058 L202.463,160.264 L201.235,161.451 L199.987,162.622 L198.719,163.774 L197.427,164.907 L196.116,166.022 L194.785,167.116 L193.431,168.19 L192.059,169.245 L190.668,170.278 L189.255,171.289 L187.823,172.279 L186.372,173.243 L184.901,174.185 L183.413,175.106 L181.909,176.003 L180.386,176.877 L178.847,177.728 L177.292,178.554 L175.718,179.354 L174.129,180.129 L172.526,180.878 L170.906,181.602 L169.272,182.301 L167.625,182.973 L165.962,183.618 L164.287,184.238 L162.599,184.83 L160.897,185.395 L159.183,185.933 L157.458,186.442 L155.719,186.922 L153.97,187.375 L152.211,187.798 L150.439,188.191 L148.657,188.556 L146.867,188.89 L145.065,189.193 L143.254,189.467 L141.435,189.709 L139.606,189.919 L137.769,190.099 L135.925,190.246 L134.072,190.36 L132.212,190.443 L130.346,190.493 L128.472,190.508 L126.592,190.491 L124.707,190.439 L122.815,190.352 L120.918,190.232 L119.017,190.076 L117.11,189.884 L115.199,189.658 L113.285,189.395 L111.366,189.094 L109.444,188.759 L107.52,188.385 L105.588,187.973 L104.626,187.751 L103.661,187.528 L102.696,187.285 L101.73,187.042 L100.764,186.779 L99.796,186.516 L98.828,186.235 L97.86,185.954 L96.893,185.653 L95.925,185.352 L94.957,185.03 L93.988,184.708 L93.018,184.368 L92.05,184.027 L91.082,183.666 L90.114,183.306 L89.146,182.924 L88.176,182.541 L87.208,182.14 L86.24,181.739 L85.272,181.316 L84.305,180.894 L83.338,180.45 L82.371,180.006 L81.404,179.541 L80.438,179.078 L79.473,178.593 L78.508,178.108 L77.544,177.6 L76.579,177.093 L75.616,176.565 L74.653,176.037 L73.692,175.487 L72.731,174.938 L71.772,174.365 L70.812,173.792 L69.853,173.198 L68.896,172.605 L67.94,171.989 L66.984,171.374 L66.031,170.735 L65.076,170.095 L64.124,169.435 L63.173,168.775 L62.224,168.091 L61.275,167.408 L60.329,166.7 L59.382,165.992 L58.438,165.263 L57.494,164.534 L56.554,163.781 L55.614,163.028 L54.677,162.25 L53.739,161.472 L52.805,160.672 L51.871,159.873 L50.941,159.049 L50.011,158.224 L49.084,157.375 L48.157,156.526 L47.234,155.653 L46.311,154.782 L45.393,153.885 L44.474,152.988 L43.56,152.066 L42.645,151.143 L41.735,150.197 L40.825,149.252 L39.92,148.28 L39.014,147.309 L38.114,146.312 L37.213,145.315 L36.317,144.293 L35.421,143.272 L34.531,142.225 L33.64,141.178 L32.756,140.105 L31.869,139.03 L31.108,138.082 L30.347,137.134 L29.608,136.189 L28.868,135.245 L28.152,134.304 L27.435,133.363 L26.739,132.425 L26.044,131.487 L25.37,130.554 L24.697,129.62 L24.045,128.691 L23.393,127.761 L22.761,126.834 L22.13,125.908 L21.52,124.987 L20.91,124.065 L20.322,123.148 L19.733,122.23 L19.164,121.315 L18.596,120.402 L18.048,119.493 L17.501,118.583 L16.975,117.679 L16.448,116.773 L15.941,115.872 L15.433,114.971 L14.947,114.076 L14.461,113.18 L13.995,112.288 L13.529,111.396 L13.081,110.509 L12.636,109.625 L11.782,107.857 L10.969,106.102 L10.193,104.356 L9.457,102.621 L8.76,100.895 L8.098,99.179 L7.476,97.474 L6.891,95.779 L6.341,94.095 L5.829,92.422 L5.355,90.76 L4.913,89.108 L4.509,87.468 L4.141,85.839 L3.806,84.221 L3.507,82.616 L3.243,81.022 L3.012,79.439 L2.815,77.87 L2.652,76.312 L2.52,74.765 L2.423,73.233 L2.359,71.712 L2.325,70.203 L2.324,68.708 L2.356,67.226 L2.417,65.755 L2.51,64.3 L2.635,62.857 L2.789,61.427 L2.973,60.011 L3.188,58.609 L3.431,57.22 L3.703,55.846 L4.005,54.485 L4.335,53.138 L4.693,51.806 L5.08,50.488 L5.493,49.184 L5.935,47.896 L6.404,46.622 L6.899,45.362 L7.42,44.119 L7.969,42.89 L8.542,41.676 L9.141,40.478 L9.767,39.295 L10.416,38.127 L11.09,36.976 L11.79,35.841 L12.513,34.72 L13.26,33.617 L14.032,32.53 L14.826,31.459 L15.642,30.405 L16.482,29.367 L17.342,28.343 L18.223,27.337 L19.129,26.348 L20.054,25.375 L21.001,24.42 L21.971,23.483 L22.961,22.563 L23.971,21.661 L25.002,20.777 L26.053,19.91 L27.122,19.061 L28.212,18.23 L29.32,17.416 L30.447,16.622 L31.594,15.847 L32.758,15.089 L33.941,14.352 L35.142,13.634 L36.36,12.934 L37.596,12.255 L38.85,11.598 L40.12,10.959 L41.406,10.341 L42.709,9.744 L44.028,9.166 L45.361,8.609 L46.711,8.074 L48.075,7.558 L49.453,7.064 L50.847,6.591 L52.254,6.14 L53.675,5.71 L55.11,5.303 L56.558,4.917 L58.018,4.553 L59.492,4.212 L60.977,3.891 L62.473,3.594 L63.983,3.32 L65.503,3.068 L67.034,2.84 L68.576,2.635 L70.129,2.452 L71.691,2.294 L73.263,2.159 L74.845,2.047 L76.436,1.959 L78.036,1.895 L79.645,1.855 L81.261,1.84 L82.887,1.85 L84.519,1.883 L86.159,1.941 L87.807,2.025 L89.461,2.133 L91.121,2.266 L92.788,2.426 L94.461,2.609 L96.139,2.819 L97.823,3.056 L99.512,3.317 L101.205,3.605 L102.903,3.919 L104.605,4.259 L106.31,4.625 L108.02,5.019 L109.733,5.439 L111.448,5.886 L113.166,6.36 L114.887,6.861 L116.609,7.389 L118.334,7.946 L120.059,8.529 L121.786,9.14 L123.514,9.781 L125.243,10.447 L126.971,11.143 L128.7,11.868 L130.428,12.62 L132.156,13.401 L133.882,14.213 L135.608,15.052 L137.331,15.921 L139.053,16.82 L140.773,17.747 L142.49,18.704 L144.207,19.693 L145.061,20.2 L145.917,20.708 L146.771,21.232 L147.625,21.755 L148.477,22.294 L149.329,22.834 L150.18,23.387 L151.03,23.941 L151.878,24.51 L152.726,25.079 L153.572,25.663 L154.418,26.249 L155.262,26.848 L156.105,27.447 L156.946,28.062 L157.787,28.678 L158.625,29.309 L159.464,29.94 L160.299,30.586 L161.135,31.232 L161.967,31.894 L162.799,32.556 L163.629,33.235 L164.458,33.913 L165.284,34.607 L166.11,35.3 L166.933,36.009 L167.755,36.719 L168.574,37.445 L169.393,38.171 L170.208,38.912 L171.024,39.653 L171.835,40.411 L172.646,41.169 L173.453,41.943 L174.26,42.718 L175.064,43.508 L175.867,44.298 L176.666,45.104 L177.464,45.911 L178.258,46.734 L179.053,47.558 L179.843,48.397 L180.632,49.236 L181.417,50.092 L182.202,50.948 L182.981,51.821 L183.761,52.695 L184.536,53.584 L185.311,54.473 L186.081,55.379 L186.85,56.286 L187.614,57.209 L188.379,58.133 L189.138,59.073 L189.896,60.013 L190.649,60.97 L191.402,61.927 L192.149,62.902 L192.896,63.877 L193.638,64.868 L194.379,65.859 L195.114,66.868 L195.849,67.876 L196.577,68.903 L197.308,69.933 C197.556,70.283 198.04,70.365 198.389,70.118 C198.738,69.87 198.821,69.387 198.573,69.037 L197.844,68.006 L197.111,66.97 L196.372,65.952 L195.633,64.935 L194.887,63.935 L194.142,62.935 L193.391,61.952 L192.639,60.968 L191.882,60.002 L191.124,59.036 L190.361,58.087 L189.597,57.139 L188.829,56.207 L188.06,55.274 L187.285,54.359 L186.51,53.443 L185.73,52.545 L184.95,51.648 L184.165,50.766 L183.38,49.884 L182.59,49.019 L181.799,48.154 L181.004,47.306 L180.208,46.459 L179.409,45.627 L178.608,44.794 L177.804,43.979 L176.999,43.164 L176.189,42.365 L175.38,41.567 L174.567,40.784 L173.753,40.001 L172.935,39.235 L172.117,38.468 L171.295,37.719 L170.473,36.969 L169.648,36.235 L168.822,35.5 L167.993,34.782 L167.163,34.064 L166.329,33.363 L165.496,32.662 L164.66,31.975 L163.824,31.289 L162.983,30.618 L162.143,29.948 L161.3,29.294 L160.457,28.64 L159.612,28.001 L158.765,27.362 L157.916,26.739 L157.067,26.115 L156.215,25.508 L155.364,24.901 L154.51,24.309 L153.656,23.716 L152.799,23.139 L151.942,22.563 L151.083,22.002 L150.224,21.441 L149.364,20.895 L148.503,20.348 L147.64,19.817 L146.777,19.286 L145.912,18.77 L145.046,18.254 L143.315,17.252 L141.579,16.28 L139.841,15.339 L138.1,14.426 L136.357,13.543 L134.612,12.691 L132.867,11.865 L131.119,11.069 L129.371,10.303 L127.622,9.564 L125.873,8.855 L124.124,8.175 L122.375,7.521 L120.626,6.897 L118.879,6.302 L117.133,5.733 L115.388,5.192 L113.645,4.68 L111.904,4.194 L110.165,3.736 L108.429,3.307 L106.696,2.902 L104.966,2.526 L103.24,2.177 L101.518,1.853 L99.8,1.556 L98.086,1.287 L96.378,1.042 L94.673,0.824 L92.975,0.633 L91.283,0.466 L89.595,0.325 L87.915,0.21 L86.241,0.119 L84.574,0.054 L82.914,0.015 L81.262,0 L79.616,0.01 L77.98,0.045 L76.352,0.103 L74.731,0.186 L73.121,0.294 L71.519,0.424 L69.927,0.58 L68.345,0.759 L66.773,0.961 L65.211,1.188 L63.66,1.438 L62.12,1.709 L60.591,2.005 L59.075,2.324 L57.569,2.664 L56.076,3.028 L54.596,3.415 L53.128,3.824 L51.673,4.255 L50.233,4.709 L48.805,5.183 L47.39,5.679 L45.992,6.198 L44.606,6.737 L43.236,7.298 L41.882,7.881 L40.542,8.484 L39.218,9.109 L37.912,9.756 L36.62,10.421 L35.345,11.107 L34.087,11.813 L32.846,12.539 L31.622,13.286 L30.418,14.054 L29.23,14.84 L28.061,15.648 L26.912,16.475 L25.781,17.321 L24.669,18.187 L23.58,19.074 L22.51,19.98 L21.46,20.905 L20.432,21.85 L19.424,22.812 L18.437,23.794 L17.474,24.794 L16.531,25.812 L15.611,26.849 L14.714,27.903 L13.841,28.976 L12.993,30.069 L12.17,31.179 L11.369,32.305 L10.593,33.45 L9.843,34.612 L9.116,35.789 L8.415,36.985 L7.741,38.196 L7.091,39.423 L6.468,40.667 L5.873,41.927 L5.303,43.202 L4.76,44.494 L4.247,45.801 L3.759,47.123 L3.3,48.461 L2.871,49.813 L2.469,51.18 L2.096,52.563 L1.754,53.959 L1.44,55.369 L1.156,56.795 L0.904,58.234 L0.68,59.686 L0.488,61.153 L0.328,62.633 L0.198,64.125 L0.1,65.632 L0.035,67.151 L0,68.683 L0,70.228 L0.032,71.785 L0.096,73.354 L0.194,74.936 L0.327,76.53 L0.492,78.135 L0.692,79.753 L0.928,81.381 L1.196,83.021 L1.501,84.673 L1.843,86.335 L2.217,88.007 L2.63,89.692 L3.079,91.386 L3.563,93.09 L4.085,94.806 L4.645,96.531 L5.24,98.266 L5.874,100.012 L6.547,101.766 L7.256,103.53 L8.005,105.304 L8.794,107.087 L9.619,108.878 L10.484,110.677 L10.939,111.585 L11.391,112.49 L11.863,113.399 L12.335,114.308 L12.827,115.222 L13.32,116.136 L13.834,117.054 L14.347,117.972 L14.879,118.894 L15.412,119.816 L15.965,120.742 L16.519,121.668 L17.095,122.599 L17.67,123.529 L18.264,124.462 L18.858,125.397 L19.475,126.335 L20.091,127.273 L20.729,128.215 L21.367,129.157 L22.025,130.102 L22.683,131.047 L23.363,131.997 L24.044,132.946 L24.746,133.899 L25.448,134.852 L26.17,135.807 L26.893,136.764 L27.638,137.724 L28.383,138.684 L29.151,139.648 L29.919,140.612 L30.81,141.702 L31.703,142.794 L32.602,143.859 L33.501,144.925 L34.405,145.964 L35.309,147.002 L36.219,148.017 L37.129,149.033 L38.044,150.022 L38.959,151.012 L39.879,151.976 L40.799,152.939 L41.724,153.879 L42.649,154.82 L43.579,155.735 L44.509,156.651 L45.444,157.541 L46.378,158.43 L47.316,159.297 L48.255,160.164 L49.199,161.007 L50.142,161.849 L51.09,162.667 L52.037,163.484 L52.987,164.279 L53.939,165.075 L54.894,165.846 L55.849,166.617 L56.807,167.364 L57.765,168.11 L58.727,168.835 L59.689,169.56 L60.654,170.261 L61.619,170.962 L62.587,171.64 L63.555,172.317 L64.525,172.972 L65.496,173.628 L66.47,174.261 L67.444,174.894 L68.42,175.503 L69.396,176.112 L70.374,176.7 L71.353,177.288 L72.334,177.853 L73.315,178.419 L74.297,178.961 L75.28,179.503 L76.263,180.025 L77.248,180.547 L78.234,181.047 L79.22,181.547 L80.208,182.025 L81.194,182.501 L82.182,182.958 L83.171,183.416 L84.161,183.851 L85.151,184.287 L86.142,184.701 L87.132,185.114 L88.122,185.508 L89.113,185.902 L90.105,186.275 L91.097,186.648 L92.09,186.999 L93.081,187.351 L94.072,187.683 L95.064,188.016 L96.056,188.327 L97.049,188.639 L98.041,188.93 L99.032,189.221 L100.022,189.493 L101.014,189.765 L102.004,190.017 L102.995,190.269 L103.985,190.501 L104.978,190.734 L106.952,191.16 L108.928,191.547 L110.9,191.895 L112.869,192.206 L114.836,192.48 L116.797,192.715 L118.755,192.916 L120.709,193.079 L122.657,193.205 L124.6,193.297 L126.538,193.353 L128.469,193.373 L130.393,193.36 L132.312,193.312 L134.223,193.229 L136.126,193.115 L138.023,192.965 L139.909,192.782 L141.788,192.568 L143.659,192.32 L145.518,192.04 L147.369,191.73 L149.211,191.388 L151.04,191.015 L152.86,190.612 L154.669,190.178 L156.466,189.713 L158.251,189.221 L160.025,188.699 L161.785,188.147 L163.533,187.569 L165.268,186.961 L166.988,186.325 L168.695,185.663 L170.389,184.973 L172.066,184.256 L173.729,183.514 L175.378,182.745 L177.009,181.95 L178.626,181.132 L180.228,180.29 L181.812,179.423 L183.38,178.533 L184.931,177.618 L186.464,176.679 L187.979,175.718 L189.476,174.732 L190.954,173.726 L192.416,172.701 L193.858,171.652 L195.28,170.582 L196.683,169.491 L198.066,168.378 L199.426,167.245 L200.767,166.092 L202.086,164.917 L203.381,163.722 L204.655,162.509 L205.907,161.275 L207.134,160.022 L208.339,158.752 L209.521,157.463 L210.677,156.157 L211.811,154.834 L212.918,153.491 L213.999,152.132 L215.055,150.757 L216.086,149.365 L217.089,147.958 L218.067,146.536 L219.018,145.098 L219.94,143.646 L220.836,142.18 L221.703,140.698 L222.541,139.204 L223.352,137.697 L224.133,136.175 L224.884,134.642 L225.606,133.097 L226.298,131.538 L226.958,129.969 L227.588,128.389 L228.186,126.796 L228.751,125.193 L229.286,123.581 L229.788,121.957 L230.256,120.325 L230.692,118.684 L231.095,117.033 L231.462,115.374 L231.796,113.707 L232.094,112.031 L232.356,110.349 L232.585,108.66 L232.777,106.963 L232.932,105.26 L233.052,103.553 L233.135,101.837 L233.179,100.118 L233.187,98.395 L233.157,96.665 L233.087,94.932 L232.98,93.196 L232.833,91.455 L232.646,89.713 L232.421,87.968 L232.155,86.219 L231.847,84.47 L231.501,82.719 L231.112,80.966 L230.68,79.213 L230.209,77.461 L229.694,75.706 L229.136,73.954 L228.538,72.203 L227.894,70.451 L227.205,68.703 L226.476,66.957 L225.7,65.211 L224.879,63.47 L224.016,61.731 L223.105,59.995 L222.149,58.264 L221.149,56.538 L220.1,54.814 L219.008,53.102 L218.436,52.242 L217.866,51.385 L217.272,50.531 L216.678,49.677 L216.059,48.827 L215.441,47.977 L214.801,47.131 L214.16,46.283 L213.494,45.439 L212.828,44.594 L212.138,43.754 L211.448,42.914 L210.736,42.078 L210.022,41.241 L209.283,40.408 L208.544,39.575 L207.78,38.746 L207.017,37.918 L206.231,37.094 L205.443,36.269 L204.63,35.448 L203.817,34.627 L202.978,33.811 L202.139,32.997 L201.278,32.186 L200.415,31.375 L199.526,30.568 L198.637,29.762 L197.721,28.96 L196.807,28.16 L195.868,27.364 L194.928,26.568 L193.962,25.777 L192.995,24.986 L192.002,24.201 L191.01,23.417 L189.993,22.638 L188.975,21.858 L187.93,21.084 L186.885,20.31 L185.812,19.543 L184.74,18.776 L183.644,18.015 L182.546,17.253 L181.42,16.498 L180.295,15.742 L179.141,14.994 L177.989,14.246 L176.811,13.504 L175.632,12.762 L174.424,12.027 L173.217,11.291 L171.981,10.563 L170.757,9.842 C169.864,9.317 168.715,9.616 168.19,10.509 C167.666,11.401 167.964,12.55 168.857,13.075 Z" id="Fill-137"></path>
        </g>
    </g>
</svg>
