<?xml version="1.0" encoding="UTF-8"?>
<svg width="281px" height="218px" viewBox="0 0 281 218" version="1.1" xmlns="http://www.w3.org/2000/svg" xmlns:xlink="http://www.w3.org/1999/xlink">
    <title>33</title>
    <g id="Page-1" stroke="none" stroke-width="1" fill="none" fill-rule="evenodd">
        <g id="33" transform="translate(0.862000, 0.751000)" fill="currentColor">
            <path d="M84.192,154.074 C48.235,160.956 20.421,90.219 60.034,47.87 C85.395,20.758 272.075,1.159 257.195,111.132 C241.488,227.218 88.264,199.143 49.248,153.631" id="Fill-124"></path>
            <path d="M83.876,152.226 L82.796,152.412 L81.763,152.543 L80.734,152.627 L79.711,152.669 L78.698,152.666 L77.689,152.617 L76.686,152.529 L75.694,152.397 L74.706,152.222 L73.724,152.008 L72.754,151.754 L71.787,151.456 L70.828,151.122 L69.881,150.749 L68.939,150.334 L68.005,149.884 L67.084,149.396 L66.169,148.869 L65.264,148.307 L64.372,147.71 L63.489,147.074 L62.616,146.406 L61.758,145.704 L60.91,144.965 L60.074,144.196 L59.254,143.395 L58.446,142.559 L57.651,141.694 L56.874,140.799 L56.11,139.872 L55.361,138.918 L54.631,137.936 L53.916,136.923 L53.217,135.886 L52.538,134.822 L51.876,133.731 L51.232,132.617 L50.608,131.479 L50.003,130.316 L49.418,129.131 L48.853,127.925 L48.31,126.696 L47.787,125.448 L47.287,124.181 L46.809,122.892 L46.352,121.587 L45.919,120.265 L45.51,118.924 L45.124,117.568 L44.763,116.198 L44.427,114.811 L44.114,113.411 L43.828,111.999 L43.568,110.573 L43.333,109.136 L43.126,107.689 L42.947,106.231 L42.793,104.763 L42.668,103.288 L42.573,101.803 L42.504,100.311 L42.465,98.814 L42.456,97.309 L42.476,95.8 L42.526,94.288 L42.609,92.77 L42.72,91.249 L42.864,89.728 L43.041,88.204 L43.248,86.678 L43.488,85.155 L43.763,83.63 L44.069,82.106 L44.41,80.586 L44.786,79.068 L45.195,77.552 L45.639,76.042 L46.121,74.536 L46.635,73.035 L47.187,71.541 L47.777,70.053 L48.401,68.573 L49.063,67.102 L49.765,65.639 L50.503,64.184 L51.279,62.742 L52.095,61.309 L52.949,59.887 L53.843,58.479 L54.779,57.082 L55.753,55.699 L56.769,54.331 L57.828,52.978 L58.927,51.638 L60.067,50.317 L61.259,49.006 L61.623,48.627 L62.019,48.241 L62.444,47.852 L62.894,47.462 L63.37,47.071 L63.874,46.679 L64.403,46.286 L64.956,45.894 L65.536,45.501 L66.14,45.109 L66.767,44.719 L67.409,44.335 L68.793,43.551 L70.258,42.782 L71.815,42.021 L73.454,41.268 L75.176,40.528 L76.987,39.797 L77.922,39.441 L78.861,39.081 L79.838,38.729 L80.815,38.377 L81.829,38.033 L82.845,37.688 L83.893,37.351 L84.94,37.014 L86.021,36.686 L87.103,36.358 L88.217,36.039 L89.333,35.72 L90.478,35.41 L91.621,35.098 L92.795,34.797 L93.969,34.496 L95.172,34.206 L96.376,33.915 L97.605,33.634 L98.834,33.354 L100.089,33.085 L101.344,32.816 L102.624,32.559 L103.906,32.305 L105.21,32.064 L106.513,31.822 L107.839,31.594 L109.165,31.365 L110.512,31.15 L111.859,30.935 L113.225,30.733 L114.591,30.53 L115.975,30.343 L117.359,30.158 L118.761,29.988 L120.164,29.818 L121.581,29.661 L122.997,29.505 L124.429,29.364 L125.86,29.223 L127.305,29.099 L128.75,28.974 L130.207,28.864 L131.663,28.754 L133.13,28.662 L134.597,28.569 L136.073,28.494 L137.551,28.418 L139.036,28.359 L140.52,28.3 L142.011,28.259 L143.503,28.217 L145,28.195 L146.497,28.172 L148,28.167 L149.501,28.161 L151.005,28.175 L152.51,28.19 L154.016,28.224 L155.523,28.257 L157.031,28.309 L158.538,28.361 L160.045,28.434 L161.551,28.506 L163.056,28.6 L164.561,28.694 L166.064,28.808 L167.565,28.921 L169.063,29.056 L170.56,29.192 L172.052,29.349 L173.544,29.507 L175.03,29.686 L176.515,29.864 L177.992,30.066 L179.469,30.267 L180.936,30.492 L182.405,30.716 L183.863,30.963 L185.321,31.209 L186.766,31.48 L188.211,31.75 L189.644,32.046 L191.076,32.341 L192.496,32.66 L193.915,32.978 L195.317,33.323 L196.72,33.666 L198.105,34.037 L199.492,34.407 L200.861,34.802 L202.23,35.196 L203.578,35.617 L204.927,36.037 L206.254,36.485 L207.583,36.934 L208.892,37.407 L210.199,37.88 L211.482,38.381 L212.766,38.882 L214.025,39.411 L215.285,39.941 L216.521,40.497 L217.756,41.052 L218.964,41.636 L220.171,42.219 L221.35,42.833 L222.531,43.447 L223.684,44.089 L224.836,44.729 L225.957,45.4 L227.077,46.07 L228.166,46.772 L229.255,47.474 L230.315,48.205 L231.373,48.934 L232.396,49.695 L233.419,50.456 L234.406,51.249 L235.399,52.046 L236.358,52.857 L237.301,53.688 L238.226,54.535 L239.133,55.398 L240.019,56.276 L240.887,57.171 L241.736,58.082 L242.563,59.009 L243.371,59.953 L244.159,60.913 L244.925,61.889 L245.67,62.884 L246.396,63.894 L247.098,64.921 L247.778,65.967 L248.438,67.028 L249.074,68.107 L249.687,69.205 L250.278,70.319 L250.845,71.451 L251.388,72.602 L251.909,73.771 L252.405,74.957 L252.875,76.163 L253.322,77.387 L253.743,78.628 L254.138,79.891 L254.509,81.171 L254.853,82.47 L255.17,83.789 L255.462,85.127 L255.726,86.484 L255.962,87.862 L256.173,89.259 L256.354,90.676 L256.507,92.114 L256.632,93.571 L256.728,95.048 L256.794,96.548 L256.832,98.066 L256.84,99.605 L256.815,101.167 L256.762,102.748 L256.676,104.349 L256.559,105.974 L256.412,107.618 L256.232,109.284 L256.019,110.973 L255.767,112.759 L255.493,114.522 L255.196,116.26 L254.879,117.977 L254.54,119.669 L254.179,121.339 L253.799,122.986 L253.398,124.61 L252.975,126.211 L252.534,127.79 L252.072,129.346 L251.589,130.88 L251.088,132.392 L250.568,133.882 L250.028,135.349 L249.47,136.796 L248.892,138.219 L248.295,139.621 L247.681,141.003 L247.049,142.361 L246.398,143.699 L245.731,145.017 L245.046,146.312 L244.343,147.587 L243.624,148.842 L242.888,150.075 L242.134,151.288 L241.366,152.481 L240.581,153.653 L239.779,154.804 L238.962,155.937 L238.131,157.049 L237.283,158.141 L236.42,159.214 L235.543,160.267 L234.65,161.3 L233.744,162.316 L232.823,163.31 L231.888,164.286 L230.939,165.244 L229.977,166.182 L229,167.101 L228.011,168.003 L227.01,168.886 L225.997,169.753 L224.972,170.602 L223.934,171.433 L222.887,172.243 L221.815,173.033 L220.747,173.82 L219.655,174.57 L218.564,175.321 L217.449,176.035 L216.333,176.752 L215.197,177.437 L214.062,178.121 L212.906,178.77 L211.749,179.419 L210.572,180.033 L209.393,180.649 L208.195,181.232 L206.999,181.815 L205.784,182.364 L204.567,182.911 L203.333,183.425 L202.096,183.939 L200.845,184.423 L199.594,184.907 L198.327,185.357 L197.059,185.808 L195.776,186.227 L194.492,186.646 L193.193,187.035 L191.896,187.423 L190.585,187.78 L189.274,188.137 L187.95,188.462 L186.624,188.788 L185.288,189.086 L183.953,189.384 L182.606,189.651 L181.259,189.919 L179.902,190.155 L178.543,190.392 L177.176,190.602 L175.81,190.812 L174.436,190.993 L173.061,191.174 L171.678,191.326 L170.295,191.479 L168.905,191.605 L167.516,191.731 L166.122,191.829 L164.727,191.928 L163.327,191.999 L161.926,192.069 L160.522,192.116 L159.118,192.162 L157.711,192.182 L156.304,192.202 L154.894,192.195 L153.484,192.189 L152.073,192.158 L150.662,192.128 L149.25,192.073 L147.839,192.018 L146.428,191.938 L145.016,191.858 L143.605,191.756 L142.195,191.653 L140.787,191.527 L139.379,191.401 L137.974,191.252 L136.568,191.102 L135.166,190.931 L133.764,190.761 L132.367,190.568 L130.97,190.375 L129.579,190.159 L128.187,189.944 L126.801,189.709 L125.415,189.474 L124.037,189.218 L122.659,188.961 L121.29,188.684 L119.919,188.407 L118.558,188.111 L117.196,187.815 L115.845,187.499 L114.494,187.183 L113.154,186.847 L111.813,186.511 L110.483,186.158 L109.154,185.805 L107.837,185.433 L106.52,185.062 L105.217,184.672 L103.914,184.281 L102.624,183.875 L101.334,183.469 L100.059,183.045 L98.785,182.622 L97.527,182.181 L96.269,181.741 L95.026,181.286 L93.784,180.83 L92.559,180.359 L91.335,179.888 L90.13,179.401 L88.924,178.914 L87.736,178.414 L86.549,177.913 L85.383,177.398 L84.216,176.884 L83.072,176.354 L81.926,175.825 L80.801,175.283 L79.677,174.742 L78.576,174.187 L77.476,173.632 L76.399,173.065 L75.322,172.497 L74.268,171.918 L73.214,171.34 L72.187,170.749 L71.159,170.158 L70.159,169.557 L69.158,168.954 L68.182,168.342 L67.208,167.73 L66.261,167.108 L65.315,166.486 L64.398,165.853 L63.481,165.221 L62.592,164.579 L61.703,163.939 L60.846,163.289 L59.988,162.639 L59.163,161.98 L58.337,161.321 L57.542,160.655 L56.747,159.989 L55.987,159.316 L55.226,158.643 L54.5,157.962 L53.776,157.284 L52.387,155.908 L51.074,154.523 L49.828,153.117 C49.544,152.796 49.055,152.767 48.734,153.05 C48.413,153.334 48.383,153.824 48.667,154.144 L49.929,155.572 L51.273,156.996 L52.688,158.401 L53.431,159.1 L54.172,159.798 L54.948,160.487 L55.724,161.176 L56.534,161.857 L57.342,162.536 L58.181,163.208 L59.021,163.881 L59.892,164.544 L60.764,165.207 L61.667,165.86 L62.568,166.513 L63.498,167.156 L64.428,167.8 L65.388,168.434 L66.347,169.067 L67.336,169.689 L68.323,170.311 L69.336,170.923 L70.349,171.535 L71.389,172.135 L72.429,172.735 L73.495,173.323 L74.56,173.911 L75.648,174.487 L76.737,175.063 L77.85,175.626 L78.962,176.189 L80.099,176.739 L81.234,177.288 L82.39,177.825 L83.547,178.362 L84.725,178.885 L85.903,179.407 L87.102,179.915 L88.3,180.422 L89.517,180.916 L90.733,181.41 L91.969,181.888 L93.205,182.366 L94.459,182.828 L95.712,183.29 L96.982,183.736 L98.251,184.183 L99.537,184.613 L100.823,185.043 L102.124,185.455 L103.425,185.867 L104.739,186.263 L106.054,186.66 L107.382,187.038 L108.711,187.415 L110.052,187.775 L111.392,188.134 L112.744,188.475 L114.096,188.817 L115.46,189.139 L116.823,189.461 L118.196,189.764 L119.569,190.066 L120.95,190.35 L122.332,190.633 L123.723,190.896 L125.113,191.159 L126.511,191.4 L127.909,191.642 L129.313,191.863 L130.717,192.085 L132.127,192.284 L133.538,192.483 L134.953,192.659 L136.367,192.836 L137.786,192.991 L139.205,193.146 L140.628,193.278 L142.05,193.409 L143.475,193.517 L144.899,193.624 L146.325,193.709 L147.751,193.794 L149.178,193.854 L150.605,193.914 L152.032,193.949 L153.458,193.983 L154.883,193.994 L156.309,194.005 L157.733,193.99 L159.157,193.975 L160.578,193.934 L161.999,193.892 L163.416,193.825 L164.834,193.759 L166.247,193.664 L167.661,193.57 L169.069,193.447 L170.476,193.325 L171.878,193.177 L173.281,193.029 L174.676,192.852 L176.072,192.675 L177.459,192.468 L178.846,192.261 L180.224,192.027 L181.603,191.793 L182.973,191.529 L184.343,191.265 L185.702,190.97 L187.061,190.675 L188.409,190.352 L189.758,190.028 L191.095,189.672 L192.431,189.317 L193.755,188.929 L195.077,188.541 L196.387,188.125 L197.698,187.708 L198.994,187.257 L200.291,186.807 L201.571,186.323 L202.85,185.839 L204.114,185.324 L205.38,184.808 L206.627,184.258 L207.876,183.709 L209.106,183.125 L210.335,182.542 L211.546,181.926 L212.759,181.309 L213.951,180.657 L215.144,180.004 L216.315,179.314 L217.486,178.625 L218.635,177.902 L219.785,177.176 L220.912,176.413 L222.04,175.649 L223.143,174.848 L224.241,174.05 L225.33,173.22 L226.403,172.372 L227.463,171.506 L228.511,170.622 L229.545,169.716 L230.563,168.789 L231.568,167.844 L232.559,166.878 L233.536,165.893 L234.499,164.89 L235.448,163.866 L236.381,162.822 L237.3,161.759 L238.205,160.675 L239.092,159.571 L239.965,158.448 L240.823,157.304 L241.663,156.139 L242.488,154.956 L243.296,153.75 L244.087,152.523 L244.862,151.278 L245.619,150.01 L246.359,148.721 L247.082,147.413 L247.787,146.082 L248.473,144.73 L249.142,143.358 L249.792,141.964 L250.423,140.548 L251.036,139.111 L251.63,137.652 L252.204,136.172 L252.76,134.67 L253.296,133.146 L253.811,131.599 L254.307,130.032 L254.783,128.441 L255.237,126.827 L255.672,125.193 L256.085,123.535 L256.476,121.854 L256.847,120.152 L257.196,118.425 L257.523,116.676 L257.829,114.905 L258.112,113.109 L258.372,111.29 L258.593,109.562 L258.78,107.854 L258.934,106.168 L259.058,104.501 L259.149,102.854 L259.207,101.228 L259.236,99.622 L259.233,98.035 L259.199,96.469 L259.136,94.922 L259.042,93.393 L258.917,91.887 L258.764,90.398 L258.581,88.928 L258.368,87.48 L258.128,86.049 L257.858,84.637 L257.56,83.246 L257.235,81.873 L256.881,80.518 L256.5,79.184 L256.093,77.867 L255.659,76.569 L255.197,75.291 L254.711,74.031 L254.198,72.789 L253.66,71.567 L253.098,70.362 L252.51,69.175 L251.897,68.008 L251.261,66.858 L250.601,65.726 L249.916,64.614 L249.21,63.519 L248.48,62.441 L247.727,61.382 L246.954,60.341 L246.157,59.317 L245.339,58.311 L244.501,57.323 L243.641,56.351 L242.761,55.399 L241.862,54.462 L240.941,53.543 L240.002,52.641 L239.044,51.756 L238.066,50.888 L237.066,50.033 L236.05,49.21 L235.028,48.383 L233.97,47.588 L232.912,46.795 L231.819,46.034 L230.729,45.275 L229.607,44.545 L228.485,43.815 L227.33,43.117 L226.175,42.419 L224.99,41.753 L223.806,41.088 L222.596,40.452 L221.384,39.815 L220.144,39.208 L218.904,38.602 L217.638,38.027 L216.372,37.452 L215.084,36.905 L213.794,36.358 L212.48,35.839 L211.166,35.321 L209.829,34.832 L208.493,34.344 L207.138,33.881 L205.782,33.418 L204.405,32.984 L203.028,32.55 L201.632,32.143 L200.237,31.737 L198.826,31.355 L197.414,30.973 L195.985,30.618 L194.556,30.263 L193.112,29.935 L191.67,29.606 L190.214,29.301 L188.758,28.996 L187.288,28.716 L185.819,28.437 L184.337,28.182 L182.858,27.927 L181.368,27.695 L179.878,27.463 L178.378,27.256 L176.879,27.048 L175.372,26.864 L173.866,26.681 L172.354,26.518 L170.841,26.356 L169.322,26.216 L167.804,26.076 L166.282,25.959 L164.76,25.841 L163.236,25.744 L161.712,25.646 L160.185,25.57 L158.659,25.494 L157.133,25.439 L155.607,25.384 L154.082,25.348 L152.557,25.312 L151.034,25.297 L149.51,25.281 L147.991,25.285 L146.472,25.289 L144.957,25.311 L143.442,25.333 L141.932,25.373 L140.423,25.414 L138.921,25.473 L137.42,25.532 L135.927,25.608 L134.433,25.683 L132.948,25.776 L131.464,25.87 L129.991,25.98 L128.518,26.09 L127.057,26.215 L125.595,26.341 L124.146,26.483 L122.697,26.624 L121.264,26.782 L119.831,26.939 L118.412,27.111 L116.993,27.283 L115.591,27.469 L114.189,27.654 L112.805,27.852 L111.423,28.05 L110.058,28.261 L108.692,28.472 L107.347,28.697 L106.002,28.922 L104.68,29.16 L103.358,29.398 L102.057,29.648 L100.755,29.894 L99.478,30.152 L98.2,30.411 L96.949,30.682 L95.698,30.953 L94.472,31.235 L93.245,31.517 L92.046,31.81 L90.847,32.103 L89.678,32.408 L88.51,32.713 L87.371,33.028 L86.23,33.344 L85.121,33.67 L84.012,33.996 L82.936,34.331 L81.861,34.667 L80.818,35.01 L79.773,35.355 L78.764,35.709 L77.755,36.062 L76.783,36.425 L75.808,36.791 L73.939,37.531 L72.142,38.291 L70.427,39.066 L68.787,39.856 L67.23,40.661 L65.773,41.475 L65.058,41.896 L64.375,42.316 L63.716,42.738 L63.079,43.165 L62.463,43.596 L61.872,44.03 L61.303,44.468 L60.756,44.912 L60.235,45.359 L59.737,45.81 L59.262,46.268 L58.808,46.735 L57.566,48.088 L56.361,49.467 L55.204,50.863 L54.087,52.276 L53.014,53.707 L51.986,55.153 L50.997,56.612 L50.051,58.088 L49.148,59.575 L48.285,61.075 L47.462,62.588 L46.683,64.111 L45.941,65.644 L45.24,67.188 L44.579,68.739 L43.955,70.298 L43.37,71.865 L42.825,73.438 L42.314,75.016 L41.842,76.6 L41.408,78.187 L41.008,79.777 L40.645,81.372 L40.318,82.967 L40.025,84.563 L39.767,86.161 L39.544,87.757 L39.354,89.352 L39.197,90.947 L39.075,92.538 L38.983,94.126 L38.925,95.711 L38.899,97.29 L38.902,98.864 L38.938,100.434 L39.005,101.995 L39.101,103.548 L39.228,105.095 L39.384,106.631 L39.568,108.158 L39.781,109.676 L40.023,111.181 L40.291,112.675 L40.587,114.157 L40.911,115.625 L41.26,117.079 L41.636,118.52 L42.039,119.943 L42.465,121.352 L42.917,122.745 L43.394,124.118 L43.894,125.475 L44.419,126.814 L44.968,128.131 L45.538,129.429 L46.132,130.707 L46.749,131.961 L47.386,133.194 L48.047,134.405 L48.728,135.59 L49.43,136.753 L50.153,137.89 L50.897,139 L51.659,140.084 L52.442,141.142 L53.244,142.17 L54.065,143.17 L54.905,144.142 L55.763,145.08 L56.638,145.99 L57.534,146.868 L58.445,147.711 L59.372,148.522 L60.319,149.3 L61.281,150.04 L62.258,150.746 L63.253,151.416 L64.263,152.046 L65.286,152.639 L66.327,153.193 L67.38,153.704 L68.447,154.176 L69.53,154.606 L70.624,154.99 L71.729,155.333 L72.85,155.63 L73.98,155.878 L75.119,156.083 L76.272,156.238 L77.431,156.343 L78.598,156.402 L79.777,156.409 L80.96,156.363 L82.148,156.268 L83.346,156.119 L84.508,155.922 C85.528,155.748 86.215,154.779 86.04,153.758 C85.866,152.737 84.897,152.051 83.876,152.226 Z" id="Fill-125"></path>
            <path d="M33.406,138.717 L33.344,138.644 L33.101,138.249 L32.952,137.529 L33.168,136.69 L33.601,136.165 L34.038,135.91 L34.158,135.877 L34.126,135.88 L33.92,135.893 L33.606,135.9 L33.202,135.895 L32.717,135.878 L32.166,135.85 L31.553,135.81 L30.88,135.76 L30.159,135.701 L29.389,135.633 L28.574,135.556 L27.723,135.474 L26.835,135.385 L25.915,135.29 L24.969,135.191 L23.998,135.089 L23.007,134.983 L22.001,134.876 L20.981,134.768 L19.95,134.659 L18.918,134.553 L17.888,134.448 L16.858,134.342 L15.814,134.236 L13.826,134.055 L11.825,133.874 L10.032,133.754 L8.249,133.635 L7.41,133.596 L6.628,133.571 L5.89,133.559 L5.193,133.559 L4.539,133.575 L3.933,133.609 L3.365,133.661 L2.827,133.74 L2.316,133.857 L1.789,134.04 L1.191,134.393 L0.643,135.005 L0.383,135.523 L0.22,135.982 L0.108,136.442 L0.036,136.904 L0,137.377 L0,137.848 L0.027,138.321 L0.082,138.804 L0.162,139.289 L0.264,139.781 L0.389,140.283 L0.534,140.792 L0.699,141.309 L0.884,141.838 L1.087,142.375 L1.308,142.921 L1.547,143.48 L1.81,144.06 L2.363,145.208 L2.988,146.411 L3.675,147.649 L4.414,148.918 L5.208,150.222 L6.053,151.552 L6.941,152.906 L7.873,154.284 L8.845,155.68 L9.85,157.089 L10.889,158.512 L11.956,159.942 L13.047,161.376 L14.16,162.812 L15.293,164.247 L16.439,165.667 L17.588,167.089 L18.753,168.486 L19.917,169.881 L21.08,171.234 L22.24,172.583 L23.396,173.9 L24.538,175.183 L25.665,176.429 L26.775,177.638 L27.864,178.805 L28.926,179.923 L29.961,180.995 L30.964,182.013 L31.929,182.972 L32.858,183.876 L33.746,184.715 L34.586,185.485 L35.383,186.19 L36.131,186.824 L36.816,187.371 L37.159,187.631 L37.48,187.865 L37.789,188.078 L38.09,188.274 L38.388,188.454 L38.685,188.615 L39.952,189.253 L41.226,189.894 L42.532,190.525 L43.838,191.156 L45.176,191.778 L46.512,192.398 L47.877,193.01 L49.242,193.621 L50.638,194.222 L52.033,194.823 L53.456,195.413 L54.879,196.002 L56.327,196.58 L57.775,197.159 L59.251,197.725 L60.726,198.292 L62.227,198.845 L63.726,199.398 L65.248,199.939 L66.771,200.481 L68.317,201.008 L69.863,201.536 L71.431,202.049 L72.998,202.562 L74.585,203.062 L76.172,203.562 L77.78,204.046 L79.388,204.531 L81.014,205 L82.64,205.468 L84.283,205.922 L85.925,206.376 L87.586,206.813 L89.246,207.249 L90.922,207.668 L92.597,208.087 L94.285,208.49 L95.975,208.893 L97.678,209.277 L99.382,209.662 L101.097,210.028 L102.812,210.393 L104.538,210.741 L106.265,211.089 L108.002,211.416 L109.739,211.744 L111.485,212.052 L113.231,212.359 L114.984,212.647 L116.739,212.936 L118.5,213.203 L120.262,213.47 L122.03,213.715 L123.797,213.959 L125.568,214.184 L127.341,214.408 L129.118,214.61 L130.895,214.811 L132.674,214.99 L134.453,215.168 L136.234,215.324 L138.016,215.479 L139.798,215.609 L141.581,215.739 L143.364,215.844 L145.145,215.949 L146.926,216.031 L148.707,216.113 L150.486,216.169 L152.265,216.225 L154.041,216.254 L155.816,216.282 L157.586,216.285 L159.358,216.289 L161.124,216.265 L162.89,216.241 L164.65,216.189 L166.408,216.136 L168.16,216.058 L169.912,215.981 L171.656,215.878 L173.4,215.775 L175.135,215.642 L176.868,215.51 L178.591,215.35 L180.316,215.19 L182.028,214.999 L183.741,214.809 L185.441,214.587 L187.14,214.367 L188.826,214.119 L190.514,213.871 L192.187,213.591 L193.859,213.311 L195.516,212.998 L197.172,212.686 L198.811,212.343 L200.453,211.999 L202.076,211.622 L203.699,211.245 L205.303,210.833 L206.906,210.422 L208.49,209.979 L210.076,209.535 L211.639,209.057 L213.204,208.577 L214.746,208.062 L216.286,207.547 L217.805,207 L219.326,206.451 L220.821,205.865 L222.317,205.279 L223.787,204.655 L225.256,204.032 L226.7,203.374 L228.145,202.715 L229.563,202.018 L230.981,201.32 L232.37,200.583 L233.753,199.849 L235.124,199.082 L236.477,198.297 L237.813,197.493 L239.135,196.67 L240.441,195.825 L241.73,194.961 L243.004,194.078 L244.262,193.173 L245.501,192.248 L246.724,191.303 L247.93,190.337 L249.117,189.349 L250.287,188.342 L251.439,187.313 L252.571,186.262 L253.685,185.192 L254.781,184.099 L255.856,182.984 L256.912,181.849 L257.948,180.691 L258.963,179.511 L259.958,178.31 L260.933,177.086 L261.884,175.839 L262.815,174.572 L263.725,173.28 L264.612,171.967 L265.477,170.632 L266.32,169.273 L267.139,167.891 L267.936,166.488 L268.71,165.061 L269.459,163.61 L270.185,162.138 L270.887,160.641 L271.564,159.121 L272.217,157.579 L272.844,156.012 L273.446,154.421 L274.023,152.809 L274.575,151.17 L275.099,149.508 L275.598,147.824 L276.07,146.113 L276.515,144.379 L276.934,142.622 L277.325,140.838 L277.688,139.031 L278.024,137.2 L278.332,135.343 L278.61,133.461 L278.862,131.556 L279.084,129.624 L279.275,127.667 L279.44,125.687 L279.573,123.683 L279.625,122.662 L279.677,121.646 L279.714,120.618 L279.752,119.589 L279.774,118.547 L279.796,117.505 L279.802,116.449 L279.808,115.395 L279.8,114.328 L279.792,113.26 L279.768,112.179 L279.743,111.098 L279.703,110.003 L279.663,108.91 L279.608,107.803 L279.553,106.696 L279.482,105.576 L279.41,104.455 L279.323,103.321 L279.235,102.188 L279.132,101.042 L279.029,99.895 L278.91,98.734 L278.79,97.574 L278.653,96.399 L278.517,95.225 L278.365,94.039 L278.213,92.852 L278.044,91.651 L277.875,90.45 L277.689,89.234 L277.502,88.018 L277.249,86.497 L276.972,84.989 L276.673,83.496 L276.354,82.016 L276.012,80.55 L275.648,79.1 L275.264,77.664 L274.859,76.241 L274.432,74.833 L273.986,73.439 L273.518,72.058 L273.03,70.694 L272.523,69.342 L271.995,68.004 L271.447,66.681 L270.882,65.372 L270.296,64.076 L269.69,62.795 L269.067,61.528 L268.425,60.274 L267.763,59.035 L267.085,57.81 L266.388,56.597 L265.67,55.397 L264.932,54.224 L264.191,53.046 L263.415,51.896 L262.638,50.746 L261.827,49.625 L261.017,48.505 L260.176,47.41 L259.333,46.315 L258.458,45.247 L257.582,44.18 L256.674,43.14 L255.768,42.102 L254.832,41.089 L253.896,40.075 L252.928,39.089 L251.961,38.103 L250.965,37.143 L249.969,36.185 L248.947,35.252 L247.924,34.318 L246.872,33.411 L245.821,32.504 L244.742,31.624 L243.664,30.745 L242.562,29.891 L241.458,29.036 L240.329,28.207 L239.2,27.379 L238.046,26.578 L236.893,25.777 L235.717,25 L234.541,24.223 L233.341,23.472 L232.141,22.721 L230.919,21.996 L229.697,21.272 L228.456,20.572 L227.213,19.871 L225.95,19.196 L224.686,18.521 L223.402,17.872 L222.119,17.223 L220.819,16.598 L219.517,15.972 L218.197,15.371 L216.876,14.771 L215.538,14.196 L214.2,13.621 L212.847,13.07 L211.493,12.518 L210.123,11.99 L208.753,11.463 L207.367,10.96 L205.982,10.458 L204.583,9.978 L203.184,9.497 L201.77,9.042 L200.357,8.586 L198.93,8.155 L197.504,7.724 L196.067,7.315 L194.628,6.906 L193.179,6.521 L191.729,6.136 L190.267,5.774 L188.807,5.414 L187.338,5.074 L185.868,4.735 L184.388,4.419 L182.908,4.103 L181.42,3.811 L179.932,3.519 L178.438,3.248 L176.942,2.977 L175.439,2.73 L173.937,2.482 L172.428,2.258 L170.919,2.034 L169.406,1.83 L167.892,1.627 L166.373,1.446 L164.854,1.266 L163.331,1.108 L161.809,0.95 L160.284,0.816 L158.757,0.682 L157.229,0.571 L155.7,0.46 L154.169,0.371 L152.64,0.283 L151.11,0.214 L149.579,0.145 L148.048,0.099 L146.517,0.052 L144.986,0.028 L143.457,0.005 L141.929,0 L140.399,0 L138.873,0.019 L137.346,0.038 L135.823,0.078 L134.3,0.119 L132.78,0.178 L131.26,0.238 L129.745,0.319 L128.229,0.4 L126.719,0.501 L125.21,0.601 L123.706,0.72 L122.201,0.84 L120.703,0.98 L119.205,1.12 L117.715,1.281 L116.226,1.442 L114.744,1.622 L113.262,1.801 L111.789,2.001 L110.315,2.201 L108.852,2.42 L107.389,2.639 L105.937,2.877 L104.483,3.115 L103.041,3.372 L101.599,3.63 L100.169,3.908 L98.74,4.185 L97.323,4.481 L95.905,4.777 L94.5,5.091 L93.096,5.406 L91.706,5.74 L90.317,6.074 L88.942,6.426 L87.567,6.778 L86.207,7.149 L84.847,7.52 L83.505,7.91 L82.163,8.3 L80.836,8.707 L79.51,9.115 L78.201,9.541 L76.893,9.967 L75.604,10.412 L74.315,10.857 L73.045,11.318 L71.774,11.78 L70.524,12.26 L69.274,12.74 L68.045,13.239 L66.817,13.738 L65.609,14.253 L64.401,14.768 L63.215,15.301 L62.03,15.835 L60.868,16.386 L59.707,16.937 L58.568,17.504 L57.429,18.072 L56.315,18.658 L55.201,19.243 L54.113,19.846 L53.026,20.449 L51.963,21.068 L50.9,21.688 L49.864,22.324 L48.829,22.961 L47.822,23.616 L46.815,24.269 L45.62,25.081 L44.444,25.914 L43.289,26.768 L42.151,27.639 L41.034,28.531 L39.936,29.441 L38.858,30.369 L37.799,31.315 L36.761,32.279 L35.742,33.26 L34.743,34.257 L33.766,35.271 L32.807,36.3 L31.869,37.346 L30.953,38.406 L30.056,39.48 L29.18,40.57 L28.326,41.673 L27.491,42.789 L26.678,43.919 L25.887,45.061 L25.116,46.215 L24.366,47.382 L23.638,48.56 L22.93,49.748 L22.245,50.948 L21.582,52.158 L20.94,53.377 L20.32,54.607 L19.723,55.846 L19.147,57.092 L18.593,58.348 L18.063,59.612 L17.553,60.883 L17.067,62.161 L16.604,63.446 L16.162,64.737 L15.744,66.035 L15.35,67.338 L14.977,68.646 L14.628,69.959 L14.303,71.276 L14,72.597 L13.721,73.923 L13.466,75.251 L13.234,76.582 L13.026,77.916 L12.843,79.251 L12.683,80.588 L12.547,81.927 L12.436,83.267 L12.348,84.606 L12.285,85.947 L12.248,87.286 L12.233,88.625 L12.244,89.963 L12.281,91.299 L12.341,92.634 L12.427,93.966 L12.539,95.295 L12.675,96.622 L12.837,97.945 L13.025,99.264 L13.237,100.578 L13.476,101.889 L13.742,103.193 L14.032,104.493 L14.348,105.787 L14.692,107.074 L15.06,108.354 L15.456,109.628 L15.878,110.894 L16.326,112.152 L16.802,113.402 L17.304,114.643 L17.832,115.875 L18.389,117.098 L18.972,118.31 L19.582,119.512 L20.22,120.704 L20.886,121.884 L21.577,123.053 L22.298,124.21 L23.047,125.354 L23.821,126.486 L24.626,127.605 L25.458,128.709 L26.317,129.8 L27.205,130.877 L28.122,131.938 L29.066,132.984 L30.04,134.015 L31.042,135.029 L32.072,136.028 L33.131,137.009 L34.214,137.967 C34.534,138.251 35.024,138.222 35.308,137.901 C35.592,137.581 35.562,137.091 35.242,136.807 L34.173,135.86 L33.141,134.901 L32.138,133.925 L31.16,132.934 L30.213,131.927 L29.294,130.905 L28.4,129.869 L27.536,128.819 L26.7,127.753 L25.889,126.675 L25.108,125.585 L24.354,124.48 L23.625,123.364 L22.925,122.236 L22.252,121.095 L21.605,119.944 L20.985,118.783 L20.392,117.61 L19.825,116.427 L19.284,115.235 L18.771,114.033 L18.282,112.822 L17.821,111.603 L17.386,110.375 L16.975,109.14 L16.591,107.898 L16.233,106.648 L15.899,105.391 L15.592,104.129 L15.311,102.86 L15.054,101.586 L14.823,100.307 L14.617,99.023 L14.435,97.734 L14.278,96.443 L14.148,95.146 L14.04,93.847 L13.958,92.546 L13.9,91.242 L13.866,89.935 L13.857,88.628 L13.873,87.319 L13.911,86.009 L13.975,84.699 L14.063,83.388 L14.173,82.078 L14.307,80.769 L14.466,79.461 L14.647,78.154 L14.852,76.85 L15.081,75.548 L15.332,74.248 L15.607,72.952 L15.905,71.659 L16.225,70.369 L16.568,69.085 L16.935,67.805 L17.323,66.53 L17.734,65.26 L18.168,63.997 L18.623,62.739 L19.101,61.488 L19.602,60.245 L20.123,59.008 L20.667,57.78 L21.233,56.56 L21.82,55.348 L22.428,54.146 L23.059,52.953 L23.71,51.769 L24.382,50.597 L25.077,49.434 L25.791,48.282 L26.527,47.142 L27.284,46.015 L28.061,44.898 L28.859,43.795 L29.678,42.705 L30.517,41.627 L31.376,40.564 L32.255,39.515 L33.154,38.48 L34.073,37.46 L35.013,36.456 L35.971,35.466 L36.949,34.494 L37.948,33.538 L38.965,32.597 L40.001,31.675 L41.057,30.771 L42.132,29.884 L43.225,29.016 L44.338,28.166 L45.47,27.335 L46.619,26.525 L47.788,25.734 L48.779,25.094 L49.769,24.454 L50.788,23.83 L51.807,23.207 L52.854,22.601 L53.901,21.994 L54.973,21.402 L56.045,20.811 L57.143,20.237 L58.241,19.663 L59.364,19.107 L60.489,18.55 L61.636,18.009 L62.782,17.468 L63.952,16.945 L65.123,16.422 L66.316,15.917 L67.511,15.411 L68.725,14.922 L69.94,14.433 L71.175,13.963 L72.411,13.492 L73.668,13.039 L74.925,12.587 L76.201,12.15 L77.476,11.715 L78.771,11.297 L80.065,10.88 L81.378,10.481 L82.692,10.083 L84.022,9.701 L85.351,9.32 L86.697,8.958 L88.044,8.595 L89.406,8.252 L90.769,7.908 L92.146,7.582 L93.522,7.256 L94.913,6.95 L96.305,6.643 L97.71,6.357 L99.115,6.07 L100.533,5.802 L101.949,5.533 L103.378,5.284 L104.807,5.035 L106.248,4.806 L107.689,4.577 L109.139,4.366 L110.59,4.155 L112.05,3.965 L113.51,3.775 L114.979,3.605 L116.449,3.436 L117.926,3.285 L119.403,3.134 L120.887,3.004 L122.371,2.873 L123.862,2.763 L125.353,2.654 L126.85,2.563 L128.346,2.472 L129.848,2.404 L131.349,2.336 L132.855,2.289 L134.361,2.242 L135.87,2.214 L137.379,2.186 L138.891,2.18 L140.402,2.173 L141.916,2.188 L143.43,2.203 L144.945,2.238 L146.459,2.27 L147.974,2.324 L149.489,2.379 L151.003,2.455 L152.519,2.531 L154.033,2.627 L155.546,2.722 L157.057,2.841 L158.569,2.958 L160.077,3.099 L161.587,3.238 L163.093,3.395 L164.599,3.552 L166.101,3.731 L167.602,3.91 L169.099,4.112 L170.596,4.314 L172.088,4.536 L173.579,4.759 L175.064,5.004 L176.549,5.249 L178.026,5.517 L179.504,5.786 L180.975,6.075 L182.445,6.364 L183.906,6.676 L185.367,6.989 L186.818,7.324 L188.27,7.66 L189.712,8.017 L191.154,8.374 L192.585,8.755 L194.015,9.135 L195.433,9.54 L196.852,9.945 L198.259,10.371 L199.666,10.797 L201.059,11.247 L202.451,11.697 L203.83,12.171 L205.209,12.645 L206.575,13.142 L207.939,13.637 L209.287,14.158 L210.636,14.678 L211.967,15.224 L213.299,15.769 L214.616,16.337 L215.931,16.904 L217.229,17.496 L218.525,18.088 L219.804,18.705 L221.082,19.322 L222.343,19.962 L223.603,20.601 L224.842,21.266 L226.081,21.93 L227.299,22.619 L228.517,23.309 L229.716,24.022 L230.913,24.734 L232.088,25.471 L233.262,26.208 L234.413,26.971 L235.564,27.735 L236.694,28.521 L237.822,29.307 L238.925,30.119 L240.028,30.93 L241.105,31.768 L242.183,32.606 L243.237,33.467 L244.289,34.328 L245.314,35.215 L246.339,36.101 L247.336,37.014 L248.333,37.928 L249.305,38.865 L250.275,39.802 L251.215,40.765 L252.155,41.728 L253.064,42.718 L253.975,43.709 L254.857,44.724 L255.738,45.737 L256.586,46.778 L257.435,47.818 L258.251,48.886 L259.068,49.954 L259.855,51.048 L260.64,52.139 L261.392,53.258 L262.143,54.377 L262.859,55.523 L263.579,56.675 L264.269,57.837 L264.942,59.015 L265.599,60.208 L266.238,61.414 L266.858,62.633 L267.46,63.866 L268.045,65.113 L268.61,66.372 L269.156,67.646 L269.684,68.934 L270.192,70.234 L270.68,71.55 L271.15,72.878 L271.6,74.22 L272.029,75.577 L272.44,76.948 L272.829,78.331 L273.198,79.73 L273.547,81.143 L273.875,82.569 L274.18,84.01 L274.467,85.465 L274.731,86.933 L274.973,88.42 L275.153,89.619 L275.333,90.819 L275.495,92.005 L275.658,93.191 L275.804,94.362 L275.95,95.535 L276.081,96.694 L276.212,97.852 L276.326,98.996 L276.44,100.14 L276.537,101.27 L276.635,102.401 L276.717,103.518 L276.8,104.635 L276.867,105.738 L276.933,106.841 L276.983,107.929 L277.034,109.019 L277.07,110.096 L277.106,111.171 L277.126,112.233 L277.146,113.295 L277.15,114.344 L277.155,115.393 L277.145,116.429 L277.135,117.464 L277.11,118.486 L277.085,119.508 L277.045,120.516 L277.005,121.525 L276.951,122.522 L276.897,123.514 L276.759,125.482 L276.592,127.42 L276.398,129.334 L276.175,131.22 L275.923,133.081 L275.647,134.918 L275.341,136.728 L275.008,138.512 L274.65,140.273 L274.265,142.007 L273.852,143.717 L273.415,145.403 L272.952,147.063 L272.463,148.698 L271.95,150.311 L271.411,151.898 L270.847,153.462 L270.261,155.003 L269.649,156.518 L269.013,158.011 L268.355,159.481 L267.673,160.926 L266.967,162.349 L266.24,163.75 L265.489,165.127 L264.715,166.481 L263.921,167.814 L263.105,169.123 L262.266,170.411 L261.407,171.677 L260.526,172.92 L259.624,174.142 L258.702,175.344 L257.761,176.522 L256.798,177.68 L255.816,178.818 L254.815,179.933 L253.794,181.028 L252.754,182.104 L251.696,183.157 L250.617,184.19 L249.522,185.204 L248.408,186.197 L247.275,187.169 L246.125,188.123 L244.958,189.056 L243.773,189.969 L242.571,190.864 L241.353,191.738 L240.117,192.593 L238.866,193.43 L237.599,194.246 L236.315,195.044 L235.017,195.823 L233.703,196.583 L232.378,197.322 L231.022,198.041 L229.672,198.756 L228.293,199.433 L226.913,200.111 L225.506,200.751 L224.096,201.393 L222.661,202 L221.228,202.607 L219.769,203.178 L218.31,203.748 L216.825,204.283 L215.339,204.819 L213.831,205.322 L212.324,205.825 L210.794,206.293 L209.263,206.761 L207.711,207.195 L206.157,207.629 L204.585,208.032 L203.013,208.435 L201.421,208.804 L199.83,209.173 L198.219,209.509 L196.607,209.846 L194.979,210.152 L193.352,210.459 L191.709,210.734 L190.065,211.008 L188.406,211.251 L186.745,211.494 L185.071,211.708 L183.398,211.919 L181.711,212.101 L180.025,212.282 L178.326,212.433 L176.626,212.584 L174.916,212.708 L173.207,212.832 L171.488,212.927 L169.768,213.022 L168.04,213.084 L166.31,213.146 L164.574,213.182 L162.838,213.219 L161.096,213.227 L159.354,213.236 L157.606,213.217 L155.857,213.199 L154.103,213.156 L152.351,213.114 L150.595,213.046 L148.839,212.979 L147.081,212.886 L145.322,212.792 L143.561,212.676 L141.802,212.56 L140.042,212.42 L138.282,212.279 L136.523,212.115 L134.763,211.952 L133.004,211.767 L131.247,211.583 L129.492,211.375 L127.738,211.168 L125.987,210.938 L124.235,210.707 L122.489,210.457 L120.742,210.207 L119.003,209.935 L117.263,209.664 L115.53,209.371 L113.797,209.079 L112.071,208.767 L110.346,208.456 L108.63,208.124 L106.914,207.793 L105.21,207.442 L103.503,207.091 L101.808,206.723 L100.113,206.356 L98.431,205.97 L96.749,205.583 L95.081,205.179 L93.412,204.775 L91.757,204.354 L90.102,203.934 L88.463,203.497 L86.825,203.061 L85.203,202.608 L83.58,202.155 L81.974,201.687 L80.369,201.22 L78.783,200.737 L77.197,200.254 L75.631,199.756 L74.064,199.258 L72.517,198.747 L70.971,198.236 L69.447,197.711 L67.923,197.187 L66.423,196.649 L64.922,196.11 L63.443,195.56 L61.966,195.011 L60.514,194.449 L59.062,193.887 L57.637,193.313 L56.211,192.739 L54.811,192.154 L53.411,191.57 L52.041,190.976 L50.671,190.381 L49.331,189.776 L47.99,189.171 L46.677,188.557 L45.365,187.944 L44.086,187.321 L42.807,186.698 L41.561,186.067 L40.31,185.434 L40.169,185.357 L39.992,185.25 L39.784,185.113 L39.551,184.951 L39.296,184.765 L39.029,184.562 L38.409,184.064 L37.73,183.488 L36.987,182.827 L36.191,182.095 L35.344,181.29 L34.448,180.415 L33.513,179.482 L32.538,178.488 L31.528,177.437 L30.489,176.339 L29.423,175.192 L28.334,174.001 L27.227,172.773 L26.105,171.509 L24.973,170.214 L23.827,168.877 L22.684,167.543 L21.54,166.165 L20.396,164.789 L19.267,163.387 L18.136,161.981 L17.028,160.573 L15.938,159.161 L14.87,157.751 L13.826,156.347 L12.813,154.955 L11.834,153.577 L10.89,152.216 L9.989,150.879 L9.133,149.569 L8.322,148.287 L7.566,147.043 L6.868,145.837 L6.225,144.674 L5.65,143.563 L5.137,142.493 L4.915,141.999 L4.706,141.51 L4.516,141.036 L4.344,140.58 L4.193,140.145 L4.061,139.729 L3.949,139.333 L3.857,138.964 L3.786,138.617 L3.734,138.295 L3.701,138.006 L3.687,137.744 L3.687,137.513 L3.701,137.323 L3.727,137.161 L3.758,137.033 L3.788,136.947 L3.774,136.96 L3.465,137.301 L3.271,137.422 L3.305,137.414 L3.49,137.373 L3.791,137.33 L4.196,137.294 L4.679,137.269 L5.234,137.256 L5.856,137.257 L6.533,137.269 L7.262,137.294 L8.023,137.33 L9.781,137.451 L11.528,137.571 L13.488,137.752 L15.461,137.934 L16.477,138.04 L17.506,138.147 L18.536,138.254 L19.562,138.361 L20.585,138.471 L21.603,138.581 L22.609,138.69 L23.602,138.798 L24.576,138.902 L25.527,139.003 L26.454,139.1 L27.352,139.192 L28.216,139.277 L29.047,139.357 L29.838,139.428 L30.584,139.49 L31.289,139.544 L31.946,139.588 L32.55,139.62 L33.107,139.64 L33.617,139.647 L34.078,139.638 L34.514,139.608 L34.973,139.536 L35.422,139.395 L35.967,139.074 L36.465,138.475 L36.701,137.552 L36.533,136.739 L36.224,136.243 L36.05,136.057 C35.315,135.328 34.128,135.331 33.398,136.066 C32.668,136.8 32.672,137.987 33.406,138.717 Z" id="Fill-134"></path>
        </g>
    </g>
</svg>
