<?xml version="1.0" encoding="UTF-8"?>
<svg width="282px" height="187px" viewBox="0 0 282 187" version="1.1" xmlns="http://www.w3.org/2000/svg" xmlns:xlink="http://www.w3.org/1999/xlink">
    <title>35</title>
    <g id="Page-1" stroke="none" stroke-width="1" fill="none" fill-rule="evenodd">
        <g id="35" transform="translate(0.194000, 0.227000)" fill="currentColor">
            <path d="M24.334,32.675 C14.484,48.097 18.25,132.474 30.248,143.548 C41.388,153.832 110.497,142.818 124.86,143.548 C150.186,144.836 237.656,154.264 251.995,118.417 C297.075,5.715 179.964,20.709 97.511,24.544 C72.975,25.686 38.874,9.911 24.334,32.675 Z" id="Fill-117"></path>
            <path d="M22.896,31.807 L22.571,32.347 L22.238,32.964 L21.924,33.617 L21.622,34.302 L21.334,35.028 L21.058,35.787 L20.793,36.58 L20.538,37.41 L20.295,38.273 L20.061,39.168 L19.837,40.098 L19.623,41.06 L19.417,42.051 L19.221,43.074 L19.034,44.128 L18.855,45.209 L18.685,46.319 L18.524,47.458 L18.371,48.621 L18.227,49.811 L18.091,51.026 L17.964,52.263 L17.844,53.525 L17.733,54.809 L17.63,56.113 L17.535,57.438 L17.449,58.783 L17.369,60.145 L17.298,61.526 L17.235,62.925 L17.183,64.341 L17.132,65.76 L17.096,67.208 L17.06,68.656 L17.04,70.128 L17.02,71.599 L17.014,73.089 L17.008,74.58 L17.018,76.088 L17.027,77.595 L17.052,79.116 L17.077,80.635 L17.116,82.163 L17.155,83.691 L17.209,85.225 L17.263,86.758 L17.331,88.293 L17.4,89.826 L17.482,91.357 L17.565,92.889 L17.661,94.414 L17.758,95.94 L17.869,97.454 L17.981,98.967 L18.105,100.468 L18.23,101.969 L18.368,103.451 L18.507,104.934 L18.66,106.394 L18.812,107.854 L18.977,109.289 L19.143,110.725 L19.322,112.131 L19.502,113.538 L19.695,114.909 L19.889,116.281 L20.094,117.617 L20.3,118.955 L20.519,120.25 L20.738,121.547 L20.971,122.797 L21.203,124.043 L21.445,125.263 L21.694,126.455 L21.949,127.62 L22.21,128.759 L22.478,129.872 L22.753,130.954 L23.034,132.01 L23.322,133.035 L23.617,134.028 L23.918,134.991 L24.227,135.922 L24.543,136.818 L24.866,137.683 L25.197,138.514 L25.536,139.307 L25.883,140.066 L26.241,140.791 L26.607,141.476 L26.984,142.126 L27.375,142.741 L27.778,143.313 L28.196,143.849 L28.635,144.348 L29.091,144.799 L29.549,145.193 L30.045,145.563 L30.568,145.903 L31.119,146.222 L31.703,146.521 L32.313,146.799 L32.949,147.059 L33.615,147.304 L34.307,147.532 L35.025,147.745 L35.771,147.945 L36.542,148.13 L37.337,148.304 L38.159,148.465 L39.004,148.613 L39.873,148.751 L40.767,148.878 L41.683,148.994 L42.62,149.099 L43.58,149.195 L44.562,149.28 L45.562,149.357 L46.583,149.424 L47.627,149.481 L48.689,149.527 L49.755,149.572 L50.858,149.6 L51.959,149.629 L53.093,149.641 L54.225,149.653 L55.385,149.653 L56.545,149.651 L57.732,149.636 L58.919,149.621 L60.129,149.593 L61.337,149.565 L62.565,149.526 L63.793,149.486 L65.039,149.436 L66.284,149.385 L67.543,149.325 L68.802,149.264 L70.071,149.195 L71.34,149.126 L72.617,149.049 L73.894,148.972 L75.176,148.887 L76.459,148.801 L77.744,148.707 L79.023,148.614 L80.302,148.52 L81.588,148.426 L82.866,148.323 L84.137,148.22 L85.408,148.118 L86.684,148.014 L87.939,147.906 L89.189,147.796 L90.439,147.686 L91.691,147.577 L92.921,147.465 L94.15,147.354 L95.36,147.243 L96.569,147.132 L97.755,147.022 L98.941,146.912 L100.103,146.803 L101.264,146.695 L102.396,146.591 L103.528,146.486 L104.627,146.385 L105.725,146.284 L106.792,146.188 L107.857,146.092 L108.884,146.001 L109.91,145.91 L111.878,145.742 L113.762,145.588 L115.548,145.454 L117.232,145.339 L118.031,145.289 L118.805,145.244 L119.548,145.204 L120.264,145.17 L120.948,145.142 L121.599,145.12 L122.219,145.104 L122.804,145.095 L123.354,145.092 L123.869,145.096 L124.344,145.106 L124.783,145.124 L125.584,145.166 L126.431,145.213 L127.318,145.265 L128.241,145.321 L129.203,145.381 L130.202,145.445 L131.235,145.511 L132.304,145.581 L133.407,145.652 L134.541,145.726 L135.707,145.802 L136.905,145.879 L138.131,145.957 L139.387,146.035 L140.671,146.114 L141.981,146.192 L143.318,146.27 L144.68,146.347 L146.066,146.423 L147.475,146.497 L148.907,146.57 L150.359,146.64 L151.833,146.707 L153.328,146.771 L154.846,146.829 L156.366,146.888 L157.921,146.938 L159.475,146.987 L161.061,147.027 L162.646,147.067 L164.255,147.096 L165.866,147.125 L167.499,147.141 L169.133,147.158 L170.786,147.159 L172.439,147.161 L174.105,147.148 L175.773,147.135 L177.453,147.105 L179.133,147.074 L180.821,147.024 L182.508,146.973 L184.2,146.904 L185.892,146.834 L187.585,146.743 L189.279,146.652 L190.969,146.537 L192.659,146.421 L194.341,146.283 L196.026,146.144 L197.7,145.978 L199.374,145.813 L201.034,145.619 L202.692,145.425 L204.335,145.205 L205.979,144.984 L207.601,144.731 L209.224,144.479 L210.82,144.193 L212.416,143.908 L213.985,143.591 L215.556,143.274 L217.095,142.921 L218.634,142.568 L220.135,142.177 L221.631,141.787 L223.11,141.368 L224.565,140.929 L225.996,140.471 L227.407,139.993 L228.796,139.493 L230.158,138.972 L231.498,138.431 L232.812,137.866 L234.098,137.278 L235.358,136.669 L236.59,136.035 L237.791,135.377 L238.963,134.695 L240.105,133.987 L241.211,133.254 L242.287,132.497 L243.329,131.711 L244.332,130.899 L245.302,130.06 L246.235,129.192 L247.126,128.296 L247.98,127.373 L248.794,126.419 L249.562,125.436 L250.29,124.425 L250.973,123.382 L251.608,122.309 L252.198,121.209 L252.741,120.075 L253.228,118.919 L253.922,117.148 L254.587,115.404 L255.224,113.682 L255.837,111.979 L256.424,110.296 L256.984,108.634 L257.521,106.991 L258.033,105.368 L258.519,103.766 L258.981,102.182 L259.418,100.617 L259.829,99.072 L260.217,97.546 L260.581,96.038 L260.92,94.551 L261.236,93.081 L261.528,91.629 L261.795,90.197 L262.041,88.783 L262.262,87.386 L262.459,86.009 L262.635,84.648 L262.787,83.305 L262.916,81.982 L263.024,80.674 L263.109,79.384 L263.171,78.112 L263.212,76.857 L263.23,75.618 L263.226,74.398 L263.201,73.194 L263.154,72.005 L263.085,70.836 L262.996,69.681 L262.885,68.542 L262.753,67.422 L262.6,66.316 L262.427,65.226 L262.232,64.154 L262.018,63.097 L261.783,62.055 L261.527,61.031 L261.253,60.021 L260.957,59.026 L260.642,58.049 L260.308,57.086 L259.954,56.137 L259.581,55.206 L259.191,54.289 L258.78,53.386 L258.35,52.5 L257.904,51.629 L257.437,50.771 L256.946,49.919 L255.934,48.29 L254.842,46.709 L253.68,45.189 L252.456,43.723 L251.163,42.312 L249.807,40.961 L248.392,39.661 L246.914,38.415 L245.377,37.224 L243.786,36.083 L242.136,34.992 L240.432,33.954 L238.685,32.964 L237.775,32.488 L236.871,32.016 L235.941,31.567 L235.014,31.12 L234.063,30.693 L233.111,30.266 L232.134,29.862 L231.158,29.458 L230.158,29.075 L229.16,28.694 L228.14,28.332 L227.12,27.969 L226.077,27.628 L225.035,27.287 L223.97,26.966 L222.907,26.646 L221.825,26.344 L220.742,26.041 L219.639,25.758 L218.536,25.476 L217.413,25.212 L216.292,24.948 L215.153,24.702 L214.013,24.455 L212.855,24.226 L211.698,23.997 L210.522,23.785 L209.348,23.574 L208.158,23.378 L206.968,23.182 L205.761,23.002 L204.555,22.822 L203.332,22.659 L202.111,22.496 L200.876,22.347 L199.641,22.198 L198.391,22.064 L197.141,21.93 L195.878,21.811 L194.616,21.691 L193.342,21.584 L192.067,21.477 L190.781,21.384 L189.494,21.291 L188.196,21.211 L186.899,21.131 L185.591,21.063 L184.284,20.994 L182.965,20.937 L181.648,20.881 L180.32,20.835 L178.994,20.79 L177.659,20.755 L176.324,20.721 L174.981,20.696 L173.638,20.672 L172.287,20.658 L170.937,20.644 L169.581,20.638 L168.225,20.632 L166.862,20.636 L165.5,20.639 L164.132,20.65 L162.763,20.662 L161.388,20.684 L160.017,20.706 L158.646,20.727 L157.27,20.749 L155.887,20.786 L154.509,20.821 L153.131,20.857 L151.748,20.893 L150.362,20.94 L148.979,20.986 L147.597,21.032 L146.212,21.079 L144.825,21.135 L143.441,21.19 L142.058,21.245 L140.671,21.301 L139.286,21.365 L137.903,21.428 L136.521,21.49 L135.136,21.553 L133.756,21.622 L132.377,21.691 L130.999,21.76 L129.619,21.828 L128.246,21.901 L126.873,21.973 L125.501,22.046 L124.128,22.118 L122.764,22.192 L121.401,22.266 L120.039,22.341 L118.676,22.415 L117.325,22.489 L115.974,22.564 L114.624,22.638 L113.274,22.713 L111.937,22.787 L110.601,22.864 L109.264,22.942 L107.929,23.019 L106.611,23.093 L105.292,23.168 L103.973,23.242 L102.656,23.316 L101.359,23.384 L100.061,23.452 L98.763,23.52 L97.473,23.587 L95.948,23.642 L94.403,23.656 L92.833,23.631 L91.241,23.573 L89.629,23.483 L87.996,23.363 L86.346,23.219 L84.681,23.047 L83.002,22.855 L81.311,22.646 L79.609,22.422 L77.898,22.188 L76.177,21.943 L74.454,21.698 L72.726,21.448 L70.994,21.196 L69.264,20.953 L67.531,20.71 L65.805,20.486 L64.075,20.261 L62.358,20.069 L60.639,19.877 L58.94,19.731 L57.242,19.584 L55.554,19.476 L53.88,19.4 L52.223,19.36 L50.58,19.354 L48.953,19.391 L47.347,19.474 L45.759,19.6 L44.191,19.779 L42.65,20.012 L41.131,20.3 L39.637,20.65 L38.174,21.065 L36.739,21.544 L35.335,22.096 L33.967,22.723 L32.633,23.422 L31.336,24.206 L30.095,25.065 L29.472,25.537 L28.87,26.024 L28.282,26.533 L27.704,27.063 L27.137,27.618 L26.584,28.195 L26.042,28.795 L25.512,29.419 L24.996,30.068 L24.492,30.739 L24.002,31.436 L23.533,32.147 C23.241,32.59 23.364,33.186 23.807,33.477 C24.25,33.768 24.845,33.646 25.137,33.203 L25.588,32.514 L26.044,31.863 L26.512,31.236 L26.991,30.631 L27.48,30.052 L27.982,29.494 L28.494,28.958 L29.015,28.445 L29.549,27.953 L30.093,27.481 L30.646,27.03 L31.199,26.608 L32.368,25.794 L33.563,25.068 L34.801,24.416 L36.074,23.828 L37.382,23.31 L38.729,22.858 L40.108,22.463 L41.52,22.129 L42.965,21.852 L44.438,21.625 L45.939,21.45 L47.469,21.325 L49.023,21.243 L50.599,21.204 L52.199,21.206 L53.818,21.243 L55.454,21.314 L57.106,21.418 L58.783,21.559 L60.459,21.701 L62.156,21.89 L63.856,22.079 L65.569,22.3 L67.286,22.522 L69.01,22.763 L70.736,23.004 L72.463,23.254 L74.193,23.507 L75.918,23.754 L77.643,24.002 L79.363,24.241 L81.077,24.468 L82.783,24.681 L84.481,24.878 L86.167,25.055 L87.841,25.212 L89.502,25.345 L91.149,25.447 L92.778,25.516 L94.39,25.552 L95.984,25.548 L97.549,25.502 L98.856,25.442 L100.155,25.384 L101.454,25.326 L102.754,25.269 L104.075,25.205 L105.395,25.142 L106.714,25.078 L108.035,25.015 L109.373,24.948 L110.71,24.881 L112.047,24.814 L113.384,24.744 L114.735,24.671 L116.086,24.598 L117.436,24.525 L118.786,24.452 L120.149,24.379 L121.512,24.306 L122.874,24.233 L124.236,24.16 L125.608,24.09 L126.98,24.02 L128.352,23.95 L129.723,23.88 L131.1,23.814 L132.478,23.748 L133.857,23.682 L135.233,23.616 L136.613,23.555 L137.995,23.495 L139.378,23.436 L140.757,23.376 L142.138,23.325 L143.522,23.274 L144.905,23.223 L146.285,23.172 L147.664,23.13 L149.047,23.088 L150.429,23.046 L151.807,23.004 L153.181,22.975 L154.559,22.946 L155.937,22.917 L157.31,22.888 L158.675,22.874 L160.046,22.859 L161.417,22.844 L162.784,22.829 L164.144,22.825 L165.505,22.82 L166.861,22.825 L168.217,22.829 L169.566,22.842 L170.915,22.855 L172.258,22.877 L173.6,22.898 L174.934,22.93 L176.269,22.961 L177.595,23.003 L178.921,23.044 L180.238,23.095 L181.556,23.145 L182.863,23.207 L184.17,23.269 L185.467,23.342 L186.764,23.416 L188.05,23.501 L189.336,23.585 L190.61,23.682 L191.884,23.779 L193.145,23.889 L194.407,23.998 L195.656,24.12 L196.905,24.242 L198.14,24.377 L199.374,24.513 L200.594,24.663 L201.814,24.814 L203.02,24.978 L204.225,25.142 L205.414,25.32 L206.603,25.499 L207.775,25.693 L208.948,25.888 L210.105,26.097 L211.26,26.306 L212.398,26.532 L213.535,26.758 L214.653,27.002 L215.772,27.246 L216.873,27.505 L217.973,27.765 L219.053,28.042 L220.132,28.32 L221.19,28.616 L222.249,28.912 L223.288,29.226 L224.326,29.54 L225.342,29.873 L226.357,30.206 L227.349,30.559 L228.342,30.912 L229.313,31.284 L230.283,31.655 L231.228,32.047 L232.173,32.439 L233.093,32.853 L234.014,33.267 L234.911,33.701 L235.807,34.133 L236.676,34.588 L237.539,35.04 L239.23,35.998 L240.864,36.995 L242.438,38.038 L243.956,39.129 L245.42,40.263 L246.821,41.446 L248.161,42.679 L249.445,43.96 L250.662,45.29 L251.816,46.676 L252.909,48.111 L253.933,49.599 L254.898,51.158 L255.346,51.94 L255.783,52.746 L256.203,53.569 L256.606,54.405 L256.991,55.255 L257.359,56.122 L257.709,57.003 L258.041,57.898 L258.354,58.81 L258.65,59.737 L258.927,60.679 L259.185,61.638 L259.425,62.612 L259.646,63.601 L259.847,64.609 L260.03,65.632 L260.193,66.671 L260.335,67.728 L260.459,68.801 L260.562,69.89 L260.644,70.998 L260.708,72.122 L260.749,73.264 L260.77,74.424 L260.77,75.601 L260.749,76.795 L260.706,78.008 L260.642,79.239 L260.556,80.487 L260.448,81.755 L260.317,83.04 L260.164,84.344 L259.988,85.667 L259.79,87.008 L259.568,88.367 L259.323,89.747 L259.056,91.144 L258.765,92.561 L258.449,93.998 L258.111,95.453 L257.748,96.928 L257.36,98.423 L256.949,99.937 L256.513,101.471 L256.052,103.026 L255.567,104.599 L255.056,106.193 L254.519,107.808 L253.958,109.442 L253.37,111.096 L252.755,112.772 L252.116,114.468 L251.451,116.184 L250.761,117.915 L250.308,118.973 L249.813,119.991 L249.273,120.984 L248.692,121.952 L248.069,122.891 L247.402,123.806 L246.697,124.697 L245.952,125.561 L245.164,126.402 L244.339,127.221 L243.477,128.014 L242.575,128.785 L241.638,129.534 L240.665,130.259 L239.655,130.962 L238.612,131.644 L237.536,132.302 L236.424,132.939 L235.283,133.557 L234.111,134.151 L232.907,134.725 L231.675,135.279 L230.415,135.811 L229.126,136.324 L227.812,136.817 L226.472,137.29 L225.107,137.744 L223.719,138.18 L222.308,138.596 L220.879,138.992 L219.411,139.365 L217.949,139.738 L216.449,140.074 L214.947,140.411 L213.412,140.713 L211.874,141.015 L210.308,141.287 L208.743,141.559 L207.151,141.798 L205.559,142.038 L203.944,142.248 L202.327,142.458 L200.692,142.641 L199.059,142.825 L197.41,142.98 L195.76,143.136 L194.099,143.265 L192.437,143.395 L190.767,143.503 L189.098,143.611 L187.426,143.696 L185.752,143.781 L184.079,143.843 L182.405,143.906 L180.734,143.951 L179.063,143.996 L177.4,144.023 L175.736,144.049 L174.085,144.059 L172.431,144.068 L170.792,144.063 L169.153,144.058 L167.533,144.038 L165.912,144.019 L164.315,143.986 L162.716,143.954 L161.142,143.911 L159.568,143.868 L158.024,143.816 L156.479,143.763 L154.969,143.702 L153.458,143.641 L151.973,143.575 L150.508,143.507 L149.063,143.436 L147.638,143.363 L146.235,143.288 L144.856,143.211 L143.499,143.133 L142.168,143.055 L140.863,142.975 L139.582,142.896 L138.33,142.817 L137.107,142.738 L135.911,142.661 L134.746,142.584 L133.613,142.51 L132.509,142.437 L131.44,142.367 L130.405,142.3 L129.402,142.235 L128.435,142.175 L127.506,142.118 L126.612,142.064 L125.756,142.016 L124.936,141.972 L124.445,141.952 L123.917,141.939 L123.359,141.935 L122.773,141.937 L122.155,141.946 L121.506,141.962 L120.831,141.984 L120.125,142.012 L119.391,142.047 L118.63,142.086 L117.842,142.131 L117.023,142.182 L115.324,142.296 L113.519,142.429 L111.621,142.575 L109.643,142.734 L108.611,142.82 L107.58,142.906 L106.511,142.997 L105.442,143.088 L104.341,143.184 L103.24,143.279 L102.107,143.378 L100.974,143.478 L99.812,143.579 L98.65,143.68 L97.464,143.783 L96.279,143.886 L95.071,143.99 L93.863,144.094 L92.635,144.198 L91.409,144.301 L90.16,144.403 L88.91,144.505 L87.659,144.608 L86.414,144.711 L85.146,144.809 L83.875,144.908 L82.603,145.006 L81.337,145.104 L80.065,145.193 L78.785,145.282 L77.505,145.372 L76.231,145.46 L74.959,145.541 L73.686,145.622 L72.418,145.696 L71.15,145.77 L69.892,145.836 L68.633,145.902 L67.385,145.959 L66.138,146.017 L64.905,146.064 L63.674,146.112 L62.46,146.148 L61.247,146.184 L60.053,146.211 L58.86,146.237 L57.691,146.25 L56.524,146.263 L55.384,146.263 L54.244,146.263 L53.133,146.249 L52.023,146.235 L50.947,146.206 L49.873,146.177 L48.836,146.132 L47.795,146.087 L46.789,146.03 L45.803,145.965 L44.839,145.891 L43.897,145.808 L42.98,145.717 L42.087,145.615 L41.219,145.505 L40.379,145.386 L39.566,145.256 L38.781,145.118 L38.027,144.97 L37.303,144.811 L36.609,144.644 L35.951,144.468 L35.326,144.281 L34.733,144.086 L34.181,143.883 L33.664,143.671 L33.183,143.453 L32.747,143.229 L32.349,142.999 L31.99,142.766 L31.678,142.533 L31.405,142.298 L31.116,142.012 L30.821,141.678 L30.517,141.286 L30.208,140.847 L29.898,140.359 L29.585,139.819 L29.272,139.235 L28.962,138.606 L28.654,137.93 L28.348,137.213 L28.046,136.456 L27.747,135.656 L27.452,134.82 L27.163,133.946 L26.878,133.034 L26.597,132.089 L26.322,131.11 L26.053,130.097 L25.788,129.053 L25.529,127.979 L25.276,126.874 L25.028,125.742 L24.787,124.583 L24.552,123.399 L24.324,122.173 L24.097,120.951 L23.882,119.682 L23.667,118.411 L23.466,117.098 L23.264,115.784 L23.074,114.433 L22.884,113.084 L22.707,111.699 L22.53,110.314 L22.366,108.898 L22.202,107.48 L22.051,106.039 L21.9,104.597 L21.762,103.133 L21.624,101.669 L21.5,100.185 L21.377,98.701 L21.266,97.203 L21.155,95.706 L21.058,94.198 L20.961,92.689 L20.879,91.174 L20.796,89.658 L20.727,88.139 L20.658,86.621 L20.604,85.104 L20.549,83.587 L20.51,82.075 L20.47,80.563 L20.445,79.059 L20.419,77.555 L20.408,76.065 L20.398,74.574 L20.402,73.101 L20.407,71.628 L20.426,70.173 L20.445,68.719 L20.479,67.291 L20.514,65.863 L20.564,64.464 L20.614,63.062 L20.675,61.687 L20.744,60.329 L20.821,58.989 L20.905,57.666 L20.998,56.366 L21.098,55.086 L21.206,53.828 L21.322,52.594 L21.446,51.385 L21.577,50.199 L21.717,49.042 L21.864,47.912 L22.02,46.809 L22.183,45.737 L22.354,44.696 L22.533,43.684 L22.72,42.708 L22.914,41.766 L23.116,40.857 L23.325,39.986 L23.542,39.153 L23.766,38.357 L23.996,37.604 L24.234,36.892 L24.477,36.221 L24.724,35.598 L24.978,35.02 L25.234,34.488 L25.491,34.009 L25.773,33.543 C26.252,32.749 25.997,31.717 25.203,31.237 C24.409,30.757 23.376,31.012 22.896,31.807 Z" id="Fill-118"></path>
            <path d="M58.687,186.08 L59.44,185.403 L60.168,184.749 L60.925,184.121 L61.681,183.493 L62.466,182.891 L63.254,182.286 L64.066,181.706 L64.877,181.126 L65.715,180.571 L66.553,180.016 L67.417,179.485 L68.285,178.953 L69.175,178.442 L70.064,177.933 L70.978,177.447 L71.893,176.96 L72.832,176.497 L73.774,176.032 L74.738,175.588 L75.7,175.145 L76.685,174.724 L77.671,174.302 L78.68,173.902 L79.691,173.501 L80.723,173.119 L81.753,172.737 L82.804,172.377 L83.857,172.015 L84.93,171.674 L86.005,171.333 L87.098,171.009 L88.191,170.685 L89.302,170.381 L90.415,170.076 L91.546,169.79 L92.68,169.503 L93.829,169.233 L94.978,168.963 L96.145,168.711 L97.312,168.458 L98.496,168.222 L99.681,167.986 L100.882,167.766 L102.081,167.545 L103.296,167.34 L104.512,167.135 L105.743,166.945 L106.975,166.756 L108.22,166.58 L109.465,166.403 L110.723,166.242 L111.982,166.08 L113.253,165.932 L114.526,165.784 L115.81,165.648 L117.093,165.512 L118.389,165.388 L119.684,165.265 L120.991,165.154 L122.298,165.043 L123.616,164.942 L124.932,164.842 L126.259,164.752 L127.586,164.663 L128.921,164.584 L130.258,164.505 L131.603,164.435 L132.947,164.366 L134.298,164.305 L135.651,164.245 L137.01,164.194 L138.368,164.142 L139.734,164.102 L141.107,164.062 L142.481,164.022 L143.845,163.982 L145.219,163.956 L146.603,163.93 L147.986,163.905 L149.362,163.879 L150.745,163.866 L152.136,163.853 L153.527,163.84 L154.913,163.826 L156.302,163.822 L157.698,163.818 L159.093,163.814 L160.483,163.81 L161.876,163.814 L163.274,163.818 L164.672,163.821 L166.066,163.825 L167.46,163.835 L168.858,163.844 L170.255,163.854 L171.65,163.863 L173.04,163.877 L174.432,163.89 L175.825,163.904 L177.217,163.917 L178.61,163.931 L180.002,163.944 L181.395,163.958 L182.788,163.972 L184.165,163.984 L185.542,163.996 L186.919,164.008 L188.295,164.021 L189.672,164.033 L191.049,164.045 L192.426,164.058 L193.809,164.07 L195.166,164.071 L196.515,164.073 L197.865,164.074 L199.215,164.076 L200.565,164.077 L201.915,164.079 L203.264,164.08 L204.622,164.081 L205.956,164.071 L207.281,164.06 L208.607,164.049 L209.941,164.038 L211.253,164.015 L212.558,163.993 L213.863,163.97 L215.177,163.947 L216.468,163.91 L217.749,163.873 L219.03,163.836 L220.318,163.799 L221.59,163.75 L222.859,163.702 L224.115,163.646 L225.372,163.589 L226.614,163.523 L227.856,163.456 L229.084,163.381 L230.313,163.306 L231.527,163.22 L232.742,163.134 L233.94,163.037 L235.138,162.94 L236.32,162.833 L237.504,162.726 L238.67,162.606 L239.837,162.486 L240.986,162.354 L242.134,162.221 L243.265,162.077 L244.398,161.932 L245.511,161.774 L246.626,161.615 L247.72,161.442 L248.813,161.269 L249.888,161.082 L250.964,160.895 L252.019,160.692 L253.075,160.489 L254.109,160.269 L255.143,160.05 L256.155,159.816 L257.171,159.581 L258.162,159.329 L259.161,159.074 L261.092,158.535 L262.986,157.959 L264.833,157.344 L266.629,156.689 L268.377,155.994 L270.076,155.256 L271.719,154.474 L273.311,153.649 L274.85,152.776 L276.328,151.855 L277.751,150.888 L279.116,149.867 L280.407,148.801 L280.814,148.371 L281.109,147.905 L281.316,147.44 L281.467,146.968 L281.578,146.477 L281.655,145.972 L281.708,145.449 L281.739,144.898 L281.751,144.326 L281.745,143.73 L281.724,143.108 L281.687,142.463 L281.638,141.797 L281.575,141.108 L281.501,140.4 L281.416,139.675 L281.32,138.932 L281.214,138.169 L280.983,136.627 L280.722,135.039 L280.44,133.429 L280.141,131.824 L279.842,130.219 L279.538,128.663 L279.237,127.114 L278.959,125.688 L278.682,124.264 L278.557,123.606 L278.438,122.974 L278.328,122.37 L278.226,121.796 L278.134,121.256 L278.053,120.753 L277.982,120.287 L277.923,119.866 L277.878,119.491 L277.846,119.165 L277.828,118.903 L277.823,118.708 L277.833,117.13 L277.844,115.551 L277.866,113.953 L277.887,112.353 L277.918,110.738 L277.95,109.121 L277.988,107.491 L278.026,105.86 L278.068,104.218 L278.11,102.574 L278.154,100.921 L278.197,99.266 L278.239,97.602 L278.28,95.94 L278.322,94.277 L278.363,92.609 L278.394,90.936 L278.425,89.267 L278.456,87.598 L278.488,85.92 L278.498,84.246 L278.508,82.581 L278.518,80.917 L278.528,79.243 L278.519,77.577 L278.509,75.912 L278.483,74.255 L278.455,72.597 L278.409,70.95 L278.362,69.303 L278.295,67.668 L278.228,66.031 L278.136,64.408 L278.045,62.784 L277.926,61.178 L277.807,59.572 L277.662,57.984 L277.516,56.394 L277.337,54.825 L277.159,53.255 L276.947,51.709 L276.734,50.163 L276.488,48.641 L276.241,47.117 L275.956,45.62 L275.67,44.122 L275.342,42.656 L275.016,41.195 L274.657,39.744 L274.275,38.314 L273.871,36.902 L273.445,35.506 L272.993,34.127 L272.516,32.767 L272.015,31.425 L271.487,30.102 L270.932,28.8 L270.351,27.517 L269.741,26.255 L269.101,25.016 L268.434,23.798 L267.735,22.602 L267.006,21.433 L266.247,20.286 L265.454,19.163 L264.629,18.068 L263.773,16.997 L262.881,15.953 L261.955,14.939 L260.997,13.952 L260.002,12.993 L258.971,12.067 L257.906,11.169 L256.802,10.302 L255.662,9.469 L254.487,8.667 L253.27,7.899 L252.017,7.166 L250.727,6.466 L249.395,5.801 L248.025,5.173 L246.618,4.58 L245.167,4.023 L243.677,3.506 L242.148,3.024 L240.575,2.581 L238.96,2.178 L237.306,1.812 L235.605,1.487 L233.862,1.204 L232.078,0.958 L230.246,0.755 L228.37,0.594 L226.451,0.473 L224.483,0.396 L222.478,0.363 L221.232,0.354 L219.925,0.344 L218.55,0.332 L217.115,0.319 L215.614,0.304 L214.05,0.289 L212.429,0.272 L210.748,0.254 L209.008,0.236 L207.216,0.218 L205.368,0.199 L203.466,0.18 L201.516,0.161 L200.515,0.151 L199.515,0.142 L198.489,0.133 L197.464,0.124 L196.417,0.115 L195.369,0.106 L194.298,0.098 L193.228,0.089 L192.134,0.081 L191.041,0.073 L189.928,0.066 L188.815,0.058 L187.681,0.051 L186.547,0.045 L185.393,0.039 L184.238,0.033 L183.066,0.027 L181.894,0.022 L180.704,0.018 L179.513,0.013 L178.304,0.01 L177.096,0.007 L175.871,0.004 L174.647,0.002 L173.406,0 L172.166,0 L170.909,0 L169.653,0 L168.383,0.002 L167.113,0.003 L165.829,0.006 L164.545,0.009 L163.248,0.013 L161.95,0.018 L160.641,0.024 L159.333,0.03 L158.012,0.038 L156.691,0.045 L155.359,0.055 L154.028,0.064 L152.687,0.076 L151.345,0.087 L149.995,0.1 L148.644,0.113 L147.285,0.128 L145.925,0.143 L144.554,0.161 L143.185,0.179 L141.816,0.196 L140.445,0.214 L139.061,0.237 L137.679,0.26 L136.296,0.282 L134.912,0.305 L133.518,0.332 L132.126,0.36 L130.734,0.388 L129.34,0.415 L127.94,0.448 L126.542,0.48 L125.144,0.512 L123.743,0.545 L122.339,0.583 L120.937,0.622 L119.535,0.66 L118.13,0.698 L116.725,0.743 L115.322,0.787 L113.92,0.831 L112.515,0.875 L111.112,0.925 L109.712,0.975 L108.311,1.024 L106.908,1.074 L105.509,1.131 L104.114,1.187 L102.719,1.244 L101.321,1.301 L99.931,1.365 L98.545,1.429 L97.158,1.493 L95.768,1.557 L94.389,1.627 L93.013,1.698 L91.637,1.769 L90.257,1.84 L88.892,1.919 L87.531,1.998 L86.169,2.076 L84.803,2.155 L83.455,2.243 L82.112,2.33 L80.768,2.417 L79.42,2.504 L78.091,2.599 L76.766,2.694 L75.441,2.788 L74.111,2.883 L72.805,2.987 L71.504,3.091 L70.202,3.195 L68.896,3.299 L67.616,3.412 L66.341,3.525 L65.067,3.639 L63.789,3.752 L62.53,3.872 L61.273,3.992 L60.031,4.117 L58.789,4.242 L57.564,4.371 L56.338,4.501 L55.129,4.636 L53.919,4.77 L52.727,4.91 L51.534,5.05 L50.361,5.195 L49.187,5.34 L48.032,5.491 L46.875,5.641 L45.739,5.797 L44.603,5.953 L43.488,6.115 L42.373,6.276 L41.278,6.443 L40.182,6.61 L39.108,6.783 L38.035,6.956 L36.984,7.135 L35.934,7.314 L34.906,7.498 L33.877,7.683 L32.873,7.873 L31.866,8.065 L29.91,8.458 L28,8.864 L26.142,9.283 L24.339,9.716 L22.588,10.161 L20.893,10.62 L19.258,11.093 L17.678,11.58 L16.159,12.081 L14.703,12.598 L13.306,13.129 L11.973,13.677 L10.708,14.241 L9.505,14.821 L8.37,15.421 L7.299,16.044 L6.596,16.526 L5.929,17.1 L5.313,17.749 L4.741,18.465 L4.21,19.253 L3.722,20.105 L3.27,21.015 L2.852,21.991 L2.47,23.026 L2.118,24.116 L1.797,25.266 L1.506,26.473 L1.243,27.73 L1.006,29.045 L0.797,30.411 L0.613,31.825 L0.455,33.291 L0.323,34.805 L0.212,36.363 L0.126,37.968 L0.063,39.617 L0.02,41.305 L0,43.035 L0,44.804 L0.022,46.608 L0.063,48.45 L0.125,50.325 L0.204,52.231 L0.303,54.169 L0.42,56.136 L0.554,58.128 L0.629,59.14 L0.704,60.149 L0.788,61.172 L0.872,62.194 L0.963,63.227 L1.055,64.259 L1.154,65.303 L1.253,66.347 L1.36,67.4 L1.467,68.453 L1.581,69.515 L1.695,70.576 L1.816,71.646 L1.937,72.716 L2.065,73.793 L2.193,74.87 L2.327,75.952 L2.461,77.035 L2.601,78.124 L2.742,79.212 L2.888,80.306 L3.034,81.4 L3.189,82.499 L3.343,83.594 L3.496,84.69 L3.651,85.791 L3.816,86.896 L3.98,87.996 L4.144,89.096 L4.309,90.201 L4.484,91.306 L4.658,92.408 L4.832,93.509 L5.006,94.614 L5.189,95.716 L5.37,96.815 L5.552,97.914 L5.734,99.017 L5.924,100.114 L6.113,101.207 L6.302,102.3 L6.492,103.397 L6.687,104.485 L6.882,105.568 L7.077,106.652 L7.272,107.739 L7.473,108.814 L7.672,109.886 L7.872,110.958 L8.073,112.034 L8.277,113.093 L8.482,114.149 L8.686,115.205 L8.891,116.264 L9.099,117.303 L9.307,118.339 L9.515,119.375 L9.723,120.414 L9.932,121.432 L10.142,122.447 L10.351,123.461 L10.561,124.48 L10.772,125.471 L10.983,126.459 L11.194,127.447 L11.406,128.44 L11.828,130.358 L12.251,132.276 L12.673,134.15 L13.093,135.989 L13.512,137.79 L13.929,139.556 L14.342,141.282 L14.753,142.965 L15.16,144.609 L15.563,146.207 L15.961,147.757 L16.354,149.263 L16.742,150.718 L17.123,152.12 L17.499,153.474 L17.869,154.771 L18.232,156.01 L18.588,157.195 L18.935,158.32 L19.273,159.382 L19.602,160.386 L19.921,161.325 L20.23,162.197 L20.528,163.007 L20.816,163.749 L21.093,164.42 L21.361,165.027 L21.62,165.566 L21.871,166.035 L22.121,166.446 L22.386,166.804 L22.685,167.108 L23.235,167.542 L23.819,167.943 L24.435,168.313 L25.08,168.656 L25.76,168.972 L26.469,169.26 L27.206,169.525 L27.974,169.766 L28.769,169.981 L29.59,170.175 L30.44,170.347 L31.316,170.497 L32.216,170.627 L33.143,170.736 L34.095,170.825 L35.069,170.897 L36.069,170.949 L37.091,170.983 L38.134,171 L39.2,171 L40.287,170.983 L41.394,170.951 L42.521,170.903 L43.668,170.839 L44.832,170.762 L46.015,170.671 L47.215,170.567 L48.431,170.451 L49.663,170.32 L50.913,170.177 L52.179,170.018 L53.447,169.859 L54.744,169.676 L56.039,169.493 L57.359,169.29 L58.678,169.086 L60.017,168.865 L61.357,168.643 L62.715,168.405 L64.073,168.166 L65.447,167.913 L66.821,167.659 L68.206,167.392 L69.592,167.125 L70.988,166.846 L72.383,166.567 L73.786,166.277 L75.19,165.987 L76.598,165.686 L78.003,165.385 L79.408,165.085 L80.817,164.784 L82.224,164.472 L83.627,164.161 L85.03,163.85 L86.435,163.538 L87.826,163.223 L89.214,162.909 L90.603,162.594 L91.992,162.279 L93.364,161.966 L94.736,161.653 L96.092,161.343 L97.448,161.034 L98.785,160.729 L100.121,160.425 L101.438,160.127 L102.754,159.829 L104.046,159.54 L105.337,159.251 L106.6,158.972 L107.863,158.694 L109.098,158.426 L110.333,158.159 L111.534,157.905 L112.735,157.651 L113.899,157.414 L115.062,157.176 L116.19,156.954 L117.317,156.732 L118.401,156.529 L119.485,156.327 L120.523,156.145 L121.562,155.963 L122.565,155.797 L123.544,155.643 L124.496,155.501 L125.424,155.37 L126.324,155.253 L127.195,155.149 L128.04,155.058 L128.853,154.981 L129.635,154.919 L130.388,154.87 L131.107,154.837 L131.802,154.82 C132.332,154.807 132.75,154.366 132.736,153.836 C132.723,153.306 132.282,152.887 131.752,152.901 L131.037,152.92 L130.281,152.956 L129.496,153.008 L128.685,153.074 L127.845,153.154 L126.977,153.25 L126.085,153.358 L125.166,153.479 L124.221,153.614 L123.253,153.76 L122.26,153.919 L121.241,154.089 L120.194,154.274 L119.145,154.46 L118.051,154.666 L116.958,154.873 L115.823,155.098 L114.689,155.323 L113.519,155.564 L112.349,155.806 L111.143,156.063 L109.938,156.319 L108.699,156.59 L107.461,156.861 L106.195,157.142 L104.929,157.424 L103.636,157.716 L102.342,158.008 L101.025,158.309 L99.707,158.609 L98.37,158.916 L97.034,159.223 L95.678,159.534 L94.322,159.846 L92.951,160.161 L91.58,160.475 L90.193,160.792 L88.805,161.108 L87.417,161.425 L86.031,161.74 L84.63,162.053 L83.228,162.366 L81.825,162.679 L80.426,162.991 L79.024,163.292 L77.619,163.593 L76.214,163.895 L74.812,164.195 L73.416,164.484 L72.018,164.774 L70.629,165.052 L69.239,165.331 L67.86,165.597 L66.482,165.863 L65.115,166.116 L63.749,166.369 L62.4,166.606 L61.05,166.843 L59.72,167.061 L58.39,167.28 L57.081,167.48 L55.772,167.681 L54.489,167.861 L53.206,168.04 L51.951,168.197 L50.695,168.353 L49.463,168.493 L48.247,168.62 L47.048,168.734 L45.866,168.836 L44.703,168.923 L43.559,168.994 L42.434,169.051 L41.331,169.094 L40.25,169.12 L39.19,169.132 L38.154,169.127 L37.142,169.105 L36.153,169.068 L35.192,169.013 L34.257,168.94 L33.347,168.851 L32.467,168.743 L31.616,168.616 L30.793,168.471 L30.003,168.308 L29.244,168.125 L28.515,167.923 L27.822,167.703 L27.163,167.462 L26.536,167.203 L25.947,166.925 L25.393,166.626 L24.874,166.31 L24.394,165.976 L23.954,165.625 L23.887,165.554 L23.753,165.369 L23.576,165.072 L23.372,164.686 L23.148,164.213 L22.906,163.654 L22.65,163.022 L22.379,162.313 L22.096,161.53 L21.801,160.68 L21.495,159.761 L21.178,158.773 L20.852,157.726 L20.516,156.614 L20.171,155.44 L19.819,154.212 L19.457,152.925 L19.086,151.582 L18.708,150.19 L18.324,148.744 L17.934,147.247 L17.54,145.705 L17.14,144.115 L16.736,142.479 L16.328,140.803 L15.918,139.084 L15.504,137.325 L15.089,135.53 L14.672,133.698 L14.255,131.831 L13.836,129.917 L13.417,128.003 L13.209,127.019 L12.999,126.031 L12.79,125.042 L12.581,124.057 L12.374,123.046 L12.166,122.031 L11.958,121.015 L11.751,120.003 L11.546,118.97 L11.34,117.934 L11.135,116.898 L10.931,115.865 L10.729,114.812 L10.527,113.756 L10.326,112.699 L10.124,111.647 L9.928,110.578 L9.73,109.505 L9.533,108.433 L9.336,107.364 L9.144,106.283 L8.952,105.199 L8.76,104.115 L8.568,103.034 L8.383,101.944 L8.197,100.851 L8.012,99.757 L7.828,98.667 L7.651,97.571 L7.473,96.472 L7.296,95.372 L7.119,94.276 L6.95,93.178 L6.78,92.077 L6.611,90.975 L6.441,89.877 L6.282,88.781 L6.122,87.68 L5.962,86.579 L5.802,85.483 L5.653,84.392 L5.504,83.295 L5.355,82.199 L5.206,81.106 L5.065,80.019 L4.923,78.93 L4.788,77.846 L4.653,76.763 L4.525,75.685 L4.396,74.607 L4.273,73.535 L4.15,72.464 L4.034,71.4 L3.918,70.336 L3.809,69.28 L3.7,68.224 L3.598,67.177 L3.495,66.13 L3.4,65.093 L3.305,64.057 L3.218,63.031 L3.13,62.005 L3.05,60.99 L2.971,59.976 L2.899,58.974 L2.827,57.973 L2.701,55.996 L2.591,54.046 L2.5,52.128 L2.427,50.242 L2.371,48.388 L2.334,46.571 L2.318,44.792 L2.32,43.05 L2.343,41.35 L2.388,39.693 L2.453,38.077 L2.541,36.51 L2.651,34.992 L2.783,33.52 L2.939,32.103 L3.118,30.74 L3.319,29.429 L3.545,28.179 L3.796,26.989 L4.069,25.857 L4.367,24.792 L4.691,23.794 L5.036,22.86 L5.404,22 L5.797,21.212 L6.208,20.494 L6.638,19.857 L7.089,19.294 L7.555,18.803 L8.032,18.392 L8.539,18.046 L9.511,17.483 L10.566,16.926 L11.7,16.38 L12.9,15.845 L14.172,15.323 L15.516,14.813 L16.922,14.315 L18.395,13.829 L19.933,13.356 L21.53,12.895 L23.187,12.447 L24.906,12.011 L26.677,11.587 L28.505,11.176 L30.389,10.776 L32.324,10.388 L33.314,10.2 L34.306,10.012 L35.324,9.83 L36.342,9.648 L37.382,9.472 L38.422,9.295 L39.485,9.124 L40.548,8.953 L41.634,8.788 L42.721,8.623 L43.828,8.464 L44.934,8.304 L46.062,8.149 L47.189,7.995 L48.337,7.847 L49.486,7.698 L50.652,7.554 L51.818,7.41 L53.003,7.272 L54.188,7.133 L55.391,7 L56.595,6.867 L57.814,6.738 L59.033,6.61 L60.268,6.486 L61.504,6.363 L62.755,6.245 L64.006,6.127 L65.277,6.016 L66.551,5.904 L67.826,5.793 L69.095,5.682 L70.391,5.58 L71.692,5.478 L72.994,5.376 L74.29,5.275 L75.61,5.182 L76.935,5.089 L78.261,4.996 L79.581,4.904 L80.921,4.82 L82.265,4.735 L83.609,4.651 L84.949,4.567 L86.306,4.491 L87.668,4.415 L89.03,4.339 L90.387,4.263 L91.76,4.196 L93.136,4.128 L94.512,4.06 L95.885,3.992 L97.268,3.931 L98.655,3.87 L100.041,3.809 L101.424,3.748 L102.816,3.695 L104.211,3.641 L105.607,3.588 L106.999,3.534 L108.396,3.488 L109.796,3.441 L111.197,3.395 L112.595,3.348 L113.994,3.307 L115.397,3.267 L116.8,3.227 L118.2,3.187 L119.599,3.153 L121.001,3.119 L122.403,3.086 L123.803,3.052 L125.198,3.024 L126.596,2.996 L127.994,2.968 L129.39,2.94 L130.78,2.917 L132.172,2.894 L133.564,2.871 L134.954,2.848 L136.334,2.83 L137.716,2.813 L139.098,2.795 L140.478,2.777 L141.845,2.764 L143.214,2.751 L144.583,2.738 L145.951,2.725 L147.308,2.715 L148.666,2.705 L150.015,2.697 L151.364,2.689 L152.703,2.684 L154.042,2.678 L155.372,2.675 L156.702,2.671 L158.022,2.669 L159.341,2.667 L160.648,2.667 L161.955,2.667 L163.251,2.668 L164.547,2.669 L165.829,2.672 L167.112,2.674 L168.38,2.678 L169.649,2.683 L170.904,2.688 L172.159,2.693 L173.398,2.7 L174.638,2.706 L175.86,2.714 L177.083,2.722 L178.291,2.73 L179.498,2.739 L180.688,2.748 L181.877,2.758 L183.048,2.768 L184.219,2.779 L185.372,2.79 L186.525,2.801 L187.659,2.813 L188.792,2.824 L189.904,2.837 L191.016,2.849 L192.108,2.862 L193.2,2.875 L194.27,2.888 L195.34,2.901 L196.387,2.914 L197.433,2.928 L198.458,2.941 L199.483,2.955 L200.483,2.969 L201.483,2.982 L203.432,3.01 L205.334,3.037 L207.181,3.064 L208.973,3.091 L210.712,3.117 L212.393,3.141 L214.014,3.165 L215.579,3.188 L217.081,3.209 L218.518,3.228 L219.895,3.246 L221.204,3.262 L222.435,3.275 L224.396,3.315 L226.296,3.396 L228.147,3.52 L229.953,3.681 L231.709,3.883 L233.419,4.124 L235.085,4.402 L236.702,4.717 L238.275,5.071 L239.806,5.458 L241.291,5.882 L242.733,6.342 L244.136,6.834 L245.494,7.36 L246.812,7.921 L248.092,8.513 L249.33,9.136 L250.531,9.793 L251.696,10.479 L252.82,11.196 L253.91,11.944 L254.966,12.72 L255.985,13.524 L256.97,14.359 L257.924,15.221 L258.843,16.11 L259.73,17.029 L260.588,17.973 L261.412,18.944 L262.208,19.943 L262.975,20.967 L263.711,22.015 L264.419,23.09 L265.101,24.19 L265.754,25.312 L266.38,26.46 L266.982,27.63 L267.556,28.823 L268.105,30.04 L268.63,31.278 L269.13,32.536 L269.606,33.818 L270.06,35.118 L270.49,36.438 L270.897,37.779 L271.284,39.138 L271.649,40.515 L271.991,41.905 L272.307,43.331 L272.622,44.751 L272.896,46.202 L273.171,47.655 L273.409,49.137 L273.646,50.622 L273.851,52.132 L274.057,53.641 L274.228,55.175 L274.4,56.711 L274.541,58.269 L274.683,59.83 L274.799,61.409 L274.915,62.987 L275.004,64.584 L275.093,66.182 L275.158,67.795 L275.223,69.411 L275.268,71.039 L275.313,72.666 L275.339,74.305 L275.364,75.945 L275.373,77.594 L275.381,79.242 L275.371,80.897 L275.36,82.561 L275.349,84.226 L275.338,85.881 L275.306,87.539 L275.275,89.208 L275.243,90.876 L275.211,92.54 L275.169,94.197 L275.126,95.86 L275.083,97.523 L275.04,99.184 L274.995,100.837 L274.951,102.491 L274.907,104.136 L274.864,105.782 L274.824,107.416 L274.785,109.051 L274.751,110.673 L274.716,112.297 L274.688,113.904 L274.66,115.513 L274.644,117.103 L274.627,118.695 L274.634,119.048 L274.659,119.429 L274.698,119.836 L274.749,120.272 L274.812,120.742 L274.886,121.245 L274.971,121.777 L275.065,122.341 L275.168,122.934 L275.278,123.552 L275.397,124.197 L275.522,124.868 L275.795,126.298 L276.067,127.725 L276.363,129.276 L276.657,130.819 L276.946,132.411 L277.235,134.001 L277.504,135.578 L277.752,137.128 L277.972,138.636 L278.068,139.359 L278.156,140.068 L278.234,140.756 L278.301,141.423 L278.357,142.061 L278.399,142.672 L278.43,143.252 L278.446,143.796 L278.448,144.302 L278.437,144.769 L278.412,145.186 L278.373,145.552 L278.324,145.864 L278.27,146.103 L278.215,146.273 L278.177,146.362 L278.184,146.354 L278.257,146.278 L277.068,147.255 L275.826,148.18 L274.516,149.065 L273.15,149.911 L271.725,150.716 L270.237,151.481 L268.695,152.211 L267.097,152.901 L265.439,153.554 L263.73,154.174 L261.969,154.758 L260.153,155.306 L258.284,155.825 L257.335,156.065 L256.378,156.307 L255.398,156.532 L254.416,156.758 L253.412,156.969 L252.41,157.18 L251.384,157.376 L250.358,157.571 L249.311,157.752 L248.261,157.933 L247.192,158.101 L246.124,158.269 L245.036,158.423 L243.947,158.577 L242.838,158.717 L241.727,158.858 L240.599,158.987 L239.472,159.116 L238.326,159.232 L237.179,159.349 L236.014,159.454 L234.849,159.558 L233.667,159.653 L232.486,159.747 L231.289,159.831 L230.091,159.915 L228.877,159.988 L227.662,160.062 L226.434,160.127 L225.205,160.192 L223.962,160.248 L222.719,160.303 L221.462,160.35 L220.206,160.397 L218.932,160.434 L217.651,160.47 L216.37,160.506 L215.099,160.543 L213.804,160.565 L212.499,160.587 L211.194,160.609 L209.897,160.632 L208.579,160.642 L207.254,160.653 L205.928,160.664 L204.61,160.674 L203.268,160.673 L201.918,160.671 L200.569,160.67 L199.219,160.668 L197.869,160.666 L196.519,160.665 L195.17,160.663 L193.827,160.662 L192.456,160.649 L191.079,160.637 L189.703,160.624 L188.326,160.612 L186.949,160.599 L185.572,160.587 L184.196,160.574 L182.82,160.562 L181.428,160.548 L180.035,160.535 L178.643,160.521 L177.251,160.507 L175.858,160.494 L174.466,160.48 L173.073,160.466 L171.678,160.452 L170.278,160.443 L168.881,160.433 L167.484,160.423 L166.083,160.414 L164.681,160.41 L163.284,160.406 L161.886,160.402 L160.483,160.398 L159.083,160.402 L157.687,160.407 L156.292,160.411 L154.891,160.416 L153.494,160.429 L152.103,160.443 L150.712,160.457 L149.314,160.471 L147.922,160.497 L146.539,160.523 L145.155,160.55 L143.763,160.576 L142.38,160.617 L141.007,160.658 L139.633,160.699 L138.253,160.74 L136.881,160.793 L135.51,160.845 L134.146,160.907 L132.782,160.968 L131.425,161.039 L130.069,161.11 L128.72,161.191 L127.37,161.271 L126.029,161.362 L124.688,161.453 L123.356,161.556 L122.025,161.658 L120.702,161.771 L119.379,161.884 L118.066,162.01 L116.753,162.136 L115.452,162.274 L114.15,162.413 L112.86,162.564 L111.569,162.715 L110.29,162.88 L109.01,163.045 L107.744,163.225 L106.479,163.404 L105.226,163.598 L103.972,163.792 L102.733,164.001 L101.493,164.211 L100.268,164.437 L99.044,164.663 L97.834,164.904 L96.623,165.146 L95.428,165.405 L94.233,165.665 L93.055,165.942 L91.878,166.219 L90.717,166.514 L89.554,166.809 L88.409,167.123 L87.264,167.437 L86.138,167.771 L85.013,168.105 L83.906,168.457 L82.797,168.811 L81.708,169.185 L80.619,169.559 L79.55,169.955 L78.483,170.351 L77.436,170.767 L76.386,171.184 L75.359,171.624 L74.331,172.064 L73.326,172.528 L72.323,172.991 L71.341,173.476 L70.356,173.963 L69.396,174.474 L68.436,174.985 L67.5,175.522 L66.566,176.058 L65.656,176.617 L64.743,177.179 L63.856,177.766 L62.969,178.355 L62.109,178.97 L61.251,179.584 L60.419,180.224 L59.584,180.865 L58.777,181.535 L57.97,182.206 L57.193,182.905 L56.441,183.582 C55.751,184.202 55.694,185.264 56.315,185.954 C56.935,186.644 57.997,186.701 58.687,186.08 Z" id="Fill-119"></path>
        </g>
    </g>
</svg>
