<?xml version="1.0" encoding="UTF-8"?>
<svg width="371px" height="148px" viewBox="0 0 371 148" version="1.1" xmlns="http://www.w3.org/2000/svg" xmlns:xlink="http://www.w3.org/1999/xlink">
    <title>36</title>
    <g id="Page-1" stroke="none" stroke-width="1" fill="none" fill-rule="evenodd">
        <g id="36" transform="translate(0.772900, 0.717000)" fill="currentColor">
            <path d="M117.4548,26.179 C61.4911,10.917 23.9257,58.917 65.7139,102.313 C102.0556,140.052 311.4591,140.643 331.0711,92.703 C364.2311,11.646 152.2752,6.663 102.6717,24.701" id="Fill-114"></path>
            <path d="M117.8815,24.555 L116.1214,24.092 L114.3567,23.667 L112.6061,23.285 L110.8675,22.941 L109.1409,22.638 L107.4299,22.376 L105.732,22.15 L104.0473,21.965 L102.3797,21.819 L100.7263,21.708 L99.0875,21.636 L97.467,21.602 L95.862,21.602 L94.2728,21.64 L92.7034,21.714 L91.1507,21.821 L89.615,21.965 L88.1006,22.143 L86.6041,22.353 L85.1259,22.599 L83.6703,22.877 L82.2339,23.187 L80.8171,23.53 L79.4243,23.905 L78.0519,24.309 L76.7005,24.746 L75.3745,25.214 L74.0702,25.709 L72.7882,26.236 L71.5329,26.792 L70.3006,27.375 L69.0921,27.988 L67.9116,28.629 L66.7554,29.295 L65.6244,29.99 L64.5229,30.711 L63.4469,31.456 L62.3977,32.229 L61.3793,33.027 L60.3877,33.848 L59.4243,34.695 L58.4932,35.565 L57.5903,36.456 L56.7171,37.373 L55.8775,38.311 L55.0674,39.27 L54.2888,40.253 L53.5451,41.255 L52.8323,42.276 L52.1526,43.32 L51.5092,44.381 L50.8981,45.461 L50.3215,46.561 L49.7826,47.678 L49.2773,48.81 L48.8082,49.963 L48.378,51.129 L47.9827,52.311 L47.6254,53.51 L47.308,54.722 L47.0271,55.948 L46.7859,57.189 L46.5857,58.442 L46.4229,59.705 L46.3012,60.984 L46.2216,62.272 L46.1805,63.569 L46.1805,64.88 L46.2267,66.198 L46.3108,67.524 L46.439,68.861 L46.6112,70.204 L46.824,71.554 L47.0821,72.913 L47.3851,74.277 L47.7297,75.645 L48.1208,77.022 L48.5578,78.401 L49.0373,79.784 L49.5646,81.173 L50.1385,82.563 L50.756,83.956 L51.4225,85.353 L52.1365,86.75 L52.895,88.148 L53.7037,89.549 L54.5609,90.949 L55.4636,92.348 L56.4176,93.749 L57.4213,95.147 L58.4715,96.543 L59.5743,97.939 L60.7277,99.332 L61.9285,100.721 L63.183,102.109 L64.4863,103.489 L65.1048,104.113 L65.7502,104.727 L66.4216,105.331 L67.1178,105.927 L67.8426,106.516 L68.5925,107.095 L69.3662,107.667 L70.1672,108.232 L70.9923,108.788 L71.8404,109.337 L72.7148,109.88 L73.6125,110.413 L74.5325,110.94 L75.4776,111.461 L76.4454,111.973 L77.4345,112.479 L78.4479,112.978 L79.4833,113.469 L80.5394,113.953 L81.6186,114.431 L82.719,114.902 L83.8392,115.366 L84.9817,115.823 L86.1484,116.275 L87.3351,116.714 L88.5267,117.155 L89.7596,117.582 L90.9917,118.009 L92.264,118.422 L93.5345,118.834 L94.8402,119.234 L96.1467,119.635 L97.4907,120.021 L98.8342,120.408 L100.2139,120.781 L101.592,121.154 L103.0021,121.514 L104.4127,121.875 L105.8575,122.22 L107.3021,122.566 L108.779,122.897 L110.2546,123.228 L111.7587,123.547 L113.2634,123.866 L114.798,124.172 L116.3324,124.477 L117.8955,124.769 L119.4573,125.061 L121.0441,125.341 L122.6315,125.621 L124.2452,125.888 L125.8586,126.154 L127.4969,126.407 L129.1342,126.659 L130.7931,126.899 L132.4526,127.14 L134.1341,127.37 L135.8155,127.599 L137.518,127.815 L139.2197,128.031 L140.9396,128.234 L142.66,128.437 L144.3992,128.627 L146.1382,128.816 L147.8946,128.992 L149.6503,129.168 L151.4206,129.332 L153.1915,129.495 L154.9773,129.645 L156.7631,129.794 L158.5625,129.93 L160.3612,130.065 L162.1711,130.188 L163.9816,130.311 L165.8033,130.419 L167.6249,130.528 L169.4562,130.623 L171.287,130.717 L173.1256,130.799 L174.9648,130.88 L176.8113,130.947 L178.6578,131.013 L180.5102,131.066 L182.3621,131.118 L184.2183,131.158 L186.0751,131.197 L187.9354,131.223 L189.7957,131.248 L191.6582,131.259 L193.5202,131.27 L195.383,131.268 L197.2464,131.266 L199.1095,131.25 L200.9727,131.234 L202.8343,131.202 L204.6953,131.17 L206.5537,131.125 L208.4127,131.081 L210.2677,131.021 L212.1227,130.962 L213.9722,130.888 L215.8213,130.814 L217.6642,130.726 L219.5078,130.638 L221.3436,130.535 L223.1793,130.432 L225.0059,130.315 L226.8319,130.198 L228.6485,130.067 L230.4656,129.936 L232.2711,129.791 L234.0767,129.645 L235.8693,129.485 L237.6613,129.324 L239.4404,129.15 L241.2201,128.977 L242.9845,128.788 L244.7488,128.598 L246.4963,128.394 L248.2433,128.19 L249.9739,127.972 L251.7052,127.754 L253.4173,127.521 L255.1296,127.289 L256.8212,127.041 L258.5123,126.793 L260.1835,126.532 L261.8555,126.27 L263.5045,125.994 L265.1536,125.718 L266.7784,125.426 L268.4026,125.134 L270.0035,124.829 L271.6053,124.524 L273.1803,124.203 L274.7556,123.883 L276.3027,123.547 L277.8491,123.211 L279.3688,122.861 L280.8896,122.511 L282.3797,122.146 L283.8702,121.781 L285.3287,121.4 L286.7865,121.02 L288.2142,120.625 L289.6431,120.23 L291.0376,119.82 L292.4321,119.41 L293.7921,118.983 L295.1501,118.558 L296.4751,118.118 L297.8011,117.678 L299.0901,117.222 L300.3791,116.767 L301.6281,116.295 L302.8771,115.824 L304.0881,115.338 L305.3021,114.852 L306.4731,114.35 L307.6451,113.847 L308.7741,113.328 L309.8981,112.812 L311.0001,112.281 L312.0781,111.742 L313.1321,111.196 L314.1651,110.642 L315.1761,110.08 L316.1621,109.509 L317.1271,108.931 L318.0691,108.343 L318.9851,107.747 L319.8791,107.143 L320.7491,106.53 L321.5931,105.909 L322.4131,105.28 L323.2091,104.641 L323.9771,103.993 L324.7211,103.338 L325.4391,102.672 L326.1291,101.997 L326.7931,101.314 L327.4301,100.62 L328.0381,99.918 L328.6191,99.206 L329.1721,98.484 L329.6941,97.753 L330.1881,97.013 L330.6521,96.262 L331.0841,95.502 L331.4871,94.733 L331.8591,93.953 L332.1981,93.164 L332.7061,91.877 L333.1741,90.599 L333.6001,89.334 L333.9891,88.081 L334.3391,86.837 L334.6481,85.606 L334.9211,84.386 L335.1551,83.176 L335.3501,81.979 L335.5091,80.792 L335.6301,79.616 L335.7131,78.452 L335.7611,77.3 L335.7721,76.157 L335.7451,75.028 L335.6841,73.909 L335.5871,72.801 L335.4531,71.706 L335.2871,70.622 L335.0841,69.549 L334.8471,68.49 L334.5781,67.441 L334.2741,66.404 L333.9371,65.38 L333.5691,64.368 L333.1671,63.366 L332.7331,62.379 L332.2701,61.403 L331.7741,60.438 L331.2481,59.487 L330.6931,58.548 L330.1071,57.62 L329.4921,56.705 L328.8491,55.802 L328.1771,54.91 L327.4761,54.032 L326.7501,53.164 L325.9951,52.308 L325.2131,51.465 L324.4061,50.633 L323.5721,49.812 L322.7121,49.004 L321.8291,48.207 L320.9201,47.42 L319.9861,46.646 L319.0291,45.882 L318.0471,45.129 L317.0421,44.388 L316.0151,43.657 L314.9651,42.937 L313.8921,42.229 L312.7981,41.53 L311.6821,40.842 L310.5441,40.166 L309.3871,39.499 L308.2071,38.842 L307.0081,38.197 L305.7901,37.561 L304.5511,36.935 L303.2901,36.319 L302.0091,35.72 L300.7241,35.119 L299.4021,34.538 L298.0791,33.958 L296.7211,33.397 L295.3641,32.837 L293.9741,32.296 L292.5841,31.754 L291.1604,31.233 L289.7369,30.711 L288.2811,30.209 L286.8266,29.708 L285.3442,29.224 L283.8611,28.74 L282.3486,28.274 L280.8364,27.809 L279.2961,27.363 L277.7567,26.918 L276.1932,26.49 L274.6292,26.062 L273.04,25.652 L271.451,25.242 L269.8384,24.85 L268.2268,24.458 L266.5948,24.083 L264.9623,23.709 L263.3087,23.352 L261.6554,22.995 L259.9827,22.656 L258.3108,22.317 L256.6225,21.994 L254.9339,21.671 L253.2286,21.365 L251.5235,21.058 L249.8032,20.769 L248.0837,20.48 L246.3516,20.205 L244.6192,19.931 L242.8743,19.673 L241.1296,19.416 L239.3741,19.174 L237.6193,18.931 L235.8558,18.703 L234.0921,18.475 L232.3201,18.262 L230.5483,18.05 L228.7698,17.853 L226.9918,17.657 L225.209,17.474 L223.4261,17.291 L221.6391,17.123 L219.8523,16.955 L218.063,16.802 L216.2742,16.649 L214.4845,16.51 L212.6945,16.371 L210.9048,16.246 L209.1152,16.121 L207.3275,16.01 L205.5401,15.9 L203.7558,15.802 L201.9711,15.705 L200.191,15.622 L198.4109,15.539 L196.6368,15.476 L194.863,15.413 L193.0961,15.363 L191.329,15.312 L189.5707,15.275 L187.8125,15.239 L186.0648,15.215 L184.3174,15.192 L182.5809,15.179 L180.844,15.166 L179.1202,15.166 L177.3965,15.166 L175.6875,15.18 L173.9789,15.194 L172.2849,15.219 L170.5906,15.243 L168.9136,15.276 L167.2366,15.31 L165.5785,15.356 L163.9208,15.401 L162.2814,15.458 L160.6418,15.515 L159.0238,15.584 L157.4058,15.653 L155.8109,15.732 L154.2163,15.812 L152.644,15.901 L151.0713,15.991 L149.5245,16.093 L147.9777,16.194 L146.4583,16.306 L144.9392,16.419 L143.4463,16.542 L141.9529,16.664 L140.4896,16.797 L139.0262,16.929 L137.5945,17.073 L136.1631,17.217 L134.7617,17.37 L133.3599,17.523 L131.9923,17.687 L130.6247,17.851 L129.293,18.024 L127.9615,18.198 L126.6639,18.381 L125.3658,18.563 L124.1061,18.756 L122.8464,18.949 L121.6266,19.151 L120.4073,19.354 L119.2258,19.565 L118.0433,19.776 L116.9037,19.996 L115.7638,20.217 L114.6682,20.447 L113.573,20.677 L112.5193,20.915 L111.4645,21.153 L110.4567,21.401 L109.4452,21.649 L107.5337,22.159 L106.6028,22.423 L105.701,22.689 L104.8249,22.96 L103.9721,23.235 L103.1445,23.515 L102.35,23.797 C101.8505,23.974 101.5895,24.523 101.7672,25.023 C101.9449,25.522 102.4939,25.783 102.9935,25.606 L103.7737,25.327 L104.5748,25.054 L105.4035,24.785 L106.2567,24.519 L107.1359,24.257 L108.0369,23.999 L109.9254,23.491 L110.9117,23.246 L111.9017,23.001 L112.9393,22.764 L113.978,22.527 L115.0587,22.297 L116.139,22.068 L117.2643,21.848 L118.3898,21.627 L119.5585,21.416 L120.7281,21.204 L121.9358,21.001 L123.1431,20.797 L124.3909,20.604 L125.6389,20.41 L126.9258,20.226 L128.2134,20.041 L129.5351,19.866 L130.8565,19.691 L132.2141,19.526 L133.5718,19.361 L134.9642,19.207 L136.357,19.052 L137.78,18.907 L139.2027,18.762 L140.6573,18.627 L142.112,18.493 L143.597,18.369 L145.0824,18.246 L146.5942,18.133 L148.1057,18.02 L149.6447,17.918 L151.1838,17.817 L152.7488,17.726 L154.3142,17.636 L155.902,17.556 L157.4896,17.477 L159.1004,17.41 L160.7112,17.344 L162.3438,17.289 L163.9767,17.235 L165.628,17.191 L167.279,17.148 L168.949,17.117 L170.619,17.086 L172.3064,17.071 L173.9942,17.056 L175.6965,17.053 L177.3984,17.05 L179.115,17.06 L180.8315,17.07 L182.5611,17.093 L184.2909,17.116 L186.0315,17.153 L187.7716,17.189 L189.5221,17.24 L191.2724,17.29 L193.0316,17.354 L194.7911,17.417 L196.5572,17.494 L198.323,17.57 L200.0951,17.655 L201.8672,17.739 L203.6438,17.838 L205.4207,17.936 L207.2005,18.048 L208.98,18.16 L210.7612,18.286 L212.5423,18.412 L214.3237,18.554 L216.1054,18.696 L217.8861,18.851 L219.6663,19.006 L221.4441,19.177 L223.2218,19.347 L224.9954,19.533 L226.7693,19.719 L228.5383,19.92 L230.3068,20.12 L232.0684,20.337 L233.8299,20.553 L235.5832,20.785 L237.3368,21.018 L239.0815,21.264 L240.8255,21.512 L242.5584,21.777 L244.2911,22.042 L246.0112,22.322 L247.7316,22.603 L249.4393,22.899 L251.1464,23.195 L252.8381,23.508 L254.5294,23.821 L256.2039,24.15 L257.8788,24.48 L259.537,24.826 L261.1944,25.171 L262.8322,25.533 L264.4697,25.895 L266.086,26.275 L267.7029,26.654 L269.2994,27.049 L270.8949,27.444 L272.4665,27.856 L274.0378,28.268 L275.5835,28.698 L277.1298,29.128 L278.6517,29.575 L280.1725,30.021 L281.6654,30.485 L283.1579,30.948 L284.6207,31.43 L286.084,31.912 L287.519,32.411 L288.9527,32.909 L290.3539,33.426 L291.7547,33.943 L293.1211,34.479 L294.4891,35.014 L295.8251,35.566 L297.1591,36.118 L298.4561,36.689 L299.7531,37.26 L301.0121,37.85 L302.2741,38.442 L303.5021,39.044 L304.7131,39.656 L305.9031,40.279 L307.0741,40.91 L308.2231,41.551 L309.3511,42.202 L310.4591,42.861 L311.5431,43.53 L312.6051,44.209 L313.6451,44.897 L314.6621,45.595 L315.6551,46.302 L316.6251,47.019 L317.5711,47.745 L318.4921,48.481 L319.3901,49.226 L320.2611,49.981 L321.1071,50.746 L321.9291,51.52 L322.7241,52.302 L323.4921,53.096 L324.2351,53.899 L324.9501,54.71 L325.6381,55.533 L326.3011,56.364 L326.9331,57.205 L327.5381,58.056 L328.1171,58.917 L328.6651,59.786 L329.1841,60.667 L329.6771,61.557 L330.1381,62.456 L330.5701,63.367 L330.9731,64.287 L331.3451,65.217 L331.6871,66.158 L332.0001,67.11 L332.2801,68.071 L332.5291,69.045 L332.7481,70.029 L332.9331,71.023 L333.0861,72.03 L333.2091,73.048 L333.2981,74.077 L333.3531,75.119 L333.3761,76.172 L333.3641,77.236 L333.3181,78.315 L333.2381,79.405 L333.1231,80.507 L332.9711,81.623 L332.7841,82.751 L332.5611,83.89 L332.3001,85.045 L332.0031,86.212 L331.6691,87.391 L331.2941,88.584 L330.8841,89.791 L330.4351,91.009 L329.9441,92.243 L329.6401,92.945 L329.3081,93.639 L328.9441,94.328 L328.5521,95.012 L328.1321,95.688 L327.6811,96.359 L327.2031,97.024 L326.6971,97.682 L326.1601,98.335 L325.5981,98.982 L325.0071,99.621 L324.3871,100.255 L323.7411,100.884 L323.0691,101.504 L322.3671,102.119 L321.6401,102.728 L320.8871,103.329 L320.1071,103.924 L319.3011,104.512 L318.4701,105.093 L317.6131,105.667 L316.7321,106.234 L315.8261,106.794 L314.8951,107.347 L313.9411,107.894 L312.9641,108.433 L311.9611,108.965 L310.9381,109.49 L309.8911,110.008 L308.8241,110.517 L307.7191,111.018 L306.6181,111.518 L305.4731,112.003 L304.3281,112.488 L303.1401,112.958 L301.9511,113.428 L300.7251,113.885 L299.4991,114.341 L298.2331,114.782 L296.9671,115.223 L295.6631,115.649 L294.3571,116.075 L293.0171,116.486 L291.6774,116.898 L290.3021,117.294 L288.9265,117.691 L287.5163,118.072 L286.1049,118.453 L284.6632,118.821 L283.2222,119.188 L281.749,119.541 L280.2755,119.893 L278.7712,120.23 L277.266,120.568 L275.7339,120.891 L274.2024,121.215 L272.6426,121.523 L271.0826,121.831 L269.4957,122.125 L267.9079,122.418 L266.2967,122.698 L264.6861,122.978 L263.0511,123.242 L261.4158,123.507 L259.7575,123.757 L258.0984,124.006 L256.4194,124.243 L254.741,124.479 L253.0419,124.7 L251.3426,124.921 L249.6242,125.128 L247.905,125.334 L246.1694,125.527 L244.4343,125.72 L242.6824,125.898 L240.9305,126.077 L239.1631,126.241 L237.3951,126.405 L235.6142,126.556 L233.8338,126.707 L232.0403,126.843 L230.2468,126.979 L228.4417,127.1 L226.636,127.222 L224.8208,127.331 L223.0061,127.44 L221.1822,127.534 L219.3583,127.628 L217.5266,127.708 L215.6943,127.787 L213.856,127.854 L212.0182,127.922 L210.1751,127.975 L208.332,128.028 L206.4848,128.066 L204.637,128.105 L202.7868,128.131 L200.9371,128.156 L199.0857,128.169 L197.2344,128.181 L195.3829,128.179 L193.5309,128.178 L191.6797,128.163 L189.8292,128.148 L187.9808,128.119 L186.1325,128.09 L184.2878,128.047 L182.4426,128.004 L180.6017,127.948 L178.7614,127.892 L176.9272,127.822 L175.093,127.752 L173.2662,127.669 L171.4389,127.586 L169.6194,127.49 L167.8006,127.395 L165.9916,127.285 L164.1826,127.176 L162.3849,127.053 L160.5867,126.929 L158.7998,126.793 L157.0135,126.658 L155.241,126.508 L153.4684,126.359 L151.711,126.195 L149.9531,126.032 L148.2099,125.856 L146.4675,125.681 L144.7425,125.491 L143.0177,125.301 L141.3118,125.098 L139.6054,124.894 L137.9172,124.679 L136.2298,124.463 L134.5638,124.234 L132.898,124.005 L131.2552,123.759 L129.612,123.514 L127.9905,123.256 L126.37,122.998 L124.7747,122.727 L123.1796,122.456 L121.6111,122.171 L120.0421,121.887 L118.4983,121.59 L116.9558,121.293 L115.4423,120.983 L113.9291,120.672 L112.4463,120.349 L110.963,120.026 L109.5084,119.69 L108.0552,119.356 L106.6348,119.008 L105.2146,118.66 L103.8285,118.301 L102.4417,117.942 L101.0871,117.571 L99.7341,117.201 L98.4179,116.818 L97.1022,116.435 L95.8246,116.039 L94.5462,115.643 L93.3036,115.235 L92.0629,114.829 L90.8625,114.41 L89.6629,113.992 L88.5053,113.561 L87.3428,113.128 L86.2186,112.69 L85.1136,112.245 L84.0304,111.794 L82.9682,111.337 L81.9302,110.875 L80.915,110.407 L79.9217,109.934 L78.9537,109.455 L78.0093,108.971 L77.0878,108.482 L76.1927,107.988 L75.3224,107.488 L74.4758,106.983 L73.6568,106.474 L72.8635,105.959 L72.0947,105.439 L71.3548,104.916 L70.6413,104.387 L69.9533,103.855 L69.2951,103.319 L68.6641,102.777 L68.0591,102.233 L67.485,101.686 L66.9416,101.136 L65.6813,99.801 L64.4781,98.469 L63.3261,97.134 L62.2212,95.799 L61.1688,94.465 L60.1661,93.13 L59.209,91.796 L58.303,90.466 L57.4452,89.135 L56.632,87.807 L55.8683,86.484 L55.1515,85.162 L54.4778,83.843 L53.852,82.531 L53.2719,81.222 L52.7334,79.917 L52.2413,78.62 L51.7934,77.328 L51.3858,76.041 L51.0229,74.763 L50.7028,73.491 L50.4217,72.225 L50.1836,70.97 L49.987,69.722 L49.8282,68.481 L49.7106,67.253 L49.6333,66.032 L49.5925,64.82 L49.5912,63.621 L49.6291,62.431 L49.7022,61.251 L49.8133,60.085 L49.9625,58.929 L50.1457,57.784 L50.3653,56.654 L50.6221,55.535 L50.9113,54.429 L51.2356,53.338 L51.596,52.26 L51.9881,51.195 L52.414,50.147 L52.875,49.112 L53.3668,48.092 L53.891,47.091 L54.4495,46.103 L55.0376,45.132 L55.657,44.18 L56.3097,43.244 L56.9911,42.324 L57.7024,41.425 L58.4462,40.544 L59.2178,39.681 L60.0181,38.839 L60.8498,38.017 L61.7085,37.213 L62.5946,36.433 L63.5112,35.673 L64.4537,34.934 L65.4225,34.22 L66.4208,33.527 L67.444,32.856 L68.4922,32.211 L69.5688,31.59 L70.6693,30.992 L71.7938,30.42 L72.9454,29.875 L74.1199,29.354 L75.3172,28.861 L76.5406,28.395 L77.7856,27.955 L79.0524,27.544 L80.344,27.163 L81.6563,26.808 L82.9889,26.485 L84.3454,26.192 L85.7214,25.927 L87.1166,25.695 L88.5344,25.495 L89.9706,25.325 L91.4249,25.188 L92.9004,25.085 L94.3933,25.013 L95.9031,24.977 L97.4328,24.975 L98.9789,25.007 L100.5406,25.074 L102.1211,25.179 L103.7167,25.318 L105.3268,25.494 L106.9543,25.709 L108.5959,25.959 L110.2508,26.249 L111.9219,26.578 L113.6058,26.945 L115.3018,27.352 L117.0282,27.804 C117.9256,28.04 118.8441,27.504 119.0798,26.606 C119.3154,25.709 118.7789,24.79 117.8815,24.555 Z" id="Fill-115"></path>
            <path d="M270.6232,44.277 L270.871,43.14 L271.0773,41.99 L271.2353,40.86 L271.35,39.744 L271.4176,38.642 L271.4379,37.561 L271.4153,36.494 L271.3461,35.442 L271.2307,34.411 L271.0735,33.396 L270.87,32.396 L270.6224,31.418 L270.3341,30.458 L270.0008,29.514 L269.6256,28.593 L269.2117,27.69 L268.7544,26.805 L268.2581,25.944 L267.7253,25.102 L267.1515,24.278 L266.5412,23.478 L265.897,22.697 L265.214,21.934 L264.4972,21.195 L263.7486,20.475 L262.9636,19.773 L262.1469,19.093 L261.3003,18.432 L260.4194,17.788 L259.5087,17.166 L258.5698,16.562 L257.5984,15.975 L256.5989,15.408 L255.5725,14.858 L254.5154,14.326 L253.4314,13.812 L252.3221,13.315 L251.1836,12.835 L250.0196,12.373 L248.8315,11.927 L247.6158,11.497 L246.3757,11.085 L245.1128,10.688 L243.8238,10.307 L242.5117,9.944 L241.178,9.595 L239.8197,9.262 L238.4395,8.945 L237.039,8.643 L235.6153,8.356 L234.171,8.085 L232.7076,7.829 L231.2225,7.588 L229.7182,7.362 L228.1959,7.15 L226.6534,6.953 L225.093,6.771 L223.5159,6.603 L221.92,6.449 L220.3039,6.311 L218.6727,6.192 L217.0369,6.073 L215.3684,5.983 L213.7004,5.893 L212.0019,5.832 L210.3051,5.77 L208.5823,5.734 L206.8585,5.698 L205.1079,5.69 L203.3577,5.682 L201.5828,5.701 L199.8093,5.72 L198.015,5.764 L196.2199,5.808 L194.4038,5.878 L192.5879,5.948 L190.7532,6.045 L188.9197,6.142 L187.0707,6.262 L185.2209,6.382 L183.3559,6.528 L181.4911,6.674 L179.6132,6.846 L177.7365,7.017 L175.8496,7.211 L173.9618,7.405 L172.0647,7.623 L170.1678,7.842 L168.2636,8.085 L166.3605,8.328 L164.4524,8.592 L162.5436,8.857 L160.6312,9.145 L158.7189,9.433 L156.8052,9.745 L154.8925,10.056 L152.9803,10.389 L151.0671,10.721 L149.1564,11.076 L147.2456,11.431 L145.3393,11.808 L143.4339,12.186 L141.5344,12.583 L139.6338,12.98 L137.7415,13.399 L135.8491,13.818 L133.9672,14.258 L132.086,14.698 L130.2159,15.157 L128.3448,15.617 L126.4878,16.097 L124.6308,16.577 L122.7899,17.077 L120.9498,17.577 L119.1262,18.096 L117.3015,18.614 L115.4967,19.153 L113.6918,19.691 L111.9088,20.249 L110.1268,20.806 L108.3664,21.381 L106.6048,21.956 L104.8691,22.55 L103.133,23.144 L101.4249,23.756 L99.7176,24.368 L98.0375,24.997 L96.3559,25.626 L94.7059,26.272 L93.0556,26.919 L91.439,27.584 L89.8234,28.248 L88.24,28.928 L86.6552,29.608 L85.1078,30.305 L83.5599,31.003 L82.0516,31.717 L80.5442,32.43 L79.0746,33.158 L77.603,33.888 L76.1747,34.633 L74.7459,35.379 L73.3625,36.14 L71.9841,36.899 L70.6288,37.673 L69.3005,38.453 L67.9973,39.241 L66.7166,40.035 L65.4603,40.838 L64.2305,41.649 L63.0246,42.466 L61.8443,43.291 L60.6922,44.123 L59.5652,44.962 L58.4653,45.81 L57.395,46.664 L56.3512,47.525 L55.3359,48.395 L54.3518,49.271 L53.3954,50.155 L52.469,51.046 L51.5753,51.945 L50.7108,52.85 L49.8777,53.764 L49.079,54.684 L48.311,55.611 L47.576,56.548 L46.8772,57.49 L46.2107,58.44 L45.579,59.399 L44.9853,60.364 L44.4256,61.336 L43.9028,62.319 L43.4199,63.306 L42.973,64.3 L42.5652,65.305 L42.1993,66.314 L41.8714,67.33 L41.5851,68.356 L41.3427,69.385 L41.1404,70.42 L40.982,71.465 L40.8694,72.511 L40.7986,73.563 L40.7743,74.622 L40.7969,75.683 L40.863,76.747 L40.9773,77.817 L41.1396,78.887 L41.3464,79.96 L41.603,81.037 L41.9081,82.113 L42.2798,83.259 L42.6984,84.396 L43.1609,85.516 L43.6637,86.624 L44.2115,87.721 L44.8009,88.802 L45.4287,89.87 L46.0994,90.927 L46.8096,91.967 L47.5564,92.996 L48.3442,94.012 L49.1694,95.013 L50.0295,96.001 L50.9289,96.977 L51.8639,97.939 L52.8321,98.888 L53.8378,99.825 L54.8776,100.748 L55.9491,101.659 L57.0564,102.557 L58.1963,103.442 L59.3666,104.315 L60.5711,105.176 L61.8068,106.024 L63.0714,106.86 L64.3688,107.684 L65.6959,108.494 L67.0507,109.294 L68.4367,110.081 L69.8512,110.856 L71.292,111.619 L72.7626,112.37 L74.2603,113.108 L75.7831,113.836 L77.3342,114.551 L78.911,115.254 L80.5117,115.946 L82.1391,116.626 L83.7911,117.293 L85.4656,117.95 L87.1653,118.594 L88.8882,119.226 L90.6325,119.847 L92.4006,120.456 L94.1904,121.053 L96.0003,121.639 L97.8326,122.213 L99.6853,122.775 L101.5568,123.325 L103.4491,123.864 L105.3605,124.391 L107.2895,124.906 L109.2356,125.409 L110.2212,125.656 L111.2069,125.902 L112.2047,126.14 L113.1937,126.376 L114.1827,126.612 L115.1844,126.851 L116.2031,127.077 L117.2093,127.301 L118.2154,127.525 L119.2338,127.752 L120.2682,127.967 L121.2905,128.179 L122.3127,128.39 L123.3458,128.605 L124.3925,128.808 L125.4286,129.009 L126.4647,129.21 L127.5123,129.413 L128.574,129.604 L129.6244,129.793 L130.6748,129.983 L131.7363,130.174 L132.8109,130.352 L133.8745,130.529 L134.9381,130.706 L136.0115,130.885 L137.0961,131.053 L138.1709,131.219 L139.2457,131.385 L140.331,131.552 L141.4276,131.708 L142.5138,131.862 L143.6,132.016 L144.6964,132.171 L145.8031,132.314 L146.8996,132.456 L147.9961,132.598 L149.1018,132.741 L150.216,132.873 L151.321,133.003 L152.4261,133.134 L153.5411,133.266 L154.6644,133.385 L155.7779,133.504 L156.8915,133.622 L158.0148,133.742 L159.1454,133.849 L160.2663,133.955 L161.3873,134.062 L162.517,134.169 L163.6525,134.265 L164.7794,134.36 L165.9063,134.455 L167.0427,134.551 L168.1845,134.635 L169.3169,134.718 L170.4495,134.801 L171.5912,134.884 L172.7375,134.956 L173.8746,135.026 L175.0116,135.097 L176.157,135.168 L177.3057,135.228 L178.4459,135.288 L179.5862,135.347 L180.7357,135.407 L181.8878,135.455 L183.0308,135.502 L184.1738,135.55 L185.3259,135.597 L186.4797,135.632 L187.6243,135.667 L188.7688,135.702 L189.9217,135.737 L191.0753,135.761 L192.2206,135.784 L193.3658,135.808 L194.5202,135.831 L195.6744,135.843 L196.8194,135.854 L197.9645,135.865 L199.1186,135.876 L200.2716,135.875 L201.4153,135.874 L202.5591,135.872 L203.7112,135.871 L204.8614,135.858 L206.0032,135.846 L207.145,135.833 L208.296,135.821 L209.4439,135.796 L210.5826,135.77 L211.7213,135.745 L212.8693,135.72 L214.0131,135.682 L215.1476,135.645 L216.2822,135.608 L217.4253,135.57 L218.5637,135.521 L219.6937,135.472 L220.8235,135.423 L221.9629,135.374 L223.0964,135.312 L224.2203,135.25 L225.3442,135.189 L226.4778,135.127 L227.6043,135.053 L228.7211,134.978 L229.8379,134.904 L230.9637,134.83 L232.0822,134.743 L233.1918,134.658 L234.3014,134.572 L235.4209,134.486 L236.5316,134.387 L237.6323,134.289 L238.733,134.191 L239.8438,134.091 L240.9448,133.98 L242.0355,133.869 L243.1262,133.758 L244.2264,133.646 L245.3167,133.523 L246.3976,133.401 L247.4784,133.279 L248.5699,133.155 L249.6496,133.019 L250.7187,132.884 L251.7877,132.749 L252.8677,132.613 L253.9349,132.464 L254.9911,132.316 L256.0472,132.169 L257.1136,132.02 L258.1676,131.859 L259.2113,131.7 L260.2549,131.541 L261.3102,131.38 L262.3508,131.206 L263.3798,131.034 L264.4087,130.862 L265.4497,130.688 L266.475,130.502 L267.4881,130.317 L268.5013,130.132 L269.5257,129.945 L270.535,129.746 L271.533,129.549 L272.531,129.352 L273.5417,129.153 L274.5351,128.941 L275.5155,128.732 L276.4958,128.522 L277.494,128.309 L279.4264,127.862 L281.3625,127.415 L283.263,126.944 L285.1653,126.472 L287.0268,125.975 L288.8887,125.477 L290.7077,124.954 L292.5221,124.431 L294.3141,123.889 L296.0811,123.334 L297.8241,122.766 L299.5451,122.186 L301.2441,121.592 L302.9171,120.985 L304.5671,120.366 L306.1931,119.734 L307.7931,119.089 L309.3681,118.431 L310.9181,117.759 L312.4391,117.074 L313.9351,116.377 L315.4041,115.666 L316.8431,114.941 L318.2561,114.204 L319.6401,113.452 L320.9931,112.687 L322.3191,111.909 L323.6141,111.116 L324.8771,110.31 L326.1111,109.491 L327.3131,108.657 L328.4821,107.809 L329.6191,106.948 L330.7241,106.072 L331.7941,105.181 L332.8311,104.277 L333.8341,103.358 L334.8001,102.424 L335.7321,101.476 L336.6281,100.512 L337.4861,99.534 L338.3081,98.542 L339.0921,97.533 L339.8361,96.511 L340.5441,95.475 L341.2121,94.421 L341.8361,93.353 L342.4231,92.271 L342.9671,91.172 L343.4671,90.059 L343.9261,88.933 L344.3411,87.789 L344.7091,86.632 L345.0361,85.463 L345.3161,84.275 L345.5481,83.077 L345.7361,81.866 L345.8761,80.638 L345.9661,79.4 L346.0121,78.149 L346.0071,76.883 L345.9521,75.607 L345.8241,73.873 L345.6491,72.158 L345.4251,70.467 L345.1591,68.796 L344.8471,67.144 L344.4881,65.517 L344.0891,63.909 L343.6431,62.321 L343.1541,60.757 L342.6251,59.213 L342.0511,57.69 L341.4361,56.19 L340.7811,54.71 L340.0841,53.251 L339.3471,51.815 L338.5721,50.4 L337.7571,49.005 L336.9021,47.634 L336.0121,46.283 L335.0821,44.952 L334.1161,43.645 L333.1151,42.357 L332.0761,41.09 L331.0021,39.847 L329.8961,38.623 L328.7531,37.42 L327.5761,36.239 L326.3691,35.078 L325.1261,33.937 L323.8521,32.819 L322.5481,31.72 L321.2101,30.641 L319.8431,29.584 L318.4471,28.546 L317.0191,27.528 L315.5621,26.531 L314.0791,25.553 L312.5651,24.595 L311.0231,23.658 L309.4571,22.74 L307.8611,21.841 L306.2391,20.963 L304.5941,20.103 L302.9211,19.262 L301.2231,18.442 L299.5021,17.639 L297.7561,16.856 L295.9861,16.093 L294.1951,15.347 L292.3791,14.62 L290.5418,13.913 L288.6839,13.223 L286.8033,12.552 L284.9048,11.901 L283.9422,11.583 L282.9817,11.266 L282.0109,10.958 L281.0401,10.65 L280.0592,10.351 L279.0792,10.053 L278.0901,9.763 L277.1005,9.473 L276.1011,9.192 L275.1018,8.912 L274.0931,8.64 L273.0853,8.369 L272.0691,8.106 L271.0523,7.843 L270.0265,7.589 L269.0009,7.335 L267.9665,7.09 L266.933,6.846 L265.8918,6.609 L264.8499,6.373 L263.7998,6.145 L262.7497,5.918 L261.6918,5.699 L260.6345,5.481 L259.5702,5.271 L258.5054,5.06 L257.433,4.859 L256.3606,4.658 L255.2811,4.465 L254.2021,4.273 L253.1169,4.088 L252.0311,3.904 L250.9383,3.728 L249.8458,3.552 L248.7466,3.386 L247.6452,3.218 L246.5352,3.063 L245.4341,2.909 L244.3331,2.755 L243.2192,2.599 L242.0936,2.461 L240.9807,2.324 L239.8678,2.187 L238.7425,2.049 L237.6064,1.928 L236.4828,1.808 L235.3591,1.688 L234.2244,1.567 L233.0808,1.462 L231.9482,1.357 L230.8156,1.253 L229.6711,1.147 L228.5177,1.059 L227.3761,0.971 L226.2345,0.884 L225.0814,0.795 L223.9204,0.724 L222.7709,0.653 L221.6214,0.582 L220.4617,0.51 L219.2955,0.454 L218.1396,0.398 L216.9838,0.342 L215.8168,0.286 L214.6438,0.246 L213.4819,0.207 L212.3199,0.167 L211.147,0.128 L209.9692,0.104 L208.8021,0.081 L207.6351,0.058 L206.4584,0.034 L205.2779,0.026 L204.1071,0.017 L202.9363,0.009 L201.7549,0 L200.5704,0.008 L199.3964,0.016 L198.2223,0.024 L197.038,0.031 L195.8514,0.055 L194.6751,0.079 L193.4989,0.103 L192.3133,0.126 L191.1266,0.165 L189.9493,0.203 L188.7718,0.241 L187.5843,0.279 L186.3964,0.333 L185.2186,0.386 L184.0409,0.44 L182.8531,0.494 L181.6659,0.564 L180.4888,0.633 L179.3117,0.702 L178.1255,0.771 L176.9408,0.855 L175.7651,0.938 L174.5894,1.021 L173.4038,1.105 L172.2207,1.204 L171.0475,1.302 L169.8743,1.4 L168.6912,1.499 L167.5117,1.613 L166.342,1.726 L165.1724,1.84 L163.9937,1.954 L162.8191,2.082 L161.6534,2.209 L160.4878,2.336 L159.3124,2.464 L158.1422,2.607 L156.9819,2.749 L155.8216,2.891 L154.6515,3.034 L153.4877,3.192 L152.3339,3.348 L151.18,3.505 L150.0171,3.663 L148.8608,3.834 L147.7136,4.004 L146.5663,4.173 L145.4091,4.345 L144.2601,4.53 L143.121,4.715 L141.982,4.899 L140.8329,5.085 L139.693,5.285 L138.5632,5.483 L137.4334,5.682 L136.2944,5.882 L135.1646,6.095 L134.0441,6.306 L132.9235,6.518 L131.7927,6.731 L130.6729,6.958 L129.5634,7.184 L128.4539,7.409 L127.334,7.637 L126.2262,7.878 L125.1288,8.117 L124.0314,8.356 L122.9245,8.598 L121.8293,8.852 L120.7438,9.104 L119.6583,9.355 L118.562,9.61 L117.4796,9.878 L116.408,10.143 L115.3364,10.409 L114.2539,10.677 L113.1863,10.958 L112.1296,11.237 L111.073,11.516 L110.0062,11.798 L108.9538,12.092 L107.9116,12.383 L106.8694,12.674 L105.8158,12.968 L104.779,13.275 L103.7535,13.58 L102.7281,13.884 L101.691,14.192 L100.6717,14.513 L99.6641,14.83 L98.6565,15.147 L97.638,15.468 L96.6365,15.801 L95.646,16.13 L94.6554,16.459 L93.6526,16.792 L92.6693,17.138 L91.6984,17.48 L90.7275,17.822 L89.7439,18.168 L88.7809,18.528 L87.8307,18.882 L86.8804,19.237 L85.9214,19.595 L84.9768,19.961 L84.0323,20.328 L82.1721,21.071 L80.3326,21.828 L78.5138,22.596 L76.7177,23.377 L74.9459,24.17 L73.1962,24.975 L71.4704,25.792 L69.7705,26.621 L68.0939,27.462 L66.4426,28.315 L64.8185,29.18 L63.2191,30.056 L61.6464,30.944 L60.1023,31.844 L58.5842,32.755 L57.094,33.679 L55.6342,34.614 L54.2014,35.56 L52.7981,36.518 L51.4264,37.488 L50.0832,38.468 L48.7708,39.461 L47.4916,40.465 L46.2421,41.48 L45.0248,42.507 L43.8422,43.545 L42.6907,44.594 L41.5728,45.655 L40.4911,46.728 L39.4419,47.81 L38.428,48.906 L37.4517,50.012 L36.5094,51.129 L35.6037,52.259 L34.7375,53.398 L33.9067,54.549 L33.1142,55.712 L32.3628,56.886 L31.6483,58.07 L30.974,59.267 L30.3424,60.473 L29.7493,61.69 L29.1982,62.92 L28.6916,64.158 L28.2251,65.407 L27.8026,66.669 L27.426,67.939 L27.0931,69.215 L26.814,70.479 L26.5892,71.724 L26.4126,72.956 L26.2882,74.175 L26.2156,75.375 L26.1892,76.561 L26.2129,77.735 L26.2857,78.89 L26.4025,80.03 L26.5671,81.156 L26.7777,82.264 L27.0297,83.356 L27.3269,84.434 L27.6667,85.494 L28.0452,86.537 L28.4657,87.567 L28.9255,88.577 L29.4208,89.572 L29.9552,90.553 L30.5254,91.515 L31.1283,92.461 L31.767,93.394 L32.4383,94.309 L33.1393,95.209 L33.8732,96.096 L34.6366,96.965 L35.4271,97.821 L36.2474,98.663 L37.0944,99.489 L37.9658,100.302 L38.8642,101.102 L39.7867,101.888 L40.7309,102.66 L41.6995,103.42 L42.6894,104.167 L43.6988,104.901 L44.7296,105.623 L45.7792,106.332 L46.8459,107.03 L47.9314,107.717 L49.0367,108.393 L50.1561,109.048 L51.2797,109.707 L52.4335,110.343 L53.586,110.978 L54.765,111.592 L55.9418,112.205 L57.1394,112.8 L58.3372,113.394 L59.5547,113.969 L60.7711,114.543 L62.0033,115.098 L63.2338,115.651 L64.4755,116.188 L65.7173,116.725 L66.9682,117.244 L68.2181,117.763 L69.4733,118.264 L70.727,118.765 L71.9825,119.251 L73.2378,119.736 L74.4917,120.205 L75.7447,120.674 L76.9924,121.128 L78.2389,121.581 L79.4775,122.021 L80.7157,122.46 L81.9421,122.885 L83.1675,123.31 L84.3769,123.722 L85.5853,124.133 L86.7762,124.532 L87.9667,124.931 L89.1345,125.318 L90.3014,125.705 L91.4418,126.079 L92.5814,126.454 L93.6938,126.818 L94.8053,127.181 L95.8837,127.535 L96.961,127.887 L98.0012,128.23 L99.0406,128.573 L100.0431,128.907 L101.0444,129.24 L102.0018,129.565 L102.9562,129.889 L104.7761,130.522 L105.6454,130.831 L106.4899,131.136 L107.3062,131.438 L108.0959,131.737 L108.8548,132.031 L109.5893,132.325 L110.3265,132.618 L111.0943,132.913 L111.8848,133.206 L112.6964,133.497 L113.5314,133.786 L114.3938,134.076 L116.1638,134.644 L118.0246,135.206 L119.0029,135.484 L119.9767,135.761 L120.9889,136.034 L122.0016,136.308 L123.0555,136.577 L124.109,136.846 L125.2026,137.111 L126.2952,137.375 L127.4232,137.636 L128.5517,137.896 L129.7181,138.151 L130.8843,138.407 L132.0871,138.657 L133.2893,138.907 L134.5239,139.152 L135.7588,139.397 L137.0283,139.636 L138.2977,139.876 L139.6005,140.109 L140.9027,140.343 L142.2342,140.571 L143.5662,140.799 L144.9294,141.021 L146.2925,141.242 L147.6856,141.457 L149.0782,141.672 L150.4971,141.881 L151.9164,142.09 L153.3636,142.291 L154.8108,142.493 L156.2846,142.688 L157.7579,142.882 L159.2546,143.069 L160.7516,143.257 L162.2731,143.437 L163.7945,143.617 L165.3393,143.789 L166.8837,143.961 L168.4483,144.125 L170.0133,144.29 L171.5994,144.445 L173.1855,144.601 L174.7916,144.748 L176.3973,144.895 L178.0202,145.034 L179.6434,145.173 L181.2845,145.303 L182.9255,145.432 L184.5831,145.552 L186.2404,145.672 L187.9118,145.783 L189.5835,145.895 L191.2698,145.996 L192.9559,146.097 L194.6554,146.188 L196.3545,146.279 L198.0646,146.36 L199.7751,146.441 L201.4966,146.512 L203.2182,146.583 L204.9497,146.642 L206.6808,146.702 L208.4199,146.751 L210.1594,146.801 L211.9066,146.838 L213.6538,146.876 L215.4075,146.903 L217.1609,146.929 L218.9192,146.944 L220.6779,146.959 L222.441,146.962 L224.204,146.965 L225.9703,146.956 L227.7361,146.946 L229.5038,146.925 L231.272,146.904 L233.0411,146.87 L234.8104,146.836 L236.5793,146.789 L238.3479,146.741 L240.1152,146.682 L241.8831,146.623 L243.6485,146.55 L245.4141,146.477 L247.1761,146.39 L248.9376,146.303 L250.6949,146.203 L252.4527,146.103 L254.2048,145.989 L255.9569,145.874 L257.7021,145.745 L259.4468,145.616 L261.1843,145.473 L262.9223,145.33 L264.6512,145.172 L266.3802,145.014 L268.0988,144.841 L269.8171,144.667 L271.5249,144.48 L273.2334,144.292 L274.9293,144.088 L276.6255,143.884 L278.3078,143.664 L279.9899,143.444 L281.6584,143.209 L283.3277,142.974 L284.9811,142.723 L286.6347,142.471 L288.2712,142.203 L289.9072,141.934 L291.5267,141.65 L293.1471,141.366 L294.7481,141.064 L296.3491,140.762 L297.9301,140.442 L299.5111,140.123 L301.0711,139.787 L302.6331,139.45 L304.1721,139.096 L305.7121,138.741 L307.2271,138.368 L308.7421,137.995 L310.2351,137.605 L311.7281,137.215 L313.1961,136.806 L314.6641,136.396 L316.1041,135.967 L317.5451,135.538 L318.9591,135.092 L320.3741,134.645 L321.7611,134.178 L323.1471,133.711 L324.5031,133.224 L325.8591,132.737 L327.1861,132.232 L328.5141,131.726 L329.8091,131.199 L331.1051,130.672 L332.3671,130.125 L333.6281,129.577 L334.8581,129.01 L336.0891,128.442 L337.2841,127.853 L338.4791,127.263 L339.6371,126.652 L340.7941,126.041 L341.9171,125.41 L343.0411,124.777 L344.1261,124.123 L345.2111,123.467 L346.2551,122.79 L347.2951,122.115 L348.3151,121.418 L349.3101,120.712 L350.2841,119.995 L351.2381,119.266 L352.1711,118.525 L353.0811,117.772 L353.9711,117.008 L354.8391,116.231 L355.6831,115.442 L356.5051,114.642 L357.3051,113.828 L358.0801,113.003 L358.8331,112.165 L359.5621,111.314 L360.2651,110.451 L360.9451,109.576 L361.6001,108.687 L362.2281,107.786 L362.8321,106.873 L363.4101,105.945 L363.9611,105.006 L364.4871,104.054 L364.9851,103.088 L365.4551,102.109 L365.8991,101.119 L366.3151,100.113 L366.7011,99.096 L367.0601,98.067 L367.3901,97.023 L367.6901,95.965 L368.0601,94.519 L368.3871,93.081 L368.6691,91.657 L368.9121,90.244 L369.1121,88.843 L369.2691,87.455 L369.3891,86.078 L369.4681,84.712 L369.5071,83.361 L369.5071,82.021 L369.4691,80.692 L369.3931,79.377 L369.2821,78.074 L369.1331,76.782 L368.9481,75.505 L368.7291,74.239 L368.4751,72.985 L368.1861,71.745 L367.8671,70.518 L367.5131,69.302 L367.1261,68.101 L366.7111,66.912 L366.2631,65.734 L365.7851,64.572 L365.2801,63.421 L364.7441,62.282 L364.1801,61.158 L363.5911,60.046 L362.9731,58.946 L362.3291,57.86 L361.6621,56.786 L360.9681,55.724 L360.2501,54.676 L359.5091,53.641 L358.7451,52.617 L357.9591,51.607 L357.1521,50.609 L356.3221,49.623 L355.4731,48.65 L354.6051,47.689 L353.7171,46.741 L352.8061,45.802 L351.8781,44.888 L350.9461,43.969 L349.9791,43.076 L349.0121,42.183 L348.0131,41.314 L347.0151,40.447 L345.9901,39.602 L344.9651,38.756 L343.9121,37.935 L342.8601,37.114 L341.7821,36.317 L340.7071,35.522 L339.6101,34.747 L338.5141,33.973 L337.3971,33.222 L336.2801,32.472 L335.1461,31.746 L334.0141,31.02 L332.8681,30.316 L331.7211,29.611 L330.5621,28.93 L329.4031,28.249 L328.2341,27.591 L327.0661,26.935 L325.8911,26.299 L324.7161,25.663 L323.5351,25.05 L322.3551,24.437 L321.1721,23.847 L319.9901,23.258 L318.8081,22.69 L317.6261,22.122 L316.4451,21.576 L315.2651,21.031 L314.0901,20.508 L312.9151,19.986 L311.7471,19.485 L310.5791,18.983 L309.4201,18.504 L308.2611,18.025 L307.1151,17.568 L305.9691,17.112 L304.8361,16.676 L303.7041,16.24 L302.5871,15.826 L301.4721,15.412 L300.3751,15.02 L299.2801,14.629 L298.2041,14.257 L297.1281,13.886 L296.0761,13.536 L295.0241,13.186 L294.0001,12.859 L292.9731,12.53 L291.5631,12.101 L290.1061,11.684 L288.6069,11.281 L287.0694,10.891 L285.4894,10.514 L283.8693,10.151 L282.2126,9.801 L280.5158,9.464 L278.7807,9.141 L277.011,8.831 L275.2033,8.533 L273.3595,8.249 L271.483,7.977 L269.5708,7.718 L267.6246,7.472 L265.6492,7.238 L264.6423,7.128 L263.6371,7.017 L262.6157,6.913 L261.5948,6.809 L260.5594,6.711 L259.5237,6.613 L258.4725,6.521 L257.4214,6.43 L256.3552,6.344 L255.2894,6.259 L254.2101,6.18 L253.1305,6.1 L252.0366,6.027 L250.9427,5.954 L249.8349,5.888 L248.7274,5.821 L247.6075,5.76 L246.4874,5.699 L245.3539,5.644 L244.2205,5.59 L243.0742,5.541 L241.9283,5.493 L240.7709,5.45 L239.6134,5.408 L238.4437,5.371 L237.274,5.335 L236.0925,5.305 L234.9114,5.274 L233.7199,5.25 L232.5281,5.225 L231.3254,5.207 L230.1226,5.188 L228.9092,5.176 L227.6962,5.164 L226.4737,5.157 L225.2511,5.151 L224.0185,5.15 L222.7859,5.15 L221.5439,5.155 L220.3009,5.161 L219.0456,5.175 L217.7938,5.189 L216.542,5.203 L215.2852,5.217 L214.0115,5.243 L212.7428,5.269 L211.4741,5.295 L210.2005,5.321 L208.9117,5.359 L207.6278,5.397 L206.3438,5.435 L205.0555,5.473 L203.7547,5.522 L202.4582,5.571 L201.1616,5.62 L199.8604,5.668 L198.5469,5.729 L197.2379,5.789 L195.9289,5.849 L194.6154,5.91 L193.2912,5.982 L191.9715,6.054 L190.6517,6.126 L189.328,6.199 L187.9958,6.282 L186.6675,6.364 L185.3393,6.447 L184.0068,6.53 L182.6663,6.625 L181.3302,6.719 L179.9941,6.814 L178.6537,6.908 L177.3071,7.015 L175.9648,7.121 L174.6224,7.227 L173.2762,7.333 L171.9256,7.45 L170.5789,7.566 L169.2322,7.682 L167.8812,7.799 L166.5269,7.928 L165.1768,8.055 L163.8267,8.183 L162.4724,8.311 L161.1164,8.451 L159.7645,8.59 L158.4126,8.729 L157.057,8.868 L155.701,9.018 L154.3489,9.167 L152.9968,9.316 L151.6404,9.466 L150.2853,9.627 L148.9343,9.787 L147.5833,9.947 L146.2281,10.108 L144.8756,10.28 L143.5275,10.452 L142.1792,10.624 L140.8271,10.796 L139.4789,10.978 L138.1346,11.159 L136.7902,11.341 L135.4415,11.523 L134.0984,11.716 L132.7598,11.909 L131.4211,12.101 L130.078,12.295 L128.7422,12.499 L127.4108,12.702 L126.0794,12.906 L124.7439,13.11 L123.4164,13.324 L122.0929,13.537 L120.7695,13.75 L119.4415,13.964 L118.1235,14.189 L116.8102,14.413 L115.497,14.637 L114.1789,14.862 L112.8727,15.097 L111.5713,15.332 L110.2698,15.566 L108.9639,15.802 L107.6701,16.047 L106.3807,16.291 L105.0913,16.536 L103.7969,16.781 L102.5171,17.037 L101.2424,17.292 L99.9677,17.546 L98.6878,17.802 L97.4242,18.069 L96.1658,18.334 L94.9075,18.599 L93.6442,18.866 L92.397,19.142 L91.1548,19.417 L89.9126,19.691 L88.6648,19.967 L87.4361,20.254 L86.2132,20.539 L84.9902,20.824 L83.7613,21.111 L82.5533,21.408 L81.3516,21.704 L80.1498,22.001 L78.9438,22.299 L77.753,22.604 L76.5631,22.908 L75.3848,23.218 L74.2063,23.528 L73.0398,23.842 L71.8736,24.157 L70.7185,24.476 L69.563,24.796 L68.4202,25.12 L67.2773,25.444 L66.1475,25.774 L65.0179,26.103 L63.9004,26.437 L62.7826,26.771 L61.6786,27.11 L60.5745,27.449 L59.4845,27.793 L58.3948,28.137 L57.3182,28.485 L56.2413,28.834 L55.1792,29.187 L54.1171,29.541 L53.0702,29.899 L52.0237,30.257 L50.9913,30.62 L49.9585,30.983 L48.9417,31.351 L47.9249,31.719 L46.9243,32.092 L45.9241,32.464 L44.9391,32.841 L43.9537,33.219 L42.9852,33.6 L42.0167,33.982 L41.0656,34.369 L40.1149,34.756 L39.1804,35.147 L38.2437,35.538 L36.4117,36.33 L34.6155,37.131 L32.8537,37.942 L31.1297,38.762 L29.4455,39.592 L27.7977,40.431 L26.1898,41.28 L24.6241,42.138 L23.0965,43.005 L21.6113,43.882 L20.1702,44.768 L18.7695,45.664 L17.4131,46.569 L16.1033,47.484 L14.8358,48.408 L13.6147,49.343 L12.4426,50.287 L11.3148,51.24 L10.2357,52.205 L9.2076,53.178 L8.2255,54.16 L7.2943,55.154 L6.4169,56.158 L5.5883,57.171 L4.8133,58.197 L4.0947,59.232 L3.4274,60.277 L2.8166,61.335 L2.2651,62.402 L1.7679,63.479 L1.3302,64.57 L0.9551,65.668 L0.6371,66.777 L0.3823,67.898 L0.1928,69.026 L0.0632,70.163 L0,71.311 L0.0044,72.465 L0.071,73.626 L0.2066,74.796 L0.4113,75.971 L0.6796,77.152 L1.0189,78.34 L1.4283,79.532 L1.9026,80.729 L2.4493,81.933 L3.0673,83.14 L3.7514,84.353 L4.5094,85.572 L5.3402,86.795 L6.2385,88.022 L7.2125,89.257 L8.2606,90.496 L9.378,91.741 L10.5729,92.992 L11.8447,94.248 L13.1874,95.51 L14.6099,96.779 L16.1089,98.051 L16.8983,98.693 L17.6859,99.333 L18.5142,99.976 L19.3423,100.62 L20.2116,101.266 L21.0801,101.912 L21.9863,102.562 L22.893,103.211 L23.8415,103.864 L24.79,104.516 L25.7807,105.172 L26.7707,105.828 L27.7994,106.486 L28.8286,107.145 L29.9008,107.808 L30.9729,108.47 L32.0884,109.135 L33.2032,109.8 L34.3579,110.468 L35.513,111.137 L36.7121,111.809 L37.9112,112.48 L39.1549,113.155 L40.3979,113.83 L41.6817,114.508 L42.9659,115.186 L44.2953,115.868 L45.6247,116.549 L46.9997,117.234 L48.3743,117.919 L49.7908,118.606 L51.2076,119.294 L52.6708,119.985 L54.1339,120.676 L55.6439,121.37 L57.1525,122.064 L58.6952,122.761 L60.261,123.459 L61.8502,124.158 L63.4612,124.86 L65.0962,125.562 L66.7552,126.267 L68.4361,126.973 L70.1415,127.68 L71.871,128.389 L73.6226,129.1 L75.399,129.812 L77.2023,130.527 L78.7666,131.129 L80.3342,131.732 L81.8996,132.301 L83.4651,132.871 L85.0291,133.407 L86.5924,133.943 L88.1549,134.45 L89.7181,134.957 L91.2811,135.432 L92.844,135.907 L94.4073,136.351 L95.9699,136.795 L97.5333,137.211 L99.0975,137.627 L100.6631,138.013 L102.2287,138.4 L103.7966,138.757 L105.3636,139.114 L106.9332,139.445 L108.5033,139.776 L110.077,140.08 L111.6504,140.383 L113.228,140.659 L114.8047,140.935 L116.3856,141.187 L117.9672,141.439 L119.5539,141.665 L121.1405,141.891 L122.733,142.092 L124.3246,142.292 L125.9222,142.471 L127.5203,142.649 L129.1254,142.804 L130.7303,142.958 L132.343,143.089 L133.9549,143.22 L135.5743,143.331 L137.1942,143.442 L138.823,143.53 L140.4516,143.619 L142.0898,143.686 L143.7272,143.753 L145.3738,143.802 L147.0209,143.851 L148.6786,143.879 L150.3362,143.908 L152.0051,143.917 L153.6685,143.926 C154.1987,143.929 154.6307,143.501 154.6335,142.971 C154.6362,142.441 154.2086,142.009 153.6784,142.006 L152.015,141.998 L150.3572,141.99 L148.7109,141.963 L147.0647,141.936 L145.4294,141.889 L143.7938,141.842 L142.1675,141.777 L140.5419,141.711 L138.926,141.625 L137.3102,141.538 L135.7034,141.43 L134.0962,141.321 L132.4966,141.192 L130.8978,141.064 L129.3067,140.912 L127.7158,140.76 L126.1321,140.584 L124.5478,140.409 L122.9693,140.211 L121.3918,140.013 L119.8201,139.791 L118.2486,139.568 L116.6824,139.32 L115.1155,139.071 L113.5528,138.799 L111.991,138.527 L110.4332,138.228 L108.8755,137.929 L107.3211,137.602 L105.7661,137.276 L104.2136,136.923 L102.6619,136.571 L101.1124,136.19 L99.5629,135.809 L98.0149,135.398 L96.4662,134.987 L94.9183,134.549 L93.3712,134.111 L91.8243,133.642 L90.2776,133.173 L88.7303,132.673 L87.1824,132.172 L85.6335,131.643 L84.0854,131.113 L82.5356,130.551 L80.9859,129.988 L79.4338,129.393 L77.8785,128.796 L76.0862,128.087 L74.3163,127.378 L72.5709,126.671 L70.8478,125.966 L69.1493,125.263 L67.475,124.561 L65.8228,123.86 L64.1949,123.162 L62.5909,122.465 L61.0088,121.77 L59.4507,121.076 L57.9172,120.384 L56.4139,119.694 L54.912,119.005 L53.4571,118.319 L52.0023,117.633 L50.594,116.95 L49.1855,116.267 L47.819,115.588 L46.4529,114.909 L45.1329,114.233 L43.8128,113.557 L42.5383,112.885 L41.2633,112.213 L40.0294,111.544 L38.7962,110.875 L37.6078,110.209 L36.4194,109.544 L35.2755,108.882 L34.1311,108.22 L33.0268,107.562 L31.923,106.904 L30.863,106.249 L29.803,105.595 L28.7864,104.944 L27.7692,104.294 L26.7911,103.646 L25.8136,102.999 L24.8788,102.356 L23.944,101.713 L23.0514,101.074 L22.1583,100.435 L21.3031,99.799 L20.4488,99.164 L19.6359,98.532 L18.8231,97.901 L18.0514,97.274 L17.2815,96.649 L15.8091,95.4 L14.4208,94.162 L13.1119,92.932 L11.8749,91.711 L10.7174,90.499 L9.6367,89.296 L8.6258,88.102 L7.6924,86.917 L6.8331,85.742 L6.0414,84.575 L5.3239,83.42 L4.6779,82.274 L4.0967,81.138 L3.5867,80.013 L3.1452,78.897 L2.7656,77.791 L2.4538,76.697 L2.2075,75.611 L2.0202,74.534 L1.8973,73.468 L1.8372,72.409 L1.8335,71.358 L1.8912,70.318 L2.0098,69.283 L2.183,68.254 L2.4153,67.234 L2.7072,66.219 L3.0523,65.209 L3.4549,64.208 L3.9161,63.21 L4.4294,62.217 L4.9988,61.232 L5.6255,60.252 L6.303,59.277 L7.0348,58.309 L7.8225,57.347 L8.6594,56.391 L9.5489,55.442 L10.4922,54.499 L11.4833,53.564 L12.5254,52.637 L13.619,51.716 L14.7581,50.803 L15.9456,49.898 L17.1824,49 L18.4626,48.11 L19.789,47.228 L21.1623,46.354 L22.5769,45.488 L24.0355,44.631 L25.5386,43.782 L27.0809,42.941 L28.665,42.109 L30.2911,41.285 L31.9544,40.47 L33.6572,39.664 L35.3996,38.867 L37.1771,38.078 L38.9935,37.298 L39.9176,36.913 L40.8439,36.528 L41.7865,36.147 L42.7288,35.766 L43.6887,35.39 L44.6487,35.014 L45.626,34.643 L46.6038,34.271 L47.5969,33.904 L48.5897,33.538 L49.599,33.175 L50.6083,32.813 L51.6337,32.456 L52.6596,32.099 L53.6998,31.746 L54.7396,31.393 L55.7947,31.045 L56.85,30.697 L57.9202,30.354 L58.9907,30.01 L60.0745,29.671 L61.1581,29.333 L62.2558,28.999 L63.3536,28.665 L64.4651,28.336 L65.5771,28.007 L66.7013,27.683 L67.8251,27.358 L68.9621,27.039 L70.0991,26.719 L71.2488,26.405 L72.3988,26.09 L73.56,25.78 L74.7209,25.471 L75.8938,25.166 L77.0667,24.861 L78.2511,24.561 L79.4346,24.262 L80.633,23.969 L81.8356,23.676 L83.0381,23.382 L84.2345,23.088 L85.4517,22.805 L86.6748,22.52 L87.8979,22.236 L89.1153,21.952 L90.352,21.679 L91.5943,21.405 L92.8366,21.13 L94.074,20.857 L95.3275,20.593 L96.5859,20.328 L97.8444,20.063 L99.0976,19.8 L100.3672,19.546 L101.642,19.292 L102.9167,19.037 L104.1865,18.784 L105.4709,18.541 L106.7604,18.297 L108.0499,18.053 L109.3348,17.81 L110.6319,17.577 L111.9335,17.343 L113.235,17.108 L114.5317,16.875 L115.8403,16.652 L117.1537,16.429 L118.467,16.205 L119.7757,15.983 L121.0946,15.771 L122.4181,15.558 L123.7416,15.345 L125.0611,15.134 L126.3884,14.932 L127.7199,14.729 L129.0514,14.526 L130.3784,14.324 L131.7128,14.133 L133.0516,13.941 L134.3903,13.75 L135.7247,13.558 L137.0648,13.378 L138.4092,13.198 L139.7537,13.017 L141.0942,12.837 L142.4385,12.666 L143.7868,12.496 L145.1351,12.325 L146.4791,12.155 L147.8259,11.996 L149.1769,11.836 L150.528,11.677 L151.8748,11.517 L153.2228,11.37 L154.5749,11.221 L155.9271,11.073 L157.2755,10.925 L158.6236,10.787 L159.9755,10.649 L161.3274,10.511 L162.6752,10.374 L164.0212,10.248 L165.3714,10.121 L166.7215,9.995 L168.0676,9.869 L169.4101,9.754 L170.757,9.639 L172.1038,9.524 L173.4468,9.409 L174.7854,9.305 L176.1279,9.2 L177.4703,9.096 L178.8085,8.991 L180.1404,8.899 L181.4766,8.806 L182.8127,8.712 L184.1446,8.62 L185.4686,8.539 L186.7969,8.457 L188.1252,8.376 L189.4495,8.295 L190.7652,8.224 L192.0851,8.153 L193.4049,8.083 L194.7202,8.012 L196.0248,7.953 L197.3338,7.895 L198.6428,7.836 L199.9473,7.777 L201.2393,7.73 L202.536,7.683 L203.8326,7.637 L205.125,7.59 L206.4047,7.554 L207.6888,7.518 L208.9728,7.483 L210.2521,7.447 L211.5159,7.423 L212.7847,7.399 L214.0534,7.376 L215.3172,7.352 L216.564,7.34 L217.8158,7.328 L219.0676,7.317 L220.3158,7.305 L221.5517,7.301 L222.7886,7.298 L224.0158,7.3 L225.243,7.303 L226.4602,7.312 L227.6777,7.32 L228.8857,7.334 L230.0934,7.349 L231.2905,7.369 L232.4875,7.389 L233.6733,7.416 L234.8595,7.442 L236.0351,7.474 L237.2105,7.506 L238.3741,7.545 L239.5375,7.583 L240.6888,7.627 L241.8403,7.672 L242.9802,7.722 L244.1199,7.772 L245.2466,7.829 L246.3732,7.885 L247.4864,7.948 L248.6,8.01 L249.7009,8.079 L250.8016,8.147 L251.888,8.221 L252.9745,8.296 L254.0464,8.377 L255.1186,8.458 L256.1772,8.544 L257.2355,8.631 L258.2784,8.724 L259.3213,8.817 L260.3486,8.916 L261.376,9.015 L262.389,9.12 L263.4015,9.225 L264.3975,9.336 L265.392,9.448 L267.3521,9.683 L269.2793,9.93 L271.1708,10.19 L273.0265,10.462 L274.8487,10.747 L276.6326,11.044 L278.3787,11.353 L280.0889,11.675 L281.7586,12.009 L283.388,12.356 L284.9795,12.715 L286.5279,13.086 L288.0336,13.47 L289.4992,13.866 L290.9191,14.275 L292.2971,14.697 L293.3061,15.022 L294.3181,15.347 L295.3571,15.694 L296.3961,16.04 L297.4591,16.409 L298.5231,16.778 L299.6061,17.167 L300.6891,17.556 L301.7921,17.966 L302.8941,18.377 L304.0131,18.81 L305.1331,19.242 L306.2651,19.696 L307.3971,20.148 L308.5421,20.623 L309.6861,21.098 L310.8391,21.595 L311.9931,22.093 L313.1531,22.611 L314.3131,23.128 L315.4771,23.668 L316.6411,24.208 L317.8071,24.77 L318.9741,25.332 L320.1401,25.915 L321.3061,26.497 L322.4691,27.102 L323.6311,27.707 L324.7881,28.335 L325.9461,28.962 L327.0971,29.611 L328.2461,30.259 L329.3861,30.93 L330.5251,31.6 L331.6511,32.294 L332.7781,32.988 L333.8911,33.702 L335.0031,34.416 L336.0981,35.153 L337.1921,35.89 L338.2661,36.65 L339.3411,37.41 L340.3951,38.191 L341.4471,38.971 L342.4761,39.775 L343.5031,40.578 L344.5031,41.404 L345.5041,42.231 L346.4771,43.079 L347.4491,43.925 L348.3891,44.795 L349.3291,45.664 L350.2331,46.556 L351.1421,47.453 L352.0191,48.358 L352.8791,49.277 L353.7191,50.208 L354.5411,51.149 L355.3411,52.101 L356.1201,53.065 L356.8791,54.04 L357.6141,55.025 L358.3261,56.022 L359.0161,57.03 L359.6811,58.048 L360.3211,59.079 L360.9381,60.12 L361.5281,61.171 L362.0911,62.235 L362.6301,63.309 L363.1391,64.394 L363.6211,65.491 L364.0761,66.599 L364.5011,67.717 L364.8961,68.849 L365.2631,69.991 L365.5981,71.143 L365.9011,72.309 L366.1751,73.485 L366.4151,74.673 L366.6221,75.873 L366.7971,77.085 L366.9381,78.308 L367.0431,79.545 L367.1151,80.793 L367.1501,82.052 L367.1491,83.326 L367.1121,84.611 L367.0371,85.908 L366.9231,87.219 L366.7731,88.543 L366.5821,89.878 L366.3501,91.228 L366.0791,92.59 L365.7671,93.964 L365.4101,95.355 L365.1291,96.345 L364.8201,97.322 L364.4831,98.288 L364.1201,99.243 L363.7311,100.184 L363.3131,101.115 L362.8711,102.035 L362.4031,102.941 L361.9081,103.837 L361.3891,104.723 L360.8451,105.596 L360.2741,106.458 L359.6791,107.31 L359.0601,108.15 L358.4151,108.98 L357.7481,109.799 L357.0561,110.606 L356.3391,111.403 L355.6001,112.19 L354.8381,112.966 L354.0511,113.731 L353.2431,114.486 L352.4121,115.23 L351.5571,115.963 L350.6821,116.687 L349.7851,117.4 L348.8651,118.102 L347.9241,118.794 L346.9631,119.476 L345.9831,120.144 L344.9671,120.804 L343.9551,121.461 L342.9021,122.096 L341.8491,122.731 L340.7561,123.345 L339.6611,123.961 L338.5311,124.557 L337.4021,125.153 L336.2361,125.728 L335.0691,126.303 L333.8651,126.858 L332.6601,127.413 L331.4231,127.95 L330.1871,128.487 L328.9161,129.003 L327.6451,129.519 L326.3421,130.016 L325.0361,130.513 L323.7021,130.992 L322.3681,131.47 L321.0041,131.929 L319.6391,132.389 L318.2451,132.829 L316.8491,133.269 L315.4271,133.692 L314.0061,134.114 L312.5581,134.518 L311.1091,134.922 L309.6341,135.307 L308.1581,135.693 L306.6601,136.061 L305.1621,136.43 L303.6391,136.78 L302.1171,137.13 L300.5711,137.462 L299.0251,137.795 L297.4591,138.111 L295.8941,138.427 L294.3081,138.726 L292.7211,139.025 L291.1157,139.306 L289.5091,139.588 L287.8859,139.854 L286.2632,140.12 L284.6232,140.369 L282.983,140.618 L281.3269,140.851 L279.67,141.084 L277.9995,141.301 L276.3294,141.519 L274.6455,141.72 L272.9614,141.922 L271.2647,142.107 L269.5674,142.293 L267.8595,142.464 L266.1521,142.636 L264.4343,142.792 L262.7162,142.948 L260.9891,143.089 L259.2612,143.23 L257.5261,143.357 L255.7912,143.485 L254.0493,143.597 L252.3073,143.71 L250.5594,143.808 L248.8111,143.907 L247.0584,143.992 L245.306,144.078 L243.55,144.149 L241.7939,144.221 L240.0354,144.279 L238.2763,144.337 L236.516,144.382 L234.756,144.428 L232.9958,144.46 L231.2355,144.492 L229.4762,144.512 L227.7164,144.531 L225.9584,144.539 L224.2007,144.547 L222.4462,144.542 L220.6916,144.538 L218.9413,144.521 L217.1905,144.504 L215.4448,144.477 L213.6993,144.449 L211.9604,144.41 L210.2213,144.37 L208.49,144.32 L206.7583,144.269 L205.0346,144.208 L203.3112,144.147 L201.5977,144.075 L199.8841,144.004 L198.1817,143.921 L196.4789,143.838 L194.7871,143.746 L193.0957,143.654 L191.4175,143.552 L189.7394,143.449 L188.0757,143.337 L186.4115,143.225 L184.7616,143.104 L183.112,142.983 L181.4792,142.852 L179.8462,142.722 L178.2311,142.582 L176.6157,142.442 L175.0175,142.294 L173.4197,142.146 L171.8419,141.99 L170.2641,141.833 L168.7076,141.668 L167.1507,141.503 L165.6141,141.331 L164.078,141.158 L162.5652,140.978 L161.0525,140.797 L159.5644,140.609 L158.0761,140.42 L156.6111,140.225 L155.1465,140.03 L153.7089,139.827 L152.2712,139.625 L150.8616,139.416 L149.4516,139.206 L148.0681,138.991 L146.6851,138.775 L145.3323,138.553 L143.9797,138.331 L142.6584,138.103 L141.3368,137.875 L140.0448,137.642 L138.7534,137.408 L137.4957,137.169 L136.238,136.93 L135.0152,136.685 L133.792,136.441 L132.6016,136.191 L131.4118,135.942 L130.2591,135.688 L129.1066,135.434 L127.9924,135.176 L126.8779,134.917 L125.7991,134.654 L124.7212,134.392 L123.6838,134.125 L122.6468,133.858 L121.6515,133.588 L120.6557,133.318 L119.699,133.044 L118.7468,132.771 L116.921,132.217 L115.1839,131.657 L114.3551,131.377 L113.5455,131.095 L112.7594,130.812 L111.9957,130.527 L111.2574,130.243 L110.5372,129.954 L109.7921,129.655 L109.0114,129.351 L108.2034,129.044 L107.3708,128.735 L106.5116,128.422 L105.6246,128.105 L103.7938,127.465 L102.8275,127.136 L101.864,126.808 L100.8569,126.47 L99.8509,126.134 L98.8082,125.788 L97.7663,125.443 L96.6872,125.088 L95.6092,124.733 L94.498,124.367 L93.3875,124.002 L92.2497,123.626 L91.1129,123.251 L89.9495,122.863 L88.787,122.476 L87.6017,122.077 L86.4169,121.678 L85.2145,121.266 L84.0132,120.855 L82.7958,120.431 L81.5793,120.006 L80.3508,119.568 L79.1224,119.129 L77.8861,118.677 L76.651,118.225 L75.4105,117.758 L74.1708,117.291 L72.9296,116.808 L71.6885,116.326 L70.4491,115.828 L69.2112,115.331 L67.9784,114.816 L66.7466,114.302 L65.5238,113.771 L64.301,113.239 L63.0895,112.691 L61.8799,112.144 L60.686,111.577 L59.4932,111.012 L58.3201,110.427 L57.1467,109.841 L55.9944,109.238 L54.8442,108.636 L53.7205,108.014 L52.598,107.392 L51.5058,106.749 L50.4095,106.104 L49.3442,105.45 L48.2943,104.783 L47.2629,104.105 L46.2498,103.418 L45.2585,102.721 L44.2883,102.012 L43.3388,101.293 L42.4138,100.564 L41.5124,99.824 L40.6341,99.073 L39.7831,98.312 L38.9581,97.54 L38.1585,96.757 L37.3887,95.963 L36.6474,95.158 L35.9338,94.342 L35.2524,93.515 L34.6019,92.676 L33.981,91.827 L33.3946,90.967 L32.8414,90.094 L32.3198,89.211 L31.8347,88.317 L31.3849,87.408 L30.9686,86.489 L30.5907,85.559 L30.2502,84.614 L29.945,83.657 L29.6802,82.688 L29.455,81.703 L29.2671,80.705 L29.1215,79.695 L29.0182,78.666 L28.9545,77.624 L28.9352,76.567 L28.9612,75.492 L29.0293,74.4 L29.1445,73.294 L29.3083,72.167 L29.517,71.024 L29.7754,69.865 L30.0862,68.683 L30.4385,67.503 L30.8328,66.334 L31.2701,65.17 L31.7455,64.014 L32.2617,62.868 L32.82,61.728 L33.4155,60.596 L34.0505,59.474 L34.7266,58.359 L35.4388,57.251 L36.1896,56.154 L36.9802,55.064 L37.806,53.981 L38.669,52.909 L39.5708,51.845 L40.5065,50.789 L41.4783,49.743 L42.4875,48.705 L43.5295,47.676 L44.6063,46.658 L45.7191,45.648 L46.8635,44.647 L48.0413,43.658 L49.2538,42.677 L50.4967,41.705 L51.7715,40.745 L53.0796,39.794 L54.4167,38.853 L55.7845,37.922 L57.1841,37.002 L58.6113,36.092 L60.0679,35.193 L61.5547,34.305 L63.0679,33.427 L64.609,32.56 L66.1789,31.705 L67.7739,30.859 L69.3953,30.025 L71.0441,29.203 L72.7165,28.391 L74.4141,27.591 L76.1374,26.803 L77.8832,26.026 L79.6526,25.26 L81.4463,24.507 L83.2612,23.764 L85.1003,23.033 L86.0276,22.675 L86.9549,22.317 L87.8968,21.968 L88.8476,21.615 L89.7985,21.262 L90.7364,20.913 L91.6952,20.577 L92.6667,20.237 L93.6382,19.897 L94.5972,19.561 L95.576,19.238 L96.5671,18.91 L97.5582,18.583 L98.5383,18.259 L99.5356,17.947 L100.5437,17.631 L101.5518,17.315 L102.5481,17.003 L103.5624,16.704 L104.5883,16.402 L105.6142,16.099 L106.6287,15.8 L107.66,15.514 L108.7027,15.225 L109.7454,14.935 L110.7779,14.649 L111.8249,14.374 L112.8819,14.097 L113.9391,13.82 L114.9852,13.546 L116.0463,13.285 L117.1184,13.021 L118.1904,12.758 L119.2517,12.497 L120.327,12.249 L121.4129,11.999 L122.4989,11.749 L123.5752,11.501 L124.6634,11.266 L125.7611,11.028 L126.8589,10.79 L127.9462,10.555 L129.0456,10.334 L130.1555,10.11 L131.2653,9.886 L132.3649,9.664 L133.4755,9.457 L134.5964,9.247 L135.7173,9.037 L136.8289,8.829 L137.9498,8.634 L139.0799,8.437 L140.21,8.241 L141.3301,8.046 L142.4593,7.865 L143.5987,7.682 L144.738,7.5 L145.8674,7.319 L147.0049,7.152 L148.1524,6.984 L149.2999,6.816 L150.4384,6.649 L151.5835,6.496 L152.7377,6.341 L153.8918,6.186 L155.036,6.032 L156.1866,5.893 L157.3471,5.753 L158.5076,5.613 L159.6582,5.474 L160.8142,5.35 L161.98,5.224 L163.1457,5.099 L164.3026,4.974 L165.4634,4.863 L166.6332,4.751 L167.803,4.639 L168.963,4.528 L170.1264,4.432 L171.2997,4.335 L172.473,4.238 L173.6365,4.142 L174.8023,4.061 L175.9781,3.98 L177.1539,3.898 L178.3206,3.817 L179.4888,3.75 L180.6659,3.682 L181.8431,3.614 L183.0103,3.547 L184.1781,3.495 L185.3559,3.443 L186.5338,3.391 L187.7015,3.339 L188.8688,3.303 L190.0463,3.266 L191.2237,3.229 L192.3919,3.193 L193.5588,3.171 L194.7351,3.148 L195.9114,3.126 L197.0773,3.104 L198.241,3.098 L199.415,3.091 L200.589,3.085 L201.7526,3.078 L202.9129,3.087 L204.0837,3.097 L205.2544,3.106 L206.4156,3.115 L207.5729,3.139 L208.7399,3.163 L209.9069,3.187 L211.0631,3.211 L212.2142,3.251 L213.3761,3.291 L214.538,3.331 L215.6889,3.371 L216.8337,3.427 L217.9895,3.484 L219.1453,3.541 L220.2909,3.597 L221.43,3.668 L222.5795,3.739 L223.7289,3.811 L224.8669,3.882 L225.9968,3.97 L227.1383,4.058 L228.2798,4.146 L229.4095,4.234 L230.5302,4.338 L231.6628,4.443 L232.7953,4.548 L233.9169,4.652 L235.0293,4.772 L236.1529,4.892 L237.2764,5.013 L238.3876,5.132 L239.4878,5.268 L240.6006,5.406 L241.7134,5.543 L242.8133,5.679 L243.9014,5.832 L245.0024,5.987 L246.1033,6.142 L247.1952,6.296 L248.2786,6.461 L249.3642,6.627 L250.4433,6.801 L251.5222,6.975 L252.5943,7.158 L253.6669,7.341 L254.733,7.532 L255.7985,7.723 L256.8565,7.922 L257.9145,8.122 L258.9649,8.33 L260.0159,8.538 L261.0597,8.754 L262.1028,8.971 L263.1377,9.196 L264.1727,9.421 L265.1993,9.655 L266.2264,9.888 L267.2459,10.131 L268.2645,10.372 L269.2743,10.623 L270.284,10.874 L271.2847,11.134 L272.2861,11.393 L273.2789,11.661 L274.271,11.929 L275.2535,12.206 L276.2359,12.482 L277.2085,12.768 L278.1819,13.054 L279.1461,13.348 L280.1095,13.642 L281.0627,13.945 L282.0157,14.247 L282.9583,14.559 L283.8989,14.87 L285.7677,15.511 L287.6109,16.17 L289.4323,16.847 L291.2327,17.54 L293.0081,18.252 L294.7611,18.982 L296.4921,19.729 L298.1961,20.494 L299.8761,21.278 L301.5321,22.079 L303.1611,22.898 L304.7641,23.736 L306.3421,24.591 L307.8911,25.464 L309.4121,26.357 L310.9081,27.266 L312.3731,28.194 L313.8091,29.141 L315.2181,30.106 L316.5951,31.088 L317.9421,32.09 L319.2611,33.11 L320.5461,34.147 L321.8001,35.204 L323.0241,36.279 L324.2131,37.372 L325.3701,38.484 L326.4961,39.615 L327.5861,40.763 L328.6431,41.932 L329.6671,43.118 L330.6541,44.322 L331.6061,45.547 L332.5241,46.79 L333.4051,48.051 L334.2491,49.333 L335.0591,50.633 L335.8291,51.952 L336.5621,53.292 L337.2601,54.65 L337.9171,56.027 L338.5351,57.426 L339.1171,58.843 L339.6571,60.28 L340.1571,61.739 L340.6191,63.218 L341.0381,64.715 L341.4161,66.236 L341.7541,67.777 L342.0491,69.337 L342.3001,70.921 L342.5121,72.525 L342.6781,74.15 L342.7991,75.799 L342.8481,76.957 L342.8521,78.097 L342.8101,79.227 L342.7281,80.343 L342.6031,81.444 L342.4331,82.533 L342.2241,83.611 L341.9731,84.674 L341.6791,85.727 L341.3461,86.768 L340.9731,87.795 L340.5581,88.813 L340.1051,89.821 L339.6131,90.814 L339.0791,91.799 L338.5081,92.773 L337.8991,93.734 L337.2491,94.686 L336.5631,95.628 L335.8381,96.556 L335.0741,97.475 L334.2751,98.384 L333.4401,99.28 L332.5651,100.165 L331.6561,101.041 L330.7131,101.903 L329.7311,102.756 L328.7171,103.597 L327.6691,104.426 L326.5841,105.244 L325.4681,106.052 L324.3191,106.846 L323.1351,107.629 L321.9211,108.401 L320.6751,109.161 L319.3961,109.908 L318.0881,110.645 L316.7501,111.369 L315.3801,112.081 L313.9831,112.782 L312.5571,113.469 L311.1001,114.145 L309.6181,114.81 L308.1081,115.461 L306.5691,116.101 L305.0061,116.729 L303.4161,117.344 L301.8001,117.946 L300.1601,118.537 L298.4951,119.115 L296.8051,119.681 L295.0931,120.235 L293.3581,120.776 L291.6021,121.304 L289.8079,121.817 L288.0183,122.328 L286.1854,122.814 L284.3521,123.301 L282.4776,123.761 L280.6015,124.222 L278.6897,124.66 L276.7743,125.099 L275.8113,125.302 L274.8305,125.51 L273.8497,125.717 L272.8818,125.922 L271.8962,126.114 L270.8979,126.309 L269.8995,126.504 L268.9125,126.696 L267.9102,126.877 L266.8967,127.06 L265.8832,127.244 L264.8819,127.425 L263.8647,127.594 L262.8355,127.764 L261.8063,127.935 L260.7889,128.104 L259.7566,128.26 L258.7127,128.418 L257.6689,128.576 L256.6354,128.732 L255.5892,128.877 L254.5328,129.024 L253.4765,129.17 L252.4311,129.315 L251.3729,129.448 L250.3037,129.581 L249.2345,129.715 L248.1761,129.847 L247.1057,129.967 L246.0248,130.088 L244.9438,130.209 L243.8723,130.329 L242.7909,130.438 L241.7001,130.548 L240.6092,130.657 L239.5286,130.766 L238.438,130.862 L237.3372,130.959 L236.2364,131.056 L235.1456,131.152 L234.0459,131.235 L232.9362,131.319 L231.8265,131.404 L230.7258,131.488 L229.6178,131.56 L228.5009,131.633 L227.384,131.706 L226.2767,131.778 L225.1624,131.838 L224.0384,131.899 L222.9145,131.959 L221.8001,132.019 L220.6796,132.067 L219.5497,132.115 L218.4197,132.163 L217.2984,132.211 L216.1724,132.247 L215.0378,132.284 L213.9032,132.321 L212.778,132.357 L211.6485,132.381 L210.5099,132.405 L209.3711,132.429 L208.2417,132.454 L207.1091,132.465 L205.9673,132.477 L204.8255,132.489 L203.692,132.5 L202.5566,132.501 L201.4128,132.501 L200.269,132.502 L199.1344,132.502 L197.9985,132.49 L196.8534,132.478 L195.7084,132.467 L194.5724,132.455 L193.4363,132.431 L192.2911,132.406 L191.1459,132.382 L190.0089,132.358 L188.8726,132.323 L187.728,132.287 L186.5834,132.252 L185.448,132.217 L184.3142,132.169 L183.1713,132.121 L182.0283,132.074 L180.8945,132.026 L179.7635,131.967 L178.6232,131.907 L177.483,131.847 L176.3511,131.787 L175.2225,131.717 L174.0856,131.645 L172.9486,131.574 L171.8209,131.504 L170.6978,131.421 L169.5654,131.337 L168.4329,131.254 L167.3099,131.171 L166.1925,131.076 L165.0657,130.981 L163.9388,130.885 L162.8206,130.79 L161.7084,130.684 L160.5875,130.577 L159.4665,130.47 L158.3552,130.365 L157.2515,130.247 L156.1379,130.128 L155.0245,130.009 L153.9208,129.891 L152.8257,129.761 L151.7206,129.63 L150.6156,129.499 L149.5197,129.369 L148.4324,129.228 L147.3359,129.085 L146.2395,128.943 L145.1532,128.803 L144.0773,128.65 L142.9912,128.496 L141.9051,128.342 L140.8293,128.189 L139.7651,128.024 L138.6904,127.858 L137.6156,127.692 L136.5506,127.527 L135.4968,127.352 L134.4332,127.174 L133.3696,126.997 L132.317,126.822 L131.2778,126.634 L130.2274,126.445 L129.1771,126.256 L128.138,126.069 L127.1133,125.87 L126.0773,125.668 L125.0412,125.467 L124.0157,125.268 L123.0041,125.058 L121.9819,124.846 L120.9596,124.634 L119.9494,124.424 L118.9554,124.202 L117.9493,123.978 L116.9431,123.754 L115.9495,123.533 L114.9731,123.3 L113.9842,123.064 L112.9952,122.827 L112.015,122.593 L111.0472,122.351 L110.0792,122.109 L108.1555,121.612 L106.2527,121.103 L104.3679,120.584 L102.504,120.053 L100.6603,119.511 L98.836,118.957 L97.0342,118.393 L95.254,117.817 L93.4944,117.23 L91.759,116.632 L90.0465,116.022 L88.3561,115.402 L86.6913,114.77 L85.0511,114.127 L83.4342,113.474 L81.8445,112.81 L80.2806,112.134 L78.7416,111.448 L77.2313,110.751 L75.7483,110.042 L74.2916,109.324 L72.865,108.595 L71.4672,107.855 L70.097,107.104 L68.7585,106.344 L67.4503,105.572 L66.1709,104.79 L64.925,103.999 L63.7106,103.196 L62.5264,102.384 L61.377,101.562 L60.2606,100.729 L59.1758,99.887 L58.1272,99.036 L57.113,98.174 L56.1314,97.303 L55.1877,96.423 L54.2793,95.533 L53.405,94.634 L52.5696,93.727 L51.7709,92.809 L51.0071,91.882 L50.2835,90.949 L49.5975,90.004 L48.9474,89.051 L48.3384,88.092 L47.7681,87.121 L47.2342,86.143 L46.7424,85.157 L46.29,84.16 L45.875,83.155 L45.5025,82.144 L45.1704,81.119 L44.9029,80.176 L44.6804,79.241 L44.5007,78.308 L44.3598,77.38 L44.2615,76.46 L44.2046,75.541 L44.185,74.625 L44.206,73.717 L44.2673,72.808 L44.3646,71.903 L44.501,71.003 L44.6772,70.103 L44.8885,69.205 L45.1377,68.313 L45.4263,67.42 L45.7494,66.528 L46.1094,65.642 L46.5082,64.755 L46.9409,63.87 L47.4097,62.99 L47.9165,62.11 L48.4565,61.232 L49.0316,60.359 L49.6438,59.487 L50.2883,58.617 L50.9667,57.753 L51.6811,56.891 L52.4268,56.031 L53.2051,55.178 L54.0182,54.327 L54.8613,53.479 L55.7358,52.637 L56.6437,51.799 L57.5802,50.965 L58.5469,50.138 L59.5453,49.314 L60.571,48.495 L61.6255,47.682 L62.7101,46.874 L63.8209,46.072 L64.9589,45.275 L66.1256,44.485 L67.317,43.7 L68.5342,42.921 L69.7786,42.149 L71.0462,41.383 L72.3382,40.623 L73.6518,39.873 L75.0066,39.127 L76.3564,38.384 L77.7521,37.655 L79.1483,36.926 L80.5882,36.212 L82.0301,35.497 L83.5099,34.797 L84.9888,34.096 L86.5077,33.411 L88.027,32.727 L89.5841,32.058 L91.1428,31.388 L92.7342,30.734 L94.3246,30.08 L95.9491,29.443 L97.5739,28.805 L99.2306,28.185 L100.8886,27.565 L102.574,26.96 L104.2584,26.356 L105.9711,25.77 L107.6839,25.183 L109.4227,24.615 L111.1627,24.046 L112.9246,23.495 L114.6857,22.943 L116.469,22.411 L118.2525,21.879 L120.056,21.366 L121.8606,20.852 L123.6817,20.357 L125.502,19.861 L127.3386,19.386 L129.1753,18.911 L131.0262,18.456 L132.878,18.001 L134.7411,17.565 L136.6033,17.129 L138.4758,16.714 L140.3484,16.299 L142.2293,15.905 L144.1111,15.511 L145.9986,15.137 L147.8853,14.763 L149.7765,14.411 L151.6677,14.059 L153.5613,13.73 L155.4557,13.4 L157.3505,13.091 L159.2444,12.783 L161.1369,12.497 L163.0293,12.211 L164.9182,11.949 L166.8079,11.686 L168.6927,11.446 L170.5764,11.205 L172.4529,10.988 L174.3292,10.772 L176.1961,10.579 L178.0638,10.387 L179.9211,10.217 L181.7774,10.047 L183.6204,9.903 L185.4633,9.758 L187.2908,9.639 L189.1191,9.519 L190.9316,9.423 L192.743,9.327 L194.5352,9.257 L196.3271,9.188 L198.0978,9.144 L199.8693,9.1 L201.6196,9.081 L203.3686,9.062 L205.0925,9.07 L206.8159,9.077 L208.5122,9.112 L210.2093,9.147 L211.88,9.207 L213.5489,9.267 L215.1869,9.355 L216.8243,9.443 L218.4285,9.56 L220.0375,9.676 L221.6143,9.811 L223.1758,9.961 L224.7192,10.125 L226.245,10.303 L227.7501,10.495 L229.2357,10.701 L230.7022,10.921 L232.1464,11.155 L233.5696,11.404 L234.9723,11.667 L236.3511,11.944 L237.7074,12.236 L239.0417,12.542 L240.3505,12.863 L241.6352,13.199 L242.8967,13.548 L244.1308,13.912 L245.3395,14.292 L246.5234,14.685 L247.6783,15.093 L248.8064,15.516 L249.9082,15.953 L250.9793,16.405 L252.0221,16.872 L253.0375,17.352 L254.0203,17.847 L254.9736,18.358 L255.8981,18.881 L256.7885,19.419 L257.6481,19.972 L258.4777,20.539 L259.2719,21.118 L260.0343,21.714 L260.7656,22.322 L261.4604,22.943 L262.1225,23.58 L262.7529,24.229 L263.3459,24.891 L263.9057,25.569 L264.4332,26.261 L264.923,26.964 L265.379,27.684 L265.8024,28.418 L266.188,29.164 L266.539,29.929 L266.857,30.709 L267.1371,31.501 L267.3813,32.315 L267.5918,33.144 L267.7637,33.989 L267.8981,34.855 L267.9972,35.739 L268.0568,36.64 L268.0763,37.564 L268.059,38.508 L268.0003,39.469 L267.899,40.455 L267.7588,41.46 L267.5752,42.485 L267.3403,43.561 C267.1427,44.468 267.7174,45.363 268.624,45.561 C269.5305,45.758 270.4256,45.184 270.6232,44.277 Z" id="Fill-116"></path>
        </g>
    </g>
</svg>
