<?xml version="1.0" encoding="UTF-8"?>
<svg width="306px" height="109px" viewBox="0 0 306 109" version="1.1" xmlns="http://www.w3.org/2000/svg" xmlns:xlink="http://www.w3.org/1999/xlink">
    <title>39</title>
    <g id="Page-1" stroke="none" stroke-width="1" fill="none" fill-rule="evenodd">
        <g id="39" transform="translate(0.196800, 0.160000)" fill="currentColor">
            <path d="M212.3637,39.758 L211.9981,39.014 L211.5382,38.234 L211.0198,37.486 L210.4482,36.764 L209.8177,36.063 L209.137,35.391 L208.41,34.741 L207.6307,34.112 L206.8065,33.508 L205.9406,32.923 L205.0272,32.358 L204.0727,31.814 L203.08,31.288 L202.0439,30.78 L200.9699,30.291 L199.8609,29.819 L198.7124,29.365 L197.5292,28.928 L196.314,28.508 L195.0632,28.104 L193.781,27.718 L192.4701,27.348 L191.1273,26.994 L189.7566,26.657 L188.3605,26.336 L186.9364,26.03 L185.4879,25.742 L184.0174,25.469 L182.5228,25.212 L181.0075,24.971 L179.4735,24.746 L177.9195,24.537 L176.3484,24.344 L174.7621,24.166 L173.1596,24.005 L171.5399,23.86 L169.912,23.737 L168.2788,23.615 L166.6246,23.525 L164.9707,23.435 L163.3016,23.378 L161.6342,23.321 L159.9575,23.294 L158.2794,23.267 L156.5962,23.273 L154.913,23.278 L153.2304,23.317 L151.5493,23.355 L149.8734,23.424 L148.1957,23.493 L146.5288,23.594 L144.8617,23.696 L143.211,23.831 L141.5616,23.965 L139.9317,24.13 L138.2998,24.295 L136.6946,24.493 L135.0885,24.692 L133.5149,24.924 L131.9472,25.155 L130.3938,25.41 L128.8637,25.682 L127.3555,25.97 L125.8673,26.274 L124.4013,26.595 L122.9612,26.933 L121.5445,27.287 L120.1537,27.658 L118.7926,28.046 L117.4582,28.451 L116.1533,28.873 L114.8819,29.313 L113.6407,29.769 L112.4322,30.244 L111.2611,30.736 L110.1235,31.246 L109.0219,31.776 L107.9616,32.324 L106.938,32.89 L105.9539,33.477 L105.0152,34.084 L104.1166,34.71 L103.2611,35.361 L102.4557,36.032 L101.6945,36.724 L100.9811,37.444 L100.3234,38.185 L99.7156,38.951 L99.1623,39.746 L98.6722,40.564 L98.2396,41.405 L97.8707,42.278 L97.5733,43.17 L97.3417,44.082 L97.1833,45.022 L97.1036,45.946 L97.0914,46.477 L97.11,46.985 L97.1569,47.486 L97.2297,47.983 L97.3308,48.48 L97.4692,49.007 L97.7823,49.929 L98.2075,50.874 L98.7212,51.788 L99.3135,52.68 L99.9912,53.553 L100.7439,54.402 L101.565,55.232 L102.462,56.048 L103.4269,56.844 L104.454,57.625 L105.5507,58.393 L106.7101,59.145 L107.9272,59.884 L109.208,60.61 L110.5471,61.322 L111.9391,62.022 L113.3896,62.709 L114.8933,63.381 L116.4454,64.041 L118.0503,64.688 L119.7035,65.32 L121.4001,65.94 L123.144,66.545 L124.9309,67.136 L126.7562,67.713 L128.6231,68.275 L130.5277,68.821 L132.4623,69.352 L133.4526,69.61 L134.4394,69.868 L135.4428,70.118 L136.4453,70.368 L137.462,70.61 L138.4794,70.852 L139.5116,71.085 L140.5437,71.319 L141.5896,71.544 L142.6345,71.769 L143.6911,71.985 L144.7484,72.202 L145.8176,72.41 L146.8868,72.618 L147.9667,72.816 L149.0459,73.015 L150.134,73.205 L151.2229,73.395 L152.3208,73.575 L153.4186,73.756 L154.5245,73.927 L155.6295,74.098 L156.7409,74.259 L157.8531,74.421 L158.9713,74.573 L160.0896,74.725 L161.2129,74.866 L162.3354,75.008 L163.4618,75.14 L164.5888,75.272 L165.7192,75.393 L166.8495,75.515 L167.9819,75.626 L169.1175,75.737 L170.2542,75.833 L171.3798,75.928 L172.5053,76.023 L173.6477,76.119 L174.7887,76.193 L175.9129,76.265 L177.0372,76.338 L178.1787,76.412 L179.3147,76.462 L180.4334,76.511 L181.5521,76.561 L182.6829,76.611 L183.8079,76.644 L184.9298,76.678 L186.0462,76.699 L187.1628,76.72 L188.2727,76.729 L189.382,76.738 L190.4845,76.735 L191.5881,76.733 L192.6832,76.717 L193.7786,76.702 L194.8645,76.674 L195.9497,76.645 L197.0254,76.605 L198.1024,76.565 L199.1681,76.511 L200.234,76.458 L201.2876,76.391 L202.3405,76.324 L203.3813,76.244 L204.4234,76.164 L205.4515,76.071 L206.4798,75.977 L207.493,75.87 L208.5094,75.761 L210.5022,75.52 L212.4671,75.25 L214.3955,74.949 L216.2902,74.622 L218.1477,74.263 L219.9629,73.874 L221.7396,73.456 L223.4739,73.006 L225.1603,72.524 L226.8033,72.011 L228.3989,71.464 L229.9408,70.883 L231.4346,70.269 L232.8759,69.618 L234.2576,68.932 L235.5861,68.21 L236.8568,67.448 L238.0615,66.648 L239.2071,65.81 L240.2885,64.927 L241.2962,64.003 L242.2372,63.038 L243.1062,62.024 L243.8912,60.969 L244.6012,59.871 L245.2262,58.722 L245.7582,57.534 L246.2052,56.306 L246.5562,55.031 L246.8032,53.743 L246.9542,52.657 L247.0642,51.601 L247.1372,50.559 L247.1762,49.528 L247.1782,48.506 L247.1442,47.498 L247.0762,46.501 L246.9732,45.514 L246.8342,44.542 L246.6632,43.581 L246.4572,42.63 L246.2172,41.696 L245.9462,40.773 L245.6402,39.861 L245.3032,38.965 L244.9352,38.082 L244.5352,37.21 L244.1042,36.355 L243.6452,35.512 L243.1542,34.682 L242.6342,33.867 L242.0882,33.066 L241.5112,32.277 L240.9082,31.504 L240.2795,30.744 L239.6219,29.996 L238.9391,29.264 L238.2322,28.544 L237.4979,27.837 L236.7397,27.145 L235.9588,26.465 L235.1518,25.798 L234.3222,25.145 L233.471,24.504 L232.595,23.876 L231.6975,23.261 L230.7796,22.658 L229.8381,22.067 L228.8762,21.49 L227.8948,20.924 L226.8911,20.369 L225.868,19.828 L224.8263,19.298 L223.7636,18.78 L222.6824,18.275 L221.5837,17.78 L220.4649,17.297 L219.3236,16.824 L218.1686,16.371 L217.007,15.917 L215.8096,15.485 L214.613,15.053 L213.3821,14.644 L212.1537,14.236 L210.8954,13.849 L209.6358,13.461 L208.3448,13.096 L207.0544,12.731 L205.734,12.388 L204.4157,12.045 L203.0713,11.723 L201.726,11.4 L200.3534,11.099 L198.9812,10.799 L197.5834,10.52 L196.1874,10.241 L194.7693,9.982 L193.3502,9.723 L191.9082,9.485 L190.4665,9.247 L189.0035,9.03 L187.542,8.814 L186.0624,8.616 L184.5818,8.419 L183.0826,8.242 L181.5837,8.066 L180.0677,7.91 L178.5531,7.754 L177.0242,7.617 L175.4945,7.48 L173.9504,7.363 L172.4066,7.247 L170.85,7.15 L169.2947,7.054 L167.7289,6.976 L166.1624,6.898 L164.5859,6.84 L163.0094,6.782 L161.4247,6.743 L159.841,6.705 L158.2508,6.685 L156.6599,6.664 L155.0633,6.663 L153.4668,6.663 L151.8662,6.681 L150.2666,6.7 L148.6645,6.736 L147.0616,6.772 L145.4574,6.827 L143.8532,6.882 L142.2492,6.956 L140.6463,7.031 L139.0447,7.122 L137.4424,7.213 L135.8429,7.323 L134.2435,7.434 L132.6487,7.562 L131.0548,7.691 L129.4662,7.836 L127.8768,7.982 L126.2947,8.145 L124.7125,8.309 L123.1393,8.491 L121.5669,8.673 L120.0038,8.871 L118.4398,9.069 L116.8874,9.285 L115.3349,9.502 L113.7957,9.736 L112.2573,9.97 L110.7322,10.219 L109.206,10.47 L107.6958,10.737 L106.1854,11.005 L104.6926,11.29 L103.2007,11.574 L101.7259,11.875 L100.25,12.176 L98.7944,12.494 L97.3386,12.812 L95.9046,13.147 L94.4716,13.482 L93.0597,13.832 L91.6463,14.183 L90.2577,14.55 L88.8687,14.917 L87.5059,15.301 L86.144,15.685 L84.8072,16.084 L83.4688,16.483 L82.1593,16.899 L80.8495,17.315 L79.5701,17.747 L78.2917,18.178 L77.0423,18.625 L75.791,19.072 L74.5729,19.536 L73.3543,19.999 L72.1705,20.479 L70.9878,20.958 L69.8379,21.452 L68.6858,21.946 L67.5712,22.457 L66.456,22.968 L65.3798,23.495 L64.3048,24.021 L63.2666,24.562 L62.226,25.104 L61.227,25.662 L60.2273,26.221 L59.2709,26.795 L58.3213,27.365 L57.39,27.954 L56.4852,28.548 L55.6042,29.15 L54.7442,29.759 L53.9063,30.377 L53.0934,31.004 L52.3024,31.637 L51.5346,32.281 L50.793,32.932 L50.0744,33.59 L49.3802,34.259 L48.7134,34.936 L48.0708,35.62 L47.4538,36.315 L46.8656,37.018 L46.303,37.729 L45.7673,38.451 L45.262,39.18 L44.7835,39.918 L44.3338,40.667 L43.9161,41.423 L43.5269,42.188 L43.1683,42.964 L42.8433,43.747 L42.5486,44.537 L42.2864,45.34 L42.0596,46.148 L41.8646,46.963 L41.7043,47.789 L41.5804,48.621 L41.5111,49.317 L41.4854,50.018 L41.5038,50.711 L41.562,51.399 L41.6636,52.087 L41.8064,52.764 L41.9869,53.434 L42.2085,54.1 L42.4677,54.754 L42.7613,55.399 L43.0932,56.038 L43.4591,56.665 L43.8565,57.284 L44.2898,57.896 L44.7542,58.498 L45.2479,59.091 L45.7751,59.678 L46.3314,60.256 L46.9154,60.827 L47.5311,61.392 L48.1747,61.948 L48.8447,62.498 L49.545,63.043 L50.2721,63.581 L51.0245,64.112 L51.806,64.639 L52.6134,65.159 L53.4452,65.673 L54.3048,66.182 L55.1896,66.686 L56.0978,67.184 L57.0326,67.677 L57.9917,68.164 L58.9734,68.647 L59.9806,69.124 L61.0111,69.596 L62.0633,70.063 L63.1398,70.525 L64.2387,70.982 L65.3584,71.433 L66.5013,71.88 L67.6691,72.323 L68.859,72.755 L70.0533,73.189 L71.2903,73.613 L72.5268,74.037 L73.8043,74.45 L75.0802,74.863 L76.3924,75.266 L77.7051,75.669 L79.0562,76.062 L80.4068,76.454 L81.794,76.836 L83.1799,77.218 L84.5978,77.59 L86.0164,77.962 L87.4687,78.323 L88.9208,78.684 L90.4049,79.034 L91.8879,79.383 L93.3988,79.723 L94.9104,80.062 L96.4511,80.39 L97.9917,80.718 L99.5598,81.035 L101.1269,81.351 L102.7179,81.657 L104.3094,81.963 L105.9255,82.257 L107.5415,82.551 L109.1805,82.834 L110.8187,83.116 L112.4765,83.387 L114.1348,83.658 L115.8133,83.917 L117.4916,84.176 L119.1883,84.423 L120.8844,84.67 L122.5957,84.906 L124.3076,85.142 L126.035,85.366 L127.7623,85.59 L129.5035,85.801 L131.2441,86.012 L132.9959,86.211 L134.7483,86.41 L136.5117,86.597 L138.275,86.783 L140.0476,86.956 L141.8196,87.129 L143.5987,87.29 L145.3784,87.451 L147.1644,87.598 L148.9505,87.746 L150.7412,87.88 L152.5314,88.014 L154.3246,88.135 L156.1183,88.256 L157.9138,88.364 L159.7093,88.471 L161.505,88.564 L163.3001,88.658 L165.094,88.738 L166.8885,88.819 L168.6802,88.885 L170.472,88.951 L172.2593,89.003 L174.0461,89.054 L175.8274,89.093 L177.6095,89.131 L179.3842,89.155 L181.159,89.178 L182.9247,89.187 L184.6899,89.195 L186.4456,89.19 L188.202,89.185 L189.9464,89.165 L191.691,89.144 L193.4219,89.108 L195.1523,89.072 L196.8691,89.022 L198.5865,88.972 L200.2875,88.907 L201.9887,88.841 L203.6716,88.759 L205.354,88.678 L207.0186,88.582 L208.6841,88.485 L210.3284,88.373 L211.973,88.26 L213.5948,88.132 L215.216,88.003 L216.8153,87.859 L218.4156,87.715 L219.9902,87.555 L221.5652,87.394 L223.1128,87.217 L224.6598,87.04 L226.1806,86.847 L227.7027,86.654 L229.1947,86.444 L230.687,86.234 L232.1474,86.006 L233.6072,85.779 L235.0367,85.536 L236.4677,85.292 L237.8639,85.031 L239.2608,84.77 L240.6212,84.491 L241.9812,84.212 L243.3062,83.917 L244.6332,83.621 L245.9212,83.307 L247.2102,82.992 L248.4572,82.659 L249.7042,82.327 L250.9122,81.977 L252.1232,81.626 L253.2902,81.257 L254.4582,80.888 L255.5812,80.499 L256.6972,80.112 L257.7932,79.708 L258.8622,79.296 L259.9062,78.874 L260.9292,78.442 L261.9282,78 L262.9022,77.547 L263.8532,77.085 L264.7792,76.612 L265.6792,76.129 L266.5552,75.635 L267.4072,75.129 L268.2302,74.613 L269.0282,74.086 L269.8002,73.547 L270.5432,72.997 L271.2592,72.435 L271.9492,71.86 L272.6072,71.273 L273.2382,70.675 L273.8412,70.062 L274.4112,69.437 L274.9522,68.8 L275.4622,68.147 L275.9372,67.483 L276.3822,66.806 L276.7932,66.112 L277.1682,65.408 L277.5102,64.691 L277.8162,63.958 L278.0842,63.211 L278.4202,62.131 L278.7062,61.053 L278.9392,59.985 L279.1242,58.924 L279.2572,57.867 L279.3382,56.823 L279.3722,55.787 L279.3542,54.756 L279.2862,53.739 L279.1722,52.732 L279.0072,51.732 L278.7952,50.747 L278.5382,49.773 L278.2322,48.808 L277.8802,47.858 L277.4872,46.921 L277.0472,45.994 L276.5642,45.083 L276.0422,44.184 L275.4752,43.297 L274.8692,42.425 L274.2252,41.565 L273.5392,40.717 L272.8152,39.883 L272.0562,39.061 L271.2572,38.251 L270.4232,37.454 L269.5542,36.669 L268.6482,35.895 L267.7082,35.135 L266.7352,34.385 L265.7262,33.646 L264.6852,32.919 L263.6122,32.203 L262.5062,31.498 L261.3672,30.805 L260.2002,30.121 L258.9992,29.449 L257.7692,28.787 L256.5102,28.136 L255.2202,27.496 L253.9012,26.866 L252.5562,26.246 L251.1802,25.636 L249.7772,25.038 L248.3492,24.448 L246.8922,23.869 L245.4092,23.301 L243.9022,22.741 L242.3682,22.192 L240.8102,21.654 L239.2285,21.124 L237.6217,20.605 L235.9916,20.096 L234.3398,19.596 L232.6643,19.106 L230.9667,18.627 L229.2489,18.156 L227.5089,17.695 L225.7455,17.244 L223.9597,16.808 L222.1705,16.371 L220.3413,15.954 L218.5126,15.536 L216.6459,15.139 L214.7804,14.742 L212.8822,14.363 L210.9835,13.984 L209.0506,13.625 L207.1181,13.265 L205.1537,12.925 L203.1931,12.586 L202.191,12.424 L201.1998,12.264 L200.2085,12.103 L199.2086,11.941 L198.1947,11.789 L197.1894,11.639 L196.184,11.488 L195.1703,11.336 L194.1437,11.194 L193.1254,11.053 L192.107,10.912 L191.0814,10.77 L190.0448,10.637 L189.0155,10.504 L187.9862,10.372 L186.9492,10.239 L185.9011,10.115 L184.8607,9.993 L183.8203,9.87 L182.7724,9.746 L181.7145,9.633 L180.6642,9.52 L179.6138,9.407 L178.5567,9.293 L177.4916,9.188 L176.433,9.083 L175.3744,8.979 L174.3086,8.874 L173.2348,8.779 L172.1682,8.684 L171.1015,8.59 L170.0279,8.494 L168.9473,8.408 L167.8736,8.323 L166.8,8.238 L165.7201,8.153 L164.6349,8.076 L163.5557,7.999 L162.4765,7.923 L161.3907,7.846 L160.2999,7.778 L159.2157,7.711 L158.1314,7.644 L157.0407,7.577 L155.946,7.519 L154.8578,7.462 L153.7696,7.404 L152.6756,7.346 L151.5788,7.297 L150.4878,7.248 L149.397,7.199 L148.2996,7.15 L147.2002,7.111 L146.1073,7.071 L145.0143,7.032 L143.915,6.992 L142.8147,6.962 L141.7207,6.932 L140.6268,6.902 L139.5271,6.872 L138.4275,6.851 L137.3335,6.829 L136.2395,6.808 L135.1393,6.786 L134.0401,6.775 L132.9471,6.763 L131.854,6.751 L130.7548,6.739 L129.6576,6.736 L128.5666,6.734 L127.4756,6.732 L126.379,6.729 L125.2851,6.735 L124.1968,6.741 L123.1086,6.747 L122.0141,6.754 L120.9236,6.769 L119.8393,6.784 L118.755,6.8 L117.6644,6.815 L116.5789,6.84 L115.4997,6.865 L114.4204,6.89 L113.3354,6.915 L112.2559,6.948 L111.1821,6.981 L110.1083,7.015 L109.0282,7.048 L107.955,7.091 L106.8882,7.133 L105.8213,7.176 L104.7481,7.219 L103.6829,7.271 L102.6241,7.323 L101.5653,7.374 L100.5006,7.427 L99.4441,7.487 L98.3935,7.547 L97.343,7.608 L96.2858,7.668 L95.2385,7.738 L94.1979,7.808 L93.1573,7.877 L92.11,7.947 L91.0736,8.026 L90.044,8.105 L89.0145,8.184 L87.9787,8.263 L86.9538,8.351 L85.9352,8.438 L84.9165,8.525 L83.8908,8.612 L82.8781,8.709 L81.8725,8.806 L80.8669,8.902 L79.8515,8.999 L77.8634,9.211 L75.8735,9.422 L73.9109,9.651 L71.9473,9.879 L70.0157,10.126 L68.0838,10.373 L66.186,10.638 L64.2888,10.903 L62.4242,11.185 L60.5587,11.467 L58.731,11.767 L56.9031,12.068 L55.1151,12.386 L53.3277,12.705 L51.5785,13.04 L49.828,13.375 L48.1214,13.729 L46.4145,14.082 L44.7534,14.454 L43.0956,14.825 L41.4645,15.21 L39.8596,15.604 L38.2799,16.007 L36.7231,16.418 L35.1914,16.838 L33.6864,17.268 L32.2057,17.706 L30.7513,18.153 L29.3251,18.609 L27.9244,19.074 L26.5516,19.548 L25.2084,20.032 L23.8919,20.524 L22.6045,21.026 L21.3484,21.536 L20.1202,22.056 L18.9224,22.585 L17.7574,23.124 L16.6215,23.671 L15.5173,24.229 L14.4474,24.796 L13.4079,25.372 L12.4013,25.959 L11.4304,26.555 L10.4914,27.161 L9.5865,27.779 L8.7189,28.405 L7.8846,29.042 L7.0857,29.692 L6.326,30.351 L5.601,31.021 L4.9132,31.704 L4.2665,32.397 L3.6563,33.102 L3.0855,33.821 L2.5582,34.551 L2.0697,35.292 L1.6234,36.049 L1.2233,36.816 L0.8648,37.595 L0.5519,38.389 L0.2876,39.193 L0.1319,39.811 L0.0353,40.444 L0,41.076 L0.0195,41.71 L0.0976,42.348 L0.2308,42.977 L0.4129,43.602 L0.6477,44.226 L0.9298,44.841 L1.2547,45.45 L1.6269,46.058 L2.0414,46.66 L2.4951,47.258 L2.9926,47.855 L3.5299,48.449 L4.1043,49.041 L4.7204,49.634 L5.3748,50.224 L6.0649,50.814 L6.7951,51.404 L7.5625,51.994 L8.3644,52.584 L9.2049,53.174 L10.0815,53.764 L10.9916,54.355 L11.9388,54.946 L12.9209,55.537 L13.9353,56.128 L14.9853,56.72 L16.0691,57.312 L17.1839,57.903 L18.333,58.495 L19.5146,59.087 L20.7258,59.679 L21.9699,60.27 L23.2452,60.861 L24.5489,61.451 L25.8839,62.041 L27.2488,62.63 L28.6408,63.218 L30.0625,63.805 L31.5127,64.391 L32.9887,64.976 L34.493,65.56 L36.0243,66.142 L37.5801,66.722 L39.1626,67.301 L40.7706,67.878 L42.4018,68.453 L44.0583,69.025 L45.7387,69.596 L47.441,70.164 L49.167,70.73 L50.917,71.293 L52.6944,71.851 L54.4735,72.41 L56.2958,72.963 L58.1178,73.516 L59.9808,74.062 L61.8431,74.608 L63.7408,75.147 L65.6371,75.685 L66.6091,75.952 L67.574,76.217 L68.5389,76.482 L69.509,76.748 L70.4964,77.01 L71.4787,77.271 L72.461,77.531 L73.448,77.793 L74.4498,78.051 L75.4471,78.307 L76.4443,78.564 L77.4466,78.821 L78.4642,79.074 L79.4769,79.326 L80.4897,79.577 L81.5072,79.83 L82.5392,80.078 L83.5663,80.324 L84.5933,80.571 L85.6247,80.819 L86.6683,81.061 L87.7076,81.303 L88.7468,81.544 L89.7907,81.787 L90.8471,82.024 L91.8988,82.26 L92.9504,82.496 L94.0066,82.733 L95.0742,82.964 L96.1371,83.194 L97.2,83.424 L98.2671,83.655 L99.3436,83.881 L100.4159,84.105 L101.4882,84.329 L102.5651,84.555 L103.6513,84.774 L104.7329,84.991 L105.8146,85.209 L106.9009,85.428 L107.9953,85.64 L109.0852,85.851 L110.1751,86.062 L111.2691,86.274 L112.3697,86.479 L113.4663,86.683 L114.5628,86.888 L115.6639,87.093 L116.7712,87.291 L117.874,87.488 L118.9768,87.685 L120.0842,87.883 L121.1968,88.073 L122.3047,88.262 L123.4127,88.452 L124.5249,88.642 L125.6408,88.824 L126.7527,89.006 L127.8645,89.188 L128.9809,89.371 L130.1006,89.545 L131.2157,89.719 L132.3307,89.893 L133.4505,90.067 L134.5724,90.233 L135.6895,90.398 L136.8066,90.563 L137.9281,90.729 L139.0507,90.887 L140.1689,91.044 L141.2871,91.201 L142.4101,91.358 L143.5334,91.507 L144.6518,91.655 L145.7701,91.802 L146.8935,91.951 L148.0158,92.09 L149.1333,92.228 L150.2507,92.366 L151.3728,92.505 L152.4931,92.635 L153.6087,92.765 L154.7245,92.894 L155.8453,93.024 L156.9633,93.144 L158.0761,93.264 L159.1889,93.383 L160.307,93.503 L161.4212,93.613 L162.53,93.722 L163.6388,93.831 L164.7526,93.94 L165.8619,94.04 L166.9662,94.139 L168.0705,94.239 L169.1803,94.338 L170.2843,94.427 L171.3827,94.516 L172.4811,94.604 L173.5852,94.693 L174.6823,94.771 L175.7736,94.848 L176.8648,94.926 L177.9616,95.003 L179.0511,95.071 L180.135,95.138 L181.219,95.204 L182.3092,95.272 L183.3904,95.327 L184.4654,95.382 L185.5404,95.437 L186.6218,95.493 L187.6932,95.536 L188.758,95.579 L189.8229,95.622 L190.8939,95.665 L191.9549,95.697 L193.0096,95.729 L194.0644,95.761 L195.1262,95.792 L196.176,95.812 L197.2187,95.831 L198.2614,95.85 L199.3114,95.869 L200.3484,95.875 L201.378,95.881 L202.4075,95.887 L203.444,95.893 L204.4678,95.887 L205.4845,95.881 L206.5011,95.875 L207.5259,95.869 L208.5356,95.849 L209.5371,95.83 L210.5387,95.81 L211.5516,95.79 L213.528,95.723 L215.5068,95.656 L217.4543,95.564 L219.4031,95.471 L221.3157,95.349 L223.2287,95.228 L225.1034,95.076 L226.975,94.925 L228.8247,94.753 L230.6521,94.566 L232.4581,94.363 L234.2446,94.146 L236.0097,93.914 L237.7519,93.665 L239.4732,93.402 L241.1722,93.122 L242.8462,92.826 L244.4982,92.516 L246.1252,92.188 L247.7272,91.843 L249.3052,91.483 L250.8582,91.105 L252.3832,90.71 L253.8832,90.299 L255.3562,89.87 L256.8002,89.423 L258.2182,88.96 L259.6082,88.478 L260.9672,87.978 L262.2992,87.46 L263.6012,86.923 L264.8702,86.367 L266.1112,85.794 L267.3212,85.2 L268.4972,84.586 L269.6422,83.955 L270.7562,83.302 L271.8332,82.629 L272.8792,81.938 L273.8912,81.224 L274.8652,80.489 L275.8062,79.735 L276.7112,78.958 L277.5772,78.16 L278.4072,77.341 L279.2002,76.498 L279.9512,75.634 L280.6662,74.75 L281.3402,73.84 L281.9712,72.909 L282.5632,71.957 L283.1122,70.98 L283.6162,69.982 L284.0792,68.963 L284.4972,67.919 L284.8672,66.855 L285.1952,65.769 L285.4762,64.659 L285.7082,63.529 L285.8962,62.379 L286.0352,61.205 L286.1252,60.01 L286.1762,58.641 L286.1742,57.286 L286.1182,55.949 L286.0132,54.627 L285.8562,53.319 L285.6472,52.03 L285.3922,50.757 L285.0852,49.498 L284.7292,48.258 L284.3282,47.035 L283.8782,45.827 L283.3802,44.638 L282.8402,43.466 L282.2522,42.309 L281.6192,41.172 L280.9452,40.051 L280.2262,38.947 L279.4642,37.862 L278.6632,36.793 L277.8192,35.74 L276.9342,34.706 L276.0132,33.689 L275.0502,32.687 L274.0492,31.704 L273.0122,30.737 L271.9362,29.786 L270.8242,28.852 L269.6782,27.935 L268.4952,27.033 L267.2772,26.149 L266.0272,25.28 L264.7412,24.426 L263.4232,23.59 L262.0742,22.768 L260.6912,21.963 L259.2782,21.174 L257.8352,20.399 L256.3612,19.64 L254.8562,18.897 L253.3252,18.169 L251.7632,17.455 L250.1742,16.758 L248.5592,16.075 L246.9152,15.407 L245.2452,14.755 L243.5512,14.117 L241.8302,13.494 L240.0843,12.886 L238.3161,12.292 L236.523,11.713 L234.7067,11.149 L232.8694,10.598 L231.0089,10.063 L229.1268,9.543 L227.2253,9.036 L225.3022,8.544 L223.361,8.068 L222.3792,7.835 L221.3986,7.604 L220.4083,7.379 L219.4181,7.154 L218.4185,6.937 L217.4172,6.719 L216.4037,6.511 L215.3968,6.305 L214.3899,6.098 L213.3735,5.89 L212.3399,5.696 L211.3159,5.504 L210.2919,5.312 L209.2586,5.118 L208.2096,4.938 L207.1697,4.76 L206.1297,4.583 L205.0817,4.403 L204.0203,4.237 L202.9669,4.072 L201.9135,3.907 L200.8515,3.74 L199.7759,3.588 L198.7088,3.437 L197.6417,3.286 L196.5663,3.134 L195.4786,2.996 L194.399,2.859 L193.3194,2.722 L192.2325,2.584 L191.1354,2.459 L190.0455,2.334 L188.9555,2.21 L187.8579,2.085 L186.75,1.974 L185.6498,1.864 L184.5497,1.753 L183.4419,1.642 L182.3253,1.545 L181.2162,1.449 L180.107,1.352 L178.9911,1.255 L177.8682,1.17 L176.7519,1.086 L175.6355,1.002 L174.512,0.917 L173.3818,0.846 L172.2586,0.776 L171.1355,0.705 L170.0054,0.634 L168.8698,0.577 L167.7411,0.519 L166.6125,0.462 L165.4776,0.405 L164.3387,0.36 L163.206,0.315 L162.0733,0.27 L160.9339,0.225 L159.7912,0.193 L158.6553,0.162 L157.5192,0.13 L156.3766,0.098 L155.232,0.08 L154.0938,0.062 L152.9558,0.043 L151.8118,0.025 L150.6669,0.019 L149.5279,0.012 L148.389,0.006 L147.2436,0 L146.0983,0.007 L144.9595,0.014 L143.8207,0.021 L142.6755,0.028 L141.5317,0.048 L140.3943,0.068 L139.2569,0.088 L138.1137,0.108 L136.9728,0.14 L135.8376,0.172 L134.7025,0.204 L133.561,0.236 L132.4231,0.281 L131.2916,0.325 L130.1601,0.37 L129.0222,0.415 L127.8891,0.473 L126.7625,0.53 L125.6358,0.587 L124.5034,0.645 L123.3763,0.714 L122.2551,0.783 L121.1338,0.852 L120.0063,0.922 L118.8857,1.004 L117.7715,1.085 L116.6573,1.167 L115.5367,1.249 L114.4244,1.343 L113.3185,1.437 L112.2127,1.531 L111.1009,1.626 L109.9977,1.732 L108.9004,1.837 L107.8031,1.943 L106.6993,2.049 L105.6059,2.167 L104.5191,2.285 L103.4324,2.402 L102.339,2.521 L101.2572,2.652 L100.1823,2.782 L99.1073,2.911 L98.0262,3.042 L96.9566,3.184 L95.8934,3.325 L94.8301,3.466 L93.7599,3.608 L92.7037,3.762 L91.6544,3.916 L90.6051,4.069 L89.5487,4.223 L88.5075,4.389 L87.4735,4.555 L86.4395,4.72 L85.3988,4.886 L84.373,5.063 L83.3539,5.239 L82.3347,5.415 L81.308,5.593 L80.2987,5.782 L79.297,5.97 L78.2953,6.158 L77.2859,6.348 L76.295,6.549 L75.312,6.749 L74.329,6.949 L73.3362,7.15 L71.4013,7.572 L69.4631,7.995 L67.5664,8.441 L65.6695,8.887 L63.8167,9.356 L61.9666,9.824 L60.1432,10.309 L58.3451,10.806 L56.5716,11.314 L54.8207,11.832 L53.0945,12.362 L51.3948,12.903 L49.7191,13.455 L48.0699,14.018 L46.4487,14.593 L44.8531,15.178 L43.2857,15.775 L41.7481,16.382 L40.2376,17 L38.7568,17.63 L37.3076,18.271 L35.887,18.922 L34.4978,19.584 L33.1418,20.258 L31.816,20.942 L30.5232,21.637 L29.2654,22.344 L28.0391,23.061 L26.8474,23.789 L25.6925,24.529 L24.5707,25.279 L23.4852,26.041 L22.4383,26.814 L21.4261,27.598 L20.4518,28.394 L19.5179,29.201 L18.6205,30.019 L17.7627,30.85 L16.9474,31.692 L16.1702,32.545 L15.4346,33.411 L14.7436,34.288 L14.0928,35.176 L13.4858,36.079 L12.9255,36.992 L12.4076,37.916 L11.9361,38.854 L11.5137,39.803 L11.136,40.763 L10.8075,41.736 L10.5304,42.719 L10.3003,43.712 L10.1219,44.718 L9.9971,45.732 L9.9212,46.755 L9.8995,47.79 L9.9327,48.832 L10.0162,49.882 L10.1557,50.942 L10.3511,52.007 L10.5979,53.079 L10.9021,54.161 L11.2628,55.248 L11.6758,56.341 L12.1472,57.443 L12.6737,58.546 L13.1227,59.417 L13.5942,60.275 L14.0888,61.122 L14.6048,61.96 L15.1447,62.79 L15.7069,63.608 L16.2897,64.418 L16.8956,65.219 L17.523,66.01 L18.1702,66.792 L18.8398,67.565 L19.5332,68.332 L20.2481,69.078 L20.9675,69.828 L21.7283,70.561 L22.4888,71.293 L23.2897,72.007 L24.089,72.719 L24.9242,73.416 L25.7604,74.113 L26.635,74.792 L27.5093,75.471 L28.4212,76.133 L29.3315,76.794 L30.2751,77.439 L31.2195,78.085 L32.1996,78.714 L33.1794,79.343 L34.1938,79.955 L35.2068,80.566 L36.2506,81.162 L37.2951,81.758 L38.3726,82.339 L39.4497,82.918 L40.5587,83.482 L41.6665,84.046 L42.8028,84.594 L43.94,85.142 L45.1074,85.674 L46.2745,86.206 L47.4706,86.722 L48.6656,87.238 L49.8864,87.74 L51.1076,88.242 L52.3563,88.729 L53.6047,89.216 L54.8794,89.688 L56.1532,90.16 L57.4501,90.618 L58.7475,91.076 L60.0696,91.52 L61.3915,91.963 L62.7369,92.392 L64.0815,92.821 L65.4468,93.237 L66.8125,93.653 L68.2001,94.055 L69.5875,94.457 L70.9958,94.844 L72.4033,95.232 L73.829,95.607 L75.2551,95.982 L76.7004,96.344 L78.1454,96.705 L79.6086,97.053 L81.0711,97.401 L82.5492,97.738 L84.0277,98.074 L85.5225,98.397 L87.0172,98.72 L88.5273,99.031 L90.0368,99.341 L91.5595,99.639 L93.0824,99.938 L94.6191,100.224 L96.1556,100.51 L97.7047,100.783 L99.2533,101.057 L100.8126,101.319 L102.3722,101.581 L103.9427,101.831 L105.513,102.081 L107.0932,102.319 L108.6729,102.558 L110.2608,102.785 L111.849,103.012 L113.4454,103.228 L115.0415,103.444 L116.6448,103.648 L118.2477,103.852 L119.8563,104.046 L121.4651,104.24 L123.0791,104.423 L124.6931,104.607 L126.3114,104.78 L127.9308,104.953 L129.5545,105.112 L131.1739,105.27 L132.7934,105.428 L134.4189,105.586 L136.0478,105.724 L137.6708,105.861 L139.2937,105.997 L140.9223,106.135 L142.5505,106.252 L144.1728,106.368 L145.7953,106.485 L147.4226,106.602 L149.0463,106.701 L150.665,106.799 L152.2837,106.898 L153.9076,106.996 L155.524,107.076 L157.1351,107.156 L158.7462,107.235 L160.3624,107.315 L161.967,107.376 L163.5664,107.437 L165.1659,107.499 L166.7699,107.56 L168.3601,107.605 L169.9458,107.651 L171.5315,107.696 L173.122,107.741 L174.694,107.769 L176.2611,107.797 L177.8281,107.825 L179.3999,107.853 L180.9491,107.865 L182.4935,107.876 L184.0379,107.887 L185.5855,107.9 L187.1156,107.9 L188.6449,107.9 L190.1601,107.892 L191.6754,107.885 L193.1757,107.87 L194.6758,107.855 L196.1615,107.833 L197.6473,107.811 L199.1164,107.781 L200.5856,107.752 L202.037,107.715 L203.4881,107.679 L204.9224,107.636 L206.3569,107.593 L207.7719,107.544 L209.1869,107.494 L210.5814,107.438 L211.9757,107.382 L213.3506,107.319 L214.7257,107.257 L216.0785,107.188 L217.4314,107.119 L218.761,107.044 L220.0904,106.969 L221.3979,106.889 L222.7056,106.808 L223.9883,106.721 L225.2711,106.635 L226.5279,106.543 L227.7844,106.45 L229.0165,106.353 L230.2489,106.255 L231.4535,106.152 L232.6582,106.049 L233.8341,105.941 L235.0098,105.832 L236.1585,105.719 L237.3077,105.606 L238.4263,105.488 L239.545,105.37 L240.6322,105.247 L241.7192,105.124 L242.7762,104.997 L243.8342,104.869 L244.8592,104.737 L245.8852,104.605 L247.8652,104.333 L249.7822,104.053 L251.6292,103.764 L253.4012,103.467 L255.1052,103.164 L256.7332,102.852 L258.2792,102.534 L259.3442,102.303 L260.4742,102.047 L261.6642,101.767 L262.9062,101.463 L264.2012,101.135 L265.5422,100.781 L266.9222,100.404 L268.3402,100.002 L269.7902,99.575 L271.2652,99.124 L272.7642,98.648 L274.2812,98.147 L275.8092,97.622 L277.3482,97.071 L278.8892,96.495 L280.4292,95.895 L281.9642,95.268 L283.4882,94.616 L284.9982,93.94 L286.4892,93.237 L287.9542,92.508 L289.3922,91.754 L290.7972,90.973 L292.1612,90.165 L293.4852,89.332 L294.7622,88.47 L295.9852,87.58 L297.1542,86.663 L298.2622,85.716 L299.2992,84.74 L300.2712,83.735 L301.1662,82.697 L301.9752,81.628 L302.7032,80.528 L303.3372,79.391 L303.8592,78.241 L304.0952,77.628 L304.2962,77.022 L304.4672,76.41 L304.6122,75.79 L304.7262,75.16 L304.8092,74.525 L304.8632,73.883 L304.8842,73.232 L304.8722,72.577 L304.8292,71.916 L304.7522,71.247 L304.6402,70.575 L304.4952,69.898 L304.3152,69.213 L304.0992,68.526 L303.8492,67.835 L303.5622,67.137 L303.2392,66.436 L302.8812,65.731 L302.4842,65.02 L302.0502,64.305 L301.5802,63.587 L301.0692,62.862 L300.5282,62.145 C300.2092,61.722 299.6072,61.638 299.1842,61.957 C298.7612,62.277 298.6772,62.879 298.9962,63.302 L299.5192,63.994 L299.9932,64.665 L300.4282,65.33 L300.8282,65.986 L301.1902,66.633 L301.5152,67.272 L301.8072,67.904 L302.0632,68.525 L302.2852,69.139 L302.4762,69.746 L302.6342,70.342 L302.7602,70.933 L302.8582,71.516 L302.9252,72.089 L302.9622,72.658 L302.9732,73.22 L302.9552,73.773 L302.9102,74.322 L302.8392,74.866 L302.7422,75.403 L302.6182,75.936 L302.4702,76.465 L302.2982,76.987 L302.1072,77.488 L301.6342,78.532 L301.0752,79.537 L300.4212,80.527 L299.6852,81.5 L298.8662,82.452 L297.9642,83.386 L296.9922,84.301 L295.9502,85.194 L294.8402,86.065 L293.6732,86.916 L292.4502,87.743 L291.1732,88.548 L289.8532,89.331 L288.4922,90.089 L287.0932,90.824 L285.6642,91.536 L284.2092,92.224 L282.7312,92.887 L281.2362,93.528 L279.7302,94.144 L278.2162,94.735 L276.7002,95.303 L275.1862,95.847 L273.6792,96.365 L272.1842,96.861 L270.7062,97.332 L269.2502,97.778 L267.8182,98.201 L266.4182,98.599 L265.0562,98.972 L263.7312,99.323 L262.4532,99.648 L261.2272,99.948 L260.0522,100.226 L258.9392,100.479 L257.8942,100.707 L256.3692,101.022 L254.7662,101.33 L253.0832,101.631 L251.3302,101.926 L249.5032,102.213 L247.6032,102.492 L245.6372,102.764 L244.6212,102.895 L243.6042,103.027 L242.5542,103.154 L241.5032,103.281 L240.4231,103.404 L239.3429,103.527 L238.2311,103.645 L237.1192,103.763 L235.9766,103.876 L234.8337,103.989 L233.6637,104.098 L232.494,104.206 L231.2953,104.309 L230.0967,104.413 L228.8702,104.51 L227.6433,104.608 L226.3919,104.701 L225.1408,104.794 L223.8636,104.881 L222.5863,104.967 L221.2839,105.048 L219.9813,105.13 L218.6567,105.205 L217.3323,105.281 L215.9845,105.35 L214.6368,105.419 L213.2668,105.482 L211.8965,105.545 L210.5067,105.602 L209.1172,105.659 L207.7071,105.709 L206.297,105.759 L204.8673,105.803 L203.4375,105.846 L201.9906,105.883 L200.544,105.919 L199.0797,105.949 L197.6153,105.979 L196.1342,106.001 L194.6529,106.023 L193.1571,106.038 L191.6615,106.054 L190.151,106.061 L188.6405,106.069 L187.1159,106.069 L185.5923,106.069 L184.0512,106.058 L182.5068,106.047 L180.9624,106.036 L179.4229,106.025 L177.8606,105.997 L176.2935,105.969 L174.7264,105.942 L173.1643,105.914 L171.5834,105.869 L169.9977,105.825 L168.412,105.78 L166.8308,105.735 L165.2359,105.674 L163.6364,105.613 L162.0369,105.551 L160.4425,105.49 L158.8366,105.41 L157.2255,105.33 L155.6144,105.25 L154.0087,105.17 L152.3953,105.071 L150.7766,104.972 L149.158,104.872 L147.5443,104.774 L145.9269,104.657 L144.3046,104.539 L142.6822,104.422 L141.0656,104.305 L139.4484,104.168 L137.8255,104.031 L136.2026,103.893 L134.5857,103.756 L132.9723,103.598 L131.3529,103.439 L129.7334,103.281 L128.1183,103.122 L126.5075,102.949 L124.8957,102.777 L123.2882,102.593 L121.6809,102.409 L120.0792,102.212 L118.4772,102.016 L116.8809,101.809 L115.285,101.603 L113.6963,101.385 L112.1076,101.167 L110.5273,100.937 L108.9466,100.708 L107.3741,100.468 L105.8022,100.228 L104.2401,99.975 L102.6782,99.723 L101.1272,99.459 L99.576,99.195 L98.0355,98.92 L96.4956,98.645 L94.9683,98.358 L93.4412,98.07 L91.9278,97.771 L90.4142,97.471 L88.9137,97.159 L87.4139,96.848 L85.9296,96.524 L84.4454,96.2 L82.9778,95.863 L81.5098,95.526 L80.0577,95.176 L78.6063,94.827 L77.1731,94.464 L75.7402,94.102 L74.3265,93.726 L72.9125,93.35 L71.5168,92.962 L70.1219,92.574 L68.748,92.172 L67.3744,91.77 L66.0227,91.355 L64.6708,90.939 L63.3396,90.511 L62.0094,90.083 L60.7029,89.641 L59.3967,89.199 L58.1154,88.742 L56.8336,88.286 L55.5752,87.816 L54.3178,87.347 L53.087,86.863 L51.8565,86.38 L50.6537,85.881 L49.4503,85.383 L48.2729,84.871 L47.0965,84.359 L45.9496,83.833 L44.803,83.306 L43.6868,82.765 L42.5698,82.224 L41.4809,81.67 L40.3931,81.116 L39.3376,80.547 L38.2824,79.979 L37.2604,79.394 L36.2376,78.81 L35.2458,78.211 L34.2553,77.613 L33.2998,77 L32.3447,76.387 L31.4255,75.758 L30.5055,75.128 L29.6189,74.484 L28.7337,73.841 L27.8863,73.182 L27.0392,72.524 L26.2308,71.849 L25.4213,71.174 L24.6477,70.484 L23.8758,69.795 L23.1441,69.09 L22.4127,68.386 L21.7226,67.665 L21.028,66.94 L20.3694,66.211 L19.7295,65.472 L19.1104,64.724 L18.5111,63.968 L17.9345,63.205 L17.3792,62.433 L16.8443,61.653 L16.3325,60.867 L15.8428,60.071 L15.3738,59.267 L14.9285,58.456 L14.508,57.64 L14.0115,56.599 L13.5745,55.577 L13.1925,54.564 L12.8605,53.561 L12.583,52.572 L12.3582,51.593 L12.1809,50.623 L12.0555,49.666 L11.9807,48.718 L11.9513,47.78 L11.9712,46.853 L12.0401,45.934 L12.1527,45.023 L12.3127,44.124 L12.5204,43.23 L12.7706,42.344 L13.0668,41.469 L13.41,40.599 L13.7948,39.736 L14.2244,38.882 L14.7004,38.034 L15.2171,37.193 L15.7776,36.361 L16.3833,35.535 L17.0291,34.716 L17.7173,33.907 L18.4496,33.104 L19.2206,32.309 L20.0327,31.523 L20.8874,30.745 L21.7795,29.975 L22.7112,29.215 L23.6839,28.463 L24.6924,27.719 L25.7389,26.985 L26.8245,26.26 L27.9444,25.544 L29.1007,24.838 L30.2943,24.141 L31.5207,23.454 L32.7818,22.777 L34.0783,22.11 L35.4058,21.452 L36.7663,20.805 L38.1603,20.168 L39.5838,19.54 L41.0385,18.923 L42.5249,18.317 L44.0392,17.72 L45.5828,17.134 L47.1563,16.559 L48.7561,15.994 L50.3836,15.44 L52.0392,14.896 L53.7193,14.363 L55.4253,13.841 L57.1577,13.33 L58.913,12.829 L60.6926,12.34 L62.4945,11.862 L64.3327,11.399 L66.1682,10.936 L68.0482,10.497 L69.9285,10.057 L71.8508,9.642 L73.7765,9.225 L74.75,9.029 L75.7333,8.831 L76.7166,8.632 L77.6921,8.436 L78.6863,8.251 L79.6883,8.065 L80.6903,7.878 L81.6847,7.693 L82.6966,7.52 L83.716,7.346 L84.7355,7.171 L85.7481,6.998 L86.7758,6.836 L87.8101,6.672 L88.8444,6.508 L89.8715,6.346 L90.9139,6.196 L91.9634,6.044 L93.0129,5.893 L94.0554,5.742 L95.112,5.604 L96.1755,5.465 L97.2389,5.325 L98.2962,5.187 L99.3652,5.059 L100.4403,4.931 L101.5155,4.803 L102.584,4.676 L103.6643,4.56 L104.7512,4.444 L105.8382,4.329 L106.9185,4.213 L108.0094,4.11 L109.1068,4.007 L110.2043,3.904 L111.2959,3.801 L112.396,3.709 L113.502,3.617 L114.608,3.525 L115.7076,3.433 L116.8155,3.354 L117.9298,3.275 L119.0441,3.195 L120.152,3.116 L121.267,3.049 L122.3883,2.983 L123.5097,2.916 L124.6253,2.849 L125.7463,2.794 L126.873,2.738 L127.9998,2.683 L129.1202,2.628 L130.2455,2.586 L131.3771,2.543 L132.5087,2.5 L133.6339,2.458 L134.7628,2.428 L135.8979,2.399 L137.0331,2.369 L138.1625,2.339 L139.2942,2.321 L140.4316,2.303 L141.5691,2.285 L142.7001,2.268 L143.8325,2.263 L144.9714,2.258 L146.1101,2.253 L147.2425,2.248 L148.375,2.256 L149.5139,2.264 L150.6529,2.272 L151.7859,2.28 L152.918,2.299 L154.056,2.319 L155.1941,2.339 L156.3255,2.359 L157.4549,2.392 L158.5909,2.425 L159.7268,2.458 L160.8561,2.491 L161.982,2.537 L163.1146,2.584 L164.2472,2.63 L165.3736,2.676 L166.496,2.734 L167.6246,2.793 L168.7532,2.852 L169.8748,2.91 L170.9909,2.982 L172.1139,3.054 L173.237,3.126 L174.3529,3.198 L175.462,3.283 L176.5782,3.368 L177.6944,3.454 L178.8041,3.539 L179.9065,3.637 L181.0155,3.735 L182.1246,3.833 L183.2261,3.93 L184.3186,4.041 L185.4187,4.153 L186.5187,4.265 L187.6111,4.376 L188.6931,4.501 L189.7829,4.626 L190.8727,4.752 L191.9552,4.876 L193.0274,5.014 L194.1069,5.152 L195.1864,5.29 L196.2577,5.426 L197.3164,5.577 L198.3834,5.729 L199.4504,5.881 L200.5089,6.032 L201.5537,6.196 L202.6069,6.362 L203.6602,6.528 L204.7055,6.693 L205.7372,6.871 L206.777,7.049 L207.8168,7.228 L208.8475,7.405 L209.8621,7.597 L210.886,7.79 L211.9098,7.983 L212.9242,8.174 L213.9212,8.379 L214.9279,8.587 L215.9345,8.794 L216.9345,9 L217.922,9.216 L218.9112,9.432 L219.891,9.655 L220.8707,9.878 L221.8406,10.108 L222.8093,10.338 L224.7328,10.812 L226.6332,11.3 L228.5127,11.802 L230.3722,12.318 L232.2087,12.847 L234.0224,13.391 L235.8146,13.948 L237.5818,14.52 L239.3246,15.106 L241.0442,15.705 L242.7372,16.319 L244.4032,16.947 L246.0452,17.589 L247.6592,18.245 L249.2442,18.916 L250.8032,19.601 L252.3312,20.299 L253.8302,21.013 L255.3012,21.74 L256.7402,22.481 L258.1472,23.237 L259.5252,24.007 L260.8692,24.791 L262.1802,25.59 L263.4592,26.402 L264.7032,27.228 L265.9122,28.069 L267.0882,28.924 L268.2272,29.792 L269.3292,30.675 L270.3982,31.572 L271.4272,32.482 L272.4182,33.407 L273.3732,34.346 L274.2882,35.298 L275.1642,36.265 L276.0022,37.245 L276.7982,38.238 L277.5532,39.247 L278.2712,40.269 L278.9442,41.304 L279.5762,42.354 L280.1682,43.418 L280.7152,44.495 L281.2192,45.588 L281.6822,46.695 L282.0992,47.815 L282.4722,48.952 L282.8022,50.103 L283.0862,51.268 L283.3232,52.451 L283.5162,53.649 L283.6622,54.861 L283.7582,56.091 L283.8102,57.337 L283.8132,58.599 L283.7642,59.88 L283.6822,60.977 L283.5542,62.049 L283.3822,63.101 L283.1702,64.131 L282.9162,65.137 L282.6172,66.124 L282.2812,67.09 L281.9032,68.034 L281.4822,68.96 L281.0242,69.867 L280.5262,70.752 L279.9862,71.62 L279.4092,72.471 L278.7942,73.3 L278.1372,74.113 L277.4442,74.909 L276.7142,75.686 L275.9432,76.445 L275.1362,77.188 L274.2932,77.912 L273.4112,78.619 L272.4952,79.309 L271.5422,79.981 L270.5522,80.636 L269.5292,81.274 L268.4712,81.894 L267.3772,82.497 L266.2512,83.084 L265.0922,83.653 L263.8982,84.204 L262.6732,84.74 L261.4172,85.258 L260.1282,85.759 L258.8102,86.244 L257.4612,86.711 L256.0822,87.162 L254.6742,87.597 L253.2382,88.015 L251.7722,88.416 L250.2802,88.802 L248.7612,89.171 L247.2132,89.524 L245.6412,89.862 L244.0442,90.184 L242.4192,90.489 L240.7724,90.78 L239.1009,91.054 L237.4047,91.313 L235.6868,91.558 L233.9463,91.787 L232.1825,92.001 L230.3986,92.201 L228.5935,92.385 L226.7693,92.555 L224.9121,92.704 L223.0578,92.854 L221.1648,92.974 L219.2714,93.094 L217.3415,93.185 L215.4104,93.277 L213.4479,93.342 L211.4829,93.408 L210.4928,93.426 L209.4912,93.446 L208.4897,93.465 L207.4963,93.483 L206.4876,93.489 L205.471,93.494 L204.4543,93.5 L203.4447,93.505 L202.4222,93.499 L201.3927,93.492 L200.3631,93.485 L199.341,93.479 L198.3057,93.459 L197.263,93.44 L196.2203,93.42 L195.1847,93.401 L194.1369,93.368 L193.0822,93.336 L192.0274,93.304 L190.9789,93.272 L189.9201,93.229 L188.8553,93.185 L187.7905,93.141 L186.7322,93.098 L185.6637,93.043 L184.5888,92.987 L183.5139,92.931 L182.4452,92.876 L181.3675,92.809 L180.2835,92.741 L179.1996,92.674 L178.1212,92.607 L177.0354,92.529 L175.9442,92.451 L174.8529,92.373 L173.7676,92.296 L172.6751,92.207 L171.5768,92.118 L170.4786,92.028 L169.386,91.939 L168.2873,91.84 L167.1831,91.739 L166.079,91.639 L164.9797,91.539 L163.876,91.429 L162.7673,91.319 L161.6585,91.21 L160.5552,91.1 L159.4478,90.98 L158.3351,90.86 L157.2224,90.74 L156.1149,90.62 L155.0045,90.49 L153.8889,90.359 L152.7733,90.229 L151.6623,90.099 L150.5497,89.96 L149.4324,89.821 L148.315,89.682 L147.2027,89.543 L146.0894,89.395 L144.9712,89.246 L143.8529,89.097 L142.7395,88.949 L141.6264,88.792 L140.5083,88.634 L139.3902,88.476 L138.2765,88.319 L137.1639,88.153 L136.0469,87.987 L134.9298,87.821 L133.8175,87.656 L132.7074,87.482 L131.5926,87.307 L130.4777,87.132 L129.3675,86.958 L128.2605,86.776 L127.1488,86.593 L126.0372,86.41 L124.9298,86.228 L123.8262,86.038 L122.7184,85.848 L121.6106,85.657 L120.5074,85.468 L119.4093,85.271 L118.3067,85.072 L117.2041,84.874 L116.1061,84.677 L115.0143,84.473 L113.918,84.267 L112.8217,84.062 L111.7295,83.857 L110.644,83.646 L109.5542,83.434 L108.4646,83.222 L107.3794,83.011 L106.3025,82.793 L105.221,82.574 L104.1396,82.355 L103.0627,82.137 L101.9952,81.913 L100.9231,81.687 L99.851,81.462 L98.7831,81.237 L97.7246,81.007 L96.6618,80.776 L95.5992,80.545 L94.5411,80.315 L93.4944,80.079 L92.443,79.841 L91.3916,79.604 L90.3449,79.368 L89.3107,79.126 L88.2718,78.883 L87.2329,78.64 L86.1982,78.398 L85.1758,78.151 L84.1491,77.903 L83.1224,77.655 L82.1004,77.409 L81.0929,77.157 L80.0805,76.904 L79.0682,76.651 L78.0606,76.399 L77.0688,76.142 L76.0718,75.885 L75.0749,75.627 L74.0826,75.37 L73.1053,75.109 L72.1233,74.847 L71.1414,74.586 L70.1646,74.325 L69.2053,74.06 L68.2408,73.794 L67.2763,73.528 L66.3189,73.264 L64.4305,72.725 L62.5436,72.186 L60.6921,71.641 L58.8413,71.096 L57.0316,70.544 L55.222,69.992 L53.4557,69.434 L51.6876,68.876 L49.9533,68.315 L48.2411,67.751 L46.5524,67.184 L44.8858,66.616 L43.2442,66.045 L41.6277,65.473 L40.0346,64.899 L38.4682,64.323 L36.9284,63.746 L35.4136,63.168 L33.927,62.588 L32.4684,62.008 L31.0363,61.427 L29.6341,60.845 L28.2616,60.263 L26.9168,59.68 L25.6037,59.097 L24.3217,58.515 L23.0691,57.932 L21.8496,57.35 L20.6631,56.768 L19.5072,56.188 L18.3865,55.608 L17.3,55.029 L16.2458,54.452 L15.2284,53.876 L14.2472,53.302 L13.2997,52.729 L12.391,52.16 L11.5198,51.592 L10.6841,51.027 L9.8889,50.466 L9.1329,49.908 L8.4141,49.354 L7.7378,48.805 L7.1023,48.259 L6.5056,47.719 L5.9533,47.186 L5.4432,46.658 L4.9733,46.137 L4.5495,45.626 L4.1688,45.122 L3.829,44.628 L3.5357,44.147 L3.2852,43.674 L3.0747,43.214 L2.9088,42.771 L2.7834,42.337 L2.6946,41.915 L2.6457,41.51 L2.6344,41.111 L2.6567,40.718 L2.7157,40.336 L2.815,39.948 L3.0333,39.287 L3.2923,38.634 L3.594,37.982 L3.9332,37.335 L4.3124,36.695 L4.7347,36.057 L5.1946,35.423 L5.6943,34.796 L6.2368,34.172 L6.8165,33.552 L7.4353,32.94 L8.0961,32.332 L8.7933,31.729 L9.5285,31.134 L10.3042,30.544 L11.1152,29.961 L11.9631,29.385 L12.8498,28.815 L13.7704,28.252 L14.7264,27.697 L15.7196,27.149 L16.7452,26.608 L17.8047,26.075 L18.8998,25.55 L20.0257,25.032 L21.1841,24.523 L22.3761,24.021 L23.5976,23.527 L24.8501,23.042 L26.1345,22.565 L27.4469,22.095 L28.7887,21.634 L30.1608,21.182 L31.5594,20.737 L32.9858,20.302 L34.441,19.874 L35.9211,19.455 L37.4277,19.044 L38.9612,18.643 L40.5183,18.249 L42.1003,17.864 L43.7052,17.488 L45.3485,17.124 L46.9886,16.76 L48.6751,16.414 L50.3619,16.067 L52.093,15.739 L53.8252,15.411 L55.5958,15.099 L57.3658,14.787 L59.1761,14.493 L60.9867,14.199 L62.8354,13.923 L64.6851,13.647 L66.5677,13.388 L68.4496,13.128 L70.3659,12.887 L72.2823,12.646 L74.2308,12.423 L76.1801,12.2 L78.1568,11.993 L80.1354,11.787 L81.1314,11.693 L82.1372,11.599 L83.143,11.505 L84.1417,11.411 L85.1534,11.326 L86.1722,11.241 L87.191,11.156 L88.2034,11.071 L89.2268,10.995 L90.2564,10.918 L91.2862,10.842 L92.309,10.765 L93.343,10.698 L94.3837,10.631 L95.4245,10.563 L96.4585,10.496 L97.5026,10.438 L98.5533,10.38 L99.604,10.322 L100.6487,10.264 L101.7016,10.214 L102.7605,10.164 L103.8194,10.115 L104.8717,10.065 L105.9322,10.025 L106.9991,9.984 L108.0661,9.944 L109.1266,9.904 L110.1941,9.873 L111.2679,9.841 L112.3418,9.81 L113.4099,9.779 L114.4835,9.756 L115.5628,9.734 L116.6421,9.711 L117.7151,9.688 L118.7932,9.675 L119.8775,9.662 L120.9618,9.648 L122.0399,9.635 L123.1219,9.631 L124.2102,9.627 L125.2985,9.623 L126.3811,9.619 L127.4664,9.624 L128.5574,9.628 L129.6484,9.633 L130.7331,9.637 L131.8199,9.651 L132.9129,9.665 L134.0059,9.679 L135.0926,9.692 L136.1803,9.716 L137.2743,9.739 L138.3682,9.762 L139.4564,9.785 L140.5447,9.816 L141.6385,9.848 L142.7325,9.88 L143.82,9.911 L144.9067,9.952 L145.9996,9.993 L147.0925,10.035 L148.1791,10.076 L149.2635,10.126 L150.3543,10.176 L151.4452,10.227 L152.5302,10.277 L153.6124,10.336 L154.7005,10.396 L155.7886,10.455 L156.8701,10.514 L157.9477,10.582 L159.0318,10.651 L160.1158,10.719 L161.1933,10.788 L162.2656,10.865 L163.3446,10.944 L164.4237,11.022 L165.4965,11.1 L166.5638,11.186 L167.6374,11.273 L168.7109,11.36 L169.7775,11.446 L170.837,11.542 L171.9035,11.638 L172.9701,11.735 L174.0295,11.83 L175.0808,11.936 L176.1393,12.042 L177.1977,12.147 L178.2495,12.253 L179.2931,12.366 L180.3432,12.481 L181.3935,12.596 L182.4362,12.709 L183.4688,12.833 L184.5091,12.957 L185.5493,13.081 L186.5818,13.204 L187.6031,13.337 L188.6322,13.471 L189.6613,13.604 L190.6831,13.737 L191.694,13.879 L192.7121,14.021 L193.7303,14.164 L194.7402,14.305 L195.737,14.456 L196.7421,14.608 L197.7472,14.76 L198.7438,14.911 L199.7262,15.072 L200.7172,15.233 L201.7082,15.395 L202.6884,15.555 L204.6376,15.895 L206.583,16.235 L208.4962,16.593 L210.4091,16.952 L212.2876,17.33 L214.1668,17.708 L216.0129,18.104 L217.8578,18.499 L219.6645,18.913 L221.4709,19.327 L223.2367,19.761 L225.006,20.195 L226.7406,20.641 L228.4554,21.097 L230.1483,21.562 L231.8203,22.037 L233.4683,22.52 L235.0929,23.014 L236.6952,23.516 L238.2718,24.028 L239.8236,24.549 L241.3512,25.079 L242.8522,25.618 L244.3262,26.167 L245.7762,26.724 L247.1962,27.29 L248.5882,27.867 L249.9542,28.451 L251.2892,29.045 L252.5952,29.648 L253.8722,30.26 L255.1182,30.88 L256.3322,31.51 L257.5172,32.147 L258.6692,32.794 L259.7872,33.449 L260.8752,34.113 L261.9272,34.785 L262.9462,35.466 L263.9322,36.154 L264.8812,36.85 L265.7952,37.556 L266.6752,38.269 L267.5162,38.988 L268.3212,39.717 L269.0912,40.452 L269.8212,41.194 L270.5132,41.944 L271.1692,42.701 L271.7852,43.463 L272.3612,44.235 L272.9022,45.012 L273.4002,45.794 L273.8592,46.585 L274.2812,47.382 L274.6602,48.183 L275.0002,48.995 L275.3022,49.813 L275.5622,50.635 L275.7822,51.469 L275.9632,52.31 L276.1012,53.157 L276.1982,54.016 L276.2562,54.885 L276.2702,55.761 L276.2402,56.651 L276.1702,57.552 L276.0552,58.461 L275.8932,59.386 L275.6882,60.323 L275.4372,61.269 L275.1352,62.235 L274.9202,62.833 L274.6732,63.423 L274.3932,64.008 L274.0852,64.588 L273.7462,65.157 L273.3742,65.723 L272.9732,66.283 L272.5412,66.834 L272.0762,67.381 L271.5832,67.921 L271.0592,68.453 L270.5022,68.98 L269.9172,69.501 L269.3032,70.013 L268.6562,70.519 L267.9812,71.018 L267.2792,71.508 L266.5452,71.992 L265.7842,72.468 L264.9952,72.936 L264.1772,73.396 L263.3332,73.849 L262.4632,74.293 L261.5642,74.729 L260.6402,75.157 L259.6912,75.576 L258.7152,75.987 L257.7162,76.391 L256.6922,76.785 L255.6472,77.169 L254.5592,77.545 L253.4762,77.919 L252.3482,78.276 L251.2182,78.632 L250.0442,78.971 L248.8672,79.311 L247.6512,79.634 L246.4362,79.958 L245.1792,80.264 L243.9222,80.569 L242.6252,80.858 L241.3262,81.147 L239.9917,81.42 L238.6584,81.694 L237.2881,81.95 L235.9172,82.206 L234.5111,82.444 L233.1035,82.683 L231.6652,82.907 L230.2276,83.13 L228.7577,83.337 L227.2874,83.543 L225.7865,83.733 L224.2844,83.923 L222.7558,84.098 L221.2278,84.273 L219.6722,84.431 L218.1164,84.589 L216.5345,84.731 L214.9516,84.872 L213.3465,84.999 L211.7419,85.126 L210.1144,85.237 L208.4867,85.348 L206.8376,85.443 L205.1876,85.538 L203.5196,85.618 L201.8522,85.699 L200.1664,85.764 L198.4804,85.828 L196.7777,85.878 L195.0743,85.927 L193.3571,85.962 L191.6404,85.997 L189.9099,86.017 L188.1793,86.037 L186.4366,86.042 L184.6933,86.047 L182.9403,86.038 L181.1878,86.029 L179.4263,86.005 L177.6647,85.981 L175.8955,85.943 L174.1258,85.905 L172.3506,85.853 L170.576,85.801 L168.7969,85.735 L167.0177,85.669 L165.2356,85.589 L163.453,85.508 L161.6692,85.415 L159.8859,85.322 L158.1027,85.214 L156.3195,85.107 L154.5381,84.986 L152.7561,84.865 L150.9771,84.731 L149.1986,84.598 L147.4249,84.451 L145.6512,84.304 L143.8838,84.143 L142.116,83.983 L140.3553,83.81 L138.5951,83.638 L136.8444,83.452 L135.0937,83.267 L133.3539,83.068 L131.6137,82.87 L129.8848,82.659 L128.1566,82.449 L126.4423,82.227 L124.7281,82.004 L123.0295,81.769 L121.3304,81.533 L119.647,81.286 L117.9643,81.039 L116.3002,80.779 L114.6362,80.519 L112.9925,80.248 L111.3482,79.976 L109.7237,79.694 L108.1001,79.412 L106.4996,79.118 L104.8993,78.824 L103.3239,78.518 L101.748,78.213 L100.196,77.897 L98.6449,77.581 L97.1217,77.254 L95.5987,76.927 L94.1053,76.589 L92.6112,76.251 L91.1454,75.903 L89.6806,75.556 L88.2484,75.197 L86.8164,74.839 L85.4187,74.47 L84.0203,74.101 L82.6543,73.722 L81.2897,73.344 L79.9623,72.955 L78.6353,72.567 L77.3471,72.168 L76.0583,71.77 L74.8062,71.362 L73.5557,70.955 L72.3471,70.538 L71.139,70.122 L69.9745,69.696 L68.8058,69.269 L67.6754,68.838 L66.5656,68.402 L65.4787,67.961 L64.4137,67.516 L63.374,67.067 L62.3585,66.614 L61.366,66.158 L60.4002,65.698 L59.4598,65.233 L58.5435,64.765 L57.6553,64.295 L56.7936,63.82 L55.9573,63.342 L55.1506,62.862 L54.3713,62.378 L53.6188,61.891 L52.8971,61.403 L52.2041,60.912 L51.539,60.418 L50.9061,59.924 L50.303,59.426 L49.7287,58.928 L49.188,58.43 L48.6779,57.93 L48.1974,57.429 L47.7515,56.93 L47.3368,56.43 L46.9521,55.93 L46.6024,55.434 L46.2837,54.936 L45.9949,54.44 L45.7407,53.949 L45.5173,53.457 L45.3229,52.966 L45.1618,52.48 L45.0309,51.991 L44.9281,51.503 L44.8571,51.019 L44.8164,50.529 L44.8037,50.036 L44.8222,49.545 L44.8731,49.042 L44.9767,48.351 L45.1102,47.667 L45.2743,46.985 L45.4655,46.307 L45.6854,45.636 L45.9359,44.967 L46.2131,44.301 L46.5184,43.642 L46.8542,42.984 L47.2165,42.33 L47.6063,41.682 L48.0264,41.036 L48.4725,40.393 L48.9457,39.757 L49.4486,39.123 L49.977,38.493 L50.5318,37.87 L51.1156,37.249 L51.7242,36.633 L52.3584,36.023 L53.0207,35.418 L53.7069,34.817 L54.4179,34.222 L55.1559,33.632 L55.9169,33.047 L56.7018,32.469 L57.5125,31.896 L58.3453,31.329 L59.2008,30.768 L60.0757,30.216 L60.9936,29.666 L61.9047,29.12 L62.8599,28.588 L63.816,28.055 L64.8146,27.537 L65.8157,27.016 L66.8542,26.509 L67.8915,26.002 L68.9685,25.509 L70.0461,25.016 L71.162,24.538 L72.2799,24.059 L73.4314,23.594 L74.5816,23.128 L75.7673,22.678 L76.9535,22.228 L78.1733,21.793 L79.395,21.357 L80.6461,20.936 L81.8962,20.514 L83.1772,20.109 L84.4586,19.703 L85.7693,19.313 L87.0815,18.922 L88.4192,18.546 L89.7559,18.171 L91.1191,17.811 L92.4826,17.451 L93.871,17.108 L95.2608,16.764 L96.6719,16.436 L98.0822,16.107 L99.5145,15.795 L100.9471,15.483 L102.4002,15.188 L103.8545,14.892 L105.3261,14.612 L106.7969,14.332 L108.2854,14.069 L109.774,13.806 L111.2788,13.56 L112.7846,13.314 L114.3039,13.084 L115.8222,12.853 L117.354,12.641 L118.8858,12.428 L120.4294,12.233 L121.974,12.038 L123.5279,11.859 L125.081,11.68 L126.6431,11.519 L128.2052,11.358 L129.7747,11.215 L131.3451,11.072 L132.921,10.945 L134.4959,10.819 L136.0755,10.711 L137.655,10.603 L139.2375,10.513 L140.821,10.423 L142.4058,10.35 L143.9897,10.278 L145.5739,10.224 L147.1579,10.169 L148.7406,10.134 L150.3242,10.099 L151.9053,10.081 L153.4853,10.063 L155.0611,10.064 L156.6369,10.065 L158.2069,10.086 L159.7778,10.106 L161.3421,10.144 L162.9054,10.182 L164.4602,10.24 L166.0147,10.297 L167.5592,10.375 L169.1045,10.452 L170.6393,10.547 L172.1729,10.643 L173.6936,10.758 L175.2141,10.873 L176.72,11.008 L178.2268,11.143 L179.7192,11.297 L181.2102,11.451 L182.6839,11.625 L184.1573,11.798 L185.6119,11.993 L187.0673,12.187 L188.5042,12.4 L189.9397,12.612 L191.3534,12.846 L192.7668,13.079 L194.1568,13.333 L195.5479,13.587 L196.9165,13.861 L198.2833,14.133 L199.624,14.427 L200.9642,14.721 L202.2767,15.036 L203.5902,15.351 L204.8774,15.685 L206.1624,16.019 L207.4169,16.374 L208.6708,16.729 L209.8926,17.105 L211.1156,17.482 L212.3081,17.878 L213.4981,18.273 L214.6533,18.69 L215.8077,19.106 L216.9255,19.544 L218.0499,19.985 L219.137,20.435 L220.2085,20.898 L221.261,21.372 L222.2948,21.856 L223.3067,22.349 L224.2985,22.854 L225.2707,23.368 L226.2197,23.892 L227.1476,24.427 L228.0549,24.972 L228.9379,25.526 L229.7988,26.092 L230.6382,26.667 L231.4521,27.251 L232.243,27.847 L233.0115,28.451 L233.7535,29.065 L234.4716,29.69 L235.1664,30.324 L235.8338,30.967 L236.4765,31.621 L237.0953,32.285 L237.6858,32.956 L238.2509,33.64 L238.7914,34.332 L239.303,35.032 L239.7886,35.745 L240.2489,36.466 L240.68,37.196 L241.0842,37.938 L241.4632,38.689 L241.8112,39.448 L242.1332,40.221 L242.4282,41.004 L242.6932,41.795 L242.9292,42.6 L243.1392,43.416 L243.3182,44.241 L243.4672,45.081 L243.5892,45.932 L243.6792,46.793 L243.7382,47.67 L243.7682,48.559 L243.7662,49.459 L243.7312,50.376 L243.6672,51.305 L243.5682,52.245 L243.4392,53.182 L243.2342,54.258 L242.9562,55.27 L242.5972,56.254 L242.1702,57.208 L241.6692,58.127 L241.0902,59.023 L240.4417,59.895 L239.7215,60.735 L238.9231,61.553 L238.0573,62.347 L237.1217,63.111 L236.1111,63.85 L235.0362,64.564 L233.8957,65.248 L232.6853,65.905 L231.4156,66.535 L230.0854,67.136 L228.6918,67.708 L227.2444,68.253 L225.7422,68.769 L224.1834,69.255 L222.5765,69.714 L220.9209,70.144 L219.2152,70.545 L217.4673,70.92 L215.6766,71.265 L213.8425,71.582 L211.9718,71.873 L210.0646,72.137 L208.116,72.372 L207.1321,72.477 L206.1448,72.582 L205.142,72.674 L204.1388,72.765 L203.1211,72.843 L202.1019,72.921 L201.0705,72.987 L200.0398,73.053 L198.9965,73.105 L197.9529,73.158 L196.8977,73.198 L195.8414,73.237 L194.7754,73.265 L193.7101,73.293 L192.6352,73.308 L191.56,73.324 L190.4762,73.326 L189.3915,73.329 L188.2997,73.321 L187.2086,73.312 L186.1108,73.291 L185.0129,73.271 L183.9092,73.238 L182.8087,73.205 L181.7021,73.156 L180.5835,73.107 L179.4648,73.058 L178.3634,73.01 L177.2564,72.938 L176.1322,72.866 L175.0079,72.793 L173.9004,72.722 L172.7916,72.629 L171.666,72.534 L170.5404,72.439 L169.4261,72.345 L168.313,72.237 L167.1968,72.128 L166.0827,72.008 L164.9685,71.889 L163.8576,71.759 L162.7459,71.629 L161.638,71.489 L160.5309,71.35 L159.4287,71.201 L158.3266,71.051 L157.2306,70.892 L156.1338,70.733 L155.0436,70.564 L153.954,70.396 L152.8725,70.219 L151.791,70.041 L150.7186,69.854 L149.6455,69.667 L148.5815,69.472 L147.5183,69.276 L146.466,69.072 L145.4139,68.868 L144.3738,68.655 L143.3329,68.441 L142.3039,68.22 L141.2758,68 L140.2616,67.77 L139.2475,67.541 L138.2484,67.303 L137.2486,67.066 L136.2632,66.821 L135.2789,66.576 L134.3114,66.323 L133.3475,66.072 L131.4448,65.55 L129.5802,65.016 L127.7567,64.467 L125.9746,63.905 L124.2328,63.33 L122.5384,62.742 L120.8913,62.141 L119.2903,61.529 L117.7431,60.906 L116.2494,60.271 L114.8074,59.626 L113.4259,58.972 L112.104,58.309 L110.8398,57.637 L109.643,56.958 L108.5119,56.272 L107.4447,55.58 L106.4518,54.885 L105.5309,54.185 L104.6795,53.483 L103.9093,52.784 L103.2162,52.083 L102.5973,51.386 L102.0639,50.699 L101.61,50.016 L101.2307,49.343 L100.9351,48.688 L100.704,47.998 L100.6314,47.715 L100.5672,47.399 L100.5207,47.081 L100.4906,46.764 L100.4792,46.452 L100.4845,46.161 L100.544,45.446 L100.6562,44.781 L100.8235,44.123 L101.0395,43.474 L101.3072,42.841 L101.6318,42.21 L102.0058,41.585 L102.432,40.973 L102.9162,40.363 L103.4502,39.761 L104.0359,39.17 L104.6782,38.585 L105.3688,38.01 L106.1086,37.447 L106.9017,36.894 L107.74,36.352 L108.6241,35.824 L109.5572,35.308 L110.5317,34.804 L111.548,34.315 L112.6087,33.84 L113.7067,33.377 L114.8426,32.931 L116.018,32.499 L117.2268,32.08 L118.4693,31.678 L119.7469,31.29 L121.0537,30.917 L122.3901,30.56 L123.7571,30.219 L125.1495,29.892 L126.5672,29.581 L128.0112,29.285 L129.4767,29.005 L130.9636,28.74 L132.4676,28.493 L134.0076,28.266 L135.5418,28.039 L137.109,27.845 L138.6769,27.651 L140.2719,27.49 L141.869,27.328 L143.4861,27.195 L145.1019,27.063 L146.7346,26.963 L148.3677,26.863 L150.0116,26.796 L151.6573,26.728 L153.3082,26.69 L154.9577,26.651 L156.608,26.646 L158.2582,26.64 L159.9033,26.666 L161.5498,26.692 L163.1869,26.748 L164.8222,26.803 L166.4422,26.891 L168.0618,26.978 L169.6601,27.098 L171.2638,27.218 L172.8408,27.359 L174.4063,27.517 L175.9563,27.69 L177.4904,27.877 L179.0046,28.081 L180.4993,28.3 L181.9742,28.534 L183.4249,28.783 L184.852,29.048 L186.2555,29.327 L187.6305,29.621 L188.9777,29.931 L190.2974,30.255 L191.5842,30.594 L192.8391,30.949 L194.0624,31.317 L195.2483,31.699 L196.3981,32.096 L197.5124,32.507 L198.5844,32.931 L199.6162,33.37 L200.6083,33.821 L201.5534,34.284 L202.4541,34.761 L203.311,35.249 L204.1161,35.747 L204.8728,36.257 L205.582,36.777 L206.2351,37.304 L206.8368,37.841 L207.3883,38.385 L207.881,38.932 L208.3207,39.488 L208.7098,40.049 L209.0406,40.608 L209.3457,41.235 C209.7536,42.068 210.7598,42.413 211.5932,42.005 C212.4266,41.598 212.7716,40.591 212.3637,39.758 Z" id="Fill-100"></path>
            <path d="M222.5816,22.058 C207.8414,-6.539 17.0359,7.943 26.5221,51.443 C35.8268,94.11 222.6794,101.839 255.3982,69.252 C296.3332,28.482 192.4848,9.372 170.4113,14.044" id="Fill-102"></path>
            <path d="M224.054,21.249 L223.7868,20.764 L223.4648,20.249 L223.1145,19.75 L222.7376,19.264 L222.3298,18.788 L221.8968,18.327 L221.4394,17.877 L220.9535,17.437 L220.4443,17.011 L219.9124,16.595 L219.3538,16.188 L218.7729,15.793 L218.1704,15.407 L217.5425,15.029 L216.8932,14.662 L216.223,14.304 L215.5285,13.953 L214.8133,13.612 L214.0779,13.278 L213.3191,12.953 L212.5402,12.636 L211.7418,12.326 L210.9211,12.024 L210.0696,11.726 L208.3443,11.163 L206.5254,10.626 L204.6305,10.119 L202.6729,9.64 L201.6471,9.412 L200.6282,9.186 L199.573,8.974 L198.5199,8.762 L197.435,8.563 L196.3492,8.364 L195.2297,8.179 L194.1108,7.994 L192.9595,7.823 L191.8099,7.651 L190.6318,7.493 L189.4531,7.334 L188.2444,7.189 L187.0361,7.043 L185.7993,6.912 L184.5638,6.78 L183.3035,6.661 L182.0425,6.541 L180.7555,6.435 L179.4687,6.329 L178.1573,6.236 L176.847,6.144 L175.5153,6.063 L174.1831,5.982 L172.8287,5.915 L171.4744,5.847 L170.0995,5.793 L168.7254,5.739 L167.3336,5.696 L165.9413,5.654 L164.5306,5.624 L163.12,5.595 L161.6927,5.579 L160.2662,5.562 L158.8255,5.558 L157.3841,5.553 L155.9285,5.561 L154.4729,5.57 L153.0045,5.592 L151.5367,5.613 L150.0584,5.646 L148.5794,5.679 L147.0901,5.725 L145.6008,5.771 L144.1026,5.83 L142.605,5.888 L141.1003,5.958 L139.5951,6.028 L138.0834,6.11 L136.5716,6.193 L135.0548,6.288 L133.5387,6.383 L132.0191,6.489 L130.4989,6.596 L128.9761,6.714 L127.4533,6.833 L125.9294,6.964 L124.406,7.095 L122.8829,7.237 L121.359,7.38 L119.8365,7.534 L118.314,7.689 L116.7943,7.856 L115.2752,8.023 L113.7598,8.201 L112.2437,8.379 L110.7329,8.57 L109.222,8.76 L107.7179,8.962 L106.2144,9.165 L104.7182,9.379 L103.2212,9.593 L101.7334,9.819 L100.2456,10.044 L98.7685,10.282 L97.2919,10.52 L95.8262,10.769 L94.3597,11.018 L92.9065,11.279 L91.453,11.54 L90.0143,11.813 L88.576,12.086 L87.1522,12.369 L85.7275,12.653 L84.32,12.949 L82.9123,13.245 L81.5233,13.553 L80.1349,13.861 L78.7644,14.179 L77.3929,14.498 L76.0425,14.828 L74.6917,15.158 L73.3635,15.5 L72.0364,15.843 L70.7308,16.197 L69.4242,16.551 L68.1424,16.917 L66.8604,17.283 L65.6048,17.66 L64.3498,18.037 L63.12,18.424 L61.8889,18.812 L60.6864,19.21 L59.4834,19.609 L58.3108,20.018 L57.1389,20.428 L55.9956,20.848 L54.8508,21.268 L53.7387,21.7 L52.6261,22.132 L51.5475,22.575 L50.4698,23.018 L49.4234,23.468 L48.375,23.92 L47.3631,24.383 L46.3506,24.847 L45.376,25.322 L44.4023,25.796 L43.4643,26.281 L42.5238,26.768 L41.6238,27.265 L40.7159,27.768 L39.0057,28.783 L37.3648,29.825 L35.8086,30.894 L34.3562,31.978 L33.6431,32.543 L32.9641,33.107 L32.3101,33.676 L31.6779,34.252 L31.0688,34.837 L30.4858,35.427 L29.9258,36.024 L29.3901,36.63 L28.8819,37.243 L28.3978,37.862 L27.9394,38.491 L27.51,39.127 L27.1062,39.769 L26.7298,40.423 L26.384,41.082 L26.0656,41.748 L25.7765,42.425 L25.5199,43.107 L25.2925,43.796 L25.0967,44.496 L24.9349,45.2 L24.8039,45.909 L24.7067,46.629 L24.6448,47.35 L24.6155,48.077 L24.6216,48.811 L24.6634,49.547 L24.7381,50.285 L24.8493,51.031 L24.9961,51.775 L25.1714,52.503 L25.3792,53.227 L25.6178,53.939 L25.8846,54.644 L26.1828,55.344 L26.5098,56.032 L26.8635,56.712 L27.2473,57.387 L27.6579,58.05 L28.0938,58.706 L28.5584,59.355 L29.0483,59.993 L29.5621,60.624 L30.1032,61.248 L30.6684,61.863 L31.2563,62.47 L31.8703,63.07 L32.5074,63.661 L33.1662,64.245 L33.8499,64.823 L34.5558,65.392 L35.2824,65.954 L36.0331,66.51 L36.8051,67.057 L37.5971,67.598 L38.4125,68.133 L39.2483,68.659 L40.1035,69.179 L40.9806,69.693 L41.8821,70.202 L42.8016,70.696 L43.7268,71.193 L44.6926,71.678 L45.6576,72.162 L46.662,72.633 L47.6642,73.103 L48.7014,73.561 L49.7396,74.019 L50.815,74.464 L51.8898,74.909 L53.0006,75.342 L54.1095,75.773 L55.2502,76.193 L56.3917,76.614 L57.5669,77.022 L58.7417,77.429 L59.9491,77.824 L61.1551,78.218 L62.3896,78.601 L63.6249,78.984 L64.8905,79.355 L66.1558,79.725 L67.4502,80.083 L68.7434,80.441 L70.0621,80.787 L71.3814,81.133 L72.7278,81.466 L74.074,81.799 L75.4458,82.119 L76.8165,82.44 L78.2096,82.749 L79.6033,83.058 L81.0205,83.354 L82.4375,83.651 L83.8767,83.934 L85.315,84.218 L86.7726,84.491 L88.2306,84.763 L89.7088,85.023 L91.1867,85.283 L92.6835,85.53 L94.1794,85.777 L95.6916,86.013 L97.2041,86.249 L98.7333,86.472 L100.2623,86.696 L101.8067,86.906 L103.3503,87.117 L104.907,87.316 L106.4641,87.515 L108.0343,87.702 L109.6045,87.889 L111.1865,88.063 L112.7679,88.237 L114.3592,88.399 L115.9508,88.562 L117.5522,88.712 L119.1533,88.863 L120.7629,89.001 L122.372,89.14 L123.9877,89.267 L125.6039,89.393 L127.2262,89.508 L128.8485,89.622 L130.4759,89.724 L132.1026,89.826 L133.7329,89.916 L135.3636,90.007 L136.9971,90.084 L138.6305,90.162 L140.2655,90.227 L141.8999,90.293 L143.5348,90.347 L145.17,90.402 L146.8046,90.444 L148.4391,90.486 L150.0718,90.515 L151.7039,90.544 L153.3333,90.562 L154.9631,90.58 L156.5888,90.585 L158.2145,90.59 L159.8348,90.582 L161.4546,90.574 L163.0685,90.554 L164.6829,90.535 L166.2897,90.503 L167.8965,90.472 L169.4944,90.428 L171.092,90.383 L172.6804,90.327 L174.2694,90.271 L175.8473,90.202 L177.4252,90.134 L178.9908,90.053 L180.5561,89.972 L182.109,89.879 L183.6626,89.786 L185.2016,89.681 L186.7408,89.575 L188.2641,89.456 L189.787,89.337 L191.2945,89.207 L192.8027,89.076 L194.2928,88.933 L195.783,88.789 L197.254,88.632 L198.7246,88.475 L200.1766,88.307 L201.6294,88.138 L203.0606,87.957 L204.4921,87.775 L205.9008,87.58 L207.3091,87.385 L208.6957,87.178 L210.0831,86.971 L211.4456,86.751 L212.8083,86.531 L214.1448,86.297 L215.4808,86.063 L216.7919,85.818 L218.104,85.572 L219.3879,85.313 L220.6719,85.054 L221.9263,84.781 L223.1802,84.509 L224.4059,84.224 L225.6327,83.938 L226.8277,83.638 L228.023,83.339 L229.1853,83.026 L230.347,82.714 L231.4776,82.389 L232.6095,82.064 L233.7062,81.725 L234.8033,81.386 L235.8637,81.033 L236.9234,80.68 L237.949,80.314 L238.9761,79.948 L239.9645,79.569 L240.9532,79.188 L241.9022,78.795 L242.8552,78.399 L244.6752,77.588 L246.4172,76.745 L248.0732,75.874 L249.6492,74.975 L251.1372,74.045 L252.5212,73.093 L253.1962,72.595 L253.8392,72.096 L254.4562,71.59 L255.0512,71.076 L255.6222,70.553 L256.1652,70.025 L256.8052,69.374 L257.4212,68.727 L258.0122,68.084 L258.5812,67.444 L259.1282,66.806 L259.6572,66.164 L260.6352,64.911 L261.5292,63.661 L262.3332,62.423 L263.0562,61.196 L263.6952,59.978 L264.2472,58.774 L264.7222,57.58 L265.1142,56.393 L265.4232,55.222 L265.6572,54.06 L265.8122,52.909 L265.8862,51.773 L265.8902,50.651 L265.8162,49.54 L265.6692,48.448 L265.4552,47.372 L265.1702,46.31 L264.8172,45.27 L264.4032,44.246 L263.9232,43.239 L263.3822,42.253 L262.7872,41.284 L262.1322,40.333 L261.4222,39.402 L260.6632,38.488 L259.8512,37.591 L258.9892,36.712 L258.0832,35.85 L257.1292,35.005 L256.1302,34.178 L255.0912,33.366 L254.0092,32.571 L252.8872,31.792 L251.7302,31.029 L250.5342,30.282 L249.3002,29.557 L248.0352,28.846 L246.7362,28.151 L245.4062,27.473 L244.0502,26.809 L242.6642,26.161 L241.2532,25.53 L239.8189,24.912 L238.3609,24.309 L236.8814,23.722 L235.3833,23.149 L233.8655,22.592 L232.3308,22.05 L230.7818,21.523 L229.2178,21.011 L227.6402,20.511 L226.053,20.033 L224.4631,19.553 L222.8559,19.105 L221.2493,18.657 L219.6324,18.24 L218.0166,17.823 L216.3971,17.434 L214.7774,17.043 L213.1595,16.684 L211.5418,16.324 L209.9327,15.996 L208.3245,15.668 L206.7296,15.368 L205.1343,15.068 L203.5597,14.798 L201.9852,14.529 L200.4382,14.29 L198.892,14.052 L197.3763,13.842 L195.8598,13.632 L194.3829,13.454 L192.906,13.275 L191.4755,13.128 L190.0475,12.981 L188.6502,12.855 L187.2821,12.745 L185.9436,12.65 L184.6331,12.571 L183.3542,12.507 L182.1096,12.459 L180.897,12.425 L179.7204,12.408 L178.5827,12.406 L177.481,12.42 L176.4195,12.449 L175.4013,12.494 L174.4227,12.555 L173.4882,12.632 L172.601,12.725 L171.7566,12.834 L170.9592,12.961 L170.2283,13.102 C169.7078,13.203 169.3678,13.707 169.4688,14.227 C169.5699,14.747 170.0738,15.087 170.5943,14.986 L171.2924,14.85 L172.0309,14.731 L172.8257,14.626 L173.6688,14.535 L174.5619,14.459 L175.5048,14.398 L176.4905,14.351 L177.5209,14.32 L178.5951,14.304 L179.7074,14.303 L180.8591,14.317 L182.0495,14.347 L183.2732,14.391 L184.5313,14.45 L185.823,14.525 L187.1435,14.615 L188.4936,14.72 L189.8702,14.84 L191.2869,14.982 L192.701,15.124 L194.1621,15.297 L195.6233,15.471 L197.1245,15.676 L198.6264,15.88 L200.1592,16.113 L201.6913,16.346 L203.2512,16.61 L204.811,16.874 L206.3916,17.17 L207.9728,17.466 L209.5674,17.79 L211.161,18.114 L212.7635,18.469 L214.3657,18.823 L215.9697,19.209 L217.574,19.595 L219.1742,20.011 L220.7732,20.426 L222.3619,20.872 L223.95,21.317 L225.5209,21.793 L227.0944,22.27 L228.6473,22.767 L230.1872,23.283 L231.7124,23.814 L233.2222,24.359 L234.7131,24.919 L236.1842,25.493 L237.6357,26.081 L239.0632,26.683 L240.4657,27.302 L241.8442,27.934 L243.1932,28.58 L244.5132,29.241 L245.8052,29.914 L247.0622,30.602 L248.2862,31.304 L249.4762,32.018 L250.6302,32.741 L251.7462,33.479 L252.8242,34.228 L253.8592,34.991 L254.8502,35.767 L255.8002,36.555 L256.7012,37.355 L257.5542,38.169 L258.3612,38.993 L259.1152,39.829 L259.8162,40.677 L260.4682,41.536 L261.0632,42.404 L261.6022,43.285 L262.0882,44.176 L262.5142,45.075 L262.8812,45.987 L263.1922,46.909 L263.4402,47.84 L263.6262,48.786 L263.7522,49.744 L263.8132,50.712 L263.8062,51.698 L263.7372,52.698 L263.5982,53.711 L263.3862,54.744 L263.1062,55.793 L262.7502,56.857 L262.3132,57.942 L261.8042,59.044 L261.2112,60.162 L260.5312,61.3 L259.7722,62.455 L258.9252,63.625 L257.9802,64.822 L257.4842,65.415 L256.9602,66.02 L256.4122,66.629 L255.8422,67.242 L255.2482,67.859 L254.6322,68.478 L254.1292,68.962 L253.6032,69.438 L253.0502,69.909 L252.4742,70.376 L251.8742,70.836 L251.2572,71.285 L249.9282,72.188 L248.5142,73.059 L247.0042,73.908 L245.4102,74.735 L243.7292,75.537 L241.9552,76.317 L241.0362,76.693 L240.1139,77.071 L239.1508,77.436 L238.1872,77.801 L237.1842,78.153 L236.1798,78.505 L235.1407,78.846 L234.1023,79.187 L233.0273,79.515 L231.9518,79.844 L230.8407,80.16 L229.7282,80.476 L228.5843,80.78 L227.4411,81.084 L226.2644,81.375 L225.0874,81.666 L223.8782,81.944 L222.668,82.222 L221.4298,82.489 L220.1922,82.757 L218.9246,83.011 L217.6568,83.265 L216.3603,83.507 L215.063,83.748 L213.7406,83.978 L212.4187,84.208 L211.0705,84.424 L209.7221,84.641 L208.3485,84.845 L206.9742,85.049 L205.578,85.241 L204.1824,85.433 L202.7638,85.612 L201.3451,85.792 L199.9048,85.958 L198.4637,86.124 L197.0041,86.278 L195.5449,86.433 L194.0663,86.574 L192.5876,86.716 L191.0907,86.844 L189.5933,86.973 L188.0804,87.09 L186.568,87.206 L185.0397,87.31 L183.5112,87.414 L181.9682,87.505 L180.4246,87.596 L178.8688,87.676 L177.3133,87.755 L175.7454,87.821 L174.1775,87.887 L172.5984,87.939 L171.0189,87.992 L169.4303,88.033 L167.8421,88.074 L166.245,88.103 L164.6478,88.131 L163.0431,88.145 L161.4378,88.16 L159.8267,88.163 L158.216,88.166 L156.5999,88.156 L154.9838,88.146 L153.3636,88.124 L151.7429,88.101 L150.1195,88.067 L148.4966,88.032 L146.8717,87.985 L145.2468,87.938 L143.6214,87.879 L141.9955,87.819 L140.37,87.747 L138.7451,87.675 L137.1217,87.59 L135.4985,87.505 L133.878,87.407 L132.2572,87.31 L130.6399,87.201 L129.0232,87.092 L127.4116,86.97 L125.8001,86.848 L124.1949,86.713 L122.5893,86.579 L120.9906,86.433 L119.3923,86.287 L117.8027,86.129 L116.2132,85.969 L114.6336,85.797 L113.0536,85.625 L111.4836,85.442 L109.9142,85.259 L108.3568,85.064 L106.7996,84.868 L105.2558,84.66 L103.7115,84.452 L102.1804,84.233 L100.6499,84.014 L99.1351,83.782 L97.6205,83.551 L96.1226,83.307 L94.6243,83.064 L93.1424,82.809 L91.6612,82.554 L90.1991,82.287 L88.7373,82.02 L87.2958,81.741 L85.8537,81.461 L84.4313,81.171 L83.0097,80.881 L81.6107,80.578 L80.212,80.276 L78.8371,79.962 L77.4618,79.647 L76.109,79.322 L74.7575,78.997 L73.432,78.659 L72.1068,78.322 L70.8089,77.973 L69.5104,77.625 L68.2377,77.265 L66.9663,76.906 L65.7245,76.535 L64.4832,76.164 L63.2727,75.781 L62.0616,75.398 L60.8796,75.005 L59.6991,74.612 L58.5516,74.207 L57.4047,73.802 L56.2922,73.386 L55.179,72.97 L54.0981,72.543 L53.019,72.116 L51.9767,71.679 L50.935,71.241 L49.9313,70.792 L48.9266,70.343 L47.9573,69.884 L46.9902,69.426 L46.0633,68.957 L45.1373,68.488 L44.2528,68.008 L43.3627,67.526 L42.5119,67.041 L41.6795,66.549 L40.8684,66.052 L40.078,65.55 L39.3117,65.044 L38.5672,64.532 L37.844,64.017 L37.1459,63.497 L36.4706,62.972 L35.8177,62.443 L35.1905,61.911 L34.5871,61.374 L34.0065,60.832 L33.4527,60.288 L32.9231,59.739 L32.417,59.186 L31.9384,58.631 L31.4845,58.071 L31.0546,57.508 L30.6525,56.944 L30.2756,56.374 L29.923,55.801 L29.5983,55.228 L29.2992,54.649 L29.0243,54.067 L28.7774,53.484 L28.5564,52.895 L28.3596,52.303 L28.1907,51.71 L28.0481,51.111 L27.9289,50.5 L27.8409,49.9 L27.7821,49.303 L27.7498,48.712 L27.7464,48.13 L27.7714,47.55 L27.8214,46.974 L27.8988,46.405 L28.0044,45.837 L28.1349,45.272 L28.292,44.712 L28.4775,44.153 L28.6878,43.595 L28.9244,43.043 L29.1896,42.489 L29.4796,41.938 L29.7956,41.391 L30.1403,40.843 L30.5098,40.298 L30.9049,39.756 L31.3286,39.216 L31.7766,38.677 L32.2499,38.142 L32.751,37.609 L33.2759,37.078 L33.8254,36.552 L34.402,36.027 L35.0017,35.506 L35.6253,34.989 L36.2629,34.484 L37.641,33.456 L39.1001,32.456 L40.6538,31.471 L42.2966,30.498 L43.1498,30.028 L44.0108,29.553 L44.9131,29.088 L45.8179,28.621 L46.759,28.164 L47.6991,27.707 L48.678,27.26 L49.6576,26.813 L50.6745,26.377 L51.6933,25.939 L52.7457,25.513 L53.7973,25.088 L54.8835,24.673 L55.9703,24.258 L57.0902,23.854 L58.2118,23.449 L59.3623,23.054 L60.5121,22.66 L61.6925,22.276 L62.8734,21.892 L64.0836,21.52 L65.2951,21.147 L66.5321,20.785 L67.7682,20.422 L69.031,20.071 L70.2941,19.72 L71.5824,19.38 L72.8718,19.039 L74.1829,18.709 L75.4929,18.377 L76.8255,18.056 L78.1584,17.736 L79.5125,17.426 L80.8676,17.117 L82.2409,16.818 L83.6134,16.519 L85.0047,16.231 L86.396,15.943 L87.8045,15.666 L89.214,15.389 L90.6379,15.122 L92.0613,14.855 L93.4992,14.6 L94.9375,14.345 L96.3889,14.102 L97.8411,13.858 L99.3041,13.625 L100.7666,13.392 L102.2398,13.17 L103.7132,12.949 L105.1958,12.739 L106.6792,12.529 L108.1698,12.33 L109.6599,12.131 L111.1567,11.944 L112.6535,11.756 L114.1558,11.58 L115.6587,11.405 L117.1653,11.24 L118.6713,11.075 L120.1802,10.923 L121.689,10.77 L123.1993,10.629 L124.7101,10.489 L126.2211,10.359 L127.7315,10.229 L129.2407,10.112 L130.75,9.994 L132.2566,9.889 L133.7639,9.784 L135.2677,9.69 L136.7708,9.596 L138.2688,9.515 L139.7669,9.433 L141.2583,9.364 L142.7504,9.295 L144.2353,9.237 L145.7196,9.18 L147.1948,9.135 L148.67,9.089 L150.1346,9.057 L151.5998,9.024 L153.0543,9.003 L154.508,8.982 L155.9488,8.973 L157.3894,8.964 L158.8155,8.968 L160.2422,8.972 L161.6546,8.987 L163.0661,9.003 L164.4607,9.031 L165.8551,9.059 L167.2311,9.1 L168.6076,9.141 L169.9663,9.194 L171.324,9.247 L172.6606,9.312 L173.9971,9.378 L175.3111,9.456 L176.6258,9.535 L177.9189,9.625 L179.2109,9.716 L180.4778,9.819 L181.7445,9.922 L182.9848,10.039 L184.2257,10.156 L185.4414,10.284 L186.6558,10.412 L187.8412,10.554 L189.0262,10.695 L190.1806,10.85 L191.3359,11.005 L192.4622,11.172 L193.587,11.338 L194.6786,11.518 L195.7697,11.698 L196.8262,11.891 L197.8835,12.084 L198.9083,12.289 L199.931,12.493 L200.9165,12.711 L201.8953,12.927 L203.7943,13.391 L205.6129,13.876 L207.345,14.386 L209.0024,14.926 L209.7835,15.198 L210.5515,15.48 L211.2972,15.769 L212.021,16.063 L212.7192,16.362 L213.3941,16.667 L214.0461,16.977 L214.6711,17.292 L215.2718,17.613 L215.8485,17.938 L216.3968,18.267 L216.92,18.602 L217.4182,18.94 L217.8868,19.281 L218.3295,19.627 L218.7467,19.976 L219.1334,20.325 L219.494,20.679 L219.8288,21.035 L220.1331,21.389 L220.4117,21.748 L220.6651,22.108 L220.889,22.465 L221.1092,22.867 C221.556,23.68 222.5774,23.977 223.3906,23.53 C224.2038,23.084 224.5008,22.062 224.054,21.249 Z" id="Fill-103"></path>
        </g>
    </g>
</svg>
