<?xml version="1.0" encoding="UTF-8"?>
<svg width="339px" height="123px" viewBox="0 0 339 123" version="1.1" xmlns="http://www.w3.org/2000/svg" xmlns:xlink="http://www.w3.org/1999/xlink">
    <title>40</title>
    <g id="Page-1" stroke="none" stroke-width="1" fill="none" fill-rule="evenodd">
        <g id="40" transform="translate(0.612660, 0.772000)" fill="currentColor">
            <path d="M176.78244,32.081 L175.87034,31.398 L174.91854,30.726 L173.94834,30.081 L172.96034,29.459 L171.95164,28.861 L170.92614,28.288 L169.88424,27.738 L168.82324,27.211 L167.74684,26.709 L166.65544,26.228 L165.54644,25.77 L164.42344,25.336 L163.28674,24.923 L162.13384,24.532 L160.96834,24.163 L159.79044,23.815 L158.59774,23.489 L157.39364,23.184 L156.17844,22.899 L154.94984,22.635 L153.71114,22.393 L152.46234,22.168 L151.20174,21.965 L149.92594,21.781 L148.65044,21.625 L147.36694,21.469 L146.06474,21.351 L144.76344,21.235 L143.44534,21.155 L142.13014,21.076 L140.80124,21.031 L139.47094,20.986 L138.12704,20.977 L136.78394,20.968 L135.42934,20.995 L134.07724,21.021 L132.71624,21.079 L131.35384,21.137 L129.98314,21.229 L128.61314,21.321 L127.23684,21.445 L125.86274,21.57 L124.48444,21.724 L123.10484,21.878 L121.72234,22.063 L120.34024,22.248 L118.95714,22.463 L117.57594,22.678 L116.19534,22.92 L114.81354,23.163 L113.43394,23.434 L112.05484,23.705 L110.67984,24.004 L109.30654,24.303 L107.93864,24.626 L106.56954,24.95 L105.20794,25.3 L103.84664,25.65 L102.49484,26.026 L101.14454,26.401 L99.80434,26.799 L98.46294,27.197 L97.13434,27.619 L95.80584,28.041 L94.49214,28.486 L93.17984,28.931 L91.88254,29.396 L90.58384,29.862 L89.30324,30.349 L88.02264,30.836 L86.76204,31.344 L85.50294,31.852 L84.26344,32.377 L83.02244,32.903 L81.80484,33.449 L80.58724,33.995 L79.39474,34.558 L78.20374,35.122 L77.03714,35.701 L75.86894,36.282 L74.72934,36.879 L73.58954,37.476 L72.48024,38.09 L71.37224,38.703 L70.2936,39.329 L69.21306,39.957 L68.16642,40.6 L67.11941,41.243 L66.1082,41.9 L65.09832,42.556 L64.12252,43.224 L63.14458,43.893 L62.20579,44.575 L61.26649,45.258 L60.36826,45.952 L59.47141,46.646 L58.61344,47.349 L57.75302,48.054 L56.93703,48.77 L56.1204,49.487 L55.35015,50.214 L54.5868,50.934 L53.84417,51.673 L53.12992,52.412 L52.44145,53.155 L51.77578,53.902 L51.13452,54.655 L50.52049,55.412 L49.93058,56.172 L49.3665,56.939 L48.83121,57.708 L48.32144,58.481 L47.83911,59.26 L47.38719,60.042 L46.96237,60.827 L46.56678,61.618 L46.2034,62.411 L45.86887,63.207 L45.56567,64.01 L45.29657,64.813 L45.0583,65.619 L44.85374,66.431 L44.68528,67.242 L44.54973,68.056 L44.45049,68.875 L44.38916,69.691 L44.36273,70.509 L44.37515,71.33 L44.42692,72.147 L44.51526,72.962 L44.64457,73.78 L44.81408,74.591 L45.02123,75.399 L45.27084,76.207 L45.56091,77.006 L45.88911,77.8 L46.26064,78.592 L46.67256,79.375 L47.12278,80.151 L47.61683,80.923 L48.15124,81.684 L48.72412,82.439 L49.34126,83.189 L49.99903,83.928 L50.69564,84.661 L51.43711,85.387 L52.21987,86.103 L53.04213,86.812 L53.91001,87.514 L54.82021,88.207 L55.77082,88.892 L56.76802,89.57 L57.8088,90.239 L58.89109,90.9 L60.02105,91.554 L61.19611,92.198 L62.41387,92.835 L63.6805,93.464 L64.99366,94.083 L66.35074,94.694 L67.75796,95.297 L69.21324,95.891 L70.71374,96.476 L72.26564,97.052 L73.86724,97.619 L75.51524,98.177 L77.21604,98.725 L78.96794,99.263 L80.76764,99.793 L82.62134,100.312 L84.52774,100.821 L86.48014,101.319 L87.48874,101.564 L88.49414,101.809 L89.52714,102.048 L90.55914,102.286 L91.61654,102.52 L92.67454,102.754 L93.76064,102.983 L94.84664,103.211 L95.96094,103.434 L97.07434,103.656 L98.21364,103.874 L99.35374,104.091 L100.52244,104.303 L101.69104,104.514 L102.88864,104.72 L104.08544,104.925 L105.30884,105.126 L106.53284,105.326 L107.78614,105.52 L109.03954,105.714 L110.32244,105.902 L111.60474,106.089 L112.91414,106.271 L114.22404,106.453 L115.56414,106.629 L116.90414,106.804 L118.27444,106.974 L119.64404,107.143 L121.04154,107.306 L122.43944,107.469 L123.86814,107.625 L125.29684,107.782 L126.75644,107.931 L128.21554,108.081 L129.70304,108.224 L131.19094,108.367 L132.71034,108.504 L134.22964,108.64 L135.78064,108.769 L137.33114,108.899 L138.42624,108.982 L139.51434,109.065 L140.60254,109.148 L141.69854,109.232 L142.79534,109.306 L143.88424,109.379 L144.97314,109.452 L146.07024,109.525 L147.16794,109.588 L148.25744,109.651 L149.34704,109.713 L150.44424,109.776 L151.54184,109.83 L152.63194,109.882 L153.72194,109.935 L154.82054,109.988 L155.91964,110.03 L157.01004,110.072 L158.10054,110.114 L159.19984,110.156 L160.29934,110.187 L161.39004,110.217 L162.48074,110.247 L163.57974,110.278 L164.67894,110.298 L165.76974,110.318 L166.86054,110.337 L167.96074,110.357 L169.06104,110.365 L170.15184,110.373 L171.24274,110.38 L172.34324,110.388 L173.44364,110.383 L174.53434,110.378 L175.62514,110.374 L176.72484,110.369 L177.82444,110.352 L178.91494,110.336 L180.00544,110.319 L181.10614,110.303 L182.20654,110.273 L183.29674,110.244 L184.38694,110.214 L185.48754,110.184 L186.58764,110.141 L187.67734,110.098 L188.76704,110.055 L189.87034,110.012 L191.87094,109.908 L193.87634,109.805 L195.88074,109.672 L197.88444,109.539 L199.88714,109.379 L201.88824,109.219 L203.88814,109.035 L205.88854,108.851 L207.88744,108.642 L209.88244,108.433 L210.88904,108.316 L211.88244,108.201 L212.87594,108.085 L213.87784,107.968 L214.87894,107.841 L215.87164,107.716 L216.86434,107.59 L217.86574,107.463 L218.86624,107.326 L219.85804,107.19 L220.84974,107.054 L221.84964,106.917 L222.84854,106.77 L223.83934,106.624 L224.83004,106.478 L225.82774,106.332 L226.82434,106.177 L227.81424,106.023 L228.80404,105.869 L229.80084,105.714 L230.79654,105.55 L231.78524,105.388 L232.77394,105.226 L233.76904,105.062 L234.76284,104.891 L235.75034,104.721 L236.73774,104.551 L237.72734,104.38 L238.93654,104.169 L240.18994,103.951 L241.48814,103.724 L242.82434,103.489 L244.19984,103.244 L245.61074,102.986 L247.05194,102.716 L248.52374,102.432 L250.02224,102.132 L251.54314,101.817 L253.08644,101.484 L254.64764,101.131 L256.22354,100.759 L257.81354,100.366 L259.41304,99.949 L261.01944,99.51 L262.63184,99.044 L264.24504,98.552 L265.85744,98.033 L267.46764,97.484 L269.07004,96.904 L270.66434,96.295 L272.24834,95.651 L273.81604,94.973 L275.36794,94.261 L276.90144,93.51 L278.40994,92.721 L279.89494,91.895 L281.35324,91.025 L282.77764,90.113 L284.17064,89.159 L285.52834,88.157 L286.84304,87.109 L288.11804,86.016 L289.34854,84.869 L290.52674,83.672 L291.65664,82.426 L292.73224,81.123 L293.74564,79.767 L294.70144,78.358 L295.59284,76.888 L296.41224,75.363 L297.16484,73.783 L297.84274,72.14 L298.43344,70.457 L298.70984,69.568 L298.95974,68.679 L299.18774,67.777 L299.39594,66.86 L299.58244,65.926 L299.74784,64.968 L299.91724,63.75 L300.02954,62.528 L300.08274,61.32 L300.08284,60.122 L300.02484,58.933 L299.90984,57.758 L299.74324,56.595 L299.52044,55.442 L299.24374,54.305 L298.91754,53.18 L298.53664,52.067 L298.10444,50.971 L297.62504,49.889 L297.09364,48.819 L296.51384,47.767 L295.88954,46.728 L295.21574,45.703 L294.49644,44.694 L293.73504,43.7 L292.92664,42.718 L292.07514,41.753 L291.18384,40.801 L290.24784,39.863 L289.27094,38.94 L288.25614,38.031 L287.19874,37.134 L286.10244,36.252 L284.96994,35.383 L283.79684,34.527 L282.58654,33.685 L281.34184,32.856 L280.05844,32.039 L278.73964,31.236 L277.38784,30.445 L275.99924,29.667 L274.57674,28.902 L273.12294,28.149 L271.63414,27.408 L270.11304,26.681 L268.56224,25.965 L266.97814,25.262 L265.36334,24.572 L263.72044,23.893 L262.04604,23.226 L260.34264,22.573 L258.61254,21.931 L256.85284,21.301 L255.06574,20.684 L253.25344,20.078 L251.41344,19.485 L249.54754,18.904 L247.65824,18.335 L245.74514,17.779 L244.77264,17.506 L243.80334,17.234 L242.82284,16.967 L241.84184,16.7 L240.84884,16.44 L239.85614,16.179 L238.85164,15.925 L237.84794,15.671 L236.83394,15.423 L235.81944,15.174 L234.79384,14.932 L233.76844,14.689 L232.73224,14.453 L231.69674,14.217 L230.65164,13.986 L229.60614,13.756 L228.55054,13.531 L227.49494,13.307 L226.42954,13.089 L225.36474,12.871 L224.29124,12.658 L223.21724,12.446 L222.13394,12.24 L221.05084,12.034 L219.95864,11.834 L218.86474,11.634 L217.75904,11.442 L216.66054,11.252 L215.56204,11.061 L214.45324,10.869 L213.32844,10.689 L212.21364,10.511 L211.09884,10.332 L209.97414,10.153 L208.83464,9.985 L207.70494,9.819 L206.57514,9.653 L205.43674,9.486 L204.28584,9.33 L203.14344,9.175 L202.00114,9.021 L200.84954,8.865 L199.68534,8.721 L198.53034,8.579 L197.37534,8.436 L196.21124,8.293 L195.03594,8.162 L193.86954,8.032 L192.70304,7.902 L191.52864,7.771 L190.34494,7.651 L189.16924,7.532 L187.99344,7.413 L186.80914,7.293 L185.61564,7.186 L184.43084,7.08 L183.24594,6.973 L182.05264,6.866 L180.85154,6.771 L179.65884,6.677 L178.46614,6.583 L177.26584,6.488 L176.05954,6.405 L174.86074,6.322 L173.66194,6.239 L172.45504,6.156 L171.24254,6.085 L170.03814,6.015 L168.83374,5.944 L167.62134,5.873 L166.40474,5.815 L165.19604,5.757 L163.98744,5.7 L162.77154,5.642 L161.55284,5.595 L160.34134,5.549 L159.12984,5.502 L157.91044,5.456 L156.68914,5.422 L155.47564,5.388 L154.26214,5.354 L153.04084,5.319 L151.81884,5.298 L150.60464,5.277 L149.39044,5.255 L148.16914,5.233 L146.94824,5.223 L145.73454,5.213 L144.52074,5.203 L143.29914,5.193 L142.07914,5.195 L140.86694,5.198 L139.65474,5.2 L138.43474,5.202 L137.21754,5.217 L136.00824,5.232 L134.79894,5.248 L133.58244,5.263 L132.36964,5.29 L131.16394,5.316 L129.95824,5.343 L128.74474,5.369 L127.53624,5.409 L126.33574,5.448 L125.13524,5.487 L123.92674,5.526 L122.72464,5.578 L121.53054,5.63 L120.33644,5.681 L119.13504,5.733 L117.94044,5.797 L116.75334,5.86 L115.56614,5.923 L114.37074,5.986 L113.18404,6.062 L112.00554,6.138 L110.82714,6.213 L109.64034,6.289 L108.46344,6.378 L107.29504,6.466 L106.12664,6.554 L104.95044,6.643 L103.78434,6.744 L102.62604,6.843 L101.46774,6.943 L100.30074,7.043 L99.14604,7.157 L97.99994,7.269 L96.85394,7.381 L95.69904,7.494 L94.55764,7.62 L93.42524,7.745 L92.29274,7.87 L91.15204,7.996 L90.02464,8.133 L88.90554,8.27 L87.78644,8.406 L86.65804,8.543 L85.54534,8.694 L84.44214,8.843 L83.33894,8.992 L82.22604,9.142 L81.13014,9.305 L80.04414,9.467 L78.95804,9.628 L77.86294,9.792 L76.78424,9.966 L75.71484,10.14 L74.64544,10.313 L73.56564,10.488 L72.50514,10.676 L71.45524,10.862 L70.40524,11.048 L69.34443,11.236 L68.30419,11.437 L67.27494,11.636 L66.24567,11.834 L65.20877,12.034 L64.18656,12.243 L63.16631,12.452 L62.15721,12.667 L61.14804,12.882 L60.15035,13.103 L59.15313,13.324 L58.1666,13.552 L57.17736,13.779 L55.22908,14.246 L53.30385,14.726 L51.40142,15.218 L49.52404,15.723 L47.67356,16.241 L45.84745,16.771 L44.04806,17.314 L42.27735,17.869 L40.5326,18.437 L38.81621,19.018 L37.1303,19.612 L35.47188,20.218 L33.8435,20.837 L32.24737,21.47 L30.68029,22.114 L29.14488,22.772 L27.64351,23.444 L26.17275,24.127 L24.73527,24.825 L23.33365,25.535 L21.96419,26.258 L20.62963,26.996 L19.33276,27.747 L18.06962,28.51 L16.84303,29.288 L15.65598,30.08 L14.50429,30.885 L13.39084,31.705 L12.31887,32.538 L11.28394,33.386 L10.28905,34.249 L9.33769,35.125 L8.42519,36.016 L7.55474,36.923 L6.72999,37.844 L5.94613,38.78 L5.20658,39.733 L4.5151,40.699 L3.86678,41.68 L3.26538,42.679 L2.71455,43.692 L2.20936,44.719 L1.75399,45.764 L1.35169,46.822 L0.99753,47.893 L0.69617,48.982 L0.4501,50.083 L0.25442,51.196 L0.11426,52.326 L0.03106,53.466 L0,54.617 L0.02662,55.784 L0.11129,56.959 L0.24931,58.145 L0.44661,59.344 L0.70233,60.55 L1.03593,61.881 L1.41586,63.198 L1.8407,64.497 L2.30647,65.781 L2.81742,67.052 L3.37142,68.305 L3.9648,69.544 L4.60177,70.769 L5.27994,71.976 L5.99591,73.168 L6.75384,74.347 L7.55117,75.507 L8.3846,76.654 L9.25821,77.785 L10.16952,78.9 L11.11556,80 L12.10032,81.086 L13.12117,82.155 L14.1753,83.209 L15.26658,84.249 L16.39242,85.272 L17.55016,86.282 L18.74349,87.276 L19.96995,88.255 L21.22695,89.219 L22.51805,90.169 L23.84088,91.103 L25.19294,92.024 L26.57763,92.93 L27.99269,93.82 L29.43571,94.697 L30.90989,95.559 L32.41302,96.406 L33.94287,97.24 L35.50245,98.059 L37.08976,98.863 L38.70251,99.654 L40.34359,100.43 L42.01105,101.192 L43.70273,101.94 L45.42132,102.674 L47.16498,103.393 L48.93163,104.099 L50.72376,104.791 L52.53965,105.468 L54.37729,106.133 L56.23901,106.782 L58.12313,107.418 L60.02562,108.04 L60.99124,108.345 L61.95478,108.65 L62.92923,108.947 L63.90308,109.244 L64.88665,109.535 L65.87065,109.826 L66.86512,110.11 L67.85951,110.393 L68.86412,110.67 L69.86815,110.946 L70.88124,111.217 L71.89484,111.487 L72.91814,111.75 L73.94144,112.013 L74.97414,112.269 L76.00644,112.525 L77.04714,112.774 L78.08824,113.024 L79.13844,113.267 L80.18854,113.509 L81.24754,113.745 L82.30814,113.98 L83.38034,114.207 L84.44614,114.432 L85.51194,114.657 L86.58704,114.884 L87.67844,115.096 L88.76054,115.308 L89.84274,115.519 L90.93384,115.731 L92.04034,115.93 L93.13784,116.127 L94.23544,116.324 L95.34094,116.523 L96.45944,116.709 L97.57024,116.893 L98.68094,117.078 L99.80014,117.264 L100.93284,117.436 L102.05714,117.607 L103.18154,117.777 L104.31404,117.949 L105.45914,118.107 L106.59604,118.264 L107.73304,118.421 L108.87724,118.579 L110.03204,118.724 L111.17964,118.868 L112.32724,119.012 L113.48264,119.158 L114.64874,119.289 L115.80714,119.42 L116.96564,119.55 L118.13154,119.682 L119.30734,119.8 L120.47554,119.917 L121.64384,120.034 L122.81874,120.151 L124.00184,120.256 L125.17824,120.361 L126.35464,120.465 L127.53824,120.571 L128.72984,120.662 L129.91424,120.753 L131.09874,120.843 L132.29024,120.935 L133.48874,121.012 L134.68024,121.089 L135.87174,121.166 L137.06954,121.244 L138.27294,121.309 L139.47004,121.373 L140.66704,121.438 L141.87104,121.503 L143.08024,121.554 L144.28264,121.605 L145.48494,121.656 L146.69404,121.708 L147.90744,121.746 L149.11404,121.783 L150.32064,121.821 L151.53334,121.859 L152.74914,121.884 L153.95874,121.909 L155.16844,121.934 L156.38474,121.96 L157.60364,121.972 L158.81574,121.983 L160.02784,121.995 L161.24674,122.006 L162.46694,122.006 L163.68064,122.003 L164.89424,122.001 L166.11384,121.999 L167.33404,121.984 L168.54824,121.97 L169.76234,121.956 L170.98314,121.942 L172.20364,121.914 L173.41754,121.886 L174.63144,121.858 L175.85194,121.83 L177.07104,121.788 L178.28364,121.747 L179.49624,121.706 L180.71484,121.664 L181.93144,121.611 L183.14204,121.557 L184.35254,121.503 L185.56974,121.449 L186.78394,121.382 L187.99144,121.315 L189.19894,121.248 L190.41314,121.181 L191.62324,121.1 L192.82664,121.019 L194.03014,120.939 L195.23964,120.858 L196.44464,120.765 L197.64354,120.672 L198.84244,120.579 L200.04814,120.486 L201.24804,120.379 L202.44104,120.273 L203.63414,120.167 L204.83404,120.061 L206.02704,119.94 L207.21324,119.821 L208.39944,119.702 L209.59194,119.581 L210.77734,119.449 L211.95654,119.318 L213.13564,119.186 L214.32184,119.053 L215.49934,118.908 L216.66984,118.763 L217.84034,118.618 L219.01804,118.472 L220.18604,118.313 L221.34694,118.154 L222.50774,117.996 L223.67524,117.837 L224.83314,117.666 L225.98444,117.495 L227.13564,117.325 L228.29434,117.153 L229.44174,116.969 L230.58154,116.785 L231.72134,116.601 L232.86884,116.417 L234.00384,116.218 L235.13124,116.021 L236.25864,115.824 L237.39314,115.626 L238.51554,115.416 L239.63074,115.207 L240.74604,114.998 L241.86934,114.787 L242.97844,114.563 L244.07954,114.341 L245.18054,114.119 L246.28984,113.895 L247.38404,113.658 L248.46984,113.423 L249.55574,113.187 L250.64924,112.95 L251.72824,112.701 L252.79944,112.454 L253.87064,112.206 L254.95054,111.957 L256.01354,111.694 L257.06774,111.434 L258.12194,111.173 L259.18524,110.91 L260.23054,110.634 L261.26674,110.361 L262.30294,110.087 L263.34744,109.811 L264.37494,109.522 L265.39394,109.236 L266.41284,108.951 L267.44134,108.662 L268.45024,108.36 L269.44944,108.061 L270.44854,107.762 L271.45774,107.46 L272.44614,107.145 L273.42454,106.833 L274.40294,106.521 L275.38834,106.206 L276.35914,105.883 L277.32804,105.56 L278.28604,105.231 L279.24584,104.901 L281.13714,104.23 L283.00944,103.547 L284.85894,102.85 L286.68414,102.14 L288.48734,101.418 L290.26634,100.683 L292.01944,99.934 L293.74934,99.173 L295.45364,98.398 L297.13094,97.611 L298.78374,96.811 L300.40974,95.999 L302.00714,95.173 L303.57884,94.335 L305.12234,93.483 L306.63594,92.619 L308.12254,91.742 L309.57974,90.852 L311.00544,89.949 L312.40294,89.034 L313.76964,88.105 L315.10344,87.163 L316.40764,86.209 L317.67944,85.24 L318.91704,84.258 L320.12374,83.265 L321.29684,82.257 L322.43424,81.236 L323.53944,80.203 L324.60964,79.156 L325.64254,78.095 L326.64184,77.022 L327.60464,75.935 L328.52874,74.835 L329.41774,73.722 L330.26874,72.595 L331.07934,71.455 L331.85344,70.302 L332.58784,69.135 L333.28024,67.955 L333.93484,66.762 L334.54784,65.555 L335.11724,64.335 L335.64744,63.103 L336.13424,61.856 L336.57604,60.597 L336.91054,59.525 L337.19264,58.464 L337.42204,57.416 L337.60454,56.38 L337.73664,55.353 L337.81844,54.341 L337.85544,53.341 L337.84414,52.351 L337.78544,51.377 L337.68434,50.415 L337.53724,49.465 L337.34614,48.531 L337.11544,47.609 L336.84174,46.7 L336.52754,45.808 L336.17684,44.929 L335.78634,44.062 L335.35894,43.212 L334.89824,42.376 L334.40114,41.552 L333.87064,40.744 L333.30994,39.949 L332.71594,39.168 L332.09194,38.401 L331.44054,37.647 L330.75914,36.906 L330.05064,36.179 L329.31784,35.464 L328.55794,34.761 L327.77384,34.071 L326.96784,33.393 L326.13764,32.727 L325.28594,32.074 L324.41484,31.433 L323.52234,30.802 L322.60764,30.182 L321.67534,29.582 L320.73884,28.98 L319.76754,28.4 L318.79734,27.821 L317.79634,27.263 L316.79734,26.707 L315.77354,26.17 L314.74944,25.633 L313.70144,25.116 L312.65444,24.601 L311.58764,24.106 L310.52244,23.611 L309.44244,23.135 L308.36224,22.659 L307.26934,22.202 L306.17704,21.746 L305.07604,21.309 L303.97644,20.873 L302.87214,20.454 L301.76764,20.035 L300.66144,19.634 L299.55584,19.234 L298.45254,18.852 L297.35024,18.47 L296.25324,18.105 L295.15624,17.74 L294.06844,17.392 L292.98114,17.044 L291.90724,16.714 L290.83424,16.384 L289.77644,16.07 L288.71874,15.755 L287.68134,15.458 L286.64444,15.16 L285.63194,14.878 L284.62014,14.597 L283.63374,14.33 L282.64634,14.063 L280.73814,13.562 L278.90084,13.091 L277.13534,12.647 L275.45564,12.232 L273.87074,11.847 L273.11164,11.663 L272.37934,11.487 L271.67434,11.318 L270.99494,11.155 L270.34474,10.998 L269.72474,10.849 L269.13304,10.705 L268.57364,10.568 L268.04744,10.438 L267.55244,10.313 L267.09314,10.195 L266.66414,10.082 L265.56064,9.795 L264.45834,9.509 L263.35594,9.223 L262.24564,8.934 L261.12784,8.663 L260.01804,8.394 L258.90824,8.125 L257.79054,7.854 L256.66574,7.6 L255.54894,7.348 L254.43214,7.096 L253.30814,6.843 L252.17814,6.605 L251.05534,6.369 L249.93244,6.132 L248.80174,5.895 L247.66464,5.674 L246.53524,5.457 L245.40594,5.241 L244.26854,5.022 L243.12544,4.821 L241.99024,4.622 L240.85504,4.423 L239.71274,4.222 L238.56554,4.037 L237.42544,3.854 L236.28524,3.671 L235.13734,3.486 L233.98444,3.319 L232.83924,3.154 L231.69414,2.988 L230.54124,2.821 L229.38374,2.673 L228.23394,2.525 L227.08424,2.377 L225.92754,2.228 L224.76694,2.096 L223.61334,1.965 L222.45974,1.833 L221.29844,1.701 L220.13344,1.587 L218.97594,1.473 L217.81854,1.36 L216.65354,1.245 L215.48514,1.149 L214.32424,1.053 L213.16334,0.957 L211.99574,0.861 L210.82524,0.781 L209.66154,0.702 L208.49794,0.623 L207.32684,0.544 L206.15304,0.482 L204.98674,0.422 L203.82044,0.361 L202.64664,0.3 L201.47064,0.257 L200.30204,0.215 L199.13344,0.172 L197.95814,0.13 L196.78114,0.104 L195.61084,0.079 L194.44064,0.053 L193.26294,0.028 L192.08374,0.021 L190.91204,0.014 L189.74024,0.007 L188.56114,0 L187.38084,0.01 L186.20804,0.021 L185.03514,0.032 L183.85564,0.042 L182.67544,0.07 L181.50194,0.098 L180.32844,0.126 L179.14754,0.154 L177.96624,0.201 L176.79244,0.248 L175.61864,0.294 L174.43734,0.341 L173.25624,0.408 L172.08244,0.473 L170.90874,0.539 L169.72824,0.605 L168.54814,0.689 L167.37484,0.772 L166.20154,0.855 L165.02074,0.939 L163.84084,1.042 L162.66834,1.145 L161.49584,1.247 L160.31594,1.35 L159.13724,1.473 L157.96594,1.594 L156.79474,1.715 L155.61664,1.837 L154.44004,1.977 L153.27024,2.116 L152.10054,2.255 L150.92324,2.395 L149.74794,2.555 L148.58014,2.713 L147.41244,2.872 L146.23714,3.031 L145.06424,3.211 L143.89894,3.389 L142.73364,3.567 L141.56144,3.746 L140.39174,3.944 L139.22904,4.14 L138.06634,4.336 L136.89584,4.534 L135.72864,4.751 L134.56914,4.967 L133.40964,5.183 L132.24244,5.401 L131.07874,5.638 L129.92284,5.874 L128.76694,6.11 L127.60384,6.347 L126.44454,6.603 L125.29214,6.857 L124.13984,7.111 L122.97974,7.366 L121.82394,7.642 L120.67604,7.916 L119.52814,8.19 L118.37224,8.466 L117.22124,8.763 L116.07814,9.057 L114.93504,9.352 L113.78464,9.648 L112.63904,9.963 L111.50064,10.276 L110.36224,10.589 L109.21574,10.904 L108.07494,11.24 L106.94214,11.573 L105.80924,11.906 L104.66834,12.242 L103.53344,12.599 L102.40654,12.953 L101.27964,13.307 L100.14544,13.663 L99.01694,14.038 L97.89584,14.41 L96.77464,14.783 L95.64544,15.158 L94.52284,15.555 L93.40844,15.948 L92.29414,16.341 L91.17154,16.738 L90.05614,17.155 L88.94884,17.569 L87.84164,17.984 L86.72694,18.401 L85.61914,18.837 L84.51874,19.27 L83.41834,19.704 L82.30974,20.14 L81.20904,20.598 L80.11654,21.053 L79.02414,21.507 L77.92334,21.965 L76.83094,22.444 L75.74684,22.92 L74.66284,23.396 L73.57104,23.875 L72.48734,24.373 L71.41114,24.868 L70.33503,25.363 L69.25047,25.862 L68.17505,26.382 L67.108,26.899 L66.04095,27.415 L64.96545,27.935 L63.89953,28.477 L62.84201,29.015 L61.7845,29.553 L60.72122,30.094 L59.66467,30.65 L58.60964,31.204 L57.55967,31.77 L56.50968,32.336 L55.46485,32.912 L54.42041,33.489 L53.38074,34.075 L52.34068,34.662 L51.30597,35.259 L50.27125,35.856 L49.24199,36.465 L48.21696,37.071 C47.7607,37.341 47.60974,37.93 47.87979,38.386 C48.14983,38.842 48.73863,38.993 49.1949,38.723 L50.21927,38.116 L51.23943,37.512 L52.26503,36.918 L53.29065,36.324 L54.32161,35.741 L55.35297,35.158 L56.3891,34.585 L57.42486,34.012 L58.46578,33.45 L59.50671,32.888 L60.55268,32.336 L61.59716,31.785 L62.64833,31.249 L63.70527,30.71 L64.76221,30.171 L65.81076,29.637 L66.8688,29.123 L67.9353,28.606 L69.0018,28.088 L70.05992,27.575 L71.12714,27.083 L72.20274,26.586 L73.27834,26.09 L74.34644,25.598 L75.42234,25.124 L76.50594,24.647 L77.58954,24.171 L78.66474,23.698 L79.74834,23.246 L80.84034,22.79 L81.93224,22.334 L83.01594,21.882 L84.10754,21.451 L85.20744,21.016 L86.30734,20.582 L87.39974,20.15 L88.49904,19.738 L89.60584,19.322 L90.71254,18.907 L91.81114,18.494 L92.91694,18.103 L94.03084,17.708 L95.14484,17.313 L96.25064,16.922 L97.36324,16.551 L98.48394,16.177 L99.60464,15.803 L100.71804,15.432 L101.83724,15.079 L102.96374,14.724 L104.09034,14.369 L105.20884,14.017 L106.33334,13.685 L107.46594,13.35 L108.59854,13.016 L109.72314,12.684 L110.85334,12.373 L111.99144,12.059 L113.12964,11.745 L114.26054,11.433 L115.39624,11.14 L116.53914,10.844 L117.68204,10.549 L118.81704,10.256 L119.95684,9.982 L121.10454,9.707 L122.25224,9.432 L123.39214,9.159 L124.53634,8.906 L125.68844,8.651 L126.84054,8.396 L127.98564,8.143 L129.13424,7.908 L130.29004,7.671 L131.44584,7.435 L132.59394,7.2 L133.74564,6.985 L134.90504,6.769 L136.06454,6.552 L137.21634,6.337 L138.37124,6.142 L139.53394,5.946 L140.69654,5.749 L141.85234,5.554 L143.01054,5.376 L144.17584,5.198 L145.34104,5.019 L146.49864,4.842 L147.65874,4.684 L148.82644,4.525 L149.99414,4.366 L151.15424,4.208 L152.31644,4.07 L153.48614,3.931 L154.65584,3.791 L155.81874,3.653 L156.98314,3.532 L158.15434,3.41 L159.32554,3.289 L160.48924,3.168 L161.65434,3.067 L162.82684,2.965 L163.99934,2.863 L165.16444,2.762 L166.33034,2.68 L167.50374,2.598 L168.67704,2.515 L169.84374,2.433 L171.01074,2.369 L172.18444,2.304 L173.35824,2.239 L174.52464,2.174 L175.69104,2.128 L176.86494,2.082 L178.03884,2.036 L179.20524,1.99 L180.37134,1.963 L181.54484,1.936 L182.71844,1.909 L183.88524,1.882 L185.05134,1.872 L186.22424,1.863 L187.39704,1.853 L188.56254,1.843 L189.72694,1.852 L190.89864,1.862 L192.07044,1.872 L193.23474,1.882 L194.39754,1.911 L195.56774,1.94 L196.73794,1.969 L197.90144,1.997 L199.06314,2.043 L200.23154,2.088 L201.39994,2.134 L202.56094,2.179 L203.71964,2.243 L204.88584,2.307 L206.05194,2.371 L207.21064,2.435 L208.36654,2.517 L209.52994,2.599 L210.69334,2.681 L211.84994,2.763 L213.00364,2.862 L214.16424,2.961 L215.32484,3.06 L216.47784,3.158 L217.62744,3.274 L218.78454,3.392 L219.94154,3.509 L221.09104,3.626 L222.23654,3.761 L223.38964,3.897 L224.54274,4.032 L225.68894,4.167 L226.83124,4.318 L227.98044,4.47 L229.12964,4.622 L230.27114,4.773 L231.40804,4.941 L232.55254,5.111 L233.69714,5.281 L234.83384,5.45 L235.96554,5.636 L237.10504,5.823 L238.24444,6.011 L239.37674,6.197 L240.50414,6.399 L241.63864,6.603 L242.77304,6.807 L243.89964,7.009 L245.02034,7.228 L246.14894,7.449 L247.27754,7.67 L248.39854,7.888 L249.51324,8.123 L250.63604,8.36 L251.75874,8.596 L252.87414,8.832 L253.98364,9.082 L255.10034,9.335 L256.21694,9.587 L257.32564,9.838 L258.42734,10.106 L259.53704,10.375 L260.64664,10.645 L261.74834,10.913 L262.84254,11.197 L263.94484,11.484 L265.04704,11.771 L266.14824,12.058 L266.57834,12.171 L267.04884,12.292 L267.55194,12.419 L268.08444,12.552 L268.64874,12.69 L269.24354,12.835 L269.86564,12.985 L270.51694,13.142 L271.19644,13.306 L271.90084,13.475 L272.63184,13.651 L273.38774,13.834 L274.96804,14.22 L276.63974,14.633 L278.39574,15.076 L280.22184,15.546 L282.11904,16.047 L283.09714,16.312 L284.07624,16.578 L285.08084,16.858 L286.08474,17.137 L287.11304,17.434 L288.14084,17.73 L289.18914,18.042 L290.23734,18.355 L291.30104,18.683 L292.36374,19.011 L293.43994,19.356 L294.51554,19.7 L295.60054,20.063 L296.68554,20.425 L297.77594,20.803 L298.86514,21.182 L299.95674,21.578 L301.04774,21.974 L302.13694,22.388 L303.22634,22.803 L304.31094,23.235 L305.39404,23.666 L306.46844,24.116 L307.54204,24.566 L308.60284,25.036 L309.66384,25.505 L310.71004,25.993 L311.75454,26.479 L312.77914,26.986 L313.80284,27.492 L314.80254,28.018 L315.80264,28.544 L316.77774,29.089 L317.75084,29.633 L318.69294,30.197 L319.63394,30.761 L320.53994,31.345 L321.45004,31.932 L322.32604,32.528 L323.18414,33.136 L324.02134,33.755 L324.83794,34.383 L325.63034,35.02 L326.39904,35.668 L327.14474,36.326 L327.86344,36.992 L328.55584,37.67 L329.22254,38.357 L329.85944,39.053 L330.46764,39.761 L331.04804,40.477 L331.59624,41.202 L332.11334,41.938 L332.60044,42.684 L333.05314,43.437 L333.47234,44.203 L333.85974,44.978 L334.21064,45.761 L334.52584,46.557 L334.80734,47.362 L335.05044,48.176 L335.25564,49.003 L335.42514,49.842 L335.55434,50.689 L335.64294,51.552 L335.69374,52.426 L335.70184,53.311 L335.66634,54.212 L335.59034,55.125 L335.46914,56.051 L335.30074,56.994 L335.08894,57.951 L334.82884,58.921 L334.51794,59.909 L334.09744,61.098 L333.63514,62.275 L333.13014,63.441 L332.58714,64.597 L332.00344,65.739 L331.37814,66.872 L330.71594,67.994 L330.01424,69.103 L329.27194,70.202 L328.49384,71.291 L327.67744,72.367 L326.82154,73.433 L325.93084,74.488 L325.00314,75.53 L324.03714,76.562 L323.03744,77.583 L322.00204,78.592 L320.92954,79.589 L319.82454,80.576 L318.68504,81.55 L317.50994,82.513 L316.30344,83.465 L315.06374,84.404 L313.78994,85.332 L312.48614,86.249 L311.15044,87.153 L309.78194,88.046 L308.38454,88.927 L306.95664,89.796 L305.49724,90.652 L304.01034,91.498 L302.49414,92.33 L300.94804,93.151 L299.37564,93.96 L297.77544,94.756 L296.14654,95.54 L294.49284,96.312 L292.81254,97.072 L291.10524,97.819 L289.37414,98.555 L287.61814,99.278 L285.83664,99.989 L284.03264,100.688 L282.20494,101.374 L280.35304,102.048 L278.47814,102.71 L277.53234,103.034 L276.58454,103.359 L275.62574,103.677 L274.66874,103.994 L273.69694,104.303 L272.71824,104.614 L271.73944,104.924 L270.77074,105.232 L269.78124,105.527 L268.78164,105.825 L267.78214,106.122 L266.79234,106.417 L265.78264,106.699 L264.76334,106.984 L263.74404,107.269 L262.73324,107.551 L261.70524,107.822 L260.66884,108.095 L259.63254,108.368 L258.60524,108.639 L257.55984,108.896 L256.50554,109.156 L255.45124,109.416 L254.40564,109.674 L253.34304,109.919 L252.27174,110.166 L251.20034,110.413 L250.13684,110.658 L249.05854,110.891 L247.97254,111.126 L246.88664,111.361 L245.80894,111.594 L244.71594,111.814 L243.61484,112.036 L242.51364,112.258 L241.42054,112.478 L240.31314,112.685 L239.19784,112.893 L238.08244,113.102 L236.97424,113.309 L235.85384,113.504 L234.72634,113.701 L233.59884,113.897 L232.47904,114.092 L231.34674,114.274 L230.20694,114.458 L229.06704,114.641 L227.93464,114.823 L226.79074,114.992 L225.63944,115.162 L224.48814,115.332 L223.34354,115.501 L222.18934,115.658 L221.02844,115.816 L219.86754,115.974 L218.71384,116.131 L217.55054,116.275 L216.38004,116.419 L215.20944,116.564 L214.04604,116.708 L212.87394,116.838 L211.69474,116.969 L210.51564,117.101 L209.34274,117.231 L208.16294,117.35 L206.97674,117.469 L205.79044,117.588 L204.61114,117.706 L203.42494,117.812 L202.23184,117.917 L201.03884,118.023 L199.85254,118.128 L198.66044,118.22 L197.46144,118.312 L196.26254,118.405 L195.06974,118.496 L193.87244,118.576 L192.66904,118.656 L191.46554,118.736 L190.26884,118.816 L189.06794,118.882 L187.86044,118.949 L186.65294,119.016 L185.45204,119.082 L184.24814,119.135 L183.03754,119.188 L181.82694,119.241 L180.62234,119.294 L179.41584,119.335 L178.20324,119.376 L176.99064,119.417 L175.78464,119.458 L174.57744,119.485 L173.36354,119.513 L172.14964,119.54 L170.94234,119.567 L169.73484,119.581 L168.52064,119.595 L167.30654,119.609 L166.09834,119.623 L164.89074,119.624 L163.67714,119.626 L162.46354,119.628 L161.25654,119.629 L160.05104,119.617 L158.83894,119.605 L157.62674,119.593 L156.42134,119.581 L155.21834,119.556 L154.00874,119.53 L152.79904,119.505 L151.59554,119.479 L150.39514,119.442 L149.18854,119.404 L147.98194,119.366 L146.78214,119.328 L145.58674,119.277 L144.38434,119.225 L143.18214,119.173 L141.98664,119.121 L140.79654,119.056 L139.59954,118.991 L138.40254,118.925 L137.21184,118.86 L136.02684,118.782 L134.83544,118.705 L133.64404,118.627 L132.45964,118.549 L131.28244,118.458 L130.09804,118.366 L128.91374,118.275 L127.73654,118.184 L126.56754,118.079 L125.39124,117.973 L124.21494,117.868 L123.04524,117.763 L121.88384,117.646 L120.71564,117.528 L119.54754,117.41 L118.38684,117.293 L117.23604,117.162 L116.07774,117.031 L114.91944,116.899 L113.76884,116.768 L112.62914,116.623 L111.48164,116.477 L110.33424,116.332 L109.19394,116.187 L108.06434,116.03 L106.92764,115.872 L105.79084,115.713 L104.66214,115.556 L103.54614,115.385 L102.42194,115.213 L101.29784,115.041 L100.18194,114.871 L99.07984,114.686 L97.96934,114.5 L96.85884,114.314 L95.75604,114.13 L94.66664,113.933 L93.56934,113.734 L92.47194,113.536 L91.38354,113.339 L90.31054,113.128 L89.22854,112.916 L88.14664,112.703 L87.07394,112.493 L86.01764,112.268 L84.95214,112.042 L83.88664,111.816 L82.82764,111.591 L81.78034,111.356 L80.73134,111.122 L79.69134,110.88 L78.65134,110.638 L77.62054,110.39 L76.58934,110.141 L75.56654,109.886 L74.54444,109.631 L73.53184,109.37 L72.51934,109.108 L71.51664,108.839 L70.51364,108.57 L69.51973,108.295 L68.52639,108.02 L67.54335,107.738 L66.5604,107.457 L65.58799,107.168 L64.61515,106.879 L63.65211,106.584 L62.68967,106.289 L61.73822,105.987 L60.78887,105.685 L58.90622,105.067 L57.04676,104.436 L55.2115,103.791 L53.39977,103.132 L51.61038,102.461 L49.84661,101.777 L48.10775,101.078 L46.39251,100.366 L44.70437,99.642 L43.04251,98.903 L41.40557,98.151 L39.79718,97.387 L38.21643,96.608 L36.66191,95.817 L35.13739,95.012 L33.64189,94.193 L32.17387,93.362 L30.73741,92.518 L29.33132,91.66 L27.954,90.789 L26.6096,89.906 L25.29689,89.008 L24.01421,88.098 L22.76587,87.175 L21.55053,86.239 L20.36643,85.29 L19.21807,84.329 L18.10398,83.353 L17.02233,82.366 L15.97776,81.366 L14.96869,80.353 L13.99319,79.327 L13.05603,78.29 L12.15559,77.238 L11.28979,76.174 L10.4635,75.099 L9.67527,74.01 L8.92284,72.908 L8.211,71.795 L7.5382,70.668 L6.90204,69.529 L6.30746,68.378 L5.75307,67.213 L5.23627,66.035 L4.76197,64.846 L4.32908,63.642 L3.93474,62.426 L3.58384,61.198 L3.27595,59.956 L3.04604,58.858 L2.8716,57.779 L2.75048,56.713 L2.67733,55.661 L2.65646,54.626 L2.68693,53.602 L2.76335,52.59 L2.88956,51.594 L3.06572,50.608 L3.28632,49.633 L3.55482,48.673 L3.87241,47.721 L4.23346,46.779 L4.64105,45.85 L5.09715,44.929 L5.59597,44.018 L6.14027,43.119 L6.73241,42.229 L7.36649,41.347 L8.045,40.478 L8.77039,39.617 L9.53674,38.766 L10.34631,37.926 L11.20147,37.096 L12.09637,36.276 L13.03312,35.467 L14.01387,34.669 L15.03295,33.881 L16.09234,33.105 L17.19398,32.34 L18.33239,31.585 L19.50949,30.842 L20.72695,30.111 L21.97956,29.39 L23.26916,28.682 L24.59719,27.985 L25.95871,27.299 L27.35546,26.626 L28.7887,25.965 L30.25376,25.314 L31.75227,24.676 L33.28534,24.051 L34.84852,23.436 L36.4434,22.834 L38.07089,22.245 L39.7268,21.666 L41.41262,21.1 L43.12915,20.547 L44.87241,20.005 L46.64379,19.476 L48.44397,18.959 L50.26921,18.453 L52.1208,17.96 L53.99929,17.48 L55.90116,17.011 L57.82966,16.554 L58.803,16.333 L59.77906,16.111 L60.76588,15.895 L61.75224,15.678 L62.75017,15.469 L63.7482,15.259 L64.75746,15.055 L65.76476,14.852 L66.78691,14.658 L67.81669,14.462 L68.84648,14.266 L69.86529,14.072 L70.90494,13.891 L71.95544,13.707 L73.00594,13.524 L74.04584,13.343 L75.10534,13.174 L76.17524,13.003 L77.24504,12.833 L78.30574,12.664 L79.38304,12.506 L80.46944,12.347 L81.55584,12.188 L82.63244,12.03 L83.72634,11.884 L84.82994,11.738 L85.93344,11.591 L87.02754,11.446 L88.13754,11.313 L89.25684,11.179 L90.37624,11.046 L91.48724,10.913 L92.61164,10.791 L93.74434,10.669 L94.87714,10.547 L96.00084,10.425 L97.13824,10.316 L98.28454,10.207 L99.43084,10.097 L100.56834,9.988 L101.71824,9.892 L102.87674,9.794 L104.03524,9.697 L105.18604,9.601 L106.34694,9.516 L107.51564,9.43 L108.68424,9.345 L109.84444,9.259 L111.01474,9.187 L112.19334,9.114 L113.37204,9.04 L114.54234,8.968 L115.72154,8.907 L116.90884,8.847 L118.09614,8.786 L119.27604,8.726 L120.46284,8.677 L121.65704,8.628 L122.85124,8.579 L124.03744,8.53 L125.23004,8.494 L126.43064,8.457 L127.63124,8.42 L128.82384,8.384 L130.02164,8.36 L131.22734,8.336 L132.43314,8.312 L133.63164,8.288 L134.83384,8.275 L136.04314,8.262 L137.25254,8.25 L138.45404,8.237 L139.65834,8.236 L140.87054,8.236 L142.08274,8.235 L143.28714,8.235 L144.49304,8.247 L145.70684,8.259 L146.92054,8.271 L148.12724,8.282 L149.33424,8.306 L150.54834,8.329 L151.76254,8.352 L152.96884,8.375 L154.17434,8.411 L155.38784,8.447 L156.60124,8.482 L157.80674,8.518 L159.01034,8.566 L160.22174,8.614 L161.43314,8.662 L162.63734,8.71 L163.83864,8.769 L165.04724,8.829 L166.25574,8.888 L167.45634,8.947 L168.65254,9.018 L169.85684,9.09 L171.06114,9.161 L172.25734,9.232 L173.44794,9.316 L174.64664,9.4 L175.84534,9.484 L177.03664,9.567 L178.22174,9.662 L179.41434,9.757 L180.60704,9.852 L181.79124,9.947 L182.96764,10.054 L184.15244,10.161 L185.33714,10.269 L186.51344,10.376 L187.68054,10.495 L188.85614,10.615 L190.03174,10.735 L191.19944,10.854 L192.35784,10.984 L193.52414,11.115 L194.69044,11.247 L195.84774,11.377 L196.99364,11.519 L198.14854,11.663 L199.30344,11.806 L200.44914,11.949 L201.58204,12.103 L202.72424,12.259 L203.86644,12.415 L205.00004,12.569 L206.12094,12.735 L207.25054,12.902 L208.38014,13.069 L209.50004,13.235 L210.60484,13.413 L211.71944,13.592 L212.83404,13.771 L213.93854,13.949 L215.02674,14.139 L216.12504,14.33 L217.22334,14.522 L218.31464,14.712 L219.39404,14.911 L220.47524,15.11 L221.54754,15.315 L222.61964,15.52 L223.68244,15.731 L224.74564,15.942 L225.80024,16.159 L226.85414,16.375 L227.89814,16.597 L228.94204,16.82 L229.97574,17.048 L231.00994,17.277 L232.03454,17.511 L233.05844,17.744 L234.07154,17.984 L235.08464,18.224 L236.08644,18.47 L237.08884,18.716 L238.08084,18.968 L239.07214,19.219 L240.05164,19.476 L241.03114,19.734 L241.99854,19.997 L242.96644,20.261 L243.92314,20.53 L244.87674,20.798 L246.76564,21.348 L248.62674,21.909 L250.46344,22.482 L252.27224,23.066 L254.05374,23.662 L255.80914,24.269 L257.53474,24.887 L259.23134,25.517 L260.90014,26.158 L262.53714,26.81 L264.14334,27.474 L265.72014,28.148 L267.26314,28.834 L268.77354,29.532 L270.25284,30.239 L271.69644,30.958 L273.10574,31.689 L274.48214,32.429 L275.82094,33.18 L277.12364,33.943 L278.39184,34.715 L279.62044,35.498 L280.81114,36.292 L281.96574,37.096 L283.07874,37.909 L284.15234,38.734 L285.18824,39.568 L286.18074,40.41 L287.13224,41.264 L288.04464,42.126 L288.91194,42.997 L289.73684,43.878 L290.52124,44.768 L291.25924,45.665 L291.95364,46.573 L292.60644,47.489 L293.21174,48.411 L293.77224,49.345 L294.29044,50.286 L294.76034,51.234 L295.18454,52.193 L295.56584,53.16 L295.89834,54.134 L296.18394,55.12 L296.42584,56.115 L296.61794,57.118 L296.76114,58.134 L296.85954,59.161 L296.90764,60.196 L296.90514,61.247 L296.85614,62.309 L296.75514,63.381 L296.59924,64.48 L296.44864,65.34 L296.27664,66.191 L296.08434,67.029 L295.87434,67.852 L295.64574,68.658 L295.40384,69.433 L294.85194,70.996 L294.23614,72.48 L293.55034,73.91 L292.80434,75.292 L291.99624,76.618 L291.12454,77.896 L290.19894,79.129 L289.21844,80.312 L288.18084,81.45 L287.09554,82.547 L285.96214,83.598 L284.77894,84.607 L283.55464,85.578 L282.28984,86.506 L280.98294,87.395 L279.64204,88.249 L278.26834,89.064 L276.86084,89.842 L275.42664,90.587 L273.96774,91.296 L272.48364,91.972 L270.98054,92.618 L269.46084,93.23 L267.92474,93.813 L266.37734,94.368 L264.82164,94.894 L263.25824,95.392 L261.69164,95.868 L260.12504,96.317 L258.55944,96.742 L256.99814,97.147 L255.44524,97.529 L253.90194,97.891 L252.37064,98.234 L250.85604,98.559 L249.35974,98.867 L247.88304,99.16 L246.43114,99.438 L245.00614,99.702 L243.60824,99.956 L242.24324,100.197 L240.91354,100.429 L239.61834,100.653 L238.36364,100.869 L237.15614,101.079 L236.17064,101.247 L235.18304,101.416 L234.19534,101.585 L233.21414,101.753 L232.23164,101.913 L231.24284,102.074 L230.25394,102.236 L229.27214,102.396 L228.28924,102.548 L227.29924,102.701 L226.30924,102.854 L225.32614,103.006 L224.34204,103.15 L223.35114,103.295 L222.36024,103.439 L221.37734,103.583 L220.39354,103.717 L219.40164,103.852 L218.40974,103.987 L217.42654,104.121 L216.44234,104.245 L215.44954,104.37 L214.45674,104.494 L213.47234,104.618 L212.48714,104.732 L211.49354,104.847 L210.49994,104.961 L209.51944,105.075 L207.53724,105.28 L205.55904,105.485 L203.57944,105.666 L201.59934,105.847 L199.61814,106.004 L197.63854,106.162 L195.65784,106.292 L193.67774,106.422 L191.69664,106.523 L189.71084,106.625 L188.63474,106.666 L187.54504,106.709 L186.45524,106.751 L185.37594,106.793 L184.29614,106.821 L183.20594,106.85 L182.11574,106.879 L181.03564,106.907 L179.95524,106.923 L178.86474,106.939 L177.77414,106.955 L176.69264,106.971 L175.61084,106.975 L174.52014,106.979 L173.42934,106.984 L172.34824,106.988 L171.26704,106.98 L170.17624,106.972 L169.08534,106.964 L168.00384,106.956 L166.92244,106.937 L165.83164,106.917 L164.74074,106.897 L163.65824,106.877 L162.57584,106.846 L161.48514,106.816 L160.39454,106.785 L159.31274,106.755 L158.23114,106.713 L157.14074,106.671 L156.05034,106.629 L154.96844,106.587 L153.88704,106.535 L152.79704,106.482 L151.70704,106.428 L150.62454,106.376 L149.54264,106.314 L148.45304,106.251 L147.36354,106.188 L146.28204,106.126 L145.20124,106.053 L144.11234,105.98 L143.02344,105.907 L141.94234,105.834 L140.86204,105.752 L139.77384,105.668 L138.68574,105.585 L137.60444,105.503 L136.06374,105.374 L134.52344,105.246 L133.01504,105.11 L131.50664,104.975 L130.02984,104.832 L128.55264,104.69 L127.10404,104.541 L125.65594,104.393 L124.23914,104.238 L122.82234,104.082 L121.43664,103.921 L120.05034,103.759 L118.69204,103.591 L117.33434,103.423 L116.00714,103.249 L114.68014,103.075 L113.38344,102.895 L112.08614,102.715 L110.81634,102.529 L109.54714,102.343 L108.30784,102.151 L107.06864,101.959 L105.85914,101.761 L104.64904,101.563 L103.46574,101.36 L102.28324,101.157 L101.12994,100.948 L99.97684,100.739 L98.85264,100.524 L97.72794,100.31 L96.62934,100.09 L95.53164,99.871 L94.46254,99.646 L93.39354,99.421 L92.35294,99.191 L91.31164,98.96 L90.29594,98.725 L89.28114,98.49 L88.29444,98.25 L87.31094,98.011 L85.38924,97.521 L83.52104,97.022 L81.70864,96.514 L79.94984,95.997 L78.24024,95.471 L76.58534,94.937 L74.98274,94.395 L73.42804,93.845 L71.92714,93.287 L70.47694,92.722 L69.07376,92.149 L67.72307,91.571 L66.42186,90.984 L65.16649,90.392 L63.9625,89.794 L62.80658,89.19 L61.69533,88.581 L60.63424,87.967 L59.61975,87.348 L58.64873,86.724 L57.72671,86.097 L56.84974,85.465 L56.0149,84.83 L55.22769,84.194 L54.48384,83.553 L53.7806,82.909 L53.12336,82.266 L52.50761,81.619 L51.93072,80.971 L51.39784,80.324 L50.90436,79.674 L50.44771,79.023 L50.03269,78.375 L49.65486,77.724 L49.3116,77.073 L49.0073,76.425 L48.73802,75.773 L48.50108,75.121 L48.30036,74.472 L48.13288,73.819 L47.99582,73.164 L47.89258,72.512 L47.82142,71.855 L47.77935,71.196 L47.76928,70.538 L47.79077,69.874 L47.84059,69.207 L47.9212,68.541 L48.03325,67.868 L48.17321,67.193 L48.34313,66.518 L48.54441,65.836 L48.7733,65.152 L49.03147,64.468 L49.32074,63.779 L49.63716,63.088 L49.98212,62.398 L50.35763,61.704 L50.75962,61.008 L51.18928,60.313 L51.64865,59.616 L52.13364,58.919 L52.64531,58.223 L53.1856,57.526 L53.75052,56.83 L54.341,56.136 L54.95888,55.442 L55.6003,54.749 L56.26608,54.06 L56.95264,53.377 L57.68401,52.686 L58.40847,52.002 L59.17982,51.325 L59.95181,50.647 L60.76876,49.977 L61.58816,49.304 L62.44689,48.64 L63.30423,47.977 L64.20314,47.323 L65.10257,46.669 L66.04162,46.026 L66.98281,45.381 L67.95848,44.747 L68.93281,44.114 L69.94337,43.493 L70.95424,42.872 L71.99944,42.264 L73.04654,41.655 L74.12324,41.059 L75.19854,40.464 L76.30474,39.884 L77.41124,39.303 L78.54654,38.739 L79.68354,38.174 L80.84524,37.624 L82.00564,37.074 L83.19164,36.543 L84.37764,36.011 L85.58724,35.497 L86.79824,34.983 L88.02914,34.487 L89.25874,33.991 L90.50844,33.515 L91.75814,33.039 L93.02594,32.584 L94.29524,32.129 L95.57954,31.693 L96.86234,31.258 L98.15994,30.845 L99.45744,30.433 L100.76774,30.043 L102.07934,29.654 L103.40114,29.286 L104.72134,28.918 L106.05104,28.576 L107.38044,28.234 L108.71734,27.917 L110.05554,27.6 L111.39894,27.308 L112.74064,27.015 L114.08654,26.751 L115.43194,26.486 L116.77964,26.249 L118.12844,26.012 L119.47774,25.801 L120.82504,25.591 L122.17114,25.41 L123.51674,25.229 L124.85914,25.079 L126.20274,24.929 L127.54204,24.807 L128.87894,24.686 L130.20934,24.596 L131.53904,24.507 L132.86024,24.45 L134.18284,24.393 L135.49604,24.367 L136.80664,24.341 L138.10534,24.349 L139.40314,24.357 L140.68714,24.401 L141.97254,24.444 L143.24374,24.52 L144.51204,24.595 L145.76294,24.708 L147.01284,24.82 L148.24364,24.97 L149.48224,25.12 L150.69284,25.294 L151.89694,25.489 L153.09044,25.703 L154.27274,25.934 L155.44094,26.185 L156.59744,26.455 L157.74134,26.744 L158.86984,27.053 L159.98534,27.382 L161.08714,27.73 L162.17204,28.097 L163.24264,28.486 L164.29854,28.894 L165.33624,29.322 L166.35844,29.772 L167.36474,30.241 L168.35154,30.731 L169.32174,31.243 L170.27504,31.775 L171.20764,32.327 L172.12264,32.903 L173.01964,33.499 L173.89484,34.116 L174.76884,34.771 C175.51154,35.327 176.56444,35.175 177.12054,34.433 C177.67654,33.69 177.52514,32.637 176.78244,32.081 Z" id="Fill-99"></path>
            <path d="M202.95174,16.739 C154.08744,8.595 86.42344,11.352 39.95433,28.778 C-40.02806,58.772 62.56704,96.872 99.22614,99.164 C113.43014,100.051 162.79824,100.437 177.02034,100.09 C460.10624,93.185 236.41664,-7.11 100.15224,17.665" id="Fill-110"></path>
            <path d="M203.21894,15.08 L201.68064,14.832 L200.13264,14.582 L198.56064,14.347 L196.98874,14.112 L195.39404,13.892 L193.80024,13.672 L192.18664,13.466 L190.57234,13.26 L188.93724,13.069 L187.30234,12.877 L185.64784,12.702 L183.99434,12.526 L182.32394,12.364 L180.65284,12.202 L178.96444,12.056 L177.27604,11.909 L175.57144,11.779 L173.86764,11.648 L172.15014,11.531 L170.43194,11.415 L168.69964,11.314 L166.96734,11.213 L165.22234,11.128 L163.47794,11.043 L161.72294,10.973 L159.96714,10.903 L158.20074,10.848 L156.43424,10.794 L154.65824,10.756 L152.88304,10.718 L151.10014,10.694 L149.31644,10.671 L147.52544,10.664 L145.73444,10.657 L143.93724,10.667 L142.14074,10.676 L140.33954,10.701 L138.53764,10.726 L136.73174,10.767 L134.92584,10.808 L133.11704,10.866 L131.30894,10.925 L129.49924,10.998 L127.68874,11.072 L125.87764,11.163 L124.06644,11.253 L122.25574,11.361 L120.44574,11.469 L118.63714,11.593 L116.82774,11.716 L115.02104,11.857 L113.21424,11.998 L111.41124,12.157 L109.60904,12.315 L107.81134,12.49 L106.01274,12.665 L104.22014,12.858 L102.42734,13.05 L100.64194,13.261 L98.85704,13.471 L97.07984,13.698 L95.30164,13.924 L93.53274,14.169 L91.76374,14.414 L90.00534,14.677 L88.24764,14.939 L86.50044,15.219 L84.75224,15.498 L83.01684,15.796 L81.28114,16.094 L79.55944,16.41 L77.83834,16.726 L76.13104,17.059 L74.42244,17.392 L72.73004,17.744 L71.03724,18.096 L69.36183,18.467 L67.68715,18.838 L66.02912,19.225 L64.36992,19.614 L62.73012,20.021 L61.09004,20.429 L59.47055,20.855 L57.85189,21.282 L56.25292,21.725 L54.65259,22.17 L53.07498,22.633 L51.49704,23.097 L49.94314,23.581 L48.39017,24.064 L46.85994,24.565 L45.3282,25.067 L43.82252,25.589 L42.31647,26.111 L40.8377,26.652 L39.36403,27.192 L38.11058,27.668 L36.89054,28.146 L35.70107,28.624 L34.53852,29.105 L33.40459,29.587 L32.30048,30.07 L31.2226,30.555 L30.17257,31.041 L29.15174,31.529 L28.15651,32.018 L27.18834,32.509 L26.24876,33.001 L25.33413,33.495 L24.4458,33.99 L23.58544,34.487 L22.74941,34.985 L21.93907,35.485 L21.15622,35.987 L20.39707,36.49 L19.66272,36.995 L18.95517,37.501 L18.27075,38.009 L17.61041,38.519 L16.97633,39.03 L16.36484,39.543 L15.77677,40.059 L15.21448,40.575 L14.67429,41.094 L14.15695,41.615 L13.66498,42.138 L13.19472,42.662 L12.74687,43.19 L12.32406,43.719 L11.92269,44.249 L11.54346,44.784 L11.17577,45.34 L10.54451,46.395 L9.9915,47.485 L9.53393,48.577 L9.16127,49.675 L8.87973,50.783 L8.69143,51.887 L8.58629,52.991 L8.57021,54.097 L8.64109,55.192 L8.7892,56.279 L9.0199,57.362 L9.3277,58.428 L9.70411,59.483 L10.15446,60.529 L10.67208,61.559 L11.24997,62.577 L11.89351,63.586 L12.5965,64.58 L13.35329,65.562 L14.16922,66.535 L15.03842,67.495 L15.956,68.445 L16.92685,69.385 L17.94571,70.313 L19.00811,71.231 L20.11835,72.14 L21.27171,73.037 L22.46344,73.925 L23.69694,74.805 L24.9688,75.673 L26.27511,76.532 L27.61892,77.38 L28.99625,78.216 L30.4035,79.042 L31.8431,79.857 L33.31133,80.66 L34.80492,81.452 L36.32562,82.233 L37.86997,83.001 L39.43509,83.757 L41.02228,84.501 L42.63169,85.233 L44.25714,85.943 L45.88694,86.655 L47.54663,87.339 L49.20556,88.023 L50.88691,88.679 L52.56647,89.333 L54.26033,89.961 L55.95497,90.588 L57.65877,91.185 L59.36212,91.781 L61.06707,92.345 L62.77059,92.908 L64.46967,93.441 L66.16986,93.974 L67.85844,94.471 L69.54684,94.969 L71.21614,95.431 L72.88414,95.892 L74.52884,96.32 L76.17474,96.747 L77.78834,97.137 L79.40204,97.527 L80.97604,97.877 L82.54564,98.225 L84.09174,98.548 L85.61064,98.85 L87.10234,99.131 L88.56874,99.392 L90.00624,99.631 L91.41174,99.849 L92.78734,100.046 L94.12954,100.221 L95.43474,100.372 L96.70584,100.502 L97.93914,100.609 L99.12234,100.691 L99.59074,100.719 L100.07374,100.746 L100.57854,100.772 L101.10304,100.798 L101.64904,100.824 L102.21714,100.849 L103.40404,100.899 L104.67064,100.946 L106.01094,100.993 L107.41504,101.038 L108.88594,101.081 L110.41914,101.122 L112.00564,101.162 L113.64734,101.199 L115.33964,101.236 L117.07464,101.271 L118.85314,101.304 L120.67054,101.336 L122.52004,101.366 L124.40124,101.394 L126.30964,101.421 L128.23934,101.446 L130.18904,101.47 L132.15414,101.491 L134.12994,101.512 L136.11384,101.53 L138.10224,101.547 L140.08204,101.56 L142.06044,101.573 L144.03884,101.585 L146.01954,101.598 L147.94044,101.603 L149.85884,101.609 L151.77724,101.615 L153.69804,101.621 L155.49044,101.62 L157.28014,101.619 L159.06994,101.618 L160.86124,101.617 L162.55424,101.612 L164.19554,101.605 L165.78154,101.597 L167.31414,101.587 L168.78424,101.576 L170.18744,101.563 L171.52654,101.548 L172.79154,101.531 L173.97804,101.513 L175.09004,101.493 L176.11674,101.472 L177.05354,101.449 L178.15204,101.417 L179.24814,101.386 L180.34424,101.354 L181.44304,101.322 L182.52074,101.287 L183.59574,101.252 L184.67064,101.216 L185.74834,101.181 L186.80514,101.142 L187.85904,101.102 L188.91294,101.063 L189.96954,101.024 L191.00704,100.982 L192.04204,100.939 L193.07694,100.897 L194.11474,100.854 L195.13194,100.808 L196.14604,100.762 L197.16024,100.715 L198.17844,100.669 L200.16754,100.569 L202.15744,100.47 L204.11014,100.365 L206.06314,100.259 L207.97544,100.147 L209.88774,100.035 L211.75964,99.915 L213.63134,99.796 L215.46644,99.67 L217.30194,99.545 L219.09754,99.413 L220.89314,99.28 L222.64914,99.142 L224.40484,99.003 L226.12484,98.858 L227.84504,98.713 L229.52624,98.561 L231.20744,98.41 L232.84994,98.252 L234.49204,98.095 L236.09914,97.933 L237.70664,97.77 L239.27584,97.601 L240.84504,97.432 L242.37624,97.256 L243.90704,97.081 L245.40354,96.9 L246.90054,96.719 L248.35994,96.532 L249.81944,96.346 L251.24164,96.153 L252.66354,95.96 L254.05184,95.762 L255.44054,95.564 L256.79254,95.36 L258.14464,95.157 L259.46024,94.947 L260.77544,94.738 L262.05784,94.523 L263.34074,94.309 L264.58784,94.09 L265.83494,93.87 L267.04644,93.645 L268.25744,93.42 L269.43634,93.191 L270.61584,92.961 L271.76014,92.726 L272.90464,92.491 L274.01424,92.251 L275.12344,92.011 L276.20114,91.766 L277.27954,91.521 L278.32374,91.272 L279.36804,91.023 L280.37834,90.768 L281.38814,90.514 L282.36724,90.256 L283.34964,89.996 L285.23994,89.47 L287.06604,88.934 L288.83244,88.389 L290.53464,87.835 L292.17164,87.273 L293.75064,86.702 L295.26714,86.122 L296.72004,85.533 L298.11644,84.937 L299.45244,84.332 L300.72634,83.719 L301.94534,83.098 L303.10574,82.467 L304.20564,81.829 L305.25224,81.184 L306.24204,80.528 L307.17274,79.866 L308.05144,79.195 L308.87504,78.513 L309.64054,77.824 L310.35504,77.127 L311.01544,76.418 L311.61834,75.702 L312.17054,74.977 L312.66874,74.24 L313.10924,73.496 L313.49854,72.743 L313.83284,71.979 L314.10914,71.21 L314.33344,70.434 L314.50164,69.649 L314.61234,68.863 L314.67144,68.074 L314.67474,67.28 L314.62294,66.488 L314.52174,65.697 L314.36694,64.903 L314.16114,64.115 L313.90914,63.329 L313.60664,62.543 L313.25704,61.763 L312.86444,60.986 L312.42444,60.21 L311.94034,59.439 L311.41584,58.671 L310.84634,57.904 L310.23504,57.141 L309.58534,56.381 L308.89264,55.622 L308.15994,54.867 L307.39034,54.115 L306.57924,53.364 L305.72944,52.617 L304.84424,51.872 L303.91944,51.129 L302.95764,50.39 L301.96164,49.653 L300.92774,48.918 L299.85804,48.186 L298.75564,47.457 L297.61684,46.731 L296.44364,46.009 L295.23904,45.289 L293.99934,44.573 L292.72644,43.862 L291.42334,43.154 L290.08704,42.449 L288.71914,41.749 L287.32244,41.053 L285.89404,40.361 L284.43544,39.673 L282.94954,38.991 L281.43344,38.312 L279.88844,37.64 L278.31714,36.972 L276.71734,36.31 L275.09024,35.653 L273.43854,35.002 L271.75974,34.357 L270.05524,33.718 L268.32744,33.085 L266.57414,32.458 L264.79674,31.837 L262.99744,31.223 L261.17414,30.615 L259.32814,30.015 L257.46164,29.422 L255.57274,28.836 L253.66364,28.258 L252.69814,27.973 L251.73334,27.687 L250.75854,27.405 L249.78374,27.123 L248.79894,26.845 L247.81294,26.567 L246.81374,26.294 L245.81904,26.023 L244.82434,25.751 L243.82314,25.478 L242.80334,25.214 L241.79004,24.951 L240.77664,24.689 L239.75704,24.424 L238.71994,24.17 L237.68914,23.916 L236.65834,23.663 L235.62204,23.407 L234.57074,23.161 L233.52514,22.916 L232.47944,22.67 L231.42764,22.424 L230.36044,22.187 L229.29934,21.952 L228.23814,21.716 L227.17094,21.48 L226.08944,21.253 L225.01394,21.028 L223.93844,20.803 L222.85744,20.577 L221.76434,20.361 L220.67684,20.145 L219.58924,19.929 L218.49564,19.712 L217.38974,19.507 L216.28984,19.302 L215.18984,19.097 L214.08394,18.892 L212.96684,18.697 L211.85554,18.504 L210.74434,18.311 L209.62774,18.117 L208.50184,17.934 L207.38134,17.751 L206.26054,17.571 L205.13344,17.391 L203.99724,17.223 L202.86694,17.056 L201.73664,16.889 L200.60044,16.722 L199.45614,16.567 L198.31774,16.413 L197.17934,16.259 L196.03564,16.104 L194.88554,15.961 L193.74064,15.819 L192.59574,15.676 L191.44514,15.533 L190.28854,15.402 L189.13764,15.273 L187.98674,15.143 L186.83014,15.012 L185.66854,14.896 L184.51264,14.779 L183.35684,14.663 L182.19574,14.547 L181.03094,14.443 L179.87154,14.34 L178.71204,14.236 L177.54674,14.133 L176.37844,14.043 L175.21624,13.952 L174.05394,13.861 L172.88574,13.769 L171.71574,13.693 L170.55154,13.616 L169.38734,13.54 L168.21774,13.463 L167.04734,13.401 L165.88234,13.338 L164.71734,13.276 L163.54634,13.213 L162.37534,13.166 L161.21044,13.119 L160.04554,13.071 L158.87444,13.023 L157.70454,12.991 L156.54094,12.96 L155.37724,12.928 L154.20774,12.896 L153.04034,12.879 L151.87864,12.862 L150.71704,12.845 L149.54884,12.828 L148.38374,12.828 L147.22534,12.828 L146.06684,12.828 L144.90164,12.827 L143.74064,12.844 L142.58654,12.861 L141.43234,12.877 L140.27184,12.894 L139.11614,12.926 L137.96684,12.959 L136.81754,12.991 L135.66094,13.024 L134.51064,13.075 L133.36764,13.125 L132.22464,13.176 L131.07404,13.226 L129.93084,13.296 L128.79534,13.364 L127.65974,13.433 L126.51704,13.501 L125.38194,13.587 L124.25404,13.673 L123.12604,13.758 L121.98994,13.845 L120.86324,13.95 L119.74474,14.054 L118.62624,14.159 L117.49914,14.264 L116.38264,14.389 L115.27464,14.513 L114.16674,14.637 L113.05064,14.762 L111.94504,14.906 L110.84754,15.048 L109.75014,15.19 L108.64334,15.333 L107.54904,15.497 L106.46414,15.659 L105.37924,15.821 L104.28454,15.985 L103.20344,16.17 L102.13224,16.353 L101.06094,16.536 L99.98964,16.719 C99.46714,16.808 99.11634,17.305 99.20614,17.828 C99.29594,18.35 99.79234,18.701 100.31484,18.611 L101.38574,18.426 L102.45664,18.241 L103.52754,18.056 L104.58864,17.872 L105.66354,17.709 L106.74814,17.544 L107.83274,17.38 L108.90804,17.217 L109.99594,17.074 L111.09314,16.929 L112.19034,16.785 L113.27934,16.642 L114.37904,16.516 L115.48674,16.39 L116.59444,16.263 L117.69354,16.138 L118.80324,16.032 L119.92154,15.925 L121.03984,15.818 L122.14994,15.712 L123.26944,15.625 L124.39724,15.537 L125.52494,15.449 L126.64554,15.362 L127.77374,15.292 L128.90924,15.221 L130.04464,15.15 L131.17244,15.08 L132.30784,15.028 L133.45074,14.976 L134.59364,14.924 L135.72924,14.872 L136.87114,14.838 L138.02044,14.804 L139.16964,14.769 L140.31244,14.735 L141.46014,14.717 L142.61424,14.699 L143.76834,14.681 L144.91554,14.662 L146.06724,14.661 L147.22564,14.661 L148.38404,14.66 L149.53594,14.66 L150.69094,14.676 L151.85264,14.692 L153.01424,14.708 L154.17004,14.725 L155.32784,14.756 L156.49154,14.787 L157.65514,14.818 L158.81254,14.849 L159.97114,14.896 L161.13604,14.943 L162.30084,14.991 L163.45954,15.039 L164.61834,15.103 L165.78324,15.167 L166.94814,15.23 L168.10764,15.294 L169.26624,15.371 L170.43034,15.449 L171.59444,15.527 L172.75254,15.604 L173.90884,15.696 L175.07104,15.789 L176.23314,15.881 L177.38934,15.976 L178.54244,16.085 L179.70124,16.194 L180.86014,16.304 L182.01384,16.413 L183.16374,16.535 L184.31894,16.657 L185.47414,16.779 L186.62354,16.901 L187.76794,17.037 L188.91804,17.173 L190.06814,17.309 L191.21254,17.444 L192.35064,17.594 L193.49444,17.744 L194.63834,17.894 L195.77684,18.044 L196.90884,18.205 L198.04614,18.367 L199.18344,18.529 L200.31494,18.691 L201.43824,18.864 L202.56734,19.039 L203.69644,19.214 L204.81964,19.387 L205.93354,19.573 L207.05364,19.759 L208.17404,19.942 L209.28904,20.124 L210.39464,20.318 L211.50574,20.512 L212.61674,20.706 L213.72194,20.899 L214.81574,21.104 L215.91554,21.309 L217.01534,21.515 L218.10914,21.719 L219.19064,21.935 L220.27804,22.151 L221.36544,22.368 L222.44734,22.584 L223.51704,22.809 L224.59214,23.036 L225.66734,23.263 L226.73654,23.488 L227.79124,23.724 L228.85194,23.961 L229.91274,24.198 L230.96744,24.434 L232.00664,24.679 L233.05194,24.926 L234.09714,25.173 L235.13684,25.419 L236.16144,25.673 L237.19164,25.929 L238.22174,26.185 L239.24554,26.439 L240.25184,26.703 L241.26454,26.968 L242.27714,27.234 L243.28344,27.497 L244.27084,27.769 L245.26494,28.043 L246.25894,28.317 L247.24844,28.59 L248.22464,28.869 L249.20204,29.147 L250.16934,29.43 L251.13664,29.713 L252.09334,30.001 L253.04924,30.288 L254.94454,30.871 L256.81664,31.46 L258.66674,32.058 L260.49594,32.661 L262.30154,33.272 L264.08344,33.889 L265.84304,34.512 L267.57724,35.141 L269.28634,35.777 L270.97164,36.418 L272.63004,37.065 L274.26164,37.717 L275.86814,38.374 L277.44604,39.036 L278.99554,39.703 L280.51874,40.374 L282.01184,41.048 L283.47504,41.727 L284.91024,42.41 L286.31344,43.096 L287.68534,43.787 L289.02764,44.48 L290.33634,45.176 L291.61204,45.875 L292.85674,46.577 L294.06644,47.28 L295.24174,47.986 L296.38454,48.693 L297.49034,49.402 L298.55994,50.112 L299.59554,50.824 L300.59244,51.536 L301.55154,52.25 L302.47524,52.963 L303.35834,53.676 L304.20214,54.389 L305.00904,55.102 L305.77394,55.812 L306.49834,56.522 L307.18434,57.23 L307.82654,57.934 L308.42664,58.638 L308.98714,59.338 L309.50244,60.033 L309.97454,60.726 L310.40624,61.415 L310.79184,62.096 L311.13364,62.774 L311.43464,63.447 L311.68954,64.111 L311.90064,64.772 L312.07124,65.426 L312.19654,66.071 L312.27794,66.714 L312.31934,67.351 L312.31634,67.981 L312.26864,68.61 L312.18024,69.237 L312.04684,69.858 L311.86574,70.482 L311.64144,71.105 L311.36954,71.726 L311.04594,72.35 L310.67544,72.976 L310.25384,73.599 L309.77634,74.225 L309.24884,74.851 L308.66684,75.475 L308.02594,76.1 L307.33244,76.723 L306.58184,77.343 L305.77044,77.962 L304.90434,78.578 L303.97934,79.19 L302.99184,79.798 L301.94834,80.403 L300.84414,81.002 L299.67614,81.596 L298.45074,82.185 L297.16314,82.767 L295.81054,83.344 L294.39944,83.915 L292.92444,84.478 L291.38324,85.034 L289.78224,85.583 L288.11584,86.125 L286.38204,86.658 L284.58714,87.184 L282.72284,87.702 L281.76054,87.956 L280.79484,88.21 L279.79814,88.46 L278.80194,88.71 L277.77134,88.956 L276.74064,89.201 L275.67514,89.442 L274.60904,89.682 L273.51104,89.918 L272.41364,90.154 L271.28114,90.385 L270.14844,90.616 L268.98034,90.841 L267.81174,91.067 L266.61064,91.288 L265.40994,91.509 L264.17334,91.725 L262.93674,91.941 L261.66394,92.151 L260.39054,92.361 L259.08404,92.566 L257.77784,92.771 L256.43504,92.97 L255.09224,93.169 L253.71244,93.363 L252.33224,93.556 L250.91814,93.745 L249.50454,93.933 L248.05344,94.115 L246.60224,94.298 L245.11344,94.474 L243.62414,94.65 L242.10034,94.82 L240.57694,94.991 L239.01534,95.155 L237.45374,95.32 L235.85354,95.478 L234.25314,95.636 L232.61744,95.788 L230.98204,95.94 L229.30764,96.085 L227.63324,96.229 L225.91954,96.367 L224.20554,96.505 L222.45574,96.637 L220.70614,96.769 L218.91684,96.894 L217.12754,97.02 L215.29814,97.138 L213.46854,97.255 L211.60234,97.367 L209.73634,97.478 L207.82994,97.583 L205.92344,97.687 L203.97624,97.784 L202.02874,97.881 L200.04394,97.971 L198.05834,98.06 L197.04784,98.101 L196.03344,98.142 L195.01904,98.183 L194.00764,98.224 L192.97544,98.261 L191.94024,98.298 L190.90514,98.336 L189.87264,98.373 L188.82114,98.407 L187.76704,98.44 L186.71294,98.474 L185.66164,98.508 L184.58934,98.538 L183.51424,98.567 L182.43914,98.597 L181.36684,98.627 L180.27334,98.653 L179.17714,98.679 L178.08094,98.705 L176.98714,98.731 L176.06144,98.749 L175.04434,98.765 L173.93984,98.779 L172.75984,98.791 L171.50064,98.801 L170.16634,98.809 L168.76754,98.815 L167.30154,98.819 L165.77254,98.821 L164.18984,98.821 L162.55184,98.819 L160.86374,98.816 L159.07554,98.808 L157.28584,98.799 L155.49604,98.791 L153.70894,98.783 L151.79304,98.768 L149.87464,98.752 L147.95624,98.737 L146.04034,98.721 L144.06434,98.699 L142.08594,98.676 L140.10764,98.654 L138.13064,98.632 L136.14634,98.607 L134.16504,98.579 L132.19184,98.551 L130.22944,98.521 L128.28274,98.489 L126.35584,98.455 L124.45054,98.421 L122.57284,98.385 L120.72674,98.348 L118.91304,98.309 L117.13874,98.269 L115.40794,98.227 L113.72034,98.185 L112.08404,98.14 L110.50314,98.095 L108.97614,98.048 L107.51254,98.001 L106.11624,97.952 L104.78494,97.902 L103.52914,97.851 L102.35134,97.799 L101.79304,97.772 L101.25494,97.746 L100.73864,97.718 L100.24294,97.691 L99.77054,97.663 L99.32994,97.636 L98.18214,97.553 L96.99914,97.447 L95.77274,97.318 L94.50934,97.168 L93.20804,96.996 L91.86934,96.801 L90.49884,96.587 L89.09604,96.35 L87.66154,96.092 L86.20044,95.814 L84.71244,95.516 L83.20144,95.198 L81.65174,94.85 L80.10624,94.504 L78.52024,94.118 L76.93394,93.732 L75.31484,93.307 L73.69454,92.883 L72.05034,92.425 L70.40734,91.967 L68.74488,91.474 L67.08258,90.981 L65.40837,90.453 L63.73306,89.926 L62.05288,89.369 L60.37416,88.812 L58.69686,88.223 L57.02001,87.635 L55.35222,87.016 L53.68366,86.396 L52.02941,85.75 L50.37696,85.105 L48.74685,84.431 L47.11749,83.758 L45.51817,83.059 L43.9145,82.357 L42.34328,81.641 L40.78975,80.912 L39.25788,80.171 L37.74797,79.419 L36.26476,78.657 L34.80858,77.883 L33.37927,77.1 L31.98211,76.307 L30.61716,75.504 L29.284,74.693 L27.98853,73.873 L26.73055,73.045 L25.5093,72.21 L24.33133,71.368 L23.19702,70.517 L22.105,69.661 L21.06192,68.799 L20.06685,67.932 L19.1184,67.06 L18.22441,66.187 L17.38343,65.309 L16.59372,64.43 L15.86364,63.552 L15.19113,62.671 L14.57393,61.791 L14.02062,60.915 L13.52879,60.039 L13.0953,59.166 L12.72829,58.301 L12.42491,57.436 L12.181,56.576 L12.00418,55.725 L11.89276,54.872 L11.84166,54.022 L11.85823,53.178 L11.94416,52.327 L12.09396,51.473 L12.31557,50.62 L12.61491,49.754 L12.98584,48.88 L13.43683,48.003 L13.98884,47.09 L14.27485,46.662 L14.59539,46.213 L14.94032,45.76 L15.30649,45.305 L15.695,44.849 L16.10893,44.391 L16.54502,43.93 L17.00441,43.47 L17.4901,43.006 L17.99873,42.542 L18.53155,42.077 L19.09141,41.61 L19.67493,41.142 L20.28345,40.675 L20.91964,40.206 L21.58013,39.736 L22.2664,39.267 L22.98092,38.797 L23.72034,38.326 L24.48617,37.856 L25.28065,37.384 L26.10061,36.913 L26.94779,36.443 L27.82432,35.972 L28.72687,35.501 L29.65734,35.031 L30.6177,34.561 L31.60463,34.092 L32.62015,33.623 L33.6661,33.155 L34.73917,32.688 L35.84149,32.222 L36.97479,31.756 L38.13569,31.291 L39.32643,30.827 L40.54463,30.365 L42.00085,29.833 L43.45196,29.304 L44.93058,28.793 L46.40957,28.283 L47.91484,27.792 L49.42163,27.3 L50.95132,26.825 L52.48007,26.351 L54.03286,25.896 L55.58598,25.44 L57.16201,25.003 L58.7394,24.566 L60.33663,24.146 L61.93304,23.726 L63.55021,23.326 L65.16767,22.925 L66.80464,22.542 L68.44278,22.159 L70.09771,21.793 L71.75184,21.428 L73.42344,21.08 L75.09514,20.733 L76.78314,20.404 L78.47224,20.075 L80.17494,19.762 L81.87704,19.45 L83.59304,19.155 L85.30934,18.861 L87.03834,18.585 L88.76844,18.309 L90.50914,18.049 L92.24914,17.789 L93.99984,17.547 L95.75064,17.305 L97.51094,17.081 L99.27204,16.856 L101.04084,16.648 L102.80894,16.44 L104.58424,16.25 L106.35974,16.059 L108.14134,15.886 L109.92374,15.713 L111.71064,15.556 L113.49694,15.398 L115.28704,15.258 L117.07724,15.117 L118.87024,14.994 L120.66394,14.871 L122.45924,14.763 L124.25374,14.655 L126.04884,14.564 L127.84404,14.474 L129.63854,14.4 L131.43374,14.325 L133.22744,14.267 L135.02044,14.208 L136.81064,14.166 L138.60094,14.124 L140.38704,14.098 L142.17404,14.073 L143.95634,14.062 L145.73794,14.052 L147.51334,14.058 L149.28874,14.063 L151.05674,14.085 L152.82554,14.107 L154.58654,14.144 L156.34684,14.181 L158.09764,14.234 L159.84834,14.287 L161.58834,14.355 L163.32904,14.424 L165.05884,14.507 L166.78804,14.59 L168.50424,14.689 L170.22044,14.788 L171.92244,14.902 L173.62514,15.017 L175.31404,15.145 L177.00214,15.274 L178.67394,15.418 L180.34564,15.562 L181.99984,15.721 L183.65464,15.88 L185.29264,16.053 L186.92974,16.226 L188.54714,16.415 L190.16454,16.603 L191.76094,16.806 L193.35804,17.009 L194.93514,17.225 L196.51134,17.442 L198.06444,17.673 L199.61744,17.904 L201.14614,18.15 L202.68454,18.397 C203.60054,18.545 204.46274,17.922 204.61034,17.006 C204.75794,16.09 204.13494,15.228 203.21894,15.08 Z" id="Fill-111"></path>
        </g>
    </g>
</svg>
