<?xml version="1.0" encoding="UTF-8"?>
<svg width="258px" height="192px" viewBox="0 0 258 192" version="1.1" xmlns="http://www.w3.org/2000/svg" xmlns:xlink="http://www.w3.org/1999/xlink">
    <title>41</title>
    <g id="Page-1" stroke="none" stroke-width="1" fill="none" fill-rule="evenodd">
        <g id="41" transform="translate(0.664800, 0.750000)" fill="currentColor">
            <path d="M84.6426,33.52 L83.6589,32.936 L82.6367,32.4 L81.6164,31.933 L80.5949,31.528 L79.5686,31.19 L78.5469,30.919 L77.5264,30.709 L76.5035,30.565 L75.4889,30.486 L74.479,30.465 L73.4705,30.507 L72.4741,30.61 L71.4857,30.767 L70.5022,30.983 L69.5331,31.254 L68.574,31.574 L67.6223,31.949 L66.6855,32.372 L65.7596,32.839 L64.8421,33.356 L63.939,33.916 L63.0466,34.516 L62.1631,35.16 L61.2931,35.844 L60.4333,36.564 L59.5826,37.324 L58.7446,38.12 L57.9164,38.948 L57.0975,39.813 L56.2905,40.71 L55.4933,41.636 L54.7054,42.595 L53.9291,43.582 L53.1625,44.597 L52.4055,45.64 L51.6599,46.709 L50.9241,47.801 L50.1982,48.919 L49.4838,50.059 L48.7794,51.22 L48.0852,52.403 L47.4001,53.61 L46.7355,54.833 L46.0682,56.061 L45.4227,57.324 L44.778,58.586 L44.1559,59.877 L43.5352,61.167 L42.9355,62.479 L42.3356,63.793 L41.7595,65.128 L41.1839,66.462 L40.6327,67.812 L40.0825,69.16 L39.555,70.519 L39.0274,71.879 L38.5254,73.246 L38.0238,74.613 L37.5485,75.983 L37.074,77.35 L36.624,78.717 L36.1738,80.084 L35.7512,81.445 L35.3288,82.805 L34.9348,84.155 L34.5414,85.503 L34.1743,86.837 L33.8069,88.173 L33.4692,89.488 L33.1317,90.804 L32.8245,92.094 L32.5178,93.384 L32.2392,94.647 L31.9604,95.912 L31.7133,97.143 L31.4662,98.375 L31.2516,99.568 L31.038,100.756 L30.8453,101.925 L30.67,103.069 L30.5117,104.189 L30.369,105.287 L30.2435,106.36 L30.1356,107.407 L30.0438,108.429 L29.9697,109.424 L29.914,110.389 L29.875,111.328 L29.8547,112.237 L29.8533,113.113 L29.8697,113.961 L29.906,114.778 L29.9626,115.559 L30.0384,116.311 L30.1365,117.033 L30.2573,117.717 L30.5251,119.013 L30.8177,120.293 L31.1343,121.554 L31.4727,122.8 L31.8352,124.029 L32.2208,125.24 L32.6274,126.435 L33.0576,127.615 L33.5098,128.775 L33.9824,129.92 L34.4778,131.049 L34.9943,132.159 L35.5305,133.254 L36.0886,134.333 L36.667,135.392 L37.2642,136.437 L37.8827,137.465 L38.5205,138.475 L39.1763,139.469 L39.8526,140.447 L40.5471,141.406 L41.2589,142.35 L41.9904,143.278 L42.7392,144.188 L43.5044,145.082 L44.2884,145.96 L45.0889,146.82 L45.9048,147.664 L46.7389,148.492 L47.5939,149.308 L48.4587,150.09 L49.3314,150.877 L50.2355,151.633 L51.1396,152.387 L52.074,153.108 L53.0059,153.827 L53.9644,154.517 L54.925,155.207 L55.9138,155.865 L56.9023,156.523 L57.9179,157.148 L58.9308,157.771 L59.9674,158.365 L61.006,158.96 L62.0694,159.523 L63.1325,160.085 L64.2193,160.616 L65.3035,161.145 L66.4084,161.646 L67.5151,162.147 L68.6435,162.617 L69.7716,163.087 L70.92,163.525 L72.0661,163.962 L73.2298,164.372 L74.3953,164.781 L75.5792,165.16 L76.7628,165.539 L77.9636,165.887 L79.1621,166.234 L80.3754,166.554 L81.5903,166.874 L82.8206,167.164 L84.0504,167.453 L85.2944,167.713 L86.5361,167.972 L87.7897,168.204 L89.0449,168.436 L90.3122,168.639 L91.5792,168.841 L92.8571,169.015 L94.1329,169.187 L95.4178,169.334 L96.7042,169.48 L97.9994,169.598 L99.2945,169.715 L100.5973,169.804 L101.8982,169.892 L103.2052,169.954 L104.5137,170.017 L105.8279,170.051 L107.142,170.084 L108.4607,170.09 L109.7775,170.095 L111.0977,170.076 L112.4192,170.055 L113.7435,170.008 L115.0675,169.959 L116.393,169.884 L117.7168,169.808 L119.0409,169.708 L120.3666,169.607 L121.6918,169.479 L123.0168,169.35 L124.3401,169.195 L125.6618,169.039 L126.981,168.86 L128.3018,168.68 L129.6187,168.473 L130.9357,168.266 L132.2478,168.032 L133.5583,167.799 L134.8635,167.541 L136.1703,167.283 L137.4701,166.999 L138.77,166.715 L140.0619,166.405 L141.3522,166.095 L142.6343,165.761 L143.918,165.427 L145.1917,165.067 L146.4654,164.707 L147.728,164.321 L148.9891,163.936 L150.2391,163.527 L151.4907,163.118 L152.7291,162.684 L153.9677,162.249 L155.1919,161.79 L156.4146,161.33 L157.6234,160.848 L158.8339,160.366 L160.028,159.858 L161.2223,159.35 L162.399,158.818 L163.5743,158.286 L164.7328,157.732 L165.893,157.177 L167.0336,156.598 L168.1745,156.018 L169.2946,155.414 L170.4133,154.811 L171.5121,154.186 L172.6129,153.559 L173.691,152.909 L174.7692,152.258 L175.8236,151.584 L176.8764,150.911 L177.9066,150.216 L178.9387,149.52 L179.9449,148.8 L180.9513,148.079 L181.9306,147.336 L182.9083,146.593 L183.8605,145.83 L184.8146,145.065 L185.7396,144.276 L186.6647,143.487 L187.5595,142.676 L188.4527,141.865 L189.3174,141.034 L190.184,140.201 L191.0181,139.345 L191.8523,138.488 L192.6529,137.61 L193.4518,136.732 L194.2192,135.834 L194.9883,134.934 L195.7219,134.012 L196.4553,133.089 L197.152,132.144 L197.8468,131.201 L198.5072,130.238 L199.1691,129.272 L199.792,128.285 L200.4147,127.296 L200.9973,126.287 L201.5781,125.28 L202.1213,124.253 L202.6658,123.223 L203.1679,122.172 L203.6697,121.121 L204.1279,120.049 L204.5812,118.987 L205.011,117.894 L205.4155,116.796 L205.7964,115.69 L206.1559,114.575 L206.4923,113.447 L206.8041,112.311 L207.0937,111.166 L207.3593,110.01 L207.5997,108.845 L207.8171,107.671 L208.0096,106.486 L208.1761,105.293 L208.319,104.091 L208.436,102.878 L208.5264,101.657 L208.5924,100.428 L208.6316,99.188 L208.6435,97.938 L208.6255,96.009 L208.5699,94.106 L208.4774,92.234 L208.3514,90.388 L208.189,88.57 L207.9908,86.783 L207.7602,85.022 L207.4943,83.289 L207.1935,81.586 L206.8614,79.909 L206.4948,78.259 L206.0951,76.639 L205.6652,75.045 L205.2019,73.478 L204.7068,71.941 L204.1826,70.429 L203.6262,68.944 L203.0393,67.488 L202.4244,66.058 L201.7785,64.654 L201.1035,63.28 L200.4018,61.931 L199.6701,60.607 L198.9108,59.313 L198.126,58.044 L197.3125,56.801 L196.4728,55.586 L195.6089,54.397 L194.7169,53.233 L193.8003,52.098 L192.8608,50.988 L191.8952,49.902 L190.9065,48.845 L189.8961,47.812 L188.861,46.805 L187.8043,45.825 L186.7272,44.868 L185.6268,43.937 L184.5062,43.033 L183.3665,42.152 L182.2049,41.295 L181.0245,40.465 L179.8263,39.659 L178.6075,38.876 L177.3713,38.119 L176.1185,37.385 L174.8466,36.675 L173.5585,35.99 L172.2551,35.327 L170.934,34.687 L169.5981,34.072 L168.2481,33.479 L166.8815,32.908 L165.5015,32.362 L164.1084,31.837 L162.7002,31.334 L161.2797,30.855 L159.8473,30.397 L158.4011,29.96 L156.9439,29.547 L155.4759,29.154 L153.9955,28.783 L152.5051,28.434 L151.0052,28.104 L149.4941,27.797 L147.9692,27.51 L146.4429,27.253 L144.9098,26.996 L143.3591,26.781 L141.8092,26.565 L140.2435,26.389 L138.6802,26.214 L137.1039,26.076 L135.5262,25.938 L133.9358,25.839 L132.3459,25.741 L130.7452,25.682 L129.1467,25.623 L127.5398,25.6 L125.9315,25.576 L124.3155,25.591 L122.6999,25.606 L121.0785,25.658 L119.4591,25.71 L117.8358,25.796 L116.2112,25.882 L114.5839,26.004 L112.9569,26.127 L111.3291,26.285 L109.7031,26.443 L108.0777,26.632 L106.451,26.823 L104.8266,27.047 L103.2024,27.272 L101.5825,27.531 L99.9641,27.789 L98.3509,28.078 L96.7365,28.368 L95.1294,28.69 L93.5223,29.012 L91.9245,29.367 L90.3281,29.721 L88.7416,30.104 L87.1536,30.487 L85.578,30.902 L84.0024,31.317 L82.441,31.762 L80.881,32.207 L79.3353,32.679 L77.7882,33.152 L76.2584,33.654 L74.7286,34.157 L73.2179,34.688 L71.7086,35.219 L70.2181,35.775 L68.7261,36.333 L67.2565,36.918 L65.7867,37.503 L64.3411,38.115 L62.8968,38.727 L61.4759,39.363 L60.0533,40 L58.6581,40.663 L57.2628,41.326 L55.8965,42.014 L54.5316,42.703 L53.1947,43.414 L51.8562,44.126 L50.5499,44.863 L49.2435,45.6 L47.9711,46.36 L46.7001,47.121 L45.4616,47.902 L44.2212,48.685 L43.0182,49.49 L41.8148,50.296 L40.6506,51.125 L39.4878,51.952 L38.362,52.799 L37.2342,53.648 L36.1488,54.518 L35.063,55.389 L34.0215,56.281 L32.9859,57.167 L31.9714,58.077 L30.9837,58.993 L30.0204,59.919 L29.079,60.854 L28.1612,61.8 L27.2692,62.755 L26.4001,63.718 L25.556,64.693 L24.7389,65.676 L23.9462,66.667 L23.1796,67.669 L22.4415,68.679 L21.7289,69.698 L21.0439,70.726 L20.3888,71.763 L19.7604,72.807 L19.1611,73.861 L18.5931,74.922 L18.0532,75.991 L17.5438,77.07 L17.0672,78.156 L16.62,79.248 L16.205,80.35 L15.824,81.458 L15.4739,82.573 L15.1576,83.697 L14.8768,84.826 L14.6283,85.961 L14.4152,87.105 L14.2392,88.253 L14.0967,89.406 L13.9914,90.568 L13.924,91.733 L13.8915,92.903 L13.8976,94.08 L13.9429,95.259 L14.0242,96.443 L14.1456,97.633 L14.3071,98.824 L14.5056,100.019 L14.7457,101.219 L15.0268,102.42 L15.3459,103.624 L15.7076,104.832 L16.1112,106.041 L16.5538,107.251 L17.0402,108.466 L17.568,109.677 L18.2236,111.099 L18.8988,112.499 L19.5934,113.878 L20.306,115.239 L21.0388,116.581 L21.7903,117.903 L22.5591,119.206 L23.3473,120.491 L24.1532,121.755 L24.9756,123.002 L25.8166,124.229 L26.6746,125.436 L27.5484,126.626 L28.4399,127.796 L29.3477,128.947 L30.2704,130.079 L31.2103,131.193 L32.1655,132.286 L33.1349,133.362 L34.1208,134.419 L35.121,135.456 L36.1349,136.476 L37.1644,137.477 L38.2075,138.458 L39.2635,139.421 L40.3343,140.366 L41.418,141.291 L42.5138,142.198 L43.6237,143.088 L44.7498,143.96 L45.8836,144.8 L47.0234,145.644 L48.1875,146.45 L49.3514,147.256 L50.5386,148.024 L51.7239,148.791 L52.9294,149.524 L54.1365,150.258 L55.3648,150.955 L56.593,151.651 L57.8412,152.31 L59.0875,152.968 L60.3513,153.593 L61.6166,154.218 L62.9001,154.807 L64.1833,155.395 L65.4836,155.947 L66.7821,156.497 L68.0951,157.014 L69.4098,157.532 L70.7395,158.014 L72.069,158.495 L73.4123,158.94 L74.7539,159.384 L76.1073,159.796 L77.4621,160.208 L78.829,160.584 L80.1957,160.96 L81.5732,161.301 L82.949,161.64 L84.3337,161.948 L85.72,162.256 L87.1152,162.528 L88.5101,162.8 L89.913,163.037 L91.3141,163.274 L92.7215,163.478 L94.1303,163.683 L95.545,163.853 L96.9596,164.023 L98.379,164.158 L99.7967,164.293 L101.2178,164.396 L102.6404,164.499 L104.066,164.568 L105.4913,164.637 L106.9185,164.671 L108.3441,164.705 L109.7703,164.709 L111.198,164.712 L112.6255,164.681 L114.053,164.65 L115.4792,164.585 L116.9038,164.52 L118.3264,164.425 L119.7504,164.329 L121.1713,164.2 L122.5921,164.07 L124.0086,163.907 L125.4236,163.745 L126.8338,163.552 L128.2455,163.358 L129.6509,163.132 L131.0563,162.905 L132.4544,162.646 L133.8511,162.386 L135.2402,162.097 L136.6307,161.807 L138.012,161.485 L139.3933,161.163 L140.7643,160.807 L142.1338,160.453 L143.4931,160.068 L144.8538,159.684 L146.2022,159.266 L147.5507,158.849 L148.8857,158.4 L150.2194,157.951 L151.5401,157.473 L152.8622,156.994 L154.169,156.483 L155.4758,155.972 L156.7662,155.43 L158.0553,154.888 L159.3285,154.317 L160.6033,153.745 L161.8596,153.142 L163.116,152.539 L164.353,151.904 L165.5886,151.27 L166.8056,150.608 L168.0241,149.944 L169.2212,149.25 L170.4184,148.555 L171.593,147.83 L172.7663,147.105 L173.9183,146.352 L175.0717,145.598 L176.2006,144.813 L177.3296,144.028 L178.433,143.213 L179.5351,142.399 L180.613,141.556 L181.6925,140.713 L182.7446,139.84 L183.7966,138.966 L184.8201,138.062 L185.8422,137.159 L186.8374,136.229 L187.8339,135.297 L188.7999,134.336 L189.7658,133.374 L190.7001,132.383 L191.6329,131.392 L192.5361,130.375 L193.4405,129.356 L194.3113,128.308 L195.1819,127.259 L196.0178,126.181 L196.8524,125.105 L197.6544,124.002 L198.4575,122.897 L199.2239,121.763 L199.9901,120.629 L200.7184,119.466 L201.4429,118.309 L202.1468,117.123 L202.8289,115.926 L203.4904,114.716 L204.1334,113.492 L204.7564,112.254 L205.3581,111.002 L205.9405,109.737 L206.5021,108.457 L207.0417,107.164 L207.5613,105.858 L208.0593,104.538 L208.5344,103.204 L208.989,101.858 L209.421,100.497 L209.8296,99.123 L210.2168,97.737 L210.5806,96.336 L210.9203,94.923 L211.238,93.497 L211.5314,92.057 L211.8,90.604 L212.0462,89.139 L212.2675,87.66 L212.4633,86.168 L212.6356,84.665 L212.7822,83.147 L212.9025,81.617 L212.9988,80.075 L213.0684,78.519 L213.1111,76.951 L213.1291,75.371 L213.1197,73.778 L213.0827,72.172 L213.0203,70.555 L212.9297,68.924 L212.8108,67.282 L212.6685,65.656 L212.5008,64.052 L212.3083,62.471 L212.0933,60.91 L211.8536,59.371 L211.59,57.855 L211.3044,56.359 L210.9949,54.884 L210.662,53.432 L210.3078,51.999 L209.9302,50.588 L209.53,49.199 L209.1092,47.83 L208.6656,46.482 L208.2002,45.156 L207.7147,43.85 L207.2071,42.564 L206.6785,41.3 L206.1305,40.056 L205.561,38.832 L204.9713,37.631 L204.3628,36.448 L203.7336,35.286 L203.0848,34.145 L202.4181,33.024 L201.7311,31.922 L201.0257,30.843 L200.303,29.782 L199.5609,28.74 L198.8009,27.721 L198.0243,26.72 L197.2289,25.738 L196.4166,24.778 L195.5883,23.837 L194.7419,22.914 L193.8795,22.013 L193.0018,21.13 L192.1067,20.267 L191.1964,19.424 L190.2716,18.6 L189.3302,17.794 L188.3743,17.009 L187.4047,16.242 L186.4192,15.493 L185.42,14.765 L184.4078,14.055 L183.3806,13.363 L182.3361,12.688 L181.2826,12.045 L180.2233,11.399 L179.1375,10.791 L178.0521,10.182 L176.9414,9.611 L175.8326,9.041 L174.7017,8.504 L173.5693,7.967 L172.4134,7.466 L171.2579,6.965 L170.08,6.501 L168.904,6.038 L167.7086,5.607 L166.5118,5.175 L165.2944,4.779 L164.0775,4.384 L162.8411,4.023 L161.6065,3.663 L160.3551,3.334 L159.1025,3.005 L157.8322,2.711 L156.5623,2.416 L155.2759,2.156 L153.9912,1.896 L152.6923,1.666 L151.3923,1.436 L150.0775,1.24 L148.7631,1.043 L147.435,0.879 L146.1085,0.716 L144.7705,0.582 L143.4313,0.448 L142.0804,0.346 L140.7297,0.244 L139.3683,0.174 L138.0084,0.104 L136.6394,0.062 L135.2695,0.021 L133.8906,0.01 L132.512,0 L131.1254,0.02 L129.7402,0.04 L128.3487,0.087 L126.9562,0.135 L125.5576,0.213 L124.1592,0.29 L122.7557,0.397 L121.3535,0.504 L119.9476,0.638 L118.5407,0.772 L117.1306,0.934 L115.7206,1.097 L114.3085,1.288 L112.8976,1.479 L111.4855,1.695 L110.0724,1.912 L108.6591,2.156 L107.2458,2.401 L105.8332,2.673 L104.4217,2.945 L103.0117,3.241 L101.6007,3.537 L100.1923,3.861 L98.7839,4.184 L97.3791,4.534 L95.9753,4.883 L94.5756,5.256 L93.1749,5.629 L91.7796,6.028 L90.3844,6.427 L88.9956,6.852 L87.6078,7.276 L86.2266,7.723 L84.8445,8.17 L83.4707,8.642 L82.0969,9.114 L80.7324,9.61 L79.3687,10.106 L78.0143,10.624 L76.6591,11.142 L75.3149,11.683 L73.9707,12.225 L72.6387,12.79 L71.3075,13.355 L69.9882,13.94 L68.6679,14.526 L67.3616,15.134 L66.0554,15.743 L64.764,16.373 L63.4736,17.004 L62.1976,17.654 L60.921,18.305 L59.6611,18.978 L58.4012,19.651 L57.1592,20.345 L55.918,21.038 L54.6939,21.751 L53.4689,22.464 L52.2635,23.197 L51.058,23.931 L49.8733,24.685 L48.6895,25.438 L47.5253,26.21 L46.3602,26.982 L45.2176,27.774 L44.075,28.565 L42.9559,29.376 L41.8377,30.187 L40.7418,31.014 L39.6449,31.842 L38.5734,32.689 L37.5018,33.536 L36.457,34.401 L35.413,35.266 L34.394,36.147 L33.374,37.029 L32.3823,37.929 L31.3905,38.828 L30.4281,39.745 L29.4665,40.661 L28.5326,41.592 L27.5976,42.525 L26.6938,43.474 L25.7899,44.423 L24.9183,45.388 L24.0476,46.353 L23.207,47.332 L22.3655,48.312 L21.5581,49.308 L20.7507,50.304 L19.9784,51.315 L19.207,52.325 L18.4684,53.349 L17.729,54.374 L17.0265,55.413 L16.3242,56.453 L15.6602,57.508 L14.997,58.561 L14.3694,59.627 L13.741,60.694 L13.1525,61.775 L12.5641,62.856 L12.0168,63.95 L11.4727,65.039 L10.9742,66.096 L10.4777,67.15 L10.0054,68.194 L9.5333,69.238 L9.0853,70.273 L8.6376,71.307 L8.2118,72.333 L7.7856,73.36 L7.3833,74.377 L6.981,75.394 L6.6023,76.402 L6.2239,77.41 L5.8668,78.409 L5.5095,79.408 L5.1754,80.399 L4.8414,81.389 L4.5304,82.371 L4.2197,83.351 L3.9298,84.323 L3.6386,85.299 L3.1046,87.223 L2.615,89.131 L2.1661,91.023 L1.7614,92.897 L1.4009,94.752 L1.0801,96.59 L0.8025,98.411 L0.568,100.212 L0.3722,101.997 L0.2185,103.764 L0.1068,105.512 L0.0328,107.244 L0,108.958 L0.008,110.653 L0.0527,112.331 L0.1374,113.991 L0.2611,115.632 L0.4206,117.257 L0.6192,118.864 L0.8562,120.452 L1.1279,122.022 L1.4377,123.576 L1.7846,125.11 L2.1653,126.626 L2.5829,128.126 L3.0364,129.605 L3.5225,131.068 L4.0444,132.513 L4.601,133.938 L5.189,135.346 L5.8118,136.737 L6.4679,138.108 L7.1543,139.461 L7.8743,140.797 L8.6263,142.113 L9.4073,143.413 L10.2205,144.694 L11.0645,145.956 L11.9365,147.2 L12.8397,148.427 L13.7723,149.634 L14.7319,150.824 L15.7214,151.996 L16.739,153.149 L17.7825,154.284 L18.8547,155.402 L19.9539,156.5 L21.0776,157.582 L22.2289,158.645 L23.4059,159.689 L24.6066,160.717 L25.8334,161.726 L27.0848,162.716 L28.3586,163.69 L29.6576,164.646 L30.9797,165.583 L32.3232,166.503 L33.6906,167.405 L35.0801,168.289 L36.4901,169.156 L37.9227,170.005 L39.3763,170.836 L40.8492,171.65 L42.3436,172.446 L43.8578,173.224 L45.3904,173.986 L46.9432,174.729 L48.5148,175.455 L50.1036,176.164 L51.7115,176.855 L53.337,177.528 L54.9786,178.185 L56.6385,178.824 L58.3155,179.442 L60.0076,180.044 L61.7164,180.629 L63.4405,181.195 L65.1787,181.746 L66.9324,182.279 L68.7028,182.794 L70.4871,183.284 L72.2747,183.775 L74.0897,184.231 L75.9044,184.686 L77.7448,185.106 L79.5841,185.526 L81.4455,185.914 L83.3075,186.303 L85.1923,186.656 L87.0768,187.01 L88.9824,187.329 L90.887,187.648 L92.8094,187.935 L94.7325,188.222 L96.6739,188.474 L98.615,188.727 L100.5727,188.945 L102.5295,189.162 L104.5,189.348 L106.4711,189.535 L108.4559,189.686 L110.4404,189.838 L112.4369,189.955 L114.4327,190.072 L116.4378,190.159 L118.4409,190.247 L119.4549,190.274 L120.4584,190.301 L121.4618,190.328 L122.4731,190.355 L123.488,190.364 L124.4952,190.374 L125.5023,190.384 L126.5165,190.394 L127.5334,190.388 L128.5433,190.382 L129.5531,190.376 L130.5706,190.37 L131.5904,190.347 L132.6025,190.324 L133.6145,190.302 L134.6342,190.279 L135.6553,190.239 L136.6688,190.199 L137.6822,190.159 L138.7026,190.119 L139.7236,190.063 L140.7377,190.008 L141.7517,189.953 L142.7734,189.897 L143.7949,189.825 L144.8089,189.753 L145.8229,189.681 L146.8445,189.609 L147.8651,189.519 L148.8782,189.431 L149.8914,189.342 L150.9113,189.253 L151.9298,189.149 L152.9415,189.045 L153.9531,188.941 L154.9723,188.836 L155.9891,188.715 L156.9983,188.594 L158.0076,188.474 L159.0245,188.352 L160.0381,188.213 L161.0441,188.076 L162.0502,187.939 L163.0632,187.8 L164.0726,187.647 L165.075,187.494 L166.0774,187.341 L167.0876,187.187 L168.0931,187.017 L169.0908,186.847 L170.0886,186.678 L171.0942,186.507 L172.0942,186.32 L173.0864,186.134 L174.0787,185.948 L175.0781,185.76 L176.0718,185.558 L177.0584,185.357 L178.045,185.156 L179.0396,184.954 L180.0272,184.734 L181.0068,184.517 L181.9864,184.299 L182.9768,184.079 L184.9258,183.61 L186.8768,183.14 L188.8124,182.64 L190.7487,182.139 L192.6665,181.605 L194.5845,181.072 L196.4822,180.505 L198.3792,179.938 L200.2565,179.341 L202.1348,178.744 L203.9899,178.114 L205.8451,177.484 L207.6756,176.821 L209.5054,176.159 L211.3113,175.466 L213.1182,174.773 L214.8973,174.047 L216.6766,173.321 L218.4265,172.562 L220.1757,171.804 L221.8967,171.015 L223.6188,170.227 L225.3086,169.405 L226.9986,168.583 L228.6545,167.729 L230.3073,166.876 L231.9412,165.998 L233.5553,165.105 L235.1504,164.196 L236.7284,163.272 L238.2878,162.331 L239.8271,161.374 L241.3482,160.402 L242.8494,159.414 L244.3295,158.41 L245.7902,157.39 L247.23,156.354 L248.6474,155.303 L250.0446,154.236 L251.4195,153.152 L252.7708,152.053 L254.1008,150.939 L255.4076,149.808 L256.6841,148.666 C257.0791,148.313 257.1125,147.706 256.7589,147.311 C256.4052,146.916 255.7983,146.882 255.4033,147.236 L254.1398,148.369 L252.8577,149.481 L251.5512,150.577 L250.2233,151.66 L248.8726,152.726 L247.4985,153.778 L246.1039,154.815 L244.6878,155.836 L243.2495,156.842 L241.7917,157.833 L240.3135,158.809 L238.8143,159.769 L237.2967,160.714 L235.7597,161.644 L234.2028,162.558 L232.6287,163.457 L231.0363,164.341 L229.4275,165.207 L227.7894,166.055 L226.1544,166.9 L224.4853,167.714 L222.816,168.528 L221.1143,169.309 L219.4114,170.092 L217.6805,170.844 L215.9502,171.597 L214.1904,172.317 L212.4304,173.037 L210.6426,173.725 L208.8538,174.413 L207.041,175.072 L205.2289,175.73 L203.3919,176.356 L201.5547,176.982 L199.6942,177.575 L197.8329,178.168 L195.9517,178.732 L194.0713,179.295 L192.1705,179.826 L190.2696,180.356 L188.3501,180.854 L186.4297,181.352 L184.4938,181.82 L182.5559,182.288 L181.5871,182.504 L180.6076,182.723 L179.6281,182.941 L178.6566,183.157 L177.678,183.357 L176.6915,183.559 L175.7051,183.761 L174.7257,183.961 L173.7406,184.146 L172.7484,184.332 L171.7562,184.519 L170.7717,184.704 L169.7818,184.872 L168.7841,185.041 L167.7863,185.211 L166.7963,185.379 L165.8016,185.531 L164.7991,185.684 L163.7967,185.837 L162.8013,185.989 L161.8022,186.126 L160.7963,186.263 L159.7902,186.401 L158.7919,186.538 L157.7903,186.658 L156.7811,186.778 L155.7718,186.899 L154.7702,187.019 L153.7662,187.123 L152.7546,187.227 L151.743,187.331 L150.7383,187.434 L149.7321,187.523 L148.719,187.611 L147.7059,187.7 L146.7004,187.788 L145.694,187.86 L144.6799,187.931 L143.6659,188.003 L142.6594,188.074 L141.6529,188.128 L140.6388,188.183 L139.6248,188.237 L138.6175,188.291 L137.611,188.33 L136.5975,188.369 L135.584,188.409 L134.5782,188.448 L133.5738,188.47 L132.5617,188.492 L131.5496,188.514 L130.5452,188.536 L129.5431,188.541 L128.5332,188.546 L127.5234,188.552 L126.5206,188.557 L125.5205,188.547 L124.5134,188.536 L123.5062,188.526 L122.507,188.516 L121.5113,188.489 L120.5079,188.461 L119.5045,188.434 L118.5116,188.407 L116.5191,188.318 L114.5287,188.229 L112.548,188.107 L110.568,187.986 L108.6003,187.83 L106.6326,187.674 L104.6788,187.484 L102.7242,187.294 L100.7836,187.073 L98.8438,186.851 L96.9208,186.596 L94.998,186.341 L93.0935,186.051 L91.1884,185.761 L89.3013,185.44 L87.4153,185.118 L85.5506,184.763 L83.6862,184.407 L81.8449,184.016 L80.0029,183.625 L78.1832,183.202 L76.3646,182.78 L74.5719,182.324 L72.7795,181.867 L71.0148,181.376 L69.2469,180.883 L67.5042,180.369 L65.7745,179.837 L64.0599,179.287 L62.3597,178.722 L60.6762,178.139 L59.0088,177.539 L57.3569,176.923 L55.7222,176.292 L54.1045,175.644 L52.5032,174.98 L50.921,174.299 L49.3571,173.6 L47.8107,172.886 L46.2845,172.154 L44.7779,171.404 L43.2897,170.639 L41.8231,169.857 L40.3769,169.057 L38.9504,168.241 L37.5464,167.407 L36.1642,166.557 L34.8026,165.69 L33.4647,164.806 L32.1496,163.904 L30.8562,162.987 L29.5878,162.052 L28.3434,161.099 L27.1216,160.131 L25.9259,159.146 L24.7551,158.142 L23.6081,157.123 L22.4882,156.087 L21.3943,155.033 L20.3252,153.962 L19.2842,152.876 L18.2704,151.771 L17.2823,150.65 L16.3235,149.512 L15.3929,148.356 L14.489,147.184 L13.6153,145.995 L12.771,144.788 L11.9543,143.565 L11.1689,142.325 L10.414,141.067 L9.688,139.792 L8.9942,138.501 L8.3321,137.191 L7.6994,135.864 L7.1001,134.521 L6.5334,133.159 L5.9973,131.781 L5.4954,130.385 L5.0275,128.971 L4.591,127.54 L4.1898,126.092 L3.8237,124.625 L3.4901,123.141 L3.1928,121.64 L2.9319,120.119 L2.7045,118.581 L2.5145,117.026 L2.362,115.452 L2.2442,113.86 L2.1654,112.251 L2.1257,110.622 L2.1216,108.976 L2.1572,107.312 L2.2329,105.628 L2.3454,103.927 L2.4987,102.208 L2.6935,100.469 L2.9261,98.713 L3.2007,96.939 L3.518,95.145 L3.8744,93.333 L4.2739,91.503 L4.7173,89.653 L5.2009,87.786 L5.7298,85.897 L6.0154,84.948 L6.3021,83.994 L6.6096,83.032 L6.9167,82.071 L7.2468,81.1 L7.5768,80.129 L7.93,79.149 L8.2835,78.168 L8.6582,77.178 L9.0325,76.188 L9.4304,75.19 L9.8282,74.191 L10.2498,73.182 L10.6716,72.173 L11.1153,71.155 L11.5585,70.137 L12.0259,69.111 L12.4933,68.084 L12.985,67.047 L13.4747,66.014 L14.0102,64.95 L14.5424,63.892 L15.115,62.846 L15.6877,61.8 L16.2998,60.766 L16.9127,59.731 L17.5608,58.708 L18.2079,57.685 L18.8926,56.677 L19.5771,55.667 L20.2985,54.671 L21.0206,53.674 L21.7754,52.69 L22.5292,51.706 L23.318,50.737 L24.1069,49.768 L24.9296,48.814 L25.7533,47.858 L26.607,46.916 L27.4598,45.975 L28.3447,45.049 L29.2297,44.123 L30.1457,43.213 L31.0628,42.302 L32.0072,41.406 L32.9508,40.51 L33.9236,39.631 L34.8965,38.752 L35.8977,37.89 L36.8998,37.026 L37.9268,36.179 L38.9527,35.332 L40.0049,34.502 L41.0572,33.673 L42.1348,32.861 L43.2134,32.049 L44.3143,31.253 L45.4142,30.458 L46.5378,29.681 L47.6614,28.905 L48.8075,28.147 L49.9546,27.389 L51.1213,26.648 L52.2871,25.908 L53.4736,25.188 L54.6602,24.468 L55.8663,23.768 L57.0735,23.067 L58.2976,22.385 L59.5209,21.703 L60.762,21.042 L62.0031,20.382 L63.261,19.742 L64.5196,19.101 L65.7925,18.48 L67.0646,17.86 L68.3516,17.261 L69.6387,16.662 L70.9396,16.086 L72.2414,15.509 L73.555,14.952 L74.8678,14.396 L76.1926,13.863 L77.5174,13.33 L78.8531,12.82 L80.1899,12.31 L81.5357,11.821 L82.8806,11.333 L84.2347,10.868 L85.5889,10.404 L86.951,9.964 L88.3141,9.523 L89.6838,9.105 L91.0525,8.687 L92.4274,8.295 L93.8023,7.902 L95.1825,7.534 L96.5635,7.167 L97.9485,6.822 L99.3325,6.478 L100.7198,6.16 L102.1071,5.842 L103.4968,5.551 L104.8873,5.259 L106.2792,4.991 L107.67,4.724 L109.0613,4.484 L110.4525,4.243 L111.8432,4.031 L113.2348,3.818 L114.6251,3.63 L116.0143,3.442 L117.4011,3.283 L118.7877,3.123 L120.171,2.992 L121.5552,2.861 L122.9355,2.756 L124.3145,2.651 L125.6883,2.575 L127.0619,2.5 L128.4293,2.453 L129.7976,2.407 L131.1594,2.388 L132.5198,2.368 L133.8721,2.379 L135.2242,2.39 L136.5671,2.431 L137.9111,2.472 L139.246,2.541 L140.5793,2.61 L141.9017,2.71 L143.2237,2.81 L144.5339,2.942 L145.845,3.074 L147.1445,3.234 L148.4423,3.394 L149.7263,3.587 L151.0099,3.779 L152.2787,4.004 L153.5486,4.229 L154.8043,4.483 L156.0581,4.737 L157.2953,5.025 L158.5322,5.312 L159.7513,5.632 L160.9716,5.953 L162.1751,6.305 L163.3767,6.655 L164.5588,7.04 L165.7405,7.425 L166.9017,7.844 L168.0643,8.263 L169.2073,8.714 L170.3484,9.164 L171.4672,9.649 L172.5857,10.134 L173.6808,10.654 L174.7775,11.175 L175.852,11.728 L176.9247,12.28 L177.9722,12.868 L179.0193,13.456 L180.0403,14.08 L181.0673,14.707 L182.0663,15.354 L183.055,16.021 L184.0305,16.707 L184.993,17.409 L185.9402,18.13 L186.8736,18.869 L187.7934,19.626 L188.6973,20.4 L189.5867,21.195 L190.4619,22.006 L191.3206,22.836 L192.1641,23.685 L192.9929,24.553 L193.8044,25.438 L194.6001,26.344 L195.3805,27.268 L196.1431,28.21 L196.8892,29.173 L197.6193,30.154 L198.331,31.155 L199.0254,32.176 L199.7032,33.215 L200.3619,34.274 L201.0025,35.355 L201.626,36.454 L202.2298,37.572 L202.8149,38.713 L203.3821,39.872 L203.9291,41.051 L204.4566,42.253 L204.9656,43.473 L205.4537,44.714 L205.9214,45.978 L206.3701,47.261 L206.7972,48.564 L207.2032,49.89 L207.5894,51.237 L207.9534,52.604 L208.2954,53.994 L208.6169,55.404 L208.9156,56.836 L209.1915,58.291 L209.4463,59.766 L209.6774,61.263 L209.8849,62.784 L210.0706,64.325 L210.2319,65.888 L210.3689,67.476 L210.4829,69.079 L210.5691,70.669 L210.628,72.247 L210.6621,73.812 L210.6692,75.363 L210.6497,76.902 L210.6062,78.429 L210.5365,79.941 L210.4409,81.442 L210.322,82.93 L210.1778,84.403 L210.0083,85.865 L209.8163,87.314 L209.5997,88.749 L209.3586,90.171 L209.0952,91.581 L208.8082,92.976 L208.4973,94.359 L208.1652,95.73 L207.8103,97.086 L207.4323,98.43 L207.0337,99.761 L206.6131,101.078 L206.17,102.382 L205.7071,103.673 L205.223,104.95 L204.7171,106.214 L204.192,107.466 L203.6464,108.703 L203.0798,109.927 L202.4947,111.139 L201.8898,112.336 L201.2646,113.52 L200.6216,114.692 L199.9595,115.849 L199.2805,116.988 L198.5697,118.118 L197.8628,119.242 L197.1188,120.338 L196.375,121.434 L195.5951,122.501 L194.8142,123.571 L194.0013,124.615 L193.1899,125.657 L192.3442,126.671 L191.4986,127.685 L190.62,128.67 L189.7402,129.657 L188.831,130.618 L187.9233,131.578 L186.9845,132.508 L186.0456,133.44 L185.0766,134.341 L184.1063,135.245 L183.1095,136.121 L182.1141,136.997 L181.0904,137.843 L180.0667,138.69 L179.0158,139.507 L177.9634,140.325 L176.8872,141.116 L175.8124,141.906 L174.7123,142.667 L173.6122,143.427 L172.488,144.158 L171.3623,144.889 L170.2156,145.594 L169.0702,146.297 L167.9026,146.97 L166.7349,147.644 L165.5461,148.287 L164.3559,148.931 L163.1473,149.547 L161.9401,150.163 L160.7137,150.747 L159.4872,151.333 L158.2425,151.887 L156.9965,152.442 L155.7348,152.968 L154.4745,153.494 L153.1979,153.989 L151.9214,154.485 L150.6297,154.948 L149.3366,155.413 L148.0306,155.849 L146.7259,156.284 L145.4081,156.688 L144.0903,157.092 L142.7604,157.464 L141.429,157.837 L140.0875,158.181 L138.7474,158.524 L137.3972,158.836 L136.047,159.147 L134.6876,159.427 L133.3268,159.707 L131.9587,159.957 L130.592,160.207 L129.2182,160.425 L127.8444,160.643 L126.4645,160.828 L125.0832,161.013 L123.6973,161.169 L122.3129,161.325 L120.9243,161.447 L119.5358,161.57 L118.1442,161.66 L116.7513,161.75 L115.3564,161.81 L113.9631,161.87 L112.5687,161.896 L111.1744,161.923 L109.7801,161.916 L108.3844,161.909 L106.9895,161.872 L105.5962,161.835 L104.2048,161.764 L102.8137,161.694 L101.4254,161.589 L100.0357,161.485 L98.6497,161.349 L97.2653,161.214 L95.8858,161.045 L94.5065,160.876 L93.1332,160.672 L91.7585,160.469 L90.3901,160.234 L89.0235,160 L87.6648,159.731 L86.3063,159.462 L84.9568,159.159 L83.6058,158.855 L82.2639,158.52 L80.9238,158.185 L79.5947,157.816 L78.2657,157.446 L76.9488,157.042 L75.6304,156.637 L74.3238,156.201 L73.019,155.765 L71.7283,155.293 L70.4376,154.823 L69.162,154.316 L67.8849,153.809 L66.6223,153.27 L65.3615,152.732 L64.1176,152.159 L62.8739,151.585 L61.6482,150.976 L60.4209,150.366 L59.2108,149.724 L58.0026,149.082 L56.8143,148.405 L55.6262,147.728 L54.459,147.015 L53.2902,146.301 L52.1414,145.553 L50.9944,144.808 L49.8702,144.025 L48.7461,143.244 L47.6461,142.425 L46.5399,141.602 L45.4602,140.762 L44.3897,139.9 L43.3314,139.02 L42.285,138.123 L41.2528,137.208 L40.2335,136.275 L39.2267,135.324 L38.235,134.356 L37.2568,133.369 L36.2919,132.364 L35.3427,131.342 L34.4078,130.301 L33.4868,129.242 L32.5822,128.166 L31.6927,127.07 L30.8177,125.957 L29.9598,124.825 L29.1177,123.675 L28.2908,122.506 L27.4817,121.32 L26.6891,120.114 L25.9125,118.89 L25.1543,117.649 L24.4134,116.387 L23.6891,115.108 L22.9836,113.81 L22.2961,112.492 L21.626,111.157 L20.9755,109.803 L20.3451,108.431 L19.851,107.293 L19.4005,106.163 L18.9904,105.036 L18.6172,103.913 L18.2847,102.797 L17.9912,101.683 L17.7332,100.573 L17.5143,99.47 L17.3332,98.37 L17.1862,97.274 L17.0767,96.184 L17.0037,95.098 L16.9637,94.015 L16.9597,92.94 L16.9912,91.866 L17.0545,90.798 L17.1524,89.736 L17.2849,88.677 L17.4482,87.622 L17.6446,86.574 L17.8747,85.528 L18.1346,84.487 L18.4266,83.453 L18.7514,82.423 L19.1053,81.396 L19.4902,80.377 L19.907,79.362 L20.3519,78.351 L20.8267,77.348 L21.3326,76.349 L21.8657,75.355 L22.4275,74.369 L23.0194,73.387 L23.6376,72.411 L24.2834,71.443 L24.9582,70.481 L25.6584,69.525 L26.385,68.577 L27.1396,67.635 L27.9184,66.7 L28.7226,65.773 L29.5535,64.854 L30.4076,63.941 L31.2859,63.038 L32.1898,62.142 L33.1158,61.253 L34.0648,60.374 L35.0336,59.508 L36.0434,58.645 L37.0472,57.787 L38.0953,56.948 L39.1437,56.109 L40.2346,55.29 L41.3274,54.469 L42.4573,53.666 L43.5859,52.865 L44.7537,52.084 L45.9217,51.304 L47.1273,50.545 L48.3347,49.784 L49.5746,49.044 L50.8132,48.305 L52.086,47.589 L53.359,46.872 L54.6645,46.179 L55.9717,45.485 L57.3066,44.813 L58.6403,44.141 L60.0032,43.495 L61.3663,42.847 L62.7567,42.226 L64.1487,41.603 L65.5643,41.004 L66.9784,40.406 L68.4167,39.834 L69.8552,39.262 L71.316,38.717 L72.7783,38.172 L74.2594,37.651 L75.7391,37.132 L77.2381,36.64 L78.7371,36.148 L80.2534,35.686 L81.771,35.223 L83.303,34.786 L84.8335,34.35 L86.3782,33.944 L87.9228,33.538 L89.4797,33.163 L91.0379,32.787 L92.6059,32.44 L94.1723,32.092 L95.7479,31.777 L97.3232,31.461 L98.9059,31.178 L100.4899,30.895 L102.079,30.642 L103.6666,30.388 L105.2581,30.169 L106.8494,29.949 L108.443,29.763 L110.0379,29.577 L111.6334,29.423 L113.227,29.269 L114.8198,29.15 L116.4122,29.031 L118.0018,28.947 L119.5926,28.864 L121.1796,28.814 L122.7645,28.763 L124.3435,28.75 L125.9221,28.736 L127.4927,28.76 L129.0648,28.783 L130.6284,28.842 L132.1897,28.9 L133.74,28.996 L135.2898,29.093 L136.8267,29.228 L138.3651,29.364 L139.8903,29.536 L141.4131,29.707 L142.9199,29.919 L144.4258,30.131 L145.9139,30.384 L147.4087,30.638 L148.8788,30.919 L150.3426,31.22 L151.7965,31.542 L153.2401,31.884 L154.6708,32.246 L156.0906,32.629 L157.4988,33.032 L158.893,33.456 L160.2749,33.902 L161.6442,34.367 L162.998,34.853 L164.3385,35.362 L165.6653,35.89 L166.9753,36.441 L168.2708,37.013 L169.5514,37.607 L170.8141,38.221 L172.061,38.86 L173.2919,39.518 L174.5037,40.199 L175.6985,40.904 L176.8764,41.629 L178.0339,42.377 L179.1735,43.148 L180.295,43.941 L181.395,44.756 L182.4759,45.596 L183.5377,46.458 L184.577,47.342 L185.5961,48.252 L186.595,49.183 L187.5704,50.138 L188.5243,51.118 L189.4573,52.121 L190.3657,53.147 L191.2514,54.2 L192.1152,55.275 L192.9533,56.374 L193.7683,57.5 L194.5604,58.649 L195.3259,59.823 L196.0663,61.024 L196.7829,62.249 L197.4717,63.5 L198.1343,64.778 L198.772,66.081 L199.3809,67.41 L199.9622,68.767 L200.5174,70.15 L201.0428,71.559 L201.5393,72.997 L202.0085,74.461 L202.4468,75.952 L202.8547,77.473 L203.2342,79.021 L203.5817,80.595 L203.8973,82.201 L204.1834,83.833 L204.4365,85.493 L204.6564,87.185 L204.8455,88.903 L204.9999,90.651 L205.1197,92.43 L205.2074,94.237 L205.2593,96.072 L205.275,97.943 L205.2628,99.117 L205.2248,100.283 L205.1615,101.441 L205.0754,102.59 L204.9646,103.728 L204.8291,104.859 L204.6715,105.981 L204.4901,107.091 L204.2847,108.194 L204.0578,109.289 L203.808,110.372 L203.5348,111.448 L203.241,112.515 L202.9252,113.571 L202.5867,114.62 L202.2281,115.659 L201.8482,116.688 L201.4492,117.701 L201.0142,118.718 L200.584,119.725 L200.1116,120.712 L199.6395,121.7 L199.1265,122.668 L198.6121,123.639 L198.0613,124.593 L197.5123,125.544 L196.924,126.475 L196.3359,127.407 L195.7098,128.319 L195.0821,129.234 L194.4206,130.13 L193.7609,131.024 L193.0649,131.898 L192.369,132.773 L191.6381,133.627 L190.9053,134.484 L190.1415,135.321 L189.3794,136.158 L188.5842,136.973 L187.789,137.789 L186.9618,138.583 L186.1326,139.38 L185.2753,140.157 L184.4196,140.934 L183.5337,141.688 L182.6478,142.443 L181.7329,143.177 L180.816,143.912 L179.8737,144.627 L178.933,145.341 L177.9654,146.033 L176.9976,146.725 L176.0038,147.395 L175.0082,148.066 L173.99,148.717 L172.9734,149.367 L171.933,149.994 L170.8923,150.622 L169.8289,151.226 L168.7637,151.832 L167.6787,152.416 L166.5952,153 L165.4911,153.561 L164.3868,154.122 L163.2629,154.659 L162.1373,155.198 L160.9949,155.714 L159.8539,156.231 L158.6954,156.723 L157.5367,157.215 L156.3617,157.684 L155.1849,158.153 L153.9942,158.6 L152.805,159.047 L151.6014,159.469 L150.3976,159.891 L149.1807,160.288 L147.9621,160.687 L146.7325,161.062 L145.5043,161.437 L144.2649,161.787 L143.0255,162.138 L141.7761,162.463 L140.525,162.788 L139.2657,163.091 L138.008,163.393 L136.7422,163.67 L135.4765,163.946 L134.2039,164.197 L132.9297,164.449 L131.6503,164.676 L130.3724,164.904 L129.0897,165.105 L127.807,165.307 L126.5206,165.482 L125.2328,165.657 L123.9424,165.809 L122.6538,165.96 L121.3635,166.085 L120.0733,166.21 L118.7826,166.308 L117.4904,166.406 L116.1986,166.48 L114.9086,166.553 L113.6201,166.6 L112.3318,166.647 L111.0461,166.666 L109.759,166.685 L108.4752,166.68 L107.1932,166.674 L105.9159,166.641 L104.6389,166.608 L103.3677,166.547 L102.095,166.487 L100.8286,166.401 L99.5641,166.315 L98.3075,166.201 L97.0511,166.087 L95.8038,165.945 L94.5549,165.802 L93.3152,165.634 L92.0776,165.467 L90.851,165.27 L89.6248,165.074 L88.4107,164.849 L87.1951,164.624 L85.9914,164.373 L84.79,164.122 L83.6028,163.842 L82.416,163.563 L81.2446,163.254 L80.0714,162.945 L78.9132,162.61 L77.7573,162.275 L76.6188,161.911 L75.4806,161.547 L74.361,161.153 L73.2396,160.759 L72.136,160.338 L71.0348,159.919 L69.9541,159.469 L68.8738,159.019 L67.8152,158.54 L66.7547,158.06 L65.7148,157.552 L64.6774,157.046 L63.6636,156.51 L62.6503,155.974 L61.6616,155.408 L60.6709,154.841 L59.7036,154.245 L58.7389,153.652 L57.8008,153.028 L56.8631,152.405 L55.9531,151.751 L55.041,151.095 L54.155,150.412 L53.2715,149.73 L52.4177,149.018 L51.564,148.306 L50.7411,147.562 L49.9102,146.812 L49.1133,146.053 L48.3281,145.273 L47.5581,144.477 L46.8032,143.666 L46.0662,142.841 L45.3451,141.999 L44.6397,141.143 L43.9529,140.272 L43.2828,139.384 L42.629,138.482 L41.9944,137.564 L41.3773,136.63 L40.777,135.68 L40.1967,134.716 L39.6346,133.734 L39.09,132.737 L38.5659,131.725 L38.061,130.695 L37.5742,129.649 L37.1085,128.589 L36.6628,127.51 L36.236,126.416 L35.8308,125.306 L35.4465,124.178 L35.0819,123.034 L34.7396,121.874 L34.4191,120.696 L34.1189,119.501 L33.8418,118.291 L33.5873,117.061 L33.4899,116.51 L33.4086,115.914 L33.3434,115.268 L33.2935,114.581 L33.261,113.853 L33.2459,113.083 L33.2468,112.278 L33.2654,111.436 L33.3017,110.558 L33.354,109.648 L33.4237,108.706 L33.5109,107.732 L33.6138,106.731 L33.7339,105.702 L33.871,104.644 L34.0236,103.563 L34.1926,102.457 L34.3778,101.332 L34.5868,100.167 L34.7948,99.008 L35.035,97.809 L35.2752,96.61 L35.5469,95.376 L35.8189,94.14 L36.119,92.878 L36.4186,91.616 L36.7486,90.329 L37.0784,89.042 L37.4378,87.735 L37.7974,86.426 L38.1833,85.103 L38.5686,83.781 L38.9822,82.447 L39.3956,81.114 L39.8365,79.774 L40.2776,78.433 L40.7431,77.091 L41.2079,75.749 L41.699,74.411 L42.1897,73.072 L42.7058,71.741 L43.2221,70.409 L43.761,69.088 L44.2989,67.769 L44.861,66.466 L45.4225,65.163 L46.0073,63.882 L46.5923,62.6 L47.1979,61.341 L47.8022,60.085 L48.4285,58.859 L49.0538,57.634 L49.7004,56.443 L50.3497,55.248 L51.0071,54.089 L51.6761,52.948 L52.3549,51.829 L53.0418,50.732 L53.7368,49.661 L54.4411,48.614 L55.1528,47.593 L55.8715,46.602 L56.5988,45.639 L57.3327,44.705 L58.0726,43.804 L58.8201,42.935 L59.5734,42.097 L60.3311,41.297 L61.0958,40.531 L61.865,39.801 L62.6371,39.11 L63.4153,38.458 L64.1967,37.844 L64.9791,37.273 L65.7667,36.743 L66.5562,36.252 L67.3448,35.808 L68.1381,35.407 L68.9321,35.048 L69.7238,34.737 L70.5202,34.47 L71.3173,34.247 L72.1115,34.072 L72.9118,33.945 L73.714,33.862 L74.5146,33.828 L75.3238,33.844 L76.1374,33.907 L76.952,34.022 L77.778,34.192 L78.611,34.412 L79.4477,34.688 L80.2973,35.024 L81.1553,35.416 L82.0186,35.869 L82.9276,36.409 C83.7255,36.883 84.7562,36.62 85.2298,35.822 C85.7034,35.024 85.4405,33.993 84.6426,33.52 Z" id="Fill-98"></path>
            <path d="M123.8163,182.449 C355.4638,158.258 119.0352,-88.416 21.986,72.089 C-31.2284,160.098 125.8907,217.162 192.2547,141.571" id="Fill-108"></path>
            <path d="M124.0003,184.119 L125.7923,183.922 L127.5948,183.724 L129.3586,183.507 L131.1224,183.291 L132.8477,183.056 L134.5721,182.821 L136.2617,182.57 L137.9523,182.319 L139.605,182.049 L141.2577,181.78 L142.8728,181.494 L144.4868,181.207 L146.0668,180.905 L147.6479,180.603 L149.1919,180.284 L150.7359,179.964 L152.243,179.628 L153.7491,179.292 L155.2219,178.941 L156.6959,178.59 L158.1335,178.223 L159.5712,177.856 L160.9728,177.472 L162.3732,177.089 L163.7411,176.692 L165.1103,176.294 L166.4439,175.881 L167.7776,175.468 L169.076,175.04 L170.3732,174.612 L171.6385,174.17 L172.9053,173.728 L174.1372,173.271 L175.3693,172.815 L176.5668,172.343 L177.763,171.873 L178.928,171.389 L180.0946,170.905 L181.2272,170.407 L182.3598,169.908 L183.4587,169.397 L184.5562,168.885 L185.6232,168.362 L186.6918,167.838 L187.7273,167.3 L188.7627,166.763 L189.7652,166.212 L190.766,165.662 L191.7372,165.101 L192.71,164.539 L193.6504,163.964 L194.5907,163.389 L195.4988,162.802 L196.4053,162.216 L197.2828,161.62 L198.1619,161.021 L199.0093,160.412 L199.8566,159.802 L200.6722,159.181 L201.4918,158.556 L203.0588,157.298 L204.571,156.013 L206.0198,154.707 L207.4128,153.383 L208.7466,152.036 L210.0182,150.672 L211.2353,149.29 L212.3942,147.888 L213.4923,146.47 L214.5369,145.036 L215.5245,143.583 L216.4527,142.116 L217.3285,140.635 L218.1484,139.137 L218.9103,137.627 L219.6211,136.105 L220.277,134.567 L220.8768,133.02 L221.4265,131.463 L221.9227,129.892 L222.3644,128.314 L222.7575,126.728 L223.0981,125.13 L223.386,123.527 L223.6269,121.917 L223.8171,120.298 L223.9566,118.676 L224.0507,117.049 L224.0955,115.415 L224.0916,113.779 L224.0436,112.14 L223.9478,110.496 L223.8053,108.852 L223.6207,107.207 L223.3901,105.558 L223.1149,103.912 L222.7992,102.265 L222.4392,100.617 L222.0362,98.972 L221.5939,97.329 L221.1091,95.687 L220.5834,94.049 L220.0205,92.414 L219.4167,90.781 L218.7738,89.155 L218.0953,87.533 L217.3769,85.915 L216.6208,84.305 L215.8307,82.701 L215.003,81.103 L214.1398,79.514 L213.244,77.932 L212.3122,76.357 L211.3462,74.793 L210.3475,73.239 L209.3145,71.695 L208.2493,70.162 L207.1545,68.639 L206.0272,67.127 L204.8691,65.629 L203.6831,64.143 L202.4667,62.668 L201.2213,61.208 L199.9493,59.761 L198.6479,58.328 L197.319,56.912 L195.9651,55.511 L194.5832,54.125 L193.1781,52.754 L191.7493,51.399 L190.2941,50.062 L188.8146,48.744 L187.3128,47.443 L185.7861,46.161 L184.2369,44.9 L182.667,43.658 L181.0737,42.437 L179.4594,41.238 L177.8256,40.059 L176.17,38.903 L174.498,37.772 L173.6489,37.216 L172.8018,36.66 L171.9451,36.117 L171.0883,35.574 L170.2223,35.043 L169.3571,34.513 L168.4836,33.995 L167.6091,33.476 L166.7258,32.971 L165.8424,32.465 L164.9506,31.973 L164.0595,31.481 L163.161,31.001 L162.2614,30.521 L161.3536,30.056 L160.4456,29.591 L159.5298,29.139 L158.6151,28.689 L157.6935,28.251 L156.7709,27.813 L155.841,27.39 L154.9109,26.967 L153.9741,26.559 L153.0381,26.151 L152.0961,25.757 L151.1529,25.363 L150.2033,24.985 L149.2535,24.606 L148.2977,24.243 L147.3428,23.881 L146.3827,23.534 L145.4213,23.186 L144.4542,22.854 L143.4871,22.523 L142.5146,22.208 L141.5431,21.894 L140.567,21.595 L139.5897,21.295 L138.6075,21.013 L137.6251,20.732 L136.6382,20.467 L135.6522,20.204 L134.6625,19.957 L133.6713,19.709 L132.6761,19.48 L131.6808,19.25 L130.6818,19.039 L129.6839,18.829 L128.6829,18.635 L127.6805,18.441 L126.6749,18.266 L125.6691,18.091 L124.6603,17.936 L123.6528,17.781 L122.6428,17.643 L121.6313,17.506 L120.6175,17.389 L119.6035,17.271 L118.5875,17.174 L117.5726,17.077 L116.5561,16.998 L115.5381,16.92 L114.5185,16.862 L113.4988,16.804 L112.4778,16.767 L111.4581,16.73 L110.4375,16.712 L109.4153,16.695 L108.3924,16.699 L107.3694,16.703 L106.3458,16.729 L105.3237,16.755 L104.3013,16.801 L103.2774,16.847 L102.2536,16.916 L101.2296,16.985 L100.206,17.076 L99.1838,17.167 L98.1622,17.279 L97.139,17.391 L96.1167,17.527 L95.0944,17.663 L94.0732,17.822 L93.0535,17.981 L92.035,18.162 L91.0151,18.343 L89.9969,18.548 L88.9786,18.754 L87.9623,18.983 L86.9475,19.212 L85.9348,19.464 L84.9205,19.716 L83.9089,19.993 L82.8972,20.27 L81.8883,20.572 L80.8809,20.874 L79.8763,21.198 L78.8703,21.524 L77.8676,21.874 L76.865,22.225 L75.866,22.602 L74.8685,22.979 L73.8746,23.379 L72.8793,23.78 L71.8882,24.207 L70.8972,24.635 L69.9106,25.089 L68.9255,25.543 L67.9447,26.021 L66.9626,26.5 L65.9856,27.006 L65.0087,27.512 L64.037,28.046 L63.0668,28.579 L62.1017,29.137 L61.1353,29.696 L60.1749,30.283 L59.2145,30.87 L58.2602,31.486 L57.3074,32.101 L56.3603,32.741 L55.4122,33.383 L54.4707,34.053 L53.5294,34.724 L52.595,35.423 L51.6619,36.122 L50.7354,36.847 L49.8079,37.573 L48.8879,38.329 L47.9678,39.085 L47.0553,39.87 L46.1439,40.654 L45.2398,41.466 L44.3348,42.279 L43.4382,43.122 L42.5416,43.965 L41.6536,44.838 L40.7667,45.711 L39.8878,46.612 L39.0082,47.514 L38.1374,48.447 L37.2668,49.379 L36.4055,50.344 L35.5452,51.307 L34.6935,52.299 L33.8413,53.292 L32.9989,54.317 L32.1566,55.342 L31.3245,56.399 L30.4932,57.455 L29.6711,58.541 L28.848,59.627 L28.0355,60.746 L27.2232,61.865 L26.4217,63.016 L25.621,64.167 L24.8305,65.349 L24.0394,66.531 L23.2598,67.746 L22.4803,68.962 L21.7123,70.211 L20.9451,71.46 L20.1212,72.851 L19.3321,74.238 L18.5783,75.619 L17.8561,76.996 L17.1679,78.368 L16.5143,79.735 L15.8916,81.096 L15.3015,82.453 L14.7453,83.803 L14.2193,85.148 L13.726,86.489 L13.2657,87.823 L12.835,89.151 L12.4363,90.475 L12.0699,91.792 L11.7324,93.103 L11.4258,94.408 L11.1505,95.706 L10.9034,96.999 L10.6869,98.285 L10.5012,99.564 L10.3431,100.837 L10.2149,102.104 L10.1167,103.363 L10.0454,104.615 L10.0033,105.862 L9.9904,107.099 L10.0037,108.33 L10.0455,109.554 L10.1156,110.769 L10.2112,111.978 L10.3347,113.179 L10.4855,114.371 L10.661,115.555 L10.8638,116.732 L11.093,117.9 L11.3462,119.06 L11.6258,120.212 L11.931,121.354 L12.2594,122.487 L12.6134,123.613 L12.9921,124.729 L13.3932,125.836 L13.8192,126.935 L14.2689,128.023 L14.7403,129.102 L15.2357,130.173 L15.7539,131.232 L16.2931,132.283 L16.8555,133.325 L17.44,134.355 L18.0446,135.376 L18.6716,136.388 L19.3224,137.393 L19.9958,138.374 L20.6733,139.36 L21.3923,140.326 L22.1113,141.291 L22.8706,142.235 L23.6287,143.177 L24.4223,144.1 L25.218,145.023 L26.0518,145.924 L26.8855,146.824 L27.7562,147.702 L28.6255,148.578 L29.5276,149.434 L30.4308,150.291 L31.369,151.125 L32.3069,151.958 L33.2787,152.768 L34.2491,153.577 L35.2499,154.363 L36.2518,155.15 L37.2853,155.913 L38.3187,156.676 L39.3826,157.414 L40.4452,158.151 L41.5345,158.866 L42.625,159.581 L43.744,160.272 L44.8627,160.962 L46.0092,161.626 L47.1543,162.289 L48.3234,162.929 L49.4936,163.569 L50.689,164.183 L51.8843,164.797 L53.1037,165.384 L54.3218,165.971 L55.561,166.534 L56.8012,167.096 L58.0634,167.632 L59.3254,168.168 L60.6085,168.677 L61.8903,169.184 L63.1903,169.667 L64.4913,170.15 L65.8112,170.605 L67.131,171.06 L68.4687,171.486 L69.8052,171.912 L71.1566,172.313 L72.509,172.714 L73.8772,173.086 L75.2454,173.458 L76.6283,173.801 L78.0101,174.143 L79.4044,174.458 L80.7996,174.773 L82.2076,175.059 L83.6154,175.344 L85.0347,175.6 L86.4529,175.855 L87.8809,176.082 L89.3097,176.309 L90.7482,176.505 L92.1867,176.701 L93.6336,176.865 L95.0795,177.03 L96.532,177.165 L97.9857,177.301 L99.4457,177.404 L100.9058,177.508 L102.3711,177.579 L103.8355,177.649 L105.3038,177.69 L106.7731,177.731 L108.2457,177.738 L109.7183,177.744 L111.193,177.712 L112.6666,177.681 L114.141,177.618 L115.6164,177.555 L117.0919,177.458 L118.5673,177.361 L120.0416,177.229 L121.5147,177.097 L122.9859,176.934 L124.4582,176.771 L125.9274,176.573 L127.3966,176.375 L128.8615,176.141 L130.3254,175.907 L131.7844,175.64 L133.2444,175.373 L134.6981,175.069 L136.152,174.767 L137.5991,174.429 L139.0452,174.092 L140.4836,173.722 L141.9233,173.35 L143.3534,172.942 L144.7838,172.533 L146.2035,172.086 L147.6223,171.639 L149.0306,171.158 L150.4405,170.677 L151.8378,170.157 L153.2353,169.638 L154.6191,169.079 L156.0018,168.521 L157.3712,167.926 L158.7418,167.331 L160.0967,166.697 L161.4518,166.062 L162.7902,165.388 L164.1277,164.714 L165.449,164.003 L166.7714,163.291 L168.0749,162.539 L169.3786,161.786 L170.6622,160.992 L171.9448,160.199 L173.2082,159.368 L174.4731,158.536 L175.7158,157.662 L176.9587,156.788 L178.1782,155.872 L179.394,154.958 L180.5994,154.011 L181.7902,153.043 L182.9678,152.055 L184.1337,151.047 L185.287,150.016 L186.4262,148.964 L187.553,147.892 L188.6662,146.798 L189.7647,145.681 L190.8499,144.545 L191.9208,143.386 L192.9714,142.21 C193.3242,141.814 193.2893,141.207 192.8935,140.855 C192.4977,140.502 191.8909,140.537 191.5381,140.932 L190.501,142.099 L189.4543,143.237 L188.3925,144.354 L187.3177,145.452 L186.2294,146.527 L185.1266,147.581 L184.0116,148.615 L182.8837,149.628 L181.7423,150.62 L180.5892,151.592 L179.4241,152.543 L178.2488,153.472 L177.0514,154.376 L175.8577,155.278 L174.6409,156.137 L173.4241,156.998 L172.1853,157.816 L170.9452,158.636 L169.686,159.418 L168.4279,160.199 L167.1498,160.94 L165.8716,161.681 L164.5747,162.382 L163.2765,163.083 L161.9623,163.748 L160.6489,164.413 L159.3185,165.037 L157.9879,165.662 L156.6417,166.247 L155.2943,166.833 L153.9336,167.383 L152.5738,167.933 L151.2004,168.445 L149.827,168.956 L148.441,169.43 L147.0534,169.903 L145.6554,170.341 L144.2583,170.779 L142.8508,171.179 L141.4432,171.579 L140.0262,171.943 L138.6081,172.306 L137.1826,172.636 L135.7579,172.966 L134.3253,173.257 L132.8926,173.547 L131.4538,173.801 L130.0139,174.055 L128.5695,174.276 L127.126,174.498 L125.6786,174.684 L124.2311,174.87 L122.7806,175.021 L121.329,175.171 L119.8757,175.289 L118.4235,175.408 L116.9703,175.492 L115.5173,175.576 L114.0644,175.625 L112.6105,175.675 L111.1578,175.695 L109.7062,175.714 L108.2568,175.704 L106.8074,175.695 L105.3612,175.654 L103.9139,175.612 L102.4706,175.541 L101.0283,175.47 L99.5912,175.366 L98.1541,175.263 L96.7234,175.128 L95.2917,174.992 L93.8669,174.828 L92.443,174.664 L91.0276,174.468 L89.6122,174.273 L88.2064,174.046 L86.7996,173.82 L85.4025,173.566 L84.0063,173.312 L82.6219,173.028 L81.2377,172.743 L79.8661,172.429 L78.4937,172.114 L77.1338,171.773 L75.775,171.432 L74.4309,171.062 L73.087,170.692 L71.759,170.294 L70.4299,169.895 L69.1168,169.469 L67.8048,169.044 L66.5109,168.591 L65.217,168.138 L63.9423,167.657 L62.6666,167.176 L61.4092,166.671 L60.1531,166.165 L58.9181,165.634 L57.6833,165.102 L56.4708,164.543 L55.2574,163.985 L54.0652,163.402 L52.8743,162.82 L51.7077,162.213 L50.5413,161.606 L49.4003,160.973 L48.2583,160.34 L47.1403,159.685 L46.0236,159.03 L44.934,158.352 L43.8446,157.673 L42.7838,156.971 L41.7219,156.268 L40.6869,155.543 L39.6533,154.819 L38.6502,154.072 L37.6473,153.325 L36.6761,152.556 L35.7039,151.785 L34.7607,150.995 L33.8189,150.206 L32.9108,149.394 L32.0027,148.583 L31.1295,147.75 L30.2551,146.916 L29.4133,146.063 L28.5727,145.211 L27.769,144.338 L26.9653,143.466 L26.1994,142.572 L25.4316,141.678 L24.6992,140.766 L23.9679,139.855 L23.2764,138.924 L22.585,137.994 L21.9344,137.044 L21.2797,136.089 L20.6597,135.129 L20.0586,134.157 L19.4783,133.175 L18.9177,132.184 L18.3793,131.186 L17.8625,130.177 L17.3659,129.16 L16.8925,128.135 L16.4413,127.1 L16.0112,126.058 L15.6047,125.007 L15.2214,123.948 L14.8597,122.88 L14.5224,121.805 L14.209,120.72 L13.9179,119.628 L13.6519,118.529 L13.4106,117.42 L13.1922,116.304 L12.9996,115.181 L12.8325,114.049 L12.6891,112.91 L12.572,111.764 L12.4813,110.609 L12.415,109.446 L12.3758,108.277 L12.3639,107.1 L12.377,105.915 L12.418,104.724 L12.4871,103.524 L12.5821,102.317 L12.7055,101.104 L12.8581,99.883 L13.0372,98.655 L13.2456,97.42 L13.4841,96.178 L13.7498,94.929 L14.0459,93.674 L14.3734,92.411 L14.7289,91.142 L15.1153,89.867 L15.5336,88.584 L15.9807,87.295 L16.4595,86.001 L16.9711,84.699 L17.5123,83.391 L18.0861,82.078 L18.694,80.758 L19.3325,79.432 L20.0043,78.102 L20.7106,76.764 L21.4482,75.421 L22.2198,74.073 L23.027,72.719 L23.7867,71.49 L24.5456,70.263 L25.316,69.069 L26.0862,67.876 L26.8673,66.716 L27.6489,65.555 L28.4402,64.425 L29.2307,63.296 L30.0316,62.2 L30.8324,61.103 L31.6432,60.04 L32.4551,58.976 L33.2762,57.942 L34.0964,56.909 L34.9262,55.908 L35.7559,54.907 L36.5948,53.938 L37.4343,52.968 L38.2821,52.027 L39.1289,51.087 L39.9844,50.178 L40.84,49.269 L41.704,48.392 L42.5688,47.514 L43.4412,46.663 L44.3124,45.814 L45.1916,44.995 L46.0706,44.176 L46.9573,43.388 L47.8448,42.598 L48.7392,41.836 L49.6323,41.074 L50.5328,40.343 L51.4334,39.612 L52.3409,38.91 L53.2493,38.207 L54.1638,37.531 L55.0769,36.855 L55.9965,36.209 L56.9158,35.562 L57.8413,34.944 L58.7679,34.325 L59.6997,33.731 L60.6302,33.139 L61.5663,32.574 L62.5023,32.009 L63.4436,31.472 L64.3861,30.934 L65.3332,30.421 L66.2789,29.909 L67.2294,29.424 L68.1797,28.938 L69.1347,28.48 L70.0909,28.02 L71.0511,27.585 L72.0098,27.15 L72.9725,26.742 L73.9352,26.333 L74.9017,25.951 L75.8696,25.567 L76.8406,25.207 L77.8102,24.848 L78.783,24.514 L79.7559,24.18 L80.7317,23.871 L81.709,23.561 L82.6888,23.274 L83.6672,22.987 L84.6481,22.725 L85.629,22.462 L86.6121,22.224 L87.5967,21.986 L88.5832,21.769 L89.5682,21.553 L90.5549,21.36 L91.5417,21.167 L92.53,20.998 L93.5198,20.828 L94.5107,20.679 L95.5002,20.53 L96.4907,20.405 L97.4813,20.279 L98.4725,20.175 L99.4653,20.071 L100.4586,19.988 L101.4504,19.904 L102.4424,19.843 L103.4346,19.781 L104.4267,19.742 L105.4203,19.702 L106.4137,19.681 L107.4058,19.661 L108.3973,19.662 L109.3889,19.663 L110.3797,19.685 L111.372,19.706 L112.3633,19.746 L113.3534,19.787 L114.3422,19.847 L115.331,19.908 L116.3183,19.989 L117.3071,20.07 L118.2941,20.169 L119.28,20.267 L120.2637,20.386 L121.2476,20.504 L122.2291,20.642 L123.212,20.78 L124.1926,20.935 L125.1721,21.089 L126.1486,21.262 L127.1254,21.436 L128.0989,21.627 L129.0738,21.819 L130.0457,22.028 L131.0164,22.236 L131.9835,22.463 L132.9507,22.689 L133.9139,22.933 L134.8785,23.177 L135.8393,23.437 L136.799,23.697 L137.7544,23.973 L138.71,24.25 L139.6608,24.543 L140.6128,24.837 L141.5604,25.146 L142.507,25.454 L143.4482,25.779 L144.3896,26.104 L145.3255,26.445 L146.2626,26.786 L147.1945,27.142 L148.1254,27.498 L149.0502,27.869 L149.9751,28.24 L150.8937,28.626 L151.8135,29.013 L152.7274,29.413 L153.6402,29.813 L154.5462,30.227 L155.4523,30.642 L156.3513,31.071 L157.2515,31.501 L158.1448,31.943 L159.0373,32.385 L159.9222,32.841 L160.8072,33.297 L161.6845,33.766 L162.5629,34.236 L163.4338,34.717 L164.304,35.199 L165.1656,35.693 L166.0273,36.187 L166.8804,36.695 L167.7344,37.202 L168.5803,37.721 L169.4253,38.24 L170.2612,38.771 L171.0971,39.302 L171.9235,39.845 L172.7479,40.386 L174.3871,41.496 L176.0026,42.625 L177.5984,43.778 L179.1752,44.951 L180.7295,46.144 L182.2626,47.359 L183.7748,48.592 L185.2631,49.844 L186.7284,51.116 L188.1718,52.405 L189.5895,53.71 L190.9827,55.034 L192.3524,56.373 L193.6922,57.73 L195.0058,59.104 L196.2944,60.491 L197.5542,61.891 L198.7861,63.307 L199.9916,64.734 L201.1666,66.173 L202.3115,67.626 L203.4285,69.089 L204.5135,70.562 L205.5676,72.046 L206.5922,73.539 L207.5833,75.04 L208.5419,76.551 L209.4714,78.069 L210.3662,79.592 L211.2269,81.123 L212.0554,82.661 L212.8474,84.203 L213.6038,85.751 L214.3266,87.303 L215.0119,88.858 L215.6605,90.418 L216.2743,91.98 L216.8487,93.543 L217.3844,95.109 L217.884,96.677 L218.3428,98.243 L218.7613,99.811 L219.1428,101.378 L219.4825,102.943 L219.7804,104.508 L220.0397,106.071 L220.2556,107.629 L220.4283,109.186 L220.561,110.739 L220.6492,112.287 L220.6929,113.831 L220.6957,115.371 L220.6528,116.903 L220.5636,118.431 L220.432,119.953 L220.2535,121.466 L220.0269,122.973 L219.7567,124.473 L219.4383,125.962 L219.0706,127.445 L218.6578,128.92 L218.1954,130.382 L217.6816,131.837 L217.1211,133.282 L216.5098,134.714 L215.845,136.138 L215.1319,137.55 L214.3664,138.948 L213.5453,140.336 L212.6744,141.712 L211.7493,143.073 L210.7665,144.422 L209.732,145.758 L208.6416,147.076 L207.4914,148.382 L206.2878,149.673 L205.0264,150.946 L203.7032,152.203 L202.3247,153.445 L200.8866,154.667 L199.379,155.877 L198.6044,156.466 L197.8258,157.06 L197.0157,157.643 L196.2058,158.226 L195.3638,158.8 L194.5201,159.374 L193.6471,159.939 L192.7758,160.503 L191.8719,161.056 L190.9681,161.609 L190.0313,162.151 L189.093,162.694 L188.1244,163.226 L187.1575,163.758 L186.1573,164.278 L185.157,164.799 L184.123,165.307 L183.0875,165.816 L182.0211,166.313 L180.9561,166.81 L179.8569,167.295 L178.7577,167.779 L177.624,168.25 L176.4887,168.723 L175.3218,169.183 L174.1564,169.642 L172.9559,170.088 L171.7553,170.534 L170.5194,170.967 L169.282,171.399 L168.0124,171.819 L166.744,172.239 L165.4398,172.644 L164.1355,173.049 L162.795,173.439 L161.4533,173.83 L160.0785,174.207 L158.7048,174.583 L157.2946,174.945 L155.8843,175.306 L154.4371,175.652 L152.9886,175.998 L151.5063,176.33 L150.0252,176.661 L148.5066,176.976 L146.988,177.292 L145.4317,177.59 L143.8742,177.889 L142.2822,178.173 L140.6913,178.456 L139.0621,178.723 L137.4329,178.989 L135.7653,179.238 L134.0965,179.487 L132.3925,179.721 L130.6895,179.954 L128.9475,180.169 L127.2055,180.384 L125.4242,180.581 L123.6323,180.779 C122.7101,180.88 122.0448,181.71 122.1464,182.633 C122.248,183.555 123.0781,184.22 124.0003,184.119 Z" id="Fill-109"></path>
        </g>
    </g>
</svg>
