<?xml version="1.0" encoding="UTF-8"?>
<svg width="258px" height="116px" viewBox="0 0 258 116" version="1.1" xmlns="http://www.w3.org/2000/svg" xmlns:xlink="http://www.w3.org/1999/xlink">
    <title>43</title>
    <g id="Page-1" stroke="none" stroke-width="1" fill="none" fill-rule="evenodd">
        <g id="43" transform="translate(0.901800, 0.258000)" fill="currentColor">
            <path d="M93.7827,6.012 L92.373,5.745 L90.9264,5.504 L89.4664,5.291 L87.9934,5.104 L86.5056,4.945 L85.0074,4.814 L83.4994,4.708 L81.9797,4.629 L80.4529,4.577 L78.9192,4.549 L77.3773,4.548 L75.8313,4.572 L74.2814,4.62 L72.7267,4.694 L71.1712,4.792 L69.6147,4.914 L68.0568,5.06 L66.5013,5.231 L64.9478,5.424 L63.3962,5.641 L61.8503,5.882 L60.3094,6.144 L58.7736,6.43 L57.2469,6.738 L55.7281,7.068 L54.2179,7.42 L52.72,7.795 L51.233,8.189 L49.7578,8.606 L48.2983,9.045 L46.8527,9.503 L45.4222,9.983 L44.0106,10.484 L42.6161,11.004 L41.2397,11.545 L39.8857,12.106 L38.5517,12.686 L37.2392,13.287 L35.9524,13.908 L34.6884,14.546 L33.4493,15.205 L32.2392,15.884 L31.0551,16.58 L29.8989,17.296 L28.7753,18.031 L27.6807,18.784 L26.6173,19.557 L25.5901,20.348 L24.5949,21.157 L23.6344,21.986 L22.7137,22.833 L21.8285,23.697 L20.9815,24.583 L20.1782,25.485 L19.4141,26.406 L18.6922,27.348 L18.0183,28.306 L17.3875,29.281 L16.8037,30.279 L16.2723,31.292 L15.7885,32.322 L15.357,33.374 L14.9826,34.439 L14.6605,35.52 L14.3961,36.622 L14.1934,37.734 L14.0473,38.86 L13.9642,40.004 L13.9462,41.155 L13.9883,42.316 L14.0977,43.492 L14.2743,44.673 L14.5135,45.861 L14.8229,47.06 L15.201,48.262 L15.6434,49.469 L16.1582,50.686 L16.7431,51.903 L17.3937,53.125 L18.119,54.355 L18.916,55.586 L19.7808,56.821 L20.7225,58.063 L21.7384,59.306 L22.8243,60.554 L23.9899,61.807 L25.2327,63.064 L26.5481,64.323 L27.9462,65.589 L29.4248,66.858 L30.9732,68.126 L31.7991,68.769 L32.619,69.408 L33.4819,70.049 L34.3431,70.689 L35.2438,71.331 L36.1458,71.973 L37.0919,72.618 L38.0377,73.263 L39.0282,73.909 L40.0231,74.559 L41.2063,75.293 L42.3974,76.031 L43.6145,76.734 L44.831,77.437 L46.0724,78.105 L47.3112,78.771 L48.5717,79.406 L49.8338,80.042 L51.1189,80.645 L52.4033,81.247 L53.7096,81.817 L55.0134,82.385 L56.3361,82.924 L57.6603,83.464 L59.0045,83.972 L60.3481,84.48 L61.7105,84.958 L63.0706,85.434 L64.447,85.884 L65.8246,86.333 L67.2193,86.754 L68.6134,87.174 L70.0234,87.566 L71.4312,87.958 L72.8527,88.323 L74.2754,88.69 L75.7121,89.029 L77.1482,89.368 L78.5974,89.68 L80.0446,89.992 L81.5028,90.281 L82.9619,90.569 L84.4324,90.833 L85.9022,91.097 L87.3822,91.336 L88.8603,91.575 L90.3469,91.793 L91.8343,92.01 L93.3301,92.205 L94.8253,92.399 L96.3278,92.571 L97.8286,92.743 L99.3353,92.895 L100.8426,93.048 L102.3554,93.179 L103.8677,93.311 L105.3844,93.422 L106.8996,93.532 L108.418,93.626 L109.937,93.719 L111.4585,93.793 L112.9796,93.867 L114.5022,93.923 L116.0234,93.979 L117.5452,94.019 L119.0675,94.059 L120.5895,94.083 L122.1111,94.106 L123.6313,94.113 L125.1502,94.119 L126.6671,94.112 L128.1844,94.105 L129.6985,94.083 L131.2122,94.061 L132.7217,94.025 L134.23,93.988 L135.7337,93.939 L137.2377,93.891 L138.7356,93.829 L140.2331,93.768 L141.7234,93.694 L143.2128,93.62 L144.6948,93.536 L146.1771,93.452 L147.6504,93.357 L149.1234,93.262 L150.5863,93.157 L152.0483,93.052 L153.5003,92.938 L154.9526,92.824 L156.393,92.701 L157.833,92.579 L159.2601,92.448 L160.6864,92.317 L162.1001,92.18 L163.5139,92.042 L164.913,91.898 L166.3117,91.754 L167.6945,91.603 L169.0767,91.453 L170.4435,91.298 L171.8105,91.142 L173.1598,90.982 L174.5088,90.822 L175.839,90.658 L177.1674,90.494 L177.5286,90.447 L177.922,90.392 L178.3473,90.33 L178.8018,90.26 L179.2884,90.183 L179.8055,90.098 L180.3502,90.006 L180.9247,89.907 L181.5278,89.8 L182.1562,89.686 L182.8122,89.564 L183.4943,89.434 L184.1995,89.298 L184.9299,89.154 L185.6838,89.003 L186.4586,88.845 L187.256,88.679 L188.0772,88.506 L189.7667,88.14 L191.5349,87.744 L193.3706,87.32 L195.2623,86.869 L197.2073,86.39 L198.2068,86.135 L199.2038,85.881 L200.219,85.614 L201.2353,85.347 L202.2684,85.067 L203.302,84.786 L204.3486,84.491 L205.3949,84.196 L206.4501,83.889 L207.5065,83.582 L208.5693,83.261 L209.6327,82.94 L210.6988,82.605 L211.7647,82.271 L212.8299,81.924 L213.8967,81.577 L214.9595,81.217 L216.0231,80.857 L217.079,80.483 L218.1345,80.11 L219.1801,79.725 L220.2276,79.339 L221.2608,78.94 L222.295,78.541 L223.3112,78.129 L224.3271,77.717 L225.3235,77.294 L226.3224,76.869 L227.2967,76.432 L228.2723,75.995 L229.2197,75.544 L230.1666,75.094 L231.0849,74.633 L232.0131,74.166 L233.7812,73.216 L235.4804,72.237 L237.1073,71.232 L238.6508,70.196 L240.0835,69.143 L240.7887,68.589 L241.4551,68.037 L242.0934,67.477 L242.7068,66.909 L243.2937,66.331 L243.8494,65.744 L244.3776,65.149 L244.8763,64.541 L245.3405,63.924 L245.7739,63.298 L246.1741,62.656 L246.5355,62.006 L246.862,61.345 L247.15,60.668 L247.3943,59.983 L247.5984,59.288 L247.7579,58.577 L247.8688,57.862 L247.9344,57.139 L247.9498,56.404 L247.9134,55.669 L247.8289,54.931 L247.6907,54.186 L247.4956,53.429 L247.1077,52.244 L246.6221,51.055 L246.0516,49.891 L245.4046,48.745 L244.674,47.615 L243.8675,46.508 L242.9921,45.418 L242.0406,44.343 L241.0199,43.288 L239.9361,42.249 L238.7823,41.223 L237.5646,40.214 L236.2885,39.22 L234.9477,38.238 L233.5476,37.272 L232.0935,36.318 L230.5796,35.377 L229.0109,34.45 L227.3921,33.536 L225.7187,32.633 L223.9947,31.744 L222.225,30.867 L220.4094,30.004 L219.4719,29.575 L218.5399,29.15 L217.5867,28.729 L216.6329,28.309 L215.6567,27.894 L214.6809,27.48 L213.6836,27.071 L212.6875,26.664 L211.6724,26.261 L210.6569,25.859 L209.6214,25.462 L208.5862,25.066 L207.5319,24.676 L206.4787,24.286 L205.4088,23.901 L204.3384,23.517 L203.2505,23.138 L202.1629,22.76 L201.0586,22.387 L199.9552,22.015 L198.8374,21.649 L197.7192,21.282 L196.5858,20.922 L195.4528,20.561 L194.3055,20.207 L193.159,19.853 L192.0003,19.504 L190.8412,19.156 L189.6695,18.814 L188.498,18.471 L187.3147,18.135 L186.1322,17.799 L184.9397,17.469 L183.7468,17.139 L182.5438,16.815 L181.3409,16.491 L180.1288,16.173 L178.915,15.854 L177.69,15.545 L176.4719,15.237 L175.2538,14.929 L174.0261,14.618 L172.7844,14.321 L171.5525,14.025 L170.3206,13.73 L169.0796,13.432 L167.8283,13.147 L166.5861,12.864 L165.3439,12.581 L164.0939,12.297 L162.8374,12.024 L161.5887,11.753 L160.3401,11.481 L159.0832,11.208 L157.8224,10.948 L156.5698,10.69 L155.3172,10.432 L154.0566,10.172 L152.7957,9.926 L151.5427,9.681 L150.2896,9.436 L149.0297,9.19 L147.7723,8.955 L146.5218,8.722 L145.2713,8.489 L144.0135,8.254 L142.7617,8.033 L141.5171,7.813 L140.2725,7.593 L139.021,7.372 L137.7789,7.164 L136.5439,6.957 L135.3089,6.75 L134.0677,6.542 L132.8379,6.346 L131.6145,6.152 L130.3911,5.957 L129.1609,5.761 L127.9465,5.579 L126.7389,5.397 L125.5313,5.216 L124.3171,5.033 L123.1222,4.864 L121.9341,4.697 L120.746,4.529 L119.5534,4.36 L118.3758,4.201 L117.1993,4.042 L116.035,3.89 L114.8706,3.738 L113.7193,3.593 L112.5682,3.448 L111.4297,3.309 L110.2908,3.171 L109.1665,3.039 L108.0422,2.907 L106.9333,2.782 L105.8247,2.657 L104.7309,2.538 L103.6368,2.419 L102.5596,2.308 L101.4825,2.196 L100.4232,2.091 L99.3643,1.986 L98.3223,1.888 L97.28,1.789 L96.2571,1.698 L95.2342,1.607 L94.2316,1.522 L93.2282,1.438 L91.2629,1.282 L89.3398,1.14 L87.4625,1.013 L85.628,0.898 L83.8416,0.798 L82.1058,0.712 L80.4171,0.639 L78.7812,0.58 L77.2008,0.534 L75.6716,0.502 L74.1995,0.485 L72.7876,0.482 L71.4308,0.494 L70.1353,0.52 L68.9043,0.561 L67.732,0.616 L66.6243,0.686 L65.5876,0.772 L64.2678,0.9 L62.8975,1.045 L61.4792,1.208 L60.0198,1.389 L58.5186,1.59 L56.981,1.812 L55.4132,2.055 L53.8152,2.321 L52.1927,2.611 L50.5506,2.923 L48.8898,3.262 L47.2164,3.628 L45.5339,4.019 L43.8444,4.44 L42.154,4.89 L40.4651,5.367 L38.7802,5.877 L37.1063,6.419 L35.4445,6.993 L33.7983,7.602 L32.1749,8.247 L30.5741,8.926 L29.0002,9.645 L27.461,10.402 L25.955,11.198 L24.4873,12.036 L23.0663,12.918 L21.6893,13.84 L20.3624,14.811 L19.0948,15.828 L17.8825,16.89 L16.733,18.006 L15.6562,19.171 L14.6473,20.385 L13.7154,21.657 L12.8822,22.962 L12.4788,23.662 L12.1088,24.36 L11.7635,25.069 L11.4404,25.792 L11.1413,26.531 L10.8687,27.281 L10.62,28.044 L10.3973,28.824 L10.2026,29.615 L10.0334,30.419 L9.8921,31.239 L9.7801,32.071 L9.6949,32.914 L9.6394,33.774 L9.6144,34.644 L9.6173,35.527 L9.6515,36.425 L9.7171,37.335 L9.8118,38.256 L9.939,39.194 L10.0987,40.142 L10.2885,41.103 L10.5122,42.079 L10.7698,43.068 L11.0379,43.985 L11.3411,44.897 L11.6767,45.796 L12.0422,46.687 L12.4408,47.57 L12.8704,48.441 L13.3284,49.303 L13.8184,50.157 L14.3376,50.999 L14.8841,51.832 L15.4611,52.657 L16.066,53.47 L16.6969,54.274 L17.357,55.069 L18.0437,55.853 L18.7552,56.629 L19.4947,57.395 L20.2595,58.151 L21.0481,58.898 L21.8635,59.637 L22.7032,60.365 L23.5655,61.085 L24.4535,61.796 L25.3648,62.497 L26.2979,63.189 L27.2555,63.874 L28.2353,64.548 L29.2359,65.214 L30.26,65.871 L31.3054,66.519 L32.3706,67.159 L33.4582,67.79 L34.5662,68.412 L35.6932,69.026 L36.8415,69.632 L38.0128,70.23 L39.2033,70.813 L40.3984,71.397 L41.6325,71.965 L42.8661,72.532 L44.1373,73.082 L45.4066,73.632 L46.709,74.166 L48.0122,74.7 L49.3503,75.217 L50.688,75.734 L52.0592,76.234 L53.4289,76.734 L54.8279,77.218 L56.2277,77.703 L57.6584,78.17 L59.0887,78.638 L60.5485,79.088 L62.007,79.538 L63.4911,79.973 L64.976,80.408 L66.4877,80.826 L67.9991,81.244 L69.5359,81.645 L71.0716,82.046 L72.6293,82.432 L74.1876,82.817 L75.7687,83.186 L77.3495,83.555 L78.9518,83.907 L80.553,84.259 L82.1725,84.596 L83.7926,84.933 L85.4315,85.253 L87.0701,85.573 L88.7261,85.876 L90.3812,86.179 L92.0508,86.467 L93.721,86.755 L95.406,87.026 L97.0908,87.297 L98.7888,87.552 L100.486,87.806 L102.1941,88.045 L103.9028,88.284 L105.6221,88.507 L107.3413,88.729 L109.0697,88.935 L110.7973,89.14 L112.5321,89.33 L114.2675,89.521 L116.0094,89.694 L117.7513,89.868 L119.4983,90.025 L121.2446,90.182 L122.9943,90.323 L124.7447,90.465 L126.4975,90.59 L128.2503,90.715 L130.0041,90.823 L131.7573,90.931 L133.5103,91.024 L135.2638,91.117 L137.0159,91.193 L138.7679,91.268 L140.5168,91.328 L142.2652,91.386 L144.0096,91.43 L145.7546,91.474 L147.494,91.501 L149.2334,91.528 L150.9657,91.538 L152.6974,91.549 L154.4214,91.544 L156.1462,91.539 L157.8612,91.517 L159.5763,91.495 L161.2801,91.457 L162.9835,91.418 L164.6754,91.364 L166.3681,91.311 L168.0471,91.24 L169.726,91.169 L171.3898,91.082 L173.053,90.995 L174.7011,90.892 L176.3501,90.789 L177.9812,90.67 L179.6124,90.551 L181.2244,90.414 L182.8357,90.278 L184.4283,90.127 L186.0218,89.975 L187.5934,89.807 L189.1652,89.638 L190.7136,89.453 L192.2614,89.267 L193.7869,89.067 L195.3133,88.866 L196.8137,88.649 L198.3145,88.431 L199.7878,88.197 L201.2605,87.962 L202.7071,87.713 L204.1548,87.463 L205.5726,87.196 L206.9907,86.929 L208.3773,86.645 L209.7633,86.361 L211.1195,86.062 L212.4771,85.763 L213.8007,85.446 L215.1247,85.129 L216.4132,84.796 L217.701,84.462 L218.9553,84.113 L220.2113,83.764 L221.4294,83.397 L222.6479,83.03 L223.8271,82.646 L225.0053,82.262 L226.1465,81.863 L227.2897,81.463 L228.391,81.045 L229.4929,80.627 L230.5515,80.192 L231.6047,79.759 L232.6372,79.31 L233.644,78.853 L234.6272,78.388 L235.5897,77.914 L236.5298,77.431 L237.4454,76.939 L238.3392,76.438 L239.2099,75.928 L240.0549,75.408 L240.8773,74.88 L241.6757,74.342 L242.4472,73.794 L243.1952,73.238 L243.9182,72.67 L244.6132,72.093 L245.2835,71.507 L245.9278,70.91 L246.5427,70.303 L247.1318,69.686 L247.6934,69.057 L248.2242,68.419 L248.7279,67.771 L249.2026,67.11 L249.6448,66.439 L250.0583,65.759 L250.441,65.065 L250.7895,64.363 L251.1076,63.651 L251.3927,62.925 L251.6418,62.193 L251.8606,61.451 L252.0443,60.708 L252.1925,59.969 L252.3091,59.233 L252.3919,58.496 L252.4409,57.765 L252.4598,57.038 L252.4463,56.311 L252.4011,55.591 L252.3275,54.875 L252.2232,54.162 L252.0898,53.456 L251.93,52.755 L251.7416,52.057 L251.5265,51.368 L251.2872,50.683 L251.0213,50.003 L250.7312,49.331 L250.419,48.664 L250.0823,48.001 L249.7237,47.346 L249.3448,46.697 L248.9436,46.052 L248.5135,45.402 L247.6256,44.157 L246.6509,42.921 L245.6071,41.71 L244.5031,40.521 L243.3357,39.353 L242.1127,38.21 L240.8421,37.088 L239.5216,35.988 L238.1589,34.913 L236.7604,33.86 L235.3256,32.829 L233.8615,31.823 L232.3737,30.839 L230.8629,29.88 L229.3359,28.946 L227.7971,28.035 L226.2488,27.149 L224.6973,26.29 L223.1462,25.455 L221.5989,24.647 L220.0616,23.867 L218.5367,23.111 L217.0291,22.384 L215.5447,21.686 L214.0848,21.014 L212.6556,20.372 L211.2629,19.759 L209.9069,19.175 L208.5951,18.621 L207.333,18.099 L206.1198,17.606 L204.9641,17.146 L203.8716,16.718 L202.8402,16.32 L201.8798,15.957 L200.9918,15.626 L199.9778,15.26 L198.8918,14.889 L197.7409,14.513 L196.5315,14.135 L195.2583,13.753 L193.9242,13.369 L192.5356,12.983 L191.0878,12.595 L189.5836,12.206 L188.029,11.816 L186.4201,11.427 L184.7595,11.038 L183.0529,10.65 L181.2968,10.263 L179.4939,9.879 L177.6494,9.497 L175.7603,9.119 L173.8293,8.744 L171.8624,8.373 L170.8573,8.19 L169.8534,8.007 L168.8309,7.827 L167.8086,7.647 L166.7701,7.47 L165.7312,7.292 L164.6752,7.118 L163.6192,6.944 L162.5469,6.774 L161.475,6.603 L160.389,6.436 L159.3027,6.269 L158.2018,6.107 L157.1008,5.944 L155.9861,5.786 L154.8717,5.627 L153.7455,5.473 L152.619,5.319 L151.4803,5.17 L150.3416,5.022 L149.1916,4.878 L148.042,4.734 L146.8828,4.596 L145.7233,4.457 L144.5542,4.325 L143.3849,4.192 L142.207,4.066 L141.0293,3.939 L139.8444,3.819 L138.6591,3.698 L137.4667,3.584 L136.2742,3.47 L135.0755,3.363 L133.8752,3.257 L132.6678,3.16 L131.4659,3.063 L130.2641,2.967 L129.0539,2.87 L127.836,2.788 L126.6265,2.708 L125.4169,2.627 L124.1986,2.545 L122.9763,2.481 L121.7627,2.417 L120.5491,2.353 L119.3272,2.289 L118.1045,2.241 L116.8901,2.193 L115.6758,2.146 L114.4517,2.098 L113.23,2.069 L112.018,2.041 L110.806,2.012 L109.5837,1.983 L108.3673,1.975 L107.1612,1.967 L105.9552,1.959 L104.7392,1.951 L103.5315,1.962 L102.3338,1.974 L101.136,1.985 L99.9267,1.997 L98.7296,2.031 L97.5442,2.065 L96.3589,2.099 L95.1609,2.133 L93.9789,2.192 L92.8095,2.249 L91.6402,2.307 L90.4617,2.365 L89.2959,2.44 L88.1322,2.515 L86.9789,2.603 L85.8254,2.691 L84.683,2.792 L83.5412,2.893 L82.4103,3.006 L81.2784,3.119 L80.1594,3.245 L79.04,3.372 L77.9344,3.513 L76.8293,3.654 L75.7375,3.808 L74.6445,3.962 L73.5668,4.13 L72.4888,4.299 L71.4269,4.482 L70.3657,4.665 L69.3199,4.862 L68.2729,5.06 L67.2436,5.273 L66.214,5.486 L65.203,5.715 L64.1927,5.943 L63.2001,6.186 L62.2021,6.431 L60.258,6.95 L58.3526,7.504 L56.4861,8.089 L54.663,8.71 L52.8875,9.366 L51.1552,10.055 L49.4709,10.782 L47.8394,11.547 L46.2557,12.347 L44.7249,13.187 L43.252,14.067 L41.8319,14.985 L40.4697,15.947 L39.1711,16.949 L37.9304,17.993 L36.7533,19.082 L35.6459,20.214 L34.602,21.389 L33.6283,22.613 L32.7307,23.881 L31.9027,25.192 L31.1517,26.553 L30.4831,27.96 L29.8902,29.409 L29.3809,30.909 L28.9635,32.438 L28.779,33.242 L28.6205,34.043 L28.4848,34.855 L28.3699,35.677 L28.2776,36.513 L28.2083,37.363 L28.1471,38.5 L28.1232,39.629 L28.1365,40.745 L28.1834,41.85 L28.2671,42.944 L28.3868,44.024 L28.5392,45.092 L28.7273,46.15 L28.9502,47.192 L29.2047,48.223 L29.494,49.243 L29.8166,50.248 L30.1696,51.241 L30.5562,52.223 L30.9747,53.189 L31.4223,54.144 L31.9024,55.086 L32.4127,56.014 L32.951,56.929 L33.5203,57.832 L34.1185,58.721 L34.7434,59.597 L35.398,60.461 L36.08,61.311 L36.7875,62.148 L37.5234,62.974 L38.2854,63.785 L39.0716,64.584 L39.8849,65.371 L40.7231,66.144 L41.5844,66.905 L42.4716,67.654 L43.3823,68.389 L44.3151,69.113 L45.2726,69.825 L46.2525,70.524 L47.2534,71.211 L48.2777,71.886 L49.3234,72.548 L50.389,73.199 L51.4768,73.838 L52.585,74.465 L53.712,75.08 L54.8602,75.684 L56.0276,76.275 L57.2128,76.856 L58.4179,77.424 L59.6446,77.982 L60.8892,78.521 L62.1381,79.061 L63.4231,79.578 L64.7076,80.095 L66.0266,80.589 L67.344,81.082 L68.6914,81.554 L70.0396,82.027 L71.4195,82.477 L72.7989,82.926 L74.2084,83.353 L75.6165,83.779 L77.0507,84.185 L78.4855,84.591 L79.9474,84.974 L81.4091,85.357 L82.8963,85.719 L84.3823,86.08 L85.8903,86.42 L87.3988,86.761 L88.9302,87.08 L90.4612,87.399 L92.0134,87.696 L93.5646,87.992 L95.1336,88.269 L96.7033,88.546 L98.2912,88.801 L99.8789,89.056 L101.4833,89.29 L103.0868,89.523 L104.7041,89.737 L106.322,89.951 L107.9537,90.143 L109.5853,90.336 L111.229,90.507 L112.8719,90.678 L114.5247,90.83 L116.1779,90.982 L117.8406,91.113 L119.5031,91.244 L121.1733,91.354 L122.8428,91.464 L124.518,91.555 L126.1938,91.646 L127.8745,91.716 L129.5551,91.787 L131.2389,91.837 L132.9221,91.886 L134.6069,91.917 L136.2923,91.948 L137.9781,91.959 L139.6639,91.97 L141.3485,91.96 L143.0324,91.951 L144.714,91.923 L146.3961,91.895 L148.0742,91.847 L149.7523,91.799 L151.4247,91.731 L153.0965,91.663 L154.7618,91.577 L156.4278,91.491 L158.0852,91.386 L159.7427,91.28 L161.39,91.154 L163.0367,91.029 L164.6729,90.886 L166.3098,90.743 L167.9337,90.58 L169.5577,90.417 L171.1671,90.235 L172.7759,90.053 L174.3701,89.854 L175.965,89.654 L177.5425,89.436 L179.1202,89.217 L180.6787,88.979 L182.2367,88.742 L183.776,88.487 L185.3161,88.232 L186.8344,87.958 L188.3528,87.684 L189.8477,87.391 L191.342,87.099 L192.8136,86.79 L194.2861,86.48 L195.7323,86.152 L197.1786,85.822 L198.5966,85.474 L200.014,85.126 L201.4047,84.761 L202.7964,84.396 L204.1573,84.013 L205.5185,83.63 L206.8473,83.228 L208.1753,82.827 L209.4725,82.409 L210.7711,81.991 L212.0343,81.554 L213.2979,81.118 L214.5247,80.664 L215.7507,80.209 L216.9418,79.739 L218.1345,79.268 L219.2874,78.779 L220.4409,78.29 L221.553,77.784 L222.6643,77.277 L223.7367,76.755 L224.8109,76.231 L225.841,75.69 L226.8716,75.148 L227.8566,74.589 L228.8366,74.032 L229.7932,73.458 L230.7232,72.878 L231.6283,72.288 L232.5111,71.69 L233.3697,71.082 L234.2023,70.465 L235.0116,69.84 L235.7959,69.205 L236.5529,68.561 L237.2856,67.909 L237.9922,67.246 L238.6701,66.576 L239.3227,65.896 L239.9477,65.206 L240.5429,64.507 L241.1114,63.8 L241.6511,63.082 L242.1594,62.355 L242.6397,61.62 L243.0896,60.873 L243.5067,60.119 L243.8943,59.355 L244.2498,58.581 L244.571,57.799 L244.8613,57.008 L245.1176,56.207 L245.3383,55.398 L245.5265,54.582 L245.6791,53.755 L245.795,52.921 L245.8633,52.176 L245.8882,51.431 L245.8701,50.695 L245.8135,49.965 L245.7153,49.238 L245.5772,48.521 L245.4033,47.812 L245.1906,47.108 L244.9416,46.415 L244.6599,45.729 L244.3424,45.05 L243.9921,44.381 L243.612,43.72 L243.1991,43.066 L242.7565,42.422 L242.2868,41.785 L241.787,41.155 L241.2602,40.534 L240.7087,39.921 L240.1297,39.313 L239.5261,38.715 L238.9001,38.123 L238.2491,37.537 L237.5757,36.959 L236.8816,36.387 L236.1649,35.822 L235.4278,35.264 L234.6721,34.713 L233.896,34.167 L233.0954,33.625 L231.4637,32.571 L229.7608,31.54 L228.8725,31.034 L227.9898,30.532 L227.081,30.041 L226.172,29.549 L225.2371,29.07 L224.303,28.592 L223.3462,28.126 L222.3908,27.661 L221.4174,27.207 L220.4437,26.753 L219.453,26.311 L218.4629,25.87 L217.4589,25.441 L216.4561,25.013 L215.4433,24.597 L214.4303,24.18 L213.4091,23.776 L212.3884,23.373 L211.3628,22.982 L210.338,22.591 L209.3113,22.212 L208.2845,21.833 L207.2584,21.468 L206.2326,21.102 L205.2108,20.749 L204.1898,20.396 L203.1749,20.055 L202.16,19.714 L201.1545,19.386 L200.1495,19.058 L199.1572,18.743 L198.1655,18.429 L197.188,18.126 L196.2094,17.824 L194.2926,17.246 L192.4189,16.695 L190.5902,16.169 L188.8164,15.669 L187.1045,15.198 L185.4537,14.751 L183.8758,14.332 L182.3773,13.941 L180.9564,13.575 L179.626,13.238 L178.3935,12.929 L177.8115,12.784 L177.2563,12.646 L176.7286,12.516 L176.2263,12.392 L175.7529,12.275 L175.308,12.165 L173.9773,11.839 L172.5902,11.504 L171.1495,11.161 L169.6613,10.812 L168.1221,10.457 L166.5336,10.097 L164.9015,9.732 L163.2225,9.364 L161.4985,8.993 L159.7347,8.619 L157.9283,8.244 L156.0813,7.869 L154.1982,7.493 L152.2769,7.119 L150.3197,6.746 L149.3242,6.561 L148.3292,6.375 L147.3172,6.192 L146.3052,6.008 L145.2771,5.826 L144.249,5.645 L143.207,5.465 L142.1647,5.285 L141.1077,5.109 L140.0505,4.932 L138.9794,4.758 L137.9084,4.584 L136.8253,4.414 L135.742,4.244 L134.646,4.077 L133.55,3.911 L132.442,3.748 L131.3343,3.586 L130.2164,3.428 L129.0982,3.27 L127.9696,3.117 L126.8408,2.964 L125.7023,2.817 L124.564,2.669 L123.4175,2.527 L122.2706,2.385 L121.1154,2.249 L119.96,2.113 L118.7972,1.984 L117.633,1.854 L116.4598,1.734 L115.2907,1.615 L114.1216,1.496 L112.9461,1.376 L111.7595,1.272 L110.5793,1.168 L109.3991,1.064 L108.2121,0.96 L107.0171,0.873 L105.8289,0.786 L104.6407,0.7 L103.4459,0.613 L102.2464,0.543 L101.0534,0.473 L99.8603,0.404 L98.6597,0.334 L97.4565,0.284 L96.2609,0.235 L95.0653,0.185 L93.8616,0.135 L92.6583,0.108 L91.4633,0.08 L90.2683,0.052 L89.0673,0.024 L87.8683,0.012 L86.6707,0 L85.4754,0 L84.28,0 L83.0876,0.013 L81.8955,0.026 L80.7068,0.05 L79.5175,0.074 L78.3327,0.112 L77.1476,0.149 L75.9678,0.2 L74.7883,0.252 L73.6141,0.315 L72.4393,0.379 L71.2711,0.458 L70.1026,0.536 L68.9415,0.63 L67.7807,0.723 L66.6272,0.83 L65.473,0.937 L64.3274,1.06 L63.1817,1.182 L62.0453,1.321 L60.9094,1.46 L59.7828,1.614 L58.6553,1.767 L57.5386,1.938 L56.4216,2.109 L55.3162,2.296 L54.2114,2.484 L53.1176,2.688 L52.0229,2.892 L50.9412,3.114 L49.8592,3.336 L48.7909,3.576 L47.7231,3.816 L46.6685,4.074 L45.6127,4.331 L44.5721,4.608 L43.5312,4.885 L42.5061,5.182 L41.4816,5.478 L40.4721,5.793 L39.4615,6.108 L38.4681,6.443 L37.4744,6.778 L36.4987,7.135 L35.5236,7.491 L34.5655,7.866 L33.6062,8.242 L32.6663,8.639 L31.7223,9.039 L29.8865,9.876 L28.0844,10.757 L26.3237,11.684 L24.6082,12.657 L22.934,13.674 L21.3058,14.741 L19.7273,15.856 L18.1943,17.017 L16.7117,18.23 L15.2835,19.494 L13.9052,20.805 L12.582,22.172 L11.3179,23.591 L10.108,25.061 L8.9581,26.587 L7.8719,28.169 L6.8443,29.802 L5.8815,31.494 L4.9869,33.242 L4.155,35.044 L3.3949,36.901 L3.0473,37.868 L2.7028,38.828 L2.3912,39.815 L2.0796,40.804 L1.8048,41.823 L1.5304,42.842 L1.2937,43.892 L1.0585,44.937 L0.8477,46.011 L0.657,47.098 L0.4862,48.2 L0.3334,49.316 L0.2004,50.449 L0.0874,51.599 L0.028,52.42 L0,53.238 L0.0033,54.05 L0.0349,54.855 L0.0974,55.656 L0.1902,56.449 L0.3105,57.237 L0.4609,58.019 L0.6405,58.793 L0.8467,59.561 L1.082,60.323 L1.3453,61.078 L1.6342,61.826 L1.9512,62.568 L2.295,63.302 L2.6633,64.03 L3.0587,64.751 L3.4797,65.465 L3.9242,66.172 L4.3947,66.874 L4.8897,67.567 L5.4072,68.254 L5.9497,68.936 L6.5157,69.609 L7.1032,70.277 L7.7147,70.939 L8.3487,71.593 L9.0035,72.241 L9.6813,72.884 L10.3863,73.525 L11.8386,74.773 L13.3829,76.003 L15.0054,77.205 L15.8579,77.798 L16.7077,78.389 L17.597,78.969 L18.4858,79.548 L19.4129,80.116 L20.3388,80.684 L21.2985,81.24 L22.2586,81.798 L23.2548,82.344 L24.2506,82.889 L25.2813,83.424 L26.3109,83.958 L27.3712,84.482 L28.4319,85.006 L29.5253,85.52 L30.6184,86.033 L31.7428,86.536 L32.8664,87.038 L34.0176,87.53 L35.1691,88.023 L36.3498,88.505 L37.5303,88.986 L38.7387,89.458 L39.9464,89.929 L41.1786,90.39 L42.4111,90.852 L43.6693,91.303 L44.9274,91.755 L46.21,92.196 L47.4919,92.636 L48.7952,93.068 L50.0988,93.5 L51.4247,93.921 L52.7505,94.343 L54.0973,94.755 L55.4437,95.166 L56.8082,95.568 L58.173,95.971 L59.5567,96.363 L60.9403,96.756 L62.3415,97.139 L63.7423,97.522 L65.1581,97.895 L66.5742,98.27 L68.0057,98.634 L69.4372,98.998 L70.8828,99.353 L72.3281,99.708 L73.7853,100.054 L75.2427,100.4 L76.7122,100.737 L78.1815,101.074 L79.6617,101.401 L81.1415,101.729 L82.6301,102.048 L84.1189,102.367 L85.6163,102.677 L87.1136,102.987 L88.6183,103.288 L90.1237,103.589 L91.6373,103.878 L93.1474,104.166 L94.6574,104.454 L96.1724,104.743 L97.6954,105.014 L99.2136,105.285 L100.7319,105.555 L102.2546,105.826 L103.7805,106.08 L105.3019,106.333 L106.8232,106.587 L108.3485,106.84 L109.8726,107.079 L111.3928,107.316 L112.913,107.554 L114.4373,107.792 L115.9559,108.014 L117.4705,108.234 L118.985,108.455 L120.5034,108.677 L122.0112,108.881 L123.5151,109.086 L125.019,109.29 L126.5262,109.495 L128.0198,109.685 L129.51,109.875 L131.0002,110.064 L132.4939,110.255 L133.9683,110.429 L135.4391,110.603 L136.9098,110.776 L138.384,110.95 L139.8337,111.109 L141.28,111.267 L142.7263,111.425 L144.1749,111.584 L145.6043,111.732 L147.033,111.88 L148.4463,112.02 L149.8595,112.16 L151.2559,112.293 L152.6522,112.426 L154.0322,112.552 L155.4123,112.678 L156.7735,112.796 L158.1347,112.915 L159.4756,113.026 L160.8164,113.138 L162.1379,113.242 L163.4594,113.347 L164.7586,113.445 L166.0577,113.542 L167.3332,113.633 L168.6085,113.724 L169.8614,113.808 L171.1143,113.892 L172.3414,113.969 L173.5685,114.046 L174.7685,114.117 L175.9684,114.187 L177.1427,114.251 L178.317,114.316 L179.4622,114.373 L180.6073,114.431 L181.7218,114.482 L182.8362,114.532 L183.9219,114.577 L185.0077,114.622 L186.0609,114.661 L187.114,114.699 L188.1332,114.731 L189.1529,114.763 L191.1268,114.816 L193.0293,114.856 L194.8569,114.883 L196.6147,114.9 L198.2938,114.904 L199.8913,114.896 L201.413,114.878 L202.8494,114.848 L204.1976,114.806 L205.4641,114.754 L206.6395,114.69 L207.7145,114.615 C208.1415,114.586 208.4637,114.216 208.4342,113.789 C208.4047,113.362 208.0347,113.04 207.6077,113.069 L206.5449,113.142 L205.391,113.204 L204.1422,113.255 L202.8097,113.295 L201.3878,113.324 L199.8787,113.342 L198.2927,113.349 L196.6246,113.343 L194.8765,113.326 L193.058,113.297 L191.1644,113.257 L189.1974,113.203 L188.1827,113.171 L187.1676,113.138 L186.1183,113.099 L185.0691,113.06 L183.987,113.015 L182.9048,112.969 L181.7937,112.918 L180.6827,112.867 L179.5412,112.809 L178.3997,112.751 L177.2287,112.686 L176.0577,112.621 L174.8609,112.55 L173.6643,112.479 L172.4406,112.402 L171.2168,112.324 L169.9672,112.239 L168.7174,112.155 L167.4451,112.063 L166.1729,111.972 L164.877,111.874 L163.5812,111.776 L162.2629,111.671 L160.9445,111.566 L159.6067,111.454 L158.269,111.342 L156.9111,111.223 L155.5532,111.104 L154.1764,110.977 L152.7994,110.85 L151.4062,110.717 L150.0131,110.584 L148.6032,110.443 L147.1934,110.302 L145.768,110.154 L144.3433,110.006 L142.8994,109.847 L141.4532,109.688 L140.007,109.529 L138.5642,109.37 L137.0969,109.196 L135.6263,109.021 L134.1556,108.847 L132.6886,108.673 L131.202,108.483 L129.7119,108.292 L128.2218,108.102 L126.7351,107.911 L125.2346,107.707 L123.7309,107.501 L122.2271,107.296 L120.7272,107.092 L119.2166,106.87 L117.7021,106.649 L116.1877,106.427 L114.6774,106.206 L113.1613,105.968 L111.6413,105.729 L110.1212,105.491 L108.605,105.253 L107.0877,105 L105.5665,104.746 L104.0453,104.492 L102.5287,104.238 L101.0151,103.968 L99.4971,103.696 L97.979,103.425 L96.4658,103.155 L94.9608,102.866 L93.4509,102.578 L91.941,102.288 L90.4346,102 L88.9363,101.7 L87.4371,101.399 L85.9454,101.089 L84.4537,100.78 L82.9707,100.461 L81.4875,100.142 L80.0132,99.815 L78.5392,99.488 L77.0761,99.152 L75.613,98.815 L74.1621,98.47 L72.711,98.124 L71.2719,97.77 L69.8332,97.416 L68.4087,97.053 L66.9844,96.689 L65.5757,96.316 L64.1667,95.943 L62.7729,95.562 L61.3796,95.18 L60.004,94.789 L58.6286,94.398 L57.2722,93.997 L55.9155,93.596 L54.5771,93.186 L53.2393,92.776 L51.9227,92.357 L50.6063,91.937 L49.3123,91.508 L48.0181,91.079 L46.7454,90.64 L45.4732,90.202 L44.2257,89.754 L42.9785,89.305 L41.7572,88.847 L40.5356,88.389 L39.3386,87.921 L38.1423,87.454 L36.9742,86.976 L35.8063,86.499 L34.6679,86.011 L33.5291,85.523 L32.4181,85.026 L31.3079,84.529 L30.2294,84.022 L29.1511,83.515 L28.1058,82.997 L27.0601,82.479 L26.0452,81.952 L25.0314,81.426 L24.0527,80.889 L23.0744,80.352 L22.1324,79.804 L21.19,79.257 L20.2816,78.699 L19.3745,78.143 L18.5059,77.576 L17.6378,77.009 L16.8095,76.432 L15.984,75.857 L14.3987,74.681 L12.9026,73.488 L11.4869,72.269 L10.8181,71.66 L10.1668,71.041 L9.5378,70.418 L8.9298,69.789 L8.3459,69.157 L7.7851,68.518 L7.246,67.876 L6.7317,67.229 L6.2413,66.577 L5.7732,65.92 L5.3307,65.26 L4.9126,64.593 L4.5175,63.922 L4.1485,63.248 L3.8047,62.567 L3.4844,61.882 L3.1908,61.193 L2.923,60.498 L2.6793,59.799 L2.4627,59.095 L2.2727,58.385 L2.1072,57.67 L1.9695,56.951 L1.8591,56.225 L1.7739,55.493 L1.717,54.757 L1.6884,54.014 L1.6859,53.265 L1.7122,52.51 L1.7682,51.746 L1.8786,50.63 L2.0087,49.53 L2.1584,48.445 L2.3254,47.375 L2.5113,46.321 L2.7153,45.287 L2.9464,44.265 L3.1761,43.25 L3.4426,42.265 L3.7087,41.281 L4.0108,40.327 L4.313,39.371 L4.6473,38.444 L4.9786,37.523 L5.7166,35.724 L6.5201,33.989 L7.3833,32.305 L8.3102,30.68 L9.301,29.109 L10.3479,27.588 L11.4544,26.123 L12.6212,24.708 L13.8406,23.342 L15.1157,22.028 L16.4473,20.763 L17.8283,19.543 L19.261,18.373 L20.7465,17.251 L22.2779,16.171 L23.8571,15.139 L25.4851,14.152 L27.1553,13.207 L28.8695,12.306 L30.6284,11.449 L32.4293,10.63 L33.3441,10.244 L34.2628,9.857 L35.201,9.49 L36.1404,9.123 L37.0968,8.775 L38.0526,8.427 L39.0264,8.099 L40.0005,7.772 L40.992,7.464 L41.9845,7.156 L42.9922,6.865 L43.9992,6.575 L45.0222,6.304 L46.0456,6.033 L47.084,5.78 L48.1235,5.528 L49.1761,5.292 L50.2283,5.056 L51.2942,4.839 L52.3604,4.621 L53.4396,4.421 L54.5198,4.221 L55.6111,4.037 L56.702,3.853 L57.8046,3.685 L58.9074,3.518 L60.0211,3.367 L61.1356,3.216 L62.2593,3.08 L63.3827,2.944 L64.5156,2.824 L65.6487,2.703 L66.7905,2.599 L67.9331,2.494 L69.083,2.403 L70.2325,2.311 L71.3894,2.235 L72.5465,2.158 L73.7102,2.096 L74.8746,2.034 L76.0443,1.984 L77.2137,1.935 L78.3884,1.899 L79.5632,1.863 L80.7424,1.84 L81.9223,1.817 L83.1056,1.806 L84.2886,1.794 L85.4746,1.795 L86.6609,1.796 L87.8494,1.81 L89.0366,1.823 L90.2257,1.851 L91.4206,1.88 L92.6157,1.909 L93.8024,1.938 L94.9897,1.989 L96.1852,2.039 L97.3807,2.09 L98.5686,2.141 L99.7538,2.211 L100.9468,2.283 L102.1397,2.354 L103.3261,2.424 L104.5076,2.512 L105.6957,2.6 L106.8838,2.688 L108.0651,2.775 L109.2384,2.88 L110.4185,2.985 L111.5986,3.09 L112.7724,3.195 L113.9349,3.315 L115.1039,3.435 L116.2729,3.556 L117.4377,3.676 L118.5934,3.806 L119.7503,3.936 L120.8996,4.073 L122.049,4.21 L123.19,4.353 L124.3313,4.496 L125.4644,4.644 L126.5973,4.792 L127.7205,4.946 L128.8438,5.099 L129.9566,5.258 L131.0696,5.417 L132.1725,5.58 L133.2752,5.743 L134.366,5.911 L135.4569,6.078 L136.5352,6.249 L137.6137,6.421 L138.6801,6.595 L139.7464,6.77 L140.7986,6.947 L141.851,7.125 L142.8885,7.305 L143.9263,7.486 L144.95,7.668 L145.9736,7.851 L146.9811,8.035 L147.9886,8.22 L148.9792,8.406 L149.9694,8.592 L151.9195,8.966 L153.8324,9.342 L155.7075,9.719 L157.5467,10.096 L159.3451,10.472 L161.1013,10.846 L162.8178,11.219 L164.4892,11.588 L166.1141,11.954 L167.6955,12.315 L169.2274,12.671 L170.7086,13.021 L172.1422,13.365 L173.5222,13.701 L174.8483,14.029 L175.2911,14.139 L175.7642,14.257 L176.2656,14.382 L176.792,14.513 L177.3453,14.651 L177.9243,14.797 L179.1525,15.107 L180.4764,15.446 L181.8903,15.813 L183.3808,16.205 L184.9496,16.624 L186.5908,17.072 L188.2923,17.544 L190.0545,18.044 L191.8712,18.57 L193.7321,19.122 L195.6369,19.7 L196.606,20.001 L197.5762,20.304 L198.5608,20.618 L199.5447,20.932 L200.5414,21.259 L201.5379,21.586 L202.5439,21.927 L203.55,22.267 L204.5624,22.619 L205.5739,22.971 L206.5893,23.336 L207.6043,23.701 L208.6201,24.079 L209.6359,24.456 L210.6498,24.846 L211.6629,25.234 L212.6709,25.636 L213.6785,26.037 L214.6779,26.451 L215.6774,26.865 L216.6669,27.291 L217.6553,27.715 L218.6298,28.152 L219.6037,28.589 L220.5604,29.038 L221.5174,29.487 L222.4562,29.948 L223.3936,30.407 L224.3082,30.878 L225.222,31.349 L226.1098,31.832 L226.9978,32.315 L227.8594,32.808 L228.7155,33.298 L230.3747,34.308 L231.9657,35.342 L232.7256,35.859 L233.4709,36.386 L234.1959,36.918 L234.9011,37.454 L235.5832,37.995 L236.2427,38.541 L236.8805,39.091 L237.4927,39.644 L238.0804,40.203 L238.6439,40.766 L239.1797,41.332 L239.6888,41.902 L240.1722,42.476 L240.6258,43.052 L241.0509,43.632 L241.4485,44.216 L241.8146,44.8 L242.1505,45.389 L242.4576,45.98 L242.7317,46.572 L242.9743,47.168 L243.1869,47.767 L243.3656,48.366 L243.5113,48.97 L243.6262,49.577 L243.7062,50.185 L243.7516,50.8 L243.7647,51.418 L243.7418,52.04 L243.6815,52.671 L243.5758,53.412 L243.4378,54.145 L243.267,54.873 L243.0672,55.596 L242.8362,56.309 L242.573,57.018 L242.2813,57.721 L241.9593,58.416 L241.6055,59.106 L241.2238,59.791 L240.8126,60.468 L240.37,61.14 L239.9002,61.807 L239.4015,62.466 L238.8722,63.12 L238.3164,63.767 L237.7325,64.408 L237.1189,65.042 L236.4795,65.67 L235.813,66.291 L235.1177,66.905 L234.3975,67.513 L233.6511,68.113 L232.8772,68.707 L232.0792,69.293 L231.2561,69.872 L230.4067,70.444 L229.5345,71.009 L228.6382,71.567 L227.7203,72.114 L226.7616,72.656 L225.8076,73.195 L224.8073,73.717 L223.8065,74.24 L222.761,74.747 L221.7138,75.254 L220.6272,75.746 L219.5415,76.238 L218.4141,76.713 L217.2861,77.188 L216.1181,77.646 L214.9485,78.105 L213.7437,78.548 L212.5398,78.991 L211.2985,79.416 L210.057,79.842 L208.7798,80.25 L207.5014,80.658 L206.1919,81.051 L204.8831,81.443 L203.5416,81.817 L202.1998,82.192 L200.827,82.549 L199.453,82.906 L198.0521,83.246 L196.6519,83.587 L195.2237,83.91 L193.7954,84.234 L192.3405,84.539 L190.8847,84.845 L189.406,85.134 L187.928,85.423 L186.4262,85.694 L184.9243,85.964 L183.4003,86.216 L181.8754,86.468 L180.3318,86.704 L178.7888,86.939 L177.2266,87.155 L175.6643,87.371 L174.0844,87.569 L172.5037,87.766 L170.9084,87.946 L169.3137,88.126 L167.7043,88.287 L166.0948,88.448 L164.4723,88.59 L162.849,88.731 L161.2152,88.856 L159.582,88.98 L157.9385,89.084 L156.2951,89.189 L154.6431,89.274 L152.9904,89.359 L151.3312,89.426 L149.6727,89.493 L148.0084,89.54 L146.3442,89.588 L144.6759,89.615 L143.007,89.643 L141.3356,89.652 L139.6649,89.661 L137.993,89.65 L136.3212,89.639 L134.6497,89.608 L132.9777,89.577 L131.3074,89.527 L129.6377,89.478 L127.9713,89.407 L126.305,89.338 L124.6437,89.247 L122.9817,89.156 L121.3255,89.047 L119.6701,88.937 L118.0224,88.807 L116.3748,88.677 L114.7367,88.526 L113.098,88.375 L111.4691,88.205 L109.8411,88.035 L108.2253,87.844 L106.6097,87.653 L105.008,87.441 L103.4057,87.228 L101.8174,86.997 L100.2299,86.765 L98.6593,86.512 L97.0888,86.26 L95.5368,85.985 L93.9841,85.711 L92.4495,85.417 L90.9159,85.124 L89.4036,84.808 L87.8915,84.493 L86.4023,84.156 L84.9125,83.819 L83.4449,83.462 L81.9784,83.105 L80.5377,82.726 L79.0974,82.348 L77.6845,81.947 L76.2709,81.546 L74.8835,81.125 L73.4975,80.705 L72.1418,80.262 L70.7865,79.819 L69.4631,79.355 L68.139,78.89 L66.8451,78.404 L65.5529,77.92 L64.2954,77.413 L63.0384,76.906 L61.8179,76.377 L60.5931,75.846 L59.4015,75.303 L58.2267,74.748 L57.0712,74.181 L55.9341,73.604 L54.8185,73.017 L53.7232,72.418 L52.6474,71.809 L51.5941,71.189 L50.5623,70.558 L49.551,69.916 L48.5634,69.265 L47.5983,68.601 L46.6547,67.928 L45.736,67.244 L44.8408,66.548 L43.968,65.842 L43.1213,65.127 L42.299,64.399 L41.5001,63.661 L40.7283,62.914 L39.982,62.154 L39.26,61.385 L38.5659,60.605 L37.8983,59.814 L37.2559,59.013 L36.6424,58.202 L36.0562,57.379 L35.496,56.546 L34.9655,55.703 L34.4634,54.848 L33.9879,53.982 L33.5429,53.107 L33.1272,52.219 L32.7389,51.321 L32.3819,50.413 L32.0551,49.492 L31.7566,48.56 L31.49,47.618 L31.2548,46.663 L31.0487,45.696 L30.8755,44.719 L30.7347,43.727 L30.6241,42.724 L30.5472,41.71 L30.5042,40.682 L30.4924,39.641 L30.5153,38.589 L30.5738,37.519 L30.6378,36.74 L30.7231,35.972 L30.8295,35.215 L30.9546,34.47 L31.0998,33.737 L31.2617,33.031 L31.6517,31.604 L32.1152,30.242 L32.6567,28.921 L33.2669,27.639 L33.95,26.403 L34.7078,25.204 L35.5311,24.043 L36.4236,22.923 L37.3878,21.84 L38.4144,20.791 L39.5066,19.781 L40.667,18.807 L41.8863,17.867 L43.1673,16.964 L44.512,16.096 L45.9119,15.261 L47.369,14.462 L48.885,13.698 L50.4517,12.965 L52.071,12.267 L53.744,11.603 L55.4633,10.97 L57.2302,10.37 L59.0454,9.804 L60.9021,9.266 L62.8054,8.76 L63.7718,8.525 L64.7437,8.287 L65.7335,8.065 L66.7227,7.842 L67.7308,7.635 L68.7393,7.427 L69.7658,7.235 L70.7936,7.042 L71.837,6.863 L72.8798,6.684 L73.9391,6.52 L74.9986,6.355 L76.0737,6.205 L77.1499,6.055 L78.2393,5.918 L79.3283,5.78 L80.4312,5.656 L81.5343,5.533 L82.6504,5.422 L83.7675,5.312 L84.8956,5.214 L86.0232,5.115 L87.1622,5.03 L88.3015,4.944 L89.4511,4.872 L90.5986,4.799 L91.7589,4.743 L92.9284,4.687 L94.0978,4.631 L95.2545,4.575 L96.4274,4.543 L97.6128,4.51 L98.7982,4.478 L99.9718,4.446 L101.1579,4.436 L102.3556,4.426 L103.5534,4.416 L104.7411,4.406 L105.9372,4.415 L107.1432,4.425 L108.3493,4.435 L109.545,4.444 L110.7467,4.474 L111.9587,4.504 L113.1707,4.534 L114.373,4.563 L115.5777,4.612 L116.792,4.661 L118.0063,4.71 L119.2123,4.759 L120.4175,4.824 L121.631,4.889 L122.8445,4.954 L124.0493,5.019 L125.25,5.101 L126.4594,5.184 L127.6689,5.266 L128.8701,5.348 L130.0635,5.445 L131.2652,5.543 L132.4669,5.641 L133.6632,5.739 L134.8524,5.847 L136.0431,5.955 L137.2276,6.07 L138.4121,6.184 L139.5895,6.306 L140.7673,6.428 L141.9379,6.555 L143.1081,6.682 L144.2697,6.816 L145.4313,6.949 L146.5832,7.089 L147.7355,7.228 L148.8782,7.373 L150.0207,7.517 L151.1519,7.667 L152.2832,7.816 L153.4023,7.971 L154.5218,8.126 L155.6294,8.284 L156.7367,8.443 L157.8303,8.607 L158.9239,8.77 L160.0028,8.937 L161.0821,9.105 L162.1472,9.276 L163.2121,9.447 L164.2607,9.621 L165.3093,9.796 L166.3407,9.973 L167.3724,10.151 L168.3877,10.331 L169.4028,10.512 L170.399,10.695 L171.3939,10.878 L173.3484,11.249 L175.2644,11.624 L177.1373,12.002 L178.966,12.383 L180.7527,12.767 L182.4912,13.152 L184.1804,13.539 L185.823,13.926 L187.4122,14.313 L188.9469,14.7 L190.4302,15.086 L191.8548,15.47 L193.2198,15.852 L194.5285,16.231 L195.7729,16.606 L196.9523,16.977 L198.0702,17.343 L199.1179,17.703 L200.0987,18.059 L200.9658,18.383 L201.9122,18.744 L202.9297,19.137 L204.0075,19.561 L205.1471,20.017 L206.3442,20.506 L207.5894,21.023 L208.8828,21.571 L210.2203,22.15 L211.5935,22.756 L213.0013,23.391 L214.4398,24.056 L215.9016,24.746 L217.3845,25.464 L218.8844,26.21 L220.3954,26.98 L221.9137,27.776 L223.4355,28.598 L224.9561,29.442 L226.4701,30.311 L227.9743,31.205 L229.4647,32.119 L230.9348,33.056 L232.3815,34.016 L233.802,34.994 L235.1882,35.993 L236.5375,37.013 L237.8481,38.05 L239.1106,39.105 L240.3227,40.178 L241.4836,41.266 L242.5827,42.369 L243.6181,43.488 L244.5903,44.618 L245.4873,45.76 L246.3172,46.928 L246.691,47.495 L247.0519,48.077 L247.3923,48.663 L247.7129,49.25 L248.0103,49.837 L248.2859,50.428 L248.5405,51.021 L248.7709,51.613 L248.9782,52.209 L249.1635,52.806 L249.3237,53.402 L249.4596,54.003 L249.5725,54.604 L249.6595,55.205 L249.7208,55.811 L249.7581,56.419 L249.7686,57.026 L249.7517,57.639 L249.7097,58.254 L249.6395,58.869 L249.54,59.491 L249.4137,60.116 L249.2577,60.743 L249.0702,61.376 L248.8587,61.995 L248.6182,62.604 L248.3466,63.21 L248.0477,63.81 L247.72,64.402 L247.3611,64.99 L246.9751,65.573 L246.5606,66.149 L246.115,66.72 L245.6426,67.287 L245.1422,67.846 L244.6113,68.4 L244.0539,68.949 L243.4692,69.49 L242.8545,70.026 L242.2142,70.556 L241.5472,71.078 L240.8512,71.595 L240.1303,72.105 L239.3836,72.607 L238.609,73.104 L237.8104,73.593 L236.9868,74.075 L236.1365,74.549 L235.2632,75.017 L234.3659,75.477 L233.443,75.93 L232.4981,76.376 L231.5301,76.814 L230.542,77.242 L229.5135,77.664 L228.4901,78.083 L227.4226,78.486 L226.3543,78.89 L225.2433,79.277 L224.1302,79.666 L222.9795,80.039 L221.8297,80.412 L220.6398,80.769 L219.4493,81.125 L218.2203,81.466 L216.9896,81.807 L215.7251,82.133 L214.4613,82.458 L213.1616,82.767 L211.8616,83.077 L210.5271,83.37 L209.1912,83.663 L207.8253,83.941 L206.46,84.219 L205.063,84.481 L203.6656,84.742 L202.238,84.987 L200.8092,85.232 L199.3541,85.462 L197.8996,85.692 L196.4175,85.906 L194.9351,86.119 L193.4266,86.316 L191.9171,86.513 L190.385,86.694 L188.8535,86.876 L187.2985,87.041 L185.7433,87.206 L184.166,87.355 L182.5879,87.503 L180.9909,87.637 L179.3946,87.77 L177.7787,87.887 L176.1628,88.003 L174.529,88.103 L172.8943,88.203 L171.2445,88.288 L169.5954,88.373 L167.9308,88.442 L166.2662,88.51 L164.5878,88.561 L162.9087,88.613 L161.2181,88.65 L159.5282,88.686 L157.827,88.706 L156.1257,88.726 L154.4148,88.729 L152.7031,88.732 L150.9838,88.72 L149.2651,88.708 L147.5392,88.68 L145.8134,88.651 L144.0819,88.606 L142.3498,88.561 L140.6137,88.5 L138.8782,88.44 L137.1397,88.363 L135.4012,88.286 L133.6611,88.193 L131.9205,88.1 L130.1796,87.991 L128.4393,87.883 L126.7001,87.758 L124.9609,87.633 L123.2243,87.492 L121.4871,87.35 L119.7534,87.193 L118.0203,87.037 L116.2924,86.863 L114.5646,86.69 L112.8434,86.5 L111.1216,86.311 L109.4071,86.105 L107.6932,85.901 L105.9886,85.679 L104.2841,85.458 L102.5904,85.22 L100.896,84.982 L99.2126,84.728 L97.53,84.475 L95.8607,84.206 L94.1916,83.936 L92.5373,83.65 L90.8823,83.364 L89.2421,83.062 L87.6027,82.761 L85.9808,82.444 L84.359,82.126 L82.7562,81.792 L81.1528,81.458 L79.5677,81.109 L77.9836,80.76 L76.4211,80.394 L74.8588,80.029 L73.3195,79.647 L71.7796,79.265 L70.2618,78.867 L68.7451,78.471 L67.2541,78.057 L65.7634,77.644 L64.2998,77.215 L62.8355,76.785 L61.3971,76.34 L59.9599,75.896 L58.5525,75.436 L57.1454,74.976 L55.7696,74.499 L54.393,74.022 L53.046,73.53 L51.7005,73.039 L50.3889,72.532 L49.0777,72.024 L47.8019,71.501 L46.5253,70.977 L45.282,70.438 L44.0404,69.901 L42.8369,69.347 L41.6339,68.793 L40.4704,68.224 L39.3022,67.652 L38.17,67.073 L37.0558,66.485 L35.9623,65.889 L34.8885,65.286 L33.8377,64.675 L32.8084,64.057 L31.7998,63.431 L30.8152,62.798 L29.8531,62.158 L28.9127,61.51 L27.9974,60.856 L27.1056,60.194 L26.2363,59.525 L25.3931,58.849 L24.5744,58.166 L23.7791,57.476 L23.0109,56.78 L22.2681,56.076 L21.5495,55.365 L20.859,54.649 L20.1947,53.925 L19.5554,53.195 L18.9451,52.459 L18.3617,51.715 L17.804,50.966 L17.276,50.211 L16.7758,49.448 L16.3018,48.679 L15.8581,47.906 L15.4429,47.124 L15.0545,46.336 L14.6968,45.544 L14.3683,44.743 L14.0673,43.935 L13.7973,43.123 L13.5568,42.3 L13.3204,41.391 L13.1161,40.499 L12.9429,39.621 L12.7977,38.759 L12.6831,37.914 L12.598,37.083 L12.5391,36.266 L12.5089,35.467 L12.5064,34.681 L12.5287,33.908 L12.5777,33.153 L12.6529,32.409 L12.7515,31.678 L12.8748,30.963 L13.0232,30.259 L13.1935,29.567 L13.387,28.89 L13.6044,28.223 L13.8427,27.567 L14.1026,26.926 L14.3856,26.294 L14.6883,25.672 L15.0115,25.063 L15.3455,24.482 L16.1039,23.292 L16.9286,22.167 L17.8328,21.08 L18.8045,20.028 L19.8448,19.019 L20.9549,18.047 L22.1233,17.11 L23.3501,16.213 L24.6355,15.352 L25.9691,14.525 L27.3497,13.737 L28.7769,12.983 L30.2415,12.263 L31.7414,11.578 L33.2756,10.928 L34.8361,10.308 L36.4199,9.722 L38.0256,9.168 L39.6464,8.644 L41.2786,8.15 L42.9204,7.687 L44.5664,7.252 L46.2118,6.845 L47.8542,6.466 L49.4895,6.112 L51.1123,5.784 L52.7199,5.48 L54.3094,5.199 L55.8744,4.941 L57.412,4.706 L58.9205,4.49 L60.3925,4.296 L61.825,4.121 L63.2175,3.963 L64.5615,3.823 L65.8508,3.7 L66.8361,3.62 L67.8914,3.555 L69.0196,3.504 L70.2112,3.466 L71.4695,3.443 L72.7942,3.434 L74.1767,3.439 L75.6204,3.458 L77.1247,3.492 L78.6818,3.54 L80.2948,3.602 L81.9628,3.68 L83.6788,3.772 L85.4456,3.878 L87.2622,3.998 L89.1222,4.131 L91.0279,4.279 L92.9794,4.441 L93.9729,4.529 L94.9672,4.616 L95.9821,4.711 L96.997,4.805 L98.0314,4.907 L99.0662,5.008 L100.1181,5.117 L101.1697,5.225 L102.2393,5.34 L103.3088,5.455 L104.3954,5.577 L105.4824,5.699 L106.5842,5.827 L107.6856,5.956 L108.8025,6.091 L109.9195,6.226 L111.051,6.369 L112.1828,6.511 L113.3272,6.659 L114.4712,6.808 L115.6283,6.963 L116.7853,7.118 L117.9545,7.281 L119.1224,7.442 L120.3054,7.613 L121.493,7.784 L122.6806,7.956 L123.8614,8.126 L125.0618,8.31 L126.2688,8.495 L127.4758,8.68 L128.676,8.864 L129.8921,9.062 L131.1149,9.26 L132.3378,9.458 L133.5543,9.656 L134.7824,9.865 L136.0168,10.076 L137.2512,10.286 L138.4784,10.496 L139.7153,10.718 L140.9592,10.942 L142.203,11.166 L143.4396,11.388 L144.6821,11.623 L145.9319,11.86 L147.1817,12.097 L148.4246,12.333 L149.6701,12.58 L150.9224,12.829 L152.1748,13.077 L153.4192,13.324 L154.6633,13.584 L155.9153,13.846 L157.1674,14.107 L158.4112,14.366 L159.651,14.638 L160.8991,14.912 L162.1472,15.186 L163.3874,15.458 L164.6211,15.741 L165.8627,16.027 L167.1043,16.312 L168.3368,16.595 L169.559,16.891 L170.7903,17.189 L172.0217,17.487 L173.2433,17.783 L174.451,18.091 L175.6684,18.401 L176.8859,18.712 L178.0963,19.02 L179.2955,19.337 L180.4964,19.655 L181.6879,19.978 L182.8792,20.302 L184.0603,20.632 L185.2418,20.962 L186.4132,21.297 L187.584,21.632 L188.7429,21.973 L189.9016,22.314 L191.0476,22.661 L192.194,23.009 L193.3281,23.361 L194.4615,23.714 L195.5805,24.072 L196.6993,24.43 L197.8029,24.794 L198.9069,25.158 L199.9964,25.528 L201.085,25.897 L202.1567,26.272 L203.2282,26.647 L204.2819,27.028 L205.3362,27.409 L206.3736,27.796 L207.41,28.181 L208.427,28.573 L209.4437,28.964 L210.4402,29.362 L211.4373,29.759 L212.4152,30.161 L213.3919,30.563 L214.3468,30.971 L215.3013,31.378 L216.2331,31.791 L217.1654,32.204 L218.0764,32.623 L218.9821,33.038 L220.7559,33.886 L222.4755,34.743 L224.1468,35.608 L225.7621,36.483 L227.322,37.368 L228.8289,38.262 L230.2743,39.163 L231.6594,40.075 L232.9865,40.994 L234.2467,41.919 L235.4415,42.854 L236.5738,43.794 L237.6338,44.739 L238.6238,45.692 L239.5471,46.649 L240.3934,47.608 L241.166,48.573 L241.8686,49.541 L242.491,50.507 L243.0373,51.478 L243.5122,52.45 L243.906,53.418 L244.228,54.41 L244.358,54.921 L244.4524,55.435 L244.5097,55.946 L244.5342,56.451 L244.523,56.946 L244.4767,57.443 L244.3993,57.939 L244.2885,58.428 L244.1419,58.924 L243.964,59.42 L243.753,59.914 L243.5052,60.413 L243.2256,60.914 L242.913,61.413 L242.5638,61.916 L242.1833,62.42 L241.7708,62.921 L241.3231,63.424 L240.8455,63.926 L240.3379,64.426 L239.7972,64.925 L239.2288,65.422 L238.6325,65.915 L238.0206,66.395 L236.6771,67.381 L235.2471,68.338 L233.7184,69.279 L232.1086,70.205 L230.412,71.113 L229.5377,71.551 L228.6533,71.994 L227.7399,72.427 L226.8268,72.86 L225.8851,73.281 L224.942,73.703 L223.974,74.112 L223.0037,74.523 L222.0138,74.923 L221.0243,75.323 L220.0166,75.711 L219.0079,76.099 L217.9848,76.474 L216.9599,76.85 L215.925,77.215 L214.8904,77.579 L213.8481,77.931 L212.805,78.283 L211.7581,78.622 L210.7097,78.962 L209.6608,79.29 L208.6121,79.617 L207.5663,79.932 L206.5198,80.246 L205.4799,80.548 L204.4388,80.849 L203.4067,81.139 L202.3748,81.428 L201.3563,81.703 L200.3372,81.979 L199.3351,82.241 L198.332,82.503 L197.3474,82.753 L196.3653,83.002 L194.4413,83.474 L192.5733,83.916 L190.7606,84.333 L189.0162,84.722 L187.344,85.081 L186.5395,85.25 L185.754,85.413 L184.9905,85.567 L184.2482,85.716 L183.5301,85.856 L182.8368,85.989 L182.167,86.115 L181.5242,86.234 L180.9089,86.345 L180.3197,86.449 L179.7603,86.545 L179.2312,86.634 L178.7308,86.715 L178.2633,86.789 L177.8292,86.854 L177.4268,86.913 L177.0612,86.963 L176.7339,87.006 L175.4101,87.167 L174.0879,87.329 L172.7469,87.487 L171.4063,87.644 L170.0478,87.797 L168.6892,87.95 L167.3152,88.098 L165.942,88.245 L164.5528,88.387 L163.164,88.529 L161.7602,88.663 L160.3563,88.798 L158.9396,88.926 L157.5238,89.054 L156.0949,89.174 L154.6663,89.294 L153.2258,89.405 L151.785,89.516 L150.3341,89.619 L148.8841,89.721 L147.424,89.814 L145.9643,89.906 L144.4954,89.988 L143.0263,90.07 L141.5497,90.141 L140.0742,90.212 L138.5913,90.271 L137.1089,90.331 L135.6204,90.377 L134.1314,90.424 L132.6377,90.458 L131.145,90.492 L129.6481,90.513 L128.1515,90.533 L126.6518,90.539 L125.1515,90.545 L123.6492,90.536 L122.148,90.528 L120.6455,90.504 L119.1434,90.48 L117.641,90.439 L116.138,90.398 L114.6356,90.341 L113.1345,90.285 L111.635,90.21 L110.136,90.136 L108.6395,90.042 L107.1424,89.949 L105.6485,89.838 L104.156,89.728 L102.6681,89.597 L101.1806,89.467 L99.6987,89.316 L98.216,89.164 L96.7392,88.994 L95.2641,88.823 L93.7963,88.631 L92.3291,88.439 L90.8702,88.225 L89.4106,88.01 L87.9594,87.774 L86.5102,87.539 L85.0711,87.28 L83.6327,87.021 L82.2057,86.737 L80.7776,86.453 L79.3607,86.146 L77.9459,85.84 L76.5442,85.508 L75.1432,85.177 L73.7564,84.818 L72.3686,84.46 L70.9945,84.077 L69.6226,83.695 L68.2669,83.285 L66.9118,82.875 L65.5738,82.437 L64.2346,81.999 L62.9118,81.534 L61.5915,81.07 L60.2901,80.577 L58.9893,80.084 L57.7086,79.561 L56.4265,79.037 L55.1633,78.485 L53.9028,77.935 L52.664,77.352 L51.4259,76.771 L50.2107,76.157 L48.9938,75.543 L47.7985,74.899 L46.6059,74.256 L45.438,73.58 L44.2705,72.905 L43.1288,72.195 L41.9791,71.481 L41.0232,70.856 L40.0629,70.228 L39.1481,69.603 L38.2333,68.979 L37.3634,68.358 L36.4921,67.737 L35.6611,67.118 L34.8317,66.501 L34.046,65.888 L33.2662,65.28 L31.774,64.056 L30.3652,62.846 L29.0422,61.646 L27.8004,60.455 L26.633,59.273 L25.5478,58.104 L24.5399,56.944 L23.6027,55.795 L22.744,54.661 L21.9583,53.537 L21.2395,52.426 L20.5947,51.33 L20.0185,50.246 L19.5048,49.175 L19.0599,48.121 L18.6789,47.079 L18.3558,46.05 L18.096,45.039 L17.8955,44.038 L17.7482,43.05 L17.6587,42.08 L17.6248,41.118 L17.6403,40.166 L17.7089,39.231 L17.8305,38.302 L17.9986,37.383 L18.2166,36.478 L18.4859,35.578 L18.7999,34.686 L19.1613,33.807 L19.5726,32.934 L20.0272,32.068 L20.527,31.216 L21.0751,30.37 L21.6647,29.533 L22.2972,28.709 L22.9758,27.893 L23.6936,27.088 L24.4518,26.296 L25.2532,25.515 L26.0912,24.746 L26.9666,23.991 L27.8821,23.248 L28.8313,22.518 L29.8146,21.805 L30.8346,21.104 L31.8852,20.418 L32.9666,19.749 L34.0811,19.095 L35.223,18.457 L36.3924,17.835 L37.5912,17.231 L38.8142,16.642 L40.0612,16.073 L41.3339,15.521 L42.6276,14.985 L43.9418,14.47 L45.2781,13.973 L46.6322,13.494 L48.0032,13.035 L49.3928,12.596 L50.7968,12.175 L52.2143,11.775 L53.6467,11.396 L55.0903,11.036 L56.5439,10.698 L58.0088,10.382 L59.4817,10.085 L60.961,9.811 L62.448,9.559 L63.9398,9.328 L65.4345,9.12 L66.9333,8.935 L68.4336,8.772 L69.9332,8.632 L71.4334,8.516 L72.9319,8.422 L74.4261,8.352 L75.9174,8.307 L77.4037,8.285 L78.882,8.288 L80.3539,8.316 L81.8176,8.367 L83.2696,8.443 L84.7117,8.546 L86.1423,8.672 L87.5576,8.824 L88.9594,9.003 L90.3465,9.206 L91.7145,9.436 L93.0842,9.696 C94.1016,9.889 95.0827,9.221 95.2756,8.203 C95.4685,7.186 94.8001,6.205 93.7827,6.012 Z" id="Fill-86"></path>
            <path d="M117.3833,7.303 C91.3183,-5.339 5.4487,10.098 26.6353,55.468 C43.8451,92.321 230.9708,109.964 253.6427,63.221 C277.2522,14.544 80.9702,-5.027 49.8037,3.768" id="Fill-95"></path>
            <path d="M118.1727,5.602 L117.3089,5.203 L116.3778,4.811 L115.4149,4.443 L114.4215,4.095 L113.3932,3.768 L112.3354,3.462 L111.2499,3.176 L110.1326,2.909 L108.9884,2.664 L107.8191,2.436 L106.6213,2.229 L105.3995,2.042 L104.1552,1.873 L102.8857,1.723 L101.5951,1.594 L100.285,1.482 L98.953,1.39 L97.6029,1.317 L96.2362,1.263 L94.8509,1.227 L93.4507,1.212 L92.0369,1.214 L90.6079,1.235 L89.1618,1.276 L87.712,1.343 L86.2548,1.411 L84.7783,1.518 L83.3018,1.624 L81.811,1.77 L80.3223,1.915 L78.8245,2.096 L77.3245,2.277 L75.8189,2.497 L74.3131,2.717 L72.8068,2.976 L71.3022,3.235 L69.8011,3.53 L68.2975,3.825 L66.8023,4.16 L65.3064,4.494 L63.8238,4.868 L62.3429,5.242 L60.8781,5.651 L59.4103,6.061 L57.9647,6.511 L56.5183,6.962 L55.0991,7.452 L53.6877,7.94 L52.2836,8.459 L50.9007,8.997 L49.5366,9.555 L48.1896,10.132 L46.861,10.729 L45.555,11.347 L44.2692,11.984 L43.0052,12.642 L41.7671,13.32 L40.5522,14.017 L39.3624,14.736 L38.2021,15.476 L37.0682,16.235 L35.9628,17.016 L34.8906,17.818 L33.8481,18.64 L32.8375,19.486 L31.864,20.352 L30.9236,21.239 L30.0189,22.149 L29.1552,23.081 L28.3282,24.034 L27.5411,25.011 L26.7991,26.01 L26.0978,27.03 L25.4409,28.076 L24.8334,29.142 L24.2708,30.229 L23.7574,31.343 L23.2978,32.475 L22.8874,33.629 L22.5311,34.808 L22.2328,36.005 L21.9875,37.222 L21.8016,38.463 L21.6773,39.72 L21.6095,40.995 L21.6047,42.293 L21.664,43.605 L21.7826,44.934 L21.9675,46.284 L22.2187,47.648 L22.5316,49.027 L22.9138,50.426 L23.365,51.839 L23.8799,53.266 L24.4669,54.713 L25.1202,56.164 L25.4375,56.807 L25.7813,57.436 L26.1523,58.055 L26.549,58.669 L26.9747,59.277 L27.426,59.877 L27.9014,60.47 L28.4044,61.059 L28.9317,61.64 L29.482,62.215 L30.0586,62.785 L30.6584,63.348 L31.2802,63.905 L31.9271,64.458 L32.5964,65.004 L33.2868,65.546 L34.0013,66.082 L34.7375,66.613 L35.4939,67.138 L36.2736,67.659 L37.0741,68.174 L37.8942,68.685 L38.7368,69.191 L39.6093,69.695 L41.3766,70.671 L42.3162,71.157 L43.2487,71.64 L44.2212,72.113 L45.1915,72.584 L46.1974,73.047 L47.204,73.511 L48.2487,73.964 L49.2926,74.418 L50.3738,74.86 L51.4532,75.302 L52.5651,75.734 L53.6776,76.167 L54.8246,76.59 L55.9712,77.012 L57.151,77.424 L58.3293,77.836 L59.537,78.239 L60.7452,78.641 L61.9832,79.038 L63.2209,79.434 L64.4884,79.82 L65.7548,80.206 L67.0473,80.582 L68.3404,80.958 L69.6612,81.324 L70.9818,81.689 L72.3287,82.044 L73.6739,82.402 L75.0421,82.75 L76.4108,83.098 L77.8038,83.435 L79.1966,83.772 L80.6125,84.097 L82.0274,84.423 L83.4623,84.738 L84.8977,85.054 L86.3538,85.358 L87.8099,85.662 L89.2854,85.954 L90.7602,86.246 L92.2517,86.528 L93.7438,86.81 L95.2531,87.079 L96.7624,87.349 L98.2877,87.606 L99.8123,87.864 L101.3504,88.11 L102.8891,88.356 L104.4416,88.59 L105.994,88.824 L107.559,89.045 L109.1233,89.266 L110.6981,89.475 L112.2734,89.684 L113.8589,89.881 L115.4445,90.077 L117.039,90.261 L118.633,90.444 L120.2341,90.615 L121.8358,90.787 L123.4443,90.945 L125.0528,91.103 L126.6668,91.247 L128.2802,91.392 L129.8976,91.524 L131.5156,91.656 L133.137,91.773 L134.7584,91.891 L136.3817,91.994 L138.0046,92.097 L139.6282,92.188 L141.2525,92.278 L142.8765,92.355 L144.5005,92.431 L146.1231,92.493 L147.7451,92.555 L149.3647,92.603 L150.985,92.652 L152.6016,92.686 L154.2182,92.72 L155.8298,92.739 L157.4409,92.757 L159.0464,92.762 L160.6526,92.767 L162.2516,92.757 L163.8506,92.747 L165.4412,92.722 L167.0312,92.696 L168.6125,92.656 L170.1945,92.616 L171.7658,92.56 L173.3372,92.504 L174.8966,92.432 L176.4554,92.36 L178.0023,92.274 L179.55,92.187 L181.0835,92.085 L182.6171,91.982 L184.1352,91.864 L185.6528,91.745 L187.1553,91.611 L188.6586,91.477 L190.1443,91.327 L191.63,91.176 L193.0969,91.009 L194.5631,90.842 L196.0111,90.66 L197.46,90.477 L198.8878,90.277 L200.3158,90.077 L201.7213,89.86 L203.1262,89.643 L204.5097,89.41 L205.8942,89.177 L207.2541,88.927 L208.6143,88.676 L209.9485,88.407 L211.2821,88.139 L212.591,87.854 L213.9013,87.569 L215.1833,87.266 L216.4658,86.963 L217.719,86.642 L218.9715,86.321 L220.1962,85.984 L221.4223,85.645 L222.6169,85.289 L223.8119,84.932 L224.9741,84.556 L226.1354,84.18 L227.2658,83.787 L228.398,83.394 L229.4952,82.981 L230.5929,82.568 L231.6543,82.135 L232.7147,81.703 L233.7411,81.253 L234.7696,80.801 L235.7595,80.33 L236.75,79.859 L237.7007,79.367 L238.6503,78.875 L239.5631,78.366 L240.4847,77.852 L242.225,76.792 L243.8748,75.692 L244.6845,75.118 L245.4632,74.538 L246.2184,73.948 L246.9527,73.347 L247.6649,72.735 L248.3524,72.111 L249.0181,71.477 L249.6607,70.831 L250.2775,70.173 L250.8716,69.505 L251.4414,68.824 L251.9842,68.132 L252.5033,67.429 L252.9967,66.712 L253.4622,65.985 L253.9026,65.248 L254.3161,64.496 L254.7007,63.733 L255.0695,62.937 L255.4019,62.141 L255.6963,61.35 L255.9568,60.562 L256.1809,59.775 L256.3675,58.993 L256.5206,58.214 L256.6374,57.436 L256.7176,56.665 L256.7647,55.897 L256.776,55.132 L256.7516,54.374 L256.695,53.62 L256.6033,52.869 L256.4774,52.127 L256.3205,51.39 L256.1296,50.658 L255.9063,49.934 L255.6534,49.216 L255.3681,48.503 L255.0524,47.799 L254.7087,47.101 L254.3338,46.408 L253.9301,45.724 L253.4999,45.047 L253.0399,44.375 L252.5528,43.711 L252.0403,43.054 L251.4995,42.402 L250.9329,41.757 L250.3421,41.119 L249.7243,40.486 L249.0817,39.86 L248.416,39.24 L247.7246,38.625 L247.0094,38.017 L246.2722,37.415 L245.5103,36.817 L244.7255,36.227 L243.9196,35.641 L243.0901,35.06 L242.2351,34.484 L241.3575,33.919 L240.4755,33.352 L239.5495,32.795 L238.6242,32.239 L237.6564,31.693 L236.6904,31.149 L235.6869,30.613 L234.6827,30.078 L233.6386,29.552 L232.595,29.027 L231.5129,28.511 L230.4323,27.997 L229.3178,27.492 L228.2028,26.986 L227.0515,26.491 L225.8993,26 L224.7125,25.518 L223.5271,25.038 L222.3114,24.566 L221.0953,24.094 L219.8473,23.632 L218.5996,23.17 L217.3214,22.719 L216.0443,22.267 L214.7398,21.827 L213.4349,21.387 L212.1021,20.957 L210.7696,20.528 L209.4106,20.108 L208.0525,19.688 L206.6715,19.277 L205.2902,18.867 L203.8852,18.465 L202.481,18.062 L201.0542,17.669 L199.6281,17.276 L198.1827,16.892 L196.7371,16.508 L195.2715,16.133 L193.8062,15.759 L192.3225,15.394 L190.8395,15.028 L189.341,14.671 L187.8422,14.315 L186.3275,13.968 L184.8129,13.62 L183.2839,13.283 L181.7554,12.946 L180.215,12.617 L178.6745,12.288 L177.1221,11.968 L175.5698,11.648 L174.0071,11.338 L172.4448,11.028 L170.8742,10.727 L169.3034,10.426 L167.7248,10.134 L166.1464,9.842 L164.5615,9.559 L162.977,9.277 L161.3878,9.003 L159.7985,8.729 L158.2053,8.465 L156.6122,8.201 L155.0168,7.946 L153.4205,7.691 L151.8233,7.449 L150.2296,7.208 L148.636,6.967 L147.0373,6.725 L145.4416,6.502 L143.8509,6.28 L142.2602,6.058 L140.6647,5.835 L139.0779,5.631 L137.4961,5.428 L135.9142,5.226 L134.3291,5.022 L132.753,4.832 L131.1777,4.642 L129.6108,4.462 L128.0438,4.281 L126.4866,4.11 L124.9297,3.94 L123.3827,3.777 L121.8355,3.615 L120.3007,3.462 L118.766,3.309 L117.2449,3.165 L115.7241,3.022 L114.217,2.887 L112.7097,2.752 L111.2186,2.627 L109.7276,2.502 L108.2544,2.386 L106.7814,2.27 L105.3258,2.162 L103.8699,2.055 L102.4344,1.958 L100.9989,1.86 L99.5851,1.772 L98.1716,1.684 L96.7791,1.604 L95.3863,1.525 L94.018,1.455 L92.6496,1.385 L91.307,1.325 L89.9646,1.265 L88.6469,1.213 L87.3289,1.162 L86.0394,1.119 L84.7498,1.078 L83.49,1.045 L82.2304,1.013 L80.9992,0.989 L79.7676,0.965 L78.5684,0.951 L77.3692,0.937 L76.2039,0.932 L75.0387,0.927 L73.9055,0.931 L72.7719,0.935 L71.6747,0.949 L70.5774,0.963 L69.518,0.986 L68.4588,1.009 L67.4352,1.041 L66.4096,1.073 L64.4433,1.156 L62.5593,1.257 L60.7531,1.377 L59.0345,1.516 L57.4104,1.673 L56.6252,1.759 L55.8663,1.85 L55.1317,1.945 L54.419,2.045 L53.7302,2.15 L53.0666,2.26 L52.4255,2.374 L51.809,2.494 L51.2185,2.618 L50.6512,2.747 L50.1089,2.882 L49.6012,3.02 C49.188,3.132 48.9438,3.558 49.0557,3.971 C49.1675,4.384 49.5931,4.628 50.0063,4.516 L50.4976,4.384 L51.0092,4.257 L51.5497,4.135 L52.1157,4.017 L52.7084,3.903 L53.3286,3.794 L53.9729,3.689 L54.6428,3.588 L55.3388,3.492 L56.0578,3.4 L56.8013,3.312 L57.5664,3.23 L59.1715,3.077 L60.8664,2.944 L62.6521,2.829 L64.5175,2.731 L66.4687,2.653 L67.4829,2.623 L68.4992,2.593 L69.5512,2.572 L70.6031,2.551 L71.693,2.54 L72.783,2.528 L73.9097,2.526 L75.0368,2.524 L76.196,2.531 L77.3549,2.538 L78.548,2.554 L79.741,2.571 L80.9667,2.597 L82.1926,2.623 L83.447,2.657 L84.7011,2.692 L85.9852,2.736 L87.2693,2.78 L88.582,2.834 L89.8949,2.888 L91.2325,2.95 L92.5699,3.013 L93.9333,3.085 L95.2966,3.157 L96.6844,3.239 L98.0724,3.321 L99.4814,3.411 L100.8903,3.501 L102.321,3.601 L103.7517,3.701 L105.2028,3.811 L106.6541,3.921 L108.1227,4.039 L109.5912,4.157 L111.0774,4.286 L112.5636,4.414 L114.0662,4.552 L115.5689,4.69 L117.0853,4.836 L118.6015,4.983 L120.1315,5.139 L121.6614,5.295 L123.2035,5.462 L124.7458,5.628 L126.2982,5.804 L127.8503,5.979 L129.4121,6.164 L130.9738,6.348 L132.5438,6.543 L134.1129,6.737 L135.6909,6.945 L137.2722,7.152 L138.8534,7.36 L140.4298,7.567 L142.0149,7.794 L143.6049,8.021 L145.1949,8.248 L146.7798,8.475 L148.3676,8.72 L149.9605,8.967 L151.5534,9.213 L153.1426,9.459 L154.7309,9.718 L156.32,9.977 L157.9067,10.246 L159.4933,10.515 L161.0759,10.794 L162.6587,11.073 L164.2369,11.36 L165.8146,11.648 L167.3859,11.945 L168.9571,12.242 L170.5203,12.55 L172.0836,12.857 L173.6385,13.173 L175.193,13.489 L176.737,13.815 L178.2808,14.141 L179.8127,14.476 L181.3447,14.812 L182.8645,15.157 L184.3838,15.502 L185.8885,15.857 L187.393,16.211 L188.8816,16.575 L190.3703,16.939 L191.8432,17.312 L193.3154,17.686 L194.7689,18.069 L196.2221,18.453 L197.6552,18.846 L199.0885,19.239 L200.5024,19.64 L201.9156,20.042 L203.3061,20.453 L204.696,20.865 L206.0613,21.288 L207.427,21.711 L208.7694,22.142 L210.111,22.574 L211.4259,23.014 L212.7403,23.455 L214.0265,23.904 L215.3131,24.354 L216.5736,24.81 L217.8332,25.266 L219.0618,25.731 L220.2901,26.196 L221.486,26.67 L222.6824,27.144 L223.8481,27.627 L225.0127,28.11 L226.1423,28.601 L227.2729,29.089 L228.3673,29.587 L229.4622,30.084 L230.5229,30.589 L231.5822,31.094 L232.6025,31.609 L233.6222,32.123 L234.6015,32.646 L235.5814,33.17 L236.5232,33.701 L237.4634,34.232 L238.3605,34.772 L239.2569,35.312 L240.1087,35.86 L240.9649,36.411 L241.782,36.963 L242.5782,37.521 L243.3513,38.083 L244.1022,38.649 L244.8277,39.219 L245.529,39.793 L246.2073,40.37 L246.8591,40.95 L247.4857,41.535 L248.0884,42.123 L248.6637,42.713 L249.2131,43.308 L249.7378,43.906 L250.2341,44.505 L250.7038,45.109 L251.1481,45.715 L251.5634,46.323 L251.9514,46.935 L252.3136,47.55 L252.6462,48.166 L252.951,48.786 L253.2295,49.409 L253.4781,50.032 L253.698,50.661 L253.8915,51.292 L254.0549,51.924 L254.1894,52.562 L254.2969,53.204 L254.3742,53.847 L254.4216,54.496 L254.4414,55.15 L254.4304,55.806 L254.3882,56.47 L254.3175,57.139 L254.215,57.812 L254.0797,58.493 L253.9144,59.179 L253.7162,59.87 L253.4832,60.57 L253.2189,61.277 L252.9202,61.988 L252.5847,62.708 L252.2357,63.397 L251.861,64.074 L251.4593,64.744 L251.034,65.406 L250.5838,66.057 L250.1069,66.7 L249.6069,67.335 L249.0826,67.959 L248.5321,68.576 L247.959,69.184 L247.3622,69.782 L246.7399,70.372 L246.0955,70.954 L245.4281,71.526 L244.7359,72.09 L244.0223,72.645 L243.2864,73.191 L242.5362,73.721 L240.9449,74.777 L239.2698,75.792 L238.3992,76.276 L237.5197,76.764 L236.6022,77.234 L235.6858,77.705 L234.729,78.156 L233.7717,78.607 L232.7752,79.04 L231.7768,79.474 L230.744,79.89 L229.7121,80.307 L228.6433,80.705 L227.5741,81.103 L226.4693,81.482 L225.3628,81.862 L224.2251,82.225 L223.0882,82.588 L221.918,82.933 L220.7474,83.277 L219.5449,83.604 L218.3408,83.931 L217.1089,84.241 L215.8776,84.552 L214.6166,84.844 L213.3552,85.136 L212.0654,85.41 L210.7743,85.685 L209.4585,85.943 L208.1434,86.201 L206.8021,86.442 L205.4605,86.683 L204.0941,86.906 L202.7267,87.13 L201.3376,87.338 L199.9493,87.545 L198.5383,87.736 L197.1271,87.927 L195.6945,88.1 L194.2611,88.274 L192.8093,88.433 L191.3581,88.592 L189.8878,88.733 L188.4174,88.875 L186.9291,89.001 L185.44,89.126 L183.9358,89.237 L182.4322,89.347 L180.913,89.442 L179.3937,89.536 L177.8602,89.614 L176.3258,89.693 L174.7796,89.757 L173.2339,89.821 L171.6762,89.869 L170.1184,89.917 L168.5498,89.95 L166.9806,89.983 L165.4026,90.002 L163.8252,90.022 L162.2393,90.026 L160.6533,90.03 L159.0601,90.019 L157.4662,90.008 L155.8668,89.983 L154.268,89.959 L152.6641,89.92 L151.0602,89.881 L149.4526,89.828 L147.8444,89.774 L146.2338,89.708 L144.6238,89.641 L143.0123,89.56 L141.4008,89.479 L139.7891,89.384 L138.1768,89.289 L136.5654,89.181 L134.9545,89.073 L133.3457,88.952 L131.7368,88.83 L130.1312,88.696 L128.5251,88.562 L126.923,88.416 L125.3214,88.269 L123.7255,88.109 L122.1295,87.95 L120.5404,87.777 L118.9507,87.604 L117.3683,87.419 L115.7864,87.234 L114.2136,87.037 L112.6409,86.839 L111.0785,86.629 L109.5156,86.419 L107.9631,86.197 L106.4112,85.976 L104.8719,85.743 L103.3326,85.51 L101.8072,85.264 L100.2813,85.019 L98.769,84.762 L97.2574,84.505 L95.7619,84.237 L94.2664,83.969 L92.7884,83.689 L91.3098,83.409 L89.848,83.119 L88.387,82.829 L86.9457,82.527 L85.5044,82.225 L84.0842,81.912 L82.6633,81.599 L81.2625,81.276 L79.8625,80.953 L78.4857,80.619 L77.1091,80.286 L75.7569,79.941 L74.4042,79.596 L73.0748,79.242 L71.7471,78.885 L70.4463,78.517 L69.1456,78.15 L67.873,77.772 L66.5999,77.394 L65.3532,77.007 L64.1077,76.621 L62.8925,76.224 L61.6778,75.828 L60.4959,75.418 L59.3135,75.008 L58.1608,74.589 L57.0096,74.172 L55.8923,73.744 L54.7755,73.318 L53.694,72.882 L52.6118,72.446 L51.5626,72.002 L50.5151,71.559 L49.5047,71.109 L48.4949,70.659 L47.524,70.201 L46.5522,69.742 L45.6167,69.276 L44.6834,68.812 L43.7913,68.339 L42.9064,67.871 L41.1921,66.903 L40.3821,66.424 L39.586,65.938 L38.8115,65.449 L38.0581,64.957 L37.3292,64.463 L36.623,63.965 L35.9387,63.465 L35.2801,62.964 L34.6449,62.459 L34.0324,61.953 L33.4466,61.445 L32.8849,60.935 L32.3468,60.424 L31.8361,59.912 L31.3504,59.398 L30.8886,58.883 L30.4549,58.369 L30.0466,57.853 L29.6628,57.337 L29.3076,56.823 L28.978,56.306 L28.6731,55.79 L28.3968,55.277 L28.1503,54.771 L27.5446,53.405 L27.0139,52.075 L26.5502,50.765 L26.1471,49.477 L25.8095,48.215 L25.5345,46.974 L25.3159,45.754 L25.1585,44.56 L25.0597,43.385 L25.0132,42.229 L25.0231,41.1 L25.0881,39.987 L25.2017,38.892 L25.3673,37.822 L25.5844,36.766 L25.8473,35.728 L26.1589,34.711 L26.5202,33.708 L26.9249,32.721 L27.3753,31.754 L27.8734,30.801 L28.4128,29.862 L28.9952,28.943 L29.6233,28.037 L30.2904,27.146 L30.9979,26.274 L31.7485,25.417 L32.5358,24.574 L33.3606,23.75 L34.2256,22.941 L35.1246,22.147 L36.058,21.372 L37.0284,20.613 L38.0298,19.87 L39.0626,19.145 L40.1287,18.438 L41.2229,17.746 L42.3449,17.074 L43.4969,16.418 L44.6736,15.78 L45.8748,15.16 L47.1022,14.558 L48.351,13.973 L49.6207,13.406 L50.913,12.858 L52.2234,12.326 L53.5514,11.814 L54.8922,11.322 L56.2681,10.851 L57.636,10.383 L59.0314,9.953 L60.4275,9.522 L61.8459,9.13 L63.2672,8.736 L64.7046,8.377 L66.1403,8.019 L67.5893,7.699 L69.0389,7.378 L70.4965,7.096 L71.9567,6.813 L73.42,6.565 L74.8816,6.317 L76.3423,6.107 L77.8032,5.897 L79.2581,5.725 L80.7151,5.552 L82.1624,5.415 L83.6078,5.277 L85.0379,5.178 L86.468,5.078 L87.8778,5.016 L89.295,4.954 L90.6836,4.918 L92.063,4.9 L93.4283,4.902 L94.7789,4.92 L96.1109,4.957 L97.4254,5.013 L98.7216,5.086 L99.9955,5.177 L101.2481,5.287 L102.4791,5.414 L103.6837,5.559 L104.8635,5.722 L106.0181,5.902 L107.1422,6.099 L108.2378,6.315 L109.3047,6.546 L110.3368,6.795 L111.3366,7.062 L112.3039,7.344 L113.2321,7.642 L114.1243,7.957 L114.9802,8.286 L115.7924,8.63 L116.5938,9.004 C117.5331,9.44 118.648,9.032 119.084,8.092 C119.52,7.153 119.112,6.038 118.1727,5.602 Z" id="Fill-96"></path>
        </g>
    </g>
</svg>
