<?xml version="1.0" encoding="UTF-8"?>
<svg width="208px" height="154px" viewBox="0 0 208 154" version="1.1" xmlns="http://www.w3.org/2000/svg" xmlns:xlink="http://www.w3.org/1999/xlink">
    <title>44</title>
    <g id="Page-1" stroke="none" stroke-width="1" fill="none" fill-rule="evenodd">
        <g id="44" transform="translate(0.601650, 0.635000)" fill="currentColor">
            <path d="M25.04384,54.171 L24.12325,55.233 L23.23216,56.318 L22.38779,57.405 L21.58435,58.496 L20.82419,59.592 L20.10978,60.69 L19.43547,61.79 L18.80363,62.897 L18.21655,64.003 L17.6688,65.112 L17.1628,66.225 L16.7005,67.338 L16.27676,68.453 L15.89408,69.571 L15.55397,70.688 L15.25155,71.805 L14.98947,72.925 L14.76867,74.042 L14.58459,75.159 L14.44002,76.277 L14.33524,77.392 L14.26609,78.504 L14.23543,79.617 L14.24295,80.725 L14.2848,81.831 L14.36399,82.935 L14.47959,84.033 L14.62812,85.128 L14.8127,86.221 L15.03185,87.306 L15.28246,88.387 L15.5677,89.466 L15.88569,90.536 L16.23363,91.601 L16.61475,92.662 L17.02683,93.716 L17.4674,94.763 L17.93965,95.805 L18.44118,96.839 L18.96974,97.866 L19.52853,98.888 L20.11499,99.901 L20.7271,100.907 L21.36798,101.907 L22.03502,102.897 L22.72638,103.881 L23.4451,104.857 L24.18853,105.824 L24.955,106.783 L25.74743,107.734 L26.5632,108.676 L27.40076,109.609 L28.26292,110.535 L29.14709,111.45 L30.05183,112.356 L30.97982,113.254 L31.92852,114.141 L32.8966,115.019 L33.88661,115.888 L34.90104,116.75 L35.9317,117.588 L36.96913,118.432 L38.04526,119.255 L39.12111,120.077 L40.23378,120.877 L41.34427,121.676 L42.48676,122.454 L43.63096,123.232 L44.8087,123.988 L45.98624,124.743 L47.19545,125.474 L48.40263,126.203 L49.63713,126.909 L50.87335,127.617 L52.13798,128.299 L53.40251,128.98 L54.69357,129.635 L55.98274,130.288 L57.29454,130.917 L58.60815,131.546 L59.94503,132.148 L61.28191,132.748 L62.6402,133.321 L63.99669,133.891 L65.37118,134.435 L66.74755,134.98 L68.14205,135.494 L69.53665,136.008 L70.94765,136.49 L72.35685,136.971 L73.77935,137.423 L75.20385,137.876 L76.64145,138.296 L78.07925,138.715 L79.52825,139.101 L80.97555,139.485 L82.43145,139.839 L83.88965,140.192 L85.35575,140.51 L86.82215,140.828 L88.29465,141.109 L89.76545,141.39 L91.24025,141.637 L92.71745,141.884 L94.19745,142.093 L95.67795,142.302 L97.15935,142.472 L98.63905,142.642 L100.11805,142.775 L101.59975,142.909 L103.07915,143.001 L104.55905,143.094 L106.03475,143.145 L107.50875,143.196 L108.97745,143.208 L110.44895,143.22 L111.91305,143.189 L113.37785,143.157 L114.83335,143.082 L116.28685,143.006 L117.73045,142.889 L119.17725,142.771 L120.61135,142.608 L122.04625,142.445 L123.46665,142.235 L124.87805,142.025 L126.29395,141.781 L127.69625,141.514 L129.08855,141.222 L130.47275,140.908 L131.84885,140.569 L133.21355,140.205 L134.56895,139.817 L135.91505,139.404 L137.24845,138.965 L138.57115,138.503 L139.88335,138.013 L141.18135,137.498 L142.46745,136.958 L143.74175,136.39 L145.00035,135.796 L146.24595,135.177 L147.47815,134.529 L148.69335,133.854 L149.89425,133.153 L151.08025,132.424 L152.24795,131.666 L153.39985,130.882 L154.53555,130.069 L155.65135,129.227 L156.75005,128.358 L157.83105,127.459 L158.89075,126.531 L159.93205,125.576 L160.95415,124.589 L161.95345,123.573 L162.93305,122.53 L163.89185,121.455 L164.82665,120.35 L165.74025,119.217 L166.63165,118.052 L167.49765,116.857 L168.34125,115.633 L169.16105,114.376 L169.95425,113.089 L170.72385,111.774 L171.46805,110.425 L172.18455,109.045 L172.87625,107.636 L173.54115,106.193 L174.17695,104.719 L174.78655,103.216 L175.36795,101.678 L175.91935,100.109 L176.44365,98.509 L176.93835,96.875 L177.40205,95.209 L177.83755,93.513 L178.24215,91.782 L178.61455,90.018 L178.95775,88.223 L179.26875,86.392 L179.54645,84.529 L179.79395,82.634 L180.00795,80.702 L180.18715,78.738 L180.33475,76.746 L180.39165,75.724 L180.44815,74.707 L180.48715,73.673 L180.52595,72.64 L180.54855,71.59 L180.57115,70.539 L180.57585,69.471 L180.58045,68.402 L180.56685,67.315 L180.55305,66.225 L180.50415,64.567 L180.42145,62.925 L180.30565,61.308 L180.15985,59.711 L179.98125,58.136 L179.77075,56.584 L179.53105,55.054 L179.25945,53.544 L178.95705,52.059 L178.62655,50.594 L178.26525,49.15 L177.87435,47.73 L177.45635,46.331 L177.00845,44.952 L176.53215,43.598 L176.02995,42.264 L175.49875,40.951 L174.94055,39.662 L174.35735,38.394 L173.74625,37.146 L173.10945,35.922 L172.44875,34.719 L171.76135,33.536 L171.04945,32.378 L170.31455,31.239 L169.55355,30.122 L168.76935,29.029 L167.96355,27.956 L167.13335,26.903 L166.28135,25.874 L165.40895,24.865 L164.51325,23.877 L163.59705,22.912 L162.66155,21.968 L161.70405,21.043 L160.72735,20.142 L159.73245,19.26 L158.71675,18.399 L157.68305,17.561 L156.63235,16.742 L155.56205,15.943 L154.47495,15.167 L153.37195,14.41 L152.25055,13.673 L151.11325,12.959 L149.96115,12.263 L148.79185,11.589 L147.60815,10.935 L146.41065,10.3 L145.19735,9.685 L143.97065,9.092 L142.73135,8.517 L141.47725,7.961 L140.21105,7.427 L138.93315,6.911 L137.64175,6.414 L136.33925,5.938 L135.02615,5.479 L133.70055,5.041 L132.36005,4.62 L131.01615,4.23 L129.66565,3.837 L128.29505,3.483 L126.92525,3.127 L125.53675,2.81 L124.15055,2.493 L122.74865,2.211 L121.34525,1.928 L119.92595,1.683 L118.50705,1.438 L117.07395,1.231 L115.64285,1.024 L114.20015,0.85 L112.75615,0.676 L111.30065,0.539 L109.84545,0.403 L108.38055,0.302 L106.91755,0.202 L105.44695,0.134 L103.97495,0.067 L102.49605,0.034 L101.01735,0 L99.53335,0.002 L98.05105,0.004 L96.56525,0.038 L95.07795,0.073 L93.58825,0.142 L92.09865,0.211 L90.60805,0.315 L89.11915,0.418 L87.63075,0.553 L86.14095,0.688 L84.65305,0.857 L83.16525,1.026 L81.68105,1.229 L80.19835,1.432 L78.72015,1.665 L77.24045,1.898 L75.76725,2.165 L74.29405,2.431 L72.82885,2.731 L71.36515,3.03 L69.90995,3.359 L68.45335,3.688 L67.00756,4.05 L65.56173,4.412 L64.12838,4.805 L62.69644,5.199 L61.27713,5.621 L59.85628,6.044 L58.45074,6.498 L57.0451,6.953 L55.65639,7.439 L54.26908,7.924 L52.89847,8.438 L51.52628,8.952 L50.17386,9.497 L48.82129,10.042 L47.49012,10.618 L46.16034,11.193 L44.8513,11.796 L43.54057,12.399 L42.25409,13.032 L40.96741,13.666 L39.70661,14.329 L38.4472,14.992 L37.21262,15.681 L35.97625,16.372 L34.76863,17.091 L33.56077,17.812 L32.38328,18.56 L31.20721,19.309 L30.06019,20.083 L28.91134,20.859 L27.79573,21.663 L26.67989,22.467 L25.59893,23.3 L24.51946,24.132 L23.47302,24.989 L22.42471,25.848 L21.41418,26.734 L20.40345,27.622 L19.43216,28.536 L18.46668,29.445 L17.51958,30.382 L16.59658,31.33 L15.6956,32.29 L14.8142,33.263 L13.95388,34.25 L13.11676,35.25 L12.30031,36.262 L11.50619,37.288 L10.73644,38.327 L9.98846,39.378 L9.26401,40.443 L8.56511,41.521 L7.8891,42.61 L7.23788,43.714 L6.61338,44.829 L6.01289,45.956 L5.43848,47.097 L4.89196,48.249 L4.37057,49.413 L3.87657,50.59 L3.41161,51.779 L2.97291,52.979 L2.56291,54.192 L2.18308,55.416 L1.8306,56.651 L1.50815,57.9 L1.21697,59.158 L0.95457,60.427 L0.72357,61.71 L0.52491,63.002 L0.35576,64.304 L0.2192,65.619 L0.11599,66.943 L0.04333,68.277 L0.0045,69.624 L4.54747351e-13,70.979 L0.02703,72.344 L0.0891,73.721 L0.18645,75.107 L0.31629,76.501 L0.48233,77.907 L0.68457,79.322 L0.92025,80.745 L1.19325,82.18 L1.50338,83.622 L1.84785,85.073 L2.23075,86.535 L2.65199,88.006 L2.96459,88.995 L3.27852,89.988 L3.62883,90.969 L3.97939,91.95 L4.36552,92.919 L4.75102,93.886 L5.16817,94.842 L5.58638,95.8 L6.03873,96.746 L6.49122,97.691 L6.97703,98.624 L7.46198,99.555 L7.97654,100.475 L8.4922,101.396 L9.03975,102.304 L9.58735,103.212 L10.16603,104.107 L10.74369,105 L11.34896,105.881 L11.9553,106.763 L12.59132,107.633 L13.22739,108.501 L13.89237,109.356 L14.55621,110.21 L15.24565,111.05 L15.93615,111.892 L16.65413,112.72 L17.37202,113.548 L18.11659,114.361 L18.85998,115.173 L19.62698,115.972 L20.39502,116.772 L21.18835,117.557 L21.98156,118.342 L22.79928,119.112 L23.6158,119.88 L24.45396,120.636 L25.29312,121.391 L26.1554,122.132 L27.01757,122.873 L27.90207,123.598 L28.78538,124.321 L29.68837,125.031 L30.59234,125.742 L31.51741,126.436 L32.44236,127.13 L33.3875,127.808 L34.33147,128.485 L35.29316,129.148 L36.25581,129.81 L37.23726,130.457 L38.2186,131.103 L39.21798,131.733 L40.21621,132.362 L41.23022,132.975 L42.24517,133.589 L43.27679,134.186 L44.30831,134.782 L45.35571,135.362 L46.40201,135.94 L47.46215,136.503 L48.52321,137.066 L49.5988,137.611 L50.67431,138.156 L51.76356,138.684 L52.85176,139.21 L53.95183,139.72 L55.05284,140.231 L56.16623,140.723 L57.27957,141.215 L58.40451,141.688 L59.52843,142.161 L60.66228,142.616 L61.79708,143.072 L62.94212,143.509 L64.08712,143.946 L65.2416,144.364 L66.39508,144.781 L67.55655,145.18 L68.71895,145.58 L69.88955,145.959 L71.06005,146.339 L72.23795,146.699 L73.41485,147.059 L74.59775,147.4 L75.78165,147.741 L76.97155,148.062 L78.16155,148.383 L79.35665,148.683 L80.55075,148.983 L81.74905,149.264 L82.94835,149.545 L84.15145,149.805 L85.35455,150.065 L86.56085,150.304 L87.76605,150.543 L88.97355,150.761 L90.18205,150.98 L91.39225,151.178 L92.60255,151.375 L93.81375,151.55 L95.02395,151.725 L96.23445,151.88 L97.44605,152.035 L98.65715,152.168 L99.86845,152.3 L101.07845,152.41 L102.28755,152.519 L103.49495,152.608 L104.70345,152.697 L105.90945,152.763 L107.11555,152.828 L108.31835,152.871 L109.52015,152.913 L110.71825,152.934 L111.91765,152.954 L113.11225,152.951 L114.30715,152.948 L115.49645,152.921 L116.68485,152.893 L117.86755,152.844 L119.05155,152.794 L120.22885,152.721 L121.40625,152.646 L122.57595,152.548 L123.74475,152.449 L124.90595,152.327 L126.06845,152.205 L127.22215,152.059 L128.37595,151.912 L129.52005,151.739 L130.66305,151.567 L131.79655,151.371 L132.93155,151.175 L134.05545,150.954 L135.17955,150.732 L136.29175,150.483 L137.40285,150.235 L138.50245,149.963 L139.60355,149.691 L140.69145,149.391 L141.77965,149.092 L142.85375,148.766 L143.92655,148.44 L144.98595,148.089 L146.04705,147.738 L147.09265,147.359 L148.13855,146.98 L149.16815,146.573 L150.19655,146.167 L151.20945,145.736 L152.22415,145.303 L153.22115,144.843 L154.21835,144.382 L155.19715,143.893 L156.17465,143.405 L157.13465,142.891 L158.09635,142.375 L159.03835,141.831 L159.98035,141.286 L160.90175,140.712 L161.82175,140.139 L162.72235,139.54 L163.62455,138.939 L164.50475,138.309 L165.38505,137.678 L166.24245,137.018 L167.09835,136.358 L167.93285,135.671 L168.76885,134.983 L169.58055,134.264 L170.39225,133.546 L171.17885,132.797 L171.96395,132.048 L172.72585,131.273 L173.48915,130.496 L174.22585,129.688 L174.96255,128.879 L175.67185,128.04 L176.37975,127.202 L177.06215,126.335 L177.74565,125.467 L178.40045,124.568 L179.05505,123.668 L179.68005,122.736 L180.30375,121.806 L180.89995,120.848 L181.49695,119.887 L182.06315,118.894 L182.62895,117.902 L183.16305,116.877 L183.69435,115.857 L184.40685,114.405 L185.08685,112.962 L185.73545,111.526 L186.35595,110.098 L186.94615,108.675 L187.50565,107.261 L188.03765,105.853 L188.54005,104.452 L189.01255,103.06 L189.45815,101.674 L189.87485,100.294 L190.26225,98.924 L190.62345,97.56 L190.95645,96.204 L191.26085,94.856 L191.53975,93.515 L191.79095,92.182 L192.01435,90.858 L192.21285,89.541 L192.38445,88.231 L192.52895,86.931 L192.64915,85.639 L192.74305,84.354 L192.81065,83.079 L192.85465,81.812 L192.87295,80.553 L192.86575,79.304 L192.83555,78.063 L192.78035,76.83 L192.70055,75.607 L192.59835,74.393 L192.47175,73.187 L192.32135,71.992 L192.14925,70.805 L191.95355,69.627 L191.73465,68.46 L191.49495,67.302 L191.23215,66.152 L190.94715,65.014 L190.64185,63.885 L190.31435,62.765 L189.96365,61.651 L189.58775,60.563 L189.20935,59.468 L188.78925,58.393 L188.36885,57.319 L187.90775,56.266 L187.44735,55.215 L186.95095,54.184 L186.45335,53.151 L185.91715,52.14 L185.38075,51.129 L184.80675,50.14 L184.23365,49.154 L183.62735,48.187 L183.01975,47.219 L182.37655,46.274 L181.73335,45.329 L181.05555,44.407 L180.37875,43.487 L179.67155,42.588 L178.96315,41.688 L178.22205,40.811 L177.48105,39.935 L176.70855,39.082 L175.93725,38.232 L175.13825,37.402 L174.33805,36.572 L173.50825,35.766 L172.67845,34.961 L171.82025,34.179 L170.96335,33.4 L170.08135,32.643 L169.19825,31.885 L168.28845,31.152 L167.37885,30.419 L166.44375,29.712 L165.50995,29.006 L164.55385,28.323 L163.59655,27.64 L162.61575,26.982 L161.63495,26.325 L160.63175,25.694 L159.62985,25.063 L158.60835,24.457 L157.58565,23.85 L156.54245,23.27 L155.49915,22.69 L154.43655,22.137 L153.37515,21.585 L152.29695,21.058 L151.21755,20.53 L150.12055,20.03 L149.02355,19.529 L147.91005,19.057 L146.79785,18.585 L145.67155,18.139 L144.54395,17.692 L143.40175,17.274 L142.25965,16.855 L141.10395,16.466 L139.94945,16.077 L138.78365,15.714 L137.61645,15.35 L136.43765,15.016 L135.25885,14.682 L134.06955,14.377 L132.88115,14.074 L131.68385,13.799 L130.48535,13.523 L129.27815,13.278 L128.07095,13.032 L126.85615,12.817 L125.64275,12.602 L124.42325,12.415 L123.20245,12.227 L121.97605,12.071 L120.74955,11.914 L119.51845,11.789 L118.28875,11.664 L117.05555,11.567 L115.82115,11.47 L114.58405,11.405 L113.34675,11.34 L112.10795,11.307 L110.87035,11.274 L109.63225,11.27 L108.39265,11.266 L107.15335,11.296 L105.91405,11.325 L104.67605,11.388 L103.43945,11.451 L102.20485,11.543 L100.96895,11.636 L99.73625,11.762 L98.50355,11.888 L97.27515,12.048 L96.04795,12.208 L94.82565,12.398 L93.60195,12.589 L92.38455,12.814 L91.16705,13.039 L89.95675,13.298 L88.74785,13.557 L87.54645,13.848 L86.34365,14.139 L85.15005,14.465 L83.95645,14.791 L82.77295,15.152 L81.59055,15.513 L80.41845,15.905 L79.24485,16.298 L78.08345,16.727 L76.92195,17.156 L75.77375,17.621 L74.62685,18.086 L73.49295,18.584 L72.35755,19.082 L71.23735,19.617 L70.11705,20.153 L69.01315,20.725 L67.91045,21.297 L66.82344,21.902 L65.73509,22.509 L64.66494,23.153 L63.59477,23.797 L62.5439,24.479 L61.49433,25.16 L60.46315,25.875 L59.43045,26.592 L58.41893,27.346 L57.40742,28.101 L56.41822,28.894 L55.43029,29.687 L54.46348,30.515 L53.49554,31.344 L52.55183,32.212 L51.60818,33.08 L50.68985,33.988 L49.77559,34.891 L48.873,35.828 L47.98607,36.783 L47.11338,37.757 L46.25338,38.75 L45.40707,39.763 L44.57573,40.795 L43.75778,41.846 L42.9543,42.918 L42.16642,44.009 L41.39236,45.119 L40.63356,46.25 L39.89226,47.399 L39.35438,48.26 L38.81617,49.121 L37.78274,50.824 L36.78785,52.516 L35.82846,54.197 L34.90754,55.865 L34.02537,57.519 L33.17789,59.161 L32.36801,60.791 L31.59596,62.407 L30.8578,64.011 L30.15635,65.603 L29.49154,67.18 L28.85979,68.745 L28.26389,70.298 L27.70403,71.837 L27.17646,73.364 L26.68389,74.878 L26.22646,76.377 L25.80053,77.865 L25.40875,79.339 L25.05121,80.799 L24.72439,82.247 L24.43089,83.682 L24.17073,85.102 L23.94051,86.51 L23.74278,87.905 L23.57748,89.285 L23.44124,90.653 L23.33654,92.007 L23.26336,93.346 L23.21853,94.673 L23.20459,95.986 L23.22124,97.284 L23.26545,98.569 L23.33974,99.841 L23.44366,101.097 L23.57436,102.34 L23.7343,103.569 L23.92291,104.783 L24.13747,105.983 L24.38046,107.17 L24.65112,108.341 L24.94689,109.498 L25.27023,110.641 L25.62025,111.768 L25.99453,112.881 L26.3955,113.98 L26.82211,115.062 L27.27212,116.131 L27.74792,117.185 L28.24834,118.222 L28.77125,119.246 L29.31904,120.254 L29.89041,121.246 L30.48337,122.224 L31.10028,123.187 L31.73972,124.133 L32.39985,125.064 L33.08297,125.98 L33.7876,126.879 L34.51201,127.764 L35.25845,128.633 L36.02537,129.485 L36.81118,130.323 L37.61805,131.145 L38.44439,131.95 L39.28872,132.74 L40.15315,133.514 L41.03606,134.271 L41.93607,135.013 L42.85522,135.739 L43.79188,136.449 L44.74476,137.143 L45.7158,137.821 L46.70341,138.481 L47.70636,139.127 L48.72653,139.756 L49.76543,140.37 L50.8191,140.958 L51.87703,141.547 L52.9658,142.103 L54.05439,142.659 L55.17247,143.181 L56.28917,143.703 L57.43161,144.194 L58.57509,144.685 L59.74569,145.142 L60.9161,145.599 L62.11229,146.023 L63.30716,146.445 L64.5244,146.836 L65.74256,147.228 L66.98413,147.586 L68.22555,147.944 L69.48905,148.267 L70.75135,148.589 L72.03255,148.881 L73.31485,149.172 L74.61675,149.428 L75.91865,149.685 L77.23885,149.906 L78.55795,150.128 L79.89265,150.317 L81.22835,150.507 L82.58005,150.661 L83.93175,150.815 L85.29805,150.934 L86.66325,151.052 L88.04085,151.138 L89.41935,151.225 L90.81015,151.275 L92.20095,151.326 L93.60275,151.341 L95.00355,151.355 L96.41325,151.337 L97.82395,151.319 L99.24325,151.265 L100.66265,151.21 L102.08925,151.12 L103.51495,151.029 L104.94625,150.905 L106.37855,150.781 L107.81575,150.62 L109.25295,150.459 L110.69385,150.261 L112.13385,150.064 L113.57605,149.832 L115.01925,149.601 L116.46375,149.332 L117.90815,149.063 L119.35265,148.757 L120.79625,148.451 L122.23875,148.111 L123.68215,147.77 L125.12325,147.392 L126.56425,147.014 L128.00165,146.598 L129.43815,146.182 L130.87025,145.732 L132.30325,145.281 L133.73015,144.792 L135.15725,144.303 L136.57675,143.775 L137.99555,143.248 L139.40645,142.686 L140.81835,142.123 L142.22045,141.522 L143.62265,140.92 L145.01375,140.28 L146.40405,139.639 L147.78315,138.964 L149.16315,138.288 L150.52975,137.572 L151.89645,136.857 L153.24825,136.102 L154.59925,135.347 L155.93585,134.557 L157.27325,133.766 L158.59345,132.935 L159.91385,132.104 L161.21565,131.233 L162.51665,130.363 L163.79975,129.456 L165.08375,128.549 L166.34695,127.601 L167.61015,126.653 L168.85115,125.664 L170.09125,124.677 L171.31025,123.652 L172.53005,122.627 L173.72515,121.56 L174.92045,120.494 L176.08975,119.387 L177.25635,118.282 L178.40885,117.145 L179.54595,115.989 L180.66845,114.812 L181.77785,113.617 L182.87285,112.401 L183.95235,111.164 L185.01785,109.908 L186.06805,108.631 L187.10175,107.334 L188.12065,106.017 L189.12325,104.679 L190.10855,103.32 L191.07805,101.942 L192.03035,100.543 L192.96445,99.123 L193.88195,97.684 L194.78125,96.223 L195.65855,94.746 C195.87735,94.378 195.75645,93.902 195.38855,93.683 C195.02065,93.465 194.54505,93.586 194.32625,93.953 L193.45395,95.419 L192.56615,96.859 L191.65995,98.277 L190.73745,99.677 L189.79765,101.056 L188.84035,102.414 L187.86755,103.753 L186.87835,105.07 L185.87255,106.367 L184.85205,107.646 L183.81615,108.904 L182.76445,110.141 L181.69895,111.359 L180.61895,112.557 L179.52405,113.734 L178.41625,114.893 L177.29475,116.032 L176.16115,117.148 L175.00525,118.241 L173.85215,119.331 L172.67345,120.38 L171.49475,121.43 L170.29185,122.44 L169.08805,123.45 L167.86335,124.423 L166.63945,125.396 L165.39375,126.329 L164.14795,127.263 L162.88155,128.156 L161.61435,129.05 L160.32955,129.908 L159.04555,130.765 L157.74325,131.583 L156.44095,132.401 L155.12185,133.179 L153.80175,133.959 L152.46735,134.702 L151.13385,135.445 L149.78575,136.15 L148.43755,136.854 L147.07625,137.519 L145.71395,138.185 L144.34075,138.816 L142.96825,139.446 L141.58495,140.038 L140.20165,140.63 L138.80875,141.184 L137.41495,141.738 L136.01345,142.257 L134.61285,142.776 L133.20505,143.257 L131.79725,143.739 L130.38355,144.182 L128.96885,144.626 L127.54995,145.035 L126.13185,145.444 L124.71025,145.816 L123.28865,146.188 L121.86475,146.522 L120.44005,146.857 L119.01435,147.158 L117.58955,147.458 L116.16485,147.722 L114.74015,147.986 L113.31705,148.213 L111.89295,148.44 L110.47125,148.634 L109.05045,148.828 L107.63345,148.985 L106.21655,149.142 L104.80475,149.263 L103.39205,149.384 L101.98515,149.473 L100.57915,149.561 L99.18075,149.613 L97.78225,149.666 L96.39275,149.682 L95.00225,149.699 L93.62085,149.683 L92.24045,149.668 L90.87135,149.616 L89.50215,149.565 L88.14565,149.479 L86.78815,149.393 L85.44315,149.274 L84.09915,149.156 L82.77005,149.003 L81.44115,148.85 L80.12835,148.662 L78.81465,148.474 L77.51685,148.255 L76.22005,148.036 L74.94195,147.783 L73.66395,147.53 L72.40575,147.242 L71.14665,146.955 L69.90675,146.636 L68.66805,146.318 L67.45155,145.966 L66.23526,145.615 L65.04253,145.229 L63.84888,144.844 L62.67773,144.427 L61.50789,144.012 L60.36398,143.563 L59.22023,143.114 L58.10374,142.633 L56.98621,142.15 L55.8945,141.638 L54.80416,141.127 L53.74339,140.584 L52.6828,140.04 L51.6531,139.464 L50.61914,138.886 L49.61386,138.289 L48.62246,137.676 L47.64714,137.046 L46.68727,136.401 L45.74531,135.742 L44.82031,135.066 L43.91157,134.376 L43.02163,133.67 L42.14953,132.949 L41.29448,132.213 L40.4591,131.463 L39.64243,130.697 L38.8436,129.916 L38.06529,129.121 L37.30657,128.31 L36.56646,127.485 L35.84771,126.645 L35.14943,125.79 L34.47053,124.921 L33.81382,124.037 L33.17844,123.138 L32.56322,122.225 L31.97099,121.298 L31.40099,120.355 L30.85192,119.398 L30.32663,118.428 L29.82449,117.441 L29.34404,116.441 L28.88818,115.427 L28.45639,114.398 L28.04709,113.354 L27.66317,112.297 L27.30427,111.225 L26.96865,110.138 L26.65924,109.038 L26.37581,107.922 L26.11649,106.793 L25.88421,105.65 L25.6789,104.491 L25.49853,103.319 L25.34606,102.133 L25.22157,100.931 L25.12288,99.716 L25.05296,98.487 L25.01204,97.243 L24.99779,95.985 L25.01321,94.714 L25.05866,93.427 L25.13166,92.127 L25.23523,90.813 L25.37002,89.484 L25.53334,88.141 L25.72817,86.785 L25.95509,85.414 L26.21135,84.029 L26.50003,82.631 L26.82184,81.218 L27.17387,79.792 L27.55927,78.352 L27.9788,76.897 L28.42944,75.43 L28.91439,73.949 L29.43448,72.453 L29.98656,70.944 L30.57389,69.422 L31.19734,67.886 L31.8537,66.336 L32.54654,64.774 L33.27649,63.197 L34.04019,61.608 L34.84102,60.006 L35.67991,58.389 L36.55342,56.76 L37.46501,55.118 L38.41561,53.462 L39.40168,51.794 L40.42789,50.111 L40.95916,49.266 L41.49076,48.419 L42.21913,47.296 L42.96133,46.195 L43.71908,45.114 L44.49058,44.051 L45.27636,43.009 L46.07697,41.987 L46.89043,40.983 L47.7173,39.999 L48.55832,39.034 L49.41155,38.087 L50.27742,37.161 L51.15402,36.256 L52.05404,35.372 L52.94999,34.491 L53.87054,33.649 L54.79102,32.807 L55.73503,32.004 L56.68016,31.199 L57.64588,30.43 L58.61032,29.66 L59.59644,28.929 L60.58255,28.198 L61.58931,27.504 L62.59761,26.81 L63.62383,26.15 L64.64875,25.49 L65.69243,24.867 L66.73614,24.244 L67.79755,23.659 L68.86035,23.072 L69.93835,22.518 L71.01515,21.965 L72.10775,21.448 L73.20045,20.931 L74.30795,20.45 L75.41675,19.968 L76.53835,19.518 L77.65855,19.069 L78.79175,18.656 L79.92495,18.242 L81.07015,17.863 L82.21675,17.484 L83.37335,17.137 L84.52875,16.79 L85.69435,16.478 L86.86005,16.166 L88.03465,15.889 L89.21065,15.611 L90.39395,15.364 L91.57595,15.117 L92.76495,14.904 L93.95415,14.691 L95.14925,14.512 L96.34585,14.332 L97.54695,14.182 L98.74685,14.033 L99.95085,13.916 L101.15495,13.799 L102.36205,13.715 L103.57055,13.631 L104.78105,13.577 L105.99025,13.522 L107.20055,13.499 L108.41095,13.476 L109.62155,13.485 L110.83345,13.492 L112.04465,13.529 L113.25455,13.566 L114.46275,13.634 L115.67105,13.702 L116.87645,13.801 L118.08325,13.899 L119.28665,14.026 L120.48875,14.153 L121.68615,14.31 L122.88365,14.467 L124.07535,14.655 L125.26835,14.842 L126.45525,15.057 L127.64095,15.271 L128.81885,15.515 L129.99685,15.759 L131.16615,16.032 L132.33675,16.306 L133.49875,16.605 L134.65975,16.902 L135.81025,17.229 L136.96065,17.555 L138.09955,17.91 L139.23965,18.265 L140.36835,18.646 L141.49585,19.027 L142.60975,19.435 L143.72365,19.843 L144.82305,20.279 L145.92365,20.716 L147.01025,21.177 L148.09545,21.638 L149.16425,22.126 L150.23295,22.613 L151.28415,23.128 L152.33665,23.643 L153.37235,24.182 L154.40665,24.721 L155.42165,25.285 L156.43655,25.85 L157.43105,26.441 L158.42675,27.032 L159.40305,27.646 L160.37795,28.26 L161.33055,28.899 L162.28315,29.537 L163.21225,30.201 L164.14265,30.866 L165.05095,31.553 L165.95795,32.239 L166.83965,32.95 L167.72135,33.66 L168.57665,34.395 L169.43325,35.131 L170.26505,35.888 L171.09565,36.644 L171.89805,37.424 L172.70045,38.203 L173.47355,39.006 L174.24795,39.81 L174.99495,40.635 L175.74075,41.458 L176.45535,42.304 L177.17005,43.15 L177.85265,44.019 L178.53655,44.888 L179.19025,45.778 L179.84305,46.666 L180.46175,47.577 L181.08065,48.486 L181.66465,49.418 L182.24975,50.351 L182.80215,51.304 L183.35375,52.254 L183.86855,53.226 L184.38355,54.197 L184.86065,55.19 L185.33895,56.184 L185.78185,57.197 L186.22425,58.207 L186.62695,59.239 L187.02995,60.269 L187.39225,61.321 L187.75705,62.379 L188.08975,63.439 L188.40295,64.514 L188.69525,65.599 L188.96815,66.693 L189.21925,67.796 L189.44855,68.909 L189.65795,70.032 L189.84465,71.162 L190.00905,72.304 L190.15265,73.453 L190.27305,74.611 L190.37025,75.78 L190.44605,76.957 L190.49795,78.142 L190.52585,79.338 L190.53165,80.542 L190.51295,81.753 L190.46935,82.975 L190.40295,84.206 L190.31125,85.444 L190.19395,86.692 L190.05315,87.948 L189.88635,89.212 L189.69305,90.486 L189.47555,91.767 L189.23135,93.057 L188.95985,94.355 L188.66345,95.662 L188.33965,96.976 L187.98765,98.3 L187.61005,99.631 L187.20425,100.97 L186.76945,102.317 L186.30835,103.672 L185.81835,105.035 L185.29845,106.406 L184.75165,107.785 L184.17505,109.17 L183.56795,110.565 L182.93305,111.966 L182.26765,113.374 L181.57245,114.788 L181.05555,115.778 L180.54155,116.762 L179.99685,117.715 L179.45255,118.668 L178.87825,119.589 L178.30315,120.513 L177.70135,121.408 L177.10105,122.301 L176.47215,123.163 L175.84345,124.026 L175.18705,124.857 L174.52945,125.691 L173.84715,126.497 L173.16625,127.301 L172.45895,128.076 L171.75175,128.85 L171.01885,129.595 L170.28445,130.341 L169.52705,131.06 L168.77115,131.778 L167.99085,132.466 L167.21055,133.154 L166.40655,133.814 L165.60095,134.475 L164.77455,135.109 L163.94955,135.743 L163.10215,136.347 L162.25465,136.952 L161.38555,137.529 L160.51485,138.106 L159.62495,138.658 L158.73655,139.21 L157.82785,139.732 L156.91895,140.256 L155.99045,140.751 L155.06035,141.248 L154.11295,141.719 L153.16695,142.19 L152.20275,142.633 L151.23825,143.077 L150.25625,143.493 L149.27255,143.91 L148.27355,144.302 L147.27585,144.694 L146.26195,145.059 L145.24785,145.425 L144.21835,145.763 L143.18715,146.102 L142.14255,146.418 L141.09925,146.733 L140.04185,147.021 L138.98425,147.31 L137.91325,147.573 L136.84075,147.836 L135.75675,148.076 L134.67395,148.316 L133.57915,148.53 L132.48415,148.744 L131.37795,148.933 L130.27025,149.122 L129.15305,149.288 L128.03685,149.454 L126.91095,149.595 L125.78485,149.737 L124.64965,149.853 L123.51295,149.969 L122.36875,150.063 L121.22565,150.158 L120.07475,150.227 L118.92375,150.297 L117.76585,150.343 L116.60665,150.389 L115.44175,150.413 L114.27785,150.437 L113.10845,150.437 L111.93885,150.438 L110.76455,150.415 L109.58905,150.392 L108.40975,150.348 L107.23145,150.304 L106.04985,150.237 L104.86805,150.17 L103.68365,150.08 L102.49805,149.99 L101.31075,149.88 L100.12435,149.77 L98.93685,149.637 L97.74915,149.504 L96.56095,149.35 L95.37165,149.195 L94.18255,149.02 L92.99445,148.846 L91.80725,148.649 L90.61995,148.453 L89.43435,148.235 L88.24765,148.018 L87.06315,147.78 L85.87955,147.543 L84.69905,147.285 L83.51845,147.028 L82.34175,146.749 L81.16395,146.47 L79.99035,146.172 L78.81765,145.875 L77.65015,145.557 L76.48265,145.239 L75.32105,144.902 L74.15855,144.564 L73.00205,144.207 L71.84655,143.852 L70.69835,143.476 L69.55025,143.101 L68.41015,142.706 L67.26917,142.311 L66.13617,141.898 L65.00415,141.486 L63.88163,141.055 L62.75914,140.624 L61.6469,140.174 L60.53373,139.724 L59.43049,139.257 L58.32829,138.79 L57.23771,138.305 L56.14719,137.821 L55.06907,137.318 L53.99002,136.814 L52.92286,136.295 L51.85675,135.776 L50.80442,135.24 L49.75216,134.703 L48.71445,134.149 L47.6758,133.595 L46.651,133.025 L45.62729,132.456 L44.61948,131.87 L43.61177,131.284 L42.62075,130.682 L41.62878,130.079 L40.65261,129.461 L39.67756,128.844 L38.72055,128.21 L37.76365,127.577 L36.82558,126.928 L35.88655,126.278 L34.96524,125.614 L34.04511,124.951 L33.14515,124.272 L32.24529,123.594 L31.36624,122.9 L30.48622,122.206 L29.62585,121.498 L28.76668,120.792 L27.92979,120.07 L27.09304,119.349 L26.27934,118.613 L25.46465,117.877 L24.67153,117.127 L23.87962,116.379 L23.11212,115.616 L22.34473,114.854 L21.60252,114.078 L20.85927,113.302 L20.13953,112.513 L19.42098,111.725 L18.72893,110.924 L18.03698,110.123 L17.37228,109.31 L16.70654,108.495 L16.0662,107.669 L15.427,106.844 L14.81637,106.007 L14.20568,105.17 L13.62435,104.321 L13.04194,103.47 L12.48682,102.609 L11.93274,101.749 L11.40931,100.878 L10.88585,100.007 L10.39379,99.124 L9.90064,98.24 L9.43667,97.345 L8.97356,96.453 L8.54316,95.55 L8.11262,94.647 L7.71554,93.732 L7.31739,92.817 L6.95028,91.891 L6.58379,90.968 L6.25206,90.034 L5.92007,89.101 L5.62357,88.157 L5.32574,87.211 L4.92384,85.799 L4.55936,84.399 L4.23142,83.007 L3.93663,81.626 L3.67825,80.257 L3.45527,78.896 L3.26432,77.546 L3.10847,76.208 L2.9869,74.88 L2.89627,73.561 L2.83943,72.255 L2.81581,70.958 L2.82205,69.671 L2.86079,68.397 L2.93171,67.132 L3.03146,65.876 L3.16245,64.634 L3.32462,63.401 L3.51461,62.178 L3.73463,60.967 L3.98479,59.766 L4.26147,58.575 L4.56701,57.396 L4.90183,56.227 L5.26255,55.068 L5.651,53.922 L6.06781,52.785 L6.50961,51.659 L6.97802,50.545 L7.47387,49.441 L7.9938,48.347 L8.53925,47.266 L9.11121,46.195 L9.70635,45.134 L10.32594,44.087 L10.9711,43.049 L11.63851,42.022 L12.32932,41.008 L13.04473,40.005 L13.78147,39.013 L14.54054,38.033 L15.32318,37.065 L16.12622,36.107 L16.95054,35.163 L17.79744,34.23 L18.66378,33.308 L19.55035,32.399 L20.45424,31.506 L21.39496,30.622 L22.32986,29.743 L23.30391,28.89 L24.27815,28.036 L25.28994,27.209 L26.30359,26.38 L27.3501,25.575 L28.39512,24.771 L29.47489,23.994 L30.5549,23.216 L31.66804,22.466 L32.78301,21.715 L33.92669,20.988 L35.06895,20.262 L36.24153,19.564 L37.41434,18.866 L38.61586,18.195 L39.81914,17.524 L41.04724,16.879 L42.27394,16.234 L43.5265,15.618 L44.77927,15.002 L46.05628,14.415 L47.33498,13.827 L48.63443,13.265 L49.93249,12.705 L51.25196,12.173 L52.57158,11.642 L53.91097,11.141 L55.25195,10.639 L56.60959,10.164 L57.96582,9.69 L59.339,9.247 L60.71227,8.803 L62.10083,8.39 L63.49094,7.977 L64.89365,7.592 L66.29495,7.207 L67.70865,6.854 L69.12245,6.501 L70.54705,6.179 L71.97315,5.857 L73.40775,5.564 L74.84085,5.272 L76.28195,5.011 L77.72305,4.751 L79.17045,4.523 L80.61935,4.295 L82.07255,4.097 L83.52435,3.898 L84.97955,3.734 L86.43475,3.568 L87.89175,3.437 L89.35005,3.305 L90.80885,3.204 L92.26595,3.103 L93.72215,3.036 L95.17805,2.968 L96.63135,2.935 L98.08615,2.902 L99.53715,2.901 L100.98635,2.899 L102.43015,2.932 L103.87375,2.965 L105.31005,3.035 L106.74775,3.105 L108.17765,3.206 L109.60555,3.308 L111.02355,3.445 L112.44115,3.582 L113.84705,3.755 L115.25445,3.928 L116.64995,4.133 L118.04335,4.339 L119.42215,4.58 L120.80065,4.822 L122.16295,5.1 L123.52685,5.378 L124.87465,5.69 L126.22025,6.001 L127.54695,6.349 L128.87265,6.698 L130.17765,7.086 L131.48915,7.475 L132.77455,7.886 L134.05235,8.317 L135.31905,8.768 L136.57455,9.235 L137.81615,9.721 L139.04575,10.226 L140.26305,10.748 L141.46535,11.288 L142.65455,11.849 L143.83045,12.426 L144.99025,13.022 L146.13595,13.638 L147.26725,14.271 L148.38145,14.923 L149.48045,15.594 L150.56425,16.284 L151.63015,16.991 L152.67985,17.719 L153.71335,18.464 L154.72765,19.228 L155.72465,20.012 L156.70465,20.815 L157.66425,21.636 L158.60565,22.478 L159.52905,23.337 L160.43115,24.216 L161.31405,25.116 L162.17795,26.034 L163.01975,26.972 L163.84115,27.93 L164.64275,28.907 L165.42125,29.903 L166.17835,30.921 L166.91485,31.958 L167.62725,33.014 L168.31785,34.092 L168.98705,35.189 L169.63135,36.305 L170.25205,37.444 L170.85035,38.603 L171.42275,39.781 L171.97055,40.983 L172.49495,42.204 L172.99255,43.445 L173.46425,44.71 L173.91155,45.994 L174.33115,47.3 L174.72365,48.629 L175.09085,49.979 L175.42915,51.349 L175.73925,52.744 L176.02285,54.159 L176.27665,55.596 L176.50105,57.057 L176.69805,58.539 L176.86415,60.043 L176.99935,61.572 L177.10605,63.122 L177.18075,64.695 L177.22335,66.296 L177.23355,67.352 L177.24395,68.411 L177.23635,69.452 L177.22905,70.492 L177.20405,71.513 L177.17915,72.536 L177.13845,73.542 L177.09785,74.547 L177.04015,75.533 L176.98295,76.514 L176.83355,78.456 L176.65445,80.36 L176.44325,82.226 L176.19955,84.057 L175.92705,85.856 L175.62345,87.617 L175.28875,89.345 L174.92655,91.04 L174.53465,92.7 L174.11305,94.326 L173.66505,95.92 L173.18895,97.479 L172.68435,99.006 L172.15465,100.502 L171.59835,101.963 L171.01475,103.392 L170.40745,104.792 L169.77525,106.157 L169.11685,107.492 L168.43585,108.798 L167.73105,110.07 L167.00125,111.312 L166.24985,112.526 L165.47625,113.708 L164.67855,114.86 L163.86045,115.985 L163.02145,117.078 L162.15945,118.143 L161.27805,119.18 L160.37705,120.187 L159.45405,121.167 L158.51265,122.12 L157.55295,123.043 L156.57225,123.939 L155.57415,124.81 L154.55885,125.652 L153.52365,126.467 L152.47215,127.258 L151.40445,128.02 L150.31805,128.756 L149.21615,129.468 L148.09935,130.152 L146.96485,130.811 L145.81595,131.446 L144.65335,132.055 L143.47405,132.639 L142.28145,133.199 L141.07615,133.733 L139.85555,134.243 L138.62265,134.73 L137.37825,135.192 L136.11965,135.629 L134.84985,136.045 L133.56975,136.435 L132.27675,136.802 L130.97375,137.147 L129.66155,137.468 L128.33785,137.766 L127.00515,138.043 L125.66445,138.296 L124.32045,138.525 L122.95005,138.726 L121.58875,138.925 L120.21275,139.079 L118.83605,139.233 L117.44645,139.343 L116.05375,139.454 L114.65085,139.524 L113.24995,139.595 L111.83945,139.622 L110.42835,139.651 L109.00955,139.637 L107.58785,139.623 L106.16065,139.571 L104.73525,139.52 L103.30545,139.429 L101.87505,139.337 L100.44225,139.206 L99.00675,139.075 L97.57045,138.908 L96.13595,138.742 L94.70215,138.537 L93.26795,138.332 L91.83635,138.091 L90.40245,137.849 L88.97245,137.573 L87.54405,137.299 L86.12165,136.988 L84.69895,136.678 L83.28405,136.333 L81.86695,135.988 L80.45845,135.611 L79.05165,135.235 L77.65595,134.826 L76.26005,134.417 L74.87725,133.976 L73.49225,133.534 L72.12075,133.063 L70.75085,132.594 L69.39725,132.093 L68.04365,131.593 L66.70813,131.062 L65.37075,130.531 L64.05139,129.974 L62.73381,129.418 L61.43771,128.833 L60.14161,128.248 L58.86885,127.637 L57.5943,127.024 L56.34246,126.387 L55.09251,125.752 L53.86919,125.091 L52.64598,124.43 L51.45128,123.744 L50.25483,123.057 L49.08579,122.349 L47.91877,121.642 L46.78354,120.912 L45.64851,120.183 L44.54714,119.431 L43.44406,118.678 L42.37305,117.906 L41.3042,117.136 L40.27229,116.345 L39.24066,115.555 L38.24781,114.745 L37.24819,113.93 L36.28706,113.111 L35.3427,112.28 L34.41855,111.44 L33.51406,110.593 L32.63263,109.738 L31.77266,108.874 L30.9335,108.004 L30.11868,107.127 L29.32653,106.242 L28.55633,105.351 L27.81169,104.455 L27.09094,103.551 L26.39323,102.641 L25.72228,101.727 L25.07639,100.807 L24.45459,99.881 L23.8607,98.952 L23.29301,98.017 L22.75043,97.077 L22.2368,96.135 L21.75052,95.187 L21.29027,94.236 L20.85996,93.283 L20.45809,92.325 L20.08317,91.363 L19.73905,90.401 L19.42447,89.435 L19.13769,88.465 L18.88251,87.496 L18.65798,86.522 L18.46208,85.546 L18.29854,84.571 L18.16681,83.591 L18.06456,82.61 L17.99542,81.629 L17.95936,80.644 L17.95373,79.658 L17.98199,78.673 L18.04476,77.683 L18.13902,76.692 L18.26811,75.703 L18.43328,74.709 L18.63116,73.713 L18.86498,72.719 L19.1366,71.721 L19.44232,70.721 L19.78524,69.722 L20.16783,68.72 L20.58599,67.716 L21.0428,66.714 L21.54114,65.709 L22.07661,64.702 L22.65226,63.697 L23.2713,62.689 L23.92903,61.681 L24.62851,60.675 L25.37315,59.666 L26.15801,58.658 L26.9862,57.652 L27.87591,56.629 C28.55468,55.847 28.47094,54.663 27.68888,53.984 C26.90683,53.305 25.7226,53.389 25.04384,54.171 Z" id="Fill-85"></path>
            <path d="M120.96775,17.61 C82.72475,4.977 -31.047583,25.8 14.13621,89.76 C42.36086,129.714 137.88125,150.43 181.91875,129.181 C250.21995,96.225 154.23075,3.414 83.92525,21.894" id="Fill-93"></path>
            <path d="M121.53235,15.822 L120.28885,15.431 L118.97355,15.057 L117.61585,14.709 L116.21905,14.382 L114.77855,14.079 L113.29945,13.801 L111.78505,13.545 L110.23145,13.312 L108.64345,13.103 L107.02415,12.917 L105.37035,12.753 L103.68635,12.614 L101.97525,12.496 L100.23425,12.402 L98.46765,12.332 L96.67805,12.284 L94.86345,12.259 L93.02775,12.259 L91.17335,12.28 L89.29865,12.326 L87.40755,12.395 L85.50205,12.487 L83.58105,12.602 L81.64835,12.742 L79.70555,12.904 L77.75215,13.091 L75.79175,13.302 L73.82565,13.535 L71.85365,13.793 L69.87955,14.076 L67.90405,14.381 L65.92743,14.711 L63.95363,15.067 L61.98278,15.445 L60.01567,15.848 L58.05612,16.277 L56.10386,16.728 L54.16021,17.205 L52.22911,17.709 L50.30969,18.235 L48.40355,18.787 L46.5147,19.365 L44.64189,19.966 L42.78709,20.593 L40.95446,21.247 L39.14222,21.924 L37.3527,22.627 L35.59025,23.357 L33.85255,24.111 L32.14227,24.893 L30.46398,25.7 L28.81481,26.532 L27.19776,27.393 L25.61766,28.28 L24.0711,29.192 L22.56198,30.133 L21.09492,31.102 L19.66592,32.097 L18.27868,33.121 L16.9386,34.173 L15.64121,35.251 L14.39081,36.36 L13.19325,37.497 L12.04326,38.662 L10.94546,39.858 L9.90573,41.082 L8.91873,42.334 L7.9897,43.619 L7.12467,44.932 L6.31818,46.272 L5.57594,47.647 L4.90352,49.049 L4.295,50.478 L3.75726,51.941 L3.29504,53.429 L2.90226,54.945 L2.58859,56.493 L2.356,58.065 L2.19781,59.662 L2.12249,61.29 L2.1321,62.94 L2.22022,64.613 L2.39607,66.315 L2.66215,68.038 L3.0108,69.784 L3.45144,71.556 L3.97956,73.336 L4.28214,74.255 L4.60444,75.168 L4.95004,76.085 L5.31742,77.008 L5.7084,77.938 L6.12083,78.874 L6.55549,79.816 L7.01527,80.766 L7.49931,81.72 L8.00604,82.681 L8.53845,83.648 L9.09562,84.621 L9.67598,85.6 L10.28255,86.586 L10.91444,87.578 L11.56746,88.577 L12.24726,89.583 L12.95662,90.601 L13.87888,91.87 L14.85045,93.131 L15.86436,94.376 L16.91699,95.607 L18.01247,96.824 L19.14763,98.025 L20.3191,99.212 L21.53076,100.384 L22.77955,101.54 L24.06229,102.682 L25.38261,103.81 L26.73772,104.92 L28.12457,106.016 L29.54642,107.097 L31.00044,108.161 L32.48383,109.211 L33.99969,110.245 L35.54547,111.261 L37.1186,112.263 L38.72165,113.248 L40.35202,114.216 L42.00725,115.168 L43.68991,116.105 L45.3975,117.023 L47.12777,117.926 L48.88295,118.812 L50.6606,119.68 L52.45867,120.532 L54.27916,121.367 L56.11787,122.181 L57.0496,122.581 L57.97957,122.98 L58.91923,123.371 L59.85878,123.761 L60.80759,124.142 L61.75562,124.523 L62.71169,124.896 L63.66836,125.268 L64.6335,125.632 L65.59854,125.995 L66.57158,126.349 L67.54385,126.703 L68.52315,127.048 L69.50295,127.394 L70.48995,127.73 L71.47695,128.066 L72.47065,128.392 L73.46365,128.718 L74.46245,129.036 L75.46185,129.353 L76.46735,129.661 L77.47275,129.968 L78.48365,130.266 L79.49695,130.564 L80.51705,130.849 L81.52795,131.131 L82.53885,131.414 L83.56315,131.7 L84.59605,131.965 L85.61565,132.228 L86.63525,132.49 L87.66815,132.755 L88.70795,133 L89.73445,133.241 L90.76095,133.483 L91.79935,133.727 L92.84265,133.953 L93.87395,134.176 L94.90525,134.399 L95.94955,134.624 L96.99755,134.829 L98.03255,135.031 L99.06745,135.233 L100.11545,135.438 L101.16535,135.621 L102.20215,135.802 L103.23895,135.983 L104.28755,136.165 L105.33655,136.329 L106.37355,136.49 L107.41065,136.651 L108.46075,136.815 L109.50965,136.956 L110.54535,137.095 L111.58115,137.235 L112.63005,137.376 L113.67585,137.495 L114.70845,137.612 L115.74105,137.73 L116.78585,137.849 L117.82635,137.947 L118.85465,138.044 L119.88295,138.141 L120.92475,138.239 L121.96045,138.314 L122.98245,138.388 L124.00445,138.463 L125.04025,138.538 L126.06805,138.59 L127.08195,138.641 L128.09585,138.692 L129.11925,138.743 L130.13635,138.779 L131.15095,138.815 L132.16025,138.839 L133.17215,138.863 L135.17665,138.888 L137.17275,138.89 L139.15675,138.868 L141.12645,138.822 L143.08305,138.754 L145.02515,138.661 L146.95055,138.544 L148.86055,138.403 L150.75375,138.238 L152.62775,138.047 L154.48425,137.835 L156.32165,137.596 L158.13735,137.332 L159.93325,137.044 L161.70765,136.729 L163.45785,136.388 L165.18615,136.023 L166.89045,135.631 L168.56815,135.211 L170.22165,134.767 L171.84895,134.296 L173.44695,133.796 L175.01855,133.272 L176.56165,132.719 L178.07285,132.138 L179.55555,131.53 L181.00705,130.894 L182.42085,130.231 L183.49625,129.7 L184.54205,129.16 L185.56025,128.61 L186.55395,128.051 L187.52195,127.482 L188.46245,126.903 L189.37895,126.316 L190.27005,125.718 L191.13415,125.111 L191.97465,124.496 L192.79025,123.87 L193.57925,123.236 L194.34505,122.595 L195.08635,121.943 L195.80145,121.284 L196.49355,120.616 L197.16155,119.94 L197.80365,119.256 L198.42315,118.565 L199.01885,117.864 L199.58905,117.157 L200.13695,116.443 L200.66135,115.72 L201.16065,114.991 L201.63795,114.256 L202.09205,113.513 L202.52145,112.764 L202.92925,112.009 L203.31405,111.246 L203.68065,110.466 L204.33225,108.928 L204.89855,107.353 L205.37285,105.759 L205.76385,104.149 L206.06255,102.518 L206.27375,100.875 L206.40695,99.22 L206.45635,97.551 L206.42325,95.874 L206.31665,94.188 L206.12905,92.493 L205.86225,90.794 L205.52635,89.091 L205.11555,87.382 L204.63235,85.673 L204.08445,83.962 L203.46605,82.249 L202.78315,80.537 L202.03935,78.826 L201.22945,77.117 L200.35625,75.413 L199.42615,73.713 L198.43435,72.018 L197.38485,70.329 L196.28455,68.652 L195.70195,67.812 L195.12175,66.976 L194.51365,66.144 L193.90625,65.314 L193.27405,64.489 L192.64135,63.663 L191.98215,62.843 L191.32345,62.022 L190.63885,61.209 L189.95495,60.396 L189.24805,59.589 L188.54055,58.783 L187.80845,57.983 L187.07645,57.184 L186.32055,56.394 L185.56535,55.604 L184.78895,54.822 L184.01235,54.039 L183.21315,53.266 L182.41395,52.493 L181.59295,51.73 L180.77255,50.967 L179.93275,50.214 L179.09245,49.461 L178.23145,48.719 L177.37055,47.977 L176.48975,47.247 L175.60985,46.517 L174.71235,45.798 L173.81435,45.079 L172.89775,44.373 L171.98105,43.667 L171.04645,42.975 L170.11245,42.283 L169.16285,41.604 L168.21255,40.924 L167.24555,40.259 L166.27865,39.595 L165.29575,38.945 L164.31345,38.297 L163.31725,37.662 L162.32045,37.027 L161.30895,36.409 L160.29745,35.791 L159.27205,35.19 L158.24715,34.589 L157.21025,34.005 L156.17265,33.42 L155.12235,32.853 L154.07205,32.287 L153.00985,31.739 L151.94815,31.192 L150.87615,30.663 L149.80355,30.133 L148.72025,29.623 L147.63705,29.113 L146.54385,28.624 L145.45135,28.135 L144.35035,27.665 L143.24865,27.195 L142.13815,26.747 L141.02755,26.299 L139.90905,25.873 L138.79105,25.448 L137.66655,25.043 L136.54125,24.638 L135.40915,24.257 L134.27695,23.876 L133.13885,23.519 L132.00125,23.163 L130.85885,22.829 L129.71555,22.495 L128.56755,22.187 L127.41935,21.878 L126.26725,21.596 L125.11565,21.313 L123.96115,21.056 L122.80565,20.797 L121.64735,20.567 L120.48895,20.336 L119.32845,20.133 L118.16875,19.931 L117.00775,19.754 L115.84575,19.577 L114.68305,19.43 L113.52005,19.282 L112.35715,19.165 L111.19495,19.047 L110.03325,18.957 L108.87055,18.867 L107.70905,18.808 L106.54735,18.749 L105.38775,18.721 L104.22885,18.694 L103.07235,18.696 L101.91475,18.698 L100.76035,18.733 L99.60575,18.768 L98.45515,18.836 L97.30545,18.904 L96.15995,19.004 L95.01325,19.103 L93.87185,19.237 L92.73025,19.372 L91.59465,19.541 L90.45995,19.71 L89.33145,19.912 L88.20155,20.115 L87.07905,20.353 L85.95635,20.592 L84.84175,20.868 L83.73965,21.141 C83.32415,21.244 83.07035,21.664 83.17275,22.079 C83.27525,22.495 83.69525,22.749 84.11075,22.646 L85.21345,22.375 L86.30355,22.108 L87.40155,21.877 L88.49965,21.645 L89.60505,21.45 L90.71165,21.254 L91.82425,21.09 L92.93595,20.926 L94.05355,20.797 L95.17145,20.668 L96.29445,20.573 L97.41875,20.478 L98.54735,20.413 L99.67495,20.348 L100.80655,20.317 L101.93845,20.285 L103.07355,20.285 L104.20985,20.285 L105.34855,20.315 L106.48645,20.344 L107.62635,20.404 L108.76645,20.464 L109.90795,20.555 L111.05045,20.646 L112.19365,20.764 L113.33605,20.882 L114.47845,21.029 L115.62105,21.177 L116.76305,21.353 L117.90605,21.529 L119.04785,21.731 L120.18885,21.932 L121.32805,22.162 L122.46735,22.391 L123.60395,22.647 L124.74155,22.904 L125.87615,23.184 L127.01015,23.464 L128.14005,23.771 L129.27025,24.077 L130.39575,24.408 L131.52205,24.74 L132.64365,25.094 L133.76455,25.448 L134.87955,25.826 L135.99465,26.203 L137.10305,26.605 L138.21235,27.006 L139.31485,27.429 L140.41685,27.851 L141.51085,28.296 L142.60495,28.74 L143.69035,29.207 L144.77655,29.673 L145.85425,30.159 L146.93145,30.644 L147.99865,31.15 L149.06565,31.657 L150.12205,32.183 L151.17915,32.71 L152.22595,33.254 L153.27215,33.798 L154.30635,34.36 L155.34075,34.923 L156.36235,35.503 L157.38465,36.084 L158.39485,36.681 L159.40455,37.277 L160.40025,37.89 L161.39595,38.504 L162.37705,39.133 L163.35875,39.763 L164.32645,40.407 L165.29375,41.051 L166.24495,41.71 L167.19625,42.368 L168.13085,43.042 L169.06615,43.715 L169.98565,44.401 L170.90455,45.087 L171.80555,45.786 L172.70655,46.485 L173.58885,47.197 L174.47175,47.909 L175.33715,48.631 L176.20165,49.354 L177.04625,50.088 L177.89075,50.823 L178.71465,51.567 L179.53915,52.313 L180.34425,53.068 L181.14865,53.821 L181.93125,54.585 L182.71375,55.349 L183.47365,56.121 L184.23375,56.895 L184.97265,57.676 L185.71085,58.456 L186.42525,59.244 L187.13955,60.032 L187.82915,60.827 L188.51935,61.622 L189.18665,62.424 L189.85325,63.225 L190.49395,64.031 L191.13415,64.838 L191.74765,65.65 L192.36155,66.463 L192.95085,67.28 L193.53935,68.096 L194.10005,68.916 L194.65825,69.732 L195.72525,71.382 L196.73665,73.033 L197.68635,74.688 L198.57525,76.347 L199.40755,78.006 L200.17555,79.664 L200.87935,81.321 L201.52315,82.976 L202.09615,84.626 L202.60105,86.272 L203.04275,87.911 L203.41335,89.541 L203.71255,91.162 L203.94555,92.774 L204.10635,94.371 L204.19385,95.958 L204.21225,97.531 L204.15375,99.088 L204.01685,100.631 L203.80815,102.158 L203.51955,103.665 L203.15305,105.158 L202.71275,106.634 L202.18915,108.088 L201.57255,109.539 L201.24365,110.237 L200.88745,110.941 L200.50835,111.642 L200.10885,112.338 L199.68755,113.027 L199.24265,113.711 L198.77675,114.39 L198.28855,115.063 L197.77595,115.73 L197.24185,116.391 L196.68475,117.046 L196.10255,117.695 L195.49835,118.337 L194.87045,118.973 L194.21695,119.602 L193.54065,120.225 L192.84015,120.84 L192.11335,121.448 L191.36315,122.05 L190.58815,122.643 L189.78615,123.229 L188.96035,123.808 L188.10915,124.378 L187.23045,124.94 L186.32745,125.494 L185.39835,126.039 L184.44125,126.576 L183.45925,127.105 L182.45055,127.624 L181.41655,128.132 L180.04675,128.771 L178.64735,129.381 L177.21315,129.965 L175.74925,130.524 L174.25455,131.056 L172.72785,131.562 L171.17365,132.044 L169.59105,132.499 L167.97905,132.928 L166.34185,133.333 L164.67885,133.712 L162.98895,134.066 L161.27625,134.395 L159.54015,134.699 L157.77975,134.978 L155.99895,135.233 L154.19715,135.463 L152.37385,135.668 L150.53225,135.849 L148.67215,136.004 L146.79315,136.135 L144.89835,136.243 L142.98765,136.327 L141.06055,136.387 L139.11995,136.424 L137.16605,136.437 L135.19825,136.426 L133.21695,136.394 L132.22455,136.366 L131.22965,136.338 L130.22945,136.298 L129.23185,136.258 L128.22775,136.203 L127.21415,136.146 L126.20045,136.09 L125.20075,136.035 L124.19285,135.956 L123.17125,135.877 L122.14965,135.797 L121.14165,135.719 L120.12735,135.618 L119.09955,135.516 L118.07165,135.414 L117.05605,135.313 L116.03615,135.191 L115.00415,135.069 L113.97215,134.946 L112.95345,134.825 L111.93155,134.682 L110.89655,134.537 L109.86155,134.392 L108.83965,134.249 L107.81655,134.085 L106.78025,133.918 L105.74405,133.752 L104.71975,133.587 L103.69565,133.403 L102.65975,133.217 L101.62395,133.031 L100.60105,132.847 L99.58015,132.642 L98.54625,132.435 L97.51235,132.227 L96.49155,132.023 L95.47445,131.797 L94.44425,131.569 L93.41415,131.341 L92.39595,131.116 L91.38265,130.872 L90.35735,130.625 L89.33205,130.378 L88.32005,130.134 L87.31495,129.871 L86.29665,129.604 L85.27815,129.337 L84.27315,129.074 L83.27685,128.791 L82.26715,128.505 L81.25745,128.218 L80.25705,127.935 L79.26345,127.638 L78.26745,127.34 L77.27705,127.032 L76.28675,126.725 L75.30235,126.408 L74.31735,126.091 L73.33825,125.766 L72.35975,125.441 L71.38815,125.106 L70.41655,124.772 L69.45225,124.428 L68.48735,124.084 L67.52945,123.731 L66.57224,123.379 L65.62312,123.018 L64.67409,122.657 L63.73358,122.286 L62.79247,121.916 L61.85946,121.537 L60.92723,121.159 L60.00432,120.772 L59.08151,120.384 L58.16847,119.988 L57.2572,119.593 L55.44675,118.784 L53.66018,117.961 L51.8951,117.12 L50.15098,116.264 L48.43148,115.392 L46.73597,114.503 L45.06369,113.599 L43.41854,112.68 L41.79985,111.744 L40.20674,110.794 L38.64338,109.83 L37.10895,108.849 L35.60214,107.855 L34.12745,106.847 L32.68416,105.824 L31.27098,104.787 L29.89267,103.737 L28.54819,102.673 L27.23599,101.595 L25.96103,100.506 L24.7223,99.401 L23.51817,98.285 L22.35392,97.158 L21.22828,96.016 L20.13943,94.863 L19.09286,93.699 L18.08725,92.521 L17.12053,91.333 L16.19843,90.135 L15.31581,88.919 L14.63737,87.944 L13.98234,86.973 L13.35306,86.009 L12.75004,85.051 L12.17344,84.101 L11.62191,83.158 L11.09348,82.223 L10.59079,81.297 L10.11248,80.378 L9.65664,79.466 L9.22583,78.563 L8.81871,77.667 L8.43341,76.778 L8.07471,75.898 L7.74001,75.024 L7.42645,74.158 L7.1364,73.301 L6.87301,72.465 L6.39426,70.773 L6.00881,69.131 L5.7086,67.518 L5.48408,65.934 L5.34028,64.385 L5.27612,62.863 L5.28276,61.368 L5.3656,59.907 L5.5231,58.471 L5.74656,57.061 L6.04023,55.682 L6.40247,54.325 L6.82671,52.992 L7.31685,51.688 L7.87408,50.405 L8.48988,49.144 L9.16747,47.911 L9.90881,46.698 L10.70516,45.507 L11.55926,44.342 L12.47357,43.197 L13.43974,42.074 L14.45975,40.977 L15.53592,39.902 L16.66016,38.848 L17.83364,37.819 L19.05862,36.813 L20.32762,35.828 L21.64169,34.869 L23.00267,33.933 L24.40334,33.018 L25.84435,32.13 L27.32673,31.264 L28.84439,30.42 L30.39767,29.602 L31.9878,28.808 L33.60867,28.036 L35.26027,27.29 L36.94361,26.568 L38.6531,25.868 L40.38842,25.194 L42.15031,24.544 L43.93379,23.917 L45.73813,23.315 L47.56393,22.737 L49.40673,22.182 L51.26543,21.652 L53.14048,21.146 L55.02793,20.662 L56.9262,20.204 L58.83564,19.769 L60.75293,19.356 L62.67619,18.968 L64.60564,18.604 L66.53836,18.262 L68.47195,17.945 L70.40675,17.651 L72.34015,17.38 L74.26955,17.132 L76.19505,16.909 L78.11465,16.708 L80.02525,16.53 L81.92685,16.377 L83.81795,16.245 L85.69485,16.137 L87.55785,16.052 L89.40565,15.989 L91.23425,15.95 L93.04375,15.934 L94.83355,15.939 L96.59885,15.967 L98.34015,16.019 L100.05695,16.092 L101.74405,16.187 L103.40195,16.306 L105.03075,16.445 L106.62445,16.606 L108.18385,16.791 L109.70925,16.995 L111.19395,17.222 L112.63925,17.47 L114.04565,17.739 L115.40565,18.028 L116.72085,18.339 L117.99205,18.669 L119.21085,19.019 L120.40325,19.398 C121.39075,19.71 122.44395,19.162 122.75575,18.175 C123.06755,17.187 122.51985,16.134 121.53235,15.822 Z" id="Fill-94"></path>
        </g>
    </g>
</svg>
