<?xml version="1.0" encoding="UTF-8"?>
<svg width="190px" height="153px" viewBox="0 0 190 153" version="1.1" xmlns="http://www.w3.org/2000/svg" xmlns:xlink="http://www.w3.org/1999/xlink">
    <title>45</title>
    <g id="Page-1" stroke="none" stroke-width="1" fill="none" fill-rule="evenodd">
        <g id="45" transform="translate(0.990100, 0.168000)" fill="currentColor">
            <path d="M34.6984,36.827 L33.3547,37.745 L32.0473,38.682 L30.7951,39.627 L29.5912,40.579 L28.4382,41.541 L27.3391,42.509 L26.2869,43.484 L25.2842,44.468 L24.334,45.458 L23.4298,46.455 L22.5737,47.46 L21.7691,48.471 L21.0094,49.487 L20.2969,50.512 L19.6347,51.54 L19.0165,52.574 L18.4447,53.616 L17.9221,54.661 L17.4426,55.709 L17.0088,56.765 L16.6229,57.822 L16.2793,58.881 L15.9806,59.947 L15.7282,61.012 L15.5169,62.078 L15.3496,63.149 L15.2268,64.216 L15.1436,65.284 L15.1031,66.355 L15.1049,67.421 L15.1446,68.485 L15.2255,69.551 L15.3462,70.611 L15.5029,71.669 L15.6989,72.726 L15.9324,73.776 L16.1997,74.822 L16.5045,75.867 L16.8443,76.905 L17.216,77.938 L17.6231,78.968 L18.063,79.99 L18.5329,81.008 L19.0362,82.021 L19.5701,83.027 L20.1323,84.027 L20.726,85.022 L21.3484,86.009 L21.9973,86.99 L22.6758,87.965 L23.3812,88.932 L24.1115,89.892 L24.8696,90.846 L25.6528,91.792 L26.4593,92.73 L27.292,93.661 L28.1481,94.583 L29.0259,95.498 L29.9281,96.405 L30.8521,97.302 L31.7964,98.191 L32.7634,99.072 L33.7506,99.943 L34.7565,100.805 L35.7836,101.658 L36.8339,102.504 L37.8996,103.328 L38.9717,104.157 L40.0801,104.966 L41.1882,105.773 L42.3302,106.559 L43.4701,107.344 L44.6389,108.108 L45.8094,108.873 L47.0096,109.614 L48.2096,110.355 L49.437,111.072 L50.6625,111.787 L51.911,112.479 L53.1612,113.172 L54.4346,113.839 L55.7079,114.505 L57.0021,115.144 L58.2946,115.782 L59.6041,116.394 L60.9154,117.006 L62.2435,117.59 L63.5716,118.173 L64.914,118.726 L66.2549,119.278 L67.6068,119.802 L68.9607,120.326 L70.3249,120.818 L71.6893,121.31 L73.0615,121.769 L74.4322,122.226 L75.8081,122.653 L77.1862,123.08 L78.568,123.472 L79.9503,123.863 L81.3338,124.219 L82.7158,124.573 L84.0972,124.894 L85.481,125.215 L86.8621,125.498 L88.2438,125.781 L89.6203,126.024 L90.9953,126.267 L92.3637,126.473 L93.735,126.68 L95.0971,126.845 L96.4601,127.009 L97.8114,127.131 L99.1611,127.252 L100.4983,127.334 L101.839,127.416 L103.164,127.454 L104.49,127.491 L105.798,127.482 L107.0967,127.473 L108.3984,127.432 L109.6842,127.367 L110.958,127.278 L112.2217,127.166 L113.4754,127.03 L114.7153,126.869 L115.9438,126.685 L117.1608,126.474 L118.3622,126.238 L119.5507,125.978 L120.7263,125.691 L121.8844,125.377 L123.0281,125.038 L124.1573,124.671 L125.2672,124.277 L126.361,123.856 L127.4386,123.406 L128.495,122.928 L129.5335,122.423 L130.554,121.887 L131.5513,121.322 L132.5288,120.73 L133.4863,120.105 L134.4184,119.451 L135.329,118.769 L136.2172,118.053 L137.078,117.308 L137.9151,116.533 L138.7275,115.725 L139.5105,114.887 L140.2677,114.019 L140.998,113.116 L141.6969,112.184 L142.3681,111.222 L143.01,110.225 L143.6188,109.197 L144.1982,108.14 L144.7461,107.048 L145.2595,105.926 L145.7418,104.774 L146.1908,103.586 L146.6039,102.368 L146.9847,101.12 L147.3303,99.837 L147.6388,98.523 L147.9138,97.179 L148.152,95.799 L148.3521,94.387 L148.5175,92.945 L148.6443,91.467 L148.7317,89.957 L148.7831,88.416 L148.7947,86.838 L148.7659,85.227 L148.7,83.584 L148.5928,81.905 L148.444,80.191 L148.2568,78.445 L148.0268,76.661 L147.7538,74.842 L147.4412,72.99 L147.0843,71.099 L146.683,69.173 L146.2416,67.217 L145.9962,66.212 L145.7519,65.212 L145.4846,64.193 L145.2175,63.176 L144.9293,62.14 L144.6408,61.104 L144.3287,60.048 L144.0166,58.993 L143.6807,57.917 L143.345,56.843 L142.9876,55.751 L142.6297,54.658 L142.2476,53.546 L141.8655,52.433 L141.4587,51.3 L141.051,50.165 L140.5663,48.88 L140.0581,47.616 L139.5292,46.38 L138.981,45.167 L138.4113,43.978 L137.8218,42.817 L137.214,41.679 L136.5855,40.565 L135.9383,39.478 L135.2735,38.414 L134.5889,37.374 L133.8866,36.36 L133.1677,35.37 L132.4297,34.403 L131.6751,33.462 L130.9048,32.544 L130.1162,31.649 L129.3122,30.78 L128.4934,29.934 L127.6572,29.11 L126.8068,28.313 L125.9424,27.537 L125.0616,26.784 L124.1671,26.058 L123.2596,25.352 L122.3368,24.67 L121.4019,24.013 L120.455,23.376 L119.4938,22.763 L118.5215,22.173 L117.5382,21.605 L116.5415,21.059 L115.5349,20.536 L114.5181,20.034 L113.489,19.554 L112.4509,19.097 L111.4035,18.661 L110.345,18.246 L109.2783,17.853 L108.2033,17.48 L107.1181,17.129 L106.019,16.797 L104.9234,16.499 L103.819,16.198 L102.6984,15.94 L101.5787,15.682 L100.4444,15.465 L99.3133,15.249 L98.1701,15.07 L97.0251,14.891 L95.8679,14.751 L94.7114,14.612 L93.5441,14.512 L92.3797,14.413 L91.2066,14.348 L90.0317,14.284 L88.8484,14.258 L87.6657,14.232 L86.4757,14.243 L85.2885,14.255 L84.0957,14.3 L82.9014,14.346 L81.7022,14.427 L80.5036,14.509 L79.3011,14.625 L78.1011,14.741 L76.8986,14.888 L75.6947,15.036 L74.4894,15.219 L73.2845,15.401 L72.0795,15.618 L70.8767,15.834 L69.6748,16.081 L68.4714,16.328 L67.2703,16.608 L66.0694,16.888 L64.8721,17.2 L63.6767,17.512 L62.4855,17.853 L61.2929,18.195 L60.106,18.568 L58.9194,18.941 L57.7398,19.344 L56.5618,19.747 L55.391,20.176 L54.2187,20.605 L53.0557,21.064 L51.8929,21.524 L50.7407,22.012 L49.59,22.5 L48.4501,23.014 L47.3087,23.529 L46.1802,24.071 L45.0518,24.614 L43.9376,25.184 L42.8249,25.754 L41.7261,26.347 L40.6259,26.942 L39.5421,27.564 L38.4584,28.185 L37.3925,28.832 L36.3279,29.479 L35.2806,30.148 L34.2318,30.819 L33.2031,31.514 L32.1744,32.21 L31.167,32.929 L30.1611,33.648 L29.1755,34.389 L28.1885,35.131 L27.2252,35.896 L26.2619,36.661 L25.3234,37.449 L24.3864,38.236 L23.473,39.043 L22.5583,39.852 L21.6708,40.682 L20.7832,41.512 L19.9242,42.364 L19.0666,43.215 L18.2359,44.084 L17.4039,44.955 L16.6029,45.846 L15.8017,46.738 L15.0329,47.649 L14.2653,48.559 L13.5281,49.486 L12.7895,50.415 L12.0855,51.363 L11.3815,52.311 L10.7134,53.277 L10.0466,54.242 L9.4134,55.223 L8.7791,56.206 L8.183,57.206 L7.587,58.206 L7.0306,59.223 L6.4755,60.238 L5.9574,61.268 L5.4384,62.3 L4.9613,63.347 L4.4844,64.396 L4.0511,65.459 L3.619,66.52 L3.2273,67.594 L2.8351,68.671 L2.4885,69.761 L2.1424,70.853 L1.8433,71.957 L1.5471,73.052 L1.28,74.171 L1.0389,75.291 L0.8232,76.415 L0.6304,77.545 L0.4631,78.682 L0.322,79.823 L0.2048,80.97 L0.1141,82.123 L0.0503,83.28 L0.0114,84.441 L0,85.608 L0.0164,86.779 L0.0584,87.954 L0.129,89.134 L0.2283,90.317 L0.354,91.503 L0.5092,92.695 L0.6939,93.889 L0.9057,95.086 L1.1481,96.287 L1.4206,97.49 L1.7212,98.695 L2.0531,99.905 L2.416,101.115 L2.8076,102.328 L3.2315,103.544 L3.6871,104.761 L4.1721,105.979 L4.6904,107.2 L5.241,108.422 L5.8219,109.644 L6.4368,110.869 L7.0852,112.094 L7.7645,113.319 L8.4788,114.546 L9.2269,115.773 L10.0067,117 L10.8222,118.228 L11.6723,119.456 L12.5548,120.683 L13.4739,121.912 L14.4307,123.142 L15.1849,124.062 L15.9433,124.987 L16.7287,125.874 L17.5142,126.76 L18.3257,127.609 L19.1357,128.456 L19.9686,129.269 L20.8033,130.084 L21.6624,130.861 L22.5215,131.638 L23.4042,132.379 L24.285,133.117 L25.1864,133.822 L26.0897,134.528 L27.0148,135.199 L27.9398,135.868 L28.8858,136.503 L29.8298,137.135 L30.792,137.735 L31.756,138.336 L32.7394,138.901 L33.7225,139.467 L34.724,139.997 L35.7235,140.526 L36.7388,141.023 L37.756,141.521 L38.7898,141.985 L39.8234,142.449 L40.8729,142.878 L41.9202,143.307 L42.9812,143.704 L44.0439,144.102 L45.1207,144.467 L46.1973,144.832 L47.2872,145.163 L48.3749,145.494 L49.4741,145.795 L50.5747,146.097 L51.6871,146.366 L52.7992,146.634 L53.9221,146.871 L55.0429,147.107 L56.1729,147.315 L57.3043,147.522 L58.4449,147.698 L59.5852,147.874 L60.7339,148.019 L61.8806,148.164 L63.0342,148.281 L64.1892,148.397 L65.351,148.484 L66.5124,148.57 L67.6797,148.626 L68.8452,148.681 L70.0153,148.71 L71.1867,148.739 L72.3624,148.738 L73.5379,148.738 L74.7167,148.708 L75.8939,148.678 L77.0734,148.622 L78.2542,148.566 L79.4369,148.481 L80.6193,148.397 L81.8027,148.284 L82.9844,148.172 L84.1664,148.034 L85.3496,147.896 L86.5321,147.73 L87.7145,147.565 L88.8955,147.372 L90.0749,147.179 L91.2522,146.963 L92.4308,146.745 L93.6063,146.502 L94.7817,146.258 L95.9531,145.988 L97.1232,145.719 L98.289,145.426 L99.4559,145.132 L100.6174,144.813 L101.7787,144.494 L102.9337,144.15 L104.0874,143.806 L105.2346,143.439 L106.3829,143.072 L107.5234,142.681 L108.6637,142.289 L109.7953,141.873 L110.9256,141.458 L112.0472,141.02 L113.17,140.583 L114.2824,140.121 L115.3947,139.66 L116.4958,139.175 L117.5957,138.69 L118.6848,138.185 L119.7749,137.679 L120.8522,137.15 L121.9296,136.621 L122.9932,136.07 L124.0557,135.519 L125.1051,134.949 L126.1556,134.377 L127.1909,133.784 L128.2261,133.191 L129.2453,132.576 L130.2633,131.961 L131.266,131.328 L132.2698,130.694 L133.2559,130.038 L134.2421,129.383 L135.2097,128.707 L136.1762,128.032 L137.1251,127.338 L138.0751,126.644 L139.005,125.929 L139.9349,125.214 L140.8439,124.48 L141.7517,123.746 L142.6397,122.995 L143.5289,122.243 L144.3954,121.471 L145.262,120.7 L146.1051,119.91 L146.9471,119.12 L147.7671,118.314 L148.5882,117.506 L149.3842,116.681 L150.1804,115.855 L150.9507,115.012 L151.7199,114.169 L152.4648,113.311 L153.2108,112.451 L153.9292,111.574 L154.6476,110.696 L155.3376,109.802 L156.0266,108.909 L156.689,108 L157.3523,107.09 L157.9857,106.164 L158.619,105.238 L159.2213,104.295 L159.8227,103.354 L160.3952,102.398 L160.9685,101.441 L161.5094,100.468 L162.0501,99.495 L162.5574,98.507 L163.0637,97.52 L163.539,96.52 L164.015,95.517 L164.4559,94.501 L164.8966,93.484 L165.3014,92.453 L165.7053,91.424 L166.0758,90.382 L166.4468,89.338 L166.7802,88.28 L167.1133,87.223 L167.4079,86.152 L167.7018,85.083 L167.96,84.002 L168.2184,82.919 L168.4367,81.824 L168.6547,80.728 L168.8317,79.621 L169.0081,78.515 L169.1465,77.399 L169.2849,76.281 L169.3807,75.151 L169.4764,74.021 L169.5289,72.88 L169.5808,71.741 L169.5927,70.593 L169.6041,69.442 L169.5706,68.281 L169.5367,67.12 L169.4569,65.949 L169.3773,64.785 L169.265,63.603 L169.1293,62.421 L168.9698,61.235 L168.7884,60.046 L168.5826,58.85 L168.3525,57.652 L168.0999,56.45 L167.8222,55.242 L167.5198,54.032 L167.1943,52.818 L166.8432,51.599 L166.4667,50.378 L166.0431,49.077 L165.6013,47.794 L165.1423,46.531 L164.6673,45.284 L164.1748,44.054 L163.6656,42.844 L163.1412,41.65 L162.5998,40.474 L162.0424,39.317 L161.4703,38.176 L160.8819,37.052 L160.2781,35.948 L159.6603,34.86 L159.0267,33.789 L158.3785,32.737 L157.7167,31.702 L157.0398,30.683 L156.3463,29.68 L155.6397,28.709 L154.9289,27.733 L154.1908,26.792 L153.4525,25.852 L152.6877,24.947 L151.9241,24.044 L151.1371,23.173 L150.3488,22.3 L149.5356,21.462 L148.7224,20.625 L147.8852,19.823 L147.0494,19.022 L146.1927,18.253 L145.3345,17.483 L144.4542,16.747 L143.5738,16.011 L142.6722,15.31 L141.772,14.611 L140.8533,13.942 L139.9331,13.273 L138.9936,12.637 L138.0541,12.002 L137.0959,11.4 L136.1393,10.8 L135.1666,10.23 L134.1923,9.66 L133.2012,9.123 L132.2101,8.587 L131.203,8.083 L130.1975,7.581 L129.1782,7.109 L128.1575,6.636 L127.1224,6.196 L126.0875,5.757 L125.0391,5.35 L123.9924,4.945 L122.9343,4.568 L121.8748,4.192 L120.8035,3.848 L119.7324,3.504 L118.6504,3.192 L117.5701,2.881 L116.4808,2.598 L115.39,2.316 L114.2901,2.066 L113.1903,1.815 L112.0823,1.597 L110.9759,1.378 L109.8628,1.189 L108.7483,0.999 L107.6272,0.84 L106.5063,0.682 L105.3797,0.555 L104.2547,0.428 L103.1252,0.329 L101.9945,0.23 L100.8597,0.162 L99.725,0.094 L98.5873,0.057 L97.451,0.019 L96.3127,0.01 L95.1731,0 L94.032,0.021 L92.891,0.041 L91.7495,0.092 L90.6094,0.143 L89.4696,0.22 L88.3285,0.298 L87.1884,0.406 L86.0485,0.514 L84.9106,0.651 L83.7741,0.788 L82.6401,0.951 L81.5049,1.115 L80.3733,1.308 L79.2418,1.501 L78.1148,1.723 L76.9892,1.945 L75.8685,2.193 L74.7465,2.441 L73.6307,2.718 L72.515,2.995 L71.4067,3.301 L70.2999,3.608 L69.2004,3.941 L68.0997,4.274 L67.0078,4.635 L65.9159,4.996 L64.8338,5.385 L63.753,5.773 L62.6817,6.187 L61.6093,6.601 L60.5482,7.043 L59.4872,7.485 L58.4384,7.954 L57.3909,8.422 L56.3553,8.916 L55.3185,9.41 L54.2957,9.93 L53.2728,10.451 L52.2648,10.999 L51.258,11.546 L50.2655,12.117 L49.2724,12.69 L48.2957,13.29 L47.3191,13.889 L46.36,14.515 L45.4021,15.14 L44.4607,15.789 L43.5183,16.438 L42.5949,17.114 L41.6716,17.789 L40.7683,18.491 L39.8661,19.191 L38.9829,19.915 L38.0986,20.639 L37.236,21.389 L36.3735,22.139 L35.5335,22.915 L34.6947,23.689 L33.8771,24.486 L33.0585,25.284 L32.2643,26.107 L31.4698,26.93 L30.7,27.777 L29.9313,28.623 L29.1861,29.491 L28.4401,30.361 L27.7209,31.254 L27.0018,32.148 L26.3103,33.066 L25.6199,33.983 L24.9555,34.922 L24.2903,35.862 L23.6544,36.825 L23.0187,37.789 L22.4133,38.776 L21.8089,39.762 L21.2327,40.769 L20.656,41.778 L20.1112,42.81 L19.5665,43.842 L19.0548,44.896 L18.5439,45.95 L18.0632,47.024 L17.5821,48.099 L17.1354,49.197 L16.689,50.295 L16.278,51.415 L15.8678,52.535 L15.4905,53.674 L15.1129,54.814 L14.7725,55.977 L14.4323,57.139 L14.13,58.323 L13.8285,59.506 L13.5622,60.709 L13.2958,61.912 L13.069,63.138 L12.8425,64.363 L12.6566,65.609 L12.4711,66.854 L12.3232,68.117 L12.1752,69.383 L12.0691,70.668 L11.9633,71.954 L11.9006,73.26 L11.8382,74.561 L11.8055,75.884 L11.7952,77.214 L11.8073,78.554 L11.8401,79.902 L11.8957,81.261 L11.9745,82.629 L12.0918,84.264 L12.2318,85.879 L12.394,87.471 L12.5763,89.043 L12.7807,90.595 L13.0067,92.125 L13.2519,93.635 L13.5185,95.125 L13.8061,96.593 L14.1126,98.042 L14.44,99.47 L14.7876,100.877 L15.1537,102.265 L15.54,103.632 L15.9459,104.978 L16.3696,106.306 L16.8129,107.613 L17.2752,108.899 L17.7547,110.166 L18.2533,111.413 L18.7701,112.639 L19.3035,113.846 L19.8554,115.034 L20.4245,116.201 L21.0098,117.35 L21.6129,118.479 L22.2328,119.587 L22.8682,120.677 L23.5208,121.747 L24.1895,122.797 L24.8731,123.828 L25.5733,124.841 L26.2889,125.833 L27.0187,126.806 L27.7645,127.761 L28.5249,128.696 L29.299,129.612 L30.0884,130.51 L30.8918,131.387 L31.7081,132.247 L32.5391,133.088 L33.3862,133.912 L34.2454,134.703 L35.1087,135.499 L35.9983,136.256 L36.8879,137.012 L37.8029,137.732 L38.7166,138.449 L39.6525,139.133 L40.5897,139.817 L41.5504,140.464 L42.5111,141.111 L43.4944,141.721 L44.4764,142.329 L45.4781,142.904 L46.481,143.48 L47.5048,144.019 L48.5285,144.558 L49.5721,145.061 L50.6143,145.563 L51.6739,146.032 L52.7346,146.501 L53.8135,146.935 L54.8922,147.369 L55.9882,147.767 L57.0828,148.165 L58.1923,148.531 L59.3028,148.896 L60.429,149.228 L61.5549,149.558 L62.6954,149.855 L63.8345,150.151 L64.9862,150.415 L66.1389,150.68 L67.3044,150.911 L68.4698,151.142 L69.6471,151.339 L70.8231,151.536 L72.0093,151.702 L73.1963,151.868 L74.3936,152.002 L75.5908,152.135 L76.7972,152.235 L78.0025,152.335 L79.2154,152.406 L80.4292,152.477 L81.6508,152.515 L82.8721,152.554 L84.1001,152.56 L85.327,152.566 L86.5593,152.544 L87.7924,152.521 L89.0306,152.467 L90.2685,152.413 L91.5106,152.327 L92.7517,152.242 L93.9956,152.129 L95.2405,152.015 L96.4877,151.871 L97.7348,151.726 L98.9834,151.552 L100.231,151.377 L101.4793,151.176 L102.7283,150.974 L103.9771,150.742 L105.2258,150.51 L106.4734,150.249 L107.7201,149.988 L108.965,149.7 L110.2107,149.412 L111.4536,149.095 L112.6964,148.778 L113.9355,148.432 L115.1737,148.086 L116.4078,147.715 L117.6426,147.343 L118.872,146.944 L120.1013,146.544 L121.3244,146.116 L122.5466,145.688 L123.7622,145.235 L124.9786,144.782 L126.187,144.302 L127.3954,143.822 L128.5948,143.314 L129.7934,142.807 L130.9832,142.275 L132.1736,141.743 L133.3535,141.185 L134.5333,140.626 L135.7016,140.041 L136.8691,139.457 L138.0253,138.848 L139.1823,138.24 L140.326,137.605 L141.4697,136.971 L142.5993,136.311 L143.7281,135.651 L144.8433,134.969 L145.9591,134.285 L147.0592,133.577 L148.1592,132.869 L149.2425,132.137 L150.325,131.404 L151.3916,130.65 L152.4588,129.895 L153.5075,129.115 L154.5563,128.336 L155.5856,127.533 L156.6143,126.73 L157.6246,125.906 L158.6355,125.081 L159.6254,124.233 L160.6153,123.384 L161.5831,122.513 L162.5503,121.642 L163.4967,120.75 L164.4438,119.858 L165.3671,118.943 L166.2904,118.028 L167.1891,117.09 L168.0872,116.154 L168.962,115.197 L169.8375,114.239 L170.6867,113.26 L171.5358,112.28 L172.3577,111.279 L173.1789,110.279 L173.9745,109.259 L174.7708,108.238 L175.538,107.197 L176.3053,106.155 L177.0426,105.093 L177.7793,104.031 L178.488,102.951 L179.1972,101.87 L179.8749,100.768 L180.5525,99.667 L181.1975,98.545 L181.8419,97.425 L182.456,96.286 L183.0705,95.147 L183.6508,93.988 L184.2309,92.829 L184.7759,91.651 L185.3203,90.474 L185.832,89.28 L186.344,88.084 L186.8191,86.87 L187.294,85.656 L187.7312,84.424 L188.1641,83.204 C188.3073,82.8 188.0965,82.357 187.6932,82.214 C187.2898,82.071 186.8467,82.281 186.7035,82.685 L186.2694,83.905 L185.8397,85.113 L185.3725,86.303 L184.9054,87.494 L184.4018,88.666 L183.8979,89.84 L183.3616,90.996 L182.8258,92.152 L182.2552,93.289 L181.6846,94.426 L181.0802,95.543 L180.4753,96.663 L179.8404,97.764 L179.206,98.865 L178.5394,99.946 L177.8728,101.027 L177.1749,102.089 L176.4765,103.151 L175.7504,104.195 L175.0249,105.239 L174.2697,106.262 L173.5146,107.285 L172.7307,108.288 L171.9462,109.291 L171.1364,110.276 L170.3272,111.259 L169.491,112.222 L168.6547,113.185 L167.7923,114.126 L166.9293,115.068 L166.0433,115.991 L165.1579,116.913 L164.2481,117.813 L163.3382,118.713 L162.4048,119.59 L161.4708,120.469 L160.5161,121.327 L159.5621,122.184 L158.5862,123.019 L157.6103,123.854 L156.6134,124.665 L155.6159,125.478 L154.6001,126.269 L153.585,127.059 L152.5506,127.826 L151.5162,128.594 L150.4635,129.337 L149.4101,130.081 L148.3408,130.802 L147.2722,131.524 L146.1869,132.221 L145.1017,132.918 L144.0007,133.59 L142.899,134.263 L141.7838,134.914 L140.6693,135.563 L139.5407,136.188 L138.4122,136.813 L137.2705,137.412 L136.1282,138.011 L134.9746,138.588 L133.8219,139.163 L132.6577,139.713 L131.4935,140.263 L130.3188,140.787 L129.1434,141.311 L127.9593,141.81 L126.7759,142.31 L125.5837,142.782 L124.3915,143.255 L123.1915,143.701 L121.9907,144.147 L120.7836,144.567 L119.5772,144.988 L118.3647,145.381 L117.1522,145.775 L115.9344,146.14 L114.716,146.505 L113.4935,146.845 L112.2718,147.185 L111.0466,147.496 L109.8215,147.807 L108.5937,148.09 L107.3651,148.373 L106.135,148.629 L104.9057,148.886 L103.6755,149.113 L102.4454,149.34 L101.2152,149.537 L99.9843,149.735 L98.7541,149.906 L97.5249,150.076 L96.2974,150.217 L95.07,150.357 L93.8451,150.468 L92.6195,150.578 L91.397,150.661 L90.1755,150.743 L88.9584,150.795 L87.7413,150.847 L86.5295,150.868 L85.3169,150.889 L84.1097,150.881 L82.9037,150.873 L81.7046,150.834 L80.5056,150.795 L79.3145,150.724 L78.1224,150.654 L76.9383,150.553 L75.7554,150.454 L74.582,150.321 L73.4087,150.189 L72.2459,150.024 L71.0822,149.859 L69.9288,149.664 L68.7766,149.469 L67.6365,149.241 L66.4966,149.014 L65.3698,148.753 L64.242,148.492 L63.1267,148.2 L62.0128,147.909 L60.9136,147.584 L59.8146,147.259 L58.7312,146.9 L57.6468,146.54 L56.5773,146.15 L55.5092,145.76 L54.4583,145.335 L53.4076,144.911 L52.3751,144.452 L51.3415,143.992 L50.3251,143.501 L49.3102,143.01 L48.315,142.484 L47.32,141.958 L46.3457,141.396 L45.3702,140.834 L44.4143,140.239 L43.4597,139.646 L42.5275,139.016 L41.5953,138.386 L40.6864,137.72 L39.7763,137.053 L38.8881,136.353 L38.0011,135.654 L37.139,134.917 L36.2769,134.182 L35.4405,133.408 L34.6,132.632 L33.7839,131.835 L32.979,131.018 L32.1872,130.181 L31.4081,129.328 L30.6435,128.455 L29.8928,127.563 L29.1552,126.654 L28.4328,125.726 L27.7249,124.778 L27.0307,123.813 L26.3523,122.829 L25.6891,121.824 L25.0401,120.802 L24.4075,119.76 L23.7908,118.699 L23.1889,117.619 L22.604,116.519 L22.0356,115.4 L21.4827,114.261 L20.9476,113.104 L20.4296,111.925 L19.9278,110.727 L19.4442,109.51 L18.9784,108.272 L18.5293,107.015 L18.0991,105.738 L17.6875,104.44 L17.2931,103.122 L16.9182,101.785 L16.5626,100.426 L16.2249,99.047 L15.9073,97.648 L15.6096,96.227 L15.3305,94.787 L15.0722,93.326 L14.8345,91.843 L14.6163,90.341 L14.4195,88.817 L14.2442,87.272 L14.0885,85.706 L13.9549,84.119 L13.8434,82.51 L13.7696,81.171 L13.7185,79.843 L13.6898,78.525 L13.6811,77.215 L13.6944,75.917 L13.7293,74.632 L13.7938,73.353 L13.8579,72.08 L13.9644,70.827 L14.0707,69.574 L14.2186,68.342 L14.3667,67.109 L14.5517,65.895 L14.7363,64.682 L14.9607,63.491 L15.1849,62.299 L15.4479,61.129 L15.711,59.958 L16.0089,58.806 L16.306,57.655 L16.6405,56.527 L16.9747,55.398 L17.3453,54.291 L17.7161,53.182 L18.1192,52.094 L18.5216,51.007 L18.9588,49.942 L19.3958,48.877 L19.8665,47.834 L20.3378,46.79 L20.8396,45.767 L21.3404,44.744 L21.8735,43.745 L22.4064,42.745 L22.9706,41.768 L23.5354,40.79 L24.1279,39.832 L24.7194,38.876 L25.3407,37.943 L25.9619,37.009 L26.6118,36.099 L27.2624,35.188 L27.9385,34.298 L28.6137,33.408 L29.3159,32.543 L30.0181,31.677 L30.7466,30.836 L31.4759,29.993 L32.2284,29.171 L32.9798,28.351 L33.7564,27.556 L34.5332,26.76 L35.3336,25.989 L36.135,25.216 L36.9573,24.466 L37.7784,23.717 L38.6217,22.992 L39.4649,22.267 L40.3293,21.568 L41.1948,20.867 L42.0788,20.189 L42.9617,19.511 L43.8641,18.859 L44.7665,18.207 L45.6876,17.58 L46.6098,16.952 L47.5483,16.348 L48.4855,15.744 L49.4399,15.166 L50.3941,14.587 L51.3646,14.035 L52.3356,13.481 L53.3206,12.951 L54.3044,12.421 L55.3028,11.917 L56.3011,11.413 L57.3131,10.936 L58.3263,10.458 L59.3512,10.005 L60.3748,9.551 L61.4104,9.125 L62.446,8.698 L63.4927,8.299 L64.5406,7.899 L65.5979,7.523 L66.6539,7.148 L67.7193,6.8 L68.7848,6.453 L69.8588,6.132 L70.934,5.811 L72.0162,5.516 L73.0969,5.219 L74.1843,4.95 L75.2716,4.681 L76.3651,4.439 L77.4598,4.197 L78.5593,3.981 L79.6574,3.765 L80.76,3.577 L81.8626,3.389 L82.9687,3.23 L84.076,3.07 L85.1859,2.937 L86.2943,2.804 L87.4046,2.699 L88.5149,2.595 L89.6261,2.519 L90.7387,2.444 L91.8514,2.395 L92.9627,2.345 L94.0733,2.326 L95.1838,2.306 L96.2928,2.316 L97.403,2.325 L98.5112,2.362 L99.6178,2.399 L100.7212,2.465 L101.8245,2.532 L102.9238,2.628 L104.0243,2.725 L105.1205,2.849 L106.215,2.973 L107.3039,3.127 L108.3926,3.281 L109.4747,3.466 L110.5581,3.65 L111.6348,3.863 L112.7099,4.076 L113.7767,4.319 L114.8434,4.562 L115.901,4.836 L116.9599,5.111 L118.0099,5.414 L119.0581,5.716 L120.0956,6.05 L121.1329,6.383 L122.1586,6.749 L123.1857,7.114 L124.2016,7.509 L125.2157,7.902 L126.2166,8.328 L127.2173,8.754 L128.2039,9.211 L129.192,9.669 L130.1664,10.157 L131.1392,10.643 L132.0963,11.162 L133.0533,11.681 L133.9937,12.232 L134.9355,12.784 L135.8615,13.366 L136.7859,13.947 L137.6921,14.56 L138.5982,15.174 L139.4851,15.821 L140.3734,16.468 L141.2435,17.146 L142.1123,17.823 L142.9603,18.533 L143.8083,19.243 L144.6348,19.986 L145.4627,20.731 L146.2702,21.507 L147.0764,22.281 L147.8594,23.089 L148.6425,23.896 L149.4015,24.739 L150.162,25.582 L150.8998,26.457 L151.6365,27.33 L152.3475,28.238 L153.0586,29.145 L153.7432,30.088 L154.4319,31.036 L155.096,31.999 L155.7484,32.983 L156.3874,33.985 L157.0134,35.004 L157.6246,36.039 L158.2215,37.092 L158.805,38.162 L159.373,39.25 L159.9262,40.355 L160.4653,41.478 L160.9883,42.617 L161.4958,43.776 L161.9887,44.951 L162.4649,46.143 L162.9249,47.354 L163.3697,48.583 L163.7972,49.828 L164.2078,51.093 L164.5709,52.276 L164.9087,53.452 L165.2219,54.626 L165.5129,55.795 L165.7793,56.959 L166.0217,58.119 L166.2425,59.275 L166.4393,60.426 L166.6129,61.572 L166.7653,62.715 L166.8945,63.851 L167.0006,64.978 L167.0766,66.11 L167.1525,67.235 L167.1835,68.349 L167.2149,69.463 L167.2023,70.567 L167.1901,71.673 L167.1386,72.769 L167.0876,73.864 L166.994,74.947 L166.9005,76.03 L166.7655,77.102 L166.6306,78.176 L166.4586,79.24 L166.2872,80.302 L166.0759,81.352 L165.8649,82.402 L165.6148,83.44 L165.3645,84.48 L165.0794,85.509 L164.795,86.537 L164.473,87.551 L164.1513,88.566 L163.7929,89.568 L163.434,90.572 L163.0424,91.564 L162.6517,92.555 L162.2258,93.532 L161.8001,94.509 L161.34,95.472 L160.8792,96.438 L160.3878,97.39 L159.8974,98.342 L159.3741,99.278 L158.851,100.215 L158.2958,101.138 L157.7399,102.062 L157.1555,102.972 L156.5722,103.881 L155.9583,104.775 L155.3446,105.67 L154.7012,106.548 L154.0568,107.428 L153.3863,108.294 L152.7168,109.158 L152.0192,110.006 L151.3216,110.855 L150.5968,111.687 L149.871,112.52 L149.1211,113.338 L148.3723,114.155 L147.5978,114.955 L146.8232,115.755 L146.0237,116.537 L145.2232,117.32 L144.4008,118.087 L143.5794,118.854 L142.7349,119.602 L141.8903,120.35 L141.0233,121.08 L140.1552,121.811 L139.2675,122.524 L138.3809,123.237 L137.4734,123.931 L136.566,124.625 L135.6385,125.3 L134.71,125.975 L133.764,126.633 L132.8192,127.289 L131.8559,127.926 L130.8926,128.563 L129.9118,129.179 L128.9299,129.796 L127.9328,130.395 L126.9369,130.992 L125.9249,131.569 L124.913,132.146 L123.886,132.701 L122.8579,133.257 L121.8168,133.793 L120.7769,134.329 L119.7234,134.843 L118.67,135.357 L117.6039,135.849 L116.5368,136.341 L115.4588,136.812 L114.3821,137.283 L113.2943,137.732 L112.2066,138.18 L111.1087,138.605 L110.0097,139.03 L108.9021,139.435 L107.7958,139.838 L106.6809,140.218 L105.5661,140.598 L104.4435,140.954 L103.3199,141.31 L102.1899,141.644 L101.0612,141.977 L99.9264,142.286 L98.7917,142.595 L97.6517,142.878 L96.5106,143.162 L95.3653,143.423 L94.2216,143.684 L93.074,143.919 L91.9267,144.154 L90.7765,144.363 L89.6252,144.572 L88.472,144.757 L87.3203,144.942 L86.1673,145.101 L85.0145,145.259 L83.8614,145.391 L82.7071,145.523 L81.5531,145.63 L80.4007,145.737 L79.2495,145.816 L78.0986,145.896 L76.9497,145.948 L75.7996,146 L74.6521,146.026 L73.5062,146.052 L72.3641,146.05 L71.2221,146.048 L70.0847,146.017 L68.9461,145.986 L67.8121,145.929 L66.6801,145.872 L65.5541,145.786 L64.4284,145.7 L63.3097,145.584 L62.1895,145.469 L61.0764,145.326 L59.9652,145.184 L58.8625,145.011 L57.7601,144.839 L56.6671,144.636 L55.5726,144.433 L54.4873,144.202 L53.4041,143.972 L52.3318,143.71 L51.2598,143.449 L50.1995,143.156 L49.1377,142.863 L48.0874,142.541 L47.0391,142.221 L46.0041,141.868 L44.9694,141.515 L43.9489,141.13 L42.9267,140.745 L41.9181,140.33 L40.9116,139.916 L39.9207,139.47 L38.9301,139.023 L37.956,138.544 L36.9801,138.064 L36.02,137.554 L35.062,137.045 L34.1219,136.502 L33.1821,135.959 L32.2611,135.383 L31.3383,134.806 L30.4333,134.197 L29.5303,133.59 L28.6477,132.948 L27.7651,132.307 L26.9038,131.631 L26.0405,130.953 L25.1973,130.243 L24.3558,129.536 L23.5371,128.792 L22.7182,128.049 L21.9229,127.27 L21.1258,126.49 L20.3508,125.676 L19.5773,124.865 L18.8287,124.017 L18.0801,123.169 L17.3573,122.284 L16.6304,121.395 L15.7107,120.208 L14.8255,119.021 L13.975,117.834 L13.1568,116.648 L12.3742,115.465 L11.6255,114.282 L10.908,113.101 L10.2252,111.924 L9.5754,110.747 L8.9558,109.572 L8.3695,108.401 L7.8152,107.231 L7.2902,106.064 L6.7978,104.901 L6.3365,103.739 L5.9036,102.579 L5.5023,101.424 L5.1311,100.271 L4.7875,99.121 L4.4743,97.976 L4.1904,96.832 L3.9331,95.692 L3.7053,94.557 L3.5059,93.424 L3.3322,92.294 L3.1869,91.17 L3.0692,90.049 L2.9764,88.931 L2.911,87.819 L2.8723,86.709 L2.8577,85.603 L2.8694,84.504 L2.9072,83.407 L2.9683,82.315 L3.0547,81.229 L3.1664,80.146 L3.3007,79.067 L3.4594,77.995 L3.6426,76.927 L3.8476,75.864 L4.0761,74.807 L4.3266,73.761 L4.6128,72.708 L4.8959,71.663 L5.2249,70.632 L5.5534,69.599 L5.9265,68.579 L6.3002,67.556 L6.7134,66.545 L7.1252,65.535 L7.5793,64.54 L8.0331,63.543 L8.5279,62.561 L9.0238,61.576 L9.556,60.605 L10.0869,59.635 L10.6566,58.68 L11.2263,57.725 L11.8336,56.786 L12.4421,55.844 L13.0838,54.917 L13.7241,53.991 L14.3998,53.082 L15.0756,52.173 L15.7854,51.281 L16.4966,50.387 L17.2378,49.51 L17.9776,48.634 L18.7494,47.776 L19.5212,46.918 L20.3234,46.079 L21.1271,45.238 L21.9575,44.415 L22.7867,43.593 L23.6441,42.791 L24.5016,41.989 L25.3862,41.208 L26.2721,40.426 L27.1817,39.662 L28.0898,38.9 L29.0227,38.16 L29.9557,37.419 L30.9122,36.701 L31.87,35.981 L32.8481,35.283 L33.8249,34.585 L34.8229,33.911 L35.8208,33.236 L36.8387,32.586 L37.8579,31.935 L38.8942,31.306 L39.929,30.678 L40.9815,30.075 L42.0339,29.472 L43.1026,28.894 L44.1726,28.316 L45.2565,27.762 L46.3388,27.208 L47.4351,26.682 L48.5314,26.155 L49.6403,25.655 L50.7506,25.155 L51.8714,24.68 L52.9906,24.206 L54.1202,23.76 L55.2496,23.314 L56.3881,22.898 L57.528,22.48 L58.6754,22.09 L59.8213,21.702 L60.9739,21.343 L62.1262,20.985 L63.2839,20.657 L64.4431,20.328 L65.6062,20.028 L66.7673,19.728 L67.9315,19.46 L69.0954,19.192 L70.2611,18.956 L71.4282,18.72 L72.596,18.513 L73.7616,18.307 L74.9268,18.134 L76.0915,17.961 L77.2545,17.821 L78.4189,17.682 L79.5807,17.573 L80.7402,17.465 L81.8956,17.394 L83.0505,17.322 L84.2,17.286 L85.3509,17.249 L86.496,17.245 L87.6383,17.241 L88.7728,17.273 L89.9068,17.305 L91.0317,17.373 L92.1582,17.442 L93.2756,17.545 L94.39,17.647 L95.4931,17.787 L96.5954,17.926 L97.6852,18.104 L98.7768,18.282 L99.856,18.495 L100.932,18.707 L101.9932,18.959 L103.0537,19.21 L104.0982,19.5 L105.1517,19.793 L106.1785,20.108 L107.2015,20.445 L108.2165,20.802 L109.2226,21.178 L110.2173,21.574 L111.2031,21.991 L112.1793,22.426 L113.1433,22.881 L114.0976,23.358 L115.0416,23.854 L115.9727,24.37 L116.8932,24.908 L117.8027,25.466 L118.6985,26.044 L119.5831,26.645 L120.4559,27.265 L121.3142,27.906 L122.1605,28.57 L122.9944,29.255 L123.8135,29.96 L124.62,30.688 L125.4134,31.438 L126.1909,32.208 L126.9548,33.003 L127.7049,33.819 L128.4384,34.657 L129.1574,35.52 L129.862,36.405 L130.5492,37.312 L131.2211,38.244 L131.8777,39.199 L132.5163,40.176 L133.1386,41.18 L133.7448,42.206 L134.3323,43.255 L134.9024,44.331 L135.4558,45.431 L135.9896,46.554 L136.505,47.704 L137.003,48.878 L137.4807,50.077 L137.9402,51.306 L138.335,52.416 L138.7307,53.529 L139.1018,54.621 L139.473,55.712 L139.82,56.783 L140.1673,57.855 L140.4928,58.908 L140.818,59.96 L141.1195,60.992 L141.4211,62.023 L141.6993,63.034 L141.9778,64.047 L142.2354,65.041 L142.4926,66.033 L142.727,67.006 L142.9604,67.973 L143.3859,69.884 L143.7702,71.753 L144.1105,73.581 L144.4078,75.371 L144.6665,77.126 L144.8829,78.839 L145.0582,80.515 L145.1965,82.157 L145.2945,83.758 L145.3532,85.322 L145.3766,86.852 L145.3619,88.342 L145.3095,89.797 L145.2236,91.218 L145.102,92.6 L144.9447,93.948 L144.7558,95.262 L144.5329,96.538 L144.276,97.781 L143.9892,98.992 L143.6708,100.166 L143.3199,101.307 L142.9409,102.418 L142.5323,103.492 L142.0928,104.536 L141.6268,105.55 L141.1333,106.529 L140.6102,107.478 L140.062,108.4 L139.488,109.287 L138.8856,110.147 L138.2593,110.98 L137.6089,111.78 L136.931,112.554 L136.2302,113.301 L135.5066,114.018 L134.7565,114.709 L133.9846,115.375 L133.191,116.012 L132.3718,116.623 L131.5317,117.21 L130.6711,117.769 L129.7861,118.303 L128.8811,118.813 L127.9568,119.296 L127.0094,119.755 L126.0431,120.19 L125.0589,120.599 L124.0528,120.983 L123.0292,121.345 L121.9889,121.681 L120.9284,121.993 L119.8517,122.282 L118.7597,122.547 L117.6492,122.788 L116.524,123.006 L115.3851,123.201 L114.2293,123.372 L113.0603,123.522 L111.8791,123.648 L110.6829,123.751 L109.475,123.833 L108.2565,123.892 L107.0321,123.928 L105.7771,123.934 L104.5315,123.941 L103.2669,123.902 L102.0012,123.865 L100.719,123.784 L99.4333,123.702 L98.1346,123.583 L96.8376,123.463 L95.5283,123.303 L94.2182,123.142 L92.8982,122.941 L91.5752,122.74 L90.2452,122.503 L88.9169,122.266 L87.5829,121.991 L86.2483,121.716 L84.9105,121.403 L83.5702,121.09 L82.2289,120.743 L80.8891,120.397 L79.5505,120.015 L78.2113,119.634 L76.8757,119.217 L75.5378,118.801 L74.205,118.353 L72.8737,117.907 L71.5501,117.427 L70.2262,116.948 L68.9124,116.437 L67.5966,115.926 L66.2919,115.386 L64.9888,114.848 L63.7,114.28 L62.4111,113.712 L61.1389,113.115 L59.8649,112.518 L58.608,111.895 L57.3528,111.274 L56.1185,110.626 L54.8842,109.978 L53.6732,109.305 L52.4606,108.631 L51.271,107.934 L50.0833,107.239 L48.923,106.52 L47.763,105.802 L46.6329,105.061 L45.5011,104.32 L44.3984,103.558 L43.2978,102.799 L42.2312,102.019 L41.165,101.24 L40.1351,100.441 L39.099,99.638 L38.0994,98.831 L37.1161,98.012 L36.1523,97.184 L35.2077,96.348 L34.2858,95.506 L33.3851,94.656 L32.505,93.799 L31.6493,92.937 L30.8164,92.067 L30.0056,91.192 L29.2208,90.312 L28.4603,89.425 L27.7235,88.533 L27.0142,87.638 L26.3309,86.737 L25.6725,85.833 L25.0433,84.926 L24.4414,84.013 L23.8659,83.098 L23.3209,82.182 L22.8048,81.261 L22.3162,80.339 L21.8595,79.416 L21.4331,78.49 L21.0354,77.562 L20.6707,76.636 L20.3376,75.707 L20.0344,74.777 L19.7651,73.849 L19.5287,72.919 L19.3231,71.989 L19.1524,71.062 L19.0159,70.133 L18.9112,69.204 L18.8422,68.279 L18.8089,67.351 L18.8083,66.424 L18.8444,65.5 L18.9178,64.575 L19.0253,63.649 L19.1705,62.728 L19.355,61.803 L19.5752,60.879 L19.8345,59.959 L20.1354,59.035 L20.4738,58.112 L20.853,57.192 L21.2764,56.269 L21.7393,55.347 L22.2451,54.428 L22.7976,53.507 L23.3918,52.586 L24.031,51.669 L24.7193,50.751 L25.4515,49.834 L26.2308,48.921 L27.0615,48.008 L27.9381,47.097 L28.8639,46.19 L29.8432,45.285 L30.8702,44.383 L31.9484,43.486 L33.082,42.592 L34.265,41.701 L35.5012,40.817 L36.8105,39.926 C37.6662,39.343 37.887,38.176 37.3038,37.321 C36.7205,36.465 35.554,36.244 34.6984,36.827 Z" id="Fill-84"></path>
            <path d="M78.9879,18.825 C68.7815,13.874 57.6748,19.95 48.3708,25.589 C-40.4474,79.422 74.8831,180.685 143.0575,134.452 C205.0773,92.392 114.4143,-12.292 59.5852,22.128" id="Fill-89"></path>
            <path d="M79.776,17.123 L79.1033,16.813 L78.3937,16.519 L77.6842,16.257 L76.9723,16.023 L76.2553,15.817 L75.5398,15.641 L74.8234,15.492 L74.1032,15.37 L73.3859,15.275 L72.669,15.204 L71.9496,15.159 L71.2063,15.138 L69.8078,15.162 L68.3828,15.276 L66.9716,15.471 L65.5703,15.735 L64.1761,16.071 L62.7979,16.468 L61.4318,16.918 L60.0763,17.421 L58.7376,17.969 L57.4128,18.553 L56.1015,19.174 L54.8083,19.823 L53.531,20.494 L52.2704,21.185 L51.0299,21.89 L49.8078,22.601 L48.606,23.317 L47.4222,24.034 L46.0328,24.892 L44.6721,25.762 L43.3461,26.639 L42.0506,27.524 L40.7872,28.417 L39.5578,29.318 L38.3584,30.225 L37.1905,31.141 L36.0563,32.063 L34.9516,32.992 L33.8777,33.929 L32.8369,34.871 L31.8249,35.82 L30.8432,36.776 L29.894,37.738 L28.9736,38.705 L28.0831,39.68 L27.2243,40.659 L26.3934,41.644 L25.5919,42.635 L24.8216,43.63 L24.0786,44.63 L23.3645,45.636 L22.6811,46.646 L22.0245,47.66 L21.3963,48.679 L20.7982,49.702 L20.2264,50.727 L19.6826,51.759 L19.1682,52.792 L18.6797,53.828 L18.2186,54.869 L17.7864,55.911 L17.3794,56.956 L16.9996,58.005 L16.6477,59.054 L16.3208,60.106 L16.0203,61.161 L15.7477,62.215 L15.4996,63.272 L15.2777,64.331 L15.0823,65.389 L14.9106,66.448 L14.7643,67.509 L14.6439,68.569 L14.5465,69.628 L14.474,70.689 L14.4269,71.748 L14.4022,72.807 L14.4022,73.866 L14.4261,74.922 L14.4718,75.978 L14.5411,77.033 L14.6344,78.093 L14.7572,79.133 L14.8817,80.184 L15.0513,81.231 L15.2215,82.277 L15.4353,83.319 L15.6491,84.356 L15.9017,85.39 L16.1554,86.425 L16.4509,87.454 L16.7469,88.483 L17.0838,89.505 L17.4219,90.522 L17.7964,91.534 L18.1719,92.547 L18.5865,93.552 L19.0013,94.556 L19.4541,95.551 L19.906,96.543 L20.3917,97.527 L20.8793,98.512 L21.404,99.486 L21.9287,100.46 L22.4886,101.423 L23.0474,102.383 L23.6375,103.333 L24.2287,104.284 L24.8533,105.223 L25.4773,106.162 L26.1304,107.09 L26.7824,108.017 L27.4631,108.931 L28.1451,109.847 L28.8579,110.748 L29.5707,111.649 L30.3134,112.536 L31.0547,113.421 L31.8198,114.295 L32.5862,115.169 L33.3808,116.028 L34.1755,116.886 L34.9974,117.728 L35.8182,118.568 L36.6629,119.393 L37.509,120.219 L38.3806,121.027 L39.2523,121.835 L40.1486,122.625 L41.0437,123.413 L41.9604,124.183 L42.8785,124.955 L43.8194,125.707 L44.7606,126.458 L45.7238,127.189 L46.6858,127.919 L47.667,128.629 L48.6496,129.341 L49.6525,130.03 L50.6555,130.719 L51.6778,131.386 L52.6992,132.052 L53.7374,132.696 L54.777,133.341 L55.8343,133.962 L56.8918,134.583 L57.9659,135.179 L59.0388,135.775 L60.126,136.347 L61.2149,136.92 L62.3188,137.467 L63.4228,138.014 L64.5409,138.535 L65.6577,139.055 L66.7865,139.549 L67.917,140.045 L69.0602,140.511 L70.2037,140.978 L71.3585,141.415 L72.512,141.852 L73.6751,142.263 L74.8399,142.673 L76.0144,143.054 L77.1892,143.435 L78.3727,143.785 L79.5549,144.134 L80.7442,144.455 L81.9353,144.776 L83.1336,145.065 L84.332,145.353 L85.5367,145.609 L86.7399,145.865 L87.9479,146.089 L89.1579,146.314 L90.3723,146.505 L91.587,146.695 L92.8052,146.851 L94.0218,147.006 L95.2408,147.129 L96.4619,147.251 L97.6847,147.337 L98.9079,147.423 L100.1318,147.472 L101.354,147.521 L102.5762,147.535 L103.8005,147.549 L105.0239,147.525 L106.2475,147.501 L107.4693,147.437 L108.6893,147.374 L109.9068,147.274 L111.1264,147.174 L112.3425,147.034 L113.5588,146.893 L114.7704,146.711 L115.9803,146.529 L117.1852,146.309 L118.3922,146.089 L119.5929,145.826 L120.7938,145.562 L121.9874,145.256 L123.1791,144.95 L124.3633,144.603 L125.5496,144.256 L126.7268,143.865 L127.9042,143.473 L129.0714,143.036 L130.2367,142.599 L131.3921,142.121 L132.5497,141.642 L133.6955,141.116 L134.8413,140.59 L135.9743,140.017 L137.1005,139.447 L138.2279,138.839 L139.3445,138.209 L140.4529,137.555 L141.5545,136.878 L142.6491,136.176 L143.7345,135.451 L144.7095,134.773 L145.6595,134.085 L146.5832,133.386 L147.4845,132.678 L148.3618,131.96 L149.2134,131.232 L150.0423,130.495 L150.8475,129.748 L151.6274,128.992 L152.385,128.227 L153.1192,127.452 L153.8285,126.668 L154.516,125.877 L155.1804,125.076 L155.8204,124.268 L156.4389,123.452 L157.0346,122.627 L157.6064,121.795 L158.1571,120.956 L158.6855,120.109 L159.1904,119.255 L159.6746,118.395 L160.1368,117.527 L160.5814,116.642 L161.3937,114.889 L162.1246,113.098 L162.7681,111.287 L163.3349,109.457 L163.819,107.606 L164.2201,105.74 L164.5475,103.859 L164.7956,101.961 L164.9657,100.053 L165.0661,98.135 L165.0912,96.205 L165.0426,94.269 L164.9282,92.326 L164.7426,90.376 L164.4879,88.424 L164.1712,86.47 L163.7877,84.513 L163.3368,82.558 L162.822,80.607 L162.246,78.663 L161.9253,77.685 L161.6066,76.715 L161.2609,75.746 L160.9147,74.777 L160.5381,73.812 L160.1604,72.847 L159.7544,71.887 L159.349,70.928 L158.9184,69.974 L158.4874,69.019 L158.0294,68.069 L157.5714,67.12 L157.0872,66.177 L156.6051,65.235 L156.1003,64.298 L155.5949,63.361 L155.0646,62.431 L154.5342,61.502 L153.9797,60.581 L153.4257,59.661 L152.8502,58.749 L152.2744,57.836 L151.6765,56.932 L151.0787,56.028 L150.4585,55.135 L149.839,54.243 L149.1997,53.36 L148.56,52.478 L147.8992,51.606 L147.2385,50.735 L146.5581,49.876 L145.8784,49.017 L145.1809,48.17 L144.4828,47.323 L143.7657,46.489 L143.0485,45.656 L142.3131,44.837 L141.5783,44.019 L140.8276,43.214 L140.0766,42.408 L139.3085,41.618 L138.5403,40.829 L137.7559,40.056 L136.972,39.283 L136.1739,38.526 L135.3751,37.769 L134.5613,37.029 L133.7478,36.289 L132.9199,35.568 L132.0926,34.847 L131.2528,34.144 L130.4123,33.441 L129.5587,32.757 L128.705,32.074 L127.8389,31.411 L126.9735,30.748 L126.0973,30.106 L125.2203,29.462 L124.3323,28.841 L123.4441,28.22 L122.5455,27.622 L121.6475,27.024 L120.7406,26.448 L119.8329,25.871 L118.916,25.318 L117.9989,24.765 L117.0734,24.238 L116.1486,23.711 L115.2167,23.207 L114.2838,22.703 L113.3437,22.225 L112.4034,21.747 L111.4568,21.296 L110.511,20.845 L109.5599,20.419 L108.6076,19.993 L107.6502,19.596 L106.6925,19.198 L105.7302,18.83 L104.7688,18.462 L103.8038,18.121 L102.8376,17.78 L101.8682,17.47 L100.8945,17.158 L98.9548,16.602 L97.007,16.103 L95.055,15.669 L93.1024,15.303 L91.1494,14.999 L89.1959,14.766 L87.246,14.604 L85.2993,14.509 L83.3561,14.489 L81.4207,14.545 L79.4922,14.671 L77.5714,14.877 L75.6627,15.164 L73.7649,15.525 L71.879,15.97 L70.0097,16.5 L68.1553,17.109 L66.3172,17.806 L64.5002,18.591 L62.7021,19.459 L60.9301,20.416 L60.0482,20.946 L59.1868,21.464 C58.8197,21.684 58.7004,22.16 58.9205,22.527 C59.1405,22.894 59.6165,23.013 59.9836,22.793 L60.8464,22.278 L61.6886,21.774 L63.4106,20.849 L65.1492,20.015 L66.9053,19.261 L68.6781,18.594 L70.4694,18.011 L72.2752,17.504 L74.0941,17.079 L75.9281,16.734 L77.7733,16.462 L79.6282,16.268 L81.4946,16.15 L83.3689,16.1 L85.2494,16.124 L87.1375,16.221 L89.0302,16.383 L90.9253,16.614 L92.8241,16.914 L94.724,17.275 L96.6224,17.702 L98.5205,18.193 L100.42,18.743 L101.3609,19.047 L102.3062,19.352 L103.2484,19.688 L104.1918,20.024 L105.1318,20.387 L106.0711,20.749 L107.0061,21.141 L107.9412,21.532 L108.8714,21.952 L109.8027,22.372 L110.7287,22.817 L111.654,23.261 L112.5728,23.733 L113.4918,24.205 L114.4037,24.703 L115.3166,25.202 L116.2226,25.723 L117.1279,26.244 L118.0248,26.79 L118.9219,27.336 L119.8099,27.905 L120.6989,28.475 L121.5791,29.067 L122.4586,29.658 L123.3278,30.271 L124.1972,30.884 L125.0555,31.52 L125.9147,32.155 L126.7632,32.81 L127.6111,33.465 L128.4468,34.14 L129.2825,34.815 L130.1052,35.509 L130.9287,36.205 L131.7398,36.917 L132.5502,37.629 L133.3464,38.359 L134.1424,39.09 L134.9233,39.838 L135.7049,40.587 L136.4722,41.351 L137.2391,42.115 L137.9896,42.895 L138.7402,43.674 L139.4737,44.469 L140.2077,45.265 L140.9254,46.075 L141.6426,46.884 L142.3415,47.707 L143.0404,48.53 L143.7204,49.366 L144.401,50.203 L145.0637,51.051 L145.7257,51.899 L146.3669,52.759 L147.0081,53.618 L147.6284,54.489 L148.2492,55.361 L148.8504,56.242 L149.451,57.122 L150.0295,58.012 L150.6079,58.902 L151.1625,59.801 L151.7175,60.701 L152.2511,61.609 L152.7842,62.516 L153.293,63.43 L153.8019,64.344 L154.2859,65.264 L154.7704,66.186 L155.2312,67.113 L155.69,68.04 L156.1225,68.972 L156.5551,69.904 L156.9609,70.84 L157.3671,71.777 L157.7484,72.718 L158.1292,73.657 L158.4819,74.6 L158.8358,75.541 L159.1623,76.484 L159.4893,77.429 L159.7896,78.375 L160.0879,79.314 L160.6296,81.21 L161.1089,83.102 L161.5377,84.991 L161.9055,86.875 L162.2089,88.757 L162.4525,90.634 L162.6289,92.503 L162.7373,94.365 L162.7826,96.218 L162.7574,98.059 L162.6603,99.89 L162.4969,101.708 L162.2593,103.509 L161.946,105.296 L161.5632,107.068 L161.1032,108.818 L160.5631,110.551 L159.9493,112.265 L159.2548,113.954 L158.4709,115.633 L158.0584,116.448 L157.6199,117.266 L157.1593,118.079 L156.6791,118.887 L156.1778,119.686 L155.6538,120.48 L155.1097,121.267 L154.5439,122.046 L153.9548,122.819 L153.3451,123.585 L152.7133,124.342 L152.0575,125.093 L151.3805,125.837 L150.6809,126.571 L149.9567,127.298 L149.2107,128.018 L148.4416,128.728 L147.6473,129.43 L146.8307,130.125 L145.9904,130.809 L145.1239,131.484 L144.2344,132.15 L143.3205,132.806 L142.3806,133.453 L141.3283,134.149 L140.27,134.821 L139.2036,135.469 L138.1309,136.095 L137.0523,136.696 L135.9709,137.273 L134.8705,137.822 L133.7768,138.369 L132.6713,138.869 L131.5657,139.37 L130.4491,139.824 L129.3304,140.28 L128.2024,140.695 L127.0763,141.109 L125.9409,141.479 L124.8053,141.849 L123.6614,142.176 L122.5152,142.503 L121.3622,142.792 L120.2111,143.08 L119.0531,143.326 L117.895,143.573 L116.7309,143.777 L115.5647,143.983 L114.3938,144.151 L113.2248,144.32 L112.0515,144.448 L110.8779,144.576 L109.701,144.665 L108.5219,144.755 L107.3405,144.809 L106.1609,144.863 L104.9795,144.879 L103.7979,144.895 L102.6154,144.874 L101.4309,144.853 L100.2464,144.798 L99.0636,144.744 L97.8816,144.653 L96.6994,144.563 L95.5189,144.437 L94.3364,144.311 L93.1563,144.155 L91.9777,143.998 L90.8026,143.808 L89.6271,143.617 L88.4562,143.393 L87.2832,143.169 L86.1151,142.915 L84.9483,142.662 L83.7875,142.377 L82.6266,142.092 L81.4726,141.775 L80.3168,141.458 L79.1682,141.113 L78.021,140.769 L76.8825,140.395 L75.7438,140.02 L74.6147,139.617 L73.4839,139.212 L72.3627,138.782 L71.2428,138.352 L70.1342,137.894 L69.0255,137.437 L67.9286,136.953 L66.8301,136.468 L65.7435,135.959 L64.6582,135.451 L63.5869,134.916 L62.5154,134.382 L61.4588,133.823 L60.4007,133.262 L59.3569,132.68 L58.3143,132.098 L57.2883,131.492 L56.2622,130.887 L55.2536,130.258 L54.2437,129.628 L53.2504,128.978 L52.258,128.329 L51.2849,127.658 L50.3117,126.988 L49.3586,126.296 L48.4042,125.603 L47.4689,124.892 L46.5348,124.181 L45.6225,123.451 L44.71,122.721 L43.8203,121.972 L42.9293,121.222 L42.0598,120.456 L41.1915,119.69 L40.3476,118.907 L39.5038,118.124 L38.6853,117.323 L37.8657,116.522 L37.0698,115.706 L36.2752,114.891 L35.5077,114.061 L34.7401,113.23 L34.0006,112.385 L33.2599,111.539 L32.548,110.677 L31.8375,109.817 L31.1568,108.943 L30.476,108.07 L29.826,107.184 L29.1748,106.297 L28.5523,105.399 L27.931,104.503 L27.3454,103.593 L26.7605,102.683 L26.209,101.763 L25.6563,100.841 L25.1347,99.911 L24.6143,98.983 L24.1287,98.046 L23.6432,97.11 L23.1926,96.165 L22.7402,95.22 L22.3211,94.267 L21.9029,93.317 L21.5222,92.361 L21.1412,91.405 L20.7986,90.442 L20.4549,89.478 L20.1467,88.509 L19.8374,87.543 L19.5678,86.573 L19.2978,85.603 L19.0686,84.629 L18.8383,83.652 L18.6458,82.672 L18.4535,81.696 L18.3035,80.717 L18.1529,79.738 L18.0451,78.757 L17.9356,77.766 L17.8576,76.791 L17.8008,75.809 L17.766,74.825 L17.7514,73.841 L17.7593,72.858 L17.7898,71.874 L17.8409,70.891 L17.9145,69.909 L18.0115,68.926 L18.1298,67.943 L18.2715,66.963 L18.4373,65.982 L18.625,65.002 L18.8366,64.024 L19.0732,63.046 L19.3318,62.069 L19.6145,61.095 L19.9229,60.121 L20.2543,59.148 L20.6109,58.179 L20.9941,57.21 L21.401,56.243 L21.8336,55.279 L22.2936,54.316 L22.7781,53.355 L23.2889,52.398 L23.828,51.442 L24.3923,50.489 L24.9836,49.54 L25.6041,48.592 L26.2504,47.648 L26.9245,46.708 L27.6286,45.77 L28.3593,44.836 L29.1185,43.907 L29.9085,42.98 L30.7258,42.057 L31.5723,41.14 L32.4505,40.226 L33.3562,39.316 L34.2918,38.412 L35.2598,37.511 L36.2566,36.615 L37.2841,35.726 L38.3447,34.841 L39.4347,33.962 L40.556,33.088 L41.7111,32.22 L42.8963,31.358 L44.1137,30.503 L45.3658,29.654 L46.6485,28.811 L47.9642,27.976 L49.3193,27.145 L50.4788,26.449 L51.6567,25.752 L52.8481,25.063 L54.0497,24.386 L55.2603,23.728 L56.4808,23.091 L57.7074,22.48 L58.9378,21.903 L60.1739,21.362 L61.4116,20.86 L62.6471,20.406 L63.884,20.004 L65.1176,19.652 L66.3426,19.361 L67.5653,19.134 L68.7802,18.97 L69.9814,18.878 L71.2067,18.862 L71.7738,18.881 L72.3633,18.92 L72.9533,18.98 L73.5411,19.06 L74.1237,19.16 L74.7073,19.284 L75.289,19.429 L75.8659,19.596 L76.4444,19.789 L77.0216,20.004 L77.5945,20.244 L78.1997,20.526 C79.1393,20.961 80.2539,20.553 80.6892,19.613 C81.1245,18.673 80.7156,17.559 79.776,17.123 Z" id="Fill-90"></path>
        </g>
    </g>
</svg>
