<?xml version="1.0" encoding="UTF-8"?>
<svg width="202px" height="130px" viewBox="0 0 202 130" version="1.1" xmlns="http://www.w3.org/2000/svg" xmlns:xlink="http://www.w3.org/1999/xlink">
    <title>46</title>
    <g id="Page-1" stroke="none" stroke-width="1" fill="none" fill-rule="evenodd">
        <g id="46" transform="translate(0.735500, 0.847000)" fill="currentColor">
            <path d="M103.4518,24.518 L103.4998,23.699 L103.4539,22.799 L103.305,21.936 L103.0602,21.104 L102.7112,20.307 L102.2735,19.572 L101.7581,18.892 L101.1613,18.264 L100.504,17.702 L99.7922,17.194 L99.0192,16.734 L98.2001,16.328 L97.3366,15.964 L96.4206,15.642 L95.4627,15.363 L94.4641,15.119 L93.4175,14.911 L92.3313,14.74 L91.2072,14.601 L90.0394,14.496 L88.8347,14.425 L87.5954,14.383 L86.3168,14.373 L85.005,14.396 L83.6624,14.447 L82.2854,14.529 L80.8794,14.642 L79.4468,14.783 L77.9849,14.954 L76.4986,15.154 L74.9903,15.382 L73.4578,15.64 L71.9058,15.926 L70.3364,16.24 L68.7482,16.582 L67.1456,16.952 L65.5303,17.349 L63.9015,17.774 L62.2636,18.227 L60.6177,18.705 L58.9637,19.211 L57.3059,19.745 L55.645,20.303 L53.9813,20.889 L52.3191,21.501 L50.6588,22.138 L49.001,22.802 L47.3502,23.491 L45.7061,24.205 L44.0699,24.946 L42.446,25.712 L40.8338,26.501 L39.2349,27.317 L37.6538,28.158 L36.0892,29.022 L34.5433,29.912 L33.0206,30.827 L31.5195,31.764 L30.0423,32.727 L28.594,33.715 L27.1721,34.724 L25.7796,35.76 L24.4215,36.819 L23.0948,37.901 L21.803,39.008 L20.5512,40.139 L19.3361,41.292 L18.1613,42.471 L17.0324,43.673 L15.9453,44.897 L14.9044,46.148 L13.9154,47.421 L12.9737,48.716 L12.0843,50.038 L11.253,51.382 L10.4749,52.748 L9.7557,54.141 L9.101,55.555 L8.5056,56.99 L7.9761,58.452 L7.5176,59.933 L7.1247,61.435 L6.8049,62.962 L6.5623,64.506 L6.3913,66.069 L6.3004,67.655 L6.2922,69.256 L6.3609,70.873 L6.5159,72.511 L6.7584,74.16 L7.0822,75.824 L7.4977,77.505 L8.0045,79.197 L8.5967,80.901 L9.2853,82.621 L10.062,84.335 L10.4928,85.21 L10.9414,86.061 L11.4125,86.899 L11.9046,87.727 L12.4206,88.545 L12.9577,89.351 L13.5149,90.146 L14.0949,90.932 L14.695,91.705 L15.3142,92.467 L15.9552,93.22 L16.6276,93.974 L17.9897,95.411 L19.4441,96.819 L20.9627,98.175 L21.766,98.842 L22.5631,99.504 L23.3959,100.144 L24.2281,100.784 L25.0945,101.403 L25.9582,102.019 L26.8521,102.617 L27.7477,103.216 L28.6755,103.793 L29.6027,104.37 L30.5608,104.927 L31.5163,105.481 L32.4991,106.017 L33.4834,106.553 L34.4966,107.069 L35.5092,107.584 L36.5495,108.078 L37.5873,108.572 L38.6494,109.046 L39.7128,109.521 L40.8019,109.976 L41.8904,110.43 L43.0033,110.864 L44.114,111.297 L45.246,111.711 L46.3793,112.126 L47.5349,112.52 L48.69,112.914 L49.8663,113.287 L51.0406,113.66 L52.2332,114.015 L53.4271,114.369 L54.64,114.703 L55.8525,115.037 L57.0829,115.351 L58.3116,115.664 L59.5556,115.959 L60.8008,116.254 L62.0617,116.528 L63.3224,116.803 L64.5978,117.057 L65.8715,117.311 L67.1576,117.546 L68.4449,117.781 L69.7447,117.996 L71.0443,118.211 L72.3553,118.406 L73.6648,118.6 L74.9838,118.776 L76.3039,118.952 L77.6332,119.107 L78.9625,119.263 L80.2999,119.398 L81.6359,119.533 L82.9784,119.649 L84.322,119.766 L85.6717,119.862 L87.0213,119.958 L88.3758,120.034 L89.729,120.109 L91.0857,120.166 L92.4436,120.223 L93.8043,120.26 L95.1649,120.297 L96.5272,120.313 L97.8883,120.329 L99.2499,120.327 L100.6127,120.324 L101.9751,120.301 L103.3375,120.278 L104.6982,120.235 L106.0578,120.192 L107.415,120.13 L108.7735,120.068 L110.1282,119.985 L111.483,119.903 L112.833,119.8 L114.1818,119.697 L115.5252,119.575 L116.8699,119.452 L118.2077,119.31 L119.5456,119.167 L120.8753,119.004 L122.204,118.841 L123.5243,118.659 L124.846,118.477 L126.1574,118.274 L127.4691,118.071 L128.7694,117.848 L130.0686,117.625 L131.3564,117.383 L132.6458,117.14 L133.9218,116.878 L135.1979,116.615 L136.4595,116.331 L137.7199,116.047 L138.966,115.745 L140.2138,115.442 L141.4449,115.119 L142.6762,114.795 L143.8897,114.451 L145.1019,114.106 L146.2969,113.743 L147.4937,113.379 L148.6706,112.995 L149.8479,112.61 L151.004,112.204 L152.1588,111.799 L153.2935,111.374 L154.4301,110.949 L155.5436,110.503 L156.6574,110.057 L157.7469,109.589 L158.8351,109.122 L159.9001,108.636 L160.9672,108.149 L162.0079,107.641 L163.049,107.132 L164.0625,106.603 L165.0746,106.073 L166.0605,105.525 L167.0488,104.975 L168.0073,104.404 L168.9662,103.832 L169.8942,103.239 L170.8205,102.646 L171.7177,102.035 L172.6174,101.421 L173.484,100.786 L174.351,100.15 L175.1838,99.492 L176.0147,98.836 L176.8135,98.16 L177.6147,97.481 L178.3794,96.78 L179.1525,96.071 L180.5971,94.634 L181.9793,93.148 L183.2839,91.614 L184.5038,90.037 L185.6462,88.419 L186.7029,86.751 L187.6579,85.059 L188.1175,84.171 L188.5448,83.288 L188.9471,82.395 L189.3273,81.491 L189.6836,80.575 L190.0142,79.65 L190.3218,78.714 L190.6043,77.766 L190.8604,76.809 L191.0926,75.842 L191.2987,74.863 L191.4777,73.875 L191.6319,72.878 L191.7591,71.868 L191.8584,70.85 L191.9324,69.823 L191.9783,68.783 L191.9958,67.736 L191.9872,66.679 L191.9497,65.611 L191.8832,64.535 L191.79,63.45 L191.6671,62.353 L191.5143,61.246 L191.3095,59.992 L191.0697,58.751 L190.7964,57.529 L190.4926,56.323 L190.1549,55.133 L189.7847,53.963 L189.3852,52.809 L188.9531,51.671 L188.4905,50.553 L187.9997,49.451 L187.4776,48.365 L186.9263,47.299 L186.3482,46.249 L185.74,45.216 L185.1043,44.202 L184.4429,43.205 L183.7528,42.224 L183.0365,41.262 L182.296,40.317 L181.528,39.388 L180.7354,38.478 L179.9197,37.584 L179.078,36.707 L178.213,35.848 L177.3262,35.005 L176.4146,34.179 L175.4812,33.371 L174.5271,32.578 L173.5504,31.801 L172.5533,31.041 L171.5368,30.297 L170.4981,29.568 L169.4399,28.857 L168.3633,28.162 L167.2659,27.482 L166.1502,26.819 L165.0172,26.171 L163.8646,25.539 L162.6949,24.923 L161.509,24.322 L160.3048,23.737 L159.0798,23.166 L157.8426,22.621 L156.5992,22.073 L155.3236,21.557 L154.0486,21.04 L152.743,20.555 L151.4396,20.07 L150.1099,19.613 L148.7791,19.156 L147.421,18.727 L146.0635,18.299 L144.68,17.9 L143.2985,17.503 L141.8948,17.132 L140.49,16.761 L139.0623,16.419 L137.635,16.078 L136.1866,15.765 L134.7398,15.453 L133.2752,15.167 L131.8095,14.881 L130.3255,14.624 L128.8419,14.367 L127.3418,14.138 L125.8432,13.91 L124.331,13.707 L122.8178,13.504 L121.291,13.328 L119.7645,13.153 L118.2261,13.006 L116.6892,12.859 L115.1429,12.736 L113.5955,12.614 L112.0393,12.519 L110.4833,12.424 L108.9201,12.356 L107.3583,12.288 L105.7912,12.244 L104.2232,12.2 L102.6509,12.183 L101.0789,12.166 L99.5043,12.175 L97.931,12.185 L96.3567,12.218 L94.7814,12.25 L93.2066,12.309 L91.632,12.368 L90.0595,12.453 L88.4881,12.538 L86.9201,12.645 L85.351,12.753 L83.7872,12.886 L82.2234,13.019 L80.6664,13.177 L79.1105,13.335 L77.5622,13.515 L76.0129,13.696 L74.4734,13.901 L72.9338,14.106 L71.4059,14.335 L69.8789,14.565 L68.3638,14.816 L66.8476,15.067 L65.3459,15.343 L63.8442,15.618 L62.3586,15.918 L60.8741,16.217 L59.4058,16.537 L57.9362,16.858 L56.4858,17.202 L55.0352,17.547 L53.6056,17.914 L52.1769,18.281 L50.7687,18.668 L49.359,19.057 L47.9733,19.467 L46.5873,19.879 L45.2269,20.312 L43.8676,20.745 L42.5328,21.198 L41.1965,21.652 L39.8888,22.128 L38.5808,22.605 L37.303,23.103 L36.0263,23.601 L34.7785,24.118 L33.5289,24.636 L32.3126,25.176 L31.0958,25.716 L29.914,26.278 L28.7333,26.839 L27.5858,27.419 L26.4362,28 L25.3246,28.602 L24.2124,29.205 L23.1399,29.829 L22.0686,30.452 L21.0347,31.094 L19.9986,31.737 L19.0051,32.401 L18.011,33.066 L17.0612,33.751 L16.1179,34.432 L15.1947,35.135 L14.2984,35.846 L13.4269,36.566 L12.577,37.296 L11.7505,38.038 L10.9497,38.789 L10.1718,39.549 L9.4184,40.321 L8.6921,41.103 L7.9899,41.894 L7.3135,42.697 L6.6656,43.509 L6.043,44.33 L5.4477,45.164 L4.8822,46.006 L4.3434,46.858 L3.8334,47.722 L3.3547,48.595 L2.9041,49.477 L2.4838,50.371 L2.0964,51.273 L1.7384,52.184 L1.4125,53.106 L1.1208,54.037 L0.86,54.976 L0.633,55.926 L0.4414,56.883 L0.2821,57.848 L0.1582,58.825 L0.0709,59.807 L0.017,60.796 L0,61.796 L0.0205,62.801 L0.0754,63.812 L0.1685,64.833 L0.2999,65.858 L0.4665,66.89 L0.6726,67.93 L0.9175,68.975 L1.1985,70.025 L1.5198,71.083 L1.8807,72.145 L2.2784,73.212 L2.7174,74.287 L3.1966,75.366 L3.7133,76.45 L4.2723,77.541 L4.8714,78.634 L5.4456,79.627 L6.0438,80.607 L6.6647,81.572 L7.3069,82.526 L7.9729,83.468 L8.6606,84.397 L9.3686,85.313 L10.0994,86.218 L10.851,87.109 L11.622,87.988 L12.4149,88.856 L13.2275,89.709 L14.0585,90.551 L14.9105,91.381 L15.7812,92.197 L16.6694,93.001 L17.5776,93.794 L18.5078,94.576 L19.4537,95.334 L20.4053,96.095 L21.3929,96.832 L22.3801,97.568 L23.4018,98.28 L24.4216,98.989 L25.4717,99.676 L26.5232,100.364 L27.6069,101.026 L28.6903,101.688 L29.8046,102.325 L30.917,102.961 L32.0565,103.574 L33.1972,104.187 L34.3667,104.775 L35.5358,105.363 L36.7322,105.926 L37.9269,106.487 L39.1454,107.027 L40.365,107.566 L41.6096,108.08 L42.854,108.594 L44.122,109.083 L45.3885,109.572 L46.6756,110.037 L47.9637,110.503 L49.2733,110.943 L50.5826,111.384 L51.912,111.799 L53.24,112.214 L54.5853,112.605 L55.9317,112.997 L57.2959,113.364 L58.6599,113.731 L60.0405,114.072 L61.4198,114.413 L62.8131,114.732 L64.2075,115.05 L65.6161,115.343 L67.0246,115.636 L68.4462,115.903 L69.8665,116.17 L71.2976,116.415 L72.7296,116.659 L74.1725,116.878 L75.6153,117.097 L77.0675,117.29 L78.5185,117.484 L79.9772,117.654 L81.4368,117.824 L82.9037,117.969 L84.3704,118.114 L85.8431,118.233 L87.3146,118.352 L88.7906,118.448 L90.2675,118.543 L91.7481,118.614 L93.2286,118.684 L94.7115,118.729 L96.1933,118.773 L97.6762,118.794 L99.1602,118.815 L100.6442,118.811 L102.1283,118.806 L103.6111,118.776 L105.093,118.746 L106.5727,118.692 L108.0534,118.638 L109.5307,118.559 L111.008,118.479 L112.4806,118.373 L113.9521,118.268 L115.4183,118.139 L116.8856,118.01 L118.3459,117.854 L119.8062,117.699 L121.2582,117.518 L122.7093,117.337 L124.1517,117.132 L125.5953,116.927 L127.0283,116.696 L128.4614,116.465 L129.8827,116.208 L131.3029,115.951 L132.7113,115.67 L134.1209,115.389 L135.5164,115.081 L136.9121,114.774 L138.2923,114.44 L139.6715,114.107 L141.0356,113.749 L142.401,113.391 L143.7487,113.007 L145.0967,112.623 L146.4257,112.213 L147.7536,111.802 L149.0632,111.368 L150.3742,110.933 L151.664,110.471 L152.954,110.01 L154.2213,109.522 L155.4877,109.034 L156.7324,108.522 L157.9787,108.009 L159.2001,107.469 L160.4218,106.929 L161.6173,106.363 L162.8117,105.797 L163.9813,105.206 L165.1524,104.615 L166.2952,103.996 L167.4382,103.378 L168.5514,102.732 L169.6635,102.087 L170.7474,101.417 L171.8331,100.746 L172.8867,100.049 L173.9405,99.35 L174.961,98.625 L175.9802,97.9 L176.9679,97.15 L177.9574,96.399 L178.9111,95.621 L179.8651,94.842 L180.782,94.036 L181.6975,93.23 L182.5783,92.4 L183.4606,91.568 L184.3036,90.708 L185.1467,89.848 L185.949,88.96 L186.746,88.077 L187.5229,87.167 L188.2754,86.245 L189.0056,85.311 L189.7158,84.363 L190.4047,83.401 L191.0703,82.426 L191.7151,81.437 L192.3373,80.434 L192.9352,79.418 L193.5113,78.389 L194.0638,77.344 L194.5912,76.287 L195.0958,75.217 L195.5758,74.132 L196.0297,73.033 L196.46,71.923 L196.8646,70.797 L197.2422,69.658 L197.5954,68.507 L197.9218,67.341 L198.2204,66.162 L198.4937,64.97 L198.7393,63.764 L198.9562,62.545 L199.147,61.314 L199.309,60.067 L199.4416,58.809 L199.5473,57.538 L199.6234,56.252 L199.6692,54.955 L199.6873,53.644 L199.6748,52.319 L199.6314,50.982 L199.5595,49.633 L199.4561,48.269 L199.321,46.893 L199.1568,45.505 L198.9601,44.102 L198.7309,42.687 L198.4719,41.26 L198.1795,39.819 L197.8538,38.364 L197.5875,37.294 L197.2883,36.237 L196.9579,35.198 L196.599,34.175 L196.2085,33.166 L195.7882,32.175 L195.3404,31.199 L194.8622,30.238 L194.3555,29.296 L193.8226,28.368 L193.2604,27.456 L192.6712,26.562 L192.0569,25.682 L191.4147,24.818 L190.7468,23.972 L190.055,23.141 L189.3365,22.325 L188.5937,21.527 L187.8282,20.743 L187.0373,19.975 L186.2232,19.224 L185.3878,18.488 L184.528,17.767 L183.6464,17.063 L182.7445,16.373 L181.8195,15.699 L180.8739,15.04 L179.9089,14.397 L178.9222,13.768 L177.9159,13.155 L176.8913,12.556 L175.8461,11.972 L174.7824,11.404 L173.7016,10.85 L172.6013,10.31 L171.4796,9.784 L170.3424,9.281 L169.1999,8.777 L168.0226,8.302 L166.8458,7.828 L165.6357,7.382 L164.4275,6.937 L163.1903,6.519 L161.9521,6.1 L160.6834,5.71 L159.4152,5.32 L158.118,4.958 L156.8226,4.597 L155.502,4.261 L154.1806,3.925 L152.8331,3.617 L151.4859,3.31 L150.1142,3.03 L148.7439,2.75 L147.3526,2.495 L145.9604,2.24 L144.5465,2.012 L143.1328,1.785 L141.6989,1.584 L140.2664,1.384 L138.8167,1.207 L137.3662,1.031 L135.8983,0.882 L134.4306,0.733 L132.947,0.609 L131.4646,0.487 L129.9691,0.388 L128.4727,0.288 L126.9633,0.215 L125.454,0.142 L123.9333,0.095 L122.4136,0.048 L120.8846,0.024 L119.355,0 L117.8166,0.002 L116.2783,0.004 L114.7329,0.031 L113.1884,0.057 L111.6387,0.107 L110.0882,0.157 L108.5334,0.231 L106.9786,0.306 L105.421,0.405 L103.8643,0.504 L102.3064,0.626 L100.7477,0.747 L99.1889,0.893 L97.6302,1.039 L96.0731,1.209 L94.5168,1.378 L92.9631,1.57 L91.4087,1.762 L89.859,1.979 L88.3092,2.197 L86.7655,2.438 L85.2225,2.679 L83.6863,2.941 L82.1492,3.204 L80.6209,3.489 L79.0926,3.775 L77.5746,4.083 L76.0574,4.392 L74.5508,4.72 L73.0434,5.05 L71.5491,5.402 L70.0548,5.753 L68.5751,6.128 L67.0962,6.502 L65.6319,6.896 L64.1668,7.29 L62.7194,7.708 L61.2719,8.126 L59.8435,8.565 L58.416,9.005 L57.007,9.464 L55.597,9.923 L54.2089,10.404 L52.8207,10.885 L51.4559,11.387 L50.0919,11.889 L48.7505,12.41 L47.408,12.931 L46.0917,13.474 L44.7753,14.016 L43.4866,14.58 L42.1988,15.143 L40.9375,15.724 L39.6751,16.306 L38.4432,16.909 L37.2109,17.511 L36.0105,18.134 L34.811,18.755 L33.6419,19.395 L32.4716,20.036 L31.3362,20.697 L30.2005,21.358 L29.1013,22.039 L28.003,22.719 L26.9392,23.417 L25.874,24.116 L24.8481,24.835 L23.8219,25.554 L22.8366,26.292 L21.8522,27.03 L20.9064,27.785 L19.959,28.542 L19.0554,29.317 L18.1515,30.093 L17.2929,30.888 L16.4388,31.679 L15.6091,32.49 L14.8056,33.308 L14.0266,34.135 L13.2697,34.97 L12.537,35.816 L11.8301,36.67 L11.1465,37.533 L10.4883,38.407 L9.8571,39.289 L9.2503,40.179 L8.67,41.08 L8.1181,41.989 L7.5917,42.907 L7.0931,43.835 L6.624,44.771 L6.1816,45.716 L5.7684,46.67 L5.3859,47.633 L5.0312,48.603 L4.7071,49.584 L4.4148,50.572 L4.1515,51.568 L3.9202,52.573 L3.7218,53.586 L3.5535,54.606 L3.4185,55.636 L3.3175,56.672 L3.2477,57.715 L3.2123,58.767 L3.2117,59.826 L3.2432,60.891 L3.3104,61.965 L3.4135,63.044 L3.5497,64.13 L3.7227,65.225 L3.9324,66.324 L4.176,67.43 L4.4575,68.543 L4.7766,69.662 L5.1304,70.787 L5.523,71.919 L5.9554,73.059 L6.6051,74.638 L7.3103,76.202 L8.0675,77.745 L8.8715,79.27 L9.7266,80.776 L10.6304,82.261 L11.5782,83.727 L12.574,85.174 L13.6151,86.598 L14.6974,88.004 L15.8247,89.39 L16.9944,90.753 L18.2025,92.097 L19.4525,93.42 L20.7421,94.72 L22.0672,96 L23.4313,97.258 L24.8318,98.494 L26.2653,99.709 L27.7347,100.902 L29.2376,102.072 L30.7708,103.22 L32.3369,104.346 L33.9335,105.449 L35.5576,106.529 L37.2117,107.587 L38.8936,108.62 L40.6003,109.631 L42.3341,110.619 L44.0927,111.581 L45.8715,112.52 L46.7762,112.979 L47.6787,113.437 L48.5924,113.882 L49.5056,114.327 L50.4286,114.761 L51.3521,115.194 L52.286,115.616 L53.2199,116.037 L54.1636,116.445 L55.1067,116.853 L56.0583,117.249 L57.0104,117.646 L57.9715,118.03 L58.9325,118.413 L59.9018,118.784 L60.8706,119.154 L61.8466,119.512 L62.8231,119.871 L63.807,120.216 L64.791,120.561 L65.7818,120.893 L66.772,121.225 L67.7682,121.544 L68.7648,121.864 L69.7674,122.17 L70.7701,122.476 L71.7781,122.768 L72.7856,123.06 L73.7976,123.34 L74.8102,123.619 L75.8273,123.885 L76.8444,124.151 L77.8654,124.403 L78.886,124.655 L79.9097,124.894 L80.934,125.133 L81.9613,125.358 L82.9886,125.583 L84.0185,125.794 L85.0478,126.004 L86.079,126.202 L87.1107,126.4 L88.1441,126.583 L89.1774,126.766 L90.2119,126.935 L91.2458,127.103 L92.2802,127.258 L93.3152,127.413 L94.3503,127.554 L95.3855,127.694 L96.4203,127.82 L97.4545,127.945 L98.488,128.057 L99.5221,128.169 L100.5548,128.266 L101.5876,128.363 L102.6185,128.445 L103.6488,128.526 L104.6771,128.594 L105.706,128.662 L106.7321,128.714 L107.7582,128.766 L108.7811,128.803 L109.8034,128.84 L110.8222,128.863 L111.8417,128.885 L112.857,128.892 L113.8723,128.899 L114.8829,128.891 L115.8949,128.882 L117.9041,128.836 L119.9046,128.757 L121.8922,128.646 L123.8677,128.506 L125.8297,128.333 L127.7759,128.127 L129.7074,127.891 L131.6226,127.621 L133.5189,127.318 L135.398,126.984 L137.2578,126.616 L139.0959,126.214 L140.9141,125.781 L142.7101,125.312 L144.4815,124.809 L146.2304,124.274 L147.9542,123.703 L149.6503,123.097 L151.3213,122.458 L152.9643,121.782 L154.5767,121.07 L156.1611,120.325 L157.7147,119.543 L159.2346,118.724 L160.7238,117.871 L162.1792,116.98 L163.5978,116.051 L164.9829,115.088 L166.3312,114.085 L167.6379,113.046 L168.4159,112.385 L169.1929,111.725 L169.9608,111.021 L170.7282,110.318 L171.4849,109.573 L172.2402,108.83 L172.9848,108.051 L173.7299,107.271 L174.4616,106.453 L175.193,105.636 L175.9097,104.784 L176.6253,103.932 L177.3262,103.05 L178.0277,102.168 L178.7116,101.253 L179.3953,100.339 L180.06,99.395 L180.7239,98.452 L181.3693,97.484 L182.0151,96.515 L182.6392,95.52 L183.2632,94.525 L183.8638,93.506 L184.4639,92.488 L185.0416,91.45 L185.6196,90.411 L186.1717,89.352 L186.7236,88.293 L187.248,87.215 L187.7719,86.139 L188.2695,85.047 L188.7675,83.955 L189.2351,82.847 L189.7028,81.74 L190.1385,80.621 L190.5738,79.502 L190.9789,78.373 L191.3843,77.243 L191.7551,76.105 L192.1259,74.966 L192.4604,73.82 L192.7946,72.675 L193.0946,71.526 L193.3949,70.375 L193.6562,69.221 L193.9174,68.067 L194.1381,66.912 L194.3584,65.757 L194.5407,64.604 L194.723,63.448 L194.862,62.296 L195.0008,61.142 L195.0948,59.994 L195.1883,58.846 L195.2399,57.704 L195.2912,56.561 L195.2949,55.425 L195.2982,54.289 L195.2522,53.164 L195.2062,52.043 L195.1251,50.922 L195.0183,49.81 L194.8852,48.706 L194.7278,47.609 L194.5431,46.518 L194.3312,45.436 L194.0938,44.363 L193.828,43.298 L193.5338,42.244 L193.2131,41.198 L192.8627,40.163 L192.4829,39.14 L192.0755,38.128 L191.6373,37.128 L191.1685,36.141 L190.6712,35.166 L190.1418,34.205 L189.581,33.259 L188.9907,32.326 L188.3671,31.409 L187.7112,30.508 L187.0249,29.623 L186.3042,28.754 L185.5502,27.903 L184.7651,27.069 L183.9446,26.253 L183.0899,25.458 L182.2033,24.68 L181.2802,23.922 L180.3223,23.186 L179.3315,22.468 L178.3035,21.773 L177.2397,21.1 L176.1422,20.448 L175.0065,19.818 L173.8434,19.218 C173.4631,19.021 172.9956,19.17 172.7991,19.551 C172.6027,19.931 172.7517,20.398 173.1319,20.595 L174.2745,21.186 L175.3691,21.793 L176.4274,22.424 L177.4522,23.073 L178.4394,23.742 L179.3915,24.432 L180.3113,25.141 L181.1948,25.867 L182.0444,26.614 L182.8628,27.377 L183.6463,28.157 L184.3971,28.956 L185.1178,29.77 L185.8049,30.6 L186.4604,31.447 L187.0869,32.309 L187.6811,33.185 L188.2448,34.077 L188.7806,34.982 L189.2853,35.901 L189.7604,36.834 L190.2086,37.779 L190.6269,38.736 L191.0166,39.707 L191.3803,40.689 L191.7153,41.681 L192.0226,42.685 L192.3048,43.7 L192.5594,44.723 L192.7872,45.758 L192.9908,46.801 L193.1678,47.852 L193.319,48.912 L193.4469,49.98 L193.5492,51.054 L193.6264,52.132 L193.6704,53.228 L193.7144,54.318 L193.71,55.42 L193.7059,56.522 L193.6548,57.632 L193.6039,58.745 L193.5115,59.864 L193.4195,60.982 L193.2831,62.105 L193.147,63.228 L192.9681,64.355 L192.7891,65.483 L192.5724,66.612 L192.3561,67.741 L192.0998,68.868 L191.8435,69.997 L191.5488,71.122 L191.2538,72.249 L190.925,73.371 L190.5966,74.493 L190.2324,75.608 L189.8683,76.724 L189.4699,77.831 L189.0712,78.939 L188.6426,80.038 L188.2145,81.136 L187.7548,82.221 L187.2951,83.307 L186.8055,84.379 L186.3156,85.452 L185.7997,86.51 L185.2842,87.567 L184.7416,88.606 L184.199,89.645 L183.6307,90.664 L183.0621,91.685 L182.4714,92.685 L181.8813,93.684 L181.2683,94.66 L180.6555,95.635 L180.0213,96.585 L179.3867,97.535 L178.7339,98.461 L178.0819,99.385 L177.4114,100.28 L176.7411,101.175 L176.0538,102.038 L175.366,102.902 L174.6641,103.736 L173.9632,104.569 L173.248,105.366 L172.5333,106.163 L171.8059,106.923 L171.0781,107.684 L170.34,108.409 L169.6033,109.133 L168.8568,109.816 L168.1109,110.499 L167.3568,111.138 L166.6039,111.778 L165.3332,112.786 L164.0262,113.756 L162.6805,114.69 L161.3012,115.592 L159.8867,116.456 L158.4361,117.286 L156.9545,118.083 L155.4406,118.844 L153.8935,119.57 L152.3179,120.263 L150.7128,120.922 L149.0774,121.546 L147.4162,122.138 L145.7283,122.696 L144.0132,123.219 L142.2748,123.711 L140.5127,124.169 L138.7263,124.594 L136.9193,124.987 L135.0914,125.347 L133.2423,125.674 L131.3753,125.97 L129.4904,126.234 L127.5872,126.465 L125.6689,126.666 L123.7355,126.834 L121.7868,126.971 L119.8257,127.078 L117.8525,127.154 L115.865,127.198 L114.8691,127.205 L113.8718,127.213 L112.8697,127.205 L111.8674,127.197 L110.8609,127.173 L109.8538,127.149 L108.8431,127.112 L107.8331,127.074 L106.8196,127.021 L105.8062,126.968 L104.7899,126.899 L103.773,126.831 L102.7539,126.749 L101.7354,126.667 L100.715,126.57 L99.6946,126.473 L98.6729,126.361 L97.6505,126.249 L96.6274,126.123 L95.6047,125.998 L94.5817,125.857 L93.5587,125.717 L92.5357,125.562 L91.5123,125.407 L90.4893,125.239 L89.4669,125.071 L88.4456,124.889 L87.4242,124.706 L86.4044,124.509 L85.3841,124.313 L84.3657,124.103 L83.3478,123.893 L82.3324,123.669 L81.317,123.445 L80.3047,123.208 L79.2918,122.97 L78.2822,122.719 L77.2731,122.469 L76.268,122.204 L75.2629,121.94 L74.2624,121.662 L73.2613,121.384 L72.2648,121.094 L71.2689,120.803 L70.2784,120.5 L69.2879,120.196 L68.3034,119.879 L67.3184,119.561 L66.3393,119.232 L65.3608,118.903 L64.3891,118.56 L63.4175,118.218 L62.4535,117.863 L61.4888,117.507 L60.5314,117.14 L59.5746,116.772 L58.6262,116.392 L57.6778,116.012 L56.7384,115.62 L55.7985,115.227 L54.8671,114.822 L53.9363,114.418 L53.0154,114.001 L52.0945,113.584 L51.1841,113.155 L50.2731,112.726 L49.372,112.285 L48.4715,111.845 L47.5824,111.392 L46.6955,110.941 L44.9385,110.011 L43.2061,109.059 L41.5001,108.085 L39.8203,107.086 L38.1658,106.067 L36.5405,105.025 L34.9444,103.959 L33.3762,102.873 L31.8404,101.765 L30.3367,100.635 L28.8635,99.484 L27.4256,98.313 L26.0225,97.12 L24.6527,95.907 L23.321,94.674 L22.0271,93.42 L20.769,92.147 L19.5519,90.855 L18.3755,89.542 L17.2375,88.211 L16.1433,86.862 L15.0926,85.492 L14.0829,84.105 L13.12,82.701 L12.2034,81.276 L11.3303,79.835 L10.5066,78.377 L9.7318,76.9 L9.003,75.407 L8.3262,73.898 L7.7,72.367 L7.2903,71.279 L6.9175,70.198 L6.5819,69.123 L6.2797,68.055 L6.0145,66.997 L5.7851,65.945 L5.5882,64.901 L5.4268,63.866 L5.3001,62.838 L5.2046,61.817 L5.1434,60.805 L5.1158,59.8 L5.1184,58.802 L5.1542,57.813 L5.2226,56.831 L5.3203,55.855 L5.4496,54.889 L5.6106,53.929 L5.7999,52.976 L6.0197,52.032 L6.2704,51.094 L6.5485,50.163 L6.856,49.241 L7.1935,48.325 L7.5577,47.416 L7.9502,46.515 L8.372,45.621 L8.8194,44.734 L9.2944,43.856 L9.7977,42.984 L10.3258,42.119 L10.8805,41.262 L11.4626,40.413 L12.0687,39.571 L12.7004,38.737 L13.3585,37.911 L14.0398,37.092 L14.7456,36.281 L15.4769,35.478 L16.2305,34.683 L17.0079,33.897 L17.8065,33.122 L18.6439,32.352 L19.477,31.585 L20.3554,30.837 L21.2341,30.087 L22.1566,29.356 L23.0805,28.623 L24.0429,27.907 L25.0044,27.192 L26.0068,26.495 L27.0096,25.797 L28.0518,25.119 L29.0953,24.439 L30.1734,23.776 L31.2506,23.114 L32.3645,22.471 L33.4786,21.827 L34.6278,21.203 L35.7783,20.579 L36.9593,19.972 L38.1395,19.365 L39.3522,18.778 L40.5653,18.192 L41.809,17.626 L43.0539,17.059 L44.3253,16.511 L45.5959,15.963 L46.8944,15.435 L48.1931,14.907 L49.5179,14.4 L50.8439,13.892 L52.1924,13.403 L53.5401,12.915 L54.9113,12.447 L56.2826,11.98 L57.6758,11.533 L59.0698,11.087 L60.4825,10.659 L61.8944,10.232 L63.3254,9.827 L64.7564,9.421 L66.2046,9.036 L67.6537,8.651 L69.1173,8.286 L70.5803,7.921 L72.0579,7.578 L73.5356,7.235 L75.0263,6.914 L76.5179,6.594 L78.0201,6.293 L79.5215,5.993 L81.0332,5.716 L82.545,5.438 L84.0654,5.184 L85.5866,4.929 L87.1144,4.695 L88.6415,4.462 L90.1744,4.252 L91.7073,4.041 L93.2442,3.852 L94.7819,3.663 L96.3222,3.495 L97.8618,3.328 L99.4029,3.184 L100.9439,3.04 L102.4849,2.921 L104.0267,2.801 L105.5671,2.703 L107.1067,2.605 L108.6434,2.532 L110.18,2.459 L111.7122,2.41 L113.2451,2.361 L114.7727,2.335 L116.2994,2.309 L117.8188,2.308 L119.338,2.306 L120.8485,2.33 L122.3596,2.354 L123.8615,2.401 L125.3623,2.448 L126.8515,2.52 L128.3405,2.593 L129.8163,2.691 L131.2928,2.789 L132.756,2.911 L134.2181,3.032 L135.664,3.18 L137.1098,3.327 L138.5379,3.501 L139.9669,3.675 L141.3785,3.873 L142.7888,4.07 L144.1786,4.294 L145.5682,4.518 L146.9357,4.769 L148.304,5.02 L149.651,5.296 L150.9965,5.571 L152.3172,5.874 L153.6375,6.176 L154.9313,6.505 L156.226,6.835 L157.4955,7.189 L158.7632,7.543 L160.0017,7.925 L161.2398,8.306 L162.4469,8.715 L163.6551,9.124 L164.834,9.559 L166.0109,9.992 L167.1542,10.454 L168.297,10.915 L169.4046,11.405 L170.5174,11.897 L171.5963,12.403 L172.6595,12.926 L173.7041,13.462 L174.7309,14.012 L175.7367,14.575 L176.7231,15.152 L177.6906,15.743 L178.6362,16.346 L179.5612,16.965 L180.4665,17.596 L181.3487,18.241 L182.2094,18.9 L183.0494,19.572 L183.8653,20.258 L184.6588,20.958 L185.4307,21.671 L186.1776,22.398 L186.901,23.14 L187.602,23.894 L188.2771,24.662 L188.9279,25.445 L189.5554,26.242 L190.1561,27.051 L190.7316,27.877 L191.283,28.715 L191.8069,29.567 L192.3045,30.435 L192.7774,31.316 L193.2219,32.211 L193.6391,33.123 L194.0308,34.048 L194.3933,34.987 L194.7275,35.943 L195.0353,36.913 L195.313,37.897 L195.5616,38.9 L195.8759,40.309 L196.1575,41.704 L196.407,43.086 L196.6274,44.454 L196.8159,45.807 L196.9733,47.147 L197.1024,48.473 L197.2007,49.785 L197.2687,51.083 L197.3094,52.368 L197.3203,53.638 L197.3018,54.895 L197.2568,56.14 L197.1831,57.369 L197.0808,58.585 L196.9529,59.789 L196.7973,60.978 L196.6139,62.154 L196.4058,63.318 L196.171,64.467 L195.9092,65.603 L195.6235,66.727 L195.312,67.836 L194.9744,68.933 L194.6136,70.018 L194.2279,71.088 L193.8169,72.147 L193.3834,73.193 L192.9261,74.224 L192.444,75.244 L191.9403,76.252 L191.4135,77.245 L190.8629,78.227 L190.2912,79.197 L189.6974,80.153 L189.0804,81.096 L188.4431,82.028 L187.7846,82.946 L187.1032,83.852 L186.4024,84.747 L185.6811,85.627 L184.9418,86.491 L184.1663,87.347 L183.396,88.197 L182.5855,89.021 L181.7748,89.846 L180.9253,90.644 L180.074,91.444 L179.1883,92.221 L178.304,92.997 L177.3829,93.746 L176.4616,94.496 L175.5048,95.219 L174.5462,95.945 L173.5564,96.646 L172.5678,97.347 L171.546,98.022 L170.5238,98.697 L169.4697,99.346 L168.4138,99.996 L167.3299,100.622 L166.2471,101.248 L165.1345,101.847 L164.0216,102.447 L162.8803,103.021 L161.7373,103.596 L160.5694,104.147 L159.4027,104.698 L158.2098,105.222 L157.0165,105.747 L155.7984,106.246 L154.5787,106.746 L153.3373,107.221 L152.0971,107.697 L150.8341,108.146 L149.571,108.596 L148.2864,109.02 L147.0005,109.444 L145.6961,109.844 L144.3928,110.245 L143.0704,110.619 L141.7477,110.994 L140.4073,111.342 L139.0655,111.691 L137.7086,112.016 L136.3526,112.341 L134.9812,112.64 L133.6096,112.939 L132.2239,113.213 L130.8368,113.487 L129.438,113.737 L128.04,113.987 L126.6302,114.211 L125.2203,114.436 L123.7997,114.635 L122.378,114.833 L120.9477,115.009 L119.5184,115.184 L118.0807,115.334 L116.6429,115.484 L115.1982,115.608 L113.7523,115.733 L112.3011,115.834 L110.8508,115.935 L109.3958,116.01 L107.9408,116.086 L106.4824,116.136 L105.0229,116.186 L103.5613,116.213 L102.1007,116.24 L100.639,116.241 L99.1772,116.243 L97.7156,116.219 L96.253,116.195 L94.7916,116.148 L93.3312,116.101 L91.8733,116.029 L90.4153,115.957 L88.9612,115.86 L87.506,115.762 L86.0553,115.642 L84.6057,115.522 L83.1621,115.376 L81.7185,115.231 L80.2824,115.06 L78.8452,114.89 L77.4157,114.697 L75.9874,114.503 L74.5687,114.285 L73.1501,114.067 L71.7424,113.824 L70.3337,113.58 L68.936,113.314 L67.5396,113.049 L66.1563,112.758 L64.7733,112.468 L63.4047,112.152 L62.0351,111.837 L60.6798,111.499 L59.3257,111.161 L57.9885,110.798 L56.6515,110.436 L55.3326,110.049 L54.0126,109.662 L52.7101,109.252 L51.4091,108.843 L50.1285,108.409 L48.8481,107.976 L47.5894,107.518 L46.3296,107.059 L45.0906,106.579 L43.8532,106.099 L42.6396,105.594 L41.4265,105.09 L40.2385,104.562 L39.0494,104.033 L37.8843,103.482 L36.721,102.932 L35.5851,102.358 L34.4496,101.784 L33.3428,101.187 L32.2348,100.588 L31.154,99.968 L30.075,99.349 L29.0271,98.706 L27.9796,98.064 L26.9643,97.398 L25.9478,96.731 L24.9617,96.042 L23.9776,95.355 L23.028,94.644 L22.0787,93.934 L21.1653,93.2 L20.2462,92.461 L19.3616,91.715 L18.4925,90.954 L17.6418,90.181 L16.8087,89.397 L15.9962,88.603 L15.2028,87.797 L14.4279,86.981 L13.6744,86.154 L12.9409,85.314 L12.2264,84.465 L11.5341,83.605 L10.8626,82.733 L10.2109,81.851 L9.5822,80.959 L8.975,80.054 L8.3884,79.139 L7.8255,78.214 L7.2858,77.278 L6.7211,76.245 L6.1992,75.222 L5.7171,74.207 L5.2714,73.2 L4.866,72.204 L4.499,71.214 L4.167,70.233 L3.8738,69.262 L3.6174,68.299 L3.3947,67.343 L3.209,66.399 L3.0589,65.461 L2.941,64.53 L2.8584,63.611 L2.8102,62.698 L2.7929,61.793 L2.8094,60.898 L2.8592,60.008 L2.9388,59.126 L3.0507,58.254 L3.1951,57.388 L3.3684,56.528 L3.5726,55.678 L3.8087,54.833 L4.0728,53.995 L4.3668,53.166 L4.692,52.342 L5.0446,51.524 L5.4261,50.716 L5.838,49.913 L6.2767,49.116 L6.7433,48.328 L7.2398,47.545 L7.7621,46.769 L8.3116,46.002 L8.89,45.241 L9.4935,44.487 L10.1232,43.742 L10.781,43.003 L11.4629,42.271 L12.1701,41.548 L12.9042,40.833 L13.6616,40.124 L14.4432,39.425 L15.2507,38.733 L16.0803,38.049 L16.933,37.374 L17.8055,36.711 L18.7202,36.052 L19.6286,35.398 L20.5817,34.762 L21.5354,34.125 L22.5321,33.507 L23.5311,32.888 L24.5678,32.286 L25.6033,31.685 L26.6788,31.104 L27.7548,30.521 L28.8691,29.959 L29.9855,29.396 L31.1353,28.851 L32.2839,28.306 L33.4679,27.782 L34.6523,27.257 L35.8702,26.753 L37.09,26.248 L38.3389,25.763 L39.5867,25.277 L40.8651,24.813 L42.1438,24.349 L43.4513,23.906 L44.7604,23.462 L46.0944,23.038 L47.4274,22.614 L48.7861,22.213 L50.1451,21.811 L51.5283,21.431 L52.9128,21.051 L54.3179,20.691 L55.7219,20.331 L57.1471,19.994 L58.5724,19.657 L60.0171,19.343 L61.4631,19.028 L62.9253,18.735 L64.3865,18.442 L65.864,18.171 L67.3417,17.901 L68.834,17.654 L70.3274,17.407 L71.8328,17.182 L73.3371,16.957 L74.8531,16.755 L76.3691,16.554 L77.8951,16.377 L79.4221,16.199 L80.9568,16.044 L82.4904,15.889 L84.0309,15.759 L85.5714,15.628 L87.1172,15.523 L88.6639,15.417 L90.214,15.335 L91.7629,15.252 L93.3141,15.194 L94.8652,15.137 L96.4167,15.105 L97.9693,15.072 L99.5209,15.064 L101.0713,15.055 L102.6191,15.072 L104.1669,15.089 L105.7104,15.133 L107.2548,15.176 L108.794,15.244 L110.332,15.311 L111.8626,15.405 L113.3931,15.499 L114.9146,15.619 L116.437,15.74 L117.95,15.885 L119.4615,16.03 L120.961,16.203 L122.4603,16.375 L123.9458,16.575 L125.4323,16.775 L126.9051,17 L128.3762,17.224 L129.8306,17.477 L131.2847,17.729 L132.7203,18.01 L134.157,18.29 L135.5756,18.596 L136.9923,18.902 L138.3877,19.237 L139.7826,19.571 L141.1544,19.933 L142.5272,20.296 L143.8777,20.686 L145.2262,21.074 L146.5485,21.492 L147.8702,21.909 L149.1638,22.356 L150.4584,22.804 L151.7263,23.279 L152.9919,23.753 L154.2267,24.257 L155.4608,24.759 L156.6622,25.292 L157.8698,25.827 L159.0437,26.378 L160.2036,26.945 L161.3464,27.527 L162.4723,28.123 L163.5783,28.733 L164.666,29.359 L165.7358,29.997 L166.7845,30.65 L167.8139,31.319 L168.8243,32.001 L169.8124,32.697 L170.7801,33.409 L171.7278,34.135 L172.6519,34.875 L173.5536,35.632 L174.4343,36.403 L175.2906,37.187 L176.1242,37.988 L176.936,38.802 L177.7222,39.63 L178.4849,40.474 L179.2247,41.333 L179.938,42.205 L180.6268,43.093 L181.2918,43.996 L181.9295,44.913 L182.5416,45.846 L183.1291,46.794 L183.6884,47.755 L184.221,48.735 L184.7283,49.728 L185.2065,50.736 L185.6569,51.761 L186.0811,52.802 L186.4753,53.856 L186.8406,54.93 L187.1787,56.018 L187.4864,57.121 L187.7642,58.243 L188.0138,59.381 L188.2317,60.534 L188.4185,61.709 L188.5559,62.736 L188.6657,63.753 L188.748,64.76 L188.8055,65.757 L188.836,66.741 L188.8399,67.716 L188.8199,68.681 L188.7739,69.633 L188.7021,70.576 L188.6072,71.51 L188.4874,72.43 L188.3424,73.343 L188.1751,74.245 L187.9839,75.136 L187.7681,76.018 L187.5307,76.891 L187.2703,77.752 L186.9859,78.605 L186.6806,79.448 L186.3531,80.281 L186.0021,81.105 L185.6307,81.92 L185.2381,82.725 L184.8321,83.504 L183.9332,85.089 L182.9597,86.615 L181.9001,88.107 L180.7657,89.565 L179.5527,90.983 L178.2588,92.366 L176.8867,93.723 L176.1764,94.369 L175.4577,95.025 L174.7028,95.66 L173.9453,96.298 L173.1558,96.917 L172.3681,97.536 L171.5461,98.135 L170.7237,98.735 L169.8681,99.315 L169.0101,99.897 L168.1229,100.46 L167.2373,101.023 L166.3206,101.566 L165.4035,102.11 L164.4565,102.633 L163.5071,103.158 L162.5315,103.665 L161.5573,104.171 L160.5553,104.658 L159.5528,105.144 L158.5237,105.611 L157.4923,106.078 L156.4377,106.527 L155.3845,106.976 L154.3066,107.405 L153.2284,107.834 L152.1267,108.243 L151.0231,108.652 L149.8991,109.043 L148.7765,109.434 L147.6325,109.805 L146.4881,110.176 L145.3236,110.527 L144.1574,110.878 L142.9739,111.211 L141.7915,111.543 L140.5911,111.856 L139.3905,112.169 L138.173,112.461 L136.9539,112.754 L135.7205,113.029 L134.4882,113.303 L133.2412,113.557 L131.994,113.811 L130.7332,114.045 L129.4709,114.28 L128.1972,114.496 L126.9247,114.712 L125.6408,114.907 L124.3566,115.103 L123.0623,115.278 L121.7665,115.454 L120.4624,115.611 L119.1594,115.768 L117.8482,115.905 L116.5369,116.042 L115.2187,116.159 L113.8991,116.276 L112.5743,116.375 L111.2505,116.474 L109.9219,116.553 L108.5932,116.632 L107.2608,116.69 L105.9272,116.749 L104.5912,116.789 L103.2563,116.83 L101.9199,116.85 L100.5834,116.87 L99.2466,116.87 L97.9086,116.871 L96.5711,116.853 L95.2349,116.835 L93.9004,116.796 L92.5659,116.758 L91.2343,116.7 L89.9016,116.642 L88.5724,116.565 L87.2445,116.489 L85.9216,116.393 L84.5988,116.296 L83.2821,116.18 L81.9644,116.063 L80.6532,115.929 L79.3434,115.794 L78.0418,115.64 L76.7404,115.485 L75.4484,115.311 L74.1553,115.137 L72.8718,114.944 L71.5898,114.752 L70.3193,114.539 L69.049,114.327 L67.7915,114.095 L66.5329,113.863 L65.2867,113.612 L64.0422,113.362 L62.8126,113.093 L61.5832,112.823 L60.3699,112.533 L59.1554,112.244 L57.9564,111.936 L56.7593,111.629 L55.5802,111.302 L54.4015,110.975 L53.2421,110.628 L52.0816,110.282 L50.9395,109.917 L49.7994,109.553 L48.6808,109.169 L47.5625,108.786 L46.467,108.383 L45.3701,107.979 L44.2947,107.558 L43.2215,107.138 L42.173,106.698 L41.125,106.259 L40.103,105.8 L39.0795,105.341 L38.0805,104.864 L37.084,104.389 L36.1154,103.894 L35.1474,103.399 L34.2086,102.885 L33.2682,102.371 L32.3552,101.84 L31.4448,101.31 L30.5657,100.761 L29.6872,100.213 L28.8411,99.645 L27.9932,99.077 L27.1757,98.492 L26.361,97.909 L25.5808,97.307 L24.801,96.706 L24.0569,96.086 L23.3188,95.473 L21.8878,94.193 L20.5431,92.887 L19.2614,91.531 L18.666,90.861 L18.0797,90.171 L17.5125,89.47 L16.9639,88.762 L16.4373,88.047 L15.9304,87.321 L15.4427,86.588 L14.9774,85.848 L14.5326,85.097 L14.1074,84.339 L13.7051,83.574 L13.3308,82.813 L12.6041,81.206 L11.9783,79.638 L11.4411,78.087 L10.9834,76.554 L10.6124,75.045 L10.3236,73.553 L10.1083,72.078 L9.9725,70.626 L9.9132,69.19 L9.9217,67.769 L10.0034,66.371 L10.1567,64.987 L10.3731,63.617 L10.6571,62.268 L11.0086,60.932 L11.4192,59.61 L11.8925,58.307 L12.4294,57.017 L13.0217,55.742 L13.672,54.486 L14.3819,53.243 L15.1433,52.015 L15.958,50.806 L16.8278,49.613 L17.7448,48.435 L18.7104,47.277 L19.7261,46.136 L20.7844,45.012 L21.8862,43.908 L23.0329,42.823 L24.2174,41.755 L25.44,40.709 L26.7021,39.682 L27.997,38.675 L29.3246,37.689 L30.686,36.725 L32.0753,35.78 L33.4918,34.858 L34.9363,33.958 L36.4036,33.079 L37.8926,32.224 L39.4039,31.392 L40.9328,30.581 L42.4779,29.794 L44.0396,29.031 L45.6136,28.291 L47.1983,27.576 L48.7938,26.885 L50.3965,26.217 L52.0042,25.575 L53.6171,24.959 L55.232,24.366 L56.8461,23.799 L58.4598,23.259 L60.0703,22.743 L61.6743,22.254 L63.2721,21.791 L64.8615,21.353 L66.4387,20.944 L68.0039,20.561 L69.5555,20.204 L71.089,19.875 L72.6049,19.575 L74.1017,19.3 L75.5745,19.054 L77.0238,18.836 L78.4487,18.645 L79.8434,18.484 L81.2088,18.351 L82.5441,18.245 L83.8428,18.169 L85.1062,18.123 L86.3337,18.103 L87.5178,18.113 L88.6602,18.153 L89.7606,18.219 L90.81,18.314 L91.8113,18.439 L92.7637,18.59 L93.6568,18.768 L94.495,18.974 L95.277,19.203 L95.9909,19.455 L96.6433,19.73 L97.2333,20.023 L97.7482,20.329 L98.1993,20.653 L98.588,20.984 L98.9049,21.317 L99.1671,21.665 L99.38,22.021 L99.5383,22.384 L99.6537,22.78 L99.7278,23.209 L99.7506,23.671 L99.7091,24.283 C99.6444,25.317 100.4298,26.207 101.4633,26.272 C102.4968,26.337 103.3871,25.551 103.4518,24.518 Z" id="Fill-83"></path>
            <path d="M110.2809,24.429 C84.4466,8.864 6.3841,37.303 16.2416,75.447 C30.3335,129.976 174.5171,133.783 195.6792,84.285 C221.1206,24.778 100.1758,10.15 67.2351,18.808" id="Fill-87"></path>
            <path d="M111.2151,22.803 L110.3551,22.311 L109.4259,21.832 L108.469,21.387 L107.4851,20.973 L106.4694,20.591 L105.429,20.24 L104.3644,19.919 L103.2713,19.627 L102.1559,19.366 L101.0189,19.131 L99.8565,18.925 L98.6742,18.749 L97.4726,18.597 L96.2485,18.474 L95.0069,18.378 L93.7484,18.306 L92.4702,18.261 L91.1768,18.242 L89.869,18.247 L88.5443,18.278 L87.207,18.334 L85.8576,18.413 L84.4942,18.516 L83.1208,18.644 L81.7376,18.794 L80.3434,18.968 L78.9417,19.166 L77.5329,19.385 L76.1158,19.627 L74.6879,19.893 L73.2663,20.187 L71.8369,20.483 L70.4004,20.823 L68.9643,21.164 L67.5252,21.547 L66.0887,21.93 L64.6528,22.352 L63.2149,22.774 L61.7815,23.237 L60.3483,23.701 L58.9238,24.206 L57.5014,24.709 L56.0904,25.249 L54.6771,25.79 L53.28,26.369 L51.8827,26.948 L50.5059,27.565 L49.1311,28.182 L47.7783,28.832 L46.423,29.484 L45.0955,30.171 L43.7676,30.859 L42.4717,31.581 L41.1833,32.299 L39.9064,33.048 L38.6525,33.811 L37.4194,34.591 L36.2048,35.385 L35.0106,36.197 L33.84,37.024 L32.6907,37.866 L31.5645,38.724 L30.4649,39.598 L29.3893,40.485 L28.3396,41.389 L27.3196,42.308 L26.3262,43.24 L25.362,44.188 L24.4309,45.15 L23.5293,46.126 L22.6596,47.118 L21.8258,48.123 L21.0242,49.14 L20.2578,50.174 L19.5305,51.219 L18.8387,52.278 L18.1858,53.352 L17.5753,54.438 L17.0032,55.536 L16.4733,56.649 L15.9893,57.773 L15.547,58.908 L15.1508,60.058 L14.8039,61.217 L14.5025,62.386 L14.2512,63.57 L14.0525,64.761 L13.9024,65.961 L13.8062,67.174 L13.7656,68.392 L13.7766,69.617 L13.8452,70.853 L13.9722,72.093 L14.1551,73.337 L14.3987,74.591 L14.7049,75.854 L15.2139,77.607 L15.8153,79.336 L16.5022,81.024 L17.267,82.677 L18.1171,84.294 L19.0457,85.869 L20.045,87.409 L21.1218,88.913 L22.2702,90.376 L23.4794,91.807 L24.7588,93.203 L26.1039,94.56 L27.5085,95.882 L28.9788,97.168 L30.5076,98.418 L32.0889,99.636 L33.7241,100.814 L34.5791,101.392 L35.4262,101.964 L36.2983,102.519 L37.1718,103.076 L38.072,103.614 L38.9718,104.152 L39.8975,104.673 L40.8213,105.192 L41.7679,105.695 L42.7156,106.199 L43.6874,106.685 L44.6589,107.171 L45.6535,107.639 L46.6464,108.106 L47.6597,108.557 L48.6741,109.009 L49.71,109.442 L50.7455,109.876 L51.8015,110.292 L52.8561,110.707 L53.9284,111.106 L55.0018,111.506 L56.094,111.888 L57.1859,112.27 L58.2959,112.634 L59.4044,112.997 L60.5284,113.344 L61.6533,113.692 L62.7944,114.022 L63.9352,114.352 L65.0913,114.664 L66.2461,114.976 L67.4139,115.272 L68.5827,115.568 L69.765,115.847 L70.947,116.126 L72.1417,116.387 L73.3351,116.647 L74.5393,116.892 L75.7442,117.137 L76.9602,117.364 L78.1761,117.59 L79.4019,117.799 L80.6266,118.008 L81.8596,118.201 L83.0933,118.393 L84.3353,118.569 L85.5772,118.744 L86.8264,118.901 L88.0745,119.059 L89.3285,119.2 L90.5832,119.342 L91.8436,119.466 L93.1039,119.59 L94.3688,119.697 L95.6327,119.803 L96.9001,119.893 L98.1684,119.983 L99.4395,120.056 L100.7106,120.128 L101.9837,120.183 L103.2559,120.238 L104.5291,120.277 L105.8031,120.316 L107.0775,120.337 L108.3517,120.357 L109.6254,120.36 L110.8981,120.363 L112.1695,120.35 L113.4417,120.337 L114.7115,120.307 L115.9814,120.276 L117.2479,120.228 L118.5135,120.18 L119.7754,120.115 L121.0382,120.051 L122.2959,119.969 L123.5537,119.887 L124.8055,119.788 L126.0564,119.688 L127.3012,119.573 L128.5469,119.457 L129.7849,119.324 L131.023,119.19 L132.2525,119.039 L133.4811,118.888 L134.7012,118.721 L135.9222,118.554 L137.133,118.369 L138.3438,118.185 L139.5433,117.982 L140.7421,117.78 L141.9298,117.561 L143.1186,117.342 L144.2945,117.106 L145.4704,116.869 L146.6325,116.615 L147.7938,116.362 L148.9418,116.092 L150.0909,115.822 L151.2244,115.534 L152.3581,115.247 L153.4752,114.941 L154.5915,114.635 L155.692,114.314 L156.7937,113.992 L157.8773,113.652 L158.9611,113.312 L160.0257,112.955 L161.0894,112.598 L162.1349,112.224 L163.1817,111.85 L164.2077,111.458 L165.234,111.066 L166.2384,110.656 L167.2423,110.247 L168.2256,109.821 L169.2103,109.395 L170.1716,108.951 L171.1332,108.507 L172.0703,108.045 L173.0064,107.583 L173.9195,107.105 L174.8342,106.625 L175.7228,106.128 L176.6166,105.627 L178.3341,104.599 L180.0063,103.534 L181.6228,102.43 L183.1788,101.291 L184.6795,100.116 L186.1191,98.903 L187.4925,97.654 L188.8054,96.369 L190.0514,95.045 L191.2253,93.684 L192.3341,92.288 L193.37,90.852 L194.3276,89.38 L195.2136,87.872 L196.0201,86.324 L196.7367,84.752 L197.1366,83.793 L197.5068,82.853 L197.8523,81.92 L198.1757,80.994 L198.4753,80.073 L198.7508,79.16 L199.0047,78.254 L199.2354,77.353 L199.4423,76.46 L199.6282,75.573 L199.7912,74.692 L199.933,73.806 L200.1492,72.091 L200.278,70.388 L200.3188,68.716 L200.2808,67.069 L200.1576,65.447 L199.9479,63.857 L199.6613,62.295 L199.2943,60.759 L198.8502,59.256 L198.3369,57.781 L197.7485,56.333 L197.0892,54.919 L196.363,53.533 L195.5676,52.177 L194.7073,50.852 L193.7887,49.556 L192.8066,48.288 L191.7655,47.051 L190.6723,45.841 L189.5224,44.657 L188.3186,43.503 L187.0664,42.375 L185.7614,41.274 L184.4077,40.201 L183.0107,39.153 L181.5666,38.131 L180.0786,37.136 L178.5513,36.166 L176.9814,35.221 L175.3723,34.302 L173.7289,33.406 L172.0479,32.535 L170.3325,31.689 L168.5866,30.867 L166.8078,30.068 L164.9996,29.295 L163.1654,28.542 L161.3056,27.815 L160.3594,27.462 L159.4164,27.11 L158.4621,26.769 L157.5076,26.428 L156.5416,26.098 L155.5759,25.768 L154.5997,25.45 L153.6242,25.132 L152.6399,24.825 L151.6552,24.517 L150.6615,24.221 L149.668,23.925 L148.6664,23.64 L147.6654,23.355 L146.6578,23.081 L145.6499,22.807 L144.6354,22.544 L143.6211,22.28 L142.6012,22.028 L141.5818,21.777 L140.558,21.535 L139.5339,21.293 L138.5057,21.062 L137.4776,20.831 L136.4464,20.611 L135.4157,20.391 L134.3828,20.181 L133.3495,19.971 L132.3147,19.772 L131.28,19.573 L130.2445,19.384 L129.2077,19.195 L128.1712,19.02 L127.1404,18.847 L126.1097,18.673 L125.071,18.497 L124.0355,18.343 L123.008,18.189 L121.9805,18.036 L120.9453,17.882 L119.9168,17.748 L118.8961,17.615 L117.8754,17.482 L116.8479,17.348 L115.8293,17.232 L114.8177,17.117 L113.806,17.003 L112.787,16.887 L111.7809,16.791 L110.7823,16.696 L109.7837,16.601 L108.7753,16.506 L106.8064,16.354 L104.8375,16.203 L102.891,16.078 L100.9672,15.972 L99.0668,15.885 L97.1888,15.815 L95.3365,15.764 L93.5125,15.732 L91.7152,15.716 L89.9486,15.718 L88.2151,15.739 L86.5127,15.776 L84.8457,15.83 L83.2166,15.903 L81.6231,15.991 L80.0697,16.097 L78.559,16.22 L77.0881,16.358 L75.662,16.514 L74.2834,16.686 L72.9487,16.874 L71.6633,17.078 L70.4301,17.3 L69.2449,17.536 L68.1132,17.789 L67.0475,18.056 C66.6322,18.159 66.3796,18.58 66.4832,18.995 C66.5868,19.411 67.0074,19.663 67.4227,19.56 L68.4691,19.3 L69.5645,19.058 L70.7178,18.83 L71.9217,18.617 L73.1785,18.42 L74.4877,18.239 L75.8426,18.073 L77.2452,17.923 L78.6949,17.789 L80.1854,17.671 L81.7187,17.57 L83.2939,17.487 L84.9052,17.419 L86.5542,17.368 L88.24,17.336 L89.9573,17.319 L91.7074,17.321 L93.4892,17.34 L95.298,17.376 L97.1346,17.431 L98.9979,17.505 L100.8836,17.595 L102.7921,17.704 L104.7206,17.833 L106.6791,17.987 L108.6376,18.142 L109.6262,18.239 L110.6245,18.336 L111.6229,18.433 L112.6137,18.529 L113.6177,18.646 L114.6291,18.763 L115.6405,18.88 L116.645,18.996 L117.6585,19.131 L118.6788,19.266 L119.6991,19.402 L120.7117,19.537 L121.7311,19.692 L122.7582,19.848 L123.7853,20.004 L124.8044,20.159 L125.8267,20.334 L126.8569,20.511 L127.8871,20.689 L128.9117,20.865 L129.9366,21.056 L130.9629,21.247 L131.9885,21.448 L133.0139,21.65 L134.0377,21.862 L135.0618,22.074 L136.0836,22.296 L137.105,22.518 L138.1231,22.751 L139.1411,22.984 L140.155,23.227 L141.1691,23.471 L142.1789,23.724 L143.188,23.978 L144.1915,24.242 L145.1948,24.506 L146.1915,24.782 L147.1886,25.057 L148.1789,25.343 L149.1686,25.628 L150.1502,25.925 L151.1316,26.221 L152.1039,26.529 L153.0766,26.837 L154.0403,27.155 L155.0034,27.473 L155.9558,27.803 L156.9078,28.132 L157.8484,28.473 L158.7893,28.815 L159.719,29.167 L160.6457,29.517 L162.4793,30.244 L164.2828,30.994 L166.0589,31.765 L167.8023,32.559 L169.5131,33.377 L171.1918,34.217 L172.8332,35.079 L174.4367,35.966 L176.0032,36.876 L177.5271,37.808 L179.0085,38.765 L180.4488,39.743 L181.8415,40.745 L183.1862,41.772 L184.4849,42.82 L185.7311,43.892 L186.925,44.989 L188.0692,46.106 L189.156,47.247 L190.1849,48.413 L191.1586,49.602 L192.0704,50.812 L192.9211,52.048 L193.714,53.305 L194.4408,54.584 L195.1026,55.888 L195.7061,57.213 L196.2399,58.561 L196.7045,59.936 L197.1043,61.334 L197.4308,62.755 L197.6834,64.206 L197.8701,65.681 L197.983,67.181 L198.0171,68.713 L197.9781,70.272 L197.857,71.858 L197.6495,73.491 L197.5192,74.299 L197.3657,75.126 L197.1899,75.962 L196.9938,76.805 L196.7756,77.655 L196.5344,78.515 L196.2723,79.381 L195.9874,80.255 L195.6786,81.137 L195.3484,82.027 L194.9946,82.925 L194.6217,83.818 L193.9411,85.308 L193.1885,86.749 L192.3575,88.16 L191.4576,89.54 L190.4848,90.886 L189.4376,92.201 L188.3246,93.485 L187.1431,94.735 L185.8919,95.953 L184.5799,97.141 L183.2042,98.295 L181.7635,99.416 L180.2665,100.508 L178.7108,101.564 L177.0952,102.588 L175.4231,103.583 L174.5678,104.059 L173.7071,104.538 L172.8202,105 L171.9318,105.463 L171.0201,105.91 L170.1096,106.357 L169.1744,106.786 L168.2389,107.215 L167.2797,107.627 L166.3192,108.04 L165.3379,108.437 L164.3572,108.833 L163.3545,109.211 L162.3516,109.589 L161.3278,109.95 L160.3026,110.312 L159.2592,110.657 L158.2166,111.002 L157.1548,111.33 L156.0928,111.658 L155.0125,111.968 L153.9309,112.279 L152.8335,112.574 L151.7369,112.868 L150.6238,113.145 L149.5105,113.423 L148.3816,113.682 L147.2515,113.942 L146.1081,114.186 L144.9654,114.429 L143.8087,114.655 L142.652,114.881 L141.4822,115.09 L140.3115,115.298 L139.1298,115.491 L137.9489,115.684 L136.7568,115.859 L135.5646,116.034 L134.3621,116.191 L133.1587,116.349 L131.9467,116.491 L130.7355,116.633 L129.5158,116.757 L128.296,116.882 L127.0686,116.989 L125.8403,117.096 L124.6059,117.187 L123.3723,117.278 L122.1328,117.352 L120.8932,117.426 L119.6487,117.482 L118.4034,117.539 L117.1544,117.579 L115.9062,117.62 L114.6547,117.643 L113.4033,117.666 L112.1496,117.672 L110.8951,117.678 L109.6393,117.668 L108.3843,117.658 L107.1288,117.63 L105.8733,117.603 L104.6182,117.559 L103.3623,117.515 L102.1075,117.455 L100.8536,117.396 L99.6018,117.318 L98.3501,117.241 L97.1014,117.147 L95.8519,117.053 L94.6059,116.943 L93.3609,116.833 L92.1206,116.706 L90.8804,116.58 L89.6459,116.435 L88.4107,116.291 L87.1814,116.131 L85.9531,115.971 L84.7322,115.794 L83.5114,115.617 L82.2991,115.423 L81.0859,115.228 L79.8811,115.018 L78.6774,114.809 L77.4838,114.581 L76.2903,114.355 L75.1077,114.112 L73.9242,113.869 L72.7516,113.61 L71.5801,113.351 L70.4214,113.075 L69.2629,112.8 L68.118,112.507 L66.9723,112.214 L65.8398,111.905 L64.7086,111.597 L63.5928,111.272 L62.4772,110.947 L61.3781,110.605 L60.2779,110.262 L59.1935,109.904 L58.1104,109.547 L57.0453,109.173 L55.9805,108.799 L54.9346,108.408 L53.8878,108.017 L52.8591,107.611 L51.8319,107.205 L50.8254,106.782 L49.8193,106.36 L48.8348,105.92 L47.8492,105.481 L46.8841,105.026 L45.9207,104.572 L44.9806,104.101 L44.041,103.63 L43.1256,103.143 L42.2091,102.655 L41.3155,102.152 L40.4238,101.65 L39.558,101.131 L38.6927,100.613 L37.8544,100.078 L37.0147,99.543 L36.2004,98.992 L35.3941,98.447 L33.821,97.312 L32.3121,96.148 L30.8613,94.953 L29.4769,93.726 L28.1557,92.466 L26.8951,91.179 L25.7043,89.863 L24.5829,88.512 L23.5305,87.132 L22.5527,85.724 L21.6475,84.284 L20.8109,82.817 L20.0528,81.323 L19.3701,79.797 L18.7585,78.244 L18.229,76.664 L17.7783,75.041 L17.5218,73.926 L17.3189,72.815 L17.1693,71.709 L17.0659,70.611 L17.0142,69.525 L17.0132,68.443 L17.0573,67.368 L17.1501,66.305 L17.2913,65.246 L17.4752,64.193 L17.7051,63.151 L17.9812,62.113 L18.2978,61.082 L18.6577,60.061 L19.0621,59.045 L19.5054,58.036 L19.9896,57.037 L20.5162,56.044 L21.0796,55.058 L21.6815,54.083 L22.3233,53.115 L22.9995,52.155 L23.7117,51.207 L24.4615,50.267 L25.2437,49.336 L26.0591,48.417 L26.9095,47.508 L27.7898,46.609 L28.7001,45.723 L29.6424,44.847 L30.6119,43.982 L31.6092,43.131 L32.6357,42.291 L33.6869,41.464 L34.7628,40.652 L35.8651,39.852 L36.9892,39.065 L38.1352,38.294 L39.3045,37.537 L40.493,36.793 L41.7004,36.066 L42.9225,35.357 L44.1809,34.663 L45.4319,33.972 L46.7148,33.316 L47.9982,32.658 L49.3091,32.036 L50.6225,31.412 L51.9576,30.82 L53.2906,30.229 L54.6435,29.674 L55.9966,29.118 L57.3655,28.601 L58.7366,28.082 L60.1185,27.598 L61.4984,27.114 L62.8864,26.67 L64.2742,26.226 L65.666,25.822 L67.0597,25.417 L68.4535,25.05 L69.8449,24.683 L71.2325,24.359 L72.6198,24.034 L73.9991,23.753 L75.3861,23.47 L76.7522,23.22 L78.1159,22.991 L79.4725,22.784 L80.8207,22.598 L82.1572,22.435 L83.4836,22.295 L84.7987,22.177 L86.099,22.082 L87.3861,22.01 L88.659,21.961 L89.9136,21.935 L91.1522,21.934 L92.3735,21.956 L93.5733,22.001 L94.7539,22.072 L95.9144,22.165 L97.0498,22.283 L98.1629,22.427 L99.253,22.593 L100.3145,22.784 L101.3508,23.001 L102.3611,23.24 L103.3392,23.505 L104.2893,23.795 L105.2105,24.108 L106.0963,24.445 L106.9514,24.807 L107.7752,25.193 L108.5605,25.601 L109.3467,26.055 C110.2445,26.57 111.3906,26.261 111.9066,25.363 C112.4226,24.465 112.113,23.319 111.2151,22.803 Z" id="Fill-88"></path>
        </g>
    </g>
</svg>
