<?xml version="1.0" encoding="UTF-8"?>
<svg width="252px" height="120px" viewBox="0 0 252 120" version="1.1" xmlns="http://www.w3.org/2000/svg" xmlns:xlink="http://www.w3.org/1999/xlink">
    <title>47</title>
    <g id="Page-1" stroke="none" stroke-width="1" fill="none" fill-rule="evenodd">
        <g id="47" transform="translate(0.102669, 0.064000)" fill="currentColor">
            <path d="M57.016711,49.398 L56.636831,49.388 L56.433361,49.365 L56.344291,49.345 L56.382161,49.363 L56.564031,49.484 L56.789621,49.736 L56.951751,50.093 L56.997861,50.442 L56.976241,50.631 L56.959611,50.684 L56.984741,50.636 L57.072481,50.502 L57.214381,50.314 L57.408691,50.087 L57.657311,49.825 L57.949601,49.537 L58.283771,49.23 L58.660071,48.903 L59.070491,48.562 L59.514001,48.208 L59.990221,47.843 L60.492881,47.468 L61.021051,47.087 L61.565791,46.704 L62.736961,45.909 L63.966321,45.112 L65.245221,44.315 L66.552261,43.529 L67.871731,42.765 L69.186511,42.031 L70.480161,41.334 L71.731791,40.688 L72.932351,40.098 L73.493871,39.832 L74.040401,39.581 L74.562711,39.35 L75.059381,39.139 L75.523601,38.95 L75.954641,38.786 L77.064801,38.381 L78.173921,37.976 L79.287421,37.582 L80.400761,37.189 L81.518331,36.806 L82.636581,36.424 L83.758571,36.051 L84.879581,35.68 L86.004551,35.32 L87.129361,34.959 L88.257991,34.611 L89.387341,34.263 L90.520031,33.926 L91.651711,33.589 L92.786941,33.265 L93.922001,32.941 L95.060451,32.629 L96.199681,32.317 L97.341881,32.017 L98.483031,31.717 L99.627231,31.431 L100.771331,31.145 L101.918431,30.872 L103.071731,30.597 L103.772531,30.435 L104.523431,30.263 L105.318031,30.082 L106.151431,29.895 L107.026231,29.7 L107.941831,29.499 L108.893231,29.291 L109.882931,29.078 L110.910231,28.86 L111.970631,28.637 L113.066131,28.41 L114.196131,28.179 L115.356331,27.945 L116.548631,27.708 L117.772131,27.468 L119.023031,27.227 L120.302831,26.985 L121.610831,26.741 L122.943331,26.498 L124.301531,26.254 L125.684831,26.011 L127.089731,25.768 L128.517131,25.528 L129.964931,25.289 L131.444131,25.054 L132.920731,24.819 L134.435231,24.591 L135.949031,24.363 L137.496231,24.144 L139.043531,23.925 L140.617531,23.716 L142.190231,23.506 L143.788231,23.31 L145.385431,23.114 L147.003531,22.932 L148.621831,22.751 L150.255331,22.584 L151.887231,22.418 L153.531931,22.271 L155.175731,22.123 L156.827831,21.996 L158.480131,21.869 L160.136331,21.763 L161.790531,21.657 L163.444931,21.575 L165.098231,21.493 L166.747131,21.438 L168.396431,21.382 L170.038231,21.353 L171.677431,21.323 L173.304231,21.324 L174.929731,21.324 L176.538131,21.357 L178.147131,21.39 L179.736931,21.454 L181.323631,21.518 L182.885231,21.617 L184.445131,21.716 L185.975331,21.854 L187.511931,21.992 L189.013031,22.155 L190.499731,22.339 L191.967731,22.544 L193.416431,22.767 L194.841631,23.012 L196.245031,23.28 L197.626131,23.567 L198.980231,23.876 L200.309331,24.209 L201.613131,24.563 L202.886431,24.941 L204.131631,25.343 L205.348531,25.767 L206.531531,26.214 L207.683431,26.688 L208.804331,27.184 L209.887731,27.704 L210.937431,28.251 L211.953431,28.822 L212.928931,29.417 L213.868231,30.04 L214.771531,30.688 L215.631931,31.36 L216.454031,32.061 L217.238331,32.787 L217.977831,33.539 L218.677331,34.322 L219.337731,35.131 L219.952131,35.967 L220.524831,36.837 L221.057031,37.735 L221.542131,38.662 L221.983231,39.627 L222.382231,40.624 L222.732331,41.652 L223.036931,42.729 L223.284631,43.762 L223.490231,44.793 L223.654131,45.821 L223.780231,46.844 L223.864831,47.858 L223.908831,48.871 L223.916531,49.879 L223.884531,50.879 L223.813031,51.878 L223.706231,52.873 L223.561331,53.86 L223.377731,54.847 L223.159831,55.83 L222.905031,56.806 L222.612131,57.781 L222.285731,58.753 L221.923531,59.718 L221.523931,60.682 L221.091631,61.643 L220.624531,62.597 L220.120831,63.549 L219.585131,64.498 L219.015731,65.44 L218.410631,66.38 L217.774531,67.316 L217.105731,68.245 L216.402431,69.171 L215.669031,70.092 L214.904231,71.007 L214.106031,71.917 L213.278931,72.823 L212.421631,73.721 L211.532231,74.614 L210.615031,75.502 L209.669031,76.383 L208.692231,77.258 L207.689031,78.127 L206.658131,78.988 L205.598031,79.844 L204.512731,80.692 L203.401131,81.533 L202.261831,82.367 L201.098531,83.194 L199.910331,84.013 L198.695931,84.824 L197.458831,85.629 L196.198431,86.425 L194.913331,87.213 L193.606831,87.994 L192.278131,88.765 L190.926231,89.529 L189.554331,90.284 L188.161631,91.03 L186.750931,91.766 L185.304331,92.493 L183.862531,93.218 L182.381931,93.924 L180.900931,94.631 L179.383131,95.317 L177.863531,96.005 L176.312231,96.675 L174.761931,97.344 L173.178531,97.993 L171.594931,98.643 L169.980131,99.272 L168.363831,99.902 L166.720931,100.512 L165.079031,101.122 L163.409631,101.711 L161.739931,102.3 L160.044831,102.867 L158.348431,103.434 L156.630531,103.981 L154.913631,104.528 L153.174931,105.053 L151.435931,105.577 L149.677331,106.078 L147.917431,106.58 L146.141331,107.061 L144.366231,107.541 L142.574931,107.998 L140.783531,108.455 L138.978031,108.887 L137.171431,109.32 L135.353631,109.731 L133.536931,110.141 L131.709631,110.526 L129.882331,110.911 L128.046731,111.271 L126.209931,111.632 L124.367231,111.968 L122.525431,112.305 L120.679131,112.617 L118.832831,112.928 L116.983831,113.213 L115.133731,113.499 L113.282731,113.76 L111.432831,114.02 L109.583831,114.254 L107.734831,114.487 L105.888831,114.693 L104.041831,114.899 L102.199031,115.079 L100.357431,115.26 L98.522331,115.411 L96.687421,115.563 L94.861111,115.687 L93.033831,115.811 L91.215991,115.909 L89.399371,116.006 L87.594951,116.074 L85.790701,116.142 L84.000701,116.18 L82.209721,116.218 L80.433331,116.229 L78.658291,116.239 L76.901121,116.219 L75.144201,116.199 L73.407231,116.148 L71.669231,116.096 L69.950991,116.017 L68.234371,115.935 L66.541401,115.821 L64.848821,115.707 L63.181921,115.561 L61.514001,115.415 L59.871051,115.239 L58.229911,115.063 L56.618091,114.855 L55.006751,114.647 L53.426781,114.405 L51.841731,114.163 L50.287941,113.899 L48.748331,113.618 L47.225731,113.32 L45.719791,113.007 L44.233471,112.677 L42.765561,112.329 L41.316021,111.965 L39.887681,111.583 L38.479161,111.184 L37.089981,110.769 L35.723511,110.337 L34.378251,109.888 L33.053641,109.422 L31.753271,108.94 L30.475461,108.439 L29.219621,107.922 L27.989521,107.389 L26.783321,106.837 L25.600371,106.268 L24.444631,105.683 L23.314111,105.079 L22.208081,104.459 L21.130701,103.822 L20.079791,103.166 L19.054581,102.493 L18.059371,101.804 L17.091861,101.096 L16.151171,100.371 L15.241761,99.63 L14.361191,98.868 L13.508501,98.091 L12.688221,97.297 L11.897911,96.483 L11.136431,95.652 L10.408401,94.804 L9.711401,93.936 L9.044141,93.051 L8.411241,92.149 L7.81048,91.226 L7.240332,90.286 L6.705402,89.328 L6.203785,88.349 L5.733708,87.351 L5.29972,86.336 L4.900365,85.298 L4.533586,84.241 L4.203863,83.165 L3.910276,82.066 L3.650392,80.948 L3.428638,79.81 L3.244702,78.648 L3.095882,77.466 L2.986524,76.263 L2.916805,75.035 L2.883682,73.787 L2.891451,72.517 L2.940748,71.222 L3.028196,69.905 L3.158063,68.567 L3.331764,67.2 L3.455254,66.414 L3.607487,65.631 L3.788733,64.847 L3.995704,64.066 L4.230267,63.288 L4.493499,62.511 L4.782003,61.736 L5.097437,60.964 L5.441159,60.193 L5.809694,59.424 L6.204523,58.659 L6.627168,57.894 L7.074119,57.131 L7.546656,56.373 L8.046351,55.615 L8.569791,54.86 L9.118181,54.108 L9.693131,53.359 L10.291171,52.612 L10.913441,51.869 L11.561491,51.128 L12.231931,50.39 L12.925841,49.657 L13.644681,48.926 L14.385171,48.198 L15.148321,47.475 L15.935521,46.755 L16.743591,46.039 L17.573501,45.327 L18.422681,44.622 L19.310141,43.916 L20.192601,43.213 L21.117561,42.52 L22.043021,41.827 L23.009671,41.143 L23.978151,40.457 L24.983021,39.781 L25.986951,39.105 L27.029781,38.44 L28.073031,37.774 L29.153891,37.118 L30.236351,36.461 L31.351941,35.815 L32.466671,35.168 L33.616721,34.533 L34.767141,33.897 L35.951551,33.272 L37.137361,32.647 L38.353021,32.032 L39.567911,31.417 L40.814501,30.815 L42.061391,30.212 L43.338681,29.621 L44.617181,29.029 L45.922261,28.448 L47.226631,27.868 L48.559081,27.3 L49.891791,26.732 L51.251141,26.177 L52.611531,25.621 L53.995241,25.076 L55.378281,24.532 L56.785811,24.001 L58.193541,23.47 L59.624461,22.952 L61.056351,22.434 L62.508281,21.928 L63.959561,21.423 L65.431751,20.931 L66.904081,20.439 L68.396021,19.962 L69.888821,19.484 L71.398391,19.019 L72.907341,18.554 L74.433591,18.104 L75.959971,17.653 L77.502331,17.218 L79.045501,16.782 L80.602161,16.36 L82.158221,15.937 L83.727991,15.53 L85.297841,15.123 L86.880101,14.732 L88.463091,14.34 L90.056321,13.963 L91.648941,13.585 L93.251681,13.224 L94.854471,12.862 L96.466081,12.517 L98.078331,12.171 L99.697631,11.84 L101.316331,11.509 L102.941431,11.195 L104.566631,10.88 L106.197031,10.583 L107.828131,10.285 L109.462831,10.003 L111.097031,9.72 L112.734131,9.455 L114.371131,9.19 L116.009931,8.942 L117.649231,8.694 L119.289031,8.463 L120.928231,8.231 L122.566631,8.017 L124.205131,7.803 L125.841631,7.607 L127.478831,7.411 L129.113131,7.232 L130.746631,7.052 L132.376031,6.891 L134.005331,6.73 L135.629131,6.587 L137.253431,6.445 L138.871731,6.319 L140.489331,6.194 L142.099031,6.088 L143.708731,5.982 L145.309231,5.895 L146.910331,5.808 L148.502131,5.739 L150.093131,5.67 L151.672731,5.621 L153.252131,5.572 L154.818831,5.543 L156.386131,5.514 L157.940931,5.503 L159.494731,5.492 L161.033531,5.501 L162.572231,5.511 L164.094531,5.541 L165.617531,5.571 L167.124631,5.621 L168.630731,5.67 L170.118231,5.74 L171.605431,5.81 L173.072831,5.901 L174.540831,5.993 L175.989731,6.104 L177.437431,6.215 L178.862931,6.347 L180.288131,6.48 L181.689831,6.634 L183.092231,6.788 L184.472231,6.963 L185.850931,7.137 L187.203731,7.334 L188.556231,7.53 L189.881531,7.749 L191.207731,7.969 L192.508131,8.208 L193.807031,8.448 L195.076431,8.71 L196.345431,8.972 L197.583631,9.257 L198.822731,9.543 L200.032831,9.849 L201.241231,10.155 L202.416431,10.484 L203.591131,10.813 L204.731431,11.166 L205.872731,11.519 L206.981831,11.894 L208.088731,12.267 L209.159031,12.665 L210.228631,13.062 L211.260231,13.483 L212.293131,13.905 L213.290331,14.349 L214.285231,14.791 L215.239831,15.258 L216.193731,15.724 L217.106031,16.214 L218.025031,16.708 L218.903631,17.212 L219.764331,17.731 L220.603831,18.262 L221.422931,18.803 L222.218231,19.357 L222.991631,19.922 L223.743831,20.499 L224.471431,21.087 L225.176331,21.688 L225.859431,22.3 L226.517231,22.922 L227.151731,23.558 L227.763731,24.205 L228.349831,24.863 L228.911931,25.534 L229.451031,26.216 L229.963531,26.909 L230.449831,27.614 L230.836831,28.222 L231.179031,28.826 L231.482131,29.432 L231.749631,30.038 L231.977731,30.641 L232.169731,31.249 L232.329031,31.857 L232.452331,32.464 L232.541731,33.075 L232.600631,33.688 L232.626231,34.302 L232.619331,34.92 L232.583431,35.542 L232.516131,36.164 L232.417331,36.792 L232.290531,37.423 L232.134031,38.055 L231.946931,38.692 L231.733031,39.332 L231.490831,39.973 L231.219431,40.618 L230.922531,41.265 L230.598931,41.912 L230.247731,42.562 L229.872731,43.214 L229.472931,43.865 L229.047331,44.517 L228.599731,45.17 L228.129231,45.822 L227.642531,46.464 L226.587031,47.776 L225.457331,49.071 L224.249631,50.36 L222.977331,51.641 L221.641031,52.908 L220.244931,54.163 L218.800731,55.404 L217.310431,56.627 L215.778731,57.832 L214.215331,59.018 L212.623731,60.181 L211.008931,61.32 L209.379031,62.436 L207.738831,63.524 L206.093631,64.584 L204.449531,65.615 L202.812831,66.614 L201.189231,67.579 L199.583331,68.513 L198.002931,69.409 L196.453731,70.268 L194.938431,71.09 L193.466731,71.87 L192.044231,72.608 L190.672031,73.306 L189.361431,73.957 L188.118231,74.56 L186.941831,75.12 L185.845331,75.628 L184.831931,76.085 L184.360531,76.293 L183.910431,76.489 L183.484831,76.671 L183.082531,76.841 L182.707131,76.995 L182.360031,77.135 L181.418931,77.506 L180.423931,77.891 L179.375031,78.29 L178.278231,78.702 L177.130531,79.125 L175.932631,79.561 L174.690431,80.006 L173.400931,80.462 L172.065131,80.927 L170.688431,81.401 L169.268231,81.882 L167.805431,82.371 L166.305131,82.866 L164.765031,83.367 L163.186031,83.873 L161.572931,84.383 L159.923831,84.897 L158.239431,85.414 L156.524331,85.933 L154.776831,86.454 L152.997931,86.976 L151.191531,87.498 L149.356531,88.019 L147.493731,88.539 L145.607031,89.058 L143.694331,89.574 L142.727431,89.83 L141.759331,90.086 L140.780931,90.34 L139.802931,90.594 L138.814031,90.846 L137.825131,91.098 L136.826131,91.347 L135.828331,91.596 L134.817731,91.84 L133.803131,92.086 L132.788531,92.331 L131.780031,92.575 L130.754631,92.811 L129.723231,93.049 L128.691831,93.287 L127.666831,93.523 L126.627631,93.749 L125.582131,93.978 L124.536631,94.206 L123.497231,94.433 L122.447131,94.65 L121.390931,94.869 L120.334631,95.088 L119.285631,95.305 L118.227031,95.511 L117.161431,95.717 L116.095731,95.924 L115.037731,96.13 L113.972931,96.321 L112.900531,96.515 L111.828131,96.708 L110.763131,96.9 L109.694031,97.079 L108.617631,97.259 L107.541331,97.438 L106.473431,97.617 L105.403631,97.779 L104.325131,97.943 L103.246731,98.106 L102.177431,98.268 L101.108831,98.413 L100.031031,98.558 L98.953231,98.704 L97.884281,98.849 L96.818111,98.976 L95.742981,99.104 L94.667841,99.233 L93.603201,99.36 L92.543941,99.467 L91.474101,99.574 L90.404271,99.682 L89.345801,99.789 L88.295421,99.874 L87.233561,99.959 L86.171701,100.045 L85.118101,100.13 L84.071351,100.2 L83.022641,100.269 L81.979711,100.327 L80.937031,100.384 L79.900791,100.429 L78.864161,100.475 L77.833921,100.508 L76.804551,100.542 L75.782821,100.562 L74.761361,100.583 L73.748211,100.59 L72.734601,100.597 L71.729081,100.591 L70.724541,100.586 L69.729501,100.566 L68.737621,100.547 L66.765121,100.479 L64.815631,100.384 L62.890321,100.259 L60.988831,100.103 L59.110961,99.919 L57.261211,99.702 L55.438961,99.452 L53.643801,99.171 L51.880701,98.857 L50.148721,98.508 L48.446711,98.129 L46.780581,97.714 L45.149101,97.262 L43.551461,96.776 L41.993561,96.253 L40.473831,95.691 L38.991221,95.093 L37.552091,94.457 L36.154501,93.779 L34.797161,93.065 L33.486771,92.31 L32.221091,91.512 L30.998531,90.675 L29.826081,89.797 L28.701271,88.873 L27.622181,87.909 L26.595671,86.901 L25.618971,85.847 L24.690331,84.749 L23.817051,83.606 L22.997141,82.411 L22.227841,81.171 L21.516521,79.883 L20.858321,78.531 L20.521141,77.761 L20.220101,76.99 L19.956431,76.224 L19.726581,75.462 L19.533781,74.709 L19.376181,73.958 L19.250241,73.212 L19.158831,72.474 L19.100671,71.738 L19.072251,71.007 L19.076091,70.282 L19.111531,69.559 L19.175071,68.84 L19.268861,68.126 L19.392831,67.415 L19.543471,66.707 L19.722601,66.004 L19.930571,65.303 L20.163851,64.606 L20.423961,63.913 L20.712061,63.223 L21.024091,62.536 L21.361281,61.855 L21.724391,61.175 L22.109961,60.5 L22.519001,59.829 L22.952271,59.162 L23.406441,58.498 L23.882321,57.84 L24.373931,57.194 L25.434561,55.888 L26.566821,54.612 L27.774481,53.356 L29.045131,52.118 L30.378811,50.903 L31.771941,49.71 L33.213611,48.539 L34.702561,47.392 L36.234741,46.269 L37.800871,45.17 L39.398711,44.097 L41.023641,43.051 L42.667891,42.029 L44.327571,41.035 L45.998101,40.068 L47.673351,39.128 L49.348141,38.217 L51.017651,37.335 L52.677361,36.48 L54.320721,35.655 L55.942761,34.861 L57.540481,34.096 L59.106031,33.362 L60.634261,32.66 L62.123791,31.988 L63.565491,31.349 L64.953941,30.743 L66.289261,30.167 L67.560931,29.626 L68.763551,29.119 L69.898861,28.643 L70.955121,28.203 L71.924921,27.798 L73.236891,27.256 L74.546791,26.714 L75.870151,26.177 L77.193461,25.641 L78.529721,25.111 L79.866221,24.58 L81.214091,24.056 L82.561611,23.531 L83.921191,23.013 L85.280711,22.496 L86.651771,21.985 L88.023181,21.475 L89.404651,20.972 L90.785781,20.469 L92.177531,19.975 L93.569231,19.48 L94.971041,18.994 L96.373101,18.508 L97.783951,18.03 L99.194431,17.553 L100.614131,17.085 L102.033731,16.617 L103.462031,16.16 L104.890631,15.702 L106.326731,15.254 L107.762431,14.806 L109.205931,14.369 L110.649331,13.932 L112.100131,13.506 L113.551131,13.081 L115.008431,12.667 L116.465231,12.252 L117.928531,11.851 L119.391631,11.449 L120.860631,11.06 L122.329931,10.671 L123.804131,10.294 L125.277931,9.918 L126.756731,9.555 L128.235331,9.192 L129.718431,8.843 L131.201831,8.495 L132.688931,8.159 L134.175431,7.824 L135.665531,7.504 L137.155631,7.184 L138.648631,6.88 L140.142031,6.576 L141.637731,6.287 L143.132931,5.997 L144.630331,5.724 L146.127531,5.451 L147.626431,5.196 L149.125631,4.94 L150.625831,4.7 L152.125631,4.46 L153.626031,4.238 L155.126331,4.016 L156.626831,3.813 L158.127731,3.609 L159.628431,3.423 L161.128531,3.237 L162.627831,3.07 L164.127131,2.904 L165.625131,2.757 L167.123631,2.61 L168.620531,2.481 L170.116831,2.353 L171.611031,2.245 L173.105031,2.137 L174.596431,2.051 L176.088231,1.964 L177.577331,1.898 L179.065731,1.831 L180.550531,1.786 L182.035231,1.741 L183.515831,1.719 L184.996931,1.697 L186.474031,1.696 L187.950231,1.695 L189.421631,1.718 L190.892831,1.74 L192.358531,1.787 L193.824831,1.833 L195.285631,1.902 L196.745731,1.971 L198.199431,2.065 L199.653031,2.159 L201.099631,2.278 L202.546931,2.397 L203.987431,2.539 L205.427231,2.682 L206.859131,2.851 L208.290931,3.019 L209.714431,3.215 L211.140831,3.411 L212.389931,3.599 L213.616331,3.795 L214.818531,4 L215.998531,4.212 L217.153831,4.432 L218.285531,4.659 L219.395431,4.894 L220.481031,5.136 L221.543431,5.385 L222.584431,5.642 L223.601731,5.905 L224.596231,6.176 L225.569731,6.454 L226.519831,6.738 L227.447631,7.029 L228.354931,7.327 L229.239231,7.631 L230.096431,7.94 L231.766531,8.581 L233.342731,9.246 L234.833931,9.935 L236.247831,10.646 L237.576831,11.379 L238.824931,12.135 L239.999331,12.91 L241.092731,13.704 L242.109531,14.519 L243.056631,15.351 L243.927231,16.2 L244.725631,17.067 L245.458731,17.949 L246.120231,18.846 L246.714331,19.761 L247.247531,20.689 L247.714131,21.63 L248.117731,22.589 L248.464531,23.56 L248.749331,24.544 L248.974731,25.544 L249.146831,26.558 L249.260731,27.583 L249.318131,28.623 L249.325031,29.676 L249.277031,30.739 L249.175231,31.817 L249.025431,32.905 L248.824031,34.002 L248.571431,35.112 L248.273631,36.23 L247.927231,37.355 L247.532831,38.49 L247.096131,39.632 L246.614231,40.78 L246.087531,41.934 L245.521631,43.093 L244.914031,44.256 L244.265231,45.422 L243.580331,46.592 L242.857331,47.763 L242.096731,48.936 L241.303431,50.109 L240.475531,51.282 L239.613831,52.454 L238.722631,53.626 L237.800631,54.794 L236.848431,55.96 L235.870131,57.123 L234.864731,58.28 L233.832831,59.433 L232.778231,60.581 L231.700231,61.723 L230.599431,62.857 L229.479431,63.984 L228.339631,65.103 L227.182331,66.211 L225.998331,67.308 L224.816431,68.404 L223.604331,69.477 L222.392031,70.551 L221.155131,71.599 L219.917431,72.647 L218.661531,73.671 L217.406131,74.694 L216.135431,75.686 L214.864631,76.679 L213.584031,77.638 L212.302731,78.598 L211.016731,79.525 L209.731231,80.452 L208.445331,81.34 L207.159531,82.228 L205.878531,83.075 L204.597031,83.923 L203.324331,84.731 L202.052431,85.538 L200.794831,86.299 L199.537431,87.06 L198.299831,87.772 L197.060031,88.485 L195.840431,89.161 L194.633031,89.811 L193.440231,90.434 L192.262231,91.032 L191.102131,91.601 L189.955831,92.143 C189.568731,92.326 189.403231,92.788 189.586131,93.175 C189.768931,93.562 190.230931,93.727 190.617931,93.544 L191.774831,92.998 L192.954731,92.421 L194.150731,91.815 L195.360831,91.184 L196.585631,90.526 L197.824931,89.841 L199.075931,89.122 L200.329331,88.403 L201.602031,87.634 L202.874631,86.865 L204.161231,86.05 L205.447031,85.236 L206.741431,84.381 L208.036431,83.526 L209.336031,82.63 L210.635631,81.734 L211.934631,80.799 L213.233031,79.865 L214.526531,78.897 L215.820731,77.93 L217.104931,76.928 L218.389231,75.927 L219.658031,74.895 L220.926531,73.863 L222.176731,72.805 L223.427631,71.747 L224.653831,70.663 L225.880131,69.579 L227.076431,68.472 L228.270631,67.367 L229.445231,66.244 L230.600031,65.113 L231.734731,63.973 L232.850431,62.825 L233.944331,61.669 L235.014531,60.506 L236.062231,59.337 L237.084531,58.162 L238.079331,56.981 L239.048431,55.797 L239.988431,54.608 L240.897331,53.415 L241.777031,52.22 L242.624031,51.022 L243.436131,49.824 L244.215731,48.623 L244.958931,47.422 L245.663431,46.221 L246.332031,45.021 L246.960431,43.821 L247.546331,42.624 L248.092931,41.428 L248.595331,40.235 L249.051431,39.046 L249.464431,37.86 L249.829331,36.677 L250.143731,35.501 L250.411331,34.329 L250.626531,33.163 L250.786931,32.005 L250.896631,30.853 L250.949131,29.708 L250.942731,28.574 L250.881431,27.449 L250.758231,26.332 L250.572131,25.23 L250.327031,24.139 L250.015631,23.06 L249.637731,21.998 L249.197731,20.951 L248.687531,19.92 L248.108031,18.909 L247.463831,17.916 L246.746431,16.941 L245.957431,15.99 L245.101431,15.058 L244.169531,14.148 L243.163531,13.263 L242.088231,12.4 L240.934131,11.56 L239.703131,10.746 L238.399931,9.956 L237.014931,9.19 L235.549531,8.452 L234.008831,7.738 L232.382931,7.051 L230.678231,6.394 L229.788431,6.073 L228.881631,5.76 L227.953431,5.455 L227.005231,5.157 L226.034231,4.865 L225.041231,4.581 L224.027731,4.304 L222.991131,4.035 L221.932031,3.773 L220.852031,3.518 L219.748331,3.271 L218.621731,3.032 L217.473731,2.8 L216.301631,2.576 L215.106131,2.36 L213.888731,2.152 L212.646831,1.951 L211.378731,1.759 L209.942431,1.561 L208.503231,1.361 L207.055731,1.189 L205.608431,1.017 L204.153331,0.872 L202.699131,0.726 L201.238231,0.605 L199.776831,0.483 L198.308531,0.387 L196.840431,0.291 L195.365931,0.22 L193.892231,0.149 L192.413131,0.1 L190.933631,0.051 L189.448631,0.027 L187.963731,0.002 L186.473931,0 L184.984931,0 L183.491731,0.02 L181.998131,0.04 L180.500531,0.083 L179.003031,0.126 L177.502031,0.191 L176.001631,0.256 L174.498531,0.341 L172.994931,0.426 L171.488731,0.533 L169.982731,0.639 L168.474531,0.767 L166.967031,0.894 L165.458031,1.04 L163.948531,1.186 L162.437931,1.352 L160.927431,1.517 L159.416131,1.703 L157.905531,1.888 L156.394731,2.091 L154.883431,2.293 L153.372431,2.515 L151.861531,2.736 L150.351331,2.975 L148.841731,3.214 L147.333131,3.47 L145.824231,3.725 L144.316931,3.998 L142.809731,4.27 L141.304631,4.559 L139.800031,4.848 L138.297831,5.152 L136.795231,5.456 L135.295731,5.776 L133.796331,6.095 L132.300431,6.43 L130.805031,6.765 L129.313231,7.114 L127.821231,7.462 L126.333531,7.825 L124.846031,8.188 L123.363431,8.565 L121.881231,8.941 L120.404031,9.33 L118.926431,9.719 L117.454731,10.121 L115.983231,10.523 L114.517931,10.937 L113.053131,11.352 L111.594531,11.777 L110.135531,12.202 L108.683831,12.639 L107.232231,13.075 L105.788331,13.523 L104.344931,13.971 L102.908931,14.428 L101.472631,14.886 L100.045131,15.353 L98.617631,15.821 L97.199261,16.298 L95.781321,16.776 L94.372131,17.261 L92.962691,17.747 L91.563341,18.242 L90.164051,18.736 L88.775361,19.239 L87.387021,19.742 L86.008731,20.252 L84.630101,20.762 L83.262951,21.279 L81.895871,21.796 L80.540791,22.32 L79.186061,22.844 L77.842651,23.374 L76.498991,23.904 L75.168251,24.44 L73.837561,24.976 L72.520291,25.518 L71.205101,26.059 L70.231571,26.462 L69.172881,26.901 L68.033131,27.376 L66.824321,27.882 L65.544631,28.424 L64.200231,29 L62.801431,29.607 L61.347701,30.248 L59.845151,30.921 L58.302621,31.625 L56.720951,32.361 L55.106551,33.129 L53.466621,33.926 L51.803281,34.755 L50.123101,35.614 L48.431731,36.502 L46.732651,37.42 L45.032561,38.369 L43.335591,39.344 L41.646511,40.35 L39.972271,41.384 L38.315411,42.445 L36.681901,43.534 L35.078691,44.652 L33.507071,45.795 L31.974391,46.967 L30.488181,48.166 L29.047791,49.39 L27.661881,50.644 L26.338391,51.924 L25.075131,53.229 L23.882121,54.564 L22.774661,55.917 L22.238711,56.616 L21.730111,57.314 L21.244331,58.019 L20.779271,58.73 L20.337031,59.449 L19.919801,60.174 L19.525341,60.906 L19.155981,61.646 L18.813911,62.392 L18.496751,63.144 L18.206581,63.905 L17.946001,64.672 L17.712541,65.444 L17.509191,66.226 L17.337741,67.012 L17.195671,67.804 L17.086331,68.605 L17.011091,69.409 L16.967401,70.219 L16.958981,71.037 L16.986641,71.857 L17.047801,72.683 L17.146561,73.515 L17.283081,74.349 L17.454791,75.187 L17.666121,76.031 L17.916651,76.877 L18.203821,77.725 L18.532401,78.579 L18.905061,79.441 L19.594501,80.874 L20.352141,82.263 L21.170421,83.597 L22.043821,84.883 L22.977791,86.119 L23.967691,87.301 L25.008561,88.436 L26.106201,89.522 L27.255191,90.555 L28.450801,91.544 L29.698001,92.485 L30.991651,93.376 L32.327831,94.225 L33.711201,95.028 L35.136801,95.784 L36.601111,96.5 L38.108411,97.173 L39.654081,97.802 L41.234901,98.393 L42.854711,98.943 L44.509261,99.452 L46.195571,99.925 L47.917031,100.36 L49.669731,100.756 L51.451371,101.116 L53.264321,101.44 L55.104991,101.728 L56.970781,101.984 L58.864151,102.207 L60.781821,102.396 L62.721401,102.555 L64.684871,102.683 L66.669231,102.78 L68.669391,102.85 L69.684041,102.87 L70.695521,102.89 L71.716361,102.896 L72.736211,102.902 L73.764041,102.895 L74.792341,102.888 L75.828831,102.867 L76.865041,102.847 L77.908791,102.813 L78.951671,102.779 L80.000881,102.734 L81.050511,102.688 L82.106491,102.63 L83.162241,102.572 L84.223691,102.502 L85.287111,102.432 L86.357251,102.346 L87.419121,102.26 L88.480991,102.175 L89.554351,102.088 L90.635571,101.98 L91.705431,101.872 L92.775291,101.765 L93.855731,101.656 L94.941381,101.527 L96.016551,101.399 L97.091711,101.27 L98.175831,101.141 L99.262631,100.995 L100.340431,100.849 L101.418331,100.704 L102.505431,100.557 L103.593031,100.392 L104.671531,100.229 L105.750031,100.066 L106.837131,99.901 L107.922131,99.721 L108.998531,99.541 L110.075031,99.362 L111.158731,99.181 L112.238531,98.987 L113.310931,98.794 L114.383431,98.601 L115.463431,98.407 L116.536731,98.199 L117.602431,97.993 L118.668231,97.786 L119.741031,97.579 L120.804431,97.359 L121.860731,97.14 L122.917031,96.922 L123.979431,96.703 L125.031231,96.473 L126.076931,96.246 L127.122531,96.018 L128.174531,95.788 L129.212531,95.55 L130.244031,95.313 L131.275631,95.076 L132.313231,94.837 L133.334131,94.592 L134.348931,94.347 L135.363731,94.103 L136.382531,93.857 L137.388631,93.607 L138.393531,93.358 L139.388331,93.105 L140.382931,92.853 L141.366831,92.598 L142.350431,92.343 L143.323631,92.087 L144.297931,91.83 L146.219831,91.313 L148.117031,90.794 L149.990131,90.273 L151.835731,89.75 L153.652031,89.227 L155.440831,88.704 L157.198531,88.182 L158.923331,87.661 L160.617231,87.143 L162.276431,86.628 L163.899031,86.116 L165.487531,85.608 L167.037531,85.106 L168.547431,84.609 L170.019831,84.118 L171.450131,83.635 L172.836531,83.16 L174.182331,82.692 L175.482331,82.234 L176.734931,81.786 L177.943431,81.348 L179.102831,80.921 L180.211031,80.506 L181.272031,80.104 L182.280331,79.714 L183.232931,79.34 L183.600831,79.192 L183.993431,79.031 L184.410531,78.856 L184.849831,78.669 L185.313231,78.467 L185.802131,78.252 L186.832531,77.788 L187.950731,77.271 L189.146931,76.704 L190.409431,76.092 L191.739931,75.432 L193.131031,74.727 L194.572731,73.981 L196.064731,73.191 L197.599931,72.36 L199.169631,71.492 L200.772131,70.585 L202.400131,69.641 L204.046631,68.664 L205.708331,67.652 L207.378031,66.607 L209.050431,65.534 L210.720531,64.43 L212.380731,63.297 L214.027431,62.139 L215.654431,60.954 L217.253831,59.745 L218.823831,58.515 L220.356731,57.261 L221.844431,55.986 L223.286731,54.694 L224.674731,53.381 L225.999731,52.052 L227.263431,50.708 L228.455531,49.345 L229.559031,47.979 L230.093131,47.277 L230.598631,46.579 L231.080331,45.88 L231.540531,45.176 L231.977131,44.469 L232.387531,43.759 L232.774131,43.046 L233.134531,42.328 L233.466131,41.609 L233.771431,40.886 L234.047831,40.159 L234.292631,39.431 L234.508431,38.7 L234.692131,37.964 L234.841231,37.228 L234.958431,36.49 L235.040031,35.748 L235.084231,35.007 L235.093631,34.266 L235.063831,33.521 L234.994131,32.78 L234.887031,32.04 L234.737731,31.299 L234.546731,30.564 L234.316531,29.832 L234.041831,29.102 L233.724431,28.379 L233.366731,27.661 L232.963031,26.946 L232.517531,26.243 L231.985131,25.468 L231.426331,24.709 L230.842131,23.967 L230.234331,23.238 L229.599631,22.523 L228.940731,21.823 L228.259131,21.137 L227.551931,20.465 L226.821631,19.808 L226.069731,19.165 L225.293231,18.535 L224.494831,17.92 L223.675731,17.318 L222.833031,16.729 L221.969431,16.155 L221.086031,15.594 L220.180231,15.046 L219.249231,14.509 L218.300931,13.997 L217.346131,13.481 L216.350231,12.992 L215.355031,12.503 L214.320131,12.04 L213.287631,11.578 L212.220031,11.14 L211.151231,10.701 L210.045031,10.287 L208.939431,9.874 L207.797731,9.486 L206.658031,9.098 L205.486631,8.733 L204.314131,8.368 L203.107731,8.027 L201.901831,7.687 L200.663331,7.37 L199.426731,7.055 L198.161431,6.76 L196.895231,6.466 L195.598731,6.195 L194.302631,5.925 L192.977431,5.678 L191.653831,5.431 L190.304731,5.205 L188.954931,4.979 L187.578231,4.776 L186.201931,4.573 L184.800031,4.393 L183.399531,4.213 L181.976831,4.053 L180.553331,3.893 L179.106631,3.756 L177.660131,3.618 L176.191631,3.503 L174.724331,3.387 L173.238131,3.291 L171.751131,3.196 L170.244431,3.122 L168.737931,3.047 L167.213031,2.994 L165.689131,2.942 L164.149531,2.908 L162.609231,2.874 L161.052731,2.861 L159.496431,2.848 L157.925231,2.856 L156.354931,2.864 L154.772131,2.89 L153.188731,2.916 L151.592631,2.962 L149.996731,3.009 L148.389431,3.075 L146.783031,3.141 L145.167331,3.225 L143.550931,3.31 L141.925531,3.413 L140.300231,3.517 L138.667231,3.64 L137.034831,3.763 L135.396531,3.903 L133.757531,4.044 L132.113031,4.203 L130.468631,4.362 L128.820031,4.54 L127.172131,4.718 L125.521431,4.912 L123.870131,5.107 L122.216931,5.32 L120.563731,5.533 L118.909831,5.764 L117.256731,5.995 L115.604031,6.242 L113.950631,6.489 L112.298931,6.754 L110.647231,7.019 L108.998431,7.3 L107.350331,7.582 L105.705831,7.88 L104.060731,8.177 L102.420831,8.492 L100.780931,8.806 L99.147531,9.137 L97.514711,9.469 L95.888861,9.815 L94.262341,10.161 L92.644571,10.523 L91.026751,10.886 L89.419001,11.264 L87.811851,11.643 L86.214891,12.035 L84.617191,12.428 L83.031831,12.837 L81.446381,13.246 L79.874561,13.669 L78.303341,14.093 L76.745551,14.531 L75.186961,14.969 L73.644281,15.421 L72.101471,15.874 L70.575851,16.342 L69.050861,16.809 L67.542521,17.29 L66.033311,17.77 L64.543551,18.266 L63.053651,18.761 L61.584491,19.27 L60.115981,19.779 L58.667351,20.301 L57.217771,20.823 L55.791191,21.359 L54.364421,21.895 L52.961951,22.444 L51.560161,22.994 L50.181491,23.555 L48.801781,24.117 L47.448771,24.692 L46.095521,25.267 L44.770141,25.856 L43.445471,26.444 L42.147171,27.043 L40.847651,27.643 L39.578251,28.256 L38.308551,28.868 L37.070261,29.493 L35.832741,30.118 L34.624821,30.754 L33.415501,31.39 L32.239851,32.039 L31.063831,32.687 L29.922781,33.348 L28.782571,34.008 L27.675181,34.678 L26.566201,35.35 L25.494441,36.032 L24.422241,36.716 L23.388581,37.41 L22.355851,38.104 L21.359191,38.808 L20.360711,39.514 L19.403001,40.23 L18.444801,40.947 L17.528681,41.675 L16.617561,42.399 L15.727131,43.137 L14.861431,43.879 L14.018541,44.625 L13.195891,45.376 L12.394981,46.134 L11.617831,46.896 L10.861781,47.664 L10.128361,48.438 L9.419701,49.217 L8.733011,50 L8.069911,50.791 L7.432585,51.586 L6.818154,52.386 L6.228324,53.192 L5.665334,54.003 L5.126222,54.82 L4.612889,55.643 L4.127562,56.47 L3.667166,57.302 L3.233685,58.142 L2.829289,58.985 L2.450943,59.833 L2.100828,60.688 L1.780953,61.547 L1.488295,62.41 L1.225275,63.28 L0.993621,64.153 L0.790358,65.031 L0.618178,65.915 L0.478001,66.804 L0.294486,68.245 L0.155688,69.669 L0.061993,71.07 L0.008897,72.452 L0,73.815 L0.034911,75.154 L0.109408,76.474 L0.227169,77.775 L0.387344,79.053 L0.586019,80.311 L0.826956,81.55 L1.108813,82.765 L1.428017,83.961 L1.788341,85.137 L2.187836,86.289 L2.623237,87.422 L3.098436,88.534 L3.610951,89.623 L4.15784,90.691 L4.743024,91.739 L5.363571,92.763 L6.016851,93.767 L6.706778,94.751 L7.430099,95.711 L8.184471,96.651 L8.973761,97.57 L9.794531,98.466 L10.644691,99.342 L11.528021,100.198 L12.441041,101.031 L13.381841,101.845 L14.354101,102.638 L15.354361,103.409 L16.380891,104.161 L17.437211,104.893 L18.519991,105.603 L19.627581,106.295 L20.763371,106.967 L21.924141,107.618 L23.108361,108.251 L24.319221,108.865 L25.553671,109.458 L26.810251,110.033 L28.091941,110.59 L29.395891,111.127 L30.720681,111.646 L32.069101,112.147 L33.438461,112.629 L34.827391,113.093 L36.238501,113.54 L37.669231,113.967 L39.118301,114.378 L40.588091,114.771 L42.076211,115.146 L43.581071,115.506 L45.105231,115.848 L46.646471,116.172 L48.203591,116.481 L49.778611,116.772 L51.373311,117.047 L52.981331,117.296 L54.594441,117.547 L56.238521,117.763 L57.882111,117.98 L59.554651,118.163 L61.225361,118.345 L62.920791,118.498 L64.617241,118.651 L66.339061,118.771 L68.060511,118.891 L69.805241,118.98 L71.548351,119.071 L73.311131,119.132 L75.074911,119.194 L76.858521,119.224 L78.641891,119.254 L80.443041,119.254 L82.242831,119.252 L84.057171,119.223 L85.872501,119.194 L87.702041,119.135 L89.531411,119.076 L91.372951,118.987 L93.213261,118.898 L95.063021,118.782 L96.913731,118.666 L98.772931,118.52 L100.632131,118.374 L102.497731,118.199 L104.362331,118.025 L106.231131,117.824 L108.100931,117.624 L109.973731,117.395 L111.846431,117.167 L113.720131,116.911 L115.592631,116.655 L117.464431,116.375 L119.337231,116.094 L121.207331,115.786 L123.077431,115.479 L124.942631,115.144 L126.806831,114.809 L128.665031,114.45 L130.524331,114.091 L132.375331,113.706 L134.226331,113.321 L136.067031,112.912 L137.906731,112.502 L139.735331,112.069 L141.565131,111.637 L143.381031,111.179 L145.196931,110.722 L146.996931,110.24 L148.795931,109.759 L150.578731,109.256 L152.362731,108.752 L154.127131,108.225 L155.891731,107.698 L157.634731,107.148 L159.376831,106.598 L161.097631,106.028 L162.819731,105.457 L164.516631,104.863 L166.213831,104.27 L167.883831,103.654 L169.552831,103.039 L171.195431,102.404 L172.839531,101.769 L174.452931,101.112 L176.066531,100.455 L177.647131,99.777 L179.226831,99.099 L180.775031,98.403 L182.324931,97.705 L183.838431,96.988 L185.352431,96.27 L186.827831,95.532 L188.298531,94.797 L189.750231,94.044 L191.178731,93.283 L192.585531,92.512 L193.973031,91.733 L195.339631,90.943 L196.683231,90.144 L198.006131,89.337 L199.306931,88.519 L200.583031,87.693 L201.837231,86.858 L203.067931,86.013 L204.272631,85.159 L205.454231,84.297 L206.611031,83.426 L207.740331,82.546 L208.845331,81.657 L209.924031,80.759 L210.973931,79.853 L211.998131,78.938 L212.994631,78.014 L213.960831,77.081 L214.900031,76.141 L215.810231,75.191 L216.688431,74.233 L217.538231,73.266 L218.357531,72.29 L219.143331,71.307 L219.899231,70.315 L220.623031,69.313 L221.311631,68.304 L221.968831,67.287 L222.592131,66.259 L223.178531,65.225 L223.731931,64.182 L224.249431,63.13 L224.728331,62.071 L225.172431,61.004 L225.578731,59.927 L225.944431,58.844 L226.273631,57.754 L226.562831,56.654 L226.809731,55.55 L227.018331,54.438 L227.184731,53.318 L227.307431,52.193 L227.390131,51.063 L227.428531,49.925 L227.421831,48.784 L227.373831,47.639 L227.279731,46.485 L227.139531,45.331 L226.956831,44.173 L226.726531,43.009 L226.447931,41.839 L226.101231,40.607 L225.693531,39.403 L225.230631,38.24 L224.716831,37.112 L224.146931,36.017 L223.526231,34.965 L222.858631,33.948 L222.138831,32.965 L221.373431,32.023 L220.565631,31.116 L219.710031,30.244 L218.813931,29.411 L217.879631,28.611 L216.902331,27.845 L215.888631,27.116 L214.840931,26.418 L213.754231,25.753 L212.635031,25.121 L211.485131,24.52 L210.300031,23.948 L209.085731,23.408 L207.843731,22.895 L206.570031,22.411 L205.269931,21.956 L203.945131,21.527 L202.591831,21.124 L201.215031,20.748 L199.816131,20.396 L198.392131,20.068 L196.947131,19.766 L195.482731,19.485 L193.996331,19.227 L192.491831,18.993 L190.970531,18.779 L189.430231,18.586 L187.869131,18.414 L186.298931,18.271 L184.722131,18.128 L183.116431,18.024 L181.512331,17.919 L179.883631,17.852 L178.258131,17.785 L176.613931,17.75 L174.969131,17.714 L173.307631,17.712 L171.647431,17.709 L169.975031,17.738 L168.305131,17.766 L166.627731,17.82 L164.949931,17.875 L163.267731,17.956 L161.586731,18.038 L159.905831,18.144 L158.226931,18.25 L156.551831,18.377 L154.876431,18.503 L153.209131,18.651 L151.542631,18.799 L149.888831,18.965 L148.236731,19.132 L146.599631,19.314 L144.962331,19.496 L143.345631,19.692 L141.729631,19.889 L140.138831,20.099 L138.549331,20.309 L136.986231,20.528 L135.423031,20.748 L133.892831,20.977 L132.363331,21.205 L130.871331,21.441 L129.382131,21.676 L127.917431,21.916 L126.476031,22.157 L125.058231,22.4 L123.662431,22.644 L122.291431,22.888 L120.947031,23.133 L119.627431,23.377 L118.335831,23.62 L117.073931,23.862 L115.839631,24.102 L114.636531,24.34 L113.466131,24.575 L112.326331,24.806 L111.220731,25.034 L110.150931,25.258 L109.114531,25.477 L108.115531,25.691 L107.155531,25.899 L106.231731,26.102 L105.348431,26.297 L104.507331,26.485 L103.705131,26.667 L102.946731,26.84 L102.228031,27.005 L101.065931,27.28 L99.897531,27.557 L98.732131,27.847 L97.566971,28.138 L96.404941,28.442 L95.243981,28.745 L94.086021,29.061 L92.927301,29.377 L91.771991,29.705 L90.616871,30.034 L89.465321,30.375 L88.314791,30.716 L87.167621,31.069 L86.019741,31.421 L84.875691,31.786 L83.731801,32.151 L82.591911,32.528 L81.452981,32.904 L80.317791,33.291 L79.181921,33.679 L78.050291,34.077 L76.918821,34.476 L75.791751,34.886 L74.665721,35.295 L74.161411,35.487 L73.632211,35.701 L73.082051,35.935 L72.512691,36.186 L71.922271,36.456 L71.306241,36.747 L70.055571,37.36 L68.742421,38.036 L67.395011,38.76 L66.028991,39.521 L64.656561,40.314 L63.297831,41.129 L61.964351,41.957 L60.672671,42.793 L59.451361,43.62 L58.853051,44.039 L58.282531,44.451 L57.735531,44.857 L57.210361,45.259 L56.709631,45.658 L56.237651,46.049 L55.791451,46.436 L55.373091,46.82 L54.987481,47.198 L54.629761,47.576 L54.300481,47.96 L54.006241,48.349 L53.741021,48.761 L53.508761,49.223 L53.334991,49.746 L53.251041,50.368 L53.343211,51.105 L53.664441,51.805 L54.155601,52.356 L54.724231,52.725 L55.274681,52.938 L55.816321,53.063 L56.377541,53.128 L56.901001,53.146 C57.936041,53.178 58.801011,52.365 58.832961,51.33 C58.864911,50.295 58.051751,49.43 57.016711,49.398 Z" id="Fill-82"></path>
            <path d="M120.821731,27.244 C116.263531,5.8 -9.512976,37.813 19.155081,82.192 C52.000511,133.038 245.337431,100.328 235.142031,45.821 C225.196231,-7.352 56.001981,2.428 46.376051,48.351" id="Fill-91"></path>
            <path d="M122.630031,26.749 L122.414631,25.98 L122.062531,25.141 L121.615131,24.365 L121.084631,23.645 L120.466831,22.979 L119.783131,22.38 L119.040231,21.836 L118.230931,21.342 L117.370431,20.902 L116.461031,20.504 L115.494231,20.149 L114.480431,19.836 L113.421431,19.559 L112.309931,19.319 L111.153731,19.115 L109.955331,18.942 L108.708831,18.804 L107.420631,18.698 L106.093831,18.622 L104.723531,18.578 L103.315431,18.565 L101.872831,18.579 L100.391731,18.625 L98.877431,18.7 L97.333061,18.802 L95.755581,18.933 L94.149751,19.092 L92.518481,19.278 L90.859641,19.492 L89.177601,19.734 L87.475021,20 L85.750401,20.294 L84.007941,20.615 L82.249901,20.96 L80.475421,21.332 L78.688571,21.729 L76.891191,22.149 L75.082981,22.596 L73.267961,23.067 L71.447471,23.561 L69.621811,24.08 L67.794911,24.623 L65.967671,25.188 L64.140871,25.777 L62.318551,26.39 L60.501081,27.023 L58.689701,27.681 L56.888411,28.36 L55.097011,29.06 L53.317311,29.783 L51.553391,30.527 L49.804801,31.292 L48.073521,32.079 L46.363721,32.886 L44.674071,33.713 L43.007281,34.561 L41.367701,35.429 L39.753371,36.316 L38.167441,37.223 L36.614441,38.15 L35.091801,39.095 L33.603081,40.06 L32.153051,41.044 L30.738521,42.046 L29.363411,43.068 L28.032821,44.108 L26.742891,45.165 L25.497991,46.243 L24.303531,47.338 L23.155051,48.451 L22.057371,49.585 L21.016261,50.735 L20.027331,51.904 L19.095471,53.094 L18.226741,54.3 L17.415681,55.525 L16.668471,56.771 L15.991431,58.033 L15.378811,59.312 L14.837861,60.614 L14.374641,61.93 L13.983741,63.262 L13.673081,64.616 L13.447581,65.98 L13.301151,67.358 L13.243321,68.753 L13.276861,70.155 L13.395411,71.567 L13.609331,72.991 L13.918861,74.418 L14.317791,75.85 L14.816951,77.291 L15.405951,78.712 L15.747781,79.453 L16.107341,80.177 L16.491521,80.899 L16.899071,81.622 L17.333401,82.348 L17.794871,83.075 L18.347861,83.899 L18.931681,84.712 L19.540991,85.508 L20.174751,86.289 L20.836491,87.056 L21.522301,87.806 L22.230881,88.541 L22.965521,89.262 L23.722981,89.967 L24.502081,90.658 L25.306031,91.334 L26.131641,91.995 L26.977851,92.642 L27.847731,93.275 L28.738231,93.893 L29.648601,94.497 L30.581951,95.086 L31.534921,95.661 L32.506521,96.222 L33.499551,96.77 L34.511281,97.303 L35.540771,97.824 L36.590621,98.331 L37.663521,98.827 L38.750541,99.299 L39.844031,99.774 L40.973611,100.225 L42.101701,100.677 L43.265421,101.103 L44.426611,101.528 L45.619121,101.929 L46.812721,102.331 L48.039551,102.708 L49.265661,103.085 L50.523621,103.436 L51.779411,103.787 L53.062451,104.118 L54.346361,104.45 L55.659771,104.757 L56.972661,105.065 L58.313681,105.348 L59.652901,105.63 L61.016621,105.891 L62.381251,106.153 L63.771621,106.39 L65.161561,106.628 L66.575851,106.842 L67.988591,107.056 L69.422391,107.248 L70.857031,107.441 L72.313621,107.612 L73.769871,107.782 L75.246691,107.929 L76.722171,108.076 L78.215291,108.203 L79.709181,108.329 L81.221241,108.434 L82.733021,108.538 L84.261581,108.621 L85.788951,108.703 L87.330491,108.766 L88.872771,108.828 L90.429431,108.869 L91.985871,108.909 L93.555291,108.928 L95.123641,108.948 L96.702711,108.948 L98.282431,108.948 L99.872831,108.927 L101.462931,108.906 L103.062331,108.865 L104.660731,108.824 L106.266331,108.764 L107.872631,108.704 L109.485731,108.624 L111.098731,108.543 L112.717031,108.443 L114.334431,108.342 L115.955631,108.223 L117.577531,108.104 L119.202331,107.965 L120.827031,107.827 L122.453331,107.669 L124.078731,107.511 L125.704531,107.336 L127.331031,107.16 L128.956631,106.966 L130.582131,106.772 L132.205431,106.559 L133.827931,106.347 L135.447431,106.117 L137.067531,105.888 L138.682831,105.64 L140.298231,105.392 L141.907531,105.126 L143.516031,104.86 L145.118031,104.578 L146.720731,104.295 L148.314931,103.996 L149.909031,103.696 L151.493231,103.378 L153.076731,103.06 L154.650231,102.727 L156.224431,102.394 L157.786331,102.043 L159.348231,101.693 L160.896531,101.326 L162.444131,100.959 L163.978231,100.578 L165.513031,100.196 L167.031731,99.798 L168.550631,99.4 L170.051931,98.985 L171.552631,98.571 L173.036331,98.143 L174.520931,97.714 L175.985531,97.27 L177.450331,96.826 L178.893831,96.366 L180.336631,95.907 L181.759031,95.433 L183.182231,94.96 L184.581931,94.471 L185.981631,93.983 L187.356331,93.479 L188.730331,92.976 L190.080531,92.46 L191.431631,91.943 L192.755231,91.412 L194.079131,90.881 L195.374131,90.335 L196.668531,89.791 L197.935731,89.233 L199.204031,88.675 L200.441031,88.104 L201.678331,87.532 L202.883031,86.947 L204.086931,86.362 L205.260031,85.765 L206.434431,85.167 L207.573931,84.556 L208.713731,83.945 L209.817031,83.321 L210.919631,82.697 L211.987931,82.062 L213.057731,81.425 L214.088631,80.777 L215.120031,80.127 L216.111131,79.465 L217.101331,78.804 L218.054331,78.132 L219.009031,77.459 L219.921131,76.773 L220.833731,76.087 L221.702231,75.389 L222.569731,74.692 L223.396131,73.984 L224.224331,73.274 L225.006031,72.552 L225.788231,71.829 L226.522531,71.095 L227.251531,70.365 L227.956031,69.618 L228.632631,68.869 L229.283331,68.114 L229.910831,67.353 L230.513331,66.585 L231.088831,65.812 L231.640231,65.033 L232.165431,64.247 L232.662531,63.456 L233.134331,62.66 L233.578831,61.856 L233.993931,61.047 L234.382731,60.233 L234.742731,59.411 L235.072231,58.585 L235.374131,57.754 L235.645931,56.915 L235.886031,56.073 L236.097331,55.226 L236.277031,54.371 L236.424031,53.514 L236.541031,52.652 L236.625031,51.783 L236.675331,50.912 L236.694631,50.038 L236.679731,49.157 L236.630531,48.275 L236.549731,47.39 L236.433631,46.499 L236.282731,45.609 L236.107231,44.745 L235.903931,43.892 L235.673731,43.052 L235.418831,42.221 L235.136731,41.4 L234.828831,40.592 L234.497331,39.793 L234.139331,39.005 L233.756831,38.229 L233.351531,37.464 L232.920931,36.709 L232.466931,35.966 L231.991231,35.234 L231.491131,34.511 L230.968731,33.802 L230.425631,33.102 L229.859031,32.413 L229.271331,31.736 L228.663831,31.07 L228.033931,30.413 L227.383831,29.769 L226.714831,29.135 L226.024531,28.511 L225.305931,27.891 L223.841931,26.704 L222.290031,25.551 L220.665431,24.442 L218.981031,23.375 L218.094031,22.857 L217.213431,22.342 L216.298431,21.848 L215.385531,21.354 L214.442331,20.879 L213.497231,20.406 L212.519431,19.954 L211.542231,19.502 L210.534231,19.07 L209.528031,18.639 L208.494731,18.226 L207.460531,17.812 L206.397731,17.418 L205.335431,17.025 L204.245631,16.65 L203.157231,16.277 L202.044431,15.922 L200.930731,15.568 L199.791731,15.233 L198.653131,14.898 L197.490331,14.582 L196.328831,14.267 L195.146431,13.969 L193.963331,13.671 L192.758231,13.391 L191.553531,13.112 L190.328231,12.85 L189.104231,12.588 L187.862231,12.343 L186.619631,12.097 L185.358331,11.87 L184.097231,11.643 L182.818631,11.434 L181.540931,11.226 L180.248231,11.034 L178.955031,10.842 L177.646531,10.667 L176.338331,10.492 L175.015731,10.335 L173.694031,10.178 L172.360331,10.038 L171.026131,9.897 L169.679831,9.774 L168.333631,9.651 L166.976531,9.546 L165.620231,9.44 L164.254931,9.35 L162.889131,9.26 L161.514531,9.188 L160.140031,9.115 L158.757931,9.06 L157.376531,9.005 L155.989031,8.966 L154.601231,8.926 L153.207831,8.903 L151.814631,8.88 L150.417031,8.875 L149.020031,8.869 L147.620031,8.879 L146.219731,8.888 L144.817131,8.915 L143.414631,8.942 L142.011231,8.985 L140.608231,9.028 L139.205431,9.086 L137.802031,9.144 L136.399931,9.218 L134.997731,9.293 L133.598031,9.384 L132.198731,9.475 L130.802631,9.581 L129.405931,9.687 L128.013831,9.81 L126.621731,9.932 L125.235231,10.07 L123.849331,10.209 L122.469531,10.362 L121.089231,10.515 L119.716731,10.685 L118.344331,10.854 L116.980831,11.039 L115.617831,11.224 L114.264031,11.424 L112.909731,11.623 L111.566531,11.839 L110.223331,12.054 L108.892531,12.285 L107.562131,12.516 L106.243931,12.761 L104.925131,13.006 L103.620731,13.266 L102.316331,13.526 L101.027531,13.802 L99.739231,14.077 L98.466231,14.366 L97.192561,14.656 L95.936701,14.96 L94.680751,15.265 L93.443761,15.585 L92.207231,15.904 L90.988941,16.237 L89.769981,16.571 L88.572161,16.919 L87.374201,17.267 L86.198581,17.63 L85.023441,17.993 L83.869571,18.37 L82.714951,18.747 L81.584781,19.138 L80.454451,19.53 L79.349781,19.936 L78.245611,20.342 L77.165751,20.761 L76.085031,21.18 L75.032071,21.614 L73.978911,22.049 L72.954731,22.497 L71.931111,22.945 L70.934811,23.407 L69.937511,23.868 L68.971311,24.344 L68.004851,24.821 L67.070701,25.311 L66.137171,25.801 L65.233981,26.304 L64.329651,26.808 L63.459751,27.326 L62.586041,27.846 L60.921101,28.908 L59.318841,29.997 L57.790531,31.117 L56.340711,32.264 L54.963231,33.437 L53.666441,34.639 L52.455221,35.87 L51.322841,37.126 L50.278381,38.413 L49.332961,39.719 L48.883451,40.395 L48.463191,41.07 L48.067811,41.751 L47.694851,42.439 L47.346321,43.136 L47.023661,43.838 L46.724391,44.546 L46.450691,45.263 L46.203831,45.985 L45.981331,46.714 L45.785551,47.45 L45.620341,48.179 C45.525441,48.597 45.786841,49.012 46.204201,49.107 C46.621571,49.202 47.036851,48.94 47.131761,48.523 L47.291631,47.822 L47.473971,47.142 L47.682011,46.465 L47.912871,45.793 L48.168251,45.128 L48.448811,44.467 L48.751651,43.812 L49.078301,43.162 L49.429591,42.517 L49.802601,41.877 L50.198761,41.243 L50.613071,40.622 L51.522691,39.37 L52.516521,38.15 L53.600811,36.951 L54.764571,35.773 L56.012621,34.62 L57.344991,33.49 L58.751171,32.381 L60.235341,31.299 L61.797201,30.241 L63.430351,29.204 L64.277261,28.702 L65.127961,28.198 L66.013361,27.707 L66.899901,27.215 L67.817011,26.736 L68.733501,26.257 L69.682551,25.791 L70.631861,25.326 L71.612501,24.874 L72.594151,24.421 L73.603291,23.982 L74.611891,23.542 L75.649671,23.117 L76.687671,22.691 L77.753651,22.279 L78.820491,21.868 L79.911771,21.469 L81.002551,21.07 L82.119151,20.685 L83.235911,20.301 L84.377291,19.931 L85.519421,19.561 L86.682941,19.203 L87.845981,18.846 L89.031491,18.504 L90.217121,18.162 L91.423991,17.834 L92.631541,17.506 L93.857421,17.192 L95.082851,16.878 L96.327441,16.579 L97.572101,16.28 L98.834631,15.996 L100.097831,15.712 L101.376231,15.442 L102.654231,15.171 L103.947931,14.916 L105.241731,14.661 L106.549931,14.422 L107.858931,14.183 L109.180131,13.957 L110.500831,13.732 L111.833931,13.523 L113.167031,13.313 L114.511231,13.12 L115.856031,12.926 L117.210031,12.746 L118.563431,12.567 L119.925931,12.403 L121.288431,12.239 L122.658731,12.091 L124.029531,11.943 L125.406431,11.81 L126.782831,11.677 L128.164931,11.56 L129.547031,11.443 L130.933531,11.342 L132.320531,11.241 L133.710531,11.155 L135.100031,11.069 L136.491931,10.999 L137.883731,10.929 L139.276631,10.876 L140.669931,10.823 L142.063331,10.784 L143.456231,10.747 L144.848031,10.726 L146.239731,10.705 L147.629131,10.7 L149.019031,10.696 L150.405931,10.707 L151.792231,10.718 L153.174131,10.746 L154.555831,10.774 L155.932031,10.82 L157.308631,10.865 L158.679031,10.927 L160.048931,10.988 L161.410931,11.066 L162.772931,11.144 L164.125831,11.24 L165.479231,11.336 L166.823431,11.447 L168.166931,11.56 L169.499231,11.689 L170.831331,11.819 L172.151131,11.966 L173.471331,12.113 L174.779331,12.277 L176.086531,12.44 L177.379231,12.621 L178.671731,12.802 L179.948231,13.002 L181.225331,13.201 L182.487031,13.418 L183.747831,13.633 L184.990731,13.867 L186.233331,14.101 L187.456831,14.353 L188.680931,14.605 L189.886531,14.873 L191.090931,15.142 L192.273731,15.43 L193.456131,15.718 L194.616131,16.024 L195.776531,16.331 L196.915631,16.654 L198.053231,16.976 L199.166331,17.317 L200.278831,17.658 L201.365431,18.017 L202.453031,18.375 L203.516531,18.749 L204.578431,19.122 L205.612331,19.514 L206.645831,19.906 L207.650031,20.316 L208.655031,20.726 L209.632431,21.154 L210.608031,21.58 L211.552331,22.025 L212.496031,22.47 L213.407631,22.933 L214.321331,23.393 L215.204431,23.871 L216.085531,24.348 L216.932031,24.843 L217.772231,25.335 L219.399531,26.367 L220.952931,27.428 L222.427931,28.525 L223.834631,29.668 L224.497131,30.24 L225.147131,30.828 L225.777231,31.426 L226.388331,32.032 L226.977331,32.647 L227.545831,33.271 L228.094631,33.904 L228.620631,34.544 L229.125531,35.195 L229.610131,35.854 L230.071431,36.521 L230.510831,37.198 L230.929431,37.884 L231.324131,38.577 L231.696231,39.282 L232.047031,39.994 L232.373531,40.715 L232.676731,41.447 L232.958131,42.188 L233.214631,42.937 L233.447231,43.697 L233.657231,44.466 L233.841931,45.244 L234.001431,46.033 L234.138131,46.842 L234.241931,47.644 L234.314031,48.444 L234.357331,49.24 L234.369131,50.03 L234.350131,50.818 L234.303331,51.602 L234.226431,52.381 L234.119231,53.158 L233.985131,53.932 L233.821831,54.7 L233.628831,55.468 L233.409431,56.232 L233.161631,56.991 L232.884531,57.749 L232.581631,58.504 L232.251131,59.255 L231.891831,60.003 L231.507231,60.749 L231.095631,61.49 L230.655931,62.229 L230.191431,62.965 L229.700831,63.696 L229.182631,64.425 L228.640331,65.15 L228.072631,65.871 L227.478231,66.588 L226.860431,67.302 L226.218131,68.011 L225.553731,68.713 L224.847131,69.417 L224.145631,70.116 L223.396131,70.806 L222.646131,71.496 L221.849331,72.176 L221.050731,72.858 L220.210631,73.53 L219.371631,74.202 L218.488231,74.863 L217.604431,75.525 L216.677631,76.175 L215.749031,76.827 L214.782131,77.468 L213.816031,78.108 L212.809431,78.737 L211.802431,79.366 L210.756331,79.983 L209.708731,80.601 L208.626631,81.208 L207.545431,81.815 L206.427531,82.409 L205.309231,83.003 L204.155631,83.585 L203.000631,84.167 L201.814731,84.738 L200.629631,85.308 L199.411631,85.865 L198.193431,86.422 L196.943731,86.966 L195.692931,87.51 L194.414631,88.042 L193.136831,88.573 L191.830031,89.091 L190.523131,89.608 L189.188531,90.111 L187.853031,90.615 L186.493431,91.106 L185.134631,91.596 L183.750631,92.072 L182.366531,92.548 L180.958631,93.009 L179.549831,93.471 L178.120631,93.919 L176.692031,94.366 L175.242131,94.799 L173.792131,95.231 L172.322231,95.648 L170.851531,96.065 L169.363831,96.468 L167.876731,96.871 L166.372231,97.258 L164.867731,97.645 L163.347031,98.016 L161.825631,98.387 L160.290731,98.743 L158.756431,99.099 L157.208631,99.439 L155.660731,99.778 L154.100531,100.101 L152.539731,100.424 L150.968831,100.732 L149.398631,101.039 L147.818731,101.329 L146.238931,101.62 L144.650631,101.894 L143.061731,102.168 L141.466231,102.425 L139.871431,102.683 L138.270731,102.922 L136.669931,103.162 L135.064731,103.384 L133.458831,103.606 L131.849831,103.812 L130.241631,104.017 L128.631331,104.204 L127.021031,104.391 L125.409931,104.56 L123.798231,104.728 L122.186931,104.879 L120.576431,105.03 L118.967731,105.163 L117.359031,105.295 L115.753431,105.407 L114.147131,105.52 L112.544731,105.615 L110.943331,105.711 L109.347431,105.788 L107.751631,105.864 L106.162831,105.92 L104.573231,105.977 L102.991031,106.015 L101.409831,106.053 L99.838031,106.071 L98.266331,106.089 L96.705341,106.086 L95.143691,106.083 L93.592901,106.061 L92.043191,106.04 L90.506651,105.997 L88.970351,105.955 L87.448611,105.891 L85.926131,105.828 L84.418001,105.745 L82.911061,105.662 L81.421151,105.558 L79.931521,105.454 L78.460301,105.328 L76.988311,105.202 L75.534161,105.056 L74.081341,104.91 L72.649391,104.742 L71.217791,104.574 L69.808461,104.384 L68.398281,104.193 L67.009461,103.982 L65.622181,103.772 L64.259641,103.538 L62.897531,103.305 L61.561541,103.048 L60.224631,102.792 L58.912591,102.514 L57.602341,102.237 L56.320681,101.936 L55.039541,101.636 L53.788401,101.312 L52.536381,100.987 L51.313421,100.638 L50.092631,100.29 L48.904341,99.918 L47.716771,99.547 L46.563101,99.151 L45.408351,98.756 L44.285511,98.338 L43.165211,97.921 L42.081271,97.48 L40.998821,97.038 L39.955051,96.57 L38.904821,96.099 L37.892831,95.617 L36.897011,95.121 L35.920731,94.612 L34.963521,94.093 L34.028721,93.562 L33.114311,93.019 L32.219841,92.466 L31.348761,91.901 L30.498431,91.324 L29.668531,90.737 L28.862951,90.139 L28.079321,89.528 L27.317141,88.906 L26.580131,88.274 L25.865821,87.628 L25.173641,86.972 L24.507391,86.306 L23.864541,85.626 L23.244411,84.935 L22.650881,84.234 L22.080741,83.52 L21.533381,82.796 L21.013111,82.061 L20.515281,81.308 L20.104381,80.651 L19.717721,79.996 L19.355131,79.342 L19.015001,78.693 L18.700191,78.048 L18.417071,77.426 L17.889271,76.132 L17.463771,74.877 L17.125971,73.633 L16.866261,72.402 L16.691521,71.19 L16.597771,69.985 L16.576001,68.791 L16.631851,67.612 L16.763901,66.439 L16.963351,65.274 L17.235071,64.122 L17.579781,62.973 L17.988131,61.831 L18.464601,60.701 L19.011081,59.574 L19.618571,58.455 L20.290181,57.348 L21.028041,56.246 L21.823161,55.153 L22.677871,54.073 L23.594041,53.001 L24.562451,51.939 L25.585431,50.891 L26.664591,49.853 L27.791651,48.827 L28.967861,47.817 L30.194451,46.819 L31.463741,45.834 L32.776561,44.866 L34.133761,43.913 L35.528331,42.974 L36.960671,42.053 L38.431351,41.148 L39.934021,40.259 L41.468641,39.389 L43.035561,38.536 L44.629051,37.7 L46.248671,36.884 L47.894551,36.086 L49.561581,35.306 L51.248901,34.547 L52.956471,33.808 L54.679491,33.087 L56.416941,32.387 L58.168671,31.708 L59.930791,31.049 L61.701451,30.413 L63.480441,29.798 L65.264351,29.204 L67.050841,28.633 L68.839731,28.084 L70.628221,27.557 L72.413441,27.055 L74.195111,26.576 L75.970981,26.119 L77.737601,25.688 L79.494761,25.281 L81.240671,24.897 L82.971311,24.539 L84.686541,24.207 L86.385051,23.898 L88.062191,23.617 L89.717951,23.361 L91.351441,23.131 L92.957351,22.928 L94.535861,22.752 L96.086471,22.601 L97.603091,22.479 L99.086231,22.385 L100.535631,22.316 L101.944431,22.277 L103.313431,22.266 L104.642731,22.282 L105.924231,22.326 L107.159531,22.4 L108.348631,22.5 L109.482231,22.629 L110.562931,22.787 L111.590331,22.971 L112.553731,23.182 L113.456931,23.42 L114.299331,23.682 L115.068531,23.967 L115.770831,24.276 L116.405631,24.602 L116.959831,24.942 L117.444531,25.299 L117.861431,25.665 L118.200831,26.032 L118.480131,26.413 L118.705031,26.803 L118.870431,27.2 L119.013331,27.74 C119.287031,28.738 120.318531,29.326 121.317231,29.052 C122.315931,28.779 122.903731,27.747 122.630031,26.749 Z" id="Fill-92"></path>
        </g>
    </g>
</svg>
