<?xml version="1.0" encoding="UTF-8"?>
<svg width="170px" height="86px" viewBox="0 0 170 86" version="1.1" xmlns="http://www.w3.org/2000/svg" xmlns:xlink="http://www.w3.org/1999/xlink">
    <title>48</title>
    <g id="Page-1" stroke="none" stroke-width="1" fill="none" fill-rule="evenodd">
        <g id="48" transform="translate(0.696218, 0.743000)" fill="currentColor">
            <path d="M1.54966636,3.883 C1.39578219,-2.114 154.855782,4.397 160.176782,12.495 C167.759782,24.034 167.107782,65.387 167.140782,80.604 C167.143782,81.585 167.828782,83.592 166.968782,83.54 C129.513782,81.278 46.7327822,87.064 12.8317822,62.97 C5.83178219,57.995 1.85578219,15.788 1.54966636,3.883 Z" id="Fill-80"></path>
            <path d="M3.09178219,4.037 L3.06578219,4.153 L2.96378219,4.425 L2.85578219,4.59 L2.77378219,4.676 L2.73178219,4.711 L2.74478219,4.703 L2.80078219,4.674 L2.89478219,4.632 L3.03078219,4.581 L3.19778219,4.525 L3.39478219,4.466 L3.60678219,4.41 L4.15878219,4.284 L4.79478219,4.165 L5.52978219,4.051 L6.34778219,3.941 L7.25278219,3.838 L8.24278219,3.742 L9.30778219,3.652 L10.4497822,3.569 L11.6677822,3.492 L12.9517822,3.423 L14.3077822,3.36 L15.7307822,3.304 L17.2157822,3.254 L18.7627822,3.212 L20.3727822,3.176 L22.0367822,3.146 L23.7577822,3.123 L25.5337822,3.106 L27.3577822,3.096 L29.2317822,3.092 L31.1557822,3.094 L33.1217822,3.102 L34.1257822,3.109 L35.1307822,3.116 L36.1567822,3.126 L37.1827822,3.136 L38.2277822,3.148 L39.2717822,3.16 L40.3347822,3.175 L41.3977822,3.19 L42.4787822,3.208 L43.5597822,3.225 L44.6567822,3.246 L45.7527822,3.266 L46.8647822,3.289 L47.9767822,3.313 L49.1037822,3.339 L50.2307822,3.365 L51.3697822,3.393 L52.5087822,3.422 L53.6607822,3.453 L54.8127822,3.485 L55.9757822,3.519 L57.1397822,3.552 L58.3127822,3.589 L59.4847822,3.625 L60.6677822,3.664 L61.8497822,3.702 L63.0397822,3.744 L64.2297822,3.785 L65.4297822,3.829 L66.6307822,3.872 L67.8327822,3.916 L69.0307822,3.959 L70.2397822,4.008 L71.4517822,4.056 L72.6637822,4.105 L73.8727822,4.152 L75.0887822,4.202 L76.3067822,4.253 L77.5247822,4.304 L78.7387822,4.355 L79.9537822,4.412 L81.1727822,4.469 L82.3907822,4.525 L83.6097822,4.578 L84.8287822,4.631 L86.0477822,4.684 L87.2667822,4.737 L88.4807822,4.789 L89.6817822,4.851 L90.8887822,4.913 L92.0947822,4.979 L93.3007822,5.047 L94.5077822,5.114 L95.7137822,5.182 L96.9197822,5.249 L98.1207822,5.316 L99.2907822,5.392 L100.465782,5.469 L101.640782,5.549 L102.816782,5.629 L103.991782,5.709 L105.166782,5.789 L106.341782,5.869 L107.513782,5.949 L108.660782,6.033 L109.809782,6.118 L110.945782,6.204 L112.082782,6.29 L113.204782,6.378 L114.326782,6.466 L115.435782,6.555 L116.544782,6.645 L117.637782,6.736 L118.729782,6.827 L119.805782,6.919 L120.881782,7.012 L121.940782,7.106 L122.999782,7.2 L124.039782,7.295 L125.079782,7.391 L126.098782,7.488 L127.118782,7.585 L128.118782,7.683 L129.118782,7.782 L131.074782,7.982 L132.983782,8.185 L134.846782,8.391 L136.659782,8.599 L138.418782,8.808 L140.127782,9.021 L141.777782,9.235 L143.368782,9.453 L144.902782,9.672 L146.371782,9.893 L147.774782,10.116 L149.114782,10.341 L150.383782,10.568 L151.577782,10.797 L152.703782,11.027 L153.748782,11.258 L154.713782,11.49 L155.600782,11.722 L156.398782,11.953 L157.105782,12.183 L157.724782,12.409 L158.236782,12.627 L158.642782,12.832 L158.937782,13.013 L159.096782,13.139 L159.139782,13.188 L159.558782,13.869 L159.968782,14.639 L160.366782,15.492 L160.752782,16.417 L161.120782,17.412 L161.473782,18.479 L161.812782,19.605 L162.133782,20.792 L162.438782,22.038 L162.728782,23.334 L163.002782,24.681 L163.261782,26.075 L163.505782,27.511 L163.734782,28.986 L163.949782,30.5 L164.151782,32.045 L164.338782,33.621 L164.512782,35.226 L164.674782,36.852 L164.824782,38.5 L164.962782,40.166 L165.089782,41.846 L165.206782,43.538 L165.311782,45.237 L165.404782,46.945 L165.496782,48.652 L165.569782,50.357 L165.642782,52.062 L165.699782,53.752 L165.756782,55.443 L165.800782,57.109 L165.843782,58.775 L165.875782,60.402 L165.906782,62.029 L165.926782,63.602 L165.947782,65.178 L165.962782,66.708 L165.973782,68.204 L165.981782,69.662 L165.985782,71.081 L165.988782,72.456 L165.989782,73.782 L165.989782,75.062 L165.988782,76.289 L165.988782,77.457 L165.987782,78.571 L165.987782,79.622 L165.989782,80.617 L166.006782,80.965 L166.046782,81.317 L166.098782,81.66 L166.150782,81.991 L166.198782,82.3 L166.232782,82.575 L166.250782,82.796 L166.250782,82.922 L166.255782,82.914 L166.359782,82.722 L166.714782,82.451 L167.004782,82.39 L165.847782,82.323 L164.627782,82.26 L163.378782,82.202 L162.104782,82.149 L160.803782,82.099 L159.475782,82.054 L158.123782,82.012 L156.746782,81.974 L155.344782,81.939 L153.920782,81.907 L152.473782,81.878 L151.002782,81.852 L149.502782,81.828 L148.002782,81.804 L146.459782,81.785 L144.917782,81.766 L143.335782,81.749 L141.753782,81.732 L140.138782,81.717 L138.523782,81.701 L136.873782,81.687 L135.224782,81.674 L133.543782,81.659 L131.863782,81.645 L130.156782,81.629 L128.449782,81.613 L126.715782,81.594 L124.982782,81.576 L123.225782,81.553 L121.468782,81.53 L119.692782,81.504 L117.916782,81.479 L116.121782,81.447 L114.326782,81.416 L112.516782,81.378 L110.705782,81.339 L108.883782,81.294 L107.061782,81.248 L105.227782,81.193 L103.395782,81.137 L101.554782,81.072 L99.7137822,81.006 L97.8677822,80.93 L96.0217822,80.854 L94.1737822,80.766 L92.3247822,80.677 L90.4767822,80.573 L88.6277822,80.47 L86.7817822,80.353 L84.9367822,80.236 L83.0957822,80.102 L81.2547822,79.968 L79.4227822,79.816 L77.5897822,79.665 L75.7667822,79.497 L73.9437822,79.329 L72.1347822,79.143 L70.3247822,78.956 L68.5307822,78.75 L66.7367822,78.544 L64.9597822,78.317 L63.1837822,78.09 L61.4287822,77.84 L59.6737822,77.591 L57.9417822,77.319 L56.2107822,77.047 L54.5027822,76.753 L52.7957822,76.46 L51.1177822,76.141 L49.4397822,75.822 L47.7937822,75.482 L46.1447822,75.146 L44.5277822,74.786 L42.9107822,74.426 L41.3307822,74.037 L39.7517822,73.649 L38.2107822,73.234 L36.6657822,72.818 L35.1557822,72.383 L33.6647822,71.933 L32.1957822,71.466 L30.7487822,70.983 L29.3267822,70.48 L27.9287822,69.961 L26.5537822,69.427 L25.2047822,68.876 L23.8817822,68.307 L22.5837822,67.723 L21.3137822,67.12 L20.0727822,66.5 L18.8577822,65.863 L17.6727822,65.208 L16.5177822,64.534 L15.3907822,63.843 L14.2977822,63.132 L13.2337822,62.399 L13.0577822,62.265 L12.8767822,62.106 L12.6907822,61.919 L12.5027822,61.709 L12.3127822,61.476 L12.1277822,61.227 L11.7357822,60.633 L11.3527822,59.959 L10.9717822,59.197 L10.5947822,58.361 L10.2237822,57.449 L9.85978219,56.463 L9.50078219,55.415 L9.14978219,54.303 L8.80578219,53.131 L8.46978219,51.907 L8.14078219,50.632 L7.82078219,49.308 L7.50778219,47.944 L7.20378219,46.54 L6.90778219,45.1 L6.61978219,43.63 L6.33978219,42.131 L6.06978219,40.607 L5.80678219,39.064 L5.55478219,37.504 L5.31078219,35.931 L5.07978219,34.345 L4.84778219,32.76 L4.63478219,31.17 L4.42078219,29.581 L4.22578219,28.003 L4.03078219,26.425 L3.85178219,24.871 L3.67278219,23.317 L3.51278219,21.805 L3.35278219,20.292 L3.21178219,18.837 L3.07078219,17.381 L2.94178219,15.974 L2.82278219,14.606 L2.71378219,13.282 L2.61278219,12.001 L2.52178219,10.771 L2.44078219,9.596 L2.36778219,8.475 L2.30578219,7.416 L2.25178219,6.424 L2.20778219,5.496 L2.17378219,4.643 L2.14978219,3.865 C2.13978219,3.534 1.86278219,3.273 1.53178219,3.283 C1.20078219,3.294 0.939782185,3.57 0.949782185,3.901 L0.972782185,4.685 L1.00578219,5.548 L1.04778219,6.484 L1.09878219,7.483 L1.15978219,8.549 L1.22978219,9.676 L1.30878219,10.857 L1.39778219,12.092 L1.49578219,13.379 L1.60278219,14.708 L1.71878219,16.082 L1.84378219,17.495 L1.98278219,18.955 L2.12078219,20.416 L2.27778219,21.934 L2.43478219,23.453 L2.61078219,25.012 L2.78578219,26.572 L2.97878219,28.156 L3.17078219,29.74 L3.38178219,31.337 L3.59178219,32.934 L3.82078219,34.527 L4.04978219,36.119 L4.29078219,37.702 L4.54178219,39.272 L4.79978219,40.825 L5.06578219,42.36 L5.34078219,43.871 L5.62478219,45.354 L5.91678219,46.809 L6.21878219,48.229 L6.52878219,49.61 L6.84678219,50.952 L7.17478219,52.249 L7.51078219,53.495 L7.85578219,54.693 L8.21078219,55.835 L8.57478219,56.916 L8.94878219,57.94 L9.33278219,58.898 L9.72678219,59.784 L10.1327822,60.605 L10.5527822,61.352 L10.9807822,62.008 L11.2117822,62.324 L11.4417822,62.61 L11.6767822,62.874 L11.9187822,63.118 L12.1697822,63.341 L12.4287822,63.541 L13.5137822,64.296 L14.6337822,65.033 L15.7827822,65.751 L16.9597822,66.451 L18.1667822,67.132 L19.4027822,67.794 L20.6647822,68.438 L21.9557822,69.064 L23.2727822,69.672 L24.6147822,70.265 L25.9817822,70.839 L27.3747822,71.397 L28.7897822,71.938 L30.2297822,72.463 L31.6907822,72.975 L33.1727822,73.474 L34.6767822,73.957 L36.2037822,74.425 L37.7547822,74.87 L39.3087822,75.317 L40.9027822,75.731 L42.4967822,76.145 L44.1267822,76.53 L45.7557822,76.915 L47.4157822,77.276 L49.0777822,77.631 L50.7717822,77.955 L52.4647822,78.279 L54.1867822,78.578 L55.9077822,78.877 L57.6527822,79.153 L59.3977822,79.429 L61.1657822,79.682 L62.9337822,79.935 L64.7227822,80.166 L66.5097822,80.397 L68.3137822,80.611 L70.1187822,80.824 L71.9377822,81.017 L73.7577822,81.21 L75.5897822,81.385 L77.4217822,81.559 L79.2627822,81.717 L81.1037822,81.876 L82.9527822,82.017 L84.8007822,82.159 L86.6537822,82.287 L88.5067822,82.415 L90.3617822,82.529 L92.2167822,82.644 L94.0717822,82.745 L95.9257822,82.847 L97.7777822,82.937 L99.6287822,83.027 L101.474782,83.106 L103.320782,83.185 L105.158782,83.254 L106.996782,83.323 L108.822782,83.382 L110.649782,83.442 L112.463782,83.494 L114.277782,83.546 L116.076782,83.59 L117.874782,83.634 L119.653782,83.673 L121.432782,83.709 L123.191782,83.741 L124.950782,83.773 L126.686782,83.8 L128.421782,83.828 L130.130782,83.852 L131.838782,83.876 L133.519782,83.898 L135.200782,83.92 L136.850782,83.941 L138.499782,83.961 L140.113782,83.981 L141.727782,84.001 L143.308782,84.022 L144.887782,84.043 L146.428782,84.066 L147.967782,84.088 L149.464782,84.113 L150.962782,84.139 L152.428782,84.167 L153.870782,84.198 L155.289782,84.231 L156.685782,84.267 L158.055782,84.306 L159.400782,84.349 L160.719782,84.395 L162.011782,84.445 L163.276782,84.499 L164.513782,84.558 L165.721782,84.621 L166.933782,84.69 L167.594782,84.578 L168.203782,84.1 L168.462782,83.568 L168.543782,83.121 L168.550782,82.718 L168.523782,82.344 L168.478782,81.984 L168.425782,81.635 L168.373782,81.308 L168.329782,81.013 L168.301782,80.771 L168.292782,80.591 L168.291782,79.621 L168.291782,78.572 L168.292782,77.459 L168.294782,76.291 L168.295782,75.064 L168.296782,73.782 L168.295782,72.453 L168.293782,71.075 L168.289782,69.652 L168.283782,68.191 L168.274782,66.69 L168.261782,65.153 L168.243782,63.574 L168.225782,61.993 L168.196782,60.359 L168.168782,58.724 L168.127782,57.05 L168.087782,55.376 L168.034782,53.676 L167.980782,51.976 L167.910782,50.259 L167.841782,48.542 L167.754782,46.822 L167.667782,45.104 L167.566782,43.388 L167.454782,41.68 L167.332782,39.983 L167.198782,38.298 L167.053782,36.63 L166.894782,34.982 L166.723782,33.355 L166.539782,31.753 L166.340782,30.18 L166.128782,28.636 L165.901782,27.126 L165.657782,25.655 L165.397782,24.221 L165.121782,22.829 L164.826782,21.485 L164.514782,20.185 L164.182782,18.935 L163.829782,17.742 L163.457782,16.6 L163.061782,15.516 L162.641782,14.496 L162.197782,13.534 L161.723782,12.635 L161.214782,11.801 L160.834782,11.346 L160.376782,10.969 L159.863782,10.649 L159.292782,10.356 L158.646782,10.079 L157.928782,9.812 L157.140782,9.552 L156.274782,9.297 L155.332782,9.046 L154.321782,8.798 L153.234782,8.553 L152.075782,8.31 L150.851782,8.07 L149.555782,7.833 L148.192782,7.597 L146.768782,7.364 L145.280782,7.133 L143.729782,6.906 L142.122782,6.68 L140.457782,6.457 L138.736782,6.237 L136.965782,6.019 L135.140782,5.805 L133.266782,5.594 L131.348782,5.386 L129.383782,5.181 L128.378782,5.08 L127.373782,4.979 L126.350782,4.879 L125.326782,4.779 L124.282782,4.681 L123.238782,4.583 L122.175782,4.487 L121.112782,4.391 L120.033782,4.296 L118.954782,4.201 L117.857782,4.108 L116.761782,4.016 L115.649782,3.925 L114.537782,3.834 L113.411782,3.745 L112.286782,3.656 L111.146782,3.569 L110.007782,3.482 L108.854782,3.396 L107.700782,3.311 L106.522782,3.23 L105.347782,3.149 L104.171782,3.069 L102.996782,2.988 L101.821782,2.907 L100.646782,2.827 L99.4717822,2.743 L98.2907822,2.658 L97.0797822,2.581 L95.8737822,2.504 L94.6687822,2.427 L93.4627822,2.35 L92.2567822,2.273 L91.0507822,2.196 L89.8457822,2.113 L88.6347822,2.03 L87.4117822,1.956 L86.1937822,1.882 L84.9757822,1.809 L83.7577822,1.735 L82.5397822,1.661 L81.3217822,1.591 L80.1037822,1.521 L78.8817822,1.452 L77.6607822,1.389 L76.4427822,1.326 L75.2257822,1.263 L74.0057822,1.2 L72.7907822,1.143 L71.5797822,1.087 L70.3677822,1.032 L69.1537822,0.976 L67.9497822,0.926 L66.7477822,0.875 L65.5467822,0.825 L64.3437822,0.774 L63.1497822,0.729 L61.9567822,0.683 L60.7717822,0.641 L59.5867822,0.598 L58.4107822,0.558 L57.2357822,0.517 L56.0687822,0.48 L54.9027822,0.442 L53.7477822,0.408 L52.5927822,0.373 L51.4507822,0.342 L50.3087822,0.31 L49.1787822,0.281 L48.0487822,0.252 L46.9327822,0.225 L45.8177822,0.199 L44.7177822,0.176 L43.6177822,0.153 L42.5337822,0.132 L41.4487822,0.112 L40.3817822,0.094 L39.3147822,0.077 L38.2667822,0.062 L37.2177822,0.048 L36.1877822,0.037 L35.1577822,0.027 L34.1487822,0.019 L33.1377822,0.012 L31.1637822,0.003 L29.2307822,0 L27.3457822,0.004 L25.5107822,0.014 L23.7227822,0.03 L21.9887822,0.053 L20.3107822,0.082 L18.6867822,0.118 L17.1217822,0.161 L15.6197822,0.21 L14.1757822,0.266 L12.7977822,0.33 L11.4877822,0.401 L10.2407822,0.478 L9.06478219,0.564 L7.96378219,0.657 L6.92878219,0.757 L5.96878219,0.866 L5.08678219,0.984 L4.27378219,1.111 L3.53478219,1.249 L2.88778219,1.395 L2.56178219,1.481 L2.26678219,1.568 L1.98878219,1.662 L1.72078219,1.764 L1.45878219,1.88 L1.20778219,2.011 L0.956782185,2.169 L0.699782185,2.373 L0.452782185,2.632 L0.223782185,2.975 L0.0517821854,3.428 L0.00778218538,3.729 C-0.0772178146,4.581 0.543782185,5.34 1.39578219,5.426 C2.24778219,5.511 3.00678219,4.889 3.09178219,4.037 Z" id="Fill-81"></path>
        </g>
    </g>
</svg>
