<?xml version="1.0" encoding="UTF-8"?>
<svg width="130px" height="139px" viewBox="0 0 130 139" version="1.1" xmlns="http://www.w3.org/2000/svg" xmlns:xlink="http://www.w3.org/1999/xlink">
    <title>50</title>
    <g id="Page-1" stroke="none" stroke-width="1" fill="none" fill-rule="evenodd">
        <g id="50" transform="translate(0.168000, 0.744000)" fill="currentColor">
            <path d="M7.5929,11.829 C-1.7878,32.34 2.2297,63.704 3.4426,84.977 C3.9977,94.71 5.7766,104.349 6.3331,114.082 C9.8637,175.836 -2.6846,91.429 38.2489,80.365 C60.3807,74.383 75.8301,89.292 92.5343,100.689 C104.6093,108.928 99.9204,104.905 109.5047,110.264 C112.4752,111.925 116.4493,121.717 115.6665,118.405 C109.0103,90.242 104.978,66.423 114.9127,37.692 C117.3154,30.744 130.2365,11.822 128.6882,5.271 C128.3833,3.981 111.3579,1.945 110.8141,1.892 C79.0791,-1.22 41.5078,2.476 9.6771,5.354" id="Fill-76"></path>
            <path d="M6.1743,11.205 L5.595,12.522 L5.043,13.887 L4.5277,15.277 L4.0445,16.687 L3.5945,18.123 L3.178,19.579 L2.7904,21.053 L2.4334,22.548 L2.1064,24.06 L1.8055,25.587 L1.5323,27.132 L1.2859,28.69 L1.063,30.261 L0.8647,31.846 L0.6903,33.441 L0.5368,35.045 L0.405,36.659 L0.2939,38.285 L0.2101,39.912 L0.1263,41.542 L0.0785,43.184 L0.0309,44.825 L0.0154,46.471 L0,48.115 L0.0106,49.76 L0.0213,51.405 L0.0572,53.048 L0.0946,54.689 L0.153,56.322 L0.2114,57.953 L0.2858,59.573 L0.3602,61.193 L0.4488,62.796 L0.5373,64.397 L0.636,65.977 L0.7346,67.555 L0.8393,69.109 L0.944,70.662 L1.0518,72.184 L1.1595,73.705 L1.2669,75.19 L1.3742,76.674 L1.4776,78.121 L1.5808,79.566 L1.6764,80.967 L1.7719,82.366 L1.8557,83.714 L1.9408,85.072 L2.0248,86.292 L2.1095,87.521 L2.2164,88.749 L2.3231,89.973 L2.4473,91.196 L2.5712,92.416 L2.7071,93.635 L2.8429,94.852 L2.9898,96.068 L3.1364,97.281 L3.2871,98.493 L3.4375,99.702 L3.5861,100.912 L3.7348,102.122 L3.8835,103.332 L4.031,104.533 L4.1639,105.735 L4.2997,106.946 L4.4355,108.157 L4.5694,109.348 L4.6677,110.542 L4.7677,111.756 L4.8677,112.97 L4.9669,114.174 L5.0271,115.112 L5.0828,116.039 L5.1345,116.943 L5.1838,117.824 L5.2306,118.682 L5.2749,119.516 L5.317,120.329 L5.3567,121.119 L5.3942,121.886 L5.4297,122.632 L5.463,123.355 L5.4941,124.055 L5.551,125.397 L5.5977,126.651 L5.6361,127.819 L5.6685,128.91 L5.6951,129.918 L5.7162,130.845 L5.7328,131.7 L5.7449,132.475 L5.753,133.174 L5.758,133.805 L5.7599,134.361 L5.7594,134.846 L5.757,135.266 L5.753,135.615 L5.7481,135.896 L5.7428,136.116 L5.7376,136.265 L5.7329,136.353 L5.7373,136.295 L5.7373,136.295 L5.7372,136.295 L5.7372,136.296 L5.7371,136.296 L5.737,136.297 L5.7369,136.298 L5.7368,136.3 L5.7367,136.301 L5.7365,136.303 L5.7363,136.305 L5.7361,136.307 L5.7359,136.309 L5.7357,136.311 L5.7354,136.314 L5.7351,136.317 L5.7353,136.316 L5.7359,136.309 L5.7368,136.301 L5.7382,136.29 L5.7401,136.275 L5.7429,136.256 L5.7472,136.23 L5.7542,136.194 L5.7666,136.14 L5.7913,136.054 L5.8517,135.902 L6.0536,135.593 L6.9068,135.15 L7.9715,135.519 L8.2425,135.899 L8.3127,136.082 L8.3282,136.137 L8.3279,136.136 L8.3278,136.136 L8.3276,136.135 L8.3274,136.134 L8.3273,136.134 L8.3272,136.133 L8.3271,136.133 L8.327,136.133 L8.3269,136.132 L8.3268,136.132 L8.3268,136.132 L8.3267,136.131 L8.3266,136.131 L8.3266,136.131 L8.3266,136.131 L8.3671,136.431 L8.3659,136.382 L8.3665,136.283 L8.3698,136.12 L8.3763,135.9 L8.3862,135.631 L8.4003,135.311 L8.4192,134.941 L8.4428,134.528 L8.472,134.07 L8.5074,133.567 L8.5489,133.024 L8.5974,132.441 L8.6536,131.819 L8.7171,131.161 L8.7892,130.467 L8.8703,129.738 L8.9601,128.979 L9.0598,128.188 L9.1701,127.366 L9.2904,126.519 L9.4215,125.644 L9.5647,124.744 L9.719,123.821 L9.8861,122.877 L10.0666,121.91 L10.2597,120.927 L10.4669,119.926 L10.6882,118.911 L10.9322,117.869 L11.1748,116.833 L11.4501,115.771 L11.7248,114.712 L12.0342,113.634 L12.3435,112.556 L12.6861,111.466 L13.0275,110.38 L13.4073,109.287 L13.7862,108.195 L14.2057,107.104 L14.6244,106.013 L15.0813,104.926 L15.5362,103.844 L16.0353,102.773 L16.5329,101.704 L17.0768,100.653 L17.6235,99.596 L18.1955,98.568 L18.7934,97.55 L19.4157,96.547 L20.06,95.56 L20.7283,94.593 L21.4227,93.646 L22.1402,92.718 L22.8827,91.816 L23.6527,90.937 L24.4471,90.082 L25.2672,89.256 L26.1165,88.458 L26.9914,87.687 L27.8932,86.95 L28.8258,86.244 L29.7852,85.57 L30.773,84.933 L31.7937,84.333 L32.8427,83.767 L33.9218,83.242 L35.0358,82.757 L36.1802,82.311 L37.3565,81.91 L38.5718,81.554 L39.9053,81.213 L41.2199,80.926 L42.5188,80.69 L43.8021,80.501 L45.0669,80.36 L46.3181,80.268 L47.5554,80.217 L48.7763,80.212 L49.9854,80.25 L51.1826,80.327 L52.3653,80.445 L53.5379,80.603 L54.7003,80.796 L55.8501,81.026 L56.9914,81.293 L58.1239,81.592 L59.2458,81.924 L60.3603,82.288 L61.4676,82.682 L62.5656,83.104 L63.6577,83.556 L64.7434,84.033 L65.8216,84.536 L66.8947,85.064 L67.9628,85.613 L69.0246,86.185 L70.0824,86.777 L71.1361,87.388 L72.185,88.017 L73.2279,88.663 L74.2715,89.332 L75.3133,90 L76.3477,90.693 L77.3845,91.388 L78.4157,92.102 L79.4496,92.817 L80.4799,93.545 L81.5116,94.275 L82.541,95.013 L83.5727,95.752 L84.6042,96.495 L85.6374,97.238 L86.672,97.98 L87.7085,98.723 L88.7482,99.458 L89.7898,100.195 L90.8365,100.918 L91.8807,101.64 L92.6204,102.144 L93.3138,102.613 L93.9659,103.053 L94.5821,103.466 L95.1606,103.851 L95.7031,104.209 L96.2144,104.544 L96.6935,104.856 L97.1418,105.144 L97.5639,105.412 L97.9592,105.66 L98.3291,105.889 L98.6776,106.102 L99.0047,106.297 L99.3117,106.477 L99.6023,106.644 L99.8767,106.798 L100.1414,106.943 L100.6198,107.194 L101.0639,107.413 L101.4857,107.609 L102.2593,107.944 L103.0644,108.283 L104.0319,108.714 L104.5921,108.976 L105.2417,109.294 L105.9948,109.676 L106.4045,109.889 L106.8469,110.122 L107.3215,110.376 L107.8266,110.65 L108.3665,110.946 L108.9171,111.252 L109.1908,111.429 L109.4841,111.678 L109.8146,112.011 L110.165,112.408 L110.5259,112.863 L110.8938,113.366 L111.2628,113.903 L111.628,114.464 L111.9869,115.042 L112.3369,115.624 L112.6737,116.201 L112.995,116.764 L113.2995,117.306 L113.5834,117.816 L113.8442,118.283 L114.083,118.706 L114.2975,119.075 L114.4904,119.387 L114.647,119.614 L114.7523,119.745 L114.7539,119.747 L114.757,119.75 L114.7617,119.755 L114.7679,119.762 L114.7757,119.77 L114.7851,119.78 L114.796,119.792 L114.8228,119.82 L114.8686,119.866 L114.9229,119.915 L114.9897,119.969 L115.0743,120.027 L115.1847,120.09 L115.3319,120.152 L115.5278,120.202 L115.6499,120.216 L115.6563,120.216 L115.6618,120.216 L115.6665,120.217 L115.6701,120.217 L115.6729,120.217 L115.6747,120.217 L115.8211,117.931 L115.7621,117.928 L115.617,120.214 L115.6175,120.214 L115.6181,120.214 L115.619,120.214 L115.6202,120.214 L115.6216,120.214 L115.6232,120.214 L115.625,120.214 L115.6271,120.214 L115.6294,120.214 L115.6319,120.215 L115.6347,120.215 L115.6377,120.215 L115.6409,120.215 L115.6444,120.215 L115.6709,120.217 L115.7237,120.218 L115.7815,120.217 L115.8448,120.212 L115.9138,120.203 L115.989,120.189 L116.0699,120.167 L116.1561,120.138 L116.2464,120.098 L116.339,120.048 L116.4314,119.986 L116.5206,119.912 L116.6037,119.828 L116.6778,119.737 L116.7413,119.64 L116.7931,119.542 L116.815,119.492 L116.8159,119.49 L116.8167,119.488 L116.8175,119.486 L116.8181,119.484 L116.8188,119.483 L116.8194,119.481 L116.8199,119.48 L116.8203,119.479 L116.8208,119.478 L116.8211,119.477 L116.8214,119.476 L116.8216,119.476 L116.8218,119.475 L116.8219,119.475 L116.822,119.475 L116.9066,119.103 L116.9117,118.943 L116.896,118.741 L116.8684,118.556 L116.8299,118.359 L116.7816,118.145 L116.3712,116.395 L115.9619,114.648 L115.5691,112.924 L115.1765,111.2 L114.8022,109.496 L114.4279,107.792 L114.0733,106.103 L113.719,104.417 L113.3888,102.745 L113.0588,101.074 L112.7544,99.417 L112.4499,97.76 L112.172,96.113 L111.8944,94.467 L111.6484,92.83 L111.4025,91.195 L111.1906,89.566 L110.9786,87.937 L110.8,86.312 L110.6215,84.69 L110.4822,83.07 L110.3429,81.45 L110.2448,79.832 L110.1457,78.212 L110.0868,76.592 L110.0279,74.973 L110.0157,73.351 L110.0032,71.729 L110.0403,70.101 L110.0772,68.469 L110.149,66.839 L110.2472,65.203 L110.3726,63.56 L110.5232,61.913 L110.7019,60.261 L110.9099,58.601 L111.1447,56.935 L111.4096,55.262 L111.7055,53.58 L112.0301,51.891 L112.3866,50.192 L112.7769,48.483 L113.198,46.765 L113.653,45.037 L114.143,43.297 L114.6651,41.545 L115.2229,39.782 L115.8203,38.003 L115.9717,37.584 L116.1517,37.127 L116.3586,36.635 L116.5883,36.115 L116.8414,35.566 L117.1167,34.989 L117.4107,34.389 L117.7237,33.765 L118.0543,33.118 L118.3996,32.452 L118.7596,31.766 L119.1323,31.064 L119.9107,29.612 L120.7249,28.105 L121.5632,26.556 L122.4138,24.976 L123.2672,23.375 L124.1122,21.761 L124.9228,20.157 L125.7375,18.547 L126.4671,16.982 L127.1997,15.41 L127.7986,13.929 L128.3922,12.46 L128.652,11.733 L128.8828,11.037 L129.0885,10.358 L129.2707,9.696 L129.4256,9.05 L129.5508,8.425 L129.6477,7.816 L129.7119,7.225 L129.7401,6.657 L129.733,6.105 L129.6835,5.569 L129.5882,5.06 L129.393,4.641 L129.152,4.391 L128.9226,4.231 L128.6904,4.105 L128.4395,3.992 L128.1692,3.889 L127.8771,3.789 L127.5582,3.691 L127.2149,3.594 L126.8492,3.498 L126.459,3.402 L126.0426,3.306 L125.1671,3.117 L124.2139,2.93 L123.2035,2.75 L122.1534,2.572 L121.0727,2.4 L119.9771,2.233 L118.8889,2.076 L117.8004,1.919 L116.7659,1.779 L115.7317,1.64 L113.906,1.408 L113.1049,1.31 L112.4074,1.228 L111.8288,1.16 L111.5832,1.132 L111.3728,1.109 L111.1992,1.089 L111.0603,1.074 L110.9604,1.064 L110.8925,1.057 L108.8978,0.885 L107.8892,0.808 L106.8821,0.73 L105.8679,0.662 L104.8543,0.594 L103.8344,0.533 L102.8146,0.47 L101.7883,0.414 L100.7621,0.359 L99.7298,0.312 L98.6966,0.265 L97.6555,0.228 L96.6185,0.192 L95.5815,0.156 L94.539,0.119 L93.4861,0.098 L92.4386,0.076 L91.3911,0.054 L90.3387,0.032 L89.2772,0.024 L88.2206,0.016 L87.164,0.008 L86.1034,0 L85.0356,0.004 L83.972,0.008 L82.9082,0.011 L81.8404,0.014 L80.766,0.029 L79.6957,0.043 L78.6253,0.058 L77.5513,0.073 L76.4721,0.099 L75.3965,0.125 L74.321,0.151 L73.2423,0.177 L72.1601,0.213 L71.0808,0.248 L70.0017,0.284 L68.9194,0.32 L67.8344,0.365 L66.7525,0.411 L65.6705,0.456 L64.5858,0.502 L63.4998,0.557 L62.4165,0.611 L61.3332,0.665 L60.2476,0.719 L59.162,0.781 L58.0785,0.842 L56.9951,0.904 L55.9095,0.965 L54.825,1.034 L53.7427,1.103 L52.6604,1.171 L51.5761,1.24 L50.4944,1.315 L49.4146,1.389 L48.3347,1.463 L47.2534,1.537 L46.1754,1.616 L45.099,1.695 L44.0226,1.774 L42.9447,1.853 L41.8718,1.937 L40.8004,2.021 L39.729,2.105 L38.6563,2.188 L37.5901,2.276 L36.5251,2.363 L35.4601,2.451 L34.3941,2.538 L33.3351,2.629 L32.2771,2.719 L31.219,2.809 L30.1601,2.899 L29.1101,2.991 L28.0609,3.083 L27.0117,3.176 L25.962,3.268 L24.9225,3.361 L23.8836,3.455 L22.8448,3.548 L21.8055,3.641 L20.7768,3.735 L19.7484,3.829 L18.7199,3.923 L17.6914,4.016 L16.6755,4.11 L15.6599,4.203 L14.6443,4.296 L13.6287,4.389 L12.6273,4.481 L11.6258,4.573 L10.6244,4.665 L9.6229,4.757 C9.2929,4.786 9.0497,5.078 9.0796,5.408 C9.1095,5.738 9.4013,5.982 9.7313,5.952 L10.7329,5.862 L11.7345,5.772 L12.7362,5.682 L13.7378,5.592 L14.7537,5.501 L15.7695,5.41 L16.7853,5.319 L17.8009,5.227 L18.8293,5.136 L19.8579,5.044 L20.8864,4.953 L21.9146,4.861 L22.9533,4.77 L23.9924,4.678 L25.0315,4.587 L26.0699,4.496 L27.1187,4.406 L28.168,4.316 L29.2174,4.226 L30.2659,4.136 L31.3233,4.048 L32.3815,3.96 L33.4397,3.872 L34.497,3.784 L35.5612,3.699 L36.6264,3.613 L37.6916,3.528 L38.7556,3.443 L39.8259,3.361 L40.8975,3.28 L41.9691,3.198 L43.0392,3.117 L44.1143,3.04 L45.1909,2.963 L46.2674,2.886 L47.3425,2.809 L48.4209,2.738 L49.5009,2.666 L50.5809,2.594 L51.659,2.522 L52.7396,2.458 L53.8222,2.393 L54.9048,2.328 L55.9851,2.264 L57.0666,2.206 L58.1502,2.149 L59.2339,2.091 L60.3153,2.034 L61.3966,1.984 L62.4801,1.934 L63.5637,1.884 L64.6445,1.834 L65.724,1.793 L66.8061,1.752 L67.8882,1.711 L68.9674,1.67 L70.0437,1.639 L71.123,1.607 L72.2024,1.576 L73.2787,1.545 L74.3513,1.523 L75.427,1.502 L76.5027,1.48 L77.5747,1.458 L78.6415,1.448 L79.7119,1.438 L80.7823,1.428 L81.8487,1.417 L82.9084,1.42 L83.9721,1.424 L85.0357,1.427 L86.0954,1.431 L87.1479,1.447 L88.2044,1.463 L89.2608,1.478 L90.3124,1.494 L91.3548,1.524 L92.4021,1.553 L93.4494,1.583 L94.4912,1.613 L95.5224,1.658 L96.5591,1.703 L97.5958,1.749 L98.6284,1.794 L99.653,1.849 L100.6786,1.905 L101.6979,1.969 L102.7171,2.032 L103.7296,2.105 L104.7422,2.179 L105.7483,2.262 L106.7541,2.345 L107.7525,2.436 L108.7494,2.527 L110.7357,2.727 L110.7755,2.732 L110.8683,2.743 L111.003,2.76 L111.1734,2.781 L111.3808,2.808 L111.6226,2.839 L112.1968,2.914 L112.8885,3.006 L113.6809,3.114 L115.4972,3.367 L116.5219,3.517 L117.5464,3.667 L118.6252,3.835 L119.7044,4.003 L120.7848,4.18 L121.8492,4.362 L122.8808,4.548 L123.8687,4.736 L124.7936,4.922 L125.6439,5.107 L126.0301,5.196 L126.3939,5.286 L126.7293,5.375 L127.0359,5.462 L127.3069,5.546 L127.5407,5.626 L127.735,5.7 L127.8777,5.764 L127.9638,5.811 L127.9814,5.821 L127.9051,5.738 L127.7883,5.482 L127.8516,5.821 L127.8856,6.198 L127.89,6.62 L127.8668,7.077 L127.8128,7.568 L127.7279,8.095 L127.6161,8.65 L127.4756,9.232 L127.307,9.842 L127.1143,10.474 L126.8968,11.127 L126.6615,11.786 L126.0756,13.232 L125.4949,14.666 L124.7801,16.195 L124.0622,17.731 L123.2591,19.314 L122.452,20.904 L121.6122,22.498 L120.7597,24.088 L119.9077,25.659 L119.0659,27.205 L118.246,28.713 L117.4607,30.168 L117.0817,30.878 L116.7156,31.57 L116.3635,32.244 L116.0252,32.902 L115.7032,33.54 L115.3993,34.156 L115.1128,34.752 L114.8464,35.326 L114.6022,35.874 L114.3789,36.401 L114.1794,36.903 L114.0052,37.381 L113.3946,39.182 L112.8184,40.973 L112.2788,42.751 L111.7718,44.52 L111.2998,46.278 L110.8626,48.025 L110.4558,49.763 L110.0815,51.492 L109.74,53.212 L109.4277,54.925 L109.1467,56.63 L108.8967,58.327 L108.6741,60.018 L108.4809,61.703 L108.3167,63.381 L108.1783,65.055 L108.0674,66.724 L107.9835,68.392 L107.9353,70.047 L107.8873,71.706 L107.8893,73.36 L107.8914,75.013 L107.9409,76.663 L107.9904,78.311 L108.0806,79.957 L108.172,81.604 L108.3062,83.252 L108.4406,84.898 L108.6145,86.548 L108.7883,88.195 L108.9958,89.847 L109.2035,91.499 L109.4461,93.157 L109.6887,94.814 L109.9631,96.481 L110.2373,98.145 L110.5382,99.82 L110.8391,101.494 L111.1683,103.181 L111.4973,104.867 L111.8505,106.568 L112.2033,108.267 L112.576,109.982 L112.9485,111.696 L113.3414,113.43 L113.7341,115.162 L114.1433,116.916 L114.5515,118.665 L114.5896,118.834 L114.6125,118.951 L114.622,119.014 L114.622,119.003 L114.6197,118.974 L114.7044,118.602 L114.7043,118.602 L114.7042,118.602 L114.704,118.603 L114.7038,118.603 L114.7035,118.604 L114.7032,118.605 L114.7027,118.606 L114.7023,118.607 L114.7018,118.608 L114.7012,118.61 L114.7005,118.611 L114.6999,118.613 L114.6991,118.615 L114.6983,118.617 L114.6974,118.619 L114.7175,118.573 L114.7671,118.479 L114.828,118.386 L114.8993,118.298 L114.9792,118.218 L115.0648,118.147 L115.1533,118.088 L115.2416,118.04 L115.3273,118.002 L115.4085,117.974 L115.4842,117.954 L115.5536,117.941 L115.6168,117.933 L115.6737,117.929 L115.7249,117.927 L115.7706,117.928 L115.7898,117.929 L115.7863,117.929 L115.7831,117.929 L115.7801,117.929 L115.7773,117.929 L115.7748,117.928 L115.7725,117.928 L115.7704,117.928 L115.7686,117.928 L115.767,117.928 L115.7656,117.928 L115.7644,117.928 L115.7635,117.928 L115.7628,117.928 L115.7624,117.928 L115.6167,120.214 L115.6757,120.217 L115.8202,117.931 L115.8183,117.931 L115.8155,117.931 L115.8119,117.931 L115.8072,117.93 L115.8017,117.93 L115.7953,117.93 L115.9026,117.942 L116.0825,117.988 L116.2124,118.043 L116.3043,118.095 L116.369,118.14 L116.4147,118.176 L116.4467,118.205 L116.4688,118.227 L116.4706,118.229 L116.4597,118.217 L116.4503,118.207 L116.4425,118.199 L116.4363,118.192 L116.4316,118.187 L116.4285,118.184 L116.4269,118.182 L116.5322,118.313 L116.4131,118.141 L116.2653,117.901 L116.0729,117.569 L115.844,117.162 L115.5865,116.7 L115.3011,116.187 L114.9913,115.635 L114.6613,115.055 L114.3117,114.455 L113.9454,113.845 L113.5655,113.233 L113.1718,112.627 L112.7677,112.039 L112.354,111.472 L111.9289,110.936 L111.4944,110.443 L111.0455,109.991 L110.5704,109.591 L110.0924,109.276 L109.4793,108.934 L108.929,108.632 L108.4132,108.352 L107.9273,108.091 L107.4721,107.851 L107.0432,107.628 L106.269,107.235 L105.5877,106.901 L104.9837,106.618 L103.9815,106.171 L103.1646,105.827 L102.4213,105.504 L102.0596,105.336 L101.6669,105.142 L101.2248,104.91 L100.9932,104.783 L100.7406,104.641 L100.4693,104.485 L100.18,104.315 L99.8696,104.129 L99.5356,103.925 L99.1788,103.705 L98.7958,103.464 L98.3842,103.202 L97.9454,102.92 L97.4752,102.614 L96.9715,102.283 L96.4358,101.929 L95.8637,101.548 L95.2531,101.138 L94.6059,100.702 L93.9172,100.235 L93.188,99.738 L92.1498,99.02 L91.114,98.303 L90.0833,97.572 L89.0508,96.84 L88.0212,96.1 L86.9897,95.358 L85.9594,94.615 L84.9273,93.869 L83.8949,93.127 L82.8603,92.383 L81.8235,91.648 L80.7852,90.911 L79.7434,90.187 L78.699,89.462 L77.649,88.755 L76.5964,88.047 L75.5362,87.364 L74.4778,86.683 L73.4066,86.017 L72.331,85.368 L71.2494,84.737 L70.1609,84.123 L69.0638,83.529 L67.9591,82.956 L66.8463,82.405 L65.7231,81.877 L64.5911,81.376 L63.4496,80.9 L62.2962,80.452 L61.1328,80.035 L59.9588,79.647 L58.7711,79.292 L57.5725,78.972 L56.3621,78.685 L55.1368,78.435 L53.8997,78.226 L52.6499,78.053 L51.3841,77.922 L50.1057,77.835 L48.8139,77.789 L47.5051,77.79 L46.1831,77.839 L44.8471,77.933 L43.4934,78.077 L42.1258,78.274 L40.7434,78.519 L39.3428,78.82 L37.9261,79.176 L36.6155,79.555 L35.3369,79.986 L34.0962,80.463 L32.8877,80.984 L31.7122,81.55 L30.5737,82.158 L29.4666,82.804 L28.3918,83.491 L27.3527,84.215 L26.344,84.972 L25.3667,85.765 L24.4234,86.589 L23.5092,87.442 L22.6253,88.325 L21.7735,89.235 L20.9495,90.168 L20.1542,91.127 L19.3893,92.108 L18.6505,93.108 L17.9389,94.129 L17.2558,95.167 L16.5974,96.219 L15.9649,97.288 L15.356,98.374 L14.7875,99.464 L14.2161,100.56 L13.6917,101.676 L13.1687,102.79 L12.6906,103.917 L12.2144,105.04 L11.7777,106.169 L11.3415,107.299 L10.9464,108.429 L10.5522,109.558 L10.1969,110.681 L9.8427,111.801 L9.5222,112.91 L9.2018,114.02 L8.9165,115.112 L8.6317,116.203 L8.38,117.269 L8.1296,118.33 L7.8992,119.377 L7.6846,120.405 L7.4849,121.413 L7.2981,122.403 L7.125,123.372 L6.9652,124.317 L6.8169,125.24 L6.6809,126.136 L6.5572,127.005 L6.4436,127.846 L6.3407,128.658 L6.2481,129.436 L6.1645,130.184 L6.0899,130.897 L6.0243,131.572 L5.9661,132.212 L5.9157,132.813 L5.8725,133.372 L5.8356,133.892 L5.805,134.368 L5.7801,134.797 L5.7602,135.184 L5.745,135.522 L5.7342,135.81 L5.7268,136.052 L5.7229,136.244 L5.722,136.39 L5.7235,136.482 L5.764,136.782 L5.764,136.782 L5.7641,136.782 L5.7641,136.783 L5.7641,136.783 L5.7642,136.783 L5.7643,136.783 L5.7644,136.784 L5.7645,136.784 L5.7646,136.784 L5.7647,136.785 L5.7649,136.786 L5.765,136.786 L5.7652,136.787 L5.7653,136.787 L5.7655,136.788 L5.7814,136.845 L5.852,137.029 L6.1234,137.41 L7.1885,137.779 L8.0421,137.336 L8.2446,137.026 L8.3054,136.873 L8.3306,136.785 L8.3435,136.729 L8.351,136.69 L8.3558,136.661 L8.3591,136.638 L8.3615,136.62 L8.3634,136.604 L8.3649,136.591 L8.3661,136.579 L8.3668,136.572 L8.3671,136.569 L8.3673,136.567 L8.3676,136.564 L8.3678,136.562 L8.3679,136.56 L8.3681,136.558 L8.3683,136.557 L8.3684,136.555 L8.3686,136.554 L8.3687,136.553 L8.3688,136.552 L8.3689,136.551 L8.3689,136.551 L8.3689,136.55 L8.369,136.55 L8.3733,136.491 L8.3794,136.374 L8.3858,136.192 L8.3918,135.951 L8.3972,135.653 L8.4015,135.288 L8.4041,134.855 L8.4049,134.359 L8.4032,133.79 L8.3985,133.149 L8.3905,132.44 L8.3786,131.654 L8.3622,130.79 L8.3413,129.854 L8.315,128.836 L8.2827,127.736 L8.2447,126.56 L8.2013,125.298 L8.1532,123.949 L8.1265,123.243 L8.0979,122.516 L8.0673,121.766 L8.0348,120.995 L8.0002,120.201 L7.9633,119.384 L7.9244,118.546 L7.8832,117.684 L7.8396,116.799 L7.7939,115.892 L7.747,114.96 L7.6992,113.991 L7.6164,112.764 L7.5343,111.549 L7.4522,110.333 L7.3684,109.097 L7.2485,107.863 L7.1306,106.65 L7.0127,105.436 L6.8919,104.214 L6.7524,102.992 L6.614,101.781 L6.4756,100.569 L6.3371,99.357 L6.1968,98.144 L6.057,96.935 L5.9213,95.726 L5.786,94.52 L5.6576,93.313 L5.5291,92.108 L5.4127,90.902 L5.2965,89.7 L5.1975,88.496 L5.0987,87.295 L5.0219,86.093 L4.9444,84.881 L4.8653,83.532 L4.7848,82.173 L4.6927,80.766 L4.6007,79.36 L4.5013,77.909 L4.4018,76.461 L4.2987,74.976 L4.1956,73.492 L4.0914,71.973 L3.9874,70.455 L3.8866,68.907 L3.7859,67.36 L3.6913,65.789 L3.5968,64.22 L3.5124,62.63 L3.4279,61.041 L3.3576,59.436 L3.2873,57.831 L3.233,56.215 L3.1787,54.602 L3.1453,52.981 L3.1105,51.362 L3.1005,49.741 L3.0904,48.12 L3.106,46.501 L3.1215,44.884 L3.1687,43.275 L3.2158,41.667 L3.2985,40.071 L3.3813,38.471 L3.4896,36.891 L3.6183,35.318 L3.7683,33.756 L3.9381,32.206 L4.1306,30.671 L4.347,29.15 L4.5854,27.644 L4.8489,26.156 L5.1388,24.687 L5.4531,23.235 L5.7946,21.806 L6.1651,20.399 L6.5622,19.013 L6.9886,17.653 L7.4464,16.318 L7.9328,15.007 L8.4507,13.727 L9.0116,12.454 C9.3565,11.67 9.0009,10.756 8.2174,10.411 C7.4339,10.066 6.5192,10.421 6.1743,11.205 Z" id="Fill-77"></path>
        </g>
    </g>
</svg>
