<?xml version="1.0" encoding="UTF-8"?>
<svg width="210px" height="89px" viewBox="0 0 210 89" version="1.1" xmlns="http://www.w3.org/2000/svg" xmlns:xlink="http://www.w3.org/1999/xlink">
    <title>51</title>
    <g id="Page-1" stroke="none" stroke-width="1" fill="none" fill-rule="evenodd">
        <g id="51" transform="translate(0.365700, 0.304000)" fill="currentColor">
            <path d="M199.2748,81.641 C229.3399,67.602 166.301,20.882 177.993,2.059 C179.9856,-1.149 179.3648,9.233 176.2009,12.157 C168.7213,19.069 158.6704,23.096 143.0462,22.014 C124.2547,20.713 107.5745,15.187 88.3857,14.08 C70.6576,13.057 52.2757,15.608 34.6213,14.08 C33.1197,13.95 4.6095,7.702 1.9146,10.233 C-2.2583,14.152 11.9853,38.01 12.2194,43.413 C12.2543,44.217 10.42,80.569 11.3234,80.92 C24.5936,86.063 54.401,82.846 69.1201,82.362 C110.4732,81.003 168.2442,96.13 199.2748,81.641 Z" id="Fill-74"></path>
            <path d="M199.9594,83.031 L200.9029,82.566 L201.8198,82.059 L202.6759,81.526 L203.48,80.969 L204.2305,80.382 L204.9212,79.771 L205.5605,79.135 L206.1463,78.47 L206.6725,77.784 L207.1468,77.075 L207.5671,76.341 L207.9288,75.59 L208.2396,74.822 L208.4973,74.033 L208.7003,73.234 L208.8559,72.424 L208.9622,71.597 L209.0199,70.764 L209.0354,69.923 L209.0067,69.069 L208.936,68.211 L208.8285,67.346 L208.6818,66.47 L208.4987,65.59 L208.2836,64.704 L208.0341,63.808 L207.7528,62.907 L207.4436,62.001 L207.1041,61.086 L206.737,60.166 L206.3455,59.24 L205.9276,58.307 L205.4859,57.369 L205.0232,56.425 L204.5377,55.476 L204.0299,54.518 L203.5002,53.561 L202.9683,52.601 L202.4005,51.63 L201.8339,50.661 L201.2365,49.682 L200.6408,48.707 L200.021,47.724 L199.4018,46.742 L198.7607,45.754 L198.1208,44.767 L197.464,43.776 L196.8079,42.787 L196.1403,41.796 L195.4736,40.805 L194.799,39.814 L194.1255,38.823 L193.4494,37.834 L192.7741,36.845 L192.1005,35.858 L191.428,34.873 L190.7616,33.891 L190.0963,32.911 L189.4425,31.937 L188.7894,30.963 L188.1507,29.996 L187.5133,29.031 L186.8963,28.075 L186.2805,27.121 L185.6903,26.177 L185.1004,25.234 L184.5376,24.303 L183.9765,23.375 L183.45,22.46 L182.9248,21.549 L182.4391,20.653 L181.9511,19.754 L181.4983,18.878 L181.0675,18.009 L180.6611,17.15 L180.2784,16.303 L179.9228,15.471 L179.5947,14.651 L179.2933,13.844 L179.0228,13.054 L178.783,12.277 L178.5726,11.516 L178.3957,10.775 L178.2522,10.049 L178.1399,9.34 L178.0631,8.654 L178.0214,7.985 L178.0122,7.335 L178.039,6.709 L178.102,6.1 L178.1973,5.51 L178.3289,4.943 L178.4994,4.39 L178.7048,3.853 L178.9482,3.337 L179.2508,2.806 L179.3077,2.72 L179.3468,2.667 L179.3459,2.667 L179.2785,2.72 L179.0903,2.822 L178.7714,2.903 L178.3551,2.874 L177.9677,2.706 L177.7469,2.516 L177.6447,2.376 L177.6061,2.299 L177.5896,2.243 L177.6356,2.431 L177.6677,2.704 L177.6838,3.088 L177.6796,3.547 L177.6507,4.067 L177.5956,4.639 L177.5169,5.244 L177.4126,5.872 L177.2822,6.516 L177.1309,7.163 L176.9557,7.799 L176.7562,8.419 L176.5372,9.012 L176.2999,9.559 L176.0448,10.057 L175.7806,10.495 L175.517,10.853 L175.2461,11.141 L174.346,11.96 L173.4117,12.754 L172.447,13.517 L171.4547,14.25 L170.4305,14.944 L169.3714,15.605 L168.2812,16.233 L167.1571,16.824 L165.9932,17.379 L164.7938,17.9 L163.5556,18.381 L162.2727,18.822 L160.9486,19.223 L159.5811,19.581 L158.1644,19.897 L156.7035,20.173 L155.1944,20.403 L153.6317,20.587 L152.0206,20.728 L150.3568,20.821 L148.6351,20.864 L146.8612,20.861 L145.0302,20.806 L143.132,20.698 L141.9795,20.608 L140.8221,20.518 L139.6751,20.408 L138.5269,20.298 L137.388,20.169 L136.2472,20.04 L135.1138,19.896 L133.9802,19.752 L132.854,19.593 L131.7264,19.434 L130.6051,19.261 L129.482,19.089 L128.3635,18.907 L127.2445,18.724 L126.1297,18.532 L125.0136,18.34 L123.9006,18.141 L122.7861,17.942 L121.6734,17.738 L120.56,17.534 L119.4475,17.327 L118.3336,17.119 L117.2196,16.911 L116.1016,16.702 L114.9791,16.498 L113.8599,16.294 L112.7407,16.091 L111.6215,15.888 L110.5023,15.684 L109.3831,15.481 L108.2639,15.278 L107.1254,15.071 L105.9672,14.897 L104.828,14.725 L103.6887,14.554 L102.5495,14.383 L101.4102,14.211 L100.2709,14.04 L99.1316,13.868 L97.9546,13.692 L96.7404,13.582 L95.5631,13.476 L94.3859,13.37 L93.2086,13.264 L92.0314,13.158 L90.8541,13.052 L89.6768,12.946 L88.4745,12.838 L87.3382,12.783 L86.2187,12.729 L85.096,12.693 L83.9743,12.657 L82.8499,12.637 L81.7271,12.616 L80.6021,12.609 L79.4772,12.602 L78.3501,12.607 L77.224,12.612 L76.0961,12.627 L74.9677,12.643 L73.8371,12.67 L72.7128,12.698 L71.5885,12.725 L70.4581,12.752 L69.3256,12.791 L68.1991,12.829 L67.0727,12.867 L65.9442,12.906 L64.815,12.948 L63.6877,12.99 L62.5605,13.032 L61.4367,13.073 L60.3139,13.108 L59.1877,13.144 L58.0615,13.179 L56.9353,13.214 L55.8091,13.25 L54.6829,13.285 L53.5567,13.32 L52.447,13.355 L51.3429,13.358 L50.2222,13.362 L49.1015,13.366 L47.9807,13.369 L46.86,13.373 L45.7392,13.376 L44.6185,13.38 L43.5301,13.384 L42.4527,13.327 L41.3428,13.268 L40.2329,13.21 L39.123,13.151 L38.0131,13.093 L36.9033,13.035 L35.7934,12.976 L34.6917,12.918 L34.6612,12.913 L34.4912,12.886 L34.2411,12.842 L33.9277,12.786 L33.5509,12.715 L33.1145,12.632 L32.6272,12.539 L32.0872,12.434 L31.4979,12.32 L30.8663,12.198 L30.1912,12.067 L29.476,11.929 L28.7268,11.786 L27.943,11.637 L27.1279,11.483 L26.287,11.325 L25.4204,11.164 L24.5303,11.001 L22.7026,10.672 L20.8177,10.342 L18.9006,10.02 L16.9882,9.72 L15.0697,9.42 L13.228,9.174 L11.3803,8.927 L9.7111,8.763 L8.0527,8.601 L7.2674,8.547 L6.5304,8.509 L5.8308,8.486 L5.1655,8.479 L4.5382,8.489 L3.9533,8.518 L3.4046,8.567 L2.8919,8.641 L2.4183,8.745 L1.9692,8.886 L1.5332,9.093 L1.1219,9.4 L0.7462,9.825 L0.451,10.319 L0.2446,10.842 L0.1058,11.387 L0.0269,11.96 L0,12.551 L0.0145,13.164 L0.0695,13.804 L0.1609,14.467 L0.2832,15.153 L0.4373,15.866 L0.6203,16.602 L0.8281,17.358 L1.0617,18.138 L1.3185,18.937 L1.595,19.752 L1.8918,20.586 L2.2084,21.439 L2.8786,23.162 L3.603,24.931 L4.3631,26.718 L5.1433,28.509 L5.9321,30.289 L6.7133,32.038 L7.4759,33.744 L8.203,35.386 L8.8801,36.948 L9.1951,37.691 L9.4928,38.409 L9.7705,39.097 L10.0279,39.756 L10.2611,40.378 L10.4685,40.963 L10.6505,41.51 L10.8023,42.01 L10.9232,42.462 L11.0139,42.862 L11.0702,43.197 L11.0968,43.503 L11.0937,43.446 L11.0933,43.487 L11.0918,43.56 L11.0891,43.658 L11.0855,43.778 L11.0807,43.921 L11.0682,44.266 L11.0519,44.692 L11.032,45.194 L11.009,45.761 L10.9829,46.396 L10.954,47.094 L10.9227,47.847 L10.8891,48.655 L10.8534,49.515 L10.8159,50.418 L10.7769,51.365 L10.7366,52.35 L10.6955,53.369 L10.6536,54.419 L10.6111,55.496 L10.5683,56.603 L10.5255,57.711 L10.4829,58.85 L10.4404,59.989 L10.3993,61.143 L10.358,62.298 L10.3241,63.418 L10.2913,64.535 L10.2586,65.652 L10.2258,66.769 L10.193,67.886 L10.1602,69.003 L10.1275,70.12 L10.0944,71.25 L10.0773,72.993 L10.0604,74.728 L10.0435,76.463 L10.0271,78.247 L10.1631,79.663 L10.1631,79.663 L10.1637,79.668 L10.1647,79.679 L10.1662,79.695 L10.1683,79.716 L10.1709,79.742 L10.174,79.774 L10.1776,79.811 L10.1817,79.853 L10.1863,79.901 L10.1915,79.954 L10.1972,80.012 L10.2033,80.075 L10.21,80.144 L10.2172,80.218 L10.225,80.297 L10.2353,80.402 L10.252,80.524 L10.2741,80.647 L10.302,80.769 L10.3366,80.89 L10.3787,81.012 L10.429,81.133 L10.4886,81.253 L10.5583,81.371 L10.6386,81.486 L10.7299,81.597 L10.8321,81.701 L10.9442,81.797 L11.065,81.882 L11.1927,81.956 L11.3252,82.018 L11.4195,82.054 L11.4693,82.072 L11.5158,82.089 L11.559,82.104 L11.5988,82.119 L11.6354,82.132 L11.6686,82.144 L11.6985,82.155 L11.7251,82.165 L11.7483,82.173 L11.7683,82.18 L11.7849,82.186 L11.7982,82.191 L11.8081,82.195 L11.8148,82.197 L11.8181,82.198 L11.8547,82.211 L12.7644,82.503 L13.7284,82.777 L14.7251,83.031 L15.7579,83.263 L16.8227,83.475 L17.9163,83.669 L19.041,83.844 L20.1933,84.001 L21.37,84.141 L22.5728,84.265 L23.7987,84.374 L25.0444,84.468 L26.3111,84.547 L27.5959,84.613 L28.8961,84.667 L30.2122,84.709 L31.5431,84.738 L32.8859,84.752 L34.2303,84.767 L35.593,84.76 L36.9546,84.754 L38.3267,84.731 L39.6976,84.709 L41.072,84.673 L42.446,84.637 L43.8172,84.588 L45.1875,84.539 L46.5472,84.48 L47.906,84.421 L49.249,84.355 L50.5916,84.289 L51.9101,84.218 L53.2279,84.147 L54.5138,84.073 L55.799,84 L57.0492,83.926 L58.2987,83.852 L59.5028,83.781 L60.7062,83.711 L61.8565,83.645 L63.0065,83.58 L64.1154,83.519 L65.1923,83.462 L66.2352,83.411 L67.2454,83.364 L68.2177,83.324 L69.1475,83.29 L70.4455,83.257 L71.74,83.224 L73.0556,83.211 L74.3718,83.199 L75.7077,83.206 L77.0446,83.213 L78.3985,83.236 L79.7522,83.26 L81.1234,83.298 L82.4952,83.332 L83.8832,83.382 L85.2721,83.431 L86.6745,83.494 L88.077,83.556 L89.4934,83.631 L90.9102,83.707 L92.3395,83.793 L93.7696,83.878 L95.2099,83.972 L96.6504,84.067 L98.101,84.17 L99.552,84.274 L101.0118,84.385 L102.4715,84.497 L103.9408,84.621 L105.412,84.746 L106.8833,84.87 L108.3527,84.994 L109.8326,85.127 L111.3144,85.26 L112.7962,85.392 L114.2774,85.526 L115.7638,85.662 L117.2508,85.798 L118.7378,85.935 L120.2252,86.071 L121.7132,86.206 L123.2008,86.34 L124.6882,86.476 L126.1771,86.612 L127.6619,86.742 L129.1453,86.872 L130.6286,87.001 L132.1146,87.131 L133.5915,87.249 L135.0655,87.366 L136.5396,87.483 L138.0171,87.6 L139.4819,87.701 L140.9433,87.802 L142.4047,87.903 L143.871,88.004 L145.3187,88.083 L146.7616,88.162 L148.2046,88.24 L149.6535,88.319 L151.0788,88.37 L152.4979,88.421 L153.917,88.472 L155.341,88.522 L156.7462,88.551 L158.1504,88.581 L159.5393,88.593 L160.9286,88.605 L162.3012,88.598 L163.6737,88.59 L165.0301,88.564 L166.3873,88.538 L167.7255,88.491 L169.0642,88.443 L170.3827,88.372 L171.701,88.302 L172.9998,88.209 L174.2996,88.116 L175.5769,87.997 L176.8546,87.878 L178.1086,87.732 L179.3623,87.587 L180.5932,87.415 L181.8253,87.244 L183.0313,87.042 L184.2379,86.841 L185.417,86.609 L186.5957,86.376 L187.7484,86.114 L188.9025,85.852 L190.0269,85.557 L191.1518,85.261 L192.2457,84.93 L193.3364,84.6 L194.411,84.244 L195.4676,83.869 L196.507,83.476 L197.5313,83.065 L198.539,82.635 L199.5228,82.187 C199.8246,82.05 199.9582,81.695 199.8213,81.393 C199.6843,81.091 199.3286,80.957 199.0268,81.094 L198.0549,81.534 L197.0716,81.952 L196.0702,82.352 L195.0531,82.734 L194.0194,83.098 L192.971,83.443 L191.895,83.767 L190.822,84.089 L189.7179,84.377 L188.6132,84.665 L187.4786,84.921 L186.3426,85.176 L185.1805,85.403 L184.0188,85.63 L182.8295,85.826 L181.6397,86.022 L180.4236,86.189 L179.2063,86.356 L177.9663,86.498 L176.7265,86.64 L175.4627,86.755 L174.1984,86.87 L172.9116,86.959 L171.6238,87.049 L170.3165,87.116 L169.0094,87.184 L167.6818,87.229 L166.354,87.274 L165.0072,87.297 L163.6595,87.32 L162.2957,87.324 L160.9319,87.329 L159.5515,87.314 L158.1707,87.3 L156.7746,87.267 L155.3794,87.234 L153.9654,87.179 L152.5465,87.123 L151.1276,87.068 L149.7149,87.012 L148.2784,86.929 L146.8358,86.845 L145.3932,86.761 L143.9555,86.677 L142.4994,86.571 L141.0384,86.464 L139.5774,86.358 L138.1198,86.251 L136.6496,86.129 L135.176,86.006 L133.7025,85.883 L132.2317,85.761 L130.7516,85.626 L129.2688,85.49 L127.786,85.355 L126.3048,85.219 L124.8195,85.077 L123.3329,84.933 L121.8463,84.788 L120.3603,84.643 L118.8748,84.497 L117.3888,84.35 L115.9028,84.203 L114.4163,84.056 L112.935,83.912 L111.4543,83.767 L109.9737,83.622 L108.4911,83.477 L107.019,83.34 L105.5488,83.204 L104.0786,83.067 L102.6064,82.93 L101.1442,82.798 L99.6822,82.666 L98.2288,82.542 L96.775,82.417 L95.3311,82.303 L93.887,82.188 L92.4531,82.082 L91.0184,81.978 L89.5958,81.887 L88.1728,81.796 L86.7632,81.718 L85.3535,81.64 L83.9573,81.575 L82.5601,81.51 L81.1787,81.461 L79.7966,81.417 L78.4316,81.391 L77.0667,81.366 L75.7185,81.357 L74.3691,81.348 L73.0393,81.359 L71.7088,81.37 L70.3991,81.402 L69.0927,81.434 L68.1463,81.467 L67.1647,81.507 L66.1472,81.553 L65.0984,81.604 L64.0165,81.66 L62.9034,81.72 L61.7514,81.785 L60.5996,81.849 L59.3947,81.919 L58.1908,81.988 L56.9414,82.058 L55.6927,82.128 L54.409,82.199 L53.1259,82.269 L51.8111,82.336 L50.497,82.404 L49.1588,82.466 L47.821,82.528 L46.4674,82.583 L45.1149,82.638 L43.7517,82.683 L42.3893,82.728 L41.0241,82.76 L39.6593,82.793 L38.2979,82.811 L36.9379,82.83 L35.5886,82.829 L34.2405,82.829 L32.9108,82.809 L31.5794,82.789 L30.2691,82.754 L28.9723,82.707 L27.692,82.648 L26.4289,82.577 L25.1867,82.491 L23.9666,82.392 L22.7686,82.279 L21.5976,82.151 L20.4539,82.007 L19.3375,81.849 L18.254,81.673 L17.2035,81.481 L16.1858,81.272 L15.2069,81.045 L14.2669,80.8 L13.3651,80.538 L12.4907,80.251 L12.5273,80.263 L12.524,80.262 L12.5174,80.26 L12.5074,80.256 L12.4942,80.251 L12.4776,80.245 L12.4577,80.238 L12.4345,80.229 L12.408,80.219 L12.3782,80.208 L12.3451,80.196 L12.3086,80.183 L12.2688,80.168 L12.2257,80.152 L12.1793,80.135 L12.1296,80.116 L12.1178,80.113 L12.1497,80.128 L12.1825,80.146 L12.2141,80.169 L12.2426,80.193 L12.2667,80.217 L12.2857,80.24 L12.2993,80.259 L12.3079,80.273 L12.3121,80.281 L12.3126,80.282 L12.3105,80.275 L12.3065,80.26 L12.3016,80.237 L12.2964,80.206 L12.2915,80.168 L12.2859,80.103 L12.2786,80.023 L12.2718,79.949 L12.2655,79.881 L12.2597,79.817 L12.2544,79.759 L12.2495,79.706 L12.2452,79.658 L12.2414,79.616 L12.2379,79.579 L12.2351,79.547 L12.2326,79.521 L12.2307,79.5 L12.2293,79.484 L12.2283,79.473 L12.2278,79.468 L12.2278,79.468 L12.1081,78.176 L12.1361,76.49 L12.1635,74.755 L12.191,73.02 L12.2183,71.293 L12.2576,70.189 L12.2971,69.072 L12.3367,67.956 L12.3763,66.839 L12.4159,65.722 L12.4554,64.605 L12.495,63.489 L12.5334,62.375 L12.5794,61.225 L12.6253,60.074 L12.6727,58.936 L12.72,57.799 L12.7675,56.693 L12.815,55.587 L12.862,54.511 L12.9083,53.462 L12.9536,52.445 L12.9976,51.46 L13.0401,50.514 L13.0808,49.611 L13.1198,48.752 L13.1565,47.944 L13.1906,47.191 L13.2221,46.492 L13.2506,45.856 L13.2758,45.288 L13.2977,44.784 L13.3158,44.354 L13.3297,44.004 L13.3352,43.855 L13.3397,43.727 L13.343,43.619 L13.3452,43.528 L13.3462,43.451 L13.3421,43.322 L13.3057,42.909 L13.2273,42.428 L13.1154,41.924 L12.9751,41.392 L12.805,40.826 L12.608,40.23 L12.3878,39.605 L12.1435,38.948 L11.8773,38.263 L11.5927,37.553 L11.289,36.816 L10.9673,36.052 L10.2877,34.475 L9.5589,32.82 L8.7982,31.109 L8.02,29.361 L7.2372,27.591 L6.4656,25.815 L5.7169,24.049 L5.0076,22.313 L4.3507,20.619 L4.0482,19.802 L3.7628,18.999 L3.4983,18.217 L3.2544,17.457 L3.0354,16.725 L2.8424,16.02 L2.675,15.346 L2.5375,14.708 L2.4309,14.108 L2.3538,13.547 L2.31,13.036 L2.2993,12.573 L2.3175,12.164 L2.3642,11.823 L2.4355,11.543 L2.5194,11.326 L2.6057,11.18 L2.7072,11.067 L2.695,11.079 L2.7912,11.036 L3.0007,10.971 L3.2957,10.907 L3.6668,10.854 L4.1109,10.815 L4.6125,10.79 L5.1693,10.781 L5.7792,10.788 L6.4324,10.81 L7.1281,10.846 L7.8488,10.896 L9.4862,11.057 L11.1127,11.216 L12.922,11.459 L14.7374,11.702 L16.6308,12 L18.5302,12.298 L20.4269,12.618 L22.2979,12.946 L24.1165,13.276 L24.9991,13.439 L25.861,13.601 L26.6979,13.759 L27.5094,13.913 L28.29,14.063 L29.0367,14.207 L29.75,14.346 L30.4237,14.477 L31.0546,14.6 L31.6443,14.715 L32.1859,14.82 L32.6762,14.915 L33.1177,15 L33.5036,15.073 L33.8312,15.133 L34.1062,15.181 L34.3285,15.217 L34.5509,15.242 L35.6688,15.303 L36.7786,15.363 L37.8884,15.424 L38.9982,15.484 L40.1079,15.544 L41.2177,15.605 L42.3275,15.665 L43.4698,15.727 L44.6228,15.727 L45.7436,15.726 L46.8643,15.726 L47.9851,15.725 L49.1058,15.724 L50.2266,15.724 L51.3473,15.723 L52.4847,15.723 L53.6275,15.69 L54.7538,15.658 L55.8801,15.626 L57.0064,15.594 L58.1327,15.562 L59.259,15.53 L60.3853,15.498 L61.515,15.466 L62.6458,15.427 L63.7732,15.389 L64.9005,15.35 L66.0259,15.312 L67.1504,15.278 L68.277,15.244 L69.4036,15.209 L70.5241,15.175 L71.6425,15.152 L72.7669,15.129 L73.8914,15.107 L75.0096,15.084 L76.1256,15.072 L77.2421,15.061 L78.3567,15.06 L79.4702,15.059 L80.5813,15.07 L81.6923,15.082 L82.8008,15.106 L83.9077,15.13 L85.0116,15.17 L86.1145,15.209 L87.2141,15.266 L88.2968,15.322 L89.4486,15.43 L90.6255,15.541 L91.8023,15.651 L92.9792,15.761 L94.1561,15.872 L95.3329,15.982 L96.5098,16.092 L97.6497,16.199 L98.7506,16.369 L99.8892,16.545 L101.0279,16.72 L102.1665,16.896 L103.3051,17.072 L104.4437,17.247 L105.5824,17.423 L106.7021,17.596 L107.8015,17.799 L108.92,18.007 L110.0386,18.213 L111.1572,18.42 L112.2758,18.627 L113.3944,18.834 L114.5129,19.041 L115.6282,19.247 L116.7389,19.459 L117.8537,19.671 L118.9683,19.881 L120.0844,20.092 L121.2016,20.299 L122.3196,20.506 L123.4394,20.708 L124.5607,20.91 L125.685,21.106 L126.8106,21.301 L127.9403,21.487 L129.0706,21.674 L130.2055,21.85 L131.3421,22.026 L132.4848,22.19 L133.6289,22.353 L134.7801,22.502 L135.9315,22.65 L137.0904,22.783 L138.2512,22.916 L139.4212,23.03 L140.5924,23.145 L141.774,23.238 L142.9603,23.331 L144.9141,23.443 L146.818,23.501 L148.6646,23.506 L150.462,23.462 L152.2082,23.366 L153.9008,23.218 L155.5476,23.025 L157.1472,22.781 L158.6966,22.49 L160.2034,22.155 L161.6665,21.772 L163.0828,21.344 L164.4608,20.88 L165.7987,20.37 L167.0933,19.818 L168.3512,19.228 L169.5721,18.596 L170.7529,17.926 L171.9,17.22 L173.0131,16.477 L174.0922,15.701 L175.1415,14.895 L176.1604,14.053 L177.1557,13.173 L177.6509,12.66 L178.0987,12.074 L178.4913,11.446 L178.8429,10.785 L179.1576,10.087 L179.4355,9.369 L179.683,8.636 L179.8997,7.89 L180.0852,7.146 L180.2414,6.407 L180.3683,5.68 L180.4657,4.978 L180.5362,4.302 L180.5774,3.658 L180.5879,3.058 L180.5681,2.494 L180.5086,1.96 L180.4075,1.501 L180.2984,1.181 L180.1532,0.889 L179.9304,0.582 L179.5764,0.272 L179.0419,0.038 L178.4643,0 L177.9716,0.125 L177.5954,0.333 L177.3261,0.556 L177.1106,0.785 L176.921,1.029 L176.7353,1.311 L176.3524,1.974 L176.0084,2.687 L175.722,3.416 L175.4856,4.161 L175.3012,4.926 L175.1691,5.7 L175.0831,6.485 L175.0449,7.285 L175.0521,8.091 L175.099,8.906 L175.1876,9.732 L175.3153,10.564 L175.4772,11.404 L175.6758,12.255 L175.9082,13.111 L176.1704,13.975 L176.4649,14.848 L176.7887,15.728 L177.1387,16.615 L177.517,17.511 L177.9215,18.413 L178.3487,19.322 L178.8003,20.239 L179.2761,21.166 L179.7758,22.093 L180.2779,23.025 L180.8194,23.971 L181.3596,24.914 L181.9342,25.871 L182.5069,26.825 L183.107,27.789 L183.7067,28.752 L184.3317,29.726 L184.9556,30.697 L185.5998,31.677 L186.2425,32.655 L186.8996,33.639 L187.556,34.622 L188.2238,35.61 L188.8903,36.597 L189.5632,37.587 L190.2351,38.575 L190.9085,39.565 L191.5809,40.554 L192.2506,41.543 L192.9191,42.53 L193.5798,43.516 L194.2397,44.5 L194.8886,45.482 L195.5369,46.461 L196.1684,47.435 L196.7986,48.407 L197.4069,49.372 L198.0147,50.336 L198.5984,51.293 L199.1804,52.246 L199.7315,53.19 L200.2813,54.13 L200.7951,55.059 L201.3111,55.991 L201.7945,56.904 L202.2577,57.81 L202.6982,58.709 L203.1165,59.598 L203.5089,60.475 L203.8753,61.341 L204.2166,62.197 L204.5285,63.039 L204.8113,63.868 L205.0661,64.685 L205.2887,65.484 L205.4793,66.271 L205.6396,67.042 L205.7653,67.793 L205.8567,68.53 L205.916,69.249 L205.9394,69.947 L205.9265,70.629 L205.8805,71.293 L205.7981,71.934 L205.6775,72.561 L205.5227,73.171 L205.3305,73.759 L205.0967,74.335 L204.8258,74.898 L204.5144,75.442 L204.1555,75.978 L203.7539,76.502 L203.3059,77.01 L202.8026,77.51 L202.2499,77.999 L201.6438,78.473 L200.9756,78.935 L200.2521,79.385 L199.4692,79.818 L198.5902,80.25 C197.8222,80.628 197.5061,81.557 197.8842,82.325 C198.2622,83.093 199.1914,83.41 199.9594,83.031 Z" id="Fill-75"></path>
        </g>
    </g>
</svg>
