<?xml version="1.0" encoding="UTF-8"?>
<svg width="241px" height="118px" viewBox="0 0 241 118" version="1.1" xmlns="http://www.w3.org/2000/svg" xmlns:xlink="http://www.w3.org/1999/xlink">
    <title>53</title>
    <g id="Page-1" stroke="none" stroke-width="1" fill="none" fill-rule="evenodd">
        <g id="53" transform="translate(0.489300, 0.884000)" fill="currentColor">
            <path d="M144.6167,115.553 C158.6247,100.381 232.0177,100.872 224.5447,75.046 C221.9917,66.221 205.5587,64.048 197.4767,62.826 C179.2857,60.073 116.8947,56.474 105.5467,73.235 C100.9777,79.983 168.1027,84.369 151.5117,101.522" id="Fill-68"></path>
            <path d="M145.7287,116.633 L146.1557,116.192 L146.5937,115.785 L147.0747,115.379 L147.5927,114.976 L148.1467,114.579 L148.7407,114.186 L149.3687,113.796 L150.0307,113.413 L150.7287,113.034 L151.4577,112.66 L152.2177,112.292 L153.0107,111.929 L153.8317,111.571 L154.6797,111.218 L155.5567,110.871 L156.4587,110.527 L157.3857,110.19 L158.3337,109.858 L159.3217,109.529 L160.3057,109.202 L161.3317,108.883 L162.3587,108.564 L163.4227,108.253 L164.4897,107.94 L165.5867,107.634 L166.6837,107.326 L167.8097,107.023 L168.9367,106.72 L170.0897,106.422 L171.2437,106.123 L172.4167,105.827 L173.5907,105.53 L174.7827,105.236 L175.9747,104.941 L177.1807,104.648 L178.3867,104.353 L179.6047,104.058 L180.8237,103.762 L182.0417,103.467 L183.2617,103.169 L184.4857,102.866 L185.7067,102.563 L186.9287,102.261 L188.1567,101.954 L189.3707,101.636 L190.5767,101.32 L191.7827,101.004 L192.9967,100.686 L194.1907,100.351 L195.3847,100.017 L196.5597,99.675 L197.7367,99.333 L198.8907,98.984 L200.0477,98.64 L201.1807,98.287 L202.3157,97.933 L203.4217,97.567 L204.5297,97.204 L205.6047,96.831 L206.6797,96.457 L207.7207,96.07 L208.7647,95.682 L209.7677,95.279 L210.7717,94.873 L211.7317,94.451 L212.6857,94.031 L213.6177,93.593 L214.5227,93.146 L215.4007,92.688 L216.2537,92.22 L217.0817,91.739 L217.8807,91.247 L218.6527,90.743 L219.3957,90.224 L220.1067,89.693 L220.7887,89.148 L221.4397,88.586 L222.0547,88.009 L222.6367,87.418 L223.1837,86.806 L223.6907,86.179 L224.1607,85.535 L224.5907,84.868 L224.9757,84.186 L225.3187,83.485 L225.6167,82.762 L225.8637,82.025 L226.0647,81.27 L226.2147,80.495 L226.3107,79.707 L226.3557,78.906 L226.3467,78.086 L226.2817,77.257 L226.1647,76.416 L225.9917,75.559 L225.7627,74.696 L225.5577,74.07 L225.3107,73.464 L225.0257,72.883 L224.7077,72.322 L224.3537,71.78 L223.9687,71.264 L223.5557,70.767 L223.1127,70.29 L222.6447,69.834 L222.1547,69.398 L221.6387,68.978 L221.1027,68.579 L220.5477,68.195 L219.9727,67.828 L219.3807,67.477 L218.7737,67.141 L218.1497,66.82 L217.5007,66.507 L216.2057,65.937 L214.8517,65.411 L213.4657,64.933 L212.0577,64.496 L210.6327,64.098 L209.2047,63.738 L207.7797,63.409 L206.3667,63.112 L204.9777,62.844 L203.6197,62.599 L202.3027,62.378 L201.0397,62.178 L199.8337,61.994 L198.7007,61.825 L197.6497,61.669 L197.0627,61.583 L196.4447,61.496 L195.7987,61.41 L195.1287,61.323 L194.4317,61.237 L193.7087,61.15 L192.9627,61.064 L192.1907,60.979 L191.3957,60.894 L190.5797,60.81 L189.7397,60.726 L188.8767,60.644 L187.0967,60.483 L185.2337,60.327 L183.2967,60.178 L182.2947,60.108 L181.2927,60.037 L180.2587,59.971 L179.2237,59.906 L178.1597,59.845 L177.0957,59.785 L176.0067,59.731 L174.9177,59.676 L173.8037,59.628 L172.6897,59.58 L171.5537,59.539 L170.4177,59.499 L169.2647,59.466 L168.1107,59.432 L166.9397,59.407 L165.7687,59.382 L164.5837,59.367 L163.3997,59.353 L162.2047,59.347 L161.0087,59.341 L159.8047,59.346 L158.5997,59.351 L157.3897,59.368 L156.1797,59.385 L154.9667,59.413 L153.7527,59.44 L152.5377,59.48 L151.3227,59.52 L150.1097,59.572 L148.8977,59.625 L147.6887,59.69 L146.4797,59.756 L145.2777,59.837 L144.0757,59.917 L142.8837,60.012 L141.6917,60.106 L140.5117,60.214 L139.3297,60.323 L138.1637,60.446 L136.9977,60.57 L135.8487,60.71 L134.7007,60.85 L133.5707,61.004 L132.4407,61.16 L131.3327,61.332 L130.2247,61.503 L129.1417,61.692 L128.0597,61.881 L127.0037,62.087 L125.9467,62.293 L124.9197,62.517 L123.8917,62.741 L122.8977,62.984 L121.8997,63.229 L119.9797,63.753 L118.1307,64.321 L116.3727,64.93 L115.5107,65.255 L114.6777,65.589 L113.8677,65.934 L113.0787,66.29 L112.3127,66.659 L111.5727,67.041 L110.8547,67.435 L110.1617,67.842 L109.4977,68.264 L108.8567,68.698 L108.2437,69.148 L107.6597,69.611 L107.1037,70.089 L106.5757,70.584 L106.0807,71.094 L105.6157,71.618 L105.1817,72.161 L104.7837,72.72 L104.5927,73.058 L104.4617,73.436 L104.4107,73.828 L104.4377,74.219 L104.5427,74.596 L104.7077,74.932 L104.9147,75.234 L105.1617,75.512 L105.4387,75.765 L105.7427,76.003 L106.0787,76.232 L106.4417,76.45 L106.8317,76.664 L107.2527,76.873 L107.7017,77.079 L108.1757,77.282 L108.6787,77.484 L109.2097,77.682 L109.7647,77.88 L110.3457,78.076 L110.9507,78.273 L111.5777,78.468 L112.2287,78.664 L112.9037,78.861 L114.3027,79.254 L115.7807,79.658 L117.3267,80.066 L118.9267,80.48 L120.5797,80.9 L122.2747,81.329 L124.0017,81.765 L125.7547,82.213 L127.5247,82.674 L129.3027,83.145 L131.0807,83.628 L132.8487,84.124 L134.5937,84.64 L136.3347,85.154 L138.0097,85.701 L139.6817,86.246 L141.2507,86.826 L142.8207,87.408 L144.2917,88.013 L145.6857,88.637 L146.9977,89.283 L147.6117,89.608 L148.2057,89.94 L148.7737,90.277 L149.3157,90.618 L149.8287,90.963 L150.3117,91.313 L150.7657,91.666 L151.1867,92.023 L151.5747,92.384 L151.9327,92.748 L152.2527,93.113 L152.5387,93.482 L152.7917,93.854 L153.0057,94.225 L153.1847,94.6 L153.3287,94.978 L153.4357,95.356 L153.5057,95.74 L153.5417,96.13 L153.5387,96.524 L153.4957,96.931 L153.4157,97.346 L153.2917,97.772 L153.1217,98.212 L152.9087,98.663 L152.6467,99.126 L152.3327,99.604 L151.9697,100.093 L151.5537,100.593 L151.0717,101.115 C150.8457,101.358 150.8607,101.737 151.1037,101.963 C151.3467,102.188 151.7267,102.173 151.9517,101.93 L152.4557,101.388 L152.9147,100.84 L153.3207,100.299 L153.6777,99.76 L153.9837,99.224 L154.2367,98.693 L154.4427,98.164 L154.5977,97.636 L154.7017,97.114 L154.7577,96.596 L154.7637,96.082 L154.7197,95.577 L154.6307,95.081 L154.4947,94.593 L154.3157,94.118 L154.0967,93.654 L153.8367,93.2 L153.5397,92.758 L153.2087,92.328 L152.8417,91.906 L152.4417,91.496 L152.0127,91.095 L151.5517,90.701 L151.0617,90.317 L150.5457,89.94 L150.0007,89.57 L149.4297,89.208 L148.8357,88.852 L148.2157,88.503 L147.5677,88.157 L146.2257,87.491 L144.7957,86.844 L143.2877,86.218 L141.7007,85.621 L140.1117,85.022 L138.4197,84.457 L136.7307,83.894 L134.9767,83.361 L133.2267,82.829 L131.4477,82.317 L129.6637,81.817 L127.8827,81.331 L126.1117,80.855 L124.3607,80.387 L122.6397,79.927 L120.9517,79.475 L119.3097,79.032 L117.7227,78.595 L116.1947,78.166 L114.7387,77.743 L113.3647,77.318 L112.7127,77.108 L112.0817,76.9 L111.4757,76.693 L110.8947,76.487 L110.3417,76.283 L109.8177,76.081 L109.3207,75.88 L108.8567,75.683 L108.4247,75.487 L108.0247,75.294 L107.6627,75.104 L107.3387,74.918 L107.0517,74.737 L106.8087,74.565 L106.6087,74.401 L106.4517,74.251 L106.3437,74.125 L106.2767,74.021 L106.2427,73.949 L106.2347,73.916 L106.2367,73.895 L106.2407,73.872 L106.2577,73.833 L106.3097,73.75 L106.6517,73.274 L107.0247,72.809 L107.4327,72.352 L107.8697,71.904 L108.3377,71.468 L108.8377,71.041 L109.3667,70.622 L109.9247,70.215 L110.5137,69.818 L111.1297,69.429 L111.7727,69.052 L112.4447,68.685 L113.1417,68.327 L113.8647,67.98 L114.6147,67.643 L115.3877,67.317 L116.1847,67.001 L116.9987,66.699 L118.7117,66.115 L120.5027,65.574 L122.3797,65.072 L123.3467,64.841 L124.3177,64.608 L125.3227,64.395 L126.3287,64.183 L127.3657,63.991 L128.4057,63.798 L129.4697,63.622 L130.5347,63.445 L131.6257,63.288 L132.7177,63.131 L133.8317,62.991 L134.9477,62.851 L136.0827,62.726 L137.2167,62.601 L138.3687,62.492 L139.5217,62.384 L140.6897,62.291 L141.8587,62.197 L143.0387,62.117 L144.2187,62.037 L145.4077,61.972 L146.5987,61.906 L147.7957,61.854 L148.9937,61.801 L150.1957,61.759 L151.3977,61.717 L152.6017,61.687 L153.8057,61.657 L155.0087,61.639 L156.2127,61.62 L157.4137,61.612 L158.6137,61.604 L159.8087,61.606 L161.0027,61.606 L162.1887,61.617 L163.3757,61.628 L164.5517,61.647 L165.7277,61.666 L166.8887,61.693 L168.0507,61.72 L169.1967,61.755 L170.3417,61.79 L171.4697,61.832 L172.5977,61.874 L173.7037,61.923 L174.8097,61.972 L175.8907,62.027 L176.9727,62.083 L178.0287,62.143 L179.0847,62.204 L180.1117,62.27 L181.1377,62.336 L182.1317,62.407 L183.1237,62.478 L185.0487,62.627 L186.8947,62.783 L188.6617,62.946 L189.5127,63.03 L190.3437,63.114 L191.1507,63.2 L191.9367,63.286 L192.6977,63.372 L193.4337,63.459 L194.1467,63.547 L194.8317,63.634 L195.4907,63.722 L196.1237,63.809 L196.7277,63.896 L197.3037,63.982 L198.3517,64.141 L199.4787,64.314 L200.6717,64.502 L201.9157,64.706 L203.2077,64.93 L204.5357,65.176 L205.8887,65.445 L207.2577,65.741 L208.6347,66.067 L210.0087,66.422 L211.3667,66.811 L212.7027,67.237 L214.0057,67.696 L215.2627,68.194 L216.4777,68.74 L217.0447,69.018 L217.6047,69.312 L218.1457,69.617 L218.6697,69.932 L219.1687,70.256 L219.6477,70.592 L220.1037,70.937 L220.5327,71.291 L220.9377,71.657 L221.3187,72.032 L221.6687,72.415 L221.9927,72.81 L222.2897,73.215 L222.5547,73.626 L222.7927,74.053 L223.0027,74.489 L223.1797,74.934 L223.3277,75.395 L223.5167,76.13 L223.6547,76.837 L223.7447,77.525 L223.7927,78.195 L223.7957,78.841 L223.7557,79.473 L223.6767,80.09 L223.5577,80.687 L223.3967,81.276 L223.1987,81.853 L222.9637,82.416 L222.6857,82.972 L222.3727,83.521 L222.0217,84.058 L221.6297,84.59 L221.2027,85.115 L220.7387,85.63 L220.2347,86.139 L219.6957,86.641 L219.1217,87.133 L218.5097,87.619 L217.8657,88.097 L217.1887,88.566 L216.4767,89.027 L215.7357,89.481 L214.9637,89.926 L214.1607,90.363 L213.3307,90.793 L212.4747,91.215 L211.5937,91.627 L210.6687,92.033 L209.7477,92.438 L208.7807,92.826 L207.8117,93.216 L206.7997,93.59 L205.7857,93.966 L204.7367,94.33 L203.6877,94.693 L202.6027,95.041 L201.5147,95.386 L200.3977,95.719 L199.2777,96.053 L198.1347,96.377 L196.9887,96.696 L195.8207,97.002 L194.6507,97.308 L193.4627,97.606 L192.2747,97.904 L191.0717,98.2 L189.8597,98.497 L188.6487,98.794 L187.4457,99.09 L186.2277,99.377 L185.0037,99.668 L183.7797,99.96 L182.5577,100.251 L181.3397,100.537 L180.1197,100.826 L178.8997,101.115 L177.6777,101.404 L176.4677,101.693 L175.2557,101.982 L174.0577,102.273 L172.8567,102.564 L171.6737,102.858 L170.4897,103.151 L169.3247,103.448 L168.1587,103.746 L167.0157,104.048 L165.8727,104.35 L164.7567,104.659 L163.6417,104.97 L162.5557,105.287 L161.4677,105.605 L160.4147,105.931 L159.3607,106.258 L158.3467,106.595 L157.3357,106.93 L156.3457,107.277 L155.3797,107.628 L154.4377,107.986 L153.5167,108.35 L152.6197,108.723 L151.7477,109.103 L150.8997,109.49 L150.0777,109.888 L149.2847,110.295 L148.5167,110.711 L147.7767,111.139 L147.0687,111.577 L146.3897,112.028 L145.7397,112.493 L145.1247,112.971 L144.5407,113.463 L143.9897,113.975 L143.5047,114.473 C142.9087,115.087 142.9227,116.069 143.5367,116.665 C144.1517,117.261 145.1327,117.247 145.7287,116.633 Z" id="Fill-69"></path>
            <path d="M2.4921,25.477 C-0.6885,50.186 3.6417,79.604 23.5487,98.319 C33.4547,107.633 81.2997,93.648 92.9647,93.149 C119.2487,92.025 202.9227,96.686 223.8037,81.089 C225.2117,80.038 224.3647,62.758 225.9527,58.592 C228.3787,52.23 240.2337,32.816 238.8127,26.551 C231.7477,-4.601 175.7117,1.179 152.2367,1.77 C132.6987,2.262 113.7897,6.656 94.5767,9.523 C74.1537,12.57 5.4057,2.845 2.4921,25.477 Z" id="Fill-70"></path>
            <path d="M0.9536,25.289 L0.7629,26.849 L0.5918,28.433 L0.4422,30.026 L0.3124,31.629 L0.2047,33.242 L0.12,34.862 L0.0562,36.49 L0.016,38.126 L0,39.766 L0.0064,41.411 L0.0377,43.062 L0.0945,44.715 L0.175,46.37 L0.2819,48.029 L0.4157,49.687 L0.5744,51.345 L0.7609,53.004 L0.9758,54.659 L1.2168,56.313 L1.4873,57.965 L1.7873,59.611 L2.1148,61.252 L2.4733,62.889 L2.8627,64.518 L3.281,66.14 L3.7317,67.755 L4.2147,69.36 L4.7277,70.955 L5.2757,72.54 L5.8577,74.111 L6.4707,75.671 L7.1207,77.219 L7.8047,78.75 L8.5217,80.267 L9.2767,81.769 L10.0667,83.252 L10.8917,84.719 L11.7557,86.168 L12.6567,87.595 L13.5937,89.003 L14.5707,90.391 L15.5867,91.754 L16.6387,93.096 L17.7337,94.414 L18.8677,95.704 L20.0407,96.971 L21.2557,98.211 L22.5077,99.416 L22.9057,99.767 L23.3257,100.093 L23.7657,100.393 L24.2247,100.674 L24.7077,100.935 L25.2067,101.174 L25.7227,101.396 L26.2597,101.602 L26.8127,101.789 L27.3807,101.961 L27.9677,102.117 L28.5887,102.263 L29.8177,102.502 L31.1327,102.692 L32.5037,102.833 L33.9277,102.93 L35.4067,102.984 L36.9357,102.996 L38.5077,102.973 L40.1247,102.912 L41.7807,102.816 L43.4697,102.69 L45.1927,102.535 L46.9437,102.351 L48.7177,102.145 L50.5137,101.915 L52.3257,101.66 L54.1497,101.386 L55.9837,101.094 L57.8237,100.787 L59.6597,100.464 L61.4967,100.141 L63.3237,99.801 L65.1487,99.466 L66.9447,99.122 L68.7387,98.778 L70.4917,98.432 L72.2437,98.087 L73.9347,97.748 L75.6247,97.413 L77.2357,97.094 L78.8457,96.776 L80.3917,96.473 L81.8847,96.183 L83.3207,95.909 L84.7007,95.652 L86.0147,95.415 L87.2587,95.2 L88.4347,95.007 L89.5297,94.84 L90.5397,94.702 L91.4677,94.591 L92.2957,94.513 L93.0307,94.468 L93.8527,94.435 L94.7217,94.405 L95.6287,94.379 L96.5687,94.356 L97.5457,94.335 L98.5567,94.318 L99.5987,94.303 L100.6737,94.29 L101.7817,94.28 L102.9177,94.271 L104.0837,94.265 L105.2797,94.261 L106.5017,94.258 L107.7517,94.257 L109.0287,94.257 L110.3297,94.258 L111.6557,94.26 L113.0067,94.262 L114.3887,94.266 L115.7717,94.269 L117.1977,94.273 L118.6237,94.277 L120.0907,94.281 L121.5567,94.284 L123.0567,94.286 L124.5577,94.288 L126.0907,94.288 L127.6257,94.288 L129.1897,94.285 L130.7537,94.283 L132.3417,94.277 L133.9307,94.272 L135.5427,94.262 L137.1547,94.252 L138.7867,94.238 L140.4187,94.223 L142.0657,94.204 L143.7137,94.185 L145.3747,94.159 L147.0357,94.134 L148.7067,94.101 L150.3777,94.069 L152.0537,94.03 L153.7317,93.991 L155.4117,93.943 L157.0927,93.896 L158.7727,93.84 L160.4547,93.783 L162.1307,93.713 L163.8017,93.643 L165.4717,93.573 L167.1507,93.503 L168.8097,93.411 L170.4607,93.319 L172.1107,93.226 L173.7717,93.134 L175.3977,93.016 L177.0137,92.898 L178.6287,92.781 L180.2527,92.663 L181.8457,92.526 L183.4367,92.39 L185.0007,92.239 L186.5657,92.088 L188.0997,91.921 L189.6337,91.755 L191.1367,91.573 L192.6407,91.391 L194.1087,91.193 L195.5767,90.994 L197.0047,90.777 L198.4297,90.561 L199.8307,90.331 L201.2077,90.092 L202.5607,89.843 L203.8927,89.586 L205.1997,89.318 L206.4817,89.04 L207.7387,88.753 L208.9697,88.454 L210.1727,88.145 L211.3497,87.825 L212.4977,87.493 L213.6147,87.15 L214.7037,86.795 L215.7627,86.428 L216.7877,86.049 L217.7827,85.658 L218.7457,85.252 L219.6717,84.834 L220.5667,84.402 L221.4267,83.955 L222.2487,83.494 L223.0357,83.018 L223.7867,82.525 L224.4967,82.015 L224.8037,81.712 L224.9947,81.41 L225.1207,81.126 L225.2187,80.84 L225.2997,80.536 L225.3687,80.215 L225.4307,79.874 L225.4857,79.507 L225.5357,79.116 L225.5817,78.703 L225.6227,78.266 L225.6617,77.806 L225.6967,77.327 L225.7287,76.827 L225.7587,76.308 L225.7867,75.773 L225.8127,75.221 L225.8367,74.653 L225.8817,73.489 L225.9227,72.281 L225.9637,71.047 L226.0057,69.797 L226.0477,68.55 L226.1007,67.321 L226.1517,66.097 L226.2227,64.948 L226.2937,63.799 L226.3807,62.742 L226.4827,61.765 L226.6017,60.874 L226.6647,60.482 L226.7327,60.113 L226.8047,59.777 L226.8787,59.475 L226.9537,59.217 L227.0297,58.997 L227.1817,58.612 L227.3607,58.185 L227.5637,57.721 L227.7877,57.226 L228.0317,56.7 L228.2967,56.144 L228.5787,55.562 L228.8767,54.955 L229.1907,54.323 L229.5177,53.671 L229.8577,52.997 L230.2087,52.304 L230.9407,50.868 L231.7037,49.372 L232.4867,47.828 L233.2797,46.25 L234.0737,44.647 L234.8597,43.028 L235.6097,41.419 L236.3647,39.801 L237.0397,38.229 L237.7167,36.649 L238.2707,35.163 L238.8177,33.691 L239.0577,32.96 L239.2707,32.263 L239.4607,31.584 L239.6287,30.922 L239.7727,30.278 L239.8887,29.655 L239.9777,29.049 L240.0377,28.461 L240.0637,27.895 L240.0567,27.346 L240.0097,26.811 L239.9187,26.302 L239.6717,25.299 L239.3907,24.319 L239.0777,23.366 L238.7337,22.435 L238.3567,21.526 L237.9487,20.643 L237.5127,19.782 L237.0457,18.943 L236.5507,18.13 L236.0287,17.337 L235.4777,16.567 L234.8997,15.821 L234.2987,15.095 L233.6697,14.391 L233.0167,13.711 L232.3417,13.051 L231.6417,12.411 L230.9197,11.794 L230.1777,11.196 L229.4117,10.618 L228.6267,10.062 L227.8227,9.523 L226.9987,9.004 L226.1557,8.504 L225.2957,8.022 L224.4167,7.558 L223.5217,7.112 L222.6117,6.683 L221.6847,6.271 L220.7377,5.874 L219.7797,5.505 L218.8167,5.134 L217.8247,4.794 L216.8337,4.455 L215.8167,4.146 L214.8017,3.839 L213.7647,3.557 L212.7277,3.275 L211.6677,3.021 L210.6087,2.768 L209.5307,2.541 L208.4547,2.314 L207.3617,2.111 L206.2697,1.907 L205.1607,1.727 L204.0537,1.548 L202.9337,1.391 L201.8147,1.234 L200.6857,1.097 L199.5577,0.96 L198.4197,0.844 L197.2827,0.727 L196.1407,0.63 L194.9987,0.533 L193.8537,0.451 L192.7077,0.37 L191.5607,0.306 L190.4137,0.242 L189.2677,0.193 L188.1227,0.144 L186.9797,0.109 L185.8367,0.073 L184.6997,0.05 L183.5617,0.026 L182.4327,0.015 L181.3037,0.003 L180.1827,0.002 L179.0627,0 L177.9537,0.008 L176.8457,0.016 L175.7517,0.032 L174.6587,0.049 L173.5807,0.071 L172.5027,0.093 L171.4427,0.121 L170.3837,0.148 L169.3447,0.181 L168.3077,0.213 L167.2907,0.249 L166.2737,0.285 L164.2927,0.362 L162.3687,0.441 L160.4997,0.52 L158.6957,0.596 L156.9627,0.668 L155.2987,0.734 L153.7137,0.79 L152.2087,0.835 L150.9867,0.877 L149.7597,0.918 L148.5357,0.979 L147.3117,1.04 L146.0907,1.119 L144.8717,1.198 L143.6547,1.293 L142.4377,1.388 L141.2227,1.5 L140.0087,1.611 L138.7967,1.737 L137.5857,1.863 L136.3767,2.002 L135.1687,2.141 L133.9617,2.292 L132.7547,2.443 L131.5497,2.606 L130.3457,2.768 L129.1437,2.94 L127.9407,3.111 L126.7397,3.292 L125.5397,3.476 L124.3407,3.669 L123.1417,3.862 L121.9447,4.063 L120.7497,4.264 L119.5547,4.465 L118.3567,4.666 L117.1607,4.876 L115.9667,5.085 L114.7727,5.294 L113.5787,5.504 L112.3837,5.718 L111.1907,5.932 L109.9977,6.145 L108.8047,6.359 L107.6107,6.57 L106.4167,6.782 L105.2227,6.994 L104.0307,7.206 L102.8367,7.41 L101.6407,7.612 L100.4447,7.815 L99.2527,8.016 L98.0577,8.206 L96.8587,8.397 L95.6597,8.587 L94.4647,8.777 L93.8267,8.869 L93.1547,8.953 L92.4507,9.03 L91.7177,9.1 L90.9557,9.163 L90.1627,9.219 L89.3437,9.269 L88.4987,9.313 L87.6257,9.351 L86.7297,9.384 L85.8077,9.412 L84.8647,9.434 L82.9077,9.467 L81.8887,9.475 L80.8677,9.484 L79.8077,9.485 L78.7477,9.485 L77.6537,9.48 L76.5607,9.474 L75.4337,9.465 L74.3057,9.455 L73.1487,9.442 L71.9917,9.429 L70.8097,9.414 L69.6287,9.399 L68.4227,9.384 L67.2167,9.368 L65.9917,9.353 L64.7657,9.338 L63.5237,9.325 L62.2817,9.311 L61.0257,9.301 L59.7697,9.291 L58.5037,9.285 L57.2357,9.279 L55.9597,9.281 L54.6857,9.283 L53.4117,9.285 L52.1327,9.287 L50.8527,9.305 L49.5757,9.323 L48.2987,9.341 L47.0167,9.359 L45.7457,9.399 L44.4797,9.438 L43.2147,9.477 L41.9447,9.516 L40.6897,9.572 L39.4347,9.628 L38.1957,9.698 L36.9547,9.769 L35.7337,9.855 L34.5117,9.942 L33.3087,10.043 L32.1047,10.145 L30.9257,10.265 L29.7467,10.385 L28.5947,10.525 L27.4427,10.665 L26.3187,10.823 L25.1937,10.982 L24.1027,11.163 L23.0107,11.344 L21.9557,11.549 L20.9027,11.753 L19.8727,11.975 L18.8647,12.209 L17.8787,12.457 L16.9117,12.716 L15.9677,12.99 L15.0477,13.278 L14.1497,13.58 L13.2767,13.896 L12.4297,14.228 L11.6067,14.575 L10.8107,14.938 L10.0427,15.317 L9.3017,15.712 L8.5897,16.126 L7.9087,16.557 L7.2567,17.005 L6.6357,17.473 L6.0497,17.96 L5.4947,18.465 L4.9737,18.991 L4.4897,19.538 L4.0407,20.104 L3.6287,20.693 L3.2575,21.303 L2.924,21.932 L2.6319,22.585 L2.3839,23.257 L2.1763,23.95 L2.0134,24.665 L1.8996,25.382 C1.8475,25.71 2.0705,26.017 2.3978,26.069 C2.7251,26.121 3.0326,25.898 3.0847,25.571 L3.1928,24.893 L3.3389,24.257 L3.5257,23.639 L3.7477,23.04 L4.0077,22.462 L4.3067,21.9 L4.6397,21.355 L5.0097,20.828 L5.4167,20.317 L5.8577,19.821 L6.3337,19.341 L6.8457,18.877 L7.3897,18.427 L7.9667,17.994 L8.5787,17.575 L9.2217,17.17 L9.8947,16.78 L10.6007,16.406 L11.3347,16.044 L12.0977,15.698 L12.8907,15.366 L13.7087,15.047 L14.5547,14.742 L15.4267,14.451 L16.3227,14.172 L17.2437,13.907 L18.1887,13.655 L19.1547,13.414 L20.1427,13.186 L21.1507,12.971 L22.1917,12.771 L23.2297,12.571 L24.3057,12.395 L25.3817,12.218 L26.4927,12.064 L27.6047,11.909 L28.7447,11.773 L29.8847,11.636 L31.0527,11.52 L32.2207,11.403 L33.4147,11.304 L34.6077,11.205 L35.8217,11.122 L37.0347,11.038 L38.2667,10.97 L39.4987,10.902 L40.7457,10.849 L41.9917,10.795 L43.2527,10.759 L44.5177,10.723 L45.7837,10.688 L47.0437,10.653 L48.3147,10.639 L49.5917,10.625 L50.8687,10.611 L52.1407,10.597 L53.4117,10.599 L54.6857,10.601 L55.9597,10.604 L57.2317,10.606 L58.4947,10.616 L59.7587,10.627 L61.0127,10.642 L62.2667,10.656 L63.5067,10.674 L64.7477,10.692 L65.9727,10.711 L67.1977,10.73 L68.4027,10.75 L69.6087,10.77 L70.7907,10.789 L71.9727,10.808 L73.1307,10.826 L74.2897,10.843 L75.4187,10.857 L76.5477,10.871 L77.6447,10.88 L78.7417,10.889 L79.8057,10.894 L80.8697,10.899 L81.8957,10.897 L82.9227,10.896 L84.8867,10.875 L85.8427,10.859 L86.7727,10.837 L87.6797,10.809 L88.5637,10.776 L89.4227,10.737 L90.2547,10.692 L91.0627,10.64 L91.8447,10.581 L92.5967,10.515 L93.3227,10.441 L94.0207,10.359 L94.6877,10.268 L95.8917,10.086 L97.0927,9.905 L98.2927,9.723 L99.4967,9.541 L100.6977,9.347 L101.8957,9.154 L103.0937,8.961 L104.2937,8.77 L105.4927,8.573 L106.6887,8.377 L107.8857,8.18 L109.0837,7.983 L110.2797,7.785 L111.4757,7.587 L112.6717,7.389 L113.8667,7.191 L115.0627,6.995 L116.2577,6.798 L117.4537,6.601 L118.6467,6.404 L119.8407,6.216 L121.0367,6.027 L122.2337,5.838 L123.4277,5.649 L124.6217,5.469 L125.8167,5.289 L127.0127,5.114 L128.2077,4.936 L129.4027,4.767 L130.5987,4.598 L131.7957,4.438 L132.9927,4.278 L134.1907,4.129 L135.3877,3.98 L136.5877,3.844 L137.7867,3.708 L138.9887,3.584 L140.1887,3.46 L141.3917,3.351 L142.5937,3.241 L143.7987,3.148 L145.0037,3.055 L146.2107,2.978 L147.4177,2.9 L148.6267,2.841 L149.8357,2.782 L151.0477,2.743 L152.2657,2.705 L153.7727,2.664 L155.3667,2.611 L157.0367,2.549 L158.7727,2.481 L160.5777,2.408 L162.4447,2.334 L164.3667,2.26 L166.3427,2.189 L167.3557,2.155 L168.3687,2.122 L169.4027,2.092 L170.4357,2.063 L171.4907,2.037 L172.5447,2.012 L173.6167,1.993 L174.6897,1.975 L175.7767,1.964 L176.8627,1.952 L177.9637,1.949 L179.0637,1.946 L180.1757,1.952 L181.2877,1.959 L182.4087,1.975 L183.5277,1.991 L184.6547,2.019 L185.7817,2.047 L186.9127,2.088 L188.0437,2.13 L189.1777,2.184 L190.3097,2.239 L191.4427,2.309 L192.5747,2.378 L193.7047,2.465 L194.8357,2.551 L195.9617,2.653 L197.0867,2.755 L198.2057,2.876 L199.3237,2.997 L200.4327,3.138 L201.5417,3.279 L202.6407,3.439 L203.7387,3.599 L204.8227,3.781 L205.9057,3.963 L206.9727,4.168 L208.0397,4.373 L209.0907,4.601 L210.1397,4.827 L211.1687,5.08 L212.1967,5.332 L213.2017,5.611 L214.2067,5.89 L215.1887,6.194 L216.1697,6.497 L217.1217,6.83 L218.0737,7.161 L218.9957,7.523 L219.9227,7.886 L220.8187,8.266 L221.7007,8.662 L222.5667,9.075 L223.4157,9.501 L224.2447,9.944 L225.0557,10.403 L225.8487,10.877 L226.6207,11.367 L227.3727,11.875 L228.1047,12.398 L228.8137,12.938 L229.5017,13.497 L230.1697,14.072 L230.8127,14.663 L231.4327,15.274 L232.0317,15.903 L232.6047,16.549 L233.1537,17.215 L233.6797,17.9 L234.1787,18.603 L234.6527,19.328 L235.1027,20.071 L235.5237,20.835 L235.9187,21.622 L236.2887,22.429 L236.6287,23.256 L236.9417,24.109 L237.2267,24.983 L237.4817,25.879 L237.7067,26.8 L237.7607,27.106 L237.7907,27.454 L237.7937,27.852 L237.7727,28.29 L237.7237,28.764 L237.6467,29.277 L237.5447,29.82 L237.4157,30.392 L237.2617,30.994 L237.0847,31.62 L236.8857,32.268 L236.6697,32.921 L236.1307,34.365 L235.5967,35.796 L234.9387,37.327 L234.2777,38.865 L233.5357,40.45 L232.7907,42.043 L232.0157,43.637 L231.2277,45.225 L230.4377,46.793 L229.6567,48.331 L228.8947,49.825 L228.1617,51.262 L227.8077,51.959 L227.4647,52.637 L227.1337,53.296 L226.8147,53.936 L226.5107,54.554 L226.2237,55.148 L225.9507,55.719 L225.6967,56.266 L225.4617,56.785 L225.2447,57.279 L225.0497,57.745 L224.8757,58.187 L224.7597,58.519 L224.6547,58.881 L224.5607,59.263 L224.4747,59.665 L224.3957,60.092 L224.3227,60.549 L224.1957,61.494 L224.0877,62.529 L223.9957,63.634 L223.9237,64.806 L223.8507,65.978 L223.7967,67.223 L223.7437,68.462 L223.7007,69.718 L223.6577,70.97 L223.6167,72.203 L223.5757,73.404 L223.5307,74.561 L223.5067,75.117 L223.4807,75.658 L223.4537,76.181 L223.4247,76.685 L223.3927,77.168 L223.3587,77.626 L223.3227,78.061 L223.2837,78.467 L223.2417,78.843 L223.1977,79.189 L223.1507,79.497 L223.1017,79.767 L223.0517,79.997 L223.0047,80.173 L222.9637,80.292 L222.9427,80.343 L222.9747,80.296 L223.1107,80.163 L222.4777,80.616 L221.8027,81.058 L221.0837,81.492 L220.3267,81.916 L219.5297,82.328 L218.6927,82.731 L217.8187,83.124 L216.9087,83.506 L215.9607,83.877 L214.9797,84.239 L213.9647,84.589 L212.9147,84.929 L211.8337,85.259 L210.7217,85.578 L209.5777,85.887 L208.4057,86.187 L207.2047,86.476 L205.9747,86.755 L204.7187,87.025 L203.4367,87.285 L202.1277,87.535 L200.7967,87.776 L199.4417,88.008 L198.0647,88.23 L196.6527,88.441 L195.2437,88.651 L193.7937,88.844 L192.3427,89.036 L190.8547,89.212 L189.3647,89.388 L187.8447,89.549 L186.3247,89.71 L184.7737,89.856 L183.2217,90.001 L181.6437,90.132 L180.0667,90.263 L178.4587,90.374 L176.8427,90.486 L175.2267,90.598 L173.6207,90.709 L171.9797,90.795 L170.3287,90.881 L168.6777,90.968 L167.0357,91.054 L165.3737,91.118 L163.7027,91.182 L162.0317,91.246 L160.3657,91.31 L158.6937,91.361 L157.0197,91.411 L155.3457,91.453 L153.6717,91.494 L151.9997,91.528 L150.3287,91.561 L148.6627,91.587 L146.9967,91.614 L145.3407,91.634 L143.6837,91.653 L142.0407,91.667 L140.3967,91.681 L138.7687,91.69 L137.1397,91.699 L135.5317,91.703 L133.9217,91.707 L132.3367,91.708 L130.7507,91.709 L129.1887,91.707 L127.6267,91.705 L126.0947,91.7 L124.5627,91.696 L123.0637,91.69 L121.5647,91.684 L120.0987,91.678 L118.6327,91.672 L117.2067,91.666 L115.7797,91.66 L114.3977,91.654 L113.0147,91.649 L111.6627,91.644 L110.3347,91.64 L109.0317,91.637 L107.7527,91.635 L106.4997,91.634 L105.2737,91.635 L104.0737,91.638 L102.9027,91.642 L101.7617,91.649 L100.6487,91.657 L99.5657,91.669 L98.5167,91.682 L97.4967,91.699 L96.5107,91.718 L95.5587,91.741 L94.6387,91.767 L93.7557,91.797 L92.8987,91.831 L92.0887,91.88 L91.1857,91.965 L90.2037,92.082 L89.1517,92.225 L88.0217,92.397 L86.8197,92.593 L85.5547,92.811 L84.2237,93.051 L82.8317,93.31 L81.3857,93.585 L79.8857,93.875 L78.3347,94.179 L76.7227,94.497 L75.1117,94.815 L73.4217,95.146 L71.7327,95.474 L69.9827,95.808 L68.2347,96.142 L66.4457,96.474 L64.6577,96.806 L62.8407,97.129 L61.0257,97.446 L59.1987,97.743 L57.3707,98.04 L55.5497,98.319 L53.7347,98.584 L51.9317,98.831 L50.1437,99.061 L48.3777,99.274 L46.6357,99.464 L44.9207,99.63 L43.2397,99.769 L41.5967,99.879 L39.9927,99.96 L38.4367,100.009 L36.9317,100.025 L35.4787,100.007 L34.0887,99.95 L32.7637,99.854 L31.5037,99.72 L30.3247,99.544 L29.2057,99.32 L28.7047,99.2 L28.2097,99.066 L27.7357,98.92 L27.2847,98.766 L26.8597,98.603 L26.4587,98.429 L26.0807,98.246 L25.7317,98.057 L25.4067,97.857 L25.1057,97.65 L24.8337,97.439 L24.5887,97.222 L23.3907,96.062 L22.2387,94.881 L21.1257,93.673 L20.0477,92.441 L19.0097,91.185 L18.0097,89.905 L17.0437,88.603 L16.1157,87.28 L15.2247,85.934 L14.3667,84.569 L13.5457,83.186 L12.7597,81.781 L12.0047,80.36 L11.2867,78.923 L10.6017,77.467 L9.9477,75.997 L9.3287,74.513 L8.7417,73.013 L8.1847,71.501 L7.6587,69.978 L7.1647,68.441 L6.6997,66.895 L6.2657,65.339 L5.8627,63.773 L5.4867,62.2 L5.1407,60.619 L4.8247,59.031 L4.5347,57.438 L4.2737,55.84 L4.0397,54.238 L3.8327,52.632 L3.6517,51.025 L3.4982,49.415 L3.3687,47.805 L3.2653,46.196 L3.1875,44.587 L3.1325,42.98 L3.1025,41.376 L3.0967,39.775 L3.1126,38.179 L3.1521,36.589 L3.2145,35.004 L3.2974,33.426 L3.4025,31.857 L3.5297,30.296 L3.6757,28.744 L3.8417,27.204 L4.0307,25.665 C4.1347,24.815 3.5297,24.042 2.6803,23.938 C1.8306,23.834 1.0575,24.439 0.9536,25.289 Z" id="Fill-71"></path>
        </g>
    </g>
</svg>
