<?xml version="1.0" encoding="UTF-8"?>
<svg width="252px" height="86px" viewBox="0 0 252 86" version="1.1" xmlns="http://www.w3.org/2000/svg" xmlns:xlink="http://www.w3.org/1999/xlink">
    <title>54</title>
    <g id="Page-1" stroke="currentColor" stroke-width="1" fill="none" fill-rule="evenodd">
        <g id="54" transform="translate(0.513000, 0.981000)" fill="currentColor">
            <path d="M72.156,82.495 C79.362,78.334 88.334,73.845 94.601,69.27 C144.577,32.786 -21.8929,61.169 4.092,27.55 C29.509,-5.333 148.307,-3.107 199.613,10.628 C215.59,14.906 253.508,24.873 250.197,36.526 C244.458,56.724 153.288,67.015 120.433,70.655 C113.525,71.42 100.893,70.997 97.492,74.379" id="Fill-66"></path>
            <path d="M72.925,83.842 L73.841,83.318 L74.753,82.798 L75.694,82.271 L76.638,81.743 L77.603,81.209 L78.571,80.673 L79.551,80.132 L80.534,79.59 L81.522,79.043 L82.513,78.494 L83.502,77.941 L84.495,77.384 L85.471,76.822 L86.439,76.265 L87.408,75.707 L88.395,75.138 L89.332,74.562 L90.249,73.997 L91.167,73.432 L92.115,72.848 L92.98,72.256 L93.811,71.686 L94.643,71.116 L95.497,70.531 L96.293,69.942 L97.039,69.374 L97.75,68.817 L98.429,68.267 L99.076,67.726 L99.688,67.195 L100.27,66.671 L100.821,66.154 L101.339,65.645 L101.828,65.144 L102.286,64.647 L102.713,64.159 L103.111,63.676 L103.481,63.196 L103.819,62.722 L104.13,62.252 L104.412,61.782 L104.663,61.317 L104.886,60.854 L105.079,60.388 L105.24,59.926 L105.371,59.464 L105.469,58.998 L105.532,58.537 L105.562,58.078 L105.555,57.617 L105.512,57.166 L105.434,56.723 L105.319,56.285 L105.17,55.864 L104.99,55.457 L104.776,55.061 L104.536,54.686 L104.272,54.327 L103.979,53.981 L103.665,53.654 L103.332,53.342 L102.975,53.041 L102.6,52.755 L102.208,52.481 L101.794,52.218 L101.343,51.955 L100.455,51.491 L99.47,51.049 L98.419,50.64 L97.306,50.258 L96.125,49.9 L94.881,49.567 L93.58,49.255 L92.217,48.963 L90.797,48.69 L89.327,48.434 L87.801,48.195 L86.226,47.972 L84.606,47.763 L82.94,47.568 L81.231,47.385 L79.485,47.213 L77.7,47.053 L75.881,46.903 L74.032,46.761 L72.153,46.627 L70.248,46.501 L68.32,46.381 L66.371,46.267 L64.403,46.158 L62.421,46.053 L60.426,45.951 L59.423,45.9 L58.42,45.85 L57.413,45.8 L56.406,45.751 L55.399,45.701 L54.393,45.653 L53.384,45.605 L52.374,45.556 L51.365,45.507 L50.357,45.459 L49.353,45.407 L48.348,45.356 L47.342,45.304 L46.34,45.253 L44.347,45.142 L42.357,45.037 L40.395,44.919 L38.435,44.802 L36.517,44.669 L34.598,44.535 L32.717,44.389 L30.866,44.227 L29.048,44.052 L27.263,43.866 L25.517,43.667 L23.812,43.454 L22.149,43.227 L20.534,42.984 L18.97,42.721 L17.456,42.443 L16,42.148 L14.604,41.834 L13.266,41.503 L11.996,41.153 L10.796,40.782 L9.663,40.395 L8.61,39.988 L7.636,39.56 L6.74,39.116 L5.935,38.657 L5.217,38.179 L4.586,37.69 L4.053,37.194 L3.588,36.658 L3.419,36.429 L3.254,36.174 L3.108,35.914 L2.981,35.651 L2.877,35.389 L2.791,35.118 L2.722,34.842 L2.675,34.563 L2.646,34.27 L2.636,33.968 L2.647,33.659 L2.681,33.333 L2.736,32.994 L2.815,32.645 L2.92,32.278 L3.05,31.897 L3.206,31.504 L3.393,31.094 L3.606,30.671 L3.849,30.236 L4.124,29.784 L4.427,29.32 L4.762,28.844 L5.122,28.364 L5.914,27.382 L6.758,26.433 L7.664,25.501 L8.624,24.587 L9.641,23.693 L10.718,22.818 L11.848,21.961 L13.031,21.124 L14.271,20.306 L15.56,19.506 L16.9,18.727 L18.293,17.966 L19.732,17.223 L21.219,16.5 L22.755,15.797 L24.334,15.112 L25.958,14.447 L27.628,13.802 L29.336,13.174 L31.087,12.565 L32.879,11.976 L34.708,11.405 L36.575,10.853 L38.482,10.32 L39.449,10.063 L40.418,9.805 L41.404,9.557 L42.391,9.309 L43.394,9.07 L44.399,8.832 L45.418,8.601 L46.436,8.371 L47.471,8.15 L48.505,7.929 L49.555,7.718 L50.605,7.506 L51.669,7.302 L52.732,7.099 L53.81,6.905 L54.887,6.711 L55.978,6.525 L57.07,6.34 L58.173,6.163 L59.276,5.986 L60.391,5.818 L61.506,5.649 L62.633,5.49 L63.761,5.33 L64.899,5.179 L66.036,5.027 L67.184,4.884 L68.332,4.742 L69.491,4.607 L70.649,4.473 L71.817,4.346 L72.984,4.22 L74.16,4.102 L75.336,3.985 L76.52,3.875 L77.703,3.766 L78.897,3.668 L80.096,3.57 L81.295,3.471 L82.486,3.373 L83.69,3.292 L84.903,3.21 L86.115,3.127 L87.32,3.046 L88.535,2.98 L89.759,2.914 L90.982,2.848 L92.199,2.782 L93.423,2.731 L94.655,2.679 L95.886,2.627 L97.11,2.576 L98.341,2.54 L99.579,2.504 L100.816,2.468 L102.047,2.432 L103.282,2.411 L104.524,2.39 L105.767,2.369 L107.002,2.348 L108.24,2.341 L109.484,2.333 L110.728,2.326 L111.965,2.318 L113.202,2.325 L114.445,2.332 L115.689,2.339 L116.926,2.345 L118.161,2.366 L119.402,2.387 L120.643,2.409 L121.878,2.43 L123.109,2.464 L124.345,2.497 L125.582,2.531 L126.812,2.565 L128.035,2.612 L129.265,2.659 L130.495,2.706 L131.718,2.753 L132.932,2.813 L134.152,2.873 L135.372,2.933 L136.587,2.993 L137.791,3.064 L139.001,3.136 L140.211,3.208 L141.414,3.279 L142.604,3.363 L143.8,3.447 L144.996,3.53 L146.185,3.614 L147.359,3.709 L148.539,3.805 L149.719,3.901 L150.893,3.997 L152.05,4.103 L153.213,4.209 L154.377,4.316 L155.534,4.421 L156.67,4.539 L157.812,4.656 L158.955,4.774 L160.091,4.891 L161.205,5.019 L162.324,5.148 L163.444,5.277 L164.56,5.405 L165.658,5.54 L166.758,5.675 L167.844,5.815 L168.931,5.956 L170.003,6.101 L171.076,6.247 L172.137,6.397 L173.196,6.547 L174.241,6.702 L175.286,6.857 L176.316,7.017 L177.346,7.176 L178.361,7.34 L179.376,7.504 L180.375,7.672 L181.373,7.841 L182.354,8.014 L183.335,8.187 L185.267,8.541 L187.161,8.905 L189.018,9.277 L190.839,9.657 L192.62,10.045 L194.36,10.441 L196.061,10.845 L197.719,11.257 L199.336,11.677 L200.358,11.947 L201.439,12.233 L202.571,12.534 L203.746,12.847 L204.966,13.175 L206.227,13.517 L207.521,13.871 L208.85,14.239 L210.209,14.62 L211.592,15.013 L212.998,15.418 L214.424,15.836 L215.872,16.272 L217.318,16.707 L218.784,17.166 L220.249,17.625 L221.718,18.107 L223.186,18.589 L224.647,19.092 L226.105,19.594 L227.541,20.117 L228.975,20.64 L230.371,21.183 L231.769,21.728 L233.127,22.284 L234.457,22.85 L235.753,23.425 L237.014,24.007 L238.234,24.598 L239.409,25.197 L240.54,25.802 L241.617,26.413 L242.639,27.032 L243.606,27.656 L244.508,28.283 L245.343,28.915 L246.113,29.549 L246.807,30.183 L247.423,30.818 L247.965,31.449 L248.421,32.073 L248.793,32.693 L249.086,33.303 L249.291,33.899 L249.417,34.522 L249.444,34.787 L249.455,35.079 L249.445,35.374 L249.415,35.67 L249.364,35.966 L249.292,36.256 L249.108,36.824 L248.876,37.376 L248.591,37.932 L248.257,38.487 L247.873,39.041 L247.434,39.596 L246.948,40.15 L246.412,40.701 L245.824,41.251 L245.19,41.799 L244.509,42.343 L243.778,42.883 L243.004,43.42 L242.186,43.952 L241.322,44.48 L240.418,45.003 L239.473,45.521 L238.485,46.034 L237.461,46.543 L236.398,47.046 L235.296,47.543 L234.16,48.036 L232.989,48.523 L231.782,49.005 L230.545,49.481 L229.275,49.952 L227.973,50.417 L226.643,50.877 L225.284,51.331 L223.895,51.78 L222.482,52.225 L221.045,52.669 L219.581,53.107 L218.095,53.54 L216.585,53.968 L215.054,54.39 L213.491,54.805 L211.93,55.219 L210.331,55.625 L208.731,56.03 L207.097,56.425 L205.462,56.82 L203.799,57.204 L202.137,57.589 L200.448,57.963 L198.758,58.332 L197.045,58.69 L195.332,59.048 L193.602,59.396 L191.873,59.744 L190.129,60.082 L188.384,60.418 L186.63,60.744 L184.875,61.069 L183.114,61.385 L181.354,61.7 L179.591,62.005 L177.828,62.31 L176.067,62.602 L174.305,62.894 L172.549,63.176 L170.792,63.458 L169.046,63.73 L167.299,64.001 L165.566,64.263 L163.834,64.524 L162.117,64.776 L160.401,65.027 L158.706,65.269 L157.011,65.511 L155.343,65.742 L153.674,65.974 L152.032,66.196 L150.391,66.418 L148.783,66.63 L147.175,66.842 L145.606,67.044 L144.036,67.246 L142.505,67.439 L140.973,67.631 L139.488,67.813 L138.002,67.996 L136.567,68.169 L135.131,68.342 L133.733,68.508 L132.362,68.67 L131.02,68.826 L129.706,68.979 L128.422,69.127 L127.171,69.27 L125.95,69.409 L124.762,69.544 L123.61,69.674 L122.491,69.8 L121.409,69.921 L120.367,70.037 L119.485,70.127 L118.549,70.207 L117.561,70.279 L116.535,70.345 L115.471,70.408 L114.378,70.469 L113.258,70.533 L112.135,70.596 L110.996,70.669 L109.853,70.743 L108.723,70.836 L107.592,70.929 L106.48,71.041 L105.391,71.169 L104.334,71.317 L103.309,71.484 L102.325,71.675 L101.391,71.893 L100.507,72.138 L99.68,72.417 L98.92,72.733 L98.224,73.088 L97.602,73.494 L97.101,73.925 C96.85,74.141 96.822,74.52 97.038,74.771 C97.254,75.022 97.633,75.05 97.884,74.834 L98.321,74.456 L98.823,74.13 L99.422,73.827 L100.101,73.546 L100.858,73.292 L101.688,73.064 L102.577,72.858 L103.521,72.677 L104.514,72.517 L105.545,72.375 L106.611,72.251 L107.702,72.143 L108.822,72.053 L109.942,71.963 L111.073,71.892 L112.208,71.821 L113.326,71.76 L114.446,71.699 L115.541,71.64 L116.61,71.579 L117.645,71.513 L118.645,71.443 L119.6,71.363 L120.499,71.273 L121.546,71.158 L122.629,71.038 L123.749,70.915 L124.902,70.787 L126.09,70.654 L127.312,70.517 L128.565,70.376 L129.849,70.23 L131.165,70.08 L132.508,69.925 L133.881,69.766 L135.281,69.602 L136.718,69.432 L138.155,69.261 L139.643,69.081 L141.13,68.901 L142.664,68.712 L144.197,68.523 L145.769,68.326 L147.341,68.128 L148.951,67.921 L150.562,67.714 L152.206,67.497 L153.851,67.28 L155.522,67.055 L157.194,66.829 L158.892,66.593 L160.591,66.357 L162.311,66.111 L164.031,65.865 L165.767,65.61 L167.504,65.355 L169.255,65.089 L171.006,64.823 L172.766,64.547 L174.527,64.271 L176.293,63.985 L178.06,63.699 L179.829,63.406 L181.598,63.112 L183.365,62.807 L185.131,62.502 L186.893,62.187 L188.654,61.873 L190.406,61.548 L192.159,61.223 L193.897,60.887 L195.634,60.551 L197.356,60.205 L199.078,59.859 L200.778,59.502 L202.479,59.149 L204.154,58.784 L205.829,58.419 L207.477,58.044 L209.125,57.669 L210.74,57.282 L212.354,56.894 L213.93,56.493 L215.505,56.092 L217.055,55.682 L218.581,55.266 L220.085,54.844 L221.566,54.416 L223.024,53.982 L224.454,53.537 L225.859,53.085 L227.237,52.627 L228.585,52.162 L229.907,51.691 L231.199,51.214 L232.458,50.731 L233.688,50.241 L234.885,49.745 L236.047,49.242 L237.177,48.733 L238.271,48.217 L239.327,47.694 L240.348,47.164 L241.331,46.626 L242.274,46.082 L243.179,45.53 L244.043,44.969 L244.864,44.401 L245.645,43.825 L246.383,43.24 L247.074,42.645 L247.722,42.042 L248.324,41.426 L248.875,40.8 L249.381,40.163 L249.836,39.512 L250.235,38.85 L250.584,38.175 L250.875,37.485 L251.102,36.796 L251.212,36.359 L251.288,35.93 L251.332,35.504 L251.347,35.079 L251.332,34.652 L251.283,34.202 L251.12,33.401 L250.842,32.584 L250.466,31.794 L250.006,31.022 L249.458,30.268 L248.832,29.533 L248.136,28.814 L247.367,28.107 L246.53,27.415 L245.635,26.733 L244.676,26.062 L243.661,25.403 L242.595,24.753 L241.476,24.112 L240.31,23.481 L239.102,22.859 L237.852,22.247 L236.563,21.645 L235.243,21.052 L233.89,20.469 L232.506,19.895 L231.096,19.337 L229.683,18.778 L228.232,18.239 L226.782,17.701 L225.309,17.185 L223.838,16.67 L222.358,16.175 L220.879,15.68 L219.403,15.209 L217.929,14.738 L216.474,14.291 L215.021,13.845 L213.587,13.415 L212.175,12.999 L210.786,12.596 L209.423,12.206 L208.09,11.828 L206.792,11.465 L205.528,11.115 L204.306,10.779 L203.129,10.458 L201.997,10.151 L200.917,9.858 L199.89,9.58 L198.259,9.149 L196.581,8.725 L194.86,8.309 L193.102,7.901 L191.303,7.501 L189.465,7.11 L187.592,6.728 L185.682,6.354 L183.737,5.99 L182.747,5.812 L181.758,5.634 L180.752,5.46 L179.746,5.287 L178.723,5.118 L177.701,4.95 L176.665,4.786 L175.628,4.623 L174.576,4.464 L173.524,4.306 L172.457,4.152 L171.39,3.999 L170.311,3.85 L169.231,3.702 L168.138,3.558 L167.045,3.415 L165.938,3.277 L164.831,3.138 L163.706,3.008 L162.586,2.878 L161.467,2.748 L160.34,2.618 L159.191,2.498 L158.048,2.379 L156.905,2.261 L155.756,2.141 L154.586,2.033 L153.423,1.926 L152.26,1.818 L151.091,1.711 L149.906,1.613 L148.726,1.517 L147.546,1.42 L146.36,1.323 L145.157,1.238 L143.961,1.153 L142.765,1.069 L141.563,0.984 L140.347,0.911 L139.137,0.839 L137.928,0.767 L136.712,0.694 L135.486,0.633 L134.266,0.573 L133.046,0.512 L131.819,0.451 L130.583,0.403 L129.354,0.355 L128.124,0.308 L126.888,0.26 L125.645,0.225 L124.409,0.191 L123.172,0.157 L121.93,0.122 L120.683,0.1 L119.442,0.078 L118.201,0.056 L116.953,0.034 L115.703,0.025 L114.46,0.017 L113.216,0.008 L111.966,0 L110.715,0.006 L109.471,0.012 L108.227,0.018 L106.977,0.023 L105.729,0.043 L104.487,0.062 L103.245,0.081 L101.996,0.1 L100.751,0.134 L99.513,0.168 L98.274,0.202 L97.029,0.236 L95.79,0.286 L94.559,0.335 L93.327,0.383 L92.089,0.432 L90.858,0.496 L89.634,0.559 L88.411,0.622 L87.179,0.685 L85.958,0.765 L84.746,0.844 L83.533,0.923 L82.311,1.002 L81.103,1.098 L79.904,1.193 L78.704,1.288 L77.499,1.384 L76.303,1.491 L75.11,1.598 L73.924,1.713 L72.738,1.829 L71.561,1.953 L70.385,2.076 L69.217,2.208 L68.048,2.339 L66.889,2.479 L65.73,2.619 L64.582,2.768 L63.434,2.917 L62.296,3.074 L61.157,3.231 L60.03,3.397 L58.903,3.563 L57.788,3.738 L56.673,3.913 L55.57,4.097 L54.466,4.28 L53.375,4.473 L52.285,4.666 L51.208,4.868 L50.131,5.07 L49.068,5.28 L48.004,5.491 L46.954,5.711 L45.905,5.932 L44.871,6.161 L43.837,6.391 L42.818,6.63 L41.799,6.869 L40.795,7.117 L39.792,7.366 L38.805,7.625 L37.817,7.884 L35.879,8.419 L33.974,8.974 L32.107,9.551 L30.274,10.146 L28.48,10.762 L26.727,11.4 L25.011,12.057 L23.337,12.737 L21.708,13.438 L20.119,14.16 L18.575,14.904 L17.079,15.672 L15.626,16.46 L14.222,17.273 L12.869,18.11 L11.562,18.969 L10.307,19.854 L9.106,20.762 L7.956,21.694 L6.86,22.654 L5.823,23.638 L4.839,24.647 L3.914,25.684 L3.061,26.737 L2.639,27.298 L2.255,27.842 L1.903,28.378 L1.579,28.909 L1.284,29.435 L1.021,29.954 L0.787,30.469 L0.581,30.981 L0.408,31.487 L0.264,31.989 L0.15,32.49 L0.069,32.983 L0.018,33.473 L0,33.961 L0.015,34.439 L0.06,34.911 L0.14,35.379 L0.252,35.833 L0.392,36.276 L0.566,36.712 L0.767,37.131 L0.994,37.537 L1.251,37.933 L1.553,38.339 L2.157,39.032 L2.878,39.704 L3.677,40.324 L4.549,40.905 L5.499,41.449 L6.519,41.955 L7.604,42.432 L8.759,42.879 L9.978,43.297 L11.255,43.692 L12.596,44.062 L13.995,44.409 L15.446,44.736 L16.953,45.042 L18.511,45.329 L20.114,45.599 L21.765,45.855 L23.459,46.096 L25.191,46.323 L26.963,46.536 L28.771,46.736 L30.609,46.924 L32.479,47.101 L34.378,47.274 L36.306,47.434 L38.236,47.594 L40.208,47.738 L42.178,47.882 L44.176,48.013 L46.173,48.139 L47.183,48.199 L48.188,48.258 L49.194,48.317 L50.201,48.376 L51.212,48.433 L52.221,48.489 L53.23,48.546 L54.24,48.602 L55.247,48.658 L56.253,48.713 L57.26,48.767 L58.266,48.821 L59.267,48.875 L60.268,48.93 L62.258,49.041 L64.234,49.154 L66.194,49.271 L68.133,49.391 L70.05,49.516 L71.942,49.646 L73.805,49.783 L75.636,49.928 L77.436,50.082 L79.197,50.244 L80.917,50.417 L82.597,50.6 L84.23,50.794 L85.813,51.002 L87.347,51.223 L88.825,51.457 L90.243,51.707 L91.604,51.971 L92.897,52.25 L94.122,52.547 L95.28,52.859 L96.358,53.188 L97.358,53.534 L98.279,53.894 L99.108,54.268 L99.869,54.668 L100.184,54.853 L100.494,55.051 L100.781,55.252 L101.044,55.452 L101.28,55.651 L101.493,55.851 L101.684,56.05 L101.848,56.244 L101.991,56.438 L102.115,56.63 L102.215,56.816 L102.298,57.006 L102.366,57.196 L102.415,57.383 L102.45,57.581 L102.47,57.786 L102.472,57.997 L102.457,58.225 L102.424,58.468 L102.371,58.721 L102.293,58.995 L102.192,59.285 L102.066,59.588 L101.91,59.912 L101.727,60.25 L101.516,60.601 L101.272,60.97 L100.999,61.353 L100.695,61.747 L100.356,62.158 L99.987,62.58 L99.586,63.014 L99.149,63.462 L98.681,63.922 L98.179,64.393 L97.64,64.877 L97.07,65.372 L96.465,65.878 L95.823,66.397 L95.148,66.926 L94.437,67.467 L93.704,68.009 L92.894,68.564 L92.062,69.133 L91.231,69.703 L90.431,70.251 L89.545,70.796 L88.627,71.361 L87.71,71.925 L86.812,72.478 L85.863,73.024 L84.894,73.581 L83.926,74.139 L82.966,74.691 L81.989,75.238 L81.007,75.788 L80.022,76.332 L79.035,76.878 L78.055,77.419 L77.073,77.961 L76.103,78.497 L75.131,79.035 L74.181,79.567 L73.228,80.1 L72.305,80.626 L71.388,81.149 C70.645,81.574 70.386,82.52 70.81,83.264 C71.235,84.007 72.181,84.266 72.925,83.842 Z" id="Fill-67"></path>
        </g>
    </g>
</svg>
