<?xml version="1.0" encoding="UTF-8"?>
<svg width="194px" height="93px" viewBox="0 0 194 93" version="1.1" xmlns="http://www.w3.org/2000/svg" xmlns:xlink="http://www.w3.org/1999/xlink">
    <title>55</title>
    <g id="Page-1" stroke="none" stroke-width="1" fill="none" fill-rule="evenodd">
        <g id="55" transform="translate(0.781400, 0.831000)" fill="currentColor">
            <path d="M88.2835,86.824 C76.7672,98.702 137.3297,73.243 140.2907,71.912 C162.0585,62.125 215.3491,42.817 174.577,18.541 C99.5702,-26.119 -8.4058,26.461 1.7858,54.414 C20.1064,104.662 235.115,81.621 184.5288,31.039" id="Fill-64"></path>
            <path d="M87.1537,85.763 L86.7958,86.144 L86.4606,86.531 L86.1673,86.905 L85.9081,87.276 L85.6834,87.656 L85.5007,88.047 L85.3603,88.47 L85.2832,88.953 L85.3075,89.472 L85.4612,90.006 L85.7599,90.501 L86.1343,90.868 L86.5342,91.124 L86.9439,91.297 L87.339,91.405 L87.7315,91.473 L88.1358,91.51 L88.5472,91.522 L88.9724,91.514 L89.4193,91.487 L89.8846,91.443 L90.3693,91.383 L90.8783,91.307 L91.4085,91.217 L91.9592,91.113 L92.5336,90.995 L93.1291,90.864 L93.7442,90.72 L94.3812,90.564 L95.0379,90.395 L95.7125,90.216 L96.4068,90.025 L97.1189,89.822 L97.8468,89.611 L98.592,89.388 L99.3564,89.155 L100.9143,88.667 L102.5307,88.143 L104.1929,87.588 L105.8913,87.008 L107.6233,86.403 L109.3802,85.778 L111.1541,85.136 L112.94,84.481 L114.7298,83.815 L116.5168,83.142 L118.2944,82.466 L120.0542,81.789 L121.7918,81.115 L123.4983,80.447 L125.1653,79.789 L126.7905,79.144 L128.3627,78.514 L129.8735,77.904 L131.3227,77.316 L132.6974,76.754 L133.9887,76.223 L134.6053,75.969 L135.198,75.724 L135.7665,75.488 L136.3122,75.261 L136.832,75.044 L137.3249,74.838 L137.7925,74.642 L138.2316,74.458 L138.6411,74.285 L139.0229,74.123 L139.3735,73.975 L139.6919,73.839 L139.9804,73.716 L140.2352,73.606 L140.4555,73.511 L140.6441,73.429 L140.7981,73.362 L140.9139,73.31 L142.3076,72.687 L143.7769,72.04 L145.3194,71.366 L146.9217,70.668 L148.5829,69.945 L150.2948,69.197 L152.0468,68.426 L153.8366,67.63 L155.6543,66.811 L156.5749,66.39 L157.4955,65.969 L158.4234,65.536 L159.3521,65.103 L160.2841,64.658 L161.2195,64.211 L162.1536,63.748 L163.0783,63.29 L164.0031,62.832 L164.9444,62.366 L165.8724,61.878 L166.784,61.398 L167.6957,60.918 L168.6278,60.427 L169.5318,59.914 L170.4146,59.412 L171.2969,58.909 L172.2011,58.394 L173.936,57.345 L175.6263,56.273 L177.2616,55.178 L178.8424,54.062 L180.3573,52.92 L181.794,51.753 L183.1574,50.563 L184.4355,49.347 L185.6042,48.119 L186.1718,47.477 L186.7024,46.839 L187.2043,46.195 L187.6803,45.545 L188.128,44.885 L188.5456,44.221 L188.9347,43.549 L189.2922,42.867 L189.6142,42.179 L189.9038,41.483 L190.1576,40.776 L190.372,40.065 L190.5501,39.345 L190.6879,38.615 L190.7825,37.882 L190.8371,37.143 L190.8469,36.395 L190.8107,35.647 L190.7316,34.895 L190.6045,34.137 L190.4297,33.38 L190.2107,32.623 L189.9435,31.861 L189.628,31.103 L189.2672,30.345 L188.8551,29.584 L188.3941,28.826 L187.8869,28.069 L187.3271,27.31 L186.7172,26.553 L186.0598,25.796 L185.3479,25.038 L184.584,24.28 L183.7707,23.522 L182.9009,22.762 L181.9765,22.001 L181.0005,21.24 L179.9655,20.476 L178.8734,19.712 L177.7272,18.946 L176.5197,18.177 L175.2512,17.406 L174.0621,16.717 L172.8708,16.026 L171.6686,15.369 L170.4666,14.711 L169.2545,14.086 L168.0438,13.461 L166.8243,12.865 L165.6037,12.269 L164.3741,11.704 L163.1446,11.139 L161.9066,10.605 L160.6701,10.071 L159.4263,9.565 L158.1814,9.059 L156.929,8.582 L155.6769,8.106 L154.4179,7.659 L153.1603,7.213 L151.8968,6.794 L150.6321,6.374 L149.3616,5.984 L148.0913,5.593 L146.8157,5.231 L145.5416,4.869 L144.2631,4.533 L142.9837,4.196 L141.7,3.886 L140.4166,3.577 L139.1294,3.295 L137.8437,3.013 L136.555,2.755 L135.2655,2.498 L133.9734,2.266 L132.6814,2.034 L131.3875,1.828 L130.0949,1.622 L128.8009,1.439 L127.506,1.256 L126.2101,1.098 L124.9144,0.939 L123.6183,0.805 L122.3234,0.671 L121.0285,0.559 L119.7329,0.447 L118.4378,0.358 L117.143,0.27 L115.8493,0.204 L114.5569,0.138 L113.2658,0.093 L111.974,0.048 L110.6844,0.025 L109.395,0.002 L108.1083,0.001 L106.8227,0 L105.5401,0.018 L104.2567,0.036 L102.9771,0.075 L101.6977,0.114 L100.4226,0.173 L99.1486,0.233 L97.8789,0.31 L96.6086,0.388 L95.3435,0.485 L94.0786,0.582 L92.8196,0.698 L91.5616,0.813 L90.3093,0.946 L89.0564,1.079 L87.8104,1.23 L86.5646,1.381 L85.3262,1.55 L84.0888,1.719 L82.8586,1.903 L81.6277,2.088 L80.4053,2.29 L79.1831,2.491 L77.9699,2.709 L76.7575,2.927 L75.5539,3.16 L74.3496,3.393 L73.1554,3.641 L71.9613,3.89 L70.7777,4.153 L69.595,4.416 L68.4223,4.692 L67.2491,4.969 L66.0874,5.26 L64.9258,5.551 L63.7765,5.856 L62.6279,6.161 L61.4909,6.478 L60.3532,6.796 L59.2287,7.126 L58.1043,7.456 L56.9936,7.799 L55.8838,8.142 L54.7868,8.496 L53.6893,8.85 L52.6065,9.216 L51.5238,9.582 L50.4564,9.96 L49.3897,10.337 L48.3373,10.724 L47.2843,11.111 L46.2476,11.508 L45.2109,11.906 L44.1911,12.314 L43.1722,12.721 L42.1689,13.138 L41.1651,13.555 L40.1791,13.981 L39.1932,14.407 L38.2257,14.842 L37.259,15.276 L36.3095,15.719 L35.3594,16.161 L34.4287,16.612 L33.498,17.063 L32.5874,17.522 L31.6751,17.981 L29.8943,18.91 L28.1525,19.854 L26.4547,20.81 L24.797,21.778 L23.1837,22.758 L21.6176,23.747 L20.0943,24.745 L18.6185,25.753 L17.193,26.769 L15.8133,27.791 L14.4839,28.82 L13.2079,29.855 L11.9804,30.895 L10.8063,31.939 L9.6888,32.987 L8.6231,34.038 L7.6139,35.093 L6.6643,36.148 L5.7691,37.204 L4.9335,38.262 L4.1611,39.319 L3.446,40.376 L2.7941,41.434 L2.2094,42.489 L1.6863,43.542 L1.2307,44.596 L0.8466,45.644 L0.5282,46.69 L0.2829,47.734 L0.1144,48.769 L0.0172,49.799 L0,50.825 L0.0648,51.837 L0.2061,52.837 L0.4331,53.826 L0.7408,54.781 L1.0639,55.614 L1.4175,56.422 L1.8037,57.215 L2.2198,57.995 L2.6693,58.763 L3.1494,59.516 L3.6579,60.256 L4.1982,60.983 L4.7673,61.695 L5.3633,62.395 L5.9894,63.082 L6.6429,63.755 L7.3221,64.415 L8.0301,65.062 L8.7641,65.695 L9.5221,66.316 L10.3072,66.925 L11.117,67.52 L11.9496,68.103 L12.808,68.674 L13.6897,69.233 L14.5932,69.779 L15.5212,70.314 L16.4713,70.837 L17.4422,71.348 L18.4362,71.847 L19.4513,72.335 L20.4861,72.811 L21.5426,73.276 L22.6193,73.729 L23.7144,74.171 L24.8302,74.602 L25.965,75.022 L27.1172,75.43 L28.2888,75.828 L29.4811,76.216 L30.6918,76.586 L31.906,76.957 L33.1552,77.306 L34.404,77.655 L35.6861,77.982 L36.9668,78.309 L38.2765,78.616 L39.5866,78.924 L40.9269,79.211 L42.2669,79.498 L43.6354,79.763 L45.0028,80.028 L46.3948,80.275 L47.7873,80.521 L49.2053,80.746 L50.6228,80.973 L52.0641,81.179 L53.5045,81.385 L54.9651,81.572 L56.4261,81.759 L57.9079,81.926 L59.3894,82.094 L60.89,82.241 L62.3897,82.388 L63.9053,82.516 L65.4213,82.645 L66.9533,82.755 L68.485,82.864 L70.0309,82.953 L71.5761,83.043 L73.1328,83.115 L74.6899,83.188 L76.258,83.242 L77.826,83.296 L79.4034,83.331 L80.9802,83.366 L82.5641,83.384 L84.1483,83.401 L85.7389,83.4 L87.3294,83.398 L88.9243,83.378 L90.5188,83.358 L92.1159,83.322 L93.7134,83.285 L95.3124,83.23 L96.9111,83.17 L98.5093,83.09 L100.107,83.009 L101.7029,82.913 L103.299,82.816 L104.8918,82.702 L106.4844,82.588 L108.0717,82.455 L109.6584,82.32 L111.2388,82.17 L112.8196,82.02 L114.392,81.853 L115.9643,81.685 L117.5265,81.501 L119.0884,81.318 L120.64,81.122 L122.192,80.927 L123.7309,80.714 L125.2697,80.502 L126.7936,80.273 L128.3171,80.044 L129.8257,79.8 L131.3347,79.557 L132.8258,79.298 L134.3169,79.038 L135.7883,78.763 L137.2593,78.487 L138.711,78.198 L140.1631,77.908 L141.5924,77.602 L143.0221,77.298 L144.4274,76.979 L145.8322,76.66 L147.2134,76.326 L148.5951,75.993 L149.9492,75.644 L151.3033,75.295 L152.6281,74.931 L153.9526,74.567 L155.2489,74.189 L156.5459,73.811 L157.8104,73.418 L159.075,73.025 L160.3055,72.618 L161.5356,72.21 L162.7332,71.789 L163.9316,71.368 L165.0927,70.933 L166.2541,70.498 L167.3764,70.048 L168.4984,69.598 L169.5835,69.136 L170.6695,68.673 L171.7134,68.196 L172.7576,67.718 L173.758,67.227 L174.7561,66.737 L175.7281,66.237 L176.6756,65.729 L177.5995,65.215 L178.5017,64.695 L179.3804,64.167 L180.2342,63.633 L181.0653,63.092 L181.8717,62.544 L182.6519,61.989 L183.4084,61.428 L184.1389,60.86 L184.8421,60.285 L185.5204,59.703 L186.1716,59.114 L186.794,58.518 L187.3905,57.916 L187.9586,57.306 L188.4965,56.69 L189.0073,56.067 L189.4883,55.436 L189.9377,54.798 L190.3584,54.154 L190.748,53.502 L191.1043,52.843 L191.4308,52.178 L191.724,51.504 L191.9827,50.825 L192.2097,50.14 L192.4019,49.446 L192.558,48.748 L192.6809,48.043 L192.7672,47.331 L192.8161,46.615 L192.8307,45.894 L192.807,45.166 L192.745,44.435 L192.6476,43.7 L192.5109,42.958 L192.3351,42.214 L192.1231,41.466 L191.871,40.713 L191.5791,39.958 L191.2505,39.199 L190.8806,38.435 L190.4705,37.669 L190.0228,36.9 L189.5331,36.126 L189.0021,35.349 L188.4328,34.57 L187.8206,33.785 L187.166,32.998 L186.4722,32.207 L185.7343,31.412 L184.958,30.619 C184.7264,30.382 184.3465,30.378 184.1095,30.609 C183.8725,30.841 183.8681,31.221 184.0997,31.458 L184.8637,32.241 L185.5779,33.013 L186.2486,33.781 L186.8797,34.542 L187.4671,35.298 L188.0124,36.048 L188.5194,36.792 L188.9842,37.53 L189.4083,38.262 L189.7954,38.988 L190.1419,39.706 L190.4492,40.42 L190.721,41.127 L190.954,41.827 L191.1493,42.521 L191.3108,43.21 L191.435,43.891 L191.5232,44.567 L191.579,45.237 L191.5993,45.901 L191.5847,46.56 L191.539,47.214 L191.4592,47.862 L191.3456,48.505 L191.2016,49.145 L191.0248,49.778 L190.8147,50.408 L190.575,51.034 L190.3035,51.655 L189.9992,52.272 L189.6661,52.885 L189.3019,53.492 L188.9057,54.096 L188.4814,54.696 L188.0268,55.29 L187.5412,55.88 L187.0282,56.466 L186.4861,57.046 L185.9139,57.621 L185.3153,58.192 L184.6886,58.757 L184.0331,59.317 L183.3521,59.872 L182.6442,60.42 L181.9087,60.964 L181.1488,61.502 L180.3631,62.034 L179.551,62.56 L178.7158,63.081 L177.8559,63.595 L176.9709,64.103 L176.0638,64.606 L175.1333,65.102 L174.181,65.59 L173.1931,66.072 L172.2074,66.552 L171.1776,67.018 L170.1476,67.485 L169.0752,67.938 L168.0019,68.391 L166.8915,68.832 L165.7815,69.272 L164.6323,69.699 L163.4829,70.126 L162.296,70.538 L161.1082,70.95 L159.888,71.349 L158.668,71.749 L157.4138,72.133 L156.1593,72.518 L154.8723,72.888 L153.5847,73.258 L152.2689,73.614 L150.9535,73.97 L149.6086,74.312 L148.2635,74.653 L146.8908,74.979 L145.5176,75.305 L144.1205,75.617 L142.7238,75.929 L141.3026,76.225 L139.8809,76.52 L138.4364,76.798 L136.9914,77.077 L135.527,77.341 L134.0631,77.605 L132.5795,77.853 L131.0959,78.101 L129.5942,78.332 L128.0921,78.563 L126.575,78.779 L125.0584,78.994 L123.527,79.194 L121.9956,79.393 L120.4511,79.575 L118.9063,79.758 L117.3506,79.921 L115.7953,80.084 L114.2301,80.23 L112.665,80.375 L111.0916,80.504 L109.518,80.632 L107.9384,80.745 L106.3594,80.859 L104.7754,80.956 L103.1915,81.054 L101.6043,81.133 L100.0167,81.213 L98.4275,81.277 L96.8389,81.34 L95.2501,81.388 L93.6616,81.441 L92.0745,81.475 L90.487,81.51 L88.9023,81.528 L87.318,81.546 L85.7384,81.545 L84.1588,81.545 L82.5855,81.526 L81.0118,81.507 L79.4453,81.471 L77.8794,81.435 L76.3228,81.381 L74.7664,81.326 L73.2212,81.252 L71.6756,81.177 L70.1415,81.084 L68.6082,80.992 L67.0892,80.88 L65.5703,80.768 L64.0675,80.636 L62.5644,80.505 L61.0771,80.355 L59.5907,80.206 L58.1235,80.036 L56.6565,79.867 L55.2105,79.678 L53.7639,79.489 L52.3379,79.281 L50.9128,79.074 L49.5118,78.845 L48.1112,78.616 L46.7365,78.367 L45.3613,78.117 L44.011,77.849 L42.6619,77.581 L41.3417,77.293 L40.0219,77.005 L38.7329,76.695 L37.4435,76.385 L36.1835,76.056 L34.925,75.727 L33.7002,75.377 L32.476,75.028 L31.2874,74.657 L30.0955,74.285 L28.935,73.901 L27.7917,73.505 L26.6675,73.099 L25.5616,72.683 L24.477,72.257 L23.4126,71.82 L22.3678,71.373 L21.3454,70.916 L20.3446,70.448 L19.3644,69.971 L18.408,69.483 L17.4743,68.985 L16.5624,68.477 L15.6757,67.959 L14.8127,67.43 L13.9727,66.891 L13.159,66.343 L12.3703,65.783 L11.6056,65.214 L10.8684,64.636 L10.1573,64.046 L9.4712,63.448 L8.8137,62.84 L8.183,62.221 L7.5778,61.593 L7.0024,60.956 L6.4547,60.308 L5.9337,59.651 L5.4433,58.985 L4.9815,58.307 L4.547,57.62 L4.1437,56.924 L3.77,56.217 L3.4242,55.5 L3.1101,54.773 L2.8307,54.047 L2.5733,53.24 L2.3919,52.436 L2.279,51.613 L2.2282,50.777 L2.2456,49.928 L2.331,49.059 L2.4779,48.174 L2.692,47.278 L2.9746,46.363 L3.3185,45.434 L3.7284,44.495 L4.2063,43.542 L4.7437,42.578 L5.3452,41.607 L6.0125,40.625 L6.7378,39.637 L7.5249,38.644 L8.3751,37.645 L9.2806,36.643 L10.245,35.64 L11.2693,34.634 L12.3456,33.627 L13.4776,32.621 L14.666,31.617 L15.9042,30.615 L17.195,29.617 L18.5389,28.623 L19.9294,27.634 L21.3692,26.653 L22.8589,25.678 L24.3922,24.71 L25.9717,23.753 L27.5977,22.805 L29.2643,21.867 L30.9739,20.941 L32.7291,20.027 L33.6223,19.578 L34.5172,19.128 L35.4323,18.685 L36.3474,18.242 L37.2821,17.807 L38.2176,17.372 L39.1704,16.944 L40.1225,16.516 L41.0932,16.097 L42.0639,15.678 L43.0527,15.268 L44.0421,14.858 L45.0475,14.456 L46.0521,14.055 L47.0738,13.664 L48.0954,13.272 L49.1334,12.891 L50.1721,12.51 L51.2254,12.139 L52.278,11.768 L53.346,11.409 L54.414,11.049 L55.4968,10.701 L56.5802,10.353 L57.6767,10.016 L58.7724,9.679 L59.8819,9.355 L60.9914,9.031 L62.114,8.719 L63.2374,8.408 L64.3723,8.109 L65.5065,7.81 L66.6529,7.525 L67.7991,7.239 L68.957,6.968 L70.1156,6.697 L71.2842,6.44 L72.4521,6.182 L73.6306,5.94 L74.8091,5.698 L75.9976,5.471 L77.1867,5.245 L78.3845,5.032 L79.5814,4.82 L80.7874,4.625 L81.9932,4.429 L83.2074,4.25 L84.4224,4.071 L85.6446,3.908 L86.8658,3.745 L88.0945,3.599 L89.3229,3.454 L90.5583,3.326 L91.7943,3.199 L93.0362,3.088 L94.2769,2.977 L95.5237,2.885 L96.7702,2.794 L98.022,2.722 L99.2744,2.65 L100.5313,2.596 L101.787,2.542 L103.0471,2.508 L104.3069,2.474 L105.5703,2.46 L106.8346,2.447 L108.1017,2.453 L109.3676,2.458 L110.6363,2.485 L111.9048,2.512 L113.1753,2.561 L114.4466,2.61 L115.7193,2.679 L116.9909,2.748 L118.2635,2.84 L119.5359,2.931 L120.8088,3.046 L122.0825,3.161 L123.3562,3.297 L124.6287,3.433 L125.9007,3.593 L127.1724,3.753 L128.4431,3.937 L129.7146,4.122 L130.9847,4.329 L132.2535,4.535 L133.5202,4.767 L134.7866,4.999 L136.0504,5.256 L137.3152,5.514 L138.577,5.795 L139.8374,6.076 L141.0943,6.383 L142.351,6.69 L143.6035,7.023 L144.8569,7.357 L146.1061,7.716 L147.3538,8.074 L148.5963,8.46 L149.8386,8.846 L151.0752,9.26 L152.3129,9.674 L153.5451,10.113 L154.7758,10.552 L155.9997,11.02 L157.2235,11.487 L158.44,11.985 L159.6575,12.482 L160.868,13.007 L162.0769,13.531 L163.2776,14.085 L164.4782,14.639 L165.6698,15.223 L166.8626,15.808 L168.0468,16.422 L169.2297,17.034 L170.4027,17.679 L171.5755,18.322 L172.7381,18.998 L173.9029,19.675 L175.1255,20.418 L176.2844,21.157 L177.382,21.892 L178.4235,22.621 L179.403,23.345 L180.3239,24.064 L181.1911,24.778 L181.9989,25.485 L182.751,26.187 L183.4521,26.882 L184.0963,27.57 L184.6881,28.252 L185.2318,28.927 L185.722,29.592 L186.1633,30.251 L186.5598,30.903 L186.907,31.545 L187.2091,32.181 L187.4704,32.81 L187.6869,33.427 L187.8606,34.042 L187.9973,34.649 L188.0938,35.247 L188.1526,35.843 L188.1777,36.435 L188.1664,37.02 L188.1193,37.605 L188.0406,38.188 L187.9277,38.765 L187.78,39.346 L187.6017,39.925 L187.3908,40.501 L187.1457,41.08 L186.8708,41.658 L186.5647,42.233 L186.2257,42.81 L185.8576,43.386 L185.4584,43.957 L185.0279,44.529 L184.5708,45.099 L184.0863,45.666 L183.5846,46.219 L182.4728,47.357 L181.2737,48.467 L179.9787,49.567 L178.6042,50.653 L177.1533,51.725 L175.6291,52.783 L174.0451,53.826 L172.4037,54.85 L170.7099,55.856 L169.8455,56.339 L168.9593,56.835 L168.0736,57.332 L167.209,57.818 L166.3159,58.283 L165.4021,58.759 L164.4884,59.235 L163.5912,59.702 L162.6809,60.148 L161.7542,60.601 L160.8274,61.055 L159.9101,61.505 L158.9915,61.939 L158.0697,62.375 L157.1516,62.8 L156.2326,63.226 L155.321,63.64 L154.4095,64.054 L152.6019,64.863 L150.8225,65.649 L149.0771,66.411 L147.3688,67.153 L145.7081,67.872 L144.1024,68.567 L142.5523,69.24 L141.0698,69.89 L139.6674,70.513 L139.5633,70.56 L139.4217,70.621 L139.2411,70.699 L139.0268,70.791 L138.7768,70.898 L138.4923,71.019 L138.1773,71.152 L137.8299,71.299 L137.4508,71.458 L137.044,71.629 L136.6075,71.812 L136.1422,72.006 L135.6516,72.21 L135.1341,72.424 L134.5906,72.649 L134.0243,72.883 L133.4339,73.125 L132.8208,73.377 L131.5326,73.903 L130.1628,74.46 L128.7183,75.043 L127.2125,75.648 L125.6468,76.274 L124.0284,76.916 L122.3684,77.571 L120.6701,78.235 L118.9408,78.905 L117.19,79.578 L115.4226,80.25 L113.6462,80.918 L111.8682,81.58 L110.0956,82.23 L108.336,82.865 L106.5948,83.485 L104.8813,84.082 L103.2029,84.655 L101.5631,85.202 L99.9738,85.717 L98.4381,86.198 L97.698,86.424 L96.9718,86.64 L96.2635,86.846 L95.573,87.042 L94.9034,87.226 L94.2547,87.399 L93.6266,87.56 L93.0229,87.708 L92.4433,87.843 L91.8877,87.965 L91.3604,88.074 L90.8611,88.168 L90.3896,88.248 L89.9519,88.313 L89.5469,88.362 L89.1758,88.398 L88.8468,88.418 L88.5584,88.423 L88.3146,88.417 L88.1295,88.4 L88.0005,88.378 L87.9373,88.362 L87.9601,88.373 L88.0462,88.429 L88.1752,88.558 L88.3052,88.775 L88.3689,88.989 L88.3763,89.151 L88.3645,89.232 L88.3737,89.21 L88.4186,89.114 L88.5091,88.962 L88.6548,88.755 L88.8493,88.507 L89.0951,88.223 L89.4133,87.885 C89.9994,87.261 89.9686,86.28 89.3446,85.694 C88.7207,85.108 87.7398,85.139 87.1537,85.763 Z" id="Fill-65"></path>
        </g>
    </g>
</svg>
