<?xml version="1.0" encoding="UTF-8"?>
<svg width="157px" height="123px" viewBox="0 0 157 123" version="1.1" xmlns="http://www.w3.org/2000/svg" xmlns:xlink="http://www.w3.org/1999/xlink">
    <title>56</title>
    <g id="Page-1" stroke="none" stroke-width="1" fill="none" fill-rule="evenodd">
        <g id="56" transform="translate(0.494000, 0.706000)" fill="currentColor">
            <path d="M8.098,41.823 C-9.865,49.806 13.671,103.434 24.377,111.464 C61.829,139.553 149.534,99.319 154.616,53.58 C165.762,-46.734 -57.14,16.609 42.918,76.643" id="Fill-62"></path>
            <path d="M7.427,40.425 L6.834,40.711 L6.224,41.054 L5.648,41.43 L5.1,41.838 L4.579,42.28 L4.093,42.751 L3.636,43.248 L3.207,43.776 L2.813,44.327 L2.446,44.901 L2.107,45.501 L1.799,46.119 L1.517,46.757 L1.261,47.417 L1.033,48.093 L0.829,48.786 L0.649,49.499 L0.493,50.227 L0.359,50.969 L0.248,51.729 L0.158,52.502 L0.089,53.288 L0.039,54.091 L0.011,54.905 L0,55.732 L0.008,56.572 L0.035,57.424 L0.078,58.285 L0.139,59.16 L0.219,60.056 L0.42,61.838 L0.686,63.671 L1.012,65.534 L1.391,67.421 L1.823,69.333 L2.306,71.26 L2.831,73.195 L3.118,74.175 L3.404,75.149 L3.711,76.126 L4.017,77.1 L4.341,78.075 L4.667,79.05 L5.009,80.022 L5.352,80.994 L5.711,81.961 L6.07,82.926 L6.442,83.885 L6.814,84.844 L7.2,85.793 L7.586,86.741 L7.983,87.677 L8.382,88.615 L9.194,90.454 L10.025,92.261 L10.87,94.027 L11.726,95.751 L12.591,97.426 L13.462,99.044 L14.335,100.607 L15.21,102.106 L16.081,103.534 L16.948,104.893 L17.809,106.175 L18.659,107.371 L19.497,108.487 L20.323,109.514 L21.123,110.43 L21.533,110.872 L21.931,111.278 L22.325,111.656 L22.716,112.01 L23.108,112.34 L23.506,112.649 L24.728,113.524 L25.997,114.36 L27.295,115.148 L28.62,115.893 L29.978,116.591 L31.363,117.239 L32.773,117.845 L34.211,118.407 L35.672,118.924 L37.155,119.401 L38.663,119.835 L40.189,120.232 L41.735,120.591 L43.302,120.909 L44.888,121.185 L46.49,121.425 L48.112,121.625 L49.749,121.791 L51.4,121.922 L53.067,122.015 L54.748,122.069 L56.441,122.09 L58.148,122.074 L59.865,122.022 L61.591,121.937 L63.329,121.817 L65.074,121.661 L66.827,121.475 L68.587,121.254 L70.353,120.999 L72.124,120.714 L73.9,120.396 L75.678,120.047 L77.459,119.668 L79.242,119.259 L81.025,118.818 L82.808,118.351 L84.591,117.853 L86.37,117.325 L88.147,116.771 L89.921,116.187 L91.689,115.576 L93.453,114.939 L95.21,114.276 L96.959,113.585 L98.701,112.87 L100.434,112.129 L102.156,111.363 L103.867,110.574 L105.568,109.761 L107.255,108.924 L108.929,108.065 L110.59,107.182 L112.234,106.277 L113.863,105.352 L115.475,104.405 L117.068,103.436 L118.644,102.448 L120.2,101.44 L121.734,100.411 L123.248,99.364 L124.74,98.298 L126.207,97.213 L127.652,96.111 L129.072,94.991 L130.464,93.854 L131.832,92.701 L133.172,91.531 L134.482,90.344 L135.764,89.144 L137.016,87.927 L138.235,86.695 L139.423,85.45 L140.579,84.189 L141.698,82.916 L142.786,81.63 L143.837,80.33 L144.85,79.018 L145.828,77.695 L146.767,76.359 L147.664,75.012 L148.523,73.654 L149.341,72.285 L150.114,70.906 L150.847,69.518 L151.535,68.119 L152.175,66.712 L152.773,65.297 L153.323,63.872 L153.823,62.44 L154.276,61.002 L154.678,59.554 L155.027,58.101 L155.327,56.643 L155.572,55.177 L155.761,53.711 L155.919,52.127 L156.039,50.572 L156.119,49.045 L156.164,47.542 L156.171,46.064 L156.141,44.613 L156.077,43.186 L155.976,41.783 L155.839,40.407 L155.669,39.055 L155.464,37.727 L155.223,36.426 L154.952,35.148 L154.646,33.894 L154.307,32.667 L153.938,31.463 L153.536,30.282 L153.102,29.128 L152.639,27.997 L152.144,26.89 L151.619,25.81 L151.067,24.751 L150.485,23.717 L149.874,22.708 L149.238,21.723 L148.573,20.76 L147.881,19.824 L147.165,18.91 L146.421,18.019 L145.653,17.154 L144.862,16.311 L144.046,15.491 L143.206,14.695 L142.346,13.922 L141.462,13.171 L140.556,12.444 L139.631,11.739 L138.683,11.056 L137.716,10.397 L136.73,9.759 L135.725,9.142 L134.701,8.549 L133.66,7.975 L132.6,7.425 L131.523,6.897 L130.431,6.388 L129.321,5.901 L128.197,5.435 L127.058,4.989 L125.904,4.563 L124.736,4.158 L123.555,3.772 L122.36,3.407 L121.153,3.062 L119.934,2.735 L118.703,2.428 L117.461,2.14 L116.209,1.871 L114.945,1.62 L113.669,1.389 L112.387,1.185 L111.101,0.98 L109.797,0.812 L108.493,0.644 L107.173,0.513 L105.856,0.382 L104.525,0.283 L103.194,0.184 L101.85,0.121 L100.507,0.058 L99.154,0.029 L97.802,0 L96.443,0.002 L95.082,0.004 L93.716,0.038 L92.35,0.073 L90.979,0.14 L89.61,0.208 L88.238,0.305 L86.865,0.402 L85.492,0.531 L84.12,0.66 L82.748,0.82 L81.378,0.98 L80.011,1.168 L78.642,1.356 L77.279,1.573 L75.916,1.79 L74.561,2.036 L73.206,2.282 L71.859,2.554 L70.512,2.826 L69.176,3.127 L67.839,3.428 L66.516,3.756 L65.194,4.085 L63.885,4.438 L62.575,4.791 L61.283,5.171 L59.99,5.551 L58.717,5.96 L57.446,6.372 L56.194,6.808 L54.942,7.244 L53.712,7.704 L52.482,8.164 L51.277,8.649 L50.073,9.134 L48.894,9.641 L47.714,10.15 L46.563,10.681 L45.412,11.212 L44.292,11.765 L43.173,12.318 L42.083,12.89 L40.991,13.461 L39.933,14.052 L38.875,14.643 L37.853,15.254 L36.832,15.865 L35.846,16.495 L34.859,17.125 L33.912,17.775 L32.964,18.424 L32.059,19.093 L31.157,19.759 L30.279,20.442 L29.426,21.132 L28.597,21.832 L27.788,22.539 L27.004,23.256 L26.244,23.981 L25.505,24.713 L24.792,25.454 L24.105,26.203 L23.441,26.959 L22.805,27.724 L22.196,28.497 L21.613,29.277 L21.057,30.066 L20.532,30.862 L20.033,31.665 L19.563,32.476 L19.125,33.294 L18.716,34.118 L18.337,34.951 L17.992,35.789 L17.676,36.634 L17.393,37.486 L17.145,38.343 L16.928,39.207 L16.746,40.077 L16.6,40.952 L16.487,41.832 L16.411,42.718 L16.372,43.608 L16.367,44.503 L16.401,45.403 L16.473,46.306 L16.581,47.212 L16.729,48.124 L16.917,49.037 L17.142,49.953 L17.407,50.874 L17.714,51.796 L18.058,52.721 L18.445,53.649 L18.874,54.577 L19.342,55.508 L19.854,56.441 L20.409,57.376 L21.005,58.311 L21.645,59.249 L22.33,60.187 L23.057,61.126 L23.829,62.067 L24.648,63.008 L25.509,63.949 L26.418,64.892 L27.375,65.835 L28.375,66.779 L29.424,67.723 L30.522,68.667 L31.664,69.612 L32.858,70.556 L34.101,71.5 L35.391,72.444 L36.733,73.388 L38.126,74.332 L39.568,75.274 L41.062,76.217 L42.606,77.156 C42.889,77.328 43.258,77.239 43.431,76.956 C43.603,76.673 43.514,76.304 43.231,76.131 L41.697,75.194 L40.221,74.259 L38.799,73.323 L37.424,72.389 L36.103,71.455 L34.833,70.521 L33.61,69.588 L32.438,68.656 L31.317,67.726 L30.241,66.796 L29.215,65.869 L28.238,64.942 L27.305,64.018 L26.42,63.096 L25.582,62.176 L24.787,61.258 L24.04,60.344 L23.337,59.431 L22.676,58.522 L22.06,57.616 L21.488,56.713 L20.956,55.813 L20.467,54.918 L20.021,54.025 L19.613,53.137 L19.247,52.253 L18.921,51.372 L18.632,50.496 L18.383,49.624 L18.174,48.756 L18,47.892 L17.864,47.034 L17.766,46.179 L17.701,45.329 L17.673,44.484 L17.681,43.643 L17.721,42.806 L17.796,41.975 L17.906,41.147 L18.046,40.324 L18.221,39.507 L18.429,38.693 L18.667,37.884 L18.938,37.082 L19.24,36.283 L19.572,35.489 L19.934,34.701 L20.328,33.918 L20.749,33.14 L21.2,32.369 L21.681,31.602 L22.188,30.842 L22.724,30.088 L23.289,29.34 L23.879,28.598 L24.495,27.863 L25.14,27.135 L25.808,26.414 L26.502,25.7 L27.221,24.993 L27.965,24.294 L28.733,23.604 L29.526,22.922 L30.34,22.247 L31.176,21.581 L32.033,20.925 L32.926,20.277 L33.815,19.631 L34.747,19.004 L35.679,18.378 L36.651,17.77 L37.625,17.162 L38.633,16.571 L39.64,15.981 L40.684,15.411 L41.728,14.842 L42.806,14.294 L43.887,13.748 L44.997,13.221 L46.106,12.696 L47.246,12.192 L48.386,11.688 L49.554,11.208 L50.723,10.726 L51.915,10.265 L53.106,9.803 L54.322,9.365 L55.537,8.927 L56.776,8.513 L58.015,8.099 L59.272,7.708 L60.528,7.314 L61.802,6.942 L63.075,6.57 L64.365,6.224 L65.657,5.877 L66.962,5.555 L68.265,5.233 L69.582,4.939 L70.899,4.644 L72.227,4.377 L73.556,4.11 L74.892,3.869 L76.228,3.628 L77.571,3.416 L78.914,3.204 L80.263,3.023 L81.611,2.842 L82.963,2.688 L84.314,2.535 L85.666,2.412 L87.018,2.289 L88.369,2.198 L89.721,2.106 L91.07,2.044 L92.418,1.981 L93.761,1.952 L95.105,1.922 L96.441,1.925 L97.778,1.929 L99.108,1.965 L100.435,2 L101.753,2.069 L103.07,2.138 L104.374,2.242 L105.679,2.346 L106.971,2.483 L108.261,2.62 L109.535,2.793 L110.808,2.966 L112.063,3.175 L113.322,3.384 L114.559,3.618 L115.789,3.87 L117.007,4.142 L118.215,4.43 L119.409,4.737 L120.591,5.063 L121.761,5.406 L122.916,5.769 L124.058,6.151 L125.185,6.55 L126.297,6.969 L127.394,7.408 L128.475,7.865 L129.539,8.341 L130.587,8.838 L131.618,9.353 L132.63,9.887 L133.625,10.442 L134.602,11.015 L135.559,11.607 L136.497,12.222 L137.416,12.855 L138.313,13.508 L139.19,14.183 L140.047,14.877 L140.881,15.592 L141.693,16.328 L142.484,17.085 L143.251,17.861 L143.994,18.661 L144.716,19.481 L145.412,20.322 L146.084,21.187 L146.732,22.071 L147.355,22.977 L147.952,23.907 L148.524,24.858 L149.069,25.832 L149.586,26.83 L150.079,27.85 L150.541,28.892 L150.976,29.961 L151.385,31.051 L151.763,32.165 L152.111,33.305 L152.431,34.469 L152.719,35.656 L152.976,36.871 L153.203,38.109 L153.397,39.372 L153.558,40.663 L153.688,41.978 L153.784,43.319 L153.844,44.688 L153.872,46.081 L153.865,47.501 L153.82,48.949 L153.742,50.423 L153.626,51.923 L153.472,53.45 L153.293,54.839 L153.061,56.22 L152.777,57.599 L152.446,58.975 L152.064,60.345 L151.633,61.713 L151.157,63.075 L150.633,64.431 L150.061,65.783 L149.446,67.128 L148.785,68.465 L148.08,69.797 L147.334,71.121 L146.546,72.436 L145.715,73.743 L144.846,75.042 L143.938,76.33 L142.989,77.609 L142.004,78.878 L140.983,80.135 L139.924,81.381 L138.832,82.616 L137.705,83.837 L136.544,85.046 L135.352,86.243 L134.129,87.425 L132.874,88.592 L131.59,89.747 L130.279,90.885 L128.938,92.007 L127.571,93.115 L126.179,94.205 L124.76,95.278 L123.318,96.334 L121.854,97.372 L120.365,98.392 L118.857,99.394 L117.328,100.375 L115.779,101.338 L114.212,102.281 L112.627,103.203 L111.025,104.104 L109.408,104.985 L107.776,105.844 L106.129,106.68 L104.47,107.494 L102.798,108.285 L101.115,109.052 L99.422,109.796 L97.72,110.515 L96.009,111.209 L94.29,111.88 L92.566,112.524 L90.834,113.142 L89.099,113.735 L87.36,114.3 L85.617,114.837 L83.873,115.35 L82.129,115.833 L80.383,116.288 L78.638,116.715 L76.896,117.112 L75.155,117.478 L73.418,117.816 L71.686,118.122 L69.959,118.397 L68.237,118.642 L66.524,118.855 L64.818,119.035 L63.121,119.185 L61.436,119.3 L59.76,119.381 L58.096,119.431 L56.445,119.445 L54.808,119.424 L53.185,119.371 L51.578,119.281 L49.988,119.154 L48.413,118.992 L46.86,118.789 L45.325,118.547 L43.81,118.271 L42.317,117.957 L40.847,117.603 L39.397,117.214 L37.977,116.779 L36.58,116.305 L35.208,115.794 L33.865,115.243 L32.549,114.652 L31.259,114.023 L30,113.358 L28.769,112.651 L27.566,111.905 L26.397,111.119 L25.249,110.28 L24.97,110.059 L24.668,109.799 L24.35,109.505 L24.022,109.183 L23.683,108.833 L23.343,108.463 L22.608,107.612 L21.855,106.666 L21.076,105.617 L20.278,104.48 L19.465,103.256 L18.639,101.946 L17.804,100.565 L16.963,99.113 L16.12,97.592 L15.277,96.015 L14.44,94.382 L13.609,92.696 L12.788,90.969 L11.98,89.202 L11.188,87.396 L10.804,86.483 L10.418,85.568 L10.043,84.641 L9.669,83.713 L9.307,82.776 L8.946,81.838 L8.597,80.893 L8.249,79.949 L7.917,79.001 L7.585,78.053 L7.271,77.102 L6.957,76.151 L6.658,75.201 L6.361,74.252 L6.084,73.306 L5.808,72.365 L5.297,70.48 L4.83,68.616 L4.414,66.776 L4.052,64.963 L3.74,63.182 L3.488,61.442 L3.296,59.734 L3.224,58.916 L3.167,58.1 L3.127,57.297 L3.102,56.508 L3.095,55.737 L3.105,54.98 L3.132,54.24 L3.176,53.52 L3.238,52.816 L3.318,52.131 L3.415,51.469 L3.532,50.825 L3.665,50.202 L3.816,49.604 L3.987,49.026 L4.174,48.471 L4.379,47.943 L4.603,47.436 L4.844,46.953 L5.1,46.498 L5.378,46.065 L5.671,45.655 L5.981,45.274 L6.312,44.913 L6.662,44.575 L7.028,44.264 L7.419,43.974 L7.832,43.704 L8.264,43.461 L8.768,43.22 C9.54,42.85 9.865,41.924 9.495,41.152 C9.125,40.38 8.199,40.055 7.427,40.425 Z" id="Fill-63"></path>
        </g>
    </g>
</svg>
