<?xml version="1.0" encoding="UTF-8"?>
<svg width="155px" height="66px" viewBox="0 0 155 66" version="1.1" xmlns="http://www.w3.org/2000/svg" xmlns:xlink="http://www.w3.org/1999/xlink">
    <title>58</title>
    <g id="Page-1" stroke="none" stroke-width="1" fill="none" fill-rule="evenodd">
        <g id="58" transform="translate(0.539000, 0.640000)" fill="currentColor">
            <path d="M109.448,10.458 C69.376,-9.578 -53.993,24.03 29.858,54.775 C140.113,95.202 205.112,-14.069 98.595,2.318" id="Fill-58"></path>
            <path d="M110.116,9.059 L108.811,8.437 L107.427,7.84 L105.996,7.283 L104.523,6.76 L103.002,6.273 L101.439,5.823 L99.839,5.405 L98.198,5.022 L96.52,4.673 L94.81,4.354 L93.064,4.069 L91.288,3.816 L89.485,3.592 L87.651,3.4 L85.793,3.239 L83.913,3.106 L82.009,3.003 L80.086,2.931 L78.145,2.887 L76.188,2.872 L74.216,2.885 L72.234,2.924 L70.239,2.99 L68.237,3.084 L66.229,3.202 L64.219,3.347 L63.207,3.433 L62.2,3.519 L61.193,3.616 L60.184,3.713 L59.176,3.823 L58.169,3.934 L57.163,4.058 L56.157,4.181 L55.155,4.316 L54.151,4.451 L53.151,4.597 L52.148,4.745 L50.162,5.066 L48.183,5.409 L46.217,5.774 L44.268,6.164 L42.335,6.581 L40.421,7.019 L38.53,7.478 L36.659,7.95 L34.81,8.438 L32.99,8.945 L31.196,9.47 L29.431,10.01 L27.698,10.566 L25.998,11.139 L24.333,11.73 L22.708,12.34 L21.12,12.966 L19.574,13.61 L18.073,14.27 L16.614,14.946 L15.203,15.641 L13.844,16.351 L12.532,17.077 L11.273,17.82 L10.071,18.578 L8.922,19.351 L7.831,20.141 L6.804,20.947 L5.834,21.768 L4.929,22.608 L4.093,23.463 L3.323,24.336 L2.623,25.231 L2.002,26.141 L1.453,27.069 L0.985,28.022 L0.606,28.989 L0.31,29.972 L0.108,30.978 L0.007,31.991 L0,33.014 L0.098,34.048 L0.295,35.051 L0.44,35.593 L0.606,36.11 L0.797,36.624 L1.013,37.136 L1.256,37.649 L1.524,38.159 L1.817,38.667 L2.138,39.175 L2.483,39.681 L2.853,40.184 L3.251,40.688 L3.674,41.189 L4.122,41.689 L4.597,42.189 L5.099,42.687 L5.626,43.183 L6.181,43.68 L6.763,44.175 L7.371,44.669 L8.007,45.163 L8.672,45.656 L9.362,46.148 L10.083,46.64 L10.831,47.13 L11.607,47.621 L12.413,48.111 L13.249,48.6 L14.112,49.089 L15.007,49.578 L15.931,50.065 L16.884,50.552 L17.87,51.04 L18.886,51.526 L19.931,52.012 L21.009,52.498 L22.119,52.983 L23.259,53.468 L24.432,53.952 L25.639,54.435 L26.875,54.918 L28.147,55.401 L29.453,55.883 L31.184,56.503 L32.91,57.1 L34.626,57.672 L36.336,58.223 L38.038,58.749 L39.732,59.251 L41.417,59.732 L43.096,60.189 L44.765,60.623 L46.426,61.036 L48.079,61.427 L49.722,61.795 L51.358,62.144 L52.985,62.47 L54.602,62.774 L56.212,63.059 L57.812,63.322 L59.405,63.564 L60.979,63.777 L62.557,63.99 L64.115,64.163 L65.674,64.335 L67.212,64.467 L68.749,64.599 L70.268,64.696 L71.787,64.792 L73.286,64.851 L74.785,64.909 L76.263,64.93 L77.739,64.95 L79.195,64.937 L80.653,64.924 L82.088,64.876 L83.523,64.827 L84.935,64.744 L86.346,64.66 L87.736,64.546 L89.127,64.432 L90.495,64.286 L91.862,64.139 L93.205,63.961 L94.547,63.783 L95.866,63.578 L97.187,63.372 L98.482,63.136 L99.777,62.9 L101.047,62.635 L102.315,62.37 L103.56,62.081 L104.805,61.791 L106.025,61.475 L107.244,61.159 L108.437,60.817 L109.628,60.476 L110.794,60.113 L111.961,59.749 L113.101,59.362 L114.24,58.975 L115.352,58.565 L116.462,58.156 L117.546,57.727 L118.631,57.298 L119.688,56.849 L120.744,56.4 L121.772,55.932 L122.798,55.464 L123.796,54.98 L124.796,54.494 L125.766,53.991 L126.736,53.49 L127.676,52.971 L128.614,52.453 L129.524,51.921 L130.435,51.388 L131.315,50.84 L132.194,50.292 L133.042,49.73 L133.892,49.167 L135.523,48.022 L137.093,46.85 L138.596,45.657 L140.039,44.447 L141.414,43.217 L142.719,41.971 L143.96,40.71 L145.13,39.436 L146.228,38.15 L147.259,36.856 L148.218,35.553 L149.091,34.238 L149.895,32.921 L150.623,31.6 L151.272,30.281 L151.849,28.964 L152.344,27.647 L152.756,26.338 L153.093,25.036 L153.347,23.742 L153.515,22.462 L153.607,21.194 L153.615,19.94 L153.533,18.707 L153.37,17.492 L153.115,16.297 L152.768,15.131 L152.337,13.991 L151.813,12.879 L151.202,11.814 L150.855,11.277 L150.49,10.76 L150.102,10.253 L149.692,9.756 L149.259,9.267 L148.802,8.79 L148.324,8.323 L147.822,7.865 L147.297,7.419 L146.751,6.983 L146.18,6.558 L145.586,6.145 L144.97,5.744 L144.329,5.354 L143.665,4.976 L142.979,4.611 L142.268,4.257 L141.534,3.917 L140.777,3.589 L139.995,3.274 L139.189,2.973 L138.361,2.685 L137.507,2.41 L136.629,2.149 L135.728,1.902 L134.801,1.669 L133.85,1.451 L132.876,1.247 L131.876,1.057 L130.85,0.883 L129.802,0.724 L128.727,0.58 L127.626,0.452 L126.502,0.338 L125.351,0.24 L124.174,0.16 L122.974,0.094 L121.746,0.046 L120.492,0.015 L119.213,0 L117.907,0.003 L116.575,0.025 L115.217,0.063 L113.833,0.119 L112.421,0.194 L110.984,0.287 L109.518,0.399 L108.026,0.53 L106.508,0.679 L104.962,0.849 L103.388,1.038 L101.788,1.246 L100.16,1.475 L98.506,1.725 C98.178,1.773 97.952,2.079 98.001,2.407 C98.05,2.734 98.356,2.96 98.683,2.911 L100.332,2.668 L101.949,2.445 L103.537,2.243 L105.1,2.06 L106.633,1.896 L108.138,1.753 L109.618,1.627 L111.069,1.52 L112.492,1.433 L113.889,1.362 L115.259,1.31 L116.601,1.277 L117.917,1.26 L119.206,1.26 L120.467,1.278 L121.704,1.312 L122.912,1.363 L124.094,1.431 L125.252,1.514 L126.381,1.613 L127.485,1.728 L128.564,1.859 L129.615,2.005 L130.641,2.167 L131.642,2.342 L132.616,2.532 L133.565,2.736 L134.489,2.953 L135.387,3.185 L136.259,3.43 L137.108,3.687 L137.931,3.957 L138.728,4.24 L139.502,4.534 L140.25,4.84 L140.973,5.159 L141.674,5.488 L142.348,5.828 L142.998,6.18 L143.626,6.541 L144.228,6.913 L144.807,7.295 L145.364,7.687 L145.895,8.087 L146.403,8.498 L146.89,8.917 L147.352,9.344 L147.79,9.782 L148.208,10.227 L148.601,10.679 L148.972,11.141 L149.323,11.609 L149.651,12.083 L149.95,12.555 L150.508,13.551 L150.972,14.562 L151.35,15.6 L151.651,16.661 L151.868,17.744 L152.003,18.851 L152.064,19.977 L152.043,21.121 L151.938,22.286 L151.758,23.465 L151.498,24.656 L151.159,25.862 L150.748,27.077 L150.259,28.3 L149.695,29.532 L149.061,30.77 L148.352,32.009 L147.567,33.25 L146.713,34.49 L145.795,35.733 L144.804,36.972 L143.746,38.206 L142.617,39.431 L141.417,40.646 L140.153,41.85 L138.82,43.039 L137.419,44.211 L135.955,45.366 L134.426,46.499 L132.826,47.612 L132.001,48.154 L131.174,48.698 L130.315,49.228 L129.456,49.759 L128.565,50.275 L127.674,50.791 L126.754,51.294 L125.836,51.796 L124.887,52.282 L123.937,52.767 L122.957,53.235 L121.976,53.702 L120.968,54.153 L119.961,54.604 L118.925,55.036 L117.889,55.467 L116.824,55.877 L115.758,56.288 L114.666,56.679 L113.576,57.07 L112.457,57.438 L111.339,57.807 L110.193,58.153 L109.046,58.499 L107.875,58.823 L106.705,59.146 L105.508,59.445 L104.312,59.743 L103.09,60.016 L101.866,60.289 L100.619,60.537 L99.374,60.785 L98.103,61.005 L96.833,61.226 L95.538,61.419 L94.241,61.613 L92.923,61.779 L91.606,61.945 L90.265,62.08 L88.925,62.216 L87.56,62.32 L86.195,62.424 L84.809,62.499 L83.424,62.573 L82.016,62.615 L80.609,62.658 L79.179,62.665 L77.748,62.673 L76.297,62.649 L74.848,62.626 L73.377,62.566 L71.906,62.507 L70.414,62.41 L68.921,62.313 L67.41,62.181 L65.899,62.05 L64.369,61.879 L62.838,61.709 L61.288,61.498 L59.734,61.286 L58.173,61.048 L56.6,60.788 L55.017,60.507 L53.425,60.207 L51.826,59.885 L50.216,59.541 L48.598,59.177 L46.972,58.791 L45.337,58.381 L43.694,57.95 L42.043,57.497 L40.383,57.019 L38.716,56.52 L37.041,55.998 L35.358,55.451 L33.667,54.882 L31.969,54.288 L30.262,53.668 L28.98,53.189 L27.731,52.709 L26.517,52.229 L25.334,51.749 L24.185,51.269 L23.07,50.789 L21.986,50.31 L20.936,49.831 L19.918,49.352 L18.931,48.873 L17.977,48.394 L17.055,47.916 L16.162,47.439 L15.302,46.963 L14.473,46.488 L13.672,46.013 L12.904,45.54 L12.166,45.068 L11.457,44.597 L10.779,44.129 L10.13,43.661 L9.508,43.195 L8.918,42.731 L8.356,42.269 L7.821,41.809 L7.316,41.352 L6.838,40.897 L6.387,40.444 L5.965,39.996 L5.569,39.549 L5.199,39.106 L4.856,38.667 L4.54,38.23 L4.247,37.797 L3.981,37.37 L3.739,36.944 L3.52,36.523 L3.326,36.108 L3.155,35.695 L3.004,35.285 L2.878,34.882 L2.779,34.508 L2.619,33.685 L2.55,32.908 L2.561,32.133 L2.641,31.364 L2.799,30.602 L3.034,29.835 L3.339,29.067 L3.719,28.303 L4.179,27.534 L4.709,26.765 L5.313,26 L5.994,25.236 L6.742,24.475 L7.559,23.721 L8.449,22.971 L9.4,22.229 L10.416,21.497 L11.497,20.774 L12.635,20.06 L13.831,19.359 L15.086,18.669 L16.392,17.991 L17.749,17.327 L19.158,16.675 L20.611,16.037 L22.111,15.415 L23.656,14.808 L25.239,14.215 L26.862,13.639 L28.524,13.081 L30.219,12.538 L31.949,12.017 L33.712,11.519 L35.502,11.039 L37.319,10.578 L39.164,10.143 L41.031,9.732 L42.918,9.342 L44.825,8.973 L46.746,8.617 L48.682,8.282 L50.63,7.969 L52.592,7.675 L53.572,7.538 L54.555,7.401 L55.541,7.276 L56.529,7.15 L57.518,7.036 L58.507,6.921 L59.497,6.819 L60.486,6.715 L61.477,6.624 L62.467,6.532 L63.458,6.452 L64.444,6.373 L66.423,6.238 L68.393,6.129 L70.357,6.043 L72.31,5.984 L74.252,5.953 L76.181,5.945 L78.094,5.966 L79.989,6.015 L81.866,6.089 L83.72,6.19 L85.55,6.32 L87.356,6.477 L89.133,6.664 L90.88,6.882 L92.596,7.126 L94.277,7.402 L95.922,7.709 L97.53,8.044 L99.096,8.41 L100.619,8.809 L102.101,9.236 L103.532,9.695 L104.916,10.187 L106.251,10.708 L107.53,11.259 L108.78,11.857 C109.553,12.225 110.478,11.898 110.847,11.126 C111.216,10.353 110.888,9.428 110.116,9.059 Z" id="Fill-59"></path>
        </g>
    </g>
</svg>
