<?xml version="1.0" encoding="UTF-8"?>
<svg width="261px" height="117px" viewBox="0 0 261 117" version="1.1" xmlns="http://www.w3.org/2000/svg" xmlns:xlink="http://www.w3.org/1999/xlink">
    <title>59</title>
    <g id="Page-1" stroke="none" stroke-width="1" fill="none" fill-rule="evenodd">
        <g id="59" transform="translate(0.813400, 0.013000)" fill="currentColor">
            <path d="M193.174,114.738 C186.15,109.548 180.7534,98.917 191.6725,94.028 C228.9921,77.315 272.4316,92.067 254.1372,35.742 C251.0844,26.343 253.0797,14.691 247.5304,5.86 C239.6167,-6.735 84.946,10.72 57.1331,11.481 C45.9839,11.786 13.8399,5.704 8.1823,19.174 C-22.9303,93.249 69.5488,102.742 123.8022,92.844 C131.7763,91.389 175.7252,86.964 180.8613,94.915 C184.0935,99.919 145.2092,97.185 135.5143,88.998" id="Fill-40"></path>
            <path d="M194.1245,113.514 L193.2864,112.864 L192.5004,112.187 L191.7399,111.462 L191.0112,110.701 L190.327,109.908 L189.69,109.084 L189.1038,108.241 L188.582,107.385 L188.1269,106.518 L187.7392,105.649 L187.4323,104.791 L187.1999,103.906 L187.124,103.518 L187.0634,103.107 L187.0247,102.698 L187.0063,102.295 L187.0106,101.902 L187.0381,101.513 L187.0864,101.129 L187.1575,100.757 L187.2537,100.387 L187.3721,100.022 L187.5145,99.667 L187.6856,99.312 L187.882,98.962 L188.1056,98.619 L188.3632,98.277 L188.6508,97.938 L188.9703,97.606 L189.3295,97.277 L189.7237,96.951 L190.1548,96.635 L190.6304,96.323 L191.1451,96.019 L191.7008,95.725 L192.302,95.441 L193.4539,94.945 L194.6018,94.451 L195.7557,93.996 L196.9115,93.54 L198.0714,93.12 L199.2346,92.698 L200.3999,92.307 L201.5652,91.916 L202.731,91.555 L203.8988,91.194 L205.065,90.86 L206.2342,90.525 L207.4005,90.213 L208.5672,89.9 L209.7288,89.61 L210.8925,89.32 L212.049,89.048 L213.2082,88.776 L214.3592,88.518 L215.5112,88.261 L216.6525,88.017 L217.796,87.772 L218.9266,87.538 L220.0594,87.303 L221.1788,87.075 L222.2999,86.847 L223.4047,86.624 L224.5117,86.4 L225.6004,86.178 L226.6909,85.956 L227.763,85.733 L228.8375,85.509 L229.8901,85.282 L230.9453,85.055 L231.9765,84.821 L233.009,84.586 L234.0181,84.343 L235.0308,84.098 L236.0159,83.842 L237.0095,83.583 L238.922,83.038 L240.7888,82.456 L242.5977,81.828 L244.3402,81.148 L246.0217,80.415 L247.635,79.613 L249.1502,78.751 L249.9083,78.277 L250.6295,77.791 L251.3271,77.284 L252.0046,76.757 L252.6611,76.204 L253.2918,75.629 L253.9001,75.031 L254.4849,74.406 L255.0413,73.756 L255.5729,73.082 L256.0782,72.379 L256.5527,71.65 L257.0001,70.896 L257.4183,70.111 L257.8037,69.3 L258.16,68.464 L258.4854,67.595 L258.777,66.7 L259.0384,65.778 L259.2671,64.824 L259.4614,63.842 L259.6248,62.832 L259.7542,61.788 L259.8489,60.714 L259.9119,59.611 L259.9399,58.473 L259.9326,57.303 L259.8923,56.101 L259.815,54.862 L259.7016,53.589 L259.5548,52.283 L259.371,50.937 L259.1501,49.554 L258.8949,48.135 L258.6015,46.675 L258.2699,45.176 L257.9028,43.638 L257.4949,42.057 L257.0451,40.435 L256.5587,38.772 L256.0314,37.064 L255.4683,35.328 L255.1158,34.184 L254.8138,33.032 L254.5504,31.85 L254.3182,30.646 L254.1164,29.422 L253.9425,28.18 L253.7919,26.91 L253.6409,25.636 L253.509,24.35 L253.3757,23.051 L253.2371,21.749 L253.0974,20.438 L252.9333,19.131 L252.7672,17.813 L252.5524,16.509 L252.3362,15.191 L252.0473,13.898 L251.7587,12.611 L251.399,11.318 L250.9844,10.046 L250.5071,8.793 L249.9661,7.558 L249.3481,6.342 L248.6624,5.176 L248.4456,4.861 L248.2116,4.583 L247.958,4.327 L247.6856,4.088 L247.3906,3.862 L247.0796,3.652 L246.7522,3.453 L246.4039,3.264 L246.0396,3.085 L245.6588,2.914 L245.2575,2.75 L244.8239,2.589 L243.9522,2.301 L242.9868,2.03 L241.9484,1.782 L240.8422,1.552 L239.6602,1.341 L238.4063,1.147 L237.0872,0.97 L235.6962,0.809 L234.2371,0.665 L232.7164,0.535 L231.1288,0.421 L229.4776,0.322 L227.7693,0.236 L225.9994,0.164 L224.171,0.106 L222.2903,0.06 L220.3535,0.028 L218.3647,0.008 L217.3449,0.004 L216.3262,0 L215.2822,0.002 L214.2384,0.003 L213.1703,0.011 L212.1027,0.019 L211.0139,0.032 L209.9249,0.044 L208.8135,0.063 L207.7022,0.081 L206.5695,0.105 L205.4372,0.129 L204.2863,0.157 L203.1352,0.186 L201.9646,0.221 L200.794,0.255 L199.6049,0.294 L198.4162,0.333 L197.2114,0.376 L196.0064,0.42 L194.7847,0.468 L193.5632,0.515 L192.3259,0.568 L191.0889,0.62 L189.8385,0.676 L188.5879,0.733 L187.3235,0.793 L186.0592,0.854 L184.782,0.918 L183.5051,0.983 L182.2173,1.05 L180.9294,1.118 L179.6305,1.19 L178.3317,1.261 L177.0229,1.336 L175.7138,1.41 L174.3926,1.49 L173.0732,1.569 L171.7538,1.648 L170.432,1.727 L169.0958,1.812 L167.7619,1.897 L166.428,1.981 L165.092,2.066 L163.7457,2.157 L162.4015,2.247 L161.0573,2.337 L159.7114,2.427 L158.3594,2.521 L157.0091,2.615 L155.6588,2.709 L154.3068,2.803 L152.9519,2.901 L151.5985,2.999 L150.2452,3.097 L148.8905,3.195 L147.5368,3.296 L146.1846,3.397 L144.8325,3.498 L143.4791,3.6 L142.1302,3.703 L140.7824,3.806 L139.4346,3.91 L138.0856,4.013 L136.7452,4.119 L135.4058,4.224 L134.0664,4.329 L132.7261,4.433 L131.3984,4.54 L130.0716,4.646 L128.7449,4.752 L127.4174,4.858 L126.1047,4.964 L124.7927,5.071 L123.4808,5.177 L122.1682,5.284 L120.8754,5.39 L119.5835,5.496 L118.2914,5.603 L116.9989,5.709 L115.7304,5.815 L114.4625,5.92 L113.1946,6.026 L111.9264,6.131 L110.6768,6.236 L109.4272,6.341 L108.1925,6.444 L106.9577,6.547 L105.7388,6.65 L104.52,6.752 L103.3163,6.853 L102.1127,6.954 L100.9268,7.054 L99.7409,7.154 L98.5737,7.252 L97.4065,7.35 L96.2572,7.447 L95.1079,7.544 L93.9792,7.638 L92.8505,7.733 L91.7434,7.826 L90.6363,7.918 L89.5496,8.009 L88.4631,8.1 L87.3999,8.188 L86.3367,8.276 L85.2981,8.362 L84.2595,8.448 L83.2439,8.531 L82.2285,8.614 L80.25,8.775 L78.3264,8.929 L76.4542,9.078 L74.6406,9.22 L72.8875,9.354 L71.1911,9.483 L69.5592,9.603 L67.9935,9.716 L66.4901,9.821 L65.0568,9.917 L63.6959,10.005 L62.4025,10.084 L61.1856,10.153 L60.0468,10.213 L58.9815,10.263 L57.9991,10.302 L57.1046,10.331 L56.4055,10.342 L55.6514,10.338 L54.8411,10.32 L53.9833,10.29 L53.0773,10.25 L52.1255,10.199 L51.1349,10.14 L50.1048,10.075 L49.038,10.004 L47.9403,9.929 L46.8113,9.851 L45.6541,9.772 L44.4735,9.693 L43.2697,9.616 L42.046,9.542 L40.8062,9.472 L39.5512,9.409 L38.2821,9.353 L37.0061,9.309 L35.7255,9.266 L34.4379,9.246 L33.1475,9.227 L31.8618,9.237 L30.5749,9.248 L29.3013,9.291 L28.0233,9.334 L26.7699,9.419 L25.5127,9.504 L24.2916,9.637 L23.0758,9.771 L21.8754,9.942 L20.7029,10.142 L19.5577,10.372 L18.4379,10.632 L17.3469,10.927 L16.291,11.257 L15.2672,11.623 L14.279,12.031 L13.3342,12.48 L12.4289,12.971 L11.5678,13.511 L10.76,14.1 L10.0013,14.736 L9.2978,15.43 L8.6604,16.176 L8.0844,16.973 L7.5781,17.831 L7.156,18.728 L6.6806,19.9 L6.2099,21.061 L5.7801,22.201 L5.3504,23.341 L4.9611,24.46 L4.5725,25.578 L4.2202,26.677 L3.8675,27.777 L3.5542,28.857 L3.241,29.937 L2.9666,30.997 L2.6927,32.055 L2.4535,33.095 L2.2142,34.136 L2.0126,35.157 L1.8101,36.185 L1.4831,38.181 L1.2233,40.147 L1.0362,42.075 L0.9209,43.963 L0.8698,45.815 L0.8884,47.631 L0.9755,49.407 L1.124,51.148 L1.3394,52.853 L1.6197,54.519 L1.9586,56.15 L2.3613,57.745 L2.8253,59.301 L3.3448,60.823 L3.9247,62.309 L4.5621,63.756 L5.2517,65.17 L5.9981,66.549 L6.7981,67.889 L7.6466,69.196 L8.5482,70.468 L9.4995,71.702 L10.4957,72.905 L11.5412,74.073 L12.6325,75.205 L13.7652,76.305 L14.9431,77.372 L16.1627,78.404 L17.4205,79.406 L18.7201,80.376 L20.0581,81.312 L21.4309,82.218 L22.8419,83.093 L24.2879,83.936 L25.7654,84.751 L27.2771,85.536 L28.8203,86.29 L30.3921,87.017 L31.9952,87.715 L33.6265,88.384 L35.2833,89.026 L36.9679,89.639 L38.6775,90.225 L40.4095,90.785 L42.1658,91.318 L43.944,91.823 L45.7414,92.305 L47.5599,92.76 L49.3967,93.189 L51.25,93.595 L53.1206,93.976 L55.0064,94.332 L56.9055,94.667 L58.8188,94.977 L60.744,95.262 L62.6795,95.527 L64.6258,95.768 L66.5808,95.986 L68.543,96.183 L70.5126,96.358 L72.4876,96.511 L74.4667,96.644 L76.4499,96.756 L78.4371,96.847 L80.4212,96.905 L82.408,96.96 L84.3934,96.975 L86.3783,96.991 L88.3567,96.967 L90.3341,96.943 L92.3016,96.885 L94.2695,96.826 L96.2224,96.729 L98.1748,96.633 L100.1073,96.501 L102.0388,96.37 L103.9482,96.208 L105.858,96.046 L107.7395,95.854 L109.6209,95.664 L111.4688,95.442 L113.3145,95.222 L115.1383,94.98 L116.9409,94.723 L118.7219,94.453 L120.4827,94.17 L122.2205,93.874 L123.9303,93.565 L124.1876,93.518 L124.4659,93.47 L124.7683,93.42 L125.0916,93.368 L125.4373,93.315 L125.8035,93.26 L126.5979,93.145 L127.4714,93.026 L128.4212,92.903 L129.4362,92.777 L130.5189,92.649 L131.6649,92.52 L132.8646,92.39 L134.1192,92.261 L135.4245,92.134 L136.7719,92.01 L138.1616,91.888 L139.5892,91.771 L141.0476,91.658 L142.5355,91.551 L144.0479,91.45 L145.5896,91.36 L147.1295,91.27 L148.6962,91.198 L150.2624,91.126 L151.837,91.076 L153.4115,91.026 L154.9791,90.998 L156.5455,90.971 L158.0883,90.973 L159.6302,90.974 L161.1301,91.007 L162.6317,91.041 L164.091,91.098 L165.518,91.174 L166.9069,91.27 L168.2572,91.384 L169.5603,91.518 L170.8123,91.674 L172.0136,91.851 L173.1539,92.051 L174.23,92.274 L175.2426,92.519 L176.1795,92.789 L177.0381,93.083 L177.8195,93.399 L178.5097,93.737 L179.1199,94.105 L179.3728,94.283 L179.6116,94.472 L179.8266,94.665 L180.0186,94.862 L180.184,95.059 L180.3281,95.264 L180.3779,95.35 L180.4036,95.412 L180.4135,95.455 L180.4158,95.481 L180.4145,95.491 L180.4074,95.511 L180.3909,95.542 L180.3578,95.585 L180.2971,95.644 L180.2105,95.714 L180.0971,95.788 L179.9698,95.858 L179.59,96.023 L179.1285,96.173 L178.5728,96.309 L177.9393,96.432 L177.228,96.536 L176.4425,96.623 L175.5947,96.694 L174.6839,96.746 L173.7135,96.779 L172.6933,96.795 L171.623,96.793 L170.5062,96.773 L169.3513,96.736 L168.1587,96.681 L166.9322,96.607 L165.6787,96.517 L164.3997,96.41 L163.099,96.284 L161.7825,96.143 L160.4527,95.984 L159.1134,95.808 L157.7693,95.616 L156.424,95.407 L155.0832,95.181 L153.7492,94.932 L152.4182,94.683 L151.1156,94.401 L149.8139,94.12 L148.5582,93.805 L147.2999,93.49 L146.0876,93.155 L144.9086,92.804 L143.7687,92.437 L142.6686,92.057 L141.6168,91.662 L140.6165,91.252 L139.6676,90.83 L138.78,90.395 L137.9565,89.946 L137.1962,89.487 L136.5106,89.019 L135.8856,88.527 C135.6253,88.322 135.2481,88.366 135.043,88.627 C134.8379,88.887 134.8827,89.264 135.143,89.469 L135.8,89.987 L136.5457,90.499 L137.357,90.991 L138.226,91.466 L139.156,91.923 L140.1412,92.364 L141.1741,92.788 L142.2568,93.197 L143.3837,93.589 L144.5481,93.965 L145.7508,94.325 L146.9887,94.67 L148.2608,94.99 L149.5353,95.311 L150.8554,95.599 L152.1748,95.886 L153.5224,96.14 L154.867,96.394 L156.226,96.625 L157.5861,96.838 L158.9442,97.034 L160.2973,97.214 L161.6415,97.377 L162.9719,97.522 L164.2866,97.651 L165.5806,97.762 L166.8491,97.855 L168.0912,97.931 L169.301,97.989 L170.4735,98.028 L171.6091,98.051 L172.701,98.055 L173.744,98.039 L174.74,98.007 L175.6814,97.954 L176.5629,97.883 L177.3882,97.792 L178.1497,97.681 L178.8421,97.549 L179.4719,97.395 L180.034,97.213 L180.507,97.009 L180.7457,96.881 L180.9528,96.746 L181.1401,96.597 L181.31,96.428 L181.459,96.233 L181.575,96.016 L181.6544,95.778 L181.688,95.521 L181.6727,95.268 L181.6162,95.024 L181.5211,94.789 L181.3944,94.567 L181.194,94.282 L180.9638,94.006 L180.7101,93.746 L180.4349,93.497 L180.1356,93.26 L179.8035,93.027 L179.1196,92.614 L178.3402,92.231 L177.4859,91.884 L176.5648,91.566 L175.5719,91.279 L174.5133,91.02 L173.3974,90.785 L172.2204,90.575 L170.9884,90.391 L169.709,90.227 L168.3804,90.086 L167.0083,89.967 L165.5994,89.866 L164.1535,89.785 L162.6741,89.723 L161.1616,89.685 L159.6474,89.646 L158.0915,89.64 L156.5365,89.634 L154.9579,89.657 L153.3805,89.679 L151.7961,89.725 L150.2118,89.77 L148.6359,89.838 L147.0604,89.905 L145.5115,89.991 L143.9642,90.077 L142.4423,90.173 L140.9465,90.277 L139.4809,90.386 L138.0461,90.499 L136.649,90.617 L135.2945,90.737 L133.9823,90.86 L132.72,90.984 L131.5128,91.108 L130.3591,91.231 L129.268,91.354 L128.2443,91.475 L127.2853,91.594 L126.401,91.71 L125.5977,91.821 L125.2221,91.875 L124.8689,91.928 L124.5374,91.979 L124.2261,92.029 L123.9369,92.077 L123.674,92.123 L121.9699,92.421 L120.2448,92.705 L118.4958,92.975 L116.7266,93.232 L114.9365,93.474 L113.1279,93.702 L111.2905,93.91 L109.4555,94.117 L107.5869,94.294 L105.7185,94.468 L103.8214,94.608 L101.9239,94.748 L100.0046,94.857 L98.0863,94.966 L96.1481,95.04 L94.2105,95.115 L92.2581,95.154 L90.3053,95.195 L88.343,95.201 L86.3819,95.208 L84.4147,95.177 L82.4479,95.145 L80.4799,95.073 L78.5092,95.005 L76.5449,94.913 L74.5816,94.8 L72.6219,94.667 L70.6669,94.513 L68.7185,94.338 L66.7771,94.141 L64.8435,93.924 L62.9201,93.684 L61.007,93.422 L59.1049,93.138 L57.2163,92.831 L55.3416,92.499 L53.4809,92.146 L51.6375,91.768 L49.8114,91.365 L48.0025,90.938 L46.2143,90.487 L44.4467,90.009 L42.6994,89.509 L40.9764,88.982 L39.2774,88.429 L37.6018,87.851 L35.954,87.247 L34.3335,86.615 L32.7396,85.958 L31.177,85.274 L29.645,84.561 L28.1428,83.823 L26.6752,83.056 L25.2423,82.26 L23.8422,81.437 L22.4802,80.585 L21.1555,79.703 L19.8667,78.795 L18.6193,77.857 L17.4124,76.888 L16.2441,75.892 L15.1207,74.866 L14.0413,73.807 L13.0034,72.72 L12.0132,71.604 L11.0695,70.454 L10.1701,69.275 L9.3212,68.065 L8.5219,66.821 L7.7693,65.546 L7.0701,64.24 L6.4237,62.898 L5.8266,61.525 L5.2857,60.119 L4.8007,58.675 L4.3679,57.198 L3.9943,55.687 L3.68,54.137 L3.421,52.552 L3.2243,50.932 L3.0908,49.271 L3.0157,47.574 L3.0063,45.839 L3.0639,44.063 L3.1834,42.25 L3.3721,40.398 L3.6315,38.503 L3.9561,36.564 L4.1533,35.583 L4.3513,34.597 L4.5868,33.589 L4.8224,32.579 L5.0925,31.551 L5.3621,30.523 L5.6702,29.475 L5.9782,28.426 L6.3254,27.355 L6.6729,26.283 L7.0564,25.192 L7.4392,24.101 L7.8624,22.989 L8.2854,21.877 L8.7494,20.743 L9.2086,19.619 L9.5577,18.88 L9.9597,18.204 L10.4235,17.566 L10.9406,16.964 L11.5129,16.404 L12.1455,15.877 L12.8293,15.382 L13.5651,14.923 L14.3562,14.496 L15.1937,14.1 L16.0772,13.737 L17.0086,13.407 L17.9793,13.104 L18.9883,12.834 L20.0362,12.593 L21.1156,12.377 L22.2251,12.191 L23.3584,12.031 L24.5379,11.904 L25.7119,11.777 L26.9229,11.697 L28.1376,11.615 L29.3775,11.575 L30.6218,11.533 L31.8796,11.524 L33.1385,11.515 L34.4022,11.535 L35.6685,11.555 L36.9278,11.599 L38.1918,11.643 L39.4415,11.699 L40.6829,11.763 L41.9118,11.833 L43.1265,11.907 L44.3231,11.984 L45.499,12.063 L46.6537,12.142 L47.7825,12.221 L48.8827,12.296 L49.9547,12.368 L50.9935,12.435 L51.9959,12.495 L52.9636,12.547 L53.8912,12.589 L54.7752,12.62 L55.6187,12.639 L56.4165,12.643 L57.1615,12.632 L58.0822,12.603 L59.0818,12.563 L60.1608,12.512 L61.3109,12.453 L62.538,12.383 L63.8397,12.304 L65.2078,12.216 L66.6474,12.12 L68.1562,12.015 L69.7265,11.903 L71.3626,11.783 L73.0625,11.655 L74.8186,11.52 L76.635,11.379 L78.5095,11.231 L80.4351,11.077 L82.4152,10.918 L83.4317,10.836 L84.448,10.753 L85.4873,10.669 L86.5266,10.584 L87.5903,10.497 L88.6541,10.41 L89.7412,10.32 L90.8282,10.231 L91.9357,10.139 L93.0431,10.048 L94.1721,9.955 L95.3012,9.861 L96.4507,9.766 L97.6002,9.671 L98.7675,9.575 L99.9348,9.478 L101.1208,9.38 L102.3067,9.282 L103.5104,9.182 L104.7139,9.083 L105.9328,8.982 L107.1516,8.882 L108.3862,8.78 L109.6208,8.679 L110.8703,8.577 L112.1195,8.476 L113.3873,8.373 L114.6555,8.27 L115.9237,8.167 L117.1912,8.065 L118.4829,7.961 L119.7752,7.858 L121.0674,7.754 L122.359,7.651 L123.6704,7.547 L124.9826,7.444 L126.2948,7.34 L127.6062,7.237 L128.9324,7.134 L130.2595,7.031 L131.5864,6.928 L132.9125,6.825 L134.2511,6.724 L135.5907,6.622 L136.9304,6.52 L138.2689,6.419 L139.6159,6.32 L140.9639,6.221 L142.312,6.121 L143.659,6.022 L145.0103,5.925 L146.3627,5.828 L147.7152,5.731 L149.0662,5.634 L150.4184,5.54 L151.772,5.446 L153.1256,5.352 L154.4776,5.258 L155.8264,5.168 L157.177,5.078 L158.5276,4.988 L159.8765,4.898 L161.2193,4.812 L162.5638,4.726 L163.9083,4.64 L165.2507,4.554 L166.5828,4.473 L167.917,4.392 L169.2511,4.311 L170.583,4.23 L171.9003,4.155 L173.2199,4.08 L174.5396,4.005 L175.8574,3.93 L177.1633,3.859 L178.4696,3.788 L179.7659,3.721 L181.0621,3.654 L182.3472,3.59 L183.6324,3.526 L184.9067,3.465 L186.1808,3.405 L187.442,3.348 L188.7031,3.291 L189.9503,3.239 L191.1976,3.186 L192.4314,3.137 L193.6649,3.088 L194.8826,3.043 L196.1003,2.998 L197.3011,2.958 L198.502,2.918 L199.6868,2.882 L200.8714,2.846 L202.0372,2.814 L203.2029,2.783 L204.3489,2.757 L205.4951,2.73 L206.6225,2.708 L207.7495,2.686 L208.8549,2.669 L209.9602,2.652 L211.043,2.641 L212.1258,2.63 L213.1873,2.623 L214.2484,2.617 L215.285,2.617 L216.3214,2.616 L217.3323,2.622 L218.3421,2.627 L220.3169,2.65 L222.2349,2.684 L224.0959,2.732 L225.9031,2.792 L227.6485,2.865 L229.331,2.951 L230.9539,3.051 L232.5087,3.165 L233.9945,3.292 L235.4148,3.433 L236.76,3.59 L238.0295,3.761 L239.2269,3.946 L240.3413,4.146 L241.3726,4.361 L242.3239,4.589 L243.182,4.83 L243.9632,5.089 L244.297,5.214 L244.619,5.345 L244.9169,5.479 L245.1906,5.613 L245.435,5.746 L245.6541,5.879 L245.8476,6.01 L246.0101,6.134 L246.148,6.255 L246.2611,6.369 L246.3455,6.469 L246.3983,6.544 L247.0278,7.613 L247.5737,8.688 L248.0576,9.795 L248.4885,10.927 L248.8645,12.083 L249.1904,13.255 L249.463,14.477 L249.7354,15.693 L249.9346,16.934 L250.1353,18.188 L250.288,19.457 L250.4425,20.739 L250.5728,22.026 L250.7042,23.323 L250.8304,24.618 L250.9579,25.926 L251.1048,27.221 L251.2522,28.52 L251.4274,29.82 L251.6262,31.112 L251.8585,32.393 L252.1275,33.666 L252.4433,34.929 L252.8062,36.157 L253.349,37.897 L253.8455,39.572 L254.302,41.2 L254.7224,42.785 L255.1054,44.322 L255.4514,45.815 L255.7624,47.266 L256.0354,48.671 L256.2714,50.034 L256.4741,51.357 L256.6403,52.637 L256.7713,53.876 L256.8706,55.077 L256.9354,56.236 L256.9677,57.356 L256.9705,58.441 L256.9409,59.486 L256.8795,60.494 L256.79,61.469 L256.6704,62.405 L256.5207,63.309 L256.3449,64.18 L256.1414,65.016 L255.9095,65.822 L255.6532,66.599 L255.3714,67.343 L255.0624,68.061 L254.7304,68.753 L254.3748,69.415 L253.9932,70.055 L253.5892,70.673 L253.1624,71.264 L252.7094,71.836 L252.2344,72.388 L251.7371,72.917 L251.2137,73.429 L250.6684,73.925 L250.1011,74.4 L249.508,74.859 L248.8932,75.304 L248.257,75.73 L247.6139,76.132 L246.21,76.928 L244.7393,77.654 L243.1803,78.331 L241.5463,78.965 L239.8367,79.555 L238.0512,80.108 L236.1964,80.633 L235.2467,80.879 L234.2885,81.126 L233.3022,81.362 L232.3125,81.599 L231.299,81.828 L230.2841,82.057 L229.2449,82.279 L228.2032,82.502 L227.1393,82.721 L226.073,82.941 L224.9881,83.16 L223.9014,83.38 L222.7963,83.601 L221.6889,83.823 L220.5651,84.051 L219.4396,84.278 L218.301,84.513 L217.1602,84.749 L216.0068,84.995 L214.8512,85.242 L213.685,85.502 L212.5178,85.763 L211.3425,86.039 L210.1647,86.316 L208.9799,86.611 L207.793,86.908 L206.6013,87.226 L205.4092,87.545 L204.2142,87.887 L203.0163,88.23 L201.8171,88.601 L200.616,88.972 L199.4157,89.375 L198.2156,89.777 L197.0179,90.211 L195.8168,90.646 L194.6204,91.118 L193.4221,91.59 L192.2305,92.103 L191.043,92.614 L190.3189,92.956 L189.6354,93.317 L188.9951,93.695 L188.391,94.091 L187.8234,94.508 L187.2984,94.941 L186.809,95.39 L186.3562,95.86 L185.9458,96.343 L185.5717,96.84 L185.2348,97.356 L184.9401,97.881 L184.682,98.416 L184.4614,98.965 L184.2815,99.518 L184.1366,100.076 L184.028,100.644 L183.9561,101.209 L183.9163,101.776 L183.9097,102.347 L183.9352,102.914 L183.9887,103.478 L184.0717,104.044 L184.1893,104.634 L184.4739,105.709 L184.8642,106.803 L185.3394,107.87 L185.8866,108.913 L186.508,109.932 L187.1913,110.917 L187.9273,111.868 L188.7174,112.785 L189.5501,113.655 L190.4185,114.483 L191.3234,115.263 L192.2236,115.963 C192.8999,116.488 193.8736,116.365 194.3985,115.689 C194.9234,115.012 194.8007,114.039 194.1245,113.514 Z" id="Fill-41"></path>
            <path d="M173.9541,96.099 C168.7008,91.498 152.5666,80.443 155.0345,86.927 C159.3107,98.161 184.09,98.628 156.2358,93.14 C145.0913,90.944 156.0723,94.055 160.7404,95.507 C170.6946,98.604 170.6776,100.325 161.3411,95.507 C155.8761,92.687 147.0461,92.923 142.4214,89.886 C136.5732,86.044 156.0691,93.401 162.5423,96.099 C173.3015,100.583 175.3273,96.267 179.3597,86.335" id="Fill-42"></path>
            <path d="M174.968,94.926 L174.619,94.625 L174.2362,94.302 L173.8296,93.967 L173.4019,93.621 L172.9519,93.263 L172.4778,92.892 L171.4921,92.137 L170.4378,91.353 L169.3342,90.555 L168.196,89.752 L167.031,88.954 L165.8546,88.173 L164.6773,87.416 L163.5083,86.698 L162.3652,86.027 L161.2536,85.409 L160.1851,84.855 L159.1891,84.386 L158.6878,84.17 L158.2146,83.983 L157.758,83.821 L157.3125,83.682 L156.8737,83.569 L156.4449,83.487 L156.0126,83.439 L155.5606,83.437 L155.0948,83.502 L154.6029,83.662 L154.1007,83.971 L153.6922,84.417 L153.4234,84.943 L153.3006,85.492 L153.2922,86 L153.3551,86.483 L153.477,86.968 L153.6539,87.472 L153.9909,88.244 L154.3947,88.999 L154.8454,89.71 L155.3358,90.385 L155.8696,91.024 L156.4373,91.62 L157.03,92.183 L157.6487,92.713 L158.2822,93.21 L158.9249,93.684 L159.5811,94.128 L160.2428,94.542 L160.9069,94.93 L161.5692,95.296 L162.226,95.635 L162.8754,95.949 L163.5147,96.238 L164.137,96.5 L164.7415,96.739 L165.3243,96.954 L165.8787,97.144 L166.4054,97.313 L166.8997,97.458 L167.3556,97.58 L167.7756,97.681 L168.1568,97.761 L168.4962,97.819 L168.8081,97.858 L169.1237,97.873 L169.3622,97.853 L169.8942,97.676 L169.8944,97.676 L169.8948,97.676 L169.8954,97.676 L169.8962,97.675 L169.8972,97.675 L169.8985,97.674 L169.8999,97.673 L169.9015,97.672 L169.9033,97.671 L169.9054,97.67 L169.9076,97.668 L169.91,97.667 L169.9127,97.665 L169.9155,97.664 L169.9186,97.662 L169.9539,97.64 L170.0242,97.592 L170.0982,97.535 L170.1744,97.466 L170.2513,97.385 L170.3265,97.29 L170.397,97.182 L170.4595,97.062 L170.5109,96.933 L170.5488,96.797 L170.572,96.66 L170.5808,96.526 L170.5767,96.398 L170.5619,96.279 L170.5388,96.171 L170.51,96.074 L170.4935,96.027 L170.4923,96.024 L170.4913,96.022 L170.4903,96.019 L170.4894,96.017 L170.4885,96.014 L170.4877,96.012 L170.4871,96.011 L170.4865,96.009 L170.4859,96.008 L170.4855,96.006 L170.4851,96.005 L170.4848,96.005 L170.4846,96.004 L170.4844,96.004 L170.4843,96.003 L170.0455,95.417 L169.8475,95.276 L169.5561,95.12 L169.2313,94.979 L168.8549,94.837 L168.6261,94.756 L168.3845,94.676 L168.1215,94.591 L167.8374,94.503 L167.5289,94.411 L167.1964,94.314 L166.8408,94.214 L166.4589,94.11 L166.0508,94.001 L165.6179,93.889 L165.1568,93.774 L164.6677,93.654 L164.1525,93.531 L163.6076,93.403 L163.0329,93.272 L162.4305,93.137 L161.7968,92.998 L161.1317,92.856 L160.4375,92.71 L159.7105,92.56 L158.9505,92.406 L158.1599,92.249 L157.335,92.088 L156.4758,91.923 L155.8007,91.795 L155.1828,91.682 L154.6206,91.581 L154.1069,91.491 L153.6448,91.414 L153.2326,91.348 L152.8633,91.293 L152.5379,91.248 L152.2545,91.214 L152.0034,91.189 L151.7785,91.173 L151.5678,91.17 L151.3269,91.186 L151.13,91.227 L150.5429,91.573 L150.5429,91.573 L150.5427,91.573 L150.5424,91.573 L150.5421,91.574 L150.5416,91.574 L150.5412,91.575 L150.5405,91.575 L150.5399,91.576 L150.5391,91.577 L150.5382,91.578 L150.5372,91.579 L150.5362,91.58 L150.5351,91.581 L150.5339,91.582 L150.5326,91.584 L150.5083,91.61 L150.4613,91.667 L150.4154,91.729 L150.3716,91.797 L150.3308,91.871 L150.294,91.95 L150.2622,92.034 L150.2363,92.121 L150.2168,92.209 L150.204,92.299 L150.1978,92.387 L150.1978,92.473 L150.2035,92.556 L150.2142,92.635 L150.229,92.709 L150.2471,92.778 L150.2576,92.812 L150.2582,92.814 L150.2587,92.815 L150.2593,92.817 L150.2597,92.818 L150.2602,92.82 L150.2606,92.821 L150.2609,92.822 L150.2613,92.823 L150.2616,92.824 L150.2618,92.825 L150.262,92.825 L150.2622,92.826 L150.2623,92.826 L150.2623,92.826 L150.2624,92.826 L150.6084,93.357 L150.7535,93.477 L150.9465,93.597 L151.1165,93.683 L151.2934,93.762 L151.4827,93.839 L151.6881,93.918 L151.9137,94.001 L152.1625,94.089 L152.6963,94.27 L153.3029,94.467 L153.9644,94.676 L154.6663,94.893 L155.4012,95.117 L156.1562,95.344 L157.6732,95.797 L159.1235,96.231 L160.3965,96.618 L160.9982,96.806 L161.5742,96.989 L162.1237,97.169 L162.6489,97.345 L163.1469,97.515 L163.6183,97.681 L164.0652,97.842 L164.4849,97.997 L164.8782,98.147 L165.2471,98.29 L165.5886,98.426 L165.9035,98.555 L166.1939,98.678 L166.4563,98.792 L166.6918,98.897 L166.9017,98.995 L167.0824,99.082 L167.2343,99.16 L167.3577,99.225 L167.4454,99.276 L167.4949,99.307 L167.4953,99.306 L167.4061,99.222 L167.3139,99.109 L167.1319,98.338 L167.1319,98.338 L167.1319,98.338 L167.1319,98.338 L167.1318,98.339 L167.1317,98.339 L167.1317,98.339 L167.1316,98.34 L167.1315,98.341 L167.1314,98.342 L167.1313,98.342 L167.1312,98.343 L167.1311,98.344 L167.1309,98.345 L167.1308,98.347 L167.1306,98.348 L167.1366,98.306 L167.1542,98.218 L167.1793,98.129 L167.2121,98.042 L167.2518,97.958 L167.2977,97.878 L167.3484,97.805 L167.4025,97.738 L167.4585,97.678 L167.515,97.626 L167.571,97.581 L167.6255,97.542 L167.6779,97.509 L167.7277,97.481 L167.7747,97.458 L167.8187,97.439 L167.8388,97.431 L167.8371,97.431 L167.8355,97.432 L167.8341,97.432 L167.8327,97.433 L167.8315,97.433 L167.8304,97.434 L167.8294,97.434 L167.8285,97.435 L167.8277,97.435 L167.827,97.435 L167.8265,97.435 L167.8261,97.436 L167.8257,97.436 L167.8255,97.436 L167.8254,97.436 L168.2457,97.357 L168.2817,97.361 L168.3167,97.365 L168.2804,97.357 L168.193,97.334 L168.0708,97.297 L167.917,97.247 L167.732,97.183 L167.5208,97.106 L167.2824,97.015 L167.0163,96.909 L166.7258,96.791 L166.4093,96.658 L166.0663,96.51 L165.6995,96.348 L165.3074,96.171 L164.8891,95.978 L164.4473,95.771 L163.9804,95.548 L163.4876,95.309 L162.9718,95.054 L162.4309,94.782 L161.8483,94.485 L161.1099,94.132 L160.3261,93.806 L159.5215,93.512 L158.699,93.245 L157.8575,93.004 L156.9941,92.782 L155.2724,92.392 L153.5183,92.046 L151.7773,91.726 L150.077,91.392 L148.4068,91.066 L146.8773,90.644 L145.3889,90.238 L144.163,89.645 L142.8778,89.026 L142.6441,88.865 L142.4093,88.696 L142.2518,88.569 L142.1752,88.499 L142.2055,88.547 L142.2486,88.62 L142.2729,89.178 L142.2732,89.177 L142.2738,89.175 L142.2746,89.171 L142.2757,89.167 L142.277,89.162 L142.2786,89.155 L142.2805,89.147 L142.2695,89.185 L142.2385,89.269 L142.1989,89.35 L142.1522,89.425 L142.1005,89.492 L142.0464,89.55 L141.992,89.599 L141.9393,89.639 L141.9185,89.653 L141.9262,89.648 L141.9329,89.643 L141.9384,89.64 L141.9428,89.637 L141.9461,89.635 L141.9483,89.633 L141.9495,89.632 L141.6058,89.769 L141.6356,89.758 L141.6771,89.757 L141.814,89.769 L142.0247,89.8 L142.288,89.849 L142.5993,89.917 L142.9555,90.003 L143.348,90.106 L143.7767,90.224 L144.2395,90.358 L144.7306,90.505 L145.25,90.665 L145.7957,90.838 L146.3632,91.022 L146.9519,91.216 L147.5577,91.421 L148.8191,91.856 L150.1295,92.319 L151.4722,92.802 L152.8301,93.295 L154.1939,93.775 L155.5379,94.256 L156.8513,94.722 L158.111,95.176 L159.2948,95.618 L160.3965,96.039 L161.392,96.425 L162.2658,96.773 L162.939,97.037 L163.5944,97.28 L164.2277,97.501 L164.8413,97.704 L165.4358,97.884 L166.0105,98.041 L166.5686,98.178 L167.11,98.293 L167.6335,98.385 L168.1423,98.456 L168.6369,98.505 L169.1151,98.531 L169.5804,98.536 L170.0333,98.519 L170.4711,98.479 L170.8969,98.418 L171.3115,98.334 L171.7114,98.227 L172.0996,98.099 L172.4767,97.948 L172.8393,97.776 L173.1903,97.584 L173.5304,97.37 L173.8701,97.127 L174.4791,96.618 L175.0613,96.022 L175.6058,95.357 L176.1228,94.63 L176.6171,93.835 L177.0939,92.976 L177.5603,92.059 L178.0213,91.078 L178.4823,90.036 L178.948,88.938 L179.424,87.779 L179.9154,86.562 C180.0405,86.255 179.8931,85.905 179.5863,85.78 C179.2794,85.654 178.9292,85.802 178.8041,86.109 L178.3057,87.319 L177.8258,88.465 L177.359,89.545 L176.9005,90.563 L176.4472,91.51 L175.9938,92.387 L175.5375,93.196 L175.0751,93.929 L174.6011,94.586 L174.1151,95.172 L173.6142,95.678 L173.077,96.119 L172.8195,96.299 L172.5431,96.468 L172.2572,96.62 L171.9631,96.755 L171.6607,96.872 L171.3454,96.971 L171.0186,97.054 L170.6802,97.119 L170.3253,97.165 L169.9561,97.194 L169.5719,97.203 L169.1688,97.192 L168.7492,97.164 L168.3122,97.114 L167.8546,97.044 L167.3788,96.953 L166.8837,96.841 L166.3667,96.707 L165.8302,96.552 L165.2727,96.374 L164.6922,96.173 L164.0919,95.948 L163.4693,95.699 L162.8188,95.425 L161.9517,95.054 L160.9595,94.636 L159.8638,94.181 L158.6897,93.695 L157.4475,93.177 L156.1524,92.643 L154.8209,92.11 L153.4683,91.575 L152.1063,91.066 L150.7559,90.574 L149.4351,90.102 L148.165,89.659 L147.5484,89.448 L146.9519,89.246 L146.376,89.054 L145.8202,88.872 L145.2881,88.703 L144.7825,88.546 L144.302,88.402 L143.8504,88.273 L143.4304,88.159 L143.039,88.06 L142.6787,87.977 L142.351,87.913 L142.0474,87.866 L141.7588,87.84 L141.4682,87.845 L141.2546,87.879 L140.911,88.016 L140.9098,88.016 L140.9076,88.018 L140.9043,88.02 L140.8998,88.023 L140.8942,88.026 L140.8876,88.03 L140.8798,88.035 L140.8413,88.061 L140.7725,88.113 L140.7037,88.174 L140.6368,88.246 L140.5741,88.327 L140.5179,88.417 L140.4705,88.514 L140.4334,88.615 L140.4179,88.67 L140.4159,88.677 L140.4142,88.684 L140.4128,88.689 L140.4117,88.694 L140.4108,88.697 L140.41,88.699 L140.41,88.7 L140.4343,89.258 L140.5421,89.515 L140.7515,89.798 L140.9733,90.016 L141.2262,90.227 L141.5291,90.453 L141.9652,90.746 L143.2912,91.413 L144.6765,92.108 L146.3153,92.601 L147.9129,93.077 L149.6489,93.457 L151.355,93.83 L153.0917,94.185 L154.7997,94.548 L156.4652,94.95 L157.2551,95.165 L158.0288,95.398 L158.776,95.648 L159.4939,95.917 L160.174,96.206 L160.8338,96.529 L161.3955,96.818 L161.9488,97.098 L162.4769,97.362 L162.9824,97.609 L163.4634,97.841 L163.9192,98.057 L164.3525,98.257 L164.7614,98.443 L165.145,98.613 L165.5062,98.77 L165.8433,98.913 L166.1555,99.041 L166.4457,99.157 L166.7127,99.259 L166.9557,99.349 L167.1785,99.427 L167.3812,99.493 L167.5643,99.548 L167.7355,99.594 L167.9062,99.63 L168.0968,99.656 L168.2415,99.659 L168.6618,99.581 L168.6619,99.581 L168.6621,99.581 L168.6625,99.58 L168.6629,99.58 L168.6635,99.58 L168.6641,99.58 L168.6649,99.579 L168.6658,99.579 L168.6668,99.579 L168.6679,99.578 L168.6691,99.578 L168.6705,99.577 L168.672,99.577 L168.6735,99.576 L168.6752,99.576 L168.6987,99.566 L168.7461,99.545 L168.7963,99.52 L168.8491,99.491 L168.9042,99.456 L168.9613,99.416 L169.0197,99.369 L169.0784,99.314 L169.1363,99.253 L169.1921,99.184 L169.2443,99.108 L169.2915,99.026 L169.3324,98.939 L169.3661,98.849 L169.392,98.759 L169.4101,98.668 L169.4164,98.623 L169.4166,98.622 L169.4167,98.62 L169.4168,98.619 L169.4169,98.618 L169.4171,98.617 L169.4172,98.616 L169.4173,98.616 L169.4174,98.615 L169.4174,98.614 L169.4175,98.614 L169.4176,98.613 L169.4176,98.613 L169.4176,98.613 L169.4176,98.613 L169.4176,98.613 L169.2357,97.841 L169.1016,97.665 L168.9188,97.497 L168.7735,97.392 L168.6301,97.301 L168.4728,97.21 L168.299,97.117 L168.1062,97.019 L167.8898,96.914 L167.6505,96.802 L167.3889,96.684 L167.1017,96.559 L166.7897,96.427 L166.4546,96.289 L166.0932,96.144 L165.7064,95.993 L165.2959,95.837 L164.8588,95.674 L164.3959,95.506 L163.9093,95.333 L163.396,95.155 L162.8565,94.971 L162.293,94.784 L161.7026,94.592 L161.0844,94.396 L159.8045,93.998 L158.3538,93.554 L156.8438,93.087 L156.0983,92.855 L155.3741,92.626 L154.686,92.406 L154.0426,92.195 L153.4621,92 L152.9543,91.822 L152.7389,91.743 L152.5457,91.67 L152.3814,91.604 L152.2484,91.548 L152.1578,91.506 L152.119,91.486 L152.1591,91.512 L152.2159,91.553 L152.5619,92.083 L152.5618,92.083 L152.5618,92.083 L152.5617,92.082 L152.5615,92.082 L152.5613,92.081 L152.5611,92.081 L152.5608,92.08 L152.5605,92.079 L152.5601,92.078 L152.5598,92.076 L152.5593,92.075 L152.5589,92.074 L152.5584,92.072 L152.5578,92.07 L152.5573,92.068 L152.5664,92.098 L152.5835,92.163 L152.5976,92.234 L152.6077,92.309 L152.6132,92.388 L152.6133,92.471 L152.6073,92.556 L152.5949,92.641 L152.5762,92.727 L152.5513,92.81 L152.5208,92.89 L152.4856,92.966 L152.4465,93.037 L152.4046,93.102 L152.361,93.161 L152.3166,93.214 L152.2951,93.238 L152.2963,93.237 L152.2976,93.235 L152.2987,93.234 L152.2998,93.233 L152.3007,93.232 L152.3016,93.231 L152.3024,93.23 L152.3031,93.23 L152.3037,93.229 L152.3042,93.228 L152.3046,93.228 L152.305,93.228 L152.3053,93.227 L152.3054,93.227 L152.3056,93.227 L151.7185,93.572 L151.6401,93.584 L151.5954,93.589 L151.6542,93.591 L151.7824,93.602 L151.9718,93.624 L152.2106,93.656 L152.5008,93.699 L152.8438,93.756 L153.2345,93.823 L153.6781,93.903 L154.1765,93.997 L154.7256,94.103 L155.3314,94.223 L155.9957,94.357 L156.8454,94.532 L157.6597,94.702 L158.4398,94.868 L159.189,95.03 L159.9045,95.187 L160.5873,95.34 L161.2406,95.489 L161.8616,95.634 L162.4516,95.774 L163.0134,95.909 L163.5444,96.039 L164.0457,96.165 L164.5202,96.287 L164.9652,96.403 L165.382,96.515 L165.7735,96.622 L166.1367,96.724 L166.473,96.82 L166.7847,96.913 L167.0694,97 L167.3283,97.082 L167.5634,97.159 L167.7719,97.23 L167.9459,97.292 L168.2503,97.409 L168.4296,97.488 L168.4746,97.511 L168.4676,97.514 L168.0288,96.928 L168.0289,96.928 L168.0291,96.929 L168.0293,96.929 L168.0296,96.93 L168.0299,96.931 L168.0304,96.932 L168.031,96.934 L168.0315,96.935 L168.0322,96.937 L168.033,96.939 L168.0338,96.941 L168.0347,96.944 L168.0357,96.946 L168.0368,96.949 L168.0379,96.952 L168.0238,96.913 L167.9968,96.822 L167.9751,96.72 L167.961,96.607 L167.957,96.485 L167.9655,96.356 L167.9879,96.224 L168.0242,96.094 L168.0736,95.97 L168.1334,95.855 L168.2008,95.752 L168.2722,95.662 L168.3449,95.585 L168.4163,95.52 L168.4848,95.467 L168.5491,95.423 L168.578,95.406 L168.5749,95.408 L168.5721,95.409 L168.5694,95.411 L168.567,95.412 L168.5647,95.414 L168.5627,95.415 L168.5609,95.416 L168.5592,95.417 L168.5578,95.418 L168.5565,95.418 L168.5556,95.419 L168.5547,95.419 L168.5541,95.42 L168.5537,95.42 L168.5535,95.42 L169.0855,95.243 L169.0965,95.248 L169.0571,95.244 L168.8953,95.222 L168.6603,95.18 L168.364,95.116 L168.0125,95.029 L167.6184,94.922 L167.1843,94.792 L166.7129,94.64 L166.2132,94.468 L165.6879,94.273 L165.1394,94.054 L164.5747,93.815 L163.9978,93.553 L163.4106,93.268 L162.8191,92.962 L162.2285,92.634 L161.6437,92.276 L161.0673,91.898 L160.5052,91.498 L159.9581,91.075 L159.4352,90.627 L158.9416,90.159 L158.4754,89.669 L158.0395,89.163 L157.6386,88.644 L157.272,88.107 L156.9436,87.554 L156.6616,86.988 L156.4152,86.382 L156.3285,86.118 L156.2837,85.926 L156.273,85.822 L156.2728,85.82 L156.2451,85.944 L156.1547,86.125 L155.9973,86.296 L155.8234,86.407 L155.733,86.441 L155.7327,86.443 L155.813,86.447 L155.9768,86.468 L156.1986,86.513 L156.4678,86.585 L156.7839,86.688 L157.1347,86.817 L157.5161,86.972 L157.9132,87.147 L158.8216,87.583 L159.7945,88.097 L160.8325,88.685 L161.9144,89.33 L163.0282,90.026 L164.1625,90.758 L165.3012,91.516 L166.4299,92.291 L167.5351,93.071 L168.6064,93.848 L169.6264,94.608 L170.5856,95.344 L171.0326,95.694 L171.4619,96.036 L171.8681,96.366 L172.2512,96.682 L172.6065,96.982 L172.9403,97.271 C173.5878,97.831 174.5666,97.76 175.1265,97.113 C175.6865,96.465 175.6155,95.486 174.968,94.926 Z" id="Fill-43"></path>
            <path d="M135.214,84.56 C160.0309,101.675 202.3942,98.591 162.242,81.01" id="Fill-44"></path>
            <path d="M134.3558,85.851 L135.9519,86.909 L137.6124,87.927 L139.3057,88.886 L141.0308,89.782 L142.782,90.621 L144.5571,91.384 L146.3582,92.056 L148.1535,92.701 L149.9288,93.341 L151.7022,93.928 L153.4688,94.459 L155.2212,94.928 L156.9549,95.348 L158.6635,95.718 L160.3382,96.039 L161.978,96.318 L163.5766,96.553 L165.1255,96.743 L166.6264,96.893 L168.0718,96.996 L169.4533,97.049 L170.7742,97.056 L172.0256,97.01 L173.1854,96.911 L173.7567,96.842 L174.2963,96.76 L174.8132,96.667 L175.3108,96.561 L175.7877,96.439 L176.2404,96.304 L176.6728,96.156 L177.0847,95.993 L177.4712,95.815 L177.8366,95.621 L178.1809,95.407 L178.4969,95.174 L178.7885,94.919 L179.0535,94.636 L179.281,94.33 L179.4725,94 L179.6226,93.641 L179.7204,93.268 L179.7692,92.885 L179.7655,92.491 L179.7112,92.102 L179.6154,91.717 L179.4744,91.331 L179.2935,90.952 L179.0764,90.575 L178.8192,90.195 L178.5249,89.817 L178.1955,89.436 L177.827,89.048 L177.4206,88.654 L176.9772,88.255 L176.4907,87.849 L175.9627,87.436 L175.3813,87.036 L174.754,86.63 L174.077,86.227 L173.3613,85.814 L172.6059,85.382 L171.8049,84.94 L170.962,84.488 L170.0742,84.019 L169.1369,83.542 L168.154,83.055 L167.1208,82.557 L166.0378,82.046 L164.9068,81.527 L163.7218,80.998 L162.4851,80.461 C162.1821,80.327 161.8277,80.464 161.6934,80.766 C161.5592,81.069 161.6959,81.424 161.9989,81.558 L163.2215,82.111 L164.3864,82.653 L165.4973,83.184 L166.5593,83.706 L167.5659,84.221 L168.5191,84.728 L169.4247,85.225 L170.2788,85.711 L171.0782,86.194 L171.8303,86.669 L172.531,87.134 L173.1761,87.597 L173.7746,88.051 L174.33,88.482 L174.8401,88.898 L175.3221,89.283 L175.757,89.653 L176.1481,90.011 L176.4984,90.354 L176.8024,90.682 L177.0627,90.996 L177.2841,91.293 L177.4624,91.568 L177.6024,91.825 L177.7084,92.06 L177.7784,92.266 L177.8192,92.451 L177.8352,92.614 L177.83,92.749 L177.8073,92.873 L177.771,92.989 L177.7195,93.095 L177.6434,93.209 L177.5447,93.327 L177.4202,93.445 L177.2605,93.57 L177.0703,93.696 L176.8492,93.818 L176.5918,93.938 L176.3043,94.054 L175.9874,94.161 L175.6376,94.262 L175.2609,94.354 L174.8576,94.437 L174.4258,94.513 L173.97,94.579 L173.4902,94.636 L172.9974,94.681 L171.9109,94.746 L170.7523,94.771 L169.5115,94.755 L168.2033,94.699 L166.8288,94.596 L165.3918,94.444 L163.9053,94.244 L162.3718,93.991 L160.7952,93.684 L159.1865,93.329 L157.5487,92.923 L155.8851,92.468 L154.2038,91.969 L152.5072,91.432 L150.8002,90.848 L149.0892,90.223 L147.4023,89.501 L145.7376,88.701 L144.0715,87.896 L142.4194,87.063 L140.7909,86.182 L139.186,85.265 L137.6195,84.301 L136.0722,83.269 C135.3593,82.795 134.3972,82.989 133.9232,83.702 C133.4493,84.415 133.6429,85.377 134.3558,85.851 Z" id="Fill-45"></path>
            <path d="M182.6632,99.649 C175.0233,99.649 177.7226,84.371 181.1616,80.418" id="Fill-46"></path>
            <path d="M182.7246,98.1 L182.329,98.088 L182.0369,98.05 L181.7695,97.989 L181.5263,97.909 L181.3084,97.819 L181.0988,97.707 L180.8977,97.576 L180.7072,97.429 L180.5113,97.256 L180.3066,97.064 L180.0869,96.857 L179.9026,96.593 L179.7521,96.288 L179.6178,95.959 L179.4912,95.603 L179.376,95.224 L179.2693,94.827 L179.1757,94.429 L179.0169,93.512 L178.9278,92.558 L178.9132,91.555 L178.9669,90.525 L179.0641,89.481 L179.175,88.427 L179.2998,87.374 L179.4934,86.348 L179.755,85.365 L179.9604,84.397 L180.2031,83.488 L180.5227,82.67 L180.8726,81.939 L181.2417,81.318 L181.6354,80.786 C181.8387,80.524 181.7914,80.147 181.5297,79.944 C181.2681,79.741 180.8912,79.788 180.6878,80.05 L180.2302,80.614 L179.772,81.308 L179.3281,82.088 L178.8917,82.937 L178.4284,83.845 L177.987,84.816 L177.6632,85.863 L177.3469,86.946 L177.047,88.053 L176.8178,89.185 L176.6765,90.333 L176.6024,91.476 L176.5682,92.608 L176.5867,93.723 L176.6721,94.784 L176.7495,95.337 L176.8512,95.86 L176.9826,96.367 L177.1385,96.862 L177.3271,97.344 L177.5411,97.807 L177.7601,98.268 L177.9874,98.738 L178.2745,99.171 L178.6121,99.571 L179.002,99.939 L179.4295,100.263 L179.8929,100.546 L180.3982,100.785 L180.9295,100.964 L181.4841,101.095 L182.0674,101.174 L182.6017,101.198 C183.457,101.232 184.178,100.566 184.2119,99.711 C184.2459,98.855 183.58,98.134 182.7246,98.1 Z" id="Fill-47"></path>
            <path d="M179.3597,98.466 C174.2617,95.954 169.0965,88.181 165.8457,83.377" id="Fill-48"></path>
            <path d="M180.0877,97.097 L179.4923,96.784 L178.9309,96.441 L178.3468,96.058 L177.7451,95.64 L177.0986,95.225 L176.4523,94.752 L175.8502,94.193 L175.2395,93.612 L174.6167,93.012 L173.9962,92.388 L173.3901,91.735 L172.8082,91.057 L171.653,89.646 L170.464,88.274 L169.3689,86.871 L168.221,85.571 L167.2233,84.272 L166.3427,83.04 C166.157,82.766 165.784,82.694 165.5095,82.88 C165.2351,83.065 165.1631,83.438 165.3488,83.713 L166.1665,84.991 L167.0179,86.401 L167.8548,87.944 L168.8552,89.456 L169.8701,91.022 L171.0119,92.504 L171.6062,93.244 L172.1945,93.975 L172.7845,94.697 L173.3856,95.4 L174.0114,96.068 L174.6568,96.696 L175.2665,97.348 L175.8834,97.981 L176.5506,98.529 L177.239,99.027 L177.9523,99.469 L178.6318,99.834 C179.3875,100.236 180.3261,99.949 180.7282,99.194 C181.1302,98.438 180.8435,97.499 180.0877,97.097 Z" id="Fill-49"></path>
            <path d="M165.8457,97.282 C157.0406,99.017 142.2431,88.989 132.5112,86.039" id="Fill-50"></path>
            <path d="M165.5875,95.754 L165.074,95.842 L164.5852,95.898 L164.0719,95.929 L163.54,95.937 L162.9918,95.923 L162.4215,95.891 L161.8343,95.839 L161.2318,95.767 L160.6093,95.681 L159.9686,95.591 L159.3074,95.509 L158.6476,95.388 L157.2766,95.007 L155.8796,94.566 L154.4403,94.085 L152.9732,93.56 L151.4877,92.985 L149.9926,92.36 L148.4953,91.696 L146.991,91.021 L145.4747,90.364 L143.9516,89.733 L142.4472,89.094 L140.9743,88.44 L139.5051,87.844 L138.038,87.338 L136.6326,86.813 L135.2695,86.314 L133.9535,85.856 L132.6962,85.469 C132.381,85.366 132.0426,85.539 131.9404,85.854 C131.8382,86.169 132.0109,86.508 132.3261,86.61 L133.5499,87.027 L134.8145,87.509 L136.1204,88.068 L137.456,88.693 L138.7996,89.423 L140.1999,90.129 L141.6416,90.824 L143.0917,91.568 L144.5522,92.337 L146.0376,93.08 L147.5452,93.789 L149.0594,94.475 L150.5666,95.154 L152.0642,95.817 L153.5498,96.445 L155.0272,97.025 L156.4979,97.528 L157.9345,97.957 L158.6554,98.189 L159.3565,98.421 L160.0582,98.602 L160.7588,98.748 L161.4573,98.861 L162.1475,98.945 L162.832,99.004 L163.5128,99.028 L164.1826,99.02 L164.8451,98.982 L165.5023,98.91 L166.104,98.811 C166.9481,98.668 167.5167,97.868 167.374,97.024 C167.2314,96.18 166.4315,95.611 165.5875,95.754 Z" id="Fill-51"></path>
            <path d="M153.533,94.619 C144.5423,93.814 135.2016,89.883 126.2046,88.11" id="Fill-52"></path>
            <path d="M153.6913,93.078 L152.5864,92.967 L151.4966,92.828 L150.3949,92.681 L149.2824,92.531 L148.1479,92.432 L147.027,92.223 L145.8951,91.97 L144.7609,91.733 L143.6204,91.477 L142.4748,91.217 L141.3305,90.926 L140.1862,90.619 L139.0438,90.295 L137.8932,89.983 L136.7344,89.7 L135.5642,89.435 L134.4037,89.17 L133.2564,88.878 L132.1032,88.608 L130.9117,88.415 L129.7496,88.217 L128.6096,87.999 L127.4739,87.763 L126.3384,87.525 C126.0154,87.452 125.6936,87.654 125.6198,87.977 C125.5459,88.3 125.7478,88.621 126.0709,88.695 L127.1967,88.975 L128.3223,89.256 L129.4436,89.555 L130.5429,89.875 L131.6326,90.311 L132.7609,90.672 L133.8949,91.011 L135.0158,91.376 L136.1362,91.772 L137.268,92.15 L138.4079,92.499 L139.5562,92.837 L140.7033,93.17 L141.8504,93.52 L142.9937,93.861 L144.1421,94.207 L145.2916,94.512 L146.4433,94.801 L147.6012,95.083 L148.7412,95.432 L149.898,95.681 L151.0604,95.886 L152.2285,96.041 L153.3746,96.161 C154.2262,96.249 154.9874,95.629 155.0748,94.778 C155.1623,93.926 154.5429,93.165 153.6913,93.078 Z" id="Fill-53"></path>
            <path d="M3.9902,23.882 C4.2846,38.064 1.8054,80.475 7.0799,91.588 C11.5897,101.09 105.2157,80.386 119.4837,84.194" id="Fill-54"></path>
            <path d="M2.4404,23.908 L2.4558,24.822 L2.4642,25.803 L2.4666,26.857 L2.4638,27.972 L2.456,29.15 L2.4437,30.39 L2.4279,31.68 L2.4087,33.025 L2.3869,34.419 L2.3631,35.855 L2.3377,37.335 L2.3126,38.854 L2.2901,40.407 L2.2678,41.992 L2.2468,43.607 L2.2271,45.246 L2.2105,46.908 L2.1969,48.59 L2.1907,50.292 L2.1867,51.995 L2.1954,53.716 L2.2091,55.439 L2.239,57.166 L2.2794,58.894 L2.3276,60.613 L2.3601,62.334 L2.4069,64.034 L2.4397,65.736 L2.4907,67.402 L2.5422,69.066 L2.6076,70.704 L2.6856,72.314 L2.7758,73.893 L2.8769,75.443 L2.9908,76.957 L3.1179,78.43 L3.2607,79.865 L3.4182,81.256 L3.5912,82.596 L3.7796,83.889 L3.9848,85.129 L4.2073,86.31 L4.4468,87.437 L4.7063,88.503 L4.9865,89.503 L5.2877,90.442 L5.6151,91.315 L5.9715,92.118 L6.2476,92.586 L6.6038,93.005 L7.0102,93.359 L7.4577,93.665 L7.9515,93.931 L8.4807,94.159 L9.0456,94.359 L9.6542,94.535 L10.3012,94.687 L10.9856,94.82 L11.7135,94.934 L12.4812,95.03 L13.2863,95.111 L14.1334,95.175 L15.0195,95.223 L15.9414,95.257 L16.903,95.276 L17.9014,95.282 L18.9334,95.275 L20.002,95.256 L21.1049,95.225 L22.2387,95.182 L23.4059,95.127 L24.6045,95.061 L25.831,94.985 L27.0877,94.9 L28.3726,94.804 L29.6824,94.7 L31.0189,94.586 L32.3803,94.462 L33.7634,94.331 L35.1698,94.19 L36.5977,94.042 L38.0442,93.886 L39.5104,93.723 L40.9953,93.551 L42.5013,93.37 L44.008,93.188 L45.5445,92.991 L47.0806,92.795 L48.6417,92.587 L50.2021,92.379 L51.7811,92.162 L53.3595,91.942 L54.9541,91.715 L56.5483,91.488 L58.1535,91.255 L59.7586,91.023 L61.3707,90.786 L62.982,90.552 L64.5935,90.319 L66.2059,90.087 L67.8139,89.857 L69.421,89.626 L71.0283,89.396 L72.6351,89.166 L74.2171,88.945 L75.7995,88.724 L77.3817,88.502 L78.9632,88.28 L80.5156,88.055 L82.0662,87.818 L83.5906,87.587 L85.1139,87.35 L86.6059,87.122 L88.0991,86.903 L89.5603,86.697 L91.0213,86.491 L92.4422,86.3 L93.8629,86.109 L95.2387,85.936 L96.6152,85.764 L97.9569,85.603 L99.2728,85.449 L100.5612,85.304 L101.8234,85.167 L103.0558,85.039 L104.2571,84.92 L105.4291,84.812 L106.5676,84.715 L107.6714,84.629 L108.7424,84.552 L109.776,84.487 L110.7713,84.433 L111.7305,84.39 L112.6483,84.36 L113.5239,84.342 L114.3599,84.336 L115.1503,84.343 L115.8947,84.364 L116.5953,84.398 L117.2456,84.446 L117.8453,84.508 L118.3963,84.583 L118.8908,84.672 L119.345,84.778 C119.6674,84.855 119.9909,84.655 120.0674,84.333 C120.144,84.011 119.9447,83.687 119.6223,83.611 L119.1366,83.494 L118.5869,83.392 L117.9921,83.307 L117.3554,83.238 L116.6721,83.184 L115.9444,83.144 L115.1765,83.118 L114.3645,83.106 L113.5103,83.107 L112.6184,83.12 L111.6854,83.146 L110.7133,83.184 L109.7061,83.232 L108.6612,83.292 L107.5803,83.363 L106.4675,83.444 L105.3203,83.534 L104.1403,83.633 L102.9312,83.74 L101.6913,83.855 L100.422,83.979 L99.127,84.109 L97.8045,84.248 L96.4557,84.394 L95.0744,84.55 L93.6925,84.704 L92.2644,84.866 L90.8366,85.028 L89.368,85.198 L87.8997,85.368 L86.3982,85.544 L84.8956,85.709 L83.3614,85.883 L81.8284,86.064 L80.2691,86.251 L78.7117,86.451 L77.1278,86.667 L75.5448,86.884 L73.9619,87.101 L72.3785,87.318 L70.7692,87.536 L69.1602,87.753 L67.5512,87.971 L65.9429,88.188 L64.3294,88.401 L62.7149,88.612 L61.1002,88.822 L59.4863,89.03 L57.8795,89.232 L56.2727,89.435 L54.677,89.633 L53.0817,89.83 L51.5027,90.021 L49.9241,90.214 L48.3648,90.402 L46.8059,90.589 L45.2725,90.768 L43.7396,90.947 L42.2374,91.118 L40.7347,91.289 L39.2572,91.452 L37.7982,91.61 L36.3591,91.761 L34.9395,91.906 L33.5426,92.042 L32.1691,92.171 L30.8184,92.291 L29.494,92.403 L28.1967,92.505 L26.9255,92.598 L25.6843,92.68 L24.4738,92.75 L23.2927,92.811 L22.1457,92.859 L21.0331,92.896 L19.9535,92.921 L18.912,92.934 L17.9088,92.934 L16.9423,92.921 L16.0184,92.894 L15.137,92.854 L14.2965,92.801 L13.5035,92.735 L12.7575,92.654 L12.0573,92.56 L11.411,92.453 L10.8172,92.331 L10.2757,92.197 L9.7964,92.053 L9.3767,91.899 L9.0172,91.74 L8.7301,91.581 L8.5071,91.425 L8.3454,91.282 L8.2482,91.165 L8.1883,91.057 L7.9041,90.396 L7.6315,89.643 L7.372,88.801 L7.126,87.885 L6.8964,86.894 L6.6824,85.829 L6.483,84.702 L6.2996,83.512 L6.1316,82.261 L5.9765,80.958 L5.8357,79.603 L5.7088,78.199 L5.5914,76.753 L5.487,75.266 L5.395,73.74 L5.3139,72.181 L5.2434,70.592 L5.1819,68.976 L5.1339,67.323 L5.0854,65.672 L5.0551,63.985 L5.0387,62.297 L5.0393,60.588 L5.0556,58.878 L5.0885,57.16 L5.1109,55.442 L5.1392,53.729 L5.1626,52.015 L5.1904,50.32 L5.2161,48.623 L5.2433,46.948 L5.2727,45.29 L5.303,43.655 L5.3344,42.043 L5.3663,40.46 L5.3983,38.909 L5.4271,37.389 L5.4536,35.909 L5.4785,34.47 L5.5015,33.072 L5.5217,31.723 L5.5386,30.425 L5.5519,29.177 L5.5607,27.987 L5.5643,26.859 L5.5628,25.788 L5.5548,24.784 L5.54,23.857 C5.526,23.001 4.8208,22.319 3.9648,22.3327883 C3.1089,22.347 2.4264,23.052 2.4404,23.908 Z" id="Fill-55"></path>
            <path d="M51.7495,6.061 C58.0464,2.31 43.2885,4.787 40.8416,5.206 C31.3737,6.824 10.6168,0.888 4.074,9.755 C-5.6641,22.954 11.7981,58.494 14.3323,74.281" id="Fill-56"></path>
            <path d="M52.5626,7.38 L52.9547,7.138 L53.3248,6.889 L53.6527,6.644 L53.951,6.391 L54.2271,6.113 L54.4755,5.793 L54.6958,5.387 L54.8394,4.827 L54.7944,4.182 L54.5344,3.592 L54.1518,3.171 L53.7812,2.923 L53.4379,2.768 L53.1053,2.664 L52.7853,2.594 L52.4642,2.544 L52.1314,2.509 L51.7898,2.486 L51.4369,2.473 L51.0684,2.469 L50.6881,2.474 L50.2964,2.485 L49.8916,2.503 L49.4691,2.527 L48.6248,2.59 L47.7446,2.672 L46.854,2.768 L45.9649,2.875 L45.0903,2.993 L44.2471,3.114 L43.4444,3.235 L42.6995,3.352 L42.0296,3.462 L41.4401,3.56 L40.9534,3.644 L40.6035,3.706 L40.0363,3.796 L39.4532,3.868 L38.8338,3.924 L38.185,3.969 L37.5079,4 L36.8015,4.018 L36.0714,4.03 L35.3179,4.032 L34.5413,4.025 L33.7456,4.017 L32.9312,4.005 L32.1019,3.988 L30.3943,3.914 L28.6422,3.813 L26.8547,3.699 L25.0439,3.593 L23.2181,3.51 L21.3914,3.456 L19.572,3.439 L17.7698,3.476 L16.0005,3.576 L14.2676,3.741 L12.5822,3.99 L10.9825,4.328 L10.1764,4.541 L9.4069,4.778 L8.6606,5.046 L7.9343,5.343 L7.2291,5.674 L6.5523,6.041 L5.9006,6.442 L5.2761,6.884 L4.6873,7.366 L4.1308,7.887 L3.6095,8.453 L3.1399,9.049 L2.8083,9.522 L2.504,10.001 L2.2213,10.492 L1.9569,10.995 L1.7106,11.512 L1.4771,12.059 L1.0831,13.13 L0.7498,14.268 L0.4842,15.445 L0.2767,16.658 L0.1295,17.912 L0.0399,19.2 L4.54747351e-13,20.518 L0.012,21.87 L0.0725,23.25 L0.1783,24.655 L0.3288,26.087 L0.5234,27.54 L0.7537,29.013 L1.0206,30.507 L1.3262,32.015 L1.6602,33.537 L2.0227,35.073 L2.4105,36.619 L2.8181,38.173 L3.2439,39.735 L3.6827,41.304 L4.1405,42.872 L4.5984,44.441 L5.075,46.01 L5.5508,47.577 L6.041,49.131 L6.5619,50.673 L7.0938,52.194 L7.6315,53.711 L8.1452,55.205 L8.6557,56.697 L9.1486,58.15 L9.6323,59.605 L10.099,61.027 L10.551,62.421 L10.9853,63.786 L11.4015,65.121 L11.7915,66.422 L12.1574,67.686 L12.4992,68.914 L12.8124,70.099 L13.0944,71.239 L13.3461,72.336 L13.562,73.382 L13.7412,74.384 C13.7982,74.71 14.109,74.929 14.4354,74.872 C14.7619,74.815 14.9804,74.504 14.9234,74.177 L14.7501,73.158 L14.5377,72.082 L14.2906,70.959 L14.0138,69.797 L13.7066,68.592 L13.3717,67.347 L13.0136,66.068 L12.6323,64.753 L12.2349,63.403 L11.8212,62.025 L11.3922,60.618 L10.9495,59.184 L10.4937,57.718 L10.0471,56.249 L9.5888,54.739 L9.1337,53.229 L8.694,51.683 L8.2485,50.141 L7.8005,48.581 L7.3218,47.033 L6.856,45.473 L6.3911,43.915 L5.9553,42.354 L5.5194,40.791 L5.1076,39.237 L4.7202,37.687 L4.3572,36.146 L4.0173,34.616 L3.7036,33.101 L3.4181,31.603 L3.16,30.124 L2.9289,28.669 L2.7321,27.239 L2.5681,25.835 L2.4399,24.462 L2.3519,23.121 L2.3002,21.814 L2.294,20.546 L2.3349,19.317 L2.4205,18.128 L2.5566,16.988 L2.7458,15.895 L2.9838,14.848 L3.2766,13.859 L3.6361,12.904 L3.8241,12.474 L4.0329,12.042 L4.2577,11.622 L4.4958,11.216 L4.7477,10.827 L5.0082,10.461 L5.3907,9.985 L5.7953,9.556 L6.235,9.155 L6.7041,8.781 L7.2026,8.438 L7.7359,8.12 L8.2977,7.825 L8.8878,7.559 L9.5101,7.317 L10.1585,7.097 L10.8317,6.902 L11.513,6.733 L13.0007,6.444 L14.5493,6.242 L16.1721,6.115 L17.8494,6.048 L19.5719,6.036 L21.3303,6.068 L23.1101,6.134 L24.9004,6.228 L26.6904,6.337 L28.47,6.455 L30.2261,6.584 L31.943,6.717 L32.7912,6.789 L33.6251,6.855 L34.4454,6.908 L35.2531,6.946 L36.0463,6.973 L36.8219,6.986 L37.5819,6.982 L38.3248,6.964 L39.0468,6.929 L39.7507,6.874 L40.4362,6.799 L41.0797,6.705 L41.4577,6.643 L41.9348,6.566 L42.5126,6.475 L43.1689,6.375 L43.8967,6.268 L44.6804,6.157 L45.5011,6.047 L46.3474,5.941 L47.2032,5.839 L48.0535,5.747 L48.8815,5.671 L49.6798,5.613 L50.0483,5.592 L50.4073,5.577 L50.7483,5.567 L51.0692,5.564 L51.3636,5.567 L51.6313,5.578 L51.8687,5.593 L52.0652,5.614 L52.22,5.639 L52.3241,5.661 L52.3549,5.67 L52.3103,5.649 L52.1763,5.556 L51.9585,5.312 L51.7872,4.925 L51.7587,4.504 L51.836,4.196 L51.9027,4.067 L51.9149,4.051 L51.8607,4.104 L51.7304,4.213 L51.5371,4.358 L51.2805,4.53 L50.9363,4.741 C50.2075,5.19 49.9808,6.145 50.4299,6.874 C50.879,7.603 51.8339,7.829 52.5626,7.38 Z" id="Fill-57"></path>
        </g>
    </g>
</svg>
