<?xml version="1.0" encoding="UTF-8"?>
<svg width="148px" height="140px" viewBox="0 0 148 140" version="1.1" xmlns="http://www.w3.org/2000/svg" xmlns:xlink="http://www.w3.org/1999/xlink">
    <title>6</title>
    <g id="Page-1" stroke="none" stroke-width="1" fill="none" fill-rule="evenodd">
        <g id="6" transform="translate(0.173000, 0.769000)" fill="currentColor">
            <path d="M3.449,56.556 C18.226,-22.898 178.724,-17.418 139.115,79.886 C135.32,89.209 131.063,99.57675 125.2505,108.164625 L125.212978,108.217054 L125.036767,108.737342 C110.678663,146.936075 -13.5461177,162.341257 2.85696079,59.9735517 Z M126.106,98.199 L102.053,125.764 C111.86966,123.60457 119.14222,117.022978 124.899875,108.677739 L125.212978,108.217054 L125.469976,107.469911 C126.386377,104.493894 126.63639,101.38918 126.106,98.199 Z M116.845,34.395 C115.479,34.769 114.676,36.179 115.049,37.544 L115.428,38.901 L115.772,40.22 L116.087,41.524 L116.376,42.813 L116.636,44.083 L116.869,45.339 L117.077,46.58 L117.257,47.802 L117.409,49.011 L117.537,50.204 L117.638,51.379 L117.71,52.539 L117.759,53.685 L117.783,54.812 L117.782,55.925 L117.759,57.023 L117.713,58.102 L117.64,59.167 L117.542,60.218 L117.421,61.249 L117.277,62.266 L117.103,63.266 L116.908,64.247 L116.691,65.215 L116.445,66.164 L116.171,67.092 L115.876,68.005 L115.565,68.903 L115.262,69.79 L114.941,70.664 L114.603,71.525 L114.25,72.368 L113.886,73.203 L113.506,74.024 L113.109,74.828 L112.709,75.593 L111.818,77.166 L110.879,78.648 L109.869,80.075 L108.803,81.452 L107.684,82.768 L106.504,84.033 L105.273,85.245 L103.994,86.397 L102.659,87.496 L101.282,88.543 L99.862,89.528 L98.396,90.462 L96.895,91.345 L95.362,92.171 L93.791,92.945 L92.192,93.67 L90.568,94.34 L88.915,94.959 L87.242,95.533 L85.551,96.051 L83.837,96.517 L82.11,96.936 L80.374,97.306 L78.623,97.623 L76.865,97.893 L75.106,98.11 L73.339,98.278 L71.573,98.397 L69.813,98.463 L68.054,98.476 L66.302,98.44 L64.566,98.352 L62.839,98.211 L61.127,98.023 L59.44,97.783 L57.77,97.49 L56.124,97.145 L54.512,96.75 L52.926,96.303 L51.372,95.81 L49.859,95.271 L48.381,94.681 L46.941,94.049 L45.551,93.372 L44.203,92.646 L42.901,91.879 L41.656,91.07 L40.46,90.214 L39.314,89.321 L38.229,88.393 L37.199,87.418 L36.223,86.406 L35.317,85.358 L34.442,84.226 L34.067,83.7 L33.685,83.131 L33.317,82.548 L32.965,81.955 L32.632,81.356 L32.315,80.741 L32.014,80.117 L31.732,79.486 L31.482,78.834 L31.26,78.168 L31.058,77.497 L30.874,76.811 L30.708,76.116 L30.564,75.415 L30.439,74.698 L30.333,73.972 L30.247,73.24 L30.176,72.492 L30.118,71.734 L30.082,70.969 L30.068,70.187 L30.072,69.394 L30.095,68.592 L30.141,67.772 L30.208,66.941 L30.297,66.1 L30.406,65.241 L30.537,64.369 L30.693,63.487 L30.875,62.587 L31.081,61.674 L31.313,60.752 L31.572,59.811 L31.856,58.856 L32.166,57.892 L32.506,56.909 L32.869,55.913 L33.259,54.905 L33.679,53.879 L34.127,52.84 L34.604,51.791 L35.114,50.724 L35.652,49.644 L36.221,48.554 L36.823,47.446 L37.455,46.326 L38.119,45.195 L38.834,44.021 C40.023,42.036 39.378,39.463 37.394,38.274 C35.409,37.085 32.836,37.73 31.647,39.714 L30.914,40.956 L30.197,42.217 L29.515,43.464 L28.864,44.702 L28.244,45.933 L27.657,47.151 L27.1,48.359 L26.574,49.56 L26.081,50.748 L25.616,51.927 L25.182,53.099 L24.782,54.258 L24.413,55.408 L24.073,56.553 L23.765,57.682 L23.486,58.803 L23.236,59.917 L23.017,61.017 L22.825,62.107 L22.661,63.19 L22.527,64.258 L22.42,65.317 L22.346,66.369 L22.303,67.405 L22.285,68.431 L22.296,69.449 L22.338,70.45 L22.407,71.44 L22.504,72.422 L22.627,73.386 L22.779,74.338 L22.966,75.279 L23.177,76.201 L23.412,77.109 L23.672,78.008 L23.955,78.887 L24.26,79.752 L24.59,80.607 L24.942,81.441 L25.304,82.265 L25.676,83.086 L26.069,83.887 L26.482,84.675 L26.918,85.452 L27.374,86.209 L27.848,86.953 L28.344,87.686 L28.885,88.434 L29.938,89.782 L31.097,91.11 L32.32,92.368 L33.603,93.568 L34.953,94.711 L36.359,95.782 L37.815,96.794 L39.329,97.748 L40.885,98.637 L42.482,99.47 L44.127,100.244 L45.805,100.955 L47.518,101.612 L49.269,102.21 L51.047,102.747 L52.852,103.23 L54.687,103.657 L56.541,104.024 L58.414,104.342 L60.311,104.605 L62.22,104.808 L64.141,104.958 L66.079,105.05 L68.022,105.082 L69.971,105.062 L71.929,104.982 L73.884,104.844 L75.839,104.651 L77.794,104.395 L79.739,104.079 L81.675,103.706 L83.604,103.272 L85.514,102.773 L87.407,102.216 L89.285,101.597 L91.136,100.918 L92.963,100.178 L94.765,99.374 L96.532,98.509 L98.267,97.586 L99.971,96.599 L101.63,95.552 L103.251,94.448 L104.831,93.277 L106.361,92.051 L107.847,90.767 L109.285,89.419 L110.664,88.011 L111.99,86.547 L113.259,85.015 L114.458,83.423 L115.595,81.772 L116.668,80.055 L117.649,78.307 L118.136,77.37 L118.59,76.442 L119.022,75.501 L119.435,74.545 L119.821,73.567 L120.182,72.577 L120.523,71.572 L120.841,70.549 L121.109,69.506 L121.357,68.45 L121.58,67.379 L121.789,66.298 L121.987,65.207 L122.161,64.099 L122.31,62.979 L122.448,61.848 L122.562,60.7 L122.65,59.539 L122.72,58.365 L122.768,57.175 L122.79,55.971 L122.788,54.755 L122.759,53.521 L122.704,52.274 L122.624,51.014 L122.521,49.737 L122.39,48.447 L122.235,47.143 L122.053,45.821 L121.843,44.487 L121.606,43.139 L121.34,41.773 L121.045,40.395 L120.723,39.003 L120.37,37.593 L119.993,36.19 C119.619,34.825 118.21,34.021 116.845,34.395 Z M65.873,26.622 L65.526,27.936 L65.165,29.308 L64.883,30.687 L64.652,32.071 L64.584,33.482 L64.335,34.834 L64.055,36.171 L63.803,37.512 L63.584,38.854 L63.364,40.19 L63.135,41.52 L62.906,42.844 L62.705,44.171 L62.544,45.502 L62.431,46.842 L62.339,48.178 L62.235,49.515 L62.092,50.841 L61.922,52.167 L61.867,53.506 L61.829,54.855 L61.653,56.178 L61.431,57.504 L61.196,58.831 C60.988,60.231 61.955,61.534 63.355,61.742 C64.755,61.95 66.059,60.983 66.266,59.583 L66.427,58.245 L66.6,56.906 L66.811,55.581 L67.159,54.28 L67.491,52.985 L67.708,51.676 L67.96,50.378 L68.252,49.092 L68.573,47.815 L68.874,46.541 L69.155,45.267 L69.397,43.99 L69.644,42.714 L69.891,41.446 L70.194,40.186 L70.498,38.934 L70.826,37.684 L71.124,36.428 L71.514,35.189 L72.085,34.008 L72.566,32.799 L72.996,31.586 L73.433,30.363 L73.882,29.081 C74.562,26.869 73.319,24.526 71.107,23.847 C68.895,23.168 66.552,24.41 65.873,26.622 Z M76.185,31.768 L76.079,32.449 L75.98,33.085 L75.898,33.678 L75.837,34.237 L75.788,34.757 L75.775,35.247 L75.8,35.713 L75.851,36.15 L75.848,36.544 L75.78,36.898 L75.715,37.225 L75.654,37.529 L75.548,38.083 L75.47,38.573 L75.4,39.016 L75.333,39.433 L75.267,39.837 L75.197,40.251 L75.112,40.688 L75.01,41.168 L74.894,41.712 L74.761,42.331 L74.623,43.053 L74.497,43.902 L74.442,44.376 L74.393,44.889 L74.344,45.443 L74.284,46.033 L74.196,46.662 L74.083,47.332 L73.939,48.041 L73.854,48.816 L73.858,49.666 L73.691,50.528 L73.464,51.436 L73.201,52.398 C72.885,53.778 73.748,55.152 75.128,55.468 C76.507,55.783 77.882,54.92 78.197,53.541 L78.378,52.56 L78.568,51.644 L78.794,50.796 L79.167,50.033 L79.427,49.299 L79.606,48.599 L79.796,47.947 L79.992,47.343 L80.195,46.787 L80.392,46.268 L80.573,45.785 L80.73,45.336 L80.987,44.517 L81.179,43.808 L81.33,43.192 L81.464,42.648 L81.582,42.166 L81.696,41.728 L81.814,41.315 L81.93,40.91 L82.049,40.495 L82.174,40.055 L82.311,39.57 L82.447,39.019 L82.52,38.715 L82.598,38.389 L82.683,38.039 L82.845,37.678 L83.074,37.302 L83.292,36.89 L83.483,36.439 L83.656,35.945 L83.834,35.413 L84.007,34.84 L84.182,34.222 L84.37,33.558 C84.865,31.298 83.433,29.065 81.173,28.57 C78.912,28.076 76.679,29.507 76.185,31.768 Z" id="Combined-Shape"></path>
            <path d="M102.486,127.566 L103.763,127.257 L105.049,126.888 L106.303,126.471 L107.531,126.009 L108.733,125.499 L109.903,124.946 L111.048,124.353 L112.168,123.716 L113.257,123.04 L114.322,122.328 L115.362,121.578 L116.374,120.793 L117.363,119.978 L118.328,119.127 L119.267,118.247 L120.184,117.34 L121.08,116.402 L121.951,115.439 L122.802,114.453 L123.633,113.44 L124.442,112.407 L125.233,111.353 L126.005,110.277 L126.757,109.184 L127.492,108.075 L128.211,106.947 L128.912,105.806 L129.598,104.652 L130.268,103.483 L130.925,102.3 L131.556,101.113 L132.19,99.92 L132.797,98.71 L133.403,97.502 L133.985,96.281 L134.565,95.064 L135.125,93.839 L135.685,92.616 L136.225,91.389 L136.763,90.165 L137.284,88.943 L137.804,87.725 L138.309,86.512 L138.813,85.301 L139.304,84.103 L139.794,82.906 L140.271,81.728 L140.751,80.545 L141.358,79.012 L141.936,77.487 L142.479,75.978 L142.993,74.482 L143.473,72.999 L143.92,71.532 L144.338,70.079 L144.724,68.64 L145.079,67.216 L145.405,65.806 L145.7,64.409 L145.963,63.029 L146.199,61.661 L146.405,60.308 L146.58,58.97 L146.729,57.647 L146.848,56.336 L146.938,55.042 L147,53.762 L147.033,52.494 L147.037,51.244 L147.016,50.008 L146.967,48.785 L146.891,47.578 L146.79,46.386 L146.662,45.207 L146.508,44.046 L146.331,42.898 L146.127,41.764 L145.897,40.647 L145.645,39.545 L145.367,38.456 L145.065,37.384 L144.741,36.327 L144.392,35.283 L144.023,34.256 L143.636,33.242 L143.224,32.242 L142.79,31.259 L142.336,30.291 L141.858,29.336 L141.359,28.399 L140.841,27.476 L140.3,26.568 L139.74,25.676 L139.16,24.8 L138.56,23.937 L137.941,23.092 L137.304,22.261 L136.646,21.445 L135.971,20.647 L135.279,19.862 L134.568,19.093 L133.834,18.335 L133.089,17.61 L132.336,16.879 L131.55,16.178 L130.763,15.479 L129.944,14.81 L129.128,14.145 L128.283,13.507 L127.437,12.868 L126.56,12.26 L125.683,11.653 L124.778,11.076 L123.876,10.502 L122.948,9.956 L122.019,9.409 L121.064,8.893 L120.108,8.377 L119.129,7.892 L118.151,7.409 L117.152,6.953 L116.151,6.498 L115.128,6.073 L114.105,5.649 L113.06,5.255 L112.019,4.862 L110.959,4.497 L109.897,4.132 L108.817,3.797 L107.737,3.463 L106.639,3.158 L105.544,2.855 L104.434,2.579 L103.323,2.303 L102.196,2.057 L101.07,1.812 L99.93,1.597 L98.791,1.382 L97.642,1.195 L96.491,1.007 L95.328,0.85 L94.166,0.693 L92.993,0.566 L91.823,0.439 L90.644,0.34 L89.463,0.241 L88.275,0.171 L87.087,0.102 L85.893,0.063 L84.7,0.024 L83.502,0.012 L82.303,0 L81.099,0.019 L79.896,0.037 L78.69,0.085 L77.485,0.133 L76.279,0.209 L75.071,0.284 L73.863,0.39 L72.655,0.495 L71.447,0.631 L70.241,0.766 L69.037,0.928 L67.831,1.091 L66.628,1.283 L65.425,1.475 L64.226,1.697 L63.029,1.919 L61.837,2.168 L60.643,2.417 L59.455,2.696 L58.268,2.975 L57.088,3.283 L55.91,3.591 L54.741,3.925 L53.569,4.261 L52.408,4.626 L51.246,4.991 L50.096,5.385 L48.948,5.78 L47.811,6.201 L46.672,6.623 L45.547,7.075 L44.422,7.527 L43.312,8.008 L42.204,8.489 L41.111,8.997 L40.015,9.506 L38.937,10.044 L37.859,10.583 L36.8,11.151 L35.743,11.719 L34.703,12.313 L33.661,12.909 L32.641,13.534 L31.621,14.16 L30.623,14.815 L29.627,15.47 L28.652,16.151 L27.675,16.834 L26.723,17.546 L25.771,18.259 L24.845,19.001 L23.921,19.743 L23.021,20.511 L22.12,21.281 L21.248,22.08 L20.375,22.88 L19.532,23.709 L18.691,24.538 L17.878,25.393 L17.063,26.25 L16.281,27.136 L15.499,28.024 L14.751,28.941 L14.004,29.856 L13.29,30.798 L12.573,31.743 L11.893,32.716 L11.213,33.691 L10.57,34.694 L9.933,35.69 L9.314,36.719 L8.718,37.758 L8.143,38.81 L7.586,39.876 L7.049,40.958 L6.534,42.053 L6.038,43.162 L5.564,44.287 L5.113,45.425 L4.682,46.576 L4.273,47.743 L3.888,48.923 L3.524,50.117 L3.183,51.326 L2.866,52.548 L2.572,53.783 L2.301,55.033 L2.056,56.296 L1.734,58.106 L1.441,59.893 L1.176,61.656 L0.938,63.397 L0.728,65.116 L0.546,66.81 L0.389,68.484 L0.26,70.136 L0.157,71.764 L0.079,73.37 L0.027,74.956 L0.002,76.518 L0,78.059 L0.024,79.579 L0.073,81.076 L0.145,82.552 L0.241,84.007 L0.362,85.44 L0.505,86.852 L0.673,88.244 L0.863,89.613 L1.076,90.963 L1.311,92.292 L1.569,93.598 L1.848,94.885 L2.149,96.152 L2.471,97.397 L2.814,98.622 L3.179,99.828 L3.564,101.012 L3.968,102.176 L4.393,103.322 L4.837,104.445 L5.3,105.55 L5.783,106.636 L6.285,107.699 L6.804,108.745 L7.343,109.771 L7.9,110.776 L8.473,111.763 L9.065,112.731 L9.673,113.678 L10.297,114.607 L10.939,115.517 L11.597,116.407 L12.27,117.279 L12.96,118.132 L13.665,118.965 L14.383,119.78 L15.118,120.577 L15.866,121.354 L16.627,122.114 L17.404,122.856 L18.198,123.582 L19.001,124.274 L19.809,124.971 L20.644,125.632 L21.479,126.291 L22.338,126.916 L23.195,127.538 L24.074,128.127 L24.954,128.718 L25.857,129.273 L26.759,129.828 L27.682,130.348 L28.603,130.866 L29.543,131.354 L30.483,131.843 L31.442,132.297 L32.401,132.752 L33.377,133.173 L34.351,133.593 L35.34,133.983 L36.331,134.374 L37.336,134.732 L38.341,135.089 L39.361,135.416 L40.378,135.74 L41.406,136.037 L42.436,136.334 L43.478,136.6 L44.519,136.865 L45.571,137.1 L46.62,137.335 L47.679,137.542 L48.738,137.748 L49.806,137.924 L50.873,138.099 L51.947,138.246 L53.02,138.392 L54.097,138.512 L55.176,138.632 L56.259,138.724 L57.342,138.815 L58.429,138.878 L59.514,138.937 L60.6,138.97 L61.688,139.004 L62.777,139.011 L63.865,139.018 L64.953,138.998 L66.039,138.978 L67.125,138.935 L68.211,138.892 L69.295,138.827 L70.378,138.762 L71.458,138.672 L72.536,138.582 L73.611,138.469 L74.686,138.357 L75.755,138.22 L76.825,138.083 L77.887,137.923 L78.948,137.764 L80.001,137.585 L81.056,137.405 L82.101,137.202 L83.147,137 L84.182,136.775 L85.215,136.55 L86.238,136.305 L87.263,136.06 L88.274,135.795 L89.286,135.53 L90.284,135.243 L91.28,134.957 L92.263,134.652 L93.247,134.347 L94.215,134.021 L95.188,133.694 L97.084,133.005 L98.95,132.279 L100.779,131.515 L102.565,130.713 L104.311,129.879 L106.012,129.008 L107.665,128.103 L109.271,127.168 L110.827,126.198 L112.325,125.196 L113.771,124.165 L115.16,123.102 L116.485,122.009 L117.751,120.889 L118.952,119.738 L120.083,118.559 L121.148,117.355 L122.14,116.12 L123.054,114.861 L123.895,113.577 L124.655,112.265 L125.329,110.931 L125.922,109.574 L126.425,108.191 L126.829,106.806 L127.004,106.082 L127.151,105.367 L127.272,104.649 L127.37,103.927 L127.443,103.199 L127.489,102.469 L127.512,101.735 L127.507,100.996 L127.476,100.255 L127.42,99.511 L127.336,98.763 L127.228,98.031 C127.135,97.412 126.558,96.985 125.939,97.078 C125.319,97.17 124.892,97.748 124.985,98.367 L125.089,99.057 L125.165,99.724 L125.216,100.39 L125.245,101.052 L125.25,101.709 L125.231,102.365 L125.191,103.017 L125.127,103.665 L125.04,104.311 L124.933,104.954 L124.803,105.592 L124.655,106.212 L124.285,107.493 L123.833,108.74 L123.295,109.975 L122.681,111.197 L121.985,112.401 L121.209,113.59 L120.361,114.763 L119.438,115.915 L118.439,117.048 L117.375,118.162 L116.241,119.252 L115.039,120.319 L113.776,121.364 L112.452,122.381 L111.064,123.371 L109.623,124.337 L108.127,125.271 L106.576,126.176 L104.977,127.053 L103.33,127.896 L101.635,128.705 L99.899,129.483 L98.122,130.226 L96.304,130.932 L94.448,131.606 L93.509,131.921 L92.566,132.238 L91.607,132.535 L90.647,132.832 L89.672,133.112 L88.699,133.391 L87.712,133.649 L86.725,133.907 L85.724,134.144 L84.723,134.38 L83.711,134.597 L82.701,134.813 L81.68,135.008 L80.659,135.203 L79.628,135.375 L78.597,135.548 L77.558,135.7 L76.521,135.85 L75.476,135.976 L74.431,136.103 L73.381,136.205 L72.33,136.308 L71.275,136.389 L70.221,136.47 L69.164,136.526 L68.107,136.583 L67.048,136.611 L65.987,136.639 L64.926,136.644 L63.867,136.648 L62.808,136.627 L61.749,136.606 L60.692,136.559 L59.633,136.511 L58.577,136.44 L57.523,136.372 L56.472,136.278 L55.421,136.185 L54.375,136.064 L53.328,135.943 L52.286,135.797 L51.246,135.651 L50.213,135.476 L49.181,135.302 L48.157,135.1 L47.131,134.899 L46.114,134.671 L45.099,134.444 L44.094,134.187 L43.09,133.93 L42.097,133.643 L41.103,133.356 L40.12,133.041 L39.14,132.728 L38.174,132.383 L37.208,132.038 L36.257,131.662 L35.304,131.286 L34.367,130.88 L33.431,130.477 L32.513,130.04 L31.596,129.605 L30.696,129.136 L29.796,128.667 L28.913,128.167 L28.033,127.669 L27.173,127.137 L26.314,126.606 L25.477,126.041 L24.638,125.476 L23.819,124.879 L23.003,124.284 L22.211,123.655 L21.42,123.026 L20.653,122.362 L19.88,121.692 L19.135,121.008 L18.4,120.303 L17.677,119.579 L16.968,118.838 L16.273,118.081 L15.592,117.305 L14.925,116.511 L14.274,115.701 L13.637,114.87 L13.014,114.023 L12.408,113.158 L11.817,112.274 L11.242,111.371 L10.683,110.451 L10.141,109.51 L9.615,108.552 L9.107,107.574 L8.616,106.576 L8.142,105.56 L7.686,104.525 L7.249,103.469 L6.828,102.394 L6.428,101.3 L6.047,100.184 L5.684,99.049 L5.341,97.894 L5.019,96.718 L4.715,95.521 L4.433,94.305 L4.171,93.067 L3.93,91.808 L3.71,90.529 L3.512,89.228 L3.335,87.906 L3.181,86.563 L3.05,85.197 L2.94,83.811 L2.854,82.403 L2.791,80.972 L2.751,79.52 L2.736,78.046 L2.746,76.549 L2.778,75.03 L2.837,73.489 L2.92,71.925 L3.028,70.338 L3.162,68.729 L3.323,67.096 L3.508,65.441 L3.721,63.763 L3.961,62.061 L4.226,60.336 L4.519,58.588 L4.841,56.815 L5.08,55.608 L5.342,54.417 L5.627,53.24 L5.933,52.075 L6.262,50.925 L6.613,49.789 L6.984,48.665 L7.376,47.557 L7.791,46.462 L8.224,45.379 L8.678,44.312 L9.151,43.257 L9.644,42.215 L10.156,41.188 L10.688,40.174 L11.238,39.173 L11.806,38.187 L12.391,37.219 L13.009,36.258 L13.621,35.304 L14.27,34.379 L14.918,33.452 L15.601,32.555 L16.286,31.655 L17.002,30.78 L17.716,29.907 L18.463,29.062 L19.21,28.217 L19.988,27.4 L20.768,26.58 L21.575,25.786 L22.381,24.994 L23.216,24.23 L24.052,23.465 L24.915,22.728 L25.78,21.99 L26.67,21.278 L27.557,20.566 L28.471,19.883 L29.385,19.2 L30.324,18.545 L31.264,17.888 L32.226,17.258 L33.186,16.628 L34.168,16.027 L35.15,15.425 L36.154,14.852 L37.159,14.278 L38.183,13.729 L39.204,13.182 L40.245,12.663 L41.285,12.144 L42.343,11.653 L43.403,11.161 L44.478,10.696 L45.551,10.231 L46.639,9.795 L47.727,9.358 L48.829,8.951 L49.933,8.543 L51.048,8.16 L52.162,7.779 L53.287,7.426 L54.412,7.073 L55.548,6.749 L56.685,6.424 L57.83,6.126 L58.974,5.828 L60.126,5.559 L61.277,5.291 L62.436,5.051 L63.596,4.811 L64.761,4.598 L65.924,4.385 L67.091,4.2 L68.258,4.016 L69.429,3.861 L70.601,3.706 L71.774,3.577 L72.946,3.448 L74.118,3.348 L75.29,3.249 L76.462,3.178 L77.635,3.107 L78.806,3.063 L79.975,3.019 L81.141,3.004 L82.308,2.989 L83.47,3.003 L84.633,3.017 L85.791,3.057 L86.948,3.098 L88.097,3.168 L89.247,3.237 L90.388,3.336 L91.531,3.435 L92.666,3.56 L93.798,3.685 L94.921,3.839 L96.043,3.994 L97.153,4.177 L98.265,4.361 L99.365,4.571 L100.463,4.781 L101.547,5.02 L102.63,5.258 L103.699,5.526 L104.769,5.795 L105.824,6.09 L106.876,6.384 L107.911,6.707 L108.946,7.03 L109.962,7.382 L110.979,7.735 L111.979,8.114 L112.975,8.493 L113.951,8.9 L114.926,9.307 L115.879,9.743 L116.833,10.179 L117.766,10.642 L118.697,11.103 L119.603,11.594 L120.509,12.084 L121.388,12.603 L122.27,13.123 L123.126,13.669 L123.981,14.214 L124.806,14.787 L125.632,15.36 L126.428,15.962 L127.227,16.566 L127.997,17.195 L128.765,17.822 L129.501,18.479 L130.237,19.134 L130.94,19.819 L131.651,20.511 L132.327,21.211 L132.989,21.929 L133.636,22.662 L134.265,23.409 L134.877,24.168 L135.47,24.943 L136.047,25.731 L136.604,26.532 L137.142,27.349 L137.663,28.179 L138.164,29.022 L138.645,29.881 L139.108,30.754 L139.55,31.639 L139.972,32.54 L140.375,33.455 L140.756,34.383 L141.116,35.328 L141.454,36.287 L141.766,37.26 L142.056,38.249 L142.325,39.252 L142.57,40.268 L142.792,41.301 L142.993,42.347 L143.17,43.407 L143.322,44.483 L143.452,45.573 L143.557,46.677 L143.637,47.797 L143.694,48.932 L143.724,50.08 L143.729,51.245 L143.709,52.425 L143.662,53.618 L143.59,54.828 L143.494,56.052 L143.37,57.291 L143.219,58.547 L143.041,59.817 L142.835,61.102 L142.599,62.404 L142.337,63.72 L142.046,65.051 L141.725,66.399 L141.376,67.761 L140.996,69.139 L140.586,70.533 L140.146,71.942 L139.676,73.366 L139.174,74.807 L138.643,76.263 L138.079,77.733 L137.48,79.227 L137.001,80.394 L136.52,81.565 L136.028,82.754 L135.537,83.94 L135.032,85.139 L134.527,86.335 L134.008,87.539 L133.49,88.74 L132.955,89.943 L132.421,91.143 L131.867,92.341 L131.314,93.538 L130.741,94.728 L130.171,95.914 L129.576,97.087 L128.984,98.258 L128.366,99.41 L127.746,100.568 L127.115,101.699 L126.468,102.82 L125.807,103.926 L125.134,105.018 L124.447,106.09 L123.744,107.145 L123.028,108.181 L122.297,109.194 L121.55,110.185 L120.787,111.155 L120.01,112.098 L119.214,113.016 L118.403,113.908 L117.575,114.771 L116.728,115.605 L115.865,116.41 L114.984,117.182 L114.083,117.923 L113.164,118.632 L112.227,119.305 L111.267,119.943 L110.289,120.547 L109.292,121.111 L108.269,121.638 L107.226,122.128 L106.163,122.576 L105.072,122.984 L103.958,123.352 L102.822,123.675 L101.62,123.962 C100.625,124.201 100.012,125.202 100.251,126.197 C100.49,127.192 101.491,127.805 102.486,127.566 Z" id="Fill-598"></path>
        </g>
    </g>
</svg>
