<?xml version="1.0" encoding="UTF-8"?>
<svg width="278px" height="110px" viewBox="0 0 278 110" version="1.1" xmlns="http://www.w3.org/2000/svg" xmlns:xlink="http://www.w3.org/1999/xlink">
    <title>61</title>
    <g id="Page-1" stroke="none" stroke-width="1" fill="none" fill-rule="evenodd">
        <g id="61" transform="translate(0.032566, 0.485000)" fill="currentColor">
            <path d="M170.501234,107.868 C162.738834,107.006 157.458934,85.242 165.231634,79.412 C178.390534,69.543 298.904134,81.82 271.678134,35.147 C241.318334,-16.898 35.565114,-6.819 3.453997,49.375 C-2.59798,59.966 2.708425,72.998 14.520224,75.723 C58.375874,85.844 113.605234,80.528 158.381134,90.478" id="Fill-36"></path>
            <path d="M170.752334,106.339 L170.355134,106.276 L170.040934,106.188 L169.712234,106.057 L169.375334,105.888 L169.036634,105.678 L168.687734,105.421 L168.335234,105.123 L167.985234,104.785 L167.633834,104.403 L167.285234,103.983 L166.944234,103.527 L166.608734,103.033 L166.280834,102.507 L165.964634,101.953 L165.658534,101.366 L165.363734,100.754 L165.083434,100.12 L164.816834,99.462 L164.564134,98.784 L164.328434,98.091 L164.109034,97.381 L163.905834,96.658 L163.721534,95.927 L163.559834,95.203 L163.279334,93.685 L163.086934,92.181 L162.981834,90.664 L162.962134,89.947 L162.964834,89.22 L162.991434,88.504 L163.040034,87.801 L163.112834,87.117 L163.210634,86.45 L163.330734,85.803 L163.474834,85.183 L163.644334,84.586 L163.835634,84.016 L164.049334,83.48 L164.288034,82.972 L164.546934,82.496 L164.825534,82.059 L165.128834,81.653 L165.451234,81.281 L165.791334,80.95 L166.159534,80.649 L166.485534,80.428 L166.893834,80.2 L167.390934,79.966 L167.961934,79.734 L168.606134,79.507 L169.325534,79.286 L170.108234,79.072 L170.955034,78.866 L171.866634,78.667 L172.833534,78.476 L173.857334,78.293 L174.937834,78.118 L176.067134,77.949 L177.246834,77.788 L178.476534,77.632 L179.749134,77.483 L181.066434,77.338 L182.427334,77.199 L183.825734,77.063 L185.263234,76.93 L186.738434,76.801 L188.246034,76.675 L189.787234,76.551 L191.360434,76.428 L192.960934,76.307 L194.589734,76.186 L196.244734,76.065 L197.922234,75.944 L199.622434,75.821 L201.343834,75.697 L203.089734,75.57 L204.836934,75.442 L206.614234,75.309 L208.392934,75.175 L210.193934,75.031 L211.995734,74.888 L213.811734,74.734 L215.629234,74.581 L217.455534,74.414 L219.283134,74.247 L221.111734,74.063 L222.940634,73.879 L224.764434,73.678 L226.590034,73.477 L228.403034,73.256 L230.217534,73.035 L232.011734,72.791 L233.806134,72.546 L235.575534,72.277 L237.347434,72.008 L239.085534,71.711 L240.825234,71.414 L242.523434,71.088 L244.217734,70.762 L245.888634,70.413 L247.530834,70.044 L249.145234,69.658 L250.733834,69.255 L252.293134,68.834 L253.819434,68.394 L255.315234,67.936 L256.776934,67.457 L258.200234,66.957 L259.590034,66.441 L260.941234,65.903 L262.248934,65.341 L263.517234,64.757 L264.742034,64.146 L265.917934,63.51 L267.049634,62.849 L268.132934,62.159 L269.161634,61.44 L270.141334,60.694 L271.068534,59.916 L271.934834,59.107 L272.745634,58.267 L273.495434,57.388 L274.176434,56.477 L274.794234,55.532 L275.342034,54.547 L275.812134,53.53 L276.210734,52.479 L276.529734,51.389 L276.763934,50.269 L276.919934,49.12 L276.989234,47.934 L276.970034,46.722 L276.869234,45.483 L276.677834,44.21 L276.400334,42.93 L276.223934,42.252 L276.028234,41.583 L275.809834,40.909 L275.570334,40.227 L275.306834,39.536 L275.020334,38.838 L274.712334,38.133 L274.379834,37.419 L274.024034,36.697 L273.645934,35.968 L273.242834,35.23 L272.813334,34.48 L272.306534,33.641 L271.766634,32.808 L271.198334,31.989 L270.603834,31.181 L269.979834,30.383 L269.328834,29.599 L268.652634,28.825 L267.948034,28.062 L267.217634,27.312 L266.463134,26.572 L265.681434,25.843 L264.874834,25.126 L264.045134,24.42 L263.189334,23.724 L262.309634,23.04 L261.407734,22.367 L260.480734,21.704 L259.530834,21.053 L258.559634,20.412 L257.564234,19.781 L256.546834,19.162 L255.509034,18.553 L254.447634,17.954 L253.365134,17.367 L252.262934,16.79 L251.138634,16.222 L249.994034,15.666 L248.830534,15.12 L247.645734,14.583 L246.438134,14.056 L245.211034,13.547 L243.979434,13.035 L242.708634,12.544 L241.438334,12.054 L240.130234,11.584 L238.823834,11.115 L237.484034,10.663 L236.143534,10.212 L234.767434,9.781 L233.391934,9.35 L231.982134,8.94 L230.573734,8.529 L229.135334,8.137 L227.696234,7.745 L226.225234,7.372 L224.754634,7 L223.253434,6.648 L221.753534,6.295 L220.226834,5.961 L218.699434,5.627 L217.143834,5.312 L215.588534,4.997 L214.006334,4.702 L212.425134,4.408 L210.820534,4.13 L209.215234,3.853 L207.585434,3.596 L205.955834,3.338 L204.302934,3.1 L202.650934,2.862 L200.978834,2.641 L199.306234,2.42 L197.612534,2.219 L195.919134,2.018 L194.205934,1.835 L192.493734,1.653 L190.764634,1.488 L189.035034,1.322 L187.288134,1.176 L185.541334,1.03 L183.778434,0.903 L182.016334,0.775 L180.240734,0.665 L178.464634,0.555 L176.674834,0.464 L174.885134,0.373 L173.083034,0.3 L171.281534,0.228 L169.469934,0.172 L167.657834,0.117 L165.835634,0.079 L164.013534,0.042 L162.182734,0.023 L160.352534,0.004 L158.515334,0.002 L156.677734,0 L154.833734,0.017 L152.989734,0.033 L151.140634,0.068 L149.292134,0.102 L147.440034,0.154 L145.587434,0.205 L143.732134,0.275 L141.876734,0.344 L140.019934,0.432 L138.163734,0.519 L136.307134,0.623 L134.450134,0.727 L132.593934,0.849 L130.737734,0.971 L128.883734,1.111 L127.030334,1.251 L125.179934,1.407 L123.328934,1.564 L121.482534,1.738 L119.636134,1.913 L117.795534,2.106 L115.955434,2.298 L114.121834,2.507 L112.287534,2.716 L110.461534,2.943 L108.635434,3.169 L106.818834,3.414 L105.002734,3.659 L103.196434,3.919 L101.389434,4.18 L99.594334,4.459 L97.799134,4.738 L96.017134,5.034 L94.235634,5.33 L92.467184,5.642 L90.698234,5.955 L88.944784,6.286 L87.191254,6.616 L85.454544,6.965 L83.718354,7.313 L81.998524,7.676 L80.278014,8.04 L78.576834,8.423 L76.875624,8.805 L75.194894,9.205 L73.514714,9.604 L71.854204,10.02 L70.192964,10.435 L68.554534,10.868 L66.916024,11.301 L65.301704,11.751 L63.687954,12.201 L62.097204,12.666 L60.505654,13.132 L58.940544,13.615 L57.375304,14.098 L55.837834,14.597 L54.301204,15.098 L52.791054,15.614 L51.280024,16.131 L49.799114,16.664 L48.318034,17.197 L46.868384,17.748 L45.419384,18.298 L44.000024,18.863 L42.579694,19.428 L41.193104,20.011 L39.806324,20.593 L38.454624,21.192 L37.103604,21.791 L35.785544,22.405 L34.466394,23.02 L33.184634,23.651 L31.902644,24.283 L30.659344,24.93 L29.416794,25.578 L28.210514,26.241 L27.003014,26.904 L25.836544,27.584 L24.669814,28.264 L23.545444,28.961 L22.421904,29.657 L21.337964,30.368 L20.252554,31.08 L19.211544,31.808 L18.170214,32.537 L17.174924,33.282 L16.183584,34.024 L15.217644,34.782 L14.277834,35.547 L13.362754,36.32 L12.469854,37.101 L11.601044,37.891 L10.757924,38.689 L9.937404,39.494 L9.141694,40.308 L8.372664,41.13 L7.627574,41.96 L6.908484,42.799 L6.217084,43.647 L5.550554,44.502 L4.911064,45.366 L4.300294,46.238 L3.715376,47.118 L3.158573,48.008 L2.631513,48.905 L2.250998,49.601 L1.901016,50.306 L1.582941,51.014 L1.293076,51.727 L1.033338,52.446 L0.804611,53.166 L0.603427,53.889 L0.431802,54.616 L0.290231,55.342 L0.175491,56.068 L0.089705,56.795 L0.032973,57.519 L4.54747351e-13,58.242 L4.54747351e-13,58.963 L0.025705,59.68 L0.076733,60.392 L0.155429,61.101 L0.261128,61.802 L0.391048,62.497 L0.547845,63.187 L0.730627,63.868 L0.937209,64.54 L1.170162,65.204 L1.428083,65.856 L1.709049,66.499 L2.015733,67.131 L2.346373,67.749 L2.699298,68.355 L3.07728,68.948 L3.4782,69.526 L3.900633,70.089 L4.347444,70.637 L4.816144,71.166 L5.305564,71.679 L5.818634,72.175 L6.352524,72.651 L6.906284,73.108 L7.482944,73.545 L8.079334,73.959 L8.694684,74.352 L9.331994,74.724 L9.987864,75.07 L10.661734,75.394 L11.356584,75.693 L12.068824,75.965 L12.798044,76.212 L13.547194,76.433 L14.311054,76.624 L15.696734,76.932 L17.081444,77.239 L18.480794,77.527 L19.880254,77.812 L21.294274,78.075 L22.707294,78.338 L24.132434,78.584 L25.557744,78.83 L26.995804,79.059 L28.433424,79.287 L29.883134,79.499 L31.332024,79.711 L32.791554,79.908 L34.251264,80.103 L35.721884,80.284 L37.192104,80.465 L38.672584,80.631 L40.152364,80.798 L41.640944,80.953 L43.129544,81.108 L44.627204,81.251 L46.124204,81.397 L47.629674,81.532 L49.134604,81.666 L50.646724,81.792 L52.158824,81.917 L53.678244,82.033 L55.197384,82.148 L56.723174,82.255 L58.248504,82.363 L59.779334,82.463 L61.310114,82.564 L62.846404,82.657 L64.382444,82.751 L65.923314,82.838 L67.464344,82.926 L69.010934,83.006 L70.555844,83.088 L72.100694,83.17 L73.647234,83.253 L75.199994,83.328 L76.751054,83.403 L78.302124,83.478 L79.853994,83.554 L81.409424,83.625 L82.964044,83.697 L84.518674,83.769 L86.071854,83.84 L87.622864,83.919 L89.175314,83.997 L90.727754,84.075 L92.280204,84.153 L93.832644,84.231 L95.385134,84.31 L96.937534,84.388 L98.489934,84.467 L100.042434,84.545 L101.594834,84.624 L103.147234,84.702 L104.699634,84.781 L106.252134,84.859 L107.804534,84.938 L109.356934,85.017 L110.898234,85.096 L112.407134,85.226 L113.927234,85.357 L115.447234,85.489 L116.967334,85.62 L118.487334,85.751 L120.007434,85.882 L121.527534,86.013 L123.047534,86.144 L124.567634,86.275 L126.087634,86.406 L127.607734,86.538 L129.127834,86.669 L130.647834,86.8 L132.167934,86.931 L133.687934,87.062 L135.183834,87.191 L136.603834,87.429 L138.049034,87.672 L139.494134,87.915 L140.939334,88.158 L142.384534,88.4 L143.829634,88.643 L145.274834,88.886 L146.719934,89.128 L148.165134,89.371 L149.610334,89.614 L151.055434,89.857 L152.500634,90.099 L153.945734,90.342 L155.390934,90.585 L156.836134,90.827 L158.281234,91.07 C158.608034,91.125 158.917634,90.905 158.972734,90.578 C159.027934,90.252 158.807734,89.942 158.480934,89.887 L157.036234,89.642 L155.591434,89.397 L154.146734,89.152 L152.701934,88.906 L151.257134,88.661 L149.812434,88.416 L148.367634,88.171 L146.922934,87.926 L145.478134,87.681 L144.033434,87.436 L142.588634,87.191 L141.143934,86.946 L139.699134,86.701 L138.254334,86.455 L136.809634,86.21 L135.339734,85.962 L133.795634,85.825 L132.275834,85.692 L130.756034,85.558 L129.236134,85.424 L127.716334,85.291 L126.196434,85.157 L124.676634,85.024 L123.156734,84.89 L121.636934,84.756 L120.117134,84.623 L118.597234,84.489 L117.077434,84.355 L115.557534,84.222 L114.037734,84.088 L112.517934,83.954 L110.986834,83.82 L109.423534,83.737 L107.871334,83.655 L106.319134,83.572 L104.766934,83.489 L103.214734,83.405 L101.662534,83.322 L100.110434,83.239 L98.558234,83.156 L97.006034,83.073 L95.453834,82.99 L93.901644,82.906 L92.349464,82.823 L90.797294,82.74 L89.245114,82.656 L87.692944,82.573 L86.139334,82.489 L84.583524,82.412 L83.029144,82.335 L81.474774,82.258 L79.921204,82.181 L78.371224,82.101 L76.820424,82.021 L75.269624,81.94 L73.720524,81.86 L72.177674,81.772 L70.633114,81.685 L69.088624,81.596 L67.545814,81.506 L66.008624,81.41 L64.471274,81.313 L62.938804,81.211 L61.406604,81.108 L59.879954,80.999 L58.353364,80.889 L56.832364,80.772 L55.311844,80.655 L53.798054,80.529 L52.284554,80.403 L50.778454,80.268 L49.272364,80.132 L47.773544,79.987 L46.275254,79.842 L44.785554,79.686 L43.296514,79.527 L41.816804,79.355 L40.337074,79.183 L38.866314,78.999 L37.396264,78.816 L35.936664,78.619 L34.477464,78.422 L33.029414,78.21 L31.581184,77.999 L30.143414,77.775 L28.706464,77.551 L27.281814,77.311 L25.857594,77.072 L24.446344,76.814 L23.034924,76.557 L21.635834,76.284 L20.237724,76.011 L18.853114,75.722 L17.468394,75.435 L16.098404,75.129 L14.729384,74.823 L14.032734,74.649 L13.356824,74.449 L12.697024,74.224 L12.053504,73.978 L11.429694,73.709 L10.822564,73.416 L10.232174,73.104 L9.661934,72.77 L9.109044,72.416 L8.573404,72.043 L8.058384,71.652 L7.561404,71.241 L7.082234,70.814 L6.624224,70.371 L6.185134,69.909 L5.764494,69.433 L5.365564,68.943 L4.986464,68.437 L4.626494,67.918 L4.288824,67.387 L3.971924,66.842 L3.674864,66.286 L3.400715,65.72 L3.148304,65.141 L2.916461,64.554 L2.708142,63.958 L2.522537,63.352 L2.358226,62.739 L2.218051,62.12 L2.101713,61.493 L2.007728,60.86 L1.938492,60.224 L1.89393,59.581 L1.872101,58.935 L1.875621,58.287 L1.904792,57.634 L1.957415,56.98 L2.035993,56.327 L2.141216,55.67 L2.270628,55.014 L2.426624,54.361 L2.610292,53.706 L2.818914,53.054 L3.054792,52.406 L3.319404,51.759 L3.609784,51.116 L3.928155,50.479 L4.276484,49.845 L4.779304,48.994 L5.310094,48.15 L5.869804,47.312 L6.455004,46.48 L7.067354,45.656 L7.707874,44.839 L8.373194,44.027 L9.064854,43.224 L9.783904,42.427 L10.527014,41.636 L11.295664,40.853 L12.091044,40.077 L12.910174,39.308 L13.753974,38.547 L14.623424,37.793 L15.515354,37.046 L16.431114,36.306 L17.368624,35.576 L18.344994,34.851 L19.317424,34.129 L20.336094,33.423 L21.355074,32.716 L22.419284,32.025 L23.484954,31.334 L24.590384,30.657 L25.694974,29.98 L26.842174,29.319 L27.989634,28.658 L29.178354,28.013 L30.368294,27.368 L31.594654,26.736 L32.820284,26.106 L34.084834,25.491 L35.349634,24.876 L36.652014,24.278 L37.955474,23.679 L39.292024,23.095 L40.627884,22.511 L41.998984,21.943 L43.370274,21.376 L44.775474,20.825 L46.181634,20.273 L47.617544,19.737 L49.052804,19.2 L50.519624,18.681 L51.986614,18.161 L53.483804,17.658 L54.981874,17.155 L56.506194,16.666 L58.029684,16.177 L59.581054,15.705 L61.132574,15.232 L62.710634,14.777 L64.289504,14.321 L65.891434,13.88 L67.492804,13.44 L69.118314,13.017 L70.743914,12.593 L72.392394,12.186 L74.041594,11.779 L75.710524,11.388 L77.378914,10.997 L79.067844,10.623 L80.756814,10.249 L82.464794,9.891 L84.173454,9.533 L85.898514,9.19 L87.623054,8.848 L89.364474,8.523 L91.105974,8.198 L92.863004,7.89 L94.620534,7.582 L96.391034,7.289 L98.161134,6.996 L99.944434,6.721 L101.727734,6.445 L103.523034,6.188 L105.318834,5.93 L107.124334,5.688 L108.929334,5.446 L110.743834,5.222 L112.558434,4.997 L114.381234,4.791 L116.204634,4.584 L118.034434,4.393 L119.863634,4.203 L121.698734,4.03 L123.533934,3.857 L125.373534,3.702 L127.213734,3.547 L129.057034,3.409 L130.899834,3.27 L132.744734,3.149 L134.589734,3.029 L136.435534,2.926 L138.281934,2.824 L140.127934,2.738 L141.973534,2.652 L143.817634,2.584 L145.661634,2.517 L147.502934,2.468 L149.344734,2.419 L151.182834,2.387 L153.020434,2.354 L154.852834,2.34 L156.685234,2.327 L158.511134,2.331 L160.337534,2.336 L162.156934,2.357 L163.975734,2.379 L165.785734,2.419 L167.595734,2.459 L169.395434,2.518 L171.195734,2.577 L172.985634,2.653 L174.774934,2.729 L176.551634,2.824 L178.328334,2.919 L180.091134,3.032 L181.854434,3.146 L183.604134,3.277 L185.353034,3.407 L187.085834,3.557 L188.818434,3.706 L190.533534,3.874 L192.249134,4.043 L193.947734,4.228 L195.645434,4.414 L197.323334,4.619 L199.001034,4.824 L200.657534,5.048 L202.314534,5.272 L203.951134,5.513 L205.586934,5.754 L207.199134,6.014 L208.811134,6.274 L210.398134,6.554 L211.985834,6.833 L213.549734,7.13 L215.112634,7.426 L216.648334,7.742 L218.183634,8.058 L219.690434,8.392 L221.197834,8.727 L222.678234,9.08 L224.157334,9.432 L225.605634,9.804 L227.053434,10.175 L228.469034,10.566 L229.885234,10.957 L231.271134,11.366 L232.655534,11.774 L234.005334,12.201 L235.354634,12.628 L236.668034,13.075 L237.982134,13.522 L239.262534,13.987 L240.541234,14.451 L241.781534,14.934 L243.021434,15.417 L244.221634,15.92 L245.426334,16.424 L246.595434,16.938 L247.746334,17.463 L248.876634,17.997 L249.987234,18.54 L251.075134,19.093 L252.141534,19.655 L253.187434,20.226 L254.209634,20.806 L255.209934,21.395 L256.188734,21.993 L257.142934,22.599 L258.073934,23.216 L258.982834,23.841 L259.866034,24.474 L260.725234,25.118 L261.561534,25.769 L262.371234,26.43 L263.156134,27.1 L263.917434,27.778 L264.651234,28.464 L265.359534,29.161 L266.043434,29.865 L266.699134,30.578 L267.328634,31.3 L267.933134,32.031 L268.508734,32.769 L269.057434,33.517 L269.580534,34.273 L270.074334,35.037 L270.542934,35.815 L270.941834,36.514 L271.317834,37.206 L271.670334,37.887 L272.001034,38.559 L272.307334,39.218 L272.590734,39.867 L272.853034,40.507 L273.091834,41.134 L273.308534,41.752 L273.505034,42.36 L273.679034,42.956 L273.827634,43.525 L274.079934,44.688 L274.244634,45.788 L274.330334,46.851 L274.346434,47.879 L274.288234,48.865 L274.157734,49.821 L273.964034,50.746 L273.702934,51.637 L273.373234,52.504 L272.983334,53.348 L272.529634,54.163 L272.008334,54.959 L271.428334,55.735 L270.786334,56.486 L270.078634,57.219 L269.314034,57.932 L268.490334,58.623 L267.603034,59.292 L266.662234,59.942 L265.666634,60.568 L264.614034,61.175 L263.512834,61.763 L262.361834,62.329 L261.159634,62.874 L259.913834,63.401 L258.623634,63.908 L257.287934,64.394 L255.912434,64.858 L254.498134,65.303 L253.044534,65.729 L251.557934,66.138 L250.037834,66.529 L248.484234,66.902 L246.902734,67.26 L245.293234,67.602 L243.660434,67.931 L241.986334,68.24 L240.316134,68.549 L238.604034,68.829 L236.890334,69.109 L235.142534,69.362 L233.392434,69.616 L231.617834,69.849 L229.843034,70.083 L228.047934,70.295 L226.251434,70.507 L224.442434,70.699 L222.631634,70.891 L220.815534,71.066 L218.999234,71.243 L217.184034,71.405 L215.367634,71.567 L213.560134,71.715 L211.751134,71.864 L209.956534,72.003 L208.161134,72.141 L206.388334,72.271 L204.614334,72.402 L202.870634,72.525 L201.125734,72.649 L199.405534,72.77 L197.704634,72.889 L196.025434,73.008 L194.367234,73.126 L192.733934,73.244 L191.127534,73.363 L189.547034,73.484 L187.996434,73.606 L186.478034,73.731 L184.990134,73.858 L183.537234,73.989 L182.121734,74.125 L180.741434,74.266 L179.400834,74.413 L178.102834,74.565 L176.844134,74.724 L175.629734,74.89 L174.462634,75.064 L173.338934,75.246 L172.263334,75.438 L171.239334,75.64 L170.262034,75.853 L169.335434,76.078 L168.463934,76.317 L167.640734,76.57 L166.868534,76.841 L166.153034,77.132 L165.485134,77.446 L164.865234,77.793 L164.303734,78.175 L163.732034,78.642 L163.201234,79.159 L162.720334,79.712 L162.280934,80.3 L161.882234,80.924 L161.528034,81.574 L161.210934,82.249 L160.930634,82.951 L160.688534,83.672 L160.478634,84.41 L160.301734,85.17 L160.157934,85.943 L160.042534,86.729 L159.957034,87.53 L159.900734,88.339 L159.870234,89.157 L159.866934,89.984 L159.891034,90.836 L160.006034,92.485 L160.220034,94.162 L160.521634,95.802 L160.708434,96.642 L160.913234,97.455 L161.138334,98.257 L161.382034,99.047 L161.646434,99.824 L161.929634,100.584 L162.230334,101.327 L162.550934,102.053 L162.889134,102.755 L163.244334,103.436 L163.619334,104.094 L164.011434,104.723 L164.420734,105.326 L164.851134,105.901 L165.298934,106.44 L165.765734,106.948 L166.256834,107.422 L166.767034,107.853 L167.299334,108.245 L167.861034,108.592 L168.442634,108.884 L169.047834,109.124 L169.683234,109.302 L170.250134,109.398 C171.094934,109.536 171.892134,108.964 172.030834,108.119 C172.169434,107.275 171.597134,106.477 170.752334,106.339 Z" id="Fill-37"></path>
        </g>
    </g>
</svg>
