<?xml version="1.0" encoding="UTF-8"?>
<svg width="110px" height="93px" viewBox="0 0 110 93" version="1.1" xmlns="http://www.w3.org/2000/svg" xmlns:xlink="http://www.w3.org/1999/xlink">
    <title>62</title>
    <g id="Page-1" stroke="none" stroke-width="1" fill="none" fill-rule="evenodd">
        <g id="62" transform="translate(0.179900, 0.526000)" fill="currentColor">
            <path d="M16.4441,21.59 C-23.9823,34.029 22.9879,137.302 95.4886,64.801 C104.5206,55.769 110.19,45.994 107.6087,32.657 C93.2693,-41.43 -49.2811,33.136 36.4687,67.436" id="Fill-34"></path>
            <path d="M15.9497,20.121 L14.6707,20.553 L13.4068,21.063 L12.2049,21.634 L11.0564,22.261 L9.963,22.949 L8.9326,23.692 L7.9566,24.484 L7.0372,25.331 L6.1808,26.225 L5.3791,27.161 L4.6344,28.144 L3.9515,29.166 L3.3225,30.224 L2.7498,31.322 L2.2366,32.45 L1.7754,33.608 L1.3692,34.799 L1.0196,36.014 L0.7198,37.253 L0.4734,38.518 L0.2806,39.802 L0.1357,41.104 L0.0423,42.427 L0,43.763 L0.0048,45.112 L0.0601,46.476 L0.1645,47.848 L0.3131,49.229 L0.5101,50.619 L0.7543,52.012 L1.0413,53.408 L1.3753,54.808 L1.7547,56.207 L2.1756,57.603 L2.6421,58.999 L3.153,60.387 L3.7041,61.768 L4.2998,63.143 L4.9378,64.505 L5.6148,65.855 L6.3368,67.193 L7.1001,68.512 L7.9012,69.815 L8.7446,71.1 L9.6275,72.361 L10.5501,73.599 L11.5141,74.812 L12.5161,75.997 L13.5536,77.155 L14.6315,78.283 L15.7505,79.371 L16.9036,80.428 L18.0954,81.448 L19.3221,82.428 L20.5804,83.373 L21.8725,84.281 L23.1984,85.143 L24.5565,85.963 L25.9513,86.735 L27.3769,87.459 L28.8319,88.139 L30.323,88.765 L31.8449,89.334 L33.3966,89.85 L34.9828,90.306 L36.5981,90.7 L38.2415,91.035 L39.9177,91.304 L41.6211,91.505 L43.3508,91.641 L45.1113,91.706 L46.8969,91.696 L48.7069,91.619 L50.5457,91.463 L52.4077,91.229 L54.2925,90.922 L56.2041,90.531 L58.1368,90.055 L60.0827,89.503 L61.0797,89.179 L62.0689,88.858 L63.0693,88.492 L64.0673,88.126 L65.0753,87.719 L66.0851,87.311 L67.1056,86.856 L68.1258,86.402 L69.1566,85.9 L70.1812,85.401 L71.2221,84.865 L72.2646,84.307 L73.3113,83.724 L74.3624,83.118 L75.4192,82.488 L76.48,81.833 L77.5451,81.154 L78.6156,80.45 L79.69,79.72 L80.7687,78.966 L81.8526,78.186 L82.9403,77.38 L84.0321,76.549 L85.1289,75.692 L86.2295,74.807 L87.334,73.898 L88.4433,72.96 L89.5569,71.996 L90.6743,71.006 L91.7964,69.988 L92.9222,68.941 L94.0516,67.869 L95.1856,66.767 L96.3249,65.634 L97.4496,64.484 L98.5395,63.321 L99.5896,62.146 L100.6023,60.958 L101.5721,59.754 L102.4947,58.534 L103.373,57.297 L104.2015,56.039 L104.9756,54.762 L105.6986,53.464 L106.3642,52.141 L106.9676,50.795 L107.5133,49.425 L107.9942,48.026 L108.4052,46.601 L108.7513,45.15 L109.0241,43.667 L109.2201,42.156 L109.3444,40.618 L109.3882,39.044 L109.349,37.442 L109.2326,35.809 L109.0289,34.14 L108.7385,32.448 L108.4975,31.268 L108.2361,30.122 L107.9535,29.001 L107.6516,27.901 L107.3281,26.825 L106.9843,25.774 L106.6219,24.744 L106.2389,23.737 L105.8367,22.754 L105.4167,21.793 L104.9768,20.854 L104.518,19.939 L104.0421,19.046 L103.5474,18.174 L103.0355,17.327 L102.5075,16.5 L101.9615,15.695 L101.3994,14.913 L100.8219,14.153 L100.2267,13.413 L99.6166,12.697 L98.9923,12.002 L98.352,11.327 L97.6978,10.675 L97.0305,10.043 L96.3481,9.431 L95.653,8.842 L94.9455,8.273 L94.224,7.724 L93.4801,7.189 L91.9921,6.199 L90.4446,5.282 L88.8557,4.448 L87.2295,3.687 L85.5636,3.003 L83.8651,2.396 L82.1375,1.858 L80.3782,1.392 L78.594,0.998 L76.7877,0.669 L74.9576,0.407 L73.1098,0.213 L71.2467,0.078 L69.3673,0.008 L67.4775,0 L65.5788,0.045 L63.6713,0.151 L61.7603,0.315 L59.8469,0.53 L57.9317,0.799 L56.0199,1.121 L54.1123,1.492 L52.2105,1.914 L50.3192,2.386 L48.4387,2.902 L46.5713,3.466 L44.7213,4.074 L42.8882,4.722 L41.0755,5.414 L39.2878,6.148 L37.5242,6.919 L35.7883,7.73 L34.0847,8.579 L32.4117,9.462 L30.7797,10.391 L29.1884,11.355 L27.6349,12.349 L26.1243,13.374 L24.6634,14.432 L23.2474,15.517 L21.8819,16.629 L20.5714,17.767 L19.3088,18.924 L18.1024,20.104 L16.9582,21.306 L15.872,22.528 L14.8507,23.771 L13.8983,25.031 L13.0108,26.308 L12.1963,27.603 L11.4594,28.912 L10.7937,30.234 L10.2072,31.571 L9.7064,32.917 L9.2853,34.274 L8.9541,35.642 L8.717,37.016 L8.5675,38.396 L8.5169,39.783 L8.5676,41.158 L8.6295,41.863 L8.7174,42.558 L8.8318,43.252 L8.9709,43.944 L9.1374,44.637 L9.3312,45.328 L9.5504,46.018 L9.7981,46.707 L10.0738,47.393 L10.3756,48.078 L10.7067,48.761 L11.0665,49.44 L11.4531,50.118 L11.8698,50.793 L12.3157,51.464 L12.7884,52.133 L13.2921,52.8 L13.8259,53.462 L14.3878,54.121 L14.9815,54.777 L15.606,55.428 L16.2594,56.076 L16.9453,56.72 L17.663,57.359 L18.4102,57.994 L19.1909,58.624 L20.0041,59.25 L20.8477,59.871 L21.7256,60.488 L22.6371,61.099 L23.5796,61.705 L24.5573,62.306 L25.5696,62.901 L26.6138,63.491 L27.6941,64.075 L28.8098,64.653 L29.9583,65.226 L31.1439,65.792 L32.3658,66.352 L33.6215,66.906 L34.915,67.453 L36.2423,67.992 C36.5491,68.117 36.8993,67.97 37.0243,67.663 C37.1494,67.356 37.002,67.006 36.6952,66.881 L35.3775,66.341 L34.1021,65.798 L32.8643,65.247 L31.6606,64.692 L30.4948,64.131 L29.3655,63.564 L28.2696,62.992 L27.2105,62.415 L26.1871,61.833 L25.1962,61.246 L24.2412,60.656 L23.3209,60.06 L22.4323,59.461 L21.5786,58.857 L20.7587,58.25 L19.9695,57.639 L19.2144,57.026 L18.4919,56.408 L17.7993,55.788 L17.1398,55.165 L16.5119,54.539 L15.9129,53.911 L15.346,53.281 L14.8097,52.649 L14.3012,52.014 L13.8238,51.379 L13.3758,50.741 L12.9554,50.101 L12.565,49.461 L12.2029,48.819 L11.8668,48.176 L11.5594,47.533 L11.2792,46.889 L11.024,46.244 L10.7962,45.6 L10.5946,44.954 L10.417,44.308 L10.2658,43.663 L10.14,43.016 L10.0371,42.37 L9.9593,41.725 L9.9068,41.09 L9.8655,39.786 L9.9201,38.498 L10.0674,37.21 L10.2968,35.925 L10.6145,34.645 L11.0188,33.369 L11.4997,32.099 L12.0621,30.838 L12.707,29.585 L13.4234,28.342 L14.2144,27.113 L15.0792,25.897 L16.0082,24.694 L17.0055,23.509 L18.0696,22.342 L19.1913,21.192 L20.3731,20.064 L21.6155,18.959 L22.9118,17.88 L24.2605,16.827 L25.6606,15.8 L27.1041,14.798 L28.5902,13.824 L30.1203,12.879 L31.6874,11.964 L33.2911,11.082 L34.9258,10.223 L36.591,9.397 L38.2863,8.609 L40.0109,7.858 L41.7589,7.144 L43.5293,6.47 L45.3216,5.84 L47.1306,5.249 L48.9549,4.706 L50.7931,4.209 L52.6408,3.755 L54.4955,3.351 L56.3566,2.998 L58.2202,2.691 L60.0829,2.437 L61.9447,2.24 L63.8019,2.093 L65.6502,2.003 L67.4896,1.972 L69.3173,1.995 L71.1282,2.079 L72.9226,2.225 L74.6982,2.428 L76.4491,2.694 L78.1761,3.026 L79.8775,3.417 L81.5467,3.876 L83.1848,4.403 L84.7907,4.992 L86.357,5.652 L87.8855,6.384 L89.3763,7.181 L90.8213,8.049 L92.2331,9.002 L92.9062,9.493 L93.5768,10.01 L94.2359,10.548 L94.8835,11.103 L95.5168,11.677 L96.1379,12.272 L96.7466,12.885 L97.3404,13.518 L97.9209,14.172 L98.4883,14.845 L99.0402,15.539 L99.5785,16.254 L100.1032,16.988 L100.6117,17.744 L101.1051,18.522 L101.5839,19.32 L102.0456,20.14 L102.4913,20.983 L102.9216,21.847 L103.3348,22.733 L103.7309,23.643 L104.1108,24.575 L104.472,25.529 L104.815,26.508 L105.1409,27.509 L105.4472,28.534 L105.7345,29.584 L106.0037,30.656 L106.2524,31.752 L106.479,32.865 L106.7539,34.474 L106.9425,36.03 L107.05,37.552 L107.0855,39.04 L107.0441,40.492 L106.9281,41.915 L106.7463,43.31 L106.4946,44.673 L106.174,46.013 L105.7932,47.33 L105.3485,48.621 L104.8397,49.892 L104.2751,51.145 L103.6521,52.377 L102.9709,53.594 L102.239,54.796 L101.4544,55.981 L100.6168,57.154 L99.7338,58.315 L98.8039,59.463 L97.8272,60.602 L96.8103,61.733 L95.7521,62.853 L94.6522,63.969 L93.5298,65.075 L92.4107,66.153 L91.2959,67.203 L90.1854,68.227 L89.0804,69.221 L87.9797,70.187 L86.8836,71.128 L85.7926,72.04 L84.7061,72.924 L83.6245,73.784 L82.5487,74.616 L81.4777,75.421 L80.4115,76.202 L79.3515,76.957 L78.2964,77.685 L77.2463,78.39 L76.2025,79.068 L75.1639,79.722 L74.1303,80.353 L73.1035,80.958 L72.0817,81.539 L71.0653,82.097 L70.0558,82.631 L69.0556,83.14 L68.0544,83.62 L67.0594,84.098 L66.0766,84.529 L65.0941,84.96 L64.124,85.346 L63.1523,85.732 L62.192,86.078 L61.234,86.424 L60.2889,86.726 L59.3517,87.026 L57.4781,87.549 L55.6366,87.994 L53.8246,88.359 L52.0375,88.646 L50.2753,88.863 L48.5432,89.005 L46.8365,89.074 L45.1554,89.078 L43.5052,89.014 L41.8809,88.882 L40.2827,88.691 L38.7158,88.438 L37.1756,88.122 L35.662,87.752 L34.1803,87.324 L32.7262,86.84 L31.2995,86.305 L29.9054,85.719 L28.5401,85.08 L27.2047,84.393 L25.9048,83.657 L24.6354,82.874 L23.3957,82.051 L22.191,81.187 L21.0224,80.276 L19.8863,79.328 L18.7867,78.345 L17.7209,77.327 L16.6875,76.278 L15.6871,75.204 L14.7213,74.1 L13.789,72.97 L12.8951,71.816 L12.0375,70.637 L11.2116,69.439 L10.4253,68.223 L9.677,66.986 L8.9644,65.735 L8.2925,64.471 L7.6583,63.192 L7.0611,61.904 L6.506,60.609 L5.9918,59.304 L5.5157,57.995 L5.0822,56.685 L4.691,55.371 L4.3391,54.058 L4.0315,52.749 L3.7674,51.443 L3.5435,50.142 L3.3647,48.853 L3.2307,47.571 L3.1379,46.301 L3.0909,45.047 L3.089,43.808 L3.128,42.584 L3.2132,41.384 L3.3452,40.203 L3.5196,39.043 L3.7403,37.912 L4.0086,36.806 L4.3196,35.726 L4.6766,34.68 L5.0821,33.664 L5.5305,32.678 L6.0248,31.731 L6.5687,30.818 L7.156,29.939 L7.7894,29.103 L8.4745,28.304 L9.2044,27.543 L9.9817,26.827 L10.8139,26.152 L11.6936,25.519 L12.6233,24.934 L13.6117,24.395 L14.6511,23.901 L15.7441,23.461 L16.9385,23.06 C17.7498,22.786 18.1862,21.907 17.9132,21.096 C17.6401,20.285 16.7611,19.848 15.9497,20.121 Z" id="Fill-35"></path>
        </g>
    </g>
</svg>
