<?xml version="1.0" encoding="UTF-8"?>
<svg width="267px" height="95px" viewBox="0 0 267 95" version="1.1" xmlns="http://www.w3.org/2000/svg" xmlns:xlink="http://www.w3.org/1999/xlink">
    <title>64</title>
    <g id="Page-1" stroke="none" stroke-width="1" fill="none" fill-rule="evenodd">
        <g id="64" transform="translate(0.229500, 0.689000)" fill="currentColor">
            <path d="M31.6137,30.623 C38.7786,24.254 0.2673,35.733 1.5768,52.755 C2.6919,67.251 34.1179,76.275 43.7338,79.104 C71.4654,87.26 270.7426,117.918 264.5313,49.594 C258.241,-19.6 -41.5449,-13.59 8.9543,58.552" id="Fill-26"></path>
            <path d="M32.6641,31.763 L32.8984,31.546 L33.133,31.309 L33.344,31.071 L33.5376,30.822 L33.7156,30.548 L33.8675,30.245 L33.9886,29.891 L34.0522,29.456 L34.0128,28.979 L33.8467,28.501 L33.5595,28.082 L33.2321,27.79 L32.9036,27.593 L32.5812,27.464 L32.2825,27.384 L31.9939,27.333 L31.7031,27.304 L31.3811,27.292 L30.8204,27.307 L30.18,27.37 L29.4949,27.474 L28.7638,27.614 L27.9789,27.794 L27.1473,28.012 L26.2738,28.263 L25.3556,28.552 L24.4002,28.877 L23.4132,29.234 L22.3939,29.627 L21.3499,30.054 L20.286,30.512 L19.2033,31.003 L18.1092,31.527 L17.0074,32.081 L15.9004,32.667 L14.7958,33.283 L13.6961,33.928 L12.6047,34.604 L11.5297,35.309 L10.472,36.041 L9.4363,36.804 L8.4311,37.595 L7.456,38.413 L6.5165,39.261 L5.622,40.136 L4.7705,41.038 L3.9692,41.972 L3.2281,42.933 L2.5444,43.922 L1.9271,44.945 L1.3876,45.995 L0.9224,47.073 L0.5436,48.186 L0.2693,49.291 L0.157,49.899 L0.0775,50.486 L0.0258,51.075 L0,51.669 L0.0032,52.271 L0.0383,52.901 L0.158,53.904 L0.3703,54.919 L0.6654,55.906 L1.0332,56.871 L1.4776,57.814 L1.9894,58.728 L2.5605,59.619 L3.1952,60.489 L3.8848,61.332 L4.6234,62.154 L5.4145,62.956 L6.2504,63.735 L7.1262,64.496 L8.045,65.238 L9.0002,65.96 L9.9873,66.664 L11.0086,67.351 L12.058,68.02 L13.1318,68.672 L14.2312,69.308 L15.3507,69.926 L16.4869,70.528 L17.64,71.114 L18.8094,71.685 L19.9822,72.229 L21.1594,72.774 L22.3484,73.288 L23.5349,73.801 L24.7206,74.282 L25.903,74.761 L27.0747,75.211 L28.2458,75.661 L29.3939,76.079 L30.5399,76.496 L31.6504,76.881 L32.7562,77.264 L33.8358,77.627 L34.8863,77.972 L35.9063,78.302 L36.8963,78.616 L37.8507,78.913 L38.766,79.194 L39.6433,79.459 L40.4762,79.708 L41.2609,79.94 L41.9993,80.157 L42.6839,80.357 L43.3142,80.541 L43.7709,80.672 L44.2581,80.807 L44.7718,80.945 L45.3097,81.086 L45.8748,81.23 L46.4659,81.377 L47.0808,81.527 L47.7221,81.679 L48.3887,81.835 L49.0784,81.992 L49.7935,82.152 L50.5332,82.315 L51.2952,82.48 L52.082,82.645 L52.8925,82.813 L53.7245,82.983 L54.5801,83.155 L55.4604,83.329 L57.2769,83.681 L59.1829,84.039 L60.1807,84.221 L61.1768,84.403 L62.2107,84.586 L63.245,84.77 L64.3198,84.955 L65.3949,85.138 L66.5089,85.323 L67.6227,85.507 L68.7708,85.692 L69.9191,85.877 L71.1039,86.063 L72.2887,86.249 L73.5086,86.434 L74.7282,86.62 L75.9785,86.806 L77.2289,86.992 L78.5113,87.181 L79.7939,87.37 L81.1075,87.558 L82.4209,87.746 L83.7614,87.932 L85.1022,88.119 L86.4716,88.303 L87.841,88.488 L89.2376,88.67 L90.6337,88.855 L92.0532,89.038 L93.473,89.222 L94.9174,89.402 L96.3619,89.582 L97.8296,89.759 L99.2971,89.936 L100.7845,90.109 L102.2724,90.283 L103.7808,90.451 L105.2895,90.62 L106.8173,90.784 L108.345,90.948 L109.889,91.108 L111.4334,91.267 L112.9945,91.421 L114.5557,91.574 L116.1323,91.722 L117.7087,91.869 L119.2978,92.01 L120.8874,92.151 L122.4897,92.285 L124.0922,92.419 L125.706,92.546 L127.3196,92.673 L128.9423,92.792 L130.5655,92.912 L132.1976,93.024 L133.8297,93.135 L135.4693,93.238 L137.1086,93.341 L138.7535,93.436 L140.3989,93.531 L142.0492,93.616 L143.6996,93.7 L145.3535,93.774 L147.0091,93.849 L148.6671,93.909 L150.3195,93.969 L151.9719,94.029 L153.633,94.09 L155.2934,94.127 L156.9452,94.165 L158.597,94.202 L160.258,94.24 L161.9127,94.253 L163.5581,94.267 L165.2035,94.28 L166.8556,94.294 L168.5004,94.29 L170.1436,94.286 L171.7799,94.268 L173.4164,94.251 L175.0445,94.22 L176.6723,94.189 L178.2913,94.145 L179.9109,94.102 L181.5197,94.043 L183.1287,93.985 L184.7254,93.911 L186.3217,93.838 L187.9056,93.751 L189.4903,93.663 L191.0602,93.56 L192.6304,93.457 L194.1842,93.337 L195.7377,93.217 L197.2752,93.083 L198.8137,92.948 L200.3333,92.796 L201.8533,92.644 L203.353,92.474 L204.8523,92.304 L206.3321,92.118 L207.8129,91.933 L209.2711,91.729 L210.7297,91.524 L212.1641,91.301 L213.598,91.078 L215.0089,90.838 L216.421,90.597 L217.8064,90.337 L219.1923,90.076 L220.5502,89.795 L221.9075,89.514 L223.2381,89.215 L224.5702,88.915 L225.8718,88.594 L227.1739,88.273 L228.444,87.931 L229.7135,87.588 L230.9528,87.225 L232.1937,86.862 L233.4004,86.477 L234.6077,86.091 L235.7792,85.683 L236.9499,85.275 L238.0868,84.845 L239.2258,84.415 L240.3265,83.96 L241.4278,83.505 L242.4894,83.026 L243.5458,82.549 L244.5836,82.05 L245.5978,81.54 L246.5903,81.018 L247.5635,80.484 L248.5162,79.936 L249.446,79.374 L250.3557,78.801 L251.2439,78.213 L252.1081,77.611 L252.9513,76.997 L253.7718,76.368 L254.5673,75.725 L255.3407,75.069 L256.0904,74.397 L256.8141,73.711 L257.5146,73.012 L258.1901,72.297 L258.8382,71.567 L259.4619,70.823 L260.0594,70.063 L260.6281,69.288 L261.1713,68.498 L261.6868,67.692 L262.1723,66.871 L262.631,66.036 L263.0607,65.184 L263.4592,64.317 L263.8297,63.436 L264.1697,62.537 L264.4775,61.624 L264.7562,60.697 L265.0032,59.753 L265.217,58.794 L265.4007,57.822 L265.5515,56.832 L265.6684,55.828 L265.7544,54.81 L265.8064,53.775 L265.8239,52.726 L265.8098,51.663 L265.7607,50.583 L265.6761,49.485 L265.5499,48.364 L265.3719,47.248 L265.144,46.149 L264.8708,45.062 L264.5478,43.986 L264.1774,42.926 L263.7637,41.88 L263.3023,40.846 L262.7958,39.828 L262.2482,38.824 L261.655,37.832 L261.0191,36.857 L260.3442,35.895 L259.6258,34.946 L258.8671,34.014 L258.0713,33.094 L257.2342,32.187 L256.3589,31.296 L255.4482,30.418 L254.4982,29.553 L253.5118,28.703 L252.4917,27.866 L251.4339,27.042 L250.3413,26.232 L249.2167,25.435 L248.0566,24.651 L246.8634,23.88 L245.6398,23.122 L244.3823,22.377 L243.0934,21.645 L241.7755,20.925 L240.4253,20.219 L239.0449,19.526 L237.6373,18.845 L236.1993,18.177 L234.7329,17.521 L233.2407,16.878 L231.7197,16.247 L230.1721,15.629 L228.5999,15.023 L227.0008,14.429 L225.3764,13.848 L223.7292,13.279 L222.0567,12.722 L220.3606,12.178 L218.6431,11.645 L216.9019,11.125 L215.1385,10.618 L213.3551,10.123 L211.5499,9.641 L209.7243,9.17 L207.8803,8.712 L206.0162,8.265 L204.1314,7.83 L202.2256,7.414 L200.3173,6.996 L198.3736,6.604 L196.4329,6.212 L195.4383,6.026 L194.454,5.843 L193.4696,5.66 L192.4786,5.475 L191.4736,5.302 L190.4752,5.13 L189.4768,4.957 L188.4713,4.784 L187.4516,4.623 L186.4388,4.462 L185.426,4.302 L184.4065,4.141 L183.3739,3.992 L182.3479,3.844 L181.322,3.696 L180.2902,3.548 L179.2474,3.41 L178.2105,3.273 L177.1737,3.135 L176.1306,2.997 L175.0765,2.871 L174.0287,2.745 L172.9808,2.62 L171.9269,2.494 L170.8633,2.38 L169.8056,2.266 L168.748,2.153 L167.685,2.039 L166.6142,1.936 L165.5486,1.834 L164.4831,1.73 L163.4119,1.627 L162.3332,1.535 L161.26,1.444 L160.1869,1.353 L159.1082,1.261 L158.0231,1.181 L156.9435,1.102 L155.864,1.023 L154.7795,0.944 L153.6901,0.875 L152.6057,0.807 L151.5213,0.739 L150.4315,0.67 L149.3375,0.613 L148.2488,0.557 L147.1601,0.501 L146.0662,0.444 L144.9692,0.4 L143.8774,0.355 L142.7856,0.311 L141.6892,0.267 L140.591,0.233 L139.4974,0.199 L138.4039,0.165 L137.3053,0.131 L136.2057,0.108 L135.1113,0.086 L134.0168,0.064 L132.9173,0.041 L131.8181,0.031 L130.724,0.021 L129.6298,0.01 L128.5312,0 L127.4337,0 L126.3408,0.001 L125.2479,0.002 L124.15,0.002 L123.0546,0.015 L121.9642,0.027 L120.8738,0.04 L119.7784,0.052 L118.6866,0.077 L117.5999,0.101 L116.5132,0.126 L115.4219,0.15 L114.3349,0.186 L113.2526,0.223 L112.1704,0.263 L111.0831,0.302 L110.0017,0.354 L108.9254,0.405 L107.8491,0.457 L106.7678,0.508 L105.6935,0.571 L104.6243,0.635 L103.5551,0.698 L102.4814,0.761 L101.4151,0.835 L100.3534,0.91 L99.2917,0.985 L98.2251,1.061 L97.1677,1.148 L96.1154,1.235 L95.063,1.322 L94.0058,1.409 L92.9589,1.508 L91.9171,1.607 L90.8752,1.706 L89.829,1.805 L88.7932,1.915 L87.7618,2.024 L86.7303,2.131 L85.6938,2.238 L84.67,2.357 L83.6511,2.476 L82.6321,2.594 L81.6082,2.714 L80.5982,2.844 L79.5931,2.975 L78.588,3.105 L77.5784,3.236 L76.5824,3.377 L75.5909,3.518 L74.5993,3.659 L73.601,3.8 L71.6464,4.105 L69.6901,4.41 L67.7682,4.738 L65.8468,5.066 L63.9585,5.415 L62.0697,5.765 L60.2191,6.135 L58.3683,6.506 L56.5587,6.899 L54.7508,7.293 L52.9692,7.702 L51.2107,8.124 L49.4752,8.557 L47.7608,9 L46.0698,9.455 L44.4034,9.922 L42.7597,10.399 L41.1411,10.889 L39.5488,11.389 L37.9807,11.901 L36.4392,12.424 L34.9257,12.958 L33.4378,13.503 L31.9783,14.06 L30.5485,14.628 L29.1457,15.207 L27.773,15.798 L26.4316,16.401 L25.1189,17.014 L23.8375,17.638 L22.589,18.274 L21.3706,18.921 L20.1854,19.58 L19.035,20.25 L17.9162,20.931 L16.8321,21.625 L15.7846,22.33 L14.7702,23.047 L13.7923,23.776 L12.8526,24.516 L11.9476,25.268 L11.0807,26.033 L10.254,26.809 L9.4636,27.597 L8.7131,28.398 L8.0045,29.21 L7.3341,30.035 L6.7056,30.873 L6.121,31.722 L5.5764,32.583 L5.0759,33.458 L4.6213,34.345 L4.2087,35.243 L3.8425,36.155 L3.5243,37.077 L3.25,38.011 L3.0243,38.959 L2.8486,39.916 L2.7187,40.885 L2.6395,41.865 L2.6117,42.856 L2.6314,43.856 L2.7035,44.869 L2.8284,45.89 L3.0018,46.921 L3.2293,47.963 L3.5107,49.013 L3.8418,50.073 L4.2282,51.143 L4.6697,52.222 L5.162,53.31 L5.7111,54.409 L6.3165,55.516 L6.9738,56.633 L7.6894,57.76 L8.458,58.889 C8.6442,59.163 9.0174,59.234 9.2914,59.048 C9.5655,58.862 9.6368,58.489 9.4506,58.215 L8.6943,57.1 L8.0016,56.005 L7.366,54.921 L6.7822,53.849 L6.2552,52.791 L5.7834,51.743 L5.3615,50.708 L4.9943,49.685 L4.6803,48.675 L4.4143,47.675 L4.2008,46.69 L4.0384,45.715 L3.9221,44.752 L3.856,43.802 L3.8392,42.862 L3.8666,41.933 L3.9421,41.017 L4.0653,40.11 L4.2312,39.214 L4.4434,38.329 L4.702,37.454 L5.0022,36.588 L5.347,35.734 L5.7373,34.888 L6.1679,34.052 L6.642,33.226 L7.1604,32.409 L7.718,31.602 L8.3178,30.805 L8.9607,30.017 L9.6416,29.239 L10.3633,28.471 L11.1266,27.713 L11.9266,26.964 L12.766,26.226 L13.6453,25.498 L14.5601,24.779 L15.5125,24.072 L16.5033,23.374 L17.5279,22.687 L18.5886,22.011 L19.6859,21.345 L20.8156,20.689 L21.9797,20.044 L23.1786,19.411 L24.4083,18.787 L25.671,18.174 L26.9669,17.574 L28.292,16.983 L29.6482,16.404 L31.0357,15.836 L32.4508,15.278 L33.8953,14.732 L35.3693,14.197 L36.8693,13.673 L38.3972,13.16 L39.9528,12.658 L41.5329,12.167 L43.1389,11.687 L44.7711,11.219 L46.4261,10.761 L48.1054,10.315 L49.8091,9.88 L51.534,9.456 L53.2817,9.043 L55.0505,8.642 L56.8517,8.257 L58.6511,7.871 L60.4918,7.509 L62.3325,7.147 L64.2125,6.811 L66.0929,6.474 L68.0067,6.159 L69.92,5.844 L71.8677,5.552 L73.8171,5.26 L74.8027,5.127 L75.7951,4.992 L76.7876,4.858 L77.7754,4.725 L78.7768,4.602 L79.7828,4.479 L80.7887,4.356 L81.7897,4.233 L82.8045,4.122 L83.8243,4.01 L84.844,3.899 L85.8588,3.788 L86.8862,3.689 L87.9185,3.589 L88.951,3.491 L89.9791,3.394 L91.0176,3.308 L92.0606,3.222 L93.1035,3.135 L94.1415,3.049 L95.1899,2.975 L96.2432,2.9 L97.2966,2.826 L98.3449,2.751 L99.4025,2.689 L100.4649,2.626 L101.5273,2.562 L102.5852,2.498 L103.6504,2.445 L104.7201,2.392 L105.7898,2.338 L106.8545,2.285 L107.9262,2.244 L109.003,2.202 L110.0797,2.16 L111.1514,2.119 L112.2288,2.089 L113.3114,2.059 L114.3938,2.028 L115.4716,1.994 L116.5537,1.971 L117.6404,1.947 L118.7271,1.924 L119.8088,1.901 L120.8941,1.89 L121.9845,1.878 L123.0749,1.867 L124.1603,1.856 L125.2481,1.856 L126.3409,1.857 L127.4338,1.857 L128.5221,1.857 L129.6116,1.868 L130.7057,1.88 L131.7998,1.891 L132.8889,1.902 L133.9783,1.925 L135.0727,1.948 L136.1671,1.971 L137.2565,1.994 L138.3449,2.029 L139.4384,2.064 L140.5319,2.099 L141.6207,2.135 L142.7077,2.182 L143.7994,2.228 L144.891,2.275 L145.9775,2.321 L147.0609,2.38 L148.1495,2.438 L149.2381,2.497 L150.3214,2.555 L151.4004,2.626 L152.4847,2.696 L153.569,2.767 L154.6484,2.837 L155.7229,2.918 L156.8023,3 L157.8817,3.082 L158.9556,3.163 L160.023,3.256 L161.096,3.349 L162.1689,3.443 L163.2362,3.536 L164.2958,3.641 L165.3611,3.747 L166.4263,3.853 L167.4862,3.959 L168.5382,4.076 L169.5954,4.193 L170.6526,4.311 L171.7038,4.428 L172.7452,4.556 L173.7926,4.686 L174.84,4.815 L175.8812,4.944 L176.9112,5.085 L177.9476,5.226 L178.9838,5.368 L180.0142,5.509 L181.0335,5.662 L182.0587,5.815 L183.0839,5.968 L184.1024,6.12 L185.1076,6.284 L186.1196,6.449 L187.1316,6.614 L188.1365,6.778 L189.127,6.954 L190.1245,7.132 L191.122,7.309 L192.1129,7.485 L193.0896,7.672 L194.073,7.861 L195.0563,8.049 L196.0295,8.235 L197.9579,8.635 L199.8834,9.034 L201.7732,9.458 L203.6653,9.881 L205.5275,10.321 L207.3715,10.773 L209.1957,11.236 L211.0009,11.711 L212.7842,12.198 L214.546,12.696 L216.2872,13.206 L218.0052,13.727 L219.6999,14.259 L221.3726,14.802 L223.02,15.357 L224.6424,15.924 L226.2411,16.502 L227.8127,17.092 L229.3577,17.694 L230.8776,18.307 L232.3686,18.931 L233.8312,19.567 L235.267,20.214 L236.6721,20.872 L238.0472,21.543 L239.3939,22.224 L240.7082,22.916 L241.9912,23.62 L243.2442,24.335 L244.4629,25.06 L245.6484,25.798 L246.8024,26.546 L247.9202,27.304 L249.0032,28.075 L250.053,28.856 L251.0651,29.647 L252.0411,30.45 L252.9827,31.263 L253.8848,32.086 L254.749,32.92 L255.5774,33.765 L256.3647,34.619 L257.1127,35.485 L257.8237,36.36 L258.4922,37.244 L259.1202,38.141 L259.71,39.047 L260.2563,39.961 L260.7609,40.888 L261.2264,41.824 L261.6473,42.769 L262.0253,43.727 L262.3632,44.695 L262.6558,45.671 L262.9039,46.662 L263.1109,47.662 L263.2715,48.673 L263.3865,49.702 L263.4647,50.724 L263.5101,51.731 L263.5229,52.722 L263.5063,53.698 L263.4579,54.655 L263.3778,55.598 L263.2695,56.525 L263.1307,57.434 L262.9612,58.329 L262.7644,59.21 L262.5383,60.074 L262.2823,60.924 L261.9999,61.761 L261.6892,62.581 L261.3493,63.388 L260.9837,64.183 L260.5908,64.962 L260.1692,65.729 L259.7225,66.483 L259.2493,67.223 L258.7479,67.951 L258.222,68.667 L257.6703,69.368 L257.0911,70.058 L256.488,70.737 L255.8597,71.402 L255.2046,72.056 L254.5261,72.698 L253.8232,73.326 L253.094,73.944 L252.3423,74.55 L251.5671,75.143 L250.7665,75.725 L249.9441,76.295 L249.0991,76.853 L248.2297,77.4 L247.3394,77.936 L246.4272,78.459 L245.4917,78.972 L244.5361,79.473 L243.5595,79.963 L242.5647,80.439 L241.5324,80.903 L240.5053,81.365 L239.4379,81.804 L238.3698,82.243 L237.2628,82.66 L236.1538,83.077 L235.0106,83.474 L233.8682,83.87 L232.6896,84.244 L231.5102,84.619 L230.2959,84.971 L229.0799,85.324 L227.8334,85.657 L226.5875,85.99 L225.3094,86.302 L224.0307,86.615 L222.7212,86.906 L221.4102,87.198 L220.0724,87.471 L218.7352,87.745 L217.3696,87.998 L216.0036,88.252 L214.6107,88.485 L213.2167,88.72 L211.7993,88.936 L210.3825,89.153 L208.9414,89.351 L207.4999,89.55 L206.0356,89.729 L204.5701,89.909 L203.0851,90.072 L201.6005,90.235 L200.0956,90.381 L198.5904,90.527 L197.0663,90.656 L195.5413,90.785 L194.0003,90.899 L192.4597,91.013 L190.9028,91.11 L189.3457,91.208 L187.7736,91.29 L186.2008,91.372 L184.6155,91.439 L183.0307,91.507 L181.4334,91.56 L179.836,91.613 L178.2276,91.652 L176.6186,91.691 L175.0008,91.716 L173.3832,91.742 L171.7573,91.754 L170.1312,91.766 L168.4982,91.765 L166.8668,91.764 L165.2281,91.746 L163.5827,91.727 L161.9373,91.709 L160.3013,91.69 L158.6588,91.648 L157.0071,91.605 L155.3555,91.563 L153.7124,91.521 L152.0687,91.457 L150.4165,91.392 L148.7642,91.328 L147.1175,91.264 L145.4734,91.186 L143.8275,91.108 L142.1852,91.019 L140.5427,90.932 L138.9051,90.835 L137.2671,90.739 L135.6346,90.634 L134.0024,90.529 L132.3777,90.416 L130.7528,90.302 L129.1368,90.181 L127.5204,90.059 L125.9133,89.931 L124.3063,89.802 L122.7108,89.666 L121.1151,89.531 L119.5323,89.388 L117.9491,89.245 L116.3788,89.097 L114.8086,88.949 L113.2537,88.795 L111.6988,88.641 L110.1606,88.481 L108.6221,88.322 L107.1,88.157 L105.5781,87.993 L104.0756,87.824 L102.5729,87.655 L101.091,87.482 L99.6088,87.309 L98.1466,87.132 L96.6846,86.956 L95.2459,86.775 L93.8071,86.595 L92.393,86.412 L90.9786,86.229 L89.588,86.041 L88.198,85.852 L86.8351,85.661 L85.4723,85.47 L84.1381,85.277 L82.8036,85.084 L81.4964,84.89 L80.1894,84.696 L78.9136,84.501 L77.6377,84.306 L76.3951,84.107 L75.1523,83.908 L73.9403,83.708 L72.7286,83.509 L71.5521,83.31 L70.3755,83.112 L69.2357,82.914 L68.0955,82.716 L66.9898,82.52 L65.8844,82.323 L64.8182,82.129 L63.7516,81.936 L62.7255,81.746 L61.6992,81.557 L60.7109,81.369 L59.7243,81.182 L57.8336,80.814 L56.0313,80.452 L55.1643,80.275 L54.3188,80.099 L53.4969,79.925 L52.6969,79.753 L51.9214,79.584 L51.1703,79.419 L50.442,79.256 L49.7394,79.096 L49.0624,78.938 L48.4093,78.783 L47.783,78.632 L47.1835,78.483 L46.6089,78.338 L46.0626,78.197 L45.5441,78.059 L45.0519,77.924 L44.5894,77.794 L44.1534,77.666 L43.5293,77.482 L42.8478,77.28 L42.115,77.062 L41.3379,76.829 L40.5149,76.579 L39.6486,76.314 L38.7456,76.034 L37.8051,75.738 L36.83,75.426 L35.8261,75.1 L34.7936,74.758 L33.7375,74.4 L32.6458,74.019 L31.5586,73.639 L30.435,73.228 L29.3134,72.817 L28.1682,72.374 L27.0236,71.931 L25.8677,71.46 L24.715,70.99 L23.5611,70.489 L22.4096,69.989 L21.2698,69.458 L20.1256,68.925 L19.0066,68.376 L17.8999,67.811 L16.811,67.232 L15.7419,66.639 L14.6987,66.034 L13.6822,65.414 L12.6939,64.782 L11.7408,64.138 L10.8233,63.481 L9.9423,62.813 L9.1058,62.135 L8.3136,61.445 L7.5658,60.746 L6.8717,60.04 L6.2298,59.323 L5.6392,58.6 L5.1095,57.874 L4.6385,57.139 L4.2244,56.399 L3.8763,55.66 L3.5912,54.912 L3.3657,54.159 L3.2082,53.406 L3.1153,52.61 L3.0927,52.179 L3.0904,51.728 L3.1103,51.277 L3.1497,50.829 L3.2098,50.386 L3.2848,49.972 L3.5101,49.057 L3.807,48.186 L4.1831,47.316 L4.6271,46.453 L5.1407,45.602 L5.7248,44.759 L6.3678,43.925 L7.069,43.108 L7.8284,42.304 L8.6348,41.516 L9.4862,40.747 L10.3813,39.997 L11.3105,39.267 L12.2704,38.56 L13.2591,37.876 L14.2684,37.214 L15.2938,36.579 L16.333,35.971 L17.3791,35.387 L18.4267,34.833 L19.4729,34.307 L20.5124,33.81 L21.5385,33.344 L22.5481,32.91 L23.5373,32.506 L24.4976,32.136 L25.4261,31.8 L26.3199,31.497 L27.1686,31.23 L27.9692,30.999 L28.7191,30.803 L29.4049,30.646 L30.023,30.527 L30.5685,30.444 L31.019,30.4 L31.3991,30.391 L31.4938,30.396 L31.5786,30.404 L31.6234,30.412 L31.6186,30.41 L31.5456,30.38 L31.4208,30.305 L31.2542,30.154 L31.0797,29.898 L30.977,29.605 L30.9549,29.334 L30.9842,29.128 L31.0179,29.025 L31.0332,28.994 L31.0193,29.015 L30.9644,29.084 L30.8743,29.186 L30.749,29.312 L30.5632,29.483 C29.9337,30.063 29.8938,31.044 30.4739,31.673 C31.0541,32.303 32.0347,32.343 32.6641,31.763 Z" id="Fill-27"></path>
            <path d="M139.6411,62.241 C139.6411,49.829 142.457,36.329 126.467,44.324" id="Fill-28"></path>
            <path d="M141.191,62.253 L141.2,60.708 L141.2205,59.166 L141.2265,57.623 L141.1468,56.085 L141.1338,54.569 L141.1356,53.086 L141.0912,51.638 L141.0023,50.238 L140.8714,48.913 L140.7879,48.252 L140.6938,47.619 L140.5835,47.006 L140.4591,46.408 L140.3122,45.828 L140.1407,45.27 L139.9435,44.731 L139.7141,44.213 L139.4499,43.725 L139.1497,43.264 L138.8086,42.832 L138.4316,42.44 L138.0148,42.091 L137.5572,41.784 L137.0692,41.53 L136.5522,41.325 L136.0026,41.168 L135.4303,41.062 L134.8338,40.999 L134.2054,40.987 L133.5507,41.019 L132.868,41.099 L132.1603,41.282 L131.4308,41.535 L130.6655,41.803 L129.8581,42.109 L129.0091,42.459 L128.1193,42.85 L127.1816,43.29 L126.2052,43.784 C125.907,43.929 125.7826,44.288 125.9271,44.586 C126.0717,44.884 126.4307,45.008 126.7288,44.864 L127.7055,44.41 L128.6223,44.016 L129.491,43.684 L130.3152,43.407 L131.0895,43.193 L131.8171,43.044 L132.5019,42.97 L133.1244,42.924 L133.6902,42.871 L134.2121,42.853 L134.6833,42.883 L135.1122,42.949 L135.4998,43.048 L135.8404,43.18 L136.1467,43.343 L136.423,43.529 L136.6674,43.736 L136.8928,43.973 L137.1058,44.232 L137.2996,44.518 L137.4816,44.84 L137.6542,45.191 L137.8135,45.572 L137.9598,45.99 L138.0929,46.438 L138.2099,46.916 L138.3113,47.427 L138.3944,47.965 L138.4604,48.529 L138.5062,49.106 L138.5584,50.363 L138.5574,51.684 L138.5268,53.076 L138.4918,54.52 L138.4049,56.011 L138.2352,57.536 L138.1534,59.09 L138.107,60.663 L138.0911,62.228 C138.0843,63.084 138.7727,63.784 139.6287,63.7910529 C140.4847,63.798 141.1842,63.109 141.191,62.253 Z" id="Fill-29"></path>
        </g>
    </g>
</svg>
