<?xml version="1.0" encoding="UTF-8"?>
<svg width="163px" height="78px" viewBox="0 0 163 78" version="1.1" xmlns="http://www.w3.org/2000/svg" xmlns:xlink="http://www.w3.org/1999/xlink">
    <title>66</title>
    <g id="Page-1" stroke="none" stroke-width="1" fill="none" fill-rule="evenodd">
        <g id="66" transform="translate(0.923903, 0.266453)" fill="currentColor">
            <path d="M9.32729728,1.55054663 C-1.95910272,2.53954663 31.9617973,3.43154663 43.3172973,3.36154663 C77.6680973,3.15154663 111.870597,3.19354663 146.205797,3.72454663 C150.338997,3.78854663 157.542397,0.573546634 158.607597,3.72454663 C161.482697,12.2295466 162.826397,63.4755466 154.932997,70.3945466 C142.424797,81.3575466 98.1056973,73.4165466 81.9004973,73.2925466 C-46.9262027,72.3065466 27.9920973,73.2585466 0.600197281,8.43454663" id="Fill-22"></path>
            <path d="M9.18669728,0.00654663367 L8.84149728,0.0385466337 L8.51809728,0.0705466337 L8.22229728,0.102546634 L7.94939728,0.135546634 L7.69939728,0.170546634 L7.47209728,0.205546634 L7.26099728,0.242546634 L7.06069728,0.284546634 L6.86759728,0.333546634 L6.66119728,0.400546634 L6.40089728,0.515546634 L6.03869728,0.768546634 L5.58269728,1.47754663 L5.67449728,2.66254663 L6.12739728,3.21854663 L6.45019728,3.42154663 L6.68799728,3.52154663 L6.91589728,3.59154663 L7.24189728,3.66754663 L7.63839728,3.73654663 L8.08729728,3.79754663 L8.59249728,3.85654663 L9.16339728,3.91254663 L9.79639728,3.96654663 L10.4847973,4.01954663 L11.2321973,4.07154663 L12.0340973,4.12254663 L12.8829973,4.17154663 L13.7807973,4.22054663 L14.7227973,4.26654663 L15.7021973,4.31254663 L16.7193973,4.35654663 L17.7699973,4.39954663 L18.8479973,4.44154663 L19.9524973,4.48154663 L21.0792973,4.51954663 L22.2232973,4.55654663 L23.3824973,4.59254663 L24.5533973,4.62654663 L25.7317973,4.65754663 L26.9108973,4.68954663 L28.0907973,4.71654663 L29.2705973,4.74454663 L30.4346973,4.76854663 L31.5985973,4.79254663 L32.7350973,4.81254663 L33.8717973,4.83354663 L34.9638973,4.84954663 L36.0560973,4.86554663 L37.0872973,4.87754663 L38.1176973,4.88954663 L39.0996973,4.89754663 L40.0399973,4.90354663 L40.9349973,4.90654663 L41.7856973,4.90754663 L42.5843973,4.90554663 L43.3244973,4.90154663 L44.3975973,4.89454663 L45.4703973,4.88854663 L46.5432973,4.88154663 L47.6160973,4.87454663 L48.6887973,4.86854663 L49.7615973,4.86154663 L50.8344973,4.85454663 L51.9072973,4.84854663 L52.9799973,4.84154663 L54.0527973,4.83454663 L55.1256973,4.82754663 L56.1984973,4.82154663 L57.2711973,4.81454663 L58.3439973,4.80754663 L59.4168973,4.80054663 L60.4874973,4.79254663 L61.5568973,4.78854663 L62.6286973,4.78454663 L63.7002973,4.78054663 L64.7719973,4.77654663 L65.8436973,4.77254663 L66.9153973,4.76754663 L67.9869973,4.76254663 L69.0587973,4.75654663 L70.1304973,4.75154663 L71.2020973,4.74654663 L72.2738973,4.74054663 L73.3454973,4.73554663 L74.4171973,4.73054663 L75.4888973,4.72254663 L76.5605973,4.71554663 L77.6297973,4.70754663 L78.6984973,4.70354663 L79.7695973,4.69954663 L80.8407973,4.69554663 L81.9118973,4.69154663 L82.9830973,4.68754663 L84.0541973,4.67954663 L85.1253973,4.67154663 L86.1964973,4.66354663 L87.2675973,4.65554663 L88.3387973,4.64754663 L89.4098973,4.63954663 L90.4810973,4.63054663 L91.5521973,4.62254663 L92.6232973,4.61854663 L93.6943973,4.61554663 L94.7633973,4.61254663 L95.8320973,4.61354663 L96.9031973,4.61454663 L97.9742973,4.61454663 L99.0452973,4.61554663 L100.116397,4.61654663 L101.187497,4.61954663 L102.258497,4.62454663 L103.329597,4.62854663 L104.400697,4.63354663 L105.471697,4.63854663 L106.542797,4.64354663 L107.613797,4.64754663 L108.684897,4.65254663 L109.755897,4.65754663 L110.826997,4.66154663 L111.895397,4.66654663 L112.964097,4.67554663 L114.035597,4.68454663 L115.106997,4.69354663 L116.178497,4.70254663 L117.249897,4.71154663 L118.321397,4.72054663 L119.392797,4.72854663 L120.464297,4.73654663 L121.535797,4.74454663 L122.607197,4.75354663 L123.678697,4.76154663 L124.750197,4.76954663 L125.821597,4.77854663 L126.893097,4.78654663 L127.964497,4.79454663 L129.033097,4.80254663 L130.102497,4.81654663 L131.174897,4.82954663 L132.247297,4.84254663 L133.319797,4.85554663 L134.392097,4.86854663 L135.464597,4.88154663 L136.536997,4.89354663 L137.609397,4.90654663 L138.681897,4.91854663 L139.754297,4.93054663 L140.826697,4.94254663 L141.899097,4.95454663 L142.971497,4.96754663 L144.043997,4.97954663 L145.116397,4.99154663 L146.200397,5.00354663 L146.790697,4.99354663 L147.411897,4.94954663 L148.041497,4.87854663 L148.678997,4.78654663 L149.325397,4.67754663 L149.979797,4.55554663 L151.270397,4.29554663 L152.544497,4.03454663 L153.757397,3.81254663 L154.875697,3.65254663 L155.839497,3.59054663 L156.656497,3.64954663 L156.884597,3.70054663 L157.084497,3.77054663 L157.221097,3.84754663 L157.309597,3.91854663 L157.366097,3.99154663 L157.445197,4.18054663 L157.502697,4.36554663 L157.582197,4.63854663 L157.663097,4.94654663 L157.744497,5.28154663 L157.825597,5.64554663 L157.906497,6.03854663 L157.986697,6.45554663 L158.066097,6.89854663 L158.144597,7.36754663 L158.221997,7.85854663 L158.298097,8.37254663 L158.372297,8.90554663 L158.518497,10.0455466 L158.657597,11.2625466 L158.789697,12.5575466 L158.914997,13.9195466 L159.032197,15.3475466 L159.140897,16.8375466 L159.241297,18.3795466 L159.332197,19.9735466 L159.413197,21.6155466 L159.484697,23.2945466 L159.544597,25.0105466 L159.593097,26.7595466 L159.630997,28.5325466 L159.656597,30.3285466 L159.669497,32.1415466 L159.670397,33.9655466 L159.657797,35.7965466 L159.631197,37.6285466 L159.584697,39.4605466 L159.537997,41.2885466 L159.460097,43.0935466 L159.382297,44.8965466 L159.272097,46.6565466 L159.161897,48.4195466 L159.028897,50.1335466 L158.878297,51.8135466 L158.710097,53.4515466 L158.525397,55.0465466 L158.322597,56.5885466 L158.100997,58.0725466 L157.861397,59.4995466 L157.602997,60.8575466 L157.325197,62.1425466 L157.030097,63.3555466 L156.716797,64.4815466 L156.384797,65.5175466 L156.037397,66.4645466 L155.676097,67.3045466 L155.290997,68.0555466 L155.111097,68.3625466 L154.921497,68.6555466 L154.730597,68.9195466 L154.541197,69.1555466 L154.356897,69.3565466 L154.172797,69.5295466 L153.810997,69.8335466 L153.428097,70.1285466 L153.022197,70.4155466 L152.596997,70.6935466 L152.152697,70.9615466 L151.701297,71.2125466 L150.698397,71.7135466 L149.635997,72.1675466 L148.497297,72.5835466 L147.294497,72.9665466 L146.026997,73.3125466 L144.695097,73.6215466 L143.309197,73.8995466 L141.869497,74.1435466 L140.376897,74.3535466 L138.840697,74.5355466 L137.261197,74.6875466 L135.640097,74.8095466 L133.985097,74.9075466 L132.297397,74.9785466 L130.578897,75.0255466 L128.836197,75.0515466 L127.070997,75.0545466 L125.285597,75.0375466 L123.485497,75.0045466 L121.672997,74.9535466 L119.852797,74.8865466 L118.022097,74.7995466 L116.192897,74.7125466 L114.366397,74.6025466 L112.538297,74.4925466 L110.727597,74.3645466 L108.915197,74.2365466 L107.130097,74.0985466 L105.344097,73.9625466 L103.601197,73.8195466 L101.856797,73.6755466 L100.170097,73.5325466 L98.4821973,73.3895466 L96.8406973,73.2495466 L95.2366973,73.1145466 L93.6740973,72.9845466 L92.1517973,72.8615466 L90.6768973,72.7465466 L89.2533973,72.6425466 L87.8789973,72.5495466 L86.5613973,72.4695466 L85.3046973,72.4035466 L84.1054973,72.3535466 L82.9716973,72.3205466 L81.9109973,72.3065466 L79.9105973,72.2965466 L77.9470973,72.2875466 L76.0172973,72.2785466 L74.1177973,72.2695466 L72.2515973,72.2585466 L70.4181973,72.2475466 L68.6144973,72.2355466 L66.8431973,72.2245466 L65.1038973,72.2125466 L63.3936973,72.1995466 L61.7148973,72.1875466 L60.0674973,72.1745466 L58.4481973,72.1615466 L56.8597973,72.1475466 L55.3017973,72.1325466 L53.7713973,72.1155466 L52.2708973,72.0985466 L50.8000973,72.0805466 L49.3560973,72.0625466 L47.9412973,72.0425466 L46.5553973,72.0225466 L45.1954973,72.0015466 L43.8640973,71.9795466 L42.5606973,71.9575466 L41.2825973,71.9335466 L40.0322973,71.9085466 L38.8091973,71.8815466 L37.6104973,71.8605466 L36.4386973,71.8385466 L35.2933973,71.8145466 L34.1718973,71.7895466 L33.0764973,71.7635466 L32.0067973,71.7355466 L30.9601973,71.7055466 L29.9389973,71.6735466 L28.9423973,71.6415466 L27.9683973,71.6085466 L27.0188973,71.5725466 L26.0933973,71.5355466 L25.1895973,71.4955466 L24.3096973,71.4535466 L23.4544973,71.4095466 L21.8023973,71.3145466 L20.2428973,71.2075466 L18.7716973,71.0875466 L17.3789973,70.9575466 L16.0714973,70.8185466 L14.8457973,70.6675466 L13.6933973,70.5055466 L12.6203973,70.3325466 L11.6234973,70.1465466 L10.6946973,69.9495466 L9.83999728,69.7405466 L9.05539728,69.5185466 L8.33399728,69.2855466 L7.68159728,69.0405466 L7.09289728,68.7835466 L6.56199728,68.5155466 L6.09389728,68.2375466 L5.68149728,67.9485466 L5.31859728,67.6495466 L5.00859728,67.3425466 L4.74349728,67.0205466 L4.51659728,66.6875466 L4.32989728,66.3405466 L4.17719728,65.9715466 L4.05439728,65.5825466 L3.96419728,65.1725466 L3.90429728,64.7335466 L3.87139728,64.2685466 L3.86769728,63.7785466 L3.89179728,63.2575466 L3.93999728,62.7115466 L4.01319728,62.1375466 L4.10959728,61.5345466 L4.22549728,60.9065466 L4.36069728,60.2505466 L4.51319728,59.5655466 L4.67969728,58.8545466 L4.85919728,58.1155466 L5.04969728,57.3485466 L5.24809728,56.5535466 L5.45319728,55.7305466 L5.66259728,54.8775466 L5.87399728,53.9975466 L6.08549728,53.0865466 L6.29459728,52.1455466 L6.49979728,51.1765466 L6.69879728,50.1755466 L6.88879728,49.1425466 L7.06879728,48.0815466 L7.23579728,46.9865466 L7.38729728,45.8595466 L7.52289728,44.7025466 L7.63889728,43.5115466 L7.73299728,42.2855466 L7.80629728,41.0295466 L7.85349728,39.7375466 L7.87229728,38.4105466 L7.86329728,37.0505466 L7.82169728,35.6545466 L7.74519728,34.2215466 L7.63509728,32.7555466 L7.48589728,31.2515466 L7.29539728,29.7095466 L7.06549728,28.1335466 L6.78999728,26.5175466 L6.46689728,24.8625466 L6.09859728,23.1725466 L5.67829728,21.4415466 L5.20409728,19.6705466 L4.67869728,17.8615466 L4.09509728,16.0115466 L3.45179728,14.1225466 L3.10089728,13.1555466 L2.75039728,12.1905466 L2.36769728,11.2035466 L1.98489728,10.2165466 L1.56879728,9.20854663 L1.15499728,8.20654663 C1.02899728,7.89954663 0.678397281,7.75354663 0.371897281,7.87954663 C0.0653972815,8.00554663 -0.0808027185,8.35654663 0.0452972815,8.66254663 L0.456597281,9.66654663 L0.865497281,10.6635466 L1.24119728,11.6395466 L1.61689728,12.6145466 L1.96049728,13.5685466 L2.30369728,14.5205466 L2.93539728,16.3905466 L3.50629728,18.2155466 L4.01979728,19.9995466 L4.48279728,21.7455466 L4.89209728,23.4485466 L5.25039728,25.1125466 L5.56419728,26.7405466 L5.83079728,28.3275466 L6.05279728,29.8755466 L6.23609728,31.3895466 L6.37869728,32.8635466 L6.48319728,34.3015466 L6.55479728,35.7055466 L6.59219728,37.0725466 L6.59779728,38.4045466 L6.57629728,39.7035466 L6.52709728,40.9675466 L6.45229728,42.1975466 L6.35519728,43.3965466 L6.23659728,44.5625466 L6.09879728,45.6955466 L5.94549728,46.7995466 L5.77709728,47.8705466 L5.59589728,48.9115466 L5.40479728,49.9245466 L5.20499728,50.9075466 L4.99829728,51.8605466 L4.78749728,52.7885466 L4.57409728,53.6865466 L4.36049728,54.5575466 L4.14839728,55.4045466 L3.93999728,56.2245466 L3.73749728,57.0185466 L3.54229728,57.7895466 L3.35699728,58.5355466 L3.18409728,59.2585466 L3.02419728,59.9605466 L2.88049728,60.6405466 L2.75589728,61.2985466 L2.65039728,61.9375466 L2.56819728,62.5595466 L2.51209728,63.1605466 L2.48219728,63.7475466 L2.48389728,64.3185466 L2.52029728,64.8725466 L2.59159728,65.4125466 L2.70489728,65.9385466 L2.86239728,66.4465466 L3.06349728,66.9375466 L3.31579728,67.4115466 L3.61749728,67.8605466 L3.96629728,68.2875466 L4.36809728,68.6935466 L4.81949728,69.0725466 L5.31829728,69.4285466 L5.87219728,69.7635466 L6.47849728,70.0765466 L7.13589728,70.3705466 L7.85299728,70.6475466 L8.62929728,70.9055466 L9.46269728,71.1495466 L10.3623973,71.3785466 L11.3291973,71.5925466 L12.3596973,71.7935466 L13.4633973,71.9835466 L14.6415973,72.1605466 L15.8901973,72.3275466 L17.2188973,72.4835466 L18.6293973,72.6295466 L20.1165973,72.7655466 L21.6903973,72.8955466 L23.3511973,73.0195466 L24.2149973,73.0795466 L25.1002973,73.1375466 L26.0087973,73.1925466 L26.9388973,73.2475466 L27.8928973,73.2995466 L28.8709973,73.3505466 L29.8713973,73.3995466 L30.8966973,73.4445466 L31.9467973,73.4885466 L33.0198973,73.5315466 L34.1185973,73.5735466 L35.2429973,73.6135466 L36.3911973,73.6515466 L37.5656973,73.6895466 L38.7668973,73.7245466 L39.9925973,73.7525466 L41.2454973,73.7795466 L42.5257973,73.8055466 L43.8312973,73.8305466 L45.1647973,73.8545466 L46.5263973,73.8775466 L47.9139973,73.8995466 L49.3303973,73.9205466 L50.7758973,73.9405466 L52.2478973,73.9605466 L53.7495973,73.9785466 L55.2810973,73.9975466 L56.8399973,74.0155466 L58.4293973,74.0345466 L60.0492973,74.0535466 L61.6973973,74.0715466 L63.3767973,74.0895466 L65.0875973,74.1075466 L66.8272973,74.1255466 L68.5988973,74.1425466 L70.4028973,74.1605466 L72.2364973,74.1785466 L74.1027973,74.1965466 L76.0023973,74.2165466 L77.9321973,74.2375466 L79.8955973,74.2575466 L81.8899973,74.2785466 L82.9225973,74.2995466 L84.0267973,74.3395466 L85.2028973,74.3985466 L86.4404973,74.4725466 L87.7415973,74.5615466 L89.1030973,74.6645466 L90.5161973,74.7785466 L91.9821973,74.9035466 L93.4979973,75.0375466 L95.0557973,75.1785466 L96.6564973,75.3255466 L98.2966973,75.4785466 L99.9837973,75.6345466 L101.672197,75.7905466 L103.418297,75.9475466 L105.165997,76.1045466 L106.956697,76.2545466 L108.748497,76.4055466 L110.567897,76.5435466 L112.388997,76.6815466 L114.227797,76.8025466 L116.068197,76.9235466 L117.911497,77.0195466 L119.753497,77.1155466 L121.594997,77.1925466 L123.427997,77.2525466 L125.249697,77.2945466 L127.058897,77.3175466 L128.851697,77.3185466 L130.623297,77.2975466 L132.373597,77.2545466 L134.097997,77.1865466 L135.791397,77.0895466 L137.454597,76.9655466 L139.082797,76.8115466 L140.670297,76.6255466 L142.219297,76.4085466 L143.724297,76.1555466 L145.179097,75.8645466 L146.587297,75.5385466 L147.943097,75.1705466 L149.239297,74.7585466 L150.480897,74.3055466 L151.661897,73.8025466 L152.757797,73.2565466 L153.304897,72.9535466 L153.820397,72.6425466 L154.315797,72.3195466 L154.793897,71.9815466 L155.253997,71.6275466 L155.693197,71.2585466 L155.996797,70.9725466 L156.287897,70.6565466 L156.561797,70.3165466 L156.822997,69.9555466 L157.073797,69.5685466 L157.322297,69.1425466 L157.762097,68.2835466 L158.179397,67.3155466 L158.565397,66.2655466 L158.926297,65.1415466 L159.262297,63.9375466 L159.573997,62.6595466 L159.864897,61.3175466 L160.134097,59.9075466 L160.381997,58.4355466 L160.612197,56.9115466 L160.822697,55.3325466 L161.013997,53.7055466 L161.188197,52.0375466 L161.344397,50.3295466 L161.483197,48.5835466 L161.598597,46.8045466 L161.713997,45.0225466 L161.796897,43.1965466 L161.879697,41.3715466 L161.932697,39.5235466 L161.985797,37.6795466 L162.018997,35.8265466 L162.038097,33.9765466 L162.043497,32.1365466 L162.037097,30.3075466 L162.017797,28.4945466 L161.986197,26.7055466 L161.943697,24.9405466 L161.889597,23.2065466 L161.825197,21.5095466 L161.750997,19.8505466 L161.666397,18.2375466 L161.571897,16.6755466 L161.468797,15.1645466 L161.356397,13.7125466 L161.235297,12.3265466 L161.106597,11.0035466 L160.969597,9.75454663 L160.825497,8.58854663 L160.749997,8.02654663 L160.673097,7.49054663 L160.594397,6.97554663 L160.513997,6.48054663 L160.431497,6.00854663 L160.347197,5.55854663 L160.260997,5.13054663 L160.172397,4.72354663 L160.081697,4.34154663 L159.988297,3.98054663 L159.891197,3.64054663 L159.769997,3.26854663 L159.523897,2.73054663 L159.131297,2.20454663 L158.655697,1.79654663 L158.130797,1.49554663 L157.569897,1.28954663 L156.946797,1.15854663 L155.843597,1.07754663 L154.620397,1.14854663 L153.356997,1.32054663 L152.068297,1.55054663 L150.771997,1.80954663 L149.495197,2.06054663 L148.885097,2.17154663 L148.291197,2.26954663 L147.721897,2.34854663 L147.182197,2.40754663 L146.683197,2.44054663 L146.211297,2.44554663 L145.150497,2.42854663 L144.078097,2.41154663 L143.005697,2.39554663 L141.933397,2.37954663 L140.860997,2.36254663 L139.788597,2.34654663 L138.716197,2.33054663 L137.643897,2.31354663 L136.571497,2.29754663 L135.499097,2.28154663 L134.426697,2.26554663 L133.354397,2.25054663 L132.281997,2.23554663 L131.209597,2.21954663 L130.137297,2.20454663 L129.061897,2.18854663 L127.987497,2.17854663 L126.916097,2.16754663 L125.844697,2.15754663 L124.773197,2.14654663 L123.701797,2.13654663 L122.630297,2.12554663 L121.558797,2.11554663 L120.487397,2.10454663 L119.415897,2.09454663 L118.344497,2.08354663 L117.273097,2.07354663 L116.201597,2.06354663 L115.130197,2.05354663 L114.058797,2.04454663 L112.987297,2.03454663 L111.913097,2.02454663 L110.839397,2.01854663 L109.768397,2.01354663 L108.697297,2.00854663 L107.626197,2.00254663 L106.555197,1.99754663 L105.484097,1.99254663 L104.413097,1.98654663 L103.341997,1.98154663 L102.270997,1.97654663 L101.199897,1.97054663 L100.128797,1.96354663 L99.0578973,1.95454663 L97.9867973,1.94554663 L96.9157973,1.93654663 L95.8446973,1.92654663 L94.7713973,1.91754663 L93.6979973,1.91154663 L92.6268973,1.90554663 L91.5557973,1.89854663 L90.4846973,1.88754663 L89.4134973,1.87754663 L88.3423973,1.86654663 L87.2712973,1.85554663 L86.2001973,1.84454663 L85.1290973,1.83354663 L84.0578973,1.82254663 L82.9867973,1.81254663 L81.9156973,1.80554663 L80.8445973,1.79854663 L79.7733973,1.79154663 L78.7022973,1.78454663 L77.6287973,1.77754663 L76.5545973,1.77454663 L75.4828973,1.77154663 L74.4111973,1.76754663 L73.3394973,1.76654663 L72.2677973,1.76654663 L71.1960973,1.76554663 L70.1243973,1.76454663 L69.0526973,1.76354663 L67.9809973,1.76254663 L66.9092973,1.76154663 L65.8375973,1.76054663 L64.7658973,1.76054663 L63.6941973,1.76054663 L62.6224973,1.76154663 L61.5507973,1.76154663 L60.4768973,1.76154663 L59.4018973,1.76554663 L58.3290973,1.76854663 L57.2562973,1.77254663 L56.1834973,1.77554663 L55.1105973,1.77954663 L54.0377973,1.78354663 L52.9649973,1.78754663 L51.8921973,1.79154663 L50.8193973,1.79554663 L49.7465973,1.79854663 L48.6737973,1.80254663 L47.6008973,1.80654663 L46.5280973,1.81054663 L45.4552973,1.81454663 L44.3824973,1.81854663 L43.3100973,1.82254663 L42.5766973,1.82454663 L41.7879973,1.82354663 L40.9454973,1.82154663 L40.0577973,1.81554663 L39.1242973,1.80854663 L38.1494973,1.79954663 L37.1229973,1.78754663 L36.0971973,1.77554663 L35.0100973,1.75954663 L33.9228973,1.74254663 L32.7908973,1.72254663 L31.6585973,1.70154663 L30.4988973,1.67754663 L29.3393973,1.65354663 L28.1641973,1.62554663 L26.9889973,1.59754663 L25.8146973,1.56554663 L24.6396973,1.53354663 L23.4749973,1.49954663 L22.3211973,1.46454663 L21.1827973,1.42654663 L20.0618973,1.38854663 L18.9640973,1.34754663 L17.8931973,1.30654663 L16.8502973,1.26354663 L15.8419973,1.21954663 L14.8721973,1.17354663 L13.9409973,1.12754663 L13.0563973,1.07954663 L12.2218973,1.03054663 L11.4370973,0.980546634 L10.7113973,0.930546634 L10.0483973,0.878546634 L9.44739728,0.826546634 L8.92049728,0.774546634 L8.47259728,0.722546634 L8.10629728,0.672546634 L7.84669728,0.628546634 L7.68399728,0.589546634 L7.72659728,0.601546634 L7.82369728,0.643546634 L8.05139728,0.788546634 L8.45139728,1.28554663 L8.53769728,2.41154663 L8.12459728,3.06154663 L7.85019728,3.25454663 L7.72779728,3.31054663 L7.71069728,3.31654663 L7.75429728,3.30554663 L7.84379728,3.28654663 L7.97659728,3.26354663 L8.14319728,3.23754663 L8.34299728,3.21054663 L8.57689728,3.18254663 L8.84039728,3.15354663 L9.13519728,3.12354663 L9.46789728,3.09354663 C10.3204973,3.01654663 10.9485973,2.26254663 10.8708973,1.40954663 C10.7932973,0.556546634 10.0391973,-0.0714533663 9.18669728,0.00654663367 Z" id="Fill-23"></path>
        </g>
    </g>
</svg>
