<?xml version="1.0" encoding="UTF-8"?>
<svg width="212px" height="142px" viewBox="0 0 212 142" version="1.1" xmlns="http://www.w3.org/2000/svg" xmlns:xlink="http://www.w3.org/1999/xlink">
    <title>67</title>
    <g id="Page-1" stroke="none" stroke-width="1" fill="none" fill-rule="evenodd">
        <g id="67" transform="translate(0.767300, 0.811000)" fill="currentColor">
            <path d="M209.0107,124.301 C201.105,85.129 202.489,38.61 167.1572,6.434 C149.719,-9.447 95.4717,16.615 71.97168,18.008 C-12.184469,22.994 -1.70577,6.047 9.54995,63.546 C12.50166,78.624 -2.23044,104.249 1.74747,115.395 C10.0946,138.784 214.5075,151.536 209.0107,124.301 Z" id="Fill-20"></path>
            <path d="M210.5316,124.001 L210.2899,122.773 L210.0497,121.552 L209.8207,120.322 L209.5915,119.091 L209.3721,117.852 L209.1525,116.611 L208.9406,115.362 L208.7287,114.114 L208.5241,112.858 L208.3194,111.601 L208.1206,110.337 L207.9219,109.073 L207.7291,107.801 L207.5356,106.525 L207.3421,105.248 L207.1492,103.976 L206.9608,102.693 L206.772,101.407 L206.5831,100.12 L206.3942,98.834 L206.2043,97.54 L206.0144,96.246 L205.8245,94.952 L205.6342,93.656 L205.4385,92.355 L205.2432,91.056 L205.0479,89.758 L204.8517,88.453 L204.6446,87.146 L204.4384,85.844 L204.2323,84.543 L204.0246,83.232 L203.8004,81.921 L203.5778,80.619 L203.3552,79.318 L203.1306,78.005 L202.8865,76.694 L202.6439,75.395 L202.4008,74.095 L202.1548,72.78 L201.8823,71.47 L201.6129,70.175 L201.3435,68.88 L201.0701,67.566 L200.7646,66.26 L200.4633,64.972 L200.162,63.684 L199.8572,62.382 L199.5277,61.086 L199.1988,59.793 L198.8502,58.505 L198.5013,57.216 L198.1312,55.934 L197.7611,54.652 L197.3708,53.376 L196.9797,52.098 L196.5647,50.827 L196.1493,49.555 L195.7089,48.292 L195.2685,47.029 L194.8043,45.773 L194.3393,44.516 L193.8467,43.268 L193.3536,42.019 L192.8316,40.78 L192.3088,39.542 L191.7585,38.313 L191.2071,37.083 L190.6243,35.863 L190.0409,34.643 L189.4248,33.435 L188.809,32.227 L188.1623,31.031 L187.5142,29.833 L186.8295,28.648 L186.1437,27.464 L185.4214,26.293 L184.6996,25.123 L183.9433,23.966 L183.1856,22.807 L182.3888,21.664 L181.5914,20.519 L180.7536,19.391 L179.914,18.266 L179.0361,17.156 L178.1566,16.044 L177.2343,14.95 L176.3116,13.855 L175.3447,12.778 L174.3822,11.706 L173.3814,10.638 L172.3611,9.582 L171.3205,8.534 L170.2583,7.493 L169.1713,6.462 L168.0577,5.439 L167.4544,4.918 L166.8208,4.423 L166.1654,3.96 L165.489,3.526 L164.7878,3.119 L164.0675,2.743 L163.3283,2.393 L162.5669,2.07 L161.789,1.773 L160.994,1.5 L160.1786,1.253 L159.3475,1.031 L158.5008,0.831 L157.6354,0.654 L156.7555,0.501 L155.8613,0.368 L154.9501,0.257 L154.0253,0.167 L153.0874,0.096 L152.1339,0.045 L151.1679,0.014 L150.1898,0 L149.1975,0.004 L148.1889,0.026 L147.1741,0.071 L146.1539,0.116 L145.1093,0.194 L144.0664,0.272 L143.0011,0.381 L141.9386,0.489 L140.8573,0.623 L139.7759,0.758 L138.6754,0.919 L137.5764,1.08 L136.4605,1.267 L135.3466,1.453 L134.219,1.659 L133.0913,1.866 L131.9503,2.094 L130.8102,2.322 L129.6588,2.569 L128.509,2.815 L127.3504,3.078 L126.1919,3.34 L125.0256,3.618 L123.8601,3.895 L122.6889,4.186 L121.5188,4.477 L120.3451,4.778 L119.1716,5.079 L117.9959,5.39 L116.821,5.701 L115.6458,6.019 L114.4716,6.337 L113.299,6.662 L112.1269,6.986 L110.9581,7.315 L109.7901,7.643 L108.6275,7.974 L107.4653,8.305 L106.3139,8.635 L105.1638,8.965 L104.0138,9.295 L102.8638,9.625 L101.7356,9.948 L100.6074,10.272 L99.4792,10.596 L98.3539,10.919 L97.2588,11.228 L96.1605,11.537 L95.0623,11.847 L93.9677,12.155 L92.8979,12.45 L91.8279,12.744 L90.7785,13.026 L89.7299,13.308 L88.7039,13.575 L87.6782,13.842 L86.6747,14.094 L85.6726,14.346 L84.6968,14.579 L83.7249,14.812 L81.8298,15.239 L79.9948,15.625 L78.22788,15.963 L76.53144,16.249 L74.90446,16.485 L73.35984,16.663 L71.88797,16.779 L70.60073,16.855 L69.30281,16.932 L68.03638,17.001 L66.76984,17.071 L65.53444,17.134 L64.29873,17.196 L63.09105,17.253 L61.88349,17.31 L60.70645,17.361 L59.52928,17.412 L58.38227,17.458 L57.23495,17.503 L56.11476,17.543 L54.99466,17.584 L53.90409,17.618 L52.81337,17.653 L51.75183,17.684 L50.68999,17.714 L49.65438,17.74 L48.61882,17.766 L47.61182,17.789 L46.60527,17.811 L44.6464,17.848 L42.73852,17.879 L40.88558,17.904 L39.08656,17.923 L37.33607,17.939 L35.63844,17.95 L33.99272,17.958 L32.39365,17.964 L30.84533,17.967 L29.34689,17.969 L27.8932,17.97 L26.48809,17.971 L25.13081,17.973 L23.81632,17.976 L22.54817,17.981 L21.32577,17.989 L20.14415,18 L19.0065,18.016 L17.91247,18.036 L16.8571,18.061 L15.8432,18.092 L14.8707,18.13 L13.9346,18.175 L13.03723,18.229 L12.17894,18.292 L11.35461,18.363 L10.56594,18.446 L9.81389,18.54 L9.0931,18.646 L8.40456,18.765 L7.75008,18.899 L7.12403,19.048 L6.52661,19.214 L5.96098,19.398 L5.42132,19.6 L4.90741,19.825 L4.42454,20.073 L3.96733,20.344 L3.53608,20.643 L3.13833,20.968 L2.76952,21.318 L2.431,21.7 L2.13006,22.104 L1.86187,22.532 L1.62736,22.987 L1.42994,23.46 L1.26395,23.951 L1.12953,24.465 L1.02664,24.995 L0.95032,25.542 L0.90095,26.113 L0.87733,26.701 L0.87579,27.31 L0.89722,27.944 L0.9403,28.6 L1.00226,29.279 L1.08421,29.986 L1.18496,30.72 L1.30225,31.479 L1.43713,32.269 L1.58857,33.089 L1.75458,33.938 L1.93606,34.82 L2.13212,35.735 L2.34092,36.681 L2.56321,37.662 L2.79816,38.68 L3.0441,39.73 L3.30156,40.818 L3.56979,41.945 L3.84731,43.107 L4.1345,44.308 L4.43057,45.551 L4.73415,46.83 L5.04538,48.152 L5.36359,49.517 L5.68756,50.921 L6.01724,52.369 L6.35198,53.862 L6.69085,55.397 L7.03357,56.978 L7.37945,58.606 L7.72757,60.277 L8.07751,61.996 L8.42717,63.757 L8.58279,64.665 L8.69431,65.593 L8.76557,66.553 L8.80173,67.539 L8.80008,68.549 L8.76245,69.587 L8.69363,70.646 L8.59226,71.725 L8.46007,72.826 L8.30161,73.944 L8.11622,75.078 L7.90568,76.228 L7.67409,77.39 L7.42174,78.564 L7.15065,79.749 L6.86391,80.942 L6.56204,82.143 L6.24739,83.349 L5.91756,84.563 L5.58782,85.777 L5.24421,86.991 L4.89978,88.209 L4.55033,89.422 L4.20005,90.638 L3.85691,91.837 L3.51404,93.036 L3.17117,94.234 L2.82543,95.443 L2.5162,96.61 L2.20986,97.766 L1.90352,98.922 L1.59107,100.101 L1.3508,101.216 L1.11706,102.305 L0.88363,103.394 L0.64586,104.504 L0.46067,105.58 L0.30543,106.624 L0.18048,107.645 L0.08493,108.645 L0.02382,109.624 L0,110.577 L0.01236,111.506 L0.06716,112.412 L0.16726,113.287 L0.31171,114.137 L0.50866,114.96 L0.75614,115.737 L0.93567,116.185 L1.14857,116.617 L1.39395,117.037 L1.66902,117.448 L1.97719,117.853 L2.31412,118.248 L2.67792,118.637 L3.07227,119.02 L3.49359,119.396 L3.9403,119.767 L4.41602,120.133 L4.91781,120.494 L5.44412,120.851 L5.9983,121.204 L6.57795,121.553 L7.18137,121.899 L7.8117,122.241 L8.46686,122.58 L9.14509,122.915 L9.84924,123.248 L10.57754,123.577 L11.32817,123.904 L12.10374,124.227 L12.90271,124.548 L13.72319,124.866 L14.56763,125.181 L15.43464,125.493 L16.32234,125.803 L17.23296,126.11 L18.16931,126.415 L20.08636,127.013 L21.09397,127.308 L22.09825,127.603 L23.1439,127.892 L24.18853,128.181 L25.26958,128.465 L26.3509,128.749 L27.47094,129.028 L28.59065,129.306 L29.74755,129.578 L30.90369,129.85 L32.09243,130.117 L33.2813,130.385 L34.50457,130.646 L35.72763,130.908 L36.98368,131.164 L38.23914,131.42 L39.52337,131.67 L40.80784,131.92 L42.12261,132.164 L43.43722,132.408 L44.78059,132.646 L46.12348,132.884 L47.49129,133.115 L48.85933,133.347 L50.25342,133.572 L51.6474,133.798 L53.06591,134.016 L54.48402,134.235 L55.92321,134.448 L57.36251,134.661 L58.82358,134.868 L60.28456,135.074 L61.76583,135.274 L63.24678,135.474 L64.74493,135.668 L66.2433,135.861 L67.75924,136.048 L69.27514,136.234 L70.80709,136.413 L72.33876,136.592 L73.88378,136.765 L75.429,136.937 L76.98755,137.102 L78.54607,137.267 L80.1164,137.425 L81.6868,137.579 L83.2669,137.723 L84.8473,137.867 L86.4366,138.003 L88.026,138.139 L89.6228,138.267 L91.2204,138.396 L92.8257,138.513 L94.4282,138.628 L96.0307,138.743 L97.6375,138.859 L99.2511,138.958 L100.8605,139.057 L102.4699,139.156 L104.0833,139.255 L105.6973,139.339 L107.3071,139.425 L108.9169,139.511 L110.5303,139.598 L112.1394,139.669 L113.7449,139.74 L115.3504,139.811 L116.9598,139.882 L118.5591,139.936 L120.1545,139.991 L121.7498,140.045 L123.3491,140.099 L124.9321,140.136 L126.5111,140.173 L128.0901,140.21 L129.6718,140.247 L131.2393,140.273 L132.806,140.3 L134.3606,140.317 L135.9151,140.334 L137.456,140.342 L138.9966,140.35 L140.5236,140.35 L142.0507,140.35 L143.5615,140.339 L145.0722,140.329 L146.5649,140.309 L148.0575,140.29 L149.5325,140.261 L151.0078,140.233 L152.4623,140.194 L153.9169,140.156 L155.3492,140.108 L156.7814,140.06 L158.1921,140.003 L159.6032,139.946 L160.9892,139.879 L162.3754,139.812 L163.735,139.734 L165.0945,139.657 L166.4287,139.57 L167.7633,139.484 L169.0687,139.388 L170.3742,139.292 L171.649,139.185 L172.9236,139.078 L174.169,138.961 L175.4149,138.845 L176.6274,138.717 L177.84,138.59 L179.0177,138.452 L180.1952,138.313 L181.3397,138.165 L182.4847,138.017 L183.5922,137.857 L184.6998,137.698 L185.7683,137.527 L186.8366,137.356 L187.868,137.175 L188.9002,136.994 L189.8906,136.802 L190.8834,136.608 L192.7758,136.2 L194.5899,135.77 L196.3136,135.316 L197.9384,134.839 L198.7244,134.59 L199.4823,134.336 L200.2149,134.075 L200.9249,133.809 L201.6101,133.536 L202.2691,133.256 L202.9045,132.971 L203.5144,132.678 L204.097,132.378 L204.6553,132.072 L205.1873,131.758 L205.6909,131.437 L206.1693,131.109 L206.6204,130.771 L207.042,130.427 L207.4372,130.074 L207.804,129.71 L208.1395,129.339 L208.447,128.959 L208.7239,128.567 L208.9672,128.166 L209.1799,127.757 L209.3589,127.335 L209.5015,126.906 L209.6107,126.469 L209.6829,126.022 L209.7169,125.57 L209.7158,125.113 L209.6764,124.648 L209.6027,124.203 C209.5486,123.876 209.2397,123.654 208.9128,123.709 C208.5858,123.763 208.3647,124.072 208.4188,124.398 L208.4849,124.798 L208.5155,125.165 L208.5155,125.526 L208.4884,125.88 L208.4319,126.226 L208.3454,126.569 L208.2322,126.908 L208.0899,127.241 L207.9165,127.574 L207.7154,127.903 L207.4846,128.229 L207.2217,128.553 L206.9305,128.874 L206.6093,129.191 L206.2561,129.505 L205.8749,129.816 L205.464,130.122 L205.0221,130.424 L204.5529,130.722 L204.055,131.015 L203.5273,131.303 L202.9734,131.586 L202.3918,131.864 L201.7817,132.137 L201.1466,132.405 L200.485,132.668 L199.7961,132.925 L199.0833,133.177 L198.3451,133.423 L197.5851,133.662 L195.9846,134.129 L194.2916,134.573 L192.5039,134.993 L190.6313,135.393 L189.6544,135.582 L188.6752,135.77 L187.6537,135.948 L186.6315,136.125 L185.5722,136.293 L184.5131,136.46 L183.4146,136.616 L182.3158,136.773 L181.1792,136.918 L180.042,137.063 L178.8716,137.199 L177.7015,137.334 L176.4962,137.459 L175.2908,137.583 L174.0517,137.697 L172.8123,137.811 L171.5436,137.915 L170.275,138.019 L168.9757,138.113 L167.6762,138.206 L166.3474,138.29 L165.0182,138.372 L163.6636,138.445 L162.3093,138.518 L160.9283,138.581 L159.5473,138.643 L158.1413,138.696 L156.735,138.748 L155.3072,138.792 L153.8796,138.835 L152.4297,138.868 L150.9797,138.901 L149.509,138.924 L148.0381,138.948 L146.5495,138.962 L145.0612,138.976 L143.5548,138.981 L142.0484,138.986 L140.5255,138.981 L139.0024,138.976 L137.4655,138.963 L135.9289,138.95 L134.3785,138.927 L132.828,138.904 L131.2654,138.872 L129.7035,138.84 L128.1274,138.794 L126.5486,138.748 L124.9699,138.701 L123.3951,138.655 L121.804,138.59 L120.209,138.526 L118.6141,138.461 L117.0231,138.397 L115.422,138.314 L113.8171,138.232 L112.2121,138.149 L110.6108,138.066 L109.0053,137.968 L107.3962,137.87 L105.7871,137.772 L104.1822,137.671 L102.5783,137.553 L100.9703,137.434 L99.3623,137.315 L97.7586,137.196 L96.162,137.061 L94.5611,136.926 L92.9601,136.792 L91.3621,136.659 L89.772,136.516 L88.1812,136.373 L86.5979,136.222 L85.0147,136.071 L83.4406,135.912 L81.8664,135.753 L80.3014,135.591 L78.73632,135.432 L77.18307,135.266 L75.62986,135.1 L74.09002,134.926 L72.54998,134.752 L71.02334,134.572 L69.497,134.392 L67.98673,134.205 L66.4765,134.018 L64.98392,133.824 L63.49114,133.63 L62.01563,133.429 L60.54045,133.229 L59.08564,133.022 L57.6309,132.815 L56.19816,132.6 L54.7653,132.385 L53.3536,132.164 L51.94229,131.944 L50.55563,131.716 L49.16908,131.489 L47.80873,131.255 L46.44817,131.021 L45.11266,130.782 L43.77763,130.542 L42.47153,130.297 L41.16558,130.051 L39.89012,129.799 L38.61443,129.548 L37.36768,129.291 L36.12152,129.034 L34.90858,128.771 L33.69585,128.508 L32.51802,128.239 L31.34006,127.97 L30.19497,127.695 L29.05063,127.421 L27.94384,127.141 L26.83735,126.861 L25.76998,126.576 L24.70234,126.291 L23.67149,126.001 L22.64165,125.711 L21.65369,125.417 L20.66906,125.123 L18.7743,124.521 L17.86515,124.219 L16.9755,123.914 L16.10889,123.606 L15.26401,123.297 L14.44388,122.986 L13.64791,122.672 L12.87477,122.357 L12.12769,122.041 L11.40589,121.722 L10.70807,121.402 L10.03767,121.081 L9.39373,120.758 L8.77493,120.434 L8.18501,120.109 L7.62269,119.783 L7.08674,119.457 L6.58119,119.131 L6.10437,118.804 L5.65514,118.477 L5.2378,118.152 L4.85021,117.826 L4.49126,117.503 L4.16544,117.183 L3.86995,116.864 L3.60356,116.548 L3.37065,116.238 L3.16765,115.931 L2.99285,115.629 L2.84994,115.335 L2.73881,115.054 L2.53417,114.402 L2.37561,113.722 L2.25672,112.997 L2.17371,112.234 L2.12982,111.434 L2.12341,110.595 L2.14997,109.723 L2.21142,108.82 L2.30615,107.883 L2.42953,106.918 L2.58256,105.926 L2.76116,104.92 L2.99618,103.853 L3.23553,102.765 L3.47459,101.677 L3.7071,100.615 L4.01174,99.485 L4.32249,98.33 L4.63324,97.175 L4.9411,96.031 L5.28567,94.844 L5.63311,93.646 L5.98055,92.449 L6.32772,91.253 L6.68193,90.04 L7.03697,88.823 L7.38699,87.601 L7.73783,86.377 L8.07474,85.153 L8.41155,83.929 L8.73566,82.704 L9.04696,81.483 L9.34341,80.267 L9.62467,79.056 L9.8869,77.851 L10.12767,76.655 L10.34755,75.467 L10.54259,74.289 L10.71013,73.123 L10.8509,71.97 L10.96028,70.829 L11.03555,69.704 L11.07787,68.595 L11.08174,67.501 L11.04453,66.428 L10.9672,65.373 L10.84346,64.337 L10.67273,63.334 L10.31956,61.547 L9.96897,59.816 L9.62029,58.135 L9.27389,56.498 L8.93058,54.908 L8.59107,53.365 L8.25555,51.864 L7.92513,50.409 L7.60062,48.999 L7.28204,47.629 L6.97058,46.303 L6.66702,45.02 L6.37123,43.775 L6.08459,42.573 L5.80777,41.411 L5.54053,40.287 L5.28449,39.203 L5.04035,38.158 L4.80765,37.149 L4.58822,36.179 L4.38266,35.246 L4.19037,34.347 L4.01337,33.485 L3.85219,32.659 L3.70604,31.866 L3.57713,31.109 L3.46586,30.387 L3.37124,29.696 L3.29555,29.041 L3.23905,28.419 L3.20041,27.828 L3.1818,27.273 L3.18335,26.75 L3.20315,26.257 L3.24281,25.8 L3.30257,25.373 L3.37968,24.975 L3.47482,24.611 L3.58937,24.273 L3.71999,23.96 L3.86702,23.675 L4.03529,23.407 L4.22189,23.156 L4.42834,22.924 L4.66337,22.701 L4.92411,22.488 L5.21272,22.288 L5.53819,22.096 L5.89622,21.912 L6.28854,21.741 L6.72183,21.579 L7.19098,21.427 L7.69759,21.287 L8.24625,21.157 L8.83187,21.038 L9.45662,20.931 L10.12375,20.834 L10.82858,20.746 L11.57392,20.669 L12.36217,20.602 L13.18901,20.542 L14.05783,20.491 L14.97043,20.449 L15.92276,20.412 L16.91869,20.383 L17.95959,20.36 L19.04155,20.341 L20.16883,20.328 L21.34251,20.319 L22.5587,20.313 L23.82203,20.31 L25.13334,20.309 L26.48873,20.309 L27.8931,20.31 L29.34715,20.311 L30.84692,20.312 L32.39755,20.312 L33.99963,20.311 L35.64909,20.307 L37.35134,20.3 L39.10686,20.289 L40.91146,20.273 L42.77079,20.253 L44.68524,20.227 L46.64988,20.195 L47.66139,20.175 L48.67244,20.155 L49.71193,20.132 L50.75137,20.108 L51.81697,20.081 L52.88287,20.053 L53.97785,20.021 L55.07297,19.989 L56.19754,19.952 L57.32202,19.915 L58.47355,19.874 L59.62539,19.832 L60.8073,19.785 L61.98933,19.737 L63.20179,19.684 L64.41411,19.631 L65.65439,19.572 L66.89498,19.513 L68.16662,19.447 L69.43837,19.382 L70.74153,19.309 L72.05539,19.236 L73.59506,19.119 L75.21991,18.938 L76.91209,18.698 L78.66433,18.408 L80.4813,18.067 L82.3572,17.679 L84.282,17.252 L85.2763,17.018 L86.2667,16.784 L87.283,16.532 L88.2978,16.281 L89.3347,16.015 L90.3712,15.749 L91.43,15.468 L92.488,15.188 L93.5664,14.895 L94.6448,14.602 L95.7477,14.295 L96.847,13.989 L97.9462,13.683 L99.0485,13.376 L100.1808,13.055 L101.3101,12.735 L102.4393,12.415 L103.5686,12.095 L104.7196,11.768 L105.8706,11.441 L107.0215,11.114 L108.171,10.788 L109.3313,10.461 L110.4911,10.135 L111.6563,9.811 L112.8208,9.487 L113.9888,9.167 L115.1563,8.847 L116.3251,8.532 L117.493,8.217 L118.6606,7.91 L119.8275,7.604 L120.9921,7.307 L122.1565,7.01 L123.3171,6.723 L124.4765,6.437 L125.63,6.164 L126.7826,5.892 L127.9271,5.635 L129.0716,5.377 L130.2071,5.136 L131.3411,4.894 L132.4633,4.672 L133.5845,4.45 L134.6919,4.248 L135.7993,4.047 L136.8925,3.866 L137.9836,3.685 L139.0571,3.529 L140.1294,3.372 L141.182,3.242 L142.2347,3.112 L143.268,3.007 L144.2984,2.903 L145.3055,2.828 L146.3108,2.753 L147.2907,2.711 L148.276,2.667 L149.2314,2.647 L150.1755,2.644 L151.105,2.658 L152.0198,2.688 L152.9166,2.736 L153.7974,2.803 L154.6619,2.887 L155.5067,2.991 L156.3341,3.114 L157.1438,3.255 L157.9319,3.416 L158.7014,3.598 L159.4518,3.799 L160.1791,4.02 L160.8867,4.263 L161.5742,4.526 L162.2364,4.811 L162.878,5.119 L163.4986,5.448 L164.0937,5.797 L164.6678,6.171 L165.2207,6.566 L165.7479,6.982 L166.2568,7.428 L167.3291,8.425 L168.3793,9.432 L169.4063,10.45 L170.412,11.475 L171.3911,12.511 L172.3437,13.553 L173.2728,14.615 L174.1976,15.671 L175.0781,16.744 L175.959,17.816 L176.7972,18.904 L177.637,19.994 L178.4393,21.097 L179.2436,22.196 L180.0075,23.31 L180.772,24.424 L181.4977,25.552 L182.2249,26.682 L182.918,27.825 L183.6105,28.965 L184.2667,30.119 L184.9238,31.273 L185.5474,32.438 L186.1724,33.605 L186.7667,34.783 L187.3608,35.96 L187.9223,37.148 L188.4844,38.336 L189.0154,39.535 L189.5476,40.736 L190.0527,41.946 L190.5586,43.155 L191.0359,44.373 L191.5136,45.592 L191.9642,46.82 L192.4156,48.049 L192.8434,49.287 L193.2711,50.523 L193.674,51.767 L194.0774,53.012 L194.4576,54.264 L194.8385,55.517 L195.1993,56.777 L195.56,58.036 L195.8998,59.301 L196.2399,60.567 L196.5604,61.838 L196.8803,63.106 L197.1758,64.38 L197.4748,65.668 L197.7737,66.957 L198.0685,68.227 L198.3315,69.504 L198.5986,70.799 L198.8656,72.095 L199.1296,73.375 L199.3674,74.66 L199.6081,75.96 L199.8494,77.259 L200.0891,78.548 L200.3095,79.838 L200.5318,81.14 L200.7542,82.442 L200.9749,83.734 L201.1793,85.026 L201.3851,86.328 L201.591,87.629 L201.7959,88.924 L201.99,90.217 L202.185,91.516 L202.3801,92.814 L202.5747,94.11 L202.7639,95.401 L202.9535,96.695 L203.1431,97.989 L203.3327,99.283 L203.5213,100.569 L203.7099,101.856 L203.8985,103.142 L204.0876,104.432 L204.2813,105.712 L204.4745,106.988 L204.6677,108.265 L204.8615,109.545 L205.0613,110.817 L205.2611,112.09 L205.4669,113.355 L205.6728,114.621 L205.8862,115.88 L206.0996,117.139 L206.3209,118.391 L206.5424,119.645 L206.7739,120.889 L207.0055,122.135 L207.2484,123.371 L207.4898,124.6 C207.655,125.44 208.4698,125.987 209.3098,125.821 C210.1497,125.656 210.6968,124.841 210.5316,124.001 Z" id="Fill-21"></path>
        </g>
    </g>
</svg>
