<?xml version="1.0" encoding="UTF-8"?>
<svg width="201px" height="104px" viewBox="0 0 201 104" version="1.1" xmlns="http://www.w3.org/2000/svg" xmlns:xlink="http://www.w3.org/1999/xlink">
    <title>68</title>
    <g id="Page-1" stroke="none" stroke-width="1" fill="none" fill-rule="evenodd">
        <g id="68" transform="translate(0.703780, 0.473000)" fill="currentColor">
            <path d="M120.89262,101.818 C241.29582,106.324 225.75652,-45.516 47.39884,15.822 C-79.1318,59.336 86.94374,138.98 145.10742,78.914" id="Fill-18"></path>
            <path d="M120.84412,103.367 L122.72552,103.426 L124.59492,103.458 L126.44062,103.465 L128.26582,103.449 L130.06932,103.407 L131.84912,103.341 L133.60822,103.252 L135.34562,103.138 L137.05922,103.001 L138.75212,102.842 L140.42322,102.66 L142.07032,102.455 L143.69672,102.229 L145.30132,101.98 L146.88172,101.71 L148.44142,101.42 L149.97912,101.108 L151.49262,100.775 L152.98522,100.423 L154.45592,100.05 L155.90222,99.657 L157.32752,99.246 L158.73072,98.815 L160.10962,98.365 L161.46732,97.898 L162.80262,97.411 L164.11312,96.906 L165.40242,96.384 L166.66942,95.844 L167.91172,95.287 L169.13272,94.715 L170.33122,94.125 L171.50502,93.519 L172.65732,92.898 L173.78702,92.261 L174.89182,91.61 L175.97502,90.944 L177.03562,90.263 L178.07122,89.567 L179.08502,88.859 L180.07612,88.137 L181.04192,87.401 L181.98582,86.653 L182.90672,85.891 L183.80242,85.117 L184.67622,84.333 L185.52682,83.535 L186.35202,82.726 L187.15522,81.908 L187.93512,81.077 L188.68902,80.236 L189.42042,79.385 L190.12822,78.524 L190.81052,77.653 L191.47042,76.775 L192.10662,75.886 L192.71732,74.989 L193.30542,74.086 L193.86952,73.172 L194.40812,72.253 L194.92252,71.326 L195.41252,70.39 L195.87692,69.45 L196.31852,68.503 L196.73572,67.55 L197.12712,66.592 L197.49562,65.63 L197.83962,64.661 L198.15782,63.69 L198.45302,62.714 L198.72142,61.733 L198.96302,60.749 L199.18152,59.763 L199.37492,58.773 L199.54262,57.782 L199.68712,56.79 L199.80642,55.794 L199.89992,54.799 L199.97032,53.803 L200.01512,52.805 L200.03462,51.808 L200.03462,50.812 L200.00882,49.814 L199.95752,48.819 L199.88292,47.824 L199.78252,46.83 L199.65672,45.839 L199.50742,44.85 L199.33222,43.861 L199.13152,42.878 L198.90752,41.897 L198.65862,40.918 L198.38612,39.943 L198.09012,38.973 L197.76792,38.005 L197.42042,37.044 L197.04952,36.087 L196.65212,35.135 L196.22962,34.19 L195.78362,33.25 L195.31102,32.316 L194.81342,31.39 L194.29222,30.47 L193.74452,29.557 L193.17172,28.653 L192.57542,27.756 L191.95252,26.867 L191.30472,25.988 L190.63332,25.118 L189.93532,24.256 L189.21252,23.405 L188.46602,22.563 L187.69252,21.731 L186.89422,20.912 L186.07252,20.102 L185.22402,19.303 L184.35082,18.517 L183.45422,17.742 L182.53082,16.979 L181.58272,16.229 L180.61122,15.492 L179.61292,14.767 L178.58992,14.057 L177.54342,13.36 L176.47022,12.676 L175.37232,12.008 L174.25102,11.354 L173.10282,10.714 L171.92992,10.091 L170.73322,9.483 L169.50972,8.891 L168.26142,8.316 L166.98982,7.757 L165.69132,7.214 L164.36812,6.69 L163.02142,6.182 L161.64782,5.692 L160.24932,5.221 L158.82742,4.767 L157.37862,4.332 L155.90502,3.917 L154.40782,3.519 L152.88392,3.142 L151.33492,2.785 L149.76242,2.447 L148.16312,2.13 L146.53872,1.834 L144.89072,1.558 L143.21582,1.304 L141.51582,1.072 L139.79212,0.861 L138.04152,0.673 L136.26572,0.507 L134.46612,0.363 L132.63962,0.243 L130.78782,0.147 L128.91212,0.074 L127.00962,0.025 L125.08152,0 L123.12962,0 L121.15082,0.025 L119.14862,0.075 L118.13242,0.112 L117.11792,0.149 L116.09012,0.199 L115.06242,0.249 L114.02152,0.313 L112.98132,0.377 L111.92902,0.453 L110.87612,0.529 L109.80992,0.619 L108.74382,0.709 L107.66452,0.813 L106.58572,0.917 L105.49502,1.033 L104.40362,1.15 L103.29892,1.281 L102.19432,1.411 L101.07642,1.557 L99.95902,1.702 L98.82952,1.859 L97.69952,2.017 L96.55612,2.19 L95.41272,2.363 L94.25602,2.55 L93.09992,2.738 L91.93172,2.939 L90.76292,3.14 L89.58072,3.357 L88.39852,3.573 L87.20299,3.804 L86.00798,4.036 L84.8008,4.282 L83.5931,4.527 L82.372,4.789 L81.15091,5.05 L79.91634,5.327 L78.68221,5.604 L77.43586,5.895 L76.18903,6.186 L74.92873,6.493 L73.66845,6.8 L72.3947,7.124 L71.12145,7.447 L69.83595,7.786 L68.54997,8.124 L67.2505,8.48 L65.95104,8.835 L64.63808,9.207 L63.32559,9.579 L62.00081,9.966 L60.67558,10.353 L59.33686,10.758 L57.99816,11.163 L56.64592,11.585 L55.29413,12.006 L53.93002,12.444 L52.56548,12.882 L51.18738,13.337 L49.80933,13.793 L48.41773,14.266 L47.0269,14.739 L46.04424,15.083 L45.06133,15.427 L44.10269,15.774 L43.14205,16.121 L41.27536,16.82 L39.45049,17.526 L37.67257,18.238 L35.94227,18.955 L34.25441,19.677 L32.61231,20.405 L31.01694,21.138 L29.46351,21.876 L27.95472,22.62 L26.49152,23.367 L25.06884,24.119 L23.68969,24.876 L22.35511,25.637 L21.06026,26.402 L19.80787,27.172 L18.59904,27.945 L17.42882,28.722 L16.29994,29.503 L15.21364,30.287 L14.16501,31.074 L13.15692,31.865 L12.19096,32.66 L11.26178,33.458 L10.37188,34.26 L9.52269,35.063 L8.70944,35.87 L7.93452,36.68 L7.19941,37.491 L6.49943,38.305 L5.83692,39.123 L5.21336,39.941 L4.6242,40.762 L4.07173,41.586 L3.55741,42.41 L3.0768,43.236 L2.63222,44.066 L2.22497,44.894 L1.8508,45.724 L1.51206,46.557 L1.20979,47.388 L0.93996,48.22 L0.70494,49.054 L0.50544,49.886 L0.33766,50.718 L0.20407,51.55 L0.10491,52.38 L0.03661,53.208 L0,54.037 L0,54.862 L0.02813,55.685 L0.08872,56.507 L0.18106,57.324 L0.30211,58.139 L0.4545,58.951 L0.63663,59.759 L0.84623,60.563 L1.086,61.364 L1.35456,62.16 L1.64935,62.952 L1.97306,63.74 L2.32411,64.523 L2.70018,65.3 L3.10392,66.075 L3.53366,66.842 L3.98723,67.605 L4.46725,68.363 L4.97154,69.116 L5.49828,69.863 L6.05029,70.605 L6.62586,71.341 L7.22311,72.072 L7.84448,72.797 L8.48828,73.515 L9.15274,74.227 L9.84019,74.934 L10.55508,75.64 L12.02083,77.011 L12.80596,77.693 L13.5864,78.37 L14.40748,79.033 L15.22715,79.695 L16.08255,80.344 L16.9388,80.994 L17.833,81.629 L18.72693,82.263 L19.65727,82.882 L20.58588,83.501 L21.54633,84.105 L22.50761,84.71 L23.50264,85.298 L24.49748,85.886 L25.52455,86.457 L26.55051,87.028 L27.60456,87.582 L28.65942,88.136 L29.74394,88.672 L30.82833,89.208 L31.94076,89.725 L33.05218,90.241 L34.18789,90.74 L35.3244,91.239 L36.48628,91.718 L37.64808,92.197 L38.83489,92.652 L40.02183,93.104 L41.22915,93.536 L42.43714,93.968 L43.66621,94.379 L44.89513,94.789 L46.14361,95.177 L47.39114,95.565 L48.65556,95.93 L49.92093,96.294 L51.20314,96.635 L52.48519,96.976 L53.78257,97.292 L55.07906,97.607 L56.38825,97.901 L57.69804,98.194 L59.01989,98.464 L60.34143,98.736 L61.67417,98.981 L63.00617,99.226 L64.34712,99.447 L65.68874,99.668 L67.0389,99.861 L68.38902,100.055 L69.74606,100.221 L71.10238,100.388 L72.46388,100.528 L73.82607,100.668 L75.19262,100.779 L76.5592,100.89 L77.92859,100.971 L79.29723,101.054 L80.66721,101.109 L82.03796,101.165 L83.40891,101.19 L84.77998,101.214 L86.14971,101.207 L87.51882,101.2 L88.88542,101.164 L90.25292,101.127 L91.61642,101.058 L92.98002,100.988 L94.33812,100.886 L95.69562,100.783 L97.04682,100.649 L98.39882,100.514 L99.74272,100.346 L101.08682,100.177 L102.42112,99.973 L103.75482,99.769 L105.07842,99.532 L106.40292,99.295 L107.71502,99.022 L109.02732,98.748 L110.32592,98.438 L111.62382,98.128 L112.90792,97.784 L114.19302,97.439 L115.46152,97.056 L116.73022,96.673 L117.98072,96.251 L119.23062,95.828 L120.46272,95.37 L121.69592,94.911 L122.90822,94.412 L124.12082,93.913 L125.31102,93.372 L126.49802,92.833 L127.67412,92.263 L128.83632,91.673 L129.98562,91.062 L131.12312,90.432 L132.24792,89.779 L133.35862,89.106 L134.45662,88.412 L135.54082,87.696 L136.60992,86.958 L137.66532,86.2 L138.70572,85.419 L139.73002,84.616 L140.73962,83.792 L141.73312,82.945 L142.70942,82.075 L143.67002,81.184 L144.61342,80.269 L145.53422,79.335 C145.76712,79.1 145.76492,78.72 145.52922,78.487 C145.29352,78.254 144.91362,78.256 144.68072,78.492 L143.76752,79.414 L142.84142,80.308 L141.89762,81.18 L140.93852,82.031 L139.96332,82.86 L138.97142,83.666 L137.96502,84.452 L136.94352,85.215 L135.90632,85.957 L134.85562,86.679 L133.79082,87.379 L132.71132,88.058 L131.61922,88.717 L130.51402,89.355 L129.39522,89.972 L128.26472,90.57 L127.12212,91.148 L125.96922,91.703 L124.79522,92.234 L123.62442,92.763 L122.43142,93.251 L121.23822,93.739 L120.02432,94.188 L118.80932,94.637 L117.57682,95.051 L116.34502,95.464 L115.09512,95.839 L113.84512,96.214 L112.57852,96.55 L111.31092,96.887 L110.02952,97.19 L108.74872,97.493 L107.45392,97.758 L106.15902,98.023 L104.85172,98.252 L103.54352,98.481 L102.22542,98.677 L100.90792,98.874 L99.58082,99.035 L98.25352,99.197 L96.91812,99.324 L95.58182,99.451 L94.23942,99.547 L92.89762,99.643 L91.55042,99.706 L90.20312,99.769 L88.85182,99.799 L87.49982,99.83 L86.14542,99.831 L84.79168,99.833 L83.43672,99.803 L82.08164,99.773 L80.72688,99.712 L79.37134,99.651 L78.01736,99.562 L76.66412,99.472 L75.31393,99.352 L73.9637,99.232 L72.61804,99.083 L71.27165,98.935 L69.93064,98.76 L68.59033,98.586 L67.25738,98.383 L65.92445,98.18 L64.6003,97.95 L63.27548,97.72 L61.95987,97.466 L60.64501,97.212 L59.34161,96.932 L58.03851,96.651 L56.74906,96.343 L55.45903,96.034 L54.18208,95.703 L52.90604,95.372 L51.64573,95.017 L50.38558,94.662 L49.1427,94.284 L47.89887,93.907 L46.67161,93.511 L45.44528,93.114 L44.23886,92.696 L43.0326,92.278 L41.84778,91.838 L40.66229,91.399 L39.4975,90.94 L38.33257,90.485 L37.19051,90.012 L36.04854,89.54 L34.93211,89.048 L33.81488,88.556 L32.72209,88.046 L31.6303,87.537 L30.56675,87.01 L29.50333,86.483 L28.46958,85.938 L27.43502,85.393 L26.42873,84.832 L25.42355,84.273 L24.45081,83.696 L23.47827,83.12 L22.5397,82.528 L21.6003,81.936 L20.69307,81.33 L19.78757,80.724 L18.91874,80.104 L18.05017,79.484 L17.2198,78.85 L16.38856,78.216 L15.59325,77.569 L14.79933,76.925 L14.04627,76.267 L13.29789,75.615 L11.8657,74.267 L11.1908,73.597 L10.53273,72.917 L9.8967,72.231 L9.28157,71.541 L8.69038,70.847 L8.1222,70.148 L7.57582,69.445 L7.05435,68.74 L6.55683,68.029 L6.08225,67.316 L5.63397,66.6 L5.21058,65.88 L4.81064,65.157 L4.43738,64.433 L4.08988,63.705 L3.76657,62.975 L3.47069,62.244 L3.20142,61.51 L2.95702,60.774 L2.74072,60.037 L2.55189,59.298 L2.3886,58.557 L2.25454,57.817 L2.14889,57.073 L2.06946,56.328 L2.01934,55.584 L1.99861,54.836 L2.00487,54.088 L2.04113,53.339 L2.10793,52.588 L2.20261,51.836 L2.32814,51.084 L2.48552,50.329 L2.67184,49.573 L2.89001,48.818 L3.14152,48.059 L3.42316,47.3 L3.7378,46.541 L4.08726,45.779 L4.46811,45.016 L4.88322,44.254 L5.33464,43.489 L5.81873,42.724 L6.33836,41.96 L6.89574,41.194 L7.48702,40.428 L8.11513,39.663 L8.78231,38.898 L9.48457,38.132 L10.2249,37.368 L11.00555,36.604 L11.82237,35.841 L12.67847,35.08 L13.57604,34.319 L14.51084,33.56 L15.48561,32.803 L16.50268,32.046 L17.55802,31.292 L18.65496,30.54 L19.79551,29.791 L20.9753,29.044 L22.19782,28.3 L23.46492,27.559 L24.77203,26.82 L26.12298,26.086 L27.51955,25.355 L28.95725,24.627 L30.43987,23.904 L31.96908,23.184 L33.53993,22.468 L35.15664,21.756 L36.82095,21.048 L38.5283,20.345 L40.28271,19.648 L42.08563,18.955 L43.93412,18.265 L44.87946,17.924 L45.82681,17.582 L46.79867,17.243 L47.77077,16.904 L49.15436,16.435 L50.53718,15.966 L51.90625,15.515 L53.27525,15.064 L54.63056,14.63 L55.98627,14.196 L57.32953,13.778 L58.67234,13.36 L60.00146,12.959 L61.33056,12.558 L62.64594,12.175 L63.96176,11.791 L65.26517,11.422 L66.56809,11.053 L67.85736,10.702 L69.14662,10.35 L70.42223,10.015 L71.69831,9.679 L72.96199,9.359 L74.22518,9.039 L75.47474,8.735 L76.72429,8.43 L77.96022,8.142 L79.19664,7.854 L80.4207,7.581 L81.64431,7.307 L82.85438,7.05 L84.06444,6.793 L85.2609,6.552 L86.45788,6.31 L87.64252,6.082 L88.82662,5.855 L89.99712,5.642 L91.16762,5.43 L92.32452,5.233 L93.48202,5.036 L94.62722,4.853 L95.77182,4.669 L96.90292,4.5 L98.03392,4.332 L99.15142,4.178 L100.26952,4.024 L101.37532,3.883 L102.48052,3.742 L103.57222,3.616 L104.66392,3.49 L105.74212,3.378 L106.82092,3.266 L107.88742,3.166 L108.95332,3.067 L110.00562,2.981 L111.05802,2.896 L112.09682,2.824 L113.13632,2.752 L114.16362,2.692 L115.19022,2.632 L116.20332,2.586 L117.21642,2.539 L118.21602,2.506 L119.21402,2.473 L121.19182,2.429 L123.13972,2.412 L125.06142,2.421 L126.95872,2.452 L128.82842,2.507 L130.67202,2.587 L132.49132,2.688 L134.28302,2.813 L136.04882,2.961 L137.79022,3.13 L139.50412,3.321 L141.19222,3.535 L142.85612,3.768 L144.49252,4.023 L146.10312,4.299 L147.68962,4.595 L149.24872,4.91 L150.78212,5.246 L152.29152,5.6 L153.77352,5.973 L155.23002,6.366 L156.66252,6.775 L158.06772,7.203 L159.44762,7.65 L160.80352,8.112 L162.13222,8.592 L163.43582,9.089 L164.71562,9.601 L165.96822,10.129 L167.19582,10.674 L168.39962,11.233 L169.57642,11.807 L170.72822,12.397 L171.85692,12.999 L172.95872,13.616 L174.03562,14.247 L175.08922,14.89 L176.11592,15.547 L177.11792,16.217 L178.09662,16.899 L179.04872,17.593 L179.97622,18.3 L180.88052,19.017 L181.75832,19.745 L182.61172,20.486 L183.44212,21.236 L184.24612,21.995 L185.02582,22.766 L185.78252,23.546 L186.51312,24.334 L187.21992,25.133 L187.90402,25.939 L188.56222,26.753 L189.19632,27.577 L189.80782,28.408 L190.39352,29.245 L190.95532,30.091 L191.49462,30.943 L192.00842,31.801 L192.49832,32.667 L192.96592,33.538 L193.40822,34.414 L193.82672,35.296 L194.22302,36.184 L194.59422,37.075 L194.94162,37.972 L195.26692,38.873 L195.56732,39.777 L195.84402,40.686 L196.09872,41.598 L196.32702,42.512 L196.53032,43.431 L196.71162,44.352 L196.86852,45.274 L197.00172,46.199 L197.11302,47.125 L197.20012,48.051 L197.26332,48.98 L197.30492,49.909 L197.32252,50.838 L197.31622,51.768 L197.28442,52.697 L197.22872,53.624 L197.14912,54.552 L197.04802,55.479 L196.92332,56.403 L196.77462,57.326 L196.60442,58.248 L196.41082,59.165 L196.19332,60.081 L195.95432,60.995 L195.69312,61.904 L195.40982,62.811 L195.10502,63.715 L194.77722,64.614 L194.42522,65.51 L194.05182,66.401 L193.65542,67.286 L193.23482,68.167 L192.79272,69.044 L192.32792,69.913 L191.83892,70.777 L191.32992,71.636 L190.79822,72.487 L190.24212,73.333 L189.66452,74.172 L189.06432,75.002 L188.43962,75.825 L187.79352,76.641 L187.12472,77.446 L186.43142,78.245 L185.71712,79.035 L184.98062,79.815 L184.21962,80.586 L183.43712,81.348 L182.63212,82.099 L181.80242,82.84 L180.95132,83.571 L180.07772,84.289 L179.17942,84.997 L178.25972,85.694 L177.31782,86.377 L176.35112,87.049 L175.36302,87.709 L174.35252,88.355 L173.31722,88.988 L172.26052,89.608 L171.18152,90.213 L170.07772,90.804 L168.95262,91.382 L167.80512,91.944 L166.63292,92.49 L165.43932,93.022 L164.22342,93.537 L162.98282,94.036 L161.72092,94.52 L160.43682,94.986 L159.12832,95.436 L157.79852,95.869 L156.44642,96.284 L155.06962,96.681 L153.67152,97.06 L152.25112,97.42 L150.80622,97.76 L149.33992,98.082 L147.85142,98.384 L146.33842,98.665 L144.80412,98.927 L143.24762,99.168 L141.66672,99.387 L140.06462,99.586 L138.44022,99.763 L136.79162,99.917 L135.12182,100.05 L133.42972,100.16 L131.71352,100.247 L129.97612,100.311 L128.21662,100.351 L126.43302,100.367 L124.62832,100.36 L122.80142,100.327 L120.94102,100.269 C120.08542,100.242 119.37012,100.914 119.34332,101.769 C119.31662,102.625 119.98852,103.34 120.84412,103.367 Z" id="Fill-19"></path>
        </g>
    </g>
</svg>
