<?xml version="1.0" encoding="UTF-8"?>
<svg width="148px" height="140px" viewBox="0 0 148 140" version="1.1" xmlns="http://www.w3.org/2000/svg" xmlns:xlink="http://www.w3.org/1999/xlink">
    <title>7</title>
    <g id="Page-1" stroke="none" stroke-width="1" fill="none" fill-rule="evenodd">
        <g id="7" transform="translate(0.222000, 0.485000)">
            <path d="M10.449,92.309 L9.834,93.186 L9.132,93.946 L8.427,94.703 C7.924,95.075 7.818,95.785 8.191,96.289 C8.564,96.792 9.274,96.898 9.777,96.525 L10.706,96.072 L11.637,95.621 L12.656,95.288 C13.478,94.679 13.651,93.518 13.042,92.696 C12.433,91.873 11.272,91.7 10.449,92.309 Z" id="Fill-594" fill="#FFFFFF"></path>
            <path d="M139.115,79.885 C135.32,89.208 131.06275,99.57575 125.250125,108.163625 L125.214151,108.214396 L125.036563,108.736359 C110.677817,146.935221 -13.5462144,162.34116 2.85599019,59.9725811 L3.448,56.555 C18.226,-22.899 178.724,-17.418 139.115,79.885 Z M126.106,98.198 L102.053,125.763 C111.86917,123.60357 119.141721,117.021978 124.899492,108.676739 L125.214151,108.214396 L125.469794,107.468925 C126.386246,104.492899 126.63632,101.38818 126.106,98.198 Z M67.831,74.924 L67.045,74.962 L66.249,75.041 L65.44,75.159 L64.611,75.319 L63.773,75.519 L62.92,75.753 L62.047,76.031 L61.161,76.349 L60.26,76.705 L59.339,77.105 L58.5191512,77.4923958 L58.4053301,77.4434102 C57.1587969,76.938625 55.692,77.04175 54.492,77.848 L53.976,78.206 L53.352,78.711 L52.778,79.244 L52.228,79.809 L51.69,80.418 L51.17,81.058 L50.66,81.732 L50.155,82.447 L49.662,83.193 L49.177,83.969 L48.699,84.783 L48.235,85.624 L47.786,86.493 L47.352,87.396 L46.937,88.319 L46.54,89.265 L46.161,90.236 L45.807,91.222 L45.475,92.223 L45.176,93.248 L44.912,94.282 L44.681,95.327 L44.489,96.387 L44.341,97.449 L44.247,98.517 L44.196,99.593 L44.191,100.661 L44.231,101.726 L44.294,102.796 L44.394,103.855 L44.553,104.911 L44.783,105.969 L45.087,107.005 L45.465,108.025 L45.934,109.033 L46.487,109.998 L47.126,110.925 L47.867,111.813 L48.692,112.629 L49.599,113.38 L50.602,114.066 L51.613,114.633 L52.233,114.936 L52.818,115.19 L53.416,115.421 L54.03,115.633 L54.667,115.827 L55.316,115.998 L55.981,116.15 L56.669,116.284 L57.369,116.396 L58.086,116.49 L58.826,116.564 L59.597,116.619 L60.478,116.651 L61.372,116.645 L62.244,116.597 L63.104,116.514 L63.956,116.394 L64.785,116.236 L65.598,116.043 L66.401,115.811 L67.178,115.547 L67.937,115.251 L68.683,114.919 L69.402,114.56 L70.101,114.172 L70.786,113.754 L71.443,113.311 L72.079,112.846 L72.699,112.352 L73.293,111.84 L73.866,111.308 L74.421,110.75 L74.949,110.177 L75.456,109.587 L75.946,108.977 L76.439,108.315 L77.281,107.071 L78.066,105.723 L78.764,104.341 L79.387,102.927 L79.926,101.473 L80.383,100.005 L80.766,98.522 L81.072,97.023 L81.299,95.528 L81.454,94.035 L81.537,92.543 L81.543,91.071 L81.481,89.616 L81.339,88.177 L81.115,86.774 L80.81,85.402 L80.413,84.061 L79.951,82.823 L79.656,82.148 L79.352,81.532 L79.025,80.936 L78.673,80.355 L78.29,79.788 L77.876,79.25 L77.434,78.735 L76.96,78.238 L76.462,77.773 L75.925,77.35 L75.353,76.958 L74.763,76.605 L74.152,76.285 L73.519,75.986 L72.871,75.725 L72.205,75.499 L71.511,75.312 L70.809,75.158 L70.09,75.041 L69.348,74.965 L68.597,74.928 L67.831,74.924 Z M67.933,79.934 L68.437,79.939 L68.917,79.974 L69.366,80.035 L69.796,80.12 L70.206,80.225 L70.583,80.359 L70.947,80.514 L71.293,80.685 L71.612,80.875 L71.913,81.098 L72.199,81.337 L72.464,81.587 L72.723,81.855 L72.986,82.124 L73.232,82.408 L73.472,82.716 L73.704,83.041 L73.927,83.377 L74.143,83.738 L74.348,84.118 L74.539,84.512 L74.699,84.883 L75.044,85.819 L75.302,86.767 L75.503,87.784 L75.648,88.847 L75.726,89.947 L75.738,91.089 L75.686,92.255 L75.567,93.432 L75.377,94.624 L75.129,95.817 L74.821,96.996 L74.449,98.166 L74.026,99.315 L73.549,100.427 L73.021,101.512 L72.444,102.556 L71.821,103.542 L71.125,104.522 L70.804,104.933 L70.447,105.362 L70.076,105.778 L69.696,106.178 L69.31,106.557 L68.912,106.922 L68.505,107.27 L68.092,107.594 L67.665,107.902 L67.23,108.191 L66.791,108.456 L66.337,108.704 L65.874,108.932 L65.407,109.136 L64.923,109.321 L64.43,109.486 L63.932,109.626 L63.414,109.745 L62.886,109.843 L62.35,109.915 L61.793,109.959 L61.222,109.979 L60.642,109.971 L60.021,109.932 L59.466,109.879 L58.924,109.812 L58.405,109.731 L57.91,109.64 L57.446,109.538 L57.002,109.425 L56.581,109.303 L56.191,109.174 L55.818,109.034 L55.466,108.889 L55.143,108.739 L54.894,108.611 L54.273,108.246 L53.796,107.902 L53.372,107.53 L52.995,107.143 L52.672,106.746 L52.38,106.312 L52.12,105.85 L51.901,105.366 L51.71,104.834 L51.549,104.268 L51.425,103.675 L51.336,103.036 L51.28,102.365 L51.283,101.673 L51.356,100.948 L51.462,100.206 L51.606,99.456 L51.785,98.687 L51.976,97.906 L52.192,97.125 L52.434,96.333 L52.696,95.539 L52.979,94.753 L53.279,93.967 L53.598,93.189 L53.934,92.429 L54.288,91.681 L54.652,90.952 L55.025,90.25 L55.406,89.571 L55.787,88.917 L56.169,88.302 L56.551,87.721 L56.929,87.178 L57.295,86.687 L57.65,86.242 L57.987,85.848 L58.291,85.52 L58.565,85.254 L58.792,85.054 L58.941,84.942 L59.165,84.802 C60.1255,84.157 60.73325,83.18375 60.939625,82.131625 L60.9731512,81.9353958 L61.468,81.692 L62.229,81.346 L62.967,81.04 L63.681,80.772 L64.365,80.547 L65.026,80.359 L65.663,80.208 L66.268,80.093 L66.851,80.011 L67.408,79.958 L67.933,79.934 Z M58.5191512,77.4923958 L58.5905972,77.5236754 C59.2634063,77.8346113 59.8622188,78.328 60.306,78.988 C60.9106875,79.8884687 61.1198672,80.938791 60.9736048,81.9334881 L60.9731512,81.9353958 L60.677,82.083 L59.864,82.515 L59.027,82.99 L58.136,83.53 C56.918,84.252 55.346,83.85 54.624,82.632 C53.902,81.415 54.304,79.843 55.521,79.121 L56.482,78.562 L57.454,78.032 L58.404,77.548 L58.5191512,77.4923958 Z M94.067,34.489 L92.127,35.313 L91.66,36.063 L91.547,36.42 L91.51,36.614 L91.494,36.733 L91.487,36.815 L91.483,36.874 L91.481,36.918 L91.481,36.954 L91.48,36.983 L91.48,37.013 L91.491,37.251 L91.504,37.4 L91.527,37.639 L91.557,37.946 L91.582,38.331 L91.609,38.79 L91.62,39.311 L91.6191512,39.3233958 L91.5130375,39.4543583 C90.8351983,40.3265666 90.5013333,41.4638182 90.677,42.643 L90.79,43.262 L90.855,43.743 L90.894,44.197 L90.91,44.619 L90.904,44.997 L90.879,45.357 L90.847,45.693 L90.802,45.997 L90.741,46.291 L90.669,46.571 L90.586,46.828 L90.492,47.086 L90.391,47.341 L90.284,47.583 L90.162,47.832 L90.032,48.084 L89.903,48.337 L89.799,48.547 L89.399,49.103 L88.938,49.503 L88.432,49.879 L87.902,50.237 L87.363,50.572 L86.816,50.897 L86.268,51.226 L85.713,51.567 L85.143,51.949 L84.507,52.451 L83.742,53.308 L83.194,54.463 L83.046,55.91 L83.3,56.963 L83.727,57.758 L84.201,58.327 L84.677,58.746 L85.115,59.051 L85.637,59.359 L86.168,59.641 L86.695,59.888 L87.229,60.106 L87.78,60.292 L88.33,60.438 L88.891,60.55 L89.474,60.619 L90.051,60.637 L90.632,60.604 L91.222,60.514 L91.786,60.371 L92.329,60.176 L92.858,59.927 L93.338,59.642 L93.782,59.325 L94.196,58.971 L94.634,58.523 L95.191,57.831 L95.71,57.002 L96.121,56.159 L96.456,55.299 L96.729,54.41 L96.938,53.51 L97.102,52.596 L97.225,51.663 L97.2781512,51.0393958 L97.474,50.729 L97.809,50.108 L98.115,49.441 L98.384,48.75 L98.62,48.031 L98.819,47.27 L98.975,46.492 L99.081,45.689 L99.144,44.851 L99.162,44.001 L99.138,43.131 L99.067,42.231 L98.964,41.408 C98.7676667,40.0900909 97.9779541,39.007876 96.9063487,38.3919164 L96.7361512,38.2993958 L96.697,38.068 L96.649,37.786 L96.609,37.532 L96.574,37.311 L96.545,37.121 L96.519,36.958 L96.498,36.822 L96.48,36.711 L96.463,36.612 L96.45,36.54 L96.412,36.369 L96.399,36.321 L96.367,36.216 L96.307,36.052 L96.17,35.767 L95.739,35.204 L94.067,34.489 Z M56.134,32.792 L55.144,32.917 L54.284,33.299 L53.616,33.839 L53.152,34.414 L52.805,35.006 L52.524,35.633 L52.301,36.29 L52.116,36.993 L51.957,37.764 L51.9011512,38.1023958 L51.8603311,38.1282054 C50.7634582,38.8307677 50.0091515,40.0333939 49.934,41.434 L49.911,42.476 L49.84,43.355 L49.721,44.212 L49.573,45.043 L49.398,45.835 L49.188,46.605 L48.968,47.353 L48.744,48.07 L48.53,48.776 L48.306,49.457 L48.025,50.068 L47.69,50.61 L47.358,51.112 L47.039,51.563 L46.736,51.971 L46.453,52.338 L46.2,52.659 L45.975,52.941 L45.769,53.196 L45.561,53.456 L45.403,53.673 L44.995,54.391 L44.985,54.417 L44.954,54.492 L44.896,54.652 L44.837,54.845 L44.781,55.08 L44.735,55.368 L44.712,55.722 L44.734,56.152 L44.829,56.657 L45.033,57.219 L45.367,57.787 L45.817,58.294 L46.331,58.686 L46.846,58.95 L47.315,59.104 L47.718,59.181 L48.055,59.207 L48.202,59.208 L48.221,59.208 L49.706,58.851 L50.024,58.681 L51.146,57.986 L52.248,57.221 L53.268,56.428 L54.226,55.615 L55.123,54.776 L55.943,53.918 L56.698,53.04 L57.39,52.139 L58.004,51.227 L58.553,50.305 L59.033,49.366 L59.44,48.432 L59.789,47.502 L60.078,46.57 L60.306,45.656 L60.488,44.758 L60.624,43.871 L60.717,43.013 L60.779,42.176 L60.808,41.358 L60.804,40.572 L60.77,39.811 L60.702,39.073 L60.609,38.37 L60.49,37.694 L60.341,37.041 L60.161,36.426 L59.934,35.841 L59.666,35.275 L59.332,34.758 L58.937,34.266 L58.451,33.785 L57.864,33.341 L57.106,32.973 L56.134,32.792 Z M56.9051512,38.5323958 L57.030831,38.6481668 C57.8711736,39.4622645 58.3676364,40.622 58.3,41.882 L58.199,43.167 L58.014,44.525 L57.761,45.813 L57.443,47.042 L57.062,48.213 L56.641,49.309 L56.171,50.336 L55.655,51.295 L55.093,52.16 L54.522,52.956 L53.996,53.715 L53.53,54.435 L53.076,55.096 L52.638,55.695 L52.23,56.224 L51.855,56.69 L51.52,57.084 L51.241,57.399 L51.033,57.631 L50.937,57.736 L50.917,57.76 L51.3211512,57.0463958 L51.338,57.007 L51.393,56.855 L51.45,56.669 L51.505,56.44 L51.55,56.158 L51.572,55.81 L51.551,55.385 L51.456,54.884 L51.253,54.326 L50.922,53.762 L50.474,53.257 L49.963,52.867 L49.452,52.605 L48.988,52.452 L48.59,52.377 L48.258,52.351 L48.1381512,52.3493958 L46.6871512,52.6993958 L47.559,52.223 L48.387,51.712 L49.156,51.175 L49.861,50.615 L50.493,50.04 L51.073,49.449 L51.604,48.848 L52.079,48.247 L52.514,47.638 L52.914,47.026 L53.274,46.423 L53.603,45.813 L53.901,45.204 L54.164,44.604 L54.3151512,44.2113958 L54.3558116,44.2094993 C55.6234201,44.0925799 56.6355385,43.0472308 56.678,41.742 L56.685,41.243 L56.697,40.792 L56.716,40.366 L56.74,39.964 L56.769,39.592 L56.8,39.27 L56.887,38.627 L56.9051512,38.5323958 Z M91.7951512,39.1273958 L91.806,39.191 L91.861,39.549 L91.918,39.941 L91.981,40.369 L92.05,40.835 L92.125,41.337 L92.207,41.877 L92.294,42.456 C92.532,43.851 93.856,44.789 95.251,44.551 C96.14444,44.39932 96.8502832,43.8024048 97.1803102,43.0265927 L97.2371512,42.8783958 L97.259,43.305 L97.33,45.063 L97.355,46 L97.372,46.935 L97.382,47.878 L97.381,48.826 L97.357,49.779 L97.307,50.724 L97.2781512,51.0393958 L97.109,51.313 L96.714,51.867 L96.302,52.375 L95.874,52.844 L95.418,53.273 L94.917,53.71 L94.06,54.353 L93.22,55.025 L92.411,55.605 L91.638,56.11 L90.915,56.544 L90.27,56.909 L89.716,57.208 L89.293,57.438 L89.041,57.583 L89.021,57.577 L89.339,57.195 L89.681,56.507 L89.814,55.293 L89.617,54.475 L89.32,53.919 L89.047,53.593 L88.8661512,53.4353958 L89.046,53.556 L89.275,53.696 L89.48,53.808 L89.655,53.892 L89.786,53.947 L89.8471512,53.9673958 L89.963,53.789 L90.126,53.475 L90.303,53.069 L90.476,52.585 L90.65,52.017 L90.817,51.388 L90.969,50.709 L91.113,49.978 L91.245,49.213 L91.359,48.421 L91.455,47.606 L91.529,46.777 L91.578,45.944 L91.605,45.13 L91.614,43.475 L91.56,41.934 L91.566,40.524 L91.621,39.893 L91.6191512,39.3233958 L91.6361931,39.3032359 C91.6784127,39.2538092 91.7217889,39.2053449 91.7662879,39.1578886 L91.7951512,39.1273958 Z M54.1319704,37.4689127 L54.341,37.475 C54.4110303,37.4787576 54.4805657,37.484213 54.5495683,37.4913243 L54.6861512,37.5083958 L54.664,37.561 L54.679,37.689 L54.736,37.868 L54.801,38.122 L54.884,38.424 L54.959,38.772 L55.021,39.172 L55.066,39.611 L55.084,40.08 L55.08,40.585 L55.052,41.115 L54.992,41.661 L54.896,42.232 L54.765,42.814 L54.599,43.4 L54.398,44 L54.3151512,44.2113958 L54.1960815,44.2192303 L54.034,44.219 C52.619,44.173 51.51,42.989 51.556,41.574 L51.583,41.038 L51.618,40.507 L51.66,40 L51.707,39.512 L51.762,39.045 L51.826,38.575 L51.9011512,38.1023958 L52.0273892,38.0266093 C52.6490476,37.668119 53.3692413,37.465467 54.1319704,37.4689127 Z M96.6481512,38.2563958 L96.7348507,38.2985679 L96.752,38.385 L96.813,38.737 L96.884,39.121 L96.961,39.541 L97.046,39.999 L97.139,40.491 L97.238,41.022 L97.347,41.595 C97.41364,41.9856 97.3880816,42.3706336 97.2860863,42.7277976 L97.2371512,42.8783958 L97.176,41.642 L96.989,40.165 L96.838,39.488 L96.741,38.877 L96.659,38.332 L96.6481512,38.2563958 Z M96.1949701,38.0670358 L96.2141512,38.0743958 L95.844,38.671 L93.904,39.495 L92.232,38.78 L92.2081512,38.7493958 L92.3520147,38.6397001 C92.8284965,38.2917039 93.3850092,38.0400638 93.9969869,37.9178857 L94.203,37.882 C94.8966364,37.7786667 95.575764,37.85155 96.1949701,38.0670358 Z M91.5361512,37.5083958 L91.565,37.633 L91.575,37.669 L91.606,37.772 L91.665,37.934 L91.802,38.218 L92.2081512,38.7493958 L92.1961852,38.7592222 C92.0943199,38.8412222 91.9965415,38.9277989 91.9031196,39.0185889 L91.7951512,39.1273958 L91.757,38.869 L91.714,38.581 L91.672,38.325 L91.635,38.103 L91.604,37.913 L91.578,37.754 L91.557,37.629 L91.5361512,37.5083958 Z M57.2411512,37.3463958 L57.191,37.457 L57.094,37.737 L56.987,38.127 L56.9051512,38.5323958 L56.8876275,38.5157263 C56.6437743,38.3004662 56.3743311,38.1129276 56.084018,37.9583696 L55.9751512,37.9033958 L56.474,37.837 L56.927,37.628 L57.198,37.406 L57.2411512,37.3463958 Z M96.478,36.791 L96.49,36.914 L96.513,37.136 L96.546,37.451 L96.598,37.853 L96.6481512,38.2563958 L96.5589399,38.2131705 C96.4995978,38.1860523 96.4395657,38.1602929 96.3788889,38.1359259 L96.2141512,38.0743958 L96.311,37.921 L96.423,37.566 L96.46,37.374 L96.475,37.256 L96.482,37.177 L96.486,37.12 L96.487,37.079 L96.488,37.047 L96.4871512,37.0173958 L96.478,36.791 Z M54.7121512,37.5113958 L54.7549403,37.5175835 C55.1623371,37.5798685 55.549197,37.7002482 55.9073636,37.8696346 L55.9751512,37.9033958 L55.893,37.915 L55.331,37.82 L54.98,37.665 L54.791,37.545 L54.7121512,37.5113958 Z" id="Combined-Shape" fill="currentColor"></path>
            <path d="M102.486,127.565 L103.763,127.256 L105.049,126.888 L106.303,126.47 L107.53,126.008 L108.732,125.499 L109.903,124.945 L111.048,124.352 L112.167,123.715 L113.257,123.039 L114.321,122.328 L115.362,121.577 L116.374,120.793 L117.362,119.977 L118.328,119.126 L119.267,118.246 L120.184,117.339 L121.079,116.401 L121.95,115.438 L122.801,114.452 L123.632,113.44 L124.442,112.406 L125.232,111.352 L126.004,110.277 L126.757,109.183 L127.492,108.074 L128.211,106.947 L128.911,105.805 L129.597,104.651 L130.267,103.483 L130.924,102.299 L131.556,101.112 L132.189,99.92 L132.797,98.709 L133.402,97.501 L133.984,96.28 L134.564,95.063 L135.125,93.839 L135.684,92.615 L136.224,91.389 L136.763,90.164 L137.284,88.943 L137.803,87.724 L138.308,86.511 L138.813,85.301 L139.303,84.102 L139.793,82.906 L140.271,81.727 L140.75,80.544 L141.358,79.011 L141.935,77.486 L142.479,75.977 L142.993,74.481 L143.473,72.998 L143.92,71.532 L144.338,70.078 L144.724,68.639 L145.079,67.215 L145.404,65.805 L145.7,64.408 L145.963,63.028 L146.199,61.661 L146.404,60.307 L146.58,58.97 L146.728,57.646 L146.848,56.335 L146.938,55.041 L147,53.761 L147.032,52.494 L147.037,51.244 L147.015,50.007 L146.966,48.784 L146.89,47.578 L146.79,46.385 L146.662,45.207 L146.508,44.045 L146.33,42.897 L146.126,41.763 L145.897,40.646 L145.645,39.544 L145.367,38.455 L145.065,37.383 L144.74,36.326 L144.392,35.282 L144.023,34.255 L143.635,33.241 L143.224,32.241 L142.789,31.258 L142.335,30.29 L141.857,29.335 L141.359,28.398 L140.84,27.475 L140.3,26.567 L139.739,25.676 L139.16,24.799 L138.559,23.936 L137.94,23.091 L137.303,22.261 L136.646,21.445 L135.971,20.646 L135.278,19.862 L134.567,19.092 L133.834,18.334 L133.089,17.609 L132.336,16.878 L131.549,16.178 L130.763,15.478 L129.944,14.81 L129.128,14.144 L128.283,13.506 L127.436,12.867 L126.559,12.259 L125.683,11.652 L124.778,11.076 L123.875,10.502 L122.948,9.955 L122.018,9.408 L121.063,8.892 L120.108,8.376 L119.128,7.891 L118.151,7.408 L117.152,6.952 L116.151,6.497 L115.127,6.072 L114.104,5.648 L113.06,5.254 L112.018,4.861 L110.958,4.496 L109.897,4.131 L108.816,3.796 L107.736,3.462 L106.639,3.158 L105.544,2.854 L104.434,2.578 L103.322,2.302 L102.195,2.057 L101.069,1.811 L99.929,1.596 L98.791,1.381 L97.642,1.194 L96.49,1.007 L95.328,0.849 L94.165,0.692 L92.993,0.565 L91.822,0.439 L90.643,0.339 L89.463,0.24 L88.275,0.171 L87.087,0.101 L85.892,0.062 L84.699,0.023 L83.502,0.011 L82.303,0 L81.099,0.018 L79.896,0.036 L78.689,0.084 L77.485,0.133 L76.279,0.208 L75.071,0.284 L73.862,0.389 L72.654,0.495 L71.446,0.63 L70.24,0.765 L69.036,0.927 L67.83,1.09 L66.627,1.282 L65.424,1.475 L64.226,1.697 L63.028,1.918 L61.836,2.167 L60.642,2.417 L59.455,2.695 L58.268,2.974 L57.088,3.282 L55.91,3.59 L54.74,3.925 L53.569,4.26 L52.407,4.625 L51.246,4.99 L50.096,5.385 L48.947,5.779 L47.81,6.2 L46.672,6.622 L45.547,7.074 L44.422,7.526 L43.312,8.007 L42.204,8.488 L41.11,8.996 L40.015,9.505 L38.937,10.043 L37.859,10.582 L36.8,11.15 L35.742,11.718 L34.702,12.313 L33.661,12.908 L32.641,13.534 L31.62,14.159 L30.622,14.815 L29.626,15.469 L28.651,16.15 L27.674,16.833 L26.723,17.545 L25.77,18.258 L24.845,19.001 L23.92,19.742 L23.021,20.51 L22.12,21.28 L21.247,22.079 L20.374,22.879 L19.531,23.709 L18.69,24.537 L17.877,25.392 L17.063,26.249 L16.28,27.136 L15.499,28.023 L14.75,28.94 L14.004,29.856 L13.289,30.797 L12.573,31.742 L11.893,32.716 L11.213,33.69 L10.57,34.694 L9.933,35.69 L9.314,36.718 L8.718,37.757 L8.142,38.81 L7.585,39.876 L7.049,40.957 L6.533,42.053 L6.038,43.161 L5.563,44.286 L5.112,45.424 L4.681,46.575 L4.273,47.742 L3.887,48.923 L3.523,50.116 L3.182,51.325 L2.866,52.547 L2.571,53.782 L2.301,55.033 L2.056,56.296 L1.734,58.106 L1.44,59.892 L1.176,61.655 L0.937,63.396 L0.728,65.115 L0.546,66.81 L0.389,68.483 L0.259,70.135 L0.157,71.763 L0.079,73.37 L0.027,74.955 L0,76.517 L0,78.058 L0.023,79.578 L0.072,81.075 L0.144,82.551 L0.241,84.007 L0.362,85.439 L0.505,86.852 L0.672,88.243 L0.863,89.612 L1.075,90.962 L1.31,92.291 L1.568,93.597 L1.847,94.884 L2.148,96.151 L2.471,97.396 L2.814,98.622 L3.178,99.827 L3.563,101.011 L3.967,102.176 L4.392,103.321 L4.837,104.444 L5.299,105.549 L5.783,106.635 L6.285,107.699 L6.804,108.744 L7.343,109.77 L7.9,110.775 L8.473,111.762 L9.064,112.73 L9.673,113.677 L10.297,114.606 L10.939,115.517 L11.597,116.406 L12.27,117.278 L12.959,118.131 L13.664,118.964 L14.382,119.779 L15.117,120.576 L15.865,121.353 L16.627,122.113 L17.403,122.855 L18.198,123.581 L19,124.273 L19.809,124.97 L20.644,125.631 L21.478,126.291 L22.338,126.915 L23.195,127.537 L24.073,128.127 L24.954,128.717 L25.856,129.272 L26.758,129.827 L27.682,130.347 L28.603,130.866 L29.542,131.353 L30.483,131.842 L31.442,132.297 L32.401,132.751 L33.377,133.172 L34.351,133.592 L35.34,133.982 L36.33,134.373 L37.336,134.731 L38.341,135.089 L39.36,135.415 L40.377,135.74 L41.406,136.036 L42.436,136.333 L43.477,136.599 L44.518,136.864 L45.57,137.099 L46.62,137.334 L47.678,137.541 L48.737,137.747 L49.805,137.923 L50.873,138.099 L51.947,138.245 L53.019,138.391 L54.097,138.511 L55.175,138.631 L56.259,138.723 L57.342,138.815 L58.428,138.877 L59.513,138.936 L60.6,138.97 L61.687,139.003 L62.776,139.01 L63.864,139.017 L64.953,138.997 L66.039,138.977 L67.124,138.934 L68.21,138.892 L69.294,138.827 L70.378,138.761 L71.458,138.671 L72.536,138.581 L73.61,138.469 L74.685,138.356 L75.755,138.219 L76.824,138.082 L77.886,137.922 L78.947,137.764 L80.001,137.584 L81.056,137.404 L82.101,137.202 L83.146,136.999 L84.181,136.774 L85.215,136.549 L86.238,136.305 L87.262,136.06 L88.274,135.794 L89.285,135.529 L90.283,135.242 L91.28,134.956 L92.263,134.651 L93.247,134.346 L94.215,134.021 L95.187,133.693 L97.083,133.004 L98.95,132.278 L100.778,131.514 L102.564,130.712 L104.31,129.878 L106.012,129.007 L107.664,128.103 L109.271,127.167 L110.826,126.197 L112.325,125.196 L113.771,124.165 L115.159,123.101 L116.484,122.009 L117.751,120.889 L118.952,119.737 L120.082,118.559 L121.147,117.354 L122.139,116.12 L123.053,114.86 L123.894,113.577 L124.655,112.265 L125.328,110.93 L125.922,109.573 L126.425,108.191 L126.828,106.806 L127.004,106.081 L127.15,105.366 L127.272,104.649 L127.37,103.927 L127.443,103.199 L127.489,102.468 L127.511,101.734 L127.507,100.995 L127.476,100.254 L127.42,99.51 L127.336,98.762 L127.227,98.031 C127.135,97.411 126.558,96.984 125.938,97.077 C125.319,97.17 124.892,97.747 124.985,98.366 L125.089,99.057 L125.164,99.723 L125.216,100.389 L125.245,101.051 L125.249,101.708 L125.231,102.364 L125.19,103.016 L125.127,103.664 L125.04,104.31 L124.932,104.953 L124.802,105.591 L124.654,106.211 L124.284,107.492 L123.832,108.739 L123.294,109.975 L122.68,111.197 L121.985,112.4 L121.208,113.589 L120.361,114.762 L119.437,115.914 L118.439,117.047 L117.374,118.161 L116.241,119.251 L115.038,120.318 L113.776,121.363 L112.451,122.38 L111.064,123.371 L109.623,124.336 L108.127,125.271 L106.575,126.176 L104.977,127.052 L103.33,127.895 L101.634,128.704 L99.899,129.483 L98.122,130.225 L96.304,130.931 L94.448,131.605 L93.509,131.92 L92.566,132.237 L91.606,132.534 L90.646,132.832 L89.672,133.111 L88.699,133.39 L87.711,133.648 L86.724,133.907 L85.724,134.143 L84.723,134.379 L83.711,134.596 L82.7,134.813 L81.679,135.007 L80.658,135.202 L79.628,135.375 L78.596,135.547 L77.558,135.699 L76.52,135.849 L75.476,135.975 L74.431,136.102 L73.381,136.205 L72.33,136.308 L71.275,136.388 L70.221,136.469 L69.163,136.526 L68.106,136.582 L67.047,136.611 L65.987,136.638 L64.926,136.643 L63.867,136.648 L62.807,136.626 L61.748,136.605 L60.691,136.558 L59.633,136.51 L58.577,136.439 L57.522,136.371 L56.471,136.278 L55.42,136.184 L54.374,136.063 L53.327,135.943 L52.286,135.796 L51.246,135.65 L50.213,135.476 L49.181,135.302 L48.156,135.1 L47.131,134.898 L46.113,134.67 L45.098,134.443 L44.093,134.186 L43.089,133.929 L42.096,133.643 L41.102,133.356 L40.12,133.041 L39.14,132.727 L38.173,132.382 L37.207,132.037 L36.256,131.661 L35.304,131.285 L34.366,130.88 L33.431,130.476 L32.513,130.039 L31.595,129.604 L30.696,129.135 L29.796,128.666 L28.913,128.166 L28.033,127.668 L27.173,127.137 L26.314,126.606 L25.476,126.041 L24.637,125.475 L23.819,124.878 L23.003,124.284 L22.211,123.654 L21.419,123.025 L20.653,122.361 L19.879,121.692 L19.134,121.007 L18.399,120.302 L17.677,119.578 L16.967,118.838 L16.272,118.08 L15.592,117.304 L14.924,116.511 L14.273,115.7 L13.636,114.87 L13.014,114.023 L12.408,113.158 L11.817,112.273 L11.241,111.371 L10.683,110.45 L10.141,109.51 L9.615,108.551 L9.107,107.574 L8.616,106.576 L8.141,105.559 L7.686,104.525 L7.248,103.468 L6.828,102.393 L6.427,101.299 L6.046,100.183 L5.683,99.048 L5.341,97.894 L5.018,96.717 L4.715,95.521 L4.432,94.305 L4.171,93.066 L3.929,91.808 L3.71,90.529 L3.512,89.227 L3.335,87.905 L3.181,86.562 L3.049,85.196 L2.939,83.81 L2.853,82.403 L2.791,80.971 L2.751,79.519 L2.736,78.046 L2.745,76.548 L2.778,75.029 L2.836,73.489 L2.92,71.924 L3.027,70.338 L3.161,68.729 L3.322,67.095 L3.507,65.44 L3.72,63.763 L3.96,62.06 L4.225,60.335 L4.519,58.587 L4.841,56.815 L5.08,55.608 L5.341,54.417 L5.627,53.239 L5.933,52.074 L6.261,50.924 L6.612,49.788 L6.984,48.664 L7.376,47.556 L7.79,46.461 L8.224,45.378 L8.677,44.311 L9.151,43.256 L9.643,42.214 L10.155,41.187 L10.688,40.173 L11.238,39.172 L11.806,38.186 L12.391,37.218 L13.008,36.257 L13.621,35.303 L14.269,34.378 L14.918,33.452 L15.601,32.554 L16.286,31.654 L17.002,30.779 L17.716,29.906 L18.463,29.062 L19.209,28.216 L19.987,27.399 L20.767,26.579 L21.575,25.786 L22.381,24.993 L23.216,24.229 L24.051,23.464 L24.914,22.728 L25.779,21.989 L26.669,21.277 L27.557,20.566 L28.471,19.883 L29.385,19.199 L30.323,18.544 L31.264,17.888 L32.225,17.257 L33.185,16.627 L34.168,16.026 L35.15,15.424 L36.153,14.851 L37.159,14.277 L38.182,13.729 L39.204,13.181 L40.244,12.662 L41.285,12.143 L42.343,11.652 L43.403,11.161 L44.477,10.695 L45.55,10.23 L46.638,9.794 L47.727,9.358 L48.829,8.95 L49.932,8.542 L51.048,8.16 L52.161,7.778 L53.287,7.425 L54.412,7.072 L55.547,6.748 L56.684,6.423 L57.83,6.125 L58.973,5.827 L60.125,5.558 L61.277,5.29 L62.435,5.051 L63.595,4.811 L64.76,4.597 L65.923,4.384 L67.09,4.2 L68.258,4.015 L69.428,3.86 L70.6,3.705 L71.774,3.576 L72.945,3.447 L74.118,3.348 L75.29,3.248 L76.461,3.177 L77.634,3.107 L78.805,3.063 L79.975,3.018 L81.141,3.003 L82.307,2.988 L83.469,3.002 L84.632,3.016 L85.791,3.057 L86.947,3.097 L88.097,3.167 L89.246,3.236 L90.388,3.335 L91.531,3.434 L92.665,3.559 L93.798,3.684 L94.92,3.839 L96.042,3.993 L97.152,4.176 L98.264,4.36 L99.364,4.57 L100.462,4.78 L101.546,5.019 L102.63,5.258 L103.698,5.526 L104.768,5.794 L105.823,6.089 L106.876,6.383 L107.911,6.706 L108.946,7.029 L109.961,7.382 L110.979,7.734 L111.978,8.114 L112.975,8.492 L113.95,8.899 L114.925,9.306 L115.878,9.743 L116.833,10.179 L117.766,10.642 L118.697,11.103 L119.603,11.593 L120.508,12.083 L121.388,12.602 L122.269,13.122 L123.126,13.669 L123.98,14.213 L124.806,14.787 L125.632,15.359 L126.428,15.962 L127.226,16.565 L127.997,17.195 L128.764,17.822 L129.501,18.478 L130.237,19.134 L130.94,19.819 L131.651,20.51 L132.326,21.21 L132.989,21.928 L133.635,22.661 L134.265,23.408 L134.876,24.167 L135.47,24.942 L136.046,25.731 L136.603,26.532 L137.142,27.348 L137.663,28.179 L138.163,29.022 L138.645,29.881 L139.108,30.753 L139.55,31.638 L139.972,32.54 L140.375,33.455 L140.756,34.383 L141.116,35.327 L141.454,36.286 L141.765,37.259 L142.055,38.249 L142.324,39.251 L142.57,40.267 L142.792,41.3 L142.993,42.346 L143.169,43.406 L143.322,44.482 L143.452,45.573 L143.557,46.676 L143.637,47.797 L143.693,48.931 L143.724,50.079 L143.728,51.245 L143.708,52.424 L143.662,53.617 L143.589,54.827 L143.493,56.052 L143.37,57.29 L143.218,58.546 L143.04,59.816 L142.834,61.101 L142.599,62.403 L142.336,63.719 L142.045,65.05 L141.724,66.398 L141.375,67.761 L140.996,69.138 L140.585,70.532 L140.146,71.941 L139.675,73.365 L139.174,74.806 L138.642,76.262 L138.079,77.733 L137.479,79.227 L137,80.393 L136.52,81.564 L136.028,82.753 L135.536,83.939 L135.031,85.138 L134.527,86.335 L134.007,87.538 L133.49,88.739 L132.955,89.942 L132.42,91.143 L131.867,92.34 L131.314,93.537 L130.741,94.727 L130.17,95.913 L129.576,97.086 L128.983,98.257 L128.365,99.409 L127.746,100.567 L127.114,101.698 L126.468,102.819 L125.807,103.925 L125.133,105.017 L124.446,106.089 L123.744,107.144 L123.028,108.18 L122.297,109.193 L121.549,110.184 L120.787,111.154 L120.009,112.097 L119.214,113.015 L118.402,113.908 L117.575,114.77 L116.728,115.604 L115.864,116.41 L114.984,117.182 L114.082,117.922 L113.163,118.632 L112.226,119.304 L111.267,119.942 L110.288,120.546 L109.291,121.11 L108.269,121.637 L107.226,122.128 L106.163,122.576 L105.071,122.983 L103.958,123.351 L102.821,123.674 L101.62,123.961 C100.624,124.2 100.012,125.201 100.251,126.196 C100.49,127.191 101.491,127.804 102.486,127.565 Z" id="Fill-600" fill="currentColor"></path>
        </g>
    </g>
</svg>
