<?xml version="1.0" encoding="UTF-8"?>
<svg width="156px" height="71px" viewBox="0 0 156 71" version="1.1" xmlns="http://www.w3.org/2000/svg" xmlns:xlink="http://www.w3.org/1999/xlink">
    <title>71</title>
    <g id="Page-1" stroke="none" stroke-width="1" fill="none" fill-rule="evenodd">
        <g id="71" transform="translate(0.019000, 0.680000)" fill="currentColor">
            <path d="M3.4907,12.801 C1.0404,9.534 -2.4234,60.032 16.63,62.517 C28.6783,64.089 110.7455,54.59 111.801,56.125 C112.4641,57.089 110.9262,68.701 111.4459,68.909 C113.2773,69.642 153.8709,36.132 154.4149,32.687 C159.9431,-2.325 28.4484,-3.313 5.6214,4.988" id="Fill-12"></path>
            <path d="M4.6451,11.766 L4.4396,11.553 L3.944,11.239 L3.2645,11.099 L2.5953,11.229 L2.1124,11.52 L1.823,11.815 L1.628,12.09 L1.4794,12.361 L1.3609,12.626 L1.2572,12.898 L1.1623,13.187 L1.075,13.49 L0.9923,13.811 L0.9132,14.154 L0.8378,14.517 L0.7652,14.9 L0.6954,15.306 L0.6272,15.742 L0.5028,16.643 L0.3887,17.637 L0.2875,18.708 L0.199,19.846 L0.1252,21.054 L0.0677,22.324 L0.026,23.647 L0.003,25.024 L0,26.447 L0.0164,27.909 L0.0553,29.408 L0.1183,30.937 L0.2043,32.49 L0.3171,34.064 L0.4578,35.651 L0.6254,37.246 L0.824,38.847 L1.0548,40.444 L1.3164,42.034 L1.6146,43.614 L1.9504,45.174 L2.3213,46.712 L2.7328,48.223 L3.1858,49.699 L3.679,51.138 L4.2191,52.536 L4.8064,53.88 L5.4401,55.175 L6.1288,56.412 L6.8719,57.579 L7.67,58.68 L8.534,59.706 L9.4382,60.619 L9.9467,61.075 L10.4535,61.487 L10.9753,61.872 L11.5136,62.231 L12.0727,62.564 L12.6464,62.865 L13.2362,63.137 L13.8469,63.378 L14.4708,63.585 L15.1094,63.759 L15.7674,63.899 L16.4225,64 L16.8787,64.052 L17.3598,64.092 L17.8774,64.123 L18.4299,64.148 L19.0224,64.165 L19.6525,64.175 L20.3172,64.178 L21.0202,64.175 L21.7595,64.165 L22.5315,64.148 L23.3393,64.125 L24.181,64.096 L25.0532,64.062 L25.9582,64.022 L26.8944,63.976 L27.8584,63.926 L28.8523,63.87 L29.8744,63.807 L30.9215,63.738 L31.9953,63.664 L33.0944,63.586 L34.2158,63.503 L35.3609,63.416 L36.5288,63.325 L37.7247,63.234 L38.9212,63.144 L40.157,63.047 L41.3925,62.951 L42.6625,62.848 L43.9323,62.745 L45.23,62.64 L46.5279,62.537 L47.8525,62.429 L49.1768,62.322 L50.5231,62.21 L51.8692,62.098 L53.2316,61.982 L54.5939,61.867 L55.9702,61.748 L57.3463,61.63 L58.7318,61.508 L60.117,61.387 L61.5071,61.263 L62.897,61.139 L64.2882,61.014 L65.6793,60.889 L67.067,60.763 L68.4547,60.638 L69.8306,60.512 L71.2061,60.387 L72.5816,60.261 L73.9574,60.136 L75.3022,60.012 L76.6467,59.888 L77.9912,59.763 L79.3354,59.639 L80.6303,59.52 L81.9255,59.4 L83.2207,59.281 L84.5154,59.161 L85.7671,59.046 L87.0189,58.931 L88.2338,58.82 L89.4487,58.71 L90.6221,58.604 L91.7954,58.499 L92.9275,58.398 L94.0593,58.298 L95.1416,58.204 L96.2238,58.11 L97.2518,58.023 L98.2801,57.935 L99.2684,57.853 L100.2267,57.775 L101.1536,57.701 L102.0511,57.631 L102.9149,57.566 L103.7442,57.504 L104.541,57.448 L105.3008,57.396 L106.0227,57.349 L106.709,57.307 L107.3547,57.27 L107.959,57.239 L108.5243,57.213 L109.0449,57.192 L109.5201,57.178 L109.9518,57.169 L110.3331,57.167 L110.6629,57.17 L110.9408,57.179 L111.1542,57.192 L111.2955,57.208 L111.3433,57.215 L111.2154,57.165 L110.8673,56.889 L110.7252,56.659 L110.7079,56.61 L110.7147,56.643 L110.7279,56.726 L110.741,56.849 L110.7516,56.995 L110.7663,57.406 L110.7659,57.894 L110.7521,58.459 L110.7274,59.08 L110.6924,59.75 L110.649,60.46 L110.5997,61.195 L110.5456,61.948 L110.4888,62.709 L110.3791,64.176 L110.2684,65.656 L110.2089,66.804 L110.1504,67.937 L110.1582,68.15 L110.1586,68.153 L110.1596,68.16 L110.1609,68.171 L110.1628,68.185 L110.1651,68.203 L110.1678,68.224 L110.171,68.249 L110.1747,68.277 L110.1788,68.309 L110.1834,68.345 L110.1885,68.384 L110.194,68.426 L110.1999,68.473 L110.2064,68.522 L110.2133,68.575 L110.221,68.635 L110.2289,68.694 L110.2368,68.751 L110.2448,68.805 L110.2528,68.857 L110.2609,68.908 L110.2694,68.957 L110.2784,69.005 L110.2883,69.054 L110.2997,69.105 L110.3136,69.161 L110.3325,69.227 L110.3614,69.31 L110.414,69.431 L110.5346,69.624 L110.8901,69.938 L111.2721,70.076 L111.2762,70.077 L111.28,70.078 L111.2835,70.078 L111.2867,70.079 L111.2897,70.08 L111.2924,70.08 L111.2948,70.08 L111.2969,70.081 L111.2988,70.081 L111.3005,70.081 L111.3018,70.082 L111.3029,70.082 L111.3037,70.082 L111.3042,70.082 L111.3045,70.082 L111.6397,70.094 L111.8376,70.069 L112.0898,70.002 L112.3143,69.92 L112.5378,69.821 L112.7657,69.707 L113.0043,69.579 L113.2594,69.433 L113.5302,69.27 L113.8169,69.092 L114.1221,68.896 L114.4447,68.683 L114.7835,68.455 L115.1402,68.211 L115.514,67.951 L115.9032,67.676 L116.3093,67.386 L116.7332,67.08 L117.617,66.432 L118.562,65.727 L119.561,64.971 L120.6057,64.171 L121.697,63.326 L122.8299,62.44 L123.9969,61.52 L125.1976,60.566 L126.4267,59.58 L127.6781,58.571 L128.9508,57.538 L130.2389,56.486 L131.5374,55.419 L132.8432,54.339 L134.1521,53.249 L135.4554,52.154 L136.7596,51.059 L138.0436,49.966 L139.3277,48.873 L140.5723,47.797 L141.8159,46.723 L143.0249,45.667 L144.201,44.631 L145.3402,43.618 L146.4418,42.629 L147.4985,41.669 L148.5053,40.743 L149.463,39.851 L150.3632,38.998 L151.2003,38.189 L151.9769,37.422 L152.6841,36.704 L153.3129,36.043 L153.607,35.725 L153.8782,35.424 L154.129,35.138 L154.3617,34.863 L154.5749,34.601 L154.7673,34.352 L154.9418,34.112 L155.0982,33.88 L155.2346,33.652 L155.355,33.42 L155.4586,33.163 L155.5318,32.865 L155.613,32.277 L155.6698,31.692 L155.7015,31.114 L155.7112,30.541 L155.6969,29.971 L155.6567,29.387 L155.518,28.3 L155.2837,27.211 L154.9603,26.152 L154.557,25.118 L154.0676,24.108 L153.4984,23.131 L152.8577,22.18 L152.1393,21.255 L151.35,20.359 L150.4967,19.489 L149.5732,18.643 L148.5853,17.824 L147.5382,17.03 L146.427,16.258 L145.2567,15.51 L144.033,14.784 L142.7505,14.079 L141.4138,13.396 L140.028,12.733 L138.5886,12.09 L137.0994,11.468 L135.5656,10.864 L133.9832,10.28 L132.3558,9.715 L130.688,9.168 L128.9767,8.639 L127.2251,8.129 L125.438,7.634 L123.6124,7.157 L121.7513,6.698 L119.8588,6.254 L117.9334,5.826 L115.9788,5.415 L114.9859,5.216 L113.9943,5.018 L112.9885,4.828 L111.9829,4.639 L110.964,4.457 L109.9458,4.276 L108.9162,4.102 L107.8863,3.928 L106.8449,3.761 L105.8036,3.595 L104.7516,3.437 L103.7004,3.278 L102.6401,3.126 L101.5796,2.973 L100.51,2.829 L99.4405,2.685 L98.363,2.548 L97.2858,2.411 L96.202,2.281 L95.1179,2.152 L94.0274,2.03 L92.9369,1.907 L91.8409,1.793 L90.7438,1.678 L89.6407,1.573 L88.5412,1.475 L87.4417,1.378 L86.3362,1.28 L85.2246,1.197 L84.1189,1.114 L83.0133,1.031 L81.9021,0.948 L80.7885,0.881 L79.6803,0.815 L78.572,0.748 L77.4593,0.681 L76.3474,0.627 L75.24,0.573 L74.1327,0.518 L73.021,0.459 L71.9135,0.413 L70.8105,0.368 L69.7075,0.322 L68.6003,0.277 L67.5009,0.244 L66.4058,0.211 L65.3108,0.177 L64.2121,0.143 L63.1235,0.121 L62.0386,0.098 L60.9537,0.076 L59.8649,0.053 L58.7905,0.042 L57.7201,0.03 L56.6497,0.017 L55.5755,0.004 L54.5195,0.003 L53.4672,0.002 L52.4149,0.000999999999 L51.3601,0 L50.3196,0.006 L49.2797,0.013 L48.2514,0.025 L47.2231,0.038 L46.2072,0.056 L45.1915,0.073 L44.1879,0.096 L43.1835,0.119 L41.2048,0.175 L39.2557,0.241 L37.3354,0.316 L35.4483,0.402 L33.5964,0.495 L31.7779,0.598 L29.9976,0.71 L28.2578,0.832 L26.5561,0.962 L24.8976,1.102 L23.2846,1.25 L21.7144,1.406 L20.1924,1.572 L18.7211,1.745 L17.2969,1.926 L15.926,2.116 L14.6107,2.313 L13.3471,2.518 L12.1415,2.73 L10.9965,2.951 L9.9074,3.178 L8.8807,3.412 L7.9193,3.654 L7.0177,3.903 L6.1824,4.16 L5.4263,4.421 C5.1129,4.529 4.9462,4.87 5.0539,5.183 C5.1617,5.497 5.5031,5.663 5.8164,5.556 L6.5529,5.304 L7.3528,5.06 L8.2252,4.822 L9.1612,4.589 L10.1642,4.363 L11.2334,4.143 L12.3605,3.929 L13.5491,3.723 L14.7979,3.525 L16.0996,3.333 L17.4573,3.149 L18.8699,2.973 L20.3303,2.805 L21.8415,2.645 L23.4021,2.494 L25.0058,2.351 L26.655,2.217 L28.3483,2.092 L30.08,1.975 L31.852,1.868 L33.6628,1.771 L35.5073,1.683 L37.3869,1.607 L39.3001,1.541 L41.2422,1.485 L43.2149,1.439 L44.2143,1.422 L45.2146,1.405 L46.227,1.392 L47.2391,1.38 L48.2638,1.374 L49.2884,1.367 L50.3246,1.366 L51.36,1.365 L52.4097,1.372 L53.462,1.379 L54.5142,1.386 L55.5626,1.393 L56.6292,1.412 L57.6995,1.43 L58.7698,1.449 L59.8362,1.47 L60.917,1.503 L62.0016,1.536 L63.0862,1.57 L64.1672,1.603 L65.2581,1.647 L66.3528,1.692 L67.4474,1.738 L68.5378,1.783 L69.6359,1.841 L70.7382,1.9 L71.8406,1.958 L72.9384,2.017 L74.0402,2.088 L75.1463,2.164 L76.2524,2.24 L77.354,2.316 L78.4562,2.404 L79.5629,2.492 L80.6696,2.581 L81.7709,2.669 L82.8697,2.768 L83.974,2.868 L85.0783,2.968 L86.1766,3.067 L87.2686,3.18 L88.3665,3.294 L89.4646,3.407 L90.5588,3.513 L91.647,3.629 L92.7362,3.745 L93.8197,3.868 L94.9032,3.992 L95.9801,4.123 L97.0573,4.253 L98.1278,4.391 L99.1979,4.528 L100.2598,4.673 L101.3215,4.817 L102.3742,4.97 L103.4271,5.122 L104.4709,5.282 L105.5141,5.442 L106.5465,5.611 L107.5787,5.779 L108.5992,5.956 L109.6199,6.132 L110.6293,6.316 L111.638,6.5 L112.6334,6.691 L113.6286,6.883 L114.6094,7.083 L115.589,7.282 L117.5246,7.697 L119.4258,8.128 L121.2926,8.578 L123.1267,9.043 L124.9223,9.526 L126.679,10.025 L128.3975,10.541 L130.0721,11.074 L131.7024,11.624 L133.2901,12.191 L134.8283,12.774 L136.3169,13.375 L137.7578,13.991 L139.1437,14.625 L140.4747,15.276 L141.7531,15.943 L142.9707,16.626 L144.1281,17.327 L145.228,18.042 L146.2614,18.773 L147.2299,19.522 L148.1372,20.283 L148.973,21.058 L149.7397,21.849 L150.4406,22.654 L151.0664,23.47 L151.62,24.303 L152.106,25.148 L152.5155,26.004 L152.8511,26.879 L153.1179,27.768 L153.3072,28.671 L153.4217,29.621 L153.4491,30.07 L153.4585,30.545 L153.4477,31.027 L153.4183,31.516 L153.3687,32.009 L153.2979,32.51 L153.3129,32.445 L153.3055,32.461 L153.2633,32.54 L153.1913,32.659 L153.0899,32.809 L152.9583,32.988 L152.8017,33.189 L152.6199,33.411 L152.4126,33.654 L152.1836,33.914 L151.9322,34.192 L151.6621,34.482 L151.0527,35.119 L150.368,35.81 L149.6085,36.555 L148.7862,37.346 L147.8995,38.184 L146.9528,39.064 L145.9556,39.978 L144.9077,40.927 L143.8134,41.907 L142.6812,42.912 L141.5117,43.94 L140.3102,44.988 L139.0701,46.057 L137.8309,47.126 L136.5523,48.213 L135.2735,49.3 L133.9743,50.39 L132.6742,51.481 L131.3714,52.564 L130.0705,53.639 L128.7768,54.701 L127.4937,55.747 L126.2265,56.774 L124.9792,57.777 L123.7545,58.754 L122.5591,59.701 L121.3977,60.613 L120.2712,61.49 L119.1873,62.325 L118.1509,63.115 L117.1617,63.859 L116.2294,64.551 L115.3562,65.187 L114.9452,65.483 L114.5495,65.764 L114.1715,66.029 L113.8103,66.279 L113.4686,66.511 L113.1467,66.725 L112.8439,66.923 L112.5637,67.102 L112.3059,67.261 L112.0707,67.401 L111.8628,67.519 L111.6828,67.615 L111.5335,67.688 L111.4262,67.736 L111.3677,67.757 L111.3811,67.754 L111.39,67.749 L111.7252,67.761 L111.725,67.761 L111.7244,67.761 L111.7236,67.761 L111.7225,67.76 L111.7212,67.76 L111.7196,67.76 L111.7177,67.76 L111.7155,67.759 L111.7131,67.759 L111.7104,67.758 L111.7075,67.758 L111.7042,67.757 L111.7007,67.756 L111.6969,67.756 L111.6929,67.755 L112.0663,67.892 L112.4129,68.197 L112.5241,68.375 L112.567,68.473 L112.5858,68.527 L112.5942,68.556 L112.5974,68.568 L112.5975,68.569 L112.5959,68.56 L112.593,68.544 L112.5892,68.521 L112.5847,68.493 L112.5797,68.46 L112.5743,68.421 L112.5684,68.378 L112.5623,68.331 L112.5555,68.277 L112.5488,68.224 L112.5426,68.174 L112.5368,68.128 L112.5315,68.085 L112.5266,68.046 L112.5221,68.011 L112.5181,67.979 L112.5146,67.95 L112.5115,67.926 L112.5088,67.904 L112.5066,67.887 L112.5048,67.872 L112.5034,67.862 L112.5025,67.855 L112.5021,67.851 L112.5099,68.064 L112.5728,66.931 L112.6348,65.813 L112.7497,64.359 L112.8656,62.892 L112.9258,62.127 L112.9837,61.366 L113.0369,60.618 L113.0844,59.891 L113.1235,59.195 L113.1523,58.542 L113.1696,57.931 L113.1724,57.374 L113.158,56.891 L113.142,56.645 L113.1192,56.422 L113.0864,56.207 L113.0379,55.987 L112.9543,55.737 L112.7347,55.361 L112.2714,54.995 L111.9217,54.871 L111.6431,54.818 L111.365,54.785 L111.0584,54.764 L110.7184,54.752 L110.3427,54.746 L109.9245,54.747 L109.465,54.753 L108.9673,54.766 L108.4273,54.784 L107.8464,54.808 L107.2289,54.836 L106.5712,54.87 L105.8751,54.909 L105.1445,54.953 L104.3767,55.001 L103.5731,55.054 L102.7377,55.111 L101.8681,55.173 L100.9656,55.239 L100.0342,55.308 L99.0716,55.381 L98.0789,55.459 L97.048,55.54 L96.0168,55.622 L94.9315,55.711 L93.8465,55.8 L92.7121,55.894 L91.5779,55.989 L90.4025,56.088 L89.2271,56.188 L88.0104,56.292 L86.7938,56.396 L85.5404,56.505 L84.2872,56.613 L82.9909,56.727 L81.6952,56.84 L80.3995,56.954 L79.1036,57.067 L77.7583,57.186 L76.4133,57.304 L75.0682,57.423 L73.7235,57.543 L72.3479,57.665 L70.9721,57.787 L69.5963,57.909 L68.2209,58.031 L66.8337,58.154 L65.4465,58.276 L64.056,58.398 L62.6656,58.52 L61.2765,58.64 L59.8874,58.761 L58.5032,58.88 L57.1192,59 L55.7445,59.117 L54.37,59.234 L53.0094,59.349 L51.6489,59.463 L50.3047,59.574 L48.9608,59.685 L47.6389,59.791 L46.3172,59.898 L45.0221,59.999 L43.7268,60.098 L42.4592,60.189 L41.192,60.28 L39.9595,60.365 L38.7273,60.451 L37.5345,60.529 L36.341,60.605 L35.1777,60.672 L34.037,60.736 L32.9202,60.795 L31.8263,60.851 L30.7587,60.903 L29.7184,60.951 L28.704,60.996 L27.7194,61.04 L26.7652,61.078 L25.84,61.112 L24.9478,61.141 L24.0894,61.165 L23.2631,61.184 L22.4735,61.198 L21.7211,61.205 L21.0042,61.209 L20.328,61.208 L19.6929,61.2 L19.0971,61.187 L18.547,61.167 L18.0426,61.142 L17.5831,61.111 L17.1767,61.074 L16.8374,61.034 L16.3154,60.95 L15.8262,60.843 L15.3471,60.708 L14.8799,60.551 L14.4285,60.369 L13.9848,60.162 L13.5506,59.932 L13.1298,59.679 L12.7158,59.4 L12.3101,59.099 L11.9162,58.776 L11.5508,58.447 L10.7784,57.664 L10.0685,56.814 L9.3925,55.873 L8.7498,54.857 L8.1476,53.767 L7.5821,52.602 L7.0514,51.376 L6.5604,50.094 L6.1065,48.755 L5.6864,47.373 L5.3038,45.951 L4.9566,44.492 L4.6412,43.006 L4.3591,41.499 L4.1087,39.973 L3.8871,38.436 L3.6965,36.895 L3.5351,35.353 L3.3994,33.817 L3.2909,32.294 L3.208,30.788 L3.1474,29.305 L3.1102,27.851 L3.0948,26.433 L3.0982,25.053 L3.121,23.722 L3.1617,22.443 L3.2176,21.218 L3.2887,20.061 L3.3737,18.974 L3.4699,17.959 L3.5767,17.03 L3.6941,16.184 L3.7531,15.809 L3.8147,15.451 L3.8775,15.121 L3.9407,14.816 L4.0035,14.545 L4.0656,14.304 L4.1253,14.096 L4.1799,13.93 L4.2276,13.805 L4.2617,13.727 L4.2673,13.716 L4.2273,13.772 L4.0934,13.905 L3.7664,14.099 L3.253,14.199 L2.7289,14.091 L2.3881,13.877 L2.3363,13.835 C2.9075,14.473 3.8874,14.526 4.525,13.955 C5.1626,13.384 5.2164,12.404 4.6451,11.766 Z" id="Fill-13"></path>
        </g>
    </g>
</svg>
