<?xml version="1.0" encoding="UTF-8"?>
<svg width="126px" height="83px" viewBox="0 0 126 83" version="1.1" xmlns="http://www.w3.org/2000/svg" xmlns:xlink="http://www.w3.org/1999/xlink">
    <title>72</title>
    <g id="Page-1" stroke="none" stroke-width="1" fill="none" fill-rule="evenodd">
        <g id="72" transform="translate(0.955600, 0.345000)" fill="currentColor">
            <path d="M92.9453,76.219 C115.8957,81.045 128.9872,41.002 119.4323,24.757 C95.9602,-15.151 15.5783,-0.677 2.4281,41.256 C-11.5455,85.814 85.6025,94.143 105.4993,60.465" id="Fill-10"></path>
            <path d="M92.6529,77.741 L93.3965,77.884 L94.1641,78 L94.9231,78.085 L95.6765,78.142 L96.4263,78.168 L97.1664,78.164 L97.9001,78.133 L98.6291,78.072 L99.3474,77.983 L100.0583,77.869 L100.7634,77.726 L101.4571,77.558 L102.1425,77.365 L102.8212,77.145 L103.4878,76.902 L104.1455,76.636 L104.7957,76.346 L105.455,76.022 L106.6808,75.347 L107.891,74.574 L109.0556,73.723 L110.1813,72.803 L111.2675,71.81 L112.3083,70.754 L113.3098,69.641 L114.2705,68.467 L115.1861,67.242 L116.062,65.971 L116.8956,64.651 L117.6822,63.29 L118.4281,61.894 L119.1305,60.461 L119.7865,58.999 L120.4008,57.512 L120.9696,55.999 L121.4908,54.468 L121.969,52.922 L122.3996,51.361 L122.7805,49.792 L123.1167,48.219 L123.4033,46.642 L123.6389,45.068 L123.8256,43.5 L123.9602,41.938 L124.0416,40.391 L124.074,38.858 L124.0507,37.343 L123.9689,35.855 L123.8356,34.391 L123.6444,32.955 L123.3949,31.556 L123.0885,30.192 L122.7162,28.868 L122.2824,27.593 L121.7901,26.363 L121.2307,25.184 L120.61,24.073 L119.8241,22.802 L119.0035,21.571 L118.1468,20.381 L117.2569,19.224 L116.3305,18.103 L115.3758,17.016 L114.3903,15.963 L113.3706,14.945 L112.3206,13.965 L111.2425,13.018 L110.1329,12.106 L108.9959,11.231 L107.8335,10.388 L106.6426,9.58 L105.4271,8.809 L104.1884,8.07 L102.924,7.365 L101.6379,6.696 L100.3317,6.058 L99.0026,5.453 L97.6546,4.883 L96.2888,4.344 L94.903,3.838 L93.5007,3.365 L92.083,2.923 L90.6476,2.514 L89.1986,2.139 L87.7367,1.792 L86.2602,1.477 L84.7723,1.195 L83.274,0.942 L81.7637,0.72 L80.2447,0.529 L78.7176,0.366 L77.1812,0.234 L75.6386,0.132 L74.0902,0.058 L72.535,0.014 L70.9762,0 L69.4138,0.013 L67.8473,0.055 L66.2797,0.126 L64.7109,0.224 L63.1405,0.35 L61.5715,0.505 L60.0036,0.686 L58.4367,0.895 L56.8735,1.131 L55.3137,1.393 L53.7575,1.682 L52.2077,1.998 L50.6636,2.339 L49.1255,2.707 L47.5964,3.102 L46.0753,3.521 L44.5629,3.966 L43.0616,4.437 L41.5706,4.932 L40.0909,5.452 L38.6251,5.998 L37.1719,6.568 L35.7324,7.163 L34.3094,7.782 L32.9015,8.425 L31.5097,9.093 L30.1367,9.784 L28.7809,10.497 L27.4441,11.236 L26.1289,11.998 L24.8334,12.783 L23.5594,13.592 L22.3097,14.424 L21.082,15.277 L19.8784,16.155 L18.7019,17.056 L17.5499,17.978 L16.4245,18.923 L15.3289,19.891 L14.2601,20.879 L13.2209,21.891 L12.2142,22.925 L11.2367,23.979 L10.2914,25.056 L9.3816,26.154 L8.5042,27.272 L7.662,28.413 L6.8576,29.575 L6.0876,30.755 L5.356,31.958 L4.666,33.181 L4.0131,34.423 L3.401,35.686 L2.8323,36.968 L2.3035,38.268 L1.8188,39.589 L1.3794,40.93 L0.9689,42.355 L0.632,43.762 L0.3701,45.145 L0.1755,46.507 L0.0524,47.848 L0,49.163 L0.0107,50.456 L0.0899,51.727 L0.2357,52.971 L0.4413,54.192 L0.7117,55.389 L1.0442,56.558 L1.4325,57.702 L1.8815,58.821 L2.3874,59.911 L2.9448,60.976 L3.5582,62.015 L4.2236,63.024 L4.9359,64.007 L5.6992,64.965 L6.509,65.893 L7.3614,66.796 L8.2606,67.672 L9.2024,68.52 L10.1827,69.342 L11.2048,70.139 L12.2649,70.908 L13.3599,71.653 L14.4931,72.371 L15.6608,73.061 L16.8597,73.727 L18.0927,74.367 L19.3564,74.979 L20.6477,75.567 L21.9692,76.129 L23.3173,76.665 L24.689,77.177 L26.0871,77.664 L27.5082,78.123 L28.95,78.559 L30.4143,78.967 L31.8979,79.349 L33.3985,79.707 L34.9177,80.039 L36.4526,80.342 L38.0028,80.611 L39.567,80.854 L41.1425,81.07 L42.7278,81.261 L44.3236,81.423 L45.9268,81.557 L47.536,81.667 L49.1514,81.751 L50.7701,81.811 L52.3914,81.85 L54.0152,81.863 L55.6388,81.849 L57.2617,81.811 L58.8832,81.747 L60.5007,81.656 L62.1139,81.541 L63.7219,81.399 L65.3223,81.234 L66.9152,81.044 L68.4989,80.827 L70.0709,80.583 L71.6318,80.314 L73.1797,80.018 L74.712,79.695 L76.2296,79.347 L77.7303,78.972 L79.2116,78.569 L80.6747,78.142 L82.117,77.687 L83.5359,77.204 L84.9334,76.697 L86.3065,76.163 L87.6524,75.601 L88.9729,75.014 L90.265,74.398 L91.5258,73.754 L92.7577,73.085 L93.9572,72.387 L95.1214,71.661 L96.253,70.909 L97.3484,70.128 L98.4043,69.318 L99.424,68.482 L100.4032,67.617 L101.3389,66.723 L102.2345,65.803 L103.0854,64.853 L103.8886,63.874 L104.6478,62.869 L105.3578,61.834 L106.0091,60.781 C106.1838,60.499 106.0972,60.129 105.8156,59.955 C105.5341,59.78 105.1642,59.867 104.9894,60.148 L104.3503,61.175 L103.6689,62.162 L102.9381,63.124 L102.1643,64.061 L101.3449,64.97 L100.4797,65.853 L99.5748,66.713 L98.6279,67.544 L97.6389,68.35 L96.6135,69.131 L95.55,69.884 L94.4481,70.612 L93.3133,71.315 L92.1441,71.99 L90.9406,72.639 L89.7077,73.264 L88.4443,73.861 L87.1506,74.432 L85.831,74.978 L84.4849,75.497 L83.1122,75.989 L81.7169,76.455 L80.2992,76.894 L78.8592,77.306 L77.4007,77.693 L75.9236,78.053 L74.4282,78.387 L72.9179,78.695 L71.3932,78.977 L69.8542,79.232 L68.304,79.463 L66.7432,79.667 L65.1722,79.844 L63.5937,79.997 L62.0083,80.12 L60.4169,80.215 L58.8216,80.287 L57.224,80.332 L55.6243,80.349 L54.0244,80.342 L52.4262,80.309 L50.83,80.249 L49.2375,80.162 L47.6511,80.045 L46.0709,79.902 L44.4981,79.735 L42.9352,79.543 L41.3821,79.329 L39.8399,79.09 L38.3116,78.826 L36.7975,78.537 L35.296,78.233 L33.8117,77.906 L32.3451,77.553 L30.8964,77.177 L29.4695,76.776 L28.0641,76.349 L26.6802,75.9 L25.3222,75.425 L23.9898,74.925 L22.683,74.401 L21.4066,73.853 L20.1598,73.279 L18.9419,72.682 L17.7581,72.062 L16.6079,71.417 L15.4902,70.749 L14.4108,70.059 L13.3686,69.344 L12.3626,68.607 L11.3991,67.848 L10.4774,67.063 L9.5953,66.257 L8.759,65.43 L7.9673,64.579 L7.2184,63.707 L6.5194,62.814 L5.8686,61.898 L5.2635,60.961 L4.7106,60.004 L4.2089,59.023 L3.7556,58.022 L3.3574,57 L3.0136,55.954 L2.7209,54.887 L2.4863,53.799 L2.3098,52.685 L2.1877,51.549 L2.1268,50.392 L2.1285,49.207 L2.1883,47.999 L2.3133,46.768 L2.5056,45.509 L2.7591,44.227 L3.0813,42.92 L3.4767,41.582 L3.9001,40.319 L4.3667,39.073 L4.8759,37.844 L5.4225,36.631 L6.0092,35.438 L6.6366,34.263 L7.2994,33.104 L7.999,31.964 L8.7364,30.842 L9.5073,29.738 L10.3132,28.654 L11.1553,27.588 L12.0279,26.54 L12.9329,25.512 L13.8716,24.503 L14.8393,23.512 L15.8373,22.543 L16.8663,21.594 L17.9221,20.663 L19.0056,19.755 L20.1178,18.867 L21.2545,17.998 L22.4163,17.152 L23.6042,16.328 L24.8143,15.523 L26.0471,14.742 L27.3033,13.982 L28.5794,13.244 L29.8756,12.529 L31.1927,11.837 L32.5272,11.166 L33.8795,10.52 L35.2502,9.898 L36.636,9.299 L38.0365,8.723 L39.4527,8.173 L40.8816,7.645 L42.3226,7.142 L43.7766,6.665 L45.2409,6.21 L46.7148,5.782 L48.1992,5.381 L49.6912,5.002 L51.1901,4.65 L52.6966,4.325 L54.2085,4.023 L55.7244,3.749 L57.2454,3.502 L58.7694,3.279 L60.2948,3.084 L61.8226,2.917 L63.3509,2.775 L64.8778,2.661 L66.4045,2.575 L67.9292,2.515 L69.4499,2.483 L70.9678,2.479 L72.4812,2.502 L73.9879,2.554 L75.4892,2.634 L76.9836,2.742 L78.4686,2.878 L79.9455,3.044 L81.4131,3.237 L82.8686,3.46 L84.3135,3.713 L85.7467,3.993 L87.1652,4.303 L88.5706,4.643 L89.9619,5.012 L91.3357,5.41 L92.694,5.839 L94.0363,6.296 L95.3585,6.783 L96.6625,7.302 L97.9479,7.849 L99.2107,8.428 L100.4528,9.038 L101.6741,9.678 L102.8701,10.349 L104.0432,11.053 L105.1936,11.785 L106.3167,12.549 L107.4143,13.346 L108.4868,14.173 L109.5294,15.032 L110.5445,15.925 L111.5323,16.848 L112.488,17.803 L113.4136,18.794 L114.31,19.816 L115.167,20.874 L115.991,21.968 L116.7834,23.093 L117.5391,24.252 L118.2547,25.441 L118.7733,26.418 L119.2328,27.447 L119.6408,28.538 L120.0006,29.678 L120.3059,30.867 L120.5628,32.105 L120.7737,33.383 L120.9313,34.697 L121.0366,36.05 L121.0946,37.431 L121.1036,38.838 L121.0626,40.27 L120.9756,41.72 L120.8386,43.182 L120.6523,44.659 L120.4238,46.142 L120.1475,47.626 L119.8234,49.111 L119.457,50.591 L119.0457,52.061 L118.5891,53.52 L118.0923,54.963 L117.5528,56.384 L116.9701,57.781 L116.3498,59.151 L115.6899,60.487 L114.9893,61.788 L114.2537,63.051 L113.4837,64.268 L112.6758,65.439 L111.836,66.563 L110.9641,67.627 L110.0571,68.634 L109.1218,69.583 L108.1588,70.463 L107.1639,71.275 L106.144,72.02 L105.1011,72.686 L104.0066,73.286 L103.4832,73.542 L102.9344,73.787 L102.377,74.012 L101.8141,74.218 L101.2475,74.4 L100.6721,74.562 L100.0909,74.703 L99.506,74.821 L98.9118,74.917 L98.3116,74.991 L97.7073,75.041 L97.0932,75.066 L96.4726,75.07 L95.8475,75.048 L95.2121,74.999 L94.5697,74.928 L93.9223,74.829 L93.2376,74.697 C92.397,74.536 91.5846,75.086 91.4231,75.927 C91.2616,76.768 91.8122,77.58 92.6529,77.741 Z" id="Fill-11"></path>
        </g>
    </g>
</svg>
