<?xml version="1.0" encoding="UTF-8"?>
<svg width="147px" height="82px" viewBox="0 0 147 82" version="1.1" xmlns="http://www.w3.org/2000/svg" xmlns:xlink="http://www.w3.org/1999/xlink">
    <title>73</title>
    <g id="Page-1" stroke="none" stroke-width="1" fill="none" fill-rule="evenodd">
        <g id="73" transform="translate(0.986431, 0.675000)" fill="currentColor">
            <path d="M85.3071694,7.09 C28.7330694,-17.156 -49.7718906,44.185 46.9546594,73.496 C155.523469,106.396 191.104269,-3.454 64.3553394,9.22" id="Fill-8"></path>
            <path d="M85.8980394,5.657 L84.1018794,4.917 L82.2706094,4.226 L80.4295794,3.593 L78.5791594,3.011 L76.7178094,2.484 L74.8509594,2.012 L72.9786094,1.59 L71.0996394,1.22 L69.2193494,0.902 L67.3373894,0.631 L65.4530694,0.41 L63.5715294,0.239 L61.6921094,0.112 L59.8145294,0.032 L57.9437994,0 L56.0789194,0.009 L54.2201394,0.066 L52.3723494,0.167 L50.5342294,0.307 L48.7063594,0.491 L46.8934794,0.716 L45.0939694,0.978 L43.3087994,1.281 L41.5426294,1.623 L39.7935494,2 L38.0629794,2.415 L36.3554194,2.867 L34.6685594,3.351 L33.0043194,3.871 L31.3677594,4.427 L29.7556394,5.014 L28.1701394,5.634 L26.6157494,6.285 L25.0905794,6.967 L23.5967594,7.682 L22.1382194,8.424 L20.7115694,9.193 L19.3197594,9.991 L17.9706494,10.821 L16.6575094,11.674 L15.3835194,12.554 L14.1531694,13.458 L12.9623494,14.383 L11.8097894,15.327 L10.7045294,16.292 L9.64230439,17.278 L8.62725839,18.286 L7.66399239,19.314 L6.74510139,20.357 L5.87583839,21.421 L5.06263639,22.503 L4.30042939,23.601 L3.59440939,24.719 L2.94921839,25.853 L2.35970839,27.002 L1.83170439,28.169 L1.36955839,29.348 L0.96789439,30.54 L0.63344459,31.749 L0.36994439,32.966 L0.17233679,34.193 L0.04834308,35.433 L0,36.677 L0.021797266,37.927 L0.12210299,39.185 L0.30180549,40.444 L0.55532329,41.703 L0.89167239,42.967 L1.31011639,44.225 L1.80507439,45.482 L2.38616639,46.737 L3.05152139,47.985 L3.79592139,49.227 L4.63019639,50.464 L5.55104439,51.691 L6.55299039,52.91 L7.64680739,54.122 L8.83028039,55.322 L10.0980394,56.512 L11.4609294,57.693 L12.9086094,58.854 L13.6773994,59.44 L14.4629394,60.017 L15.2719994,60.59 L16.1032994,61.16 L16.9599794,61.728 L17.8407194,62.291 L18.7441394,62.851 L19.6734294,63.409 L20.6273094,63.962 L21.6043494,64.511 L22.6077194,65.058 L23.6362494,65.6 L24.6883994,66.138 L25.7673694,66.673 L26.8720594,67.203 L28.0008494,67.729 L29.1569494,68.251 L30.3393294,68.769 L31.5462994,69.282 L32.7810594,69.791 L34.0426794,70.295 L35.3292194,70.795 L36.6439194,71.291 L37.9860594,71.782 L39.3537494,72.268 L40.7502394,72.75 L42.1747094,73.226 L43.6251794,73.697 L45.1049494,74.163 L46.6141394,74.623 L48.3168494,75.126 L50.0085594,75.607 L51.6872294,76.064 L53.3546194,76.5 L55.0100994,76.913 L56.6524194,77.303 L58.2831794,77.672 L59.9018194,78.019 L61.5070694,78.344 L63.1006294,78.649 L64.6817394,78.933 L66.2491594,79.196 L67.8046894,79.44 L69.3476994,79.662 L70.8768394,79.863 L72.3938794,80.046 L73.8981794,80.209 L75.3883594,80.351 L76.8662194,80.475 L78.3311094,80.579 L79.7816394,80.664 L81.2196394,80.731 L82.6444394,80.779 L84.0579994,80.808 L85.4448994,80.812 L86.8365494,80.816 L88.1999394,80.784 L89.5631894,80.751 L90.8978394,80.683 L92.2309794,80.615 L93.5378194,80.516 L94.8459094,80.416 L96.1247394,80.282 L97.4033794,80.149 L98.6524494,79.982 L99.8999194,79.816 L101.120169,79.621 L102.341669,79.425 L103.532869,79.198 L104.723769,78.971 L105.884169,78.714 L107.042869,78.457 L108.173469,78.174 L109.305369,77.891 L110.405969,77.579 L111.506369,77.267 L112.575169,76.929 L113.642369,76.59 L114.680569,76.228 L115.720069,75.866 L116.727169,75.478 L117.733769,75.089 L118.707769,74.676 L119.680069,74.263 L120.622569,73.829 L121.566269,73.395 L122.476769,72.938 L123.392369,72.478 L125.138869,71.525 L126.828669,70.531 L128.451169,69.497 L130.002769,68.427 L131.490569,67.324 L132.909069,66.186 L134.254769,65.018 L135.534769,63.821 L136.744269,62.596 L137.879169,61.346 L138.946569,60.072 L139.940269,58.774 L140.857369,57.456 L141.706469,56.122 L142.479569,54.767 L143.173569,53.399 L143.795969,52.017 L144.339669,50.622 L144.802269,49.218 L145.190869,47.806 L145.497869,46.385 L145.721569,44.963 L145.868969,43.538 L145.933269,42.111 L145.912669,40.688 L145.813669,39.269 L145.627769,37.854 L145.354969,36.449 L145.002069,35.055 L144.559869,33.671 L144.029669,32.305 L143.418369,30.954 L142.716369,29.621 L141.925769,28.312 L141.044669,27.031 L140.072269,25.774 L139.018169,24.556 L138.449569,23.945 L137.864769,23.349 L137.257969,22.762 L136.629869,22.183 L135.977669,21.613 L135.303269,21.052 L134.608269,20.5 L133.889569,19.956 L133.148669,19.422 L132.386969,18.897 L131.601469,18.381 L130.793669,17.875 L129.966669,17.376 L129.115869,16.887 L128.242269,16.408 L127.347369,15.94 L126.428369,15.481 L125.486369,15.035 L124.522869,14.598 L123.535169,14.173 L122.524569,13.759 L121.492169,13.356 L120.435269,12.966 L119.354869,12.587 L118.252569,12.221 L117.125469,11.867 L115.975269,11.524 L114.802969,11.193 L113.605769,10.875 L112.384469,10.57 L111.140769,10.279 L109.871869,10.001 L108.578669,9.738 L107.262769,9.488 L105.921469,9.253 L104.555569,9.032 L103.166869,8.826 L101.752569,8.635 L100.313369,8.459 L98.8510594,8.298 L97.3629694,8.153 L95.8496894,8.024 L94.3131494,7.91 L92.7506494,7.812 L91.1626594,7.73 L89.5511394,7.664 L87.9133094,7.615 L86.2497394,7.584 L84.5623994,7.57 L82.8485394,7.573 L81.1086694,7.595 L79.3448194,7.634 L77.5542294,7.691 L75.7373694,7.768 L73.8963094,7.862 L72.0282794,7.975 L70.1337194,8.109 L68.2147494,8.26 L66.2685694,8.431 L64.2980594,8.623 C63.9682094,8.655 63.7264494,8.948 63.7580794,9.278 C63.7897094,9.608 64.0827494,9.849 64.4126094,9.818 L66.3782594,9.632 L68.3138894,9.467 L70.2225594,9.322 L72.1065294,9.194 L73.9631494,9.087 L75.7930294,8.998 L77.5984294,8.927 L79.3766894,8.875 L81.1284494,8.842 L82.8559494,8.825 L84.5564994,8.826 L86.2308194,8.846 L87.8810594,8.881 L89.5045694,8.934 L91.1020894,9.004 L92.6757394,9.089 L94.2228694,9.191 L95.7441394,9.311 L97.2416894,9.446 L98.7128794,9.597 L100.158569,9.764 L101.580669,9.945 L102.976669,10.141 L104.347369,10.353 L105.694769,10.578 L107.016169,10.817 L108.312569,11.071 L109.585869,11.338 L110.833369,11.618 L112.056169,11.912 L113.256069,12.218 L114.430369,12.537 L115.580169,12.869 L116.707169,13.214 L117.808169,13.572 L118.884769,13.942 L119.938969,14.323 L120.967869,14.716 L121.972769,15.12 L122.955469,15.534 L123.912869,15.959 L124.846269,16.395 L125.757669,16.841 L126.644269,17.296 L127.507369,17.761 L128.348669,18.235 L129.165269,18.718 L129.958769,19.21 L130.728469,19.714 L131.473869,20.225 L132.196269,20.745 L132.897269,21.272 L133.574069,21.806 L134.228269,22.348 L134.861269,22.897 L135.470469,23.451 L136.058169,24.012 L136.625669,24.579 L137.169669,25.15 L137.684669,25.721 L138.674869,26.901 L139.567369,28.093 L140.373269,29.305 L141.108969,30.528 L141.757869,31.765 L142.323069,33.02 L142.812369,34.287 L143.217669,35.564 L143.541969,36.853 L143.792469,38.151 L143.961869,39.454 L144.051469,40.765 L144.068969,42.081 L144.007069,43.397 L143.865369,44.717 L143.652869,46.037 L143.363269,47.353 L142.996069,48.668 L142.559069,49.978 L142.046569,51.279 L141.457169,52.573 L140.799369,53.858 L140.067469,55.129 L139.259969,56.387 L138.383569,57.629 L137.434469,58.852 L136.411169,60.056 L135.321969,61.24 L134.161869,62.399 L132.927969,63.532 L131.629769,64.64 L130.262669,65.717 L128.824469,66.764 L127.323369,67.78 L125.755169,68.76 L124.117569,69.703 L122.413469,70.614 L121.536669,71.044 L120.654769,71.477 L119.739469,71.889 L118.823069,72.301 L117.876569,72.693 L116.931769,73.084 L115.954269,73.452 L114.977369,73.82 L113.968169,74.165 L112.957769,74.511 L111.918069,74.833 L110.880069,75.155 L109.810169,75.451 L108.740569,75.747 L107.639469,76.016 L106.537169,76.285 L105.406369,76.529 L104.277269,76.773 L103.117269,76.988 L101.957469,77.203 L100.767069,77.388 L99.5755494,77.575 L98.3564294,77.733 L97.1389094,77.892 L95.8912994,78.018 L94.6438794,78.145 L93.3667594,78.239 L92.0883794,78.334 L90.7832194,78.399 L89.4795794,78.463 L88.1467694,78.493 L86.8140894,78.523 L85.4525794,78.518 L84.0863194,78.513 L82.7081094,78.483 L81.3130594,78.435 L79.9032794,78.367 L78.4807594,78.283 L77.0449894,78.18 L75.5947194,78.057 L74.1319194,77.917 L72.6560894,77.757 L71.1660094,77.576 L69.6636194,77.378 L68.1483994,77.158 L66.6191794,76.918 L65.0778694,76.658 L63.5240394,76.377 L61.9565794,76.074 L60.3772694,75.751 L58.7855894,75.406 L57.1804394,75.039 L55.5637194,74.651 L53.9348794,74.24 L52.2928294,73.806 L50.6393494,73.351 L48.9740994,72.873 L47.2951894,72.37 L45.8083694,71.909 L44.3506094,71.444 L42.9216894,70.973 L41.5192994,70.498 L40.1463794,70.019 L38.8017594,69.534 L37.4831694,69.046 L36.1935694,68.553 L34.9318694,68.056 L33.6958994,67.554 L32.4884694,67.049 L31.3082594,66.539 L30.1531794,66.026 L29.0261694,65.51 L27.9258394,64.99 L26.8501794,64.467 L25.8021294,63.94 L24.7802094,63.41 L23.7824994,62.878 L22.8119194,62.343 L21.8669194,61.804 L20.9456594,61.264 L20.0510594,60.721 L19.1814794,60.175 L18.3351694,59.627 L17.5150294,59.077 L16.7193394,58.525 L15.9464394,57.971 L15.1991994,57.416 L14.4840194,56.865 L13.0957094,55.74 L11.8139094,54.618 L10.6252594,53.49 L9.52111039,52.36 L8.51032639,51.23 L7.58768539,50.097 L6.74520639,48.964 L5.99090339,47.835 L5.31846839,46.705 L4.72072539,45.578 L4.20519739,44.457 L3.76700439,43.336 L3.39851239,42.219 L3.10613039,41.11 L2.88611239,40.002 L2.73097339,38.898 L2.64636939,37.802 L2.63017939,36.708 L2.67502239,35.618 L2.78587239,34.536 L2.96175739,33.456 L3.19540239,32.381 L3.49148239,31.316 L3.85072439,30.253 L4.26561539,29.197 L4.73975939,28.152 L5.27450039,27.112 L5.86216939,26.081 L6.50584839,25.063 L7.20717039,24.054 L7.95858439,23.056 L8.76250439,22.073 L9.62235039,21.105 L10.5313894,20.153 L11.4889394,19.219 L12.4965994,18.302 L13.5472594,17.402 L14.6426394,16.522 L15.7887894,15.669 L16.9739194,14.835 L18.1991494,14.026 L19.4659694,13.239 L20.7678294,12.474 L22.1024494,11.73 L23.4746994,11.011 L24.8785494,10.317 L26.3143094,9.651 L27.7829094,9.012 L29.2782494,8.398 L30.8014094,7.814 L32.3538594,7.261 L33.9303194,6.737 L35.5297394,6.245 L37.1541894,5.785 L38.7988694,5.357 L40.4629094,4.965 L42.1478094,4.608 L43.8490094,4.284 L45.5653294,3.999 L47.2983994,3.751 L49.0439794,3.54 L50.8003994,3.369 L52.5693894,3.239 L54.3470694,3.147 L56.1313194,3.098 L57.9240194,3.089 L59.7217094,3.121 L61.5218194,3.198 L63.3263794,3.321 L65.1321294,3.486 L66.9361094,3.698 L68.7404594,3.959 L70.5422594,4.264 L72.3381294,4.618 L74.1303494,5.023 L75.9163394,5.475 L77.6922994,5.978 L79.4606394,6.535 L81.2191194,7.14 L82.9635594,7.799 L84.7162994,8.523 C85.5076994,8.849 86.4137894,8.472 86.7401194,7.681 C87.0664594,6.889 86.6894394,5.983 85.8980394,5.657 Z" id="Fill-9"></path>
        </g>
    </g>
</svg>
