<?xml version="1.0" encoding="UTF-8"?>
<svg width="187px" height="71px" viewBox="0 0 187 71" version="1.1" xmlns="http://www.w3.org/2000/svg" xmlns:xlink="http://www.w3.org/1999/xlink">
    <title>74</title>
    <g id="Page-1" stroke="none" stroke-width="1" fill="none" fill-rule="evenodd">
        <g id="74" transform="translate(0.341000, 0.849000)" fill="currentColor">
            <path d="M1.5526,17.154 C1.4148,17.556 5.429,28.036 6.1691,31.181 C7.5554,37.073 9.2848,67.372 14.6919,67.758 C24.4129,68.453 183.6361,58.839 184.0821,58.17 C186.5913,54.406 184.4046,34.672 184.7923,29.761 C188.5888,-18.328 77.8293,7.871 48.783,9.874 C39.1354,10.54 4.307,9.12 1.5526,17.154 Z" id="Fill-6"></path>
            <path d="M0.0098,17.005 L0,17.246 L0.0261,17.503 L0.0601,17.677 L0.0984,17.838 L0.1434,18.005 L0.1973,18.191 L0.3169,18.58 L0.4675,19.044 L0.6438,19.57 L0.8414,20.148 L1.0598,20.778 L1.2954,21.452 L1.5438,22.159 L1.8034,22.895 L2.0703,23.653 L2.6138,25.199 L3.1492,26.741 L3.6487,28.213 L3.8765,28.9 L4.0859,29.548 L4.2724,30.145 L4.4346,30.686 L4.5658,31.153 L4.6628,31.537 L4.7398,31.889 L4.8216,32.315 L4.907,32.811 L4.9951,33.364 L5.0856,33.974 L5.1786,34.639 L5.2738,35.348 L5.3715,36.104 L5.472,36.902 L5.5749,37.737 L5.6808,38.608 L5.7898,39.512 L5.9018,40.444 L6.0172,41.402 L6.1363,42.384 L6.2588,43.385 L6.3854,44.404 L6.5162,45.439 L6.6528,46.485 L6.7898,47.534 L6.936,48.592 L7.0825,49.653 L7.2391,50.71 L7.396,51.769 L7.5628,52.814 L7.7312,53.862 L7.9111,54.883 L8.0925,55.912 L8.4764,57.871 L8.6808,58.833 L8.8913,59.763 L9.1094,60.662 L9.3351,61.532 L9.5699,62.37 L9.8139,63.17 L10.0674,63.936 L10.3331,64.663 L10.611,65.346 L10.9031,65.989 L11.2155,66.593 L11.5491,67.147 L11.9116,67.661 L12.3196,68.134 L12.7771,68.546 L13.3025,68.897 L13.9191,69.157 L14.4784,69.266 L14.7754,69.289 L14.9862,69.298 L15.2158,69.305 L15.4641,69.31 L15.7345,69.314 L16.0262,69.315 L16.3379,69.315 L16.672,69.313 L17.0277,69.309 L17.4034,69.305 L17.8011,69.298 L18.222,69.29 L19.1166,69.269 L20.0974,69.242 L21.16,69.21 L22.2955,69.172 L23.5094,69.128 L24.7994,69.079 L26.1566,69.023 L27.5861,68.962 L29.0853,68.896 L30.6461,68.825 L32.2728,68.749 L33.9628,68.668 L35.7085,68.58 L37.5137,68.487 L39.3758,68.389 L41.2878,68.287 L43.2527,68.181 L44.2605,68.122 L45.2681,68.063 L46.2978,68.003 L47.3275,67.942 L48.3805,67.88 L49.4334,67.817 L50.5084,67.753 L51.5834,67.688 L52.6777,67.625 L53.7721,67.564 L54.8865,67.501 L56.0009,67.439 L57.1342,67.375 L58.2675,67.311 L59.4169,67.245 L60.5664,67.179 L61.7328,67.115 L62.8993,67.052 L64.0815,66.988 L65.2636,66.924 L66.459,66.858 L67.6544,66.793 L68.8634,66.727 L70.0723,66.66 L71.2937,66.593 L72.5152,66.525 L73.7517,66.456 L74.9879,66.387 L76.2242,66.318 L77.4608,66.249 L78.7161,66.178 L79.9709,66.107 L81.2258,66.035 L82.481,65.964 L83.7501,65.89 L85.0189,65.817 L86.2876,65.744 L87.5567,65.671 L88.8348,65.596 L90.1124,65.522 L91.3901,65.448 L92.6682,65.373 L93.9519,65.298 L95.2353,65.223 L96.5187,65.147 L97.8024,65.072 L99.0871,64.995 L100.3714,64.917 L101.6557,64.84 L102.9405,64.763 L104.2193,64.685 L105.4976,64.608 L106.7759,64.53 L108.0542,64.452 L109.3325,64.374 L110.6108,64.296 L111.8891,64.217 L113.168,64.139 L114.4242,64.061 L115.6798,63.983 L116.9354,63.905 L118.191,63.827 L119.4466,63.749 L120.7022,63.671 L121.9579,63.594 L123.2141,63.516 L124.4288,63.439 L125.6429,63.362 L126.857,63.286 L128.0711,63.209 L129.2852,63.133 L130.4993,63.056 L131.7134,62.979 L132.9278,62.903 L134.1116,62.828 L135.2951,62.752 L136.4631,62.678 L137.6311,62.603 L138.7824,62.529 L139.9337,62.455 L141.0689,62.382 L142.2042,62.309 L143.3207,62.237 L144.4371,62.165 L145.5337,62.094 L146.6303,62.023 L147.7078,61.954 L148.7853,61.884 L149.8409,61.815 L150.8964,61.746 L151.9288,61.679 L152.9612,61.611 L153.9715,61.545 L154.982,61.478 L156.9524,61.348 L158.87,61.221 L160.7378,61.096 L162.5487,60.975 L164.3005,60.857 L165.9965,60.742 L167.6293,60.631 L169.1963,60.523 L170.7018,60.419 L172.1376,60.318 L173.5012,60.222 L174.7975,60.129 L176.0176,60.04 L177.1593,59.956 L178.2278,59.875 L179.2139,59.8 L180.1152,59.729 L180.9379,59.663 L181.6723,59.601 L182.3161,59.545 L182.8767,59.493 L183.3454,59.446 L183.7172,59.404 L183.881,59.384 L184.0216,59.364 L184.1471,59.344 L184.2743,59.318 L184.4617,59.263 L185.0533,58.792 L185.2535,58.453 L185.4348,58.068 L185.589,57.662 L185.7243,57.234 L185.8435,56.777 L185.9477,56.296 L186.04,55.791 L186.1209,55.259 L186.191,54.704 L186.2519,54.128 L186.3037,53.527 L186.3468,52.906 L186.3825,52.267 L186.4107,51.608 L186.4317,50.933 L186.4466,50.244 L186.4553,49.539 L186.4582,48.819 L186.4498,47.363 L186.4232,45.87 L186.3818,44.359 L186.3263,42.851 L186.2708,41.344 L186.2049,39.877 L186.1393,38.415 L186.0775,37.053 L186.0156,35.693 L185.9636,34.436 L185.923,33.272 L185.8971,32.214 L185.8902,31.732 L185.8881,31.28 L185.8911,30.864 L185.899,30.483 L185.9124,30.145 L185.933,29.827 L186.0173,28.317 L186.0244,26.826 L185.954,25.385 L185.8141,23.984 L185.5985,22.626 L185.3093,21.317 L184.9536,20.049 L184.5254,18.823 L184.0275,17.646 L183.4669,16.511 L182.8381,15.419 L182.1463,14.375 L181.3974,13.372 L180.5857,12.413 L179.7174,11.5 L178.7974,10.627 L177.8203,9.795 L176.7922,9.008 L175.7177,8.259 L174.5917,7.548 L173.4196,6.879 L172.2055,6.244 L170.9446,5.646 L169.6414,5.086 L168.3,4.559 L166.9164,4.066 L165.495,3.607 L164.039,3.178 L162.545,2.781 L161.0167,2.415 L159.4574,2.077 L157.8642,1.767 L156.2405,1.487 L154.5892,1.232 L152.908,1.004 L151.2,0.802 L149.4681,0.623 L147.7102,0.469 L145.9294,0.34 L144.1281,0.231 L142.3051,0.144 L140.4628,0.078 L138.6037,0.032 L136.7268,0.006 L134.8346,0 L132.9292,0.009 L131.01,0.036 L129.0776,0.081 L127.1351,0.149 L125.1906,0.216 L123.2295,0.315 L121.2691,0.414 L119.298,0.54 L117.3281,0.667 L115.353,0.815 L113.3779,0.963 L111.4025,1.133 L109.4276,1.304 L107.4585,1.494 L105.4903,1.685 L103.5319,1.891 L101.5736,2.097 L99.6315,2.318 L97.6907,2.545 L95.7725,2.788 L93.8551,3.031 L91.9626,3.282 L90.0703,3.532 L88.211,3.792 L86.3524,4.053 L84.5323,4.316 L82.7128,4.579 L80.9331,4.843 L79.1529,5.1 L77.4216,5.355 L75.6909,5.61 L74.0152,5.859 L72.3398,6.108 L70.7049,6.352 L69.1017,6.59 L67.5317,6.823 L65.993,7.05 L64.4901,7.271 L63.0245,7.484 L61.5937,7.687 L60.2029,7.882 L58.8536,8.066 L57.5432,8.242 L56.2772,8.406 L55.0569,8.559 L53.8794,8.701 L52.7506,8.83 L51.6717,8.945 L50.6398,9.047 L49.6612,9.135 L48.7365,9.206 L48.113,9.246 L47.4226,9.282 L46.6691,9.313 L45.8615,9.341 L44.9982,9.367 L44.0823,9.39 L43.1218,9.411 L42.1155,9.432 L41.0667,9.452 L39.9823,9.473 L38.8617,9.494 L37.7085,9.517 L36.5285,9.542 L35.322,9.569 L34.0926,9.6 L32.8451,9.634 L31.5807,9.673 L30.3024,9.717 L29.013,9.769 L27.7222,9.822 L26.4237,9.889 L25.1244,9.957 L23.8314,10.041 L22.538,10.126 L21.2614,10.229 L19.9835,10.332 L18.7361,10.457 L17.4876,10.582 L16.2836,10.733 L15.0813,10.883 L13.9115,11.053 L12.7736,11.237 L11.6702,11.437 L10.6001,11.651 L9.5689,11.882 L8.5814,12.131 L7.6352,12.397 L6.7363,12.683 L5.8899,12.989 L5.0925,13.316 L4.3502,13.667 L3.669,14.042 L3.0443,14.443 L2.483,14.877 L1.9939,15.342 L1.573,15.841 L1.2323,16.383 L1.0013,16.917 C0.8705,17.222 1.0112,17.575 1.3157,17.705 C1.6201,17.836 1.973,17.696 2.1038,17.391 L2.2946,16.944 L2.5418,16.554 L2.868,16.17 L3.265,15.794 L3.7369,15.432 L4.2853,15.082 L4.8988,14.745 L5.579,14.426 L6.3247,14.123 L7.1257,13.835 L7.9828,13.564 L8.894,13.311 L9.8505,13.072 L10.8528,12.85 L11.8983,12.643 L12.9798,12.45 L14.0969,12.272 L15.2451,12.108 L16.4359,11.962 L17.625,11.816 L18.859,11.695 L20.0942,11.574 L21.3603,11.475 L22.6277,11.376 L23.912,11.295 L25.1966,11.213 L26.4876,11.15 L27.7793,11.086 L29.0633,11.036 L30.3488,10.987 L31.6208,10.946 L32.8806,10.91 L34.1243,10.879 L35.3505,10.852 L36.5544,10.828 L37.7324,10.808 L38.8843,10.79 L40.0043,10.773 L41.0889,10.757 L42.1387,10.741 L43.1472,10.725 L44.1109,10.707 L45.0312,10.688 L45.9011,10.667 L46.7168,10.642 L47.4811,10.614 L48.1864,10.581 L48.8295,10.542 L49.7697,10.474 L50.763,10.39 L51.8072,10.292 L52.8967,10.181 L54.0352,10.056 L55.2208,9.919 L56.4483,9.771 L57.7208,9.612 L59.0365,9.442 L60.3906,9.263 L61.7857,9.075 L63.2201,8.878 L64.6895,8.677 L66.1958,8.469 L67.7375,8.255 L69.3101,8.035 L70.9154,7.81 L72.552,7.581 L74.2293,7.348 L75.9062,7.116 L77.6382,6.878 L79.3698,6.641 L81.1504,6.402 L82.9317,6.169 L84.7528,5.937 L86.5733,5.704 L88.4324,5.476 L90.291,5.247 L92.1817,5.021 L94.0722,4.795 L95.9875,4.578 L97.9021,4.36 L99.8383,4.15 L101.7732,3.933 L103.7242,3.731 L105.6751,3.528 L107.636,3.341 L109.5959,3.154 L111.5615,2.987 L113.5264,2.819 L115.491,2.674 L117.4557,2.53 L119.4153,2.41 L121.3738,2.29 L123.3213,2.198 L125.2681,2.106 L127.198,2.046 L129.1298,1.985 L131.0427,1.946 L132.9443,1.925 L134.8319,1.923 L136.7051,1.939 L138.5609,1.975 L140.3984,2.031 L142.2178,2.106 L144.0154,2.202 L145.7905,2.322 L147.5435,2.462 L149.2701,2.626 L150.9703,2.813 L152.6445,3.023 L154.2878,3.259 L155.9005,3.52 L157.4831,3.805 L159.0305,4.117 L160.543,4.457 L162.0215,4.823 L163.4602,5.216 L164.8598,5.64 L166.2215,6.091 L167.5387,6.571 L168.8129,7.082 L170.0452,7.622 L171.2294,8.191 L172.3667,8.793 L173.4587,9.425 L174.4979,10.088 L175.4868,10.785 L176.4273,11.513 L177.3117,12.273 L178.1432,13.069 L178.9239,13.897 L179.6461,14.759 L180.3127,15.66 L180.9266,16.595 L181.48,17.566 L181.9751,18.581 L182.4155,19.633 L182.7937,20.725 L183.1099,21.864 L183.3677,23.046 L183.5591,24.272 L183.6832,25.55 L183.7444,26.873 L183.735,28.244 L183.6517,29.694 L183.6299,30.026 L183.6141,30.414 L183.6049,30.831 L183.6012,31.277 L183.6029,31.753 L183.6097,32.261 L183.6347,33.339 L183.6747,34.522 L183.7257,35.792 L183.7863,37.156 L183.847,38.517 L183.9115,39.979 L183.9758,41.437 L184.0298,42.935 L184.0837,44.432 L184.1234,45.921 L184.1488,47.389 L184.1563,48.825 L184.1531,49.52 L184.1443,50.204 L184.1295,50.872 L184.109,51.523 L184.0817,52.153 L184.0474,52.762 L184.0064,53.348 L183.9579,53.907 L183.9014,54.439 L183.8377,54.942 L183.7662,55.411 L183.6866,55.845 L183.6002,56.243 L183.5078,56.597 L183.4096,56.907 L183.3095,57.172 L183.213,57.378 L183.1109,57.548 L183.6644,57.099 L183.7609,57.069 L183.745,57.072 L183.6805,57.082 L183.5798,57.096 L183.4518,57.112 L183.1039,57.151 L182.6567,57.196 L182.11,57.246 L181.4762,57.302 L180.7498,57.362 L179.9331,57.427 L179.0365,57.497 L178.0545,57.571 L176.9893,57.65 L175.8504,57.732 L174.6327,57.818 L173.3384,57.909 L171.9766,58.003 L170.5424,58.101 L169.0383,58.203 L167.4725,58.307 L165.8409,58.415 L164.1458,58.526 L162.3949,58.64 L160.5847,58.757 L158.7175,58.876 L156.8004,58.997 L154.8304,59.12 L153.8203,59.183 L152.8101,59.246 L151.7778,59.31 L150.7456,59.374 L149.6902,59.44 L148.6348,59.505 L147.5575,59.571 L146.48,59.637 L145.3836,59.704 L144.2871,59.771 L143.1707,59.838 L142.0543,59.906 L140.9192,59.974 L139.7839,60.042 L138.6326,60.111 L137.4813,60.18 L136.3133,60.249 L135.1453,60.319 L133.9618,60.389 L132.7784,60.459 L131.5644,60.53 L130.3499,60.601 L129.1355,60.672 L127.9211,60.743 L126.7066,60.815 L125.4922,60.886 L124.2778,60.957 L123.064,61.028 L121.8086,61.1 L120.5527,61.173 L119.2968,61.245 L118.0408,61.318 L116.7849,61.39 L115.5289,61.462 L114.273,61.535 L113.0177,61.607 L111.7397,61.679 L110.461,61.752 L109.1824,61.824 L107.9038,61.897 L106.6251,61.969 L105.3465,62.042 L104.0679,62.115 L102.7897,62.188 L101.5056,62.26 L100.221,62.332 L98.9363,62.405 L97.652,62.477 L96.3688,62.549 L95.0853,62.622 L93.8017,62.695 L92.5185,62.768 L91.241,62.839 L89.9632,62.911 L88.6854,62.983 L87.4078,63.055 L86.1393,63.125 L84.8703,63.196 L83.6014,63.266 L82.3329,63.337 L81.0783,63.406 L79.8234,63.475 L78.5684,63.545 L77.3139,63.614 L76.078,63.683 L74.8418,63.751 L73.6055,63.819 L72.3695,63.887 L71.1486,63.953 L69.9276,64.02 L68.719,64.086 L67.5105,64.152 L66.3155,64.216 L65.1205,64.281 L63.9388,64.344 L62.7572,64.408 L61.5912,64.47 L60.4251,64.53 L59.2757,64.586 L58.1262,64.643 L56.993,64.698 L55.8599,64.754 L54.7457,64.808 L53.6314,64.862 L52.5372,64.914 L51.4429,64.964 L50.3676,65.01 L49.2924,65.056 L48.2393,65.1 L47.1862,65.145 L46.1565,65.188 L45.1267,65.231 L44.1191,65.272 L43.1116,65.314 L41.1474,65.399 L39.2364,65.482 L37.3757,65.562 L35.5723,65.637 L33.8284,65.709 L32.1409,65.78 L30.5172,65.846 L28.9597,65.908 L27.4641,65.966 L26.0391,66.019 L24.6867,66.067 L23.4025,66.112 L22.1954,66.151 L21.0677,66.185 L20.0143,66.214 L19.0451,66.237 L18.1606,66.255 L17.7512,66.261 L17.3629,66.267 L16.9975,66.27 L16.6534,66.272 L16.3334,66.273 L16.0374,66.272 L15.7642,66.27 L15.5171,66.266 L15.2959,66.261 L15.1002,66.255 L14.9348,66.247 L14.9053,66.25 L14.7977,66.239 L14.7667,66.224 L14.6635,66.151 L14.5094,66.01 L14.3241,65.793 L14.1111,65.487 L13.8852,65.109 L13.6551,64.662 L13.4216,64.143 L13.1888,63.566 L12.9598,62.934 L12.7342,62.247 L12.5129,61.514 L12.2976,60.738 L12.0875,59.919 L11.8827,59.065 L11.6841,58.178 L11.4928,57.267 L11.1205,55.343 L10.9486,54.352 L10.7751,53.353 L10.613,52.328 L10.4495,51.3 L10.2955,50.258 L10.1414,49.216 L9.9973,48.17 L9.8529,47.122 L9.7178,46.085 L9.5823,45.045 L9.453,44.02 L9.3275,43.007 L9.2058,42.011 L9.0874,41.032 L8.9725,40.075 L8.8607,39.143 L8.7518,38.237 L8.6456,37.362 L8.5422,36.521 L8.4409,35.713 L8.3417,34.945 L8.2445,34.219 L8.1488,33.534 L8.0543,32.895 L7.9607,32.306 L7.8672,31.763 L7.7726,31.269 L7.6754,30.825 L7.5563,30.353 L7.4074,29.822 L7.2327,29.239 L7.0366,28.61 L6.8194,27.937 L6.5836,27.225 L6.0785,25.735 L5.5382,24.178 L4.993,22.625 L4.7257,21.866 L4.4668,21.131 L4.2198,20.427 L3.9867,19.76 L3.772,19.14 L3.5796,18.576 L3.4108,18.072 L3.2719,17.644 L3.1648,17.295 L3.1286,17.17 L3.1017,17.07 L3.0871,17.009 L3.0862,17.007 L3.098,17.137 L3.0954,17.303 C3.1776,16.451 2.5536,15.694 1.7015,15.611 C0.8494,15.529 0.092,16.153 0.0098,17.005 Z" id="Fill-7"></path>
        </g>
    </g>
</svg>
