<?xml version="1.0" encoding="UTF-8"?>
<svg width="186px" height="63px" viewBox="0 0 186 63" version="1.1" xmlns="http://www.w3.org/2000/svg" xmlns:xlink="http://www.w3.org/1999/xlink">
    <title>75</title>
    <g id="Page-1" stroke="none" stroke-width="1" fill="none" fill-rule="evenodd">
        <g id="75" transform="translate(0.885900, 0.145000)" fill="currentColor">
            <path d="M7.6476,15.996 C-14.1012,70.368 25.9487,62.008 69.7928,57.19 C99.8944,53.882 139.5213,59.368 167.8048,47.246 C177.824,42.952 190.258,16.004 179.1685,6.763 C168.9677,-1.738 139.9582,2.886 127.6767,2.502 C109.3279,1.928 90.9844,1.801 72.6338,1.081 C47.6623,0.102 25.532,0.658 1.2555,6.053" id="Fill-4"></path>
            <path d="M6.2052,15.429 L5.5409,17.118 L4.9141,18.776 L4.3281,20.393 L3.7787,21.974 L3.2687,23.517 L2.7985,25.021 L2.3638,26.49 L1.9675,27.923 L1.6099,29.317 L1.2868,30.679 L1.0011,32.007 L0.7531,33.298 L0.5388,34.558 L0.361,35.786 L0.2199,36.978 L0.1119,38.141 L0.0398,39.274 L0.0036,40.372 L0,41.443 L0.0319,42.485 L0.0991,43.494 L0.1985,44.477 L0.3334,45.433 L0.5029,46.356 L0.7043,47.254 L0.9413,48.126 L1.212,48.966 L1.5142,49.779 L1.8525,50.567 L2.2231,51.323 L2.6241,52.053 L3.0597,52.756 L3.5251,53.427 L4.019,54.071 L4.5456,54.689 L5.0992,55.274 L5.6787,55.833 L6.2884,56.366 L6.922,56.867 L7.579,57.343 L8.2634,57.794 L8.9693,58.215 L9.6962,58.613 L10.4482,58.986 L11.2197,59.334 L12.0105,59.659 L12.8243,59.961 L13.6564,60.241 L14.5065,60.5 L15.378,60.738 L16.2668,60.955 L17.1726,61.154 L18.0985,61.333 L19.0408,61.494 L19.9991,61.638 L20.9762,61.765 L21.9691,61.875 L22.9771,61.97 L24.0026,62.049 L25.0481,62.113 L26.1047,62.155 L27.1665,62.198 L28.2603,62.213 L29.3522,62.228 L30.4744,62.218 L31.5936,62.208 L32.7392,62.177 L33.8845,62.144 L35.0573,62.089 L36.2284,62.033 L37.4252,61.958 L38.6199,61.883 L39.8366,61.792 L41.053,61.701 L42.292,61.594 L43.5294,61.482 L44.7878,61.357 L46.0446,61.232 L47.3192,61.095 L48.5932,60.959 L49.8852,60.812 L51.1763,60.668 L52.4842,60.52 L53.791,60.372 L55.1112,60.217 L56.4309,60.063 L57.7637,59.905 L59.0957,59.746 L60.4396,59.589 L61.7829,59.433 L63.1353,59.276 L64.4868,59.12 L65.8468,58.964 L67.2059,58.808 L68.5717,58.656 L69.9333,58.503 L71.8134,58.308 L73.7145,58.134 L75.641,57.981 L77.5887,57.845 L79.56,57.725 L80.553,57.673 L81.5489,57.621 L82.5533,57.576 L83.5577,57.531 L84.5709,57.492 L85.5847,57.454 L86.6067,57.421 L87.6294,57.388 L88.659,57.36 L89.6887,57.332 L90.7255,57.309 L91.7628,57.285 L92.8065,57.265 L93.8501,57.245 L94.9014,57.227 L95.9551,57.21 L97.0087,57.193 L98.0604,57.175 L99.1215,57.161 L100.1845,57.147 L101.2475,57.133 L102.3106,57.118 L103.3804,57.103 L104.4502,57.089 L105.52,57.074 L106.5914,57.059 L107.6669,57.041 L108.7408,57.024 L109.8147,57.006 L110.8921,56.989 L111.9717,56.965 L113.048,56.942 L114.1242,56.919 L115.2057,56.895 L116.287,56.863 L117.363,56.83 L118.439,56.798 L119.5213,56.765 L120.6013,56.722 L121.6751,56.679 L122.7489,56.636 L123.8312,56.592 L124.9088,56.534 L125.9779,56.476 L127.047,56.419 L128.1265,56.36 L129.1988,56.284 L130.2606,56.208 L131.3224,56.133 L132.3952,56.056 L133.4595,55.961 L134.5127,55.867 L135.5659,55.772 L136.633,55.676 L137.6885,55.558 L138.73,55.44 L139.7715,55.323 L140.8291,55.204 L141.8725,55.057 L142.8997,54.913 L143.927,54.769 L144.9662,54.623 L145.9946,54.458 L147.0203,54.292 L148.0373,54.111 L149.0548,53.93 L150.0629,53.733 L151.0705,53.535 L152.069,53.322 L153.069,53.109 L154.0585,52.878 L155.0525,52.646 L157.006,52.148 L158.9431,51.613 L160.8578,51.037 L162.7464,50.42 L164.6117,49.763 L166.451,49.059 L168.2601,48.31 L168.9629,47.979 L169.6635,47.586 L170.3558,47.14 L171.043,46.646 L171.7268,46.099 L172.4026,45.506 L173.0721,44.871 L173.7358,44.19 L174.3899,43.47 L175.0355,42.714 L175.6721,41.919 L176.2962,41.091 L176.9088,40.232 L177.5087,39.341 L178.0926,38.422 L178.6618,37.48 L179.214,36.511 L179.7466,35.521 L180.2608,34.513 L180.7538,33.485 L181.2232,32.443 L181.6701,31.387 L182.0918,30.319 L182.4855,29.242 L182.8531,28.158 L183.1909,27.068 L183.4965,25.975 L183.7719,24.881 L184.0128,23.786 L184.2169,22.696 L184.3865,21.609 L184.517,20.528 L184.6059,19.458 L184.6558,18.397 L184.6611,17.347 L184.6199,16.314 L184.5341,15.296 L184.3971,14.295 L184.2079,13.318 L183.9688,12.363 L183.6719,11.43 L183.3169,10.531 L182.9059,9.66 L182.43,8.822 L181.8914,8.026 L181.2922,7.27 L180.6227,6.557 L179.893,5.902 L179.1695,5.339 L178.4003,4.82 L177.5901,4.341 L176.7426,3.898 L175.8536,3.489 L174.9297,3.116 L173.9742,2.773 L172.9834,2.46 L171.9629,2.177 L170.9156,1.92 L169.8389,1.69 L168.7375,1.485 L167.6142,1.302 L166.4672,1.142 L165.3005,1.004 L164.1167,0.886 L162.9149,0.788 L161.6955,0.708 L160.4656,0.651 L159.2327,0.595 L157.9783,0.568 L156.7262,0.543 L155.4611,0.542 L154.1986,0.542 L152.9311,0.562 L151.6645,0.582 L150.4,0.62 L149.1372,0.658 L147.8851,0.71 L146.6348,0.761 L145.4011,0.821 L144.1685,0.881 L142.9617,0.947 L141.7565,1.012 L140.5858,1.079 L139.4166,1.146 L138.2856,1.21 L137.1562,1.273 L136.0765,1.329 L134.9988,1.386 L133.9796,1.431 L132.9603,1.477 L131.9889,1.513 L131.053,1.54 L130.1554,1.558 L129.2951,1.565 L128.4784,1.561 L127.7015,1.545 L126.5566,1.515 L125.4098,1.485 L124.263,1.454 L123.1162,1.424 L121.9694,1.394 L120.8226,1.364 L119.6758,1.334 L118.5265,1.304 L117.3773,1.28 L116.2306,1.256 L115.0838,1.232 L113.9371,1.208 L112.7904,1.183 L111.6437,1.158 L110.497,1.133 L109.3495,1.107 L108.202,1.084 L107.0554,1.061 L105.9087,1.037 L104.762,1.014 L103.6153,0.991 L102.4687,0.968 L101.322,0.945 L100.1759,0.922 L99.0297,0.897 L97.8831,0.873 L96.7364,0.848 L95.5896,0.824 L94.4428,0.806 L93.2959,0.789 L92.1491,0.771 L91.0042,0.754 L89.8592,0.731 L88.7123,0.708 L87.5653,0.685 L86.4184,0.664 L85.2714,0.644 L84.1244,0.623 L82.9773,0.603 L81.8336,0.583 L80.6896,0.553 L79.5424,0.523 L78.3952,0.494 L77.2482,0.46 L76.1011,0.426 L74.9541,0.393 L73.807,0.359 L72.6609,0.325 L71.1074,0.276 L69.5512,0.226 L68.0092,0.185 L66.4671,0.143 L64.9379,0.111 L63.4088,0.079 L61.8905,0.057 L60.372,0.033 L58.8643,0.018 L57.3564,0.004 L55.8582,0.002 L54.36,0 L52.8697,0.009 L51.379,0.018 L49.8958,0.041 L48.4124,0.063 L46.9353,0.1 L45.4584,0.137 L43.9863,0.187 L42.5137,0.237 L41.0453,0.303 L39.5768,0.369 L38.1112,0.451 L36.6459,0.533 L35.1823,0.631 L33.7181,0.727 L32.2548,0.841 L30.7913,0.955 L29.3275,1.088 L27.8639,1.221 L26.3991,1.371 L24.9337,1.522 L23.4659,1.692 L21.9979,1.863 L20.5263,2.054 L19.0549,2.246 L17.5792,2.457 L16.1031,2.668 L14.6211,2.902 L13.1391,3.135 L11.65,3.392 L10.1612,3.648 L8.6651,3.927 L7.1686,4.205 L5.6629,4.508 L4.1572,4.811 L2.641,5.139 L1.1293,5.466 C0.8053,5.536 0.5992,5.855 0.6689,6.179 C0.7386,6.503 1.0578,6.709 1.3817,6.639 L2.8943,6.316 L4.4026,5.993 L5.9003,5.696 L7.3981,5.398 L8.8865,5.125 L10.3754,4.852 L11.8568,4.6 L13.3378,4.349 L14.8116,4.12 L16.2855,3.892 L17.7534,3.685 L19.2218,3.479 L20.6858,3.292 L22.1494,3.105 L23.6092,2.939 L25.0692,2.773 L26.5265,2.627 L27.9843,2.481 L29.4407,2.352 L30.8968,2.224 L32.3525,2.114 L33.8084,2.004 L35.265,1.912 L36.7221,1.821 L38.1809,1.745 L39.6395,1.67 L41.1009,1.611 L42.5626,1.552 L44.0283,1.509 L45.4945,1.466 L46.9654,1.437 L48.4361,1.407 L49.9131,1.392 L51.3902,1.377 L52.8748,1.375 L54.3598,1.373 L55.8526,1.383 L57.3453,1.392 L58.8476,1.414 L60.3501,1.436 L61.8634,1.47 L63.377,1.506 L64.9014,1.551 L66.4258,1.596 L67.9631,1.652 L69.5006,1.707 L71.0522,1.772 L72.6066,1.837 L73.7542,1.883 L74.9009,1.929 L76.0475,1.974 L77.1942,2.02 L78.3408,2.066 L79.4873,2.115 L80.6338,2.165 L81.7836,2.215 L82.9333,2.256 L84.0798,2.297 L85.2263,2.337 L86.3728,2.378 L87.5193,2.418 L88.6658,2.456 L89.8123,2.494 L90.9608,2.533 L92.1093,2.566 L93.2558,2.599 L94.4023,2.632 L95.5488,2.665 L96.6955,2.692 L97.8421,2.718 L98.9888,2.745 L100.136,2.771 L101.2833,2.796 L102.4299,2.821 L103.5765,2.846 L104.7232,2.87 L105.8698,2.895 L107.0165,2.92 L108.1631,2.944 L109.309,2.969 L110.4548,2.995 L111.6015,3.022 L112.7482,3.049 L113.8948,3.076 L115.0415,3.104 L116.1881,3.132 L117.3347,3.16 L118.4789,3.188 L119.6231,3.221 L120.7698,3.255 L121.9165,3.289 L123.0632,3.323 L124.2099,3.357 L125.3566,3.391 L126.5033,3.425 L127.652,3.459 L128.4505,3.479 L129.2954,3.486 L130.1783,3.481 L131.0947,3.468 L132.047,3.446 L133.0337,3.416 L134.0607,3.376 L135.0879,3.336 L136.1733,3.286 L137.2568,3.235 L138.3899,3.179 L139.5216,3.123 L140.6915,3.065 L141.86,3.007 L143.0631,2.951 L144.2646,2.894 L145.4919,2.844 L146.7182,2.794 L147.9611,2.752 L149.2022,2.711 L150.454,2.683 L151.704,2.655 L152.956,2.645 L154.2071,2.635 L155.453,2.644 L156.6963,2.654 L157.9263,2.689 L159.1539,2.724 L160.3594,2.788 L161.5679,2.853 L162.7482,2.94 L163.913,3.044 L165.0583,3.166 L166.183,3.305 L167.2821,3.465 L168.3555,3.645 L169.4023,3.846 L170.4168,4.068 L171.3992,4.315 L172.3491,4.584 L173.2597,4.876 L174.1321,5.194 L174.9662,5.536 L175.754,5.902 L176.498,6.296 L177.1985,6.714 L177.847,7.156 L178.444,7.625 L179.0434,8.167 L179.5795,8.743 L180.0655,9.361 L180.5051,10.014 L180.8925,10.701 L181.2332,11.429 L181.5309,12.189 L181.7804,12.981 L181.9847,13.808 L182.1479,14.663 L182.2658,15.544 L182.3406,16.453 L182.3768,17.385 L182.3708,18.336 L182.3237,19.308 L182.2405,20.295 L182.1187,21.294 L181.9592,22.307 L181.7669,23.328 L181.5399,24.353 L181.2793,25.385 L180.9895,26.418 L180.6692,27.449 L180.3193,28.478 L179.944,29.502 L179.5427,30.516 L179.1159,31.521 L178.6679,32.515 L178.1984,33.492 L177.7079,34.453 L177.2003,35.395 L176.6757,36.314 L176.1347,37.209 L175.5808,38.079 L175.0149,38.919 L174.4372,39.727 L173.8511,40.505 L173.2583,41.244 L172.6587,41.945 L172.0556,42.609 L171.4517,43.227 L170.8465,43.8 L170.2434,44.329 L169.6467,44.806 L169.0549,45.231 L168.4721,45.606 L167.9046,45.923 L167.3495,46.183 L165.5957,46.906 L163.8136,47.584 L162.0012,48.219 L160.1632,48.815 L158.2995,49.371 L156.409,49.888 L154.4923,50.372 L153.529,50.594 L152.561,50.817 L151.5825,51.023 L150.6026,51.228 L149.6135,51.418 L148.625,51.609 L147.627,51.783 L146.6285,51.957 L145.6212,52.115 L144.6165,52.274 L143.6008,52.412 L142.573,52.553 L141.5453,52.693 L140.5337,52.831 L139.5077,52.943 L138.4658,53.056 L137.4239,53.17 L136.3959,53.282 L135.3562,53.37 L134.3026,53.46 L133.249,53.549 L132.2065,53.638 L131.1554,53.708 L130.0932,53.778 L129.0311,53.849 L127.9794,53.919 L126.9205,53.971 L125.8511,54.024 L124.7818,54.077 L123.721,54.129 L122.6556,54.167 L121.5816,54.205 L120.5076,54.243 L119.4399,54.281 L118.37,54.308 L117.2938,54.335 L116.2176,54.363 L115.1467,54.39 L114.0756,54.408 L112.9993,54.426 L111.9229,54.445 L110.8499,54.463 L109.7793,54.475 L108.7053,54.488 L107.6313,54.5 L106.5588,54.513 L105.4906,54.523 L104.4207,54.533 L103.3509,54.542 L102.2811,54.552 L101.2181,54.562 L100.155,54.572 L99.092,54.582 L98.027,54.593 L96.9713,54.606 L95.9176,54.619 L94.8639,54.632 L93.8078,54.645 L92.7593,54.663 L91.7109,54.681 L90.6688,54.703 L89.6262,54.724 L88.5905,54.75 L87.5547,54.776 L86.5257,54.807 L85.4959,54.838 L84.4741,54.875 L83.4518,54.911 L82.4382,54.955 L81.4245,54.998 L80.4192,55.048 L79.411,55.099 L77.4192,55.215 L75.4459,55.351 L73.4913,55.504 L71.558,55.679 L69.6523,55.876 L68.2788,56.028 L66.9094,56.181 L65.5466,56.336 L64.1847,56.491 L62.8312,56.647 L61.4785,56.803 L60.1348,56.959 L58.7918,57.113 L57.4598,57.261 L56.1287,57.408 L54.811,57.551 L53.4938,57.694 L52.1902,57.831 L50.8877,57.969 L49.6013,58.094 L48.3156,58.216 L47.0483,58.329 L45.7814,58.441 L44.5327,58.543 L43.2856,58.645 L42.06,58.733 L40.836,58.825 L39.6354,58.903 L38.4351,58.98 L37.2574,59.042 L36.0819,59.103 L34.9329,59.146 L33.7856,59.188 L32.6666,59.211 L31.5478,59.235 L30.4562,59.239 L29.3676,59.242 L28.3106,59.221 L27.2557,59.2 L26.2341,59.153 L25.2074,59.106 L24.2159,59.041 L23.2397,58.962 L22.2818,58.869 L21.3422,58.762 L20.4243,58.639 L19.5261,58.501 L18.6475,58.348 L17.7923,58.179 L16.958,57.993 L16.1444,57.791 L15.356,57.574 L14.5894,57.338 L13.8448,57.086 L13.1268,56.816 L12.4314,56.528 L11.759,56.223 L11.1143,55.901 L10.4926,55.559 L9.8944,55.199 L9.3245,54.822 L8.7776,54.424 L8.2541,54.007 L7.7587,53.572 L7.2862,53.114 L6.8367,52.636 L6.4146,52.139 L6.0154,51.615 L5.6388,51.069 L5.2892,50.501 L4.963,49.904 L4.6597,49.282 L4.3834,48.635 L4.1314,47.955 L3.9035,47.247 L3.7037,46.511 L3.531,45.74 L3.3842,44.939 L3.267,44.107 L3.1795,43.237 L3.1197,42.336 L3.0914,41.402 L3.0951,40.43 L3.1285,39.424 L3.1951,38.384 L3.2958,37.304 L3.4278,36.19 L3.5947,35.04 L3.7976,33.851 L4.0333,32.626 L4.3053,31.363 L4.6149,30.06 L4.9588,28.721 L5.3404,27.343 L5.761,25.923 L6.217,24.466 L6.7122,22.97 L7.2477,21.43 L7.8199,19.853 L8.4325,18.234 L9.09,16.564 C9.4034,15.767 9.0116,14.867 8.215,14.554 C7.4183,14.24 6.5185,14.632 6.2052,15.429 Z" id="Fill-5"></path>
        </g>
    </g>
</svg>
