<?xml version="1.0" encoding="UTF-8"?>
<svg width="86px" height="84px" viewBox="0 0 86 84" version="1.1" xmlns="http://www.w3.org/2000/svg" xmlns:xlink="http://www.w3.org/1999/xlink">
    <title>76</title>
    <g id="Page-1" stroke="none" stroke-width="1" fill="none" fill-rule="evenodd">
        <g id="76" transform="translate(0.126310, 0.311000)" fill="currentColor">
            <path d="M29.59588,6.578 C-24.1987,-6.871 4.54588,122.195 70.18152,69.686 C114.08089,34.567 44.42903,-23.011 18.89197,11.038" id="Fill-1"></path>
            <path d="M29.95604,5.07 L29.10413,4.867 L28.24737,4.684 L27.40485,4.525 L26.57366,4.388 L25.75315,4.274 L24.94693,4.184 L24.15195,4.115 L23.36743,4.068 L22.59731,4.045 L21.83844,4.042 L21.0899,4.062 L20.35598,4.104 L19.63341,4.165 L18.92118,4.249 L18.22386,4.355 L17.5381,4.479 L16.86286,4.626 L16.17958,4.799 L14.91887,5.183 L13.68309,5.655 L12.50598,6.202 L11.37913,6.819 L10.30387,7.51 L9.28906,8.267 L8.32621,9.084 L7.41801,9.967 L6.57022,10.907 L5.77425,11.897 L5.03182,12.942 L4.34705,14.035 L3.71236,15.169 L3.12984,16.351 L2.60182,17.571 L2.1215,18.827 L1.69218,20.122 L1.31454,21.449 L0.9825,22.804 L0.69919,24.193 L0.46713,25.607 L0.27949,27.043 L0.13914,28.506 L0.04598,29.987 L0,31.485 L0,33.002 L0.04624,34.532 L0.13577,36.072 L0.27673,37.624 L0.46185,39.181 L0.68691,40.743 L0.94698,42.312 L1.24671,43.881 L1.58537,45.45 L1.9643,47.018 L2.37825,48.582 L2.83031,50.139 L3.32443,51.69 L3.85959,53.228 L4.43212,54.754 L5.046,56.266 L5.70041,57.759 L6.39224,59.234 L7.12476,60.688 L7.89617,62.116 L8.70351,63.519 L9.55102,64.896 L10.43655,66.24 L11.35852,67.553 L12.32086,68.831 L13.32026,70.069 L14.35445,71.271 L15.42851,72.431 L16.53867,73.544 L17.68292,74.614 L18.86601,75.635 L20.08418,76.603 L21.33575,77.52 L22.62567,78.382 L23.94941,79.183 L25.30562,79.926 L26.69939,80.607 L28.12535,81.218 L29.58246,81.766 L31.07581,82.242 L32.59935,82.643 L34.1521,82.974 L35.73926,83.226 L37.35446,83.395 L38.99707,83.488 L40.67194,83.494 L42.37268,83.412 L44.09882,83.246 L45.85523,82.99 L47.62321,82.641 L48.53506,82.43 L49.44211,82.196 L50.35447,81.938 L51.27266,81.658 L52.19834,81.352 L53.12921,81.021 L54.06573,80.667 L55.00952,80.286 L55.95883,79.88 L56.91372,79.45 L57.8757,78.993 L58.84282,78.51 L59.81542,78.002 L60.79492,77.465 L61.77954,76.902 L62.76954,76.313 L63.76628,75.695 L64.76813,75.049 L65.77514,74.377 L66.78871,73.675 L67.80738,72.944 L68.83128,72.186 L69.86143,71.398 L70.90177,70.576 L72.26164,69.451 L73.55297,68.304 L74.76752,67.142 L75.91545,65.967 L76.99242,64.777 L77.99555,63.574 L78.93395,62.361 L79.804,61.134 L80.60427,59.9 L81.34233,58.656 L82.01463,57.403 L82.62019,56.144 L83.16672,54.88 L83.64797,53.607 L84.06567,52.333 L84.42708,51.056 L84.7283,49.774 L84.96953,48.494 L85.15751,47.214 L85.28842,45.933 L85.36309,44.655 L85.38781,43.381 L85.35885,42.108 L85.27754,40.842 L85.14958,39.58 L84.97137,38.324 L84.74635,37.076 L84.47804,35.836 L84.16298,34.603 L83.80326,33.381 L83.40503,32.168 L82.96439,30.964 L82.48276,29.774 L81.9644,28.595 L81.40625,27.428 L80.8108,26.276 L80.1818,25.138 L79.51639,24.014 L78.81713,22.907 L78.08918,21.815 L77.32812,20.74 L76.53652,19.684 L75.71749,18.645 L74.86837,17.626 L73.99204,16.628 L73.09133,15.65 L72.16411,14.693 L71.20709,13.767 L70.22637,12.865 L69.22286,11.987 L68.19929,11.136 L67.1563,10.311 L66.09278,9.514 L65.01267,8.745 L63.91777,8.003 L62.80848,7.287 L61.68813,6.599 L60.55567,5.938 L59.41017,5.309 L58.25448,4.712 L57.0902,4.145 L55.91602,3.611 L54.73475,3.113 L53.54725,2.647 L52.35424,2.214 L51.15736,1.818 L49.95698,1.457 L48.75289,1.134 L47.54813,0.851 L46.34283,0.605 L45.137,0.4 L43.93385,0.238 L42.73315,0.115 L41.53517,0.035 L40.34325,0 L39.1568,0.006 L37.97631,0.059 L36.80532,0.159 L35.64273,0.301 L34.48939,0.493 L33.34905,0.735 L32.22046,1.023 L31.1047,1.362 L30.00564,1.754 L28.92172,2.195 L27.85438,2.69 L26.8075,3.239 L25.7792,3.839 L24.77135,4.496 L23.78762,5.21 L22.82591,5.975 L21.88847,6.8 L20.97866,7.684 L20.09413,8.621 L19.23758,9.619 L18.41956,10.668 C18.21527,10.929 18.26116,11.306 18.52207,11.51 C18.78298,11.715 19.16009,11.669 19.36438,11.408 L20.16905,10.384 L20.99233,9.432 L21.84235,8.538 L22.71492,7.698 L23.61038,6.916 L24.52968,6.19 L25.46878,5.514 L26.42766,4.894 L27.40759,4.328 L28.40473,3.809 L29.41871,3.344 L30.45098,2.929 L31.49791,2.56 L32.5588,2.241 L33.63512,1.971 L34.72348,1.745 L35.82288,1.567 L36.93468,1.435 L38.05585,1.346 L39.18495,1.303 L40.32312,1.305 L41.46757,1.347 L42.61677,1.432 L43.77168,1.559 L44.92987,1.725 L46.08958,1.931 L47.25162,2.178 L48.41393,2.46 L49.57448,2.781 L50.73393,3.14 L51.8906,3.533 L53.04209,3.962 L54.18765,4.431 L55.32716,4.93 L56.4581,5.464 L57.5809,6.031 L58.69396,6.628 L59.79494,7.257 L60.88431,7.916 L61.96144,8.603 L63.02076,9.322 L64.06319,10.073 L65.09005,10.847 L66.09802,11.648 L67.08863,12.473 L68.06227,13.319 L69.01388,14.188 L69.94376,15.081 L70.85495,15.991 L71.74723,16.917 L72.61489,17.864 L73.45853,18.829 L74.27404,19.813 L75.0619,20.815 L75.82277,21.834 L76.55223,22.869 L77.25044,23.921 L77.91692,24.987 L78.54866,26.067 L79.14585,27.161 L79.71015,28.266 L80.23656,29.382 L80.72516,30.51 L81.17805,31.647 L81.59012,32.792 L81.96038,33.947 L82.2907,35.108 L82.57725,36.275 L82.81973,37.449 L83.02101,38.628 L83.17407,39.809 L83.27995,40.995 L83.34197,42.184 L83.35469,43.372 L83.31703,44.564 L83.23282,45.755 L83.09658,46.945 L82.90673,48.136 L82.6676,49.325 L82.37359,50.511 L82.02248,51.696 L81.6191,52.878 L81.1578,54.054 L80.63787,55.229 L80.0624,56.4 L79.42556,57.563 L78.72396,58.722 L77.96401,59.876 L77.1391,61.02 L76.24539,62.158 L75.28986,63.289 L74.26679,64.409 L73.17095,65.521 L72.00912,66.623 L70.77612,67.714 L69.46128,68.797 L68.45614,69.588 L67.45328,70.353 L66.45671,71.088 L65.46639,71.796 L64.48368,72.475 L63.50718,73.125 L62.53721,73.749 L61.57508,74.345 L60.61924,74.912 L59.66993,75.454 L58.72868,75.969 L57.79378,76.456 L56.86554,76.919 L55.94558,77.355 L55.03203,77.766 L54.12525,78.152 L53.22661,78.512 L52.33444,78.847 L51.44918,79.159 L50.57264,79.446 L49.70259,79.708 L48.83948,79.949 L47.98521,80.166 L47.14996,80.357 L45.4628,80.684 L43.82187,80.918 L42.20918,81.063 L40.62483,81.131 L39.07434,81.117 L37.55201,81.022 L36.05774,80.856 L34.59707,80.616 L33.16434,80.301 L31.75961,79.92 L30.38824,79.472 L29.04489,78.955 L27.72935,78.379 L26.44708,77.742 L25.19343,77.042 L23.96801,76.288 L22.77616,75.479 L21.61404,74.613 L20.48096,73.7 L19.38211,72.737 L18.3144,71.723 L17.2768,70.667 L16.27432,69.568 L15.30387,68.426 L14.36457,67.247 L13.46134,66.032 L12.59157,64.78 L11.75302,63.498 L10.9515,62.186 L10.18556,60.844 L9.4531,59.477 L8.75871,58.088 L8.10129,56.674 L7.4776,55.243 L6.89226,53.795 L6.34515,52.331 L5.83356,50.855 L5.36172,49.37 L4.92931,47.875 L4.53343,46.374 L4.18524,44.87 L3.88018,43.363 L3.61257,41.856 L3.38992,40.355 L3.21759,38.858 L3.08343,37.369 L2.99166,35.893 L2.93568,34.43 L2.91595,32.981 L2.93909,31.553 L3.00508,30.143 L3.10549,28.755 L3.24908,27.393 L3.43645,26.057 L3.66274,24.748 L3.93006,23.474 L4.24163,22.231 L4.59269,21.022 L4.98627,19.856 L5.42375,18.727 L5.90035,17.638 L6.41859,16.598 L6.98145,15.603 L7.58279,14.652 L8.22452,13.755 L8.91143,12.909 L9.63684,12.111 L10.40178,11.372 L11.21271,10.685 L12.06374,10.05 L12.95617,9.477 L13.89957,8.962 L14.88652,8.503 L15.91856,8.109 L17.03016,7.773 L17.56882,7.638 L18.14186,7.514 L18.73083,7.407 L19.33233,7.317 L19.94552,7.245 L20.57503,7.191 L21.21752,7.155 L21.87221,7.138 L22.54348,7.141 L23.22804,7.162 L23.92526,7.203 L24.63919,7.266 L25.36662,7.348 L26.10707,7.451 L26.86422,7.576 L27.63502,7.722 L28.41913,7.89 L29.23572,8.086 C30.06833,8.284 30.90455,7.771 31.10346,6.938 C31.30236,6.106 30.78865,5.269 29.95604,5.07 Z" id="Fill-3"></path>
        </g>
    </g>
</svg>
