<?xml version="1.0" encoding="UTF-8"?>
<svg width="423px" height="195px" viewBox="0 0 423 195" version="1.1" xmlns="http://www.w3.org/2000/svg" xmlns:xlink="http://www.w3.org/1999/xlink">
    <title>77</title>
    <g id="Page-1" stroke="none" stroke-width="1" fill="none" fill-rule="evenodd">
        <g id="77" transform="translate(0.165118, 0.709000)" fill="currentColor">
            <path d="M88.4926322,42.225 L88.7186322,40.737 L88.9376322,39.297 L89.1496322,37.906 L89.3546322,36.559 L89.5526322,35.26 L89.7436322,34.008 L89.9276322,32.799 L90.1046322,31.636 L90.2736322,30.52 L90.4356322,29.445 L90.5906322,28.415 L90.7396322,27.431 L90.8796322,26.487 L91.0146322,25.587 L91.1416322,24.731 L91.2636322,23.914 L91.3766322,23.14 L91.4836322,22.408 L91.5836322,21.715 L91.6786322,21.064 L91.7676322,20.454 L91.8496322,19.881 L91.9206322,19.348 L91.9876322,18.856 L92.0486322,18.399 L92.1046322,17.983 L92.1556322,17.605 L92.2026322,17.263 L92.2436322,16.959 L92.2806322,16.692 L92.3116322,16.461 L92.3396322,16.267 L92.3636322,16.11 L92.3826322,15.988 L92.3956322,15.905 L92.4036322,15.857 L92.3966322,15.897 L92.3966322,15.897 L92.3966322,15.896 L92.3966322,15.896 L92.3966322,15.896 L92.3966322,15.895 L92.3966322,15.895 L92.3966322,15.894 L92.3976322,15.893 L92.3976322,15.892 L92.3976322,15.892 L92.3976322,15.891 L92.3976322,15.889 L92.3986322,15.888 L92.3986322,15.887 L92.3986322,15.886 L92.3986322,15.887 L92.3966322,15.894 L92.3956322,15.902 L92.3926322,15.913 L92.3896322,15.928 L92.3846322,15.948 L92.3776322,15.978 L92.3636322,16.026 L92.3356322,16.112 L92.2516322,16.305 L91.6676322,16.934 L89.4356322,16.371 L89.2366322,15.792 L89.2216322,15.619 L89.2206322,15.54 L89.2226322,15.495 L89.2236322,15.479 L89.2236322,15.48 L89.2236322,15.48 L89.2226322,15.481 L89.2226322,15.482 L89.2226322,15.482 L89.2226322,15.482 L89.2226322,15.483 L89.2226322,15.483 L89.2226322,15.483 L89.2226322,15.484 L89.2226322,15.484 L89.2226322,15.484 L89.2226322,15.484 L89.2226322,15.484 L89.2226322,15.484 L89.2336322,15.372 L89.2286322,15.408 L89.2196322,15.474 L89.2056322,15.578 L89.1866322,15.718 L89.1616322,15.887 L89.1336322,16.09 L89.0996322,16.324 L89.0616322,16.587 L89.0196322,16.881 L88.9716322,17.205 L88.9206322,17.557 L88.8646322,17.939 L88.8046322,18.35 L88.7406322,18.787 L88.6716322,19.253 L88.5986322,19.747 L88.5216322,20.266 L88.4406322,20.812 L88.3556322,21.385 L88.2666322,21.982 L88.1756322,22.605 L88.0806322,23.254 L87.9836322,23.926 L87.8816322,24.623 L87.7766322,25.344 L87.6686322,26.088 L87.5596322,26.855 L87.4466322,27.645 L87.2106322,29.287 L86.9626322,31.018 L86.7026322,32.834 L86.4246322,34.722 L86.1326322,36.689 L85.9776322,37.709 L85.8226322,38.73 L85.6616322,39.783 L85.4996322,40.835 L85.3296322,41.922 L85.1596322,43.008 L84.9836322,44.127 L84.8066322,45.246 L84.6256322,46.394 L84.4446322,47.541 L84.2596322,48.718 L84.0756322,49.895 L83.8866322,51.099 L83.6996322,52.304 L83.5106322,53.533 L83.3216322,54.762 L83.1296322,56.016 L82.9396322,57.27 L82.7446322,58.547 L82.5506322,59.824 L82.3536322,61.121 L82.1566322,62.418 L81.9536322,63.734 L81.7506322,65.05 L81.5436322,66.383 L81.3326322,67.717 L81.1176322,69.064 L80.9016322,70.412 L80.6796322,71.775 L80.4586322,73.137 L80.2336322,74.512 L80.0066322,75.887 L79.7766322,77.273 L79.5476322,78.658 L79.3156322,80.054 L79.0836322,81.449 L78.8496322,82.853 L78.6166322,84.257 L78.3836322,85.668 L78.1516322,87.078 L77.9176322,88.494 L77.6856322,89.91 L77.4506322,91.33 L77.2176322,92.748 L76.9796322,94.168 L76.7416322,95.589 L76.5016322,97.009 L76.2606322,98.429 L76.0186322,99.85 L75.7746322,101.269 L75.5306322,102.689 L75.2866322,104.106 L75.0366322,105.505 L74.7866322,106.907 L74.5376322,108.309 L74.2876322,109.711 L74.0386322,111.113 L73.7906322,112.516 L73.5436322,113.918 L73.2986322,115.318 L73.0546322,116.671 L72.8096322,118.029 L72.5666322,119.386 L72.3236322,120.744 L72.0806322,122.102 L71.8376322,123.459 L71.5946322,124.817 L71.3526322,126.173 L71.1116322,127.491 L70.8696322,128.811 L70.6266322,130.111 L70.3816322,131.411 L70.1386322,132.69 L69.8936322,133.969 L69.6496322,135.227 L69.4056322,136.486 L69.1616322,137.72 L68.9176322,138.953 L68.6756322,140.161 L68.4466322,141.372 L68.2186322,142.558 L67.9906322,143.743 L67.7676322,144.9 L67.5456322,146.058 L67.3246322,147.184 L67.0976322,148.31 L66.8706322,149.405 L66.6436322,150.501 L66.4176322,151.562 L66.1896322,152.623 L65.9656322,153.648 L65.7406322,154.673 L65.5176322,155.665 L65.2946322,156.655 L64.8536322,158.56 L64.4196322,160.383 L63.9916322,162.129 L63.5696322,163.786 L63.1556322,165.355 L62.9526322,166.104 L62.7516322,166.831 L62.5526322,167.533 L62.3566322,168.213 L62.1626322,168.867 L61.9716322,169.496 L61.7826322,170.101 L61.5976322,170.678 L61.4146322,171.229 L61.2336322,171.754 L61.0576322,172.25 L60.8816322,172.723 C60.7216322,173.155 60.9416322,173.635 61.3736322,173.795 C61.8046322,173.956 62.2856322,173.736 62.4456322,173.304 L62.6256322,172.821 L62.8096322,172.305 L62.9956322,171.763 L63.1846322,171.197 L63.3746322,170.605 L63.5676322,169.988 L63.7636322,169.348 L63.9606322,168.683 L64.1606322,167.993 L64.3616322,167.282 L64.5666322,166.546 L64.7726322,165.785 L65.1906322,164.206 L65.6166322,162.536 L66.0526322,160.78 L66.4966322,158.949 L66.9486322,157.039 L67.1786322,156.044 L67.4086322,155.05 L67.6426322,154.023 L67.8766322,152.996 L68.1146322,151.933 L68.3536322,150.871 L68.5966322,149.776 L68.8396322,148.681 L69.0876322,147.557 L69.3416322,146.434 L69.5996322,145.281 L69.8566322,144.128 L70.1126322,142.945 L70.3686322,141.762 L70.6266322,140.555 L70.8726322,139.345 L71.1196322,138.109 L71.3666322,136.873 L71.6166322,135.614 L71.8666322,134.354 L72.1186322,133.075 L72.3716322,131.795 L72.6256322,130.495 L72.8806322,129.195 L73.1396322,127.876 L73.3986322,126.556 L73.6596322,125.2 L73.9196322,123.845 L74.1796322,122.491 L74.4396322,121.136 L74.6996322,119.782 L74.9586322,118.427 L75.2166322,117.072 L75.4756322,115.714 L75.7326322,114.31 L75.9876322,112.909 L76.2416322,111.508 L76.4946322,110.106 L76.7466322,108.705 L76.9986322,107.303 L77.2506322,105.902 L77.5036322,104.497 L77.7526322,103.076 L78.0026322,101.657 L78.2526322,100.238 L78.5056322,98.82 L78.7586322,97.402 L79.0116322,95.984 L79.2686322,94.566 L79.5246322,93.147 L79.7776322,91.729 L80.0296322,90.311 L80.2796322,88.897 L80.5286322,87.483 L80.7756322,86.073 L81.0196322,84.664 L81.2596322,83.26 L81.5006322,81.856 L81.7366322,80.46 L81.9736322,79.065 L82.2066322,77.679 L82.4406322,76.293 L82.6706322,74.917 L82.9026322,73.542 L83.1316322,72.18 L83.3616322,70.818 L83.5896322,69.472 L83.8176322,68.125 L84.0436322,66.793 L84.2736322,65.462 L84.4996322,64.149 L84.7266322,62.837 L84.9516322,61.544 L85.1756322,60.251 L85.3946322,58.977 L85.6136322,57.703 L85.8276322,56.452 L86.0396322,55.2 L86.2456322,53.973 L86.4516322,52.746 L86.6506322,51.542 L86.8476322,50.338 L87.0396322,49.162 L87.2306322,47.985 L87.4146322,46.837 L87.5986322,45.69 L87.7776322,44.571 L87.9566322,43.451 L88.1296322,42.364 L88.3026322,41.278 L88.4726322,40.225 L88.6436322,39.174 L88.8086322,38.154 L88.9746322,37.135 L89.2976322,35.171 L89.6086322,33.287 L89.9116322,31.477 L90.2006322,29.751 L90.4726322,28.113 L90.6036322,27.324 L90.7306322,26.559 L90.8506322,25.817 L90.9676322,25.097 L91.0796322,24.401 L91.1876322,23.73 L91.2916322,23.082 L91.3906322,22.459 L91.4836322,21.861 L91.5736322,21.288 L91.6576322,20.742 L91.7386322,20.223 L91.8156322,19.729 L91.8876322,19.262 L91.9546322,18.825 L92.0186322,18.413 L92.0776322,18.031 L92.1316322,17.678 L92.1816322,17.353 L92.2266322,17.057 L92.2676322,16.793 L92.3026322,16.557 L92.3336322,16.351 L92.3596322,16.178 L92.3816322,16.033 L92.3986322,15.919 L92.4106322,15.834 L92.4176322,15.779 L92.4276322,15.667 L92.4276322,15.667 L92.4276322,15.666 L92.4276322,15.666 L92.4276322,15.666 L92.4276322,15.666 L92.4276322,15.666 L92.4276322,15.665 L92.4276322,15.665 L92.4276322,15.665 L92.4276322,15.664 L92.4276322,15.664 L92.4276322,15.663 L92.4276322,15.663 L92.4276322,15.662 L92.4276322,15.661 L92.4286322,15.645 L92.4306322,15.598 L92.4296322,15.518 L92.4156322,15.345 L92.2156322,14.766 L89.9836322,14.202 L89.3996322,14.831 L89.3156322,15.025 L89.2866322,15.111 L89.2726322,15.16 L89.2646322,15.192 L89.2596322,15.214 L89.2556322,15.231 L89.2536322,15.244 L89.2516322,15.254 L89.2496322,15.263 L89.2486322,15.268 L89.2486322,15.269 L89.2476322,15.271 L89.2476322,15.272 L89.2476322,15.273 L89.2476322,15.274 L89.2466322,15.275 L89.2466322,15.276 L89.2466322,15.276 L89.2466322,15.277 L89.2466322,15.278 L89.2466322,15.278 L89.2466322,15.278 L89.2466322,15.279 L89.2466322,15.279 L89.2466322,15.279 L89.2386322,15.319 L89.2286322,15.381 L89.2116322,15.479 L89.1906322,15.609 L89.1646322,15.77 L89.1316322,15.967 L89.0916322,16.2 L89.0456322,16.467 L88.9936322,16.771 L88.9356322,17.113 L88.8716322,17.49 L88.8016322,17.906 L88.7236322,18.361 L88.6416322,18.852 L88.5516322,19.383 L88.4606322,19.955 L88.3656322,20.564 L88.2636322,21.216 L88.1566322,21.908 L88.0426322,22.639 L87.9236322,23.413 L87.8006322,24.23 L87.6726322,25.087 L87.5376322,25.987 L87.3956322,26.932 L87.2506322,27.917 L87.0986322,28.948 L86.9406322,30.024 L86.7766322,31.141 L86.6086322,32.306 L86.4326322,33.516 L86.2516322,34.77 L86.0636322,36.071 L85.8696322,37.42 L85.6686322,38.813 L85.4616322,40.255 L85.2476322,41.746 C85.1146322,42.642 85.7336322,43.476 86.6306322,43.608 C87.5266322,43.741 88.3606322,43.122 88.4926322,42.225 Z" id="Fill-94"></path>
            <path d="M51.4686322,33.572 L53.0076322,33.445 L54.5456322,33.318 L56.0846322,33.191 L57.6296322,33.064 L59.1866322,32.923 L60.7386322,32.783 L62.2896322,32.643 L63.8466322,32.502 L65.4156322,32.349 L66.9786322,32.197 L68.5416322,32.045 L70.1096322,31.892 L71.6876322,31.728 L73.2596322,31.565 L74.8326322,31.402 L76.4106322,31.238 L77.9986322,31.064 L79.5816322,30.89 L81.1646322,30.716 L82.7516322,30.542 L84.3486322,30.357 L85.9406322,30.172 L87.5316322,29.987 L89.1276322,29.802 L90.7306322,29.608 L92.3306322,29.415 L93.9296322,29.222 L95.5326322,29.027 L97.1436322,28.824 L98.7496322,28.621 L100.356632,28.418 L101.966632,28.215 L103.582632,28.004 L105.195632,27.793 L106.808632,27.58 L108.424632,27.366 L110.044632,27.147 L111.662632,26.928 L113.280632,26.709 L114.900632,26.489 L116.525632,26.257 L118.147632,26.025 L119.768632,25.793 L121.392632,25.56 L123.020632,25.323 L124.646632,25.085 L126.272632,24.851 L127.901632,24.621 L129.534632,24.385 L131.164632,24.149 L132.795632,23.913 L134.425632,23.678 L136.055632,23.442 L137.686632,23.206 L139.316632,22.971 L140.949632,22.735 L142.585632,22.493 L144.218632,22.252 L145.851632,22.011 L147.484632,21.768 L149.117632,21.524 L150.750632,21.28 L152.382632,21.036 L154.016632,20.792 L155.649632,20.546 L157.281632,20.299 L158.913632,20.05 L160.544632,19.802 L162.175632,19.554 L163.807632,19.305 L165.438632,19.057 L167.070632,18.808 L168.697632,18.56 L170.325632,18.311 L171.952632,18.063 L173.579632,17.814 L175.207632,17.566 L176.834632,17.317 L178.462632,17.069 L180.088632,16.823 L181.707632,16.581 L183.327632,16.338 L184.947632,16.095 L186.568632,15.853 L188.188632,15.61 L189.808632,15.369 L191.428632,15.128 L193.046632,14.887 L194.653632,14.653 L196.262632,14.419 L197.871632,14.185 L199.479632,13.951 L201.089632,13.719 L202.698632,13.487 L204.307632,13.255 L205.914632,13.023 L207.511632,12.797 L209.110632,12.571 L210.710632,12.345 L212.307632,12.12 L213.896632,11.9 L215.487632,11.68 L217.079632,11.46 L218.667632,11.24 L220.247632,11.026 L221.829632,10.811 L223.411632,10.597 L224.990632,10.382 L226.561632,10.174 L228.133632,9.966 L229.706632,9.757 L231.276632,9.549 L232.834632,9.347 L234.396632,9.145 L235.958632,8.942 L237.516632,8.741 L239.063632,8.548 L240.613632,8.354 L242.162632,8.16 L243.709632,7.966 L245.244632,7.78 L246.782632,7.594 L248.320632,7.408 L249.855632,7.223 L251.376632,7.048 L252.901632,6.872 L254.425632,6.696 L255.946632,6.52 L257.452632,6.355 L258.963632,6.191 L260.473632,6.026 L261.979632,5.861 L263.472632,5.708 L264.969632,5.555 L266.465632,5.402 L267.957632,5.249 L269.433632,5.109 L270.914632,4.969 L272.395632,4.828 L273.870632,4.689 L275.329632,4.565 L276.793632,4.44 L278.257632,4.315 L279.716632,4.191 L281.158632,4.079 L282.606632,3.968 L284.053632,3.856 L285.495632,3.746 L286.918632,3.65 L288.348632,3.554 L289.777632,3.459 L291.199632,3.363 L292.602632,3.284 L294.012632,3.204 L295.421632,3.125 L296.826632,3.046 L298.217632,2.978 L299.609632,2.91 L300.991632,2.851 L302.373632,2.792 L303.743632,2.742 L305.114632,2.691 L306.476632,2.648 L307.836632,2.606 L309.186632,2.572 L310.535632,2.539 L311.874632,2.515 L313.212632,2.49 L314.540632,2.475 L315.867632,2.459 L317.183632,2.453 L318.498632,2.446 L319.802632,2.45 L321.106632,2.453 L322.398632,2.466 L323.690632,2.478 L324.970632,2.501 L326.250632,2.524 L327.517632,2.556 L328.784632,2.588 L330.040632,2.63 L331.295632,2.671 L332.536632,2.724 L333.778632,2.776 L335.007632,2.84 L336.235632,2.903 L337.452632,2.977 L338.668632,3.05 L339.870632,3.134 L341.072632,3.219 L342.260632,3.315 L343.449632,3.411 L344.624632,3.518 L345.799632,3.625 L346.960632,3.744 L348.120632,3.862 L349.266632,3.993 L350.412632,4.124 L351.545632,4.267 L352.677632,4.409 L353.794632,4.563 L354.911632,4.718 L356.012632,4.885 L357.114632,5.053 L358.202632,5.233 L359.289632,5.412 L360.360632,5.605 L361.431632,5.798 L362.486632,6.005 L363.542632,6.211 L364.583632,6.43 L365.623632,6.648 L366.646632,6.88 L367.670632,7.112 L368.676632,7.359 L369.684632,7.605 L370.676632,7.865 L371.666632,8.124 L372.640632,8.397 L373.614632,8.671 L374.570632,8.958 L375.524632,9.245 L377.409632,9.848 L379.253632,10.479 L381.062632,11.141 L382.837632,11.83 L384.575632,12.548 L386.276632,13.298 L387.942632,14.076 L389.569632,14.884 L391.158632,15.725 L392.712632,16.595 L394.225632,17.496 L395.699632,18.431 L397.137632,19.396 L398.534632,20.392 L399.891632,21.423 L401.210632,22.485 L402.487632,23.581 L403.723632,24.713 L404.920632,25.877 L406.075632,27.074 L407.188632,28.31 L408.262632,29.578 L409.292632,30.883 L410.279632,32.226 L411.225632,33.605 L412.127632,35.02 L412.985632,36.476 L413.801632,37.968 L414.572632,39.499 L415.297632,41.072 L415.980632,42.683 L416.615632,44.334 L417.204632,46.029 L417.750632,47.763 L418.246632,49.538 L418.695632,51.36 L419.098632,53.221 L419.453632,55.131 L419.604632,56.101 L419.756632,57.078 L419.884632,58.075 L420.013632,59.071 L420.116632,60.089 L420.219632,61.109 L420.296632,62.151 L420.374632,63.194 L420.427632,64.259 L420.479632,65.323 L420.505632,66.41 L420.531632,67.497 L420.530632,68.608 L420.530632,69.72 L420.505632,70.854 L420.480632,71.988 L420.427632,73.145 L420.375632,74.302 L420.295632,75.483 L420.215632,76.666 L420.109632,77.871 L420.004632,79.075 L419.871632,80.303 L419.738632,81.532 L419.577632,82.786 L419.415632,84.04 L419.228632,85.317 L419.041632,86.594 L418.825632,87.896 L418.609632,89.197 L418.364632,90.524 L418.119632,91.852 L417.848632,93.204 L417.577632,94.554 L417.279632,95.931 L416.984632,97.309 L416.659632,98.713 L416.334632,100.117 L415.982632,101.546 L415.631632,102.974 L415.249632,104.428 L414.868632,105.883 L414.458632,107.364 L414.048632,108.847 L413.610632,110.353 L413.172632,111.86 L412.704632,113.393 L412.236632,114.926 L411.734632,116.486 L411.230632,118.046 L410.699632,119.631 L410.167632,121.215 L409.604632,122.827 L409.041632,124.439 L408.447632,126.078 L407.851632,127.718 L407.226632,129.382 L406.601632,131.047 L405.944632,132.739 L405.288632,134.432 L404.598632,136.152 L403.909632,137.873 L403.189632,139.62 L402.470632,141.366 L401.718632,143.141 L400.967632,144.916 L400.181632,146.72 L399.396632,148.525 L398.989632,149.437 L398.581632,150.354 L398.172632,151.271 L397.765632,152.184 L397.342632,153.112 L396.917632,154.043 L396.492632,154.974 L396.068632,155.902 L395.627632,156.844 L395.185632,157.79 L394.743632,158.735 L394.302632,159.678 L393.845632,160.634 L393.388632,161.593 L392.930632,162.552 L392.474632,163.508 L392.001632,164.479 L391.526632,165.453 L391.052632,166.426 L390.579632,167.397 L390.089632,168.383 L389.597632,169.372 L389.105632,170.36 L388.615632,171.346 L388.109632,172.346 L387.602632,173.348 L387.095632,174.351 L386.589632,175.35 L386.066632,176.365 L385.541632,177.383 L385.017632,178.4 L384.494632,179.415 L383.953632,180.445 L383.411632,181.477 L382.869632,182.51 L382.327632,183.543 C382.113632,183.951 382.270632,184.455 382.678632,184.669 C383.086632,184.883 383.590632,184.726 383.804632,184.318 L384.347632,183.286 L384.889632,182.253 L385.431632,181.22 L385.974632,180.185 L386.501632,179.165 L387.025632,178.148 L387.550632,177.131 L388.076632,176.11 L388.585632,175.105 L389.093632,174.103 L389.600632,173.101 L390.109632,172.096 L390.602632,171.105 L391.094632,170.116 L391.586632,169.128 L392.079632,168.136 L392.555632,167.159 L393.030632,166.186 L393.505632,165.212 L393.981632,164.235 L394.441632,163.273 L394.898632,162.314 L395.356632,161.355 L395.815632,160.393 L396.259632,159.445 L396.702632,158.499 L397.144632,157.554 L397.588632,156.605 L398.015632,155.671 L398.442632,154.74 L398.868632,153.809 L399.296632,152.875 L399.707632,151.956 L400.116632,151.039 L400.526632,150.123 L400.937632,149.203 L401.728632,147.394 L402.518632,145.584 L403.277632,143.803 L404.035632,142.022 L404.761632,140.269 L405.487632,138.517 L406.183632,136.79 L406.880632,135.062 L407.545632,133.363 L408.210632,131.664 L408.843632,129.992 L409.476632,128.321 L410.080632,126.675 L410.685632,125.028 L411.259632,123.409 L411.834632,121.79 L412.376632,120.198 L412.919632,118.606 L413.433632,117.039 L413.949632,115.472 L414.437632,113.932 L414.925632,112.392 L415.382632,110.878 L415.839632,109.365 L416.268632,107.876 L416.698632,106.385 L417.096632,104.921 L417.493632,103.456 L417.860632,102.017 L418.227632,100.578 L418.567632,99.162 L418.907632,97.746 L419.217632,96.355 L419.525632,94.964 L419.801632,93.597 L420.077632,92.231 L420.326632,90.887 L420.575632,89.543 L420.795632,88.223 L421.015632,86.904 L421.206632,85.609 L421.397632,84.314 L421.563632,83.042 L421.728632,81.77 L421.866632,80.521 L422.003632,79.272 L422.112632,78.047 L422.221632,76.823 L422.304632,75.621 L422.387632,74.418 L422.444632,73.238 L422.500632,72.058 L422.528632,70.902 L422.556632,69.746 L422.563632,68.612 L422.563632,67.476 L422.540632,66.364 L422.516632,65.251 L422.465632,64.161 L422.414632,63.072 L422.340632,62.004 L422.266632,60.934 L422.165632,59.887 L422.063632,58.84 L421.936632,57.814 L421.808632,56.79 L421.657632,55.787 L421.504632,54.776 L421.149632,52.814 L420.741632,50.891 L420.287632,49.007 L419.780632,47.165 L419.224632,45.366 L418.621632,43.605 L417.967632,41.884 L417.265632,40.207 L416.517632,38.567 L415.720632,36.966 L414.876632,35.407 L413.988632,33.885 L413.051632,32.402 L412.068632,30.96 L411.043632,29.554 L409.971632,28.186 L408.855632,26.859 L407.698632,25.567 L406.496632,24.311 L405.250632,23.097 L403.966632,21.916 L402.638632,20.772 L401.268632,19.665 L399.862632,18.592 L398.413632,17.555 L396.924632,16.554 L395.400632,15.586 L393.835632,14.652 L392.232632,13.754 L390.594632,12.886 L388.918632,12.052 L387.205632,11.251 L385.458632,10.48 L383.675632,9.741 L381.856632,9.035 L380.005632,8.357 L378.118632,7.709 L376.201632,7.093 L375.222632,6.797 L374.246632,6.502 L373.253632,6.221 L372.260632,5.941 L371.250632,5.675 L370.241632,5.41 L369.217632,5.157 L368.193632,4.905 L367.152632,4.665 L366.111632,4.426 L365.054632,4.201 L363.998632,3.976 L362.928632,3.764 L361.857632,3.551 L360.770632,3.352 L359.683632,3.153 L358.580632,2.967 L357.479632,2.781 L356.364632,2.607 L355.248632,2.432 L354.117632,2.27 L352.986632,2.108 L351.840632,1.959 L350.695632,1.81 L349.537632,1.672 L348.378632,1.535 L347.204632,1.409 L346.031632,1.284 L344.843632,1.17 L343.656632,1.057 L342.457632,0.954 L341.257632,0.852 L340.042632,0.761 L338.829632,0.67 L337.601632,0.59 L336.374632,0.511 L335.135632,0.443 L333.895632,0.374 L332.643632,0.317 L331.390632,0.259 L330.124632,0.212 L328.859632,0.166 L327.582632,0.129 L326.305632,0.092 L325.016632,0.067 L323.726632,0.041 L322.424632,0.026 L321.123632,0.011 L319.810632,0.006 L318.498632,-4.54747351e-13 L317.173632,0.004 L315.849632,0.008 L314.512632,0.022 L313.177632,0.037 L311.831632,0.059 L310.484632,0.082 L309.126632,0.115 L307.769632,0.147 L306.400632,0.188 L305.032632,0.23 L303.654632,0.279 L302.275632,0.329 L300.887632,0.387 L299.498632,0.445 L298.098632,0.512 L296.698632,0.579 L295.284632,0.657 L293.874632,0.735 L292.465632,0.812 L291.049632,0.889 L289.613632,0.983 L288.184632,1.075 L286.755632,1.168 L285.319632,1.262 L283.866632,1.37 L282.418632,1.477 L280.970632,1.584 L279.517632,1.691 L278.047632,1.812 L276.583632,1.932 L275.119632,2.051 L273.650632,2.172 L272.163632,2.305 L270.682632,2.436 L269.200632,2.567 L267.714632,2.699 L266.212632,2.844 L264.714632,2.988 L263.216632,3.131 L261.715632,3.276 L260.199632,3.43 L258.688632,3.584 L257.176632,3.738 L255.660632,3.892 L254.130632,4.057 L252.604632,4.222 L251.078632,4.388 L249.549632,4.554 L248.005632,4.73 L246.466632,4.906 L244.927632,5.082 L243.384632,5.258 L241.830632,5.443 L240.279632,5.628 L238.728632,5.814 L237.174632,6 L235.609632,6.195 L234.046632,6.39 L232.483632,6.585 L230.918632,6.78 L229.342632,6.984 L227.769632,7.189 L226.196632,7.393 L224.620632,7.598 L223.035632,7.81 L221.453632,8.021 L219.871632,8.232 L218.286632,8.445 L216.693632,8.664 L215.102632,8.883 L213.510632,9.102 L211.917632,9.321 L210.316632,9.545 L208.716632,9.77 L207.116632,9.994 L205.515632,10.219 L203.903632,10.45 L202.294632,10.681 L200.685632,10.912 L199.075632,11.142 L197.466632,11.372 L195.856632,11.601 L194.247632,11.83 L192.635632,12.059 L191.012632,12.295 L189.390632,12.53 L187.769632,12.766 L186.148632,13 L184.527632,13.233 L182.905632,13.467 L181.284632,13.701 L179.662632,13.935 L178.032632,14.173 L176.402632,14.408 L174.773632,14.643 L173.144632,14.878 L171.514632,15.113 L169.885632,15.348 L168.255632,15.583 L166.626632,15.818 L164.993632,16.053 L163.360632,16.289 L161.726632,16.525 L160.093632,16.76 L158.460632,16.996 L156.826632,17.232 L155.193632,17.469 L153.561632,17.707 L151.929632,17.941 L150.295632,18.177 L148.660632,18.412 L147.026632,18.647 L145.393632,18.883 L143.759632,19.121 L142.125632,19.358 L140.494632,19.595 L138.866632,19.826 L137.235632,20.058 L135.604632,20.29 L133.973632,20.521 L132.342632,20.752 L130.711632,20.983 L129.080632,21.214 L127.451632,21.445 L125.827632,21.67 L124.199632,21.891 L122.571632,22.11 L120.945632,22.327 L119.323632,22.54 L117.698632,22.753 L116.074632,22.965 L114.452632,23.178 L112.836632,23.391 L111.218632,23.605 L109.599632,23.818 L107.983632,24.032 L106.373632,24.239 L104.759632,24.446 L103.146632,24.655 L101.536632,24.864 L99.9336322,25.066 L98.3266322,25.268 L96.7206322,25.471 L95.1176322,25.673 L93.5226322,25.866 L91.9226322,26.061 L90.3236322,26.256 L88.7286322,26.451 L87.1406322,26.637 L85.5496322,26.824 L83.9576322,27.011 L82.3706322,27.197 L80.7926322,27.375 L79.2106322,27.553 L77.6286322,27.73 L76.0506322,27.908 L74.4836322,28.074 L72.9106322,28.241 L71.3386322,28.408 L69.7716322,28.575 L68.2136322,28.731 L66.6516322,28.888 L65.0886322,29.045 L63.5316322,29.201 L61.9866322,29.345 L60.4366322,29.49 L58.8856322,29.634 L57.3406322,29.778 L55.8086322,29.909 L54.2706322,30.041 L52.7326322,30.172 L51.1946322,30.303 C50.2916322,30.379 49.6216322,31.173 49.6966322,32.075 C49.7726322,32.978 50.5666322,33.648 51.4686322,33.572 Z" id="Fill-95"></path>
            <path d="M1.89063224,193.345 L3.33263224,193.125 L4.77363224,192.905 L6.21463224,192.685 L7.64963224,192.466 L9.08963224,192.257 L10.5366322,192.047 L11.9826322,191.837 L13.4236322,191.628 L14.8686322,191.43 L16.3206322,191.23 L17.7716322,191.03 L19.2176322,190.832 L20.6676322,190.641 L22.1236322,190.451 L23.5796322,190.26 L25.0296322,190.07 L26.4836322,189.889 L27.9446322,189.708 L29.4046322,189.526 L30.8586322,189.344 L32.3176322,189.173 L33.7826322,189 L35.2466322,188.828 L36.7066322,188.655 L38.1696322,188.49 L39.6376322,188.325 L41.1056322,188.16 L42.5686322,187.995 L44.0356322,187.839 L45.5066322,187.68 L46.9786322,187.522 L48.4456322,187.363 L49.9156322,187.214 L51.3916322,187.065 L52.8666322,186.912 L54.3366322,186.755 L55.8106322,186.606 L57.2886322,186.457 L58.7666322,186.307 L60.2396322,186.158 L61.7166322,186.024 L63.1986322,185.892 L64.6816322,185.76 L66.1586322,185.628 L67.6396322,185.505 L69.1246322,185.382 L70.6096322,185.259 L72.0906322,185.136 L73.5746322,185.021 L75.0626322,184.905 L76.5506322,184.79 L78.0336322,184.674 L79.5196322,184.564 L81.0106322,184.455 L82.5006322,184.345 L83.9866322,184.235 L85.4756322,184.134 L86.9686322,184.03 L88.4606322,183.926 L89.9496322,183.822 L91.4406322,183.725 L92.9356322,183.628 L94.4306322,183.532 L95.9216322,183.434 L97.4146322,183.345 L98.9106322,183.255 L100.407632,183.166 L101.900632,183.076 L103.395632,182.995 L104.894632,182.916 L106.392632,182.837 L107.888632,182.757 L109.385632,182.685 L110.885632,182.612 L112.385632,182.541 L113.882632,182.471 L115.380632,182.408 L116.882632,182.345 L118.383632,182.281 L119.881632,182.218 L121.381632,182.164 L122.884632,182.11 L124.386632,182.056 L125.886632,182.002 L127.387632,181.955 L128.891632,181.907 L130.394632,181.859 L131.895632,181.812 L133.396632,181.771 L134.900632,181.73 L136.405632,181.689 L137.906632,181.647 L139.408632,181.611 L140.912632,181.576 L142.417632,181.54 L143.919632,181.504 L145.422632,181.473 L146.927632,181.441 L148.432632,181.409 L149.934632,181.376 L151.436632,181.35 L152.941632,181.324 L154.446632,181.297 L155.948632,181.269 L157.451632,181.248 L158.955632,181.226 L160.460632,181.204 L161.963632,181.182 L163.465632,181.165 L164.969632,181.148 L166.474632,181.131 L167.976632,181.114 L169.477632,181.102 L170.981632,181.091 L172.485632,181.081 L173.987632,181.07 L175.488632,181.066 L176.991632,181.061 L178.494632,181.056 L179.994632,181.053 L181.493632,181.057 L182.994632,181.062 L184.496632,181.067 L185.997632,181.072 L187.499632,181.077 L189.001632,181.083 L190.502632,181.09 L192.000632,181.096 L193.494632,181.112 L194.993632,181.128 L196.492632,181.145 L197.990632,181.162 L199.489632,181.18 L200.988632,181.197 L202.486632,181.214 L203.981632,181.232 L205.472632,181.258 L206.967632,181.284 L208.462632,181.311 L209.957632,181.337 L211.452632,181.364 L212.946632,181.39 L214.441632,181.416 L215.933632,181.441 L217.420632,181.475 L218.911632,181.509 L220.401632,181.542 L221.892632,181.575 L223.383632,181.607 L224.873632,181.639 L226.364632,181.671 L227.851632,181.703 L229.333632,181.742 L230.818632,181.782 L232.303632,181.82 L233.788632,181.859 L235.273632,181.898 L236.758632,181.937 L238.244632,181.976 L239.726632,182.015 L241.202632,182.061 L242.680632,182.107 L244.159632,182.153 L245.638632,182.199 L247.116632,182.246 L248.595632,182.294 L250.073632,182.341 L251.550632,182.389 L253.019632,182.442 L254.491632,182.496 L255.963632,182.55 L257.435632,182.605 L258.907632,182.66 L260.379632,182.715 L261.851632,182.77 L263.320632,182.825 L264.782632,182.886 L266.245632,182.948 L267.709632,183.009 L269.173632,183.071 L270.637632,183.133 L272.100632,183.194 L273.564632,183.256 L275.026632,183.317 L276.478632,183.384 L277.933632,183.451 L279.388632,183.517 L280.842632,183.584 L282.297632,183.649 L283.752632,183.715 L285.207632,183.78 L286.662632,183.846 L286.820632,183.853 L287.002632,183.858 L287.205632,183.863 L287.428632,183.868 L287.673632,183.871 L287.942632,183.874 L288.533632,183.878 L289.212632,183.879 L289.975632,183.876 L290.812632,183.871 L291.730632,183.864 L292.725632,183.853 L293.788632,183.84 L294.925632,183.825 L296.132632,183.806 L297.402632,183.785 L298.738632,183.761 L300.138632,183.734 L301.594632,183.704 L303.110632,183.671 L304.683632,183.636 L306.305632,183.599 L307.980632,183.558 L309.705632,183.515 L311.473632,183.469 L313.287632,183.42 L315.144632,183.369 L317.039632,183.315 L318.971632,183.259 L320.940632,183.2 L322.940632,183.139 L323.956632,183.108 L324.972632,183.077 L326.002632,183.045 L327.033632,183.013 L328.075632,182.98 L329.118632,182.947 L330.173632,182.912 L331.228632,182.878 L332.294632,182.842 L333.360632,182.807 L334.436632,182.771 L335.511632,182.735 L336.595632,182.697 L337.679632,182.659 L338.771632,182.621 L339.863632,182.582 L340.963632,182.541 L342.063632,182.501 L343.163632,182.461 L344.264632,182.421 L345.373632,182.378 L346.481632,182.336 L347.590632,182.293 L348.699632,182.25 L349.812632,182.199 L350.924632,182.149 L352.035632,182.099 L353.148632,182.048 L354.260632,181.995 L355.371632,181.943 L356.482632,181.89 L357.594632,181.837 L358.700632,181.78 L359.806632,181.723 L360.911632,181.666 L362.018632,181.61 L363.114632,181.55 L364.209632,181.491 L365.305632,181.432 L366.401632,181.376 L367.484632,181.318 L368.566632,181.261 L369.648632,181.203 L370.731632,181.146 L371.795632,181.086 L372.858632,181.026 L373.920632,180.966 L374.984632,180.907 L376.024632,180.846 L377.062632,180.784 L378.101632,180.723 L379.140632,180.662 L380.161632,180.599 L381.181632,180.536 L382.186632,180.472 L383.191632,180.408 L385.166632,180.279 L387.110632,180.147 L389.016632,180.012 L390.882632,179.876 L392.709632,179.738 L394.491632,179.597 L396.226632,179.454 L397.917632,179.308 L399.556632,179.161 L401.141632,179.011 L402.675632,178.86 L404.150632,178.705 L405.565632,178.548 L406.923632,178.389 L408.216632,178.227 L409.441632,178.063 L410.603632,177.896 L411.695632,177.726 L412.712632,177.554 L413.661632,177.379 L414.534632,177.2 L415.328632,177.017 L416.051632,176.831 L416.695632,176.638 L417.260632,176.437 L417.759632,176.224 L418.193632,175.984 L418.530632,175.726 L418.730632,175.517 L418.878632,175.295 L418.986632,175.034 L419.037632,174.738 L419.011632,174.425 L418.918632,174.15 L418.783632,173.916 L418.616632,173.717 L418.435632,173.552 L418.239632,173.405 L418.024632,173.27 L417.791632,173.144 L417.539632,173.024 L417.263632,172.907 L416.964632,172.792 L416.642632,172.679 L416.293632,172.566 L415.917632,172.455 L415.516632,172.343 L415.087632,172.232 L414.629632,172.12 L414.144632,172.009 L413.629632,171.897 L413.087632,171.786 C412.636632,171.693 412.195632,171.984 412.102632,172.435 C412.009632,172.886 412.300632,173.327 412.751632,173.42 L413.284632,173.53 L413.780632,173.637 L414.245632,173.744 L414.680632,173.85 L415.084632,173.955 L415.456632,174.059 L415.799632,174.161 L416.110632,174.261 L416.389632,174.359 L416.638632,174.455 L416.853632,174.546 L417.036632,174.634 L417.187632,174.715 L417.299632,174.785 L417.376632,174.843 L417.418632,174.881 L417.422632,174.884 L417.403632,174.851 L417.378632,174.775 L417.369632,174.66 L417.385632,174.561 L417.412632,174.497 L417.429632,174.47 L417.447632,174.455 L417.288632,174.58 L417.034632,174.719 L416.656632,174.88 L416.180632,175.049 L415.604632,175.221 L414.933632,175.394 L414.181632,175.566 L413.343632,175.738 L412.421632,175.908 L411.427632,176.076 L410.356632,176.242 L409.211632,176.406 L408.001632,176.568 L406.722632,176.728 L405.376632,176.886 L403.972632,177.041 L402.505632,177.194 L400.980632,177.344 L399.403632,177.492 L397.771632,177.637 L396.087632,177.779 L394.357632,177.919 L392.580632,178.057 L390.758632,178.192 L388.897632,178.324 L386.995632,178.453 L385.055632,178.58 L383.082632,178.704 L382.080632,178.765 L381.077632,178.825 L380.058632,178.884 L379.040632,178.943 L378.002632,179.001 L376.964632,179.058 L375.925632,179.115 L374.888632,179.173 L373.827632,179.227 L372.764632,179.281 L371.701632,179.335 L370.640632,179.388 L369.559632,179.439 L368.477632,179.49 L367.395632,179.541 L366.314632,179.592 L365.220632,179.64 L364.124632,179.685 L363.028632,179.729 L361.933632,179.774 L360.829632,179.816 L359.722632,179.858 L358.616632,179.9 L357.511632,179.943 L356.401632,179.983 L355.290632,180.024 L354.178632,180.065 L353.068632,180.106 L351.957632,180.145 L350.845632,180.184 L349.733632,180.223 L348.621632,180.262 L347.514632,180.303 L346.406632,180.344 L345.297632,180.386 L344.190632,180.427 L343.091632,180.466 L341.991632,180.505 L340.891632,180.544 L339.792632,180.583 L338.702632,180.619 L337.611632,180.656 L336.527632,180.692 L335.444632,180.727 L334.370632,180.761 L333.295632,180.796 L332.230632,180.829 L331.164632,180.862 L330.110632,180.893 L329.056632,180.924 L328.014632,180.954 L326.972632,180.984 L325.942632,181.013 L324.913632,181.041 L323.898632,181.069 L322.883632,181.096 L320.884632,181.146 L318.916632,181.194 L316.985632,181.239 L315.092632,181.282 L313.236632,181.322 L311.424632,181.36 L309.657632,181.396 L307.933632,181.43 L306.260632,181.461 L304.639632,181.489 L303.069632,181.516 L301.555632,181.54 L300.101632,181.562 L298.703632,181.582 L297.369632,181.599 L296.102632,181.615 L294.897632,181.628 L293.764632,181.639 L292.704632,181.647 L291.713632,181.653 L290.801632,181.657 L289.970632,181.659 L289.214632,181.658 L288.544632,181.655 L287.961632,181.65 L287.703632,181.647 L287.468632,181.643 L287.256632,181.638 L287.066632,181.633 L286.903632,181.628 L286.764632,181.622 L285.309632,181.553 L283.855632,181.484 L282.400632,181.415 L280.946632,181.346 L279.491632,181.278 L278.037632,181.21 L276.582632,181.143 L275.125632,181.075 L273.659632,181.012 L272.196632,180.949 L270.732632,180.887 L269.268632,180.824 L267.805632,180.762 L266.341632,180.699 L264.877632,180.636 L263.411632,180.573 L261.937632,180.516 L260.465632,180.458 L258.993632,180.4 L257.521632,180.343 L256.050632,180.285 L254.578632,180.227 L253.106632,180.168 L251.632632,180.109 L250.151632,180.056 L248.673632,180.003 L247.194632,179.95 L245.716632,179.896 L244.238632,179.841 L242.759632,179.787 L241.281632,179.732 L239.800632,179.677 L238.312632,179.63 L236.827632,179.583 L235.342632,179.535 L233.857632,179.488 L232.372632,179.44 L230.887632,179.393 L229.403632,179.346 L227.914632,179.299 L226.421632,179.261 L224.930632,179.222 L223.440632,179.183 L221.949632,179.145 L220.459632,179.107 L218.968632,179.071 L217.478632,179.034 L215.984632,178.997 L214.486632,178.968 L212.991632,178.939 L211.497632,178.91 L210.002632,178.882 L208.507632,178.853 L207.012632,178.825 L205.517632,178.796 L204.019632,178.768 L202.516632,178.749 L201.018632,178.73 L199.519632,178.711 L198.020632,178.692 L196.522632,178.673 L195.023632,178.653 L193.524632,178.633 L192.022632,178.613 L190.516632,178.603 L189.014632,178.593 L187.513632,178.583 L186.011632,178.572 L184.509632,178.56 L183.008632,178.549 L181.506632,178.538 L180.002632,178.526 L178.495632,178.521 L176.992632,178.514 L175.489632,178.508 L173.984632,178.501 L172.478632,178.5 L170.973632,178.498 L169.469632,178.496 L167.963632,178.494 L166.456632,178.498 L164.951632,178.501 L163.447632,178.504 L161.940632,178.508 L160.432632,178.517 L158.927632,178.527 L157.422632,178.536 L155.915632,178.545 L154.407632,178.561 L152.902632,178.577 L151.396632,178.594 L149.888632,178.611 L148.380632,178.634 L146.875632,178.658 L145.370632,178.681 L143.862632,178.706 L142.355632,178.738 L140.850632,178.769 L139.345632,178.8 L137.837632,178.832 L136.329632,178.87 L134.825632,178.91 L133.321632,178.949 L131.813632,178.988 L130.306632,179.035 L128.803632,179.081 L127.299632,179.127 L125.792632,179.173 L124.286632,179.225 L122.784632,179.278 L121.281632,179.33 L119.774632,179.382 L118.269632,179.44 L116.767632,179.497 L115.265632,179.554 L113.760632,179.612 L112.256632,179.676 L110.756632,179.74 L109.255632,179.802 L107.751632,179.865 L106.249632,179.934 L104.749632,180.003 L103.250632,180.072 L101.747632,180.14 L100.246632,180.214 L98.7486322,180.288 L97.2506322,180.362 L95.7496322,180.436 L94.2496322,180.518 L92.7546322,180.6 L91.2586322,180.683 L89.7596322,180.765 L88.2616322,180.855 L86.7686322,180.944 L85.2746322,181.034 L83.7766322,181.126 L82.2816322,181.227 L80.7906322,181.326 L79.2996322,181.426 L77.8036322,181.527 L76.3106322,181.637 L74.8226322,181.748 L73.3346322,181.859 L71.8416322,181.97 L70.3516322,182.089 L68.8666322,182.208 L67.3806322,182.326 L65.8896322,182.445 L64.4026322,182.572 L62.9196322,182.699 L61.4376322,182.826 L59.9496322,182.951 L58.4646322,183.078 L56.9846322,183.206 L55.5046322,183.333 L54.0196322,183.461 L52.5376322,183.596 L51.0616322,183.736 L49.5846322,183.88 L48.1036322,184.024 L46.6256322,184.177 L45.1526322,184.329 L43.6806322,184.481 L42.2026322,184.637 L40.7286322,184.802 L39.2606322,184.967 L37.7916322,185.131 L36.3186322,185.297 L34.8486322,185.471 L33.3846322,185.646 L31.9206322,185.82 L30.4506322,185.996 L28.9846322,186.181 L27.5246322,186.365 L26.0646322,186.55 L24.5996322,186.736 L23.1386322,186.932 L21.6826322,187.128 L20.2276322,187.323 L18.7676322,187.519 L17.3106322,187.724 L15.8606322,187.929 L14.4096322,188.134 L12.9526322,188.34 L11.5006322,188.555 L10.0556322,188.77 L8.60963224,188.985 L7.15763224,189.201 L5.71063224,189.428 L4.27063224,189.653 L2.83063224,189.878 L1.38963224,190.103 C0.494632244,190.242 -0.119367756,191.08 0.0196322442,191.975 C0.157632244,192.87 0.995632244,193.484 1.89063224,193.345 Z" id="Fill-96"></path>
        </g>
    </g>
</svg>
