<?xml version="1.0" encoding="UTF-8"?>
<svg width="301px" height="194px" viewBox="0 0 301 194" version="1.1" xmlns="http://www.w3.org/2000/svg" xmlns:xlink="http://www.w3.org/1999/xlink">
    <title>78</title>
    <g id="Page-1" stroke="none" stroke-width="1" fill="none" fill-rule="evenodd">
        <g id="78" transform="translate(0.000870, 0.969286)" fill="currentColor">
            <path d="M30.3028804,161.890514 L29.3008804,162.048314 L28.3518804,162.200414 L27.4578804,162.346714 L26.6138804,162.487714 L25.8238804,162.623014 L25.0868804,162.752614 L24.3978804,162.877214 L23.7608804,162.996414 L23.1748804,163.110114 L22.6338804,163.219114 L22.1418804,163.323414 L21.6978804,163.423014 L21.2958804,163.518814 L20.9348804,163.612114 L20.6128804,163.703414 L20.3198804,163.796914 L20.0408804,163.901614 L19.7558804,164.035914 L19.5568804,164.157514 L19.1678804,164.501614 L19.1678804,164.502514 L19.1658804,164.504114 L19.1638804,164.506514 L19.1618804,164.509814 L19.1578804,164.513914 L19.1538804,164.518814 L19.1488804,164.524614 L19.1118804,164.571614 L19.0398804,164.670214 L18.9688804,164.785914 L18.9008804,164.921114 L18.8388804,165.077214 L18.7878804,165.254314 L18.7558804,165.449714 L18.7458804,165.658014 L18.7508804,165.767414 L18.7508804,165.772514 L18.7508804,165.777014 L18.7518804,165.780714 L18.7518804,165.783614 L18.7518804,165.785814 L18.7518804,165.787314 L22.0768804,165.535414 L22.0738804,165.488214 L18.7488804,165.741514 L18.7488804,165.743114 L18.7488804,165.745314 L18.7488804,165.748214 L18.7488804,165.751914 L18.7498804,165.756314 L18.7498804,165.761514 L18.7598804,165.860614 L18.7958804,166.049514 L18.8508804,166.228414 L18.9208804,166.392414 L19.0018804,166.538514 L19.0878804,166.665914 L19.1768804,166.775214 L19.2648804,166.868114 L19.3098804,166.911714 L19.3148804,166.916314 L19.3198804,166.920314 L19.3228804,166.923614 L19.3258804,166.926214 L19.3278804,166.928314 L19.3298804,166.929614 L19.3308804,166.930214 L19.8388804,167.251614 L20.0748804,167.339114 L20.3868804,167.413114 L20.6698804,167.456214 L20.9638804,167.485414 L21.2788804,167.505314 L21.6208804,167.519014 L21.9998804,167.526814 L22.4148804,167.529114 L22.8638804,167.526514 L23.3518804,167.519114 L23.8798804,167.506514 L24.4418804,167.489514 L25.0438804,167.467714 L25.6838804,167.441114 L26.3588804,167.410114 L27.0728804,167.374314 L27.8238804,167.333714 L28.6088804,167.288114 L29.4308804,167.238114 L30.2898804,167.183314 L31.1818804,167.124314 L32.1098804,167.060814 L33.0718804,166.992814 L34.0668804,166.919814 L35.0958804,166.841814 L36.1588804,166.759314 L37.2518804,166.672814 L38.3788804,166.581914 L39.5378804,166.485914 L40.7258804,166.383514 L41.9458804,166.276514 L43.1968804,166.165314 L44.4758804,166.050214 L45.7848804,165.925714 L47.1228804,165.791914 L48.4868804,165.654014 L49.8808804,165.511814 L51.3028804,165.368014 L52.7508804,165.229414 L54.2268804,165.086814 L55.7298804,164.940214 L57.2568804,164.790214 L58.8098804,164.636814 L60.3878804,164.479514 L61.9888804,164.318814 L63.6148804,164.151614 L65.2648804,163.978914 L66.9358804,163.802614 L68.6308804,163.622514 L70.3468804,163.434814 L72.0938804,163.242314 L73.8408804,163.049814 L75.6298804,162.849414 L77.4188804,162.648814 L79.2488804,162.441114 L81.0788804,162.235914 L82.9448804,162.026814 L84.8108804,161.817714 L86.7138804,161.603314 L88.6168804,161.391314 L90.5538804,161.172814 L92.4928804,160.955714 L94.4608804,160.735614 L96.4288804,160.515514 L97.4298804,160.402414 L98.4288804,160.289514 L99.4288804,160.176414 L100.42888,160.063414 L101.44388,159.947314 L102.45788,159.831514 L103.47188,159.715514 L104.48688,159.598114 L105.51388,159.477814 L106.53988,159.357814 L107.56688,159.237714 L108.59388,159.117614 L109.63388,158.993814 L110.67288,158.868714 L111.71188,158.743414 L112.75188,158.618214 L113.80288,158.490114 L114.85388,158.362214 L115.90388,158.232914 L116.95488,158.103214 L118.01688,157.970914 L119.07688,157.838714 L120.13688,157.706614 L121.19788,157.574114 L122.26888,157.438514 L123.33988,157.303014 L124.40988,157.167414 L125.48088,157.031814 L126.55988,156.893614 L127.63988,156.756414 L128.71888,156.619414 L129.79888,156.482214 L130.88588,156.342914 L131.97188,156.203614 L133.05888,156.065514 L134.14588,155.928914 L135.24088,155.789714 L136.33488,155.650814 L137.42888,155.511914 L138.52288,155.373014 L139.62388,155.232914 L140.72388,155.092914 L141.82388,154.953014 L142.92488,154.812914 L144.03288,154.669814 L145.13988,154.527714 L146.24688,154.386014 L147.35288,154.244214 L148.45988,154.102514 L149.56688,153.960614 L150.67388,153.818614 L151.78188,153.676414 L152.89688,153.529914 L154.01088,153.383714 L155.12388,153.237614 L156.23688,153.091114 L157.35088,152.944214 L158.46388,152.797314 L159.57688,152.650414 L160.69288,152.503314 L161.80988,152.352114 L162.92588,152.199414 L164.04088,152.046814 L165.15688,151.894114 L166.27188,151.741414 L167.38788,151.588814 L168.50288,151.435214 L169.61988,151.281414 L170.73588,151.124314 L171.85088,150.967414 L172.96488,150.810614 L174.07888,150.653614 L175.19388,150.496714 L176.30788,150.339914 L177.42188,150.183014 L178.53888,150.025914 L179.64988,149.866214 L180.75988,149.707714 L181.86988,149.549214 L182.97888,149.390714 L184.08888,149.232214 L185.19888,149.074014 L186.30888,148.916914 L187.42088,148.759614 L188.52388,148.599214 L189.62488,148.439114 L190.72588,148.279114 L191.82688,148.119914 L192.92788,147.960714 L194.02888,147.801514 L195.12988,147.642414 L196.23288,147.483114 L197.32788,147.321714 L198.41988,147.160614 L199.51288,146.999414 L200.60688,146.838214 L201.69388,146.675614 L202.77988,146.512714 L203.86488,146.349214 L204.95188,146.185314 L206.03088,146.020314 L207.10788,145.855514 L208.18488,145.690714 L209.26388,145.524214 L210.33288,145.356614 L211.40188,145.189214 L212.47088,145.021914 L213.54088,144.854414 L214.60088,144.685214 L215.65888,144.515914 L216.71788,144.346714 L217.77788,144.177214 L218.82688,144.006714 L219.87388,143.836514 L220.92088,143.665914 L221.96988,143.495314 L223.00788,143.323814 L224.04388,143.152514 L225.08088,142.981214 L226.11888,142.809714 L227.14288,142.637414 L228.16688,142.465214 L229.19088,142.293114 L230.21588,142.120914 L231.22688,141.947814 L232.23688,141.776614 L233.24688,141.605914 L234.25788,141.434714 L235.25588,141.263014 L236.25188,141.091514 L237.24788,140.920114 L238.24688,140.749114 L240.20988,140.406314 L242.17288,140.063514 L244.10288,139.720414 L246.03288,139.377614 L247.92988,139.034014 L249.82688,138.682714 L251.68488,138.325714 L253.54288,137.968914 L255.36188,137.609714 L257.17988,137.248714 L258.96088,136.887514 L260.74188,136.529114 L262.48188,136.176814 L264.22188,135.824514 L265.91688,135.472114 L267.61188,135.122614 L269.26488,134.773114 L270.91788,134.423514 L272.52288,134.074914 L274.12788,133.726814 L275.68188,133.379114 L277.23488,133.031514 L278.75488,132.684714 L280.24688,132.338314 L281.71188,131.992214 L283.15188,131.646314 L284.56488,131.302014 L285.94888,130.957914 L287.30588,130.614314 L288.63388,130.270814 L289.93288,129.927914 L291.20288,129.585214 L292.44288,129.243014 L293.65188,128.901314 L294.83188,128.560014 L295.97988,128.219114 L297.09488,127.878914 L298.17988,127.539214 L299.23188,127.199914 L300.24588,126.862514 C300.68288,126.717114 300.91888,126.244814 300.77388,125.807714 C300.62888,125.370514 300.15588,125.133914 299.71888,125.279314 L298.71188,125.613914 L297.67388,125.948314 L296.60188,126.283714 L295.49888,126.619914 L294.36188,126.956814 L293.19288,127.294614 L291.99388,127.633014 L290.76388,127.972114 L289.50188,128.311814 L288.21188,128.652014 L286.89188,128.992714 L285.54188,129.334014 L284.16488,129.675714 L282.75888,130.017614 L281.32488,130.358814 L279.86488,130.700114 L278.37888,131.041814 L276.86488,131.383314 L275.31488,131.724514 L273.76488,132.065614 L272.16388,132.406614 L270.56288,132.747214 L268.91288,133.086814 L267.26288,133.426714 L265.56988,133.766114 L263.87688,134.102814 L262.13788,134.439014 L260.39988,134.775314 L258.61688,135.104614 L256.83288,135.431214 L255.01188,135.756914 L253.19188,136.084414 L251.33188,136.412914 L249.47288,136.741414 L247.57688,137.073614 L245.68188,137.413714 L243.75488,137.753014 L241.82788,138.091714 L239.86688,138.428514 L237.90588,138.765414 L236.91088,138.933014 L235.91388,139.100114 L234.91688,139.267214 L233.92088,139.434014 L232.91188,139.600114 L231.90088,139.766514 L230.88988,139.932714 L229.88088,140.096814 L228.85788,140.260314 L227.83188,140.423914 L226.80788,140.587414 L225.78388,140.750914 L224.74788,140.913414 L223.70988,141.076014 L222.67188,141.238714 L221.63488,141.401214 L220.58788,141.562814 L219.53888,141.724614 L218.48988,141.886614 L217.44288,142.048514 L216.38388,142.209314 L215.32488,142.370314 L214.26488,142.531314 L213.20588,142.692414 L212.13788,142.853114 L211.06788,143.013814 L209.99788,143.174614 L208.92988,143.335214 L207.85288,143.494814 L206.77488,143.656014 L205.69688,143.817314 L204.62088,143.978314 L203.53588,144.138214 L202.44988,144.298314 L201.36388,144.459014 L200.27888,144.620014 L199.18688,144.779714 L198.09388,144.939614 L197.00088,145.099514 L195.90988,145.259314 L194.80988,145.417114 L193.70888,145.575214 L192.60688,145.733314 L191.50588,145.891414 L190.40488,146.049614 L189.30288,146.206714 L188.20188,146.363914 L187.10288,146.520814 L185.99488,146.674614 L184.88388,146.828814 L183.77388,146.981814 L182.66288,147.134614 L181.55288,147.287314 L180.44188,147.440114 L179.33088,147.592814 L178.22288,147.744314 L177.10888,147.891814 L175.99388,148.039514 L174.87788,148.187214 L173.76288,148.334914 L172.64688,148.482614 L171.53088,148.630314 L170.41588,148.778014 L169.30188,148.925414 L168.18688,149.069614 L167.07088,149.214114 L165.95388,149.359514 L164.83788,149.504914 L163.72088,149.650314 L162.60488,149.795714 L161.48788,149.941014 L160.37388,150.087814 L159.26188,150.230914 L158.14788,150.374314 L157.03488,150.517614 L155.92088,150.661014 L154.80688,150.804814 L153.69388,150.948914 L152.57988,151.092914 L151.46788,151.236714 L150.36288,151.376414 L149.25588,151.516314 L148.14888,151.656414 L147.04188,151.796414 L145.93488,151.936414 L144.82788,152.076614 L143.72088,152.216314 L142.61488,152.355114 L141.51588,152.490914 L140.41488,152.626714 L139.31488,152.762614 L138.21488,152.898314 L137.12088,153.030614 L136.02688,153.162914 L134.93188,153.295114 L133.83788,153.427214 L132.75088,153.556914 L131.66388,153.685214 L130.57588,153.812414 L129.48888,153.939414 L128.40888,154.064214 L127.32788,154.189214 L126.24688,154.313914 L125.16788,154.437714 L124.09688,154.558914 L123.02488,154.680314 L121.95288,154.801714 L120.88188,154.922914 L119.82088,155.042114 L118.75888,155.161714 L117.69788,155.281214 L116.63688,155.400514 L115.58588,155.517614 L114.53388,155.635214 L113.48188,155.753914 L112.43088,155.872714 L111.39188,155.988814 L110.35188,156.104914 L109.31188,156.221114 L108.27288,156.338714 L107.24688,156.454114 L106.21988,156.569714 L105.19388,156.685314 L104.16788,156.800814 L103.15388,156.913714 L102.13988,157.028214 L101.12488,157.142614 L100.11188,157.257014 L99.1128804,157.368414 L98.1138804,157.479914 L97.1138804,157.591514 L96.1158804,157.702714 L94.1478804,157.919314 L92.1808804,158.136014 L90.2438804,158.344414 L88.3068804,158.551314 L86.4038804,158.752014 L84.5018804,158.950414 L82.6358804,159.140914 L80.7698804,159.331514 L78.9388804,159.513814 L77.1088804,159.693514 L75.3188804,159.866914 L73.5278804,160.040314 L71.7808804,160.207814 L70.0338804,160.375314 L68.3168804,160.538114 L66.6228804,160.701014 L64.9528804,160.860814 L63.3038804,161.017214 L61.6788804,161.171914 L60.0798804,161.325614 L58.5028804,161.475914 L56.9518804,161.622314 L55.4268804,161.764614 L53.9258804,161.903214 L52.4528804,162.038014 L51.0068804,162.168914 L49.5848804,162.287314 L48.1918804,162.399214 L46.8278804,162.507414 L45.4908804,162.612114 L44.1838804,162.717914 L42.9078804,162.824714 L41.6608804,162.927914 L40.4448804,163.026914 L39.2598804,163.121614 L38.1058804,163.215014 L36.9838804,163.304814 L35.8958804,163.390314 L34.8388804,163.471714 L33.8158804,163.548714 L32.8268804,163.621614 L31.8718804,163.691414 L30.9508804,163.756514 L30.0678804,163.816914 L29.2168804,163.873114 L28.4048804,163.924514 L27.6298804,163.971214 L26.8908804,164.013914 L26.1898804,164.052214 L25.5288804,164.085514 L24.9048804,164.114214 L24.3228804,164.138014 L23.7808804,164.156814 L23.2788804,164.170914 L22.8208804,164.180114 L22.4068804,164.184214 L22.0348804,164.183914 L21.7128804,164.178714 L21.4408804,164.169214 L21.2208804,164.156614 L21.0678804,164.142614 L20.9928804,164.132114 L21.0298804,164.142914 L21.0818804,164.156514 L21.5908804,164.477914 L21.5898804,164.477214 L21.5888804,164.476014 L21.5868804,164.473914 L21.5838804,164.471314 L21.5798804,164.468114 L21.5758804,164.464014 L21.5708804,164.459414 L21.6048804,164.492514 L21.6828804,164.574514 L21.7618804,164.673014 L21.8408804,164.789314 L21.9158804,164.924214 L21.9808804,165.076914 L22.0318804,165.244314 L22.0658804,165.421514 L22.0748804,165.508814 L22.0748804,165.503714 L22.0748804,165.499314 L22.0738804,165.495514 L22.0738804,165.492614 L22.0738804,165.490414 L22.0738804,165.488914 L18.7488804,165.740814 L18.7518804,165.788014 L22.0768804,165.534714 L22.0768804,165.533214 L22.0768804,165.531014 L22.0768804,165.528114 L22.0758804,165.524314 L22.0758804,165.519914 L22.0758804,165.514814 L22.0798804,165.612314 L22.0698804,165.808614 L22.0398804,165.991914 L21.9928804,166.156614 L21.9358804,166.300314 L21.8738804,166.422814 L21.8098804,166.525714 L21.7488804,166.611414 L21.7218804,166.645114 L21.7268804,166.639314 L21.7308804,166.634414 L21.7338804,166.630314 L21.7368804,166.627014 L21.7388804,166.624414 L21.7398804,166.622814 L21.7408804,166.622014 L21.3528804,166.966114 L21.3348804,166.971314 L21.3188804,166.979314 L21.4058804,166.946614 L21.5768804,166.891314 L21.8098804,166.823814 L22.1018804,166.746714 L22.4538804,166.661014 L22.8568804,166.568414 L23.3138804,166.469114 L23.8268804,166.362914 L24.3888804,166.250814 L25.0048804,166.132414 L25.6758804,166.007514 L26.3968804,165.876714 L27.1728804,165.739814 L28.0038804,165.596514 L28.8858804,165.447414 L29.8238804,165.292014 L30.8208804,165.129914 C31.7158804,164.986714 32.3248804,164.145514 32.1818804,163.251014 C32.0388804,162.356514 31.1968804,161.747514 30.3028804,161.890514 Z" id="Fill-90"></path>
            <path d="M11.4708804,37.9120145 L11.1648804,37.8752145 L10.9058804,37.8387145 L10.6788804,37.8012145 L10.4838804,37.7642145 L10.3288804,37.7293145 L10.2128804,37.6978145 L10.1398804,37.6745145 L10.1278804,37.6695145 L10.1748804,37.6936145 L10.2948804,37.7781145 L10.4998804,37.9915145 L10.7068804,38.3719145 L10.7918804,38.8927145 L10.6958804,39.3875145 L10.5398804,39.6803145 L10.4138804,39.8273145 L10.3438804,39.8897145 L10.3388804,39.8941145 L10.3828804,39.8689145 L10.4688804,39.8267145 L10.5958804,39.7699145 L10.7568804,39.7047145 L10.9478804,39.6336145 L11.1718804,39.5563145 L11.4218804,39.4750145 L11.6998804,39.3903145 L12.0048804,39.3020145 L12.3348804,39.2110145 L12.6898804,39.1173145 L13.0638804,39.0226145 L13.8998804,38.8218145 L14.8258804,38.6140145 L15.8458804,38.3979145 L16.9518804,38.1747145 L18.1478804,37.9440145 L19.4338804,37.7058145 L20.7998804,37.4615145 L22.2528804,37.2104145 L23.7918804,36.9521145 L25.4068804,36.6869145 L27.1048804,36.4158145 L28.8848804,36.1380145 L30.7378804,35.8527145 L32.6708804,35.5616145 L33.6748804,35.4134145 L34.6808804,35.2630145 L35.7208804,35.1090145 L36.7608804,34.9552145 L37.8388804,34.7986145 L38.9178804,34.6421145 L40.0318804,34.4781145 L41.1468804,34.3097145 L42.2948804,34.1388145 L43.4428804,33.9679145 L44.6278804,33.7942145 L45.8128804,33.6286145 L47.0348804,33.4629145 L48.2568804,33.2973145 L49.5098804,33.1295145 L50.7638804,32.9621145 L52.0518804,32.7928145 L53.3408804,32.6234145 L54.6628804,32.4521145 L55.9858804,32.2802145 L57.3388804,32.1031145 L58.6908804,31.9261145 L60.0768804,31.7469145 L61.4618804,31.5674145 L62.8798804,31.3830145 L64.2978804,31.1985145 L65.7438804,31.0124145 L67.1908804,30.8260145 L68.6688804,30.6372145 L70.1468804,30.4486145 L71.6558804,30.2581145 L73.1648804,30.0702145 L74.7018804,29.8826145 L76.2388804,29.6950145 L77.8048804,29.5060145 L79.3718804,29.3201145 L80.9678804,29.1330145 L82.5638804,28.9458145 L84.1858804,28.7596145 L85.8088804,28.5749145 L87.4588804,28.3891145 L89.1098804,28.2034145 L90.7878804,28.0168145 L92.4658804,27.8300145 L94.1688804,27.6425145 L95.8708804,27.4524145 L97.5988804,27.2614145 L99.3278804,27.0703145 L101.08188,26.8753145 L102.83588,26.6794145 L104.61288,26.4828145 L106.38988,26.2841145 L108.19088,26.0837145 L109.99288,25.8831145 L111.81888,25.6812145 L113.64388,25.4789145 L115.49088,25.2760145 L117.33788,25.0744145 L119.20788,24.8730145 L121.07888,24.6715145 L122.97188,24.4733145 L124.86488,24.2765145 L126.77888,24.0796145 L128.69188,23.8847145 L130.62688,23.6900145 L132.56188,23.4954145 L134.51888,23.3029145 L136.47488,23.1104145 L138.44888,22.9179145 L140.42388,22.7250145 L141.42088,22.6287145 L142.41788,22.5323145 L143.41588,22.4359145 L144.41288,22.3390145 L145.41888,22.2422145 L146.42588,22.1453145 L147.43288,22.0484145 L148.43988,21.9514145 L149.45488,21.8542145 L150.46988,21.7555145 L151.48588,21.6569145 L152.49988,21.5584145 L153.52388,21.4600145 L154.54888,21.3615145 L155.57288,21.2622145 L156.59688,21.1629145 L157.62888,21.0638145 L158.66188,20.9646145 L159.69488,20.8654145 L160.72788,20.7663145 L161.76788,20.6674145 L162.80888,20.5684145 L163.84988,20.4695145 L164.89088,20.3705145 L165.93888,20.2725145 L166.98788,20.1754145 L168.03788,20.0784145 L169.08688,19.9815145 L170.14288,19.8849145 L171.19988,19.7884145 L172.25788,19.6931145 L173.31488,19.5979145 L174.37888,19.5032145 L175.44288,19.4084145 L176.50688,19.3135145 L177.57088,19.2195145 L178.64288,19.1260145 L179.71388,19.0326145 L180.78588,18.9391145 L181.85788,18.8457145 L182.93588,18.7527145 L184.01488,18.6596145 L185.09388,18.5666145 L186.17288,18.4735145 L187.25688,18.3809145 L188.34188,18.2875145 L189.42788,18.1936145 L190.51188,18.0999145 L191.60288,18.0066145 L192.69488,17.9132145 L193.78688,17.8190145 L194.87788,17.7242145 L195.97488,17.6298145 L197.07288,17.5354145 L198.17088,17.4411145 L199.26788,17.3461145 L200.37088,17.2514145 L201.47488,17.1566145 L202.57788,17.0618145 L203.68088,16.9671145 L204.78888,16.8728145 L205.89788,16.7785145 L207.00788,16.6841145 L208.11588,16.5898145 L209.22988,16.4961145 L210.34488,16.4024145 L211.45888,16.3086145 L212.57288,16.2150145 L213.69188,16.1221145 L214.81088,16.0291145 L215.93088,15.9377145 L217.04988,15.8470145 L218.17388,15.7570145 L219.29788,15.6670145 L220.42288,15.5771145 L221.54688,15.4879145 L222.67488,15.3999145 L223.80488,15.3119145 L224.93388,15.2238145 L226.06188,15.1358145 L227.19688,15.0497145 L228.33188,14.9635145 L229.46688,14.8775145 L230.60188,14.7913145 L231.73688,14.7047145 L232.87188,14.6106145 L234.00588,14.5165145 L235.13988,14.4224145 L236.28088,14.3301145 L237.42288,14.2373145 L238.56488,14.1426145 L239.70688,14.0478145 L240.84988,13.9530145 L241.99188,13.8583145 L243.13388,13.7659145 L244.27488,13.6774145 L245.42388,13.5910145 L246.57288,13.5045145 L247.72188,13.4181145 L248.87088,13.3329145 L250.01988,13.2484145 L251.16988,13.1641145 L252.31888,13.0797145 L253.46688,12.9954145 L254.62088,12.9140145 L255.77488,12.8328145 L256.92888,12.7516145 L258.08288,12.6703145 L259.23788,12.5891145 L260.39188,12.5087145 L261.54688,12.4283145 L262.69988,12.3479145 L263.85788,12.2701145 L265.01688,12.1923145 L266.17588,12.1155145 L267.33488,12.0386145 L268.49388,11.9617145 L269.65188,11.8849145 L270.81088,11.8080145 L271.96888,11.7312145 L273.12988,11.6570145 L274.29188,11.5828145 L275.45488,11.5086145 L276.61688,11.4344145 L277.77888,11.3600145 L278.94088,11.2858145 L280.10288,11.2116145 L281.26488,11.1374145 C281.72488,11.1081145 282.07388,10.7116145 282.046564,10.2519145 C282.01588,9.79201449 281.61888,9.44301449 281.15888,9.47231449 L279.99688,9.54611449 L278.83488,9.61991449 L277.67288,9.69361449 L276.51088,9.76741449 L275.34788,9.84111449 L274.18588,9.91481449 L273.02388,9.98861449 L271.86088,10.0624145 L270.70088,10.1388145 L269.54188,10.2152145 L268.38288,10.2915145 L267.22388,10.3680145 L266.06488,10.4444145 L264.90588,10.5207145 L263.74688,10.5962145 L262.58688,10.6715145 L261.43188,10.7493145 L260.27688,10.8269145 L259.12188,10.9046145 L257.96788,10.9815145 L256.81288,11.0584145 L255.65888,11.1353145 L254.50388,11.2122145 L253.34888,11.2889145 L252.19788,11.3669145 L251.04788,11.4446145 L249.89788,11.5225145 L248.74888,11.6004145 L247.59888,11.6774145 L246.44888,11.7532145 L245.29888,11.8290145 L244.14788,11.9048145 L243.00388,11.9828145 L241.85988,12.0570145 L240.71688,12.1287145 L239.57288,12.2005145 L238.42888,12.2721145 L237.28488,12.3439145 L236.14188,12.4175145 L234.99688,12.4919145 L233.85988,12.5681145 L232.72388,12.6443145 L231.58788,12.7205145 L230.45288,12.8044145 L229.31788,12.8886145 L228.18188,12.9729145 L227.04688,13.0572145 L225.91088,13.1414145 L224.78088,13.2262145 L223.65088,13.3111145 L222.52188,13.3958145 L221.39188,13.4806145 L220.26688,13.5661145 L219.14188,13.6507145 L218.01688,13.7353145 L216.89188,13.8200145 L215.77088,13.9054145 L214.65088,13.9901145 L213.53088,14.0733145 L212.40988,14.1565145 L211.29388,14.2405145 L210.17888,14.3244145 L209.06388,14.4082145 L207.94788,14.4922145 L206.83688,14.5768145 L205.72688,14.6615145 L204.61788,14.7461145 L203.50688,14.8310145 L202.40288,14.9167145 L201.29888,15.0022145 L200.19388,15.0879145 L199.08988,15.1735145 L197.99088,15.2603145 L196.89188,15.3474145 L195.79388,15.4347145 L194.69488,15.5220145 L193.60188,15.6099145 L192.50988,15.6984145 L191.41788,15.7879145 L190.32488,15.8775145 L189.23888,15.9676145 L188.15288,16.0577145 L187.06788,16.1481145 L185.98188,16.2395145 L184.90288,16.3313145 L183.82288,16.4231145 L182.74388,16.5149145 L181.66488,16.6068145 L180.59188,16.6993145 L179.51988,16.7917145 L178.44788,16.8841145 L177.37588,16.9765145 L176.30988,17.0692145 L175.24588,17.1612145 L174.18088,17.2530145 L173.11588,17.3449145 L172.05788,17.4372145 L170.99988,17.5295145 L169.94288,17.6204145 L168.88388,17.7112145 L167.83388,17.8025145 L166.78388,17.8937145 L165.73388,17.9849145 L164.68388,18.0750145 L163.64088,18.1648145 L162.59988,18.2548145 L161.55788,18.3446145 L160.51588,18.4345145 L159.48088,18.5247145 L158.44688,18.6149145 L157.41288,18.7050145 L156.37888,18.7952145 L155.35288,18.8857145 L154.32788,18.9762145 L153.30188,19.0675145 L152.27688,19.1590145 L151.25988,19.2506145 L150.24388,19.3422145 L149.22788,19.4337145 L148.21188,19.5266145 L147.20388,19.6202145 L146.19588,19.7138145 L145.18888,19.8073145 L144.18088,19.9009145 L143.18288,19.9948145 L142.18488,20.0891145 L141.18688,20.1834145 L140.18888,20.2779145 L138.21288,20.4667145 L136.23688,20.6558145 L134.27888,20.8451145 L132.32088,21.0343145 L130.38388,21.2216145 L128.44688,21.4087145 L126.53088,21.5954145 L124.61488,21.7799145 L122.71988,21.9644145 L120.82288,22.1474145 L118.94988,22.3267145 L117.07588,22.5060145 L115.22488,22.6844145 L113.37388,22.8615145 L111.54388,23.0384145 L109.71488,23.2156145 L107.90888,23.3933145 L106.10388,23.5711145 L104.32288,23.7494145 L102.54288,23.9298145 L100.78588,24.1097145 L99.0288804,24.2904145 L97.2978804,24.4737145 L95.5668804,24.6569145 L93.8618804,24.8394145 L92.1578804,25.0244145 L90.4778804,25.2087145 L88.7978804,25.3930145 L87.1448804,25.5761145 L85.4928804,25.7592145 L83.8678804,25.9413145 L82.2438804,26.1219145 L80.6448804,26.2992145 L79.0458804,26.4766145 L77.4758804,26.6529145 L75.9048804,26.8261145 L74.3648804,26.9978145 L72.8238804,27.1697145 L71.3108804,27.3387145 L69.7968804,27.5050145 L68.3138804,27.6702145 L66.8308804,27.8354145 L65.3798804,27.9997145 L63.9278804,28.1642145 L62.5058804,28.3274145 L61.0828804,28.4908145 L59.6928804,28.6554145 L58.3028804,28.8206145 L56.9458804,28.9840145 L55.5898804,29.1475145 L54.2638804,29.3128145 L52.9378804,29.4784145 L51.6448804,29.6422145 L50.3528804,29.8061145 L49.0958804,29.9674145 L47.8388804,30.1287145 L46.6128804,30.2881145 L45.3868804,30.4474145 L44.1968804,30.6023145 L43.0058804,30.7493145 L41.8498804,30.8943145 L40.6948804,31.0393145 L39.5728804,31.1827145 L38.4518804,31.3302145 L37.3688804,31.4803145 L36.2848804,31.6303145 L35.2388804,31.7779145 L34.1938804,31.9256145 L33.1838804,32.0718145 L32.1718804,32.2202145 L30.2298804,32.5115145 L28.3658804,32.7974145 L26.5738804,33.0804145 L24.8628804,33.3579145 L23.2348804,33.6293145 L21.6808804,33.8962145 L20.2108804,34.1574145 L18.8258804,34.4119145 L17.5188804,34.6604145 L16.2978804,34.9026145 L15.1638804,35.1381145 L14.1088804,35.3675145 L13.1408804,35.5902145 L12.2678804,35.8048145 L11.8518804,35.9125145 L11.4628804,36.0175145 L11.0968804,36.1209145 L10.7488804,36.2235145 L10.4208804,36.3257145 L10.1138804,36.4272145 L9.8248804,36.5290145 L9.5508804,36.6326145 L9.2958804,36.7381145 L9.0528804,36.8483145 L8.8158804,36.9684145 L8.5888804,37.1015145 L8.3578804,37.2602145 L8.1108804,37.4723145 L7.8598804,37.7646145 L7.6238804,38.1986145 L7.4998804,38.8302145 L7.6078804,39.4832145 L7.8848804,39.9916145 L8.2128804,40.3282145 L8.5068804,40.5313145 L8.7758804,40.6697145 L9.0378804,40.7743145 L9.2928804,40.8556145 L9.5528804,40.9245145 L9.8288804,40.9849145 L10.1168804,41.0382145 L10.4228804,41.0867145 L10.7498804,41.1311145 L11.0868804,41.1700145 C11.9858804,41.2762145 12.8018804,40.6330145 12.9078804,39.7333145 C13.0138804,38.8337145 12.3708804,38.0182145 11.4708804,37.9120145 Z" id="Fill-91"></path>
            <path d="M273.46388,0.858114489 L272.87888,1.92431449 L272.30788,3.04451449 L271.76588,4.19271449 L271.24688,5.36731449 L270.75388,6.57271449 L270.28788,7.80441449 L269.84588,9.06061449 L269.42888,10.3457145 L269.03788,11.6552145 L268.66988,12.9877145 L268.32888,14.3468145 L268.01188,15.7284145 L267.72188,17.1320145 L267.45588,18.5594145 L267.23288,20.0103145 L267.02988,21.4795145 L266.82688,22.9667145 L266.64488,24.4723145 L266.47988,25.9950145 L266.33588,27.5375145 L266.21888,29.0973145 L266.12188,30.6726145 L266.04988,32.2657145 L265.99888,33.8736145 L265.96588,35.4950145 L265.95188,37.1317145 L265.94788,38.7813145 L265.95888,40.4429145 L265.98288,42.1181145 L266.02188,43.8079145 L266.07988,45.5066145 L266.13788,47.2091145 L266.22788,48.9331145 L266.32288,50.6562145 L266.45088,52.3976145 L266.58588,54.1368145 L266.74988,55.8902145 L266.91788,57.6435145 L267.11588,59.4098145 L267.31588,61.1752145 L267.53988,62.9512145 L267.76288,64.7259145 L268.00288,66.5086145 L268.24088,68.2918145 L268.50288,70.0806145 L268.76188,71.8695145 L269.04488,73.6609145 L269.32788,75.4512145 L269.63388,77.2411145 L269.94088,79.0314145 L270.27488,80.8180145 L270.60988,82.6040145 L270.96888,84.3838145 L271.32788,86.1626145 L271.70488,87.9337145 L272.07788,89.7061145 L272.46888,91.4679145 L272.85488,93.2304145 L273.25788,94.9793145 L273.65888,96.7279145 L274.07488,98.4618145 L274.49088,100.196114 L274.92688,101.910614 L275.36288,103.624714 L275.81688,105.316114 L276.27188,107.006414 L276.73988,108.674014 L277.20888,110.342014 L277.68988,111.982814 L278.17088,113.623414 L278.66088,115.234414 L279.14688,116.846314 L279.63888,118.429014 L280.13088,120.012614 L280.62988,121.561614 L281.12688,123.110814 L281.64388,124.618114 L282.16788,126.122314 L282.70188,127.588214 L283.23688,129.053714 L283.76588,130.479914 L284.29088,131.907314 L284.81688,133.289814 L285.33988,134.671214 L285.86488,136.023014 L286.38888,137.349314 L286.91288,138.650114 L287.43688,139.927414 L287.96088,141.178414 L288.48188,142.402114 L289.00388,143.600314 L289.52488,144.769914 L290.04488,145.909814 L290.56388,147.022414 L291.08088,148.104514 L291.59488,149.151214 C291.79788,149.564714 292.29788,149.735514 292.71188,149.532614 C293.12488,149.329614 293.29588,148.829914 293.09288,148.416314 L292.58388,147.377014 L292.07388,146.309614 L291.56188,145.210614 L291.04888,144.083514 L290.53488,142.926814 L290.01988,141.740514 L289.50388,140.528114 L288.98988,139.287514 L288.47588,138.019214 L287.96388,136.726414 L287.45288,135.407714 L286.94388,134.064614 L286.43688,132.685214 L285.93288,131.307014 L285.43488,129.881514 L284.94188,128.454614 L284.46388,126.980914 L283.98488,125.507614 L283.50688,123.998714 L283.02188,122.493114 L282.53188,120.953314 L282.04288,119.413114 L281.56388,117.837714 L281.08588,116.261114 L280.61688,114.654914 L280.15388,113.047814 L279.70288,111.410414 L279.25088,109.773214 L278.81088,108.109314 L278.37088,106.445114 L277.94088,104.759214 L277.50988,103.074414 L277.08988,101.368714 L276.66788,99.6635145 L276.25788,97.9402145 L275.84788,96.2166145 L275.45288,94.4782145 L275.05988,92.7400145 L274.68488,90.9879145 L274.31388,89.2353145 L273.96388,87.4716145 L273.61788,85.7068145 L273.28988,83.9347145 L272.96188,82.1636145 L272.65188,80.3876145 L272.34088,78.6122145 L272.04688,76.8351145 L271.75188,75.0577145 L271.47788,73.2806145 L271.20288,71.5044145 L270.95288,69.7307145 L270.70588,67.9571145 L270.48688,66.1888145 L270.26988,64.4198145 L270.08488,62.6575145 L269.90088,60.8965145 L269.74788,59.1462145 L269.59488,57.3966145 L269.46888,55.6613145 L269.33988,53.9259145 L269.23588,52.2057145 L269.12488,50.4877145 L269.04488,48.7887145 L268.95988,47.0907145 L268.90788,45.4146145 L268.85588,43.7347145 L268.83088,42.0782145 L268.82588,40.4327145 L268.84288,38.8006145 L268.87688,37.1822145 L268.93588,35.5804145 L269.01488,33.9944145 L269.10788,32.4242145 L269.21988,30.8728145 L269.34388,29.3389145 L269.48388,27.8224145 L269.63588,26.3262145 L269.80888,24.8495145 L269.99988,23.3924145 L270.21288,21.9585145 L270.46688,20.5500145 L270.73988,19.1635145 L271.01288,17.7991145 L271.30588,16.4583145 L271.61288,15.1396145 L271.93888,13.8482145 L272.28588,12.5816145 L272.64988,11.3396145 L273.03588,10.1272145 L273.44188,8.94131449 L273.86888,7.78211449 L274.31688,6.65471449 L274.78888,5.55591449 L275.28188,4.48591449 L275.79688,3.44961449 L276.34688,2.42311449 C276.77888,1.62691449 276.48488,0.631114489 275.68788,0.199014489 C274.89188,-0.233185511 273.89588,0.0619144892 273.46388,0.858114489 Z" id="Fill-92"></path>
            <path d="M3.0698804,44.2421145 L3.3608804,43.7294145 L3.6398804,43.2686145 L3.9168804,42.8391145 L4.1908804,42.4399145 L4.4598804,42.0757145 L4.7258804,41.7420145 L4.9868804,41.4378145 L5.2398804,41.1680145 L5.4888804,40.9269145 L5.7298804,40.7138145 L5.9598804,40.5329145 L6.1838804,40.3776145 L6.3978804,40.2465145 L6.5978804,40.1430145 L6.7928804,40.0597145 L6.9788804,39.9949145 L7.1518804,39.9504145 L7.3248804,39.9211145 L7.4948804,39.9053145 L7.6578804,39.9043145 L7.8298804,39.9182145 L8.0068804,39.9455145 L8.1848804,39.9879145 L8.3768804,40.0497145 L8.5778804,40.1288145 L8.7838804,40.2265145 L9.0048804,40.3479145 L9.2338804,40.4903145 L9.4678804,40.6541145 L9.6858804,40.8225145 L10.2218804,41.2929145 L10.7478804,41.8355145 L11.2958804,42.4775145 L11.8568804,43.2060145 L12.4238804,44.0237145 L13.0038804,44.9316145 L13.5898804,45.9169145 L14.1798804,46.9839145 L14.7858804,48.1270145 L15.3978804,49.3399145 L16.0038804,50.6300145 L16.5998804,51.9997145 L17.1948804,53.4331145 L17.7888804,54.9335145 L18.3818804,56.4998145 L18.9818804,58.1208145 L19.5808804,59.8012145 L20.1838804,61.5387145 L20.7858804,63.3271145 L21.3868804,65.1685145 L21.9798804,67.0652145 L22.2738804,68.0338145 L22.5678804,69.0042145 L22.8568804,69.9986145 L23.1458804,70.9933145 L23.4328804,72.0100145 L23.7178804,73.0282145 L23.9988804,74.0657145 L24.2808804,75.1031145 L24.5608804,76.1604145 L24.8408804,77.2179145 L25.1188804,78.2942145 L25.3978804,79.3708145 L25.6758804,80.4630145 L25.9548804,81.5552145 L26.2328804,82.6636145 L26.5138804,83.7716145 L26.7918804,84.8952145 L27.0718804,86.0188145 L27.3508804,87.1554145 L27.6308804,88.2918145 L27.9088804,89.4414145 L28.1868804,90.5912145 L28.4638804,91.7535145 L28.7378804,92.9151145 L29.0078804,94.0920145 L29.2788804,95.2724145 L29.5448804,96.4538145 L29.8098804,97.6305145 L30.0688804,98.8260145 L30.3268804,100.026414 L30.5848804,101.227014 L30.8408804,102.423414 L31.0898804,103.633914 L31.3388804,104.848714 L31.5888804,106.063414 L31.8378804,107.274414 L32.0818804,108.494414 L32.3278804,109.717714 L32.5728804,110.941014 L32.8188804,112.160414 L33.0598804,113.385014 L33.3028804,114.613214 L33.5468804,115.841214 L33.7898804,117.065814 L34.0268804,118.291314 L34.2638804,119.520214 L34.5018804,120.748914 L34.7378804,121.975114 L34.9658804,123.199014 L35.1928804,124.425614 L35.4198804,125.652314 L35.6438804,126.876614 L35.8608804,128.093714 L36.0768804,129.313614 L36.2928804,130.533714 L36.5078804,131.751414 L36.7148804,132.956914 L36.9228804,134.165214 L37.1308804,135.373314 L37.3408804,136.578914 L37.5428804,137.769914 L37.7458804,138.963014 L37.9518804,140.155914 L38.1568804,141.346314 L38.3538804,142.516614 L38.5528804,143.689114 L38.7508804,144.861614 L38.9498804,146.031914 L39.1398804,147.177414 L39.3298804,148.325114 L39.5198804,149.472814 L39.7088804,150.619114 L39.8928804,151.746114 L40.0728804,152.874214 L40.2488804,153.986814 L40.4238804,155.099514 L40.5928804,156.195814 L40.7608804,157.292314 L40.9258804,158.372614 L41.0888804,159.453014 L41.2468804,160.514914 L41.4058804,161.576814 L41.5658804,162.617814 L41.7308804,163.658214 L41.8918804,164.679614 L42.0538804,165.701014 L42.2118804,166.700014 L42.3708804,167.698914 L42.6688804,169.652914 L42.9478804,171.564114 L43.2118804,173.425714 L43.4628804,175.235114 L43.7008804,176.995414 L43.9278804,178.699014 L44.1418804,180.343914 L44.3448804,181.933414 L44.5338804,183.459914 L44.7108804,184.921214 L44.8768804,186.321114 L45.0298804,187.651214 L45.1718804,188.909514 L45.3018804,190.100414 L45.4198804,191.214914 L45.5238804,192.252714 C45.5698804,192.711214 45.9798804,193.045314 46.4378804,192.999214 C46.8958804,192.953014 47.2298804,192.544014 47.1838804,192.085614 L47.0798804,191.044014 L46.9618804,189.922614 L46.8318804,188.725914 L46.6908804,187.462314 L46.5378804,186.127014 L46.3718804,184.722714 L46.1958804,183.257114 L46.0078804,181.726214 L45.8108804,180.132214 L45.6028804,178.482914 L45.3858804,176.774314 L45.1588804,175.009314 L44.9238804,173.194214 L44.6798804,171.326414 L44.4288804,169.407914 L44.1788804,167.444514 L44.0528804,166.438614 L43.9268804,165.433114 L43.7938804,164.405914 L43.6588804,163.378914 L43.5198804,162.332914 L43.3768804,161.287614 L43.2208804,160.223414 L43.0648804,159.159314 L42.9048804,158.076414 L42.7458804,156.993614 L42.5818804,155.894614 L42.4178804,154.795414 L42.2508804,153.679514 L42.0848804,152.563514 L41.9138804,151.432014 L41.7458804,150.299614 L41.5718804,149.148014 L41.3988804,147.997614 L41.2248804,146.847314 L41.0508804,145.694914 L40.8678804,144.517714 L40.6858804,143.342714 L40.5028804,142.167614 L40.3188804,140.990414 L40.1258804,139.793114 L39.9328804,138.598314 L39.7378804,137.403714 L39.5418804,136.207114 L39.3378804,134.995914 L39.1328804,133.787314 L38.9278804,132.578614 L38.7218804,131.367514 L38.5078804,130.144414 L38.2938804,128.923914 L38.0808804,127.703314 L37.8688804,126.479814 L37.6498804,125.248914 L37.4318804,124.020514 L37.2158804,122.791914 L36.9978804,121.560714 L36.7778804,120.326014 L36.5578804,119.093914 L36.3378804,117.861814 L36.1168804,116.626514 L35.8898804,115.392114 L35.6618804,114.161214 L35.4338804,112.930214 L35.2038804,111.695814 L34.9648804,110.467414 L34.7258804,109.243014 L34.4868804,108.018314 L34.2468804,106.790614 L33.9998804,105.571414 L33.7538804,104.355914 L33.5078804,103.140414 L33.2598804,101.920814 L33.0078804,100.714514 L32.7578804,99.5124145 L32.5078804,98.3103145 L32.2588804,97.1029145 L32.0048804,95.9140145 L31.7518804,94.7296145 L31.5028804,93.5442145 L31.2538804,92.3553145 L31.0018804,91.1811145 L30.7508804,90.0072145 L30.4978804,88.8457145 L30.2438804,87.6841145 L29.9868804,86.5360145 L29.7288804,85.3881145 L29.4678804,84.2536145 L29.2048804,83.1191145 L28.9388804,81.9999145 L28.6708804,80.8813145 L28.3988804,79.7796145 L28.1268804,78.6780145 L27.8508804,77.5929145 L27.5738804,76.5076145 L27.2948804,75.4410145 L27.0158804,74.3741145 L26.7338804,73.3269145 L26.4528804,72.2799145 L26.1708804,71.2516145 L25.8918804,70.2220145 L25.6098804,69.2141145 L25.3288804,68.2058145 L25.0478804,67.2196145 L24.7668804,66.2318145 L24.2058804,64.3035145 L23.6458804,62.4201145 L23.0798804,60.5890145 L22.5098804,58.8064145 L21.9298804,57.0800145 L21.3448804,55.4124145 L20.7498804,53.8008145 L20.1498804,52.2498145 L19.5468804,50.7627145 L18.9408804,49.3344145 L18.3418804,47.9657145 L17.7448804,46.6636145 L17.1378804,45.4259145 L16.5128804,44.2641145 L15.8818804,43.1773145 L15.2408804,42.1590145 L14.5868804,41.2154145 L13.9238804,40.3518145 L13.2478804,39.5596145 L12.5488804,38.8456145 L11.8588804,38.2415145 L11.4638804,37.9361145 L11.0848804,37.6733145 L10.6998804,37.4364145 L10.3068804,37.2227145 L9.8998804,37.0337145 L9.4878804,36.8755145 L9.0678804,36.7453145 L8.6328804,36.6460145 L8.1968804,36.5826145 L7.7568804,36.5523145 L7.3078804,36.5594145 L6.8668804,36.6038145 L6.4278804,36.6831145 L5.9898804,36.8007145 L5.5658804,36.9519145 L5.1508804,37.1346145 L4.7408804,37.3520145 L4.3468804,37.5976145 L3.9618804,37.8700145 L3.5838804,38.1737145 L3.2178804,38.5024145 L2.8608804,38.8557145 L2.5078804,39.2387145 L2.1638804,39.6462145 L1.8268804,40.0782145 L1.4918804,40.5396145 L1.1638804,41.0265145 L0.839880397,41.5387145 L0.518880397,42.0811145 L0.210880397,42.6338145 C-0.233119603,43.4234145 0.0468803968,44.4235145 0.835880397,44.8676145 C1.6258804,45.3117145 2.6258804,45.0316145 3.0698804,44.2421145 Z" id="Fill-93"></path>
        </g>
    </g>
</svg>
