<?xml version="1.0" encoding="UTF-8"?>
<svg width="677px" height="337px" viewBox="0 0 677 337" version="1.1" xmlns="http://www.w3.org/2000/svg" xmlns:xlink="http://www.w3.org/1999/xlink">
    <title>81</title>
    <g id="Page-1" stroke="none" stroke-width="1" fill="none" fill-rule="evenodd">
        <g id="81" transform="translate(0.287750, 0.973600)" fill="currentColor">
            <path d="M75.896,217.34766 L75.521,217.18165 L75.277,217.05616 L75.134,216.9668 L75.101,216.94336 L75.202,217.06421 L75.359,217.40381 L75.386,217.95875 L75.193,218.45728 L75.013,218.66797 L74.955,218.71119 L75.022,218.67994 L75.212,218.6106 L75.493,218.52735 L75.856,218.44044 L76.3,218.3523 L76.812,218.26612 L77.392,218.1836 L78.04,218.10523 L78.748,218.03101 L79.518,217.96168 L80.351,217.89722 L81.239,217.83765 L82.186,217.78321 L83.192,217.73389 L84.251,217.68921 L85.366,217.64966 L86.538,217.61548 L87.76,217.5857 L89.036,217.56104 L90.366,217.54151 L91.744,217.52637 L93.174,217.51636 L94.656,217.51099 L96.184,217.50977 L97.762,217.51319 L99.39,217.52149 L101.062,217.53394 L102.782,217.55103 L104.549,217.57276 L106.359,217.59766 L108.215,217.62671 L110.116,217.66016 L112.059,217.69752 L114.045,217.73902 L115.059,217.76197 L116.074,217.78467 L117.108,217.80909 L118.142,217.83301 L119.197,217.85914 L120.252,217.88502 L121.328,217.91309 L122.404,217.94092 L123.499,217.97071 L124.593,218.00049 L125.707,218.03223 L126.822,218.06397 L127.956,218.09742 L129.09,218.1294 L130.242,218.16285 L131.394,218.19654 L132.564,218.23194 L133.735,218.26734 L134.925,218.30469 L136.114,218.34205 L137.321,218.38086 L138.527,218.41968 L139.751,218.45777 L140.976,218.49366 L142.218,218.53101 L143.46,218.56836 L144.718,218.60718 L145.976,218.646 L147.251,218.68653 L148.526,218.72681 L149.818,218.76905 L151.11,218.81397 L152.417,218.86304 L153.723,218.91187 L155.046,218.96265 L156.369,219.01319 L157.707,219.06519 L159.045,219.11744 L160.398,219.1709 L161.751,219.22461 L163.118,219.27979 L164.485,219.33521 L165.868,219.3921 L167.25,219.44874 L168.646,219.50684 L170.041,219.56519 L171.45,219.62476 L172.86,219.68433 L174.283,219.74341 L175.707,219.80225 L177.143,219.86255 L178.578,219.92261 L180.027,219.98414 L181.476,220.04566 L182.938,220.10865 L184.399,220.17115 L185.872,220.2334 L187.345,220.29566 L188.83,220.35914 L190.315,220.42261 L191.813,220.48731 L193.31,220.55201 L194.817,220.61768 L196.325,220.68311 L197.843,220.74976 L199.362,220.81617 L200.891,220.88404 L202.421,220.95167 L203.964,221.02076 L205.508,221.08985 L207.052,221.15943 L208.596,221.23072 L210.159,221.3042 L211.722,221.37745 L213.286,221.45093 L214.849,221.52442 L216.43,221.59961 L218.012,221.67505 L219.594,221.7522 L221.176,221.82911 L222.773,221.90796 L224.37,221.98658 L225.968,222.06544 L227.564,222.14429 L229.177,222.22486 L230.79,222.30689 L232.403,222.38941 L234.016,222.47169 L235.643,222.55567 L237.271,222.6399 L238.898,222.72388 L240.525,222.80787 L242.165,222.89356 L243.804,222.97901 L245.444,223.0647 L247.083,223.1504 L248.734,223.23731 L250.385,223.32447 L252.037,223.41138 L253.688,223.49732 L255.349,223.58448 L257.011,223.67164 L258.673,223.75904 L260.335,223.8462 L262.005,223.93458 L263.675,224.02222 L265.346,224.10889 L267.016,224.19532 L268.694,224.28296 L270.372,224.37061 L272.051,224.45826 L273.729,224.5459 L275.413,224.63379 L277.098,224.72095 L278.783,224.80836 L280.468,224.89551 L282.158,224.98365 L283.848,225.07178 L285.538,225.15992 L287.227,225.24732 L288.921,225.3357 L290.615,225.42408 L292.309,225.51246 L294.002,225.60084 L295.699,225.68995 L297.396,225.7793 L299.092,225.86915 L300.788,225.95923 L302.486,226.05005 L304.184,226.14063 L305.882,226.23145 L307.579,226.32227 L309.277,226.41431 L310.975,226.50733 L312.673,226.60035 L314.37,226.69336 L316.065,226.78711 L317.761,226.88086 L319.456,226.97461 L321.152,227.06959 L322.847,227.16431 L324.543,227.25928 L326.238,227.35425 L327.933,227.44898 L329.621,227.54419 L331.308,227.63965 L332.995,227.73585 L334.683,227.83204 L336.37,227.92798 L338.058,228.02418 L339.745,228.12037 L341.433,228.21656 L343.112,228.31251 L344.791,228.40845 L346.47,228.5044 L348.149,228.6001 L349.82,228.69605 L351.492,228.79175 L353.163,228.88746 L354.835,228.98292 L356.497,229.07789 L358.159,229.17286 L359.822,229.26783 L361.484,229.3628 L363.137,229.45752 L364.79,229.55176 L366.443,229.64502 L368.096,229.73829 L369.737,229.83106 L371.378,229.92359 L373.02,230.01636 L374.661,230.10914 L376.289,230.20093 L377.917,230.29249 L379.546,230.38379 L381.174,230.47535 L382.789,230.56617 L384.405,230.65699 L386.02,230.74756 L387.635,230.83838 L389.235,230.92847 L390.835,231.01856 L392.434,231.1084 L394.034,231.19849 L395.617,231.2876 L397.2,231.37671 L398.782,231.46607 L400.365,231.5564 L401.931,231.64576 L403.497,231.73536 L405.063,231.82471 L406.629,231.91407 L408.176,232.00245 L409.722,232.09083 L411.269,232.17994 L412.815,232.26929 L414.341,232.35743 L415.867,232.44556 L417.392,232.53345 L418.918,232.62159 L420.423,232.70826 L421.929,232.79566 L423.434,232.88306 L424.94,232.97046 L426.422,233.0564 L427.904,233.14258 L429.386,233.22852 L430.868,233.31446 L432.325,233.39893 L433.782,233.48316 L435.24,233.56739 L436.697,233.65186 L438.136,233.73487 L439.576,233.81812 L441.002,233.9004 L442.428,233.98267 L443.841,234.06397 L445.253,234.14454 L446.653,234.22413 L448.053,234.30396 L449.439,234.38282 L450.824,234.46143 L452.195,234.53931 L453.565,234.61719 L454.923,234.69385 L456.28,234.76978 L457.622,234.84449 L458.964,234.91944 L460.29,234.99317 L461.616,235.0669 L462.928,235.1399 L464.24,235.21265 L465.535,235.28443 L466.83,235.35572 L468.109,235.42579 L469.388,235.49561 L470.651,235.5647 L471.915,235.63355 L473.161,235.70142 L474.407,235.76929 L475.635,235.8357 L476.864,235.90235 L478.076,235.96778 L479.288,236.03296 L480.482,236.09717 L481.676,236.16114 L482.851,236.22388 L484.026,236.28663 L485.184,236.34815 L486.342,236.40967 L487.481,236.46998 L488.62,236.53028 L489.739,236.58912 L490.858,236.64795 L491.96,236.70557 L493.061,236.76294 L494.142,236.8191 L495.222,236.87549 L496.283,236.93018 L497.343,236.98487 L498.385,237.03809 L499.426,237.09156 L500.446,237.14405 L501.466,237.19703 L503.463,237.29957 L505.421,237.39942 L507.334,237.49586 L509.202,237.58936 L511.028,237.67945 L512.809,237.76734 L514.542,237.85157 L516.232,237.93262 L517.873,238.01002 L519.466,238.08399 L521.014,238.15455 L522.511,238.22144 L523.958,238.28492 L525.357,238.34498 L526.705,238.40088 L528,238.45313 L528.996,238.49097 L530.031,238.52662 L531.104,238.56031 L532.21,238.59205 L533.351,238.62159 L534.526,238.64576 L535.731,238.667 L536.967,238.6858 L538.234,238.70215 L539.527,238.71631 L540.848,238.72803 L542.195,238.73707 L543.565,238.7439 L544.959,238.74854 L546.375,238.74854 L547.811,238.74634 L549.267,238.74146 L550.743,238.73389 L552.241,238.72266 L553.739,238.71143 L555.268,238.69459 L556.797,238.6792 L558.351,238.66089 L559.905,238.64234 L561.477,238.61866 L563.049,238.59498 L564.636,238.56544 L566.223,238.53589 L567.821,238.50049 L569.418,238.46631 L571.019,238.42652 L572.62,238.38648 L574.222,238.34034 L575.824,238.29419 L577.42,238.2417 L579.016,238.18921 L580.602,238.13135 L582.189,238.07349 L583.761,238.00904 L585.333,237.94434 L586.884,237.87305 L588.435,237.80152 L589.962,237.72364 L591.491,237.64625 L592.988,237.56177 L594.486,237.4773 L595.948,237.3855 L597.41,237.29371 L598.835,237.19507 L600.26,237.09644 L601.64,236.99024 L603.02,236.88477 L604.349,236.77125 L605.677,236.65796 L606.97,236.53907 L608.233,236.41602 L609.466,236.28931 L610.669,236.15845 L611.841,236.02369 L612.978,235.88453 L614.084,235.7417 L615.153,235.59424 L616.185,235.44263 L617.181,235.28687 L618.138,235.12647 L619.054,234.96143 L619.931,234.79224 L620.766,234.61793 L621.557,234.43873 L622.306,234.25464 L623.011,234.06495 L623.667,233.86939 L624.282,233.66773 L624.85,233.45826 L625.368,233.24097 L625.845,233.01392 L626.276,232.77198 L626.659,232.51392 L627,232.23169 L627.296,231.90992 L627.527,231.5459 L627.685,231.13184 L627.736,230.67261 L627.668,230.22535 L627.505,229.8108 L627.259,229.43067 L626.952,229.08863 L626.59,228.76734 L626.165,228.4563 L625.68,228.15357 L625.134,227.85352 L624.518,227.5525 L623.833,227.25074 L623.08,226.94654 L622.252,226.63843 L621.354,226.3296 C620.918,226.17945 620.444,226.41114 620.294,226.84669 C620.144,227.28223 620.375,227.75684 620.811,227.90699 L621.69,228.20972 L622.478,228.50269 L623.185,228.78858 L623.817,229.06714 L624.367,229.33594 L624.838,229.59498 L625.234,229.84156 L625.546,230.06983 L625.78,230.27735 L625.94,230.4546 L626.025,230.58375 L626.058,230.66822 L626.066,230.7107 L626.064,230.73145 L626.04,230.78736 L625.978,230.88428 L625.857,231.01368 L625.663,231.1731 L625.404,231.34766 L625.08,231.52906 L624.688,231.71558 L624.24,231.90333 L623.733,232.08961 L623.169,232.27466 L622.556,232.45704 L621.89,232.63624 L621.173,232.81226 L620.411,232.98487 L619.603,233.15333 L618.748,233.31812 L617.852,233.47925 L616.914,233.63624 L615.934,233.78907 L614.918,233.93848 L613.863,234.0835 L612.77,234.22461 L611.644,234.36207 L610.484,234.49537 L609.29,234.62476 L608.066,234.75049 L606.813,234.87232 L605.53,234.99 L604.207,235.10254 L602.885,235.21509 L601.512,235.31983 L600.139,235.42408 L598.72,235.52051 L597.3,235.61719 L595.844,235.70704 L594.387,235.79688 L592.894,235.87916 L591.401,235.96168 L589.878,236.03711 L588.354,236.11182 L586.807,236.18018 L585.26,236.24854 L583.692,236.31006 L582.125,236.37159 L580.542,236.42652 L578.958,236.48121 L577.366,236.5293 L575.773,236.5774 L574.175,236.61915 L572.576,236.66065 L570.978,236.69605 L569.38,236.73121 L567.786,236.76099 L566.192,236.78956 L564.607,236.81202 L563.023,236.83423 L561.454,236.85084 L559.885,236.86719 L558.334,236.87867 L556.783,236.8899 L555.257,236.89332 L553.731,236.89502 L552.236,236.89161 L550.74,236.88794 L549.269,236.88086 L547.816,236.87134 L546.383,236.85938 L544.97,236.84522 L543.58,236.83008 L542.213,236.81275 L540.87,236.79322 L539.554,236.77125 L538.265,236.74708 L537.002,236.7212 L535.771,236.69288 L534.571,236.66236 L533.4,236.63111 L532.265,236.60084 L531.164,236.56836 L530.097,236.53419 L529.069,236.49781 L528.079,236.45948 L526.788,236.4065 L525.443,236.34937 L524.045,236.28834 L522.601,236.22364 L521.105,236.15503 L519.56,236.08228 L517.969,236.00611 L516.329,235.92628 L514.64,235.84302 L512.908,235.75635 L511.13,235.66602 L509.304,235.57154 L507.438,235.47413 L505.526,235.37305 L503.57,235.2688 L501.574,235.16163 L500.554,235.10645 L499.535,235.05079 L498.494,234.99293 L497.453,234.93506 L496.393,234.87598 L495.334,234.81666 L494.253,234.75586 L493.173,234.69507 L492.072,234.63282 L490.972,234.57032 L489.853,234.50684 L488.734,234.44312 L487.596,234.37794 L486.458,234.31299 L485.301,234.24634 L484.143,234.17994 L482.968,234.11207 L481.794,234.04419 L480.6,233.9751 L479.407,233.90601 L478.195,233.83545 L476.983,233.7649 L475.756,233.69336 L474.528,233.62183 L473.282,233.54908 L472.036,233.47608 L470.774,233.40211 L469.511,233.32813 L468.232,233.25294 L466.954,233.17774 L465.659,233.10132 L464.364,233.02564 L463.053,232.94849 L461.741,232.87159 L460.416,232.79371 L459.09,232.71558 L457.748,232.63648 L456.407,232.55738 L455.05,232.47706 L453.693,232.39771 L452.323,232.31763 L450.952,232.23755 L449.567,232.15626 L448.182,232.0752 L446.782,231.99317 L445.383,231.91089 L443.97,231.82789 L442.558,231.74561 L441.132,231.66236 L439.706,231.57935 L438.266,231.49537 L436.827,231.41138 L435.37,231.32618 L433.913,231.24097 L432.456,231.15577 L430.999,231.07081 L429.517,230.98414 L428.035,230.89722 L426.553,230.81055 L425.071,230.72388 L423.565,230.63575 L422.06,230.54737 L420.555,230.45899 L419.049,230.37012 L417.524,230.28003 L415.998,230.18995 L414.473,230.09986 L412.947,230.00953 L411.401,229.91822 L409.855,229.82667 L408.308,229.73438 L406.762,229.64185 L405.196,229.54835 L403.63,229.4546 L402.064,229.36109 L400.499,229.26734 L398.916,229.17286 L397.334,229.07715 L395.752,228.98145 L394.169,228.8855 L392.57,228.78858 L390.971,228.6919 L389.371,228.59498 L387.772,228.49805 L386.157,228.4004 L384.542,228.30274 L382.927,228.20508 L381.312,228.10743 L379.684,228.00904 L378.056,227.91065 L376.428,227.81226 L374.8,227.71436 L373.159,227.61597 L371.518,227.51783 L369.877,227.41944 L368.236,227.32105 L366.583,227.22242 L364.931,227.12354 L363.278,227.02588 L361.625,226.92847 L359.963,226.83082 L358.301,226.73316 L356.638,226.6355 L354.976,226.53785 L353.305,226.4397 L351.634,226.34229 L349.962,226.24488 L348.291,226.14722 L346.611,226.04957 L344.932,225.95191 L343.253,225.8545 L341.574,225.75684 L339.887,225.65919 L338.199,225.56177 L336.512,225.46436 L334.825,225.3667 L333.137,225.26929 L331.45,225.17164 L329.762,225.07374 L328.075,224.9751 L326.379,224.87696 L324.684,224.77881 L322.989,224.68067 L321.293,224.58277 L319.598,224.48462 L317.903,224.38526 L316.208,224.28614 L314.512,224.18702 L312.814,224.08838 L311.117,223.99 L309.419,223.89161 L307.722,223.79249 L306.025,223.6919 L304.327,223.59107 L302.63,223.49048 L300.933,223.3899 L299.236,223.29004 L297.54,223.19019 L295.845,223.08961 L294.148,222.98902 L292.455,222.88892 L290.762,222.78907 L289.068,222.68897 L287.375,222.58887 L285.685,222.48975 L283.996,222.39112 L282.307,222.29273 L280.617,222.1941 L278.932,222.0962 L277.248,221.99854 L275.564,221.90088 L273.879,221.80372 L272.2,221.7085 L270.523,221.61329 L268.845,221.51807 L267.166,221.42261 L265.496,221.32862 L263.826,221.23462 L262.156,221.14185 L260.485,221.04957 L258.823,220.95875 L257.162,220.86768 L255.5,220.77662 L253.838,220.68555 L252.186,220.59595 L250.535,220.50757 L248.884,220.41919 L247.232,220.33082 L245.592,220.2439 L243.953,220.15723 L242.313,220.07032 L240.673,219.9834 L239.045,219.89795 L237.418,219.81251 L235.791,219.72706 L234.163,219.64161 L232.549,219.55787 L230.936,219.47413 L229.323,219.39014 L227.71,219.30469 L226.112,219.22095 L224.515,219.13721 L222.918,219.05372 L221.32,218.96998 L219.738,218.88819 L218.157,218.80616 L216.575,218.72266 L214.993,218.63917 L213.429,218.55787 L211.866,218.47632 L210.303,218.39502 L208.739,218.31373 L207.195,218.23438 L205.651,218.15357 L204.108,218.07227 L202.564,217.99097 L201.034,217.91114 L199.505,217.8313 L197.986,217.75294 L196.468,217.67432 L194.96,217.59717 L193.452,217.52027 L191.955,217.44459 L190.458,217.36866 L188.973,217.29419 L187.487,217.21973 L186.014,217.14649 L184.541,217.07349 L183.079,217.00294 L181.617,216.93262 L180.168,216.86378 L178.718,216.79493 L177.282,216.72754 L175.846,216.66016 L174.422,216.59376 L172.998,216.52784 L171.588,216.46509 L170.177,216.40235 L168.781,216.34107 L167.385,216.27979 L166.002,216.21973 L164.618,216.15992 L163.25,216.10132 L161.882,216.04297 L160.528,215.98585 L159.175,215.92847 L157.836,215.87281 L156.496,215.81714 L155.173,215.76294 L153.849,215.70875 L152.541,215.65626 L151.234,215.60377 L149.941,215.55005 L148.648,215.49366 L147.373,215.43873 L146.097,215.38404 L144.838,215.33106 L143.579,215.27808 L142.336,215.22681 L141.093,215.1753 L139.867,215.12574 L138.641,215.07886 L137.434,215.03589 L136.226,214.99317 L135.035,214.95191 L133.844,214.91089 L132.672,214.87159 L131.499,214.83228 L130.346,214.79493 L129.192,214.75733 L128.056,214.72169 L126.92,214.68751 L125.804,214.65552 L124.688,214.62354 L123.591,214.59327 L122.495,214.56324 L121.417,214.53467 L120.339,214.50635 L119.281,214.47999 L118.224,214.45362 L117.187,214.42945 L116.15,214.40552 L115.133,214.38379 L114.116,214.36207 L112.124,214.32276 L110.177,214.2876 L108.269,214.25635 L106.407,214.2295 L104.59,214.20728 L102.815,214.1897 L101.087,214.17652 L99.407,214.16797 L97.771,214.16358 L96.183,214.16358 L94.645,214.16846 L93.152,214.17774 L91.71,214.1919 L90.319,214.2107 L88.975,214.23414 L87.683,214.26246 L86.445,214.2959 L85.255,214.33399 L84.119,214.3772 L83.037,214.42579 L82.006,214.47901 L81.029,214.53785 L80.109,214.60206 L79.239,214.67164 L78.424,214.74732 L77.666,214.82886 L76.958,214.91651 L76.304,215.01148 L75.704,215.11426 L75.151,215.22559 L74.641,215.34961 L74.176,215.48902 L73.737,215.65333 L73.306,215.86744 L72.879,216.16822 L72.45,216.64747 L72.143,217.42701 L72.191,218.27515 L72.491,218.91944 L72.874,219.35767 L73.262,219.66431 L73.666,219.91675 L74.112,220.146 L74.569,220.34791 C75.398,220.71436 76.366,220.33961 76.732,219.51099 C77.099,218.68262 76.724,217.71387 75.896,217.34766 Z" id="Fill-76"></path>
            <path d="M87.2,1.9327 L87.21,1.8507 L87.188,1.9893 L87.188,1.9891 L87.188,1.9889 L87.188,1.9885 L87.188,1.9879 L87.188,1.9873 L87.189,1.9865 L87.189,1.9855 L87.189,1.9845 L87.189,1.9833 L87.189,1.9819 L87.19,1.9805 L87.19,1.9789 L87.19,1.9771 L87.191,1.9752 L87.191,1.9733 L87.189,1.9816 L87.185,2.0035 L87.179,2.0306 L87.17,2.0646 L87.158,2.1077 L87.14,2.1638 L87.113,2.239 L87.067,2.3436 L86.985,2.4949 L86.819,2.7199 L86.45,3.0321 L85.701,3.2732 L84.841,3.0972 L84.361,2.7258 L84.158,2.441 L84.068,2.2528 L84.042,2.1841 L84.042,2.1848 L84.042,2.1856 L84.043,2.1863 L84.043,2.1869 L84.043,2.1874 L84.043,2.1879 L84.043,2.1884 L84.043,2.1887 L84.044,2.1891 L84.044,2.1895 L84.044,2.1897 L84.044,2.1898 L84.044,2.1901 L84.044,2.1901 L84.044,2.1902 L83.952,1.718 L83.953,1.7286 L83.953,1.7909 L83.951,1.9214 L83.947,2.1006 L83.94,2.3283 L83.932,2.6025 L83.921,2.9183 L83.909,3.2784 L83.895,3.6825 L83.878,4.1259 L83.86,4.6118 L83.84,5.1399 L83.819,5.7059 L83.795,6.3131 L83.77,6.9609 L83.744,7.6454 L83.716,8.3696 L83.686,9.1332 L83.656,9.932 L83.623,10.7694 L83.59,11.6447 L83.555,12.5541 L83.519,13.5005 L83.481,14.4835 L83.443,15.4995 L83.404,16.5513 L83.364,17.6383 L83.323,18.757 L83.281,19.91 L83.238,21.0971 L83.196,22.3146 L83.152,23.5652 L83.108,24.8483 L83.064,26.1608 L83.019,27.505 L82.974,28.8805 L82.93,30.2839 L82.886,31.718 L82.84,33.1819 L82.795,34.6726 L82.753,36.1925 L82.711,37.7411 L82.669,39.3152 L82.627,40.9171 L82.591,42.5465 L82.56,44.2003 L82.53,45.8806 L82.5,47.5869 L82.463,49.3162 L82.421,51.0703 L82.379,52.8491 L82.338,54.6499 L82.296,56.4745 L82.255,58.3223 L82.215,60.1908 L82.175,62.0819 L82.14,63.9951 L82.106,65.9373 L82.072,67.8794 L82.043,69.863 L82.014,71.8464 L82.001,72.8586 L81.988,73.8699 L81.974,74.8809 L81.961,75.8928 L81.95,76.9219 L81.938,77.9502 L81.926,78.9783 L81.914,80.0076 L81.903,81.0547 L81.891,82.1008 L81.878,83.147 L81.865,84.1943 L81.853,85.2583 L81.841,86.3215 L81.829,87.3848 L81.817,88.449 L81.804,89.5278 L81.791,90.6057 L81.779,91.6836 L81.766,92.7625 L81.754,93.8567 L81.743,94.95 L81.73,96.0432 L81.717,97.1375 L81.705,98.2461 L81.693,99.3535 L81.681,100.4612 L81.669,101.5698 L81.658,102.6907 L81.648,103.8106 L81.637,104.9304 L81.626,106.0513 L81.617,107.1851 L81.608,108.3176 L81.6,109.4502 L81.593,110.584 L81.587,111.7293 L81.581,112.8738 L81.575,114.0181 L81.569,115.1633 L81.567,116.3186 L81.565,117.4727 L81.563,118.627 L81.561,119.7822 L81.561,120.9478 L81.561,122.1118 L81.563,123.2761 L81.564,124.4417 L81.568,125.616 L81.572,126.7893 L81.575,127.9627 L81.579,129.137 L81.586,130.3189 L81.592,131.4995 L81.598,132.6802 L81.605,133.8621 L81.613,135.0515 L81.621,136.2395 L81.629,137.4275 L81.637,138.6169 L81.647,139.8127 L81.657,141.0071 L81.667,142.2017 L81.674,143.3972 L81.683,144.5979 L81.693,145.7974 L81.703,146.9968 L81.712,148.1978 L81.724,149.4031 L81.735,150.6074 L81.745,151.8115 L81.756,153.0171 L81.77,154.2263 L81.783,155.4343 L81.796,156.6423 L81.808,157.8516 L81.823,159.0635 L81.838,160.2739 L81.853,161.4846 L81.868,162.6965 L81.886,163.9106 L81.904,165.1233 L81.921,166.3359 L81.939,167.5501 L81.96,168.7651 L81.982,169.9788 L82.003,171.1924 L82.025,172.4082 L82.05,173.624 L82.076,174.8377 L82.102,176.0513 L82.13,177.2649 L82.157,178.4785 L82.185,179.6921 L82.212,180.9055 L82.24,182.1226 L82.274,183.3364 L82.309,184.5469 L82.344,185.7576 L82.379,186.9683 L82.414,188.1787 L82.449,189.3894 L82.484,190.6001 L82.519,191.814 L82.561,193.0212 L82.602,194.2251 L82.644,195.429 L82.685,196.6328 L82.725,197.83668 L82.765,199.04053 L82.805,200.24415 L82.846,201.45044 L82.891,202.65015 L82.935,203.84766 L82.978,205.04493 L83.022,206.2439 L83.07,207.43726 L83.117,208.62867 L83.164,209.82007 L83.211,211.01343 L83.262,212.19971 L83.312,213.38428 L83.363,214.56885 L83.413,215.75513 L83.468,216.93433 L83.522,218.11182 L83.576,219.28931 L83.63,220.46876 L83.689,221.63965 L83.747,222.8086 L83.806,223.9773 L83.866,225.14844 L83.929,226.30982 L83.993,227.469 L84.057,228.62818 L84.121,229.78956 L84.19,230.94117 L84.259,232.09083 L84.327,233.24048 L84.397,234.39258 L84.47,235.53345 L84.543,236.67164 L84.617,237.81006 L84.691,238.95093 L84.77,240.07935 L84.848,241.20557 L84.927,242.33155 L85.006,243.45997 L85.089,244.57642 L85.171,245.69068 L85.254,246.80494 L85.337,247.92164 L85.425,249.02466 L85.512,250.12476 L85.6,251.2251 L85.687,252.32813 L85.78,253.41627 L85.872,254.50147 L85.964,255.58692 L86.055,256.67481 L86.15,257.74878 L86.245,258.81983 L86.34,259.89112 L86.435,260.96509 L86.535,262.02271 L86.634,263.0774 L86.733,264.13209 L86.832,265.18995 L86.937,266.23023 L87.041,267.26734 L87.145,268.30445 L87.249,269.34449 L87.357,270.36793 L87.465,271.38843 L87.574,272.40894 L87.682,273.43287 L87.796,274.43751 L87.909,275.43873 L88.024,276.4397 L88.144,277.44532 L88.393,279.40821 L88.643,281.37232 L88.903,283.2981 L89.166,285.22388 L89.439,287.10572 L89.712,288.987798 L89.991,290.824957 L90.267,292.661138 L90.552,294.467291 L90.841,296.249029 L91.135,298.006109 L91.433,299.740728 L91.738,301.450201 L92.048,303.13355 L92.363,304.793462 L92.684,306.427007 L93.012,308.03321 L93.345,309.61451 L93.683,311.16822 L94.028,312.69336 L94.379,314.19239 L94.736,315.66236 L95.099,317.10279 L95.469,318.51612 L95.845,319.89918 L96.227,321.25098 L96.616,322.57447 L97.012,323.8667 L97.415,325.12623 L97.825,326.35621 L98.242,327.55396 L98.666,328.71778 L99.097,329.85084 L99.535,330.95044 L99.981,332.0149 L100.435,333.04761 L100.896,334.04566 L101.362,334.99976 C101.564,335.41382 102.063,335.58594 102.477,335.38404 C102.891,335.18213 103.063,334.68262 102.861,334.26856 L102.404,333.33008 L101.957,332.36255 L101.516,331.35718 L101.081,330.31885 L100.653,329.24488 L100.232,328.13502 L99.816,326.99341 L99.407,325.81788 L99.005,324.60767 L98.608,323.36695 L98.219,322.09376 L97.835,320.7876 L97.458,319.45215 L97.087,318.08521 L96.722,316.68702 L96.363,315.26075 L96.012,313.8042 L95.667,312.31788 L95.328,310.80469 L94.995,309.26294 L94.669,307.69239 L94.349,306.096441 L94.035,304.47315 L93.728,302.822759 L93.426,301.147955 L93.131,299.447271 L92.842,297.720709 L92.559,295.971197 L92.284,294.196783 L92.015,292.398931 L91.753,290.566656 L91.494,288.735357 L91.253,286.85743 L91.012,284.97925 L90.783,283.05762 L90.55,281.1355 L90.327,279.17554 L90.104,277.21436 L89.999,276.21753 L89.888,275.21607 L89.776,274.21461 L89.665,273.2168 L89.558,272.19996 L89.452,271.17945 L89.345,270.1587 L89.239,269.14136 L89.137,268.10694 L89.036,267.06959 L88.934,266.03248 L88.833,264.9983 L88.737,263.94654 L88.641,262.89161 L88.545,261.83668 L88.45,260.78492 L88.36,259.71631 L88.269,258.64478 L88.179,257.57325 L88.088,256.5044 L88.003,255.42115 L87.919,254.33521 L87.835,253.24927 L87.751,252.16602 L87.671,251.06812 L87.592,249.96729 L87.512,248.86646 L87.433,247.76832 L87.359,246.65626 L87.284,245.54151 L87.209,244.42676 L87.135,243.31421 L87.064,242.18995 L86.994,241.06348 L86.923,239.93677 L86.852,238.81275 L86.786,237.67652 L86.72,236.5376 L86.653,235.39893 L86.586,234.26246 L86.524,233.115 L86.461,231.96485 L86.399,230.81495 L86.336,229.667 L86.277,228.50977 L86.216,227.35035 L86.156,226.19092 L86.096,225.03394 L86.04,223.86719 L85.984,222.69825 L85.927,221.5293 L85.87,220.36255 L85.817,219.18726 L85.764,218.00977 L85.711,216.83228 L85.658,215.6565 L85.609,214.47388 L85.559,213.28931 L85.51,212.10474 L85.46,210.92237 L85.415,209.73292 L85.369,208.54127 L85.325,207.34986 L85.28,206.16041 L85.239,204.96485 L85.198,203.76734 L85.157,202.57007 L85.117,201.37501 L85.083,200.17335 L85.048,198.96949 L85.013,197.76539 L84.979,196.5613 L84.944,195.3574 L84.911,194.1533 L84.878,192.9492 L84.845,191.7485 L84.819,190.5413 L84.793,189.3303 L84.767,188.1194 L84.741,186.9087 L84.715,185.6978 L84.688,184.4871 L84.662,183.2761 L84.636,182.0686 L84.616,180.8582 L84.595,179.6443 L84.574,178.4307 L84.554,177.2168 L84.533,176.0032 L84.511,174.7896 L84.489,173.5757 L84.467,172.3643 L84.449,171.1526 L84.43,169.9387 L84.412,168.7251 L84.393,167.5129 L84.377,166.3018 L84.362,165.0891 L84.346,163.8765 L84.33,162.6653 L84.317,161.4561 L84.304,160.2454 L84.291,159.0349 L84.277,157.8254 L84.267,156.6187 L84.256,155.4109 L84.247,154.2029 L84.237,152.9961 L84.23,151.7932 L84.223,150.5891 L84.216,149.3848 L84.21,148.1819 L84.207,146.9836 L84.204,145.7842 L84.201,144.5845 L84.198,143.3862 L84.197,142.1929 L84.199,140.9983 L84.2,139.8037 L84.202,138.6106 L84.206,137.4238 L84.21,136.2356 L84.214,135.0476 L84.22,133.8606 L84.227,132.6812 L84.234,131.5005 L84.241,130.3198 L84.249,129.1401 L84.257,127.968 L84.266,126.7947 L84.274,125.6216 L84.283,124.4495 L84.294,123.2866 L84.304,122.1223 L84.313,120.9583 L84.322,119.7952 L84.333,118.6421 L84.343,117.488 L84.354,116.334 L84.364,115.1809 L84.374,114.0376 L84.385,112.8933 L84.395,111.749 L84.405,110.606 L84.417,109.4744 L84.428,108.3418 L84.439,107.2092 L84.449,106.0779 L84.461,104.959 L84.473,103.8391 L84.486,102.7192 L84.498,101.6003 L84.511,100.4939 L84.525,99.3862 L84.538,98.2786 L84.552,97.1721 L84.567,96.0798 L84.583,94.9868 L84.599,93.8936 L84.616,92.8015 L84.635,91.7246 L84.653,90.6467 L84.671,89.5691 L84.69,88.4919 L84.711,87.4299 L84.732,86.3667 L84.753,85.3037 L84.774,84.2417 L84.797,83.1965 L84.819,82.1506 L84.843,81.1045 L84.868,80.0596 L84.893,79.0325 L84.919,78.0046 L84.944,76.9766 L84.97,75.9495 L84.996,74.9395 L85.022,73.9287 L85.048,72.9177 L85.074,71.9082 L85.127,69.9265 L85.179,67.9451 L85.23,66.0051 L85.28,64.0647 L85.331,62.1539 L85.379,60.2648 L85.427,58.3981 L85.475,56.552 L85.523,54.7293 L85.573,52.9303 L85.622,51.1533 L85.672,49.4009 L85.727,47.6737 L85.79,45.9699 L85.852,44.2919 L85.914,42.6404 L85.971,41.0131 L86.021,39.413 L86.072,37.8405 L86.122,36.2936 L86.171,34.7753 L86.217,33.2859 L86.263,31.8234 L86.308,30.3906 L86.353,28.9884 L86.397,27.6141 L86.439,26.271 L86.481,24.9596 L86.522,23.6775 L86.563,22.4279 L86.602,21.2113 L86.64,20.0252 L86.678,18.8728 L86.714,17.7549 L86.75,16.6686 L86.785,15.6176 L86.819,14.6022 L86.852,13.6196 L86.883,12.6736 L86.914,11.7645 L86.944,10.8897 L86.972,10.0525 L86.999,9.2537 L87.025,8.4901 L87.05,7.7658 L87.074,7.0809 L87.096,6.4325 L87.116,5.8246 L87.135,5.2575 L87.153,4.7279 L87.169,4.24 L87.183,3.7943 L87.196,3.387 L87.207,3.0222 L87.216,2.7006 L87.224,2.4177 L87.229,2.1771 L87.233,1.9783 L87.235,1.8134 L87.234,1.6721 L87.23,1.5718 L87.138,1.0996 L87.138,1.0996 L87.138,1.0995 L87.138,1.0992 L87.138,1.0991 L87.138,1.0989 L87.138,1.0985 L87.138,1.0982 L87.138,1.0978 L87.137,1.0973 L87.137,1.0968 L87.137,1.0963 L87.137,1.0957 L87.137,1.095 L87.137,1.0944 L87.136,1.0935 L87.11,1.0232 L87.019,0.8337 L86.815,0.5481 L86.335,0.1763 L85.474,0 L84.724,0.2415 L84.354,0.5543 L84.188,0.7802 L84.105,0.9327 L84.059,1.0391 L84.031,1.1165 L84.012,1.1749 L83.999,1.221 L83.99,1.2579 L83.983,1.2886 L83.977,1.3145 L83.974,1.3272 L83.974,1.3292 L83.974,1.3311 L83.973,1.3328 L83.973,1.3344 L83.973,1.3358 L83.972,1.3372 L83.972,1.3384 L83.972,1.3395 L83.972,1.3405 L83.972,1.3412 L83.971,1.3419 L83.971,1.3424 L83.971,1.3429 L83.971,1.3431 L83.971,1.3433 L83.95,1.4818 L83.94,1.5638 C83.839,2.464 84.486,3.2763 85.386,3.3781 C86.286,3.48 87.098,2.8329 87.2,1.9327 Z" id="Fill-77"></path>
            <path d="M11.498,60.1093 L10.778,59.9454 L10.096,59.7846 L9.448,59.6246 L8.828,59.4662 L8.242,59.3093 L7.687,59.1537 L7.162,58.9998 L6.67,58.8479 L6.21,58.6978 L5.779,58.5497 L5.382,58.4047 L5.016,58.2621 L4.681,58.1228 L4.38,57.9884 L4.112,57.8582 L3.875,57.7338 L3.676,57.6187 L3.511,57.5117 L3.378,57.4172 L3.288,57.3427 L3.229,57.2863 L3.203,57.2572 L3.212,57.2703 L3.237,57.3165 L3.268,57.4034 L3.293,57.5369 L3.296,57.6735 L3.276,57.802 L3.241,57.9135 L3.212,57.9745 L3.197,57.9963 L3.204,57.9895 L3.247,57.9486 L3.321,57.8867 L3.424,57.8115 L3.534,57.7399 L3.931,57.5182 L4.408,57.2975 L4.997,57.0643 L5.679,56.8257 L6.452,56.5853 L7.319,56.3436 L8.265,56.1022 L9.293,55.8623 L10.402,55.6239 L11.582,55.3871 L12.836,55.1528 L14.164,54.9209 L15.555,54.6912 L17.014,54.4641 L18.539,54.2396 L20.122,54.0173 L21.765,53.798 L23.469,53.5812 L25.224,53.3669 L27.033,53.1554 L28.896,52.9467 L30.805,52.7404 L32.764,52.5361 L33.765,52.4354 L34.767,52.3345 L35.79,52.2347 L36.812,52.1351 L37.856,52.0369 L38.9,51.9385 L39.964,51.8416 L41.028,51.7445 L42.11,51.6487 L43.191,51.553 L44.291,51.4585 L45.391,51.3639 L46.508,51.27 L47.626,51.1762 L48.757,51.0835 L49.889,50.9907 L51.036,50.8994 L52.183,50.808 L53.345,50.7179 L54.506,50.6277 L55.679,50.5387 L56.853,50.4497 L58.038,50.3619 L59.224,50.2739 L60.42,50.186 L61.616,50.0982 L62.826,50.012 L64.037,49.9257 L65.249,49.8394 L66.458,49.7532 L67.683,49.6694 L68.911,49.5855 L70.138,49.5016 L71.364,49.4179 L72.602,49.3364 L73.841,49.2516 L75.081,49.166 L76.319,49.0807 L77.564,48.9973 L78.811,48.9139 L80.058,48.8306 L81.304,48.7472 L82.554,48.6663 L83.805,48.5851 L85.056,48.504 L86.306,48.423 L87.557,48.3475 L88.808,48.2731 L90.06,48.1986 L91.311,48.1243 L92.558,48.0519 L93.806,47.9795 L95.054,47.9071 L96.302,47.8348 L97.541,47.7647 L98.782,47.6945 L100.023,47.6244 L101.262,47.5543 L102.49,47.4867 L103.719,47.419 L104.948,47.3511 L106.176,47.2835 L107.389,47.2177 L108.604,47.1519 L109.818,47.0861 L111.032,47.0203 L112.226,46.9567 L113.42,46.8929 L114.615,46.8289 L115.809,46.7639 L116.98,46.7009 L118.15,46.6379 L119.321,46.5751 L120.491,46.5121 L121.643,46.4506 L122.795,46.3892 L123.932,46.3286 L125.07,46.2682 L126.191,46.2087 L127.312,46.1492 L128.418,46.0905 L129.524,46.0308 L130.612,45.9723 L131.7,45.9137 L132.769,45.8561 L133.838,45.7986 L134.889,45.7419 L135.94,45.6853 L136.971,45.6296 L138.001,45.574 L139.009,45.5194 L140.017,45.4647 L141.992,45.3572 L143.92,45.2513 L145.798,45.1475 L147.628,45.0453 L149.406,44.9451 L151.127,44.8467 L152.796,44.7501 L154.405,44.6555 L155.951,44.5629 L157.021,44.5012 L158.091,44.4395 L159.162,44.3777 L160.232,44.3159 L161.303,44.2542 L162.373,44.1924 L163.443,44.1307 L164.511,44.0691 L165.579,44.0115 L166.649,43.9536 L167.72,43.8959 L168.79,43.838 L169.861,43.7804 L170.931,43.7235 L172.002,43.6666 L173.07,43.6099 L174.138,43.557 L175.209,43.5039 L176.279,43.4508 L177.35,43.3978 L178.421,43.3447 L179.491,43.2918 L180.562,43.2387 L181.63,43.1857 L182.699,43.1362 L183.77,43.0868 L184.84,43.0381 L185.911,42.9895 L186.982,42.9408 L188.053,42.8921 L189.124,42.8434 L190.192,42.7948 L191.26,42.7499 L192.331,42.7048 L193.402,42.6599 L194.473,42.6149 L195.544,42.5698 L196.615,42.5248 L197.686,42.4797 L198.754,42.4348 L199.823,42.3936 L200.894,42.3521 L201.965,42.3107 L203.036,42.2692 L204.107,42.2278 L205.178,42.1863 L206.249,42.1449 L207.318,42.1035 L208.387,42.0653 L209.458,42.027 L210.529,41.9887 L211.6,41.9501 L212.671,41.9111 L213.742,41.8721 L214.813,41.8331 L215.882,41.7943 L216.951,41.7587 L218.022,41.723 L219.093,41.6874 L220.164,41.6519 L221.235,41.6162 L222.306,41.5806 L223.377,41.5449 L224.447,41.5094 L225.516,41.4766 L226.587,41.4431 L227.658,41.4098 L228.729,41.3765 L229.8,41.343 L230.871,41.3097 L231.943,41.2763 L233.012,41.2429 L234.081,41.2124 L235.153,41.1819 L236.224,41.1514 L237.295,41.1209 L238.366,41.0903 L239.438,41.0593 L240.509,41.0281 L241.578,40.9968 L242.648,40.9686 L243.719,40.9404 L244.79,40.9122 L245.861,40.8839 L246.933,40.8557 L248.004,40.8274 L249.075,40.7992 L250.145,40.771 L251.214,40.7457 L252.286,40.7203 L253.357,40.6948 L254.429,40.6693 L255.5,40.6437 L256.571,40.618 L257.643,40.5924 L258.712,40.5669 L259.781,40.545 L260.852,40.5233 L261.924,40.5015 L262.995,40.4796 L264.067,40.4579 L265.138,40.436 L266.21,40.4142 L267.281,40.3927 L268.352,40.3713 L269.424,40.35 L270.495,40.3286 L271.567,40.3073 L272.638,40.2859 L273.71,40.2645 L274.781,40.2433 L275.85,40.2219 L276.918,40.2058 L277.99,40.1897 L279.061,40.1736 L280.133,40.1575 L281.204,40.1422 L282.276,40.1273 L283.348,40.1123 L284.419,40.0973 L285.491,40.0824 L286.563,40.0674 L287.634,40.0525 L288.706,40.0375 L289.777,40.0226 L290.849,40.0076 L291.92,39.9926 L292.989,39.9777 L294.058,39.9675 L295.13,39.9578 L296.202,39.9481 L297.273,39.9386 L298.345,39.929 L299.417,39.9193 L300.488,39.9097 L301.56,39.9 L302.632,39.8905 L303.703,39.8809 L304.775,39.8712 L305.847,39.8616 L306.918,39.8519 L307.99,39.8424 L309.062,39.8331 L310.131,39.8241 L311.201,39.8189 L312.273,39.8137 L313.345,39.8086 L314.416,39.8035 L315.488,39.7983 L316.56,39.7932 L317.632,39.7881 L318.703,39.783 L319.775,39.7777 L320.847,39.7726 L321.919,39.7675 L322.991,39.7622 L324.062,39.7571 L325.134,39.7518 L326.206,39.7466 L327.275,39.7413 L328.345,39.7401 L329.417,39.7389 L330.488,39.7377 L331.56,39.7365 L332.632,39.7352 L333.704,39.734 L334.776,39.7328 L335.847,39.7316 L336.919,39.7301 L337.991,39.7285 L339.063,39.7271 L340.135,39.7256 L341.207,39.724 L342.279,39.7225 L343.35,39.7211 L344.42,39.7196 L345.49,39.7216 L346.562,39.7236 L347.634,39.7257 L348.706,39.7278 L349.778,39.7297 L350.849,39.7311 L351.921,39.7323 L352.993,39.7336 L354.065,39.7349 L355.137,39.7362 L356.209,39.7374 L357.281,39.7388 L358.353,39.74 L359.424,39.7413 L360.496,39.7426 L361.566,39.7439 L362.637,39.7481 L363.709,39.7521 L364.781,39.7559 L365.853,39.7596 L366.924,39.7634 L367.996,39.7672 L369.068,39.771 L370.14,39.7748 L371.212,39.7784 L372.284,39.7822 L373.356,39.786 L374.428,39.7898 L375.5,39.7936 L376.572,39.7974 L377.643,39.8012 L378.714,39.8048 L379.784,39.8114 L380.856,39.8179 L381.928,39.8245 L383,39.8309 L384.072,39.8375 L385.144,39.844 L386.216,39.8506 L387.288,39.8571 L388.36,39.8635 L389.431,39.8701 L390.503,39.8766 L391.575,39.8833 L392.647,39.8905 L393.719,39.8977 L394.791,39.905 L395.862,39.9122 L396.932,39.9216 L398.004,39.9312 L399.076,39.9407 L400.148,39.9502 L401.22,39.9597 L402.292,39.9692 L403.364,39.9788 L404.436,39.9883 L405.508,39.9981 L406.579,40.0082 L407.651,40.0182 L408.723,40.0283 L409.795,40.0385 L410.867,40.0486 L411.939,40.0586 L413.01,40.0687 L414.081,40.0806 L415.153,40.0924 L416.225,40.1043 L417.296,40.1161 L418.368,40.1279 L419.44,40.1399 L420.512,40.1521 L421.584,40.1643 L422.656,40.1765 L423.728,40.1887 L424.8,40.2009 L425.871,40.2133 L426.943,40.2255 L428.015,40.2377 L429.087,40.2499 L430.158,40.2621 L431.229,40.2758 L432.301,40.2896 L433.373,40.3032 L434.445,40.3169 L435.516,40.3307 L436.588,40.3444 L437.66,40.358 L438.732,40.3717 L439.804,40.3854 L440.876,40.3992 L441.947,40.4128 L443.019,40.4265 L444.091,40.4402 L445.163,40.454 L446.235,40.4677 L447.306,40.4811 L448.377,40.4954 L449.449,40.5096 L450.521,40.5238 L451.593,40.5381 L452.664,40.5524 L453.736,40.5667 L454.808,40.5809 L455.879,40.5952 L456.951,40.6095 L458.023,40.6238 L459.095,40.6381 L460.167,40.6523 L461.238,40.6661 L462.31,40.6798 L463.382,40.6935 L464.453,40.707 L465.525,40.7214 L466.596,40.7357 L467.668,40.7501 L468.74,40.7645 L469.811,40.7788 L470.883,40.7932 L471.955,40.8076 L473.026,40.8219 L474.098,40.8363 L475.17,40.8505 L476.241,40.8644 L477.313,40.8784 L478.385,40.8923 L479.456,40.9064 L480.528,40.9204 L481.6,40.9343 L482.671,40.9484 L483.743,40.9623 L484.815,40.9763 L485.887,40.9902 L486.958,41.0043 L488.03,41.0183 L489.101,41.0322 L490.173,41.046 L491.245,41.0599 L492.316,41.0739 L493.388,41.0877 L494.46,41.1016 L495.532,41.1155 L496.603,41.1293 L497.675,41.1432 L498.747,41.1571 L499.818,41.1708 L500.89,41.1843 L501.961,41.198 L503.033,41.2117 L504.104,41.2252 L505.176,41.2389 L506.247,41.2526 L507.318,41.2661 L508.39,41.2798 L509.461,41.2935 L510.533,41.307 L511.604,41.3207 L512.676,41.3344 L513.747,41.348 L514.819,41.3616 L515.89,41.3752 L516.962,41.3897 L518.033,41.4042 L519.105,41.4186 L520.176,41.4331 L521.247,41.4476 L522.319,41.4622 L523.39,41.4766 L524.462,41.4911 L525.533,41.5056 L526.605,41.5201 L527.676,41.5346 L528.748,41.5491 L529.819,41.5636 L530.89,41.5785 L531.962,41.5934 L533.034,41.6083 L534.106,41.6211 L535.178,41.6339 L536.249,41.6467 L537.32,41.6597 L538.391,41.6725 L539.462,41.6853 L540.533,41.6981 L541.605,41.7109 L542.676,41.7238 L543.747,41.7367 L544.818,41.7498 L545.889,41.7628 L546.96,41.776 L548.031,41.7891 L549.103,41.8023 L550.174,41.8153 L551.245,41.8284 L552.316,41.8416 L553.387,41.8546 L554.458,41.8678 L555.529,41.8809 L556.601,41.8939 L557.672,41.907 L558.743,41.917 L559.814,41.9271 L560.885,41.9371 L561.956,41.9473 L563.028,41.9573 L564.099,41.9674 L565.17,41.9775 L566.241,41.9876 L567.314,41.9977 L568.395,42.0035 L569.519,42.0034 L570.685,41.9974 L571.887,41.9861 L573.129,41.9686 L574.408,41.9458 L575.72,41.9182 L577.067,41.8859 L578.447,41.8486 L579.856,41.8073 L581.297,41.7614 L582.766,41.7112 L584.261,41.6574 L585.783,41.6005 L587.33,41.5422 L588.898,41.4808 L590.489,41.416 L592.101,41.348 L593.738,41.2759 L595.376,41.2039 L597.048,41.1263 L598.72,41.0488 L600.419,40.9674 L602.118,40.8864 L603.838,40.8016 L605.558,40.7168 L607.295,40.6287 L609.031,40.5404 L610.779,40.4496 L612.527,40.3586 L614.279,40.2662 L616.032,40.1742 L617.785,40.0806 L619.538,39.9869 L621.285,39.8926 L623.032,39.7982 L624.761,39.704 L626.49,39.6097 L628.219,39.5159 L629.948,39.4221 L631.633,39.3307 L633.318,39.2393 L635.003,39.1477 L636.688,39.0563 L638.304,38.97 L639.921,38.8837 L641.537,38.7976 L643.153,38.7119 L644.71,38.6311 L646.267,38.5503 L647.774,38.474 L649.281,38.3977 L650.731,38.3265 L652.181,38.2553 L653.589,38.188 L654.965,38.1238 L656.307,38.0627 L657.617,38.0048 L658.89,37.9503 L660.125,37.8997 L661.325,37.8524 L662.483,37.8092 L663.599,37.7703 L664.675,37.7354 L665.705,37.7048 L666.689,37.6791 L667.629,37.6577 L668.52,37.6414 L669.359,37.6301 L670.15,37.6238 L670.887,37.6229 L671.568,37.6277 L672.196,37.6376 L672.765,37.6533 L673.272,37.6751 L673.719,37.7019 L674.098,37.7343 L674.405,37.7714 L674.637,37.8101 L674.766,37.8419 L674.762,37.8377 L674.732,37.8283 L674.434,37.3389 L674.434,37.34 L674.435,37.3424 L674.436,37.346 L674.437,37.3506 L674.438,37.3566 L674.439,37.3637 L674.441,37.3718 L674.435,37.3331 L674.428,37.2451 L674.431,37.1589 L674.443,37.078 L674.462,37.005 L674.486,36.9414 L674.511,36.8872 L674.537,36.8423 L674.546,36.8281 L674.54,36.8373 L674.535,36.8451 L674.531,36.8516 L674.527,36.8568 L674.524,36.8607 L674.523,36.8633 L674.522,36.8645 L674.718,36.6616 L674.665,36.7054 L674.558,36.7577 L674.336,36.8436 L674.027,36.9461 L673.63,37.061 L673.145,37.1873 L672.582,37.3229 L671.934,37.4683 L671.199,37.6234 L670.384,37.7874 L669.481,37.9611 L668.486,38.145 C668.033,38.2288 667.734,38.6639 667.817,39.1169 C667.901,39.57 668.336,39.8693 668.789,39.7856 L669.79,39.6007 L670.706,39.4248 L671.535,39.2579 L672.288,39.0992 L672.959,38.9489 L673.55,38.8066 L674.071,38.671 L674.519,38.5413 L674.897,38.4159 L675.223,38.2891 L675.511,38.1449 L675.705,38.0082 L675.901,37.8052 L675.902,37.804 L675.904,37.8013 L675.906,37.7974 L675.91,37.7922 L675.914,37.7858 L675.919,37.778 L675.926,37.7688 L675.949,37.7339 L675.987,37.6683 L676.022,37.5939 L676.053,37.5101 L676.078,37.4174 L676.097,37.3169 L676.097,37.2113 L676.088,37.1041 L676.078,37.0465 L676.077,37.0382 L676.075,37.0311 L676.074,37.0253 L676.073,37.0205 L676.072,37.017 L676.072,37.0147 L676.072,37.0134 L675.774,36.5239 L675.573,36.3784 L675.273,36.2512 L674.972,36.1743 L674.641,36.1184 L674.267,36.0731 L673.839,36.0365 L673.357,36.0073 L672.823,35.9844 L672.232,35.9679 L671.587,35.9575 L670.892,35.9526 L670.143,35.9534 L669.341,35.9597 L668.493,35.9708 L667.595,35.9872 L666.648,36.0086 L665.659,36.0343 L664.623,36.0648 L663.542,36.0997 L662.423,36.1387 L661.261,36.1818 L660.058,36.2289 L658.82,36.2794 L657.544,36.3337 L656.232,36.3916 L654.888,36.4525 L653.51,36.5166 L652.1,36.5839 L650.649,36.6548 L649.197,36.7258 L647.689,36.8019 L646.182,36.8781 L644.624,36.9586 L643.066,37.0392 L641.449,37.1246 L639.832,37.2097 L638.215,37.2946 L636.598,37.3794 L634.913,37.4692 L633.228,37.5592 L631.543,37.6491 L629.857,37.7389 L628.128,37.8311 L626.399,37.9231 L624.67,38.0147 L622.941,38.1063 L621.194,38.198 L619.448,38.2897 L617.695,38.3806 L615.943,38.4716 L614.191,38.561 L612.439,38.6504 L610.692,38.7373 L608.945,38.8242 L607.209,38.9085 L605.473,38.9926 L603.755,39.0734 L602.036,39.1542 L600.338,39.2313 L598.64,39.3081 L596.97,39.3793 L595.3,39.4506 L593.664,39.5165 L592.028,39.5825 L590.419,39.6444 L588.83,39.7033 L587.264,39.7588 L585.721,39.8112 L584.202,39.8574 L582.71,39.8992 L581.244,39.9374 L579.808,39.9716 L578.403,40.0016 L577.027,40.0276 L575.685,40.0491 L574.379,40.0659 L573.106,40.0785 L571.872,40.0859 L570.677,40.089 L569.52,40.0875 L568.406,40.0807 L567.335,40.0681 L566.265,40.0514 L565.194,40.0346 L564.123,40.0177 L563.052,40.0009 L561.981,39.984 L560.91,39.9672 L559.839,39.9503 L558.768,39.9335 L557.697,39.9166 L556.626,39.9027 L555.554,39.8889 L554.483,39.8751 L553.412,39.8612 L552.341,39.8474 L551.27,39.8336 L550.199,39.8198 L549.127,39.806 L548.056,39.7922 L546.985,39.7784 L545.914,39.7647 L544.843,39.7507 L543.772,39.7369 L542.701,39.7229 L541.63,39.7089 L540.558,39.6947 L539.487,39.6807 L538.416,39.6666 L537.345,39.6525 L536.274,39.6384 L535.203,39.6243 L534.132,39.6102 L533.062,39.5962 L531.991,39.5801 L530.919,39.564 L529.848,39.5477 L528.777,39.5313 L527.705,39.5148 L526.634,39.4982 L525.563,39.4817 L524.491,39.4651 L523.42,39.4486 L522.348,39.4321 L521.277,39.4155 L520.205,39.3991 L519.134,39.3826 L518.063,39.366 L516.991,39.3495 L515.92,39.3328 L514.848,39.3154 L513.777,39.2981 L512.706,39.2806 L511.634,39.2633 L510.563,39.2459 L509.491,39.2285 L508.42,39.2111 L507.348,39.1937 L506.277,39.1763 L505.206,39.1589 L504.134,39.1415 L503.063,39.1242 L501.991,39.1068 L500.92,39.0894 L499.849,39.072 L498.777,39.0546 L497.706,39.037 L496.634,39.0193 L495.563,39.0017 L494.491,38.984 L493.419,38.9664 L492.348,38.9487 L491.276,38.9312 L490.204,38.9135 L489.133,38.8959 L488.061,38.8783 L486.99,38.8607 L485.918,38.8433 L484.846,38.8257 L483.775,38.8081 L482.703,38.7907 L481.631,38.7731 L480.56,38.7556 L479.488,38.738 L478.417,38.7206 L477.345,38.703 L476.273,38.6854 L475.202,38.668 L474.13,38.6505 L473.058,38.6334 L471.987,38.6162 L470.915,38.5991 L469.844,38.5819 L468.772,38.5648 L467.7,38.5476 L466.629,38.5305 L465.557,38.5133 L464.485,38.4962 L463.413,38.4797 L462.341,38.4634 L461.27,38.447 L460.198,38.4308 L459.126,38.415 L458.054,38.3993 L456.982,38.3836 L455.911,38.3678 L454.839,38.3521 L453.767,38.3363 L452.696,38.3206 L451.624,38.3048 L450.552,38.2889 L449.48,38.2732 L448.408,38.2575 L447.336,38.2417 L446.264,38.2272 L445.192,38.213 L444.12,38.1989 L443.048,38.1846 L441.977,38.1704 L440.905,38.1563 L439.833,38.142 L438.761,38.1278 L437.689,38.1137 L436.617,38.0994 L435.546,38.0852 L434.474,38.0711 L433.402,38.0568 L432.33,38.0426 L431.258,38.0284 L430.186,38.0143 L429.113,38.0016 L428.041,37.989 L426.969,37.9763 L425.898,37.9636 L424.826,37.9511 L423.754,37.9384 L422.682,37.9257 L421.61,37.9131 L420.538,37.9004 L419.466,37.8877 L418.395,37.8749 L417.323,37.8618 L416.251,37.8488 L415.179,37.8357 L414.107,37.8228 L413.034,37.8097 L411.961,37.7983 L410.89,37.7871 L409.818,37.7758 L408.746,37.7645 L407.674,37.7532 L406.602,37.7419 L405.53,37.7306 L404.458,37.7189 L403.387,37.707 L402.314,37.6952 L401.243,37.6834 L400.171,37.6714 L399.099,37.6596 L398.027,37.6477 L396.955,37.6357 L395.882,37.6239 L394.809,37.6143 L393.737,37.6047 L392.665,37.5952 L391.593,37.5856 L390.522,37.5756 L389.45,37.5653 L388.378,37.5551 L387.306,37.5448 L386.234,37.5346 L385.162,37.5243 L384.09,37.514 L383.018,37.5038 L381.946,37.4935 L380.875,37.4833 L379.803,37.4729 L378.729,37.4627 L377.656,37.4552 L376.584,37.4476 L375.512,37.4402 L374.44,37.4327 L373.368,37.4252 L372.296,37.4177 L371.224,37.4102 L370.153,37.4027 L369.081,37.3951 L368.009,37.3877 L366.937,37.3803 L365.865,37.3727 L364.793,37.3652 L363.721,37.3577 L362.649,37.3506 L361.576,37.3434 L360.502,37.3391 L359.431,37.335 L358.359,37.3307 L357.287,37.3264 L356.215,37.3221 L355.143,37.3179 L354.071,37.3137 L352.999,37.3095 L351.928,37.3052 L350.856,37.3009 L349.784,37.2966 L348.712,37.2931 L347.64,37.2897 L346.568,37.2861 L345.496,37.2827 L344.422,37.2792 L343.349,37.2793 L342.277,37.2793 L341.205,37.2794 L340.133,37.2795 L339.061,37.2795 L337.99,37.2797 L336.918,37.2797 L335.846,37.2798 L334.774,37.2802 L333.702,37.2804 L332.63,37.2808 L331.558,37.2811 L330.487,37.2815 L329.415,37.2819 L328.343,37.2821 L327.269,37.2825 L326.195,37.2869 L325.123,37.2911 L324.051,37.2955 L322.98,37.2998 L321.908,37.3042 L320.836,37.3086 L319.764,37.3131 L318.692,37.3175 L317.621,37.3219 L316.549,37.3263 L315.477,37.3308 L314.405,37.3352 L313.334,37.3396 L312.262,37.344 L311.19,37.3485 L310.116,37.3529 L309.042,37.3613 L307.97,37.3698 L306.898,37.3777 L305.827,37.3856 L304.755,37.3936 L303.683,37.4015 L302.611,37.4094 L301.54,37.4174 L300.468,37.4253 L299.396,37.4332 L298.325,37.4412 L297.253,37.4491 L296.181,37.4572 L295.109,37.4651 L294.038,37.4729 L292.963,37.4802 L291.889,37.4926 L290.817,37.5046 L289.746,37.5169 L288.674,37.5291 L287.602,37.5413 L286.531,37.5534 L285.459,37.5656 L284.387,37.5778 L283.316,37.59 L282.244,37.6022 L281.172,37.6143 L280.101,37.6262 L279.029,37.6372 L277.958,37.6482 L276.886,37.6593 L275.811,37.6704 L274.736,37.6867 L273.665,37.703 L272.593,37.7192 L271.522,37.7355 L270.45,37.7518 L269.378,37.7681 L268.307,37.7844 L267.235,37.8007 L266.164,37.8168 L265.092,37.8326 L264.021,37.8484 L262.949,37.8643 L261.878,37.88 L260.806,37.8959 L259.734,37.9117 L258.661,37.9276 L257.587,37.9473 L256.515,37.9669 L255.444,37.9865 L254.372,38.0061 L253.301,38.0258 L252.229,38.0455 L251.158,38.0654 L250.085,38.0853 L249.011,38.1083 L247.94,38.1311 L246.868,38.1539 L245.797,38.1768 L244.725,38.1996 L243.654,38.2224 L242.583,38.2452 L241.509,38.2681 L240.436,38.294 L239.365,38.3198 L238.293,38.3461 L237.222,38.3727 L236.15,38.3993 L235.079,38.4259 L234.008,38.4525 L232.935,38.4791 L231.862,38.5087 L230.79,38.5381 L229.719,38.5675 L228.648,38.5969 L227.576,38.6265 L226.505,38.6559 L225.434,38.6853 L224.36,38.7153 L223.287,38.749 L222.216,38.7827 L221.145,38.8164 L220.074,38.8501 L219.002,38.8837 L217.931,38.9174 L216.86,38.9511 L215.787,38.9847 L214.713,39.0219 L213.642,39.0588 L212.571,39.0958 L211.5,39.1328 L210.429,39.1702 L209.358,39.2079 L208.287,39.2455 L207.214,39.2833 L206.14,39.3241 L205.07,39.3649 L203.999,39.4058 L202.928,39.4465 L201.856,39.4873 L200.785,39.5281 L199.714,39.5689 L198.641,39.6097 L197.568,39.6542 L196.497,39.6985 L195.426,39.7428 L194.355,39.787 L193.284,39.8313 L192.213,39.8756 L191.142,39.9199 L190.069,39.9642 L188.996,40.0123 L187.925,40.0602 L186.854,40.1082 L185.783,40.1561 L184.712,40.204 L183.642,40.252 L182.571,40.2992 L181.498,40.3463 L180.425,40.3967 L179.354,40.4471 L178.283,40.4976 L177.212,40.548 L176.142,40.5983 L175.071,40.6487 L174,40.6991 L172.927,40.7496 L171.853,40.804 L170.783,40.8582 L169.712,40.9125 L168.641,40.9659 L167.571,41.0193 L166.5,41.0726 L165.429,41.126 L164.356,41.1794 L163.282,41.2369 L162.212,41.2943 L161.141,41.3516 L160.07,41.4089 L159,41.4662 L157.929,41.5236 L156.859,41.5808 L155.787,41.6382 L154.241,41.7211 L152.634,41.8053 L150.967,41.8911 L149.247,41.9782 L147.471,42.0669 L145.641,42.1572 L143.764,42.2492 L141.837,42.3425 L139.862,42.4381 L138.854,42.4867 L137.846,42.5352 L136.815,42.5846 L135.785,42.634 L134.734,42.6843 L133.682,42.7346 L132.613,42.7858 L131.544,42.8369 L130.455,42.8889 L129.367,42.9409 L128.26,42.9938 L127.154,43.0476 L126.033,43.1024 L124.911,43.1574 L123.773,43.2131 L122.635,43.2689 L121.483,43.3257 L120.33,43.3826 L119.159,43.4407 L117.988,43.4988 L116.817,43.557 L115.646,43.6151 L114.45,43.6753 L113.255,43.7365 L112.06,43.798 L110.865,43.8595 L109.649,43.9231 L108.435,43.9867 L107.221,44.0503 L106.005,44.114 L104.776,44.1796 L103.547,44.245 L102.318,44.3106 L101.088,44.3761 L99.846,44.4439 L98.605,44.5114 L97.365,44.5787 L96.123,44.6464 L94.873,44.7161 L93.624,44.7858 L92.376,44.8555 L91.126,44.9252 L89.873,44.997 L88.621,45.0687 L87.369,45.1405 L86.116,45.2112 L84.862,45.2809 L83.61,45.3506 L82.358,45.4203 L81.104,45.4901 L79.855,45.5623 L78.607,45.6343 L77.359,45.7063 L76.11,45.7784 L74.867,45.8528 L73.627,45.927 L72.387,46.0018 L71.145,46.0803 L69.915,46.1611 L68.687,46.2418 L67.459,46.3224 L66.228,46.4033 L65.014,46.4866 L63.803,46.5697 L62.591,46.653 L61.377,46.7362 L60.178,46.8212 L58.978,46.9061 L57.789,46.9935 L56.601,47.0812 L55.424,47.1702 L54.248,47.259 L53.084,47.3491 L51.919,47.4392 L50.768,47.5306 L49.617,47.6221 L48.482,47.7147 L47.346,47.8075 L46.226,47.9014 L45.105,47.9952 L44,48.0911 L42.896,48.187 L41.81,48.2842 L40.724,48.3815 L39.656,48.4799 L38.587,48.5784 L37.538,48.6782 L36.489,48.7781 L35.461,48.8793 L34.433,48.9804 L33.426,49.0829 L32.417,49.1854 L30.447,49.3933 L28.525,49.6046 L26.648,49.8186 L24.823,50.0355 L23.051,50.2553 L21.329,50.4775 L19.665,50.703 L18.06,50.9314 L16.511,51.1628 L15.024,51.3976 L13.602,51.6355 L12.241,51.8765 L10.946,52.1211 L9.723,52.3694 L8.563,52.6213 L7.474,52.8779 L6.46,53.1392 L5.513,53.4056 L4.638,53.6797 L3.839,53.9617 L3.104,54.2549 L2.434,54.5669 L1.865,54.8842 L1.554,55.0842 L1.283,55.2824 L1.031,55.4954 L0.79,55.7307 L0.561,56.0018 L0.36,56.3034 L0.189,56.6454 L0.061,57.0396 L0,57.4524 L0.007,57.8748 L0.087,58.2957 L0.224,58.6718 L0.404,59.0087 L0.619,59.314 L0.853,59.5789 L1.103,59.818 L1.375,60.0405 L1.66,60.2448 L1.962,60.4382 L2.287,60.6252 L2.629,60.8046 L2.992,60.9795 L3.38,61.1521 L3.79,61.3214 L4.223,61.4891 L4.683,61.656 L5.169,61.8217 L5.679,61.9868 L6.218,62.152 L6.784,62.3167 L7.377,62.4815 L8,62.6466 L8.651,62.8119 L9.33,62.9775 L10.04,63.1437 L10.774,63.309 C11.658,63.5088 12.536,62.9545 12.736,62.0708 C12.936,61.1873 12.382,60.309 11.498,60.1093 Z" id="Fill-78"></path>
            <path d="M609.239,6.5338 L609.731,7.6816 L610.215,8.8121 L610.677,9.9601 L611.138,11.1083 L611.577,12.2736 L612.017,13.4407 L612.437,14.6228 L612.856,15.8038 L613.252,17.0012 L613.65,18.1987 L614.026,19.4122 L614.403,20.6274 L614.76,21.8569 L615.118,23.085 L615.455,24.3283 L615.793,25.5719 L616.11,26.8304 L616.429,28.0905 L616.73,29.3635 L617.031,30.6356 L617.312,31.9221 L617.595,33.2086 L617.861,34.5086 L618.127,35.8102 L618.376,37.1242 L618.628,38.4368 L618.869,39.7615 L619.11,41.0868 L619.333,42.4251 L619.554,43.7653 L619.749,45.1184 L619.944,46.4708 L620.122,47.8353 L620.3,49.2003 L620.46,50.5772 L620.62,51.9553 L620.764,53.3438 L620.91,54.7316 L621.043,56.1303 L621.175,57.5293 L621.292,58.9391 L621.409,60.35 L621.515,61.7701 L621.621,63.1899 L621.712,64.6198 L621.803,66.0501 L621.879,67.49 L621.955,68.9309 L622.019,70.3804 L622.08,71.8296 L622.125,73.2878 L622.17,74.7463 L622.201,76.2134 L622.23,77.6814 L622.246,79.157 L622.262,80.6321 L622.265,82.115 L622.265,83.5984 L622.252,85.0889 L622.239,86.5803 L622.215,88.0781 L622.19,89.5757 L622.154,91.0798 L622.118,92.5842 L622.072,94.095 L622.027,95.6065 L621.971,97.1235 L621.916,98.6401 L621.853,100.1628 L621.791,101.6856 L621.718,103.2136 L621.646,104.7405 L621.562,106.2739 L621.478,107.8132 L621.393,109.3525 L621.311,110.8843 L621.21,112.4246 L621.108,113.9724 L621.006,115.5203 L620.903,117.0613 L620.783,118.6094 L620.663,120.1641 L620.54,121.7185 L620.416,123.2676 L620.278,124.8213 L620.14,126.3806 L619.999,127.9399 L619.859,129.4937 L619.706,131.0518 L619.55,132.6148 L619.394,134.178 L619.238,135.7363 L619.07,137.2971 L618.902,138.8628 L618.734,140.4285 L618.566,141.9902 L618.389,143.5532 L618.212,145.1201 L618.035,146.6868 L617.858,148.25 L617.675,149.8132 L617.491,151.3801 L617.308,152.947 L617.125,154.511 L616.935,156.0732 L616.745,157.6384 L616.555,159.2036 L616.366,160.7669 L616.17,162.3269 L615.974,163.8892 L615.778,165.4514 L615.58,167.0117 L615.377,168.5671 L615.174,170.1248 L614.969,171.6819 L614.764,173.2378 L614.556,174.7874 L614.347,176.3384 L614.137,177.8894 L613.928,179.4395 L613.717,180.9827 L613.505,182.5266 L613.294,184.0708 L613.083,185.6143 L612.873,187.1492 L612.663,188.6846 L612.453,190.22 L612.244,191.7554 L612.037,193.2808 L611.831,194.8059 L611.626,196.3313 L611.42,197.85694 L611.218,199.37208 L611.016,200.88697 L610.814,202.40162 L610.612,203.91724 L610.415,205.41968 L610.218,206.92139 L610.021,208.42286 L609.823,209.92579 L609.632,211.41407 L609.441,212.90088 L609.25,214.3877 L609.055,215.87574 L608.868,217.34913 L608.68,218.82081 L608.493,220.29249 L608.304,221.76612 L608.124,223.22242 L607.944,224.67652 L607.764,226.13038 L607.583,227.58716 L607.412,229.02466 L607.242,230.45948 L607.079,231.89502 L606.919,233.33326 L606.767,234.75757 L606.615,236.1814 L606.471,237.59498 L606.329,239.00879 L606.193,240.41138 L606.057,241.81397 L605.921,243.20557 L605.783,244.59717 L605.654,245.9773 L605.524,247.35743 L605.401,248.72535 L605.277,250.09302 L605.16,251.44971 L605.044,252.8064 L604.935,254.1504 L604.826,255.49463 L604.726,256.82569 L604.626,258.1565 L604.534,259.4751 L604.442,260.79419 L604.359,262.09937 L604.277,263.40455 L604.204,264.69581 L604.131,265.98658 L604.067,267.26441 L604.003,268.54273 L603.951,269.80591 L603.898,271.06959 L603.857,272.31788 L603.816,273.56592 L603.785,274.79981 L603.755,276.03419 L603.737,277.25294 L603.719,278.47169 L603.713,279.67408 L603.706992,280.87208 C603.705,281.33277 604.077,281.71046 604.538,281.71046 C604.998,281.71046 605.374,281.34107 605.376,280.88038 L605.382,279.68213 L605.388,278.48829 L605.407,277.27808 L605.425,276.06788 L605.456,274.84131 L605.487,273.61451 L605.528,272.3733 L605.57,271.13233 L605.622,269.87598 L605.675,268.61939 L605.739,267.34815 L605.803,266.07618 L605.877,264.79127 L605.951,263.50635 L606.036,262.20704 L606.121,260.90796 L606.216,259.59473 L606.312,258.2815 L606.416,256.95582 L606.521,255.63038 L606.634,254.29151 L606.748,252.95289 L606.872,251.60157 L606.996,250.24976 L607.127,248.88672 L607.259,247.52393 L607.401,246.14942 L607.543,244.77466 L607.692,243.38819 L607.842,242.00171 L608.006,240.60547 L608.17,239.20948 L608.34,237.80274 L608.51,236.39551 L608.684,234.97779 L608.858,233.56031 L609.041,232.12916 L609.22,230.69556 L609.392,229.26099 L609.564,227.82935 L609.747,226.37842 L609.93,224.92505 L610.114,223.47144 L610.298,222.02027 L610.491,220.55152 L610.685,219.08057 L610.879,217.60987 L611.073,216.14063 L611.274,214.65699 L611.478,213.17188 L611.682,211.68677 L611.886,210.20313 L612.096,208.7046 L612.307,207.20484 L612.517,205.70508 L612.727,204.2063 L612.941,202.6941 L613.156,201.18091 L613.37,199.66797 L613.584,198.15528 L613.8,196.6318 L614.016,195.1079 L614.231,193.584 L614.446,192.0598 L614.661,190.5252 L614.876,188.9905 L615.091,187.4558 L615.304,185.9204 L615.517,184.376 L615.73,182.832 L615.943,181.2883 L616.156,179.7437 L616.367,178.1919 L616.578,176.6414 L616.791,175.0908 L617.003,173.5388 L617.213,171.9807 L617.423,170.4243 L617.635,168.8679 L617.846,167.3096 L618.054,165.7466 L618.262,164.186 L618.471,162.6252 L618.681,161.0625 L618.885,159.4968 L619.088,157.9331 L619.292,156.3696 L619.496,154.8032 L619.691,153.2346 L619.886,151.6692 L620.08,150.1035 L620.275,148.5344 L620.458,146.9646 L620.64,145.3984 L620.822,143.8323 L621.004,142.2625 L621.176,140.6934 L621.348,139.1282 L621.519,137.5627 L621.691,135.9929 L621.85,134.4253 L622.009,132.8626 L622.168,131.2998 L622.329,129.7317 L622.476,128.168 L622.623,126.6091 L622.771,125.0508 L622.92,123.4871 L623.055,121.928 L623.191,120.3745 L623.33,118.8213 L623.469,117.2615 L623.591,115.7083 L623.714,114.1619 L623.837,112.6155 L623.961,111.0615 L624.066,109.5156 L624.169,107.9775 L624.273,106.4395 L624.377,104.8953 L624.465,103.3577 L624.553,101.8213 L624.63,100.29 L624.706992,98.7586 L624.77,97.2324 L624.833,95.7065 L624.886,94.186 L624.938,92.6648 L624.976,91.1497 L625.015,89.6345 L625.042,88.126 L625.068,86.6177 L625.084,85.116 L625.1,83.6133 L625.103,82.1179 L625.108,80.6226 L625.101,79.1348 L625.095,77.6472 L625.076,76.167 L625.059,74.686 L625.029,73.2131 L624.999,71.74 L624.956,70.2756 L624.915,68.8115 L624.861,67.3557 L624.807,65.8987 L624.738,64.4511 L624.668,63.0032 L624.583,61.5649 L624.497,60.1272 L624.395,58.6987 L624.291,57.2693 L624.172,55.8502 L624.052,54.4308 L623.912,53.0226 L623.772,51.615 L623.616,50.2177 L623.46,48.8191 L623.287,47.432 L623.114,46.0446 L622.923,44.6691 L622.732,43.2943 L622.534,41.9293 L622.338,40.5624 L622.123,39.2079 L621.908,37.8528 L621.667,36.5121 L621.422,35.1726 L621.159,33.8453 L620.897,32.5165 L620.612,31.2018 L620.325,29.8871 L620.019,28.5866 L619.712,27.287 L619.386,26.0009 L619.058,24.7133 L618.71,23.4407 L618.361,22.1676 L617.99,20.91 L617.619,19.6538 L617.228,18.4119 L616.836,17.1682 L616.422,15.9406 L616.008,14.7128 L615.57,13.5013 L615.134,12.2913 L614.676,11.0963 L614.218,9.8998 L613.736,8.7202 L613.254,7.5404 L612.749,6.3782 L612.25,5.233 C611.891,4.4015 610.926,4.0184 610.094,4.3777 C609.262,4.7368 608.879,5.7023 609.239,6.5338 Z" id="Fill-79"></path>
        </g>
    </g>
</svg>
