<?xml version="1.0" encoding="UTF-8"?>
<svg width="589px" height="268px" viewBox="0 0 589 268" version="1.1" xmlns="http://www.w3.org/2000/svg" xmlns:xlink="http://www.w3.org/1999/xlink">
    <title>82</title>
    <g id="Page-1" stroke="none" stroke-width="1" fill="none" fill-rule="evenodd">
        <g id="82" transform="translate(0.763750, 0.010200)" fill="currentColor">
            <path d="M451.512,15.3423 L451.885,15.224 L452.248,15.0991 L452.587,14.9727 L452.905,14.8428 L453.206,14.7063 L453.487,14.5628 L453.756,14.4068 L454.021,14.2271 L454.274,14.0185 L454.523,13.7598 L454.764,13.413 L454.95,12.9772 L455.035,12.4545 L454.971,11.8949 L454.784,11.4295 L454.538,11.0692 L454.265,10.7926 L453.998,10.5878 L453.732,10.4226 L453.458,10.2813 L453.18,10.1597 L452.891,10.0495 L452.585,9.9469 L452.264,9.8516 L451.926,9.761 L451.567,9.6742 L451.188,9.5913 L450.789,9.5113 L450.367,9.4339 L449.924,9.3592 L449.461,9.2868 L448.973,9.2165 L448.464,9.1486 L447.934,9.0828 L447.38,9.0189 L446.803,8.9574 L446.206,8.8977 L445.586,8.8402 L444.943,8.7847 L444.28,8.7312 L443.593,8.6798 L442.881,8.6303 L441.408,8.5377 L439.841,8.4535 L438.189,8.3781 L436.458,8.3107 L434.642,8.2523 L432.743,8.2033 L430.772,8.1626 L429.743,8.1469 L428.715,8.1314 L427.648,8.1205 L426.582,8.1098 L425.48,8.1034 L424.377,8.0972 L423.236,8.0959 L422.096,8.0945 L420.917,8.0982 L419.739,8.102 L418.527,8.1104 L417.315,8.1188 L416.067,8.1325 L414.818,8.1461 L413.534,8.1652 L412.251,8.1842 L410.935,8.2082 L409.619,8.2321 L408.269,8.2615 L406.919,8.2909 L405.536,8.3258 L404.152,8.3609 L402.739,8.401 L401.326,8.4412 L399.88,8.4871 L398.435,8.533 L396.958,8.5847 L395.481,8.6364 L393.976,8.6935 L392.472,8.7506 L390.937,8.8139 L389.401,8.877 L387.837,8.9462 L386.273,9.0154 L384.683,9.0902 L383.092,9.1651 L381.474,9.2464 L379.856,9.3275 L378.21,9.4151 L376.565,9.5026 L374.895,9.5961 L373.225,9.6895 L371.53,9.7893 L369.834,9.8893 L368.113,9.9959 L366.393,10.1024 L364.65,10.215 L362.907,10.3277 L361.14,10.447 L359.374,10.5666 L357.584,10.6928 L355.794,10.8191 L353.984,10.9517 L352.174,11.0843 L350.343,11.2239 L348.511,11.3637 L346.658,11.5105 L344.806,11.6576 L342.935,11.8113 L341.064,11.965 L339.173,12.1259 L337.283,12.2869 L335.373,12.4552 L333.464,12.6236 L331.538,12.7987 L329.612,12.9739 L327.669,13.1566 L325.726,13.3394 L323.766,13.5297 L321.806,13.72 L319.831,13.9174 L317.857,14.1148 L315.867,14.32 L313.878,14.5252 L312.873,14.632 L311.872,14.7384 L310.871,14.8449 L309.868,14.9517 L308.858,15.0623 L307.851,15.1725 L306.844,15.2829 L305.834,15.3935 L304.817,15.5081 L303.803,15.6223 L302.79,15.7367 L301.773,15.8513 L300.75,15.97 L299.73,16.0884 L298.71,16.2068 L297.687,16.3255 L296.66,16.4479 L295.634,16.5701 L294.609,16.6922 L293.58,16.8147 L292.547,16.9413 L291.516,17.0677 L290.485,17.1939 L289.451,17.3206 L288.412,17.4514 L287.376,17.5819 L286.34,17.7124 L285.301,17.8433 L284.258,17.9781 L283.217,18.1123 L282.177,18.2467 L281.133,18.3815 L280.085,18.5205 L279.04,18.6592 L277.995,18.7979 L276.947,18.9369 L275.895,19.0803 L274.846,19.2233 L273.797,19.3667 L272.745,19.5105 L271.69,19.6584 L270.638,19.8058 L269.585,19.9533 L268.529,20.1012 L267.471,20.2534 L266.415,20.4053 L265.359,20.5573 L264.3,20.7095 L263.238,20.8664 L262.179,21.0226 L261.12,21.179 L260.057,21.336 L258.99,21.499 L257.927,21.6616 L256.865,21.8241 L255.802,21.9866 L254.739,22.1491 L253.677,22.3116 L252.614,22.474 L251.545,22.6376 L250.472,22.8103 L249.406,22.982 L248.339,23.1536 L247.273,23.3253 L246.206,23.497 L245.139,23.6686 L244.073,23.8404 L242.999,24.0131 L241.923,24.1952 L240.854,24.3762 L239.785,24.5573 L238.716,24.7383 L237.647,24.9206 L236.578,25.1029 L235.509,25.2853 L234.434,25.4688 L233.358,25.6609 L232.288,25.8518 L231.218,26.0429 L230.148,26.2339 L229.078,26.425 L228.008,26.6159 L226.938,26.8069 L225.86,26.9992 L224.784,27.2012 L223.714,27.4019 L222.644,27.6026 L221.574,27.8032 L220.504,28.0039 L219.434,28.2047 L218.365,28.4054 L217.287,28.6074 L216.212,28.8195 L215.144,29.0301 L214.076,29.2406 L213.007,29.4512 L211.939,29.6618 L210.871,29.8723 L209.803,30.0829 L208.728,30.2948 L207.655,30.5159 L206.59,30.7355 L205.525,30.9552 L204.459,31.175 L203.394,31.3946 L202.328,31.6137 L201.263,31.8319 L200.189,32.0518 L199.12,32.282 L198.059,32.5104 L196.997,32.7389 L195.936,32.9674 L194.875,33.1958 L193.814,33.4243 L192.752,33.6529 L191.683,33.8831 L190.619,34.1238 L189.564,34.3627 L188.508,34.6015 L187.453,34.8404 L186.398,35.0793 L185.342,35.318 L184.287,35.5569 L183.225,35.7971 L182.169,36.0445 L181.119,36.2906 L180.068,36.5365 L179.013,36.7836 L177.962,37.036 L176.915,37.2874 L175.869,37.5387 L174.818,37.7912 L173.771,38.049 L172.729,38.3057 L171.686,38.5623 L170.64,38.8201 L169.598,39.0828 L168.56,39.3444 L167.522,39.606 L166.479,39.8687 L165.441,40.1369 L164.408,40.404 L163.375,40.6709 L162.337,40.9391 L161.305,41.2129 L160.277,41.4854 L159.25,41.7578 L158.218,42.0315 L157.191,42.3102 L156.168,42.5878 L155.146,42.8653 L154.119,43.1441 L153.097,43.4286 L152.081,43.7117 L151.065,43.9948 L150.043,44.2793 L149.028,44.5695 L148.018,44.8582 L147.008,45.1469 L145.994,45.4369 L144.985,45.7321 L143.981,46.026 L142.978,46.3199 L141.969,46.6153 L140.967,46.9164 L139.97,47.216 L138.974,47.5154 L137.972,47.8167 L136.977,48.1237 L135.988,48.429 L134.999,48.7343 L134.005,49.0412 L133.017,49.3533 L132.036,49.6638 L131.054,49.9749 L130.066,50.2876 L129.087,50.6063 L128.113,50.9231 L127.14,51.2399 L126.16,51.5586 L125.189,51.8833 L124.224,52.206 L123.259,52.5287 L122.289,52.8532 L121.326,53.1831 L120.369,53.5111 L119.412,53.8393 L118.449,54.1695 L117.495,54.5056 L116.547,54.8396 L115.6,55.1736 L114.644,55.5106 L112.763,56.1922 L110.881,56.8743 L109.017,57.5675 L107.153,58.261 L105.308,58.9667 L103.464,59.6725 L101.641,60.3907 L99.819,61.1085 L98.016,61.8377 L96.213,62.5678 L94.433,63.3105 L92.653,64.0532 L90.896,64.8086 L89.139,65.5639 L87.405,66.3305 L85.67,67.0977 L83.959,67.8775 L82.248,68.6575 L80.563,69.4502 L78.879,70.2428 L77.218,71.0471 L75.556,71.8521 L73.921,72.6699 L72.286,73.4879 L70.679,74.3191 L69.072,75.1499 L67.492,75.9927 L65.91,76.8362 L64.357,77.6931 L62.804,78.5501 L61.28,79.4207 L59.758,80.2908 L58.263,81.1734 L56.767,82.0564 L55.302,82.9532 L53.837,83.8501 L52.404,84.7608 L50.972,85.6712 L49.569,86.5938 L48.165,87.5176 L46.794,88.4551 L45.423,89.3931 L44.086,90.3448 L42.75,91.2962 L41.445,92.2603 L40.14,93.2256 L38.869,94.2049 L37.599,95.1846 L36.364,96.1787 L35.13,97.1721 L33.93,98.1785 L32.728,99.1858 L31.564,100.2078 L30.399,101.23 L29.273,102.2669 L28.148,103.303 L27.058,104.3526 L25.966,105.4036 L24.915,106.4695 L23.863,107.5359 L22.852,108.6172 L21.842,109.6975 L20.869,110.7915 L19.895,111.8875 L18.962,112.9986 L18.03,114.1101 L17.14,115.2371 L16.251,116.3628 L15.402,117.5025 L14.551,118.6443 L13.745,119.8015 L12.939,120.9595 L12.177,122.1328 L11.42,123.3001 L10.687,124.4886 L9.979,125.6812 L9.295,126.8809 L8.632,128.0879 L7.992,129.3042 L7.377,130.5276 L6.783,131.7586 L6.213,132.9986 L5.668,134.2456 L5.145,135.5005 L4.647,136.7644 L4.174,138.0354 L3.724,139.314 L3.298,140.6018 L2.899,141.8968 L2.524,143.1992 L2.173,144.511 L1.85,145.8299 L1.55,147.156 L1.277,148.4917 L1.03,149.8343 L0.808,151.1841 L0.614,152.5435 L0.446,153.9097 L0.303,155.2835 L0.188,156.6663 L0.101,158.0562 L0.039,159.4534 L0.006,160.8599 L0,162.273 L0.02,163.6936 L0.069,165.1236 L0.146,166.5603 L0.25,168.0042 L0.383,169.4575 L0.546,170.9178 L0.735,172.385 L0.954,173.8616 L1.202,175.3452 L1.478,176.836 L1.784,178.336 L2.12,179.8428 L2.484,181.357 L2.878,182.8804 L3.303,184.4107 L3.756,185.9483 L4.241,187.4951 L4.756,189.0491 L5.299,190.6106 L5.875,192.1809 L6.482,193.7588 L7.118,195.344 L7.786,196.9383 L8.485,198.5398 L9.214,200.149 L9.976,201.7674 L10.771,203.3933 L11.595,205.0266 L12.452,206.6692 L13.342,208.31936 L14.262,209.97732 L15.216,211.64431 L16.204,213.31936 L17.222,215.00198 L18.272,216.69143 L18.817,217.54397 L19.36,218.39358 L19.918,219.2471 L20.477,220.1011 L21.053,220.9595 L21.629,221.8179 L22.222,222.68069 L22.815,223.54275 L23.424,224.40896 L24.033,225.27566 L24.659,226.14676 L25.286,227.01785 L25.93,227.89334 L26.574,228.76809 L27.234,229.647 L27.894,230.52615 L28.572,231.40994 L29.25,232.29348 L29.946,233.18167 L30.641,234.06912 L31.353,234.96096 L32.065,235.85305 L32.796,236.74954 L33.526,237.64602 L34.274,238.54715 L35.022,239.44778 L35.786,240.35232 L36.55,241.25735 L37.333,242.16702 L38.116,243.07669 L38.918,243.99075 L39.719,244.90432 L40.536,245.82205 L41.354,246.74026 L42.191,247.66311 L43.027,248.58572 L43.882,249.51297 L44.74,250.44314 L45.341,251.07278 L45.967,251.69168 L46.612,252.29446 L47.275,252.88357 L47.959,253.45926 L48.674,254.02908 L50.118,255.09939 L51.652,256.12454 L53.257,257.09231 L54.925,258.01052 L56.665,258.87698 L58.468,259.6907 L60.324,260.45559 L61.296,260.81839 L62.26,261.17752 L63.255,261.51345 L64.248,261.84793 L65.269,262.16165 L66.291,262.47561 L67.342,262.76687 L68.393,263.05764 L69.474,263.32669 L70.551,263.59475 L71.655,263.84329 L72.759,264.09207 L73.891,264.31961 L75.023,264.5469 L76.181,264.75369 L77.337,264.95974 L78.516,265.14773 L79.696,265.33572 L80.901,265.50418 L82.106,265.67215 L83.335,265.82132 L84.562,265.96975 L85.81,266.10159 L87.059,266.23294 L88.331,266.34597 L89.602,266.45877 L90.895,266.55398 L92.186,266.64871 L93.496,266.72781 L94.807,266.80691 L96.138,266.86892 L97.468,266.93093 L98.817,266.97634 L100.165,267.02176 L101.53,267.05276 L102.896,267.08352 L104.279,267.09866 L105.661,267.1138 L107.06,267.1138 L108.458,267.1138 L109.871,267.10012 L111.284,267.08645 L112.712,267.05862 L114.139,267.03079 L115.581,266.98904 L117.022,266.94729 L118.474,266.89334 L119.928,266.83938 L121.393,266.77249 L122.859,266.70535 L124.336,266.62576 L125.812,266.54617 L127.298,266.45559 L128.784,266.36477 L130.28,266.26248 L131.776,266.15994 L133.281,266.04641 L134.786,265.93264 L136.297,265.80935 L137.809,265.68582 L139.329,265.55203 L140.848,265.41824 L142.374,265.27444 L143.901,265.1304 L145.435,264.9739 L146.964,264.81765 L148.494,264.6614 L150.03,264.50467 L151.574,264.33035 L153.111,264.15676 L154.649,263.98342 L156.192,263.80911 L157.74,263.61966 L159.282,263.43069 L160.824,263.24197 L162.371,263.05252 L163.919,262.85086 L165.462,262.64968 L167.005,262.44851 L168.553,262.24661 L170.099,262.0325 L171.64,261.81936 L173.181,261.60598 L174.727,261.39212 L176.267,261.168 L177.802,260.94436 L179.337,260.72097 L180.876,260.49685 L182.407,260.26492 L183.934,260.03372 L185.462,259.80227 L186.993,259.57058 L188.511,259.33181 L190.026,259.09353 L191.541,258.8555 L193.059,258.61673 L194.562,258.37307 L196.061,258.12991 L197.561,257.88748 L199.062,257.64431 L200.547,257.39846 L202.029,257.15286 L203.511,256.90701 L204.995,256.66116 L206.457,256.41336 L207.917,256.16604 L209.376,255.91873 L210.838,255.67117 L212.273,255.42361 L213.707,255.17654 L215.141,254.92947 L216.576,254.68216 L217.991,254.43582 L219.405,254.18972 L220.805,253.94485 L222.204,253.70022 L223.587,253.4573 L224.969,253.21438 L226.336,252.97342 L227.703,252.73245 L229.052,252.49417 L230.401,252.25589 L231.731,252.02078 L233.061,251.78616 L234.373,251.55447 L235.685,251.32278 L236.976,251.09524 L238.267,250.86746 L239.537,250.64431 L240.807,250.42117 L242.057,250.20242 L243.306,249.98342 L244.532,249.77005 L245.758,249.55642 L246.96,249.34866 L248.162,249.1409 L249.342,248.93875 L250.521,248.7366 L251.674,248.54104 L252.828,248.34549 L253.955,248.15676 L255.081,247.96829 L256.183,247.78665 L257.285,247.60476 L258.359,247.43093 L259.432,247.25711 L260.476,247.09158 L261.52,246.92605 L262.537,246.76858 L263.552,246.61111 L265.524,246.31424 L267.431,246.03689 L269.279,245.7781 L271.059,245.54055 L272.77,245.32473 L274.416,245.12942 L275.988,244.95803 L277.486,244.81082 L278.914,244.68679 L280.262,244.58865 L281.532,244.51736 L282.546,244.47586 L283.561,244.43411 L284.612,244.40554 L285.664,244.37674 L286.751,244.36062 L287.839,244.34451 L288.958,244.33938 L290.076,244.33426 L291.228,244.34109 L292.381,244.34793 L293.566,244.36599 L294.751,244.38406 L295.966,244.41214 L297.18,244.44021 L298.426,244.47879 L299.672,244.51736 L300.947,244.56619 L302.224,244.61502 L303.527,244.67263 L304.83,244.73025 L306.161,244.79715 L307.493,244.86404 L308.852,244.93972 L310.213,245.01565 L311.597,245.09915 L312.981,245.18264 L314.392,245.27444 L315.803,245.36599 L317.239,245.46511 L318.675,245.56448 L320.134,245.67044 L321.593,245.77615 L323.076,245.88894 L324.558,246.00149 L326.064,246.12063 L327.57,246.23953 L329.097,246.36404 L330.623,246.48855 L332.171,246.61868 L333.718,246.74881 L335.287,246.88406 L336.856,247.01931 L338.442,247.15872 L340.029,247.29837 L341.635,247.44192 L343.241,247.58572 L344.865,247.73318 L346.49,247.88064 L348.13,248.03152 L349.771,248.18216 L351.428,248.33596 L353.085,248.48977 L354.758,248.64602 L356.432,248.80252 L358.119,248.96096 L359.806,249.11941 L361.507,249.27957 L363.209,249.43972 L364.924,249.60134 L366.639,249.76272 L368.366,249.92532 L370.093,250.08767 L371.832,250.25076 L373.571,250.4136 L375.322,250.57669 L377.072,250.73953 L378.832,250.90188 L380.592,251.06424 L382.362,251.22586 L384.132,251.38748 L385.911,251.54788 L387.69,251.70828 L389.479,251.86648 L391.268,252.02444 L393.057,252.18264 L394.848,252.34085 L396.651,252.49417 L398.453,252.64749 L400.255,252.80081 L402.059,252.95437 L403.873,253.10134 L405.685,253.24807 L407.496,253.3948 L409.31,253.54177 L411.131,253.68118 L412.948,253.82034 L414.766,253.9595 L416.587,254.09866 L418.412,254.2283 L420.233,254.35745 L422.055,254.4866 L423.88,254.61624 L425.705,254.73416 L427.527,254.85183 L429.349,254.96951 L431.175,255.08743 L432.998,255.19314 L434.817,255.29885 L436.636,255.40457 L438.461,255.51052 L440.279,255.60159 L442.092,255.69241 L443.906,255.78323 L445.725,255.87429 L447.535,255.94876 L449.339,256.02298 L451.144,256.09719 L452.954,256.17141 L454.753,256.22927 L456.547,256.28689 L458.34,256.34451 L460.14,256.40237 L461.925,256.44046 L463.703,256.47805 L465.482,256.5159 L467.267,256.55398 L469.034,256.57009 L470.795,256.58621 L472.554,256.60232 L474.319,256.61868 L476.07,256.61892 L477.82,256.61941 L479.558,256.60794 L481.297,256.59622 L483.023,256.57205 L484.749,256.54812 L486.463,256.51248 L488.177,256.47683 L489.878,256.42825 L491.579,256.37942 L493.265,256.31668 L494.951,256.25418 L496.623,256.17874 L498.296,256.1033 L499.953,256.01321 L501.609,255.92312 L503.249,255.8179 L504.888,255.71267 L506.512,255.59353 L508.136,255.47439 L509.741,255.33914 L511.347,255.20413 L512.934,255.05252 L514.52,254.90115 L516.088,254.7344 L517.656,254.56765 L519.204,254.38382 L520.753,254.19973 L522.279,253.99832 L523.805,253.79715 L525.311,253.57962 L526.818,253.36184 L528.301,253.12551 L529.785,252.88919 L531.245,252.63406 L532.704,252.37893 L534.141,252.10647 L535.579,251.83352 L536.992,251.5408 L538.405,251.24807 L539.792,250.93533 L541.178,250.62234 L542.539,250.2908 L543.902,249.95877 L545.237,249.60598 L546.572,249.25271 L547.879,248.8782 L549.185,248.50344 L550.464,248.10916 L551.745,247.71414 L552.996,247.29666 L554.247,246.87918 L555.467,246.4385 L556.686,245.99832 L557.877,245.53689 L559.068,245.07498 L560.228,244.58914 L561.389,244.10305 L562.515,243.5928 L563.641,243.08255 L564.736,242.55008 L565.833,242.01663 L566.895,241.45803 L567.957,240.89895 L568.984,240.31424 L570.009,239.72976 L571.002,239.12185 L571.996,238.51248 L572.953,237.87674 L573.91,237.24002 L574.829,236.57669 L575.745,235.91531 L576.441,235.37185 L577.112,234.80105 L577.757,234.2051 L578.38,233.58548 L578.981,232.93924 L579.557,232.27005 L580.111,231.57913 L580.643,230.8638 L581.152,230.12771 L581.641,229.37161 L582.109,228.59304 L582.554,227.79544 L582.98,226.97976 L583.387,226.14358 L583.773,225.28982 L584.141,224.4197 L584.489,223.53079 L584.819,222.62576 L585.132,221.70608 L585.427,220.76907 L585.705,219.81765 L585.966,218.85257 L586.212,217.8721 L586.441,216.87429 L586.646,215.8677 L586.852,214.85574 L587.028,213.8179 L587.204,212.78103 L587.35,211.72024 L587.497,210.66214 L587.618,209.58401 L587.738,208.5054 L587.833,207.40676 L587.928,206.3094 L587.997,205.1941 L588.067,204.0808 L588.115,202.9532 L588.163,201.8252 L588.188,200.6836 L588.214,199.543 L588.223,198.3907 L588.223,197.24 L588.21,196.0808 L588.196,194.9214 L588.165,193.7544 L588.133,192.5882 L588.084,191.4168 L588.036,190.2466 L587.973,189.0735 L587.91,187.9002 L587.832,186.7259 L587.755,185.552 L587.664,184.3792 L587.573,183.2075 L587.472,182.0386 L587.371,180.8697 L587.259,179.7058 L587.147,178.5425 L587.026,177.3867 L586.904,176.2315 L586.776,175.085 L586.648,173.9385 L586.513,172.8035 L586.378,171.6687 L586.238,170.5479 L586.098,169.4275 L585.954,168.3216 L585.811,167.2158 L585.664,166.1277 L585.517,165.0401 L585.369,163.9724 L585.222,162.9055 L585.074,161.8584 L584.926,160.8118 L584.779,159.7891 L584.632,158.7669 L584.488,157.771 L584.344,156.7757 L584.062,154.8372 L583.791,152.9605 L583.532,151.1502 L583.287,149.4043 L583.06,147.7337 L582.854,146.1426 L582.669,144.6282 L582.508,143.2032 L582.377,141.8653 L582.25,140.5279 L582.122,139.1841 L581.985,137.8572 L581.848,136.5305 L581.702,135.2202 L581.557,133.9104 L581.402,132.6157 L581.249,131.3206 L581.086,130.042 L580.922,128.7635 L580.75,127.5012 L580.578,126.2395 L580.398,124.9927 L580.217,123.7451 L580.028,122.5142 L579.839,121.283 L579.641,120.0679 L579.443,118.8533 L579.237,117.6533 L579.031,116.4529 L578.816,115.2683 L578.601,114.0838 L578.377,112.9151 L578.153,111.7466 L577.921,110.5928 L577.689,109.4383 L577.448,108.2996 L577.208,107.1607 L576.959,106.0376 L576.709,104.9148 L576.452,103.8059 L576.194,102.6968 L575.929,101.6031 L575.663,100.5091 L575.388,99.4304 L575.114,98.3523 L574.832,97.2879 L574.549,96.2232 L574.258,95.1734 L573.967,94.1236 L573.668,93.0886 L573.369,92.0542 L573.062,91.0335 L572.755,90.0122 L572.439,89.0056 L572.123,87.999 L571.799,87.0071 L571.475,86.0157 L571.144,85.0376 L570.812,84.0589 L570.472,83.0948 L570.132,82.1306 L569.783,81.1807 L569.435,80.2298 L568.724,78.3587 L567.995,76.5135 L567.25,74.697 L566.49,72.9062 L565.714,71.1425 L564.922,69.4071 L564.114,67.6967 L563.291,66.013 L562.451,64.357 L561.597,62.7255 L560.727,61.12 L559.84,59.5418 L558.94,57.9875 L558.024,56.4588 L557.092,54.9567 L556.146,53.4781 L555.184,52.0246 L554.207,50.5971 L553.215,49.1925 L552.208,47.8125 L551.186,46.458 L550.151,45.126 L549.099,43.818 L548.033,42.5349 L546.953,41.2738 L545.859,40.0363 L544.749,38.823 L543.626,37.6313 L542.488,36.4626 L541.336,35.3175 L540.171,34.1936 L538.99,33.0921 L537.796,32.0138 L536.588,30.9561 L535.366,29.9202 L534.131,28.9069 L532.882,27.9137 L531.62,26.9418 L530.343,25.9921 L529.054,25.0618 L527.751,24.1522 L526.435,23.2642 L525.107,22.3952 L523.764,21.5464 L522.409,20.718 L521.041,19.9081 L519.66,19.1179 L518.266,18.348 L516.86,17.596 L515.441,16.8631 L514.006,16.1483 L512.561,15.4626 L511.111,14.7752 L509.636,14.1248 L508.161,13.4749 L506.66,12.8611 L505.161,12.2481 L503.639,11.6674 L502.116,11.0866 L500.569,10.5406 L499.022,9.9947 L497.45,9.4828 L495.879,8.9716 L494.287,8.4904 L492.693,8.0092 L491.076,7.5603 L489.459,7.1116 L487.819,6.6944 L486.179,6.2776 L484.519,5.8887 L482.858,5.4999 L481.173,5.141 L479.489,4.7825 L477.782,4.453 L476.076,4.1239 L474.35,3.8207 L472.623,3.5174 L470.874,3.2418 L469.125,2.9665 L467.354,2.7179 L465.584,2.4695 L463.795,2.2449 L462.005,2.0203 L460.192,1.8211 L458.381,1.6219 L456.548,1.4473 L454.717,1.2727 L452.866,1.1198 L451.015,0.9667 L449.143,0.8367 L447.271,0.7067 L445.379,0.5989 L443.488,0.4911 L441.578,0.4029 L439.668,0.3146 L437.738,0.2471 L435.809,0.1796 L433.859,0.132 L431.911,0.0843 L429.945,0.054 L427.978,0.0238 L425.993,0.0119 L424.007,0 L422.003,0.0056 L420.001,0.0113 L418.988,0.0216 L417.979,0.0321 L416.971,0.0429 L415.959,0.0543 L414.937,0.074 L413.92,0.0934 L412.902,0.1129 L411.881,0.1326 L410.851,0.1598 L409.825,0.1869 L408.798,0.214 L407.768,0.2411 L406.731,0.2749 L405.696,0.3086 L404.661,0.3423 L403.624,0.376 L402.577,0.4167 L401.534,0.4572 L400.491,0.4977 L399.444,0.5384 L398.39,0.5854 L397.337,0.6324 L396.285,0.6793 L395.231,0.7263 L394.169,0.779 L393.109,0.8313 L392.049,0.8838 L390.987,0.9364 L389.917,0.9947 L388.849,1.0528 L387.78,1.111 L386.71,1.1692 L385.631,1.2327 L384.555,1.2962 L383.479,1.3595 L382.401,1.4231 L381.315,1.491 L380.232,1.5591 L379.148,1.6272 L378.062,1.6956 L376.969,1.7685 L375.877,1.8412 L374.786,1.914 L373.692,1.9868 L372.591,2.0637 L371.492,2.1407 L370.392,2.2174 L369.292,2.2943 L368.184,2.3747 L367.078,2.455 L365.971,2.5352 L364.863,2.6155 L363.748,2.6992 L362.634,2.7829 L361.52,2.8665 L360.405,2.9501 L359.283,3.0368 L358.161,3.1233 L357.04,3.2099 L355.918,3.2965 L354.789,3.3854 L353.661,3.4744 L352.533,3.5633 L351.404,3.6521 L350.268,3.7433 L349.133,3.8344 L347.998,3.9256 L346.862,4.0166 L345.719,4.1095 L344.577,4.2024 L343.435,4.2946 L342.292,4.3865 L341.143,4.4798 L339.995,4.5729 L338.846,4.6662 L337.697,4.7594 L336.542,4.8537 L335.386,4.9479 L334.231,5.0421 L333.076,5.1364 L331.914,5.2312 L330.752,5.3261 L329.59,5.4209 L328.428,5.5159 L327.26,5.6109 L326.092,5.706 L324.924,5.8011 L323.757,5.8961 L322.583,5.9911 L321.409,6.0861 L320.235,6.1811 L319.061,6.2759 L317.881,6.3703 L316.701,6.4647 L315.52,6.5591 L314.34,6.6535 L313.155,6.747 L311.969,6.8406 L310.783,6.9341 L309.598,7.0277 L308.406,7.1199 L307.214,7.2119 L306.023,7.304 L304.832,7.3958 L303.635,7.486 L302.437,7.5762 L301.239,7.6665 L300.043,7.7567 L298.84,7.845 L297.638,7.9334 L296.435,8.0216 L295.233,8.11 L294.026,8.1958 L292.817,8.2816 L291.609,8.3676 L290.402,8.4534 L289.189,8.5364 L287.975,8.6194 L286.762,8.7024 L285.546,8.7855 L284.5,8.8622 L283.456,8.9387 L282.412,9.0153 L281.363,9.0922 L280.318,9.1828 L279.279,9.2729 L278.24,9.3629 L277.196,9.4535 L276.156,9.557 L275.122,9.6601 L274.087,9.7631 L273.048,9.8667 L272.013,9.9816 L270.982,10.0959 L269.952,10.21 L268.916,10.3249 L267.885,10.4516 L266.858,10.5777 L265.832,10.7039 L264.801,10.8306 L263.774,10.9687 L262.751,11.1062 L261.729,11.2437 L260.702,11.3817 L259.679,11.5296 L258.66,11.6769 L257.641,11.8241 L256.618,11.9721 L255.598,12.1304 L254.583,12.288 L253.568,12.4455 L252.548,12.6038 L251.532,12.7716 L250.52,12.939 L249.508,13.1062 L248.493,13.2741 L247.48,13.4503 L246.471,13.6259 L245.462,13.8015 L244.449,13.9777 L243.44,14.1626 L242.433,14.3468 L241.428,14.5312 L240.418,14.716 L239.411,14.909 L238.408,15.1012 L237.405,15.2935 L236.399,15.4864 L235.396,15.6861 L234.395,15.885 L233.394,16.084 L232.39,16.2837 L231.389,16.4903 L230.391,16.6963 L229.392,16.9024 L228.391,17.1089 L227.393,17.3219 L226.397,17.5343 L225.401,17.7467 L224.403,17.9596 L223.406,18.1779 L222.412,18.3957 L221.418,18.6134 L220.422,18.8317 L219.427,19.0553 L218.435,19.2785 L217.443,19.5016 L216.449,19.7252 L215.456,19.9535 L214.466,20.1814 L213.475,20.4093 L212.483,20.6377 L211.492,20.8717 L210.503,21.1051 L209.515,21.3386 L208.526,21.572 L207.538,21.8054 L206.55,22.039 L205.561,22.2724 L204.57,22.5065 L203.581,22.747 L202.595,22.9867 L201.609,23.2266 L200.623,23.4665 L199.637,23.7062 L198.651,23.9458 L197.665,24.1856 L196.677,24.4257 L195.691,24.6697 L194.706,24.9134 L193.722,25.1571 L192.737,25.4008 L191.753,25.6444 L190.768,25.8881 L189.783,26.1317 L188.798,26.3756 L187.814,26.6212 L186.83,26.8666 L185.846,27.112 L184.862,27.3573 L183.879,27.6027 L182.895,27.848 L181.911,28.0934 L180.927,28.3388 L179.944,28.5843 L178.96,28.8296 L177.976,29.075 L176.992,29.3203 L176.009,29.5657 L175.025,29.8111 L174.041,30.0564 L173.059,30.3014 L172.076,30.5418 L171.091,30.7825 L170.106,31.0233 L169.121,31.2642 L168.137,31.505 L167.151,31.7459 L166.167,31.9867 L165.182,32.2274 L164.197,32.4683 L163.212,32.7091 L162.227,32.95 L161.242,33.1908 L160.257,33.4317 L159.272,33.6725 L158.287,33.9132 L157.308,34.1527 L156.325,34.3781 L155.335,34.6048 L154.346,34.8314 L153.356,35.0581 L152.367,35.2849 L151.378,35.5116 L150.388,35.7383 L149.399,35.965 L148.409,36.1918 L147.42,36.4185 L146.431,36.6452 L145.441,36.872 L144.452,37.0987 L143.462,37.3253 L142.473,37.552 L141.488,37.7777 L140.5,37.9917 L139.507,38.2068 L138.514,38.4218 L137.523,38.6364 L136.53,38.8448 L135.535,39.0536 L134.54,39.2626 L133.548,39.471 L132.553,39.6725 L131.556,39.8748 L130.558,40.0769 L129.564,40.2786 L128.567,40.4737 L127.567,40.6692 L126.568,40.8648 L125.571,41.0597 L124.573,41.247 L123.57,41.4348 L122.568,41.6226 L121.57,41.8097 L120.568,41.9886 L119.563,42.168 L118.558,42.3474 L117.557,42.5263 L116.553,42.697 L115.545,42.8683 L114.537,43.0397 L113.534,43.2104 L112.527,43.3716 L111.516,43.5336 L110.505,43.6955 L109.499,43.8567 L108.489,44.008 L107.475,44.1598 L106.461,44.3118 L105.451,44.463 L104.438,44.6048 L103.42,44.7471 L102.403,44.8894 L101.39,45.031 L100.374,45.1618 L99.353,45.293 L98.332,45.4242 L97.316,45.5548 L96.296,45.6739 L95.271,45.7934 L94.246,45.913 L93.221,46.0325 C92.764,46.086 92.436,46.5001 92.489,46.9578 C92.543,47.4153 92.957,47.7431 93.415,47.6896 L94.44,47.5701 L95.464,47.4506 L96.489,47.3311 L97.519,47.2111 L98.545,47.0793 L99.566,46.948 L100.587,46.8169 L101.612,46.6851 L102.634,46.5423 L103.651,46.4001 L104.669,46.2578 L105.69,46.115 L106.708,45.9626 L107.722,45.8107 L108.736,45.6588 L109.755,45.5064 L110.769,45.3439 L111.78,45.182 L112.791,45.0202 L113.806,44.8577 L114.817,44.6858 L115.825,44.5146 L116.832,44.3433 L117.843,44.1714 L118.852,43.9914 L119.857,43.812 L120.862,43.6327 L121.87,43.4527 L122.876,43.2643 L123.878,43.0766 L124.88,42.8888 L125.886,42.7005 L126.889,42.5043 L127.888,42.3087 L128.888,42.1132 L129.89,41.9171 L130.89,41.7144 L131.888,41.5124 L132.885,41.3102 L133.885,41.1074 L134.883,40.898 L135.879,40.6891 L136.874,40.4803 L137.871,40.2709 L138.867,40.0553 L139.86,39.8402 L140.854,39.6253 L141.852,39.4092 L142.846,39.1814 L143.836,38.9547 L144.825,38.7282 L145.814,38.5015 L146.804,38.2748 L147.793,38.0481 L148.783,37.8216 L149.772,37.5949 L150.762,37.3682 L151.751,37.1415 L152.74,36.9149 L153.73,36.6883 L154.719,36.4616 L155.709,36.2349 L156.698,36.0083 L157.693,35.7802 L158.684,35.5381 L159.669,35.2973 L160.654,35.0565 L161.639,34.8158 L162.624,34.575 L163.609,34.3343 L164.594,34.0935 L165.579,33.8527 L166.564,33.612 L167.549,33.3712 L168.534,33.1304 L169.519,32.8897 L170.504,32.649 L171.489,32.4081 L172.474,32.1674 L173.461,31.9262 L174.446,31.6803 L175.43,31.4351 L176.414,31.1897 L177.397,30.9445 L178.381,30.6991 L179.365,30.4538 L180.349,30.2085 L181.332,29.9632 L182.316,29.7179 L183.3,29.4726 L184.284,29.2272 L185.267,28.982 L186.251,28.7366 L187.235,28.4914 L188.219,28.246 L189.202,28.0009 L190.186,27.7575 L191.17,27.5138 L192.155,27.2702 L193.139,27.0266 L194.124,26.783 L195.109,26.5395 L196.093,26.2958 L197.076,26.0526 L198.06,25.8134 L199.047,25.5738 L200.033,25.3341 L201.019,25.0946 L202.005,24.8551 L202.991,24.6157 L203.977,24.3762 L204.961,24.1375 L205.946,23.9049 L206.935,23.6719 L207.923,23.4389 L208.912,23.2057 L209.901,22.9727 L210.889,22.7395 L211.878,22.5065 L212.864,22.274 L213.852,22.047 L214.842,21.8195 L215.833,21.5919 L216.821,21.3649 L217.812,21.1426 L218.804,20.9198 L219.796,20.697 L220.786,20.4748 L221.778,20.2578 L222.772,20.0404 L223.766,19.823 L224.758,19.6061 L225.752,19.3946 L226.748,19.1825 L227.744,18.9704 L228.737,18.7589 L229.733,18.5539 L230.731,18.3482 L231.73,18.1425 L232.725,17.9375 L233.723,17.7394 L234.724,17.5408 L235.724,17.3421 L236.723,17.1441 L237.723,16.9529 L238.726,16.7613 L239.729,16.5695 L240.729,16.3784 L241.732,16.1955 L242.738,16.0117 L243.744,15.828 L244.746,15.645 L245.752,15.4707 L246.761,15.2957 L247.77,15.1206 L248.776,14.9462 L249.784,14.7802 L250.796,14.6134 L251.808,14.4467 L252.816,14.2807 L253.828,14.1244 L254.843,13.9673 L255.858,13.8103 L256.87,13.6541 L257.884,13.508 L258.903,13.3612 L259.922,13.2145 L260.937,13.0684 L261.955,12.932 L262.978,12.7952 L264,12.6584 L265.018,12.522 L266.04,12.3971 L267.066,12.2715 L268.092,12.146 L269.114,12.021 L270.139,11.908 L271.17,11.7943 L272.201,11.6807 L273.226,11.5678 L274.256,11.4661 L275.291,11.3639 L276.325,11.2617 L277.354,11.1602 L278.388,11.0714 L279.427,10.9823 L280.466,10.8931 L281.499,10.8043 L282.537,10.7292 L283.581,10.6536 L284.625,10.578 L285.666,10.5025 L286.878,10.4207 L288.092,10.3386 L289.306,10.2567 L290.521,10.1746 L291.731,10.0897 L292.939,10.0048 L294.148,9.9199 L295.357,9.8351 L296.561,9.7477 L297.764,9.6603 L298.967,9.573 L300.17,9.4856 L301.369,9.3964 L302.567,9.3072 L303.765,9.2179 L304.963,9.1287 L306.156,9.0376 L307.348,8.9467 L308.54,8.8559 L309.732,8.7653 L310.919,8.6732 L312.105,8.5813 L313.291,8.4895 L314.477,8.3975 L315.659,8.3047 L316.839,8.2121 L318.019,8.1193 L319.2,8.0265 L320.375,7.9331 L321.549,7.8399 L322.724,7.7465 L323.898,7.6532 L325.067,7.5597 L326.234,7.4663 L327.402,7.3728 L328.57,7.2794 L329.733,7.1862 L330.895,7.0929 L332.057,6.9998 L333.219,6.9065 L334.374,6.8139 L335.53,6.7212 L336.685,6.6287 L337.84,6.536 L338.989,6.4445 L340.138,6.3528 L341.286,6.2613 L342.435,6.1697 L343.577,6.0794 L344.719,5.9892 L345.862,5.8998 L347.004,5.8105 L348.139,5.7229 L349.275,5.6353 L350.41,5.5476 L351.545,5.4601 L352.672,5.3747 L353.801,5.2892 L354.929,5.2038 L356.057,5.1184 L357.178,5.0353 L358.3,4.9522 L359.421,4.869 L360.542,4.786 L361.655,4.7058 L362.77,4.6256 L363.884,4.5454 L364.997,4.4654 L366.103,4.3886 L367.209,4.3117 L368.316,4.2349 L369.422,4.1581 L370.52,4.0846 L371.62,4.0111 L372.72,3.9376 L373.818,3.8643 L374.908,3.7949 L376,3.7256 L377.092,3.6562 L378.182,3.5869 L379.264,3.5221 L380.348,3.4572 L381.432,3.3921 L382.514,3.3269 L383.589,3.2663 L384.665,3.2055 L385.742,3.1446 L386.816,3.0839 L387.882,3.0285 L388.951,2.9728 L390.019,2.9173 L391.085,2.8618 L392.142,2.812 L393.202,2.7621 L394.262,2.7122 L395.32,2.6624 L396.37,2.6181 L397.422,2.5736 L398.474,2.5292 L399.523,2.4849 L400.564,2.447 L401.607,2.409 L402.651,2.371 L403.691,2.333 L404.723,2.3019 L405.758,2.2708 L406.792,2.2395 L407.824,2.2085 L408.848,2.1839 L409.874,2.1593 L410.901,2.1347 L411.924,2.1101 L412.938,2.093 L413.956,2.076 L414.973,2.0589 L415.987,2.0419 L416.991,2.0329 L418,2.023 L419.008,2.0128 L420.011,2.0027 L422.009,1.9976 L424.004,1.9925 L425.981,2.0048 L427.957,2.0171 L429.914,2.0478 L431.871,2.0783 L433.81,2.1262 L435.749,2.1741 L437.668,2.2417 L439.587,2.3094 L441.486,2.3976 L443.385,2.4857 L445.265,2.5934 L447.145,2.7008 L449.004,2.8305 L450.863,2.9601 L452.701,3.1126 L454.539,3.265 L456.359,3.4392 L458.176,3.6133 L459.973,3.8117 L461.77,4.0099 L463.545,4.2335 L465.32,4.4571 L467.075,4.7041 L468.829,4.9511 L470.561,5.2248 L472.293,5.4982 L474.002,5.7992 L475.712,6.1002 L477.401,6.427 L479.089,6.7534 L480.754,7.1088 L482.418,7.4641 L484.06,7.8491 L485.701,8.2343 L487.322,8.6471 L488.941,9.0596 L490.536,9.5036 L492.131,9.9473 L493.702,10.4231 L495.274,10.8991 L496.823,11.4048 L498.371,11.9101 L499.895,12.4489 L501.418,12.9875 L502.916,13.5603 L504.415,14.1334 L505.892,14.7386 L507.366,15.3428 L508.816,15.9829 L510.265,16.6228 L511.689,17.2993 L513.116,17.9776 L514.52,18.678 L515.912,19.3983 L517.292,20.138 L518.66,20.8949 L520.014,21.6708 L521.356,22.4666 L522.685,23.2804 L524,24.114 L525.301,24.9682 L526.591,25.8407 L527.866,26.7333 L529.129,27.647 L530.379,28.5797 L531.614,29.533 L532.836,30.508 L534.046,31.5025 L535.24,32.5182 L536.422,33.5563 L537.591,34.6144 L538.745,35.6942 L539.885,36.7971 L541.013,37.9207 L542.126,39.0664 L543.225,40.236 L544.311,41.4265 L545.381,42.6402 L546.439,43.878 L547.482,45.1376 L548.51,46.4207 L549.525,47.7287 L550.526,49.059 L551.511,50.4135 L552.483,51.7935 L553.44,53.1963 L554.382,54.6239 L555.31,56.0778 L556.224,57.555 L557.122,59.0575 L558.005,60.5869 L558.874,62.1403 L559.728,63.7196 L560.566,65.3264 L561.39,66.9577 L562.199,68.6156 L562.992,70.3014 L563.77,72.0125 L564.533,73.7506 L565.279,75.5176 L566.012,77.3098 L566.728,79.1302 L567.428,80.9817 L567.771,81.9178 L568.113,82.8553 L568.448,83.8074 L568.782,84.7595 L569.109,85.7261 L569.435,86.6934 L569.754,87.6739 L570.073,88.6538 L570.383,89.6487 L570.694,90.6436 L570.996,91.6533 L571.298,92.6636 L571.593,93.6875 L571.888,94.711 L572.174,95.7493 L572.461,96.7879 L572.739,97.8416 L573.017,98.8958 L573.287,99.9636 L573.558,101.0313 L573.819,102.1143 L574.082,103.1973 L574.335,104.2957 L574.588,105.3948 L574.834,106.5078 L575.08,107.6204 L575.317,108.7488 L575.553,109.8772 L575.782,111.0213 L576.01,112.1658 L576.231,113.3247 L576.451,114.4834 L576.664,115.6577 L576.876,116.8323 L577.079,118.0227 L577.282,119.2139 L577.477,120.4195 L577.672,121.6248 L577.859,122.8465 L578.046,124.0679 L578.223,125.3057 L578.401,126.5442 L578.571,127.7974 L578.74,129.0503 L578.901,130.3196 L579.062,131.5891 L579.213,132.8753 L579.365,134.1616 L579.509,135.4634 L579.652,136.7647 L579.787,138.0828 L579.922,139.4009 L580.047,140.7361 L580.173,142.0774 L580.306,143.4346 L580.467,144.8855 L580.653,146.4192 L580.86,148.0249 L581.087,149.7073 L581.332,151.461 L581.59,153.2761 L581.861,155.1555 L582.142,157.0948 L582.285,158.0896 L582.429,159.084 L582.575,160.105 L582.721,161.1253 L582.868,162.1697 L583.015,163.2136 L583.162,164.2779 L583.308,165.3413 L583.454,166.4248 L583.599,167.5078 L583.741,168.6087 L583.884,169.7093 L584.023,170.8242 L584.162,171.9385 L584.295,173.0664 L584.428,174.1939 L584.555,175.3328 L584.682,176.4717 L584.802,177.6192 L584.921,178.7657 L585.032,179.9197 L585.142,181.073 L585.242,182.2315 L585.342,183.3902 L585.431,184.5513 L585.52,185.7117 L585.597,186.8731 L585.673,188.0337 L585.735,189.1934 L585.797,190.3531 L585.845,191.5095 L585.893,192.6651 L585.924,193.8152 L585.955,194.9646 L585.968,196.1062 L585.981,197.2483 L585.976,198.3816 L585.971,199.5132 L585.946,200.6333 L585.921,201.7525 L585.873,202.8577 L585.826,203.9632 L585.758,205.054 L585.69,206.1431 L585.597,207.21389 L585.505,208.28396 L585.387,209.33352 L585.269,210.38333 L585.127,211.41287 L584.984,212.43997 L584.815,213.44265 L584.645,214.44412 L584.445,215.41848 L584.246,216.39846 L584.027,217.34842 L583.793,218.2864 L583.542,219.2095 L583.277,220.11697 L582.997,221.00637 L582.7,221.87918 L582.388,222.73538 L582.06,223.57132 L581.713,224.38943 L581.352,225.18924 L580.973,225.9678 L580.576,226.72659 L580.163,227.46609 L579.733,228.18264 L579.283,228.8782 L578.817,229.55349 L578.332,230.20413 L577.827,230.83303 L577.305,231.44046 L576.764,232.02249 L576.201,232.58133 L575.621,233.11795 L575.021,233.62796 L574.4,234.11282 L573.512,234.75271 L572.629,235.39065 L571.708,236.00296 L570.785,236.61575 L569.826,237.20315 L568.864,237.79226 L567.87,238.35867 L566.876,238.92459 L565.847,239.46585 L564.817,240.00784 L563.752,240.52566 L562.685,241.04446 L561.587,241.54153 L560.489,242.03836 L559.359,242.51199 L558.227,242.98587 L557.063,243.43655 L555.897,243.88821 L554.702,244.31887 L553.508,244.74954 L552.282,245.15799 L551.056,245.56668 L549.8,245.9534 L548.542,246.34085 L547.257,246.70852 L545.973,247.0762 L544.66,247.42288 L543.346,247.76956 L542.005,248.09573 L540.662,248.42215 L539.295,248.73025 L537.927,249.03836 L536.534,249.3262 L535.14,249.61453 L533.72,249.88333 L532.299,250.15237 L530.856,250.40384 L529.413,250.65554 L527.945,250.88845 L526.478,251.12136 L524.987,251.33621 L523.495,251.55105 L521.983,251.74978 L520.471,251.94827 L518.937,252.12918 L517.403,252.31033 L515.848,252.47415 L514.293,252.63821 L512.718,252.78714 L511.145,252.93631 L509.551,253.06887 L507.958,253.20169 L506.346,253.31863 L504.733,253.43582 L503.104,253.53884 L501.475,253.64212 L499.829,253.73001 L498.183,253.81839 L496.521,253.89187 L494.858,253.9656 L493.181,254.02639 L491.505,254.08718 L489.813,254.1343 L488.122,254.18142 L486.416,254.21511 L484.71,254.24881 L482.992,254.27053 L481.275,254.29226 L479.545,254.30154 L477.815,254.31082 L476.072,254.30813 L474.332,254.30545 L472.577,254.28689 L470.817,254.26858 L469.057,254.25003 L467.304,254.23172 L465.533,254.19168 L463.754,254.15139 L461.976,254.11135 L460.204,254.07132 L458.417,254.0115 L456.623,253.95144 L454.829,253.89163 L453.041,253.83181 L451.242,253.7554 L449.438,253.67874 L447.633,253.60208 L445.834,253.52566 L444.026,253.43289 L442.212,253.33963 L440.399,253.24636 L438.589,253.15335 L436.775,253.04544 L434.956,252.93753 L433.137,252.82937 L431.321,252.72171 L429.504,252.60183 L427.682,252.48172 L425.86,252.3616 L424.042,252.24173 L422.225,252.11038 L420.404,251.97879 L418.582,251.84719 L416.765,251.7156 L414.95,251.57449 L413.133,251.43313 L411.315,251.29177 L409.5,251.15091 L407.691,251.00247 L405.88,250.85379 L404.068,250.7051 L402.26,250.55667 L400.46,250.40164 L398.659,250.24661 L396.857,250.09134 L395.057,249.93631 L393.271,249.77664 L391.482,249.61648 L389.694,249.45657 L387.906,249.2969 L386.13,249.13455 L384.352,248.97244 L382.584,248.80911 L380.816,248.64578 L379.057,248.48172 L377.298,248.31765 L375.548,248.15359 L373.799,247.98953 L372.06,247.82571 L370.322,247.66189 L368.595,247.49881 L366.869,247.33548 L365.153,247.17312 L363.438,247.01052 L361.737,246.84964 L360.035,246.6885 L358.348,246.52908 L356.66,246.3699 L354.986,246.21243 L353.312,246.0552 L351.654,245.90066 L349.996,245.74588 L348.355,245.59426 L346.713,245.44241 L345.088,245.29397 L343.462,245.14553 L341.854,245.00076 L340.246,244.85623 L338.658,244.71609 L337.069,244.57571 L335.498,244.43997 L333.927,244.30398 L332.376,244.17312 L330.826,244.04226 L329.297,243.91702 L327.767,243.79177 L326.258,243.67215 L324.749,243.55227 L323.262,243.43875 L321.776,243.32547 L320.312,243.21878 L318.849,243.11209 L317.409,243.01223 L315.968,242.91214 L314.552,242.81961 L313.136,242.72732 L311.745,242.64285 L310.356,242.55862 L308.99,242.48196 L307.624,242.40554 L306.285,242.33767 L304.946,242.27005 L303.636,242.2117 L302.326,242.15335 L301.042,242.10403 L299.757,242.05471 L298.503,242.01541 L297.247,241.9761 L296.023,241.94754 L294.799,241.91897 L293.604,241.90042 L292.407,241.88186 L291.243,241.87478 L290.078,241.8677 L288.947,241.87259 L287.815,241.87722 L286.714,241.89334 L285.613,241.90945 L284.545,241.93826 L283.477,241.96731 L282.445,242.0093 L281.41,242.05154 L280.103,242.12454 L278.718,242.22488 L277.259,242.35134 L275.734,242.50076 L274.136,242.67459 L272.47,242.87185 L270.741,243.08938 L268.944,243.32888 L267.082,243.58914 L265.163,243.86721 L263.181,244.16433 L262.158,244.32205 L261.137,244.47976 L260.089,244.64529 L259.04,244.81082 L257.963,244.98465 L256.886,245.15847 L255.781,245.34011 L254.676,245.52176 L253.546,245.70999 L252.416,245.89846 L251.26,246.09378 L250.104,246.28909 L248.923,246.49099 L247.741,246.69265 L246.537,246.89993 L245.334,247.10745 L244.106,247.32034 L242.879,247.53347 L241.628,247.75174 L240.378,247.96975 L239.107,248.19241 L237.837,248.41507 L236.545,248.64187 L235.253,248.86892 L233.941,249.09964 L232.628,249.33059 L231.298,249.56472 L229.968,249.79837 L228.619,250.03518 L227.27,250.27224 L225.904,250.5115 L224.537,250.751 L223.155,250.99246 L221.773,251.23391 L220.374,251.47732 L218.976,251.72049 L217.562,251.96487 L216.149,252.2095 L214.715,252.4551 L213.282,252.70071 L211.848,252.94632 L210.415,253.19192 L208.957,253.43753 L207.497,253.68338 L206.037,253.92923 L204.58,254.17483 L203.099,254.41848 L201.617,254.66262 L200.135,254.90676 L198.655,255.15066 L197.158,255.39138 L195.658,255.63259 L194.159,255.87307 L192.662,256.11306 L191.15,256.34817 L189.634,256.58352 L188.119,256.81912 L186.607,257.05398 L185.082,257.28201 L183.555,257.51052 L182.027,257.73904 L180.503,257.96707 L178.971,258.18728 L177.435,258.40799 L175.899,258.62869 L174.368,258.8489 L172.831,259.05886 L171.29,259.26931 L169.748,259.47976 L168.212,259.68972 L166.673,259.88748 L165.13,260.08596 L163.587,260.28421 L162.048,260.48196 L160.511,260.66726 L158.969,260.85305 L157.427,261.03884 L155.891,261.22366 L154.359,261.39309 L152.821,261.5635 L151.284,261.73367 L149.753,261.9031 L148.23,262.0552 L146.701,262.20828 L145.171,262.36111 L143.647,262.51345 L142.13,262.6531 L140.611,262.793 L139.1,262.92288 L137.589,263.05276 L136.085,263.17239 L134.581,263.29202 L133.084,263.40188 L131.588,263.5115 L130.101,263.61013 L128.615,263.70877 L127.138,263.79568 L125.661,263.88259 L124.194,263.95877 L122.728,264.03469 L121.274,264.09842 L119.819,264.16214 L118.377,264.21292 L116.935,264.2637 L115.505,264.30227 L114.076,264.34085 L112.661,264.36575 L111.247,264.39065 L109.848,264.40139 L108.448,264.41214 L107.063,264.40945 L105.678,264.40701 L104.311,264.38943 L102.944,264.37185 L101.594,264.33865 L100.245,264.30569 L98.911,264.25808 L97.579,264.21072 L96.267,264.147 L94.955,264.08328 L93.663,264.00271 L92.371,263.92239 L91.098,263.82644 L89.826,263.7305 L88.576,263.61697 L87.327,263.50369 L86.1,263.37234 L84.873,263.24124 L83.667,263.09353 L82.463,262.94583 L81.284,262.77957 L80.105,262.61331 L78.952,262.42776 L77.797,262.24246 L76.667,262.03884 L75.539,261.83596 L74.437,261.61306 L73.337,261.39041 L72.264,261.147 L71.191,260.90384 L70.144,260.64163 L69.099,260.38015 L68.083,260.09744 L67.069,259.81521 L66.085,259.51126 L65.1,259.2073 L64.144,258.88333 L63.19,258.56033 L62.269,258.21511 L61.356,257.87356 L59.572,257.13577 L57.86,256.36062 L56.221,255.54129 L54.652,254.67483 L53.151,253.76687 L51.728,252.81424 L50.367,251.80276 L49.732,251.29568 L49.105,250.76785 L48.497,250.22683 L47.907,249.67459 L47.338,249.1116 L46.786,248.53152 L45.942,247.61502 L45.096,246.69583 L44.268,245.78152 L43.44,244.86697 L42.631,243.95755 L41.821,243.04739 L41.028,242.14187 L40.236,241.2366 L39.462,240.33621 L38.688,239.43557 L37.932,238.54007 L37.176,237.64383 L36.437,236.75198 L35.698,235.86087 L34.977,234.97415 L34.256,234.08767 L33.553,233.20584 L32.85,232.32376 L32.163,231.44558 L31.476,230.56839 L30.808,229.69558 L30.139,228.82278 L29.488,227.95486 L28.837,227.08645 L28.202,226.22244 L27.567,225.35891 L26.949,224.50003 L26.332,223.64138 L25.732,222.78738 L25.132,221.93264 L24.547,221.0823 L23.963,220.23269 L23.396,219.38748 L22.83,218.54251 L22.28,217.70218 L21.73,216.86111 L21.196,216.02444 L20.664,215.1907 L19.629,213.52566 L18.628,211.87161 L17.659,210.22586 L16.723,208.59036 L15.821,206.9634 L14.948,205.345 L14.109,203.7366 L13.303,202.1365 L12.526,200.5449 L11.781,198.9634 L11.069,197.3904 L10.386,195.8257 L9.735,194.271 L9.115,192.7246 L8.524,191.1866 L7.964,189.6585 L7.436,188.1387 L6.935,186.627 L6.465,185.1255 L6.026,183.6319 L5.614,182.1465 L5.232,180.6714 L4.88,179.2039 L4.555,177.7447 L4.26,176.2952 L3.994,174.8535 L3.754,173.4199 L3.543,171.9961 L3.361,170.5801 L3.205,169.1719 L3.077,167.7735 L2.977,166.3824 L2.903,164.999 L2.857,163.6255 L2.838,162.2591 L2.844,160.9004 L2.877,159.5513 L2.938,158.209 L3.023,156.8745 L3.134,155.5493 L3.272,154.2312 L3.434,152.9202 L3.622,151.6187 L3.837,150.3238 L4.074,149.0359 L4.337,147.7574 L4.626,146.4851 L4.937,145.2202 L5.274,143.9641 L5.636,142.7146 L6.02,141.4717 L6.429,140.2378 L6.862,139.0103 L7.318,137.7893 L7.797,136.5772 L8.301,135.3711 L8.827,134.1717 L9.375,132.9807 L9.948,131.7962 L10.542,130.6179 L11.159,129.448 L11.8,128.2845 L12.461,127.1272 L13.145,125.9783 L13.849,124.8401 L14.591,123.7019 L15.328,122.5694 L16.109,121.4517 L16.891,120.3333 L17.716,119.2295 L18.543,118.1236 L19.409,117.031 L20.273,115.9392 L21.18,114.8621 L22.087,113.7845 L23.036,112.721 L23.985,111.6558 L24.973,110.6035 L25.959,109.552 L26.985,108.5149 L28.012,107.4773 L29.078,106.4539 L30.146,105.4287 L31.249,104.4165 L32.351,103.4048 L33.491,102.4075 L34.632,101.4095 L35.81,100.4253 L36.99,99.4405 L38.203,98.4685 L39.416,97.4969 L40.664,96.5391 L41.913,95.5811 L43.197,94.6367 L44.483,93.6914 L45.8,92.7583 L47.117,91.826 L48.467,90.9073 L49.818,89.9881 L51.202,89.0825 L52.587,88.1761 L54.002,87.2818 L55.416,86.388 L56.862,85.5076 L58.308,84.627 L59.786,83.7595 L61.264,82.8916 L62.771,82.0357 L64.276,81.18 L65.812,80.3374 L67.348,79.4947 L68.912,78.6648 L70.478,77.8345 L72.07,77.0161 L73.661,76.198 L75.28,75.3928 L76.899,74.5873 L78.545,73.7948 L80.192,73.0017 L81.862,72.2204 L83.533,71.4391 L85.229,70.6707 L86.925,69.9021 L88.646,69.1461 L90.368,68.3897 L92.111,67.6447 L93.855,66.8999 L95.621,66.1676 L97.388,65.4352 L99.178,64.715 L100.968,63.9939 L102.779,63.2841 L104.588,62.5744 L106.42,61.8769 L108.251,61.1793 L110.103,60.4938 L111.956,59.8081 L113.827,59.1333 L115.699,58.4578 L116.639,58.1284 L117.587,57.7959 L118.535,57.4634 L119.477,57.1332 L120.428,56.8089 L121.385,56.4823 L122.343,56.1558 L123.294,55.8312 L124.254,55.5119 L125.22,55.1907 L126.185,54.8697 L127.144,54.5504 L128.112,54.2372 L129.087,53.9219 L130.06,53.6066 L131.029,53.2932 L132.005,52.9857 L132.987,52.6763 L133.969,52.3665 L134.946,52.0583 L135.93,51.7553 L136.919,51.4507 L137.909,51.146 L138.892,50.8432 L139.883,50.546 L140.88,50.2472 L141.877,49.9484 L142.868,49.6511 L143.867,49.3596 L144.87,49.0664 L145.874,48.7733 L146.873,48.4816 L147.879,48.195 L148.889,47.907 L149.899,47.619 L150.903,47.3325 L151.915,47.0515 L152.931,46.7692 L153.948,46.4868 L154.959,46.2058 L155.977,45.9304 L156.999,45.6537 L158.022,45.3769 L159.04,45.1012 L160.063,44.8307 L161.091,44.559 L162.119,44.2871 L163.142,44.0166 L164.17,43.7516 L165.203,43.4854 L166.237,43.2191 L167.265,42.954 L168.299,42.6945 L169.337,42.4336 L170.375,42.1729 L171.409,41.9132 L172.447,41.6584 L173.49,41.4025 L174.532,41.1468 L175.57,40.892 L176.613,40.6426 L177.66,40.3921 L178.706,40.1416 L179.749,39.8921 L180.795,39.648 L181.846,39.4029 L182.897,39.1577 L183.942,38.9138 L184.992,38.6773 L186.047,38.4392 L187.103,38.2012 L188.158,37.9633 L189.214,37.7252 L190.269,37.4873 L191.325,37.2493 L192.372,37.0132 L193.426,36.7874 L194.487,36.5597 L195.549,36.3322 L196.61,36.1045 L197.672,35.877 L198.733,35.6493 L199.795,35.4218 L200.848,35.1958 L201.906,34.98 L202.972,34.7627 L204.038,34.546 L205.104,34.3301 L206.17,34.114 L207.236,33.8981 L208.303,33.682 L209.362,33.4676 L210.424,33.262 L211.493,33.0552 L212.562,32.8483 L213.63,32.6414 L214.699,32.4346 L215.768,32.2277 L216.837,32.0209 L217.899,31.8155 L218.962,31.6198 L220.032,31.4229 L221.103,31.2259 L222.173,31.0288 L223.244,30.8319 L224.314,30.6349 L225.385,30.4379 L226.448,30.2422 L227.512,30.0562 L228.583,29.8689 L229.653,29.6817 L230.724,29.4943 L231.795,29.307 L232.865,29.1198 L233.936,28.9324 L235,28.7462 L236.064,28.5686 L237.133,28.39 L238.203,28.2113 L239.272,28.0327 L240.341,27.8527 L241.411,27.6728 L242.48,27.4928 L243.543,27.314 L244.603,27.1444 L245.67,26.9739 L246.736,26.8032 L247.803,26.6326 L248.87,26.4621 L249.937,26.2914 L251.004,26.1209 L252.064,25.9512 L253.12,25.7908 L254.183,25.6294 L255.245,25.4679 L256.308,25.3065 L257.371,25.145 L258.433,24.9837 L259.496,24.8222 L260.555,24.6614 L261.609,24.5067 L262.668,24.3515 L263.727,24.1962 L264.784,24.0414 L265.837,23.891 L266.893,23.7403 L267.949,23.5894 L269.002,23.4391 L270.051,23.2931 L271.104,23.1466 L272.157,23.0003 L273.206,22.8543 L274.253,22.7122 L275.302,22.5697 L276.351,22.4269 L277.397,22.2843 L278.439,22.1463 L279.484,22.0077 L280.529,21.869 L281.572,21.731 L282.609,21.5971 L283.65,21.4628 L284.69,21.3285 L285.728,21.1946 L286.762,21.0645 L287.798,20.9341 L288.834,20.8036 L289.867,20.6736 L290.895,20.5478 L291.926,20.4215 L292.957,20.2953 L293.986,20.1695 L295.008,20.0478 L296.034,19.9258 L297.059,19.8037 L298.082,19.6819 L299.099,19.564 L300.12,19.4457 L301.14,19.3274 L302.157,19.2094 L303.168,19.0955 L304.182,18.9812 L305.196,18.8671 L306.207,18.7531 L307.212,18.6432 L308.219,18.5331 L309.226,18.4229 L310.231,18.3129 L311.229,18.2067 L312.23,18.0999 L313.231,17.9931 L314.229,17.8866 L316.214,17.6812 L318.199,17.4757 L320.168,17.2782 L322.138,17.0806 L324.093,16.8899 L326.047,16.6994 L327.986,16.5164 L329.924,16.3334 L331.845,16.158 L333.765,15.9826 L335.67,15.814 L337.574,15.6453 L339.46,15.484 L341.345,15.3229 L343.211,15.1688 L345.078,15.0149 L346.925,14.8675 L348.773,14.7199 L350.6,14.5794 L352.426,14.4387 L354.231,14.3052 L356.037,14.1717 L357.822,14.0443 L359.606,13.9171 L361.368,13.7968 L363.13,13.6764 L364.868,13.5629 L366.606,13.4492 L368.322,13.3417 L370.038,13.2343 L371.728,13.1334 L373.419,13.0325 L375.083,12.9383 L376.748,12.8439 L378.389,12.7554 L380.03,12.6669 L381.643,12.5847 L383.256,12.5027 L384.841,12.4268 L386.427,12.3509 L387.986,12.2805 L389.545,12.2102 L391.075,12.146 L392.605,12.0819 L394.104,12.0237 L395.604,11.9655 L397.076,11.9127 L398.547,11.86 L399.987,11.813 L401.428,11.7661 L402.835,11.725 L404.243,11.6837 L405.621,11.6477 L406.999,11.6117 L408.343,11.5813 L409.687,11.5509 L410.997,11.526 L412.307,11.5011 L413.585,11.4812 L414.862,11.4612 L416.104,11.4466 L417.346,11.4319 L418.552,11.4225 L419.757,11.4131 L420.929,11.4085 L422.1,11.4037 L423.234,11.4042 L424.368,11.4046 L425.462,11.4099 L426.557,11.4153 L427.616,11.4251 L428.675,11.4348 L429.694,11.4495 L430.711,11.4641 L432.668,11.5028 L434.548,11.55 L436.343,11.6061 L438.051,11.6712 L439.68,11.7442 L441.218,11.8256 L442.669,11.9156 L443.358,11.9628 L444.026,12.0124 L444.671,12.0639 L445.294,12.1171 L445.892,12.1721 L446.466,12.229 L447.018,12.2875 L447.545,12.3477 L448.046,12.4095 L448.524,12.4727 L448.974,12.5373 L449.4,12.6033 L449.8,12.6704 L450.171,12.7383 L450.515,12.8072 L450.833,12.8762 L451.118,12.9449 L451.375,13.0132 L451.6,13.0799 L451.788,13.1426 L451.941,13.201 L452.056,13.2508 L452.122,13.2841 L452.143,13.2969 L452.113,13.2726 L452.023,13.1797 L451.904,13.0063 L451.796,12.7301 L451.754,12.3629 L451.805,12.0357 L451.907,11.7976 L452.007,11.6514 L452.059,11.5963 L452.062,11.5935 L452.019,11.6225 L451.923,11.6775 L451.786,11.7477 L451.61,11.8273 L451.393,11.916 L451.141,12.0104 L450.856,12.1088 L450.518,12.2162 C449.655,12.4907 449.178,13.4131 449.452,14.2764 C449.727,15.1397 450.649,15.617 451.512,15.3423 Z" id="Fill-75"></path>
        </g>
    </g>
</svg>
