<?xml version="1.0" encoding="UTF-8"?>
<svg width="621px" height="282px" viewBox="0 0 621 282" version="1.1" xmlns="http://www.w3.org/2000/svg" xmlns:xlink="http://www.w3.org/1999/xlink">
    <title>83</title>
    <g id="Page-1" stroke="none" stroke-width="1" fill="none" fill-rule="evenodd">
        <g id="83" transform="translate(0.074750, 0.266800)" fill="currentColor">
            <path d="M35.132,63.1848 L35.301,63.7854 L35.471,64.4043 L35.642,65.0476 L35.816,65.7124 L35.991,66.4002 L36.167,67.1078 L36.528,68.5944 L36.896,70.1648 L37.272,71.8207 L37.655,73.5517 L38.047,75.3627 L38.448,77.2525 L38.652,78.2302 L38.856,79.209 L39.065,80.224 L39.273,81.2394 L39.486,82.2898 L39.7,83.3406 L39.917,84.4223 L40.134,85.504 L40.357,86.6187 L40.579,87.7337 L40.806,88.8801 L41.033,90.0269 L41.264,91.2014 L41.496,92.3762 L41.733,93.5803 L41.969,94.7847 L42.211,96.0174 L42.453,97.2503 L42.699,98.5078 L42.946,99.7654 L43.198,101.0493 L43.45,102.3333 L43.707,103.6421 L43.965,104.9512 L44.227,106.2818 L44.489,107.6128 L44.757,108.9663 L45.026,110.3201 L45.3,111.6953 L45.574,113.0708 L45.853,114.4646 L46.132,115.8589 L46.418,117.2725 L46.703,118.6861 L46.995,120.1179 L47.287,121.5501 L47.584,122.9973 L47.881,124.4451 L48.184,125.9087 L48.488,127.3728 L48.798,128.8513 L49.108,130.3301 L49.424,131.8213 L49.74,133.3128 L50.063,134.8167 L50.386,136.3211 L50.715,137.8367 L51.045,139.3523 L51.381,140.8775 L51.716,142.4029 L52.059,143.9375 L52.402,145.4724 L52.752,147.0156 L53.102,148.5598 L53.463,150.1131 L53.821,151.6626 L54.181,153.2122 L54.541,154.7678 L54.917,156.3333 L55.291,157.8924 L55.665,159.4517 L56.04,161.0178 L56.431,162.5889 L56.82,164.1531 L57.21,165.7171 L57.601,167.2881 L58.007,168.8596 L58.411,170.4243 L58.815,171.989 L59.22,173.5618 L59.642,175.1311 L60.062,176.6922 L60.482,178.2532 L60.904,179.8233 L61.343,181.385 L61.78,182.9375 L62.216,184.49 L62.655,186.0515 L63.11,187.6013 L63.561,189.1424 L64.013,190.6831 L64.468,192.2349 L64.941,193.7695 L65.41,195.2932 L65.88,196.8169 L66.353,198.3526 L66.844,199.8665 L67.332,201.3682 L67.819,202.8699 L68.309,204.3804 L68.812,205.8733 L69.314,207.3645 L69.826,208.8416 L70.337,210.3186 L70.858,211.7805 L71.379,213.2422 L71.908,214.6887 L72.439,216.1362 L72.978,217.5662 L73.518,218.9966 L74.067,220.40847 L74.616,221.8196 L75.174,223.21291 L75.734,224.6072 L76.302,225.98073 L76.871,227.35475 L77.45,228.70656 L78.03,230.05764 L78.619,231.38796 L79.208,232.71926 L79.808,234.02639 L80.408,235.334 L81.018,236.61623 L81.629,237.89797 L82.249,239.15554 L82.869,240.41457 L83.501,241.64626 L84.132,242.87819 L84.775,244.08181 L85.418,245.28444 L86.07,246.45998 L86.723,247.63723 L87.387,248.78371 L88.052,249.93068 L88.729,251.04543 L89.404,252.15969 L90.091,253.24367 L90.778,254.32961 L91.477,255.38137 L92.177,256.43361 L92.889,257.4507 L93.6,258.46657 L94.322,259.44875 L95.048,260.43264 L95.784,261.37917 L96.522,262.32619 L97.272,263.23464 L98.021,264.14162 L98.781,265.01247 L99.544,265.88576 L100.319,266.71779 L101.095,267.55056 L101.884,268.34108 L102.673,269.13015 L103.472,269.8799 L104.275,270.63185 L105.091,271.33962 L105.908,272.04738 L106.739,272.70974 L107.562,273.36525 L108.408,273.99977 L109.257,274.60671 L110.111,275.18849 L110.973,275.74831 L111.844,276.28444 L112.721,276.79445 L113.605,277.28127 L114.498,277.74318 L115.397,278.178 L116.302,278.58889 L117.218,278.97341 L118.139,279.3301 L119.068,279.6614 L120.005,279.96535 L120.948,280.24074 L121.898,280.49074 L122.857,280.71242 L123.821,280.90407 L124.792,281.06838 L125.772,281.20339 L126.757,281.30739 L127.749,281.38356 L128.749,281.42873 L129.744,281.44265 L131.148,281.44265 L132.542,281.4424 L133.955,281.44313 L135.367,281.44387 L136.798,281.44533 L138.23,281.4468 L139.677,281.44899 L141.125,281.45119 L142.59,281.45388 L144.055,281.45656 L145.538,281.45949 L147.021,281.46266 L148.519,281.46608 L150.017,281.4695 L151.532,281.47292 L153.047,281.47658 L154.579,281.48024 L156.11,281.48391 L157.656,281.48757 L159.202,281.49147 L160.764,281.49489 L162.326,281.49855 L163.903,281.50173 L165.481,281.50515 L167.071,281.50808 L168.663,281.51076 L170.269,281.5132 L171.875,281.51564 L173.495,281.51735 L175.115,281.52175 L176.749,281.52175 L178.382,281.52175 L180.029,281.52175 L181.676,281.52175 L183.337,281.52175 L184.997,281.52175 L186.67,281.51857 L188.342,281.51686 L190.028,281.51345 L191.714,281.50978 L193.412,281.50466 L195.11,281.49953 L196.819,281.49294 L198.528,281.48659 L200.249,281.47853 L201.97,281.47048 L203.703,281.46071 L205.436,281.45095 L207.184,281.43874 L208.931,281.42629 L210.678,281.41408 L212.426,281.40187 L214.196,281.38552 L215.965,281.36916 L217.733,281.3528 L219.503,281.33644 L221.293,281.31545 L223.081,281.29445 L224.869,281.27297 L226.659,281.25124 L228.465,281.22487 L230.27,281.19875 L232.075,281.17238 L233.882,281.14601 L235.707,281.11428 L237.528,281.08254 L239.351,281.0508 L241.175,281.01906 L243.016,280.98122 L244.854,280.94338 L246.692,280.90554 L248.532,280.86769 L250.386,280.82399 L252.237,280.78029 L254.089,280.73659 L255.943,280.69289 L257.81,280.64235 L259.675,280.59157 L261.54,280.54079 L263.407,280.49001 L265.287,280.43166 L267.164,280.37355 L269.041,280.31545 L270.92,280.2571 L272.81,280.19167 L274.696,280.12624 L276.583,280.06105 L278.473,279.99538 L280.372,279.92165 L282.268,279.84792 L284.164,279.77443 L286.064,279.70046 L287.971,279.61794 L289.876,279.53542 L291.78,279.4529 L293.688,279.37111 L295.601,279.28078 L297.512,279.19069 L299.423,279.1006 L301.337,279.01027 L303.257,278.91017 L305.173,278.81032 L307.09,278.71047 L309.009,278.61037 L310.934,278.50002 L312.855,278.38991 L314.776,278.2798 L316.699,278.16945 L318.627,278.04958 L320.55,277.92971 L322.473,277.80983 L324.401,277.68972 L326.33,277.55861 L328.256,277.42824 L330.181,277.29787 L332.11,277.16701 L334.04,277.02468 L335.966,276.88283 L337.891,276.74074 L339.821,276.59841 L341.75,276.44509 L343.675,276.29201 L345.6,276.13893 L347.529,275.98537 L349.457,275.81935 L351.38,275.65383 L353.303,275.48806 L355.231,275.32204 L357.155,275.14284 L359.074,274.96413 L360.994,274.78566 L362.918,274.6072 L364.838,274.41652 L366.753,274.22609 L368.668,274.03566 L370.589,273.84499 L372.503,273.63991 L374.412,273.43557 L376.321,273.23122 L378.236,273.02639 L380.144,272.8069 L382.046,272.58791 L383.947,272.36916 L385.855,272.14968 L387.754,271.91652 L389.649,271.6841 L391.543,271.45168 L393.443,271.21852 L395.333,270.96974 L397.217,270.72194 L399.102,270.47414 L400.992,270.22536 L402.872,269.96071 L404.745,269.69704 L406.618,269.43337 L408.497,269.16872 L410.365,268.88918 L412.227,268.61037 L414.089,268.33181 L415.958,268.05202 L417.813,267.75563 L419.661,267.45998 L421.509,267.16457 L423.364,266.86794 L425.205,266.55373 L427.038,266.24099 L428.871,265.928 L430.709,265.61379 L432.536,265.28737 L434.362,264.96144 L436.179,264.62624 L437.997,264.29103 L439.806,263.9468 L441.614,263.60256 L443.414,263.25002 L445.215,262.89724 L447.006,262.53517 L448.797,262.17287 L450.578,261.80129 L452.36,261.42971 L454.131,261.04933 L455.904,260.66896 L457.666,260.27858 L459.428,259.88845 L461.179,259.4883 L462.93,259.08766 L464.671,258.678 L466.412,258.26808 L468.142,257.84792 L469.873,257.428 L471.591,256.99782 L473.309,256.56765 L475.016,256.12795 L476.724,255.68825 L478.419,255.2383 L480.114,254.78786 L481.797,254.32717 L483.479,253.86647 L485.15,253.39601 L486.821,252.92556 L488.479,252.44411 L490.136,251.96266 L491.781,251.47023 L493.424,250.97805 L495.056,250.47536 L496.687,249.97243 L498.304,249.45827 L499.922,248.94411 L501.525,248.41848 L503.127,247.89308 L504.716,247.35744 L506.305,246.82155 L507.88,246.27394 L509.454,245.72634 L511.013,245.16701 L512.571,244.60793 L514.115,244.03835 L515.659,243.46828 L517.188,242.88625 L518.716,242.30422 L520.228,241.71022 L521.739,241.11623 L523.236,240.51125 L524.732,239.90602 L526.212,239.28859 L527.692,238.67092 L529.153,238.04079 L530.615,237.41091 L532.061,236.76979 L533.507,236.12819 L534.935,235.4739 L536.363,234.8196 L537.772,234.15236 L539.181,233.48561 L540.573,232.8069 L541.966,232.12795 L543.34,231.43605 L544.714,230.74391 L546.068,230.03884 L547.422,229.334 L548.757,228.61696 L550.094,227.89968 L551.41,227.16896 L552.727,226.43801 L554.023,225.69362 L555.319,224.94948 L556.595,224.19313 L557.873,223.4363 L559.13,222.66579 L560.386,221.89504 L561.622,221.11061 L562.857,220.32643 L564.071,219.5298 L565.287,218.7322 L566.481,217.9207 L567.675,217.1089 L568.846,216.283 L570.017,215.4575 L571.167,214.6189 L572.319,213.7796 L573.446,212.9258 L574.574,212.0718 L575.679,211.2034 L576.783,210.3352 L577.866,209.4539 L578.949,208.5716 L580.009,207.6746 L581.069,206.7774 L582.104,205.865 L583.138,204.9534 L584.15,204.0281 L585.163,203.1018 L586.152,202.1607 L587.14,201.2193 L588.103,200.2627 L589.065,199.3067 L590.004,198.3367 L590.944,197.3655 L591.858,196.3789 L592.772,195.3919 L593.659,194.3892 L594.546,193.3875 L595.408,192.3711 L596.272,191.3538 L597.108,190.3203 L597.944,189.2869 L598.753,188.2373 L599.561,187.1885 L600.344,186.125 L601.128,185.0603 L601.884,183.9793 L602.64,182.8982 L603.367,181.8006 L604.094,180.7039 L604.795,179.5923 L605.496,178.4793 L606.168,177.3496 L606.84,176.22 L607.484,175.0735 L608.126,173.9282 L608.741,172.7676 L609.357,171.6057 L609.943,170.4268 L610.529,169.2476 L611.084,168.0513 L611.639,166.8562 L612.166,165.6458 L612.693,164.4336 L613.19,163.2044 L613.686,161.9749 L614.151,160.728 L614.615,159.4827 L615.05,158.2212 L615.486,156.9585 L615.89,155.678 L616.293,154.3975 L616.665,153.0994 L617.035,151.8025 L617.377,150.4898 L617.718,149.1753 L618.026,147.843 L618.334,146.5108 L618.609,145.1604 L618.883,143.8118 L619.128,142.4466 L619.372,141.0799 L619.582,139.6951 L619.792,138.3103 L619.968,136.9072 L620.144,135.5056 L620.288,134.0874 L620.432,132.6677 L620.541,131.2298 L620.65,129.7915 L620.724,128.335 L620.798,126.8797 L620.839,125.4075 L620.881,123.9341 L620.891,122.4417 L620.891,120.9495 L620.861,119.4385 L620.83,117.9287 L620.766,116.4019 L620.701,114.8736 L620.601,113.3264 L620.5,111.7791 L620.361,110.2127 L620.223,108.6477 L620.051,107.0652 L619.879,105.4812 L619.669,103.8782 L619.459,102.2752 L619.211,100.6524 L618.963,99.031 L618.68,97.3919 L618.397,95.7517 L618.075,94.0916 L617.753,92.4317 L617.392,90.7517 L617.031,89.0733 L616.635,87.3762 L616.238,85.6785 L615.802,83.9606 L615.366,82.2428 L614.89,80.5048 L614.414,78.7677 L613.902,77.0122 L613.389,75.2559 L612.836,73.4791 L612.282,71.7024 L611.688,69.9052 L611.094,68.1089 L610.463,66.2937 L609.831,64.4778 L609.158,62.641 L608.485,60.8043 L607.77,58.9467 L607.057,57.0941 L606.684,56.1544 L606.312,55.2185 L605.93,54.2774 L605.548,53.3361 L605.154,52.3897 L604.762,51.4435 L604.359,50.4926 L603.957,49.5413 L603.543,48.5846 L603.13,47.6281 L602.706,46.6662 L602.277,45.6919 L601.713,44.502 L601.076,43.3184 L600.377,42.1586 L599.62,41.0185 L598.799,39.8975 L597.919,38.7997 L596.983,37.7211 L595.986,36.6615 L594.932,35.624 L593.825,34.605 L592.66,33.6046 L591.44,32.6249 L590.169,31.663 L588.841,30.719 L587.461,29.7946 L586.031,28.8871 L584.548,27.9971 L583.013,27.1256 L581.431,26.2704 L579.797,25.432 L578.113,24.6113 L576.384,23.8063 L574.604,23.0176 L572.779,22.2473 L571.84,21.8681 L570.904,21.4898 L569.944,21.1194 L568.984,20.7493 L568.001,20.3871 L567.018,20.0253 L566.014,19.6706 L565.009,19.3157 L563.981,18.9685 L562.954,18.6216 L561.903,18.2824 L560.854,17.9434 L559.784,17.6113 L558.713,17.2792 L557.62,16.9547 L556.528,16.6303 L555.413,16.3133 L554.299,15.9965 L553.166,15.6865 L552.032,15.3764 L550.877,15.0737 L549.722,14.771 L548.547,14.4757 L547.371,14.1806 L546.177,13.892 L544.983,13.6033 L543.768,13.3218 L542.553,13.0404 L541.318,12.7661 L540.084,12.492 L538.832,12.2241 L537.579,11.9563 L536.307,11.6956 L535.036,11.4347 L533.745,11.1808 L532.454,10.9271 L531.147,10.6796 L529.839,10.432 L528.512,10.1912 L527.186,9.9505 L525.842,9.7164 L524.498,9.4826 L523.137,9.2548 L521.777,9.0269 L520.399,8.8056 L519.021,8.5844 L517.626,8.3696 L516.231,8.155 L514.82,7.9463 L513.41,7.7376 L511.983,7.5353 L510.555,7.333 L509.112,7.1371 L507.669,6.9411 L506.211,6.7505 L504.754,6.56 L503.28,6.3758 L501.806,6.1914 L500.318,6.0134 L498.829,5.8353 L497.326,5.663 L495.824,5.4905 L494.307,5.324 L492.79,5.1576 L491.258,4.9973 L489.726,4.8369 L488.182,4.682 L486.638,4.527 L485.079,4.3779 L483.521,4.2289 L481.949,4.0857 L480.378,3.9425 L478.795,3.8046 L477.211,3.6665 L475.614,3.5343 L474.018,3.402 L472.408,3.275 L470.8,3.1481 L469.18,3.0263 L467.56,2.9044 L465.927,2.7881 L464.295,2.6718 L462.652,2.5609 L461.008,2.4501 L459.354,2.3443 L457.7,2.2383 L456.035,2.1377 L454.37,2.0371 L452.694,1.9419 L451.019,1.8467 L449.334,1.7561 L447.649,1.6657 L445.954,1.5803 L444.258,1.495 L442.554,1.4148 L440.848,1.3346 L439.13,1.2611 L437.414,1.1875 L435.698,1.114 L433.979,1.0404 L432.242,0.9767 L430.508,0.9131 L428.775,0.8495 L427.038,0.7858 L425.284,0.7316 L423.534,0.6776 L421.784,0.6237 L420.031,0.5696 L418.265,0.5241 L416.501,0.4785 L414.737,0.4331 L412.97,0.3876 L411.19,0.3512 L409.412,0.315 L407.634,0.2787 L405.854,0.2423 L404.06,0.215 L402.27,0.1876 L400.479,0.1603 L398.686,0.133 L396.883,0.1134 L395.082,0.094 L393.281,0.0745 L391.478,0.0551 L389.664,0.0441 L387.853,0.0331 L386.042,0.0221 L384.229,0.0111 L382.406,0.0083 L380.587,0.0056 L378.767,0 L376.944,0 L375.115,0.0045 L373.289,0.0091 L371.462,0.0137 L369.632,0.0186 L367.797,0.0311 L365.964,0.0437 L364.13,0.0563 L362.295,0.069 L360.454,0.0891 L358.615,0.1091 L356.777,0.1293 L354.937,0.1494 L353.093,0.1762 L351.251,0.2029 L349.409,0.2296 L347.565,0.2564 L345.718,0.2902 L343.874,0.324 L342.029,0.3578 L340.182,0.3916 L338.334,0.4321 L336.488,0.4732 L334.642,0.5142 L332.795,0.5552 L330.947,0.6023 L329.101,0.6493 L327.255,0.6963 L325.407,0.7434 L323.56,0.7968 L321.715,0.8501 L319.87,0.9035 L318.023,0.9569 L316.178,1.0164 L314.336,1.0758 L312.493,1.1353 L310.65,1.1948 L308.808,1.2597 L306.969,1.3245 L305.13,1.3892 L303.289,1.4541 L301.453,1.5249 L299.618,1.5956 L297.784,1.6663 L295.948,1.7371 L294.118,1.8131 L292.29,1.8893 L290.462,1.9654 L288.632,2.0415 L286.809,2.1223 L284.988,2.203 L283.166,2.2838 L281.343,2.3646 L279.529,2.4505 L277.716,2.5362 L275.903,2.6218 L274.089,2.7075 L272.284,2.798 L270.482,2.8884 L268.679,2.9788 L266.875,3.0694 L265.08,3.164 L263.288,3.2584 L261.495,3.3529 L259.701,3.4475 L257.919,3.5463 L256.138,3.645 L254.358,3.7437 L252.576,3.8425 L250.808,3.9453 L249.042,4.048 L247.275,4.1507 L245.507,4.2534 L243.753,4.3595 L242,4.4657 L240.247,4.5718 L238.492,4.6779 L236.754,4.7876 L235.017,4.8972 L233.28,5.0069 L231.542,5.1165 L229.821,5.2295 L228.102,5.3423 L226.382,5.4552 L224.662,5.5681 L222.959,5.6839 L221.256,5.7995 L219.554,5.9151 L217.85,6.0308 L216.166,6.1493 L214.484,6.2677 L212.801,6.3862 L211.117,6.5048 L209.455,6.6258 L207.794,6.7468 L206.132,6.8678 L204.47,6.9889 L202.828,7.1121 L201.187,7.235 L199.546,7.3576 L197.904,7.4802 L196.286,7.605 L194.669,7.7296 L193.051,7.8544 L191.433,7.9791 L189.84,8.1057 L188.247,8.2322 L186.655,8.3588 L185.062,8.4854 L183.487,8.6131 L181.912,8.7407 L180.35,8.8693 L178.789,8.9977 L177.241,9.1268 L175.693,9.256 L174.158,9.3858 L172.623,9.5155 L171.102,9.6459 L169.581,9.7761 L168.075,9.907 L166.569,10.0377 L165.077,10.1687 L163.585,10.2997 L162.108,10.4312 L160.631,10.5626 L159.169,10.6945 L157.708,10.8262 L156.26,10.9583 L154.814,11.0904 L153.383,11.2226 L151.952,11.3549 L150.538,11.4873 L149.124,11.6198 L147.725,11.7522 L146.326,11.8848 L144.944,12.0175 L143.563,12.15 L142.198,12.2826 L140.835,12.4152 L139.486,12.5477 L138.138,12.6802 L136.809,12.8126 L135.479,12.9451 L134.168,13.0773 L132.856,13.2094 L131.562,13.3413 L130.267,13.4732 L128.992,13.6048 L127.717,13.7363 L126.461,13.8674 L125.205,13.9987 L123.967,14.1295 L122.729,14.2604 L121.511,14.3908 L120.293,14.5211 L119.095,14.6509 L117.898,14.7808 L116.719,14.9101 L115.54,15.0393 L114.382,15.168 L113.224,15.2965 L112.087,15.4245 L110.95,15.5524 L109.833,15.6796 L108.716,15.8069 L107.621,15.9332 L106.526,16.0597 L105.453,16.1852 L104.38,16.3107 L103.327,16.4353 L102.275,16.56 L101.245,16.6836 L100.215,16.8073 L99.208,16.9304 L98.201,17.0542 L96.232,17.2996 L94.308,17.5426 L92.434,17.7831 L90.603,18.0211 L88.822,18.2565 L87.091,18.4889 L85.406,18.7186 L83.772,18.9452 L82.19,19.1686 L80.655,19.3889 L79.174,19.6059 L77.746,19.8191 L76.368,20.0291 L75.044,20.2354 L73.788,20.4358 L72.294,20.6461 L70.761,20.7979 L69.176,20.8967 L67.55,20.9505 L65.882,20.9574 L64.175,20.9221 L62.435,20.851 L60.664,20.7437 L58.864,20.6041 L57.041,20.4385 L55.196,20.2476 L53.334,20.0354 L51.451,19.8002 L49.567,19.5648 L47.669,19.3084 L45.767,19.0513 L43.866,18.7892 L41.961,18.5268 L40.068,18.2725 L38.172,18.0177 L36.299,17.7862 L34.423,17.5542 L32.586,17.3616 L30.75,17.1679 L28.939,17.0081 L27.157,16.8788 L25.405,16.7841 L23.683,16.7239 L21.995,16.7055 L20.346,16.7331 L18.736,16.8059 L17.167,16.9328 L15.648,17.1177 L14.173,17.3595 L12.749,17.6684 L11.396,18.0447 L10.721,18.2641 L10.073,18.5 L9.441,18.7556 L8.824,19.0304 L8.223,19.3273 L7.64,19.6455 L7.073,19.9844 L6.524,20.3474 L5.995,20.7331 L5.484,21.1408 L4.993,21.5742 L4.524,22.0314 L4.075,22.5115 L3.648,23.0186 L3.245,23.5498 L2.864,24.1046 L2.507,24.6872 L2.175,25.2941 L1.867,25.9249 L1.584,26.5839 L1.328,27.2678 L1.096,27.9761 L0.89,28.713 L0.711,29.4807 L0.478,30.6947 L0.293,31.9592 L0.154,33.2652 L0.058,34.609 L0.007,35.9957 L0,37.4218 L0.032,38.8839 L0.105,40.3862 L0.219,41.9259 L0.369,43.4995 L0.558,45.1109 L0.784,46.7573 L1.045,48.4358 L1.34,50.1492 L1.671,51.8955 L2.033,53.6716 L2.428,55.4801 L2.855,57.319 L3.31,59.1854 L3.796,61.0816 L4.31,63.0044 L4.581,63.9802 L4.851,64.955 L5.136,65.9433 L5.42,66.9314 L5.717,67.9325 L6.015,68.9332 L6.324,69.9453 L6.634,70.9577 L6.956,71.9823 L7.277,73.0066 L7.611,74.0427 L7.945,75.0784 L8.29,76.1244 L8.634,77.1704 L8.99,78.2274 L9.345,79.2842 L9.712,80.3513 L10.078,81.4182 L10.453,82.494 L10.829,83.57 L11.214,84.6554 L11.599,85.7407 L11.994,86.8351 L12.389,87.9292 L12.792,89.031 L13.194,90.1328 L13.606,91.2429 L14.017,92.3528 L14.436,93.4705 L14.855,94.5884 L15.285,95.7161 L15.714,96.8418 L16.142,97.9675 L16.572,99.0957 L17.015,100.2368 L17.457,101.375 L17.899,102.5134 L18.342,103.6541 L18.797,104.8052 L19.251,105.9544 L19.704,107.1035 L20.158,108.2542 L20.622,109.4131 L21.085,110.5703 L21.547,111.7276 L22.01,112.8862 L22.482,114.0523 L22.952,115.2168 L23.423,116.3811 L23.894,117.5469 L24.372,118.7175 L24.848,119.8872 L25.325,121.0569 L25.802,122.2278 L26.285,123.4024 L26.767,124.5762 L27.25,125.7498 L27.732,126.9236 L28.214,128.0974 L28.695,129.271 L29.177,130.4448 L29.66,131.6192 L30.144,132.7935 L30.628,133.9673 L31.112,135.1411 L31.596,136.3147 L32.08,137.4885 L32.565,138.6624 L33.048,139.836 L33.532,141.0091 L34.01,142.1741 L34.488,143.3399 L34.967,144.5056 L35.445,145.6714 L35.923,146.8372 L36.402,148.0029 L36.88,149.1687 L37.358,150.3333 L37.828,151.4885 L38.298,152.6448 L38.769,153.8013 L39.239,154.9563 L39.701,156.1021 L40.163,157.2493 L40.626,158.3963 L41.088,159.5418 L41.539,160.676 L41.992,161.812 L42.444,162.9478 L42.896,164.0818 L43.337,165.2041 L43.779,166.3284 L44.221,167.4524 L44.662,168.5742 L45.09,169.6812 L45.518,170.7905 L45.947,171.8999 L46.374,173.0066 L46.786,174.0965 L47.199,175.1892 L47.612,176.282 L48.025,177.3726 L48.426,178.4507 L48.827,179.5293 L49.219,180.5982 L49.611,181.6668 L49.994,182.7256 L50.377,183.7842 L50.751,184.8333 L51.124,185.8819 L51.487,186.9197 L51.851,187.957 L52.204,188.9832 L52.556,190.0093 L52.899,191.0244 L53.241,192.0391 L53.571,193.0415 L53.902,194.0437 L54.221,195.033 L54.539,196.0225 L54.846,196.9995 L55.153,197.9763 L55.447,198.9392 L55.741,199.9009 L56.302,201.7991 L56.839,203.669 L57.345,205.5076 L57.823,207.3145 L58.273,209.0918 L58.691,210.8347 L59.077,212.5435 L59.432,214.2195 L59.754,215.8584 L60.041,217.4602 L60.296,219.02639 L60.513,220.55226 L60.694,222.04641 C60.75,222.50392 61.166,222.82961 61.623,222.77419 C62.08,222.71852 62.406,222.303 62.351,221.84548 L62.167,220.33376 L61.945,218.7747 L61.686,217.1792 L61.394,215.5506 L61.068,213.8855 L60.707,212.1863 L60.316,210.4561 L59.893,208.6922 L59.439,206.8965 L58.957,205.0723 L58.445,203.2171 L57.906,201.3323 L57.341,199.4226 L57.045,198.4517 L56.749,197.4822 L56.44,196.4988 L56.131,195.5161 L55.811,194.5213 L55.49,193.5261 L55.158,192.5183 L54.825,191.5105 L54.482,190.4905 L54.138,189.4707 L53.784,188.4402 L53.429,187.4097 L53.065,186.3674 L52.7,185.3255 L52.325,184.2725 L51.95,183.2197 L51.566,182.1575 L51.182,181.095 L50.788,180.0225 L50.395,178.95 L49.993,177.8679 L49.59,176.7857 L49.176,175.6907 L48.763,174.5979 L48.35,173.5054 L47.936,172.4097 L47.507,171.2976 L47.078,170.1883 L46.65,169.0789 L46.22,167.9671 L45.777,166.8406 L45.336,165.7166 L44.894,164.5923 L44.451,163.4666 L43.998,162.3289 L43.546,161.1929 L43.093,160.0571 L42.64,158.9195 L42.177,157.7708 L41.715,156.6238 L41.253,155.4766 L40.79,154.3281 L40.319,153.1707 L39.848,152.0142 L39.378,150.8579 L38.907,149.7005 L38.428,148.5335 L37.95,147.3677 L37.472,146.2019 L36.994,145.0362 L36.516,143.8704 L36.037,142.7046 L35.559,141.5386 L35.081,140.3721 L34.596,139.1978 L34.112,138.0239 L33.629,136.8501 L33.145,135.6763 L32.66,134.5027 L32.176,133.3289 L31.693,132.155 L31.209,130.9817 L30.727,129.8086 L30.245,128.6348 L29.763,127.461 L29.281,126.2871 L28.799,125.1135 L28.318,123.9395 L27.836,122.7656 L27.355,121.5928 L26.879,120.4241 L26.402,119.2542 L25.926,118.0842 L25.45,116.9155 L24.98,115.7522 L24.51,114.5874 L24.04,113.4229 L23.57,112.2598 L23.108,111.1038 L22.646,109.9463 L22.184,108.7891 L21.722,107.6333 L21.27,106.4856 L20.817,105.3364 L20.363,104.187 L19.911,103.0401 L19.47,101.9036 L19.028,100.7652 L18.587,99.6265 L18.146,98.4907 L17.719,97.3674 L17.291,96.2415 L16.862,95.1157 L16.435,93.992 L16.017,92.8777 L15.6,91.7632 L15.191,90.6563 L14.781,89.5493 L14.381,88.4507 L13.98,87.3521 L13.587,86.2611 L13.194,85.1704 L12.811,84.0889 L12.428,83.0075 L12.055,81.9357 L11.681,80.8637 L11.317,79.8008 L10.953,78.7383 L10.6,77.6862 L10.247,76.6343 L9.905,75.5933 L9.563,74.5521 L9.231,73.5213 L8.9,72.4909 L8.58,71.4723 L8.261,70.454 L7.954,69.4479 L7.648,68.4417 L7.352,67.447 L7.057,66.4529 L6.776,65.4719 L6.494,64.4912 L6.227,63.5242 L5.96,62.5582 L5.45,60.6489 L4.97,58.7708 L4.522,56.923 L4.101,55.1039 L3.713,53.3179 L3.358,51.565 L3.033,49.8434 L2.743,48.1581 L2.489,46.5087 L2.269,44.8935 L2.086,43.3176 L1.941,41.7807 L1.831,40.2807 L1.761,38.8234 L1.732,37.408 L1.74,36.0325 L1.79,34.7031 L1.883,33.4185 L2.015,32.1768 L2.191,30.9848 L2.413,29.8351 L2.575,29.1452 L2.761,28.4813 L2.97,27.8449 L3.2,27.234 L3.451,26.6524 L3.724,26.0957 L4.016,25.5626 L4.328,25.0565 L4.661,24.573 L5.012,24.1109 L5.382,23.6732 L5.773,23.2562 L6.182,22.8587 L6.609,22.4833 L7.057,22.1268 L7.523,21.7883 L8.006,21.4701 L8.51,21.1699 L9.031,20.8864 L9.569,20.6217 L10.127,20.3743 L10.702,20.1426 L11.293,19.9286 L11.891,19.7346 L13.171,19.3804 L14.501,19.0939 L15.895,18.8676 L17.343,18.6936 L18.845,18.5745 L20.4,18.5065 L21.999,18.4822 L23.641,18.5026 L25.324,18.5641 L27.043,18.6597 L28.795,18.7893 L30.575,18.9492 L32.396,19.1449 L34.216,19.3417 L36.074,19.5778 L37.937,19.8142 L39.823,20.0739 L41.713,20.3339 L43.613,20.6022 L45.516,20.8707 L47.419,21.1343 L49.325,21.3982 L51.218,21.6409 L53.111,21.8836 L54.991,22.1041 L56.856,22.3034 L58.703,22.4772 L60.531,22.6249 L62.336,22.7401 L64.113,22.8186 L65.864,22.8605 L67.583,22.8577 L69.265,22.8065 L70.912,22.7078 L72.519,22.5528 L74.069,22.339 L75.342,22.1394 L76.659,21.9376 L78.032,21.7321 L79.455,21.5232 L80.932,21.3109 L82.462,21.0952 L84.04,20.8765 L85.67,20.6547 L87.351,20.43 L89.079,20.2024 L90.857,19.9722 L92.684,19.7393 L94.556,19.504 L96.476,19.2664 L98.444,19.0264 L99.448,18.9055 L100.454,18.7838 L101.482,18.6607 L102.51,18.5375 L103.561,18.4133 L104.612,18.2891 L105.684,18.1641 L106.756,18.039 L107.849,17.9131 L108.943,17.7871 L110.059,17.6603 L111.174,17.5336 L112.31,17.4061 L113.445,17.2787 L114.602,17.1505 L115.758,17.0222 L116.936,16.8935 L118.113,16.7647 L119.31,16.6353 L120.507,16.5059 L121.723,16.376 L122.94,16.2461 L124.176,16.1157 L125.413,15.9854 L126.668,15.8546 L127.923,15.7239 L129.197,15.5928 L130.471,15.4617 L131.764,15.3303 L133.057,15.1989 L134.367,15.0673 L135.678,14.9358 L137.007,14.8042 L138.335,14.6725 L139.682,14.5408 L141.029,14.409 L142.392,14.2771 L143.755,14.1453 L145.135,14.0134 L146.516,13.8816 L147.914,13.7499 L149.311,13.6181 L150.725,13.4865 L152.137,13.3548 L153.567,13.2233 L154.997,13.0918 L156.443,12.9605 L157.889,12.8292 L159.349,12.6983 L160.809,12.5673 L162.285,12.4367 L163.761,12.3059 L165.253,12.1758 L166.744,12.0456 L168.249,11.9158 L169.754,11.7862 L171.274,11.6571 L172.794,11.5281 L174.327,11.3997 L175.861,11.2711 L177.408,11.1433 L178.955,11.0154 L180.516,10.8882 L182.076,10.7611 L183.65,10.6347 L185.224,10.5083 L186.815,10.3831 L188.407,10.2577 L190,10.1325 L191.591,10.0072 L193.207,9.8839 L194.824,9.7605 L196.442,9.637 L198.058,9.5137 L199.697,9.3925 L201.339,9.2711 L202.98,9.1503 L204.619,9.0296 L206.279,8.911 L207.941,8.7924 L209.603,8.6738 L211.263,8.5553 L212.944,8.4393 L214.627,8.3233 L216.31,8.2073 L217.991,8.0913 L219.692,7.9782 L221.395,7.865 L223.097,7.7517 L224.799,7.6387 L226.517,7.5283 L228.237,7.4179 L229.956,7.3075 L231.674,7.1972 L233.41,7.0901 L235.148,6.9829 L236.884,6.8758 L238.62,6.7688 L240.372,6.6653 L242.125,6.5617 L243.879,6.458 L245.631,6.3545 L247.396,6.2544 L249.163,6.1543 L250.929,6.0541 L252.695,5.954 L254.474,5.8579 L256.255,5.7617 L258.035,5.6655 L259.814,5.5695 L261.606,5.4776 L263.398,5.3856 L265.191,5.2937 L266.983,5.2018 L268.784,5.114 L270.587,5.0261 L272.39,4.9381 L274.192,4.8502 L276.003,4.7671 L277.816,4.6837 L279.629,4.6005 L281.441,4.5174 L283.26,4.4391 L285.082,4.3607 L286.903,4.2825 L288.724,4.2042 L290.55,4.1306 L292.379,4.057 L294.207,3.9834 L296.034,3.9098 L297.866,3.8417 L299.701,3.7735 L301.535,3.7052 L303.368,3.6371 L305.206,3.5744 L307.045,3.5115 L308.884,3.4486 L310.722,3.3859 L312.563,3.3284 L314.406,3.2709 L316.248,3.2134 L318.089,3.1559 L319.932,3.1046 L321.777,3.0532 L323.622,3.0017 L325.465,2.9505 L327.31,2.9054 L329.156,2.8604 L331.002,2.8153 L332.846,2.7703 L334.691,2.7312 L336.536,2.6922 L338.382,2.653 L340.226,2.6134 L342.069,2.5808 L343.914,2.548 L345.758,2.5153 L347.601,2.4826 L349.441,2.4569 L351.282,2.4313 L353.125,2.4055 L354.965,2.3799 L356.801,2.3609 L358.639,2.3418 L360.478,2.3228 L362.314,2.3037 L364.145,2.2921 L365.978,2.2805 L367.812,2.2691 L369.642,2.2575 L371.467,2.2537 L373.294,2.2497 L375.121,2.2455 L376.945,2.2414 L378.763,2.2444 L380.583,2.2476 L382.402,2.2506 L384.22,2.2538 L386.028,2.265 L387.84,2.2764 L389.651,2.2877 L391.459,2.299 L393.257,2.3187 L395.058,2.3385 L396.859,2.3583 L398.657,2.3781 L400.445,2.4058 L402.235,2.4335 L404.026,2.4611 L405.813,2.4888 L407.588,2.5253 L409.366,2.5619 L411.144,2.5984 L412.919,2.6349 L414.679,2.6806 L416.443,2.7263 L418.207,2.7721 L419.968,2.8178 L421.715,2.872 L423.465,2.9263 L425.215,2.9805 L426.962,3.0347 L428.692,3.0985 L430.425,3.1624 L432.159,3.2263 L433.889,3.2901 L435.602,3.3637 L437.318,3.4375 L439.033,3.5112 L440.747,3.585 L442.447,3.6658 L444.149,3.7466 L445.84,3.8325 L447.531,3.9184 L449.213,4.0094 L450.894,4.1005 L452.566,4.1963 L454.237,4.2921 L455.899,4.3932 L457.559,4.4943 L459.209,4.6006 L460.859,4.707 L462.499,4.8184 L464.138,4.9297 L465.766,5.0464 L467.394,5.1631 L469.009,5.2854 L470.625,5.4076 L472.23,5.5349 L473.834,5.6622 L475.426,5.7954 L477.018,5.9287 L478.596,6.0676 L480.175,6.2067 L481.742,6.3508 L483.309,6.495 L484.861,6.6449 L486.415,6.7949 L487.954,6.9507 L489.493,7.1065 L491.019,7.2677 L492.545,7.4289 L494.056,7.596 L495.568,7.7631 L497.065,7.9363 L498.561,8.1094 L500.044,8.2881 L501.527,8.4668 L502.994,8.6516 L504.461,8.8364 L505.913,9.0274 L507.364,9.2184 L508.801,9.4153 L510.237,9.6123 L511.658,9.8157 L513.078,10.0189 L514.481,10.2287 L515.884,10.4384 L517.273,10.6539 L518.66,10.8695 L520.03,11.0914 L521.401,11.3134 L522.753,11.5419 L524.106,11.7704 L525.442,12.005 L526.778,12.2394 L528.095,12.4805 L529.413,12.7216 L530.712,12.9694 L532.011,13.2172 L533.293,13.4712 L534.574,13.725 L535.836,13.9857 L537.098,14.2464 L538.34,14.5139 L539.583,14.7815 L540.808,15.0553 L542.032,15.3291 L543.236,15.6099 L544.44,15.8905 L545.623,16.1782 L546.806,16.466 L547.971,16.7603 L549.135,17.0543 L550.277,17.3555 L551.42,17.6566 L552.541,17.965 L553.663,18.2733 L554.764,18.5884 L555.865,18.9032 L556.944,19.2252 L558.023,19.5473 L559.079,19.8766 L560.136,20.2061 L561.172,20.5423 L562.207,20.8782 L563.219,21.2216 L564.231,21.5647 L565.219,21.9155 L566.208,22.2664 L567.175,22.624 L568.141,22.9815 L569.084,23.3463 L570.026,23.7111 L570.944,24.0835 L571.859,24.455 L573.652,25.2147 L575.391,25.9879 L577.08,26.7765 L578.722,27.5789 L580.311,28.3959 L581.847,29.2287 L583.334,30.0752 L584.765,30.9363 L586.143,31.8133 L587.47,32.704 L588.739,33.6088 L589.953,34.5298 L591.115,35.4643 L592.217,36.4125 L593.262,37.3768 L594.253,38.3546 L595.183,39.3457 L596.055,40.353 L596.872,41.3737 L597.628,42.4072 L598.323,43.4577 L598.963,44.5216 L599.541,45.5984 L600.064,46.7057 L600.478,47.6475 L600.898,48.6015 L601.307,49.5501 L601.716,50.4987 L602.115,51.4418 L602.514,52.3853 L602.902,53.3237 L603.292,54.2619 L603.67,55.1946 L604.048,56.1273 L604.416,57.0547 L604.782,57.9783 L605.491,59.8231 L606.198,61.663 L606.863,63.4813 L607.529,65.2996 L608.152,67.0967 L608.777,68.8944 L609.364,70.673 L609.951,72.4506 L610.497,74.207 L611.043,75.9634 L611.548,77.6989 L612.054,79.4351 L612.524,81.1525 L612.994,82.8687 L613.423,84.5642 L613.854,86.2595 L614.244,87.9343 L614.635,89.6101 L614.99,91.2674 L615.345,92.9234 L615.662,94.5589 L615.978,96.1944 L616.257,97.8096 L616.535,99.426 L616.779,101.0239 L617.023,102.6209 L617.229,104.1975 L617.435,105.7742 L617.604,107.3311 L617.773,108.8889 L617.908,110.429 L618.043,111.9675 L618.142,113.4863 L618.24,115.0054 L618.303,116.5047 L618.365,118.0054 L618.395,119.4885 L618.425,120.97 L618.42,122.4324 L618.414,123.8948 L618.373,125.3379 L618.332,126.7825 L618.259,128.2097 L618.187,129.6355 L618.079,131.0425 L617.972,132.4495 L617.831,133.8377 L617.69,135.2273 L617.517,136.5999 L617.345,137.9712 L617.139,139.324 L616.933,140.6768 L616.694,142.0112 L616.455,143.3472 L616.186,144.6668 L615.917,145.9846 L615.615,147.2844 L615.314,148.5845 L614.98,149.8665 L614.646,151.1499 L614.282,152.4173 L613.92,153.6834 L613.525,154.9317 L613.131,156.1802 L612.705,157.4112 L612.279,158.6436 L611.824,159.8601 L611.37,161.0755 L610.886,162.2737 L610.402,163.4719 L609.886,164.6531 L609.371,165.8357 L608.828,167.0029 L608.286,168.169 L607.714,169.3181 L607.142,170.4675 L606.54,171.6001 L605.938,172.7344 L605.31,173.8533 L604.682,174.9715 L604.025,176.0728 L603.368,177.1743 L602.682,178.2595 L601.996,179.3465 L601.284,180.4182 L600.572,181.4893 L599.833,182.544 L599.094,183.5991 L598.327,184.6384 L597.56,185.6787 L596.767,186.7049 L595.975,187.73 L595.156,188.7395 L594.338,189.7493 L593.492,190.7434 L592.646,191.7388 L591.775,192.72 L590.905,193.7007 L590.01,194.6658 L589.114,195.6311 L588.192,196.5813 L587.27,197.5327 L586.324,198.4702 L585.379,199.407 L584.409,200.3289 L583.439,201.251 L582.443,202.158 L581.447,203.0657 L580.428,203.96 L579.41,204.8538 L578.368,205.7327 L577.325,206.6121 L576.259,207.4768 L575.192,208.3423 L574.104,209.1948 L573.016,210.0469 L571.904,210.8843 L570.793,211.7222 L569.659,212.5459 L568.524,213.3701 L567.368,214.1817 L566.213,214.9929 L565.035,215.7901 L563.858,216.5874 L562.658,217.3706 L561.458,218.1548 L560.237,218.92653 L559.018,219.69753 L557.777,220.4551 L556.536,221.21291 L555.274,221.95705 L554.011,222.70168 L552.729,223.43386 L551.447,224.16603 L550.146,224.88478 L548.844,225.60353 L547.522,226.3091 L546.199,227.0154 L544.859,227.70949 L543.518,228.40358 L542.158,229.08474 L540.799,229.76564 L539.42,230.4341 L538.04,231.1028 L536.643,231.76003 L535.247,232.41677 L533.833,233.06105 L532.418,233.70558 L530.985,234.33742 L529.551,234.9695 L528.101,235.59059 L526.652,236.21144 L525.184,236.81984 L523.717,237.42873 L522.233,238.02516 L520.748,238.62209 L519.248,239.20803 L517.748,239.79396 L516.232,240.36769 L514.715,240.94167 L513.182,241.50368 L511.649,242.06618 L510.101,242.61794 L508.554,243.16945 L506.991,243.70949 L505.427,244.24953 L503.849,244.77834 L502.27,245.30715 L500.677,245.8257 L499.086,246.34401 L497.479,246.85109 L495.872,247.35842 L494.251,247.85451 L492.629,248.35109 L490.994,248.83791 L489.361,249.32448 L487.713,249.80031 L486.065,250.27614 L484.404,250.74123 L482.743,251.20656 L481.069,251.66213 L479.396,252.11745 L477.711,252.56252 L476.025,253.00734 L474.326,253.44191 L472.628,253.87673 L470.918,254.30202 L469.209,254.72731 L467.488,255.14235 L465.767,255.55764 L464.034,255.96266 L462.301,256.36794 L460.558,256.76393 L458.816,257.16066 L457.062,257.54763 L455.309,257.93459 L453.545,258.31179 L451.78,258.68923 L450.007,259.05788 L448.234,259.42629 L446.451,259.78542 L444.668,260.14455 L442.875,260.4944 L441.082,260.84426 L439.281,261.18557 L437.48,261.52712 L435.671,261.85939 L433.861,262.19167 L432.042,262.51491 L430.225,262.83815 L428.397,263.14919 L426.564,263.4612 L424.731,263.77346 L422.905,264.08474 L421.064,264.37844 L419.216,264.6736 L417.367,264.96852 L415.527,265.26247 L413.672,265.53957 L411.81,265.81789 L409.947,266.09597 L408.092,266.37331 L406.225,266.63576 L404.352,266.89894 L402.478,267.16237 L400.611,267.42482 L398.734,267.67141 L396.849,267.91872 L394.965,268.16603 L393.087,268.41262 L391.198,268.64382 L389.304,268.87575 L387.41,269.10768 L385.521,269.33889 L383.624,269.55666 L381.722,269.77492 L379.82,269.99318 L377.924,270.21096 L376.02,270.41408 L374.111,270.61794 L372.202,270.8218 L370.298,271.02492 L368.388,271.21413 L366.473,271.40407 L364.557,271.59377 L362.647,271.78322 L360.732,271.96022 L358.812,272.13747 L356.893,272.31423 L354.978,272.4905 L353.06,272.65383 L351.137,272.81765 L349.214,272.98122 L347.296,273.14455 L345.375,273.29518 L343.45,273.44631 L341.525,273.59743 L339.604,273.74831 L337.682,273.8882 L335.757,274.02834 L333.831,274.16823 L331.909,274.30812 L329.988,274.4363 L328.063,274.56472 L326.137,274.69313 L324.216,274.82082 L322.297,274.93703 L320.373,275.05373 L318.449,275.17043 L316.529,275.28664 L314.612,275.39333 L312.692,275.50026 L310.771,275.6072 L308.854,275.71389 L306.941,275.81032 L305.025,275.90676 L303.108,276.00344 L301.195,276.09987 L299.288,276.18679 L297.377,276.27346 L295.466,276.36037 L293.558,276.44728 L291.657,276.52541 L289.753,276.60305 L287.848,276.68068 L285.946,276.75808 L284.053,276.82668 L282.157,276.89553 L280.261,276.96413 L278.367,277.03273 L276.484,277.09328 L274.597,277.15358 L272.71,277.21413 L270.826,277.27443 L268.952,277.32766 L267.075,277.38088 L265.198,277.4341 L263.324,277.48732 L261.462,277.53322 L259.597,277.57912 L257.732,277.62502 L255.87,277.67092 L254.021,277.70998 L252.17,277.74904 L250.318,277.78835 L248.469,277.82741 L246.633,277.86061 L244.795,277.89382 L242.957,277.92726 L241.121,277.96047 L239.301,277.98781 L237.479,278.01491 L235.657,278.04225 L233.837,278.0696 L232.034,278.09133 L230.229,278.1133 L228.424,278.13503 L226.621,278.15676 L224.835,278.17409 L223.047,278.19167 L221.259,278.20949 L219.473,278.22756 L217.707,278.24099 L215.939,278.25441 L214.17,278.26784 L212.404,278.28102 L210.658,278.29055 L208.911,278.29982 L207.164,278.3091 L205.419,278.31862 L203.688,278.32546 L201.957,278.33229 L200.237,278.33742 L198.517,278.34255 L196.809,278.34621 L195.102,278.34987 L193.405,278.35207 L191.708,278.35427 L190.024,278.35524 L188.339,278.35671 L186.668,278.3572 L184.996,278.35793 L183.337,278.35744 L181.677,278.35695 L180.03,278.35549 L178.384,278.35402 L176.752,278.35182 L175.119,278.34938 L173.5,278.34645 L171.88,278.34352 L170.275,278.33986 L168.669,278.33644 L167.079,278.33229 L165.488,278.32814 L163.911,278.32375 L162.334,278.31935 L160.773,278.31447 L159.211,278.30983 L157.665,278.30495 L156.119,278.30007 L154.588,278.29518 L153.056,278.2903 L151.541,278.28542 L150.026,278.28029 L148.527,278.27565 L147.029,278.27101 L145.546,278.26662 L144.063,278.26223 L142.597,278.25832 L141.131,278.25417 L139.683,278.25075 L138.235,278.24733 L136.803,278.24465 L135.371,278.24196 L133.958,278.24001 L132.544,278.23781 L131.149,278.23683 L129.763,278.23586 L128.845,278.22243 L127.945,278.18093 L127.05,278.11135 L126.161,278.01662 L125.28,277.89479 L124.404,277.74538 L123.533,277.57155 L122.67,277.37136 L121.811,277.14406 L120.957,276.89211 L120.111,276.61428 L119.269,276.30983 L118.431,275.9822 L117.601,275.62966 L116.774,275.25099 L115.952,274.84963 L115.137,274.42409 L114.325,273.97292 L113.518,273.49929 L112.717,273.00246 L111.92,272.48024 L111.127,271.93654 L110.341,271.36989 L109.565,270.78347 L108.782,270.1548 L108.007,269.53273 L107.243,268.86525 L106.478,268.19753 L105.724,267.48537 L104.967,266.77101 L104.22,266.01711 L103.474,265.26491 L102.74,264.47023 L102.004,263.67507 L101.279,262.83889 L100.552,262.00026 L99.836,261.12526 L99.119,260.25173 L98.414,259.33889 L97.708,258.42556 L97.013,257.47438 L96.317,256.5215 L95.629,255.53566 L94.941,254.55104 L94.264,253.53078 L93.587,252.50978 L92.921,251.45436 L92.253,250.39699 L91.594,249.30934 L90.937,248.22267 L90.29,247.10353 L89.642,245.98366 L89.005,244.83303 L88.367,243.68044 L87.739,242.50075 L87.111,241.3218 L86.493,240.11403 L85.875,238.90554 L85.268,237.66945 L84.659,236.4319 L84.06,235.17018 L83.461,233.90895 L82.872,232.62233 L82.283,231.33522 L81.705,230.0237 L81.125,228.71096 L80.555,227.37697 L79.984,226.04396 L79.423,224.68874 L78.861,223.33327 L78.31,221.95656 L77.758,220.57888 L77.215,219.18312 L76.673,217.7879 L76.139,216.3738 L75.606,214.9592 L75.082,213.5274 L74.557,212.0943 L74.041,210.6465 L73.526,209.1987 L73.019,207.7359 L72.512,206.2725 L72.015,204.7949 L71.518,203.3194 L71.034,201.8264 L70.547,200.3247 L70.059,198.823 L69.576,197.3333 L69.111,195.8216 L68.641,194.2979 L68.171,192.7742 L67.704,191.2615 L67.255,189.7317 L66.803,188.1912 L66.35,186.6504 L65.901,185.1189 L65.466,183.5757 L65.029,182.0235 L64.592,180.4712 L64.157,178.928 L63.739,177.3762 L63.319,175.8154 L62.899,174.2547 L62.481,172.7022 L62.078,171.146 L61.674,169.5816 L61.27,168.0171 L60.867,166.4595 L60.479,164.9024 L60.089,163.3386 L59.698,161.7747 L59.309,160.2178 L58.936,158.6658 L58.561,157.1067 L58.186,155.5479 L57.812,153.9951 L57.453,152.4522 L57.093,150.9031 L56.732,149.3538 L56.373,147.8086 L56.023,146.2722 L55.673,144.7349 L55.331,143.2056 L54.987,141.676 L54.652,140.156 L54.316,138.6355 L53.986,137.1243 L53.656,135.6133 L53.333,134.1138 L53.01,132.614 L52.694,131.127 L52.378,129.6394 L52.067,128.1646 L51.757,126.6897 L51.452,125.2298 L51.148,123.7695 L50.85,122.3252 L50.552,120.8806 L50.26,119.4519 L49.968,118.0227 L49.682,116.6121 L49.396,115.2009 L49.115,113.8096 L48.835,112.4175 L48.56,111.0445 L48.285,109.6709 L48.016,108.3191 L47.747,106.9673 L47.484,105.638 L47.22,104.3084 L46.962,103.0008 L46.703,101.6926 L46.45,100.4094 L46.197,99.1262 L45.95,97.8689 L45.702,96.6116 L45.459,95.3789 L45.216,94.1458 L44.979,92.9412 L44.741,91.7361 L44.508,90.5606 L44.275,89.3848 L44.047,88.2368 L43.819,87.0886 L43.595,85.9718 L43.371,84.8548 L43.152,83.7705 L42.933,82.6862 L42.718,81.6325 L42.504,80.5784 L42.293,79.5591 L42.083,78.5394 L41.877,77.5559 L41.67,76.5714 L41.266,74.6719 L40.869,72.8467 L40.48,71.0996 L40.098,69.4249 L39.724,67.8313 L39.357,66.3253 L39.174,65.5963 L38.994,64.8919 L38.816,64.2096 L38.639,63.5474 L38.463,62.9068 L38.29,62.2947 C38.044,61.4227 37.138,60.9152 36.266,61.161 C35.394,61.4068 34.887,62.3129 35.132,63.1848 Z" id="Fill-74"></path>
        </g>
    </g>
</svg>
