<?xml version="1.0" encoding="UTF-8"?>
<svg width="430px" height="321px" viewBox="0 0 430 321" version="1.1" xmlns="http://www.w3.org/2000/svg" xmlns:xlink="http://www.w3.org/1999/xlink">
    <title>84</title>
    <g id="Page-1" stroke="none" stroke-width="1" fill="none" fill-rule="evenodd">
        <g id="84" transform="translate(0.954750, 0.070000)" fill="currentColor">
            <path d="M388.786,27.484 L387.436,26.71 L386.072,25.929 L384.699,25.175 L383.326,24.421 L381.945,23.695 L380.565,22.97 L379.177,22.269 L377.789,21.568 L376.392,20.894 L374.995,20.22 L373.589,19.572 L372.186,18.925 L370.774,18.301 L369.362,17.678 L367.942,17.079 L366.522,16.481 L365.094,15.908 L363.668,15.336 L362.234,14.786 L360.8,14.236 L359.358,13.711 L357.916,13.185 L356.467,12.684 L355.02,12.183 L353.565,11.704 L352.11,11.224 L350.648,10.768 L349.186,10.311 L347.717,9.878 L346.25,9.445 L344.776,9.032 L343.301,8.62 L341.82,8.229 L340.339,7.839 L338.852,7.47 L337.366,7.101 L335.874,6.752 L334.381,6.403 L332.882,6.075 L331.384,5.747 L329.879,5.439 L328.376,5.132 L326.867,4.843 L325.358,4.553 L323.842,4.284 L322.328,4.014 L320.807,3.764 L319.288,3.514 L317.763,3.282 L316.238,3.049 L314.708,2.835 L313.178,2.622 L311.643,2.426 L310.108,2.231 L308.57,2.051 L307.031,1.872 L305.487,1.71 L303.943,1.548 L302.394,1.403 L300.847,1.258 L299.295,1.128 L297.743,0.998 L296.186,0.885 L294.629,0.771 L293.069,0.673 L291.509,0.576 L289.946,0.492 L288.382,0.409 L286.814,0.341 L285.246,0.273 L283.674,0.219 L282.104,0.165 L280.529,0.125 L278.955,0.084 L277.377,0.057 L275.799,0.03 L274.218,0.017 L272.637,0 L271.054,0 L269.47,0 L267.883,0.011 L266.296,0.023 L264.707,0.047 L263.118,0.071 L261.526,0.107 L259.935,0.142 L258.34,0.188 L256.746,0.235 L255.149,0.293 L253.553,0.35 L251.954,0.418 L250.356,0.485 L248.754,0.563 L247.154,0.64 L245.551,0.728 L243.947,0.815 L242.34,0.916 L240.739,1.017 L239.139,1.12 L237.53,1.224 L235.917,1.345 L234.314,1.465 L232.71,1.585 L231.098,1.706 L229.483,1.843 L227.877,1.979 L226.27,2.115 L224.657,2.252 L223.042,2.401 L221.433,2.55 L219.824,2.699 L218.21,2.849 L216.593,3.011 L214.982,3.17 L213.371,3.329 L211.755,3.488 L210.137,3.659 L208.525,3.828 L206.913,3.998 L205.297,4.168 L203.68,4.347 L202.067,4.526 L200.455,4.704 L198.838,4.883 L197.222,5.07 L195.609,5.257 L193.996,5.444 L192.38,5.63 L190.765,5.824 L189.152,6.017 L187.54,6.209 L185.925,6.402 L184.312,6.6 L182.7,6.797 L181.089,6.994 L179.476,7.192 L177.864,7.393 L176.254,7.593 L174.645,7.794 L173.034,7.995 L171.425,8.197 L169.817,8.4 L168.21,8.602 L166.602,8.804 L164.998,9.007 L163.395,9.21 L161.791,9.413 L160.187,9.616 L158.584,9.819 L156.98,10.023 L155.376,10.226 L153.775,10.428 L152.181,10.626 L150.585,10.823 L148.989,11.02 L147.393,11.218 L145.796,11.415 L144.2,11.613 L142.604,11.81 L141.013,12.007 L139.433,12.193 L137.847,12.379 L136.261,12.565 L134.675,12.751 L133.089,12.936 L131.502,13.122 L129.917,13.308 L128.336,13.494 L126.763,13.667 L125.185,13.841 L123.607,14.015 L122.034,14.189 L120.467,14.352 L118.896,14.515 L117.324,14.679 L115.759,14.842 L114.2,14.992 L112.636,15.144 L111.072,15.295 L109.513,15.446 L107.962,15.584 L106.405,15.723 L104.848,15.861 L103.297,15.999 L101.755,16.122 L100.207,16.245 L98.658,16.369 L97.117,16.491 L95.585,16.597 L94.044,16.703 L92.504,16.81 L90.961,16.916 L89.392,17.03 L87.825,17.177 L86.273,17.355 L84.735,17.562 L83.209,17.8 L81.699,18.069 L80.202,18.365 L78.718,18.692 L77.25,19.048 L75.794,19.432 L74.352,19.845 L72.925,20.287 L71.512,20.755 L70.112,21.252 L68.728,21.776 L67.356,22.326 L65.999,22.904 L64.656,23.508 L63.327,24.137 L62.012,24.792 L60.711,25.474 L59.425,26.179 L58.152,26.911 L56.894,27.668 L55.65,28.447 L54.419,29.252 L53.204,30.081 L52.002,30.932 L50.814,31.807 L49.642,32.706 L48.482,33.625 L47.337,34.568 L46.207,35.534 L45.09,36.519 L43.986,37.527 L42.897,38.556 L41.822,39.605 L40.761,40.676 L39.714,41.766 L38.681,42.876 L37.662,44.007 L36.657,45.157 L35.666,46.325 L34.689,47.513 L33.726,48.719 L32.776,49.943 L31.841,51.186 L30.917,52.451 L30.019,53.732 L29.117,55.0174 L28.243,56.3384 L27.37,57.6591 L26.524,59.0138 L25.681,60.367 L24.862,61.7499 L24.043,63.1341 L23.251,64.55 L22.461,65.9657 L21.698,67.412 L20.936,68.8567 L20.199,70.3283 L19.462,71.8009 L18.752,73.302 L18.043,74.8029 L17.362,76.331 L16.682,77.8576 L16.027,79.4081 L15.372,80.9598 L14.744,82.5364 L14.117,84.1128 L13.517,85.7132 L12.918,87.3121 L12.344,88.9317 L11.77,90.5523 L11.223,92.1946 L10.677,93.8367 L10.158,95.4994 L9.639,97.1607 L9.146,98.8396 L8.652,100.5196 L8.186,102.2179 L7.72,103.9163 L7.282,105.6318 L6.844,107.346 L6.431,109.0749 L6.019,110.8046 L5.633,112.5494 L5.247,114.2939 L4.889,116.0523 L4.531,117.8095 L4.197,119.5783 L3.864,121.3479 L3.558,123.1293 L3.251,124.9104 L2.973,126.7021 L2.694,128.4927 L2.441,130.2919 L2.188,132.092 L1.961,133.9002 L1.734,135.7084 L1.535,137.5237 L1.336,139.3379 L1.161,141.1578 L0.986,142.9783 L0.839,144.8039 L0.691,146.6293 L0.57,148.4584 L0.45,150.2867 L0.354,152.1174 L0.258,153.9488 L0.189,155.7819 L0.12,157.6149 L0.077,159.4483 L0.035,161.2808 L0.018,163.1127 L0,164.9454 L0.009,166.7763 L0.018,168.6072 L0.054,170.4352 L0.089,172.2622 L0.149,174.0857 L0.21,175.91 L0.296,177.7292 L0.383,179.5484 L0.496,181.3612 L0.609,183.1733 L0.747,184.9787 L0.884,186.7848 L1.048,188.5827 L1.212,190.3805 L1.402,192.1686 L1.593,193.956 L1.807,195.7336 L2.022,197.512 L2.263,199.2787 L2.504,201.0456 L2.772,202.7994 L3.039,204.5525 L3.329,206.2929 L3.62,208.0342 L3.938,209.7604 L4.255,211.4867 L4.599,213.1967 L4.942,214.9058 L5.31,216.5992 L5.678,218.2936 L6.072,219.9695 L6.466,221.6455 L6.887,223.302 L7.307,224.9576 L7.751,226.5942 L8.196,228.2321 L8.667,229.8483 L9.137,231.4645 L9.634,233.0579 L10.13,234.6503 L10.651,236.2207 L11.172,237.7925 L11.719,239.3392 L12.267,240.8859 L12.84,242.4064 L13.413,243.9259 L14.01,245.4205 L14.608,246.9164 L15.232,248.3838 L15.856,249.8514 L16.506,251.2893 L17.155,252.7265 L17.829,254.1357 L18.502,255.5462 L19.203,256.9248 L19.903,258.3038 L20.629,259.6497 L21.356,260.9944 L22.106,262.3083 L22.856,263.6236 L23.633,264.9036 L24.411,266.184 L25.214,267.4279 L26.017,268.6707 L26.843,269.8793 L27.671,271.0895 L28.525,272.2611 L29.379,273.433 L30.26,274.565 L31.137,275.6922 L32.038,276.7995 L32.95,277.8832 L33.875,278.9454 L34.812,279.9881 L35.762,281.0102 L36.727,282.0109 L37.529,282.8077 L38.373,283.5977 L39.254,284.3775 L40.168,285.149 L41.122,285.9123 L42.111,286.6661 L43.133,287.4117 L44.191,288.1492 L45.285,288.8776 L46.41,289.5981 L47.571,290.3106 L48.765,291.014 L49.99,291.7096 L51.25,292.3974 L52.541,293.0763 L53.862,293.7477 L55.216,294.4111 L56.602,295.0658 L58.016,295.7131 L59.461,296.3523 L60.937,296.9831 L62.439,297.6062 L63.973,298.2214 L65.535,298.828 L67.123,299.4273 L68.741,300.0184 L70.386,300.6011 L72.057,301.1756 L73.755,301.742 L75.48,302.2998 L77.229,302.8501 L79.005,303.3923 L80.806,303.9259 L82.629,304.4519 L84.479,304.9698 L86.352,305.479 L88.247,305.9806 L90.166,306.474 L92.106,306.9584 L93.088,307.1973 L94.07,307.4358 L95.063,307.6701 L96.055,307.9042 L97.059,308.1342 L98.064,308.3643 L99.084,308.5887 L100.098,308.8119 L101.113,309.0352 L102.134,309.2601 L103.177,309.4764 L104.212,309.6911 L105.248,309.9059 L106.29,310.122 L107.352,310.3296 L108.408,310.5358 L109.463,310.7421 L110.524,310.9494 L111.603,311.149 L112.676,311.3473 L113.749,311.5458 L114.828,311.7454 L115.925,311.9362 L117.017,312.126 L118.108,312.3157 L119.205,312.5065 L120.319,312.6886 L121.428,312.8697 L122.537,313.0508 L123.65,313.2327 L124.779,313.4067 L125.903,313.5798 L127.026,313.7528 L128.156,313.9268 L129.301,314.092 L130.44,314.2563 L131.58,314.4207 L132.725,314.5857 L133.884,314.742 L135.038,314.8974 L136.192,315.0529 L137.352,315.209 L138.523,315.357 L139.69,315.5043 L140.857,315.6518 L142.029,315.7997 L143.215,315.9388 L144.395,316.0772 L145.575,316.216 L146.76,316.3554 L147.958,316.4859 L149.15,316.6156 L150.343,316.7455 L151.54,316.8758 L152.747,316.9978 L153.95,317.1195 L155.153,317.2411 L156.36,317.3632 L157.579,317.4761 L158.793,317.5887 L160.006,317.7012 L161.224,317.8141 L162.452,317.9179 L163.675,318.0213 L164.898,318.1246 L166.126,318.2283 L167.362,318.3236 L168.593,318.4186 L169.824,318.5137 L171.06,318.6094 L172.304,318.6958 L173.544,318.7819 L174.783,318.868 L176.027,318.9544 L177.278,319.0314 L178.525,319.1083 L179.772,319.1851 L181.022,319.2621 L182.279,319.3306 L183.531,319.3988 L184.784,319.4672 L186.041,319.5357 L187.303,319.5948 L188.561,319.6537 L189.819,319.7126 L191.081,319.7716 L192.348,319.8212 L193.611,319.8706 L194.874,319.9201 L196.14,319.9699 L197.41,320.011 L198.676,320.052 L199.942,320.0931 L201.212,320.1342 L202.486,320.1658 L203.755,320.1973 L205.024,320.2287 L206.297,320.2603 L207.573,320.2821 L208.844,320.304 L210.115,320.3258 L211.39,320.3477 L212.666,320.3609 L213.939,320.3738 L215.211,320.3869 L216.487,320.3999 L217.764,320.4034 L219.037,320.4067 L220.31,320.41 L221.587,320.4134 L222.863,320.4068 L224.136,320.4003 L225.408,320.394 L226.684,320.3874 L227.959,320.372 L229.23,320.3566 L230.501,320.3412 L231.776,320.3257 L233.05,320.3003 L234.319,320.2751 L235.588,320.2498 L236.861,320.2245 L238.131,320.1891 L239.397,320.154 L240.663,320.1188 L241.933,320.0834 L243.2,320.039 L244.462,319.9948 L245.724,319.9504 L246.991,319.9056 L248.253,319.8507 L249.511,319.7962 L250.769,319.7415 L252.031,319.6867 L253.288,319.6217 L254.54,319.557 L255.792,319.4924 L257.048,319.4274 L258.299,319.3533 L259.545,319.2793 L260.792,319.2055 L262.043,319.1313 L263.286,319.0469 L264.525,318.9628 L265.764,318.8787 L267.008,318.7942 L268.244,318.6995 L269.475,318.6053 L270.705,318.5108 L271.94,318.4157 L273.168,318.3112 L274.391,318.2071 L275.613,318.1029 L276.841,317.9985 L278.059,317.8836 L279.272,317.7692 L280.484,317.6547 L281.702,317.5398 L282.91,317.4145 L284.112,317.2896 L285.314,317.1648 L286.521,317.0395 L287.717,316.9047 L288.909,316.7703 L290.101,316.636 L291.298,316.5011 L292.482,316.3556 L293.662,316.2109 L294.841,316.0661 L296.026,315.9205 L297.198,315.7642 L298.363,315.6087 L299.529,315.453 L300.701,315.2968 L301.859,315.1309 L303.012,314.9657 L304.166,314.8005 L305.325,314.6344 L306.469,314.4577 L307.607,314.2819 L308.745,314.1061 L309.89,313.9292 L311.018,313.7417 L312.141,313.5552 L313.263,313.3687 L314.391,313.1812 L315.504,312.9839 L316.611,312.7876 L317.719,312.5913 L318.833,312.394 L319.929,312.1856 L321.019,311.9784 L322.108,311.7713 L323.205,311.5629 L324.283,311.3435 L325.355,311.1255 L326.426,310.9076 L327.504,310.6883 L328.564,310.459 L329.618,310.2311 L330.672,310.0032 L331.733,309.7737 L332.775,309.5332 L333.809,309.2944 L334.843,309.0556 L335.884,308.815 L336.905,308.5633 L337.918,308.3134 L338.931,308.0636 L339.949,307.8124 L340.953,307.5536 L341.955,307.2953 L342.946,307.0313 L343.938,306.7673 L344.918,306.4977 L345.897,306.2282 L346.866,305.9535 L347.837,305.6784 L349.752,305.1181 L351.644,304.5462 L353.514,303.9639 L355.36,303.3702 L357.18,302.7651 L358.978,302.1496 L360.75,301.5224 L362.495,300.884 L364.216,300.2349 L365.911,299.574 L367.578,298.9017 L369.22,298.2189 L370.834,297.5247 L372.418,296.8189 L373.977,296.1022 L375.506,295.3735 L377.005,294.6331 L378.477,293.8816 L379.918,293.1178 L381.327,292.3423 L382.708,291.5557 L384.057,290.7564 L385.373,289.9452 L386.659,289.1227 L387.913,288.2874 L389.132,287.44 L390.32,286.5811 L391.474,285.7091 L392.593,284.8251 L393.679,283.9295 L394.731,283.0202 L395.745,282.0986 L396.725,281.1651 L397.669,280.2176 L398.575,279.2579 L399.445,278.2858 L400.278,277.2995 L401.07,276.3008 L401.827,275.2897 L402.544,274.264 L403.219,273.2259 L403.856,272.1753 L404.453,271.1098 L405.004,270.0362 L405.503,269.0026 L406,267.9725 L406.487,266.9162 L406.975,265.8601 L407.454,264.7786 L407.932,263.6979 L408.402,262.5946 L408.872,261.491 L409.332,260.3631 L409.793,259.2353 L410.243,258.0841 L410.693,256.9336 L411.135,255.7624 L411.577,254.5907 L412.009,253.397 L412.441,252.2033 L412.863,250.9882 L413.285,249.7737 L413.697,248.5403 L414.11,247.3066 L414.513,246.0527 L414.916,244.7989 L415.308,243.5257 L415.7,242.2528 L416.081,240.9627 L416.462,239.672 L416.833,238.3633 L417.203,237.0547 L417.563,235.7287 L417.923,234.4034 L418.273,233.0627 L418.624,231.7217 L418.963,230.3647 L419.302,229.0077 L419.631,227.6354 L419.96,226.2637 L420.278,224.8786 L420.596,223.4931 L420.904,222.0935 L421.211,220.6941 L421.507,219.2814 L421.803,217.8692 L422.088,216.4452 L422.374,215.0209 L422.647,213.5848 L422.921,212.1486 L423.183,210.7011 L423.445,209.2541 L423.696,207.7974 L423.948,206.3405 L424.188,204.8736 L424.428,203.4067 L424.655,201.9305 L424.883,200.4548 L425.1,198.9712 L425.317,197.4873 L425.522,195.9956 L425.727,194.5038 L425.92,193.0049 L426.114,191.5066 L426.297,190.0024 L426.481,188.4977 L426.652,186.9871 L426.822,185.4766 L426.981,183.9609 L427.139,182.4455 L427.286,180.9259 L427.433,179.4062 L427.566,177.8825 L427.701,176.3587 L427.822,174.8318 L427.943,173.3053 L428.052,171.7765 L428.162,170.2474 L428.258,168.7163 L428.355,167.1853 L428.438,165.6534 L428.522,164.1215 L428.593,162.5894 L428.665,161.0568 L428.723,159.5245 L428.781,157.992 L428.826,156.4605 L428.87,154.9294 L428.902,153.3997 L428.935,151.8695 L428.953,150.3416 L428.971,148.8136 L428.98,147.2886 L428.98,145.764 L428.972,144.2426 L428.964,142.7207 L428.942,141.2032 L428.919,139.6856 L428.883,138.1729 L428.847,136.6606 L428.798,135.1534 L428.749,133.6458 L428.685,132.1445 L428.621,130.643 L428.543,129.1486 L428.464,127.6545 L428.373,126.1674 L428.281,124.6799 L428.175,123.2005 L428.068,121.7212 L427.947,120.2509 L427.825,118.7809 L427.69,117.3197 L427.556,115.8581 L427.406,114.4068 L427.256,112.9552 L427.09,111.5149 L426.925,110.0749 L426.746,108.6455 L426.567,107.2157 L426.372,105.7981 L426.177,104.3805 L425.967,102.976 L425.756,101.5718 L425.532,100.1802 L425.307,98.7879 L425.067,97.4101 L424.826,96.0321 L424.57,94.6692 L424.314,93.3068 L424.043,91.9587 L423.772,90.6099 L423.484,89.2775 L423.197,87.945 L422.894,86.6296 L422.59,85.3146 L422.272,84.0159 L421.954,82.7163 L421.619,81.4353 L421.284,80.1542 L420.932,78.8921 L420.581,77.6307 L420.214,76.3871 L419.847,75.1427 L419.462,73.919 L419.079,72.695 L418.677,71.4921 L418.276,70.2898 L417.86,69.1075 L417.443,67.9241 L417.009,66.7633 L416.575,65.6025 L416.123,64.4646 L415.671,63.3274 L415.204,62.212 L414.736,61.0956 L414.251,60.0037 L413.765,58.9117 L413.262,57.8448 L412.758,56.7786 L412.239,55.736 L411.719,54.6923 L411.181,53.675 L410.643,52.658 L410.086,51.668 L409.53,50.679 L408.958,49.715 L408.384,48.75 L407.793,47.813 L407.2,46.877 L406.589,45.97 L405.979,45.063 L405.352,44.184 L404.724,43.304 L404.077,42.454 L403.429,41.605 L402.763,40.786 L402.097,39.969 L401.414,39.18 L400.73,38.391 L400.026,37.634 L399.323,36.878 L398.6,36.155 L397.874,35.429 L396.395,34.049 L394.872,32.734 L393.311,31.492 L391.712,30.316 L390.072,29.213 L388.406,28.196 C388.013,27.956 387.5,28.08 387.26,28.473 C387.02,28.866 387.144,29.38 387.537,29.62 L389.171,30.618 L390.751,31.681 L392.296,32.817 L393.807,34.019 L395.28,35.291 L396.72,36.636 L397.419,37.335 L398.121,38.037 L398.804,38.772 L399.487,39.507 L400.152,40.274 L400.818,41.043 L401.468,41.841 L402.117,42.638 L402.748,43.466 L403.379,44.295 L403.992,45.154 L404.606,46.015 L405.204,46.903 L405.801,47.79 L406.38,48.706 L406.96,49.623 L407.521,50.568 L408.084,51.515 L408.629,52.487 L409.175,53.458 L409.704,54.4568 L410.232,55.4557 L410.743,56.4814 L411.254,57.508 L411.75,58.5583 L412.245,59.608 L412.723,60.683 L413.201,61.7583 L413.662,62.8582 L414.123,63.9591 L414.568,65.0818 L415.014,66.2039 L415.442,67.3494 L415.87,68.495 L416.282,69.6632 L416.693,70.8324 L417.09,72.0215 L417.486,73.21 L417.866,74.42 L418.245,75.63 L418.608,76.8606 L418.971,78.0921 L419.319,79.3415 L419.668,80.5906 L419.999,81.8589 L420.331,83.1274 L420.646,84.4143 L420.961,85.7021 L421.262,87.006 L421.563,88.3095 L421.847,89.6302 L422.131,90.9511 L422.4,92.2885 L422.668,93.6265 L422.922,94.9789 L423.176,96.331 L423.414,97.6982 L423.652,99.0655 L423.874,100.4473 L424.097,101.8296 L424.305,103.2245 L424.513,104.6191 L424.706,106.0267 L424.898,107.4344 L425.075,108.8545 L425.252,110.2752 L425.416,111.7066 L425.58,113.1376 L425.728,114.5796 L425.876,116.0219 L426.009,117.4744 L426.143,118.9274 L426.262,120.3893 L426.381,121.8507 L426.486,123.3213 L426.591,124.792 L426.681,126.2709 L426.771,127.7504 L426.847,129.2367 L426.924,130.7228 L426.986,132.2159 L427.048,133.7089 L427.096,135.2083 L427.144,136.7082 L427.179,138.2131 L427.213,139.7177 L427.234,141.2273 L427.255,142.7369 L427.261,144.2508 L427.268,145.7651 L427.261,147.2825 L427.255,148.7997 L427.235,150.3199 L427.214,151.84 L427.181,153.3623 L427.147,154.8852 L427.101,156.4092 L427.054,157.9331 L426.995,159.4578 L426.935,160.9826 L426.862,162.5075 L426.789,164.0328 L426.704,165.5575 L426.618,167.082 L426.52,168.6054 L426.421,170.1287 L426.309,171.6501 L426.197,173.1719 L426.073,174.6913 L425.95,176.2105 L425.814,177.7264 L425.677,179.2424 L425.528,180.7544 L425.378,182.2668 L425.218,183.7749 L425.057,185.2828 L424.884,186.7854 L424.711,188.2881 L424.526,189.7847 L424.34,191.2818 L424.144,192.7727 L423.946,194.2631 L423.736,195.7463 L423.525,197.2293 L423.303,198.7044 L423.081,200.1797 L422.847,201.6473 L422.614,203.1144 L422.369,204.5722 L422.125,206.0299 L421.868,207.4776 L421.611,208.9256 L421.344,210.3639 L421.077,211.8017 L420.799,213.2282 L420.521,214.6547 L420.231,216.069 L419.941,217.4837 L419.641,218.8869 L419.342,220.2897 L419.032,221.6791 L418.722,223.0684 L418.4,224.4436 L418.079,225.8191 L417.748,227.1813 L417.417,228.5429 L417.075,229.8891 L416.734,231.2351 L416.381,232.5651 L416.029,233.8954 L415.667,235.2104 L415.305,236.5248 L414.933,237.8218 L414.561,239.1187 L414.179,240.3974 L413.796,241.6764 L413.406,242.9388 L413.016,244.2007 L412.617,245.4432 L412.217,246.6855 L411.808,247.9076 L411.398,249.13 L410.98,250.3337 L410.561,251.5365 L410.133,252.7178 L409.706,253.8991 L409.268,255.0579 L408.83,256.2173 L408.384,257.3559 L407.938,258.4937 L407.483,259.6078 L407.028,260.722 L406.563,261.8117 L406.099,262.9018 L405.626,263.9693 L405.153,265.0361 L404.672,266.0769 L404.19,267.1178 L403.7,268.1321 L403.212,269.143 L402.688,270.1624 L402.126,271.1652 L401.522,272.1585 L400.881,273.142 L400.202,274.1134 L399.481,275.0751 L398.725,276.027 L397.93,276.9671 L397.096,277.8974 L396.227,278.8177 L395.32,279.7264 L394.375,280.6249 L393.396,281.5135 L392.381,282.3904 L391.328,283.2571 L390.243,284.1138 L389.122,284.9587 L387.965,285.7929 L386.777,286.617 L385.555,287.4296 L384.298,288.2314 L383.011,289.0231 L381.69,289.8033 L380.337,290.5726 L378.954,291.3318 L377.54,292.0794 L376.094,292.8161 L374.619,293.5426 L373.114,294.2576 L371.579,294.9617 L370.017,295.6556 L368.426,296.3381 L366.805,297.009 L365.158,297.6695 L363.484,298.3186 L361.782,298.9567 L360.055,299.5848 L358.302,300.2013 L356.522,300.8069 L354.718,301.4024 L352.89,301.9866 L351.037,302.5599 L349.161,303.1231 L347.259,303.6755 L346.299,303.9454 L345.337,304.216 L344.365,304.4815 L343.393,304.747 L342.409,305.0069 L341.425,305.2668 L340.431,305.5212 L339.438,305.7753 L338.429,306.0218 L337.416,306.2697 L336.402,306.5176 L335.397,306.7636 L334.37,306.9987 L333.335,307.2355 L332.301,307.4725 L331.273,307.7076 L330.227,307.9319 L329.172,308.1578 L328.118,308.3836 L327.07,308.6081 L326.004,308.8227 L324.932,309.0386 L323.86,309.2546 L322.795,309.4692 L321.712,309.6729 L320.622,309.878 L319.531,310.083 L318.448,310.2869 L317.347,310.48 L316.239,310.6742 L315.131,310.8686 L314.029,311.0618 L312.912,311.2454 L311.79,311.4299 L310.667,311.6143 L309.55,311.7978 L308.418,311.9706 L307.279,312.1443 L306.14,312.3182 L305.007,312.491 L303.86,312.6532 L302.707,312.8163 L301.553,312.9794 L300.405,313.1418 L299.244,313.2945 L298.077,313.4479 L296.911,313.6014 L295.751,313.7541 L294.576,313.8964 L293.397,314.0395 L292.217,314.1827 L291.043,314.3251 L289.857,314.4571 L288.665,314.5896 L287.473,314.7222 L286.286,314.8543 L285.088,314.977 L283.886,315.1 L282.684,315.2231 L281.487,315.3457 L280.279,315.4579 L279.066,315.5706 L277.853,315.6833 L276.645,315.7955 L275.427,315.8974 L274.204,315.9998 L272.981,316.1021 L271.763,316.204 L270.537,316.2967 L269.306,316.3899 L268.075,316.4833 L266.849,316.5763 L265.614,316.6592 L264.375,316.7424 L263.136,316.8255 L261.902,316.9084 L260.66,316.981 L259.414,317.054 L258.168,317.1269 L256.925,317.1996 L255.678,317.2631 L254.425,317.3268 L253.173,317.3907 L251.926,317.4541 L250.673,317.5076 L249.415,317.5612 L248.157,317.6149 L246.904,317.6684 L245.646,317.7118 L244.384,317.7557 L243.121,317.7996 L241.863,317.8434 L240.601,317.8781 L239.335,317.913 L238.069,317.9479 L236.808,317.9826 L235.543,318.0075 L234.274,318.0324 L233.005,318.0573 L231.741,318.0822 L230.474,318.0972 L229.203,318.1123 L227.932,318.1274 L226.665,318.1424 L225.397,318.1485 L224.125,318.1546 L222.852,318.1608 L221.585,318.1669 L220.316,318.1632 L219.043,318.1596 L217.771,318.156 L216.502,318.1524 L215.234,318.1392 L213.962,318.1258 L212.689,318.1125 L211.421,318.0992 L210.154,318.0772 L208.883,318.055 L207.611,318.0329 L206.345,318.0109 L205.08,317.9792 L203.811,317.9474 L202.542,317.9157 L201.277,317.8841 L200.015,317.8429 L198.749,317.8017 L197.483,317.7603 L196.221,317.7192 L194.962,317.6694 L193.7,317.6192 L192.437,317.569 L191.179,317.519 L189.925,317.4595 L188.667,317.3999 L187.409,317.3403 L186.155,317.2808 L184.907,317.212 L183.655,317.1429 L182.402,317.0739 L181.154,317.005 L179.911,316.9277 L178.665,316.8501 L177.418,316.7726 L176.176,316.6954 L174.941,316.6087 L173.702,316.5219 L172.462,316.435 L171.227,316.3484 L170,316.2527 L168.769,316.1563 L167.538,316.0597 L166.311,315.9637 L165.091,315.8592 L163.868,315.7543 L162.645,315.6495 L161.426,315.5451 L160.218,315.4314 L159.004,315.3175 L157.791,315.2035 L156.582,315.09 L155.384,314.9673 L154.181,314.8443 L152.979,314.7212 L151.78,314.5986 L150.592,314.4678 L149.4,314.3365 L148.208,314.2052 L147.02,314.0745 L145.845,313.9347 L144.665,313.7945 L143.485,313.6537 L142.31,313.5137 L141.148,313.3647 L139.982,313.2151 L138.815,313.0655 L137.653,312.9164 L136.504,312.7594 L135.35,312.6017 L134.196,312.444 L133.047,312.2872 L131.914,312.1214 L130.774,311.9549 L129.635,311.7884 L128.501,311.6226 L127.384,311.4482 L126.261,311.273 L125.137,311.0977 L124.019,310.9233 L122.916,310.7409 L121.808,310.5577 L120.7,310.3744 L119.597,310.1922 L118.513,310.0014 L117.422,309.8095 L116.331,309.6177 L115.246,309.4269 L114.18,309.2276 L113.107,309.0271 L112.035,308.8266 L110.968,308.6272 L109.919,308.4201 L108.864,308.2118 L107.809,308.0036 L106.761,307.7967 L105.732,307.5813 L104.697,307.3645 L103.662,307.1477 L102.634,306.9325 L101.627,306.7088 L100.613,306.4836 L99.599,306.2583 L98.589,306.0342 L97.595,305.8045 L96.599,305.5744 L95.615,305.3401 L94.63,305.1061 L93.657,304.8678 L92.685,304.6299 L90.757,304.1458 L88.856,303.6538 L86.978,303.1536 L85.122,302.6459 L83.291,302.1304 L81.486,301.6066 L79.704,301.0756 L77.948,300.5367 L76.219,299.9897 L74.515,299.4356 L72.838,298.8737 L71.189,298.304 L69.566,297.7277 L67.972,297.144 L66.407,296.5523 L64.869,295.9537 L63.362,295.3476 L61.884,294.7338 L60.436,294.1132 L59.019,293.4854 L57.633,292.85 L56.278,292.2079 L54.955,291.559 L53.666,290.9024 L52.407,290.2394 L51.183,289.5699 L49.993,288.893 L48.835,288.2098 L47.713,287.5205 L46.627,286.8241 L45.573,286.1217 L44.558,285.4136 L43.579,284.6984 L42.634,283.9777 L41.728,283.2519 L40.86,282.5191 L40.027,281.7813 L39.235,281.0389 L38.48,280.2885 L37.547,279.3202 L36.627,278.3294 L35.717,277.3163 L34.819,276.2837 L33.934,275.2309 L33.064,274.1601 L32.204,273.0536 L31.347,271.9519 L30.516,270.8105 L29.684,269.6687 L28.878,268.4884 L28.07,267.3066 L27.285,266.0905 L26.501,264.8755 L25.742,263.6241 L24.983,262.3724 L24.249,261.0854 L23.514,259.7968 L22.802,258.4771 L22.091,257.1585 L21.405,255.8067 L20.719,254.4546 L20.059,253.0706 L19.397,251.6852 L18.759,250.2716 L18.121,248.859 L17.51,247.4165 L16.897,245.9738 L16.312,244.5024 L15.725,243.0297 L15.161,241.532 L14.598,240.0352 L14.06,238.5119 L13.522,236.9884 L13.011,235.4397 L12.499,233.8898 L12.01,232.3179 L11.522,230.7469 L11.059,229.1528 L10.596,227.5585 L10.16,225.9423 L9.723,224.3249 L9.31,222.6885 L8.897,221.053 L8.51,219.3977 L8.123,217.7425 L7.762,216.0686 L7.401,214.3937 L7.064,212.7029 L6.727,211.013 L6.416,209.3067 L6.105,207.6003 L5.819,205.8787 L5.534,204.1562 L5.273,202.4209 L5.012,200.6863 L4.778,198.9386 L4.544,197.191 L4.336,195.4316 L4.128,193.6712 L3.945,191.901 L3.761,190.1318 L3.603,188.3529 L3.445,186.574 L3.314,184.7868 L3.183,182.9986 L3.076,181.2037 L2.968,179.4097 L2.888,177.6094 L2.807,175.8091 L2.753,174.0038 L2.699,172.1977 L2.669,170.388 L2.639,168.5791 L2.636,166.7674 L2.633,164.9556 L2.656,163.1423 L2.679,161.328 L2.726,159.5132 L2.773,157.6995 L2.848,155.886 L2.921,154.0728 L3.022,152.2611 L3.122,150.4488 L3.247,148.6388 L3.371,146.8299 L3.522,145.0247 L3.673,143.2196 L3.851,141.4197 L4.029,139.6188 L4.231,137.8236 L4.434,136.0293 L4.662,134.2424 L4.891,132.4555 L5.147,130.6769 L5.402,128.8976 L5.683,127.1269 L5.962,125.3572 L6.268,123.5979 L6.574,121.8389 L6.907,120.0917 L7.24,118.3435 L7.598,116.6071 L7.955,114.8717 L8.339,113.1504 L8.723,111.4291 L9.134,109.7231 L9.545,108.016 L9.981,106.3239 L10.417,104.6329 L10.879,102.959 L11.34,101.2853 L11.829,99.63 L12.318,97.9738 L12.831,96.3354 L13.344,94.6983 L13.884,93.0817 L14.424,91.4654 L14.991,89.871 L15.558,88.2756 L16.149,86.701 L16.741,85.1277 L17.359,83.5785 L17.977,82.0296 L18.623,80.5058 L19.268,78.981 L19.938,77.4798 L20.607,75.9801 L21.304,74.5079 L22,73.0357 L22.723,71.5922 L23.447,70.1475 L24.195,68.7298 L24.942,67.3136 L25.717,65.9281 L26.492,64.543 L27.293,63.1896 L28.096,61.8351 L28.923,60.5105 L29.749,59.1877 L30.602,57.8987 L31.455,56.6101 L32.335,55.3567 L33.218,54.0983 L34.114,52.873 L35.025,51.663 L35.951,50.471 L36.889,49.296 L37.839,48.141 L38.804,47.006 L39.781,45.888 L40.771,44.791 L41.774,43.714 L42.791,42.656 L43.819,41.619 L44.862,40.603 L45.917,39.606 L46.984,38.632 L48.067,37.679 L49.162,36.747 L50.269,35.838 L51.39,34.951 L52.523,34.085 L53.669,33.243 L54.83,32.424 L56.003,31.626 L57.188,30.853 L58.388,30.104 L59.6,29.377 L60.824,28.676 L62.063,27.998 L63.314,27.345 L64.578,26.717 L65.857,26.114 L67.148,25.535 L68.451,24.983 L69.77,24.458 L71.101,23.957 L72.445,23.484 L73.803,23.037 L75.174,22.616 L76.558,22.223 L77.957,21.858 L79.369,21.518 L80.793,21.208 L82.233,20.927 L83.685,20.672 L85.15,20.446 L86.631,20.251 L88.125,20.083 L89.631,19.945 L91.164,19.837 L92.701,19.736 L94.242,19.635 L95.782,19.535 L97.33,19.433 L98.887,19.315 L100.437,19.197 L101.986,19.079 L103.542,18.961 L105.106,18.827 L106.664,18.694 L108.222,18.561 L109.785,18.427 L111.355,18.281 L112.92,18.135 L114.484,17.989 L116.055,17.843 L117.632,17.684 L119.204,17.526 L120.776,17.368 L122.353,17.209 L123.936,17.04 L125.514,16.871 L127.093,16.702 L128.677,16.533 L130.269,16.352 L131.855,16.171 L133.441,15.99 L135.028,15.81 L136.615,15.629 L138.202,15.448 L139.788,15.267 L141.38,15.086 L142.982,14.892 L144.579,14.698 L146.175,14.504 L147.772,14.31 L149.368,14.117 L150.965,13.923 L152.561,13.729 L154.16,13.535 L155.766,13.335 L157.37,13.136 L158.975,12.936 L160.579,12.737 L162.183,12.538 L163.787,12.338 L165.391,12.139 L166.995,11.939 L168.603,11.739 L170.21,11.538 L171.818,11.337 L173.425,11.136 L175.035,10.938 L176.645,10.738 L178.255,10.539 L179.863,10.341 L181.473,10.145 L183.085,9.95 L184.696,9.754 L186.306,9.559 L187.916,9.368 L189.528,9.176 L191.141,8.985 L192.751,8.794 L194.36,8.61 L195.973,8.425 L197.586,8.241 L199.195,8.057 L200.804,7.881 L202.418,7.704 L204.03,7.527 L205.639,7.351 L207.247,7.184 L208.859,7.016 L210.471,6.848 L212.078,6.681 L213.684,6.524 L215.295,6.368 L216.906,6.211 L218.511,6.058 L220.114,5.918 L221.724,5.777 L223.334,5.636 L224.937,5.495 L226.538,5.368 L228.145,5.24 L229.752,5.112 L231.352,4.985 L232.948,4.873 L234.552,4.761 L236.157,4.648 L237.752,4.537 L239.344,4.442 L240.945,4.348 L242.545,4.252 L244.14,4.154 L245.731,4.07 L247.324,3.985 L248.915,3.91 L250.505,3.835 L252.093,3.771 L253.682,3.706 L255.268,3.651 L256.853,3.596 L258.436,3.552 L260.019,3.508 L261.598,3.476 L263.179,3.443 L264.756,3.421 L266.333,3.399 L267.907,3.389 L269.48,3.378 L271.05,3.38 L272.621,3.382 L274.189,3.395 L275.756,3.409 L277.319,3.435 L278.882,3.462 L280.442,3.503 L282.002,3.543 L283.559,3.597 L285.114,3.65 L286.667,3.718 L288.218,3.786 L289.766,3.868 L291.314,3.951 L292.858,4.047 L294.402,4.143 L295.941,4.254 L297.48,4.366 L299.014,4.494 L300.549,4.621 L302.081,4.764 L303.61,4.906 L305.136,5.065 L306.661,5.224 L308.181,5.401 L309.701,5.577 L311.218,5.769 L312.733,5.962 L314.243,6.172 L315.752,6.382 L317.257,6.61 L318.762,6.838 L320.263,7.084 L321.762,7.329 L323.256,7.593 L324.749,7.856 L326.237,8.14 L327.726,8.424 L329.209,8.725 L330.691,9.027 L332.168,9.349 L333.643,9.67 L335.113,10.012 L336.584,10.355 L338.049,10.716 L339.513,11.078 L340.97,11.46 L342.427,11.843 L343.878,12.247 L345.33,12.652 L346.776,13.076 L348.22,13.5 L349.658,13.947 L351.095,14.394 L352.526,14.864 L353.958,15.334 L355.382,15.825 L356.806,16.316 L358.223,16.83 L359.64,17.344 L361.049,17.883 L362.459,18.422 L363.863,18.983 L365.265,19.543 L366.659,20.129 L368.054,20.714 L369.441,21.325 L370.829,21.936 L372.21,22.571 L373.589,23.204 L374.96,23.864 L376.332,24.524 L377.695,25.21 L379.059,25.897 L380.416,26.608 L381.772,27.319 L383.119,28.056 L384.466,28.794 L385.805,29.559 L387.157,30.332 C387.943,30.782 388.945,30.509 389.395,29.723 C389.845,28.937 389.573,27.934 388.786,27.484 Z" id="Fill-73"></path>
        </g>
    </g>
</svg>
