<?xml version="1.0" encoding="UTF-8"?>
<svg width="557px" height="250px" viewBox="0 0 557 250" version="1.1" xmlns="http://www.w3.org/2000/svg" xmlns:xlink="http://www.w3.org/1999/xlink">
    <title>85</title>
    <g id="Page-1" stroke="none" stroke-width="1" fill="none" fill-rule="evenodd">
        <g id="85" transform="translate(0.545750, 0.191971)" fill="currentColor">
            <path d="M23.511,31.2860294 L23.378,32.3880294 L23.246,33.4900294 L23.114,34.5920294 L22.982,35.6980294 L22.857,36.7890294 L22.732,37.8750294 L22.608,38.9610294 L22.483,40.0520294 L22.365,41.1280294 L22.248,42.1990294 L22.132,43.2700294 L22.014,44.3450294 L21.904,45.4060294 L21.794,46.4630294 L21.683,47.5200294 L21.573,48.5820294 L21.47,49.6290294 L21.368,50.6710294 L21.265,51.7120294 L21.162,52.7590294 L21.067,53.7910294 L20.972,54.8180294 L20.877,55.8450294 L20.782,56.8760294 L20.693,57.8940294 L20.605,58.9070294 L20.516,59.9200294 L20.428,60.9380294 L20.347,61.9420294 L20.266,62.9400294 L20.185,63.9390294 L20.104,64.9440294 L19.957,66.9140294 L19.81,68.8870294 L19.677,70.8320294 L19.543,72.7780294 L19.424,74.6950294 L19.306,76.6120294 L19.201,78.5000294 L19.097,80.3880294 L19.007,82.2490294 L18.916,84.1120294 L18.84,85.9460294 L18.764,87.7800294 L18.702,89.5850294 L18.64,91.3910294 L18.592,93.1700294 L18.544,94.9510294 L18.51,96.7030294 L18.476,98.4560294 L18.457,100.181029 L18.437,101.906029 L18.431,103.606029 L18.425,105.306029 L18.433,106.979029 L18.441,108.653029 L18.463,110.299029 L18.485,111.945029 L18.52,113.566029 L18.556,115.188029 L18.605,116.784029 L18.654,118.380029 L18.718,119.949029 L18.782,121.518029 L18.858,123.063029 L18.935,124.609029 L19.026,126.129029 L19.116,127.649029 L19.221,129.143029 L19.325,130.637029 L19.442,132.107029 L19.559,133.579029 L19.691,135.025029 L19.822,136.471029 L19.967,137.892029 L20.112,139.312029 L20.269,140.710029 L20.427,142.109029 L20.598,143.483029 L20.769,144.857029 L20.954,146.206029 L21.139,147.555029 L21.336,148.882029 L21.534,150.210029 L21.745,151.513029 L21.957,152.817029 L22.182,154.097029 L22.407,155.376029 L22.643,156.633029 L22.881,157.892029 L23.132,159.127029 L23.382,160.363029 L23.646,161.575029 L23.91,162.786029 L24.186,163.976029 L24.463,165.167029 L24.753,166.336029 L25.042,167.505029 L25.346,168.651029 L25.648,169.796029 L25.963,170.920029 L26.278,172.046029 L26.606,173.150029 L26.935,174.253029 L27.277,175.335029 L27.618,176.416029 L27.972,177.476029 L28.326,178.538029 L28.693,179.578029 L29.061,180.619029 L29.441,181.638029 L29.821,182.655029 L30.213,183.654029 L30.605,184.654029 L31.01,185.632029 L31.416,186.611029 L31.834,187.569029 L32.251,188.526029 L32.681,189.464029 L33.111,190.403029 L33.554,191.322029 L33.999,192.246029 L34.907,194.037029 L35.841,195.796029 L36.801,197.517029 L37.786,199.198029 L38.793,200.843029 L39.827,202.450029 L40.887,204.017029 L41.97,205.548029 L43.078,207.044029 L44.21,208.500029 L45.364,209.924029 L46.543,211.311029 L47.745,212.661029 L48.97,213.979029 L50.219,215.262029 L51.491,216.509029 L52.784,217.724029 L54.101,218.905029 L55.44,220.052029 L56.801,221.168029 L58.185,222.251029 L59.592,223.300029 L61.016,224.322029 L62.465,225.313029 L63.934,226.271029 L65.424,227.201029 L66.937,228.101029 L68.47,228.970029 L70.023,229.811029 L71.598,230.623029 L73.194,231.405029 L74.808,232.162029 L76.446,232.890029 L78.102,233.590029 L79.778,234.265029 L81.474,234.914029 L83.191,235.535029 L84.926,236.133029 L86.682,236.705029 L88.457,237.252029 L90.25,237.776029 L92.064,238.276029 L93.896,238.752029 L95.747,239.206029 L97.618,239.638029 L99.507,240.046029 L101.413,240.435029 L103.34,240.802029 L105.285,241.147029 L107.247,241.474029 L109.226,241.779029 L110.229,241.923029 L111.228,242.066029 L112.236,242.200029 L113.245,242.334029 L114.263,242.458029 L115.281,242.582029 L116.308,242.697029 L117.334,242.811029 L118.369,242.918029 L119.405,243.024029 L120.449,243.121029 L121.494,243.218029 L122.547,243.307029 L123.6,243.395029 L124.661,243.476029 L125.723,243.557029 L126.794,243.629029 L127.865,243.701029 L128.945,243.766029 L130.023,243.830029 L131.111,243.887029 L132.198,243.944029 L133.295,243.994029 L134.391,244.043029 L135.496,244.085029 L136.601,244.127029 L137.714,244.163029 L138.827,244.198029 L139.949,244.226029 L141.071,244.255029 L142.201,244.276029 L143.333,244.298029 L144.477,244.310029 L145.615,244.322029 L146.752,244.334029 L147.898,244.346029 L149.062,244.345029 L150.217,244.345029 L151.372,244.344029 L152.535,244.344029 L153.714,244.332029 L154.886,244.320029 L156.058,244.307029 L157.237,244.295029 L158.431,244.273029 L159.618,244.252029 L160.806,244.230029 L161.999,244.208029 L163.21,244.176029 L164.414,244.144029 L165.618,244.112029 L166.828,244.080029 L168.054,244.039029 L169.275,243.998029 L170.495,243.958029 L171.721,243.916029 L172.96,243.868029 L174.196,243.819029 L175.431,243.771029 L176.671,243.722029 L177.927,243.666029 L179.179,243.610029 L180.43,243.554029 L181.685,243.498029 L182.956,243.435029 L184.223,243.372029 L185.491,243.309029 L186.761,243.247029 L188.045,243.178029 L189.327,243.110029 L190.609,243.042029 L191.893,242.974029 L193.192,242.901029 L194.49,242.828029 L195.786,242.755029 L197.085,242.682029 L198.4,242.605029 L199.712,242.527029 L201.024,242.450029 L202.338,242.373029 L203.665,242.293029 L204.991,242.214029 L206.317,242.134029 L207.644,242.055029 L208.986,241.972029 L210.327,241.890029 L211.667,241.808029 L213.008,241.726029 L214.364,241.642029 L215.72,241.558029 L217.075,241.474029 L218.43,241.391029 L219.799,241.306029 L221.167,241.221029 L222.536,241.137029 L223.903,241.052029 L225.286,240.967029 L226.668,240.882029 L228.051,240.797029 L229.432,240.713029 L230.828,240.629029 L232.224,240.545029 L233.62,240.462029 L235.016,240.378029 L236.424,240.296029 L237.833,240.214029 L239.242,240.132029 L240.649,240.050029 L242.07,239.971029 L243.493,239.891029 L244.915,239.811029 L246.335,239.731029 L247.769,239.655029 L249.205,239.579029 L250.64,239.502029 L252.074,239.426029 L253.519,239.353029 L254.967,239.280029 L256.415,239.207029 L257.86,239.135029 L259.317,239.067029 L260.778,238.999029 L262.238,238.932029 L263.696,238.864029 L265.166,238.803029 L266.639,238.741029 L268.112,238.679029 L269.582,238.618029 L271.063,238.562029 L272.548,238.506029 L274.032,238.450029 L275.513,238.395029 L277.006,238.346029 L278.502,238.298029 L279.999,238.249029 L281.492,238.200029 L282.996,238.160029 L284.505,238.120029 L286.013,238.079029 L287.518,238.039029 L289.033,238.007029 L290.552,237.975029 L292.072,237.942029 L293.586,237.910029 L295.112,237.888029 L296.643,237.865029 L298.174,237.843029 L299.7,237.820029 L301.237,237.808029 L302.779,237.796029 L304.321,237.784029 L305.859,237.772029 L307.406,237.771029 L308.958,237.769029 L310.511,237.768029 L312.057,237.766029 L313.615,237.777029 L315.178,237.787029 L316.742,237.798029 L318.299,237.808029 L319.867,237.832029 L321.441,237.855029 L323.015,237.878029 L324.583,237.901029 L326.16,237.937029 L327.744,237.973029 L329.327,238.009029 L330.904,238.044029 L332.492,238.094029 L334.085,238.145029 L335.679,238.195029 L337.266,238.246029 L338.863,238.311029 L340.467,238.377029 L342.07,238.443029 L343.672,238.509029 L343.997,238.526029 L344.355,238.547029 L344.743,238.572029 L345.154,238.601029 L345.593,238.635029 L346.059,238.673029 L346.549,238.715029 L347.064,238.760029 L347.605,238.810029 L348.169,238.863029 L348.758,238.920029 L349.37,238.980029 L350.005,239.044029 L350.663,239.111029 L351.346,239.182029 L352.048,239.256029 L352.773,239.333029 L353.52,239.414029 L355.077,239.583029 L356.718,239.764029 L358.442,239.956029 L360.241,240.157029 L362.117,240.369029 L364.069,240.589029 L365.078,240.703029 L366.088,240.817029 L367.133,240.935029 L368.178,241.053029 L369.257,241.175029 L370.336,241.296029 L371.446,241.421029 L372.555,241.545029 L373.696,241.673029 L374.838,241.800029 L376.01,241.930029 L377.181,242.059029 L378.38,242.191029 L379.579,242.323029 L380.806,242.456029 L382.033,242.590029 L383.287,242.725029 L384.541,242.860029 L385.819,242.996029 L387.096,243.132029 L388.398,243.270029 L389.701,243.407029 L391.026,243.545029 L392.352,243.682029 L393.698,243.820029 L395.043,243.958029 L396.41,244.096029 L397.777,244.234029 L399.164,244.371029 L400.551,244.509029 L401.954,244.646029 L403.358,244.783029 L404.779,244.918029 L406.2,245.054029 L407.637,245.188029 L409.074,245.322029 L410.525,245.455029 L411.976,245.587029 L413.441,245.718029 L414.906,245.848029 L416.383,245.977029 L417.861,246.105029 L419.354,246.229029 L420.845,246.353029 L422.336,246.477029 L423.83,246.602029 L425.342,246.720029 L426.851,246.837029 L428.36,246.955029 L429.873,247.072029 L431.398,247.182029 L432.92,247.291029 L434.442,247.401029 L435.967,247.511029 L437.5,247.612029 L439.03,247.714029 L440.558,247.815029 L442.092,247.916029 L443.63,248.007029 L445.162,248.097029 L446.696,248.188029 L448.233,248.278029 L449.769,248.357029 L451.301,248.436029 L452.832,248.514029 L454.369,248.593029 L455.899,248.659029 L457.425,248.725029 L458.951,248.791029 L460.482,248.858029 L462.003,248.910029 L463.517,248.962029 L465.033,249.015029 L466.554,249.067029 L468.059,249.104029 L469.558,249.140029 L471.057,249.177029 L472.561,249.213029 L474.051,249.238029 L475.54,249.263029 L477.018,249.278029 L478.495,249.294029 L479.961,249.301029 L481.426,249.307029 L482.878,249.307029 L484.331,249.302029 L485.769,249.290029 L487.207,249.277029 L488.628,249.255029 L490.05,249.232029 L491.455,249.200029 L492.862,249.168029 L494.25,249.124029 L495.638,249.081029 L497.006,249.027029 L498.373,248.972029 L499.722,248.907029 L501.072,248.842029 L502.399,248.765029 L503.726,248.688029 L505.031,248.598029 L506.334,248.509029 L507.616,248.408029 L508.898,248.306029 L510.155,248.192029 L511.412,248.078029 L512.642,247.950029 L513.872,247.823029 L515.076,247.683029 L516.281,247.542029 L517.457,247.388029 L518.634,247.234029 L519.78,247.065029 L520.925,246.896029 L522.041,246.714029 L523.16,246.532029 L524.245,246.334029 L525.331,246.137029 L526.383,245.923029 L527.434,245.710029 L528.454,245.483029 L529.475,245.255029 L530.46,245.010029 L531.451,244.764029 L533.342,244.243029 L535.169,243.688029 L536.921,243.097029 L538.591,242.470029 L540.186,241.807029 L541.7,241.104029 L543.112,240.367029 L543.807,239.974029 L544.468,239.576029 L545.105,239.167029 L545.722,238.749029 L546.316,238.317029 L546.885,237.875029 L547.431,237.421029 L547.955,236.954029 L548.452,236.475029 L548.926,235.985029 L549.375,235.480029 L549.795,234.964029 L550.191,234.435029 L550.56,233.891029 L550.899,233.335029 L551.211,232.768029 L551.494,232.184029 L551.746,231.591029 L551.969,230.986029 L552.161,230.365029 L552.32,229.736029 L552.449,229.096029 L552.545,228.443029 L552.607,227.790029 L552.685,226.677029 L552.763,225.573029 L552.84,224.470029 L552.917,223.365029 L552.991,222.276029 L553.065,221.187029 L553.139,220.099029 L553.213,219.009029 L553.283,217.935029 L553.353,216.861029 L553.423,215.788029 L553.494,214.714029 L553.56,213.652029 L553.627,212.593029 L553.694,211.533029 L553.761,210.472029 L553.825,209.425029 L553.888,208.380029 L553.951,207.335029 L554.014,206.288029 L554.074,205.256029 L554.133,204.226029 L554.193,203.196029 L554.252,202.164029 L554.308,201.145029 L554.365,200.128029 L554.421,199.111029 L554.477,198.092029 L554.529,197.088029 L554.582,196.085029 L554.634,195.083029 L554.687,194.078029 L554.784,192.100029 L554.882,190.122029 L554.973,188.170029 L555.063,186.217029 L555.146,184.293029 L555.229,182.369029 L555.305,180.473029 L555.38,178.577029 L555.448,176.706029 L555.515,174.836029 L555.576,172.993029 L555.636,171.149029 L555.688,169.334029 L555.741,167.519029 L555.786,165.728029 L555.831,163.937029 L555.869,162.174029 L555.907,160.410029 L555.936,158.673029 L555.966,156.937029 L555.988,155.225029 L556.011,153.512029 L556.025,151.826029 L556.039,150.140029 L556.046,148.480029 L556.052,146.821029 L556.052,145.185029 L556.052,143.549029 L556.04,141.939029 L556.03,140.329029 L556.013,138.745029 L555.995,137.161029 L555.97,135.600029 L555.945,134.039029 L555.911,132.503029 L555.878,130.967029 L555.836,129.456029 L555.795,127.946029 L555.745,126.458029 L555.696,124.970029 L555.638,123.507029 L555.58,122.043029 L555.514,120.604029 L555.448,119.166029 L555.373,117.749029 L555.3,116.333029 L555.217,114.940029 L555.134,113.547029 L555.043,112.178029 L554.952,110.810029 L554.852,109.463029 L554.753,108.116029 L554.645,106.792029 L554.537,105.468029 L554.42,104.168029 L554.303,102.868029 L554.178,101.589029 L554.053,100.310029 L553.919,99.0530294 L553.786,97.7960294 L553.643,96.5630294 L553.5,95.3290294 L553.349,94.1160294 L553.198,92.9030294 L553.038,91.7120294 L552.878,90.5210294 L552.709,89.3520294 L552.54,88.1830294 L552.364,87.0340294 L552.186,85.8850294 L551.999,84.7580294 L551.813,83.6300294 L551.617,82.5240294 L551.421,81.4190294 L551.217,80.3330294 L551.013,79.2460294 L550.799,78.1810294 L550.585,77.1150294 L550.361,76.0710294 L550.138,75.0270294 L549.906,74.0010294 L549.674,72.9750294 L549.432,71.9700294 L549.191,70.9650294 L548.939,69.9800294 L548.688,68.9930294 L548.168,67.0620294 L547.628,65.1690294 L547.069,63.3150294 L546.492,61.4970294 L545.894,59.7160294 L545.277,57.9750294 L544.642,56.2680294 L543.986,54.5980294 L543.309,52.9650294 L542.614,51.3660294 L541.898,49.8030294 L541.161,48.2760294 L540.406,46.7820294 L539.629,45.3230294 L538.831,43.8990294 L538.014,42.5060294 L537.174,41.1470294 L536.314,39.8230294 L535.434,38.5290294 L534.532,37.2680294 L533.609,36.0400294 L532.666,34.8420294 L531.701,33.6750294 L530.713,32.5410294 L529.706,31.4360294 L528.676,30.3610294 L527.625,29.3180294 L526.553,28.3020294 L525.458,27.3160294 L524.342,26.3610294 L523.204,25.4320294 L522.044,24.5320294 L520.863,23.6610294 L519.66,22.8170294 L518.434,21.9990294 L517.187,21.2100294 L515.919,20.4460294 L514.628,19.7080294 L513.314,18.9970294 L511.98,18.3100294 L510.622,17.6480294 L509.243,17.0110294 L507.843,16.3980294 L506.418,15.8080294 L504.972,15.2430294 L503.504,14.7000294 L502.013,14.1790294 L500.498,13.6810294 L498.963,13.2040294 L497.404,12.7480294 L495.822,12.3140294 L494.218,11.9000294 L492.59,11.5050294 L490.939,11.1320294 L489.266,10.7760294 L487.569,10.4390294 L485.848,10.1220294 L484.105,9.82202943 L482.338,9.54002943 L480.546,9.27602943 L478.733,9.02802943 L476.894,8.79702943 L475.031,8.58202943 L473.145,8.38202943 L471.234,8.19702943 L469.298,8.02802943 L467.34,7.87302943 L465.357,7.73202943 L464.351,7.66902943 L463.347,7.60502943 L462.33,7.54802943 L461.314,7.49102943 L460.285,7.44002943 L459.256,7.39002943 L458.214,7.34602943 L457.173,7.30202943 L456.119,7.26302943 L455.066,7.22502943 L453.999,7.19302943 L452.932,7.16102943 L451.853,7.13502943 L450.773,7.10902943 L449.682,7.08802943 L448.591,7.06702943 L447.486,7.05102943 L446.382,7.03602943 L445.264,7.02602943 L444.146,7.01502943 L443.017,7.01002943 L441.887,7.00402943 L440.744,7.00302943 L439.601,7.00202943 L438.445,7.00602943 L437.288,7.01002943 L436.12,7.01802943 L434.952,7.02602943 L433.769,7.03802943 L432.588,7.05002943 L431.392,7.06702943 L430.197,7.08302943 L428.989,7.10302943 L427.782,7.12302943 L426.56,7.14602943 L425.339,7.17002943 L424.104,7.19702943 L422.869,7.22502943 L421.621,7.25502943 L420.374,7.28502943 L419.113,7.31802943 L417.852,7.35202943 L416.577,7.38802943 L415.302,7.42402943 L414.014,7.46302943 L412.726,7.50102943 L411.425,7.54202943 L410.123,7.58402943 L408.808,7.62702943 L407.493,7.67102943 L406.164,7.71602943 L404.836,7.76102943 L403.494,7.80902943 L402.152,7.85602943 L400.795,7.90502943 L399.439,7.95402943 L398.069,8.00502943 L396.7,8.05502943 L395.316,8.10702943 L393.933,8.15902943 L392.535,8.21202943 L391.138,8.26502943 L389.726,8.31902943 L388.316,8.37302943 L386.89,8.42702943 L385.465,8.48202943 L384.025,8.53702943 L382.586,8.59202943 L381.133,8.64802943 L379.68,8.70302943 L378.213,8.75902943 L376.745,8.81402943 L375.264,8.87002943 L373.782,8.92602943 L372.286,8.98102943 L370.791,9.03602943 L369.281,9.09102943 L367.771,9.14602943 L366.246,9.20102943 L364.722,9.25502943 L363.183,9.30902943 L361.645,9.36202943 L360.092,9.41502943 L358.539,9.46702943 L356.971,9.51902943 L355.403,9.57002943 L353.822,9.62002943 L352.24,9.67002943 L350.643,9.71902943 L349.047,9.76702943 L347.435,9.81402943 L345.824,9.86102943 L344.199,9.90502943 L342.574,9.95002943 L340.933,9.99302943 L339.292,10.0350294 L337.637,10.0750294 L335.981,10.1140294 L334.311,10.1520294 L332.642,10.1890294 L330.957,10.2240294 L329.272,10.2580294 L327.572,10.2900294 L325.872,10.3210294 L324.158,10.3500294 L322.444,10.3790294 L320.714,10.4040294 L318.985,10.4290294 L317.24,10.4510294 L315.494,10.4730294 L313.735,10.4910294 L311.975,10.5090294 L310.201,10.5240294 L308.426,10.5380294 L306.636,10.5480294 L304.845,10.5570294 L303.04,10.5630294 L301.235,10.5690294 L299.415,10.5710294 L297.594,10.5720294 L295.758,10.5690294 L293.921,10.5660294 L292.071,10.5580294 L290.22,10.5500294 L288.353,10.5370294 L286.487,10.5240294 L284.604,10.5060294 L282.721,10.4880294 L280.824,10.4640294 L278.927,10.4410294 L277.014,10.4110294 L275.1,10.3820294 L273.171,10.3470294 L271.242,10.3120294 L269.298,10.2710294 L267.354,10.2300294 L265.394,10.1830294 L263.433,10.1360294 L261.457,10.0830294 L259.481,10.0290294 L257.489,9.97002943 L255.497,9.91002943 L254.495,9.87702943 L253.491,9.84402943 L252.486,9.81202943 L251.483,9.78002943 L250.472,9.74502943 L249.459,9.71002943 L248.446,9.67402943 L247.432,9.63902943 L245.6,9.57502943 L243.768,9.51202943 L241.936,9.44902943 L240.102,9.38602943 L238.266,9.33002943 L236.433,9.27402943 L234.6,9.21902943 L232.765,9.16302943 L230.93,9.11402943 L229.095,9.06502943 L227.261,9.01502943 L225.426,8.96602943 L223.589,8.92302943 L221.754,8.88002943 L219.919,8.83702943 L218.083,8.79402943 L216.246,8.75502943 L214.41,8.71702943 L212.575,8.67902943 L210.738,8.64102943 L208.901,8.60702943 L207.064,8.57202943 L205.228,8.53802943 L203.39,8.50402943 L201.553,8.47402943 L199.716,8.44402943 L197.879,8.41402943 L196.042,8.38402943 L194.205,8.35202943 L192.368,8.32002943 L190.531,8.28802943 L188.693,8.25602943 L186.855,8.22802943 L185.017,8.19902943 L183.18,8.17002943 L181.342,8.14202943 L179.505,8.11302943 L177.667,8.08502943 L175.829,8.05602943 L173.992,8.02702943 L172.154,7.99802943 L170.317,7.96902943 L168.479,7.94002943 L166.641,7.91102943 L164.804,7.88202943 L162.966,7.85202943 L161.128,7.82202943 L159.291,7.79302943 L157.454,7.76002943 L155.617,7.72702943 L153.78,7.69402943 L151.942,7.66102943 L150.104,7.62802943 L148.267,7.59602943 L146.43,7.56302943 L144.594,7.53002943 L142.759,7.49002943 L140.922,7.45102943 L139.085,7.41102943 L137.248,7.37102943 L135.411,7.33102943 L133.575,7.29102943 L131.738,7.25202943 L129.903,7.21202943 L128.07,7.16102943 L126.235,7.11102943 L124.399,7.06102943 L122.563,7.01002943 L120.728,6.96002943 L118.892,6.91002943 L117.056,6.85902943 L115.223,6.80902943 L113.39,6.75002943 L111.556,6.69102943 L109.721,6.63102943 L107.889,6.57202943 L106.056,6.50502943 L104.223,6.43802943 L102.389,6.37102943 L100.557,6.30402943 L98.727,6.22802943 L96.894,6.15202943 L95.061,6.07702943 L93.231,6.00102943 L91.401,5.91702943 L89.569,5.83302943 L87.738,5.74902943 L85.909,5.66502943 L84.08,5.57102943 L82.25,5.47702943 L80.419,5.38202943 L78.592,5.28802943 L76.765,5.18302943 L74.936,5.07702943 L73.107,4.97202943 L71.277,4.86602943 L70.487,4.82302943 L69.67,4.79002943 L68.833,4.76502943 L67.976,4.74902943 L67.1,4.74202943 L66.201,4.74302943 L64.364,4.76602943 L62.453,4.81802943 L60.484,4.89602943 L59.471,4.94702943 L58.46,4.99702943 L57.424,5.05902943 L56.388,5.12002943 L55.329,5.19102943 L54.272,5.26202943 L53.197,5.34002943 L52.122,5.41902943 L51.032,5.50402943 L49.941,5.59002943 L48.839,5.68202943 L47.736,5.77302943 L46.621,5.87102943 L45.508,5.96802943 L44.395,6.06602943 L43.281,6.16302943 L42.159,6.26502943 L41.039,6.36802943 L39.919,6.47002943 L38.799,6.57202943 L37.686,6.67402943 L36.573,6.77502943 L35.46,6.87702943 L34.348,6.97802943 L33.253,7.07502943 L32.157,7.17202943 L31.061,7.26902943 L29.968,7.36602943 L28.906,7.45202943 L27.841,7.53902943 L26.776,7.62602943 L25.716,7.71302943 L24.701,7.78402943 L23.681,7.85602943 L22.661,7.92802943 L21.647,7.99902943 L19.69,8.11602943 L17.798,8.21002943 L15.977,8.28002943 L14.227,8.32502943 L12.563,8.34002943 L10.986,8.32402943 L10.237,8.30402943 L9.511,8.27602943 L8.809,8.23802943 L8.134,8.19202943 L7.488,8.13702943 L6.869,8.07102943 L6.28,7.99702943 L5.723,7.91302943 L5.197,7.81902943 L4.703,7.71602943 L4.245,7.60302943 L3.823,7.48002943 L3.435,7.34902943 L3.089,7.21102943 L2.782,7.06502943 L2.513,6.91502943 L2.289,6.76302943 L2.104,6.60902943 L1.956,6.45702943 L1.848,6.31202943 L1.768,6.16502943 L1.711,6.01502943 L1.678,5.86002943 L1.669,5.68102943 L1.683,5.47702943 L1.73,5.24902943 L1.815,4.98502943 L1.939,4.69302943 L2.107,4.37402943 L2.324,4.02602943 L2.586,3.65402943 L2.897,3.25902943 L3.261,2.83902943 L3.672,2.39802943 L4.135,1.93502943 L4.66,1.44202943 C4.996,1.12702943 5.013,0.599029429 4.697,0.263029429 C4.382,-0.0729705708 3.854,-0.0889705708 3.518,0.226029429 L2.974,0.736029429 L2.473,1.23802943 L2.02,1.72302943 L1.612,2.19502943 L1.249,2.65602943 L0.934,3.10302943 L0.661,3.54102943 L0.433,3.97502943 L0.253,4.40002943 L0.117,4.82202943 L0.031,5.24702943 L0,5.66402943 L0.023,6.07602943 L0.108,6.48102943 L0.251,6.86102943 L0.444,7.21502943 L0.689,7.54302943 L0.972,7.83402943 L1.287,8.09802943 L1.638,8.33602943 L2.017,8.54902943 L2.423,8.74102943 L2.86,8.91602943 L3.324,9.07302943 L3.813,9.21502943 L4.333,9.34302943 L4.879,9.45802943 L5.451,9.56002943 L6.052,9.65102943 L6.678,9.73002943 L7.328,9.79902943 L8.006,9.85702943 L8.708,9.90502943 L9.433,9.94402943 L10.183,9.97302943 L10.96,9.99302943 L12.563,10.0100294 L14.257,9.99502943 L16.031,9.94902943 L17.872,9.87902943 L19.782,9.78402943 L21.753,9.66602943 L22.779,9.59402943 L23.798,9.52302943 L24.818,9.45102943 L25.843,9.37902943 L26.912,9.29202943 L27.977,9.20502943 L29.042,9.11802943 L30.11,9.03102943 L31.208,8.93402943 L32.304,8.83702943 L33.4,8.74002943 L34.497,8.64302943 L35.612,8.54202943 L36.724,8.44002943 L37.838,8.33902943 L38.951,8.23702943 L40.071,8.13502943 L41.191,8.03302943 L42.311,7.93102943 L43.43,7.82902943 L44.541,7.73202943 L45.654,7.63402943 L46.766,7.53702943 L47.878,7.44002943 L48.977,7.34902943 L50.076,7.25802943 L51.163,7.17202943 L52.249,7.08702943 L53.319,7.00902943 L54.389,6.93102943 L55.441,6.86002943 L56.493,6.79002943 L57.522,6.72902943 L58.551,6.66802943 L59.555,6.61902943 L60.556,6.56902943 L62.51,6.49102943 L64.397,6.43902943 L66.216,6.41702943 L67.094,6.41602943 L67.954,6.42402943 L68.793,6.43902943 L69.612,6.46302943 L70.407,6.49602943 L71.182,6.53802943 L73.01,6.64402943 L74.839,6.74902943 L76.668,6.85502943 L78.5,6.96102943 L80.333,7.05602943 L82.163,7.15102943 L83.994,7.24602943 L85.827,7.34102943 L87.66,7.42602943 L89.492,7.51102943 L91.324,7.59602943 L93.157,7.68102943 L94.992,7.75702943 L96.824,7.83402943 L98.657,7.91002943 L100.492,7.98702943 L102.327,8.05502943 L104.161,8.12302943 L105.994,8.19102943 L107.83,8.25902943 L109.666,8.31902943 L111.501,8.38002943 L113.335,8.44002943 L115.172,8.50102943 L117.01,8.55302943 L118.845,8.60502943 L120.681,8.65602943 L122.516,8.70802943 L124.352,8.75902943 L126.187,8.81102943 L128.023,8.86302943 L129.861,8.91502943 L131.7,8.95602943 L133.537,8.99702943 L135.373,9.03802943 L137.21,9.08002943 L139.047,9.12102943 L140.884,9.16302943 L142.721,9.20402943 L144.559,9.24602943 L146.398,9.28102943 L148.235,9.31602943 L150.073,9.35002943 L151.91,9.38502943 L153.747,9.42002943 L155.585,9.45502943 L157.423,9.49002943 L159.261,9.52502943 L161.099,9.55602943 L162.937,9.58802943 L164.774,9.62002943 L166.612,9.65102943 L168.45,9.68302943 L170.287,9.71502943 L172.125,9.74802943 L173.963,9.78002943 L175.801,9.81202943 L177.638,9.84402943 L179.475,9.87602943 L181.313,9.90802943 L183.151,9.93902943 L184.988,9.97102943 L186.826,10.0030294 L188.662,10.0350294 L190.498,10.0700294 L192.335,10.1060294 L194.172,10.1410294 L196.009,10.1760294 L197.846,10.2130294 L199.682,10.2500294 L201.519,10.2870294 L203.355,10.3240294 L205.19,10.3660294 L207.027,10.4070294 L208.863,10.4480294 L210.698,10.4890294 L212.533,10.5340294 L214.368,10.5800294 L216.203,10.6250294 L218.038,10.6700294 L219.871,10.7200294 L221.706,10.7700294 L223.541,10.8210294 L225.374,10.8710294 L227.207,10.9250294 L229.041,10.9800294 L230.875,11.0350294 L232.707,11.0890294 L234.538,11.1500294 L236.371,11.2120294 L238.205,11.2730294 L240.036,11.3340294 L241.866,11.4030294 L243.698,11.4710294 L245.53,11.5400294 L247.361,11.6090294 L248.374,11.6470294 L249.387,11.6860294 L250.399,11.7240294 L251.413,11.7630294 L252.42,11.7980294 L253.424,11.8330294 L254.429,11.8670294 L255.435,11.9000294 L257.43,11.9610294 L259.424,12.0210294 L261.403,12.0750294 L263.382,12.1300294 L265.346,12.1770294 L267.309,12.2250294 L269.256,12.2660294 L271.202,12.3080294 L273.135,12.3430294 L275.067,12.3790294 L276.983,12.4090294 L278.899,12.4390294 L280.799,12.4630294 L282.699,12.4870294 L284.584,12.5070294 L286.47,12.5260294 L288.339,12.5400294 L290.208,12.5540294 L292.061,12.5630294 L293.915,12.5720294 L295.754,12.5760294 L297.593,12.5800294 L299.416,12.5800294 L301.239,12.5790294 L303.046,12.5750294 L304.853,12.5700294 L306.646,12.5610294 L308.439,12.5520294 L310.216,12.5390294 L311.994,12.5260294 L313.755,12.5090294 L315.516,12.4920294 L317.264,12.4720294 L319.011,12.4520294 L320.743,12.4280294 L322.474,12.4040294 L324.191,12.3770294 L325.907,12.3500294 L327.609,12.3200294 L329.311,12.2900294 L330.998,12.2570294 L332.685,12.2240294 L334.356,12.1880294 L336.027,12.1520294 L337.685,12.1140294 L339.342,12.0750294 L340.984,12.0350294 L342.626,11.9950294 L344.253,11.9530294 L345.88,11.9110294 L347.494,11.8670294 L349.106,11.8230294 L350.704,11.7770294 L352.302,11.7310294 L353.885,11.6830294 L355.468,11.6360294 L357.037,11.5870294 L358.606,11.5380294 L360.16,11.4880294 L361.715,11.4380294 L363.254,11.3870294 L364.793,11.3360294 L366.319,11.2840294 L367.844,11.2330294 L369.355,11.1800294 L370.866,11.1280294 L372.362,11.0750294 L373.858,11.0220294 L375.34,10.9690294 L376.823,10.9160294 L378.291,10.8620294 L379.759,10.8090294 L381.212,10.7560294 L382.665,10.7030294 L384.105,10.6510294 L385.544,10.5980294 L386.97,10.5460294 L388.395,10.4930294 L389.806,10.4420294 L391.216,10.3900294 L392.614,10.3400294 L394.012,10.2890294 L395.394,10.2400294 L396.778,10.1900294 L398.146,10.1420294 L399.515,10.0940294 L400.871,10.0470294 L402.226,10.0000294 L403.568,9.95502943 L404.909,9.91002943 L406.236,9.86602943 L407.563,9.82302943 L408.877,9.78202943 L410.192,9.74002943 L411.492,9.70102943 L412.791,9.66202943 L414.077,9.62602943 L415.363,9.58902943 L416.637,9.55502943 L417.91,9.52102943 L419.168,9.48902943 L420.428,9.45802943 L421.673,9.43002943 L422.918,9.40202943 L424.15,9.37702943 L425.382,9.35102943 L426.601,9.33002943 L427.819,9.30802943 L429.024,9.29002943 L430.228,9.27102943 L431.421,9.25702943 L432.613,9.24202943 L433.791,9.23102943 L434.969,9.22002943 L436.134,9.21402943 L437.298,9.20702943 L438.451,9.20502943 L439.603,9.20302943 L440.741,9.20502943 L441.88,9.20702943 L443.004,9.21402943 L444.129,9.22102943 L445.242,9.23302943 L446.355,9.24402943 L447.454,9.26102943 L448.553,9.27802943 L449.639,9.30002943 L450.724,9.32202943 L451.798,9.35002943 L452.871,9.37702943 L453.931,9.41002943 L454.991,9.44302943 L456.037,9.48302943 L457.085,9.52102943 L458.119,9.56602943 L459.154,9.61002943 L460.176,9.66102943 L461.197,9.71202943 L462.205,9.76902943 L463.213,9.82702943 L464.21,9.89002943 L465.204,9.95402943 L467.172,10.0950294 L469.113,10.2500294 L471.029,10.4190294 L472.919,10.6030294 L474.784,10.8020294 L476.626,11.0150294 L478.441,11.2450294 L480.231,11.4910294 L481.998,11.7530294 L483.739,12.0310294 L485.455,12.3280294 L487.148,12.6400294 L488.815,12.9710294 L490.458,13.3210294 L492.079,13.6880294 L493.674,14.0750294 L495.244,14.4810294 L496.792,14.9060294 L498.315,15.3520294 L499.815,15.8180294 L501.292,16.3040294 L502.744,16.8110294 L504.173,17.3410294 L505.58,17.8910294 L506.962,18.4640294 L508.322,19.0600294 L509.66,19.6770294 L510.973,20.3180294 L512.265,20.9840294 L513.536,21.6710294 L514.782,22.3840294 L516.006,23.1220294 L517.21,23.8840294 L518.39,24.6720294 L519.549,25.4860294 L520.688,26.3260294 L521.804,27.1920294 L522.898,28.0860294 L523.973,29.0070294 L525.026,29.9550294 L526.058,30.9330294 L527.071,31.9380294 L528.061,32.9720294 L529.032,34.0380294 L529.984,35.1320294 L530.914,36.2560294 L531.824,37.4130294 L532.716,38.5990294 L533.586,39.8180294 L534.437,41.0700294 L535.269,42.3530294 L536.081,43.6690294 L536.873,45.0210294 L537.648,46.4040294 L538.402,47.8220294 L539.136,49.2760294 L539.853,50.7640294 L540.55,52.2870294 L541.227,53.8480294 L541.888,55.4440294 L542.528,57.0760294 L543.149,58.7470294 L543.753,60.4540294 L544.337,62.1990294 L544.903,63.9850294 L545.451,65.8060294 L545.98,67.6680294 L546.49,69.5730294 L546.736,70.5410294 L546.982,71.5110294 L547.22,72.5010294 L547.456,73.4910294 L547.684,74.5030294 L547.912,75.5150294 L548.131,76.5460294 L548.35,77.5770294 L548.56,78.6290294 L548.77,79.6810294 L548.972,80.7540294 L549.172,81.8280294 L549.365,82.9220294 L549.557,84.0150294 L549.741,85.1300294 L549.924,86.2460294 L550.098,87.3830294 L550.272,88.5210294 L550.438,89.6790294 L550.605,90.8360294 L550.762,92.0160294 L550.919,93.1960294 L551.066,94.3990294 L551.214,95.6020294 L551.354,96.8260294 L551.494,98.0490294 L551.624,99.2960294 L551.755,100.542029 L551.876,101.812029 L551.998,103.082029 L552.112,104.373029 L552.226,105.665029 L552.331,106.979029 L552.436,108.294029 L552.533,109.632029 L552.629,110.971029 L552.718,112.332029 L552.806,113.692029 L552.886,115.076029 L552.966,116.461029 L553.037,117.870029 L553.109,119.279029 L553.172,120.710029 L553.236,122.142029 L553.291,123.597029 L553.346,125.053029 L553.393,126.534029 L553.439,128.016029 L553.478,129.520029 L553.517,131.023029 L553.548,132.552029 L553.579,134.082029 L553.601,135.636029 L553.624,137.191029 L553.639,138.769029 L553.654,140.347029 L553.66,141.951029 L553.667,143.555029 L553.665,145.185029 L553.664,146.815029 L553.655,148.470029 L553.646,150.124029 L553.63,151.804029 L553.613,153.484029 L553.588,155.192029 L553.564,156.899029 L553.532,158.631029 L553.5,160.362029 L553.46,162.121029 L553.42,163.879029 L553.373,165.665029 L553.325,167.451029 L553.27,169.262029 L553.216,171.073029 L553.153,172.912029 L553.091,174.750029 L553.02,176.617029 L552.951,178.483029 L552.873,180.375029 L552.797,182.267029 L552.713,184.187029 L552.628,186.107029 L552.536,188.056029 L552.445,190.004029 L552.347,191.979029 L552.248,193.954029 L552.195,194.954029 L552.141,195.957029 L552.089,196.960029 L552.036,197.960029 L551.979,198.976029 L551.922,199.993029 L551.866,201.010029 L551.809,202.025029 L551.749,203.054029 L551.688,204.084029 L551.628,205.115029 L551.568,206.143029 L551.505,207.187029 L551.441,208.231029 L551.377,209.276029 L551.313,210.320029 L551.246,211.378029 L551.179,212.438029 L551.112,213.497029 L551.044,214.556029 L550.974,215.628029 L550.904,216.701029 L550.833,217.774029 L550.763,218.846029 L550.688,219.933029 L550.614,221.021029 L550.54,222.109029 L550.466,223.196029 L550.388,224.298029 L550.31,225.401029 L550.233,226.504029 L550.156,227.597029 L550.104,228.147029 L550.026,228.674029 L549.921,229.192029 L549.793,229.700029 L549.639,230.196029 L549.458,230.685029 L549.255,231.166029 L549.026,231.636029 L548.77,232.100029 L548.491,232.558029 L548.187,233.005029 L547.855,233.448029 L547.5,233.884029 L547.12,234.311029 L546.713,234.732029 L546.282,235.147029 L545.826,235.553029 L545.343,235.954029 L544.836,236.347029 L544.306,236.732029 L543.748,237.111029 L543.168,237.482029 L542.565,237.845029 L541.948,238.194029 L540.611,238.892029 L539.195,239.549029 L537.684,240.176029 L536.093,240.773029 L534.417,241.338029 L532.656,241.872029 L530.816,242.379029 L529.866,242.614029 L528.91,242.851029 L527.916,243.072029 L526.921,243.294029 L525.892,243.502029 L524.865,243.710029 L523.803,243.903029 L522.74,244.096029 L521.644,244.274029 L520.547,244.453029 L519.42,244.618029 L518.293,244.784029 L517.136,244.935029 L515.978,245.086029 L514.79,245.223029 L513.602,245.360029 L512.387,245.486029 L511.173,245.611029 L509.931,245.723029 L508.69,245.835029 L507.422,245.934029 L506.153,246.033029 L504.862,246.120029 L503.57,246.208029 L502.256,246.284029 L500.941,246.359029 L499.603,246.423029 L498.265,246.486029 L496.908,246.539029 L495.551,246.592029 L494.173,246.634029 L492.796,246.676029 L491.4,246.707029 L490.003,246.737029 L488.59,246.758029 L487.178,246.779029 L485.749,246.790029 L484.32,246.800029 L482.875,246.801029 L481.431,246.801029 L479.973,246.793029 L478.516,246.785029 L477.046,246.767029 L475.576,246.750029 L474.095,246.723029 L472.614,246.697029 L471.12,246.659029 L469.621,246.621029 L468.122,246.582029 L466.63,246.544029 L465.121,246.490029 L463.607,246.436029 L462.092,246.382029 L460.583,246.327029 L459.063,246.257029 L457.538,246.188029 L456.012,246.118029 L454.492,246.049029 L452.966,245.967029 L451.434,245.885029 L449.903,245.803029 L448.377,245.722029 L446.849,245.628029 L445.317,245.534029 L443.784,245.440029 L442.256,245.347029 L440.732,245.242029 L439.202,245.138029 L437.674,245.033029 L436.149,244.929029 L434.631,244.816029 L433.11,244.703029 L431.588,244.589029 L430.071,244.476029 L428.566,244.355029 L427.057,244.234029 L425.549,244.112029 L424.044,243.991029 L422.557,243.863029 L421.066,243.735029 L419.576,243.607029 L418.088,243.479029 L416.615,243.347029 L415.141,243.215029 L413.68,243.081029 L412.218,242.947029 L410.77,242.811029 L409.323,242.674029 L407.888,242.537029 L406.454,242.399029 L405.036,242.260029 L403.618,242.121029 L402.217,241.981029 L400.816,241.841029 L399.432,241.700029 L398.048,241.559029 L396.683,241.418029 L395.319,241.277029 L393.976,241.136029 L392.632,240.995029 L391.309,240.855029 L389.986,240.714029 L388.685,240.574029 L387.386,240.434029 L386.11,240.295029 L384.834,240.155029 L383.582,240.018029 L382.33,239.880029 L381.104,239.743029 L379.879,239.607029 L378.682,239.472029 L377.485,239.338029 L376.314,239.206029 L375.143,239.074029 L374.003,238.944029 L372.863,238.815029 L371.755,238.688029 L370.646,238.562029 L369.568,238.439029 L368.489,238.315029 L367.445,238.196029 L366.4,238.076029 L365.391,237.960029 L364.381,237.844029 L362.429,237.620029 L360.552,237.405029 L358.753,237.200029 L357.026,237.005029 L355.382,236.821029 L353.823,236.648029 L353.072,236.566029 L352.343,236.488029 L351.637,236.412029 L350.952,236.340029 L350.289,236.271029 L349.65,236.205029 L349.031,236.143029 L348.436,236.085029 L347.866,236.030029 L347.317,235.979029 L346.792,235.932029 L346.293,235.888029 L345.815,235.849029 L345.363,235.814029 L344.935,235.783029 L344.531,235.756029 L344.151,235.733029 L343.792,235.715029 L342.186,235.648029 L340.583,235.580029 L338.979,235.513029 L337.369,235.445029 L335.769,235.393029 L334.175,235.341029 L332.582,235.289029 L330.982,235.237029 L329.392,235.200029 L327.809,235.163029 L326.225,235.125029 L324.637,235.088029 L323.057,235.063029 L321.483,235.039029 L319.91,235.014029 L318.33,234.989029 L316.761,234.978029 L315.198,234.967029 L313.635,234.956029 L312.066,234.945029 L310.508,234.946029 L308.956,234.947029 L307.404,234.948029 L305.847,234.949029 L304.3,234.961029 L302.758,234.972029 L301.216,234.984029 L299.669,234.995029 L298.133,235.017029 L296.602,235.040029 L295.071,235.062029 L293.536,235.084029 L292.012,235.116029 L290.493,235.147029 L288.973,235.179029 L287.45,235.211029 L285.938,235.251029 L284.429,235.291029 L282.921,235.331029 L281.408,235.371029 L279.908,235.419029 L278.411,235.467029 L276.914,235.515029 L275.414,235.564029 L273.926,235.619029 L272.442,235.674029 L270.957,235.730029 L269.47,235.785029 L267.994,235.847029 L266.521,235.908029 L265.048,235.969029 L263.572,236.030029 L262.108,236.098029 L260.647,236.164029 L259.187,236.231029 L257.724,236.298029 L256.274,236.369029 L254.826,236.440029 L253.378,236.511029 L251.929,236.582029 L250.491,236.657029 L249.055,236.732029 L247.619,236.807029 L246.181,236.882029 L244.757,236.960029 L243.334,237.038029 L241.911,237.116029 L240.488,237.194029 L239.077,237.275029 L237.668,237.355029 L236.259,237.435029 L234.849,237.516029 L233.451,237.598029 L232.055,237.680029 L230.658,237.761029 L229.261,237.843029 L227.877,237.925029 L226.494,238.007029 L225.112,238.089029 L223.729,238.171029 L222.36,238.253029 L220.991,238.335029 L219.622,238.417029 L218.254,238.499029 L216.899,238.580029 L215.543,238.661029 L214.188,238.742029 L212.832,238.823029 L211.492,238.903029 L210.151,238.982029 L208.81,239.062029 L207.47,239.141029 L206.145,239.218029 L204.819,239.295029 L203.493,239.372029 L202.168,239.449029 L200.856,239.522029 L199.544,239.595029 L198.231,239.669029 L196.921,239.742029 L195.625,239.811029 L194.328,239.880029 L193.031,239.949029 L191.736,240.018029 L190.456,240.082029 L189.174,240.146029 L187.892,240.210029 L186.613,240.274029 L185.348,240.332029 L184.08,240.391029 L182.813,240.450029 L181.549,240.509029 L180.301,240.561029 L179.049,240.613029 L177.797,240.665029 L176.549,240.717029 L175.318,240.762029 L174.082,240.807029 L172.847,240.851029 L171.615,240.896029 L170.398,240.933029 L169.178,240.971029 L167.957,241.008029 L166.741,241.045029 L165.542,241.073029 L164.338,241.102029 L163.134,241.130029 L161.935,241.158029 L160.754,241.176029 L159.566,241.195029 L158.379,241.213029 L157.197,241.232029 L156.032,241.240029 L154.859,241.249029 L153.687,241.257029 L152.522,241.266029 L151.375,241.263029 L150.22,241.260029 L149.065,241.258029 L147.918,241.255029 L146.789,241.240029 L145.652,241.224029 L144.514,241.209029 L143.383,241.194029 L142.263,241.171029 L141.142,241.147029 L140.031,241.117029 L138.919,241.087029 L137.816,241.050029 L136.713,241.013029 L135.618,240.969029 L134.524,240.925029 L133.438,240.874029 L132.353,240.823029 L131.278,240.764029 L130.202,240.706029 L129.134,240.640029 L128.067,240.574029 L127.009,240.501029 L125.951,240.427029 L124.903,240.345029 L123.854,240.263029 L122.814,240.174029 L121.774,240.084029 L120.744,239.987029 L119.714,239.889029 L118.694,239.782029 L117.673,239.675029 L116.661,239.560029 L115.65,239.446029 L114.648,239.322029 L113.646,239.199029 L112.654,239.066029 L111.662,238.933029 L110.678,238.791029 L109.699,238.651029 L107.75,238.348029 L105.823,238.026029 L103.915,237.685029 L102.028,237.324029 L100.16,236.942029 L98.311,236.540029 L96.484,236.117029 L94.676,235.671029 L92.887,235.205029 L91.12,234.716029 L89.373,234.204029 L87.645,233.670029 L85.94,233.112029 L84.254,232.530029 L82.588,231.925029 L80.945,231.295029 L79.322,230.639029 L77.719,229.959029 L76.138,229.254029 L74.578,228.522029 L73.038,227.764029 L71.521,226.980029 L70.024,226.167029 L68.548,225.329029 L67.095,224.463029 L65.662,223.566029 L64.25,222.643029 L62.862,221.691029 L61.494,220.707029 L60.149,219.693029 L58.827,218.650029 L57.526,217.573029 L56.246,216.468029 L54.989,215.331029 L53.754,214.160029 L52.539,212.959029 L51.349,211.725029 L50.18,210.456029 L49.032,209.156029 L47.908,207.821029 L46.805,206.449029 L45.724,205.045029 L44.666,203.605029 L43.632,202.127029 L42.618,200.615029 L41.626,199.067029 L40.657,197.480029 L39.708,195.858029 L38.785,194.197029 L37.884,192.495029 L37.003,190.751029 L36.578,189.866029 L36.151,188.977029 L35.736,188.067029 L35.32,187.156029 L34.915,186.226029 L34.511,185.297029 L34.119,184.347029 L33.727,183.397029 L33.348,182.426029 L32.968,181.453029 L32.598,180.461029 L32.23,179.470029 L31.874,178.458029 L31.518,177.445029 L31.174,176.410029 L30.83,175.374029 L30.497,174.318029 L30.164,173.264029 L29.844,172.187029 L29.524,171.110029 L29.216,170.010029 L28.908,168.909029 L28.612,167.787029 L28.315,166.667029 L28.032,165.523029 L27.748,164.380029 L27.478,163.213029 L27.207,162.045029 L26.948,160.855029 L26.689,159.667029 L26.444,158.455029 L26.198,157.243029 L25.965,156.008029 L25.732,154.771029 L25.511,153.512029 L25.29,152.254029 L25.082,150.972029 L24.874,149.690029 L24.68,148.384029 L24.486,147.077029 L24.303,145.747029 L24.12,144.418029 L23.951,143.064029 L23.782,141.710029 L23.625,140.331029 L23.47,138.951029 L23.326,137.549029 L23.182,136.147029 L23.052,134.719029 L22.922,133.292029 L22.806,131.839029 L22.689,130.385029 L22.585,128.907029 L22.481,127.430029 L22.39,125.928029 L22.3,124.425029 L22.224,122.896029 L22.147,121.366029 L22.083,119.812029 L22.019,118.259029 L21.97,116.679029 L21.919,115.099029 L21.883,113.492029 L21.847,111.884029 L21.823,110.252029 L21.8,108.621029 L21.79,106.962029 L21.781,105.303029 L21.786,103.617029 L21.79,101.930029 L21.808,100.217029 L21.826,98.5060294 L21.857,96.7660294 L21.89,95.0270294 L21.936,93.2590294 L21.982,91.4910294 L22.041,89.6970294 L22.101,87.9040294 L22.175,86.0820294 L22.248,84.2600294 L22.337,82.4100294 L22.425,80.5590294 L22.526,78.6820294 L22.628,76.8050294 L22.744,74.8990294 L22.86,72.9930294 L22.991,71.0580294 L23.121,69.1220294 L23.266,67.1590294 L23.41,65.1960294 L23.489,64.2040294 L23.569,63.2060294 L23.649,62.2070294 L23.728,61.2140294 L23.815,60.2050294 L23.902,59.1920294 L23.989,58.1790294 L24.076,57.1700294 L24.169,56.1470294 L24.263,55.1200294 L24.357,54.0930294 L24.451,53.0710294 L24.552,52.0340294 L24.653,50.9920294 L24.754,49.9500294 L24.855,48.9130294 L24.964,47.8600294 L25.073,46.8030294 L25.181,45.7450294 L25.29,44.6920294 L25.406,43.6250294 L25.521,42.5540294 L25.637,41.4830294 L25.752,40.4160294 L25.875,39.3340294 L25.998,38.2480294 L26.122,37.1610294 L26.244,36.0790294 L26.375,34.9810294 L26.506,33.8790294 L26.637,32.7770294 L26.768,31.6750294 C26.875,30.7750294 26.233,29.9590294 25.333,29.8520294 C24.434,29.7440294 23.618,30.3870294 23.511,31.2860294 Z" id="Fill-72"></path>
        </g>
    </g>
</svg>
