<?xml version="1.0" encoding="UTF-8"?>
<svg width="369px" height="322px" viewBox="0 0 369 322" version="1.1" xmlns="http://www.w3.org/2000/svg" xmlns:xlink="http://www.w3.org/1999/xlink">
    <title>86</title>
    <g id="Page-1" stroke="none" stroke-width="1" fill="none" fill-rule="evenodd">
        <g id="86" transform="translate(0.480750, 0.605000)" fill="currentColor">
            <path d="M101.581,23.241 L99.816,23.034 L98.058,22.849 L96.319,22.686 L94.594,22.543 L92.886,22.422 L91.196,22.323 L89.522,22.244 L87.863,22.186 L86.223,22.15 L84.597,22.133 L82.988,22.138 L81.396,22.164 L79.819,22.209 L78.259,22.275 L76.715,22.361 L75.188,22.466 L73.675,22.592 L72.181,22.738 L70.701,22.902 L69.237,23.087 L67.79,23.291 L66.359,23.514 L64.943,23.756 L63.544,24.018 L62.161,24.297 L60.792,24.596 L59.441,24.914 L58.105,25.25 L56.784,25.604 L55.481,25.977 L54.192,26.367 L52.919,26.776 L51.663,27.202 L50.421,27.646 L49.195,28.108 L47.986,28.587 L46.791,29.083 L45.612,29.597 L44.45,30.128 L43.303,30.674 L42.171,31.239 L41.05,31.823 L39.964,32.423 L38.87,33.028 L37.807,33.666 L36.745,34.305 L35.715,34.975 L34.687,35.645 L33.689,36.343 L32.688,37.044 L31.719,37.776 L30.75,38.508 L29.813,39.271 L28.879,40.032 L27.973,40.82 L27.065,41.61 L26.188,42.43 L25.312,43.25 L24.467,44.099 L23.625,44.946 L22.81,45.819 L21.995,46.693 L21.21,47.595 L20.426,48.498 L19.672,49.427 L18.921,50.354 L18.197,51.305 L17.472,52.258 L16.778,53.237 L16.085,54.216 L15.422,55.22 L14.761,56.222 L14.127,57.247 L13.492,58.273 L12.887,59.323 L12.283,60.373 L11.709,61.446 L11.136,62.517 L10.59,63.609 L10.044,64.703 L9.527,65.818 L9.011,66.934 L8.523,68.071 L8.038,69.205 L7.578,70.359 L7.119,71.515 L6.688,72.691 L6.258,73.866 L5.857,75.062 L5.457,76.255 L5.084,77.466 L4.71,78.679 L4.364,79.91 L4.019,81.141 L3.703,82.389 L3.387,83.636 L3.096,84.899 L2.806,86.163 L2.543,87.444 L2.281,88.724 L2.046,90.021 L1.812,91.316 L1.603,92.625 L1.395,93.936 L1.213,95.261 L1.034,96.587 L0.882,97.927 L0.731,99.266 L0.605,100.617 L0.479,101.969 L0.38,103.335 L0.281,104.7 L0.209,106.079 L0.137,107.455 L0.09,108.843 L0.042,110.232 L0.021,111.632 L0,113.032 L0.006,114.444 L0.011,115.854 L0.041,117.273 L0.07,118.693 L0.123,120.124 L0.176,121.554 L0.255,122.994 L0.333,124.433 L0.435,125.879 L0.538,127.327 L0.665,128.783 L0.793,130.239 L0.946,131.702 L1.099,133.165 L1.275,134.633 L1.451,136.103 L1.652,137.58 L1.854,139.056 L2.08,140.539 L2.306,142.02 L2.555,143.506 L2.803,144.994 L3.077,146.486 L3.35,147.978 L3.648,149.475 L3.945,150.97 L4.265,152.469 L4.585,153.969 L4.929,155.473 L5.273,156.976 L5.642,158.482 L6.009,159.986 L6.399,161.493 L6.789,163.001 L7.202,164.51 L7.617,166.019 L8.055,167.529 L8.493,169.038 L8.952,170.547 L9.412,172.057 L9.894,173.567 L10.377,175.077 L10.883,176.587 L11.388,178.095 L11.915,179.602 L12.441,181.11 L12.991,182.617 L13.54,184.123 L14.112,185.627 L14.684,187.13 L15.278,188.629 L15.871,190.13 L16.487,191.627 L17.102,193.125 L17.74,194.618 L18.378,196.11 L19.035,197.598 L19.694,199.087 L20.373,200.57 L21.053,202.054 L21.755,203.532 L22.456,205.009 L23.176,206.48 L23.898,207.952 L24.64,209.417 L25.383,210.882 L26.147,212.339 L26.911,213.796 L27.693,215.245 L28.476,216.695 L29.281,218.137 L30.085,219.578 L30.91,221.011 L31.735,222.442 L32.578,223.865 L33.422,225.288 L34.286,226.701 L35.15,228.114 L36.034,229.517 L36.917,230.919 L37.819,232.311 L38.721,233.704 L39.643,235.084 L40.565,236.465 L41.507,237.833 L42.449,239.2 L43.408,240.555 L44.369,241.911 L45.348,243.254 L46.328,244.596 L47.327,245.924 L48.326,247.252 L49.341,248.566 L50.358,249.881 L51.393,251.181 L52.428,252.481 L53.483,253.765 L54.537,255.048 L55.608,256.317 L56.679,257.586 L57.77,258.838 L58.86,260.089 L59.969,261.324 L61.078,262.557 L62.203,263.774 L63.329,264.992 L64.472,266.192 L65.616,267.392 L66.778,268.572 L67.939,269.751 L69.116,270.913 L70.295,272.075 L71.491,273.217 L72.687,274.359 L73.901,275.48 L75.114,276.6 L76.343,277.7 L77.573,278.801 L78.82,279.88 L80.068,280.959 L81.332,282.016 L82.596,283.071 L83.876,284.106 L85.156,285.141 L86.454,286.152 L87.751,287.163 L89.065,288.15 L90.379,289.136 L91.707,290.1 L93.037,291.064 L94.383,292.002 L95.729,292.941 L97.092,293.853 L98.454,294.764 L99.83,295.651 L101.208,296.539 L102.602,297.399 L103.996,298.259 L105.406,299.091 L106.815,299.922 L108.238,300.728 L109.662,301.534 L111.102,302.311 L112.542,303.089 L113.998,303.836 L115.452,304.583 L116.921,305.302 L118.39,306.022 L119.875,306.711 L121.361,307.399 L122.861,308.056 L124.36,308.713 L125.872,309.34 L127.386,309.968 L128.914,310.563 L130.443,311.158 L131.986,311.72 L133.527,312.282 L135.082,312.813 L136.638,313.344 L138.208,313.842 L139.779,314.339 L141.363,314.8 L142.947,315.261 L144.542,315.69 L146.14,316.12 L147.751,316.513 L149.361,316.906 L150.986,317.263 L152.609,317.619 L154.244,317.941 L155.881,318.264 L157.531,318.549 L159.18,318.834 L160.843,319.081 L162.505,319.327 L164.178,319.538 L165.852,319.749 L167.539,319.92 L169.227,320.091 L170.926,320.223 L172.625,320.354 L174.334,320.448 L176.045,320.542 L177.768,320.596 L179.491,320.649 L181.226,320.66 L182.96,320.671 L184.704,320.644 L186.45,320.617 L188.207,320.547 L189.964,320.478 L191.733,320.365 L193.5,320.251 L195.278,320.098 L197.057,319.945 L198.847,319.748 L200.637,319.55 L202.439,319.307 L204.238,319.064 L206.048,318.78 L207.859,318.495 L209.68,318.165 L211.502,317.835 L213.334,317.459 L215.162,317.084 L217.003,316.675 L218.848,316.242 L220.696,315.786 L222.55,315.308 L224.409,314.805 L226.272,314.278 L228.14,313.729 L230.013,313.156 L231.89,312.557 L233.772,311.937 L235.66,311.291 L237.549,310.621 L238.499,310.274 L239.447,309.926 L240.397,309.567 L241.348,309.207 L242.3,308.835 L243.253,308.462 L244.207,308.078 L245.162,307.694 L246.119,307.297 L247.076,306.9 L248.035,306.489 L248.994,306.079 L249.955,305.658 L250.916,305.235 L251.88,304.8 L252.843,304.365 L253.809,303.917 L254.775,303.469 L255.742,303.009 L256.71,302.548 L257.68,302.075 L258.65,301.601 L259.622,301.114 L260.593,300.627 L261.567,300.128 L262.541,299.629 L263.517,299.116 L264.493,298.603 L265.471,298.076 L266.449,297.55 L267.428,297.011 L268.408,296.472 L269.391,295.92 L270.372,295.367 L271.357,294.8 L272.34,294.234 L273.326,293.655 L274.311,293.076 L275.299,292.482 L276.287,291.889 L277.277,291.282 L278.266,290.675 L279.257,290.055 L280.249,289.434 L281.243,288.8 L282.236,288.166 L283.231,287.517 L284.226,286.869 L285.223,286.207 L286.22,285.546 L287.219,284.87 L288.218,284.194 L289.219,283.503 L290.219,282.813 L291.221,282.11 L292.224,281.406 L293.228,280.687 L294.232,279.969 L295.238,279.236 L296.244,278.503 L297.251,277.757 L298.258,277.01 L299.268,276.249 L300.277,275.487 L301.288,274.711 L302.298,273.935 L303.311,273.146 L304.323,272.356 L305.338,271.551 L306.352,270.746 L307.368,269.926 L308.383,269.107 L309.401,268.273 L310.418,267.439 L311.437,266.59 L312.456,265.741 L313.476,264.876 L314.496,264.012 L315.518,263.133 L316.539,262.255 L317.563,261.361 L318.586,260.467 L319.611,259.557 L320.636,258.648 L321.662,257.724 L322.688,256.8 L323.716,255.861 L324.744,254.921 L325.773,253.966 L326.802,253.011 L327.833,252.042 L328.863,251.073 L329.895,250.087 L330.927,249.101 L331.961,248.1 L332.997,247.096 L334.154,245.944 L335.315,244.788 L336.431,243.626 L337.547,242.463 L338.619,241.295 L339.689,240.127 L340.719,238.953 L341.75,237.779 L342.737,236.598 L343.725,235.418 L344.668,234.232 L345.611,233.047 L346.515,231.857 L347.419,230.666 L348.281,229.469 L349.142,228.273 L349.962,227.071 L350.78,225.871 L351.56,224.666 L352.341,223.46 L353.081,222.25 L353.82,221.039 L354.518,219.825 L355.215,218.611 L355.875,217.394 L356.536,216.175 L357.156,214.953 L357.777,213.731 L358.357,212.505 L358.937,211.28 L359.48,210.053 L360.024,208.824 L360.529,207.592 L361.034,206.36 L361.499,205.125 L361.965,203.891 L362.394,202.655 L362.825,201.418 L363.217,200.178 L363.609,198.938 L363.963,197.696 L364.316,196.456 L364.636,195.214 L364.956,193.97 L365.239,192.725 L365.522,191.48 L365.768,190.233 L366.014,188.988 L366.227,187.742 L366.44,186.494 L366.617,185.246 L366.794,183.997 L366.936,182.748 L367.077,181.501 L367.187,180.252 L367.296,179.003 L367.371,177.753 L367.446,176.504 L367.486,175.255 L367.526,174.007 L367.536,172.759 L367.544,171.51 L367.52,170.261 L367.496,169.013 L367.439,167.765 L367.382,166.519 L367.295,165.274 L367.207,164.028 L367.088,162.782 L366.968,161.537 L366.817,160.294 L366.666,159.051 L366.486,157.811 L366.306,156.569 L366.094,155.329 L365.883,154.089 L365.641,152.851 L365.399,151.615 L365.13,150.381 L364.86,149.146 L364.56,147.913 L364.26,146.681 L363.931,145.451 L363.602,144.223 L363.247,142.997 L362.891,141.771 L362.507,140.548 L362.123,139.325 L361.71,138.105 L361.298,136.887 L360.86,135.672 L360.422,134.456 L359.956,133.244 L359.491,132.032 L358.998,130.825 L358.506,129.618 L357.99,128.416 L357.473,127.212 L356.93,126.014 L356.387,124.815 L355.817,123.622 L355.248,122.429 L354.656,121.241 L354.064,120.053 L353.446,118.869 L352.829,117.686 L352.187,116.509 L351.545,115.332 L350.882,114.16 L350.217,112.988 L349.529,111.822 L348.841,110.656 L348.13,109.496 L347.419,108.337 L346.686,107.183 L345.954,106.029 L345.199,104.882 L344.443,103.735 L343.665,102.595 L342.888,101.456 L342.091,100.323 L341.293,99.19 L340.474,98.063 L339.655,96.937 L338.815,95.819 L337.975,94.701 L337.116,93.59 L336.257,92.479 L335.378,91.375 L334.499,90.272 L333.6,89.177 L332.701,88.083 L331.784,86.996 L330.867,85.908 L329.931,84.83 L328.995,83.751 L328.04,82.682 L327.086,81.613 L326.114,80.552 L325.143,79.491 L324.153,78.439 L323.164,77.387 L322.157,76.344 L321.15,75.303 L320.128,74.27 L319.106,73.236 L318.066,72.213 L317.027,71.189 L315.971,70.176 L314.916,69.163 L313.846,68.16 L312.776,67.156 L311.69,66.163 L310.605,65.17 L309.504,64.188 L308.403,63.206 L307.289,62.234 L306.175,61.262 L305.046,60.301 L303.917,59.34 L302.774,58.391 L301.632,57.442 L300.477,56.504 L299.322,55.565 L298.154,54.639 L296.985,53.712 L295.804,52.798 L294.623,51.884 L293.431,50.981 L292.239,50.078 L291.034,49.187 L289.83,48.297 L288.613,47.419 L287.398,46.542 L286.172,45.676 L284.945,44.81 L283.708,43.958 L282.47,43.105 L281.223,42.266 L279.975,41.428 L278.719,40.601 L277.462,39.774 L276.196,38.961 L274.93,38.147 L273.654,37.348 L272.379,36.55 L271.095,35.764 L269.812,34.978 L268.519,34.207 L267.227,33.435 L265.926,32.679 L264.626,31.923 L263.319,31.18 L262.012,30.437 L260.697,29.71 L259.382,28.982 L258.06,28.27 L256.738,27.557 L255.411,26.86 L254.083,26.162 L252.749,25.479 L251.415,24.797 L250.075,24.131 L248.736,23.466 L247.392,22.815 L246.047,22.164 L244.697,21.529 L243.347,20.895 L241.992,20.277 L240.638,19.66 L239.28,19.058 L237.922,18.455 L236.559,17.87 L235.197,17.285 L233.831,16.718 L232.466,16.15 L231.098,15.599 L229.729,15.048 L228.358,14.514 L226.987,13.981 L225.613,13.465 L224.24,12.95 L222.865,12.452 L221.489,11.953 L220.112,11.473 L218.735,10.993 L217.357,10.533 L215.978,10.074 L214.599,9.633 L213.219,9.191 L211.839,8.769 L210.459,8.347 L209.079,7.944 L207.7,7.542 L206.321,7.157 L204.941,6.773 L203.562,6.408 L202.184,6.043 L200.806,5.699 L199.429,5.355 L198.053,5.029 L196.677,4.703 L195.303,4.398 L193.929,4.093 L192.557,3.81 L191.185,3.526 L189.817,3.262 L188.447,2.998 L187.081,2.754 L185.715,2.511 L184.352,2.29 L182.99,2.068 L181.632,1.867 L180.273,1.665 L178.918,1.485 L177.563,1.306 L176.214,1.148 L174.864,0.991 L173.519,0.854 L172.174,0.716 L170.835,0.6 L169.495,0.484 L168.161,0.391 L166.828,0.298 L165.5,0.226 L164.172,0.154 L162.851,0.105 L161.529,0.057 L160.215,0.031 L158.901,0.006 L157.594,0 L156.286,0 L154.986,0.02 L153.686,0.041 L152.394,0.086 L151.103,0.131 L149.819,0.199 L148.535,0.266 L147.26,0.357 L145.985,0.449 L144.719,0.565 L143.454,0.682 L142.198,0.821 L140.941,0.961 L139.694,1.126 L138.447,1.291 L137.211,1.482 L135.975,1.673 L134.75,1.887 L133.524,2.102 L132.309,2.342 L131.093,2.583 L129.89,2.85 L128.687,3.117 L127.496,3.408 L126.304,3.699 L125.124,4.017 L123.944,4.335 L122.777,4.68 L121.61,5.025 L120.456,5.395 L119.301,5.765 L118.16,6.162 L117.019,6.56 L115.892,6.985 L114.766,7.41 L113.653,7.861 L112.538,8.312 L111.439,8.791 L110.34,9.271 L109.257,9.778 L108.174,10.286 L107.106,10.819 L106.036,11.353 L104.983,11.916 L103.93,12.479 L102.893,13.071 L101.857,13.663 L100.837,14.281 L99.816,14.9 L98.812,15.548 L97.808,16.197 L96.822,16.875 L95.837,17.553 L94.868,18.258 L93.899,18.964 L92.948,19.7 L91.997,20.436 L91.065,21.203 L90.134,21.969 L89.221,22.763 L88.307,23.557 L87.413,24.383 L86.519,25.208 L85.645,26.065 L84.772,26.921 L83.917,27.805 L83.062,28.69 L82.228,29.606 L81.394,30.523 L80.581,31.471 L79.77,32.419 L78.978,33.395 L78.185,34.373 L77.415,35.383 L76.645,36.392 L75.897,37.434 L75.151,38.475 L74.425,39.546 L73.698,40.618 L72.995,41.722 L72.292,42.826 L71.613,43.964 L70.935,45.1 L70.279,46.267 L69.622,47.434 L68.99,48.635 L68.358,49.836 L67.751,51.07 L67.144,52.304 L66.561,53.568 L65.977,54.833 L65.419,56.132 L64.861,57.431 L64.33,58.764 L63.798,60.097 L63.291,61.46 L62.784,62.825 L62.304,64.224 L61.823,65.623 L61.37,67.057 L60.918,68.49 L60.49,69.955 L60.063,71.42 L59.663,72.921 L59.264,74.422 L58.893,75.959 L58.522,77.494 L58.177,79.062 L57.833,80.631 L57.517,82.235 L57.202,83.84 L56.916,85.481 L56.632,87.112 C56.553,87.566 56.857,87.998 57.311,88.077 C57.765,88.156 58.197,87.853 58.276,87.399 L58.56,85.767 L58.843,84.144 L59.155,82.557 L59.467,80.971 L59.808,79.42 L60.149,77.869 L60.516,76.35 L60.882,74.833 L61.277,73.351 L61.671,71.869 L62.093,70.423 L62.516,68.975 L62.963,67.56 L63.41,66.146 L63.884,64.767 L64.358,63.387 L64.858,62.043 L65.358,60.697 L65.882,59.384 L66.406,58.071 L66.955,56.792 L67.505,55.513 L68.079,54.269 L68.654,53.023 L69.251,51.808 L69.848,50.594 L70.47,49.414 L71.091,48.234 L71.737,47.087 L72.382,45.939 L73.05,44.821 L73.717,43.704 L74.407,42.62 L75.097,41.536 L75.81,40.485 L76.523,39.433 L77.257,38.41 L77.99,37.388 L78.746,36.398 L79.501,35.408 L80.278,34.45 L81.056,33.491 L81.853,32.561 L82.649,31.632 L83.467,30.734 L84.284,29.836 L85.122,28.969 L85.96,28.101 L86.817,27.261 L87.673,26.423 L88.55,25.615 L89.426,24.807 L90.321,24.029 L91.218,23.251 L92.132,22.5 L93.044,21.749 L93.976,21.029 L94.908,20.309 L95.857,19.618 L96.808,18.927 L97.775,18.262 L98.742,17.598 L99.725,16.964 L100.709,16.329 L101.71,15.723 L102.712,15.117 L103.729,14.537 L104.746,13.957 L105.778,13.406 L106.811,12.855 L107.86,12.332 L108.91,11.809 L109.974,11.311 L111.038,10.814 L112.116,10.345 L113.195,9.876 L114.288,9.434 L115.383,8.992 L116.491,8.575 L117.598,8.158 L118.719,7.769 L119.84,7.38 L120.975,7.017 L122.111,6.654 L123.259,6.316 L124.407,5.978 L125.567,5.666 L126.728,5.355 L127.901,5.07 L129.075,4.784 L130.26,4.523 L131.445,4.262 L132.641,4.027 L133.837,3.792 L135.045,3.582 L136.254,3.372 L137.473,3.186 L138.691,3 L139.92,2.839 L141.149,2.678 L142.388,2.542 L143.628,2.406 L144.877,2.292 L146.126,2.179 L147.384,2.09 L148.642,2.002 L149.909,1.938 L151.177,1.874 L152.453,1.832 L153.728,1.791 L155.012,1.773 L156.296,1.755 L157.587,1.762 L158.88,1.768 L160.179,1.796 L161.478,1.823 L162.784,1.874 L164.09,1.925 L165.402,1.999 L166.716,2.074 L168.035,2.169 L169.354,2.264 L170.678,2.381 L172.003,2.499 L173.333,2.641 L174.664,2.783 L175.999,2.945 L177.334,3.107 L178.674,3.292 L180.014,3.476 L181.358,3.682 L182.703,3.888 L184.051,4.114 L185.399,4.34 L186.75,4.587 L188.102,4.835 L189.457,5.103 L190.812,5.372 L192.17,5.659 L193.527,5.947 L194.887,6.255 L196.247,6.562 L197.609,6.89 L198.972,7.219 L200.336,7.565 L201.699,7.912 L203.064,8.278 L204.429,8.645 L205.795,9.031 L207.161,9.418 L208.528,9.822 L209.894,10.226 L211.26,10.65 L212.627,11.073 L213.993,11.516 L215.359,11.959 L216.725,12.419 L218.091,12.878 L219.456,13.354 L220.821,13.83 L222.185,14.325 L223.549,14.821 L224.912,15.332 L226.274,15.844 L227.634,16.374 L228.994,16.903 L230.351,17.451 L231.709,17.998 L233.065,18.562 L234.419,19.126 L235.77,19.707 L237.122,20.288 L238.469,20.886 L239.817,21.484 L241.161,22.098 L242.505,22.712 L243.844,23.343 L245.183,23.973 L246.517,24.62 L247.851,25.267 L249.181,25.929 L250.51,26.591 L251.833,27.269 L253.157,27.947 L254.474,28.641 L255.792,29.334 L257.103,30.043 L258.415,30.75 L259.719,31.474 L261.023,32.197 L262.32,32.936 L263.617,33.675 L264.908,34.428 L266.197,35.18 L267.479,35.947 L268.761,36.714 L270.034,37.495 L271.308,38.277 L272.573,39.072 L273.838,39.866 L275.094,40.674 L276.35,41.483 L277.596,42.305 L278.842,43.128 L280.079,43.963 L281.315,44.798 L282.541,45.647 L283.767,46.495 L284.982,47.357 L286.198,48.219 L287.403,49.092 L288.608,49.966 L289.801,50.852 L290.994,51.738 L292.175,52.636 L293.356,53.535 L294.527,54.444 L295.696,55.354 L296.853,56.275 L298.01,57.197 L299.153,58.13 L300.297,59.063 L301.429,60.007 L302.56,60.951 L303.677,61.906 L304.794,62.861 L305.897,63.827 L307,64.793 L308.09,65.769 L309.179,66.745 L310.253,67.732 L311.327,68.718 L312.385,69.715 L313.444,70.712 L314.488,71.718 L315.532,72.724 L316.559,73.74 L317.587,74.756 L318.597,75.781 L319.608,76.807 L320.604,77.842 L321.599,78.876 L322.576,79.919 L323.554,80.963 L324.513,82.015 L325.473,83.068 L326.416,84.128 L327.359,85.189 L328.283,86.258 L329.207,87.326 L330.112,88.403 L331.018,89.481 L331.906,90.566 L332.793,91.65 L333.661,92.742 L334.528,93.834 L335.375,94.934 L336.223,96.034 L337.052,97.141 L337.88,98.247 L338.688,99.361 L339.495,100.474 L340.281,101.595 L341.067,102.716 L341.834,103.843 L342.6,104.969 L343.343,106.102 L344.088,107.235 L344.809,108.374 L345.531,109.513 L346.232,110.658 L346.933,111.803 L347.61,112.953 L348.288,114.103 L348.941,115.259 L349.595,116.415 L350.227,117.576 L350.858,118.737 L351.465,119.902 L352.072,121.068 L352.654,122.238 L353.237,123.409 L353.796,124.585 L354.355,125.759 L354.889,126.938 L355.423,128.117 L355.93,129.3 L356.438,130.484 L356.922,131.671 L357.406,132.858 L357.863,134.048 L358.32,135.238 L358.749,136.432 L359.179,137.626 L359.584,138.824 L359.989,140.021 L360.365,141.22 L360.742,142.42 L361.09,143.622 L361.439,144.826 L361.761,146.032 L362.083,147.236 L362.377,148.444 L362.67,149.651 L362.934,150.86 L363.197,152.07 L363.434,153.283 L363.671,154.494 L363.877,155.706 L364.084,156.919 L364.26,158.133 L364.436,159.349 L364.584,160.565 L364.731,161.781 L364.848,162.997 L364.964,164.213 L365.049,165.431 L365.134,166.649 L365.189,167.868 L365.245,169.086 L365.268,170.305 L365.291,171.523 L365.281,172.741 L365.271,173.961 L365.231,175.181 L365.191,176.4 L365.118,177.618 L365.044,178.836 L364.936,180.055 L364.829,181.274 L364.69,182.493 L364.551,183.71 L364.378,184.927 L364.204,186.144 L363.996,187.36 L363.787,188.577 L363.546,189.793 L363.305,191.008 L363.028,192.221 L362.751,193.435 L362.437,194.647 L362.124,195.86 L361.777,197.071 L361.43,198.282 L361.046,199.49 L360.662,200.698 L360.241,201.905 L359.819,203.112 L359.363,204.318 L358.907,205.522 L358.413,206.723 L357.919,207.925 L357.386,209.124 L356.853,210.324 L356.284,211.522 L355.715,212.718 L355.108,213.911 L354.499,215.104 L353.851,216.294 L353.202,217.484 L352.517,218.672 L351.832,219.858 L351.106,221.041 L350.381,222.224 L349.613,223.402 L348.846,224.582 L348.04,225.758 L347.236,226.933 L346.389,228.104 L345.542,229.274 L344.653,230.44 L343.763,231.607 L342.834,232.77 L341.906,233.931 L340.935,235.088 L339.964,236.244 L338.948,237.395 L337.933,238.548 L336.877,239.695 L335.822,240.841 L334.722,241.981 L333.622,243.122 L332.478,244.257 L331.329,245.395 L330.303,246.386 L329.274,247.379 L328.246,248.356 L327.218,249.334 L326.192,250.295 L325.166,251.257 L324.142,252.205 L323.117,253.152 L322.095,254.084 L321.072,255.015 L320.051,255.931 L319.029,256.847 L318.01,257.749 L316.99,258.651 L315.973,259.537 L314.955,260.423 L313.939,261.294 L312.923,262.165 L311.908,263.022 L310.893,263.879 L309.881,264.72 L308.869,265.562 L307.858,266.389 L306.847,267.216 L305.838,268.029 L304.829,268.842 L303.822,269.64 L302.815,270.437 L301.81,271.22 L300.805,272.003 L299.801,272.772 L298.797,273.542 L297.796,274.296 L296.794,275.05 L295.794,275.79 L294.794,276.529 L293.796,277.256 L292.798,277.982 L291.802,278.693 L290.806,279.405 L289.812,280.102 L288.818,280.799 L287.826,281.483 L286.834,282.167 L285.843,282.836 L284.853,283.505 L283.865,284.16 L282.877,284.816 L281.89,285.458 L280.904,286.1 L279.92,286.727 L278.936,287.355 L277.954,287.969 L276.971,288.583 L275.99,289.184 L275.01,289.784 L274.032,290.371 L273.054,290.958 L272.078,291.531 L271.102,292.104 L270.127,292.664 L269.153,293.225 L268.182,293.771 L267.21,294.317 L266.24,294.85 L265.27,295.383 L264.302,295.904 L263.335,296.424 L262.369,296.931 L261.404,297.438 L260.441,297.931 L259.477,298.424 L258.516,298.906 L257.555,299.387 L256.596,299.855 L255.637,300.322 L254.681,300.777 L253.724,301.231 L252.769,301.674 L251.815,302.116 L250.862,302.545 L249.911,302.974 L248.961,303.39 L248.01,303.806 L247.062,304.211 L246.115,304.615 L245.17,305.006 L244.225,305.397 L243.282,305.776 L242.338,306.154 L241.397,306.521 L240.457,306.888 L239.519,307.242 L238.58,307.596 L237.645,307.937 L236.711,308.278 L234.841,308.939 L232.98,309.574 L231.123,310.185 L229.27,310.772 L227.423,311.335 L225.58,311.873 L223.743,312.389 L221.911,312.882 L220.084,313.35 L218.261,313.797 L216.445,314.22 L214.636,314.618 L212.828,314.987 L211.025,315.354 L209.232,315.676 L207.439,315.996 L205.657,316.271 L203.874,316.546 L202.101,316.78 L200.33,317.014 L198.57,317.203 L196.81,317.392 L195.061,317.538 L193.311,317.683 L191.572,317.79 L189.834,317.896 L188.108,317.959 L186.382,318.023 L184.668,318.044 L182.952,318.065 L181.247,318.048 L179.544,318.031 L177.853,317.973 L176.162,317.916 L174.484,317.817 L172.803,317.719 L171.135,317.584 L169.467,317.45 L167.812,317.276 L166.158,317.103 L164.516,316.89 L162.872,316.678 L161.24,316.43 L159.61,316.184 L157.992,315.899 L156.375,315.615 L154.77,315.293 L153.165,314.972 L151.571,314.617 L149.978,314.262 L148.4,313.872 L146.82,313.481 L145.255,313.055 L143.688,312.629 L142.133,312.171 L140.58,311.714 L139.041,311.222 L137.501,310.731 L135.975,310.206 L134.448,309.681 L132.934,309.126 L131.421,308.571 L129.922,307.983 L128.423,307.396 L126.939,306.776 L125.453,306.156 L123.98,305.507 L122.509,304.859 L121.052,304.18 L119.595,303.501 L118.152,302.792 L116.708,302.083 L115.278,301.346 L113.849,300.61 L112.435,299.845 L111.021,299.08 L109.622,298.286 L108.222,297.491 L106.836,296.671 L105.451,295.852 L104.081,295.004 L102.711,294.157 L101.358,293.283 L100.002,292.408 L98.661,291.509 L97.321,290.612 L95.997,289.688 L94.673,288.764 L93.365,287.815 L92.056,286.865 L90.761,285.892 L89.468,284.92 L88.191,283.924 L86.914,282.928 L85.653,281.908 L84.392,280.887 L83.145,279.846 L81.9,278.805 L80.671,277.741 L79.443,276.678 L78.231,275.592 L77.019,274.506 L75.822,273.4 L74.626,272.294 L73.447,271.168 L72.268,270.042 L71.107,268.896 L69.945,267.748 L68.799,266.583 L67.654,265.418 L66.526,264.235 L65.399,263.051 L64.29,261.848 L63.18,260.644 L62.087,259.424 L60.995,258.204 L59.92,256.967 L58.846,255.73 L57.79,254.476 L56.734,253.221 L55.694,251.952 L54.655,250.683 L53.635,249.398 L52.615,248.113 L51.614,246.813 L50.612,245.513 L49.628,244.198 L48.644,242.884 L47.68,241.556 L46.716,240.228 L45.771,238.887 L44.826,237.544 L43.898,236.19 L42.971,234.837 L42.064,233.471 L41.157,232.105 L40.269,230.728 L39.381,229.35 L38.511,227.961 L37.642,226.573 L36.794,225.174 L35.945,223.775 L35.117,222.366 L34.289,220.956 L33.479,219.537 L32.67,218.119 L31.881,216.693 L31.092,215.266 L30.324,213.831 L29.556,212.395 L28.807,210.951 L28.058,209.509 L27.33,208.06 L26.602,206.61 L25.895,205.154 L25.188,203.697 L24.5,202.234 L23.812,200.773 L23.147,199.305 L22.481,197.838 L21.837,196.366 L21.192,194.893 L20.567,193.416 L19.943,191.94 L19.34,190.46 L18.738,188.98 L18.158,187.497 L17.577,186.012 L17.016,184.526 L16.455,183.041 L15.917,181.553 L15.378,180.066 L14.862,178.577 L14.346,177.087 L13.851,175.596 L13.356,174.106 L12.883,172.616 L12.411,171.126 L11.962,169.636 L11.512,168.145 L11.083,166.654 L10.655,165.165 L10.25,163.677 L9.844,162.189 L9.462,160.703 L9.079,159.216 L8.717,157.731 L8.356,156.248 L8.019,154.767 L7.682,153.286 L7.369,151.809 L7.055,150.331 L6.763,148.857 L6.472,147.384 L6.205,145.915 L5.937,144.447 L5.694,142.983 L5.451,141.519 L5.23,140.06 L5.01,138.602 L4.814,137.151 L4.618,135.7 L4.447,134.255 L4.276,132.81 L4.127,131.371 L3.978,129.934 L3.855,128.505 L3.731,127.076 L3.633,125.656 L3.535,124.234 L3.46,122.821 L3.384,121.41 L3.335,120.008 L3.286,118.606 L3.264,117.215 L3.243,115.822 L3.245,114.44 L3.247,113.059 L3.276,111.69 L3.303,110.321 L3.358,108.964 L3.412,107.606 L3.489,106.259 L3.567,104.914 L3.671,103.583 L3.775,102.251 L3.905,100.934 L4.035,99.615 L4.19,98.309 L4.344,97.006 L4.524,95.717 L4.702,94.428 L4.907,93.154 L5.113,91.88 L5.343,90.619 L5.572,89.361 L5.829,88.119 L6.085,86.878 L6.369,85.654 L6.652,84.428 L6.961,83.218 L7.269,82.011 L7.605,80.822 L7.94,79.633 L8.304,78.462 L8.667,77.291 L9.056,76.136 L9.444,74.984 L9.859,73.852 L10.274,72.72 L10.716,71.609 L11.16,70.495 L11.629,69.401 L12.096,68.309 L12.593,67.238 L13.088,66.168 L13.613,65.12 L14.137,64.07 L14.689,63.041 L15.238,62.013 L15.816,61.009 L16.394,60.005 L17.001,59.025 L17.609,58.043 L18.243,57.083 L18.875,56.125 L19.537,55.192 L20.198,54.259 L20.888,53.351 L21.579,52.44 L22.297,51.554 L23.013,50.669 L23.759,49.811 L24.504,48.952 L25.279,48.121 L26.056,47.287 L26.86,46.479 L27.662,45.672 L28.494,44.893 L29.325,44.114 L30.187,43.363 L31.05,42.61 L31.942,41.884 L32.831,41.159 L33.751,40.463 L34.67,39.768 L35.62,39.102 L36.572,38.434 L37.553,37.794 L38.531,37.155 L39.54,36.548 L40.55,35.939 L41.59,35.363 L42.64,34.781 L43.697,34.229 L44.775,33.69 L45.87,33.166 L46.98,32.658 L48.105,32.166 L49.247,31.691 L50.404,31.23 L51.576,30.787 L52.765,30.361 L53.969,29.95 L55.189,29.557 L56.426,29.181 L57.678,28.821 L58.946,28.479 L60.231,28.155 L61.532,27.847 L62.848,27.558 L64.182,27.286 L65.532,27.032 L66.897,26.797 L68.28,26.58 L69.679,26.38 L71.094,26.2 L72.528,26.039 L73.976,25.895 L75.441,25.771 L76.924,25.667 L78.423,25.581 L79.938,25.516 L81.472,25.47 L83.021,25.443 L84.587,25.436 L86.172,25.45 L87.772,25.483 L89.389,25.537 L91.024,25.613 L92.676,25.707 L94.344,25.823 L96.031,25.961 L97.735,26.118 L99.455,26.297 L101.202,26.5 C102.102,26.604 102.916,25.96 103.021,25.06 C103.126,24.16 102.481,23.346 101.581,23.241 Z" id="Fill-71"></path>
        </g>
    </g>
</svg>
