<?xml version="1.0" encoding="UTF-8"?>
<svg width="505px" height="163px" viewBox="0 0 505 163" version="1.1" xmlns="http://www.w3.org/2000/svg" xmlns:xlink="http://www.w3.org/1999/xlink">
    <title>87</title>
    <g id="Page-1" stroke="none" stroke-width="1" fill="none" fill-rule="evenodd">
        <g id="87" transform="translate(0.086750, 0.187000)" fill="currentColor">
            <path d="M397.454,20.96 L396.519,20.396 L395.53,19.831 L394.504,19.276 L393.445,18.729 L392.349,18.189 L391.217,17.659 L390.053,17.137 L388.853,16.622 L387.618,16.116 L386.352,15.618 L385.05,15.127 L383.716,14.644 L382.351,14.169 L380.952,13.702 L379.52,13.243 L378.059,12.791 L376.566,12.346 L375.041,11.91 L373.488,11.481 L371.904,11.06 L370.289,10.646 L368.647,10.24 L366.975,9.842 L365.274,9.451 L363.546,9.068 L361.79,8.693 L360.005,8.325 L358.196,7.965 L356.359,7.612 L354.495,7.268 L352.607,6.931 L350.693,6.601 L348.753,6.28 L346.792,5.967 L345.797,5.813 L344.803,5.66 L343.797,5.511 L342.791,5.362 L341.774,5.217 L340.757,5.072 L339.728,4.93 L338.699,4.789 L337.658,4.652 L336.618,4.514 L335.567,4.381 L334.517,4.247 L333.454,4.118 L332.392,3.988 L331.319,3.862 L330.245,3.737 L329.155,3.617 L328.072,3.497 L326.988,3.378 L325.896,3.258 L324.784,3.146 L323.679,3.034 L322.574,2.923 L321.462,2.811 L320.33,2.708 L319.205,2.605 L318.08,2.502 L316.949,2.398 L315.8,2.302 L314.658,2.207 L313.516,2.111 L312.367,2.015 L311.199,1.927 L310.039,1.84 L308.879,1.753 L307.711,1.665 L306.526,1.586 L305.349,1.507 L304.171,1.428 L302.986,1.348 L301.787,1.277 L300.594,1.206 L299.401,1.135 L298.202,1.064 L296.986,1.001 L295.777,0.938 L294.569,0.876 L293.353,0.813 L292.123,0.759 L290.9,0.704 L289.676,0.65 L288.446,0.596 L287.204,0.549 L285.968,0.503 L284.731,0.456 L283.489,0.41 L282.233,0.372 L280.983,0.334 L279.733,0.296 L278.477,0.258 L277.209,0.23 L275.947,0.201 L274.685,0.173 L273.417,0.144 L272.14,0.123 L270.867,0.103 L269.594,0.082 L268.316,0.061 L267.027,0.049 L265.744,0.037 L264.46,0.025 L263.171,0.013 L261.872,0.01 L260.579,0.006 L259.286,0.003 L257.988,0 L256.682,0.004 L255.38,0.009 L254.079,0.016 L252.772,0.023 L251.457,0.039 L250.148,0.055 L248.838,0.071 L247.524,0.087 L246.202,0.111 L244.885,0.136 L243.568,0.161 L242.247,0.186 L240.92,0.218 L239.597,0.251 L238.275,0.284 L236.947,0.317 L235.614,0.359 L234.286,0.4 L232.958,0.442 L231.625,0.484 L230.287,0.533 L228.954,0.581 L227.621,0.629 L226.284,0.677 L224.943,0.733 L223.606,0.79 L222.27,0.846 L220.929,0.902 L219.584,0.968 L218.245,1.033 L216.905,1.098 L215.561,1.163 L214.214,1.238 L212.873,1.312 L211.531,1.387 L210.185,1.461 L208.838,1.544 L207.495,1.627 L206.152,1.709 L204.805,1.792 L203.456,1.884 L202.113,1.975 L200.77,2.067 L199.421,2.159 L198.073,2.26 L196.731,2.361 L195.388,2.462 L194.04,2.563 L192.694,2.673 L191.352,2.782 L190.011,2.891 L188.663,3.001 L187.318,3.12 L185.979,3.238 L184.64,3.357 L183.295,3.476 L181.953,3.605 L180.616,3.734 L179.28,3.862 L177.938,3.992 L176.6,4.129 L175.267,4.267 L173.934,4.404 L172.595,4.542 L171.261,4.689 L169.933,4.836 L168.604,4.982 L167.27,5.13 L165.942,5.286 L164.619,5.442 L163.296,5.599 L161.968,5.755 L160.645,5.921 L159.328,6.086 L158.011,6.251 L156.688,6.417 L155.372,6.593 L154.062,6.768 L152.753,6.943 L151.437,7.119 L150.129,7.304 L148.827,7.489 L147.526,7.674 L146.218,7.859 L144.919,8.053 L143.625,8.247 L142.332,8.44 L141.032,8.634 L139.741,8.838 L138.457,9.041 L137.173,9.244 L135.883,9.449 L134.603,9.662 L133.33,9.875 L132.057,10.088 L130.778,10.302 L129.509,10.525 L128.246,10.747 L126.983,10.968 L125.713,11.191 L124.456,11.424 L123.206,11.656 L121.955,11.887 L120.698,12.12 L119.453,12.363 L118.216,12.604 L116.979,12.845 L115.735,13.088 L114.504,13.34 L113.279,13.59 L112.054,13.84 L110.822,14.092 L109.605,14.353 L108.395,14.612 L107.185,14.871 L105.967,15.133 L104.765,15.404 L103.571,15.673 L102.377,15.943 L101.176,16.214 L99.989,16.494 L98.81,16.772 L97.631,17.051 L96.444,17.331 L95.274,17.622 L94.112,17.91 L92.95,18.199 L91.78,18.49 L90.628,18.791 L89.485,19.089 L88.341,19.388 L87.19,19.688 L86.055,19.998 L84.929,20.305 L83.803,20.612 L82.667,20.922 L81.552,21.242 L80.446,21.56 L79.339,21.877 L78.224,22.197 L77.128,22.528 L76.043,22.856 L74.957,23.184 L73.865,23.513 L72.787,23.85 L71.712,24.186 L70.647,24.528 L69.582,24.87 L68.528,25.216 L67.475,25.563 L66.432,25.914 L65.388,26.266 L64.356,26.622 L63.324,26.978 L62.304,27.34 L61.284,27.701 L60.275,28.068 L59.265,28.434 L58.268,28.806 L57.271,29.177 L56.286,29.554 L55.302,29.931 L54.329,30.313 L53.355,30.695 L52.395,31.082 L51.434,31.47 L50.486,31.862 L49.539,32.255 L48.604,32.652 L47.666,33.051 L45.824,33.856 L44.007,34.673 L42.216,35.499 L40.452,36.337 L38.717,37.186 L37.008,38.044 L35.328,38.915 L33.679,39.796 L32.057,40.687 L30.465,41.59 L28.904,42.503 L27.372,43.427 L25.871,44.363 L24.404,45.311 L22.966,46.268 L21.56,47.238 L20.189,48.219 L18.849,49.211 L17.542,50.216 L16.271,51.231 L15.032,52.258 L13.828,53.297 L12.661,54.348 L11.528,55.41 L10.431,56.485 L9.371,57.571 L8.347,58.669 L7.36,59.78 L6.413,60.902 L5.503,62.037 L4.631,63.185 L3.801,64.345 L3.008,65.516 L2.256,66.702 L1.55,67.896 L1.26,68.433 L1.003,68.98 L0.778,69.533 L0.583,70.094 L0.416,70.665 L0.281,71.24 L0.172,71.819 L0.09,72.405 L0.036,72.993 L0,73.583 L0,74.178 L0.021,74.796 L0.122,75.962 L0.312,77.159 L0.582,78.349 L0.92,79.534 L1.328,80.714 L1.798,81.879 L2.322,83.03 L2.899,84.165 L3.523,85.277 L4.186,86.366 L4.89,87.428 L5.625,88.456 L6.388,89.452 L7.175,90.411 L7.982,91.325 L8.802,92.197 L9.636,93.02 L10.473,93.787 L11.869,95.001 L13.298,96.201 L14.76,97.389 L16.252,98.566 L17.778,99.732 L19.337,100.886 L20.924,102.029 L22.545,103.161 L24.196,104.28 L25.874,105.387 L26.732,105.937 L27.588,106.486 L28.459,107.029 L29.329,107.571 L30.213,108.109 L31.098,108.646 L31.998,109.178 L32.898,109.71 L33.812,110.236 L34.726,110.761 L35.653,111.282 L36.581,111.803 L37.523,112.318 L38.465,112.833 L39.422,113.342 L40.378,113.851 L41.347,114.355 L42.316,114.859 L43.299,115.357 L44.282,115.855 L45.279,116.348 L46.275,116.841 L47.284,117.328 L48.293,117.816 L49.315,118.298 L50.338,118.78 L51.373,119.257 L52.409,119.733 L53.455,120.204 L54.503,120.675 L55.563,121.14 L56.624,121.606 L57.697,122.066 L58.769,122.525 L59.854,122.98 L60.938,123.435 L62.035,123.884 L63.131,124.333 L64.241,124.776 L65.349,125.22 L66.468,125.658 L67.588,126.097 L68.72,126.53 L69.851,126.964 L70.994,127.392 L72.137,127.819 L73.29,128.242 L74.443,128.665 L75.608,129.082 L76.773,129.499 L77.949,129.911 L79.125,130.322 L80.31,130.729 L81.496,131.135 L82.693,131.536 L83.89,131.937 L85.097,132.332 L86.304,132.728 L87.52,133.118 L88.737,133.508 L89.964,133.893 L91.191,134.278 L92.428,134.658 L93.667,135.038 L94.919,135.41 L96.165,135.781 L97.412,136.152 L98.666,136.525 L99.94,136.887 L101.206,137.247 L102.472,137.607 L103.745,137.969 L105.037,138.32 L106.322,138.669 L107.606,139.018 L108.897,139.369 L110.204,139.709 L111.505,140.048 L112.806,140.388 L114.113,140.729 L115.438,141.059 L116.756,141.387 L118.074,141.715 L119.399,142.045 L120.739,142.364 L122.074,142.682 L123.408,142.999 L124.748,143.318 L126.103,143.627 L127.452,143.935 L128.8,144.242 L130.155,144.551 L131.525,144.849 L132.889,145.146 L134.253,145.442 L135.622,145.74 L137.006,146.027 L138.384,146.313 L139.763,146.598 L141.146,146.885 L142.542,147.162 L143.932,147.438 L145.323,147.713 L146.719,147.99 L148.128,148.256 L149.531,148.521 L150.935,148.786 L152.344,149.052 L153.765,149.307 L155.181,149.561 L156.596,149.815 L158.017,150.069 L159.448,150.314 L160.874,150.558 L162.3,150.802 L163.732,151.047 L165.174,151.281 L166.611,151.514 L168.048,151.747 L169.49,151.981 L170.942,152.204 L172.39,152.426 L173.837,152.648 L175.288,152.871 L176.748,153.084 L178.204,153.296 L179.66,153.509 L181.12,153.722 L182.589,153.924 L184.054,154.125 L185.518,154.326 L186.988,154.527 L188.465,154.718 L189.937,154.908 L191.41,155.098 L192.886,155.289 L194.369,155.47 L195.849,155.65 L197.328,155.83 L198.811,156.011 L200.301,156.181 L201.787,156.35 L203.273,156.52 L204.763,156.69 L206.259,156.849 L207.75,157.007 L209.242,157.166 L210.737,157.324 L212.237,157.473 L213.734,157.622 L215.23,157.77 L216.73,157.919 L218.235,158.058 L219.736,158.195 L221.237,158.333 L222.742,158.471 L224.25,158.599 L225.755,158.726 L227.259,158.853 L228.767,158.98 L230.278,159.098 L231.786,159.215 L233.293,159.332 L234.804,159.45 L236.318,159.557 L237.827,159.663 L239.337,159.77 L240.85,159.876 L242.366,159.972 L243.877,160.068 L245.388,160.164 L246.903,160.26 L248.418,160.346 L249.93,160.432 L251.442,160.518 L252.958,160.605 L254.474,160.68 L255.987,160.756 L257.499,160.832 L259.015,160.908 L260.531,160.973 L262.042,161.038 L263.554,161.104 L265.069,161.169 L266.584,161.225 L268.094,161.28 L269.605,161.336 L271.119,161.391 L272.632,161.436 L274.141,161.481 L275.649,161.526 L277.162,161.571 L278.672,161.605 L280.178,161.639 L281.684,161.674 L283.194,161.709 L284.701,161.734 L286.204,161.759 L287.707,161.783 L289.214,161.808 L290.717,161.823 L292.216,161.837 L293.715,161.851 L295.218,161.866 L296.717,161.869 L298.211,161.873 L299.705,161.877 L301.203,161.88 L302.696,161.874 L304.186,161.868 L305.675,161.863 L307.169,161.857 L308.656,161.84 L310.14,161.824 L311.623,161.808 L313.11,161.791 L314.591,161.764 L316.067,161.737 L317.544,161.71 L319.024,161.683 L320.497,161.647 L321.967,161.61 L323.437,161.574 L324.91,161.537 L326.376,161.49 L327.837,161.442 L329.299,161.395 L330.764,161.348 L332.221,161.29 L333.673,161.232 L335.126,161.174 L336.582,161.116 L338.03,161.049 L339.474,160.981 L340.917,160.914 L342.365,160.846 L343.803,160.768 L345.236,160.69 L346.67,160.612 L348.107,160.534 L349.534,160.445 L350.956,160.357 L352.379,160.268 L353.805,160.179 L355.22,160.08 L356.632,159.982 L358.043,159.883 L359.459,159.784 L360.863,159.675 L362.262,159.566 L363.661,159.457 L365.065,159.348 L366.455,159.228 L367.841,159.108 L369.227,158.989 L370.617,158.869 L371.995,158.74 L373.368,158.611 L374.742,158.481 L376.119,158.351 L377.483,158.211 L378.842,158.071 L380.2,157.931 L381.564,157.79 L382.912,157.639 L384.255,157.489 L385.599,157.338 L386.947,157.187 L388.28,157.027 L389.609,156.867 L390.938,156.707 L392.271,156.546 L393.589,156.375 L394.901,156.205 L396.213,156.034 L397.53,155.863 L398.83,155.681 L400.125,155.5 L401.419,155.319 L402.719,155.137 L404.002,154.946 L405.28,154.755 L406.558,154.564 L407.842,154.373 L409.107,154.171 L410.366,153.97 L411.625,153.769 L412.89,153.567 L414.136,153.354 L415.376,153.143 L416.616,152.931 L417.86,152.719 L419.087,152.497 L420.309,152.276 L421.53,152.055 L422.757,151.833 L423.964,151.6 L425.164,151.369 L426.365,151.137 L427.571,150.905 L428.756,150.661 L429.935,150.42 L431.114,150.178 L432.297,149.935 L433.465,149.685 L434.632,149.436 L435.787,149.181 L436.943,148.926 L438.087,148.666 L439.231,148.406 L440.364,148.141 L441.498,147.877 L442.619,147.607 L443.741,147.337 L444.851,147.062 L445.96,146.786 L447.058,146.507 L448.157,146.227 L449.243,145.942 L450.33,145.656 L451.403,145.366 L452.477,145.076 L453.539,144.781 L454.601,144.486 L455.651,144.185 L456.7,143.885 L457.736,143.58 L458.772,143.274 L459.796,142.964 L460.82,142.654 L461.831,142.338 L462.842,142.023 L463.84,141.702 L464.837,141.381 L465.821,141.056 L466.807,140.731 L467.777,140.4 L468.748,140.069 L469.706,139.734 L470.664,139.398 L472.55,138.718 L474.41,138.027 L476.24,137.326 L478.043,136.615 L479.817,135.894 L481.56,135.162 L483.275,134.421 L484.96,133.669 L486.613,132.906 L488.238,132.134 L489.831,131.352 L491.392,130.558 L492.453,129.995 L493.468,129.42 L494.435,128.835 L495.362,128.239 L496.244,127.633 L497.078,127.016 L497.872,126.389 L498.623,125.751 L499.328,125.103 L499.993,124.445 L500.615,123.775 L501.192,123.096 L501.729,122.407 L502.224,121.706 L502.673,120.996 L503.084,120.278 L503.452,119.548 L503.775,118.811 L504.059,118.066 L504.302,117.31 L504.5,116.55 L504.66,115.782 L504.778,115.007 L504.854,114.227 L504.892,113.443 L504.892,112.652 L504.848,111.859 L504.769,111.062 L504.652,110.26 L504.497,109.456 L504.308,108.65 L504.082,107.839 L503.82,107.027 L503.525,106.213 L503.195,105.395 L502.831,104.576 L502.436,103.755 L502.007,102.93 L501.546,102.104 L501.055,101.276 L500.532,100.446 L499.977,99.614 L499.395,98.78 L498.781,97.943 L498.138,97.106 L497.467,96.266 L496.766,95.425 L496.037,94.582 L495.283,93.738 L494.499,92.891 L493.688,92.044 L492.853,91.196 L491.989,90.346 L491.099,89.497 L490.184,88.647 L489.243,87.795 L488.278,86.944 L487.289,86.091 L486.276,85.238 L485.238,84.385 L484.179,83.532 L483.096,82.679 L481.991,81.825 L480.865,80.972 L479.716,80.119 L478.544,79.266 L477.346,78.415 L476.146,77.564 L474.905,76.714 L473.663,75.864 L472.382,75.016 L471.101,74.17 L469.785,73.325 L468.468,72.481 L467.115,71.64 L465.762,70.798 L464.373,69.961 L462.985,69.124 L461.567,68.292 L460.148,67.459 L458.697,66.631 L457.246,65.803 L455.765,64.981 L454.284,64.159 L452.777,63.343 L451.27,62.525 L449.736,61.713 L448.203,60.902 L446.643,60.098 L445.084,59.294 L443.503,58.498 L441.921,57.701 L440.317,56.913 L438.713,56.125 L437.088,55.346 L435.464,54.568 L433.821,53.798 L432.179,53.028 L430.519,52.269 L428.859,51.508 L427.182,50.759 L425.506,50.011 L423.817,49.272 L422.128,48.534 L420.425,47.807 L418.723,47.081 L417.008,46.368 L415.295,45.654 L413.572,44.953 L411.849,44.252 L410.118,43.565 L408.387,42.878 L406.649,42.205 L404.912,41.532 L403.17,40.873 L401.427,40.214 L399.681,39.571 L397.935,38.928 L396.188,38.301 L394.44,37.674 L392.692,37.063 L390.944,36.452 L389.197,35.858 L387.451,35.265 L385.707,34.689 L383.963,34.114 L382.224,33.556 L380.484,32.997 L378.75,32.458 L377.016,31.919 L375.29,31.401 L373.564,30.882 L371.846,30.382 L370.128,29.882 L368.421,29.403 L366.714,28.925 L365.019,28.468 L363.325,28.011 L361.643,27.575 L359.961,27.138 L358.295,26.724 L356.628,26.311 L354.979,25.921 L353.33,25.531 L351.698,25.164 L350.065,24.796 L348.453,24.453 L346.84,24.111 L345.25,23.794 L343.66,23.477 L342.092,23.183 L340.522,22.89 L338.978,22.624 L337.434,22.357 L335.916,22.118 L334.399,21.879 L332.907,21.666 L331.415,21.452 L329.953,21.267 L328.49,21.082 L327.058,20.926 L325.628,20.771 L324.227,20.643 L322.825,20.514 L321.457,20.416 L320.089,20.318 L318.758,20.252 L317.429,20.185 L316.121,20.14 L314.833,20.111 L313.566,20.099 L312.316,20.101 L311.086,20.12 L309.877,20.155 L308.687,20.206 L307.518,20.274 L306.37,20.36 L305.244,20.461 L304.138,20.58 L303.056,20.717 L301.995,20.87 L300.956,21.042 L299.943,21.232 L298.951,21.438 L297.983,21.665 L297.04,21.909 L296.121,22.172 L295.226,22.455 L294.358,22.757 L293.514,23.077 L292.696,23.419 L291.919,23.775 C291.5,23.967 291.316,24.462 291.507,24.881 C291.699,25.299 292.194,25.484 292.613,25.292 L293.365,24.948 L294.131,24.628 L294.928,24.325 L295.751,24.039 L296.601,23.77 L297.479,23.52 L298.382,23.285 L299.311,23.068 L300.266,22.869 L301.246,22.686 L302.25,22.52 L303.28,22.371 L304.332,22.238 L305.407,22.123 L306.507,22.024 L307.628,21.941 L308.771,21.874 L309.937,21.824 L311.123,21.789 L312.33,21.771 L313.559,21.769 L314.806,21.782 L316.073,21.81 L317.358,21.855 L318.674,21.921 L319.988,21.986 L321.338,22.083 L322.688,22.18 L324.074,22.307 L325.461,22.434 L326.878,22.588 L328.294,22.743 L329.743,22.926 L331.192,23.109 L332.67,23.321 L334.15,23.533 L335.656,23.77 L337.161,24.007 L338.693,24.272 L340.226,24.537 L341.784,24.828 L343.343,25.12 L344.923,25.435 L346.503,25.75 L348.105,26.091 L349.707,26.431 L351.33,26.797 L352.953,27.163 L354.593,27.551 L356.234,27.938 L357.891,28.35 L359.549,28.761 L361.222,29.196 L362.896,29.631 L364.582,30.086 L366.269,30.542 L367.968,31.019 L369.666,31.497 L371.376,31.995 L373.086,32.494 L374.805,33.011 L376.523,33.529 L378.249,34.066 L379.975,34.604 L381.708,35.161 L383.44,35.718 L385.177,36.292 L386.913,36.867 L388.653,37.459 L390.392,38.052 L392.132,38.662 L393.873,39.273 L395.614,39.899 L397.354,40.524 L399.093,41.166 L400.831,41.809 L402.566,42.467 L404.301,43.125 L406.032,43.797 L407.762,44.468 L409.486,45.155 L411.209,45.842 L412.924,46.542 L414.64,47.243 L416.346,47.956 L418.052,48.669 L419.747,49.394 L421.442,50.12 L423.123,50.857 L424.805,51.595 L426.473,52.343 L428.141,53.091 L429.793,53.85 L431.445,54.609 L433.078,55.379 L434.712,56.149 L436.328,56.928 L437.944,57.706 L439.538,58.494 L441.133,59.282 L442.705,60.078 L444.277,60.874 L445.827,61.677 L447.376,62.48 L448.9,63.29 L450.423,64.1 L451.92,64.917 L453.415,65.736 L454.884,66.56 L456.352,67.384 L457.789,68.213 L459.227,69.042 L460.632,69.876 L462.037,70.71 L463.412,71.547 L464.786,72.384 L466.124,73.225 L467.463,74.065 L468.764,74.909 L470.065,75.752 L471.331,76.598 L472.597,77.442 L473.822,78.288 L475.048,79.134 L476.231,79.98 L477.416,80.828 L478.568,81.674 L479.7,82.52 L480.808,83.366 L481.896,84.212 L482.96,85.057 L484,85.901 L485.018,86.744 L486.011,87.586 L486.979,88.427 L487.924,89.267 L488.843,90.104 L489.735,90.94 L490.603,91.773 L491.445,92.603 L492.26,93.431 L493.049,94.256 L493.809,95.078 L494.541,95.898 L495.246,96.714 L495.922,97.526 L496.568,98.335 L497.186,99.141 L497.773,99.941 L498.329,100.738 L498.857,101.531 L499.352,102.317 L499.816,103.1 L500.249,103.877 L500.65,104.648 L501.018,105.414 L501.356,106.174 L501.659,106.927 L501.929,107.674 L502.168,108.415 L502.372,109.147 L502.542,109.874 L502.681,110.594 L502.785,111.304 L502.853,112.009 L502.89,112.708 L502.891,113.397 L502.857,114.081 L502.791,114.758 L502.689,115.427 L502.55,116.092 L502.377,116.751 L502.168,117.402 L501.921,118.049 L501.638,118.692 L501.317,119.328 L500.955,119.96 L500.557,120.589 L500.118,121.21 L499.635,121.827 L499.114,122.44 L498.551,123.046 L497.942,123.648 L497.292,124.244 L496.599,124.833 L495.859,125.417 L495.076,125.994 L494.248,126.563 L493.371,127.125 L492.451,127.681 L491.484,128.228 L490.467,128.767 L488.93,129.546 L487.36,130.315 L485.757,131.075 L484.125,131.826 L482.462,132.566 L480.766,133.296 L479.043,134.018 L477.289,134.729 L475.504,135.43 L473.692,136.122 L471.851,136.804 L469.979,137.476 L469.031,137.807 L468.083,138.138 L467.12,138.464 L466.157,138.789 L465.181,139.11 L464.203,139.431 L463.213,139.747 L462.224,140.063 L461.221,140.374 L460.217,140.685 L459.201,140.99 L458.183,141.296 L457.154,141.597 L456.125,141.898 L455.083,142.194 L454.041,142.49 L452.985,142.781 L451.93,143.072 L450.863,143.358 L449.796,143.645 L448.716,143.926 L447.637,144.207 L446.545,144.482 L445.453,144.758 L444.349,145.03 L443.246,145.301 L442.13,145.567 L441.015,145.833 L439.888,146.094 L438.761,146.355 L437.622,146.611 L436.484,146.867 L435.335,147.118 L434.185,147.369 L433.025,147.615 L431.865,147.861 L430.69,148.099 L429.511,148.339 L428.331,148.578 L427.158,148.816 L425.963,149.044 L424.763,149.273 L423.562,149.502 L422.367,149.73 L421.151,149.948 L419.929,150.166 L418.707,150.385 L417.491,150.603 L416.256,150.811 L415.016,151.02 L413.776,151.229 L412.541,151.437 L411.287,151.635 L410.027,151.834 L408.767,152.033 L407.513,152.23 L406.24,152.418 L404.962,152.606 L403.683,152.794 L402.41,152.982 L401.119,153.16 L399.824,153.339 L398.529,153.517 L397.24,153.696 L395.932,153.863 L394.62,154.032 L393.308,154.2 L392.001,154.368 L390.677,154.526 L389.348,154.684 L388.018,154.842 L386.694,154.999 L385.355,155.147 L384.011,155.296 L382.668,155.444 L381.329,155.592 L379.975,155.73 L378.616,155.868 L377.257,156.005 L375.903,156.143 L374.535,156.27 L373.161,156.398 L371.788,156.526 L370.419,156.653 L369.037,156.771 L367.651,156.89 L366.265,157.008 L364.884,157.126 L363.489,157.234 L362.09,157.342 L360.691,157.45 L359.296,157.557 L357.889,157.654 L356.477,157.751 L355.066,157.849 L353.658,157.946 L352.24,158.033 L350.817,158.121 L349.395,158.209 L347.977,158.297 L346.548,158.374 L345.115,158.452 L343.681,158.529 L342.252,158.607 L340.813,158.673 L339.369,158.74 L337.925,158.807 L336.486,158.874 L335.037,158.932 L333.585,158.989 L332.132,159.046 L330.684,159.104 L329.226,159.15 L327.765,159.197 L326.304,159.244 L324.846,159.291 L323.381,159.327 L321.911,159.363 L320.442,159.399 L318.976,159.435 L317.503,159.462 L316.026,159.488 L314.55,159.515 L313.078,159.542 L311.598,159.558 L310.115,159.574 L308.631,159.59 L307.152,159.606 L305.667,159.611 L304.177,159.616 L302.688,159.622 L301.202,159.627 L299.712,159.622 L298.217,159.618 L296.723,159.613 L295.233,159.608 L293.737,159.593 L292.238,159.578 L290.739,159.563 L289.244,159.548 L287.745,159.522 L286.242,159.496 L284.739,159.47 L283.24,159.444 L281.737,159.409 L280.231,159.373 L278.725,159.338 L277.223,159.302 L275.718,159.255 L274.21,159.208 L272.701,159.162 L271.196,159.115 L269.69,159.058 L268.179,159 L266.669,158.943 L265.162,158.886 L263.654,158.819 L262.142,158.752 L260.631,158.684 L259.123,158.618 L257.615,158.54 L256.103,158.462 L254.591,158.384 L253.083,158.306 L251.576,158.217 L250.064,158.128 L248.552,158.039 L247.044,157.95 L245.537,157.852 L244.026,157.753 L242.515,157.654 L241.008,157.556 L239.503,157.446 L237.994,157.337 L236.484,157.227 L234.979,157.118 L233.477,156.998 L231.97,156.878 L230.463,156.757 L228.96,156.637 L227.46,156.508 L225.955,156.378 L224.451,156.248 L222.952,156.118 L221.455,155.978 L219.955,155.837 L218.455,155.696 L216.959,155.556 L215.467,155.405 L213.971,155.253 L212.475,155.101 L210.984,154.95 L209.496,154.789 L208.005,154.628 L206.514,154.467 L205.027,154.306 L203.547,154.135 L202.061,153.963 L200.576,153.791 L199.095,153.62 L197.621,153.438 L196.142,153.255 L194.663,153.073 L193.189,152.891 L191.721,152.699 L190.249,152.506 L188.777,152.314 L187.31,152.122 L185.85,151.919 L184.386,151.716 L182.922,151.513 L181.463,151.311 L180.012,151.098 L178.557,150.885 L177.101,150.671 L175.65,150.459 L174.208,150.236 L172.761,150.013 L171.314,149.79 L169.872,149.567 L168.44,149.334 L167.004,149.1 L165.567,148.865 L164.135,148.632 L162.714,148.388 L161.288,148.143 L159.862,147.898 L158.441,147.654 L157.03,147.4 L155.615,147.146 L154.199,146.891 L152.789,146.637 L151.391,146.373 L149.988,146.107 L148.584,145.842 L147.186,145.577 L145.802,145.302 L144.411,145.025 L143.021,144.749 L141.635,144.474 L140.263,144.188 L138.885,143.902 L137.507,143.616 L136.134,143.331 L134.777,143.035 L133.413,142.738 L132.049,142.441 L130.692,142.145 L129.349,141.838 L128,141.53 L126.651,141.222 L125.308,140.915 L123.98,140.598 L122.646,140.281 L121.311,139.963 L119.983,139.646 L118.672,139.319 L117.354,138.99 L116.036,138.661 L114.725,138.334 L113.431,137.996 L112.13,137.656 L110.829,137.315 L109.535,136.977 L108.257,136.628 L106.972,136.278 L105.688,135.928 L104.411,135.58 L103.152,135.221 L101.886,134.86 L100.62,134.499 L99.361,134.14 L98.122,133.77 L96.876,133.398 L95.629,133.025 L94.388,132.655 L93.16,132.277 L91.931,131.899 L90.712,131.515 L89.493,131.131 L88.285,130.741 L87.076,130.352 L85.877,129.957 L84.678,129.562 L83.49,129.162 L82.302,128.762 L81.125,128.357 L79.948,127.951 L78.78,127.541 L77.614,127.131 L76.458,126.715 L75.302,126.299 L74.158,125.878 L73.014,125.456 L71.88,125.03 L70.747,124.604 L69.625,124.172 L68.503,123.741 L67.394,123.304 L66.284,122.866 L65.185,122.423 L64.087,121.98 L63.001,121.532 L61.916,121.084 L60.842,120.631 L59.769,120.177 L58.707,119.718 L57.645,119.26 L56.596,118.796 L55.548,118.332 L54.512,117.863 L53.476,117.394 L52.452,116.919 L51.429,116.445 L50.419,115.966 L49.409,115.486 L48.412,115.001 L47.415,114.516 L46.431,114.026 L45.447,113.536 L44.478,113.041 L43.508,112.546 L42.553,112.045 L41.597,111.544 L40.654,111.038 L39.711,110.532 L38.784,110.021 L37.856,109.51 L36.943,108.993 L36.029,108.477 L35.129,107.955 L34.229,107.434 L33.345,106.907 L32.461,106.381 L31.591,105.849 L30.722,105.316 L29.866,104.779 L29.011,104.243 L28.171,103.7 L27.334,103.16 L25.684,102.063 L24.065,100.958 L22.478,99.844 L20.924,98.718 L19.4,97.583 L17.91,96.437 L16.453,95.281 L15.026,94.115 L13.635,92.939 L12.28,91.754 L11.516,91.051 L10.757,90.296 L10.003,89.49 L9.259,88.642 L8.534,87.755 L7.83,86.829 L7.152,85.875 L6.506,84.895 L5.897,83.891 L5.327,82.87 L4.804,81.838 L4.333,80.795 L3.913,79.748 L3.555,78.706 L3.26,77.666 L3.029,76.637 L2.87,75.628 L2.786,74.61 L2.772,74.146 L2.777,73.668 L2.803,73.194 L2.847,72.727 L2.911,72.27 L2.998,71.819 L3.103,71.375 L3.23,70.943 L3.38,70.516 L3.551,70.097 L3.744,69.689 L3.96,69.29 L4.631,68.161 L5.341,67.048 L6.092,65.942 L6.879,64.845 L7.706,63.759 L8.573,62.682 L9.476,61.613 L10.418,60.556 L11.399,59.507 L12.415,58.466 L13.468,57.437 L14.559,56.417 L15.685,55.406 L16.847,54.405 L18.045,53.414 L19.277,52.432 L20.543,51.46 L21.846,50.498 L23.18,49.545 L24.547,48.603 L25.95,47.67 L27.382,46.746 L28.848,45.833 L30.346,44.93 L31.874,44.036 L33.433,43.153 L35.024,42.28 L36.643,41.415 L38.292,40.562 L39.972,39.718 L41.679,38.884 L43.415,38.061 L45.18,37.247 L46.97,36.443 L48.79,35.648 L49.711,35.258 L50.634,34.866 L51.57,34.478 L52.505,34.091 L53.453,33.709 L54.402,33.327 L55.363,32.951 L56.325,32.574 L57.299,32.201 L58.272,31.829 L59.258,31.462 L60.244,31.095 L61.242,30.733 L62.241,30.371 L63.251,30.014 L64.26,29.657 L65.282,29.305 L66.303,28.952 L67.337,28.606 L68.37,28.259 L69.415,27.917 L70.459,27.575 L71.514,27.239 L72.569,26.902 L73.636,26.57 L74.7,26.239 L75.78,25.915 L76.866,25.589 L77.952,25.262 L79.028,24.939 L80.126,24.626 L81.233,24.31 L82.339,23.994 L83.437,23.681 L84.555,23.377 L85.682,23.072 L86.809,22.766 L87.927,22.462 L89.064,22.168 L90.208,21.872 L91.352,21.576 L92.488,21.282 L93.642,20.999 L94.805,20.713 L95.967,20.427 L97.121,20.143 L98.293,19.869 L99.473,19.594 L100.653,19.318 L101.826,19.044 L103.014,18.779 L104.208,18.512 L105.403,18.246 L106.59,17.981 L107.794,17.726 L109.004,17.469 L110.215,17.213 L111.418,16.958 L112.636,16.713 L113.861,16.467 L115.087,16.221 L116.306,15.977 L117.538,15.741 L118.776,15.504 L120.014,15.268 L121.245,15.032 L122.49,14.807 L123.741,14.58 L124.993,14.353 L126.237,14.127 L127.494,13.911 L128.758,13.694 L130.022,13.477 L131.279,13.261 L132.547,13.054 L133.821,12.846 L135.095,12.638 L136.363,12.43 L137.641,12.233 L138.925,12.034 L140.21,11.836 L141.488,11.638 L142.776,11.45 L144.07,11.261 L145.365,11.073 L146.653,10.885 L147.95,10.705 L149.252,10.525 L150.555,10.345 L151.851,10.166 L153.155,9.996 L154.466,9.826 L155.776,9.655 L157.08,9.486 L158.392,9.325 L159.71,9.164 L161.027,9.003 L162.339,8.842 L163.657,8.689 L164.98,8.536 L166.303,8.383 L167.621,8.231 L168.943,8.088 L170.272,7.945 L171.601,7.801 L172.924,7.658 L174.252,7.525 L175.585,7.391 L176.918,7.257 L178.246,7.123 L179.578,6.998 L180.915,6.872 L182.251,6.747 L183.582,6.622 L184.916,6.505 L186.256,6.388 L187.596,6.271 L188.93,6.154 L190.266,6.047 L191.608,5.939 L192.949,5.831 L194.286,5.724 L195.624,5.625 L196.966,5.526 L198.309,5.426 L199.647,5.327 L200.984,5.237 L202.328,5.147 L203.671,5.057 L205.009,4.967 L206.346,4.887 L207.689,4.806 L209.031,4.725 L210.369,4.644 L211.706,4.572 L213.047,4.499 L214.389,4.427 L215.725,4.354 L217.059,4.291 L218.398,4.227 L219.738,4.164 L221.072,4.101 L222.403,4.046 L223.739,3.992 L225.075,3.937 L226.407,3.883 L227.735,3.837 L229.067,3.791 L230.4,3.744 L231.728,3.699 L233.051,3.665 L234.379,3.63 L235.707,3.595 L237.03,3.561 L238.347,3.535 L239.67,3.509 L240.992,3.483 L242.31,3.458 L243.621,3.44 L244.938,3.422 L246.255,3.404 L247.566,3.387 L248.87,3.378 L250.179,3.369 L251.489,3.36 L252.793,3.351 L254.088,3.351 L255.39,3.35 L256.691,3.348 L257.987,3.345 L259.275,3.35 L260.568,3.355 L261.861,3.361 L263.149,3.366 L264.426,3.38 L265.709,3.394 L266.993,3.408 L268.27,3.422 L269.537,3.444 L270.81,3.467 L272.082,3.489 L273.349,3.512 L274.606,3.542 L275.868,3.572 L277.13,3.603 L278.387,3.633 L279.63,3.672 L280.88,3.71 L282.13,3.748 L283.374,3.786 L284.604,3.832 L285.841,3.879 L287.077,3.925 L288.308,3.972 L289.526,4.026 L290.75,4.08 L291.974,4.134 L293.191,4.188 L294.394,4.251 L295.603,4.314 L296.811,4.376 L298.014,4.439 L299.2,4.51 L300.393,4.581 L301.587,4.652 L302.774,4.723 L303.945,4.801 L305.123,4.879 L306.301,4.957 L307.473,5.035 L308.626,5.121 L309.787,5.208 L310.947,5.294 L312.101,5.38 L313.236,5.475 L314.378,5.57 L315.52,5.664 L316.656,5.759 L317.774,5.86 L318.899,5.963 L320.023,6.065 L321.141,6.167 L322.238,6.277 L323.343,6.387 L324.447,6.498 L325.545,6.607 L326.62,6.725 L327.704,6.844 L328.788,6.962 L329.867,7.08 L330.93,7.203 L331.995,7.326 L333.049,7.454 L334.103,7.581 L335.146,7.713 L336.189,7.844 L337.221,7.979 L338.253,8.114 L339.273,8.253 L340.293,8.392 L341.302,8.535 L342.31,8.678 L343.308,8.825 L344.305,8.971 L345.289,9.122 L346.272,9.272 L348.218,9.581 L350.139,9.897 L352.033,10.22 L353.901,10.552 L355.744,10.89 L357.559,11.236 L359.347,11.589 L361.108,11.95 L362.84,12.318 L364.544,12.694 L366.221,13.076 L367.866,13.466 L369.482,13.863 L371.069,14.268 L372.624,14.679 L374.147,15.098 L375.641,15.523 L377.101,15.956 L378.529,16.395 L379.926,16.842 L381.287,17.294 L382.615,17.755 L383.91,18.221 L385.169,18.694 L386.392,19.174 L387.582,19.659 L388.733,20.151 L389.848,20.65 L390.928,21.154 L391.968,21.664 L392.97,22.18 L393.936,22.702 L394.86,23.228 L395.761,23.77 C396.537,24.237 397.545,23.987 398.013,23.211 C398.48,22.435 398.23,21.427 397.454,20.96 Z" id="Fill-70"></path>
        </g>
    </g>
</svg>
