<?xml version="1.0" encoding="UTF-8"?>
<svg width="150px" height="147px" viewBox="0 0 150 147" version="1.1" xmlns="http://www.w3.org/2000/svg" xmlns:xlink="http://www.w3.org/1999/xlink">
    <title>9</title>
    <g id="Page-1" stroke="none" stroke-width="1" fill="none" fill-rule="evenodd">
        <g id="9" transform="translate(0.212000, 0.906000)" fill="currentColor">
            <path d="M16.871,108.4 C-39.965,44.65 74.646,-52.588 129.509,39.021 C134.7655,47.798 140.58575,57.582 143.84,67.125 L143.858417,67.1801006 L144.176866,67.6519679 C166.530633,102.865236 94.3809983,191.591353 19.3456177,111.114671 Z M107.778417,103.574101 L108.464,104.751 L109.388,106.428 L110.28,108.135 L110.318,108.217 L110.168,108.042 L109.739,107.706 L108.873,107.393 L107.738,107.459 L106.994,107.816 L106.654,108.126 L106.538,108.28 L106.551,108.258 L106.62,108.115 L106.715,107.876 L106.829,107.547 L106.952,107.152 L107.079,106.7 L107.211,106.193 L107.344,105.644 L107.477,105.057 L107.606,104.443 L107.778417,103.574101 Z M136.028,59.757 L142.775,93.783 C147.68235,86.12626 147.119502,77.0394844 144.032151,67.6972808 L143.858417,67.1801006 L143.40557,66.5107729 C141.52543,63.8945985 139.08014,61.60955 136.028,59.757 Z M81.848,33.414 L81.221,33.474 L80.619,33.594 L80.076,33.751 L79.57,33.939 L79.082,34.158 L78.63,34.394 L78.195,34.648 L77.765,34.925 L77.409,35.171 C75.493,36.592 75.091,39.296 76.512,41.212 C77.3995,42.408875 78.7885625,43.0147344 80.1733281,42.9541387 L80.3064175,42.9441006 L80.286,43.342 L80.231,44.079 L80.17,44.86 L80.095,45.686 L80.003,46.543 L79.895,47.429 L79.766,48.323 L79.422,50.221 L79.232,51.164 L79.05,52.126 L78.87,53.095 L78.707,54.074 L78.554,55.047 L78.407,56.017 L78.06,57.918 L77.641,59.721 L77.417,60.572 L77.243,61.41 L77.177,62.244 L77.026,63.016 L76.836,63.731 L76.64,64.395 L76.447,65.01 L76.26,65.567 L76.086,66.063 L75.928,66.501 L75.792,66.868 L75.674,67.176 C75.191,68.553 75.914,70.061 77.29,70.544 C78.667,71.028 80.175,70.305 80.658,68.928 L80.77,68.581 L80.903,68.156 L81.048,67.671 L81.205,67.133 L81.378,66.539 L81.572,65.896 L81.783,65.211 L82.021,64.482 L82.314,63.726 L82.707,62.958 L83.002,62.124 L83.256,61.238 L83.806,59.421 L84.43,57.53 L84.756,56.551 L85.075,55.575 L85.364,54.582 L85.635,53.578 L85.871,52.571 L86.098,51.545 L86.494,49.575 L86.696,48.574 L86.888,47.604 L87.062,46.653 L87.217,45.717 L87.347,44.798 L87.438,43.904 L87.505,43.029 L87.548,42.174 L87.663,41.345 L87.773,40.52 L87.8,39.689 L87.742,38.865 L87.597,38.019 L87.319,37.121 L86.883,36.201 L86.211,35.253 L85.187,34.346 L84.166,33.8 L83.228,33.518 L82.513,33.422 L81.848,33.414 Z M61.4804175,54.0991006 L61.281,54.965 L61.022,56.237 L60.682,57.467 L60.349,58.662 L60.057,59.822 L59.926,60.369 L59.802,60.904 L59.691,61.42 L59.589,61.913 L59.5,62.38 L59.422,62.819 L59.356,63.228 L59.305,63.599 L59.264,63.931 L59.234,64.219 L59.217,64.451 L59.2154175,64.4871006 L59.211,64.406 L59.181,64.204 L58.592,63.009 L58.6064175,63.0241006 L58.53,62.932 L58.333,62.723 L58.093,62.515 L57.811,62.318 L57.491,62.145 L57.142,62.006 L56.778,61.911 L56.416,61.861 L56.2644175,61.8511006 L54.481,62.354 L54.128,62.628 L53.823,62.948 L53.758,63.021 L53.781,62.956 L53.853,62.786 L53.935,62.577 L53.986,62.405 L54.042,62.164 L54.112,61.796 L54.184,61.336 L54.249,60.795 L54.318,60.176 L54.381,59.496 L54.436,58.759 L54.49,57.968 L54.4904175,57.9561006 L54.392,58.293 L54.222,58.886 L54.063,59.455 L53.91,60.005 L53.765,60.536 L53.627,61.046 L53.499,61.533 L53.38,61.998 L53.27,62.441 L53.173,62.859 L53.088,63.257 L53.016,63.639 L52.959,64.007 L52.918,64.382 L52.902,64.808 L52.94,65.349 L53.02,65.754 L53.609,66.949 L53.615,66.957 L53.622,66.966 L53.718,67.085 L53.926,67.305 L54.177,67.523 L54.471,67.728 L54.804,67.908 L55.166,68.052 L55.543,68.151 L55.919,68.203 L56.106,68.212 L56.117,68.213 L56.131,68.214 L57.919,67.711 L58.418,67.343 L58.905,66.818 L59.188,66.426 L59.415,66.064 L59.632,65.684 L59.877,65.215 L60.145,64.609 L60.378,63.928 L60.569,63.239 L60.735,62.527 L60.881,61.777 L60.999,60.993 L61.104,60.177 L61.194,59.322 L61.266,58.434 L61.329,57.519 L61.382,56.572 L61.428,55.588 L61.4804175,54.0991006 Z M58.28,28.1 L56.505,28.878 L55.305,30.159 L54.829,31.102 L54.585,31.848 L54.433,32.528 L54.331,33.175 L54.256,33.829 L54.207,34.516 L54.176,35.232 L54.159,35.982 L54.153,36.773 L54.156,37.599 L54.185,38.458 L54.235,39.353 L54.313,40.276 L54.427,41.225 L54.544,42.198 L54.555,43.193 L54.56,44.208 L54.564,45.222 L54.57,46.261 L54.585,47.295 L54.603,48.337 L54.622,49.375 L54.635,50.407 L54.649,51.433 L54.654,52.437 L54.655,53.428 L54.609,55.358 L54.577,56.259 L54.538,57.134 L54.4904175,57.9561006 L54.744,57.093 L55.114,55.834 L55.527,54.554 L56.059,53.295 L56.593,52.032 L57.073,50.769 L57.528,49.523 L57.988,48.321 L58.443,47.177 L58.9,46.096 L59.37,45.092 L59.815,44.25 C60.20868,43.53376 60.8855408,43.0724768 61.6295747,42.9286697 L61.7624175,42.9061006 L61.777,42.242 L61.908,41.293 L62.042,40.375 L62.147,39.492 L62.232,38.652 L62.308,37.859 L62.3124175,37.7971006 L62.4934921,37.6957686 C64.3026281,36.6208926 65.0998182,34.3534545 64.278,32.348 L64.135,32.019 L63.971,31.662 L63.803,31.32 L63.623,30.98 L63.42,30.63 L63.191,30.277 L62.912,29.9 L62.535,29.473 L62.032,29.021 L61.308,28.548 L60.225,28.136 L58.28,28.1 Z M61.78996,42.902736 L61.7624175,42.9061006 L61.756,43.22 L61.745,44.229 L61.735,45.241 L61.724,46.278 L61.705,47.321 L61.675,48.372 L61.646,49.427 L61.612,50.475 L61.579,51.529 L61.538,52.561 L61.499,53.606 L61.4804175,54.0991006 L61.573,53.704 L61.947,52.486 L62.363,51.321 L62.784,50.22 L63.215,49.205 L63.639,48.287 L64.04,47.499 L64.445,46.795 C65.148,45.516 64.681,43.91 63.403,43.208 C62.8914,42.9268 62.32748,42.83264 61.78996,42.902736 Z M79.9754175,40.7441006 L80.053,40.859 L80.575,41.331 L81.015,41.598 L81.635,41.796 L82.011,41.85 L82.317,41.858 L82.565,41.838 L82.767,41.804 L82.887,41.777 L82.95,41.762 L82.971,41.763 L82.935,41.795 L82.859,41.855 L82.755,41.941 L82.552,42.109 C81.893375,42.597125 81.1416367,42.8699551 80.3809475,42.9400415 L80.3064175,42.9441006 L80.323,42.654 L80.335,42.029 L80.223,41.469 L80.065,40.992 L79.9754175,40.7441006 Z M62.7374175,34.2301006 L62.693,34.44 L62.633,34.802 L62.566,35.261 L62.498,35.811 L62.431,36.43 L62.368,37.114 L62.3124175,37.7971006 C62.246697,37.8323523 62.1830643,37.8640986 62.1183522,37.894412 L61.921,37.981 C59.715,38.886 57.192,37.831 56.288,35.625 L56.195,35.38 L56.132,35.22 L56.083,35.102 L56.054,35.032 L56.093,35.076 L56.188,35.198 L56.388,35.422 L56.723,35.721 L57.285,36.086 L58.214,36.437 L60.012,36.46 L61.513,35.783 L62.466,34.779 L62.722,34.283 L62.7374175,34.2301006 Z M113.098417,93.5861006 L113.482,93.998 L113.744,94.184 L113.887,94.26 L113.928417,94.2771006 L114.062,94.288 L114.247,94.283 L114.453,94.255 L114.515417,94.2381006 L114.471417,94.4171006 L114.522417,94.2361006 L114.668,94.2 L114.881,94.119 L115.08,94.015 L115.256,93.896 L115.402,93.771 L115.518,93.65 L115.606,93.54 L115.669,93.447 L115.711,93.374 L115.737,93.322 L115.75,93.292 L115.736,93.344 L115.702,93.452 L115.671,93.554 L115.642,93.648 L115.615,93.735 L115.591,93.815 L115.569,93.887 L115.549,93.953 L115.531,94.011 L115.516,94.062 L115.503,94.105 L115.491,94.141 L115.483,94.17 L115.476,94.192 L115.472,94.207 L114.949,95.93 L114.803,97.138 L114.602,98.544 L114.353,99.94 L114.103,101.315 L113.845,102.756 L113.58,104.199 L113.313,105.583 L113.173,106.268 L113.036,106.925 L112.894,107.557 L112.748,108.167 L112.594,108.755 L112.432,109.315 L112.256,109.855 L112.210417,109.973101 L112.28316,110.042376 C112.709006,110.425624 113.262,110.673808 113.878,110.714 C115.333,110.808 116.59,109.704 116.685,108.248 L116.712,107.821 L116.757,107.35 L116.821,106.796 L116.9,106.18 L116.991,105.509 L117.09,104.791 L117.307,103.242 L117.535,101.594 L117.75,99.911 L117.85,99.052 L117.937,98.207 L118.012,97.375 L118.074,96.557 L118.117,95.757 L118.136,94.982 L118.133,94.229 L118.098,93.492 L118.022,92.78 L117.892,92.069 L117.732,91.509 L117.586,91.131 L117.571,91.099 L117.561,91.078 L117.549,91.052 L117.534,91.02 L117.517,90.983 L117.258,90.54 L116.772,90.023 L116.385,89.751 L116.075,89.587 L115.808,89.473 L115.706417,89.4361006 L115.718,89.393 L115.711417,89.3911006 L115.7,89.388 L115.683,89.383 L115.659,89.377 L115.63,89.369 L115.594,89.36 L115.553,89.35 L115.506,89.337 L115.453,89.324 L115.393,89.308 L115.329,89.291 L115.258,89.273 L115.181,89.253 L115.099,89.232 L115.01,89.208 L114.815,89.161 L114.651417,89.1341006 L114.201,89.025 L114.185417,89.0861006 L114.209417,89.0881006 L113.598417,91.5171006 L114.185417,89.0861006 L114.167,89.086 L113.813,89.096 L113.446,89.146 L113.077,89.241 L112.716,89.379 L112.377,89.557 L112.068,89.768 L111.795,90.002 L111.559,90.249 L111.359,90.503 L111.191,90.756 L111.051,91.008 L110.934,91.255 L110.836,91.498 L110.774,91.676 L110.735,91.783 L110.698,91.883 L110.664,91.975 L110.633,92.06 L110.604,92.139 L110.578,92.21 L110.554,92.274 L110.533,92.331 L110.515,92.381 L110.499,92.424 L110.486,92.459 L110.476,92.487 L110.468,92.509 L110.463,92.523 L109.744,94.494 L109.344,96.068 L109,97.446 L108.703,98.832 L108.407,100.24 L108.137,101.706 L107.872,103.109 L107.778417,103.574101 L107.533,103.153 L106.593,101.622 L105.639,100.163 L104.673,98.782 L103.696,97.466 L102.701,96.218 L101.694,95.044 L100.673,93.936 L99.634,92.893 L98.586,91.92 L97.527,91.007 L96.449,90.158 L95.363,89.38 L94.268,88.66 L93.157,87.999 L92.045,87.402 L90.925,86.864 L89.793,86.382 L88.663,85.961 L87.532,85.591 L86.392,85.274 L85.259,85.011 L84.127,84.796 L82.991,84.628 L81.865,84.509 L80.744,84.43 L79.622,84.395 L78.512,84.399 L77.408,84.439 L76.307,84.513 L75.217,84.617 L74.136,84.751 L73.058,84.913 L71.974,85.106 L70.94,85.324 L69.888,85.548 L68.844,85.815 L67.812,86.081 L66.788,86.384 L65.779,86.683 L64.78,87.009 L63.771,87.338 L61.828,88.026 L59.917,88.743 L58.054,89.479 L56.238,90.213 L54.475,90.93 L52.763,91.617 L51.113,92.258 L49.493,92.816 L48.73,93.036 L47.971,93.243 L47.23,93.429 L46.512,93.595 L45.822,93.736 L45.155,93.858 L44.517,93.968 L43.913,94.051 L43.334,94.108 L42.786,94.145 L42.279,94.157 L41.797,94.144 L41.347,94.11 L40.942,94.058 L40.557,93.985 L40.199,93.895 L39.88,93.788 L39.569,93.657 L39.273,93.508 L38.999,93.342 L38.718,93.138 L38.436,92.905 L38.161,92.641 L37.871,92.32 L37.576,91.949 L37.282,91.531 L36.977,91.039 L36.669,90.485 L36.368,89.866 L36.068,89.164 L35.773,88.391 L35.49,87.547 L35.216,86.615 L34.954,85.609 L34.708,84.526 L34.466,83.3 C33.981,80.966 31.695,79.466 29.36,79.952 C27.025,80.437 25.526,82.723 26.011,85.058 L26.303,86.397 L26.632,87.729 L26.988,88.991 L27.369,90.198 L27.782,91.353 L28.223,92.444 L28.694,93.485 L29.204,94.48 L29.746,95.413 L30.323,96.298 L30.95,97.137 L31.612,97.908 L32.312,98.625 L33.062,99.291 L33.839,99.882 L34.648,100.41 L35.498,100.875 L36.358,101.263 L37.233,101.584 L38.132,101.841 L39.023,102.029 L39.914,102.159 L40.814,102.231 L41.699,102.246 L42.578,102.217 L43.46,102.143 L44.327,102.03 L45.188,101.88 L46.051,101.696 L46.904,101.485 L47.752,101.239 L48.601,100.963 L49.444,100.667 L50.287,100.353 L51.134,100.021 L51.997,99.667 L53.69,98.993 L55.431,98.301 L57.187,97.584 L58.954,96.853 L60.734,96.12 L62.526,95.397 L64.322,94.687 L66.136,94.007 L67.028,93.697 L67.93,93.384 L68.84,93.096 L69.737,92.812 L70.642,92.561 L71.536,92.312 L72.437,92.104 L73.356,91.891 L74.235,91.718 L75.124,91.567 L76.016,91.442 L76.904,91.342 L77.784,91.274 L78.666,91.238 L79.544,91.229 L80.412,91.252 L81.282,91.309 L82.148,91.397 L83.005,91.518 L83.866,91.678 L84.725,91.873 L85.576,92.105 L86.433,92.38 L87.289,92.695 L88.14,93.052 L88.999,93.458 L89.861,93.906 L90.72,94.402 L91.589,94.955 L92.461,95.559 L93.335,96.214 L94.219,96.933 L95.108,97.709 L95.996,98.548 L96.893,99.458 L97.796,100.43 L98.699,101.47 L99.608,102.589 L100.519,103.779 L101.429,105.045 L102.34,106.395 L103.248,107.824 L104.149,109.336 L105.065,110.986 L105.399,111.536 L105.911,112.165 L106.692,112.784 L107.901,113.231 L109.371,113.145 L110.442,112.618 L111.103,112.013 L111.531,111.43 L111.824,110.899 L112.056,110.384 L112.210417,109.973101 L112.17022,109.93456 C111.694895,109.45332 111.4053,108.792696 111.407311,108.073062 L111.413,107.906 L111.446,107.394 L111.503,106.793 L111.577,106.156 L111.663,105.483 L111.762,104.772 L111.874,104.029 L112.113,102.483 L112.358,100.87 L112.589,99.238 L112.692,98.451 L112.783,97.674 L112.86,96.923 L112.92,96.205 L112.961,95.533 L112.982,94.913 L112.982,94.355 L112.965417,94.0391006 L113.908417,94.2761006 L113.915417,94.2761006 L113.883,94.267 L113.787,94.241 L113.628,94.202 L113.462,94.161 L113.32,94.127 L113.202,94.098 L113.107,94.074 L113.036,94.057 L112.988,94.045 L113.098417,93.5861006 L113.082417,93.5691006 L113.559417,91.6751006 L113.098417,93.5861006 Z" id="Combined-Shape"></path>
            <path d="M144.359,94.746 L144.98,93.72 L145.564,92.635 L146.082,91.538 L146.544,90.426 L146.947,89.296 L147.29,88.158 L147.58,87.009 L147.816,85.845 L147.996,84.676 L148.129,83.5 L148.211,82.313 L148.244,81.122 L148.234,79.926 L148.178,78.722 L148.079,77.517 L147.942,76.307 L147.764,75.092 L147.548,73.876 L147.299,72.658 L147.014,71.435 L146.696,70.212 L146.349,68.989 L145.971,67.762 L145.564,66.537 L145.132,65.312 L144.674,64.085 L144.192,62.861 L143.689,61.637 L143.163,60.414 L142.616,59.189 L142.048,57.978 L141.478,56.762 L140.875,55.55 L140.272,54.342 L139.642,53.14 L139.015,51.941 L138.367,50.75 L137.72,49.56 L137.056,48.38 L136.394,47.203 L135.722,46.039 L135.051,44.878 L134.376,43.73 L133.701,42.583 L133.028,41.454 L132.355,40.327 L131.69,39.219 L131.022,38.107 L130.147,36.676 L129.258,35.27 L128.36,33.895 L127.453,32.55 L126.535,31.234 L125.608,29.95 L124.672,28.695 L123.726,27.469 L122.771,26.274 L121.809,25.107 L120.838,23.968 L119.859,22.861 L118.872,21.781 L117.876,20.729 L116.873,19.708 L115.864,18.713 L114.847,17.746 L113.823,16.808 L112.793,15.897 L111.754,15.016 L110.709,14.163 L109.66,13.336 L108.603,12.536 L107.541,11.765 L106.475,11.018 L105.403,10.298 L104.326,9.606 L103.246,8.939 L102.16,8.297 L101.07,7.683 L99.977,7.093 L98.88,6.528 L97.779,5.99 L96.675,5.476 L95.57,4.982 L94.463,4.512 L93.353,4.065 L92.239,3.644 L91.124,3.247 L90.007,2.873 L88.886,2.523 L87.765,2.198 L86.643,1.894 L85.517,1.615 L84.392,1.359 L83.267,1.124 L82.139,0.913 L81.005,0.724 L79.885,0.569 L78.757,0.412 L77.628,0.301 L76.5,0.189 L75.372,0.122 L74.248,0.055 L73.126,0.027 L72.001,0 L70.878,0.015 L69.756,0.031 L68.638,0.087 L67.522,0.145 L66.411,0.239 L65.297,0.333 L64.188,0.468 L63.08,0.603 L61.978,0.777 L60.879,0.951 L59.786,1.16 L58.69,1.369 L57.603,1.616 L56.516,1.864 L55.438,2.149 L54.362,2.433 L53.295,2.75 L52.226,3.067 L51.167,3.42 L50.109,3.773 L49.061,4.16 L48.016,4.547 L46.982,4.964 L45.945,5.381 L44.922,5.832 L43.899,6.283 L42.889,6.765 L41.882,7.247 L40.887,7.757 L39.891,8.269 L38.91,8.81 L37.929,9.352 L36.964,9.923 L36.001,10.493 L35.053,11.089 L34.104,11.686 L33.172,12.312 L32.24,12.937 L31.327,13.59 L30.416,14.241 L29.521,14.917 L28.626,15.594 L27.75,16.296 L26.874,16.999 L26.019,17.726 L25.166,18.452 L24.332,19.2 L23.497,19.949 L22.684,20.722 L21.872,21.495 L21.082,22.29 L20.295,23.084 L19.528,23.897 L18.761,24.713 L18.018,25.549 L17.275,26.385 L16.558,27.242 L15.842,28.097 L15.15,28.969 L14.457,29.844 L13.791,30.736 L13.126,31.63 L12.488,32.541 L11.851,33.45 L11.241,34.375 L10.629,35.302 L10.047,36.245 L9.465,37.188 L8.913,38.146 L8.362,39.103 L7.839,40.074 L7.316,41.046 L6.825,42.033 L6.333,43.02 L5.875,44.019 L5.418,45.018 L4.991,46.027 L4.564,47.039 L4.172,48.063 L3.779,49.087 L3.422,50.122 L3.065,51.155 L2.742,52.197 L2.418,53.241 L2.131,54.295 L1.845,55.35 L1.596,56.412 L1.348,57.473 L1.135,58.541 L0.923,59.611 L0.749,60.689 L0.576,61.767 L0.443,62.85 L0.311,63.932 L0.216,65.018 L0.122,66.108 L0.07,67.202 L0.018,68.296 L0.008,69.394 L0,70.489 L0.031,71.587 L0.062,72.688 L0.138,73.791 L0.215,74.894 L0.337,75.998 L0.459,77.1 L0.623,78.202 L0.788,79.307 L1,80.412 L1.212,81.516 L1.472,82.619 L1.731,83.713 L2.027,84.82 L2.346,85.92 L2.69,87.018 L3.057,88.114 L3.449,89.209 L3.866,90.301 L4.307,91.39 L4.774,92.478 L5.267,93.562 L5.784,94.643 L6.328,95.722 L6.897,96.796 L7.492,97.867 L8.113,98.935 L8.762,99.998 L9.435,101.056 L10.137,102.111 L10.866,103.16 L11.621,104.204 L12.404,105.244 L13.214,106.278 L14.051,107.306 L14.917,108.329 L15.81,109.346 L17.113,110.786 L18.415,112.192 L19.717,113.563 L21.019,114.903 L22.32,116.21 L23.621,117.483 L24.922,118.725 L26.221,119.934 L27.52,121.111 L28.817,122.257 L30.114,123.372 L31.409,124.455 L32.703,125.508 L33.996,126.53 L35.286,127.521 L36.575,128.483 L37.863,129.415 L39.148,130.316 L40.432,131.19 L41.714,132.034 L42.993,132.848 L44.269,133.635 L45.544,134.393 L46.816,135.122 L48.085,135.824 L49.353,136.498 L50.616,137.144 L51.877,137.764 L53.136,138.357 L54.39,138.922 L55.641,139.462 L56.89,139.976 L58.134,140.463 L59.374,140.926 L60.612,141.362 L61.845,141.772 L63.074,142.159 L64.3,142.521 L65.521,142.857 L66.737,143.171 L67.951,143.46 L69.158,143.724 L70.361,143.966 L71.561,144.184 L72.754,144.378 L73.943,144.551 L75.127,144.701 L76.31,144.828 L77.474,144.924 L78.646,145.019 L79.806,145.071 L80.966,145.122 L82.114,145.129 L83.26,145.137 L84.395,145.106 L85.532,145.075 L86.656,145.002 L87.78,144.93 L88.891,144.817 L89.999,144.704 L91.095,144.555 L92.192,144.407 L93.276,144.22 L94.36,144.034 L95.429,143.81 L96.495,143.587 L97.549,143.331 L98.603,143.075 L99.643,142.783 L100.682,142.492 L101.705,142.166 L102.726,141.841 L103.733,141.487 L104.74,141.131 L105.732,140.744 L106.722,140.356 L107.696,139.938 L108.668,139.521 L109.623,139.076 L110.58,138.631 L111.519,138.157 L112.456,137.681 L113.376,137.178 L114.293,136.676 L115.193,136.149 L116.095,135.622 L116.977,135.07 L117.858,134.517 L118.72,133.94 L119.58,133.364 L120.419,132.763 L121.259,132.161 L122.079,131.537 L122.897,130.913 L123.695,130.268 L124.491,129.624 L125.268,128.961 L126.045,128.298 L126.801,127.616 L127.561,126.931 L129.026,125.541 L130.453,124.116 L131.835,122.659 L133.168,121.172 L134.458,119.661 L135.702,118.125 L136.895,116.566 L138.042,114.988 L139.138,113.388 L140.182,111.773 L141.179,110.144 L142.123,108.5 L143.011,106.845 L143.849,105.182 L144.63,103.509 L145.354,101.832 L146.025,100.152 L146.637,98.469 L147.188,96.787 L147.684,95.107 L148.12,93.43 L148.492,91.761 L148.806,90.099 L149.056,88.445 L149.24,86.805 L149.363,85.178 L149.418,83.565 L149.405,81.972 L149.328,80.398 L149.18,78.843 L148.96,77.315 L148.673,75.811 L148.31,74.333 L147.873,72.89 L147.366,71.476 L146.781,70.096 L146.117,68.757 L145.382,67.456 L144.564,66.196 L143.667,64.985 L142.695,63.818 L141.639,62.701 L140.515,61.65 L139.907,61.128 L139.288,60.63 L138.651,60.148 L137.994,59.68 L137.315,59.225 L136.629,58.796 C136.098,58.464 135.399,58.625 135.067,59.156 C134.735,59.687 134.896,60.386 135.427,60.718 L136.085,61.129 L136.708,61.544 L137.312,61.974 L137.898,62.415 L138.463,62.869 L138.998,63.325 L140.049,64.303 L141.009,65.316 L141.896,66.378 L142.716,67.48 L143.46,68.623 L144.134,69.811 L144.743,71.034 L145.28,72.294 L145.748,73.594 L146.154,74.925 L146.49,76.288 L146.759,77.685 L146.966,79.109 L147.107,80.559 L147.182,82.037 L147.197,83.537 L147.146,85.057 L147.031,86.599 L146.858,88.156 L146.622,89.728 L146.323,91.315 L145.969,92.911 L145.553,94.516 L145.076,96.128 L144.546,97.745 L143.957,99.363 L143.309,100.983 L142.61,102.601 L141.856,104.214 L141.045,105.822 L140.185,107.423 L139.272,109.012 L138.305,110.59 L137.29,112.154 L136.223,113.7 L135.106,115.228 L133.944,116.737 L132.734,118.222 L131.475,119.681 L130.171,121.115 L128.823,122.518 L127.43,123.89 L125.992,125.236 L125.257,125.883 L124.517,126.533 L123.756,127.164 L122.994,127.796 L122.214,128.41 L121.434,129.023 L120.635,129.615 L119.836,130.207 L119.016,130.777 L118.196,131.347 L117.361,131.901 L116.528,132.454 L115.675,132.983 L114.823,133.512 L113.952,134.016 L113.08,134.522 L112.191,135.003 L111.304,135.484 L110.4,135.938 L109.496,136.392 L108.574,136.82 L107.652,137.248 L106.714,137.651 L105.778,138.052 L104.826,138.424 L103.873,138.796 L102.905,139.136 L101.935,139.478 L100.95,139.79 L99.968,140.102 L98.97,140.381 L97.973,140.66 L96.96,140.906 L95.946,141.152 L94.918,141.366 L93.893,141.579 L92.854,141.757 L91.815,141.935 L90.761,142.075 L89.706,142.216 L88.639,142.322 L87.575,142.428 L86.497,142.495 L85.419,142.563 L84.329,142.59 L83.237,142.617 L82.134,142.607 L81.033,142.598 L79.92,142.546 L78.808,142.495 L77.684,142.4 L76.552,142.305 L75.425,142.181 L74.288,142.035 L73.144,141.866 L71.996,141.676 L70.844,141.463 L69.686,141.226 L68.524,140.968 L67.357,140.686 L66.185,140.38 L65.009,140.052 L63.829,139.7 L62.643,139.322 L61.454,138.921 L60.261,138.495 L59.064,138.043 L57.862,137.567 L56.658,137.066 L55.448,136.538 L54.236,135.984 L53.021,135.404 L51.801,134.797 L50.578,134.164 L49.353,133.504 L48.123,132.815 L46.891,132.1 L45.656,131.357 L44.418,130.585 L43.177,129.786 L41.934,128.959 L40.687,128.101 L39.439,127.216 L38.188,126.301 L36.935,125.355 L35.679,124.381 L34.423,123.376 L33.163,122.339 L31.902,121.274 L30.639,120.178 L29.374,119.049 L28.108,117.89 L26.84,116.699 L25.571,115.475 L24.3,114.221 L23.029,112.934 L21.756,111.613 L20.481,110.261 L19.207,108.876 L17.932,107.455 L17.075,106.474 L16.248,105.49 L15.448,104.499 L14.674,103.505 L13.928,102.508 L13.209,101.505 L12.515,100.499 L11.848,99.49 L11.207,98.478 L10.59,97.462 L10,96.444 L9.436,95.422 L8.895,94.397 L8.38,93.371 L7.89,92.342 L7.423,91.31 L6.982,90.277 L6.565,89.241 L6.17,88.204 L5.8,87.166 L5.454,86.125 L5.129,85.083 L4.829,84.042 L4.553,83.004 L4.306,81.951 L4.059,80.907 L3.86,79.863 L3.66,78.818 L3.505,77.774 L3.349,76.726 L3.234,75.679 L3.119,74.634 L3.048,73.59 L2.976,72.547 L2.947,71.505 L2.918,70.46 L2.927,69.418 L2.935,68.378 L2.986,67.342 L3.036,66.305 L3.126,65.272 L3.217,64.237 L3.344,63.206 L3.47,62.177 L3.635,61.154 L3.8,60.13 L4.004,59.113 L4.207,58.093 L4.445,57.079 L4.682,56.068 L4.955,55.064 L5.229,54.06 L5.538,53.065 L5.849,52.067 L6.191,51.078 L6.532,50.09 L6.908,49.113 L7.283,48.135 L7.692,47.169 L8.102,46.2 L8.542,45.242 L8.98,44.285 L9.451,43.341 L9.922,42.397 L10.424,41.466 L10.927,40.533 L11.457,39.612 L11.987,38.693 L12.546,37.789 L13.105,36.885 L13.694,35.997 L14.284,35.107 L14.899,34.232 L15.513,33.358 L16.154,32.502 L16.796,31.645 L17.463,30.807 L18.132,29.966 L18.824,29.143 L19.515,28.321 L20.231,27.519 L20.947,26.716 L21.687,25.935 L22.428,25.151 L23.19,24.387 L23.951,23.623 L24.734,22.882 L25.517,22.141 L26.322,21.422 L27.128,20.702 L27.953,20.003 L28.776,19.306 L29.62,18.633 L30.463,17.959 L31.326,17.311 L32.19,16.661 L33.07,16.035 L33.949,15.409 L34.846,14.811 L35.742,14.212 L36.655,13.641 L37.569,13.068 L38.498,12.521 L39.425,11.975 L40.368,11.458 L41.31,10.94 L42.266,10.453 L43.224,9.964 L44.194,9.503 L45.162,9.042 L46.143,8.613 L47.124,8.184 L48.116,7.786 L49.11,7.388 L50.115,7.019 L51.116,6.651 L52.129,6.317 L53.141,5.982 L54.162,5.681 L55.185,5.38 L56.216,5.11 L57.245,4.841 L58.281,4.607 L59.317,4.372 L60.36,4.174 L61.405,3.975 L62.456,3.81 L63.504,3.645 L64.558,3.518 L65.611,3.391 L66.669,3.302 L67.729,3.213 L68.793,3.16 L69.854,3.106 L70.919,3.093 L71.983,3.079 L73.049,3.106 L74.118,3.133 L75.188,3.198 L76.256,3.262 L77.324,3.368 L78.392,3.474 L79.46,3.624 L80.538,3.774 L81.6,3.952 L82.667,4.152 L83.735,4.375 L84.801,4.619 L85.866,4.884 L86.93,5.173 L87.993,5.482 L89.054,5.815 L90.113,6.171 L91.171,6.548 L92.226,6.949 L93.279,7.374 L94.33,7.821 L95.376,8.292 L96.419,8.795 L97.458,9.319 L98.493,9.868 L99.525,10.443 L100.553,11.04 L101.577,11.662 L102.597,12.311 L103.613,12.984 L104.624,13.681 L105.631,14.406 L106.633,15.156 L107.629,15.931 L108.621,16.733 L109.607,17.561 L110.587,18.415 L111.564,19.296 L112.536,20.201 L113.5,21.134 L114.46,22.096 L115.413,23.084 L116.358,24.099 L117.298,25.145 L118.231,26.216 L119.157,27.316 L120.076,28.446 L120.988,29.604 L121.891,30.79 L122.787,32.008 L123.676,33.253 L124.556,34.527 L125.428,35.833 L126.293,37.167 L127.147,38.531 L127.996,39.934 L128.652,41.036 L129.309,42.141 L129.974,43.267 L130.638,44.389 L131.302,45.529 L131.965,46.668 L132.624,47.82 L133.282,48.969 L133.929,50.131 L134.576,51.291 L135.206,52.461 L135.836,53.63 L136.446,54.806 L137.055,55.979 L137.637,57.157 L138.218,58.333 L138.767,59.511 L139.318,60.694 L139.839,61.866 L140.34,63.041 L140.819,64.214 L141.277,65.384 L141.709,66.55 L142.116,67.712 L142.497,68.87 L142.85,70.021 L143.172,71.167 L143.465,72.306 L143.726,73.436 L143.953,74.559 L144.148,75.673 L144.307,76.775 L144.428,77.87 L144.515,78.954 L144.562,80.023 L144.568,81.083 L144.537,82.131 L144.463,83.163 L144.345,84.185 L144.187,85.195 L143.985,86.187 L143.734,87.169 L143.439,88.139 L143.097,89.091 L142.703,90.034 L142.261,90.964 L141.767,91.878 L141.192,92.82 C140.66,93.695 140.938,94.835 141.812,95.367 C142.687,95.898 143.827,95.621 144.359,94.746 Z" id="Fill-582"></path>
        </g>
    </g>
</svg>
