<?xml version="1.0" encoding="UTF-8"?><svg version="1.1" width="32px" height="32px" viewBox="0 0 32.0 32.0" xmlns="http://www.w3.org/2000/svg" xmlns:xlink="http://www.w3.org/1999/xlink"><defs><clipPath id="i0"><path d="M32,29.3333333 L32,32 L0,32 L0,29.3333333 L32,29.3333333 Z M20.9777778,22 L20.9777778,24.6666667 L0,24.6666667 L0,22 L20.9777778,22 Z M32,14.6666667 L32,17.3333333 L0,17.3333333 L0,14.6666667 L32,14.6666667 Z M20.9777778,7.33333333 L20.9777778,10 L0,10 L0,7.33333333 L20.9777778,7.33333333 Z M32,0 L32,2.66666667 L0,2.66666667 L0,0 L32,0 Z"></path></clipPath></defs><g clip-path="url(#i0)"><polygon points="0,0 32,0 32,32 0,32 0,0" stroke="none" fill="#000000"></polygon></g></svg>