<?xml version="1.0" encoding="UTF-8"?><svg version="1.1" width="28px" height="28px" viewBox="0 0 28.0 28.0" xmlns="http://www.w3.org/2000/svg" xmlns:xlink="http://www.w3.org/1999/xlink"><defs><clipPath id="i0"><path d="M2.6010929,15.2622951 L2.6010929,25.3989071 L12.7377049,25.3989071 L12.7377049,28 L0,28 L0,15.2622951 L2.6010929,15.2622951 Z M28,15.2622951 L28,28 L15.2622951,28 L15.2622951,25.3989071 L25.3989071,25.3989071 L25.3989071,15.2622951 L28,15.2622951 Z M17.8251366,14.3825137 L23.5628415,22.1092896 L4.59016393,22.1092896 L9.21857923,16.0655738 L12.7759563,20.9234973 L17.8251366,14.3825137 Z M12.7377049,0 L12.7377049,2.6010929 L2.6010929,2.6010929 L2.6010929,12.7377049 L0,12.7377049 L0,0 L12.7377049,0 Z M28,0 L28,12.7377049 L25.3989071,12.7377049 L25.3989071,2.6010929 L15.2622951,2.6010929 L15.2622951,0 L28,0 Z M19.5081967,6.42622951 C20.0947177,6.42622951 20.5856102,6.62386157 20.9808743,7.01912568 C21.3761384,7.4143898 21.5737705,7.90528233 21.5737705,8.49180328 C21.5737705,9.07832423 21.3761384,9.56921676 20.9808743,9.96448087 C20.5856102,10.359745 20.0947177,10.557377 19.5081967,10.557377 C18.9216758,10.557377 18.4307832,10.359745 18.0355191,9.96448087 C17.640255,9.56921676 17.442623,9.07832423 17.442623,8.49180328 C17.442623,7.90528233 17.640255,7.4143898 18.0355191,7.01912568 C18.4307832,6.62386157 18.9216758,6.42622951 19.5081967,6.42622951 Z"></path></clipPath></defs><g clip-path="url(#i0)"><polygon points="0,0 28,0 28,28 0,28 0,0" stroke="none" fill="#000000"></polygon></g></svg>