<?xml version="1.0" encoding="UTF-8"?><svg version="1.1" width="28px" height="28px" viewBox="0 0 28.0 28.0" xmlns="http://www.w3.org/2000/svg" xmlns:xlink="http://www.w3.org/1999/xlink"><defs><clipPath id="i0"><path d="M14,0 C15.9310345,0 17.7528736,0.367816092 19.4655172,1.10344828 C21.1781609,1.83908046 22.6609195,2.83333333 23.9137931,4.0862069 C25.1666667,5.33908046 26.1609195,6.81609195 26.8965517,8.51724138 C27.6321839,10.2183908 28,12.045977 28,14 C28,15.9310345 27.6321839,17.7471264 26.8965517,19.4482759 C26.1609195,21.1494253 25.1666667,22.6321839 23.9137931,23.8965517 C22.6609195,25.1609195 21.183908,26.1609195 19.4827586,26.8965517 C17.7816092,27.6321839 15.954023,28 14,28 C12.091954,28 10.2816092,27.6321839 8.56896552,26.8965517 C6.85632184,26.1609195 5.36781609,25.1609195 4.10344828,23.8965517 C2.83908046,22.6321839 1.83908046,21.1494253 1.10344828,19.4482759 C0.367816092,17.7471264 0,15.9310345 0,14 C0,12.0689655 0.367816092,10.2471264 1.10344828,8.53448276 C1.83908046,6.82183908 2.83908046,5.33908046 4.10344828,4.0862069 C5.36781609,2.83333333 6.85057471,1.83908046 8.55172414,1.10344828 C10.2528736,0.367816092 12.0689655,0 14,0 Z M19.1034483,7.37931034 L14,12.4827586 L8.89655172,7.37931034 L7.37931034,8.89655172 L12.4827586,14 L7.37931034,19.1034483 L8.89655172,20.6206897 L14,15.5172414 L19.1034483,20.6206897 L20.6206897,19.1034483 L15.5172414,14 L20.6206897,8.89655172 L19.1034483,7.37931034 Z"></path></clipPath></defs><g clip-path="url(#i0)"><polygon points="0,0 28,0 28,28 0,28 0,0" stroke="none" fill="#000000"></polygon></g></svg>