<?xml version="1.0" encoding="UTF-8"?><svg version="1.1" width="28px" height="24px" viewBox="0 0 28.0 24.0" xmlns="http://www.w3.org/2000/svg" xmlns:xlink="http://www.w3.org/1999/xlink"><defs><clipPath id="i0"><path d="M24.1969196,19.6 C24.6304748,19.6 24.9819664,20.0477333 24.9819664,20.6 L24.9819664,23 C24.9819664,23.5522667 24.6304748,24 24.1969196,24 L3.89037757,24 C3.45682243,24 3.10533084,23.5522667 3.10533084,23 L3.10533084,20.6 C3.10533084,20.0477333 3.45682243,19.6 3.89037757,19.6 Z M14,0 C14.9090841,0 15.6485981,0.942 15.6485981,2.1 C15.6485981,2.6616 15.473585,3.17133333 15.1906542,3.54853333 L18.721585,9.5676 C19.2721645,10.5062667 20.1499514,11.0666667 21.0699215,11.0666667 C21.8528748,11.0666667 22.5891439,10.6782667 23.1427589,9.97293333 L25.3186991,7.2012 C24.9436561,6.81586667 24.7028037,6.2268 24.7028037,5.56666667 C24.7028037,4.40866667 25.4423178,3.46666667 26.3514019,3.46666667 C27.260486,3.46666667 28,4.40866667 28,5.56666667 C28,6.48013333 27.5389159,7.25706667 26.8983178,7.54533333 C26.9026093,7.64346667 26.896957,7.74333333 26.8775925,7.84253333 L25.1504897,16.6425333 C25.0634019,17.0858667 24.7514766,17.3976 24.3928673,17.4 L14.0302505,17.4666667 L3.6635514,17.4666667 C3.30305794,17.4666667 2.98893458,17.1538667 2.90184673,16.7082667 L1.17474393,7.87493333 C1.15485607,7.77306667 1.14909907,7.6704 1.15412336,7.56973333 C0.485996262,7.3016 0,6.5052 0,5.56666667 C0,4.40866667 0.739514019,3.46666667 1.64859813,3.46666667 C2.55768224,3.46666667 3.29719626,4.40866667 3.29719626,5.56666667 C3.29719626,6.2188 3.0626243,6.80226667 2.6953271,7.18773333 L4.85765981,9.96293333 C5.40415701,10.6644 6.16251215,11.0665333 6.93834766,11.0665333 C7.85570093,11.0665333 8.73034766,10.5116 9.28113645,9.58186667 L12.8347813,3.584 C12.5362542,3.204 12.3514019,2.67893333 12.3514019,2.1 C12.3514019,0.942 13.0909159,0 14,0 Z"></path></clipPath></defs><g clip-path="url(#i0)"><polygon points="0,0 28,0 28,24 0,24 0,0" stroke="none" fill="#000000"></polygon></g></svg>