<?xml version="1.0" encoding="UTF-8"?><svg version="1.1" width="28px" height="28px" viewBox="0 0 28.0 28.0" xmlns="http://www.w3.org/2000/svg" xmlns:xlink="http://www.w3.org/1999/xlink"><defs><clipPath id="i0"><path d="M14,0 C14.2074074,0 14.4277778,0.00648148148 14.6611111,0.0194444444 C14.8944444,0.0324074074 15.1925926,0.0518518519 15.5555556,0.0777777778 C14.6222222,0.907407407 13.8962963,1.93148148 13.3777778,3.15 C12.8592593,4.36851852 12.6,5.65185185 12.6,7 C12.6,9.33333333 13.4166667,11.3166667 15.05,12.95 C16.6833333,14.5833333 18.6666667,15.4 21,15.4 C22.3481481,15.4 23.6314815,15.1601852 24.85,14.6805556 C26.0685185,14.2009259 27.0925926,13.5333333 27.9222222,12.6777778 C27.9481481,12.9888889 27.9675926,13.2416667 27.9805556,13.4361111 C27.9935185,13.6305556 28,13.8185185 28,14 C28,17.8888889 26.6388889,21.1944444 23.9166667,23.9166667 C21.1944444,26.6388889 17.8888889,28 14,28 C10.1111111,28 6.80555556,26.6388889 4.08333333,23.9166667 C1.36111111,21.1944444 0,17.8888889 0,14 C0,10.1111111 1.36111111,6.80555556 4.08333333,4.08333333 C6.80555556,1.36111111 10.1111111,0 14,0 Z"></path></clipPath></defs><g clip-path="url(#i0)"><polygon points="0,0 28,0 28,28 0,28 0,0" stroke="none" fill="#000000"></polygon></g></svg>