<?xml version="1.0" encoding="UTF-8"?><svg version="1.1" width="28px" height="28px" viewBox="0 0 28.0 28.0" xmlns="http://www.w3.org/2000/svg" xmlns:xlink="http://www.w3.org/1999/xlink"><defs><clipPath id="i0"><path d="M28,25.6666667 L28,28 L0,28 L0,25.6666667 L28,25.6666667 Z M21.6611111,19.25 L21.6611111,21.5833333 L6.37777778,21.5833333 L6.37777778,19.25 L21.6611111,19.25 Z M28,12.8333333 L28,15.1666667 L0,15.1666667 L0,12.8333333 L28,12.8333333 Z M21.6611111,6.41666667 L21.6611111,8.75 L6.37777778,8.75 L6.37777778,6.41666667 L21.6611111,6.41666667 Z M28,0 L28,2.33333333 L0,2.33333333 L0,0 L28,0 Z"></path></clipPath></defs><g clip-path="url(#i0)"><polygon points="0,0 28,0 28,28 0,28 0,0" stroke="none" fill="#000000"></polygon></g></svg>