<?xml version="1.0" encoding="UTF-8"?><svg version="1.1" width="497px" height="497px" viewBox="0 0 497.0 497.0" xmlns="http://www.w3.org/2000/svg" xmlns:xlink="http://www.w3.org/1999/xlink"><defs><clipPath id="i0"><path d="M345.9,0.330612245 C396.6,0.730612245 438.9,20.1306122 470.1,60.9306122 C487.5,83.7306122 495.9,109.930612 495.9,138.730612 L495.9,248.130612 C495.9,282.930612 495.2,317.830612 496.1,352.630612 C497.6,414.230612 458.9,461.830612 409.6,483.030612 C389.8,491.530612 369,496.030612 347.5,496.030612 C280.2,496.130612 212.8,497.030612 145.5,495.730612 C94.8,494.730612 53.1,473.530612 23.2,431.730612 C7.5,409.730612 0,384.730612 0,357.630612 L0,142.630612 C0,84.1306122 28.5,43.2306122 79.1,16.6306122 C101.1,5.13061224 125,0.230612245 149.9,0.130612245 C215.2,0.130612245 280.6,-0.269387755 345.9,0.330612245 Z M203.333333,36.9911232 L181,37.0551493 C169.833333,37.0861678 158.666667,37.1139456 147.5,37.1306122 C133.2,37.1306122 119.4,40.0306122 106,45.0306122 C69.2,58.7306122 35,93.4306122 36.6,144.530612 C37.35,166.155612 37.2796875,187.74155 37.1214844,209.312839 L37.0552517,217.940631 C36.9765625,228.005612 36.9,238.068112 36.9,248.130612 L36.9,358.130612 C36.9,374.530612 40.7,389.930612 49.2,403.830612 C71.5,440.330612 105.2,458.130612 147,458.830612 C214.1,459.830612 281.3,459.230612 348.5,459.030612 C365,459.030612 381,455.630612 395.9,448.530612 C436.5,429.130612 459.2,398.230612 459.00131,351.830612 C458.6,280.830612 458.9,209.830612 458.9,138.830612 C458.9,118.730612 453.2,100.330612 441.3,84.1306122 C418.3,53.0306122 386.5,37.7306122 348.5,37.3306122 C300.111111,36.7528345 251.722222,36.8531431 203.333333,36.9911232 Z"></path></clipPath><clipPath id="i1"><path d="M116.400285,0.000144962815 C180.700285,-0.0997096523 232.900285,51.4002903 233.000285,114.90029 C233.000285,178.30029 180.900285,229.90029 116.600285,230.00029 C52.1002854,230.00029 0.100285377,178.60029 0.000142484672,114.60029 C-0.0997146229,51.6002903 52.3002854,0.000144962815 116.400285,0.000144962815 Z M116.600285,36.9002903 C72.7002854,36.9002903 36.9002854,71.8002903 36.9002854,114.90029 C37.0002854,158.10029 72.7002854,193.10029 116.600285,193.000504 C160.500285,193.000504 196.100285,157.90029 196.000496,114.70029 C195.900285,71.9002903 160.300285,36.9002903 116.600285,36.9002903 Z"></path></clipPath><clipPath id="i2"><path d="M24.4006765,0 C37.9006765,0 48.9006765,11.5 48.9006765,25.6 C48.8006765,39.7 37.7006765,51.1 24.2006765,51 C10.9006765,50.9 0.000676463771,39.5 0.000676463771,25.7 C-0.0993235362,11.6 10.9006765,0 24.4006765,0 Z"></path></clipPath></defs><g transform=""><g clip-path="url(#i0)"><polygon points="0,0 496.142172,0 496.142172,496.426915 0,496.426915 0,0" stroke="none" fill="#000000"></polygon></g><g transform="translate(131.8997146229215 124.13032189719706)"><g clip-path="url(#i1)"><polygon points="-1.84968143e-14,-2.46688791e-14 233.000285,-2.46688791e-14 233.000285,230.00029 -1.84968143e-14,230.00029 -1.84968143e-14,-2.46688791e-14" stroke="none" fill="#000000"></polygon></g></g><g transform="translate(353.999323536229 89.13061224489866)"><g clip-path="url(#i2)"><polygon points="-2.73505177e-14,0 48.9006765,0 48.9006765,51.0006529 -2.73505177e-14,51.0006529 -2.73505177e-14,0" stroke="none" fill="#000000"></polygon></g></g></g></svg>
