<?xml version="1.0" encoding="UTF-8"?><svg version="1.1" width="28px" height="28px" viewBox="0 0 28.0 28.0" xmlns="http://www.w3.org/2000/svg" xmlns:xlink="http://www.w3.org/1999/xlink"><defs><clipPath id="i0"><path d="M7.16908213,16.2534854 C8.72463768,16.2534854 10.0491143,16.8272074 11.1425121,17.9746515 C12.2359098,19.1220955 12.7826087,20.5002112 12.7826087,22.1089987 C12.7826087,23.7414449 12.2359098,25.1313899 11.1425121,26.278834 C10.0491143,27.426278 8.72463768,28 7.16908213,28 C5.61352657,28 4.28904992,27.426278 3.19565217,26.278834 C2.10225443,25.1313899 1.55555556,23.7414449 1.55555556,22.1089987 C1.55555556,20.5002112 2.10225443,19.1220955 3.19565217,17.9746515 C4.28904992,16.8272074 5.61352657,16.2534854 7.16908213,16.2534854 Z M26.6135266,16.2534854 L26.6135266,28 L15.3864734,28 L15.3864734,16.2534854 L26.6135266,16.2534854 Z M7.1352657,0 L14.236715,13.4144487 L0,13.4144487 L7.1352657,0 Z M24.1111111,0.851711027 C25.215781,0.851711027 26.1400966,1.23024926 26.884058,1.98732573 C27.6280193,2.7444022 28,3.69074778 28,4.82636248 C28,5.44148711 27.8872786,6.01520913 27.6618357,6.54752852 C27.4363929,7.07984791 27.0587762,7.65356992 26.5289855,8.26869455 C25.9991948,8.88381918 25.2834138,9.59949303 24.3816425,10.4157161 C23.4798712,11.2319392 22.3639291,12.2315167 21.0338164,13.4144487 C19.6811594,12.2315167 18.5539452,11.2319392 17.6521739,10.4157161 C16.7504026,9.59949303 16.0346216,8.88381918 15.5048309,8.26869455 C14.9750403,7.65356992 14.5974235,7.07984791 14.3719807,6.54752852 C14.1465378,6.01520913 14.0338164,5.44148711 14.0338164,4.82636248 C14.0338164,3.69074778 14.4057971,2.7444022 15.1497585,1.98732573 C15.8937198,1.23024926 16.8180354,0.851711027 17.9227053,0.851711027 C18.531401,0.851711027 19.1062802,0.999577524 19.647343,1.29531052 C20.1884058,1.59104351 20.6505636,2.01098437 21.0338164,2.55513308 C21.394525,2.01098437 21.8510467,1.59104351 22.4033816,1.29531052 C22.9557166,0.999577524 23.5249597,0.851711027 24.1111111,0.851711027 Z"></path></clipPath></defs><g clip-path="url(#i0)"><polygon points="0,0 28,0 28,28 0,28 0,0" stroke="none" fill="#000000"></polygon></g></svg>