<?xml version="1.0" encoding="UTF-8"?><svg version="1.1" width="28px" height="28px" viewBox="0 0 28.0 28.0" xmlns="http://www.w3.org/2000/svg" xmlns:xlink="http://www.w3.org/1999/xlink"><defs><clipPath id="i0"><path d="M14.315,0 C16.1583333,0 17.9083333,0.309166667 19.565,0.9275 C21.2216667,1.54583333 22.6741667,2.40333333 23.9225,3.5 C25.1708333,4.59666667 26.1625,5.8975 26.8975,7.4025 C27.6325,8.9075 28,10.5583333 28,12.355 C28,14.875 27.265,16.8641667 25.795,18.3225 C24.325,19.7808333 22.3766667,20.51 19.95,20.51 L17.325,20.51 C16.905,20.51 16.5433333,20.6733333 16.24,21 C15.9366667,21.3266667 15.785,21.6883333 15.785,22.085 C15.785,22.5516667 15.9541667,22.995 16.2925,23.415 C16.6308333,23.835 16.8,24.3366667 16.8,24.92 C16.8,25.5266667 16.5141667,26.1916667 15.9425,26.915 C15.3708333,27.6383333 14.7233333,28 14,28 C12.0866667,28 10.2783333,27.6325 8.575,26.8975 C6.87166667,26.1625 5.38416667,25.1591667 4.1125,23.8875 C2.84083333,22.6158333 1.8375,21.1283333 1.1025,19.425 C0.3675,17.7216667 0,15.9133333 0,14 C0,12.04 0.373333333,10.2083333 1.12,8.505 C1.86666667,6.80166667 2.8875,5.32 4.1825,4.06 C5.4775,2.8 6.99416667,1.80833333 8.7325,1.085 C10.4708333,0.361666667 12.3316667,0 14.315,0 Z M5.845,11.41 C5.37833333,11.41 4.97,11.585 4.62,11.935 C4.27,12.285 4.095,12.6933333 4.095,13.16 C4.095,13.6266667 4.27,14.035 4.62,14.385 C4.97,14.735 5.37833333,14.91 5.845,14.91 C6.31166667,14.91 6.72,14.735 7.07,14.385 C7.42,14.035 7.595,13.6266667 7.595,13.16 C7.595,12.6933333 7.42,12.285 7.07,11.935 C6.72,11.585 6.31166667,11.41 5.845,11.41 Z M22.33,11.41 C21.8633333,11.41 21.455,11.585 21.105,11.935 C20.755,12.285 20.58,12.6933333 20.58,13.16 C20.58,13.6266667 20.755,14.035 21.105,14.385 C21.455,14.735 21.8633333,14.91 22.33,14.91 C22.7966667,14.91 23.205,14.735 23.555,14.385 C23.905,14.035 24.08,13.6266667 24.08,13.16 C24.08,12.6933333 23.905,12.285 23.555,11.935 C23.205,11.585 22.7966667,11.41 22.33,11.41 Z M10.255,5.46 C9.78833333,5.46 9.38,5.635 9.03,5.985 C8.68,6.335 8.505,6.74333333 8.505,7.21 C8.505,7.67666667 8.68,8.085 9.03,8.435 C9.38,8.785 9.78833333,8.96 10.255,8.96 C10.7216667,8.96 11.13,8.785 11.48,8.435 C11.83,8.085 12.005,7.67666667 12.005,7.21 C12.005,6.74333333 11.83,6.335 11.48,5.985 C11.13,5.635 10.7216667,5.46 10.255,5.46 Z M17.745,5.46 C17.2783333,5.46 16.87,5.635 16.52,5.985 C16.17,6.335 15.995,6.74333333 15.995,7.21 C15.995,7.67666667 16.17,8.085 16.52,8.435 C16.87,8.785 17.2783333,8.96 17.745,8.96 C18.2116667,8.96 18.62,8.785 18.97,8.435 C19.32,8.085 19.495,7.67666667 19.495,7.21 C19.495,6.74333333 19.32,6.335 18.97,5.985 C18.62,5.635 18.2116667,5.46 17.745,5.46 Z"></path></clipPath></defs><g clip-path="url(#i0)"><polygon points="0,0 28,0 28,28 0,28 0,0" stroke="none" fill="#000000"></polygon></g></svg>