<?xml version="1.0" encoding="UTF-8"?><svg version="1.1" width="32px" height="32px" viewBox="0 0 32.0 32.0" xmlns="http://www.w3.org/2000/svg" xmlns:xlink="http://www.w3.org/1999/xlink"><defs><clipPath id="i0"><path d="M16.36,0 C18.4666667,0 20.4666667,0.353333333 22.36,1.06 C24.2533333,1.76666667 25.9133333,2.74666667 27.34,4 C28.7666667,5.25333333 29.9,6.74 30.74,8.46 C31.58,10.18 32,12.0666667 32,14.12 C32,17 31.16,19.2733333 29.48,20.94 C27.8,22.6066667 25.5733333,23.44 22.8,23.44 L19.8,23.44 C19.32,23.44 18.9066667,23.6266667 18.56,24 C18.2133333,24.3733333 18.04,24.7866667 18.04,25.24 C18.04,25.96 18.2333333,26.5733333 18.62,27.08 C19.0066667,27.5866667 19.2,28.1733333 19.2,28.84 C19.2,29.8533333 18.92,30.6333333 18.36,31.18 C17.8,31.7266667 17.0133333,32 16,32 C13.8133333,32 11.7466667,31.58 9.8,30.74 C7.85333333,29.9 6.15333333,28.7533333 4.7,27.3 C3.24666667,25.8466667 2.1,24.1466667 1.26,22.2 C0.42,20.2533333 0,18.1866667 0,16 C0,13.7333333 0.426666667,11.6266667 1.28,9.68 C2.13333333,7.73333333 3.3,6.04 4.78,4.6 C6.26,3.16 7.99333333,2.03333333 9.98,1.22 C11.9666667,0.406666667 14.0933333,0 16.36,0 Z M16.36,2.4 C12.4666667,2.4 9.16666667,3.71333333 6.46,6.34 C3.75333333,8.96666667 2.4,12.1866667 2.4,16 C2.4,19.76 3.72666667,22.9666667 6.38,25.62 C9.03333333,28.2733333 12.24,29.6 16,29.6 C16.2933333,29.6 16.5,29.54 16.62,29.42 C16.74,29.3 16.8,29.1066667 16.8,28.84 C16.8,28.4666667 16.6066667,28.12 16.22,27.8 C15.8333333,27.48 15.64,26.7733333 15.64,25.68 C15.64,24.4533333 16.04,23.3733333 16.84,22.44 C17.64,21.5066667 18.6533333,21.04 19.88,21.04 L22.8,21.04 C24.8266667,21.04 26.4666667,20.4466667 27.72,19.26 C28.9733333,18.0733333 29.6,16.36 29.6,14.12 C29.6,10.6 28.2666667,7.76666667 25.6,5.62 C22.9333333,3.47333333 19.8533333,2.4 16.36,2.4 Z M6.68,13.04 C7.21333333,13.04 7.68,13.24 8.08,13.64 C8.48,14.04 8.68,14.5066667 8.68,15.04 C8.68,15.5733333 8.48,16.04 8.08,16.44 C7.68,16.84 7.21333333,17.04 6.68,17.04 C6.14666667,17.04 5.68,16.84 5.28,16.44 C4.88,16.04 4.68,15.5733333 4.68,15.04 C4.68,14.5066667 4.88,14.04 5.28,13.64 C5.68,13.24 6.14666667,13.04 6.68,13.04 Z M25.52,13.04 C26.0533333,13.04 26.52,13.24 26.92,13.64 C27.32,14.04 27.52,14.5066667 27.52,15.04 C27.52,15.5733333 27.32,16.04 26.92,16.44 C26.52,16.84 26.0533333,17.04 25.52,17.04 C24.9866667,17.04 24.52,16.84 24.12,16.44 C23.72,16.04 23.52,15.5733333 23.52,15.04 C23.52,14.5066667 23.72,14.04 24.12,13.64 C24.52,13.24 24.9866667,13.04 25.52,13.04 Z M11.72,6.24 C12.2533333,6.24 12.72,6.44 13.12,6.84 C13.52,7.24 13.72,7.70666667 13.72,8.24 C13.72,8.77333333 13.52,9.24 13.12,9.64 C12.72,10.04 12.2533333,10.24 11.72,10.24 C11.1866667,10.24 10.72,10.04 10.32,9.64 C9.92,9.24 9.72,8.77333333 9.72,8.24 C9.72,7.70666667 9.92,7.24 10.32,6.84 C10.72,6.44 11.1866667,6.24 11.72,6.24 Z M20.28,6.24 C20.8133333,6.24 21.28,6.44 21.68,6.84 C22.08,7.24 22.28,7.70666667 22.28,8.24 C22.28,8.77333333 22.08,9.24 21.68,9.64 C21.28,10.04 20.8133333,10.24 20.28,10.24 C19.7466667,10.24 19.28,10.04 18.88,9.64 C18.48,9.24 18.28,8.77333333 18.28,8.24 C18.28,7.70666667 18.48,7.24 18.88,6.84 C19.28,6.44 19.7466667,6.24 20.28,6.24 Z"></path></clipPath></defs><g clip-path="url(#i0)"><polygon points="0,0 32,0 32,32 0,32 0,0" stroke="none" fill="#000000"></polygon></g></svg>