<?xml version="1.0" encoding="UTF-8"?><svg version="1.1" width="28px" height="28px" viewBox="0 0 28.0 28.0" xmlns="http://www.w3.org/2000/svg" xmlns:xlink="http://www.w3.org/1999/xlink"><defs><clipPath id="i0"><path d="M14,0 C15.954023,0 17.7816092,0.367816092 19.4827586,1.10344828 C21.183908,1.83908046 22.6609195,2.83333333 23.9137931,4.0862069 C25.1666667,5.33908046 26.1609195,6.81609195 26.8965517,8.51724138 C27.6321839,10.2183908 28,12.045977 28,14 C28,15.9310345 27.6321839,17.7471264 26.8965517,19.4482759 C26.1609195,21.1494253 25.1666667,22.6321839 23.9137931,23.8965517 C22.6609195,25.1609195 21.183908,26.1609195 19.4827586,26.8965517 C17.7816092,27.6321839 15.954023,28 14,28 C12.0689655,28 10.2528736,27.6321839 8.55172414,26.8965517 C6.85057471,26.1609195 5.36781609,25.1609195 4.10344828,23.8965517 C2.83908046,22.6321839 1.83908046,21.1494253 1.10344828,19.4482759 C0.367816092,17.7471264 0,15.9310345 0,14 C0,12.045977 0.367816092,10.2183908 1.10344828,8.51724138 C1.83908046,6.81609195 2.83908046,5.33908046 4.10344828,4.0862069 C5.36781609,2.83333333 6.85057471,1.83908046 8.55172414,1.10344828 C10.2528736,0.367816092 12.0689655,0 14,0 Z M6.68965517,12.2758621 C6.20689655,12.2758621 5.79885057,12.4425287 5.46551724,12.7758621 C5.13218391,13.1091954 4.96551724,13.5172414 4.96551724,14 C4.96551724,14.4827586 5.13218391,14.8908046 5.46551724,15.2241379 C5.79885057,15.5574713 6.20689655,15.7241379 6.68965517,15.7241379 C7.17241379,15.7241379 7.58045977,15.5574713 7.9137931,15.2241379 C8.24712644,14.8908046 8.4137931,14.4827586 8.4137931,14 C8.4137931,13.5172414 8.24712644,13.1091954 7.9137931,12.7758621 C7.58045977,12.4425287 7.17241379,12.2758621 6.68965517,12.2758621 Z M14,12.2758621 C13.5172414,12.2758621 13.1091954,12.4425287 12.7758621,12.7758621 C12.4425287,13.1091954 12.2758621,13.5172414 12.2758621,14 C12.2758621,14.4827586 12.4425287,14.8908046 12.7758621,15.2241379 C13.1091954,15.5574713 13.5172414,15.7241379 14,15.7241379 C14.4827586,15.7241379 14.8908046,15.5574713 15.2241379,15.2241379 C15.5574713,14.8908046 15.7241379,14.4827586 15.7241379,14 C15.7241379,13.5172414 15.5574713,13.1091954 15.2241379,12.7758621 C14.8908046,12.4425287 14.4827586,12.2758621 14,12.2758621 Z M21.2758621,12.2758621 C20.7931034,12.2758621 20.3850575,12.4425287 20.0517241,12.7758621 C19.7183908,13.1091954 19.5517241,13.5172414 19.5517241,14 C19.5517241,14.4827586 19.7183908,14.8908046 20.0517241,15.2241379 C20.3850575,15.5574713 20.7931034,15.7241379 21.2758621,15.7241379 C21.7586207,15.7241379 22.1666667,15.5574713 22.5,15.2241379 C22.8333333,14.8908046 23,14.4827586 23,14 C23,13.5172414 22.8333333,13.1091954 22.5,12.7758621 C22.1666667,12.4425287 21.7586207,12.2758621 21.2758621,12.2758621 Z"></path></clipPath></defs><g clip-path="url(#i0)"><polygon points="0,0 28,0 28,28 0,28 0,0" stroke="none" fill="#000000"></polygon></g></svg>