<?xml version="1.0" encoding="UTF-8"?><svg version="1.1" width="28px" height="28px" viewBox="0 0 28.0 28.0" xmlns="http://www.w3.org/2000/svg" xmlns:xlink="http://www.w3.org/1999/xlink"><defs><clipPath id="i0"><path d="M14.2722222,19.25 L14.2722222,22.4777778 L28,22.4777778 L28,24.8111111 L14.2722222,24.8111111 L14.2722222,28 L11.9388889,28 L11.9388889,19.25 L14.2722222,19.25 Z M9.60555556,22.4777778 L9.60555556,24.8111111 L0,24.8111111 L0,22.4777778 L9.60555556,22.4777778 Z M9.60555556,9.56666667 L9.60555556,18.3555556 L7.27222222,18.3555556 L7.27222222,15.1666667 L0,15.1666667 L0,12.8333333 L7.27222222,12.8333333 L7.27222222,9.56666667 L9.60555556,9.56666667 Z M28,12.8333333 L28,15.1666667 L11.9388889,15.1666667 L11.9388889,12.8333333 L28,12.8333333 Z M20.7277778,0 L20.7277778,3.18888889 L28,3.18888889 L28,5.52222222 L20.7277778,5.52222222 L20.7277778,8.75 L18.3944444,8.75 L18.3944444,0 L20.7277778,0 Z M16.0611111,3.18888889 L16.0611111,5.52222222 L0,5.52222222 L0,3.18888889 L16.0611111,3.18888889 Z"></path></clipPath></defs><g clip-path="url(#i0)"><polygon points="0,0 28,0 28,28 0,28 0,0" stroke="none" fill="#000000"></polygon></g></svg>