<?xml version="1.0" encoding="UTF-8"?><svg version="1.1" width="549px" height="313px" viewBox="0 0 549.0 313.0" xmlns="http://www.w3.org/2000/svg" xmlns:xlink="http://www.w3.org/1999/xlink"><defs><clipPath id="i0"><path d="M195.575,6.89562374 C205.663,1.94662374 228.41,-0.339376258 263.811,0.0406237417 C279.422,0.232623742 292.269,1.46762374 302.358,3.75062374 C306.159,4.70462374 309.353,5.98862374 311.922,7.60662374 C314.486,9.22662374 316.44,11.5086237 317.775,14.4586237 C319.102,17.4116237 320.109,20.4576237 320.765,23.5956237 C321.429,26.7376237 321.765,31.0666237 321.765,36.5866237 C321.765,42.1066237 321.675,47.3426237 321.481,52.2916237 C321.286,57.2356237 321.053,63.9466237 320.765,72.4166237 C320.482,80.8866237 320.341,88.7376237 320.341,95.9716237 C320.341,98.0656237 320.252,102.059624 320.054,107.962624 C319.861,113.862624 319.82,118.435624 319.909,121.668624 C320.005,124.905624 320.341,128.755624 320.909,133.231624 C321.48,137.704624 322.572,141.417624 324.194,144.367624 C325.809,147.317624 327.951,149.648624 330.614,151.362624 C332.143,151.742624 333.758,152.122624 335.473,152.505624 C337.184,152.888624 339.655,151.841624 342.892,149.363624 C346.134,146.886624 349.744,143.607624 353.744,139.514624 C357.738,135.425624 362.687,129.046624 368.586,120.388624 C374.493,111.727624 380.961,101.498624 388.004,89.6956237 C399.427,69.9016237 409.605,48.4886237 418.557,25.4576237 C419.317,23.5546237 420.268,21.8846237 421.405,20.4616237 C422.548,19.0336237 423.595,18.0346237 424.547,17.4666237 L425.683,16.6076237 L427.114,15.8926237 C427.114,15.8926237 428.352,15.6056237 430.827,15.0336237 C433.305,14.4616237 435.207,14.4176237 436.539,14.8896237 L518.763,14.3216237 C526.188,13.3706237 532.277,13.6066237 537.041,15.0336237 C541.794,16.4636237 544.744,18.0316237 545.887,19.7456237 L547.588,22.5926237 C551.968,34.7756237 537.691,62.7516237 504.76,106.531624 C500.194,112.623624 494.011,120.709624 486.204,130.798624 C483.204021,134.646528 480.460207,138.225725 477.972723,141.536355 L477.195722,142.57289 C467.845888,155.075452 462.280191,163.613709 460.508,168.195624 C457.278,176.004624 458.602,183.711624 464.512,191.325624 C467.742,195.322624 475.455,203.129624 487.635,214.740624 L487.923,214.740624 L488.21,215.027624 L488.494,215.307624 L489.061,215.878624 C515.898,240.813624 534.079,261.845624 543.593,278.980624 C544.168,279.931624 544.787,281.118624 545.451,282.549624 C546.115,283.976624 546.782,286.501624 547.459,290.112624 C548.119,293.732624 548.078,296.970624 547.314,299.824624 C546.548,302.675624 544.173,305.296624 540.175,307.675624 C536.185,310.050624 530.56,311.247624 523.331,311.247624 L450.244,312.387624 C445.669,313.338624 440.341,312.862994 434.26,310.960624 C428.168,309.057624 423.219,306.963624 419.407,304.677624 L413.699,301.251624 C407.991,297.248624 401.331,291.163624 393.714,282.977624 C386.102,274.794624 379.584,267.423624 374.159,260.853624 C368.731,254.289624 362.928,248.766624 356.741,244.293624 C350.549,239.816624 345.173,238.342624 340.605,239.864624 C340.034,240.059624 339.277,240.384624 338.329,240.863624 C337.375,241.339624 335.749,242.722624 333.467,245.005624 C331.19,247.283624 329.144,250.093624 327.331,253.423624 C325.517,256.756624 323.895,261.705624 322.472,268.269624 C321.048,274.835624 320.425,282.210624 320.62,290.393624 C320.62,293.244624 320.288,295.865624 319.62,298.244624 C318.96,300.619624 318.245,302.384624 317.481,303.520624 L316.345,304.951624 C312.916,308.565624 307.871,310.659624 301.212,311.234624 L268.378,311.234624 C254.863,311.990624 240.969,310.423624 226.694,306.518624 C212.417,302.617624 199.904,297.573624 189.148,291.392624 C178.394,285.201624 168.593,278.921624 159.74,272.542624 C150.889,266.167624 144.181,260.695624 139.613,256.126624 L132.474,249.275624 C130.571,247.372624 127.953,244.522624 124.62,240.710624 C124.228353,240.262977 123.788609,239.748119 123.300768,239.166053 L122.925869,238.716902 C119.214672,234.253297 112.975382,226.257124 104.208,214.729624 C93.929,201.219624 83.841,186.846624 73.944,171.617624 C64.049,156.399624 52.389,136.314624 38.971,111.380624 C25.553,86.4466237 13.134,60.5616237 1.714,33.7216237 C0.571,30.6786237 0,28.1086237 0,26.0146237 C0,23.9196237 0.288,22.3976237 0.859,21.4446237 L2.002,19.7336237 C4.858,16.1166237 10.282,14.3056237 18.276,14.3056237 L96.505,13.7376237 C98.791,14.1166237 100.977,14.7326237 103.072,15.5916237 C105.164,16.4516237 106.689,17.2586237 107.639,18.0186237 L109.068,18.8776237 C112.113,20.9716237 114.398,24.0146237 115.919,28.0116237 C119.724,37.5286237 124.101,47.3806237 129.053,57.5656237 C134.002,67.7466237 137.902,75.5046237 140.757,80.8326237 L145.324,89.1146237 C150.844,100.534624 156.174,110.431624 161.311,118.805624 C166.452,127.179624 171.068,133.698624 175.161,138.363624 C179.254,143.027624 183.203,146.689624 187.008,149.355624 C190.814,152.021624 194.048,153.355624 196.715,153.355624 C199.378,153.355624 201.951,152.872624 204.425,151.924624 C204.803,151.736624 205.279,151.257624 205.85,150.497624 C206.422,149.737624 207.563,147.643624 209.278,144.217624 C210.99,140.792624 212.274,136.319624 213.133,130.799624 C213.992,125.279624 214.892,117.572624 215.845,107.672624 C216.795,97.7766237 216.795,85.8806237 215.845,71.9836237 C215.467,64.3736237 214.608,57.4266237 213.277,51.1466237 C211.944,44.8666237 210.612,40.4866237 209.278,38.0126237 L207.563,34.5836237 C202.804,28.1126237 194.718,24.0196237 183.296,22.3086237 C180.822,21.9326237 181.3,19.6466237 184.727,15.4576237 C187.961,11.8436237 191.578,8.98662374 195.575,6.89562374 Z"></path></clipPath></defs><g clip-path="url(#i0)"><polygon points="0,6.42541576e-15 548.359206,6.42541576e-15 548.359206,312.863076 0,312.863076 0,6.42541576e-15" stroke="none" fill="#000000"></polygon></g></svg>