<?xml version="1.0" encoding="UTF-8"?><svg version="1.1" width="32px" height="32px" viewBox="0 0 32.0 32.0" xmlns="http://www.w3.org/2000/svg" xmlns:xlink="http://www.w3.org/1999/xlink"><defs><clipPath id="i0"><path d="M16,0 C18.207645,0 20.2892028,0.412097997 22.2446732,1.23629399 C24.1995052,2.0611284 25.9018434,3.1984678 27.3516878,4.64831219 C28.8015322,6.09815657 29.9388716,7.80049477 30.763706,9.75532679 C31.587902,11.7107972 32,13.792355 32,16 C32,18.207645 31.587902,20.2824994 30.763706,22.2245631 C29.9388716,24.1666268 28.8015322,25.8622616 27.3516878,27.3114676 C25.9018434,28.7613119 24.1995052,29.9053547 22.2446732,30.7435959 C20.2892028,31.5811986 18.207645,32 16,32 C13.792355,32 11.7175006,31.5811986 9.77543692,30.7435959 C7.83337323,29.9053547 6.13773841,28.7613119 4.68853244,27.3114676 C3.23868805,25.8622616 2.09464528,24.1666268 1.25640412,22.2245631 C0.418801373,20.2824994 0,18.207645 0,16 C0,13.792355 0.418801373,11.7107972 1.25640412,9.75532679 C2.09464528,7.80049477 3.23868805,6.09815657 4.68853244,4.64831219 C6.13773841,3.1984678 7.83337323,2.0611284 9.77543692,1.23629399 C11.7175006,0.412097997 13.792355,0 16,0 Z M21.9056739,8.17907589 L16,14.1249701 L10.0943261,8.17907589 L8.17907589,10.0943261 L14.1249701,16 L8.17907589,21.9056739 L10.0943261,23.8209241 L16,17.8750299 L21.9056739,23.8209241 L23.8209241,21.9056739 L17.8750299,16 L23.8209241,10.0943261 L21.9056739,8.17907589 Z"></path></clipPath></defs><g clip-path="url(#i0)"><polygon points="0,0 32,0 32,32 0,32 0,0" stroke="none"></polygon></g></svg>
