<?xml version="1.0" encoding="UTF-8"?><svg version="1.1" width="32px" height="32px" viewBox="0 0 32.0 32.0" xmlns="http://www.w3.org/2000/svg" xmlns:xlink="http://www.w3.org/1999/xlink"><defs><clipPath id="i0"><path d="M25.9842085,0 C26.4300455,0 26.8478088,0.181375163 27.2374984,0.54412549 L31.4154656,4.76862745 C31.8051552,5.13137778 32,5.54265098 32,6.00244706 C32,6.46291242 31.8051552,6.87452026 31.4154656,7.23727059 L25.9009901,12.7588392 L28.1148014,15.0588235 C28.449012,15.3934641 28.6090989,15.7980444 28.595062,16.2725647 C28.5816936,16.7464157 28.4216067,17.1366065 28.1148014,17.4431373 C27.7531854,17.7777778 27.3354221,17.945098 26.8615115,17.945098 C26.3882692,17.945098 25.9985796,17.7500026 25.6924427,17.3598118 L24.3138238,16.0215843 L8.89835819,31.4568784 C8.73125287,31.6516392 8.55011071,31.7908497 8.3549317,31.8745098 C8.15975268,31.9581699 7.93683419,32 7.68617621,32 L1.75460584,32 C1.25328989,32 0.835526591,31.8326797 0.501315954,31.4980392 C0.167105318,31.1633987 0,30.745098 0,30.2431373 L0,24.3039373 C0,24.0529569 0.0417763295,23.8297516 0.125328989,23.6343216 C0.208881648,23.4388915 0.347913272,23.2575163 0.542423863,23.0901961 L15.874671,7.69706667 L14.5381627,6.31667451 C14.203952,6.01014379 14.0435309,5.60589804 14.0568994,5.10393725 C14.0709362,4.60197647 14.2313573,4.19739608 14.5381627,3.89019608 C14.8723733,3.55555556 15.2760998,3.38823529 15.749342,3.38823529 C16.2225843,3.38823529 16.6403476,3.55555556 17.0026319,3.89019608 L19.1753353,6.14901961 L24.7309187,0.54412549 C25.1212767,0.181375163 25.53904,0 25.9842085,0 Z M18.2138113,10.2068706 L3.50921168,24.8892235 L3.50921168,28.4862745 L7.10164181,28.4862745 L21.7651335,13.7627608 L18.2138113,10.2068706 Z"></path></clipPath></defs><g transform=""><g clip-path="url(#i0)"><polygon points="0,0 32,0 32,32 0,32 0,0" stroke="none"></polygon></g></g></svg>
