<?xml version="1.0" encoding="UTF-8"?><svg version="1.1" width="32px" height="32px" viewBox="0 0 32.0 32.0" xmlns="http://www.w3.org/2000/svg" xmlns:xlink="http://www.w3.org/1999/xlink"><defs><clipPath id="i0"><path d="M30.2406383,28.3968601 C30.7272337,28.3968601 31.1421096,28.5753013 31.4852657,28.9321838 C31.8284219,29.2897525 32,29.7118346 32,30.1984301 C32,30.7131643 31.8284219,31.1421096 31.4852657,31.4852657 C31.1421096,31.8284219 30.7272337,32 30.2406383,32 L1.80156994,32 C1.28683567,32 0.857890447,31.8284219 0.514734268,31.4852657 C0.171578089,31.1421096 0,30.7131643 0,30.1984301 C0,29.7118346 0.171578089,29.2897525 0.514734268,28.9321838 C0.857890447,28.5753013 1.28683567,28.3968601 1.80156994,28.3968601 L30.2406383,28.3968601 Z M23.2062798,21.2760263 C23.721014,21.2760263 24.1499593,21.4548106 24.4931154,21.8123794 C24.8362716,22.1699481 25.0078497,22.591687 25.0078497,23.0775962 C25.0078497,23.5923305 24.8362716,24.0212757 24.4931154,24.3644319 C24.1499593,24.707588 23.721014,24.8791661 23.2062798,24.8791661 L8.83695792,24.8791661 C8.32222365,24.8791661 7.89327843,24.707588 7.55012225,24.3644319 C7.20696607,24.0212757 7.03538798,23.5923305 7.03538798,23.0775962 C7.03538798,22.591687 7.20696607,22.1699481 7.55012225,21.8123794 C7.89327843,21.4548106 8.32222365,21.2760263 8.83695792,21.2760263 L23.2062798,21.2760263 Z M30.2406383,14.1551924 C30.7272337,14.1551924 31.1421096,14.3339768 31.4852657,14.6915455 C31.8284219,15.0491142 32,15.4708532 32,15.9567623 C32,16.4714966 31.8284219,16.9004418 31.4852657,17.243598 C31.1421096,17.5867542 30.7272337,17.7583323 30.2406383,17.7583323 L1.80156994,17.7583323 C1.28683567,17.7583323 0.857890447,17.5867542 0.514734268,17.243598 C0.171578089,16.9004418 0,16.4714966 0,15.9567623 C0,15.4708532 0.171578089,15.0491142 0.514734268,14.6915455 C0.857890447,14.3339768 1.28683567,14.1551924 1.80156994,14.1551924 L30.2406383,14.1551924 Z M23.2062798,7.12083387 C23.721014,7.12083387 24.1499593,7.29241196 24.4931154,7.63556814 C24.8362716,7.97872432 25.0078497,8.40766954 25.0078497,8.92240381 C25.0078497,9.40831296 24.8362716,9.8300519 24.4931154,10.1876206 C24.1499593,10.5451894 23.721014,10.7239737 23.2062798,10.7239737 L8.83695792,10.7239737 C8.32222365,10.7239737 7.89327843,10.5451894 7.55012225,10.1876206 C7.20696607,9.8300519 7.03538798,9.3939004 7.03538798,8.87916613 C7.03538798,8.39325698 7.20696607,7.97872432 7.55012225,7.63556814 C7.89327843,7.29241196 8.32222365,7.12083387 8.83695792,7.12083387 L23.2062798,7.12083387 Z M30.2406383,0 C30.7272337,0 31.1421096,0.171578089 31.4852657,0.514734268 C31.8284219,0.857890447 32,1.28683567 32,1.80156994 C32,2.2881654 31.8284219,2.7102475 31.4852657,3.06781624 C31.1421096,3.42469867 30.7272337,3.60313988 30.2406383,3.60313988 L1.80156994,3.60313988 C1.28683567,3.60313988 0.857890447,3.42469867 0.514734268,3.06781624 C0.171578089,2.7102475 0,2.274096 0,1.75936173 C0,1.27276627 0.171578089,0.857890447 0.514734268,0.514734268 C0.857890447,0.171578089 1.28683567,0 1.80156994,0 L30.2406383,0 Z"></path></clipPath></defs><g transform=""><g clip-path="url(#i0)"><polygon points="0,0 32,0 32,32 0,32 0,0" stroke="none"></polygon></g></g></svg>
