<?xml version="1.0" encoding="UTF-8"?><svg version="1.1" width="32px" height="32px" viewBox="0 0 32.0 32.0" xmlns="http://www.w3.org/2000/svg" xmlns:xlink="http://www.w3.org/1999/xlink"><defs><clipPath id="i0"><path d="M30.2406383,28.3968601 C30.7272337,28.3968601 31.1421096,28.5753013 31.4852657,28.9321838 C31.8284219,29.2897525 32,29.7118346 32,30.1984301 C32,30.7131643 31.8284219,31.1421096 31.4852657,31.4852657 C31.1421096,31.8284219 30.7272337,32 30.2406383,32 L1.80156994,32 C1.28683567,32 0.857890447,31.8284219 0.514734268,31.4852657 C0.171578089,31.1421096 0,30.7131643 0,30.1984301 C0,29.7118346 0.171578089,29.2897525 0.514734268,28.9321838 C0.857890447,28.5753013 1.28683567,28.3968601 1.80156994,28.3968601 L30.2406383,28.3968601 Z M19.6031399,21.2760263 C20.089049,21.2760263 20.5035817,21.4548106 20.8467379,21.8123794 C21.1898941,22.1699481 21.3614721,22.591687 21.3614721,23.0775962 C21.3614721,23.5923305 21.1898941,24.0212757 20.8467379,24.3644319 C20.5035817,24.707588 20.089049,24.8791661 19.6031399,24.8791661 L1.80156994,24.8791661 C1.28683567,24.8791661 0.857890447,24.707588 0.514734268,24.3644319 C0.171578089,24.0212757 0,23.5923305 0,23.0775962 C0,22.591687 0.171578089,22.1699481 0.514734268,21.8123794 C0.857890447,21.4548106 1.28683567,21.2760263 1.80156994,21.2760263 L19.6031399,21.2760263 Z M30.2406383,14.1551924 C30.7272337,14.1551924 31.1421096,14.3339768 31.4852657,14.6915455 C31.8284219,15.0491142 32,15.4708532 32,15.9567623 C32,16.4714966 31.8284219,16.9004418 31.4852657,17.243598 C31.1421096,17.5867542 30.7272337,17.7583323 30.2406383,17.7583323 L1.80156994,17.7583323 C1.28683567,17.7583323 0.857890447,17.5867542 0.514734268,17.243598 C0.171578089,16.9004418 0,16.4714966 0,15.9567623 C0,15.4708532 0.171578089,15.0491142 0.514734268,14.6915455 C0.857890447,14.3339768 1.28683567,14.1551924 1.80156994,14.1551924 L30.2406383,14.1551924 Z M19.6031399,7.12083387 C20.089049,7.12083387 20.5035817,7.29241196 20.8467379,7.63556814 C21.1898941,7.97872432 21.3614721,8.40766954 21.3614721,8.92240381 C21.3614721,9.40831296 21.1898941,9.8300519 20.8467379,10.1876206 C20.5035817,10.5451894 20.089049,10.7239737 19.6031399,10.7239737 L1.80156994,10.7239737 C1.28683567,10.7239737 0.857890447,10.5451894 0.514734268,10.1876206 C0.171578089,9.8300519 0,9.3939004 0,8.87916613 C0,8.39325698 0.171578089,7.97872432 0.514734268,7.63556814 C0.857890447,7.29241196 1.28683567,7.12083387 1.80156994,7.12083387 L19.6031399,7.12083387 Z M30.2406383,0 C30.7272337,0 31.1421096,0.171578089 31.4852657,0.514734268 C31.8284219,0.857890447 32,1.28683567 32,1.80156994 C32,2.2881654 31.8284219,2.7102475 31.4852657,3.06781624 C31.1421096,3.42469867 30.7272337,3.60313988 30.2406383,3.60313988 L1.80156994,3.60313988 C1.28683567,3.60313988 0.857890447,3.42469867 0.514734268,3.06781624 C0.171578089,2.7102475 0,2.274096 0,1.75936173 C0,1.27276627 0.171578089,0.857890447 0.514734268,0.514734268 C0.857890447,0.171578089 1.28683567,0 1.80156994,0 L30.2406383,0 Z"></path></clipPath></defs><g transform=""><g clip-path="url(#i0)"><polygon points="0,0 32,0 32,32 0,32 0,0" stroke="none"></polygon></g></g></svg>
