<?xml version="1.0" encoding="UTF-8"?><svg version="1.1" width="32px" height="32px" viewBox="0 0 32.0 32.0" xmlns="http://www.w3.org/2000/svg" xmlns:xlink="http://www.w3.org/1999/xlink"><defs><clipPath id="i0"><path d="M16,0 C18.2192719,0 20.3060047,0.40972104 22.2601986,1.22916312 C24.2143924,2.0486052 25.9101655,3.18335697 27.3475177,4.63341844 C28.78487,6.08347991 29.9196217,7.78560757 30.751773,9.73980142 C31.5839243,11.6939953 32,13.7807281 32,16 C32,18.2192719 31.590279,20.2932955 30.7708369,22.2220709 C29.9513948,24.1514515 28.8102884,25.8411726 27.3475177,27.291234 C25.884747,28.7406903 24.1826194,29.8878487 22.2411348,30.7327092 C20.2996501,31.5775697 18.2192719,32 16,32 C13.7807281,32 11.7003499,31.5839243 9.75886525,30.751773 C7.81738061,29.9196217 6.12160757,28.7785154 4.6715461,27.3284539 C3.22148463,25.8783924 2.08037825,24.1762648 1.24822695,22.2220709 C0.41607565,20.2678771 0,18.1938534 0,16 C0,13.7807281 0.42243026,11.7003499 1.26729078,9.75886525 C2.1121513,7.81738061 3.25930969,6.11525296 4.70876596,4.65248227 C6.15882742,3.18971158 7.85490307,2.0486052 9.79699291,1.22916312 C11.7384775,0.40972104 13.8061466,0 16,0 Z M16,3.36612766 C12.4946761,3.36612766 9.51285106,4.59559338 7.05452482,7.05452482 C4.59559338,9.51285106 3.36612766,12.4946761 3.36612766,16 C3.36612766,19.5053239 4.59559338,22.4871489 7.05452482,24.9454752 C9.51285106,27.4044066 12.4946761,28.6338723 16,28.6338723 C19.5053239,28.6338723 22.4871489,27.4044066 24.9454752,24.9454752 C27.4044066,22.4871489 28.6338723,19.5053239 28.6338723,16 C28.6338723,12.4946761 27.4044066,9.51285106 24.9454752,7.05452482 C22.4871489,4.59559338 19.5053239,3.36612766 16,3.36612766 Z M17.7021277,14.486695 L17.7021277,23.9813901 L14.4494752,23.9813901 L14.4494752,14.486695 L17.7021277,14.486695 Z M16,8.09486525 C16.4793191,8.09486525 16.8826856,8.25252009 17.2100993,8.56782979 C17.5381182,8.88253428 17.7021277,9.29225532 17.7021277,9.79699291 C17.7021277,10.2757069 17.5381182,10.6727187 17.2100993,10.9880284 C16.8826856,11.3033381 16.4793191,11.4609929 16,11.4609929 C15.5206809,11.4609929 15.1173144,11.2969835 14.7899007,10.9689645 C14.4618818,10.6415508 14.2978723,10.2381844 14.2978723,9.75886525 C14.2978723,9.25473286 14.4555272,8.85136643 14.7708369,8.54876596 C15.0861466,8.24616548 15.4958676,8.09486525 16,8.09486525 Z"></path></clipPath></defs><g transform=""><g clip-path="url(#i0)"><polygon points="0,0 32,0 32,32 0,32 0,0" stroke="none"></polygon></g></g></svg>
