<?xml version="1.0" encoding="UTF-8"?><svg version="1.1" width="32px" height="32px" viewBox="0 0 32.0 32.0" xmlns="http://www.w3.org/2000/svg" xmlns:xlink="http://www.w3.org/1999/xlink"><defs><clipPath id="i0"><path d="M14.1938898,0 C14.6702782,0 15.0835066,0.167979003 15.4335748,0.503937008 C15.7829711,0.839895013 15.9576693,1.25984252 15.9576693,1.76377953 C15.9576693,2.23949606 15.7829711,2.65238845 15.4335748,3.00245669 C15.0835066,3.35252493 14.6702782,3.52755906 14.1938898,3.52755906 L3.52755906,3.52755906 L3.52755906,28.4724409 L28.4724409,28.4724409 L28.4724409,17.8061102 C28.4724409,17.3297218 28.6474751,16.9164934 28.9975433,16.5664252 C29.3476115,16.2170289 29.7746142,16.0423307 30.2785512,16.0423307 C30.7542677,16.0423307 31.160105,16.2170289 31.496063,16.5664252 C31.832021,16.9164934 32,17.3297218 32,17.8061102 L32,28.4724409 C32,29.4245459 31.6499318,30.2503307 30.9497953,30.9497953 C30.2503307,31.6499318 29.4245459,32 28.4724409,32 L3.52755906,32 C2.57545407,32 1.74966929,31.6499318 1.05020472,30.9497953 C0.350068241,30.2503307 0,29.4245459 0,28.4724409 L0,3.52755906 C0,2.57545407 0.350068241,1.74966929 1.05020472,1.05020472 C1.74966929,0.350068241 2.57545407,0 3.52755906,0 L14.1938898,0 Z M30.2785512,3.55271368e-15 C30.7824882,3.55271368e-15 31.1953806,0.160923885 31.5172283,0.482771654 C31.8390761,0.804619423 32,1.21751181 32,1.72144882 L32,11.5068976 C32,11.9826142 31.832021,12.3884514 31.496063,12.7244094 C31.160105,13.0603675 30.7401575,13.2283465 30.2362205,13.2283465 C29.7605039,13.2283465 29.3476115,13.0603675 28.9975433,12.7244094 C28.6474751,12.3884514 28.4724409,11.9826142 28.4724409,11.5068976 L28.4724409,6.00491339 L13.1023622,21.3749921 C12.7664042,21.7109501 12.3605669,21.8789291 11.8848504,21.8789291 C11.4084619,21.8789291 11.0022887,21.6971759 10.6663307,21.3336693 C10.3303727,20.9977113 10.1556745,20.5915381 10.1422362,20.1151496 C10.128126,19.6394331 10.3028241,19.2335958 10.6663307,18.8976378 L26.0364094,3.52755906 L20.4931024,3.52755906 C20.0173858,3.52755906 19.6115486,3.35252493 19.2755906,3.00245669 C18.9396325,2.65238845 18.7716535,2.22538583 18.7716535,1.72144882 C18.7716535,1.24573228 18.9396325,0.839895013 19.2755906,0.503937008 C19.6115486,0.167979003 20.0173858,3.55271368e-15 20.4931024,3.55271368e-15 L30.2785512,3.55271368e-15 Z"></path></clipPath></defs><g clip-path="url(#i0)"><polygon points="0,0 32,0 32,32 0,32 0,0" stroke="none"></polygon></g></svg>
