<?xml version="1.0" encoding="UTF-8"?><svg version="1.1" width="32px" height="32px" viewBox="0 0 32.0 32.0" xmlns="http://www.w3.org/2000/svg" xmlns:xlink="http://www.w3.org/1999/xlink"><defs><clipPath id="i0"><path d="M16,0 C18.1938534,0 20.2678771,0.41607565 22.2220709,1.24822695 C24.1762648,2.08037825 25.8783924,3.21513002 27.3284539,4.65248227 C28.7785154,6.08983452 29.9196217,7.79196217 30.751773,9.75886525 C31.5839243,11.7257683 32,13.8061466 32,16 C32,18.1938534 31.5839243,20.2678771 30.751773,22.2220709 C29.9196217,24.1762648 28.7785154,25.8783924 27.3284539,27.3284539 C25.8783924,28.7785154 24.1762648,29.9196217 22.2220709,30.751773 C20.2678771,31.5839243 18.1938534,32 16,32 C13.8061466,32 11.7321229,31.5839243 9.77792908,30.751773 C7.82373522,29.9196217 6.12160757,28.7785154 4.6715461,27.3284539 C3.22148463,25.8783924 2.08037825,24.1762648 1.24822695,22.2220709 C0.41607565,20.2678771 0,18.1938534 0,16 C0,13.8061466 0.41607565,11.7257683 1.24822695,9.75886525 C2.08037825,7.79196217 3.22148463,6.08983452 4.6715461,4.65248227 C6.12160757,3.21513002 7.82373522,2.08037825 9.77792908,1.24822695 C11.7321229,0.41607565 13.8061466,0 16,0 Z M26.0239433,8.3218156 L8.3218156,25.9858156 C9.4057305,26.8681986 10.6034232,27.5302884 11.9148936,27.9720851 C13.2263641,28.4132766 14.5880662,28.6338723 16,28.6338723 C19.5301371,28.6338723 22.5183168,27.4044066 24.964539,24.9454752 C27.4107612,22.4871489 28.6338723,19.5053239 28.6338723,16 C28.6338723,14.5880662 28.406922,13.2263641 27.9530213,11.9148936 C27.4991206,10.6034232 26.8560946,9.4057305 26.0239433,8.3218156 Z M16,3.36612766 C12.4698629,3.36612766 9.48168322,4.58923877 7.03546099,7.03546099 C4.58923877,9.48168322 3.36612766,12.4698629 3.36612766,16 C3.36612766,17.3871206 3.60578723,18.7361135 4.08510638,20.0469787 C4.56442553,21.3584492 5.20745154,22.5564444 6.0141844,23.6409645 L23.6781844,5.97605674 C22.5688511,5.1190922 21.3648038,4.47001418 20.0660426,4.0288227 C18.7672813,3.587026 17.4119338,3.36612766 16,3.36612766 Z"></path></clipPath></defs><g transform="translate(32.0 0.0) rotate(90.0)"><g clip-path="url(#i0)"><polygon points="0,0 32,0 32,32 0,32 0,0" stroke="none"></polygon></g></g></svg>
