<?xml version="1.0" encoding="UTF-8"?><svg version="1.1" width="32px" height="32px" viewBox="0 0 32.0 32.0" xmlns="http://www.w3.org/2000/svg" xmlns:xlink="http://www.w3.org/1999/xlink"><defs><clipPath id="i0"><path d="M16,0 C18.2308121,0 20.3142368,0.416623397 22.250274,1.24987019 C24.1863113,2.08311698 25.8786515,3.21760034 27.3272948,4.65332026 C28.775938,6.08965557 29.916883,7.78199581 30.7501298,9.73034097 C31.5833766,11.6793015 32,13.7691879 32,16 C32,18.2049655 31.5833766,20.2819285 30.7501298,22.2308891 C29.916883,24.1798496 28.775938,25.8786515 27.3272948,27.3272948 C25.8786515,28.775938 24.1863113,29.916883 22.250274,30.7501298 C20.3142368,31.5833766 18.2308121,32 16,32 C13.7950345,32 11.7180715,31.5833766 9.76911094,30.7501298 C7.82015039,29.916883 6.12134849,28.775938 4.67270524,27.3272948 C3.224062,25.8786515 2.08311698,24.1798496 1.24987019,22.2308891 C0.416623397,20.2819285 0,18.2049655 0,16 C0,13.7691879 0.416623397,11.6857632 1.24987019,9.74972596 C2.08311698,7.81368872 3.224062,6.12134849 4.67270524,4.67270524 C6.12134849,3.224062 7.82015039,2.08311698 9.76911094,1.24987019 C11.7180715,0.416623397 13.7950345,0 16,0 Z M21.4997981,8.49985577 L16,13.9996538 L10.5002019,8.49985577 L8.49985577,10.5002019 L13.9996538,16 L8.49985577,21.4997981 L10.5002019,23.5001442 L16,18.0003462 L21.4997981,23.5001442 L23.5001442,21.4997981 L18.0003462,16 L23.5001442,10.5002019 L21.4997981,8.49985577 Z"></path></clipPath></defs><g transform=""><g transform=""><g clip-path="url(#i0)"><polygon points="0,0 32,0 32,32 0,32 0,0" stroke="none"></polygon></g></g></g></svg>
