<?xml version="1.0" encoding="UTF-8"?><svg version="1.1" width="32px" height="32px" viewBox="0 0 32.0 32.0" xmlns="http://www.w3.org/2000/svg" xmlns:xlink="http://www.w3.org/1999/xlink"><defs><clipPath id="i0"><path d="M16,0 C18.2130757,0 20.2930341,0.420151597 22.2398752,1.26045479 C24.1867163,2.100118 25.8801224,3.2399352 27.3200936,4.6799064 C28.7600648,6.1198776 29.899882,7.81328373 30.7395452,9.7601248 C31.5798484,11.7069659 32,13.7869243 32,16 C32,18.1868363 31.5798484,20.2533549 30.7395452,22.199556 C29.899882,24.1463971 28.7600648,25.8465231 27.3200936,27.299934 C25.8801224,28.7533449 24.1867163,29.899882 22.2398752,30.7395452 C20.2930341,31.5798484 18.2130757,32 16,32 C13.8131637,32 11.7466451,31.5798484 9.80044399,30.7395452 C7.85360293,29.899882 6.15347693,28.7533449 4.700066,27.299934 C3.24665507,25.8465231 2.100118,24.1463971 1.26045479,22.199556 C0.420151597,20.2533549 0,18.1868363 0,16 C0,13.7869243 0.420151597,11.7069659 1.26045479,9.7601248 C2.100118,7.81328373 3.24665507,6.1198776 4.700066,4.6799064 C6.15347693,3.2399352 7.85360293,2.100118 9.80044399,1.26045479 C11.7466451,0.420151597 13.8131637,0 16,0 Z M21.9202016,8.200156 L16,14.1203576 L10.0797984,8.200156 L8.200156,10.0797984 L14.1203576,16 L8.200156,21.9202016 L10.0797984,23.799844 L16,17.8796424 L21.9202016,23.799844 L23.799844,21.9202016 L17.8796424,16 L23.799844,10.0797984 L21.9202016,8.200156 Z"></path></clipPath></defs><g clip-path="url(#i0)"><polygon points="0,0 32,0 32,32 0,32 0,0" stroke="none" fill="#000000"></polygon></g></svg>