<?xml version="1.0" encoding="UTF-8"?><svg version="1.1" width="33px" height="33px" viewBox="0 0 33.0 33.0" xmlns="http://www.w3.org/2000/svg" xmlns:xlink="http://www.w3.org/1999/xlink"><defs><clipPath id="i0"><path d="M30.2406383,28.3968601 C30.7272337,28.3968601 31.1421096,28.5753013 31.4852657,28.9321838 C31.8284219,29.2897525 32,29.7118346 32,30.1984301 C32,30.7131643 31.8284219,31.1421096 31.4852657,31.4852657 C31.1421096,31.8284219 30.7272337,32 30.2406383,32 L1.80156994,32 C1.28683567,32 0.857890447,31.8284219 0.514734268,31.4852657 C0.171578089,31.1421096 1.77635684e-15,30.7131643 1.77635684e-15,30.1984301 C1.77635684e-15,29.7118346 0.171578089,29.2897525 0.514734268,28.9321838 C0.857890447,28.5753013 1.28683567,28.3968601 1.80156994,28.3968601 L30.2406383,28.3968601 Z M30.2406383,21.2760263 C30.7272337,21.2760263 31.1421096,21.4548106 31.4852657,21.8123794 C31.8284219,22.1699481 32,22.591687 32,23.0775962 C32,23.5923305 31.8284219,24.0212757 31.4852657,24.3644319 C31.1421096,24.707588 30.7272337,24.8791661 30.2406383,24.8791661 L12.482306,24.8791661 C11.9675717,24.8791661 11.5314202,24.707588 11.1738515,24.3644319 C10.8169691,24.0212757 10.6385279,23.5923305 10.6385279,23.0775962 C10.6385279,22.591687 10.8169691,22.1699481 11.1738515,21.8123794 C11.5314202,21.4548106 11.9675717,21.2760263 12.482306,21.2760263 L30.2406383,21.2760263 Z M30.2406383,14.1551924 C30.7272337,14.1551924 31.1421096,14.3339768 31.4852657,14.6915455 C31.8284219,15.0491142 32,15.4708532 32,15.9567623 C32,16.4714966 31.8284219,16.9004418 31.4852657,17.243598 C31.1421096,17.5867542 30.7272337,17.7583323 30.2406383,17.7583323 L1.80156994,17.7583323 C1.28683567,17.7583323 0.857890447,17.5867542 0.514734268,17.243598 C0.171578089,16.9004418 1.77635684e-15,16.4714966 1.77635684e-15,15.9567623 C1.77635684e-15,15.4708532 0.171578089,15.0491142 0.514734268,14.6915455 C0.857890447,14.3339768 1.28683567,14.1551924 1.80156994,14.1551924 L30.2406383,14.1551924 Z M30.2406383,7.12083387 C30.7272337,7.12083387 31.1421096,7.29241196 31.4852657,7.63556814 C31.8284219,7.97872432 32,8.40766954 32,8.92240381 C32,9.40831296 31.8284219,9.8300519 31.4852657,10.1876206 C31.1421096,10.5451894 30.7272337,10.7239737 30.2406383,10.7239737 L12.482306,10.7239737 C11.9675717,10.7239737 11.5314202,10.5451894 11.1738515,10.1876206 C10.8169691,9.8300519 10.6385279,9.3939004 10.6385279,8.87916613 C10.6385279,8.39325698 10.8169691,7.97872432 11.1738515,7.63556814 C11.5314202,7.29241196 11.9675717,7.12083387 12.482306,7.12083387 L30.2406383,7.12083387 Z M30.2406383,0 C30.7272337,0 31.1421096,0.171578089 31.4852657,0.514734268 C31.8284219,0.857890447 32,1.28683567 32,1.80156994 C32,2.2881654 31.8284219,2.7102475 31.4852657,3.06781624 C31.1421096,3.42469867 30.7272337,3.60313988 30.2406383,3.60313988 L1.80156994,3.60313988 C1.28683567,3.60313988 0.857890447,3.42469867 0.514734268,3.06781624 C0.171578089,2.7102475 1.77635684e-15,2.274096 1.77635684e-15,1.75936173 C1.77635684e-15,1.27276627 0.171578089,0.857890447 0.514734268,0.514734268 C0.857890447,0.171578089 1.28683567,0 1.80156994,0 L30.2406383,0 Z"></path></clipPath></defs><g transform="translate(0.4579999999999984 0.4579999999999984)"><g transform=""><g clip-path="url(#i0)"><polygon points="1.77635684e-15,0 32,0 32,32 1.77635684e-15,32 1.77635684e-15,0" stroke="none"></polygon></g></g></g></svg>
