<?xml version="1.0" encoding="UTF-8"?><svg version="1.1" width="36px" height="36px" viewBox="0 0 36.0 36.0" xmlns="http://www.w3.org/2000/svg" xmlns:xlink="http://www.w3.org/1999/xlink"><defs><clipPath id="i0"><path d="M36,33 L36,36 L0,36 L0,33 L36,33 Z M36,24.75 L36,27.75 L12.45,27.75 L12.45,24.75 L36,24.75 Z M36,16.5 L36,19.5 L0,19.5 L0,16.5 L36,16.5 Z M36,8.25 L36,11.25 L12.45,11.25 L12.45,8.25 L36,8.25 Z M36,0 L36,3 L0,3 L0,0 L36,0 Z"></path></clipPath></defs><g clip-path="url(#i0)"><polygon points="0,0 36,0 36,36 0,36 0,0" stroke="none" fill="#000000"></polygon></g></svg>