<?xml version="1.0" encoding="UTF-8"?><svg version="1.1" width="32px" height="32px" viewBox="0 0 32.0 32.0" xmlns="http://www.w3.org/2000/svg" xmlns:xlink="http://www.w3.org/1999/xlink"><defs><clipPath id="i0"><path d="M13.9172982,0 C14.3307184,0 14.6852812,0.147852679 14.9809866,0.443558037 C15.2759828,0.739263396 15.4234809,1.07893454 15.4234809,1.46257147 C15.4234809,1.87670079 15.2759828,2.23126357 14.9809866,2.52625981 C14.6852812,2.82196516 14.3307184,2.96981784 13.9172982,2.96981784 L3.54633692,2.96981784 C3.39812968,2.96981784 3.26516864,3.02902983 3.1474538,3.1474538 C3.02902983,3.26516864 2.96981784,3.39812968 2.96981784,3.54633692 L2.96981784,28.4536631 C2.96981784,28.6018703 3.02902983,28.7348314 3.1474538,28.8525462 C3.26516864,28.9709702 3.39812968,29.0301822 3.54633692,29.0301822 L28.4536631,29.0301822 C28.6018703,29.0301822 28.7348314,28.9709702 28.8525462,28.8525462 C28.9709702,28.7348314 29.0301822,28.6018703 29.0301822,28.4536631 L29.0301822,18.0827018 C29.0301822,17.6692816 29.1780348,17.3147188 29.4737402,17.0190134 C29.7687364,16.7240172 30.1232992,16.5765191 30.5374285,16.5765191 C30.9508487,16.5765191 31.2979657,16.7240172 31.5787794,17.0190134 C31.8595931,17.3147188 32,17.6692816 32,18.0827018 L32,28.4536631 C32,29.4287107 31.6525285,30.2633515 30.9575854,30.9575854 C30.2633515,31.6525285 29.4287107,32 28.4536631,32 L3.54633692,32 C2.57128928,32 1.7366485,31.6525285 1.04241457,30.9575854 C0.347471524,30.2633515 0,29.4287107 0,28.4536631 L0,3.54633692 C0,2.57128928 0.347471524,1.7366485 1.04241457,1.04241457 C1.7366485,0.347471524 2.57128928,0 3.54633692,0 L13.9172982,0 Z M30.2715064,0 C30.7735673,0 31.1869875,0.162744316 31.5117671,0.488232948 C31.8372557,0.813012454 32,1.22643266 32,1.72849355 L32,11.2580774 C32,11.6714976 31.8521473,12.0260604 31.556442,12.3217657 C31.2607366,12.616762 30.9210655,12.7642601 30.5374285,12.7642601 C30.1232992,12.7642601 29.7687364,12.616762 29.4737402,12.3217657 C29.1780348,12.0260604 29.0301822,11.6714976 29.0301822,11.2580774 L29.0301822,5.09719452 L12.7642601,21.3631166 C12.498338,21.6290387 12.1661127,21.7619997 11.7675841,21.7619997 C11.3683464,21.7619997 11.0063378,21.5992554 10.6815583,21.2737668 C10.3858529,20.9787706 10.2380003,20.6390994 10.2380003,20.2547534 C10.2380003,19.8704073 10.3858529,19.5307362 10.6815583,19.2357399 L26.9028055,2.96981784 L20.7419226,2.96981784 C20.3285024,2.96981784 19.9739396,2.82196516 19.6782343,2.52625981 C19.383238,2.23126357 19.2357399,1.87670079 19.2357399,1.46257147 C19.2357399,1.04915127 19.383238,0.702034304 19.6782343,0.421220582 C19.9739396,0.140406861 20.3285024,0 20.7419226,0 L30.2715064,0 Z"></path></clipPath></defs><g transform=""><g clip-path="url(#i0)"><polygon points="0,0 32,0 32,32 0,32 0,0" stroke="none"></polygon></g></g></svg>
