<?xml version="1.0" encoding="UTF-8"?><svg version="1.1" width="32px" height="32px" viewBox="0 0 32.0 32.0" xmlns="http://www.w3.org/2000/svg" xmlns:xlink="http://www.w3.org/1999/xlink"><defs><clipPath id="i0"><path d="M16,0 C18.2042336,0 20.2880705,0.411963668 22.2515107,1.235891 C24.2149508,2.05921028 25.9187474,3.19933113 27.3629005,4.65625356 C28.8070535,6.11256793 29.9410938,7.81636453 30.7650211,9.76764337 C31.5883404,11.7183141 32,13.7957664 32,16 C32,18.2297724 31.5883404,20.3072246 30.7650211,22.2323566 C29.9410938,24.1580968 28.8009729,25.8430434 27.3446585,27.2871964 C25.8877361,28.7313495 24.1836355,29.8778551 22.2323566,30.726713 C20.2816859,31.575571 18.2042336,32 16,32 C13.7957664,32 11.7183141,31.5819557 9.76764337,30.7458671 C7.81636453,29.9097784 6.11864858,28.7696576 4.6744955,27.3255045 C3.23034242,25.8813514 2.09022156,24.1836355 1.25413294,22.2323566 C0.418044313,20.2816859 0,18.2042336 0,16 C0,13.7702276 0.418044313,11.6863908 1.25413294,9.74848934 C2.09022156,7.80997986 3.23672709,6.11256793 4.69364953,4.65625356 C6.15057196,3.19933113 7.84828792,2.05921028 9.7867974,1.235891 C11.7246988,0.411963668 13.7957664,0 16,0 Z M7.94345001,13.6057462 C7.28430814,13.6057462 6.72032835,13.8401551 6.25151066,14.3089728 C5.78330103,14.7777904 5.54919621,15.3414662 5.54919621,16 C5.54919621,16.6585338 5.78330103,17.2222096 6.25151066,17.6910272 C6.72032835,18.1598449 7.28430814,18.3942538 7.94345001,18.3942538 C8.60198381,18.3942538 9.16565956,18.1598449 9.63447725,17.6910272 C10.1032949,17.2222096 10.3377038,16.6585338 10.3377038,16 C10.3377038,15.3414662 10.1032949,14.7777904 9.63447725,14.3089728 C9.16565956,13.8401551 8.60198381,13.6057462 7.94345001,13.6057462 Z M16,13.6057462 C15.3414662,13.6057462 14.7777904,13.8401551 14.3089728,14.3089728 C13.8401551,14.7777904 13.6057462,15.3414662 13.6057462,16 C13.6057462,16.6585338 13.8401551,17.2222096 14.3089728,17.6910272 C14.7777904,18.1598449 15.3414662,18.3942538 16,18.3942538 C16.6585338,18.3942538 17.2222096,18.1598449 17.6910272,17.6910272 C18.1598449,17.2222096 18.3942538,16.6585338 18.3942538,16 C18.3942538,15.3414662 18.1598449,14.7777904 17.6910272,14.3089728 C17.2222096,13.8401551 16.6585338,13.6057462 16,13.6057462 Z M24.019154,13.6057462 C23.3600122,13.6057462 22.8024171,13.8401551 22.3463687,14.3089728 C21.8903204,14.7777904 21.6622962,15.3414662 21.6622962,16 C21.6622962,16.6585338 21.8903204,17.2222096 22.3463687,17.6910272 C22.8024171,18.1598449 23.3600122,18.3942538 24.019154,18.3942538 C24.7032265,18.3942538 25.273287,18.1598449 25.7293353,17.6910272 C26.1853837,17.2222096 26.4134078,16.6585338 26.4134078,16 C26.4134078,15.3414662 26.178999,14.7777904 25.7101813,14.3089728 C25.2413636,13.8401551 24.6776878,13.6057462 24.019154,13.6057462 Z"></path></clipPath></defs><g clip-path="url(#i0)"><polygon points="0,0 32,0 32,32 0,32 0,0" stroke="none"></polygon></g></svg>
