<?xml version="1.0" encoding="UTF-8"?><svg version="1.1" width="32px" height="27px" viewBox="0 0 32.0 27.0" xmlns="http://www.w3.org/2000/svg" xmlns:xlink="http://www.w3.org/1999/xlink"><defs><clipPath id="i0"><path d="M21.9997988,0 C22.4167912,0 22.7897843,0.268522493 22.9361817,0.673829666 L28.927872,17.2665217 C28.9336719,17.2814754 28.9390718,17.2964291 28.9442717,17.3117982 L31.936017,25.5965551 C32.1300134,26.1336416 31.8680182,26.7322044 31.3508277,26.9336638 C30.8336372,27.1349155 30.2572477,26.8628415 30.0634512,26.3259626 L27.3067017,18.6921064 L16.6928959,18.6921064 L13.9363463,26.3259626 C13.791369,26.7274275 13.4237357,26.9949324 13.0109033,26.9997092 C12.5980508,27.0042784 12.2248976,26.7450812 12.0715604,26.3469393 L9.92305975,20.7690071 L4.07722671,20.7690071 L1.92870603,26.3469393 C1.72358978,26.8794567 1.14164043,27.1384462 0.62886981,26.9253562 C0.116099192,26.7124739 -0.133316245,26.1080958 0.0717800027,25.5755784 L2.46309625,19.3673068 C2.46847615,19.3523531 2.47415605,19.3376071 2.48015594,19.3230688 L6.07167022,9.99882309 C6.22354744,9.6045858 6.59124072,9.34605319 7.00013323,9.34605319 C7.40904575,9.34605319 7.77673902,9.6045858 7.92859625,9.99882309 L11.5201105,19.3230688 C11.5261104,19.3376071 11.5318103,19.3523531 11.5371902,19.3673068 L12.969944,23.087036 L15.0554658,17.3117982 C15.0605658,17.2966368 15.0660057,17.2814754 15.0717655,17.2665217 L21.0636159,0.673829666 C21.2100132,0.268522493 21.5830064,0 21.9997988,0 Z M7.00013323,13.1806142 L4.87721208,18.6921064 L9.12307439,18.6921064 L7.00013323,13.1806142 Z M21.9997988,3.99595697 L17.4428822,16.6152057 L26.5567154,16.6152057 L21.9997988,3.99595697 Z"></path></clipPath></defs><g clip-path="url(#i0)"><polygon points="0,0 32,0 32,27 0,27 0,0" stroke="none" fill="#202020"></polygon></g></svg>